<?xml version="1.0" encoding="UTF-8" standalone="no"?>
<!DOCTYPE svg PUBLIC "-//W3C//DTD SVG 1.1//EN"
 "http://www.w3.org/Graphics/SVG/1.1/DTD/svg11.dtd">
<!-- Generated by graphviz version 2.38.0 (20140413.2041)
 -->
<!-- Title: gmx::RepeatingOptionSectionHandle&lt; T &gt; Pages: 1 -->
<svg width="155pt" height="229pt"
 viewBox="0.00 0.00 155.00 229.00" xmlns="http://www.w3.org/2000/svg" xmlns:xlink="http://www.w3.org/1999/xlink">
<g id="graph0" class="graph" transform="scale(1 1) rotate(0) translate(4 225)">
<title>gmx::RepeatingOptionSectionHandle&lt; T &gt;</title>
<polygon fill="white" stroke="none" points="-4,4 -4,-225 151,-225 151,4 -4,4"/>
<!-- Node1 -->
<g id="node1" class="node"><title>Node1</title>
<polygon fill="#bfbfbf" stroke="black" points="0,-0.5 0,-30.5 147,-30.5 147,-0.5 0,-0.5"/>
<text text-anchor="start" x="8" y="-18.5" font-family="Helvetica,sans-Serif" font-size="10.00">gmx::RepeatingOptionSection</text>
<text text-anchor="middle" x="73.5" y="-7.5" font-family="Helvetica,sans-Serif" font-size="10.00">Handle&lt; T &gt;</text>
</g>
<!-- Node2 -->
<g id="node2" class="node"><title>Node2</title>
<g id="a_node2"><a xlink:href="classgmx_1_1AbstractOptionSectionHandle.xhtml" target="_top" xlink:title="Base class for handles to option sections. ">
<polygon fill="white" stroke="black" points="3.5,-67.5 3.5,-97.5 143.5,-97.5 143.5,-67.5 3.5,-67.5"/>
<text text-anchor="start" x="11.5" y="-85.5" font-family="Helvetica,sans-Serif" font-size="10.00">gmx::AbstractOptionSection</text>
<text text-anchor="middle" x="73.5" y="-74.5" font-family="Helvetica,sans-Serif" font-size="10.00">Handle</text>
</a>
</g>
</g>
<!-- Node2&#45;&gt;Node1 -->
<g id="edge1" class="edge"><title>Node2&#45;&gt;Node1</title>
<path fill="none" stroke="midnightblue" d="M73.5,-57.1081C73.5,-48.1539 73.5,-38.3227 73.5,-30.5765"/>
<polygon fill="midnightblue" stroke="midnightblue" points="70.0001,-57.3959 73.5,-67.396 77.0001,-57.396 70.0001,-57.3959"/>
</g>
<!-- Node3 -->
<g id="node3" class="node"><title>Node3</title>
<g id="a_node3"><a xlink:href="classgmx_1_1IOptionsContainerWithSections.xhtml" target="_top" xlink:title="Interface for adding input options with sections. ">
<polygon fill="white" stroke="black" points="3.5,-134.5 3.5,-164.5 143.5,-164.5 143.5,-134.5 3.5,-134.5"/>
<text text-anchor="start" x="11.5" y="-152.5" font-family="Helvetica,sans-Serif" font-size="10.00">gmx::IOptionsContainerWith</text>
<text text-anchor="middle" x="73.5" y="-141.5" font-family="Helvetica,sans-Serif" font-size="10.00">Sections</text>
</a>
</g>
</g>
<!-- Node3&#45;&gt;Node2 -->
<g id="edge2" class="edge"><title>Node3&#45;&gt;Node2</title>
<path fill="none" stroke="midnightblue" d="M73.5,-124.108C73.5,-115.154 73.5,-105.323 73.5,-97.5765"/>
<polygon fill="midnightblue" stroke="midnightblue" points="70.0001,-124.396 73.5,-134.396 77.0001,-124.396 70.0001,-124.396"/>
</g>
<!-- Node4 -->
<g id="node4" class="node"><title>Node4</title>
<g id="a_node4"><a xlink:href="classgmx_1_1IOptionsContainer.xhtml" target="_top" xlink:title="Interface for adding input options. ">
<polygon fill="white" stroke="black" points="13.5,-201.5 13.5,-220.5 133.5,-220.5 133.5,-201.5 13.5,-201.5"/>
<text text-anchor="middle" x="73.5" y="-208.5" font-family="Helvetica,sans-Serif" font-size="10.00">gmx::IOptionsContainer</text>
</a>
</g>
</g>
<!-- Node4&#45;&gt;Node3 -->
<g id="edge3" class="edge"><title>Node4&#45;&gt;Node3</title>
<path fill="none" stroke="midnightblue" d="M73.5,-191.235C73.5,-182.586 73.5,-172.497 73.5,-164.523"/>
<polygon fill="midnightblue" stroke="midnightblue" points="70.0001,-191.475 73.5,-201.475 77.0001,-191.475 70.0001,-191.475"/>
</g>
</g>
</svg>
