<?xml version="1.0" encoding="UTF-8" standalone="no"?>
<!DOCTYPE svg PUBLIC "-//W3C//DTD SVG 1.1//EN"
 "http://www.w3.org/Graphics/SVG/1.1/DTD/svg11.dtd">
<!-- Generated by graphviz version 2.38.0 (20140413.2041)
 -->
<!-- Title: gmx::IAnalysisDataModule Pages: 1 -->
<svg width="738pt" height="372pt"
 viewBox="0.00 0.00 738.00 372.00" xmlns="http://www.w3.org/2000/svg" xmlns:xlink="http://www.w3.org/1999/xlink">
<g id="graph0" class="graph" transform="scale(1 1) rotate(0) translate(4 368)">
<title>gmx::IAnalysisDataModule</title>
<polygon fill="white" stroke="none" points="-4,4 -4,-368 734,-368 734,4 -4,4"/>
<!-- Node1 -->
<g id="node1" class="node"><title>Node1</title>
<polygon fill="#bfbfbf" stroke="black" points="0,-221 0,-240 134,-240 134,-221 0,-221"/>
<text text-anchor="middle" x="67" y="-228" font-family="Helvetica,sans-Serif" font-size="10.00">gmx::IAnalysisDataModule</text>
</g>
<!-- Node2 -->
<g id="node2" class="node"><title>Node2</title>
<g id="a_node2"><a xlink:href="classgmx_1_1AnalysisDataModuleParallel.xhtml" target="_top" xlink:title="Convenience base class for parallel analysis data modules. ">
<polygon fill="white" stroke="black" points="170,-290 170,-309 334,-309 334,-290 170,-290"/>
<text text-anchor="middle" x="252" y="-297" font-family="Helvetica,sans-Serif" font-size="10.00">gmx::AnalysisDataModuleParallel</text>
</a>
</g>
</g>
<!-- Node1&#45;&gt;Node2 -->
<g id="edge1" class="edge"><title>Node1&#45;&gt;Node2</title>
<path fill="none" stroke="midnightblue" d="M103.035,-243.71C138.948,-257.251 193.917,-277.977 225.771,-289.987"/>
<polygon fill="midnightblue" stroke="midnightblue" points="104.037,-240.347 93.4454,-240.094 101.568,-246.897 104.037,-240.347"/>
</g>
<!-- Node5 -->
<g id="node5" class="node"><title>Node5</title>
<g id="a_node5"><a xlink:href="classgmx_1_1AnalysisDataModuleSerial.xhtml" target="_top" xlink:title="Convenience base class for serial analysis data modules. ">
<polygon fill="white" stroke="black" points="174,-153 174,-172 330,-172 330,-153 174,-153"/>
<text text-anchor="middle" x="252" y="-160" font-family="Helvetica,sans-Serif" font-size="10.00">gmx::AnalysisDataModuleSerial</text>
</a>
</g>
</g>
<!-- Node1&#45;&gt;Node5 -->
<g id="edge4" class="edge"><title>Node1&#45;&gt;Node5</title>
<path fill="none" stroke="midnightblue" d="M103.385,-217.351C139.128,-204.07 193.482,-183.873 225.3,-172.05"/>
<polygon fill="midnightblue" stroke="midnightblue" points="101.986,-214.137 93.8313,-220.901 104.424,-220.699 101.986,-214.137"/>
</g>
<!-- Node3 -->
<g id="node3" class="node"><title>Node3</title>
<g id="a_node3"><a xlink:href="classgmx_1_1AnalysisDataSimpleHistogramModule.xhtml" target="_top" xlink:title="Data module for per&#45;frame histograms. ">
<polygon fill="white" stroke="black" points="370,-333.5 370,-363.5 545,-363.5 545,-333.5 370,-333.5"/>
<text text-anchor="start" x="378" y="-351.5" font-family="Helvetica,sans-Serif" font-size="10.00">gmx::AnalysisDataSimpleHistogram</text>
<text text-anchor="middle" x="457.5" y="-340.5" font-family="Helvetica,sans-Serif" font-size="10.00">Module</text>
</a>
</g>
</g>
<!-- Node2&#45;&gt;Node3 -->
<g id="edge2" class="edge"><title>Node2&#45;&gt;Node3</title>
<path fill="none" stroke="midnightblue" d="M302.533,-311.427C330.089,-318.062 364.655,-326.385 394.051,-333.463"/>
<polygon fill="midnightblue" stroke="midnightblue" points="303.261,-308.002 292.72,-309.064 301.623,-314.808 303.261,-308.002"/>
</g>
<!-- Node4 -->
<g id="node4" class="node"><title>Node4</title>
<g id="a_node4"><a xlink:href="classgmx_1_1AnalysisDataWeightedHistogramModule.xhtml" target="_top" xlink:title="Data module for per&#45;frame weighted histograms. ">
<polygon fill="white" stroke="black" points="387,-284.5 387,-314.5 528,-314.5 528,-284.5 387,-284.5"/>
<text text-anchor="start" x="395" y="-302.5" font-family="Helvetica,sans-Serif" font-size="10.00">gmx::AnalysisDataWeighted</text>
<text text-anchor="middle" x="457.5" y="-291.5" font-family="Helvetica,sans-Serif" font-size="10.00">HistogramModule</text>
</a>
</g>
</g>
<!-- Node2&#45;&gt;Node4 -->
<g id="edge3" class="edge"><title>Node2&#45;&gt;Node4</title>
<path fill="none" stroke="midnightblue" d="M344.356,-299.5C358.65,-299.5 373.22,-299.5 386.923,-299.5"/>
<polygon fill="midnightblue" stroke="midnightblue" points="344.013,-296 334.013,-299.5 344.013,-303 344.013,-296"/>
</g>
<!-- Node6 -->
<g id="node6" class="node"><title>Node6</title>
<g id="a_node6"><a xlink:href="classgmx_1_1AbstractPlotModule.xhtml" target="_top" xlink:title="Abstract data module for writing data into a file. ">
<polygon fill="white" stroke="black" points="394,-246 394,-265 521,-265 521,-246 394,-246"/>
<text text-anchor="middle" x="457.5" y="-253" font-family="Helvetica,sans-Serif" font-size="10.00">gmx::AbstractPlotModule</text>
</a>
</g>
</g>
<!-- Node5&#45;&gt;Node6 -->
<g id="edge5" class="edge"><title>Node5&#45;&gt;Node6</title>
<path fill="none" stroke="midnightblue" d="M272.903,-178.161C295.281,-195.01 333.303,-221.412 370,-236.5 379.243,-240.3 389.369,-243.396 399.334,-245.899"/>
<polygon fill="midnightblue" stroke="midnightblue" points="274.927,-175.302 264.858,-172.005 270.673,-180.862 274.927,-175.302"/>
</g>
<!-- Node9 -->
<g id="node9" class="node"><title>Node9</title>
<g id="a_node9"><a xlink:href="classgmx_1_1AnalysisDataAverageModule.xhtml" target="_top" xlink:title="Data module for independently averaging each column in input data. ">
<polygon fill="white" stroke="black" points="389.5,-196.5 389.5,-226.5 525.5,-226.5 525.5,-196.5 389.5,-196.5"/>
<text text-anchor="start" x="397.5" y="-214.5" font-family="Helvetica,sans-Serif" font-size="10.00">gmx::AnalysisDataAverage</text>
<text text-anchor="middle" x="457.5" y="-203.5" font-family="Helvetica,sans-Serif" font-size="10.00">Module</text>
</a>
</g>
</g>
<!-- Node5&#45;&gt;Node9 -->
<g id="edge8" class="edge"><title>Node5&#45;&gt;Node9</title>
<path fill="none" stroke="midnightblue" d="M302.533,-174.427C330.089,-181.062 364.655,-189.385 394.051,-196.463"/>
<polygon fill="midnightblue" stroke="midnightblue" points="303.261,-171.002 292.72,-172.064 301.623,-177.808 303.261,-171.002"/>
</g>
<!-- Node10 -->
<g id="node10" class="node"><title>Node10</title>
<g id="a_node10"><a xlink:href="classgmx_1_1AnalysisDataBinAverageModule.xhtml" target="_top" xlink:title="Data module for bin averages. ">
<polygon fill="white" stroke="black" points="382.5,-147.5 382.5,-177.5 532.5,-177.5 532.5,-147.5 382.5,-147.5"/>
<text text-anchor="start" x="390.5" y="-165.5" font-family="Helvetica,sans-Serif" font-size="10.00">gmx::AnalysisDataBinAverage</text>
<text text-anchor="middle" x="457.5" y="-154.5" font-family="Helvetica,sans-Serif" font-size="10.00">Module</text>
</a>
</g>
</g>
<!-- Node5&#45;&gt;Node10 -->
<g id="edge9" class="edge"><title>Node5&#45;&gt;Node10</title>
<path fill="none" stroke="midnightblue" d="M340.336,-162.5C354.333,-162.5 368.701,-162.5 382.353,-162.5"/>
<polygon fill="midnightblue" stroke="midnightblue" points="340.225,-159 330.225,-162.5 340.225,-166 340.225,-159"/>
</g>
<!-- Node11 -->
<g id="node11" class="node"><title>Node11</title>
<g id="a_node11"><a xlink:href="classgmx_1_1AnalysisDataDisplacementModule.xhtml" target="_top" xlink:title="Data module for calculating displacements. ">
<polygon fill="white" stroke="black" points="377.5,-98.5 377.5,-128.5 537.5,-128.5 537.5,-98.5 377.5,-98.5"/>
<text text-anchor="start" x="385.5" y="-116.5" font-family="Helvetica,sans-Serif" font-size="10.00">gmx::AnalysisDataDisplacement</text>
<text text-anchor="middle" x="457.5" y="-105.5" font-family="Helvetica,sans-Serif" font-size="10.00">Module</text>
</a>
</g>
</g>
<!-- Node5&#45;&gt;Node11 -->
<g id="edge10" class="edge"><title>Node5&#45;&gt;Node11</title>
<path fill="none" stroke="midnightblue" d="M302.533,-150.573C330.089,-143.938 364.655,-135.615 394.051,-128.537"/>
<polygon fill="midnightblue" stroke="midnightblue" points="301.623,-147.192 292.72,-152.936 303.261,-153.998 301.623,-147.192"/>
</g>
<!-- Node12 -->
<g id="node12" class="node"><title>Node12</title>
<g id="a_node12"><a xlink:href="classgmx_1_1AnalysisDataFrameAverageModule.xhtml" target="_top" xlink:title="Data module for averaging of columns for each frame. ">
<polygon fill="white" stroke="black" points="375.5,-49.5 375.5,-79.5 539.5,-79.5 539.5,-49.5 375.5,-49.5"/>
<text text-anchor="start" x="383.5" y="-67.5" font-family="Helvetica,sans-Serif" font-size="10.00">gmx::AnalysisDataFrameAverage</text>
<text text-anchor="middle" x="457.5" y="-56.5" font-family="Helvetica,sans-Serif" font-size="10.00">Module</text>
</a>
</g>
</g>
<!-- Node5&#45;&gt;Node12 -->
<g id="edge11" class="edge"><title>Node5&#45;&gt;Node12</title>
<path fill="none" stroke="midnightblue" d="M273.86,-146.988C296.524,-130.745 334.29,-105.43 370,-89.5 378.28,-85.8064 387.248,-82.5032 396.168,-79.6031"/>
<polygon fill="midnightblue" stroke="midnightblue" points="271.707,-144.225 265.672,-152.933 275.821,-149.889 271.707,-144.225"/>
</g>
<!-- Node13 -->
<g id="node13" class="node"><title>Node13</title>
<g id="a_node13"><a xlink:href="classgmx_1_1AnalysisDataLifetimeModule.xhtml" target="_top" xlink:title="Data module for computing lifetime histograms for columns in input data. ">
<polygon fill="white" stroke="black" points="390.5,-0.5 390.5,-30.5 524.5,-30.5 524.5,-0.5 390.5,-0.5"/>
<text text-anchor="start" x="398.5" y="-18.5" font-family="Helvetica,sans-Serif" font-size="10.00">gmx::AnalysisDataLifetime</text>
<text text-anchor="middle" x="457.5" y="-7.5" font-family="Helvetica,sans-Serif" font-size="10.00">Module</text>
</a>
</g>
</g>
<!-- Node5&#45;&gt;Node13 -->
<g id="edge12" class="edge"><title>Node5&#45;&gt;Node13</title>
<path fill="none" stroke="midnightblue" d="M265.277,-144.346C284.454,-117.398 324.111,-67.0395 370,-39.5 376.281,-35.7308 383.171,-32.5366 390.235,-29.8334"/>
<polygon fill="midnightblue" stroke="midnightblue" points="262.215,-142.619 259.372,-152.826 267.959,-146.62 262.215,-142.619"/>
</g>
<!-- Node7 -->
<g id="node7" class="node"><title>Node7</title>
<g id="a_node7"><a xlink:href="classgmx_1_1AnalysisDataPlotModule.xhtml" target="_top" xlink:title="Plotting module for straightforward plotting of data. ">
<polygon fill="white" stroke="black" points="581,-268 581,-287 730,-287 730,-268 581,-268"/>
<text text-anchor="middle" x="655.5" y="-275" font-family="Helvetica,sans-Serif" font-size="10.00">gmx::AnalysisDataPlotModule</text>
</a>
</g>
</g>
<!-- Node6&#45;&gt;Node7 -->
<g id="edge6" class="edge"><title>Node6&#45;&gt;Node7</title>
<path fill="none" stroke="midnightblue" d="M531.04,-263.642C547.315,-265.469 564.596,-267.409 580.913,-269.24"/>
<polygon fill="midnightblue" stroke="midnightblue" points="531.383,-260.159 521.055,-262.521 530.602,-267.115 531.383,-260.159"/>
</g>
<!-- Node8 -->
<g id="node8" class="node"><title>Node8</title>
<g id="a_node8"><a xlink:href="classgmx_1_1AnalysisDataVectorPlotModule.xhtml" target="_top" xlink:title="Plotting module specifically for data consisting of vectors. ">
<polygon fill="white" stroke="black" points="582.5,-218.5 582.5,-248.5 728.5,-248.5 728.5,-218.5 582.5,-218.5"/>
<text text-anchor="start" x="590.5" y="-236.5" font-family="Helvetica,sans-Serif" font-size="10.00">gmx::AnalysisDataVectorPlot</text>
<text text-anchor="middle" x="655.5" y="-225.5" font-family="Helvetica,sans-Serif" font-size="10.00">Module</text>
</a>
</g>
</g>
<!-- Node6&#45;&gt;Node8 -->
<g id="edge7" class="edge"><title>Node6&#45;&gt;Node8</title>
<path fill="none" stroke="midnightblue" d="M531.279,-247.331C547.946,-245.46 565.659,-243.472 582.302,-241.604"/>
<polygon fill="midnightblue" stroke="midnightblue" points="530.602,-243.885 521.055,-248.479 531.383,-250.841 530.602,-243.885"/>
</g>
</g>
</svg>
