<?xml version="1.0" encoding="UTF-8" standalone="no"?>
<!DOCTYPE svg PUBLIC "-//W3C//DTD SVG 1.1//EN"
 "http://www.w3.org/Graphics/SVG/1.1/DTD/svg11.dtd">
<!-- Generated by graphviz version 2.38.0 (20140413.2041)
 -->
<!-- Title: gmx::SelectionOption Pages: 1 -->
<svg width="158pt" height="151pt"
 viewBox="0.00 0.00 158.00 151.00" xmlns="http://www.w3.org/2000/svg" xmlns:xlink="http://www.w3.org/1999/xlink">
<g id="graph0" class="graph" transform="scale(1 1) rotate(0) translate(4 147)">
<title>gmx::SelectionOption</title>
<polygon fill="white" stroke="none" points="-4,4 -4,-147 154,-147 154,4 -4,4"/>
<!-- Node1 -->
<g id="node1" class="node"><title>Node1</title>
<polygon fill="#bfbfbf" stroke="black" points="20,-0.5 20,-19.5 130,-19.5 130,-0.5 20,-0.5"/>
<text text-anchor="middle" x="75" y="-7.5" font-family="Helvetica,sans-Serif" font-size="10.00">gmx::SelectionOption</text>
</g>
<!-- Node2 -->
<g id="node2" class="node"><title>Node2</title>
<g id="a_node2"><a xlink:href="classgmx_1_1OptionTemplate.xhtml" target="_top" xlink:title="gmx::OptionTemplate\l\&lt; Selection, SelectionOption \&gt;">
<polygon fill="white" stroke="black" points="-1.42109e-14,-56.5 -1.42109e-14,-86.5 150,-86.5 150,-56.5 -1.42109e-14,-56.5"/>
<text text-anchor="start" x="8" y="-74.5" font-family="Helvetica,sans-Serif" font-size="10.00">gmx::OptionTemplate</text>
<text text-anchor="middle" x="75" y="-63.5" font-family="Helvetica,sans-Serif" font-size="10.00">&lt; Selection, SelectionOption &gt;</text>
</a>
</g>
</g>
<!-- Node2&#45;&gt;Node1 -->
<g id="edge1" class="edge"><title>Node2&#45;&gt;Node1</title>
<path fill="none" stroke="midnightblue" d="M75,-46.2892C75,-36.857 75,-26.6548 75,-19.6578"/>
<polygon fill="midnightblue" stroke="midnightblue" points="71.5001,-46.3993 75,-56.3993 78.5001,-46.3994 71.5001,-46.3993"/>
</g>
<!-- Node3 -->
<g id="node3" class="node"><title>Node3</title>
<g id="a_node3"><a xlink:href="classgmx_1_1AbstractOption.xhtml" target="_top" xlink:title="Abstract base class for specifying option properties. ">
<polygon fill="white" stroke="black" points="21.5,-123.5 21.5,-142.5 128.5,-142.5 128.5,-123.5 21.5,-123.5"/>
<text text-anchor="middle" x="75" y="-130.5" font-family="Helvetica,sans-Serif" font-size="10.00">gmx::AbstractOption</text>
</a>
</g>
</g>
<!-- Node3&#45;&gt;Node2 -->
<g id="edge2" class="edge"><title>Node3&#45;&gt;Node2</title>
<path fill="none" stroke="midnightblue" d="M75,-113.235C75,-104.586 75,-94.4969 75,-86.523"/>
<polygon fill="midnightblue" stroke="midnightblue" points="71.5001,-113.475 75,-123.475 78.5001,-113.475 71.5001,-113.475"/>
</g>
</g>
</svg>
