<?xml version="1.0" encoding="UTF-8" standalone="no"?>
<!DOCTYPE svg PUBLIC "-//W3C//DTD SVG 1.1//EN"
 "http://www.w3.org/Graphics/SVG/1.1/DTD/svg11.dtd">
<!-- Generated by graphviz version 2.38.0 (20140413.2041)
 -->
<!-- Title: src/gromacs/mdlib/nbnxn_ocl Pages: 1 -->
<svg width="109pt" height="223pt"
 viewBox="0.00 0.00 109.00 223.00" xmlns="http://www.w3.org/2000/svg" xmlns:xlink="http://www.w3.org/1999/xlink">
<g id="graph0" class="graph" transform="scale(1 1) rotate(0) translate(4 219)">
<title>src/gromacs/mdlib/nbnxn_ocl</title>
<polygon fill="white" stroke="none" points="-4,4 -4,-219 105,-219 105,4 -4,4"/>
<g id="clust1" class="cluster"><title>clusterdir_5c78749fb0acf3df2e9bdab18856bfa3</title>
<g id="a_clust1"><a xlink:href="dir_5c78749fb0acf3df2e9bdab18856bfa3.xhtml" target="_top" xlink:title="mdlib">
<polygon fill="#ddddee" stroke="black" points="15,-136 15,-207 93,-207 93,-136 15,-136"/>
<text text-anchor="middle" x="54" y="-195" font-family="Helvetica,sans-Serif" font-size="10.00">mdlib</text>
</a>
</g>
</g>
<!-- dir_7cd496dfc32f30b51db5a415e5b8e6e9 -->
<g id="node1" class="node"><title>dir_7cd496dfc32f30b51db5a415e5b8e6e9</title>
<g id="a_node1"><a xlink:href="dir_7cd496dfc32f30b51db5a415e5b8e6e9.xhtml" target="_top" xlink:title="nbnxn_ocl">
<polygon fill="#eeeeff" stroke="black" points="84.5,-180 23.5,-180 23.5,-144 84.5,-144 84.5,-180"/>
<text text-anchor="middle" x="54" y="-159.5" font-family="Helvetica,sans-Serif" font-size="10.00">nbnxn_ocl</text>
</a>
</g>
</g>
<!-- dir_3a4b0bcbd24753b24f34801caeb39283 -->
<g id="node2" class="node"><title>dir_3a4b0bcbd24753b24f34801caeb39283</title>
<g id="a_node2"><a xlink:href="dir_3a4b0bcbd24753b24f34801caeb39283.xhtml" target="_top" xlink:title="mdtypes">
<polygon fill="none" stroke="black" points="54,-108 0,-108 0,-72 54,-72 54,-108"/>
<text text-anchor="middle" x="27" y="-87.5" font-family="Helvetica,sans-Serif" font-size="10.00">mdtypes</text>
</a>
</g>
</g>
<!-- dir_7cd496dfc32f30b51db5a415e5b8e6e9&#45;&gt;dir_3a4b0bcbd24753b24f34801caeb39283 -->
<g id="edge2" class="edge"><title>dir_7cd496dfc32f30b51db5a415e5b8e6e9&#45;&gt;dir_3a4b0bcbd24753b24f34801caeb39283</title>
<path fill="none" stroke="black" d="M47.3258,-143.697C44.2851,-135.813 40.6173,-126.304 37.2393,-117.546"/>
<polygon fill="black" stroke="black" points="40.4617,-116.175 33.5974,-108.104 33.9307,-118.694 40.4617,-116.175"/>
<g id="a_edge2&#45;headlabel"><a xlink:href="dir_000056_000051.xhtml" target="_top" xlink:title="2">
<text text-anchor="middle" x="44.4043" y="-116.007" font-family="Helvetica,sans-Serif" font-size="10.00">2</text>
</a>
</g>
</g>
<!-- dir_a64a619a73689309b11b91ae52c63e36 -->
<g id="node3" class="node"><title>dir_a64a619a73689309b11b91ae52c63e36</title>
<g id="a_node3"><a xlink:href="dir_a64a619a73689309b11b91ae52c63e36.xhtml" target="_top" xlink:title="utility">
<polygon fill="white" stroke="red" points="81,-36 27,-36 27,-0 81,-0 81,-36"/>
<text text-anchor="middle" x="54" y="-15.5" font-family="Helvetica,sans-Serif" font-size="10.00">utility</text>
</a>
</g>
</g>
<!-- dir_7cd496dfc32f30b51db5a415e5b8e6e9&#45;&gt;dir_a64a619a73689309b11b91ae52c63e36 -->
<g id="edge3" class="edge"><title>dir_7cd496dfc32f30b51db5a415e5b8e6e9&#45;&gt;dir_a64a619a73689309b11b91ae52c63e36</title>
<path fill="none" stroke="black" d="M57.6538,-143.908C59.6758,-133.569 61.9808,-120.09 63,-108 64.3441,-92.0566 64.3441,-87.9434 63,-72 62.2834,-63.4991 60.9311,-54.3119 59.4884,-46.0122"/>
<polygon fill="black" stroke="black" points="62.9142,-45.2892 57.6538,-36.0925 56.0309,-46.5623 62.9142,-45.2892"/>
<g id="a_edge3&#45;headlabel"><a xlink:href="dir_000056_000087.xhtml" target="_top" xlink:title="13">
<text text-anchor="middle" x="66.3597" y="-45.8075" font-family="Helvetica,sans-Serif" font-size="10.00">13</text>
</a>
</g>
</g>
<!-- dir_3a4b0bcbd24753b24f34801caeb39283&#45;&gt;dir_a64a619a73689309b11b91ae52c63e36 -->
<g id="edge1" class="edge"><title>dir_3a4b0bcbd24753b24f34801caeb39283&#45;&gt;dir_a64a619a73689309b11b91ae52c63e36</title>
<path fill="none" stroke="black" d="M33.6742,-71.6966C36.7149,-63.8132 40.3827,-54.3042 43.7607,-45.5464"/>
<polygon fill="black" stroke="black" points="47.0693,-46.6939 47.4026,-36.1043 40.5383,-44.1748 47.0693,-46.6939"/>
<g id="a_edge1&#45;headlabel"><a xlink:href="dir_000051_000087.xhtml" target="_top" xlink:title="37">
<text text-anchor="middle" x="48.4248" y="-48.5695" font-family="Helvetica,sans-Serif" font-size="10.00">37</text>
</a>
</g>
</g>
</g>
</svg>
