<?xml version="1.0" encoding="UTF-8" standalone="no"?>
<!DOCTYPE svg PUBLIC "-//W3C//DTD SVG 1.1//EN"
 "http://www.w3.org/Graphics/SVG/1.1/DTD/svg11.dtd">
<!-- Generated by graphviz version 2.38.0 (20140413.2041)
 -->
<!-- Title: src/gromacs/hardware Pages: 1 -->
<svg width="184pt" height="159pt"
 viewBox="0.00 0.00 184.00 159.00" xmlns="http://www.w3.org/2000/svg" xmlns:xlink="http://www.w3.org/1999/xlink">
<g id="graph0" class="graph" transform="scale(1 1) rotate(0) translate(4 155)">
<title>src/gromacs/hardware</title>
<polygon fill="white" stroke="none" points="-4,4 -4,-155 180,-155 180,4 -4,4"/>
<g id="clust1" class="cluster"><title>clusterdir_a46192700e9e8ed44c648f0a55ee9a53</title>
<g id="a_clust1"><a xlink:href="dir_a46192700e9e8ed44c648f0a55ee9a53.xhtml" target="_top" xlink:title="gromacs">
<polygon fill="#ddddee" stroke="black" points="8,-56 8,-143 168,-143 168,-56 8,-56"/>
<text text-anchor="middle" x="88" y="-131" font-family="Helvetica,sans-Serif" font-size="10.00">gromacs</text>
</a>
</g>
</g>
<g id="clust2" class="cluster"><title>clusterdir_6b3b8422586d1e10d2f2c774b7d6921a</title>
<g id="a_clust2"><a xlink:href="dir_6b3b8422586d1e10d2f2c774b7d6921a.xhtml" target="_top">
<polygon fill="#eeeeff" stroke="black" points="16,-64 16,-116 160,-116 160,-64 16,-64"/>
</a>
</g>
</g>
<!-- dir_6b3b8422586d1e10d2f2c774b7d6921a -->
<g id="node1" class="node"><title>dir_6b3b8422586d1e10d2f2c774b7d6921a</title>
<text text-anchor="middle" x="124" y="-87.5" font-family="Helvetica,sans-Serif" font-size="10.00">hardware</text>
</g>
<!-- dir_a64a619a73689309b11b91ae52c63e36 -->
<g id="node3" class="node"><title>dir_a64a619a73689309b11b91ae52c63e36</title>
<g id="a_node3"><a xlink:href="dir_a64a619a73689309b11b91ae52c63e36.xhtml" target="_top" xlink:title="utility">
<polygon fill="white" stroke="red" points="151,-36 97,-36 97,-0 151,-0 151,-36"/>
<text text-anchor="middle" x="124" y="-15.5" font-family="Helvetica,sans-Serif" font-size="10.00">utility</text>
</a>
</g>
</g>
<!-- dir_6b3b8422586d1e10d2f2c774b7d6921a&#45;&gt;dir_a64a619a73689309b11b91ae52c63e36 -->
<g id="edge1" class="edge"><title>dir_6b3b8422586d1e10d2f2c774b7d6921a&#45;&gt;dir_a64a619a73689309b11b91ae52c63e36</title>
<path fill="none" stroke="black" d="M124,-71.6966C124,-63.9827 124,-54.7125 124,-46.1124"/>
<polygon fill="black" stroke="black" points="127.5,-46.1043 124,-36.1043 120.5,-46.1044 127.5,-46.1043"/>
<g id="a_edge1&#45;headlabel"><a xlink:href="dir_000041_000087.xhtml" target="_top" xlink:title="19">
<text text-anchor="middle" x="130.339" y="-47.199" font-family="Helvetica,sans-Serif" font-size="10.00">19</text>
</a>
</g>
</g>
<!-- dir_9a4b31a33b96951a620b324b9bc6a43e -->
<g id="node2" class="node"><title>dir_9a4b31a33b96951a620b324b9bc6a43e</title>
<g id="a_node2"><a xlink:href="dir_9a4b31a33b96951a620b324b9bc6a43e.xhtml" target="_top" xlink:title="tests">
<polygon fill="white" stroke="black" points="78,-108 24,-108 24,-72 78,-72 78,-108"/>
<text text-anchor="middle" x="51" y="-87.5" font-family="Helvetica,sans-Serif" font-size="10.00">tests</text>
</a>
</g>
</g>
</g>
</svg>
