<?xml version="1.0" encoding="UTF-8" standalone="no"?>
<!DOCTYPE svg PUBLIC "-//W3C//DTD SVG 1.1//EN"
 "http://www.w3.org/Graphics/SVG/1.1/DTD/svg11.dtd">
<!-- Generated by graphviz version 2.38.0 (20140413.2041)
 -->
<!-- Title: src/gromacs/gmxana Pages: 1 -->
<svg width="374pt" height="303pt"
 viewBox="0.00 0.00 374.00 303.00" xmlns="http://www.w3.org/2000/svg" xmlns:xlink="http://www.w3.org/1999/xlink">
<g id="graph0" class="graph" transform="scale(1 1) rotate(0) translate(4 299)">
<title>src/gromacs/gmxana</title>
<polygon fill="white" stroke="none" points="-4,4 -4,-299 370,-299 370,4 -4,4"/>
<g id="clust1" class="cluster"><title>clusterdir_a46192700e9e8ed44c648f0a55ee9a53</title>
<g id="a_clust1"><a xlink:href="dir_a46192700e9e8ed44c648f0a55ee9a53.xhtml" target="_top" xlink:title="gromacs">
<polygon fill="#ddddee" stroke="black" points="49,-200 49,-287 207,-287 207,-200 49,-200"/>
<text text-anchor="middle" x="128" y="-275" font-family="Helvetica,sans-Serif" font-size="10.00">gromacs</text>
</a>
</g>
</g>
<g id="clust2" class="cluster"><title>clusterdir_d22888eb72f49fce0039043a93f7948b</title>
<g id="a_clust2"><a xlink:href="dir_d22888eb72f49fce0039043a93f7948b.xhtml" target="_top">
<polygon fill="#eeeeff" stroke="black" points="57,-208 57,-260 199,-260 199,-208 57,-208"/>
</a>
</g>
</g>
<!-- dir_d22888eb72f49fce0039043a93f7948b -->
<g id="node1" class="node"><title>dir_d22888eb72f49fce0039043a93f7948b</title>
<text text-anchor="middle" x="164" y="-231.5" font-family="Helvetica,sans-Serif" font-size="10.00">gmxana</text>
</g>
<!-- dir_7cacf6b47314a2b927cacd0502911e15 -->
<g id="node3" class="node"><title>dir_7cacf6b47314a2b927cacd0502911e15</title>
<g id="a_node3"><a xlink:href="dir_7cacf6b47314a2b927cacd0502911e15.xhtml" target="_top" xlink:title="random">
<polygon fill="white" stroke="red" points="54,-180 0,-180 0,-144 54,-144 54,-180"/>
<text text-anchor="middle" x="27" y="-159.5" font-family="Helvetica,sans-Serif" font-size="10.00">random</text>
</a>
</g>
</g>
<!-- dir_d22888eb72f49fce0039043a93f7948b&#45;&gt;dir_7cacf6b47314a2b927cacd0502911e15 -->
<g id="edge1" class="edge"><title>dir_d22888eb72f49fce0039043a93f7948b&#45;&gt;dir_7cacf6b47314a2b927cacd0502911e15</title>
<path fill="none" stroke="black" d="M148.329,-215.962C142.399,-210.276 135.307,-204.3 128,-200 103.774,-185.745 94.3329,-189.834 68,-180 66.6014,-179.478 65.1796,-178.937 63.7462,-178.384"/>
<polygon fill="black" stroke="black" points="64.8255,-175.047 54.2395,-174.612 62.2439,-181.553 64.8255,-175.047"/>
<g id="a_edge1&#45;headlabel"><a xlink:href="dir_000029_000066.xhtml" target="_top" xlink:title="15">
<text text-anchor="middle" x="69.2138" y="-171.233" font-family="Helvetica,sans-Serif" font-size="10.00">15</text>
</a>
</g>
</g>
<!-- dir_3a4b0bcbd24753b24f34801caeb39283 -->
<g id="node4" class="node"><title>dir_3a4b0bcbd24753b24f34801caeb39283</title>
<g id="a_node4"><a xlink:href="dir_3a4b0bcbd24753b24f34801caeb39283.xhtml" target="_top" xlink:title="mdtypes">
<polygon fill="none" stroke="black" points="164,-180 110,-180 110,-144 164,-144 164,-180"/>
<text text-anchor="middle" x="137" y="-159.5" font-family="Helvetica,sans-Serif" font-size="10.00">mdtypes</text>
</a>
</g>
</g>
<!-- dir_d22888eb72f49fce0039043a93f7948b&#45;&gt;dir_3a4b0bcbd24753b24f34801caeb39283 -->
<g id="edge2" class="edge"><title>dir_d22888eb72f49fce0039043a93f7948b&#45;&gt;dir_3a4b0bcbd24753b24f34801caeb39283</title>
<path fill="none" stroke="black" d="M157.326,-215.697C154.285,-207.813 150.617,-198.304 147.239,-189.546"/>
<polygon fill="black" stroke="black" points="150.462,-188.175 143.597,-180.104 143.931,-190.694 150.462,-188.175"/>
<g id="a_edge2&#45;headlabel"><a xlink:href="dir_000029_000051.xhtml" target="_top" xlink:title="20">
<text text-anchor="middle" x="154.404" y="-188.007" font-family="Helvetica,sans-Serif" font-size="10.00">20</text>
</a>
</g>
</g>
<!-- dir_069a72e2096440213f56c93a40bc8b09 -->
<g id="node5" class="node"><title>dir_069a72e2096440213f56c93a40bc8b09</title>
<g id="a_node5"><a xlink:href="dir_069a72e2096440213f56c93a40bc8b09.xhtml" target="_top" xlink:title="math">
<polygon fill="white" stroke="red" points="113,-108 59,-108 59,-72 113,-72 113,-108"/>
<text text-anchor="middle" x="86" y="-87.5" font-family="Helvetica,sans-Serif" font-size="10.00">math</text>
</a>
</g>
</g>
<!-- dir_d22888eb72f49fce0039043a93f7948b&#45;&gt;dir_069a72e2096440213f56c93a40bc8b09 -->
<g id="edge3" class="edge"><title>dir_d22888eb72f49fce0039043a93f7948b&#45;&gt;dir_069a72e2096440213f56c93a40bc8b09</title>
<path fill="none" stroke="black" d="M146.015,-215.834C140.359,-210.622 134.017,-204.964 128,-200 116.48,-190.497 108.807,-192.73 101,-180 89.6329,-161.464 86.1816,-136.873 85.4045,-118.237"/>
<polygon fill="black" stroke="black" points="88.9004,-117.978 85.2163,-108.044 81.9015,-118.107 88.9004,-117.978"/>
<g id="a_edge3&#45;headlabel"><a xlink:href="dir_000029_000047.xhtml" target="_top" xlink:title="44">
<text text-anchor="middle" x="91.8054" y="-119.019" font-family="Helvetica,sans-Serif" font-size="10.00">44</text>
</a>
</g>
</g>
<!-- dir_a64a619a73689309b11b91ae52c63e36 -->
<g id="node6" class="node"><title>dir_a64a619a73689309b11b91ae52c63e36</title>
<g id="a_node6"><a xlink:href="dir_a64a619a73689309b11b91ae52c63e36.xhtml" target="_top" xlink:title="utility">
<polygon fill="white" stroke="red" points="199,-36 145,-36 145,-0 199,-0 199,-36"/>
<text text-anchor="middle" x="172" y="-15.5" font-family="Helvetica,sans-Serif" font-size="10.00">utility</text>
</a>
</g>
</g>
<!-- dir_d22888eb72f49fce0039043a93f7948b&#45;&gt;dir_a64a619a73689309b11b91ae52c63e36 -->
<g id="edge4" class="edge"><title>dir_d22888eb72f49fce0039043a93f7948b&#45;&gt;dir_a64a619a73689309b11b91ae52c63e36</title>
<path fill="none" stroke="black" d="M167.654,-215.908C169.676,-205.569 171.981,-192.09 173,-180 176.928,-133.408 175.296,-78.9633 173.692,-46.8214"/>
<polygon fill="black" stroke="black" points="177.166,-46.2304 173.136,-36.432 170.176,-46.605 177.166,-46.2304"/>
<g id="a_edge4&#45;headlabel"><a xlink:href="dir_000029_000087.xhtml" target="_top" xlink:title="427">
<text text-anchor="middle" x="180.193" y="-47.168" font-family="Helvetica,sans-Serif" font-size="10.00">427</text>
</a>
</g>
</g>
<!-- dir_b9edb1efd658720be5e099e99a2ed53e -->
<g id="node7" class="node"><title>dir_b9edb1efd658720be5e099e99a2ed53e</title>
<g id="a_node7"><a xlink:href="dir_b9edb1efd658720be5e099e99a2ed53e.xhtml" target="_top" xlink:title="fft">
<polygon fill="white" stroke="red" points="274,-180 220,-180 220,-144 274,-144 274,-180"/>
<text text-anchor="middle" x="247" y="-159.5" font-family="Helvetica,sans-Serif" font-size="10.00">fft</text>
</a>
</g>
</g>
<!-- dir_d22888eb72f49fce0039043a93f7948b&#45;&gt;dir_b9edb1efd658720be5e099e99a2ed53e -->
<g id="edge5" class="edge"><title>dir_d22888eb72f49fce0039043a93f7948b&#45;&gt;dir_b9edb1efd658720be5e099e99a2ed53e</title>
<path fill="none" stroke="black" d="M184.517,-215.697C194.869,-206.965 207.586,-196.24 218.839,-186.75"/>
<polygon fill="black" stroke="black" points="221.331,-189.227 226.719,-180.104 216.818,-183.876 221.331,-189.227"/>
<g id="a_edge5&#45;headlabel"><a xlink:href="dir_000029_000025.xhtml" target="_top" xlink:title="4">
<text text-anchor="middle" x="220.414" y="-191.215" font-family="Helvetica,sans-Serif" font-size="10.00">4</text>
</a>
</g>
</g>
<!-- dir_8421296c7609edc59eb72e40bf8e93a8 -->
<g id="node8" class="node"><title>dir_8421296c7609edc59eb72e40bf8e93a8</title>
<g id="a_node8"><a xlink:href="dir_8421296c7609edc59eb72e40bf8e93a8.xhtml" target="_top" xlink:title="commandline">
<polygon fill="white" stroke="red" points="366,-180 292,-180 292,-144 366,-144 366,-180"/>
<text text-anchor="middle" x="329" y="-159.5" font-family="Helvetica,sans-Serif" font-size="10.00">commandline</text>
</a>
</g>
</g>
<!-- dir_d22888eb72f49fce0039043a93f7948b&#45;&gt;dir_8421296c7609edc59eb72e40bf8e93a8 -->
<g id="edge6" class="edge"><title>dir_d22888eb72f49fce0039043a93f7948b&#45;&gt;dir_8421296c7609edc59eb72e40bf8e93a8</title>
<path fill="none" stroke="black" d="M191.246,-221.441C216.025,-210.929 253.109,-195.196 282.561,-182.702"/>
<polygon fill="black" stroke="black" points="283.99,-185.897 291.829,-178.769 281.257,-179.453 283.99,-185.897"/>
<g id="a_edge6&#45;headlabel"><a xlink:href="dir_000029_000013.xhtml" target="_top" xlink:title="126">
<text text-anchor="middle" x="281.79" y="-187.415" font-family="Helvetica,sans-Serif" font-size="10.00">126</text>
</a>
</g>
</g>
<!-- dir_d028198b94132299fb3385eeba11ca3e -->
<g id="node2" class="node"><title>dir_d028198b94132299fb3385eeba11ca3e</title>
<g id="a_node2"><a xlink:href="dir_d028198b94132299fb3385eeba11ca3e.xhtml" target="_top" xlink:title="tests">
<polygon fill="white" stroke="black" points="119,-252 65,-252 65,-216 119,-216 119,-252"/>
<text text-anchor="middle" x="92" y="-231.5" font-family="Helvetica,sans-Serif" font-size="10.00">tests</text>
</a>
</g>
</g>
<!-- dir_7cacf6b47314a2b927cacd0502911e15&#45;&gt;dir_069a72e2096440213f56c93a40bc8b09 -->
<g id="edge7" class="edge"><title>dir_7cacf6b47314a2b927cacd0502911e15&#45;&gt;dir_069a72e2096440213f56c93a40bc8b09</title>
<path fill="none" stroke="black" d="M41.5843,-143.697C48.6576,-135.305 57.2834,-125.07 65.0454,-115.861"/>
<polygon fill="black" stroke="black" points="67.8149,-118.006 71.5835,-108.104 62.4625,-113.495 67.8149,-118.006"/>
<g id="a_edge7&#45;headlabel"><a xlink:href="dir_000066_000047.xhtml" target="_top" xlink:title="4">
<text text-anchor="middle" x="67.6693" y="-120.085" font-family="Helvetica,sans-Serif" font-size="10.00">4</text>
</a>
</g>
</g>
<!-- dir_7cacf6b47314a2b927cacd0502911e15&#45;&gt;dir_a64a619a73689309b11b91ae52c63e36 -->
<g id="edge8" class="edge"><title>dir_7cacf6b47314a2b927cacd0502911e15&#45;&gt;dir_a64a619a73689309b11b91ae52c63e36</title>
<path fill="none" stroke="black" d="M27.1118,-143.907C28.1227,-124.345 32.5861,-92.3861 50,-72 71.6122,-46.6991 107.546,-33.0889 134.832,-26.0246"/>
<polygon fill="black" stroke="black" points="135.912,-29.3649 144.819,-23.6269 134.278,-22.5583 135.912,-29.3649"/>
<g id="a_edge8&#45;headlabel"><a xlink:href="dir_000066_000087.xhtml" target="_top" xlink:title="19">
<text text-anchor="middle" x="133.08" y="-30.4648" font-family="Helvetica,sans-Serif" font-size="10.00">19</text>
</a>
</g>
</g>
<!-- dir_3a4b0bcbd24753b24f34801caeb39283&#45;&gt;dir_069a72e2096440213f56c93a40bc8b09 -->
<g id="edge9" class="edge"><title>dir_3a4b0bcbd24753b24f34801caeb39283&#45;&gt;dir_069a72e2096440213f56c93a40bc8b09</title>
<path fill="none" stroke="black" d="M124.393,-143.697C118.403,-135.474 111.124,-125.483 104.521,-116.421"/>
<polygon fill="black" stroke="black" points="107.179,-114.126 98.4617,-108.104 101.522,-118.248 107.179,-114.126"/>
<g id="a_edge9&#45;headlabel"><a xlink:href="dir_000051_000047.xhtml" target="_top" xlink:title="3">
<text text-anchor="middle" x="111.591" y="-112.859" font-family="Helvetica,sans-Serif" font-size="10.00">3</text>
</a>
</g>
</g>
<!-- dir_3a4b0bcbd24753b24f34801caeb39283&#45;&gt;dir_a64a619a73689309b11b91ae52c63e36 -->
<g id="edge10" class="edge"><title>dir_3a4b0bcbd24753b24f34801caeb39283&#45;&gt;dir_a64a619a73689309b11b91ae52c63e36</title>
<path fill="none" stroke="black" d="M141.222,-143.871C147.213,-119.564 158.242,-74.8187 165.342,-46.0132"/>
<polygon fill="black" stroke="black" points="168.768,-46.7363 167.763,-36.1893 161.972,-45.061 168.768,-46.7363"/>
<g id="a_edge10&#45;headlabel"><a xlink:href="dir_000051_000087.xhtml" target="_top" xlink:title="37">
<text text-anchor="middle" x="170.665" y="-48.4059" font-family="Helvetica,sans-Serif" font-size="10.00">37</text>
</a>
</g>
</g>
<!-- dir_069a72e2096440213f56c93a40bc8b09&#45;&gt;dir_a64a619a73689309b11b91ae52c63e36 -->
<g id="edge11" class="edge"><title>dir_069a72e2096440213f56c93a40bc8b09&#45;&gt;dir_a64a619a73689309b11b91ae52c63e36</title>
<path fill="none" stroke="black" d="M107.258,-71.6966C118.089,-62.8807 131.418,-52.0321 143.16,-42.4742"/>
<polygon fill="black" stroke="black" points="145.44,-45.1316 150.986,-36.1043 141.021,-39.7026 145.44,-45.1316"/>
<g id="a_edge11&#45;headlabel"><a xlink:href="dir_000047_000087.xhtml" target="_top" xlink:title="22">
<text text-anchor="middle" x="144.444" y="-47.1027" font-family="Helvetica,sans-Serif" font-size="10.00">22</text>
</a>
</g>
</g>
<!-- dir_b9edb1efd658720be5e099e99a2ed53e&#45;&gt;dir_a64a619a73689309b11b91ae52c63e36 -->
<g id="edge12" class="edge"><title>dir_b9edb1efd658720be5e099e99a2ed53e&#45;&gt;dir_a64a619a73689309b11b91ae52c63e36</title>
<path fill="none" stroke="black" d="M239.972,-143.926C232.299,-125.753 219.32,-96.3213 206,-72 201.012,-62.8911 195.043,-53.2441 189.509,-44.7127"/>
<polygon fill="black" stroke="black" points="192.386,-42.717 183.959,-36.2953 186.542,-46.5704 192.386,-42.717"/>
<g id="a_edge12&#45;headlabel"><a xlink:href="dir_000025_000087.xhtml" target="_top" xlink:title="19">
<text text-anchor="middle" x="196.735" y="-41.655" font-family="Helvetica,sans-Serif" font-size="10.00">19</text>
</a>
</g>
</g>
<!-- dir_8421296c7609edc59eb72e40bf8e93a8&#45;&gt;dir_a64a619a73689309b11b91ae52c63e36 -->
<g id="edge13" class="edge"><title>dir_8421296c7609edc59eb72e40bf8e93a8&#45;&gt;dir_a64a619a73689309b11b91ae52c63e36</title>
<path fill="none" stroke="black" d="M310.062,-143.871C282.244,-118.711 230.216,-71.6535 198.581,-43.0415"/>
<polygon fill="black" stroke="black" points="200.769,-40.3014 191.005,-36.1893 196.074,-45.493 200.769,-40.3014"/>
<g id="a_edge13&#45;headlabel"><a xlink:href="dir_000013_000087.xhtml" target="_top" xlink:title="70">
<text text-anchor="middle" x="205.34" y="-38.1069" font-family="Helvetica,sans-Serif" font-size="10.00">70</text>
</a>
</g>
</g>
</g>
</svg>
