<?xml version="1.0" encoding="UTF-8" standalone="no"?>
<!DOCTYPE svg PUBLIC "-//W3C//DTD SVG 1.1//EN"
 "http://www.w3.org/Graphics/SVG/1.1/DTD/svg11.dtd">
<!-- Generated by graphviz version 2.38.0 (20140413.2041)
 -->
<!-- Title: src/gromacs/fft Pages: 1 -->
<svg width="182pt" height="231pt"
 viewBox="0.00 0.00 182.00 231.00" xmlns="http://www.w3.org/2000/svg" xmlns:xlink="http://www.w3.org/1999/xlink">
<g id="graph0" class="graph" transform="scale(1 1) rotate(0) translate(4 227)">
<title>src/gromacs/fft</title>
<polygon fill="white" stroke="none" points="-4,4 -4,-227 178,-227 178,4 -4,4"/>
<g id="clust1" class="cluster"><title>clusterdir_a46192700e9e8ed44c648f0a55ee9a53</title>
<g id="a_clust1"><a xlink:href="dir_a46192700e9e8ed44c648f0a55ee9a53.xhtml" target="_top" xlink:title="gromacs">
<polygon fill="#ddddee" stroke="black" points="8,-128 8,-215 166,-215 166,-128 8,-128"/>
<text text-anchor="middle" x="87" y="-203" font-family="Helvetica,sans-Serif" font-size="10.00">gromacs</text>
</a>
</g>
</g>
<g id="clust2" class="cluster"><title>clusterdir_b9edb1efd658720be5e099e99a2ed53e</title>
<g id="a_clust2"><a xlink:href="dir_b9edb1efd658720be5e099e99a2ed53e.xhtml" target="_top">
<polygon fill="#eeeeff" stroke="black" points="16,-136 16,-188 158,-188 158,-136 16,-136"/>
</a>
</g>
</g>
<!-- dir_b9edb1efd658720be5e099e99a2ed53e -->
<g id="node1" class="node"><title>dir_b9edb1efd658720be5e099e99a2ed53e</title>
<text text-anchor="middle" x="51" y="-159.5" font-family="Helvetica,sans-Serif" font-size="10.00">fft</text>
</g>
<!-- dir_a64a619a73689309b11b91ae52c63e36 -->
<g id="node3" class="node"><title>dir_a64a619a73689309b11b91ae52c63e36</title>
<g id="a_node3"><a xlink:href="dir_a64a619a73689309b11b91ae52c63e36.xhtml" target="_top" xlink:title="utility">
<polygon fill="white" stroke="red" points="94,-36 40,-36 40,-0 94,-0 94,-36"/>
<text text-anchor="middle" x="67" y="-15.5" font-family="Helvetica,sans-Serif" font-size="10.00">utility</text>
</a>
</g>
</g>
<!-- dir_b9edb1efd658720be5e099e99a2ed53e&#45;&gt;dir_a64a619a73689309b11b91ae52c63e36 -->
<g id="edge3" class="edge"><title>dir_b9edb1efd658720be5e099e99a2ed53e&#45;&gt;dir_a64a619a73689309b11b91ae52c63e36</title>
<path fill="none" stroke="black" d="M41.464,-143.737C32.7427,-125.657 22.2835,-96.5337 30,-72 33.0986,-62.1483 38.7512,-52.5302 44.7209,-44.2511"/>
<polygon fill="black" stroke="black" points="47.6293,-46.2111 50.9631,-36.1544 42.0855,-41.9371 47.6293,-46.2111"/>
<g id="a_edge3&#45;headlabel"><a xlink:href="dir_000025_000087.xhtml" target="_top" xlink:title="19">
<text text-anchor="middle" x="47.6832" y="-48.2914" font-family="Helvetica,sans-Serif" font-size="10.00">19</text>
</a>
</g>
</g>
<!-- dir_cbbda348be622d4188e9f9890e0fe79d -->
<g id="node4" class="node"><title>dir_cbbda348be622d4188e9f9890e0fe79d</title>
<g id="a_node4"><a xlink:href="dir_cbbda348be622d4188e9f9890e0fe79d.xhtml" target="_top" xlink:title="gpu_utils">
<polygon fill="white" stroke="red" points="95,-108 39,-108 39,-72 95,-72 95,-108"/>
<text text-anchor="middle" x="67" y="-87.5" font-family="Helvetica,sans-Serif" font-size="10.00">gpu_utils</text>
</a>
</g>
</g>
<!-- dir_b9edb1efd658720be5e099e99a2ed53e&#45;&gt;dir_cbbda348be622d4188e9f9890e0fe79d -->
<g id="edge4" class="edge"><title>dir_b9edb1efd658720be5e099e99a2ed53e&#45;&gt;dir_cbbda348be622d4188e9f9890e0fe79d</title>
<path fill="none" stroke="black" d="M54.9551,-143.697C56.7182,-135.983 58.8372,-126.712 60.8029,-118.112"/>
<polygon fill="black" stroke="black" points="64.2741,-118.633 63.0904,-108.104 57.4501,-117.073 64.2741,-118.633"/>
<g id="a_edge4&#45;headlabel"><a xlink:href="dir_000025_000039.xhtml" target="_top" xlink:title="3">
<text text-anchor="middle" x="66.2411" y="-120.27" font-family="Helvetica,sans-Serif" font-size="10.00">3</text>
</a>
</g>
</g>
<!-- dir_2c7d8bd517d376407484c75fdf1fd01a -->
<g id="node2" class="node"><title>dir_2c7d8bd517d376407484c75fdf1fd01a</title>
<g id="a_node2"><a xlink:href="dir_2c7d8bd517d376407484c75fdf1fd01a.xhtml" target="_top" xlink:title="tests">
<polygon fill="white" stroke="black" points="150,-180 96,-180 96,-144 150,-144 150,-180"/>
<text text-anchor="middle" x="123" y="-159.5" font-family="Helvetica,sans-Serif" font-size="10.00">tests</text>
</a>
</g>
</g>
<!-- dir_2c7d8bd517d376407484c75fdf1fd01a&#45;&gt;dir_a64a619a73689309b11b91ae52c63e36 -->
<g id="edge1" class="edge"><title>dir_2c7d8bd517d376407484c75fdf1fd01a&#45;&gt;dir_a64a619a73689309b11b91ae52c63e36</title>
<path fill="none" stroke="black" d="M121.403,-143.986C119.219,-125.607 114.326,-95.7649 104,-72 99.818,-62.3752 93.754,-52.7098 87.7411,-44.3178"/>
<polygon fill="black" stroke="black" points="90.372,-41.9922 81.5744,-36.0886 84.7703,-46.1899 90.372,-41.9922"/>
<g id="a_edge1&#45;headlabel"><a xlink:href="dir_000026_000087.xhtml" target="_top" xlink:title="1">
<text text-anchor="middle" x="94.7997" y="-40.6662" font-family="Helvetica,sans-Serif" font-size="10.00">1</text>
</a>
</g>
</g>
<!-- dir_cbbda348be622d4188e9f9890e0fe79d&#45;&gt;dir_a64a619a73689309b11b91ae52c63e36 -->
<g id="edge2" class="edge"><title>dir_cbbda348be622d4188e9f9890e0fe79d&#45;&gt;dir_a64a619a73689309b11b91ae52c63e36</title>
<path fill="none" stroke="black" d="M67,-71.6966C67,-63.9827 67,-54.7125 67,-46.1124"/>
<polygon fill="black" stroke="black" points="70.5001,-46.1043 67,-36.1043 63.5001,-46.1044 70.5001,-46.1043"/>
<g id="a_edge2&#45;headlabel"><a xlink:href="dir_000039_000087.xhtml" target="_top" xlink:title="37">
<text text-anchor="middle" x="73.3393" y="-47.199" font-family="Helvetica,sans-Serif" font-size="10.00">37</text>
</a>
</g>
</g>
</g>
</svg>
