<?xml version="1.0" encoding="UTF-8" standalone="no"?>
<!DOCTYPE svg PUBLIC "-//W3C//DTD SVG 1.1//EN"
 "http://www.w3.org/Graphics/SVG/1.1/DTD/svg11.dtd">
<!-- Generated by graphviz version 2.38.0 (20140413.2041)
 -->
<!-- Title: src/gromacs/analysisdata/modules Pages: 1 -->
<svg width="125pt" height="295pt"
 viewBox="0.00 0.00 125.00 295.00" xmlns="http://www.w3.org/2000/svg" xmlns:xlink="http://www.w3.org/1999/xlink">
<g id="graph0" class="graph" transform="scale(1 1) rotate(0) translate(4 291)">
<title>src/gromacs/analysisdata/modules</title>
<polygon fill="white" stroke="none" points="-4,4 -4,-291 121,-291 121,4 -4,4"/>
<g id="clust1" class="cluster"><title>clusterdir_3065e2635695cb7dc351f585e5b100ac</title>
<g id="a_clust1"><a xlink:href="dir_3065e2635695cb7dc351f585e5b100ac.xhtml" target="_top" xlink:title="analysisdata">
<polygon fill="#ddddee" stroke="black" points="38,-208 38,-279 109,-279 109,-208 38,-208"/>
<text text-anchor="middle" x="73.5" y="-267" font-family="Helvetica,sans-Serif" font-size="10.00">analysisdata</text>
</a>
</g>
</g>
<!-- dir_95af729a66480123801c1aebcd3c4c0f -->
<g id="node1" class="node"><title>dir_95af729a66480123801c1aebcd3c4c0f</title>
<g id="a_node1"><a xlink:href="dir_95af729a66480123801c1aebcd3c4c0f.xhtml" target="_top" xlink:title="modules">
<polygon fill="#eeeeff" stroke="black" points="100,-252 46,-252 46,-216 100,-216 100,-252"/>
<text text-anchor="middle" x="73" y="-231.5" font-family="Helvetica,sans-Serif" font-size="10.00">modules</text>
</a>
</g>
</g>
<!-- dir_7368f1a5a3cf04a409e4d90d99595fa7 -->
<g id="node2" class="node"><title>dir_7368f1a5a3cf04a409e4d90d99595fa7</title>
<g id="a_node2"><a xlink:href="dir_7368f1a5a3cf04a409e4d90d99595fa7.xhtml" target="_top" xlink:title="options">
<polygon fill="white" stroke="red" points="54,-108 0,-108 0,-72 54,-72 54,-108"/>
<text text-anchor="middle" x="27" y="-87.5" font-family="Helvetica,sans-Serif" font-size="10.00">options</text>
</a>
</g>
</g>
<!-- dir_95af729a66480123801c1aebcd3c4c0f&#45;&gt;dir_7368f1a5a3cf04a409e4d90d99595fa7 -->
<g id="edge2" class="edge"><title>dir_95af729a66480123801c1aebcd3c4c0f&#45;&gt;dir_7368f1a5a3cf04a409e4d90d99595fa7</title>
<path fill="none" stroke="black" d="M57.4921,-215.664C49.6704,-205.889 40.8383,-193.047 36,-180 28.6766,-160.252 26.5867,-136.449 26.2406,-118.431"/>
<polygon fill="black" stroke="black" points="29.7404,-118.297 26.2155,-108.306 22.7404,-118.315 29.7404,-118.297"/>
<g id="a_edge2&#45;headlabel"><a xlink:href="dir_000008_000061.xhtml" target="_top" xlink:title="4">
<text text-anchor="middle" x="32.5885" y="-119.385" font-family="Helvetica,sans-Serif" font-size="10.00">4</text>
</a>
</g>
</g>
<!-- dir_e7e88b26b6f22ac834fce3ecdbf03d20 -->
<g id="node3" class="node"><title>dir_e7e88b26b6f22ac834fce3ecdbf03d20</title>
<g id="a_node3"><a xlink:href="dir_e7e88b26b6f22ac834fce3ecdbf03d20.xhtml" target="_top" xlink:title="selection">
<polygon fill="white" stroke="red" points="101,-180 45,-180 45,-144 101,-144 101,-180"/>
<text text-anchor="middle" x="73" y="-159.5" font-family="Helvetica,sans-Serif" font-size="10.00">selection</text>
</a>
</g>
</g>
<!-- dir_95af729a66480123801c1aebcd3c4c0f&#45;&gt;dir_e7e88b26b6f22ac834fce3ecdbf03d20 -->
<g id="edge3" class="edge"><title>dir_95af729a66480123801c1aebcd3c4c0f&#45;&gt;dir_e7e88b26b6f22ac834fce3ecdbf03d20</title>
<path fill="none" stroke="black" d="M73,-215.697C73,-207.983 73,-198.712 73,-190.112"/>
<polygon fill="black" stroke="black" points="76.5001,-190.104 73,-180.104 69.5001,-190.104 76.5001,-190.104"/>
<g id="a_edge3&#45;headlabel"><a xlink:href="dir_000008_000068.xhtml" target="_top" xlink:title="1">
<text text-anchor="middle" x="79.3393" y="-191.199" font-family="Helvetica,sans-Serif" font-size="10.00">1</text>
</a>
</g>
</g>
<!-- dir_a64a619a73689309b11b91ae52c63e36 -->
<g id="node4" class="node"><title>dir_a64a619a73689309b11b91ae52c63e36</title>
<g id="a_node4"><a xlink:href="dir_a64a619a73689309b11b91ae52c63e36.xhtml" target="_top" xlink:title="utility">
<polygon fill="white" stroke="red" points="109,-36 55,-36 55,-0 109,-0 109,-36"/>
<text text-anchor="middle" x="82" y="-15.5" font-family="Helvetica,sans-Serif" font-size="10.00">utility</text>
</a>
</g>
</g>
<!-- dir_95af729a66480123801c1aebcd3c4c0f&#45;&gt;dir_a64a619a73689309b11b91ae52c63e36 -->
<g id="edge4" class="edge"><title>dir_95af729a66480123801c1aebcd3c4c0f&#45;&gt;dir_a64a619a73689309b11b91ae52c63e36</title>
<path fill="none" stroke="black" d="M89.0369,-215.846C97.0136,-206.124 105.825,-193.274 110,-180 124.503,-133.89 107.3,-77.8437 94.1692,-45.5103"/>
<polygon fill="black" stroke="black" points="97.3823,-44.1221 90.2646,-36.2743 90.9348,-46.8479 97.3823,-44.1221"/>
<g id="a_edge4&#45;headlabel"><a xlink:href="dir_000008_000087.xhtml" target="_top" xlink:title="17">
<text text-anchor="middle" x="101.397" y="-43.8274" font-family="Helvetica,sans-Serif" font-size="10.00">17</text>
</a>
</g>
</g>
<!-- dir_7368f1a5a3cf04a409e4d90d99595fa7&#45;&gt;dir_a64a619a73689309b11b91ae52c63e36 -->
<g id="edge1" class="edge"><title>dir_7368f1a5a3cf04a409e4d90d99595fa7&#45;&gt;dir_a64a619a73689309b11b91ae52c63e36</title>
<path fill="none" stroke="black" d="M40.5955,-71.6966C47.1227,-63.3893 55.068,-53.2771 62.2466,-44.1407"/>
<polygon fill="black" stroke="black" points="65.1347,-46.1299 68.5609,-36.1043 59.6305,-41.8051 65.1347,-46.1299"/>
<g id="a_edge1&#45;headlabel"><a xlink:href="dir_000061_000087.xhtml" target="_top" xlink:title="57">
<text text-anchor="middle" x="65.1465" y="-48.2106" font-family="Helvetica,sans-Serif" font-size="10.00">57</text>
</a>
</g>
</g>
<!-- dir_e7e88b26b6f22ac834fce3ecdbf03d20&#45;&gt;dir_7368f1a5a3cf04a409e4d90d99595fa7 -->
<g id="edge5" class="edge"><title>dir_e7e88b26b6f22ac834fce3ecdbf03d20&#45;&gt;dir_7368f1a5a3cf04a409e4d90d99595fa7</title>
<path fill="none" stroke="black" d="M61.6292,-143.697C56.2815,-135.559 49.7957,-125.689 43.8894,-116.701"/>
<polygon fill="black" stroke="black" points="46.6568,-114.539 38.24,-108.104 40.8068,-118.384 46.6568,-114.539"/>
<g id="a_edge5&#45;headlabel"><a xlink:href="dir_000068_000061.xhtml" target="_top" xlink:title="12">
<text text-anchor="middle" x="51.0036" y="-113.484" font-family="Helvetica,sans-Serif" font-size="10.00">12</text>
</a>
</g>
</g>
<!-- dir_e7e88b26b6f22ac834fce3ecdbf03d20&#45;&gt;dir_a64a619a73689309b11b91ae52c63e36 -->
<g id="edge6" class="edge"><title>dir_e7e88b26b6f22ac834fce3ecdbf03d20&#45;&gt;dir_a64a619a73689309b11b91ae52c63e36</title>
<path fill="none" stroke="black" d="M74.0856,-143.871C75.6195,-119.67 78.4373,-75.2108 80.2638,-46.3932"/>
<polygon fill="black" stroke="black" points="83.7709,-46.3907 80.9105,-36.1893 76.7849,-45.9478 83.7709,-46.3907"/>
<g id="a_edge6&#45;headlabel"><a xlink:href="dir_000068_000087.xhtml" target="_top" xlink:title="134">
<text text-anchor="middle" x="86.3772" y="-47.6576" font-family="Helvetica,sans-Serif" font-size="10.00">134</text>
</a>
</g>
</g>
</g>
</svg>
