<?xml version="1.0" encoding="UTF-8" standalone="no"?>
<!DOCTYPE svg PUBLIC "-//W3C//DTD SVG 1.1//EN"
 "http://www.w3.org/Graphics/SVG/1.1/DTD/svg11.dtd">
<!-- Generated by graphviz version 2.38.0 (20140413.2041)
 -->
<!-- Title: selection_process Pages: 1 -->
<svg width="520pt" height="360pt"
 viewBox="0.00 0.00 520.00 359.74" xmlns="http://www.w3.org/2000/svg" xmlns:xlink="http://www.w3.org/1999/xlink">
<g id="graph0" class="graph" transform="scale(1 1) rotate(0) translate(4 355.74)">
<title>selection_process</title>
<polygon fill="white" stroke="none" points="-4,4 -4,-355.74 516,-355.74 516,4 -4,4"/>
<g id="clust1" class="cluster"><title>cluster_collection</title>
<polygon fill="none" stroke="black" points="8,-79 8,-271 504,-271 504,-79 8,-79"/>
<text text-anchor="middle" x="256" y="-255.8" font-family="Times,serif" font-size="14.00">selection collection</text>
</g>
<!-- create -->
<g id="node1" class="node"><title>create</title>
<polygon fill="none" stroke="black" points="70,-240 16,-240 16,-204 70,-204 70,-240"/>
<text text-anchor="middle" x="43" y="-218.3" font-family="Times,serif" font-size="14.00">create</text>
</g>
<!-- parse -->
<g id="node2" class="node"><title>parse</title>
<polygon fill="none" stroke="black" points="160,-240 106,-240 106,-204 160,-204 160,-240"/>
<text text-anchor="middle" x="133" y="-218.3" font-family="Times,serif" font-size="14.00">parse</text>
</g>
<!-- create&#45;&gt;parse -->
<g id="edge1" class="edge"><title>create&#45;&gt;parse</title>
<path fill="none" stroke="black" d="M70.0703,-222C78.6689,-222 87.2674,-222 95.866,-222"/>
<polygon fill="black" stroke="black" points="95.9599,-225.5 105.96,-222 95.9599,-218.5 95.9599,-225.5"/>
</g>
<!-- parse&#45;&gt;parse -->
<g id="edge2" class="edge"><title>parse:ne&#45;&gt;parse:nw</title>
<path fill="none" stroke="black" d="M160,-240C169,-249.333 169,-268 133,-268 106.562,-268 99.54,-257.933 101.239,-248.888"/>
<polygon fill="black" stroke="black" points="104.364,-250.468 106,-240 98.193,-247.163 104.364,-250.468"/>
</g>
<!-- compile -->
<g id="node3" class="node"><title>compile</title>
<polygon fill="none" stroke="black" points="256.5,-240 195.5,-240 195.5,-204 256.5,-204 256.5,-240"/>
<text text-anchor="middle" x="226" y="-218.3" font-family="Times,serif" font-size="14.00">compile</text>
</g>
<!-- parse&#45;&gt;compile -->
<g id="edge3" class="edge"><title>parse&#45;&gt;compile</title>
<path fill="none" stroke="black" d="M160.246,-222C168.585,-222 176.924,-222 185.263,-222"/>
<polygon fill="black" stroke="black" points="185.435,-225.5 195.435,-222 185.435,-218.5 185.435,-225.5"/>
</g>
<!-- selectiondata -->
<g id="node6" class="node"><title>selectiondata</title>
<ellipse fill="none" stroke="black" cx="277" cy="-105" rx="88.2844" ry="18"/>
<text text-anchor="middle" x="277" y="-101.3" font-family="Times,serif" font-size="14.00">internal selection data</text>
</g>
<!-- parse&#45;&gt;selectiondata -->
<g id="edge9" class="edge"><title>parse&#45;&gt;selectiondata</title>
<path fill="none" stroke="black" d="M140.282,-203.711C148.652,-185.753 163.987,-157.957 185,-141 193.846,-133.862 204.306,-128.07 214.944,-123.407"/>
<polygon fill="black" stroke="black" points="216.362,-126.609 224.302,-119.594 213.721,-120.126 216.362,-126.609"/>
<text text-anchor="middle" x="204" y="-159.8" font-family="Times,serif" font-size="14.00">creates</text>
</g>
<!-- selection -->
<g id="node10" class="node"><title>selection</title>
<ellipse fill="none" stroke="black" cx="186" cy="-18" rx="65.7887" ry="18"/>
<text text-anchor="middle" x="186" y="-14.3" font-family="Times,serif" font-size="14.00">selection object</text>
</g>
<!-- parse&#45;&gt;selection -->
<g id="edge8" class="edge"><title>parse:s&#45;&gt;selection:nw</title>
<path fill="none" stroke="black" d="M133,-204C133,-131.305 115.802,-93.5591 160.887,-43.4833"/>
<polygon fill="black" stroke="black" points="163.647,-45.6594 168,-36 158.574,-40.8367 163.647,-45.6594"/>
<text text-anchor="middle" x="157" y="-101.3" font-family="Times,serif" font-size="14.00">returns</text>
</g>
<!-- evaluate -->
<g id="node4" class="node"><title>evaluate</title>
<polygon fill="none" stroke="black" points="354,-240 292,-240 292,-204 354,-204 354,-240"/>
<text text-anchor="middle" x="323" y="-218.3" font-family="Times,serif" font-size="14.00">evaluate</text>
</g>
<!-- compile&#45;&gt;evaluate -->
<g id="edge4" class="edge"><title>compile&#45;&gt;evaluate</title>
<path fill="none" stroke="black" d="M256.691,-222C265.039,-222 273.387,-222 281.735,-222"/>
<polygon fill="black" stroke="black" points="281.918,-225.5 291.918,-222 281.918,-218.5 281.918,-225.5"/>
</g>
<!-- compile&#45;&gt;selectiondata -->
<g id="edge11" class="edge"><title>compile&#45;&gt;selectiondata</title>
<path fill="none" stroke="black" d="M225.618,-203.732C225.949,-186.79 228.396,-160.7 239,-141 241.163,-136.982 243.967,-133.179 247.071,-129.664"/>
<polygon fill="black" stroke="black" points="249.661,-132.022 254.217,-122.457 244.691,-127.094 249.661,-132.022"/>
<text text-anchor="middle" x="265.5" y="-167.3" font-family="Times,serif" font-size="14.00">initializes</text>
<text text-anchor="middle" x="265.5" y="-152.3" font-family="Times,serif" font-size="14.00">positions</text>
</g>
<!-- evaluate&#45;&gt;evaluate -->
<g id="edge5" class="edge"><title>evaluate:ne&#45;&gt;evaluate:nw</title>
<path fill="none" stroke="black" d="M354,-240C363,-249.333 363,-268 323,-268 293.625,-268 285.822,-257.933 287.314,-248.888"/>
<polygon fill="black" stroke="black" points="290.433,-250.478 292,-240 284.24,-247.214 290.433,-250.478"/>
</g>
<!-- evaluatefinal -->
<g id="node5" class="node"><title>evaluatefinal</title>
<polygon fill="none" stroke="black" points="496.5,-240 389.5,-240 389.5,-204 496.5,-204 496.5,-240"/>
<text text-anchor="middle" x="443" y="-218.3" font-family="Times,serif" font-size="14.00">finish evaluation</text>
</g>
<!-- evaluate&#45;&gt;evaluatefinal -->
<g id="edge6" class="edge"><title>evaluate&#45;&gt;evaluatefinal</title>
<path fill="none" stroke="black" d="M354.406,-222C362.689,-222 370.973,-222 379.256,-222"/>
<polygon fill="black" stroke="black" points="379.359,-225.5 389.359,-222 379.359,-218.5 379.359,-225.5"/>
</g>
<!-- evaluate&#45;&gt;selectiondata -->
<g id="edge13" class="edge"><title>evaluate&#45;&gt;selectiondata</title>
<path fill="none" stroke="black" d="M318.139,-203.825C313.273,-187.404 305.204,-162.094 296,-141 294.741,-138.115 293.329,-135.149 291.858,-132.222"/>
<polygon fill="black" stroke="black" points="294.835,-130.364 287.074,-123.152 288.644,-133.63 294.835,-130.364"/>
<text text-anchor="middle" x="335.5" y="-167.3" font-family="Times,serif" font-size="14.00">sets</text>
<text text-anchor="middle" x="335.5" y="-152.3" font-family="Times,serif" font-size="14.00">positions</text>
</g>
<!-- evaluatefinal&#45;&gt;selectiondata -->
<g id="edge14" class="edge"><title>evaluatefinal&#45;&gt;selectiondata</title>
<path fill="none" stroke="black" d="M429.785,-203.975C415.274,-186.238 390.489,-158.625 364,-141 354.355,-134.583 343.35,-129.029 332.487,-124.354"/>
<polygon fill="black" stroke="black" points="333.595,-121.026 323.014,-120.473 330.941,-127.503 333.595,-121.026"/>
<text text-anchor="middle" x="459.5" y="-174.8" font-family="Times,serif" font-size="14.00">resets to</text>
<text text-anchor="middle" x="459.5" y="-159.8" font-family="Times,serif" font-size="14.00">post&#45;compilation</text>
<text text-anchor="middle" x="459.5" y="-144.8" font-family="Times,serif" font-size="14.00">state</text>
</g>
<!-- selectiondata&#45;&gt;selection -->
<g id="edge15" class="edge"><title>selectiondata&#45;&gt;selection</title>
<path fill="none" stroke="black" d="M251.435,-80.1206C236.186,-65.8774 217.215,-48.1564 203.632,-35.4692"/>
<polygon fill="black" stroke="black" points="249.324,-82.9384 259.021,-87.2067 254.103,-77.8229 249.324,-82.9384"/>
<text text-anchor="middle" x="264.5" y="-57.8" font-family="Times,serif" font-size="14.00">reads data</text>
</g>
<!-- selectiontext -->
<g id="node7" class="node"><title>selectiontext</title>
<ellipse fill="none" stroke="black" cx="95" cy="-324.87" rx="57.6901" ry="18"/>
<text text-anchor="middle" x="95" y="-321.17" font-family="Times,serif" font-size="14.00">selection text</text>
</g>
<!-- selectiontext&#45;&gt;parse -->
<g id="edge7" class="edge"><title>selectiontext&#45;&gt;parse</title>
<path fill="none" stroke="black" d="M101.446,-306.759C107.342,-291.108 116.157,-267.709 122.973,-249.617"/>
<polygon fill="black" stroke="black" points="126.272,-250.787 126.522,-240.195 119.721,-248.319 126.272,-250.787"/>
</g>
<!-- topology -->
<g id="node8" class="node"><title>topology</title>
<ellipse fill="none" stroke="black" cx="226" cy="-324.87" rx="55.3091" ry="26.7407"/>
<text text-anchor="middle" x="226" y="-328.67" font-family="Times,serif" font-size="14.00">topology/</text>
<text text-anchor="middle" x="226" y="-313.67" font-family="Times,serif" font-size="14.00">atom count</text>
</g>
<!-- topology&#45;&gt;compile -->
<g id="edge10" class="edge"><title>topology&#45;&gt;compile</title>
<path fill="none" stroke="black" d="M226,-297.894C226,-283.238 226,-264.947 226,-250.11"/>
<polygon fill="black" stroke="black" points="229.5,-250.018 226,-240.019 222.5,-250.019 229.5,-250.018"/>
</g>
<!-- frame -->
<g id="node9" class="node"><title>frame</title>
<ellipse fill="none" stroke="black" cx="374" cy="-324.87" rx="74.9875" ry="18"/>
<text text-anchor="middle" x="374" y="-321.17" font-family="Times,serif" font-size="14.00">frame coordinates</text>
</g>
<!-- frame&#45;&gt;evaluate -->
<g id="edge12" class="edge"><title>frame&#45;&gt;evaluate</title>
<path fill="none" stroke="black" d="M365.349,-306.759C357.436,-291.108 345.605,-267.709 336.458,-249.617"/>
<polygon fill="black" stroke="black" points="339.329,-247.54 331.694,-240.195 333.083,-250.699 339.329,-247.54"/>
</g>
</g>
</svg>
