<?xml version="1.0" encoding="UTF-8" standalone="no"?>
<!DOCTYPE svg PUBLIC "-//W3C//DTD SVG 1.1//EN"
 "http://www.w3.org/Graphics/SVG/1.1/DTD/svg11.dtd">
<!-- Generated by graphviz version 2.38.0 (20140413.2041)
 -->
<!-- Title: src/gromacs/utility/exceptions.h Pages: 1 -->
<svg width="546pt" height="173pt"
 viewBox="0.00 0.00 546.00 173.00" xmlns="http://www.w3.org/2000/svg" xmlns:xlink="http://www.w3.org/1999/xlink">
<g id="graph0" class="graph" transform="scale(1 1) rotate(0) translate(4 169)">
<title>src/gromacs/utility/exceptions.h</title>
<polygon fill="white" stroke="none" points="-4,4 -4,-169 542,-169 542,4 -4,4"/>
<!-- Node1 -->
<g id="node1" class="node"><title>Node1</title>
<polygon fill="#bfbfbf" stroke="black" points="212,-134.5 212,-164.5 309,-164.5 309,-134.5 212,-134.5"/>
<text text-anchor="start" x="220" y="-152.5" font-family="Helvetica,sans-Serif" font-size="10.00">src/gromacs/utility</text>
<text text-anchor="middle" x="260.5" y="-141.5" font-family="Helvetica,sans-Serif" font-size="10.00">/exceptions.h</text>
</g>
<!-- Node2 -->
<g id="node2" class="node"><title>Node2</title>
<g id="a_node2"><a xlink:href="hostallocator_8h.xhtml" target="_top" xlink:title="Declares gmx::HostAllocationPolicy, gmx::HostAllocator, and gmx::HostVector, which are used to make/b...">
<polygon fill="white" stroke="black" points="0,-67.5 0,-97.5 113,-97.5 113,-67.5 0,-67.5"/>
<text text-anchor="start" x="8" y="-85.5" font-family="Helvetica,sans-Serif" font-size="10.00">src/gromacs/gpu_utils</text>
<text text-anchor="middle" x="56.5" y="-74.5" font-family="Helvetica,sans-Serif" font-size="10.00">/hostallocator.h</text>
</a>
</g>
</g>
<!-- Node1&#45;&gt;Node2 -->
<g id="edge1" class="edge"><title>Node1&#45;&gt;Node2</title>
<path fill="none" stroke="midnightblue" d="M206.545,-131.308C173.543,-120.793 131.845,-107.507 100.787,-97.6109"/>
<polygon fill="midnightblue" stroke="midnightblue" points="205.896,-134.775 216.486,-134.476 208.021,-128.105 205.896,-134.775"/>
</g>
<!-- Node4 -->
<g id="node4" class="node"><title>Node4</title>
<g id="a_node4"><a xlink:href="threefry_8h.xhtml" target="_top" xlink:title="Implementation of the 2x64 ThreeFry random engine. ">
<polygon fill="white" stroke="black" points="132.5,-67.5 132.5,-97.5 238.5,-97.5 238.5,-67.5 132.5,-67.5"/>
<text text-anchor="start" x="140.5" y="-85.5" font-family="Helvetica,sans-Serif" font-size="10.00">src/gromacs/random</text>
<text text-anchor="middle" x="185.5" y="-74.5" font-family="Helvetica,sans-Serif" font-size="10.00">/threefry.h</text>
</a>
</g>
</g>
<!-- Node1&#45;&gt;Node4 -->
<g id="edge3" class="edge"><title>Node1&#45;&gt;Node4</title>
<path fill="none" stroke="midnightblue" d="M236.382,-127.598C225.057,-117.783 211.859,-106.344 201.742,-97.5765"/>
<polygon fill="midnightblue" stroke="midnightblue" points="234.377,-130.492 244.226,-134.396 238.961,-125.202 234.377,-130.492"/>
</g>
<!-- Node6 -->
<g id="node6" class="node"><title>Node6</title>
<g id="a_node6"><a xlink:href="trajectoryanalysis_8h.xhtml" target="_top" xlink:title="Public API convenience header for trajectory analysis framework. ">
<polygon fill="white" stroke="black" points="256.5,-73 256.5,-92 414.5,-92 414.5,-73 256.5,-73"/>
<text text-anchor="middle" x="335.5" y="-80" font-family="Helvetica,sans-Serif" font-size="10.00">src/gromacs/trajectoryanalysis.h</text>
</a>
</g>
</g>
<!-- Node1&#45;&gt;Node6 -->
<g id="edge5" class="edge"><title>Node1&#45;&gt;Node6</title>
<path fill="none" stroke="midnightblue" d="M284.532,-127.672C298.38,-115.671 315.054,-101.22 325.468,-92.1945"/>
<polygon fill="midnightblue" stroke="midnightblue" points="282.039,-125.202 276.774,-134.396 286.623,-130.492 282.039,-125.202"/>
</g>
<!-- Node8 -->
<g id="node8" class="node"><title>Node8</title>
<g id="a_node8"><a xlink:href="utility_8h.xhtml" target="_top" xlink:title="Public API convenience header for low&#45;level utilities. ">
<polygon fill="white" stroke="black" points="433,-73 433,-92 538,-92 538,-73 433,-73"/>
<text text-anchor="middle" x="485.5" y="-80" font-family="Helvetica,sans-Serif" font-size="10.00">src/gromacs/utility.h</text>
</a>
</g>
</g>
<!-- Node1&#45;&gt;Node8 -->
<g id="edge7" class="edge"><title>Node1&#45;&gt;Node8</title>
<path fill="none" stroke="midnightblue" d="M318.756,-131.671C362.73,-118.967 421.24,-102.064 455.978,-92.0287"/>
<polygon fill="midnightblue" stroke="midnightblue" points="317.68,-128.338 309.045,-134.476 319.623,-135.063 317.68,-128.338"/>
</g>
<!-- Node3 -->
<g id="node3" class="node"><title>Node3</title>
<g id="a_node3"><a xlink:href="state_8h.xhtml" target="_top" xlink:title="This file contains the definition of the microstate of the simulated system. ">
<polygon fill="white" stroke="black" points="0,-0.5 0,-30.5 111,-30.5 111,-0.5 0,-0.5"/>
<text text-anchor="start" x="8" y="-18.5" font-family="Helvetica,sans-Serif" font-size="10.00">src/gromacs/mdtypes</text>
<text text-anchor="middle" x="55.5" y="-7.5" font-family="Helvetica,sans-Serif" font-size="10.00">/state.h</text>
</a>
</g>
</g>
<!-- Node2&#45;&gt;Node3 -->
<g id="edge2" class="edge"><title>Node2&#45;&gt;Node3</title>
<path fill="none" stroke="midnightblue" d="M56.1247,-57.1081C55.987,-48.1539 55.8357,-38.3227 55.7166,-30.5765"/>
<polygon fill="midnightblue" stroke="midnightblue" points="52.6295,-57.451 56.283,-67.396 59.6287,-57.3433 52.6295,-57.451"/>
</g>
<!-- Node5 -->
<g id="node5" class="node"><title>Node5</title>
<g id="a_node5"><a xlink:href="random_8h.xhtml" target="_top" xlink:title="Public API convenience header for random engines and distributions. ">
<polygon fill="white" stroke="black" points="129.5,-6 129.5,-25 243.5,-25 243.5,-6 129.5,-6"/>
<text text-anchor="middle" x="186.5" y="-13" font-family="Helvetica,sans-Serif" font-size="10.00">src/gromacs/random.h</text>
</a>
</g>
</g>
<!-- Node4&#45;&gt;Node5 -->
<g id="edge4" class="edge"><title>Node4&#45;&gt;Node5</title>
<path fill="none" stroke="midnightblue" d="M185.873,-57.2495C186.046,-46.017 186.24,-33.3767 186.366,-25.1945"/>
<polygon fill="midnightblue" stroke="midnightblue" points="182.371,-57.3433 185.717,-67.396 189.37,-57.451 182.371,-57.3433"/>
</g>
<!-- Node7 -->
<g id="node7" class="node"><title>Node7</title>
<g id="a_node7"><a xlink:href="template_8cpp.xhtml" target="_top" xlink:title="Template code for writing analysis programs. ">
<polygon fill="white" stroke="black" points="265.5,-6 265.5,-25 405.5,-25 405.5,-6 265.5,-6"/>
<text text-anchor="middle" x="335.5" y="-13" font-family="Helvetica,sans-Serif" font-size="10.00">share/template/template.cpp</text>
</a>
</g>
</g>
<!-- Node6&#45;&gt;Node7 -->
<g id="edge6" class="edge"><title>Node6&#45;&gt;Node7</title>
<path fill="none" stroke="midnightblue" d="M335.5,-62.537C335.5,-50.1703 335.5,-34.6198 335.5,-25.1273"/>
<polygon fill="midnightblue" stroke="midnightblue" points="332,-62.7338 335.5,-72.7338 339,-62.7338 332,-62.7338"/>
</g>
</g>
</svg>
