<?xml version="1.0" encoding="UTF-8" standalone="no"?>
<!DOCTYPE svg PUBLIC "-//W3C//DTD SVG 1.1//EN"
 "http://www.w3.org/Graphics/SVG/1.1/DTD/svg11.dtd">
<!-- Generated by graphviz version 2.38.0 (20140413.2041)
 -->
<!-- Title: src/gromacs/random/exponentialdistribution.h Pages: 1 -->
<svg width="165pt" height="162pt"
 viewBox="0.00 0.00 165.00 162.00" xmlns="http://www.w3.org/2000/svg" xmlns:xlink="http://www.w3.org/1999/xlink">
<g id="graph0" class="graph" transform="scale(1 1) rotate(0) translate(4 158)">
<title>src/gromacs/random/exponentialdistribution.h</title>
<polygon fill="white" stroke="none" points="-4,4 -4,-158 161,-158 161,4 -4,4"/>
<!-- Node1 -->
<g id="node1" class="node"><title>Node1</title>
<polygon fill="#bfbfbf" stroke="black" points="32,-123.5 32,-153.5 157,-153.5 157,-123.5 32,-123.5"/>
<text text-anchor="start" x="40" y="-141.5" font-family="Helvetica,sans-Serif" font-size="10.00">src/gromacs/random</text>
<text text-anchor="middle" x="94.5" y="-130.5" font-family="Helvetica,sans-Serif" font-size="10.00">/exponentialdistribution.h</text>
</g>
<!-- Node2 -->
<g id="node2" class="node"><title>Node2</title>
<g id="a_node2"><a xlink:href="gammadistribution_8h.xhtml" target="_top" xlink:title="The gamma distribution. ">
<polygon fill="white" stroke="black" points="0,-56.5 0,-86.5 107,-86.5 107,-56.5 0,-56.5"/>
<text text-anchor="start" x="8" y="-74.5" font-family="Helvetica,sans-Serif" font-size="10.00">src/gromacs/random</text>
<text text-anchor="middle" x="53.5" y="-63.5" font-family="Helvetica,sans-Serif" font-size="10.00">/gammadistribution.h</text>
</a>
</g>
</g>
<!-- Node1&#45;&gt;Node2 -->
<g id="edge1" class="edge"><title>Node1&#45;&gt;Node2</title>
<path fill="none" stroke="midnightblue" d="M80.2237,-114.867C74.2898,-105.459 67.5872,-94.8334 62.379,-86.5765"/>
<polygon fill="midnightblue" stroke="midnightblue" points="77.3082,-116.805 85.6036,-123.396 83.2288,-113.071 77.3082,-116.805"/>
</g>
<!-- Node3 -->
<g id="node3" class="node"><title>Node3</title>
<g id="a_node3"><a xlink:href="random_8h.xhtml" target="_top" xlink:title="Public API convenience header for random engines and distributions. ">
<polygon fill="white" stroke="black" points="37.5,-0.5 37.5,-19.5 151.5,-19.5 151.5,-0.5 37.5,-0.5"/>
<text text-anchor="middle" x="94.5" y="-7.5" font-family="Helvetica,sans-Serif" font-size="10.00">src/gromacs/random.h</text>
</a>
</g>
</g>
<!-- Node1&#45;&gt;Node3 -->
<g id="edge3" class="edge"><title>Node1&#45;&gt;Node3</title>
<path fill="none" stroke="midnightblue" d="M106.41,-114.265C110.089,-105.896 113.656,-96.2358 115.5,-87 118.197,-73.4888 118.484,-69.4507 115.5,-56 112.512,-42.5333 105.056,-28.3218 99.8841,-19.557"/>
<polygon fill="midnightblue" stroke="midnightblue" points="103.207,-112.853 102.137,-123.393 109.546,-115.82 103.207,-112.853"/>
</g>
<!-- Node2&#45;&gt;Node3 -->
<g id="edge2" class="edge"><title>Node2&#45;&gt;Node3</title>
<path fill="none" stroke="midnightblue" d="M68.9325,-48.1041C75.7662,-38.1868 83.4016,-27.1062 88.5341,-19.6578"/>
<polygon fill="midnightblue" stroke="midnightblue" points="66.0085,-46.179 63.2164,-56.3993 71.7726,-50.1509 66.0085,-46.179"/>
</g>
</g>
</svg>
