<?xml version="1.0" encoding="UTF-8" standalone="no"?>
<!DOCTYPE svg PUBLIC "-//W3C//DTD SVG 1.1//EN"
 "http://www.w3.org/Graphics/SVG/1.1/DTD/svg11.dtd">
<!-- Generated by graphviz version 2.38.0 (20140413.2041)
 -->
<!-- Title: src/gromacs/math/functions.h Pages: 1 -->
<svg width="594pt" height="285pt"
 viewBox="0.00 0.00 594.00 285.00" xmlns="http://www.w3.org/2000/svg" xmlns:xlink="http://www.w3.org/1999/xlink">
<g id="graph0" class="graph" transform="scale(1 1) rotate(0) translate(4 281)">
<title>src/gromacs/math/functions.h</title>
<polygon fill="white" stroke="none" points="-4,4 -4,-281 590,-281 590,4 -4,4"/>
<!-- Node1 -->
<g id="node1" class="node"><title>Node1</title>
<polygon fill="#bfbfbf" stroke="black" points="242,-257.5 242,-276.5 388,-276.5 388,-257.5 242,-257.5"/>
<text text-anchor="middle" x="315" y="-264.5" font-family="Helvetica,sans-Serif" font-size="10.00">src/gromacs/math/functions.h</text>
</g>
<!-- Node2 -->
<g id="node2" class="node"><title>Node2</title>
<g id="a_node2"><a xlink:href="threefry_8h.xhtml" target="_top" xlink:title="Implementation of the 2x64 ThreeFry random engine. ">
<polygon fill="white" stroke="black" points="0,-56.5 0,-86.5 106,-86.5 106,-56.5 0,-56.5"/>
<text text-anchor="start" x="8" y="-74.5" font-family="Helvetica,sans-Serif" font-size="10.00">src/gromacs/random</text>
<text text-anchor="middle" x="53" y="-63.5" font-family="Helvetica,sans-Serif" font-size="10.00">/threefry.h</text>
</a>
</g>
</g>
<!-- Node1&#45;&gt;Node2 -->
<g id="edge1" class="edge"><title>Node1&#45;&gt;Node2</title>
<path fill="none" stroke="midnightblue" d="M272.682,-254.369C249.743,-246.919 221.557,-235.842 199,-221 139.802,-182.049 85.6686,-115.694 63.5452,-86.7293"/>
<polygon fill="midnightblue" stroke="midnightblue" points="271.897,-257.791 282.486,-257.438 273.989,-251.11 271.897,-257.791"/>
</g>
<!-- Node4 -->
<g id="node4" class="node"><title>Node4</title>
<g id="a_node4"><a xlink:href="uniformrealdistribution_8h.xhtml" target="_top" xlink:title="The uniform real distribution. ">
<polygon fill="white" stroke="black" points="208.5,-190.5 208.5,-220.5 331.5,-220.5 331.5,-190.5 208.5,-190.5"/>
<text text-anchor="start" x="216.5" y="-208.5" font-family="Helvetica,sans-Serif" font-size="10.00">src/gromacs/random</text>
<text text-anchor="middle" x="270" y="-197.5" font-family="Helvetica,sans-Serif" font-size="10.00">/uniformrealdistribution.h</text>
</a>
</g>
</g>
<!-- Node1&#45;&gt;Node4 -->
<g id="edge3" class="edge"><title>Node1&#45;&gt;Node4</title>
<path fill="none" stroke="midnightblue" d="M302.33,-249.247C295.477,-240.187 287.111,-229.124 280.606,-220.523"/>
<polygon fill="midnightblue" stroke="midnightblue" points="299.729,-251.611 308.553,-257.475 305.312,-247.388 299.729,-251.611"/>
</g>
<!-- Node8 -->
<g id="node8" class="node"><title>Node8</title>
<g id="a_node8"><a xlink:href="uniformintdistribution_8h.xhtml" target="_top" xlink:title="The uniform integer distribution. ">
<polygon fill="white" stroke="black" points="468,-123.5 468,-153.5 586,-153.5 586,-123.5 468,-123.5"/>
<text text-anchor="start" x="476" y="-141.5" font-family="Helvetica,sans-Serif" font-size="10.00">src/gromacs/random</text>
<text text-anchor="middle" x="527" y="-130.5" font-family="Helvetica,sans-Serif" font-size="10.00">/uniformintdistribution.h</text>
</a>
</g>
</g>
<!-- Node1&#45;&gt;Node8 -->
<g id="edge12" class="edge"><title>Node1&#45;&gt;Node8</title>
<path fill="none" stroke="midnightblue" d="M325.396,-248.897C336.636,-231.746 356.054,-205.693 379,-190 405.555,-171.838 439.237,-159.67 467.759,-151.837"/>
<polygon fill="midnightblue" stroke="midnightblue" points="322.413,-247.065 320.023,-257.387 328.328,-250.808 322.413,-247.065"/>
</g>
<!-- Node9 -->
<g id="node9" class="node"><title>Node9</title>
<g id="a_node9"><a xlink:href="tabulatednormaldistribution_8h.xhtml" target="_top" xlink:title="Tabulated normal distribution. ">
<polygon fill="white" stroke="black" points="388,-190.5 388,-220.5 532,-220.5 532,-190.5 388,-190.5"/>
<text text-anchor="start" x="396" y="-208.5" font-family="Helvetica,sans-Serif" font-size="10.00">src/gromacs/random</text>
<text text-anchor="middle" x="460" y="-197.5" font-family="Helvetica,sans-Serif" font-size="10.00">/tabulatednormaldistribution.h</text>
</a>
</g>
</g>
<!-- Node1&#45;&gt;Node9 -->
<g id="edge14" class="edge"><title>Node1&#45;&gt;Node9</title>
<path fill="none" stroke="midnightblue" d="M345.243,-253.59C368.754,-243.942 401.372,-230.558 425.826,-220.523"/>
<polygon fill="midnightblue" stroke="midnightblue" points="343.698,-250.441 335.775,-257.475 346.355,-256.917 343.698,-250.441"/>
</g>
<!-- Node3 -->
<g id="node3" class="node"><title>Node3</title>
<g id="a_node3"><a xlink:href="random_8h.xhtml" target="_top" xlink:title="Public API convenience header for random engines and distributions. ">
<polygon fill="white" stroke="black" points="209,-0.5 209,-19.5 323,-19.5 323,-0.5 209,-0.5"/>
<text text-anchor="middle" x="266" y="-7.5" font-family="Helvetica,sans-Serif" font-size="10.00">src/gromacs/random.h</text>
</a>
</g>
</g>
<!-- Node2&#45;&gt;Node3 -->
<g id="edge2" class="edge"><title>Node2&#45;&gt;Node3</title>
<path fill="none" stroke="midnightblue" d="M112.852,-53.7808C152.806,-42.62 203.676,-28.4098 235.549,-19.5064"/>
<polygon fill="midnightblue" stroke="midnightblue" points="111.898,-50.4132 103.208,-56.4747 113.781,-57.1551 111.898,-50.4132"/>
</g>
<!-- Node4&#45;&gt;Node3 -->
<g id="edge11" class="edge"><title>Node4&#45;&gt;Node3</title>
<path fill="none" stroke="midnightblue" d="M198.874,-188.851C180.918,-181.352 163.713,-170.293 153,-154 117.535,-100.066 210.349,-41.2827 249.517,-19.6275"/>
<polygon fill="midnightblue" stroke="midnightblue" points="197.712,-192.154 208.302,-192.457 200.212,-185.616 197.712,-192.154"/>
</g>
<!-- Node5 -->
<g id="node5" class="node"><title>Node5</title>
<g id="a_node5"><a xlink:href="exponentialdistribution_8h.xhtml" target="_top" xlink:title="The exponential distribution. ">
<polygon fill="white" stroke="black" points="162.5,-123.5 162.5,-153.5 287.5,-153.5 287.5,-123.5 162.5,-123.5"/>
<text text-anchor="start" x="170.5" y="-141.5" font-family="Helvetica,sans-Serif" font-size="10.00">src/gromacs/random</text>
<text text-anchor="middle" x="225" y="-130.5" font-family="Helvetica,sans-Serif" font-size="10.00">/exponentialdistribution.h</text>
</a>
</g>
</g>
<!-- Node4&#45;&gt;Node5 -->
<g id="edge4" class="edge"><title>Node4&#45;&gt;Node5</title>
<path fill="none" stroke="midnightblue" d="M254.532,-182.157C247.97,-172.679 240.521,-161.919 234.745,-153.577"/>
<polygon fill="midnightblue" stroke="midnightblue" points="251.666,-184.166 260.236,-190.396 257.421,-180.182 251.666,-184.166"/>
</g>
<!-- Node6 -->
<g id="node6" class="node"><title>Node6</title>
<g id="a_node6"><a xlink:href="gammadistribution_8h.xhtml" target="_top" xlink:title="The gamma distribution. ">
<polygon fill="white" stroke="black" points="253.5,-56.5 253.5,-86.5 360.5,-86.5 360.5,-56.5 253.5,-56.5"/>
<text text-anchor="start" x="261.5" y="-74.5" font-family="Helvetica,sans-Serif" font-size="10.00">src/gromacs/random</text>
<text text-anchor="middle" x="307" y="-63.5" font-family="Helvetica,sans-Serif" font-size="10.00">/gammadistribution.h</text>
</a>
</g>
</g>
<!-- Node4&#45;&gt;Node6 -->
<g id="edge8" class="edge"><title>Node4&#45;&gt;Node6</title>
<path fill="none" stroke="midnightblue" d="M283.865,-181.643C288.401,-173.222 293.033,-163.432 296,-154 303.199,-131.119 305.686,-103.17 306.546,-86.6592"/>
<polygon fill="midnightblue" stroke="midnightblue" points="280.746,-180.048 278.877,-190.477 286.841,-183.49 280.746,-180.048"/>
</g>
<!-- Node7 -->
<g id="node7" class="node"><title>Node7</title>
<g id="a_node7"><a xlink:href="normaldistribution_8h.xhtml" target="_top" xlink:title="The normal distribution. ">
<polygon fill="white" stroke="black" points="344,-123.5 344,-153.5 450,-153.5 450,-123.5 344,-123.5"/>
<text text-anchor="start" x="352" y="-141.5" font-family="Helvetica,sans-Serif" font-size="10.00">src/gromacs/random</text>
<text text-anchor="middle" x="397" y="-130.5" font-family="Helvetica,sans-Serif" font-size="10.00">/normaldistribution.h</text>
</a>
</g>
</g>
<!-- Node4&#45;&gt;Node7 -->
<g id="edge9" class="edge"><title>Node4&#45;&gt;Node7</title>
<path fill="none" stroke="midnightblue" d="M306.704,-185.714C326.734,-175.463 351.119,-162.983 369.497,-153.577"/>
<polygon fill="midnightblue" stroke="midnightblue" points="304.864,-182.724 297.557,-190.396 308.054,-188.956 304.864,-182.724"/>
</g>
<!-- Node5&#45;&gt;Node3 -->
<g id="edge7" class="edge"><title>Node5&#45;&gt;Node3</title>
<path fill="none" stroke="midnightblue" d="M229.118,-113.488C232.296,-97.0362 237.287,-74.8636 244,-56 248.665,-42.8914 256.092,-28.5904 261.007,-19.7081"/>
<polygon fill="midnightblue" stroke="midnightblue" points="225.665,-112.912 227.291,-123.382 232.548,-114.183 225.665,-112.912"/>
</g>
<!-- Node5&#45;&gt;Node6 -->
<g id="edge5" class="edge"><title>Node5&#45;&gt;Node6</title>
<path fill="none" stroke="midnightblue" d="M250.65,-117.168C263.189,-107.228 277.966,-95.5144 289.242,-86.5765"/>
<polygon fill="midnightblue" stroke="midnightblue" points="248.455,-114.441 242.793,-123.396 252.804,-119.927 248.455,-114.441"/>
</g>
<!-- Node6&#45;&gt;Node3 -->
<g id="edge6" class="edge"><title>Node6&#45;&gt;Node3</title>
<path fill="none" stroke="midnightblue" d="M291.568,-48.1041C284.734,-38.1868 277.098,-27.1062 271.966,-19.6578"/>
<polygon fill="midnightblue" stroke="midnightblue" points="288.727,-50.1509 297.284,-56.3993 294.491,-46.179 288.727,-50.1509"/>
</g>
<!-- Node7&#45;&gt;Node3 -->
<g id="edge10" class="edge"><title>Node7&#45;&gt;Node3</title>
<path fill="none" stroke="midnightblue" d="M393.994,-113.424C390.633,-95.626 383.599,-71.8315 369,-56 351.935,-37.494 325.914,-26.2121 304.297,-19.5728"/>
<polygon fill="midnightblue" stroke="midnightblue" points="390.549,-114.047 395.612,-123.354 397.458,-112.922 390.549,-114.047"/>
</g>
<!-- Node8&#45;&gt;Node3 -->
<g id="edge13" class="edge"><title>Node8&#45;&gt;Node3</title>
<path fill="none" stroke="midnightblue" d="M498.2,-117.787C471.49,-100.075 430.221,-74.1379 392,-56 359.788,-40.7137 320.904,-27.5801 294.931,-19.5135"/>
<polygon fill="midnightblue" stroke="midnightblue" points="496.417,-120.805 506.675,-123.455 500.308,-114.986 496.417,-120.805"/>
</g>
</g>
</svg>
