<?xml version="1.0" encoding="UTF-8" standalone="no"?>
<!DOCTYPE svg PUBLIC "-//W3C//DTD SVG 1.1//EN"
 "http://www.w3.org/Graphics/SVG/1.1/DTD/svg11.dtd">
<!-- Generated by graphviz version 2.38.0 (20140413.2041)
 -->
<!-- Title: Low&#45;Level Utilities (utility) Pages: 1 -->
<svg width="446pt" height="369pt"
 viewBox="0.00 0.00 446.00 369.31" xmlns="http://www.w3.org/2000/svg" xmlns:xlink="http://www.w3.org/1999/xlink">
<g id="graph0" class="graph" transform="scale(1 1) rotate(0) translate(4 365.311)">
<title>Low&#45;Level Utilities (utility)</title>
<polygon fill="white" stroke="none" points="-4,4 -4,-365.311 442,-365.311 442,4 -4,4"/>
<!-- Node2 -->
<g id="node1" class="node"><title>Node2</title>
<g id="a_node1"><a xlink:href="group__group__publicapi.xhtml" target="_top" xlink:title="Classes and other symbols that are publicly accessible from user code. ">
<polygon fill="white" stroke="black" points="374,-162.811 374,-181.811 437,-181.811 437,-162.811 374,-162.811"/>
<text text-anchor="middle" x="405.5" y="-169.811" font-family="Helvetica,sans-Serif" font-size="10.00">Public API</text>
</a>
</g>
</g>
<!-- Node3 -->
<g id="node2" class="node"><title>Node3</title>
<g id="a_node2"><a xlink:href="group__group__libraryapi.xhtml" target="_top" xlink:title="Classes and other symbols that are publicly accessible within the GROMACS library. ">
<polygon fill="white" stroke="black" points="373,-23.8109 373,-42.8109 438,-42.8109 438,-23.8109 373,-23.8109"/>
<text text-anchor="middle" x="405.5" y="-30.8109" font-family="Helvetica,sans-Serif" font-size="10.00">Library API</text>
</a>
</g>
</g>
<!-- Node1 -->
<g id="node3" class="node"><title>Node1</title>
<g id="a_node3"><a xlink:href="group__group__utilitymodules.xhtml" target="_top" xlink:title="Modules with generic utility functions. ">
<polygon fill="white" stroke="black" points="0,-67.8109 0,-86.8109 82,-86.8109 82,-67.8109 0,-67.8109"/>
<text text-anchor="middle" x="41" y="-74.8109" font-family="Helvetica,sans-Serif" font-size="10.00">Utility Modules</text>
</a>
</g>
</g>
<!-- Node0 -->
<g id="node4" class="node"><title>Node0</title>
<polygon fill="#bfbfbf" stroke="black" points="119,-62.3109 119,-92.3109 216,-92.3109 216,-62.3109 119,-62.3109"/>
<text text-anchor="start" x="127" y="-80.3109" font-family="Helvetica,sans-Serif" font-size="10.00">Low&#45;Level Utilities</text>
<text text-anchor="middle" x="167.5" y="-69.3109" font-family="Helvetica,sans-Serif" font-size="10.00"> (utility)</text>
</g>
<!-- Node1&#45;&gt;Node0 -->
<g id="edge1" class="edge"><title>Node1&#45;&gt;Node0</title>
<path fill="none" stroke="midnightblue" d="M92.1538,-77.3109C100.904,-77.3109 109.986,-77.3109 118.671,-77.3109"/>
<polygon fill="midnightblue" stroke="midnightblue" points="92.0779,-73.811 82.0779,-77.3109 92.0779,-80.811 92.0779,-73.811"/>
</g>
<!-- Node0&#45;&gt;Node2 -->
<g id="edge2" class="edge"><title>Node0&#45;&gt;Node2</title>
<path fill="none" stroke="orange" stroke-dasharray="5,2" d="M170.112,-92.6334C174.284,-123.55 188.514,-192.947 234,-222.311 279.181,-251.478 305.368,-243.016 355,-222.311 374.616,-214.128 390.434,-193.97 398.555,-181.896"/>
<text text-anchor="middle" x="294.5" y="-353.311" font-family="Helvetica,sans-Serif" font-size="10.00">gmx::ArrayRef</text>
<text text-anchor="middle" x="294.5" y="-342.311" font-family="Helvetica,sans-Serif" font-size="10.00">gmx::DataFileOptions</text>
<text text-anchor="middle" x="294.5" y="-331.311" font-family="Helvetica,sans-Serif" font-size="10.00">gmx::DataFileInfo</text>
<text text-anchor="middle" x="294.5" y="-320.311" font-family="Helvetica,sans-Serif" font-size="10.00">gmx::DataFileFinder</text>
<text text-anchor="middle" x="294.5" y="-309.311" font-family="Helvetica,sans-Serif" font-size="10.00">gmx::ExceptionInfo</text>
<text text-anchor="middle" x="294.5" y="-298.311" font-family="Helvetica,sans-Serif" font-size="10.00">gmx::GromacsException</text>
<text text-anchor="middle" x="294.5" y="-287.311" font-family="Helvetica,sans-Serif" font-size="10.00">gmx::FileIOError</text>
<text text-anchor="middle" x="294.5" y="-276.311" font-family="Helvetica,sans-Serif" font-size="10.00">gmx::UserInputError</text>
<text text-anchor="middle" x="294.5" y="-265.311" font-family="Helvetica,sans-Serif" font-size="10.00">gmx::InvalidInputError</text>
<text text-anchor="middle" x="294.5" y="-254.311" font-family="Helvetica,sans-Serif" font-size="10.00">gmx::InconsistentInputError</text>
<text text-anchor="middle" x="294.5" y="-243.311" font-family="Helvetica,sans-Serif" font-size="10.00">...</text>
</g>
<!-- Node0&#45;&gt;Node2 -->
<g id="edge4" class="edge"><title>Node0&#45;&gt;Node2</title>
<path fill="none" stroke="darkgreen" stroke-dasharray="5,2" d="M216.358,-77.8699C263.773,-79.2246 332.473,-83.5887 355,-97.3109 380.182,-112.651 395.162,-146.22 401.278,-162.74"/>
<text text-anchor="middle" x="294.5" y="-210.311" font-family="Helvetica,sans-Serif" font-size="10.00">alignedallocator.h</text>
<text text-anchor="middle" x="294.5" y="-199.311" font-family="Helvetica,sans-Serif" font-size="10.00">allocator.h</text>
<text text-anchor="middle" x="294.5" y="-188.311" font-family="Helvetica,sans-Serif" font-size="10.00">arrayref.h</text>
<text text-anchor="middle" x="294.5" y="-177.311" font-family="Helvetica,sans-Serif" font-size="10.00">arraysize.h</text>
<text text-anchor="middle" x="294.5" y="-166.311" font-family="Helvetica,sans-Serif" font-size="10.00">basedefinitions.h</text>
<text text-anchor="middle" x="294.5" y="-155.311" font-family="Helvetica,sans-Serif" font-size="10.00">baseversion.h</text>
<text text-anchor="middle" x="294.5" y="-144.311" font-family="Helvetica,sans-Serif" font-size="10.00">cstringutil.h</text>
<text text-anchor="middle" x="294.5" y="-133.311" font-family="Helvetica,sans-Serif" font-size="10.00">datafilefinder.h</text>
<text text-anchor="middle" x="294.5" y="-122.311" font-family="Helvetica,sans-Serif" font-size="10.00">exceptions.h</text>
<text text-anchor="middle" x="294.5" y="-111.311" font-family="Helvetica,sans-Serif" font-size="10.00">fatalerror.h</text>
<text text-anchor="middle" x="294.5" y="-100.311" font-family="Helvetica,sans-Serif" font-size="10.00">...</text>
</g>
<!-- Node0&#45;&gt;Node3 -->
<g id="edge3" class="edge"><title>Node0&#45;&gt;Node3</title>
<path fill="none" stroke="orange" stroke-dasharray="5,2" d="M211.893,-62.2202C219.212,-60.0153 226.778,-57.9423 234,-56.3109 281.781,-45.5171 338.316,-39.1137 372.779,-35.9052"/>
<text text-anchor="middle" x="294.5" y="-70.3109" font-family="Helvetica,sans-Serif" font-size="10.00">gmx::PrivateImplPointer</text>
<text text-anchor="middle" x="294.5" y="-59.3109" font-family="Helvetica,sans-Serif" font-size="10.00">gmx::FlagsTemplate</text>
</g>
<!-- Node0&#45;&gt;Node3 -->
<g id="edge5" class="edge"><title>Node0&#45;&gt;Node3</title>
<path fill="none" stroke="darkgreen" stroke-dasharray="5,2" d="M178.386,-62.0379C189.658,-46.1801 209.707,-22.3189 234,-12.3109 283.724,8.17375 302.301,-1.59452 355,-12.3109 365.977,-14.5432 377.54,-19.2969 386.727,-23.7178"/>
<text text-anchor="middle" x="294.5" y="-26.3109" font-family="Helvetica,sans-Serif" font-size="10.00">classhelpers.h</text>
<text text-anchor="middle" x="294.5" y="-15.3109" font-family="Helvetica,sans-Serif" font-size="10.00">flags.h</text>
</g>
</g>
</svg>
