<?xml version="1.0" encoding="UTF-8" standalone="no"?>
<!DOCTYPE svg PUBLIC "-//W3C//DTD SVG 1.1//EN"
 "http://www.w3.org/Graphics/SVG/1.1/DTD/svg11.dtd">
<!-- Generated by graphviz version 2.38.0 (20140413.2041)
 -->
<!-- Title: Parsing and Evaluation of Analysis Selections (selection) Pages: 1 -->
<svg width="507pt" height="299pt"
 viewBox="0.00 0.00 507.00 299.00" xmlns="http://www.w3.org/2000/svg" xmlns:xlink="http://www.w3.org/1999/xlink">
<g id="graph0" class="graph" transform="scale(1 1) rotate(0) translate(4 295)">
<title>Parsing and Evaluation of Analysis Selections (selection)</title>
<polygon fill="white" stroke="none" points="-4,4 -4,-295 503,-295 503,4 -4,4"/>
<!-- Node2 -->
<g id="node1" class="node"><title>Node2</title>
<g id="a_node1"><a xlink:href="group__group__publicapi.xhtml" target="_top" xlink:title="Classes and other symbols that are publicly accessible from user code. ">
<polygon fill="white" stroke="black" points="435,-86.5 435,-105.5 498,-105.5 498,-86.5 435,-86.5"/>
<text text-anchor="middle" x="466.5" y="-93.5" font-family="Helvetica,sans-Serif" font-size="10.00">Public API</text>
</a>
</g>
</g>
<!-- Node1 -->
<g id="node2" class="node"><title>Node1</title>
<g id="a_node2"><a xlink:href="group__group__analysismodules.xhtml" target="_top" xlink:title="Modules used in analysis tools. ">
<polygon fill="white" stroke="black" points="0,-34.5 0,-53.5 94,-53.5 94,-34.5 0,-34.5"/>
<text text-anchor="middle" x="47" y="-41.5" font-family="Helvetica,sans-Serif" font-size="10.00">Analysis Modules</text>
</a>
</g>
</g>
<!-- Node0 -->
<g id="node3" class="node"><title>Node0</title>
<polygon fill="#bfbfbf" stroke="black" points="131,-23.5 131,-64.5 248,-64.5 248,-23.5 131,-23.5"/>
<text text-anchor="start" x="139" y="-52.5" font-family="Helvetica,sans-Serif" font-size="10.00">Parsing and Evaluation</text>
<text text-anchor="start" x="139" y="-41.5" font-family="Helvetica,sans-Serif" font-size="10.00"> of Analysis Selections</text>
<text text-anchor="middle" x="189.5" y="-30.5" font-family="Helvetica,sans-Serif" font-size="10.00"> (selection)</text>
</g>
<!-- Node1&#45;&gt;Node0 -->
<g id="edge1" class="edge"><title>Node1&#45;&gt;Node0</title>
<path fill="none" stroke="midnightblue" d="M104.142,-44C112.927,-44 122.019,-44 130.837,-44"/>
<polygon fill="midnightblue" stroke="midnightblue" points="104.005,-40.5001 94.005,-44 104.005,-47.5001 104.005,-40.5001"/>
</g>
<!-- Node0&#45;&gt;Node2 -->
<g id="edge2" class="edge"><title>Node0&#45;&gt;Node2</title>
<path fill="none" stroke="orange" stroke-dasharray="5,2" d="M203.418,-64.793C216.532,-83.7335 238.757,-110.455 266,-122 327.382,-148.013 351.273,-137.965 416,-122 428.818,-118.839 441.987,-111.698 451.516,-105.699"/>
<text text-anchor="middle" x="341" y="-283" font-family="Helvetica,sans-Serif" font-size="10.00">gmx::FileNameOptionManager</text>
<text text-anchor="start" x="266" y="-272" font-family="Helvetica,sans-Serif" font-size="10.00">gmx::AnalysisNeighborhood</text>
<text text-anchor="middle" x="341" y="-261" font-family="Helvetica,sans-Serif" font-size="10.00">Positions</text>
<text text-anchor="middle" x="341" y="-250" font-family="Helvetica,sans-Serif" font-size="10.00">gmx::AnalysisNeighborhood</text>
<text text-anchor="middle" x="341" y="-239" font-family="Helvetica,sans-Serif" font-size="10.00">gmx::AnalysisNeighborhoodPair</text>
<text text-anchor="start" x="266" y="-228" font-family="Helvetica,sans-Serif" font-size="10.00">gmx::AnalysisNeighborhood</text>
<text text-anchor="middle" x="341" y="-217" font-family="Helvetica,sans-Serif" font-size="10.00">Search</text>
<text text-anchor="start" x="266" y="-206" font-family="Helvetica,sans-Serif" font-size="10.00">gmx::AnalysisNeighborhood</text>
<text text-anchor="middle" x="341" y="-195" font-family="Helvetica,sans-Serif" font-size="10.00">PairSearch</text>
<text text-anchor="middle" x="341" y="-184" font-family="Helvetica,sans-Serif" font-size="10.00">gmx::Selection</text>
<text text-anchor="middle" x="341" y="-173" font-family="Helvetica,sans-Serif" font-size="10.00">gmx::SelectionPosition</text>
<text text-anchor="middle" x="341" y="-162" font-family="Helvetica,sans-Serif" font-size="10.00">gmx::SelectionCollection</text>
<text text-anchor="middle" x="341" y="-151" font-family="Helvetica,sans-Serif" font-size="10.00">gmx::SelectionTopologyProperties</text>
<text text-anchor="middle" x="341" y="-140" font-family="Helvetica,sans-Serif" font-size="10.00">...</text>
</g>
<!-- Node0&#45;&gt;Node2 -->
<g id="edge4" class="edge"><title>Node0&#45;&gt;Node2</title>
<path fill="none" stroke="darkgreen" stroke-dasharray="5,2" d="M248.298,-30.344C295.515,-22.1435 362.887,-17.3456 416,-41 436.889,-50.303 452.66,-73.2593 460.332,-86.3846"/>
<text text-anchor="middle" x="341" y="-110" font-family="Helvetica,sans-Serif" font-size="10.00">nbsearch.h</text>
<text text-anchor="middle" x="341" y="-99" font-family="Helvetica,sans-Serif" font-size="10.00">selection.h</text>
<text text-anchor="middle" x="341" y="-88" font-family="Helvetica,sans-Serif" font-size="10.00">selectioncollection.h</text>
<text text-anchor="middle" x="341" y="-77" font-family="Helvetica,sans-Serif" font-size="10.00">selectionoption.h</text>
<text text-anchor="middle" x="341" y="-66" font-family="Helvetica,sans-Serif" font-size="10.00">selectionoptionbehavior.h</text>
<text text-anchor="middle" x="341" y="-55" font-family="Helvetica,sans-Serif" font-size="10.00">selectionoptionmanager.h</text>
<text text-anchor="middle" x="341" y="-44" font-family="Helvetica,sans-Serif" font-size="10.00">selection.h</text>
</g>
<!-- Node3 -->
<g id="node4" class="node"><title>Node3</title>
<g id="a_node4"><a xlink:href="group__group__libraryapi.xhtml" target="_top" xlink:title="Classes and other symbols that are publicly accessible within the GROMACS library. ">
<polygon fill="white" stroke="black" points="434,-0.5 434,-19.5 499,-19.5 499,-0.5 434,-0.5"/>
<text text-anchor="middle" x="466.5" y="-7.5" font-family="Helvetica,sans-Serif" font-size="10.00">Library API</text>
</a>
</g>
</g>
<!-- Node0&#45;&gt;Node3 -->
<g id="edge3" class="edge"><title>Node0&#45;&gt;Node3</title>
<path fill="none" stroke="darkgreen" stroke-dasharray="5,2" d="M229.458,-23.3846C240.914,-18.32 253.684,-13.6062 266,-11 324.283,1.33351 394.306,-2.45472 433.983,-6.26864"/>
<text text-anchor="middle" x="341" y="-14" font-family="Helvetica,sans-Serif" font-size="10.00">indexutil.h</text>
</g>
</g>
</svg>
