<?xml version="1.0" encoding="UTF-8" standalone="no"?>
<!DOCTYPE svg PUBLIC "-//W3C//DTD SVG 1.1//EN"
 "http://www.w3.org/Graphics/SVG/1.1/DTD/svg11.dtd">
<!-- Generated by graphviz version 2.38.0 (20140413.2041)
 -->
<!-- Title: src/gromacs/options/ioptionscontainerwithsections.h Pages: 1 -->
<svg width="570pt" height="341pt"
 viewBox="0.00 0.00 570.00 341.00" xmlns="http://www.w3.org/2000/svg" xmlns:xlink="http://www.w3.org/1999/xlink">
<g id="graph0" class="graph" transform="scale(1 1) rotate(0) translate(4 337)">
<title>src/gromacs/options/ioptionscontainerwithsections.h</title>
<polygon fill="white" stroke="none" points="-4,4 -4,-337 566,-337 566,4 -4,4"/>
<!-- Node1 -->
<g id="node1" class="node"><title>Node1</title>
<polygon fill="#bfbfbf" stroke="black" points="137.5,-302.5 137.5,-332.5 293.5,-332.5 293.5,-302.5 137.5,-302.5"/>
<text text-anchor="start" x="145.5" y="-320.5" font-family="Helvetica,sans-Serif" font-size="10.00">src/gromacs/options</text>
<text text-anchor="middle" x="215.5" y="-309.5" font-family="Helvetica,sans-Serif" font-size="10.00">/ioptionscontainerwithsections.h</text>
</g>
<!-- Node2 -->
<g id="node2" class="node"><title>Node2</title>
<g id="a_node2"><a xlink:href="abstractsection_8h.xhtml" target="_top" xlink:title="Declares base classes for declaring option sections. ">
<polygon fill="white" stroke="black" points="82,-235.5 82,-265.5 187,-265.5 187,-235.5 82,-235.5"/>
<text text-anchor="start" x="90" y="-253.5" font-family="Helvetica,sans-Serif" font-size="10.00">src/gromacs/options</text>
<text text-anchor="middle" x="134.5" y="-242.5" font-family="Helvetica,sans-Serif" font-size="10.00">/abstractsection.h</text>
</a>
</g>
</g>
<!-- Node1&#45;&gt;Node2 -->
<g id="edge1" class="edge"><title>Node1&#45;&gt;Node2</title>
<path fill="none" stroke="midnightblue" d="M189.808,-295.883C177.499,-286.005 163.073,-274.429 152.041,-265.577"/>
<polygon fill="midnightblue" stroke="midnightblue" points="187.934,-298.867 197.924,-302.396 192.315,-293.407 187.934,-298.867"/>
</g>
<!-- Node4 -->
<g id="node4" class="node"><title>Node4</title>
<g id="a_node4"><a xlink:href="repeatingsection_8h.xhtml" target="_top" xlink:title="Declares gmx::RepeatingOptionSection and related classes. ">
<polygon fill="white" stroke="black" points="123,-168.5 123,-198.5 228,-198.5 228,-168.5 123,-168.5"/>
<text text-anchor="start" x="131" y="-186.5" font-family="Helvetica,sans-Serif" font-size="10.00">src/gromacs/options</text>
<text text-anchor="middle" x="175.5" y="-175.5" font-family="Helvetica,sans-Serif" font-size="10.00">/repeatingsection.h</text>
</a>
</g>
</g>
<!-- Node1&#45;&gt;Node4 -->
<g id="edge13" class="edge"><title>Node1&#45;&gt;Node4</title>
<path fill="none" stroke="midnightblue" d="M210.55,-292.657C206.931,-276.28 201.603,-254.128 195.5,-235 191.544,-222.603 186.042,-208.896 181.809,-198.895"/>
<polygon fill="midnightblue" stroke="midnightblue" points="207.142,-293.459 212.672,-302.496 213.985,-291.983 207.142,-293.459"/>
</g>
<!-- Node5 -->
<g id="node5" class="node"><title>Node5</title>
<g id="a_node5"><a xlink:href="options_2options_8h.xhtml" target="_top" xlink:title="Declares gmx::Options. ">
<polygon fill="white" stroke="black" points="304,-235.5 304,-265.5 409,-265.5 409,-235.5 304,-235.5"/>
<text text-anchor="start" x="312" y="-253.5" font-family="Helvetica,sans-Serif" font-size="10.00">src/gromacs/options</text>
<text text-anchor="middle" x="356.5" y="-242.5" font-family="Helvetica,sans-Serif" font-size="10.00">/options.h</text>
</a>
</g>
</g>
<!-- Node1&#45;&gt;Node5 -->
<g id="edge4" class="edge"><title>Node1&#45;&gt;Node5</title>
<path fill="none" stroke="midnightblue" d="M255.348,-298.131C277.752,-287.802 305.284,-275.11 325.965,-265.577"/>
<polygon fill="midnightblue" stroke="midnightblue" points="253.711,-295.031 246.095,-302.396 256.642,-301.388 253.711,-295.031"/>
</g>
<!-- Node3 -->
<g id="node3" class="node"><title>Node3</title>
<g id="a_node3"><a xlink:href="optionsection_8h.xhtml" target="_top" xlink:title="Declares gmx::OptionSection and gmx::OptionSectionInfo. ">
<polygon fill="white" stroke="black" points="0,-168.5 0,-198.5 105,-198.5 105,-168.5 0,-168.5"/>
<text text-anchor="start" x="8" y="-186.5" font-family="Helvetica,sans-Serif" font-size="10.00">src/gromacs/options</text>
<text text-anchor="middle" x="52.5" y="-175.5" font-family="Helvetica,sans-Serif" font-size="10.00">/optionsection.h</text>
</a>
</g>
</g>
<!-- Node2&#45;&gt;Node3 -->
<g id="edge2" class="edge"><title>Node2&#45;&gt;Node3</title>
<path fill="none" stroke="midnightblue" d="M108.85,-229.168C96.3111,-219.228 81.5336,-207.514 70.2581,-198.577"/>
<polygon fill="midnightblue" stroke="midnightblue" points="106.696,-231.927 116.707,-235.396 111.045,-226.441 106.696,-231.927"/>
</g>
<!-- Node2&#45;&gt;Node4 -->
<g id="edge3" class="edge"><title>Node2&#45;&gt;Node4</title>
<path fill="none" stroke="midnightblue" d="M148.776,-226.867C154.71,-217.459 161.413,-206.833 166.621,-198.577"/>
<polygon fill="midnightblue" stroke="midnightblue" points="145.771,-225.071 143.396,-235.396 151.692,-228.805 145.771,-225.071"/>
</g>
<!-- Node6 -->
<g id="node6" class="node"><title>Node6</title>
<g id="a_node6"><a xlink:href="filenameoptionmanager_8h.xhtml" target="_top" xlink:title="Declares gmx::FileNameOptionManager. ">
<polygon fill="white" stroke="black" points="246.5,-168.5 246.5,-198.5 374.5,-198.5 374.5,-168.5 246.5,-168.5"/>
<text text-anchor="start" x="254.5" y="-186.5" font-family="Helvetica,sans-Serif" font-size="10.00">src/gromacs/options</text>
<text text-anchor="middle" x="310.5" y="-175.5" font-family="Helvetica,sans-Serif" font-size="10.00">/filenameoptionmanager.h</text>
</a>
</g>
</g>
<!-- Node5&#45;&gt;Node6 -->
<g id="edge5" class="edge"><title>Node5&#45;&gt;Node6</title>
<path fill="none" stroke="midnightblue" d="M340.688,-227.157C333.98,-217.679 326.365,-206.919 320.462,-198.577"/>
<polygon fill="midnightblue" stroke="midnightblue" points="337.885,-229.255 346.519,-235.396 343.599,-225.211 337.885,-229.255"/>
</g>
<!-- Node7 -->
<g id="node7" class="node"><title>Node7</title>
<g id="a_node7"><a xlink:href="options_8h.xhtml" target="_top" xlink:title="Public API convenience header for handling of options. ">
<polygon fill="white" stroke="black" points="305,-112.5 305,-131.5 418,-131.5 418,-112.5 305,-112.5"/>
<text text-anchor="middle" x="361.5" y="-119.5" font-family="Helvetica,sans-Serif" font-size="10.00">src/gromacs/options.h</text>
</a>
</g>
</g>
<!-- Node5&#45;&gt;Node7 -->
<g id="edge9" class="edge"><title>Node5&#45;&gt;Node7</title>
<path fill="none" stroke="midnightblue" d="M371.837,-226.541C376.545,-218.226 381.112,-208.529 383.5,-199 386.848,-185.635 386.606,-181.423 383.5,-168 380.364,-154.444 372.554,-140.255 367.138,-131.519"/>
<polygon fill="midnightblue" stroke="midnightblue" points="368.745,-224.89 366.57,-235.26 374.737,-228.51 368.745,-224.89"/>
</g>
<!-- Node10 -->
<g id="node10" class="node"><title>Node10</title>
<g id="a_node10"><a xlink:href="selectionoptionmanager_8h.xhtml" target="_top" xlink:title="Declares gmx::SelectionOptionManager. ">
<polygon fill="white" stroke="black" points="431,-168.5 431,-198.5 562,-198.5 562,-168.5 431,-168.5"/>
<text text-anchor="start" x="439" y="-186.5" font-family="Helvetica,sans-Serif" font-size="10.00">src/gromacs/selection</text>
<text text-anchor="middle" x="496.5" y="-175.5" font-family="Helvetica,sans-Serif" font-size="10.00">/selectionoptionmanager.h</text>
</a>
</g>
</g>
<!-- Node5&#45;&gt;Node10 -->
<g id="edge10" class="edge"><title>Node5&#45;&gt;Node10</title>
<path fill="none" stroke="midnightblue" d="M396.065,-231.131C418.31,-220.802 445.647,-208.11 466.181,-198.577"/>
<polygon fill="midnightblue" stroke="midnightblue" points="394.474,-228.01 386.878,-235.396 397.422,-234.359 394.474,-228.01"/>
</g>
<!-- Node6&#45;&gt;Node7 -->
<g id="edge6" class="edge"><title>Node6&#45;&gt;Node7</title>
<path fill="none" stroke="midnightblue" d="M329.183,-160.704C337.812,-150.636 347.566,-139.257 354.079,-131.658"/>
<polygon fill="midnightblue" stroke="midnightblue" points="326.437,-158.529 322.586,-168.399 331.752,-163.085 326.437,-158.529"/>
</g>
<!-- Node8 -->
<g id="node8" class="node"><title>Node8</title>
<g id="a_node8"><a xlink:href="trajectoryanalysis_8h.xhtml" target="_top" xlink:title="Public API convenience header for trajectory analysis framework. ">
<polygon fill="white" stroke="black" points="349.5,-56.5 349.5,-75.5 507.5,-75.5 507.5,-56.5 349.5,-56.5"/>
<text text-anchor="middle" x="428.5" y="-63.5" font-family="Helvetica,sans-Serif" font-size="10.00">src/gromacs/trajectoryanalysis.h</text>
</a>
</g>
</g>
<!-- Node7&#45;&gt;Node8 -->
<g id="edge7" class="edge"><title>Node7&#45;&gt;Node8</title>
<path fill="none" stroke="midnightblue" d="M380.335,-105.82C392.338,-96.1452 407.472,-83.9481 417.539,-75.8339"/>
<polygon fill="midnightblue" stroke="midnightblue" points="377.854,-103.324 372.265,-112.324 382.247,-108.774 377.854,-103.324"/>
</g>
<!-- Node9 -->
<g id="node9" class="node"><title>Node9</title>
<g id="a_node9"><a xlink:href="template_8cpp.xhtml" target="_top" xlink:title="Template code for writing analysis programs. ">
<polygon fill="white" stroke="black" points="358.5,-0.5 358.5,-19.5 498.5,-19.5 498.5,-0.5 358.5,-0.5"/>
<text text-anchor="middle" x="428.5" y="-7.5" font-family="Helvetica,sans-Serif" font-size="10.00">share/template/template.cpp</text>
</a>
</g>
</g>
<!-- Node8&#45;&gt;Node9 -->
<g id="edge8" class="edge"><title>Node8&#45;&gt;Node9</title>
<path fill="none" stroke="midnightblue" d="M428.5,-45.8045C428.5,-36.9102 428.5,-26.7798 428.5,-19.7511"/>
<polygon fill="midnightblue" stroke="midnightblue" points="425,-46.083 428.5,-56.083 432,-46.083 425,-46.083"/>
</g>
<!-- Node11 -->
<g id="node11" class="node"><title>Node11</title>
<g id="a_node11"><a xlink:href="selection_8h.xhtml" target="_top" xlink:title="Public API convenience header for selection handling. ">
<polygon fill="white" stroke="black" points="436,-112.5 436,-131.5 557,-131.5 557,-112.5 436,-112.5"/>
<text text-anchor="middle" x="496.5" y="-119.5" font-family="Helvetica,sans-Serif" font-size="10.00">src/gromacs/selection.h</text>
</a>
</g>
</g>
<!-- Node10&#45;&gt;Node11 -->
<g id="edge11" class="edge"><title>Node10&#45;&gt;Node11</title>
<path fill="none" stroke="midnightblue" d="M496.5,-158.289C496.5,-148.857 496.5,-138.655 496.5,-131.658"/>
<polygon fill="midnightblue" stroke="midnightblue" points="493,-158.399 496.5,-168.399 500,-158.399 493,-158.399"/>
</g>
<!-- Node11&#45;&gt;Node8 -->
<g id="edge12" class="edge"><title>Node11&#45;&gt;Node8</title>
<path fill="none" stroke="midnightblue" d="M477.738,-106.101C465.5,-96.3824 449.941,-84.0269 439.624,-75.8339"/>
<polygon fill="midnightblue" stroke="midnightblue" points="475.567,-108.846 485.575,-112.324 479.92,-103.364 475.567,-108.846"/>
</g>
</g>
</svg>
