<?xml version="1.0" encoding="UTF-8" standalone="no"?>
<!DOCTYPE svg PUBLIC "-//W3C//DTD SVG 1.1//EN"
 "http://www.w3.org/Graphics/SVG/1.1/DTD/svg11.dtd">
<!-- Generated by graphviz version 2.38.0 (20140413.2041)
 -->
<!-- Title: src/gromacs/options/ivaluestore.h Pages: 1 -->
<svg width="267pt" height="285pt"
 viewBox="0.00 0.00 266.50 285.00" xmlns="http://www.w3.org/2000/svg" xmlns:xlink="http://www.w3.org/1999/xlink">
<g id="graph0" class="graph" transform="scale(1 1) rotate(0) translate(4 281)">
<title>src/gromacs/options/ivaluestore.h</title>
<polygon fill="white" stroke="none" points="-4,4 -4,-281 262.5,-281 262.5,4 -4,4"/>
<!-- Node1 -->
<g id="node1" class="node"><title>Node1</title>
<polygon fill="#bfbfbf" stroke="black" points="64,-246.5 64,-276.5 169,-276.5 169,-246.5 64,-246.5"/>
<text text-anchor="start" x="72" y="-264.5" font-family="Helvetica,sans-Serif" font-size="10.00">src/gromacs/options</text>
<text text-anchor="middle" x="116.5" y="-253.5" font-family="Helvetica,sans-Serif" font-size="10.00">/ivaluestore.h</text>
</g>
<!-- Node2 -->
<g id="node2" class="node"><title>Node2</title>
<g id="a_node2"><a xlink:href="valuestore_8h.xhtml" target="_top" xlink:title="Declares implementations for IOptionValueStore. ">
<polygon fill="white" stroke="black" points="2,-179.5 2,-209.5 107,-209.5 107,-179.5 2,-179.5"/>
<text text-anchor="start" x="10" y="-197.5" font-family="Helvetica,sans-Serif" font-size="10.00">src/gromacs/options</text>
<text text-anchor="middle" x="54.5" y="-186.5" font-family="Helvetica,sans-Serif" font-size="10.00">/valuestore.h</text>
</a>
</g>
</g>
<!-- Node1&#45;&gt;Node2 -->
<g id="edge1" class="edge"><title>Node1&#45;&gt;Node2</title>
<path fill="none" stroke="midnightblue" d="M96.0154,-239.024C86.778,-229.34 76.1274,-218.174 67.9268,-209.577"/>
<polygon fill="midnightblue" stroke="midnightblue" points="93.6121,-241.576 103.047,-246.396 98.6774,-236.744 93.6121,-241.576"/>
</g>
<!-- Node4 -->
<g id="node4" class="node"><title>Node4</title>
<g id="a_node4"><a xlink:href="basicoptions_8h.xhtml" target="_top" xlink:title="Declares option objects for basic option types. ">
<polygon fill="white" stroke="black" points="126,-179.5 126,-209.5 231,-209.5 231,-179.5 126,-179.5"/>
<text text-anchor="start" x="134" y="-197.5" font-family="Helvetica,sans-Serif" font-size="10.00">src/gromacs/options</text>
<text text-anchor="middle" x="178.5" y="-186.5" font-family="Helvetica,sans-Serif" font-size="10.00">/basicoptions.h</text>
</a>
</g>
</g>
<!-- Node1&#45;&gt;Node4 -->
<g id="edge3" class="edge"><title>Node1&#45;&gt;Node4</title>
<path fill="none" stroke="midnightblue" d="M136.985,-239.024C146.222,-229.34 156.873,-218.174 165.073,-209.577"/>
<polygon fill="midnightblue" stroke="midnightblue" points="134.323,-236.744 129.953,-246.396 139.388,-241.576 134.323,-236.744"/>
</g>
<!-- Node3 -->
<g id="node3" class="node"><title>Node3</title>
<g id="a_node3"><a xlink:href="repeatingsection_8h.xhtml" target="_top" xlink:title="Declares gmx::RepeatingOptionSection and related classes. ">
<polygon fill="white" stroke="black" points="0,-112.5 0,-142.5 105,-142.5 105,-112.5 0,-112.5"/>
<text text-anchor="start" x="8" y="-130.5" font-family="Helvetica,sans-Serif" font-size="10.00">src/gromacs/options</text>
<text text-anchor="middle" x="52.5" y="-119.5" font-family="Helvetica,sans-Serif" font-size="10.00">/repeatingsection.h</text>
</a>
</g>
</g>
<!-- Node2&#45;&gt;Node3 -->
<g id="edge2" class="edge"><title>Node2&#45;&gt;Node3</title>
<path fill="none" stroke="midnightblue" d="M53.7495,-169.108C53.474,-160.154 53.1715,-150.323 52.9331,-142.577"/>
<polygon fill="midnightblue" stroke="midnightblue" points="50.26,-169.508 54.066,-179.396 57.2567,-169.293 50.26,-169.508"/>
</g>
<!-- Node5 -->
<g id="node5" class="node"><title>Node5</title>
<g id="a_node5"><a xlink:href="options_8h.xhtml" target="_top" xlink:title="Public API convenience header for handling of options. ">
<polygon fill="white" stroke="black" points="123,-118 123,-137 236,-137 236,-118 123,-118"/>
<text text-anchor="middle" x="179.5" y="-125" font-family="Helvetica,sans-Serif" font-size="10.00">src/gromacs/options.h</text>
</a>
</g>
</g>
<!-- Node4&#45;&gt;Node5 -->
<g id="edge4" class="edge"><title>Node4&#45;&gt;Node5</title>
<path fill="none" stroke="midnightblue" d="M178.873,-169.25C179.046,-158.017 179.24,-145.377 179.366,-137.195"/>
<polygon fill="midnightblue" stroke="midnightblue" points="175.371,-169.343 178.717,-179.396 182.37,-169.451 175.371,-169.343"/>
</g>
<!-- Node6 -->
<g id="node6" class="node"><title>Node6</title>
<g id="a_node6"><a xlink:href="trajectoryanalysis_8h.xhtml" target="_top" xlink:title="Public API convenience header for trajectory analysis framework. ">
<polygon fill="white" stroke="black" points="100.5,-56.5 100.5,-75.5 258.5,-75.5 258.5,-56.5 100.5,-56.5"/>
<text text-anchor="middle" x="179.5" y="-63.5" font-family="Helvetica,sans-Serif" font-size="10.00">src/gromacs/trajectoryanalysis.h</text>
</a>
</g>
</g>
<!-- Node5&#45;&gt;Node6 -->
<g id="edge5" class="edge"><title>Node5&#45;&gt;Node6</title>
<path fill="none" stroke="midnightblue" d="M179.5,-107.817C179.5,-96.9962 179.5,-83.898 179.5,-75.5091"/>
<polygon fill="midnightblue" stroke="midnightblue" points="176,-107.975 179.5,-117.975 183,-107.975 176,-107.975"/>
</g>
<!-- Node7 -->
<g id="node7" class="node"><title>Node7</title>
<g id="a_node7"><a xlink:href="template_8cpp.xhtml" target="_top" xlink:title="Template code for writing analysis programs. ">
<polygon fill="white" stroke="black" points="109.5,-0.5 109.5,-19.5 249.5,-19.5 249.5,-0.5 109.5,-0.5"/>
<text text-anchor="middle" x="179.5" y="-7.5" font-family="Helvetica,sans-Serif" font-size="10.00">share/template/template.cpp</text>
</a>
</g>
</g>
<!-- Node6&#45;&gt;Node7 -->
<g id="edge6" class="edge"><title>Node6&#45;&gt;Node7</title>
<path fill="none" stroke="midnightblue" d="M179.5,-45.8045C179.5,-36.9102 179.5,-26.7798 179.5,-19.7511"/>
<polygon fill="midnightblue" stroke="midnightblue" points="176,-46.083 179.5,-56.083 183,-46.083 176,-46.083"/>
</g>
</g>
</svg>
