<?xml version="1.0" encoding="UTF-8" standalone="no"?>
<!DOCTYPE svg PUBLIC "-//W3C//DTD SVG 1.1//EN"
 "http://www.w3.org/Graphics/SVG/1.1/DTD/svg11.dtd">
<!-- Generated by graphviz version 2.38.0 (20140413.2041)
 -->
<!-- Title: src/gromacs/analysisdata/modules/plot.h Pages: 1 -->
<svg width="574pt" height="285pt"
 viewBox="0.00 0.00 573.55 285.00" xmlns="http://www.w3.org/2000/svg" xmlns:xlink="http://www.w3.org/1999/xlink">
<g id="graph0" class="graph" transform="scale(1 1) rotate(0) translate(4 281)">
<title>src/gromacs/analysisdata/modules/plot.h</title>
<polygon fill="white" stroke="none" points="-4,4 -4,-281 569.55,-281 569.55,4 -4,4"/>
<!-- Node1 -->
<g id="node1" class="node"><title>Node1</title>
<polygon fill="#bfbfbf" stroke="black" points="135.05,-246.5 135.05,-276.5 263.05,-276.5 263.05,-246.5 135.05,-246.5"/>
<text text-anchor="start" x="143.05" y="-264.5" font-family="Helvetica,sans-Serif" font-size="10.00">src/gromacs/analysisdata</text>
<text text-anchor="middle" x="199.05" y="-253.5" font-family="Helvetica,sans-Serif" font-size="10.00">/modules/plot.h</text>
</g>
<!-- Node2 -->
<g id="node2" class="node"><title>Node2</title>
<polygon fill="white" stroke="#bfbfbf" points="8.04991,-62 8.04991,-81 60.0499,-81 60.0499,-62 8.04991,-62"/>
<text text-anchor="middle" x="34.0499" y="-69" font-family="Helvetica,sans-Serif" font-size="10.00">memory</text>
</g>
<!-- Node1&#45;&gt;Node2 -->
<g id="edge1" class="edge"><title>Node1&#45;&gt;Node2</title>
<path fill="none" stroke="midnightblue" d="M145.373,-246.436C97.1117,-230.46 29.8235,-199.021 3.04991,-143 -5.72178,-124.646 6.88149,-103.208 18.5516,-88.8334"/>
<polygon fill="midnightblue" stroke="midnightblue" points="21.2169,-91.1023 25.1462,-81.263 15.9387,-86.5043 21.2169,-91.1023"/>
</g>
<!-- Node3 -->
<g id="node3" class="node"><title>Node3</title>
<polygon fill="white" stroke="#bfbfbf" points="303.55,-185 303.55,-204 344.55,-204 344.55,-185 303.55,-185"/>
<text text-anchor="middle" x="324.05" y="-192" font-family="Helvetica,sans-Serif" font-size="10.00">string</text>
</g>
<!-- Node1&#45;&gt;Node3 -->
<g id="edge2" class="edge"><title>Node1&#45;&gt;Node3</title>
<path fill="none" stroke="midnightblue" d="M226.173,-246.396C247.718,-235.193 277.624,-219.641 298.694,-208.685"/>
<polygon fill="midnightblue" stroke="midnightblue" points="300.433,-211.726 307.69,-204.007 297.203,-205.515 300.433,-211.726"/>
</g>
<!-- Node4 -->
<g id="node4" class="node"><title>Node4</title>
<g id="a_node4"><a xlink:href="datamodule_8h.xhtml" target="_top" xlink:title="Declares gmx::IAnalysisDataModule and related convenience classes. ">
<polygon fill="white" stroke="black" points="363.05,-179.5 363.05,-209.5 475.05,-209.5 475.05,-179.5 363.05,-179.5"/>
<text text-anchor="start" x="371.05" y="-197.5" font-family="Helvetica,sans-Serif" font-size="10.00">gromacs/analysisdata</text>
<text text-anchor="middle" x="419.05" y="-186.5" font-family="Helvetica,sans-Serif" font-size="10.00">/datamodule.h</text>
</a>
</g>
</g>
<!-- Node1&#45;&gt;Node4 -->
<g id="edge3" class="edge"><title>Node1&#45;&gt;Node4</title>
<path fill="none" stroke="midnightblue" d="M246.516,-246.476C280.23,-236.515 325.681,-223.086 361.47,-212.512"/>
<polygon fill="midnightblue" stroke="midnightblue" points="362.691,-215.801 371.29,-209.611 360.708,-209.088 362.691,-215.801"/>
</g>
<!-- Node5 -->
<g id="node5" class="node"><title>Node5</title>
<g id="a_node5"><a xlink:href="timeunitmanager_8h.xhtml" target="_top" xlink:title="Declares gmx::TimeUnitManager. ">
<polygon fill="white" stroke="black" points="113.05,-185 113.05,-204 285.05,-204 285.05,-185 113.05,-185"/>
<text text-anchor="middle" x="199.05" y="-192" font-family="Helvetica,sans-Serif" font-size="10.00">gromacs/options/timeunitmanager.h</text>
</a>
</g>
</g>
<!-- Node1&#45;&gt;Node5 -->
<g id="edge4" class="edge"><title>Node1&#45;&gt;Node5</title>
<path fill="none" stroke="midnightblue" d="M199.05,-246.396C199.05,-237.064 199.05,-224.714 199.05,-214.517"/>
<polygon fill="midnightblue" stroke="midnightblue" points="202.55,-214.195 199.05,-204.195 195.55,-214.195 202.55,-214.195"/>
</g>
<!-- Node7 -->
<g id="node7" class="node"><title>Node7</title>
<g id="a_node7"><a xlink:href="classhelpers_8h.xhtml" target="_top" xlink:title="Declares common utility classes and macros. ">
<polygon fill="white" stroke="black" points="12.0499,-123.5 12.0499,-142.5 158.05,-142.5 158.05,-123.5 12.0499,-123.5"/>
<text text-anchor="middle" x="85.0499" y="-130.5" font-family="Helvetica,sans-Serif" font-size="10.00">gromacs/utility/classhelpers.h</text>
</a>
</g>
</g>
<!-- Node1&#45;&gt;Node7 -->
<g id="edge13" class="edge"><title>Node1&#45;&gt;Node7</title>
<path fill="none" stroke="midnightblue" d="M155.408,-246.397C137.084,-238.416 117.051,-226.628 104.05,-210 91.2537,-193.634 86.9634,-169.74 85.5843,-153.129"/>
<polygon fill="midnightblue" stroke="midnightblue" points="89.0698,-152.767 85.0258,-142.975 82.0803,-153.152 89.0698,-152.767"/>
</g>
<!-- Node6 -->
<g id="node6" class="node"><title>Node6</title>
<g id="a_node6"><a xlink:href="ioptionsbehavior_8h.xhtml" target="_top" xlink:title="Declares gmx::IOptionsBehavior. ">
<polygon fill="white" stroke="black" points="176.05,-123.5 176.05,-142.5 346.05,-142.5 346.05,-123.5 176.05,-123.5"/>
<text text-anchor="middle" x="261.05" y="-130.5" font-family="Helvetica,sans-Serif" font-size="10.00">gromacs/options/ioptionsbehavior.h</text>
</a>
</g>
</g>
<!-- Node5&#45;&gt;Node6 -->
<g id="edge5" class="edge"><title>Node5&#45;&gt;Node6</title>
<path fill="none" stroke="midnightblue" d="M207.933,-184.975C217.509,-175.785 232.961,-160.956 244.736,-149.656"/>
<polygon fill="midnightblue" stroke="midnightblue" points="247.392,-151.958 252.183,-142.509 242.545,-146.908 247.392,-151.958"/>
</g>
<!-- Node5&#45;&gt;Node7 -->
<g id="edge6" class="edge"><title>Node5&#45;&gt;Node7</title>
<path fill="none" stroke="midnightblue" d="M182.716,-184.975C163.839,-175.122 132.543,-158.788 110.474,-147.27"/>
<polygon fill="midnightblue" stroke="midnightblue" points="111.838,-144.033 101.353,-142.509 108.599,-150.239 111.838,-144.033"/>
</g>
<!-- Node8 -->
<g id="node8" class="node"><title>Node8</title>
<g id="a_node8"><a xlink:href="gmxassert_8h.xhtml" target="_top" xlink:title="Defines assert macros customized for Gromacs. ">
<polygon fill="white" stroke="black" points="364.55,-123.5 364.55,-142.5 501.55,-142.5 501.55,-123.5 364.55,-123.5"/>
<text text-anchor="middle" x="433.05" y="-130.5" font-family="Helvetica,sans-Serif" font-size="10.00">gromacs/utility/gmxassert.h</text>
</a>
</g>
</g>
<!-- Node5&#45;&gt;Node8 -->
<g id="edge8" class="edge"><title>Node5&#45;&gt;Node8</title>
<path fill="none" stroke="midnightblue" d="M232.576,-184.975C273.932,-174.459 344.321,-156.562 389.734,-145.014"/>
<polygon fill="midnightblue" stroke="midnightblue" points="390.757,-148.366 399.586,-142.509 389.031,-141.581 390.757,-148.366"/>
</g>
<!-- Node7&#45;&gt;Node2 -->
<g id="edge7" class="edge"><title>Node7&#45;&gt;Node2</title>
<path fill="none" stroke="midnightblue" d="M77.7429,-123.475C70.0171,-114.462 57.6424,-100.025 48.0315,-88.8118"/>
<polygon fill="midnightblue" stroke="midnightblue" points="50.5088,-86.3239 41.3434,-81.0091 45.1939,-90.8795 50.5088,-86.3239"/>
</g>
<!-- Node9 -->
<g id="node9" class="node"><title>Node9</title>
<g id="a_node9"><a xlink:href="basedefinitions_8h.xhtml" target="_top" xlink:title="Basic types and macros used throughout GROMACS. ">
<polygon fill="white" stroke="black" points="277.55,-62 277.55,-81 434.55,-81 434.55,-62 277.55,-62"/>
<text text-anchor="middle" x="356.05" y="-69" font-family="Helvetica,sans-Serif" font-size="10.00">gromacs/utility/basedefinitions.h</text>
</a>
</g>
</g>
<!-- Node8&#45;&gt;Node9 -->
<g id="edge9" class="edge"><title>Node8&#45;&gt;Node9</title>
<path fill="none" stroke="midnightblue" d="M422.018,-123.475C409.781,-114.02 389.821,-98.5961 375.057,-87.1871"/>
<polygon fill="midnightblue" stroke="midnightblue" points="377.115,-84.3541 367.062,-81.0091 372.834,-89.8931 377.115,-84.3541"/>
</g>
<!-- Node12 -->
<g id="node12" class="node"><title>Node12</title>
<g id="a_node12"><a xlink:href="current__function_8h.xhtml" target="_top" xlink:title="Declares GMX_CURRENT_FUNCTION for getting the current function name. ">
<polygon fill="white" stroke="black" points="452.55,-56.5 452.55,-86.5 565.55,-86.5 565.55,-56.5 452.55,-56.5"/>
<text text-anchor="start" x="460.55" y="-74.5" font-family="Helvetica,sans-Serif" font-size="10.00">gromacs/utility/current</text>
<text text-anchor="middle" x="509.05" y="-63.5" font-family="Helvetica,sans-Serif" font-size="10.00">_function.h</text>
</a>
</g>
</g>
<!-- Node8&#45;&gt;Node12 -->
<g id="edge12" class="edge"><title>Node8&#45;&gt;Node12</title>
<path fill="none" stroke="midnightblue" d="M443.939,-123.475C454.136,-115.492 469.767,-103.254 483.158,-92.7703"/>
<polygon fill="midnightblue" stroke="midnightblue" points="485.422,-95.4434 491.138,-86.523 481.107,-89.9316 485.422,-95.4434"/>
</g>
<!-- Node10 -->
<g id="node10" class="node"><title>Node10</title>
<polygon fill="white" stroke="#bfbfbf" points="295.55,-0.5 295.55,-19.5 344.55,-19.5 344.55,-0.5 295.55,-0.5"/>
<text text-anchor="middle" x="320.05" y="-7.5" font-family="Helvetica,sans-Serif" font-size="10.00">stdint.h</text>
</g>
<!-- Node9&#45;&gt;Node10 -->
<g id="edge10" class="edge"><title>Node9&#45;&gt;Node10</title>
<path fill="none" stroke="midnightblue" d="M350.892,-61.9751C345.599,-53.2268 337.214,-39.3691 330.523,-28.3093"/>
<polygon fill="midnightblue" stroke="midnightblue" points="333.369,-26.2531 325.198,-19.5091 327.38,-29.8768 333.369,-26.2531"/>
</g>
<!-- Node11 -->
<g id="node11" class="node"><title>Node11</title>
<polygon fill="white" stroke="#bfbfbf" points="362.55,-0.5 362.55,-19.5 421.55,-19.5 421.55,-0.5 362.55,-0.5"/>
<text text-anchor="middle" x="392.05" y="-7.5" font-family="Helvetica,sans-Serif" font-size="10.00">inttypes.h</text>
</g>
<!-- Node9&#45;&gt;Node11 -->
<g id="edge11" class="edge"><title>Node9&#45;&gt;Node11</title>
<path fill="none" stroke="midnightblue" d="M361.208,-61.9751C366.501,-53.2268 374.885,-39.3691 381.577,-28.3093"/>
<polygon fill="midnightblue" stroke="midnightblue" points="384.719,-29.8768 386.902,-19.5091 378.73,-26.2531 384.719,-29.8768"/>
</g>
</g>
</svg>
