<?xml version="1.0" encoding="UTF-8" standalone="no"?>
<!DOCTYPE svg PUBLIC "-//W3C//DTD SVG 1.1//EN"
 "http://www.w3.org/Graphics/SVG/1.1/DTD/svg11.dtd">
<!-- Generated by graphviz version 2.38.0 (20140413.2041)
 -->
<!-- Title: src/gromacs/utility/real.h Pages: 1 -->
<svg width="1489pt" height="419pt"
 viewBox="0.00 0.00 1489.00 419.00" xmlns="http://www.w3.org/2000/svg" xmlns:xlink="http://www.w3.org/1999/xlink">
<g id="graph0" class="graph" transform="scale(1 1) rotate(0) translate(4 415)">
<title>src/gromacs/utility/real.h</title>
<polygon fill="white" stroke="none" points="-4,4 -4,-415 1485,-415 1485,4 -4,4"/>
<!-- Node1 -->
<g id="node1" class="node"><title>Node1</title>
<polygon fill="#bfbfbf" stroke="black" points="865.5,-380.5 865.5,-410.5 962.5,-410.5 962.5,-380.5 865.5,-380.5"/>
<text text-anchor="start" x="873.5" y="-398.5" font-family="Helvetica,sans-Serif" font-size="10.00">src/gromacs/utility</text>
<text text-anchor="middle" x="914" y="-387.5" font-family="Helvetica,sans-Serif" font-size="10.00">/real.h</text>
</g>
<!-- Node2 -->
<g id="node2" class="node"><title>Node2</title>
<g id="a_node2"><a xlink:href="analysisdata_2analysisdata_8h.xhtml" target="_top" xlink:title="Declares gmx::AnalysisData and gmx::AnalysisDataHandle. ">
<polygon fill="white" stroke="black" points="0,-179.5 0,-209.5 128,-209.5 128,-179.5 0,-179.5"/>
<text text-anchor="start" x="8" y="-197.5" font-family="Helvetica,sans-Serif" font-size="10.00">src/gromacs/analysisdata</text>
<text text-anchor="middle" x="64" y="-186.5" font-family="Helvetica,sans-Serif" font-size="10.00">/analysisdata.h</text>
</a>
</g>
</g>
<!-- Node1&#45;&gt;Node2 -->
<g id="edge1" class="edge"><title>Node1&#45;&gt;Node2</title>
<path fill="none" stroke="midnightblue" d="M855.112,-395.163C752.639,-394.993 535.586,-388.752 359,-344 285.855,-325.463 270.344,-311.038 203,-277 160.557,-255.548 113.188,-226.647 86.1511,-209.65"/>
<polygon fill="midnightblue" stroke="midnightblue" points="855.259,-398.663 865.258,-395.16 855.257,-391.663 855.259,-398.663"/>
</g>
<!-- Node6 -->
<g id="node6" class="node"><title>Node6</title>
<g id="a_node6"><a xlink:href="dataframe_8h.xhtml" target="_top" xlink:title="Declares classes for accessing data frame information. ">
<polygon fill="white" stroke="black" points="368,-313.5 368,-343.5 496,-343.5 496,-313.5 368,-313.5"/>
<text text-anchor="start" x="376" y="-331.5" font-family="Helvetica,sans-Serif" font-size="10.00">src/gromacs/analysisdata</text>
<text text-anchor="middle" x="432" y="-320.5" font-family="Helvetica,sans-Serif" font-size="10.00">/dataframe.h</text>
</a>
</g>
</g>
<!-- Node1&#45;&gt;Node6 -->
<g id="edge5" class="edge"><title>Node1&#45;&gt;Node6</title>
<path fill="none" stroke="midnightblue" d="M854.991,-386.542C764.02,-374.274 590.22,-350.837 496.204,-338.158"/>
<polygon fill="midnightblue" stroke="midnightblue" points="854.753,-390.042 865.131,-387.91 855.688,-383.105 854.753,-390.042"/>
</g>
<!-- Node11 -->
<g id="node11" class="node"><title>Node11</title>
<g id="a_node11"><a xlink:href="displacement_8h.xhtml" target="_top" xlink:title="Declares gmx::AnalysisDataDisplacementModule. ">
<polygon fill="white" stroke="black" points="552,-313.5 552,-343.5 680,-343.5 680,-313.5 552,-313.5"/>
<text text-anchor="start" x="560" y="-331.5" font-family="Helvetica,sans-Serif" font-size="10.00">src/gromacs/analysisdata</text>
<text text-anchor="middle" x="616" y="-320.5" font-family="Helvetica,sans-Serif" font-size="10.00">/modules/displacement.h</text>
</a>
</g>
</g>
<!-- Node1&#45;&gt;Node11 -->
<g id="edge15" class="edge"><title>Node1&#45;&gt;Node11</title>
<path fill="none" stroke="midnightblue" d="M855.671,-381.777C805.177,-370.763 732.268,-354.86 680.143,-343.491"/>
<polygon fill="midnightblue" stroke="midnightblue" points="854.942,-385.2 865.458,-383.912 856.434,-378.361 854.942,-385.2"/>
</g>
<!-- Node12 -->
<g id="node12" class="node"><title>Node12</title>
<g id="a_node12"><a xlink:href="functions_8h.xhtml" target="_top" xlink:title="Declares simple math functions. ">
<polygon fill="white" stroke="black" points="892,-319 892,-338 1038,-338 1038,-319 892,-319"/>
<text text-anchor="middle" x="965" y="-326" font-family="Helvetica,sans-Serif" font-size="10.00">src/gromacs/math/functions.h</text>
</a>
</g>
</g>
<!-- Node1&#45;&gt;Node12 -->
<g id="edge17" class="edge"><title>Node1&#45;&gt;Node12</title>
<path fill="none" stroke="midnightblue" d="M931.406,-372.316C940.6,-360.598 951.361,-346.883 958.178,-338.195"/>
<polygon fill="midnightblue" stroke="midnightblue" points="928.486,-370.368 925.066,-380.396 933.993,-374.689 928.486,-370.368"/>
</g>
<!-- Node15 -->
<g id="node15" class="node"><title>Node15</title>
<g id="a_node15"><a xlink:href="uniformrealdistribution_8h.xhtml" target="_top" xlink:title="The uniform real distribution. ">
<polygon fill="white" stroke="black" points="807.5,-246.5 807.5,-276.5 930.5,-276.5 930.5,-246.5 807.5,-246.5"/>
<text text-anchor="start" x="815.5" y="-264.5" font-family="Helvetica,sans-Serif" font-size="10.00">src/gromacs/random</text>
<text text-anchor="middle" x="869" y="-253.5" font-family="Helvetica,sans-Serif" font-size="10.00">/uniformrealdistribution.h</text>
</a>
</g>
</g>
<!-- Node1&#45;&gt;Node15 -->
<g id="edge33" class="edge"><title>Node1&#45;&gt;Node15</title>
<path fill="none" stroke="midnightblue" d="M897.516,-371.79C892.137,-363.414 886.623,-353.615 883,-344 874.496,-321.43 871.124,-293.384 869.811,-276.769"/>
<polygon fill="midnightblue" stroke="midnightblue" points="894.717,-373.901 903.203,-380.244 900.525,-369.993 894.717,-373.901"/>
</g>
<!-- Node20 -->
<g id="node20" class="node"><title>Node20</title>
<g id="a_node20"><a xlink:href="tabulatednormaldistribution_8h.xhtml" target="_top" xlink:title="Tabulated normal distribution. ">
<polygon fill="white" stroke="black" points="1168,-246.5 1168,-276.5 1312,-276.5 1312,-246.5 1168,-246.5"/>
<text text-anchor="start" x="1176" y="-264.5" font-family="Helvetica,sans-Serif" font-size="10.00">src/gromacs/random</text>
<text text-anchor="middle" x="1240" y="-253.5" font-family="Helvetica,sans-Serif" font-size="10.00">/tabulatednormaldistribution.h</text>
</a>
</g>
</g>
<!-- Node1&#45;&gt;Node20 -->
<g id="edge37" class="edge"><title>Node1&#45;&gt;Node20</title>
<path fill="none" stroke="midnightblue" d="M972.654,-394.708C1028.7,-392.378 1113.64,-382.04 1176,-344 1203.03,-327.511 1223.14,-295.173 1233.08,-276.572"/>
<polygon fill="midnightblue" stroke="midnightblue" points="972.411,-391.214 962.537,-395.054 972.651,-398.21 972.411,-391.214"/>
</g>
<!-- Node21 -->
<g id="node21" class="node"><title>Node21</title>
<g id="a_node21"><a xlink:href="state_8h.xhtml" target="_top" xlink:title="This file contains the definition of the microstate of the simulated system. ">
<polygon fill="white" stroke="black" points="1056.5,-313.5 1056.5,-343.5 1167.5,-343.5 1167.5,-313.5 1056.5,-313.5"/>
<text text-anchor="start" x="1064.5" y="-331.5" font-family="Helvetica,sans-Serif" font-size="10.00">src/gromacs/mdtypes</text>
<text text-anchor="middle" x="1112" y="-320.5" font-family="Helvetica,sans-Serif" font-size="10.00">/state.h</text>
</a>
</g>
</g>
<!-- Node1&#45;&gt;Node21 -->
<g id="edge32" class="edge"><title>Node1&#45;&gt;Node21</title>
<path fill="none" stroke="midnightblue" d="M966.614,-377.228C998.643,-366.713 1039.04,-353.451 1069.12,-343.577"/>
<polygon fill="midnightblue" stroke="midnightblue" points="965.372,-373.951 956.963,-380.396 967.556,-380.602 965.372,-373.951"/>
</g>
<!-- Node22 -->
<g id="node22" class="node"><title>Node22</title>
<g id="a_node22"><a xlink:href="pargs_8h.xhtml" target="_top" xlink:title="Declares t_pargs, parse_common_args() and related methods. ">
<polygon fill="white" stroke="black" points="1345.5,-313.5 1345.5,-343.5 1476.5,-343.5 1476.5,-313.5 1345.5,-313.5"/>
<text text-anchor="start" x="1353.5" y="-331.5" font-family="Helvetica,sans-Serif" font-size="10.00">src/gromacs/commandline</text>
<text text-anchor="middle" x="1411" y="-320.5" font-family="Helvetica,sans-Serif" font-size="10.00">/pargs.h</text>
</a>
</g>
</g>
<!-- Node1&#45;&gt;Node22 -->
<g id="edge34" class="edge"><title>Node1&#45;&gt;Node22</title>
<path fill="none" stroke="midnightblue" d="M972.655,-388.826C1054.33,-380.62 1206.84,-364.187 1336,-344 1339.01,-343.529 1342.09,-343.026 1345.2,-342.499"/>
<polygon fill="midnightblue" stroke="midnightblue" points="972.174,-385.357 962.572,-389.834 972.87,-392.322 972.174,-385.357"/>
</g>
<!-- Node24 -->
<g id="node24" class="node"><title>Node24</title>
<g id="a_node24"><a xlink:href="fft_8h.xhtml" target="_top" xlink:title="Fast Fourier Transforms. ">
<polygon fill="white" stroke="black" points="1224.5,-319 1224.5,-338 1327.5,-338 1327.5,-319 1224.5,-319"/>
<text text-anchor="middle" x="1276" y="-326" font-family="Helvetica,sans-Serif" font-size="10.00">src/gromacs/fft/fft.h</text>
</a>
</g>
</g>
<!-- Node1&#45;&gt;Node24 -->
<g id="edge36" class="edge"><title>Node1&#45;&gt;Node24</title>
<path fill="none" stroke="midnightblue" d="M972.595,-385.341C1032.42,-375.794 1127.89,-360.014 1210,-344 1219.33,-342.181 1229.36,-340.061 1238.72,-338.013"/>
<polygon fill="midnightblue" stroke="midnightblue" points="971.906,-381.907 962.58,-386.934 973.006,-388.82 971.906,-381.907"/>
</g>
<!-- Node25 -->
<g id="node25" class="node"><title>Node25</title>
<g id="a_node25"><a xlink:href="nbsearch_8h.xhtml" target="_top" xlink:title="API for neighborhood searching for analysis. ">
<polygon fill="white" stroke="black" points="509.5,-112.5 509.5,-142.5 622.5,-142.5 622.5,-112.5 509.5,-112.5"/>
<text text-anchor="start" x="517.5" y="-130.5" font-family="Helvetica,sans-Serif" font-size="10.00">src/gromacs/selection</text>
<text text-anchor="middle" x="566" y="-119.5" font-family="Helvetica,sans-Serif" font-size="10.00">/nbsearch.h</text>
</a>
</g>
</g>
<!-- Node1&#45;&gt;Node25 -->
<g id="edge38" class="edge"><title>Node1&#45;&gt;Node25</title>
<path fill="none" stroke="midnightblue" d="M894.004,-373.021C854.569,-331.545 762.705,-239.217 672,-179 649.922,-164.343 622.933,-151.55 601.713,-142.506"/>
<polygon fill="midnightblue" stroke="midnightblue" points="891.549,-375.519 900.961,-380.385 896.637,-370.712 891.549,-375.519"/>
</g>
<!-- Node3 -->
<g id="node3" class="node"><title>Node3</title>
<g id="a_node3"><a xlink:href="analysisdata_8h.xhtml" target="_top" xlink:title="Public API convenience header for analysis data handling. ">
<polygon fill="white" stroke="black" points="335.5,-118 335.5,-137 472.5,-137 472.5,-118 335.5,-118"/>
<text text-anchor="middle" x="404" y="-125" font-family="Helvetica,sans-Serif" font-size="10.00">src/gromacs/analysisdata.h</text>
</a>
</g>
</g>
<!-- Node2&#45;&gt;Node3 -->
<g id="edge2" class="edge"><title>Node2&#45;&gt;Node3</title>
<path fill="none" stroke="midnightblue" d="M138.504,-179.257C206.019,-166.349 303.279,-147.756 359.418,-137.023"/>
<polygon fill="midnightblue" stroke="midnightblue" points="137.516,-175.882 128.351,-181.198 138.83,-182.757 137.516,-175.882"/>
</g>
<!-- Node4 -->
<g id="node4" class="node"><title>Node4</title>
<g id="a_node4"><a xlink:href="trajectoryanalysis_8h.xhtml" target="_top" xlink:title="Public API convenience header for trajectory analysis framework. ">
<polygon fill="white" stroke="black" points="406,-56.5 406,-75.5 564,-75.5 564,-56.5 406,-56.5"/>
<text text-anchor="middle" x="485" y="-63.5" font-family="Helvetica,sans-Serif" font-size="10.00">src/gromacs/trajectoryanalysis.h</text>
</a>
</g>
</g>
<!-- Node3&#45;&gt;Node4 -->
<g id="edge3" class="edge"><title>Node3&#45;&gt;Node4</title>
<path fill="none" stroke="midnightblue" d="M424.02,-111.794C439.558,-100.38 460.553,-84.9577 473.416,-75.5091"/>
<polygon fill="midnightblue" stroke="midnightblue" points="421.593,-109.234 415.605,-117.975 425.737,-114.876 421.593,-109.234"/>
</g>
<!-- Node5 -->
<g id="node5" class="node"><title>Node5</title>
<g id="a_node5"><a xlink:href="template_8cpp.xhtml" target="_top" xlink:title="Template code for writing analysis programs. ">
<polygon fill="white" stroke="black" points="415,-0.5 415,-19.5 555,-19.5 555,-0.5 415,-0.5"/>
<text text-anchor="middle" x="485" y="-7.5" font-family="Helvetica,sans-Serif" font-size="10.00">share/template/template.cpp</text>
</a>
</g>
</g>
<!-- Node4&#45;&gt;Node5 -->
<g id="edge4" class="edge"><title>Node4&#45;&gt;Node5</title>
<path fill="none" stroke="midnightblue" d="M485,-45.8045C485,-36.9102 485,-26.7798 485,-19.7511"/>
<polygon fill="midnightblue" stroke="midnightblue" points="481.5,-46.083 485,-56.083 488.5,-46.083 481.5,-46.083"/>
</g>
<!-- Node6&#45;&gt;Node3 -->
<g id="edge14" class="edge"><title>Node6&#45;&gt;Node3</title>
<path fill="none" stroke="midnightblue" d="M357.79,-315.83C297.097,-301.951 214.999,-272.268 175,-210 135.486,-148.487 254.337,-132.906 335.301,-129.26"/>
<polygon fill="midnightblue" stroke="midnightblue" points="357.199,-319.284 367.716,-318.004 358.697,-312.446 357.199,-319.284"/>
</g>
<!-- Node7 -->
<g id="node7" class="node"><title>Node7</title>
<g id="a_node7"><a xlink:href="arraydata_8h.xhtml" target="_top" xlink:title="Declares gmx::AbstractAnalysisArrayData and gmx::AnalysisArrayData. ">
<polygon fill="white" stroke="black" points="368,-246.5 368,-276.5 496,-276.5 496,-246.5 368,-246.5"/>
<text text-anchor="start" x="376" y="-264.5" font-family="Helvetica,sans-Serif" font-size="10.00">src/gromacs/analysisdata</text>
<text text-anchor="middle" x="432" y="-253.5" font-family="Helvetica,sans-Serif" font-size="10.00">/arraydata.h</text>
</a>
</g>
</g>
<!-- Node6&#45;&gt;Node7 -->
<g id="edge6" class="edge"><title>Node6&#45;&gt;Node7</title>
<path fill="none" stroke="midnightblue" d="M432,-303.108C432,-294.154 432,-284.323 432,-276.577"/>
<polygon fill="midnightblue" stroke="midnightblue" points="428.5,-303.396 432,-313.396 435.5,-303.396 428.5,-303.396"/>
</g>
<!-- Node7&#45;&gt;Node3 -->
<g id="edge13" class="edge"><title>Node7&#45;&gt;Node3</title>
<path fill="none" stroke="midnightblue" d="M451.992,-238.506C464.481,-221.976 476.534,-198.86 467,-179 457.719,-159.665 437.028,-145.403 421.881,-137.057"/>
<polygon fill="midnightblue" stroke="midnightblue" points="449.096,-236.52 445.533,-246.497 454.541,-240.92 449.096,-236.52"/>
</g>
<!-- Node8 -->
<g id="node8" class="node"><title>Node8</title>
<g id="a_node8"><a xlink:href="average_8h.xhtml" target="_top" xlink:title="Declares gmx::AnalysisDataAverageModule. ">
<polygon fill="white" stroke="black" points="514,-179.5 514,-209.5 642,-209.5 642,-179.5 514,-179.5"/>
<text text-anchor="start" x="522" y="-197.5" font-family="Helvetica,sans-Serif" font-size="10.00">src/gromacs/analysisdata</text>
<text text-anchor="middle" x="578" y="-186.5" font-family="Helvetica,sans-Serif" font-size="10.00">/modules/average.h</text>
</a>
</g>
</g>
<!-- Node7&#45;&gt;Node8 -->
<g id="edge7" class="edge"><title>Node7&#45;&gt;Node8</title>
<path fill="none" stroke="midnightblue" d="M472.95,-242.269C496.204,-231.916 524.872,-219.153 546.382,-209.577"/>
<polygon fill="midnightblue" stroke="midnightblue" points="471.392,-239.131 463.68,-246.396 474.239,-245.526 471.392,-239.131"/>
</g>
<!-- Node9 -->
<g id="node9" class="node"><title>Node9</title>
<g id="a_node9"><a xlink:href="histogram_8h.xhtml" target="_top" xlink:title="Declares analysis data modules for calculating histograms. ">
<polygon fill="white" stroke="black" points="184,-179.5 184,-209.5 312,-209.5 312,-179.5 184,-179.5"/>
<text text-anchor="start" x="192" y="-197.5" font-family="Helvetica,sans-Serif" font-size="10.00">src/gromacs/analysisdata</text>
<text text-anchor="middle" x="248" y="-186.5" font-family="Helvetica,sans-Serif" font-size="10.00">/modules/histogram.h</text>
</a>
</g>
</g>
<!-- Node7&#45;&gt;Node9 -->
<g id="edge9" class="edge"><title>Node7&#45;&gt;Node9</title>
<path fill="none" stroke="midnightblue" d="M382.335,-242.955C352.695,-232.485 315.558,-219.366 287.847,-209.577"/>
<polygon fill="midnightblue" stroke="midnightblue" points="381.48,-246.365 392.075,-246.396 383.812,-239.765 381.48,-246.365"/>
</g>
<!-- Node10 -->
<g id="node10" class="node"><title>Node10</title>
<g id="a_node10"><a xlink:href="lifetime_8h.xhtml" target="_top" xlink:title="Declares gmx::AnalysisDataLifetimeModule. ">
<polygon fill="white" stroke="black" points="330,-179.5 330,-209.5 458,-209.5 458,-179.5 330,-179.5"/>
<text text-anchor="start" x="338" y="-197.5" font-family="Helvetica,sans-Serif" font-size="10.00">src/gromacs/analysisdata</text>
<text text-anchor="middle" x="394" y="-186.5" font-family="Helvetica,sans-Serif" font-size="10.00">/modules/lifetime.h</text>
</a>
</g>
</g>
<!-- Node7&#45;&gt;Node10 -->
<g id="edge11" class="edge"><title>Node7&#45;&gt;Node10</title>
<path fill="none" stroke="midnightblue" d="M418.598,-237.576C413.141,-228.241 407.007,-217.748 402.229,-209.577"/>
<polygon fill="midnightblue" stroke="midnightblue" points="415.686,-239.529 423.755,-246.396 421.729,-235.997 415.686,-239.529"/>
</g>
<!-- Node8&#45;&gt;Node3 -->
<g id="edge8" class="edge"><title>Node8&#45;&gt;Node3</title>
<path fill="none" stroke="midnightblue" d="M530.575,-175.784C496.837,-163.181 453.01,-146.808 426.773,-137.007"/>
<polygon fill="midnightblue" stroke="midnightblue" points="529.652,-179.175 540.245,-179.396 532.102,-172.618 529.652,-179.175"/>
</g>
<!-- Node9&#45;&gt;Node3 -->
<g id="edge10" class="edge"><title>Node9&#45;&gt;Node3</title>
<path fill="none" stroke="midnightblue" d="M291.3,-175.458C321.44,-162.9 360.262,-146.724 383.583,-137.007"/>
<polygon fill="midnightblue" stroke="midnightblue" points="289.734,-172.319 281.85,-179.396 292.427,-178.781 289.734,-172.319"/>
</g>
<!-- Node10&#45;&gt;Node3 -->
<g id="edge12" class="edge"><title>Node10&#45;&gt;Node3</title>
<path fill="none" stroke="midnightblue" d="M397.731,-169.25C399.459,-158.017 401.404,-145.377 402.662,-137.195"/>
<polygon fill="midnightblue" stroke="midnightblue" points="394.231,-168.98 396.17,-179.396 401.15,-170.044 394.231,-168.98"/>
</g>
<!-- Node11&#45;&gt;Node3 -->
<g id="edge16" class="edge"><title>Node11&#45;&gt;Node3</title>
<path fill="none" stroke="midnightblue" d="M631.938,-304.924C652.121,-273.304 680.879,-215.606 651,-179 644.747,-171.339 524.191,-149.321 453.858,-137.039"/>
<polygon fill="midnightblue" stroke="midnightblue" points="628.876,-303.209 626.276,-313.48 634.714,-307.071 628.876,-303.209"/>
</g>
<!-- Node13 -->
<g id="node13" class="node"><title>Node13</title>
<g id="a_node13"><a xlink:href="threefry_8h.xhtml" target="_top" xlink:title="Implementation of the 2x64 ThreeFry random engine. ">
<polygon fill="white" stroke="black" points="975,-112.5 975,-142.5 1081,-142.5 1081,-112.5 975,-112.5"/>
<text text-anchor="start" x="983" y="-130.5" font-family="Helvetica,sans-Serif" font-size="10.00">src/gromacs/random</text>
<text text-anchor="middle" x="1028" y="-119.5" font-family="Helvetica,sans-Serif" font-size="10.00">/threefry.h</text>
</a>
</g>
</g>
<!-- Node12&#45;&gt;Node13 -->
<g id="edge18" class="edge"><title>Node12&#45;&gt;Node13</title>
<path fill="none" stroke="midnightblue" d="M970.742,-309.363C983.181,-270.071 1012.4,-177.791 1023.56,-142.533"/>
<polygon fill="midnightblue" stroke="midnightblue" points="967.389,-308.359 967.707,-318.949 974.062,-310.472 967.389,-308.359"/>
</g>
<!-- Node12&#45;&gt;Node15 -->
<g id="edge20" class="edge"><title>Node12&#45;&gt;Node15</title>
<path fill="none" stroke="midnightblue" d="M943.362,-312.849C927.338,-302 905.632,-287.303 889.808,-276.589"/>
<polygon fill="midnightblue" stroke="midnightblue" points="941.81,-316.025 952.053,-318.734 945.735,-310.229 941.81,-316.025"/>
</g>
<!-- Node19 -->
<g id="node19" class="node"><title>Node19</title>
<g id="a_node19"><a xlink:href="uniformintdistribution_8h.xhtml" target="_top" xlink:title="The uniform integer distribution. ">
<polygon fill="white" stroke="black" points="1032,-246.5 1032,-276.5 1150,-276.5 1150,-246.5 1032,-246.5"/>
<text text-anchor="start" x="1040" y="-264.5" font-family="Helvetica,sans-Serif" font-size="10.00">src/gromacs/random</text>
<text text-anchor="middle" x="1091" y="-253.5" font-family="Helvetica,sans-Serif" font-size="10.00">/uniformintdistribution.h</text>
</a>
</g>
</g>
<!-- Node12&#45;&gt;Node19 -->
<g id="edge29" class="edge"><title>Node12&#45;&gt;Node19</title>
<path fill="none" stroke="midnightblue" d="M990.792,-314.194C1011.99,-303.261 1041.94,-287.81 1063.57,-276.652"/>
<polygon fill="midnightblue" stroke="midnightblue" points="989.014,-311.173 981.732,-318.869 992.224,-317.394 989.014,-311.173"/>
</g>
<!-- Node12&#45;&gt;Node20 -->
<g id="edge31" class="edge"><title>Node12&#45;&gt;Node20</title>
<path fill="none" stroke="midnightblue" d="M1011.05,-316.616C1057.58,-305.617 1129.68,-288.575 1180.52,-276.559"/>
<polygon fill="midnightblue" stroke="midnightblue" points="1010.16,-313.229 1001.23,-318.936 1011.77,-320.041 1010.16,-313.229"/>
</g>
<!-- Node14 -->
<g id="node14" class="node"><title>Node14</title>
<g id="a_node14"><a xlink:href="random_8h.xhtml" target="_top" xlink:title="Public API convenience header for random engines and distributions. ">
<polygon fill="white" stroke="black" points="806,-56.5 806,-75.5 920,-75.5 920,-56.5 806,-56.5"/>
<text text-anchor="middle" x="863" y="-63.5" font-family="Helvetica,sans-Serif" font-size="10.00">src/gromacs/random.h</text>
</a>
</g>
</g>
<!-- Node13&#45;&gt;Node14 -->
<g id="edge19" class="edge"><title>Node13&#45;&gt;Node14</title>
<path fill="none" stroke="midnightblue" d="M979.314,-108.944C948.914,-97.9812 911.107,-84.3476 887.009,-75.6578"/>
<polygon fill="midnightblue" stroke="midnightblue" points="978.303,-112.299 988.897,-112.399 980.678,-105.715 978.303,-112.299"/>
</g>
<!-- Node15&#45;&gt;Node14 -->
<g id="edge28" class="edge"><title>Node15&#45;&gt;Node14</title>
<path fill="none" stroke="midnightblue" d="M831.495,-240.831C820.225,-232.883 809.212,-222.576 803,-210 778.436,-160.275 832.256,-97.9804 854.216,-75.5436"/>
<polygon fill="midnightblue" stroke="midnightblue" points="829.804,-243.907 840.089,-246.448 833.633,-238.047 829.804,-243.907"/>
</g>
<!-- Node16 -->
<g id="node16" class="node"><title>Node16</title>
<g id="a_node16"><a xlink:href="exponentialdistribution_8h.xhtml" target="_top" xlink:title="The exponential distribution. ">
<polygon fill="white" stroke="black" points="812.5,-179.5 812.5,-209.5 937.5,-209.5 937.5,-179.5 812.5,-179.5"/>
<text text-anchor="start" x="820.5" y="-197.5" font-family="Helvetica,sans-Serif" font-size="10.00">src/gromacs/random</text>
<text text-anchor="middle" x="875" y="-186.5" font-family="Helvetica,sans-Serif" font-size="10.00">/exponentialdistribution.h</text>
</a>
</g>
</g>
<!-- Node15&#45;&gt;Node16 -->
<g id="edge21" class="edge"><title>Node15&#45;&gt;Node16</title>
<path fill="none" stroke="midnightblue" d="M871.224,-236.403C872.058,-227.37 872.978,-217.408 873.701,-209.577"/>
<polygon fill="midnightblue" stroke="midnightblue" points="867.736,-236.117 870.302,-246.396 874.706,-236.76 867.736,-236.117"/>
</g>
<!-- Node17 -->
<g id="node17" class="node"><title>Node17</title>
<g id="a_node17"><a xlink:href="gammadistribution_8h.xhtml" target="_top" xlink:title="The gamma distribution. ">
<polygon fill="white" stroke="black" points="850.5,-112.5 850.5,-142.5 957.5,-142.5 957.5,-112.5 850.5,-112.5"/>
<text text-anchor="start" x="858.5" y="-130.5" font-family="Helvetica,sans-Serif" font-size="10.00">src/gromacs/random</text>
<text text-anchor="middle" x="904" y="-119.5" font-family="Helvetica,sans-Serif" font-size="10.00">/gammadistribution.h</text>
</a>
</g>
</g>
<!-- Node15&#45;&gt;Node17 -->
<g id="edge25" class="edge"><title>Node15&#45;&gt;Node17</title>
<path fill="none" stroke="midnightblue" d="M913.799,-241.373C926.516,-233.598 938.84,-223.258 946,-210 958.631,-186.61 936.909,-159.054 920.279,-142.721"/>
<polygon fill="midnightblue" stroke="midnightblue" points="911.976,-238.383 904.992,-246.35 915.42,-244.477 911.976,-238.383"/>
</g>
<!-- Node18 -->
<g id="node18" class="node"><title>Node18</title>
<g id="a_node18"><a xlink:href="normaldistribution_8h.xhtml" target="_top" xlink:title="The normal distribution. ">
<polygon fill="white" stroke="black" points="650,-112.5 650,-142.5 756,-142.5 756,-112.5 650,-112.5"/>
<text text-anchor="start" x="658" y="-130.5" font-family="Helvetica,sans-Serif" font-size="10.00">src/gromacs/random</text>
<text text-anchor="middle" x="703" y="-119.5" font-family="Helvetica,sans-Serif" font-size="10.00">/normaldistribution.h</text>
</a>
</g>
</g>
<!-- Node15&#45;&gt;Node18 -->
<g id="edge26" class="edge"><title>Node15&#45;&gt;Node18</title>
<path fill="none" stroke="midnightblue" d="M823.436,-242.078C805.768,-233.741 785.986,-222.854 770,-210 745.448,-190.258 723.643,-160.254 711.977,-142.689"/>
<polygon fill="midnightblue" stroke="midnightblue" points="822.447,-245.474 832.997,-246.444 825.354,-239.106 822.447,-245.474"/>
</g>
<!-- Node16&#45;&gt;Node14 -->
<g id="edge24" class="edge"><title>Node16&#45;&gt;Node14</title>
<path fill="none" stroke="midnightblue" d="M855.85,-171.221C849.885,-162.917 844.069,-153.053 841,-143 836.977,-129.823 837.894,-125.423 841,-112 844.136,-98.4442 851.946,-84.255 857.362,-75.5194"/>
<polygon fill="midnightblue" stroke="midnightblue" points="853.148,-173.449 862.012,-179.253 858.702,-169.189 853.148,-173.449"/>
</g>
<!-- Node16&#45;&gt;Node17 -->
<g id="edge22" class="edge"><title>Node16&#45;&gt;Node17</title>
<path fill="none" stroke="midnightblue" d="M885.489,-169.991C889.587,-160.804 894.15,-150.578 897.72,-142.577"/>
<polygon fill="midnightblue" stroke="midnightblue" points="882.171,-168.838 881.293,-179.396 888.563,-171.69 882.171,-168.838"/>
</g>
<!-- Node17&#45;&gt;Node14 -->
<g id="edge23" class="edge"><title>Node17&#45;&gt;Node14</title>
<path fill="none" stroke="midnightblue" d="M888.568,-104.104C881.734,-94.1868 874.098,-83.1062 868.966,-75.6578"/>
<polygon fill="midnightblue" stroke="midnightblue" points="885.727,-106.151 894.284,-112.399 891.491,-102.179 885.727,-106.151"/>
</g>
<!-- Node18&#45;&gt;Node14 -->
<g id="edge27" class="edge"><title>Node18&#45;&gt;Node14</title>
<path fill="none" stroke="midnightblue" d="M750.594,-108.801C780.006,-97.8633 816.452,-84.31 839.719,-75.6578"/>
<polygon fill="midnightblue" stroke="midnightblue" points="749.071,-105.633 740.918,-112.399 751.511,-112.194 749.071,-105.633"/>
</g>
<!-- Node19&#45;&gt;Node14 -->
<g id="edge30" class="edge"><title>Node19&#45;&gt;Node14</title>
<path fill="none" stroke="midnightblue" d="M1099.22,-236.354C1108.53,-204.106 1118.93,-146.988 1090,-112 1068.81,-86.3784 980.148,-75.0773 920.106,-70.2891"/>
<polygon fill="midnightblue" stroke="midnightblue" points="1095.77,-235.682 1096.17,-246.269 1102.46,-237.745 1095.77,-235.682"/>
</g>
<!-- Node23 -->
<g id="node23" class="node"><title>Node23</title>
<g id="a_node23"><a xlink:href="commandline_8h.xhtml" target="_top" xlink:title="Public API convenience header for managing command line programs. ">
<polygon fill="white" stroke="black" points="1341,-252 1341,-271 1481,-271 1481,-252 1341,-252"/>
<text text-anchor="middle" x="1411" y="-259" font-family="Helvetica,sans-Serif" font-size="10.00">src/gromacs/commandline.h</text>
</a>
</g>
</g>
<!-- Node22&#45;&gt;Node23 -->
<g id="edge35" class="edge"><title>Node22&#45;&gt;Node23</title>
<path fill="none" stroke="midnightblue" d="M1411,-303.25C1411,-292.017 1411,-279.377 1411,-271.195"/>
<polygon fill="midnightblue" stroke="midnightblue" points="1407.5,-303.396 1411,-313.396 1414.5,-303.396 1407.5,-303.396"/>
</g>
<!-- Node25&#45;&gt;Node4 -->
<g id="edge39" class="edge"><title>Node25&#45;&gt;Node4</title>
<path fill="none" stroke="midnightblue" d="M538.349,-106.189C524.168,-95.7719 507.643,-83.6329 496.786,-75.6578"/>
<polygon fill="midnightblue" stroke="midnightblue" points="536.673,-109.3 546.804,-112.399 540.817,-103.658 536.673,-109.3"/>
</g>
</g>
</svg>
