<?xml version="1.0" encoding="UTF-8" standalone="no"?>
<!DOCTYPE svg PUBLIC "-//W3C//DTD SVG 1.1//EN"
 "http://www.w3.org/Graphics/SVG/1.1/DTD/svg11.dtd">
<!-- Generated by graphviz version 2.38.0 (20140413.2041)
 -->
<!-- Title: src/gromacs/options/valuestore.h Pages: 1 -->
<svg width="631pt" height="274pt"
 viewBox="0.00 0.00 630.50 274.00" xmlns="http://www.w3.org/2000/svg" xmlns:xlink="http://www.w3.org/1999/xlink">
<g id="graph0" class="graph" transform="scale(1 1) rotate(0) translate(4 270)">
<title>src/gromacs/options/valuestore.h</title>
<polygon fill="white" stroke="none" points="-4,4 -4,-270 626.5,-270 626.5,4 -4,4"/>
<!-- Node1 -->
<g id="node1" class="node"><title>Node1</title>
<polygon fill="#bfbfbf" stroke="black" points="54.5,-235.5 54.5,-265.5 159.5,-265.5 159.5,-235.5 54.5,-235.5"/>
<text text-anchor="start" x="62.5" y="-253.5" font-family="Helvetica,sans-Serif" font-size="10.00">src/gromacs/options</text>
<text text-anchor="middle" x="107" y="-242.5" font-family="Helvetica,sans-Serif" font-size="10.00">/valuestore.h</text>
</g>
<!-- Node2 -->
<g id="node2" class="node"><title>Node2</title>
<polygon fill="white" stroke="#bfbfbf" points="0,-123.5 0,-142.5 44,-142.5 44,-123.5 0,-123.5"/>
<text text-anchor="middle" x="22" y="-130.5" font-family="Helvetica,sans-Serif" font-size="10.00">vector</text>
</g>
<!-- Node1&#45;&gt;Node2 -->
<g id="edge1" class="edge"><title>Node1&#45;&gt;Node2</title>
<path fill="none" stroke="midnightblue" d="M67.6525,-235.46C51.1967,-227.447 33.6789,-215.615 24,-199 15.9196,-185.129 16.1982,-166.614 18.0431,-152.894"/>
<polygon fill="midnightblue" stroke="midnightblue" points="21.5501,-153.154 19.8121,-142.703 14.6533,-151.957 21.5501,-153.154"/>
</g>
<!-- Node3 -->
<g id="node3" class="node"><title>Node3</title>
<g id="a_node3"><a xlink:href="ivaluestore_8h.xhtml" target="_top" xlink:title="Declares gmx::IOptionValueStore. ">
<polygon fill="white" stroke="black" points="33.5,-179.5 33.5,-198.5 180.5,-198.5 180.5,-179.5 33.5,-179.5"/>
<text text-anchor="middle" x="107" y="-186.5" font-family="Helvetica,sans-Serif" font-size="10.00">gromacs/options/ivaluestore.h</text>
</a>
</g>
</g>
<!-- Node1&#45;&gt;Node3 -->
<g id="edge2" class="edge"><title>Node1&#45;&gt;Node3</title>
<path fill="none" stroke="midnightblue" d="M107,-235.399C107,-227.466 107,-217.458 107,-208.858"/>
<polygon fill="midnightblue" stroke="midnightblue" points="110.5,-208.658 107,-198.658 103.5,-208.658 110.5,-208.658"/>
</g>
<!-- Node4 -->
<g id="node4" class="node"><title>Node4</title>
<g id="a_node4"><a xlink:href="arrayref_8h.xhtml" target="_top" xlink:title="Declares gmx::ArrayRef. ">
<polygon fill="white" stroke="black" points="198.5,-179.5 198.5,-198.5 323.5,-198.5 323.5,-179.5 198.5,-179.5"/>
<text text-anchor="middle" x="261" y="-186.5" font-family="Helvetica,sans-Serif" font-size="10.00">gromacs/utility/arrayref.h</text>
</a>
</g>
</g>
<!-- Node1&#45;&gt;Node4 -->
<g id="edge3" class="edge"><title>Node1&#45;&gt;Node4</title>
<path fill="none" stroke="midnightblue" d="M143.496,-235.399C169.565,-225.327 204.294,-211.909 229.224,-202.277"/>
<polygon fill="midnightblue" stroke="midnightblue" points="230.525,-205.527 238.592,-198.658 228.002,-198.997 230.525,-205.527"/>
</g>
<!-- Node4&#45;&gt;Node2 -->
<g id="edge9" class="edge"><title>Node4&#45;&gt;Node2</title>
<path fill="none" stroke="midnightblue" d="M223.13,-179.444C176.459,-168.899 97.9692,-151.165 54.1144,-141.256"/>
<polygon fill="midnightblue" stroke="midnightblue" points="54.7946,-137.822 44.2691,-139.032 53.2518,-144.649 54.7946,-137.822"/>
</g>
<!-- Node5 -->
<g id="node5" class="node"><title>Node5</title>
<polygon fill="white" stroke="#bfbfbf" points="96.5,-123.5 96.5,-142.5 145.5,-142.5 145.5,-123.5 96.5,-123.5"/>
<text text-anchor="middle" x="121" y="-130.5" font-family="Helvetica,sans-Serif" font-size="10.00">cstddef</text>
</g>
<!-- Node4&#45;&gt;Node5 -->
<g id="edge4" class="edge"><title>Node4&#45;&gt;Node5</title>
<path fill="none" stroke="midnightblue" d="M238.817,-179.444C215.572,-170.478 178.851,-156.314 152.585,-146.183"/>
<polygon fill="midnightblue" stroke="midnightblue" points="153.669,-142.85 143.08,-142.516 151.15,-149.381 153.669,-142.85"/>
</g>
<!-- Node6 -->
<g id="node6" class="node"><title>Node6</title>
<polygon fill="white" stroke="#bfbfbf" points="164,-123.5 164,-142.5 202,-142.5 202,-123.5 164,-123.5"/>
<text text-anchor="middle" x="183" y="-130.5" font-family="Helvetica,sans-Serif" font-size="10.00">array</text>
</g>
<!-- Node4&#45;&gt;Node6 -->
<g id="edge5" class="edge"><title>Node4&#45;&gt;Node6</title>
<path fill="none" stroke="midnightblue" d="M248.468,-179.324C236.414,-170.979 217.973,-158.212 203.731,-148.352"/>
<polygon fill="midnightblue" stroke="midnightblue" points="205.715,-145.469 195.501,-142.655 201.731,-151.224 205.715,-145.469"/>
</g>
<!-- Node7 -->
<g id="node7" class="node"><title>Node7</title>
<polygon fill="white" stroke="#bfbfbf" points="220.5,-123.5 220.5,-142.5 267.5,-142.5 267.5,-123.5 220.5,-123.5"/>
<text text-anchor="middle" x="244" y="-130.5" font-family="Helvetica,sans-Serif" font-size="10.00">iterator</text>
</g>
<!-- Node4&#45;&gt;Node7 -->
<g id="edge6" class="edge"><title>Node4&#45;&gt;Node7</title>
<path fill="none" stroke="midnightblue" d="M258.193,-179.083C255.915,-171.849 252.629,-161.409 249.792,-152.397"/>
<polygon fill="midnightblue" stroke="midnightblue" points="253.096,-151.239 246.755,-142.751 246.419,-153.341 253.096,-151.239"/>
</g>
<!-- Node8 -->
<g id="node8" class="node"><title>Node8</title>
<polygon fill="white" stroke="#bfbfbf" points="285.5,-123.5 285.5,-142.5 344.5,-142.5 344.5,-123.5 285.5,-123.5"/>
<text text-anchor="middle" x="315" y="-130.5" font-family="Helvetica,sans-Serif" font-size="10.00">stdexcept</text>
</g>
<!-- Node4&#45;&gt;Node8 -->
<g id="edge7" class="edge"><title>Node4&#45;&gt;Node8</title>
<path fill="none" stroke="midnightblue" d="M269.917,-179.083C277.78,-171.22 289.431,-159.569 298.919,-150.081"/>
<polygon fill="midnightblue" stroke="midnightblue" points="301.653,-152.297 306.249,-142.751 296.703,-147.347 301.653,-152.297"/>
</g>
<!-- Node9 -->
<g id="node9" class="node"><title>Node9</title>
<polygon fill="white" stroke="#bfbfbf" points="363,-123.5 363,-142.5 403,-142.5 403,-123.5 363,-123.5"/>
<text text-anchor="middle" x="383" y="-130.5" font-family="Helvetica,sans-Serif" font-size="10.00">utility</text>
</g>
<!-- Node4&#45;&gt;Node9 -->
<g id="edge8" class="edge"><title>Node4&#45;&gt;Node9</title>
<path fill="none" stroke="midnightblue" d="M280.331,-179.444C300.32,-170.596 331.743,-156.687 354.564,-146.586"/>
<polygon fill="midnightblue" stroke="midnightblue" points="356.032,-149.764 363.759,-142.516 353.198,-143.363 356.032,-149.764"/>
</g>
<!-- Node10 -->
<g id="node10" class="node"><title>Node10</title>
<g id="a_node10"><a xlink:href="gmxassert_8h.xhtml" target="_top" xlink:title="Defines assert macros customized for Gromacs. ">
<polygon fill="white" stroke="black" points="421.5,-123.5 421.5,-142.5 558.5,-142.5 558.5,-123.5 421.5,-123.5"/>
<text text-anchor="middle" x="490" y="-130.5" font-family="Helvetica,sans-Serif" font-size="10.00">gromacs/utility/gmxassert.h</text>
</a>
</g>
</g>
<!-- Node4&#45;&gt;Node10 -->
<g id="edge10" class="edge"><title>Node4&#45;&gt;Node10</title>
<path fill="none" stroke="midnightblue" d="M297.286,-179.444C336.983,-170.083 400.707,-155.056 443.912,-144.868"/>
<polygon fill="midnightblue" stroke="midnightblue" points="444.954,-148.218 453.884,-142.516 443.348,-141.405 444.954,-148.218"/>
</g>
<!-- Node11 -->
<g id="node11" class="node"><title>Node11</title>
<g id="a_node11"><a xlink:href="basedefinitions_8h.xhtml" target="_top" xlink:title="Basic types and macros used throughout GROMACS. ">
<polygon fill="white" stroke="black" points="334.5,-62 334.5,-81 491.5,-81 491.5,-62 334.5,-62"/>
<text text-anchor="middle" x="413" y="-69" font-family="Helvetica,sans-Serif" font-size="10.00">gromacs/utility/basedefinitions.h</text>
</a>
</g>
</g>
<!-- Node10&#45;&gt;Node11 -->
<g id="edge11" class="edge"><title>Node10&#45;&gt;Node11</title>
<path fill="none" stroke="midnightblue" d="M478.968,-123.475C466.732,-114.02 446.771,-98.5961 432.007,-87.1871"/>
<polygon fill="midnightblue" stroke="midnightblue" points="434.065,-84.3541 424.012,-81.0091 429.785,-89.8931 434.065,-84.3541"/>
</g>
<!-- Node14 -->
<g id="node14" class="node"><title>Node14</title>
<g id="a_node14"><a xlink:href="current__function_8h.xhtml" target="_top" xlink:title="Declares GMX_CURRENT_FUNCTION for getting the current function name. ">
<polygon fill="white" stroke="black" points="509.5,-56.5 509.5,-86.5 622.5,-86.5 622.5,-56.5 509.5,-56.5"/>
<text text-anchor="start" x="517.5" y="-74.5" font-family="Helvetica,sans-Serif" font-size="10.00">gromacs/utility/current</text>
<text text-anchor="middle" x="566" y="-63.5" font-family="Helvetica,sans-Serif" font-size="10.00">_function.h</text>
</a>
</g>
</g>
<!-- Node10&#45;&gt;Node14 -->
<g id="edge14" class="edge"><title>Node10&#45;&gt;Node14</title>
<path fill="none" stroke="midnightblue" d="M500.889,-123.475C511.086,-115.492 526.717,-103.254 540.109,-92.7703"/>
<polygon fill="midnightblue" stroke="midnightblue" points="542.372,-95.4434 548.088,-86.523 538.057,-89.9316 542.372,-95.4434"/>
</g>
<!-- Node12 -->
<g id="node12" class="node"><title>Node12</title>
<polygon fill="white" stroke="#bfbfbf" points="352.5,-0.5 352.5,-19.5 401.5,-19.5 401.5,-0.5 352.5,-0.5"/>
<text text-anchor="middle" x="377" y="-7.5" font-family="Helvetica,sans-Serif" font-size="10.00">stdint.h</text>
</g>
<!-- Node11&#45;&gt;Node12 -->
<g id="edge12" class="edge"><title>Node11&#45;&gt;Node12</title>
<path fill="none" stroke="midnightblue" d="M407.842,-61.9751C402.549,-53.2268 394.165,-39.3691 387.473,-28.3093"/>
<polygon fill="midnightblue" stroke="midnightblue" points="390.32,-26.2531 382.148,-19.5091 384.33,-29.8768 390.32,-26.2531"/>
</g>
<!-- Node13 -->
<g id="node13" class="node"><title>Node13</title>
<polygon fill="white" stroke="#bfbfbf" points="419.5,-0.5 419.5,-19.5 478.5,-19.5 478.5,-0.5 419.5,-0.5"/>
<text text-anchor="middle" x="449" y="-7.5" font-family="Helvetica,sans-Serif" font-size="10.00">inttypes.h</text>
</g>
<!-- Node11&#45;&gt;Node13 -->
<g id="edge13" class="edge"><title>Node11&#45;&gt;Node13</title>
<path fill="none" stroke="midnightblue" d="M418.158,-61.9751C423.451,-53.2268 431.835,-39.3691 438.527,-28.3093"/>
<polygon fill="midnightblue" stroke="midnightblue" points="441.67,-29.8768 443.852,-19.5091 435.68,-26.2531 441.67,-29.8768"/>
</g>
</g>
</svg>
