<?xml version="1.0" encoding="UTF-8" standalone="no"?>
<!DOCTYPE svg PUBLIC "-//W3C//DTD SVG 1.1//EN"
 "http://www.w3.org/Graphics/SVG/1.1/DTD/svg11.dtd">
<!-- Generated by graphviz version 2.38.0 (20140413.2041)
 -->
<!-- Title: gmx::GromacsException Pages: 1 -->
<svg width="471pt" height="211pt"
 viewBox="0.00 0.00 471.00 211.00" xmlns="http://www.w3.org/2000/svg" xmlns:xlink="http://www.w3.org/1999/xlink">
<g id="graph0" class="graph" transform="scale(1 1) rotate(0) translate(4 207)">
<title>gmx::GromacsException</title>
<polygon fill="white" stroke="none" points="-4,4 -4,-207 467,-207 467,4 -4,4"/>
<!-- Node1 -->
<g id="node1" class="node"><title>Node1</title>
<polygon fill="#bfbfbf" stroke="black" points="0,-107.5 0,-126.5 125,-126.5 125,-107.5 0,-107.5"/>
<text text-anchor="middle" x="62.5" y="-114.5" font-family="Helvetica,sans-Serif" font-size="10.00">gmx::GromacsException</text>
</g>
<!-- Node2 -->
<g id="node2" class="node"><title>Node2</title>
<g id="a_node2"><a xlink:href="classgmx_1_1APIError.xhtml" target="_top" xlink:title="Exception class for incorrect use of an API. ">
<polygon fill="white" stroke="black" points="186,-183.5 186,-202.5 265,-202.5 265,-183.5 186,-183.5"/>
<text text-anchor="middle" x="225.5" y="-190.5" font-family="Helvetica,sans-Serif" font-size="10.00">gmx::APIError</text>
</a>
</g>
</g>
<!-- Node1&#45;&gt;Node2 -->
<g id="edge1" class="edge"><title>Node1&#45;&gt;Node2</title>
<path fill="none" stroke="midnightblue" d="M85.8498,-132.144C105.106,-144.675 133.987,-162.263 161,-174 169.232,-177.577 178.343,-180.738 187.032,-183.404"/>
<polygon fill="midnightblue" stroke="midnightblue" points="87.7447,-129.201 77.4706,-126.613 83.8888,-135.043 87.7447,-129.201"/>
</g>
<!-- Node4 -->
<g id="node4" class="node"><title>Node4</title>
<g id="a_node4"><a xlink:href="classgmx_1_1FileIOError.xhtml" target="_top" xlink:title="Exception class for file I/O errors. ">
<polygon fill="white" stroke="black" points="181,-145.5 181,-164.5 270,-164.5 270,-145.5 181,-145.5"/>
<text text-anchor="middle" x="225.5" y="-152.5" font-family="Helvetica,sans-Serif" font-size="10.00">gmx::FileIOError</text>
</a>
</g>
</g>
<!-- Node1&#45;&gt;Node4 -->
<g id="edge3" class="edge"><title>Node1&#45;&gt;Node4</title>
<path fill="none" stroke="midnightblue" d="M113.902,-128.896C136.532,-134.237 162.87,-140.454 184.165,-145.48"/>
<polygon fill="midnightblue" stroke="midnightblue" points="114.664,-125.48 104.127,-126.589 113.056,-132.293 114.664,-125.48"/>
</g>
<!-- Node5 -->
<g id="node5" class="node"><title>Node5</title>
<g id="a_node5"><a xlink:href="classgmx_1_1InternalError.xhtml" target="_top" xlink:title="Exception class for internal errors. ">
<polygon fill="white" stroke="black" points="178,-107.5 178,-126.5 273,-126.5 273,-107.5 178,-107.5"/>
<text text-anchor="middle" x="225.5" y="-114.5" font-family="Helvetica,sans-Serif" font-size="10.00">gmx::InternalError</text>
</a>
</g>
</g>
<!-- Node1&#45;&gt;Node5 -->
<g id="edge4" class="edge"><title>Node1&#45;&gt;Node5</title>
<path fill="none" stroke="midnightblue" d="M135.585,-117C149.852,-117 164.474,-117 177.635,-117"/>
<polygon fill="midnightblue" stroke="midnightblue" points="135.286,-113.5 125.286,-117 135.286,-120.5 135.286,-113.5"/>
</g>
<!-- Node6 -->
<g id="node6" class="node"><title>Node6</title>
<g id="a_node6"><a xlink:href="classgmx_1_1SimulationInstabilityError.xhtml" target="_top" xlink:title="Exception class for simulation instabilities. ">
<polygon fill="white" stroke="black" points="161,-58 161,-88 290,-88 290,-58 161,-58"/>
<text text-anchor="start" x="169" y="-76" font-family="Helvetica,sans-Serif" font-size="10.00">gmx::SimulationInstability</text>
<text text-anchor="middle" x="225.5" y="-65" font-family="Helvetica,sans-Serif" font-size="10.00">Error</text>
</a>
</g>
</g>
<!-- Node1&#45;&gt;Node6 -->
<g id="edge5" class="edge"><title>Node1&#45;&gt;Node6</title>
<path fill="none" stroke="midnightblue" d="M108.288,-104.76C127.217,-99.5866 149.451,-93.5103 169.374,-88.0654"/>
<polygon fill="midnightblue" stroke="midnightblue" points="107.158,-101.44 98.4346,-107.453 109.004,-108.193 107.158,-101.44"/>
</g>
<!-- Node7 -->
<g id="node7" class="node"><title>Node7</title>
<g id="a_node7"><a xlink:href="classgmx_1_1UserInputError.xhtml" target="_top" xlink:title="Exception class for user input errors. ">
<polygon fill="white" stroke="black" points="173,-19.5 173,-38.5 278,-38.5 278,-19.5 173,-19.5"/>
<text text-anchor="middle" x="225.5" y="-26.5" font-family="Helvetica,sans-Serif" font-size="10.00">gmx::UserInputError</text>
</a>
</g>
</g>
<!-- Node1&#45;&gt;Node7 -->
<g id="edge6" class="edge"><title>Node1&#45;&gt;Node7</title>
<path fill="none" stroke="midnightblue" d="M82.2274,-100.919C101.042,-85.4712 131.415,-62.412 161,-48 168.655,-44.2708 177.191,-41.11 185.458,-38.5005"/>
<polygon fill="midnightblue" stroke="midnightblue" points="79.8722,-98.3254 74.4405,-107.422 84.3594,-103.698 79.8722,-98.3254"/>
</g>
<!-- Node3 -->
<g id="node3" class="node"><title>Node3</title>
<g id="a_node3"><a xlink:href="classgmx_1_1NotImplementedError.xhtml" target="_top" xlink:title="Exception class for use of an unimplemented feature. ">
<polygon fill="white" stroke="black" points="327.5,-183.5 327.5,-202.5 461.5,-202.5 461.5,-183.5 327.5,-183.5"/>
<text text-anchor="middle" x="394.5" y="-190.5" font-family="Helvetica,sans-Serif" font-size="10.00">gmx::NotImplementedError</text>
</a>
</g>
</g>
<!-- Node2&#45;&gt;Node3 -->
<g id="edge2" class="edge"><title>Node2&#45;&gt;Node3</title>
<path fill="none" stroke="midnightblue" d="M275.576,-193C291.827,-193 310.187,-193 327.497,-193"/>
<polygon fill="midnightblue" stroke="midnightblue" points="275.233,-189.5 265.233,-193 275.233,-196.5 275.233,-189.5"/>
</g>
<!-- Node8 -->
<g id="node8" class="node"><title>Node8</title>
<g id="a_node8"><a xlink:href="classgmx_1_1InconsistentInputError.xhtml" target="_top" xlink:title="Exception class for situations where user input is inconsistent. ">
<polygon fill="white" stroke="black" points="326,-38.5 326,-57.5 463,-57.5 463,-38.5 326,-38.5"/>
<text text-anchor="middle" x="394.5" y="-45.5" font-family="Helvetica,sans-Serif" font-size="10.00">gmx::InconsistentInputError</text>
</a>
</g>
</g>
<!-- Node7&#45;&gt;Node8 -->
<g id="edge7" class="edge"><title>Node7&#45;&gt;Node8</title>
<path fill="none" stroke="midnightblue" d="M288.494,-36.0532C300.696,-37.4415 313.556,-38.9045 325.93,-40.3124"/>
<polygon fill="midnightblue" stroke="midnightblue" points="288.756,-32.5605 278.424,-34.9076 287.965,-39.5157 288.756,-32.5605"/>
</g>
<!-- Node9 -->
<g id="node9" class="node"><title>Node9</title>
<g id="a_node9"><a xlink:href="classgmx_1_1InvalidInputError.xhtml" target="_top" xlink:title="Exception class for situations where user input cannot be parsed/understood. ">
<polygon fill="white" stroke="black" points="338,-0.5 338,-19.5 451,-19.5 451,-0.5 338,-0.5"/>
<text text-anchor="middle" x="394.5" y="-7.5" font-family="Helvetica,sans-Serif" font-size="10.00">gmx::InvalidInputError</text>
</a>
</g>
</g>
<!-- Node7&#45;&gt;Node9 -->
<g id="edge8" class="edge"><title>Node7&#45;&gt;Node9</title>
<path fill="none" stroke="midnightblue" d="M288.809,-21.9109C304.9,-20.0802 322.115,-18.1216 337.842,-16.3323"/>
<polygon fill="midnightblue" stroke="midnightblue" points="287.965,-18.4843 278.424,-23.0924 288.756,-25.4395 287.965,-18.4843"/>
</g>
</g>
</svg>
