<?xml version="1.0" encoding="UTF-8" standalone="no"?>
<!DOCTYPE svg PUBLIC "-//W3C//DTD SVG 1.1//EN"
 "http://www.w3.org/Graphics/SVG/1.1/DTD/svg11.dtd">
<!-- Generated by graphviz version 2.38.0 (20140413.2041)
 -->
<!-- Title: gmx::EnumOption&lt; EnumType &gt; Pages: 1 -->
<svg width="169pt" height="162pt"
 viewBox="0.00 0.00 169.00 162.00" xmlns="http://www.w3.org/2000/svg" xmlns:xlink="http://www.w3.org/1999/xlink">
<g id="graph0" class="graph" transform="scale(1 1) rotate(0) translate(4 158)">
<title>gmx::EnumOption&lt; EnumType &gt;</title>
<polygon fill="white" stroke="none" points="-4,4 -4,-158 165,-158 165,4 -4,4"/>
<!-- Node1 -->
<g id="node1" class="node"><title>Node1</title>
<polygon fill="#bfbfbf" stroke="black" points="0,-0.5 0,-19.5 161,-19.5 161,-0.5 0,-0.5"/>
<text text-anchor="middle" x="80.5" y="-7.5" font-family="Helvetica,sans-Serif" font-size="10.00">gmx::EnumOption&lt; EnumType &gt;</text>
</g>
<!-- Node2 -->
<g id="node2" class="node"><title>Node2</title>
<g id="a_node2"><a xlink:href="classgmx_1_1OptionTemplate.xhtml" target="_top" xlink:title="gmx::OptionTemplate\l\&lt; EnumType, EnumOption\l\&lt; EnumType \&gt; \&gt;">
<polygon fill="white" stroke="black" points="14,-56.5 14,-97.5 147,-97.5 147,-56.5 14,-56.5"/>
<text text-anchor="start" x="22" y="-85.5" font-family="Helvetica,sans-Serif" font-size="10.00">gmx::OptionTemplate</text>
<text text-anchor="start" x="22" y="-74.5" font-family="Helvetica,sans-Serif" font-size="10.00">&lt; EnumType, EnumOption</text>
<text text-anchor="middle" x="80.5" y="-63.5" font-family="Helvetica,sans-Serif" font-size="10.00">&lt; EnumType &gt; &gt;</text>
</a>
</g>
</g>
<!-- Node2&#45;&gt;Node1 -->
<g id="edge1" class="edge"><title>Node2&#45;&gt;Node1</title>
<path fill="none" stroke="midnightblue" d="M80.5,-46.2632C80.5,-36.5592 80.5,-26.5242 80.5,-19.6525"/>
<polygon fill="midnightblue" stroke="midnightblue" points="77.0001,-46.4978 80.5,-56.4979 84.0001,-46.4979 77.0001,-46.4978"/>
</g>
<!-- Node3 -->
<g id="node3" class="node"><title>Node3</title>
<g id="a_node3"><a xlink:href="classgmx_1_1AbstractOption.xhtml" target="_top" xlink:title="Abstract base class for specifying option properties. ">
<polygon fill="white" stroke="black" points="27,-134.5 27,-153.5 134,-153.5 134,-134.5 27,-134.5"/>
<text text-anchor="middle" x="80.5" y="-141.5" font-family="Helvetica,sans-Serif" font-size="10.00">gmx::AbstractOption</text>
</a>
</g>
</g>
<!-- Node3&#45;&gt;Node2 -->
<g id="edge2" class="edge"><title>Node3&#45;&gt;Node2</title>
<path fill="none" stroke="midnightblue" d="M80.5,-124.037C80.5,-115.708 80.5,-105.936 80.5,-97.5421"/>
<polygon fill="midnightblue" stroke="midnightblue" points="77.0001,-124.234 80.5,-134.234 84.0001,-124.234 77.0001,-124.234"/>
</g>
</g>
</svg>
