<?xml version="1.0" encoding="UTF-8" standalone="no"?>
<!DOCTYPE svg PUBLIC "-//W3C//DTD SVG 1.1//EN"
 "http://www.w3.org/Graphics/SVG/1.1/DTD/svg11.dtd">
<!-- Generated by graphviz version 2.38.0 (20140413.2041)
 -->
<!-- Title: src/gromacs/commandline/cmdlineprogramcontext.h Pages: 1 -->
<svg width="467pt" height="151pt"
 viewBox="0.00 0.00 466.73 151.00" xmlns="http://www.w3.org/2000/svg" xmlns:xlink="http://www.w3.org/1999/xlink">
<g id="graph0" class="graph" transform="scale(1 1) rotate(0) translate(4 147)">
<title>src/gromacs/commandline/cmdlineprogramcontext.h</title>
<polygon fill="white" stroke="none" points="-4,4 -4,-147 462.729,-147 462.729,4 -4,4"/>
<!-- Node1 -->
<g id="node1" class="node"><title>Node1</title>
<polygon fill="#bfbfbf" stroke="black" points="29.729,-112.5 29.729,-142.5 160.729,-142.5 160.729,-112.5 29.729,-112.5"/>
<text text-anchor="start" x="37.729" y="-130.5" font-family="Helvetica,sans-Serif" font-size="10.00">src/gromacs/commandline</text>
<text text-anchor="middle" x="95.229" y="-119.5" font-family="Helvetica,sans-Serif" font-size="10.00">/cmdlineprogramcontext.h</text>
</g>
<!-- Node2 -->
<g id="node2" class="node"><title>Node2</title>
<polygon fill="white" stroke="#bfbfbf" points="70.229,-0.5 70.229,-19.5 122.229,-19.5 122.229,-0.5 70.229,-0.5"/>
<text text-anchor="middle" x="96.229" y="-7.5" font-family="Helvetica,sans-Serif" font-size="10.00">memory</text>
</g>
<!-- Node1&#45;&gt;Node2 -->
<g id="edge1" class="edge"><title>Node1&#45;&gt;Node2</title>
<path fill="none" stroke="midnightblue" d="M51.0165,-112.472C20.7697,-100.336 -11.2721,-80.838 4.22896,-56 16.4698,-36.386 40.0113,-25.0874 60.2154,-18.7172"/>
<polygon fill="midnightblue" stroke="midnightblue" points="61.4452,-22.0059 70.0994,-15.8941 59.5227,-15.2751 61.4452,-22.0059"/>
</g>
<!-- Node3 -->
<g id="node3" class="node"><title>Node3</title>
<polygon fill="white" stroke="#bfbfbf" points="13.729,-56.5 13.729,-75.5 54.729,-75.5 54.729,-56.5 13.729,-56.5"/>
<text text-anchor="middle" x="34.229" y="-63.5" font-family="Helvetica,sans-Serif" font-size="10.00">string</text>
</g>
<!-- Node1&#45;&gt;Node3 -->
<g id="edge2" class="edge"><title>Node1&#45;&gt;Node3</title>
<path fill="none" stroke="midnightblue" d="M80.7728,-112.399C71.6346,-103.486 59.8103,-91.9523 50.3666,-82.7408"/>
<polygon fill="midnightblue" stroke="midnightblue" points="52.7075,-80.1348 43.105,-75.6578 47.8197,-85.1458 52.7075,-80.1348"/>
</g>
<!-- Node4 -->
<g id="node4" class="node"><title>Node4</title>
<polygon fill="white" stroke="#bfbfbf" points="73.229,-56.5 73.229,-75.5 117.229,-75.5 117.229,-56.5 73.229,-56.5"/>
<text text-anchor="middle" x="95.229" y="-63.5" font-family="Helvetica,sans-Serif" font-size="10.00">vector</text>
</g>
<!-- Node1&#45;&gt;Node4 -->
<g id="edge3" class="edge"><title>Node1&#45;&gt;Node4</title>
<path fill="none" stroke="midnightblue" d="M95.229,-112.399C95.229,-104.466 95.229,-94.458 95.229,-85.8583"/>
<polygon fill="midnightblue" stroke="midnightblue" points="98.7291,-85.6577 95.229,-75.6578 91.7291,-85.6578 98.7291,-85.6577"/>
</g>
<!-- Node5 -->
<g id="node5" class="node"><title>Node5</title>
<g id="a_node5"><a xlink:href="classhelpers_8h.xhtml" target="_top" xlink:title="Declares common utility classes and macros. ">
<polygon fill="white" stroke="black" points="135.229,-56.5 135.229,-75.5 281.229,-75.5 281.229,-56.5 135.229,-56.5"/>
<text text-anchor="middle" x="208.229" y="-63.5" font-family="Helvetica,sans-Serif" font-size="10.00">gromacs/utility/classhelpers.h</text>
</a>
</g>
</g>
<!-- Node1&#45;&gt;Node5 -->
<g id="edge4" class="edge"><title>Node1&#45;&gt;Node5</title>
<path fill="none" stroke="midnightblue" d="M122.008,-112.399C140.291,-102.773 164.377,-90.0902 182.444,-80.5772"/>
<polygon fill="midnightblue" stroke="midnightblue" points="184.569,-83.4138 191.786,-75.6578 181.307,-77.22 184.569,-83.4138"/>
</g>
<!-- Node6 -->
<g id="node6" class="node"><title>Node6</title>
<g id="a_node6"><a xlink:href="programcontext_8h.xhtml" target="_top" xlink:title="Declares gmx::IProgramContext and related methods. ">
<polygon fill="white" stroke="black" points="299.729,-56.5 299.729,-75.5 458.729,-75.5 458.729,-56.5 299.729,-56.5"/>
<text text-anchor="middle" x="379.229" y="-63.5" font-family="Helvetica,sans-Serif" font-size="10.00">gromacs/utility/programcontext.h</text>
</a>
</g>
</g>
<!-- Node1&#45;&gt;Node6 -->
<g id="edge6" class="edge"><title>Node1&#45;&gt;Node6</title>
<path fill="none" stroke="midnightblue" d="M160.741,-112.775C211.867,-102.064 281.848,-87.402 328.7,-77.5862"/>
<polygon fill="midnightblue" stroke="midnightblue" points="329.553,-80.9835 338.623,-75.5072 328.118,-74.1322 329.553,-80.9835"/>
</g>
<!-- Node5&#45;&gt;Node2 -->
<g id="edge5" class="edge"><title>Node5&#45;&gt;Node2</title>
<path fill="none" stroke="midnightblue" d="M190.234,-56.324C172.191,-47.6247 144.182,-34.1202 123.426,-24.113"/>
<polygon fill="midnightblue" stroke="midnightblue" points="124.707,-20.8449 114.179,-19.6545 121.667,-27.1502 124.707,-20.8449"/>
</g>
</g>
</svg>
