<?xml version="1.0" encoding="UTF-8" standalone="no"?>
<!DOCTYPE svg PUBLIC "-//W3C//DTD SVG 1.1//EN"
 "http://www.w3.org/Graphics/SVG/1.1/DTD/svg11.dtd">
<!-- Generated by graphviz version 2.38.0 (20140413.2041)
 -->
<!-- Title: src/gromacs/random Pages: 1 -->
<svg width="182pt" height="231pt"
 viewBox="0.00 0.00 182.00 231.00" xmlns="http://www.w3.org/2000/svg" xmlns:xlink="http://www.w3.org/1999/xlink">
<g id="graph0" class="graph" transform="scale(1 1) rotate(0) translate(4 227)">
<title>src/gromacs/random</title>
<polygon fill="white" stroke="none" points="-4,4 -4,-227 178,-227 178,4 -4,4"/>
<g id="clust1" class="cluster"><title>clusterdir_a798d384400d41a9e6864d9b1b8753fe</title>
<g id="a_clust1"><a xlink:href="dir_a798d384400d41a9e6864d9b1b8753fe.xhtml" target="_top" xlink:title="gromacs">
<polygon fill="#ddddee" stroke="black" points="8,-128 8,-215 166,-215 166,-128 8,-128"/>
<text text-anchor="middle" x="87" y="-203" font-family="Helvetica,sans-Serif" font-size="10.00">gromacs</text>
</a>
</g>
</g>
<g id="clust2" class="cluster"><title>clusterdir_514bc78bc4c8cd6732d6db5b240d2f74</title>
<g id="a_clust2"><a xlink:href="dir_514bc78bc4c8cd6732d6db5b240d2f74.xhtml" target="_top">
<polygon fill="#eeeeff" stroke="black" points="16,-136 16,-188 158,-188 158,-136 16,-136"/>
</a>
</g>
</g>
<!-- dir_514bc78bc4c8cd6732d6db5b240d2f74 -->
<g id="node1" class="node"><title>dir_514bc78bc4c8cd6732d6db5b240d2f74</title>
<text text-anchor="middle" x="51" y="-159.5" font-family="Helvetica,sans-Serif" font-size="10.00">random</text>
</g>
<!-- dir_de18afb36696138c96356a62009637d5 -->
<g id="node3" class="node"><title>dir_de18afb36696138c96356a62009637d5</title>
<g id="a_node3"><a xlink:href="dir_de18afb36696138c96356a62009637d5.xhtml" target="_top" xlink:title="utility">
<polygon fill="white" stroke="red" points="95,-36 41,-36 41,-0 95,-0 95,-36"/>
<text text-anchor="middle" x="68" y="-15.5" font-family="Helvetica,sans-Serif" font-size="10.00">utility</text>
</a>
</g>
</g>
<!-- dir_514bc78bc4c8cd6732d6db5b240d2f74&#45;&gt;dir_de18afb36696138c96356a62009637d5 -->
<g id="edge3" class="edge"><title>dir_514bc78bc4c8cd6732d6db5b240d2f74&#45;&gt;dir_de18afb36696138c96356a62009637d5</title>
<path fill="none" stroke="black" d="M42.1532,-143.709C34.0838,-125.606 24.4769,-96.4647 32,-72 35.0089,-62.2153 40.507,-52.6161 46.3157,-44.3336"/>
<polygon fill="black" stroke="black" points="49.1948,-46.3279 52.3901,-36.2264 43.5928,-42.1306 49.1948,-46.3279"/>
<g id="a_edge3&#45;headlabel"><a xlink:href="dir_000054_000072.xhtml" target="_top" xlink:title="19">
<text text-anchor="middle" x="49.3117" y="-48.4071" font-family="Helvetica,sans-Serif" font-size="10.00">19</text>
</a>
</g>
</g>
<!-- dir_89a1adf13dffb155c372242433532d34 -->
<g id="node4" class="node"><title>dir_89a1adf13dffb155c372242433532d34</title>
<g id="a_node4"><a xlink:href="dir_89a1adf13dffb155c372242433532d34.xhtml" target="_top" xlink:title="math">
<polygon fill="white" stroke="red" points="95,-108 41,-108 41,-72 95,-72 95,-108"/>
<text text-anchor="middle" x="68" y="-87.5" font-family="Helvetica,sans-Serif" font-size="10.00">math</text>
</a>
</g>
</g>
<!-- dir_514bc78bc4c8cd6732d6db5b240d2f74&#45;&gt;dir_89a1adf13dffb155c372242433532d34 -->
<g id="edge4" class="edge"><title>dir_514bc78bc4c8cd6732d6db5b240d2f74&#45;&gt;dir_89a1adf13dffb155c372242433532d34</title>
<path fill="none" stroke="black" d="M55.2022,-143.697C57.0962,-135.898 59.3765,-126.509 61.4843,-117.829"/>
<polygon fill="black" stroke="black" points="64.8872,-118.648 63.8461,-108.104 58.0849,-116.996 64.8872,-118.648"/>
<g id="a_edge4&#45;headlabel"><a xlink:href="dir_000054_000036.xhtml" target="_top" xlink:title="4">
<text text-anchor="middle" x="66.798" y="-120.311" font-family="Helvetica,sans-Serif" font-size="10.00">4</text>
</a>
</g>
</g>
<!-- dir_3a18ba638e21d94ee0a8b690740d86aa -->
<g id="node2" class="node"><title>dir_3a18ba638e21d94ee0a8b690740d86aa</title>
<g id="a_node2"><a xlink:href="dir_3a18ba638e21d94ee0a8b690740d86aa.xhtml" target="_top" xlink:title="tests">
<polygon fill="white" stroke="black" points="150,-180 96,-180 96,-144 150,-144 150,-180"/>
<text text-anchor="middle" x="123" y="-159.5" font-family="Helvetica,sans-Serif" font-size="10.00">tests</text>
</a>
</g>
</g>
<!-- dir_3a18ba638e21d94ee0a8b690740d86aa&#45;&gt;dir_de18afb36696138c96356a62009637d5 -->
<g id="edge2" class="edge"><title>dir_3a18ba638e21d94ee0a8b690740d86aa&#45;&gt;dir_de18afb36696138c96356a62009637d5</title>
<path fill="none" stroke="black" d="M121.303,-143.674C119.05,-125.29 114.112,-95.6852 104,-72 99.9158,-62.4333 94.0116,-52.7836 88.1621,-44.3881"/>
<polygon fill="black" stroke="black" points="90.8797,-42.1741 82.1647,-36.1492 85.2203,-46.2938 90.8797,-42.1741"/>
<g id="a_edge2&#45;headlabel"><a xlink:href="dir_000055_000072.xhtml" target="_top" xlink:title="1">
<text text-anchor="middle" x="95.2906" y="-40.9093" font-family="Helvetica,sans-Serif" font-size="10.00">1</text>
</a>
</g>
</g>
<!-- dir_89a1adf13dffb155c372242433532d34&#45;&gt;dir_de18afb36696138c96356a62009637d5 -->
<g id="edge1" class="edge"><title>dir_89a1adf13dffb155c372242433532d34&#45;&gt;dir_de18afb36696138c96356a62009637d5</title>
<path fill="none" stroke="black" d="M68,-71.6966C68,-63.9827 68,-54.7125 68,-46.1124"/>
<polygon fill="black" stroke="black" points="71.5001,-46.1043 68,-36.1043 64.5001,-46.1044 71.5001,-46.1043"/>
<g id="a_edge1&#45;headlabel"><a xlink:href="dir_000036_000072.xhtml" target="_top" xlink:title="21">
<text text-anchor="middle" x="74.3393" y="-47.199" font-family="Helvetica,sans-Serif" font-size="10.00">21</text>
</a>
</g>
</g>
</g>
</svg>
