<?xml version="1.0" encoding="UTF-8" standalone="no"?>
<!DOCTYPE svg PUBLIC "-//W3C//DTD SVG 1.1//EN"
 "http://www.w3.org/Graphics/SVG/1.1/DTD/svg11.dtd">
<!-- Generated by graphviz version 2.38.0 (20140413.2041)
 -->
<!-- Title: src/gromacs/mdrunutility Pages: 1 -->
<svg width="128pt" height="223pt"
 viewBox="0.00 0.00 128.00 223.00" xmlns="http://www.w3.org/2000/svg" xmlns:xlink="http://www.w3.org/1999/xlink">
<g id="graph0" class="graph" transform="scale(1 1) rotate(0) translate(4 219)">
<title>src/gromacs/mdrunutility</title>
<polygon fill="white" stroke="none" points="-4,4 -4,-219 124,-219 124,4 -4,4"/>
<g id="clust1" class="cluster"><title>clusterdir_a798d384400d41a9e6864d9b1b8753fe</title>
<g id="a_clust1"><a xlink:href="dir_a798d384400d41a9e6864d9b1b8753fe.xhtml" target="_top" xlink:title="gromacs">
<polygon fill="#ddddee" stroke="black" points="8,-136 8,-207 92,-207 92,-136 8,-136"/>
<text text-anchor="middle" x="50" y="-195" font-family="Helvetica,sans-Serif" font-size="10.00">gromacs</text>
</a>
</g>
</g>
<!-- dir_6f90f73a0d8f7811df2a9920aa113548 -->
<g id="node1" class="node"><title>dir_6f90f73a0d8f7811df2a9920aa113548</title>
<g id="a_node1"><a xlink:href="dir_6f90f73a0d8f7811df2a9920aa113548.xhtml" target="_top" xlink:title="mdrunutility">
<polygon fill="#eeeeff" stroke="black" points="83.5,-180 16.5,-180 16.5,-144 83.5,-144 83.5,-180"/>
<text text-anchor="middle" x="50" y="-159.5" font-family="Helvetica,sans-Serif" font-size="10.00">mdrunutility</text>
</a>
</g>
</g>
<!-- dir_de18afb36696138c96356a62009637d5 -->
<g id="node2" class="node"><title>dir_de18afb36696138c96356a62009637d5</title>
<g id="a_node2"><a xlink:href="dir_de18afb36696138c96356a62009637d5.xhtml" target="_top" xlink:title="utility">
<polygon fill="white" stroke="red" points="77,-36 23,-36 23,-0 77,-0 77,-36"/>
<text text-anchor="middle" x="50" y="-15.5" font-family="Helvetica,sans-Serif" font-size="10.00">utility</text>
</a>
</g>
</g>
<!-- dir_6f90f73a0d8f7811df2a9920aa113548&#45;&gt;dir_de18afb36696138c96356a62009637d5 -->
<g id="edge2" class="edge"><title>dir_6f90f73a0d8f7811df2a9920aa113548&#45;&gt;dir_de18afb36696138c96356a62009637d5</title>
<path fill="none" stroke="black" d="M44.5912,-143.529C41.705,-133.289 38.455,-120.039 37,-108 35.0804,-92.1156 35.0804,-87.8844 37,-72 38.023,-63.5349 39.9335,-54.4712 41.9809,-46.2761"/>
<polygon fill="black" stroke="black" points="45.4009,-47.0344 44.5912,-36.4705 38.6365,-45.2336 45.4009,-47.0344"/>
<g id="a_edge2&#45;headlabel"><a xlink:href="dir_000046_000072.xhtml" target="_top" xlink:title="11">
<text text-anchor="middle" x="47.22" y="-48.7384" font-family="Helvetica,sans-Serif" font-size="10.00">11</text>
</a>
</g>
</g>
<!-- dir_da0072eb60d31f378848661c417de134 -->
<g id="node3" class="node"><title>dir_da0072eb60d31f378848661c417de134</title>
<g id="a_node3"><a xlink:href="dir_da0072eb60d31f378848661c417de134.xhtml" target="_top" xlink:title="commandline">
<polygon fill="white" stroke="red" points="120,-108 46,-108 46,-72 120,-72 120,-108"/>
<text text-anchor="middle" x="83" y="-87.5" font-family="Helvetica,sans-Serif" font-size="10.00">commandline</text>
</a>
</g>
</g>
<!-- dir_6f90f73a0d8f7811df2a9920aa113548&#45;&gt;dir_da0072eb60d31f378848661c417de134 -->
<g id="edge3" class="edge"><title>dir_6f90f73a0d8f7811df2a9920aa113548&#45;&gt;dir_da0072eb60d31f378848661c417de134</title>
<path fill="none" stroke="black" d="M58.1573,-143.697C61.9138,-135.728 66.4531,-126.1 70.6183,-117.264"/>
<polygon fill="black" stroke="black" points="73.8381,-118.642 74.9365,-108.104 67.5064,-115.657 73.8381,-118.642"/>
<g id="a_edge3&#45;headlabel"><a xlink:href="dir_000046_000009.xhtml" target="_top" xlink:title="1">
<text text-anchor="middle" x="74.8736" y="-120.604" font-family="Helvetica,sans-Serif" font-size="10.00">1</text>
</a>
</g>
</g>
<!-- dir_da0072eb60d31f378848661c417de134&#45;&gt;dir_de18afb36696138c96356a62009637d5 -->
<g id="edge1" class="edge"><title>dir_da0072eb60d31f378848661c417de134&#45;&gt;dir_de18afb36696138c96356a62009637d5</title>
<path fill="none" stroke="black" d="M74.8427,-71.6966C71.0862,-63.7284 66.5469,-54.0995 62.3817,-45.2641"/>
<polygon fill="black" stroke="black" points="65.4936,-43.6571 58.0635,-36.1043 59.1619,-46.6421 65.4936,-43.6571"/>
<g id="a_edge1&#45;headlabel"><a xlink:href="dir_000009_000072.xhtml" target="_top" xlink:title="70">
<text text-anchor="middle" x="69.5945" y="-43.1978" font-family="Helvetica,sans-Serif" font-size="10.00">70</text>
</a>
</g>
</g>
</g>
</svg>
