<?xml version="1.0" encoding="UTF-8" standalone="no"?>
<!DOCTYPE svg PUBLIC "-//W3C//DTD SVG 1.1//EN"
 "http://www.w3.org/Graphics/SVG/1.1/DTD/svg11.dtd">
<!-- Generated by graphviz version 2.38.0 (20140413.2041)
 -->
<!-- Title: src/gromacs/correlationfunctions/tests Pages: 1 -->
<svg width="125pt" height="223pt"
 viewBox="0.00 0.00 125.00 223.00" xmlns="http://www.w3.org/2000/svg" xmlns:xlink="http://www.w3.org/1999/xlink">
<g id="graph0" class="graph" transform="scale(1 1) rotate(0) translate(4 219)">
<title>src/gromacs/correlationfunctions/tests</title>
<polygon fill="white" stroke="none" points="-4,4 -4,-219 121,-219 121,4 -4,4"/>
<g id="clust1" class="cluster"><title>clusterdir_04917eabbd9e9515f5b815e633560f88</title>
<g id="a_clust1"><a xlink:href="dir_04917eabbd9e9515f5b815e633560f88.xhtml" target="_top" xlink:title="correlationfunctions">
<polygon fill="#ddddee" stroke="black" points="8,-136 8,-207 109,-207 109,-136 8,-136"/>
<text text-anchor="middle" x="58.5" y="-195" font-family="Helvetica,sans-Serif" font-size="10.00">correlationfunctions</text>
</a>
</g>
</g>
<!-- dir_62f0b1e666fe1cc6b2f99772feddf036 -->
<g id="node1" class="node"><title>dir_62f0b1e666fe1cc6b2f99772feddf036</title>
<g id="a_node1"><a xlink:href="dir_62f0b1e666fe1cc6b2f99772feddf036.xhtml" target="_top" xlink:title="tests">
<polygon fill="#eeeeff" stroke="black" points="85,-180 31,-180 31,-144 85,-144 85,-180"/>
<text text-anchor="middle" x="58" y="-159.5" font-family="Helvetica,sans-Serif" font-size="10.00">tests</text>
</a>
</g>
</g>
<!-- dir_4c01700622fd5a05ee3afcaacc12f3a8 -->
<g id="node2" class="node"><title>dir_4c01700622fd5a05ee3afcaacc12f3a8</title>
<g id="a_node2"><a xlink:href="dir_4c01700622fd5a05ee3afcaacc12f3a8.xhtml" target="_top" xlink:title="fft">
<polygon fill="white" stroke="red" points="58,-108 4,-108 4,-72 58,-72 58,-108"/>
<text text-anchor="middle" x="31" y="-87.5" font-family="Helvetica,sans-Serif" font-size="10.00">fft</text>
</a>
</g>
</g>
<!-- dir_62f0b1e666fe1cc6b2f99772feddf036&#45;&gt;dir_4c01700622fd5a05ee3afcaacc12f3a8 -->
<g id="edge2" class="edge"><title>dir_62f0b1e666fe1cc6b2f99772feddf036&#45;&gt;dir_4c01700622fd5a05ee3afcaacc12f3a8</title>
<path fill="none" stroke="black" d="M51.3258,-143.697C48.2851,-135.813 44.6173,-126.304 41.2393,-117.546"/>
<polygon fill="black" stroke="black" points="44.4617,-116.175 37.5974,-108.104 37.9307,-118.694 44.4617,-116.175"/>
<g id="a_edge2&#45;headlabel"><a xlink:href="dir_000012_000016.xhtml" target="_top" xlink:title="1">
<text text-anchor="middle" x="48.4043" y="-116.007" font-family="Helvetica,sans-Serif" font-size="10.00">1</text>
</a>
</g>
</g>
<!-- dir_de18afb36696138c96356a62009637d5 -->
<g id="node3" class="node"><title>dir_de18afb36696138c96356a62009637d5</title>
<g id="a_node3"><a xlink:href="dir_de18afb36696138c96356a62009637d5.xhtml" target="_top" xlink:title="utility">
<polygon fill="white" stroke="red" points="85,-36 31,-36 31,-0 85,-0 85,-36"/>
<text text-anchor="middle" x="58" y="-15.5" font-family="Helvetica,sans-Serif" font-size="10.00">utility</text>
</a>
</g>
</g>
<!-- dir_62f0b1e666fe1cc6b2f99772feddf036&#45;&gt;dir_de18afb36696138c96356a62009637d5 -->
<g id="edge3" class="edge"><title>dir_62f0b1e666fe1cc6b2f99772feddf036&#45;&gt;dir_de18afb36696138c96356a62009637d5</title>
<path fill="none" stroke="black" d="M61.6538,-143.908C63.6758,-133.569 65.9808,-120.09 67,-108 68.3441,-92.0566 68.3441,-87.9434 67,-72 66.2834,-63.4991 64.9311,-54.3119 63.4884,-46.0122"/>
<polygon fill="black" stroke="black" points="66.9142,-45.2892 61.6538,-36.0925 60.0309,-46.5623 66.9142,-45.2892"/>
<g id="a_edge3&#45;headlabel"><a xlink:href="dir_000012_000072.xhtml" target="_top" xlink:title="6">
<text text-anchor="middle" x="70.3597" y="-45.8075" font-family="Helvetica,sans-Serif" font-size="10.00">6</text>
</a>
</g>
</g>
<!-- dir_4c01700622fd5a05ee3afcaacc12f3a8&#45;&gt;dir_de18afb36696138c96356a62009637d5 -->
<g id="edge1" class="edge"><title>dir_4c01700622fd5a05ee3afcaacc12f3a8&#45;&gt;dir_de18afb36696138c96356a62009637d5</title>
<path fill="none" stroke="black" d="M37.6742,-71.6966C40.7149,-63.8132 44.3827,-54.3042 47.7607,-45.5464"/>
<polygon fill="black" stroke="black" points="51.0693,-46.6939 51.4026,-36.1043 44.5383,-44.1748 51.0693,-46.6939"/>
<g id="a_edge1&#45;headlabel"><a xlink:href="dir_000016_000072.xhtml" target="_top" xlink:title="18">
<text text-anchor="middle" x="52.4248" y="-48.5695" font-family="Helvetica,sans-Serif" font-size="10.00">18</text>
</a>
</g>
</g>
</g>
</svg>
