<?xml version="1.0" encoding="UTF-8" standalone="no"?>
<!DOCTYPE svg PUBLIC "-//W3C//DTD SVG 1.1//EN"
 "http://www.w3.org/Graphics/SVG/1.1/DTD/svg11.dtd">
<!-- Generated by graphviz version 2.38.0 (20140413.2041)
 -->
<!-- Title: src/gromacs/options/tests/abstractoptionstorage.cpp Pages: 1 -->
<svg width="1649pt" height="386pt"
 viewBox="0.00 0.00 1648.85 386.00" xmlns="http://www.w3.org/2000/svg" xmlns:xlink="http://www.w3.org/1999/xlink">
<g id="graph0" class="graph" transform="scale(1 1) rotate(0) translate(4 382)">
<title>src/gromacs/options/tests/abstractoptionstorage.cpp</title>
<polygon fill="white" stroke="none" points="-4,4 -4,-382 1644.85,-382 1644.85,4 -4,4"/>
<!-- Node1 -->
<g id="node1" class="node"><title>Node1</title>
<polygon fill="#bfbfbf" stroke="black" points="867.846,-347.5 867.846,-377.5 1024.85,-377.5 1024.85,-347.5 867.846,-347.5"/>
<text text-anchor="start" x="875.846" y="-365.5" font-family="Helvetica,sans-Serif" font-size="10.00">src/gromacs/options</text>
<text text-anchor="middle" x="946.346" y="-354.5" font-family="Helvetica,sans-Serif" font-size="10.00">/tests/abstractoptionstorage.cpp</text>
</g>
<!-- Node2 -->
<g id="node2" class="node"><title>Node2</title>
<g id="a_node2"><a xlink:href="gmxpre_8h.xhtml" target="_top" xlink:title="Prerequisite header file for GROMACS build. ">
<polygon fill="white" stroke="black" points="250.846,-291.5 250.846,-310.5 307.846,-310.5 307.846,-291.5 250.846,-291.5"/>
<text text-anchor="middle" x="279.346" y="-298.5" font-family="Helvetica,sans-Serif" font-size="10.00">gmxpre.h</text>
</a>
</g>
</g>
<!-- Node1&#45;&gt;Node2 -->
<g id="edge1" class="edge"><title>Node1&#45;&gt;Node2</title>
<path fill="none" stroke="midnightblue" d="M867.678,-358.305C749.001,-352.771 517.316,-339.18 322.346,-311 320.883,-310.789 319.396,-310.558 317.896,-310.311"/>
<polygon fill="midnightblue" stroke="midnightblue" points="318.402,-306.846 307.938,-308.507 317.153,-313.734 318.402,-306.846"/>
</g>
<!-- Node3 -->
<g id="node3" class="node"><title>Node3</title>
<polygon fill="white" stroke="#bfbfbf" points="547.846,-123.5 547.846,-142.5 588.846,-142.5 588.846,-123.5 547.846,-123.5"/>
<text text-anchor="middle" x="568.346" y="-130.5" font-family="Helvetica,sans-Serif" font-size="10.00">string</text>
</g>
<!-- Node1&#45;&gt;Node3 -->
<g id="edge2" class="edge"><title>Node1&#45;&gt;Node3</title>
<path fill="none" stroke="midnightblue" d="M867.773,-360.065C722.706,-356.597 424.686,-345.333 393.346,-311 354.738,-268.706 309.126,-312.106 465.346,-179 486.503,-160.973 516.005,-149.075 538.014,-142.067"/>
<polygon fill="midnightblue" stroke="midnightblue" points="539.282,-145.34 547.844,-139.1 537.26,-138.638 539.282,-145.34"/>
</g>
<!-- Node4 -->
<g id="node4" class="node"><title>Node4</title>
<polygon fill="white" stroke="#bfbfbf" points="883.346,-123.5 883.346,-142.5 927.346,-142.5 927.346,-123.5 883.346,-123.5"/>
<text text-anchor="middle" x="905.346" y="-130.5" font-family="Helvetica,sans-Serif" font-size="10.00">vector</text>
</g>
<!-- Node1&#45;&gt;Node4 -->
<g id="edge3" class="edge"><title>Node1&#45;&gt;Node4</title>
<path fill="none" stroke="midnightblue" d="M980.958,-347.388C1027.34,-326.252 1100.85,-283.622 1073.35,-235 1057.89,-207.668 977.413,-167.256 933.693,-146.826"/>
<polygon fill="midnightblue" stroke="midnightblue" points="934.994,-143.571 924.448,-142.548 932.054,-149.924 934.994,-143.571"/>
</g>
<!-- Node5 -->
<g id="node5" class="node"><title>Node5</title>
<polygon fill="white" stroke="#bfbfbf" points="1326.35,-291.5 1326.35,-310.5 1412.35,-310.5 1412.35,-291.5 1326.35,-291.5"/>
<text text-anchor="middle" x="1369.35" y="-298.5" font-family="Helvetica,sans-Serif" font-size="10.00">gmock/gmock.h</text>
</g>
<!-- Node1&#45;&gt;Node5 -->
<g id="edge4" class="edge"><title>Node1&#45;&gt;Node5</title>
<path fill="none" stroke="midnightblue" d="M1024.94,-351.106C1099.1,-341.192 1213.36,-325.642 1312.35,-311 1313.6,-310.814 1314.87,-310.625 1316.15,-310.433"/>
<polygon fill="midnightblue" stroke="midnightblue" points="1316.74,-313.884 1326.1,-308.919 1315.69,-306.964 1316.74,-313.884"/>
</g>
<!-- Node6 -->
<g id="node6" class="node"><title>Node6</title>
<polygon fill="white" stroke="#bfbfbf" points="1569.85,-179.5 1569.85,-198.5 1640.85,-198.5 1640.85,-179.5 1569.85,-179.5"/>
<text text-anchor="middle" x="1605.35" y="-186.5" font-family="Helvetica,sans-Serif" font-size="10.00">gtest/gtest.h</text>
</g>
<!-- Node1&#45;&gt;Node6 -->
<g id="edge5" class="edge"><title>Node1&#45;&gt;Node6</title>
<path fill="none" stroke="midnightblue" d="M1013.01,-347.473C1057.9,-337.799 1118.35,-324.326 1171.35,-311 1318.24,-274.063 1491.23,-223.774 1566.79,-201.466"/>
<polygon fill="midnightblue" stroke="midnightblue" points="1568.19,-204.7 1576.79,-198.508 1566.21,-197.988 1568.19,-204.7"/>
</g>
<!-- Node7 -->
<g id="node7" class="node"><title>Node7</title>
<g id="a_node7"><a xlink:href="abstractoption_8h.xhtml" target="_top" xlink:title="Defines gmx::AbstractOption, gmx::OptionTemplate and gmx::OptionInfo. ">
<polygon fill="white" stroke="black" points="487.846,-179.5 487.846,-198.5 648.846,-198.5 648.846,-179.5 487.846,-179.5"/>
<text text-anchor="middle" x="568.346" y="-186.5" font-family="Helvetica,sans-Serif" font-size="10.00">gromacs/options/abstractoption.h</text>
</a>
</g>
</g>
<!-- Node1&#45;&gt;Node7 -->
<g id="edge6" class="edge"><title>Node1&#45;&gt;Node7</title>
<path fill="none" stroke="midnightblue" d="M867.717,-353.127C757.348,-339.57 565.245,-308.756 523.346,-255 510.294,-238.255 529.445,-218.013 546.648,-204.615"/>
<polygon fill="midnightblue" stroke="midnightblue" points="548.802,-207.376 554.787,-198.633 544.656,-201.735 548.802,-207.376"/>
</g>
<!-- Node12 -->
<g id="node12" class="node"><title>Node12</title>
<g id="a_node12"><a xlink:href="options_2options_8h.xhtml" target="_top" xlink:title="Declares gmx::Options. ">
<polygon fill="white" stroke="black" points="402.846,-291.5 402.846,-310.5 533.846,-310.5 533.846,-291.5 402.846,-291.5"/>
<text text-anchor="middle" x="468.346" y="-298.5" font-family="Helvetica,sans-Serif" font-size="10.00">gromacs/options/options.h</text>
</a>
</g>
</g>
<!-- Node1&#45;&gt;Node12 -->
<g id="edge13" class="edge"><title>Node1&#45;&gt;Node12</title>
<path fill="none" stroke="midnightblue" d="M867.682,-351.708C777.986,-340.543 632.374,-322.418 543.967,-311.413"/>
<polygon fill="midnightblue" stroke="midnightblue" points="544.363,-307.935 534.007,-310.173 543.498,-314.882 544.363,-307.935"/>
</g>
<!-- Node19 -->
<g id="node19" class="node"><title>Node19</title>
<g id="a_node19"><a xlink:href="optionsassigner_8h.xhtml" target="_top" xlink:title="Declares gmx::OptionsAssigner. ">
<polygon fill="white" stroke="black" points="225.346,-179.5 225.346,-198.5 393.346,-198.5 393.346,-179.5 225.346,-179.5"/>
<text text-anchor="middle" x="309.346" y="-186.5" font-family="Helvetica,sans-Serif" font-size="10.00">gromacs/options/optionsassigner.h</text>
</a>
</g>
</g>
<!-- Node1&#45;&gt;Node19 -->
<g id="edge23" class="edge"><title>Node1&#45;&gt;Node19</title>
<path fill="none" stroke="midnightblue" d="M867.798,-359.204C717.495,-354.167 400.472,-340.191 360.346,-311 326.956,-286.709 315.284,-236.22 311.313,-208.764"/>
<polygon fill="midnightblue" stroke="midnightblue" points="314.75,-208.042 310.042,-198.551 307.804,-208.907 314.75,-208.042"/>
</g>
<!-- Node20 -->
<g id="node20" class="node"><title>Node20</title>
<g id="a_node20"><a xlink:href="optionstoragetemplate_8h.xhtml" target="_top" xlink:title="Defines gmx::OptionStorageTemplate template. ">
<polygon fill="white" stroke="black" points="724.346,-235.5 724.346,-254.5 920.346,-254.5 920.346,-235.5 724.346,-235.5"/>
<text text-anchor="middle" x="822.346" y="-242.5" font-family="Helvetica,sans-Serif" font-size="10.00">gromacs/options/optionstoragetemplate.h</text>
</a>
</g>
</g>
<!-- Node1&#45;&gt;Node20 -->
<g id="edge26" class="edge"><title>Node1&#45;&gt;Node20</title>
<path fill="none" stroke="midnightblue" d="M931.141,-347.337C907.784,-325.581 863.242,-284.093 839.026,-261.537"/>
<polygon fill="midnightblue" stroke="midnightblue" points="841.356,-258.924 831.653,-254.669 836.585,-264.046 841.356,-258.924"/>
</g>
<!-- Node22 -->
<g id="node22" class="node"><title>Node22</title>
<g id="a_node22"><a xlink:href="exceptions_8h.xhtml" target="_top" xlink:title="Declares common exception classes and macros for fatal error handling. ">
<polygon fill="white" stroke="black" points="1079.85,-179.5 1079.85,-198.5 1218.85,-198.5 1218.85,-179.5 1079.85,-179.5"/>
<text text-anchor="middle" x="1149.35" y="-186.5" font-family="Helvetica,sans-Serif" font-size="10.00">gromacs/utility/exceptions.h</text>
</a>
</g>
</g>
<!-- Node1&#45;&gt;Node22 -->
<g id="edge50" class="edge"><title>Node1&#45;&gt;Node22</title>
<path fill="none" stroke="midnightblue" d="M1025.11,-351.581C1053.76,-344.431 1084.44,-332.136 1106.35,-311 1135,-283.356 1144.6,-235.402 1147.79,-208.924"/>
<polygon fill="midnightblue" stroke="midnightblue" points="1151.3,-209.017 1148.82,-198.715 1144.33,-208.311 1151.3,-209.017"/>
</g>
<!-- Node28 -->
<g id="node28" class="node"><title>Node28</title>
<g id="a_node28"><a xlink:href="testasserts_8h.xhtml" target="_top" xlink:title="Extra assertions for unit tests. ">
<polygon fill="white" stroke="black" points="1158.85,-235.5 1158.85,-254.5 1269.85,-254.5 1269.85,-235.5 1158.85,-235.5"/>
<text text-anchor="middle" x="1214.35" y="-242.5" font-family="Helvetica,sans-Serif" font-size="10.00">testutils/testasserts.h</text>
</a>
</g>
</g>
<!-- Node1&#45;&gt;Node28 -->
<g id="edge51" class="edge"><title>Node1&#45;&gt;Node28</title>
<path fill="none" stroke="midnightblue" d="M1024.88,-350.762C1062.65,-343.329 1107.59,-331.034 1144.35,-311 1166.99,-298.659 1187.95,-277.331 1200.92,-262.486"/>
<polygon fill="midnightblue" stroke="midnightblue" points="1203.79,-264.505 1207.58,-254.611 1198.45,-259.983 1203.79,-264.505"/>
</g>
<!-- Node30 -->
<g id="node30" class="node"><title>Node30</title>
<g id="a_node30"><a xlink:href="testexceptions_8h.xhtml" target="_top" xlink:title="Exception classes for errors in tests. ">
<polygon fill="white" stroke="black" points="938.346,-235.5 938.346,-254.5 1064.35,-254.5 1064.35,-235.5 938.346,-235.5"/>
<text text-anchor="middle" x="1001.35" y="-242.5" font-family="Helvetica,sans-Serif" font-size="10.00">testutils/testexceptions.h</text>
</a>
</g>
</g>
<!-- Node1&#45;&gt;Node30 -->
<g id="edge57" class="edge"><title>Node1&#45;&gt;Node30</title>
<path fill="none" stroke="midnightblue" d="M953.09,-347.337C963.09,-326.338 981.843,-286.955 992.795,-263.958"/>
<polygon fill="midnightblue" stroke="midnightblue" points="996.078,-265.203 997.218,-254.669 989.758,-262.193 996.078,-265.203"/>
</g>
<!-- Node7&#45;&gt;Node3 -->
<g id="edge7" class="edge"><title>Node7&#45;&gt;Node3</title>
<path fill="none" stroke="midnightblue" d="M568.346,-179.083C568.346,-172.006 568.346,-161.861 568.346,-152.986"/>
<polygon fill="midnightblue" stroke="midnightblue" points="571.846,-152.751 568.346,-142.751 564.846,-152.751 571.846,-152.751"/>
</g>
<!-- Node7&#45;&gt;Node4 -->
<g id="edge8" class="edge"><title>Node7&#45;&gt;Node4</title>
<path fill="none" stroke="midnightblue" d="M621.745,-179.444C692.506,-168.105 815.145,-148.453 873.16,-139.157"/>
<polygon fill="midnightblue" stroke="midnightblue" points="873.893,-142.585 883.213,-137.547 872.785,-135.673 873.893,-142.585"/>
</g>
<!-- Node8 -->
<g id="node8" class="node"><title>Node8</title>
<g id="a_node8"><a xlink:href="optionflags_8h.xhtml" target="_top" xlink:title="Defines flags used in option implementation. ">
<polygon fill="white" stroke="black" points="90.8459,-123.5 90.8459,-142.5 237.846,-142.5 237.846,-123.5 90.8459,-123.5"/>
<text text-anchor="middle" x="164.346" y="-130.5" font-family="Helvetica,sans-Serif" font-size="10.00">gromacs/options/optionflags.h</text>
</a>
</g>
</g>
<!-- Node7&#45;&gt;Node8 -->
<g id="edge9" class="edge"><title>Node7&#45;&gt;Node8</title>
<path fill="none" stroke="midnightblue" d="M504.331,-179.444C431.933,-169.767 314.238,-154.035 238.063,-143.853"/>
<polygon fill="midnightblue" stroke="midnightblue" points="238.437,-140.372 228.061,-142.516 237.51,-147.311 238.437,-140.372"/>
</g>
<!-- Node10 -->
<g id="node10" class="node"><title>Node10</title>
<g id="a_node10"><a xlink:href="classhelpers_8h.xhtml" target="_top" xlink:title="Declares common utility classes and macros. ">
<polygon fill="white" stroke="black" points="310.346,-123.5 310.346,-142.5 456.346,-142.5 456.346,-123.5 310.346,-123.5"/>
<text text-anchor="middle" x="383.346" y="-130.5" font-family="Helvetica,sans-Serif" font-size="10.00">gromacs/utility/classhelpers.h</text>
</a>
</g>
</g>
<!-- Node7&#45;&gt;Node10 -->
<g id="edge11" class="edge"><title>Node7&#45;&gt;Node10</title>
<path fill="none" stroke="midnightblue" d="M539.032,-179.444C507.504,-170.241 457.215,-155.562 422.36,-145.388"/>
<polygon fill="midnightblue" stroke="midnightblue" points="423.103,-141.959 412.523,-142.516 421.141,-148.678 423.103,-141.959"/>
</g>
<!-- Node9 -->
<g id="node9" class="node"><title>Node9</title>
<g id="a_node9"><a xlink:href="flags_8h.xhtml" target="_top" xlink:title="Declares gmx::FlagsTemplate. ">
<polygon fill="white" stroke="black" points="107.846,-62 107.846,-81 220.846,-81 220.846,-62 107.846,-62"/>
<text text-anchor="middle" x="164.346" y="-69" font-family="Helvetica,sans-Serif" font-size="10.00">gromacs/utility/flags.h</text>
</a>
</g>
</g>
<!-- Node8&#45;&gt;Node9 -->
<g id="edge10" class="edge"><title>Node8&#45;&gt;Node9</title>
<path fill="none" stroke="midnightblue" d="M164.346,-123.475C164.346,-115.08 164.346,-101.981 164.346,-91.1631"/>
<polygon fill="midnightblue" stroke="midnightblue" points="167.846,-91.0091 164.346,-81.0091 160.846,-91.0091 167.846,-91.0091"/>
</g>
<!-- Node11 -->
<g id="node11" class="node"><title>Node11</title>
<polygon fill="white" stroke="#bfbfbf" points="791.346,-62 791.346,-81 843.346,-81 843.346,-62 791.346,-62"/>
<text text-anchor="middle" x="817.346" y="-69" font-family="Helvetica,sans-Serif" font-size="10.00">memory</text>
</g>
<!-- Node10&#45;&gt;Node11 -->
<g id="edge12" class="edge"><title>Node10&#45;&gt;Node11</title>
<path fill="none" stroke="midnightblue" d="M445.527,-123.475C537.344,-110.887 706.32,-87.7213 780.636,-77.5328"/>
<polygon fill="midnightblue" stroke="midnightblue" points="781.462,-80.9524 790.894,-76.1265 780.511,-74.0173 781.462,-80.9524"/>
</g>
<!-- Node12&#45;&gt;Node3 -->
<g id="edge14" class="edge"><title>Node12&#45;&gt;Node3</title>
<path fill="none" stroke="midnightblue" d="M466.434,-291.459C462.207,-270.305 454.251,-214.615 478.346,-179 491.996,-158.824 517.478,-147.276 537.852,-140.944"/>
<polygon fill="midnightblue" stroke="midnightblue" points="538.993,-144.258 547.66,-138.164 537.085,-137.523 538.993,-144.258"/>
</g>
<!-- Node12&#45;&gt;Node10 -->
<g id="edge22" class="edge"><title>Node12&#45;&gt;Node10</title>
<path fill="none" stroke="midnightblue" d="M402.44,-295.557C286.495,-286.218 53.6145,-260.147 4.34588,-199 -1.23117,-192.078 -1.55735,-185.646 4.34588,-179 14.0806,-168.041 191.483,-150.728 300.081,-141.084"/>
<polygon fill="midnightblue" stroke="midnightblue" points="300.39,-144.57 310.043,-140.204 299.774,-137.598 300.39,-144.57"/>
</g>
<!-- Node13 -->
<g id="node13" class="node"><title>Node13</title>
<g id="a_node13"><a xlink:href="ioptionscontainer_8h.xhtml" target="_top" xlink:title="Declares gmx::IOptionsContainer. ">
<polygon fill="white" stroke="black" points="532.846,-235.5 532.846,-254.5 705.846,-254.5 705.846,-235.5 532.846,-235.5"/>
<text text-anchor="middle" x="619.346" y="-242.5" font-family="Helvetica,sans-Serif" font-size="10.00">gromacs/options/ioptionscontainer.h</text>
</a>
</g>
</g>
<!-- Node12&#45;&gt;Node13 -->
<g id="edge15" class="edge"><title>Node12&#45;&gt;Node13</title>
<path fill="none" stroke="midnightblue" d="M492.272,-291.444C517.565,-282.399 557.648,-268.064 586.026,-257.916"/>
<polygon fill="midnightblue" stroke="midnightblue" points="587.294,-261.179 595.531,-254.516 584.937,-254.588 587.294,-261.179"/>
</g>
<!-- Node13&#45;&gt;Node7 -->
<g id="edge16" class="edge"><title>Node13&#45;&gt;Node7</title>
<path fill="none" stroke="midnightblue" d="M610.924,-235.083C603.498,-227.22 592.494,-215.569 583.534,-206.081"/>
<polygon fill="midnightblue" stroke="midnightblue" points="586.022,-203.618 576.611,-198.751 580.932,-208.424 586.022,-203.618"/>
</g>
<!-- Node14 -->
<g id="node14" class="node"><title>Node14</title>
<g id="a_node14"><a xlink:href="gmxassert_8h.xhtml" target="_top" xlink:title="Defines assert macros customized for Gromacs. ">
<polygon fill="white" stroke="black" points="945.846,-123.5 945.846,-142.5 1082.85,-142.5 1082.85,-123.5 945.846,-123.5"/>
<text text-anchor="middle" x="1014.35" y="-130.5" font-family="Helvetica,sans-Serif" font-size="10.00">gromacs/utility/gmxassert.h</text>
</a>
</g>
</g>
<!-- Node13&#45;&gt;Node14 -->
<g id="edge17" class="edge"><title>Node13&#45;&gt;Node14</title>
<path fill="none" stroke="midnightblue" d="M650.012,-235.46C720.53,-215.822 894.23,-167.45 973.597,-145.348"/>
<polygon fill="midnightblue" stroke="midnightblue" points="975.005,-148.589 983.699,-142.535 973.127,-141.846 975.005,-148.589"/>
</g>
<!-- Node15 -->
<g id="node15" class="node"><title>Node15</title>
<g id="a_node15"><a xlink:href="basedefinitions_8h.xhtml" target="_top" xlink:title="Basic types and macros used throughout GROMACS. ">
<polygon fill="white" stroke="black" points="1002.85,-62 1002.85,-81 1159.85,-81 1159.85,-62 1002.85,-62"/>
<text text-anchor="middle" x="1081.35" y="-69" font-family="Helvetica,sans-Serif" font-size="10.00">gromacs/utility/basedefinitions.h</text>
</a>
</g>
</g>
<!-- Node14&#45;&gt;Node15 -->
<g id="edge18" class="edge"><title>Node14&#45;&gt;Node15</title>
<path fill="none" stroke="midnightblue" d="M1023.95,-123.475C1034.39,-114.197 1051.31,-99.1706 1064.08,-87.831"/>
<polygon fill="midnightblue" stroke="midnightblue" points="1066.61,-90.2663 1071.76,-81.0091 1061.96,-85.0323 1066.61,-90.2663"/>
</g>
<!-- Node18 -->
<g id="node18" class="node"><title>Node18</title>
<g id="a_node18"><a xlink:href="current__function_8h.xhtml" target="_top" xlink:title="Declares GMX_CURRENT_FUNCTION for getting the current function name. ">
<polygon fill="white" stroke="black" points="1366.85,-56.5 1366.85,-86.5 1479.85,-86.5 1479.85,-56.5 1366.85,-56.5"/>
<text text-anchor="start" x="1374.85" y="-74.5" font-family="Helvetica,sans-Serif" font-size="10.00">gromacs/utility/current</text>
<text text-anchor="middle" x="1423.35" y="-63.5" font-family="Helvetica,sans-Serif" font-size="10.00">_function.h</text>
</a>
</g>
</g>
<!-- Node14&#45;&gt;Node18 -->
<g id="edge21" class="edge"><title>Node14&#45;&gt;Node18</title>
<path fill="none" stroke="midnightblue" d="M1072.95,-123.475C1147.99,-112.558 1277.73,-93.6839 1356.53,-82.2199"/>
<polygon fill="midnightblue" stroke="midnightblue" points="1357.44,-85.6252 1366.83,-80.722 1356.43,-78.6981 1357.44,-85.6252"/>
</g>
<!-- Node16 -->
<g id="node16" class="node"><title>Node16</title>
<polygon fill="white" stroke="#bfbfbf" points="1020.85,-0.5 1020.85,-19.5 1069.85,-19.5 1069.85,-0.5 1020.85,-0.5"/>
<text text-anchor="middle" x="1045.35" y="-7.5" font-family="Helvetica,sans-Serif" font-size="10.00">stdint.h</text>
</g>
<!-- Node15&#45;&gt;Node16 -->
<g id="edge19" class="edge"><title>Node15&#45;&gt;Node16</title>
<path fill="none" stroke="midnightblue" d="M1076.19,-61.9751C1070.89,-53.2268 1062.51,-39.3691 1055.82,-28.3093"/>
<polygon fill="midnightblue" stroke="midnightblue" points="1058.67,-26.2531 1050.49,-19.5091 1052.68,-29.8768 1058.67,-26.2531"/>
</g>
<!-- Node17 -->
<g id="node17" class="node"><title>Node17</title>
<polygon fill="white" stroke="#bfbfbf" points="1087.85,-0.5 1087.85,-19.5 1146.85,-19.5 1146.85,-0.5 1087.85,-0.5"/>
<text text-anchor="middle" x="1117.35" y="-7.5" font-family="Helvetica,sans-Serif" font-size="10.00">inttypes.h</text>
</g>
<!-- Node15&#45;&gt;Node17 -->
<g id="edge20" class="edge"><title>Node15&#45;&gt;Node17</title>
<path fill="none" stroke="midnightblue" d="M1086.5,-61.9751C1091.8,-53.2268 1100.18,-39.3691 1106.87,-28.3093"/>
<polygon fill="midnightblue" stroke="midnightblue" points="1110.02,-29.8768 1112.2,-19.5091 1104.03,-26.2531 1110.02,-29.8768"/>
</g>
<!-- Node19&#45;&gt;Node3 -->
<g id="edge24" class="edge"><title>Node19&#45;&gt;Node3</title>
<path fill="none" stroke="midnightblue" d="M350.385,-179.444C402.501,-168.578 491.23,-150.078 537.778,-140.373"/>
<polygon fill="midnightblue" stroke="midnightblue" points="538.506,-143.797 547.581,-138.329 537.077,-136.944 538.506,-143.797"/>
</g>
<!-- Node19&#45;&gt;Node10 -->
<g id="edge25" class="edge"><title>Node19&#45;&gt;Node10</title>
<path fill="none" stroke="midnightblue" d="M321.235,-179.324C332.496,-171.107 349.632,-158.602 363.055,-148.807"/>
<polygon fill="midnightblue" stroke="midnightblue" points="365.225,-151.556 371.24,-142.834 361.099,-145.901 365.225,-151.556"/>
</g>
<!-- Node20&#45;&gt;Node3 -->
<g id="edge28" class="edge"><title>Node20&#45;&gt;Node3</title>
<path fill="none" stroke="midnightblue" d="M797.033,-235.404C772.353,-226.832 733.889,-212.963 701.346,-199 663.063,-182.574 619.938,-160.889 593.451,-147.191"/>
<polygon fill="midnightblue" stroke="midnightblue" points="594.972,-144.037 584.485,-142.53 591.744,-150.248 594.972,-144.037"/>
</g>
<!-- Node20&#45;&gt;Node4 -->
<g id="edge29" class="edge"><title>Node20&#45;&gt;Node4</title>
<path fill="none" stroke="midnightblue" d="M838.145,-235.394C851.335,-227.489 869.784,-214.644 881.346,-199 891.613,-185.107 897.914,-166.346 901.467,-152.551"/>
<polygon fill="midnightblue" stroke="midnightblue" points="904.893,-153.273 903.751,-142.74 898.075,-151.686 904.893,-153.273"/>
</g>
<!-- Node20&#45;&gt;Node7 -->
<g id="edge30" class="edge"><title>Node20&#45;&gt;Node7</title>
<path fill="none" stroke="midnightblue" d="M782.099,-235.444C737.696,-226.004 666.192,-210.802 618.257,-200.611"/>
<polygon fill="midnightblue" stroke="midnightblue" points="618.914,-197.173 608.405,-198.516 617.458,-204.02 618.914,-197.173"/>
</g>
<!-- Node20&#45;&gt;Node11 -->
<g id="edge27" class="edge"><title>Node20&#45;&gt;Node11</title>
<path fill="none" stroke="midnightblue" d="M822.091,-235.26C821.315,-208.651 818.97,-128.215 817.895,-91.3382"/>
<polygon fill="midnightblue" stroke="midnightblue" points="821.384,-90.9131 817.594,-81.0194 814.387,-91.1171 821.384,-90.9131"/>
</g>
<!-- Node20&#45;&gt;Node14 -->
<g id="edge49" class="edge"><title>Node20&#45;&gt;Node14</title>
<path fill="none" stroke="midnightblue" d="M837.412,-235.368C870.639,-216.332 950.436,-170.615 990.52,-147.65"/>
<polygon fill="midnightblue" stroke="midnightblue" points="992.413,-150.599 999.35,-142.591 988.933,-144.526 992.413,-150.599"/>
</g>
<!-- Node20&#45;&gt;Node15 -->
<g id="edge35" class="edge"><title>Node20&#45;&gt;Node15</title>
<path fill="none" stroke="midnightblue" d="M825.004,-235.185C832.767,-209.994 856.016,-138.505 874.346,-123 907.086,-95.3055 952.622,-82.3376 992.651,-76.4378"/>
<polygon fill="midnightblue" stroke="midnightblue" points="993.254,-79.8883 1002.7,-75.0855 992.321,-72.9508 993.254,-79.8883"/>
</g>
<!-- Node21 -->
<g id="node21" class="node"><title>Node21</title>
<g id="a_node21"><a xlink:href="abstractoptionstorage_8h.xhtml" target="_top" xlink:title="Declares gmx::AbstractOptionStorage. ">
<polygon fill="white" stroke="black" points="13.3459,-179.5 13.3459,-198.5 207.346,-198.5 207.346,-179.5 13.3459,-179.5"/>
<text text-anchor="middle" x="110.346" y="-186.5" font-family="Helvetica,sans-Serif" font-size="10.00">gromacs/options/abstractoptionstorage.h</text>
</a>
</g>
</g>
<!-- Node20&#45;&gt;Node21 -->
<g id="edge31" class="edge"><title>Node20&#45;&gt;Node21</title>
<path fill="none" stroke="midnightblue" d="M724.339,-235.786C720.967,-235.518 717.629,-235.255 714.346,-235 496.345,-218.038 439.237,-216.432 217.392,-199.073"/>
<polygon fill="midnightblue" stroke="midnightblue" points="217.631,-195.581 207.388,-198.288 217.083,-202.56 217.631,-195.581"/>
</g>
<!-- Node20&#45;&gt;Node22 -->
<g id="edge36" class="edge"><title>Node20&#45;&gt;Node22</title>
<path fill="none" stroke="midnightblue" d="M874.16,-235.444C932.161,-225.865 1026.08,-210.356 1087.78,-200.167"/>
<polygon fill="midnightblue" stroke="midnightblue" points="1088.48,-203.599 1097.77,-198.516 1087.34,-196.693 1088.48,-203.599"/>
</g>
<!-- Node21&#45;&gt;Node3 -->
<g id="edge32" class="edge"><title>Node21&#45;&gt;Node3</title>
<path fill="none" stroke="midnightblue" d="M182.665,-179.473C284.325,-167.487 465.129,-146.17 537.32,-137.658"/>
<polygon fill="midnightblue" stroke="midnightblue" points="538.033,-141.098 547.554,-136.451 537.213,-134.147 538.033,-141.098"/>
</g>
<!-- Node21&#45;&gt;Node8 -->
<g id="edge33" class="edge"><title>Node21&#45;&gt;Node8</title>
<path fill="none" stroke="midnightblue" d="M119.263,-179.083C127.126,-171.22 138.777,-159.569 148.265,-150.081"/>
<polygon fill="midnightblue" stroke="midnightblue" points="150.999,-152.297 155.595,-142.751 146.049,-147.347 150.999,-152.297"/>
</g>
<!-- Node21&#45;&gt;Node10 -->
<g id="edge34" class="edge"><title>Node21&#45;&gt;Node10</title>
<path fill="none" stroke="midnightblue" d="M153.604,-179.444C201.527,-169.964 278.824,-154.675 330.346,-144.483"/>
<polygon fill="midnightblue" stroke="midnightblue" points="331.16,-147.89 340.291,-142.516 329.801,-141.023 331.16,-147.89"/>
</g>
<!-- Node22&#45;&gt;Node3 -->
<g id="edge41" class="edge"><title>Node22&#45;&gt;Node3</title>
<path fill="none" stroke="midnightblue" d="M1079.84,-181.54C953.067,-169.757 689.07,-145.22 599.129,-136.861"/>
<polygon fill="midnightblue" stroke="midnightblue" points="599.325,-133.364 589.044,-135.924 598.677,-140.334 599.325,-133.364"/>
</g>
<!-- Node22&#45;&gt;Node4 -->
<g id="edge44" class="edge"><title>Node22&#45;&gt;Node4</title>
<path fill="none" stroke="midnightblue" d="M1104.9,-179.439C1063.97,-171.361 1001.37,-158.514 937.517,-142.906"/>
<polygon fill="midnightblue" stroke="midnightblue" points="938.223,-139.475 927.676,-140.48 936.548,-146.272 938.223,-139.475"/>
</g>
<!-- Node22&#45;&gt;Node10 -->
<g id="edge46" class="edge"><title>Node22&#45;&gt;Node10</title>
<path fill="none" stroke="midnightblue" d="M1079.68,-183.089C938.444,-173.132 618.933,-150.608 466.84,-139.886"/>
<polygon fill="midnightblue" stroke="midnightblue" points="466.847,-136.378 456.626,-139.166 466.355,-143.361 466.847,-136.378"/>
</g>
<!-- Node22&#45;&gt;Node11 -->
<g id="edge40" class="edge"><title>Node22&#45;&gt;Node11</title>
<path fill="none" stroke="midnightblue" d="M1144.34,-179.169C1135.71,-164.849 1116.62,-136.78 1092.35,-123 1015.57,-79.4211 909.08,-72.2741 853.85,-71.7889"/>
<polygon fill="midnightblue" stroke="midnightblue" points="853.518,-68.2885 843.512,-71.7719 853.506,-75.2885 853.518,-68.2885"/>
</g>
<!-- Node22&#45;&gt;Node14 -->
<g id="edge48" class="edge"><title>Node22&#45;&gt;Node14</title>
<path fill="none" stroke="midnightblue" d="M1127.95,-179.444C1105.64,-170.517 1070.44,-156.439 1045.14,-146.317"/>
<polygon fill="midnightblue" stroke="midnightblue" points="1046.22,-142.981 1035.64,-142.516 1043.62,-149.48 1046.22,-142.981"/>
</g>
<!-- Node22&#45;&gt;Node15 -->
<g id="edge45" class="edge"><title>Node22&#45;&gt;Node15</title>
<path fill="none" stroke="midnightblue" d="M1147.18,-179.14C1143.77,-166.194 1136.39,-141.625 1125.35,-123 1117.75,-110.185 1106.73,-97.5474 1097.63,-88.1202"/>
<polygon fill="midnightblue" stroke="midnightblue" points="1100.08,-85.6275 1090.54,-81.0229 1095.13,-90.5729 1100.08,-85.6275"/>
</g>
<!-- Node22&#45;&gt;Node18 -->
<g id="edge47" class="edge"><title>Node22&#45;&gt;Node18</title>
<path fill="none" stroke="midnightblue" d="M1219.13,-184.625C1322.74,-178.889 1507.27,-165.608 1527.35,-143 1546.92,-120.955 1516.84,-102.537 1484.07,-90.06"/>
<polygon fill="midnightblue" stroke="midnightblue" points="1484.93,-86.6488 1474.34,-86.5412 1482.55,-93.232 1484.93,-86.6488"/>
</g>
<!-- Node23 -->
<g id="node23" class="node"><title>Node23</title>
<polygon fill="white" stroke="#bfbfbf" points="1254.85,-123.5 1254.85,-142.5 1297.85,-142.5 1297.85,-123.5 1254.85,-123.5"/>
<text text-anchor="middle" x="1276.35" y="-130.5" font-family="Helvetica,sans-Serif" font-size="10.00">cstdio</text>
</g>
<!-- Node22&#45;&gt;Node23 -->
<g id="edge37" class="edge"><title>Node22&#45;&gt;Node23</title>
<path fill="none" stroke="midnightblue" d="M1169.47,-179.444C1190.37,-170.557 1223.28,-156.563 1247.06,-146.451"/>
<polygon fill="midnightblue" stroke="midnightblue" points="1248.48,-149.65 1256.32,-142.516 1245.74,-143.208 1248.48,-149.65"/>
</g>
<!-- Node24 -->
<g id="node24" class="node"><title>Node24</title>
<polygon fill="white" stroke="#bfbfbf" points="1315.85,-123.5 1315.85,-142.5 1360.85,-142.5 1360.85,-123.5 1315.85,-123.5"/>
<text text-anchor="middle" x="1338.35" y="-130.5" font-family="Helvetica,sans-Serif" font-size="10.00">cstdlib</text>
</g>
<!-- Node22&#45;&gt;Node24 -->
<g id="edge38" class="edge"><title>Node22&#45;&gt;Node24</title>
<path fill="none" stroke="midnightblue" d="M1179.65,-179.419C1209.48,-170.962 1256.58,-157.576 1305.8,-143.437"/>
<polygon fill="midnightblue" stroke="midnightblue" points="1307.02,-146.727 1315.66,-140.6 1305.09,-139.999 1307.02,-146.727"/>
</g>
<!-- Node25 -->
<g id="node25" class="node"><title>Node25</title>
<polygon fill="white" stroke="#bfbfbf" points="1378.85,-123.5 1378.85,-142.5 1437.85,-142.5 1437.85,-123.5 1378.85,-123.5"/>
<text text-anchor="middle" x="1408.35" y="-130.5" font-family="Helvetica,sans-Serif" font-size="10.00">exception</text>
</g>
<!-- Node22&#45;&gt;Node25 -->
<g id="edge39" class="edge"><title>Node22&#45;&gt;Node25</title>
<path fill="none" stroke="midnightblue" d="M1193.46,-179.445C1235.95,-171.109 1302.29,-157.846 1368.33,-143.398"/>
<polygon fill="midnightblue" stroke="midnightblue" points="1369.48,-146.729 1378.5,-141.164 1367.98,-139.892 1369.48,-146.729"/>
</g>
<!-- Node26 -->
<g id="node26" class="node"><title>Node26</title>
<polygon fill="white" stroke="#bfbfbf" points="1456.35,-123.5 1456.35,-142.5 1518.35,-142.5 1518.35,-123.5 1456.35,-123.5"/>
<text text-anchor="middle" x="1487.35" y="-130.5" font-family="Helvetica,sans-Serif" font-size="10.00">type_traits</text>
</g>
<!-- Node22&#45;&gt;Node26 -->
<g id="edge42" class="edge"><title>Node22&#45;&gt;Node26</title>
<path fill="none" stroke="midnightblue" d="M1214.97,-179.462C1273.26,-171.567 1360.96,-158.923 1446.11,-143.128"/>
<polygon fill="midnightblue" stroke="midnightblue" points="1446.76,-146.567 1455.95,-141.287 1445.47,-139.687 1446.76,-146.567"/>
</g>
<!-- Node27 -->
<g id="node27" class="node"><title>Node27</title>
<polygon fill="white" stroke="#bfbfbf" points="1177.85,-123.5 1177.85,-142.5 1236.85,-142.5 1236.85,-123.5 1177.85,-123.5"/>
<text text-anchor="middle" x="1207.35" y="-130.5" font-family="Helvetica,sans-Serif" font-size="10.00">typeindex</text>
</g>
<!-- Node22&#45;&gt;Node27 -->
<g id="edge43" class="edge"><title>Node22&#45;&gt;Node27</title>
<path fill="none" stroke="midnightblue" d="M1158.66,-179.324C1167.24,-171.341 1180.16,-159.313 1190.53,-149.653"/>
<polygon fill="midnightblue" stroke="midnightblue" points="1192.92,-152.21 1197.86,-142.834 1188.15,-147.086 1192.92,-152.21"/>
</g>
<!-- Node28&#45;&gt;Node3 -->
<g id="edge52" class="edge"><title>Node28&#45;&gt;Node3</title>
<path fill="none" stroke="midnightblue" d="M1164.19,-235.46C1036.5,-213.716 701.915,-156.744 598.948,-139.211"/>
<polygon fill="midnightblue" stroke="midnightblue" points="599.351,-135.729 588.906,-137.501 598.176,-142.63 599.351,-135.729"/>
</g>
<!-- Node28&#45;&gt;Node6 -->
<g id="edge53" class="edge"><title>Node28&#45;&gt;Node6</title>
<path fill="none" stroke="midnightblue" d="M1269.85,-236.855C1356.08,-225.747 1516.25,-205.087 1559.74,-198.986"/>
<polygon fill="midnightblue" stroke="midnightblue" points="1560.47,-202.417 1569.85,-197.492 1559.44,-195.493 1560.47,-202.417"/>
</g>
<!-- Node28&#45;&gt;Node15 -->
<g id="edge54" class="edge"><title>Node28&#45;&gt;Node15</title>
<path fill="none" stroke="midnightblue" d="M1243.95,-235.468C1320.33,-213.325 1518.67,-154.915 1527.35,-143 1532.58,-135.814 1533.27,-129.63 1527.35,-123 1504.03,-96.8904 1293.69,-82.5531 1170.38,-76.326"/>
<polygon fill="midnightblue" stroke="midnightblue" points="1170.35,-72.8205 1160.19,-75.82 1170,-79.8118 1170.35,-72.8205"/>
</g>
<!-- Node28&#45;&gt;Node22 -->
<g id="edge55" class="edge"><title>Node28&#45;&gt;Node22</title>
<path fill="none" stroke="midnightblue" d="M1203.9,-235.324C1194.2,-227.263 1179.53,-215.077 1167.85,-205.369"/>
<polygon fill="midnightblue" stroke="midnightblue" points="1169.91,-202.532 1159.98,-198.834 1165.43,-207.916 1169.91,-202.532"/>
</g>
<!-- Node29 -->
<g id="node29" class="node"><title>Node29</title>
<g id="a_node29"><a xlink:href="real_8h.xhtml" target="_top" xlink:title="Declares real and related constants. ">
<polygon fill="white" stroke="black" points="1444.85,-179.5 1444.85,-198.5 1551.85,-198.5 1551.85,-179.5 1444.85,-179.5"/>
<text text-anchor="middle" x="1498.35" y="-186.5" font-family="Helvetica,sans-Serif" font-size="10.00">gromacs/utility/real.h</text>
</a>
</g>
</g>
<!-- Node28&#45;&gt;Node29 -->
<g id="edge56" class="edge"><title>Node28&#45;&gt;Node29</title>
<path fill="none" stroke="midnightblue" d="M1259.35,-235.444C1309.31,-225.944 1389.95,-210.611 1443.55,-200.42"/>
<polygon fill="midnightblue" stroke="midnightblue" points="1444.39,-203.823 1453.56,-198.516 1443.08,-196.946 1444.39,-203.823"/>
</g>
<!-- Node30&#45;&gt;Node3 -->
<g id="edge58" class="edge"><title>Node30&#45;&gt;Node3</title>
<path fill="none" stroke="midnightblue" d="M941.133,-235.487C875.852,-225.932 776.07,-210.294 739.346,-199 718.814,-192.686 715.266,-187.039 695.346,-179 662.791,-165.862 624.759,-152.662 598.86,-143.989"/>
<polygon fill="midnightblue" stroke="midnightblue" points="599.822,-140.62 589.229,-140.785 597.613,-147.263 599.822,-140.62"/>
</g>
<!-- Node30&#45;&gt;Node22 -->
<g id="edge59" class="edge"><title>Node30&#45;&gt;Node22</title>
<path fill="none" stroke="midnightblue" d="M1024.8,-235.444C1049.48,-226.438 1088.53,-212.189 1116.32,-202.049"/>
<polygon fill="midnightblue" stroke="midnightblue" points="1117.81,-205.232 1126,-198.516 1115.41,-198.656 1117.81,-205.232"/>
</g>
</g>
</svg>
