<?xml version="1.0" encoding="UTF-8" standalone="no"?>
<!DOCTYPE svg PUBLIC "-//W3C//DTD SVG 1.1//EN"
 "http://www.w3.org/Graphics/SVG/1.1/DTD/svg11.dtd">
<!-- Generated by graphviz version 2.38.0 (20140413.2041)
 -->
<!-- Title: src/gromacs/trajectoryanalysis/analysismodule.cpp Pages: 1 -->
<svg width="1766pt" height="408pt"
 viewBox="0.00 0.00 1765.50 408.00" xmlns="http://www.w3.org/2000/svg" xmlns:xlink="http://www.w3.org/1999/xlink">
<g id="graph0" class="graph" transform="scale(1 1) rotate(0) translate(4 404)">
<title>src/gromacs/trajectoryanalysis/analysismodule.cpp</title>
<polygon fill="white" stroke="none" points="-4,4 -4,-404 1761.5,-404 1761.5,4 -4,4"/>
<!-- Node1 -->
<g id="node1" class="node"><title>Node1</title>
<polygon fill="#bfbfbf" stroke="black" points="673.5,-369.5 673.5,-399.5 823.5,-399.5 823.5,-369.5 673.5,-369.5"/>
<text text-anchor="start" x="681.5" y="-387.5" font-family="Helvetica,sans-Serif" font-size="10.00">src/gromacs/trajectoryanalysis</text>
<text text-anchor="middle" x="748.5" y="-376.5" font-family="Helvetica,sans-Serif" font-size="10.00">/analysismodule.cpp</text>
</g>
<!-- Node2 -->
<g id="node2" class="node"><title>Node2</title>
<g id="a_node2"><a xlink:href="gmxpre_8h.xhtml" target="_top" xlink:title="Prerequisite header file for GROMACS build. ">
<polygon fill="white" stroke="black" points="0,-313.5 0,-332.5 57,-332.5 57,-313.5 0,-313.5"/>
<text text-anchor="middle" x="28.5" y="-320.5" font-family="Helvetica,sans-Serif" font-size="10.00">gmxpre.h</text>
</a>
</g>
</g>
<!-- Node1&#45;&gt;Node2 -->
<g id="edge1" class="edge"><title>Node1&#45;&gt;Node2</title>
<path fill="none" stroke="midnightblue" d="M673.269,-381.128C547.939,-376.451 288.711,-363.696 71.5,-333 70.0368,-332.793 68.5488,-332.566 67.0481,-332.323"/>
<polygon fill="midnightblue" stroke="midnightblue" points="67.5501,-328.857 57.0885,-330.532 66.311,-335.747 67.5501,-328.857"/>
</g>
<!-- Node3 -->
<g id="node3" class="node"><title>Node3</title>
<g id="a_node3"><a xlink:href="analysismodule_8h.xhtml" target="_top" xlink:title="Declares gmx::TrajectoryAnalysisModule and gmx::TrajectoryAnalysisModuleData. ">
<polygon fill="white" stroke="black" points="665.5,-313.5 665.5,-332.5 757.5,-332.5 757.5,-313.5 665.5,-313.5"/>
<text text-anchor="middle" x="711.5" y="-320.5" font-family="Helvetica,sans-Serif" font-size="10.00">analysismodule.h</text>
</a>
</g>
</g>
<!-- Node1&#45;&gt;Node3 -->
<g id="edge2" class="edge"><title>Node1&#45;&gt;Node3</title>
<path fill="none" stroke="midnightblue" d="M739.732,-369.399C734.521,-361.021 727.871,-350.327 722.334,-341.423"/>
<polygon fill="midnightblue" stroke="midnightblue" points="725.137,-339.302 716.884,-332.658 719.192,-342.998 725.137,-339.302"/>
</g>
<!-- Node7 -->
<g id="node7" class="node"><title>Node7</title>
<g id="a_node7"><a xlink:href="selection_2selection_8h.xhtml" target="_top" xlink:title="Declares gmx::Selection and supporting classes. ">
<polygon fill="white" stroke="black" points="521.5,-252 521.5,-271 667.5,-271 667.5,-252 521.5,-252"/>
<text text-anchor="middle" x="594.5" y="-259" font-family="Helvetica,sans-Serif" font-size="10.00">gromacs/selection/selection.h</text>
</a>
</g>
</g>
<!-- Node1&#45;&gt;Node7 -->
<g id="edge37" class="edge"><title>Node1&#45;&gt;Node7</title>
<path fill="none" stroke="midnightblue" d="M716.579,-369.4C698.057,-360.409 674.839,-347.701 656.5,-333 636.726,-317.149 618.101,-294.546 606.524,-279.24"/>
<polygon fill="midnightblue" stroke="midnightblue" points="609.324,-277.14 600.566,-271.177 603.694,-281.3 609.324,-277.14"/>
</g>
<!-- Node17 -->
<g id="node17" class="node"><title>Node17</title>
<polygon fill="white" stroke="#bfbfbf" points="56.5,-123.5 56.5,-142.5 96.5,-142.5 96.5,-123.5 56.5,-123.5"/>
<text text-anchor="middle" x="76.5" y="-130.5" font-family="Helvetica,sans-Serif" font-size="10.00">utility</text>
</g>
<!-- Node1&#45;&gt;Node17 -->
<g id="edge31" class="edge"><title>Node1&#45;&gt;Node17</title>
<path fill="none" stroke="midnightblue" d="M673.337,-372.085C522.114,-347.744 188.368,-286.654 104.5,-210 88.2377,-195.137 81.3932,-169.999 78.53,-152.731"/>
<polygon fill="midnightblue" stroke="midnightblue" points="81.9823,-152.142 77.1645,-142.706 75.0464,-153.087 81.9823,-152.142"/>
</g>
<!-- Node18 -->
<g id="node18" class="node"><title>Node18</title>
<g id="a_node18"><a xlink:href="gmxassert_8h.xhtml" target="_top" xlink:title="Defines assert macros customized for Gromacs. ">
<polygon fill="white" stroke="black" points="717,-123.5 717,-142.5 854,-142.5 854,-123.5 717,-123.5"/>
<text text-anchor="middle" x="785.5" y="-130.5" font-family="Helvetica,sans-Serif" font-size="10.00">gromacs/utility/gmxassert.h</text>
</a>
</g>
</g>
<!-- Node1&#45;&gt;Node18 -->
<g id="edge51" class="edge"><title>Node1&#45;&gt;Node18</title>
<path fill="none" stroke="midnightblue" d="M754.67,-369.195C758.699,-359.233 763.712,-345.538 766.5,-333 780.916,-268.168 784.396,-189.063 785.235,-153.251"/>
<polygon fill="midnightblue" stroke="midnightblue" points="788.742,-152.914 785.43,-142.85 781.743,-152.782 788.742,-152.914"/>
</g>
<!-- Node24 -->
<g id="node24" class="node"><title>Node24</title>
<polygon fill="white" stroke="#bfbfbf" points="814,-313.5 814,-332.5 849,-332.5 849,-313.5 814,-313.5"/>
<text text-anchor="middle" x="831.5" y="-320.5" font-family="Helvetica,sans-Serif" font-size="10.00">map</text>
</g>
<!-- Node1&#45;&gt;Node24 -->
<g id="edge30" class="edge"><title>Node1&#45;&gt;Node24</title>
<path fill="none" stroke="midnightblue" d="M768.17,-369.399C781.101,-360.129 797.986,-348.025 811.068,-338.647"/>
<polygon fill="midnightblue" stroke="midnightblue" points="813.335,-341.329 819.423,-332.658 809.256,-335.639 813.335,-341.329"/>
</g>
<!-- Node25 -->
<g id="node25" class="node"><title>Node25</title>
<g id="a_node25"><a xlink:href="analysisdata_2analysisdata_8h.xhtml" target="_top" xlink:title="Declares gmx::AnalysisData and gmx::AnalysisDataHandle. ">
<polygon fill="white" stroke="black" points="1520.5,-246.5 1520.5,-276.5 1632.5,-276.5 1632.5,-246.5 1520.5,-246.5"/>
<text text-anchor="start" x="1528.5" y="-264.5" font-family="Helvetica,sans-Serif" font-size="10.00">gromacs/analysisdata</text>
<text text-anchor="middle" x="1576.5" y="-253.5" font-family="Helvetica,sans-Serif" font-size="10.00">/analysisdata.h</text>
</a>
</g>
</g>
<!-- Node1&#45;&gt;Node25 -->
<g id="edge32" class="edge"><title>Node1&#45;&gt;Node25</title>
<path fill="none" stroke="midnightblue" d="M823.525,-374.592C959.909,-358.036 1257.4,-320.252 1506.5,-277 1507.77,-276.779 1509.06,-276.552 1510.35,-276.32"/>
<polygon fill="midnightblue" stroke="midnightblue" points="1511.2,-279.721 1520.4,-274.454 1509.93,-272.839 1511.2,-279.721"/>
</g>
<!-- Node28 -->
<g id="node28" class="node"><title>Node28</title>
<g id="a_node28"><a xlink:href="exceptions_8h.xhtml" target="_top" xlink:title="Declares common exception classes and macros for fatal error handling. ">
<polygon fill="white" stroke="black" points="927,-185 927,-204 1066,-204 1066,-185 927,-185"/>
<text text-anchor="middle" x="996.5" y="-192" font-family="Helvetica,sans-Serif" font-size="10.00">gromacs/utility/exceptions.h</text>
</a>
</g>
</g>
<!-- Node1&#45;&gt;Node28 -->
<g id="edge38" class="edge"><title>Node1&#45;&gt;Node28</title>
<path fill="none" stroke="midnightblue" d="M787.065,-369.462C808.747,-360.653 835.743,-348.107 857.5,-333 909.579,-296.839 959.659,-240.247 982.933,-212.289"/>
<polygon fill="midnightblue" stroke="midnightblue" points="985.87,-214.227 989.516,-204.28 980.462,-209.783 985.87,-214.227"/>
</g>
<!-- Node4 -->
<g id="node4" class="node"><title>Node4</title>
<polygon fill="white" stroke="#bfbfbf" points="1458.5,-62 1458.5,-81 1510.5,-81 1510.5,-62 1458.5,-62"/>
<text text-anchor="middle" x="1484.5" y="-69" font-family="Helvetica,sans-Serif" font-size="10.00">memory</text>
</g>
<!-- Node3&#45;&gt;Node4 -->
<g id="edge3" class="edge"><title>Node3&#45;&gt;Node4</title>
<path fill="none" stroke="midnightblue" d="M757.704,-315.365C811.279,-307.411 902.137,-293.122 979.5,-277 1220.31,-226.817 1365.08,-336.854 1516.5,-143 1529.49,-126.376 1514.52,-103.639 1501,-88.5321"/>
<polygon fill="midnightblue" stroke="midnightblue" points="1503.26,-85.8285 1493.82,-81.0114 1498.19,-90.6617 1503.26,-85.8285"/>
</g>
<!-- Node5 -->
<g id="node5" class="node"><title>Node5</title>
<polygon fill="white" stroke="#bfbfbf" points="539,-62 539,-81 580,-81 580,-62 539,-62"/>
<text text-anchor="middle" x="559.5" y="-69" font-family="Helvetica,sans-Serif" font-size="10.00">string</text>
</g>
<!-- Node3&#45;&gt;Node5 -->
<g id="edge4" class="edge"><title>Node3&#45;&gt;Node5</title>
<path fill="none" stroke="midnightblue" d="M712.232,-313.307C714.279,-283.29 717.113,-182.582 669.5,-123 649.784,-98.3281 615.305,-85.2195 590.192,-78.6005"/>
<polygon fill="midnightblue" stroke="midnightblue" points="590.953,-75.1835 580.409,-76.2209 589.298,-81.9852 590.953,-75.1835"/>
</g>
<!-- Node6 -->
<g id="node6" class="node"><title>Node6</title>
<polygon fill="white" stroke="#bfbfbf" points="616.5,-123.5 616.5,-142.5 660.5,-142.5 660.5,-123.5 616.5,-123.5"/>
<text text-anchor="middle" x="638.5" y="-130.5" font-family="Helvetica,sans-Serif" font-size="10.00">vector</text>
</g>
<!-- Node3&#45;&gt;Node6 -->
<g id="edge5" class="edge"><title>Node3&#45;&gt;Node6</title>
<path fill="none" stroke="midnightblue" d="M708.174,-313.434C697.034,-284.745 660.879,-191.633 645.513,-152.06"/>
<polygon fill="midnightblue" stroke="midnightblue" points="648.728,-150.672 641.846,-142.617 642.203,-153.206 648.728,-150.672"/>
</g>
<!-- Node3&#45;&gt;Node7 -->
<g id="edge6" class="edge"><title>Node3&#45;&gt;Node7</title>
<path fill="none" stroke="midnightblue" d="M694.737,-313.475C675.275,-303.578 642.955,-287.142 620.289,-275.615"/>
<polygon fill="midnightblue" stroke="midnightblue" points="621.732,-272.422 611.232,-271.009 618.559,-278.662 621.732,-272.422"/>
</g>
<!-- Node23 -->
<g id="node23" class="node"><title>Node23</title>
<g id="a_node23"><a xlink:href="classhelpers_8h.xhtml" target="_top" xlink:title="Declares common utility classes and macros. ">
<polygon fill="white" stroke="black" points="1361.5,-123.5 1361.5,-142.5 1507.5,-142.5 1507.5,-123.5 1361.5,-123.5"/>
<text text-anchor="middle" x="1434.5" y="-130.5" font-family="Helvetica,sans-Serif" font-size="10.00">gromacs/utility/classhelpers.h</text>
</a>
</g>
</g>
<!-- Node3&#45;&gt;Node23 -->
<g id="edge29" class="edge"><title>Node3&#45;&gt;Node23</title>
<path fill="none" stroke="midnightblue" d="M748.347,-313.471C826.178,-295.345 1012.95,-251.265 1168.5,-210 1249.88,-188.409 1344.55,-160.748 1396.14,-145.456"/>
<polygon fill="midnightblue" stroke="midnightblue" points="1397.27,-148.77 1405.86,-142.568 1395.28,-142.059 1397.27,-148.77"/>
</g>
<!-- Node7&#45;&gt;Node5 -->
<g id="edge7" class="edge"><title>Node7&#45;&gt;Node5</title>
<path fill="none" stroke="midnightblue" d="M521.37,-259.564C402.881,-256.962 175.077,-247.128 104.5,-210 69.8997,-191.798 60.9964,-179.693 47.5,-143 44.4315,-134.658 41.531,-129.587 47.5,-123 79.9368,-87.2064 423.139,-75.8457 528.75,-73.1838"/>
<polygon fill="midnightblue" stroke="midnightblue" points="528.856,-76.6824 538.768,-72.9397 528.686,-69.6845 528.856,-76.6824"/>
</g>
<!-- Node7&#45;&gt;Node6 -->
<g id="edge8" class="edge"><title>Node7&#45;&gt;Node6</title>
<path fill="none" stroke="midnightblue" d="M597.524,-251.805C604.62,-231.404 622.465,-180.1 632.097,-152.408"/>
<polygon fill="midnightblue" stroke="midnightblue" points="635.475,-153.351 635.455,-142.756 628.864,-151.051 635.475,-153.351"/>
</g>
<!-- Node8 -->
<g id="node8" class="node"><title>Node8</title>
<g id="a_node8"><a xlink:href="position_8h.xhtml" target="_top" xlink:title="API for handling positions. ">
<polygon fill="white" stroke="black" points="450,-185 450,-204 591,-204 591,-185 450,-185"/>
<text text-anchor="middle" x="520.5" y="-192" font-family="Helvetica,sans-Serif" font-size="10.00">gromacs/selection/position.h</text>
</a>
</g>
</g>
<!-- Node7&#45;&gt;Node8 -->
<g id="edge9" class="edge"><title>Node7&#45;&gt;Node8</title>
<path fill="none" stroke="midnightblue" d="M584.52,-251.734C572.648,-241.305 552.615,-223.709 538.116,-210.973"/>
<polygon fill="midnightblue" stroke="midnightblue" points="540.145,-208.097 530.322,-204.127 535.525,-213.356 540.145,-208.097"/>
</g>
<!-- Node11 -->
<g id="node11" class="node"><title>Node11</title>
<g id="a_node11"><a xlink:href="selectionenums_8h.xhtml" target="_top" xlink:title="Declares common types used in selections. ">
<polygon fill="white" stroke="black" points="113.5,-185 113.5,-204 289.5,-204 289.5,-185 113.5,-185"/>
<text text-anchor="middle" x="201.5" y="-192" font-family="Helvetica,sans-Serif" font-size="10.00">gromacs/selection/selectionenums.h</text>
</a>
</g>
</g>
<!-- Node7&#45;&gt;Node11 -->
<g id="edge13" class="edge"><title>Node7&#45;&gt;Node11</title>
<path fill="none" stroke="midnightblue" d="M542.718,-251.936C470.608,-240.009 340.152,-218.432 263.126,-205.693"/>
<polygon fill="midnightblue" stroke="midnightblue" points="263.521,-202.21 253.084,-204.032 262.379,-209.117 263.521,-202.21"/>
</g>
<!-- Node13 -->
<g id="node13" class="node"><title>Node13</title>
<g id="a_node13"><a xlink:href="arrayref_8h.xhtml" target="_top" xlink:title="Declares gmx::ArrayRef and gmx::ConstArrayRef. ">
<polygon fill="white" stroke="black" points="307,-185 307,-204 432,-204 432,-185 307,-185"/>
<text text-anchor="middle" x="369.5" y="-192" font-family="Helvetica,sans-Serif" font-size="10.00">gromacs/utility/arrayref.h</text>
</a>
</g>
</g>
<!-- Node7&#45;&gt;Node13 -->
<g id="edge15" class="edge"><title>Node7&#45;&gt;Node13</title>
<path fill="none" stroke="midnightblue" d="M564.622,-251.869C524.586,-240.303 453.439,-219.749 409.012,-206.914"/>
<polygon fill="midnightblue" stroke="midnightblue" points="409.722,-203.477 399.143,-204.064 407.779,-210.202 409.722,-203.477"/>
</g>
<!-- Node7&#45;&gt;Node18 -->
<g id="edge28" class="edge"><title>Node7&#45;&gt;Node18</title>
<path fill="none" stroke="midnightblue" d="M607.628,-251.805C640.078,-230.314 724.305,-174.53 764.09,-148.18"/>
<polygon fill="midnightblue" stroke="midnightblue" points="766.128,-151.028 772.532,-142.588 762.263,-145.192 766.128,-151.028"/>
</g>
<!-- Node7&#45;&gt;Node23 -->
<g id="edge26" class="edge"><title>Node7&#45;&gt;Node23</title>
<path fill="none" stroke="midnightblue" d="M667.741,-255.194C762.308,-247.798 931.809,-232.69 1075.5,-210 1189.82,-191.948 1322.69,-161.242 1390.2,-144.934"/>
<polygon fill="midnightblue" stroke="midnightblue" points="1391.17,-148.299 1400.07,-142.54 1389.52,-141.496 1391.17,-148.299"/>
</g>
<!-- Node9 -->
<g id="node9" class="node"><title>Node9</title>
<g id="a_node9"><a xlink:href="indexutil_8h.xhtml" target="_top" xlink:title="API for handling index files and index groups. ">
<polygon fill="white" stroke="black" points="455,-123.5 455,-142.5 598,-142.5 598,-123.5 455,-123.5"/>
<text text-anchor="middle" x="526.5" y="-130.5" font-family="Helvetica,sans-Serif" font-size="10.00">gromacs/selection/indexutil.h</text>
</a>
</g>
</g>
<!-- Node8&#45;&gt;Node9 -->
<g id="edge10" class="edge"><title>Node8&#45;&gt;Node9</title>
<path fill="none" stroke="midnightblue" d="M521.36,-184.975C522.206,-176.58 523.527,-163.481 524.618,-152.663"/>
<polygon fill="midnightblue" stroke="midnightblue" points="528.121,-152.81 525.642,-142.509 521.156,-152.107 528.121,-152.81"/>
</g>
<!-- Node9&#45;&gt;Node5 -->
<g id="edge12" class="edge"><title>Node9&#45;&gt;Node5</title>
<path fill="none" stroke="midnightblue" d="M531.228,-123.475C536.08,-114.727 543.766,-100.869 549.9,-89.8093"/>
<polygon fill="midnightblue" stroke="midnightblue" points="552.991,-91.4517 554.781,-81.0091 546.87,-88.0566 552.991,-91.4517"/>
</g>
<!-- Node10 -->
<g id="node10" class="node"><title>Node10</title>
<polygon fill="white" stroke="#bfbfbf" points="631,-62 631,-81 674,-81 674,-62 631,-62"/>
<text text-anchor="middle" x="652.5" y="-69" font-family="Helvetica,sans-Serif" font-size="10.00">cstdio</text>
</g>
<!-- Node9&#45;&gt;Node10 -->
<g id="edge11" class="edge"><title>Node9&#45;&gt;Node10</title>
<path fill="none" stroke="midnightblue" d="M544.553,-123.475C565.698,-113.49 600.94,-96.8476 625.378,-85.3075"/>
<polygon fill="midnightblue" stroke="midnightblue" points="626.933,-88.4441 634.481,-81.0091 623.944,-82.1143 626.933,-88.4441"/>
</g>
<!-- Node12 -->
<g id="node12" class="node"><title>Node12</title>
<g id="a_node12"><a xlink:href="flags_8h.xhtml" target="_top" xlink:title="Declares gmx::FlagsTemplate. ">
<polygon fill="white" stroke="black" points="115,-123.5 115,-142.5 228,-142.5 228,-123.5 115,-123.5"/>
<text text-anchor="middle" x="171.5" y="-130.5" font-family="Helvetica,sans-Serif" font-size="10.00">gromacs/utility/flags.h</text>
</a>
</g>
</g>
<!-- Node11&#45;&gt;Node12 -->
<g id="edge14" class="edge"><title>Node11&#45;&gt;Node12</title>
<path fill="none" stroke="midnightblue" d="M197.202,-184.975C192.835,-176.315 185.945,-162.649 180.397,-151.645"/>
<polygon fill="midnightblue" stroke="midnightblue" points="183.418,-149.863 175.79,-142.509 177.167,-153.014 183.418,-149.863"/>
</g>
<!-- Node13&#45;&gt;Node6 -->
<g id="edge20" class="edge"><title>Node13&#45;&gt;Node6</title>
<path fill="none" stroke="midnightblue" d="M411.004,-184.992C464.812,-173.907 556.683,-154.786 606.261,-142.899"/>
<polygon fill="midnightblue" stroke="midnightblue" points="607.286,-146.252 616.169,-140.478 605.624,-139.452 607.286,-146.252"/>
</g>
<!-- Node14 -->
<g id="node14" class="node"><title>Node14</title>
<polygon fill="white" stroke="#bfbfbf" points="323,-123.5 323,-142.5 372,-142.5 372,-123.5 323,-123.5"/>
<text text-anchor="middle" x="347.5" y="-130.5" font-family="Helvetica,sans-Serif" font-size="10.00">cstddef</text>
</g>
<!-- Node13&#45;&gt;Node14 -->
<g id="edge16" class="edge"><title>Node13&#45;&gt;Node14</title>
<path fill="none" stroke="midnightblue" d="M366.348,-184.975C363.179,-176.404 358.196,-162.927 354.149,-151.983"/>
<polygon fill="midnightblue" stroke="midnightblue" points="357.397,-150.675 350.646,-142.509 350.832,-153.102 357.397,-150.675"/>
</g>
<!-- Node15 -->
<g id="node15" class="node"><title>Node15</title>
<polygon fill="white" stroke="#bfbfbf" points="390,-123.5 390,-142.5 437,-142.5 437,-123.5 390,-123.5"/>
<text text-anchor="middle" x="413.5" y="-130.5" font-family="Helvetica,sans-Serif" font-size="10.00">iterator</text>
</g>
<!-- Node13&#45;&gt;Node15 -->
<g id="edge17" class="edge"><title>Node13&#45;&gt;Node15</title>
<path fill="none" stroke="midnightblue" d="M375.804,-184.975C382.404,-176.05 392.937,-161.807 401.193,-150.643"/>
<polygon fill="midnightblue" stroke="midnightblue" points="404.076,-152.631 407.208,-142.509 398.448,-148.468 404.076,-152.631"/>
</g>
<!-- Node16 -->
<g id="node16" class="node"><title>Node16</title>
<polygon fill="white" stroke="#bfbfbf" points="246,-123.5 246,-142.5 305,-142.5 305,-123.5 246,-123.5"/>
<text text-anchor="middle" x="275.5" y="-130.5" font-family="Helvetica,sans-Serif" font-size="10.00">stdexcept</text>
</g>
<!-- Node13&#45;&gt;Node16 -->
<g id="edge18" class="edge"><title>Node13&#45;&gt;Node16</title>
<path fill="none" stroke="midnightblue" d="M356.032,-184.975C340.815,-175.343 315.813,-159.517 297.699,-148.052"/>
<polygon fill="midnightblue" stroke="midnightblue" points="299.264,-144.9 288.943,-142.509 295.521,-150.815 299.264,-144.9"/>
</g>
<!-- Node13&#45;&gt;Node17 -->
<g id="edge19" class="edge"><title>Node13&#45;&gt;Node17</title>
<path fill="none" stroke="midnightblue" d="M328.226,-184.947C318.484,-182.963 308.131,-180.882 298.5,-179 215.956,-162.874 191.921,-163.868 106.561,-143.035"/>
<polygon fill="midnightblue" stroke="midnightblue" points="107.245,-139.598 96.6969,-140.598 105.566,-146.394 107.245,-139.598"/>
</g>
<!-- Node13&#45;&gt;Node18 -->
<g id="edge21" class="edge"><title>Node13&#45;&gt;Node18</title>
<path fill="none" stroke="midnightblue" d="M408.839,-184.942C419.117,-182.85 430.201,-180.721 440.5,-179 531.497,-163.794 636.721,-150.714 706.802,-142.636"/>
<polygon fill="midnightblue" stroke="midnightblue" points="707.345,-146.097 716.881,-141.481 706.548,-139.142 707.345,-146.097"/>
</g>
<!-- Node19 -->
<g id="node19" class="node"><title>Node19</title>
<g id="a_node19"><a xlink:href="basedefinitions_8h.xhtml" target="_top" xlink:title="Basic types and macros used throughout GROMACS. ">
<polygon fill="white" stroke="black" points="889,-62 889,-81 1046,-81 1046,-62 889,-62"/>
<text text-anchor="middle" x="967.5" y="-69" font-family="Helvetica,sans-Serif" font-size="10.00">gromacs/utility/basedefinitions.h</text>
</a>
</g>
</g>
<!-- Node18&#45;&gt;Node19 -->
<g id="edge22" class="edge"><title>Node18&#45;&gt;Node19</title>
<path fill="none" stroke="midnightblue" d="M811.576,-123.475C843.066,-113.18 896.198,-95.8103 931.558,-84.2502"/>
<polygon fill="midnightblue" stroke="midnightblue" points="933.055,-87.4433 941.472,-81.0091 930.88,-80.7898 933.055,-87.4433"/>
</g>
<!-- Node22 -->
<g id="node22" class="node"><title>Node22</title>
<g id="a_node22"><a xlink:href="current__function_8h.xhtml" target="_top" xlink:title="Declares GMX_CURRENT_FUNCTION for getting the current function name. ">
<polygon fill="white" stroke="black" points="743,-56.5 743,-86.5 856,-86.5 856,-56.5 743,-56.5"/>
<text text-anchor="start" x="751" y="-74.5" font-family="Helvetica,sans-Serif" font-size="10.00">gromacs/utility/current</text>
<text text-anchor="middle" x="799.5" y="-63.5" font-family="Helvetica,sans-Serif" font-size="10.00">_function.h</text>
</a>
</g>
</g>
<!-- Node18&#45;&gt;Node22 -->
<g id="edge25" class="edge"><title>Node18&#45;&gt;Node22</title>
<path fill="none" stroke="midnightblue" d="M787.506,-123.475C789.172,-116.396 791.625,-105.97 793.879,-96.3896"/>
<polygon fill="midnightblue" stroke="midnightblue" points="797.317,-97.0588 796.2,-86.523 790.503,-95.4555 797.317,-97.0588"/>
</g>
<!-- Node20 -->
<g id="node20" class="node"><title>Node20</title>
<polygon fill="white" stroke="#bfbfbf" points="907,-0.5 907,-19.5 956,-19.5 956,-0.5 907,-0.5"/>
<text text-anchor="middle" x="931.5" y="-7.5" font-family="Helvetica,sans-Serif" font-size="10.00">stdint.h</text>
</g>
<!-- Node19&#45;&gt;Node20 -->
<g id="edge23" class="edge"><title>Node19&#45;&gt;Node20</title>
<path fill="none" stroke="midnightblue" d="M962.342,-61.9751C957.049,-53.2268 948.665,-39.3691 941.973,-28.3093"/>
<polygon fill="midnightblue" stroke="midnightblue" points="944.82,-26.2531 936.648,-19.5091 938.83,-29.8768 944.82,-26.2531"/>
</g>
<!-- Node21 -->
<g id="node21" class="node"><title>Node21</title>
<polygon fill="white" stroke="#bfbfbf" points="974,-0.5 974,-19.5 1033,-19.5 1033,-0.5 974,-0.5"/>
<text text-anchor="middle" x="1003.5" y="-7.5" font-family="Helvetica,sans-Serif" font-size="10.00">inttypes.h</text>
</g>
<!-- Node19&#45;&gt;Node21 -->
<g id="edge24" class="edge"><title>Node19&#45;&gt;Node21</title>
<path fill="none" stroke="midnightblue" d="M972.658,-61.9751C977.951,-53.2268 986.335,-39.3691 993.027,-28.3093"/>
<polygon fill="midnightblue" stroke="midnightblue" points="996.17,-29.8768 998.352,-19.5091 990.18,-26.2531 996.17,-29.8768"/>
</g>
<!-- Node23&#45;&gt;Node4 -->
<g id="edge27" class="edge"><title>Node23&#45;&gt;Node4</title>
<path fill="none" stroke="midnightblue" d="M1441.66,-123.475C1449.24,-114.462 1461.37,-100.025 1470.79,-88.8118"/>
<polygon fill="midnightblue" stroke="midnightblue" points="1473.6,-90.9166 1477.35,-81.0091 1468.24,-86.4132 1473.6,-90.9166"/>
</g>
<!-- Node26 -->
<g id="node26" class="node"><title>Node26</title>
<g id="a_node26"><a xlink:href="abstractdata_8h.xhtml" target="_top" xlink:title="Declares gmx::AbstractAnalysisData. ">
<polygon fill="white" stroke="black" points="1645.5,-179.5 1645.5,-209.5 1757.5,-209.5 1757.5,-179.5 1645.5,-179.5"/>
<text text-anchor="start" x="1653.5" y="-197.5" font-family="Helvetica,sans-Serif" font-size="10.00">gromacs/analysisdata</text>
<text text-anchor="middle" x="1701.5" y="-186.5" font-family="Helvetica,sans-Serif" font-size="10.00">/abstractdata.h</text>
</a>
</g>
</g>
<!-- Node25&#45;&gt;Node26 -->
<g id="edge33" class="edge"><title>Node25&#45;&gt;Node26</title>
<path fill="none" stroke="midnightblue" d="M1603.62,-246.396C1621.72,-236.984 1645.73,-224.503 1665.43,-214.256"/>
<polygon fill="midnightblue" stroke="midnightblue" points="1667.17,-217.295 1674.43,-209.577 1663.94,-211.085 1667.17,-217.295"/>
</g>
<!-- Node27 -->
<g id="node27" class="node"><title>Node27</title>
<g id="a_node27"><a xlink:href="real_8h.xhtml" target="_top" xlink:title="Declares real and related constants. ">
<polygon fill="white" stroke="black" points="1521,-185 1521,-204 1628,-204 1628,-185 1521,-185"/>
<text text-anchor="middle" x="1574.5" y="-192" font-family="Helvetica,sans-Serif" font-size="10.00">gromacs/utility/real.h</text>
</a>
</g>
</g>
<!-- Node25&#45;&gt;Node27 -->
<g id="edge36" class="edge"><title>Node25&#45;&gt;Node27</title>
<path fill="none" stroke="midnightblue" d="M1576.07,-246.396C1575.78,-237.064 1575.4,-224.714 1575.09,-214.517"/>
<polygon fill="midnightblue" stroke="midnightblue" points="1578.57,-214.082 1574.77,-204.195 1571.58,-214.297 1578.57,-214.082"/>
</g>
<!-- Node26&#45;&gt;Node4 -->
<g id="edge34" class="edge"><title>Node26&#45;&gt;Node4</title>
<path fill="none" stroke="midnightblue" d="M1676.18,-179.383C1634.07,-155.902 1550.18,-109.124 1508.77,-86.0344"/>
<polygon fill="midnightblue" stroke="midnightblue" points="1510.35,-82.9054 1499.91,-81.0922 1506.94,-89.0192 1510.35,-82.9054"/>
</g>
<!-- Node26&#45;&gt;Node23 -->
<g id="edge35" class="edge"><title>Node26&#45;&gt;Node23</title>
<path fill="none" stroke="midnightblue" d="M1645.31,-180.754C1642.67,-180.16 1640.06,-179.573 1637.5,-179 1584.89,-167.21 1524.58,-153.861 1483.45,-144.785"/>
<polygon fill="midnightblue" stroke="midnightblue" points="1483.95,-141.31 1473.43,-142.573 1482.44,-148.145 1483.95,-141.31"/>
</g>
<!-- Node28&#45;&gt;Node4 -->
<g id="edge42" class="edge"><title>Node28&#45;&gt;Node4</title>
<path fill="none" stroke="midnightblue" d="M1066.28,-188.997C1131.77,-183.247 1231.75,-170.513 1314.5,-143 1332.61,-136.979 1335.11,-130.868 1352.5,-123 1384.81,-108.38 1422.71,-94.1707 1449.59,-84.5692"/>
<polygon fill="midnightblue" stroke="midnightblue" points="1451.06,-87.7615 1459.32,-81.1236 1448.73,-81.1631 1451.06,-87.7615"/>
</g>
<!-- Node28&#45;&gt;Node5 -->
<g id="edge43" class="edge"><title>Node28&#45;&gt;Node5</title>
<path fill="none" stroke="midnightblue" d="M978.619,-184.9C958.473,-175.111 924.838,-158.47 896.5,-143 881.112,-134.6 879.028,-128.847 862.5,-123 760.4,-86.8832 727.871,-107.348 621.5,-87 611.185,-85.0269 599.988,-82.5214 589.984,-80.1503"/>
<polygon fill="midnightblue" stroke="midnightblue" points="590.619,-76.7032 580.077,-77.7561 588.975,-83.5074 590.619,-76.7032"/>
</g>
<!-- Node28&#45;&gt;Node6 -->
<g id="edge46" class="edge"><title>Node28&#45;&gt;Node6</title>
<path fill="none" stroke="midnightblue" d="M945.207,-184.975C870.273,-172.521 733.034,-149.712 670.759,-139.361"/>
<polygon fill="midnightblue" stroke="midnightblue" points="671.168,-135.882 660.73,-137.695 670.021,-142.787 671.168,-135.882"/>
</g>
<!-- Node28&#45;&gt;Node10 -->
<g id="edge39" class="edge"><title>Node28&#45;&gt;Node10</title>
<path fill="none" stroke="midnightblue" d="M987.105,-184.822C970.286,-169.786 933.334,-138.969 896.5,-123 877.131,-114.603 745.427,-89.6486 683.968,-78.2704"/>
<polygon fill="midnightblue" stroke="midnightblue" points="684.511,-74.8116 674.042,-76.4377 683.24,-81.6953 684.511,-74.8116"/>
</g>
<!-- Node28&#45;&gt;Node18 -->
<g id="edge50" class="edge"><title>Node28&#45;&gt;Node18</title>
<path fill="none" stroke="midnightblue" d="M966.269,-184.975C929.213,-174.526 866.307,-156.787 825.336,-145.233"/>
<polygon fill="midnightblue" stroke="midnightblue" points="826.25,-141.855 815.675,-142.509 824.35,-148.592 826.25,-141.855"/>
</g>
<!-- Node28&#45;&gt;Node19 -->
<g id="edge47" class="edge"><title>Node28&#45;&gt;Node19</title>
<path fill="none" stroke="midnightblue" d="M994.414,-184.798C989.733,-165.263 978.301,-117.565 971.945,-91.0471"/>
<polygon fill="midnightblue" stroke="midnightblue" points="975.301,-90.032 969.567,-81.1232 968.494,-91.6635 975.301,-90.032"/>
</g>
<!-- Node28&#45;&gt;Node22 -->
<g id="edge49" class="edge"><title>Node28&#45;&gt;Node22</title>
<path fill="none" stroke="midnightblue" d="M991.04,-184.902C981.338,-170.263 959.726,-140.396 934.5,-123 913.591,-108.581 888.04,-97.6572 864.815,-89.7237"/>
<polygon fill="midnightblue" stroke="midnightblue" points="865.617,-86.3032 855.024,-86.5052 863.431,-92.9531 865.617,-86.3032"/>
</g>
<!-- Node28&#45;&gt;Node23 -->
<g id="edge48" class="edge"><title>Node28&#45;&gt;Node23</title>
<path fill="none" stroke="midnightblue" d="M1059.25,-184.975C1139.27,-174.106 1277.34,-155.35 1361.83,-143.872"/>
<polygon fill="midnightblue" stroke="midnightblue" points="1362.42,-147.323 1371.86,-142.509 1361.48,-140.387 1362.42,-147.323"/>
</g>
<!-- Node29 -->
<g id="node29" class="node"><title>Node29</title>
<polygon fill="white" stroke="#bfbfbf" points="1025,-123.5 1025,-142.5 1070,-142.5 1070,-123.5 1025,-123.5"/>
<text text-anchor="middle" x="1047.5" y="-130.5" font-family="Helvetica,sans-Serif" font-size="10.00">cstdlib</text>
</g>
<!-- Node28&#45;&gt;Node29 -->
<g id="edge40" class="edge"><title>Node28&#45;&gt;Node29</title>
<path fill="none" stroke="midnightblue" d="M1003.81,-184.975C1011.53,-175.962 1023.91,-161.525 1033.52,-150.312"/>
<polygon fill="midnightblue" stroke="midnightblue" points="1036.36,-152.379 1040.21,-142.509 1031.04,-147.824 1036.36,-152.379"/>
</g>
<!-- Node30 -->
<g id="node30" class="node"><title>Node30</title>
<polygon fill="white" stroke="#bfbfbf" points="1088,-123.5 1088,-142.5 1147,-142.5 1147,-123.5 1088,-123.5"/>
<text text-anchor="middle" x="1117.5" y="-130.5" font-family="Helvetica,sans-Serif" font-size="10.00">exception</text>
</g>
<!-- Node28&#45;&gt;Node30 -->
<g id="edge41" class="edge"><title>Node28&#45;&gt;Node30</title>
<path fill="none" stroke="midnightblue" d="M1013.84,-184.975C1034.05,-175.034 1067.69,-158.495 1091.14,-146.961"/>
<polygon fill="midnightblue" stroke="midnightblue" points="1092.77,-150.063 1100.2,-142.509 1089.68,-143.781 1092.77,-150.063"/>
</g>
<!-- Node31 -->
<g id="node31" class="node"><title>Node31</title>
<polygon fill="white" stroke="#bfbfbf" points="1165.5,-123.5 1165.5,-142.5 1227.5,-142.5 1227.5,-123.5 1165.5,-123.5"/>
<text text-anchor="middle" x="1196.5" y="-130.5" font-family="Helvetica,sans-Serif" font-size="10.00">type_traits</text>
</g>
<!-- Node28&#45;&gt;Node31 -->
<g id="edge44" class="edge"><title>Node28&#45;&gt;Node31</title>
<path fill="none" stroke="midnightblue" d="M1025.16,-184.975C1060.06,-174.592 1119.15,-157.012 1158,-145.454"/>
<polygon fill="midnightblue" stroke="midnightblue" points="1159.31,-148.715 1167.9,-142.509 1157.32,-142.006 1159.31,-148.715"/>
</g>
<!-- Node32 -->
<g id="node32" class="node"><title>Node32</title>
<polygon fill="white" stroke="#bfbfbf" points="1246,-123.5 1246,-142.5 1305,-142.5 1305,-123.5 1246,-123.5"/>
<text text-anchor="middle" x="1275.5" y="-130.5" font-family="Helvetica,sans-Serif" font-size="10.00">typeindex</text>
</g>
<!-- Node28&#45;&gt;Node32 -->
<g id="edge45" class="edge"><title>Node28&#45;&gt;Node32</title>
<path fill="none" stroke="midnightblue" d="M1038.18,-184.986C1084.03,-175.563 1160.16,-159.749 1235.56,-143.175"/>
<polygon fill="midnightblue" stroke="midnightblue" points="1236.69,-146.509 1245.7,-140.939 1235.18,-139.673 1236.69,-146.509"/>
</g>
</g>
</svg>
