<?xml version="1.0" encoding="UTF-8" standalone="no"?>
<!DOCTYPE svg PUBLIC "-//W3C//DTD SVG 1.1//EN"
 "http://www.w3.org/Graphics/SVG/1.1/DTD/svg11.dtd">
<!-- Generated by graphviz version 2.38.0 (20140413.2041)
 -->
<!-- Title: src/gromacs/utility/tests/basedefinitions.cpp Pages: 1 -->
<svg width="519pt" height="151pt"
 viewBox="0.00 0.00 519.00 151.00" xmlns="http://www.w3.org/2000/svg" xmlns:xlink="http://www.w3.org/1999/xlink">
<g id="graph0" class="graph" transform="scale(1 1) rotate(0) translate(4 147)">
<title>src/gromacs/utility/tests/basedefinitions.cpp</title>
<polygon fill="white" stroke="none" points="-4,4 -4,-147 515,-147 515,4 -4,4"/>
<!-- Node1 -->
<g id="node1" class="node"><title>Node1</title>
<polygon fill="#bfbfbf" stroke="black" points="209.5,-112.5 209.5,-142.5 337.5,-142.5 337.5,-112.5 209.5,-112.5"/>
<text text-anchor="start" x="217.5" y="-130.5" font-family="Helvetica,sans-Serif" font-size="10.00">src/gromacs/utility</text>
<text text-anchor="middle" x="273.5" y="-119.5" font-family="Helvetica,sans-Serif" font-size="10.00">/tests/basedefinitions.cpp</text>
</g>
<!-- Node2 -->
<g id="node2" class="node"><title>Node2</title>
<g id="a_node2"><a xlink:href="gmxpre_8h.xhtml" target="_top" xlink:title="Prerequisite header file for GROMACS build. ">
<polygon fill="white" stroke="black" points="0,-56.5 0,-75.5 57,-75.5 57,-56.5 0,-56.5"/>
<text text-anchor="middle" x="28.5" y="-63.5" font-family="Helvetica,sans-Serif" font-size="10.00">gmxpre.h</text>
</a>
</g>
</g>
<!-- Node1&#45;&gt;Node2 -->
<g id="edge1" class="edge"><title>Node1&#45;&gt;Node2</title>
<path fill="none" stroke="midnightblue" d="M215.749,-112.475C169.809,-101.318 106.82,-86.0205 66.8878,-76.3228"/>
<polygon fill="midnightblue" stroke="midnightblue" points="67.5539,-72.8829 57.0104,-73.9239 65.9019,-79.6851 67.5539,-72.8829"/>
</g>
<!-- Node3 -->
<g id="node3" class="node"><title>Node3</title>
<g id="a_node3"><a xlink:href="basedefinitions_8h.xhtml" target="_top" xlink:title="Basic types and macros used throughout GROMACS. ">
<polygon fill="white" stroke="black" points="75,-56.5 75,-75.5 232,-75.5 232,-56.5 75,-56.5"/>
<text text-anchor="middle" x="153.5" y="-63.5" font-family="Helvetica,sans-Serif" font-size="10.00">gromacs/utility/basedefinitions.h</text>
</a>
</g>
</g>
<!-- Node1&#45;&gt;Node3 -->
<g id="edge2" class="edge"><title>Node1&#45;&gt;Node3</title>
<path fill="none" stroke="midnightblue" d="M245.062,-112.399C225.377,-102.639 199.357,-89.7373 180.087,-80.1826"/>
<polygon fill="midnightblue" stroke="midnightblue" points="181.475,-76.9644 170.961,-75.6578 178.365,-83.2358 181.475,-76.9644"/>
</g>
<!-- Node6 -->
<g id="node6" class="node"><title>Node6</title>
<polygon fill="white" stroke="#bfbfbf" points="250.5,-56.5 250.5,-75.5 296.5,-75.5 296.5,-56.5 250.5,-56.5"/>
<text text-anchor="middle" x="273.5" y="-63.5" font-family="Helvetica,sans-Serif" font-size="10.00">cstdint</text>
</g>
<!-- Node1&#45;&gt;Node6 -->
<g id="edge5" class="edge"><title>Node1&#45;&gt;Node6</title>
<path fill="none" stroke="midnightblue" d="M273.5,-112.399C273.5,-104.466 273.5,-94.458 273.5,-85.8583"/>
<polygon fill="midnightblue" stroke="midnightblue" points="277,-85.6577 273.5,-75.6578 270,-85.6578 277,-85.6577"/>
</g>
<!-- Node7 -->
<g id="node7" class="node"><title>Node7</title>
<polygon fill="white" stroke="#bfbfbf" points="315,-56.5 315,-75.5 386,-75.5 386,-56.5 315,-56.5"/>
<text text-anchor="middle" x="350.5" y="-63.5" font-family="Helvetica,sans-Serif" font-size="10.00">gtest/gtest.h</text>
</g>
<!-- Node1&#45;&gt;Node7 -->
<g id="edge6" class="edge"><title>Node1&#45;&gt;Node7</title>
<path fill="none" stroke="midnightblue" d="M291.748,-112.399C303.629,-103.218 319.107,-91.2579 331.194,-81.9182"/>
<polygon fill="midnightblue" stroke="midnightblue" points="333.523,-84.5418 339.296,-75.6578 329.243,-79.0028 333.523,-84.5418"/>
</g>
<!-- Node8 -->
<g id="node8" class="node"><title>Node8</title>
<g id="a_node8"><a xlink:href="real_8h.xhtml" target="_top" xlink:title="Declares real and related constants. ">
<polygon fill="white" stroke="black" points="404,-56.5 404,-75.5 511,-75.5 511,-56.5 404,-56.5"/>
<text text-anchor="middle" x="457.5" y="-63.5" font-family="Helvetica,sans-Serif" font-size="10.00">gromacs/utility/real.h</text>
</a>
</g>
</g>
<!-- Node1&#45;&gt;Node8 -->
<g id="edge7" class="edge"><title>Node1&#45;&gt;Node8</title>
<path fill="none" stroke="midnightblue" d="M317.105,-112.399C348.9,-102.118 391.474,-88.3506 421.375,-78.6818"/>
<polygon fill="midnightblue" stroke="midnightblue" points="422.557,-81.978 430.995,-75.5709 420.403,-75.3176 422.557,-81.978"/>
</g>
<!-- Node4 -->
<g id="node4" class="node"><title>Node4</title>
<polygon fill="white" stroke="#bfbfbf" points="93,-0.5 93,-19.5 142,-19.5 142,-0.5 93,-0.5"/>
<text text-anchor="middle" x="117.5" y="-7.5" font-family="Helvetica,sans-Serif" font-size="10.00">stdint.h</text>
</g>
<!-- Node3&#45;&gt;Node4 -->
<g id="edge3" class="edge"><title>Node3&#45;&gt;Node4</title>
<path fill="none" stroke="midnightblue" d="M147.555,-56.083C142.523,-48.5341 135.163,-37.4948 128.987,-28.2298"/>
<polygon fill="midnightblue" stroke="midnightblue" points="131.793,-26.1301 123.334,-19.7511 125.969,-30.0131 131.793,-26.1301"/>
</g>
<!-- Node5 -->
<g id="node5" class="node"><title>Node5</title>
<polygon fill="white" stroke="#bfbfbf" points="160,-0.5 160,-19.5 219,-19.5 219,-0.5 160,-0.5"/>
<text text-anchor="middle" x="189.5" y="-7.5" font-family="Helvetica,sans-Serif" font-size="10.00">inttypes.h</text>
</g>
<!-- Node3&#45;&gt;Node5 -->
<g id="edge4" class="edge"><title>Node3&#45;&gt;Node5</title>
<path fill="none" stroke="midnightblue" d="M159.445,-56.083C164.477,-48.5341 171.837,-37.4948 178.013,-28.2298"/>
<polygon fill="midnightblue" stroke="midnightblue" points="181.031,-30.0131 183.666,-19.7511 175.207,-26.1301 181.031,-30.0131"/>
</g>
</g>
</svg>
