<?xml version="1.0" encoding="UTF-8" standalone="no"?>
<!DOCTYPE svg PUBLIC "-//W3C//DTD SVG 1.1//EN"
 "http://www.w3.org/Graphics/SVG/1.1/DTD/svg11.dtd">
<!-- Generated by graphviz version 2.38.0 (20140413.2041)
 -->
<!-- Title: src/gromacs/options/basicoptionstorage.h Pages: 1 -->
<svg width="1291pt" height="330pt"
 viewBox="0.00 0.00 1290.90 330.00" xmlns="http://www.w3.org/2000/svg" xmlns:xlink="http://www.w3.org/1999/xlink">
<g id="graph0" class="graph" transform="scale(1 1) rotate(0) translate(4 326)">
<title>src/gromacs/options/basicoptionstorage.h</title>
<polygon fill="white" stroke="none" points="-4,4 -4,-326 1286.9,-326 1286.9,4 -4,4"/>
<!-- Node1 -->
<g id="node1" class="node"><title>Node1</title>
<polygon fill="#bfbfbf" stroke="black" points="1047,-291.5 1047,-321.5 1157,-321.5 1157,-291.5 1047,-291.5"/>
<text text-anchor="start" x="1055" y="-309.5" font-family="Helvetica,sans-Serif" font-size="10.00">src/gromacs/options</text>
<text text-anchor="middle" x="1102" y="-298.5" font-family="Helvetica,sans-Serif" font-size="10.00">/basicoptionstorage.h</text>
</g>
<!-- Node2 -->
<g id="node2" class="node"><title>Node2</title>
<polygon fill="white" stroke="#bfbfbf" points="0,-62 0,-81 52,-81 52,-62 0,-62"/>
<text text-anchor="middle" x="26" y="-69" font-family="Helvetica,sans-Serif" font-size="10.00">memory</text>
</g>
<!-- Node1&#45;&gt;Node2 -->
<g id="edge1" class="edge"><title>Node1&#45;&gt;Node2</title>
<path fill="none" stroke="midnightblue" d="M1047,-303.269C864.525,-295.302 280.857,-265.133 106,-199 65.7452,-183.775 47.0328,-181.091 27,-143 18.6457,-127.115 19.5333,-106.299 21.8167,-91.4116"/>
<polygon fill="midnightblue" stroke="midnightblue" points="25.2979,-91.837 23.7049,-81.3626 18.4183,-90.5442 25.2979,-91.837"/>
</g>
<!-- Node3 -->
<g id="node3" class="node"><title>Node3</title>
<polygon fill="white" stroke="#bfbfbf" points="1032.5,-123.5 1032.5,-142.5 1073.5,-142.5 1073.5,-123.5 1032.5,-123.5"/>
<text text-anchor="middle" x="1053" y="-130.5" font-family="Helvetica,sans-Serif" font-size="10.00">string</text>
</g>
<!-- Node1&#45;&gt;Node3 -->
<g id="edge2" class="edge"><title>Node1&#45;&gt;Node3</title>
<path fill="none" stroke="midnightblue" d="M1143.27,-291.473C1171.08,-279.457 1200.58,-260.117 1188,-235 1166.21,-191.475 1115.76,-161.878 1083.08,-146.48"/>
<polygon fill="midnightblue" stroke="midnightblue" points="1084.12,-143.105 1073.56,-142.158 1081.22,-149.479 1084.12,-143.105"/>
</g>
<!-- Node4 -->
<g id="node4" class="node"><title>Node4</title>
<polygon fill="white" stroke="#bfbfbf" points="1118,-123.5 1118,-142.5 1162,-142.5 1162,-123.5 1118,-123.5"/>
<text text-anchor="middle" x="1140" y="-130.5" font-family="Helvetica,sans-Serif" font-size="10.00">vector</text>
</g>
<!-- Node1&#45;&gt;Node4 -->
<g id="edge3" class="edge"><title>Node1&#45;&gt;Node4</title>
<path fill="none" stroke="midnightblue" d="M1157.09,-304.743C1194.92,-300.979 1242.71,-289.126 1268,-255 1288.11,-227.861 1287.53,-206.562 1268,-179 1246.44,-148.567 1202.59,-138.565 1172.26,-135.363"/>
<polygon fill="midnightblue" stroke="midnightblue" points="1172.42,-131.864 1162.16,-134.492 1171.82,-138.838 1172.42,-131.864"/>
</g>
<!-- Node5 -->
<g id="node5" class="node"><title>Node5</title>
<g id="a_node5"><a xlink:href="basicoptions_8h.xhtml" target="_top" xlink:title="Declares option objects for basic option types. ">
<polygon fill="white" stroke="black" points="1024.5,-235.5 1024.5,-254.5 1179.5,-254.5 1179.5,-235.5 1024.5,-235.5"/>
<text text-anchor="middle" x="1102" y="-242.5" font-family="Helvetica,sans-Serif" font-size="10.00">gromacs/options/basicoptions.h</text>
</a>
</g>
</g>
<!-- Node1&#45;&gt;Node5 -->
<g id="edge4" class="edge"><title>Node1&#45;&gt;Node5</title>
<path fill="none" stroke="midnightblue" d="M1102,-291.399C1102,-283.466 1102,-273.458 1102,-264.858"/>
<polygon fill="midnightblue" stroke="midnightblue" points="1105.5,-264.658 1102,-254.658 1098.5,-264.658 1105.5,-264.658"/>
</g>
<!-- Node15 -->
<g id="node15" class="node"><title>Node15</title>
<g id="a_node15"><a xlink:href="optionstoragetemplate_8h.xhtml" target="_top" xlink:title="Defines gmx::OptionStorageTemplate template. ">
<polygon fill="white" stroke="black" points="661,-235.5 661,-254.5 857,-254.5 857,-235.5 661,-235.5"/>
<text text-anchor="middle" x="759" y="-242.5" font-family="Helvetica,sans-Serif" font-size="10.00">gromacs/options/optionstoragetemplate.h</text>
</a>
</g>
</g>
<!-- Node1&#45;&gt;Node15 -->
<g id="edge20" class="edge"><title>Node1&#45;&gt;Node15</title>
<path fill="none" stroke="midnightblue" d="M1046.89,-295.94C984.247,-285.073 882.373,-267.401 818.112,-256.254"/>
<polygon fill="midnightblue" stroke="midnightblue" points="818.585,-252.784 808.134,-254.523 817.388,-259.681 818.585,-252.784"/>
</g>
<!-- Node5&#45;&gt;Node3 -->
<g id="edge5" class="edge"><title>Node5&#45;&gt;Node3</title>
<path fill="none" stroke="midnightblue" d="M1100.13,-235.31C1097.21,-222.576 1090.97,-198.269 1082,-179 1077.44,-169.204 1071.04,-159.025 1065.42,-150.832"/>
<polygon fill="midnightblue" stroke="midnightblue" points="1068.18,-148.673 1059.53,-142.55 1062.47,-152.729 1068.18,-148.673"/>
</g>
<!-- Node5&#45;&gt;Node4 -->
<g id="edge6" class="edge"><title>Node5&#45;&gt;Node4</title>
<path fill="none" stroke="midnightblue" d="M1117.78,-235.467C1130.2,-227.769 1146.61,-215.179 1154,-199 1160.88,-183.941 1155.66,-165.351 1149.73,-151.915"/>
<polygon fill="midnightblue" stroke="midnightblue" points="1152.8,-150.223 1145.25,-142.788 1146.52,-153.307 1152.8,-150.223"/>
</g>
<!-- Node6 -->
<g id="node6" class="node"><title>Node6</title>
<g id="a_node6"><a xlink:href="abstractoption_8h.xhtml" target="_top" xlink:title="Defines gmx::AbstractOption, gmx::OptionTemplate and gmx::OptionInfo. ">
<polygon fill="white" stroke="black" points="912.5,-179.5 912.5,-198.5 1073.5,-198.5 1073.5,-179.5 912.5,-179.5"/>
<text text-anchor="middle" x="993" y="-186.5" font-family="Helvetica,sans-Serif" font-size="10.00">gromacs/options/abstractoption.h</text>
</a>
</g>
</g>
<!-- Node5&#45;&gt;Node6 -->
<g id="edge7" class="edge"><title>Node5&#45;&gt;Node6</title>
<path fill="none" stroke="midnightblue" d="M1084.49,-235.324C1066.93,-226.625 1039.67,-213.12 1019.47,-203.113"/>
<polygon fill="midnightblue" stroke="midnightblue" points="1020.98,-199.958 1010.47,-198.655 1017.88,-206.23 1020.98,-199.958"/>
</g>
<!-- Node10 -->
<g id="node10" class="node"><title>Node10</title>
<g id="a_node10"><a xlink:href="basedefinitions_8h.xhtml" target="_top" xlink:title="Basic types and macros used throughout GROMACS. ">
<polygon fill="white" stroke="black" points="576.5,-62 576.5,-81 733.5,-81 733.5,-62 576.5,-62"/>
<text text-anchor="middle" x="655" y="-69" font-family="Helvetica,sans-Serif" font-size="10.00">gromacs/utility/basedefinitions.h</text>
</a>
</g>
</g>
<!-- Node5&#45;&gt;Node10 -->
<g id="edge14" class="edge"><title>Node5&#45;&gt;Node10</title>
<path fill="none" stroke="midnightblue" d="M1125.36,-235.356C1141.02,-228.203 1160.46,-216.374 1170,-199 1186.26,-169.388 1193.69,-148.023 1171,-123 1156.86,-107.403 887.666,-87.6242 743.861,-78.1113"/>
<polygon fill="midnightblue" stroke="midnightblue" points="743.938,-74.6088 733.729,-77.4443 743.478,-81.5937 743.938,-74.6088"/>
</g>
<!-- Node13 -->
<g id="node13" class="node"><title>Node13</title>
<g id="a_node13"><a xlink:href="gmxassert_8h.xhtml" target="_top" xlink:title="Defines assert macros customized for Gromacs. ">
<polygon fill="white" stroke="black" points="509.5,-123.5 509.5,-142.5 646.5,-142.5 646.5,-123.5 509.5,-123.5"/>
<text text-anchor="middle" x="578" y="-130.5" font-family="Helvetica,sans-Serif" font-size="10.00">gromacs/utility/gmxassert.h</text>
</a>
</g>
</g>
<!-- Node5&#45;&gt;Node13 -->
<g id="edge17" class="edge"><title>Node5&#45;&gt;Node13</title>
<path fill="none" stroke="midnightblue" d="M1024.36,-241.853C913.967,-237.849 717.838,-226.949 653,-199 627.901,-188.181 605.11,-165.813 591.404,-150.363"/>
<polygon fill="midnightblue" stroke="midnightblue" points="593.929,-147.93 584.767,-142.608 588.611,-152.481 593.929,-147.93"/>
</g>
<!-- Node6&#45;&gt;Node3 -->
<g id="edge8" class="edge"><title>Node6&#45;&gt;Node3</title>
<path fill="none" stroke="midnightblue" d="M1002.64,-179.324C1011.51,-171.341 1024.87,-159.313 1035.61,-149.653"/>
<polygon fill="midnightblue" stroke="midnightblue" points="1038.09,-152.125 1043.18,-142.834 1033.41,-146.922 1038.09,-152.125"/>
</g>
<!-- Node6&#45;&gt;Node4 -->
<g id="edge9" class="edge"><title>Node6&#45;&gt;Node4</title>
<path fill="none" stroke="midnightblue" d="M1016.29,-179.444C1041.1,-170.332 1080.51,-155.853 1108.17,-145.693"/>
<polygon fill="midnightblue" stroke="midnightblue" points="1109.6,-148.897 1117.78,-142.163 1107.19,-142.326 1109.6,-148.897"/>
</g>
<!-- Node7 -->
<g id="node7" class="node"><title>Node7</title>
<g id="a_node7"><a xlink:href="optionflags_8h.xhtml" target="_top" xlink:title="Defines flags used in option implementation. ">
<polygon fill="white" stroke="black" points="867.5,-123.5 867.5,-142.5 1014.5,-142.5 1014.5,-123.5 867.5,-123.5"/>
<text text-anchor="middle" x="941" y="-130.5" font-family="Helvetica,sans-Serif" font-size="10.00">gromacs/options/optionflags.h</text>
</a>
</g>
</g>
<!-- Node6&#45;&gt;Node7 -->
<g id="edge10" class="edge"><title>Node6&#45;&gt;Node7</title>
<path fill="none" stroke="midnightblue" d="M984.413,-179.083C976.841,-171.22 965.622,-159.569 956.486,-150.081"/>
<polygon fill="midnightblue" stroke="midnightblue" points="958.885,-147.527 949.427,-142.751 953.842,-152.382 958.885,-147.527"/>
</g>
<!-- Node9 -->
<g id="node9" class="node"><title>Node9</title>
<g id="a_node9"><a xlink:href="classhelpers_8h.xhtml" target="_top" xlink:title="Declares common utility classes and macros. ">
<polygon fill="white" stroke="black" points="703,-123.5 703,-142.5 849,-142.5 849,-123.5 703,-123.5"/>
<text text-anchor="middle" x="776" y="-130.5" font-family="Helvetica,sans-Serif" font-size="10.00">gromacs/utility/classhelpers.h</text>
</a>
</g>
</g>
<!-- Node6&#45;&gt;Node9 -->
<g id="edge12" class="edge"><title>Node6&#45;&gt;Node9</title>
<path fill="none" stroke="midnightblue" d="M958.616,-179.444C921.078,-170.102 860.869,-155.119 819.933,-144.933"/>
<polygon fill="midnightblue" stroke="midnightblue" points="820.773,-141.535 810.223,-142.516 819.082,-148.328 820.773,-141.535"/>
</g>
<!-- Node8 -->
<g id="node8" class="node"><title>Node8</title>
<g id="a_node8"><a xlink:href="flags_8h.xhtml" target="_top" xlink:title="Declares gmx::FlagsTemplate. ">
<polygon fill="white" stroke="black" points="884.5,-62 884.5,-81 997.5,-81 997.5,-62 884.5,-62"/>
<text text-anchor="middle" x="941" y="-69" font-family="Helvetica,sans-Serif" font-size="10.00">gromacs/utility/flags.h</text>
</a>
</g>
</g>
<!-- Node7&#45;&gt;Node8 -->
<g id="edge11" class="edge"><title>Node7&#45;&gt;Node8</title>
<path fill="none" stroke="midnightblue" d="M941,-123.475C941,-115.08 941,-101.981 941,-91.1631"/>
<polygon fill="midnightblue" stroke="midnightblue" points="944.5,-91.0091 941,-81.0091 937.5,-91.0091 944.5,-91.0091"/>
</g>
<!-- Node9&#45;&gt;Node2 -->
<g id="edge13" class="edge"><title>Node9&#45;&gt;Node2</title>
<path fill="none" stroke="midnightblue" d="M702.721,-126.187C545.093,-113.681 178.671,-84.6119 62.2152,-75.3731"/>
<polygon fill="midnightblue" stroke="midnightblue" points="62.2988,-71.8688 52.0533,-74.5669 61.7451,-78.8469 62.2988,-71.8688"/>
</g>
<!-- Node11 -->
<g id="node11" class="node"><title>Node11</title>
<polygon fill="white" stroke="#bfbfbf" points="594.5,-0.5 594.5,-19.5 643.5,-19.5 643.5,-0.5 594.5,-0.5"/>
<text text-anchor="middle" x="619" y="-7.5" font-family="Helvetica,sans-Serif" font-size="10.00">stdint.h</text>
</g>
<!-- Node10&#45;&gt;Node11 -->
<g id="edge15" class="edge"><title>Node10&#45;&gt;Node11</title>
<path fill="none" stroke="midnightblue" d="M649.842,-61.9751C644.549,-53.2268 636.165,-39.3691 629.473,-28.3093"/>
<polygon fill="midnightblue" stroke="midnightblue" points="632.32,-26.2531 624.148,-19.5091 626.33,-29.8768 632.32,-26.2531"/>
</g>
<!-- Node12 -->
<g id="node12" class="node"><title>Node12</title>
<polygon fill="white" stroke="#bfbfbf" points="661.5,-0.5 661.5,-19.5 720.5,-19.5 720.5,-0.5 661.5,-0.5"/>
<text text-anchor="middle" x="691" y="-7.5" font-family="Helvetica,sans-Serif" font-size="10.00">inttypes.h</text>
</g>
<!-- Node10&#45;&gt;Node12 -->
<g id="edge16" class="edge"><title>Node10&#45;&gt;Node12</title>
<path fill="none" stroke="midnightblue" d="M660.158,-61.9751C665.451,-53.2268 673.835,-39.3691 680.527,-28.3093"/>
<polygon fill="midnightblue" stroke="midnightblue" points="683.67,-29.8768 685.852,-19.5091 677.68,-26.2531 683.67,-29.8768"/>
</g>
<!-- Node13&#45;&gt;Node10 -->
<g id="edge18" class="edge"><title>Node13&#45;&gt;Node10</title>
<path fill="none" stroke="midnightblue" d="M589.032,-123.475C601.268,-114.02 621.229,-98.5961 635.993,-87.1871"/>
<polygon fill="midnightblue" stroke="midnightblue" points="638.215,-89.8931 643.988,-81.0091 633.935,-84.3541 638.215,-89.8931"/>
</g>
<!-- Node14 -->
<g id="node14" class="node"><title>Node14</title>
<g id="a_node14"><a xlink:href="current__function_8h.xhtml" target="_top" xlink:title="Declares GMX_CURRENT_FUNCTION for getting the current function name. ">
<polygon fill="white" stroke="black" points="406.5,-56.5 406.5,-86.5 519.5,-86.5 519.5,-56.5 406.5,-56.5"/>
<text text-anchor="start" x="414.5" y="-74.5" font-family="Helvetica,sans-Serif" font-size="10.00">gromacs/utility/current</text>
<text text-anchor="middle" x="463" y="-63.5" font-family="Helvetica,sans-Serif" font-size="10.00">_function.h</text>
</a>
</g>
</g>
<!-- Node13&#45;&gt;Node14 -->
<g id="edge19" class="edge"><title>Node13&#45;&gt;Node14</title>
<path fill="none" stroke="midnightblue" d="M561.523,-123.475C545.293,-115.078 519.964,-101.973 499.053,-91.1534"/>
<polygon fill="midnightblue" stroke="midnightblue" points="500.593,-88.0097 490.103,-86.523 497.377,-94.2269 500.593,-88.0097"/>
</g>
<!-- Node15&#45;&gt;Node2 -->
<g id="edge21" class="edge"><title>Node15&#45;&gt;Node2</title>
<path fill="none" stroke="midnightblue" d="M660.873,-243.636C485.968,-240.874 130.438,-225.022 43,-143 29.1084,-129.969 25.6985,-107.72 25.2332,-91.6975"/>
<polygon fill="midnightblue" stroke="midnightblue" points="28.7355,-91.3772 25.3071,-81.3524 21.7357,-91.3271 28.7355,-91.3772"/>
</g>
<!-- Node15&#45;&gt;Node3 -->
<g id="edge22" class="edge"><title>Node15&#45;&gt;Node3</title>
<path fill="none" stroke="midnightblue" d="M780.753,-235.383C802.345,-226.684 836.28,-212.625 865,-199 882.243,-190.82 885.333,-186.22 903,-179 903.179,-178.927 979.168,-156.138 1022.91,-143.023"/>
<polygon fill="midnightblue" stroke="midnightblue" points="1023.92,-146.375 1032.49,-140.15 1021.91,-139.67 1023.92,-146.375"/>
</g>
<!-- Node15&#45;&gt;Node4 -->
<g id="edge23" class="edge"><title>Node15&#45;&gt;Node4</title>
<path fill="none" stroke="midnightblue" d="M857.213,-237.755C937.639,-231.289 1044.1,-219.23 1082,-199 1102.55,-188.029 1119.37,-166.729 1129.51,-151.501"/>
<polygon fill="midnightblue" stroke="midnightblue" points="1132.53,-153.27 1134.93,-142.951 1126.62,-149.521 1132.53,-153.27"/>
</g>
<!-- Node15&#45;&gt;Node6 -->
<g id="edge24" class="edge"><title>Node15&#45;&gt;Node6</title>
<path fill="none" stroke="midnightblue" d="M796.078,-235.444C836.728,-226.063 902.032,-210.993 946.184,-200.804"/>
<polygon fill="midnightblue" stroke="midnightblue" points="947.139,-204.175 956.095,-198.516 945.565,-197.355 947.139,-204.175"/>
</g>
<!-- Node15&#45;&gt;Node10 -->
<g id="edge29" class="edge"><title>Node15&#45;&gt;Node10</title>
<path fill="none" stroke="midnightblue" d="M709.226,-235.45C688.172,-229.104 665.634,-218.089 653,-199 648.094,-191.588 652.753,-187.885 653,-179 653.445,-162.981 654.555,-159.019 655,-143 655.483,-125.604 655.429,-105.783 655.286,-91.598"/>
<polygon fill="midnightblue" stroke="midnightblue" points="658.781,-91.1399 655.155,-81.1849 651.781,-91.2283 658.781,-91.1399"/>
</g>
<!-- Node15&#45;&gt;Node13 -->
<g id="edge43" class="edge"><title>Node15&#45;&gt;Node13</title>
<path fill="none" stroke="midnightblue" d="M693.503,-235.492C649.247,-228.288 596.358,-216.338 582,-199 571.53,-186.357 571.65,-167.148 573.715,-152.887"/>
<polygon fill="midnightblue" stroke="midnightblue" points="577.216,-153.205 575.623,-142.73 570.336,-151.912 577.216,-153.205"/>
</g>
<!-- Node16 -->
<g id="node16" class="node"><title>Node16</title>
<g id="a_node16"><a xlink:href="abstractoptionstorage_8h.xhtml" target="_top" xlink:title="Declares gmx::AbstractOptionStorage. ">
<polygon fill="white" stroke="black" points="662,-179.5 662,-198.5 856,-198.5 856,-179.5 662,-179.5"/>
<text text-anchor="middle" x="759" y="-186.5" font-family="Helvetica,sans-Serif" font-size="10.00">gromacs/options/abstractoptionstorage.h</text>
</a>
</g>
</g>
<!-- Node15&#45;&gt;Node16 -->
<g id="edge25" class="edge"><title>Node15&#45;&gt;Node16</title>
<path fill="none" stroke="midnightblue" d="M759,-235.083C759,-228.006 759,-217.861 759,-208.986"/>
<polygon fill="midnightblue" stroke="midnightblue" points="762.5,-208.751 759,-198.751 755.5,-208.751 762.5,-208.751"/>
</g>
<!-- Node17 -->
<g id="node17" class="node"><title>Node17</title>
<g id="a_node17"><a xlink:href="exceptions_8h.xhtml" target="_top" xlink:title="Declares common exception classes and macros for fatal error handling. ">
<polygon fill="white" stroke="black" points="373.5,-179.5 373.5,-198.5 512.5,-198.5 512.5,-179.5 373.5,-179.5"/>
<text text-anchor="middle" x="443" y="-186.5" font-family="Helvetica,sans-Serif" font-size="10.00">gromacs/utility/exceptions.h</text>
</a>
</g>
</g>
<!-- Node15&#45;&gt;Node17 -->
<g id="edge30" class="edge"><title>Node15&#45;&gt;Node17</title>
<path fill="none" stroke="midnightblue" d="M708.929,-235.444C652.994,-225.885 562.492,-210.419 502.863,-200.23"/>
<polygon fill="midnightblue" stroke="midnightblue" points="503.284,-196.751 492.837,-198.516 502.104,-203.651 503.284,-196.751"/>
</g>
<!-- Node16&#45;&gt;Node3 -->
<g id="edge26" class="edge"><title>Node16&#45;&gt;Node3</title>
<path fill="none" stroke="midnightblue" d="M822.11,-179.465C873.558,-172.002 948.232,-160.021 1022.44,-142.873"/>
<polygon fill="midnightblue" stroke="midnightblue" points="1023.49,-146.221 1032.43,-140.532 1021.9,-139.406 1023.49,-146.221"/>
</g>
<!-- Node16&#45;&gt;Node7 -->
<g id="edge27" class="edge"><title>Node16&#45;&gt;Node7</title>
<path fill="none" stroke="midnightblue" d="M787.838,-179.444C818.856,-170.241 868.329,-155.562 902.618,-145.388"/>
<polygon fill="midnightblue" stroke="midnightblue" points="903.705,-148.716 912.296,-142.516 901.714,-142.006 903.705,-148.716"/>
</g>
<!-- Node16&#45;&gt;Node9 -->
<g id="edge28" class="edge"><title>Node16&#45;&gt;Node9</title>
<path fill="none" stroke="midnightblue" d="M761.807,-179.083C764.085,-171.849 767.371,-161.409 770.208,-152.397"/>
<polygon fill="midnightblue" stroke="midnightblue" points="773.581,-153.341 773.245,-142.751 766.904,-151.239 773.581,-153.341"/>
</g>
<!-- Node17&#45;&gt;Node2 -->
<g id="edge34" class="edge"><title>Node17&#45;&gt;Node2</title>
<path fill="none" stroke="midnightblue" d="M373.271,-187.269C277.868,-185.016 112.898,-176.26 64,-143 46.0811,-130.812 35.8957,-107.332 30.6692,-90.8284"/>
<polygon fill="midnightblue" stroke="midnightblue" points="34.026,-89.8367 27.9192,-81.1789 27.294,-91.7553 34.026,-89.8367"/>
</g>
<!-- Node17&#45;&gt;Node3 -->
<g id="edge35" class="edge"><title>Node17&#45;&gt;Node3</title>
<path fill="none" stroke="midnightblue" d="M512.655,-184.468C640.731,-177.672 909.993,-161.914 1022.42,-142.604"/>
<polygon fill="midnightblue" stroke="midnightblue" points="1023.27,-146.008 1032.49,-140.785 1022.02,-139.12 1023.27,-146.008"/>
</g>
<!-- Node17&#45;&gt;Node4 -->
<g id="edge38" class="edge"><title>Node17&#45;&gt;Node4</title>
<path fill="none" stroke="midnightblue" d="M512.672,-185.004C630.293,-179.52 875.615,-166.238 1082,-143 1090.33,-142.062 1099.3,-140.798 1107.63,-139.513"/>
<polygon fill="midnightblue" stroke="midnightblue" points="1108.43,-142.93 1117.75,-137.899 1107.32,-136.018 1108.43,-142.93"/>
</g>
<!-- Node17&#45;&gt;Node9 -->
<g id="edge40" class="edge"><title>Node17&#45;&gt;Node9</title>
<path fill="none" stroke="midnightblue" d="M495.765,-179.444C554.83,-169.865 650.474,-154.356 713.306,-144.167"/>
<polygon fill="midnightblue" stroke="midnightblue" points="714.171,-147.572 723.482,-142.516 713.051,-140.662 714.171,-147.572"/>
</g>
<!-- Node17&#45;&gt;Node10 -->
<g id="edge39" class="edge"><title>Node17&#45;&gt;Node10</title>
<path fill="none" stroke="midnightblue" d="M448.519,-179.075C457.585,-165.13 476.944,-138.202 500,-123 529.529,-103.53 567.167,-91.0345 597.959,-83.3441"/>
<polygon fill="midnightblue" stroke="midnightblue" points="598.786,-86.745 607.697,-81.0133 597.157,-79.9373 598.786,-86.745"/>
</g>
<!-- Node17&#45;&gt;Node13 -->
<g id="edge42" class="edge"><title>Node17&#45;&gt;Node13</title>
<path fill="none" stroke="midnightblue" d="M464.391,-179.444C486.707,-170.517 521.903,-156.439 547.208,-146.317"/>
<polygon fill="midnightblue" stroke="midnightblue" points="548.724,-149.48 556.709,-142.516 546.124,-142.981 548.724,-149.48"/>
</g>
<!-- Node17&#45;&gt;Node14 -->
<g id="edge41" class="edge"><title>Node17&#45;&gt;Node14</title>
<path fill="none" stroke="midnightblue" d="M444.503,-179.319C447.508,-161.967 454.349,-122.457 458.817,-96.6579"/>
<polygon fill="midnightblue" stroke="midnightblue" points="462.31,-96.9959 460.568,-86.5453 455.413,-95.8015 462.31,-96.9959"/>
</g>
<!-- Node18 -->
<g id="node18" class="node"><title>Node18</title>
<polygon fill="white" stroke="#bfbfbf" points="73.5,-123.5 73.5,-142.5 116.5,-142.5 116.5,-123.5 73.5,-123.5"/>
<text text-anchor="middle" x="95" y="-130.5" font-family="Helvetica,sans-Serif" font-size="10.00">cstdio</text>
</g>
<!-- Node17&#45;&gt;Node18 -->
<g id="edge31" class="edge"><title>Node17&#45;&gt;Node18</title>
<path fill="none" stroke="midnightblue" d="M373.295,-181.198C310.783,-174.402 216.468,-162.433 126.359,-143.033"/>
<polygon fill="midnightblue" stroke="midnightblue" points="127.045,-139.6 116.528,-140.882 125.549,-146.438 127.045,-139.6"/>
</g>
<!-- Node19 -->
<g id="node19" class="node"><title>Node19</title>
<polygon fill="white" stroke="#bfbfbf" points="134.5,-123.5 134.5,-142.5 179.5,-142.5 179.5,-123.5 134.5,-123.5"/>
<text text-anchor="middle" x="157" y="-130.5" font-family="Helvetica,sans-Serif" font-size="10.00">cstdlib</text>
</g>
<!-- Node17&#45;&gt;Node19 -->
<g id="edge32" class="edge"><title>Node17&#45;&gt;Node19</title>
<path fill="none" stroke="midnightblue" d="M384.402,-179.5C334.814,-171.89 261.702,-159.694 189.754,-143.223"/>
<polygon fill="midnightblue" stroke="midnightblue" points="190.145,-139.721 179.613,-140.871 188.563,-146.54 190.145,-139.721"/>
</g>
<!-- Node20 -->
<g id="node20" class="node"><title>Node20</title>
<polygon fill="white" stroke="#bfbfbf" points="197.5,-123.5 197.5,-142.5 256.5,-142.5 256.5,-123.5 197.5,-123.5"/>
<text text-anchor="middle" x="227" y="-130.5" font-family="Helvetica,sans-Serif" font-size="10.00">exception</text>
</g>
<!-- Node17&#45;&gt;Node20 -->
<g id="edge33" class="edge"><title>Node17&#45;&gt;Node20</title>
<path fill="none" stroke="midnightblue" d="M408.774,-179.444C370.063,-169.766 307.128,-154.032 266.401,-143.85"/>
<polygon fill="midnightblue" stroke="midnightblue" points="267.104,-140.418 256.554,-141.388 265.406,-147.209 267.104,-140.418"/>
</g>
<!-- Node21 -->
<g id="node21" class="node"><title>Node21</title>
<polygon fill="white" stroke="#bfbfbf" points="275,-123.5 275,-142.5 337,-142.5 337,-123.5 275,-123.5"/>
<text text-anchor="middle" x="306" y="-130.5" font-family="Helvetica,sans-Serif" font-size="10.00">type_traits</text>
</g>
<!-- Node17&#45;&gt;Node21 -->
<g id="edge36" class="edge"><title>Node17&#45;&gt;Node21</title>
<path fill="none" stroke="midnightblue" d="M421.292,-179.444C398.645,-170.517 362.928,-156.439 337.248,-146.317"/>
<polygon fill="midnightblue" stroke="midnightblue" points="338.193,-142.927 327.606,-142.516 335.626,-149.44 338.193,-142.927"/>
</g>
<!-- Node22 -->
<g id="node22" class="node"><title>Node22</title>
<polygon fill="white" stroke="#bfbfbf" points="355.5,-123.5 355.5,-142.5 414.5,-142.5 414.5,-123.5 355.5,-123.5"/>
<text text-anchor="middle" x="385" y="-130.5" font-family="Helvetica,sans-Serif" font-size="10.00">typeindex</text>
</g>
<!-- Node17&#45;&gt;Node22 -->
<g id="edge37" class="edge"><title>Node17&#45;&gt;Node22</title>
<path fill="none" stroke="midnightblue" d="M433.681,-179.324C425.107,-171.341 412.188,-159.313 401.812,-149.653"/>
<polygon fill="midnightblue" stroke="midnightblue" points="404.192,-147.086 394.488,-142.834 399.422,-152.21 404.192,-147.086"/>
</g>
</g>
</svg>
