<?xml version="1.0" encoding="UTF-8" standalone="no"?>
<!DOCTYPE svg PUBLIC "-//W3C//DTD SVG 1.1//EN"
 "http://www.w3.org/Graphics/SVG/1.1/DTD/svg11.dtd">
<!-- Generated by graphviz version 2.38.0 (20140413.2041)
 -->
<!-- Title: gmx::IOptionsContainer Pages: 1 -->
<svg width="232pt" height="95pt"
 viewBox="0.00 0.00 232.00 95.00" xmlns="http://www.w3.org/2000/svg" xmlns:xlink="http://www.w3.org/1999/xlink">
<g id="graph0" class="graph" transform="scale(1 1) rotate(0) translate(4 91)">
<title>gmx::IOptionsContainer</title>
<polygon fill="white" stroke="none" points="-4,4 -4,-91 228,-91 228,4 -4,4"/>
<!-- Node1 -->
<g id="node1" class="node"><title>Node1</title>
<polygon fill="#bfbfbf" stroke="black" points="65.5,-67.5 65.5,-86.5 185.5,-86.5 185.5,-67.5 65.5,-67.5"/>
<text text-anchor="middle" x="125.5" y="-74.5" font-family="Helvetica,sans-Serif" font-size="10.00">gmx::IOptionsContainer</text>
</g>
<!-- Node2 -->
<g id="node2" class="node"><title>Node2</title>
<g id="a_node2"><a xlink:href="classgmx_1_1internal_1_1OptionsImpl_1_1Group.xhtml" target="_top" xlink:title="Describes a group of options (see Options::addGroup()). ">
<polygon fill="white" stroke="black" points="0,-0.5 0,-30.5 131,-30.5 131,-0.5 0,-0.5"/>
<text text-anchor="start" x="8" y="-18.5" font-family="Helvetica,sans-Serif" font-size="10.00">gmx::internal::OptionsImpl</text>
<text text-anchor="middle" x="65.5" y="-7.5" font-family="Helvetica,sans-Serif" font-size="10.00">::Group</text>
</a>
</g>
</g>
<!-- Node1&#45;&gt;Node2 -->
<g id="edge1" class="edge"><title>Node1&#45;&gt;Node2</title>
<path fill="none" stroke="midnightblue" d="M109.738,-60.369C100.404,-51.1127 88.6755,-39.4824 79.6408,-30.523"/>
<polygon fill="midnightblue" stroke="midnightblue" points="107.338,-62.9189 116.903,-67.4751 112.267,-57.9484 107.338,-62.9189"/>
</g>
<!-- Node3 -->
<g id="node3" class="node"><title>Node3</title>
<g id="a_node3"><a xlink:href="classgmx_1_1Options.xhtml" target="_top" xlink:title="Collection of options. ">
<polygon fill="white" stroke="black" points="149,-6 149,-25 224,-25 224,-6 149,-6"/>
<text text-anchor="middle" x="186.5" y="-13" font-family="Helvetica,sans-Serif" font-size="10.00">gmx::Options</text>
</a>
</g>
</g>
<!-- Node1&#45;&gt;Node3 -->
<g id="edge2" class="edge"><title>Node1&#45;&gt;Node3</title>
<path fill="none" stroke="midnightblue" d="M141.571,-60.3245C153.16,-49.0202 168.361,-34.1928 177.776,-25.0091"/>
<polygon fill="midnightblue" stroke="midnightblue" points="138.954,-57.9871 134.24,-67.4751 143.842,-62.9981 138.954,-57.9871"/>
</g>
</g>
</svg>
