<?xml version="1.0" encoding="UTF-8" standalone="no"?>
<!DOCTYPE svg PUBLIC "-//W3C//DTD SVG 1.1//EN"
 "http://www.w3.org/Graphics/SVG/1.1/DTD/svg11.dtd">
<!-- Generated by graphviz version 2.38.0 (20140413.2041)
 -->
<!-- Title: gmx::AbstractSimpleHelpTopic Pages: 1 -->
<svg width="512pt" height="88pt"
 viewBox="0.00 0.00 512.00 88.00" xmlns="http://www.w3.org/2000/svg" xmlns:xlink="http://www.w3.org/1999/xlink">
<g id="graph0" class="graph" transform="scale(1 1) rotate(0) translate(4 84)">
<title>gmx::AbstractSimpleHelpTopic</title>
<polygon fill="white" stroke="none" points="-4,4 -4,-84 508,-84 508,4 -4,4"/>
<!-- Node1 -->
<g id="node1" class="node"><title>Node1</title>
<polygon fill="#bfbfbf" stroke="black" points="125,-30 125,-49 277,-49 277,-30 125,-30"/>
<text text-anchor="middle" x="201" y="-37" font-family="Helvetica,sans-Serif" font-size="10.00">gmx::AbstractSimpleHelpTopic</text>
</g>
<!-- Node3 -->
<g id="node3" class="node"><title>Node3</title>
<g id="a_node3"><a xlink:href="classgmx_1_1anonymous__namespace_02selhelp_8cpp_03_1_1KeywordDetailsHelpTopic.xhtml" target="_top" xlink:title="Help topic implementation for an individual selection method. ">
<polygon fill="white" stroke="black" points="313,-49.5 313,-79.5 504,-79.5 504,-49.5 313,-49.5"/>
<text text-anchor="start" x="321" y="-67.5" font-family="Helvetica,sans-Serif" font-size="10.00">gmx::anonymous_namespace</text>
<text text-anchor="middle" x="408.5" y="-56.5" font-family="Helvetica,sans-Serif" font-size="10.00">{selhelp.cpp}::KeywordDetailsHelpTopic</text>
</a>
</g>
</g>
<!-- Node1&#45;&gt;Node3 -->
<g id="edge2" class="edge"><title>Node1&#45;&gt;Node3</title>
<path fill="none" stroke="midnightblue" d="M287.216,-49.8669C295.619,-50.8891 304.183,-51.931 312.674,-52.964"/>
<polygon fill="midnightblue" stroke="midnightblue" points="287.412,-46.365 277.063,-48.6317 286.567,-53.3138 287.412,-46.365"/>
</g>
<!-- Node4 -->
<g id="node4" class="node"><title>Node4</title>
<g id="a_node4"><a xlink:href="classgmx_1_1SimpleHelpTopic.xhtml" target="_top" xlink:title="Template for simple implementation of AbstractSimpleHelpTopic. ">
<polygon fill="white" stroke="black" points="350.5,-0.5 350.5,-30.5 466.5,-30.5 466.5,-0.5 350.5,-0.5"/>
<text text-anchor="start" x="358.5" y="-18.5" font-family="Helvetica,sans-Serif" font-size="10.00">gmx::SimpleHelpTopic</text>
<text text-anchor="middle" x="408.5" y="-7.5" font-family="Helvetica,sans-Serif" font-size="10.00">&lt; HelpText &gt;</text>
</a>
</g>
</g>
<!-- Node1&#45;&gt;Node4 -->
<g id="edge3" class="edge"><title>Node1&#45;&gt;Node4</title>
<path fill="none" stroke="midnightblue" d="M287.094,-29.562C308.406,-27.0731 330.762,-24.4621 350.346,-22.1749"/>
<polygon fill="midnightblue" stroke="midnightblue" points="286.589,-26.0971 277.063,-30.7336 287.401,-33.0499 286.589,-26.0971"/>
</g>
<!-- Node2 -->
<g id="node2" class="node"><title>Node2</title>
<g id="a_node2"><a xlink:href="classgmx_1_1IHelpTopic.xhtml" target="_top" xlink:title="Provides a single online help topic. ">
<polygon fill="white" stroke="black" points="0,-30 0,-49 89,-49 89,-30 0,-30"/>
<text text-anchor="middle" x="44.5" y="-37" font-family="Helvetica,sans-Serif" font-size="10.00">gmx::IHelpTopic</text>
</a>
</g>
</g>
<!-- Node2&#45;&gt;Node1 -->
<g id="edge1" class="edge"><title>Node2&#45;&gt;Node1</title>
<path fill="none" stroke="midnightblue" d="M99.4805,-39.5C107.657,-39.5 116.217,-39.5 124.744,-39.5"/>
<polygon fill="midnightblue" stroke="midnightblue" points="99.3603,-36.0001 89.3602,-39.5 99.3602,-43.0001 99.3603,-36.0001"/>
</g>
</g>
</svg>
