<?xml version="1.0" encoding="UTF-8" standalone="no"?>
<!DOCTYPE svg PUBLIC "-//W3C//DTD SVG 1.1//EN"
 "http://www.w3.org/Graphics/SVG/1.1/DTD/svg11.dtd">
<!-- Generated by graphviz version 2.38.0 (20140413.2041)
 -->
<!-- Title: anonymous_namespace{abstractoptionstorage.cpp}::MockOption Pages: 1 -->
<svg width="145pt" height="173pt"
 viewBox="0.00 0.00 145.00 173.00" xmlns="http://www.w3.org/2000/svg" xmlns:xlink="http://www.w3.org/1999/xlink">
<g id="graph0" class="graph" transform="scale(1 1) rotate(0) translate(4 169)">
<title>anonymous_namespace{abstractoptionstorage.cpp}::MockOption</title>
<polygon fill="white" stroke="none" points="-4,4 -4,-169 141,-169 141,4 -4,4"/>
<!-- Node1 -->
<g id="node1" class="node"><title>Node1</title>
<polygon fill="#bfbfbf" stroke="black" points="1,-0.5 1,-41.5 136,-41.5 136,-0.5 1,-0.5"/>
<text text-anchor="start" x="9" y="-29.5" font-family="Helvetica,sans-Serif" font-size="10.00">anonymous_namespace</text>
<text text-anchor="start" x="9" y="-18.5" font-family="Helvetica,sans-Serif" font-size="10.00">{abstractoptionstorage.cpp}</text>
<text text-anchor="middle" x="68.5" y="-7.5" font-family="Helvetica,sans-Serif" font-size="10.00">::MockOption</text>
</g>
<!-- Node2 -->
<g id="node2" class="node"><title>Node2</title>
<g id="a_node2"><a xlink:href="classgmx_1_1OptionTemplate.xhtml" target="_top" xlink:title="gmx::OptionTemplate\l\&lt; std::string, MockOption \&gt;">
<polygon fill="white" stroke="black" points="0,-78.5 0,-108.5 137,-108.5 137,-78.5 0,-78.5"/>
<text text-anchor="start" x="8" y="-96.5" font-family="Helvetica,sans-Serif" font-size="10.00">gmx::OptionTemplate</text>
<text text-anchor="middle" x="68.5" y="-85.5" font-family="Helvetica,sans-Serif" font-size="10.00">&lt; std::string, MockOption &gt;</text>
</a>
</g>
</g>
<!-- Node2&#45;&gt;Node1 -->
<g id="edge1" class="edge"><title>Node2&#45;&gt;Node1</title>
<path fill="none" stroke="midnightblue" d="M68.5,-67.9815C68.5,-59.3468 68.5,-49.7625 68.5,-41.5884"/>
<polygon fill="midnightblue" stroke="midnightblue" points="65.0001,-68.2332 68.5,-78.2333 72.0001,-68.2333 65.0001,-68.2332"/>
</g>
<!-- Node3 -->
<g id="node3" class="node"><title>Node3</title>
<g id="a_node3"><a xlink:href="classgmx_1_1AbstractOption.xhtml" target="_top" xlink:title="Abstract base class for specifying option properties. ">
<polygon fill="white" stroke="black" points="15,-145.5 15,-164.5 122,-164.5 122,-145.5 15,-145.5"/>
<text text-anchor="middle" x="68.5" y="-152.5" font-family="Helvetica,sans-Serif" font-size="10.00">gmx::AbstractOption</text>
</a>
</g>
</g>
<!-- Node3&#45;&gt;Node2 -->
<g id="edge2" class="edge"><title>Node3&#45;&gt;Node2</title>
<path fill="none" stroke="midnightblue" d="M68.5,-135.235C68.5,-126.586 68.5,-116.497 68.5,-108.523"/>
<polygon fill="midnightblue" stroke="midnightblue" points="65.0001,-135.475 68.5,-145.475 72.0001,-135.475 65.0001,-135.475"/>
</g>
</g>
</svg>
