<?xml version="1.0" encoding="UTF-8" standalone="no"?>
<!DOCTYPE svg PUBLIC "-//W3C//DTD SVG 1.1//EN"
 "http://www.w3.org/Graphics/SVG/1.1/DTD/svg11.dtd">
<!-- Generated by graphviz version 2.38.0 (20140413.2041)
 -->
<!-- Title: anonymous_namespace{abstractoptionstorage.cpp}::MockOptionStorage Pages: 1 -->
<svg width="152pt" height="173pt"
 viewBox="0.00 0.00 152.00 173.00" xmlns="http://www.w3.org/2000/svg" xmlns:xlink="http://www.w3.org/1999/xlink">
<g id="graph0" class="graph" transform="scale(1 1) rotate(0) translate(4 169)">
<title>anonymous_namespace{abstractoptionstorage.cpp}::MockOptionStorage</title>
<polygon fill="white" stroke="none" points="-4,4 -4,-169 148,-169 148,4 -4,4"/>
<!-- Node1 -->
<g id="node1" class="node"><title>Node1</title>
<polygon fill="#bfbfbf" stroke="black" points="4.5,-0.5 4.5,-41.5 139.5,-41.5 139.5,-0.5 4.5,-0.5"/>
<text text-anchor="start" x="12.5" y="-29.5" font-family="Helvetica,sans-Serif" font-size="10.00">anonymous_namespace</text>
<text text-anchor="start" x="12.5" y="-18.5" font-family="Helvetica,sans-Serif" font-size="10.00">{abstractoptionstorage.cpp}</text>
<text text-anchor="middle" x="72" y="-7.5" font-family="Helvetica,sans-Serif" font-size="10.00">::MockOptionStorage</text>
</g>
<!-- Node2 -->
<g id="node2" class="node"><title>Node2</title>
<g id="a_node2"><a xlink:href="classgmx_1_1OptionStorageTemplate.xhtml" target="_top" xlink:title="gmx::OptionStorageTemplate\l\&lt; std::string \&gt;">
<polygon fill="white" stroke="black" points="0,-78.5 0,-108.5 144,-108.5 144,-78.5 0,-78.5"/>
<text text-anchor="start" x="8" y="-96.5" font-family="Helvetica,sans-Serif" font-size="10.00">gmx::OptionStorageTemplate</text>
<text text-anchor="middle" x="72" y="-85.5" font-family="Helvetica,sans-Serif" font-size="10.00">&lt; std::string &gt;</text>
</a>
</g>
</g>
<!-- Node2&#45;&gt;Node1 -->
<g id="edge1" class="edge"><title>Node2&#45;&gt;Node1</title>
<path fill="none" stroke="midnightblue" d="M72,-67.9815C72,-59.3468 72,-49.7625 72,-41.5884"/>
<polygon fill="midnightblue" stroke="midnightblue" points="68.5001,-68.2332 72,-78.2333 75.5001,-68.2333 68.5001,-68.2332"/>
</g>
<!-- Node3 -->
<g id="node3" class="node"><title>Node3</title>
<g id="a_node3"><a xlink:href="classgmx_1_1AbstractOptionStorage.xhtml" target="_top" xlink:title="Abstract base class for converting, validating, and storing option values. ">
<polygon fill="white" stroke="black" points="2,-145.5 2,-164.5 142,-164.5 142,-145.5 2,-145.5"/>
<text text-anchor="middle" x="72" y="-152.5" font-family="Helvetica,sans-Serif" font-size="10.00">gmx::AbstractOptionStorage</text>
</a>
</g>
</g>
<!-- Node3&#45;&gt;Node2 -->
<g id="edge2" class="edge"><title>Node3&#45;&gt;Node2</title>
<path fill="none" stroke="midnightblue" d="M72,-135.235C72,-126.586 72,-116.497 72,-108.523"/>
<polygon fill="midnightblue" stroke="midnightblue" points="68.5001,-135.475 72,-145.475 75.5001,-135.475 68.5001,-135.475"/>
</g>
</g>
</svg>
