<?xml version="1.0" encoding="UTF-8" standalone="no"?>
<!DOCTYPE svg PUBLIC "-//W3C//DTD SVG 1.1//EN"
 "http://www.w3.org/Graphics/SVG/1.1/DTD/svg11.dtd">
<!-- Generated by graphviz version 2.38.0 (20140413.2041)
 -->
<!-- Title: gmx::PositionCalculationCollection::Impl Pages: 1 -->
<svg width="362pt" height="197pt"
 viewBox="0.00 0.00 361.50 197.00" xmlns="http://www.w3.org/2000/svg" xmlns:xlink="http://www.w3.org/1999/xlink">
<g id="graph0" class="graph" transform="scale(1 1) rotate(0) translate(4 193)">
<title>gmx::PositionCalculationCollection::Impl</title>
<polygon fill="white" stroke="none" points="-4,4 -4,-193 357.5,-193 357.5,4 -4,4"/>
<!-- Node1 -->
<g id="node1" class="node"><title>Node1</title>
<polygon fill="#bfbfbf" stroke="black" points="0,-91.5 0,-121.5 125,-121.5 125,-91.5 0,-91.5"/>
<text text-anchor="start" x="8" y="-109.5" font-family="Helvetica,sans-Serif" font-size="10.00">gmx::PositionCalculation</text>
<text text-anchor="middle" x="62.5" y="-98.5" font-family="Helvetica,sans-Serif" font-size="10.00">Collection::Impl</text>
</g>
<!-- Node2 -->
<g id="node2" class="node"><title>Node2</title>
<g id="a_node2"><a xlink:href="structgmx__ana__poscalc__t.xhtml" target="_top" xlink:title="Data structure for position calculation. ">
<polygon fill="white" stroke="black" points="108.5,-7 108.5,-26 212.5,-26 212.5,-7 108.5,-7"/>
<text text-anchor="middle" x="160.5" y="-14" font-family="Helvetica,sans-Serif" font-size="10.00">gmx_ana_poscalc_t</text>
</a>
</g>
</g>
<!-- Node1&#45;&gt;Node2 -->
<g id="edge4" class="edge"><title>Node1&#45;&gt;Node2</title>
<path fill="none" stroke="#9a32cd" stroke-dasharray="5,2" d="M64.4159,-81.1803C66.3478,-70.8297 70.1346,-59.2655 77.5,-51 88.3549,-38.8186 104.268,-30.9941 119.265,-26.0017"/>
<polygon fill="#9a32cd" stroke="#9a32cd" points="60.9141,-80.9511 63.0018,-91.3382 67.8473,-81.9163 60.9141,-80.9511"/>
<text text-anchor="middle" x="87" y="-59.5" font-family="Helvetica,sans-Serif" font-size="10.00"> coll</text>
</g>
<!-- Node2&#45;&gt;Node1 -->
<g id="edge1" class="edge"><title>Node2&#45;&gt;Node1</title>
<path fill="none" stroke="#9a32cd" stroke-dasharray="5,2" d="M143.399,-32.8564C125.027,-49.3533 96.075,-75.351 78.2454,-91.3613"/>
<polygon fill="#9a32cd" stroke="#9a32cd" points="145.915,-35.3007 151.017,-26.0153 141.238,-30.0924 145.915,-35.3007"/>
<text text-anchor="middle" x="136" y="-65" font-family="Helvetica,sans-Serif" font-size="10.00"> first_</text>
<text text-anchor="middle" x="136" y="-54" font-family="Helvetica,sans-Serif" font-size="10.00">last_</text>
</g>
<!-- Node2&#45;&gt;Node2 -->
<g id="edge2" class="edge"><title>Node2&#45;&gt;Node2</title>
<path fill="none" stroke="#9a32cd" stroke-dasharray="5,2" d="M222.899,-22.6714C227.606,-21.2964 230.5,-19.2393 230.5,-16.5 230.5,-12.1172 223.092,-9.48065 212.702,-8.59039"/>
<polygon fill="#9a32cd" stroke="#9a32cd" points="221.972,-19.2788 212.702,-24.4096 223.148,-26.1793 221.972,-19.2788"/>
<text text-anchor="middle" x="244" y="-25" font-family="Helvetica,sans-Serif" font-size="10.00"> prev</text>
<text text-anchor="middle" x="244" y="-14" font-family="Helvetica,sans-Serif" font-size="10.00">next</text>
<text text-anchor="middle" x="244" y="-3" font-family="Helvetica,sans-Serif" font-size="10.00">sbase</text>
</g>
<!-- Node3 -->
<g id="node3" class="node"><title>Node3</title>
<g id="a_node3"><a xlink:href="structgmx__ana__index__t.xhtml" target="_top" xlink:title="Stores a single index group. ">
<polygon fill="white" stroke="black" points="143,-97 143,-116 236,-116 236,-97 143,-97"/>
<text text-anchor="middle" x="189.5" y="-104" font-family="Helvetica,sans-Serif" font-size="10.00">gmx_ana_index_t</text>
</a>
</g>
</g>
<!-- Node3&#45;&gt;Node2 -->
<g id="edge3" class="edge"><title>Node3&#45;&gt;Node2</title>
<path fill="none" stroke="#9a32cd" stroke-dasharray="5,2" d="M183.405,-87.0044C177.252,-68.3323 168.014,-40.3011 163.375,-26.2241"/>
<polygon fill="#9a32cd" stroke="#9a32cd" points="180.159,-88.3384 186.613,-96.7405 186.808,-86.1474 180.159,-88.3384"/>
<text text-anchor="middle" x="192.5" y="-59.5" font-family="Helvetica,sans-Serif" font-size="10.00"> gmax</text>
</g>
<!-- Node4 -->
<g id="node4" class="node"><title>Node4</title>
<g id="a_node4"><a xlink:href="structgmx__ana__pos__t.xhtml" target="_top" xlink:title="Stores a set of positions together with their origins. ">
<polygon fill="white" stroke="black" points="254.5,-97 254.5,-116 340.5,-116 340.5,-97 254.5,-97"/>
<text text-anchor="middle" x="297.5" y="-104" font-family="Helvetica,sans-Serif" font-size="10.00">gmx_ana_pos_t</text>
</a>
</g>
</g>
<!-- Node4&#45;&gt;Node2 -->
<g id="edge5" class="edge"><title>Node4&#45;&gt;Node2</title>
<path fill="none" stroke="#9a32cd" stroke-dasharray="5,2" d="M275.573,-91.4156C246.836,-72.9565 197.325,-41.154 173.738,-26.0034"/>
<polygon fill="#9a32cd" stroke="#9a32cd" points="273.809,-94.4423 284.114,-96.902 277.592,-88.5526 273.809,-94.4423"/>
<text text-anchor="middle" x="249" y="-59.5" font-family="Helvetica,sans-Serif" font-size="10.00"> p</text>
</g>
<!-- Node5 -->
<g id="node5" class="node"><title>Node5</title>
<g id="a_node5"><a xlink:href="structgmx__ana__indexmap__t.xhtml" target="_top" xlink:title="Data structure for calculating index group mappings. ">
<polygon fill="white" stroke="black" points="241.5,-169.5 241.5,-188.5 353.5,-188.5 353.5,-169.5 241.5,-169.5"/>
<text text-anchor="middle" x="297.5" y="-176.5" font-family="Helvetica,sans-Serif" font-size="10.00">gmx_ana_indexmap_t</text>
</a>
</g>
</g>
<!-- Node5&#45;&gt;Node4 -->
<g id="edge6" class="edge"><title>Node5&#45;&gt;Node4</title>
<path fill="none" stroke="#9a32cd" stroke-dasharray="5,2" d="M297.5,-158.942C297.5,-145.03 297.5,-126.82 297.5,-116.215"/>
<polygon fill="#9a32cd" stroke="#9a32cd" points="294,-159.355 297.5,-169.355 301,-159.355 294,-159.355"/>
<text text-anchor="middle" x="303.5" y="-143" font-family="Helvetica,sans-Serif" font-size="10.00"> m</text>
</g>
</g>
</svg>
