<?xml version="1.0" encoding="UTF-8" standalone="no"?>
<!DOCTYPE svg PUBLIC "-//W3C//DTD SVG 1.1//EN"
 "http://www.w3.org/Graphics/SVG/1.1/DTD/svg11.dtd">
<!-- Generated by graphviz version 2.38.0 (20140413.2041)
 -->
<!-- Title: gmx::AbstractCompositeHelpTopic Pages: 1 -->
<svg width="664pt" height="147pt"
 viewBox="0.00 0.00 664.00 147.00" xmlns="http://www.w3.org/2000/svg" xmlns:xlink="http://www.w3.org/1999/xlink">
<g id="graph0" class="graph" transform="scale(1 1) rotate(0) translate(4 143)">
<title>gmx::AbstractCompositeHelpTopic</title>
<polygon fill="white" stroke="none" points="-4,4 -4,-143 660,-143 660,4 -4,4"/>
<!-- Node1 -->
<g id="node1" class="node"><title>Node1</title>
<polygon fill="#bfbfbf" stroke="black" points="125,-54.5 125,-84.5 271,-84.5 271,-54.5 125,-54.5"/>
<text text-anchor="start" x="133" y="-72.5" font-family="Helvetica,sans-Serif" font-size="10.00">gmx::AbstractCompositeHelp</text>
<text text-anchor="middle" x="198" y="-61.5" font-family="Helvetica,sans-Serif" font-size="10.00">Topic</text>
</g>
<!-- Node3 -->
<g id="node3" class="node"><title>Node3</title>
<g id="a_node3"><a xlink:href="classgmx_1_1CompositeHelpTopic.xhtml" target="_top" xlink:title="gmx::CompositeHelpTopic\l\&lt; KeywordsHelpText \&gt;">
<polygon fill="white" stroke="black" points="314,-108.5 314,-138.5 447,-138.5 447,-108.5 314,-108.5"/>
<text text-anchor="start" x="322" y="-126.5" font-family="Helvetica,sans-Serif" font-size="10.00">gmx::CompositeHelpTopic</text>
<text text-anchor="middle" x="380.5" y="-115.5" font-family="Helvetica,sans-Serif" font-size="10.00">&lt; KeywordsHelpText &gt;</text>
</a>
</g>
</g>
<!-- Node1&#45;&gt;Node3 -->
<g id="edge2" class="edge"><title>Node1&#45;&gt;Node3</title>
<path fill="none" stroke="midnightblue" d="M259.153,-87.4959C281.868,-94.2915 307.455,-101.946 329.178,-108.445"/>
<polygon fill="midnightblue" stroke="midnightblue" points="259.863,-84.0551 249.279,-84.542 257.857,-90.7614 259.863,-84.0551"/>
</g>
<!-- Node5 -->
<g id="node5" class="node"><title>Node5</title>
<g id="a_node5"><a xlink:href="classgmx_1_1anonymous__namespace_02cmdlinehelpmodule_8cpp_03_1_1RootHelpTopic.xhtml" target="_top" xlink:title="Help topic that forms the root of the help tree for the help subcommand. ">
<polygon fill="white" stroke="black" points="307,-49 307,-90 454,-90 454,-49 307,-49"/>
<text text-anchor="start" x="315" y="-78" font-family="Helvetica,sans-Serif" font-size="10.00">gmx::anonymous_namespace</text>
<text text-anchor="start" x="315" y="-67" font-family="Helvetica,sans-Serif" font-size="10.00">{cmdlinehelpmodule.cpp}</text>
<text text-anchor="middle" x="380.5" y="-56" font-family="Helvetica,sans-Serif" font-size="10.00">::RootHelpTopic</text>
</a>
</g>
</g>
<!-- Node1&#45;&gt;Node5 -->
<g id="edge4" class="edge"><title>Node1&#45;&gt;Node5</title>
<path fill="none" stroke="midnightblue" d="M281.142,-69.5C289.737,-69.5 298.431,-69.5 306.909,-69.5"/>
<polygon fill="midnightblue" stroke="midnightblue" points="281.117,-66.0001 271.117,-69.5 281.117,-73.0001 281.117,-66.0001"/>
</g>
<!-- Node6 -->
<g id="node6" class="node"><title>Node6</title>
<g id="a_node6"><a xlink:href="classgmx_1_1CompositeHelpTopic.xhtml" target="_top" xlink:title="Template for simple implementation of AbstractCompositeHelpTopic. ">
<polygon fill="white" stroke="black" points="314,-0.5 314,-30.5 447,-30.5 447,-0.5 314,-0.5"/>
<text text-anchor="start" x="322" y="-18.5" font-family="Helvetica,sans-Serif" font-size="10.00">gmx::CompositeHelpTopic</text>
<text text-anchor="middle" x="380.5" y="-7.5" font-family="Helvetica,sans-Serif" font-size="10.00">&lt; HelpText &gt;</text>
</a>
</g>
</g>
<!-- Node1&#45;&gt;Node6 -->
<g id="edge5" class="edge"><title>Node1&#45;&gt;Node6</title>
<path fill="none" stroke="midnightblue" d="M259.153,-51.5041C281.868,-44.7085 307.455,-37.0535 329.178,-30.5549"/>
<polygon fill="midnightblue" stroke="midnightblue" points="257.857,-48.2386 249.279,-54.458 259.863,-54.9449 257.857,-48.2386"/>
</g>
<!-- Node2 -->
<g id="node2" class="node"><title>Node2</title>
<g id="a_node2"><a xlink:href="classgmx_1_1IHelpTopic.xhtml" target="_top" xlink:title="Provides a single online help topic. ">
<polygon fill="white" stroke="black" points="0,-60 0,-79 89,-79 89,-60 0,-60"/>
<text text-anchor="middle" x="44.5" y="-67" font-family="Helvetica,sans-Serif" font-size="10.00">gmx::IHelpTopic</text>
</a>
</g>
</g>
<!-- Node2&#45;&gt;Node1 -->
<g id="edge1" class="edge"><title>Node2&#45;&gt;Node1</title>
<path fill="none" stroke="midnightblue" d="M99.4683,-69.5C107.663,-69.5 116.228,-69.5 124.736,-69.5"/>
<polygon fill="midnightblue" stroke="midnightblue" points="99.3201,-66.0001 89.3201,-69.5 99.32,-73.0001 99.3201,-66.0001"/>
</g>
<!-- Node4 -->
<g id="node4" class="node"><title>Node4</title>
<g id="a_node4"><a xlink:href="classgmx_1_1anonymous__namespace_02selhelp_8cpp_03_1_1KeywordsHelpTopic.xhtml" target="_top" xlink:title="Custom help topic for printing a list of selection keywords. ">
<polygon fill="white" stroke="black" points="490,-108.5 490,-138.5 656,-138.5 656,-108.5 490,-108.5"/>
<text text-anchor="start" x="498" y="-126.5" font-family="Helvetica,sans-Serif" font-size="10.00">gmx::anonymous_namespace</text>
<text text-anchor="middle" x="573" y="-115.5" font-family="Helvetica,sans-Serif" font-size="10.00">{selhelp.cpp}::KeywordsHelpTopic</text>
</a>
</g>
</g>
<!-- Node3&#45;&gt;Node4 -->
<g id="edge3" class="edge"><title>Node3&#45;&gt;Node4</title>
<path fill="none" stroke="midnightblue" d="M457.212,-123.5C467.931,-123.5 478.995,-123.5 489.829,-123.5"/>
<polygon fill="midnightblue" stroke="midnightblue" points="457.059,-120 447.059,-123.5 457.059,-127 457.059,-120"/>
</g>
</g>
</svg>
