<?xml version="1.0" encoding="UTF-8" standalone="no"?>
<!DOCTYPE svg PUBLIC "-//W3C//DTD SVG 1.1//EN"
 "http://www.w3.org/Graphics/SVG/1.1/DTD/svg11.dtd">
<!-- Generated by graphviz version 2.38.0 (20140413.2041)
 -->
<!-- Title: src/gromacs/commandline/cmdlineoptionsmodule.cpp Pages: 1 -->
<svg width="1836pt" height="397pt"
 viewBox="0.00 0.00 1836.00 397.00" xmlns="http://www.w3.org/2000/svg" xmlns:xlink="http://www.w3.org/1999/xlink">
<g id="graph0" class="graph" transform="scale(1 1) rotate(0) translate(4 393)">
<title>src/gromacs/commandline/cmdlineoptionsmodule.cpp</title>
<polygon fill="white" stroke="none" points="-4,4 -4,-393 1832,-393 1832,4 -4,4"/>
<!-- Node1 -->
<g id="node1" class="node"><title>Node1</title>
<polygon fill="#bfbfbf" stroke="black" points="753.5,-358.5 753.5,-388.5 888.5,-388.5 888.5,-358.5 753.5,-358.5"/>
<text text-anchor="start" x="761.5" y="-376.5" font-family="Helvetica,sans-Serif" font-size="10.00">src/gromacs/commandline</text>
<text text-anchor="middle" x="821" y="-365.5" font-family="Helvetica,sans-Serif" font-size="10.00">/cmdlineoptionsmodule.cpp</text>
</g>
<!-- Node2 -->
<g id="node2" class="node"><title>Node2</title>
<g id="a_node2"><a xlink:href="gmxpre_8h.xhtml" target="_top" xlink:title="Prerequisite header file for GROMACS build. ">
<polygon fill="white" stroke="black" points="26.5,-302.5 26.5,-321.5 83.5,-321.5 83.5,-302.5 26.5,-302.5"/>
<text text-anchor="middle" x="55" y="-309.5" font-family="Helvetica,sans-Serif" font-size="10.00">gmxpre.h</text>
</a>
</g>
</g>
<!-- Node1&#45;&gt;Node2 -->
<g id="edge1" class="edge"><title>Node1&#45;&gt;Node2</title>
<path fill="none" stroke="midnightblue" d="M753.399,-370.857C625.08,-367.057 337.601,-355.284 98,-322 96.5363,-321.797 95.0479,-321.573 93.5468,-321.332"/>
<polygon fill="midnightblue" stroke="midnightblue" points="94.0457,-317.866 83.5858,-319.551 92.8137,-324.757 94.0457,-317.866"/>
</g>
<!-- Node3 -->
<g id="node3" class="node"><title>Node3</title>
<g id="a_node3"><a xlink:href="cmdlineoptionsmodule_8h.xhtml" target="_top" xlink:title="Declares gmx::ICommandLineOptionsModule and supporting routines. ">
<polygon fill="white" stroke="black" points="0,-190.5 0,-209.5 122,-209.5 122,-190.5 0,-190.5"/>
<text text-anchor="middle" x="61" y="-197.5" font-family="Helvetica,sans-Serif" font-size="10.00">cmdlineoptionsmodule.h</text>
</a>
</g>
</g>
<!-- Node1&#45;&gt;Node3 -->
<g id="edge2" class="edge"><title>Node1&#45;&gt;Node3</title>
<path fill="none" stroke="midnightblue" d="M753.235,-370.974C590.627,-366.822 187.917,-353.457 136,-322 97.3726,-298.595 75.6753,-246.948 66.4205,-219.305"/>
<polygon fill="midnightblue" stroke="midnightblue" points="69.7323,-218.169 63.3822,-209.688 63.0574,-220.278 69.7323,-218.169"/>
</g>
<!-- Node5 -->
<g id="node5" class="node"><title>Node5</title>
<polygon fill="white" stroke="#bfbfbf" points="213,-0.5 213,-19.5 265,-19.5 265,-0.5 213,-0.5"/>
<text text-anchor="middle" x="239" y="-7.5" font-family="Helvetica,sans-Serif" font-size="10.00">memory</text>
</g>
<!-- Node1&#45;&gt;Node5 -->
<g id="edge8" class="edge"><title>Node1&#45;&gt;Node5</title>
<path fill="none" stroke="midnightblue" d="M753.366,-360.71C598.229,-332.137 224.605,-254.115 153,-154 120.995,-109.251 183.799,-52.201 218.363,-25.7254"/>
<polygon fill="midnightblue" stroke="midnightblue" points="220.544,-28.4644 226.466,-19.6791 216.358,-22.8539 220.544,-28.4644"/>
</g>
<!-- Node8 -->
<g id="node8" class="node"><title>Node8</title>
<g id="a_node8"><a xlink:href="cmdlinehelpwriter_8h.xhtml" target="_top" xlink:title="Declares gmx::CommandLineHelpWriter. ">
<polygon fill="white" stroke="black" points="639.5,-123.5 639.5,-153.5 754.5,-153.5 754.5,-123.5 639.5,-123.5"/>
<text text-anchor="start" x="647.5" y="-141.5" font-family="Helvetica,sans-Serif" font-size="10.00">gromacs/commandline</text>
<text text-anchor="middle" x="697" y="-130.5" font-family="Helvetica,sans-Serif" font-size="10.00">/cmdlinehelpwriter.h</text>
</a>
</g>
</g>
<!-- Node1&#45;&gt;Node8 -->
<g id="edge9" class="edge"><title>Node1&#45;&gt;Node8</title>
<path fill="none" stroke="midnightblue" d="M813.43,-358.276C792.67,-319.268 734.698,-210.336 709.246,-162.51"/>
<polygon fill="midnightblue" stroke="midnightblue" points="712.259,-160.722 704.471,-153.538 706.079,-164.01 712.259,-160.722"/>
</g>
<!-- Node10 -->
<g id="node10" class="node"><title>Node10</title>
<g id="a_node10"><a xlink:href="cmdlinemodulemanager_8h.xhtml" target="_top" xlink:title="Declares gmx::CommandLineModuleManager. ">
<polygon fill="white" stroke="black" points="162.5,-123.5 162.5,-153.5 293.5,-153.5 293.5,-123.5 162.5,-123.5"/>
<text text-anchor="start" x="170.5" y="-141.5" font-family="Helvetica,sans-Serif" font-size="10.00">gromacs/commandline</text>
<text text-anchor="middle" x="228" y="-130.5" font-family="Helvetica,sans-Serif" font-size="10.00">/cmdlinemodulemanager.h</text>
</a>
</g>
</g>
<!-- Node1&#45;&gt;Node10 -->
<g id="edge12" class="edge"><title>Node1&#45;&gt;Node10</title>
<path fill="none" stroke="midnightblue" d="M785.241,-358.45C682.562,-318.105 386.933,-201.948 273.271,-157.288"/>
<polygon fill="midnightblue" stroke="midnightblue" points="274.393,-153.968 263.806,-153.569 271.833,-160.483 274.393,-153.968"/>
</g>
<!-- Node12 -->
<g id="node12" class="node"><title>Node12</title>
<g id="a_node12"><a xlink:href="cmdlineparser_8h.xhtml" target="_top" xlink:title="Declares gmx::CommandLineParser. ">
<polygon fill="white" stroke="black" points="849.5,-123.5 849.5,-153.5 964.5,-153.5 964.5,-123.5 849.5,-123.5"/>
<text text-anchor="start" x="857.5" y="-141.5" font-family="Helvetica,sans-Serif" font-size="10.00">gromacs/commandline</text>
<text text-anchor="middle" x="907" y="-130.5" font-family="Helvetica,sans-Serif" font-size="10.00">/cmdlineparser.h</text>
</a>
</g>
</g>
<!-- Node1&#45;&gt;Node12 -->
<g id="edge17" class="edge"><title>Node1&#45;&gt;Node12</title>
<path fill="none" stroke="midnightblue" d="M824.81,-358.335C828.758,-344.012 835.282,-321.298 842,-302 859.488,-251.766 883.452,-194.249 896.859,-162.898"/>
<polygon fill="midnightblue" stroke="midnightblue" points="900.087,-164.251 900.819,-153.681 893.656,-161.488 900.087,-164.251"/>
</g>
<!-- Node14 -->
<g id="node14" class="node"><title>Node14</title>
<g id="a_node14"><a xlink:href="behaviorcollection_8h.xhtml" target="_top" xlink:title="Declares gmx::OptionsBehaviorCollection. ">
<polygon fill="white" stroke="black" points="444,-129 444,-148 622,-148 622,-129 444,-129"/>
<text text-anchor="middle" x="533" y="-136" font-family="Helvetica,sans-Serif" font-size="10.00">gromacs/options/behaviorcollection.h</text>
</a>
</g>
</g>
<!-- Node1&#45;&gt;Node14 -->
<g id="edge21" class="edge"><title>Node1&#45;&gt;Node14</title>
<path fill="none" stroke="midnightblue" d="M803.418,-358.276C752.284,-316.907 603.945,-196.896 551.575,-154.528"/>
<polygon fill="midnightblue" stroke="midnightblue" points="553.731,-151.77 543.755,-148.201 549.328,-157.212 553.731,-151.77"/>
</g>
<!-- Node15 -->
<g id="node15" class="node"><title>Node15</title>
<g id="a_node15"><a xlink:href="filenameoptionmanager_8h.xhtml" target="_top" xlink:title="Declares gmx::FileNameOptionManager. ">
<polygon fill="white" stroke="black" points="851,-302.5 851,-321.5 1051,-321.5 1051,-302.5 851,-302.5"/>
<text text-anchor="middle" x="951" y="-309.5" font-family="Helvetica,sans-Serif" font-size="10.00">gromacs/options/filenameoptionmanager.h</text>
</a>
</g>
</g>
<!-- Node1&#45;&gt;Node15 -->
<g id="edge25" class="edge"><title>Node1&#45;&gt;Node15</title>
<path fill="none" stroke="midnightblue" d="M851.808,-358.399C873.328,-348.55 901.837,-335.501 922.768,-325.922"/>
<polygon fill="midnightblue" stroke="midnightblue" points="924.448,-329.002 932.084,-321.658 921.534,-322.637 924.448,-329.002"/>
</g>
<!-- Node16 -->
<g id="node16" class="node"><title>Node16</title>
<g id="a_node16"><a xlink:href="options_2options_8h.xhtml" target="_top" xlink:title="Declares gmx::Options. ">
<polygon fill="white" stroke="black" points="1015.5,-246.5 1015.5,-265.5 1146.5,-265.5 1146.5,-246.5 1015.5,-246.5"/>
<text text-anchor="middle" x="1081" y="-253.5" font-family="Helvetica,sans-Serif" font-size="10.00">gromacs/options/options.h</text>
</a>
</g>
</g>
<!-- Node1&#45;&gt;Node16 -->
<g id="edge44" class="edge"><title>Node1&#45;&gt;Node16</title>
<path fill="none" stroke="midnightblue" d="M888.606,-365.787C950.171,-358.36 1035.15,-344.388 1060,-322 1073.06,-310.235 1078.04,-290.305 1079.91,-275.607"/>
<polygon fill="midnightblue" stroke="midnightblue" points="1083.4,-275.887 1080.82,-265.611 1076.43,-275.251 1083.4,-275.887"/>
</g>
<!-- Node21 -->
<g id="node21" class="node"><title>Node21</title>
<g id="a_node21"><a xlink:href="gmxassert_8h.xhtml" target="_top" xlink:title="Defines assert macros customized for Gromacs. ">
<polygon fill="white" stroke="black" points="1423.5,-129 1423.5,-148 1560.5,-148 1560.5,-129 1423.5,-129"/>
<text text-anchor="middle" x="1492" y="-136" font-family="Helvetica,sans-Serif" font-size="10.00">gromacs/utility/gmxassert.h</text>
</a>
</g>
</g>
<!-- Node1&#45;&gt;Node21 -->
<g id="edge52" class="edge"><title>Node1&#45;&gt;Node21</title>
<path fill="none" stroke="midnightblue" d="M888.539,-371.948C1045.87,-370.004 1426.62,-361.252 1468,-322 1513.18,-279.15 1503.49,-195.807 1496.28,-158.433"/>
<polygon fill="midnightblue" stroke="midnightblue" points="1499.66,-157.479 1494.19,-148.406 1492.8,-158.91 1499.66,-157.479"/>
</g>
<!-- Node26 -->
<g id="node26" class="node"><title>Node26</title>
<g id="a_node26"><a xlink:href="ioptionsbehavior_8h.xhtml" target="_top" xlink:title="Declares gmx::IOptionsBehavior. ">
<polygon fill="white" stroke="black" points="1289,-302.5 1289,-321.5 1459,-321.5 1459,-302.5 1289,-302.5"/>
<text text-anchor="middle" x="1374" y="-309.5" font-family="Helvetica,sans-Serif" font-size="10.00">gromacs/options/ioptionsbehavior.h</text>
</a>
</g>
</g>
<!-- Node1&#45;&gt;Node26 -->
<g id="edge43" class="edge"><title>Node1&#45;&gt;Node26</title>
<path fill="none" stroke="midnightblue" d="M888.532,-365.234C988,-354.532 1174.04,-334.515 1284.69,-322.609"/>
<polygon fill="midnightblue" stroke="midnightblue" points="1285.26,-326.068 1294.83,-321.519 1284.51,-319.109 1285.26,-326.068"/>
</g>
<!-- Node27 -->
<g id="node27" class="node"><title>Node27</title>
<g id="a_node27"><a xlink:href="arrayref_8h.xhtml" target="_top" xlink:title="Declares gmx::ArrayRef and gmx::ConstArrayRef. ">
<polygon fill="white" stroke="black" points="1540.5,-190.5 1540.5,-209.5 1665.5,-209.5 1665.5,-190.5 1540.5,-190.5"/>
<text text-anchor="middle" x="1603" y="-197.5" font-family="Helvetica,sans-Serif" font-size="10.00">gromacs/utility/arrayref.h</text>
</a>
</g>
</g>
<!-- Node1&#45;&gt;Node27 -->
<g id="edge45" class="edge"><title>Node1&#45;&gt;Node27</title>
<path fill="none" stroke="midnightblue" d="M888.514,-370.499C1050.03,-365.286 1449.34,-349.733 1503,-322 1547.63,-298.932 1579.84,-246.336 1594.38,-218.705"/>
<polygon fill="midnightblue" stroke="midnightblue" points="1597.51,-220.256 1598.92,-209.755 1591.27,-217.087 1597.51,-220.256"/>
</g>
<!-- Node32 -->
<g id="node32" class="node"><title>Node32</title>
<g id="a_node32"><a xlink:href="stringutil_8h.xhtml" target="_top" xlink:title="Declares common string utility and formatting routines. ">
<polygon fill="white" stroke="black" points="1239,-129 1239,-148 1367,-148 1367,-129 1239,-129"/>
<text text-anchor="middle" x="1303" y="-136" font-family="Helvetica,sans-Serif" font-size="10.00">gromacs/utility/stringutil.h</text>
</a>
</g>
</g>
<!-- Node1&#45;&gt;Node32 -->
<g id="edge53" class="edge"><title>Node1&#45;&gt;Node32</title>
<path fill="none" stroke="midnightblue" d="M888.673,-366.988C942.27,-360.829 1018.15,-348.057 1080,-322 1160.67,-288.016 1176.84,-268.451 1242,-210 1260.36,-193.531 1278.47,-171.691 1290.13,-156.707"/>
<polygon fill="midnightblue" stroke="midnightblue" points="1293.21,-158.445 1296.5,-148.374 1287.65,-154.194 1293.21,-158.445"/>
</g>
<!-- Node4 -->
<g id="node4" class="node"><title>Node4</title>
<polygon fill="white" stroke="#bfbfbf" points="46.5,-129 46.5,-148 105.5,-148 105.5,-129 46.5,-129"/>
<text text-anchor="middle" x="76" y="-136" font-family="Helvetica,sans-Serif" font-size="10.00">functional</text>
</g>
<!-- Node3&#45;&gt;Node4 -->
<g id="edge3" class="edge"><title>Node3&#45;&gt;Node4</title>
<path fill="none" stroke="midnightblue" d="M63.1491,-190.475C65.2878,-181.992 68.6376,-168.704 71.3809,-157.822"/>
<polygon fill="midnightblue" stroke="midnightblue" points="74.8041,-158.561 73.8549,-148.009 68.0164,-156.85 74.8041,-158.561"/>
</g>
<!-- Node3&#45;&gt;Node5 -->
<g id="edge4" class="edge"><title>Node3&#45;&gt;Node5</title>
<path fill="none" stroke="midnightblue" d="M54.1088,-190.269C43.6004,-175.819 25.9023,-146.221 37,-123 67.8329,-58.4857 153.719,-29.5059 203.004,-17.8587"/>
<polygon fill="midnightblue" stroke="midnightblue" points="203.942,-21.2353 212.933,-15.6298 202.409,-14.4053 203.942,-21.2353"/>
</g>
<!-- Node6 -->
<g id="node6" class="node"><title>Node6</title>
<g id="a_node6"><a xlink:href="cmdlinemodule_8h.xhtml" target="_top" xlink:title="Declares gmx::ICommandLineModule and supporting classes. ">
<polygon fill="white" stroke="black" points="311.5,-123.5 311.5,-153.5 426.5,-153.5 426.5,-123.5 311.5,-123.5"/>
<text text-anchor="start" x="319.5" y="-141.5" font-family="Helvetica,sans-Serif" font-size="10.00">gromacs/commandline</text>
<text text-anchor="middle" x="369" y="-130.5" font-family="Helvetica,sans-Serif" font-size="10.00">/cmdlinemodule.h</text>
</a>
</g>
</g>
<!-- Node3&#45;&gt;Node6 -->
<g id="edge5" class="edge"><title>Node3&#45;&gt;Node6</title>
<path fill="none" stroke="midnightblue" d="M109.09,-190.438C155.697,-182.045 228.638,-168.665 301.471,-154.074"/>
<polygon fill="midnightblue" stroke="midnightblue" points="302.165,-157.504 311.278,-152.101 300.785,-150.642 302.165,-157.504"/>
</g>
<!-- Node7 -->
<g id="node7" class="node"><title>Node7</title>
<g id="a_node7"><a xlink:href="classhelpers_8h.xhtml" target="_top" xlink:title="Declares common utility classes and macros. ">
<polygon fill="white" stroke="black" points="624,-62 624,-81 770,-81 770,-62 624,-62"/>
<text text-anchor="middle" x="697" y="-69" font-family="Helvetica,sans-Serif" font-size="10.00">gromacs/utility/classhelpers.h</text>
</a>
</g>
</g>
<!-- Node6&#45;&gt;Node7 -->
<g id="edge6" class="edge"><title>Node6&#45;&gt;Node7</title>
<path fill="none" stroke="midnightblue" d="M426.574,-124.759C429.422,-124.158 432.242,-123.569 435,-123 505.753,-108.412 587.531,-92.8568 640.645,-82.9266"/>
<polygon fill="midnightblue" stroke="midnightblue" points="641.359,-86.3539 650.547,-81.0784 640.075,-79.4727 641.359,-86.3539"/>
</g>
<!-- Node7&#45;&gt;Node5 -->
<g id="edge7" class="edge"><title>Node7&#45;&gt;Node5</title>
<path fill="none" stroke="midnightblue" d="M631.38,-61.9751C533.461,-49.2541 352.383,-25.7299 275.284,-15.7137"/>
<polygon fill="midnightblue" stroke="midnightblue" points="275.482,-12.2101 265.114,-14.3926 274.58,-19.1518 275.482,-12.2101"/>
</g>
<!-- Node8&#45;&gt;Node7 -->
<g id="edge11" class="edge"><title>Node8&#45;&gt;Node7</title>
<path fill="none" stroke="midnightblue" d="M697,-123.396C697,-114.064 697,-101.714 697,-91.5173"/>
<polygon fill="midnightblue" stroke="midnightblue" points="700.5,-91.1945 697,-81.1945 693.5,-91.1946 700.5,-91.1945"/>
</g>
<!-- Node9 -->
<g id="node9" class="node"><title>Node9</title>
<polygon fill="white" stroke="#bfbfbf" points="977.5,-62 977.5,-81 1018.5,-81 1018.5,-62 977.5,-62"/>
<text text-anchor="middle" x="998" y="-69" font-family="Helvetica,sans-Serif" font-size="10.00">string</text>
</g>
<!-- Node8&#45;&gt;Node9 -->
<g id="edge10" class="edge"><title>Node8&#45;&gt;Node9</title>
<path fill="none" stroke="midnightblue" d="M754.68,-125.044C818.108,-111.347 917.624,-89.8569 967.442,-79.0988"/>
<polygon fill="midnightblue" stroke="midnightblue" points="968.252,-82.5047 977.288,-76.9727 966.774,-75.6625 968.252,-82.5047"/>
</g>
<!-- Node10&#45;&gt;Node5 -->
<g id="edge13" class="edge"><title>Node10&#45;&gt;Node5</title>
<path fill="none" stroke="midnightblue" d="M223.704,-123.23C219.399,-106.852 214.065,-79.2551 219,-56 220.997,-46.5915 225.101,-36.7618 229.075,-28.6981"/>
<polygon fill="midnightblue" stroke="midnightblue" points="232.307,-30.0721 233.87,-19.5932 226.113,-26.8101 232.307,-30.0721"/>
</g>
<!-- Node10&#45;&gt;Node7 -->
<g id="edge16" class="edge"><title>Node10&#45;&gt;Node7</title>
<path fill="none" stroke="midnightblue" d="M293.808,-124.532C296.912,-123.997 299.988,-123.484 303,-123 409.924,-105.829 533.924,-90.7222 613.817,-81.6079"/>
<polygon fill="midnightblue" stroke="midnightblue" points="614.28,-85.0779 623.821,-80.4716 613.49,-78.1226 614.28,-85.0779"/>
</g>
<!-- Node11 -->
<g id="node11" class="node"><title>Node11</title>
<g id="a_node11"><a xlink:href="ihelptopic_8h.xhtml" target="_top" xlink:title="Declares gmx::IHelpTopic. ">
<polygon fill="white" stroke="black" points="228.5,-56.5 228.5,-86.5 329.5,-86.5 329.5,-56.5 228.5,-56.5"/>
<text text-anchor="start" x="236.5" y="-74.5" font-family="Helvetica,sans-Serif" font-size="10.00">gromacs/onlinehelp</text>
<text text-anchor="middle" x="279" y="-63.5" font-family="Helvetica,sans-Serif" font-size="10.00">/ihelptopic.h</text>
</a>
</g>
</g>
<!-- Node10&#45;&gt;Node11 -->
<g id="edge14" class="edge"><title>Node10&#45;&gt;Node11</title>
<path fill="none" stroke="midnightblue" d="M239.066,-123.396C245.683,-114.963 254.232,-104.067 261.722,-94.5216"/>
<polygon fill="midnightblue" stroke="midnightblue" points="264.536,-96.6044 267.955,-86.5765 259.029,-92.2834 264.536,-96.6044"/>
</g>
<!-- Node11&#45;&gt;Node5 -->
<g id="edge15" class="edge"><title>Node11&#45;&gt;Node5</title>
<path fill="none" stroke="midnightblue" d="M269.521,-56.3993C263.828,-47.9315 256.546,-37.0991 250.522,-28.1393"/>
<polygon fill="midnightblue" stroke="midnightblue" points="253.304,-26.0041 244.82,-19.6578 247.495,-29.9095 253.304,-26.0041"/>
</g>
<!-- Node12&#45;&gt;Node7 -->
<g id="edge20" class="edge"><title>Node12&#45;&gt;Node7</title>
<path fill="none" stroke="midnightblue" d="M861.692,-123.476C823.721,-111.723 770.155,-95.1433 734.543,-84.1205"/>
<polygon fill="midnightblue" stroke="midnightblue" points="735.142,-80.6421 724.554,-81.0287 733.072,-87.3291 735.142,-80.6421"/>
</g>
<!-- Node12&#45;&gt;Node9 -->
<g id="edge18" class="edge"><title>Node12&#45;&gt;Node9</title>
<path fill="none" stroke="midnightblue" d="M926.746,-123.396C941.865,-112.597 962.641,-97.7564 977.858,-86.8872"/>
<polygon fill="midnightblue" stroke="midnightblue" points="979.987,-89.6675 986.09,-81.007 975.918,-83.9714 979.987,-89.6675"/>
</g>
<!-- Node13 -->
<g id="node13" class="node"><title>Node13</title>
<polygon fill="white" stroke="#bfbfbf" points="1208,-62 1208,-81 1252,-81 1252,-62 1208,-62"/>
<text text-anchor="middle" x="1230" y="-69" font-family="Helvetica,sans-Serif" font-size="10.00">vector</text>
</g>
<!-- Node12&#45;&gt;Node13 -->
<g id="edge19" class="edge"><title>Node12&#45;&gt;Node13</title>
<path fill="none" stroke="midnightblue" d="M964.588,-132.116C1024.27,-125.482 1119.73,-111.901 1199,-87 1200.87,-86.4124 1202.77,-85.7353 1204.67,-85.0016"/>
<polygon fill="midnightblue" stroke="midnightblue" points="1206.12,-88.1882 1213.92,-81.0132 1203.35,-81.7608 1206.12,-88.1882"/>
</g>
<!-- Node14&#45;&gt;Node5 -->
<g id="edge22" class="edge"><title>Node14&#45;&gt;Node5</title>
<path fill="none" stroke="midnightblue" d="M512.792,-128.805C461.792,-106.861 327.702,-49.1659 268.181,-23.5556"/>
<polygon fill="midnightblue" stroke="midnightblue" points="269.53,-20.3259 258.96,-19.5884 266.763,-26.7559 269.53,-20.3259"/>
</g>
<!-- Node14&#45;&gt;Node7 -->
<g id="edge24" class="edge"><title>Node14&#45;&gt;Node7</title>
<path fill="none" stroke="midnightblue" d="M554.778,-128.869C583.283,-117.571 633.428,-97.6961 665.92,-84.8183"/>
<polygon fill="midnightblue" stroke="midnightblue" points="667.386,-88.0021 675.393,-81.0637 664.807,-81.4945 667.386,-88.0021"/>
</g>
<!-- Node14&#45;&gt;Node13 -->
<g id="edge23" class="edge"><title>Node14&#45;&gt;Node13</title>
<path fill="none" stroke="midnightblue" d="M585.028,-128.976C599.85,-126.772 616.034,-124.579 631,-123 882.555,-96.4651 953.938,-149.68 1199,-87 1200.99,-86.4921 1203,-85.8577 1205,-85.1402"/>
<polygon fill="midnightblue" stroke="midnightblue" points="1206.8,-88.1764 1214.65,-81.0603 1204.08,-81.7284 1206.8,-88.1764"/>
</g>
<!-- Node15&#45;&gt;Node7 -->
<g id="edge42" class="edge"><title>Node15&#45;&gt;Node7</title>
<path fill="none" stroke="midnightblue" d="M942.792,-302.429C911.835,-270.158 801.998,-156.124 764,-123 749.139,-110.045 731.263,-96.6721 717.715,-86.9448"/>
<polygon fill="midnightblue" stroke="midnightblue" points="719.692,-84.0559 709.512,-81.12 715.639,-89.7634 719.692,-84.0559"/>
</g>
<!-- Node15&#45;&gt;Node9 -->
<g id="edge26" class="edge"><title>Node15&#45;&gt;Node9</title>
<path fill="none" stroke="midnightblue" d="M952.728,-302.229C959.567,-267.529 984.818,-139.392 994.337,-91.0882"/>
<polygon fill="midnightblue" stroke="midnightblue" points="997.806,-91.5875 996.305,-81.0994 990.938,-90.234 997.806,-91.5875"/>
</g>
<!-- Node15&#45;&gt;Node16 -->
<g id="edge27" class="edge"><title>Node15&#45;&gt;Node16</title>
<path fill="none" stroke="midnightblue" d="M971.599,-302.444C992.993,-293.557 1026.68,-279.563 1051.02,-269.451"/>
<polygon fill="midnightblue" stroke="midnightblue" points="1052.61,-272.585 1060.5,-265.516 1049.92,-266.12 1052.61,-272.585"/>
</g>
<!-- Node16&#45;&gt;Node7 -->
<g id="edge41" class="edge"><title>Node16&#45;&gt;Node7</title>
<path fill="none" stroke="midnightblue" d="M1055.64,-246.377C1010.93,-230.729 915.731,-195.415 841,-154 820.077,-142.404 817.509,-135.313 797,-123 773.499,-108.89 745.565,-95.0103 725.202,-85.3836"/>
<polygon fill="midnightblue" stroke="midnightblue" points="726.408,-82.0836 715.867,-81.0171 723.442,-88.4243 726.408,-82.0836"/>
</g>
<!-- Node16&#45;&gt;Node9 -->
<g id="edge28" class="edge"><title>Node16&#45;&gt;Node9</title>
<path fill="none" stroke="midnightblue" d="M1074.42,-246.389C1067.9,-237.583 1057.91,-223.34 1051,-210 1029.8,-169.07 1012.19,-117.643 1003.61,-90.77"/>
<polygon fill="midnightblue" stroke="midnightblue" points="1006.93,-89.6479 1000.6,-81.1523 1000.25,-91.7414 1006.93,-89.6479"/>
</g>
<!-- Node17 -->
<g id="node17" class="node"><title>Node17</title>
<g id="a_node17"><a xlink:href="ioptionscontainer_8h.xhtml" target="_top" xlink:title="Declares gmx::IOptionsContainer. ">
<polygon fill="white" stroke="black" points="1059.5,-190.5 1059.5,-209.5 1232.5,-209.5 1232.5,-190.5 1059.5,-190.5"/>
<text text-anchor="middle" x="1146" y="-197.5" font-family="Helvetica,sans-Serif" font-size="10.00">gromacs/options/ioptionscontainer.h</text>
</a>
</g>
</g>
<!-- Node16&#45;&gt;Node17 -->
<g id="edge29" class="edge"><title>Node16&#45;&gt;Node17</title>
<path fill="none" stroke="midnightblue" d="M1091.44,-246.324C1101.15,-238.263 1115.82,-226.077 1127.5,-216.369"/>
<polygon fill="midnightblue" stroke="midnightblue" points="1129.91,-218.916 1135.37,-209.834 1125.44,-213.532 1129.91,-218.916"/>
</g>
<!-- Node18 -->
<g id="node18" class="node"><title>Node18</title>
<g id="a_node18"><a xlink:href="abstractoption_8h.xhtml" target="_top" xlink:title="Defines gmx::AbstractOption, gmx::OptionTemplate and gmx::OptionInfo. ">
<polygon fill="white" stroke="black" points="1059.5,-129 1059.5,-148 1220.5,-148 1220.5,-129 1059.5,-129"/>
<text text-anchor="middle" x="1140" y="-136" font-family="Helvetica,sans-Serif" font-size="10.00">gromacs/options/abstractoption.h</text>
</a>
</g>
</g>
<!-- Node17&#45;&gt;Node18 -->
<g id="edge30" class="edge"><title>Node17&#45;&gt;Node18</title>
<path fill="none" stroke="midnightblue" d="M1145.14,-190.475C1144.29,-182.08 1142.97,-168.981 1141.88,-158.163"/>
<polygon fill="midnightblue" stroke="midnightblue" points="1145.34,-157.607 1140.86,-148.009 1138.38,-158.31 1145.34,-157.607"/>
</g>
<!-- Node17&#45;&gt;Node21 -->
<g id="edge36" class="edge"><title>Node17&#45;&gt;Node21</title>
<path fill="none" stroke="midnightblue" d="M1195.57,-190.475C1258.14,-179.716 1365.64,-161.23 1432.55,-149.724"/>
<polygon fill="midnightblue" stroke="midnightblue" points="1433.26,-153.153 1442.52,-148.009 1432.07,-146.255 1433.26,-153.153"/>
</g>
<!-- Node18&#45;&gt;Node7 -->
<g id="edge35" class="edge"><title>Node18&#45;&gt;Node7</title>
<path fill="none" stroke="midnightblue" d="M1081.63,-128.936C999.931,-116.948 851.79,-95.2119 765.142,-82.4983"/>
<polygon fill="midnightblue" stroke="midnightblue" points="765.549,-79.0206 755.147,-81.0317 764.533,-85.9465 765.549,-79.0206"/>
</g>
<!-- Node18&#45;&gt;Node9 -->
<g id="edge31" class="edge"><title>Node18&#45;&gt;Node9</title>
<path fill="none" stroke="midnightblue" d="M1121.14,-128.869C1096.85,-117.748 1054.4,-98.3167 1026.24,-85.4286"/>
<polygon fill="midnightblue" stroke="midnightblue" points="1027.48,-82.147 1016.93,-81.1672 1024.57,-88.5118 1027.48,-82.147"/>
</g>
<!-- Node18&#45;&gt;Node13 -->
<g id="edge32" class="edge"><title>Node18&#45;&gt;Node13</title>
<path fill="none" stroke="midnightblue" d="M1152.14,-128.734C1166.85,-118.111 1191.86,-100.049 1209.56,-87.2642"/>
<polygon fill="midnightblue" stroke="midnightblue" points="1212,-89.8196 1218.05,-81.1273 1207.9,-84.1449 1212,-89.8196"/>
</g>
<!-- Node19 -->
<g id="node19" class="node"><title>Node19</title>
<g id="a_node19"><a xlink:href="optionflags_8h.xhtml" target="_top" xlink:title="Defines flags used in option implementation. ">
<polygon fill="white" stroke="black" points="1042.5,-62 1042.5,-81 1189.5,-81 1189.5,-62 1042.5,-62"/>
<text text-anchor="middle" x="1116" y="-69" font-family="Helvetica,sans-Serif" font-size="10.00">gromacs/options/optionflags.h</text>
</a>
</g>
</g>
<!-- Node18&#45;&gt;Node19 -->
<g id="edge33" class="edge"><title>Node18&#45;&gt;Node19</title>
<path fill="none" stroke="midnightblue" d="M1136.76,-128.734C1133.16,-118.988 1127.25,-102.981 1122.66,-90.5318"/>
<polygon fill="midnightblue" stroke="midnightblue" points="1125.93,-89.2959 1119.19,-81.1273 1119.37,-91.7206 1125.93,-89.2959"/>
</g>
<!-- Node20 -->
<g id="node20" class="node"><title>Node20</title>
<g id="a_node20"><a xlink:href="flags_8h.xhtml" target="_top" xlink:title="Declares gmx::FlagsTemplate. ">
<polygon fill="white" stroke="black" points="1059.5,-0.5 1059.5,-19.5 1172.5,-19.5 1172.5,-0.5 1059.5,-0.5"/>
<text text-anchor="middle" x="1116" y="-7.5" font-family="Helvetica,sans-Serif" font-size="10.00">gromacs/utility/flags.h</text>
</a>
</g>
</g>
<!-- Node19&#45;&gt;Node20 -->
<g id="edge34" class="edge"><title>Node19&#45;&gt;Node20</title>
<path fill="none" stroke="midnightblue" d="M1116,-61.9751C1116,-53.5803 1116,-40.4806 1116,-29.6631"/>
<polygon fill="midnightblue" stroke="midnightblue" points="1119.5,-29.5091 1116,-19.5091 1112.5,-29.5091 1119.5,-29.5091"/>
</g>
<!-- Node22 -->
<g id="node22" class="node"><title>Node22</title>
<g id="a_node22"><a xlink:href="basedefinitions_8h.xhtml" target="_top" xlink:title="Basic types and macros used throughout GROMACS. ">
<polygon fill="white" stroke="black" points="1378.5,-62 1378.5,-81 1535.5,-81 1535.5,-62 1378.5,-62"/>
<text text-anchor="middle" x="1457" y="-69" font-family="Helvetica,sans-Serif" font-size="10.00">gromacs/utility/basedefinitions.h</text>
</a>
</g>
</g>
<!-- Node21&#45;&gt;Node22 -->
<g id="edge37" class="edge"><title>Node21&#45;&gt;Node22</title>
<path fill="none" stroke="midnightblue" d="M1487.28,-128.734C1481.98,-118.89 1473.24,-102.66 1466.51,-90.1594"/>
<polygon fill="midnightblue" stroke="midnightblue" points="1469.47,-88.2727 1461.65,-81.1273 1463.3,-91.5914 1469.47,-88.2727"/>
</g>
<!-- Node25 -->
<g id="node25" class="node"><title>Node25</title>
<g id="a_node25"><a xlink:href="current__function_8h.xhtml" target="_top" xlink:title="Declares GMX_CURRENT_FUNCTION for getting the current function name. ">
<polygon fill="white" stroke="black" points="1553.5,-56.5 1553.5,-86.5 1666.5,-86.5 1666.5,-56.5 1553.5,-56.5"/>
<text text-anchor="start" x="1561.5" y="-74.5" font-family="Helvetica,sans-Serif" font-size="10.00">gromacs/utility/current</text>
<text text-anchor="middle" x="1610" y="-63.5" font-family="Helvetica,sans-Serif" font-size="10.00">_function.h</text>
</a>
</g>
</g>
<!-- Node21&#45;&gt;Node25 -->
<g id="edge40" class="edge"><title>Node21&#45;&gt;Node25</title>
<path fill="none" stroke="midnightblue" d="M1507.91,-128.734C1525.16,-119.231 1553.22,-103.777 1575.56,-91.4719"/>
<polygon fill="midnightblue" stroke="midnightblue" points="1577.35,-94.4796 1584.42,-86.589 1573.98,-88.3483 1577.35,-94.4796"/>
</g>
<!-- Node23 -->
<g id="node23" class="node"><title>Node23</title>
<polygon fill="white" stroke="#bfbfbf" points="1396.5,-0.5 1396.5,-19.5 1445.5,-19.5 1445.5,-0.5 1396.5,-0.5"/>
<text text-anchor="middle" x="1421" y="-7.5" font-family="Helvetica,sans-Serif" font-size="10.00">stdint.h</text>
</g>
<!-- Node22&#45;&gt;Node23 -->
<g id="edge38" class="edge"><title>Node22&#45;&gt;Node23</title>
<path fill="none" stroke="midnightblue" d="M1451.84,-61.9751C1446.55,-53.2268 1438.16,-39.3691 1431.47,-28.3093"/>
<polygon fill="midnightblue" stroke="midnightblue" points="1434.32,-26.2531 1426.15,-19.5091 1428.33,-29.8768 1434.32,-26.2531"/>
</g>
<!-- Node24 -->
<g id="node24" class="node"><title>Node24</title>
<polygon fill="white" stroke="#bfbfbf" points="1463.5,-0.5 1463.5,-19.5 1522.5,-19.5 1522.5,-0.5 1463.5,-0.5"/>
<text text-anchor="middle" x="1493" y="-7.5" font-family="Helvetica,sans-Serif" font-size="10.00">inttypes.h</text>
</g>
<!-- Node22&#45;&gt;Node24 -->
<g id="edge39" class="edge"><title>Node22&#45;&gt;Node24</title>
<path fill="none" stroke="midnightblue" d="M1462.16,-61.9751C1467.45,-53.2268 1475.84,-39.3691 1482.53,-28.3093"/>
<polygon fill="midnightblue" stroke="midnightblue" points="1485.67,-29.8768 1487.85,-19.5091 1479.68,-26.2531 1485.67,-29.8768"/>
</g>
<!-- Node27&#45;&gt;Node13 -->
<g id="edge50" class="edge"><title>Node27&#45;&gt;Node13</title>
<path fill="none" stroke="midnightblue" d="M1540.14,-190.987C1502.46,-184.498 1454.37,-173.179 1415,-154 1395.09,-144.304 1395.42,-133.634 1376,-123 1332.73,-99.3071 1317.59,-103.225 1271,-87 1267.93,-85.9323 1264.74,-84.8142 1261.55,-83.6927"/>
<polygon fill="midnightblue" stroke="midnightblue" points="1262.71,-80.3904 1252.12,-80.3653 1260.38,-86.9919 1262.71,-80.3904"/>
</g>
<!-- Node27&#45;&gt;Node21 -->
<g id="edge51" class="edge"><title>Node27&#45;&gt;Node21</title>
<path fill="none" stroke="midnightblue" d="M1587.1,-190.475C1568.72,-180.622 1538.24,-164.288 1516.76,-152.77"/>
<polygon fill="midnightblue" stroke="midnightblue" points="1518.34,-149.649 1507.87,-148.009 1515.03,-155.818 1518.34,-149.649"/>
</g>
<!-- Node28 -->
<g id="node28" class="node"><title>Node28</title>
<polygon fill="white" stroke="#bfbfbf" points="1578.5,-129 1578.5,-148 1627.5,-148 1627.5,-129 1578.5,-129"/>
<text text-anchor="middle" x="1603" y="-136" font-family="Helvetica,sans-Serif" font-size="10.00">cstddef</text>
</g>
<!-- Node27&#45;&gt;Node28 -->
<g id="edge46" class="edge"><title>Node27&#45;&gt;Node28</title>
<path fill="none" stroke="midnightblue" d="M1603,-190.475C1603,-182.08 1603,-168.981 1603,-158.163"/>
<polygon fill="midnightblue" stroke="midnightblue" points="1606.5,-158.009 1603,-148.009 1599.5,-158.009 1606.5,-158.009"/>
</g>
<!-- Node29 -->
<g id="node29" class="node"><title>Node29</title>
<polygon fill="white" stroke="#bfbfbf" points="1645.5,-129 1645.5,-148 1692.5,-148 1692.5,-129 1645.5,-129"/>
<text text-anchor="middle" x="1669" y="-136" font-family="Helvetica,sans-Serif" font-size="10.00">iterator</text>
</g>
<!-- Node27&#45;&gt;Node29 -->
<g id="edge47" class="edge"><title>Node27&#45;&gt;Node29</title>
<path fill="none" stroke="midnightblue" d="M1612.46,-190.475C1622.75,-181.197 1639.42,-166.171 1651.99,-154.831"/>
<polygon fill="midnightblue" stroke="midnightblue" points="1654.48,-157.305 1659.56,-148.009 1649.79,-152.105 1654.48,-157.305"/>
</g>
<!-- Node30 -->
<g id="node30" class="node"><title>Node30</title>
<polygon fill="white" stroke="#bfbfbf" points="1710.5,-129 1710.5,-148 1769.5,-148 1769.5,-129 1710.5,-129"/>
<text text-anchor="middle" x="1740" y="-136" font-family="Helvetica,sans-Serif" font-size="10.00">stdexcept</text>
</g>
<!-- Node27&#45;&gt;Node30 -->
<g id="edge48" class="edge"><title>Node27&#45;&gt;Node30</title>
<path fill="none" stroke="midnightblue" d="M1622.63,-190.475C1645.82,-180.401 1684.62,-163.553 1711.21,-152.002"/>
<polygon fill="midnightblue" stroke="midnightblue" points="1712.63,-155.203 1720.41,-148.009 1709.84,-148.782 1712.63,-155.203"/>
</g>
<!-- Node31 -->
<g id="node31" class="node"><title>Node31</title>
<polygon fill="white" stroke="#bfbfbf" points="1788,-129 1788,-148 1828,-148 1828,-129 1788,-129"/>
<text text-anchor="middle" x="1808" y="-136" font-family="Helvetica,sans-Serif" font-size="10.00">utility</text>
</g>
<!-- Node27&#45;&gt;Node31 -->
<g id="edge49" class="edge"><title>Node27&#45;&gt;Node31</title>
<path fill="none" stroke="midnightblue" d="M1647.19,-190.44C1683.28,-182.803 1735.27,-170.311 1779,-154 1780.38,-153.484 1781.79,-152.921 1783.2,-152.326"/>
<polygon fill="midnightblue" stroke="midnightblue" points="1784.71,-155.481 1792.32,-148.103 1781.77,-149.129 1784.71,-155.481"/>
</g>
<!-- Node32&#45;&gt;Node9 -->
<g id="edge55" class="edge"><title>Node32&#45;&gt;Node9</title>
<path fill="none" stroke="midnightblue" d="M1260.56,-128.962C1250.54,-126.977 1239.9,-124.892 1230,-123 1143.01,-106.372 1119.06,-111.67 1034,-87 1031.57,-86.2939 1029.07,-85.4821 1026.58,-84.6109"/>
<polygon fill="midnightblue" stroke="midnightblue" points="1027.77,-81.3191 1017.18,-81.055 1025.29,-87.8664 1027.77,-81.3191"/>
</g>
<!-- Node32&#45;&gt;Node13 -->
<g id="edge56" class="edge"><title>Node32&#45;&gt;Node13</title>
<path fill="none" stroke="midnightblue" d="M1293.15,-128.734C1281.44,-118.305 1261.68,-100.709 1247.38,-87.9732"/>
<polygon fill="midnightblue" stroke="midnightblue" points="1249.49,-85.1634 1239.69,-81.1273 1244.83,-90.3913 1249.49,-85.1634"/>
</g>
<!-- Node33 -->
<g id="node33" class="node"><title>Node33</title>
<polygon fill="white" stroke="#bfbfbf" points="1280,-62 1280,-81 1326,-81 1326,-62 1280,-62"/>
<text text-anchor="middle" x="1303" y="-69" font-family="Helvetica,sans-Serif" font-size="10.00">cstring</text>
</g>
<!-- Node32&#45;&gt;Node33 -->
<g id="edge54" class="edge"><title>Node32&#45;&gt;Node33</title>
<path fill="none" stroke="midnightblue" d="M1303,-128.734C1303,-119.183 1303,-103.618 1303,-91.2829"/>
<polygon fill="midnightblue" stroke="midnightblue" points="1306.5,-91.1273 1303,-81.1273 1299.5,-91.1273 1306.5,-91.1273"/>
</g>
</g>
</svg>
