<?xml version="1.0" encoding="UTF-8" standalone="no"?>
<!DOCTYPE svg PUBLIC "-//W3C//DTD SVG 1.1//EN"
 "http://www.w3.org/Graphics/SVG/1.1/DTD/svg11.dtd">
<!-- Generated by graphviz version 2.38.0 (20140413.2041)
 -->
<!-- Title: src/programs/mdrun/tests/compressed_x_output.cpp Pages: 1 -->
<svg width="1348pt" height="397pt"
 viewBox="0.00 0.00 1348.00 397.00" xmlns="http://www.w3.org/2000/svg" xmlns:xlink="http://www.w3.org/1999/xlink">
<g id="graph0" class="graph" transform="scale(1 1) rotate(0) translate(4 393)">
<title>src/programs/mdrun/tests/compressed_x_output.cpp</title>
<polygon fill="white" stroke="none" points="-4,4 -4,-393 1344,-393 1344,4 -4,4"/>
<!-- Node1 -->
<g id="node1" class="node"><title>Node1</title>
<polygon fill="#bfbfbf" stroke="black" points="497.5,-347.5 497.5,-388.5 605.5,-388.5 605.5,-347.5 497.5,-347.5"/>
<text text-anchor="start" x="505.5" y="-376.5" font-family="Helvetica,sans-Serif" font-size="10.00">src/programs/mdrun</text>
<text text-anchor="start" x="505.5" y="-365.5" font-family="Helvetica,sans-Serif" font-size="10.00">/tests/compressed_x</text>
<text text-anchor="middle" x="551.5" y="-354.5" font-family="Helvetica,sans-Serif" font-size="10.00">_output.cpp</text>
</g>
<!-- Node2 -->
<g id="node2" class="node"><title>Node2</title>
<g id="a_node2"><a xlink:href="gmxpre_8h.xhtml" target="_top" xlink:title="Prerequisite header file for GROMACS build. ">
<polygon fill="white" stroke="black" points="0,-291.5 0,-310.5 57,-310.5 57,-291.5 0,-291.5"/>
<text text-anchor="middle" x="28.5" y="-298.5" font-family="Helvetica,sans-Serif" font-size="10.00">gmxpre.h</text>
</a>
</g>
</g>
<!-- Node1&#45;&gt;Node2 -->
<g id="edge1" class="edge"><title>Node1&#45;&gt;Node2</title>
<path fill="none" stroke="midnightblue" d="M497.291,-362.283C408.136,-354.164 225.113,-335.984 71.5,-311 70.0414,-310.763 68.5573,-310.51 67.0599,-310.245"/>
<polygon fill="midnightblue" stroke="midnightblue" points="67.5902,-306.783 57.114,-308.364 66.2894,-313.662 67.5902,-306.783"/>
</g>
<!-- Node3 -->
<g id="node3" class="node"><title>Node3</title>
<polygon fill="white" stroke="#bfbfbf" points="314,-123.5 314,-142.5 355,-142.5 355,-123.5 314,-123.5"/>
<text text-anchor="middle" x="334.5" y="-130.5" font-family="Helvetica,sans-Serif" font-size="10.00">string</text>
</g>
<!-- Node1&#45;&gt;Node3 -->
<g id="edge2" class="edge"><title>Node1&#45;&gt;Node3</title>
<path fill="none" stroke="midnightblue" d="M497.228,-363.802C403.643,-355.019 213.935,-322.127 130.5,-199 88.823,-137.496 236.579,-132.408 303.372,-133.134"/>
<polygon fill="midnightblue" stroke="midnightblue" points="303.672,-136.639 313.727,-133.301 303.785,-129.64 303.672,-136.639"/>
</g>
<!-- Node4 -->
<g id="node4" class="node"><title>Node4</title>
<polygon fill="white" stroke="#bfbfbf" points="1028,-179.5 1028,-198.5 1099,-198.5 1099,-179.5 1028,-179.5"/>
<text text-anchor="middle" x="1063.5" y="-186.5" font-family="Helvetica,sans-Serif" font-size="10.00">gtest/gtest.h</text>
</g>
<!-- Node1&#45;&gt;Node4 -->
<g id="edge3" class="edge"><title>Node1&#45;&gt;Node4</title>
<path fill="none" stroke="midnightblue" d="M605.668,-352.068C676.182,-332.162 802.883,-294.792 908.5,-255 953.098,-238.197 1003.88,-216.378 1034.8,-202.782"/>
<polygon fill="midnightblue" stroke="midnightblue" points="1036.37,-205.913 1044.11,-198.673 1033.55,-199.509 1036.37,-205.913"/>
</g>
<!-- Node5 -->
<g id="node5" class="node"><title>Node5</title>
<g id="a_node5"><a xlink:href="filenameoption_8h.xhtml" target="_top" xlink:title="Declares gmx::FileNameOption and gmx::FileNameOptionInfo. ">
<polygon fill="white" stroke="black" points="365,-235.5 365,-254.5 528,-254.5 528,-235.5 365,-235.5"/>
<text text-anchor="middle" x="446.5" y="-242.5" font-family="Helvetica,sans-Serif" font-size="10.00">gromacs/options/filenameoption.h</text>
</a>
</g>
</g>
<!-- Node1&#45;&gt;Node5 -->
<g id="edge4" class="edge"><title>Node1&#45;&gt;Node5</title>
<path fill="none" stroke="midnightblue" d="M534.396,-347.29C513.876,-323.642 479.85,-284.432 460.71,-262.375"/>
<polygon fill="midnightblue" stroke="midnightblue" points="463.139,-259.834 453.941,-254.575 457.852,-264.422 463.139,-259.834"/>
</g>
<!-- Node13 -->
<g id="node13" class="node"><title>Node13</title>
<g id="a_node13"><a xlink:href="cmdlinetest_8h.xhtml" target="_top" xlink:title="Declares utilities testing command&#45;line programs. ">
<polygon fill="white" stroke="black" points="595,-235.5 595,-254.5 708,-254.5 708,-235.5 595,-235.5"/>
<text text-anchor="middle" x="651.5" y="-242.5" font-family="Helvetica,sans-Serif" font-size="10.00">testutils/cmdlinetest.h</text>
</a>
</g>
</g>
<!-- Node1&#45;&gt;Node13 -->
<g id="edge15" class="edge"><title>Node1&#45;&gt;Node13</title>
<path fill="none" stroke="midnightblue" d="M567.789,-347.29C587.333,-323.642 619.738,-284.432 637.967,-262.375"/>
<polygon fill="midnightblue" stroke="midnightblue" points="640.741,-264.513 644.413,-254.575 635.345,-260.053 640.741,-264.513"/>
</g>
<!-- Node25 -->
<g id="node25" class="node"><title>Node25</title>
<g id="a_node25"><a xlink:href="programs_2mdrun_2tests_2moduletest_8h.xhtml" target="_top" xlink:title="Declares test fixtures for general mdrun functionality. ">
<polygon fill="white" stroke="black" points="660,-291.5 660,-310.5 733,-310.5 733,-291.5 660,-291.5"/>
<text text-anchor="middle" x="696.5" y="-298.5" font-family="Helvetica,sans-Serif" font-size="10.00">moduletest.h</text>
</a>
</g>
</g>
<!-- Node1&#45;&gt;Node25 -->
<g id="edge32" class="edge"><title>Node1&#45;&gt;Node25</title>
<path fill="none" stroke="midnightblue" d="M595.005,-347.498C618.625,-336.909 647.162,-324.117 667.953,-314.797"/>
<polygon fill="midnightblue" stroke="midnightblue" points="669.505,-317.937 677.198,-310.652 666.641,-311.549 669.505,-317.937"/>
</g>
<!-- Node5&#45;&gt;Node3 -->
<g id="edge5" class="edge"><title>Node5&#45;&gt;Node3</title>
<path fill="none" stroke="midnightblue" d="M364.687,-243.477C284.618,-241.02 170.689,-231.669 142.5,-199 96.6575,-145.872 238.714,-136.072 303.771,-134.336"/>
<polygon fill="midnightblue" stroke="midnightblue" points="303.953,-137.833 313.874,-134.115 303.8,-130.835 303.953,-137.833"/>
</g>
<!-- Node6 -->
<g id="node6" class="node"><title>Node6</title>
<polygon fill="white" stroke="#bfbfbf" points="538.5,-123.5 538.5,-142.5 582.5,-142.5 582.5,-123.5 538.5,-123.5"/>
<text text-anchor="middle" x="560.5" y="-130.5" font-family="Helvetica,sans-Serif" font-size="10.00">vector</text>
</g>
<!-- Node5&#45;&gt;Node6 -->
<g id="edge6" class="edge"><title>Node5&#45;&gt;Node6</title>
<path fill="none" stroke="midnightblue" d="M475.584,-235.43C494.868,-228.418 519.479,-216.726 535.5,-199 547.27,-185.977 553.731,-166.819 557.119,-152.673"/>
<polygon fill="midnightblue" stroke="midnightblue" points="560.601,-153.12 559.22,-142.616 553.749,-151.689 560.601,-153.12"/>
</g>
<!-- Node7 -->
<g id="node7" class="node"><title>Node7</title>
<g id="a_node7"><a xlink:href="abstractoption_8h.xhtml" target="_top" xlink:title="Defines gmx::AbstractOption, gmx::OptionTemplate and gmx::OptionInfo. ">
<polygon fill="white" stroke="black" points="366,-179.5 366,-198.5 527,-198.5 527,-179.5 366,-179.5"/>
<text text-anchor="middle" x="446.5" y="-186.5" font-family="Helvetica,sans-Serif" font-size="10.00">gromacs/options/abstractoption.h</text>
</a>
</g>
</g>
<!-- Node5&#45;&gt;Node7 -->
<g id="edge7" class="edge"><title>Node5&#45;&gt;Node7</title>
<path fill="none" stroke="midnightblue" d="M446.5,-235.083C446.5,-228.006 446.5,-217.861 446.5,-208.986"/>
<polygon fill="midnightblue" stroke="midnightblue" points="450,-208.751 446.5,-198.751 443,-208.751 450,-208.751"/>
</g>
<!-- Node12 -->
<g id="node12" class="node"><title>Node12</title>
<g id="a_node12"><a xlink:href="optionfiletype_8h.xhtml" target="_top" xlink:title="Defines an enumeration type for specifying file types for options. ">
<polygon fill="white" stroke="black" points="151.5,-179.5 151.5,-198.5 309.5,-198.5 309.5,-179.5 151.5,-179.5"/>
<text text-anchor="middle" x="230.5" y="-186.5" font-family="Helvetica,sans-Serif" font-size="10.00">gromacs/options/optionfiletype.h</text>
</a>
</g>
</g>
<!-- Node5&#45;&gt;Node12 -->
<g id="edge14" class="edge"><title>Node5&#45;&gt;Node12</title>
<path fill="none" stroke="midnightblue" d="M412.274,-235.444C374.988,-226.122 315.231,-211.183 274.489,-200.997"/>
<polygon fill="midnightblue" stroke="midnightblue" points="275.116,-197.546 264.566,-198.516 273.418,-204.337 275.116,-197.546"/>
</g>
<!-- Node7&#45;&gt;Node3 -->
<g id="edge8" class="edge"><title>Node7&#45;&gt;Node3</title>
<path fill="none" stroke="midnightblue" d="M428.505,-179.324C410.462,-170.625 382.453,-157.12 361.697,-147.113"/>
<polygon fill="midnightblue" stroke="midnightblue" points="362.978,-143.845 352.45,-142.655 359.938,-150.15 362.978,-143.845"/>
</g>
<!-- Node7&#45;&gt;Node6 -->
<g id="edge9" class="edge"><title>Node7&#45;&gt;Node6</title>
<path fill="none" stroke="midnightblue" d="M464.564,-179.444C483.075,-170.675 512.081,-156.935 533.355,-146.858"/>
<polygon fill="midnightblue" stroke="midnightblue" points="534.982,-149.96 542.521,-142.516 531.985,-143.634 534.982,-149.96"/>
</g>
<!-- Node8 -->
<g id="node8" class="node"><title>Node8</title>
<g id="a_node8"><a xlink:href="optionflags_8h.xhtml" target="_top" xlink:title="Defines flags used in option implementation. ">
<polygon fill="white" stroke="black" points="373,-123.5 373,-142.5 520,-142.5 520,-123.5 373,-123.5"/>
<text text-anchor="middle" x="446.5" y="-130.5" font-family="Helvetica,sans-Serif" font-size="10.00">gromacs/options/optionflags.h</text>
</a>
</g>
</g>
<!-- Node7&#45;&gt;Node8 -->
<g id="edge10" class="edge"><title>Node7&#45;&gt;Node8</title>
<path fill="none" stroke="midnightblue" d="M446.5,-179.083C446.5,-172.006 446.5,-161.861 446.5,-152.986"/>
<polygon fill="midnightblue" stroke="midnightblue" points="450,-152.751 446.5,-142.751 443,-152.751 450,-152.751"/>
</g>
<!-- Node10 -->
<g id="node10" class="node"><title>Node10</title>
<g id="a_node10"><a xlink:href="classhelpers_8h.xhtml" target="_top" xlink:title="Declares common utility classes and macros. ">
<polygon fill="white" stroke="black" points="641.5,-123.5 641.5,-142.5 787.5,-142.5 787.5,-123.5 641.5,-123.5"/>
<text text-anchor="middle" x="714.5" y="-130.5" font-family="Helvetica,sans-Serif" font-size="10.00">gromacs/utility/classhelpers.h</text>
</a>
</g>
</g>
<!-- Node7&#45;&gt;Node10 -->
<g id="edge12" class="edge"><title>Node7&#45;&gt;Node10</title>
<path fill="none" stroke="midnightblue" d="M488.965,-179.444C535.913,-169.984 611.576,-154.738 662.154,-144.547"/>
<polygon fill="midnightblue" stroke="midnightblue" points="663.122,-147.923 672.233,-142.516 661.739,-141.061 663.122,-147.923"/>
</g>
<!-- Node9 -->
<g id="node9" class="node"><title>Node9</title>
<g id="a_node9"><a xlink:href="flags_8h.xhtml" target="_top" xlink:title="Declares gmx::FlagsTemplate. ">
<polygon fill="white" stroke="black" points="390,-62 390,-81 503,-81 503,-62 390,-62"/>
<text text-anchor="middle" x="446.5" y="-69" font-family="Helvetica,sans-Serif" font-size="10.00">gromacs/utility/flags.h</text>
</a>
</g>
</g>
<!-- Node8&#45;&gt;Node9 -->
<g id="edge11" class="edge"><title>Node8&#45;&gt;Node9</title>
<path fill="none" stroke="midnightblue" d="M446.5,-123.475C446.5,-115.08 446.5,-101.981 446.5,-91.1631"/>
<polygon fill="midnightblue" stroke="midnightblue" points="450,-91.0091 446.5,-81.0091 443,-91.0091 450,-91.0091"/>
</g>
<!-- Node11 -->
<g id="node11" class="node"><title>Node11</title>
<polygon fill="white" stroke="#bfbfbf" points="752.5,-62 752.5,-81 804.5,-81 804.5,-62 752.5,-62"/>
<text text-anchor="middle" x="778.5" y="-69" font-family="Helvetica,sans-Serif" font-size="10.00">memory</text>
</g>
<!-- Node10&#45;&gt;Node11 -->
<g id="edge13" class="edge"><title>Node10&#45;&gt;Node11</title>
<path fill="none" stroke="midnightblue" d="M723.67,-123.475C733.65,-114.197 749.812,-99.1706 762.009,-87.831"/>
<polygon fill="midnightblue" stroke="midnightblue" points="764.407,-90.3814 769.347,-81.0091 759.64,-85.2547 764.407,-90.3814"/>
</g>
<!-- Node13&#45;&gt;Node3 -->
<g id="edge18" class="edge"><title>Node13&#45;&gt;Node3</title>
<path fill="none" stroke="midnightblue" d="M594.667,-238.521C514.106,-230.277 374.437,-214.044 356.5,-199 342.971,-187.653 337.733,-167.656 335.721,-152.829"/>
<polygon fill="midnightblue" stroke="midnightblue" points="339.189,-152.337 334.727,-142.728 332.223,-153.023 339.189,-152.337"/>
</g>
<!-- Node13&#45;&gt;Node4 -->
<g id="edge19" class="edge"><title>Node13&#45;&gt;Node4</title>
<path fill="none" stroke="midnightblue" d="M708.212,-236.083C711.014,-235.712 713.788,-235.349 716.5,-235 847.292,-218.151 883.27,-220.159 1017.43,-199.056"/>
<polygon fill="midnightblue" stroke="midnightblue" points="1018.36,-202.452 1027.68,-197.428 1017.26,-195.538 1018.36,-202.452"/>
</g>
<!-- Node13&#45;&gt;Node10 -->
<g id="edge31" class="edge"><title>Node13&#45;&gt;Node10</title>
<path fill="none" stroke="midnightblue" d="M639.809,-235.462C624.101,-222.918 599.565,-198.845 612.5,-179 622.978,-162.925 640.638,-152.551 658.346,-145.874"/>
<polygon fill="midnightblue" stroke="midnightblue" points="659.809,-149.074 668.143,-142.533 657.549,-142.448 659.809,-149.074"/>
</g>
<!-- Node13&#45;&gt;Node11 -->
<g id="edge17" class="edge"><title>Node13&#45;&gt;Node11</title>
<path fill="none" stroke="midnightblue" d="M699.475,-235.486C751.387,-225.789 827.947,-209.883 836.5,-199 864.1,-163.882 821.588,-113.513 795.835,-88.2356"/>
<polygon fill="midnightblue" stroke="midnightblue" points="798.136,-85.5941 788.477,-81.2411 793.313,-90.6676 798.136,-85.5941"/>
</g>
<!-- Node14 -->
<g id="node14" class="node"><title>Node14</title>
<polygon fill="white" stroke="#bfbfbf" points="622,-179.5 622,-198.5 681,-198.5 681,-179.5 622,-179.5"/>
<text text-anchor="middle" x="651.5" y="-186.5" font-family="Helvetica,sans-Serif" font-size="10.00">functional</text>
</g>
<!-- Node13&#45;&gt;Node14 -->
<g id="edge16" class="edge"><title>Node13&#45;&gt;Node14</title>
<path fill="none" stroke="midnightblue" d="M651.5,-235.083C651.5,-228.006 651.5,-217.861 651.5,-208.986"/>
<polygon fill="midnightblue" stroke="midnightblue" points="655,-208.751 651.5,-198.751 648,-208.751 655,-208.751"/>
</g>
<!-- Node15 -->
<g id="node15" class="node"><title>Node15</title>
<g id="a_node15"><a xlink:href="arrayref_8h.xhtml" target="_top" xlink:title="Declares gmx::ArrayRef and gmx::ConstArrayRef. ">
<polygon fill="white" stroke="black" points="885,-179.5 885,-198.5 1010,-198.5 1010,-179.5 885,-179.5"/>
<text text-anchor="middle" x="947.5" y="-186.5" font-family="Helvetica,sans-Serif" font-size="10.00">gromacs/utility/arrayref.h</text>
</a>
</g>
</g>
<!-- Node13&#45;&gt;Node15 -->
<g id="edge20" class="edge"><title>Node13&#45;&gt;Node15</title>
<path fill="none" stroke="midnightblue" d="M698.402,-235.444C750.58,-225.925 834.871,-210.547 890.732,-200.356"/>
<polygon fill="midnightblue" stroke="midnightblue" points="891.608,-203.754 900.817,-198.516 890.352,-196.868 891.608,-203.754"/>
</g>
<!-- Node15&#45;&gt;Node6 -->
<g id="edge25" class="edge"><title>Node15&#45;&gt;Node6</title>
<path fill="none" stroke="midnightblue" d="M886.179,-179.444C802.999,-167.837 657.398,-147.521 592.868,-138.516"/>
<polygon fill="midnightblue" stroke="midnightblue" points="593.257,-135.037 582.869,-137.121 592.289,-141.97 593.257,-135.037"/>
</g>
<!-- Node16 -->
<g id="node16" class="node"><title>Node16</title>
<polygon fill="white" stroke="#bfbfbf" points="871,-123.5 871,-142.5 920,-142.5 920,-123.5 871,-123.5"/>
<text text-anchor="middle" x="895.5" y="-130.5" font-family="Helvetica,sans-Serif" font-size="10.00">cstddef</text>
</g>
<!-- Node15&#45;&gt;Node16 -->
<g id="edge21" class="edge"><title>Node15&#45;&gt;Node16</title>
<path fill="none" stroke="midnightblue" d="M938.913,-179.083C931.341,-171.22 920.122,-159.569 910.986,-150.081"/>
<polygon fill="midnightblue" stroke="midnightblue" points="913.385,-147.527 903.927,-142.751 908.342,-152.382 913.385,-147.527"/>
</g>
<!-- Node17 -->
<g id="node17" class="node"><title>Node17</title>
<polygon fill="white" stroke="#bfbfbf" points="938,-123.5 938,-142.5 985,-142.5 985,-123.5 938,-123.5"/>
<text text-anchor="middle" x="961.5" y="-130.5" font-family="Helvetica,sans-Serif" font-size="10.00">iterator</text>
</g>
<!-- Node15&#45;&gt;Node17 -->
<g id="edge22" class="edge"><title>Node15&#45;&gt;Node17</title>
<path fill="none" stroke="midnightblue" d="M949.812,-179.083C951.667,-171.927 954.335,-161.635 956.654,-152.691"/>
<polygon fill="midnightblue" stroke="midnightblue" points="960.109,-153.309 959.231,-142.751 953.334,-151.553 960.109,-153.309"/>
</g>
<!-- Node18 -->
<g id="node18" class="node"><title>Node18</title>
<polygon fill="white" stroke="#bfbfbf" points="1003,-123.5 1003,-142.5 1062,-142.5 1062,-123.5 1003,-123.5"/>
<text text-anchor="middle" x="1032.5" y="-130.5" font-family="Helvetica,sans-Serif" font-size="10.00">stdexcept</text>
</g>
<!-- Node15&#45;&gt;Node18 -->
<g id="edge23" class="edge"><title>Node15&#45;&gt;Node18</title>
<path fill="none" stroke="midnightblue" d="M961.157,-179.324C974.416,-170.9 994.768,-157.971 1010.35,-148.074"/>
<polygon fill="midnightblue" stroke="midnightblue" points="1012.31,-150.971 1018.88,-142.655 1008.56,-145.063 1012.31,-150.971"/>
</g>
<!-- Node19 -->
<g id="node19" class="node"><title>Node19</title>
<polygon fill="white" stroke="#bfbfbf" points="1080.5,-123.5 1080.5,-142.5 1120.5,-142.5 1120.5,-123.5 1080.5,-123.5"/>
<text text-anchor="middle" x="1100.5" y="-130.5" font-family="Helvetica,sans-Serif" font-size="10.00">utility</text>
</g>
<!-- Node15&#45;&gt;Node19 -->
<g id="edge24" class="edge"><title>Node15&#45;&gt;Node19</title>
<path fill="none" stroke="midnightblue" d="M971.743,-179.444C998.577,-169.973 1041.84,-154.703 1070.72,-144.512"/>
<polygon fill="midnightblue" stroke="midnightblue" points="1072.01,-147.766 1080.28,-141.137 1069.68,-141.165 1072.01,-147.766"/>
</g>
<!-- Node20 -->
<g id="node20" class="node"><title>Node20</title>
<g id="a_node20"><a xlink:href="gmxassert_8h.xhtml" target="_top" xlink:title="Defines assert macros customized for Gromacs. ">
<polygon fill="white" stroke="black" points="1139,-123.5 1139,-142.5 1276,-142.5 1276,-123.5 1139,-123.5"/>
<text text-anchor="middle" x="1207.5" y="-130.5" font-family="Helvetica,sans-Serif" font-size="10.00">gromacs/utility/gmxassert.h</text>
</a>
</g>
</g>
<!-- Node15&#45;&gt;Node20 -->
<g id="edge26" class="edge"><title>Node15&#45;&gt;Node20</title>
<path fill="none" stroke="midnightblue" d="M988.698,-179.444C1034.15,-170.004 1107.34,-154.802 1156.41,-144.611"/>
<polygon fill="midnightblue" stroke="midnightblue" points="1157.42,-147.977 1166.49,-142.516 1155.99,-141.123 1157.42,-147.977"/>
</g>
<!-- Node21 -->
<g id="node21" class="node"><title>Node21</title>
<g id="a_node21"><a xlink:href="basedefinitions_8h.xhtml" target="_top" xlink:title="Basic types and macros used throughout GROMACS. ">
<polygon fill="white" stroke="black" points="1052,-62 1052,-81 1209,-81 1209,-62 1052,-62"/>
<text text-anchor="middle" x="1130.5" y="-69" font-family="Helvetica,sans-Serif" font-size="10.00">gromacs/utility/basedefinitions.h</text>
</a>
</g>
</g>
<!-- Node20&#45;&gt;Node21 -->
<g id="edge27" class="edge"><title>Node20&#45;&gt;Node21</title>
<path fill="none" stroke="midnightblue" d="M1196.47,-123.475C1184.23,-114.02 1164.27,-98.5961 1149.51,-87.1871"/>
<polygon fill="midnightblue" stroke="midnightblue" points="1151.56,-84.3541 1141.51,-81.0091 1147.28,-89.8931 1151.56,-84.3541"/>
</g>
<!-- Node24 -->
<g id="node24" class="node"><title>Node24</title>
<g id="a_node24"><a xlink:href="current__function_8h.xhtml" target="_top" xlink:title="Declares GMX_CURRENT_FUNCTION for getting the current function name. ">
<polygon fill="white" stroke="black" points="1227,-56.5 1227,-86.5 1340,-86.5 1340,-56.5 1227,-56.5"/>
<text text-anchor="start" x="1235" y="-74.5" font-family="Helvetica,sans-Serif" font-size="10.00">gromacs/utility/current</text>
<text text-anchor="middle" x="1283.5" y="-63.5" font-family="Helvetica,sans-Serif" font-size="10.00">_function.h</text>
</a>
</g>
</g>
<!-- Node20&#45;&gt;Node24 -->
<g id="edge30" class="edge"><title>Node20&#45;&gt;Node24</title>
<path fill="none" stroke="midnightblue" d="M1218.39,-123.475C1228.59,-115.492 1244.22,-103.254 1257.61,-92.7703"/>
<polygon fill="midnightblue" stroke="midnightblue" points="1259.87,-95.4434 1265.59,-86.523 1255.56,-89.9316 1259.87,-95.4434"/>
</g>
<!-- Node22 -->
<g id="node22" class="node"><title>Node22</title>
<polygon fill="white" stroke="#bfbfbf" points="1070,-0.5 1070,-19.5 1119,-19.5 1119,-0.5 1070,-0.5"/>
<text text-anchor="middle" x="1094.5" y="-7.5" font-family="Helvetica,sans-Serif" font-size="10.00">stdint.h</text>
</g>
<!-- Node21&#45;&gt;Node22 -->
<g id="edge28" class="edge"><title>Node21&#45;&gt;Node22</title>
<path fill="none" stroke="midnightblue" d="M1125.34,-61.9751C1120.05,-53.2268 1111.66,-39.3691 1104.97,-28.3093"/>
<polygon fill="midnightblue" stroke="midnightblue" points="1107.82,-26.2531 1099.65,-19.5091 1101.83,-29.8768 1107.82,-26.2531"/>
</g>
<!-- Node23 -->
<g id="node23" class="node"><title>Node23</title>
<polygon fill="white" stroke="#bfbfbf" points="1137,-0.5 1137,-19.5 1196,-19.5 1196,-0.5 1137,-0.5"/>
<text text-anchor="middle" x="1166.5" y="-7.5" font-family="Helvetica,sans-Serif" font-size="10.00">inttypes.h</text>
</g>
<!-- Node21&#45;&gt;Node23 -->
<g id="edge29" class="edge"><title>Node21&#45;&gt;Node23</title>
<path fill="none" stroke="midnightblue" d="M1135.66,-61.9751C1140.95,-53.2268 1149.34,-39.3691 1156.03,-28.3093"/>
<polygon fill="midnightblue" stroke="midnightblue" points="1159.17,-29.8768 1161.35,-19.5091 1153.18,-26.2531 1159.17,-29.8768"/>
</g>
<!-- Node25&#45;&gt;Node4 -->
<g id="edge33" class="edge"><title>Node25&#45;&gt;Node4</title>
<path fill="none" stroke="midnightblue" d="M730.228,-291.451C764.06,-282.749 817.589,-268.636 863.5,-255 922.06,-237.606 989.508,-215.182 1029.21,-201.734"/>
<polygon fill="midnightblue" stroke="midnightblue" points="1030.34,-205.047 1038.68,-198.517 1028.09,-198.418 1030.34,-205.047"/>
</g>
<!-- Node25&#45;&gt;Node13 -->
<g id="edge34" class="edge"><title>Node25&#45;&gt;Node13</title>
<path fill="none" stroke="midnightblue" d="M689.069,-291.083C682.647,-283.377 673.194,-272.033 665.378,-262.653"/>
<polygon fill="midnightblue" stroke="midnightblue" points="667.883,-260.193 658.793,-254.751 662.506,-264.674 667.883,-260.193"/>
</g>
<!-- Node26 -->
<g id="node26" class="node"><title>Node26</title>
<g id="a_node26"><a xlink:href="integrationtests_8h.xhtml" target="_top" xlink:title="Declares test fixture for integration tests. ">
<polygon fill="white" stroke="black" points="726,-235.5 726,-254.5 855,-254.5 855,-235.5 726,-235.5"/>
<text text-anchor="middle" x="790.5" y="-242.5" font-family="Helvetica,sans-Serif" font-size="10.00">testutils/integrationtests.h</text>
</a>
</g>
</g>
<!-- Node25&#45;&gt;Node26 -->
<g id="edge35" class="edge"><title>Node25&#45;&gt;Node26</title>
<path fill="none" stroke="midnightblue" d="M711.603,-291.324C726.403,-282.822 749.194,-269.729 766.482,-259.797"/>
<polygon fill="midnightblue" stroke="midnightblue" points="768.507,-262.671 775.435,-254.655 765.02,-256.601 768.507,-262.671"/>
</g>
<!-- Node26&#45;&gt;Node4 -->
<g id="edge36" class="edge"><title>Node26&#45;&gt;Node4</title>
<path fill="none" stroke="midnightblue" d="M833.791,-235.489C877.598,-226.87 947.555,-213.085 1017.74,-199.148"/>
<polygon fill="midnightblue" stroke="midnightblue" points="1018.51,-202.562 1027.64,-197.18 1017.15,-195.696 1018.51,-202.562"/>
</g>
<!-- Node27 -->
<g id="node27" class="node"><title>Node27</title>
<g id="a_node27"><a xlink:href="testfilemanager_8h.xhtml" target="_top" xlink:title="Declares gmx::test::TestFileManager. ">
<polygon fill="white" stroke="black" points="699,-179.5 699,-198.5 828,-198.5 828,-179.5 699,-179.5"/>
<text text-anchor="middle" x="763.5" y="-186.5" font-family="Helvetica,sans-Serif" font-size="10.00">testutils/testfilemanager.h</text>
</a>
</g>
</g>
<!-- Node26&#45;&gt;Node27 -->
<g id="edge37" class="edge"><title>Node26&#45;&gt;Node27</title>
<path fill="none" stroke="midnightblue" d="M786.041,-235.083C782.346,-227.691 776.977,-216.953 772.406,-207.811"/>
<polygon fill="midnightblue" stroke="midnightblue" points="775.478,-206.13 767.876,-198.751 769.217,-209.261 775.478,-206.13"/>
</g>
<!-- Node27&#45;&gt;Node3 -->
<g id="edge38" class="edge"><title>Node27&#45;&gt;Node3</title>
<path fill="none" stroke="midnightblue" d="M698.931,-180.104C695.743,-179.728 692.585,-179.358 689.5,-179 547.954,-162.578 507.987,-172.279 365.286,-143.049"/>
<polygon fill="midnightblue" stroke="midnightblue" points="365.787,-139.578 355.284,-140.971 364.363,-146.432 365.787,-139.578"/>
</g>
<!-- Node27&#45;&gt;Node10 -->
<g id="edge39" class="edge"><title>Node27&#45;&gt;Node10</title>
<path fill="none" stroke="midnightblue" d="M755.409,-179.083C748.345,-171.298 737.912,-159.801 729.351,-150.367"/>
<polygon fill="midnightblue" stroke="midnightblue" points="731.753,-147.805 722.441,-142.751 726.569,-152.509 731.753,-147.805"/>
</g>
</g>
</svg>
