<?xml version="1.0" encoding="UTF-8" standalone="no"?>
<!DOCTYPE svg PUBLIC "-//W3C//DTD SVG 1.1//EN"
 "http://www.w3.org/Graphics/SVG/1.1/DTD/svg11.dtd">
<!-- Generated by graphviz version 2.38.0 (20140413.2041)
 -->
<!-- Title: src/gromacs/utility/cstringutil.h Pages: 1 -->
<svg width="3208pt" height="106pt"
 viewBox="0.00 0.00 3207.50 106.00" xmlns="http://www.w3.org/2000/svg" xmlns:xlink="http://www.w3.org/1999/xlink">
<g id="graph0" class="graph" transform="scale(1 1) rotate(0) translate(4 102)">
<title>src/gromacs/utility/cstringutil.h</title>
<polygon fill="white" stroke="none" points="-4,4 -4,-102 3203.5,-102 3203.5,4 -4,4"/>
<!-- Node1 -->
<g id="node1" class="node"><title>Node1</title>
<polygon fill="#bfbfbf" stroke="black" points="1587,-67.5 1587,-97.5 1684,-97.5 1684,-67.5 1587,-67.5"/>
<text text-anchor="start" x="1595" y="-85.5" font-family="Helvetica,sans-Serif" font-size="10.00">src/gromacs/utility</text>
<text text-anchor="middle" x="1635.5" y="-74.5" font-family="Helvetica,sans-Serif" font-size="10.00">/cstringutil.h</text>
</g>
<!-- Node2 -->
<g id="node2" class="node"><title>Node2</title>
<g id="a_node2"><a xlink:href="domdec__topology_8cpp.xhtml" target="_top" xlink:title="This file defines functions used by the domdec module while managing the construction, use and error checking for topologies local to a DD rank. ">
<polygon fill="white" stroke="black" points="0,-0.5 0,-30.5 115,-30.5 115,-0.5 0,-0.5"/>
<text text-anchor="start" x="8" y="-18.5" font-family="Helvetica,sans-Serif" font-size="10.00">src/gromacs/domdec</text>
<text text-anchor="middle" x="57.5" y="-7.5" font-family="Helvetica,sans-Serif" font-size="10.00">/domdec_topology.cpp</text>
</a>
</g>
</g>
<!-- Node1&#45;&gt;Node2 -->
<g id="edge1" class="edge"><title>Node1&#45;&gt;Node2</title>
<path fill="none" stroke="midnightblue" d="M1576.87,-80.9751C1334.81,-78.5864 412.366,-67.2459 123.5,-31 120.823,-30.6641 118.094,-30.2715 115.344,-29.8351"/>
<polygon fill="midnightblue" stroke="midnightblue" points="1576.84,-84.4748 1586.88,-81.0725 1576.91,-77.4752 1576.84,-84.4748"/>
</g>
<!-- Node3 -->
<g id="node3" class="node"><title>Node3</title>
<g id="a_node3"><a xlink:href="pme-load-balancing_8cpp.xhtml" target="_top" xlink:title="This file contains function definitions necessary for managing automatic load balance of PME calculat...">
<polygon fill="white" stroke="black" points="133,-0.5 133,-30.5 254,-30.5 254,-0.5 133,-0.5"/>
<text text-anchor="start" x="141" y="-18.5" font-family="Helvetica,sans-Serif" font-size="10.00">src/gromacs/ewald/pme</text>
<text text-anchor="middle" x="193.5" y="-7.5" font-family="Helvetica,sans-Serif" font-size="10.00">&#45;load&#45;balancing.cpp</text>
</a>
</g>
</g>
<!-- Node1&#45;&gt;Node3 -->
<g id="edge2" class="edge"><title>Node1&#45;&gt;Node3</title>
<path fill="none" stroke="midnightblue" d="M1576.78,-80.6489C1348.99,-77.1443 523.636,-62.505 263.5,-31 260.42,-30.627 257.274,-30.1885 254.104,-29.7009"/>
<polygon fill="midnightblue" stroke="midnightblue" points="1576.8,-84.1496 1586.85,-80.8026 1576.91,-77.1504 1576.8,-84.1496"/>
</g>
<!-- Node4 -->
<g id="node4" class="node"><title>Node4</title>
<g id="a_node4"><a xlink:href="tests_2confio_8cpp.xhtml" target="_top" xlink:title="Tests for reading/writing different structure file formats. ">
<polygon fill="white" stroke="black" points="272.5,-0.5 272.5,-30.5 366.5,-30.5 366.5,-0.5 272.5,-0.5"/>
<text text-anchor="start" x="280.5" y="-18.5" font-family="Helvetica,sans-Serif" font-size="10.00">src/gromacs/fileio</text>
<text text-anchor="middle" x="319.5" y="-7.5" font-family="Helvetica,sans-Serif" font-size="10.00">/tests/confio.cpp</text>
</a>
</g>
</g>
<!-- Node1&#45;&gt;Node4 -->
<g id="edge3" class="edge"><title>Node1&#45;&gt;Node4</title>
<path fill="none" stroke="midnightblue" d="M1576.59,-80.805C1360.5,-77.9963 611.757,-65.9124 375.5,-31 372.619,-30.5742 369.672,-30.0589 366.711,-29.4797"/>
<polygon fill="midnightblue" stroke="midnightblue" points="1576.72,-84.3069 1586.77,-80.9355 1576.81,-77.3075 1576.72,-84.3069"/>
</g>
<!-- Node5 -->
<g id="node5" class="node"><title>Node5</title>
<g id="a_node5"><a xlink:href="gmx__wham_8cpp.xhtml" target="_top" xlink:title="Implementation of the Weighted Histogram Analysis Method (WHAM) ">
<polygon fill="white" stroke="black" points="384.5,-0.5 384.5,-30.5 492.5,-30.5 492.5,-0.5 384.5,-0.5"/>
<text text-anchor="start" x="392.5" y="-18.5" font-family="Helvetica,sans-Serif" font-size="10.00">src/gromacs/gmxana</text>
<text text-anchor="middle" x="438.5" y="-7.5" font-family="Helvetica,sans-Serif" font-size="10.00">/gmx_wham.cpp</text>
</a>
</g>
</g>
<!-- Node1&#45;&gt;Node5 -->
<g id="edge4" class="edge"><title>Node1&#45;&gt;Node5</title>
<path fill="none" stroke="midnightblue" d="M1576.87,-80.2973C1375.43,-75.9448 712.503,-59.7374 501.5,-31 498.609,-30.6062 495.655,-30.1428 492.681,-29.6281"/>
<polygon fill="midnightblue" stroke="midnightblue" points="1576.88,-83.7982 1586.95,-80.5136 1577.03,-76.7999 1576.88,-83.7982"/>
</g>
<!-- Node6 -->
<g id="node6" class="node"><title>Node6</title>
<g id="a_node6"><a xlink:href="gpu__utils__ocl_8cpp.xhtml" target="_top" xlink:title="Define functions for detection and initialization for OpenCL devices. ">
<polygon fill="white" stroke="black" points="511,-0.5 511,-30.5 624,-30.5 624,-0.5 511,-0.5"/>
<text text-anchor="start" x="519" y="-18.5" font-family="Helvetica,sans-Serif" font-size="10.00">src/gromacs/gpu_utils</text>
<text text-anchor="middle" x="567.5" y="-7.5" font-family="Helvetica,sans-Serif" font-size="10.00">/gpu_utils_ocl.cpp</text>
</a>
</g>
</g>
<!-- Node1&#45;&gt;Node6 -->
<g id="edge5" class="edge"><title>Node1&#45;&gt;Node6</title>
<path fill="none" stroke="midnightblue" d="M1576.7,-81.9999C1421.57,-82.5725 988.643,-79.3354 632.5,-31 629.75,-30.6268 626.945,-30.1962 624.118,-29.7221"/>
<polygon fill="midnightblue" stroke="midnightblue" points="1576.97,-85.4989 1586.95,-81.9549 1576.94,-78.499 1576.97,-85.4989"/>
</g>
<!-- Node7 -->
<g id="node7" class="node"><title>Node7</title>
<g id="a_node7"><a xlink:href="ocl__compiler_8cpp.xhtml" target="_top" xlink:title="Define infrastructure for OpenCL JIT compilation for Gromacs. ">
<polygon fill="white" stroke="black" points="642,-0.5 642,-30.5 755,-30.5 755,-0.5 642,-0.5"/>
<text text-anchor="start" x="650" y="-18.5" font-family="Helvetica,sans-Serif" font-size="10.00">src/gromacs/gpu_utils</text>
<text text-anchor="middle" x="698.5" y="-7.5" font-family="Helvetica,sans-Serif" font-size="10.00">/ocl_compiler.cpp</text>
</a>
</g>
</g>
<!-- Node1&#45;&gt;Node7 -->
<g id="edge6" class="edge"><title>Node1&#45;&gt;Node7</title>
<path fill="none" stroke="midnightblue" d="M1576.44,-81.2918C1435.36,-80.0959 1067.88,-72.8526 764.5,-31 761.478,-30.5832 758.39,-30.1014 755.279,-29.5723"/>
<polygon fill="midnightblue" stroke="midnightblue" points="1576.58,-84.7928 1586.6,-81.3707 1576.63,-77.7931 1576.58,-84.7928"/>
</g>
<!-- Node8 -->
<g id="node8" class="node"><title>Node8</title>
<g id="a_node8"><a xlink:href="minimize_8cpp.xhtml" target="_top" xlink:title="This file defines integrators for energy minimization. ">
<polygon fill="white" stroke="black" points="773.5,-6 773.5,-25 931.5,-25 931.5,-6 773.5,-6"/>
<text text-anchor="middle" x="852.5" y="-13" font-family="Helvetica,sans-Serif" font-size="10.00">src/gromacs/mdlib/minimize.cpp</text>
</a>
</g>
</g>
<!-- Node1&#45;&gt;Node8 -->
<g id="edge7" class="edge"><title>Node1&#45;&gt;Node8</title>
<path fill="none" stroke="midnightblue" d="M1576.84,-79.038C1456.98,-73.6106 1175.43,-58.832 940.5,-31 927.123,-29.4152 912.674,-27.2329 899.428,-25.0423"/>
<polygon fill="midnightblue" stroke="midnightblue" points="1576.76,-82.5377 1586.91,-79.4889 1577.07,-75.5447 1576.76,-82.5377"/>
</g>
<!-- Node9 -->
<g id="node9" class="node"><title>Node9</title>
<g id="a_node9"><a xlink:href="nbnxn__ocl_8cpp.xhtml" target="_top" xlink:title="Define OpenCL implementation of nbnxn_gpu.h. ">
<polygon fill="white" stroke="black" points="949.5,-0.5 949.5,-30.5 1075.5,-30.5 1075.5,-0.5 949.5,-0.5"/>
<text text-anchor="start" x="957.5" y="-18.5" font-family="Helvetica,sans-Serif" font-size="10.00">src/gromacs/mdlib/nbnxn</text>
<text text-anchor="middle" x="1012.5" y="-7.5" font-family="Helvetica,sans-Serif" font-size="10.00">_ocl/nbnxn_ocl.cpp</text>
</a>
</g>
</g>
<!-- Node1&#45;&gt;Node9 -->
<g id="edge8" class="edge"><title>Node1&#45;&gt;Node9</title>
<path fill="none" stroke="midnightblue" d="M1576.64,-78.1861C1475.59,-72.0332 1262.78,-57.0445 1084.5,-31 1081.6,-30.5761 1078.64,-30.1113 1075.65,-29.6163"/>
<polygon fill="midnightblue" stroke="midnightblue" points="1576.45,-81.6813 1586.65,-78.7888 1576.87,-74.694 1576.45,-81.6813"/>
</g>
<!-- Node10 -->
<g id="node10" class="node"><title>Node10</title>
<g id="a_node10"><a xlink:href="nbnxn__ocl__data__mgmt_8cpp.xhtml" target="_top" xlink:title="Define OpenCL implementation of nbnxn_gpu_data_mgmt.h. ">
<polygon fill="white" stroke="black" points="1094,-0.5 1094,-30.5 1249,-30.5 1249,-0.5 1094,-0.5"/>
<text text-anchor="start" x="1102" y="-18.5" font-family="Helvetica,sans-Serif" font-size="10.00">src/gromacs/mdlib/nbnxn</text>
<text text-anchor="middle" x="1171.5" y="-7.5" font-family="Helvetica,sans-Serif" font-size="10.00">_ocl/nbnxn_ocl_data_mgmt.cpp</text>
</a>
</g>
</g>
<!-- Node1&#45;&gt;Node10 -->
<g id="edge9" class="edge"><title>Node1&#45;&gt;Node10</title>
<path fill="none" stroke="midnightblue" d="M1576.68,-74.2753C1502.26,-64.9888 1370.2,-48.0241 1257.5,-31 1254.81,-30.5929 1252.06,-30.1714 1249.3,-29.7395"/>
<polygon fill="midnightblue" stroke="midnightblue" points="1576.44,-77.7717 1586.79,-75.534 1577.3,-70.8253 1576.44,-77.7717"/>
</g>
<!-- Node11 -->
<g id="node11" class="node"><title>Node11</title>
<g id="a_node11"><a xlink:href="nbnxn__ocl__jit__support_8cpp.xhtml" target="_top" xlink:title="Defines functions that support JIT compilation (e.g. for OpenCL) ">
<polygon fill="white" stroke="black" points="1267,-0.5 1267,-30.5 1418,-30.5 1418,-0.5 1267,-0.5"/>
<text text-anchor="start" x="1275" y="-18.5" font-family="Helvetica,sans-Serif" font-size="10.00">src/gromacs/mdlib/nbnxn</text>
<text text-anchor="middle" x="1342.5" y="-7.5" font-family="Helvetica,sans-Serif" font-size="10.00">_ocl/nbnxn_ocl_jit_support.cpp</text>
</a>
</g>
</g>
<!-- Node1&#45;&gt;Node11 -->
<g id="edge10" class="edge"><title>Node1&#45;&gt;Node11</title>
<path fill="none" stroke="midnightblue" d="M1576.86,-68.4915C1527.3,-57.4969 1456.47,-41.783 1405.67,-30.5129"/>
<polygon fill="midnightblue" stroke="midnightblue" points="1576.27,-71.9447 1586.79,-70.6936 1577.78,-65.1108 1576.27,-71.9447"/>
</g>
<!-- Node12 -->
<g id="node12" class="node"><title>Node12</title>
<g id="a_node12"><a xlink:href="tpi_8cpp.xhtml" target="_top" xlink:title="This file defines the integrator for test particle insertion. ">
<polygon fill="white" stroke="black" points="1436,-6 1436,-25 1565,-25 1565,-6 1436,-6"/>
<text text-anchor="middle" x="1500.5" y="-13" font-family="Helvetica,sans-Serif" font-size="10.00">src/gromacs/mdlib/tpi.cpp</text>
</a>
</g>
</g>
<!-- Node1&#45;&gt;Node12 -->
<g id="edge11" class="edge"><title>Node1&#45;&gt;Node12</title>
<path fill="none" stroke="midnightblue" d="M1597.01,-62.9674C1571.08,-50.481 1538.09,-34.5978 1518.17,-25.007"/>
<polygon fill="midnightblue" stroke="midnightblue" points="1595.68,-66.2113 1606.21,-67.396 1598.72,-59.9042 1595.68,-66.2113"/>
</g>
<!-- Node13 -->
<g id="node13" class="node"><title>Node13</title>
<g id="a_node13"><a xlink:href="basicoptions_8cpp.xhtml" target="_top" xlink:title="Implements classes in basicoptions.h and basicoptionstorage.h. ">
<polygon fill="white" stroke="black" points="1583,-0.5 1583,-30.5 1688,-30.5 1688,-0.5 1583,-0.5"/>
<text text-anchor="start" x="1591" y="-18.5" font-family="Helvetica,sans-Serif" font-size="10.00">src/gromacs/options</text>
<text text-anchor="middle" x="1635.5" y="-7.5" font-family="Helvetica,sans-Serif" font-size="10.00">/basicoptions.cpp</text>
</a>
</g>
</g>
<!-- Node1&#45;&gt;Node13 -->
<g id="edge12" class="edge"><title>Node1&#45;&gt;Node13</title>
<path fill="none" stroke="midnightblue" d="M1635.5,-57.1081C1635.5,-48.1539 1635.5,-38.3227 1635.5,-30.5765"/>
<polygon fill="midnightblue" stroke="midnightblue" points="1632,-57.3959 1635.5,-67.396 1639,-57.396 1632,-57.3959"/>
</g>
<!-- Node14 -->
<g id="node14" class="node"><title>Node14</title>
<g id="a_node14"><a xlink:href="params_8cpp.xhtml" target="_top" xlink:title="Implements functions in selparam.h. ">
<polygon fill="white" stroke="black" points="1706,-0.5 1706,-30.5 1819,-30.5 1819,-0.5 1706,-0.5"/>
<text text-anchor="start" x="1714" y="-18.5" font-family="Helvetica,sans-Serif" font-size="10.00">src/gromacs/selection</text>
<text text-anchor="middle" x="1762.5" y="-7.5" font-family="Helvetica,sans-Serif" font-size="10.00">/params.cpp</text>
</a>
</g>
</g>
<!-- Node1&#45;&gt;Node14 -->
<g id="edge13" class="edge"><title>Node1&#45;&gt;Node14</title>
<path fill="none" stroke="midnightblue" d="M1672.2,-62.7143C1692.23,-52.4631 1716.62,-39.9826 1735,-30.5765"/>
<polygon fill="midnightblue" stroke="midnightblue" points="1670.36,-59.7242 1663.06,-67.396 1673.55,-65.9555 1670.36,-59.7242"/>
</g>
<!-- Node15 -->
<g id="node15" class="node"><title>Node15</title>
<g id="a_node15"><a xlink:href="parsetree_8cpp.xhtml" target="_top" xlink:title="Implements functions in parsetree.h. ">
<polygon fill="white" stroke="black" points="1837,-0.5 1837,-30.5 1950,-30.5 1950,-0.5 1837,-0.5"/>
<text text-anchor="start" x="1845" y="-18.5" font-family="Helvetica,sans-Serif" font-size="10.00">src/gromacs/selection</text>
<text text-anchor="middle" x="1893.5" y="-7.5" font-family="Helvetica,sans-Serif" font-size="10.00">/parsetree.cpp</text>
</a>
</g>
</g>
<!-- Node1&#45;&gt;Node15 -->
<g id="edge14" class="edge"><title>Node1&#45;&gt;Node15</title>
<path fill="none" stroke="midnightblue" d="M1693.8,-66.8131C1736.84,-55.968 1795.09,-41.2936 1837.57,-30.5921"/>
<polygon fill="midnightblue" stroke="midnightblue" points="1692.87,-63.4369 1684.03,-69.274 1694.58,-70.2248 1692.87,-63.4369"/>
</g>
<!-- Node16 -->
<g id="node16" class="node"><title>Node16</title>
<g id="a_node16"><a xlink:href="scanner__internal_8cpp.xhtml" target="_top" xlink:title="Helper functions for the selection tokenizer. ">
<polygon fill="white" stroke="black" points="1968,-0.5 1968,-30.5 2081,-30.5 2081,-0.5 1968,-0.5"/>
<text text-anchor="start" x="1976" y="-18.5" font-family="Helvetica,sans-Serif" font-size="10.00">src/gromacs/selection</text>
<text text-anchor="middle" x="2024.5" y="-7.5" font-family="Helvetica,sans-Serif" font-size="10.00">/scanner_internal.cpp</text>
</a>
</g>
</g>
<!-- Node1&#45;&gt;Node16 -->
<g id="edge15" class="edge"><title>Node1&#45;&gt;Node16</title>
<path fill="none" stroke="midnightblue" d="M1694.31,-73.5029C1759.38,-64.3833 1867.25,-48.4603 1959.5,-31 1962.23,-30.484 1965.01,-29.9373 1967.82,-29.3701"/>
<polygon fill="midnightblue" stroke="midnightblue" points="1693.67,-70.059 1684.25,-74.9073 1694.64,-76.9919 1693.67,-70.059"/>
</g>
<!-- Node17 -->
<g id="node17" class="node"><title>Node17</title>
<g id="a_node17"><a xlink:href="selmethod_8cpp.xhtml" target="_top" xlink:title="Implements functions in selmethod.h. ">
<polygon fill="white" stroke="black" points="2099,-0.5 2099,-30.5 2212,-30.5 2212,-0.5 2099,-0.5"/>
<text text-anchor="start" x="2107" y="-18.5" font-family="Helvetica,sans-Serif" font-size="10.00">src/gromacs/selection</text>
<text text-anchor="middle" x="2155.5" y="-7.5" font-family="Helvetica,sans-Serif" font-size="10.00">/selmethod.cpp</text>
</a>
</g>
</g>
<!-- Node1&#45;&gt;Node17 -->
<g id="edge16" class="edge"><title>Node1&#45;&gt;Node17</title>
<path fill="none" stroke="midnightblue" d="M1694.43,-77.0243C1781.44,-69.9493 1949.24,-54.5224 2090.5,-31 2093.24,-30.5442 2096.03,-30.0464 2098.85,-29.5185"/>
<polygon fill="midnightblue" stroke="midnightblue" points="1693.91,-73.5545 1684.22,-77.8457 1694.47,-80.5319 1693.91,-73.5545"/>
</g>
<!-- Node18 -->
<g id="node18" class="node"><title>Node18</title>
<g id="a_node18"><a xlink:href="sm__keywords_8cpp.xhtml" target="_top" xlink:title="Implements internal selection methods for numeric and string keyword evaluation. ">
<polygon fill="white" stroke="black" points="2230,-0.5 2230,-30.5 2343,-30.5 2343,-0.5 2230,-0.5"/>
<text text-anchor="start" x="2238" y="-18.5" font-family="Helvetica,sans-Serif" font-size="10.00">src/gromacs/selection</text>
<text text-anchor="middle" x="2286.5" y="-7.5" font-family="Helvetica,sans-Serif" font-size="10.00">/sm_keywords.cpp</text>
</a>
</g>
</g>
<!-- Node1&#45;&gt;Node18 -->
<g id="edge17" class="edge"><title>Node1&#45;&gt;Node18</title>
<path fill="none" stroke="midnightblue" d="M1694.56,-79.0213C1800.6,-73.9915 2030.06,-60.4666 2221.5,-31 2224.24,-30.5779 2227.04,-30.1074 2229.86,-29.6015"/>
<polygon fill="midnightblue" stroke="midnightblue" points="1694.21,-75.5338 1684.38,-79.4958 1694.53,-82.5262 1694.21,-75.5338"/>
</g>
<!-- Node19 -->
<g id="node19" class="node"><title>Node19</title>
<g id="a_node19"><a xlink:href="sm__position_8cpp.xhtml" target="_top" xlink:title="Implements position evaluation selection methods. ">
<polygon fill="white" stroke="black" points="2361,-0.5 2361,-30.5 2474,-30.5 2474,-0.5 2361,-0.5"/>
<text text-anchor="start" x="2369" y="-18.5" font-family="Helvetica,sans-Serif" font-size="10.00">src/gromacs/selection</text>
<text text-anchor="middle" x="2417.5" y="-7.5" font-family="Helvetica,sans-Serif" font-size="10.00">/sm_position.cpp</text>
</a>
</g>
</g>
<!-- Node1&#45;&gt;Node19 -->
<g id="edge18" class="edge"><title>Node1&#45;&gt;Node19</title>
<path fill="none" stroke="midnightblue" d="M1694.33,-80.3231C1817.21,-77.2142 2109.83,-66.4103 2352.5,-31 2355.25,-30.5993 2358.05,-30.1463 2360.87,-29.6544"/>
<polygon fill="midnightblue" stroke="midnightblue" points="1693.93,-76.8316 1684.02,-80.5757 1694.11,-83.8295 1693.93,-76.8316"/>
</g>
<!-- Node20 -->
<g id="node20" class="node"><title>Node20</title>
<g id="a_node20"><a xlink:href="toputils_8cpp.xhtml" target="_top" xlink:title="Implements test helper routines from toputils.h. ">
<polygon fill="white" stroke="black" points="2492,-0.5 2492,-30.5 2605,-30.5 2605,-0.5 2492,-0.5"/>
<text text-anchor="start" x="2500" y="-18.5" font-family="Helvetica,sans-Serif" font-size="10.00">src/gromacs/selection</text>
<text text-anchor="middle" x="2548.5" y="-7.5" font-family="Helvetica,sans-Serif" font-size="10.00">/tests/toputils.cpp</text>
</a>
</g>
</g>
<!-- Node1&#45;&gt;Node20 -->
<g id="edge19" class="edge"><title>Node1&#45;&gt;Node20</title>
<path fill="none" stroke="midnightblue" d="M1694.42,-81.2259C1832.82,-79.8788 2189.21,-72.317 2483.5,-31 2486.25,-30.6142 2489.05,-30.1733 2491.88,-29.691"/>
<polygon fill="midnightblue" stroke="midnightblue" points="1694.02,-77.7293 1684.05,-81.319 1694.08,-84.729 1694.02,-77.7293"/>
</g>
<!-- Node21 -->
<g id="node21" class="node"><title>Node21</title>
<g id="a_node21"><a xlink:href="gromacs_2swap_2swapcoords_8cpp.xhtml" target="_top" xlink:title="Implements functions in swapcoords.h. ">
<polygon fill="white" stroke="black" points="2623,-6 2623,-25 2794,-25 2794,-6 2623,-6"/>
<text text-anchor="middle" x="2708.5" y="-13" font-family="Helvetica,sans-Serif" font-size="10.00">src/gromacs/swap/swapcoords.cpp</text>
</a>
</g>
</g>
<!-- Node1&#45;&gt;Node21 -->
<g id="edge20" class="edge"><title>Node1&#45;&gt;Node21</title>
<path fill="none" stroke="midnightblue" d="M1694.08,-80.5504C1846.27,-77.6345 2266.54,-66.7188 2614.5,-31 2629.12,-29.4993 2644.93,-27.2895 2659.35,-25.0451"/>
<polygon fill="midnightblue" stroke="midnightblue" points="1693.95,-77.0521 1684.02,-80.7389 1694.08,-84.0508 1693.95,-77.0521"/>
</g>
<!-- Node22 -->
<g id="node22" class="node"><title>Node22</title>
<g id="a_node22"><a xlink:href="runnercommon_8cpp.xhtml" target="_top" xlink:title="Implements gmx::TrajectoryAnalysisRunnerCommon. ">
<polygon fill="white" stroke="black" points="2812.5,-0.5 2812.5,-30.5 2962.5,-30.5 2962.5,-0.5 2812.5,-0.5"/>
<text text-anchor="start" x="2820.5" y="-18.5" font-family="Helvetica,sans-Serif" font-size="10.00">src/gromacs/trajectoryanalysis</text>
<text text-anchor="middle" x="2887.5" y="-7.5" font-family="Helvetica,sans-Serif" font-size="10.00">/runnercommon.cpp</text>
</a>
</g>
</g>
<!-- Node1&#45;&gt;Node22 -->
<g id="edge21" class="edge"><title>Node1&#45;&gt;Node22</title>
<path fill="none" stroke="midnightblue" d="M1694.13,-81.6064C1865.43,-81.3499 2379.79,-76.5418 2803.5,-31 2806.44,-30.6837 2809.44,-30.3283 2812.46,-29.9419"/>
<polygon fill="midnightblue" stroke="midnightblue" points="1694.06,-78.1063 1684.06,-81.6167 1694.07,-85.1063 1694.06,-78.1063"/>
</g>
<!-- Node23 -->
<g id="node23" class="node"><title>Node23</title>
<g id="a_node23"><a xlink:href="gmxomp_8cpp.xhtml" target="_top" xlink:title="Implements functions from gmxomp.h. ">
<polygon fill="white" stroke="black" points="2980,-0.5 2980,-30.5 3077,-30.5 3077,-0.5 2980,-0.5"/>
<text text-anchor="start" x="2988" y="-18.5" font-family="Helvetica,sans-Serif" font-size="10.00">src/gromacs/utility</text>
<text text-anchor="middle" x="3028.5" y="-7.5" font-family="Helvetica,sans-Serif" font-size="10.00">/gmxomp.cpp</text>
</a>
</g>
</g>
<!-- Node1&#45;&gt;Node23 -->
<g id="edge22" class="edge"><title>Node1&#45;&gt;Node23</title>
<path fill="none" stroke="midnightblue" d="M1694.56,-80.9261C1919.1,-78.4869 2719.64,-67.3771 2971.5,-31 2974.23,-30.6059 2977.02,-30.1336 2979.82,-29.6041"/>
<polygon fill="midnightblue" stroke="midnightblue" points="1694.27,-77.4289 1684.31,-81.0358 1694.35,-84.4285 1694.27,-77.4289"/>
</g>
<!-- Node24 -->
<g id="node24" class="node"><title>Node24</title>
<g id="a_node24"><a xlink:href="runner_8cpp.xhtml" target="_top" xlink:title="Implements the MD runner routine calling all integrators. ">
<polygon fill="white" stroke="black" points="3095.5,-0.5 3095.5,-30.5 3199.5,-30.5 3199.5,-0.5 3095.5,-0.5"/>
<text text-anchor="start" x="3103.5" y="-18.5" font-family="Helvetica,sans-Serif" font-size="10.00">src/programs/mdrun</text>
<text text-anchor="middle" x="3147.5" y="-7.5" font-family="Helvetica,sans-Serif" font-size="10.00">/runner.cpp</text>
</a>
</g>
</g>
<!-- Node1&#45;&gt;Node24 -->
<g id="edge23" class="edge"><title>Node1&#45;&gt;Node24</title>
<path fill="none" stroke="midnightblue" d="M1694.48,-81.0095C1930.92,-78.8013 2810.67,-68.2072 3086.5,-31 3089.41,-30.6071 3092.39,-30.1358 3095.38,-29.607"/>
<polygon fill="midnightblue" stroke="midnightblue" points="1694.33,-77.5106 1684.36,-81.1024 1694.4,-84.5103 1694.33,-77.5106"/>
</g>
</g>
</svg>
