<?xml version="1.0" encoding="UTF-8" standalone="no"?>
<!DOCTYPE svg PUBLIC "-//W3C//DTD SVG 1.1//EN"
 "http://www.w3.org/Graphics/SVG/1.1/DTD/svg11.dtd">
<!-- Generated by graphviz version 2.38.0 (20140413.2041)
 -->
<!-- Title: src/gromacs/utility/datafilefinder.cpp Pages: 1 -->
<svg width="1350pt" height="274pt"
 viewBox="0.00 0.00 1349.50 274.00" xmlns="http://www.w3.org/2000/svg" xmlns:xlink="http://www.w3.org/1999/xlink">
<g id="graph0" class="graph" transform="scale(1 1) rotate(0) translate(4 270)">
<title>src/gromacs/utility/datafilefinder.cpp</title>
<polygon fill="white" stroke="none" points="-4,4 -4,-270 1345.5,-270 1345.5,4 -4,4"/>
<!-- Node1 -->
<g id="node1" class="node"><title>Node1</title>
<polygon fill="#bfbfbf" stroke="black" points="634,-235.5 634,-265.5 731,-265.5 731,-235.5 634,-235.5"/>
<text text-anchor="start" x="642" y="-253.5" font-family="Helvetica,sans-Serif" font-size="10.00">src/gromacs/utility</text>
<text text-anchor="middle" x="682.5" y="-242.5" font-family="Helvetica,sans-Serif" font-size="10.00">/datafilefinder.cpp</text>
</g>
<!-- Node2 -->
<g id="node2" class="node"><title>Node2</title>
<g id="a_node2"><a xlink:href="gmxpre_8h.xhtml" target="_top" xlink:title="Prerequisite header file for GROMACS build. ">
<polygon fill="white" stroke="black" points="0,-179.5 0,-198.5 57,-198.5 57,-179.5 0,-179.5"/>
<text text-anchor="middle" x="28.5" y="-186.5" font-family="Helvetica,sans-Serif" font-size="10.00">gmxpre.h</text>
</a>
</g>
</g>
<!-- Node1&#45;&gt;Node2 -->
<g id="edge1" class="edge"><title>Node1&#45;&gt;Node2</title>
<path fill="none" stroke="midnightblue" d="M633.887,-248.005C531.019,-244.305 283.712,-232.577 67.0113,-198.819"/>
<polygon fill="midnightblue" stroke="midnightblue" points="67.4651,-195.348 57.042,-197.247 66.3746,-202.262 67.4651,-195.348"/>
</g>
<!-- Node3 -->
<g id="node3" class="node"><title>Node3</title>
<g id="a_node3"><a xlink:href="datafilefinder_8h.xhtml" target="_top" xlink:title="Declares gmx::DataFileFinder and related classes. ">
<polygon fill="white" stroke="black" points="227.5,-179.5 227.5,-198.5 307.5,-198.5 307.5,-179.5 227.5,-179.5"/>
<text text-anchor="middle" x="267.5" y="-186.5" font-family="Helvetica,sans-Serif" font-size="10.00">datafilefinder.h</text>
</a>
</g>
</g>
<!-- Node1&#45;&gt;Node3 -->
<g id="edge2" class="edge"><title>Node1&#45;&gt;Node3</title>
<path fill="none" stroke="midnightblue" d="M633.977,-243.122C564.616,-233.913 433.158,-216.112 321.5,-199 320.232,-198.806 318.947,-198.607 317.651,-198.404"/>
<polygon fill="midnightblue" stroke="midnightblue" points="318.012,-194.918 307.586,-196.801 316.911,-201.831 318.012,-194.918"/>
</g>
<!-- Node5 -->
<g id="node5" class="node"><title>Node5</title>
<polygon fill="white" stroke="#bfbfbf" points="464,-123.5 464,-142.5 505,-142.5 505,-123.5 464,-123.5"/>
<text text-anchor="middle" x="484.5" y="-130.5" font-family="Helvetica,sans-Serif" font-size="10.00">string</text>
</g>
<!-- Node1&#45;&gt;Node5 -->
<g id="edge9" class="edge"><title>Node1&#45;&gt;Node5</title>
<path fill="none" stroke="midnightblue" d="M633.817,-249.42C551.407,-248.136 389.903,-240.27 354.5,-199 348.713,-192.253 349.344,-186.241 354.5,-179 357.515,-174.765 416.574,-155.472 454.041,-143.564"/>
<polygon fill="midnightblue" stroke="midnightblue" points="455.495,-146.776 463.972,-140.42 453.382,-140.102 455.495,-146.776"/>
</g>
<!-- Node6 -->
<g id="node6" class="node"><title>Node6</title>
<polygon fill="white" stroke="#bfbfbf" points="658.5,-123.5 658.5,-142.5 702.5,-142.5 702.5,-123.5 658.5,-123.5"/>
<text text-anchor="middle" x="680.5" y="-130.5" font-family="Helvetica,sans-Serif" font-size="10.00">vector</text>
</g>
<!-- Node1&#45;&gt;Node6 -->
<g id="edge10" class="edge"><title>Node1&#45;&gt;Node6</title>
<path fill="none" stroke="midnightblue" d="M731.012,-243.442C782.176,-234.975 851.89,-216.255 824.5,-179 817.703,-169.755 752.732,-152.08 712.418,-141.849"/>
<polygon fill="midnightblue" stroke="midnightblue" points="713.057,-138.4 702.505,-139.356 711.35,-145.189 713.057,-138.4"/>
</g>
<!-- Node9 -->
<g id="node9" class="node"><title>Node9</title>
<polygon fill="white" stroke="#bfbfbf" points="791,-123.5 791,-142.5 836,-142.5 836,-123.5 791,-123.5"/>
<text text-anchor="middle" x="813.5" y="-130.5" font-family="Helvetica,sans-Serif" font-size="10.00">cstdlib</text>
</g>
<!-- Node1&#45;&gt;Node9 -->
<g id="edge8" class="edge"><title>Node1&#45;&gt;Node9</title>
<path fill="none" stroke="midnightblue" d="M731.051,-248.613C768.187,-245.06 817.186,-233.535 842.5,-199 853.51,-183.979 841.504,-164.115 829.767,-150.317"/>
<polygon fill="midnightblue" stroke="midnightblue" points="832.038,-147.615 822.701,-142.607 826.877,-152.344 832.038,-147.615"/>
</g>
<!-- Node10 -->
<g id="node10" class="node"><title>Node10</title>
<polygon fill="white" stroke="#bfbfbf" points="1067,-179.5 1067,-198.5 1128,-198.5 1128,-179.5 1067,-179.5"/>
<text text-anchor="middle" x="1097.5" y="-186.5" font-family="Helvetica,sans-Serif" font-size="10.00">buildinfo.h</text>
</g>
<!-- Node1&#45;&gt;Node10 -->
<g id="edge11" class="edge"><title>Node1&#45;&gt;Node10</title>
<path fill="none" stroke="midnightblue" d="M731.255,-244.313C801.11,-236.579 933.877,-220.752 1057,-198.941"/>
<polygon fill="midnightblue" stroke="midnightblue" points="1057.75,-202.362 1066.98,-197.155 1056.52,-195.471 1057.75,-202.362"/>
</g>
<!-- Node11 -->
<g id="node11" class="node"><title>Node11</title>
<g id="a_node11"><a xlink:href="directoryenumerator_8h.xhtml" target="_top" xlink:title="Declares gmx::DirectoryEnumerator. ">
<polygon fill="white" stroke="black" points="363.5,-179.5 363.5,-198.5 541.5,-198.5 541.5,-179.5 363.5,-179.5"/>
<text text-anchor="middle" x="452.5" y="-186.5" font-family="Helvetica,sans-Serif" font-size="10.00">gromacs/utility/directoryenumerator.h</text>
</a>
</g>
</g>
<!-- Node1&#45;&gt;Node11 -->
<g id="edge12" class="edge"><title>Node1&#45;&gt;Node11</title>
<path fill="none" stroke="midnightblue" d="M633.723,-236.882C592.722,-226.275 534.684,-211.261 495.424,-201.104"/>
<polygon fill="midnightblue" stroke="midnightblue" points="496.18,-197.685 485.622,-198.568 494.426,-204.461 496.18,-197.685"/>
</g>
<!-- Node12 -->
<g id="node12" class="node"><title>Node12</title>
<g id="a_node12"><a xlink:href="exceptions_8h.xhtml" target="_top" xlink:title="Declares common exception classes and macros for fatal error handling. ">
<polygon fill="white" stroke="black" points="910,-179.5 910,-198.5 1049,-198.5 1049,-179.5 910,-179.5"/>
<text text-anchor="middle" x="979.5" y="-186.5" font-family="Helvetica,sans-Serif" font-size="10.00">gromacs/utility/exceptions.h</text>
</a>
</g>
</g>
<!-- Node1&#45;&gt;Node12 -->
<g id="edge16" class="edge"><title>Node1&#45;&gt;Node12</title>
<path fill="none" stroke="midnightblue" d="M731.211,-239.741C785.124,-228.941 871.699,-211.597 927.064,-200.505"/>
<polygon fill="midnightblue" stroke="midnightblue" points="927.906,-203.906 937.024,-198.51 926.531,-197.042 927.906,-203.906"/>
</g>
<!-- Node21 -->
<g id="node21" class="node"><title>Node21</title>
<g id="a_node21"><a xlink:href="filestream_8h.xhtml" target="_top" xlink:title="Declares implementations for textstream.h interfaces for file input/output. ">
<polygon fill="white" stroke="black" points="75.5,-179.5 75.5,-198.5 209.5,-198.5 209.5,-179.5 75.5,-179.5"/>
<text text-anchor="middle" x="142.5" y="-186.5" font-family="Helvetica,sans-Serif" font-size="10.00">gromacs/utility/filestream.h</text>
</a>
</g>
</g>
<!-- Node1&#45;&gt;Node21 -->
<g id="edge33" class="edge"><title>Node1&#45;&gt;Node21</title>
<path fill="none" stroke="midnightblue" d="M633.717,-244.344C550.968,-235.565 377.525,-217.018 219.985,-199.16"/>
<polygon fill="midnightblue" stroke="midnightblue" points="219.964,-195.635 209.633,-197.985 219.174,-202.59 219.964,-195.635"/>
</g>
<!-- Node23 -->
<g id="node23" class="node"><title>Node23</title>
<g id="a_node23"><a xlink:href="path_8h.xhtml" target="_top" xlink:title="Declares functions for OS&#45;independent path handling. ">
<polygon fill="white" stroke="black" points="559.5,-179.5 559.5,-198.5 669.5,-198.5 669.5,-179.5 559.5,-179.5"/>
<text text-anchor="middle" x="614.5" y="-186.5" font-family="Helvetica,sans-Serif" font-size="10.00">gromacs/utility/path.h</text>
</a>
</g>
</g>
<!-- Node1&#45;&gt;Node23 -->
<g id="edge39" class="edge"><title>Node1&#45;&gt;Node23</title>
<path fill="none" stroke="midnightblue" d="M666.385,-235.399C656.096,-226.397 642.753,-214.721 632.174,-205.465"/>
<polygon fill="midnightblue" stroke="midnightblue" points="634.225,-202.609 624.395,-198.658 629.616,-207.877 634.225,-202.609"/>
</g>
<!-- Node25 -->
<g id="node25" class="node"><title>Node25</title>
<g id="a_node25"><a xlink:href="programcontext_8h.xhtml" target="_top" xlink:title="Declares gmx::IProgramContext and related methods. ">
<polygon fill="white" stroke="black" points="1146,-179.5 1146,-198.5 1305,-198.5 1305,-179.5 1146,-179.5"/>
<text text-anchor="middle" x="1225.5" y="-186.5" font-family="Helvetica,sans-Serif" font-size="10.00">gromacs/utility/programcontext.h</text>
</a>
</g>
</g>
<!-- Node1&#45;&gt;Node25 -->
<g id="edge43" class="edge"><title>Node1&#45;&gt;Node25</title>
<path fill="none" stroke="midnightblue" d="M731.165,-244.167C822.764,-234.13 1021.95,-212.304 1137.57,-199.635"/>
<polygon fill="midnightblue" stroke="midnightblue" points="1138.25,-203.082 1147.81,-198.513 1137.49,-196.123 1138.25,-203.082"/>
</g>
<!-- Node26 -->
<g id="node26" class="node"><title>Node26</title>
<g id="a_node26"><a xlink:href="stringutil_8h.xhtml" target="_top" xlink:title="Declares common string utility and formatting routines. ">
<polygon fill="white" stroke="black" points="687.5,-179.5 687.5,-198.5 815.5,-198.5 815.5,-179.5 687.5,-179.5"/>
<text text-anchor="middle" x="751.5" y="-186.5" font-family="Helvetica,sans-Serif" font-size="10.00">gromacs/utility/stringutil.h</text>
</a>
</g>
</g>
<!-- Node1&#45;&gt;Node26 -->
<g id="edge44" class="edge"><title>Node1&#45;&gt;Node26</title>
<path fill="none" stroke="midnightblue" d="M698.852,-235.399C709.395,-226.308 723.1,-214.49 733.884,-205.191"/>
<polygon fill="midnightblue" stroke="midnightblue" points="736.172,-207.839 741.46,-198.658 731.601,-202.538 736.172,-207.839"/>
</g>
<!-- Node4 -->
<g id="node4" class="node"><title>Node4</title>
<polygon fill="white" stroke="#bfbfbf" points="238,-123.5 238,-142.5 281,-142.5 281,-123.5 238,-123.5"/>
<text text-anchor="middle" x="259.5" y="-130.5" font-family="Helvetica,sans-Serif" font-size="10.00">cstdio</text>
</g>
<!-- Node3&#45;&gt;Node4 -->
<g id="edge3" class="edge"><title>Node3&#45;&gt;Node4</title>
<path fill="none" stroke="midnightblue" d="M266.179,-179.083C265.119,-171.927 263.594,-161.635 262.269,-152.691"/>
<polygon fill="midnightblue" stroke="midnightblue" points="265.724,-152.13 260.796,-142.751 258.8,-153.156 265.724,-152.13"/>
</g>
<!-- Node3&#45;&gt;Node5 -->
<g id="edge4" class="edge"><title>Node3&#45;&gt;Node5</title>
<path fill="none" stroke="midnightblue" d="M305.621,-179.477C341.448,-171.322 396.776,-158.36 453.949,-143.031"/>
<polygon fill="midnightblue" stroke="midnightblue" points="455.144,-146.334 463.886,-140.348 453.319,-139.576 455.144,-146.334"/>
</g>
<!-- Node3&#45;&gt;Node6 -->
<g id="edge5" class="edge"><title>Node3&#45;&gt;Node6</title>
<path fill="none" stroke="midnightblue" d="M307.738,-183.8C390.99,-175.01 579.695,-154.536 643.5,-143 645.004,-142.728 646.539,-142.432 648.086,-142.118"/>
<polygon fill="midnightblue" stroke="midnightblue" points="649.28,-145.438 658.287,-139.859 647.767,-138.604 649.28,-145.438"/>
</g>
<!-- Node7 -->
<g id="node7" class="node"><title>Node7</title>
<g id="a_node7"><a xlink:href="classhelpers_8h.xhtml" target="_top" xlink:title="Declares common utility classes and macros. ">
<polygon fill="white" stroke="black" points="299.5,-123.5 299.5,-142.5 445.5,-142.5 445.5,-123.5 299.5,-123.5"/>
<text text-anchor="middle" x="372.5" y="-130.5" font-family="Helvetica,sans-Serif" font-size="10.00">gromacs/utility/classhelpers.h</text>
</a>
</g>
</g>
<!-- Node3&#45;&gt;Node7 -->
<g id="edge6" class="edge"><title>Node3&#45;&gt;Node7</title>
<path fill="none" stroke="midnightblue" d="M284.37,-179.324C301.209,-170.664 327.307,-157.242 346.738,-147.249"/>
<polygon fill="midnightblue" stroke="midnightblue" points="348.38,-150.341 355.672,-142.655 345.178,-144.116 348.38,-150.341"/>
</g>
<!-- Node8 -->
<g id="node8" class="node"><title>Node8</title>
<polygon fill="white" stroke="#bfbfbf" points="346.5,-62 346.5,-81 398.5,-81 398.5,-62 346.5,-62"/>
<text text-anchor="middle" x="372.5" y="-69" font-family="Helvetica,sans-Serif" font-size="10.00">memory</text>
</g>
<!-- Node7&#45;&gt;Node8 -->
<g id="edge7" class="edge"><title>Node7&#45;&gt;Node8</title>
<path fill="none" stroke="midnightblue" d="M372.5,-123.475C372.5,-115.08 372.5,-101.981 372.5,-91.1631"/>
<polygon fill="midnightblue" stroke="midnightblue" points="376,-91.0091 372.5,-81.0091 369,-91.0091 376,-91.0091"/>
</g>
<!-- Node11&#45;&gt;Node5 -->
<g id="edge13" class="edge"><title>Node11&#45;&gt;Node5</title>
<path fill="none" stroke="midnightblue" d="M457.784,-179.083C462.211,-171.613 468.663,-160.724 474.118,-151.52"/>
<polygon fill="midnightblue" stroke="midnightblue" points="477.227,-153.138 479.314,-142.751 471.205,-149.57 477.227,-153.138"/>
</g>
<!-- Node11&#45;&gt;Node6 -->
<g id="edge14" class="edge"><title>Node11&#45;&gt;Node6</title>
<path fill="none" stroke="midnightblue" d="M489.135,-179.452C527.598,-170.457 589.827,-155.85 643.5,-143 644.987,-142.644 646.507,-142.279 648.042,-141.909"/>
<polygon fill="midnightblue" stroke="midnightblue" points="649.305,-145.205 658.201,-139.452 647.659,-138.401 649.305,-145.205"/>
</g>
<!-- Node11&#45;&gt;Node7 -->
<g id="edge15" class="edge"><title>Node11&#45;&gt;Node7</title>
<path fill="none" stroke="midnightblue" d="M439.647,-179.324C427.284,-170.979 408.37,-158.212 393.763,-148.352"/>
<polygon fill="midnightblue" stroke="midnightblue" points="395.568,-145.348 385.321,-142.655 391.652,-151.15 395.568,-145.348"/>
</g>
<!-- Node12&#45;&gt;Node4 -->
<g id="edge17" class="edge"><title>Node12&#45;&gt;Node4</title>
<path fill="none" stroke="midnightblue" d="M909.802,-183.857C750.341,-174.327 367.414,-151.127 291.313,-142.326"/>
<polygon fill="midnightblue" stroke="midnightblue" points="291.425,-138.808 281.039,-140.902 290.464,-145.742 291.425,-138.808"/>
</g>
<!-- Node12&#45;&gt;Node5 -->
<g id="edge21" class="edge"><title>Node12&#45;&gt;Node5</title>
<path fill="none" stroke="midnightblue" d="M909.89,-180.406C800.784,-168.504 593.882,-145.933 515.578,-137.39"/>
<polygon fill="midnightblue" stroke="midnightblue" points="515.727,-133.886 505.406,-136.281 514.968,-140.845 515.727,-133.886"/>
</g>
<!-- Node12&#45;&gt;Node6 -->
<g id="edge24" class="edge"><title>Node12&#45;&gt;Node6</title>
<path fill="none" stroke="midnightblue" d="M923.326,-179.493C870.131,-171.168 788.112,-157.634 717.5,-143 716.003,-142.69 714.475,-142.362 712.933,-142.023"/>
<polygon fill="midnightblue" stroke="midnightblue" points="713.28,-138.511 702.749,-139.673 711.706,-145.332 713.28,-138.511"/>
</g>
<!-- Node12&#45;&gt;Node7 -->
<g id="edge28" class="edge"><title>Node12&#45;&gt;Node7</title>
<path fill="none" stroke="midnightblue" d="M909.815,-182.558C811.179,-174.737 624.928,-159.535 455.889,-143.116"/>
<polygon fill="midnightblue" stroke="midnightblue" points="456.101,-139.62 445.809,-142.134 455.422,-146.587 456.101,-139.62"/>
</g>
<!-- Node12&#45;&gt;Node8 -->
<g id="edge20" class="edge"><title>Node12&#45;&gt;Node8</title>
<path fill="none" stroke="midnightblue" d="M974.771,-179.387C966.268,-164.855 946.889,-135.801 921.5,-123 831.24,-77.4927 516.199,-72.7014 408.738,-72.4177"/>
<polygon fill="midnightblue" stroke="midnightblue" points="408.714,-68.9177 398.709,-72.403 408.704,-75.9177 408.714,-68.9177"/>
</g>
<!-- Node12&#45;&gt;Node9 -->
<g id="edge18" class="edge"><title>Node12&#45;&gt;Node9</title>
<path fill="none" stroke="midnightblue" d="M953.197,-179.444C924.077,-169.971 877.121,-154.696 845.793,-144.505"/>
<polygon fill="midnightblue" stroke="midnightblue" points="846.805,-141.154 836.213,-141.388 844.639,-147.81 846.805,-141.154"/>
</g>
<!-- Node13 -->
<g id="node13" class="node"><title>Node13</title>
<polygon fill="white" stroke="#bfbfbf" points="1202,-123.5 1202,-142.5 1261,-142.5 1261,-123.5 1202,-123.5"/>
<text text-anchor="middle" x="1231.5" y="-130.5" font-family="Helvetica,sans-Serif" font-size="10.00">exception</text>
</g>
<!-- Node12&#45;&gt;Node13 -->
<g id="edge19" class="edge"><title>Node12&#45;&gt;Node13</title>
<path fill="none" stroke="midnightblue" d="M1019.43,-179.444C1066.75,-169.303 1145.1,-152.514 1192.16,-142.429"/>
<polygon fill="midnightblue" stroke="midnightblue" points="1192.95,-145.841 1201.99,-140.323 1191.48,-138.996 1192.95,-145.841"/>
</g>
<!-- Node14 -->
<g id="node14" class="node"><title>Node14</title>
<polygon fill="white" stroke="#bfbfbf" points="1279.5,-123.5 1279.5,-142.5 1341.5,-142.5 1341.5,-123.5 1279.5,-123.5"/>
<text text-anchor="middle" x="1310.5" y="-130.5" font-family="Helvetica,sans-Serif" font-size="10.00">type_traits</text>
</g>
<!-- Node12&#45;&gt;Node14 -->
<g id="edge22" class="edge"><title>Node12&#45;&gt;Node14</title>
<path fill="none" stroke="midnightblue" d="M1042.72,-179.486C1099.56,-171.544 1185.54,-158.823 1269.18,-143.152"/>
<polygon fill="midnightblue" stroke="midnightblue" points="1269.92,-146.573 1279.1,-141.277 1268.62,-139.695 1269.92,-146.573"/>
</g>
<!-- Node15 -->
<g id="node15" class="node"><title>Node15</title>
<polygon fill="white" stroke="#bfbfbf" points="854,-123.5 854,-142.5 913,-142.5 913,-123.5 854,-123.5"/>
<text text-anchor="middle" x="883.5" y="-130.5" font-family="Helvetica,sans-Serif" font-size="10.00">typeindex</text>
</g>
<!-- Node12&#45;&gt;Node15 -->
<g id="edge23" class="edge"><title>Node12&#45;&gt;Node15</title>
<path fill="none" stroke="midnightblue" d="M964.076,-179.324C948.96,-170.822 925.685,-157.729 908.029,-147.797"/>
<polygon fill="midnightblue" stroke="midnightblue" points="909.317,-144.507 898.886,-142.655 905.886,-150.608 909.317,-144.507"/>
</g>
<!-- Node16 -->
<g id="node16" class="node"><title>Node16</title>
<g id="a_node16"><a xlink:href="basedefinitions_8h.xhtml" target="_top" xlink:title="Basic types and macros used throughout GROMACS. ">
<polygon fill="white" stroke="black" points="911,-62 911,-81 1068,-81 1068,-62 911,-62"/>
<text text-anchor="middle" x="989.5" y="-69" font-family="Helvetica,sans-Serif" font-size="10.00">gromacs/utility/basedefinitions.h</text>
</a>
</g>
</g>
<!-- Node12&#45;&gt;Node16 -->
<g id="edge25" class="edge"><title>Node12&#45;&gt;Node16</title>
<path fill="none" stroke="midnightblue" d="M980.252,-179.319C981.859,-160.757 985.661,-116.839 987.857,-91.4734"/>
<polygon fill="midnightblue" stroke="midnightblue" points="991.364,-91.5467 988.74,-81.282 984.39,-90.9428 991.364,-91.5467"/>
</g>
<!-- Node19 -->
<g id="node19" class="node"><title>Node19</title>
<g id="a_node19"><a xlink:href="current__function_8h.xhtml" target="_top" xlink:title="Declares GMX_CURRENT_FUNCTION for getting the current function name. ">
<polygon fill="white" stroke="black" points="1106,-56.5 1106,-86.5 1219,-86.5 1219,-56.5 1106,-56.5"/>
<text text-anchor="start" x="1114" y="-74.5" font-family="Helvetica,sans-Serif" font-size="10.00">gromacs/utility/current</text>
<text text-anchor="middle" x="1162.5" y="-63.5" font-family="Helvetica,sans-Serif" font-size="10.00">_function.h</text>
</a>
</g>
</g>
<!-- Node12&#45;&gt;Node19 -->
<g id="edge29" class="edge"><title>Node12&#45;&gt;Node19</title>
<path fill="none" stroke="midnightblue" d="M1042.17,-179.481C1086.16,-172.148 1139.67,-160.039 1154.5,-143 1165.37,-130.512 1167.03,-111.708 1166.16,-96.6603"/>
<polygon fill="midnightblue" stroke="midnightblue" points="1169.62,-96.1248 1165.17,-86.511 1162.65,-96.8032 1169.62,-96.1248"/>
</g>
<!-- Node20 -->
<g id="node20" class="node"><title>Node20</title>
<g id="a_node20"><a xlink:href="gmxassert_8h.xhtml" target="_top" xlink:title="Defines assert macros customized for Gromacs. ">
<polygon fill="white" stroke="black" points="1008,-123.5 1008,-142.5 1145,-142.5 1145,-123.5 1008,-123.5"/>
<text text-anchor="middle" x="1076.5" y="-130.5" font-family="Helvetica,sans-Serif" font-size="10.00">gromacs/utility/gmxassert.h</text>
</a>
</g>
</g>
<!-- Node12&#45;&gt;Node20 -->
<g id="edge30" class="edge"><title>Node12&#45;&gt;Node20</title>
<path fill="none" stroke="midnightblue" d="M995.085,-179.324C1010.5,-170.743 1034.31,-157.486 1052.21,-147.522"/>
<polygon fill="midnightblue" stroke="midnightblue" points="1053.92,-150.577 1060.95,-142.655 1050.51,-144.461 1053.92,-150.577"/>
</g>
<!-- Node17 -->
<g id="node17" class="node"><title>Node17</title>
<polygon fill="white" stroke="#bfbfbf" points="929,-0.5 929,-19.5 978,-19.5 978,-0.5 929,-0.5"/>
<text text-anchor="middle" x="953.5" y="-7.5" font-family="Helvetica,sans-Serif" font-size="10.00">stdint.h</text>
</g>
<!-- Node16&#45;&gt;Node17 -->
<g id="edge26" class="edge"><title>Node16&#45;&gt;Node17</title>
<path fill="none" stroke="midnightblue" d="M984.342,-61.9751C979.049,-53.2268 970.665,-39.3691 963.973,-28.3093"/>
<polygon fill="midnightblue" stroke="midnightblue" points="966.82,-26.2531 958.648,-19.5091 960.83,-29.8768 966.82,-26.2531"/>
</g>
<!-- Node18 -->
<g id="node18" class="node"><title>Node18</title>
<polygon fill="white" stroke="#bfbfbf" points="996,-0.5 996,-19.5 1055,-19.5 1055,-0.5 996,-0.5"/>
<text text-anchor="middle" x="1025.5" y="-7.5" font-family="Helvetica,sans-Serif" font-size="10.00">inttypes.h</text>
</g>
<!-- Node16&#45;&gt;Node18 -->
<g id="edge27" class="edge"><title>Node16&#45;&gt;Node18</title>
<path fill="none" stroke="midnightblue" d="M994.658,-61.9751C999.951,-53.2268 1008.34,-39.3691 1015.03,-28.3093"/>
<polygon fill="midnightblue" stroke="midnightblue" points="1018.17,-29.8768 1020.35,-19.5091 1012.18,-26.2531 1018.17,-29.8768"/>
</g>
<!-- Node20&#45;&gt;Node16 -->
<g id="edge31" class="edge"><title>Node20&#45;&gt;Node16</title>
<path fill="none" stroke="midnightblue" d="M1064.04,-123.475C1050.08,-113.931 1027.24,-98.3073 1010.51,-86.8683"/>
<polygon fill="midnightblue" stroke="midnightblue" points="1012.17,-83.7653 1001.94,-81.0091 1008.22,-89.5433 1012.17,-83.7653"/>
</g>
<!-- Node20&#45;&gt;Node19 -->
<g id="edge32" class="edge"><title>Node20&#45;&gt;Node19</title>
<path fill="none" stroke="midnightblue" d="M1088.82,-123.475C1100.47,-115.417 1118.38,-103.023 1133.63,-92.4741"/>
<polygon fill="midnightblue" stroke="midnightblue" points="1136,-95.0909 1142.23,-86.523 1132.02,-89.3343 1136,-95.0909"/>
</g>
<!-- Node21&#45;&gt;Node4 -->
<g id="edge34" class="edge"><title>Node21&#45;&gt;Node4</title>
<path fill="none" stroke="midnightblue" d="M161.039,-179.444C180.123,-170.636 210.075,-156.812 231.936,-146.722"/>
<polygon fill="midnightblue" stroke="midnightblue" points="233.435,-149.885 241.048,-142.516 230.501,-143.529 233.435,-149.885"/>
</g>
<!-- Node21&#45;&gt;Node5 -->
<g id="edge35" class="edge"><title>Node21&#45;&gt;Node5</title>
<path fill="none" stroke="midnightblue" d="M209.779,-179.485C282.736,-170.053 395.523,-154.848 454.02,-142.747"/>
<polygon fill="midnightblue" stroke="midnightblue" points="454.913,-146.135 463.949,-140.603 453.435,-139.293 454.913,-146.135"/>
</g>
<!-- Node21&#45;&gt;Node7 -->
<g id="edge36" class="edge"><title>Node21&#45;&gt;Node7</title>
<path fill="none" stroke="midnightblue" d="M178.944,-179.444C218.899,-170.063 283.087,-154.993 326.485,-144.804"/>
<polygon fill="midnightblue" stroke="midnightblue" points="327.291,-148.21 336.226,-142.516 325.691,-141.395 327.291,-148.21"/>
</g>
<!-- Node22 -->
<g id="node22" class="node"><title>Node22</title>
<g id="a_node22"><a xlink:href="textstream_8h.xhtml" target="_top" xlink:title="Declares interfaces for simple input/output streams. ">
<polygon fill="white" stroke="black" points="77.5,-123.5 77.5,-142.5 215.5,-142.5 215.5,-123.5 77.5,-123.5"/>
<text text-anchor="middle" x="146.5" y="-130.5" font-family="Helvetica,sans-Serif" font-size="10.00">gromacs/utility/textstream.h</text>
</a>
</g>
</g>
<!-- Node21&#45;&gt;Node22 -->
<g id="edge37" class="edge"><title>Node21&#45;&gt;Node22</title>
<path fill="none" stroke="midnightblue" d="M143.161,-179.083C143.685,-172.006 144.436,-161.861 145.094,-152.986"/>
<polygon fill="midnightblue" stroke="midnightblue" points="148.603,-152.982 145.852,-142.751 141.623,-152.465 148.603,-152.982"/>
</g>
<!-- Node22&#45;&gt;Node8 -->
<g id="edge38" class="edge"><title>Node22&#45;&gt;Node8</title>
<path fill="none" stroke="midnightblue" d="M178.88,-123.475C220.575,-112.498 292.826,-93.4762 336.296,-82.0316"/>
<polygon fill="midnightblue" stroke="midnightblue" points="337.386,-85.3639 346.166,-79.4332 335.604,-78.5946 337.386,-85.3639"/>
</g>
<!-- Node23&#45;&gt;Node5 -->
<g id="edge40" class="edge"><title>Node23&#45;&gt;Node5</title>
<path fill="none" stroke="midnightblue" d="M593.901,-179.444C572.507,-170.557 538.819,-156.563 514.476,-146.451"/>
<polygon fill="midnightblue" stroke="midnightblue" points="515.58,-143.12 505.003,-142.516 512.895,-149.585 515.58,-143.12"/>
</g>
<!-- Node23&#45;&gt;Node6 -->
<g id="edge42" class="edge"><title>Node23&#45;&gt;Node6</title>
<path fill="none" stroke="midnightblue" d="M625.104,-179.324C634.956,-171.263 649.851,-159.077 661.715,-149.369"/>
<polygon fill="midnightblue" stroke="midnightblue" points="664.18,-151.875 669.703,-142.834 659.747,-146.457 664.18,-151.875"/>
</g>
<!-- Node24 -->
<g id="node24" class="node"><title>Node24</title>
<polygon fill="white" stroke="#bfbfbf" points="594.5,-123.5 594.5,-142.5 634.5,-142.5 634.5,-123.5 594.5,-123.5"/>
<text text-anchor="middle" x="614.5" y="-130.5" font-family="Helvetica,sans-Serif" font-size="10.00">utility</text>
</g>
<!-- Node23&#45;&gt;Node24 -->
<g id="edge41" class="edge"><title>Node23&#45;&gt;Node24</title>
<path fill="none" stroke="midnightblue" d="M614.5,-179.083C614.5,-172.006 614.5,-161.861 614.5,-152.986"/>
<polygon fill="midnightblue" stroke="midnightblue" points="618,-152.751 614.5,-142.751 611,-152.751 618,-152.751"/>
</g>
<!-- Node26&#45;&gt;Node5 -->
<g id="edge46" class="edge"><title>Node26&#45;&gt;Node5</title>
<path fill="none" stroke="midnightblue" d="M709.193,-179.444C655.194,-168.522 563.066,-149.89 515.283,-140.226"/>
<polygon fill="midnightblue" stroke="midnightblue" points="515.734,-136.746 505.238,-138.194 514.346,-143.607 515.734,-136.746"/>
</g>
<!-- Node26&#45;&gt;Node6 -->
<g id="edge47" class="edge"><title>Node26&#45;&gt;Node6</title>
<path fill="none" stroke="midnightblue" d="M740.093,-179.324C729.391,-171.185 713.159,-158.839 700.337,-149.087"/>
<polygon fill="midnightblue" stroke="midnightblue" points="702.193,-146.102 692.115,-142.834 697.956,-151.673 702.193,-146.102"/>
</g>
<!-- Node27 -->
<g id="node27" class="node"><title>Node27</title>
<polygon fill="white" stroke="#bfbfbf" points="726.5,-123.5 726.5,-142.5 772.5,-142.5 772.5,-123.5 726.5,-123.5"/>
<text text-anchor="middle" x="749.5" y="-130.5" font-family="Helvetica,sans-Serif" font-size="10.00">cstring</text>
</g>
<!-- Node26&#45;&gt;Node27 -->
<g id="edge45" class="edge"><title>Node26&#45;&gt;Node27</title>
<path fill="none" stroke="midnightblue" d="M751.17,-179.083C750.908,-172.006 750.532,-161.861 750.203,-152.986"/>
<polygon fill="midnightblue" stroke="midnightblue" points="753.692,-152.615 749.824,-142.751 746.697,-152.874 753.692,-152.615"/>
</g>
</g>
</svg>
