<?xml version="1.0" encoding="UTF-8" standalone="no"?>
<!DOCTYPE svg PUBLIC "-//W3C//DTD SVG 1.1//EN"
 "http://www.w3.org/Graphics/SVG/1.1/DTD/svg11.dtd">
<!-- Generated by graphviz version 2.38.0 (20140413.2041)
 -->
<!-- Title: src/gromacs/analysisdata/datamodule.h Pages: 1 -->
<svg width="3412pt" height="296pt"
 viewBox="0.00 0.00 3411.50 296.00" xmlns="http://www.w3.org/2000/svg" xmlns:xlink="http://www.w3.org/1999/xlink">
<g id="graph0" class="graph" transform="scale(1 1) rotate(0) translate(4 292)">
<title>src/gromacs/analysisdata/datamodule.h</title>
<polygon fill="white" stroke="none" points="-4,4 -4,-292 3407.5,-292 3407.5,4 -4,4"/>
<!-- Node1 -->
<g id="node1" class="node"><title>Node1</title>
<polygon fill="#bfbfbf" stroke="black" points="897,-257.5 897,-287.5 1025,-287.5 1025,-257.5 897,-257.5"/>
<text text-anchor="start" x="905" y="-275.5" font-family="Helvetica,sans-Serif" font-size="10.00">src/gromacs/analysisdata</text>
<text text-anchor="middle" x="961" y="-264.5" font-family="Helvetica,sans-Serif" font-size="10.00">/datamodule.h</text>
</g>
<!-- Node2 -->
<g id="node2" class="node"><title>Node2</title>
<g id="a_node2"><a xlink:href="abstractdata_8cpp.xhtml" target="_top" xlink:title="Implements gmx::AbstractAnalysisData. ">
<polygon fill="white" stroke="black" points="0,-123.5 0,-153.5 128,-153.5 128,-123.5 0,-123.5"/>
<text text-anchor="start" x="8" y="-141.5" font-family="Helvetica,sans-Serif" font-size="10.00">src/gromacs/analysisdata</text>
<text text-anchor="middle" x="64" y="-130.5" font-family="Helvetica,sans-Serif" font-size="10.00">/abstractdata.cpp</text>
</a>
</g>
</g>
<!-- Node1&#45;&gt;Node2 -->
<g id="edge1" class="edge"><title>Node1&#45;&gt;Node2</title>
<path fill="none" stroke="midnightblue" d="M886.813,-270.158C696.91,-266.272 203.465,-253.171 137,-221 106.737,-206.352 83.4249,-172.999 71.9189,-153.809"/>
<polygon fill="midnightblue" stroke="midnightblue" points="886.914,-273.661 896.982,-270.363 887.055,-266.662 886.914,-273.661"/>
</g>
<!-- Node3 -->
<g id="node3" class="node"><title>Node3</title>
<g id="a_node3"><a xlink:href="dataproxy_8h.xhtml" target="_top" xlink:title="Declares gmx::AnalysisDataProxy. ">
<polygon fill="white" stroke="black" points="146,-190.5 146,-220.5 274,-220.5 274,-190.5 146,-190.5"/>
<text text-anchor="start" x="154" y="-208.5" font-family="Helvetica,sans-Serif" font-size="10.00">src/gromacs/analysisdata</text>
<text text-anchor="middle" x="210" y="-197.5" font-family="Helvetica,sans-Serif" font-size="10.00">/dataproxy.h</text>
</a>
</g>
</g>
<!-- Node1&#45;&gt;Node3 -->
<g id="edge2" class="edge"><title>Node1&#45;&gt;Node3</title>
<path fill="none" stroke="midnightblue" d="M886.68,-265.068C739.385,-252.319 412.701,-224.044 274.134,-212.051"/>
<polygon fill="midnightblue" stroke="midnightblue" points="886.706,-268.583 896.97,-265.958 887.309,-261.609 886.706,-268.583"/>
</g>
<!-- Node5 -->
<g id="node5" class="node"><title>Node5</title>
<g id="a_node5"><a xlink:href="datamodule_8cpp.xhtml" target="_top" xlink:title="Implements classes from datamodule.h. ">
<polygon fill="white" stroke="black" points="459,-190.5 459,-220.5 587,-220.5 587,-190.5 459,-190.5"/>
<text text-anchor="start" x="467" y="-208.5" font-family="Helvetica,sans-Serif" font-size="10.00">src/gromacs/analysisdata</text>
<text text-anchor="middle" x="523" y="-197.5" font-family="Helvetica,sans-Serif" font-size="10.00">/datamodule.cpp</text>
</a>
</g>
</g>
<!-- Node1&#45;&gt;Node5 -->
<g id="edge5" class="edge"><title>Node1&#45;&gt;Node5</title>
<path fill="none" stroke="midnightblue" d="M886.733,-262.52C812.843,-253.281 696.317,-237.888 596,-221 593.069,-220.507 590.076,-219.985 587.055,-219.444"/>
<polygon fill="midnightblue" stroke="midnightblue" points="886.514,-266.02 896.87,-263.782 887.379,-259.073 886.514,-266.02"/>
</g>
<!-- Node6 -->
<g id="node6" class="node"><title>Node6</title>
<g id="a_node6"><a xlink:href="datamodulemanager_8cpp.xhtml" target="_top" xlink:title="Implements gmx::AnalysisDataModuleManager. ">
<polygon fill="white" stroke="black" points="605,-190.5 605,-220.5 733,-220.5 733,-190.5 605,-190.5"/>
<text text-anchor="start" x="613" y="-208.5" font-family="Helvetica,sans-Serif" font-size="10.00">src/gromacs/analysisdata</text>
<text text-anchor="middle" x="669" y="-197.5" font-family="Helvetica,sans-Serif" font-size="10.00">/datamodulemanager.cpp</text>
</a>
</g>
</g>
<!-- Node1&#45;&gt;Node6 -->
<g id="edge6" class="edge"><title>Node1&#45;&gt;Node6</title>
<path fill="none" stroke="midnightblue" d="M887.994,-255.249C840.045,-244.575 777.955,-230.754 732.139,-220.555"/>
<polygon fill="midnightblue" stroke="midnightblue" points="887.478,-258.719 898,-257.476 888.999,-251.887 887.478,-258.719"/>
</g>
<!-- Node7 -->
<g id="node7" class="node"><title>Node7</title>
<g id="a_node7"><a xlink:href="average_8h.xhtml" target="_top" xlink:title="Declares gmx::AnalysisDataAverageModule. ">
<polygon fill="white" stroke="black" points="1319,-190.5 1319,-220.5 1447,-220.5 1447,-190.5 1319,-190.5"/>
<text text-anchor="start" x="1327" y="-208.5" font-family="Helvetica,sans-Serif" font-size="10.00">src/gromacs/analysisdata</text>
<text text-anchor="middle" x="1383" y="-197.5" font-family="Helvetica,sans-Serif" font-size="10.00">/modules/average.h</text>
</a>
</g>
</g>
<!-- Node1&#45;&gt;Node7 -->
<g id="edge7" class="edge"><title>Node1&#45;&gt;Node7</title>
<path fill="none" stroke="midnightblue" d="M1035.15,-260.078C1115.61,-247.686 1242.75,-228.102 1319,-216.358"/>
<polygon fill="midnightblue" stroke="midnightblue" points="1034.44,-256.646 1025.09,-261.628 1035.51,-263.565 1034.44,-256.646"/>
</g>
<!-- Node18 -->
<g id="node18" class="node"><title>Node18</title>
<g id="a_node18"><a xlink:href="modules_2select_8cpp.xhtml" target="_top" xlink:title="Implements gmx::analysismodules::Select. ">
<polygon fill="white" stroke="black" points="2508,-123.5 2508,-153.5 2658,-153.5 2658,-123.5 2508,-123.5"/>
<text text-anchor="start" x="2516" y="-141.5" font-family="Helvetica,sans-Serif" font-size="10.00">src/gromacs/trajectoryanalysis</text>
<text text-anchor="middle" x="2583" y="-130.5" font-family="Helvetica,sans-Serif" font-size="10.00">/modules/select.cpp</text>
</a>
</g>
</g>
<!-- Node1&#45;&gt;Node18 -->
<g id="edge52" class="edge"><title>Node1&#45;&gt;Node18</title>
<path fill="none" stroke="midnightblue" d="M1035.28,-268.973C1258,-260.722 1939.43,-230.56 2499,-154 2501.93,-153.599 2504.92,-153.172 2507.93,-152.725"/>
<polygon fill="midnightblue" stroke="midnightblue" points="1034.88,-265.485 1025.02,-269.35 1035.14,-272.48 1034.88,-265.485"/>
</g>
<!-- Node19 -->
<g id="node19" class="node"><title>Node19</title>
<g id="a_node19"><a xlink:href="displacement_8h.xhtml" target="_top" xlink:title="Declares gmx::AnalysisDataDisplacementModule. ">
<polygon fill="white" stroke="black" points="751,-190.5 751,-220.5 879,-220.5 879,-190.5 751,-190.5"/>
<text text-anchor="start" x="759" y="-208.5" font-family="Helvetica,sans-Serif" font-size="10.00">src/gromacs/analysisdata</text>
<text text-anchor="middle" x="815" y="-197.5" font-family="Helvetica,sans-Serif" font-size="10.00">/modules/displacement.h</text>
</a>
</g>
</g>
<!-- Node1&#45;&gt;Node19 -->
<g id="edge19" class="edge"><title>Node1&#45;&gt;Node19</title>
<path fill="none" stroke="midnightblue" d="M920.05,-253.269C896.796,-242.916 868.128,-230.153 846.618,-220.577"/>
<polygon fill="midnightblue" stroke="midnightblue" points="918.761,-256.526 929.32,-257.396 921.608,-250.131 918.761,-256.526"/>
</g>
<!-- Node21 -->
<g id="node21" class="node"><title>Node21</title>
<g id="a_node21"><a xlink:href="histogram_8h.xhtml" target="_top" xlink:title="Declares analysis data modules for calculating histograms. ">
<polygon fill="white" stroke="black" points="897,-190.5 897,-220.5 1025,-220.5 1025,-190.5 897,-190.5"/>
<text text-anchor="start" x="905" y="-208.5" font-family="Helvetica,sans-Serif" font-size="10.00">src/gromacs/analysisdata</text>
<text text-anchor="middle" x="961" y="-197.5" font-family="Helvetica,sans-Serif" font-size="10.00">/modules/histogram.h</text>
</a>
</g>
</g>
<!-- Node1&#45;&gt;Node21 -->
<g id="edge22" class="edge"><title>Node1&#45;&gt;Node21</title>
<path fill="none" stroke="midnightblue" d="M961,-247.108C961,-238.154 961,-228.323 961,-220.577"/>
<polygon fill="midnightblue" stroke="midnightblue" points="957.5,-247.396 961,-257.396 964.5,-247.396 957.5,-247.396"/>
</g>
<!-- Node24 -->
<g id="node24" class="node"><title>Node24</title>
<g id="a_node24"><a xlink:href="lifetime_8h.xhtml" target="_top" xlink:title="Declares gmx::AnalysisDataLifetimeModule. ">
<polygon fill="white" stroke="black" points="2519,-190.5 2519,-220.5 2647,-220.5 2647,-190.5 2519,-190.5"/>
<text text-anchor="start" x="2527" y="-208.5" font-family="Helvetica,sans-Serif" font-size="10.00">src/gromacs/analysisdata</text>
<text text-anchor="middle" x="2583" y="-197.5" font-family="Helvetica,sans-Serif" font-size="10.00">/modules/lifetime.h</text>
</a>
</g>
</g>
<!-- Node1&#45;&gt;Node24 -->
<g id="edge30" class="edge"><title>Node1&#45;&gt;Node24</title>
<path fill="none" stroke="midnightblue" d="M1035.32,-268.522C1309.49,-257.535 2261.53,-219.382 2518.6,-209.081"/>
<polygon fill="midnightblue" stroke="midnightblue" points="1034.94,-265.034 1025.08,-268.932 1035.22,-272.029 1034.94,-265.034"/>
</g>
<!-- Node27 -->
<g id="node27" class="node"><title>Node27</title>
<g id="a_node27"><a xlink:href="plot_8h.xhtml" target="_top" xlink:title="Declares gmx::AnalysisDataPlotModule for plotting data (into a file). ">
<polygon fill="white" stroke="black" points="1701,-190.5 1701,-220.5 1829,-220.5 1829,-190.5 1701,-190.5"/>
<text text-anchor="start" x="1709" y="-208.5" font-family="Helvetica,sans-Serif" font-size="10.00">src/gromacs/analysisdata</text>
<text text-anchor="middle" x="1765" y="-197.5" font-family="Helvetica,sans-Serif" font-size="10.00">/modules/plot.h</text>
</a>
</g>
</g>
<!-- Node1&#45;&gt;Node27 -->
<g id="edge35" class="edge"><title>Node1&#45;&gt;Node27</title>
<path fill="none" stroke="midnightblue" d="M1035.1,-265.509C1191.57,-252.859 1553.34,-223.612 1700.75,-211.695"/>
<polygon fill="midnightblue" stroke="midnightblue" points="1034.78,-262.023 1025.1,-266.318 1035.35,-269.001 1034.78,-262.023"/>
</g>
<!-- Node33 -->
<g id="node33" class="node"><title>Node33</title>
<g id="a_node33"><a xlink:href="mock__datamodule_8h.xhtml" target="_top" xlink:title="Declares mock implementation of gmx::IAnalysisDataModule. ">
<polygon fill="white" stroke="black" points="3039,-190.5 3039,-220.5 3171,-220.5 3171,-190.5 3039,-190.5"/>
<text text-anchor="start" x="3047" y="-208.5" font-family="Helvetica,sans-Serif" font-size="10.00">src/gromacs/analysisdata</text>
<text text-anchor="middle" x="3105" y="-197.5" font-family="Helvetica,sans-Serif" font-size="10.00">/tests/mock_datamodule.h</text>
</a>
</g>
</g>
<!-- Node1&#45;&gt;Node33 -->
<g id="edge48" class="edge"><title>Node1&#45;&gt;Node33</title>
<path fill="none" stroke="midnightblue" d="M1035.49,-269.347C1272.33,-262.488 2029.35,-240.454 2656,-221 2792.03,-216.777 2951.23,-211.574 3038.81,-208.689"/>
<polygon fill="midnightblue" stroke="midnightblue" points="1035.17,-265.855 1025.27,-269.643 1035.37,-272.852 1035.17,-265.855"/>
</g>
<!-- Node3&#45;&gt;Node2 -->
<g id="edge3" class="edge"><title>Node3&#45;&gt;Node2</title>
<path fill="none" stroke="midnightblue" d="M169.05,-186.269C145.796,-175.916 117.128,-163.153 95.618,-153.577"/>
<polygon fill="midnightblue" stroke="midnightblue" points="167.761,-189.526 178.32,-190.396 170.608,-183.131 167.761,-189.526"/>
</g>
<!-- Node4 -->
<g id="node4" class="node"><title>Node4</title>
<g id="a_node4"><a xlink:href="dataproxy_8cpp.xhtml" target="_top" xlink:title="Implements gmx::AnalysisDataProxy. ">
<polygon fill="white" stroke="black" points="146,-123.5 146,-153.5 274,-153.5 274,-123.5 146,-123.5"/>
<text text-anchor="start" x="154" y="-141.5" font-family="Helvetica,sans-Serif" font-size="10.00">src/gromacs/analysisdata</text>
<text text-anchor="middle" x="210" y="-130.5" font-family="Helvetica,sans-Serif" font-size="10.00">/dataproxy.cpp</text>
</a>
</g>
</g>
<!-- Node3&#45;&gt;Node4 -->
<g id="edge4" class="edge"><title>Node3&#45;&gt;Node4</title>
<path fill="none" stroke="midnightblue" d="M210,-180.108C210,-171.154 210,-161.323 210,-153.577"/>
<polygon fill="midnightblue" stroke="midnightblue" points="206.5,-180.396 210,-190.396 213.5,-180.396 206.5,-180.396"/>
</g>
<!-- Node8 -->
<g id="node8" class="node"><title>Node8</title>
<g id="a_node8"><a xlink:href="modules_2average_8cpp.xhtml" target="_top" xlink:title="Implements gmx::AnalysisDataAverageModule. ">
<polygon fill="white" stroke="black" points="1544,-123.5 1544,-153.5 1672,-153.5 1672,-123.5 1544,-123.5"/>
<text text-anchor="start" x="1552" y="-141.5" font-family="Helvetica,sans-Serif" font-size="10.00">src/gromacs/analysisdata</text>
<text text-anchor="middle" x="1608" y="-130.5" font-family="Helvetica,sans-Serif" font-size="10.00">/modules/average.cpp</text>
</a>
</g>
</g>
<!-- Node7&#45;&gt;Node8 -->
<g id="edge8" class="edge"><title>Node7&#45;&gt;Node8</title>
<path fill="none" stroke="midnightblue" d="M1441.57,-187.58C1478.11,-177.022 1524.6,-163.592 1559.15,-153.611"/>
<polygon fill="midnightblue" stroke="midnightblue" points="1440.18,-184.338 1431.54,-190.476 1442.12,-191.063 1440.18,-184.338"/>
</g>
<!-- Node9 -->
<g id="node9" class="node"><title>Node9</title>
<g id="a_node9"><a xlink:href="tests_2average_8cpp.xhtml" target="_top" xlink:title="Tests for functionality of analysis data averaging modules. ">
<polygon fill="white" stroke="black" points="1398,-123.5 1398,-153.5 1526,-153.5 1526,-123.5 1398,-123.5"/>
<text text-anchor="start" x="1406" y="-141.5" font-family="Helvetica,sans-Serif" font-size="10.00">src/gromacs/analysisdata</text>
<text text-anchor="middle" x="1462" y="-130.5" font-family="Helvetica,sans-Serif" font-size="10.00">/tests/average.cpp</text>
</a>
</g>
</g>
<!-- Node7&#45;&gt;Node9 -->
<g id="edge9" class="edge"><title>Node7&#45;&gt;Node9</title>
<path fill="none" stroke="midnightblue" d="M1408.06,-183.883C1420.06,-174.005 1434.13,-162.429 1444.89,-153.577"/>
<polygon fill="midnightblue" stroke="midnightblue" points="1405.64,-181.34 1400.14,-190.396 1410.09,-186.745 1405.64,-181.34"/>
</g>
<!-- Node10 -->
<g id="node10" class="node"><title>Node10</title>
<g id="a_node10"><a xlink:href="analysisdata_8h.xhtml" target="_top" xlink:title="Public API convenience header for analysis data handling. ">
<polygon fill="white" stroke="black" points="738.5,-129 738.5,-148 875.5,-148 875.5,-129 738.5,-129"/>
<text text-anchor="middle" x="807" y="-136" font-family="Helvetica,sans-Serif" font-size="10.00">src/gromacs/analysisdata.h</text>
</a>
</g>
</g>
<!-- Node7&#45;&gt;Node10 -->
<g id="edge10" class="edge"><title>Node7&#45;&gt;Node10</title>
<path fill="none" stroke="midnightblue" d="M1308.67,-198.894C1211.13,-191.096 1034.75,-175.475 885,-154 873.411,-152.338 860.919,-150.181 849.401,-148.041"/>
<polygon fill="midnightblue" stroke="midnightblue" points="1308.48,-202.39 1318.72,-199.692 1309.03,-195.412 1308.48,-202.39"/>
</g>
<!-- Node13 -->
<g id="node13" class="node"><title>Node13</title>
<g id="a_node13"><a xlink:href="modules_2angle_8cpp.xhtml" target="_top" xlink:title="Implements gmx::analysismodules::Angle. ">
<polygon fill="white" stroke="black" points="894,-123.5 894,-153.5 1044,-153.5 1044,-123.5 894,-123.5"/>
<text text-anchor="start" x="902" y="-141.5" font-family="Helvetica,sans-Serif" font-size="10.00">src/gromacs/trajectoryanalysis</text>
<text text-anchor="middle" x="969" y="-130.5" font-family="Helvetica,sans-Serif" font-size="10.00">/modules/angle.cpp</text>
</a>
</g>
</g>
<!-- Node7&#45;&gt;Node13 -->
<g id="edge13" class="edge"><title>Node7&#45;&gt;Node13</title>
<path fill="none" stroke="midnightblue" d="M1308.72,-193.547C1241.8,-183.58 1140.74,-168.285 1053,-154 1050.08,-153.524 1047.1,-153.035 1044.09,-152.536"/>
<polygon fill="midnightblue" stroke="midnightblue" points="1308.35,-197.03 1318.75,-195.039 1309.38,-190.106 1308.35,-197.03"/>
</g>
<!-- Node14 -->
<g id="node14" class="node"><title>Node14</title>
<g id="a_node14"><a xlink:href="modules_2distance_8cpp.xhtml" target="_top" xlink:title="Implements gmx::analysismodules::Distance. ">
<polygon fill="white" stroke="black" points="1062,-123.5 1062,-153.5 1212,-153.5 1212,-123.5 1062,-123.5"/>
<text text-anchor="start" x="1070" y="-141.5" font-family="Helvetica,sans-Serif" font-size="10.00">src/gromacs/trajectoryanalysis</text>
<text text-anchor="middle" x="1137" y="-130.5" font-family="Helvetica,sans-Serif" font-size="10.00">/modules/distance.cpp</text>
</a>
</g>
</g>
<!-- Node7&#45;&gt;Node14 -->
<g id="edge14" class="edge"><title>Node7&#45;&gt;Node14</title>
<path fill="none" stroke="midnightblue" d="M1320.24,-187.917C1280.1,-177.31 1228.58,-163.699 1190.4,-153.611"/>
<polygon fill="midnightblue" stroke="midnightblue" points="1319.36,-191.305 1329.92,-190.476 1321.15,-184.537 1319.36,-191.305"/>
</g>
<!-- Node15 -->
<g id="node15" class="node"><title>Node15</title>
<g id="a_node15"><a xlink:href="modules_2freevolume_8cpp.xhtml" target="_top" xlink:title="Implements gmx::analysismodules::Freevolume. ">
<polygon fill="white" stroke="black" points="1690,-123.5 1690,-153.5 1840,-153.5 1840,-123.5 1690,-123.5"/>
<text text-anchor="start" x="1698" y="-141.5" font-family="Helvetica,sans-Serif" font-size="10.00">src/gromacs/trajectoryanalysis</text>
<text text-anchor="middle" x="1765" y="-130.5" font-family="Helvetica,sans-Serif" font-size="10.00">/modules/freevolume.cpp</text>
</a>
</g>
</g>
<!-- Node7&#45;&gt;Node15 -->
<g id="edge15" class="edge"><title>Node7&#45;&gt;Node15</title>
<path fill="none" stroke="midnightblue" d="M1457.43,-191.952C1517.72,-181.772 1604.85,-167.025 1681,-154 1683.92,-153.501 1686.89,-152.991 1689.9,-152.476"/>
<polygon fill="midnightblue" stroke="midnightblue" points="1456.52,-188.556 1447.24,-193.671 1457.69,-195.458 1456.52,-188.556"/>
</g>
<!-- Node16 -->
<g id="node16" class="node"><title>Node16</title>
<g id="a_node16"><a xlink:href="modules_2rdf_8cpp.xhtml" target="_top" xlink:title="Implements gmx::analysismodules::Rdf. ">
<polygon fill="white" stroke="black" points="1230,-123.5 1230,-153.5 1380,-153.5 1380,-123.5 1230,-123.5"/>
<text text-anchor="start" x="1238" y="-141.5" font-family="Helvetica,sans-Serif" font-size="10.00">src/gromacs/trajectoryanalysis</text>
<text text-anchor="middle" x="1305" y="-130.5" font-family="Helvetica,sans-Serif" font-size="10.00">/modules/rdf.cpp</text>
</a>
</g>
</g>
<!-- Node7&#45;&gt;Node16 -->
<g id="edge16" class="edge"><title>Node7&#45;&gt;Node16</title>
<path fill="none" stroke="midnightblue" d="M1358.26,-183.883C1346.41,-174.005 1332.52,-162.429 1321.89,-153.577"/>
<polygon fill="midnightblue" stroke="midnightblue" points="1356.15,-186.683 1366.08,-190.396 1360.63,-181.305 1356.15,-186.683"/>
</g>
<!-- Node17 -->
<g id="node17" class="node"><title>Node17</title>
<g id="a_node17"><a xlink:href="modules_2sasa_8cpp.xhtml" target="_top" xlink:title="Implements gmx::analysismodules::Sasa. ">
<polygon fill="white" stroke="black" points="1858,-123.5 1858,-153.5 2008,-153.5 2008,-123.5 1858,-123.5"/>
<text text-anchor="start" x="1866" y="-141.5" font-family="Helvetica,sans-Serif" font-size="10.00">src/gromacs/trajectoryanalysis</text>
<text text-anchor="middle" x="1933" y="-130.5" font-family="Helvetica,sans-Serif" font-size="10.00">/modules/sasa.cpp</text>
</a>
</g>
</g>
<!-- Node7&#45;&gt;Node17 -->
<g id="edge17" class="edge"><title>Node7&#45;&gt;Node17</title>
<path fill="none" stroke="midnightblue" d="M1457.29,-197.905C1549.41,-189.392 1711.13,-173.351 1849,-154 1851.93,-153.589 1854.92,-153.153 1857.93,-152.699"/>
<polygon fill="midnightblue" stroke="midnightblue" points="1456.87,-194.429 1447.23,-198.83 1457.51,-201.399 1456.87,-194.429"/>
</g>
<!-- Node7&#45;&gt;Node18 -->
<g id="edge18" class="edge"><title>Node7&#45;&gt;Node18</title>
<path fill="none" stroke="midnightblue" d="M1457.38,-200.961C1519.97,-197.995 1611.83,-193.669 1692,-190 2050.65,-173.586 2142.06,-192.613 2499,-154 2501.94,-153.682 2504.94,-153.325 2507.96,-152.937"/>
<polygon fill="midnightblue" stroke="midnightblue" points="1457.03,-197.474 1447.21,-201.444 1457.36,-204.466 1457.03,-197.474"/>
</g>
<!-- Node11 -->
<g id="node11" class="node"><title>Node11</title>
<g id="a_node11"><a xlink:href="trajectoryanalysis_8h.xhtml" target="_top" xlink:title="Public API convenience header for trajectory analysis framework. ">
<polygon fill="white" stroke="black" points="728,-62 728,-81 886,-81 886,-62 728,-62"/>
<text text-anchor="middle" x="807" y="-69" font-family="Helvetica,sans-Serif" font-size="10.00">src/gromacs/trajectoryanalysis.h</text>
</a>
</g>
</g>
<!-- Node10&#45;&gt;Node11 -->
<g id="edge11" class="edge"><title>Node10&#45;&gt;Node11</title>
<path fill="none" stroke="midnightblue" d="M807,-118.537C807,-106.17 807,-90.6198 807,-81.1273"/>
<polygon fill="midnightblue" stroke="midnightblue" points="803.5,-118.734 807,-128.734 810.5,-118.734 803.5,-118.734"/>
</g>
<!-- Node12 -->
<g id="node12" class="node"><title>Node12</title>
<g id="a_node12"><a xlink:href="template_8cpp.xhtml" target="_top" xlink:title="Template code for writing analysis programs. ">
<polygon fill="white" stroke="black" points="737,-0.5 737,-19.5 877,-19.5 877,-0.5 737,-0.5"/>
<text text-anchor="middle" x="807" y="-7.5" font-family="Helvetica,sans-Serif" font-size="10.00">share/template/template.cpp</text>
</a>
</g>
</g>
<!-- Node11&#45;&gt;Node12 -->
<g id="edge12" class="edge"><title>Node11&#45;&gt;Node12</title>
<path fill="none" stroke="midnightblue" d="M807,-51.8165C807,-40.9962 807,-27.898 807,-19.5091"/>
<polygon fill="midnightblue" stroke="midnightblue" points="803.5,-51.9751 807,-61.9751 810.5,-51.9751 803.5,-51.9751"/>
</g>
<!-- Node19&#45;&gt;Node10 -->
<g id="edge21" class="edge"><title>Node19&#45;&gt;Node10</title>
<path fill="none" stroke="midnightblue" d="M812.015,-180.25C810.633,-169.017 809.077,-156.377 808.07,-148.195"/>
<polygon fill="midnightblue" stroke="midnightblue" points="808.569,-180.898 813.264,-190.396 815.516,-180.043 808.569,-180.898"/>
</g>
<!-- Node20 -->
<g id="node20" class="node"><title>Node20</title>
<g id="a_node20"><a xlink:href="displacement_8cpp.xhtml" target="_top" xlink:title="Implements gmx::AnalysisDataDisplacementModule. ">
<polygon fill="white" stroke="black" points="292,-123.5 292,-153.5 428,-153.5 428,-123.5 292,-123.5"/>
<text text-anchor="start" x="300" y="-141.5" font-family="Helvetica,sans-Serif" font-size="10.00">src/gromacs/analysisdata</text>
<text text-anchor="middle" x="360" y="-130.5" font-family="Helvetica,sans-Serif" font-size="10.00">/modules/displacement.cpp</text>
</a>
</g>
</g>
<!-- Node19&#45;&gt;Node20 -->
<g id="edge20" class="edge"><title>Node19&#45;&gt;Node20</title>
<path fill="none" stroke="midnightblue" d="M741.024,-189.927C605.47,-168.952 568.764,-174.158 437,-154 434.176,-153.568 431.298,-153.109 428.392,-152.631"/>
<polygon fill="midnightblue" stroke="midnightblue" points="740.536,-193.393 750.957,-191.483 741.619,-186.478 740.536,-193.393"/>
</g>
<!-- Node21&#45;&gt;Node10 -->
<g id="edge26" class="edge"><title>Node21&#45;&gt;Node10</title>
<path fill="none" stroke="midnightblue" d="M918.255,-186.458C888.502,-173.9 850.177,-157.724 827.155,-148.007"/>
<polygon fill="midnightblue" stroke="midnightblue" points="917.01,-189.732 927.584,-190.396 919.732,-183.283 917.01,-189.732"/>
</g>
<!-- Node21&#45;&gt;Node13 -->
<g id="edge27" class="edge"><title>Node21&#45;&gt;Node13</title>
<path fill="none" stroke="midnightblue" d="M963.966,-180.403C965.078,-171.37 966.304,-161.408 967.268,-153.577"/>
<polygon fill="midnightblue" stroke="midnightblue" points="960.484,-180.043 962.736,-190.396 967.431,-180.898 960.484,-180.043"/>
</g>
<!-- Node21&#45;&gt;Node14 -->
<g id="edge28" class="edge"><title>Node21&#45;&gt;Node14</title>
<path fill="none" stroke="midnightblue" d="M1008.88,-186.819C1037.17,-176.371 1072.49,-163.323 1098.89,-153.577"/>
<polygon fill="midnightblue" stroke="midnightblue" points="1007.36,-183.648 999.189,-190.396 1009.78,-190.215 1007.36,-183.648"/>
</g>
<!-- Node21&#45;&gt;Node16 -->
<g id="edge29" class="edge"><title>Node21&#45;&gt;Node16</title>
<path fill="none" stroke="midnightblue" d="M1035.47,-190.429C1093.3,-179.501 1173.11,-164.422 1230.86,-153.51"/>
<polygon fill="midnightblue" stroke="midnightblue" points="1034.48,-187.054 1025.3,-192.35 1035.78,-193.933 1034.48,-187.054"/>
</g>
<!-- Node21&#45;&gt;Node20 -->
<g id="edge23" class="edge"><title>Node21&#45;&gt;Node20</title>
<path fill="none" stroke="midnightblue" d="M887.035,-189.981C687.095,-162.943 633.097,-180.214 437,-154 434.169,-153.621 431.284,-153.208 428.373,-152.766"/>
<polygon fill="midnightblue" stroke="midnightblue" points="886.594,-193.453 896.977,-191.345 887.546,-186.518 886.594,-193.453"/>
</g>
<!-- Node22 -->
<g id="node22" class="node"><title>Node22</title>
<g id="a_node22"><a xlink:href="modules_2histogram_8cpp.xhtml" target="_top" xlink:title="Implements classes in histogram.h. ">
<polygon fill="white" stroke="black" points="446,-123.5 446,-153.5 574,-153.5 574,-123.5 446,-123.5"/>
<text text-anchor="start" x="454" y="-141.5" font-family="Helvetica,sans-Serif" font-size="10.00">src/gromacs/analysisdata</text>
<text text-anchor="middle" x="510" y="-130.5" font-family="Helvetica,sans-Serif" font-size="10.00">/modules/histogram.cpp</text>
</a>
</g>
</g>
<!-- Node21&#45;&gt;Node22 -->
<g id="edge24" class="edge"><title>Node21&#45;&gt;Node22</title>
<path fill="none" stroke="midnightblue" d="M887.023,-189.928C751.466,-168.982 714.662,-174.813 583,-154 580.065,-153.536 577.067,-153.038 574.043,-152.517"/>
<polygon fill="midnightblue" stroke="midnightblue" points="886.536,-193.394 896.957,-191.483 887.619,-186.479 886.536,-193.394"/>
</g>
<!-- Node23 -->
<g id="node23" class="node"><title>Node23</title>
<g id="a_node23"><a xlink:href="tests_2histogram_8cpp.xhtml" target="_top" xlink:title="Tests for functionality of analysis data histogram modules. ">
<polygon fill="white" stroke="black" points="592,-123.5 592,-153.5 720,-153.5 720,-123.5 592,-123.5"/>
<text text-anchor="start" x="600" y="-141.5" font-family="Helvetica,sans-Serif" font-size="10.00">src/gromacs/analysisdata</text>
<text text-anchor="middle" x="656" y="-130.5" font-family="Helvetica,sans-Serif" font-size="10.00">/tests/histogram.cpp</text>
</a>
</g>
</g>
<!-- Node21&#45;&gt;Node23 -->
<g id="edge25" class="edge"><title>Node21&#45;&gt;Node23</title>
<path fill="none" stroke="midnightblue" d="M886.724,-188.671C835.779,-177.814 768.863,-163.553 720.222,-153.187"/>
<polygon fill="midnightblue" stroke="midnightblue" points="886.18,-192.133 896.69,-190.795 887.639,-185.287 886.18,-192.133"/>
</g>
<!-- Node24&#45;&gt;Node10 -->
<g id="edge33" class="edge"><title>Node24&#45;&gt;Node10</title>
<path fill="none" stroke="midnightblue" d="M2508.61,-202.964C2202.35,-196.549 1047.55,-171.421 885,-154 872.4,-152.65 858.783,-150.397 846.507,-148.065"/>
<polygon fill="midnightblue" stroke="midnightblue" points="2508.64,-206.465 2518.71,-203.175 2508.79,-199.467 2508.64,-206.465"/>
</g>
<!-- Node24&#45;&gt;Node18 -->
<g id="edge34" class="edge"><title>Node24&#45;&gt;Node18</title>
<path fill="none" stroke="midnightblue" d="M2583,-180.108C2583,-171.154 2583,-161.323 2583,-153.577"/>
<polygon fill="midnightblue" stroke="midnightblue" points="2579.5,-180.396 2583,-190.396 2586.5,-180.396 2579.5,-180.396"/>
</g>
<!-- Node25 -->
<g id="node25" class="node"><title>Node25</title>
<g id="a_node25"><a xlink:href="modules_2lifetime_8cpp.xhtml" target="_top" xlink:title="Implements gmx::AnalysisDataLifetimeModule. ">
<polygon fill="white" stroke="black" points="2676,-123.5 2676,-153.5 2804,-153.5 2804,-123.5 2676,-123.5"/>
<text text-anchor="start" x="2684" y="-141.5" font-family="Helvetica,sans-Serif" font-size="10.00">src/gromacs/analysisdata</text>
<text text-anchor="middle" x="2740" y="-130.5" font-family="Helvetica,sans-Serif" font-size="10.00">/modules/lifetime.cpp</text>
</a>
</g>
</g>
<!-- Node24&#45;&gt;Node25 -->
<g id="edge31" class="edge"><title>Node24&#45;&gt;Node25</title>
<path fill="none" stroke="midnightblue" d="M2626.37,-186.544C2651.49,-176.143 2682.66,-163.238 2706,-153.577"/>
<polygon fill="midnightblue" stroke="midnightblue" points="2624.97,-183.337 2617.07,-190.396 2627.64,-189.804 2624.97,-183.337"/>
</g>
<!-- Node26 -->
<g id="node26" class="node"><title>Node26</title>
<g id="a_node26"><a xlink:href="tests_2lifetime_8cpp.xhtml" target="_top" xlink:title="Tests for functionality of analysis data lifetime module. ">
<polygon fill="white" stroke="black" points="2822,-123.5 2822,-153.5 2950,-153.5 2950,-123.5 2822,-123.5"/>
<text text-anchor="start" x="2830" y="-141.5" font-family="Helvetica,sans-Serif" font-size="10.00">src/gromacs/analysisdata</text>
<text text-anchor="middle" x="2886" y="-130.5" font-family="Helvetica,sans-Serif" font-size="10.00">/tests/lifetime.cpp</text>
</a>
</g>
</g>
<!-- Node24&#45;&gt;Node26 -->
<g id="edge32" class="edge"><title>Node24&#45;&gt;Node26</title>
<path fill="none" stroke="midnightblue" d="M2657.13,-188.598C2707.57,-177.777 2773.65,-163.601 2821.83,-153.265"/>
<polygon fill="midnightblue" stroke="midnightblue" points="2656.3,-185.195 2647.26,-190.715 2657.77,-192.04 2656.3,-185.195"/>
</g>
<!-- Node27&#45;&gt;Node10 -->
<g id="edge37" class="edge"><title>Node27&#45;&gt;Node10</title>
<path fill="none" stroke="midnightblue" d="M1690.75,-200.78C1493.09,-190.8 963.814,-163.548 885,-154 872.694,-152.509 859.4,-150.274 847.334,-148.003"/>
<polygon fill="midnightblue" stroke="midnightblue" points="1690.59,-204.276 1700.75,-201.284 1690.94,-197.285 1690.59,-204.276"/>
</g>
<!-- Node27&#45;&gt;Node13 -->
<g id="edge41" class="edge"><title>Node27&#45;&gt;Node13</title>
<path fill="none" stroke="midnightblue" d="M1690.76,-201.684C1561.02,-196.218 1284.76,-182.151 1053,-154 1050.06,-153.643 1047.07,-153.253 1044.05,-152.838"/>
<polygon fill="midnightblue" stroke="midnightblue" points="1690.83,-205.191 1700.97,-202.11 1691.13,-198.197 1690.83,-205.191"/>
</g>
<!-- Node27&#45;&gt;Node14 -->
<g id="edge42" class="edge"><title>Node27&#45;&gt;Node14</title>
<path fill="none" stroke="midnightblue" d="M1690.58,-199.448C1585.61,-191.9 1388.21,-176.158 1221,-154 1218.07,-153.611 1215.08,-153.195 1212.06,-152.757"/>
<polygon fill="midnightblue" stroke="midnightblue" points="1690.53,-202.953 1700.75,-200.174 1691.03,-195.971 1690.53,-202.953"/>
</g>
<!-- Node27&#45;&gt;Node15 -->
<g id="edge43" class="edge"><title>Node27&#45;&gt;Node15</title>
<path fill="none" stroke="midnightblue" d="M1765,-180.108C1765,-171.154 1765,-161.323 1765,-153.577"/>
<polygon fill="midnightblue" stroke="midnightblue" points="1761.5,-180.396 1765,-190.396 1768.5,-180.396 1761.5,-180.396"/>
</g>
<!-- Node27&#45;&gt;Node16 -->
<g id="edge45" class="edge"><title>Node27&#45;&gt;Node16</title>
<path fill="none" stroke="midnightblue" d="M1690.75,-195.36C1614.82,-185.818 1493.52,-170.034 1389,-154 1386.07,-153.551 1383.09,-153.084 1380.08,-152.604"/>
<polygon fill="midnightblue" stroke="midnightblue" points="1690.34,-198.836 1700.69,-196.607 1691.21,-191.89 1690.34,-198.836"/>
</g>
<!-- Node27&#45;&gt;Node17 -->
<g id="edge46" class="edge"><title>Node27&#45;&gt;Node17</title>
<path fill="none" stroke="midnightblue" d="M1811.05,-186.682C1838,-176.257 1871.54,-163.281 1896.62,-153.577"/>
<polygon fill="midnightblue" stroke="midnightblue" points="1809.52,-183.523 1801.45,-190.396 1812.04,-190.052 1809.52,-183.523"/>
</g>
<!-- Node27&#45;&gt;Node18 -->
<g id="edge47" class="edge"><title>Node27&#45;&gt;Node18</title>
<path fill="none" stroke="midnightblue" d="M1839.08,-201.909C1971.77,-196.711 2258.61,-182.941 2499,-154 2501.94,-153.646 2504.93,-153.259 2507.95,-152.846"/>
<polygon fill="midnightblue" stroke="midnightblue" points="1838.88,-198.414 1829.02,-202.298 1839.15,-205.409 1838.88,-198.414"/>
</g>
<!-- Node28 -->
<g id="node28" class="node"><title>Node28</title>
<g id="a_node28"><a xlink:href="plot_8cpp.xhtml" target="_top" xlink:title="Implements classes in plot.h. ">
<polygon fill="white" stroke="black" points="2026,-123.5 2026,-153.5 2154,-153.5 2154,-123.5 2026,-123.5"/>
<text text-anchor="start" x="2034" y="-141.5" font-family="Helvetica,sans-Serif" font-size="10.00">src/gromacs/analysisdata</text>
<text text-anchor="middle" x="2090" y="-130.5" font-family="Helvetica,sans-Serif" font-size="10.00">/modules/plot.cpp</text>
</a>
</g>
</g>
<!-- Node27&#45;&gt;Node28 -->
<g id="edge36" class="edge"><title>Node27&#45;&gt;Node28</title>
<path fill="none" stroke="midnightblue" d="M1839.13,-189.674C1895.48,-178.403 1972.21,-163.058 2025.92,-152.315"/>
<polygon fill="midnightblue" stroke="midnightblue" points="1838.33,-186.265 1829.21,-191.658 1839.7,-193.129 1838.33,-186.265"/>
</g>
<!-- Node29 -->
<g id="node29" class="node"><title>Node29</title>
<g id="a_node29"><a xlink:href="analysissettings-impl_8h.xhtml" target="_top" xlink:title="Declares private implementation class for gmx::TrajectoryAnalysisSettings. ">
<polygon fill="white" stroke="black" points="2172,-123.5 2172,-153.5 2322,-153.5 2322,-123.5 2172,-123.5"/>
<text text-anchor="start" x="2180" y="-141.5" font-family="Helvetica,sans-Serif" font-size="10.00">src/gromacs/trajectoryanalysis</text>
<text text-anchor="middle" x="2247" y="-130.5" font-family="Helvetica,sans-Serif" font-size="10.00">/analysissettings&#45;impl.h</text>
</a>
</g>
</g>
<!-- Node27&#45;&gt;Node29 -->
<g id="edge38" class="edge"><title>Node27&#45;&gt;Node29</title>
<path fill="none" stroke="midnightblue" d="M1839.21,-196.089C1919.25,-186.782 2050.37,-170.858 2163,-154 2165.93,-153.562 2168.91,-153.104 2171.92,-152.631"/>
<polygon fill="midnightblue" stroke="midnightblue" points="1838.76,-192.618 1829.23,-197.246 1839.57,-199.571 1838.76,-192.618"/>
</g>
<!-- Node32 -->
<g id="node32" class="node"><title>Node32</title>
<g id="a_node32"><a xlink:href="modules_2pairdist_8cpp.xhtml" target="_top" xlink:title="Implements gmx::analysismodules::PairDistance. ">
<polygon fill="white" stroke="black" points="2340,-123.5 2340,-153.5 2490,-153.5 2490,-123.5 2340,-123.5"/>
<text text-anchor="start" x="2348" y="-141.5" font-family="Helvetica,sans-Serif" font-size="10.00">src/gromacs/trajectoryanalysis</text>
<text text-anchor="middle" x="2415" y="-130.5" font-family="Helvetica,sans-Serif" font-size="10.00">/modules/pairdist.cpp</text>
</a>
</g>
</g>
<!-- Node27&#45;&gt;Node32 -->
<g id="edge44" class="edge"><title>Node27&#45;&gt;Node32</title>
<path fill="none" stroke="midnightblue" d="M1839.45,-199.81C1947.88,-192.537 2155.45,-176.944 2331,-154 2333.93,-153.616 2336.92,-153.204 2339.94,-152.77"/>
<polygon fill="midnightblue" stroke="midnightblue" points="1839.02,-196.331 1829.27,-200.488 1839.48,-203.315 1839.02,-196.331"/>
</g>
<!-- Node30 -->
<g id="node30" class="node"><title>Node30</title>
<g id="a_node30"><a xlink:href="analysissettings_8cpp.xhtml" target="_top" xlink:title="Implements classes in analysissettings.h. ">
<polygon fill="white" stroke="black" points="2256,-56.5 2256,-86.5 2406,-86.5 2406,-56.5 2256,-56.5"/>
<text text-anchor="start" x="2264" y="-74.5" font-family="Helvetica,sans-Serif" font-size="10.00">src/gromacs/trajectoryanalysis</text>
<text text-anchor="middle" x="2331" y="-63.5" font-family="Helvetica,sans-Serif" font-size="10.00">/analysissettings.cpp</text>
</a>
</g>
</g>
<!-- Node29&#45;&gt;Node30 -->
<g id="edge39" class="edge"><title>Node29&#45;&gt;Node30</title>
<path fill="none" stroke="midnightblue" d="M2273.28,-117.168C2286.12,-107.228 2301.26,-95.5144 2312.81,-86.5765"/>
<polygon fill="midnightblue" stroke="midnightblue" points="2270.99,-114.508 2265.23,-123.396 2275.28,-120.044 2270.99,-114.508"/>
</g>
<!-- Node31 -->
<g id="node31" class="node"><title>Node31</title>
<g id="a_node31"><a xlink:href="runnercommon_8cpp.xhtml" target="_top" xlink:title="Implements gmx::TrajectoryAnalysisRunnerCommon. ">
<polygon fill="white" stroke="black" points="2088,-56.5 2088,-86.5 2238,-86.5 2238,-56.5 2088,-56.5"/>
<text text-anchor="start" x="2096" y="-74.5" font-family="Helvetica,sans-Serif" font-size="10.00">src/gromacs/trajectoryanalysis</text>
<text text-anchor="middle" x="2163" y="-63.5" font-family="Helvetica,sans-Serif" font-size="10.00">/runnercommon.cpp</text>
</a>
</g>
</g>
<!-- Node29&#45;&gt;Node31 -->
<g id="edge40" class="edge"><title>Node29&#45;&gt;Node31</title>
<path fill="none" stroke="midnightblue" d="M2220.72,-117.168C2207.88,-107.228 2192.74,-95.5144 2181.19,-86.5765"/>
<polygon fill="midnightblue" stroke="midnightblue" points="2218.72,-120.044 2228.77,-123.396 2223.01,-114.508 2218.72,-120.044"/>
</g>
<!-- Node34 -->
<g id="node34" class="node"><title>Node34</title>
<g id="a_node34"><a xlink:href="tests_2analysisdata_8cpp.xhtml" target="_top" xlink:title="Tests for analysis data functionality. ">
<polygon fill="white" stroke="black" points="2968,-123.5 2968,-153.5 3096,-153.5 3096,-123.5 2968,-123.5"/>
<text text-anchor="start" x="2976" y="-141.5" font-family="Helvetica,sans-Serif" font-size="10.00">src/gromacs/analysisdata</text>
<text text-anchor="middle" x="3032" y="-130.5" font-family="Helvetica,sans-Serif" font-size="10.00">/tests/analysisdata.cpp</text>
</a>
</g>
</g>
<!-- Node33&#45;&gt;Node34 -->
<g id="edge49" class="edge"><title>Node33&#45;&gt;Node34</title>
<path fill="none" stroke="midnightblue" d="M3081.53,-183.598C3070.5,-173.783 3057.66,-162.344 3047.81,-153.577"/>
<polygon fill="midnightblue" stroke="midnightblue" points="3079.36,-186.36 3089.16,-190.396 3084.02,-181.132 3079.36,-186.36"/>
</g>
<!-- Node35 -->
<g id="node35" class="node"><title>Node35</title>
<g id="a_node35"><a xlink:href="datatest_8cpp.xhtml" target="_top" xlink:title="Implements classes in datatest.h. ">
<polygon fill="white" stroke="black" points="3114,-123.5 3114,-153.5 3242,-153.5 3242,-123.5 3114,-123.5"/>
<text text-anchor="start" x="3122" y="-141.5" font-family="Helvetica,sans-Serif" font-size="10.00">src/gromacs/analysisdata</text>
<text text-anchor="middle" x="3178" y="-130.5" font-family="Helvetica,sans-Serif" font-size="10.00">/tests/datatest.cpp</text>
</a>
</g>
</g>
<!-- Node33&#45;&gt;Node35 -->
<g id="edge50" class="edge"><title>Node33&#45;&gt;Node35</title>
<path fill="none" stroke="midnightblue" d="M3128.47,-183.598C3139.5,-173.783 3152.34,-162.344 3162.19,-153.577"/>
<polygon fill="midnightblue" stroke="midnightblue" points="3125.98,-181.132 3120.84,-190.396 3130.64,-186.36 3125.98,-181.132"/>
</g>
<!-- Node36 -->
<g id="node36" class="node"><title>Node36</title>
<g id="a_node36"><a xlink:href="mock__datamodule_8cpp.xhtml" target="_top" xlink:title="Implements classes in mock_datamodule.h. ">
<polygon fill="white" stroke="black" points="3260.5,-123.5 3260.5,-153.5 3403.5,-153.5 3403.5,-123.5 3260.5,-123.5"/>
<text text-anchor="start" x="3268.5" y="-141.5" font-family="Helvetica,sans-Serif" font-size="10.00">src/gromacs/analysisdata</text>
<text text-anchor="middle" x="3332" y="-130.5" font-family="Helvetica,sans-Serif" font-size="10.00">/tests/mock_datamodule.cpp</text>
</a>
</g>
</g>
<!-- Node33&#45;&gt;Node36 -->
<g id="edge51" class="edge"><title>Node33&#45;&gt;Node36</title>
<path fill="none" stroke="midnightblue" d="M3163.62,-187.715C3200.56,-177.137 3247.71,-163.635 3282.72,-153.611"/>
<polygon fill="midnightblue" stroke="midnightblue" points="3162.63,-184.358 3153.98,-190.476 3164.55,-191.088 3162.63,-184.358"/>
</g>
</g>
</svg>
