<?xml version="1.0" encoding="UTF-8" standalone="no"?>
<!DOCTYPE svg PUBLIC "-//W3C//DTD SVG 1.1//EN"
 "http://www.w3.org/Graphics/SVG/1.1/DTD/svg11.dtd">
<!-- Generated by graphviz version 2.38.0 (20140413.2041)
 -->
<!-- Title: src Pages: 1 -->
<svg width="170pt" height="220pt"
 viewBox="0.00 0.00 170.00 220.00" xmlns="http://www.w3.org/2000/svg" xmlns:xlink="http://www.w3.org/1999/xlink">
<g id="graph0" class="graph" transform="scale(1 1) rotate(0) translate(4 216)">
<title>src</title>
<polygon fill="white" stroke="none" points="-4,4 -4,-216 166,-216 166,4 -4,4"/>
<g id="clust1" class="cluster"><title>clusterdir_71392c6f4b1ed3a32ba5c064e868a1ba</title>
<g id="a_clust1"><a xlink:href="dir_71392c6f4b1ed3a32ba5c064e868a1ba.xhtml" target="_top">
<polygon fill="#eeeeff" stroke="black" points="8,-8 8,-204 154,-204 154,-8 8,-8"/>
</a>
</g>
</g>
<!-- dir_71392c6f4b1ed3a32ba5c064e868a1ba -->
<g id="node1" class="node"><title>dir_71392c6f4b1ed3a32ba5c064e868a1ba</title>
<text text-anchor="middle" x="119" y="-175.5" font-family="Helvetica,sans-Serif" font-size="10.00">src</text>
</g>
<!-- dir_a798d384400d41a9e6864d9b1b8753fe -->
<g id="node2" class="node"><title>dir_a798d384400d41a9e6864d9b1b8753fe</title>
<g id="a_node2"><a xlink:href="dir_a798d384400d41a9e6864d9b1b8753fe.xhtml" target="_top" xlink:title="gromacs">
<polygon fill="white" stroke="red" points="71,-124 17,-124 17,-88 71,-88 71,-124"/>
<text text-anchor="middle" x="44" y="-103.5" font-family="Helvetica,sans-Serif" font-size="10.00">gromacs</text>
</a>
</g>
</g>
<!-- dir_578bb10d05c7497569e3ae4615cf11b2 -->
<g id="node4" class="node"><title>dir_578bb10d05c7497569e3ae4615cf11b2</title>
<g id="a_node4"><a xlink:href="dir_578bb10d05c7497569e3ae4615cf11b2.xhtml" target="_top" xlink:title="testutils">
<polygon fill="white" stroke="red" points="71,-52 17,-52 17,-16 71,-16 71,-52"/>
<text text-anchor="middle" x="44" y="-31.5" font-family="Helvetica,sans-Serif" font-size="10.00">testutils</text>
</a>
</g>
</g>
<!-- dir_a798d384400d41a9e6864d9b1b8753fe&#45;&gt;dir_578bb10d05c7497569e3ae4615cf11b2 -->
<g id="edge2" class="edge"><title>dir_a798d384400d41a9e6864d9b1b8753fe&#45;&gt;dir_578bb10d05c7497569e3ae4615cf11b2</title>
<path fill="none" stroke="black" d="M38.0843,-87.6966C37.2886,-79.9827 37.0621,-70.7125 37.4047,-62.1124"/>
<polygon fill="black" stroke="black" points="40.8984,-62.3243 38.105,-52.1043 33.9154,-61.8356 40.8984,-62.3243"/>
<g id="a_edge2&#45;headlabel"><a xlink:href="dir_000005_000075.xhtml" target="_top" xlink:title="126">
<text text-anchor="middle" x="43.4799" y="-63.6083" font-family="Helvetica,sans-Serif" font-size="10.00">126</text>
</a>
</g>
</g>
<!-- dir_77a81dedb905fec1dc3d75bab9a70440 -->
<g id="node3" class="node"><title>dir_77a81dedb905fec1dc3d75bab9a70440</title>
<g id="a_node3"><a xlink:href="dir_77a81dedb905fec1dc3d75bab9a70440.xhtml" target="_top" xlink:title="programs">
<polygon fill="white" stroke="red" points="73.5,-196 16.5,-196 16.5,-160 73.5,-160 73.5,-196"/>
<text text-anchor="middle" x="45" y="-175.5" font-family="Helvetica,sans-Serif" font-size="10.00">programs</text>
</a>
</g>
</g>
<!-- dir_77a81dedb905fec1dc3d75bab9a70440&#45;&gt;dir_a798d384400d41a9e6864d9b1b8753fe -->
<g id="edge4" class="edge"><title>dir_77a81dedb905fec1dc3d75bab9a70440&#45;&gt;dir_a798d384400d41a9e6864d9b1b8753fe</title>
<path fill="none" stroke="black" d="M44.7528,-159.697C44.6426,-151.983 44.5102,-142.712 44.3873,-134.112"/>
<polygon fill="black" stroke="black" points="47.8869,-134.053 44.2443,-124.104 40.8876,-134.153 47.8869,-134.053"/>
<g id="a_edge4&#45;headlabel"><a xlink:href="dir_000027_000005.xhtml" target="_top" xlink:title="172">
<text text-anchor="middle" x="50.7772" y="-135.107" font-family="Helvetica,sans-Serif" font-size="10.00">172</text>
</a>
</g>
</g>
<!-- dir_77a81dedb905fec1dc3d75bab9a70440&#45;&gt;dir_578bb10d05c7497569e3ae4615cf11b2 -->
<g id="edge3" class="edge"><title>dir_77a81dedb905fec1dc3d75bab9a70440&#45;&gt;dir_578bb10d05c7497569e3ae4615cf11b2</title>
<path fill="none" stroke="black" d="M60.1825,-159.703C67.7317,-149.939 76.0663,-137.095 80,-124 84.6031,-108.676 84.7028,-103.293 80,-88 76.9911,-78.2153 71.493,-68.6161 65.6843,-60.3336"/>
<polygon fill="black" stroke="black" points="68.4072,-58.1306 59.6099,-52.2264 62.8052,-62.3279 68.4072,-58.1306"/>
<g id="a_edge3&#45;headlabel"><a xlink:href="dir_000027_000075.xhtml" target="_top" xlink:title="21">
<text text-anchor="middle" x="72.8348" y="-56.8048" font-family="Helvetica,sans-Serif" font-size="10.00">21</text>
</a>
</g>
</g>
<!-- dir_578bb10d05c7497569e3ae4615cf11b2&#45;&gt;dir_a798d384400d41a9e6864d9b1b8753fe -->
<g id="edge1" class="edge"><title>dir_578bb10d05c7497569e3ae4615cf11b2&#45;&gt;dir_a798d384400d41a9e6864d9b1b8753fe</title>
<path fill="none" stroke="black" d="M49.895,-52.1043C50.7005,-59.7913 50.9369,-69.0537 50.604,-77.6651"/>
<polygon fill="black" stroke="black" points="47.1085,-77.4805 49.9157,-87.6966 54.0921,-77.9597 47.1085,-77.4805"/>
<g id="a_edge1&#45;headlabel"><a xlink:href="dir_000075_000005.xhtml" target="_top" xlink:title="81">
<text text-anchor="middle" x="44.5219" y="-71.2" font-family="Helvetica,sans-Serif" font-size="10.00">81</text>
</a>
</g>
</g>
</g>
</svg>
