<?xml version="1.0" encoding="UTF-8" standalone="no"?>
<!DOCTYPE svg PUBLIC "-//W3C//DTD SVG 1.1//EN"
 "http://www.w3.org/Graphics/SVG/1.1/DTD/svg11.dtd">
<!-- Generated by graphviz version 2.38.0 (20140413.2041)
 -->
<!-- Title: src/gromacs/mdlib/nbnxn_kernels Pages: 1 -->
<svg width="296pt" height="303pt"
 viewBox="0.00 0.00 296.00 303.00" xmlns="http://www.w3.org/2000/svg" xmlns:xlink="http://www.w3.org/1999/xlink">
<g id="graph0" class="graph" transform="scale(1 1) rotate(0) translate(4 299)">
<title>src/gromacs/mdlib/nbnxn_kernels</title>
<polygon fill="white" stroke="none" points="-4,4 -4,-299 292,-299 292,4 -4,4"/>
<g id="clust1" class="cluster"><title>clusterdir_b988dc028879cf86b2e2d3976beb6cdb</title>
<g id="a_clust1"><a xlink:href="dir_b988dc028879cf86b2e2d3976beb6cdb.xhtml" target="_top" xlink:title="mdlib">
<polygon fill="#ddddee" stroke="black" points="8,-200 8,-287 280,-287 280,-200 8,-200"/>
<text text-anchor="middle" x="144" y="-275" font-family="Helvetica,sans-Serif" font-size="10.00">mdlib</text>
</a>
</g>
</g>
<g id="clust2" class="cluster"><title>clusterdir_16aa737012d22d230d87a2c6d7c9f67b</title>
<g id="a_clust2"><a xlink:href="dir_16aa737012d22d230d87a2c6d7c9f67b.xhtml" target="_top">
<polygon fill="#eeeeff" stroke="black" points="16,-208 16,-260 272,-260 272,-208 16,-208"/>
</a>
</g>
</g>
<!-- dir_16aa737012d22d230d87a2c6d7c9f67b -->
<g id="node1" class="node"><title>dir_16aa737012d22d230d87a2c6d7c9f67b</title>
<text text-anchor="middle" x="64" y="-231.5" font-family="Helvetica,sans-Serif" font-size="10.00">nbnxn_kernels</text>
</g>
<!-- dir_de18afb36696138c96356a62009637d5 -->
<g id="node4" class="node"><title>dir_de18afb36696138c96356a62009637d5</title>
<g id="a_node4"><a xlink:href="dir_de18afb36696138c96356a62009637d5.xhtml" target="_top" xlink:title="utility">
<polygon fill="white" stroke="red" points="209,-36 155,-36 155,-0 209,-0 209,-36"/>
<text text-anchor="middle" x="182" y="-15.5" font-family="Helvetica,sans-Serif" font-size="10.00">utility</text>
</a>
</g>
</g>
<!-- dir_16aa737012d22d230d87a2c6d7c9f67b&#45;&gt;dir_de18afb36696138c96356a62009637d5 -->
<g id="edge10" class="edge"><title>dir_16aa737012d22d230d87a2c6d7c9f67b&#45;&gt;dir_de18afb36696138c96356a62009637d5</title>
<path fill="none" stroke="black" d="M64.3428,-215.861C65.7596,-184.538 72.5431,-117.129 104,-72 114.467,-56.9845 130.667,-44.976 145.597,-36.2117"/>
<polygon fill="black" stroke="black" points="147.623,-39.0904 154.667,-31.1761 144.225,-32.9704 147.623,-39.0904"/>
<g id="a_edge10&#45;headlabel"><a xlink:href="dir_000041_000072.xhtml" target="_top" xlink:title="13">
<text text-anchor="middle" x="145.859" y="-40.8176" font-family="Helvetica,sans-Serif" font-size="10.00">13</text>
</a>
</g>
</g>
<!-- dir_89a1adf13dffb155c372242433532d34 -->
<g id="node5" class="node"><title>dir_89a1adf13dffb155c372242433532d34</title>
<g id="a_node5"><a xlink:href="dir_89a1adf13dffb155c372242433532d34.xhtml" target="_top" xlink:title="math">
<polygon fill="white" stroke="red" points="182,-108 128,-108 128,-72 182,-72 182,-108"/>
<text text-anchor="middle" x="155" y="-87.5" font-family="Helvetica,sans-Serif" font-size="10.00">math</text>
</a>
</g>
</g>
<!-- dir_16aa737012d22d230d87a2c6d7c9f67b&#45;&gt;dir_89a1adf13dffb155c372242433532d34 -->
<g id="edge11" class="edge"><title>dir_16aa737012d22d230d87a2c6d7c9f67b&#45;&gt;dir_89a1adf13dffb155c372242433532d34</title>
<path fill="none" stroke="black" d="M74.9767,-215.871C90.7593,-191.244 119.986,-145.638 138.412,-116.885"/>
<polygon fill="black" stroke="black" points="141.536,-118.497 143.984,-108.189 135.642,-114.72 141.536,-118.497"/>
<g id="a_edge11&#45;headlabel"><a xlink:href="dir_000041_000036.xhtml" target="_top" xlink:title="2">
<text text-anchor="middle" x="141.987" y="-120.556" font-family="Helvetica,sans-Serif" font-size="10.00">2</text>
</a>
</g>
</g>
<!-- dir_e98163a2c60455dbdfc349d42edce369 -->
<g id="node7" class="node"><title>dir_e98163a2c60455dbdfc349d42edce369</title>
<g id="a_node7"><a xlink:href="dir_e98163a2c60455dbdfc349d42edce369.xhtml" target="_top" xlink:title="mdtypes">
<polygon fill="none" stroke="black" points="185,-180 131,-180 131,-144 185,-144 185,-180"/>
<text text-anchor="middle" x="158" y="-159.5" font-family="Helvetica,sans-Serif" font-size="10.00">mdtypes</text>
</a>
</g>
</g>
<!-- dir_16aa737012d22d230d87a2c6d7c9f67b&#45;&gt;dir_e98163a2c60455dbdfc349d42edce369 -->
<g id="edge12" class="edge"><title>dir_16aa737012d22d230d87a2c6d7c9f67b&#45;&gt;dir_e98163a2c60455dbdfc349d42edce369</title>
<path fill="none" stroke="black" d="M87.236,-215.697C99.1883,-206.796 113.923,-195.823 126.847,-186.199"/>
<polygon fill="black" stroke="black" points="129.101,-188.884 135.031,-180.104 124.92,-183.27 129.101,-188.884"/>
<g id="a_edge12&#45;headlabel"><a xlink:href="dir_000041_000039.xhtml" target="_top" xlink:title="4">
<text text-anchor="middle" x="127.914" y="-190.808" font-family="Helvetica,sans-Serif" font-size="10.00">4</text>
</a>
</g>
</g>
<!-- dir_b575cab96adadb7eaca71df44bc1844b -->
<g id="node2" class="node"><title>dir_b575cab96adadb7eaca71df44bc1844b</title>
<g id="a_node2"><a xlink:href="dir_b575cab96adadb7eaca71df44bc1844b.xhtml" target="_top" xlink:title="simd_2xnn">
<polygon fill="white" stroke="black" points="186,-252 122,-252 122,-216 186,-216 186,-252"/>
<text text-anchor="middle" x="154" y="-231.5" font-family="Helvetica,sans-Serif" font-size="10.00">simd_2xnn</text>
</a>
</g>
</g>
<!-- dir_b575cab96adadb7eaca71df44bc1844b&#45;&gt;dir_de18afb36696138c96356a62009637d5 -->
<g id="edge1" class="edge"><title>dir_b575cab96adadb7eaca71df44bc1844b&#45;&gt;dir_de18afb36696138c96356a62009637d5</title>
<path fill="none" stroke="black" d="M140.645,-215.911C133.717,-206.01 125.904,-192.968 122,-180 108.158,-134.02 98.7342,-115.532 119,-72 124.961,-59.196 135.706,-48.3801 146.654,-39.9252"/>
<polygon fill="black" stroke="black" points="148.918,-42.6082 154.99,-33.926 144.829,-36.9266 148.918,-42.6082"/>
<g id="a_edge1&#45;headlabel"><a xlink:href="dir_000042_000072.xhtml" target="_top" xlink:title="3">
<text text-anchor="middle" x="147.659" y="-44.5124" font-family="Helvetica,sans-Serif" font-size="10.00">3</text>
</a>
</g>
</g>
<!-- dir_69a31023f2cb90cacd6802dc380f9733 -->
<g id="node6" class="node"><title>dir_69a31023f2cb90cacd6802dc380f9733</title>
<g id="a_node6"><a xlink:href="dir_69a31023f2cb90cacd6802dc380f9733.xhtml" target="_top" xlink:title="simd">
<polygon fill="white" stroke="red" points="258,-180 204,-180 204,-144 258,-144 258,-180"/>
<text text-anchor="middle" x="231" y="-159.5" font-family="Helvetica,sans-Serif" font-size="10.00">simd</text>
</a>
</g>
</g>
<!-- dir_b575cab96adadb7eaca71df44bc1844b&#45;&gt;dir_69a31023f2cb90cacd6802dc380f9733 -->
<g id="edge2" class="edge"><title>dir_b575cab96adadb7eaca71df44bc1844b&#45;&gt;dir_69a31023f2cb90cacd6802dc380f9733</title>
<path fill="none" stroke="black" d="M173.034,-215.697C182.545,-207.05 194.207,-196.449 204.57,-187.027"/>
<polygon fill="black" stroke="black" points="207.14,-189.421 212.185,-180.104 202.431,-184.241 207.14,-189.421"/>
<g id="a_edge2&#45;headlabel"><a xlink:href="dir_000042_000058.xhtml" target="_top" xlink:title="3">
<text text-anchor="middle" x="206.39" y="-191.44" font-family="Helvetica,sans-Serif" font-size="10.00">3</text>
</a>
</g>
</g>
<!-- dir_b575cab96adadb7eaca71df44bc1844b&#45;&gt;dir_e98163a2c60455dbdfc349d42edce369 -->
<g id="edge3" class="edge"><title>dir_b575cab96adadb7eaca71df44bc1844b&#45;&gt;dir_e98163a2c60455dbdfc349d42edce369</title>
<path fill="none" stroke="black" d="M154.989,-215.697C155.43,-207.983 155.959,-198.712 156.451,-190.112"/>
<polygon fill="black" stroke="black" points="159.946,-190.288 157.023,-180.104 152.958,-189.888 159.946,-190.288"/>
<g id="a_edge3&#45;headlabel"><a xlink:href="dir_000042_000039.xhtml" target="_top" xlink:title="1">
<text text-anchor="middle" x="162.576" y="-191.538" font-family="Helvetica,sans-Serif" font-size="10.00">1</text>
</a>
</g>
</g>
<!-- dir_2204575be2c6c5448770f92e78ea3263 -->
<g id="node3" class="node"><title>dir_2204575be2c6c5448770f92e78ea3263</title>
<g id="a_node3"><a xlink:href="dir_2204575be2c6c5448770f92e78ea3263.xhtml" target="_top" xlink:title="simd_4xn">
<polygon fill="white" stroke="black" points="263.5,-252 204.5,-252 204.5,-216 263.5,-216 263.5,-252"/>
<text text-anchor="middle" x="234" y="-231.5" font-family="Helvetica,sans-Serif" font-size="10.00">simd_4xn</text>
</a>
</g>
</g>
<!-- dir_2204575be2c6c5448770f92e78ea3263&#45;&gt;dir_de18afb36696138c96356a62009637d5 -->
<g id="edge4" class="edge"><title>dir_2204575be2c6c5448770f92e78ea3263&#45;&gt;dir_de18afb36696138c96356a62009637d5</title>
<path fill="none" stroke="black" d="M248.327,-215.566C255.448,-205.762 263.306,-192.923 267,-180 271.398,-164.616 271.013,-159.488 267,-144 256.768,-104.514 227.627,-66.8972 206.311,-43.4354"/>
<polygon fill="black" stroke="black" points="208.797,-40.9701 199.42,-36.0392 203.676,-45.7418 208.797,-40.9701"/>
<g id="a_edge4&#45;headlabel"><a xlink:href="dir_000043_000072.xhtml" target="_top" xlink:title="4">
<text text-anchor="middle" x="213.325" y="-39.1648" font-family="Helvetica,sans-Serif" font-size="10.00">4</text>
</a>
</g>
</g>
<!-- dir_2204575be2c6c5448770f92e78ea3263&#45;&gt;dir_69a31023f2cb90cacd6802dc380f9733 -->
<g id="edge5" class="edge"><title>dir_2204575be2c6c5448770f92e78ea3263&#45;&gt;dir_69a31023f2cb90cacd6802dc380f9733</title>
<path fill="none" stroke="black" d="M233.258,-215.697C232.928,-207.983 232.531,-198.712 232.162,-190.112"/>
<polygon fill="black" stroke="black" points="235.658,-189.945 231.733,-180.104 228.665,-190.245 235.658,-189.945"/>
<g id="a_edge5&#45;headlabel"><a xlink:href="dir_000043_000058.xhtml" target="_top" xlink:title="5">
<text text-anchor="middle" x="238.649" y="-190.915" font-family="Helvetica,sans-Serif" font-size="10.00">5</text>
</a>
</g>
</g>
<!-- dir_2204575be2c6c5448770f92e78ea3263&#45;&gt;dir_e98163a2c60455dbdfc349d42edce369 -->
<g id="edge6" class="edge"><title>dir_2204575be2c6c5448770f92e78ea3263&#45;&gt;dir_e98163a2c60455dbdfc349d42edce369</title>
<path fill="none" stroke="black" d="M215.213,-215.697C205.826,-207.05 194.316,-196.449 184.087,-187.027"/>
<polygon fill="black" stroke="black" points="186.297,-184.305 176.57,-180.104 181.555,-189.454 186.297,-184.305"/>
<g id="a_edge6&#45;headlabel"><a xlink:href="dir_000043_000039.xhtml" target="_top" xlink:title="1">
<text text-anchor="middle" x="190.865" y="-182.152" font-family="Helvetica,sans-Serif" font-size="10.00">1</text>
</a>
</g>
</g>
<!-- dir_89a1adf13dffb155c372242433532d34&#45;&gt;dir_de18afb36696138c96356a62009637d5 -->
<g id="edge7" class="edge"><title>dir_89a1adf13dffb155c372242433532d34&#45;&gt;dir_de18afb36696138c96356a62009637d5</title>
<path fill="none" stroke="black" d="M161.674,-71.6966C164.715,-63.8132 168.383,-54.3042 171.761,-45.5464"/>
<polygon fill="black" stroke="black" points="175.069,-46.6939 175.403,-36.1043 168.538,-44.1748 175.069,-46.6939"/>
<g id="a_edge7&#45;headlabel"><a xlink:href="dir_000036_000072.xhtml" target="_top" xlink:title="22">
<text text-anchor="middle" x="176.425" y="-48.5695" font-family="Helvetica,sans-Serif" font-size="10.00">22</text>
</a>
</g>
</g>
<!-- dir_69a31023f2cb90cacd6802dc380f9733&#45;&gt;dir_de18afb36696138c96356a62009637d5 -->
<g id="edge8" class="edge"><title>dir_69a31023f2cb90cacd6802dc380f9733&#45;&gt;dir_de18afb36696138c96356a62009637d5</title>
<path fill="none" stroke="black" d="M227.361,-143.991C223.266,-125.872 215.995,-96.4853 207,-72 203.772,-63.2144 199.636,-53.8984 195.66,-45.568"/>
<polygon fill="black" stroke="black" points="198.677,-43.7702 191.132,-36.3324 192.392,-46.852 198.677,-43.7702"/>
<g id="a_edge8&#45;headlabel"><a xlink:href="dir_000058_000072.xhtml" target="_top" xlink:title="22">
<text text-anchor="middle" x="202.809" y="-43.2478" font-family="Helvetica,sans-Serif" font-size="10.00">22</text>
</a>
</g>
</g>
<!-- dir_69a31023f2cb90cacd6802dc380f9733&#45;&gt;dir_89a1adf13dffb155c372242433532d34 -->
<g id="edge9" class="edge"><title>dir_69a31023f2cb90cacd6802dc380f9733&#45;&gt;dir_89a1adf13dffb155c372242433532d34</title>
<path fill="none" stroke="black" d="M212.213,-143.697C202.826,-135.05 191.316,-124.449 181.087,-115.027"/>
<polygon fill="black" stroke="black" points="183.297,-112.305 173.57,-108.104 178.555,-117.454 183.297,-112.305"/>
<g id="a_edge9&#45;headlabel"><a xlink:href="dir_000058_000036.xhtml" target="_top" xlink:title="1">
<text text-anchor="middle" x="187.865" y="-110.152" font-family="Helvetica,sans-Serif" font-size="10.00">1</text>
</a>
</g>
</g>
<!-- dir_e98163a2c60455dbdfc349d42edce369&#45;&gt;dir_de18afb36696138c96356a62009637d5 -->
<g id="edge13" class="edge"><title>dir_e98163a2c60455dbdfc349d42edce369&#45;&gt;dir_de18afb36696138c96356a62009637d5</title>
<path fill="none" stroke="black" d="M172.327,-143.566C179.448,-133.762 187.306,-120.923 191,-108 196.816,-87.654 193.892,-63.7531 189.883,-45.8455"/>
<polygon fill="black" stroke="black" points="193.261,-44.9287 187.455,-36.0666 186.468,-46.6153 193.261,-44.9287"/>
<g id="a_edge13&#45;headlabel"><a xlink:href="dir_000039_000072.xhtml" target="_top" xlink:title="32">
<text text-anchor="middle" x="196.883" y="-45.2333" font-family="Helvetica,sans-Serif" font-size="10.00">32</text>
</a>
</g>
</g>
</g>
</svg>
