<?xml version="1.0" encoding="UTF-8" standalone="no"?>
<!DOCTYPE svg PUBLIC "-//W3C//DTD SVG 1.1//EN"
 "http://www.w3.org/Graphics/SVG/1.1/DTD/svg11.dtd">
<!-- Generated by graphviz version 2.38.0 (20140413.2041)
 -->
<!-- Title: src/gromacs/selection Pages: 1 -->
<svg width="387pt" height="447pt"
 viewBox="0.00 0.00 386.99 447.00" xmlns="http://www.w3.org/2000/svg" xmlns:xlink="http://www.w3.org/1999/xlink">
<g id="graph0" class="graph" transform="scale(1 1) rotate(0) translate(4 443)">
<title>src/gromacs/selection</title>
<polygon fill="white" stroke="none" points="-4,4 -4,-443 382.992,-443 382.992,4 -4,4"/>
<g id="clust1" class="cluster"><title>clusterdir_a798d384400d41a9e6864d9b1b8753fe</title>
<g id="a_clust1"><a xlink:href="dir_a798d384400d41a9e6864d9b1b8753fe.xhtml" target="_top" xlink:title="gromacs">
<polygon fill="#ddddee" stroke="black" points="106,-344 106,-431 266,-431 266,-344 106,-344"/>
<text text-anchor="middle" x="186" y="-419" font-family="Helvetica,sans-Serif" font-size="10.00">gromacs</text>
</a>
</g>
</g>
<g id="clust2" class="cluster"><title>clusterdir_aa770a1c85b1dd65249ff2086d775c37</title>
<g id="a_clust2"><a xlink:href="dir_aa770a1c85b1dd65249ff2086d775c37.xhtml" target="_top">
<polygon fill="#eeeeff" stroke="black" points="114,-352 114,-404 258,-404 258,-352 114,-352"/>
</a>
</g>
</g>
<!-- dir_aa770a1c85b1dd65249ff2086d775c37 -->
<g id="node1" class="node"><title>dir_aa770a1c85b1dd65249ff2086d775c37</title>
<text text-anchor="middle" x="150" y="-375.5" font-family="Helvetica,sans-Serif" font-size="10.00">selection</text>
</g>
<!-- dir_6913c3973d9015009b64970e3f68feca -->
<g id="node4" class="node"><title>dir_6913c3973d9015009b64970e3f68feca</title>
<g id="a_node4"><a xlink:href="dir_6913c3973d9015009b64970e3f68feca.xhtml" target="_top" xlink:title="onlinehelp">
<polygon fill="white" stroke="red" points="88,-252 28,-252 28,-216 88,-216 88,-252"/>
<text text-anchor="middle" x="58" y="-231.5" font-family="Helvetica,sans-Serif" font-size="10.00">onlinehelp</text>
</a>
</g>
</g>
<!-- dir_aa770a1c85b1dd65249ff2086d775c37&#45;&gt;dir_6913c3973d9015009b64970e3f68feca -->
<g id="edge13" class="edge"><title>dir_aa770a1c85b1dd65249ff2086d775c37&#45;&gt;dir_6913c3973d9015009b64970e3f68feca</title>
<path fill="none" stroke="black" d="M129.971,-359.787C119.496,-350.048 107.014,-337.2 98,-324 84.781,-304.642 74.1657,-280.208 67.2015,-261.841"/>
<polygon fill="black" stroke="black" points="70.4436,-260.516 63.7148,-252.332 63.8715,-262.926 70.4436,-260.516"/>
<g id="a_edge13&#45;headlabel"><a xlink:href="dir_000056_000047.xhtml" target="_top" xlink:title="6">
<text text-anchor="middle" x="74.3468" y="-260.413" font-family="Helvetica,sans-Serif" font-size="10.00">6</text>
</a>
</g>
</g>
<!-- dir_de18afb36696138c96356a62009637d5 -->
<g id="node5" class="node"><title>dir_de18afb36696138c96356a62009637d5</title>
<g id="a_node5"><a xlink:href="dir_de18afb36696138c96356a62009637d5.xhtml" target="_top" xlink:title="utility">
<polygon fill="white" stroke="red" points="285,-36 231,-36 231,-0 285,-0 285,-36"/>
<text text-anchor="middle" x="258" y="-15.5" font-family="Helvetica,sans-Serif" font-size="10.00">utility</text>
</a>
</g>
</g>
<!-- dir_aa770a1c85b1dd65249ff2086d775c37&#45;&gt;dir_de18afb36696138c96356a62009637d5 -->
<g id="edge14" class="edge"><title>dir_aa770a1c85b1dd65249ff2086d775c37&#45;&gt;dir_de18afb36696138c96356a62009637d5</title>
<path fill="none" stroke="black" d="M121.786,-365.6C78.3348,-345.955 0,-301.341 0,-235 0,-235 0,-235 0,-161 0,-61.3447 149.564,-31.1231 220.941,-22.3745"/>
<polygon fill="black" stroke="black" points="221.342,-25.8516 230.877,-21.2339 220.543,-18.8973 221.342,-25.8516"/>
<g id="a_edge14&#45;headlabel"><a xlink:href="dir_000056_000072.xhtml" target="_top" xlink:title="144">
<text text-anchor="middle" x="218.094" y="-26.5822" font-family="Helvetica,sans-Serif" font-size="10.00">144</text>
</a>
</g>
</g>
<!-- dir_89a1adf13dffb155c372242433532d34 -->
<g id="node6" class="node"><title>dir_89a1adf13dffb155c372242433532d34</title>
<g id="a_node6"><a xlink:href="dir_89a1adf13dffb155c372242433532d34.xhtml" target="_top" xlink:title="math">
<polygon fill="white" stroke="red" points="198,-252 144,-252 144,-216 198,-216 198,-252"/>
<text text-anchor="middle" x="171" y="-231.5" font-family="Helvetica,sans-Serif" font-size="10.00">math</text>
</a>
</g>
</g>
<!-- dir_aa770a1c85b1dd65249ff2086d775c37&#45;&gt;dir_89a1adf13dffb155c372242433532d34 -->
<g id="edge15" class="edge"><title>dir_aa770a1c85b1dd65249ff2086d775c37&#45;&gt;dir_89a1adf13dffb155c372242433532d34</title>
<path fill="none" stroke="black" d="M152.533,-359.871C156.112,-335.67 162.687,-291.211 166.949,-262.393"/>
<polygon fill="black" stroke="black" points="170.457,-262.594 168.458,-252.189 163.533,-261.57 170.457,-262.594"/>
<g id="a_edge15&#45;headlabel"><a xlink:href="dir_000056_000036.xhtml" target="_top" xlink:title="3">
<text text-anchor="middle" x="172.74" y="-264.065" font-family="Helvetica,sans-Serif" font-size="10.00">3</text>
</a>
</g>
</g>
<!-- dir_0f41d4b98db5eee2782536f16c8bfcfd -->
<g id="node7" class="node"><title>dir_0f41d4b98db5eee2782536f16c8bfcfd</title>
<g id="a_node7"><a xlink:href="dir_0f41d4b98db5eee2782536f16c8bfcfd.xhtml" target="_top" xlink:title="options">
<polygon fill="white" stroke="red" points="253,-108 199,-108 199,-72 253,-72 253,-108"/>
<text text-anchor="middle" x="226" y="-87.5" font-family="Helvetica,sans-Serif" font-size="10.00">options</text>
</a>
</g>
</g>
<!-- dir_aa770a1c85b1dd65249ff2086d775c37&#45;&gt;dir_0f41d4b98db5eee2782536f16c8bfcfd -->
<g id="edge16" class="edge"><title>dir_aa770a1c85b1dd65249ff2086d775c37&#45;&gt;dir_0f41d4b98db5eee2782536f16c8bfcfd</title>
<path fill="none" stroke="black" d="M143.93,-359.579C134.413,-329.489 118.667,-266.185 135,-216 147.837,-176.556 178.335,-139.184 200.494,-115.756"/>
<polygon fill="black" stroke="black" points="203.211,-117.981 207.652,-108.362 198.182,-113.112 203.211,-117.981"/>
<g id="a_edge16&#45;headlabel"><a xlink:href="dir_000056_000049.xhtml" target="_top" xlink:title="16">
<text text-anchor="middle" x="202.751" y="-120.039" font-family="Helvetica,sans-Serif" font-size="10.00">16</text>
</a>
</g>
</g>
<!-- dir_69432d5e36299b30ef3bdb2035e39cb2 -->
<g id="node2" class="node"><title>dir_69432d5e36299b30ef3bdb2035e39cb2</title>
<g id="a_node2"><a xlink:href="dir_69432d5e36299b30ef3bdb2035e39cb2.xhtml" target="_top" xlink:title="tests">
<polygon fill="white" stroke="black" points="250,-396 196,-396 196,-360 250,-360 250,-396"/>
<text text-anchor="middle" x="223" y="-375.5" font-family="Helvetica,sans-Serif" font-size="10.00">tests</text>
</a>
</g>
</g>
<!-- dir_578bb10d05c7497569e3ae4615cf11b2 -->
<g id="node3" class="node"><title>dir_578bb10d05c7497569e3ae4615cf11b2</title>
<g id="a_node3"><a xlink:href="dir_578bb10d05c7497569e3ae4615cf11b2.xhtml" target="_top" xlink:title="testutils">
<polygon fill="white" stroke="red" points="308,-180 254,-180 254,-144 308,-144 308,-180"/>
<text text-anchor="middle" x="281" y="-159.5" font-family="Helvetica,sans-Serif" font-size="10.00">testutils</text>
</a>
</g>
</g>
<!-- dir_69432d5e36299b30ef3bdb2035e39cb2&#45;&gt;dir_578bb10d05c7497569e3ae4615cf11b2 -->
<g id="edge3" class="edge"><title>dir_69432d5e36299b30ef3bdb2035e39cb2&#45;&gt;dir_578bb10d05c7497569e3ae4615cf11b2</title>
<path fill="none" stroke="black" d="M228.779,-359.895C232.2,-349.552 236.53,-336.073 240,-324 253.458,-277.177 267.005,-222.054 274.665,-189.966"/>
<polygon fill="black" stroke="black" points="278.124,-190.551 277.029,-180.013 271.313,-188.934 278.124,-190.551"/>
<g id="a_edge3&#45;headlabel"><a xlink:href="dir_000057_000075.xhtml" target="_top" xlink:title="11">
<text text-anchor="middle" x="280.056" y="-192.204" font-family="Helvetica,sans-Serif" font-size="10.00">11</text>
</a>
</g>
</g>
<!-- dir_69432d5e36299b30ef3bdb2035e39cb2&#45;&gt;dir_de18afb36696138c96356a62009637d5 -->
<g id="edge4" class="edge"><title>dir_69432d5e36299b30ef3bdb2035e39cb2&#45;&gt;dir_de18afb36696138c96356a62009637d5</title>
<path fill="none" stroke="black" d="M250.169,-373.421C280.185,-368.016 327.859,-354.887 355,-324 381.968,-293.31 378,-275.855 378,-235 378,-235 378,-235 378,-161 378,-108.333 329.248,-65.1154 293.892,-40.6977"/>
<polygon fill="black" stroke="black" points="295.487,-37.5536 285.23,-34.9006 291.594,-43.3711 295.487,-37.5536"/>
<g id="a_edge4&#45;headlabel"><a xlink:href="dir_000057_000072.xhtml" target="_top" xlink:title="15">
<text text-anchor="middle" x="300.054" y="-34.6932" font-family="Helvetica,sans-Serif" font-size="10.00">15</text>
</a>
</g>
</g>
<!-- dir_69432d5e36299b30ef3bdb2035e39cb2&#45;&gt;dir_89a1adf13dffb155c372242433532d34 -->
<g id="edge5" class="edge"><title>dir_69432d5e36299b30ef3bdb2035e39cb2&#45;&gt;dir_89a1adf13dffb155c372242433532d34</title>
<path fill="none" stroke="black" d="M216.728,-359.871C207.787,-335.457 191.297,-290.426 180.754,-261.635"/>
<polygon fill="black" stroke="black" points="184.02,-260.376 177.295,-252.189 177.447,-262.783 184.02,-260.376"/>
<g id="a_edge5&#45;headlabel"><a xlink:href="dir_000057_000036.xhtml" target="_top" xlink:title="1">
<text text-anchor="middle" x="187.922" y="-260.275" font-family="Helvetica,sans-Serif" font-size="10.00">1</text>
</a>
</g>
</g>
<!-- dir_69432d5e36299b30ef3bdb2035e39cb2&#45;&gt;dir_0f41d4b98db5eee2782536f16c8bfcfd -->
<g id="edge6" class="edge"><title>dir_69432d5e36299b30ef3bdb2035e39cb2&#45;&gt;dir_0f41d4b98db5eee2782536f16c8bfcfd</title>
<path fill="none" stroke="black" d="M223.179,-359.966C223.679,-312.291 225.096,-177.185 225.71,-118.63"/>
<polygon fill="black" stroke="black" points="229.213,-118.343 225.818,-108.306 222.214,-118.269 229.213,-118.343"/>
<g id="a_edge6&#45;headlabel"><a xlink:href="dir_000057_000049.xhtml" target="_top" xlink:title="4">
<text text-anchor="middle" x="232.015" y="-119.467" font-family="Helvetica,sans-Serif" font-size="10.00">4</text>
</a>
</g>
</g>
<!-- dir_514bc78bc4c8cd6732d6db5b240d2f74 -->
<g id="node8" class="node"><title>dir_514bc78bc4c8cd6732d6db5b240d2f74</title>
<g id="a_node8"><a xlink:href="dir_514bc78bc4c8cd6732d6db5b240d2f74.xhtml" target="_top" xlink:title="random">
<polygon fill="white" stroke="red" points="346,-324 292,-324 292,-288 346,-288 346,-324"/>
<text text-anchor="middle" x="319" y="-303.5" font-family="Helvetica,sans-Serif" font-size="10.00">random</text>
</a>
</g>
</g>
<!-- dir_69432d5e36299b30ef3bdb2035e39cb2&#45;&gt;dir_514bc78bc4c8cd6732d6db5b240d2f74 -->
<g id="edge7" class="edge"><title>dir_69432d5e36299b30ef3bdb2035e39cb2&#45;&gt;dir_514bc78bc4c8cd6732d6db5b240d2f74</title>
<path fill="none" stroke="black" d="M246.73,-359.697C258.937,-350.796 273.985,-339.823 287.184,-330.199"/>
<polygon fill="black" stroke="black" points="289.525,-332.824 295.543,-324.104 285.4,-327.168 289.525,-332.824"/>
<g id="a_edge7&#45;headlabel"><a xlink:href="dir_000057_000054.xhtml" target="_top" xlink:title="2">
<text text-anchor="middle" x="288.293" y="-334.736" font-family="Helvetica,sans-Serif" font-size="10.00">2</text>
</a>
</g>
</g>
<!-- dir_578bb10d05c7497569e3ae4615cf11b2&#45;&gt;dir_de18afb36696138c96356a62009637d5 -->
<g id="edge1" class="edge"><title>dir_578bb10d05c7497569e3ae4615cf11b2&#45;&gt;dir_de18afb36696138c96356a62009637d5</title>
<path fill="none" stroke="black" d="M273.641,-143.871C267.163,-119.67 259.67,-75.2108 256.978,-46.3932"/>
<polygon fill="black" stroke="black" points="260.45,-45.8914 256.193,-36.1893 253.47,-46.4282 260.45,-45.8914"/>
<g id="a_edge1&#45;headlabel"><a xlink:href="dir_000075_000072.xhtml" target="_top" xlink:title="63">
<text text-anchor="middle" x="263.556" y="-46.7578" font-family="Helvetica,sans-Serif" font-size="10.00">63</text>
</a>
</g>
</g>
<!-- dir_578bb10d05c7497569e3ae4615cf11b2&#45;&gt;dir_0f41d4b98db5eee2782536f16c8bfcfd -->
<g id="edge2" class="edge"><title>dir_578bb10d05c7497569e3ae4615cf11b2&#45;&gt;dir_0f41d4b98db5eee2782536f16c8bfcfd</title>
<path fill="none" stroke="black" d="M261.489,-143.697C254.18,-135.474 246.129,-125.483 239.453,-116.421"/>
<polygon fill="black" stroke="black" points="242.189,-114.229 233.544,-108.104 236.483,-118.283 242.189,-114.229"/>
<g id="a_edge2&#45;headlabel"><a xlink:href="dir_000075_000049.xhtml" target="_top" xlink:title="10">
<text text-anchor="middle" x="246.586" y="-113.014" font-family="Helvetica,sans-Serif" font-size="10.00">10</text>
</a>
</g>
</g>
<!-- dir_6913c3973d9015009b64970e3f68feca&#45;&gt;dir_578bb10d05c7497569e3ae4615cf11b2 -->
<g id="edge8" class="edge"><title>dir_6913c3973d9015009b64970e3f68feca&#45;&gt;dir_578bb10d05c7497569e3ae4615cf11b2</title>
<path fill="none" stroke="black" d="M88.0748,-223.559C128.553,-210.853 200.511,-188.266 244.181,-174.558"/>
<polygon fill="black" stroke="black" points="245.349,-177.859 253.842,-171.525 243.253,-171.181 245.349,-177.859"/>
<g id="a_edge8&#45;headlabel"><a xlink:href="dir_000047_000075.xhtml" target="_top" xlink:title="4">
<text text-anchor="middle" x="242.77" y="-179.145" font-family="Helvetica,sans-Serif" font-size="10.00">4</text>
</a>
</g>
</g>
<!-- dir_6913c3973d9015009b64970e3f68feca&#45;&gt;dir_de18afb36696138c96356a62009637d5 -->
<g id="edge9" class="edge"><title>dir_6913c3973d9015009b64970e3f68feca&#45;&gt;dir_de18afb36696138c96356a62009637d5</title>
<path fill="none" stroke="black" d="M64.6107,-215.7C72.1574,-197.076 85.6036,-167.027 102,-144 128.068,-107.391 137.913,-100.083 173,-72 188.209,-59.8274 206.382,-48.1599 222.014,-38.8861"/>
<polygon fill="black" stroke="black" points="224.005,-41.7765 230.882,-33.7167 220.48,-35.7289 224.005,-41.7765"/>
<g id="a_edge9&#45;headlabel"><a xlink:href="dir_000047_000072.xhtml" target="_top" xlink:title="27">
<text text-anchor="middle" x="222.33" y="-43.5397" font-family="Helvetica,sans-Serif" font-size="10.00">27</text>
</a>
</g>
</g>
<!-- dir_de18afb36696138c96356a62009637d5&#45;&gt;dir_578bb10d05c7497569e3ae4615cf11b2 -->
<g id="edge10" class="edge"><title>dir_de18afb36696138c96356a62009637d5&#45;&gt;dir_578bb10d05c7497569e3ae4615cf11b2</title>
<path fill="none" stroke="black" d="M265.375,-36.1893C271.855,-60.4244 279.345,-104.888 282.029,-133.679"/>
<polygon fill="black" stroke="black" points="278.556,-134.168 282.81,-143.871 285.535,-133.633 278.556,-134.168"/>
<g id="a_edge10&#45;headlabel"><a xlink:href="dir_000072_000075.xhtml" target="_top" xlink:title="3">
<text text-anchor="middle" x="275.45" y="-128.301" font-family="Helvetica,sans-Serif" font-size="10.00">3</text>
</a>
</g>
</g>
<!-- dir_89a1adf13dffb155c372242433532d34&#45;&gt;dir_578bb10d05c7497569e3ae4615cf11b2 -->
<g id="edge11" class="edge"><title>dir_89a1adf13dffb155c372242433532d34&#45;&gt;dir_578bb10d05c7497569e3ae4615cf11b2</title>
<path fill="none" stroke="black" d="M197.909,-215.876C212.158,-206.808 229.846,-195.552 245.236,-185.759"/>
<polygon fill="black" stroke="black" points="247.43,-188.511 253.988,-180.19 243.672,-182.606 247.43,-188.511"/>
<g id="a_edge11&#45;headlabel"><a xlink:href="dir_000036_000075.xhtml" target="_top" xlink:title="3">
<text text-anchor="middle" x="245.922" y="-190.337" font-family="Helvetica,sans-Serif" font-size="10.00">3</text>
</a>
</g>
</g>
<!-- dir_89a1adf13dffb155c372242433532d34&#45;&gt;dir_de18afb36696138c96356a62009637d5 -->
<g id="edge12" class="edge"><title>dir_89a1adf13dffb155c372242433532d34&#45;&gt;dir_de18afb36696138c96356a62009637d5</title>
<path fill="none" stroke="black" d="M168.903,-215.704C165.999,-184.708 163.749,-118.59 190,-72 197.582,-58.544 210.099,-47.3246 222.342,-38.725"/>
<polygon fill="black" stroke="black" points="224.297,-41.6284 230.71,-33.1947 220.437,-35.7885 224.297,-41.6284"/>
<g id="a_edge12&#45;headlabel"><a xlink:href="dir_000036_000072.xhtml" target="_top" xlink:title="22">
<text text-anchor="middle" x="222.864" y="-43.479" font-family="Helvetica,sans-Serif" font-size="10.00">22</text>
</a>
</g>
</g>
<!-- dir_0f41d4b98db5eee2782536f16c8bfcfd&#45;&gt;dir_578bb10d05c7497569e3ae4615cf11b2 -->
<g id="edge17" class="edge"><title>dir_0f41d4b98db5eee2782536f16c8bfcfd&#45;&gt;dir_578bb10d05c7497569e3ae4615cf11b2</title>
<path fill="none" stroke="black" d="M245.334,-108.104C252.631,-116.298 260.687,-126.282 267.385,-135.359"/>
<polygon fill="black" stroke="black" points="264.669,-137.58 273.32,-143.697 270.372,-133.52 264.669,-137.58"/>
<g id="a_edge17&#45;headlabel"><a xlink:href="dir_000049_000075.xhtml" target="_top" xlink:title="8">
<text text-anchor="middle" x="260.271" y="-133.799" font-family="Helvetica,sans-Serif" font-size="10.00">8</text>
</a>
</g>
</g>
<!-- dir_0f41d4b98db5eee2782536f16c8bfcfd&#45;&gt;dir_de18afb36696138c96356a62009637d5 -->
<g id="edge18" class="edge"><title>dir_0f41d4b98db5eee2782536f16c8bfcfd&#45;&gt;dir_de18afb36696138c96356a62009637d5</title>
<path fill="none" stroke="black" d="M233.91,-71.6966C237.553,-63.7284 241.954,-54.0995 245.994,-45.2641"/>
<polygon fill="black" stroke="black" points="249.206,-46.6543 250.181,-36.1043 242.84,-43.7439 249.206,-46.6543"/>
<g id="a_edge18&#45;headlabel"><a xlink:href="dir_000049_000072.xhtml" target="_top" xlink:title="48">
<text text-anchor="middle" x="250.294" y="-48.6039" font-family="Helvetica,sans-Serif" font-size="10.00">48</text>
</a>
</g>
</g>
<!-- dir_514bc78bc4c8cd6732d6db5b240d2f74&#45;&gt;dir_578bb10d05c7497569e3ae4615cf11b2 -->
<g id="edge19" class="edge"><title>dir_514bc78bc4c8cd6732d6db5b240d2f74&#45;&gt;dir_578bb10d05c7497569e3ae4615cf11b2</title>
<path fill="none" stroke="black" d="M314.416,-287.871C307.911,-263.564 295.937,-218.819 288.229,-190.013"/>
<polygon fill="black" stroke="black" points="291.566,-188.945 285.6,-180.189 284.804,-190.754 291.566,-188.945"/>
<g id="a_edge19&#45;headlabel"><a xlink:href="dir_000054_000075.xhtml" target="_top" xlink:title="14">
<text text-anchor="middle" x="295.238" y="-189.183" font-family="Helvetica,sans-Serif" font-size="10.00">14</text>
</a>
</g>
</g>
<!-- dir_514bc78bc4c8cd6732d6db5b240d2f74&#45;&gt;dir_de18afb36696138c96356a62009637d5 -->
<g id="edge20" class="edge"><title>dir_514bc78bc4c8cd6732d6db5b240d2f74&#45;&gt;dir_de18afb36696138c96356a62009637d5</title>
<path fill="none" stroke="black" d="M320.502,-287.925C322.722,-258.358 325.74,-195.821 317,-144 311.39,-110.739 307.754,-102.333 293,-72 288.49,-62.727 282.604,-53.1564 276.95,-44.743"/>
<polygon fill="black" stroke="black" points="279.781,-42.6825 271.209,-36.4553 274.026,-46.6687 279.781,-42.6825"/>
<g id="a_edge20&#45;headlabel"><a xlink:href="dir_000054_000072.xhtml" target="_top" xlink:title="19">
<text text-anchor="middle" x="284.161" y="-41.5206" font-family="Helvetica,sans-Serif" font-size="10.00">19</text>
</a>
</g>
</g>
<!-- dir_514bc78bc4c8cd6732d6db5b240d2f74&#45;&gt;dir_89a1adf13dffb155c372242433532d34 -->
<g id="edge21" class="edge"><title>dir_514bc78bc4c8cd6732d6db5b240d2f74&#45;&gt;dir_89a1adf13dffb155c372242433532d34</title>
<path fill="none" stroke="black" d="M291.855,-292.161C268.146,-280.947 233.536,-264.578 207.424,-252.227"/>
<polygon fill="black" stroke="black" points="208.76,-248.988 198.224,-247.876 205.767,-255.316 208.76,-248.988"/>
<g id="a_edge21&#45;headlabel"><a xlink:href="dir_000054_000036.xhtml" target="_top" xlink:title="4">
<text text-anchor="middle" x="213.223" y="-245.458" font-family="Helvetica,sans-Serif" font-size="10.00">4</text>
</a>
</g>
</g>
</g>
</svg>
