<?xml version="1.0" encoding="UTF-8" standalone="no"?>
<!DOCTYPE svg PUBLIC "-//W3C//DTD SVG 1.1//EN"
 "http://www.w3.org/Graphics/SVG/1.1/DTD/svg11.dtd">
<!-- Generated by graphviz version 2.38.0 (20140413.2041)
 -->
<!-- Title: src/gromacs/listed&#45;forces/disre.h Pages: 1 -->
<svg width="226pt" height="151pt"
 viewBox="0.00 0.00 226.00 151.00" xmlns="http://www.w3.org/2000/svg" xmlns:xlink="http://www.w3.org/1999/xlink">
<g id="graph0" class="graph" transform="scale(1 1) rotate(0) translate(4 147)">
<title>src/gromacs/listed&#45;forces/disre.h</title>
<polygon fill="white" stroke="none" points="-4,4 -4,-147 222,-147 222,4 -4,4"/>
<!-- Node1 -->
<g id="node1" class="node"><title>Node1</title>
<polygon fill="#bfbfbf" stroke="black" points="32,-112.5 32,-142.5 129,-142.5 129,-112.5 32,-112.5"/>
<text text-anchor="start" x="40" y="-130.5" font-family="Helvetica,sans-Serif" font-size="10.00">src/gromacs/listed</text>
<text text-anchor="middle" x="80.5" y="-119.5" font-family="Helvetica,sans-Serif" font-size="10.00">&#45;forces/disre.h</text>
</g>
<!-- Node2 -->
<g id="node2" class="node"><title>Node2</title>
<polygon fill="white" stroke="#bfbfbf" points="0,-56.5 0,-75.5 43,-75.5 43,-56.5 0,-56.5"/>
<text text-anchor="middle" x="21.5" y="-63.5" font-family="Helvetica,sans-Serif" font-size="10.00">cstdio</text>
</g>
<!-- Node1&#45;&gt;Node2 -->
<g id="edge1" class="edge"><title>Node1&#45;&gt;Node2</title>
<path fill="none" stroke="midnightblue" d="M66.5178,-112.399C57.7677,-103.575 46.4711,-92.1827 37.3832,-83.0178"/>
<polygon fill="midnightblue" stroke="midnightblue" points="39.6115,-80.2942 30.085,-75.6578 34.6409,-85.2231 39.6115,-80.2942"/>
</g>
<!-- Node3 -->
<g id="node3" class="node"><title>Node3</title>
<g id="a_node3"><a xlink:href="basedefinitions_8h.xhtml" target="_top" xlink:title="Basic types and macros used throughout GROMACS. ">
<polygon fill="white" stroke="black" points="61,-56.5 61,-75.5 218,-75.5 218,-56.5 61,-56.5"/>
<text text-anchor="middle" x="139.5" y="-63.5" font-family="Helvetica,sans-Serif" font-size="10.00">gromacs/utility/basedefinitions.h</text>
</a>
</g>
</g>
<!-- Node1&#45;&gt;Node3 -->
<g id="edge2" class="edge"><title>Node1&#45;&gt;Node3</title>
<path fill="none" stroke="midnightblue" d="M94.4822,-112.399C103.232,-103.575 114.529,-92.1827 123.617,-83.0178"/>
<polygon fill="midnightblue" stroke="midnightblue" points="126.359,-85.2231 130.915,-75.6578 121.388,-80.2942 126.359,-85.2231"/>
</g>
<!-- Node4 -->
<g id="node4" class="node"><title>Node4</title>
<polygon fill="white" stroke="#bfbfbf" points="79,-0.5 79,-19.5 128,-19.5 128,-0.5 79,-0.5"/>
<text text-anchor="middle" x="103.5" y="-7.5" font-family="Helvetica,sans-Serif" font-size="10.00">stdint.h</text>
</g>
<!-- Node3&#45;&gt;Node4 -->
<g id="edge3" class="edge"><title>Node3&#45;&gt;Node4</title>
<path fill="none" stroke="midnightblue" d="M133.555,-56.083C128.523,-48.5341 121.163,-37.4948 114.987,-28.2298"/>
<polygon fill="midnightblue" stroke="midnightblue" points="117.793,-26.1301 109.334,-19.7511 111.969,-30.0131 117.793,-26.1301"/>
</g>
<!-- Node5 -->
<g id="node5" class="node"><title>Node5</title>
<polygon fill="white" stroke="#bfbfbf" points="146,-0.5 146,-19.5 205,-19.5 205,-0.5 146,-0.5"/>
<text text-anchor="middle" x="175.5" y="-7.5" font-family="Helvetica,sans-Serif" font-size="10.00">inttypes.h</text>
</g>
<!-- Node3&#45;&gt;Node5 -->
<g id="edge4" class="edge"><title>Node3&#45;&gt;Node5</title>
<path fill="none" stroke="midnightblue" d="M145.445,-56.083C150.477,-48.5341 157.837,-37.4948 164.013,-28.2298"/>
<polygon fill="midnightblue" stroke="midnightblue" points="167.031,-30.0131 169.666,-19.7511 161.207,-26.1301 167.031,-30.0131"/>
</g>
</g>
</svg>
