<?xml version="1.0" encoding="UTF-8" standalone="no"?>
<!DOCTYPE svg PUBLIC "-//W3C//DTD SVG 1.1//EN"
 "http://www.w3.org/Graphics/SVG/1.1/DTD/svg11.dtd">
<!-- Generated by graphviz version 2.38.0 (20140413.2041)
 -->
<!-- Title: src/gromacs/domdec/domdec_box.cpp Pages: 1 -->
<svg width="874pt" height="218pt"
 viewBox="0.00 0.00 873.50 218.00" xmlns="http://www.w3.org/2000/svg" xmlns:xlink="http://www.w3.org/1999/xlink">
<g id="graph0" class="graph" transform="scale(1 1) rotate(0) translate(4 214)">
<title>src/gromacs/domdec/domdec_box.cpp</title>
<polygon fill="white" stroke="none" points="-4,4 -4,-214 869.5,-214 869.5,4 -4,4"/>
<!-- Node1 -->
<g id="node1" class="node"><title>Node1</title>
<polygon fill="#bfbfbf" stroke="black" points="309.5,-179.5 309.5,-209.5 417.5,-209.5 417.5,-179.5 309.5,-179.5"/>
<text text-anchor="start" x="317.5" y="-197.5" font-family="Helvetica,sans-Serif" font-size="10.00">src/gromacs/domdec</text>
<text text-anchor="middle" x="363.5" y="-186.5" font-family="Helvetica,sans-Serif" font-size="10.00">/domdec_box.cpp</text>
</g>
<!-- Node2 -->
<g id="node2" class="node"><title>Node2</title>
<g id="a_node2"><a xlink:href="gmxpre_8h.xhtml" target="_top" xlink:title="Prerequisite header file for GROMACS build. ">
<polygon fill="white" stroke="black" points="0,-118 0,-137 57,-137 57,-118 0,-118"/>
<text text-anchor="middle" x="28.5" y="-125" font-family="Helvetica,sans-Serif" font-size="10.00">gmxpre.h</text>
</a>
</g>
</g>
<!-- Node1&#45;&gt;Node2 -->
<g id="edge1" class="edge"><title>Node1&#45;&gt;Node2</title>
<path fill="none" stroke="midnightblue" d="M309.427,-187.541C249.369,-180.179 149.879,-165.76 66.5,-143 63.8455,-142.275 61.1186,-141.435 58.4028,-140.532"/>
<polygon fill="midnightblue" stroke="midnightblue" points="59.3603,-137.157 48.7658,-137.075 56.9966,-143.746 59.3603,-137.157"/>
</g>
<!-- Node3 -->
<g id="node3" class="node"><title>Node3</title>
<g id="a_node3"><a xlink:href="domdec_8h.xhtml" target="_top" xlink:title="This file declares functions for mdrun to call to manage the details of its domain decomposition...">
<polygon fill="white" stroke="black" points="371,-118 371,-137 508,-137 508,-118 371,-118"/>
<text text-anchor="middle" x="439.5" y="-125" font-family="Helvetica,sans-Serif" font-size="10.00">gromacs/domdec/domdec.h</text>
</a>
</g>
</g>
<!-- Node1&#45;&gt;Node3 -->
<g id="edge2" class="edge"><title>Node1&#45;&gt;Node3</title>
<path fill="none" stroke="midnightblue" d="M379.991,-179.396C392.193,-168.96 408.807,-154.751 421.379,-143.998"/>
<polygon fill="midnightblue" stroke="midnightblue" points="424.009,-146.354 429.334,-137.195 419.46,-141.034 424.009,-146.354"/>
</g>
<!-- Node9 -->
<g id="node9" class="node"><title>Node9</title>
<g id="a_node9"><a xlink:href="domdec__network_8h.xhtml" target="_top" xlink:title="This file declares functions for (mostly) the domdec module to use MPI functionality. ">
<polygon fill="white" stroke="black" points="224,-112.5 224,-142.5 353,-142.5 353,-112.5 224,-112.5"/>
<text text-anchor="start" x="232" y="-130.5" font-family="Helvetica,sans-Serif" font-size="10.00">gromacs/domdec/domdec</text>
<text text-anchor="middle" x="288.5" y="-119.5" font-family="Helvetica,sans-Serif" font-size="10.00">_network.h</text>
</a>
</g>
</g>
<!-- Node1&#45;&gt;Node9 -->
<g id="edge8" class="edge"><title>Node1&#45;&gt;Node9</title>
<path fill="none" stroke="midnightblue" d="M347.226,-179.396C337.103,-170.623 323.903,-159.183 312.582,-149.371"/>
<polygon fill="midnightblue" stroke="midnightblue" points="314.591,-146.481 304.742,-142.577 310.007,-151.771 314.591,-146.481"/>
</g>
<!-- Node10 -->
<g id="node10" class="node"><title>Node10</title>
<g id="a_node10"><a xlink:href="domdec__struct_8h.xhtml" target="_top" xlink:title="Declares structures related to domain decomposition. ">
<polygon fill="white" stroke="black" points="526,-112.5 526,-142.5 655,-142.5 655,-112.5 526,-112.5"/>
<text text-anchor="start" x="534" y="-130.5" font-family="Helvetica,sans-Serif" font-size="10.00">gromacs/domdec/domdec</text>
<text text-anchor="middle" x="590.5" y="-119.5" font-family="Helvetica,sans-Serif" font-size="10.00">_struct.h</text>
</a>
</g>
</g>
<!-- Node1&#45;&gt;Node10 -->
<g id="edge9" class="edge"><title>Node1&#45;&gt;Node10</title>
<path fill="none" stroke="midnightblue" d="M412.476,-179.476C447.412,-169.472 494.561,-155.971 531.561,-145.377"/>
<polygon fill="midnightblue" stroke="midnightblue" points="532.57,-148.729 541.22,-142.611 530.643,-141.999 532.57,-148.729"/>
</g>
<!-- Node14 -->
<g id="node14" class="node"><title>Node14</title>
<g id="a_node14"><a xlink:href="functions_8h.xhtml" target="_top" xlink:title="Declares simple math functions. ">
<polygon fill="white" stroke="black" points="693.5,-118 693.5,-137 823.5,-137 823.5,-118 693.5,-118"/>
<text text-anchor="middle" x="758.5" y="-125" font-family="Helvetica,sans-Serif" font-size="10.00">gromacs/math/functions.h</text>
</a>
</g>
</g>
<!-- Node1&#45;&gt;Node14 -->
<g id="edge15" class="edge"><title>Node1&#45;&gt;Node14</title>
<path fill="none" stroke="midnightblue" d="M417.595,-184.598C490.492,-172.603 619.941,-151.301 696.627,-138.682"/>
<polygon fill="midnightblue" stroke="midnightblue" points="697.328,-142.113 706.627,-137.036 696.191,-135.206 697.328,-142.113"/>
</g>
<!-- Node17 -->
<g id="node17" class="node"><title>Node17</title>
<g id="a_node17"><a xlink:href="fatalerror_8h.xhtml" target="_top" xlink:title="Declares fatal error handling and debugging routines for C code. ">
<polygon fill="white" stroke="black" points="75.5,-118 75.5,-137 205.5,-137 205.5,-118 75.5,-118"/>
<text text-anchor="middle" x="140.5" y="-125" font-family="Helvetica,sans-Serif" font-size="10.00">gromacs/utility/fatalerror.h</text>
</a>
</g>
</g>
<!-- Node1&#45;&gt;Node17 -->
<g id="edge19" class="edge"><title>Node1&#45;&gt;Node17</title>
<path fill="none" stroke="midnightblue" d="M315.387,-179.476C274.72,-167.622 217.206,-150.858 179.398,-139.838"/>
<polygon fill="midnightblue" stroke="midnightblue" points="180.34,-136.467 169.76,-137.029 178.381,-143.187 180.34,-136.467"/>
</g>
<!-- Node4 -->
<g id="node4" class="node"><title>Node4</title>
<polygon fill="white" stroke="#bfbfbf" points="181.5,-56.5 181.5,-75.5 227.5,-75.5 227.5,-56.5 181.5,-56.5"/>
<text text-anchor="middle" x="204.5" y="-63.5" font-family="Helvetica,sans-Serif" font-size="10.00">stdio.h</text>
</g>
<!-- Node3&#45;&gt;Node4 -->
<g id="edge3" class="edge"><title>Node3&#45;&gt;Node4</title>
<path fill="none" stroke="midnightblue" d="M403.846,-117.977C365.224,-108.668 301.554,-93.1011 237.426,-76.1874"/>
<polygon fill="midnightblue" stroke="midnightblue" points="238.112,-72.7486 227.549,-73.5727 236.32,-79.5155 238.112,-72.7486"/>
</g>
<!-- Node5 -->
<g id="node5" class="node"><title>Node5</title>
<g id="a_node5"><a xlink:href="basedefinitions_8h.xhtml" target="_top" xlink:title="Basic types and macros used throughout GROMACS. ">
<polygon fill="white" stroke="black" points="246,-56.5 246,-75.5 403,-75.5 403,-56.5 246,-56.5"/>
<text text-anchor="middle" x="324.5" y="-63.5" font-family="Helvetica,sans-Serif" font-size="10.00">gromacs/utility/basedefinitions.h</text>
</a>
</g>
</g>
<!-- Node3&#45;&gt;Node5 -->
<g id="edge4" class="edge"><title>Node3&#45;&gt;Node5</title>
<path fill="none" stroke="midnightblue" d="M423.023,-117.975C403.895,-108.078 372.127,-91.6416 349.848,-80.1151"/>
<polygon fill="midnightblue" stroke="midnightblue" points="351.436,-76.9958 340.946,-75.5091 348.219,-83.213 351.436,-76.9958"/>
</g>
<!-- Node8 -->
<g id="node8" class="node"><title>Node8</title>
<g id="a_node8"><a xlink:href="real_8h.xhtml" target="_top" xlink:title="Declares real and related constants. ">
<polygon fill="white" stroke="black" points="633,-56.5 633,-75.5 740,-75.5 740,-56.5 633,-56.5"/>
<text text-anchor="middle" x="686.5" y="-63.5" font-family="Helvetica,sans-Serif" font-size="10.00">gromacs/utility/real.h</text>
</a>
</g>
</g>
<!-- Node3&#45;&gt;Node8 -->
<g id="edge7" class="edge"><title>Node3&#45;&gt;Node8</title>
<path fill="none" stroke="midnightblue" d="M474.889,-117.975C518.726,-107.415 593.466,-89.411 641.38,-77.8689"/>
<polygon fill="midnightblue" stroke="midnightblue" points="642.274,-81.2537 651.177,-75.5091 640.635,-74.4484 642.274,-81.2537"/>
</g>
<!-- Node6 -->
<g id="node6" class="node"><title>Node6</title>
<polygon fill="white" stroke="#bfbfbf" points="336,-0.5 336,-19.5 385,-19.5 385,-0.5 336,-0.5"/>
<text text-anchor="middle" x="360.5" y="-7.5" font-family="Helvetica,sans-Serif" font-size="10.00">stdint.h</text>
</g>
<!-- Node5&#45;&gt;Node6 -->
<g id="edge5" class="edge"><title>Node5&#45;&gt;Node6</title>
<path fill="none" stroke="midnightblue" d="M330.445,-56.083C335.477,-48.5341 342.837,-37.4948 349.013,-28.2298"/>
<polygon fill="midnightblue" stroke="midnightblue" points="352.031,-30.0131 354.666,-19.7511 346.207,-26.1301 352.031,-30.0131"/>
</g>
<!-- Node7 -->
<g id="node7" class="node"><title>Node7</title>
<polygon fill="white" stroke="#bfbfbf" points="259,-0.5 259,-19.5 318,-19.5 318,-0.5 259,-0.5"/>
<text text-anchor="middle" x="288.5" y="-7.5" font-family="Helvetica,sans-Serif" font-size="10.00">inttypes.h</text>
</g>
<!-- Node5&#45;&gt;Node7 -->
<g id="edge6" class="edge"><title>Node5&#45;&gt;Node7</title>
<path fill="none" stroke="midnightblue" d="M318.555,-56.083C313.523,-48.5341 306.163,-37.4948 299.987,-28.2298"/>
<polygon fill="midnightblue" stroke="midnightblue" points="302.793,-26.1301 294.334,-19.7511 296.969,-30.0131 302.793,-26.1301"/>
</g>
<!-- Node10&#45;&gt;Node5 -->
<g id="edge11" class="edge"><title>Node10&#45;&gt;Node5</title>
<path fill="none" stroke="midnightblue" d="M527.799,-112.475C480.305,-101.851 416.028,-87.4734 372.562,-77.7507"/>
<polygon fill="midnightblue" stroke="midnightblue" points="373.051,-74.2737 362.528,-75.5064 371.523,-81.1049 373.051,-74.2737"/>
</g>
<!-- Node10&#45;&gt;Node8 -->
<g id="edge14" class="edge"><title>Node10&#45;&gt;Node8</title>
<path fill="none" stroke="midnightblue" d="M613.251,-112.399C628.495,-102.951 648.489,-90.5589 663.736,-81.1089"/>
<polygon fill="midnightblue" stroke="midnightblue" points="665.875,-83.9009 672.531,-75.6578 662.187,-77.951 665.875,-83.9009"/>
</g>
<!-- Node11 -->
<g id="node11" class="node"><title>Node11</title>
<polygon fill="white" stroke="#bfbfbf" points="566,-56.5 566,-75.5 615,-75.5 615,-56.5 566,-56.5"/>
<text text-anchor="middle" x="590.5" y="-63.5" font-family="Helvetica,sans-Serif" font-size="10.00">cstddef</text>
</g>
<!-- Node10&#45;&gt;Node11 -->
<g id="edge10" class="edge"><title>Node10&#45;&gt;Node11</title>
<path fill="none" stroke="midnightblue" d="M590.5,-112.399C590.5,-104.466 590.5,-94.458 590.5,-85.8583"/>
<polygon fill="midnightblue" stroke="midnightblue" points="594,-85.6577 590.5,-75.6578 587,-85.6578 594,-85.6577"/>
</g>
<!-- Node12 -->
<g id="node12" class="node"><title>Node12</title>
<g id="a_node12"><a xlink:href="gmxmpi_8h.xhtml" target="_top" xlink:title="Wraps &lt;mpi.h&gt; usage in Gromacs. ">
<polygon fill="white" stroke="black" points="421.5,-56.5 421.5,-75.5 547.5,-75.5 547.5,-56.5 421.5,-56.5"/>
<text text-anchor="middle" x="484.5" y="-63.5" font-family="Helvetica,sans-Serif" font-size="10.00">gromacs/utility/gmxmpi.h</text>
</a>
</g>
</g>
<!-- Node10&#45;&gt;Node12 -->
<g id="edge12" class="edge"><title>Node10&#45;&gt;Node12</title>
<path fill="none" stroke="midnightblue" d="M565.379,-112.399C548.23,-102.773 525.635,-90.0902 508.688,-80.5772"/>
<polygon fill="midnightblue" stroke="midnightblue" points="510.357,-77.5006 499.924,-75.6578 506.931,-83.6047 510.357,-77.5006"/>
</g>
<!-- Node13 -->
<g id="node13" class="node"><title>Node13</title>
<polygon fill="white" stroke="#bfbfbf" points="459,-0.5 459,-19.5 510,-19.5 510,-0.5 459,-0.5"/>
<text text-anchor="middle" x="484.5" y="-7.5" font-family="Helvetica,sans-Serif" font-size="10.00">config.h</text>
</g>
<!-- Node12&#45;&gt;Node13 -->
<g id="edge13" class="edge"><title>Node12&#45;&gt;Node13</title>
<path fill="none" stroke="midnightblue" d="M484.5,-56.083C484.5,-49.0059 484.5,-38.8611 484.5,-29.9865"/>
<polygon fill="midnightblue" stroke="midnightblue" points="488,-29.751 484.5,-19.7511 481,-29.7511 488,-29.751"/>
</g>
<!-- Node14&#45;&gt;Node8 -->
<g id="edge18" class="edge"><title>Node14&#45;&gt;Node8</title>
<path fill="none" stroke="midnightblue" d="M748.184,-117.975C736.849,-108.608 718.427,-93.3839 704.661,-82.0081"/>
<polygon fill="midnightblue" stroke="midnightblue" points="706.735,-79.1813 696.797,-75.5091 702.276,-84.5773 706.735,-79.1813"/>
</g>
<!-- Node15 -->
<g id="node15" class="node"><title>Node15</title>
<polygon fill="white" stroke="#bfbfbf" points="757.5,-56.5 757.5,-75.5 801.5,-75.5 801.5,-56.5 757.5,-56.5"/>
<text text-anchor="middle" x="779.5" y="-63.5" font-family="Helvetica,sans-Serif" font-size="10.00">cmath</text>
</g>
<!-- Node14&#45;&gt;Node15 -->
<g id="edge16" class="edge"><title>Node14&#45;&gt;Node15</title>
<path fill="none" stroke="midnightblue" d="M761.509,-117.975C764.534,-109.404 769.29,-95.9269 773.153,-84.983"/>
<polygon fill="midnightblue" stroke="midnightblue" points="776.469,-86.1039 776.497,-75.5091 769.868,-83.7741 776.469,-86.1039"/>
</g>
<!-- Node16 -->
<g id="node16" class="node"><title>Node16</title>
<polygon fill="white" stroke="#bfbfbf" points="819.5,-56.5 819.5,-75.5 865.5,-75.5 865.5,-56.5 819.5,-56.5"/>
<text text-anchor="middle" x="842.5" y="-63.5" font-family="Helvetica,sans-Serif" font-size="10.00">cstdint</text>
</g>
<!-- Node14&#45;&gt;Node16 -->
<g id="edge17" class="edge"><title>Node14&#45;&gt;Node16</title>
<path fill="none" stroke="midnightblue" d="M770.535,-117.975C784.008,-108.431 806.066,-92.8073 822.215,-81.3683"/>
<polygon fill="midnightblue" stroke="midnightblue" points="824.35,-84.1454 830.487,-75.5091 820.304,-78.4332 824.35,-84.1454"/>
</g>
<!-- Node17&#45;&gt;Node4 -->
<g id="edge21" class="edge"><title>Node17&#45;&gt;Node4</title>
<path fill="none" stroke="midnightblue" d="M149.67,-117.975C159.65,-108.697 175.812,-93.6706 188.009,-82.331"/>
<polygon fill="midnightblue" stroke="midnightblue" points="190.407,-84.8814 195.347,-75.5091 185.64,-79.7547 190.407,-84.8814"/>
</g>
<!-- Node17&#45;&gt;Node5 -->
<g id="edge22" class="edge"><title>Node17&#45;&gt;Node5</title>
<path fill="none" stroke="midnightblue" d="M166.863,-117.975C198.835,-107.636 252.876,-90.1611 288.622,-78.6017"/>
<polygon fill="midnightblue" stroke="midnightblue" points="289.748,-81.9162 298.186,-75.5091 287.594,-75.2558 289.748,-81.9162"/>
</g>
<!-- Node18 -->
<g id="node18" class="node"><title>Node18</title>
<polygon fill="white" stroke="#bfbfbf" points="111.5,-56.5 111.5,-75.5 163.5,-75.5 163.5,-56.5 111.5,-56.5"/>
<text text-anchor="middle" x="137.5" y="-63.5" font-family="Helvetica,sans-Serif" font-size="10.00">stdarg.h</text>
</g>
<!-- Node17&#45;&gt;Node18 -->
<g id="edge20" class="edge"><title>Node17&#45;&gt;Node18</title>
<path fill="none" stroke="midnightblue" d="M140.07,-117.975C139.647,-109.58 138.986,-96.4806 138.441,-85.6631"/>
<polygon fill="midnightblue" stroke="midnightblue" points="141.928,-85.3201 137.929,-75.5091 134.937,-85.6727 141.928,-85.3201"/>
</g>
</g>
</svg>
