<?xml version="1.0" encoding="UTF-8" standalone="no"?>
<!DOCTYPE svg PUBLIC "-//W3C//DTD SVG 1.1//EN"
 "http://www.w3.org/Graphics/SVG/1.1/DTD/svg11.dtd">
<!-- Generated by graphviz version 2.38.0 (20140413.2041)
 -->
<!-- Title: src/gromacs/domdec/domdec.h Pages: 1 -->
<svg width="355pt" height="151pt"
 viewBox="0.00 0.00 354.50 151.00" xmlns="http://www.w3.org/2000/svg" xmlns:xlink="http://www.w3.org/1999/xlink">
<g id="graph0" class="graph" transform="scale(1 1) rotate(0) translate(4 147)">
<title>src/gromacs/domdec/domdec.h</title>
<polygon fill="white" stroke="none" points="-4,4 -4,-147 350.5,-147 350.5,4 -4,4"/>
<!-- Node1 -->
<g id="node1" class="node"><title>Node1</title>
<polygon fill="#bfbfbf" stroke="black" points="89,-112.5 89,-142.5 197,-142.5 197,-112.5 89,-112.5"/>
<text text-anchor="start" x="97" y="-130.5" font-family="Helvetica,sans-Serif" font-size="10.00">src/gromacs/domdec</text>
<text text-anchor="middle" x="143" y="-119.5" font-family="Helvetica,sans-Serif" font-size="10.00">/domdec.h</text>
</g>
<!-- Node2 -->
<g id="node2" class="node"><title>Node2</title>
<polygon fill="white" stroke="#bfbfbf" points="0,-56.5 0,-75.5 46,-75.5 46,-56.5 0,-56.5"/>
<text text-anchor="middle" x="23" y="-63.5" font-family="Helvetica,sans-Serif" font-size="10.00">stdio.h</text>
</g>
<!-- Node1&#45;&gt;Node2 -->
<g id="edge1" class="edge"><title>Node1&#45;&gt;Node2</title>
<path fill="none" stroke="midnightblue" d="M114.562,-112.399C94.8772,-102.639 68.8567,-89.7373 49.5868,-80.1826"/>
<polygon fill="midnightblue" stroke="midnightblue" points="50.975,-76.9644 40.4611,-75.6578 47.8654,-83.2358 50.975,-76.9644"/>
</g>
<!-- Node3 -->
<g id="node3" class="node"><title>Node3</title>
<g id="a_node3"><a xlink:href="basedefinitions_8h.xhtml" target="_top" xlink:title="Basic types and macros used throughout GROMACS. ">
<polygon fill="white" stroke="black" points="64.5,-56.5 64.5,-75.5 221.5,-75.5 221.5,-56.5 64.5,-56.5"/>
<text text-anchor="middle" x="143" y="-63.5" font-family="Helvetica,sans-Serif" font-size="10.00">gromacs/utility/basedefinitions.h</text>
</a>
</g>
</g>
<!-- Node1&#45;&gt;Node3 -->
<g id="edge2" class="edge"><title>Node1&#45;&gt;Node3</title>
<path fill="none" stroke="midnightblue" d="M143,-112.399C143,-104.466 143,-94.458 143,-85.8583"/>
<polygon fill="midnightblue" stroke="midnightblue" points="146.5,-85.6577 143,-75.6578 139.5,-85.6578 146.5,-85.6577"/>
</g>
<!-- Node6 -->
<g id="node6" class="node"><title>Node6</title>
<g id="a_node6"><a xlink:href="real_8h.xhtml" target="_top" xlink:title="Declares real and related constants. ">
<polygon fill="white" stroke="black" points="239.5,-56.5 239.5,-75.5 346.5,-75.5 346.5,-56.5 239.5,-56.5"/>
<text text-anchor="middle" x="293" y="-63.5" font-family="Helvetica,sans-Serif" font-size="10.00">gromacs/utility/real.h</text>
</a>
</g>
</g>
<!-- Node1&#45;&gt;Node6 -->
<g id="edge5" class="edge"><title>Node1&#45;&gt;Node6</title>
<path fill="none" stroke="midnightblue" d="M178.548,-112.399C203.828,-102.372 237.467,-89.028 261.727,-79.405"/>
<polygon fill="midnightblue" stroke="midnightblue" points="263.169,-82.5984 271.174,-75.6578 260.588,-76.0916 263.169,-82.5984"/>
</g>
<!-- Node4 -->
<g id="node4" class="node"><title>Node4</title>
<polygon fill="white" stroke="#bfbfbf" points="82.5,-0.5 82.5,-19.5 131.5,-19.5 131.5,-0.5 82.5,-0.5"/>
<text text-anchor="middle" x="107" y="-7.5" font-family="Helvetica,sans-Serif" font-size="10.00">stdint.h</text>
</g>
<!-- Node3&#45;&gt;Node4 -->
<g id="edge3" class="edge"><title>Node3&#45;&gt;Node4</title>
<path fill="none" stroke="midnightblue" d="M137.055,-56.083C132.023,-48.5341 124.663,-37.4948 118.487,-28.2298"/>
<polygon fill="midnightblue" stroke="midnightblue" points="121.293,-26.1301 112.834,-19.7511 115.469,-30.0131 121.293,-26.1301"/>
</g>
<!-- Node5 -->
<g id="node5" class="node"><title>Node5</title>
<polygon fill="white" stroke="#bfbfbf" points="149.5,-0.5 149.5,-19.5 208.5,-19.5 208.5,-0.5 149.5,-0.5"/>
<text text-anchor="middle" x="179" y="-7.5" font-family="Helvetica,sans-Serif" font-size="10.00">inttypes.h</text>
</g>
<!-- Node3&#45;&gt;Node5 -->
<g id="edge4" class="edge"><title>Node3&#45;&gt;Node5</title>
<path fill="none" stroke="midnightblue" d="M148.945,-56.083C153.977,-48.5341 161.337,-37.4948 167.513,-28.2298"/>
<polygon fill="midnightblue" stroke="midnightblue" points="170.531,-30.0131 173.166,-19.7511 164.707,-26.1301 170.531,-30.0131"/>
</g>
</g>
</svg>
