<?xml version="1.0" encoding="UTF-8" standalone="no"?>
<!DOCTYPE svg PUBLIC "-//W3C//DTD SVG 1.1//EN"
 "http://www.w3.org/Graphics/SVG/1.1/DTD/svg11.dtd">
<!-- Generated by graphviz version 2.38.0 (20140413.2041)
 -->
<!-- Title: src/programs/mdrun/tests/energyreader.cpp Pages: 1 -->
<svg width="1294pt" height="397pt"
 viewBox="0.00 0.00 1293.50 397.00" xmlns="http://www.w3.org/2000/svg" xmlns:xlink="http://www.w3.org/1999/xlink">
<g id="graph0" class="graph" transform="scale(1 1) rotate(0) translate(4 393)">
<title>src/programs/mdrun/tests/energyreader.cpp</title>
<polygon fill="white" stroke="none" points="-4,4 -4,-393 1289.5,-393 1289.5,4 -4,4"/>
<!-- Node1 -->
<g id="node1" class="node"><title>Node1</title>
<polygon fill="#bfbfbf" stroke="black" points="392,-358.5 392,-388.5 511,-388.5 511,-358.5 392,-358.5"/>
<text text-anchor="start" x="400" y="-376.5" font-family="Helvetica,sans-Serif" font-size="10.00">src/programs/mdrun</text>
<text text-anchor="middle" x="451.5" y="-365.5" font-family="Helvetica,sans-Serif" font-size="10.00">/tests/energyreader.cpp</text>
</g>
<!-- Node2 -->
<g id="node2" class="node"><title>Node2</title>
<g id="a_node2"><a xlink:href="gmxpre_8h.xhtml" target="_top" xlink:title="Prerequisite header file for GROMACS build. ">
<polygon fill="white" stroke="black" points="0,-302.5 0,-321.5 57,-321.5 57,-302.5 0,-302.5"/>
<text text-anchor="middle" x="28.5" y="-309.5" font-family="Helvetica,sans-Serif" font-size="10.00">gmxpre.h</text>
</a>
</g>
</g>
<!-- Node1&#45;&gt;Node2 -->
<g id="edge1" class="edge"><title>Node1&#45;&gt;Node2</title>
<path fill="none" stroke="midnightblue" d="M391.728,-365.946C316.7,-357.401 184.171,-341.251 71.5,-322 70.0434,-321.751 68.5609,-321.488 67.0649,-321.215"/>
<polygon fill="midnightblue" stroke="midnightblue" points="67.6063,-317.755 57.1247,-319.3 66.2818,-324.629 67.6063,-317.755"/>
</g>
<!-- Node3 -->
<g id="node3" class="node"><title>Node3</title>
<g id="a_node3"><a xlink:href="energyreader_8h.xhtml" target="_top" xlink:title="Interfaces of related classes for tests that want to inspect energies produced by mdrun...">
<polygon fill="white" stroke="black" points="332,-302.5 332,-321.5 413,-321.5 413,-302.5 332,-302.5"/>
<text text-anchor="middle" x="372.5" y="-309.5" font-family="Helvetica,sans-Serif" font-size="10.00">energyreader.h</text>
</a>
</g>
</g>
<!-- Node1&#45;&gt;Node3 -->
<g id="edge2" class="edge"><title>Node1&#45;&gt;Node3</title>
<path fill="none" stroke="midnightblue" d="M432.778,-358.399C420.588,-349.218 404.708,-337.258 392.307,-327.918"/>
<polygon fill="midnightblue" stroke="midnightblue" points="394.089,-324.878 383.995,-321.658 389.877,-330.47 394.089,-324.878"/>
</g>
<!-- Node5 -->
<g id="node5" class="node"><title>Node5</title>
<polygon fill="white" stroke="#bfbfbf" points="114,-241 114,-260 149,-260 149,-241 114,-241"/>
<text text-anchor="middle" x="131.5" y="-248" font-family="Helvetica,sans-Serif" font-size="10.00">map</text>
</g>
<!-- Node1&#45;&gt;Node5 -->
<g id="edge37" class="edge"><title>Node1&#45;&gt;Node5</title>
<path fill="none" stroke="midnightblue" d="M406.003,-358.461C375.41,-348.781 334.288,-335.308 298.5,-322 237.616,-299.36 223.091,-291.853 163.5,-266 161.884,-265.299 160.226,-264.572 158.555,-263.833"/>
<polygon fill="midnightblue" stroke="midnightblue" points="159.617,-260.474 149.06,-259.58 156.755,-266.862 159.617,-260.474"/>
</g>
<!-- Node6 -->
<g id="node6" class="node"><title>Node6</title>
<polygon fill="white" stroke="#bfbfbf" points="173.5,-62 173.5,-81 225.5,-81 225.5,-62 173.5,-62"/>
<text text-anchor="middle" x="199.5" y="-69" font-family="Helvetica,sans-Serif" font-size="10.00">memory</text>
</g>
<!-- Node1&#45;&gt;Node6 -->
<g id="edge38" class="edge"><title>Node1&#45;&gt;Node6</title>
<path fill="none" stroke="midnightblue" d="M391.881,-365.309C288.171,-351.123 85.5,-315.245 85.5,-251.5 85.5,-251.5 85.5,-251.5 85.5,-188 85.5,-139.198 137.691,-103.559 171.446,-85.6129"/>
<polygon fill="midnightblue" stroke="midnightblue" points="173.109,-88.6934 180.419,-81.024 169.922,-82.4611 173.109,-88.6934"/>
</g>
<!-- Node7 -->
<g id="node7" class="node"><title>Node7</title>
<polygon fill="white" stroke="#bfbfbf" points="450,-123.5 450,-142.5 491,-142.5 491,-123.5 450,-123.5"/>
<text text-anchor="middle" x="470.5" y="-130.5" font-family="Helvetica,sans-Serif" font-size="10.00">string</text>
</g>
<!-- Node1&#45;&gt;Node7 -->
<g id="edge39" class="edge"><title>Node1&#45;&gt;Node7</title>
<path fill="none" stroke="midnightblue" d="M452.632,-358.295C455.887,-317.433 465.278,-199.551 468.977,-153.12"/>
<polygon fill="midnightblue" stroke="midnightblue" points="472.482,-153.192 469.787,-142.946 465.504,-152.636 472.482,-153.192"/>
</g>
<!-- Node8 -->
<g id="node8" class="node"><title>Node8</title>
<polygon fill="white" stroke="#bfbfbf" points="1177.5,-123.5 1177.5,-142.5 1221.5,-142.5 1221.5,-123.5 1177.5,-123.5"/>
<text text-anchor="middle" x="1199.5" y="-130.5" font-family="Helvetica,sans-Serif" font-size="10.00">vector</text>
</g>
<!-- Node1&#45;&gt;Node8 -->
<g id="edge40" class="edge"><title>Node1&#45;&gt;Node8</title>
<path fill="none" stroke="midnightblue" d="M495.498,-358.471C632.43,-314.811 1048.94,-182.007 1167.63,-144.163"/>
<polygon fill="midnightblue" stroke="midnightblue" points="1168.77,-147.473 1177.23,-141.101 1166.64,-140.804 1168.77,-147.473"/>
</g>
<!-- Node9 -->
<g id="node9" class="node"><title>Node9</title>
<g id="a_node9"><a xlink:href="scoped__cptr_8h.xhtml" target="_top" xlink:title="Declares gmx::scoped_cptr and gmx::scoped_guard_sfree. ">
<polygon fill="white" stroke="black" points="206,-235.5 206,-265.5 321,-265.5 321,-235.5 206,-235.5"/>
<text text-anchor="start" x="214" y="-253.5" font-family="Helvetica,sans-Serif" font-size="10.00">gromacs/utility/scoped</text>
<text text-anchor="middle" x="263.5" y="-242.5" font-family="Helvetica,sans-Serif" font-size="10.00">_cptr.h</text>
</a>
</g>
</g>
<!-- Node1&#45;&gt;Node9 -->
<g id="edge42" class="edge"><title>Node1&#45;&gt;Node9</title>
<path fill="none" stroke="midnightblue" d="M398.594,-358.431C374.005,-350.289 345.246,-338.361 322.5,-322 304.521,-309.068 288.697,-289.441 277.975,-274.177"/>
<polygon fill="midnightblue" stroke="midnightblue" points="280.786,-272.086 272.274,-265.778 274.994,-276.017 280.786,-272.086"/>
</g>
<!-- Node16 -->
<g id="node16" class="node"><title>Node16</title>
<g id="a_node16"><a xlink:href="testasserts_8h.xhtml" target="_top" xlink:title="Extra assertions for unit tests. ">
<polygon fill="white" stroke="black" points="498,-241 498,-260 609,-260 609,-241 498,-241"/>
<text text-anchor="middle" x="553.5" y="-248" font-family="Helvetica,sans-Serif" font-size="10.00">testutils/testasserts.h</text>
</a>
</g>
</g>
<!-- Node1&#45;&gt;Node16 -->
<g id="edge47" class="edge"><title>Node1&#45;&gt;Node16</title>
<path fill="none" stroke="midnightblue" d="M463.601,-358.145C482.683,-335.508 519.651,-291.654 539.724,-267.842"/>
<polygon fill="midnightblue" stroke="midnightblue" points="542.521,-269.954 546.291,-260.052 537.169,-265.442 542.521,-269.954"/>
</g>
<!-- Node18 -->
<g id="node18" class="node"><title>Node18</title>
<g id="a_node18"><a xlink:href="exceptions_8h.xhtml" target="_top" xlink:title="Declares common exception classes and macros for fatal error handling. ">
<polygon fill="white" stroke="black" points="771,-179.5 771,-198.5 910,-198.5 910,-179.5 771,-179.5"/>
<text text-anchor="middle" x="840.5" y="-186.5" font-family="Helvetica,sans-Serif" font-size="10.00">gromacs/utility/exceptions.h</text>
</a>
</g>
</g>
<!-- Node1&#45;&gt;Node18 -->
<g id="edge41" class="edge"><title>Node1&#45;&gt;Node18</title>
<path fill="none" stroke="midnightblue" d="M481.378,-358.483C554.612,-324.125 742.22,-236.108 812.955,-202.923"/>
<polygon fill="midnightblue" stroke="midnightblue" points="814.57,-206.031 822.137,-198.615 811.597,-199.694 814.57,-206.031"/>
</g>
<!-- Node27 -->
<g id="node27" class="node"><title>Node27</title>
<polygon fill="white" stroke="#bfbfbf" points="1042.5,-302.5 1042.5,-321.5 1098.5,-321.5 1098.5,-302.5 1042.5,-302.5"/>
<text text-anchor="middle" x="1070.5" y="-309.5" font-family="Helvetica,sans-Serif" font-size="10.00">algorithm</text>
</g>
<!-- Node1&#45;&gt;Node27 -->
<g id="edge36" class="edge"><title>Node1&#45;&gt;Node27</title>
<path fill="none" stroke="midnightblue" d="M511.177,-369.717C616.221,-364.275 840.808,-350.213 1028.5,-322 1029.74,-321.813 1031.01,-321.611 1032.28,-321.398"/>
<polygon fill="midnightblue" stroke="midnightblue" points="1032.92,-324.839 1042.12,-319.579 1031.65,-317.955 1032.92,-324.839"/>
</g>
<!-- Node28 -->
<g id="node28" class="node"><title>Node28</title>
<g id="a_node28"><a xlink:href="stringutil_8h.xhtml" target="_top" xlink:title="Declares common string utility and formatting routines. ">
<polygon fill="white" stroke="black" points="1069.5,-179.5 1069.5,-198.5 1197.5,-198.5 1197.5,-179.5 1069.5,-179.5"/>
<text text-anchor="middle" x="1133.5" y="-186.5" font-family="Helvetica,sans-Serif" font-size="10.00">gromacs/utility/stringutil.h</text>
</a>
</g>
</g>
<!-- Node1&#45;&gt;Node28 -->
<g id="edge43" class="edge"><title>Node1&#45;&gt;Node28</title>
<path fill="none" stroke="midnightblue" d="M511.182,-371.688C633.037,-369.258 906.055,-359.652 990.5,-322 1048.95,-295.94 1099.19,-236.184 1121.37,-206.859"/>
<polygon fill="midnightblue" stroke="midnightblue" points="1124.19,-208.926 1127.33,-198.806 1118.57,-204.761 1124.19,-208.926"/>
</g>
<!-- Node4 -->
<g id="node4" class="node"><title>Node4</title>
<polygon fill="white" stroke="#bfbfbf" points="339.5,-241 339.5,-260 385.5,-260 385.5,-241 339.5,-241"/>
<text text-anchor="middle" x="362.5" y="-248" font-family="Helvetica,sans-Serif" font-size="10.00">cstdint</text>
</g>
<!-- Node3&#45;&gt;Node4 -->
<g id="edge3" class="edge"><title>Node3&#45;&gt;Node4</title>
<path fill="none" stroke="midnightblue" d="M371.067,-302.475C369.656,-294.08 367.455,-280.981 365.637,-270.163"/>
<polygon fill="midnightblue" stroke="midnightblue" points="369.039,-269.291 363.93,-260.009 362.136,-270.451 369.039,-269.291"/>
</g>
<!-- Node3&#45;&gt;Node5 -->
<g id="edge4" class="edge"><title>Node3&#45;&gt;Node5</title>
<path fill="none" stroke="midnightblue" d="M331.753,-304.876C289.127,-297.859 220.599,-284.844 163.5,-266 161.632,-265.384 159.727,-264.692 157.824,-263.955"/>
<polygon fill="midnightblue" stroke="midnightblue" points="159.076,-260.685 148.503,-260.016 156.351,-267.132 159.076,-260.685"/>
</g>
<!-- Node3&#45;&gt;Node6 -->
<g id="edge5" class="edge"><title>Node3&#45;&gt;Node6</title>
<path fill="none" stroke="midnightblue" d="M331.777,-305.556C285.839,-298.588 215.093,-285.092 196.5,-266 151.317,-219.604 150.897,-185.324 168.5,-123 171.975,-110.696 179.382,-98.4364 186.085,-89.0781"/>
<polygon fill="midnightblue" stroke="midnightblue" points="188.89,-91.1708 192.143,-81.0878 183.312,-86.9414 188.89,-91.1708"/>
</g>
<!-- Node3&#45;&gt;Node7 -->
<g id="edge6" class="edge"><title>Node3&#45;&gt;Node7</title>
<path fill="none" stroke="midnightblue" d="M376.831,-302.153C391.083,-273.045 435.72,-181.935 437.5,-179 443.403,-169.267 450.839,-158.988 457.158,-150.716"/>
<polygon fill="midnightblue" stroke="midnightblue" points="460.06,-152.685 463.45,-142.647 454.54,-148.38 460.06,-152.685"/>
</g>
<!-- Node3&#45;&gt;Node8 -->
<g id="edge7" class="edge"><title>Node3&#45;&gt;Node8</title>
<path fill="none" stroke="midnightblue" d="M413.074,-304.066C461.915,-295.606 546.375,-280.619 618.5,-266 752.821,-238.776 789.719,-243.046 919.5,-199 939.459,-192.226 942.39,-185.313 962.5,-179 1048.15,-152.114 1076.05,-163.159 1167.3,-143.039"/>
<polygon fill="midnightblue" stroke="midnightblue" points="1168.25,-146.412 1177.23,-140.783 1166.7,-139.586 1168.25,-146.412"/>
</g>
<!-- Node3&#45;&gt;Node9 -->
<g id="edge8" class="edge"><title>Node3&#45;&gt;Node9</title>
<path fill="none" stroke="midnightblue" d="M356.883,-302.475C341.638,-294.153 317.922,-281.207 298.206,-270.445"/>
<polygon fill="midnightblue" stroke="midnightblue" points="299.644,-267.242 289.189,-265.523 296.29,-273.386 299.644,-267.242"/>
</g>
<!-- Node3&#45;&gt;Node16 -->
<g id="edge16" class="edge"><title>Node3&#45;&gt;Node16</title>
<path fill="none" stroke="midnightblue" d="M398.433,-302.475C429.75,-292.18 482.59,-274.81 517.756,-263.25"/>
<polygon fill="midnightblue" stroke="midnightblue" points="519.208,-266.457 527.615,-260.009 517.022,-259.807 519.208,-266.457"/>
</g>
<!-- Node10 -->
<g id="node10" class="node"><title>Node10</title>
<g id="a_node10"><a xlink:href="classhelpers_8h.xhtml" target="_top" xlink:title="Declares common utility classes and macros. ">
<polygon fill="white" stroke="black" points="177.5,-123.5 177.5,-142.5 323.5,-142.5 323.5,-123.5 177.5,-123.5"/>
<text text-anchor="middle" x="250.5" y="-130.5" font-family="Helvetica,sans-Serif" font-size="10.00">gromacs/utility/classhelpers.h</text>
</a>
</g>
</g>
<!-- Node9&#45;&gt;Node10 -->
<g id="edge9" class="edge"><title>Node9&#45;&gt;Node10</title>
<path fill="none" stroke="midnightblue" d="M258.761,-235.103C255.725,-225.101 252.07,-211.394 250.5,-199 248.548,-183.587 248.695,-165.953 249.249,-152.945"/>
<polygon fill="midnightblue" stroke="midnightblue" points="252.748,-153.051 249.797,-142.876 245.759,-152.671 252.748,-153.051"/>
</g>
<!-- Node11 -->
<g id="node11" class="node"><title>Node11</title>
<g id="a_node11"><a xlink:href="smalloc_8h.xhtml" target="_top" xlink:title="C memory allocation routines for GROMACS. ">
<polygon fill="white" stroke="black" points="260,-179.5 260,-198.5 385,-198.5 385,-179.5 260,-179.5"/>
<text text-anchor="middle" x="322.5" y="-186.5" font-family="Helvetica,sans-Serif" font-size="10.00">gromacs/utility/smalloc.h</text>
</a>
</g>
</g>
<!-- Node9&#45;&gt;Node11 -->
<g id="edge11" class="edge"><title>Node9&#45;&gt;Node11</title>
<path fill="none" stroke="midnightblue" d="M277.482,-235.399C286.232,-226.575 297.529,-215.183 306.617,-206.018"/>
<polygon fill="midnightblue" stroke="midnightblue" points="309.359,-208.223 313.915,-198.658 304.388,-203.294 309.359,-208.223"/>
</g>
<!-- Node10&#45;&gt;Node6 -->
<g id="edge10" class="edge"><title>Node10&#45;&gt;Node6</title>
<path fill="none" stroke="midnightblue" d="M243.193,-123.475C235.467,-114.462 223.092,-100.025 213.482,-88.8118"/>
<polygon fill="midnightblue" stroke="midnightblue" points="215.959,-86.3239 206.794,-81.0091 210.644,-90.8795 215.959,-86.3239"/>
</g>
<!-- Node12 -->
<g id="node12" class="node"><title>Node12</title>
<polygon fill="white" stroke="#bfbfbf" points="341.5,-123.5 341.5,-142.5 393.5,-142.5 393.5,-123.5 341.5,-123.5"/>
<text text-anchor="middle" x="367.5" y="-130.5" font-family="Helvetica,sans-Serif" font-size="10.00">stddef.h</text>
</g>
<!-- Node11&#45;&gt;Node12 -->
<g id="edge12" class="edge"><title>Node11&#45;&gt;Node12</title>
<path fill="none" stroke="midnightblue" d="M329.931,-179.083C336.353,-171.377 345.806,-160.033 353.622,-150.653"/>
<polygon fill="midnightblue" stroke="midnightblue" points="356.494,-152.674 360.207,-142.751 351.117,-148.193 356.494,-152.674"/>
</g>
<!-- Node13 -->
<g id="node13" class="node"><title>Node13</title>
<g id="a_node13"><a xlink:href="basedefinitions_8h.xhtml" target="_top" xlink:title="Basic types and macros used throughout GROMACS. ">
<polygon fill="white" stroke="black" points="533,-62 533,-81 690,-81 690,-62 533,-62"/>
<text text-anchor="middle" x="611.5" y="-69" font-family="Helvetica,sans-Serif" font-size="10.00">gromacs/utility/basedefinitions.h</text>
</a>
</g>
</g>
<!-- Node11&#45;&gt;Node13 -->
<g id="edge13" class="edge"><title>Node11&#45;&gt;Node13</title>
<path fill="none" stroke="midnightblue" d="M337.614,-179.435C367.02,-162.807 429.977,-127.391 440.5,-123 481.191,-106.02 529.54,-92.3011 564.428,-83.4715"/>
<polygon fill="midnightblue" stroke="midnightblue" points="565.488,-86.8145 574.345,-81.0012 563.796,-80.022 565.488,-86.8145"/>
</g>
<!-- Node14 -->
<g id="node14" class="node"><title>Node14</title>
<polygon fill="white" stroke="#bfbfbf" points="551,-0.5 551,-19.5 600,-19.5 600,-0.5 551,-0.5"/>
<text text-anchor="middle" x="575.5" y="-7.5" font-family="Helvetica,sans-Serif" font-size="10.00">stdint.h</text>
</g>
<!-- Node13&#45;&gt;Node14 -->
<g id="edge14" class="edge"><title>Node13&#45;&gt;Node14</title>
<path fill="none" stroke="midnightblue" d="M606.342,-61.9751C601.049,-53.2268 592.665,-39.3691 585.973,-28.3093"/>
<polygon fill="midnightblue" stroke="midnightblue" points="588.82,-26.2531 580.648,-19.5091 582.83,-29.8768 588.82,-26.2531"/>
</g>
<!-- Node15 -->
<g id="node15" class="node"><title>Node15</title>
<polygon fill="white" stroke="#bfbfbf" points="618,-0.5 618,-19.5 677,-19.5 677,-0.5 618,-0.5"/>
<text text-anchor="middle" x="647.5" y="-7.5" font-family="Helvetica,sans-Serif" font-size="10.00">inttypes.h</text>
</g>
<!-- Node13&#45;&gt;Node15 -->
<g id="edge15" class="edge"><title>Node13&#45;&gt;Node15</title>
<path fill="none" stroke="midnightblue" d="M616.658,-61.9751C621.951,-53.2268 630.335,-39.3691 637.027,-28.3093"/>
<polygon fill="midnightblue" stroke="midnightblue" points="640.17,-29.8768 642.352,-19.5091 634.18,-26.2531 640.17,-29.8768"/>
</g>
<!-- Node16&#45;&gt;Node7 -->
<g id="edge17" class="edge"><title>Node16&#45;&gt;Node7</title>
<path fill="none" stroke="midnightblue" d="M545.218,-240.953C535.981,-231.212 520.85,-214.614 509.5,-199 498.401,-183.731 487.496,-165.167 480.052,-151.793"/>
<polygon fill="midnightblue" stroke="midnightblue" points="482.958,-149.812 475.088,-142.719 476.816,-153.172 482.958,-149.812"/>
</g>
<!-- Node16&#45;&gt;Node13 -->
<g id="edge19" class="edge"><title>Node16&#45;&gt;Node13</title>
<path fill="none" stroke="midnightblue" d="M605.773,-240.969C650.302,-232.51 709.277,-218.063 723.5,-199 728.816,-191.876 728.982,-185.997 723.5,-179 682.286,-126.389 618.714,-195.611 577.5,-143 564.37,-126.239 580.05,-103.585 594.191,-88.5306"/>
<polygon fill="midnightblue" stroke="midnightblue" points="596.699,-90.9728 601.285,-81.4223 591.744,-86.0279 596.699,-90.9728"/>
</g>
<!-- Node17 -->
<g id="node17" class="node"><title>Node17</title>
<polygon fill="white" stroke="#bfbfbf" points="518,-179.5 518,-198.5 589,-198.5 589,-179.5 518,-179.5"/>
<text text-anchor="middle" x="553.5" y="-186.5" font-family="Helvetica,sans-Serif" font-size="10.00">gtest/gtest.h</text>
</g>
<!-- Node16&#45;&gt;Node17 -->
<g id="edge18" class="edge"><title>Node16&#45;&gt;Node17</title>
<path fill="none" stroke="midnightblue" d="M553.5,-240.975C553.5,-232.58 553.5,-219.481 553.5,-208.663"/>
<polygon fill="midnightblue" stroke="midnightblue" points="557,-208.509 553.5,-198.509 550,-208.509 557,-208.509"/>
</g>
<!-- Node16&#45;&gt;Node18 -->
<g id="edge20" class="edge"><title>Node16&#45;&gt;Node18</title>
<path fill="none" stroke="midnightblue" d="M594.62,-240.975C645.982,-230.327 733.856,-212.109 789.464,-200.581"/>
<polygon fill="midnightblue" stroke="midnightblue" points="790.375,-203.966 799.456,-198.509 788.954,-197.112 790.375,-203.966"/>
</g>
<!-- Node26 -->
<g id="node26" class="node"><title>Node26</title>
<g id="a_node26"><a xlink:href="real_8h.xhtml" target="_top" xlink:title="Declares real and related constants. ">
<polygon fill="white" stroke="black" points="607,-179.5 607,-198.5 714,-198.5 714,-179.5 607,-179.5"/>
<text text-anchor="middle" x="660.5" y="-186.5" font-family="Helvetica,sans-Serif" font-size="10.00">gromacs/utility/real.h</text>
</a>
</g>
</g>
<!-- Node16&#45;&gt;Node26 -->
<g id="edge35" class="edge"><title>Node16&#45;&gt;Node26</title>
<path fill="none" stroke="midnightblue" d="M568.83,-240.975C586.47,-231.166 615.66,-214.935 636.358,-203.425"/>
<polygon fill="midnightblue" stroke="midnightblue" points="638.159,-206.428 645.198,-198.509 634.757,-200.31 638.159,-206.428"/>
</g>
<!-- Node18&#45;&gt;Node6 -->
<g id="edge24" class="edge"><title>Node18&#45;&gt;Node6</title>
<path fill="none" stroke="midnightblue" d="M782.251,-179.483C728.777,-171.321 647.47,-158.045 577.5,-143 542.932,-135.567 535.08,-130.377 500.5,-123 405.613,-102.758 292.476,-85.6375 235.738,-77.5284"/>
<polygon fill="midnightblue" stroke="midnightblue" points="236.21,-74.0603 225.817,-76.1204 235.226,-80.9909 236.21,-74.0603"/>
</g>
<!-- Node18&#45;&gt;Node7 -->
<g id="edge25" class="edge"><title>Node18&#45;&gt;Node7</title>
<path fill="none" stroke="midnightblue" d="M770.817,-181.068C702.783,-173.73 596.503,-160.748 505.5,-143 504.037,-142.715 502.545,-142.405 501.041,-142.078"/>
<polygon fill="midnightblue" stroke="midnightblue" points="501.673,-138.631 491.136,-139.738 500.063,-145.443 501.673,-138.631"/>
</g>
<!-- Node18&#45;&gt;Node8 -->
<g id="edge28" class="edge"><title>Node18&#45;&gt;Node8</title>
<path fill="none" stroke="midnightblue" d="M910.141,-179.66C986.929,-170.261 1106.65,-154.963 1167.33,-142.935"/>
<polygon fill="midnightblue" stroke="midnightblue" points="1168.16,-146.337 1177.25,-140.883 1166.75,-139.482 1168.16,-146.337"/>
</g>
<!-- Node18&#45;&gt;Node10 -->
<g id="edge30" class="edge"><title>Node18&#45;&gt;Node10</title>
<path fill="none" stroke="midnightblue" d="M770.611,-182.276C674.641,-174.311 496.391,-159.146 333.989,-143.13"/>
<polygon fill="midnightblue" stroke="midnightblue" points="334.106,-139.625 323.81,-142.123 333.416,-146.591 334.106,-139.625"/>
</g>
<!-- Node18&#45;&gt;Node13 -->
<g id="edge29" class="edge"><title>Node18&#45;&gt;Node13</title>
<path fill="none" stroke="midnightblue" d="M796.158,-179.461C765.956,-172.462 725.759,-160.774 693.5,-143 667.175,-128.495 641.707,-104.561 626.319,-88.6631"/>
<polygon fill="midnightblue" stroke="midnightblue" points="628.653,-86.0373 619.24,-81.1748 623.566,-90.8461 628.653,-86.0373"/>
</g>
<!-- Node19 -->
<g id="node19" class="node"><title>Node19</title>
<polygon fill="white" stroke="#bfbfbf" points="896,-123.5 896,-142.5 939,-142.5 939,-123.5 896,-123.5"/>
<text text-anchor="middle" x="917.5" y="-130.5" font-family="Helvetica,sans-Serif" font-size="10.00">cstdio</text>
</g>
<!-- Node18&#45;&gt;Node19 -->
<g id="edge21" class="edge"><title>Node18&#45;&gt;Node19</title>
<path fill="none" stroke="midnightblue" d="M852.871,-179.324C864.658,-171.058 882.632,-158.453 896.636,-148.632"/>
<polygon fill="midnightblue" stroke="midnightblue" points="898.982,-151.262 905.159,-142.655 894.962,-145.531 898.982,-151.262"/>
</g>
<!-- Node20 -->
<g id="node20" class="node"><title>Node20</title>
<polygon fill="white" stroke="#bfbfbf" points="957,-123.5 957,-142.5 1002,-142.5 1002,-123.5 957,-123.5"/>
<text text-anchor="middle" x="979.5" y="-130.5" font-family="Helvetica,sans-Serif" font-size="10.00">cstdlib</text>
</g>
<!-- Node18&#45;&gt;Node20 -->
<g id="edge22" class="edge"><title>Node18&#45;&gt;Node20</title>
<path fill="none" stroke="midnightblue" d="M862.525,-179.444C885.604,-170.478 922.062,-156.314 948.141,-146.183"/>
<polygon fill="midnightblue" stroke="midnightblue" points="949.524,-149.4 957.578,-142.516 946.989,-142.875 949.524,-149.4"/>
</g>
<!-- Node21 -->
<g id="node21" class="node"><title>Node21</title>
<polygon fill="white" stroke="#bfbfbf" points="1020,-123.5 1020,-142.5 1079,-142.5 1079,-123.5 1020,-123.5"/>
<text text-anchor="middle" x="1049.5" y="-130.5" font-family="Helvetica,sans-Serif" font-size="10.00">exception</text>
</g>
<!-- Node18&#45;&gt;Node21 -->
<g id="edge23" class="edge"><title>Node18&#45;&gt;Node21</title>
<path fill="none" stroke="midnightblue" d="M873.617,-179.444C910.676,-169.868 970.68,-154.365 1010.12,-144.176"/>
<polygon fill="midnightblue" stroke="midnightblue" points="1011.11,-147.534 1019.92,-141.643 1009.36,-140.756 1011.11,-147.534"/>
</g>
<!-- Node22 -->
<g id="node22" class="node"><title>Node22</title>
<polygon fill="white" stroke="#bfbfbf" points="1097.5,-123.5 1097.5,-142.5 1159.5,-142.5 1159.5,-123.5 1097.5,-123.5"/>
<text text-anchor="middle" x="1128.5" y="-130.5" font-family="Helvetica,sans-Serif" font-size="10.00">type_traits</text>
</g>
<!-- Node18&#45;&gt;Node22 -->
<g id="edge26" class="edge"><title>Node18&#45;&gt;Node22</title>
<path fill="none" stroke="midnightblue" d="M890.966,-179.48C939.005,-171.226 1013.57,-158.044 1087.18,-143.207"/>
<polygon fill="midnightblue" stroke="midnightblue" points="1087.98,-146.616 1097.08,-141.199 1086.59,-139.755 1087.98,-146.616"/>
</g>
<!-- Node23 -->
<g id="node23" class="node"><title>Node23</title>
<polygon fill="white" stroke="#bfbfbf" points="586,-123.5 586,-142.5 645,-142.5 645,-123.5 586,-123.5"/>
<text text-anchor="middle" x="615.5" y="-130.5" font-family="Helvetica,sans-Serif" font-size="10.00">typeindex</text>
</g>
<!-- Node18&#45;&gt;Node23 -->
<g id="edge27" class="edge"><title>Node18&#45;&gt;Node23</title>
<path fill="none" stroke="midnightblue" d="M804.848,-179.444C764.095,-169.663 697.57,-153.697 655.197,-143.527"/>
<polygon fill="midnightblue" stroke="midnightblue" points="655.777,-140.067 645.237,-141.137 654.144,-146.874 655.777,-140.067"/>
</g>
<!-- Node24 -->
<g id="node24" class="node"><title>Node24</title>
<g id="a_node24"><a xlink:href="current__function_8h.xhtml" target="_top" xlink:title="Declares GMX_CURRENT_FUNCTION for getting the current function name. ">
<polygon fill="white" stroke="black" points="762,-56.5 762,-86.5 875,-86.5 875,-56.5 762,-56.5"/>
<text text-anchor="start" x="770" y="-74.5" font-family="Helvetica,sans-Serif" font-size="10.00">gromacs/utility/current</text>
<text text-anchor="middle" x="818.5" y="-63.5" font-family="Helvetica,sans-Serif" font-size="10.00">_function.h</text>
</a>
</g>
</g>
<!-- Node18&#45;&gt;Node24 -->
<g id="edge31" class="edge"><title>Node18&#45;&gt;Node24</title>
<path fill="none" stroke="midnightblue" d="M843.63,-179.433C847.763,-166.853 853.92,-142.735 848.5,-123 845.803,-113.179 840.644,-103.334 835.355,-94.9796"/>
<polygon fill="midnightblue" stroke="midnightblue" points="838.172,-92.8979 829.675,-86.5702 832.372,-96.816 838.172,-92.8979"/>
</g>
<!-- Node25 -->
<g id="node25" class="node"><title>Node25</title>
<g id="a_node25"><a xlink:href="gmxassert_8h.xhtml" target="_top" xlink:title="Defines assert macros customized for Gromacs. ">
<polygon fill="white" stroke="black" points="702,-123.5 702,-142.5 839,-142.5 839,-123.5 702,-123.5"/>
<text text-anchor="middle" x="770.5" y="-130.5" font-family="Helvetica,sans-Serif" font-size="10.00">gromacs/utility/gmxassert.h</text>
</a>
</g>
</g>
<!-- Node18&#45;&gt;Node25 -->
<g id="edge32" class="edge"><title>Node18&#45;&gt;Node25</title>
<path fill="none" stroke="midnightblue" d="M829.253,-179.324C818.703,-171.185 802.699,-158.839 790.058,-149.087"/>
<polygon fill="midnightblue" stroke="midnightblue" points="792.007,-146.171 781.951,-142.834 787.731,-151.713 792.007,-146.171"/>
</g>
<!-- Node25&#45;&gt;Node13 -->
<g id="edge33" class="edge"><title>Node25&#45;&gt;Node13</title>
<path fill="none" stroke="midnightblue" d="M747.719,-123.475C720.445,-113.269 674.587,-96.108 643.699,-84.5492"/>
<polygon fill="midnightblue" stroke="midnightblue" points="644.831,-81.2359 634.239,-81.0091 642.378,-87.7919 644.831,-81.2359"/>
</g>
<!-- Node25&#45;&gt;Node24 -->
<g id="edge34" class="edge"><title>Node25&#45;&gt;Node24</title>
<path fill="none" stroke="midnightblue" d="M777.377,-123.475C783.453,-115.944 792.583,-104.626 800.699,-94.5663"/>
<polygon fill="midnightblue" stroke="midnightblue" points="803.633,-96.5037 807.187,-86.523 798.184,-92.1085 803.633,-96.5037"/>
</g>
<!-- Node28&#45;&gt;Node7 -->
<g id="edge45" class="edge"><title>Node28&#45;&gt;Node7</title>
<path fill="none" stroke="midnightblue" d="M1069.28,-182.869C965.763,-174.582 755.571,-157.695 577.5,-143 551.752,-140.875 522.524,-138.413 501.13,-136.602"/>
<polygon fill="midnightblue" stroke="midnightblue" points="501.271,-133.102 491.011,-135.745 500.68,-140.077 501.271,-133.102"/>
</g>
<!-- Node28&#45;&gt;Node8 -->
<g id="edge46" class="edge"><title>Node28&#45;&gt;Node8</title>
<path fill="none" stroke="midnightblue" d="M1144.1,-179.324C1153.96,-171.263 1168.85,-159.077 1180.72,-149.369"/>
<polygon fill="midnightblue" stroke="midnightblue" points="1183.18,-151.875 1188.7,-142.834 1178.75,-146.457 1183.18,-151.875"/>
</g>
<!-- Node29 -->
<g id="node29" class="node"><title>Node29</title>
<polygon fill="white" stroke="#bfbfbf" points="1239.5,-123.5 1239.5,-142.5 1285.5,-142.5 1285.5,-123.5 1239.5,-123.5"/>
<text text-anchor="middle" x="1262.5" y="-130.5" font-family="Helvetica,sans-Serif" font-size="10.00">cstring</text>
</g>
<!-- Node28&#45;&gt;Node29 -->
<g id="edge44" class="edge"><title>Node28&#45;&gt;Node29</title>
<path fill="none" stroke="midnightblue" d="M1153.94,-179.444C1175.17,-170.557 1208.6,-156.563 1232.75,-146.451"/>
<polygon fill="midnightblue" stroke="midnightblue" points="1234.28,-149.606 1242.16,-142.516 1231.58,-143.149 1234.28,-149.606"/>
</g>
</g>
</svg>
