<?xml version="1.0" encoding="UTF-8" standalone="no"?>
<!DOCTYPE svg PUBLIC "-//W3C//DTD SVG 1.1//EN"
 "http://www.w3.org/Graphics/SVG/1.1/DTD/svg11.dtd">
<!-- Generated by graphviz version 2.38.0 (20140413.2041)
 -->
<!-- Title: src/gromacs/correlationfunctions/expfit.cpp Pages: 1 -->
<svg width="1370pt" height="229pt"
 viewBox="0.00 0.00 1370.00 229.00" xmlns="http://www.w3.org/2000/svg" xmlns:xlink="http://www.w3.org/1999/xlink">
<g id="graph0" class="graph" transform="scale(1 1) rotate(0) translate(4 225)">
<title>src/gromacs/correlationfunctions/expfit.cpp</title>
<polygon fill="white" stroke="none" points="-4,4 -4,-225 1366,-225 1366,4 -4,4"/>
<!-- Node1 -->
<g id="node1" class="node"><title>Node1</title>
<polygon fill="#bfbfbf" stroke="black" points="778.5,-190.5 778.5,-220.5 936.5,-220.5 936.5,-190.5 778.5,-190.5"/>
<text text-anchor="start" x="786.5" y="-208.5" font-family="Helvetica,sans-Serif" font-size="10.00">src/gromacs/correlationfunctions</text>
<text text-anchor="middle" x="857.5" y="-197.5" font-family="Helvetica,sans-Serif" font-size="10.00">/expfit.cpp</text>
</g>
<!-- Node2 -->
<g id="node2" class="node"><title>Node2</title>
<g id="a_node2"><a xlink:href="gmxpre_8h.xhtml" target="_top" xlink:title="Prerequisite header file for GROMACS build. ">
<polygon fill="white" stroke="black" points="0,-129 0,-148 57,-148 57,-129 0,-129"/>
<text text-anchor="middle" x="28.5" y="-136" font-family="Helvetica,sans-Serif" font-size="10.00">gmxpre.h</text>
</a>
</g>
</g>
<!-- Node1&#45;&gt;Node2 -->
<g id="edge1" class="edge"><title>Node1&#45;&gt;Node2</title>
<path fill="none" stroke="midnightblue" d="M778.399,-202.561C605.706,-197.824 199.665,-183.803 65.5,-154 62.4987,-153.333 59.4211,-152.459 56.3848,-151.47"/>
<polygon fill="midnightblue" stroke="midnightblue" points="57.5639,-148.175 46.97,-148.033 55.1633,-154.751 57.5639,-148.175"/>
</g>
<!-- Node3 -->
<g id="node3" class="node"><title>Node3</title>
<g id="a_node3"><a xlink:href="expfit_8h.xhtml" target="_top" xlink:title="Declares routine for fitting a data set to a curve. ">
<polygon fill="white" stroke="black" points="807,-129 807,-148 856,-148 856,-129 807,-129"/>
<text text-anchor="middle" x="831.5" y="-136" font-family="Helvetica,sans-Serif" font-size="10.00">expfit.h</text>
</a>
</g>
</g>
<!-- Node1&#45;&gt;Node3 -->
<g id="edge2" class="edge"><title>Node1&#45;&gt;Node3</title>
<path fill="none" stroke="midnightblue" d="M851.858,-190.396C848.005,-180.763 842.866,-167.914 838.715,-157.537"/>
<polygon fill="midnightblue" stroke="midnightblue" points="841.941,-156.179 834.978,-148.195 835.442,-158.779 841.941,-156.179"/>
</g>
<!-- Node7 -->
<g id="node7" class="node"><title>Node7</title>
<g id="a_node7"><a xlink:href="real_8h.xhtml" target="_top" xlink:title="Declares real and related constants. ">
<polygon fill="white" stroke="black" points="803,-62 803,-81 910,-81 910,-62 803,-62"/>
<text text-anchor="middle" x="856.5" y="-69" font-family="Helvetica,sans-Serif" font-size="10.00">gromacs/utility/real.h</text>
</a>
</g>
</g>
<!-- Node1&#45;&gt;Node7 -->
<g id="edge29" class="edge"><title>Node1&#45;&gt;Node7</title>
<path fill="none" stroke="midnightblue" d="M859.984,-190.405C861.634,-180.306 863.647,-166.362 864.5,-154 865.448,-140.255 865.581,-136.735 864.5,-123 863.659,-112.314 861.831,-100.474 860.135,-90.9452"/>
<polygon fill="midnightblue" stroke="midnightblue" points="863.558,-90.2104 858.271,-81.0292 856.679,-91.5037 863.558,-90.2104"/>
</g>
<!-- Node8 -->
<g id="node8" class="node"><title>Node8</title>
<polygon fill="white" stroke="#bfbfbf" points="1099,-129 1099,-148 1148,-148 1148,-129 1099,-129"/>
<text text-anchor="middle" x="1123.5" y="-136" font-family="Helvetica,sans-Serif" font-size="10.00">string.h</text>
</g>
<!-- Node1&#45;&gt;Node8 -->
<g id="edge7" class="edge"><title>Node1&#45;&gt;Node8</title>
<path fill="none" stroke="midnightblue" d="M932.536,-190.499C977.083,-181.521 1034.46,-168.793 1084.5,-154 1087.14,-153.221 1089.85,-152.352 1092.56,-151.439"/>
<polygon fill="midnightblue" stroke="midnightblue" points="1093.97,-154.654 1102.22,-148.011 1091.63,-148.057 1093.97,-154.654"/>
</g>
<!-- Node9 -->
<g id="node9" class="node"><title>Node9</title>
<polygon fill="white" stroke="#bfbfbf" points="1033.5,-62 1033.5,-81 1077.5,-81 1077.5,-62 1033.5,-62"/>
<text text-anchor="middle" x="1055.5" y="-69" font-family="Helvetica,sans-Serif" font-size="10.00">cmath</text>
</g>
<!-- Node1&#45;&gt;Node9 -->
<g id="edge8" class="edge"><title>Node1&#45;&gt;Node9</title>
<path fill="none" stroke="midnightblue" d="M936.619,-193.536C983.542,-185.275 1036.68,-172.228 1051.5,-154 1065.71,-136.522 1063.81,-109.316 1060.33,-91.2079"/>
<polygon fill="midnightblue" stroke="midnightblue" points="1063.71,-90.2619 1058.09,-81.2772 1056.88,-91.8022 1063.71,-90.2619"/>
</g>
<!-- Node10 -->
<g id="node10" class="node"><title>Node10</title>
<polygon fill="white" stroke="#bfbfbf" points="1166.5,-129 1166.5,-148 1222.5,-148 1222.5,-129 1166.5,-129"/>
<text text-anchor="middle" x="1194.5" y="-136" font-family="Helvetica,sans-Serif" font-size="10.00">algorithm</text>
</g>
<!-- Node1&#45;&gt;Node10 -->
<g id="edge9" class="edge"><title>Node1&#45;&gt;Node10</title>
<path fill="none" stroke="midnightblue" d="M936.798,-195.441C997.597,-187.457 1083.23,-173.957 1156.5,-154 1159.15,-153.277 1161.88,-152.438 1164.6,-151.535"/>
<polygon fill="midnightblue" stroke="midnightblue" points="1166,-154.749 1174.24,-148.079 1163.64,-148.16 1166,-154.749"/>
</g>
<!-- Node11 -->
<g id="node11" class="node"><title>Node11</title>
<polygon fill="white" stroke="#bfbfbf" points="1255.5,-62 1255.5,-81 1315.5,-81 1315.5,-62 1255.5,-62"/>
<text text-anchor="middle" x="1285.5" y="-69" font-family="Helvetica,sans-Serif" font-size="10.00">lmstruct.h</text>
</g>
<!-- Node1&#45;&gt;Node11 -->
<g id="edge10" class="edge"><title>Node1&#45;&gt;Node11</title>
<path fill="none" stroke="midnightblue" d="M936.869,-201.401C1031.78,-196.4 1183.83,-183.884 1231.5,-154 1255.16,-139.168 1270.71,-109.736 1278.81,-90.5979"/>
<polygon fill="midnightblue" stroke="midnightblue" points="1282.11,-91.7687 1282.54,-81.1827 1275.6,-89.1888 1282.11,-91.7687"/>
</g>
<!-- Node12 -->
<g id="node12" class="node"><title>Node12</title>
<g id="a_node12"><a xlink:href="integrate_8h.xhtml" target="_top" xlink:title="Declares routines for integrating a data set. ">
<polygon fill="white" stroke="black" points="348.5,-123.5 348.5,-153.5 490.5,-153.5 490.5,-123.5 348.5,-123.5"/>
<text text-anchor="start" x="356.5" y="-141.5" font-family="Helvetica,sans-Serif" font-size="10.00">gromacs/correlationfunctions</text>
<text text-anchor="middle" x="419.5" y="-130.5" font-family="Helvetica,sans-Serif" font-size="10.00">/integrate.h</text>
</a>
</g>
</g>
<!-- Node1&#45;&gt;Node12 -->
<g id="edge11" class="edge"><title>Node1&#45;&gt;Node12</title>
<path fill="none" stroke="midnightblue" d="M778.446,-194.253C708.156,-184.934 602.33,-170.397 500.711,-154.159"/>
<polygon fill="midnightblue" stroke="midnightblue" points="501.004,-150.661 490.575,-152.532 499.894,-157.573 501.004,-150.661"/>
</g>
<!-- Node14 -->
<g id="node14" class="node"><title>Node14</title>
<g id="a_node14"><a xlink:href="functions_8h.xhtml" target="_top" xlink:title="Declares simple math functions. ">
<polygon fill="white" stroke="black" points="912.5,-129 912.5,-148 1042.5,-148 1042.5,-129 912.5,-129"/>
<text text-anchor="middle" x="977.5" y="-136" font-family="Helvetica,sans-Serif" font-size="10.00">gromacs/math/functions.h</text>
</a>
</g>
</g>
<!-- Node1&#45;&gt;Node14 -->
<g id="edge14" class="edge"><title>Node1&#45;&gt;Node14</title>
<path fill="none" stroke="midnightblue" d="M883.538,-190.396C904.128,-179.243 932.673,-163.781 952.884,-152.834"/>
<polygon fill="midnightblue" stroke="midnightblue" points="954.669,-155.847 961.795,-148.007 951.335,-149.692 954.669,-155.847"/>
</g>
<!-- Node16 -->
<g id="node16" class="node"><title>Node16</title>
<g id="a_node16"><a xlink:href="fatalerror_8h.xhtml" target="_top" xlink:title="Declares fatal error handling and debugging routines for C code. ">
<polygon fill="white" stroke="black" points="200.5,-129 200.5,-148 330.5,-148 330.5,-129 200.5,-129"/>
<text text-anchor="middle" x="265.5" y="-136" font-family="Helvetica,sans-Serif" font-size="10.00">gromacs/utility/fatalerror.h</text>
</a>
</g>
</g>
<!-- Node1&#45;&gt;Node16 -->
<g id="edge18" class="edge"><title>Node1&#45;&gt;Node16</title>
<path fill="none" stroke="midnightblue" d="M778.231,-199.156C676.354,-191.742 494.169,-176.639 339.5,-154 331.667,-152.854 323.406,-151.44 315.356,-149.949"/>
<polygon fill="midnightblue" stroke="midnightblue" points="315.799,-146.47 305.32,-148.033 314.486,-153.346 315.799,-146.47"/>
</g>
<!-- Node18 -->
<g id="node18" class="node"><title>Node18</title>
<g id="a_node18"><a xlink:href="futil_8h.xhtml" target="_top" xlink:title="Low&#45;level wrappers for OS&#45;specific file handling with some GROMACS customizations. ">
<polygon fill="white" stroke="black" points="75,-129 75,-148 182,-148 182,-129 75,-129"/>
<text text-anchor="middle" x="128.5" y="-136" font-family="Helvetica,sans-Serif" font-size="10.00">gromacs/utility/futil.h</text>
</a>
</g>
</g>
<!-- Node1&#45;&gt;Node18 -->
<g id="edge22" class="edge"><title>Node1&#45;&gt;Node18</title>
<path fill="none" stroke="midnightblue" d="M778.379,-202.351C653.181,-198.087 402.005,-186.019 191.5,-154 185.019,-153.014 178.217,-151.724 171.576,-150.318"/>
<polygon fill="midnightblue" stroke="midnightblue" points="171.865,-146.797 161.344,-148.043 170.346,-153.63 171.865,-146.797"/>
</g>
<!-- Node20 -->
<g id="node20" class="node"><title>Node20</title>
<g id="a_node20"><a xlink:href="gmxassert_8h.xhtml" target="_top" xlink:title="Defines assert macros customized for Gromacs. ">
<polygon fill="white" stroke="black" points="509,-129 509,-148 646,-148 646,-129 509,-129"/>
<text text-anchor="middle" x="577.5" y="-136" font-family="Helvetica,sans-Serif" font-size="10.00">gromacs/utility/gmxassert.h</text>
</a>
</g>
</g>
<!-- Node1&#45;&gt;Node20 -->
<g id="edge26" class="edge"><title>Node1&#45;&gt;Node20</title>
<path fill="none" stroke="midnightblue" d="M797.089,-190.476C745.266,-178.446 671.657,-161.358 624.236,-150.349"/>
<polygon fill="midnightblue" stroke="midnightblue" points="624.771,-146.881 614.239,-148.029 623.188,-153.699 624.771,-146.881"/>
</g>
<!-- Node22 -->
<g id="node22" class="node"><title>Node22</title>
<g id="a_node22"><a xlink:href="smalloc_8h.xhtml" target="_top" xlink:title="C memory allocation routines for GROMACS. ">
<polygon fill="white" stroke="black" points="664,-129 664,-148 789,-148 789,-129 664,-129"/>
<text text-anchor="middle" x="726.5" y="-136" font-family="Helvetica,sans-Serif" font-size="10.00">gromacs/utility/smalloc.h</text>
</a>
</g>
</g>
<!-- Node1&#45;&gt;Node22 -->
<g id="edge30" class="edge"><title>Node1&#45;&gt;Node22</title>
<path fill="none" stroke="midnightblue" d="M829.075,-190.396C806.395,-179.142 774.871,-163.501 752.776,-152.538"/>
<polygon fill="midnightblue" stroke="midnightblue" points="754.158,-149.317 743.645,-148.007 751.047,-155.587 754.158,-149.317"/>
</g>
<!-- Node24 -->
<g id="node24" class="node"><title>Node24</title>
<g id="a_node24"><a xlink:href="gmx__lmcurve_8h.xhtml" target="_top" xlink:title="Declares a driver routine for lmfit. ">
<polygon fill="white" stroke="black" points="1279,-129 1279,-148 1362,-148 1362,-129 1279,-129"/>
<text text-anchor="middle" x="1320.5" y="-136" font-family="Helvetica,sans-Serif" font-size="10.00">gmx_lmcurve.h</text>
</a>
</g>
</g>
<!-- Node1&#45;&gt;Node24 -->
<g id="edge33" class="edge"><title>Node1&#45;&gt;Node24</title>
<path fill="none" stroke="midnightblue" d="M936.759,-197.74C1019.13,-189.998 1151.54,-175.537 1264.5,-154 1269.67,-153.014 1275.07,-151.824 1280.39,-150.555"/>
<polygon fill="midnightblue" stroke="midnightblue" points="1281.58,-153.866 1290.44,-148.05 1279.89,-147.073 1281.58,-153.866"/>
</g>
<!-- Node4 -->
<g id="node4" class="node"><title>Node4</title>
<g id="a_node4"><a xlink:href="basedefinitions_8h.xhtml" target="_top" xlink:title="Basic types and macros used throughout GROMACS. ">
<polygon fill="white" stroke="black" points="370,-62 370,-81 527,-81 527,-62 370,-62"/>
<text text-anchor="middle" x="448.5" y="-69" font-family="Helvetica,sans-Serif" font-size="10.00">gromacs/utility/basedefinitions.h</text>
</a>
</g>
</g>
<!-- Node3&#45;&gt;Node4 -->
<g id="edge3" class="edge"><title>Node3&#45;&gt;Node4</title>
<path fill="none" stroke="midnightblue" d="M813.823,-128.907C808.661,-126.689 802.943,-124.505 797.5,-123 684.215,-91.6677 651.704,-104.663 535.5,-87 526.606,-85.6481 517.212,-84.153 508.017,-82.6517"/>
<polygon fill="midnightblue" stroke="midnightblue" points="508.585,-79.1982 498.149,-81.0266 507.447,-86.1052 508.585,-79.1982"/>
</g>
<!-- Node3&#45;&gt;Node7 -->
<g id="edge6" class="edge"><title>Node3&#45;&gt;Node7</title>
<path fill="none" stroke="midnightblue" d="M834.872,-128.734C838.62,-118.988 844.777,-102.981 849.565,-90.5318"/>
<polygon fill="midnightblue" stroke="midnightblue" points="852.859,-91.7172 853.182,-81.1273 846.325,-89.2043 852.859,-91.7172"/>
</g>
<!-- Node5 -->
<g id="node5" class="node"><title>Node5</title>
<polygon fill="white" stroke="#bfbfbf" points="388,-0.5 388,-19.5 437,-19.5 437,-0.5 388,-0.5"/>
<text text-anchor="middle" x="412.5" y="-7.5" font-family="Helvetica,sans-Serif" font-size="10.00">stdint.h</text>
</g>
<!-- Node4&#45;&gt;Node5 -->
<g id="edge4" class="edge"><title>Node4&#45;&gt;Node5</title>
<path fill="none" stroke="midnightblue" d="M443.342,-61.9751C438.049,-53.2268 429.665,-39.3691 422.973,-28.3093"/>
<polygon fill="midnightblue" stroke="midnightblue" points="425.82,-26.2531 417.648,-19.5091 419.83,-29.8768 425.82,-26.2531"/>
</g>
<!-- Node6 -->
<g id="node6" class="node"><title>Node6</title>
<polygon fill="white" stroke="#bfbfbf" points="455,-0.5 455,-19.5 514,-19.5 514,-0.5 455,-0.5"/>
<text text-anchor="middle" x="484.5" y="-7.5" font-family="Helvetica,sans-Serif" font-size="10.00">inttypes.h</text>
</g>
<!-- Node4&#45;&gt;Node6 -->
<g id="edge5" class="edge"><title>Node4&#45;&gt;Node6</title>
<path fill="none" stroke="midnightblue" d="M453.658,-61.9751C458.951,-53.2268 467.335,-39.3691 474.027,-28.3093"/>
<polygon fill="midnightblue" stroke="midnightblue" points="477.17,-29.8768 479.352,-19.5091 471.18,-26.2531 477.17,-29.8768"/>
</g>
<!-- Node12&#45;&gt;Node7 -->
<g id="edge13" class="edge"><title>Node12&#45;&gt;Node7</title>
<path fill="none" stroke="midnightblue" d="M490.573,-124.455C493.587,-123.953 496.573,-123.466 499.5,-123 615.576,-104.515 645.178,-103.868 761.5,-87 771.635,-85.5303 782.372,-83.9318 792.839,-82.3507"/>
<polygon fill="midnightblue" stroke="midnightblue" points="793.401,-85.8055 802.763,-80.8449 792.351,-78.8847 793.401,-85.8055"/>
</g>
<!-- Node13 -->
<g id="node13" class="node"><title>Node13</title>
<polygon fill="white" stroke="#bfbfbf" points="193.5,-62 193.5,-81 239.5,-81 239.5,-62 193.5,-62"/>
<text text-anchor="middle" x="216.5" y="-69" font-family="Helvetica,sans-Serif" font-size="10.00">stdio.h</text>
</g>
<!-- Node12&#45;&gt;Node13 -->
<g id="edge12" class="edge"><title>Node12&#45;&gt;Node13</title>
<path fill="none" stroke="midnightblue" d="M364.96,-123.465C331.061,-114.234 286.794,-101.253 248.5,-87 246.889,-86.4003 245.244,-85.7569 243.594,-85.0866"/>
<polygon fill="midnightblue" stroke="midnightblue" points="244.827,-81.8071 234.257,-81.0721 242.062,-88.2378 244.827,-81.8071"/>
</g>
<!-- Node14&#45;&gt;Node7 -->
<g id="edge17" class="edge"><title>Node14&#45;&gt;Node7</title>
<path fill="none" stroke="midnightblue" d="M961.181,-128.734C940.68,-117.721 905.296,-98.7129 881.405,-85.8787"/>
<polygon fill="midnightblue" stroke="midnightblue" points="883.026,-82.7764 872.56,-81.1273 879.713,-88.943 883.026,-82.7764"/>
</g>
<!-- Node14&#45;&gt;Node9 -->
<g id="edge15" class="edge"><title>Node14&#45;&gt;Node9</title>
<path fill="none" stroke="midnightblue" d="M988.019,-128.734C1000.65,-118.208 1022.04,-100.379 1037.36,-87.6174"/>
<polygon fill="midnightblue" stroke="midnightblue" points="1039.71,-90.218 1045.15,-81.1273 1035.22,-84.8404 1039.71,-90.218"/>
</g>
<!-- Node15 -->
<g id="node15" class="node"><title>Node15</title>
<polygon fill="white" stroke="#bfbfbf" points="954.5,-62 954.5,-81 1000.5,-81 1000.5,-62 954.5,-62"/>
<text text-anchor="middle" x="977.5" y="-69" font-family="Helvetica,sans-Serif" font-size="10.00">cstdint</text>
</g>
<!-- Node14&#45;&gt;Node15 -->
<g id="edge16" class="edge"><title>Node14&#45;&gt;Node15</title>
<path fill="none" stroke="midnightblue" d="M977.5,-128.734C977.5,-119.183 977.5,-103.618 977.5,-91.2829"/>
<polygon fill="midnightblue" stroke="midnightblue" points="981,-91.1273 977.5,-81.1273 974,-91.1273 981,-91.1273"/>
</g>
<!-- Node16&#45;&gt;Node4 -->
<g id="edge21" class="edge"><title>Node16&#45;&gt;Node4</title>
<path fill="none" stroke="midnightblue" d="M289.801,-128.869C321.883,-117.473 378.53,-97.3528 414.752,-84.4869"/>
<polygon fill="midnightblue" stroke="midnightblue" points="416.138,-87.7089 424.39,-81.0637 413.795,-81.1127 416.138,-87.7089"/>
</g>
<!-- Node16&#45;&gt;Node13 -->
<g id="edge20" class="edge"><title>Node16&#45;&gt;Node13</title>
<path fill="none" stroke="midnightblue" d="M258.892,-128.734C251.324,-118.695 238.749,-102.014 229.256,-89.4213"/>
<polygon fill="midnightblue" stroke="midnightblue" points="231.818,-87.0057 223.004,-81.1273 226.228,-91.2194 231.818,-87.0057"/>
</g>
<!-- Node17 -->
<g id="node17" class="node"><title>Node17</title>
<polygon fill="white" stroke="#bfbfbf" points="257.5,-62 257.5,-81 309.5,-81 309.5,-62 257.5,-62"/>
<text text-anchor="middle" x="283.5" y="-69" font-family="Helvetica,sans-Serif" font-size="10.00">stdarg.h</text>
</g>
<!-- Node16&#45;&gt;Node17 -->
<g id="edge19" class="edge"><title>Node16&#45;&gt;Node17</title>
<path fill="none" stroke="midnightblue" d="M267.928,-128.734C270.599,-119.085 274.971,-103.3 278.403,-90.9063"/>
<polygon fill="midnightblue" stroke="midnightblue" points="281.815,-91.6987 281.111,-81.1273 275.069,-89.8305 281.815,-91.6987"/>
</g>
<!-- Node18&#45;&gt;Node4 -->
<g id="edge25" class="edge"><title>Node18&#45;&gt;Node4</title>
<path fill="none" stroke="midnightblue" d="M164.768,-128.943C173.509,-126.938 182.828,-124.849 191.5,-123 260.5,-108.284 340.265,-92.8562 392.401,-82.9846"/>
<polygon fill="midnightblue" stroke="midnightblue" points="393.272,-86.3821 402.448,-81.0863 391.972,-79.5038 393.272,-86.3821"/>
</g>
<!-- Node18&#45;&gt;Node13 -->
<g id="edge24" class="edge"><title>Node18&#45;&gt;Node13</title>
<path fill="none" stroke="midnightblue" d="M140.368,-128.734C154.75,-118.111 179.204,-100.049 196.512,-87.2642"/>
<polygon fill="midnightblue" stroke="midnightblue" points="198.856,-89.884 204.82,-81.1273 194.697,-84.2534 198.856,-89.884"/>
</g>
<!-- Node19 -->
<g id="node19" class="node"><title>Node19</title>
<polygon fill="white" stroke="#bfbfbf" points="104.5,-62 104.5,-81 152.5,-81 152.5,-62 104.5,-62"/>
<text text-anchor="middle" x="128.5" y="-69" font-family="Helvetica,sans-Serif" font-size="10.00">limits.h</text>
</g>
<!-- Node18&#45;&gt;Node19 -->
<g id="edge23" class="edge"><title>Node18&#45;&gt;Node19</title>
<path fill="none" stroke="midnightblue" d="M128.5,-128.734C128.5,-119.183 128.5,-103.618 128.5,-91.2829"/>
<polygon fill="midnightblue" stroke="midnightblue" points="132,-91.1273 128.5,-81.1273 125,-91.1273 132,-91.1273"/>
</g>
<!-- Node20&#45;&gt;Node4 -->
<g id="edge27" class="edge"><title>Node20&#45;&gt;Node4</title>
<path fill="none" stroke="midnightblue" d="M560.37,-128.869C538.492,-117.845 500.408,-98.6554 474.831,-85.7678"/>
<polygon fill="midnightblue" stroke="midnightblue" points="476.206,-82.5414 465.701,-81.1672 473.056,-88.7927 476.206,-82.5414"/>
</g>
<!-- Node21 -->
<g id="node21" class="node"><title>Node21</title>
<g id="a_node21"><a xlink:href="current__function_8h.xhtml" target="_top" xlink:title="Declares GMX_CURRENT_FUNCTION for getting the current function name. ">
<polygon fill="white" stroke="black" points="545,-56.5 545,-86.5 658,-86.5 658,-56.5 545,-56.5"/>
<text text-anchor="start" x="553" y="-74.5" font-family="Helvetica,sans-Serif" font-size="10.00">gromacs/utility/current</text>
<text text-anchor="middle" x="601.5" y="-63.5" font-family="Helvetica,sans-Serif" font-size="10.00">_function.h</text>
</a>
</g>
</g>
<!-- Node20&#45;&gt;Node21 -->
<g id="edge28" class="edge"><title>Node20&#45;&gt;Node21</title>
<path fill="none" stroke="midnightblue" d="M580.737,-128.734C583.824,-120.372 588.614,-107.4 592.815,-96.0221"/>
<polygon fill="midnightblue" stroke="midnightblue" points="596.117,-97.1823 596.298,-86.589 589.551,-94.7577 596.117,-97.1823"/>
</g>
<!-- Node22&#45;&gt;Node4 -->
<g id="edge32" class="edge"><title>Node22&#45;&gt;Node4</title>
<path fill="none" stroke="midnightblue" d="M689.87,-128.936C639.764,-117.22 549.831,-96.1925 495.019,-83.3768"/>
<polygon fill="midnightblue" stroke="midnightblue" points="495.745,-79.9521 485.211,-81.0834 494.151,-86.7683 495.745,-79.9521"/>
</g>
<!-- Node23 -->
<g id="node23" class="node"><title>Node23</title>
<polygon fill="white" stroke="#bfbfbf" points="700.5,-62 700.5,-81 752.5,-81 752.5,-62 700.5,-62"/>
<text text-anchor="middle" x="726.5" y="-69" font-family="Helvetica,sans-Serif" font-size="10.00">stddef.h</text>
</g>
<!-- Node22&#45;&gt;Node23 -->
<g id="edge31" class="edge"><title>Node22&#45;&gt;Node23</title>
<path fill="none" stroke="midnightblue" d="M726.5,-128.734C726.5,-119.183 726.5,-103.618 726.5,-91.2829"/>
<polygon fill="midnightblue" stroke="midnightblue" points="730,-91.1273 726.5,-81.1273 723,-91.1273 730,-91.1273"/>
</g>
<!-- Node24&#45;&gt;Node11 -->
<g id="edge34" class="edge"><title>Node24&#45;&gt;Node11</title>
<path fill="none" stroke="midnightblue" d="M1315.78,-128.734C1310.48,-118.89 1301.74,-102.66 1295.01,-90.1594"/>
<polygon fill="midnightblue" stroke="midnightblue" points="1297.97,-88.2727 1290.15,-81.1273 1291.8,-91.5914 1297.97,-88.2727"/>
</g>
</g>
</svg>
