<?xml version="1.0" encoding="UTF-8" standalone="no"?>
<!DOCTYPE svg PUBLIC "-//W3C//DTD SVG 1.1//EN"
 "http://www.w3.org/Graphics/SVG/1.1/DTD/svg11.dtd">
<!-- Generated by graphviz version 2.38.0 (20140413.2041)
 -->
<!-- Title: src/gromacs/options/filenameoptionmanager.cpp Pages: 1 -->
<svg width="1893pt" height="442pt"
 viewBox="0.00 0.00 1893.00 442.00" xmlns="http://www.w3.org/2000/svg" xmlns:xlink="http://www.w3.org/1999/xlink">
<g id="graph0" class="graph" transform="scale(1 1) rotate(0) translate(4 438)">
<title>src/gromacs/options/filenameoptionmanager.cpp</title>
<polygon fill="white" stroke="none" points="-4,4 -4,-438 1889,-438 1889,4 -4,4"/>
<!-- Node1 -->
<g id="node1" class="node"><title>Node1</title>
<polygon fill="#bfbfbf" stroke="black" points="991,-403.5 991,-433.5 1130,-433.5 1130,-403.5 991,-403.5"/>
<text text-anchor="start" x="999" y="-421.5" font-family="Helvetica,sans-Serif" font-size="10.00">src/gromacs/options</text>
<text text-anchor="middle" x="1060.5" y="-410.5" font-family="Helvetica,sans-Serif" font-size="10.00">/filenameoptionmanager.cpp</text>
</g>
<!-- Node2 -->
<g id="node2" class="node"><title>Node2</title>
<g id="a_node2"><a xlink:href="gmxpre_8h.xhtml" target="_top" xlink:title="Prerequisite header file for GROMACS build. ">
<polygon fill="white" stroke="black" points="369,-347.5 369,-366.5 426,-366.5 426,-347.5 369,-347.5"/>
<text text-anchor="middle" x="397.5" y="-354.5" font-family="Helvetica,sans-Serif" font-size="10.00">gmxpre.h</text>
</a>
</g>
</g>
<!-- Node1&#45;&gt;Node2 -->
<g id="edge1" class="edge"><title>Node1&#45;&gt;Node2</title>
<path fill="none" stroke="midnightblue" d="M990.91,-414.673C875.874,-409.364 639.031,-395.747 440.5,-367 439.038,-366.788 437.55,-366.557 436.05,-366.31"/>
<polygon fill="midnightblue" stroke="midnightblue" points="436.556,-362.845 426.092,-364.505 435.307,-369.733 436.556,-362.845"/>
</g>
<!-- Node3 -->
<g id="node3" class="node"><title>Node3</title>
<g id="a_node3"><a xlink:href="filenameoptionmanager_8h.xhtml" target="_top" xlink:title="Declares gmx::FileNameOptionManager. ">
<polygon fill="white" stroke="black" points="937,-347.5 937,-366.5 1062,-366.5 1062,-347.5 937,-347.5"/>
<text text-anchor="middle" x="999.5" y="-354.5" font-family="Helvetica,sans-Serif" font-size="10.00">filenameoptionmanager.h</text>
</a>
</g>
</g>
<!-- Node1&#45;&gt;Node3 -->
<g id="edge2" class="edge"><title>Node1&#45;&gt;Node3</title>
<path fill="none" stroke="midnightblue" d="M1046.04,-403.399C1036.91,-394.486 1025.08,-382.952 1015.64,-373.741"/>
<polygon fill="midnightblue" stroke="midnightblue" points="1017.98,-371.135 1008.38,-366.658 1013.09,-376.146 1017.98,-371.135"/>
</g>
<!-- Node4 -->
<g id="node4" class="node"><title>Node4</title>
<polygon fill="white" stroke="#bfbfbf" points="1028,-123.5 1028,-142.5 1069,-142.5 1069,-123.5 1028,-123.5"/>
<text text-anchor="middle" x="1048.5" y="-130.5" font-family="Helvetica,sans-Serif" font-size="10.00">string</text>
</g>
<!-- Node1&#45;&gt;Node4 -->
<g id="edge22" class="edge"><title>Node1&#45;&gt;Node4</title>
<path fill="none" stroke="midnightblue" d="M990.974,-418.246C817.316,-417.688 387.164,-400.068 511.5,-235 563.047,-166.567 946.432,-149.379 1017.79,-142.261"/>
<polygon fill="midnightblue" stroke="midnightblue" points="1018.25,-145.731 1027.71,-140.96 1017.34,-138.79 1018.25,-145.731"/>
</g>
<!-- Node6 -->
<g id="node6" class="node"><title>Node6</title>
<g id="a_node6"><a xlink:href="ioptionscontainer_8h.xhtml" target="_top" xlink:title="Declares gmx::IOptionsContainer. ">
<polygon fill="white" stroke="black" points="694,-235.5 694,-254.5 867,-254.5 867,-235.5 694,-235.5"/>
<text text-anchor="middle" x="780.5" y="-242.5" font-family="Helvetica,sans-Serif" font-size="10.00">gromacs/options/ioptionscontainer.h</text>
</a>
</g>
</g>
<!-- Node1&#45;&gt;Node6 -->
<g id="edge34" class="edge"><title>Node1&#45;&gt;Node6</title>
<path fill="none" stroke="midnightblue" d="M990.782,-406.38C931.993,-393.409 849.777,-366.236 800.5,-311 789.088,-298.208 784.188,-279.019 782.083,-264.803"/>
<polygon fill="midnightblue" stroke="midnightblue" points="785.54,-264.222 780.924,-254.686 778.585,-265.019 785.54,-264.222"/>
</g>
<!-- Node18 -->
<g id="node18" class="node"><title>Node18</title>
<polygon fill="white" stroke="#bfbfbf" points="1424.5,-291.5 1424.5,-310.5 1470.5,-310.5 1470.5,-291.5 1424.5,-291.5"/>
<text text-anchor="middle" x="1447.5" y="-298.5" font-family="Helvetica,sans-Serif" font-size="10.00">cstring</text>
</g>
<!-- Node1&#45;&gt;Node18 -->
<g id="edge21" class="edge"><title>Node1&#45;&gt;Node18</title>
<path fill="none" stroke="midnightblue" d="M1130.42,-413.335C1236.46,-406.295 1427.88,-390.478 1448.5,-367 1459.42,-354.566 1457.5,-335.053 1453.87,-320.648"/>
<polygon fill="midnightblue" stroke="midnightblue" points="1457.16,-319.413 1450.94,-310.83 1450.45,-321.413 1457.16,-319.413"/>
</g>
<!-- Node19 -->
<g id="node19" class="node"><title>Node19</title>
<g id="a_node19"><a xlink:href="basicoptions_8h.xhtml" target="_top" xlink:title="Declares option objects for basic option types. ">
<polygon fill="white" stroke="black" points="521,-235.5 521,-254.5 676,-254.5 676,-235.5 521,-235.5"/>
<text text-anchor="middle" x="598.5" y="-242.5" font-family="Helvetica,sans-Serif" font-size="10.00">gromacs/options/basicoptions.h</text>
</a>
</g>
</g>
<!-- Node1&#45;&gt;Node19 -->
<g id="edge23" class="edge"><title>Node1&#45;&gt;Node19</title>
<path fill="none" stroke="midnightblue" d="M990.75,-405.765C947.122,-397.366 890.165,-384.451 841.5,-367 756.952,-336.681 663.61,-284.442 621.429,-259.725"/>
<polygon fill="midnightblue" stroke="midnightblue" points="623.153,-256.678 612.762,-254.61 619.595,-262.707 623.153,-256.678"/>
</g>
<!-- Node20 -->
<g id="node20" class="node"><title>Node20</title>
<g id="a_node20"><a xlink:href="filenameoption_8h.xhtml" target="_top" xlink:title="Declares gmx::FileNameOption and gmx::FileNameOptionInfo. ">
<polygon fill="white" stroke="black" points="1076,-235.5 1076,-254.5 1239,-254.5 1239,-235.5 1076,-235.5"/>
<text text-anchor="middle" x="1157.5" y="-242.5" font-family="Helvetica,sans-Serif" font-size="10.00">gromacs/options/filenameoption.h</text>
</a>
</g>
</g>
<!-- Node1&#45;&gt;Node20 -->
<g id="edge29" class="edge"><title>Node1&#45;&gt;Node20</title>
<path fill="none" stroke="midnightblue" d="M1068.44,-403.465C1086.06,-372.302 1128.42,-297.407 1147.68,-263.365"/>
<polygon fill="midnightblue" stroke="midnightblue" points="1150.78,-264.987 1152.66,-254.56 1144.69,-261.541 1150.78,-264.987"/>
</g>
<!-- Node22 -->
<g id="node22" class="node"><title>Node22</title>
<g id="a_node22"><a xlink:href="arrayref_8h.xhtml" target="_top" xlink:title="Declares gmx::ArrayRef and gmx::ConstArrayRef. ">
<polygon fill="white" stroke="black" points="1726,-179.5 1726,-198.5 1851,-198.5 1851,-179.5 1726,-179.5"/>
<text text-anchor="middle" x="1788.5" y="-186.5" font-family="Helvetica,sans-Serif" font-size="10.00">gromacs/utility/arrayref.h</text>
</a>
</g>
</g>
<!-- Node1&#45;&gt;Node22 -->
<g id="edge35" class="edge"><title>Node1&#45;&gt;Node22</title>
<path fill="none" stroke="midnightblue" d="M1130.38,-413.014C1235.67,-405.643 1429.68,-389.509 1495.5,-367 1609.37,-328.06 1726.43,-239.974 1770.38,-204.858"/>
<polygon fill="midnightblue" stroke="midnightblue" points="1772.59,-207.574 1778.17,-198.571 1768.19,-202.126 1772.59,-207.574"/>
</g>
<!-- Node27 -->
<g id="node27" class="node"><title>Node27</title>
<g id="a_node27"><a xlink:href="exceptions_8h.xhtml" target="_top" xlink:title="Declares common exception classes and macros for fatal error handling. ">
<polygon fill="white" stroke="black" points="384,-179.5 384,-198.5 523,-198.5 523,-179.5 384,-179.5"/>
<text text-anchor="middle" x="453.5" y="-186.5" font-family="Helvetica,sans-Serif" font-size="10.00">gromacs/utility/exceptions.h</text>
</a>
</g>
</g>
<!-- Node1&#45;&gt;Node27 -->
<g id="edge42" class="edge"><title>Node1&#45;&gt;Node27</title>
<path fill="none" stroke="midnightblue" d="M990.858,-416.235C844.412,-412.9 515.01,-401.598 478.5,-367 434.798,-325.587 442.976,-245.29 449.499,-208.828"/>
<polygon fill="midnightblue" stroke="midnightblue" points="453.008,-209.12 451.492,-198.634 446.138,-207.777 453.008,-209.12"/>
</g>
<!-- Node33 -->
<g id="node33" class="node"><title>Node33</title>
<g id="a_node33"><a xlink:href="fileredirector_8h.xhtml" target="_top" xlink:title="Declares gmx::IFileOutputRedirector. ">
<polygon fill="white" stroke="black" points="1421,-235.5 1421,-254.5 1566,-254.5 1566,-235.5 1421,-235.5"/>
<text text-anchor="middle" x="1493.5" y="-242.5" font-family="Helvetica,sans-Serif" font-size="10.00">gromacs/utility/fileredirector.h</text>
</a>
</g>
</g>
<!-- Node1&#45;&gt;Node33 -->
<g id="edge55" class="edge"><title>Node1&#45;&gt;Node33</title>
<path fill="none" stroke="midnightblue" d="M1095.93,-403.465C1178.84,-370.63 1384.31,-289.246 1462.57,-258.252"/>
<polygon fill="midnightblue" stroke="midnightblue" points="1463.88,-261.496 1471.89,-254.56 1461.3,-254.988 1463.88,-261.496"/>
</g>
<!-- Node34 -->
<g id="node34" class="node"><title>Node34</title>
<g id="a_node34"><a xlink:href="path_8h.xhtml" target="_top" xlink:title="Declares functions for OS&#45;independent path handling. ">
<polygon fill="white" stroke="black" points="1597.5,-179.5 1597.5,-198.5 1707.5,-198.5 1707.5,-179.5 1597.5,-179.5"/>
<text text-anchor="middle" x="1652.5" y="-186.5" font-family="Helvetica,sans-Serif" font-size="10.00">gromacs/utility/path.h</text>
</a>
</g>
</g>
<!-- Node1&#45;&gt;Node34 -->
<g id="edge63" class="edge"><title>Node1&#45;&gt;Node34</title>
<path fill="none" stroke="midnightblue" d="M1130.31,-414.036C1230.05,-408.205 1407.67,-394.296 1465.5,-367 1545.66,-329.167 1613.83,-243.757 1640.49,-207.166"/>
<polygon fill="midnightblue" stroke="midnightblue" points="1643.65,-208.764 1646.63,-198.595 1637.96,-204.69 1643.65,-208.764"/>
</g>
<!-- Node36 -->
<g id="node36" class="node"><title>Node36</title>
<g id="a_node36"><a xlink:href="stringutil_8h.xhtml" target="_top" xlink:title="Declares common string utility and formatting routines. ">
<polygon fill="white" stroke="black" points="1311.5,-347.5 1311.5,-366.5 1439.5,-366.5 1439.5,-347.5 1311.5,-347.5"/>
<text text-anchor="middle" x="1375.5" y="-354.5" font-family="Helvetica,sans-Serif" font-size="10.00">gromacs/utility/stringutil.h</text>
</a>
</g>
</g>
<!-- Node1&#45;&gt;Node36 -->
<g id="edge64" class="edge"><title>Node1&#45;&gt;Node36</title>
<path fill="none" stroke="midnightblue" d="M1130.02,-404.369C1187.38,-393.534 1267.66,-378.369 1320.59,-368.372"/>
<polygon fill="midnightblue" stroke="midnightblue" points="1321.29,-371.801 1330.47,-366.506 1319.99,-364.923 1321.29,-371.801"/>
</g>
<!-- Node3&#45;&gt;Node4 -->
<g id="edge3" class="edge"><title>Node3&#45;&gt;Node4</title>
<path fill="none" stroke="midnightblue" d="M1001.42,-347.297C1008.65,-314.563 1034.29,-198.375 1044.38,-152.666"/>
<polygon fill="midnightblue" stroke="midnightblue" points="1047.8,-153.403 1046.54,-142.884 1040.97,-151.894 1047.8,-153.403"/>
</g>
<!-- Node5 -->
<g id="node5" class="node"><title>Node5</title>
<g id="a_node5"><a xlink:href="options_2options_8h.xhtml" target="_top" xlink:title="Declares gmx::Options. ">
<polygon fill="white" stroke="black" points="809,-291.5 809,-310.5 940,-310.5 940,-291.5 809,-291.5"/>
<text text-anchor="middle" x="874.5" y="-298.5" font-family="Helvetica,sans-Serif" font-size="10.00">gromacs/options/options.h</text>
</a>
</g>
</g>
<!-- Node3&#45;&gt;Node5 -->
<g id="edge4" class="edge"><title>Node3&#45;&gt;Node5</title>
<path fill="none" stroke="midnightblue" d="M979.693,-347.444C959.213,-338.596 927.017,-324.687 903.635,-314.586"/>
<polygon fill="midnightblue" stroke="midnightblue" points="904.782,-311.269 894.214,-310.516 902.006,-317.695 904.782,-311.269"/>
</g>
<!-- Node11 -->
<g id="node11" class="node"><title>Node11</title>
<g id="a_node11"><a xlink:href="classhelpers_8h.xhtml" target="_top" xlink:title="Declares common utility classes and macros. ">
<polygon fill="white" stroke="black" points="698.5,-123.5 698.5,-142.5 844.5,-142.5 844.5,-123.5 698.5,-123.5"/>
<text text-anchor="middle" x="771.5" y="-130.5" font-family="Helvetica,sans-Serif" font-size="10.00">gromacs/utility/classhelpers.h</text>
</a>
</g>
</g>
<!-- Node3&#45;&gt;Node11 -->
<g id="edge20" class="edge"><title>Node3&#45;&gt;Node11</title>
<path fill="none" stroke="midnightblue" d="M994.601,-347.332C981.431,-324.874 942.891,-264.501 893.5,-235 845.696,-206.447 807.421,-243.157 773.5,-199 763.514,-186.001 764.212,-166.84 766.687,-152.687"/>
<polygon fill="midnightblue" stroke="midnightblue" points="770.17,-153.14 768.882,-142.623 763.331,-151.647 770.17,-153.14"/>
</g>
<!-- Node5&#45;&gt;Node4 -->
<g id="edge5" class="edge"><title>Node5&#45;&gt;Node4</title>
<path fill="none" stroke="midnightblue" d="M883.855,-291.075C911.955,-264.267 995.891,-184.19 1031.85,-149.885"/>
<polygon fill="midnightblue" stroke="midnightblue" points="1034.7,-152.003 1039.52,-142.568 1029.87,-146.939 1034.7,-152.003"/>
</g>
<!-- Node5&#45;&gt;Node6 -->
<g id="edge6" class="edge"><title>Node5&#45;&gt;Node6</title>
<path fill="none" stroke="midnightblue" d="M859.397,-291.324C844.597,-282.822 821.806,-269.729 804.518,-259.797"/>
<polygon fill="midnightblue" stroke="midnightblue" points="805.98,-256.601 795.565,-254.655 802.493,-262.671 805.98,-256.601"/>
</g>
<!-- Node5&#45;&gt;Node11 -->
<g id="edge19" class="edge"><title>Node5&#45;&gt;Node11</title>
<path fill="none" stroke="midnightblue" d="M878.001,-291.288C882.85,-277.636 889.626,-251.101 876.5,-235 826.326,-173.454 751.674,-260.546 701.5,-199 685.168,-178.966 714.669,-159.233 740.249,-146.86"/>
<polygon fill="midnightblue" stroke="midnightblue" points="741.782,-150.008 749.403,-142.648 738.856,-143.649 741.782,-150.008"/>
</g>
<!-- Node7 -->
<g id="node7" class="node"><title>Node7</title>
<g id="a_node7"><a xlink:href="abstractoption_8h.xhtml" target="_top" xlink:title="Defines gmx::AbstractOption, gmx::OptionTemplate and gmx::OptionInfo. ">
<polygon fill="white" stroke="black" points="782,-179.5 782,-198.5 943,-198.5 943,-179.5 782,-179.5"/>
<text text-anchor="middle" x="862.5" y="-186.5" font-family="Helvetica,sans-Serif" font-size="10.00">gromacs/options/abstractoption.h</text>
</a>
</g>
</g>
<!-- Node6&#45;&gt;Node7 -->
<g id="edge7" class="edge"><title>Node6&#45;&gt;Node7</title>
<path fill="none" stroke="midnightblue" d="M793.675,-235.324C806.347,-226.979 825.733,-214.212 840.706,-204.352"/>
<polygon fill="midnightblue" stroke="midnightblue" points="842.931,-207.078 849.358,-198.655 839.081,-201.231 842.931,-207.078"/>
</g>
<!-- Node13 -->
<g id="node13" class="node"><title>Node13</title>
<g id="a_node13"><a xlink:href="gmxassert_8h.xhtml" target="_top" xlink:title="Defines assert macros customized for Gromacs. ">
<polygon fill="white" stroke="black" points="543,-123.5 543,-142.5 680,-142.5 680,-123.5 543,-123.5"/>
<text text-anchor="middle" x="611.5" y="-130.5" font-family="Helvetica,sans-Serif" font-size="10.00">gromacs/utility/gmxassert.h</text>
</a>
</g>
</g>
<!-- Node6&#45;&gt;Node13 -->
<g id="edge14" class="edge"><title>Node6&#45;&gt;Node13</title>
<path fill="none" stroke="midnightblue" d="M693.614,-235.688C668.581,-229.216 643.267,-218.064 625.5,-199 614.074,-186.739 611.105,-167.479 610.676,-153.101"/>
<polygon fill="midnightblue" stroke="midnightblue" points="614.178,-152.875 610.763,-142.845 607.178,-152.815 614.178,-152.875"/>
</g>
<!-- Node7&#45;&gt;Node4 -->
<g id="edge8" class="edge"><title>Node7&#45;&gt;Node4</title>
<path fill="none" stroke="midnightblue" d="M892.948,-179.485C922.641,-171.134 969.321,-157.884 1018.13,-143.366"/>
<polygon fill="midnightblue" stroke="midnightblue" points="1019.34,-146.66 1027.92,-140.447 1017.34,-139.952 1019.34,-146.66"/>
</g>
<!-- Node8 -->
<g id="node8" class="node"><title>Node8</title>
<polygon fill="white" stroke="#bfbfbf" points="1315.5,-123.5 1315.5,-142.5 1359.5,-142.5 1359.5,-123.5 1315.5,-123.5"/>
<text text-anchor="middle" x="1337.5" y="-130.5" font-family="Helvetica,sans-Serif" font-size="10.00">vector</text>
</g>
<!-- Node7&#45;&gt;Node8 -->
<g id="edge9" class="edge"><title>Node7&#45;&gt;Node8</title>
<path fill="none" stroke="midnightblue" d="M937.503,-179.473C1042.9,-167.491 1230.34,-146.183 1305.25,-137.666"/>
<polygon fill="midnightblue" stroke="midnightblue" points="1305.93,-141.112 1315.47,-136.505 1305.14,-134.157 1305.93,-141.112"/>
</g>
<!-- Node9 -->
<g id="node9" class="node"><title>Node9</title>
<g id="a_node9"><a xlink:href="optionflags_8h.xhtml" target="_top" xlink:title="Defines flags used in option implementation. ">
<polygon fill="white" stroke="black" points="863,-123.5 863,-142.5 1010,-142.5 1010,-123.5 863,-123.5"/>
<text text-anchor="middle" x="936.5" y="-130.5" font-family="Helvetica,sans-Serif" font-size="10.00">gromacs/options/optionflags.h</text>
</a>
</g>
</g>
<!-- Node7&#45;&gt;Node9 -->
<g id="edge10" class="edge"><title>Node7&#45;&gt;Node9</title>
<path fill="none" stroke="midnightblue" d="M874.389,-179.324C885.65,-171.107 902.787,-158.602 916.209,-148.807"/>
<polygon fill="midnightblue" stroke="midnightblue" points="918.38,-151.556 924.394,-142.834 914.253,-145.901 918.38,-151.556"/>
</g>
<!-- Node7&#45;&gt;Node11 -->
<g id="edge12" class="edge"><title>Node7&#45;&gt;Node11</title>
<path fill="none" stroke="midnightblue" d="M847.879,-179.324C833.551,-170.822 811.487,-157.729 794.751,-147.797"/>
<polygon fill="midnightblue" stroke="midnightblue" points="796.47,-144.748 786.084,-142.655 792.898,-150.768 796.47,-144.748"/>
</g>
<!-- Node10 -->
<g id="node10" class="node"><title>Node10</title>
<g id="a_node10"><a xlink:href="flags_8h.xhtml" target="_top" xlink:title="Declares gmx::FlagsTemplate. ">
<polygon fill="white" stroke="black" points="880,-62 880,-81 993,-81 993,-62 880,-62"/>
<text text-anchor="middle" x="936.5" y="-69" font-family="Helvetica,sans-Serif" font-size="10.00">gromacs/utility/flags.h</text>
</a>
</g>
</g>
<!-- Node9&#45;&gt;Node10 -->
<g id="edge11" class="edge"><title>Node9&#45;&gt;Node10</title>
<path fill="none" stroke="midnightblue" d="M936.5,-123.475C936.5,-115.08 936.5,-101.981 936.5,-91.1631"/>
<polygon fill="midnightblue" stroke="midnightblue" points="940,-91.0091 936.5,-81.0091 933,-91.0091 940,-91.0091"/>
</g>
<!-- Node12 -->
<g id="node12" class="node"><title>Node12</title>
<polygon fill="white" stroke="#bfbfbf" points="745.5,-62 745.5,-81 797.5,-81 797.5,-62 745.5,-62"/>
<text text-anchor="middle" x="771.5" y="-69" font-family="Helvetica,sans-Serif" font-size="10.00">memory</text>
</g>
<!-- Node11&#45;&gt;Node12 -->
<g id="edge13" class="edge"><title>Node11&#45;&gt;Node12</title>
<path fill="none" stroke="midnightblue" d="M771.5,-123.475C771.5,-115.08 771.5,-101.981 771.5,-91.1631"/>
<polygon fill="midnightblue" stroke="midnightblue" points="775,-91.0091 771.5,-81.0091 768,-91.0091 775,-91.0091"/>
</g>
<!-- Node14 -->
<g id="node14" class="node"><title>Node14</title>
<g id="a_node14"><a xlink:href="basedefinitions_8h.xhtml" target="_top" xlink:title="Basic types and macros used throughout GROMACS. ">
<polygon fill="white" stroke="black" points="0,-62 0,-81 157,-81 157,-62 0,-62"/>
<text text-anchor="middle" x="78.5" y="-69" font-family="Helvetica,sans-Serif" font-size="10.00">gromacs/utility/basedefinitions.h</text>
</a>
</g>
</g>
<!-- Node13&#45;&gt;Node14 -->
<g id="edge15" class="edge"><title>Node13&#45;&gt;Node14</title>
<path fill="none" stroke="midnightblue" d="M542.598,-124.033C539.524,-123.683 536.48,-123.337 533.5,-123 405.808,-108.547 257.91,-92.2058 166.268,-82.127"/>
<polygon fill="midnightblue" stroke="midnightblue" points="166.525,-78.6343 156.203,-81.0204 165.76,-85.5924 166.525,-78.6343"/>
</g>
<!-- Node17 -->
<g id="node17" class="node"><title>Node17</title>
<g id="a_node17"><a xlink:href="current__function_8h.xhtml" target="_top" xlink:title="Declares GMX_CURRENT_FUNCTION for getting the current function name. ">
<polygon fill="white" stroke="black" points="457,-56.5 457,-86.5 570,-86.5 570,-56.5 457,-56.5"/>
<text text-anchor="start" x="465" y="-74.5" font-family="Helvetica,sans-Serif" font-size="10.00">gromacs/utility/current</text>
<text text-anchor="middle" x="513.5" y="-63.5" font-family="Helvetica,sans-Serif" font-size="10.00">_function.h</text>
</a>
</g>
</g>
<!-- Node13&#45;&gt;Node17 -->
<g id="edge18" class="edge"><title>Node13&#45;&gt;Node17</title>
<path fill="none" stroke="midnightblue" d="M597.459,-123.475C583.938,-115.266 563.007,-102.558 545.427,-91.8845"/>
<polygon fill="midnightblue" stroke="midnightblue" points="546.961,-88.721 536.597,-86.523 543.328,-94.7046 546.961,-88.721"/>
</g>
<!-- Node15 -->
<g id="node15" class="node"><title>Node15</title>
<polygon fill="white" stroke="#bfbfbf" points="18,-0.5 18,-19.5 67,-19.5 67,-0.5 18,-0.5"/>
<text text-anchor="middle" x="42.5" y="-7.5" font-family="Helvetica,sans-Serif" font-size="10.00">stdint.h</text>
</g>
<!-- Node14&#45;&gt;Node15 -->
<g id="edge16" class="edge"><title>Node14&#45;&gt;Node15</title>
<path fill="none" stroke="midnightblue" d="M73.3421,-61.9751C68.049,-53.2268 59.6645,-39.3691 52.9729,-28.3093"/>
<polygon fill="midnightblue" stroke="midnightblue" points="55.8196,-26.2531 47.6484,-19.5091 49.8305,-29.8768 55.8196,-26.2531"/>
</g>
<!-- Node16 -->
<g id="node16" class="node"><title>Node16</title>
<polygon fill="white" stroke="#bfbfbf" points="85,-0.5 85,-19.5 144,-19.5 144,-0.5 85,-0.5"/>
<text text-anchor="middle" x="114.5" y="-7.5" font-family="Helvetica,sans-Serif" font-size="10.00">inttypes.h</text>
</g>
<!-- Node14&#45;&gt;Node16 -->
<g id="edge17" class="edge"><title>Node14&#45;&gt;Node16</title>
<path fill="none" stroke="midnightblue" d="M83.6579,-61.9751C88.951,-53.2268 97.3355,-39.3691 104.027,-28.3093"/>
<polygon fill="midnightblue" stroke="midnightblue" points="107.17,-29.8768 109.352,-19.5091 101.18,-26.2531 107.17,-29.8768"/>
</g>
<!-- Node19&#45;&gt;Node4 -->
<g id="edge24" class="edge"><title>Node19&#45;&gt;Node4</title>
<path fill="none" stroke="midnightblue" d="M617.498,-235.43C649.18,-221.484 715.099,-193.942 773.5,-179 877.414,-152.414 909.848,-166.559 1017.72,-143.109"/>
<polygon fill="midnightblue" stroke="midnightblue" points="1018.7,-146.477 1027.7,-140.881 1017.17,-139.645 1018.7,-146.477"/>
</g>
<!-- Node19&#45;&gt;Node7 -->
<g id="edge26" class="edge"><title>Node19&#45;&gt;Node7</title>
<path fill="none" stroke="midnightblue" d="M640.332,-235.444C686.579,-225.984 761.112,-210.738 810.936,-200.547"/>
<polygon fill="midnightblue" stroke="midnightblue" points="811.768,-203.949 820.864,-198.516 810.366,-197.091 811.768,-203.949"/>
</g>
<!-- Node19&#45;&gt;Node8 -->
<g id="edge25" class="edge"><title>Node19&#45;&gt;Node8</title>
<path fill="none" stroke="midnightblue" d="M672.524,-235.482C744.227,-227.02 855.974,-213.277 952.5,-199 1083.67,-179.598 1239.17,-151.896 1305.23,-139.906"/>
<polygon fill="midnightblue" stroke="midnightblue" points="1306.2,-143.287 1315.42,-138.054 1304.95,-136.4 1306.2,-143.287"/>
</g>
<!-- Node19&#45;&gt;Node13 -->
<g id="edge28" class="edge"><title>Node19&#45;&gt;Node13</title>
<path fill="none" stroke="midnightblue" d="M594.846,-235.5C589.972,-223.002 582.503,-198.986 587.5,-179 589.939,-169.245 594.937,-159.29 599.743,-151.231"/>
<polygon fill="midnightblue" stroke="midnightblue" points="602.713,-153.083 605.133,-142.768 596.809,-149.322 602.713,-153.083"/>
</g>
<!-- Node19&#45;&gt;Node14 -->
<g id="edge27" class="edge"><title>Node19&#45;&gt;Node14</title>
<path fill="none" stroke="midnightblue" d="M520.828,-240.237C390.769,-232.162 137.623,-208.269 81.5,-143 69.4168,-128.948 70.5669,-106.884 73.5297,-91.1849"/>
<polygon fill="midnightblue" stroke="midnightblue" points="77.0223,-91.6129 75.8441,-81.0838 70.1991,-90.0495 77.0223,-91.6129"/>
</g>
<!-- Node20&#45;&gt;Node4 -->
<g id="edge30" class="edge"><title>Node20&#45;&gt;Node4</title>
<path fill="none" stroke="midnightblue" d="M1146.1,-235.173C1135.05,-226.429 1118.03,-212.437 1104.5,-199 1088.89,-183.504 1072.66,-164.26 1061.71,-150.746"/>
<polygon fill="midnightblue" stroke="midnightblue" points="1064.33,-148.41 1055.35,-142.79 1058.86,-152.784 1064.33,-148.41"/>
</g>
<!-- Node20&#45;&gt;Node7 -->
<g id="edge32" class="edge"><title>Node20&#45;&gt;Node7</title>
<path fill="none" stroke="midnightblue" d="M1110.76,-235.444C1058.75,-225.925 974.749,-210.547 919.076,-200.356"/>
<polygon fill="midnightblue" stroke="midnightblue" points="919.492,-196.874 909.025,-198.516 918.231,-203.76 919.492,-196.874"/>
</g>
<!-- Node20&#45;&gt;Node8 -->
<g id="edge31" class="edge"><title>Node20&#45;&gt;Node8</title>
<path fill="none" stroke="midnightblue" d="M1195.31,-235.438C1220.9,-228.429 1254.62,-216.739 1280.5,-199 1299.19,-186.193 1315.65,-165.893 1326.02,-151.387"/>
<polygon fill="midnightblue" stroke="midnightblue" points="1329.13,-153.049 1331.92,-142.828 1323.36,-149.078 1329.13,-153.049"/>
</g>
<!-- Node21 -->
<g id="node21" class="node"><title>Node21</title>
<g id="a_node21"><a xlink:href="optionfiletype_8h.xhtml" target="_top" xlink:title="Defines an enumeration type for specifying file types for options. ">
<polygon fill="white" stroke="black" points="1113.5,-179.5 1113.5,-198.5 1271.5,-198.5 1271.5,-179.5 1113.5,-179.5"/>
<text text-anchor="middle" x="1192.5" y="-186.5" font-family="Helvetica,sans-Serif" font-size="10.00">gromacs/options/optionfiletype.h</text>
</a>
</g>
</g>
<!-- Node20&#45;&gt;Node21 -->
<g id="edge33" class="edge"><title>Node20&#45;&gt;Node21</title>
<path fill="none" stroke="midnightblue" d="M1163.28,-235.083C1168.17,-227.534 1175.33,-216.495 1181.33,-207.23"/>
<polygon fill="midnightblue" stroke="midnightblue" points="1184.33,-209.046 1186.83,-198.751 1178.45,-205.239 1184.33,-209.046"/>
</g>
<!-- Node22&#45;&gt;Node8 -->
<g id="edge40" class="edge"><title>Node22&#45;&gt;Node8</title>
<path fill="none" stroke="midnightblue" d="M1725.67,-180.124C1722.57,-179.742 1719.5,-179.366 1716.5,-179 1588.15,-163.359 1435.26,-145.416 1369.82,-137.769"/>
<polygon fill="midnightblue" stroke="midnightblue" points="1370.06,-134.273 1359.72,-136.59 1369.25,-141.226 1370.06,-134.273"/>
</g>
<!-- Node22&#45;&gt;Node13 -->
<g id="edge41" class="edge"><title>Node22&#45;&gt;Node13</title>
<path fill="none" stroke="midnightblue" d="M1725.71,-179.816C1722.6,-179.515 1719.51,-179.241 1716.5,-179 1264.56,-142.905 1146.66,-176.701 690.527,-143.006"/>
<polygon fill="midnightblue" stroke="midnightblue" points="690.608,-139.502 680.375,-142.249 690.087,-146.483 690.608,-139.502"/>
</g>
<!-- Node23 -->
<g id="node23" class="node"><title>Node23</title>
<polygon fill="white" stroke="#bfbfbf" points="1836,-123.5 1836,-142.5 1885,-142.5 1885,-123.5 1836,-123.5"/>
<text text-anchor="middle" x="1860.5" y="-130.5" font-family="Helvetica,sans-Serif" font-size="10.00">cstddef</text>
</g>
<!-- Node22&#45;&gt;Node23 -->
<g id="edge36" class="edge"><title>Node22&#45;&gt;Node23</title>
<path fill="none" stroke="midnightblue" d="M1800.07,-179.324C1810.92,-171.185 1827.38,-158.839 1840.38,-149.087"/>
<polygon fill="midnightblue" stroke="midnightblue" points="1842.82,-151.634 1848.72,-142.834 1838.62,-146.034 1842.82,-151.634"/>
</g>
<!-- Node24 -->
<g id="node24" class="node"><title>Node24</title>
<polygon fill="white" stroke="#bfbfbf" points="1694,-123.5 1694,-142.5 1741,-142.5 1741,-123.5 1694,-123.5"/>
<text text-anchor="middle" x="1717.5" y="-130.5" font-family="Helvetica,sans-Serif" font-size="10.00">iterator</text>
</g>
<!-- Node22&#45;&gt;Node24 -->
<g id="edge37" class="edge"><title>Node22&#45;&gt;Node24</title>
<path fill="none" stroke="midnightblue" d="M1777.09,-179.324C1766.39,-171.185 1750.16,-158.839 1737.34,-149.087"/>
<polygon fill="midnightblue" stroke="midnightblue" points="1739.19,-146.102 1729.11,-142.834 1734.96,-151.673 1739.19,-146.102"/>
</g>
<!-- Node25 -->
<g id="node25" class="node"><title>Node25</title>
<polygon fill="white" stroke="#bfbfbf" points="1759,-123.5 1759,-142.5 1818,-142.5 1818,-123.5 1759,-123.5"/>
<text text-anchor="middle" x="1788.5" y="-130.5" font-family="Helvetica,sans-Serif" font-size="10.00">stdexcept</text>
</g>
<!-- Node22&#45;&gt;Node25 -->
<g id="edge38" class="edge"><title>Node22&#45;&gt;Node25</title>
<path fill="none" stroke="midnightblue" d="M1788.5,-179.083C1788.5,-172.006 1788.5,-161.861 1788.5,-152.986"/>
<polygon fill="midnightblue" stroke="midnightblue" points="1792,-152.751 1788.5,-142.751 1785,-152.751 1792,-152.751"/>
</g>
<!-- Node26 -->
<g id="node26" class="node"><title>Node26</title>
<polygon fill="white" stroke="#bfbfbf" points="1633.5,-123.5 1633.5,-142.5 1673.5,-142.5 1673.5,-123.5 1633.5,-123.5"/>
<text text-anchor="middle" x="1653.5" y="-130.5" font-family="Helvetica,sans-Serif" font-size="10.00">utility</text>
</g>
<!-- Node22&#45;&gt;Node26 -->
<g id="edge39" class="edge"><title>Node22&#45;&gt;Node26</title>
<path fill="none" stroke="midnightblue" d="M1767.11,-179.444C1744.53,-170.412 1708.77,-156.107 1683.4,-145.961"/>
<polygon fill="midnightblue" stroke="midnightblue" points="1684.49,-142.627 1673.91,-142.163 1681.89,-149.127 1684.49,-142.627"/>
</g>
<!-- Node27&#45;&gt;Node4 -->
<g id="edge47" class="edge"><title>Node27&#45;&gt;Node4</title>
<path fill="none" stroke="midnightblue" d="M523.247,-184.391C648.839,-177.581 909.326,-161.959 1017.73,-142.904"/>
<polygon fill="midnightblue" stroke="midnightblue" points="1018.54,-146.314 1027.73,-141.05 1017.26,-139.431 1018.54,-146.314"/>
</g>
<!-- Node27&#45;&gt;Node8 -->
<g id="edge50" class="edge"><title>Node27&#45;&gt;Node8</title>
<path fill="none" stroke="midnightblue" d="M523.235,-183.74C702.889,-172.766 1176.45,-143.838 1304.94,-135.989"/>
<polygon fill="midnightblue" stroke="midnightblue" points="1305.51,-139.461 1315.28,-135.357 1305.09,-132.474 1305.51,-139.461"/>
</g>
<!-- Node27&#45;&gt;Node11 -->
<g id="edge52" class="edge"><title>Node27&#45;&gt;Node11</title>
<path fill="none" stroke="midnightblue" d="M503.888,-179.444C560.176,-169.885 651.252,-154.419 711.258,-144.23"/>
<polygon fill="midnightblue" stroke="midnightblue" points="712.075,-147.641 721.348,-142.516 710.903,-140.74 712.075,-147.641"/>
</g>
<!-- Node27&#45;&gt;Node12 -->
<g id="edge46" class="edge"><title>Node27&#45;&gt;Node12</title>
<path fill="none" stroke="midnightblue" d="M453.32,-179.338C453.534,-165.26 456.159,-137.532 472.5,-123 510.854,-88.8922 664.248,-77.445 735.183,-73.9259"/>
<polygon fill="midnightblue" stroke="midnightblue" points="735.604,-77.4101 745.429,-73.4447 735.276,-70.4178 735.604,-77.4101"/>
</g>
<!-- Node27&#45;&gt;Node13 -->
<g id="edge54" class="edge"><title>Node27&#45;&gt;Node13</title>
<path fill="none" stroke="midnightblue" d="M478.536,-179.444C505.116,-170.359 547.309,-155.939 577.023,-145.783"/>
<polygon fill="midnightblue" stroke="midnightblue" points="578.251,-149.062 586.582,-142.516 575.987,-142.439 578.251,-149.062"/>
</g>
<!-- Node27&#45;&gt;Node14 -->
<g id="edge51" class="edge"><title>Node27&#45;&gt;Node14</title>
<path fill="none" stroke="midnightblue" d="M383.82,-188.124C292.47,-186.82 138.954,-179.112 97.5,-143 83.0404,-130.404 79.0353,-108.075 78.1782,-91.9157"/>
<polygon fill="midnightblue" stroke="midnightblue" points="81.6704,-91.4076 78.006,-81.4667 74.6714,-91.5231 81.6704,-91.4076"/>
</g>
<!-- Node27&#45;&gt;Node17 -->
<g id="edge53" class="edge"><title>Node27&#45;&gt;Node17</title>
<path fill="none" stroke="midnightblue" d="M447.965,-179.073C440.659,-166.044 429.795,-141.373 439.5,-123 446.398,-109.941 458.36,-99.6222 470.679,-91.8071"/>
<polygon fill="midnightblue" stroke="midnightblue" points="472.786,-94.6295 479.646,-86.5556 469.248,-88.5892 472.786,-94.6295"/>
</g>
<!-- Node28 -->
<g id="node28" class="node"><title>Node28</title>
<polygon fill="white" stroke="#bfbfbf" points="482,-123.5 482,-142.5 525,-142.5 525,-123.5 482,-123.5"/>
<text text-anchor="middle" x="503.5" y="-130.5" font-family="Helvetica,sans-Serif" font-size="10.00">cstdio</text>
</g>
<!-- Node27&#45;&gt;Node28 -->
<g id="edge43" class="edge"><title>Node27&#45;&gt;Node28</title>
<path fill="none" stroke="midnightblue" d="M461.756,-179.083C468.965,-171.298 479.61,-159.801 488.346,-150.367"/>
<polygon fill="midnightblue" stroke="midnightblue" points="491.171,-152.467 495.397,-142.751 486.035,-147.711 491.171,-152.467"/>
</g>
<!-- Node29 -->
<g id="node29" class="node"><title>Node29</title>
<polygon fill="white" stroke="#bfbfbf" points="107,-123.5 107,-142.5 152,-142.5 152,-123.5 107,-123.5"/>
<text text-anchor="middle" x="129.5" y="-130.5" font-family="Helvetica,sans-Serif" font-size="10.00">cstdlib</text>
</g>
<!-- Node27&#45;&gt;Node29 -->
<g id="edge44" class="edge"><title>Node27&#45;&gt;Node29</title>
<path fill="none" stroke="midnightblue" d="M383.764,-179.886C326.431,-172.622 242.959,-160.69 161.963,-143.103"/>
<polygon fill="midnightblue" stroke="midnightblue" points="162.618,-139.663 152.099,-140.93 161.112,-146.499 162.618,-139.663"/>
</g>
<!-- Node30 -->
<g id="node30" class="node"><title>Node30</title>
<polygon fill="white" stroke="#bfbfbf" points="170,-123.5 170,-142.5 229,-142.5 229,-123.5 170,-123.5"/>
<text text-anchor="middle" x="199.5" y="-130.5" font-family="Helvetica,sans-Serif" font-size="10.00">exception</text>
</g>
<!-- Node27&#45;&gt;Node30 -->
<g id="edge45" class="edge"><title>Node27&#45;&gt;Node30</title>
<path fill="none" stroke="midnightblue" d="M411.424,-179.459C370.16,-171.023 305.196,-157.585 239.428,-143.169"/>
<polygon fill="midnightblue" stroke="midnightblue" points="239.815,-139.671 229.296,-140.942 238.312,-146.508 239.815,-139.671"/>
</g>
<!-- Node31 -->
<g id="node31" class="node"><title>Node31</title>
<polygon fill="white" stroke="#bfbfbf" points="247.5,-123.5 247.5,-142.5 309.5,-142.5 309.5,-123.5 247.5,-123.5"/>
<text text-anchor="middle" x="278.5" y="-130.5" font-family="Helvetica,sans-Serif" font-size="10.00">type_traits</text>
</g>
<!-- Node27&#45;&gt;Node31 -->
<g id="edge48" class="edge"><title>Node27&#45;&gt;Node31</title>
<path fill="none" stroke="midnightblue" d="M425.771,-179.444C396.074,-170.28 348.784,-155.688 315.831,-145.519"/>
<polygon fill="midnightblue" stroke="midnightblue" points="316.687,-142.121 306.1,-142.516 314.623,-148.809 316.687,-142.121"/>
</g>
<!-- Node32 -->
<g id="node32" class="node"><title>Node32</title>
<polygon fill="white" stroke="#bfbfbf" points="328,-123.5 328,-142.5 387,-142.5 387,-123.5 328,-123.5"/>
<text text-anchor="middle" x="357.5" y="-130.5" font-family="Helvetica,sans-Serif" font-size="10.00">typeindex</text>
</g>
<!-- Node27&#45;&gt;Node32 -->
<g id="edge49" class="edge"><title>Node27&#45;&gt;Node32</title>
<path fill="none" stroke="midnightblue" d="M438.076,-179.324C422.96,-170.822 399.685,-157.729 382.029,-147.797"/>
<polygon fill="midnightblue" stroke="midnightblue" points="383.317,-144.507 372.886,-142.655 379.886,-150.608 383.317,-144.507"/>
</g>
<!-- Node33&#45;&gt;Node4 -->
<g id="edge56" class="edge"><title>Node33&#45;&gt;Node4</title>
<path fill="none" stroke="midnightblue" d="M1473.63,-235.496C1440.84,-221.769 1373.1,-194.688 1313.5,-179 1230.04,-157.033 1128.87,-143.321 1079.13,-137.4"/>
<polygon fill="midnightblue" stroke="midnightblue" points="1079.38,-133.905 1069.04,-136.222 1078.57,-140.858 1079.38,-133.905"/>
</g>
<!-- Node33&#45;&gt;Node34 -->
<g id="edge57" class="edge"><title>Node33&#45;&gt;Node34</title>
<path fill="none" stroke="midnightblue" d="M1518.69,-235.444C1545.44,-226.359 1587.9,-211.939 1617.81,-201.783"/>
<polygon fill="midnightblue" stroke="midnightblue" points="1619.08,-205.046 1627.42,-198.516 1616.83,-198.418 1619.08,-205.046"/>
</g>
<!-- Node35 -->
<g id="node35" class="node"><title>Node35</title>
<g id="a_node35"><a xlink:href="textstream_8h.xhtml" target="_top" xlink:title="Declares interfaces for simple input/output streams. ">
<polygon fill="white" stroke="black" points="1441.5,-179.5 1441.5,-198.5 1579.5,-198.5 1579.5,-179.5 1441.5,-179.5"/>
<text text-anchor="middle" x="1510.5" y="-186.5" font-family="Helvetica,sans-Serif" font-size="10.00">gromacs/utility/textstream.h</text>
</a>
</g>
</g>
<!-- Node33&#45;&gt;Node35 -->
<g id="edge61" class="edge"><title>Node33&#45;&gt;Node35</title>
<path fill="none" stroke="midnightblue" d="M1496.31,-235.083C1498.58,-227.849 1501.87,-217.409 1504.71,-208.397"/>
<polygon fill="midnightblue" stroke="midnightblue" points="1508.08,-209.341 1507.75,-198.751 1501.4,-207.239 1508.08,-209.341"/>
</g>
<!-- Node34&#45;&gt;Node4 -->
<g id="edge58" class="edge"><title>Node34&#45;&gt;Node4</title>
<path fill="none" stroke="midnightblue" d="M1597.37,-180.045C1594.37,-179.676 1591.4,-179.324 1588.5,-179 1395.24,-157.376 1161.99,-141.332 1079.34,-135.957"/>
<polygon fill="midnightblue" stroke="midnightblue" points="1079.35,-132.45 1069.14,-135.298 1078.89,-139.435 1079.35,-132.45"/>
</g>
<!-- Node34&#45;&gt;Node8 -->
<g id="edge60" class="edge"><title>Node34&#45;&gt;Node8</title>
<path fill="none" stroke="midnightblue" d="M1602.59,-179.444C1537.23,-168.24 1424.54,-148.921 1369.55,-139.495"/>
<polygon fill="midnightblue" stroke="midnightblue" points="1370.11,-136.04 1359.67,-137.8 1368.93,-142.939 1370.11,-136.04"/>
</g>
<!-- Node34&#45;&gt;Node26 -->
<g id="edge59" class="edge"><title>Node34&#45;&gt;Node26</title>
<path fill="none" stroke="midnightblue" d="M1652.67,-179.083C1652.8,-172.006 1652.98,-161.861 1653.15,-152.986"/>
<polygon fill="midnightblue" stroke="midnightblue" points="1656.65,-152.814 1653.34,-142.751 1649.65,-152.685 1656.65,-152.814"/>
</g>
<!-- Node35&#45;&gt;Node12 -->
<g id="edge62" class="edge"><title>Node35&#45;&gt;Node12</title>
<path fill="none" stroke="midnightblue" d="M1496.22,-179.355C1471.31,-164.775 1417.88,-135.65 1368.5,-123 1153.96,-68.0379 1091.67,-110.906 871.5,-87 850.31,-84.6993 826.709,-81.3163 807.758,-78.3965"/>
<polygon fill="midnightblue" stroke="midnightblue" points="808.174,-74.9191 797.753,-76.8319 807.092,-81.8351 808.174,-74.9191"/>
</g>
<!-- Node36&#45;&gt;Node4 -->
<g id="edge66" class="edge"><title>Node36&#45;&gt;Node4</title>
<path fill="none" stroke="midnightblue" d="M1372.05,-347.396C1358.91,-315.08 1311.25,-201.649 1280.5,-179 1248.91,-155.731 1135.04,-142.114 1079.46,-136.714"/>
<polygon fill="midnightblue" stroke="midnightblue" points="1079.44,-133.198 1069.16,-135.744 1078.78,-140.167 1079.44,-133.198"/>
</g>
<!-- Node36&#45;&gt;Node8 -->
<g id="edge67" class="edge"><title>Node36&#45;&gt;Node8</title>
<path fill="none" stroke="midnightblue" d="M1374.01,-347.297C1368.42,-314.633 1348.6,-198.866 1340.74,-152.957"/>
<polygon fill="midnightblue" stroke="midnightblue" points="1344.16,-152.15 1339.02,-142.884 1337.26,-153.331 1344.16,-152.15"/>
</g>
<!-- Node36&#45;&gt;Node18 -->
<g id="edge65" class="edge"><title>Node36&#45;&gt;Node18</title>
<path fill="none" stroke="midnightblue" d="M1387.07,-347.324C1397.92,-339.185 1414.38,-326.839 1427.38,-317.087"/>
<polygon fill="midnightblue" stroke="midnightblue" points="1429.82,-319.634 1435.72,-310.834 1425.62,-314.034 1429.82,-319.634"/>
</g>
</g>
</svg>
