<?xml version="1.0" encoding="UTF-8" standalone="no"?>
<!DOCTYPE svg PUBLIC "-//W3C//DTD SVG 1.1//EN"
 "http://www.w3.org/Graphics/SVG/1.1/DTD/svg11.dtd">
<!-- Generated by graphviz version 2.38.0 (20140413.2041)
 -->
<!-- Title: src/gromacs/random/gammadistribution.h Pages: 1 -->
<svg width="284pt" height="106pt"
 viewBox="0.00 0.00 283.50 106.00" xmlns="http://www.w3.org/2000/svg" xmlns:xlink="http://www.w3.org/1999/xlink">
<g id="graph0" class="graph" transform="scale(1 1) rotate(0) translate(4 102)">
<title>src/gromacs/random/gammadistribution.h</title>
<polygon fill="white" stroke="none" points="-4,4 -4,-102 279.5,-102 279.5,4 -4,4"/>
<!-- Node1 -->
<g id="node1" class="node"><title>Node1</title>
<polygon fill="#bfbfbf" stroke="black" points="91,-67.5 91,-97.5 198,-97.5 198,-67.5 91,-67.5"/>
<text text-anchor="start" x="99" y="-85.5" font-family="Helvetica,sans-Serif" font-size="10.00">src/gromacs/random</text>
<text text-anchor="middle" x="144.5" y="-74.5" font-family="Helvetica,sans-Serif" font-size="10.00">/gammadistribution.h</text>
</g>
<!-- Node2 -->
<g id="node2" class="node"><title>Node2</title>
<g id="a_node2"><a xlink:href="gammadistribution_8cpp.xhtml" target="_top" xlink:title="Tests for GROMACS gamma distribution. ">
<polygon fill="white" stroke="black" points="0,-0.5 0,-30.5 143,-30.5 143,-0.5 0,-0.5"/>
<text text-anchor="start" x="8" y="-18.5" font-family="Helvetica,sans-Serif" font-size="10.00">src/gromacs/random</text>
<text text-anchor="middle" x="71.5" y="-7.5" font-family="Helvetica,sans-Serif" font-size="10.00">/tests/gammadistribution.cpp</text>
</a>
</g>
</g>
<!-- Node1&#45;&gt;Node2 -->
<g id="edge1" class="edge"><title>Node1&#45;&gt;Node2</title>
<path fill="none" stroke="midnightblue" d="M121.025,-60.5978C110.003,-50.7831 97.1558,-39.3442 87.309,-30.5765"/>
<polygon fill="midnightblue" stroke="midnightblue" points="118.864,-63.3599 128.66,-67.396 123.519,-58.132 118.864,-63.3599"/>
</g>
<!-- Node3 -->
<g id="node3" class="node"><title>Node3</title>
<g id="a_node3"><a xlink:href="random_8h.xhtml" target="_top" xlink:title="Public API convenience header for random engines and distributions. ">
<polygon fill="white" stroke="black" points="161.5,-6 161.5,-25 275.5,-25 275.5,-6 161.5,-6"/>
<text text-anchor="middle" x="218.5" y="-13" font-family="Helvetica,sans-Serif" font-size="10.00">src/gromacs/random.h</text>
</a>
</g>
</g>
<!-- Node1&#45;&gt;Node3 -->
<g id="edge2" class="edge"><title>Node1&#45;&gt;Node3</title>
<path fill="none" stroke="midnightblue" d="M168.212,-60.6722C181.875,-48.6707 198.326,-34.2203 208.602,-25.1945"/>
<polygon fill="midnightblue" stroke="midnightblue" points="165.76,-58.1669 160.557,-67.396 170.38,-63.4261 165.76,-58.1669"/>
</g>
</g>
</svg>
