<?xml version="1.0" encoding="UTF-8" standalone="no"?>
<!DOCTYPE svg PUBLIC "-//W3C//DTD SVG 1.1//EN"
 "http://www.w3.org/Graphics/SVG/1.1/DTD/svg11.dtd">
<!-- Generated by graphviz version 2.38.0 (20140413.2041)
 -->
<!-- Title: src/gromacs/gpu_utils/gpu_utils.h Pages: 1 -->
<svg width="717pt" height="106pt"
 viewBox="0.00 0.00 716.50 106.00" xmlns="http://www.w3.org/2000/svg" xmlns:xlink="http://www.w3.org/1999/xlink">
<g id="graph0" class="graph" transform="scale(1 1) rotate(0) translate(4 102)">
<title>src/gromacs/gpu_utils/gpu_utils.h</title>
<polygon fill="white" stroke="none" points="-4,4 -4,-102 712.5,-102 712.5,4 -4,4"/>
<!-- Node1 -->
<g id="node1" class="node"><title>Node1</title>
<polygon fill="#bfbfbf" stroke="black" points="283,-67.5 283,-97.5 396,-97.5 396,-67.5 283,-67.5"/>
<text text-anchor="start" x="291" y="-85.5" font-family="Helvetica,sans-Serif" font-size="10.00">src/gromacs/gpu_utils</text>
<text text-anchor="middle" x="339.5" y="-74.5" font-family="Helvetica,sans-Serif" font-size="10.00">/gpu_utils.h</text>
</g>
<!-- Node2 -->
<g id="node2" class="node"><title>Node2</title>
<g id="a_node2"><a xlink:href="gpu__utils_8cpp.xhtml" target="_top" xlink:title="Stub functions for non&#45;GPU builds. ">
<polygon fill="white" stroke="black" points="0,-0.5 0,-30.5 113,-30.5 113,-0.5 0,-0.5"/>
<text text-anchor="start" x="8" y="-18.5" font-family="Helvetica,sans-Serif" font-size="10.00">src/gromacs/gpu_utils</text>
<text text-anchor="middle" x="56.5" y="-7.5" font-family="Helvetica,sans-Serif" font-size="10.00">/gpu_utils.cpp</text>
</a>
</g>
</g>
<!-- Node1&#45;&gt;Node2 -->
<g id="edge1" class="edge"><title>Node1&#45;&gt;Node2</title>
<path fill="none" stroke="midnightblue" d="M273.139,-66.2581C224.661,-55.1234 159.608,-40.1819 113.475,-29.5862"/>
<polygon fill="midnightblue" stroke="midnightblue" points="272.381,-69.6751 282.911,-68.5025 273.948,-62.8527 272.381,-69.6751"/>
</g>
<!-- Node3 -->
<g id="node3" class="node"><title>Node3</title>
<g id="a_node3"><a xlink:href="gpu__utils__ocl_8cpp.xhtml" target="_top" xlink:title="Define functions for detection and initialization for OpenCL devices. ">
<polygon fill="white" stroke="black" points="131,-0.5 131,-30.5 244,-30.5 244,-0.5 131,-0.5"/>
<text text-anchor="start" x="139" y="-18.5" font-family="Helvetica,sans-Serif" font-size="10.00">src/gromacs/gpu_utils</text>
<text text-anchor="middle" x="187.5" y="-7.5" font-family="Helvetica,sans-Serif" font-size="10.00">/gpu_utils_ocl.cpp</text>
</a>
</g>
</g>
<!-- Node1&#45;&gt;Node3 -->
<g id="edge2" class="edge"><title>Node1&#45;&gt;Node3</title>
<path fill="none" stroke="midnightblue" d="M297.189,-63.4066C272.923,-53.0294 242.911,-40.1954 220.417,-30.5765"/>
<polygon fill="midnightblue" stroke="midnightblue" points="295.947,-66.6821 306.518,-67.396 298.7,-60.2459 295.947,-66.6821"/>
</g>
<!-- Node4 -->
<g id="node4" class="node"><title>Node4</title>
<g id="a_node4"><a xlink:href="nbnxn__ocl__data__mgmt_8cpp.xhtml" target="_top" xlink:title="Define OpenCL implementation of nbnxn_gpu_data_mgmt.h. ">
<polygon fill="white" stroke="black" points="262,-0.5 262,-30.5 417,-30.5 417,-0.5 262,-0.5"/>
<text text-anchor="start" x="270" y="-18.5" font-family="Helvetica,sans-Serif" font-size="10.00">src/gromacs/mdlib/nbnxn</text>
<text text-anchor="middle" x="339.5" y="-7.5" font-family="Helvetica,sans-Serif" font-size="10.00">_ocl/nbnxn_ocl_data_mgmt.cpp</text>
</a>
</g>
</g>
<!-- Node1&#45;&gt;Node4 -->
<g id="edge3" class="edge"><title>Node1&#45;&gt;Node4</title>
<path fill="none" stroke="midnightblue" d="M339.5,-57.1081C339.5,-48.1539 339.5,-38.3227 339.5,-30.5765"/>
<polygon fill="midnightblue" stroke="midnightblue" points="336,-57.3959 339.5,-67.396 343,-57.396 336,-57.3959"/>
</g>
<!-- Node5 -->
<g id="node5" class="node"><title>Node5</title>
<g id="a_node5"><a xlink:href="nbnxn__ocl__jit__support_8cpp.xhtml" target="_top" xlink:title="Defines functions that support JIT compilation (e.g. for OpenCL) ">
<polygon fill="white" stroke="black" points="435,-0.5 435,-30.5 586,-30.5 586,-0.5 435,-0.5"/>
<text text-anchor="start" x="443" y="-18.5" font-family="Helvetica,sans-Serif" font-size="10.00">src/gromacs/mdlib/nbnxn</text>
<text text-anchor="middle" x="510.5" y="-7.5" font-family="Helvetica,sans-Serif" font-size="10.00">_ocl/nbnxn_ocl_jit_support.cpp</text>
</a>
</g>
</g>
<!-- Node1&#45;&gt;Node5 -->
<g id="edge4" class="edge"><title>Node1&#45;&gt;Node5</title>
<path fill="none" stroke="midnightblue" d="M386.016,-63.8185C413.502,-53.3707 447.827,-40.3231 473.468,-30.5765"/>
<polygon fill="midnightblue" stroke="midnightblue" points="384.708,-60.5712 376.604,-67.396 387.196,-67.1144 384.708,-60.5712"/>
</g>
<!-- Node6 -->
<g id="node6" class="node"><title>Node6</title>
<g id="a_node6"><a xlink:href="runner_8cpp.xhtml" target="_top" xlink:title="Implements the MD runner routine calling all integrators. ">
<polygon fill="white" stroke="black" points="604.5,-0.5 604.5,-30.5 708.5,-30.5 708.5,-0.5 604.5,-0.5"/>
<text text-anchor="start" x="612.5" y="-18.5" font-family="Helvetica,sans-Serif" font-size="10.00">src/programs/mdrun</text>
<text text-anchor="middle" x="656.5" y="-7.5" font-family="Helvetica,sans-Serif" font-size="10.00">/runner.cpp</text>
</a>
</g>
</g>
<!-- Node1&#45;&gt;Node6 -->
<g id="edge5" class="edge"><title>Node1&#45;&gt;Node6</title>
<path fill="none" stroke="midnightblue" d="M406.115,-69.0893C457.868,-59.2713 531.382,-44.9393 595.5,-31 598.372,-30.3756 601.317,-29.7217 604.287,-29.0513"/>
<polygon fill="midnightblue" stroke="midnightblue" points="405.239,-65.6929 396.064,-70.9913 406.541,-72.5709 405.239,-65.6929"/>
</g>
</g>
</svg>
