<?xml version="1.0" encoding="UTF-8" standalone="no"?>
<!DOCTYPE svg PUBLIC "-//W3C//DTD SVG 1.1//EN"
 "http://www.w3.org/Graphics/SVG/1.1/DTD/svg11.dtd">
<!-- Generated by graphviz version 2.38.0 (20140413.2041)
 -->
<!-- Title: Parallelizable Handling of Output Data (analysisdata) Pages: 1 -->
<svg width="541pt" height="588pt"
 viewBox="0.00 0.00 541.00 588.06" xmlns="http://www.w3.org/2000/svg" xmlns:xlink="http://www.w3.org/1999/xlink">
<g id="graph0" class="graph" transform="scale(1 1) rotate(0) translate(4 584.059)">
<title>Parallelizable Handling of Output Data (analysisdata)</title>
<polygon fill="white" stroke="none" points="-4,4 -4,-584.059 537,-584.059 537,4 -4,4"/>
<!-- Node3 -->
<g id="node1" class="node"><title>Node3</title>
<g id="a_node1"><a xlink:href="group__group__publicapi.xhtml" target="_top" xlink:title="Classes and other symbols that are publicly accessible from user code. ">
<polygon fill="white" stroke="black" points="469,-355.559 469,-374.559 532,-374.559 532,-355.559 469,-355.559"/>
<text text-anchor="middle" x="500.5" y="-362.559" font-family="Helvetica,sans-Serif" font-size="10.00">Public API</text>
</a>
</g>
</g>
<!-- Node1 -->
<g id="node2" class="node"><title>Node1</title>
<g id="a_node2"><a xlink:href="group__group__analysismodules.xhtml" target="_top" xlink:title="Modules used in analysis tools. ">
<polygon fill="white" stroke="black" points="0,-205.559 0,-224.559 94,-224.559 94,-205.559 0,-205.559"/>
<text text-anchor="middle" x="47" y="-212.559" font-family="Helvetica,sans-Serif" font-size="10.00">Analysis Modules</text>
</a>
</g>
</g>
<!-- Node0 -->
<g id="node3" class="node"><title>Node0</title>
<polygon fill="#bfbfbf" stroke="black" points="131,-200.059 131,-230.059 279,-230.059 279,-200.059 131,-200.059"/>
<text text-anchor="start" x="139" y="-218.059" font-family="Helvetica,sans-Serif" font-size="10.00">Parallelizable Handling</text>
<text text-anchor="middle" x="205" y="-207.059" font-family="Helvetica,sans-Serif" font-size="10.00"> of Output Data (analysisdata)</text>
</g>
<!-- Node1&#45;&gt;Node0 -->
<g id="edge1" class="edge"><title>Node1&#45;&gt;Node0</title>
<path fill="none" stroke="midnightblue" d="M104.598,-215.059C113.149,-215.059 122.072,-215.059 130.91,-215.059"/>
<polygon fill="midnightblue" stroke="midnightblue" points="104.383,-211.559 94.3828,-215.059 104.383,-218.559 104.383,-211.559"/>
</g>
<!-- Node0&#45;&gt;Node3 -->
<g id="edge3" class="edge"><title>Node0&#45;&gt;Node3</title>
<path fill="none" stroke="orange" stroke-dasharray="5,2" d="M207.911,-230.117C213.56,-267.51 233.942,-364.434 297,-404.059 354.576,-440.239 385.75,-426.328 450,-404.059 466.746,-398.254 482.12,-384.178 491.153,-374.624"/>
<text text-anchor="middle" x="373.5" y="-572.059" font-family="Helvetica,sans-Serif" font-size="10.00">gmx::AnalysisData</text>
<text text-anchor="middle" x="373.5" y="-561.059" font-family="Helvetica,sans-Serif" font-size="10.00">gmx::AnalysisDataHandle</text>
<text text-anchor="middle" x="373.5" y="-550.059" font-family="Helvetica,sans-Serif" font-size="10.00">gmx::AnalysisArrayData</text>
<text text-anchor="middle" x="373.5" y="-539.059" font-family="Helvetica,sans-Serif" font-size="10.00">gmx::AnalysisDataValue</text>
<text text-anchor="middle" x="373.5" y="-528.059" font-family="Helvetica,sans-Serif" font-size="10.00">gmx::AnalysisDataFrameHeader</text>
<text text-anchor="middle" x="373.5" y="-517.059" font-family="Helvetica,sans-Serif" font-size="10.00">gmx::AnalysisDataPointSetRef</text>
<text text-anchor="middle" x="373.5" y="-506.059" font-family="Helvetica,sans-Serif" font-size="10.00">gmx::AnalysisDataFrameRef</text>
<text text-anchor="start" x="299.5" y="-495.059" font-family="Helvetica,sans-Serif" font-size="10.00">gmx::AnalysisDataAverage</text>
<text text-anchor="middle" x="373.5" y="-484.059" font-family="Helvetica,sans-Serif" font-size="10.00">Module</text>
<text text-anchor="start" x="299.5" y="-473.059" font-family="Helvetica,sans-Serif" font-size="10.00">gmx::AnalysisDataFrameAverage</text>
<text text-anchor="middle" x="373.5" y="-462.059" font-family="Helvetica,sans-Serif" font-size="10.00">Module</text>
<text text-anchor="start" x="299.5" y="-451.059" font-family="Helvetica,sans-Serif" font-size="10.00">gmx::AnalysisDataDisplacement</text>
<text text-anchor="middle" x="373.5" y="-440.059" font-family="Helvetica,sans-Serif" font-size="10.00">Module</text>
<text text-anchor="middle" x="373.5" y="-429.059" font-family="Helvetica,sans-Serif" font-size="10.00">...</text>
</g>
<!-- Node0&#45;&gt;Node3 -->
<g id="edge5" class="edge"><title>Node0&#45;&gt;Node3</title>
<path fill="none" stroke="darkgreen" stroke-dasharray="5,2" d="M221.23,-230.185C238.17,-246.003 267.11,-270.151 297,-282.059 360.657,-307.418 390.467,-267.13 450,-301.059 472.211,-313.717 487.86,-340.725 495.051,-355.28"/>
<text text-anchor="middle" x="373.5" y="-392.059" font-family="Helvetica,sans-Serif" font-size="10.00">analysisdata.h</text>
<text text-anchor="middle" x="373.5" y="-381.059" font-family="Helvetica,sans-Serif" font-size="10.00">arraydata.h</text>
<text text-anchor="middle" x="373.5" y="-370.059" font-family="Helvetica,sans-Serif" font-size="10.00">dataframe.h</text>
<text text-anchor="middle" x="373.5" y="-359.059" font-family="Helvetica,sans-Serif" font-size="10.00">average.h</text>
<text text-anchor="middle" x="373.5" y="-348.059" font-family="Helvetica,sans-Serif" font-size="10.00">displacement.h</text>
<text text-anchor="middle" x="373.5" y="-337.059" font-family="Helvetica,sans-Serif" font-size="10.00">histogram.h</text>
<text text-anchor="middle" x="373.5" y="-326.059" font-family="Helvetica,sans-Serif" font-size="10.00">lifetime.h</text>
<text text-anchor="middle" x="373.5" y="-315.059" font-family="Helvetica,sans-Serif" font-size="10.00">plot.h</text>
<text text-anchor="middle" x="373.5" y="-304.059" font-family="Helvetica,sans-Serif" font-size="10.00">analysisdata.h</text>
</g>
<!-- Node2 -->
<g id="node4" class="node"><title>Node2</title>
<g id="a_node4"><a xlink:href="group__group__libraryapi.xhtml" target="_top" xlink:title="Classes and other symbols that are publicly accessible within the GROMACS library. ">
<polygon fill="white" stroke="black" points="468,-67.5587 468,-86.5587 533,-86.5587 533,-67.5587 468,-67.5587"/>
<text text-anchor="middle" x="500.5" y="-74.5587" font-family="Helvetica,sans-Serif" font-size="10.00">Library API</text>
</a>
</g>
</g>
<!-- Node0&#45;&gt;Node2 -->
<g id="edge2" class="edge"><title>Node0&#45;&gt;Node2</title>
<path fill="none" stroke="orange" stroke-dasharray="5,2" d="M216.988,-199.844C232.403,-179.769 262.463,-145.001 297,-128.059 358.736,-97.7734 384.991,-127.471 450,-105.059 462.881,-100.618 476.259,-92.8283 485.855,-86.5908"/>
<text text-anchor="middle" x="373.5" y="-274.059" font-family="Helvetica,sans-Serif" font-size="10.00">gmx::AbstractAnalysisData</text>
<text text-anchor="middle" x="373.5" y="-263.059" font-family="Helvetica,sans-Serif" font-size="10.00">gmx::AbstractAnalysisArrayData</text>
<text text-anchor="middle" x="373.5" y="-252.059" font-family="Helvetica,sans-Serif" font-size="10.00">gmx::IAnalysisDataModule</text>
<text text-anchor="middle" x="373.5" y="-241.059" font-family="Helvetica,sans-Serif" font-size="10.00">gmx::AnalysisDataModuleSerial</text>
<text text-anchor="middle" x="373.5" y="-230.059" font-family="Helvetica,sans-Serif" font-size="10.00">gmx::AnalysisDataModuleParallel</text>
<text text-anchor="middle" x="373.5" y="-219.059" font-family="Helvetica,sans-Serif" font-size="10.00">gmx::AnalysisDataModuleManager</text>
<text text-anchor="start" x="297" y="-208.059" font-family="Helvetica,sans-Serif" font-size="10.00">gmx::AnalysisDataStorage</text>
<text text-anchor="middle" x="373.5" y="-197.059" font-family="Helvetica,sans-Serif" font-size="10.00">Frame</text>
<text text-anchor="middle" x="373.5" y="-186.059" font-family="Helvetica,sans-Serif" font-size="10.00">gmx::AnalysisDataStorage</text>
<text text-anchor="start" x="297" y="-175.059" font-family="Helvetica,sans-Serif" font-size="10.00">gmx::AnalysisDataParallel</text>
<text text-anchor="middle" x="373.5" y="-164.059" font-family="Helvetica,sans-Serif" font-size="10.00">Options</text>
<text text-anchor="start" x="297" y="-153.059" font-family="Helvetica,sans-Serif" font-size="10.00">gmx::test::AnalysisDataTest</text>
<text text-anchor="middle" x="373.5" y="-142.059" font-family="Helvetica,sans-Serif" font-size="10.00">InputPointSet</text>
<text text-anchor="middle" x="373.5" y="-131.059" font-family="Helvetica,sans-Serif" font-size="10.00">...</text>
</g>
<!-- Node0&#45;&gt;Node2 -->
<g id="edge4" class="edge"><title>Node0&#45;&gt;Node2</title>
<path fill="none" stroke="darkgreen" stroke-dasharray="5,2" d="M207.855,-199.847C213.374,-162.073 233.482,-64.1549 297,-24.0587 354.502,12.2397 387.629,3.03215 450,-24.0587 470.325,-32.8867 486.099,-54.627 493.974,-67.3525"/>
<text text-anchor="middle" x="373.5" y="-93.0587" font-family="Helvetica,sans-Serif" font-size="10.00">abstractdata.h</text>
<text text-anchor="middle" x="373.5" y="-82.0587" font-family="Helvetica,sans-Serif" font-size="10.00">datamodule.h</text>
<text text-anchor="middle" x="373.5" y="-71.0587" font-family="Helvetica,sans-Serif" font-size="10.00">datamodulemanager.h</text>
<text text-anchor="middle" x="373.5" y="-60.0587" font-family="Helvetica,sans-Serif" font-size="10.00">datastorage.h</text>
<text text-anchor="middle" x="373.5" y="-49.0587" font-family="Helvetica,sans-Serif" font-size="10.00">paralleloptions.h</text>
<text text-anchor="middle" x="373.5" y="-38.0587" font-family="Helvetica,sans-Serif" font-size="10.00">datatest.h</text>
<text text-anchor="middle" x="373.5" y="-27.0587" font-family="Helvetica,sans-Serif" font-size="10.00">mock_datamodule.h</text>
</g>
</g>
</svg>
