<?xml version="1.0" encoding="UTF-8" standalone="no"?>
<!DOCTYPE svg PUBLIC "-//W3C//DTD SVG 1.1//EN"
 "http://www.w3.org/Graphics/SVG/1.1/DTD/svg11.dtd">
<!-- Generated by graphviz version 2.38.0 (20140413.2041)
 -->
<!-- Title: src/gromacs/mdrunutility/handlerestart.h Pages: 1 -->
<svg width="254pt" height="106pt"
 viewBox="0.00 0.00 254.00 106.00" xmlns="http://www.w3.org/2000/svg" xmlns:xlink="http://www.w3.org/1999/xlink">
<g id="graph0" class="graph" transform="scale(1 1) rotate(0) translate(4 102)">
<title>src/gromacs/mdrunutility/handlerestart.h</title>
<polygon fill="white" stroke="none" points="-4,4 -4,-102 250,-102 250,4 -4,4"/>
<!-- Node1 -->
<g id="node1" class="node"><title>Node1</title>
<polygon fill="#bfbfbf" stroke="black" points="66,-67.5 66,-97.5 190,-97.5 190,-67.5 66,-67.5"/>
<text text-anchor="start" x="74" y="-85.5" font-family="Helvetica,sans-Serif" font-size="10.00">src/gromacs/mdrunutility</text>
<text text-anchor="middle" x="128" y="-74.5" font-family="Helvetica,sans-Serif" font-size="10.00">/handlerestart.h</text>
</g>
<!-- Node2 -->
<g id="node2" class="node"><title>Node2</title>
<g id="a_node2"><a xlink:href="handlerestart_8cpp.xhtml" target="_top" xlink:title="This file declares functions for mdrun to call to manage the details of doing a restart (ie...">
<polygon fill="white" stroke="black" points="0,-0.5 0,-30.5 124,-30.5 124,-0.5 0,-0.5"/>
<text text-anchor="start" x="8" y="-18.5" font-family="Helvetica,sans-Serif" font-size="10.00">src/gromacs/mdrunutility</text>
<text text-anchor="middle" x="62" y="-7.5" font-family="Helvetica,sans-Serif" font-size="10.00">/handlerestart.cpp</text>
</a>
</g>
</g>
<!-- Node1&#45;&gt;Node2 -->
<g id="edge1" class="edge"><title>Node1&#45;&gt;Node2</title>
<path fill="none" stroke="midnightblue" d="M106.485,-60.3115C96.5852,-50.5612 85.1092,-39.259 76.2931,-30.5765"/>
<polygon fill="midnightblue" stroke="midnightblue" points="104.098,-62.8728 113.679,-67.396 109.01,-57.8853 104.098,-62.8728"/>
</g>
<!-- Node3 -->
<g id="node3" class="node"><title>Node3</title>
<g id="a_node3"><a xlink:href="mdrun_8cpp.xhtml" target="_top" xlink:title="This file implements mdrun. ">
<polygon fill="white" stroke="black" points="142,-0.5 142,-30.5 246,-30.5 246,-0.5 142,-0.5"/>
<text text-anchor="start" x="150" y="-18.5" font-family="Helvetica,sans-Serif" font-size="10.00">src/programs/mdrun</text>
<text text-anchor="middle" x="194" y="-7.5" font-family="Helvetica,sans-Serif" font-size="10.00">/mdrun.cpp</text>
</a>
</g>
</g>
<!-- Node1&#45;&gt;Node3 -->
<g id="edge2" class="edge"><title>Node1&#45;&gt;Node3</title>
<path fill="none" stroke="midnightblue" d="M149.515,-60.3115C159.415,-50.5612 170.891,-39.259 179.707,-30.5765"/>
<polygon fill="midnightblue" stroke="midnightblue" points="146.99,-57.8853 142.321,-67.396 151.902,-62.8728 146.99,-57.8853"/>
</g>
</g>
</svg>
