<?xml version="1.0" encoding="UTF-8" standalone="no"?>
<!DOCTYPE svg PUBLIC "-//W3C//DTD SVG 1.1//EN"
 "http://www.w3.org/Graphics/SVG/1.1/DTD/svg11.dtd">
<!-- Generated by graphviz version 2.38.0 (20140413.2041)
 -->
<!-- Title: src/gromacs/hardware/hardwaretopology.cpp Pages: 1 -->
<svg width="889pt" height="218pt"
 viewBox="0.00 0.00 889.00 218.00" xmlns="http://www.w3.org/2000/svg" xmlns:xlink="http://www.w3.org/1999/xlink">
<g id="graph0" class="graph" transform="scale(1 1) rotate(0) translate(4 214)">
<title>src/gromacs/hardware/hardwaretopology.cpp</title>
<polygon fill="white" stroke="none" points="-4,4 -4,-214 885,-214 885,4 -4,4"/>
<!-- Node1 -->
<g id="node1" class="node"><title>Node1</title>
<polygon fill="#bfbfbf" stroke="black" points="233,-179.5 233,-209.5 348,-209.5 348,-179.5 233,-179.5"/>
<text text-anchor="start" x="241" y="-197.5" font-family="Helvetica,sans-Serif" font-size="10.00">src/gromacs/hardware</text>
<text text-anchor="middle" x="290.5" y="-186.5" font-family="Helvetica,sans-Serif" font-size="10.00">/hardwaretopology.cpp</text>
</g>
<!-- Node2 -->
<g id="node2" class="node"><title>Node2</title>
<g id="a_node2"><a xlink:href="gmxpre_8h.xhtml" target="_top" xlink:title="Prerequisite header file for GROMACS build. ">
<polygon fill="white" stroke="black" points="0,-123.5 0,-142.5 57,-142.5 57,-123.5 0,-123.5"/>
<text text-anchor="middle" x="28.5" y="-130.5" font-family="Helvetica,sans-Serif" font-size="10.00">gmxpre.h</text>
</a>
</g>
</g>
<!-- Node1&#45;&gt;Node2 -->
<g id="edge1" class="edge"><title>Node1&#45;&gt;Node2</title>
<path fill="none" stroke="midnightblue" d="M232.631,-180.809C189.457,-171.273 128.764,-157.724 67.0775,-143.342"/>
<polygon fill="midnightblue" stroke="midnightblue" points="67.7053,-139.895 57.1712,-141.027 66.1125,-146.711 67.7053,-139.895"/>
</g>
<!-- Node3 -->
<g id="node3" class="node"><title>Node3</title>
<g id="a_node3"><a xlink:href="hardwaretopology_8h.xhtml" target="_top" xlink:title="Declares gmx::HardwareTopology. ">
<polygon fill="white" stroke="black" points="75,-123.5 75,-142.5 176,-142.5 176,-123.5 75,-123.5"/>
<text text-anchor="middle" x="125.5" y="-130.5" font-family="Helvetica,sans-Serif" font-size="10.00">hardwaretopology.h</text>
</a>
</g>
</g>
<!-- Node1&#45;&gt;Node3 -->
<g id="edge2" class="edge"><title>Node1&#45;&gt;Node3</title>
<path fill="none" stroke="midnightblue" d="M251.397,-179.399C223.342,-169.283 185.927,-155.791 159.191,-146.149"/>
<polygon fill="midnightblue" stroke="midnightblue" points="160.103,-142.758 149.509,-142.658 157.729,-149.343 160.103,-142.758"/>
</g>
<!-- Node5 -->
<g id="node5" class="node"><title>Node5</title>
<polygon fill="white" stroke="#bfbfbf" points="182.5,-62 182.5,-81 226.5,-81 226.5,-62 182.5,-62"/>
<text text-anchor="middle" x="204.5" y="-69" font-family="Helvetica,sans-Serif" font-size="10.00">vector</text>
</g>
<!-- Node1&#45;&gt;Node5 -->
<g id="edge8" class="edge"><title>Node1&#45;&gt;Node5</title>
<path fill="none" stroke="midnightblue" d="M264.162,-179.424C250.164,-170.68 233.773,-158.209 223.5,-143 212.983,-127.431 208.275,-106.257 206.175,-91.1879"/>
<polygon fill="midnightblue" stroke="midnightblue" points="209.63,-90.5899 205.025,-81.0483 202.675,-91.3792 209.63,-90.5899"/>
</g>
<!-- Node6 -->
<g id="node6" class="node"><title>Node6</title>
<polygon fill="white" stroke="#bfbfbf" points="233,-123.5 233,-142.5 284,-142.5 284,-123.5 233,-123.5"/>
<text text-anchor="middle" x="258.5" y="-130.5" font-family="Helvetica,sans-Serif" font-size="10.00">config.h</text>
</g>
<!-- Node1&#45;&gt;Node6 -->
<g id="edge5" class="edge"><title>Node1&#45;&gt;Node6</title>
<path fill="none" stroke="midnightblue" d="M282.916,-179.399C278.458,-171.11 272.781,-160.554 268.023,-151.708"/>
<polygon fill="midnightblue" stroke="midnightblue" points="270.975,-149.807 263.156,-142.658 264.81,-153.123 270.975,-149.807"/>
</g>
<!-- Node7 -->
<g id="node7" class="node"><title>Node7</title>
<polygon fill="white" stroke="#bfbfbf" points="302,-123.5 302,-142.5 345,-142.5 345,-123.5 302,-123.5"/>
<text text-anchor="middle" x="323.5" y="-130.5" font-family="Helvetica,sans-Serif" font-size="10.00">cstdio</text>
</g>
<!-- Node1&#45;&gt;Node7 -->
<g id="edge6" class="edge"><title>Node1&#45;&gt;Node7</title>
<path fill="none" stroke="midnightblue" d="M298.321,-179.399C302.968,-171.021 308.899,-160.327 313.837,-151.423"/>
<polygon fill="midnightblue" stroke="midnightblue" points="316.909,-153.1 318.698,-142.658 310.787,-149.705 316.909,-153.1"/>
</g>
<!-- Node8 -->
<g id="node8" class="node"><title>Node8</title>
<polygon fill="white" stroke="#bfbfbf" points="363.5,-123.5 363.5,-142.5 419.5,-142.5 419.5,-123.5 363.5,-123.5"/>
<text text-anchor="middle" x="391.5" y="-130.5" font-family="Helvetica,sans-Serif" font-size="10.00">algorithm</text>
</g>
<!-- Node1&#45;&gt;Node8 -->
<g id="edge7" class="edge"><title>Node1&#45;&gt;Node8</title>
<path fill="none" stroke="midnightblue" d="M314.436,-179.399C330.625,-169.862 351.907,-157.325 368.003,-147.842"/>
<polygon fill="midnightblue" stroke="midnightblue" points="369.964,-150.749 376.804,-142.658 366.411,-144.718 369.964,-150.749"/>
</g>
<!-- Node9 -->
<g id="node9" class="node"><title>Node9</title>
<g id="a_node9"><a xlink:href="cpuinfo_8h.xhtml" target="_top" xlink:title="Declares gmx::CpuInfo. ">
<polygon fill="white" stroke="black" points="437.5,-123.5 437.5,-142.5 577.5,-142.5 577.5,-123.5 437.5,-123.5"/>
<text text-anchor="middle" x="507.5" y="-130.5" font-family="Helvetica,sans-Serif" font-size="10.00">gromacs/hardware/cpuinfo.h</text>
</a>
</g>
</g>
<!-- Node1&#45;&gt;Node9 -->
<g id="edge9" class="edge"><title>Node1&#45;&gt;Node9</title>
<path fill="none" stroke="midnightblue" d="M341.651,-179.475C379.742,-169.03 431.066,-154.958 466.482,-145.247"/>
<polygon fill="midnightblue" stroke="midnightblue" points="467.758,-148.526 476.477,-142.506 465.907,-141.775 467.758,-148.526"/>
</g>
<!-- Node13 -->
<g id="node13" class="node"><title>Node13</title>
<g id="a_node13"><a xlink:href="gmxassert_8h.xhtml" target="_top" xlink:title="Defines assert macros customized for Gromacs. ">
<polygon fill="white" stroke="black" points="603,-123.5 603,-142.5 740,-142.5 740,-123.5 603,-123.5"/>
<text text-anchor="middle" x="671.5" y="-130.5" font-family="Helvetica,sans-Serif" font-size="10.00">gromacs/utility/gmxassert.h</text>
</a>
</g>
</g>
<!-- Node1&#45;&gt;Node13 -->
<g id="edge14" class="edge"><title>Node1&#45;&gt;Node13</title>
<path fill="none" stroke="midnightblue" d="M348.366,-184.463C417.953,-173.596 534.414,-155.408 606.88,-144.092"/>
<polygon fill="midnightblue" stroke="midnightblue" points="607.464,-147.543 616.804,-142.542 606.384,-140.627 607.464,-147.543"/>
</g>
<!-- Node4 -->
<g id="node4" class="node"><title>Node4</title>
<polygon fill="white" stroke="#bfbfbf" points="102.5,-62 102.5,-81 148.5,-81 148.5,-62 102.5,-62"/>
<text text-anchor="middle" x="125.5" y="-69" font-family="Helvetica,sans-Serif" font-size="10.00">cstdint</text>
</g>
<!-- Node3&#45;&gt;Node4 -->
<g id="edge3" class="edge"><title>Node3&#45;&gt;Node4</title>
<path fill="none" stroke="midnightblue" d="M125.5,-123.475C125.5,-115.08 125.5,-101.981 125.5,-91.1631"/>
<polygon fill="midnightblue" stroke="midnightblue" points="129,-91.0091 125.5,-81.0091 122,-91.0091 129,-91.0091"/>
</g>
<!-- Node3&#45;&gt;Node5 -->
<g id="edge4" class="edge"><title>Node3&#45;&gt;Node5</title>
<path fill="none" stroke="midnightblue" d="M136.819,-123.475C149.373,-114.02 169.851,-98.5961 184.999,-87.1871"/>
<polygon fill="midnightblue" stroke="midnightblue" points="187.32,-89.821 193.202,-81.0091 183.109,-84.2295 187.32,-89.821"/>
</g>
<!-- Node9&#45;&gt;Node5 -->
<g id="edge13" class="edge"><title>Node9&#45;&gt;Node5</title>
<path fill="none" stroke="midnightblue" d="M464.087,-123.475C402.442,-111.37 290.977,-89.4815 236.379,-78.7601"/>
<polygon fill="midnightblue" stroke="midnightblue" points="237.047,-75.3245 226.56,-76.8319 235.698,-82.1933 237.047,-75.3245"/>
</g>
<!-- Node10 -->
<g id="node10" class="node"><title>Node10</title>
<polygon fill="white" stroke="#bfbfbf" points="432,-62 432,-81 467,-81 467,-62 432,-62"/>
<text text-anchor="middle" x="449.5" y="-69" font-family="Helvetica,sans-Serif" font-size="10.00">map</text>
</g>
<!-- Node9&#45;&gt;Node10 -->
<g id="edge10" class="edge"><title>Node9&#45;&gt;Node10</title>
<path fill="none" stroke="midnightblue" d="M499.19,-123.475C490.318,-114.373 476.054,-99.741 465.08,-88.483"/>
<polygon fill="midnightblue" stroke="midnightblue" points="467.281,-85.7268 457.795,-81.0091 462.269,-90.613 467.281,-85.7268"/>
</g>
<!-- Node11 -->
<g id="node11" class="node"><title>Node11</title>
<polygon fill="white" stroke="#bfbfbf" points="485.5,-62 485.5,-81 515.5,-81 515.5,-62 485.5,-62"/>
<text text-anchor="middle" x="500.5" y="-69" font-family="Helvetica,sans-Serif" font-size="10.00">set</text>
</g>
<!-- Node9&#45;&gt;Node11 -->
<g id="edge11" class="edge"><title>Node9&#45;&gt;Node11</title>
<path fill="none" stroke="midnightblue" d="M506.497,-123.475C505.509,-115.08 503.968,-101.981 502.696,-91.1631"/>
<polygon fill="midnightblue" stroke="midnightblue" points="506.146,-90.5316 501.501,-81.0091 499.194,-91.3496 506.146,-90.5316"/>
</g>
<!-- Node12 -->
<g id="node12" class="node"><title>Node12</title>
<polygon fill="white" stroke="#bfbfbf" points="534,-62 534,-81 575,-81 575,-62 534,-62"/>
<text text-anchor="middle" x="554.5" y="-69" font-family="Helvetica,sans-Serif" font-size="10.00">string</text>
</g>
<!-- Node9&#45;&gt;Node12 -->
<g id="edge12" class="edge"><title>Node9&#45;&gt;Node12</title>
<path fill="none" stroke="midnightblue" d="M514.234,-123.475C521.284,-114.55 532.535,-100.307 541.354,-89.1425"/>
<polygon fill="midnightblue" stroke="midnightblue" points="544.326,-91.0258 547.779,-81.0091 538.833,-86.6867 544.326,-91.0258"/>
</g>
<!-- Node14 -->
<g id="node14" class="node"><title>Node14</title>
<g id="a_node14"><a xlink:href="basedefinitions_8h.xhtml" target="_top" xlink:title="Basic types and macros used throughout GROMACS. ">
<polygon fill="white" stroke="black" points="593,-62 593,-81 750,-81 750,-62 593,-62"/>
<text text-anchor="middle" x="671.5" y="-69" font-family="Helvetica,sans-Serif" font-size="10.00">gromacs/utility/basedefinitions.h</text>
</a>
</g>
</g>
<!-- Node13&#45;&gt;Node14 -->
<g id="edge15" class="edge"><title>Node13&#45;&gt;Node14</title>
<path fill="none" stroke="midnightblue" d="M671.5,-123.475C671.5,-115.08 671.5,-101.981 671.5,-91.1631"/>
<polygon fill="midnightblue" stroke="midnightblue" points="675,-91.0091 671.5,-81.0091 668,-91.0091 675,-91.0091"/>
</g>
<!-- Node17 -->
<g id="node17" class="node"><title>Node17</title>
<g id="a_node17"><a xlink:href="current__function_8h.xhtml" target="_top" xlink:title="Declares GMX_CURRENT_FUNCTION for getting the current function name. ">
<polygon fill="white" stroke="black" points="768,-56.5 768,-86.5 881,-86.5 881,-56.5 768,-56.5"/>
<text text-anchor="start" x="776" y="-74.5" font-family="Helvetica,sans-Serif" font-size="10.00">gromacs/utility/current</text>
<text text-anchor="middle" x="824.5" y="-63.5" font-family="Helvetica,sans-Serif" font-size="10.00">_function.h</text>
</a>
</g>
</g>
<!-- Node13&#45;&gt;Node17 -->
<g id="edge18" class="edge"><title>Node13&#45;&gt;Node17</title>
<path fill="none" stroke="midnightblue" d="M693.421,-123.475C715.595,-114.852 750.535,-101.264 778.767,-90.2852"/>
<polygon fill="midnightblue" stroke="midnightblue" points="780.389,-93.4095 788.441,-86.523 777.852,-86.8855 780.389,-93.4095"/>
</g>
<!-- Node15 -->
<g id="node15" class="node"><title>Node15</title>
<polygon fill="white" stroke="#bfbfbf" points="611,-0.5 611,-19.5 660,-19.5 660,-0.5 611,-0.5"/>
<text text-anchor="middle" x="635.5" y="-7.5" font-family="Helvetica,sans-Serif" font-size="10.00">stdint.h</text>
</g>
<!-- Node14&#45;&gt;Node15 -->
<g id="edge16" class="edge"><title>Node14&#45;&gt;Node15</title>
<path fill="none" stroke="midnightblue" d="M666.342,-61.9751C661.049,-53.2268 652.665,-39.3691 645.973,-28.3093"/>
<polygon fill="midnightblue" stroke="midnightblue" points="648.82,-26.2531 640.648,-19.5091 642.83,-29.8768 648.82,-26.2531"/>
</g>
<!-- Node16 -->
<g id="node16" class="node"><title>Node16</title>
<polygon fill="white" stroke="#bfbfbf" points="678,-0.5 678,-19.5 737,-19.5 737,-0.5 678,-0.5"/>
<text text-anchor="middle" x="707.5" y="-7.5" font-family="Helvetica,sans-Serif" font-size="10.00">inttypes.h</text>
</g>
<!-- Node14&#45;&gt;Node16 -->
<g id="edge17" class="edge"><title>Node14&#45;&gt;Node16</title>
<path fill="none" stroke="midnightblue" d="M676.658,-61.9751C681.951,-53.2268 690.335,-39.3691 697.027,-28.3093"/>
<polygon fill="midnightblue" stroke="midnightblue" points="700.17,-29.8768 702.352,-19.5091 694.18,-26.2531 700.17,-29.8768"/>
</g>
</g>
</svg>
