<?xml version="1.0" encoding="UTF-8" standalone="no"?>
<!DOCTYPE svg PUBLIC "-//W3C//DTD SVG 1.1//EN"
 "http://www.w3.org/Graphics/SVG/1.1/DTD/svg11.dtd">
<!-- Generated by graphviz version 2.38.0 (20140413.2041)
 -->
<!-- Title: src/gromacs/onlinehelp/helpmanager.cpp Pages: 1 -->
<svg width="1174pt" height="285pt"
 viewBox="0.00 0.00 1174.00 285.00" xmlns="http://www.w3.org/2000/svg" xmlns:xlink="http://www.w3.org/1999/xlink">
<g id="graph0" class="graph" transform="scale(1 1) rotate(0) translate(4 281)">
<title>src/gromacs/onlinehelp/helpmanager.cpp</title>
<polygon fill="white" stroke="none" points="-4,4 -4,-281 1170,-281 1170,4 -4,4"/>
<!-- Node1 -->
<g id="node1" class="node"><title>Node1</title>
<polygon fill="#bfbfbf" stroke="black" points="291,-246.5 291,-276.5 408,-276.5 408,-246.5 291,-246.5"/>
<text text-anchor="start" x="299" y="-264.5" font-family="Helvetica,sans-Serif" font-size="10.00">src/gromacs/onlinehelp</text>
<text text-anchor="middle" x="349.5" y="-253.5" font-family="Helvetica,sans-Serif" font-size="10.00">/helpmanager.cpp</text>
</g>
<!-- Node2 -->
<g id="node2" class="node"><title>Node2</title>
<g id="a_node2"><a xlink:href="gmxpre_8h.xhtml" target="_top" xlink:title="Prerequisite header file for GROMACS build. ">
<polygon fill="white" stroke="black" points="0,-185 0,-204 57,-204 57,-185 0,-185"/>
<text text-anchor="middle" x="28.5" y="-192" font-family="Helvetica,sans-Serif" font-size="10.00">gmxpre.h</text>
</a>
</g>
</g>
<!-- Node1&#45;&gt;Node2 -->
<g id="edge1" class="edge"><title>Node1&#45;&gt;Node2</title>
<path fill="none" stroke="midnightblue" d="M290.928,-252.396C234.296,-243.966 146.31,-229.299 71.5,-210 68.296,-209.173 64.9859,-208.228 61.6908,-207.224"/>
<polygon fill="midnightblue" stroke="midnightblue" points="62.5626,-203.828 51.9713,-204.102 60.4217,-210.493 62.5626,-203.828"/>
</g>
<!-- Node3 -->
<g id="node3" class="node"><title>Node3</title>
<g id="a_node3"><a xlink:href="helpmanager_8h.xhtml" target="_top" xlink:title="Declares gmx::HelpManager. ">
<polygon fill="white" stroke="black" points="417.5,-185 417.5,-204 497.5,-204 497.5,-185 417.5,-185"/>
<text text-anchor="middle" x="457.5" y="-192" font-family="Helvetica,sans-Serif" font-size="10.00">helpmanager.h</text>
</a>
</g>
</g>
<!-- Node1&#45;&gt;Node3 -->
<g id="edge2" class="edge"><title>Node1&#45;&gt;Node3</title>
<path fill="none" stroke="midnightblue" d="M372.934,-246.396C391.213,-235.395 416.46,-220.2 434.601,-209.282"/>
<polygon fill="midnightblue" stroke="midnightblue" points="436.602,-212.162 443.365,-204.007 432.993,-206.165 436.602,-212.162"/>
</g>
<!-- Node4 -->
<g id="node4" class="node"><title>Node4</title>
<polygon fill="white" stroke="#bfbfbf" points="231,-123.5 231,-142.5 272,-142.5 272,-123.5 231,-123.5"/>
<text text-anchor="middle" x="251.5" y="-130.5" font-family="Helvetica,sans-Serif" font-size="10.00">string</text>
</g>
<!-- Node1&#45;&gt;Node4 -->
<g id="edge6" class="edge"><title>Node1&#45;&gt;Node4</title>
<path fill="none" stroke="midnightblue" d="M290.722,-256.726C225.856,-251.191 127.545,-238.28 104.5,-210 95.7964,-199.319 96.3066,-190.077 104.5,-179 111.578,-169.431 180.167,-151.348 221.107,-141.263"/>
<polygon fill="midnightblue" stroke="midnightblue" points="221.981,-144.652 230.866,-138.881 220.321,-137.852 221.981,-144.652"/>
</g>
<!-- Node7 -->
<g id="node7" class="node"><title>Node7</title>
<polygon fill="white" stroke="#bfbfbf" points="290.5,-123.5 290.5,-142.5 334.5,-142.5 334.5,-123.5 290.5,-123.5"/>
<text text-anchor="middle" x="312.5" y="-130.5" font-family="Helvetica,sans-Serif" font-size="10.00">vector</text>
</g>
<!-- Node1&#45;&gt;Node7 -->
<g id="edge7" class="edge"><title>Node1&#45;&gt;Node7</title>
<path fill="none" stroke="midnightblue" d="M358.891,-246.343C368.731,-229.591 381.362,-201.176 370.5,-179 363.977,-165.684 351.404,-155.177 339.627,-147.676"/>
<polygon fill="midnightblue" stroke="midnightblue" points="341.282,-144.589 330.889,-142.529 337.729,-150.621 341.282,-144.589"/>
</g>
<!-- Node8 -->
<g id="node8" class="node"><title>Node8</title>
<g id="a_node8"><a xlink:href="helpwritercontext_8h.xhtml" target="_top" xlink:title="Declares gmx::HelpWriterContext. ">
<polygon fill="white" stroke="black" points="259.5,-179.5 259.5,-209.5 361.5,-209.5 361.5,-179.5 259.5,-179.5"/>
<text text-anchor="start" x="267.5" y="-197.5" font-family="Helvetica,sans-Serif" font-size="10.00">gromacs/onlinehelp</text>
<text text-anchor="middle" x="310.5" y="-186.5" font-family="Helvetica,sans-Serif" font-size="10.00">/helpwritercontext.h</text>
</a>
</g>
</g>
<!-- Node1&#45;&gt;Node8 -->
<g id="edge8" class="edge"><title>Node1&#45;&gt;Node8</title>
<path fill="none" stroke="midnightblue" d="M341.038,-246.396C336.131,-238.219 329.835,-227.725 324.236,-218.393"/>
<polygon fill="midnightblue" stroke="midnightblue" points="327.092,-216.351 318.946,-209.577 321.09,-219.952 327.092,-216.351"/>
</g>
<!-- Node9 -->
<g id="node9" class="node"><title>Node9</title>
<g id="a_node9"><a xlink:href="ihelptopic_8h.xhtml" target="_top" xlink:title="Declares gmx::IHelpTopic. ">
<polygon fill="white" stroke="black" points="516,-179.5 516,-209.5 617,-209.5 617,-179.5 516,-179.5"/>
<text text-anchor="start" x="524" y="-197.5" font-family="Helvetica,sans-Serif" font-size="10.00">gromacs/onlinehelp</text>
<text text-anchor="middle" x="566.5" y="-186.5" font-family="Helvetica,sans-Serif" font-size="10.00">/ihelptopic.h</text>
</a>
</g>
</g>
<!-- Node1&#45;&gt;Node9 -->
<g id="edge12" class="edge"><title>Node1&#45;&gt;Node9</title>
<path fill="none" stroke="midnightblue" d="M396.319,-246.476C429.573,-236.515 474.404,-223.086 509.705,-212.512"/>
<polygon fill="midnightblue" stroke="midnightblue" points="510.816,-215.833 519.391,-209.611 508.807,-209.128 510.816,-215.833"/>
</g>
<!-- Node10 -->
<g id="node10" class="node"><title>Node10</title>
<g id="a_node10"><a xlink:href="exceptions_8h.xhtml" target="_top" xlink:title="Declares common exception classes and macros for fatal error handling. ">
<polygon fill="white" stroke="black" points="635,-185 635,-204 774,-204 774,-185 635,-185"/>
<text text-anchor="middle" x="704.5" y="-192" font-family="Helvetica,sans-Serif" font-size="10.00">gromacs/utility/exceptions.h</text>
</a>
</g>
</g>
<!-- Node1&#45;&gt;Node10 -->
<g id="edge14" class="edge"><title>Node1&#45;&gt;Node10</title>
<path fill="none" stroke="midnightblue" d="M408.188,-249.771C464.063,-239.555 550.514,-223.742 625.5,-210 632.843,-208.654 640.571,-207.237 648.2,-205.838"/>
<polygon fill="midnightblue" stroke="midnightblue" points="648.928,-209.262 658.132,-204.015 647.665,-202.377 648.928,-209.262"/>
</g>
<!-- Node21 -->
<g id="node21" class="node"><title>Node21</title>
<g id="a_node21"><a xlink:href="stringutil_8h.xhtml" target="_top" xlink:title="Declares common string utility and formatting routines. ">
<polygon fill="white" stroke="black" points="113.5,-185 113.5,-204 241.5,-204 241.5,-185 113.5,-185"/>
<text text-anchor="middle" x="177.5" y="-192" font-family="Helvetica,sans-Serif" font-size="10.00">gromacs/utility/stringutil.h</text>
</a>
</g>
</g>
<!-- Node1&#45;&gt;Node21 -->
<g id="edge31" class="edge"><title>Node1&#45;&gt;Node21</title>
<path fill="none" stroke="midnightblue" d="M312.179,-246.396C281.599,-234.84 238.775,-218.656 209.685,-207.663"/>
<polygon fill="midnightblue" stroke="midnightblue" points="210.602,-204.268 200.011,-204.007 208.128,-210.816 210.602,-204.268"/>
</g>
<!-- Node3&#45;&gt;Node4 -->
<g id="edge3" class="edge"><title>Node3&#45;&gt;Node4</title>
<path fill="none" stroke="midnightblue" d="M427.259,-184.942C394.09,-175.53 339.035,-159.83 282.052,-143.136"/>
<polygon fill="midnightblue" stroke="midnightblue" points="282.728,-139.687 272.147,-140.23 280.757,-146.404 282.728,-139.687"/>
</g>
<!-- Node5 -->
<g id="node5" class="node"><title>Node5</title>
<g id="a_node5"><a xlink:href="classhelpers_8h.xhtml" target="_top" xlink:title="Declares common utility classes and macros. ">
<polygon fill="white" stroke="black" points="352.5,-123.5 352.5,-142.5 498.5,-142.5 498.5,-123.5 352.5,-123.5"/>
<text text-anchor="middle" x="425.5" y="-130.5" font-family="Helvetica,sans-Serif" font-size="10.00">gromacs/utility/classhelpers.h</text>
</a>
</g>
</g>
<!-- Node3&#45;&gt;Node5 -->
<g id="edge4" class="edge"><title>Node3&#45;&gt;Node5</title>
<path fill="none" stroke="midnightblue" d="M452.915,-184.975C448.258,-176.315 440.908,-162.649 434.99,-151.645"/>
<polygon fill="midnightblue" stroke="midnightblue" points="437.895,-149.658 430.076,-142.509 431.73,-152.974 437.895,-149.658"/>
</g>
<!-- Node6 -->
<g id="node6" class="node"><title>Node6</title>
<polygon fill="white" stroke="#bfbfbf" points="500.5,-62 500.5,-81 552.5,-81 552.5,-62 500.5,-62"/>
<text text-anchor="middle" x="526.5" y="-69" font-family="Helvetica,sans-Serif" font-size="10.00">memory</text>
</g>
<!-- Node5&#45;&gt;Node6 -->
<g id="edge5" class="edge"><title>Node5&#45;&gt;Node6</title>
<path fill="none" stroke="midnightblue" d="M439.971,-123.475C456.471,-113.755 483.678,-97.7266 503.181,-86.2372"/>
<polygon fill="midnightblue" stroke="midnightblue" points="505.216,-89.1005 512.056,-81.0091 501.663,-83.0693 505.216,-89.1005"/>
</g>
<!-- Node8&#45;&gt;Node4 -->
<g id="edge9" class="edge"><title>Node8&#45;&gt;Node4</title>
<path fill="none" stroke="midnightblue" d="M296.518,-179.399C287.768,-170.575 276.471,-159.183 267.383,-150.018"/>
<polygon fill="midnightblue" stroke="midnightblue" points="269.612,-147.294 260.085,-142.658 264.641,-152.223 269.612,-147.294"/>
</g>
<!-- Node8&#45;&gt;Node5 -->
<g id="edge11" class="edge"><title>Node8&#45;&gt;Node5</title>
<path fill="none" stroke="midnightblue" d="M337.753,-179.399C356.532,-169.684 381.326,-156.855 399.768,-147.314"/>
<polygon fill="midnightblue" stroke="midnightblue" points="401.493,-150.362 408.766,-142.658 398.276,-144.145 401.493,-150.362"/>
</g>
<!-- Node8&#45;&gt;Node7 -->
<g id="edge10" class="edge"><title>Node8&#45;&gt;Node7</title>
<path fill="none" stroke="midnightblue" d="M310.974,-179.399C311.241,-171.466 311.577,-161.458 311.866,-152.858"/>
<polygon fill="midnightblue" stroke="midnightblue" points="315.371,-152.77 312.209,-142.658 308.375,-152.535 315.371,-152.77"/>
</g>
<!-- Node9&#45;&gt;Node6 -->
<g id="edge13" class="edge"><title>Node9&#45;&gt;Node6</title>
<path fill="none" stroke="midnightblue" d="M561.754,-179.145C554.468,-157.104 540.532,-114.947 532.537,-90.7626"/>
<polygon fill="midnightblue" stroke="midnightblue" points="535.789,-89.4482 529.327,-81.0522 529.143,-91.6454 535.789,-89.4482"/>
</g>
<!-- Node10&#45;&gt;Node4 -->
<g id="edge19" class="edge"><title>Node10&#45;&gt;Node4</title>
<path fill="none" stroke="midnightblue" d="M661.548,-184.994C649.882,-182.854 637.232,-180.688 625.5,-179 476.612,-157.578 434.043,-172.544 282.191,-142.74"/>
<polygon fill="midnightblue" stroke="midnightblue" points="282.52,-139.236 272.029,-140.711 281.15,-146.101 282.52,-139.236"/>
</g>
<!-- Node10&#45;&gt;Node5 -->
<g id="edge26" class="edge"><title>Node10&#45;&gt;Node5</title>
<path fill="none" stroke="midnightblue" d="M664.526,-184.975C614.7,-174.349 529.526,-156.185 475.45,-144.652"/>
<polygon fill="midnightblue" stroke="midnightblue" points="475.91,-141.172 465.4,-142.509 474.45,-148.018 475.91,-141.172"/>
</g>
<!-- Node10&#45;&gt;Node6 -->
<g id="edge18" class="edge"><title>Node10&#45;&gt;Node6</title>
<path fill="none" stroke="midnightblue" d="M672.719,-184.988C646.933,-177.018 610.55,-163.272 583.5,-143 563.891,-128.304 547.051,-105.409 536.865,-89.7219"/>
<polygon fill="midnightblue" stroke="midnightblue" points="539.691,-87.6409 531.417,-81.024 533.759,-91.3567 539.691,-87.6409"/>
</g>
<!-- Node10&#45;&gt;Node7 -->
<g id="edge22" class="edge"><title>Node10&#45;&gt;Node7</title>
<path fill="none" stroke="midnightblue" d="M660.283,-184.945C648.964,-182.876 636.799,-180.757 625.5,-179 503.82,-160.081 468.968,-168.248 344.648,-142.954"/>
<polygon fill="midnightblue" stroke="midnightblue" points="345.248,-139.504 334.747,-140.908 343.832,-146.359 345.248,-139.504"/>
</g>
<!-- Node11 -->
<g id="node11" class="node"><title>Node11</title>
<polygon fill="white" stroke="#bfbfbf" points="1060,-123.5 1060,-142.5 1103,-142.5 1103,-123.5 1060,-123.5"/>
<text text-anchor="middle" x="1081.5" y="-130.5" font-family="Helvetica,sans-Serif" font-size="10.00">cstdio</text>
</g>
<!-- Node10&#45;&gt;Node11 -->
<g id="edge15" class="edge"><title>Node10&#45;&gt;Node11</title>
<path fill="none" stroke="midnightblue" d="M774.071,-185.225C843.226,-176.524 952.165,-161.532 1045.5,-143 1046.96,-142.71 1048.45,-142.399 1049.96,-142.073"/>
<polygon fill="midnightblue" stroke="midnightblue" points="1050.93,-145.441 1059.88,-139.771 1049.34,-138.622 1050.93,-145.441"/>
</g>
<!-- Node12 -->
<g id="node12" class="node"><title>Node12</title>
<polygon fill="white" stroke="#bfbfbf" points="1121,-123.5 1121,-142.5 1166,-142.5 1166,-123.5 1121,-123.5"/>
<text text-anchor="middle" x="1143.5" y="-130.5" font-family="Helvetica,sans-Serif" font-size="10.00">cstdlib</text>
</g>
<!-- Node10&#45;&gt;Node12 -->
<g id="edge16" class="edge"><title>Node10&#45;&gt;Node12</title>
<path fill="none" stroke="midnightblue" d="M774.353,-188.264C853.889,-181.539 987.76,-167.901 1110.93,-143.051"/>
<polygon fill="midnightblue" stroke="midnightblue" points="1111.82,-146.442 1120.92,-141.008 1110.42,-139.584 1111.82,-146.442"/>
</g>
<!-- Node13 -->
<g id="node13" class="node"><title>Node13</title>
<polygon fill="white" stroke="#bfbfbf" points="593,-123.5 593,-142.5 652,-142.5 652,-123.5 593,-123.5"/>
<text text-anchor="middle" x="622.5" y="-130.5" font-family="Helvetica,sans-Serif" font-size="10.00">exception</text>
</g>
<!-- Node10&#45;&gt;Node13 -->
<g id="edge17" class="edge"><title>Node10&#45;&gt;Node13</title>
<path fill="none" stroke="midnightblue" d="M692.751,-184.975C679.721,-175.52 658.464,-160.096 642.741,-148.687"/>
<polygon fill="midnightblue" stroke="midnightblue" points="644.376,-145.549 634.227,-142.509 640.265,-151.215 644.376,-145.549"/>
</g>
<!-- Node14 -->
<g id="node14" class="node"><title>Node14</title>
<polygon fill="white" stroke="#bfbfbf" points="670.5,-123.5 670.5,-142.5 732.5,-142.5 732.5,-123.5 670.5,-123.5"/>
<text text-anchor="middle" x="701.5" y="-130.5" font-family="Helvetica,sans-Serif" font-size="10.00">type_traits</text>
</g>
<!-- Node10&#45;&gt;Node14 -->
<g id="edge20" class="edge"><title>Node10&#45;&gt;Node14</title>
<path fill="none" stroke="midnightblue" d="M704.07,-184.975C703.647,-176.58 702.986,-163.481 702.441,-152.663"/>
<polygon fill="midnightblue" stroke="midnightblue" points="705.928,-152.32 701.929,-142.509 698.937,-152.673 705.928,-152.32"/>
</g>
<!-- Node15 -->
<g id="node15" class="node"><title>Node15</title>
<polygon fill="white" stroke="#bfbfbf" points="944,-123.5 944,-142.5 1003,-142.5 1003,-123.5 944,-123.5"/>
<text text-anchor="middle" x="973.5" y="-130.5" font-family="Helvetica,sans-Serif" font-size="10.00">typeindex</text>
</g>
<!-- Node10&#45;&gt;Node15 -->
<g id="edge21" class="edge"><title>Node10&#45;&gt;Node15</title>
<path fill="none" stroke="midnightblue" d="M744.006,-184.96C787.877,-175.446 861.065,-159.488 933.892,-143.119"/>
<polygon fill="midnightblue" stroke="midnightblue" points="934.71,-146.522 943.697,-140.912 933.172,-139.693 934.71,-146.522"/>
</g>
<!-- Node16 -->
<g id="node16" class="node"><title>Node16</title>
<g id="a_node16"><a xlink:href="basedefinitions_8h.xhtml" target="_top" xlink:title="Basic types and macros used throughout GROMACS. ">
<polygon fill="white" stroke="black" points="918,-62 918,-81 1075,-81 1075,-62 918,-62"/>
<text text-anchor="middle" x="996.5" y="-69" font-family="Helvetica,sans-Serif" font-size="10.00">gromacs/utility/basedefinitions.h</text>
</a>
</g>
</g>
<!-- Node10&#45;&gt;Node16 -->
<g id="edge23" class="edge"><title>Node10&#45;&gt;Node16</title>
<path fill="none" stroke="midnightblue" d="M774.031,-192.125C855.045,-188.88 981.655,-178.155 1011.5,-143 1023.97,-128.306 1016.01,-105.772 1007.68,-90.1513"/>
<polygon fill="midnightblue" stroke="midnightblue" points="1010.68,-88.3419 1002.63,-81.4508 1004.62,-91.8564 1010.68,-88.3419"/>
</g>
<!-- Node19 -->
<g id="node19" class="node"><title>Node19</title>
<g id="a_node19"><a xlink:href="current__function_8h.xhtml" target="_top" xlink:title="Declares GMX_CURRENT_FUNCTION for getting the current function name. ">
<polygon fill="white" stroke="black" points="752,-56.5 752,-86.5 865,-86.5 865,-56.5 752,-56.5"/>
<text text-anchor="start" x="760" y="-74.5" font-family="Helvetica,sans-Serif" font-size="10.00">gromacs/utility/current</text>
<text text-anchor="middle" x="808.5" y="-63.5" font-family="Helvetica,sans-Serif" font-size="10.00">_function.h</text>
</a>
</g>
</g>
<!-- Node10&#45;&gt;Node19 -->
<g id="edge27" class="edge"><title>Node10&#45;&gt;Node19</title>
<path fill="none" stroke="midnightblue" d="M711.979,-184.798C728.103,-166.039 766.55,-121.308 789.761,-94.3026"/>
<polygon fill="midnightblue" stroke="midnightblue" points="792.569,-96.4043 796.433,-86.5392 787.261,-91.8415 792.569,-96.4043"/>
</g>
<!-- Node20 -->
<g id="node20" class="node"><title>Node20</title>
<g id="a_node20"><a xlink:href="gmxassert_8h.xhtml" target="_top" xlink:title="Defines assert macros customized for Gromacs. ">
<polygon fill="white" stroke="black" points="789,-123.5 789,-142.5 926,-142.5 926,-123.5 789,-123.5"/>
<text text-anchor="middle" x="857.5" y="-130.5" font-family="Helvetica,sans-Serif" font-size="10.00">gromacs/utility/gmxassert.h</text>
</a>
</g>
</g>
<!-- Node10&#45;&gt;Node20 -->
<g id="edge28" class="edge"><title>Node10&#45;&gt;Node20</title>
<path fill="none" stroke="midnightblue" d="M726.421,-184.975C752.552,-174.813 796.412,-157.756 826.13,-146.2"/>
<polygon fill="midnightblue" stroke="midnightblue" points="827.568,-149.396 835.619,-142.509 825.031,-142.872 827.568,-149.396"/>
</g>
<!-- Node17 -->
<g id="node17" class="node"><title>Node17</title>
<polygon fill="white" stroke="#bfbfbf" points="936,-0.5 936,-19.5 985,-19.5 985,-0.5 936,-0.5"/>
<text text-anchor="middle" x="960.5" y="-7.5" font-family="Helvetica,sans-Serif" font-size="10.00">stdint.h</text>
</g>
<!-- Node16&#45;&gt;Node17 -->
<g id="edge24" class="edge"><title>Node16&#45;&gt;Node17</title>
<path fill="none" stroke="midnightblue" d="M991.342,-61.9751C986.049,-53.2268 977.665,-39.3691 970.973,-28.3093"/>
<polygon fill="midnightblue" stroke="midnightblue" points="973.82,-26.2531 965.648,-19.5091 967.83,-29.8768 973.82,-26.2531"/>
</g>
<!-- Node18 -->
<g id="node18" class="node"><title>Node18</title>
<polygon fill="white" stroke="#bfbfbf" points="1003,-0.5 1003,-19.5 1062,-19.5 1062,-0.5 1003,-0.5"/>
<text text-anchor="middle" x="1032.5" y="-7.5" font-family="Helvetica,sans-Serif" font-size="10.00">inttypes.h</text>
</g>
<!-- Node16&#45;&gt;Node18 -->
<g id="edge25" class="edge"><title>Node16&#45;&gt;Node18</title>
<path fill="none" stroke="midnightblue" d="M1001.66,-61.9751C1006.95,-53.2268 1015.34,-39.3691 1022.03,-28.3093"/>
<polygon fill="midnightblue" stroke="midnightblue" points="1025.17,-29.8768 1027.35,-19.5091 1019.18,-26.2531 1025.17,-29.8768"/>
</g>
<!-- Node20&#45;&gt;Node16 -->
<g id="edge29" class="edge"><title>Node20&#45;&gt;Node16</title>
<path fill="none" stroke="midnightblue" d="M877.415,-123.475C900.949,-113.401 940.31,-96.5525 967.293,-85.0023"/>
<polygon fill="midnightblue" stroke="midnightblue" points="968.806,-88.162 976.622,-81.0091 966.051,-81.7267 968.806,-88.162"/>
</g>
<!-- Node20&#45;&gt;Node19 -->
<g id="edge30" class="edge"><title>Node20&#45;&gt;Node19</title>
<path fill="none" stroke="midnightblue" d="M850.479,-123.475C844.215,-115.869 834.77,-104.399 826.424,-94.2649"/>
<polygon fill="midnightblue" stroke="midnightblue" points="829.107,-92.0173 820.048,-86.523 823.704,-96.4673 829.107,-92.0173"/>
</g>
<!-- Node21&#45;&gt;Node4 -->
<g id="edge33" class="edge"><title>Node21&#45;&gt;Node4</title>
<path fill="none" stroke="midnightblue" d="M188.102,-184.975C199.752,-175.608 218.686,-160.384 232.835,-149.008"/>
<polygon fill="midnightblue" stroke="midnightblue" points="235.317,-151.503 240.917,-142.509 230.931,-146.048 235.317,-151.503"/>
</g>
<!-- Node21&#45;&gt;Node7 -->
<g id="edge34" class="edge"><title>Node21&#45;&gt;Node7</title>
<path fill="none" stroke="midnightblue" d="M196.842,-184.975C219.599,-174.945 257.592,-158.2 283.788,-146.655"/>
<polygon fill="midnightblue" stroke="midnightblue" points="285.455,-149.745 293.194,-142.509 282.631,-143.339 285.455,-149.745"/>
</g>
<!-- Node22 -->
<g id="node22" class="node"><title>Node22</title>
<polygon fill="white" stroke="#bfbfbf" points="154.5,-123.5 154.5,-142.5 200.5,-142.5 200.5,-123.5 154.5,-123.5"/>
<text text-anchor="middle" x="177.5" y="-130.5" font-family="Helvetica,sans-Serif" font-size="10.00">cstring</text>
</g>
<!-- Node21&#45;&gt;Node22 -->
<g id="edge32" class="edge"><title>Node21&#45;&gt;Node22</title>
<path fill="none" stroke="midnightblue" d="M177.5,-184.975C177.5,-176.58 177.5,-163.481 177.5,-152.663"/>
<polygon fill="midnightblue" stroke="midnightblue" points="181,-152.509 177.5,-142.509 174,-152.509 181,-152.509"/>
</g>
</g>
</svg>
