<?xml version="1.0" encoding="UTF-8" standalone="no"?>
<!DOCTYPE svg PUBLIC "-//W3C//DTD SVG 1.1//EN"
 "http://www.w3.org/Graphics/SVG/1.1/DTD/svg11.dtd">
<!-- Generated by graphviz version 2.38.0 (20140413.2041)
 -->
<!-- Title: src/gromacs/imd/imd.h Pages: 1 -->
<svg width="486pt" height="84pt"
 viewBox="0.00 0.00 485.50 84.00" xmlns="http://www.w3.org/2000/svg" xmlns:xlink="http://www.w3.org/1999/xlink">
<g id="graph0" class="graph" transform="scale(1 1) rotate(0) translate(4 80)">
<title>src/gromacs/imd/imd.h</title>
<polygon fill="white" stroke="none" points="-4,4 -4,-80 481.5,-80 481.5,4 -4,4"/>
<!-- Node1 -->
<g id="node1" class="node"><title>Node1</title>
<polygon fill="#bfbfbf" stroke="black" points="165.5,-56.5 165.5,-75.5 281.5,-75.5 281.5,-56.5 165.5,-56.5"/>
<text text-anchor="middle" x="223.5" y="-63.5" font-family="Helvetica,sans-Serif" font-size="10.00">src/gromacs/imd/imd.h</text>
</g>
<!-- Node2 -->
<g id="node2" class="node"><title>Node2</title>
<g id="a_node2"><a xlink:href="imd_8cpp.xhtml" target="_top" xlink:title="Implements functions of imd.h. ">
<polygon fill="white" stroke="black" points="0,-0.5 0,-19.5 127,-19.5 127,-0.5 0,-0.5"/>
<text text-anchor="middle" x="63.5" y="-7.5" font-family="Helvetica,sans-Serif" font-size="10.00">src/gromacs/imd/imd.cpp</text>
</a>
</g>
</g>
<!-- Node1&#45;&gt;Node2 -->
<g id="edge1" class="edge"><title>Node1&#45;&gt;Node2</title>
<path fill="none" stroke="midnightblue" d="M188.454,-53.172C158.326,-43.0039 115.604,-28.5852 88.7339,-19.5164"/>
<polygon fill="midnightblue" stroke="midnightblue" points="187.553,-56.5619 198.148,-56.4435 189.792,-49.9295 187.553,-56.5619"/>
</g>
<!-- Node3 -->
<g id="node3" class="node"><title>Node3</title>
<g id="a_node3"><a xlink:href="imdsocket_8cpp.xhtml" target="_top" xlink:title="Implements functions of imdsocket.h. ">
<polygon fill="white" stroke="black" points="145.5,-0.5 145.5,-19.5 301.5,-19.5 301.5,-0.5 145.5,-0.5"/>
<text text-anchor="middle" x="223.5" y="-7.5" font-family="Helvetica,sans-Serif" font-size="10.00">src/gromacs/imd/imdsocket.cpp</text>
</a>
</g>
</g>
<!-- Node1&#45;&gt;Node3 -->
<g id="edge2" class="edge"><title>Node1&#45;&gt;Node3</title>
<path fill="none" stroke="midnightblue" d="M223.5,-45.8045C223.5,-36.9102 223.5,-26.7798 223.5,-19.7511"/>
<polygon fill="midnightblue" stroke="midnightblue" points="220,-46.083 223.5,-56.083 227,-46.083 220,-46.083"/>
</g>
<!-- Node4 -->
<g id="node4" class="node"><title>Node4</title>
<g id="a_node4"><a xlink:href="minimize_8cpp.xhtml" target="_top" xlink:title="This file defines integrators for energy minimization. ">
<polygon fill="white" stroke="black" points="319.5,-0.5 319.5,-19.5 477.5,-19.5 477.5,-0.5 319.5,-0.5"/>
<text text-anchor="middle" x="398.5" y="-7.5" font-family="Helvetica,sans-Serif" font-size="10.00">src/gromacs/mdlib/minimize.cpp</text>
</a>
</g>
</g>
<!-- Node1&#45;&gt;Node4 -->
<g id="edge3" class="edge"><title>Node1&#45;&gt;Node4</title>
<path fill="none" stroke="midnightblue" d="M260.975,-53.4363C293.97,-43.2551 341.256,-28.664 370.9,-19.5164"/>
<polygon fill="midnightblue" stroke="midnightblue" points="259.753,-50.1505 251.229,-56.4435 261.817,-56.8393 259.753,-50.1505"/>
</g>
</g>
</svg>
