<?xml version="1.0" encoding="UTF-8" standalone="no"?>
<!DOCTYPE svg PUBLIC "-//W3C//DTD SVG 1.1//EN"
 "http://www.w3.org/Graphics/SVG/1.1/DTD/svg11.dtd">
<!-- Generated by graphviz version 2.38.0 (20140413.2041)
 -->
<!-- Title: src/gromacs/imd/imdsocket.h Pages: 1 -->
<svg width="310pt" height="84pt"
 viewBox="0.00 0.00 309.50 84.00" xmlns="http://www.w3.org/2000/svg" xmlns:xlink="http://www.w3.org/1999/xlink">
<g id="graph0" class="graph" transform="scale(1 1) rotate(0) translate(4 80)">
<title>src/gromacs/imd/imdsocket.h</title>
<polygon fill="white" stroke="none" points="-4,4 -4,-80 305.5,-80 305.5,4 -4,4"/>
<!-- Node1 -->
<g id="node1" class="node"><title>Node1</title>
<polygon fill="#bfbfbf" stroke="black" points="70.5,-56.5 70.5,-75.5 216.5,-75.5 216.5,-56.5 70.5,-56.5"/>
<text text-anchor="middle" x="143.5" y="-63.5" font-family="Helvetica,sans-Serif" font-size="10.00">src/gromacs/imd/imdsocket.h</text>
</g>
<!-- Node2 -->
<g id="node2" class="node"><title>Node2</title>
<g id="a_node2"><a xlink:href="imd_8cpp.xhtml" target="_top" xlink:title="Implements functions of imd.h. ">
<polygon fill="white" stroke="black" points="0,-0.5 0,-19.5 127,-19.5 127,-0.5 0,-0.5"/>
<text text-anchor="middle" x="63.5" y="-7.5" font-family="Helvetica,sans-Serif" font-size="10.00">src/gromacs/imd/imd.cpp</text>
</a>
</g>
</g>
<!-- Node1&#45;&gt;Node2 -->
<g id="edge1" class="edge"><title>Node1&#45;&gt;Node2</title>
<path fill="none" stroke="midnightblue" d="M122.199,-50.6221C107.585,-40.7574 88.6732,-27.9919 76.3215,-19.6545"/>
<polygon fill="midnightblue" stroke="midnightblue" points="120.4,-53.6302 130.647,-56.324 124.316,-47.8282 120.4,-53.6302"/>
</g>
<!-- Node3 -->
<g id="node3" class="node"><title>Node3</title>
<g id="a_node3"><a xlink:href="imdsocket_8cpp.xhtml" target="_top" xlink:title="Implements functions of imdsocket.h. ">
<polygon fill="white" stroke="black" points="145.5,-0.5 145.5,-19.5 301.5,-19.5 301.5,-0.5 145.5,-0.5"/>
<text text-anchor="middle" x="223.5" y="-7.5" font-family="Helvetica,sans-Serif" font-size="10.00">src/gromacs/imd/imdsocket.cpp</text>
</a>
</g>
</g>
<!-- Node1&#45;&gt;Node3 -->
<g id="edge2" class="edge"><title>Node1&#45;&gt;Node3</title>
<path fill="none" stroke="midnightblue" d="M164.801,-50.6221C179.415,-40.7574 198.327,-27.9919 210.679,-19.6545"/>
<polygon fill="midnightblue" stroke="midnightblue" points="162.684,-47.8282 156.353,-56.324 166.6,-53.6302 162.684,-47.8282"/>
</g>
</g>
</svg>
