<?xml version="1.0" encoding="UTF-8" standalone="no"?>
<!DOCTYPE svg PUBLIC "-//W3C//DTD SVG 1.1//EN"
 "http://www.w3.org/Graphics/SVG/1.1/DTD/svg11.dtd">
<!-- Generated by graphviz version 2.38.0 (20140413.2041)
 -->
<!-- Title: src/gromacs/imd/imdsocket.cpp Pages: 1 -->
<svg width="1043pt" height="196pt"
 viewBox="0.00 0.00 1042.50 196.00" xmlns="http://www.w3.org/2000/svg" xmlns:xlink="http://www.w3.org/1999/xlink">
<g id="graph0" class="graph" transform="scale(1 1) rotate(0) translate(4 192)">
<title>src/gromacs/imd/imdsocket.cpp</title>
<polygon fill="white" stroke="none" points="-4,4 -4,-192 1038.5,-192 1038.5,4 -4,4"/>
<!-- Node1 -->
<g id="node1" class="node"><title>Node1</title>
<polygon fill="#bfbfbf" stroke="black" points="381.5,-168.5 381.5,-187.5 537.5,-187.5 537.5,-168.5 381.5,-168.5"/>
<text text-anchor="middle" x="459.5" y="-175.5" font-family="Helvetica,sans-Serif" font-size="10.00">src/gromacs/imd/imdsocket.cpp</text>
</g>
<!-- Node2 -->
<g id="node2" class="node"><title>Node2</title>
<g id="a_node2"><a xlink:href="gmxpre_8h.xhtml" target="_top" xlink:title="Prerequisite header file for GROMACS build. ">
<polygon fill="white" stroke="black" points="9,-112.5 9,-131.5 66,-131.5 66,-112.5 9,-112.5"/>
<text text-anchor="middle" x="37.5" y="-119.5" font-family="Helvetica,sans-Serif" font-size="10.00">gmxpre.h</text>
</a>
</g>
</g>
<!-- Node1&#45;&gt;Node2 -->
<g id="edge1" class="edge"><title>Node1&#45;&gt;Node2</title>
<path fill="none" stroke="midnightblue" d="M381.155,-170.5C305.56,-163.617 187.752,-151.289 76.1469,-131.913"/>
<polygon fill="midnightblue" stroke="midnightblue" points="76.5152,-128.424 66.0601,-130.139 75.3028,-135.318 76.5152,-128.424"/>
</g>
<!-- Node3 -->
<g id="node3" class="node"><title>Node3</title>
<g id="a_node3"><a xlink:href="imdsocket_8h.xhtml" target="_top" xlink:title="Implements the parts of the vmdsock.h interface needed for IMD communication. ">
<polygon fill="white" stroke="black" points="84.5,-112.5 84.5,-131.5 154.5,-131.5 154.5,-112.5 84.5,-112.5"/>
<text text-anchor="middle" x="119.5" y="-119.5" font-family="Helvetica,sans-Serif" font-size="10.00">imdsocket.h</text>
</a>
</g>
</g>
<!-- Node1&#45;&gt;Node3 -->
<g id="edge2" class="edge"><title>Node1&#45;&gt;Node3</title>
<path fill="none" stroke="midnightblue" d="M401.174,-168.475C342.366,-159.763 249.023,-145.618 168.5,-132 167.229,-131.785 165.939,-131.565 164.638,-131.34"/>
<polygon fill="midnightblue" stroke="midnightblue" points="164.998,-127.85 154.543,-129.56 163.783,-134.743 164.998,-127.85"/>
</g>
<!-- Node4 -->
<g id="node4" class="node"><title>Node4</title>
<polygon fill="white" stroke="#bfbfbf" points="174,-56.5 174,-75.5 225,-75.5 225,-56.5 174,-56.5"/>
<text text-anchor="middle" x="199.5" y="-63.5" font-family="Helvetica,sans-Serif" font-size="10.00">config.h</text>
</g>
<!-- Node1&#45;&gt;Node4 -->
<g id="edge6" class="edge"><title>Node1&#45;&gt;Node4</title>
<path fill="none" stroke="midnightblue" d="M381.492,-173.944C314.298,-169.502 224.587,-158.621 201.5,-132 190.654,-119.494 191.576,-99.9907 194.344,-85.6081"/>
<polygon fill="midnightblue" stroke="midnightblue" points="197.766,-86.345 196.656,-75.8085 190.953,-84.7376 197.766,-86.345"/>
</g>
<!-- Node7 -->
<g id="node7" class="node"><title>Node7</title>
<polygon fill="white" stroke="#bfbfbf" points="211,-112.5 211,-131.5 258,-131.5 258,-112.5 211,-112.5"/>
<text text-anchor="middle" x="234.5" y="-119.5" font-family="Helvetica,sans-Serif" font-size="10.00">errno.h</text>
</g>
<!-- Node1&#45;&gt;Node7 -->
<g id="edge7" class="edge"><title>Node1&#45;&gt;Node7</title>
<path fill="none" stroke="midnightblue" d="M420.559,-168.462C383.55,-160.227 326.108,-147.136 267.95,-132.297"/>
<polygon fill="midnightblue" stroke="midnightblue" points="268.79,-128.9 258.233,-129.804 267.049,-135.68 268.79,-128.9"/>
</g>
<!-- Node8 -->
<g id="node8" class="node"><title>Node8</title>
<polygon fill="white" stroke="#bfbfbf" points="276,-112.5 276,-131.5 325,-131.5 325,-112.5 276,-112.5"/>
<text text-anchor="middle" x="300.5" y="-119.5" font-family="Helvetica,sans-Serif" font-size="10.00">string.h</text>
</g>
<!-- Node1&#45;&gt;Node8 -->
<g id="edge8" class="edge"><title>Node1&#45;&gt;Node8</title>
<path fill="none" stroke="midnightblue" d="M434.306,-168.444C407.4,-159.306 364.597,-144.769 334.668,-134.604"/>
<polygon fill="midnightblue" stroke="midnightblue" points="335.648,-131.241 325.054,-131.339 333.397,-137.869 335.648,-131.241"/>
</g>
<!-- Node9 -->
<g id="node9" class="node"><title>Node9</title>
<g id="a_node9"><a xlink:href="imd_8h.xhtml" target="_top" xlink:title="This file contains datatypes and function declarations necessary for mdrun to interface with VMD via ...">
<polygon fill="white" stroke="black" points="343.5,-112.5 343.5,-131.5 443.5,-131.5 443.5,-112.5 343.5,-112.5"/>
<text text-anchor="middle" x="393.5" y="-119.5" font-family="Helvetica,sans-Serif" font-size="10.00">gromacs/imd/imd.h</text>
</a>
</g>
</g>
<!-- Node1&#45;&gt;Node9 -->
<g id="edge9" class="edge"><title>Node1&#45;&gt;Node9</title>
<path fill="none" stroke="midnightblue" d="M448.896,-168.324C439.044,-160.263 424.149,-148.077 412.285,-138.369"/>
<polygon fill="midnightblue" stroke="midnightblue" points="414.253,-135.457 404.297,-131.834 409.82,-140.875 414.253,-135.457"/>
</g>
<!-- Node10 -->
<g id="node10" class="node"><title>Node10</title>
<g id="a_node10"><a xlink:href="fatalerror_8h.xhtml" target="_top" xlink:title="Declares fatal error handling and debugging routines for C code. ">
<polygon fill="white" stroke="black" points="461.5,-112.5 461.5,-131.5 591.5,-131.5 591.5,-112.5 461.5,-112.5"/>
<text text-anchor="middle" x="526.5" y="-119.5" font-family="Helvetica,sans-Serif" font-size="10.00">gromacs/utility/fatalerror.h</text>
</a>
</g>
</g>
<!-- Node1&#45;&gt;Node10 -->
<g id="edge11" class="edge"><title>Node1&#45;&gt;Node10</title>
<path fill="none" stroke="midnightblue" d="M470.265,-168.324C480.266,-160.263 495.387,-148.077 507.43,-138.369"/>
<polygon fill="midnightblue" stroke="midnightblue" points="509.95,-140.834 515.539,-131.834 505.557,-135.384 509.95,-140.834"/>
</g>
<!-- Node16 -->
<g id="node16" class="node"><title>Node16</title>
<g id="a_node16"><a xlink:href="smalloc_8h.xhtml" target="_top" xlink:title="C memory allocation routines for GROMACS. ">
<polygon fill="white" stroke="black" points="610,-112.5 610,-131.5 735,-131.5 735,-112.5 610,-112.5"/>
<text text-anchor="middle" x="672.5" y="-119.5" font-family="Helvetica,sans-Serif" font-size="10.00">gromacs/utility/smalloc.h</text>
</a>
</g>
</g>
<!-- Node1&#45;&gt;Node16 -->
<g id="edge17" class="edge"><title>Node1&#45;&gt;Node16</title>
<path fill="none" stroke="midnightblue" d="M493.25,-168.444C530.018,-159.122 588.946,-144.183 629.122,-133.997"/>
<polygon fill="midnightblue" stroke="midnightblue" points="630.074,-137.367 638.907,-131.516 628.354,-130.581 630.074,-137.367"/>
</g>
<!-- Node18 -->
<g id="node18" class="node"><title>Node18</title>
<polygon fill="white" stroke="#bfbfbf" points="753,-112.5 753,-131.5 804,-131.5 804,-112.5 753,-112.5"/>
<text text-anchor="middle" x="778.5" y="-119.5" font-family="Helvetica,sans-Serif" font-size="10.00">unistd.h</text>
</g>
<!-- Node1&#45;&gt;Node18 -->
<g id="edge20" class="edge"><title>Node1&#45;&gt;Node18</title>
<path fill="none" stroke="midnightblue" d="M525.79,-168.488C581.398,-160.902 663.084,-148.724 742.74,-132.207"/>
<polygon fill="midnightblue" stroke="midnightblue" points="743.88,-135.544 752.947,-130.063 742.441,-128.693 743.88,-135.544"/>
</g>
<!-- Node19 -->
<g id="node19" class="node"><title>Node19</title>
<polygon fill="white" stroke="#bfbfbf" points="822.5,-112.5 822.5,-131.5 866.5,-131.5 866.5,-112.5 822.5,-112.5"/>
<text text-anchor="middle" x="844.5" y="-119.5" font-family="Helvetica,sans-Serif" font-size="10.00">time.h</text>
</g>
<!-- Node1&#45;&gt;Node19 -->
<g id="edge21" class="edge"><title>Node1&#45;&gt;Node19</title>
<path fill="none" stroke="midnightblue" d="M537.769,-170.587C607.564,-164.061 712.592,-152.261 812.311,-131.965"/>
<polygon fill="midnightblue" stroke="midnightblue" points="813.169,-135.362 822.253,-129.909 811.752,-128.507 813.169,-135.362"/>
</g>
<!-- Node20 -->
<g id="node20" class="node"><title>Node20</title>
<polygon fill="white" stroke="#bfbfbf" points="884.5,-112.5 884.5,-131.5 954.5,-131.5 954.5,-112.5 884.5,-112.5"/>
<text text-anchor="middle" x="919.5" y="-119.5" font-family="Helvetica,sans-Serif" font-size="10.00">sys/select.h</text>
</g>
<!-- Node1&#45;&gt;Node20 -->
<g id="edge22" class="edge"><title>Node1&#45;&gt;Node20</title>
<path fill="none" stroke="midnightblue" d="M537.608,-170.758C619.216,-163.735 751.144,-150.975 874.488,-132.024"/>
<polygon fill="midnightblue" stroke="midnightblue" points="875.145,-135.464 884.489,-130.47 874.071,-128.547 875.145,-135.464"/>
</g>
<!-- Node21 -->
<g id="node21" class="node"><title>Node21</title>
<polygon fill="white" stroke="#bfbfbf" points="972.5,-112.5 972.5,-131.5 1034.5,-131.5 1034.5,-112.5 972.5,-112.5"/>
<text text-anchor="middle" x="1003.5" y="-119.5" font-family="Helvetica,sans-Serif" font-size="10.00">sys/time.h</text>
</g>
<!-- Node1&#45;&gt;Node21 -->
<g id="edge23" class="edge"><title>Node1&#45;&gt;Node21</title>
<path fill="none" stroke="midnightblue" d="M537.596,-173.236C634.859,-167.83 806.222,-155.947 961.902,-132.06"/>
<polygon fill="midnightblue" stroke="midnightblue" points="962.789,-135.465 972.132,-130.47 961.713,-128.548 962.789,-135.465"/>
</g>
<!-- Node3&#45;&gt;Node4 -->
<g id="edge3" class="edge"><title>Node3&#45;&gt;Node4</title>
<path fill="none" stroke="midnightblue" d="M132.353,-112.324C144.716,-103.979 163.63,-91.2122 178.237,-81.3524"/>
<polygon fill="midnightblue" stroke="midnightblue" points="180.348,-84.1503 186.679,-75.6545 176.432,-78.3483 180.348,-84.1503"/>
</g>
<!-- Node5 -->
<g id="node5" class="node"><title>Node5</title>
<polygon fill="white" stroke="#bfbfbf" points="0,-56.5 0,-75.5 65,-75.5 65,-56.5 0,-56.5"/>
<text text-anchor="middle" x="32.5" y="-63.5" font-family="Helvetica,sans-Serif" font-size="10.00">netinet/in.h</text>
</g>
<!-- Node3&#45;&gt;Node5 -->
<g id="edge4" class="edge"><title>Node3&#45;&gt;Node5</title>
<path fill="none" stroke="midnightblue" d="M105.522,-112.324C91.9504,-103.9 71.1198,-90.9709 55.175,-81.0741"/>
<polygon fill="midnightblue" stroke="midnightblue" points="56.7856,-77.9544 46.4434,-75.6545 53.094,-83.9019 56.7856,-77.9544"/>
</g>
<!-- Node6 -->
<g id="node6" class="node"><title>Node6</title>
<polygon fill="white" stroke="#bfbfbf" points="83,-56.5 83,-75.5 156,-75.5 156,-56.5 83,-56.5"/>
<text text-anchor="middle" x="119.5" y="-63.5" font-family="Helvetica,sans-Serif" font-size="10.00">sys/socket.h</text>
</g>
<!-- Node3&#45;&gt;Node6 -->
<g id="edge5" class="edge"><title>Node3&#45;&gt;Node6</title>
<path fill="none" stroke="midnightblue" d="M119.5,-112.083C119.5,-105.006 119.5,-94.8611 119.5,-85.9865"/>
<polygon fill="midnightblue" stroke="midnightblue" points="123,-85.751 119.5,-75.7511 116,-85.7511 123,-85.751"/>
</g>
<!-- Node9&#45;&gt;Node4 -->
<g id="edge10" class="edge"><title>Node9&#45;&gt;Node4</title>
<path fill="none" stroke="midnightblue" d="M362.76,-112.444C327.993,-102.766 271.473,-87.0336 234.893,-76.8518"/>
<polygon fill="midnightblue" stroke="midnightblue" points="235.712,-73.4466 225.14,-74.1368 233.835,-80.1903 235.712,-73.4466"/>
</g>
<!-- Node11 -->
<g id="node11" class="node"><title>Node11</title>
<polygon fill="white" stroke="#bfbfbf" points="500.5,-56.5 500.5,-75.5 552.5,-75.5 552.5,-56.5 500.5,-56.5"/>
<text text-anchor="middle" x="526.5" y="-63.5" font-family="Helvetica,sans-Serif" font-size="10.00">stdarg.h</text>
</g>
<!-- Node10&#45;&gt;Node11 -->
<g id="edge12" class="edge"><title>Node10&#45;&gt;Node11</title>
<path fill="none" stroke="midnightblue" d="M526.5,-112.083C526.5,-105.006 526.5,-94.8611 526.5,-85.9865"/>
<polygon fill="midnightblue" stroke="midnightblue" points="530,-85.751 526.5,-75.7511 523,-85.7511 530,-85.751"/>
</g>
<!-- Node12 -->
<g id="node12" class="node"><title>Node12</title>
<polygon fill="white" stroke="#bfbfbf" points="436.5,-56.5 436.5,-75.5 482.5,-75.5 482.5,-56.5 436.5,-56.5"/>
<text text-anchor="middle" x="459.5" y="-63.5" font-family="Helvetica,sans-Serif" font-size="10.00">stdio.h</text>
</g>
<!-- Node10&#45;&gt;Node12 -->
<g id="edge13" class="edge"><title>Node10&#45;&gt;Node12</title>
<path fill="none" stroke="midnightblue" d="M515.735,-112.324C505.734,-104.263 490.613,-92.0765 478.57,-82.3695"/>
<polygon fill="midnightblue" stroke="midnightblue" points="480.443,-79.3841 470.461,-75.8339 476.05,-84.8343 480.443,-79.3841"/>
</g>
<!-- Node13 -->
<g id="node13" class="node"><title>Node13</title>
<g id="a_node13"><a xlink:href="basedefinitions_8h.xhtml" target="_top" xlink:title="Basic types and macros used throughout GROMACS. ">
<polygon fill="white" stroke="black" points="571,-56.5 571,-75.5 728,-75.5 728,-56.5 571,-56.5"/>
<text text-anchor="middle" x="649.5" y="-63.5" font-family="Helvetica,sans-Serif" font-size="10.00">gromacs/utility/basedefinitions.h</text>
</a>
</g>
</g>
<!-- Node10&#45;&gt;Node13 -->
<g id="edge14" class="edge"><title>Node10&#45;&gt;Node13</title>
<path fill="none" stroke="midnightblue" d="M545.99,-112.444C566.142,-103.596 597.823,-89.6875 620.831,-79.5865"/>
<polygon fill="midnightblue" stroke="midnightblue" points="622.352,-82.7411 630.101,-75.5164 619.538,-76.3316 622.352,-82.7411"/>
</g>
<!-- Node14 -->
<g id="node14" class="node"><title>Node14</title>
<polygon fill="white" stroke="#bfbfbf" points="589,-0.5 589,-19.5 638,-19.5 638,-0.5 589,-0.5"/>
<text text-anchor="middle" x="613.5" y="-7.5" font-family="Helvetica,sans-Serif" font-size="10.00">stdint.h</text>
</g>
<!-- Node13&#45;&gt;Node14 -->
<g id="edge15" class="edge"><title>Node13&#45;&gt;Node14</title>
<path fill="none" stroke="midnightblue" d="M643.555,-56.083C638.523,-48.5341 631.163,-37.4948 624.987,-28.2298"/>
<polygon fill="midnightblue" stroke="midnightblue" points="627.793,-26.1301 619.334,-19.7511 621.969,-30.0131 627.793,-26.1301"/>
</g>
<!-- Node15 -->
<g id="node15" class="node"><title>Node15</title>
<polygon fill="white" stroke="#bfbfbf" points="656,-0.5 656,-19.5 715,-19.5 715,-0.5 656,-0.5"/>
<text text-anchor="middle" x="685.5" y="-7.5" font-family="Helvetica,sans-Serif" font-size="10.00">inttypes.h</text>
</g>
<!-- Node13&#45;&gt;Node15 -->
<g id="edge16" class="edge"><title>Node13&#45;&gt;Node15</title>
<path fill="none" stroke="midnightblue" d="M655.445,-56.083C660.477,-48.5341 667.837,-37.4948 674.013,-28.2298"/>
<polygon fill="midnightblue" stroke="midnightblue" points="677.031,-30.0131 679.666,-19.7511 671.207,-26.1301 677.031,-30.0131"/>
</g>
<!-- Node16&#45;&gt;Node13 -->
<g id="edge19" class="edge"><title>Node16&#45;&gt;Node13</title>
<path fill="none" stroke="midnightblue" d="M668.702,-112.083C665.587,-104.77 661.077,-94.1814 657.211,-85.1034"/>
<polygon fill="midnightblue" stroke="midnightblue" points="660.366,-83.5798 653.227,-75.7511 653.926,-86.3229 660.366,-83.5798"/>
</g>
<!-- Node17 -->
<g id="node17" class="node"><title>Node17</title>
<polygon fill="white" stroke="#bfbfbf" points="746.5,-56.5 746.5,-75.5 798.5,-75.5 798.5,-56.5 746.5,-56.5"/>
<text text-anchor="middle" x="772.5" y="-63.5" font-family="Helvetica,sans-Serif" font-size="10.00">stddef.h</text>
</g>
<!-- Node16&#45;&gt;Node17 -->
<g id="edge18" class="edge"><title>Node16&#45;&gt;Node17</title>
<path fill="none" stroke="midnightblue" d="M688.567,-112.324C704.458,-103.743 729.007,-90.486 747.458,-80.5224"/>
<polygon fill="midnightblue" stroke="midnightblue" points="749.337,-83.4857 756.473,-75.6545 746.011,-77.3264 749.337,-83.4857"/>
</g>
</g>
</svg>
