<?xml version="1.0" encoding="UTF-8" standalone="no"?>
<!DOCTYPE svg PUBLIC "-//W3C//DTD SVG 1.1//EN"
 "http://www.w3.org/Graphics/SVG/1.1/DTD/svg11.dtd">
<!-- Generated by graphviz version 2.38.0 (20140413.2041)
 -->
<!-- Title: src/gromacs/simd/impl_reference/impl_reference.h Pages: 1 -->
<svg width="1348pt" height="352pt"
 viewBox="0.00 0.00 1347.98 352.00" xmlns="http://www.w3.org/2000/svg" xmlns:xlink="http://www.w3.org/1999/xlink">
<g id="graph0" class="graph" transform="scale(1 1) rotate(0) translate(4 348)">
<title>src/gromacs/simd/impl_reference/impl_reference.h</title>
<polygon fill="white" stroke="none" points="-4,4 -4,-348 1343.98,-348 1343.98,4 -4,4"/>
<!-- Node1 -->
<g id="node1" class="node"><title>Node1</title>
<polygon fill="#bfbfbf" stroke="black" points="147.484,-313.5 147.484,-343.5 284.484,-343.5 284.484,-313.5 147.484,-313.5"/>
<text text-anchor="start" x="155.484" y="-331.5" font-family="Helvetica,sans-Serif" font-size="10.00">src/gromacs/simd/impl</text>
<text text-anchor="middle" x="215.984" y="-320.5" font-family="Helvetica,sans-Serif" font-size="10.00">_reference/impl_reference.h</text>
</g>
<!-- Node2 -->
<g id="node2" class="node"><title>Node2</title>
<g id="a_node2"><a xlink:href="impl__reference__definitions_8h.xhtml" target="_top" xlink:title="Reference SIMD implementation, including SIMD documentation. ">
<polygon fill="white" stroke="black" points="6.98352,-56.5 6.98352,-75.5 144.984,-75.5 144.984,-56.5 6.98352,-56.5"/>
<text text-anchor="middle" x="75.9835" y="-63.5" font-family="Helvetica,sans-Serif" font-size="10.00">impl_reference_definitions.h</text>
</a>
</g>
</g>
<!-- Node1&#45;&gt;Node2 -->
<g id="edge1" class="edge"><title>Node1&#45;&gt;Node2</title>
<path fill="none" stroke="midnightblue" d="M147.333,-318.396C98.336,-310.338 38.4761,-296.761 22.9835,-277 -22.5607,-218.907 8.64674,-177.862 41.9835,-112 47.169,-101.755 54.738,-91.4539 61.4188,-83.2974"/>
<polygon fill="midnightblue" stroke="midnightblue" points="64.0999,-85.5475 67.9223,-75.6662 58.7721,-81.0071 64.0999,-85.5475"/>
</g>
<!-- Node3 -->
<g id="node3" class="node"><title>Node3</title>
<g id="a_node3"><a xlink:href="impl__reference__general_8h.xhtml" target="_top" xlink:title="Reference SIMD implementation, general utility functions. ">
<polygon fill="white" stroke="black" points="889.484,-252 889.484,-271 1014.48,-271 1014.48,-252 889.484,-252"/>
<text text-anchor="middle" x="951.984" y="-259" font-family="Helvetica,sans-Serif" font-size="10.00">impl_reference_general.h</text>
</a>
</g>
</g>
<!-- Node1&#45;&gt;Node3 -->
<g id="edge2" class="edge"><title>Node1&#45;&gt;Node3</title>
<path fill="none" stroke="midnightblue" d="M284.564,-321.443C423.387,-309.183 736.55,-281.526 878.986,-268.947"/>
<polygon fill="midnightblue" stroke="midnightblue" points="879.7,-272.397 889.353,-268.031 879.084,-265.425 879.7,-272.397"/>
</g>
<!-- Node7 -->
<g id="node7" class="node"><title>Node7</title>
<g id="a_node7"><a xlink:href="impl__reference__simd4__double_8h.xhtml" target="_top" xlink:title="Reference implementation, SIMD4 single precision. ">
<polygon fill="white" stroke="black" points="331.984,-112.5 331.984,-142.5 443.984,-142.5 443.984,-112.5 331.984,-112.5"/>
<text text-anchor="start" x="339.984" y="-130.5" font-family="Helvetica,sans-Serif" font-size="10.00">impl_reference_simd4</text>
<text text-anchor="middle" x="387.984" y="-119.5" font-family="Helvetica,sans-Serif" font-size="10.00">_double.h</text>
</a>
</g>
</g>
<!-- Node1&#45;&gt;Node7 -->
<g id="edge6" class="edge"><title>Node1&#45;&gt;Node7</title>
<path fill="none" stroke="midnightblue" d="M147.391,-316.118C104.838,-307.501 55.888,-294.21 42.9835,-277 16.8541,-242.153 14.5026,-211.953 42.9835,-179 78.2869,-138.153 231.891,-129.711 321.797,-128.347"/>
<polygon fill="midnightblue" stroke="midnightblue" points="321.942,-131.845 331.897,-128.219 321.854,-124.846 321.942,-131.845"/>
</g>
<!-- Node15 -->
<g id="node15" class="node"><title>Node15</title>
<g id="a_node15"><a xlink:href="impl__reference__simd4__float_8h.xhtml" target="_top" xlink:title="Reference implementation, SIMD4 single precision. ">
<polygon fill="white" stroke="black" points="461.984,-112.5 461.984,-142.5 573.984,-142.5 573.984,-112.5 461.984,-112.5"/>
<text text-anchor="start" x="469.984" y="-130.5" font-family="Helvetica,sans-Serif" font-size="10.00">impl_reference_simd4</text>
<text text-anchor="middle" x="517.984" y="-119.5" font-family="Helvetica,sans-Serif" font-size="10.00">_float.h</text>
</a>
</g>
</g>
<!-- Node1&#45;&gt;Node15 -->
<g id="edge15" class="edge"><title>Node1&#45;&gt;Node15</title>
<path fill="none" stroke="midnightblue" d="M147.176,-318.352C122.088,-311.317 96.1722,-298.898 80.9835,-277 56.16,-241.211 51.706,-211.248 80.9835,-179 107.371,-149.936 379.648,-149.489 451.351,-142.742"/>
<polygon fill="midnightblue" stroke="midnightblue" points="452.183,-146.168 461.695,-141.501 451.349,-139.217 452.183,-146.168"/>
</g>
<!-- Node16 -->
<g id="node16" class="node"><title>Node16</title>
<g id="a_node16"><a xlink:href="impl__reference__simd__double_8h.xhtml" target="_top" xlink:title="Reference implementation, SIMD double precision. ">
<polygon fill="white" stroke="black" points="632.484,-179.5 632.484,-209.5 739.484,-209.5 739.484,-179.5 632.484,-179.5"/>
<text text-anchor="start" x="640.484" y="-197.5" font-family="Helvetica,sans-Serif" font-size="10.00">impl_reference_simd</text>
<text text-anchor="middle" x="685.984" y="-186.5" font-family="Helvetica,sans-Serif" font-size="10.00">_double.h</text>
</a>
</g>
</g>
<!-- Node1&#45;&gt;Node16 -->
<g id="edge24" class="edge"><title>Node1&#45;&gt;Node16</title>
<path fill="none" stroke="midnightblue" d="M265.837,-313.499C352.912,-289.044 532.344,-238.65 626.042,-212.335"/>
<polygon fill="midnightblue" stroke="midnightblue" points="627.253,-215.63 635.934,-209.556 625.36,-208.891 627.253,-215.63"/>
</g>
<!-- Node20 -->
<g id="node20" class="node"><title>Node20</title>
<g id="a_node20"><a xlink:href="impl__reference__simd__float_8h.xhtml" target="_top" xlink:title="Reference implementation, SIMD single precision. ">
<polygon fill="white" stroke="black" points="591.484,-112.5 591.484,-142.5 698.484,-142.5 698.484,-112.5 591.484,-112.5"/>
<text text-anchor="start" x="599.484" y="-130.5" font-family="Helvetica,sans-Serif" font-size="10.00">impl_reference_simd</text>
<text text-anchor="middle" x="644.984" y="-119.5" font-family="Helvetica,sans-Serif" font-size="10.00">_float.h</text>
</a>
</g>
</g>
<!-- Node1&#45;&gt;Node20 -->
<g id="edge46" class="edge"><title>Node1&#45;&gt;Node20</title>
<path fill="none" stroke="midnightblue" d="M229.059,-313.241C257.693,-283.001 329.443,-212.472 404.984,-179 475.894,-147.579 502.069,-159.178 581.305,-143.257"/>
<polygon fill="midnightblue" stroke="midnightblue" points="582.169,-146.652 591.237,-141.174 580.732,-139.801 582.169,-146.652"/>
</g>
<!-- Node21 -->
<g id="node21" class="node"><title>Node21</title>
<g id="a_node21"><a xlink:href="impl__reference__util__double_8h.xhtml" target="_top" xlink:title="Reference impl., higher&#45;level double prec. SIMD utility functions. ">
<polygon fill="white" stroke="black" points="561.984,-246.5 561.984,-276.5 659.984,-276.5 659.984,-246.5 561.984,-246.5"/>
<text text-anchor="start" x="569.984" y="-264.5" font-family="Helvetica,sans-Serif" font-size="10.00">impl_reference_util</text>
<text text-anchor="middle" x="610.984" y="-253.5" font-family="Helvetica,sans-Serif" font-size="10.00">_double.h</text>
</a>
</g>
</g>
<!-- Node1&#45;&gt;Node21 -->
<g id="edge47" class="edge"><title>Node1&#45;&gt;Node21</title>
<path fill="none" stroke="midnightblue" d="M284.787,-316.178C360.314,-303.749 480.315,-284.002 551.79,-272.241"/>
<polygon fill="midnightblue" stroke="midnightblue" points="552.674,-275.642 561.973,-270.565 551.537,-268.735 552.674,-275.642"/>
</g>
<!-- Node22 -->
<g id="node22" class="node"><title>Node22</title>
<g id="a_node22"><a xlink:href="impl__reference__util__float_8h.xhtml" target="_top" xlink:title="Reference impl., higher&#45;level single prec. SIMD utility functions. ">
<polygon fill="white" stroke="black" points="413.984,-179.5 413.984,-209.5 511.984,-209.5 511.984,-179.5 413.984,-179.5"/>
<text text-anchor="start" x="421.984" y="-197.5" font-family="Helvetica,sans-Serif" font-size="10.00">impl_reference_util</text>
<text text-anchor="middle" x="462.984" y="-186.5" font-family="Helvetica,sans-Serif" font-size="10.00">_float.h</text>
</a>
</g>
</g>
<!-- Node1&#45;&gt;Node22 -->
<g id="edge55" class="edge"><title>Node1&#45;&gt;Node22</title>
<path fill="none" stroke="midnightblue" d="M242.417,-313.374C287.172,-289.456 377.87,-240.986 427.893,-214.253"/>
<polygon fill="midnightblue" stroke="midnightblue" points="429.57,-217.325 436.74,-209.525 426.271,-211.151 429.57,-217.325"/>
</g>
<!-- Node4 -->
<g id="node4" class="node"><title>Node4</title>
<g id="a_node4"><a xlink:href="basedefinitions_8h.xhtml" target="_top" xlink:title="Basic types and macros used throughout GROMACS. ">
<polygon fill="white" stroke="black" points="1048.48,-56.5 1048.48,-75.5 1205.48,-75.5 1205.48,-56.5 1048.48,-56.5"/>
<text text-anchor="middle" x="1126.98" y="-63.5" font-family="Helvetica,sans-Serif" font-size="10.00">gromacs/utility/basedefinitions.h</text>
</a>
</g>
</g>
<!-- Node3&#45;&gt;Node4 -->
<g id="edge3" class="edge"><title>Node3&#45;&gt;Node4</title>
<path fill="none" stroke="midnightblue" d="M1014.63,-258.94C1051.67,-254.427 1096.07,-242.024 1120.98,-210 1149.26,-173.654 1139.74,-114.99 1132.33,-85.3691"/>
<polygon fill="midnightblue" stroke="midnightblue" points="1135.66,-84.2865 1129.68,-75.5455 1128.91,-86.1123 1135.66,-84.2865"/>
</g>
<!-- Node5 -->
<g id="node5" class="node"><title>Node5</title>
<polygon fill="white" stroke="#bfbfbf" points="1066.48,-0.5 1066.48,-19.5 1115.48,-19.5 1115.48,-0.5 1066.48,-0.5"/>
<text text-anchor="middle" x="1090.98" y="-7.5" font-family="Helvetica,sans-Serif" font-size="10.00">stdint.h</text>
</g>
<!-- Node4&#45;&gt;Node5 -->
<g id="edge4" class="edge"><title>Node4&#45;&gt;Node5</title>
<path fill="none" stroke="midnightblue" d="M1121.04,-56.083C1116.01,-48.5341 1108.65,-37.4948 1102.47,-28.2298"/>
<polygon fill="midnightblue" stroke="midnightblue" points="1105.28,-26.1301 1096.82,-19.7511 1099.45,-30.0131 1105.28,-26.1301"/>
</g>
<!-- Node6 -->
<g id="node6" class="node"><title>Node6</title>
<polygon fill="white" stroke="#bfbfbf" points="1133.48,-0.5 1133.48,-19.5 1192.48,-19.5 1192.48,-0.5 1133.48,-0.5"/>
<text text-anchor="middle" x="1162.98" y="-7.5" font-family="Helvetica,sans-Serif" font-size="10.00">inttypes.h</text>
</g>
<!-- Node4&#45;&gt;Node6 -->
<g id="edge5" class="edge"><title>Node4&#45;&gt;Node6</title>
<path fill="none" stroke="midnightblue" d="M1132.93,-56.083C1137.96,-48.5341 1145.32,-37.4948 1151.5,-28.2298"/>
<polygon fill="midnightblue" stroke="midnightblue" points="1154.51,-30.0131 1157.15,-19.7511 1148.69,-26.1301 1154.51,-30.0131"/>
</g>
<!-- Node7&#45;&gt;Node2 -->
<g id="edge14" class="edge"><title>Node7&#45;&gt;Node2</title>
<path fill="none" stroke="midnightblue" d="M331.844,-115.794C274.863,-104.927 187.216,-88.2126 130.738,-77.442"/>
<polygon fill="midnightblue" stroke="midnightblue" points="131.048,-73.9381 120.57,-75.5028 129.737,-80.8142 131.048,-73.9381"/>
</g>
<!-- Node8 -->
<g id="node8" class="node"><title>Node8</title>
<polygon fill="white" stroke="#bfbfbf" points="208.484,-56.5 208.484,-75.5 259.484,-75.5 259.484,-56.5 208.484,-56.5"/>
<text text-anchor="middle" x="233.984" y="-63.5" font-family="Helvetica,sans-Serif" font-size="10.00">config.h</text>
</g>
<!-- Node7&#45;&gt;Node8 -->
<g id="edge7" class="edge"><title>Node7&#45;&gt;Node8</title>
<path fill="none" stroke="midnightblue" d="M351.488,-112.399C325.418,-102.327 290.69,-88.9093 265.759,-79.2769"/>
<polygon fill="midnightblue" stroke="midnightblue" points="266.981,-75.997 256.392,-75.6578 264.458,-82.5266 266.981,-75.997"/>
</g>
<!-- Node9 -->
<g id="node9" class="node"><title>Node9</title>
<polygon fill="white" stroke="#bfbfbf" points="321.484,-56.5 321.484,-75.5 370.484,-75.5 370.484,-56.5 321.484,-56.5"/>
<text text-anchor="middle" x="345.984" y="-63.5" font-family="Helvetica,sans-Serif" font-size="10.00">cassert</text>
</g>
<!-- Node7&#45;&gt;Node9 -->
<g id="edge8" class="edge"><title>Node7&#45;&gt;Node9</title>
<path fill="none" stroke="midnightblue" d="M378.03,-112.399C371.99,-103.842 364.245,-92.8708 357.883,-83.857"/>
<polygon fill="midnightblue" stroke="midnightblue" points="360.721,-81.8091 352.095,-75.6578 355.002,-85.8459 360.721,-81.8091"/>
</g>
<!-- Node10 -->
<g id="node10" class="node"><title>Node10</title>
<polygon fill="white" stroke="#bfbfbf" points="512.984,-56.5 512.984,-75.5 556.984,-75.5 556.984,-56.5 512.984,-56.5"/>
<text text-anchor="middle" x="534.984" y="-63.5" font-family="Helvetica,sans-Serif" font-size="10.00">cmath</text>
</g>
<!-- Node7&#45;&gt;Node10 -->
<g id="edge9" class="edge"><title>Node7&#45;&gt;Node10</title>
<path fill="none" stroke="midnightblue" d="M422.82,-112.399C447.485,-102.416 480.269,-89.1465 504.018,-79.5335"/>
<polygon fill="midnightblue" stroke="midnightblue" points="505.637,-82.6541 513.594,-75.6578 503.011,-76.1654 505.637,-82.6541"/>
</g>
<!-- Node11 -->
<g id="node11" class="node"><title>Node11</title>
<polygon fill="white" stroke="#bfbfbf" points="652.484,-56.5 652.484,-75.5 701.484,-75.5 701.484,-56.5 652.484,-56.5"/>
<text text-anchor="middle" x="676.984" y="-63.5" font-family="Helvetica,sans-Serif" font-size="10.00">cstddef</text>
</g>
<!-- Node7&#45;&gt;Node11 -->
<g id="edge10" class="edge"><title>Node7&#45;&gt;Node11</title>
<path fill="none" stroke="midnightblue" d="M444.332,-113.824C447.256,-113.199 450.153,-112.588 452.984,-112 535.851,-94.7843 557.284,-94.0073 639.984,-76 640.734,-75.8365 641.493,-75.6693 642.258,-75.499"/>
<polygon fill="midnightblue" stroke="midnightblue" points="643.387,-78.8305 652.343,-73.1696 641.812,-72.0101 643.387,-78.8305"/>
</g>
<!-- Node12 -->
<g id="node12" class="node"><title>Node12</title>
<polygon fill="white" stroke="#bfbfbf" points="771.984,-56.5 771.984,-75.5 817.984,-75.5 817.984,-56.5 771.984,-56.5"/>
<text text-anchor="middle" x="794.984" y="-63.5" font-family="Helvetica,sans-Serif" font-size="10.00">cstdint</text>
</g>
<!-- Node7&#45;&gt;Node12 -->
<g id="edge11" class="edge"><title>Node7&#45;&gt;Node12</title>
<path fill="none" stroke="midnightblue" d="M444.292,-113.618C447.227,-113.047 450.137,-112.504 452.984,-112 565.357,-92.1134 699.933,-76.8989 761.393,-70.4198"/>
<polygon fill="midnightblue" stroke="midnightblue" points="762.07,-73.8683 771.652,-69.3482 761.343,-66.9061 762.07,-73.8683"/>
</g>
<!-- Node13 -->
<g id="node13" class="node"><title>Node13</title>
<polygon fill="white" stroke="#bfbfbf" points="952.984,-56.5 952.984,-75.5 1008.98,-75.5 1008.98,-56.5 952.984,-56.5"/>
<text text-anchor="middle" x="980.984" y="-63.5" font-family="Helvetica,sans-Serif" font-size="10.00">algorithm</text>
</g>
<!-- Node7&#45;&gt;Node13 -->
<g id="edge12" class="edge"><title>Node7&#45;&gt;Node13</title>
<path fill="none" stroke="midnightblue" d="M444.266,-113.459C447.207,-112.929 450.126,-112.438 452.984,-112 547.712,-97.4648 837.971,-76.7829 942.753,-69.5865"/>
<polygon fill="midnightblue" stroke="midnightblue" points="943.139,-73.0684 952.877,-68.8936 942.661,-66.0847 943.139,-73.0684"/>
</g>
<!-- Node14 -->
<g id="node14" class="node"><title>Node14</title>
<polygon fill="white" stroke="#bfbfbf" points="592.984,-56.5 592.984,-75.5 630.984,-75.5 630.984,-56.5 592.984,-56.5"/>
<text text-anchor="middle" x="611.984" y="-63.5" font-family="Helvetica,sans-Serif" font-size="10.00">array</text>
</g>
<!-- Node7&#45;&gt;Node14 -->
<g id="edge13" class="edge"><title>Node7&#45;&gt;Node14</title>
<path fill="none" stroke="midnightblue" d="M440.785,-112.475C485.166,-100.686 546.952,-84.2739 582.881,-74.7303"/>
<polygon fill="midnightblue" stroke="midnightblue" points="583.957,-78.0659 592.724,-72.1159 582.16,-71.3005 583.957,-78.0659"/>
</g>
<!-- Node15&#45;&gt;Node2 -->
<g id="edge23" class="edge"><title>Node15&#45;&gt;Node2</title>
<path fill="none" stroke="midnightblue" d="M461.682,-113.576C458.745,-113.016 455.833,-112.487 452.984,-112 350.692,-94.5312 231.637,-81.5296 155.121,-74.1072"/>
<polygon fill="midnightblue" stroke="midnightblue" points="155.367,-70.6148 145.077,-73.1413 154.696,-77.5826 155.367,-70.6148"/>
</g>
<!-- Node15&#45;&gt;Node8 -->
<g id="edge16" class="edge"><title>Node15&#45;&gt;Node8</title>
<path fill="none" stroke="midnightblue" d="M461.977,-113.943C458.936,-113.281 455.923,-112.63 452.984,-112 388.468,-98.1768 313.073,-82.8704 269.691,-74.1452"/>
<polygon fill="midnightblue" stroke="midnightblue" points="270.13,-70.6636 259.637,-72.1257 268.752,-77.5265 270.13,-70.6636"/>
</g>
<!-- Node15&#45;&gt;Node9 -->
<g id="edge17" class="edge"><title>Node15&#45;&gt;Node9</title>
<path fill="none" stroke="midnightblue" d="M477.222,-112.399C447.671,-102.177 408.158,-88.508 380.234,-78.8481"/>
<polygon fill="midnightblue" stroke="midnightblue" points="381.105,-75.446 370.51,-75.4844 378.816,-82.0614 381.105,-75.446"/>
</g>
<!-- Node15&#45;&gt;Node10 -->
<g id="edge18" class="edge"><title>Node15&#45;&gt;Node10</title>
<path fill="none" stroke="midnightblue" d="M522.012,-112.399C524.33,-104.288 527.267,-94.0071 529.76,-85.2807"/>
<polygon fill="midnightblue" stroke="midnightblue" points="533.128,-86.2346 532.51,-75.6578 526.397,-84.3115 533.128,-86.2346"/>
</g>
<!-- Node15&#45;&gt;Node11 -->
<g id="edge19" class="edge"><title>Node15&#45;&gt;Node11</title>
<path fill="none" stroke="midnightblue" d="M555.664,-112.399C582.58,-102.327 618.436,-88.9093 644.176,-79.2769"/>
<polygon fill="midnightblue" stroke="midnightblue" points="645.709,-82.4406 653.848,-75.6578 643.255,-75.8846 645.709,-82.4406"/>
</g>
<!-- Node15&#45;&gt;Node12 -->
<g id="edge20" class="edge"><title>Node15&#45;&gt;Node12</title>
<path fill="none" stroke="midnightblue" d="M574.165,-113.723C576.807,-113.137 579.424,-112.56 581.984,-112 645.632,-98.0671 720.148,-82.493 762.032,-73.8062"/>
<polygon fill="midnightblue" stroke="midnightblue" points="762.869,-77.2072 771.951,-71.7512 761.448,-70.3527 762.869,-77.2072"/>
</g>
<!-- Node15&#45;&gt;Node13 -->
<g id="edge21" class="edge"><title>Node15&#45;&gt;Node13</title>
<path fill="none" stroke="midnightblue" d="M574.106,-113.416C576.764,-112.913 579.4,-112.437 581.984,-112 713.393,-89.7735 871.062,-75.6471 942.476,-69.9188"/>
<polygon fill="midnightblue" stroke="midnightblue" points="943.084,-73.3816 952.777,-69.103 942.532,-66.4035 943.084,-73.3816"/>
</g>
<!-- Node15&#45;&gt;Node14 -->
<g id="edge22" class="edge"><title>Node15&#45;&gt;Node14</title>
<path fill="none" stroke="midnightblue" d="M540.26,-112.399C555.187,-102.951 574.764,-90.5589 589.694,-81.1089"/>
<polygon fill="midnightblue" stroke="midnightblue" points="591.728,-83.9636 598.306,-75.6578 587.984,-78.0489 591.728,-83.9636"/>
</g>
<!-- Node16&#45;&gt;Node2 -->
<g id="edge36" class="edge"><title>Node16&#45;&gt;Node2</title>
<path fill="none" stroke="midnightblue" d="M632.422,-188.725C535.915,-179.838 336.587,-160.106 268.984,-143 207.555,-127.457 139.392,-97.376 102.773,-80.0849"/>
<polygon fill="midnightblue" stroke="midnightblue" points="103.845,-76.7184 93.3122,-75.5698 100.829,-83.0358 103.845,-76.7184"/>
</g>
<!-- Node16&#45;&gt;Node8 -->
<g id="edge25" class="edge"><title>Node16&#45;&gt;Node8</title>
<path fill="none" stroke="midnightblue" d="M632.245,-188.091C535.898,-178.12 341.15,-156.617 312.984,-143 284.969,-129.457 260.514,-102.212 246.5,-84.2922"/>
<polygon fill="midnightblue" stroke="midnightblue" points="248.977,-81.7653 240.159,-75.893 243.391,-85.9829 248.977,-81.7653"/>
</g>
<!-- Node16&#45;&gt;Node9 -->
<g id="edge26" class="edge"><title>Node16&#45;&gt;Node9</title>
<path fill="none" stroke="midnightblue" d="M632.3,-187.893C533.743,-177.342 333.049,-154.563 322.984,-143 308.473,-126.331 321.156,-100.736 332.664,-83.9301"/>
<polygon fill="midnightblue" stroke="midnightblue" points="335.672,-85.7465 338.756,-75.6106 330.024,-81.6106 335.672,-85.7465"/>
</g>
<!-- Node16&#45;&gt;Node10 -->
<g id="edge27" class="edge"><title>Node16&#45;&gt;Node10</title>
<path fill="none" stroke="midnightblue" d="M696.243,-179.36C707.583,-161.845 722.342,-131.893 706.984,-112 698.369,-100.842 614.461,-82.693 567.106,-73.213"/>
<polygon fill="midnightblue" stroke="midnightblue" points="567.527,-69.7284 557.037,-71.2176 566.166,-76.5949 567.527,-69.7284"/>
</g>
<!-- Node16&#45;&gt;Node11 -->
<g id="edge28" class="edge"><title>Node16&#45;&gt;Node11</title>
<path fill="none" stroke="midnightblue" d="M733.121,-179.479C750.701,-171.705 768.839,-160.053 778.984,-143 786.028,-131.159 786.507,-123.542 778.984,-112 764.161,-89.2595 734.966,-77.9296 711.595,-72.3329"/>
<polygon fill="midnightblue" stroke="midnightblue" points="712.179,-68.8786 701.668,-70.2065 710.713,-75.7234 712.179,-68.8786"/>
</g>
<!-- Node16&#45;&gt;Node12 -->
<g id="edge29" class="edge"><title>Node16&#45;&gt;Node12</title>
<path fill="none" stroke="midnightblue" d="M739.712,-187.864C794.565,-180.871 874.248,-166.855 892.984,-143 901.493,-132.164 900.42,-123.598 892.984,-112 878.787,-89.8593 850.659,-78.4672 828.166,-72.6944"/>
<polygon fill="midnightblue" stroke="midnightblue" points="828.828,-69.2554 818.298,-70.419 827.255,-76.0764 828.828,-69.2554"/>
</g>
<!-- Node16&#45;&gt;Node13 -->
<g id="edge30" class="edge"><title>Node16&#45;&gt;Node13</title>
<path fill="none" stroke="midnightblue" d="M718.681,-179.479C776.561,-154.659 896.164,-103.372 951.594,-79.6024"/>
<polygon fill="midnightblue" stroke="midnightblue" points="953.046,-82.7882 960.857,-75.6303 950.287,-76.3547 953.046,-82.7882"/>
</g>
<!-- Node16&#45;&gt;Node14 -->
<g id="edge31" class="edge"><title>Node16&#45;&gt;Node14</title>
<path fill="none" stroke="midnightblue" d="M707.289,-179.225C729.056,-162.842 757.491,-135.241 740.984,-112 737.963,-107.747 678.152,-88.0811 641.045,-76.1993"/>
<polygon fill="midnightblue" stroke="midnightblue" points="641.838,-72.7785 631.247,-73.0737 639.71,-79.4474 641.838,-72.7785"/>
</g>
<!-- Node17 -->
<g id="node17" class="node"><title>Node17</title>
<g id="a_node17"><a xlink:href="fatalerror_8h.xhtml" target="_top" xlink:title="Declares fatal error handling and debugging routines for C code. ">
<polygon fill="white" stroke="black" points="1173.98,-118 1173.98,-137 1303.98,-137 1303.98,-118 1173.98,-118"/>
<text text-anchor="middle" x="1238.98" y="-125" font-family="Helvetica,sans-Serif" font-size="10.00">gromacs/utility/fatalerror.h</text>
</a>
</g>
</g>
<!-- Node16&#45;&gt;Node17 -->
<g id="edge32" class="edge"><title>Node16&#45;&gt;Node17</title>
<path fill="none" stroke="midnightblue" d="M739.51,-187.208C838.442,-175.58 1050.14,-150.697 1163.56,-137.365"/>
<polygon fill="midnightblue" stroke="midnightblue" points="1164.03,-140.834 1173.55,-136.191 1163.21,-133.882 1164.03,-140.834"/>
</g>
<!-- Node16&#45;&gt;Node20 -->
<g id="edge37" class="edge"><title>Node16&#45;&gt;Node20</title>
<path fill="none" stroke="midnightblue" d="M677.087,-179.396C671.876,-171.134 665.172,-160.507 659.24,-151.102"/>
<polygon fill="midnightblue" stroke="midnightblue" points="662.158,-149.167 653.863,-142.577 656.237,-152.902 662.158,-149.167"/>
</g>
<!-- Node17&#45;&gt;Node4 -->
<g id="edge35" class="edge"><title>Node17&#45;&gt;Node4</title>
<path fill="none" stroke="midnightblue" d="M1222.94,-117.975C1204.39,-108.122 1173.64,-91.7883 1151.96,-80.2697"/>
<polygon fill="midnightblue" stroke="midnightblue" points="1153.47,-77.1098 1143,-75.5091 1150.19,-83.2916 1153.47,-77.1098"/>
</g>
<!-- Node18 -->
<g id="node18" class="node"><title>Node18</title>
<polygon fill="white" stroke="#bfbfbf" points="1223.98,-56.5 1223.98,-75.5 1275.98,-75.5 1275.98,-56.5 1223.98,-56.5"/>
<text text-anchor="middle" x="1249.98" y="-63.5" font-family="Helvetica,sans-Serif" font-size="10.00">stdarg.h</text>
</g>
<!-- Node17&#45;&gt;Node18 -->
<g id="edge33" class="edge"><title>Node17&#45;&gt;Node18</title>
<path fill="none" stroke="midnightblue" d="M1240.56,-117.975C1242.11,-109.58 1244.53,-96.4806 1246.53,-85.6631"/>
<polygon fill="midnightblue" stroke="midnightblue" points="1250.03,-85.9788 1248.41,-75.5091 1243.15,-84.7062 1250.03,-85.9788"/>
</g>
<!-- Node19 -->
<g id="node19" class="node"><title>Node19</title>
<polygon fill="white" stroke="#bfbfbf" points="1293.98,-56.5 1293.98,-75.5 1339.98,-75.5 1339.98,-56.5 1293.98,-56.5"/>
<text text-anchor="middle" x="1316.98" y="-63.5" font-family="Helvetica,sans-Serif" font-size="10.00">stdio.h</text>
</g>
<!-- Node17&#45;&gt;Node19 -->
<g id="edge34" class="edge"><title>Node17&#45;&gt;Node19</title>
<path fill="none" stroke="midnightblue" d="M1250.16,-117.975C1262.55,-108.52 1282.77,-93.0961 1297.73,-81.6871"/>
<polygon fill="midnightblue" stroke="midnightblue" points="1300,-84.357 1305.83,-75.5091 1295.76,-78.7914 1300,-84.357"/>
</g>
<!-- Node20&#45;&gt;Node2 -->
<g id="edge45" class="edge"><title>Node20&#45;&gt;Node2</title>
<path fill="none" stroke="midnightblue" d="M591.307,-113.458C588.499,-112.929 585.712,-112.438 582.984,-112 541.954,-105.415 287.5,-84.2124 155.406,-73.4282"/>
<polygon fill="midnightblue" stroke="midnightblue" points="155.589,-69.9315 145.337,-72.607 155.02,-76.9084 155.589,-69.9315"/>
</g>
<!-- Node20&#45;&gt;Node8 -->
<g id="edge38" class="edge"><title>Node20&#45;&gt;Node8</title>
<path fill="none" stroke="midnightblue" d="M591.285,-113.59C588.483,-113.026 585.703,-112.492 582.984,-112 523.272,-101.197 346.073,-80.0622 269.684,-71.136"/>
<polygon fill="midnightblue" stroke="midnightblue" points="269.935,-67.6416 259.597,-69.9598 269.124,-74.5945 269.935,-67.6416"/>
</g>
<!-- Node20&#45;&gt;Node9 -->
<g id="edge39" class="edge"><title>Node20&#45;&gt;Node9</title>
<path fill="none" stroke="midnightblue" d="M591.246,-113.786C588.454,-113.172 585.687,-112.573 582.984,-112 511.332,-96.8261 426.978,-81.3841 380.711,-73.1212"/>
<polygon fill="midnightblue" stroke="midnightblue" points="381.076,-69.6311 370.617,-71.3245 379.849,-76.5228 381.076,-69.6311"/>
</g>
<!-- Node20&#45;&gt;Node10 -->
<g id="edge40" class="edge"><title>Node20&#45;&gt;Node10</title>
<path fill="none" stroke="midnightblue" d="M618.915,-112.399C601.118,-102.773 577.671,-90.0902 560.084,-80.5772"/>
<polygon fill="midnightblue" stroke="midnightblue" points="561.45,-77.337 550.989,-75.6578 558.12,-83.494 561.45,-77.337"/>
</g>
<!-- Node20&#45;&gt;Node11 -->
<g id="edge41" class="edge"><title>Node20&#45;&gt;Node11</title>
<path fill="none" stroke="midnightblue" d="M652.567,-112.399C657.025,-104.11 662.702,-93.5542 667.46,-84.7077"/>
<polygon fill="midnightblue" stroke="midnightblue" points="670.673,-86.1227 672.327,-75.6578 664.508,-82.8071 670.673,-86.1227"/>
</g>
<!-- Node20&#45;&gt;Node12 -->
<g id="edge42" class="edge"><title>Node20&#45;&gt;Node12</title>
<path fill="none" stroke="midnightblue" d="M680.531,-112.399C705.811,-102.372 739.451,-89.028 763.71,-79.405"/>
<polygon fill="midnightblue" stroke="midnightblue" points="765.152,-82.5984 773.157,-75.6578 762.571,-76.0916 765.152,-82.5984"/>
</g>
<!-- Node20&#45;&gt;Node13 -->
<g id="edge43" class="edge"><title>Node20&#45;&gt;Node13</title>
<path fill="none" stroke="midnightblue" d="M698.595,-117.006C766.761,-104.935 882.773,-84.3914 942.672,-73.7843"/>
<polygon fill="midnightblue" stroke="midnightblue" points="943.596,-77.1753 952.832,-71.9851 942.375,-70.2825 943.596,-77.1753"/>
</g>
<!-- Node20&#45;&gt;Node14 -->
<g id="edge44" class="edge"><title>Node20&#45;&gt;Node14</title>
<path fill="none" stroke="midnightblue" d="M637.163,-112.399C632.516,-104.021 626.585,-93.3269 621.647,-84.4229"/>
<polygon fill="midnightblue" stroke="midnightblue" points="624.696,-82.7052 616.785,-75.6578 618.575,-86.1004 624.696,-82.7052"/>
</g>
<!-- Node21&#45;&gt;Node2 -->
<g id="edge53" class="edge"><title>Node21&#45;&gt;Node2</title>
<path fill="none" stroke="midnightblue" d="M561.832,-258.572C485.548,-254.63 334.566,-243.018 210.984,-210 136.502,-190.1 93.6907,-207.184 50.9835,-143 38.7781,-124.657 51.2968,-99.866 62.5863,-83.6607"/>
<polygon fill="midnightblue" stroke="midnightblue" points="65.3972,-85.746 68.5669,-75.6364 59.7846,-81.5628 65.3972,-85.746"/>
</g>
<!-- Node21&#45;&gt;Node8 -->
<g id="edge48" class="edge"><title>Node21&#45;&gt;Node8</title>
<path fill="none" stroke="midnightblue" d="M561.897,-255.656C455.503,-243.96 209.747,-210.063 166.984,-143 159.576,-131.383 160.503,-124.159 166.984,-112 174.534,-97.8339 188.744,-87.3348 202.142,-80.0576"/>
<polygon fill="midnightblue" stroke="midnightblue" points="203.817,-83.1329 211.195,-75.5289 200.686,-76.8724 203.817,-83.1329"/>
</g>
<!-- Node21&#45;&gt;Node9 -->
<g id="edge49" class="edge"><title>Node21&#45;&gt;Node9</title>
<path fill="none" stroke="midnightblue" d="M561.898,-260.686C484.887,-257.913 338.529,-239.501 280.984,-143 273.927,-131.166 274.589,-124.204 280.984,-112 288.262,-98.1082 301.993,-87.6523 314.966,-80.3328"/>
<polygon fill="midnightblue" stroke="midnightblue" points="316.912,-83.2662 324.175,-75.553 313.687,-77.0532 316.912,-83.2662"/>
</g>
<!-- Node21&#45;&gt;Node11 -->
<g id="edge50" class="edge"><title>Node21&#45;&gt;Node11</title>
<path fill="none" stroke="midnightblue" d="M660.128,-250C687.926,-242.291 722.176,-229.666 747.984,-210 777.119,-187.798 784.78,-177.876 795.984,-143 800.197,-129.882 803.816,-123.335 795.984,-112 777.168,-84.7688 739.604,-73.9986 711.688,-69.7489"/>
<polygon fill="midnightblue" stroke="midnightblue" points="711.891,-66.2456 701.521,-68.4187 710.983,-73.1865 711.891,-66.2456"/>
</g>
<!-- Node21&#45;&gt;Node12 -->
<g id="edge51" class="edge"><title>Node21&#45;&gt;Node12</title>
<path fill="none" stroke="midnightblue" d="M660.077,-258.186C730.29,-251.856 856.673,-228.51 908.984,-143 916.173,-131.247 916.734,-123.391 908.984,-112 891.021,-85.5978 854.939,-74.6862 828.157,-70.1766"/>
<polygon fill="midnightblue" stroke="midnightblue" points="828.448,-66.682 818.047,-68.6979 827.435,-73.6083 828.448,-66.682"/>
</g>
<!-- Node21&#45;&gt;Node13 -->
<g id="edge52" class="edge"><title>Node21&#45;&gt;Node13</title>
<path fill="none" stroke="midnightblue" d="M660.438,-261.154C715.921,-259.69 806.686,-250.513 871.984,-210 922.03,-178.949 957.513,-115.994 972.716,-85.0275"/>
<polygon fill="midnightblue" stroke="midnightblue" points="975.949,-86.3781 977.086,-75.8444 969.628,-83.3702 975.949,-86.3781"/>
</g>
<!-- Node21&#45;&gt;Node16 -->
<g id="edge54" class="edge"><title>Node21&#45;&gt;Node16</title>
<path fill="none" stroke="midnightblue" d="M627.257,-246.396C637.38,-237.623 650.58,-226.183 661.901,-216.371"/>
<polygon fill="midnightblue" stroke="midnightblue" points="664.477,-218.771 669.741,-209.577 659.892,-213.481 664.477,-218.771"/>
</g>
<!-- Node22&#45;&gt;Node2 -->
<g id="edge61" class="edge"><title>Node22&#45;&gt;Node2</title>
<path fill="none" stroke="midnightblue" d="M413.711,-190.887C311.701,-184.973 84.929,-169.016 61.9835,-143 47.8885,-127.019 56.6721,-101.613 65.3711,-84.6295"/>
<polygon fill="midnightblue" stroke="midnightblue" points="68.5139,-86.1793 70.3095,-75.7377 62.3944,-82.7805 68.5139,-86.1793"/>
</g>
<!-- Node22&#45;&gt;Node8 -->
<g id="edge56" class="edge"><title>Node22&#45;&gt;Node8</title>
<path fill="none" stroke="midnightblue" d="M413.844,-192.185C339.981,-189.055 205.786,-178.504 175.984,-143 167.125,-132.447 169.923,-124.373 175.984,-112 182.506,-98.6839 195.079,-88.177 206.857,-80.6761"/>
<polygon fill="midnightblue" stroke="midnightblue" points="208.754,-83.6205 215.594,-75.5294 205.201,-77.5891 208.754,-83.6205"/>
</g>
<!-- Node22&#45;&gt;Node9 -->
<g id="edge57" class="edge"><title>Node22&#45;&gt;Node9</title>
<path fill="none" stroke="midnightblue" d="M413.72,-185.815C368.028,-177.562 304.906,-162.901 289.984,-143 281.718,-131.977 284.029,-124.424 289.984,-112 296.236,-98.9542 308.319,-88.4921 319.666,-80.9506"/>
<polygon fill="midnightblue" stroke="midnightblue" points="321.793,-83.7515 328.482,-75.5351 318.129,-77.7869 321.793,-83.7515"/>
</g>
<!-- Node22&#45;&gt;Node11 -->
<g id="edge58" class="edge"><title>Node22&#45;&gt;Node11</title>
<path fill="none" stroke="midnightblue" d="M511.988,-190.479C576.028,-185.392 682.879,-172.604 706.984,-143 721.322,-125.39 705.995,-100.083 692.498,-83.5929"/>
<polygon fill="midnightblue" stroke="midnightblue" points="694.977,-81.1097 685.773,-75.8608 689.695,-85.7033 694.977,-81.1097"/>
</g>
<!-- Node22&#45;&gt;Node12 -->
<g id="edge59" class="edge"><title>Node22&#45;&gt;Node12</title>
<path fill="none" stroke="midnightblue" d="M512.22,-192.914C567.103,-190.308 656.943,-180.084 723.984,-143 749.58,-128.841 771.213,-102.168 783.649,-84.4885"/>
<polygon fill="midnightblue" stroke="midnightblue" points="786.871,-85.9718 789.578,-75.7286 781.074,-82.0481 786.871,-85.9718"/>
</g>
<!-- Node22&#45;&gt;Node13 -->
<g id="edge60" class="edge"><title>Node22&#45;&gt;Node13</title>
<path fill="none" stroke="midnightblue" d="M512.116,-187.463C570.898,-179.69 672.025,-164.567 756.984,-143 827.182,-125.18 906.97,-95.8431 949.818,-79.3151"/>
<polygon fill="midnightblue" stroke="midnightblue" points="951.332,-82.4819 959.387,-75.5995 948.798,-75.9565 951.332,-82.4819"/>
</g>
<!-- Node22&#45;&gt;Node20 -->
<g id="edge62" class="edge"><title>Node22&#45;&gt;Node20</title>
<path fill="none" stroke="midnightblue" d="M502.475,-179.396C529.902,-169.601 566.637,-156.481 595.941,-146.015"/>
<polygon fill="midnightblue" stroke="midnightblue" points="597.329,-149.236 605.569,-142.577 594.975,-142.644 597.329,-149.236"/>
</g>
</g>
</svg>
