<?xml version="1.0" encoding="UTF-8" standalone="no"?>
<!DOCTYPE svg PUBLIC "-//W3C//DTD SVG 1.1//EN"
 "http://www.w3.org/Graphics/SVG/1.1/DTD/svg11.dtd">
<!-- Generated by graphviz version 2.38.0 (20140413.2041)
 -->
<!-- Title: src/gromacs/simd/impl_reference/impl_reference_simd_double.h Pages: 1 -->
<svg width="916pt" height="229pt"
 viewBox="0.00 0.00 916.00 229.00" xmlns="http://www.w3.org/2000/svg" xmlns:xlink="http://www.w3.org/1999/xlink">
<g id="graph0" class="graph" transform="scale(1 1) rotate(0) translate(4 225)">
<title>src/gromacs/simd/impl_reference/impl_reference_simd_double.h</title>
<polygon fill="white" stroke="none" points="-4,4 -4,-225 912,-225 912,4 -4,4"/>
<!-- Node1 -->
<g id="node1" class="node"><title>Node1</title>
<polygon fill="#bfbfbf" stroke="black" points="242,-179.5 242,-220.5 371,-220.5 371,-179.5 242,-179.5"/>
<text text-anchor="start" x="250" y="-208.5" font-family="Helvetica,sans-Serif" font-size="10.00">src/gromacs/simd/impl</text>
<text text-anchor="start" x="250" y="-197.5" font-family="Helvetica,sans-Serif" font-size="10.00">_reference/impl_reference</text>
<text text-anchor="middle" x="306.5" y="-186.5" font-family="Helvetica,sans-Serif" font-size="10.00">_simd_double.h</text>
</g>
<!-- Node2 -->
<g id="node2" class="node"><title>Node2</title>
<polygon fill="white" stroke="#bfbfbf" points="0,-56.5 0,-75.5 51,-75.5 51,-56.5 0,-56.5"/>
<text text-anchor="middle" x="25.5" y="-63.5" font-family="Helvetica,sans-Serif" font-size="10.00">config.h</text>
</g>
<!-- Node1&#45;&gt;Node2 -->
<g id="edge1" class="edge"><title>Node1&#45;&gt;Node2</title>
<path fill="none" stroke="midnightblue" d="M241.859,-183.746C207.717,-174.388 165.712,-160.766 130.5,-143 97.0992,-126.147 62.7977,-99.1312 42.8518,-82.2597"/>
<polygon fill="midnightblue" stroke="midnightblue" points="45.093,-79.5709 35.227,-75.7093 40.5316,-84.8806 45.093,-79.5709"/>
</g>
<!-- Node3 -->
<g id="node3" class="node"><title>Node3</title>
<polygon fill="white" stroke="#bfbfbf" points="69,-56.5 69,-75.5 118,-75.5 118,-56.5 69,-56.5"/>
<text text-anchor="middle" x="93.5" y="-63.5" font-family="Helvetica,sans-Serif" font-size="10.00">cassert</text>
</g>
<!-- Node1&#45;&gt;Node3 -->
<g id="edge2" class="edge"><title>Node1&#45;&gt;Node3</title>
<path fill="none" stroke="midnightblue" d="M245.069,-179.498C220.779,-170.338 193.283,-158.081 170.5,-143 145.159,-126.225 121.092,-100.296 106.812,-83.4852"/>
<polygon fill="midnightblue" stroke="midnightblue" points="109.363,-81.0785 100.281,-75.6219 103.978,-85.5509 109.363,-81.0785"/>
</g>
<!-- Node4 -->
<g id="node4" class="node"><title>Node4</title>
<polygon fill="white" stroke="#bfbfbf" points="136.5,-56.5 136.5,-75.5 180.5,-75.5 180.5,-56.5 136.5,-56.5"/>
<text text-anchor="middle" x="158.5" y="-63.5" font-family="Helvetica,sans-Serif" font-size="10.00">cmath</text>
</g>
<!-- Node1&#45;&gt;Node4 -->
<g id="edge3" class="edge"><title>Node1&#45;&gt;Node4</title>
<path fill="none" stroke="midnightblue" d="M249.648,-179.397C230.329,-170.597 209.784,-158.612 194.5,-143 178.582,-126.739 168.702,-102.108 163.409,-85.3253"/>
<polygon fill="midnightblue" stroke="midnightblue" points="166.732,-84.2194 160.575,-75.5972 160.012,-86.177 166.732,-84.2194"/>
</g>
<!-- Node5 -->
<g id="node5" class="node"><title>Node5</title>
<polygon fill="white" stroke="#bfbfbf" points="199,-56.5 199,-75.5 248,-75.5 248,-56.5 199,-56.5"/>
<text text-anchor="middle" x="223.5" y="-63.5" font-family="Helvetica,sans-Serif" font-size="10.00">cstddef</text>
</g>
<!-- Node1&#45;&gt;Node5 -->
<g id="edge4" class="edge"><title>Node1&#45;&gt;Node5</title>
<path fill="none" stroke="midnightblue" d="M245.052,-179.441C228.327,-170.985 212.174,-159.197 202.5,-143 191.468,-124.531 201.895,-100.096 211.592,-83.9808"/>
<polygon fill="midnightblue" stroke="midnightblue" points="214.547,-85.8567 217.049,-75.5616 208.673,-82.0494 214.547,-85.8567"/>
</g>
<!-- Node6 -->
<g id="node6" class="node"><title>Node6</title>
<polygon fill="white" stroke="#bfbfbf" points="266.5,-56.5 266.5,-75.5 312.5,-75.5 312.5,-56.5 266.5,-56.5"/>
<text text-anchor="middle" x="289.5" y="-63.5" font-family="Helvetica,sans-Serif" font-size="10.00">cstdint</text>
</g>
<!-- Node1&#45;&gt;Node6 -->
<g id="edge5" class="edge"><title>Node1&#45;&gt;Node6</title>
<path fill="none" stroke="midnightblue" d="M317.759,-179.274C326.45,-161.391 335.719,-134.473 327.5,-112 323.443,-100.908 315.312,-90.6651 307.609,-82.7625"/>
<polygon fill="midnightblue" stroke="midnightblue" points="309.862,-80.0747 300.214,-75.6955 305.025,-85.1351 309.862,-80.0747"/>
</g>
<!-- Node7 -->
<g id="node7" class="node"><title>Node7</title>
<polygon fill="white" stroke="#bfbfbf" points="330.5,-56.5 330.5,-75.5 386.5,-75.5 386.5,-56.5 330.5,-56.5"/>
<text text-anchor="middle" x="358.5" y="-63.5" font-family="Helvetica,sans-Serif" font-size="10.00">algorithm</text>
</g>
<!-- Node1&#45;&gt;Node7 -->
<g id="edge6" class="edge"><title>Node1&#45;&gt;Node7</title>
<path fill="none" stroke="midnightblue" d="M322.238,-179.332C329.73,-169.05 338.192,-155.937 343.5,-143 351.141,-124.377 354.975,-101.552 356.841,-85.8036"/>
<polygon fill="midnightblue" stroke="midnightblue" points="360.334,-86.055 357.879,-75.7486 353.371,-85.3364 360.334,-86.055"/>
</g>
<!-- Node8 -->
<g id="node8" class="node"><title>Node8</title>
<polygon fill="white" stroke="#bfbfbf" points="404.5,-56.5 404.5,-75.5 442.5,-75.5 442.5,-56.5 404.5,-56.5"/>
<text text-anchor="middle" x="423.5" y="-63.5" font-family="Helvetica,sans-Serif" font-size="10.00">array</text>
</g>
<!-- Node1&#45;&gt;Node8 -->
<g id="edge7" class="edge"><title>Node1&#45;&gt;Node8</title>
<path fill="none" stroke="midnightblue" d="M327.264,-179.299C338.06,-168.794 351.303,-155.49 362.5,-143 380.06,-123.413 398.791,-99.583 410.794,-83.8899"/>
<polygon fill="midnightblue" stroke="midnightblue" points="413.765,-85.765 417.023,-75.6838 408.189,-81.5325 413.765,-85.765"/>
</g>
<!-- Node9 -->
<g id="node9" class="node"><title>Node9</title>
<g id="a_node9"><a xlink:href="fatalerror_8h.xhtml" target="_top" xlink:title="Declares fatal error handling and debugging routines for C code. ">
<polygon fill="white" stroke="black" points="610.5,-118 610.5,-137 740.5,-137 740.5,-118 610.5,-118"/>
<text text-anchor="middle" x="675.5" y="-125" font-family="Helvetica,sans-Serif" font-size="10.00">gromacs/utility/fatalerror.h</text>
</a>
</g>
</g>
<!-- Node1&#45;&gt;Node9 -->
<g id="edge8" class="edge"><title>Node1&#45;&gt;Node9</title>
<path fill="none" stroke="midnightblue" d="M371.197,-186.639C442.072,-173.098 554.502,-151.617 621.037,-138.905"/>
<polygon fill="midnightblue" stroke="midnightblue" points="621.744,-142.334 630.909,-137.019 620.43,-135.458 621.744,-142.334"/>
</g>
<!-- Node15 -->
<g id="node15" class="node"><title>Node15</title>
<g id="a_node15"><a xlink:href="impl__reference__definitions_8h.xhtml" target="_top" xlink:title="Reference SIMD implementation, including SIMD documentation. ">
<polygon fill="white" stroke="black" points="460.5,-56.5 460.5,-75.5 598.5,-75.5 598.5,-56.5 460.5,-56.5"/>
<text text-anchor="middle" x="529.5" y="-63.5" font-family="Helvetica,sans-Serif" font-size="10.00">impl_reference_definitions.h</text>
</a>
</g>
</g>
<!-- Node1&#45;&gt;Node15 -->
<g id="edge14" class="edge"><title>Node1&#45;&gt;Node15</title>
<path fill="none" stroke="midnightblue" d="M339.885,-179.238C385.667,-152.139 466.757,-104.139 506.393,-80.6779"/>
<polygon fill="midnightblue" stroke="midnightblue" points="508.264,-83.6376 515.086,-75.5319 504.698,-77.6138 508.264,-83.6376"/>
</g>
<!-- Node16 -->
<g id="node16" class="node"><title>Node16</title>
<g id="a_node16"><a xlink:href="impl__reference__simd__float_8h.xhtml" target="_top" xlink:title="Reference implementation, SIMD single precision. ">
<polygon fill="white" stroke="black" points="212,-112.5 212,-142.5 319,-142.5 319,-112.5 212,-112.5"/>
<text text-anchor="start" x="220" y="-130.5" font-family="Helvetica,sans-Serif" font-size="10.00">impl_reference_simd</text>
<text text-anchor="middle" x="265.5" y="-119.5" font-family="Helvetica,sans-Serif" font-size="10.00">_float.h</text>
</a>
</g>
</g>
<!-- Node1&#45;&gt;Node16 -->
<g id="edge15" class="edge"><title>Node1&#45;&gt;Node16</title>
<path fill="none" stroke="midnightblue" d="M295.079,-179.362C290.085,-170.774 284.19,-160.637 278.982,-151.682"/>
<polygon fill="midnightblue" stroke="midnightblue" points="281.922,-149.776 273.87,-142.892 275.871,-153.296 281.922,-149.776"/>
</g>
<!-- Node10 -->
<g id="node10" class="node"><title>Node10</title>
<polygon fill="white" stroke="#bfbfbf" points="616.5,-56.5 616.5,-75.5 668.5,-75.5 668.5,-56.5 616.5,-56.5"/>
<text text-anchor="middle" x="642.5" y="-63.5" font-family="Helvetica,sans-Serif" font-size="10.00">stdarg.h</text>
</g>
<!-- Node9&#45;&gt;Node10 -->
<g id="edge9" class="edge"><title>Node9&#45;&gt;Node10</title>
<path fill="none" stroke="midnightblue" d="M670.772,-117.975C665.92,-109.227 658.234,-95.3691 652.1,-84.3093"/>
<polygon fill="midnightblue" stroke="midnightblue" points="655.13,-82.5566 647.219,-75.5091 649.009,-85.9517 655.13,-82.5566"/>
</g>
<!-- Node11 -->
<g id="node11" class="node"><title>Node11</title>
<polygon fill="white" stroke="#bfbfbf" points="686.5,-56.5 686.5,-75.5 732.5,-75.5 732.5,-56.5 686.5,-56.5"/>
<text text-anchor="middle" x="709.5" y="-63.5" font-family="Helvetica,sans-Serif" font-size="10.00">stdio.h</text>
</g>
<!-- Node9&#45;&gt;Node11 -->
<g id="edge10" class="edge"><title>Node9&#45;&gt;Node11</title>
<path fill="none" stroke="midnightblue" d="M680.371,-117.975C685.37,-109.227 693.289,-95.3691 699.609,-84.3093"/>
<polygon fill="midnightblue" stroke="midnightblue" points="702.715,-85.928 704.638,-75.5091 696.637,-82.455 702.715,-85.928"/>
</g>
<!-- Node12 -->
<g id="node12" class="node"><title>Node12</title>
<g id="a_node12"><a xlink:href="basedefinitions_8h.xhtml" target="_top" xlink:title="Basic types and macros used throughout GROMACS. ">
<polygon fill="white" stroke="black" points="751,-56.5 751,-75.5 908,-75.5 908,-56.5 751,-56.5"/>
<text text-anchor="middle" x="829.5" y="-63.5" font-family="Helvetica,sans-Serif" font-size="10.00">gromacs/utility/basedefinitions.h</text>
</a>
</g>
</g>
<!-- Node9&#45;&gt;Node12 -->
<g id="edge11" class="edge"><title>Node9&#45;&gt;Node12</title>
<path fill="none" stroke="midnightblue" d="M697.564,-117.975C723.867,-107.813 768.013,-90.7564 797.925,-79.1996"/>
<polygon fill="midnightblue" stroke="midnightblue" points="799.41,-82.3779 807.476,-75.5091 796.887,-75.8483 799.41,-82.3779"/>
</g>
<!-- Node13 -->
<g id="node13" class="node"><title>Node13</title>
<polygon fill="white" stroke="#bfbfbf" points="769,-0.5 769,-19.5 818,-19.5 818,-0.5 769,-0.5"/>
<text text-anchor="middle" x="793.5" y="-7.5" font-family="Helvetica,sans-Serif" font-size="10.00">stdint.h</text>
</g>
<!-- Node12&#45;&gt;Node13 -->
<g id="edge12" class="edge"><title>Node12&#45;&gt;Node13</title>
<path fill="none" stroke="midnightblue" d="M823.555,-56.083C818.523,-48.5341 811.163,-37.4948 804.987,-28.2298"/>
<polygon fill="midnightblue" stroke="midnightblue" points="807.793,-26.1301 799.334,-19.7511 801.969,-30.0131 807.793,-26.1301"/>
</g>
<!-- Node14 -->
<g id="node14" class="node"><title>Node14</title>
<polygon fill="white" stroke="#bfbfbf" points="836,-0.5 836,-19.5 895,-19.5 895,-0.5 836,-0.5"/>
<text text-anchor="middle" x="865.5" y="-7.5" font-family="Helvetica,sans-Serif" font-size="10.00">inttypes.h</text>
</g>
<!-- Node12&#45;&gt;Node14 -->
<g id="edge13" class="edge"><title>Node12&#45;&gt;Node14</title>
<path fill="none" stroke="midnightblue" d="M835.445,-56.083C840.477,-48.5341 847.837,-37.4948 854.013,-28.2298"/>
<polygon fill="midnightblue" stroke="midnightblue" points="857.031,-30.0131 859.666,-19.7511 851.207,-26.1301 857.031,-30.0131"/>
</g>
<!-- Node16&#45;&gt;Node2 -->
<g id="edge16" class="edge"><title>Node16&#45;&gt;Node2</title>
<path fill="none" stroke="midnightblue" d="M211.649,-113.585C172.322,-104.088 117.46,-90.7044 60.9314,-76.3352"/>
<polygon fill="midnightblue" stroke="midnightblue" points="61.6612,-72.9094 51.1067,-73.8321 59.9329,-79.6927 61.6612,-72.9094"/>
</g>
<!-- Node16&#45;&gt;Node3 -->
<g id="edge17" class="edge"><title>Node16&#45;&gt;Node3</title>
<path fill="none" stroke="midnightblue" d="M224.738,-112.399C195.187,-102.177 155.674,-88.508 127.75,-78.8481"/>
<polygon fill="midnightblue" stroke="midnightblue" points="128.621,-75.446 118.026,-75.4844 126.333,-82.0614 128.621,-75.446"/>
</g>
<!-- Node16&#45;&gt;Node4 -->
<g id="edge18" class="edge"><title>Node16&#45;&gt;Node4</title>
<path fill="none" stroke="midnightblue" d="M240.142,-112.399C222.831,-102.773 200.024,-90.0902 182.916,-80.5772"/>
<polygon fill="midnightblue" stroke="midnightblue" points="184.51,-77.4588 174.069,-75.6578 181.108,-83.5766 184.51,-77.4588"/>
</g>
<!-- Node16&#45;&gt;Node5 -->
<g id="edge19" class="edge"><title>Node16&#45;&gt;Node5</title>
<path fill="none" stroke="midnightblue" d="M255.547,-112.399C249.506,-103.842 241.762,-92.8708 235.399,-83.857"/>
<polygon fill="midnightblue" stroke="midnightblue" points="238.238,-81.8091 229.611,-75.6578 232.519,-85.8459 238.238,-81.8091"/>
</g>
<!-- Node16&#45;&gt;Node6 -->
<g id="edge20" class="edge"><title>Node16&#45;&gt;Node6</title>
<path fill="none" stroke="midnightblue" d="M271.188,-112.399C274.495,-104.199 278.698,-93.7809 282.242,-84.9936"/>
<polygon fill="midnightblue" stroke="midnightblue" points="285.513,-86.2411 286.008,-75.6578 279.021,-83.6225 285.513,-86.2411"/>
</g>
<!-- Node16&#45;&gt;Node7 -->
<g id="edge21" class="edge"><title>Node16&#45;&gt;Node7</title>
<path fill="none" stroke="midnightblue" d="M287.54,-112.399C302.308,-102.951 321.677,-90.5589 336.447,-81.1089"/>
<polygon fill="midnightblue" stroke="midnightblue" points="338.43,-83.9953 344.968,-75.6578 334.658,-78.0988 338.43,-83.9953"/>
</g>
<!-- Node16&#45;&gt;Node8 -->
<g id="edge22" class="edge"><title>Node16&#45;&gt;Node8</title>
<path fill="none" stroke="midnightblue" d="M302.944,-112.399C330.979,-101.842 368.776,-87.6083 394.525,-77.9114"/>
<polygon fill="midnightblue" stroke="midnightblue" points="395.967,-81.1086 404.091,-74.3089 393.5,-74.5577 395.967,-81.1086"/>
</g>
<!-- Node16&#45;&gt;Node15 -->
<g id="edge23" class="edge"><title>Node16&#45;&gt;Node15</title>
<path fill="none" stroke="midnightblue" d="M319.243,-114.388C366.897,-103.647 435.85,-88.1068 481.639,-77.7868"/>
<polygon fill="midnightblue" stroke="midnightblue" points="482.626,-81.1523 491.612,-75.5392 481.087,-74.3236 482.626,-81.1523"/>
</g>
</g>
</svg>
