<?xml version="1.0" encoding="UTF-8" standalone="no"?>
<!DOCTYPE svg PUBLIC "-//W3C//DTD SVG 1.1//EN"
 "http://www.w3.org/Graphics/SVG/1.1/DTD/svg11.dtd">
<!-- Generated by graphviz version 2.38.0 (20140413.2041)
 -->
<!-- Title: Graphical Class Hierarchy Pages: 1 -->
<svg width="325pt" height="99pt"
 viewBox="0.00 0.00 325.00 98.50" xmlns="http://www.w3.org/2000/svg" xmlns:xlink="http://www.w3.org/1999/xlink">
<g id="graph0" class="graph" transform="scale(1 1) rotate(0) translate(4 94.5)">
<title>Graphical Class Hierarchy</title>
<polygon fill="white" stroke="none" points="-4,4 -4,-94.5 321,-94.5 321,4 -4,4"/>
<!-- Node1 -->
<g id="node1" class="node"><title>Node1</title>
<g id="a_node1"><a xlink:href="classgmx_1_1IFileInputRedirector.xhtml" target="_top" xlink:title="Allows overriding file existence checks from code that supports it. ">
<polygon fill="white" stroke="black" points="0,-33 0,-52 127,-52 127,-33 0,-33"/>
<text text-anchor="middle" x="63.5" y="-40" font-family="Helvetica,sans-Serif" font-size="10.00">gmx::IFileInputRedirector</text>
</a>
</g>
</g>
<!-- Node2 -->
<g id="node2" class="node"><title>Node2</title>
<g id="a_node2"><a xlink:href="classgmx_1_1anonymous__namespace_02fileredirector_8cpp_03_1_1DefaultInputRedirector.xhtml" target="_top" xlink:title="Implements the redirector returned by defaultFileInputRedirector(). ">
<polygon fill="white" stroke="black" points="163,-49 163,-90 317,-90 317,-49 163,-49"/>
<text text-anchor="start" x="171" y="-78" font-family="Helvetica,sans-Serif" font-size="10.00">gmx::anonymous_namespace</text>
<text text-anchor="start" x="171" y="-67" font-family="Helvetica,sans-Serif" font-size="10.00">{fileredirector.cpp}::DefaultInput</text>
<text text-anchor="middle" x="240" y="-56" font-family="Helvetica,sans-Serif" font-size="10.00">Redirector</text>
</a>
</g>
</g>
<!-- Node1&#45;&gt;Node2 -->
<g id="edge1" class="edge"><title>Node1&#45;&gt;Node2</title>
<path fill="none" stroke="midnightblue" d="M136.184,-53.5914C144.943,-54.9468 153.919,-56.3356 162.742,-57.7008"/>
<polygon fill="midnightblue" stroke="midnightblue" points="136.44,-50.0895 126.022,-52.0192 135.369,-57.0072 136.44,-50.0895"/>
</g>
<!-- Node3 -->
<g id="node3" class="node"><title>Node3</title>
<g id="a_node3"><a xlink:href="classgmx_1_1test_1_1TestFileInputRedirector.xhtml" target="_top" xlink:title="In&#45;memory implementation for IFileInputRedirector for tests. ">
<polygon fill="white" stroke="black" points="179.5,-0.5 179.5,-30.5 300.5,-30.5 300.5,-0.5 179.5,-0.5"/>
<text text-anchor="start" x="187.5" y="-18.5" font-family="Helvetica,sans-Serif" font-size="10.00">gmx::test::TestFileInput</text>
<text text-anchor="middle" x="240" y="-7.5" font-family="Helvetica,sans-Serif" font-size="10.00">Redirector</text>
</a>
</g>
</g>
<!-- Node1&#45;&gt;Node3 -->
<g id="edge2" class="edge"><title>Node1&#45;&gt;Node3</title>
<path fill="none" stroke="midnightblue" d="M135.929,-31.448C150.407,-29.2079 165.486,-26.8747 179.499,-24.7065"/>
<polygon fill="midnightblue" stroke="midnightblue" points="135.369,-27.9928 126.022,-32.9808 136.44,-34.9105 135.369,-27.9928"/>
</g>
</g>
</svg>
