<?xml version="1.0" encoding="UTF-8" standalone="no"?>
<!DOCTYPE svg PUBLIC "-//W3C//DTD SVG 1.1//EN"
 "http://www.w3.org/Graphics/SVG/1.1/DTD/svg11.dtd">
<!-- Generated by graphviz version 2.38.0 (20140413.2041)
 -->
<!-- Title: src/testutils/integrationtests.h Pages: 1 -->
<svg width="291pt" height="196pt"
 viewBox="0.00 0.00 290.50 196.00" xmlns="http://www.w3.org/2000/svg" xmlns:xlink="http://www.w3.org/1999/xlink">
<g id="graph0" class="graph" transform="scale(1 1) rotate(0) translate(4 192)">
<title>src/testutils/integrationtests.h</title>
<polygon fill="white" stroke="none" points="-4,4 -4,-192 286.5,-192 286.5,4 -4,4"/>
<!-- Node1 -->
<g id="node1" class="node"><title>Node1</title>
<polygon fill="#bfbfbf" stroke="black" points="21.5,-168.5 21.5,-187.5 167.5,-187.5 167.5,-168.5 21.5,-168.5"/>
<text text-anchor="middle" x="94.5" y="-175.5" font-family="Helvetica,sans-Serif" font-size="10.00">src/testutils/integrationtests.h</text>
</g>
<!-- Node2 -->
<g id="node2" class="node"><title>Node2</title>
<polygon fill="white" stroke="#bfbfbf" points="0,-112.5 0,-131.5 71,-131.5 71,-112.5 0,-112.5"/>
<text text-anchor="middle" x="35.5" y="-119.5" font-family="Helvetica,sans-Serif" font-size="10.00">gtest/gtest.h</text>
</g>
<!-- Node1&#45;&gt;Node2 -->
<g id="edge1" class="edge"><title>Node1&#45;&gt;Node2</title>
<path fill="none" stroke="midnightblue" d="M85.0206,-168.324C76.2989,-160.341 63.1565,-148.313 52.6022,-138.653"/>
<polygon fill="midnightblue" stroke="midnightblue" points="54.8917,-136.004 45.1519,-131.834 50.1655,-141.167 54.8917,-136.004"/>
</g>
<!-- Node3 -->
<g id="node3" class="node"><title>Node3</title>
<g id="a_node3"><a xlink:href="testfilemanager_8h.xhtml" target="_top" xlink:title="Declares gmx::test::TestFileManager. ">
<polygon fill="white" stroke="black" points="89,-112.5 89,-131.5 218,-131.5 218,-112.5 89,-112.5"/>
<text text-anchor="middle" x="153.5" y="-119.5" font-family="Helvetica,sans-Serif" font-size="10.00">testutils/testfilemanager.h</text>
</a>
</g>
</g>
<!-- Node1&#45;&gt;Node3 -->
<g id="edge2" class="edge"><title>Node1&#45;&gt;Node3</title>
<path fill="none" stroke="midnightblue" d="M103.979,-168.324C112.701,-160.341 125.843,-148.313 136.398,-138.653"/>
<polygon fill="midnightblue" stroke="midnightblue" points="138.834,-141.167 143.848,-131.834 134.108,-136.004 138.834,-141.167"/>
</g>
<!-- Node4 -->
<g id="node4" class="node"><title>Node4</title>
<polygon fill="white" stroke="#bfbfbf" points="77,-56.5 77,-75.5 118,-75.5 118,-56.5 77,-56.5"/>
<text text-anchor="middle" x="97.5" y="-63.5" font-family="Helvetica,sans-Serif" font-size="10.00">string</text>
</g>
<!-- Node3&#45;&gt;Node4 -->
<g id="edge3" class="edge"><title>Node3&#45;&gt;Node4</title>
<path fill="none" stroke="midnightblue" d="M144.503,-112.324C136.306,-104.42 123.994,-92.5482 114.028,-82.9377"/>
<polygon fill="midnightblue" stroke="midnightblue" points="116.289,-80.2558 106.661,-75.8339 111.43,-85.2947 116.289,-80.2558"/>
</g>
<!-- Node5 -->
<g id="node5" class="node"><title>Node5</title>
<g id="a_node5"><a xlink:href="classhelpers_8h.xhtml" target="_top" xlink:title="Declares common utility classes and macros. ">
<polygon fill="white" stroke="black" points="136.5,-56.5 136.5,-75.5 282.5,-75.5 282.5,-56.5 136.5,-56.5"/>
<text text-anchor="middle" x="209.5" y="-63.5" font-family="Helvetica,sans-Serif" font-size="10.00">gromacs/utility/classhelpers.h</text>
</a>
</g>
</g>
<!-- Node3&#45;&gt;Node5 -->
<g id="edge4" class="edge"><title>Node3&#45;&gt;Node5</title>
<path fill="none" stroke="midnightblue" d="M162.497,-112.324C170.694,-104.42 183.006,-92.5482 192.972,-82.9377"/>
<polygon fill="midnightblue" stroke="midnightblue" points="195.57,-85.2947 200.339,-75.8339 190.711,-80.2558 195.57,-85.2947"/>
</g>
<!-- Node6 -->
<g id="node6" class="node"><title>Node6</title>
<polygon fill="white" stroke="#bfbfbf" points="183.5,-0.5 183.5,-19.5 235.5,-19.5 235.5,-0.5 183.5,-0.5"/>
<text text-anchor="middle" x="209.5" y="-7.5" font-family="Helvetica,sans-Serif" font-size="10.00">memory</text>
</g>
<!-- Node5&#45;&gt;Node6 -->
<g id="edge5" class="edge"><title>Node5&#45;&gt;Node6</title>
<path fill="none" stroke="midnightblue" d="M209.5,-56.083C209.5,-49.0059 209.5,-38.8611 209.5,-29.9865"/>
<polygon fill="midnightblue" stroke="midnightblue" points="213,-29.751 209.5,-19.7511 206,-29.7511 213,-29.751"/>
</g>
</g>
</svg>
