<?xml version="1.0" encoding="UTF-8" standalone="no"?>
<!DOCTYPE svg PUBLIC "-//W3C//DTD SVG 1.1//EN"
 "http://www.w3.org/Graphics/SVG/1.1/DTD/svg11.dtd">
<!-- Generated by graphviz version 2.38.0 (20140413.2041)
 -->
<!-- Title: src/gromacs/mdtypes/md_enums.h Pages: 1 -->
<svg width="2845pt" height="307pt"
 viewBox="0.00 0.00 2844.50 307.00" xmlns="http://www.w3.org/2000/svg" xmlns:xlink="http://www.w3.org/1999/xlink">
<g id="graph0" class="graph" transform="scale(1 1) rotate(0) translate(4 303)">
<title>src/gromacs/mdtypes/md_enums.h</title>
<polygon fill="white" stroke="none" points="-4,4 -4,-303 2840.5,-303 2840.5,4 -4,4"/>
<!-- Node1 -->
<g id="node1" class="node"><title>Node1</title>
<polygon fill="#bfbfbf" stroke="black" points="1252.5,-268.5 1252.5,-298.5 1363.5,-298.5 1363.5,-268.5 1252.5,-268.5"/>
<text text-anchor="start" x="1260.5" y="-286.5" font-family="Helvetica,sans-Serif" font-size="10.00">src/gromacs/mdtypes</text>
<text text-anchor="middle" x="1308" y="-275.5" font-family="Helvetica,sans-Serif" font-size="10.00">/md_enums.h</text>
</g>
<!-- Node2 -->
<g id="node2" class="node"><title>Node2</title>
<g id="a_node2"><a xlink:href="pull-params_8h.xhtml" target="_top" xlink:title="This file contains datatypes for the mdp options used by the pull code. ">
<polygon fill="white" stroke="black" points="115.5,-201.5 115.5,-231.5 226.5,-231.5 226.5,-201.5 115.5,-201.5"/>
<text text-anchor="start" x="123.5" y="-219.5" font-family="Helvetica,sans-Serif" font-size="10.00">src/gromacs/mdtypes</text>
<text text-anchor="middle" x="171" y="-208.5" font-family="Helvetica,sans-Serif" font-size="10.00">/pull&#45;params.h</text>
</a>
</g>
</g>
<!-- Node1&#45;&gt;Node2 -->
<g id="edge1" class="edge"><title>Node1&#45;&gt;Node2</title>
<path fill="none" stroke="midnightblue" d="M1242.02,-281.192C1078.55,-277.533 641.741,-265.192 279,-232 261.95,-230.44 243.458,-228.171 226.674,-225.889"/>
<polygon fill="midnightblue" stroke="midnightblue" points="1242.32,-284.7 1252.39,-281.421 1242.47,-277.701 1242.32,-284.7"/>
</g>
<!-- Node4 -->
<g id="node4" class="node"><title>Node4</title>
<g id="a_node4"><a xlink:href="gmx__wham_8cpp.xhtml" target="_top" xlink:title="Implementation of the Weighted Histogram Analysis Method (WHAM) ">
<polygon fill="white" stroke="black" points="0,-0.5 0,-30.5 108,-30.5 108,-0.5 0,-0.5"/>
<text text-anchor="start" x="8" y="-18.5" font-family="Helvetica,sans-Serif" font-size="10.00">src/gromacs/gmxana</text>
<text text-anchor="middle" x="54" y="-7.5" font-family="Helvetica,sans-Serif" font-size="10.00">/gmx_wham.cpp</text>
</a>
</g>
</g>
<!-- Node1&#45;&gt;Node4 -->
<g id="edge16" class="edge"><title>Node1&#45;&gt;Node4</title>
<path fill="none" stroke="midnightblue" d="M1242.22,-281.911C997.312,-279.438 150.141,-268.283 106,-232 44.0094,-181.044 48.5023,-70.1422 52.3038,-30.7414"/>
<polygon fill="midnightblue" stroke="midnightblue" points="1242.36,-285.412 1252.39,-282.012 1242.43,-278.412 1242.36,-285.412"/>
</g>
<!-- Node6 -->
<g id="node6" class="node"><title>Node6</title>
<g id="a_node6"><a xlink:href="runner_8cpp.xhtml" target="_top" xlink:title="Implements the MD runner routine calling all integrators. ">
<polygon fill="white" stroke="black" points="246,-0.5 246,-30.5 350,-30.5 350,-0.5 246,-0.5"/>
<text text-anchor="start" x="254" y="-18.5" font-family="Helvetica,sans-Serif" font-size="10.00">src/programs/mdrun</text>
<text text-anchor="middle" x="298" y="-7.5" font-family="Helvetica,sans-Serif" font-size="10.00">/runner.cpp</text>
</a>
</g>
</g>
<!-- Node1&#45;&gt;Node6 -->
<g id="edge28" class="edge"><title>Node1&#45;&gt;Node6</title>
<path fill="none" stroke="midnightblue" d="M1242.03,-281.542C1025,-278.081 345.132,-264.665 312,-232 256.467,-177.251 281.933,-69.2053 293.435,-30.6131"/>
<polygon fill="midnightblue" stroke="midnightblue" points="1242.26,-285.046 1252.31,-281.704 1242.37,-278.047 1242.26,-285.046"/>
</g>
<!-- Node8 -->
<g id="node8" class="node"><title>Node8</title>
<g id="a_node8"><a xlink:href="domdec__setup_8cpp.xhtml" target="_top" xlink:title="This file defines functions used by the domdec module in its initial setup phase. ...">
<polygon fill="white" stroke="black" points="321,-201.5 321,-231.5 429,-231.5 429,-201.5 321,-201.5"/>
<text text-anchor="start" x="329" y="-219.5" font-family="Helvetica,sans-Serif" font-size="10.00">src/gromacs/domdec</text>
<text text-anchor="middle" x="375" y="-208.5" font-family="Helvetica,sans-Serif" font-size="10.00">/domdec_setup.cpp</text>
</a>
</g>
</g>
<!-- Node1&#45;&gt;Node8 -->
<g id="edge10" class="edge"><title>Node1&#45;&gt;Node8</title>
<path fill="none" stroke="midnightblue" d="M1242.17,-282.364C1096.62,-281.257 736.736,-274.086 439,-232 435.729,-231.538 432.377,-230.994 429.006,-230.393"/>
<polygon fill="midnightblue" stroke="midnightblue" points="1242.25,-285.864 1252.28,-282.433 1242.3,-278.865 1242.25,-285.864"/>
</g>
<!-- Node9 -->
<g id="node9" class="node"><title>Node9</title>
<g id="a_node9"><a xlink:href="domdec__topology_8cpp.xhtml" target="_top" xlink:title="This file defines functions used by the domdec module while managing the construction, use and error checking for topologies local to a DD rank. ">
<polygon fill="white" stroke="black" points="447.5,-201.5 447.5,-231.5 562.5,-231.5 562.5,-201.5 447.5,-201.5"/>
<text text-anchor="start" x="455.5" y="-219.5" font-family="Helvetica,sans-Serif" font-size="10.00">src/gromacs/domdec</text>
<text text-anchor="middle" x="505" y="-208.5" font-family="Helvetica,sans-Serif" font-size="10.00">/domdec_topology.cpp</text>
</a>
</g>
</g>
<!-- Node1&#45;&gt;Node9 -->
<g id="edge11" class="edge"><title>Node1&#45;&gt;Node9</title>
<path fill="none" stroke="midnightblue" d="M1242.2,-281.173C1113.08,-277.865 817.699,-266.83 572,-232 568.936,-231.566 565.804,-231.07 562.648,-230.53"/>
<polygon fill="midnightblue" stroke="midnightblue" points="1242.23,-284.674 1252.32,-281.425 1242.41,-277.677 1242.23,-284.674"/>
</g>
<!-- Node10 -->
<g id="node10" class="node"><title>Node10</title>
<g id="a_node10"><a xlink:href="ewald_8cpp.xhtml" target="_top" xlink:title="This file contains function definitions necessary for computing energies and forces for the plain&#45;Ewa...">
<polygon fill="white" stroke="black" points="581,-207 581,-226 727,-226 727,-207 581,-207"/>
<text text-anchor="middle" x="654" y="-214" font-family="Helvetica,sans-Serif" font-size="10.00">src/gromacs/ewald/ewald.cpp</text>
</a>
</g>
</g>
<!-- Node1&#45;&gt;Node10 -->
<g id="edge12" class="edge"><title>Node1&#45;&gt;Node10</title>
<path fill="none" stroke="midnightblue" d="M1242.04,-278.489C1135.52,-271.603 919.151,-255.922 737,-232 724.527,-230.362 711.067,-228.188 698.692,-226.023"/>
<polygon fill="midnightblue" stroke="midnightblue" points="1242.1,-282 1252.31,-279.148 1242.55,-275.015 1242.1,-282"/>
</g>
<!-- Node11 -->
<g id="node11" class="node"><title>Node11</title>
<g id="a_node11"><a xlink:href="pme-load-balancing_8cpp.xhtml" target="_top" xlink:title="This file contains function definitions necessary for managing automatic load balance of PME calculat...">
<polygon fill="white" stroke="black" points="745.5,-201.5 745.5,-231.5 866.5,-231.5 866.5,-201.5 745.5,-201.5"/>
<text text-anchor="start" x="753.5" y="-219.5" font-family="Helvetica,sans-Serif" font-size="10.00">src/gromacs/ewald/pme</text>
<text text-anchor="middle" x="806" y="-208.5" font-family="Helvetica,sans-Serif" font-size="10.00">&#45;load&#45;balancing.cpp</text>
</a>
</g>
</g>
<!-- Node1&#45;&gt;Node11 -->
<g id="edge13" class="edge"><title>Node1&#45;&gt;Node11</title>
<path fill="none" stroke="midnightblue" d="M1242.19,-276.622C1157.27,-268.622 1005.11,-252.878 876,-232 872.937,-231.505 869.805,-230.968 866.646,-230.402"/>
<polygon fill="midnightblue" stroke="midnightblue" points="1241.92,-280.112 1252.2,-277.559 1242.57,-273.142 1241.92,-280.112"/>
</g>
<!-- Node12 -->
<g id="node12" class="node"><title>Node12</title>
<g id="a_node12"><a xlink:href="pme-pp_8cpp.xhtml" target="_top" xlink:title="This file contains function definitions necessary for managing the offload of long&#45;ranged PME work to...">
<polygon fill="white" stroke="black" points="884.5,-201.5 884.5,-231.5 1005.5,-231.5 1005.5,-201.5 884.5,-201.5"/>
<text text-anchor="start" x="892.5" y="-219.5" font-family="Helvetica,sans-Serif" font-size="10.00">src/gromacs/ewald/pme</text>
<text text-anchor="middle" x="945" y="-208.5" font-family="Helvetica,sans-Serif" font-size="10.00">&#45;pp.cpp</text>
</a>
</g>
</g>
<!-- Node1&#45;&gt;Node12 -->
<g id="edge14" class="edge"><title>Node1&#45;&gt;Node12</title>
<path fill="none" stroke="midnightblue" d="M1242.27,-271.819C1182.81,-262.004 1092.9,-246.778 1015,-232 1011.95,-231.422 1008.83,-230.818 1005.68,-230.2"/>
<polygon fill="midnightblue" stroke="midnightblue" points="1241.84,-275.295 1252.27,-273.467 1242.98,-268.388 1241.84,-275.295"/>
</g>
<!-- Node13 -->
<g id="node13" class="node"><title>Node13</title>
<g id="a_node13"><a xlink:href="pme_8cpp.xhtml" target="_top" xlink:title="This file contains function definitions necessary for computing energies and forces for the PME long&#45;...">
<polygon fill="white" stroke="black" points="1024,-207 1024,-226 1164,-226 1164,-207 1024,-207"/>
<text text-anchor="middle" x="1094" y="-214" font-family="Helvetica,sans-Serif" font-size="10.00">src/gromacs/ewald/pme.cpp</text>
</a>
</g>
</g>
<!-- Node1&#45;&gt;Node13 -->
<g id="edge15" class="edge"><title>Node1&#45;&gt;Node13</title>
<path fill="none" stroke="midnightblue" d="M1252.06,-265.51C1210.3,-252.825 1154.98,-236.022 1122.08,-226.029"/>
<polygon fill="midnightblue" stroke="midnightblue" points="1251.24,-268.919 1261.83,-268.476 1253.28,-262.221 1251.24,-268.919"/>
</g>
<!-- Node14 -->
<g id="node14" class="node"><title>Node14</title>
<g id="a_node14"><a xlink:href="gpu__utils__ocl_8cpp.xhtml" target="_top" xlink:title="Define functions for detection and initialization for OpenCL devices. ">
<polygon fill="white" stroke="black" points="1182.5,-201.5 1182.5,-231.5 1295.5,-231.5 1295.5,-201.5 1182.5,-201.5"/>
<text text-anchor="start" x="1190.5" y="-219.5" font-family="Helvetica,sans-Serif" font-size="10.00">src/gromacs/gpu_utils</text>
<text text-anchor="middle" x="1239" y="-208.5" font-family="Helvetica,sans-Serif" font-size="10.00">/gpu_utils_ocl.cpp</text>
</a>
</g>
</g>
<!-- Node1&#45;&gt;Node14 -->
<g id="edge17" class="edge"><title>Node1&#45;&gt;Node14</title>
<path fill="none" stroke="midnightblue" d="M1285.51,-261.311C1275.16,-251.561 1263.16,-240.259 1253.94,-231.577"/>
<polygon fill="midnightblue" stroke="midnightblue" points="1283.35,-264.087 1293.03,-268.396 1288.15,-258.991 1283.35,-264.087"/>
</g>
<!-- Node15 -->
<g id="node15" class="node"><title>Node15</title>
<g id="a_node15"><a xlink:href="imd_8cpp.xhtml" target="_top" xlink:title="Implements functions of imd.h. ">
<polygon fill="white" stroke="black" points="1313.5,-207 1313.5,-226 1440.5,-226 1440.5,-207 1313.5,-207"/>
<text text-anchor="middle" x="1377" y="-214" font-family="Helvetica,sans-Serif" font-size="10.00">src/gromacs/imd/imd.cpp</text>
</a>
</g>
</g>
<!-- Node1&#45;&gt;Node15 -->
<g id="edge18" class="edge"><title>Node1&#45;&gt;Node15</title>
<path fill="none" stroke="midnightblue" d="M1330.47,-261.335C1343.14,-249.401 1358.28,-235.136 1367.77,-226.195"/>
<polygon fill="midnightblue" stroke="midnightblue" points="1327.85,-258.991 1322.97,-268.396 1332.65,-264.087 1327.85,-258.991"/>
</g>
<!-- Node16 -->
<g id="node16" class="node"><title>Node16</title>
<g id="a_node16"><a xlink:href="listed-forces_8cpp.xhtml" target="_top" xlink:title="This file defines high&#45;level functions for mdrun to compute energies and forces for listed interactio...">
<polygon fill="white" stroke="black" points="1459,-201.5 1459,-231.5 1581,-231.5 1581,-201.5 1459,-201.5"/>
<text text-anchor="start" x="1467" y="-219.5" font-family="Helvetica,sans-Serif" font-size="10.00">src/gromacs/listed</text>
<text text-anchor="middle" x="1520" y="-208.5" font-family="Helvetica,sans-Serif" font-size="10.00">&#45;forces/listed&#45;forces.cpp</text>
</a>
</g>
</g>
<!-- Node1&#45;&gt;Node16 -->
<g id="edge19" class="edge"><title>Node1&#45;&gt;Node16</title>
<path fill="none" stroke="midnightblue" d="M1363.63,-265.444C1397.99,-254.908 1441.56,-241.549 1473.98,-231.611"/>
<polygon fill="midnightblue" stroke="midnightblue" points="1362.27,-262.198 1353.74,-268.476 1364.33,-268.891 1362.27,-262.198"/>
</g>
<!-- Node17 -->
<g id="node17" class="node"><title>Node17</title>
<g id="a_node17"><a xlink:href="pairs_8cpp.xhtml" target="_top" xlink:title="This file defines functions for &quot;pair&quot; interactions (i.e. listed non&#45;bonded interactions, e.g. 1&#45;4 interactions) ">
<polygon fill="white" stroke="black" points="1599.5,-201.5 1599.5,-231.5 1696.5,-231.5 1696.5,-201.5 1599.5,-201.5"/>
<text text-anchor="start" x="1607.5" y="-219.5" font-family="Helvetica,sans-Serif" font-size="10.00">src/gromacs/listed</text>
<text text-anchor="middle" x="1648" y="-208.5" font-family="Helvetica,sans-Serif" font-size="10.00">&#45;forces/pairs.cpp</text>
</a>
</g>
</g>
<!-- Node1&#45;&gt;Node17 -->
<g id="edge20" class="edge"><title>Node1&#45;&gt;Node17</title>
<path fill="none" stroke="midnightblue" d="M1373.61,-272.045C1430.92,-262.604 1516.25,-247.803 1590,-232 1593.04,-231.348 1596.17,-230.649 1599.32,-229.924"/>
<polygon fill="midnightblue" stroke="midnightblue" points="1372.9,-268.614 1363.6,-273.686 1374.03,-275.522 1372.9,-268.614"/>
</g>
<!-- Node18 -->
<g id="node18" class="node"><title>Node18</title>
<g id="a_node18"><a xlink:href="position-restraints_8cpp.xhtml" target="_top" xlink:title="This file defines low&#45;level functions necessary for computing energies and forces for position restra...">
<polygon fill="white" stroke="black" points="1715,-201.5 1715,-231.5 1861,-231.5 1861,-201.5 1715,-201.5"/>
<text text-anchor="start" x="1723" y="-219.5" font-family="Helvetica,sans-Serif" font-size="10.00">src/gromacs/listed</text>
<text text-anchor="middle" x="1788" y="-208.5" font-family="Helvetica,sans-Serif" font-size="10.00">&#45;forces/position&#45;restraints.cpp</text>
</a>
</g>
</g>
<!-- Node1&#45;&gt;Node18 -->
<g id="edge21" class="edge"><title>Node1&#45;&gt;Node18</title>
<path fill="none" stroke="midnightblue" d="M1374.12,-275.111C1453.2,-266.043 1589.52,-249.678 1706,-232 1708.86,-231.566 1711.77,-231.112 1714.71,-230.642"/>
<polygon fill="midnightblue" stroke="midnightblue" points="1373.36,-271.676 1363.82,-276.288 1374.15,-278.63 1373.36,-271.676"/>
</g>
<!-- Node19 -->
<g id="node19" class="node"><title>Node19</title>
<g id="a_node19"><a xlink:href="minimize_8cpp.xhtml" target="_top" xlink:title="This file defines integrators for energy minimization. ">
<polygon fill="white" stroke="black" points="1879,-207 1879,-226 2037,-226 2037,-207 1879,-207"/>
<text text-anchor="middle" x="1958" y="-214" font-family="Helvetica,sans-Serif" font-size="10.00">src/gromacs/mdlib/minimize.cpp</text>
</a>
</g>
</g>
<!-- Node1&#45;&gt;Node19 -->
<g id="edge22" class="edge"><title>Node1&#45;&gt;Node19</title>
<path fill="none" stroke="midnightblue" d="M1373.72,-278.172C1478.81,-270.897 1691.07,-254.749 1870,-232 1883.06,-230.34 1897.14,-228.184 1910.14,-226.044"/>
<polygon fill="midnightblue" stroke="midnightblue" points="1373.32,-274.691 1363.59,-278.869 1373.8,-281.675 1373.32,-274.691"/>
</g>
<!-- Node20 -->
<g id="node20" class="node"><title>Node20</title>
<g id="a_node20"><a xlink:href="nbnxn__ocl__data__mgmt_8cpp.xhtml" target="_top" xlink:title="Define OpenCL implementation of nbnxn_gpu_data_mgmt.h. ">
<polygon fill="white" stroke="black" points="2055.5,-201.5 2055.5,-231.5 2210.5,-231.5 2210.5,-201.5 2055.5,-201.5"/>
<text text-anchor="start" x="2063.5" y="-219.5" font-family="Helvetica,sans-Serif" font-size="10.00">src/gromacs/mdlib/nbnxn</text>
<text text-anchor="middle" x="2133" y="-208.5" font-family="Helvetica,sans-Serif" font-size="10.00">_ocl/nbnxn_ocl_data_mgmt.cpp</text>
</a>
</g>
</g>
<!-- Node1&#45;&gt;Node20 -->
<g id="edge23" class="edge"><title>Node1&#45;&gt;Node20</title>
<path fill="none" stroke="midnightblue" d="M1373.85,-280.135C1503.08,-275.021 1798.87,-260.981 2046,-232 2049.04,-231.643 2052.14,-231.254 2055.26,-230.839"/>
<polygon fill="midnightblue" stroke="midnightblue" points="1373.57,-276.643 1363.72,-280.531 1373.85,-283.638 1373.57,-276.643"/>
</g>
<!-- Node21 -->
<g id="node21" class="node"><title>Node21</title>
<g id="a_node21"><a xlink:href="nbnxn__ocl__jit__support_8cpp.xhtml" target="_top" xlink:title="Defines functions that support JIT compilation (e.g. for OpenCL) ">
<polygon fill="white" stroke="black" points="2228.5,-201.5 2228.5,-231.5 2379.5,-231.5 2379.5,-201.5 2228.5,-201.5"/>
<text text-anchor="start" x="2236.5" y="-219.5" font-family="Helvetica,sans-Serif" font-size="10.00">src/gromacs/mdlib/nbnxn</text>
<text text-anchor="middle" x="2304" y="-208.5" font-family="Helvetica,sans-Serif" font-size="10.00">_ocl/nbnxn_ocl_jit_support.cpp</text>
</a>
</g>
</g>
<!-- Node1&#45;&gt;Node21 -->
<g id="edge24" class="edge"><title>Node1&#45;&gt;Node21</title>
<path fill="none" stroke="midnightblue" d="M1374.15,-281.456C1524.75,-278.507 1904.57,-267.836 2220,-232 2222.65,-231.699 2225.34,-231.369 2228.05,-231.015"/>
<polygon fill="midnightblue" stroke="midnightblue" points="1373.64,-277.965 1363.71,-281.655 1373.77,-284.964 1373.64,-277.965"/>
</g>
<!-- Node22 -->
<g id="node22" class="node"><title>Node22</title>
<g id="a_node22"><a xlink:href="tpi_8cpp.xhtml" target="_top" xlink:title="This file defines the integrator for test particle insertion. ">
<polygon fill="white" stroke="black" points="2397.5,-207 2397.5,-226 2526.5,-226 2526.5,-207 2397.5,-207"/>
<text text-anchor="middle" x="2462" y="-214" font-family="Helvetica,sans-Serif" font-size="10.00">src/gromacs/mdlib/tpi.cpp</text>
</a>
</g>
</g>
<!-- Node1&#45;&gt;Node22 -->
<g id="edge25" class="edge"><title>Node1&#45;&gt;Node22</title>
<path fill="none" stroke="midnightblue" d="M1373.89,-282.838C1543.11,-282.968 2006.53,-278.653 2389,-232 2400.67,-230.576 2413.27,-228.333 2424.66,-226.032"/>
<polygon fill="midnightblue" stroke="midnightblue" points="1373.66,-279.338 1363.65,-282.825 1373.65,-286.338 1373.66,-279.338"/>
</g>
<!-- Node23 -->
<g id="node23" class="node"><title>Node23</title>
<g id="a_node23"><a xlink:href="boxutilities_8cpp.xhtml" target="_top" xlink:title="Implements routines in boxutilities.h. ">
<polygon fill="white" stroke="black" points="2545,-201.5 2545,-231.5 2647,-231.5 2647,-201.5 2545,-201.5"/>
<text text-anchor="start" x="2553" y="-219.5" font-family="Helvetica,sans-Serif" font-size="10.00">src/gromacs/pbcutil</text>
<text text-anchor="middle" x="2596" y="-208.5" font-family="Helvetica,sans-Serif" font-size="10.00">/boxutilities.cpp</text>
</a>
</g>
</g>
<!-- Node1&#45;&gt;Node23 -->
<g id="edge26" class="edge"><title>Node1&#45;&gt;Node23</title>
<path fill="none" stroke="midnightblue" d="M1373.9,-281.493C1594.88,-277.851 2308.49,-263.855 2536,-232 2538.87,-231.599 2541.79,-231.121 2544.74,-230.587"/>
<polygon fill="midnightblue" stroke="midnightblue" points="1373.69,-277.996 1363.75,-281.659 1373.81,-284.995 1373.69,-277.996"/>
</g>
<!-- Node24 -->
<g id="node24" class="node"><title>Node24</title>
<g id="a_node24"><a xlink:href="gromacs_2swap_2swapcoords_8cpp.xhtml" target="_top" xlink:title="Implements functions in swapcoords.h. ">
<polygon fill="white" stroke="black" points="2665.5,-207 2665.5,-226 2836.5,-226 2836.5,-207 2665.5,-207"/>
<text text-anchor="middle" x="2751" y="-214" font-family="Helvetica,sans-Serif" font-size="10.00">src/gromacs/swap/swapcoords.cpp</text>
</a>
</g>
</g>
<!-- Node1&#45;&gt;Node24 -->
<g id="edge27" class="edge"><title>Node1&#45;&gt;Node24</title>
<path fill="none" stroke="midnightblue" d="M1373.8,-282.687C1569.53,-282.676 2164.97,-278.518 2656,-232 2671.11,-230.568 2687.49,-228.322 2702.31,-226.021"/>
<polygon fill="midnightblue" stroke="midnightblue" points="1373.68,-279.188 1363.68,-282.684 1373.68,-286.188 1373.68,-279.188"/>
</g>
<!-- Node3 -->
<g id="node3" class="node"><title>Node3</title>
<g id="a_node3"><a xlink:href="pull_8h.xhtml" target="_top" xlink:title="This file contains datatypes and function declarations necessary for mdrun to interface with the pull...">
<polygon fill="white" stroke="black" points="120.5,-67.5 120.5,-97.5 221.5,-97.5 221.5,-67.5 120.5,-67.5"/>
<text text-anchor="start" x="128.5" y="-85.5" font-family="Helvetica,sans-Serif" font-size="10.00">src/gromacs/pulling</text>
<text text-anchor="middle" x="171" y="-74.5" font-family="Helvetica,sans-Serif" font-size="10.00">/pull.h</text>
</a>
</g>
</g>
<!-- Node2&#45;&gt;Node3 -->
<g id="edge2" class="edge"><title>Node2&#45;&gt;Node3</title>
<path fill="none" stroke="midnightblue" d="M161.251,-191.787C158.307,-183.465 155.467,-173.957 154,-165 151.773,-151.403 151.773,-147.597 154,-134 156.064,-121.402 160.842,-107.711 164.809,-97.7671"/>
<polygon fill="midnightblue" stroke="midnightblue" points="158.009,-193.109 164.809,-201.233 164.559,-190.641 158.009,-193.109"/>
</g>
<!-- Node2&#45;&gt;Node4 -->
<g id="edge9" class="edge"><title>Node2&#45;&gt;Node4</title>
<path fill="none" stroke="midnightblue" d="M157.375,-192.326C132.924,-150.737 82.2875,-64.613 62.3381,-30.6819"/>
<polygon fill="midnightblue" stroke="midnightblue" points="154.5,-194.342 162.586,-201.188 160.534,-190.794 154.5,-194.342"/>
</g>
<!-- Node7 -->
<g id="node7" class="node"><title>Node7</title>
<g id="a_node7"><a xlink:href="pull__internal_8h.xhtml" target="_top" xlink:title="This file contains datatypes and function declarations for internal use in the pull code...">
<polygon fill="white" stroke="black" points="163.5,-134.5 163.5,-164.5 264.5,-164.5 264.5,-134.5 163.5,-134.5"/>
<text text-anchor="start" x="171.5" y="-152.5" font-family="Helvetica,sans-Serif" font-size="10.00">src/gromacs/pulling</text>
<text text-anchor="middle" x="214" y="-141.5" font-family="Helvetica,sans-Serif" font-size="10.00">/pull_internal.h</text>
</a>
</g>
</g>
<!-- Node2&#45;&gt;Node7 -->
<g id="edge6" class="edge"><title>Node2&#45;&gt;Node7</title>
<path fill="none" stroke="midnightblue" d="M185.973,-192.867C192.196,-183.459 199.226,-172.833 204.688,-164.577"/>
<polygon fill="midnightblue" stroke="midnightblue" points="182.929,-191.125 180.33,-201.396 188.767,-194.987 182.929,-191.125"/>
</g>
<!-- Node3&#45;&gt;Node4 -->
<g id="edge3" class="edge"><title>Node3&#45;&gt;Node4</title>
<path fill="none" stroke="midnightblue" d="M136.684,-62.4354C118.327,-52.2374 96.1154,-39.8975 79.3377,-30.5765"/>
<polygon fill="midnightblue" stroke="midnightblue" points="135.171,-65.599 145.613,-67.396 138.571,-59.4799 135.171,-65.599"/>
</g>
<!-- Node5 -->
<g id="node5" class="node"><title>Node5</title>
<g id="a_node5"><a xlink:href="tests_2pull_8cpp.xhtml" target="_top" xlink:title="Implements test of some pulling routines. ">
<polygon fill="white" stroke="black" points="126.5,-0.5 126.5,-30.5 227.5,-30.5 227.5,-0.5 126.5,-0.5"/>
<text text-anchor="start" x="134.5" y="-18.5" font-family="Helvetica,sans-Serif" font-size="10.00">src/gromacs/pulling</text>
<text text-anchor="middle" x="177" y="-7.5" font-family="Helvetica,sans-Serif" font-size="10.00">/tests/pull.cpp</text>
</a>
</g>
</g>
<!-- Node3&#45;&gt;Node5 -->
<g id="edge4" class="edge"><title>Node3&#45;&gt;Node5</title>
<path fill="none" stroke="midnightblue" d="M173.224,-57.4029C174.058,-48.3703 174.978,-38.4078 175.701,-30.5765"/>
<polygon fill="midnightblue" stroke="midnightblue" points="169.736,-57.1166 172.302,-67.396 176.706,-57.76 169.736,-57.1166"/>
</g>
<!-- Node3&#45;&gt;Node6 -->
<g id="edge5" class="edge"><title>Node3&#45;&gt;Node6</title>
<path fill="none" stroke="midnightblue" d="M207.704,-62.7143C227.734,-52.4631 252.119,-39.9826 270.497,-30.5765"/>
<polygon fill="midnightblue" stroke="midnightblue" points="205.864,-59.7242 198.557,-67.396 209.054,-65.9555 205.864,-59.7242"/>
</g>
<!-- Node7&#45;&gt;Node3 -->
<g id="edge7" class="edge"><title>Node7&#45;&gt;Node3</title>
<path fill="none" stroke="midnightblue" d="M199.027,-125.867C192.804,-116.459 185.774,-105.833 180.312,-97.5765"/>
<polygon fill="midnightblue" stroke="midnightblue" points="196.233,-127.987 204.67,-134.396 202.071,-124.125 196.233,-127.987"/>
</g>
<!-- Node7&#45;&gt;Node5 -->
<g id="edge8" class="edge"><title>Node7&#45;&gt;Node5</title>
<path fill="none" stroke="midnightblue" d="M225.782,-124.877C232.423,-108.175 237.947,-85.5496 230,-67 223.593,-52.0464 210.343,-39.4214 198.695,-30.5348"/>
<polygon fill="midnightblue" stroke="midnightblue" points="222.409,-123.856 221.613,-134.421 228.823,-126.658 222.409,-123.856"/>
</g>
</g>
</svg>
