<?xml version="1.0" encoding="UTF-8" standalone="no"?>
<!DOCTYPE svg PUBLIC "-//W3C//DTD SVG 1.1//EN"
 "http://www.w3.org/Graphics/SVG/1.1/DTD/svg11.dtd">
<!-- Generated by graphviz version 2.38.0 (20140413.2041)
 -->
<!-- Title: src/gromacs/onlinehelp/tests/mock_helptopic.cpp Pages: 1 -->
<svg width="508pt" height="285pt"
 viewBox="0.00 0.00 507.60 285.00" xmlns="http://www.w3.org/2000/svg" xmlns:xlink="http://www.w3.org/1999/xlink">
<g id="graph0" class="graph" transform="scale(1 1) rotate(0) translate(4 281)">
<title>src/gromacs/onlinehelp/tests/mock_helptopic.cpp</title>
<polygon fill="white" stroke="none" points="-4,4 -4,-281 503.6,-281 503.6,4 -4,4"/>
<!-- Node1 -->
<g id="node1" class="node"><title>Node1</title>
<polygon fill="#bfbfbf" stroke="black" points="190.1,-246.5 190.1,-276.5 321.1,-276.5 321.1,-246.5 190.1,-246.5"/>
<text text-anchor="start" x="198.1" y="-264.5" font-family="Helvetica,sans-Serif" font-size="10.00">src/gromacs/onlinehelp</text>
<text text-anchor="middle" x="255.6" y="-253.5" font-family="Helvetica,sans-Serif" font-size="10.00">/tests/mock_helptopic.cpp</text>
</g>
<!-- Node2 -->
<g id="node2" class="node"><title>Node2</title>
<g id="a_node2"><a xlink:href="gmxpre_8h.xhtml" target="_top" xlink:title="Prerequisite header file for GROMACS build. ">
<polygon fill="white" stroke="black" points="95.0998,-190.5 95.0998,-209.5 152.1,-209.5 152.1,-190.5 95.0998,-190.5"/>
<text text-anchor="middle" x="123.6" y="-197.5" font-family="Helvetica,sans-Serif" font-size="10.00">gmxpre.h</text>
</a>
</g>
</g>
<!-- Node1&#45;&gt;Node2 -->
<g id="edge1" class="edge"><title>Node1&#45;&gt;Node2</title>
<path fill="none" stroke="midnightblue" d="M224.318,-246.399C202.368,-236.505 173.257,-223.383 151.978,-213.792"/>
<polygon fill="midnightblue" stroke="midnightblue" points="153.362,-210.576 142.807,-209.658 150.485,-216.958 153.362,-210.576"/>
</g>
<!-- Node3 -->
<g id="node3" class="node"><title>Node3</title>
<g id="a_node3"><a xlink:href="mock__helptopic_8h.xhtml" target="_top" xlink:title="Declares mock implementation of gmx::IHelpTopic. ">
<polygon fill="white" stroke="black" points="209.1,-190.5 209.1,-209.5 302.1,-209.5 302.1,-190.5 209.1,-190.5"/>
<text text-anchor="middle" x="255.6" y="-197.5" font-family="Helvetica,sans-Serif" font-size="10.00">mock_helptopic.h</text>
</a>
</g>
</g>
<!-- Node1&#45;&gt;Node3 -->
<g id="edge2" class="edge"><title>Node1&#45;&gt;Node3</title>
<path fill="none" stroke="midnightblue" d="M255.6,-246.399C255.6,-238.466 255.6,-228.458 255.6,-219.858"/>
<polygon fill="midnightblue" stroke="midnightblue" points="259.1,-219.658 255.6,-209.658 252.1,-219.658 259.1,-219.658"/>
</g>
<!-- Node4 -->
<g id="node4" class="node"><title>Node4</title>
<polygon fill="white" stroke="#bfbfbf" points="40.5998,-129 40.5998,-148 126.6,-148 126.6,-129 40.5998,-129"/>
<text text-anchor="middle" x="83.5998" y="-136" font-family="Helvetica,sans-Serif" font-size="10.00">gmock/gmock.h</text>
</g>
<!-- Node1&#45;&gt;Node4 -->
<g id="edge18" class="edge"><title>Node1&#45;&gt;Node4</title>
<path fill="none" stroke="midnightblue" d="M237.263,-246.4C218.298,-231.933 187.713,-208.928 160.6,-190 142.471,-177.344 121.458,-163.625 105.967,-153.684"/>
<polygon fill="midnightblue" stroke="midnightblue" points="107.422,-150.46 97.111,-148.026 103.654,-156.359 107.422,-150.46"/>
</g>
<!-- Node9 -->
<g id="node9" class="node"><title>Node9</title>
<g id="a_node9"><a xlink:href="stringutil_8h.xhtml" target="_top" xlink:title="Declares common string utility and formatting routines. ">
<polygon fill="white" stroke="black" points="336.6,-62 336.6,-81 464.6,-81 464.6,-62 336.6,-62"/>
<text text-anchor="middle" x="400.6" y="-69" font-family="Helvetica,sans-Serif" font-size="10.00">gromacs/utility/stringutil.h</text>
</a>
</g>
</g>
<!-- Node1&#45;&gt;Node9 -->
<g id="edge20" class="edge"><title>Node1&#45;&gt;Node9</title>
<path fill="none" stroke="midnightblue" d="M277.985,-246.326C304.955,-228.126 349.845,-194.068 375.6,-154 388.073,-134.596 394.625,-108.61 397.842,-91.2485"/>
<polygon fill="midnightblue" stroke="midnightblue" points="401.318,-91.6795 399.503,-81.2413 394.413,-90.5329 401.318,-91.6795"/>
</g>
<!-- Node14 -->
<g id="node14" class="node"><title>Node14</title>
<polygon fill="white" stroke="#bfbfbf" points="423.1,-190.5 423.1,-209.5 494.1,-209.5 494.1,-190.5 423.1,-190.5"/>
<text text-anchor="middle" x="458.6" y="-197.5" font-family="Helvetica,sans-Serif" font-size="10.00">gtest/gtest.h</text>
</g>
<!-- Node1&#45;&gt;Node14 -->
<g id="edge19" class="edge"><title>Node1&#45;&gt;Node14</title>
<path fill="none" stroke="midnightblue" d="M303.451,-246.475C338.931,-236.075 386.685,-222.078 419.801,-212.372"/>
<polygon fill="midnightblue" stroke="midnightblue" points="420.966,-215.678 429.578,-209.506 418.997,-208.96 420.966,-215.678"/>
</g>
<!-- Node3&#45;&gt;Node4 -->
<g id="edge3" class="edge"><title>Node3&#45;&gt;Node4</title>
<path fill="none" stroke="midnightblue" d="M230.956,-190.475C201.325,-180.225 151.415,-162.959 117.998,-151.399"/>
<polygon fill="midnightblue" stroke="midnightblue" points="118.792,-147.971 108.197,-148.009 116.504,-154.586 118.792,-147.971"/>
</g>
<!-- Node5 -->
<g id="node5" class="node"><title>Node5</title>
<g id="a_node5"><a xlink:href="helptopic_8h.xhtml" target="_top" xlink:title="Declares helper classes for implementing gmx::IHelpTopic. ">
<polygon fill="white" stroke="black" points="145.1,-123.5 145.1,-153.5 246.1,-153.5 246.1,-123.5 145.1,-123.5"/>
<text text-anchor="start" x="153.1" y="-141.5" font-family="Helvetica,sans-Serif" font-size="10.00">gromacs/onlinehelp</text>
<text text-anchor="middle" x="195.6" y="-130.5" font-family="Helvetica,sans-Serif" font-size="10.00">/helptopic.h</text>
</a>
</g>
</g>
<!-- Node3&#45;&gt;Node5 -->
<g id="edge4" class="edge"><title>Node3&#45;&gt;Node5</title>
<path fill="none" stroke="midnightblue" d="M247.003,-190.475C239.181,-182.718 227.307,-170.943 216.942,-160.665"/>
<polygon fill="midnightblue" stroke="midnightblue" points="219.306,-158.079 209.741,-153.523 214.377,-163.05 219.306,-158.079"/>
</g>
<!-- Node13 -->
<g id="node13" class="node"><title>Node13</title>
<g id="a_node13"><a xlink:href="helpwritercontext_8h.xhtml" target="_top" xlink:title="Declares gmx::HelpWriterContext. ">
<polygon fill="white" stroke="black" points="264.6,-123.5 264.6,-153.5 366.6,-153.5 366.6,-123.5 264.6,-123.5"/>
<text text-anchor="start" x="272.6" y="-141.5" font-family="Helvetica,sans-Serif" font-size="10.00">gromacs/onlinehelp</text>
<text text-anchor="middle" x="315.6" y="-130.5" font-family="Helvetica,sans-Serif" font-size="10.00">/helpwritercontext.h</text>
</a>
</g>
</g>
<!-- Node3&#45;&gt;Node13 -->
<g id="edge14" class="edge"><title>Node3&#45;&gt;Node13</title>
<path fill="none" stroke="midnightblue" d="M264.196,-190.475C272.019,-182.718 283.892,-170.943 294.257,-160.665"/>
<polygon fill="midnightblue" stroke="midnightblue" points="296.823,-163.05 301.459,-153.523 291.894,-158.079 296.823,-163.05"/>
</g>
<!-- Node6 -->
<g id="node6" class="node"><title>Node6</title>
<polygon fill="white" stroke="#bfbfbf" points="39.5998,-0.5 39.5998,-19.5 91.5998,-19.5 91.5998,-0.5 39.5998,-0.5"/>
<text text-anchor="middle" x="65.5998" y="-7.5" font-family="Helvetica,sans-Serif" font-size="10.00">memory</text>
</g>
<!-- Node5&#45;&gt;Node6 -->
<g id="edge5" class="edge"><title>Node5&#45;&gt;Node6</title>
<path fill="none" stroke="midnightblue" d="M144.951,-124.833C89.4115,-110.826 7.79084,-89.8495 5.5998,-87 -2.79859,-76.0778 -0.561809,-68.3232 5.5998,-56 12.3282,-42.5432 25.2061,-32.0665 37.3115,-24.6212"/>
<polygon fill="midnightblue" stroke="midnightblue" points="39.333,-27.4985 46.3034,-19.5195 35.8786,-21.4101 39.333,-27.4985"/>
</g>
<!-- Node7 -->
<g id="node7" class="node"><title>Node7</title>
<g id="a_node7"><a xlink:href="ihelptopic_8h.xhtml" target="_top" xlink:title="Declares gmx::IHelpTopic. ">
<polygon fill="white" stroke="black" points="15.0998,-56.5 15.0998,-86.5 116.1,-86.5 116.1,-56.5 15.0998,-56.5"/>
<text text-anchor="start" x="23.0998" y="-74.5" font-family="Helvetica,sans-Serif" font-size="10.00">gromacs/onlinehelp</text>
<text text-anchor="middle" x="65.5998" y="-63.5" font-family="Helvetica,sans-Serif" font-size="10.00">/ihelptopic.h</text>
</a>
</g>
</g>
<!-- Node5&#45;&gt;Node7 -->
<g id="edge6" class="edge"><title>Node5&#45;&gt;Node7</title>
<path fill="none" stroke="midnightblue" d="M167.392,-123.396C148.482,-113.941 123.379,-101.39 102.833,-91.1168"/>
<polygon fill="midnightblue" stroke="midnightblue" points="104.262,-87.9182 93.7528,-86.5765 101.132,-94.1792 104.262,-87.9182"/>
</g>
<!-- Node8 -->
<g id="node8" class="node"><title>Node8</title>
<g id="a_node8"><a xlink:href="classhelpers_8h.xhtml" target="_top" xlink:title="Declares common utility classes and macros. ">
<polygon fill="white" stroke="black" points="134.6,-62 134.6,-81 280.6,-81 280.6,-62 134.6,-62"/>
<text text-anchor="middle" x="207.6" y="-69" font-family="Helvetica,sans-Serif" font-size="10.00">gromacs/utility/classhelpers.h</text>
</a>
</g>
</g>
<!-- Node5&#45;&gt;Node8 -->
<g id="edge8" class="edge"><title>Node5&#45;&gt;Node8</title>
<path fill="none" stroke="midnightblue" d="M198.204,-123.396C199.945,-113.963 202.255,-101.448 204.15,-91.1891"/>
<polygon fill="midnightblue" stroke="midnightblue" points="207.621,-91.6638 205.995,-81.1945 200.737,-90.3929 207.621,-91.6638"/>
</g>
<!-- Node5&#45;&gt;Node9 -->
<g id="edge10" class="edge"><title>Node5&#45;&gt;Node9</title>
<path fill="none" stroke="midnightblue" d="M239.829,-123.476C276.896,-111.723 329.186,-95.1433 363.951,-84.1205"/>
<polygon fill="midnightblue" stroke="midnightblue" points="365.227,-87.3875 373.702,-81.0287 363.112,-80.7149 365.227,-87.3875"/>
</g>
<!-- Node7&#45;&gt;Node6 -->
<g id="edge7" class="edge"><title>Node7&#45;&gt;Node6</title>
<path fill="none" stroke="midnightblue" d="M65.5998,-56.3993C65.5998,-48.4664 65.5998,-38.458 65.5998,-29.8583"/>
<polygon fill="midnightblue" stroke="midnightblue" points="69.0999,-29.6577 65.5998,-19.6578 62.0999,-29.6578 69.0999,-29.6577"/>
</g>
<!-- Node8&#45;&gt;Node6 -->
<g id="edge9" class="edge"><title>Node8&#45;&gt;Node6</title>
<path fill="none" stroke="midnightblue" d="M187.255,-61.9751C163.213,-51.9013 123.002,-35.0525 95.4373,-23.5023"/>
<polygon fill="midnightblue" stroke="midnightblue" points="96.4829,-20.1457 85.9072,-19.5091 93.7776,-26.6018 96.4829,-20.1457"/>
</g>
<!-- Node10 -->
<g id="node10" class="node"><title>Node10</title>
<polygon fill="white" stroke="#bfbfbf" points="377.6,-0.5 377.6,-19.5 423.6,-19.5 423.6,-0.5 377.6,-0.5"/>
<text text-anchor="middle" x="400.6" y="-7.5" font-family="Helvetica,sans-Serif" font-size="10.00">cstring</text>
</g>
<!-- Node9&#45;&gt;Node10 -->
<g id="edge11" class="edge"><title>Node9&#45;&gt;Node10</title>
<path fill="none" stroke="midnightblue" d="M400.6,-61.9751C400.6,-53.5803 400.6,-40.4806 400.6,-29.6631"/>
<polygon fill="midnightblue" stroke="midnightblue" points="404.1,-29.5091 400.6,-19.5091 397.1,-29.5091 404.1,-29.5091"/>
</g>
<!-- Node11 -->
<g id="node11" class="node"><title>Node11</title>
<polygon fill="white" stroke="#bfbfbf" points="303.1,-0.5 303.1,-19.5 344.1,-19.5 344.1,-0.5 303.1,-0.5"/>
<text text-anchor="middle" x="323.6" y="-7.5" font-family="Helvetica,sans-Serif" font-size="10.00">string</text>
</g>
<!-- Node9&#45;&gt;Node11 -->
<g id="edge12" class="edge"><title>Node9&#45;&gt;Node11</title>
<path fill="none" stroke="midnightblue" d="M389.568,-61.9751C377.331,-52.5199 357.371,-37.0961 342.607,-25.6871"/>
<polygon fill="midnightblue" stroke="midnightblue" points="344.665,-22.8541 334.612,-19.5091 340.384,-28.3931 344.665,-22.8541"/>
</g>
<!-- Node12 -->
<g id="node12" class="node"><title>Node12</title>
<polygon fill="white" stroke="#bfbfbf" points="455.6,-0.5 455.6,-19.5 499.6,-19.5 499.6,-0.5 455.6,-0.5"/>
<text text-anchor="middle" x="477.6" y="-7.5" font-family="Helvetica,sans-Serif" font-size="10.00">vector</text>
</g>
<!-- Node9&#45;&gt;Node12 -->
<g id="edge13" class="edge"><title>Node9&#45;&gt;Node12</title>
<path fill="none" stroke="midnightblue" d="M411.632,-61.9751C423.868,-52.5199 443.828,-37.0961 458.593,-25.6871"/>
<polygon fill="midnightblue" stroke="midnightblue" points="460.815,-28.3931 466.588,-19.5091 456.535,-22.8541 460.815,-28.3931"/>
</g>
<!-- Node13&#45;&gt;Node8 -->
<g id="edge17" class="edge"><title>Node13&#45;&gt;Node8</title>
<path fill="none" stroke="midnightblue" d="M292.165,-123.396C273.886,-112.395 248.64,-97.2002 230.499,-86.2819"/>
<polygon fill="midnightblue" stroke="midnightblue" points="232.107,-83.1649 221.735,-81.007 228.498,-89.1624 232.107,-83.1649"/>
</g>
<!-- Node13&#45;&gt;Node11 -->
<g id="edge15" class="edge"><title>Node13&#45;&gt;Node11</title>
<path fill="none" stroke="midnightblue" d="M316.487,-123.479C317.926,-100.719 320.773,-55.7023 322.395,-30.0582"/>
<polygon fill="midnightblue" stroke="midnightblue" points="325.906,-29.9895 323.044,-19.7885 318.92,-29.5477 325.906,-29.9895"/>
</g>
<!-- Node13&#45;&gt;Node12 -->
<g id="edge16" class="edge"><title>Node13&#45;&gt;Node12</title>
<path fill="none" stroke="midnightblue" d="M366.833,-135.639C402.743,-131.376 448.625,-119.38 473.6,-87 486.057,-70.8491 484.945,-46.5403 482.099,-29.7856"/>
<polygon fill="midnightblue" stroke="midnightblue" points="485.443,-28.6738 479.997,-19.5861 478.587,-30.0868 485.443,-28.6738"/>
</g>
</g>
</svg>
