<?xml version="1.0" encoding="UTF-8" standalone="no"?>
<!DOCTYPE svg PUBLIC "-//W3C//DTD SVG 1.1//EN"
 "http://www.w3.org/Graphics/SVG/1.1/DTD/svg11.dtd">
<!-- Generated by graphviz version 2.38.0 (20140413.2041)
 -->
<!-- Title: src/gromacs/analysisdata/modules/histogram.cpp Pages: 1 -->
<svg width="2111pt" height="475pt"
 viewBox="0.00 0.00 2110.57 475.00" xmlns="http://www.w3.org/2000/svg" xmlns:xlink="http://www.w3.org/1999/xlink">
<g id="graph0" class="graph" transform="scale(1 1) rotate(0) translate(4 471)">
<title>src/gromacs/analysisdata/modules/histogram.cpp</title>
<polygon fill="white" stroke="none" points="-4,4 -4,-471 2106.57,-471 2106.57,4 -4,4"/>
<!-- Node1 -->
<g id="node1" class="node"><title>Node1</title>
<polygon fill="#bfbfbf" stroke="black" points="1134.57,-436.5 1134.57,-466.5 1262.57,-466.5 1262.57,-436.5 1134.57,-436.5"/>
<text text-anchor="start" x="1142.57" y="-454.5" font-family="Helvetica,sans-Serif" font-size="10.00">src/gromacs/analysisdata</text>
<text text-anchor="middle" x="1198.57" y="-443.5" font-family="Helvetica,sans-Serif" font-size="10.00">/modules/histogram.cpp</text>
</g>
<!-- Node2 -->
<g id="node2" class="node"><title>Node2</title>
<g id="a_node2"><a xlink:href="gmxpre_8h.xhtml" target="_top" xlink:title="Prerequisite header file for GROMACS build. ">
<polygon fill="white" stroke="black" points="383.074,-380.5 383.074,-399.5 440.074,-399.5 440.074,-380.5 383.074,-380.5"/>
<text text-anchor="middle" x="411.574" y="-387.5" font-family="Helvetica,sans-Serif" font-size="10.00">gmxpre.h</text>
</a>
</g>
</g>
<!-- Node1&#45;&gt;Node2 -->
<g id="edge1" class="edge"><title>Node1&#45;&gt;Node2</title>
<path fill="none" stroke="midnightblue" d="M1134.56,-449.74C1006.34,-447.446 708.866,-438.25 450.073,-399.79"/>
<polygon fill="midnightblue" stroke="midnightblue" points="450.518,-396.318 440.109,-398.292 449.477,-403.24 450.518,-396.318"/>
</g>
<!-- Node3 -->
<g id="node3" class="node"><title>Node3</title>
<g id="a_node3"><a xlink:href="histogram_8h.xhtml" target="_top" xlink:title="Declares analysis data modules for calculating histograms. ">
<polygon fill="white" stroke="black" points="458.574,-380.5 458.574,-399.5 526.574,-399.5 526.574,-380.5 458.574,-380.5"/>
<text text-anchor="middle" x="492.574" y="-387.5" font-family="Helvetica,sans-Serif" font-size="10.00">histogram.h</text>
</a>
</g>
</g>
<!-- Node1&#45;&gt;Node3 -->
<g id="edge2" class="edge"><title>Node1&#45;&gt;Node3</title>
<path fill="none" stroke="midnightblue" d="M1134.36,-445.088C992.834,-433.161 657.067,-404.863 536.571,-394.708"/>
<polygon fill="midnightblue" stroke="midnightblue" points="536.852,-391.219 526.594,-393.867 536.264,-398.195 536.852,-391.219"/>
</g>
<!-- Node8 -->
<g id="node8" class="node"><title>Node8</title>
<polygon fill="white" stroke="#bfbfbf" points="1380.57,-123.5 1380.57,-142.5 1424.57,-142.5 1424.57,-123.5 1380.57,-123.5"/>
<text text-anchor="middle" x="1402.57" y="-130.5" font-family="Helvetica,sans-Serif" font-size="10.00">vector</text>
</g>
<!-- Node1&#45;&gt;Node8 -->
<g id="edge31" class="edge"><title>Node1&#45;&gt;Node8</title>
<path fill="none" stroke="midnightblue" d="M1262.81,-449.782C1345.48,-445.069 1478.57,-422.967 1478.57,-329.5 1478.57,-329.5 1478.57,-329.5 1478.57,-260.5 1478.57,-215.122 1442.19,-171.982 1419.78,-149.705"/>
<polygon fill="midnightblue" stroke="midnightblue" points="1422.15,-147.129 1412.51,-142.726 1417.3,-152.178 1422.15,-147.129"/>
</g>
<!-- Node9 -->
<g id="node9" class="node"><title>Node9</title>
<g id="a_node9"><a xlink:href="dataframe_8h.xhtml" target="_top" xlink:title="Declares classes for accessing data frame information. ">
<polygon fill="white" stroke="black" points="1170.57,-246.5 1170.57,-276.5 1282.57,-276.5 1282.57,-246.5 1170.57,-246.5"/>
<text text-anchor="start" x="1178.57" y="-264.5" font-family="Helvetica,sans-Serif" font-size="10.00">gromacs/analysisdata</text>
<text text-anchor="middle" x="1226.57" y="-253.5" font-family="Helvetica,sans-Serif" font-size="10.00">/dataframe.h</text>
</a>
</g>
</g>
<!-- Node1&#45;&gt;Node9 -->
<g id="edge32" class="edge"><title>Node1&#45;&gt;Node9</title>
<path fill="none" stroke="midnightblue" d="M1200.68,-436.369C1205.43,-404.445 1217.05,-326.441 1222.97,-286.671"/>
<polygon fill="midnightblue" stroke="midnightblue" points="1226.47,-286.945 1224.48,-276.538 1219.55,-285.913 1226.47,-286.945"/>
</g>
<!-- Node15 -->
<g id="node15" class="node"><title>Node15</title>
<g id="a_node15"><a xlink:href="gmxassert_8h.xhtml" target="_top" xlink:title="Defines assert macros customized for Gromacs. ">
<polygon fill="white" stroke="black" points="831.074,-123.5 831.074,-142.5 968.074,-142.5 968.074,-123.5 831.074,-123.5"/>
<text text-anchor="middle" x="899.574" y="-130.5" font-family="Helvetica,sans-Serif" font-size="10.00">gromacs/utility/gmxassert.h</text>
</a>
</g>
</g>
<!-- Node1&#45;&gt;Node15 -->
<g id="edge60" class="edge"><title>Node1&#45;&gt;Node15</title>
<path fill="none" stroke="midnightblue" d="M1134.57,-442.237C1031.6,-427.131 840.574,-390.842 840.574,-329.5 840.574,-329.5 840.574,-329.5 840.574,-260.5 840.574,-217.714 868.639,-173.773 886.057,-150.623"/>
<polygon fill="midnightblue" stroke="midnightblue" points="888.957,-152.594 892.339,-142.554 883.434,-148.294 888.957,-152.594"/>
</g>
<!-- Node16 -->
<g id="node16" class="node"><title>Node16</title>
<g id="a_node16"><a xlink:href="basedefinitions_8h.xhtml" target="_top" xlink:title="Basic types and macros used throughout GROMACS. ">
<polygon fill="white" stroke="black" points="821.074,-62 821.074,-81 978.074,-81 978.074,-62 821.074,-62"/>
<text text-anchor="middle" x="899.574" y="-69" font-family="Helvetica,sans-Serif" font-size="10.00">gromacs/utility/basedefinitions.h</text>
</a>
</g>
</g>
<!-- Node1&#45;&gt;Node16 -->
<g id="edge46" class="edge"><title>Node1&#45;&gt;Node16</title>
<path fill="none" stroke="midnightblue" d="M1262.9,-447.193C1448.63,-436.795 1972.57,-401.116 1972.57,-329.5 1972.57,-329.5 1972.57,-329.5 1972.57,-193.5 1972.57,-94.7595 1245.82,-76.5891 988.532,-73.2502"/>
<polygon fill="midnightblue" stroke="midnightblue" points="988.517,-69.7498 978.474,-73.1241 988.43,-76.7493 988.517,-69.7498"/>
</g>
<!-- Node23 -->
<g id="node23" class="node"><title>Node23</title>
<polygon fill="white" stroke="#bfbfbf" points="2000.57,-380.5 2000.57,-399.5 2044.57,-399.5 2044.57,-380.5 2000.57,-380.5"/>
<text text-anchor="middle" x="2022.57" y="-387.5" font-family="Helvetica,sans-Serif" font-size="10.00">cmath</text>
</g>
<!-- Node1&#45;&gt;Node23 -->
<g id="edge29" class="edge"><title>Node1&#45;&gt;Node23</title>
<path fill="none" stroke="midnightblue" d="M1262.58,-450.309C1397.35,-449.05 1719.9,-441.529 1986.57,-400 1987.83,-399.805 1989.1,-399.586 1990.38,-399.35"/>
<polygon fill="midnightblue" stroke="midnightblue" points="1991.18,-402.758 2000.23,-397.25 1989.72,-395.912 1991.18,-402.758"/>
</g>
<!-- Node24 -->
<g id="node24" class="node"><title>Node24</title>
<polygon fill="white" stroke="#bfbfbf" points="2062.57,-380.5 2062.57,-399.5 2102.57,-399.5 2102.57,-380.5 2062.57,-380.5"/>
<text text-anchor="middle" x="2082.57" y="-387.5" font-family="Helvetica,sans-Serif" font-size="10.00">limits</text>
</g>
<!-- Node1&#45;&gt;Node24 -->
<g id="edge30" class="edge"><title>Node1&#45;&gt;Node24</title>
<path fill="none" stroke="midnightblue" d="M1262.67,-448.722C1430.9,-443.742 1883.2,-428.25 2052.44,-399.695"/>
<polygon fill="midnightblue" stroke="midnightblue" points="2053.21,-403.113 2062.45,-397.929 2051.99,-396.22 2053.21,-403.113"/>
</g>
<!-- Node25 -->
<g id="node25" class="node"><title>Node25</title>
<g id="a_node25"><a xlink:href="datastorage_8h.xhtml" target="_top" xlink:title="Declares gmx::AnalysisDataStorage. ">
<polygon fill="white" stroke="black" points="1089.57,-313.5 1089.57,-343.5 1201.57,-343.5 1201.57,-313.5 1089.57,-313.5"/>
<text text-anchor="start" x="1097.57" y="-331.5" font-family="Helvetica,sans-Serif" font-size="10.00">gromacs/analysisdata</text>
<text text-anchor="middle" x="1145.57" y="-320.5" font-family="Helvetica,sans-Serif" font-size="10.00">/datastorage.h</text>
</a>
</g>
</g>
<!-- Node1&#45;&gt;Node25 -->
<g id="edge33" class="edge"><title>Node1&#45;&gt;Node25</title>
<path fill="none" stroke="midnightblue" d="M1192.29,-436.145C1183.32,-415.677 1166.76,-377.862 1155.96,-353.201"/>
<polygon fill="midnightblue" stroke="midnightblue" points="1159.07,-351.592 1151.85,-343.837 1152.66,-354.401 1159.07,-351.592"/>
</g>
<!-- Node26 -->
<g id="node26" class="node"><title>Node26</title>
<g id="a_node26"><a xlink:href="framelocaldata_8h.xhtml" target="_top" xlink:title="Defines gmx::AnalysisDataFrameLocalData and supporting types. ">
<polygon fill="white" stroke="black" points="1551.57,-246.5 1551.57,-276.5 1663.57,-276.5 1663.57,-246.5 1551.57,-246.5"/>
<text text-anchor="start" x="1559.57" y="-264.5" font-family="Helvetica,sans-Serif" font-size="10.00">gromacs/analysisdata</text>
<text text-anchor="middle" x="1607.57" y="-253.5" font-family="Helvetica,sans-Serif" font-size="10.00">/framelocaldata.h</text>
</a>
</g>
</g>
<!-- Node1&#45;&gt;Node26 -->
<g id="edge39" class="edge"><title>Node1&#45;&gt;Node26</title>
<path fill="none" stroke="midnightblue" d="M1262.9,-444.665C1337.29,-437.022 1454.42,-421.957 1492.57,-400 1540.48,-372.429 1577.27,-316.922 1595.31,-285.519"/>
<polygon fill="midnightblue" stroke="midnightblue" points="1598.47,-287.041 1600.3,-276.605 1592.36,-283.624 1598.47,-287.041"/>
</g>
<!-- Node30 -->
<g id="node30" class="node"><title>Node30</title>
<g id="a_node30"><a xlink:href="exceptions_8h.xhtml" target="_top" xlink:title="Declares common exception classes and macros for fatal error handling. ">
<polygon fill="white" stroke="black" points="458.074,-252 458.074,-271 597.074,-271 597.074,-252 458.074,-252"/>
<text text-anchor="middle" x="527.574" y="-259" font-family="Helvetica,sans-Serif" font-size="10.00">gromacs/utility/exceptions.h</text>
</a>
</g>
</g>
<!-- Node1&#45;&gt;Node30 -->
<g id="edge47" class="edge"><title>Node1&#45;&gt;Node30</title>
<path fill="none" stroke="midnightblue" d="M1134.53,-447.56C1059.44,-442.804 931.871,-430.618 826.574,-400 770.852,-383.797 615.302,-306.735 553.433,-275.597"/>
<polygon fill="midnightblue" stroke="midnightblue" points="554.842,-272.388 544.337,-271.01 551.69,-278.638 554.842,-272.388"/>
</g>
<!-- Node37 -->
<g id="node37" class="node"><title>Node37</title>
<g id="a_node37"><a xlink:href="frameaverager_8h.xhtml" target="_top" xlink:title="Declares gmx::AnalysisDataFrameAverager. ">
<polygon fill="white" stroke="black" points="1021.07,-252 1021.07,-271 1108.07,-271 1108.07,-252 1021.07,-252"/>
<text text-anchor="middle" x="1064.57" y="-259" font-family="Helvetica,sans-Serif" font-size="10.00">frameaverager.h</text>
</a>
</g>
</g>
<!-- Node1&#45;&gt;Node37 -->
<g id="edge61" class="edge"><title>Node1&#45;&gt;Node37</title>
<path fill="none" stroke="midnightblue" d="M1175.4,-436.34C1148.14,-418.392 1103.69,-384.823 1080.57,-344 1069.61,-324.63 1066.05,-298.984 1064.95,-281.676"/>
<polygon fill="midnightblue" stroke="midnightblue" points="1068.43,-281.053 1064.52,-271.204 1061.43,-281.339 1068.43,-281.053"/>
</g>
<!-- Node4 -->
<g id="node4" class="node"><title>Node4</title>
<polygon fill="white" stroke="#bfbfbf" points="71.574,-123.5 71.574,-142.5 123.574,-142.5 123.574,-123.5 71.574,-123.5"/>
<text text-anchor="middle" x="97.574" y="-130.5" font-family="Helvetica,sans-Serif" font-size="10.00">memory</text>
</g>
<!-- Node3&#45;&gt;Node4 -->
<g id="edge3" class="edge"><title>Node3&#45;&gt;Node4</title>
<path fill="none" stroke="midnightblue" d="M458.328,-381.722C455.369,-381.127 452.421,-380.545 449.574,-380 252.318,-342.216 130.384,-437.445 9.57404,-277 -23.7253,-232.776 40.806,-175.472 76.3468,-148.83"/>
<polygon fill="midnightblue" stroke="midnightblue" points="78.6691,-151.468 84.6808,-142.744 74.5408,-145.815 78.6691,-151.468"/>
</g>
<!-- Node5 -->
<g id="node5" class="node"><title>Node5</title>
<g id="a_node5"><a xlink:href="abstractdata_8h.xhtml" target="_top" xlink:title="Declares gmx::AbstractAnalysisData. ">
<polygon fill="white" stroke="black" points="18.574,-246.5 18.574,-276.5 130.574,-276.5 130.574,-246.5 18.574,-246.5"/>
<text text-anchor="start" x="26.574" y="-264.5" font-family="Helvetica,sans-Serif" font-size="10.00">gromacs/analysisdata</text>
<text text-anchor="middle" x="74.574" y="-253.5" font-family="Helvetica,sans-Serif" font-size="10.00">/abstractdata.h</text>
</a>
</g>
</g>
<!-- Node3&#45;&gt;Node5 -->
<g id="edge4" class="edge"><title>Node3&#45;&gt;Node5</title>
<path fill="none" stroke="midnightblue" d="M464.172,-380.405C395.807,-359.715 221.074,-306.836 130.661,-279.474"/>
<polygon fill="midnightblue" stroke="midnightblue" points="131.444,-276.054 120.859,-276.507 129.416,-282.754 131.444,-276.054"/>
</g>
<!-- Node7 -->
<g id="node7" class="node"><title>Node7</title>
<g id="a_node7"><a xlink:href="arraydata_8h.xhtml" target="_top" xlink:title="Declares gmx::AbstractAnalysisArrayData and gmx::AnalysisArrayData. ">
<polygon fill="white" stroke="black" points="501.574,-313.5 501.574,-343.5 613.574,-343.5 613.574,-313.5 501.574,-313.5"/>
<text text-anchor="start" x="509.574" y="-331.5" font-family="Helvetica,sans-Serif" font-size="10.00">gromacs/analysisdata</text>
<text text-anchor="middle" x="557.574" y="-320.5" font-family="Helvetica,sans-Serif" font-size="10.00">/arraydata.h</text>
</a>
</g>
</g>
<!-- Node3&#45;&gt;Node7 -->
<g id="edge8" class="edge"><title>Node3&#45;&gt;Node7</title>
<path fill="none" stroke="midnightblue" d="M501.887,-380.475C510.443,-372.643 523.474,-360.714 534.78,-350.366"/>
<polygon fill="midnightblue" stroke="midnightblue" points="537.242,-352.857 542.255,-343.523 532.515,-347.693 537.242,-352.857"/>
</g>
<!-- Node22 -->
<g id="node22" class="node"><title>Node22</title>
<g id="a_node22"><a xlink:href="datamodule_8h.xhtml" target="_top" xlink:title="Declares gmx::IAnalysisDataModule and related convenience classes. ">
<polygon fill="white" stroke="black" points="371.574,-313.5 371.574,-343.5 483.574,-343.5 483.574,-313.5 371.574,-313.5"/>
<text text-anchor="start" x="379.574" y="-331.5" font-family="Helvetica,sans-Serif" font-size="10.00">gromacs/analysisdata</text>
<text text-anchor="middle" x="427.574" y="-320.5" font-family="Helvetica,sans-Serif" font-size="10.00">/datamodule.h</text>
</a>
</g>
</g>
<!-- Node3&#45;&gt;Node22 -->
<g id="edge28" class="edge"><title>Node3&#45;&gt;Node22</title>
<path fill="none" stroke="midnightblue" d="M483.261,-380.475C474.705,-372.643 461.674,-360.714 450.368,-350.366"/>
<polygon fill="midnightblue" stroke="midnightblue" points="452.633,-347.693 442.893,-343.523 447.906,-352.857 452.633,-347.693"/>
</g>
<!-- Node5&#45;&gt;Node4 -->
<g id="edge5" class="edge"><title>Node5&#45;&gt;Node4</title>
<path fill="none" stroke="midnightblue" d="M65.2223,-246.294C55.5708,-229.738 43.1517,-201.747 52.574,-179 57.4945,-167.121 67.2407,-156.743 76.4084,-148.956"/>
<polygon fill="midnightblue" stroke="midnightblue" points="78.8269,-151.506 84.51,-142.564 74.4912,-146.01 78.8269,-151.506"/>
</g>
<!-- Node6 -->
<g id="node6" class="node"><title>Node6</title>
<g id="a_node6"><a xlink:href="classhelpers_8h.xhtml" target="_top" xlink:title="Declares common utility classes and macros. ">
<polygon fill="white" stroke="black" points="94.574,-185 94.574,-204 240.574,-204 240.574,-185 94.574,-185"/>
<text text-anchor="middle" x="167.574" y="-192" font-family="Helvetica,sans-Serif" font-size="10.00">gromacs/utility/classhelpers.h</text>
</a>
</g>
</g>
<!-- Node5&#45;&gt;Node6 -->
<g id="edge6" class="edge"><title>Node5&#45;&gt;Node6</title>
<path fill="none" stroke="midnightblue" d="M94.7537,-246.396C110.205,-235.597 131.438,-220.756 146.989,-209.887"/>
<polygon fill="midnightblue" stroke="midnightblue" points="149.211,-212.605 155.402,-204.007 145.201,-206.867 149.211,-212.605"/>
</g>
<!-- Node6&#45;&gt;Node4 -->
<g id="edge7" class="edge"><title>Node6&#45;&gt;Node4</title>
<path fill="none" stroke="midnightblue" d="M157.545,-184.975C146.525,-175.608 128.614,-160.384 115.231,-149.008"/>
<polygon fill="midnightblue" stroke="midnightblue" points="117.471,-146.319 107.585,-142.509 112.937,-151.652 117.471,-146.319"/>
</g>
<!-- Node7&#45;&gt;Node5 -->
<g id="edge10" class="edge"><title>Node7&#45;&gt;Node5</title>
<path fill="none" stroke="midnightblue" d="M501.282,-314.522C498.343,-313.976 495.427,-313.464 492.574,-313 339.1,-288.03 298.234,-300.8 144.574,-277 143.298,-276.802 142.01,-276.597 140.713,-276.384"/>
<polygon fill="midnightblue" stroke="midnightblue" points="141.099,-272.899 130.647,-274.636 139.901,-279.796 141.099,-272.899"/>
</g>
<!-- Node7&#45;&gt;Node8 -->
<g id="edge9" class="edge"><title>Node7&#45;&gt;Node8</title>
<path fill="none" stroke="midnightblue" d="M594.926,-313.442C674.899,-283.903 869.128,-215.141 1037.57,-179 1158.85,-152.98 1306.25,-140.538 1370.29,-136.049"/>
<polygon fill="midnightblue" stroke="midnightblue" points="1370.81,-139.522 1380.54,-135.349 1370.33,-132.538 1370.81,-139.522"/>
</g>
<!-- Node7&#45;&gt;Node9 -->
<g id="edge11" class="edge"><title>Node7&#45;&gt;Node9</title>
<path fill="none" stroke="midnightblue" d="M613.69,-323.23C714.635,-315.373 933.488,-297.535 1117.57,-277 1131.39,-275.459 1146.17,-273.621 1160.24,-271.78"/>
<polygon fill="midnightblue" stroke="midnightblue" points="1160.88,-275.225 1170.34,-270.443 1159.96,-268.286 1160.88,-275.225"/>
</g>
<!-- Node7&#45;&gt;Node15 -->
<g id="edge27" class="edge"><title>Node7&#45;&gt;Node15</title>
<path fill="none" stroke="midnightblue" d="M501.565,-314.952C498.525,-314.288 495.513,-313.633 492.574,-313 399.492,-292.934 20.1277,-248.164 85.574,-179 110.599,-152.554 621.433,-139.546 820.826,-135.462"/>
<polygon fill="midnightblue" stroke="midnightblue" points="821.013,-138.959 830.94,-135.257 820.871,-131.96 821.013,-138.959"/>
</g>
<!-- Node9&#45;&gt;Node8 -->
<g id="edge12" class="edge"><title>Node9&#45;&gt;Node8</title>
<path fill="none" stroke="midnightblue" d="M1275.15,-246.426C1298.04,-238.23 1324.81,-226.258 1345.57,-210 1366.2,-193.85 1383.17,-168.485 1393.09,-151.557"/>
<polygon fill="midnightblue" stroke="midnightblue" points="1396.22,-153.127 1398.08,-142.697 1390.12,-149.689 1396.22,-153.127"/>
</g>
<!-- Node10 -->
<g id="node10" class="node"><title>Node10</title>
<g id="a_node10"><a xlink:href="arrayref_8h.xhtml" target="_top" xlink:title="Declares gmx::ArrayRef and gmx::ConstArrayRef. ">
<polygon fill="white" stroke="black" points="1545.07,-185 1545.07,-204 1670.07,-204 1670.07,-185 1545.07,-185"/>
<text text-anchor="middle" x="1607.57" y="-192" font-family="Helvetica,sans-Serif" font-size="10.00">gromacs/utility/arrayref.h</text>
</a>
</g>
</g>
<!-- Node9&#45;&gt;Node10 -->
<g id="edge13" class="edge"><title>Node9&#45;&gt;Node10</title>
<path fill="none" stroke="midnightblue" d="M1282.79,-250.909C1353.67,-238.818 1474.99,-218.119 1547.6,-205.732"/>
<polygon fill="midnightblue" stroke="midnightblue" points="1548.24,-209.173 1557.51,-204.041 1547.06,-202.273 1548.24,-209.173"/>
</g>
<!-- Node9&#45;&gt;Node15 -->
<g id="edge25" class="edge"><title>Node9&#45;&gt;Node15</title>
<path fill="none" stroke="midnightblue" d="M1221.91,-246.362C1214.97,-227.685 1200.04,-195.262 1175.57,-179 1144.02,-158.028 1048.36,-145.901 978.479,-139.63"/>
<polygon fill="midnightblue" stroke="midnightblue" points="978.634,-136.13 968.367,-138.747 978.024,-143.104 978.634,-136.13"/>
</g>
<!-- Node20 -->
<g id="node20" class="node"><title>Node20</title>
<g id="a_node20"><a xlink:href="flags_8h.xhtml" target="_top" xlink:title="Declares gmx::FlagsTemplate. ">
<polygon fill="white" stroke="black" points="1223.07,-185 1223.07,-204 1336.07,-204 1336.07,-185 1223.07,-185"/>
<text text-anchor="middle" x="1279.57" y="-192" font-family="Helvetica,sans-Serif" font-size="10.00">gromacs/utility/flags.h</text>
</a>
</g>
</g>
<!-- Node9&#45;&gt;Node20 -->
<g id="edge24" class="edge"><title>Node9&#45;&gt;Node20</title>
<path fill="none" stroke="midnightblue" d="M1238.07,-246.396C1246.26,-236.361 1257.28,-222.838 1265.91,-212.253"/>
<polygon fill="midnightblue" stroke="midnightblue" points="1268.88,-214.157 1272.48,-204.195 1263.45,-209.733 1268.88,-214.157"/>
</g>
<!-- Node21 -->
<g id="node21" class="node"><title>Node21</title>
<g id="a_node21"><a xlink:href="real_8h.xhtml" target="_top" xlink:title="Declares real and related constants. ">
<polygon fill="white" stroke="black" points="1059.07,-185 1059.07,-204 1166.07,-204 1166.07,-185 1059.07,-185"/>
<text text-anchor="middle" x="1112.57" y="-192" font-family="Helvetica,sans-Serif" font-size="10.00">gromacs/utility/real.h</text>
</a>
</g>
</g>
<!-- Node9&#45;&gt;Node21 -->
<g id="edge26" class="edge"><title>Node9&#45;&gt;Node21</title>
<path fill="none" stroke="midnightblue" d="M1201.84,-246.396C1182.37,-235.294 1155.4,-219.921 1136.22,-208.983"/>
<polygon fill="midnightblue" stroke="midnightblue" points="1137.91,-205.92 1127.49,-204.007 1134.45,-212.001 1137.91,-205.92"/>
</g>
<!-- Node10&#45;&gt;Node8 -->
<g id="edge18" class="edge"><title>Node10&#45;&gt;Node8</title>
<path fill="none" stroke="midnightblue" d="M1578.2,-184.975C1540.01,-173.89 1473.55,-154.602 1434.26,-143.196"/>
<polygon fill="midnightblue" stroke="midnightblue" points="1435.23,-139.834 1424.65,-140.408 1433.28,-146.556 1435.23,-139.834"/>
</g>
<!-- Node11 -->
<g id="node11" class="node"><title>Node11</title>
<polygon fill="white" stroke="#bfbfbf" points="1481.07,-123.5 1481.07,-142.5 1530.07,-142.5 1530.07,-123.5 1481.07,-123.5"/>
<text text-anchor="middle" x="1505.57" y="-130.5" font-family="Helvetica,sans-Serif" font-size="10.00">cstddef</text>
</g>
<!-- Node10&#45;&gt;Node11 -->
<g id="edge14" class="edge"><title>Node10&#45;&gt;Node11</title>
<path fill="none" stroke="midnightblue" d="M1592.96,-184.975C1576.22,-175.211 1548.57,-159.081 1528.86,-147.581"/>
<polygon fill="midnightblue" stroke="midnightblue" points="1530.56,-144.525 1520.16,-142.509 1527.04,-150.571 1530.56,-144.525"/>
</g>
<!-- Node12 -->
<g id="node12" class="node"><title>Node12</title>
<polygon fill="white" stroke="#bfbfbf" points="1548.07,-123.5 1548.07,-142.5 1595.07,-142.5 1595.07,-123.5 1548.07,-123.5"/>
<text text-anchor="middle" x="1571.57" y="-130.5" font-family="Helvetica,sans-Serif" font-size="10.00">iterator</text>
</g>
<!-- Node10&#45;&gt;Node12 -->
<g id="edge15" class="edge"><title>Node10&#45;&gt;Node12</title>
<path fill="none" stroke="midnightblue" d="M1602.42,-184.975C1597.12,-176.227 1588.74,-162.369 1582.05,-151.309"/>
<polygon fill="midnightblue" stroke="midnightblue" points="1584.89,-149.253 1576.72,-142.509 1578.9,-152.877 1584.89,-149.253"/>
</g>
<!-- Node13 -->
<g id="node13" class="node"><title>Node13</title>
<polygon fill="white" stroke="#bfbfbf" points="1613.07,-123.5 1613.07,-142.5 1672.07,-142.5 1672.07,-123.5 1613.07,-123.5"/>
<text text-anchor="middle" x="1642.57" y="-130.5" font-family="Helvetica,sans-Serif" font-size="10.00">stdexcept</text>
</g>
<!-- Node10&#45;&gt;Node13 -->
<g id="edge16" class="edge"><title>Node10&#45;&gt;Node13</title>
<path fill="none" stroke="midnightblue" d="M1612.59,-184.975C1617.73,-176.227 1625.89,-162.369 1632.39,-151.309"/>
<polygon fill="midnightblue" stroke="midnightblue" points="1635.52,-152.903 1637.57,-142.509 1629.48,-149.354 1635.52,-152.903"/>
</g>
<!-- Node14 -->
<g id="node14" class="node"><title>Node14</title>
<polygon fill="white" stroke="#bfbfbf" points="1690.57,-123.5 1690.57,-142.5 1730.57,-142.5 1730.57,-123.5 1690.57,-123.5"/>
<text text-anchor="middle" x="1710.57" y="-130.5" font-family="Helvetica,sans-Serif" font-size="10.00">utility</text>
</g>
<!-- Node10&#45;&gt;Node14 -->
<g id="edge17" class="edge"><title>Node10&#45;&gt;Node14</title>
<path fill="none" stroke="midnightblue" d="M1622.33,-184.975C1639.23,-175.211 1667.16,-159.081 1687.06,-147.581"/>
<polygon fill="midnightblue" stroke="midnightblue" points="1688.94,-150.542 1695.84,-142.509 1685.43,-144.481 1688.94,-150.542"/>
</g>
<!-- Node10&#45;&gt;Node15 -->
<g id="edge19" class="edge"><title>Node10&#45;&gt;Node15</title>
<path fill="none" stroke="midnightblue" d="M1545.05,-188.246C1416.07,-177.406 1120.66,-152.58 978.652,-140.646"/>
<polygon fill="midnightblue" stroke="midnightblue" points="978.542,-137.124 968.284,-139.774 977.956,-144.1 978.542,-137.124"/>
</g>
<!-- Node15&#45;&gt;Node16 -->
<g id="edge20" class="edge"><title>Node15&#45;&gt;Node16</title>
<path fill="none" stroke="midnightblue" d="M899.574,-123.475C899.574,-115.08 899.574,-101.981 899.574,-91.1631"/>
<polygon fill="midnightblue" stroke="midnightblue" points="903.074,-91.0091 899.574,-81.0091 896.074,-91.0091 903.074,-91.0091"/>
</g>
<!-- Node19 -->
<g id="node19" class="node"><title>Node19</title>
<g id="a_node19"><a xlink:href="current__function_8h.xhtml" target="_top" xlink:title="Declares GMX_CURRENT_FUNCTION for getting the current function name. ">
<polygon fill="white" stroke="black" points="470.074,-56.5 470.074,-86.5 583.074,-86.5 583.074,-56.5 470.074,-56.5"/>
<text text-anchor="start" x="478.074" y="-74.5" font-family="Helvetica,sans-Serif" font-size="10.00">gromacs/utility/current</text>
<text text-anchor="middle" x="526.574" y="-63.5" font-family="Helvetica,sans-Serif" font-size="10.00">_function.h</text>
</a>
</g>
</g>
<!-- Node15&#45;&gt;Node19 -->
<g id="edge23" class="edge"><title>Node15&#45;&gt;Node19</title>
<path fill="none" stroke="midnightblue" d="M846.132,-123.475C779.468,-112.841 665.478,-94.6576 593.191,-83.1266"/>
<polygon fill="midnightblue" stroke="midnightblue" points="593.704,-79.6641 583.277,-81.5451 592.601,-86.5768 593.704,-79.6641"/>
</g>
<!-- Node17 -->
<g id="node17" class="node"><title>Node17</title>
<polygon fill="white" stroke="#bfbfbf" points="839.074,-0.5 839.074,-19.5 888.074,-19.5 888.074,-0.5 839.074,-0.5"/>
<text text-anchor="middle" x="863.574" y="-7.5" font-family="Helvetica,sans-Serif" font-size="10.00">stdint.h</text>
</g>
<!-- Node16&#45;&gt;Node17 -->
<g id="edge21" class="edge"><title>Node16&#45;&gt;Node17</title>
<path fill="none" stroke="midnightblue" d="M894.416,-61.9751C889.123,-53.2268 880.739,-39.3691 874.047,-28.3093"/>
<polygon fill="midnightblue" stroke="midnightblue" points="876.894,-26.2531 868.722,-19.5091 870.905,-29.8768 876.894,-26.2531"/>
</g>
<!-- Node18 -->
<g id="node18" class="node"><title>Node18</title>
<polygon fill="white" stroke="#bfbfbf" points="906.074,-0.5 906.074,-19.5 965.074,-19.5 965.074,-0.5 906.074,-0.5"/>
<text text-anchor="middle" x="935.574" y="-7.5" font-family="Helvetica,sans-Serif" font-size="10.00">inttypes.h</text>
</g>
<!-- Node16&#45;&gt;Node18 -->
<g id="edge22" class="edge"><title>Node16&#45;&gt;Node18</title>
<path fill="none" stroke="midnightblue" d="M904.732,-61.9751C910.025,-53.2268 918.41,-39.3691 925.101,-28.3093"/>
<polygon fill="midnightblue" stroke="midnightblue" points="928.244,-29.8768 930.426,-19.5091 922.254,-26.2531 928.244,-29.8768"/>
</g>
<!-- Node25&#45;&gt;Node6 -->
<g id="edge36" class="edge"><title>Node25&#45;&gt;Node6</title>
<path fill="none" stroke="midnightblue" d="M1089.15,-327.381C970.024,-326.263 684.517,-318.997 449.574,-277 357.628,-260.564 252.792,-225.888 200.653,-207.514"/>
<polygon fill="midnightblue" stroke="midnightblue" points="201.541,-204.115 190.947,-204.067 199.199,-210.712 201.541,-204.115"/>
</g>
<!-- Node25&#45;&gt;Node8 -->
<g id="edge34" class="edge"><title>Node25&#45;&gt;Node8</title>
<path fill="none" stroke="midnightblue" d="M1201.63,-314.257C1254.71,-298.638 1332.27,-267.233 1373.57,-210 1386.2,-192.508 1394.08,-168.832 1398.39,-152.58"/>
<polygon fill="midnightblue" stroke="midnightblue" points="1401.83,-153.227 1400.81,-142.681 1395.03,-151.562 1401.83,-153.227"/>
</g>
<!-- Node25&#45;&gt;Node9 -->
<g id="edge35" class="edge"><title>Node25&#45;&gt;Node9</title>
<path fill="none" stroke="midnightblue" d="M1163.15,-313.396C1174.19,-304.538 1188.62,-292.96 1200.92,-283.086"/>
<polygon fill="midnightblue" stroke="midnightblue" points="1203.42,-285.565 1209.03,-276.577 1199.04,-280.105 1203.42,-285.565"/>
</g>
<!-- Node25&#45;&gt;Node15 -->
<g id="edge37" class="edge"><title>Node25&#45;&gt;Node15</title>
<path fill="none" stroke="midnightblue" d="M1089.64,-313.397C1064.57,-305.347 1035.54,-293.504 1012.57,-277 964.327,-242.325 926.062,-181.582 909.094,-151.668"/>
<polygon fill="midnightblue" stroke="midnightblue" points="912.081,-149.837 904.172,-142.788 905.958,-153.231 912.081,-149.837"/>
</g>
<!-- Node25&#45;&gt;Node21 -->
<g id="edge38" class="edge"><title>Node25&#45;&gt;Node21</title>
<path fill="none" stroke="midnightblue" d="M1142.04,-313.374C1136.05,-289.397 1123.89,-240.748 1117.21,-214.056"/>
<polygon fill="midnightblue" stroke="midnightblue" points="1120.54,-212.95 1114.72,-204.097 1113.75,-214.648 1120.54,-212.95"/>
</g>
<!-- Node26&#45;&gt;Node8 -->
<g id="edge42" class="edge"><title>Node26&#45;&gt;Node8</title>
<path fill="none" stroke="midnightblue" d="M1587.81,-246.434C1555.58,-223.509 1495.03,-180.475 1492.57,-179 1472.73,-167.1 1449.32,-155.467 1431.35,-147.01"/>
<polygon fill="midnightblue" stroke="midnightblue" points="1432.53,-143.698 1421.99,-142.657 1429.58,-150.046 1432.53,-143.698"/>
</g>
<!-- Node26&#45;&gt;Node10 -->
<g id="edge44" class="edge"><title>Node26&#45;&gt;Node10</title>
<path fill="none" stroke="midnightblue" d="M1607.57,-246.396C1607.57,-237.064 1607.57,-224.714 1607.57,-214.517"/>
<polygon fill="midnightblue" stroke="midnightblue" points="1611.07,-214.195 1607.57,-204.195 1604.07,-214.195 1611.07,-214.195"/>
</g>
<!-- Node26&#45;&gt;Node15 -->
<g id="edge45" class="edge"><title>Node26&#45;&gt;Node15</title>
<path fill="none" stroke="midnightblue" d="M1570.45,-246.345C1520.23,-227.803 1427.49,-195.697 1345.57,-179 1218.55,-153.109 1067.99,-141.859 978.312,-137.159"/>
<polygon fill="midnightblue" stroke="midnightblue" points="978.384,-133.658 968.219,-136.644 978.028,-140.649 978.384,-133.658"/>
</g>
<!-- Node27 -->
<g id="node27" class="node"><title>Node27</title>
<polygon fill="white" stroke="#bfbfbf" points="1818.57,-185 1818.57,-204 1874.57,-204 1874.57,-185 1818.57,-185"/>
<text text-anchor="middle" x="1846.57" y="-192" font-family="Helvetica,sans-Serif" font-size="10.00">algorithm</text>
</g>
<!-- Node26&#45;&gt;Node27 -->
<g id="edge40" class="edge"><title>Node26&#45;&gt;Node27</title>
<path fill="none" stroke="midnightblue" d="M1663.85,-248.474C1704.67,-239.256 1761.02,-225.512 1809.57,-210 1811.85,-209.274 1814.18,-208.479 1816.52,-207.647"/>
<polygon fill="midnightblue" stroke="midnightblue" points="1817.86,-210.884 1826,-204.104 1815.41,-204.327 1817.86,-210.884"/>
</g>
<!-- Node28 -->
<g id="node28" class="node"><title>Node28</title>
<polygon fill="white" stroke="#bfbfbf" points="1893.07,-185 1893.07,-204 1944.07,-204 1944.07,-185 1893.07,-185"/>
<text text-anchor="middle" x="1918.57" y="-192" font-family="Helvetica,sans-Serif" font-size="10.00">numeric</text>
</g>
<!-- Node26&#45;&gt;Node28 -->
<g id="edge41" class="edge"><title>Node26&#45;&gt;Node28</title>
<path fill="none" stroke="midnightblue" d="M1663.63,-253.789C1719.97,-246.222 1808.94,-232.018 1883.57,-210 1885.86,-209.325 1888.21,-208.55 1890.54,-207.717"/>
<polygon fill="midnightblue" stroke="midnightblue" points="1891.89,-210.949 1899.95,-204.073 1889.36,-204.422 1891.89,-210.949"/>
</g>
<!-- Node29 -->
<g id="node29" class="node"><title>Node29</title>
<g id="a_node29"><a xlink:href="paralleloptions_8h.xhtml" target="_top" xlink:title="Declares gmx::AnalysisDataParallelOptions. ">
<polygon fill="white" stroke="black" points="1688.57,-179.5 1688.57,-209.5 1800.57,-209.5 1800.57,-179.5 1688.57,-179.5"/>
<text text-anchor="start" x="1696.57" y="-197.5" font-family="Helvetica,sans-Serif" font-size="10.00">gromacs/analysisdata</text>
<text text-anchor="middle" x="1744.57" y="-186.5" font-family="Helvetica,sans-Serif" font-size="10.00">/paralleloptions.h</text>
</a>
</g>
</g>
<!-- Node26&#45;&gt;Node29 -->
<g id="edge43" class="edge"><title>Node26&#45;&gt;Node29</title>
<path fill="none" stroke="midnightblue" d="M1637.3,-246.396C1657.32,-236.899 1683.92,-224.276 1705.63,-213.978"/>
<polygon fill="midnightblue" stroke="midnightblue" points="1707.37,-217.025 1714.91,-209.577 1704.37,-210.701 1707.37,-217.025"/>
</g>
<!-- Node30&#45;&gt;Node4 -->
<g id="edge51" class="edge"><title>Node30&#45;&gt;Node4</title>
<path fill="none" stroke="midnightblue" d="M457.88,-253.183C409.842,-246.326 345.39,-233.47 292.574,-210 271.044,-200.433 270.724,-189.38 249.574,-179 212.061,-160.59 165.576,-148.188 133.959,-141.144"/>
<polygon fill="midnightblue" stroke="midnightblue" points="134.354,-137.649 123.84,-138.959 132.877,-144.491 134.354,-137.649"/>
</g>
<!-- Node30&#45;&gt;Node6 -->
<g id="edge57" class="edge"><title>Node30&#45;&gt;Node6</title>
<path fill="none" stroke="midnightblue" d="M480.14,-251.936C414.355,-240.058 295.558,-218.608 224.892,-205.849"/>
<polygon fill="midnightblue" stroke="midnightblue" points="225.289,-202.364 214.827,-204.032 224.046,-209.253 225.289,-202.364"/>
</g>
<!-- Node30&#45;&gt;Node8 -->
<g id="edge55" class="edge"><title>Node30&#45;&gt;Node8</title>
<path fill="none" stroke="midnightblue" d="M577.739,-251.986C635.413,-242.139 732.905,-225.315 816.574,-210 888.682,-196.801 906.063,-189.767 978.574,-179 1124.14,-157.387 1299.31,-142.205 1370.33,-136.499"/>
<polygon fill="midnightblue" stroke="midnightblue" points="1370.73,-139.978 1380.42,-135.696 1370.18,-133 1370.73,-139.978"/>
</g>
<!-- Node30&#45;&gt;Node15 -->
<g id="edge59" class="edge"><title>Node30&#45;&gt;Node15</title>
<path fill="none" stroke="midnightblue" d="M501.167,-251.953C462.712,-238.2 398.757,-209.589 426.574,-179 452.51,-150.479 692.785,-139.616 820.538,-135.831"/>
<polygon fill="midnightblue" stroke="midnightblue" points="820.768,-139.326 830.663,-135.539 820.566,-132.329 820.768,-139.326"/>
</g>
<!-- Node30&#45;&gt;Node16 -->
<g id="edge56" class="edge"><title>Node30&#45;&gt;Node16</title>
<path fill="none" stroke="midnightblue" d="M597.227,-253.971C662.884,-246.561 755.303,-232.493 783.574,-210 816.733,-183.618 795.086,-155.249 822.574,-123 836.011,-107.236 855.571,-94.4925 871.615,-85.7505"/>
<polygon fill="midnightblue" stroke="midnightblue" points="873.334,-88.8014 880.581,-81.0731 870.096,-82.595 873.334,-88.8014"/>
</g>
<!-- Node30&#45;&gt;Node19 -->
<g id="edge58" class="edge"><title>Node30&#45;&gt;Node19</title>
<path fill="none" stroke="midnightblue" d="M457.869,-252.133C406.481,-244.364 342.809,-230.819 326.574,-210 282.309,-153.238 386.18,-111.003 460.194,-89.1828"/>
<polygon fill="midnightblue" stroke="midnightblue" points="461.326,-92.4991 469.966,-86.3678 459.388,-85.7726 461.326,-92.4991"/>
</g>
<!-- Node31 -->
<g id="node31" class="node"><title>Node31</title>
<polygon fill="white" stroke="#bfbfbf" points="335.074,-185 335.074,-204 378.074,-204 378.074,-185 335.074,-185"/>
<text text-anchor="middle" x="356.574" y="-192" font-family="Helvetica,sans-Serif" font-size="10.00">cstdio</text>
</g>
<!-- Node30&#45;&gt;Node31 -->
<g id="edge48" class="edge"><title>Node30&#45;&gt;Node31</title>
<path fill="none" stroke="midnightblue" d="M504.094,-251.918C477.11,-242.009 431.529,-225.128 392.574,-210 390.737,-209.287 388.85,-208.547 386.948,-207.796"/>
<polygon fill="midnightblue" stroke="midnightblue" points="388.064,-204.473 377.479,-204.022 385.473,-210.976 388.064,-204.473"/>
</g>
<!-- Node32 -->
<g id="node32" class="node"><title>Node32</title>
<polygon fill="white" stroke="#bfbfbf" points="435.074,-185 435.074,-204 480.074,-204 480.074,-185 435.074,-185"/>
<text text-anchor="middle" x="457.574" y="-192" font-family="Helvetica,sans-Serif" font-size="10.00">cstdlib</text>
</g>
<!-- Node30&#45;&gt;Node32 -->
<g id="edge49" class="edge"><title>Node30&#45;&gt;Node32</title>
<path fill="none" stroke="midnightblue" d="M518.134,-251.734C506.903,-241.305 487.953,-223.709 474.237,-210.973"/>
<polygon fill="midnightblue" stroke="midnightblue" points="476.575,-208.367 466.865,-204.127 471.811,-213.497 476.575,-208.367"/>
</g>
<!-- Node33 -->
<g id="node33" class="node"><title>Node33</title>
<polygon fill="white" stroke="#bfbfbf" points="498.074,-185 498.074,-204 557.074,-204 557.074,-185 498.074,-185"/>
<text text-anchor="middle" x="527.574" y="-192" font-family="Helvetica,sans-Serif" font-size="10.00">exception</text>
</g>
<!-- Node30&#45;&gt;Node33 -->
<g id="edge50" class="edge"><title>Node30&#45;&gt;Node33</title>
<path fill="none" stroke="midnightblue" d="M527.574,-251.734C527.574,-242.183 527.574,-226.618 527.574,-214.283"/>
<polygon fill="midnightblue" stroke="midnightblue" points="531.074,-214.127 527.574,-204.127 524.074,-214.127 531.074,-214.127"/>
</g>
<!-- Node34 -->
<g id="node34" class="node"><title>Node34</title>
<polygon fill="white" stroke="#bfbfbf" points="575.074,-185 575.074,-204 616.074,-204 616.074,-185 575.074,-185"/>
<text text-anchor="middle" x="595.574" y="-192" font-family="Helvetica,sans-Serif" font-size="10.00">string</text>
</g>
<!-- Node30&#45;&gt;Node34 -->
<g id="edge52" class="edge"><title>Node30&#45;&gt;Node34</title>
<path fill="none" stroke="midnightblue" d="M536.745,-251.734C547.552,-241.403 565.72,-224.037 579.012,-211.332"/>
<polygon fill="midnightblue" stroke="midnightblue" points="581.738,-213.567 586.549,-204.127 576.901,-208.507 581.738,-213.567"/>
</g>
<!-- Node35 -->
<g id="node35" class="node"><title>Node35</title>
<polygon fill="white" stroke="#bfbfbf" points="634.574,-185 634.574,-204 696.574,-204 696.574,-185 634.574,-185"/>
<text text-anchor="middle" x="665.574" y="-192" font-family="Helvetica,sans-Serif" font-size="10.00">type_traits</text>
</g>
<!-- Node30&#45;&gt;Node35 -->
<g id="edge53" class="edge"><title>Node30&#45;&gt;Node35</title>
<path fill="none" stroke="midnightblue" d="M545.899,-251.869C569.51,-240.748 610.763,-221.317 638.126,-208.429"/>
<polygon fill="midnightblue" stroke="midnightblue" points="639.618,-211.595 647.173,-204.167 636.635,-205.262 639.618,-211.595"/>
</g>
<!-- Node36 -->
<g id="node36" class="node"><title>Node36</title>
<polygon fill="white" stroke="#bfbfbf" points="715.074,-185 715.074,-204 774.074,-204 774.074,-185 715.074,-185"/>
<text text-anchor="middle" x="744.574" y="-192" font-family="Helvetica,sans-Serif" font-size="10.00">typeindex</text>
</g>
<!-- Node30&#45;&gt;Node36 -->
<g id="edge54" class="edge"><title>Node30&#45;&gt;Node36</title>
<path fill="none" stroke="midnightblue" d="M560.618,-251.968C596.536,-242.499 655.505,-226.381 705.574,-210 707.977,-209.214 710.452,-208.372 712.934,-207.503"/>
<polygon fill="midnightblue" stroke="midnightblue" points="714.187,-210.772 722.408,-204.089 711.813,-204.187 714.187,-210.772"/>
</g>
<!-- Node37&#45;&gt;Node8 -->
<g id="edge62" class="edge"><title>Node37&#45;&gt;Node8</title>
<path fill="none" stroke="midnightblue" d="M1058.97,-251.645C1049.34,-235.189 1032.36,-199.69 1050.57,-179 1071.56,-155.16 1287.13,-140.529 1370.19,-135.739"/>
<polygon fill="midnightblue" stroke="midnightblue" points="1370.54,-139.225 1380.32,-135.166 1370.14,-132.236 1370.54,-139.225"/>
</g>
<!-- Node37&#45;&gt;Node15 -->
<g id="edge63" class="edge"><title>Node37&#45;&gt;Node15</title>
<path fill="none" stroke="midnightblue" d="M1053.23,-251.805C1025.44,-230.501 953.703,-175.499 918.977,-148.875"/>
<polygon fill="midnightblue" stroke="midnightblue" points="921.06,-146.062 910.995,-142.756 916.801,-151.618 921.06,-146.062"/>
</g>
<!-- Node37&#45;&gt;Node21 -->
<g id="edge64" class="edge"><title>Node37&#45;&gt;Node21</title>
<path fill="none" stroke="midnightblue" d="M1071.05,-251.734C1078.46,-241.695 1090.78,-225.014 1100.08,-212.421"/>
<polygon fill="midnightblue" stroke="midnightblue" points="1103.08,-214.251 1106.2,-204.127 1097.45,-210.092 1103.08,-214.251"/>
</g>
</g>
</svg>
