<?xml version="1.0" encoding="UTF-8" standalone="no"?>
<!DOCTYPE svg PUBLIC "-//W3C//DTD SVG 1.1//EN"
 "http://www.w3.org/Graphics/SVG/1.1/DTD/svg11.dtd">
<!-- Generated by graphviz version 2.38.0 (20140413.2041)
 -->
<!-- Title: src/programs/mdrun/tests/multisimtest.h Pages: 1 -->
<svg width="1040pt" height="386pt"
 viewBox="0.00 0.00 1039.71 386.00" xmlns="http://www.w3.org/2000/svg" xmlns:xlink="http://www.w3.org/1999/xlink">
<g id="graph0" class="graph" transform="scale(1 1) rotate(0) translate(4 382)">
<title>src/programs/mdrun/tests/multisimtest.h</title>
<polygon fill="white" stroke="none" points="-4,4 -4,-382 1035.71,-382 1035.71,4 -4,4"/>
<!-- Node1 -->
<g id="node1" class="node"><title>Node1</title>
<polygon fill="#bfbfbf" stroke="black" points="817.5,-347.5 817.5,-377.5 923.5,-377.5 923.5,-347.5 817.5,-347.5"/>
<text text-anchor="start" x="825.5" y="-365.5" font-family="Helvetica,sans-Serif" font-size="10.00">src/programs/mdrun</text>
<text text-anchor="middle" x="870.5" y="-354.5" font-family="Helvetica,sans-Serif" font-size="10.00">/tests/multisimtest.h</text>
</g>
<!-- Node2 -->
<g id="node2" class="node"><title>Node2</title>
<polygon fill="white" stroke="#bfbfbf" points="671.5,-62 671.5,-81 723.5,-81 723.5,-62 671.5,-62"/>
<text text-anchor="middle" x="697.5" y="-69" font-family="Helvetica,sans-Serif" font-size="10.00">memory</text>
</g>
<!-- Node1&#45;&gt;Node2 -->
<g id="edge1" class="edge"><title>Node1&#45;&gt;Node2</title>
<path fill="none" stroke="midnightblue" d="M817.493,-351.587C734.061,-334.452 581.5,-296.25 581.5,-246 581.5,-246 581.5,-246 581.5,-188 581.5,-138.903 634.327,-103.472 668.681,-85.621"/>
<polygon fill="midnightblue" stroke="midnightblue" points="670.44,-88.6551 677.822,-81.0556 667.312,-82.3928 670.44,-88.6551"/>
</g>
<!-- Node3 -->
<g id="node3" class="node"><title>Node3</title>
<polygon fill="white" stroke="#bfbfbf" points="890,-123.5 890,-142.5 931,-142.5 931,-123.5 890,-123.5"/>
<text text-anchor="middle" x="910.5" y="-130.5" font-family="Helvetica,sans-Serif" font-size="10.00">string</text>
</g>
<!-- Node1&#45;&gt;Node3 -->
<g id="edge2" class="edge"><title>Node1&#45;&gt;Node3</title>
<path fill="none" stroke="midnightblue" d="M896.816,-347.485C912.549,-338.351 932.357,-325.467 947.5,-311 991.919,-268.564 1009.58,-257.445 1028.5,-199 1031.24,-190.543 1033.54,-186.32 1028.5,-179 1009.09,-150.822 969.491,-140.276 941.533,-136.337"/>
<polygon fill="midnightblue" stroke="midnightblue" points="941.8,-132.844 931.455,-135.127 940.966,-139.794 941.8,-132.844"/>
</g>
<!-- Node4 -->
<g id="node4" class="node"><title>Node4</title>
<polygon fill="white" stroke="#bfbfbf" points="949,-179.5 949,-198.5 1020,-198.5 1020,-179.5 949,-179.5"/>
<text text-anchor="middle" x="984.5" y="-186.5" font-family="Helvetica,sans-Serif" font-size="10.00">gtest/gtest.h</text>
</g>
<!-- Node1&#45;&gt;Node4 -->
<g id="edge3" class="edge"><title>Node1&#45;&gt;Node4</title>
<path fill="none" stroke="midnightblue" d="M887.325,-347.407C908.802,-328.526 945.663,-292.972 966.5,-255 974.421,-240.564 979.072,-222.374 981.654,-208.911"/>
<polygon fill="midnightblue" stroke="midnightblue" points="985.13,-209.346 983.364,-198.899 978.23,-208.167 985.13,-209.346"/>
</g>
<!-- Node5 -->
<g id="node5" class="node"><title>Node5</title>
<g id="a_node5"><a xlink:href="cmdlinetest_8h.xhtml" target="_top" xlink:title="Declares utilities testing command&#45;line programs. ">
<polygon fill="white" stroke="black" points="675,-235.5 675,-254.5 788,-254.5 788,-235.5 675,-235.5"/>
<text text-anchor="middle" x="731.5" y="-242.5" font-family="Helvetica,sans-Serif" font-size="10.00">testutils/cmdlinetest.h</text>
</a>
</g>
</g>
<!-- Node1&#45;&gt;Node5 -->
<g id="edge4" class="edge"><title>Node1&#45;&gt;Node5</title>
<path fill="none" stroke="midnightblue" d="M853.456,-347.337C827.159,-325.487 776.909,-283.732 749.846,-261.244"/>
<polygon fill="midnightblue" stroke="midnightblue" points="751.862,-258.368 741.933,-254.669 747.388,-263.752 751.862,-258.368"/>
</g>
<!-- Node19 -->
<g id="node19" class="node"><title>Node19</title>
<g id="a_node19"><a xlink:href="programs_2mdrun_2tests_2moduletest_8h.xhtml" target="_top" xlink:title="Declares test fixtures for general mdrun functionality. ">
<polygon fill="white" stroke="black" points="834,-291.5 834,-310.5 907,-310.5 907,-291.5 834,-291.5"/>
<text text-anchor="middle" x="870.5" y="-298.5" font-family="Helvetica,sans-Serif" font-size="10.00">moduletest.h</text>
</a>
</g>
</g>
<!-- Node1&#45;&gt;Node19 -->
<g id="edge22" class="edge"><title>Node1&#45;&gt;Node19</title>
<path fill="none" stroke="midnightblue" d="M870.5,-347.399C870.5,-339.466 870.5,-329.458 870.5,-320.858"/>
<polygon fill="midnightblue" stroke="midnightblue" points="874,-320.658 870.5,-310.658 867,-320.658 874,-320.658"/>
</g>
<!-- Node5&#45;&gt;Node2 -->
<g id="edge6" class="edge"><title>Node5&#45;&gt;Node2</title>
<path fill="none" stroke="midnightblue" d="M729.767,-235.26C724.469,-208.536 708.407,-127.517 701.14,-90.8618"/>
<polygon fill="midnightblue" stroke="midnightblue" points="704.567,-90.1478 699.189,-81.0194 697.701,-91.5091 704.567,-90.1478"/>
</g>
<!-- Node5&#45;&gt;Node3 -->
<g id="edge7" class="edge"><title>Node5&#45;&gt;Node3</title>
<path fill="none" stroke="midnightblue" d="M737.649,-235.231C747.684,-221.5 768.85,-194.86 792.5,-179 807.224,-169.126 850.435,-153.769 880.265,-143.797"/>
<polygon fill="midnightblue" stroke="midnightblue" points="881.415,-147.103 889.808,-140.637 879.215,-140.458 881.415,-147.103"/>
</g>
<!-- Node5&#45;&gt;Node4 -->
<g id="edge8" class="edge"><title>Node5&#45;&gt;Node4</title>
<path fill="none" stroke="midnightblue" d="M771.589,-235.444C817.022,-225.746 890.941,-209.969 938.636,-199.789"/>
<polygon fill="midnightblue" stroke="midnightblue" points="939.64,-203.154 948.69,-197.643 938.179,-196.308 939.64,-203.154"/>
</g>
<!-- Node6 -->
<g id="node6" class="node"><title>Node6</title>
<polygon fill="white" stroke="#bfbfbf" points="610,-179.5 610,-198.5 669,-198.5 669,-179.5 610,-179.5"/>
<text text-anchor="middle" x="639.5" y="-186.5" font-family="Helvetica,sans-Serif" font-size="10.00">functional</text>
</g>
<!-- Node5&#45;&gt;Node6 -->
<g id="edge5" class="edge"><title>Node5&#45;&gt;Node6</title>
<path fill="none" stroke="midnightblue" d="M716.719,-235.324C702.233,-226.822 679.927,-213.729 663.007,-203.797"/>
<polygon fill="midnightblue" stroke="midnightblue" points="664.641,-200.698 654.245,-198.655 661.097,-206.735 664.641,-200.698"/>
</g>
<!-- Node7 -->
<g id="node7" class="node"><title>Node7</title>
<g id="a_node7"><a xlink:href="arrayref_8h.xhtml" target="_top" xlink:title="Declares gmx::ArrayRef and gmx::ConstArrayRef. ">
<polygon fill="white" stroke="black" points="341,-179.5 341,-198.5 466,-198.5 466,-179.5 341,-179.5"/>
<text text-anchor="middle" x="403.5" y="-186.5" font-family="Helvetica,sans-Serif" font-size="10.00">gromacs/utility/arrayref.h</text>
</a>
</g>
</g>
<!-- Node5&#45;&gt;Node7 -->
<g id="edge9" class="edge"><title>Node5&#45;&gt;Node7</title>
<path fill="none" stroke="midnightblue" d="M679.527,-235.444C621.349,-225.865 527.141,-210.356 465.253,-200.167"/>
<polygon fill="midnightblue" stroke="midnightblue" points="465.665,-196.687 455.229,-198.516 464.528,-203.594 465.665,-196.687"/>
</g>
<!-- Node18 -->
<g id="node18" class="node"><title>Node18</title>
<g id="a_node18"><a xlink:href="classhelpers_8h.xhtml" target="_top" xlink:title="Declares common utility classes and macros. ">
<polygon fill="white" stroke="black" points="725.5,-123.5 725.5,-142.5 871.5,-142.5 871.5,-123.5 725.5,-123.5"/>
<text text-anchor="middle" x="798.5" y="-130.5" font-family="Helvetica,sans-Serif" font-size="10.00">gromacs/utility/classhelpers.h</text>
</a>
</g>
</g>
<!-- Node5&#45;&gt;Node18 -->
<g id="edge20" class="edge"><title>Node5&#45;&gt;Node18</title>
<path fill="none" stroke="midnightblue" d="M734.33,-235.168C738.677,-222.258 747.744,-197.734 759.5,-179 766.012,-168.623 774.852,-158.211 782.469,-150.02"/>
<polygon fill="midnightblue" stroke="midnightblue" points="785.143,-152.288 789.547,-142.652 780.095,-147.438 785.143,-152.288"/>
</g>
<!-- Node8 -->
<g id="node8" class="node"><title>Node8</title>
<polygon fill="white" stroke="#bfbfbf" points="504,-123.5 504,-142.5 553,-142.5 553,-123.5 504,-123.5"/>
<text text-anchor="middle" x="528.5" y="-130.5" font-family="Helvetica,sans-Serif" font-size="10.00">cstddef</text>
</g>
<!-- Node7&#45;&gt;Node8 -->
<g id="edge10" class="edge"><title>Node7&#45;&gt;Node8</title>
<path fill="none" stroke="midnightblue" d="M423.307,-179.444C443.787,-170.596 475.983,-156.687 499.365,-146.586"/>
<polygon fill="midnightblue" stroke="midnightblue" points="500.994,-149.695 508.786,-142.516 498.218,-143.269 500.994,-149.695"/>
</g>
<!-- Node9 -->
<g id="node9" class="node"><title>Node9</title>
<polygon fill="white" stroke="#bfbfbf" points="241,-123.5 241,-142.5 288,-142.5 288,-123.5 241,-123.5"/>
<text text-anchor="middle" x="264.5" y="-130.5" font-family="Helvetica,sans-Serif" font-size="10.00">iterator</text>
</g>
<!-- Node7&#45;&gt;Node9 -->
<g id="edge11" class="edge"><title>Node7&#45;&gt;Node9</title>
<path fill="none" stroke="midnightblue" d="M381.475,-179.444C358.396,-170.478 321.938,-156.314 295.859,-146.183"/>
<polygon fill="midnightblue" stroke="midnightblue" points="297.011,-142.875 286.422,-142.516 294.476,-149.4 297.011,-142.875"/>
</g>
<!-- Node10 -->
<g id="node10" class="node"><title>Node10</title>
<polygon fill="white" stroke="#bfbfbf" points="306,-123.5 306,-142.5 365,-142.5 365,-123.5 306,-123.5"/>
<text text-anchor="middle" x="335.5" y="-130.5" font-family="Helvetica,sans-Serif" font-size="10.00">stdexcept</text>
</g>
<!-- Node7&#45;&gt;Node10 -->
<g id="edge12" class="edge"><title>Node7&#45;&gt;Node10</title>
<path fill="none" stroke="midnightblue" d="M392.575,-179.324C382.325,-171.185 366.779,-158.839 354.499,-149.087"/>
<polygon fill="midnightblue" stroke="midnightblue" points="356.632,-146.312 346.624,-142.834 352.279,-151.794 356.632,-146.312"/>
</g>
<!-- Node11 -->
<g id="node11" class="node"><title>Node11</title>
<polygon fill="white" stroke="#bfbfbf" points="383.5,-123.5 383.5,-142.5 423.5,-142.5 423.5,-123.5 383.5,-123.5"/>
<text text-anchor="middle" x="403.5" y="-130.5" font-family="Helvetica,sans-Serif" font-size="10.00">utility</text>
</g>
<!-- Node7&#45;&gt;Node11 -->
<g id="edge13" class="edge"><title>Node7&#45;&gt;Node11</title>
<path fill="none" stroke="midnightblue" d="M403.5,-179.083C403.5,-172.006 403.5,-161.861 403.5,-152.986"/>
<polygon fill="midnightblue" stroke="midnightblue" points="407,-152.751 403.5,-142.751 400,-152.751 407,-152.751"/>
</g>
<!-- Node12 -->
<g id="node12" class="node"><title>Node12</title>
<polygon fill="white" stroke="#bfbfbf" points="441.5,-123.5 441.5,-142.5 485.5,-142.5 485.5,-123.5 441.5,-123.5"/>
<text text-anchor="middle" x="463.5" y="-130.5" font-family="Helvetica,sans-Serif" font-size="10.00">vector</text>
</g>
<!-- Node7&#45;&gt;Node12 -->
<g id="edge14" class="edge"><title>Node7&#45;&gt;Node12</title>
<path fill="none" stroke="midnightblue" d="M413.14,-179.324C422.01,-171.341 435.375,-159.313 446.108,-149.653"/>
<polygon fill="midnightblue" stroke="midnightblue" points="448.593,-152.125 453.685,-142.834 443.91,-146.922 448.593,-152.125"/>
</g>
<!-- Node13 -->
<g id="node13" class="node"><title>Node13</title>
<g id="a_node13"><a xlink:href="gmxassert_8h.xhtml" target="_top" xlink:title="Defines assert macros customized for Gromacs. ">
<polygon fill="white" stroke="black" points="86,-123.5 86,-142.5 223,-142.5 223,-123.5 86,-123.5"/>
<text text-anchor="middle" x="154.5" y="-130.5" font-family="Helvetica,sans-Serif" font-size="10.00">gromacs/utility/gmxassert.h</text>
</a>
</g>
</g>
<!-- Node7&#45;&gt;Node13 -->
<g id="edge15" class="edge"><title>Node7&#45;&gt;Node13</title>
<path fill="none" stroke="midnightblue" d="M364.045,-179.444C320.608,-170.023 250.714,-154.866 203.724,-144.675"/>
<polygon fill="midnightblue" stroke="midnightblue" points="204.285,-141.215 193.77,-142.516 202.801,-148.056 204.285,-141.215"/>
</g>
<!-- Node14 -->
<g id="node14" class="node"><title>Node14</title>
<g id="a_node14"><a xlink:href="basedefinitions_8h.xhtml" target="_top" xlink:title="Basic types and macros used throughout GROMACS. ">
<polygon fill="white" stroke="black" points="0,-62 0,-81 157,-81 157,-62 0,-62"/>
<text text-anchor="middle" x="78.5" y="-69" font-family="Helvetica,sans-Serif" font-size="10.00">gromacs/utility/basedefinitions.h</text>
</a>
</g>
</g>
<!-- Node13&#45;&gt;Node14 -->
<g id="edge16" class="edge"><title>Node13&#45;&gt;Node14</title>
<path fill="none" stroke="midnightblue" d="M143.611,-123.475C131.534,-114.02 111.833,-98.5961 97.26,-87.1871"/>
<polygon fill="midnightblue" stroke="midnightblue" points="99.4003,-84.4177 89.3687,-81.0091 95.0851,-89.9295 99.4003,-84.4177"/>
</g>
<!-- Node17 -->
<g id="node17" class="node"><title>Node17</title>
<g id="a_node17"><a xlink:href="current__function_8h.xhtml" target="_top" xlink:title="Declares GMX_CURRENT_FUNCTION for getting the current function name. ">
<polygon fill="white" stroke="black" points="175,-56.5 175,-86.5 288,-86.5 288,-56.5 175,-56.5"/>
<text text-anchor="start" x="183" y="-74.5" font-family="Helvetica,sans-Serif" font-size="10.00">gromacs/utility/current</text>
<text text-anchor="middle" x="231.5" y="-63.5" font-family="Helvetica,sans-Serif" font-size="10.00">_function.h</text>
</a>
</g>
</g>
<!-- Node13&#45;&gt;Node17 -->
<g id="edge19" class="edge"><title>Node13&#45;&gt;Node17</title>
<path fill="none" stroke="midnightblue" d="M165.532,-123.475C175.863,-115.492 191.7,-103.254 205.268,-92.7703"/>
<polygon fill="midnightblue" stroke="midnightblue" points="207.58,-95.407 213.353,-86.523 203.3,-89.868 207.58,-95.407"/>
</g>
<!-- Node15 -->
<g id="node15" class="node"><title>Node15</title>
<polygon fill="white" stroke="#bfbfbf" points="18,-0.5 18,-19.5 67,-19.5 67,-0.5 18,-0.5"/>
<text text-anchor="middle" x="42.5" y="-7.5" font-family="Helvetica,sans-Serif" font-size="10.00">stdint.h</text>
</g>
<!-- Node14&#45;&gt;Node15 -->
<g id="edge17" class="edge"><title>Node14&#45;&gt;Node15</title>
<path fill="none" stroke="midnightblue" d="M73.3421,-61.9751C68.049,-53.2268 59.6645,-39.3691 52.9729,-28.3093"/>
<polygon fill="midnightblue" stroke="midnightblue" points="55.8196,-26.2531 47.6484,-19.5091 49.8305,-29.8768 55.8196,-26.2531"/>
</g>
<!-- Node16 -->
<g id="node16" class="node"><title>Node16</title>
<polygon fill="white" stroke="#bfbfbf" points="85,-0.5 85,-19.5 144,-19.5 144,-0.5 85,-0.5"/>
<text text-anchor="middle" x="114.5" y="-7.5" font-family="Helvetica,sans-Serif" font-size="10.00">inttypes.h</text>
</g>
<!-- Node14&#45;&gt;Node16 -->
<g id="edge18" class="edge"><title>Node14&#45;&gt;Node16</title>
<path fill="none" stroke="midnightblue" d="M83.6579,-61.9751C88.951,-53.2268 97.3355,-39.3691 104.027,-28.3093"/>
<polygon fill="midnightblue" stroke="midnightblue" points="107.17,-29.8768 109.352,-19.5091 101.18,-26.2531 107.17,-29.8768"/>
</g>
<!-- Node18&#45;&gt;Node2 -->
<g id="edge21" class="edge"><title>Node18&#45;&gt;Node2</title>
<path fill="none" stroke="midnightblue" d="M784.029,-123.475C767.529,-113.755 740.322,-97.7266 720.819,-86.2372"/>
<polygon fill="midnightblue" stroke="midnightblue" points="722.337,-83.0693 711.944,-81.0091 718.784,-89.1005 722.337,-83.0693"/>
</g>
<!-- Node19&#45;&gt;Node4 -->
<g id="edge23" class="edge"><title>Node19&#45;&gt;Node4</title>
<path fill="none" stroke="midnightblue" d="M889.204,-291.48C904.995,-283.629 927.522,-270.814 943.5,-255 957.388,-241.255 968.804,-221.963 976.032,-207.97"/>
<polygon fill="midnightblue" stroke="midnightblue" points="979.235,-209.387 980.529,-198.872 972.96,-206.285 979.235,-209.387"/>
</g>
<!-- Node19&#45;&gt;Node5 -->
<g id="edge24" class="edge"><title>Node19&#45;&gt;Node5</title>
<path fill="none" stroke="midnightblue" d="M848.475,-291.444C825.396,-282.478 788.938,-268.314 762.859,-258.183"/>
<polygon fill="midnightblue" stroke="midnightblue" points="764.011,-254.875 753.422,-254.516 761.476,-261.4 764.011,-254.875"/>
</g>
<!-- Node20 -->
<g id="node20" class="node"><title>Node20</title>
<g id="a_node20"><a xlink:href="integrationtests_8h.xhtml" target="_top" xlink:title="Declares test fixture for integration tests. ">
<polygon fill="white" stroke="black" points="806,-235.5 806,-254.5 935,-254.5 935,-235.5 806,-235.5"/>
<text text-anchor="middle" x="870.5" y="-242.5" font-family="Helvetica,sans-Serif" font-size="10.00">testutils/integrationtests.h</text>
</a>
</g>
</g>
<!-- Node19&#45;&gt;Node20 -->
<g id="edge25" class="edge"><title>Node19&#45;&gt;Node20</title>
<path fill="none" stroke="midnightblue" d="M870.5,-291.083C870.5,-284.006 870.5,-273.861 870.5,-264.986"/>
<polygon fill="midnightblue" stroke="midnightblue" points="874,-264.751 870.5,-254.751 867,-264.751 874,-264.751"/>
</g>
<!-- Node20&#45;&gt;Node4 -->
<g id="edge26" class="edge"><title>Node20&#45;&gt;Node4</title>
<path fill="none" stroke="midnightblue" d="M888.564,-235.444C907.075,-226.675 936.081,-212.935 957.355,-202.858"/>
<polygon fill="midnightblue" stroke="midnightblue" points="958.982,-205.96 966.521,-198.516 955.985,-199.634 958.982,-205.96"/>
</g>
<!-- Node21 -->
<g id="node21" class="node"><title>Node21</title>
<g id="a_node21"><a xlink:href="testfilemanager_8h.xhtml" target="_top" xlink:title="Declares gmx::test::TestFileManager. ">
<polygon fill="white" stroke="black" points="802,-179.5 802,-198.5 931,-198.5 931,-179.5 802,-179.5"/>
<text text-anchor="middle" x="866.5" y="-186.5" font-family="Helvetica,sans-Serif" font-size="10.00">testutils/testfilemanager.h</text>
</a>
</g>
</g>
<!-- Node20&#45;&gt;Node21 -->
<g id="edge27" class="edge"><title>Node20&#45;&gt;Node21</title>
<path fill="none" stroke="midnightblue" d="M869.839,-235.083C869.315,-228.006 868.564,-217.861 867.906,-208.986"/>
<polygon fill="midnightblue" stroke="midnightblue" points="871.377,-208.465 867.148,-198.751 864.397,-208.982 871.377,-208.465"/>
</g>
<!-- Node21&#45;&gt;Node3 -->
<g id="edge28" class="edge"><title>Node21&#45;&gt;Node3</title>
<path fill="none" stroke="midnightblue" d="M873.766,-179.083C880.045,-171.377 889.288,-160.033 896.931,-150.653"/>
<polygon fill="midnightblue" stroke="midnightblue" points="899.766,-152.714 903.369,-142.751 894.339,-148.293 899.766,-152.714"/>
</g>
<!-- Node21&#45;&gt;Node18 -->
<g id="edge29" class="edge"><title>Node21&#45;&gt;Node18</title>
<path fill="none" stroke="midnightblue" d="M855.575,-179.324C845.325,-171.185 829.779,-158.839 817.499,-149.087"/>
<polygon fill="midnightblue" stroke="midnightblue" points="819.632,-146.312 809.624,-142.834 815.279,-151.794 819.632,-146.312"/>
</g>
</g>
</svg>
