<?xml version="1.0" encoding="UTF-8" standalone="no"?>
<!DOCTYPE svg PUBLIC "-//W3C//DTD SVG 1.1//EN"
 "http://www.w3.org/Graphics/SVG/1.1/DTD/svg11.dtd">
<!-- Generated by graphviz version 2.38.0 (20140413.2041)
 -->
<!-- Title: src/gromacs/mdlib/nbnxn_ocl/nbnxn_ocl_data_mgmt.cpp Pages: 1 -->
<svg width="2082pt" height="229pt"
 viewBox="0.00 0.00 2081.50 229.00" xmlns="http://www.w3.org/2000/svg" xmlns:xlink="http://www.w3.org/1999/xlink">
<g id="graph0" class="graph" transform="scale(1 1) rotate(0) translate(4 225)">
<title>src/gromacs/mdlib/nbnxn_ocl/nbnxn_ocl_data_mgmt.cpp</title>
<polygon fill="white" stroke="none" points="-4,4 -4,-225 2077.5,-225 2077.5,4 -4,4"/>
<!-- Node1 -->
<g id="node1" class="node"><title>Node1</title>
<polygon fill="#bfbfbf" stroke="black" points="1039,-190.5 1039,-220.5 1194,-220.5 1194,-190.5 1039,-190.5"/>
<text text-anchor="start" x="1047" y="-208.5" font-family="Helvetica,sans-Serif" font-size="10.00">src/gromacs/mdlib/nbnxn</text>
<text text-anchor="middle" x="1116.5" y="-197.5" font-family="Helvetica,sans-Serif" font-size="10.00">_ocl/nbnxn_ocl_data_mgmt.cpp</text>
</g>
<!-- Node2 -->
<g id="node2" class="node"><title>Node2</title>
<g id="a_node2"><a xlink:href="gmxpre_8h.xhtml" target="_top" xlink:title="Prerequisite header file for GROMACS build. ">
<polygon fill="white" stroke="black" points="0,-62 0,-81 57,-81 57,-62 0,-62"/>
<text text-anchor="middle" x="28.5" y="-69" font-family="Helvetica,sans-Serif" font-size="10.00">gmxpre.h</text>
</a>
</g>
</g>
<!-- Node1&#45;&gt;Node2 -->
<g id="edge1" class="edge"><title>Node1&#45;&gt;Node2</title>
<path fill="none" stroke="midnightblue" d="M1038.82,-203.847C793.566,-201.408 49.8254,-190.981 14.5,-154 -1.72321,-137.016 8.50602,-108.456 18.004,-90.051"/>
<polygon fill="midnightblue" stroke="midnightblue" points="21.1029,-91.6798 22.8964,-81.2378 14.9827,-88.2822 21.1029,-91.6798"/>
</g>
<!-- Node3 -->
<g id="node3" class="node"><title>Node3</title>
<polygon fill="white" stroke="#bfbfbf" points="1573.5,-129 1573.5,-148 1625.5,-148 1625.5,-129 1573.5,-129"/>
<text text-anchor="middle" x="1599.5" y="-136" font-family="Helvetica,sans-Serif" font-size="10.00">assert.h</text>
</g>
<!-- Node1&#45;&gt;Node3 -->
<g id="edge2" class="edge"><title>Node1&#45;&gt;Node3</title>
<path fill="none" stroke="midnightblue" d="M1194.27,-201.148C1283.48,-196.038 1433.65,-183.551 1559.5,-154 1562.57,-153.28 1565.72,-152.398 1568.85,-151.428"/>
<polygon fill="midnightblue" stroke="midnightblue" points="1570.26,-154.644 1578.61,-148.118 1568.01,-148.015 1570.26,-154.644"/>
</g>
<!-- Node4 -->
<g id="node4" class="node"><title>Node4</title>
<polygon fill="white" stroke="#bfbfbf" points="1644,-129 1644,-148 1691,-148 1691,-129 1644,-129"/>
<text text-anchor="middle" x="1667.5" y="-136" font-family="Helvetica,sans-Serif" font-size="10.00">math.h</text>
</g>
<!-- Node1&#45;&gt;Node4 -->
<g id="edge3" class="edge"><title>Node1&#45;&gt;Node4</title>
<path fill="none" stroke="midnightblue" d="M1194.19,-204.524C1296.69,-202.845 1481.95,-193.862 1634.5,-154 1636.8,-153.399 1639.14,-152.658 1641.46,-151.831"/>
<polygon fill="midnightblue" stroke="midnightblue" points="1642.78,-155.075 1650.74,-148.088 1640.16,-148.584 1642.78,-155.075"/>
</g>
<!-- Node5 -->
<g id="node5" class="node"><title>Node5</title>
<polygon fill="white" stroke="#bfbfbf" points="1472.5,-62 1472.5,-81 1524.5,-81 1524.5,-62 1472.5,-62"/>
<text text-anchor="middle" x="1498.5" y="-69" font-family="Helvetica,sans-Serif" font-size="10.00">stdarg.h</text>
</g>
<!-- Node1&#45;&gt;Node5 -->
<g id="edge4" class="edge"><title>Node1&#45;&gt;Node5</title>
<path fill="none" stroke="midnightblue" d="M1194.05,-200.408C1306.77,-193.656 1504.88,-178.444 1526.5,-154 1542.85,-135.508 1526.49,-106.997 1512.8,-89.0635"/>
<polygon fill="midnightblue" stroke="midnightblue" points="1515.45,-86.7776 1506.44,-81.1998 1510.01,-91.1775 1515.45,-86.7776"/>
</g>
<!-- Node6 -->
<g id="node6" class="node"><title>Node6</title>
<polygon fill="white" stroke="#bfbfbf" points="1336.5,-62 1336.5,-81 1382.5,-81 1382.5,-62 1336.5,-62"/>
<text text-anchor="middle" x="1359.5" y="-69" font-family="Helvetica,sans-Serif" font-size="10.00">stdio.h</text>
</g>
<!-- Node1&#45;&gt;Node6 -->
<g id="edge5" class="edge"><title>Node1&#45;&gt;Node6</title>
<path fill="none" stroke="midnightblue" d="M1194.17,-195.816C1250.37,-187.952 1319.92,-174.432 1340.5,-154 1357.06,-137.556 1360.32,-109.653 1360.45,-91.1507"/>
<polygon fill="midnightblue" stroke="midnightblue" points="1363.95,-90.948 1360.22,-81.0314 1356.95,-91.1095 1363.95,-90.948"/>
</g>
<!-- Node7 -->
<g id="node7" class="node"><title>Node7</title>
<polygon fill="white" stroke="#bfbfbf" points="1709.5,-129 1709.5,-148 1757.5,-148 1757.5,-129 1709.5,-129"/>
<text text-anchor="middle" x="1733.5" y="-136" font-family="Helvetica,sans-Serif" font-size="10.00">stdlib.h</text>
</g>
<!-- Node1&#45;&gt;Node7 -->
<g id="edge6" class="edge"><title>Node1&#45;&gt;Node7</title>
<path fill="none" stroke="midnightblue" d="M1194.26,-200.933C1330.51,-194.157 1606.83,-177.931 1700.5,-154 1702.8,-153.412 1705.15,-152.679 1707.47,-151.858"/>
<polygon fill="midnightblue" stroke="midnightblue" points="1708.78,-155.104 1716.75,-148.125 1706.17,-148.61 1708.78,-155.104"/>
</g>
<!-- Node8 -->
<g id="node8" class="node"><title>Node8</title>
<polygon fill="white" stroke="#bfbfbf" points="1776,-129 1776,-148 1825,-148 1825,-129 1776,-129"/>
<text text-anchor="middle" x="1800.5" y="-136" font-family="Helvetica,sans-Serif" font-size="10.00">string.h</text>
</g>
<!-- Node1&#45;&gt;Node8 -->
<g id="edge7" class="edge"><title>Node1&#45;&gt;Node8</title>
<path fill="none" stroke="midnightblue" d="M1194.22,-201.624C1342.39,-195.619 1660,-180.099 1766.5,-154 1768.87,-153.42 1771.28,-152.693 1773.67,-151.876"/>
<polygon fill="midnightblue" stroke="midnightblue" points="1775.18,-155.043 1783.23,-148.15 1772.64,-148.522 1775.18,-155.043"/>
</g>
<!-- Node9 -->
<g id="node9" class="node"><title>Node9</title>
<g id="a_node9"><a xlink:href="gpu__utils_8h.xhtml" target="_top" xlink:title="Declare functions for detection and initialization for GPU devices. ">
<polygon fill="white" stroke="black" points="508,-123.5 508,-153.5 623,-153.5 623,-123.5 508,-123.5"/>
<text text-anchor="start" x="516" y="-141.5" font-family="Helvetica,sans-Serif" font-size="10.00">gromacs/gpu_utils/gpu</text>
<text text-anchor="middle" x="565.5" y="-130.5" font-family="Helvetica,sans-Serif" font-size="10.00">_utils.h</text>
</a>
</g>
</g>
<!-- Node1&#45;&gt;Node9 -->
<g id="edge8" class="edge"><title>Node1&#45;&gt;Node9</title>
<path fill="none" stroke="midnightblue" d="M1038.87,-199.123C944.96,-192.012 781.941,-177.724 633.246,-154.174"/>
<polygon fill="midnightblue" stroke="midnightblue" points="633.448,-150.662 623.02,-152.536 632.34,-157.574 633.448,-150.662"/>
</g>
<!-- Node14 -->
<g id="node14" class="node"><title>Node14</title>
<g id="a_node14"><a xlink:href="oclutils_8h.xhtml" target="_top" xlink:title="Declare utility routines for OpenCL. ">
<polygon fill="white" stroke="black" points="185.5,-129 185.5,-148 323.5,-148 323.5,-129 185.5,-129"/>
<text text-anchor="middle" x="254.5" y="-136" font-family="Helvetica,sans-Serif" font-size="10.00">gromacs/gpu_utils/oclutils.h</text>
</a>
</g>
</g>
<!-- Node1&#45;&gt;Node14 -->
<g id="edge13" class="edge"><title>Node1&#45;&gt;Node14</title>
<path fill="none" stroke="midnightblue" d="M1038.85,-202.249C898.444,-197.56 593.185,-184.531 337.5,-154 328.014,-152.867 317.965,-151.369 308.259,-149.765"/>
<polygon fill="midnightblue" stroke="midnightblue" points="308.752,-146.298 298.306,-148.066 307.574,-153.199 308.752,-146.298"/>
</g>
<!-- Node17 -->
<g id="node17" class="node"><title>Node17</title>
<g id="a_node17"><a xlink:href="nbnxn__gpu_8h.xhtml" target="_top" xlink:title="Declare interface for GPU execution for NBNXN module. ">
<polygon fill="white" stroke="black" points="379.5,-123.5 379.5,-153.5 489.5,-153.5 489.5,-123.5 379.5,-123.5"/>
<text text-anchor="start" x="387.5" y="-141.5" font-family="Helvetica,sans-Serif" font-size="10.00">gromacs/mdlib/nbnxn</text>
<text text-anchor="middle" x="434.5" y="-130.5" font-family="Helvetica,sans-Serif" font-size="10.00">_gpu.h</text>
</a>
</g>
</g>
<!-- Node1&#45;&gt;Node17 -->
<g id="edge16" class="edge"><title>Node1&#45;&gt;Node17</title>
<path fill="none" stroke="midnightblue" d="M1038.53,-201.662C922.868,-196.67 698.951,-184.005 499.636,-154.027"/>
<polygon fill="midnightblue" stroke="midnightblue" points="499.976,-150.539 489.564,-152.494 498.923,-157.459 499.976,-150.539"/>
</g>
<!-- Node18 -->
<g id="node18" class="node"><title>Node18</title>
<g id="a_node18"><a xlink:href="real_8h.xhtml" target="_top" xlink:title="Declares real and related constants. ">
<polygon fill="white" stroke="black" points="298,-0.5 298,-19.5 405,-19.5 405,-0.5 298,-0.5"/>
<text text-anchor="middle" x="351.5" y="-7.5" font-family="Helvetica,sans-Serif" font-size="10.00">gromacs/utility/real.h</text>
</a>
</g>
</g>
<!-- Node1&#45;&gt;Node18 -->
<g id="edge35" class="edge"><title>Node1&#45;&gt;Node18</title>
<path fill="none" stroke="midnightblue" d="M1038.99,-204.695C857.857,-204.391 418.472,-198.974 370.5,-154 336.327,-121.964 341.946,-60.4101 347.453,-29.5692"/>
<polygon fill="midnightblue" stroke="midnightblue" points="350.897,-30.1969 349.403,-19.7079 344.03,-28.8388 350.897,-30.1969"/>
</g>
<!-- Node19 -->
<g id="node19" class="node"><title>Node19</title>
<g id="a_node19"><a xlink:href="nbnxn__gpu__data__mgmt_8h.xhtml" target="_top" xlink:title="Declare interface for GPU data transfer for NBNXN module. ">
<polygon fill="white" stroke="black" points="1843.5,-123.5 1843.5,-153.5 1953.5,-153.5 1953.5,-123.5 1843.5,-123.5"/>
<text text-anchor="start" x="1851.5" y="-141.5" font-family="Helvetica,sans-Serif" font-size="10.00">gromacs/mdlib/nbnxn</text>
<text text-anchor="middle" x="1898.5" y="-130.5" font-family="Helvetica,sans-Serif" font-size="10.00">_gpu_data_mgmt.h</text>
</a>
</g>
</g>
<!-- Node1&#45;&gt;Node19 -->
<g id="edge19" class="edge"><title>Node1&#45;&gt;Node19</title>
<path fill="none" stroke="midnightblue" d="M1194.22,-202.914C1324.53,-199.401 1595.36,-188.452 1833.21,-154.032"/>
<polygon fill="midnightblue" stroke="midnightblue" points="1834.06,-157.447 1843.44,-152.535 1833.04,-150.52 1834.06,-157.447"/>
</g>
<!-- Node20 -->
<g id="node20" class="node"><title>Node20</title>
<g id="a_node20"><a xlink:href="nbnxn__gpu__jit__support_8h.xhtml" target="_top" xlink:title="Declares functions that support JIT compilation (e.g. for OpenCL) ">
<polygon fill="white" stroke="black" points="770.5,-123.5 770.5,-153.5 880.5,-153.5 880.5,-123.5 770.5,-123.5"/>
<text text-anchor="start" x="778.5" y="-141.5" font-family="Helvetica,sans-Serif" font-size="10.00">gromacs/mdlib/nbnxn</text>
<text text-anchor="middle" x="825.5" y="-130.5" font-family="Helvetica,sans-Serif" font-size="10.00">_gpu_jit_support.h</text>
</a>
</g>
</g>
<!-- Node1&#45;&gt;Node20 -->
<g id="edge20" class="edge"><title>Node1&#45;&gt;Node20</title>
<path fill="none" stroke="midnightblue" d="M1052.88,-190.417C1009.77,-180.856 951.217,-167.842 890.766,-154.28"/>
<polygon fill="midnightblue" stroke="midnightblue" points="891.179,-150.785 880.655,-152.01 889.646,-157.616 891.179,-150.785"/>
</g>
<!-- Node21 -->
<g id="node21" class="node"><title>Node21</title>
<g id="a_node21"><a xlink:href="md__enums_8h.xhtml" target="_top" xlink:title="Declares enumerated types used throughout the code. ">
<polygon fill="white" stroke="black" points="641,-123.5 641,-153.5 752,-153.5 752,-123.5 641,-123.5"/>
<text text-anchor="start" x="649" y="-141.5" font-family="Helvetica,sans-Serif" font-size="10.00">gromacs/mdtypes/md</text>
<text text-anchor="middle" x="696.5" y="-130.5" font-family="Helvetica,sans-Serif" font-size="10.00">_enums.h</text>
</a>
</g>
</g>
<!-- Node1&#45;&gt;Node21 -->
<g id="edge22" class="edge"><title>Node1&#45;&gt;Node21</title>
<path fill="none" stroke="midnightblue" d="M1038.66,-195.205C968.866,-186.464 863.483,-172.264 762.213,-154.04"/>
<polygon fill="midnightblue" stroke="midnightblue" points="762.575,-150.548 752.111,-152.206 761.325,-157.436 762.575,-150.548"/>
</g>
<!-- Node22 -->
<g id="node22" class="node"><title>Node22</title>
<g id="a_node22"><a xlink:href="gpu__timing_8h.xhtml" target="_top" xlink:title="Declares data types for GPU timing. ">
<polygon fill="white" stroke="black" points="1971.5,-123.5 1971.5,-153.5 2073.5,-153.5 2073.5,-123.5 1971.5,-123.5"/>
<text text-anchor="start" x="1979.5" y="-141.5" font-family="Helvetica,sans-Serif" font-size="10.00">gromacs/timing/gpu</text>
<text text-anchor="middle" x="2022.5" y="-130.5" font-family="Helvetica,sans-Serif" font-size="10.00">_timing.h</text>
</a>
</g>
</g>
<!-- Node1&#45;&gt;Node22 -->
<g id="edge24" class="edge"><title>Node1&#45;&gt;Node22</title>
<path fill="none" stroke="midnightblue" d="M1194.25,-204.455C1342.11,-203.368 1673.93,-196.124 1961.04,-154.035"/>
<polygon fill="midnightblue" stroke="midnightblue" points="1961.85,-157.453 1971.23,-152.523 1960.83,-150.528 1961.85,-157.453"/>
</g>
<!-- Node23 -->
<g id="node23" class="node"><title>Node23</title>
<g id="a_node23"><a xlink:href="cstringutil_8h.xhtml" target="_top" xlink:title="Generic C string handling functions. ">
<polygon fill="white" stroke="black" points="1197.5,-129 1197.5,-148 1331.5,-148 1331.5,-129 1197.5,-129"/>
<text text-anchor="middle" x="1264.5" y="-136" font-family="Helvetica,sans-Serif" font-size="10.00">gromacs/utility/cstringutil.h</text>
</a>
</g>
</g>
<!-- Node1&#45;&gt;Node23 -->
<g id="edge25" class="edge"><title>Node1&#45;&gt;Node23</title>
<path fill="none" stroke="midnightblue" d="M1148.61,-190.396C1174.58,-178.991 1210.81,-163.079 1235.82,-152.098"/>
<polygon fill="midnightblue" stroke="midnightblue" points="1237.38,-155.233 1245.13,-148.007 1234.57,-148.824 1237.38,-155.233"/>
</g>
<!-- Node24 -->
<g id="node24" class="node"><title>Node24</title>
<g id="a_node24"><a xlink:href="fatalerror_8h.xhtml" target="_top" xlink:title="Declares fatal error handling and debugging routines for C code. ">
<polygon fill="white" stroke="black" points="1387.5,-129 1387.5,-148 1517.5,-148 1517.5,-129 1387.5,-129"/>
<text text-anchor="middle" x="1452.5" y="-136" font-family="Helvetica,sans-Serif" font-size="10.00">gromacs/utility/fatalerror.h</text>
</a>
</g>
</g>
<!-- Node1&#45;&gt;Node24 -->
<g id="edge28" class="edge"><title>Node1&#45;&gt;Node24</title>
<path fill="none" stroke="midnightblue" d="M1188.99,-190.476C1251.96,-178.294 1341.74,-160.927 1398.55,-149.937"/>
<polygon fill="midnightblue" stroke="midnightblue" points="1399.26,-153.364 1408.41,-148.029 1397.93,-146.492 1399.26,-153.364"/>
</g>
<!-- Node25 -->
<g id="node25" class="node"><title>Node25</title>
<g id="a_node25"><a xlink:href="gmxassert_8h.xhtml" target="_top" xlink:title="Defines assert macros customized for Gromacs. ">
<polygon fill="white" stroke="black" points="899,-129 899,-148 1036,-148 1036,-129 899,-129"/>
<text text-anchor="middle" x="967.5" y="-136" font-family="Helvetica,sans-Serif" font-size="10.00">gromacs/utility/gmxassert.h</text>
</a>
</g>
</g>
<!-- Node1&#45;&gt;Node25 -->
<g id="edge32" class="edge"><title>Node1&#45;&gt;Node25</title>
<path fill="none" stroke="midnightblue" d="M1084.17,-190.396C1058.03,-178.991 1021.55,-163.079 996.378,-152.098"/>
<polygon fill="midnightblue" stroke="midnightblue" points="997.566,-148.798 987.001,-148.007 994.767,-155.214 997.566,-148.798"/>
</g>
<!-- Node27 -->
<g id="node27" class="node"><title>Node27</title>
<g id="a_node27"><a xlink:href="smalloc_8h.xhtml" target="_top" xlink:title="C memory allocation routines for GROMACS. ">
<polygon fill="white" stroke="black" points="1054,-129 1054,-148 1179,-148 1179,-129 1054,-129"/>
<text text-anchor="middle" x="1116.5" y="-136" font-family="Helvetica,sans-Serif" font-size="10.00">gromacs/utility/smalloc.h</text>
</a>
</g>
</g>
<!-- Node1&#45;&gt;Node27 -->
<g id="edge36" class="edge"><title>Node1&#45;&gt;Node27</title>
<path fill="none" stroke="midnightblue" d="M1116.5,-190.396C1116.5,-181.064 1116.5,-168.714 1116.5,-158.517"/>
<polygon fill="midnightblue" stroke="midnightblue" points="1120,-158.195 1116.5,-148.195 1113,-158.195 1120,-158.195"/>
</g>
<!-- Node29 -->
<g id="node29" class="node"><title>Node29</title>
<g id="a_node29"><a xlink:href="nbnxn__ocl__internal_8h.xhtml" target="_top" xlink:title="Internal API of the OpenCL non&#45;bonded module. ">
<polygon fill="white" stroke="black" points="23.5,-129 23.5,-148 129.5,-148 129.5,-129 23.5,-129"/>
<text text-anchor="middle" x="76.5" y="-136" font-family="Helvetica,sans-Serif" font-size="10.00">nbnxn_ocl_internal.h</text>
</a>
</g>
</g>
<!-- Node1&#45;&gt;Node29 -->
<g id="edge39" class="edge"><title>Node1&#45;&gt;Node29</title>
<path fill="none" stroke="midnightblue" d="M1038.86,-204.707C873.456,-204.219 474.436,-198.105 143.5,-154 136.036,-153.005 128.168,-151.616 120.553,-150.089"/>
<polygon fill="midnightblue" stroke="midnightblue" points="121.249,-146.659 110.742,-148.023 119.806,-153.509 121.249,-146.659"/>
</g>
<!-- Node30 -->
<g id="node30" class="node"><title>Node30</title>
<g id="a_node30"><a xlink:href="nbnxn__ocl__types_8h.xhtml" target="_top" xlink:title="Data types used internally in the nbnxn_ocl module. ">
<polygon fill="white" stroke="black" points="108.5,-62 108.5,-81 206.5,-81 206.5,-62 108.5,-62"/>
<text text-anchor="middle" x="157.5" y="-69" font-family="Helvetica,sans-Serif" font-size="10.00">nbnxn_ocl_types.h</text>
</a>
</g>
</g>
<!-- Node1&#45;&gt;Node30 -->
<g id="edge44" class="edge"><title>Node1&#45;&gt;Node30</title>
<path fill="none" stroke="midnightblue" d="M1038.76,-202.846C819.397,-197.848 209.336,-181.529 176.5,-154 158.436,-138.856 155.637,-110.171 156.01,-91.1928"/>
<polygon fill="midnightblue" stroke="midnightblue" points="159.512,-91.2413 156.524,-81.0766 152.521,-90.8861 159.512,-91.2413"/>
</g>
<!-- Node10 -->
<g id="node10" class="node"><title>Node10</title>
<polygon fill="white" stroke="#bfbfbf" points="544,-62 544,-81 587,-81 587,-62 544,-62"/>
<text text-anchor="middle" x="565.5" y="-69" font-family="Helvetica,sans-Serif" font-size="10.00">cstdio</text>
</g>
<!-- Node9&#45;&gt;Node10 -->
<g id="edge9" class="edge"><title>Node9&#45;&gt;Node10</title>
<path fill="none" stroke="midnightblue" d="M565.5,-123.396C565.5,-114.064 565.5,-101.714 565.5,-91.5173"/>
<polygon fill="midnightblue" stroke="midnightblue" points="569,-91.1945 565.5,-81.1945 562,-91.1946 569,-91.1945"/>
</g>
<!-- Node11 -->
<g id="node11" class="node"><title>Node11</title>
<g id="a_node11"><a xlink:href="basedefinitions_8h.xhtml" target="_top" xlink:title="Basic types and macros used throughout GROMACS. ">
<polygon fill="white" stroke="black" points="747,-62 747,-81 904,-81 904,-62 747,-62"/>
<text text-anchor="middle" x="825.5" y="-69" font-family="Helvetica,sans-Serif" font-size="10.00">gromacs/utility/basedefinitions.h</text>
</a>
</g>
</g>
<!-- Node9&#45;&gt;Node11 -->
<g id="edge10" class="edge"><title>Node9&#45;&gt;Node11</title>
<path fill="none" stroke="midnightblue" d="M621.596,-123.476C669.515,-111.496 737.496,-94.5011 781.547,-83.4881"/>
<polygon fill="midnightblue" stroke="midnightblue" points="782.533,-86.8496 791.385,-81.0287 780.835,-80.0586 782.533,-86.8496"/>
</g>
<!-- Node12 -->
<g id="node12" class="node"><title>Node12</title>
<polygon fill="white" stroke="#bfbfbf" points="765,-0.5 765,-19.5 814,-19.5 814,-0.5 765,-0.5"/>
<text text-anchor="middle" x="789.5" y="-7.5" font-family="Helvetica,sans-Serif" font-size="10.00">stdint.h</text>
</g>
<!-- Node11&#45;&gt;Node12 -->
<g id="edge11" class="edge"><title>Node11&#45;&gt;Node12</title>
<path fill="none" stroke="midnightblue" d="M820.342,-61.9751C815.049,-53.2268 806.665,-39.3691 799.973,-28.3093"/>
<polygon fill="midnightblue" stroke="midnightblue" points="802.82,-26.2531 794.648,-19.5091 796.83,-29.8768 802.82,-26.2531"/>
</g>
<!-- Node13 -->
<g id="node13" class="node"><title>Node13</title>
<polygon fill="white" stroke="#bfbfbf" points="832,-0.5 832,-19.5 891,-19.5 891,-0.5 832,-0.5"/>
<text text-anchor="middle" x="861.5" y="-7.5" font-family="Helvetica,sans-Serif" font-size="10.00">inttypes.h</text>
</g>
<!-- Node11&#45;&gt;Node13 -->
<g id="edge12" class="edge"><title>Node11&#45;&gt;Node13</title>
<path fill="none" stroke="midnightblue" d="M830.658,-61.9751C835.951,-53.2268 844.335,-39.3691 851.027,-28.3093"/>
<polygon fill="midnightblue" stroke="midnightblue" points="854.17,-29.8768 856.352,-19.5091 848.18,-26.2531 854.17,-29.8768"/>
</g>
<!-- Node15 -->
<g id="node15" class="node"><title>Node15</title>
<polygon fill="white" stroke="#bfbfbf" points="162,-0.5 162,-19.5 231,-19.5 231,-0.5 162,-0.5"/>
<text text-anchor="middle" x="196.5" y="-7.5" font-family="Helvetica,sans-Serif" font-size="10.00">CL/opencl.h</text>
</g>
<!-- Node14&#45;&gt;Node15 -->
<g id="edge14" class="edge"><title>Node14&#45;&gt;Node15</title>
<path fill="none" stroke="midnightblue" d="M250.513,-128.805C241.118,-108.313 217.428,-56.6451 204.772,-29.0416"/>
<polygon fill="midnightblue" stroke="midnightblue" points="207.864,-27.387 200.514,-19.7557 201.501,-30.3045 207.864,-27.387"/>
</g>
<!-- Node16 -->
<g id="node16" class="node"><title>Node16</title>
<polygon fill="white" stroke="#bfbfbf" points="263,-62 263,-81 304,-81 304,-62 263,-62"/>
<text text-anchor="middle" x="283.5" y="-69" font-family="Helvetica,sans-Serif" font-size="10.00">string</text>
</g>
<!-- Node14&#45;&gt;Node16 -->
<g id="edge15" class="edge"><title>Node14&#45;&gt;Node16</title>
<path fill="none" stroke="midnightblue" d="M258.411,-128.734C262.759,-118.988 269.901,-102.981 275.455,-90.5318"/>
<polygon fill="midnightblue" stroke="midnightblue" points="278.773,-91.6857 279.651,-81.1273 272.38,-88.8336 278.773,-91.6857"/>
</g>
<!-- Node17&#45;&gt;Node11 -->
<g id="edge17" class="edge"><title>Node17&#45;&gt;Node11</title>
<path fill="none" stroke="midnightblue" d="M489.607,-124.759C492.611,-124.144 495.59,-123.554 498.5,-123 585.053,-106.533 685.271,-91.6701 751.712,-82.4006"/>
<polygon fill="midnightblue" stroke="midnightblue" points="752.247,-85.86 761.67,-81.0178 751.284,-78.9265 752.247,-85.86"/>
</g>
<!-- Node17&#45;&gt;Node18 -->
<g id="edge18" class="edge"><title>Node17&#45;&gt;Node18</title>
<path fill="none" stroke="midnightblue" d="M425.3,-123.479C410.031,-100.206 379.492,-53.6633 362.887,-28.3555"/>
<polygon fill="midnightblue" stroke="midnightblue" points="365.679,-26.2294 357.266,-19.7885 359.826,-30.0696 365.679,-26.2294"/>
</g>
<!-- Node20&#45;&gt;Node11 -->
<g id="edge21" class="edge"><title>Node20&#45;&gt;Node11</title>
<path fill="none" stroke="midnightblue" d="M825.5,-123.396C825.5,-114.064 825.5,-101.714 825.5,-91.5173"/>
<polygon fill="midnightblue" stroke="midnightblue" points="829,-91.1945 825.5,-81.1945 822,-91.1946 829,-91.1945"/>
</g>
<!-- Node21&#45;&gt;Node11 -->
<g id="edge23" class="edge"><title>Node21&#45;&gt;Node11</title>
<path fill="none" stroke="midnightblue" d="M724.491,-123.396C746.825,-112.142 777.867,-96.501 799.626,-85.5375"/>
<polygon fill="midnightblue" stroke="midnightblue" points="801.261,-88.6325 808.617,-81.007 798.112,-82.3812 801.261,-88.6325"/>
</g>
<!-- Node23&#45;&gt;Node6 -->
<g id="edge26" class="edge"><title>Node23&#45;&gt;Node6</title>
<path fill="none" stroke="midnightblue" d="M1277.31,-128.734C1292.98,-118.013 1319.72,-99.7165 1338.43,-86.9137"/>
<polygon fill="midnightblue" stroke="midnightblue" points="1340.61,-89.6628 1346.89,-81.1273 1336.66,-83.8856 1340.61,-89.6628"/>
</g>
<!-- Node23&#45;&gt;Node11 -->
<g id="edge27" class="edge"><title>Node23&#45;&gt;Node11</title>
<path fill="none" stroke="midnightblue" d="M1221.97,-128.929C1211.08,-126.86 1199.38,-124.745 1188.5,-123 1066.36,-103.4 1034.86,-105.171 912.5,-87 903.49,-85.662 893.97,-84.163 884.664,-82.6499"/>
<polygon fill="midnightblue" stroke="midnightblue" points="885.118,-79.1777 874.683,-81.0095 883.983,-86.0851 885.118,-79.1777"/>
</g>
<!-- Node24&#45;&gt;Node5 -->
<g id="edge29" class="edge"><title>Node24&#45;&gt;Node5</title>
<path fill="none" stroke="midnightblue" d="M1458.7,-128.734C1465.81,-118.695 1477.61,-102.014 1486.52,-89.4213"/>
<polygon fill="midnightblue" stroke="midnightblue" points="1489.47,-91.3119 1492.39,-81.1273 1483.76,-87.2682 1489.47,-91.3119"/>
</g>
<!-- Node24&#45;&gt;Node6 -->
<g id="edge30" class="edge"><title>Node24&#45;&gt;Node6</title>
<path fill="none" stroke="midnightblue" d="M1439.96,-128.734C1424.62,-118.013 1398.44,-99.7165 1380.12,-86.9137"/>
<polygon fill="midnightblue" stroke="midnightblue" points="1382.05,-83.9873 1371.84,-81.1273 1378.04,-89.7248 1382.05,-83.9873"/>
</g>
<!-- Node24&#45;&gt;Node11 -->
<g id="edge31" class="edge"><title>Node24&#45;&gt;Node11</title>
<path fill="none" stroke="midnightblue" d="M1390.65,-128.988C1374.35,-126.884 1356.78,-124.738 1340.5,-123 1150.68,-102.74 1101.92,-110.711 912.5,-87 902.7,-85.7732 892.315,-84.2442 882.263,-82.643"/>
<polygon fill="midnightblue" stroke="midnightblue" points="882.788,-79.1826 872.355,-81.0264 881.661,-86.0912 882.788,-79.1826"/>
</g>
<!-- Node25&#45;&gt;Node11 -->
<g id="edge33" class="edge"><title>Node25&#45;&gt;Node11</title>
<path fill="none" stroke="midnightblue" d="M948.643,-128.869C924.349,-117.748 881.899,-98.3167 853.744,-85.4286"/>
<polygon fill="midnightblue" stroke="midnightblue" points="854.984,-82.147 844.434,-81.1672 852.07,-88.5118 854.984,-82.147"/>
</g>
<!-- Node26 -->
<g id="node26" class="node"><title>Node26</title>
<g id="a_node26"><a xlink:href="current__function_8h.xhtml" target="_top" xlink:title="Declares GMX_CURRENT_FUNCTION for getting the current function name. ">
<polygon fill="white" stroke="black" points="922,-56.5 922,-86.5 1035,-86.5 1035,-56.5 922,-56.5"/>
<text text-anchor="start" x="930" y="-74.5" font-family="Helvetica,sans-Serif" font-size="10.00">gromacs/utility/current</text>
<text text-anchor="middle" x="978.5" y="-63.5" font-family="Helvetica,sans-Serif" font-size="10.00">_function.h</text>
</a>
</g>
</g>
<!-- Node25&#45;&gt;Node26 -->
<g id="edge34" class="edge"><title>Node25&#45;&gt;Node26</title>
<path fill="none" stroke="midnightblue" d="M968.984,-128.734C970.37,-120.541 972.505,-107.923 974.402,-96.7136"/>
<polygon fill="midnightblue" stroke="midnightblue" points="977.898,-97.0329 976.116,-86.589 970.996,-95.8648 977.898,-97.0329"/>
</g>
<!-- Node27&#45;&gt;Node11 -->
<g id="edge38" class="edge"><title>Node27&#45;&gt;Node11</title>
<path fill="none" stroke="midnightblue" d="M1078.16,-128.936C1025.6,-117.196 931.179,-96.1052 873.838,-83.2971"/>
<polygon fill="midnightblue" stroke="midnightblue" points="874.45,-79.8476 863.927,-81.0834 872.924,-86.6793 874.45,-79.8476"/>
</g>
<!-- Node28 -->
<g id="node28" class="node"><title>Node28</title>
<polygon fill="white" stroke="#bfbfbf" points="1090.5,-62 1090.5,-81 1142.5,-81 1142.5,-62 1090.5,-62"/>
<text text-anchor="middle" x="1116.5" y="-69" font-family="Helvetica,sans-Serif" font-size="10.00">stddef.h</text>
</g>
<!-- Node27&#45;&gt;Node28 -->
<g id="edge37" class="edge"><title>Node27&#45;&gt;Node28</title>
<path fill="none" stroke="midnightblue" d="M1116.5,-128.734C1116.5,-119.183 1116.5,-103.618 1116.5,-91.2829"/>
<polygon fill="midnightblue" stroke="midnightblue" points="1120,-91.1273 1116.5,-81.1273 1113,-91.1273 1120,-91.1273"/>
</g>
<!-- Node29&#45;&gt;Node2 -->
<g id="edge40" class="edge"><title>Node29&#45;&gt;Node2</title>
<path fill="none" stroke="midnightblue" d="M70.0265,-128.734C62.6135,-118.695 50.2953,-102.014 40.9957,-89.4213"/>
<polygon fill="midnightblue" stroke="midnightblue" points="43.6269,-87.0925 34.8709,-81.1273 37.9959,-91.2508 43.6269,-87.0925"/>
</g>
<!-- Node29&#45;&gt;Node30 -->
<g id="edge41" class="edge"><title>Node29&#45;&gt;Node30</title>
<path fill="none" stroke="midnightblue" d="M87.424,-128.734C100.541,-118.208 122.758,-100.379 138.661,-87.6174"/>
<polygon fill="midnightblue" stroke="midnightblue" points="141.14,-90.1158 146.749,-81.1273 136.759,-84.6563 141.14,-90.1158"/>
</g>
<!-- Node30&#45;&gt;Node15 -->
<g id="edge42" class="edge"><title>Node30&#45;&gt;Node15</title>
<path fill="none" stroke="midnightblue" d="M163.088,-61.9751C168.88,-53.1384 178.089,-39.0886 185.374,-27.975"/>
<polygon fill="midnightblue" stroke="midnightblue" points="188.368,-29.7913 190.923,-19.5091 182.513,-25.9539 188.368,-29.7913"/>
</g>
<!-- Node30&#45;&gt;Node18 -->
<g id="edge43" class="edge"><title>Node30&#45;&gt;Node18</title>
<path fill="none" stroke="midnightblue" d="M185.295,-61.9751C219.15,-51.592 276.471,-34.0116 314.155,-22.4538"/>
<polygon fill="midnightblue" stroke="midnightblue" points="315.222,-25.7875 323.756,-19.5091 313.169,-19.0952 315.222,-25.7875"/>
</g>
</g>
</svg>
