<?xml version="1.0" encoding="UTF-8" standalone="no"?>
<!DOCTYPE svg PUBLIC "-//W3C//DTD SVG 1.1//EN"
 "http://www.w3.org/Graphics/SVG/1.1/DTD/svg11.dtd">
<!-- Generated by graphviz version 2.38.0 (20140413.2041)
 -->
<!-- Title: src/gromacs/mdlib/nbnxn_ocl/nbnxn_ocl.cpp Pages: 1 -->
<svg width="1384pt" height="229pt"
 viewBox="0.00 0.00 1383.50 229.00" xmlns="http://www.w3.org/2000/svg" xmlns:xlink="http://www.w3.org/1999/xlink">
<g id="graph0" class="graph" transform="scale(1 1) rotate(0) translate(4 225)">
<title>src/gromacs/mdlib/nbnxn_ocl/nbnxn_ocl.cpp</title>
<polygon fill="white" stroke="none" points="-4,4 -4,-225 1379.5,-225 1379.5,4 -4,4"/>
<!-- Node1 -->
<g id="node1" class="node"><title>Node1</title>
<polygon fill="#bfbfbf" stroke="black" points="510,-190.5 510,-220.5 636,-220.5 636,-190.5 510,-190.5"/>
<text text-anchor="start" x="518" y="-208.5" font-family="Helvetica,sans-Serif" font-size="10.00">src/gromacs/mdlib/nbnxn</text>
<text text-anchor="middle" x="573" y="-197.5" font-family="Helvetica,sans-Serif" font-size="10.00">_ocl/nbnxn_ocl.cpp</text>
</g>
<!-- Node2 -->
<g id="node2" class="node"><title>Node2</title>
<g id="a_node2"><a xlink:href="gmxpre_8h.xhtml" target="_top" xlink:title="Prerequisite header file for GROMACS build. ">
<polygon fill="white" stroke="black" points="445.5,-62 445.5,-81 502.5,-81 502.5,-62 445.5,-62"/>
<text text-anchor="middle" x="474" y="-69" font-family="Helvetica,sans-Serif" font-size="10.00">gmxpre.h</text>
</a>
</g>
</g>
<!-- Node1&#45;&gt;Node2 -->
<g id="edge1" class="edge"><title>Node1&#45;&gt;Node2</title>
<path fill="none" stroke="midnightblue" d="M509.57,-195.181C463.039,-186.895 405.537,-173.121 391,-154 382.661,-143.032 384.249,-135.01 391,-123 400.972,-105.259 419.982,-93.0235 437.295,-85.0445"/>
<polygon fill="midnightblue" stroke="midnightblue" points="438.847,-88.1872 446.67,-81.0417 436.099,-81.7494 438.847,-88.1872"/>
</g>
<!-- Node3 -->
<g id="node3" class="node"><title>Node3</title>
<polygon fill="white" stroke="#bfbfbf" points="156.5,-129 156.5,-148 207.5,-148 207.5,-129 156.5,-129"/>
<text text-anchor="middle" x="182" y="-136" font-family="Helvetica,sans-Serif" font-size="10.00">config.h</text>
</g>
<!-- Node1&#45;&gt;Node3 -->
<g id="edge2" class="edge"><title>Node1&#45;&gt;Node3</title>
<path fill="none" stroke="midnightblue" d="M509.973,-200.374C438.055,-194.564 317.409,-181.447 217,-154 214.557,-153.332 212.058,-152.537 209.574,-151.669"/>
<polygon fill="midnightblue" stroke="midnightblue" points="210.812,-148.395 200.223,-148.066 208.296,-154.927 210.812,-148.395"/>
</g>
<!-- Node4 -->
<g id="node4" class="node"><title>Node4</title>
<polygon fill="white" stroke="#bfbfbf" points="226,-129 226,-148 278,-148 278,-129 226,-129"/>
<text text-anchor="middle" x="252" y="-136" font-family="Helvetica,sans-Serif" font-size="10.00">assert.h</text>
</g>
<!-- Node1&#45;&gt;Node4 -->
<g id="edge3" class="edge"><title>Node1&#45;&gt;Node4</title>
<path fill="none" stroke="midnightblue" d="M509.893,-197.375C451.334,-189.823 362.148,-175.916 287,-154 284.709,-153.332 282.365,-152.562 280.028,-151.732"/>
<polygon fill="midnightblue" stroke="midnightblue" points="281.21,-148.437 270.62,-148.095 278.685,-154.966 281.21,-148.437"/>
</g>
<!-- Node5 -->
<g id="node5" class="node"><title>Node5</title>
<polygon fill="white" stroke="#bfbfbf" points="296,-129 296,-148 344,-148 344,-129 296,-129"/>
<text text-anchor="middle" x="320" y="-136" font-family="Helvetica,sans-Serif" font-size="10.00">stdlib.h</text>
</g>
<!-- Node1&#45;&gt;Node5 -->
<g id="edge4" class="edge"><title>Node1&#45;&gt;Node5</title>
<path fill="none" stroke="midnightblue" d="M509.845,-191.993C466.687,-182.881 408.403,-169.46 358,-154 355.578,-153.257 353.089,-152.438 350.599,-151.578"/>
<polygon fill="midnightblue" stroke="midnightblue" points="351.723,-148.263 341.129,-148.137 349.333,-154.842 351.723,-148.263"/>
</g>
<!-- Node6 -->
<g id="node6" class="node"><title>Node6</title>
<g id="a_node6"><a xlink:href="oclutils_8h.xhtml" target="_top" xlink:title="Declare utility routines for OpenCL. ">
<polygon fill="white" stroke="black" points="0,-129 0,-148 138,-148 138,-129 0,-129"/>
<text text-anchor="middle" x="69" y="-136" font-family="Helvetica,sans-Serif" font-size="10.00">gromacs/gpu_utils/oclutils.h</text>
</a>
</g>
</g>
<!-- Node1&#45;&gt;Node6 -->
<g id="edge5" class="edge"><title>Node1&#45;&gt;Node6</title>
<path fill="none" stroke="midnightblue" d="M509.671,-198.308C426.309,-189.856 275.3,-173.508 147,-154 138.965,-152.778 130.49,-151.349 122.204,-149.874"/>
<polygon fill="midnightblue" stroke="midnightblue" points="122.699,-146.406 112.235,-148.061 121.447,-153.293 122.699,-146.406"/>
</g>
<!-- Node9 -->
<g id="node9" class="node"><title>Node9</title>
<g id="a_node9"><a xlink:href="gpu__timing_8h.xhtml" target="_top" xlink:title="Declares data types for GPU timing. ">
<polygon fill="white" stroke="black" points="400,-123.5 400,-153.5 502,-153.5 502,-123.5 400,-123.5"/>
<text text-anchor="start" x="408" y="-141.5" font-family="Helvetica,sans-Serif" font-size="10.00">gromacs/timing/gpu</text>
<text text-anchor="middle" x="451" y="-130.5" font-family="Helvetica,sans-Serif" font-size="10.00">_timing.h</text>
</a>
</g>
</g>
<!-- Node1&#45;&gt;Node9 -->
<g id="edge8" class="edge"><title>Node1&#45;&gt;Node9</title>
<path fill="none" stroke="midnightblue" d="M546.528,-190.396C528.942,-181.026 505.647,-168.615 486.464,-158.395"/>
<polygon fill="midnightblue" stroke="midnightblue" points="487.892,-155.19 477.421,-153.577 484.6,-161.368 487.892,-155.19"/>
</g>
<!-- Node10 -->
<g id="node10" class="node"><title>Node10</title>
<g id="a_node10"><a xlink:href="nbnxn__gpu_8h.xhtml" target="_top" xlink:title="Declare interface for GPU execution for NBNXN module. ">
<polygon fill="white" stroke="black" points="1110,-123.5 1110,-153.5 1220,-153.5 1220,-123.5 1110,-123.5"/>
<text text-anchor="start" x="1118" y="-141.5" font-family="Helvetica,sans-Serif" font-size="10.00">gromacs/mdlib/nbnxn</text>
<text text-anchor="middle" x="1165" y="-130.5" font-family="Helvetica,sans-Serif" font-size="10.00">_gpu.h</text>
</a>
</g>
</g>
<!-- Node1&#45;&gt;Node10 -->
<g id="edge9" class="edge"><title>Node1&#45;&gt;Node10</title>
<path fill="none" stroke="midnightblue" d="M636.319,-201.059C733.863,-195.183 926.856,-181.274 1099.88,-154.046"/>
<polygon fill="midnightblue" stroke="midnightblue" points="1100.6,-157.475 1109.93,-152.445 1099.5,-150.562 1100.6,-157.475"/>
</g>
<!-- Node15 -->
<g id="node15" class="node"><title>Node15</title>
<g id="a_node15"><a xlink:href="nbnxn__gpu__data__mgmt_8h.xhtml" target="_top" xlink:title="Declare interface for GPU data transfer for NBNXN module. ">
<polygon fill="white" stroke="black" points="644,-123.5 644,-153.5 754,-153.5 754,-123.5 644,-123.5"/>
<text text-anchor="start" x="652" y="-141.5" font-family="Helvetica,sans-Serif" font-size="10.00">gromacs/mdlib/nbnxn</text>
<text text-anchor="middle" x="699" y="-130.5" font-family="Helvetica,sans-Serif" font-size="10.00">_gpu_data_mgmt.h</text>
</a>
</g>
</g>
<!-- Node1&#45;&gt;Node15 -->
<g id="edge14" class="edge"><title>Node1&#45;&gt;Node15</title>
<path fill="none" stroke="midnightblue" d="M600.34,-190.396C618.585,-180.984 642.78,-168.503 662.643,-158.256"/>
<polygon fill="midnightblue" stroke="midnightblue" points="664.431,-161.272 671.713,-153.577 661.221,-155.051 664.431,-161.272"/>
</g>
<!-- Node16 -->
<g id="node16" class="node"><title>Node16</title>
<g id="a_node16"><a xlink:href="cstringutil_8h.xhtml" target="_top" xlink:title="Generic C string handling functions. ">
<polygon fill="white" stroke="black" points="958,-129 958,-148 1092,-148 1092,-129 958,-129"/>
<text text-anchor="middle" x="1025" y="-136" font-family="Helvetica,sans-Serif" font-size="10.00">gromacs/utility/cstringutil.h</text>
</a>
</g>
</g>
<!-- Node1&#45;&gt;Node16 -->
<g id="edge15" class="edge"><title>Node1&#45;&gt;Node16</title>
<path fill="none" stroke="midnightblue" d="M636.025,-197.11C710.84,-188.089 839.292,-171.819 949,-154 956.644,-152.758 964.701,-151.341 972.595,-149.889"/>
<polygon fill="midnightblue" stroke="midnightblue" points="973.279,-153.322 982.465,-148.043 971.992,-146.441 973.279,-153.322"/>
</g>
<!-- Node18 -->
<g id="node18" class="node"><title>Node18</title>
<g id="a_node18"><a xlink:href="fatalerror_8h.xhtml" target="_top" xlink:title="Declares fatal error handling and debugging routines for C code. ">
<polygon fill="white" stroke="black" points="810,-129 810,-148 940,-148 940,-129 810,-129"/>
<text text-anchor="middle" x="875" y="-136" font-family="Helvetica,sans-Serif" font-size="10.00">gromacs/utility/fatalerror.h</text>
</a>
</g>
</g>
<!-- Node1&#45;&gt;Node18 -->
<g id="edge18" class="edge"><title>Node1&#45;&gt;Node18</title>
<path fill="none" stroke="midnightblue" d="M636.309,-190.874C692.576,-178.764 773.701,-161.303 825.382,-150.179"/>
<polygon fill="midnightblue" stroke="midnightblue" points="826.269,-153.569 835.309,-148.043 824.796,-146.725 826.269,-153.569"/>
</g>
<!-- Node20 -->
<g id="node20" class="node"><title>Node20</title>
<g id="a_node20"><a xlink:href="gmxassert_8h.xhtml" target="_top" xlink:title="Defines assert macros customized for Gromacs. ">
<polygon fill="white" stroke="black" points="1238.5,-129 1238.5,-148 1375.5,-148 1375.5,-129 1238.5,-129"/>
<text text-anchor="middle" x="1307" y="-136" font-family="Helvetica,sans-Serif" font-size="10.00">gromacs/utility/gmxassert.h</text>
</a>
</g>
</g>
<!-- Node1&#45;&gt;Node20 -->
<g id="edge22" class="edge"><title>Node1&#45;&gt;Node20</title>
<path fill="none" stroke="midnightblue" d="M636.1,-201.89C753.306,-196.545 1012.4,-182.388 1229,-154 1237.73,-152.856 1246.97,-151.378 1255.91,-149.806"/>
<polygon fill="midnightblue" stroke="midnightblue" points="1256.63,-153.233 1265.84,-148.003 1255.38,-146.346 1256.63,-153.233"/>
</g>
<!-- Node22 -->
<g id="node22" class="node"><title>Node22</title>
<g id="a_node22"><a xlink:href="nbnxn__ocl__internal_8h.xhtml" target="_top" xlink:title="Internal API of the OpenCL non&#45;bonded module. ">
<polygon fill="white" stroke="black" points="520,-129 520,-148 626,-148 626,-129 520,-129"/>
<text text-anchor="middle" x="573" y="-136" font-family="Helvetica,sans-Serif" font-size="10.00">nbnxn_ocl_internal.h</text>
</a>
</g>
</g>
<!-- Node1&#45;&gt;Node22 -->
<g id="edge25" class="edge"><title>Node1&#45;&gt;Node22</title>
<path fill="none" stroke="midnightblue" d="M573,-190.396C573,-181.064 573,-168.714 573,-158.517"/>
<polygon fill="midnightblue" stroke="midnightblue" points="576.5,-158.195 573,-148.195 569.5,-158.195 576.5,-158.195"/>
</g>
<!-- Node23 -->
<g id="node23" class="node"><title>Node23</title>
<g id="a_node23"><a xlink:href="nbnxn__ocl__types_8h.xhtml" target="_top" xlink:title="Data types used internally in the nbnxn_ocl module. ">
<polygon fill="white" stroke="black" points="677,-62 677,-81 775,-81 775,-62 677,-62"/>
<text text-anchor="middle" x="726" y="-69" font-family="Helvetica,sans-Serif" font-size="10.00">nbnxn_ocl_types.h</text>
</a>
</g>
</g>
<!-- Node1&#45;&gt;Node23 -->
<g id="edge30" class="edge"><title>Node1&#45;&gt;Node23</title>
<path fill="none" stroke="midnightblue" d="M636.215,-196.053C685.263,-188.05 747.448,-174.225 763,-154 778.548,-133.78 758.947,-105.984 742.879,-88.6399"/>
<polygon fill="midnightblue" stroke="midnightblue" points="744.94,-85.7422 735.444,-81.0439 739.937,-90.6386 744.94,-85.7422"/>
</g>
<!-- Node7 -->
<g id="node7" class="node"><title>Node7</title>
<polygon fill="white" stroke="#bfbfbf" points="562.5,-0.5 562.5,-19.5 631.5,-19.5 631.5,-0.5 562.5,-0.5"/>
<text text-anchor="middle" x="597" y="-7.5" font-family="Helvetica,sans-Serif" font-size="10.00">CL/opencl.h</text>
</g>
<!-- Node6&#45;&gt;Node7 -->
<g id="edge6" class="edge"><title>Node6&#45;&gt;Node7</title>
<path fill="none" stroke="midnightblue" d="M104.876,-128.905C198.546,-106.463 450.295,-46.1481 552.731,-21.6062"/>
<polygon fill="midnightblue" stroke="midnightblue" points="553.547,-25.0098 562.456,-19.2762 551.916,-18.2025 553.547,-25.0098"/>
</g>
<!-- Node8 -->
<g id="node8" class="node"><title>Node8</title>
<polygon fill="white" stroke="#bfbfbf" points="48.5,-62 48.5,-81 89.5,-81 89.5,-62 48.5,-62"/>
<text text-anchor="middle" x="69" y="-69" font-family="Helvetica,sans-Serif" font-size="10.00">string</text>
</g>
<!-- Node6&#45;&gt;Node8 -->
<g id="edge7" class="edge"><title>Node6&#45;&gt;Node8</title>
<path fill="none" stroke="midnightblue" d="M69,-128.734C69,-119.183 69,-103.618 69,-91.2829"/>
<polygon fill="midnightblue" stroke="midnightblue" points="72.5001,-91.1273 69,-81.1273 65.5001,-91.1273 72.5001,-91.1273"/>
</g>
<!-- Node11 -->
<g id="node11" class="node"><title>Node11</title>
<g id="a_node11"><a xlink:href="basedefinitions_8h.xhtml" target="_top" xlink:title="Basic types and macros used throughout GROMACS. ">
<polygon fill="white" stroke="black" points="1068.5,-62 1068.5,-81 1225.5,-81 1225.5,-62 1068.5,-62"/>
<text text-anchor="middle" x="1147" y="-69" font-family="Helvetica,sans-Serif" font-size="10.00">gromacs/utility/basedefinitions.h</text>
</a>
</g>
</g>
<!-- Node10&#45;&gt;Node11 -->
<g id="edge10" class="edge"><title>Node10&#45;&gt;Node11</title>
<path fill="none" stroke="midnightblue" d="M1161.09,-123.396C1158.45,-113.863 1154.94,-101.182 1152.08,-90.8624"/>
<polygon fill="midnightblue" stroke="midnightblue" points="1155.45,-89.8977 1149.41,-81.1945 1148.7,-91.7659 1155.45,-89.8977"/>
</g>
<!-- Node14 -->
<g id="node14" class="node"><title>Node14</title>
<g id="a_node14"><a xlink:href="real_8h.xhtml" target="_top" xlink:title="Declares real and related constants. ">
<polygon fill="white" stroke="black" points="800.5,-0.5 800.5,-19.5 907.5,-19.5 907.5,-0.5 800.5,-0.5"/>
<text text-anchor="middle" x="854" y="-7.5" font-family="Helvetica,sans-Serif" font-size="10.00">gromacs/utility/real.h</text>
</a>
</g>
</g>
<!-- Node10&#45;&gt;Node14 -->
<g id="edge13" class="edge"><title>Node10&#45;&gt;Node14</title>
<path fill="none" stroke="midnightblue" d="M1135.02,-123.373C1098.85,-106.526 1036.02,-77.8967 981,-56 950.493,-43.8593 915.258,-31.5034 889.653,-22.8183"/>
<polygon fill="midnightblue" stroke="midnightblue" points="890.593,-19.4416 879.999,-19.5627 888.356,-26.0746 890.593,-19.4416"/>
</g>
<!-- Node12 -->
<g id="node12" class="node"><title>Node12</title>
<polygon fill="white" stroke="#bfbfbf" points="1086.5,-0.5 1086.5,-19.5 1135.5,-19.5 1135.5,-0.5 1086.5,-0.5"/>
<text text-anchor="middle" x="1111" y="-7.5" font-family="Helvetica,sans-Serif" font-size="10.00">stdint.h</text>
</g>
<!-- Node11&#45;&gt;Node12 -->
<g id="edge11" class="edge"><title>Node11&#45;&gt;Node12</title>
<path fill="none" stroke="midnightblue" d="M1141.84,-61.9751C1136.55,-53.2268 1128.16,-39.3691 1121.47,-28.3093"/>
<polygon fill="midnightblue" stroke="midnightblue" points="1124.32,-26.2531 1116.15,-19.5091 1118.33,-29.8768 1124.32,-26.2531"/>
</g>
<!-- Node13 -->
<g id="node13" class="node"><title>Node13</title>
<polygon fill="white" stroke="#bfbfbf" points="1153.5,-0.5 1153.5,-19.5 1212.5,-19.5 1212.5,-0.5 1153.5,-0.5"/>
<text text-anchor="middle" x="1183" y="-7.5" font-family="Helvetica,sans-Serif" font-size="10.00">inttypes.h</text>
</g>
<!-- Node11&#45;&gt;Node13 -->
<g id="edge12" class="edge"><title>Node11&#45;&gt;Node13</title>
<path fill="none" stroke="midnightblue" d="M1152.16,-61.9751C1157.45,-53.2268 1165.84,-39.3691 1172.53,-28.3093"/>
<polygon fill="midnightblue" stroke="midnightblue" points="1175.67,-29.8768 1177.85,-19.5091 1169.68,-26.2531 1175.67,-29.8768"/>
</g>
<!-- Node16&#45;&gt;Node11 -->
<g id="edge17" class="edge"><title>Node16&#45;&gt;Node11</title>
<path fill="none" stroke="midnightblue" d="M1041.2,-128.869C1061.8,-117.893 1097.59,-98.8243 1121.78,-85.9385"/>
<polygon fill="midnightblue" stroke="midnightblue" points="1123.55,-88.9583 1130.73,-81.1672 1120.26,-82.7804 1123.55,-88.9583"/>
</g>
<!-- Node17 -->
<g id="node17" class="node"><title>Node17</title>
<polygon fill="white" stroke="#bfbfbf" points="926,-62 926,-81 972,-81 972,-62 926,-62"/>
<text text-anchor="middle" x="949" y="-69" font-family="Helvetica,sans-Serif" font-size="10.00">stdio.h</text>
</g>
<!-- Node16&#45;&gt;Node17 -->
<g id="edge16" class="edge"><title>Node16&#45;&gt;Node17</title>
<path fill="none" stroke="midnightblue" d="M1014.75,-128.734C1002.56,-118.305 981.983,-100.709 967.092,-87.9732"/>
<polygon fill="midnightblue" stroke="midnightblue" points="968.962,-84.9671 959.087,-81.1273 964.412,-90.2869 968.962,-84.9671"/>
</g>
<!-- Node18&#45;&gt;Node11 -->
<g id="edge21" class="edge"><title>Node18&#45;&gt;Node11</title>
<path fill="none" stroke="midnightblue" d="M910.839,-128.936C959.763,-117.244 1047.49,-96.2797 1101.15,-83.4566"/>
<polygon fill="midnightblue" stroke="midnightblue" points="1102.17,-86.8119 1111.08,-81.0834 1100.54,-80.0036 1102.17,-86.8119"/>
</g>
<!-- Node18&#45;&gt;Node17 -->
<g id="edge20" class="edge"><title>Node18&#45;&gt;Node17</title>
<path fill="none" stroke="midnightblue" d="M884.98,-128.734C896.852,-118.305 916.885,-100.709 931.384,-87.9732"/>
<polygon fill="midnightblue" stroke="midnightblue" points="933.975,-90.3564 939.178,-81.1273 929.355,-85.0971 933.975,-90.3564"/>
</g>
<!-- Node19 -->
<g id="node19" class="node"><title>Node19</title>
<polygon fill="white" stroke="#bfbfbf" points="849,-62 849,-81 901,-81 901,-62 849,-62"/>
<text text-anchor="middle" x="875" y="-69" font-family="Helvetica,sans-Serif" font-size="10.00">stdarg.h</text>
</g>
<!-- Node18&#45;&gt;Node19 -->
<g id="edge19" class="edge"><title>Node18&#45;&gt;Node19</title>
<path fill="none" stroke="midnightblue" d="M875,-128.734C875,-119.183 875,-103.618 875,-91.2829"/>
<polygon fill="midnightblue" stroke="midnightblue" points="878.5,-91.1273 875,-81.1273 871.5,-91.1273 878.5,-91.1273"/>
</g>
<!-- Node20&#45;&gt;Node11 -->
<g id="edge23" class="edge"><title>Node20&#45;&gt;Node11</title>
<path fill="none" stroke="midnightblue" d="M1285.75,-128.869C1258.06,-117.619 1209.44,-97.8673 1177.73,-84.9853"/>
<polygon fill="midnightblue" stroke="midnightblue" points="1178.66,-81.5849 1168.08,-81.0637 1176.03,-88.0701 1178.66,-81.5849"/>
</g>
<!-- Node21 -->
<g id="node21" class="node"><title>Node21</title>
<g id="a_node21"><a xlink:href="current__function_8h.xhtml" target="_top" xlink:title="Declares GMX_CURRENT_FUNCTION for getting the current function name. ">
<polygon fill="white" stroke="black" points="1250.5,-56.5 1250.5,-86.5 1363.5,-86.5 1363.5,-56.5 1250.5,-56.5"/>
<text text-anchor="start" x="1258.5" y="-74.5" font-family="Helvetica,sans-Serif" font-size="10.00">gromacs/utility/current</text>
<text text-anchor="middle" x="1307" y="-63.5" font-family="Helvetica,sans-Serif" font-size="10.00">_function.h</text>
</a>
</g>
</g>
<!-- Node20&#45;&gt;Node21 -->
<g id="edge24" class="edge"><title>Node20&#45;&gt;Node21</title>
<path fill="none" stroke="midnightblue" d="M1307,-128.734C1307,-120.541 1307,-107.923 1307,-96.7136"/>
<polygon fill="midnightblue" stroke="midnightblue" points="1310.5,-96.589 1307,-86.589 1303.5,-96.5891 1310.5,-96.589"/>
</g>
<!-- Node22&#45;&gt;Node2 -->
<g id="edge26" class="edge"><title>Node22&#45;&gt;Node2</title>
<path fill="none" stroke="midnightblue" d="M559.648,-128.734C543.246,-117.964 515.199,-99.55 495.688,-86.7395"/>
<polygon fill="midnightblue" stroke="midnightblue" points="497.42,-83.69 487.14,-81.1273 493.578,-89.5415 497.42,-83.69"/>
</g>
<!-- Node22&#45;&gt;Node23 -->
<g id="edge27" class="edge"><title>Node22&#45;&gt;Node23</title>
<path fill="none" stroke="midnightblue" d="M593.317,-128.869C619.723,-117.65 666.032,-97.9766 696.359,-85.0925"/>
<polygon fill="midnightblue" stroke="midnightblue" points="697.763,-88.2987 705.599,-81.1672 695.026,-81.856 697.763,-88.2987"/>
</g>
<!-- Node23&#45;&gt;Node7 -->
<g id="edge28" class="edge"><title>Node23&#45;&gt;Node7</title>
<path fill="none" stroke="midnightblue" d="M707.517,-61.9751C685.868,-51.9897 649.787,-35.3476 624.768,-23.8075"/>
<polygon fill="midnightblue" stroke="midnightblue" points="625.995,-20.5193 615.448,-19.5091 623.063,-26.8757 625.995,-20.5193"/>
</g>
<!-- Node23&#45;&gt;Node14 -->
<g id="edge29" class="edge"><title>Node23&#45;&gt;Node14</title>
<path fill="none" stroke="midnightblue" d="M744.339,-61.9751C765.821,-51.9897 801.622,-35.3476 826.448,-23.8075"/>
<polygon fill="midnightblue" stroke="midnightblue" points="828.102,-26.8983 835.695,-19.5091 825.151,-20.5506 828.102,-26.8983"/>
</g>
</g>
</svg>
