<?xml version="1.0" encoding="UTF-8" standalone="no"?>
<!DOCTYPE svg PUBLIC "-//W3C//DTD SVG 1.1//EN"
 "http://www.w3.org/Graphics/SVG/1.1/DTD/svg11.dtd">
<!-- Generated by graphviz version 2.38.0 (20140413.2041)
 -->
<!-- Title: src/gromacs/selection/nbsearch.cpp Pages: 1 -->
<svg width="1315pt" height="330pt"
 viewBox="0.00 0.00 1315.00 330.00" xmlns="http://www.w3.org/2000/svg" xmlns:xlink="http://www.w3.org/1999/xlink">
<g id="graph0" class="graph" transform="scale(1 1) rotate(0) translate(4 326)">
<title>src/gromacs/selection/nbsearch.cpp</title>
<polygon fill="white" stroke="none" points="-4,4 -4,-326 1311,-326 1311,4 -4,4"/>
<!-- Node1 -->
<g id="node1" class="node"><title>Node1</title>
<polygon fill="#bfbfbf" stroke="black" points="648,-291.5 648,-321.5 761,-321.5 761,-291.5 648,-291.5"/>
<text text-anchor="start" x="656" y="-309.5" font-family="Helvetica,sans-Serif" font-size="10.00">src/gromacs/selection</text>
<text text-anchor="middle" x="704.5" y="-298.5" font-family="Helvetica,sans-Serif" font-size="10.00">/nbsearch.cpp</text>
</g>
<!-- Node2 -->
<g id="node2" class="node"><title>Node2</title>
<g id="a_node2"><a xlink:href="gmxpre_8h.xhtml" target="_top" xlink:title="Prerequisite header file for GROMACS build. ">
<polygon fill="white" stroke="black" points="141,-235.5 141,-254.5 198,-254.5 198,-235.5 141,-235.5"/>
<text text-anchor="middle" x="169.5" y="-242.5" font-family="Helvetica,sans-Serif" font-size="10.00">gmxpre.h</text>
</a>
</g>
</g>
<!-- Node1&#45;&gt;Node2 -->
<g id="edge1" class="edge"><title>Node1&#45;&gt;Node2</title>
<path fill="none" stroke="midnightblue" d="M647.807,-301.608C555.999,-294.873 369.252,-279.381 212.5,-255 211.04,-254.773 209.554,-254.529 208.056,-254.271"/>
<polygon fill="midnightblue" stroke="midnightblue" points="208.577,-250.808 198.105,-252.42 207.296,-257.69 208.577,-250.808"/>
</g>
<!-- Node3 -->
<g id="node3" class="node"><title>Node3</title>
<g id="a_node3"><a xlink:href="nbsearch_8h.xhtml" target="_top" xlink:title="API for neighborhood searching for analysis. ">
<polygon fill="white" stroke="black" points="346,-235.5 346,-254.5 411,-254.5 411,-235.5 346,-235.5"/>
<text text-anchor="middle" x="378.5" y="-242.5" font-family="Helvetica,sans-Serif" font-size="10.00">nbsearch.h</text>
</a>
</g>
</g>
<!-- Node1&#45;&gt;Node3 -->
<g id="edge2" class="edge"><title>Node1&#45;&gt;Node3</title>
<path fill="none" stroke="midnightblue" d="M647.715,-295.136C583.181,-283.357 479.303,-264.398 421.258,-253.804"/>
<polygon fill="midnightblue" stroke="midnightblue" points="421.783,-250.342 411.317,-251.99 420.526,-257.228 421.783,-250.342"/>
</g>
<!-- Node5 -->
<g id="node5" class="node"><title>Node5</title>
<polygon fill="white" stroke="#bfbfbf" points="268.5,-123.5 268.5,-142.5 312.5,-142.5 312.5,-123.5 268.5,-123.5"/>
<text text-anchor="middle" x="290.5" y="-130.5" font-family="Helvetica,sans-Serif" font-size="10.00">vector</text>
</g>
<!-- Node1&#45;&gt;Node5 -->
<g id="edge23" class="edge"><title>Node1&#45;&gt;Node5</title>
<path fill="none" stroke="midnightblue" d="M647.823,-304.231C557.145,-301.147 384.738,-290.635 336.5,-255 303.759,-230.813 294.321,-180.281 291.601,-152.791"/>
<polygon fill="midnightblue" stroke="midnightblue" points="295.07,-152.259 290.798,-142.564 288.092,-152.807 295.07,-152.259"/>
</g>
<!-- Node6 -->
<g id="node6" class="node"><title>Node6</title>
<g id="a_node6"><a xlink:href="arrayref_8h.xhtml" target="_top" xlink:title="Declares gmx::ArrayRef and gmx::ConstArrayRef. ">
<polygon fill="white" stroke="black" points="111,-179.5 111,-198.5 236,-198.5 236,-179.5 111,-179.5"/>
<text text-anchor="middle" x="173.5" y="-186.5" font-family="Helvetica,sans-Serif" font-size="10.00">gromacs/utility/arrayref.h</text>
</a>
</g>
</g>
<!-- Node1&#45;&gt;Node6 -->
<g id="edge32" class="edge"><title>Node1&#45;&gt;Node6</title>
<path fill="none" stroke="midnightblue" d="M647.912,-303.302C542.572,-298.542 320.719,-285.181 250.5,-255 225.005,-244.042 201.541,-221.708 187.38,-206.302"/>
<polygon fill="midnightblue" stroke="midnightblue" points="189.774,-203.726 180.516,-198.573 184.54,-208.374 189.774,-203.726"/>
</g>
<!-- Node11 -->
<g id="node11" class="node"><title>Node11</title>
<g id="a_node11"><a xlink:href="gmxassert_8h.xhtml" target="_top" xlink:title="Defines assert macros customized for Gromacs. ">
<polygon fill="white" stroke="black" points="533,-123.5 533,-142.5 670,-142.5 670,-123.5 533,-123.5"/>
<text text-anchor="middle" x="601.5" y="-130.5" font-family="Helvetica,sans-Serif" font-size="10.00">gromacs/utility/gmxassert.h</text>
</a>
</g>
</g>
<!-- Node1&#45;&gt;Node11 -->
<g id="edge46" class="edge"><title>Node1&#45;&gt;Node11</title>
<path fill="none" stroke="midnightblue" d="M706.51,-291.487C709.321,-266.461 711.659,-213.481 687.5,-179 676.831,-163.772 659.381,-153.311 642.979,-146.337"/>
<polygon fill="midnightblue" stroke="midnightblue" points="644.089,-143.013 633.501,-142.623 641.536,-149.53 644.089,-143.013"/>
</g>
<!-- Node18 -->
<g id="node18" class="node"><title>Node18</title>
<polygon fill="white" stroke="#bfbfbf" points="634.5,-179.5 634.5,-198.5 678.5,-198.5 678.5,-179.5 634.5,-179.5"/>
<text text-anchor="middle" x="656.5" y="-186.5" font-family="Helvetica,sans-Serif" font-size="10.00">cmath</text>
</g>
<!-- Node1&#45;&gt;Node18 -->
<g id="edge20" class="edge"><title>Node1&#45;&gt;Node18</title>
<path fill="none" stroke="midnightblue" d="M698.614,-291.337C689.887,-270.338 673.52,-230.955 663.963,-207.958"/>
<polygon fill="midnightblue" stroke="midnightblue" points="667.173,-206.561 660.103,-198.669 660.709,-209.247 667.173,-206.561"/>
</g>
<!-- Node19 -->
<g id="node19" class="node"><title>Node19</title>
<polygon fill="white" stroke="#bfbfbf" points="972.5,-179.5 972.5,-198.5 1018.5,-198.5 1018.5,-179.5 972.5,-179.5"/>
<text text-anchor="middle" x="995.5" y="-186.5" font-family="Helvetica,sans-Serif" font-size="10.00">cstring</text>
</g>
<!-- Node1&#45;&gt;Node19 -->
<g id="edge21" class="edge"><title>Node1&#45;&gt;Node19</title>
<path fill="none" stroke="midnightblue" d="M761.226,-302.449C832.954,-297.395 950.822,-284.717 981.5,-255 993.669,-243.212 996.486,-223.577 996.675,-208.966"/>
<polygon fill="midnightblue" stroke="midnightblue" points="1000.16,-208.472 996.391,-198.571 993.166,-208.663 1000.16,-208.472"/>
</g>
<!-- Node20 -->
<g id="node20" class="node"><title>Node20</title>
<polygon fill="white" stroke="#bfbfbf" points="732.5,-235.5 732.5,-254.5 788.5,-254.5 788.5,-235.5 732.5,-235.5"/>
<text text-anchor="middle" x="760.5" y="-242.5" font-family="Helvetica,sans-Serif" font-size="10.00">algorithm</text>
</g>
<!-- Node1&#45;&gt;Node20 -->
<g id="edge22" class="edge"><title>Node1&#45;&gt;Node20</title>
<path fill="none" stroke="midnightblue" d="M717.771,-291.399C726.076,-282.575 736.799,-271.183 745.424,-262.018"/>
<polygon fill="midnightblue" stroke="midnightblue" points="748.047,-264.339 752.352,-254.658 742.949,-259.541 748.047,-264.339"/>
</g>
<!-- Node21 -->
<g id="node21" class="node"><title>Node21</title>
<g id="a_node21"><a xlink:href="functions_8h.xhtml" target="_top" xlink:title="Declares simple math functions. ">
<polygon fill="white" stroke="black" points="508.5,-235.5 508.5,-254.5 638.5,-254.5 638.5,-235.5 508.5,-235.5"/>
<text text-anchor="middle" x="573.5" y="-242.5" font-family="Helvetica,sans-Serif" font-size="10.00">gromacs/math/functions.h</text>
</a>
</g>
</g>
<!-- Node1&#45;&gt;Node21 -->
<g id="edge24" class="edge"><title>Node1&#45;&gt;Node21</title>
<path fill="none" stroke="midnightblue" d="M673.455,-291.399C651.77,-281.55 623.041,-268.501 601.949,-258.922"/>
<polygon fill="midnightblue" stroke="midnightblue" points="603.114,-255.607 592.562,-254.658 600.219,-261.98 603.114,-255.607"/>
</g>
<!-- Node23 -->
<g id="node23" class="node"><title>Node23</title>
<g id="a_node23"><a xlink:href="position_8h.xhtml" target="_top" xlink:title="API for handling positions. ">
<polygon fill="white" stroke="black" points="1166,-235.5 1166,-254.5 1307,-254.5 1307,-235.5 1166,-235.5"/>
<text text-anchor="middle" x="1236.5" y="-242.5" font-family="Helvetica,sans-Serif" font-size="10.00">gromacs/selection/position.h</text>
</a>
</g>
</g>
<!-- Node1&#45;&gt;Node23 -->
<g id="edge28" class="edge"><title>Node1&#45;&gt;Node23</title>
<path fill="none" stroke="midnightblue" d="M761.229,-299.176C844.943,-289.841 1006.8,-271.78 1155.6,-255.101"/>
<polygon fill="midnightblue" stroke="midnightblue" points="1156.28,-258.546 1165.83,-253.953 1155.5,-251.589 1156.28,-258.546"/>
</g>
<!-- Node27 -->
<g id="node27" class="node"><title>Node27</title>
<g id="a_node27"><a xlink:href="exceptions_8h.xhtml" target="_top" xlink:title="Declares common exception classes and macros for fatal error handling. ">
<polygon fill="white" stroke="black" points="777,-179.5 777,-198.5 916,-198.5 916,-179.5 777,-179.5"/>
<text text-anchor="middle" x="846.5" y="-186.5" font-family="Helvetica,sans-Serif" font-size="10.00">gromacs/utility/exceptions.h</text>
</a>
</g>
</g>
<!-- Node1&#45;&gt;Node27 -->
<g id="edge33" class="edge"><title>Node1&#45;&gt;Node27</title>
<path fill="none" stroke="midnightblue" d="M738.522,-291.348C757.158,-282.579 779.962,-270.11 797.5,-255 813.506,-241.21 827.529,-221.359 836.425,-207.229"/>
<polygon fill="midnightblue" stroke="midnightblue" points="839.525,-208.868 841.727,-198.505 833.543,-205.233 839.525,-208.868"/>
</g>
<!-- Node32 -->
<g id="node32" class="node"><title>Node32</title>
<g id="a_node32"><a xlink:href="mutex_8h.xhtml" target="_top" xlink:title="Declares C++11&#45;style basic threading primitives (gmx::Mutex, gmx::lock_guard). ">
<polygon fill="white" stroke="black" points="1029,-235.5 1029,-254.5 1148,-254.5 1148,-235.5 1029,-235.5"/>
<text text-anchor="middle" x="1088.5" y="-242.5" font-family="Helvetica,sans-Serif" font-size="10.00">gromacs/utility/mutex.h</text>
</a>
</g>
</g>
<!-- Node1&#45;&gt;Node32 -->
<g id="edge47" class="edge"><title>Node1&#45;&gt;Node32</title>
<path fill="none" stroke="midnightblue" d="M761.161,-296.721C831.098,-285.884 949.783,-267.494 1023.4,-256.088"/>
<polygon fill="midnightblue" stroke="midnightblue" points="1024.13,-259.516 1033.48,-254.526 1023.06,-252.598 1024.13,-259.516"/>
</g>
<!-- Node34 -->
<g id="node34" class="node"><title>Node34</title>
<g id="a_node34"><a xlink:href="stringutil_8h.xhtml" target="_top" xlink:title="Declares common string utility and formatting routines. ">
<polygon fill="white" stroke="black" points="844.5,-235.5 844.5,-254.5 972.5,-254.5 972.5,-235.5 844.5,-235.5"/>
<text text-anchor="middle" x="908.5" y="-242.5" font-family="Helvetica,sans-Serif" font-size="10.00">gromacs/utility/stringutil.h</text>
</a>
</g>
</g>
<!-- Node1&#45;&gt;Node34 -->
<g id="edge49" class="edge"><title>Node1&#45;&gt;Node34</title>
<path fill="none" stroke="midnightblue" d="M752.587,-291.475C788.242,-281.075 836.231,-267.078 869.51,-257.372"/>
<polygon fill="midnightblue" stroke="midnightblue" points="870.715,-260.666 879.335,-254.506 868.755,-253.946 870.715,-260.666"/>
</g>
<!-- Node4 -->
<g id="node4" class="node"><title>Node4</title>
<polygon fill="white" stroke="#bfbfbf" points="415.5,-62 415.5,-81 467.5,-81 467.5,-62 415.5,-62"/>
<text text-anchor="middle" x="441.5" y="-69" font-family="Helvetica,sans-Serif" font-size="10.00">memory</text>
</g>
<!-- Node3&#45;&gt;Node4 -->
<g id="edge3" class="edge"><title>Node3&#45;&gt;Node4</title>
<path fill="none" stroke="midnightblue" d="M373.687,-235.434C362.731,-214.689 338.45,-160.686 359.5,-123 369.475,-105.142 388.644,-92.8191 405.941,-84.8193"/>
<polygon fill="midnightblue" stroke="midnightblue" points="407.476,-87.9694 415.288,-80.812 404.718,-81.5357 407.476,-87.9694"/>
</g>
<!-- Node3&#45;&gt;Node5 -->
<g id="edge4" class="edge"><title>Node3&#45;&gt;Node5</title>
<path fill="none" stroke="midnightblue" d="M366.267,-235.386C354.977,-227.009 338.234,-213.463 326.5,-199 314.713,-184.471 304.727,-165.543 298.284,-151.862"/>
<polygon fill="midnightblue" stroke="midnightblue" points="301.394,-150.246 294.077,-142.584 295.019,-153.136 301.394,-150.246"/>
</g>
<!-- Node3&#45;&gt;Node6 -->
<g id="edge5" class="edge"><title>Node3&#45;&gt;Node6</title>
<path fill="none" stroke="midnightblue" d="M346.017,-235.444C310.78,-226.162 254.396,-211.309 215.741,-201.127"/>
<polygon fill="midnightblue" stroke="midnightblue" points="216.393,-197.679 205.831,-198.516 214.609,-204.448 216.393,-197.679"/>
</g>
<!-- Node3&#45;&gt;Node11 -->
<g id="edge18" class="edge"><title>Node3&#45;&gt;Node11</title>
<path fill="none" stroke="midnightblue" d="M383.642,-235.393C392.457,-221.394 411.815,-193.777 435.5,-179 462.813,-161.96 496.562,-151.291 526.483,-144.65"/>
<polygon fill="midnightblue" stroke="midnightblue" points="527.403,-148.033 536.468,-142.548 525.962,-141.183 527.403,-148.033"/>
</g>
<!-- Node16 -->
<g id="node16" class="node"><title>Node16</title>
<g id="a_node16"><a xlink:href="classhelpers_8h.xhtml" target="_top" xlink:title="Declares common utility classes and macros. ">
<polygon fill="white" stroke="black" points="368.5,-123.5 368.5,-142.5 514.5,-142.5 514.5,-123.5 368.5,-123.5"/>
<text text-anchor="middle" x="441.5" y="-130.5" font-family="Helvetica,sans-Serif" font-size="10.00">gromacs/utility/classhelpers.h</text>
</a>
</g>
</g>
<!-- Node3&#45;&gt;Node16 -->
<g id="edge16" class="edge"><title>Node3&#45;&gt;Node16</title>
<path fill="none" stroke="midnightblue" d="M380.676,-235.144C384.092,-222.202 391.481,-197.639 402.5,-179 408.734,-168.454 417.553,-158.029 425.229,-149.873"/>
<polygon fill="midnightblue" stroke="midnightblue" points="427.897,-152.151 432.384,-142.553 422.891,-147.257 427.897,-152.151"/>
</g>
<!-- Node17 -->
<g id="node17" class="node"><title>Node17</title>
<g id="a_node17"><a xlink:href="real_8h.xhtml" target="_top" xlink:title="Declares real and related constants. ">
<polygon fill="white" stroke="black" points="445,-179.5 445,-198.5 552,-198.5 552,-179.5 445,-179.5"/>
<text text-anchor="middle" x="498.5" y="-186.5" font-family="Helvetica,sans-Serif" font-size="10.00">gromacs/utility/real.h</text>
</a>
</g>
</g>
<!-- Node3&#45;&gt;Node17 -->
<g id="edge19" class="edge"><title>Node3&#45;&gt;Node17</title>
<path fill="none" stroke="midnightblue" d="M397.514,-235.444C417.088,-226.636 447.808,-212.812 470.229,-202.722"/>
<polygon fill="midnightblue" stroke="midnightblue" points="471.892,-205.812 479.575,-198.516 469.019,-199.428 471.892,-205.812"/>
</g>
<!-- Node6&#45;&gt;Node5 -->
<g id="edge10" class="edge"><title>Node6&#45;&gt;Node5</title>
<path fill="none" stroke="midnightblue" d="M192.039,-179.444C211.123,-170.636 241.075,-156.812 262.936,-146.722"/>
<polygon fill="midnightblue" stroke="midnightblue" points="264.435,-149.885 272.048,-142.516 261.501,-143.529 264.435,-149.885"/>
</g>
<!-- Node7 -->
<g id="node7" class="node"><title>Node7</title>
<polygon fill="white" stroke="#bfbfbf" points="136,-123.5 136,-142.5 185,-142.5 185,-123.5 136,-123.5"/>
<text text-anchor="middle" x="160.5" y="-130.5" font-family="Helvetica,sans-Serif" font-size="10.00">cstddef</text>
</g>
<!-- Node6&#45;&gt;Node7 -->
<g id="edge6" class="edge"><title>Node6&#45;&gt;Node7</title>
<path fill="none" stroke="midnightblue" d="M171.353,-179.083C169.631,-171.927 167.153,-161.635 165,-152.691"/>
<polygon fill="midnightblue" stroke="midnightblue" points="168.35,-151.654 162.607,-142.751 161.545,-153.293 168.35,-151.654"/>
</g>
<!-- Node8 -->
<g id="node8" class="node"><title>Node8</title>
<polygon fill="white" stroke="#bfbfbf" points="203,-123.5 203,-142.5 250,-142.5 250,-123.5 203,-123.5"/>
<text text-anchor="middle" x="226.5" y="-130.5" font-family="Helvetica,sans-Serif" font-size="10.00">iterator</text>
</g>
<!-- Node6&#45;&gt;Node8 -->
<g id="edge7" class="edge"><title>Node6&#45;&gt;Node8</title>
<path fill="none" stroke="midnightblue" d="M182.252,-179.083C189.97,-171.22 201.405,-159.569 210.717,-150.081"/>
<polygon fill="midnightblue" stroke="midnightblue" points="213.404,-152.34 217.911,-142.751 208.408,-147.436 213.404,-152.34"/>
</g>
<!-- Node9 -->
<g id="node9" class="node"><title>Node9</title>
<polygon fill="white" stroke="#bfbfbf" points="0,-123.5 0,-142.5 59,-142.5 59,-123.5 0,-123.5"/>
<text text-anchor="middle" x="29.5" y="-130.5" font-family="Helvetica,sans-Serif" font-size="10.00">stdexcept</text>
</g>
<!-- Node6&#45;&gt;Node9 -->
<g id="edge8" class="edge"><title>Node6&#45;&gt;Node9</title>
<path fill="none" stroke="midnightblue" d="M150.683,-179.444C126.668,-170.438 88.671,-156.189 61.6308,-146.049"/>
<polygon fill="midnightblue" stroke="midnightblue" points="62.8027,-142.751 52.2105,-142.516 60.3448,-149.305 62.8027,-142.751"/>
</g>
<!-- Node10 -->
<g id="node10" class="node"><title>Node10</title>
<polygon fill="white" stroke="#bfbfbf" points="77.5,-123.5 77.5,-142.5 117.5,-142.5 117.5,-123.5 77.5,-123.5"/>
<text text-anchor="middle" x="97.5" y="-130.5" font-family="Helvetica,sans-Serif" font-size="10.00">utility</text>
</g>
<!-- Node6&#45;&gt;Node10 -->
<g id="edge9" class="edge"><title>Node6&#45;&gt;Node10</title>
<path fill="none" stroke="midnightblue" d="M161.289,-179.324C149.724,-171.107 132.125,-158.602 118.339,-148.807"/>
<polygon fill="midnightblue" stroke="midnightblue" points="120.112,-145.773 109.933,-142.834 116.057,-151.479 120.112,-145.773"/>
</g>
<!-- Node6&#45;&gt;Node11 -->
<g id="edge11" class="edge"><title>Node6&#45;&gt;Node11</title>
<path fill="none" stroke="midnightblue" d="M236.193,-180.09C312.534,-170.458 441.471,-154.191 523.972,-143.782"/>
<polygon fill="midnightblue" stroke="midnightblue" points="524.563,-147.235 534.046,-142.511 523.686,-140.29 524.563,-147.235"/>
</g>
<!-- Node12 -->
<g id="node12" class="node"><title>Node12</title>
<g id="a_node12"><a xlink:href="basedefinitions_8h.xhtml" target="_top" xlink:title="Basic types and macros used throughout GROMACS. ">
<polygon fill="white" stroke="black" points="867,-62 867,-81 1024,-81 1024,-62 867,-62"/>
<text text-anchor="middle" x="945.5" y="-69" font-family="Helvetica,sans-Serif" font-size="10.00">gromacs/utility/basedefinitions.h</text>
</a>
</g>
</g>
<!-- Node11&#45;&gt;Node12 -->
<g id="edge12" class="edge"><title>Node11&#45;&gt;Node12</title>
<path fill="none" stroke="midnightblue" d="M650.787,-123.475C712.988,-112.716 819.866,-94.2304 886.39,-82.724"/>
<polygon fill="midnightblue" stroke="midnightblue" points="887.047,-86.1623 896.305,-81.0091 885.854,-79.2647 887.047,-86.1623"/>
</g>
<!-- Node15 -->
<g id="node15" class="node"><title>Node15</title>
<g id="a_node15"><a xlink:href="current__function_8h.xhtml" target="_top" xlink:title="Declares GMX_CURRENT_FUNCTION for getting the current function name. ">
<polygon fill="white" stroke="black" points="609,-56.5 609,-86.5 722,-86.5 722,-56.5 609,-56.5"/>
<text text-anchor="start" x="617" y="-74.5" font-family="Helvetica,sans-Serif" font-size="10.00">gromacs/utility/current</text>
<text text-anchor="middle" x="665.5" y="-63.5" font-family="Helvetica,sans-Serif" font-size="10.00">_function.h</text>
</a>
</g>
</g>
<!-- Node11&#45;&gt;Node15 -->
<g id="edge15" class="edge"><title>Node11&#45;&gt;Node15</title>
<path fill="none" stroke="midnightblue" d="M610.67,-123.475C619.095,-115.643 631.925,-103.714 643.056,-93.3656"/>
<polygon fill="midnightblue" stroke="midnightblue" points="645.476,-95.8953 650.416,-86.523 640.709,-90.7685 645.476,-95.8953"/>
</g>
<!-- Node13 -->
<g id="node13" class="node"><title>Node13</title>
<polygon fill="white" stroke="#bfbfbf" points="885,-0.5 885,-19.5 934,-19.5 934,-0.5 885,-0.5"/>
<text text-anchor="middle" x="909.5" y="-7.5" font-family="Helvetica,sans-Serif" font-size="10.00">stdint.h</text>
</g>
<!-- Node12&#45;&gt;Node13 -->
<g id="edge13" class="edge"><title>Node12&#45;&gt;Node13</title>
<path fill="none" stroke="midnightblue" d="M940.342,-61.9751C935.049,-53.2268 926.665,-39.3691 919.973,-28.3093"/>
<polygon fill="midnightblue" stroke="midnightblue" points="922.82,-26.2531 914.648,-19.5091 916.83,-29.8768 922.82,-26.2531"/>
</g>
<!-- Node14 -->
<g id="node14" class="node"><title>Node14</title>
<polygon fill="white" stroke="#bfbfbf" points="952,-0.5 952,-19.5 1011,-19.5 1011,-0.5 952,-0.5"/>
<text text-anchor="middle" x="981.5" y="-7.5" font-family="Helvetica,sans-Serif" font-size="10.00">inttypes.h</text>
</g>
<!-- Node12&#45;&gt;Node14 -->
<g id="edge14" class="edge"><title>Node12&#45;&gt;Node14</title>
<path fill="none" stroke="midnightblue" d="M950.658,-61.9751C955.951,-53.2268 964.335,-39.3691 971.027,-28.3093"/>
<polygon fill="midnightblue" stroke="midnightblue" points="974.17,-29.8768 976.352,-19.5091 968.18,-26.2531 974.17,-29.8768"/>
</g>
<!-- Node16&#45;&gt;Node4 -->
<g id="edge17" class="edge"><title>Node16&#45;&gt;Node4</title>
<path fill="none" stroke="midnightblue" d="M441.5,-123.475C441.5,-115.08 441.5,-101.981 441.5,-91.1631"/>
<polygon fill="midnightblue" stroke="midnightblue" points="445,-91.0091 441.5,-81.0091 438,-91.0091 445,-91.0091"/>
</g>
<!-- Node21&#45;&gt;Node17 -->
<g id="edge27" class="edge"><title>Node21&#45;&gt;Node17</title>
<path fill="none" stroke="midnightblue" d="M561.45,-235.324C550.037,-227.107 532.669,-214.602 519.065,-204.807"/>
<polygon fill="midnightblue" stroke="midnightblue" points="520.93,-201.837 510.769,-198.834 516.84,-207.517 520.93,-201.837"/>
</g>
<!-- Node21&#45;&gt;Node18 -->
<g id="edge25" class="edge"><title>Node21&#45;&gt;Node18</title>
<path fill="none" stroke="midnightblue" d="M586.835,-235.324C599.662,-226.979 619.285,-214.212 634.44,-204.352"/>
<polygon fill="midnightblue" stroke="midnightblue" points="636.724,-207.042 643.198,-198.655 632.907,-201.174 636.724,-207.042"/>
</g>
<!-- Node22 -->
<g id="node22" class="node"><title>Node22</title>
<polygon fill="white" stroke="#bfbfbf" points="570.5,-179.5 570.5,-198.5 616.5,-198.5 616.5,-179.5 570.5,-179.5"/>
<text text-anchor="middle" x="593.5" y="-186.5" font-family="Helvetica,sans-Serif" font-size="10.00">cstdint</text>
</g>
<!-- Node21&#45;&gt;Node22 -->
<g id="edge26" class="edge"><title>Node21&#45;&gt;Node22</title>
<path fill="none" stroke="midnightblue" d="M576.803,-235.083C579.482,-227.849 583.349,-217.409 586.686,-208.397"/>
<polygon fill="midnightblue" stroke="midnightblue" points="590.068,-209.344 590.259,-198.751 583.504,-206.913 590.068,-209.344"/>
</g>
<!-- Node24 -->
<g id="node24" class="node"><title>Node24</title>
<g id="a_node24"><a xlink:href="indexutil_8h.xhtml" target="_top" xlink:title="API for handling index files and index groups. ">
<polygon fill="white" stroke="black" points="1158,-179.5 1158,-198.5 1301,-198.5 1301,-179.5 1158,-179.5"/>
<text text-anchor="middle" x="1229.5" y="-186.5" font-family="Helvetica,sans-Serif" font-size="10.00">gromacs/selection/indexutil.h</text>
</a>
</g>
</g>
<!-- Node23&#45;&gt;Node24 -->
<g id="edge29" class="edge"><title>Node23&#45;&gt;Node24</title>
<path fill="none" stroke="midnightblue" d="M1235.34,-235.083C1234.42,-227.927 1233.08,-217.635 1231.92,-208.691"/>
<polygon fill="midnightblue" stroke="midnightblue" points="1235.39,-208.218 1230.63,-198.751 1228.45,-209.118 1235.39,-208.218"/>
</g>
<!-- Node25 -->
<g id="node25" class="node"><title>Node25</title>
<polygon fill="white" stroke="#bfbfbf" points="1184,-123.5 1184,-142.5 1227,-142.5 1227,-123.5 1184,-123.5"/>
<text text-anchor="middle" x="1205.5" y="-130.5" font-family="Helvetica,sans-Serif" font-size="10.00">cstdio</text>
</g>
<!-- Node24&#45;&gt;Node25 -->
<g id="edge30" class="edge"><title>Node24&#45;&gt;Node25</title>
<path fill="none" stroke="midnightblue" d="M1225.54,-179.083C1222.29,-171.77 1217.58,-161.181 1213.55,-152.103"/>
<polygon fill="midnightblue" stroke="midnightblue" points="1216.65,-150.468 1209.39,-142.751 1210.25,-153.311 1216.65,-150.468"/>
</g>
<!-- Node26 -->
<g id="node26" class="node"><title>Node26</title>
<polygon fill="white" stroke="#bfbfbf" points="1101,-123.5 1101,-142.5 1142,-142.5 1142,-123.5 1101,-123.5"/>
<text text-anchor="middle" x="1121.5" y="-130.5" font-family="Helvetica,sans-Serif" font-size="10.00">string</text>
</g>
<!-- Node24&#45;&gt;Node26 -->
<g id="edge31" class="edge"><title>Node24&#45;&gt;Node26</title>
<path fill="none" stroke="midnightblue" d="M1212.15,-179.324C1194.83,-170.664 1167.98,-157.242 1148,-147.249"/>
<polygon fill="midnightblue" stroke="midnightblue" points="1149.32,-143.996 1138.81,-142.655 1146.19,-150.257 1149.32,-143.996"/>
</g>
<!-- Node27&#45;&gt;Node4 -->
<g id="edge37" class="edge"><title>Node27&#45;&gt;Node4</title>
<path fill="none" stroke="midnightblue" d="M867.181,-179.346C893.305,-167.241 932.674,-144.335 913.5,-123 909.847,-118.936 587.993,-86.916 477.926,-76.0745"/>
<polygon fill="midnightblue" stroke="midnightblue" points="477.95,-72.5599 467.655,-75.0637 477.264,-79.5263 477.95,-72.5599"/>
</g>
<!-- Node27&#45;&gt;Node5 -->
<g id="edge41" class="edge"><title>Node27&#45;&gt;Node5</title>
<path fill="none" stroke="midnightblue" d="M776.704,-180.697C770.885,-180.113 765.092,-179.541 759.5,-179 581.833,-161.816 536.923,-162.547 359.5,-143 347.456,-141.673 334.259,-140.004 322.66,-138.466"/>
<polygon fill="midnightblue" stroke="midnightblue" points="322.914,-134.968 312.536,-137.102 321.979,-141.906 322.914,-134.968"/>
</g>
<!-- Node27&#45;&gt;Node11 -->
<g id="edge45" class="edge"><title>Node27&#45;&gt;Node11</title>
<path fill="none" stroke="midnightblue" d="M807.679,-179.444C764.939,-170.023 696.168,-154.866 649.934,-144.675"/>
<polygon fill="midnightblue" stroke="midnightblue" points="650.658,-141.251 640.139,-142.516 649.152,-148.087 650.658,-141.251"/>
</g>
<!-- Node27&#45;&gt;Node12 -->
<g id="edge42" class="edge"><title>Node27&#45;&gt;Node12</title>
<path fill="none" stroke="midnightblue" d="M916.362,-182.401C942.382,-176.518 969.461,-165.051 985.5,-143 998.47,-125.168 980.578,-102.754 964.745,-88.0472"/>
<polygon fill="midnightblue" stroke="midnightblue" points="966.659,-85.0714 956.827,-81.124 962.051,-90.3412 966.659,-85.0714"/>
</g>
<!-- Node27&#45;&gt;Node15 -->
<g id="edge44" class="edge"><title>Node27&#45;&gt;Node15</title>
<path fill="none" stroke="midnightblue" d="M883.073,-179.484C920.356,-169.113 969.781,-149.626 947.5,-123 920.596,-90.8505 806.849,-79.144 732.294,-74.8978"/>
<polygon fill="midnightblue" stroke="midnightblue" points="732.22,-71.3889 722.047,-74.3468 731.844,-78.3788 732.22,-71.3889"/>
</g>
<!-- Node27&#45;&gt;Node16 -->
<g id="edge43" class="edge"><title>Node27&#45;&gt;Node16</title>
<path fill="none" stroke="midnightblue" d="M782.327,-179.444C709.75,-169.767 591.764,-154.035 515.399,-143.853"/>
<polygon fill="midnightblue" stroke="midnightblue" points="515.748,-140.369 505.373,-142.516 514.823,-147.307 515.748,-140.369"/>
</g>
<!-- Node27&#45;&gt;Node25 -->
<g id="edge34" class="edge"><title>Node27&#45;&gt;Node25</title>
<path fill="none" stroke="midnightblue" d="M905.957,-179.472C967.269,-170.614 1065.63,-156.225 1150.5,-143 1158.06,-141.822 1166.19,-140.513 1173.83,-139.267"/>
<polygon fill="midnightblue" stroke="midnightblue" points="1174.53,-142.699 1183.83,-137.624 1173.4,-135.792 1174.53,-142.699"/>
</g>
<!-- Node27&#45;&gt;Node26 -->
<g id="edge38" class="edge"><title>Node27&#45;&gt;Node26</title>
<path fill="none" stroke="midnightblue" d="M902.819,-179.46C950.475,-171.825 1020.73,-159.614 1091.01,-142.887"/>
<polygon fill="midnightblue" stroke="midnightblue" points="1092.02,-146.243 1100.92,-140.497 1090.38,-139.438 1092.02,-146.243"/>
</g>
<!-- Node28 -->
<g id="node28" class="node"><title>Node28</title>
<polygon fill="white" stroke="#bfbfbf" points="1038,-123.5 1038,-142.5 1083,-142.5 1083,-123.5 1038,-123.5"/>
<text text-anchor="middle" x="1060.5" y="-130.5" font-family="Helvetica,sans-Serif" font-size="10.00">cstdlib</text>
</g>
<!-- Node27&#45;&gt;Node28 -->
<g id="edge35" class="edge"><title>Node27&#45;&gt;Node28</title>
<path fill="none" stroke="midnightblue" d="M880.409,-179.444C920.957,-169.212 988.331,-152.211 1028.17,-142.158"/>
<polygon fill="midnightblue" stroke="midnightblue" points="1029.07,-145.541 1037.91,-139.7 1027.36,-138.753 1029.07,-145.541"/>
</g>
<!-- Node29 -->
<g id="node29" class="node"><title>Node29</title>
<polygon fill="white" stroke="#bfbfbf" points="688,-123.5 688,-142.5 747,-142.5 747,-123.5 688,-123.5"/>
<text text-anchor="middle" x="717.5" y="-130.5" font-family="Helvetica,sans-Serif" font-size="10.00">exception</text>
</g>
<!-- Node27&#45;&gt;Node29 -->
<g id="edge36" class="edge"><title>Node27&#45;&gt;Node29</title>
<path fill="none" stroke="midnightblue" d="M826.06,-179.444C804.83,-170.557 771.401,-156.563 747.245,-146.451"/>
<polygon fill="midnightblue" stroke="midnightblue" points="748.421,-143.149 737.845,-142.516 745.718,-149.606 748.421,-143.149"/>
</g>
<!-- Node30 -->
<g id="node30" class="node"><title>Node30</title>
<polygon fill="white" stroke="#bfbfbf" points="765.5,-123.5 765.5,-142.5 827.5,-142.5 827.5,-123.5 765.5,-123.5"/>
<text text-anchor="middle" x="796.5" y="-130.5" font-family="Helvetica,sans-Serif" font-size="10.00">type_traits</text>
</g>
<!-- Node27&#45;&gt;Node30 -->
<g id="edge39" class="edge"><title>Node27&#45;&gt;Node30</title>
<path fill="none" stroke="midnightblue" d="M838.244,-179.083C831.035,-171.298 820.39,-159.801 811.654,-150.367"/>
<polygon fill="midnightblue" stroke="midnightblue" points="813.965,-147.711 804.603,-142.751 808.829,-152.467 813.965,-147.711"/>
</g>
<!-- Node31 -->
<g id="node31" class="node"><title>Node31</title>
<polygon fill="white" stroke="#bfbfbf" points="846,-123.5 846,-142.5 905,-142.5 905,-123.5 846,-123.5"/>
<text text-anchor="middle" x="875.5" y="-130.5" font-family="Helvetica,sans-Serif" font-size="10.00">typeindex</text>
</g>
<!-- Node27&#45;&gt;Node31 -->
<g id="edge40" class="edge"><title>Node27&#45;&gt;Node31</title>
<path fill="none" stroke="midnightblue" d="M851.289,-179.083C855.258,-171.691 861.025,-160.953 865.935,-151.811"/>
<polygon fill="midnightblue" stroke="midnightblue" points="869.153,-153.217 870.8,-142.751 862.986,-149.905 869.153,-153.217"/>
</g>
<!-- Node33 -->
<g id="node33" class="node"><title>Node33</title>
<polygon fill="white" stroke="#bfbfbf" points="1037,-179.5 1037,-198.5 1140,-198.5 1140,-179.5 1037,-179.5"/>
<text text-anchor="middle" x="1088.5" y="-186.5" font-family="Helvetica,sans-Serif" font-size="10.00">thread_mpi/mutex.h</text>
</g>
<!-- Node32&#45;&gt;Node33 -->
<g id="edge48" class="edge"><title>Node32&#45;&gt;Node33</title>
<path fill="none" stroke="midnightblue" d="M1088.5,-235.083C1088.5,-228.006 1088.5,-217.861 1088.5,-208.986"/>
<polygon fill="midnightblue" stroke="midnightblue" points="1092,-208.751 1088.5,-198.751 1085,-208.751 1092,-208.751"/>
</g>
<!-- Node34&#45;&gt;Node5 -->
<g id="edge52" class="edge"><title>Node34&#45;&gt;Node5</title>
<path fill="none" stroke="midnightblue" d="M881.42,-235.382C831.185,-219.504 725.244,-186.56 687.5,-179 543.703,-150.197 505.107,-160.485 359.5,-143 347.47,-141.555 334.275,-139.861 322.675,-138.335"/>
<polygon fill="midnightblue" stroke="midnightblue" points="322.922,-134.837 312.549,-136.992 322.002,-141.776 322.922,-134.837"/>
</g>
<!-- Node34&#45;&gt;Node19 -->
<g id="edge50" class="edge"><title>Node34&#45;&gt;Node19</title>
<path fill="none" stroke="midnightblue" d="M922.478,-235.324C936.05,-226.9 956.88,-213.971 972.825,-204.074"/>
<polygon fill="midnightblue" stroke="midnightblue" points="974.906,-206.902 981.557,-198.655 971.214,-200.954 974.906,-206.902"/>
</g>
<!-- Node34&#45;&gt;Node26 -->
<g id="edge51" class="edge"><title>Node34&#45;&gt;Node26</title>
<path fill="none" stroke="midnightblue" d="M913.4,-235.413C921.818,-221.444 940.372,-193.869 963.5,-179 1010.69,-148.665 1032.49,-158.341 1091.12,-142.941"/>
<polygon fill="midnightblue" stroke="midnightblue" points="1092.15,-146.287 1100.86,-140.244 1090.29,-139.541 1092.15,-146.287"/>
</g>
</g>
</svg>
