<?xml version="1.0" encoding="UTF-8" standalone="no"?>
<!DOCTYPE svg PUBLIC "-//W3C//DTD SVG 1.1//EN"
 "http://www.w3.org/Graphics/SVG/1.1/DTD/svg11.dtd">
<!-- Generated by graphviz version 2.38.0 (20140413.2041)
 -->
<!-- Title: src/gromacs/random/normaldistribution.h Pages: 1 -->
<svg width="280pt" height="106pt"
 viewBox="0.00 0.00 280.00 106.00" xmlns="http://www.w3.org/2000/svg" xmlns:xlink="http://www.w3.org/1999/xlink">
<g id="graph0" class="graph" transform="scale(1 1) rotate(0) translate(4 102)">
<title>src/gromacs/random/normaldistribution.h</title>
<polygon fill="white" stroke="none" points="-4,4 -4,-102 276,-102 276,4 -4,4"/>
<!-- Node1 -->
<g id="node1" class="node"><title>Node1</title>
<polygon fill="#bfbfbf" stroke="black" points="89,-67.5 89,-97.5 195,-97.5 195,-67.5 89,-67.5"/>
<text text-anchor="start" x="97" y="-85.5" font-family="Helvetica,sans-Serif" font-size="10.00">src/gromacs/random</text>
<text text-anchor="middle" x="142" y="-74.5" font-family="Helvetica,sans-Serif" font-size="10.00">/normaldistribution.h</text>
</g>
<!-- Node2 -->
<g id="node2" class="node"><title>Node2</title>
<g id="a_node2"><a xlink:href="normaldistribution_8cpp.xhtml" target="_top" xlink:title="Tests for GROMACS normal distribution. ">
<polygon fill="white" stroke="black" points="0,-0.5 0,-30.5 140,-30.5 140,-0.5 0,-0.5"/>
<text text-anchor="start" x="8" y="-18.5" font-family="Helvetica,sans-Serif" font-size="10.00">src/gromacs/random</text>
<text text-anchor="middle" x="70" y="-7.5" font-family="Helvetica,sans-Serif" font-size="10.00">/tests/normaldistribution.cpp</text>
</a>
</g>
</g>
<!-- Node1&#45;&gt;Node2 -->
<g id="edge1" class="edge"><title>Node1&#45;&gt;Node2</title>
<path fill="none" stroke="midnightblue" d="M118.847,-60.5978C107.975,-50.7831 95.3043,-39.3442 85.5924,-30.5765"/>
<polygon fill="midnightblue" stroke="midnightblue" points="116.609,-63.2929 126.377,-67.396 121.3,-58.097 116.609,-63.2929"/>
</g>
<!-- Node3 -->
<g id="node3" class="node"><title>Node3</title>
<g id="a_node3"><a xlink:href="random_8h.xhtml" target="_top" xlink:title="Public API convenience header for random engines and distributions. ">
<polygon fill="white" stroke="black" points="158,-6 158,-25 272,-25 272,-6 158,-6"/>
<text text-anchor="middle" x="215" y="-13" font-family="Helvetica,sans-Serif" font-size="10.00">src/gromacs/random.h</text>
</a>
</g>
</g>
<!-- Node1&#45;&gt;Node3 -->
<g id="edge2" class="edge"><title>Node1&#45;&gt;Node3</title>
<path fill="none" stroke="midnightblue" d="M165.391,-60.6722C178.87,-48.6707 195.099,-34.2203 205.235,-25.1945"/>
<polygon fill="midnightblue" stroke="midnightblue" points="162.981,-58.132 157.84,-67.396 167.636,-63.3599 162.981,-58.132"/>
</g>
</g>
</svg>
