<?xml version="1.0" encoding="UTF-8" standalone="no"?>
<!DOCTYPE svg PUBLIC "-//W3C//DTD SVG 1.1//EN"
 "http://www.w3.org/Graphics/SVG/1.1/DTD/svg11.dtd">
<!-- Generated by graphviz version 2.38.0 (20140413.2041)
 -->
<!-- Title: src/gromacs/gpu_utils/ocl_compiler.h Pages: 1 -->
<svg width="421pt" height="106pt"
 viewBox="0.00 0.00 421.00 106.00" xmlns="http://www.w3.org/2000/svg" xmlns:xlink="http://www.w3.org/1999/xlink">
<g id="graph0" class="graph" transform="scale(1 1) rotate(0) translate(4 102)">
<title>src/gromacs/gpu_utils/ocl_compiler.h</title>
<polygon fill="white" stroke="none" points="-4,4 -4,-102 417,-102 417,4 -4,4"/>
<!-- Node1 -->
<g id="node1" class="node"><title>Node1</title>
<polygon fill="#bfbfbf" stroke="black" points="131,-67.5 131,-97.5 244,-97.5 244,-67.5 131,-67.5"/>
<text text-anchor="start" x="139" y="-85.5" font-family="Helvetica,sans-Serif" font-size="10.00">src/gromacs/gpu_utils</text>
<text text-anchor="middle" x="187.5" y="-74.5" font-family="Helvetica,sans-Serif" font-size="10.00">/ocl_compiler.h</text>
</g>
<!-- Node2 -->
<g id="node2" class="node"><title>Node2</title>
<g id="a_node2"><a xlink:href="gpu__utils__ocl_8cpp.xhtml" target="_top" xlink:title="Define functions for detection and initialization for OpenCL devices. ">
<polygon fill="white" stroke="black" points="0,-0.5 0,-30.5 113,-30.5 113,-0.5 0,-0.5"/>
<text text-anchor="start" x="8" y="-18.5" font-family="Helvetica,sans-Serif" font-size="10.00">src/gromacs/gpu_utils</text>
<text text-anchor="middle" x="56.5" y="-7.5" font-family="Helvetica,sans-Serif" font-size="10.00">/gpu_utils_ocl.cpp</text>
</a>
</g>
</g>
<!-- Node1&#45;&gt;Node2 -->
<g id="edge1" class="edge"><title>Node1&#45;&gt;Node2</title>
<path fill="none" stroke="midnightblue" d="M149.92,-62.8533C129.207,-52.5761 103.912,-40.0252 84.8696,-30.5765"/>
<polygon fill="midnightblue" stroke="midnightblue" points="148.561,-66.0864 159.075,-67.396 151.673,-59.8159 148.561,-66.0864"/>
</g>
<!-- Node3 -->
<g id="node3" class="node"><title>Node3</title>
<g id="a_node3"><a xlink:href="ocl__compiler_8cpp.xhtml" target="_top" xlink:title="Define infrastructure for OpenCL JIT compilation for Gromacs. ">
<polygon fill="white" stroke="black" points="131,-0.5 131,-30.5 244,-30.5 244,-0.5 131,-0.5"/>
<text text-anchor="start" x="139" y="-18.5" font-family="Helvetica,sans-Serif" font-size="10.00">src/gromacs/gpu_utils</text>
<text text-anchor="middle" x="187.5" y="-7.5" font-family="Helvetica,sans-Serif" font-size="10.00">/ocl_compiler.cpp</text>
</a>
</g>
</g>
<!-- Node1&#45;&gt;Node3 -->
<g id="edge2" class="edge"><title>Node1&#45;&gt;Node3</title>
<path fill="none" stroke="midnightblue" d="M187.5,-57.1081C187.5,-48.1539 187.5,-38.3227 187.5,-30.5765"/>
<polygon fill="midnightblue" stroke="midnightblue" points="184,-57.3959 187.5,-67.396 191,-57.396 184,-57.3959"/>
</g>
<!-- Node4 -->
<g id="node4" class="node"><title>Node4</title>
<g id="a_node4"><a xlink:href="nbnxn__ocl__jit__support_8cpp.xhtml" target="_top" xlink:title="Defines functions that support JIT compilation (e.g. for OpenCL) ">
<polygon fill="white" stroke="black" points="262,-0.5 262,-30.5 413,-30.5 413,-0.5 262,-0.5"/>
<text text-anchor="start" x="270" y="-18.5" font-family="Helvetica,sans-Serif" font-size="10.00">src/gromacs/mdlib/nbnxn</text>
<text text-anchor="middle" x="337.5" y="-7.5" font-family="Helvetica,sans-Serif" font-size="10.00">_ocl/nbnxn_ocl_jit_support.cpp</text>
</a>
</g>
</g>
<!-- Node1&#45;&gt;Node4 -->
<g id="edge3" class="edge"><title>Node1&#45;&gt;Node4</title>
<path fill="none" stroke="midnightblue" d="M229.254,-63.4066C253.201,-53.0294 282.818,-40.1954 305.016,-30.5765"/>
<polygon fill="midnightblue" stroke="midnightblue" points="227.832,-60.2084 220.048,-67.396 230.615,-66.6313 227.832,-60.2084"/>
</g>
</g>
</svg>
