<?xml version="1.0" encoding="UTF-8" standalone="no"?>
<!DOCTYPE svg PUBLIC "-//W3C//DTD SVG 1.1//EN"
 "http://www.w3.org/Graphics/SVG/1.1/DTD/svg11.dtd">
<!-- Generated by graphviz version 2.38.0 (20140413.2041)
 -->
<!-- Title: src/gromacs/options/optionsassigner.cpp Pages: 1 -->
<svg width="1414pt" height="442pt"
 viewBox="0.00 0.00 1413.50 442.00" xmlns="http://www.w3.org/2000/svg" xmlns:xlink="http://www.w3.org/1999/xlink">
<g id="graph0" class="graph" transform="scale(1 1) rotate(0) translate(4 438)">
<title>src/gromacs/options/optionsassigner.cpp</title>
<polygon fill="white" stroke="none" points="-4,4 -4,-438 1409.5,-438 1409.5,4 -4,4"/>
<!-- Node1 -->
<g id="node1" class="node"><title>Node1</title>
<polygon fill="#bfbfbf" stroke="black" points="293.5,-403.5 293.5,-433.5 400.5,-433.5 400.5,-403.5 293.5,-403.5"/>
<text text-anchor="start" x="301.5" y="-421.5" font-family="Helvetica,sans-Serif" font-size="10.00">src/gromacs/options</text>
<text text-anchor="middle" x="347" y="-410.5" font-family="Helvetica,sans-Serif" font-size="10.00">/optionsassigner.cpp</text>
</g>
<!-- Node2 -->
<g id="node2" class="node"><title>Node2</title>
<g id="a_node2"><a xlink:href="gmxpre_8h.xhtml" target="_top" xlink:title="Prerequisite header file for GROMACS build. ">
<polygon fill="white" stroke="black" points="98.5,-347.5 98.5,-366.5 155.5,-366.5 155.5,-347.5 98.5,-347.5"/>
<text text-anchor="middle" x="127" y="-354.5" font-family="Helvetica,sans-Serif" font-size="10.00">gmxpre.h</text>
</a>
</g>
</g>
<!-- Node1&#45;&gt;Node2 -->
<g id="edge1" class="edge"><title>Node1&#45;&gt;Node2</title>
<path fill="none" stroke="midnightblue" d="M295.142,-403.475C255.484,-392.749 201.676,-378.197 165.718,-368.472"/>
<polygon fill="midnightblue" stroke="midnightblue" points="166.189,-364.973 155.622,-365.741 164.362,-371.73 166.189,-364.973"/>
</g>
<!-- Node3 -->
<g id="node3" class="node"><title>Node3</title>
<g id="a_node3"><a xlink:href="optionsassigner_8h.xhtml" target="_top" xlink:title="Declares gmx::OptionsAssigner. ">
<polygon fill="white" stroke="black" points="288.5,-179.5 288.5,-198.5 381.5,-198.5 381.5,-179.5 288.5,-179.5"/>
<text text-anchor="middle" x="335" y="-186.5" font-family="Helvetica,sans-Serif" font-size="10.00">optionsassigner.h</text>
</a>
</g>
</g>
<!-- Node1&#45;&gt;Node3 -->
<g id="edge2" class="edge"><title>Node1&#45;&gt;Node3</title>
<path fill="none" stroke="midnightblue" d="M344.903,-403.416C341.99,-383.073 336.868,-344.253 335,-311 332.965,-274.771 333.676,-232.344 334.354,-208.577"/>
<polygon fill="midnightblue" stroke="midnightblue" points="337.854,-208.623 334.672,-198.518 330.858,-208.402 337.854,-208.623"/>
</g>
<!-- Node7 -->
<g id="node7" class="node"><title>Node7</title>
<polygon fill="white" stroke="#bfbfbf" points="228.5,-347.5 228.5,-366.5 271.5,-366.5 271.5,-347.5 228.5,-347.5"/>
<text text-anchor="middle" x="250" y="-354.5" font-family="Helvetica,sans-Serif" font-size="10.00">deque</text>
</g>
<!-- Node1&#45;&gt;Node7 -->
<g id="edge6" class="edge"><title>Node1&#45;&gt;Node7</title>
<path fill="none" stroke="midnightblue" d="M324.012,-403.399C308.609,-393.951 288.407,-381.559 273.001,-372.109"/>
<polygon fill="midnightblue" stroke="midnightblue" points="274.469,-368.903 264.114,-366.658 270.808,-374.87 274.469,-368.903"/>
</g>
<!-- Node8 -->
<g id="node8" class="node"><title>Node8</title>
<g id="a_node8"><a xlink:href="abstractoptionstorage_8h.xhtml" target="_top" xlink:title="Declares gmx::AbstractOptionStorage. ">
<polygon fill="white" stroke="black" points="0,-179.5 0,-198.5 194,-198.5 194,-179.5 0,-179.5"/>
<text text-anchor="middle" x="97" y="-186.5" font-family="Helvetica,sans-Serif" font-size="10.00">gromacs/options/abstractoptionstorage.h</text>
</a>
</g>
</g>
<!-- Node1&#45;&gt;Node8 -->
<g id="edge7" class="edge"><title>Node1&#45;&gt;Node8</title>
<path fill="none" stroke="midnightblue" d="M293.491,-404.179C269.009,-396.227 240.694,-384.242 219,-367 162.336,-321.965 121.509,-243.582 105.043,-208.224"/>
<polygon fill="midnightblue" stroke="midnightblue" points="108.047,-206.374 100.725,-198.717 101.674,-209.269 108.047,-206.374"/>
</g>
<!-- Node11 -->
<g id="node11" class="node"><title>Node11</title>
<g id="a_node11"><a xlink:href="options_2options_8h.xhtml" target="_top" xlink:title="Declares gmx::Options. ">
<polygon fill="white" stroke="black" points="344.5,-291.5 344.5,-310.5 475.5,-310.5 475.5,-291.5 344.5,-291.5"/>
<text text-anchor="middle" x="410" y="-298.5" font-family="Helvetica,sans-Serif" font-size="10.00">gromacs/options/options.h</text>
</a>
</g>
</g>
<!-- Node1&#45;&gt;Node11 -->
<g id="edge12" class="edge"><title>Node1&#45;&gt;Node11</title>
<path fill="none" stroke="midnightblue" d="M354.725,-403.337C366.231,-382.243 387.855,-342.6 400.374,-319.648"/>
<polygon fill="midnightblue" stroke="midnightblue" points="403.555,-321.124 405.271,-310.669 397.41,-317.772 403.555,-321.124"/>
</g>
<!-- Node15 -->
<g id="node15" class="node"><title>Node15</title>
<g id="a_node15"><a xlink:href="gmxassert_8h.xhtml" target="_top" xlink:title="Defines assert macros customized for Gromacs. ">
<polygon fill="white" stroke="black" points="1232.5,-123.5 1232.5,-142.5 1369.5,-142.5 1369.5,-123.5 1232.5,-123.5"/>
<text text-anchor="middle" x="1301" y="-130.5" font-family="Helvetica,sans-Serif" font-size="10.00">gromacs/utility/gmxassert.h</text>
</a>
</g>
</g>
<!-- Node1&#45;&gt;Node15 -->
<g id="edge39" class="edge"><title>Node1&#45;&gt;Node15</title>
<path fill="none" stroke="midnightblue" d="M400.804,-416.36C596.075,-411.521 1256,-388.749 1256,-302 1256,-302 1256,-302 1256,-244 1256,-208.93 1275.84,-171.939 1289.17,-151.037"/>
<polygon fill="midnightblue" stroke="midnightblue" points="1292.13,-152.899 1294.74,-142.63 1286.3,-149.031 1292.13,-152.899"/>
</g>
<!-- Node20 -->
<g id="node20" class="node"><title>Node20</title>
<g id="a_node20"><a xlink:href="exceptions_8h.xhtml" target="_top" xlink:title="Declares common exception classes and macros for fatal error handling. ">
<polygon fill="white" stroke="black" points="915.5,-179.5 915.5,-198.5 1054.5,-198.5 1054.5,-179.5 915.5,-179.5"/>
<text text-anchor="middle" x="985" y="-186.5" font-family="Helvetica,sans-Serif" font-size="10.00">gromacs/utility/exceptions.h</text>
</a>
</g>
</g>
<!-- Node1&#45;&gt;Node20 -->
<g id="edge26" class="edge"><title>Node1&#45;&gt;Node20</title>
<path fill="none" stroke="midnightblue" d="M400.628,-415.92C534.49,-410.805 878.027,-390.087 954,-311 980.827,-283.073 985.311,-235.231 985.57,-208.846"/>
<polygon fill="midnightblue" stroke="midnightblue" points="989.068,-208.64 985.466,-198.676 982.069,-208.712 989.068,-208.64"/>
</g>
<!-- Node26 -->
<g id="node26" class="node"><title>Node26</title>
<g id="a_node26"><a xlink:href="options-impl_8h.xhtml" target="_top" xlink:title="Declares private implementation class for gmx::Options. ">
<polygon fill="white" stroke="black" points="680.5,-347.5 680.5,-366.5 757.5,-366.5 757.5,-347.5 680.5,-347.5"/>
<text text-anchor="middle" x="719" y="-354.5" font-family="Helvetica,sans-Serif" font-size="10.00">options&#45;impl.h</text>
</a>
</g>
</g>
<!-- Node1&#45;&gt;Node26 -->
<g id="edge40" class="edge"><title>Node1&#45;&gt;Node26</title>
<path fill="none" stroke="midnightblue" d="M400.695,-408.912C472.942,-397.356 600.406,-376.969 670.106,-365.82"/>
<polygon fill="midnightblue" stroke="midnightblue" points="671.046,-369.215 680.368,-364.179 669.941,-362.302 671.046,-369.215"/>
</g>
<!-- Node4 -->
<g id="node4" class="node"><title>Node4</title>
<polygon fill="white" stroke="#bfbfbf" points="283.5,-123.5 283.5,-142.5 324.5,-142.5 324.5,-123.5 283.5,-123.5"/>
<text text-anchor="middle" x="304" y="-130.5" font-family="Helvetica,sans-Serif" font-size="10.00">string</text>
</g>
<!-- Node3&#45;&gt;Node4 -->
<g id="edge3" class="edge"><title>Node3&#45;&gt;Node4</title>
<path fill="none" stroke="midnightblue" d="M329.881,-179.083C325.592,-171.613 319.342,-160.724 314.058,-151.52"/>
<polygon fill="midnightblue" stroke="midnightblue" points="317.038,-149.681 309.024,-142.751 310.967,-153.166 317.038,-149.681"/>
</g>
<!-- Node5 -->
<g id="node5" class="node"><title>Node5</title>
<g id="a_node5"><a xlink:href="classhelpers_8h.xhtml" target="_top" xlink:title="Declares common utility classes and macros. ">
<polygon fill="white" stroke="black" points="446,-123.5 446,-142.5 592,-142.5 592,-123.5 446,-123.5"/>
<text text-anchor="middle" x="519" y="-130.5" font-family="Helvetica,sans-Serif" font-size="10.00">gromacs/utility/classhelpers.h</text>
</a>
</g>
</g>
<!-- Node3&#45;&gt;Node5 -->
<g id="edge4" class="edge"><title>Node3&#45;&gt;Node5</title>
<path fill="none" stroke="midnightblue" d="M364.155,-179.444C395.513,-170.241 445.531,-155.562 480.197,-145.388"/>
<polygon fill="midnightblue" stroke="midnightblue" points="481.371,-148.691 489.981,-142.516 479.4,-141.974 481.371,-148.691"/>
</g>
<!-- Node6 -->
<g id="node6" class="node"><title>Node6</title>
<polygon fill="white" stroke="#bfbfbf" points="743,-62 743,-81 795,-81 795,-62 743,-62"/>
<text text-anchor="middle" x="769" y="-69" font-family="Helvetica,sans-Serif" font-size="10.00">memory</text>
</g>
<!-- Node5&#45;&gt;Node6 -->
<g id="edge5" class="edge"><title>Node5&#45;&gt;Node6</title>
<path fill="none" stroke="midnightblue" d="M554.819,-123.475C602.24,-112.189 685.391,-92.399 732.935,-81.0835"/>
<polygon fill="midnightblue" stroke="midnightblue" points="733.879,-84.4566 742.797,-78.7363 732.259,-77.6468 733.879,-84.4566"/>
</g>
<!-- Node8&#45;&gt;Node4 -->
<g id="edge8" class="edge"><title>Node8&#45;&gt;Node4</title>
<path fill="none" stroke="midnightblue" d="M129.8,-179.444C169.189,-169.168 234.747,-152.066 273.217,-142.03"/>
<polygon fill="midnightblue" stroke="midnightblue" points="274.512,-145.31 283.304,-139.399 272.745,-138.536 274.512,-145.31"/>
</g>
<!-- Node8&#45;&gt;Node5 -->
<g id="edge11" class="edge"><title>Node8&#45;&gt;Node5</title>
<path fill="none" stroke="midnightblue" d="M163.867,-179.444C239.645,-169.747 362.931,-153.971 442.485,-143.791"/>
<polygon fill="midnightblue" stroke="midnightblue" points="442.971,-147.257 452.446,-142.516 442.082,-140.314 442.971,-147.257"/>
</g>
<!-- Node9 -->
<g id="node9" class="node"><title>Node9</title>
<g id="a_node9"><a xlink:href="optionflags_8h.xhtml" target="_top" xlink:title="Defines flags used in option implementation. ">
<polygon fill="white" stroke="black" points="55.5,-123.5 55.5,-142.5 202.5,-142.5 202.5,-123.5 55.5,-123.5"/>
<text text-anchor="middle" x="129" y="-130.5" font-family="Helvetica,sans-Serif" font-size="10.00">gromacs/options/optionflags.h</text>
</a>
</g>
</g>
<!-- Node8&#45;&gt;Node9 -->
<g id="edge9" class="edge"><title>Node8&#45;&gt;Node9</title>
<path fill="none" stroke="midnightblue" d="M102.284,-179.083C106.711,-171.613 113.163,-160.724 118.618,-151.52"/>
<polygon fill="midnightblue" stroke="midnightblue" points="121.727,-153.138 123.814,-142.751 115.705,-149.57 121.727,-153.138"/>
</g>
<!-- Node10 -->
<g id="node10" class="node"><title>Node10</title>
<g id="a_node10"><a xlink:href="flags_8h.xhtml" target="_top" xlink:title="Declares gmx::FlagsTemplate. ">
<polygon fill="white" stroke="black" points="72.5,-62 72.5,-81 185.5,-81 185.5,-62 72.5,-62"/>
<text text-anchor="middle" x="129" y="-69" font-family="Helvetica,sans-Serif" font-size="10.00">gromacs/utility/flags.h</text>
</a>
</g>
</g>
<!-- Node9&#45;&gt;Node10 -->
<g id="edge10" class="edge"><title>Node9&#45;&gt;Node10</title>
<path fill="none" stroke="midnightblue" d="M129,-123.475C129,-115.08 129,-101.981 129,-91.1631"/>
<polygon fill="midnightblue" stroke="midnightblue" points="132.5,-91.0091 129,-81.0091 125.5,-91.0091 132.5,-91.0091"/>
</g>
<!-- Node11&#45;&gt;Node4 -->
<g id="edge13" class="edge"><title>Node11&#45;&gt;Node4</title>
<path fill="none" stroke="midnightblue" d="M389.524,-291.435C358.855,-277.336 302.126,-246.032 279,-199 271.197,-183.132 280.469,-164.18 289.853,-150.847"/>
<polygon fill="midnightblue" stroke="midnightblue" points="292.853,-152.687 296.159,-142.621 287.297,-148.428 292.853,-152.687"/>
</g>
<!-- Node11&#45;&gt;Node5 -->
<g id="edge25" class="edge"><title>Node11&#45;&gt;Node5</title>
<path fill="none" stroke="midnightblue" d="M408.959,-291.385C406.858,-270.061 404.297,-214.014 430,-179 441.22,-163.716 459.126,-153.273 475.946,-146.327"/>
<polygon fill="midnightblue" stroke="midnightblue" points="477.561,-149.457 485.664,-142.631 475.073,-142.915 477.561,-149.457"/>
</g>
<!-- Node12 -->
<g id="node12" class="node"><title>Node12</title>
<g id="a_node12"><a xlink:href="ioptionscontainer_8h.xhtml" target="_top" xlink:title="Declares gmx::IOptionsContainer. ">
<polygon fill="white" stroke="black" points="438.5,-235.5 438.5,-254.5 611.5,-254.5 611.5,-235.5 438.5,-235.5"/>
<text text-anchor="middle" x="525" y="-242.5" font-family="Helvetica,sans-Serif" font-size="10.00">gromacs/options/ioptionscontainer.h</text>
</a>
</g>
</g>
<!-- Node11&#45;&gt;Node12 -->
<g id="edge14" class="edge"><title>Node11&#45;&gt;Node12</title>
<path fill="none" stroke="midnightblue" d="M428.222,-291.444C446.896,-282.675 476.156,-268.935 497.617,-258.858"/>
<polygon fill="midnightblue" stroke="midnightblue" points="499.299,-261.935 506.863,-254.516 496.324,-255.599 499.299,-261.935"/>
</g>
<!-- Node13 -->
<g id="node13" class="node"><title>Node13</title>
<g id="a_node13"><a xlink:href="abstractoption_8h.xhtml" target="_top" xlink:title="Defines gmx::AbstractOption, gmx::OptionTemplate and gmx::OptionInfo. ">
<polygon fill="white" stroke="black" points="438.5,-179.5 438.5,-198.5 599.5,-198.5 599.5,-179.5 438.5,-179.5"/>
<text text-anchor="middle" x="519" y="-186.5" font-family="Helvetica,sans-Serif" font-size="10.00">gromacs/options/abstractoption.h</text>
</a>
</g>
</g>
<!-- Node12&#45;&gt;Node13 -->
<g id="edge15" class="edge"><title>Node12&#45;&gt;Node13</title>
<path fill="none" stroke="midnightblue" d="M524.009,-235.083C523.214,-227.927 522.071,-217.635 521.077,-208.691"/>
<polygon fill="midnightblue" stroke="midnightblue" points="524.555,-208.303 519.972,-198.751 517.598,-209.076 524.555,-208.303"/>
</g>
<!-- Node12&#45;&gt;Node15 -->
<g id="edge20" class="edge"><title>Node12&#45;&gt;Node15</title>
<path fill="none" stroke="midnightblue" d="M611.515,-241.683C718.515,-237.695 905.894,-227.034 1064,-199 1137.04,-186.05 1220.17,-160.712 1266.01,-145.784"/>
<polygon fill="midnightblue" stroke="midnightblue" points="1267.34,-149.03 1275.75,-142.585 1265.16,-142.38 1267.34,-149.03"/>
</g>
<!-- Node13&#45;&gt;Node4 -->
<g id="edge16" class="edge"><title>Node13&#45;&gt;Node4</title>
<path fill="none" stroke="midnightblue" d="M484.933,-179.444C443.52,-169.042 374.258,-151.646 334.518,-141.665"/>
<polygon fill="midnightblue" stroke="midnightblue" points="335.164,-138.219 324.613,-139.177 333.459,-145.008 335.164,-138.219"/>
</g>
<!-- Node13&#45;&gt;Node5 -->
<g id="edge19" class="edge"><title>Node13&#45;&gt;Node5</title>
<path fill="none" stroke="midnightblue" d="M519,-179.083C519,-172.006 519,-161.861 519,-152.986"/>
<polygon fill="midnightblue" stroke="midnightblue" points="522.5,-152.751 519,-142.751 515.5,-152.751 522.5,-152.751"/>
</g>
<!-- Node13&#45;&gt;Node9 -->
<g id="edge18" class="edge"><title>Node13&#45;&gt;Node9</title>
<path fill="none" stroke="midnightblue" d="M457.203,-179.444C387.457,-169.786 274.162,-154.099 200.613,-143.916"/>
<polygon fill="midnightblue" stroke="midnightblue" points="200.893,-140.421 190.508,-142.516 199.933,-147.355 200.893,-140.421"/>
</g>
<!-- Node14 -->
<g id="node14" class="node"><title>Node14</title>
<polygon fill="white" stroke="#bfbfbf" points="697,-123.5 697,-142.5 741,-142.5 741,-123.5 697,-123.5"/>
<text text-anchor="middle" x="719" y="-130.5" font-family="Helvetica,sans-Serif" font-size="10.00">vector</text>
</g>
<!-- Node13&#45;&gt;Node14 -->
<g id="edge17" class="edge"><title>Node13&#45;&gt;Node14</title>
<path fill="none" stroke="midnightblue" d="M550.691,-179.444C587.942,-169.386 649.419,-152.787 686.863,-142.677"/>
<polygon fill="midnightblue" stroke="midnightblue" points="688.005,-145.994 696.747,-140.008 686.18,-139.236 688.005,-145.994"/>
</g>
<!-- Node16 -->
<g id="node16" class="node"><title>Node16</title>
<g id="a_node16"><a xlink:href="basedefinitions_8h.xhtml" target="_top" xlink:title="Basic types and macros used throughout GROMACS. ">
<polygon fill="white" stroke="black" points="989.5,-62 989.5,-81 1146.5,-81 1146.5,-62 989.5,-62"/>
<text text-anchor="middle" x="1068" y="-69" font-family="Helvetica,sans-Serif" font-size="10.00">gromacs/utility/basedefinitions.h</text>
</a>
</g>
</g>
<!-- Node15&#45;&gt;Node16 -->
<g id="edge21" class="edge"><title>Node15&#45;&gt;Node16</title>
<path fill="none" stroke="midnightblue" d="M1267.62,-123.475C1226.44,-112.959 1156.35,-95.0615 1111.13,-83.5142"/>
<polygon fill="midnightblue" stroke="midnightblue" points="1111.88,-80.0922 1101.32,-81.0091 1110.14,-86.8746 1111.88,-80.0922"/>
</g>
<!-- Node19 -->
<g id="node19" class="node"><title>Node19</title>
<g id="a_node19"><a xlink:href="current__function_8h.xhtml" target="_top" xlink:title="Declares GMX_CURRENT_FUNCTION for getting the current function name. ">
<polygon fill="white" stroke="black" points="1292.5,-56.5 1292.5,-86.5 1405.5,-86.5 1405.5,-56.5 1292.5,-56.5"/>
<text text-anchor="start" x="1300.5" y="-74.5" font-family="Helvetica,sans-Serif" font-size="10.00">gromacs/utility/current</text>
<text text-anchor="middle" x="1349" y="-63.5" font-family="Helvetica,sans-Serif" font-size="10.00">_function.h</text>
</a>
</g>
</g>
<!-- Node15&#45;&gt;Node19 -->
<g id="edge24" class="edge"><title>Node15&#45;&gt;Node19</title>
<path fill="none" stroke="midnightblue" d="M1307.88,-123.475C1313.95,-115.944 1323.08,-104.626 1331.2,-94.5663"/>
<polygon fill="midnightblue" stroke="midnightblue" points="1334.13,-96.5037 1337.69,-86.523 1328.68,-92.1085 1334.13,-96.5037"/>
</g>
<!-- Node17 -->
<g id="node17" class="node"><title>Node17</title>
<polygon fill="white" stroke="#bfbfbf" points="1007.5,-0.5 1007.5,-19.5 1056.5,-19.5 1056.5,-0.5 1007.5,-0.5"/>
<text text-anchor="middle" x="1032" y="-7.5" font-family="Helvetica,sans-Serif" font-size="10.00">stdint.h</text>
</g>
<!-- Node16&#45;&gt;Node17 -->
<g id="edge22" class="edge"><title>Node16&#45;&gt;Node17</title>
<path fill="none" stroke="midnightblue" d="M1062.84,-61.9751C1057.55,-53.2268 1049.16,-39.3691 1042.47,-28.3093"/>
<polygon fill="midnightblue" stroke="midnightblue" points="1045.32,-26.2531 1037.15,-19.5091 1039.33,-29.8768 1045.32,-26.2531"/>
</g>
<!-- Node18 -->
<g id="node18" class="node"><title>Node18</title>
<polygon fill="white" stroke="#bfbfbf" points="1074.5,-0.5 1074.5,-19.5 1133.5,-19.5 1133.5,-0.5 1074.5,-0.5"/>
<text text-anchor="middle" x="1104" y="-7.5" font-family="Helvetica,sans-Serif" font-size="10.00">inttypes.h</text>
</g>
<!-- Node16&#45;&gt;Node18 -->
<g id="edge23" class="edge"><title>Node16&#45;&gt;Node18</title>
<path fill="none" stroke="midnightblue" d="M1073.16,-61.9751C1078.45,-53.2268 1086.84,-39.3691 1093.53,-28.3093"/>
<polygon fill="midnightblue" stroke="midnightblue" points="1096.67,-29.8768 1098.85,-19.5091 1090.68,-26.2531 1096.67,-29.8768"/>
</g>
<!-- Node20&#45;&gt;Node4 -->
<g id="edge31" class="edge"><title>Node20&#45;&gt;Node4</title>
<path fill="none" stroke="midnightblue" d="M915.321,-182.475C769.462,-170.909 437.021,-144.548 334.607,-136.427"/>
<polygon fill="midnightblue" stroke="midnightblue" points="334.862,-132.936 324.616,-135.635 334.308,-139.914 334.862,-132.936"/>
</g>
<!-- Node20&#45;&gt;Node5 -->
<g id="edge36" class="edge"><title>Node20&#45;&gt;Node5</title>
<path fill="none" stroke="midnightblue" d="M915.487,-179.945C831.812,-170.249 691.431,-153.981 602.112,-143.631"/>
<polygon fill="midnightblue" stroke="midnightblue" points="602.355,-140.136 592.018,-142.461 601.549,-147.089 602.355,-140.136"/>
</g>
<!-- Node20&#45;&gt;Node6 -->
<g id="edge30" class="edge"><title>Node20&#45;&gt;Node6</title>
<path fill="none" stroke="midnightblue" d="M949.92,-179.491C922.916,-172.096 885.225,-159.905 855,-143 828.025,-127.912 801.155,-104.124 784.809,-88.4177"/>
<polygon fill="midnightblue" stroke="midnightblue" points="786.865,-85.5325 777.275,-81.0299 781.964,-90.5305 786.865,-85.5325"/>
</g>
<!-- Node20&#45;&gt;Node14 -->
<g id="edge34" class="edge"><title>Node20&#45;&gt;Node14</title>
<path fill="none" stroke="midnightblue" d="M942.852,-179.444C889.488,-168.61 798.747,-150.189 750.826,-140.461"/>
<polygon fill="midnightblue" stroke="midnightblue" points="751.497,-137.026 741,-138.466 750.104,-143.886 751.497,-137.026"/>
</g>
<!-- Node20&#45;&gt;Node15 -->
<g id="edge38" class="edge"><title>Node20&#45;&gt;Node15</title>
<path fill="none" stroke="midnightblue" d="M1035.07,-179.444C1091.01,-169.885 1181.51,-154.419 1241.14,-144.23"/>
<polygon fill="midnightblue" stroke="midnightblue" points="1241.9,-147.651 1251.16,-142.516 1240.72,-140.751 1241.9,-147.651"/>
</g>
<!-- Node20&#45;&gt;Node16 -->
<g id="edge35" class="edge"><title>Node20&#45;&gt;Node16</title>
<path fill="none" stroke="midnightblue" d="M934.358,-179.415C892.095,-170.001 842.164,-152.213 865,-123 880.197,-103.56 936.458,-90.5286 985.907,-82.5802"/>
<polygon fill="midnightblue" stroke="midnightblue" points="986.67,-86.0036 996.014,-81.0094 985.595,-79.0867 986.67,-86.0036"/>
</g>
<!-- Node20&#45;&gt;Node19 -->
<g id="edge37" class="edge"><title>Node20&#45;&gt;Node19</title>
<path fill="none" stroke="midnightblue" d="M1054.65,-184.997C1162.01,-179.644 1357.83,-166.727 1379,-143 1391.33,-129.183 1381.38,-109.544 1369.73,-94.5014"/>
<polygon fill="midnightblue" stroke="midnightblue" points="1372.31,-92.1261 1363.22,-86.6837 1366.93,-96.6069 1372.31,-92.1261"/>
</g>
<!-- Node21 -->
<g id="node21" class="node"><title>Node21</title>
<polygon fill="white" stroke="#bfbfbf" points="1108.5,-123.5 1108.5,-142.5 1151.5,-142.5 1151.5,-123.5 1108.5,-123.5"/>
<text text-anchor="middle" x="1130" y="-130.5" font-family="Helvetica,sans-Serif" font-size="10.00">cstdio</text>
</g>
<!-- Node20&#45;&gt;Node21 -->
<g id="edge27" class="edge"><title>Node20&#45;&gt;Node21</title>
<path fill="none" stroke="midnightblue" d="M1007.98,-179.444C1032.44,-170.332 1071.32,-155.853 1098.6,-145.693"/>
<polygon fill="midnightblue" stroke="midnightblue" points="1099.93,-148.933 1108.08,-142.163 1097.49,-142.373 1099.93,-148.933"/>
</g>
<!-- Node22 -->
<g id="node22" class="node"><title>Node22</title>
<polygon fill="white" stroke="#bfbfbf" points="1169.5,-123.5 1169.5,-142.5 1214.5,-142.5 1214.5,-123.5 1169.5,-123.5"/>
<text text-anchor="middle" x="1192" y="-130.5" font-family="Helvetica,sans-Serif" font-size="10.00">cstdlib</text>
</g>
<!-- Node20&#45;&gt;Node22 -->
<g id="edge28" class="edge"><title>Node20&#45;&gt;Node22</title>
<path fill="none" stroke="midnightblue" d="M1019.82,-179.449C1053.37,-171.131 1105.8,-157.931 1159.63,-143.318"/>
<polygon fill="midnightblue" stroke="midnightblue" points="1160.61,-146.678 1169.34,-140.671 1158.77,-139.925 1160.61,-146.678"/>
</g>
<!-- Node23 -->
<g id="node23" class="node"><title>Node23</title>
<polygon fill="white" stroke="#bfbfbf" points="873.5,-123.5 873.5,-142.5 932.5,-142.5 932.5,-123.5 873.5,-123.5"/>
<text text-anchor="middle" x="903" y="-130.5" font-family="Helvetica,sans-Serif" font-size="10.00">exception</text>
</g>
<!-- Node20&#45;&gt;Node23 -->
<g id="edge29" class="edge"><title>Node20&#45;&gt;Node23</title>
<path fill="none" stroke="midnightblue" d="M971.825,-179.324C959.153,-170.979 939.767,-158.212 924.794,-148.352"/>
<polygon fill="midnightblue" stroke="midnightblue" points="926.419,-145.231 916.142,-142.655 922.569,-151.078 926.419,-145.231"/>
</g>
<!-- Node24 -->
<g id="node24" class="node"><title>Node24</title>
<polygon fill="white" stroke="#bfbfbf" points="951,-123.5 951,-142.5 1013,-142.5 1013,-123.5 951,-123.5"/>
<text text-anchor="middle" x="982" y="-130.5" font-family="Helvetica,sans-Serif" font-size="10.00">type_traits</text>
</g>
<!-- Node20&#45;&gt;Node24 -->
<g id="edge32" class="edge"><title>Node20&#45;&gt;Node24</title>
<path fill="none" stroke="midnightblue" d="M984.505,-179.083C984.111,-172.006 983.548,-161.861 983.055,-152.986"/>
<polygon fill="midnightblue" stroke="midnightblue" points="986.536,-152.542 982.486,-142.751 979.546,-152.93 986.536,-152.542"/>
</g>
<!-- Node25 -->
<g id="node25" class="node"><title>Node25</title>
<polygon fill="white" stroke="#bfbfbf" points="1031.5,-123.5 1031.5,-142.5 1090.5,-142.5 1090.5,-123.5 1031.5,-123.5"/>
<text text-anchor="middle" x="1061" y="-130.5" font-family="Helvetica,sans-Serif" font-size="10.00">typeindex</text>
</g>
<!-- Node20&#45;&gt;Node25 -->
<g id="edge33" class="edge"><title>Node20&#45;&gt;Node25</title>
<path fill="none" stroke="midnightblue" d="M997.211,-179.324C1008.78,-171.107 1026.38,-158.602 1040.16,-148.807"/>
<polygon fill="midnightblue" stroke="midnightblue" points="1042.44,-151.479 1048.57,-142.834 1038.39,-145.773 1042.44,-151.479"/>
</g>
<!-- Node26&#45;&gt;Node4 -->
<g id="edge44" class="edge"><title>Node26&#45;&gt;Node4</title>
<path fill="none" stroke="midnightblue" d="M680.238,-355.854C594.269,-354.843 390.81,-348.443 335,-311 287.753,-279.301 287.23,-254.088 273,-199 270.777,-190.394 270.359,-187.488 273,-179 276.229,-168.622 282.776,-158.521 289.025,-150.527"/>
<polygon fill="midnightblue" stroke="midnightblue" points="291.785,-152.682 295.517,-142.766 286.416,-148.19 291.785,-152.682"/>
</g>
<!-- Node26&#45;&gt;Node6 -->
<g id="edge43" class="edge"><title>Node26&#45;&gt;Node6</title>
<path fill="none" stroke="midnightblue" d="M757.603,-356.277C792.717,-354.21 842.787,-344.952 868,-311 884.634,-288.6 914.397,-332.831 848,-179 845.839,-173.994 803.593,-118.047 781.788,-89.3157"/>
<polygon fill="midnightblue" stroke="midnightblue" points="784.34,-86.8886 775.504,-81.0427 778.766,-91.1229 784.34,-86.8886"/>
</g>
<!-- Node26&#45;&gt;Node11 -->
<g id="edge51" class="edge"><title>Node26&#45;&gt;Node11</title>
<path fill="none" stroke="midnightblue" d="M680.49,-349.27C627.311,-339.977 530.929,-323.133 468.734,-312.264"/>
<polygon fill="midnightblue" stroke="midnightblue" points="469.132,-308.781 458.678,-310.507 467.927,-315.676 469.132,-308.781"/>
</g>
<!-- Node26&#45;&gt;Node13 -->
<g id="edge46" class="edge"><title>Node26&#45;&gt;Node13</title>
<path fill="none" stroke="midnightblue" d="M713.935,-347.197C701.028,-325.444 664.809,-268.495 621,-235 601.972,-220.452 577.506,-209.454 557.305,-201.973"/>
<polygon fill="midnightblue" stroke="midnightblue" points="558.368,-198.636 547.773,-198.582 556.022,-205.231 558.368,-198.636"/>
</g>
<!-- Node26&#45;&gt;Node14 -->
<g id="edge45" class="edge"><title>Node26&#45;&gt;Node14</title>
<path fill="none" stroke="midnightblue" d="M732.047,-347.399C769.626,-321.558 872.759,-242.475 830,-179 820.803,-165.347 780.522,-151.369 751.125,-142.69"/>
<polygon fill="midnightblue" stroke="midnightblue" points="751.828,-139.25 741.25,-139.851 749.894,-145.978 751.828,-139.25"/>
</g>
<!-- Node27 -->
<g id="node27" class="node"><title>Node27</title>
<polygon fill="white" stroke="#bfbfbf" points="915.5,-291.5 915.5,-310.5 944.5,-310.5 944.5,-291.5 915.5,-291.5"/>
<text text-anchor="middle" x="930" y="-298.5" font-family="Helvetica,sans-Serif" font-size="10.00">list</text>
</g>
<!-- Node26&#45;&gt;Node27 -->
<g id="edge41" class="edge"><title>Node26&#45;&gt;Node27</title>
<path fill="none" stroke="midnightblue" d="M756.115,-347.495C793.012,-338.883 851.145,-324.887 901,-311 902.46,-310.593 903.958,-310.164 905.467,-309.724"/>
<polygon fill="midnightblue" stroke="midnightblue" points="906.74,-312.995 915.296,-306.746 904.711,-306.295 906.74,-312.995"/>
</g>
<!-- Node28 -->
<g id="node28" class="node"><title>Node28</title>
<polygon fill="white" stroke="#bfbfbf" points="823.5,-291.5 823.5,-310.5 858.5,-310.5 858.5,-291.5 823.5,-291.5"/>
<text text-anchor="middle" x="841" y="-298.5" font-family="Helvetica,sans-Serif" font-size="10.00">map</text>
</g>
<!-- Node26&#45;&gt;Node28 -->
<g id="edge42" class="edge"><title>Node26&#45;&gt;Node28</title>
<path fill="none" stroke="midnightblue" d="M738.331,-347.444C758.79,-338.388 791.228,-324.03 814.16,-313.88"/>
<polygon fill="midnightblue" stroke="midnightblue" points="815.616,-317.063 823.344,-309.815 812.783,-310.662 815.616,-317.063"/>
</g>
<!-- Node29 -->
<g id="node29" class="node"><title>Node29</title>
<g id="a_node29"><a xlink:href="optionmanagercontainer_8h.xhtml" target="_top" xlink:title="Declares gmx::OptionManagerContainer. ">
<polygon fill="white" stroke="black" points="617.5,-179.5 617.5,-198.5 820.5,-198.5 820.5,-179.5 617.5,-179.5"/>
<text text-anchor="middle" x="719" y="-186.5" font-family="Helvetica,sans-Serif" font-size="10.00">gromacs/options/optionmanagercontainer.h</text>
</a>
</g>
</g>
<!-- Node26&#45;&gt;Node29 -->
<g id="edge47" class="edge"><title>Node26&#45;&gt;Node29</title>
<path fill="none" stroke="midnightblue" d="M719,-347.075C719,-320.945 719,-244.211 719,-208.577"/>
<polygon fill="midnightblue" stroke="midnightblue" points="722.5,-208.568 719,-198.568 715.5,-208.568 722.5,-208.568"/>
</g>
<!-- Node29&#45;&gt;Node5 -->
<g id="edge49" class="edge"><title>Node29&#45;&gt;Node5</title>
<path fill="none" stroke="midnightblue" d="M687.309,-179.444C652.932,-170.162 597.923,-155.309 560.211,-145.127"/>
<polygon fill="midnightblue" stroke="midnightblue" points="561.109,-141.744 550.542,-142.516 559.284,-148.502 561.109,-141.744"/>
</g>
<!-- Node29&#45;&gt;Node14 -->
<g id="edge48" class="edge"><title>Node29&#45;&gt;Node14</title>
<path fill="none" stroke="midnightblue" d="M719,-179.083C719,-172.006 719,-161.861 719,-152.986"/>
<polygon fill="midnightblue" stroke="midnightblue" points="722.5,-152.751 719,-142.751 715.5,-152.751 722.5,-152.751"/>
</g>
<!-- Node29&#45;&gt;Node15 -->
<g id="edge50" class="edge"><title>Node29&#45;&gt;Node15</title>
<path fill="none" stroke="midnightblue" d="M820.641,-179.768C920.387,-171.5 1077.11,-158.004 1222.18,-143.166"/>
<polygon fill="midnightblue" stroke="midnightblue" points="1222.57,-146.644 1232.16,-142.141 1221.86,-139.681 1222.57,-146.644"/>
</g>
</g>
</svg>
