<?xml version="1.0" encoding="UTF-8" standalone="no"?>
<!DOCTYPE svg PUBLIC "-//W3C//DTD SVG 1.1//EN"
 "http://www.w3.org/Graphics/SVG/1.1/DTD/svg11.dtd">
<!-- Generated by graphviz version 2.38.0 (20140413.2041)
 -->
<!-- Title: src/gromacs/options/options.h Pages: 1 -->
<svg width="3028pt" height="307pt"
 viewBox="0.00 0.00 3028.00 307.00" xmlns="http://www.w3.org/2000/svg" xmlns:xlink="http://www.w3.org/1999/xlink">
<g id="graph0" class="graph" transform="scale(1 1) rotate(0) translate(4 303)">
<title>src/gromacs/options/options.h</title>
<polygon fill="white" stroke="none" points="-4,4 -4,-303 3024,-303 3024,4 -4,4"/>
<!-- Node1 -->
<g id="node1" class="node"><title>Node1</title>
<polygon fill="#bfbfbf" stroke="black" points="1499,-268.5 1499,-298.5 1604,-298.5 1604,-268.5 1499,-268.5"/>
<text text-anchor="start" x="1507" y="-286.5" font-family="Helvetica,sans-Serif" font-size="10.00">src/gromacs/options</text>
<text text-anchor="middle" x="1551.5" y="-275.5" font-family="Helvetica,sans-Serif" font-size="10.00">/options.h</text>
</g>
<!-- Node2 -->
<g id="node2" class="node"><title>Node2</title>
<g id="a_node2"><a xlink:href="cmdlinemodulemanager-impl_8h.xhtml" target="_top" xlink:title="Declares implementation types for gmx::CommandLineModuleManager. ">
<polygon fill="white" stroke="black" points="115,-190.5 115,-231.5 246,-231.5 246,-190.5 115,-190.5"/>
<text text-anchor="start" x="123" y="-219.5" font-family="Helvetica,sans-Serif" font-size="10.00">src/gromacs/commandline</text>
<text text-anchor="start" x="123" y="-208.5" font-family="Helvetica,sans-Serif" font-size="10.00">/cmdlinemodulemanager</text>
<text text-anchor="middle" x="180.5" y="-197.5" font-family="Helvetica,sans-Serif" font-size="10.00">&#45;impl.h</text>
</a>
</g>
</g>
<!-- Node1&#45;&gt;Node2 -->
<g id="edge1" class="edge"><title>Node1&#45;&gt;Node2</title>
<path fill="none" stroke="midnightblue" d="M1488.45,-281.752C1263.62,-278.816 501.752,-266.499 260.5,-232 255.823,-231.331 251.023,-230.503 246.208,-229.566"/>
<polygon fill="midnightblue" stroke="midnightblue" points="1488.7,-285.255 1498.75,-281.885 1488.79,-278.256 1488.7,-285.255"/>
</g>
<!-- Node4 -->
<g id="node4" class="node"><title>Node4</title>
<g id="a_node4"><a xlink:href="cmdlinehelpmodule_8cpp.xhtml" target="_top" xlink:title="Implements gmx::CommandLineHelpModule. ">
<polygon fill="white" stroke="black" points="0,-56.5 0,-86.5 131,-86.5 131,-56.5 0,-56.5"/>
<text text-anchor="start" x="8" y="-74.5" font-family="Helvetica,sans-Serif" font-size="10.00">src/gromacs/commandline</text>
<text text-anchor="middle" x="65.5" y="-63.5" font-family="Helvetica,sans-Serif" font-size="10.00">/cmdlinehelpmodule.cpp</text>
</a>
</g>
</g>
<!-- Node1&#45;&gt;Node4 -->
<g id="edge6" class="edge"><title>Node1&#45;&gt;Node4</title>
<path fill="none" stroke="midnightblue" d="M1488.57,-282.101C1217.94,-280.156 164.218,-270.15 105.5,-232 57.1427,-200.581 60.1945,-119.437 63.6336,-86.6027"/>
<polygon fill="midnightblue" stroke="midnightblue" points="1488.59,-285.601 1498.61,-282.172 1488.64,-278.601 1488.59,-285.601"/>
</g>
<!-- Node5 -->
<g id="node5" class="node"><title>Node5</title>
<g id="a_node5"><a xlink:href="cmdlinemodulemanager_8cpp.xhtml" target="_top" xlink:title="Implements gmx::CommandLineModuleManager. ">
<polygon fill="white" stroke="black" points="166,-56.5 166,-86.5 307,-86.5 307,-56.5 166,-56.5"/>
<text text-anchor="start" x="174" y="-74.5" font-family="Helvetica,sans-Serif" font-size="10.00">src/gromacs/commandline</text>
<text text-anchor="middle" x="236.5" y="-63.5" font-family="Helvetica,sans-Serif" font-size="10.00">/cmdlinemodulemanager.cpp</text>
</a>
</g>
</g>
<!-- Node1&#45;&gt;Node5 -->
<g id="edge8" class="edge"><title>Node1&#45;&gt;Node5</title>
<path fill="none" stroke="midnightblue" d="M1488.78,-281.252C1299.8,-277.187 737.819,-262.771 557.5,-232 436.896,-211.419 392.799,-225.474 293.5,-154 268.976,-136.348 251.345,-104.745 242.643,-86.5128"/>
<polygon fill="midnightblue" stroke="midnightblue" points="1488.76,-284.753 1498.83,-281.466 1488.9,-277.754 1488.76,-284.753"/>
</g>
<!-- Node6 -->
<g id="node6" class="node"><title>Node6</title>
<g id="a_node6"><a xlink:href="cmdlinehelpwriter_8cpp.xhtml" target="_top" xlink:title="Implements gmx::CommandLineHelpWriter. ">
<polygon fill="white" stroke="black" points="567,-196 567,-226 698,-226 698,-196 567,-196"/>
<text text-anchor="start" x="575" y="-214" font-family="Helvetica,sans-Serif" font-size="10.00">src/gromacs/commandline</text>
<text text-anchor="middle" x="632.5" y="-203" font-family="Helvetica,sans-Serif" font-size="10.00">/cmdlinehelpwriter.cpp</text>
</a>
</g>
</g>
<!-- Node1&#45;&gt;Node6 -->
<g id="edge7" class="edge"><title>Node1&#45;&gt;Node6</title>
<path fill="none" stroke="midnightblue" d="M1488.48,-282.669C1348.21,-282.181 999.895,-276.185 712.5,-232 702.736,-230.499 692.424,-228.354 682.569,-226.022"/>
<polygon fill="midnightblue" stroke="midnightblue" points="1488.61,-286.169 1498.62,-282.696 1488.63,-279.169 1488.61,-286.169"/>
</g>
<!-- Node7 -->
<g id="node7" class="node"><title>Node7</title>
<g id="a_node7"><a xlink:href="filenameoptionmanager_8h.xhtml" target="_top" xlink:title="Declares gmx::FileNameOptionManager. ">
<polygon fill="white" stroke="black" points="754.5,-196 754.5,-226 882.5,-226 882.5,-196 754.5,-196"/>
<text text-anchor="start" x="762.5" y="-214" font-family="Helvetica,sans-Serif" font-size="10.00">src/gromacs/options</text>
<text text-anchor="middle" x="818.5" y="-203" font-family="Helvetica,sans-Serif" font-size="10.00">/filenameoptionmanager.h</text>
</a>
</g>
</g>
<!-- Node1&#45;&gt;Node7 -->
<g id="edge9" class="edge"><title>Node1&#45;&gt;Node7</title>
<path fill="none" stroke="midnightblue" d="M1488.74,-280.435C1373.46,-276.005 1120.44,-263.324 909.5,-232 898.78,-230.408 887.438,-228.28 876.534,-226.004"/>
<polygon fill="midnightblue" stroke="midnightblue" points="1488.67,-283.935 1498.8,-280.814 1488.93,-276.94 1488.67,-283.935"/>
</g>
<!-- Node8 -->
<g id="node8" class="node"><title>Node8</title>
<g id="a_node8"><a xlink:href="cmdlineoptionsmodule_8cpp.xhtml" target="_top" xlink:title="Implements supporting routines for gmx::ICommandLineOptionsModule. ">
<polygon fill="white" stroke="black" points="303,-123.5 303,-153.5 438,-153.5 438,-123.5 303,-123.5"/>
<text text-anchor="start" x="311" y="-141.5" font-family="Helvetica,sans-Serif" font-size="10.00">src/gromacs/commandline</text>
<text text-anchor="middle" x="370.5" y="-130.5" font-family="Helvetica,sans-Serif" font-size="10.00">/cmdlineoptionsmodule.cpp</text>
</a>
</g>
</g>
<!-- Node1&#45;&gt;Node8 -->
<g id="edge17" class="edge"><title>Node1&#45;&gt;Node8</title>
<path fill="none" stroke="midnightblue" d="M1488.46,-281.23C1310.33,-277.269 811.922,-263.473 745.5,-232 722.48,-221.092 729.095,-201.763 706.5,-190 603.025,-136.13 561.611,-172.938 446.5,-154 443.717,-153.542 440.878,-153.062 438.013,-152.566"/>
<polygon fill="midnightblue" stroke="midnightblue" points="1488.64,-284.735 1498.71,-281.455 1488.79,-277.737 1488.64,-284.735"/>
</g>
<!-- Node11 -->
<g id="node11" class="node"><title>Node11</title>
<g id="a_node11"><a xlink:href="tests_2filenameoptionmanager_8cpp.xhtml" target="_top" xlink:title="Tests file name option implementation dependent on gmx::FileNameOptionManager. ">
<polygon fill="white" stroke="black" points="736.5,-123.5 736.5,-153.5 900.5,-153.5 900.5,-123.5 736.5,-123.5"/>
<text text-anchor="start" x="744.5" y="-141.5" font-family="Helvetica,sans-Serif" font-size="10.00">src/gromacs/options</text>
<text text-anchor="middle" x="818.5" y="-130.5" font-family="Helvetica,sans-Serif" font-size="10.00">/tests/filenameoptionmanager.cpp</text>
</a>
</g>
</g>
<!-- Node1&#45;&gt;Node11 -->
<g id="edge30" class="edge"><title>Node1&#45;&gt;Node11</title>
<path fill="none" stroke="midnightblue" d="M1488.73,-283.295C1387.97,-283.08 1184.71,-276.476 1019.5,-232 951.991,-213.826 878.879,-174.741 842.253,-153.663"/>
<polygon fill="midnightblue" stroke="midnightblue" points="1488.74,-286.795 1498.74,-283.296 1488.74,-279.795 1488.74,-286.795"/>
</g>
<!-- Node12 -->
<g id="node12" class="node"><title>Node12</title>
<g id="a_node12"><a xlink:href="options_8h.xhtml" target="_top" xlink:title="Public API convenience header for handling of options. ">
<polygon fill="white" stroke="black" points="919,-129 919,-148 1032,-148 1032,-129 919,-129"/>
<text text-anchor="middle" x="975.5" y="-136" font-family="Helvetica,sans-Serif" font-size="10.00">src/gromacs/options.h</text>
</a>
</g>
</g>
<!-- Node1&#45;&gt;Node12 -->
<g id="edge35" class="edge"><title>Node1&#45;&gt;Node12</title>
<path fill="none" stroke="midnightblue" d="M1488.82,-280.368C1378.36,-275.851 1153.97,-263.066 1082.5,-232 1037.46,-212.421 997.487,-166.977 982.155,-148.032"/>
<polygon fill="midnightblue" stroke="midnightblue" points="1488.69,-283.865 1498.82,-280.767 1488.97,-276.871 1488.69,-283.865"/>
</g>
<!-- Node15 -->
<g id="node15" class="node"><title>Node15</title>
<g id="a_node15"><a xlink:href="tests_2cmdlinehelpmodule_8cpp.xhtml" target="_top" xlink:title="Tests gmx::CommandLineHelpModule through gmx::CommandLineModuleManager. ">
<polygon fill="white" stroke="black" points="1317.5,-196 1317.5,-226 1463.5,-226 1463.5,-196 1317.5,-196"/>
<text text-anchor="start" x="1325.5" y="-214" font-family="Helvetica,sans-Serif" font-size="10.00">src/gromacs/commandline</text>
<text text-anchor="middle" x="1390.5" y="-203" font-family="Helvetica,sans-Serif" font-size="10.00">/tests/cmdlinehelpmodule.cpp</text>
</a>
</g>
</g>
<!-- Node1&#45;&gt;Node15 -->
<g id="edge18" class="edge"><title>Node1&#45;&gt;Node15</title>
<path fill="none" stroke="midnightblue" d="M1510.04,-264.343C1482.82,-252.424 1447.74,-237.066 1422.64,-226.073"/>
<polygon fill="midnightblue" stroke="midnightblue" points="1508.74,-267.598 1519.31,-268.403 1511.55,-261.185 1508.74,-267.598"/>
</g>
<!-- Node16 -->
<g id="node16" class="node"><title>Node16</title>
<g id="a_node16"><a xlink:href="tests_2cmdlinehelpwriter_8cpp.xhtml" target="_top" xlink:title="Tests gmx::CommandLineHelpWriter. ">
<polygon fill="white" stroke="black" points="1482,-196 1482,-226 1621,-226 1621,-196 1482,-196"/>
<text text-anchor="start" x="1490" y="-214" font-family="Helvetica,sans-Serif" font-size="10.00">src/gromacs/commandline</text>
<text text-anchor="middle" x="1551.5" y="-203" font-family="Helvetica,sans-Serif" font-size="10.00">/tests/cmdlinehelpwriter.cpp</text>
</a>
</g>
</g>
<!-- Node1&#45;&gt;Node16 -->
<g id="edge19" class="edge"><title>Node1&#45;&gt;Node16</title>
<path fill="none" stroke="midnightblue" d="M1551.5,-258.232C1551.5,-247.568 1551.5,-235.414 1551.5,-226.246"/>
<polygon fill="midnightblue" stroke="midnightblue" points="1548,-258.233 1551.5,-268.233 1555,-258.233 1548,-258.233"/>
</g>
<!-- Node17 -->
<g id="node17" class="node"><title>Node17</title>
<g id="a_node17"><a xlink:href="tests_2cmdlineparser_8cpp.xhtml" target="_top" xlink:title="Tests gmx::CommandLineParser. ">
<polygon fill="white" stroke="black" points="1639,-196 1639,-226 1770,-226 1770,-196 1639,-196"/>
<text text-anchor="start" x="1647" y="-214" font-family="Helvetica,sans-Serif" font-size="10.00">src/gromacs/commandline</text>
<text text-anchor="middle" x="1704.5" y="-203" font-family="Helvetica,sans-Serif" font-size="10.00">/tests/cmdlineparser.cpp</text>
</a>
</g>
</g>
<!-- Node1&#45;&gt;Node17 -->
<g id="edge20" class="edge"><title>Node1&#45;&gt;Node17</title>
<path fill="none" stroke="midnightblue" d="M1591.24,-264.187C1617.06,-252.29 1650.21,-237.018 1673.96,-226.073"/>
<polygon fill="midnightblue" stroke="midnightblue" points="1589.71,-261.039 1582.09,-268.403 1592.64,-267.396 1589.71,-261.039"/>
</g>
<!-- Node18 -->
<g id="node18" class="node"><title>Node18</title>
<g id="a_node18"><a xlink:href="options-impl_8h.xhtml" target="_top" xlink:title="Declares private implementation class for gmx::Options. ">
<polygon fill="white" stroke="black" points="1827,-196 1827,-226 1932,-226 1932,-196 1827,-196"/>
<text text-anchor="start" x="1835" y="-214" font-family="Helvetica,sans-Serif" font-size="10.00">src/gromacs/options</text>
<text text-anchor="middle" x="1879.5" y="-203" font-family="Helvetica,sans-Serif" font-size="10.00">/options&#45;impl.h</text>
</a>
</g>
</g>
<!-- Node1&#45;&gt;Node18 -->
<g id="edge21" class="edge"><title>Node1&#45;&gt;Node18</title>
<path fill="none" stroke="midnightblue" d="M1614.27,-272.152C1667.38,-262.969 1745.34,-248.479 1812.5,-232 1819.69,-230.235 1827.26,-228.176 1834.62,-226.063"/>
<polygon fill="midnightblue" stroke="midnightblue" points="1613.59,-268.718 1604.32,-273.86 1614.77,-275.617 1613.59,-268.718"/>
</g>
<!-- Node19 -->
<g id="node19" class="node"><title>Node19</title>
<g id="a_node19"><a xlink:href="options_8cpp.xhtml" target="_top" xlink:title="Implements gmx::Options. ">
<polygon fill="white" stroke="black" points="1784,-123.5 1784,-153.5 1889,-153.5 1889,-123.5 1784,-123.5"/>
<text text-anchor="start" x="1792" y="-141.5" font-family="Helvetica,sans-Serif" font-size="10.00">src/gromacs/options</text>
<text text-anchor="middle" x="1836.5" y="-130.5" font-family="Helvetica,sans-Serif" font-size="10.00">/options.cpp</text>
</a>
</g>
</g>
<!-- Node1&#45;&gt;Node19 -->
<g id="edge25" class="edge"><title>Node1&#45;&gt;Node19</title>
<path fill="none" stroke="midnightblue" d="M1614.44,-281.382C1663.19,-277.661 1730.31,-266.025 1778.5,-232 1806.53,-212.211 1823.92,-174.165 1831.7,-153.57"/>
<polygon fill="midnightblue" stroke="midnightblue" points="1614.07,-277.898 1604.33,-282.061 1614.54,-284.883 1614.07,-277.898"/>
</g>
<!-- Node20 -->
<g id="node20" class="node"><title>Node20</title>
<g id="a_node20"><a xlink:href="optionsassigner_8cpp.xhtml" target="_top" xlink:title="Implements gmx::OptionsAssigner. ">
<polygon fill="white" stroke="black" points="1907,-123.5 1907,-153.5 2014,-153.5 2014,-123.5 1907,-123.5"/>
<text text-anchor="start" x="1915" y="-141.5" font-family="Helvetica,sans-Serif" font-size="10.00">src/gromacs/options</text>
<text text-anchor="middle" x="1960.5" y="-130.5" font-family="Helvetica,sans-Serif" font-size="10.00">/optionsassigner.cpp</text>
</a>
</g>
</g>
<!-- Node1&#45;&gt;Node20 -->
<g id="edge26" class="edge"><title>Node1&#45;&gt;Node20</title>
<path fill="none" stroke="midnightblue" d="M1614.42,-282.836C1712.2,-282 1894.2,-274.571 1940.5,-232 1962.27,-211.983 1963.31,-174.384 1962.01,-153.824"/>
<polygon fill="midnightblue" stroke="midnightblue" points="1614.35,-279.337 1604.37,-282.902 1614.39,-286.337 1614.35,-279.337"/>
</g>
<!-- Node21 -->
<g id="node21" class="node"><title>Node21</title>
<g id="a_node21"><a xlink:href="optionsvisitor_8cpp.xhtml" target="_top" xlink:title="Implements classes in optionsvisitor.h. ">
<polygon fill="white" stroke="black" points="2032,-123.5 2032,-153.5 2137,-153.5 2137,-123.5 2032,-123.5"/>
<text text-anchor="start" x="2040" y="-141.5" font-family="Helvetica,sans-Serif" font-size="10.00">src/gromacs/options</text>
<text text-anchor="middle" x="2084.5" y="-130.5" font-family="Helvetica,sans-Serif" font-size="10.00">/optionsvisitor.cpp</text>
</a>
</g>
</g>
<!-- Node1&#45;&gt;Node21 -->
<g id="edge27" class="edge"><title>Node1&#45;&gt;Node21</title>
<path fill="none" stroke="midnightblue" d="M1614.22,-278.928C1713.67,-272.581 1902.59,-257.547 1964.5,-232 1992.61,-220.402 1994.43,-208.572 2018.5,-190 2034.49,-177.662 2052.73,-163.716 2065.98,-153.61"/>
<polygon fill="midnightblue" stroke="midnightblue" points="1613.77,-275.449 1604.01,-279.569 1614.21,-282.435 1613.77,-275.449"/>
</g>
<!-- Node22 -->
<g id="node22" class="node"><title>Node22</title>
<g id="a_node22"><a xlink:href="abstractoptionstorage_8cpp.xhtml" target="_top" xlink:title="Tests proper handling of option storage. ">
<polygon fill="white" stroke="black" points="2027,-196 2027,-226 2184,-226 2184,-196 2027,-196"/>
<text text-anchor="start" x="2035" y="-214" font-family="Helvetica,sans-Serif" font-size="10.00">src/gromacs/options</text>
<text text-anchor="middle" x="2105.5" y="-203" font-family="Helvetica,sans-Serif" font-size="10.00">/tests/abstractoptionstorage.cpp</text>
</a>
</g>
</g>
<!-- Node1&#45;&gt;Node22 -->
<g id="edge28" class="edge"><title>Node1&#45;&gt;Node22</title>
<path fill="none" stroke="midnightblue" d="M1614.48,-277.664C1703.5,-270.361 1871.06,-254.893 2012.5,-232 2022.93,-230.311 2033.96,-228.217 2044.64,-226.025"/>
<polygon fill="midnightblue" stroke="midnightblue" points="1613.96,-274.194 1604.28,-278.493 1614.53,-281.171 1613.96,-274.194"/>
</g>
<!-- Node23 -->
<g id="node23" class="node"><title>Node23</title>
<g id="a_node23"><a xlink:href="tests_2filenameoption_8cpp.xhtml" target="_top" xlink:title="Tests basic file name option implementation. ">
<polygon fill="white" stroke="black" points="2202.5,-196 2202.5,-226 2328.5,-226 2328.5,-196 2202.5,-196"/>
<text text-anchor="start" x="2210.5" y="-214" font-family="Helvetica,sans-Serif" font-size="10.00">src/gromacs/options</text>
<text text-anchor="middle" x="2265.5" y="-203" font-family="Helvetica,sans-Serif" font-size="10.00">/tests/filenameoption.cpp</text>
</a>
</g>
</g>
<!-- Node1&#45;&gt;Node23 -->
<g id="edge29" class="edge"><title>Node1&#45;&gt;Node23</title>
<path fill="none" stroke="midnightblue" d="M1614.44,-281.555C1730.02,-278.935 1983.49,-269.071 2193.5,-232 2202.19,-230.466 2211.34,-228.336 2220.1,-226.035"/>
<polygon fill="midnightblue" stroke="midnightblue" points="1614.28,-278.058 1604.36,-281.773 1614.43,-285.056 1614.28,-278.058"/>
</g>
<!-- Node24 -->
<g id="node24" class="node"><title>Node24</title>
<g id="a_node24"><a xlink:href="option_8cpp.xhtml" target="_top" xlink:title="Tests creation of basic option types. ">
<polygon fill="white" stroke="black" points="2347,-196 2347,-226 2452,-226 2452,-196 2347,-196"/>
<text text-anchor="start" x="2355" y="-214" font-family="Helvetica,sans-Serif" font-size="10.00">src/gromacs/options</text>
<text text-anchor="middle" x="2399.5" y="-203" font-family="Helvetica,sans-Serif" font-size="10.00">/tests/option.cpp</text>
</a>
</g>
</g>
<!-- Node1&#45;&gt;Node24 -->
<g id="edge31" class="edge"><title>Node1&#45;&gt;Node24</title>
<path fill="none" stroke="midnightblue" d="M1614.24,-280.476C1775.1,-274.964 2199.24,-258.318 2337.5,-232 2345.17,-230.541 2353.2,-228.415 2360.86,-226.088"/>
<polygon fill="midnightblue" stroke="midnightblue" points="1613.91,-276.985 1604.03,-280.823 1614.15,-283.981 1613.91,-276.985"/>
</g>
<!-- Node25 -->
<g id="node25" class="node"><title>Node25</title>
<g id="a_node25"><a xlink:href="tests_2optionsassigner_8cpp.xhtml" target="_top" xlink:title="Tests option assignment. ">
<polygon fill="white" stroke="black" points="2470,-196 2470,-226 2601,-226 2601,-196 2470,-196"/>
<text text-anchor="start" x="2478" y="-214" font-family="Helvetica,sans-Serif" font-size="10.00">src/gromacs/options</text>
<text text-anchor="middle" x="2535.5" y="-203" font-family="Helvetica,sans-Serif" font-size="10.00">/tests/optionsassigner.cpp</text>
</a>
</g>
</g>
<!-- Node1&#45;&gt;Node25 -->
<g id="edge32" class="edge"><title>Node1&#45;&gt;Node25</title>
<path fill="none" stroke="midnightblue" d="M1614.28,-280.721C1792.25,-275.408 2297.81,-258.367 2461.5,-232 2470.57,-230.54 2480.12,-228.414 2489.24,-226.087"/>
<polygon fill="midnightblue" stroke="midnightblue" points="1613.93,-277.23 1604.04,-281.025 1614.13,-284.227 1613.93,-277.23"/>
</g>
<!-- Node26 -->
<g id="node26" class="node"><title>Node26</title>
<g id="a_node26"><a xlink:href="tests_2timeunitmanager_8cpp.xhtml" target="_top" xlink:title="Tests handling of time units with gmx::TimeUnitManager and gmx::TimeUnitBehavior. ...">
<polygon fill="white" stroke="black" points="2619,-196 2619,-226 2754,-226 2754,-196 2619,-196"/>
<text text-anchor="start" x="2627" y="-214" font-family="Helvetica,sans-Serif" font-size="10.00">src/gromacs/options</text>
<text text-anchor="middle" x="2686.5" y="-203" font-family="Helvetica,sans-Serif" font-size="10.00">/tests/timeunitmanager.cpp</text>
</a>
</g>
</g>
<!-- Node1&#45;&gt;Node26 -->
<g id="edge33" class="edge"><title>Node1&#45;&gt;Node26</title>
<path fill="none" stroke="midnightblue" d="M1614.18,-281.236C1811.24,-276.989 2416.58,-261.802 2610.5,-232 2619.94,-230.549 2629.9,-228.397 2639.39,-226.034"/>
<polygon fill="midnightblue" stroke="midnightblue" points="1613.92,-277.74 1604,-281.453 1614.07,-284.739 1613.92,-277.74"/>
</g>
<!-- Node27 -->
<g id="node27" class="node"><title>Node27</title>
<g id="a_node27"><a xlink:href="timeunitmanager_8cpp.xhtml" target="_top" xlink:title="Implements gmx::TimeUnitManager. ">
<polygon fill="white" stroke="black" points="2772.5,-196 2772.5,-226 2882.5,-226 2882.5,-196 2772.5,-196"/>
<text text-anchor="start" x="2780.5" y="-214" font-family="Helvetica,sans-Serif" font-size="10.00">src/gromacs/options</text>
<text text-anchor="middle" x="2827.5" y="-203" font-family="Helvetica,sans-Serif" font-size="10.00">/timeunitmanager.cpp</text>
</a>
</g>
</g>
<!-- Node1&#45;&gt;Node27 -->
<g id="edge34" class="edge"><title>Node1&#45;&gt;Node27</title>
<path fill="none" stroke="midnightblue" d="M1614.35,-282.044C1830.07,-280.143 2539.33,-271.003 2763.5,-232 2771.64,-230.583 2780.19,-228.414 2788.3,-226.019"/>
<polygon fill="midnightblue" stroke="midnightblue" points="1614.12,-278.546 1604.16,-282.132 1614.19,-285.546 1614.12,-278.546"/>
</g>
<!-- Node28 -->
<g id="node28" class="node"><title>Node28</title>
<g id="a_node28"><a xlink:href="selectionoptionmanager_8h.xhtml" target="_top" xlink:title="Declares gmx::SelectionOptionManager. ">
<polygon fill="white" stroke="black" points="1092,-196 1092,-226 1223,-226 1223,-196 1092,-196"/>
<text text-anchor="start" x="1100" y="-214" font-family="Helvetica,sans-Serif" font-size="10.00">src/gromacs/selection</text>
<text text-anchor="middle" x="1157.5" y="-203" font-family="Helvetica,sans-Serif" font-size="10.00">/selectionoptionmanager.h</text>
</a>
</g>
</g>
<!-- Node1&#45;&gt;Node28 -->
<g id="edge36" class="edge"><title>Node1&#45;&gt;Node28</title>
<path fill="none" stroke="midnightblue" d="M1488.48,-273.982C1424.88,-265.006 1323.96,-249.727 1237.5,-232 1228.94,-230.246 1219.92,-228.192 1211.15,-226.081"/>
<polygon fill="midnightblue" stroke="midnightblue" points="1488.36,-277.499 1498.75,-275.422 1489.33,-270.567 1488.36,-277.499"/>
</g>
<!-- Node30 -->
<g id="node30" class="node"><title>Node30</title>
<g id="a_node30"><a xlink:href="selectionoptionbehavior_8cpp.xhtml" target="_top" xlink:title="Implements gmx::SelectionOptionBehavior. ">
<polygon fill="white" stroke="black" points="1479.5,-123.5 1479.5,-153.5 1619.5,-153.5 1619.5,-123.5 1479.5,-123.5"/>
<text text-anchor="start" x="1487.5" y="-141.5" font-family="Helvetica,sans-Serif" font-size="10.00">src/gromacs/selection</text>
<text text-anchor="middle" x="1549.5" y="-130.5" font-family="Helvetica,sans-Serif" font-size="10.00">/selectionoptionbehavior.cpp</text>
</a>
</g>
</g>
<!-- Node1&#45;&gt;Node30 -->
<g id="edge43" class="edge"><title>Node1&#45;&gt;Node30</title>
<path fill="none" stroke="midnightblue" d="M1488.89,-280.054C1415.98,-275.738 1302.12,-263.939 1275.5,-232 1263.55,-217.662 1263.56,-204.346 1275.5,-190 1275.91,-189.503 1398.39,-167.073 1479.43,-152.276"/>
<polygon fill="midnightblue" stroke="midnightblue" points="1488.71,-283.55 1498.89,-280.615 1489.1,-276.561 1488.71,-283.55"/>
</g>
<!-- Node32 -->
<g id="node32" class="node"><title>Node32</title>
<g id="a_node32"><a xlink:href="tests_2selectionoption_8cpp.xhtml" target="_top" xlink:title="Tests handling of selection options. ">
<polygon fill="white" stroke="black" points="1637.5,-123.5 1637.5,-153.5 1765.5,-153.5 1765.5,-123.5 1637.5,-123.5"/>
<text text-anchor="start" x="1645.5" y="-141.5" font-family="Helvetica,sans-Serif" font-size="10.00">src/gromacs/selection</text>
<text text-anchor="middle" x="1701.5" y="-130.5" font-family="Helvetica,sans-Serif" font-size="10.00">/tests/selectionoption.cpp</text>
</a>
</g>
</g>
<!-- Node1&#45;&gt;Node32 -->
<g id="edge44" class="edge"><title>Node1&#45;&gt;Node32</title>
<path fill="none" stroke="midnightblue" d="M1488.93,-279.162C1400.03,-272.217 1253.68,-251.331 1308.5,-190 1356.19,-136.646 1557.79,-164.98 1628.5,-154 1631.44,-153.544 1634.43,-153.053 1637.46,-152.537"/>
<polygon fill="midnightblue" stroke="midnightblue" points="1488.71,-282.655 1498.94,-279.904 1489.23,-275.674 1488.71,-282.655"/>
</g>
<!-- Node34 -->
<g id="node34" class="node"><title>Node34</title>
<g id="a_node34"><a xlink:href="testinit_8cpp.xhtml" target="_top" xlink:title="Implements functions in testinit.h. ">
<polygon fill="white" stroke="black" points="2901,-201.5 2901,-220.5 3020,-220.5 3020,-201.5 2901,-201.5"/>
<text text-anchor="middle" x="2960.5" y="-208.5" font-family="Helvetica,sans-Serif" font-size="10.00">src/testutils/testinit.cpp</text>
</a>
</g>
</g>
<!-- Node1&#45;&gt;Node34 -->
<g id="edge45" class="edge"><title>Node1&#45;&gt;Node34</title>
<path fill="none" stroke="midnightblue" d="M1614.28,-282.166C1844.34,-280.626 2640.81,-272.429 2891.5,-232 2906.77,-229.538 2923.43,-224.768 2936.56,-220.505"/>
<polygon fill="midnightblue" stroke="midnightblue" points="1614.06,-278.667 1604.08,-282.232 1614.1,-285.667 1614.06,-278.667"/>
</g>
<!-- Node3 -->
<g id="node3" class="node"><title>Node3</title>
<g id="a_node3"><a xlink:href="cmdlinehelpmodule_8h.xhtml" target="_top" xlink:title="Declares gmx::CommandLineHelpModule. ">
<polygon fill="white" stroke="black" points="77,-123.5 77,-153.5 208,-153.5 208,-123.5 77,-123.5"/>
<text text-anchor="start" x="85" y="-141.5" font-family="Helvetica,sans-Serif" font-size="10.00">src/gromacs/commandline</text>
<text text-anchor="middle" x="142.5" y="-130.5" font-family="Helvetica,sans-Serif" font-size="10.00">/cmdlinehelpmodule.h</text>
</a>
</g>
</g>
<!-- Node2&#45;&gt;Node3 -->
<g id="edge2" class="edge"><title>Node2&#45;&gt;Node3</title>
<path fill="none" stroke="midnightblue" d="M165.168,-181.555C160.045,-172.051 154.552,-161.861 150.257,-153.892"/>
<polygon fill="midnightblue" stroke="midnightblue" points="162.089,-183.22 169.915,-190.362 168.251,-179.898 162.089,-183.22"/>
</g>
<!-- Node2&#45;&gt;Node5 -->
<g id="edge5" class="edge"><title>Node2&#45;&gt;Node5</title>
<path fill="none" stroke="midnightblue" d="M201.135,-181.896C206.747,-173.273 212.401,-163.536 216.5,-154 226.224,-131.38 231.825,-103.107 234.51,-86.503"/>
<polygon fill="midnightblue" stroke="midnightblue" points="198.07,-180.18 195.367,-190.424 203.869,-184.101 198.07,-180.18"/>
</g>
<!-- Node3&#45;&gt;Node4 -->
<g id="edge3" class="edge"><title>Node3&#45;&gt;Node4</title>
<path fill="none" stroke="midnightblue" d="M118.077,-116.883C106.376,-107.005 92.6624,-95.4293 82.1752,-86.5765"/>
<polygon fill="midnightblue" stroke="midnightblue" points="115.893,-119.62 125.792,-123.396 120.408,-114.271 115.893,-119.62"/>
</g>
<!-- Node3&#45;&gt;Node5 -->
<g id="edge4" class="edge"><title>Node3&#45;&gt;Node5</title>
<path fill="none" stroke="midnightblue" d="M171.494,-117.451C185.955,-107.452 203.095,-95.5995 216.143,-86.5765"/>
<polygon fill="midnightblue" stroke="midnightblue" points="169.131,-114.83 162.897,-123.396 173.112,-120.587 169.131,-114.83"/>
</g>
<!-- Node7&#45;&gt;Node8 -->
<g id="edge10" class="edge"><title>Node7&#45;&gt;Node8</title>
<path fill="none" stroke="midnightblue" d="M757.779,-193.623C751.961,-192.297 746.132,-191.062 740.5,-190 611.138,-165.601 576.561,-174.347 446.5,-154 443.713,-153.564 440.872,-153.102 438.004,-152.621"/>
<polygon fill="midnightblue" stroke="midnightblue" points="756.987,-197.032 767.524,-195.923 758.596,-190.219 756.987,-197.032"/>
</g>
<!-- Node9 -->
<g id="node9" class="node"><title>Node9</title>
<g id="a_node9"><a xlink:href="filenameoption_8cpp.xhtml" target="_top" xlink:title="Implements classes in filenameoption.h and filenameoptionstorage.h. ">
<polygon fill="white" stroke="black" points="613,-123.5 613,-153.5 718,-153.5 718,-123.5 613,-123.5"/>
<text text-anchor="start" x="621" y="-141.5" font-family="Helvetica,sans-Serif" font-size="10.00">src/gromacs/options</text>
<text text-anchor="middle" x="665.5" y="-130.5" font-family="Helvetica,sans-Serif" font-size="10.00">/filenameoption.cpp</text>
</a>
</g>
</g>
<!-- Node7&#45;&gt;Node9 -->
<g id="edge11" class="edge"><title>Node7&#45;&gt;Node9</title>
<path fill="none" stroke="midnightblue" d="M778.756,-191.687C752.938,-179.79 719.793,-164.518 696.041,-153.573"/>
<polygon fill="midnightblue" stroke="midnightblue" points="777.359,-194.896 787.906,-195.903 780.288,-188.539 777.359,-194.896"/>
</g>
<!-- Node10 -->
<g id="node10" class="node"><title>Node10</title>
<g id="a_node10"><a xlink:href="filenameoptionmanager_8cpp.xhtml" target="_top" xlink:title="Implements gmx::FileNameOptionManager. ">
<polygon fill="white" stroke="black" points="456,-123.5 456,-153.5 595,-153.5 595,-123.5 456,-123.5"/>
<text text-anchor="start" x="464" y="-141.5" font-family="Helvetica,sans-Serif" font-size="10.00">src/gromacs/options</text>
<text text-anchor="middle" x="525.5" y="-130.5" font-family="Helvetica,sans-Serif" font-size="10.00">/filenameoptionmanager.cpp</text>
</a>
</g>
</g>
<!-- Node7&#45;&gt;Node10 -->
<g id="edge12" class="edge"><title>Node7&#45;&gt;Node10</title>
<path fill="none" stroke="midnightblue" d="M754.61,-193.506C749.838,-192.308 745.095,-191.129 740.5,-190 688.743,-177.287 629.805,-163.492 586.744,-153.537"/>
<polygon fill="midnightblue" stroke="midnightblue" points="753.854,-196.925 764.407,-195.979 755.568,-190.138 753.854,-196.925"/>
</g>
<!-- Node7&#45;&gt;Node11 -->
<g id="edge13" class="edge"><title>Node7&#45;&gt;Node11</title>
<path fill="none" stroke="midnightblue" d="M818.5,-185.732C818.5,-175.068 818.5,-162.914 818.5,-153.746"/>
<polygon fill="midnightblue" stroke="midnightblue" points="815,-185.733 818.5,-195.733 822,-185.733 815,-185.733"/>
</g>
<!-- Node7&#45;&gt;Node12 -->
<g id="edge14" class="edge"><title>Node7&#45;&gt;Node12</title>
<path fill="none" stroke="midnightblue" d="M859.255,-191.699C890.612,-177.619 932.513,-158.803 956.496,-148.034"/>
<polygon fill="midnightblue" stroke="midnightblue" points="857.583,-188.613 849.894,-195.903 860.45,-194.999 857.583,-188.613"/>
</g>
<!-- Node13 -->
<g id="node13" class="node"><title>Node13</title>
<g id="a_node13"><a xlink:href="trajectoryanalysis_8h.xhtml" target="_top" xlink:title="Public API convenience header for trajectory analysis framework. ">
<polygon fill="white" stroke="black" points="963.5,-62 963.5,-81 1121.5,-81 1121.5,-62 963.5,-62"/>
<text text-anchor="middle" x="1042.5" y="-69" font-family="Helvetica,sans-Serif" font-size="10.00">src/gromacs/trajectoryanalysis.h</text>
</a>
</g>
</g>
<!-- Node12&#45;&gt;Node13 -->
<g id="edge15" class="edge"><title>Node12&#45;&gt;Node13</title>
<path fill="none" stroke="midnightblue" d="M991.996,-121.497C1005.14,-108.75 1023.02,-91.3947 1033.61,-81.1273"/>
<polygon fill="midnightblue" stroke="midnightblue" points="989.276,-119.259 984.536,-128.734 994.15,-124.283 989.276,-119.259"/>
</g>
<!-- Node14 -->
<g id="node14" class="node"><title>Node14</title>
<g id="a_node14"><a xlink:href="template_8cpp.xhtml" target="_top" xlink:title="Template code for writing analysis programs. ">
<polygon fill="white" stroke="black" points="972.5,-0.5 972.5,-19.5 1112.5,-19.5 1112.5,-0.5 972.5,-0.5"/>
<text text-anchor="middle" x="1042.5" y="-7.5" font-family="Helvetica,sans-Serif" font-size="10.00">share/template/template.cpp</text>
</a>
</g>
</g>
<!-- Node13&#45;&gt;Node14 -->
<g id="edge16" class="edge"><title>Node13&#45;&gt;Node14</title>
<path fill="none" stroke="midnightblue" d="M1042.5,-51.8165C1042.5,-40.9962 1042.5,-27.898 1042.5,-19.5091"/>
<polygon fill="midnightblue" stroke="midnightblue" points="1039,-51.9751 1042.5,-61.9751 1046,-51.9751 1039,-51.9751"/>
</g>
<!-- Node18&#45;&gt;Node19 -->
<g id="edge22" class="edge"><title>Node18&#45;&gt;Node19</title>
<path fill="none" stroke="midnightblue" d="M1865.51,-187.057C1858.81,-176.086 1851.01,-163.297 1845.19,-153.746"/>
<polygon fill="midnightblue" stroke="midnightblue" points="1862.6,-189.018 1870.8,-195.733 1868.58,-185.373 1862.6,-189.018"/>
</g>
<!-- Node18&#45;&gt;Node20 -->
<g id="edge23" class="edge"><title>Node18&#45;&gt;Node20</title>
<path fill="none" stroke="midnightblue" d="M1903.67,-188.964C1916.84,-177.504 1932.77,-163.637 1944.41,-153.505"/>
<polygon fill="midnightblue" stroke="midnightblue" points="1901.14,-186.528 1895.89,-195.733 1905.73,-191.808 1901.14,-186.528"/>
</g>
<!-- Node18&#45;&gt;Node21 -->
<g id="edge24" class="edge"><title>Node18&#45;&gt;Node21</title>
<path fill="none" stroke="midnightblue" d="M1930.04,-192.619C1965,-180.597 2010.92,-164.806 2043.58,-153.573"/>
<polygon fill="midnightblue" stroke="midnightblue" points="1928.81,-189.341 1920.49,-195.903 1931.09,-195.96 1928.81,-189.341"/>
</g>
<!-- Node29 -->
<g id="node29" class="node"><title>Node29</title>
<g id="a_node29"><a xlink:href="selectionoption_8cpp.xhtml" target="_top" xlink:title="Implements classes in selectionoption.h and selectionoptionstorage.h. ">
<polygon fill="white" stroke="black" points="1348,-123.5 1348,-153.5 1461,-153.5 1461,-123.5 1348,-123.5"/>
<text text-anchor="start" x="1356" y="-141.5" font-family="Helvetica,sans-Serif" font-size="10.00">src/gromacs/selection</text>
<text text-anchor="middle" x="1404.5" y="-130.5" font-family="Helvetica,sans-Serif" font-size="10.00">/selectionoption.cpp</text>
</a>
</g>
</g>
<!-- Node28&#45;&gt;Node29 -->
<g id="edge37" class="edge"><title>Node28&#45;&gt;Node29</title>
<path fill="none" stroke="midnightblue" d="M1216.21,-193.241C1258.55,-181.159 1315.05,-165.033 1355.08,-153.607"/>
<polygon fill="midnightblue" stroke="midnightblue" points="1215.25,-189.877 1206.59,-195.987 1217.17,-196.608 1215.25,-189.877"/>
</g>
<!-- Node28&#45;&gt;Node30 -->
<g id="edge38" class="edge"><title>Node28&#45;&gt;Node30</title>
<path fill="none" stroke="midnightblue" d="M1220.81,-193.611C1226.44,-192.324 1232.06,-191.099 1237.5,-190 1339.78,-169.325 1366.6,-171.306 1469.5,-154 1472.7,-153.462 1475.97,-152.903 1479.28,-152.332"/>
<polygon fill="midnightblue" stroke="midnightblue" points="1219.64,-190.289 1210.71,-195.981 1221.24,-197.104 1219.64,-190.289"/>
</g>
<!-- Node31 -->
<g id="node31" class="node"><title>Node31</title>
<g id="a_node31"><a xlink:href="selectionoptionmanager_8cpp.xhtml" target="_top" xlink:title="Implements gmx::SelectionOptionManager. ">
<polygon fill="white" stroke="black" points="1189,-123.5 1189,-153.5 1330,-153.5 1330,-123.5 1189,-123.5"/>
<text text-anchor="start" x="1197" y="-141.5" font-family="Helvetica,sans-Serif" font-size="10.00">src/gromacs/selection</text>
<text text-anchor="middle" x="1259.5" y="-130.5" font-family="Helvetica,sans-Serif" font-size="10.00">/selectionoptionmanager.cpp</text>
</a>
</g>
</g>
<!-- Node28&#45;&gt;Node31 -->
<g id="edge39" class="edge"><title>Node28&#45;&gt;Node31</title>
<path fill="none" stroke="midnightblue" d="M1186.54,-189.931C1203.38,-178.292 1224.16,-163.924 1239.24,-153.505"/>
<polygon fill="midnightblue" stroke="midnightblue" points="1184.38,-187.168 1178.14,-195.733 1188.36,-192.927 1184.38,-187.168"/>
</g>
<!-- Node28&#45;&gt;Node32 -->
<g id="edge40" class="edge"><title>Node28&#45;&gt;Node32</title>
<path fill="none" stroke="midnightblue" d="M1233.31,-196.388C1247.32,-194.09 1261.83,-191.853 1275.5,-190 1431.77,-168.812 1472.54,-177.388 1628.5,-154 1631.44,-153.559 1634.44,-153.081 1637.47,-152.575"/>
<polygon fill="midnightblue" stroke="midnightblue" points="1232.52,-192.972 1223.23,-198.066 1233.67,-199.877 1232.52,-192.972"/>
</g>
<!-- Node33 -->
<g id="node33" class="node"><title>Node33</title>
<g id="a_node33"><a xlink:href="selection_8h.xhtml" target="_top" xlink:title="Public API convenience header for selection handling. ">
<polygon fill="white" stroke="black" points="1050,-129 1050,-148 1171,-148 1171,-129 1050,-129"/>
<text text-anchor="middle" x="1110.5" y="-136" font-family="Helvetica,sans-Serif" font-size="10.00">src/gromacs/selection.h</text>
</a>
</g>
</g>
<!-- Node28&#45;&gt;Node33 -->
<g id="edge41" class="edge"><title>Node28&#45;&gt;Node33</title>
<path fill="none" stroke="midnightblue" d="M1142.25,-187.126C1133.45,-173.924 1122.88,-158.07 1116.43,-148.393"/>
<polygon fill="midnightblue" stroke="midnightblue" points="1139.53,-189.354 1147.99,-195.733 1145.35,-185.471 1139.53,-189.354"/>
</g>
<!-- Node33&#45;&gt;Node13 -->
<g id="edge42" class="edge"><title>Node33&#45;&gt;Node13</title>
<path fill="none" stroke="midnightblue" d="M1093.76,-121.497C1080.42,-108.75 1062.27,-91.3947 1051.53,-81.1273"/>
<polygon fill="midnightblue" stroke="midnightblue" points="1091.68,-124.354 1101.33,-128.734 1096.52,-119.294 1091.68,-124.354"/>
</g>
</g>
</svg>
