<?xml version="1.0" encoding="UTF-8" standalone="no"?>
<!DOCTYPE svg PUBLIC "-//W3C//DTD SVG 1.1//EN"
 "http://www.w3.org/Graphics/SVG/1.1/DTD/svg11.dtd">
<!-- Generated by graphviz version 2.38.0 (20140413.2041)
 -->
<!-- Title: src/gromacs/trajectoryanalysis/modules/pairdist.h Pages: 1 -->
<svg width="1152pt" height="397pt"
 viewBox="0.00 0.00 1151.91 397.00" xmlns="http://www.w3.org/2000/svg" xmlns:xlink="http://www.w3.org/1999/xlink">
<g id="graph0" class="graph" transform="scale(1 1) rotate(0) translate(4 393)">
<title>src/gromacs/trajectoryanalysis/modules/pairdist.h</title>
<polygon fill="white" stroke="none" points="-4,4 -4,-393 1147.91,-393 1147.91,4 -4,4"/>
<!-- Node1 -->
<g id="node1" class="node"><title>Node1</title>
<polygon fill="#bfbfbf" stroke="black" points="962.5,-358.5 962.5,-388.5 1112.5,-388.5 1112.5,-358.5 962.5,-358.5"/>
<text text-anchor="start" x="970.5" y="-376.5" font-family="Helvetica,sans-Serif" font-size="10.00">src/gromacs/trajectoryanalysis</text>
<text text-anchor="middle" x="1037.5" y="-365.5" font-family="Helvetica,sans-Serif" font-size="10.00">/modules/pairdist.h</text>
</g>
<!-- Node2 -->
<g id="node2" class="node"><title>Node2</title>
<g id="a_node2"><a xlink:href="analysismodule_8h.xhtml" target="_top" xlink:title="Declares gmx::TrajectoryAnalysisModule and gmx::TrajectoryAnalysisModuleData. ">
<polygon fill="white" stroke="black" points="970.5,-291.5 970.5,-321.5 1104.5,-321.5 1104.5,-291.5 970.5,-291.5"/>
<text text-anchor="start" x="978.5" y="-309.5" font-family="Helvetica,sans-Serif" font-size="10.00">gromacs/trajectoryanalysis</text>
<text text-anchor="middle" x="1037.5" y="-298.5" font-family="Helvetica,sans-Serif" font-size="10.00">/analysismodule.h</text>
</a>
</g>
</g>
<!-- Node1&#45;&gt;Node2 -->
<g id="edge1" class="edge"><title>Node1&#45;&gt;Node2</title>
<path fill="none" stroke="midnightblue" d="M1037.5,-358.396C1037.5,-350.645 1037.5,-340.812 1037.5,-331.86"/>
<polygon fill="midnightblue" stroke="midnightblue" points="1041,-331.576 1037.5,-321.577 1034,-331.577 1041,-331.576"/>
</g>
<!-- Node3 -->
<g id="node3" class="node"><title>Node3</title>
<polygon fill="white" stroke="#bfbfbf" points="1053.5,-123.5 1053.5,-142.5 1105.5,-142.5 1105.5,-123.5 1053.5,-123.5"/>
<text text-anchor="middle" x="1079.5" y="-130.5" font-family="Helvetica,sans-Serif" font-size="10.00">memory</text>
</g>
<!-- Node2&#45;&gt;Node3 -->
<g id="edge2" class="edge"><title>Node2&#45;&gt;Node3</title>
<path fill="none" stroke="midnightblue" d="M1053.67,-291.226C1073.62,-272.418 1106.49,-237.217 1119.5,-199 1122.36,-190.585 1122.66,-187.309 1119.5,-179 1115.16,-167.598 1106.47,-157.239 1098.29,-149.343"/>
<polygon fill="midnightblue" stroke="midnightblue" points="1100.54,-146.66 1090.77,-142.573 1095.86,-151.863 1100.54,-146.66"/>
</g>
<!-- Node4 -->
<g id="node4" class="node"><title>Node4</title>
<polygon fill="white" stroke="#bfbfbf" points="723,-62 723,-81 764,-81 764,-62 723,-62"/>
<text text-anchor="middle" x="743.5" y="-69" font-family="Helvetica,sans-Serif" font-size="10.00">string</text>
</g>
<!-- Node2&#45;&gt;Node4 -->
<g id="edge3" class="edge"><title>Node2&#45;&gt;Node4</title>
<path fill="none" stroke="midnightblue" d="M1064.09,-291.49C1078.96,-282.611 1096.96,-269.986 1109.5,-255 1147.18,-209.98 1160.38,-159.625 1114.5,-123 1062.22,-81.2677 854.194,-73.9969 774.65,-72.7499"/>
<polygon fill="midnightblue" stroke="midnightblue" points="774.354,-69.2458 764.308,-72.611 774.26,-76.2451 774.354,-69.2458"/>
</g>
<!-- Node5 -->
<g id="node5" class="node"><title>Node5</title>
<polygon fill="white" stroke="#bfbfbf" points="509.5,-123.5 509.5,-142.5 553.5,-142.5 553.5,-123.5 509.5,-123.5"/>
<text text-anchor="middle" x="531.5" y="-130.5" font-family="Helvetica,sans-Serif" font-size="10.00">vector</text>
</g>
<!-- Node2&#45;&gt;Node5 -->
<g id="edge4" class="edge"><title>Node2&#45;&gt;Node5</title>
<path fill="none" stroke="midnightblue" d="M970.294,-302.201C866.964,-296.349 674.418,-282.13 611.5,-255 575.862,-239.634 564.32,-232.367 544.5,-199 536.143,-184.932 533.059,-166.439 531.969,-152.777"/>
<polygon fill="midnightblue" stroke="midnightblue" points="535.456,-152.448 531.449,-142.64 528.466,-152.806 535.456,-152.448"/>
</g>
<!-- Node6 -->
<g id="node6" class="node"><title>Node6</title>
<g id="a_node6"><a xlink:href="selection_2selection_8h.xhtml" target="_top" xlink:title="Declares gmx::Selection and supporting classes. ">
<polygon fill="white" stroke="black" points="620.5,-235.5 620.5,-254.5 766.5,-254.5 766.5,-235.5 620.5,-235.5"/>
<text text-anchor="middle" x="693.5" y="-242.5" font-family="Helvetica,sans-Serif" font-size="10.00">gromacs/selection/selection.h</text>
</a>
</g>
</g>
<!-- Node2&#45;&gt;Node6 -->
<g id="edge5" class="edge"><title>Node2&#45;&gt;Node6</title>
<path fill="none" stroke="midnightblue" d="M970.357,-293.887C907.143,-282.953 813.374,-266.734 752.841,-256.264"/>
<polygon fill="midnightblue" stroke="midnightblue" points="753.131,-252.762 742.681,-254.507 751.938,-259.66 753.131,-252.762"/>
</g>
<!-- Node22 -->
<g id="node22" class="node"><title>Node22</title>
<g id="a_node22"><a xlink:href="classhelpers_8h.xhtml" target="_top" xlink:title="Declares common utility classes and macros. ">
<polygon fill="white" stroke="black" points="964.5,-179.5 964.5,-198.5 1110.5,-198.5 1110.5,-179.5 964.5,-179.5"/>
<text text-anchor="middle" x="1037.5" y="-186.5" font-family="Helvetica,sans-Serif" font-size="10.00">gromacs/utility/classhelpers.h</text>
</a>
</g>
</g>
<!-- Node2&#45;&gt;Node22 -->
<g id="edge28" class="edge"><title>Node2&#45;&gt;Node22</title>
<path fill="none" stroke="midnightblue" d="M1037.5,-291.337C1037.5,-270.622 1037.5,-232.016 1037.5,-208.899"/>
<polygon fill="midnightblue" stroke="midnightblue" points="1041,-208.669 1037.5,-198.669 1034,-208.669 1041,-208.669"/>
</g>
<!-- Node6&#45;&gt;Node4 -->
<g id="edge6" class="edge"><title>Node6&#45;&gt;Node4</title>
<path fill="none" stroke="midnightblue" d="M700.67,-235.288C707.404,-226.63 717.21,-212.699 722.5,-199 736.616,-162.44 741.249,-116.344 742.765,-91.1143"/>
<polygon fill="midnightblue" stroke="midnightblue" points="746.262,-91.2622 743.266,-81.1 739.271,-90.9128 746.262,-91.2622"/>
</g>
<!-- Node6&#45;&gt;Node5 -->
<g id="edge7" class="edge"><title>Node6&#45;&gt;Node5</title>
<path fill="none" stroke="midnightblue" d="M640.605,-235.454C614.892,-229.042 584.985,-217.969 563.5,-199 549.675,-186.794 541.189,-167.247 536.461,-152.772"/>
<polygon fill="midnightblue" stroke="midnightblue" points="539.736,-151.501 533.553,-142.898 533.021,-153.479 539.736,-151.501"/>
</g>
<!-- Node7 -->
<g id="node7" class="node"><title>Node7</title>
<g id="a_node7"><a xlink:href="position_8h.xhtml" target="_top" xlink:title="API for handling positions. ">
<polygon fill="white" stroke="black" points="573,-179.5 573,-198.5 714,-198.5 714,-179.5 573,-179.5"/>
<text text-anchor="middle" x="643.5" y="-186.5" font-family="Helvetica,sans-Serif" font-size="10.00">gromacs/selection/position.h</text>
</a>
</g>
</g>
<!-- Node6&#45;&gt;Node7 -->
<g id="edge8" class="edge"><title>Node6&#45;&gt;Node7</title>
<path fill="none" stroke="midnightblue" d="M685.244,-235.083C678.035,-227.298 667.39,-215.801 658.654,-206.367"/>
<polygon fill="midnightblue" stroke="midnightblue" points="660.965,-203.711 651.603,-198.751 655.829,-208.467 660.965,-203.711"/>
</g>
<!-- Node10 -->
<g id="node10" class="node"><title>Node10</title>
<g id="a_node10"><a xlink:href="selectionenums_8h.xhtml" target="_top" xlink:title="Declares common types used in selections. ">
<polygon fill="white" stroke="black" points="770.5,-179.5 770.5,-198.5 946.5,-198.5 946.5,-179.5 770.5,-179.5"/>
<text text-anchor="middle" x="858.5" y="-186.5" font-family="Helvetica,sans-Serif" font-size="10.00">gromacs/selection/selectionenums.h</text>
</a>
</g>
</g>
<!-- Node6&#45;&gt;Node10 -->
<g id="edge12" class="edge"><title>Node6&#45;&gt;Node10</title>
<path fill="none" stroke="midnightblue" d="M719.645,-235.444C747.523,-226.32 791.848,-211.813 822.9,-201.651"/>
<polygon fill="midnightblue" stroke="midnightblue" points="824.062,-204.953 832.478,-198.516 821.885,-198.3 824.062,-204.953"/>
</g>
<!-- Node12 -->
<g id="node12" class="node"><title>Node12</title>
<g id="a_node12"><a xlink:href="arrayref_8h.xhtml" target="_top" xlink:title="Declares gmx::ArrayRef and gmx::ConstArrayRef. ">
<polygon fill="white" stroke="black" points="341,-179.5 341,-198.5 466,-198.5 466,-179.5 341,-179.5"/>
<text text-anchor="middle" x="403.5" y="-186.5" font-family="Helvetica,sans-Serif" font-size="10.00">gromacs/utility/arrayref.h</text>
</a>
</g>
</g>
<!-- Node6&#45;&gt;Node12 -->
<g id="edge14" class="edge"><title>Node6&#45;&gt;Node12</title>
<path fill="none" stroke="midnightblue" d="M647.549,-235.444C596.429,-225.925 513.846,-210.547 459.117,-200.356"/>
<polygon fill="midnightblue" stroke="midnightblue" points="459.708,-196.906 449.236,-198.516 458.427,-203.788 459.708,-196.906"/>
</g>
<!-- Node17 -->
<g id="node17" class="node"><title>Node17</title>
<g id="a_node17"><a xlink:href="gmxassert_8h.xhtml" target="_top" xlink:title="Defines assert macros customized for Gromacs. ">
<polygon fill="white" stroke="black" points="86,-123.5 86,-142.5 223,-142.5 223,-123.5 86,-123.5"/>
<text text-anchor="middle" x="154.5" y="-130.5" font-family="Helvetica,sans-Serif" font-size="10.00">gromacs/utility/gmxassert.h</text>
</a>
</g>
</g>
<!-- Node6&#45;&gt;Node17 -->
<g id="edge27" class="edge"><title>Node6&#45;&gt;Node17</title>
<path fill="none" stroke="midnightblue" d="M620.16,-239.807C546.4,-234.445 429.824,-222.833 331.5,-199 277.497,-185.91 217.29,-161.601 182.849,-146.707"/>
<polygon fill="midnightblue" stroke="midnightblue" points="183.999,-143.389 173.434,-142.591 181.195,-149.803 183.999,-143.389"/>
</g>
<!-- Node6&#45;&gt;Node22 -->
<g id="edge25" class="edge"><title>Node6&#45;&gt;Node22</title>
<path fill="none" stroke="midnightblue" d="M748.008,-235.444C809.15,-225.846 908.235,-210.292 973.136,-200.104"/>
<polygon fill="midnightblue" stroke="midnightblue" points="973.911,-203.525 983.247,-198.516 972.825,-196.61 973.911,-203.525"/>
</g>
<!-- Node8 -->
<g id="node8" class="node"><title>Node8</title>
<g id="a_node8"><a xlink:href="indexutil_8h.xhtml" target="_top" xlink:title="API for handling index files and index groups. ">
<polygon fill="white" stroke="black" points="572,-123.5 572,-142.5 715,-142.5 715,-123.5 572,-123.5"/>
<text text-anchor="middle" x="643.5" y="-130.5" font-family="Helvetica,sans-Serif" font-size="10.00">gromacs/selection/indexutil.h</text>
</a>
</g>
</g>
<!-- Node7&#45;&gt;Node8 -->
<g id="edge9" class="edge"><title>Node7&#45;&gt;Node8</title>
<path fill="none" stroke="midnightblue" d="M643.5,-179.083C643.5,-172.006 643.5,-161.861 643.5,-152.986"/>
<polygon fill="midnightblue" stroke="midnightblue" points="647,-152.751 643.5,-142.751 640,-152.751 647,-152.751"/>
</g>
<!-- Node8&#45;&gt;Node4 -->
<g id="edge11" class="edge"><title>Node8&#45;&gt;Node4</title>
<path fill="none" stroke="midnightblue" d="M657.828,-123.475C674.164,-113.755 701.102,-97.7266 720.412,-86.2372"/>
<polygon fill="midnightblue" stroke="midnightblue" points="722.395,-89.1303 729.199,-81.0091 718.815,-83.1146 722.395,-89.1303"/>
</g>
<!-- Node9 -->
<g id="node9" class="node"><title>Node9</title>
<polygon fill="white" stroke="#bfbfbf" points="622,-62 622,-81 665,-81 665,-62 622,-62"/>
<text text-anchor="middle" x="643.5" y="-69" font-family="Helvetica,sans-Serif" font-size="10.00">cstdio</text>
</g>
<!-- Node8&#45;&gt;Node9 -->
<g id="edge10" class="edge"><title>Node8&#45;&gt;Node9</title>
<path fill="none" stroke="midnightblue" d="M643.5,-123.475C643.5,-115.08 643.5,-101.981 643.5,-91.1631"/>
<polygon fill="midnightblue" stroke="midnightblue" points="647,-91.0091 643.5,-81.0091 640,-91.0091 647,-91.0091"/>
</g>
<!-- Node11 -->
<g id="node11" class="node"><title>Node11</title>
<g id="a_node11"><a xlink:href="flags_8h.xhtml" target="_top" xlink:title="Declares gmx::FlagsTemplate. ">
<polygon fill="white" stroke="black" points="802,-123.5 802,-142.5 915,-142.5 915,-123.5 802,-123.5"/>
<text text-anchor="middle" x="858.5" y="-130.5" font-family="Helvetica,sans-Serif" font-size="10.00">gromacs/utility/flags.h</text>
</a>
</g>
</g>
<!-- Node10&#45;&gt;Node11 -->
<g id="edge13" class="edge"><title>Node10&#45;&gt;Node11</title>
<path fill="none" stroke="midnightblue" d="M858.5,-179.083C858.5,-172.006 858.5,-161.861 858.5,-152.986"/>
<polygon fill="midnightblue" stroke="midnightblue" points="862,-152.751 858.5,-142.751 855,-152.751 862,-152.751"/>
</g>
<!-- Node12&#45;&gt;Node5 -->
<g id="edge19" class="edge"><title>Node12&#45;&gt;Node5</title>
<path fill="none" stroke="midnightblue" d="M423.782,-179.444C444.847,-170.557 478.017,-156.563 501.986,-146.451"/>
<polygon fill="midnightblue" stroke="midnightblue" points="503.46,-149.628 511.313,-142.516 500.739,-143.179 503.46,-149.628"/>
</g>
<!-- Node13 -->
<g id="node13" class="node"><title>Node13</title>
<polygon fill="white" stroke="#bfbfbf" points="442,-123.5 442,-142.5 491,-142.5 491,-123.5 442,-123.5"/>
<text text-anchor="middle" x="466.5" y="-130.5" font-family="Helvetica,sans-Serif" font-size="10.00">cstddef</text>
</g>
<!-- Node12&#45;&gt;Node13 -->
<g id="edge15" class="edge"><title>Node12&#45;&gt;Node13</title>
<path fill="none" stroke="midnightblue" d="M413.622,-179.324C423.026,-171.263 437.244,-159.077 448.569,-149.369"/>
<polygon fill="midnightblue" stroke="midnightblue" points="450.879,-151.999 456.194,-142.834 446.323,-146.684 450.879,-151.999"/>
</g>
<!-- Node14 -->
<g id="node14" class="node"><title>Node14</title>
<polygon fill="white" stroke="#bfbfbf" points="241,-123.5 241,-142.5 288,-142.5 288,-123.5 241,-123.5"/>
<text text-anchor="middle" x="264.5" y="-130.5" font-family="Helvetica,sans-Serif" font-size="10.00">iterator</text>
</g>
<!-- Node12&#45;&gt;Node14 -->
<g id="edge16" class="edge"><title>Node12&#45;&gt;Node14</title>
<path fill="none" stroke="midnightblue" d="M381.475,-179.444C358.396,-170.478 321.938,-156.314 295.859,-146.183"/>
<polygon fill="midnightblue" stroke="midnightblue" points="297.011,-142.875 286.422,-142.516 294.476,-149.4 297.011,-142.875"/>
</g>
<!-- Node15 -->
<g id="node15" class="node"><title>Node15</title>
<polygon fill="white" stroke="#bfbfbf" points="306,-123.5 306,-142.5 365,-142.5 365,-123.5 306,-123.5"/>
<text text-anchor="middle" x="335.5" y="-130.5" font-family="Helvetica,sans-Serif" font-size="10.00">stdexcept</text>
</g>
<!-- Node12&#45;&gt;Node15 -->
<g id="edge17" class="edge"><title>Node12&#45;&gt;Node15</title>
<path fill="none" stroke="midnightblue" d="M392.575,-179.324C382.325,-171.185 366.779,-158.839 354.499,-149.087"/>
<polygon fill="midnightblue" stroke="midnightblue" points="356.632,-146.312 346.624,-142.834 352.279,-151.794 356.632,-146.312"/>
</g>
<!-- Node16 -->
<g id="node16" class="node"><title>Node16</title>
<polygon fill="white" stroke="#bfbfbf" points="383.5,-123.5 383.5,-142.5 423.5,-142.5 423.5,-123.5 383.5,-123.5"/>
<text text-anchor="middle" x="403.5" y="-130.5" font-family="Helvetica,sans-Serif" font-size="10.00">utility</text>
</g>
<!-- Node12&#45;&gt;Node16 -->
<g id="edge18" class="edge"><title>Node12&#45;&gt;Node16</title>
<path fill="none" stroke="midnightblue" d="M403.5,-179.083C403.5,-172.006 403.5,-161.861 403.5,-152.986"/>
<polygon fill="midnightblue" stroke="midnightblue" points="407,-152.751 403.5,-142.751 400,-152.751 407,-152.751"/>
</g>
<!-- Node12&#45;&gt;Node17 -->
<g id="edge20" class="edge"><title>Node12&#45;&gt;Node17</title>
<path fill="none" stroke="midnightblue" d="M364.045,-179.444C320.608,-170.023 250.714,-154.866 203.724,-144.675"/>
<polygon fill="midnightblue" stroke="midnightblue" points="204.285,-141.215 193.77,-142.516 202.801,-148.056 204.285,-141.215"/>
</g>
<!-- Node18 -->
<g id="node18" class="node"><title>Node18</title>
<g id="a_node18"><a xlink:href="basedefinitions_8h.xhtml" target="_top" xlink:title="Basic types and macros used throughout GROMACS. ">
<polygon fill="white" stroke="black" points="0,-62 0,-81 157,-81 157,-62 0,-62"/>
<text text-anchor="middle" x="78.5" y="-69" font-family="Helvetica,sans-Serif" font-size="10.00">gromacs/utility/basedefinitions.h</text>
</a>
</g>
</g>
<!-- Node17&#45;&gt;Node18 -->
<g id="edge21" class="edge"><title>Node17&#45;&gt;Node18</title>
<path fill="none" stroke="midnightblue" d="M143.611,-123.475C131.534,-114.02 111.833,-98.5961 97.26,-87.1871"/>
<polygon fill="midnightblue" stroke="midnightblue" points="99.4003,-84.4177 89.3687,-81.0091 95.0851,-89.9295 99.4003,-84.4177"/>
</g>
<!-- Node21 -->
<g id="node21" class="node"><title>Node21</title>
<g id="a_node21"><a xlink:href="current__function_8h.xhtml" target="_top" xlink:title="Declares GMX_CURRENT_FUNCTION for getting the current function name. ">
<polygon fill="white" stroke="black" points="175,-56.5 175,-86.5 288,-86.5 288,-56.5 175,-56.5"/>
<text text-anchor="start" x="183" y="-74.5" font-family="Helvetica,sans-Serif" font-size="10.00">gromacs/utility/current</text>
<text text-anchor="middle" x="231.5" y="-63.5" font-family="Helvetica,sans-Serif" font-size="10.00">_function.h</text>
</a>
</g>
</g>
<!-- Node17&#45;&gt;Node21 -->
<g id="edge24" class="edge"><title>Node17&#45;&gt;Node21</title>
<path fill="none" stroke="midnightblue" d="M165.532,-123.475C175.863,-115.492 191.7,-103.254 205.268,-92.7703"/>
<polygon fill="midnightblue" stroke="midnightblue" points="207.58,-95.407 213.353,-86.523 203.3,-89.868 207.58,-95.407"/>
</g>
<!-- Node19 -->
<g id="node19" class="node"><title>Node19</title>
<polygon fill="white" stroke="#bfbfbf" points="18,-0.5 18,-19.5 67,-19.5 67,-0.5 18,-0.5"/>
<text text-anchor="middle" x="42.5" y="-7.5" font-family="Helvetica,sans-Serif" font-size="10.00">stdint.h</text>
</g>
<!-- Node18&#45;&gt;Node19 -->
<g id="edge22" class="edge"><title>Node18&#45;&gt;Node19</title>
<path fill="none" stroke="midnightblue" d="M73.3421,-61.9751C68.049,-53.2268 59.6645,-39.3691 52.9729,-28.3093"/>
<polygon fill="midnightblue" stroke="midnightblue" points="55.8196,-26.2531 47.6484,-19.5091 49.8305,-29.8768 55.8196,-26.2531"/>
</g>
<!-- Node20 -->
<g id="node20" class="node"><title>Node20</title>
<polygon fill="white" stroke="#bfbfbf" points="85,-0.5 85,-19.5 144,-19.5 144,-0.5 85,-0.5"/>
<text text-anchor="middle" x="114.5" y="-7.5" font-family="Helvetica,sans-Serif" font-size="10.00">inttypes.h</text>
</g>
<!-- Node18&#45;&gt;Node20 -->
<g id="edge23" class="edge"><title>Node18&#45;&gt;Node20</title>
<path fill="none" stroke="midnightblue" d="M83.6579,-61.9751C88.951,-53.2268 97.3355,-39.3691 104.027,-28.3093"/>
<polygon fill="midnightblue" stroke="midnightblue" points="107.17,-29.8768 109.352,-19.5091 101.18,-26.2531 107.17,-29.8768"/>
</g>
<!-- Node22&#45;&gt;Node3 -->
<g id="edge26" class="edge"><title>Node22&#45;&gt;Node3</title>
<path fill="none" stroke="midnightblue" d="M1044.44,-179.083C1050.43,-171.377 1059.25,-160.033 1066.55,-150.653"/>
<polygon fill="midnightblue" stroke="midnightblue" points="1069.32,-152.793 1072.69,-142.751 1063.79,-148.496 1069.32,-152.793"/>
</g>
</g>
</svg>
