<?xml version="1.0" encoding="UTF-8" standalone="no"?>
<!DOCTYPE svg PUBLIC "-//W3C//DTD SVG 1.1//EN"
 "http://www.w3.org/Graphics/SVG/1.1/DTD/svg11.dtd">
<!-- Generated by graphviz version 2.38.0 (20140413.2041)
 -->
<!-- Title: src/gromacs/selection/params.cpp Pages: 1 -->
<svg width="1691pt" height="285pt"
 viewBox="0.00 0.00 1691.35 285.00" xmlns="http://www.w3.org/2000/svg" xmlns:xlink="http://www.w3.org/1999/xlink">
<g id="graph0" class="graph" transform="scale(1 1) rotate(0) translate(4 281)">
<title>src/gromacs/selection/params.cpp</title>
<polygon fill="white" stroke="none" points="-4,4 -4,-281 1687.35,-281 1687.35,4 -4,4"/>
<!-- Node1 -->
<g id="node1" class="node"><title>Node1</title>
<polygon fill="#bfbfbf" stroke="black" points="855,-246.5 855,-276.5 968,-276.5 968,-246.5 855,-246.5"/>
<text text-anchor="start" x="863" y="-264.5" font-family="Helvetica,sans-Serif" font-size="10.00">src/gromacs/selection</text>
<text text-anchor="middle" x="911.5" y="-253.5" font-family="Helvetica,sans-Serif" font-size="10.00">/params.cpp</text>
</g>
<!-- Node2 -->
<g id="node2" class="node"><title>Node2</title>
<g id="a_node2"><a xlink:href="gmxpre_8h.xhtml" target="_top" xlink:title="Prerequisite header file for GROMACS build. ">
<polygon fill="white" stroke="black" points="0,-185 0,-204 57,-204 57,-185 0,-185"/>
<text text-anchor="middle" x="28.5" y="-192" font-family="Helvetica,sans-Serif" font-size="10.00">gmxpre.h</text>
</a>
</g>
</g>
<!-- Node1&#45;&gt;Node2 -->
<g id="edge1" class="edge"><title>Node1&#45;&gt;Node2</title>
<path fill="none" stroke="midnightblue" d="M854.947,-259.361C691.011,-255.704 217.622,-242.544 66.5,-210 63.4239,-209.338 60.2672,-208.466 57.1513,-207.479"/>
<polygon fill="midnightblue" stroke="midnightblue" points="58.08,-204.095 47.4853,-204.044 55.7359,-210.691 58.08,-204.095"/>
</g>
<!-- Node3 -->
<g id="node3" class="node"><title>Node3</title>
<polygon fill="white" stroke="#bfbfbf" points="75.5,-185 75.5,-204 131.5,-204 131.5,-185 75.5,-185"/>
<text text-anchor="middle" x="103.5" y="-192" font-family="Helvetica,sans-Serif" font-size="10.00">algorithm</text>
</g>
<!-- Node1&#45;&gt;Node3 -->
<g id="edge2" class="edge"><title>Node1&#45;&gt;Node3</title>
<path fill="none" stroke="midnightblue" d="M854.987,-259.05C701.05,-254.744 276.743,-240.388 140.5,-210 137.499,-209.331 134.422,-208.455 131.386,-207.465"/>
<polygon fill="midnightblue" stroke="midnightblue" points="132.565,-204.17 121.971,-204.027 130.164,-210.745 132.565,-204.17"/>
</g>
<!-- Node4 -->
<g id="node4" class="node"><title>Node4</title>
<polygon fill="white" stroke="#bfbfbf" points="1180,-0.5 1180,-19.5 1221,-19.5 1221,-0.5 1180,-0.5"/>
<text text-anchor="middle" x="1200.5" y="-7.5" font-family="Helvetica,sans-Serif" font-size="10.00">string</text>
</g>
<!-- Node1&#45;&gt;Node4 -->
<g id="edge3" class="edge"><title>Node1&#45;&gt;Node4</title>
<path fill="none" stroke="midnightblue" d="M968.271,-260.528C1133.38,-260.078 1604.98,-254.844 1656.5,-210 1686.04,-184.287 1690.78,-156.505 1670.5,-123 1637.25,-68.0677 1603.72,-75.3755 1542.5,-56 1484.66,-37.6945 1304.17,-20.1786 1231.39,-13.6677"/>
<polygon fill="midnightblue" stroke="midnightblue" points="1231.33,-10.1491 1221.06,-12.7534 1230.71,-17.1218 1231.33,-10.1491"/>
</g>
<!-- Node5 -->
<g id="node5" class="node"><title>Node5</title>
<g id="a_node5"><a xlink:href="position_8h.xhtml" target="_top" xlink:title="API for handling positions. ">
<polygon fill="white" stroke="black" points="841,-185 841,-204 982,-204 982,-185 841,-185"/>
<text text-anchor="middle" x="911.5" y="-192" font-family="Helvetica,sans-Serif" font-size="10.00">gromacs/selection/position.h</text>
</a>
</g>
</g>
<!-- Node1&#45;&gt;Node5 -->
<g id="edge4" class="edge"><title>Node1&#45;&gt;Node5</title>
<path fill="none" stroke="midnightblue" d="M911.5,-246.396C911.5,-237.064 911.5,-224.714 911.5,-214.517"/>
<polygon fill="midnightblue" stroke="midnightblue" points="915,-214.195 911.5,-204.195 908,-214.195 915,-214.195"/>
</g>
<!-- Node8 -->
<g id="node8" class="node"><title>Node8</title>
<g id="a_node8"><a xlink:href="cstringutil_8h.xhtml" target="_top" xlink:title="Generic C string handling functions. ">
<polygon fill="white" stroke="black" points="149.5,-185 149.5,-204 283.5,-204 283.5,-185 149.5,-185"/>
<text text-anchor="middle" x="216.5" y="-192" font-family="Helvetica,sans-Serif" font-size="10.00">gromacs/utility/cstringutil.h</text>
</a>
</g>
</g>
<!-- Node1&#45;&gt;Node8 -->
<g id="edge8" class="edge"><title>Node1&#45;&gt;Node8</title>
<path fill="none" stroke="midnightblue" d="M854.593,-257.632C745.962,-251.755 501.666,-236.609 297.5,-210 288.449,-208.82 278.871,-207.326 269.592,-205.748"/>
<polygon fill="midnightblue" stroke="midnightblue" points="270.134,-202.29 259.68,-204.014 268.927,-209.185 270.134,-202.29"/>
</g>
<!-- Node13 -->
<g id="node13" class="node"><title>Node13</title>
<g id="a_node13"><a xlink:href="exceptions_8h.xhtml" target="_top" xlink:title="Declares common exception classes and macros for fatal error handling. ">
<polygon fill="white" stroke="black" points="684,-185 684,-204 823,-204 823,-185 684,-185"/>
<text text-anchor="middle" x="753.5" y="-192" font-family="Helvetica,sans-Serif" font-size="10.00">gromacs/utility/exceptions.h</text>
</a>
</g>
</g>
<!-- Node1&#45;&gt;Node13 -->
<g id="edge13" class="edge"><title>Node1&#45;&gt;Node13</title>
<path fill="none" stroke="midnightblue" d="M877.216,-246.396C849.371,-234.941 810.474,-218.938 783.768,-207.952"/>
<polygon fill="midnightblue" stroke="midnightblue" points="784.758,-204.575 774.179,-204.007 782.095,-211.048 784.758,-204.575"/>
</g>
<!-- Node22 -->
<g id="node22" class="node"><title>Node22</title>
<g id="a_node22"><a xlink:href="gmxassert_8h.xhtml" target="_top" xlink:title="Defines assert macros customized for Gromacs. ">
<polygon fill="white" stroke="black" points="530,-123.5 530,-142.5 667,-142.5 667,-123.5 530,-123.5"/>
<text text-anchor="middle" x="598.5" y="-130.5" font-family="Helvetica,sans-Serif" font-size="10.00">gromacs/utility/gmxassert.h</text>
</a>
</g>
</g>
<!-- Node1&#45;&gt;Node22 -->
<g id="edge29" class="edge"><title>Node1&#45;&gt;Node22</title>
<path fill="none" stroke="midnightblue" d="M854.54,-257.291C804.717,-252.456 731.733,-240.344 675.5,-210 648.474,-195.416 624.561,-168.46 610.809,-150.885"/>
<polygon fill="midnightblue" stroke="midnightblue" points="613.409,-148.521 604.58,-142.664 607.829,-152.748 613.409,-148.521"/>
</g>
<!-- Node23 -->
<g id="node23" class="node"><title>Node23</title>
<g id="a_node23"><a xlink:href="scoped__cptr_8h.xhtml" target="_top" xlink:title="Declares gmx::scoped_cptr and gmx::scoped_guard_sfree. ">
<polygon fill="white" stroke="black" points="340,-179.5 340,-209.5 455,-209.5 455,-179.5 340,-179.5"/>
<text text-anchor="start" x="348" y="-197.5" font-family="Helvetica,sans-Serif" font-size="10.00">gromacs/utility/scoped</text>
<text text-anchor="middle" x="397.5" y="-186.5" font-family="Helvetica,sans-Serif" font-size="10.00">_cptr.h</text>
</a>
</g>
</g>
<!-- Node1&#45;&gt;Node23 -->
<g id="edge30" class="edge"><title>Node1&#45;&gt;Node23</title>
<path fill="none" stroke="midnightblue" d="M854.529,-253.296C759.135,-241.232 567.514,-217 465.324,-204.077"/>
<polygon fill="midnightblue" stroke="midnightblue" points="465.479,-200.569 455.119,-202.786 464.601,-207.514 465.479,-200.569"/>
</g>
<!-- Node24 -->
<g id="node24" class="node"><title>Node24</title>
<g id="a_node24"><a xlink:href="smalloc_8h.xhtml" target="_top" xlink:title="C memory allocation routines for GROMACS. ">
<polygon fill="white" stroke="black" points="128,-123.5 128,-142.5 253,-142.5 253,-123.5 128,-123.5"/>
<text text-anchor="middle" x="190.5" y="-130.5" font-family="Helvetica,sans-Serif" font-size="10.00">gromacs/utility/smalloc.h</text>
</a>
</g>
</g>
<!-- Node1&#45;&gt;Node24 -->
<g id="edge35" class="edge"><title>Node1&#45;&gt;Node24</title>
<path fill="none" stroke="midnightblue" d="M854.679,-259.79C727.67,-257.526 424.552,-248.167 330.5,-210 310.304,-201.804 311.083,-190.39 292.5,-179 270.945,-165.787 244.83,-154.342 224.421,-146.301"/>
<polygon fill="midnightblue" stroke="midnightblue" points="225.495,-142.964 214.905,-142.634 222.978,-149.496 225.495,-142.964"/>
</g>
<!-- Node26 -->
<g id="node26" class="node"><title>Node26</title>
<g id="a_node26"><a xlink:href="stringutil_8h.xhtml" target="_top" xlink:title="Declares common string utility and formatting routines. ">
<polygon fill="white" stroke="black" points="1000.5,-185 1000.5,-204 1128.5,-204 1128.5,-185 1000.5,-185"/>
<text text-anchor="middle" x="1064.5" y="-192" font-family="Helvetica,sans-Serif" font-size="10.00">gromacs/utility/stringutil.h</text>
</a>
</g>
</g>
<!-- Node1&#45;&gt;Node26 -->
<g id="edge36" class="edge"><title>Node1&#45;&gt;Node26</title>
<path fill="none" stroke="midnightblue" d="M944.699,-246.396C971.663,-234.941 1009.33,-218.938 1035.19,-207.952"/>
<polygon fill="midnightblue" stroke="midnightblue" points="1036.64,-211.139 1044.48,-204.007 1033.9,-204.696 1036.64,-211.139"/>
</g>
<!-- Node28 -->
<g id="node28" class="node"><title>Node28</title>
<g id="a_node28"><a xlink:href="parsetree_8h.xhtml" target="_top" xlink:title="Handling of intermediate selection parser data. ">
<polygon fill="white" stroke="black" points="1229,-185 1229,-204 1294,-204 1294,-185 1229,-185"/>
<text text-anchor="middle" x="1261.5" y="-192" font-family="Helvetica,sans-Serif" font-size="10.00">parsetree.h</text>
</a>
</g>
</g>
<!-- Node1&#45;&gt;Node28 -->
<g id="edge40" class="edge"><title>Node1&#45;&gt;Node28</title>
<path fill="none" stroke="midnightblue" d="M968.261,-250.999C1025.48,-241.273 1116.28,-225.438 1194.5,-210 1202.38,-208.445 1210.76,-206.701 1218.84,-204.977"/>
<polygon fill="midnightblue" stroke="midnightblue" points="1219.8,-208.351 1228.83,-202.82 1218.32,-201.508 1219.8,-208.351"/>
</g>
<!-- Node31 -->
<g id="node31" class="node"><title>Node31</title>
<g id="a_node31"><a xlink:href="selelem_8h.xhtml" target="_top" xlink:title="Declares gmx::SelectionTreeElement and related things. ">
<polygon fill="white" stroke="black" points="1155,-123.5 1155,-142.5 1214,-142.5 1214,-123.5 1155,-123.5"/>
<text text-anchor="middle" x="1184.5" y="-130.5" font-family="Helvetica,sans-Serif" font-size="10.00">selelem.h</text>
</a>
</g>
</g>
<!-- Node1&#45;&gt;Node31 -->
<g id="edge60" class="edge"><title>Node1&#45;&gt;Node31</title>
<path fill="none" stroke="midnightblue" d="M968.438,-259.809C1017.37,-256.587 1087.71,-245.427 1137.5,-210 1157.6,-195.7 1170.86,-169.846 1178.03,-152.306"/>
<polygon fill="midnightblue" stroke="midnightblue" points="1181.42,-153.228 1181.71,-142.637 1174.88,-150.738 1181.42,-153.228"/>
</g>
<!-- Node33 -->
<g id="node33" class="node"><title>Node33</title>
<g id="a_node33"><a xlink:href="scanner_8h.xhtml" target="_top" xlink:title="Parser/scanner interaction functions. ">
<polygon fill="white" stroke="black" points="1363,-185 1363,-204 1422,-204 1422,-185 1363,-185"/>
<text text-anchor="middle" x="1392.5" y="-192" font-family="Helvetica,sans-Serif" font-size="10.00">scanner.h</text>
</a>
</g>
</g>
<!-- Node1&#45;&gt;Node33 -->
<g id="edge56" class="edge"><title>Node1&#45;&gt;Node33</title>
<path fill="none" stroke="midnightblue" d="M968.057,-253.815C1044.33,-244.663 1184.34,-227.378 1303.5,-210 1319.61,-207.651 1337.32,-204.817 1352.67,-202.28"/>
<polygon fill="midnightblue" stroke="midnightblue" points="1353.58,-205.677 1362.87,-200.581 1352.43,-198.772 1353.58,-205.677"/>
</g>
<!-- Node35 -->
<g id="node35" class="node"><title>Node35</title>
<g id="a_node35"><a xlink:href="selmethod_8h.xhtml" target="_top" xlink:title="API for handling selection methods. ">
<polygon fill="white" stroke="black" points="1577.5,-185 1577.5,-204 1647.5,-204 1647.5,-185 1577.5,-185"/>
<text text-anchor="middle" x="1612.5" y="-192" font-family="Helvetica,sans-Serif" font-size="10.00">selmethod.h</text>
</a>
</g>
</g>
<!-- Node1&#45;&gt;Node35 -->
<g id="edge61" class="edge"><title>Node1&#45;&gt;Node35</title>
<path fill="none" stroke="midnightblue" d="M968.15,-256.957C1075.13,-250.001 1314.13,-233.19 1514.5,-210 1531.76,-208.002 1550.66,-205.323 1567.22,-202.811"/>
<polygon fill="midnightblue" stroke="midnightblue" points="1567.84,-206.257 1577.19,-201.277 1566.77,-199.339 1567.84,-206.257"/>
</g>
<!-- Node36 -->
<g id="node36" class="node"><title>Node36</title>
<g id="a_node36"><a xlink:href="selparam_8h.xhtml" target="_top" xlink:title="API for handling parameters used in selections. ">
<polygon fill="white" stroke="black" points="1580,-123.5 1580,-142.5 1645,-142.5 1645,-123.5 1580,-123.5"/>
<text text-anchor="middle" x="1612.5" y="-130.5" font-family="Helvetica,sans-Serif" font-size="10.00">selparam.h</text>
</a>
</g>
</g>
<!-- Node1&#45;&gt;Node36 -->
<g id="edge66" class="edge"><title>Node1&#45;&gt;Node36</title>
<path fill="none" stroke="midnightblue" d="M968.236,-260.521C1064.84,-259.337 1266.82,-251.554 1431.5,-210 1489.55,-195.353 1553.15,-165.023 1587.36,-147.429"/>
<polygon fill="midnightblue" stroke="midnightblue" points="1589.35,-150.342 1596.6,-142.619 1586.11,-144.134 1589.35,-150.342"/>
</g>
<!-- Node6 -->
<g id="node6" class="node"><title>Node6</title>
<g id="a_node6"><a xlink:href="indexutil_8h.xhtml" target="_top" xlink:title="API for handling index files and index groups. ">
<polygon fill="white" stroke="black" points="991,-62 991,-81 1134,-81 1134,-62 991,-62"/>
<text text-anchor="middle" x="1062.5" y="-69" font-family="Helvetica,sans-Serif" font-size="10.00">gromacs/selection/indexutil.h</text>
</a>
</g>
</g>
<!-- Node5&#45;&gt;Node6 -->
<g id="edge5" class="edge"><title>Node5&#45;&gt;Node6</title>
<path fill="none" stroke="midnightblue" d="M922.36,-184.798C947.826,-164.391 1011.65,-113.25 1043.62,-87.6267"/>
<polygon fill="midnightblue" stroke="midnightblue" points="1046.12,-90.1077 1051.74,-81.1232 1041.75,-84.6452 1046.12,-90.1077"/>
</g>
<!-- Node6&#45;&gt;Node4 -->
<g id="edge7" class="edge"><title>Node6&#45;&gt;Node4</title>
<path fill="none" stroke="midnightblue" d="M1082.27,-61.9751C1105.64,-51.9013 1144.71,-35.0525 1171.5,-23.5023"/>
<polygon fill="midnightblue" stroke="midnightblue" points="1172.97,-26.6824 1180.76,-19.5091 1170.2,-20.2544 1172.97,-26.6824"/>
</g>
<!-- Node7 -->
<g id="node7" class="node"><title>Node7</title>
<polygon fill="white" stroke="#bfbfbf" points="986,-0.5 986,-19.5 1029,-19.5 1029,-0.5 986,-0.5"/>
<text text-anchor="middle" x="1007.5" y="-7.5" font-family="Helvetica,sans-Serif" font-size="10.00">cstdio</text>
</g>
<!-- Node6&#45;&gt;Node7 -->
<g id="edge6" class="edge"><title>Node6&#45;&gt;Node7</title>
<path fill="none" stroke="midnightblue" d="M1054.62,-61.9751C1046.21,-52.8733 1032.68,-38.241 1022.27,-26.983"/>
<polygon fill="midnightblue" stroke="midnightblue" points="1024.72,-24.4766 1015.37,-19.5091 1019.58,-29.2282 1024.72,-24.4766"/>
</g>
<!-- Node9 -->
<g id="node9" class="node"><title>Node9</title>
<polygon fill="white" stroke="#bfbfbf" points="25.5,-123.5 25.5,-142.5 71.5,-142.5 71.5,-123.5 25.5,-123.5"/>
<text text-anchor="middle" x="48.5" y="-130.5" font-family="Helvetica,sans-Serif" font-size="10.00">stdio.h</text>
</g>
<!-- Node8&#45;&gt;Node9 -->
<g id="edge9" class="edge"><title>Node8&#45;&gt;Node9</title>
<path fill="none" stroke="midnightblue" d="M192.43,-184.975C163.24,-174.637 113.906,-157.164 81.2672,-145.605"/>
<polygon fill="midnightblue" stroke="midnightblue" points="82.3097,-142.261 71.715,-142.222 79.9727,-148.86 82.3097,-142.261"/>
</g>
<!-- Node10 -->
<g id="node10" class="node"><title>Node10</title>
<g id="a_node10"><a xlink:href="basedefinitions_8h.xhtml" target="_top" xlink:title="Basic types and macros used throughout GROMACS. ">
<polygon fill="white" stroke="black" points="238,-62 238,-81 395,-81 395,-62 238,-62"/>
<text text-anchor="middle" x="316.5" y="-69" font-family="Helvetica,sans-Serif" font-size="10.00">gromacs/utility/basedefinitions.h</text>
</a>
</g>
</g>
<!-- Node8&#45;&gt;Node10 -->
<g id="edge10" class="edge"><title>Node8&#45;&gt;Node10</title>
<path fill="none" stroke="midnightblue" d="M184.626,-184.905C148.224,-173.506 96.3822,-151.467 118.5,-123 127.388,-111.561 205.535,-94.1615 260.945,-83.0639"/>
<polygon fill="midnightblue" stroke="midnightblue" points="261.878,-86.4472 271.005,-81.0679 260.515,-79.581 261.878,-86.4472"/>
</g>
<!-- Node11 -->
<g id="node11" class="node"><title>Node11</title>
<polygon fill="white" stroke="#bfbfbf" points="328,-0.5 328,-19.5 377,-19.5 377,-0.5 328,-0.5"/>
<text text-anchor="middle" x="352.5" y="-7.5" font-family="Helvetica,sans-Serif" font-size="10.00">stdint.h</text>
</g>
<!-- Node10&#45;&gt;Node11 -->
<g id="edge11" class="edge"><title>Node10&#45;&gt;Node11</title>
<path fill="none" stroke="midnightblue" d="M321.658,-61.9751C326.951,-53.2268 335.335,-39.3691 342.027,-28.3093"/>
<polygon fill="midnightblue" stroke="midnightblue" points="345.17,-29.8768 347.352,-19.5091 339.18,-26.2531 345.17,-29.8768"/>
</g>
<!-- Node12 -->
<g id="node12" class="node"><title>Node12</title>
<polygon fill="white" stroke="#bfbfbf" points="251,-0.5 251,-19.5 310,-19.5 310,-0.5 251,-0.5"/>
<text text-anchor="middle" x="280.5" y="-7.5" font-family="Helvetica,sans-Serif" font-size="10.00">inttypes.h</text>
</g>
<!-- Node10&#45;&gt;Node12 -->
<g id="edge12" class="edge"><title>Node10&#45;&gt;Node12</title>
<path fill="none" stroke="midnightblue" d="M311.342,-61.9751C306.049,-53.2268 297.665,-39.3691 290.973,-28.3093"/>
<polygon fill="midnightblue" stroke="midnightblue" points="293.82,-26.2531 285.648,-19.5091 287.83,-29.8768 293.82,-26.2531"/>
</g>
<!-- Node13&#45;&gt;Node4 -->
<g id="edge18" class="edge"><title>Node13&#45;&gt;Node4</title>
<path fill="none" stroke="midnightblue" d="M771.512,-184.937C791.408,-175.313 824.239,-158.943 851.5,-143 890.552,-120.162 898.853,-112.086 936.5,-87 957.016,-73.3292 959.776,-65.5616 982.5,-56 1045.88,-29.3331 1126.46,-17.997 1169.72,-13.5627"/>
<polygon fill="midnightblue" stroke="midnightblue" points="1170.26,-17.0264 1179.88,-12.5789 1169.59,-10.059 1170.26,-17.0264"/>
</g>
<!-- Node13&#45;&gt;Node7 -->
<g id="edge14" class="edge"><title>Node13&#45;&gt;Node7</title>
<path fill="none" stroke="midnightblue" d="M765.41,-184.942C805.658,-156.024 936.904,-61.7237 987.426,-25.4236"/>
<polygon fill="midnightblue" stroke="midnightblue" points="989.537,-28.2165 995.616,-19.5391 985.452,-22.5317 989.537,-28.2165"/>
</g>
<!-- Node13&#45;&gt;Node10 -->
<g id="edge22" class="edge"><title>Node13&#45;&gt;Node10</title>
<path fill="none" stroke="midnightblue" d="M683.647,-189.114C572.313,-181.519 364.463,-164.634 338.5,-143 323.294,-130.329 318.427,-107.303 316.959,-91.0187"/>
<polygon fill="midnightblue" stroke="midnightblue" points="320.454,-90.821 316.401,-81.032 313.465,-91.2118 320.454,-90.821"/>
</g>
<!-- Node14 -->
<g id="node14" class="node"><title>Node14</title>
<polygon fill="white" stroke="#bfbfbf" points="348,-123.5 348,-142.5 393,-142.5 393,-123.5 348,-123.5"/>
<text text-anchor="middle" x="370.5" y="-130.5" font-family="Helvetica,sans-Serif" font-size="10.00">cstdlib</text>
</g>
<!-- Node13&#45;&gt;Node14 -->
<g id="edge15" class="edge"><title>Node13&#45;&gt;Node14</title>
<path fill="none" stroke="midnightblue" d="M683.92,-185.291C613.82,-176.564 502.7,-161.484 407.5,-143 406.04,-142.716 404.55,-142.413 403.048,-142.096"/>
<polygon fill="midnightblue" stroke="midnightblue" points="403.649,-138.644 393.124,-139.859 402.11,-145.472 403.649,-138.644"/>
</g>
<!-- Node15 -->
<g id="node15" class="node"><title>Node15</title>
<polygon fill="white" stroke="#bfbfbf" points="1232,-123.5 1232,-142.5 1291,-142.5 1291,-123.5 1232,-123.5"/>
<text text-anchor="middle" x="1261.5" y="-130.5" font-family="Helvetica,sans-Serif" font-size="10.00">exception</text>
</g>
<!-- Node13&#45;&gt;Node15 -->
<g id="edge16" class="edge"><title>Node13&#45;&gt;Node15</title>
<path fill="none" stroke="midnightblue" d="M796.027,-184.971C807.806,-182.806 820.62,-180.634 832.5,-179 1002.18,-155.665 1049.53,-170.601 1221.8,-143.081"/>
<polygon fill="midnightblue" stroke="midnightblue" points="1222.4,-146.53 1231.71,-141.474 1221.28,-139.621 1222.4,-146.53"/>
</g>
<!-- Node16 -->
<g id="node16" class="node"><title>Node16</title>
<polygon fill="white" stroke="#bfbfbf" points="822.5,-0.5 822.5,-19.5 874.5,-19.5 874.5,-0.5 822.5,-0.5"/>
<text text-anchor="middle" x="848.5" y="-7.5" font-family="Helvetica,sans-Serif" font-size="10.00">memory</text>
</g>
<!-- Node13&#45;&gt;Node16 -->
<g id="edge17" class="edge"><title>Node13&#45;&gt;Node16</title>
<path fill="none" stroke="midnightblue" d="M758.082,-184.698C772.848,-156.331 819.38,-66.9405 839.302,-28.6693"/>
<polygon fill="midnightblue" stroke="midnightblue" points="842.451,-30.2003 843.964,-19.714 836.242,-26.9681 842.451,-30.2003"/>
</g>
<!-- Node17 -->
<g id="node17" class="node"><title>Node17</title>
<polygon fill="white" stroke="#bfbfbf" points="449.5,-123.5 449.5,-142.5 511.5,-142.5 511.5,-123.5 449.5,-123.5"/>
<text text-anchor="middle" x="480.5" y="-130.5" font-family="Helvetica,sans-Serif" font-size="10.00">type_traits</text>
</g>
<!-- Node13&#45;&gt;Node17 -->
<g id="edge19" class="edge"><title>Node13&#45;&gt;Node17</title>
<path fill="none" stroke="midnightblue" d="M713.487,-184.928C669.05,-175.386 594.915,-159.4 521.399,-143.186"/>
<polygon fill="midnightblue" stroke="midnightblue" points="522.023,-139.739 511.504,-141.001 520.514,-146.575 522.023,-139.739"/>
</g>
<!-- Node18 -->
<g id="node18" class="node"><title>Node18</title>
<polygon fill="white" stroke="#bfbfbf" points="685,-123.5 685,-142.5 744,-142.5 744,-123.5 685,-123.5"/>
<text text-anchor="middle" x="714.5" y="-130.5" font-family="Helvetica,sans-Serif" font-size="10.00">typeindex</text>
</g>
<!-- Node13&#45;&gt;Node18 -->
<g id="edge20" class="edge"><title>Node13&#45;&gt;Node18</title>
<path fill="none" stroke="midnightblue" d="M747.912,-184.975C742.12,-176.138 732.911,-162.089 725.626,-150.975"/>
<polygon fill="midnightblue" stroke="midnightblue" points="728.487,-148.954 720.077,-142.509 722.632,-152.791 728.487,-148.954"/>
</g>
<!-- Node19 -->
<g id="node19" class="node"><title>Node19</title>
<polygon fill="white" stroke="#bfbfbf" points="914.5,-123.5 914.5,-142.5 958.5,-142.5 958.5,-123.5 914.5,-123.5"/>
<text text-anchor="middle" x="936.5" y="-130.5" font-family="Helvetica,sans-Serif" font-size="10.00">vector</text>
</g>
<!-- Node13&#45;&gt;Node19 -->
<g id="edge21" class="edge"><title>Node13&#45;&gt;Node19</title>
<path fill="none" stroke="midnightblue" d="M779.719,-184.975C812.642,-174.271 869.09,-155.917 904.516,-144.399"/>
<polygon fill="midnightblue" stroke="midnightblue" points="905.921,-147.623 914.349,-141.202 903.757,-140.966 905.921,-147.623"/>
</g>
<!-- Node20 -->
<g id="node20" class="node"><title>Node20</title>
<g id="a_node20"><a xlink:href="classhelpers_8h.xhtml" target="_top" xlink:title="Declares common utility classes and macros. ">
<polygon fill="white" stroke="black" points="438.5,-62 438.5,-81 584.5,-81 584.5,-62 438.5,-62"/>
<text text-anchor="middle" x="511.5" y="-69" font-family="Helvetica,sans-Serif" font-size="10.00">gromacs/utility/classhelpers.h</text>
</a>
</g>
</g>
<!-- Node13&#45;&gt;Node20 -->
<g id="edge23" class="edge"><title>Node13&#45;&gt;Node20</title>
<path fill="none" stroke="midnightblue" d="M683.709,-192.372C601.175,-189.387 471.102,-178.935 440.5,-143 422.366,-121.705 455.131,-99.3082 481.941,-85.6196"/>
<polygon fill="midnightblue" stroke="midnightblue" points="483.632,-88.6891 491.083,-81.157 480.561,-82.3986 483.632,-88.6891"/>
</g>
<!-- Node21 -->
<g id="node21" class="node"><title>Node21</title>
<g id="a_node21"><a xlink:href="current__function_8h.xhtml" target="_top" xlink:title="Declares GMX_CURRENT_FUNCTION for getting the current function name. ">
<polygon fill="white" stroke="black" points="647,-56.5 647,-86.5 760,-86.5 760,-56.5 647,-56.5"/>
<text text-anchor="start" x="655" y="-74.5" font-family="Helvetica,sans-Serif" font-size="10.00">gromacs/utility/current</text>
<text text-anchor="middle" x="703.5" y="-63.5" font-family="Helvetica,sans-Serif" font-size="10.00">_function.h</text>
</a>
</g>
</g>
<!-- Node13&#45;&gt;Node21 -->
<g id="edge25" class="edge"><title>Node13&#45;&gt;Node21</title>
<path fill="none" stroke="midnightblue" d="M755.533,-184.849C758.319,-171.136 762.067,-143.828 753.5,-123 748.818,-111.616 740.19,-101.434 731.404,-93.2476"/>
<polygon fill="midnightblue" stroke="midnightblue" points="733.582,-90.503 723.737,-86.5865 728.991,-95.7872 733.582,-90.503"/>
</g>
<!-- Node13&#45;&gt;Node22 -->
<g id="edge26" class="edge"><title>Node13&#45;&gt;Node22</title>
<path fill="none" stroke="midnightblue" d="M731.292,-184.975C704.819,-174.813 660.386,-157.756 630.28,-146.2"/>
<polygon fill="midnightblue" stroke="midnightblue" points="631.257,-142.825 620.667,-142.509 628.748,-149.36 631.257,-142.825"/>
</g>
<!-- Node20&#45;&gt;Node16 -->
<g id="edge24" class="edge"><title>Node20&#45;&gt;Node16</title>
<path fill="none" stroke="midnightblue" d="M559.784,-61.9751C628.086,-49.9158 751.377,-28.1478 812.349,-17.3828"/>
<polygon fill="midnightblue" stroke="midnightblue" points="813.043,-20.8145 822.282,-15.629 811.826,-13.9211 813.043,-20.8145"/>
</g>
<!-- Node22&#45;&gt;Node10 -->
<g id="edge27" class="edge"><title>Node22&#45;&gt;Node10</title>
<path fill="none" stroke="midnightblue" d="M558.096,-123.475C507.629,-112.827 421.286,-94.6092 366.646,-83.0806"/>
<polygon fill="midnightblue" stroke="midnightblue" points="367.336,-79.649 356.829,-81.0091 365.891,-86.4982 367.336,-79.649"/>
</g>
<!-- Node22&#45;&gt;Node21 -->
<g id="edge28" class="edge"><title>Node22&#45;&gt;Node21</title>
<path fill="none" stroke="midnightblue" d="M613.544,-123.475C628.163,-115.191 650.869,-102.325 669.81,-91.5913"/>
<polygon fill="midnightblue" stroke="midnightblue" points="671.779,-94.4982 678.754,-86.523 668.328,-88.4081 671.779,-94.4982"/>
</g>
<!-- Node23&#45;&gt;Node20 -->
<g id="edge31" class="edge"><title>Node23&#45;&gt;Node20</title>
<path fill="none" stroke="midnightblue" d="M371.53,-179.285C349.392,-165.302 323.372,-143.175 338.5,-123 351.865,-105.176 403.895,-91.5551 447.437,-82.9768"/>
<polygon fill="midnightblue" stroke="midnightblue" points="448.271,-86.3808 457.435,-81.0644 446.956,-79.5055 448.271,-86.3808"/>
</g>
<!-- Node23&#45;&gt;Node24 -->
<g id="edge32" class="edge"><title>Node23&#45;&gt;Node24</title>
<path fill="none" stroke="midnightblue" d="M348.706,-179.475C312.526,-169.075 263.831,-155.078 230.064,-145.372"/>
<polygon fill="midnightblue" stroke="midnightblue" points="230.671,-141.905 220.094,-142.506 228.738,-148.633 230.671,-141.905"/>
</g>
<!-- Node24&#45;&gt;Node10 -->
<g id="edge34" class="edge"><title>Node24&#45;&gt;Node10</title>
<path fill="none" stroke="midnightblue" d="M208.553,-123.475C229.698,-113.49 264.94,-96.8476 289.378,-85.3075"/>
<polygon fill="midnightblue" stroke="midnightblue" points="290.933,-88.4441 298.481,-81.0091 287.944,-82.1143 290.933,-88.4441"/>
</g>
<!-- Node25 -->
<g id="node25" class="node"><title>Node25</title>
<polygon fill="white" stroke="#bfbfbf" points="164.5,-62 164.5,-81 216.5,-81 216.5,-62 164.5,-62"/>
<text text-anchor="middle" x="190.5" y="-69" font-family="Helvetica,sans-Serif" font-size="10.00">stddef.h</text>
</g>
<!-- Node24&#45;&gt;Node25 -->
<g id="edge33" class="edge"><title>Node24&#45;&gt;Node25</title>
<path fill="none" stroke="midnightblue" d="M190.5,-123.475C190.5,-115.08 190.5,-101.981 190.5,-91.1631"/>
<polygon fill="midnightblue" stroke="midnightblue" points="194,-91.0091 190.5,-81.0091 187,-91.0091 194,-91.0091"/>
</g>
<!-- Node26&#45;&gt;Node4 -->
<g id="edge38" class="edge"><title>Node26&#45;&gt;Node4</title>
<path fill="none" stroke="midnightblue" d="M1071.06,-184.698C1092.29,-156.21 1159.38,-66.1786 1187.69,-28.1835"/>
<polygon fill="midnightblue" stroke="midnightblue" points="1190.84,-29.8239 1194.01,-19.714 1185.22,-25.6411 1190.84,-29.8239"/>
</g>
<!-- Node26&#45;&gt;Node19 -->
<g id="edge39" class="edge"><title>Node26&#45;&gt;Node19</title>
<path fill="none" stroke="midnightblue" d="M1046.16,-184.975C1024.68,-174.99 988.878,-158.348 964.052,-146.807"/>
<polygon fill="midnightblue" stroke="midnightblue" points="965.349,-143.551 954.805,-142.509 962.398,-149.898 965.349,-143.551"/>
</g>
<!-- Node27 -->
<g id="node27" class="node"><title>Node27</title>
<polygon fill="white" stroke="#bfbfbf" points="1014.5,-123.5 1014.5,-142.5 1060.5,-142.5 1060.5,-123.5 1014.5,-123.5"/>
<text text-anchor="middle" x="1037.5" y="-130.5" font-family="Helvetica,sans-Serif" font-size="10.00">cstring</text>
</g>
<!-- Node26&#45;&gt;Node27 -->
<g id="edge37" class="edge"><title>Node26&#45;&gt;Node27</title>
<path fill="none" stroke="midnightblue" d="M1060.63,-184.975C1056.7,-176.315 1050.5,-162.649 1045.51,-151.645"/>
<polygon fill="midnightblue" stroke="midnightblue" points="1048.68,-150.169 1041.36,-142.509 1042.31,-153.062 1048.68,-150.169"/>
</g>
<!-- Node28&#45;&gt;Node4 -->
<g id="edge44" class="edge"><title>Node28&#45;&gt;Node4</title>
<path fill="none" stroke="midnightblue" d="M1272.14,-184.769C1286.55,-171.822 1309.47,-146.524 1300.5,-123 1284.61,-81.3525 1245.33,-45.3711 1221,-26.0685"/>
<polygon fill="midnightblue" stroke="midnightblue" points="1222.84,-23.0667 1212.78,-19.7321 1218.56,-28.6101 1222.84,-23.0667"/>
</g>
<!-- Node28&#45;&gt;Node15 -->
<g id="edge41" class="edge"><title>Node28&#45;&gt;Node15</title>
<path fill="none" stroke="midnightblue" d="M1261.5,-184.975C1261.5,-176.58 1261.5,-163.481 1261.5,-152.663"/>
<polygon fill="midnightblue" stroke="midnightblue" points="1265,-152.509 1261.5,-142.509 1258,-152.509 1265,-152.509"/>
</g>
<!-- Node28&#45;&gt;Node16 -->
<g id="edge43" class="edge"><title>Node28&#45;&gt;Node16</title>
<path fill="none" stroke="midnightblue" d="M1240.75,-184.951C1205.83,-170.776 1132.92,-142.079 1069.5,-123 1003.02,-103 977.291,-122.282 917.5,-87 892.636,-72.328 871.609,-45.791 859.52,-28.281"/>
<polygon fill="midnightblue" stroke="midnightblue" points="862.208,-26.0026 853.756,-19.6146 856.38,-29.8794 862.208,-26.0026"/>
</g>
<!-- Node28&#45;&gt;Node22 -->
<g id="edge45" class="edge"><title>Node28&#45;&gt;Node22</title>
<path fill="none" stroke="midnightblue" d="M1228.9,-189.341C1203.92,-186.237 1168.56,-182.028 1137.5,-179 936.253,-159.383 882.771,-162.668 677.593,-143.07"/>
<polygon fill="midnightblue" stroke="midnightblue" points="677.678,-139.562 667.389,-142.088 677.008,-146.53 677.678,-139.562"/>
</g>
<!-- Node29 -->
<g id="node29" class="node"><title>Node29</title>
<polygon fill="white" stroke="#bfbfbf" points="1348,-123.5 1348,-142.5 1377,-142.5 1377,-123.5 1348,-123.5"/>
<text text-anchor="middle" x="1362.5" y="-130.5" font-family="Helvetica,sans-Serif" font-size="10.00">list</text>
</g>
<!-- Node28&#45;&gt;Node29 -->
<g id="edge42" class="edge"><title>Node28&#45;&gt;Node29</title>
<path fill="none" stroke="midnightblue" d="M1275.97,-184.975C1292.47,-175.255 1319.68,-159.227 1339.18,-147.737"/>
<polygon fill="midnightblue" stroke="midnightblue" points="1341.22,-150.601 1348.06,-142.509 1337.66,-144.569 1341.22,-150.601"/>
</g>
<!-- Node30 -->
<g id="node30" class="node"><title>Node30</title>
<g id="a_node30"><a xlink:href="real_8h.xhtml" target="_top" xlink:title="Declares real and related constants. ">
<polygon fill="white" stroke="black" points="1352,-0.5 1352,-19.5 1459,-19.5 1459,-0.5 1352,-0.5"/>
<text text-anchor="middle" x="1405.5" y="-7.5" font-family="Helvetica,sans-Serif" font-size="10.00">gromacs/utility/real.h</text>
</a>
</g>
</g>
<!-- Node28&#45;&gt;Node30 -->
<g id="edge46" class="edge"><title>Node28&#45;&gt;Node30</title>
<path fill="none" stroke="midnightblue" d="M1294.07,-189.453C1323.01,-184.041 1364.12,-171.55 1386.5,-143 1412.37,-109.998 1411.15,-57.6178 1408.21,-29.8009"/>
<polygon fill="midnightblue" stroke="midnightblue" points="1411.64,-28.9997 1406.93,-19.5113 1404.7,-29.8683 1411.64,-28.9997"/>
</g>
<!-- Node28&#45;&gt;Node31 -->
<g id="edge47" class="edge"><title>Node28&#45;&gt;Node31</title>
<path fill="none" stroke="midnightblue" d="M1250.47,-184.975C1238.23,-175.52 1218.27,-160.096 1203.51,-148.687"/>
<polygon fill="midnightblue" stroke="midnightblue" points="1205.56,-145.854 1195.51,-142.509 1201.28,-151.393 1205.56,-145.854"/>
</g>
<!-- Node32 -->
<g id="node32" class="node"><title>Node32</title>
<g id="a_node32"><a xlink:href="selvalue_8h.xhtml" target="_top" xlink:title="Declares gmx_ana_selvalue_t. ">
<polygon fill="white" stroke="black" points="1472,-62 1472,-81 1533,-81 1533,-62 1472,-62"/>
<text text-anchor="middle" x="1502.5" y="-69" font-family="Helvetica,sans-Serif" font-size="10.00">selvalue.h</text>
</a>
</g>
</g>
<!-- Node28&#45;&gt;Node32 -->
<g id="edge55" class="edge"><title>Node28&#45;&gt;Node32</title>
<path fill="none" stroke="midnightblue" d="M1294.19,-187.025C1327.24,-179.587 1379.09,-165.432 1419.5,-143 1445.96,-128.31 1471.79,-104.422 1487.42,-88.585"/>
<polygon fill="midnightblue" stroke="midnightblue" points="1490.19,-90.7545 1494.62,-81.1287 1485.16,-85.8932 1490.19,-90.7545"/>
</g>
<!-- Node31&#45;&gt;Node4 -->
<g id="edge49" class="edge"><title>Node31&#45;&gt;Node4</title>
<path fill="none" stroke="midnightblue" d="M1185.65,-123.298C1188.23,-103.763 1194.54,-56.0646 1198.05,-29.5471"/>
<polygon fill="midnightblue" stroke="midnightblue" points="1201.52,-29.9957 1199.36,-19.6232 1194.58,-29.078 1201.52,-29.9957"/>
</g>
<!-- Node31&#45;&gt;Node6 -->
<g id="edge50" class="edge"><title>Node31&#45;&gt;Node6</title>
<path fill="none" stroke="midnightblue" d="M1167.02,-123.475C1146.64,-113.534 1112.72,-96.9947 1089.08,-85.461"/>
<polygon fill="midnightblue" stroke="midnightblue" points="1090.47,-82.2468 1079.95,-81.0091 1087.4,-88.5385 1090.47,-82.2468"/>
</g>
<!-- Node31&#45;&gt;Node16 -->
<g id="edge48" class="edge"><title>Node31&#45;&gt;Node16</title>
<path fill="none" stroke="midnightblue" d="M1154.94,-128.22C1114.86,-122.471 1041.51,-109.723 982.5,-87 940.043,-70.6515 894.843,-42.4723 869.292,-25.4038"/>
<polygon fill="midnightblue" stroke="midnightblue" points="871.052,-22.3686 860.81,-19.6605 867.128,-28.1651 871.052,-22.3686"/>
</g>
<!-- Node31&#45;&gt;Node20 -->
<g id="edge51" class="edge"><title>Node31&#45;&gt;Node20</title>
<path fill="none" stroke="midnightblue" d="M1154.8,-129.676C1056.21,-121.943 740.256,-96.9997 638.5,-87 623.786,-85.554 608.128,-83.8785 593.015,-82.191"/>
<polygon fill="midnightblue" stroke="midnightblue" points="592.987,-78.6657 582.658,-81.0234 592.203,-85.6217 592.987,-78.6657"/>
</g>
<!-- Node31&#45;&gt;Node30 -->
<g id="edge52" class="edge"><title>Node31&#45;&gt;Node30</title>
<path fill="none" stroke="midnightblue" d="M1200.04,-123.492C1237.83,-102.8 1334.8,-49.71 1380.7,-24.5779"/>
<polygon fill="midnightblue" stroke="midnightblue" points="1382.59,-27.5335 1389.68,-19.661 1379.23,-21.3935 1382.59,-27.5335"/>
</g>
<!-- Node31&#45;&gt;Node32 -->
<g id="edge53" class="edge"><title>Node31&#45;&gt;Node32</title>
<path fill="none" stroke="midnightblue" d="M1214.28,-124.974C1217.39,-124.286 1220.51,-123.616 1223.5,-123 1307.98,-105.618 1407.51,-88.3739 1461.92,-79.2209"/>
<polygon fill="midnightblue" stroke="midnightblue" points="1462.57,-82.6595 1471.86,-77.5541 1461.42,-75.7558 1462.57,-82.6595"/>
</g>
<!-- Node32&#45;&gt;Node30 -->
<g id="edge54" class="edge"><title>Node32&#45;&gt;Node30</title>
<path fill="none" stroke="midnightblue" d="M1488.6,-61.9751C1472.83,-52.2989 1446.86,-36.3721 1428.15,-24.8941"/>
<polygon fill="midnightblue" stroke="midnightblue" points="1429.73,-21.7544 1419.37,-19.5091 1426.07,-27.7213 1429.73,-21.7544"/>
</g>
<!-- Node33&#45;&gt;Node4 -->
<g id="edge58" class="edge"><title>Node33&#45;&gt;Node4</title>
<path fill="none" stroke="midnightblue" d="M1394.06,-184.949C1396.16,-170.895 1398.36,-142.526 1386.5,-123 1351.34,-65.1443 1273.97,-33.3419 1230.92,-19.5129"/>
<polygon fill="midnightblue" stroke="midnightblue" points="1231.85,-16.1384 1221.26,-16.5293 1229.78,-22.8262 1231.85,-16.1384"/>
</g>
<!-- Node33&#45;&gt;Node15 -->
<g id="edge57" class="edge"><title>Node33&#45;&gt;Node15</title>
<path fill="none" stroke="midnightblue" d="M1373.73,-184.975C1351.65,-174.945 1314.78,-158.2 1289.36,-146.655"/>
<polygon fill="midnightblue" stroke="midnightblue" points="1290.79,-143.458 1280.23,-142.509 1287.89,-149.831 1290.79,-143.458"/>
</g>
<!-- Node34 -->
<g id="node34" class="node"><title>Node34</title>
<polygon fill="white" stroke="#bfbfbf" points="1509.5,-123.5 1509.5,-142.5 1561.5,-142.5 1561.5,-123.5 1509.5,-123.5"/>
<text text-anchor="middle" x="1535.5" y="-130.5" font-family="Helvetica,sans-Serif" font-size="10.00">parser.h</text>
</g>
<!-- Node33&#45;&gt;Node34 -->
<g id="edge59" class="edge"><title>Node33&#45;&gt;Node34</title>
<path fill="none" stroke="midnightblue" d="M1412.99,-184.975C1437.31,-174.857 1478.05,-157.905 1505.82,-146.351"/>
<polygon fill="midnightblue" stroke="midnightblue" points="1507.16,-149.582 1515.05,-142.509 1504.47,-143.119 1507.16,-149.582"/>
</g>
<!-- Node35&#45;&gt;Node32 -->
<g id="edge65" class="edge"><title>Node35&#45;&gt;Node32</title>
<path fill="none" stroke="midnightblue" d="M1624.24,-184.952C1641.43,-171.378 1669.84,-144.259 1654.5,-123 1629.33,-88.1086 1579.06,-76.9463 1543.22,-73.5752"/>
<polygon fill="midnightblue" stroke="midnightblue" points="1543.31,-70.0717 1533.07,-72.7893 1542.77,-77.0508 1543.31,-70.0717"/>
</g>
<!-- Node35&#45;&gt;Node36 -->
<g id="edge62" class="edge"><title>Node35&#45;&gt;Node36</title>
<path fill="none" stroke="midnightblue" d="M1612.5,-184.975C1612.5,-176.58 1612.5,-163.481 1612.5,-152.663"/>
<polygon fill="midnightblue" stroke="midnightblue" points="1616,-152.509 1612.5,-142.509 1609,-152.509 1616,-152.509"/>
</g>
<!-- Node36&#45;&gt;Node6 -->
<g id="edge63" class="edge"><title>Node36&#45;&gt;Node6</title>
<path fill="none" stroke="midnightblue" d="M1579.55,-124.575C1576.5,-123.997 1573.45,-123.461 1570.5,-123 1421.08,-99.6389 1245.15,-84.9836 1144.44,-77.8077"/>
<polygon fill="midnightblue" stroke="midnightblue" points="1144.55,-74.3073 1134.33,-77.0948 1144.06,-81.2899 1144.55,-74.3073"/>
</g>
<!-- Node36&#45;&gt;Node32 -->
<g id="edge64" class="edge"><title>Node36&#45;&gt;Node32</title>
<path fill="none" stroke="midnightblue" d="M1596.74,-123.475C1578.52,-113.622 1548.33,-97.2883 1527.03,-85.7697"/>
<polygon fill="midnightblue" stroke="midnightblue" points="1528.69,-82.6883 1518.23,-81.0091 1525.36,-88.8453 1528.69,-82.6883"/>
</g>
</g>
</svg>
