<?xml version="1.0" encoding="UTF-8" standalone="no"?>
<!DOCTYPE svg PUBLIC "-//W3C//DTD SVG 1.1//EN"
 "http://www.w3.org/Graphics/SVG/1.1/DTD/svg11.dtd">
<!-- Generated by graphviz version 2.38.0 (20140413.2041)
 -->
<!-- Title: src/gromacs/commandline/pargs.h Pages: 1 -->
<svg width="871pt" height="173pt"
 viewBox="0.00 0.00 870.50 173.00" xmlns="http://www.w3.org/2000/svg" xmlns:xlink="http://www.w3.org/1999/xlink">
<g id="graph0" class="graph" transform="scale(1 1) rotate(0) translate(4 169)">
<title>src/gromacs/commandline/pargs.h</title>
<polygon fill="white" stroke="none" points="-4,4 -4,-169 866.5,-169 866.5,4 -4,4"/>
<!-- Node1 -->
<g id="node1" class="node"><title>Node1</title>
<polygon fill="#bfbfbf" stroke="black" points="386,-134.5 386,-164.5 517,-164.5 517,-134.5 386,-134.5"/>
<text text-anchor="start" x="394" y="-152.5" font-family="Helvetica,sans-Serif" font-size="10.00">src/gromacs/commandline</text>
<text text-anchor="middle" x="451.5" y="-141.5" font-family="Helvetica,sans-Serif" font-size="10.00">/pargs.h</text>
</g>
<!-- Node2 -->
<g id="node2" class="node"><title>Node2</title>
<g id="a_node2"><a xlink:href="shellcompletions_8cpp.xhtml" target="_top" xlink:title="Implements gmx::ShellCompletionWriter. ">
<polygon fill="white" stroke="black" points="0,-67.5 0,-97.5 131,-97.5 131,-67.5 0,-67.5"/>
<text text-anchor="start" x="8" y="-85.5" font-family="Helvetica,sans-Serif" font-size="10.00">src/gromacs/commandline</text>
<text text-anchor="middle" x="65.5" y="-74.5" font-family="Helvetica,sans-Serif" font-size="10.00">/shellcompletions.cpp</text>
</a>
</g>
</g>
<!-- Node1&#45;&gt;Node2 -->
<g id="edge1" class="edge"><title>Node1&#45;&gt;Node2</title>
<path fill="none" stroke="midnightblue" d="M375.625,-136.831C312.588,-126.98 220.594,-112.242 140.5,-98 137.497,-97.466 134.428,-96.9109 131.329,-96.3428"/>
<polygon fill="midnightblue" stroke="midnightblue" points="375.457,-140.347 385.877,-138.43 376.535,-133.43 375.457,-140.347"/>
</g>
<!-- Node3 -->
<g id="node3" class="node"><title>Node3</title>
<g id="a_node3"><a xlink:href="tests_2pargs_8cpp.xhtml" target="_top" xlink:title="Tests parse_common_args(). ">
<polygon fill="white" stroke="black" points="149,-67.5 149,-97.5 280,-97.5 280,-67.5 149,-67.5"/>
<text text-anchor="start" x="157" y="-85.5" font-family="Helvetica,sans-Serif" font-size="10.00">src/gromacs/commandline</text>
<text text-anchor="middle" x="214.5" y="-74.5" font-family="Helvetica,sans-Serif" font-size="10.00">/tests/pargs.cpp</text>
</a>
</g>
</g>
<!-- Node1&#45;&gt;Node3 -->
<g id="edge2" class="edge"><title>Node1&#45;&gt;Node3</title>
<path fill="none" stroke="midnightblue" d="M390.299,-131.715C351.732,-121.137 302.499,-107.635 265.951,-97.6109"/>
<polygon fill="midnightblue" stroke="midnightblue" points="389.797,-135.206 400.366,-134.476 391.648,-128.456 389.797,-135.206"/>
</g>
<!-- Node4 -->
<g id="node4" class="node"><title>Node4</title>
<g id="a_node4"><a xlink:href="commandline_8h.xhtml" target="_top" xlink:title="Public API convenience header for managing command line programs. ">
<polygon fill="white" stroke="black" points="298.5,-73 298.5,-92 438.5,-92 438.5,-73 298.5,-73"/>
<text text-anchor="middle" x="368.5" y="-80" font-family="Helvetica,sans-Serif" font-size="10.00">src/gromacs/commandline.h</text>
</a>
</g>
</g>
<!-- Node1&#45;&gt;Node4 -->
<g id="edge3" class="edge"><title>Node1&#45;&gt;Node4</title>
<path fill="none" stroke="midnightblue" d="M425.333,-128.008C409.925,-115.941 391.235,-101.305 379.602,-92.1945"/>
<polygon fill="midnightblue" stroke="midnightblue" points="423.459,-130.986 433.49,-134.396 427.775,-125.475 423.459,-130.986"/>
</g>
<!-- Node5 -->
<g id="node5" class="node"><title>Node5</title>
<g id="a_node5"><a xlink:href="autocorr_8h.xhtml" target="_top" xlink:title="Declares routine for computing autocorrelation functions. ">
<polygon fill="white" stroke="black" points="456.5,-67.5 456.5,-97.5 614.5,-97.5 614.5,-67.5 456.5,-67.5"/>
<text text-anchor="start" x="464.5" y="-85.5" font-family="Helvetica,sans-Serif" font-size="10.00">src/gromacs/correlationfunctions</text>
<text text-anchor="middle" x="535.5" y="-74.5" font-family="Helvetica,sans-Serif" font-size="10.00">/autocorr.h</text>
</a>
</g>
</g>
<!-- Node1&#45;&gt;Node5 -->
<g id="edge4" class="edge"><title>Node1&#45;&gt;Node5</title>
<path fill="none" stroke="midnightblue" d="M477.776,-128.168C490.62,-118.228 505.758,-106.514 517.309,-97.5765"/>
<polygon fill="midnightblue" stroke="midnightblue" points="475.494,-125.508 469.727,-134.396 479.777,-131.044 475.494,-125.508"/>
</g>
<!-- Node8 -->
<g id="node8" class="node"><title>Node8</title>
<g id="a_node8"><a xlink:href="gmx__wham_8cpp.xhtml" target="_top" xlink:title="Implementation of the Weighted Histogram Analysis Method (WHAM) ">
<polygon fill="white" stroke="black" points="632.5,-67.5 632.5,-97.5 740.5,-97.5 740.5,-67.5 632.5,-67.5"/>
<text text-anchor="start" x="640.5" y="-85.5" font-family="Helvetica,sans-Serif" font-size="10.00">src/gromacs/gmxana</text>
<text text-anchor="middle" x="686.5" y="-74.5" font-family="Helvetica,sans-Serif" font-size="10.00">/gmx_wham.cpp</text>
</a>
</g>
</g>
<!-- Node1&#45;&gt;Node8 -->
<g id="edge7" class="edge"><title>Node1&#45;&gt;Node8</title>
<path fill="none" stroke="midnightblue" d="M512.184,-131.715C550.427,-121.137 599.243,-107.635 635.484,-97.6109"/>
<polygon fill="midnightblue" stroke="midnightblue" points="510.907,-128.437 502.202,-134.476 512.773,-135.183 510.907,-128.437"/>
</g>
<!-- Node9 -->
<g id="node9" class="node"><title>Node9</title>
<g id="a_node9"><a xlink:href="mdrun_8cpp.xhtml" target="_top" xlink:title="This file implements mdrun. ">
<polygon fill="white" stroke="black" points="758.5,-67.5 758.5,-97.5 862.5,-97.5 862.5,-67.5 758.5,-67.5"/>
<text text-anchor="start" x="766.5" y="-85.5" font-family="Helvetica,sans-Serif" font-size="10.00">src/programs/mdrun</text>
<text text-anchor="middle" x="810.5" y="-74.5" font-family="Helvetica,sans-Serif" font-size="10.00">/mdrun.cpp</text>
</a>
</g>
</g>
<!-- Node1&#45;&gt;Node9 -->
<g id="edge8" class="edge"><title>Node1&#45;&gt;Node9</title>
<path fill="none" stroke="midnightblue" d="M527.338,-137.053C587.716,-127.602 674.277,-113.297 749.5,-98 752.38,-97.4143 755.331,-96.7909 758.306,-96.1442"/>
<polygon fill="midnightblue" stroke="midnightblue" points="526.471,-133.646 517.129,-138.644 527.549,-140.562 526.471,-133.646"/>
</g>
<!-- Node6 -->
<g id="node6" class="node"><title>Node6</title>
<g id="a_node6"><a xlink:href="autocorr_8cpp.xhtml" target="_top" xlink:title="Implements function to compute many autocorrelation functions. ">
<polygon fill="white" stroke="black" points="368.5,-0.5 368.5,-30.5 526.5,-30.5 526.5,-0.5 368.5,-0.5"/>
<text text-anchor="start" x="376.5" y="-18.5" font-family="Helvetica,sans-Serif" font-size="10.00">src/gromacs/correlationfunctions</text>
<text text-anchor="middle" x="447.5" y="-7.5" font-family="Helvetica,sans-Serif" font-size="10.00">/autocorr.cpp</text>
</a>
</g>
</g>
<!-- Node5&#45;&gt;Node6 -->
<g id="edge5" class="edge"><title>Node5&#45;&gt;Node6</title>
<path fill="none" stroke="midnightblue" d="M508.357,-61.4511C494.819,-51.4517 478.773,-39.5995 466.557,-30.5765"/>
<polygon fill="midnightblue" stroke="midnightblue" points="506.282,-64.2699 516.405,-67.396 510.441,-58.6393 506.282,-64.2699"/>
</g>
<!-- Node7 -->
<g id="node7" class="node"><title>Node7</title>
<g id="a_node7"><a xlink:href="tests_2autocorr_8cpp.xhtml" target="_top" xlink:title="Implements test of autocorrelation function routines. ">
<polygon fill="white" stroke="black" points="544.5,-0.5 544.5,-30.5 702.5,-30.5 702.5,-0.5 544.5,-0.5"/>
<text text-anchor="start" x="552.5" y="-18.5" font-family="Helvetica,sans-Serif" font-size="10.00">src/gromacs/correlationfunctions</text>
<text text-anchor="middle" x="623.5" y="-7.5" font-family="Helvetica,sans-Serif" font-size="10.00">/tests/autocorr.cpp</text>
</a>
</g>
</g>
<!-- Node5&#45;&gt;Node7 -->
<g id="edge6" class="edge"><title>Node5&#45;&gt;Node7</title>
<path fill="none" stroke="midnightblue" d="M562.643,-61.4511C576.181,-51.4517 592.227,-39.5995 604.443,-30.5765"/>
<polygon fill="midnightblue" stroke="midnightblue" points="560.559,-58.6393 554.595,-67.396 564.718,-64.2699 560.559,-58.6393"/>
</g>
</g>
</svg>
