<?xml version="1.0" encoding="UTF-8" standalone="no"?>
<!DOCTYPE svg PUBLIC "-//W3C//DTD SVG 1.1//EN"
 "http://www.w3.org/Graphics/SVG/1.1/DTD/svg11.dtd">
<!-- Generated by graphviz version 2.38.0 (20140413.2041)
 -->
<!-- Title: src/gromacs/selection/parsetree.h Pages: 1 -->
<svg width="1061pt" height="218pt"
 viewBox="0.00 0.00 1061.00 218.00" xmlns="http://www.w3.org/2000/svg" xmlns:xlink="http://www.w3.org/1999/xlink">
<g id="graph0" class="graph" transform="scale(1 1) rotate(0) translate(4 214)">
<title>src/gromacs/selection/parsetree.h</title>
<polygon fill="white" stroke="none" points="-4,4 -4,-214 1057,-214 1057,4 -4,4"/>
<!-- Node1 -->
<g id="node1" class="node"><title>Node1</title>
<polygon fill="#bfbfbf" stroke="black" points="318,-179.5 318,-209.5 431,-209.5 431,-179.5 318,-179.5"/>
<text text-anchor="start" x="326" y="-197.5" font-family="Helvetica,sans-Serif" font-size="10.00">src/gromacs/selection</text>
<text text-anchor="middle" x="374.5" y="-186.5" font-family="Helvetica,sans-Serif" font-size="10.00">/parsetree.h</text>
</g>
<!-- Node2 -->
<g id="node2" class="node"><title>Node2</title>
<polygon fill="white" stroke="#bfbfbf" points="0,-123.5 0,-142.5 59,-142.5 59,-123.5 0,-123.5"/>
<text text-anchor="middle" x="29.5" y="-130.5" font-family="Helvetica,sans-Serif" font-size="10.00">exception</text>
</g>
<!-- Node1&#45;&gt;Node2 -->
<g id="edge1" class="edge"><title>Node1&#45;&gt;Node2</title>
<path fill="none" stroke="midnightblue" d="M317.986,-185.408C258.402,-176.606 161.594,-161.54 69.3867,-143.28"/>
<polygon fill="midnightblue" stroke="midnightblue" points="69.8195,-139.797 59.3277,-141.271 68.4487,-146.662 69.8195,-139.797"/>
</g>
<!-- Node3 -->
<g id="node3" class="node"><title>Node3</title>
<polygon fill="white" stroke="#bfbfbf" points="77,-123.5 77,-142.5 106,-142.5 106,-123.5 77,-123.5"/>
<text text-anchor="middle" x="91.5" y="-130.5" font-family="Helvetica,sans-Serif" font-size="10.00">list</text>
</g>
<!-- Node1&#45;&gt;Node3 -->
<g id="edge2" class="edge"><title>Node1&#45;&gt;Node3</title>
<path fill="none" stroke="midnightblue" d="M317.877,-183.995C266.15,-174.898 187.719,-160.063 120.5,-143 119.031,-142.627 117.526,-142.224 116.012,-141.803"/>
<polygon fill="midnightblue" stroke="midnightblue" points="116.751,-138.372 106.168,-138.879 114.758,-145.082 116.751,-138.372"/>
</g>
<!-- Node4 -->
<g id="node4" class="node"><title>Node4</title>
<polygon fill="white" stroke="#bfbfbf" points="209.5,-0.5 209.5,-19.5 261.5,-19.5 261.5,-0.5 209.5,-0.5"/>
<text text-anchor="middle" x="235.5" y="-7.5" font-family="Helvetica,sans-Serif" font-size="10.00">memory</text>
</g>
<!-- Node1&#45;&gt;Node4 -->
<g id="edge3" class="edge"><title>Node1&#45;&gt;Node4</title>
<path fill="none" stroke="midnightblue" d="M317.873,-183.68C265.089,-171.196 189.295,-143.984 153.5,-87 146.171,-75.3331 146.482,-67.8565 153.5,-56 163.526,-39.0615 182.441,-28.0748 199.579,-21.2012"/>
<polygon fill="midnightblue" stroke="midnightblue" points="201.195,-24.3371 209.385,-17.6154 198.791,-17.763 201.195,-24.3371"/>
</g>
<!-- Node5 -->
<g id="node5" class="node"><title>Node5</title>
<polygon fill="white" stroke="#bfbfbf" points="392,-0.5 392,-19.5 433,-19.5 433,-0.5 392,-0.5"/>
<text text-anchor="middle" x="412.5" y="-7.5" font-family="Helvetica,sans-Serif" font-size="10.00">string</text>
</g>
<!-- Node1&#45;&gt;Node5 -->
<g id="edge4" class="edge"><title>Node1&#45;&gt;Node5</title>
<path fill="none" stroke="midnightblue" d="M374.145,-179.352C373.909,-169.228 373.622,-155.276 373.5,-143 373.412,-134.112 372.018,-131.764 373.5,-123 379.313,-88.6306 394.494,-50.7373 404.11,-29.012"/>
<polygon fill="midnightblue" stroke="midnightblue" points="407.376,-30.2848 408.318,-19.732 401.001,-27.3938 407.376,-30.2848"/>
</g>
<!-- Node6 -->
<g id="node6" class="node"><title>Node6</title>
<g id="a_node6"><a xlink:href="gmxassert_8h.xhtml" target="_top" xlink:title="Defines assert macros customized for Gromacs. ">
<polygon fill="white" stroke="black" points="759,-123.5 759,-142.5 896,-142.5 896,-123.5 759,-123.5"/>
<text text-anchor="middle" x="827.5" y="-130.5" font-family="Helvetica,sans-Serif" font-size="10.00">gromacs/utility/gmxassert.h</text>
</a>
</g>
</g>
<!-- Node1&#45;&gt;Node6 -->
<g id="edge5" class="edge"><title>Node1&#45;&gt;Node6</title>
<path fill="none" stroke="midnightblue" d="M431.414,-186.025C512.757,-175.34 662.377,-155.688 752.62,-143.835"/>
<polygon fill="midnightblue" stroke="midnightblue" points="753.323,-147.273 762.782,-142.501 752.411,-140.333 753.323,-147.273"/>
</g>
<!-- Node11 -->
<g id="node11" class="node"><title>Node11</title>
<g id="a_node11"><a xlink:href="real_8h.xhtml" target="_top" xlink:title="Declares real and related constants. ">
<polygon fill="white" stroke="black" points="618,-0.5 618,-19.5 725,-19.5 725,-0.5 618,-0.5"/>
<text text-anchor="middle" x="671.5" y="-7.5" font-family="Helvetica,sans-Serif" font-size="10.00">gromacs/utility/real.h</text>
</a>
</g>
</g>
<!-- Node1&#45;&gt;Node11 -->
<g id="edge10" class="edge"><title>Node1&#45;&gt;Node11</title>
<path fill="none" stroke="midnightblue" d="M431.072,-183.835C517.861,-167.723 677.339,-132.59 710.5,-87 724.519,-67.7266 705.569,-42.7019 689.517,-26.7415"/>
<polygon fill="midnightblue" stroke="midnightblue" points="691.711,-23.9996 682.028,-19.6995 686.916,-29.0994 691.711,-23.9996"/>
</g>
<!-- Node12 -->
<g id="node12" class="node"><title>Node12</title>
<g id="a_node12"><a xlink:href="selelem_8h.xhtml" target="_top" xlink:title="Declares gmx::SelectionTreeElement and related things. ">
<polygon fill="white" stroke="black" points="383,-123.5 383,-142.5 442,-142.5 442,-123.5 383,-123.5"/>
<text text-anchor="middle" x="412.5" y="-130.5" font-family="Helvetica,sans-Serif" font-size="10.00">selelem.h</text>
</a>
</g>
</g>
<!-- Node1&#45;&gt;Node12 -->
<g id="edge11" class="edge"><title>Node1&#45;&gt;Node12</title>
<path fill="none" stroke="midnightblue" d="M383.505,-179.399C388.913,-170.932 395.832,-160.099 401.554,-151.139"/>
<polygon fill="midnightblue" stroke="midnightblue" points="404.538,-152.97 406.971,-142.658 398.638,-149.202 404.538,-152.97"/>
</g>
<!-- Node16 -->
<g id="node16" class="node"><title>Node16</title>
<g id="a_node16"><a xlink:href="selvalue_8h.xhtml" target="_top" xlink:title="Declares gmx_ana_selvalue_t. ">
<polygon fill="white" stroke="black" points="641,-62 641,-81 702,-81 702,-62 641,-62"/>
<text text-anchor="middle" x="671.5" y="-69" font-family="Helvetica,sans-Serif" font-size="10.00">selvalue.h</text>
</a>
</g>
</g>
<!-- Node1&#45;&gt;Node16 -->
<g id="edge22" class="edge"><title>Node1&#45;&gt;Node16</title>
<path fill="none" stroke="midnightblue" d="M409.151,-179.383C467.758,-155.506 585.489,-107.542 641.093,-84.8882"/>
<polygon fill="midnightblue" stroke="midnightblue" points="642.47,-88.1065 650.41,-81.0922 639.829,-81.6239 642.47,-88.1065"/>
</g>
<!-- Node7 -->
<g id="node7" class="node"><title>Node7</title>
<g id="a_node7"><a xlink:href="basedefinitions_8h.xhtml" target="_top" xlink:title="Basic types and macros used throughout GROMACS. ">
<polygon fill="white" stroke="black" points="896,-62 896,-81 1053,-81 1053,-62 896,-62"/>
<text text-anchor="middle" x="974.5" y="-69" font-family="Helvetica,sans-Serif" font-size="10.00">gromacs/utility/basedefinitions.h</text>
</a>
</g>
</g>
<!-- Node6&#45;&gt;Node7 -->
<g id="edge6" class="edge"><title>Node6&#45;&gt;Node7</title>
<path fill="none" stroke="midnightblue" d="M848.562,-123.475C873.559,-113.357 915.442,-96.4046 943.987,-84.8507"/>
<polygon fill="midnightblue" stroke="midnightblue" points="945.521,-88.0054 953.478,-81.0091 942.895,-81.5168 945.521,-88.0054"/>
</g>
<!-- Node10 -->
<g id="node10" class="node"><title>Node10</title>
<g id="a_node10"><a xlink:href="current__function_8h.xhtml" target="_top" xlink:title="Declares GMX_CURRENT_FUNCTION for getting the current function name. ">
<polygon fill="white" stroke="black" points="765,-56.5 765,-86.5 878,-86.5 878,-56.5 765,-56.5"/>
<text text-anchor="start" x="773" y="-74.5" font-family="Helvetica,sans-Serif" font-size="10.00">gromacs/utility/current</text>
<text text-anchor="middle" x="821.5" y="-63.5" font-family="Helvetica,sans-Serif" font-size="10.00">_function.h</text>
</a>
</g>
</g>
<!-- Node6&#45;&gt;Node10 -->
<g id="edge9" class="edge"><title>Node6&#45;&gt;Node10</title>
<path fill="none" stroke="midnightblue" d="M826.64,-123.475C825.934,-116.471 824.898,-106.192 823.94,-96.6956"/>
<polygon fill="midnightblue" stroke="midnightblue" points="827.4,-96.1213 822.914,-86.523 820.435,-96.8237 827.4,-96.1213"/>
</g>
<!-- Node8 -->
<g id="node8" class="node"><title>Node8</title>
<polygon fill="white" stroke="#bfbfbf" points="914,-0.5 914,-19.5 963,-19.5 963,-0.5 914,-0.5"/>
<text text-anchor="middle" x="938.5" y="-7.5" font-family="Helvetica,sans-Serif" font-size="10.00">stdint.h</text>
</g>
<!-- Node7&#45;&gt;Node8 -->
<g id="edge7" class="edge"><title>Node7&#45;&gt;Node8</title>
<path fill="none" stroke="midnightblue" d="M969.342,-61.9751C964.049,-53.2268 955.665,-39.3691 948.973,-28.3093"/>
<polygon fill="midnightblue" stroke="midnightblue" points="951.82,-26.2531 943.648,-19.5091 945.83,-29.8768 951.82,-26.2531"/>
</g>
<!-- Node9 -->
<g id="node9" class="node"><title>Node9</title>
<polygon fill="white" stroke="#bfbfbf" points="981,-0.5 981,-19.5 1040,-19.5 1040,-0.5 981,-0.5"/>
<text text-anchor="middle" x="1010.5" y="-7.5" font-family="Helvetica,sans-Serif" font-size="10.00">inttypes.h</text>
</g>
<!-- Node7&#45;&gt;Node9 -->
<g id="edge8" class="edge"><title>Node7&#45;&gt;Node9</title>
<path fill="none" stroke="midnightblue" d="M979.658,-61.9751C984.951,-53.2268 993.335,-39.3691 1000.03,-28.3093"/>
<polygon fill="midnightblue" stroke="midnightblue" points="1003.17,-29.8768 1005.35,-19.5091 997.18,-26.2531 1003.17,-29.8768"/>
</g>
<!-- Node12&#45;&gt;Node4 -->
<g id="edge12" class="edge"><title>Node12&#45;&gt;Node4</title>
<path fill="none" stroke="midnightblue" d="M402.944,-123.426C386.282,-108.694 350.532,-78.0368 317.5,-56 299.771,-44.1724 278.668,-32.6448 262.311,-24.2183"/>
<polygon fill="midnightblue" stroke="midnightblue" points="263.79,-21.0442 253.289,-19.6364 260.62,-27.2854 263.79,-21.0442"/>
</g>
<!-- Node12&#45;&gt;Node5 -->
<g id="edge13" class="edge"><title>Node12&#45;&gt;Node5</title>
<path fill="none" stroke="midnightblue" d="M412.5,-123.298C412.5,-103.85 412.5,-56.49 412.5,-29.9036"/>
<polygon fill="midnightblue" stroke="midnightblue" points="416,-29.6231 412.5,-19.6232 409,-29.6232 416,-29.6231"/>
</g>
<!-- Node12&#45;&gt;Node11 -->
<g id="edge19" class="edge"><title>Node12&#45;&gt;Node11</title>
<path fill="none" stroke="midnightblue" d="M442.264,-129.311C479.434,-124.921 544.025,-113.83 592.5,-87 606.989,-78.9809 638.285,-46.7446 656.843,-26.9215"/>
<polygon fill="midnightblue" stroke="midnightblue" points="659.467,-29.2387 663.711,-19.5307 654.34,-24.4737 659.467,-29.2387"/>
</g>
<!-- Node13 -->
<g id="node13" class="node"><title>Node13</title>
<g id="a_node13"><a xlink:href="indexutil_8h.xhtml" target="_top" xlink:title="API for handling index files and index groups. ">
<polygon fill="white" stroke="black" points="441,-62 441,-81 584,-81 584,-62 441,-62"/>
<text text-anchor="middle" x="512.5" y="-69" font-family="Helvetica,sans-Serif" font-size="10.00">gromacs/selection/indexutil.h</text>
</a>
</g>
</g>
<!-- Node12&#45;&gt;Node13 -->
<g id="edge14" class="edge"><title>Node12&#45;&gt;Node13</title>
<path fill="none" stroke="midnightblue" d="M426.828,-123.475C443.164,-113.755 470.102,-97.7266 489.412,-86.2372"/>
<polygon fill="midnightblue" stroke="midnightblue" points="491.395,-89.1303 498.199,-81.0091 487.815,-83.1146 491.395,-89.1303"/>
</g>
<!-- Node15 -->
<g id="node15" class="node"><title>Node15</title>
<g id="a_node15"><a xlink:href="classhelpers_8h.xhtml" target="_top" xlink:title="Declares common utility classes and macros. ">
<polygon fill="white" stroke="black" points="162.5,-62 162.5,-81 308.5,-81 308.5,-62 162.5,-62"/>
<text text-anchor="middle" x="235.5" y="-69" font-family="Helvetica,sans-Serif" font-size="10.00">gromacs/utility/classhelpers.h</text>
</a>
</g>
</g>
<!-- Node12&#45;&gt;Node15 -->
<g id="edge17" class="edge"><title>Node12&#45;&gt;Node15</title>
<path fill="none" stroke="midnightblue" d="M387.14,-123.475C356.516,-113.18 304.843,-95.8103 270.454,-84.2502"/>
<polygon fill="midnightblue" stroke="midnightblue" points="271.407,-80.8779 260.813,-81.0091 269.176,-87.5131 271.407,-80.8779"/>
</g>
<!-- Node12&#45;&gt;Node16 -->
<g id="edge20" class="edge"><title>Node12&#45;&gt;Node16</title>
<path fill="none" stroke="midnightblue" d="M442.153,-126.779C483.676,-119.238 561.368,-104.291 626.5,-87 629.854,-86.1095 633.328,-85.1177 636.79,-84.0822"/>
<polygon fill="midnightblue" stroke="midnightblue" points="637.896,-87.4038 646.409,-81.0965 635.821,-80.7184 637.896,-87.4038"/>
</g>
<!-- Node13&#45;&gt;Node5 -->
<g id="edge16" class="edge"><title>Node13&#45;&gt;Node5</title>
<path fill="none" stroke="midnightblue" d="M498.172,-61.9751C481.836,-52.2548 454.898,-36.2266 435.588,-24.7372"/>
<polygon fill="midnightblue" stroke="midnightblue" points="437.185,-21.6146 426.801,-19.5091 433.605,-27.6303 437.185,-21.6146"/>
</g>
<!-- Node14 -->
<g id="node14" class="node"><title>Node14</title>
<polygon fill="white" stroke="#bfbfbf" points="491,-0.5 491,-19.5 534,-19.5 534,-0.5 491,-0.5"/>
<text text-anchor="middle" x="512.5" y="-7.5" font-family="Helvetica,sans-Serif" font-size="10.00">cstdio</text>
</g>
<!-- Node13&#45;&gt;Node14 -->
<g id="edge15" class="edge"><title>Node13&#45;&gt;Node14</title>
<path fill="none" stroke="midnightblue" d="M512.5,-61.9751C512.5,-53.5803 512.5,-40.4806 512.5,-29.6631"/>
<polygon fill="midnightblue" stroke="midnightblue" points="516,-29.5091 512.5,-19.5091 509,-29.5091 516,-29.5091"/>
</g>
<!-- Node15&#45;&gt;Node4 -->
<g id="edge18" class="edge"><title>Node15&#45;&gt;Node4</title>
<path fill="none" stroke="midnightblue" d="M235.5,-61.9751C235.5,-53.5803 235.5,-40.4806 235.5,-29.6631"/>
<polygon fill="midnightblue" stroke="midnightblue" points="239,-29.5091 235.5,-19.5091 232,-29.5091 239,-29.5091"/>
</g>
<!-- Node16&#45;&gt;Node11 -->
<g id="edge21" class="edge"><title>Node16&#45;&gt;Node11</title>
<path fill="none" stroke="midnightblue" d="M671.5,-61.9751C671.5,-53.5803 671.5,-40.4806 671.5,-29.6631"/>
<polygon fill="midnightblue" stroke="midnightblue" points="675,-29.5091 671.5,-19.5091 668,-29.5091 675,-29.5091"/>
</g>
</g>
</svg>
