<?xml version="1.0" encoding="UTF-8" standalone="no"?>
<!DOCTYPE svg PUBLIC "-//W3C//DTD SVG 1.1//EN"
 "http://www.w3.org/Graphics/SVG/1.1/DTD/svg11.dtd">
<!-- Generated by graphviz version 2.38.0 (20140413.2041)
 -->
<!-- Title: src/gromacs/ewald/pme&#45;internal.h Pages: 1 -->
<svg width="427pt" height="106pt"
 viewBox="0.00 0.00 426.50 106.00" xmlns="http://www.w3.org/2000/svg" xmlns:xlink="http://www.w3.org/1999/xlink">
<g id="graph0" class="graph" transform="scale(1 1) rotate(0) translate(4 102)">
<title>src/gromacs/ewald/pme&#45;internal.h</title>
<polygon fill="white" stroke="none" points="-4,4 -4,-102 422.5,-102 422.5,4 -4,4"/>
<!-- Node1 -->
<g id="node1" class="node"><title>Node1</title>
<polygon fill="#bfbfbf" stroke="black" points="139,-67.5 139,-97.5 260,-97.5 260,-67.5 139,-67.5"/>
<text text-anchor="start" x="147" y="-85.5" font-family="Helvetica,sans-Serif" font-size="10.00">src/gromacs/ewald/pme</text>
<text text-anchor="middle" x="199.5" y="-74.5" font-family="Helvetica,sans-Serif" font-size="10.00">&#45;internal.h</text>
</g>
<!-- Node2 -->
<g id="node2" class="node"><title>Node2</title>
<g id="a_node2"><a xlink:href="pme-load-balancing_8cpp.xhtml" target="_top" xlink:title="This file contains function definitions necessary for managing automatic load balance of PME calculat...">
<polygon fill="white" stroke="black" points="0,-0.5 0,-30.5 121,-30.5 121,-0.5 0,-0.5"/>
<text text-anchor="start" x="8" y="-18.5" font-family="Helvetica,sans-Serif" font-size="10.00">src/gromacs/ewald/pme</text>
<text text-anchor="middle" x="60.5" y="-7.5" font-family="Helvetica,sans-Serif" font-size="10.00">&#45;load&#45;balancing.cpp</text>
</a>
</g>
</g>
<!-- Node1&#45;&gt;Node2 -->
<g id="edge1" class="edge"><title>Node1&#45;&gt;Node2</title>
<path fill="none" stroke="midnightblue" d="M160.218,-63.1305C138.131,-52.8025 110.99,-40.1103 90.6021,-30.5765"/>
<polygon fill="midnightblue" stroke="midnightblue" points="158.798,-66.3304 169.339,-67.396 161.763,-59.9894 158.798,-66.3304"/>
</g>
<!-- Node3 -->
<g id="node3" class="node"><title>Node3</title>
<g id="a_node3"><a xlink:href="pme-pp_8cpp.xhtml" target="_top" xlink:title="This file contains function definitions necessary for managing the offload of long&#45;ranged PME work to...">
<polygon fill="white" stroke="black" points="139,-0.5 139,-30.5 260,-30.5 260,-0.5 139,-0.5"/>
<text text-anchor="start" x="147" y="-18.5" font-family="Helvetica,sans-Serif" font-size="10.00">src/gromacs/ewald/pme</text>
<text text-anchor="middle" x="199.5" y="-7.5" font-family="Helvetica,sans-Serif" font-size="10.00">&#45;pp.cpp</text>
</a>
</g>
</g>
<!-- Node1&#45;&gt;Node3 -->
<g id="edge2" class="edge"><title>Node1&#45;&gt;Node3</title>
<path fill="none" stroke="midnightblue" d="M199.5,-57.1081C199.5,-48.1539 199.5,-38.3227 199.5,-30.5765"/>
<polygon fill="midnightblue" stroke="midnightblue" points="196,-57.3959 199.5,-67.396 203,-57.396 196,-57.3959"/>
</g>
<!-- Node4 -->
<g id="node4" class="node"><title>Node4</title>
<g id="a_node4"><a xlink:href="pme_8cpp.xhtml" target="_top" xlink:title="This file contains function definitions necessary for computing energies and forces for the PME long&#45;...">
<polygon fill="white" stroke="black" points="278.5,-6 278.5,-25 418.5,-25 418.5,-6 278.5,-6"/>
<text text-anchor="middle" x="348.5" y="-13" font-family="Helvetica,sans-Serif" font-size="10.00">src/gromacs/ewald/pme.cpp</text>
</a>
</g>
</g>
<!-- Node1&#45;&gt;Node4 -->
<g id="edge3" class="edge"><title>Node1&#45;&gt;Node4</title>
<path fill="none" stroke="midnightblue" d="M241.231,-63.2952C269.965,-50.7602 306.821,-34.682 328.999,-25.007"/>
<polygon fill="midnightblue" stroke="midnightblue" points="239.597,-60.1894 231.831,-67.396 242.396,-66.6054 239.597,-60.1894"/>
</g>
</g>
</svg>
