<?xml version="1.0" encoding="UTF-8" standalone="no"?>
<!DOCTYPE svg PUBLIC "-//W3C//DTD SVG 1.1//EN"
 "http://www.w3.org/Graphics/SVG/1.1/DTD/svg11.dtd">
<!-- Generated by graphviz version 2.38.0 (20140413.2041)
 -->
<!-- Title: src/gromacs/utility/programcontext.cpp Pages: 1 -->
<svg width="243pt" height="95pt"
 viewBox="0.00 0.00 243.00 95.00" xmlns="http://www.w3.org/2000/svg" xmlns:xlink="http://www.w3.org/1999/xlink">
<g id="graph0" class="graph" transform="scale(1 1) rotate(0) translate(4 91)">
<title>src/gromacs/utility/programcontext.cpp</title>
<polygon fill="white" stroke="none" points="-4,4 -4,-91 239,-91 239,4 -4,4"/>
<!-- Node1 -->
<g id="node1" class="node"><title>Node1</title>
<polygon fill="#bfbfbf" stroke="black" points="68.5,-56.5 68.5,-86.5 174.5,-86.5 174.5,-56.5 68.5,-56.5"/>
<text text-anchor="start" x="76.5" y="-74.5" font-family="Helvetica,sans-Serif" font-size="10.00">src/gromacs/utility</text>
<text text-anchor="middle" x="121.5" y="-63.5" font-family="Helvetica,sans-Serif" font-size="10.00">/programcontext.cpp</text>
</g>
<!-- Node2 -->
<g id="node2" class="node"><title>Node2</title>
<g id="a_node2"><a xlink:href="gmxpre_8h.xhtml" target="_top" xlink:title="Prerequisite header file for GROMACS build. ">
<polygon fill="white" stroke="black" points="0,-0.5 0,-19.5 57,-19.5 57,-0.5 0,-0.5"/>
<text text-anchor="middle" x="28.5" y="-7.5" font-family="Helvetica,sans-Serif" font-size="10.00">gmxpre.h</text>
</a>
</g>
</g>
<!-- Node1&#45;&gt;Node2 -->
<g id="edge1" class="edge"><title>Node1&#45;&gt;Node2</title>
<path fill="none" stroke="midnightblue" d="M99.4603,-56.3993C84.6924,-46.9511 65.3231,-34.5589 50.5525,-25.1089"/>
<polygon fill="midnightblue" stroke="midnightblue" points="52.3421,-22.0988 42.0323,-19.6578 48.5696,-27.9953 52.3421,-22.0988"/>
</g>
<!-- Node3 -->
<g id="node3" class="node"><title>Node3</title>
<g id="a_node3"><a xlink:href="programcontext_8h.xhtml" target="_top" xlink:title="Declares gmx::IProgramContext and related methods. ">
<polygon fill="white" stroke="black" points="75.5,-0.5 75.5,-19.5 167.5,-19.5 167.5,-0.5 75.5,-0.5"/>
<text text-anchor="middle" x="121.5" y="-7.5" font-family="Helvetica,sans-Serif" font-size="10.00">programcontext.h</text>
</a>
</g>
</g>
<!-- Node1&#45;&gt;Node3 -->
<g id="edge2" class="edge"><title>Node1&#45;&gt;Node3</title>
<path fill="none" stroke="midnightblue" d="M121.5,-56.3993C121.5,-48.4664 121.5,-38.458 121.5,-29.8583"/>
<polygon fill="midnightblue" stroke="midnightblue" points="125,-29.6577 121.5,-19.6578 118,-29.6578 125,-29.6577"/>
</g>
<!-- Node4 -->
<g id="node4" class="node"><title>Node4</title>
<polygon fill="white" stroke="#bfbfbf" points="186,-0.5 186,-19.5 235,-19.5 235,-0.5 186,-0.5"/>
<text text-anchor="middle" x="210.5" y="-7.5" font-family="Helvetica,sans-Serif" font-size="10.00">cstddef</text>
</g>
<!-- Node1&#45;&gt;Node4 -->
<g id="edge3" class="edge"><title>Node1&#45;&gt;Node4</title>
<path fill="none" stroke="midnightblue" d="M142.592,-56.3993C156.591,-47.0402 174.911,-34.7924 188.995,-25.3771"/>
<polygon fill="midnightblue" stroke="midnightblue" points="191.182,-28.1253 197.55,-19.6578 187.291,-22.3059 191.182,-28.1253"/>
</g>
</g>
</svg>
