<?xml version="1.0" encoding="UTF-8" standalone="no"?>
<!DOCTYPE svg PUBLIC "-//W3C//DTD SVG 1.1//EN"
 "http://www.w3.org/Graphics/SVG/1.1/DTD/svg11.dtd">
<!-- Generated by graphviz version 2.38.0 (20140413.2041)
 -->
<!-- Title: src/gromacs/mdtypes/pull&#45;params.h Pages: 1 -->
<svg width="358pt" height="240pt"
 viewBox="0.00 0.00 357.50 240.00" xmlns="http://www.w3.org/2000/svg" xmlns:xlink="http://www.w3.org/1999/xlink">
<g id="graph0" class="graph" transform="scale(1 1) rotate(0) translate(4 236)">
<title>src/gromacs/mdtypes/pull&#45;params.h</title>
<polygon fill="white" stroke="none" points="-4,4 -4,-236 353.5,-236 353.5,4 -4,4"/>
<!-- Node1 -->
<g id="node1" class="node"><title>Node1</title>
<polygon fill="#bfbfbf" stroke="black" points="82.5,-201.5 82.5,-231.5 193.5,-231.5 193.5,-201.5 82.5,-201.5"/>
<text text-anchor="start" x="90.5" y="-219.5" font-family="Helvetica,sans-Serif" font-size="10.00">src/gromacs/mdtypes</text>
<text text-anchor="middle" x="138" y="-208.5" font-family="Helvetica,sans-Serif" font-size="10.00">/pull&#45;params.h</text>
</g>
<!-- Node2 -->
<g id="node2" class="node"><title>Node2</title>
<g id="a_node2"><a xlink:href="pull_8h.xhtml" target="_top" xlink:title="This file contains datatypes and function declarations necessary for mdrun to interface with the pull...">
<polygon fill="white" stroke="black" points="127.5,-67.5 127.5,-97.5 228.5,-97.5 228.5,-67.5 127.5,-67.5"/>
<text text-anchor="start" x="135.5" y="-85.5" font-family="Helvetica,sans-Serif" font-size="10.00">src/gromacs/pulling</text>
<text text-anchor="middle" x="178" y="-74.5" font-family="Helvetica,sans-Serif" font-size="10.00">/pull.h</text>
</a>
</g>
</g>
<!-- Node1&#45;&gt;Node2 -->
<g id="edge1" class="edge"><title>Node1&#45;&gt;Node2</title>
<path fill="none" stroke="midnightblue" d="M142.485,-191.613C145.827,-175.216 150.862,-153.058 157,-134 161.017,-121.527 166.805,-107.827 171.288,-97.8472"/>
<polygon fill="midnightblue" stroke="midnightblue" points="139.043,-190.977 140.539,-201.466 145.911,-192.333 139.043,-190.977"/>
</g>
<!-- Node3 -->
<g id="node3" class="node"><title>Node3</title>
<g id="a_node3"><a xlink:href="gmx__wham_8cpp.xhtml" target="_top" xlink:title="Implementation of the Weighted Histogram Analysis Method (WHAM) ">
<polygon fill="white" stroke="black" points="0,-0.5 0,-30.5 108,-30.5 108,-0.5 0,-0.5"/>
<text text-anchor="start" x="8" y="-18.5" font-family="Helvetica,sans-Serif" font-size="10.00">src/gromacs/gmxana</text>
<text text-anchor="middle" x="54" y="-7.5" font-family="Helvetica,sans-Serif" font-size="10.00">/gmx_wham.cpp</text>
</a>
</g>
</g>
<!-- Node1&#45;&gt;Node3 -->
<g id="edge8" class="edge"><title>Node1&#45;&gt;Node3</title>
<path fill="none" stroke="midnightblue" d="M127.995,-191.798C110.357,-150.013 74.2487,-64.4701 59.9863,-30.6819"/>
<polygon fill="midnightblue" stroke="midnightblue" points="124.846,-193.337 131.959,-201.188 131.295,-190.614 124.846,-193.337"/>
</g>
<!-- Node6 -->
<g id="node6" class="node"><title>Node6</title>
<g id="a_node6"><a xlink:href="pull__internal_8h.xhtml" target="_top" xlink:title="This file contains datatypes and function declarations for internal use in the pull code...">
<polygon fill="white" stroke="black" points="166.5,-134.5 166.5,-164.5 267.5,-164.5 267.5,-134.5 166.5,-134.5"/>
<text text-anchor="start" x="174.5" y="-152.5" font-family="Helvetica,sans-Serif" font-size="10.00">src/gromacs/pulling</text>
<text text-anchor="middle" x="217" y="-141.5" font-family="Helvetica,sans-Serif" font-size="10.00">/pull_internal.h</text>
</a>
</g>
</g>
<!-- Node1&#45;&gt;Node6 -->
<g id="edge5" class="edge"><title>Node1&#45;&gt;Node6</title>
<path fill="none" stroke="midnightblue" d="M163.057,-194.883C175.063,-185.005 189.132,-173.429 199.892,-164.577"/>
<polygon fill="midnightblue" stroke="midnightblue" points="160.64,-192.34 155.142,-201.396 165.088,-197.745 160.64,-192.34"/>
</g>
<!-- Node2&#45;&gt;Node3 -->
<g id="edge2" class="edge"><title>Node2&#45;&gt;Node3</title>
<path fill="none" stroke="midnightblue" d="M142.163,-62.7143C122.606,-52.4631 98.7976,-39.9826 80.8536,-30.5765"/>
<polygon fill="midnightblue" stroke="midnightblue" points="140.612,-65.8531 151.094,-67.396 143.862,-59.6533 140.612,-65.8531"/>
</g>
<!-- Node4 -->
<g id="node4" class="node"><title>Node4</title>
<g id="a_node4"><a xlink:href="tests_2pull_8cpp.xhtml" target="_top" xlink:title="Implements test of some pulling routines. ">
<polygon fill="white" stroke="black" points="248.5,-0.5 248.5,-30.5 349.5,-30.5 349.5,-0.5 248.5,-0.5"/>
<text text-anchor="start" x="256.5" y="-18.5" font-family="Helvetica,sans-Serif" font-size="10.00">src/gromacs/pulling</text>
<text text-anchor="middle" x="299" y="-7.5" font-family="Helvetica,sans-Serif" font-size="10.00">/tests/pull.cpp</text>
</a>
</g>
</g>
<!-- Node2&#45;&gt;Node4 -->
<g id="edge3" class="edge"><title>Node2&#45;&gt;Node4</title>
<path fill="none" stroke="midnightblue" d="M213.23,-62.575C232.263,-52.3502 255.365,-39.94 272.796,-30.5765"/>
<polygon fill="midnightblue" stroke="midnightblue" points="211.408,-59.5803 204.255,-67.396 214.721,-65.7469 211.408,-59.5803"/>
</g>
<!-- Node5 -->
<g id="node5" class="node"><title>Node5</title>
<g id="a_node5"><a xlink:href="runner_8cpp.xhtml" target="_top" xlink:title="Implements the MD runner routine calling all integrators. ">
<polygon fill="white" stroke="black" points="126,-0.5 126,-30.5 230,-30.5 230,-0.5 126,-0.5"/>
<text text-anchor="start" x="134" y="-18.5" font-family="Helvetica,sans-Serif" font-size="10.00">src/programs/mdrun</text>
<text text-anchor="middle" x="178" y="-7.5" font-family="Helvetica,sans-Serif" font-size="10.00">/runner.cpp</text>
</a>
</g>
</g>
<!-- Node2&#45;&gt;Node5 -->
<g id="edge4" class="edge"><title>Node2&#45;&gt;Node5</title>
<path fill="none" stroke="midnightblue" d="M178,-57.1081C178,-48.1539 178,-38.3227 178,-30.5765"/>
<polygon fill="midnightblue" stroke="midnightblue" points="174.5,-57.3959 178,-67.396 181.5,-57.396 174.5,-57.3959"/>
</g>
<!-- Node6&#45;&gt;Node2 -->
<g id="edge6" class="edge"><title>Node6&#45;&gt;Node2</title>
<path fill="none" stroke="midnightblue" d="M203.245,-125.576C197.644,-116.241 191.349,-105.748 186.446,-97.5765"/>
<polygon fill="midnightblue" stroke="midnightblue" points="200.391,-127.622 208.538,-134.396 206.394,-124.02 200.391,-127.622"/>
</g>
<!-- Node6&#45;&gt;Node4 -->
<g id="edge7" class="edge"><title>Node6&#45;&gt;Node4</title>
<path fill="none" stroke="midnightblue" d="M231.081,-125.834C248.082,-98.4659 276.149,-53.2842 290.288,-30.5247"/>
<polygon fill="midnightblue" stroke="midnightblue" points="228.079,-124.032 225.775,-134.374 234.025,-127.726 228.079,-124.032"/>
</g>
</g>
</svg>
