<?xml version="1.0" encoding="UTF-8" standalone="no"?>
<!DOCTYPE svg PUBLIC "-//W3C//DTD SVG 1.1//EN"
 "http://www.w3.org/Graphics/SVG/1.1/DTD/svg11.dtd">
<!-- Generated by graphviz version 2.38.0 (20140413.2041)
 -->
<!-- Title: src/gromacs/pulling/pull.h Pages: 1 -->
<svg width="454pt" height="352pt"
 viewBox="0.00 0.00 454.00 352.00" xmlns="http://www.w3.org/2000/svg" xmlns:xlink="http://www.w3.org/1999/xlink">
<g id="graph0" class="graph" transform="scale(1 1) rotate(0) translate(4 348)">
<title>src/gromacs/pulling/pull.h</title>
<polygon fill="white" stroke="none" points="-4,4 -4,-348 450,-348 450,4 -4,4"/>
<!-- Node1 -->
<g id="node1" class="node"><title>Node1</title>
<polygon fill="#bfbfbf" stroke="black" points="81,-313.5 81,-343.5 182,-343.5 182,-313.5 81,-313.5"/>
<text text-anchor="start" x="89" y="-331.5" font-family="Helvetica,sans-Serif" font-size="10.00">src/gromacs/pulling</text>
<text text-anchor="middle" x="131.5" y="-320.5" font-family="Helvetica,sans-Serif" font-size="10.00">/pull.h</text>
</g>
<!-- Node2 -->
<g id="node2" class="node"><title>Node2</title>
<polygon fill="white" stroke="#bfbfbf" points="0,-252 0,-271 43,-271 43,-252 0,-252"/>
<text text-anchor="middle" x="21.5" y="-259" font-family="Helvetica,sans-Serif" font-size="10.00">cstdio</text>
</g>
<!-- Node1&#45;&gt;Node2 -->
<g id="edge1" class="edge"><title>Node1&#45;&gt;Node2</title>
<path fill="none" stroke="midnightblue" d="M107.632,-313.396C88.9287,-302.344 63.0643,-287.061 44.5694,-276.132"/>
<polygon fill="midnightblue" stroke="midnightblue" points="46.2863,-273.081 35.8965,-271.007 42.7252,-279.108 46.2863,-273.081"/>
</g>
<!-- Node3 -->
<g id="node3" class="node"><title>Node3</title>
<g id="a_node3"><a xlink:href="pull-params_8h.xhtml" target="_top" xlink:title="This file contains datatypes for the mdp options used by the pull code. ">
<polygon fill="white" stroke="black" points="160,-179.5 160,-209.5 273,-209.5 273,-179.5 160,-179.5"/>
<text text-anchor="start" x="168" y="-197.5" font-family="Helvetica,sans-Serif" font-size="10.00">gromacs/mdtypes/pull</text>
<text text-anchor="middle" x="216.5" y="-186.5" font-family="Helvetica,sans-Serif" font-size="10.00">&#45;params.h</text>
</a>
</g>
</g>
<!-- Node1&#45;&gt;Node3 -->
<g id="edge2" class="edge"><title>Node1&#45;&gt;Node3</title>
<path fill="none" stroke="midnightblue" d="M140.596,-313.374C155.295,-290.548 184.394,-245.359 201.983,-218.045"/>
<polygon fill="midnightblue" stroke="midnightblue" points="204.998,-219.827 207.469,-209.525 199.112,-216.037 204.998,-219.827"/>
</g>
<!-- Node5 -->
<g id="node5" class="node"><title>Node5</title>
<g id="a_node5"><a xlink:href="basedefinitions_8h.xhtml" target="_top" xlink:title="Basic types and macros used throughout GROMACS. ">
<polygon fill="white" stroke="black" points="202,-56.5 202,-75.5 359,-75.5 359,-56.5 202,-56.5"/>
<text text-anchor="middle" x="280.5" y="-63.5" font-family="Helvetica,sans-Serif" font-size="10.00">gromacs/utility/basedefinitions.h</text>
</a>
</g>
</g>
<!-- Node1&#45;&gt;Node5 -->
<g id="edge14" class="edge"><title>Node1&#45;&gt;Node5</title>
<path fill="none" stroke="midnightblue" d="M122.022,-313.363C98.3123,-276.074 41.7174,-173.686 90.5,-112 103.741,-95.2569 149.937,-84.0966 193.46,-77.0784"/>
<polygon fill="midnightblue" stroke="midnightblue" points="194.218,-80.5027 203.565,-75.513 193.147,-73.5852 194.218,-80.5027"/>
</g>
<!-- Node8 -->
<g id="node8" class="node"><title>Node8</title>
<g id="a_node8"><a xlink:href="real_8h.xhtml" target="_top" xlink:title="Declares real and related constants. ">
<polygon fill="white" stroke="black" points="100,-118 100,-137 207,-137 207,-118 100,-118"/>
<text text-anchor="middle" x="153.5" y="-125" font-family="Helvetica,sans-Serif" font-size="10.00">gromacs/utility/real.h</text>
</a>
</g>
</g>
<!-- Node1&#45;&gt;Node8 -->
<g id="edge15" class="edge"><title>Node1&#45;&gt;Node8</title>
<path fill="none" stroke="midnightblue" d="M133.082,-313.188C136.974,-277.986 147.014,-187.172 151.399,-147.508"/>
<polygon fill="midnightblue" stroke="midnightblue" points="154.9,-147.684 152.52,-137.36 147.943,-146.915 154.9,-147.684"/>
</g>
<!-- Node9 -->
<g id="node9" class="node"><title>Node9</title>
<g id="a_node9"><a xlink:href="pull__internal_8h.xhtml" target="_top" xlink:title="This file contains datatypes and function declarations for internal use in the pull code...">
<polygon fill="white" stroke="black" points="273,-246.5 273,-276.5 376,-276.5 376,-246.5 273,-246.5"/>
<text text-anchor="start" x="281" y="-264.5" font-family="Helvetica,sans-Serif" font-size="10.00">gromacs/pulling/pull</text>
<text text-anchor="middle" x="324.5" y="-253.5" font-family="Helvetica,sans-Serif" font-size="10.00">_internal.h</text>
</a>
</g>
</g>
<!-- Node1&#45;&gt;Node9 -->
<g id="edge9" class="edge"><title>Node1&#45;&gt;Node9</title>
<path fill="none" stroke="midnightblue" d="M173.378,-313.396C202.589,-303.558 241.757,-290.367 272.898,-279.879"/>
<polygon fill="midnightblue" stroke="midnightblue" points="274.344,-283.085 282.704,-276.577 272.11,-276.451 274.344,-283.085"/>
</g>
<!-- Node4 -->
<g id="node4" class="node"><title>Node4</title>
<g id="a_node4"><a xlink:href="md__enums_8h.xhtml" target="_top" xlink:title="Declares enumerated types used throughout the code. ">
<polygon fill="white" stroke="black" points="225,-112.5 225,-142.5 336,-142.5 336,-112.5 225,-112.5"/>
<text text-anchor="start" x="233" y="-130.5" font-family="Helvetica,sans-Serif" font-size="10.00">gromacs/mdtypes/md</text>
<text text-anchor="middle" x="280.5" y="-119.5" font-family="Helvetica,sans-Serif" font-size="10.00">_enums.h</text>
</a>
</g>
</g>
<!-- Node3&#45;&gt;Node4 -->
<g id="edge3" class="edge"><title>Node3&#45;&gt;Node4</title>
<path fill="none" stroke="midnightblue" d="M230.387,-179.396C238.858,-170.793 249.853,-159.626 259.385,-149.945"/>
<polygon fill="midnightblue" stroke="midnightblue" points="262.118,-152.158 266.64,-142.577 257.13,-147.247 262.118,-152.158"/>
</g>
<!-- Node3&#45;&gt;Node5 -->
<g id="edge7" class="edge"><title>Node3&#45;&gt;Node5</title>
<path fill="none" stroke="midnightblue" d="M268.484,-179.467C299.807,-169.843 335.361,-156.43 344.5,-143 352.251,-131.609 350.85,-124.227 344.5,-112 337.347,-98.2262 323.829,-87.783 311.053,-80.4413"/>
<polygon fill="midnightblue" stroke="midnightblue" points="312.458,-77.2252 301.983,-75.6403 309.183,-83.412 312.458,-77.2252"/>
</g>
<!-- Node3&#45;&gt;Node8 -->
<g id="edge8" class="edge"><title>Node3&#45;&gt;Node8</title>
<path fill="none" stroke="midnightblue" d="M202.83,-179.396C192.91,-169.161 179.471,-155.296 169.126,-144.622"/>
<polygon fill="midnightblue" stroke="midnightblue" points="171.4,-141.939 161.927,-137.195 166.374,-146.811 171.4,-141.939"/>
</g>
<!-- Node4&#45;&gt;Node5 -->
<g id="edge4" class="edge"><title>Node4&#45;&gt;Node5</title>
<path fill="none" stroke="midnightblue" d="M280.5,-112.399C280.5,-104.466 280.5,-94.458 280.5,-85.8583"/>
<polygon fill="midnightblue" stroke="midnightblue" points="284,-85.6577 280.5,-75.6578 277,-85.6578 284,-85.6577"/>
</g>
<!-- Node6 -->
<g id="node6" class="node"><title>Node6</title>
<polygon fill="white" stroke="#bfbfbf" points="220,-0.5 220,-19.5 269,-19.5 269,-0.5 220,-0.5"/>
<text text-anchor="middle" x="244.5" y="-7.5" font-family="Helvetica,sans-Serif" font-size="10.00">stdint.h</text>
</g>
<!-- Node5&#45;&gt;Node6 -->
<g id="edge5" class="edge"><title>Node5&#45;&gt;Node6</title>
<path fill="none" stroke="midnightblue" d="M274.555,-56.083C269.523,-48.5341 262.163,-37.4948 255.987,-28.2298"/>
<polygon fill="midnightblue" stroke="midnightblue" points="258.793,-26.1301 250.334,-19.7511 252.969,-30.0131 258.793,-26.1301"/>
</g>
<!-- Node7 -->
<g id="node7" class="node"><title>Node7</title>
<polygon fill="white" stroke="#bfbfbf" points="287,-0.5 287,-19.5 346,-19.5 346,-0.5 287,-0.5"/>
<text text-anchor="middle" x="316.5" y="-7.5" font-family="Helvetica,sans-Serif" font-size="10.00">inttypes.h</text>
</g>
<!-- Node5&#45;&gt;Node7 -->
<g id="edge6" class="edge"><title>Node5&#45;&gt;Node7</title>
<path fill="none" stroke="midnightblue" d="M286.445,-56.083C291.477,-48.5341 298.837,-37.4948 305.013,-28.2298"/>
<polygon fill="midnightblue" stroke="midnightblue" points="308.031,-30.0131 310.666,-19.7511 302.207,-26.1301 308.031,-30.0131"/>
</g>
<!-- Node9&#45;&gt;Node3 -->
<g id="edge11" class="edge"><title>Node9&#45;&gt;Node3</title>
<path fill="none" stroke="midnightblue" d="M301.066,-246.396C285.781,-237.197 265.625,-225.066 248.825,-214.955"/>
<polygon fill="midnightblue" stroke="midnightblue" points="250.261,-211.734 239.889,-209.577 246.652,-217.732 250.261,-211.734"/>
</g>
<!-- Node10 -->
<g id="node10" class="node"><title>Node10</title>
<polygon fill="white" stroke="#bfbfbf" points="395,-118 395,-137 446,-137 446,-118 395,-118"/>
<text text-anchor="middle" x="420.5" y="-125" font-family="Helvetica,sans-Serif" font-size="10.00">config.h</text>
</g>
<!-- Node9&#45;&gt;Node10 -->
<g id="edge10" class="edge"><title>Node9&#45;&gt;Node10</title>
<path fill="none" stroke="midnightblue" d="M376.071,-247.56C395.333,-239.952 415.245,-228.131 426.5,-210 438.335,-190.934 433.255,-164.316 427.644,-146.756"/>
<polygon fill="midnightblue" stroke="midnightblue" points="430.874,-145.393 424.228,-137.142 424.278,-147.736 430.874,-145.393"/>
</g>
<!-- Node11 -->
<g id="node11" class="node"><title>Node11</title>
<g id="a_node11"><a xlink:href="gmxmpi_8h.xhtml" target="_top" xlink:title="Wraps &lt;mpi.h&gt; usage in Gromacs. ">
<polygon fill="white" stroke="black" points="291.5,-185 291.5,-204 417.5,-204 417.5,-185 291.5,-185"/>
<text text-anchor="middle" x="354.5" y="-192" font-family="Helvetica,sans-Serif" font-size="10.00">gromacs/utility/gmxmpi.h</text>
</a>
</g>
</g>
<!-- Node9&#45;&gt;Node11 -->
<g id="edge12" class="edge"><title>Node9&#45;&gt;Node11</title>
<path fill="none" stroke="midnightblue" d="M331.01,-246.396C335.456,-236.763 341.386,-223.914 346.175,-213.537"/>
<polygon fill="midnightblue" stroke="midnightblue" points="349.474,-214.741 350.487,-204.195 343.119,-211.807 349.474,-214.741"/>
</g>
<!-- Node11&#45;&gt;Node10 -->
<g id="edge13" class="edge"><title>Node11&#45;&gt;Node10</title>
<path fill="none" stroke="midnightblue" d="M363.401,-184.734C373.891,-174.403 391.524,-157.037 404.425,-144.332"/>
<polygon fill="midnightblue" stroke="midnightblue" points="407.071,-146.638 411.74,-137.127 402.159,-141.651 407.071,-146.638"/>
</g>
</g>
</svg>
