<?xml version="1.0" encoding="UTF-8" standalone="no"?>
<!DOCTYPE svg PUBLIC "-//W3C//DTD SVG 1.1//EN"
 "http://www.w3.org/Graphics/SVG/1.1/DTD/svg11.dtd">
<!-- Generated by graphviz version 2.38.0 (20140413.2041)
 -->
<!-- Title: src/programs/mdrun/tests/rerun.cpp Pages: 1 -->
<svg width="995pt" height="386pt"
 viewBox="0.00 0.00 994.50 386.00" xmlns="http://www.w3.org/2000/svg" xmlns:xlink="http://www.w3.org/1999/xlink">
<g id="graph0" class="graph" transform="scale(1 1) rotate(0) translate(4 382)">
<title>src/programs/mdrun/tests/rerun.cpp</title>
<polygon fill="white" stroke="none" points="-4,4 -4,-382 990.5,-382 990.5,4 -4,4"/>
<!-- Node1 -->
<g id="node1" class="node"><title>Node1</title>
<polygon fill="#bfbfbf" stroke="black" points="629,-347.5 629,-377.5 733,-377.5 733,-347.5 629,-347.5"/>
<text text-anchor="start" x="637" y="-365.5" font-family="Helvetica,sans-Serif" font-size="10.00">src/programs/mdrun</text>
<text text-anchor="middle" x="681" y="-354.5" font-family="Helvetica,sans-Serif" font-size="10.00">/tests/rerun.cpp</text>
</g>
<!-- Node2 -->
<g id="node2" class="node"><title>Node2</title>
<g id="a_node2"><a xlink:href="gmxpre_8h.xhtml" target="_top" xlink:title="Prerequisite header file for GROMACS build. ">
<polygon fill="white" stroke="black" points="507.5,-291.5 507.5,-310.5 564.5,-310.5 564.5,-291.5 507.5,-291.5"/>
<text text-anchor="middle" x="536" y="-298.5" font-family="Helvetica,sans-Serif" font-size="10.00">gmxpre.h</text>
</a>
</g>
</g>
<!-- Node1&#45;&gt;Node2 -->
<g id="edge1" class="edge"><title>Node1&#45;&gt;Node2</title>
<path fill="none" stroke="midnightblue" d="M646.637,-347.399C622.309,-337.416 589.971,-324.147 566.544,-314.534"/>
<polygon fill="midnightblue" stroke="midnightblue" points="567.679,-311.216 557.099,-310.658 565.021,-317.692 567.679,-311.216"/>
</g>
<!-- Node3 -->
<g id="node3" class="node"><title>Node3</title>
<polygon fill="white" stroke="#bfbfbf" points="582.5,-291.5 582.5,-310.5 633.5,-310.5 633.5,-291.5 582.5,-291.5"/>
<text text-anchor="middle" x="608" y="-298.5" font-family="Helvetica,sans-Serif" font-size="10.00">config.h</text>
</g>
<!-- Node1&#45;&gt;Node3 -->
<g id="edge2" class="edge"><title>Node1&#45;&gt;Node3</title>
<path fill="none" stroke="midnightblue" d="M663.7,-347.399C652.545,-338.308 638.046,-326.49 626.638,-317.191"/>
<polygon fill="midnightblue" stroke="midnightblue" points="628.585,-314.263 618.622,-310.658 624.162,-319.689 628.585,-314.263"/>
</g>
<!-- Node4 -->
<g id="node4" class="node"><title>Node4</title>
<polygon fill="white" stroke="#bfbfbf" points="915.5,-179.5 915.5,-198.5 986.5,-198.5 986.5,-179.5 915.5,-179.5"/>
<text text-anchor="middle" x="951" y="-186.5" font-family="Helvetica,sans-Serif" font-size="10.00">gtest/gtest.h</text>
</g>
<!-- Node1&#45;&gt;Node4 -->
<g id="edge3" class="edge"><title>Node1&#45;&gt;Node4</title>
<path fill="none" stroke="midnightblue" d="M733.025,-351.166C767.018,-343.134 811.675,-330.105 848,-311 883.262,-292.454 892.858,-285.907 918,-255 929.583,-240.762 938.633,-221.794 944.303,-208.026"/>
<polygon fill="midnightblue" stroke="midnightblue" points="947.577,-209.262 947.966,-198.675 941.06,-206.709 947.577,-209.262"/>
</g>
<!-- Node5 -->
<g id="node5" class="node"><title>Node5</title>
<g id="a_node5"><a xlink:href="filenameoption_8h.xhtml" target="_top" xlink:title="Declares gmx::FileNameOption and gmx::FileNameOptionInfo. ">
<polygon fill="white" stroke="black" points="356.5,-235.5 356.5,-254.5 519.5,-254.5 519.5,-235.5 356.5,-235.5"/>
<text text-anchor="middle" x="438" y="-242.5" font-family="Helvetica,sans-Serif" font-size="10.00">gromacs/options/filenameoption.h</text>
</a>
</g>
</g>
<!-- Node1&#45;&gt;Node5 -->
<g id="edge4" class="edge"><title>Node1&#45;&gt;Node5</title>
<path fill="none" stroke="midnightblue" d="M677.018,-347.219C671.742,-331.027 660.83,-305.058 642,-291 609.853,-267 567.399,-255.338 529.548,-249.834"/>
<polygon fill="midnightblue" stroke="midnightblue" points="529.896,-246.349 519.522,-248.501 528.973,-253.288 529.896,-246.349"/>
</g>
<!-- Node14 -->
<g id="node14" class="node"><title>Node14</title>
<g id="a_node14"><a xlink:href="cmdlinetest_8h.xhtml" target="_top" xlink:title="Declares utilities testing command&#45;line programs. ">
<polygon fill="white" stroke="black" points="624.5,-235.5 624.5,-254.5 737.5,-254.5 737.5,-235.5 624.5,-235.5"/>
<text text-anchor="middle" x="681" y="-242.5" font-family="Helvetica,sans-Serif" font-size="10.00">testutils/cmdlinetest.h</text>
</a>
</g>
</g>
<!-- Node1&#45;&gt;Node14 -->
<g id="edge15" class="edge"><title>Node1&#45;&gt;Node14</title>
<path fill="none" stroke="midnightblue" d="M681,-347.337C681,-326.622 681,-288.016 681,-264.899"/>
<polygon fill="midnightblue" stroke="midnightblue" points="684.5,-264.669 681,-254.669 677.5,-264.669 684.5,-264.669"/>
</g>
<!-- Node26 -->
<g id="node26" class="node"><title>Node26</title>
<g id="a_node26"><a xlink:href="programs_2mdrun_2tests_2moduletest_8h.xhtml" target="_top" xlink:title="Declares test fixtures for general mdrun functionality. ">
<polygon fill="white" stroke="black" points="765.5,-291.5 765.5,-310.5 838.5,-310.5 838.5,-291.5 765.5,-291.5"/>
<text text-anchor="middle" x="802" y="-298.5" font-family="Helvetica,sans-Serif" font-size="10.00">moduletest.h</text>
</a>
</g>
</g>
<!-- Node1&#45;&gt;Node26 -->
<g id="edge32" class="edge"><title>Node1&#45;&gt;Node26</title>
<path fill="none" stroke="midnightblue" d="M709.675,-347.399C729.524,-337.639 755.761,-324.737 775.192,-315.183"/>
<polygon fill="midnightblue" stroke="midnightblue" points="776.964,-318.211 784.393,-310.658 773.875,-311.93 776.964,-318.211"/>
</g>
<!-- Node6 -->
<g id="node6" class="node"><title>Node6</title>
<polygon fill="white" stroke="#bfbfbf" points="653.5,-123.5 653.5,-142.5 694.5,-142.5 694.5,-123.5 653.5,-123.5"/>
<text text-anchor="middle" x="674" y="-130.5" font-family="Helvetica,sans-Serif" font-size="10.00">string</text>
</g>
<!-- Node5&#45;&gt;Node6 -->
<g id="edge5" class="edge"><title>Node5&#45;&gt;Node6</title>
<path fill="none" stroke="midnightblue" d="M456.519,-235.368C497.792,-216.131 597.519,-169.648 646.256,-146.931"/>
<polygon fill="midnightblue" stroke="midnightblue" points="647.982,-149.988 655.568,-142.591 645.025,-143.644 647.982,-149.988"/>
</g>
<!-- Node7 -->
<g id="node7" class="node"><title>Node7</title>
<polygon fill="white" stroke="#bfbfbf" points="81,-123.5 81,-142.5 125,-142.5 125,-123.5 81,-123.5"/>
<text text-anchor="middle" x="103" y="-130.5" font-family="Helvetica,sans-Serif" font-size="10.00">vector</text>
</g>
<!-- Node5&#45;&gt;Node7 -->
<g id="edge6" class="edge"><title>Node5&#45;&gt;Node7</title>
<path fill="none" stroke="midnightblue" d="M356.35,-235.872C310.65,-229.456 253.321,-218.248 205,-199 188.234,-192.321 147.997,-165.307 123.367,-148.276"/>
<polygon fill="midnightblue" stroke="midnightblue" points="125.28,-145.344 115.071,-142.51 121.285,-151.091 125.28,-145.344"/>
</g>
<!-- Node8 -->
<g id="node8" class="node"><title>Node8</title>
<g id="a_node8"><a xlink:href="abstractoption_8h.xhtml" target="_top" xlink:title="Defines gmx::AbstractOption, gmx::OptionTemplate and gmx::OptionInfo. ">
<polygon fill="white" stroke="black" points="357.5,-179.5 357.5,-198.5 518.5,-198.5 518.5,-179.5 357.5,-179.5"/>
<text text-anchor="middle" x="438" y="-186.5" font-family="Helvetica,sans-Serif" font-size="10.00">gromacs/options/abstractoption.h</text>
</a>
</g>
</g>
<!-- Node5&#45;&gt;Node8 -->
<g id="edge7" class="edge"><title>Node5&#45;&gt;Node8</title>
<path fill="none" stroke="midnightblue" d="M438,-235.083C438,-228.006 438,-217.861 438,-208.986"/>
<polygon fill="midnightblue" stroke="midnightblue" points="441.5,-208.751 438,-198.751 434.5,-208.751 441.5,-208.751"/>
</g>
<!-- Node13 -->
<g id="node13" class="node"><title>Node13</title>
<g id="a_node13"><a xlink:href="optionfiletype_8h.xhtml" target="_top" xlink:title="Defines an enumeration type for specifying file types for options. ">
<polygon fill="white" stroke="black" points="0,-179.5 0,-198.5 158,-198.5 158,-179.5 0,-179.5"/>
<text text-anchor="middle" x="79" y="-186.5" font-family="Helvetica,sans-Serif" font-size="10.00">gromacs/options/optionfiletype.h</text>
</a>
</g>
</g>
<!-- Node5&#45;&gt;Node13 -->
<g id="edge14" class="edge"><title>Node5&#45;&gt;Node13</title>
<path fill="none" stroke="midnightblue" d="M381.115,-235.444C317.176,-225.826 213.476,-210.228 145.753,-200.041"/>
<polygon fill="midnightblue" stroke="midnightblue" points="146.028,-196.543 135.618,-198.516 144.987,-203.465 146.028,-196.543"/>
</g>
<!-- Node8&#45;&gt;Node6 -->
<g id="edge8" class="edge"><title>Node8&#45;&gt;Node6</title>
<path fill="none" stroke="midnightblue" d="M481.632,-179.477C521.361,-171.49 581.831,-158.775 643.497,-142.968"/>
<polygon fill="midnightblue" stroke="midnightblue" points="644.597,-146.299 653.401,-140.405 642.843,-139.522 644.597,-146.299"/>
</g>
<!-- Node8&#45;&gt;Node7 -->
<g id="edge9" class="edge"><title>Node8&#45;&gt;Node7</title>
<path fill="none" stroke="midnightblue" d="M360.639,-179.487C301.298,-172.28 217.241,-160.613 135.246,-143.028"/>
<polygon fill="midnightblue" stroke="midnightblue" points="135.774,-139.561 125.258,-140.854 134.285,-146.401 135.774,-139.561"/>
</g>
<!-- Node9 -->
<g id="node9" class="node"><title>Node9</title>
<g id="a_node9"><a xlink:href="optionflags_8h.xhtml" target="_top" xlink:title="Defines flags used in option implementation. ">
<polygon fill="white" stroke="black" points="201.5,-123.5 201.5,-142.5 348.5,-142.5 348.5,-123.5 201.5,-123.5"/>
<text text-anchor="middle" x="275" y="-130.5" font-family="Helvetica,sans-Serif" font-size="10.00">gromacs/options/optionflags.h</text>
</a>
</g>
</g>
<!-- Node8&#45;&gt;Node9 -->
<g id="edge10" class="edge"><title>Node8&#45;&gt;Node9</title>
<path fill="none" stroke="midnightblue" d="M412.172,-179.444C384.751,-170.359 341.223,-155.939 310.568,-145.783"/>
<polygon fill="midnightblue" stroke="midnightblue" points="311.3,-142.339 300.707,-142.516 309.099,-148.984 311.3,-142.339"/>
</g>
<!-- Node11 -->
<g id="node11" class="node"><title>Node11</title>
<g id="a_node11"><a xlink:href="classhelpers_8h.xhtml" target="_top" xlink:title="Declares common utility classes and macros. ">
<polygon fill="white" stroke="black" points="713,-123.5 713,-142.5 859,-142.5 859,-123.5 713,-123.5"/>
<text text-anchor="middle" x="786" y="-130.5" font-family="Helvetica,sans-Serif" font-size="10.00">gromacs/utility/classhelpers.h</text>
</a>
</g>
</g>
<!-- Node8&#45;&gt;Node11 -->
<g id="edge12" class="edge"><title>Node8&#45;&gt;Node11</title>
<path fill="none" stroke="midnightblue" d="M493.142,-179.444C554.995,-169.846 655.232,-154.292 720.887,-144.104"/>
<polygon fill="midnightblue" stroke="midnightblue" points="721.771,-147.508 731.116,-142.516 720.698,-140.591 721.771,-147.508"/>
</g>
<!-- Node10 -->
<g id="node10" class="node"><title>Node10</title>
<g id="a_node10"><a xlink:href="flags_8h.xhtml" target="_top" xlink:title="Declares gmx::FlagsTemplate. ">
<polygon fill="white" stroke="black" points="218.5,-62 218.5,-81 331.5,-81 331.5,-62 218.5,-62"/>
<text text-anchor="middle" x="275" y="-69" font-family="Helvetica,sans-Serif" font-size="10.00">gromacs/utility/flags.h</text>
</a>
</g>
</g>
<!-- Node9&#45;&gt;Node10 -->
<g id="edge11" class="edge"><title>Node9&#45;&gt;Node10</title>
<path fill="none" stroke="midnightblue" d="M275,-123.475C275,-115.08 275,-101.981 275,-91.1631"/>
<polygon fill="midnightblue" stroke="midnightblue" points="278.5,-91.0091 275,-81.0091 271.5,-91.0091 278.5,-91.0091"/>
</g>
<!-- Node12 -->
<g id="node12" class="node"><title>Node12</title>
<polygon fill="white" stroke="#bfbfbf" points="810,-62 810,-81 862,-81 862,-62 810,-62"/>
<text text-anchor="middle" x="836" y="-69" font-family="Helvetica,sans-Serif" font-size="10.00">memory</text>
</g>
<!-- Node11&#45;&gt;Node12 -->
<g id="edge13" class="edge"><title>Node11&#45;&gt;Node12</title>
<path fill="none" stroke="midnightblue" d="M793.164,-123.475C800.738,-114.462 812.87,-100.025 822.293,-88.8118"/>
<polygon fill="midnightblue" stroke="midnightblue" points="825.096,-90.9166 828.85,-81.0091 819.737,-86.4132 825.096,-90.9166"/>
</g>
<!-- Node14&#45;&gt;Node4 -->
<g id="edge19" class="edge"><title>Node14&#45;&gt;Node4</title>
<path fill="none" stroke="midnightblue" d="M723.782,-235.444C773.306,-225.539 854.546,-209.291 905.284,-199.143"/>
<polygon fill="midnightblue" stroke="midnightblue" points="906.197,-202.53 915.316,-197.137 904.824,-195.666 906.197,-202.53"/>
</g>
<!-- Node14&#45;&gt;Node6 -->
<g id="edge18" class="edge"><title>Node14&#45;&gt;Node6</title>
<path fill="none" stroke="midnightblue" d="M652.628,-235.495C635.248,-228.653 614.404,-217.13 604,-199 591.248,-176.778 619.381,-157.704 643.696,-146.073"/>
<polygon fill="midnightblue" stroke="midnightblue" points="645.396,-149.146 653.073,-141.844 642.518,-142.764 645.396,-149.146"/>
</g>
<!-- Node14&#45;&gt;Node11 -->
<g id="edge31" class="edge"><title>Node14&#45;&gt;Node11</title>
<path fill="none" stroke="midnightblue" d="M684.937,-235.234C691.194,-221.973 704.413,-196.505 721,-179 732.622,-166.734 748.1,-155.858 761.036,-147.872"/>
<polygon fill="midnightblue" stroke="midnightblue" points="763.11,-150.71 769.915,-142.589 759.531,-144.694 763.11,-150.71"/>
</g>
<!-- Node14&#45;&gt;Node12 -->
<g id="edge17" class="edge"><title>Node14&#45;&gt;Node12</title>
<path fill="none" stroke="midnightblue" d="M729.961,-235.436C782.423,-225.764 859.372,-209.951 868,-199 888.905,-172.468 877.413,-155.44 868,-123 864.405,-110.611 856.759,-98.3494 849.842,-89.0109"/>
<polygon fill="midnightblue" stroke="midnightblue" points="852.517,-86.7504 843.59,-81.0445 847.011,-91.072 852.517,-86.7504"/>
</g>
<!-- Node15 -->
<g id="node15" class="node"><title>Node15</title>
<polygon fill="white" stroke="#bfbfbf" points="613.5,-179.5 613.5,-198.5 672.5,-198.5 672.5,-179.5 613.5,-179.5"/>
<text text-anchor="middle" x="643" y="-186.5" font-family="Helvetica,sans-Serif" font-size="10.00">functional</text>
</g>
<!-- Node14&#45;&gt;Node15 -->
<g id="edge16" class="edge"><title>Node14&#45;&gt;Node15</title>
<path fill="none" stroke="midnightblue" d="M674.725,-235.083C669.358,-227.455 661.482,-216.264 654.921,-206.941"/>
<polygon fill="midnightblue" stroke="midnightblue" points="657.775,-204.915 649.158,-198.751 652.051,-208.943 657.775,-204.915"/>
</g>
<!-- Node16 -->
<g id="node16" class="node"><title>Node16</title>
<g id="a_node16"><a xlink:href="arrayref_8h.xhtml" target="_top" xlink:title="Declares gmx::ArrayRef and gmx::ConstArrayRef. ">
<polygon fill="white" stroke="black" points="214.5,-179.5 214.5,-198.5 339.5,-198.5 339.5,-179.5 214.5,-179.5"/>
<text text-anchor="middle" x="277" y="-186.5" font-family="Helvetica,sans-Serif" font-size="10.00">gromacs/utility/arrayref.h</text>
</a>
</g>
</g>
<!-- Node14&#45;&gt;Node16 -->
<g id="edge20" class="edge"><title>Node14&#45;&gt;Node16</title>
<path fill="none" stroke="midnightblue" d="M624.4,-236.435C552.595,-226.837 428.645,-210.269 349.849,-199.737"/>
<polygon fill="midnightblue" stroke="midnightblue" points="349.893,-196.212 339.517,-198.356 348.965,-203.15 349.893,-196.212"/>
</g>
<!-- Node16&#45;&gt;Node7 -->
<g id="edge25" class="edge"><title>Node16&#45;&gt;Node7</title>
<path fill="none" stroke="midnightblue" d="M249.429,-179.444C218.253,-169.768 167.572,-154.04 134.764,-143.858"/>
<polygon fill="midnightblue" stroke="midnightblue" points="135.785,-140.51 125.197,-140.889 133.71,-147.195 135.785,-140.51"/>
</g>
<!-- Node17 -->
<g id="node17" class="node"><title>Node17</title>
<polygon fill="white" stroke="#bfbfbf" points="521.5,-123.5 521.5,-142.5 570.5,-142.5 570.5,-123.5 521.5,-123.5"/>
<text text-anchor="middle" x="546" y="-130.5" font-family="Helvetica,sans-Serif" font-size="10.00">cstddef</text>
</g>
<!-- Node16&#45;&gt;Node17 -->
<g id="edge21" class="edge"><title>Node16&#45;&gt;Node17</title>
<path fill="none" stroke="midnightblue" d="M327.179,-179.435C372.759,-171.419 442.044,-158.651 511.385,-143.012"/>
<polygon fill="midnightblue" stroke="midnightblue" points="512.193,-146.418 521.167,-140.787 510.64,-139.593 512.193,-146.418"/>
</g>
<!-- Node18 -->
<g id="node18" class="node"><title>Node18</title>
<polygon fill="white" stroke="#bfbfbf" points="588.5,-123.5 588.5,-142.5 635.5,-142.5 635.5,-123.5 588.5,-123.5"/>
<text text-anchor="middle" x="612" y="-130.5" font-family="Helvetica,sans-Serif" font-size="10.00">iterator</text>
</g>
<!-- Node16&#45;&gt;Node18 -->
<g id="edge22" class="edge"><title>Node16&#45;&gt;Node18</title>
<path fill="none" stroke="midnightblue" d="M339.776,-179.538C410.073,-169.915 520.659,-154.299 578.186,-142.904"/>
<polygon fill="midnightblue" stroke="midnightblue" points="579.198,-146.269 588.289,-140.827 577.789,-139.412 579.198,-146.269"/>
</g>
<!-- Node19 -->
<g id="node19" class="node"><title>Node19</title>
<polygon fill="white" stroke="#bfbfbf" points="3.5,-123.5 3.5,-142.5 62.5,-142.5 62.5,-123.5 3.5,-123.5"/>
<text text-anchor="middle" x="33" y="-130.5" font-family="Helvetica,sans-Serif" font-size="10.00">stdexcept</text>
</g>
<!-- Node16&#45;&gt;Node19 -->
<g id="edge23" class="edge"><title>Node16&#45;&gt;Node19</title>
<path fill="none" stroke="midnightblue" d="M237.672,-179.498C198.4,-170.979 136.05,-157.375 72.583,-143.113"/>
<polygon fill="midnightblue" stroke="midnightblue" points="73.3275,-139.693 62.803,-140.912 71.7905,-146.522 73.3275,-139.693"/>
</g>
<!-- Node20 -->
<g id="node20" class="node"><title>Node20</title>
<polygon fill="white" stroke="#bfbfbf" points="143,-123.5 143,-142.5 183,-142.5 183,-123.5 143,-123.5"/>
<text text-anchor="middle" x="163" y="-130.5" font-family="Helvetica,sans-Serif" font-size="10.00">utility</text>
</g>
<!-- Node16&#45;&gt;Node20 -->
<g id="edge24" class="edge"><title>Node16&#45;&gt;Node20</title>
<path fill="none" stroke="midnightblue" d="M258.936,-179.444C240.425,-170.675 211.419,-156.935 190.145,-146.858"/>
<polygon fill="midnightblue" stroke="midnightblue" points="191.515,-143.634 180.979,-142.516 188.518,-149.96 191.515,-143.634"/>
</g>
<!-- Node21 -->
<g id="node21" class="node"><title>Node21</title>
<g id="a_node21"><a xlink:href="gmxassert_8h.xhtml" target="_top" xlink:title="Defines assert macros customized for Gromacs. ">
<polygon fill="white" stroke="black" points="366.5,-123.5 366.5,-142.5 503.5,-142.5 503.5,-123.5 366.5,-123.5"/>
<text text-anchor="middle" x="435" y="-130.5" font-family="Helvetica,sans-Serif" font-size="10.00">gromacs/utility/gmxassert.h</text>
</a>
</g>
</g>
<!-- Node16&#45;&gt;Node21 -->
<g id="edge26" class="edge"><title>Node16&#45;&gt;Node21</title>
<path fill="none" stroke="midnightblue" d="M302.036,-179.444C328.616,-170.359 370.809,-155.939 400.523,-145.783"/>
<polygon fill="midnightblue" stroke="midnightblue" points="401.751,-149.062 410.082,-142.516 399.487,-142.439 401.751,-149.062"/>
</g>
<!-- Node22 -->
<g id="node22" class="node"><title>Node22</title>
<g id="a_node22"><a xlink:href="basedefinitions_8h.xhtml" target="_top" xlink:title="Basic types and macros used throughout GROMACS. ">
<polygon fill="white" stroke="black" points="495.5,-62 495.5,-81 652.5,-81 652.5,-62 495.5,-62"/>
<text text-anchor="middle" x="574" y="-69" font-family="Helvetica,sans-Serif" font-size="10.00">gromacs/utility/basedefinitions.h</text>
</a>
</g>
</g>
<!-- Node21&#45;&gt;Node22 -->
<g id="edge27" class="edge"><title>Node21&#45;&gt;Node22</title>
<path fill="none" stroke="midnightblue" d="M454.915,-123.475C478.449,-113.401 517.81,-96.5525 544.793,-85.0023"/>
<polygon fill="midnightblue" stroke="midnightblue" points="546.306,-88.162 554.122,-81.0091 543.551,-81.7267 546.306,-88.162"/>
</g>
<!-- Node25 -->
<g id="node25" class="node"><title>Node25</title>
<g id="a_node25"><a xlink:href="current__function_8h.xhtml" target="_top" xlink:title="Declares GMX_CURRENT_FUNCTION for getting the current function name. ">
<polygon fill="white" stroke="black" points="364.5,-56.5 364.5,-86.5 477.5,-86.5 477.5,-56.5 364.5,-56.5"/>
<text text-anchor="start" x="372.5" y="-74.5" font-family="Helvetica,sans-Serif" font-size="10.00">gromacs/utility/current</text>
<text text-anchor="middle" x="421" y="-63.5" font-family="Helvetica,sans-Serif" font-size="10.00">_function.h</text>
</a>
</g>
</g>
<!-- Node21&#45;&gt;Node25 -->
<g id="edge30" class="edge"><title>Node21&#45;&gt;Node25</title>
<path fill="none" stroke="midnightblue" d="M432.994,-123.475C431.328,-116.396 428.875,-105.97 426.621,-96.3896"/>
<polygon fill="midnightblue" stroke="midnightblue" points="429.997,-95.4555 424.3,-86.523 423.183,-97.0588 429.997,-95.4555"/>
</g>
<!-- Node23 -->
<g id="node23" class="node"><title>Node23</title>
<polygon fill="white" stroke="#bfbfbf" points="513.5,-0.5 513.5,-19.5 562.5,-19.5 562.5,-0.5 513.5,-0.5"/>
<text text-anchor="middle" x="538" y="-7.5" font-family="Helvetica,sans-Serif" font-size="10.00">stdint.h</text>
</g>
<!-- Node22&#45;&gt;Node23 -->
<g id="edge28" class="edge"><title>Node22&#45;&gt;Node23</title>
<path fill="none" stroke="midnightblue" d="M568.842,-61.9751C563.549,-53.2268 555.165,-39.3691 548.473,-28.3093"/>
<polygon fill="midnightblue" stroke="midnightblue" points="551.32,-26.2531 543.148,-19.5091 545.33,-29.8768 551.32,-26.2531"/>
</g>
<!-- Node24 -->
<g id="node24" class="node"><title>Node24</title>
<polygon fill="white" stroke="#bfbfbf" points="580.5,-0.5 580.5,-19.5 639.5,-19.5 639.5,-0.5 580.5,-0.5"/>
<text text-anchor="middle" x="610" y="-7.5" font-family="Helvetica,sans-Serif" font-size="10.00">inttypes.h</text>
</g>
<!-- Node22&#45;&gt;Node24 -->
<g id="edge29" class="edge"><title>Node22&#45;&gt;Node24</title>
<path fill="none" stroke="midnightblue" d="M579.158,-61.9751C584.451,-53.2268 592.835,-39.3691 599.527,-28.3093"/>
<polygon fill="midnightblue" stroke="midnightblue" points="602.67,-29.8768 604.852,-19.5091 596.68,-26.2531 602.67,-29.8768"/>
</g>
<!-- Node26&#45;&gt;Node4 -->
<g id="edge33" class="edge"><title>Node26&#45;&gt;Node4</title>
<path fill="none" stroke="midnightblue" d="M825.752,-291.422C845.242,-283.698 872.956,-271.094 894,-255 911.995,-241.238 928.585,-221.108 939.171,-206.904"/>
<polygon fill="midnightblue" stroke="midnightblue" points="942.188,-208.705 945.216,-198.551 936.517,-204.601 942.188,-208.705"/>
</g>
<!-- Node26&#45;&gt;Node14 -->
<g id="edge34" class="edge"><title>Node26&#45;&gt;Node14</title>
<path fill="none" stroke="midnightblue" d="M782.827,-291.444C763.091,-282.636 732.115,-268.812 709.507,-258.722"/>
<polygon fill="midnightblue" stroke="midnightblue" points="710.641,-255.396 700.083,-254.516 707.789,-261.788 710.641,-255.396"/>
</g>
<!-- Node27 -->
<g id="node27" class="node"><title>Node27</title>
<g id="a_node27"><a xlink:href="integrationtests_8h.xhtml" target="_top" xlink:title="Declares test fixture for integration tests. ">
<polygon fill="white" stroke="black" points="755.5,-235.5 755.5,-254.5 884.5,-254.5 884.5,-235.5 755.5,-235.5"/>
<text text-anchor="middle" x="820" y="-242.5" font-family="Helvetica,sans-Serif" font-size="10.00">testutils/integrationtests.h</text>
</a>
</g>
</g>
<!-- Node26&#45;&gt;Node27 -->
<g id="edge35" class="edge"><title>Node26&#45;&gt;Node27</title>
<path fill="none" stroke="midnightblue" d="M804.972,-291.083C807.384,-283.849 810.864,-273.409 813.868,-264.397"/>
<polygon fill="midnightblue" stroke="midnightblue" points="817.241,-265.345 817.083,-254.751 810.6,-263.131 817.241,-265.345"/>
</g>
<!-- Node27&#45;&gt;Node4 -->
<g id="edge36" class="edge"><title>Node27&#45;&gt;Node4</title>
<path fill="none" stroke="midnightblue" d="M840.757,-235.444C862.316,-226.557 896.263,-212.563 920.794,-202.451"/>
<polygon fill="midnightblue" stroke="midnightblue" points="922.428,-205.563 930.34,-198.516 919.761,-199.092 922.428,-205.563"/>
</g>
<!-- Node28 -->
<g id="node28" class="node"><title>Node28</title>
<g id="a_node28"><a xlink:href="testfilemanager_8h.xhtml" target="_top" xlink:title="Declares gmx::test::TestFileManager. ">
<polygon fill="white" stroke="black" points="729.5,-179.5 729.5,-198.5 858.5,-198.5 858.5,-179.5 729.5,-179.5"/>
<text text-anchor="middle" x="794" y="-186.5" font-family="Helvetica,sans-Serif" font-size="10.00">testutils/testfilemanager.h</text>
</a>
</g>
</g>
<!-- Node27&#45;&gt;Node28 -->
<g id="edge37" class="edge"><title>Node27&#45;&gt;Node28</title>
<path fill="none" stroke="midnightblue" d="M815.707,-235.083C812.148,-227.691 806.978,-216.953 802.576,-207.811"/>
<polygon fill="midnightblue" stroke="midnightblue" points="805.705,-206.243 798.213,-198.751 799.398,-209.279 805.705,-206.243"/>
</g>
<!-- Node28&#45;&gt;Node6 -->
<g id="edge38" class="edge"><title>Node28&#45;&gt;Node6</title>
<path fill="none" stroke="midnightblue" d="M774.986,-179.444C755.412,-170.636 724.692,-156.812 702.271,-146.722"/>
<polygon fill="midnightblue" stroke="midnightblue" points="703.481,-143.428 692.925,-142.516 700.608,-149.812 703.481,-143.428"/>
</g>
<!-- Node28&#45;&gt;Node11 -->
<g id="edge39" class="edge"><title>Node28&#45;&gt;Node11</title>
<path fill="none" stroke="midnightblue" d="M792.679,-179.083C791.619,-171.927 790.094,-161.635 788.769,-152.691"/>
<polygon fill="midnightblue" stroke="midnightblue" points="792.224,-152.13 787.296,-142.751 785.3,-153.156 792.224,-152.13"/>
</g>
</g>
</svg>
