<?xml version="1.0" encoding="UTF-8" standalone="no"?>
<!DOCTYPE svg PUBLIC "-//W3C//DTD SVG 1.1//EN"
 "http://www.w3.org/Graphics/SVG/1.1/DTD/svg11.dtd">
<!-- Generated by graphviz version 2.38.0 (20140413.2041)
 -->
<!-- Title: src/gromacs/simd/scalar/scalar.h Pages: 1 -->
<svg width="1039pt" height="296pt"
 viewBox="0.00 0.00 1039.42 296.00" xmlns="http://www.w3.org/2000/svg" xmlns:xlink="http://www.w3.org/1999/xlink">
<g id="graph0" class="graph" transform="scale(1 1) rotate(0) translate(4 292)">
<title>src/gromacs/simd/scalar/scalar.h</title>
<polygon fill="white" stroke="none" points="-4,4 -4,-292 1035.42,-292 1035.42,4 -4,4"/>
<!-- Node1 -->
<g id="node1" class="node"><title>Node1</title>
<polygon fill="#bfbfbf" stroke="black" points="383.921,-257.5 383.921,-287.5 507.921,-287.5 507.921,-257.5 383.921,-257.5"/>
<text text-anchor="start" x="391.921" y="-275.5" font-family="Helvetica,sans-Serif" font-size="10.00">src/gromacs/simd/scalar</text>
<text text-anchor="middle" x="445.921" y="-264.5" font-family="Helvetica,sans-Serif" font-size="10.00">/scalar.h</text>
</g>
<!-- Node2 -->
<g id="node2" class="node"><title>Node2</title>
<g id="a_node2"><a xlink:href="simd_8h.xhtml" target="_top" xlink:title="Definitions, capabilities, and wrappers for SIMD module. ">
<polygon fill="white" stroke="black" points="382.421,-134.5 382.421,-153.5 509.421,-153.5 509.421,-134.5 382.421,-134.5"/>
<text text-anchor="middle" x="445.921" y="-141.5" font-family="Helvetica,sans-Serif" font-size="10.00">src/gromacs/simd/simd.h</text>
</a>
</g>
</g>
<!-- Node1&#45;&gt;Node2 -->
<g id="edge1" class="edge"><title>Node1&#45;&gt;Node2</title>
<path fill="none" stroke="midnightblue" d="M431.147,-248.474C426.613,-240.153 422.216,-230.47 419.921,-221 416.676,-207.61 416.353,-203.308 419.921,-190 423.613,-176.23 432.652,-162.316 439.031,-153.681"/>
<polygon fill="midnightblue" stroke="midnightblue" points="428.17,-250.318 436.22,-257.206 434.223,-246.801 428.17,-250.318"/>
</g>
<!-- Node13 -->
<g id="node13" class="node"><title>Node13</title>
<g id="a_node13"><a xlink:href="scalar__math_8h.xhtml" target="_top" xlink:title="Scalar math functions mimicking GROMACS SIMD math functions. ">
<polygon fill="white" stroke="black" points="428.921,-190.5 428.921,-220.5 552.921,-220.5 552.921,-190.5 428.921,-190.5"/>
<text text-anchor="start" x="436.921" y="-208.5" font-family="Helvetica,sans-Serif" font-size="10.00">src/gromacs/simd/scalar</text>
<text text-anchor="middle" x="490.921" y="-197.5" font-family="Helvetica,sans-Serif" font-size="10.00">/scalar_math.h</text>
</a>
</g>
</g>
<!-- Node1&#45;&gt;Node13 -->
<g id="edge19" class="edge"><title>Node1&#45;&gt;Node13</title>
<path fill="none" stroke="midnightblue" d="M461.389,-249.157C467.951,-239.679 475.401,-228.919 481.176,-220.577"/>
<polygon fill="midnightblue" stroke="midnightblue" points="458.5,-247.182 455.685,-257.396 464.255,-251.166 458.5,-247.182"/>
</g>
<!-- Node3 -->
<g id="node3" class="node"><title>Node3</title>
<g id="a_node3"><a xlink:href="simd__math_8h.xhtml" target="_top" xlink:title="Math functions for SIMD datatypes. ">
<polygon fill="white" stroke="black" points="16.4211,-67.5 16.4211,-97.5 135.421,-97.5 135.421,-67.5 16.4211,-67.5"/>
<text text-anchor="start" x="24.4211" y="-85.5" font-family="Helvetica,sans-Serif" font-size="10.00">src/gromacs/simd/simd</text>
<text text-anchor="middle" x="75.9211" y="-74.5" font-family="Helvetica,sans-Serif" font-size="10.00">_math.h</text>
</a>
</g>
</g>
<!-- Node2&#45;&gt;Node3 -->
<g id="edge2" class="edge"><title>Node2&#45;&gt;Node3</title>
<path fill="none" stroke="midnightblue" d="M372.429,-133.351C311.146,-124.993 221.621,-112.059 143.921,-98 141.189,-97.5057 138.399,-96.9831 135.584,-96.4414"/>
<polygon fill="midnightblue" stroke="midnightblue" points="372.014,-136.826 382.394,-134.703 372.956,-129.89 372.014,-136.826"/>
</g>
<!-- Node4 -->
<g id="node4" class="node"><title>Node4</title>
<g id="a_node4"><a xlink:href="bonded_8cpp.xhtml" target="_top" xlink:title="This file defines low&#45;level functions necessary for computing energies and forces for listed interact...">
<polygon fill="white" stroke="black" points="54.9211,-0.5 54.9211,-30.5 154.921,-30.5 154.921,-0.5 54.9211,-0.5"/>
<text text-anchor="start" x="62.9211" y="-18.5" font-family="Helvetica,sans-Serif" font-size="10.00">src/gromacs/listed</text>
<text text-anchor="middle" x="104.921" y="-7.5" font-family="Helvetica,sans-Serif" font-size="10.00">&#45;forces/bonded.cpp</text>
</a>
</g>
</g>
<!-- Node2&#45;&gt;Node4 -->
<g id="edge9" class="edge"><title>Node2&#45;&gt;Node4</title>
<path fill="none" stroke="midnightblue" d="M372.297,-140.735C253.638,-136.319 30.8968,-124.559 6.92109,-98 -17.1004,-71.3903 28.5246,-45.8217 65.2692,-30.6325"/>
<polygon fill="midnightblue" stroke="midnightblue" points="372.279,-144.237 382.399,-141.103 372.533,-137.242 372.279,-144.237"/>
</g>
<!-- Node5 -->
<g id="node5" class="node"><title>Node5</title>
<g id="a_node5"><a xlink:href="pairs_8cpp.xhtml" target="_top" xlink:title="This file defines functions for &quot;pair&quot; interactions (i.e. listed non&#45;bonded interactions, e.g. 1&#45;4 interactions) ">
<polygon fill="white" stroke="black" points="203.421,-0.5 203.421,-30.5 300.421,-30.5 300.421,-0.5 203.421,-0.5"/>
<text text-anchor="start" x="211.421" y="-18.5" font-family="Helvetica,sans-Serif" font-size="10.00">src/gromacs/listed</text>
<text text-anchor="middle" x="251.921" y="-7.5" font-family="Helvetica,sans-Serif" font-size="10.00">&#45;forces/pairs.cpp</text>
</a>
</g>
</g>
<!-- Node2&#45;&gt;Node5 -->
<g id="edge14" class="edge"><title>Node2&#45;&gt;Node5</title>
<path fill="none" stroke="midnightblue" d="M441.114,-124.362C435.755,-107.16 425.448,-82.0679 407.921,-67 377.808,-41.1113 334.191,-28.4418 300.729,-22.272"/>
<polygon fill="midnightblue" stroke="midnightblue" points="437.85,-125.678 443.948,-134.342 444.583,-123.766 437.85,-125.678"/>
</g>
<!-- Node6 -->
<g id="node6" class="node"><title>Node6</title>
<g id="a_node6"><a xlink:href="pbc-simd_8h.xhtml" target="_top" xlink:title="This file contains a definition, declaration and inline function for SIMD accelerated PBC calculation...">
<polygon fill="white" stroke="black" points="296.921,-67.5 296.921,-97.5 398.921,-97.5 398.921,-67.5 296.921,-67.5"/>
<text text-anchor="start" x="304.921" y="-85.5" font-family="Helvetica,sans-Serif" font-size="10.00">src/gromacs/pbcutil</text>
<text text-anchor="middle" x="347.921" y="-74.5" font-family="Helvetica,sans-Serif" font-size="10.00">/pbc&#45;simd.h</text>
</a>
</g>
</g>
<!-- Node2&#45;&gt;Node6 -->
<g id="edge5" class="edge"><title>Node2&#45;&gt;Node6</title>
<path fill="none" stroke="midnightblue" d="M423.317,-129.276C407.634,-119.754 386.807,-107.11 371.018,-97.523"/>
<polygon fill="midnightblue" stroke="midnightblue" points="421.516,-132.277 431.88,-134.475 425.149,-126.294 421.516,-132.277"/>
</g>
<!-- Node7 -->
<g id="node7" class="node"><title>Node7</title>
<g id="a_node7"><a xlink:href="pbc-simd_8cpp.xhtml" target="_top" xlink:title="This file defines a low&#45;level function for SIMD PBC calculation. ">
<polygon fill="white" stroke="black" points="354.921,-0.5 354.921,-30.5 456.921,-30.5 456.921,-0.5 354.921,-0.5"/>
<text text-anchor="start" x="362.921" y="-18.5" font-family="Helvetica,sans-Serif" font-size="10.00">src/gromacs/pbcutil</text>
<text text-anchor="middle" x="405.921" y="-7.5" font-family="Helvetica,sans-Serif" font-size="10.00">/pbc&#45;simd.cpp</text>
</a>
</g>
</g>
<!-- Node2&#45;&gt;Node7 -->
<g id="edge15" class="edge"><title>Node2&#45;&gt;Node7</title>
<path fill="none" stroke="midnightblue" d="M447.426,-124.229C448.049,-108.5 447.444,-85.6852 440.921,-67 436.21,-53.5047 426.841,-40.3009 418.982,-30.7811"/>
<polygon fill="midnightblue" stroke="midnightblue" points="443.929,-124.077 446.822,-134.269 450.916,-124.497 443.929,-124.077"/>
</g>
<!-- Node8 -->
<g id="node8" class="node"><title>Node8</title>
<g id="a_node8"><a xlink:href="vector__operations_8h.xhtml" target="_top" xlink:title="SIMD operations corresponding to Gromacs rvec datatypes. ">
<polygon fill="white" stroke="black" points="153.421,-67.5 153.421,-97.5 278.421,-97.5 278.421,-67.5 153.421,-67.5"/>
<text text-anchor="start" x="161.421" y="-85.5" font-family="Helvetica,sans-Serif" font-size="10.00">src/gromacs/simd/vector</text>
<text text-anchor="middle" x="215.921" y="-74.5" font-family="Helvetica,sans-Serif" font-size="10.00">_operations.h</text>
</a>
</g>
</g>
<!-- Node2&#45;&gt;Node8 -->
<g id="edge10" class="edge"><title>Node2&#45;&gt;Node8</title>
<path fill="none" stroke="midnightblue" d="M402.855,-131.859C365.302,-122.144 310.648,-108.006 270.128,-97.523"/>
<polygon fill="midnightblue" stroke="midnightblue" points="402.41,-135.359 412.968,-134.475 404.163,-128.582 402.41,-135.359"/>
</g>
<!-- Node9 -->
<g id="node9" class="node"><title>Node9</title>
<g id="a_node9"><a xlink:href="listed-forces_8cpp.xhtml" target="_top" xlink:title="This file defines high&#45;level functions for mdrun to compute energies and forces for listed interactio...">
<polygon fill="white" stroke="black" points="492.921,-67.5 492.921,-97.5 614.921,-97.5 614.921,-67.5 492.921,-67.5"/>
<text text-anchor="start" x="500.921" y="-85.5" font-family="Helvetica,sans-Serif" font-size="10.00">src/gromacs/listed</text>
<text text-anchor="middle" x="553.921" y="-74.5" font-family="Helvetica,sans-Serif" font-size="10.00">&#45;forces/listed&#45;forces.cpp</text>
</a>
</g>
</g>
<!-- Node2&#45;&gt;Node9 -->
<g id="edge13" class="edge"><title>Node2&#45;&gt;Node9</title>
<path fill="none" stroke="midnightblue" d="M470.348,-129.542C487.686,-119.991 510.904,-107.199 528.468,-97.523"/>
<polygon fill="midnightblue" stroke="midnightblue" points="468.465,-126.584 461.395,-134.475 471.843,-132.715 468.465,-126.584"/>
</g>
<!-- Node10 -->
<g id="node10" class="node"><title>Node10</title>
<g id="a_node10"><a xlink:href="bootstrap__loadstore_8cpp.xhtml" target="_top" xlink:title="Separate test of SIMD load/store, before we use them in the SIMD test classes. ">
<polygon fill="white" stroke="black" points="632.921,-67.5 632.921,-97.5 756.921,-97.5 756.921,-67.5 632.921,-67.5"/>
<text text-anchor="start" x="640.921" y="-85.5" font-family="Helvetica,sans-Serif" font-size="10.00">src/gromacs/simd/tests</text>
<text text-anchor="middle" x="694.921" y="-74.5" font-family="Helvetica,sans-Serif" font-size="10.00">/bootstrap_loadstore.cpp</text>
</a>
</g>
</g>
<!-- Node2&#45;&gt;Node10 -->
<g id="edge16" class="edge"><title>Node2&#45;&gt;Node10</title>
<path fill="none" stroke="midnightblue" d="M491.506,-132.107C532.187,-122.386 591.994,-108.095 636.237,-97.523"/>
<polygon fill="midnightblue" stroke="midnightblue" points="490.509,-128.747 481.597,-134.475 492.136,-135.555 490.509,-128.747"/>
</g>
<!-- Node11 -->
<g id="node11" class="node"><title>Node11</title>
<g id="a_node11"><a xlink:href="tests_2simd_8h.xhtml" target="_top" xlink:title="Declares fixture for testing of normal SIMD (not SIMD4) functionality. ">
<polygon fill="white" stroke="black" points="775.421,-67.5 775.421,-97.5 894.421,-97.5 894.421,-67.5 775.421,-67.5"/>
<text text-anchor="start" x="783.421" y="-85.5" font-family="Helvetica,sans-Serif" font-size="10.00">src/gromacs/simd/tests</text>
<text text-anchor="middle" x="834.921" y="-74.5" font-family="Helvetica,sans-Serif" font-size="10.00">/simd.h</text>
</a>
</g>
</g>
<!-- Node2&#45;&gt;Node11 -->
<g id="edge17" class="edge"><title>Node2&#45;&gt;Node11</title>
<path fill="none" stroke="midnightblue" d="M519.716,-134.058C584.718,-125.839 681.863,-112.725 765.921,-98 768.935,-97.472 772.019,-96.9088 775.13,-96.3223"/>
<polygon fill="midnightblue" stroke="midnightblue" points="519.052,-130.613 509.567,-135.334 519.926,-137.559 519.052,-130.613"/>
</g>
<!-- Node12 -->
<g id="node12" class="node"><title>Node12</title>
<g id="a_node12"><a xlink:href="simd4_8h.xhtml" target="_top" xlink:title="Declares fixture for testing of SIMD4 functionality. ">
<polygon fill="white" stroke="black" points="912.421,-67.5 912.421,-97.5 1031.42,-97.5 1031.42,-67.5 912.421,-67.5"/>
<text text-anchor="start" x="920.421" y="-85.5" font-family="Helvetica,sans-Serif" font-size="10.00">src/gromacs/simd/tests</text>
<text text-anchor="middle" x="971.921" y="-74.5" font-family="Helvetica,sans-Serif" font-size="10.00">/simd4.h</text>
</a>
</g>
</g>
<!-- Node2&#45;&gt;Node12 -->
<g id="edge18" class="edge"><title>Node2&#45;&gt;Node12</title>
<path fill="none" stroke="midnightblue" d="M519.738,-138.307C610.526,-131.946 769.173,-118.919 903.921,-98 906.665,-97.5741 909.464,-97.1077 912.287,-96.6115"/>
<polygon fill="midnightblue" stroke="midnightblue" points="519.283,-134.83 509.549,-139.012 519.767,-141.813 519.283,-134.83"/>
</g>
<!-- Node3&#45;&gt;Node4 -->
<g id="edge3" class="edge"><title>Node3&#45;&gt;Node4</title>
<path fill="none" stroke="midnightblue" d="M86.4099,-57.9907C90.5084,-48.8044 95.0709,-38.5781 98.6408,-30.5765"/>
<polygon fill="midnightblue" stroke="midnightblue" points="83.0918,-56.8376 82.2137,-67.396 89.4844,-59.6897 83.0918,-56.8376"/>
</g>
<!-- Node3&#45;&gt;Node5 -->
<g id="edge4" class="edge"><title>Node3&#45;&gt;Node5</title>
<path fill="none" stroke="midnightblue" d="M123.797,-63.8185C152.087,-53.3707 187.416,-40.3231 213.806,-30.5765"/>
<polygon fill="midnightblue" stroke="midnightblue" points="122.279,-60.6482 114.11,-67.396 124.704,-67.2147 122.279,-60.6482"/>
</g>
<!-- Node6&#45;&gt;Node4 -->
<g id="edge6" class="edge"><title>Node6&#45;&gt;Node4</title>
<path fill="none" stroke="midnightblue" d="M286.893,-65.1756C246.251,-54.3042 193.492,-40.1918 155.255,-29.9639"/>
<polygon fill="midnightblue" stroke="midnightblue" points="286.119,-68.5916 296.684,-67.7946 287.928,-61.8293 286.119,-68.5916"/>
</g>
<!-- Node6&#45;&gt;Node5 -->
<g id="edge7" class="edge"><title>Node6&#45;&gt;Node5</title>
<path fill="none" stroke="midnightblue" d="M318.728,-61.7337C303.873,-51.6755 286.163,-39.6847 272.711,-30.5765"/>
<polygon fill="midnightblue" stroke="midnightblue" points="316.848,-64.6875 327.091,-67.396 320.772,-58.8912 316.848,-64.6875"/>
</g>
<!-- Node6&#45;&gt;Node7 -->
<g id="edge8" class="edge"><title>Node6&#45;&gt;Node7</title>
<path fill="none" stroke="midnightblue" d="M367.341,-59.7362C375.923,-50.119 385.765,-39.0888 393.361,-30.5765"/>
<polygon fill="midnightblue" stroke="midnightblue" points="364.553,-57.6043 360.506,-67.396 369.776,-62.2648 364.553,-57.6043"/>
</g>
<!-- Node8&#45;&gt;Node4 -->
<g id="edge11" class="edge"><title>Node8&#45;&gt;Node4</title>
<path fill="none" stroke="midnightblue" d="M183.126,-62.2956C165.757,-52.1248 144.804,-39.8549 128.959,-30.5765"/>
<polygon fill="midnightblue" stroke="midnightblue" points="181.438,-65.363 191.836,-67.396 184.975,-59.3224 181.438,-65.363"/>
</g>
<!-- Node8&#45;&gt;Node5 -->
<g id="edge12" class="edge"><title>Node8&#45;&gt;Node5</title>
<path fill="none" stroke="midnightblue" d="M228.618,-58.5756C233.788,-49.2406 239.599,-38.7483 244.125,-30.5765"/>
<polygon fill="midnightblue" stroke="midnightblue" points="225.516,-56.9523 223.733,-67.396 231.639,-60.3438 225.516,-56.9523"/>
</g>
<!-- Node13&#45;&gt;Node2 -->
<g id="edge20" class="edge"><title>Node13&#45;&gt;Node2</title>
<path fill="none" stroke="midnightblue" d="M474.21,-182.404C466.652,-172.411 458.159,-161.181 452.469,-153.658"/>
<polygon fill="midnightblue" stroke="midnightblue" points="471.433,-184.535 480.257,-190.399 477.016,-180.312 471.433,-184.535"/>
</g>
</g>
</svg>
