<?xml version="1.0" encoding="UTF-8" standalone="no"?>
<!DOCTYPE svg PUBLIC "-//W3C//DTD SVG 1.1//EN"
 "http://www.w3.org/Graphics/SVG/1.1/DTD/svg11.dtd">
<!-- Generated by graphviz version 2.38.0 (20140413.2041)
 -->
<!-- Title: src/gromacs/simd/scalar/scalar_util.h Pages: 1 -->
<svg width="1039pt" height="229pt"
 viewBox="0.00 0.00 1039.06 229.00" xmlns="http://www.w3.org/2000/svg" xmlns:xlink="http://www.w3.org/1999/xlink">
<g id="graph0" class="graph" transform="scale(1 1) rotate(0) translate(4 225)">
<title>src/gromacs/simd/scalar/scalar_util.h</title>
<polygon fill="white" stroke="none" points="-4,4 -4,-225 1035.06,-225 1035.06,4 -4,4"/>
<!-- Node1 -->
<g id="node1" class="node"><title>Node1</title>
<polygon fill="#bfbfbf" stroke="black" points="383.562,-190.5 383.562,-220.5 507.562,-220.5 507.562,-190.5 383.562,-190.5"/>
<text text-anchor="start" x="391.562" y="-208.5" font-family="Helvetica,sans-Serif" font-size="10.00">src/gromacs/simd/scalar</text>
<text text-anchor="middle" x="445.562" y="-197.5" font-family="Helvetica,sans-Serif" font-size="10.00">/scalar_util.h</text>
</g>
<!-- Node2 -->
<g id="node2" class="node"><title>Node2</title>
<g id="a_node2"><a xlink:href="simd_8h.xhtml" target="_top" xlink:title="Definitions, capabilities, and wrappers for SIMD module. ">
<polygon fill="white" stroke="black" points="382.062,-134.5 382.062,-153.5 509.062,-153.5 509.062,-134.5 382.062,-134.5"/>
<text text-anchor="middle" x="445.562" y="-141.5" font-family="Helvetica,sans-Serif" font-size="10.00">src/gromacs/simd/simd.h</text>
</a>
</g>
</g>
<!-- Node1&#45;&gt;Node2 -->
<g id="edge1" class="edge"><title>Node1&#45;&gt;Node2</title>
<path fill="none" stroke="midnightblue" d="M445.562,-180.289C445.562,-170.857 445.562,-160.655 445.562,-153.658"/>
<polygon fill="midnightblue" stroke="midnightblue" points="442.062,-180.399 445.562,-190.399 449.062,-180.399 442.062,-180.399"/>
</g>
<!-- Node3 -->
<g id="node3" class="node"><title>Node3</title>
<g id="a_node3"><a xlink:href="simd__math_8h.xhtml" target="_top" xlink:title="Math functions for SIMD datatypes. ">
<polygon fill="white" stroke="black" points="16.0621,-67.5 16.0621,-97.5 135.062,-97.5 135.062,-67.5 16.0621,-67.5"/>
<text text-anchor="start" x="24.0621" y="-85.5" font-family="Helvetica,sans-Serif" font-size="10.00">src/gromacs/simd/simd</text>
<text text-anchor="middle" x="75.5621" y="-74.5" font-family="Helvetica,sans-Serif" font-size="10.00">_math.h</text>
</a>
</g>
</g>
<!-- Node2&#45;&gt;Node3 -->
<g id="edge2" class="edge"><title>Node2&#45;&gt;Node3</title>
<path fill="none" stroke="midnightblue" d="M372.07,-133.351C310.787,-124.993 221.262,-112.059 143.562,-98 140.83,-97.5057 138.04,-96.9831 135.225,-96.4414"/>
<polygon fill="midnightblue" stroke="midnightblue" points="371.655,-136.826 382.035,-134.703 372.597,-129.89 371.655,-136.826"/>
</g>
<!-- Node4 -->
<g id="node4" class="node"><title>Node4</title>
<g id="a_node4"><a xlink:href="bonded_8cpp.xhtml" target="_top" xlink:title="This file defines low&#45;level functions necessary for computing energies and forces for listed interact...">
<polygon fill="white" stroke="black" points="36.5621,-0.5 36.5621,-30.5 136.562,-30.5 136.562,-0.5 36.5621,-0.5"/>
<text text-anchor="start" x="44.5621" y="-18.5" font-family="Helvetica,sans-Serif" font-size="10.00">src/gromacs/listed</text>
<text text-anchor="middle" x="86.5621" y="-7.5" font-family="Helvetica,sans-Serif" font-size="10.00">&#45;forces/bonded.cpp</text>
</a>
</g>
</g>
<!-- Node2&#45;&gt;Node4 -->
<g id="edge9" class="edge"><title>Node2&#45;&gt;Node4</title>
<path fill="none" stroke="midnightblue" d="M371.938,-140.735C253.279,-136.319 30.5378,-124.559 6.56214,-98 -15.4921,-73.5695 24.693,-46.5539 55.6739,-30.5781"/>
<polygon fill="midnightblue" stroke="midnightblue" points="371.92,-144.237 382.04,-141.103 372.174,-137.242 371.92,-144.237"/>
</g>
<!-- Node5 -->
<g id="node5" class="node"><title>Node5</title>
<g id="a_node5"><a xlink:href="pairs_8cpp.xhtml" target="_top" xlink:title="This file defines functions for &quot;pair&quot; interactions (i.e. listed non&#45;bonded interactions, e.g. 1&#45;4 interactions) ">
<polygon fill="white" stroke="black" points="174.062,-0.5 174.062,-30.5 271.062,-30.5 271.062,-0.5 174.062,-0.5"/>
<text text-anchor="start" x="182.062" y="-18.5" font-family="Helvetica,sans-Serif" font-size="10.00">src/gromacs/listed</text>
<text text-anchor="middle" x="222.562" y="-7.5" font-family="Helvetica,sans-Serif" font-size="10.00">&#45;forces/pairs.cpp</text>
</a>
</g>
</g>
<!-- Node2&#45;&gt;Node5 -->
<g id="edge14" class="edge"><title>Node2&#45;&gt;Node5</title>
<path fill="none" stroke="midnightblue" d="M440.994,-124.447C435.771,-107.104 425.528,-81.7322 407.562,-67 368.817,-35.2288 311.688,-23.36 271.183,-18.9733"/>
<polygon fill="midnightblue" stroke="midnightblue" points="437.725,-125.765 443.731,-134.492 444.479,-123.924 437.725,-125.765"/>
</g>
<!-- Node6 -->
<g id="node6" class="node"><title>Node6</title>
<g id="a_node6"><a xlink:href="pbc-simd_8h.xhtml" target="_top" xlink:title="This file contains a definition, declaration and inline function for SIMD accelerated PBC calculation...">
<polygon fill="white" stroke="black" points="296.562,-67.5 296.562,-97.5 398.562,-97.5 398.562,-67.5 296.562,-67.5"/>
<text text-anchor="start" x="304.562" y="-85.5" font-family="Helvetica,sans-Serif" font-size="10.00">src/gromacs/pbcutil</text>
<text text-anchor="middle" x="347.562" y="-74.5" font-family="Helvetica,sans-Serif" font-size="10.00">/pbc&#45;simd.h</text>
</a>
</g>
</g>
<!-- Node2&#45;&gt;Node6 -->
<g id="edge5" class="edge"><title>Node2&#45;&gt;Node6</title>
<path fill="none" stroke="midnightblue" d="M422.958,-129.276C407.275,-119.754 386.448,-107.11 370.659,-97.523"/>
<polygon fill="midnightblue" stroke="midnightblue" points="421.157,-132.277 431.521,-134.475 424.79,-126.294 421.157,-132.277"/>
</g>
<!-- Node7 -->
<g id="node7" class="node"><title>Node7</title>
<g id="a_node7"><a xlink:href="pbc-simd_8cpp.xhtml" target="_top" xlink:title="This file defines a low&#45;level function for SIMD PBC calculation. ">
<polygon fill="white" stroke="black" points="354.562,-0.5 354.562,-30.5 456.562,-30.5 456.562,-0.5 354.562,-0.5"/>
<text text-anchor="start" x="362.562" y="-18.5" font-family="Helvetica,sans-Serif" font-size="10.00">src/gromacs/pbcutil</text>
<text text-anchor="middle" x="405.562" y="-7.5" font-family="Helvetica,sans-Serif" font-size="10.00">/pbc&#45;simd.cpp</text>
</a>
</g>
</g>
<!-- Node2&#45;&gt;Node7 -->
<g id="edge15" class="edge"><title>Node2&#45;&gt;Node7</title>
<path fill="none" stroke="midnightblue" d="M447.067,-124.229C447.69,-108.5 447.085,-85.6852 440.562,-67 435.851,-53.5047 426.482,-40.3009 418.623,-30.7811"/>
<polygon fill="midnightblue" stroke="midnightblue" points="443.57,-124.077 446.463,-134.269 450.557,-124.497 443.57,-124.077"/>
</g>
<!-- Node8 -->
<g id="node8" class="node"><title>Node8</title>
<g id="a_node8"><a xlink:href="vector__operations_8h.xhtml" target="_top" xlink:title="SIMD operations corresponding to Gromacs rvec datatypes. ">
<polygon fill="white" stroke="black" points="153.062,-67.5 153.062,-97.5 278.062,-97.5 278.062,-67.5 153.062,-67.5"/>
<text text-anchor="start" x="161.062" y="-85.5" font-family="Helvetica,sans-Serif" font-size="10.00">src/gromacs/simd/vector</text>
<text text-anchor="middle" x="215.562" y="-74.5" font-family="Helvetica,sans-Serif" font-size="10.00">_operations.h</text>
</a>
</g>
</g>
<!-- Node2&#45;&gt;Node8 -->
<g id="edge10" class="edge"><title>Node2&#45;&gt;Node8</title>
<path fill="none" stroke="midnightblue" d="M402.496,-131.859C364.943,-122.144 310.289,-108.006 269.769,-97.523"/>
<polygon fill="midnightblue" stroke="midnightblue" points="402.051,-135.359 412.609,-134.475 403.804,-128.582 402.051,-135.359"/>
</g>
<!-- Node9 -->
<g id="node9" class="node"><title>Node9</title>
<g id="a_node9"><a xlink:href="listed-forces_8cpp.xhtml" target="_top" xlink:title="This file defines high&#45;level functions for mdrun to compute energies and forces for listed interactio...">
<polygon fill="white" stroke="black" points="492.562,-67.5 492.562,-97.5 614.562,-97.5 614.562,-67.5 492.562,-67.5"/>
<text text-anchor="start" x="500.562" y="-85.5" font-family="Helvetica,sans-Serif" font-size="10.00">src/gromacs/listed</text>
<text text-anchor="middle" x="553.562" y="-74.5" font-family="Helvetica,sans-Serif" font-size="10.00">&#45;forces/listed&#45;forces.cpp</text>
</a>
</g>
</g>
<!-- Node2&#45;&gt;Node9 -->
<g id="edge13" class="edge"><title>Node2&#45;&gt;Node9</title>
<path fill="none" stroke="midnightblue" d="M469.99,-129.542C487.327,-119.991 510.545,-107.199 528.109,-97.523"/>
<polygon fill="midnightblue" stroke="midnightblue" points="468.106,-126.584 461.036,-134.475 471.484,-132.715 468.106,-126.584"/>
</g>
<!-- Node10 -->
<g id="node10" class="node"><title>Node10</title>
<g id="a_node10"><a xlink:href="bootstrap__loadstore_8cpp.xhtml" target="_top" xlink:title="Separate test of SIMD load/store, before we use them in the SIMD test classes. ">
<polygon fill="white" stroke="black" points="632.562,-67.5 632.562,-97.5 756.562,-97.5 756.562,-67.5 632.562,-67.5"/>
<text text-anchor="start" x="640.562" y="-85.5" font-family="Helvetica,sans-Serif" font-size="10.00">src/gromacs/simd/tests</text>
<text text-anchor="middle" x="694.562" y="-74.5" font-family="Helvetica,sans-Serif" font-size="10.00">/bootstrap_loadstore.cpp</text>
</a>
</g>
</g>
<!-- Node2&#45;&gt;Node10 -->
<g id="edge16" class="edge"><title>Node2&#45;&gt;Node10</title>
<path fill="none" stroke="midnightblue" d="M491.147,-132.107C531.828,-122.386 591.635,-108.095 635.878,-97.523"/>
<polygon fill="midnightblue" stroke="midnightblue" points="490.15,-128.747 481.238,-134.475 491.777,-135.555 490.15,-128.747"/>
</g>
<!-- Node11 -->
<g id="node11" class="node"><title>Node11</title>
<g id="a_node11"><a xlink:href="tests_2simd_8h.xhtml" target="_top" xlink:title="Declares fixture for testing of normal SIMD (not SIMD4) functionality. ">
<polygon fill="white" stroke="black" points="775.062,-67.5 775.062,-97.5 894.062,-97.5 894.062,-67.5 775.062,-67.5"/>
<text text-anchor="start" x="783.062" y="-85.5" font-family="Helvetica,sans-Serif" font-size="10.00">src/gromacs/simd/tests</text>
<text text-anchor="middle" x="834.562" y="-74.5" font-family="Helvetica,sans-Serif" font-size="10.00">/simd.h</text>
</a>
</g>
</g>
<!-- Node2&#45;&gt;Node11 -->
<g id="edge17" class="edge"><title>Node2&#45;&gt;Node11</title>
<path fill="none" stroke="midnightblue" d="M519.357,-134.058C584.359,-125.839 681.504,-112.725 765.562,-98 768.576,-97.472 771.66,-96.9088 774.771,-96.3223"/>
<polygon fill="midnightblue" stroke="midnightblue" points="518.693,-130.613 509.208,-135.334 519.567,-137.559 518.693,-130.613"/>
</g>
<!-- Node12 -->
<g id="node12" class="node"><title>Node12</title>
<g id="a_node12"><a xlink:href="simd4_8h.xhtml" target="_top" xlink:title="Declares fixture for testing of SIMD4 functionality. ">
<polygon fill="white" stroke="black" points="912.062,-67.5 912.062,-97.5 1031.06,-97.5 1031.06,-67.5 912.062,-67.5"/>
<text text-anchor="start" x="920.062" y="-85.5" font-family="Helvetica,sans-Serif" font-size="10.00">src/gromacs/simd/tests</text>
<text text-anchor="middle" x="971.562" y="-74.5" font-family="Helvetica,sans-Serif" font-size="10.00">/simd4.h</text>
</a>
</g>
</g>
<!-- Node2&#45;&gt;Node12 -->
<g id="edge18" class="edge"><title>Node2&#45;&gt;Node12</title>
<path fill="none" stroke="midnightblue" d="M519.379,-138.307C610.167,-131.946 768.815,-118.919 903.562,-98 906.306,-97.5741 909.105,-97.1077 911.928,-96.6115"/>
<polygon fill="midnightblue" stroke="midnightblue" points="518.924,-134.83 509.19,-139.012 519.408,-141.813 518.924,-134.83"/>
</g>
<!-- Node3&#45;&gt;Node4 -->
<g id="edge3" class="edge"><title>Node3&#45;&gt;Node4</title>
<path fill="none" stroke="midnightblue" d="M79.6401,-57.4029C81.1687,-48.3703 82.8547,-38.4078 84.18,-30.5765"/>
<polygon fill="midnightblue" stroke="midnightblue" points="76.1667,-56.9521 77.949,-67.396 83.0686,-58.1202 76.1667,-56.9521"/>
</g>
<!-- Node3&#45;&gt;Node5 -->
<g id="edge4" class="edge"><title>Node3&#45;&gt;Node5</title>
<path fill="none" stroke="midnightblue" d="M116.793,-63.2687C140.206,-52.9159 169.07,-40.1528 190.728,-30.5765"/>
<polygon fill="midnightblue" stroke="midnightblue" points="115.189,-60.1508 107.459,-67.396 118.02,-66.5529 115.189,-60.1508"/>
</g>
<!-- Node6&#45;&gt;Node4 -->
<g id="edge6" class="edge"><title>Node6&#45;&gt;Node4</title>
<path fill="none" stroke="midnightblue" d="M286.555,-66.3066C241.015,-54.9652 179.534,-39.654 136.811,-29.0142"/>
<polygon fill="midnightblue" stroke="midnightblue" points="285.759,-69.7152 296.308,-68.7356 287.451,-62.9227 285.759,-69.7152"/>
</g>
<!-- Node6&#45;&gt;Node5 -->
<g id="edge7" class="edge"><title>Node6&#45;&gt;Node5</title>
<path fill="none" stroke="midnightblue" d="M311.436,-62.7143C291.722,-52.4631 267.721,-39.9826 249.632,-30.5765"/>
<polygon fill="midnightblue" stroke="midnightblue" points="309.952,-65.8877 320.439,-67.396 313.182,-59.6771 309.952,-65.8877"/>
</g>
<!-- Node6&#45;&gt;Node7 -->
<g id="edge8" class="edge"><title>Node6&#45;&gt;Node7</title>
<path fill="none" stroke="midnightblue" d="M366.982,-59.7362C375.564,-50.119 385.406,-39.0888 393.002,-30.5765"/>
<polygon fill="midnightblue" stroke="midnightblue" points="364.194,-57.6043 360.147,-67.396 369.417,-62.2648 364.194,-57.6043"/>
</g>
<!-- Node8&#45;&gt;Node4 -->
<g id="edge11" class="edge"><title>Node8&#45;&gt;Node4</title>
<path fill="none" stroke="midnightblue" d="M178.556,-62.8533C158.159,-52.5761 133.251,-40.0252 114.499,-30.5765"/>
<polygon fill="midnightblue" stroke="midnightblue" points="177.066,-66.0217 187.571,-67.396 180.216,-59.7705 177.066,-66.0217"/>
</g>
<!-- Node8&#45;&gt;Node5 -->
<g id="edge12" class="edge"><title>Node8&#45;&gt;Node5</title>
<path fill="none" stroke="midnightblue" d="M218.157,-57.4029C219.13,-48.3703 220.203,-38.4078 221.046,-30.5765"/>
<polygon fill="midnightblue" stroke="midnightblue" points="214.672,-57.0787 217.081,-67.396 221.632,-57.8282 214.672,-57.0787"/>
</g>
</g>
</svg>
