<?xml version="1.0" encoding="UTF-8" standalone="no"?>
<!DOCTYPE svg PUBLIC "-//W3C//DTD SVG 1.1//EN"
 "http://www.w3.org/Graphics/SVG/1.1/DTD/svg11.dtd">
<!-- Generated by graphviz version 2.38.0 (20140413.2041)
 -->
<!-- Title: src/gromacs/selection/selectioncollection&#45;impl.h Pages: 1 -->
<svg width="1524pt" height="408pt"
 viewBox="0.00 0.00 1523.88 408.00" xmlns="http://www.w3.org/2000/svg" xmlns:xlink="http://www.w3.org/1999/xlink">
<g id="graph0" class="graph" transform="scale(1 1) rotate(0) translate(4 404)">
<title>src/gromacs/selection/selectioncollection&#45;impl.h</title>
<polygon fill="white" stroke="none" points="-4,4 -4,-404 1519.88,-404 1519.88,4 -4,4"/>
<!-- Node1 -->
<g id="node1" class="node"><title>Node1</title>
<polygon fill="#bfbfbf" stroke="black" points="730.598,-358.5 730.598,-399.5 843.598,-399.5 843.598,-358.5 730.598,-358.5"/>
<text text-anchor="start" x="738.598" y="-387.5" font-family="Helvetica,sans-Serif" font-size="10.00">src/gromacs/selection</text>
<text text-anchor="start" x="738.598" y="-376.5" font-family="Helvetica,sans-Serif" font-size="10.00">/selectioncollection</text>
<text text-anchor="middle" x="787.098" y="-365.5" font-family="Helvetica,sans-Serif" font-size="10.00">&#45;impl.h</text>
</g>
<!-- Node2 -->
<g id="node2" class="node"><title>Node2</title>
<polygon fill="white" stroke="#bfbfbf" points="1016.1,-123.5 1016.1,-142.5 1068.1,-142.5 1068.1,-123.5 1016.1,-123.5"/>
<text text-anchor="middle" x="1042.1" y="-130.5" font-family="Helvetica,sans-Serif" font-size="10.00">memory</text>
</g>
<!-- Node1&#45;&gt;Node2 -->
<g id="edge1" class="edge"><title>Node1&#45;&gt;Node2</title>
<path fill="none" stroke="midnightblue" d="M782.793,-358.317C773.387,-315.159 751.712,-214.784 750.098,-199 749.193,-190.157 744.311,-185.747 750.098,-179 782.655,-141.041 935.022,-134.8 1005.8,-133.982"/>
<polygon fill="midnightblue" stroke="midnightblue" points="1006.05,-137.48 1016.02,-133.895 1005.99,-130.48 1006.05,-137.48"/>
</g>
<!-- Node3 -->
<g id="node3" class="node"><title>Node3</title>
<polygon fill="white" stroke="#bfbfbf" points="672.598,-62 672.598,-81 713.598,-81 713.598,-62 672.598,-62"/>
<text text-anchor="middle" x="693.098" y="-69" font-family="Helvetica,sans-Serif" font-size="10.00">string</text>
</g>
<!-- Node1&#45;&gt;Node3 -->
<g id="edge2" class="edge"><title>Node1&#45;&gt;Node3</title>
<path fill="none" stroke="midnightblue" d="M730.571,-374.485C550.348,-362.531 1.09771,-320.028 1.09771,-246 1.09771,-246 1.09771,-246 1.09771,-188 1.09771,-157.902 -3.29312,-141.941 20.0977,-123 45.3699,-102.536 533.042,-79.5823 662.025,-73.8507"/>
<polygon fill="midnightblue" stroke="midnightblue" points="662.533,-77.3318 672.368,-73.394 662.224,-70.3386 662.533,-77.3318"/>
</g>
<!-- Node4 -->
<g id="node4" class="node"><title>Node4</title>
<polygon fill="white" stroke="#bfbfbf" points="583.098,-123.5 583.098,-142.5 627.098,-142.5 627.098,-123.5 583.098,-123.5"/>
<text text-anchor="middle" x="605.098" y="-130.5" font-family="Helvetica,sans-Serif" font-size="10.00">vector</text>
</g>
<!-- Node1&#45;&gt;Node4 -->
<g id="edge3" class="edge"><title>Node1&#45;&gt;Node4</title>
<path fill="none" stroke="midnightblue" d="M730.399,-377.344C651.929,-372.837 515.029,-350.919 472.098,-255 448.703,-202.73 527.137,-163.238 573.471,-145.052"/>
<polygon fill="midnightblue" stroke="midnightblue" points="574.718,-148.322 582.822,-141.497 572.231,-141.778 574.718,-148.322"/>
</g>
<!-- Node5 -->
<g id="node5" class="node"><title>Node5</title>
<g id="a_node5"><a xlink:href="ihelptopic_8h.xhtml" target="_top" xlink:title="Declares gmx::IHelpTopic. ">
<polygon fill="white" stroke="black" points="864.598,-291.5 864.598,-321.5 965.598,-321.5 965.598,-291.5 864.598,-291.5"/>
<text text-anchor="start" x="872.598" y="-309.5" font-family="Helvetica,sans-Serif" font-size="10.00">gromacs/onlinehelp</text>
<text text-anchor="middle" x="915.098" y="-298.5" font-family="Helvetica,sans-Serif" font-size="10.00">/ihelptopic.h</text>
</a>
</g>
</g>
<!-- Node1&#45;&gt;Node5 -->
<g id="edge4" class="edge"><title>Node1&#45;&gt;Node5</title>
<path fill="none" stroke="midnightblue" d="M822.753,-358.362C840.769,-348.439 862.54,-336.448 880.417,-326.601"/>
<polygon fill="midnightblue" stroke="midnightblue" points="882.3,-329.56 889.371,-321.67 878.923,-323.429 882.3,-329.56"/>
</g>
<!-- Node6 -->
<g id="node6" class="node"><title>Node6</title>
<g id="a_node6"><a xlink:href="indexutil_8h.xhtml" target="_top" xlink:title="API for handling index files and index groups. ">
<polygon fill="white" stroke="black" points="1231.6,-123.5 1231.6,-142.5 1374.6,-142.5 1374.6,-123.5 1231.6,-123.5"/>
<text text-anchor="middle" x="1303.1" y="-130.5" font-family="Helvetica,sans-Serif" font-size="10.00">gromacs/selection/indexutil.h</text>
</a>
</g>
</g>
<!-- Node1&#45;&gt;Node6 -->
<g id="edge6" class="edge"><title>Node1&#45;&gt;Node6</title>
<path fill="none" stroke="midnightblue" d="M843.738,-371.031C957.581,-355.86 1208.22,-316.216 1266.1,-255 1293.05,-226.496 1300.4,-178.882 1302.39,-152.688"/>
<polygon fill="midnightblue" stroke="midnightblue" points="1305.89,-152.78 1302.96,-142.597 1298.9,-152.383 1305.89,-152.78"/>
</g>
<!-- Node8 -->
<g id="node8" class="node"><title>Node8</title>
<g id="a_node8"><a xlink:href="selection_2selection_8h.xhtml" target="_top" xlink:title="Declares gmx::Selection and supporting classes. ">
<polygon fill="white" stroke="black" points="481.098,-235.5 481.098,-254.5 627.098,-254.5 627.098,-235.5 481.098,-235.5"/>
<text text-anchor="middle" x="554.098" y="-242.5" font-family="Helvetica,sans-Serif" font-size="10.00">gromacs/selection/selection.h</text>
</a>
</g>
</g>
<!-- Node1&#45;&gt;Node8 -->
<g id="edge9" class="edge"><title>Node1&#45;&gt;Node8</title>
<path fill="none" stroke="midnightblue" d="M730.549,-371.338C671.326,-363.126 583.925,-347.095 562.098,-322 548.656,-306.546 548.517,-282.094 550.524,-265.115"/>
<polygon fill="midnightblue" stroke="midnightblue" points="554.056,-265.174 552.12,-254.757 547.138,-264.108 554.056,-265.174"/>
</g>
<!-- Node23 -->
<g id="node23" class="node"><title>Node23</title>
<g id="a_node23"><a xlink:href="selectioncollection_8h.xhtml" target="_top" xlink:title="Declares gmx::SelectionCollection. ">
<polygon fill="white" stroke="black" points="571.098,-297 571.098,-316 759.098,-316 759.098,-297 571.098,-297"/>
<text text-anchor="middle" x="665.098" y="-304" font-family="Helvetica,sans-Serif" font-size="10.00">gromacs/selection/selectioncollection.h</text>
</a>
</g>
</g>
<!-- Node1&#45;&gt;Node23 -->
<g id="edge30" class="edge"><title>Node1&#45;&gt;Node23</title>
<path fill="none" stroke="midnightblue" d="M753.114,-358.362C732.7,-346.565 707.228,-331.846 688.947,-321.282"/>
<polygon fill="midnightblue" stroke="midnightblue" points="690.516,-318.146 680.107,-316.173 687.014,-324.207 690.516,-318.146"/>
</g>
<!-- Node24 -->
<g id="node24" class="node"><title>Node24</title>
<g id="a_node24"><a xlink:href="poscalc_8h.xhtml" target="_top" xlink:title="API for structured and optimized calculation of positions. ">
<polygon fill="white" stroke="black" points="1121.6,-235.5 1121.6,-254.5 1180.6,-254.5 1180.6,-235.5 1121.6,-235.5"/>
<text text-anchor="middle" x="1151.1" y="-242.5" font-family="Helvetica,sans-Serif" font-size="10.00">poscalc.h</text>
</a>
</g>
</g>
<!-- Node1&#45;&gt;Node24 -->
<g id="edge36" class="edge"><title>Node1&#45;&gt;Node24</title>
<path fill="none" stroke="midnightblue" d="M843.699,-362.875C881.074,-352.442 930.934,-337.671 974.098,-322 1027.88,-302.472 1088.85,-275.095 1123.36,-259.087"/>
<polygon fill="midnightblue" stroke="midnightblue" points="1125.19,-262.094 1132.78,-254.697 1122.23,-255.75 1125.19,-262.094"/>
</g>
<!-- Node25 -->
<g id="node25" class="node"><title>Node25</title>
<g id="a_node25"><a xlink:href="selelem_8h.xhtml" target="_top" xlink:title="Declares gmx::SelectionTreeElement and related things. ">
<polygon fill="white" stroke="black" points="1198.6,-235.5 1198.6,-254.5 1257.6,-254.5 1257.6,-235.5 1198.6,-235.5"/>
<text text-anchor="middle" x="1228.1" y="-242.5" font-family="Helvetica,sans-Serif" font-size="10.00">selelem.h</text>
</a>
</g>
</g>
<!-- Node1&#45;&gt;Node25 -->
<g id="edge39" class="edge"><title>Node1&#45;&gt;Node25</title>
<path fill="none" stroke="midnightblue" d="M843.898,-366.76C892.456,-356.646 963.967,-340.553 1025.1,-322 1087.87,-302.948 1159.29,-274.602 1198.46,-258.454"/>
<polygon fill="midnightblue" stroke="midnightblue" points="1200.04,-261.59 1207.93,-254.528 1197.36,-255.124 1200.04,-261.59"/>
</g>
<!-- Node5&#45;&gt;Node2 -->
<g id="edge5" class="edge"><title>Node5&#45;&gt;Node2</title>
<path fill="none" stroke="midnightblue" d="M955.206,-291.438C993.563,-275.587 1049.14,-245.75 1074.1,-199 1082.93,-182.46 1070.62,-163.143 1058.81,-149.892"/>
<polygon fill="midnightblue" stroke="midnightblue" points="1061.16,-147.287 1051.7,-142.504 1056.11,-152.138 1061.16,-147.287"/>
</g>
<!-- Node6&#45;&gt;Node3 -->
<g id="edge8" class="edge"><title>Node6&#45;&gt;Node3</title>
<path fill="none" stroke="midnightblue" d="M1231.31,-124.443C1226.5,-123.95 1221.73,-123.465 1217.1,-123 1029.99,-104.193 805.142,-82.9944 724.1,-75.3984"/>
<polygon fill="midnightblue" stroke="midnightblue" points="724.353,-71.9068 714.07,-74.4589 723.7,-78.8763 724.353,-71.9068"/>
</g>
<!-- Node7 -->
<g id="node7" class="node"><title>Node7</title>
<polygon fill="white" stroke="#bfbfbf" points="1281.6,-62 1281.6,-81 1324.6,-81 1324.6,-62 1281.6,-62"/>
<text text-anchor="middle" x="1303.1" y="-69" font-family="Helvetica,sans-Serif" font-size="10.00">cstdio</text>
</g>
<!-- Node6&#45;&gt;Node7 -->
<g id="edge7" class="edge"><title>Node6&#45;&gt;Node7</title>
<path fill="none" stroke="midnightblue" d="M1303.1,-123.475C1303.1,-115.08 1303.1,-101.981 1303.1,-91.1631"/>
<polygon fill="midnightblue" stroke="midnightblue" points="1306.6,-91.0091 1303.1,-81.0091 1299.6,-91.0091 1306.6,-91.0091"/>
</g>
<!-- Node8&#45;&gt;Node3 -->
<g id="edge10" class="edge"><title>Node8&#45;&gt;Node3</title>
<path fill="none" stroke="midnightblue" d="M562.234,-235.179C570.437,-226.209 583.383,-211.842 594.098,-199 626.099,-160.645 661.785,-114.035 680.332,-89.4975"/>
<polygon fill="midnightblue" stroke="midnightblue" points="683.334,-91.3297 686.559,-81.2374 677.744,-87.1162 683.334,-91.3297"/>
</g>
<!-- Node8&#45;&gt;Node4 -->
<g id="edge11" class="edge"><title>Node8&#45;&gt;Node4</title>
<path fill="none" stroke="midnightblue" d="M558.1,-235.368C566.404,-217.456 585.661,-175.923 596.776,-151.948"/>
<polygon fill="midnightblue" stroke="midnightblue" points="600.083,-153.136 601.114,-142.591 593.733,-150.192 600.083,-153.136"/>
</g>
<!-- Node9 -->
<g id="node9" class="node"><title>Node9</title>
<g id="a_node9"><a xlink:href="position_8h.xhtml" target="_top" xlink:title="API for handling positions. ">
<polygon fill="white" stroke="black" points="759.598,-179.5 759.598,-198.5 900.598,-198.5 900.598,-179.5 759.598,-179.5"/>
<text text-anchor="middle" x="830.098" y="-186.5" font-family="Helvetica,sans-Serif" font-size="10.00">gromacs/selection/position.h</text>
</a>
</g>
</g>
<!-- Node8&#45;&gt;Node9 -->
<g id="edge12" class="edge"><title>Node8&#45;&gt;Node9</title>
<path fill="none" stroke="midnightblue" d="M597.831,-235.444C646.281,-225.964 724.427,-210.675 776.516,-200.483"/>
<polygon fill="midnightblue" stroke="midnightblue" points="777.427,-203.871 786.569,-198.516 776.083,-197.002 777.427,-203.871"/>
</g>
<!-- Node10 -->
<g id="node10" class="node"><title>Node10</title>
<g id="a_node10"><a xlink:href="selectionenums_8h.xhtml" target="_top" xlink:title="Declares common types used in selections. ">
<polygon fill="white" stroke="black" points="61.0977,-179.5 61.0977,-198.5 237.098,-198.5 237.098,-179.5 61.0977,-179.5"/>
<text text-anchor="middle" x="149.098" y="-186.5" font-family="Helvetica,sans-Serif" font-size="10.00">gromacs/selection/selectionenums.h</text>
</a>
</g>
</g>
<!-- Node8&#45;&gt;Node10 -->
<g id="edge14" class="edge"><title>Node8&#45;&gt;Node10</title>
<path fill="none" stroke="midnightblue" d="M489.924,-235.444C417.348,-225.767 299.361,-210.035 222.997,-199.853"/>
<polygon fill="midnightblue" stroke="midnightblue" points="223.346,-196.369 212.971,-198.516 222.421,-203.307 223.346,-196.369"/>
</g>
<!-- Node12 -->
<g id="node12" class="node"><title>Node12</title>
<g id="a_node12"><a xlink:href="arrayref_8h.xhtml" target="_top" xlink:title="Declares gmx::ArrayRef and gmx::ConstArrayRef. ">
<polygon fill="white" stroke="black" points="321.598,-179.5 321.598,-198.5 446.598,-198.5 446.598,-179.5 321.598,-179.5"/>
<text text-anchor="middle" x="384.098" y="-186.5" font-family="Helvetica,sans-Serif" font-size="10.00">gromacs/utility/arrayref.h</text>
</a>
</g>
</g>
<!-- Node8&#45;&gt;Node12 -->
<g id="edge16" class="edge"><title>Node8&#45;&gt;Node12</title>
<path fill="none" stroke="midnightblue" d="M527.161,-235.444C498.437,-226.32 452.769,-211.813 420.777,-201.651"/>
<polygon fill="midnightblue" stroke="midnightblue" points="421.499,-198.208 410.909,-198.516 419.38,-204.88 421.499,-198.208"/>
</g>
<!-- Node17 -->
<g id="node17" class="node"><title>Node17</title>
<g id="a_node17"><a xlink:href="gmxassert_8h.xhtml" target="_top" xlink:title="Defines assert macros customized for Gromacs. ">
<polygon fill="white" stroke="black" points="160.598,-123.5 160.598,-142.5 297.598,-142.5 297.598,-123.5 160.598,-123.5"/>
<text text-anchor="middle" x="229.098" y="-130.5" font-family="Helvetica,sans-Serif" font-size="10.00">gromacs/utility/gmxassert.h</text>
</a>
</g>
</g>
<!-- Node8&#45;&gt;Node17 -->
<g id="edge29" class="edge"><title>Node8&#45;&gt;Node17</title>
<path fill="none" stroke="midnightblue" d="M480.968,-239.543C431.49,-234.367 365.651,-223.18 312.098,-199 285.676,-187.07 260.177,-165.02 244.572,-149.94"/>
<polygon fill="midnightblue" stroke="midnightblue" points="246.924,-147.343 237.362,-142.78 241.991,-152.31 246.924,-147.343"/>
</g>
<!-- Node22 -->
<g id="node22" class="node"><title>Node22</title>
<g id="a_node22"><a xlink:href="classhelpers_8h.xhtml" target="_top" xlink:title="Declares common utility classes and macros. ">
<polygon fill="white" stroke="black" points="919.098,-179.5 919.098,-198.5 1065.1,-198.5 1065.1,-179.5 919.098,-179.5"/>
<text text-anchor="middle" x="992.098" y="-186.5" font-family="Helvetica,sans-Serif" font-size="10.00">gromacs/utility/classhelpers.h</text>
</a>
</g>
</g>
<!-- Node8&#45;&gt;Node22 -->
<g id="edge27" class="edge"><title>Node8&#45;&gt;Node22</title>
<path fill="none" stroke="midnightblue" d="M623.5,-235.444C702.231,-225.737 830.372,-209.939 912.934,-199.76"/>
<polygon fill="midnightblue" stroke="midnightblue" points="913.523,-203.214 923.02,-198.516 912.667,-196.266 913.523,-203.214"/>
</g>
<!-- Node9&#45;&gt;Node6 -->
<g id="edge13" class="edge"><title>Node9&#45;&gt;Node6</title>
<path fill="none" stroke="midnightblue" d="M900.655,-179.945C986.418,-170.154 1130.87,-153.662 1221.38,-143.329"/>
<polygon fill="midnightblue" stroke="midnightblue" points="1221.79,-146.805 1231.33,-142.193 1221,-139.85 1221.79,-146.805"/>
</g>
<!-- Node11 -->
<g id="node11" class="node"><title>Node11</title>
<g id="a_node11"><a xlink:href="flags_8h.xhtml" target="_top" xlink:title="Declares gmx::FlagsTemplate. ">
<polygon fill="white" stroke="black" points="29.5977,-123.5 29.5977,-142.5 142.598,-142.5 142.598,-123.5 29.5977,-123.5"/>
<text text-anchor="middle" x="86.0977" y="-130.5" font-family="Helvetica,sans-Serif" font-size="10.00">gromacs/utility/flags.h</text>
</a>
</g>
</g>
<!-- Node10&#45;&gt;Node11 -->
<g id="edge15" class="edge"><title>Node10&#45;&gt;Node11</title>
<path fill="none" stroke="midnightblue" d="M138.976,-179.324C129.571,-171.263 115.354,-159.077 104.029,-149.369"/>
<polygon fill="midnightblue" stroke="midnightblue" points="106.274,-146.684 96.4039,-142.834 101.719,-151.999 106.274,-146.684"/>
</g>
<!-- Node12&#45;&gt;Node4 -->
<g id="edge21" class="edge"><title>Node12&#45;&gt;Node4</title>
<path fill="none" stroke="midnightblue" d="M422.812,-179.427C459.201,-171.237 515.407,-158.248 572.812,-143.246"/>
<polygon fill="midnightblue" stroke="midnightblue" points="574.003,-146.552 582.784,-140.623 572.222,-139.782 574.003,-146.552"/>
</g>
<!-- Node13 -->
<g id="node13" class="node"><title>Node13</title>
<polygon fill="white" stroke="#bfbfbf" points="315.598,-123.5 315.598,-142.5 364.598,-142.5 364.598,-123.5 315.598,-123.5"/>
<text text-anchor="middle" x="340.098" y="-130.5" font-family="Helvetica,sans-Serif" font-size="10.00">cstddef</text>
</g>
<!-- Node12&#45;&gt;Node13 -->
<g id="edge17" class="edge"><title>Node12&#45;&gt;Node13</title>
<path fill="none" stroke="midnightblue" d="M376.832,-179.083C370.553,-171.377 361.31,-160.033 353.667,-150.653"/>
<polygon fill="midnightblue" stroke="midnightblue" points="356.258,-148.293 347.228,-142.751 350.832,-152.714 356.258,-148.293"/>
</g>
<!-- Node14 -->
<g id="node14" class="node"><title>Node14</title>
<polygon fill="white" stroke="#bfbfbf" points="382.598,-123.5 382.598,-142.5 429.598,-142.5 429.598,-123.5 382.598,-123.5"/>
<text text-anchor="middle" x="406.098" y="-130.5" font-family="Helvetica,sans-Serif" font-size="10.00">iterator</text>
</g>
<!-- Node12&#45;&gt;Node14 -->
<g id="edge18" class="edge"><title>Node12&#45;&gt;Node14</title>
<path fill="none" stroke="midnightblue" d="M387.731,-179.083C390.71,-171.77 395.024,-161.181 398.722,-152.103"/>
<polygon fill="midnightblue" stroke="midnightblue" points="402.001,-153.333 402.532,-142.751 395.518,-150.691 402.001,-153.333"/>
</g>
<!-- Node15 -->
<g id="node15" class="node"><title>Node15</title>
<polygon fill="white" stroke="#bfbfbf" points="447.598,-123.5 447.598,-142.5 506.598,-142.5 506.598,-123.5 447.598,-123.5"/>
<text text-anchor="middle" x="477.098" y="-130.5" font-family="Helvetica,sans-Serif" font-size="10.00">stdexcept</text>
</g>
<!-- Node12&#45;&gt;Node15 -->
<g id="edge19" class="edge"><title>Node12&#45;&gt;Node15</title>
<path fill="none" stroke="midnightblue" d="M399.04,-179.324C413.683,-170.822 436.231,-157.729 453.335,-147.797"/>
<polygon fill="midnightblue" stroke="midnightblue" points="455.302,-150.703 462.193,-142.655 451.787,-144.649 455.302,-150.703"/>
</g>
<!-- Node16 -->
<g id="node16" class="node"><title>Node16</title>
<polygon fill="white" stroke="#bfbfbf" points="525.098,-123.5 525.098,-142.5 565.098,-142.5 565.098,-123.5 525.098,-123.5"/>
<text text-anchor="middle" x="545.098" y="-130.5" font-family="Helvetica,sans-Serif" font-size="10.00">utility</text>
</g>
<!-- Node12&#45;&gt;Node16 -->
<g id="edge20" class="edge"><title>Node12&#45;&gt;Node16</title>
<path fill="none" stroke="midnightblue" d="M409.609,-179.444C438.287,-169.825 484.801,-154.224 515.172,-144.037"/>
<polygon fill="midnightblue" stroke="midnightblue" points="516.436,-147.305 524.804,-140.807 514.21,-140.668 516.436,-147.305"/>
</g>
<!-- Node12&#45;&gt;Node17 -->
<g id="edge22" class="edge"><title>Node12&#45;&gt;Node17</title>
<path fill="none" stroke="midnightblue" d="M359.537,-179.444C333.575,-170.399 292.43,-156.064 263.301,-145.916"/>
<polygon fill="midnightblue" stroke="midnightblue" points="264.138,-142.501 253.543,-142.516 261.835,-149.112 264.138,-142.501"/>
</g>
<!-- Node18 -->
<g id="node18" class="node"><title>Node18</title>
<g id="a_node18"><a xlink:href="basedefinitions_8h.xhtml" target="_top" xlink:title="Basic types and macros used throughout GROMACS. ">
<polygon fill="white" stroke="black" points="226.598,-62 226.598,-81 383.598,-81 383.598,-62 226.598,-62"/>
<text text-anchor="middle" x="305.098" y="-69" font-family="Helvetica,sans-Serif" font-size="10.00">gromacs/utility/basedefinitions.h</text>
</a>
</g>
</g>
<!-- Node17&#45;&gt;Node18 -->
<g id="edge23" class="edge"><title>Node17&#45;&gt;Node18</title>
<path fill="none" stroke="midnightblue" d="M239.987,-123.475C252.064,-114.02 271.765,-98.5961 286.338,-87.1871"/>
<polygon fill="midnightblue" stroke="midnightblue" points="288.513,-89.9295 294.229,-81.0091 284.197,-84.4177 288.513,-89.9295"/>
</g>
<!-- Node21 -->
<g id="node21" class="node"><title>Node21</title>
<g id="a_node21"><a xlink:href="current__function_8h.xhtml" target="_top" xlink:title="Declares GMX_CURRENT_FUNCTION for getting the current function name. ">
<polygon fill="white" stroke="black" points="95.5977,-56.5 95.5977,-86.5 208.598,-86.5 208.598,-56.5 95.5977,-56.5"/>
<text text-anchor="start" x="103.598" y="-74.5" font-family="Helvetica,sans-Serif" font-size="10.00">gromacs/utility/current</text>
<text text-anchor="middle" x="152.098" y="-63.5" font-family="Helvetica,sans-Serif" font-size="10.00">_function.h</text>
</a>
</g>
</g>
<!-- Node17&#45;&gt;Node21 -->
<g id="edge26" class="edge"><title>Node17&#45;&gt;Node21</title>
<path fill="none" stroke="midnightblue" d="M218.065,-123.475C207.734,-115.492 191.897,-103.254 178.33,-92.7703"/>
<polygon fill="midnightblue" stroke="midnightblue" points="180.298,-89.868 170.245,-86.523 176.018,-95.407 180.298,-89.868"/>
</g>
<!-- Node19 -->
<g id="node19" class="node"><title>Node19</title>
<polygon fill="white" stroke="#bfbfbf" points="244.598,-0.5 244.598,-19.5 293.598,-19.5 293.598,-0.5 244.598,-0.5"/>
<text text-anchor="middle" x="269.098" y="-7.5" font-family="Helvetica,sans-Serif" font-size="10.00">stdint.h</text>
</g>
<!-- Node18&#45;&gt;Node19 -->
<g id="edge24" class="edge"><title>Node18&#45;&gt;Node19</title>
<path fill="none" stroke="midnightblue" d="M299.94,-61.9751C294.647,-53.2268 286.262,-39.3691 279.571,-28.3093"/>
<polygon fill="midnightblue" stroke="midnightblue" points="282.417,-26.2531 274.246,-19.5091 276.428,-29.8768 282.417,-26.2531"/>
</g>
<!-- Node20 -->
<g id="node20" class="node"><title>Node20</title>
<polygon fill="white" stroke="#bfbfbf" points="311.598,-0.5 311.598,-19.5 370.598,-19.5 370.598,-0.5 311.598,-0.5"/>
<text text-anchor="middle" x="341.098" y="-7.5" font-family="Helvetica,sans-Serif" font-size="10.00">inttypes.h</text>
</g>
<!-- Node18&#45;&gt;Node20 -->
<g id="edge25" class="edge"><title>Node18&#45;&gt;Node20</title>
<path fill="none" stroke="midnightblue" d="M310.256,-61.9751C315.549,-53.2268 323.933,-39.3691 330.625,-28.3093"/>
<polygon fill="midnightblue" stroke="midnightblue" points="333.767,-29.8768 335.949,-19.5091 327.778,-26.2531 333.767,-29.8768"/>
</g>
<!-- Node22&#45;&gt;Node2 -->
<g id="edge28" class="edge"><title>Node22&#45;&gt;Node2</title>
<path fill="none" stroke="midnightblue" d="M1000.35,-179.083C1007.56,-171.298 1018.21,-159.801 1026.94,-150.367"/>
<polygon fill="midnightblue" stroke="midnightblue" points="1029.77,-152.467 1033.99,-142.751 1024.63,-147.711 1029.77,-152.467"/>
</g>
<!-- Node23&#45;&gt;Node3 -->
<g id="edge32" class="edge"><title>Node23&#45;&gt;Node3</title>
<path fill="none" stroke="midnightblue" d="M666.127,-296.931C670.174,-263.254 685.047,-139.494 690.802,-91.6018"/>
<polygon fill="midnightblue" stroke="midnightblue" points="694.31,-91.742 692.029,-81.3958 687.36,-90.9067 694.31,-91.742"/>
</g>
<!-- Node23&#45;&gt;Node4 -->
<g id="edge33" class="edge"><title>Node23&#45;&gt;Node4</title>
<path fill="none" stroke="midnightblue" d="M662.04,-296.76C652.691,-270.036 624.346,-189.017 611.522,-152.362"/>
<polygon fill="midnightblue" stroke="midnightblue" points="614.684,-150.803 608.078,-142.519 608.077,-153.114 614.684,-150.803"/>
</g>
<!-- Node23&#45;&gt;Node7 -->
<g id="edge31" class="edge"><title>Node23&#45;&gt;Node7</title>
<path fill="none" stroke="midnightblue" d="M759.151,-298.132C922.034,-285.297 1241.67,-259.747 1266.1,-255 1348.76,-238.936 1374.08,-240.941 1447.1,-199 1484.66,-177.428 1534.81,-157.093 1508.1,-123 1486.89,-95.94 1386.7,-81.4224 1334.66,-75.595"/>
<polygon fill="midnightblue" stroke="midnightblue" points="1334.95,-72.1059 1324.63,-74.5131 1334.2,-79.0655 1334.95,-72.1059"/>
</g>
<!-- Node23&#45;&gt;Node8 -->
<g id="edge34" class="edge"><title>Node23&#45;&gt;Node8</title>
<path fill="none" stroke="midnightblue" d="M649.194,-296.975C630.813,-287.122 600.341,-270.788 578.853,-259.27"/>
<polygon fill="midnightblue" stroke="midnightblue" points="580.439,-256.149 569.972,-254.509 577.132,-262.318 580.439,-256.149"/>
</g>
<!-- Node23&#45;&gt;Node22 -->
<g id="edge35" class="edge"><title>Node23&#45;&gt;Node22</title>
<path fill="none" stroke="midnightblue" d="M689.409,-296.913C746.99,-276.575 891.82,-225.419 958.068,-202.02"/>
<polygon fill="midnightblue" stroke="midnightblue" points="959.363,-205.274 967.627,-198.643 957.032,-198.674 959.363,-205.274"/>
</g>
<!-- Node24&#45;&gt;Node7 -->
<g id="edge37" class="edge"><title>Node24&#45;&gt;Node7</title>
<path fill="none" stroke="midnightblue" d="M1154.41,-235.458C1162.93,-214.3 1187.44,-158.602 1222.1,-123 1237.17,-107.515 1257.91,-94.7023 1274.62,-85.8571"/>
<polygon fill="midnightblue" stroke="midnightblue" points="1276.61,-88.7749 1283.93,-81.1175 1273.43,-82.5374 1276.61,-88.7749"/>
</g>
<!-- Node24&#45;&gt;Node22 -->
<g id="edge38" class="edge"><title>Node24&#45;&gt;Node22</title>
<path fill="none" stroke="midnightblue" d="M1125.9,-235.444C1099.16,-226.359 1056.7,-211.939 1026.79,-201.783"/>
<polygon fill="midnightblue" stroke="midnightblue" points="1027.77,-198.418 1017.17,-198.516 1025.52,-205.046 1027.77,-198.418"/>
</g>
<!-- Node25&#45;&gt;Node2 -->
<g id="edge40" class="edge"><title>Node25&#45;&gt;Node2</title>
<path fill="none" stroke="midnightblue" d="M1213.5,-235.368C1181.45,-216.412 1104.66,-171.001 1065.67,-147.942"/>
<polygon fill="midnightblue" stroke="midnightblue" points="1067.01,-144.669 1056.63,-142.591 1063.45,-150.694 1067.01,-144.669"/>
</g>
<!-- Node25&#45;&gt;Node3 -->
<g id="edge41" class="edge"><title>Node25&#45;&gt;Node3</title>
<path fill="none" stroke="midnightblue" d="M1220.67,-235.345C1200.39,-212.379 1141.26,-149.817 1077.1,-123 1013.25,-96.3148 803.856,-79.8959 724.218,-74.4844"/>
<polygon fill="midnightblue" stroke="midnightblue" points="724.081,-70.9676 713.87,-73.794 723.615,-77.9521 724.081,-70.9676"/>
</g>
<!-- Node25&#45;&gt;Node6 -->
<g id="edge42" class="edge"><title>Node25&#45;&gt;Node6</title>
<path fill="none" stroke="midnightblue" d="M1233.98,-235.368C1246.36,-217.215 1275.28,-174.802 1291.51,-150.99"/>
<polygon fill="midnightblue" stroke="midnightblue" points="1294.5,-152.825 1297.24,-142.591 1288.71,-148.882 1294.5,-152.825"/>
</g>
<!-- Node25&#45;&gt;Node22 -->
<g id="edge43" class="edge"><title>Node25&#45;&gt;Node22</title>
<path fill="none" stroke="midnightblue" d="M1198.29,-237.114C1195.19,-236.399 1192.08,-235.684 1189.1,-235 1137.98,-223.264 1079.39,-209.89 1039.48,-200.793"/>
<polygon fill="midnightblue" stroke="midnightblue" points="1040.03,-197.328 1029.5,-198.518 1038.48,-204.153 1040.03,-197.328"/>
</g>
<!-- Node26 -->
<g id="node26" class="node"><title>Node26</title>
<g id="a_node26"><a xlink:href="real_8h.xhtml" target="_top" xlink:title="Declares real and related constants. ">
<polygon fill="white" stroke="black" points="1392.6,-123.5 1392.6,-142.5 1499.6,-142.5 1499.6,-123.5 1392.6,-123.5"/>
<text text-anchor="middle" x="1446.1" y="-130.5" font-family="Helvetica,sans-Serif" font-size="10.00">gromacs/utility/real.h</text>
</a>
</g>
</g>
<!-- Node25&#45;&gt;Node26 -->
<g id="edge44" class="edge"><title>Node25&#45;&gt;Node26</title>
<path fill="none" stroke="midnightblue" d="M1257.87,-238.048C1311.62,-227.189 1419.9,-204.754 1426.1,-199 1438.8,-187.215 1443.51,-167.579 1445.22,-152.967"/>
<polygon fill="midnightblue" stroke="midnightblue" points="1448.74,-152.816 1446.04,-142.572 1441.76,-152.265 1448.74,-152.816"/>
</g>
<!-- Node27 -->
<g id="node27" class="node"><title>Node27</title>
<g id="a_node27"><a xlink:href="selvalue_8h.xhtml" target="_top" xlink:title="Declares gmx_ana_selvalue_t. ">
<polygon fill="white" stroke="black" points="1356.6,-179.5 1356.6,-198.5 1417.6,-198.5 1417.6,-179.5 1356.6,-179.5"/>
<text text-anchor="middle" x="1387.1" y="-186.5" font-family="Helvetica,sans-Serif" font-size="10.00">selvalue.h</text>
</a>
</g>
</g>
<!-- Node25&#45;&gt;Node27 -->
<g id="edge45" class="edge"><title>Node25&#45;&gt;Node27</title>
<path fill="none" stroke="midnightblue" d="M1253.29,-235.444C1280.04,-226.359 1322.5,-211.939 1352.4,-201.783"/>
<polygon fill="midnightblue" stroke="midnightblue" points="1353.68,-205.046 1362.02,-198.516 1351.43,-198.418 1353.68,-205.046"/>
</g>
<!-- Node27&#45;&gt;Node26 -->
<g id="edge46" class="edge"><title>Node27&#45;&gt;Node26</title>
<path fill="none" stroke="midnightblue" d="M1396.58,-179.324C1405.3,-171.341 1418.44,-159.313 1429,-149.653"/>
<polygon fill="midnightblue" stroke="midnightblue" points="1431.43,-152.167 1436.45,-142.834 1426.71,-147.004 1431.43,-152.167"/>
</g>
</g>
</svg>
