<?xml version="1.0" encoding="UTF-8" standalone="no"?>
<!DOCTYPE svg PUBLIC "-//W3C//DTD SVG 1.1//EN"
 "http://www.w3.org/Graphics/SVG/1.1/DTD/svg11.dtd">
<!-- Generated by graphviz version 2.38.0 (20140413.2041)
 -->
<!-- Title: src/gromacs/selection/selectionoptionstorage.h Pages: 1 -->
<svg width="1748pt" height="386pt"
 viewBox="0.00 0.00 1747.50 386.00" xmlns="http://www.w3.org/2000/svg" xmlns:xlink="http://www.w3.org/1999/xlink">
<g id="graph0" class="graph" transform="scale(1 1) rotate(0) translate(4 382)">
<title>src/gromacs/selection/selectionoptionstorage.h</title>
<polygon fill="white" stroke="none" points="-4,4 -4,-382 1743.5,-382 1743.5,4 -4,4"/>
<!-- Node1 -->
<g id="node1" class="node"><title>Node1</title>
<polygon fill="#bfbfbf" stroke="black" points="1037,-347.5 1037,-377.5 1162,-377.5 1162,-347.5 1037,-347.5"/>
<text text-anchor="start" x="1045" y="-365.5" font-family="Helvetica,sans-Serif" font-size="10.00">src/gromacs/selection</text>
<text text-anchor="middle" x="1099.5" y="-354.5" font-family="Helvetica,sans-Serif" font-size="10.00">/selectionoptionstorage.h</text>
</g>
<!-- Node2 -->
<g id="node2" class="node"><title>Node2</title>
<polygon fill="white" stroke="#bfbfbf" points="909,-62 909,-81 950,-81 950,-62 909,-62"/>
<text text-anchor="middle" x="929.5" y="-69" font-family="Helvetica,sans-Serif" font-size="10.00">string</text>
</g>
<!-- Node1&#45;&gt;Node2 -->
<g id="edge1" class="edge"><title>Node1&#45;&gt;Node2</title>
<path fill="none" stroke="midnightblue" d="M1036.66,-361.259C809.542,-359.568 44.5,-346.418 44.5,-246 44.5,-246 44.5,-246 44.5,-188 44.5,-149.577 67.001,-139.917 101.5,-123 137.966,-105.119 753.21,-79.534 898.796,-73.7105"/>
<polygon fill="midnightblue" stroke="midnightblue" points="898.974,-77.2063 908.827,-73.3109 898.695,-70.2118 898.974,-77.2063"/>
</g>
<!-- Node3 -->
<g id="node3" class="node"><title>Node3</title>
<g id="a_node3"><a xlink:href="optionstoragetemplate_8h.xhtml" target="_top" xlink:title="Defines gmx::OptionStorageTemplate template. ">
<polygon fill="white" stroke="black" points="591.5,-235.5 591.5,-254.5 787.5,-254.5 787.5,-235.5 591.5,-235.5"/>
<text text-anchor="middle" x="689.5" y="-242.5" font-family="Helvetica,sans-Serif" font-size="10.00">gromacs/options/optionstoragetemplate.h</text>
</a>
</g>
</g>
<!-- Node1&#45;&gt;Node3 -->
<g id="edge2" class="edge"><title>Node1&#45;&gt;Node3</title>
<path fill="none" stroke="midnightblue" d="M1049.64,-347.453C967.495,-324.313 805.33,-278.63 729.877,-257.375"/>
<polygon fill="midnightblue" stroke="midnightblue" points="730.398,-253.885 719.823,-254.542 728.5,-260.623 730.398,-253.885"/>
</g>
<!-- Node22 -->
<g id="node22" class="node"><title>Node22</title>
<g id="a_node22"><a xlink:href="selection_2selection_8h.xhtml" target="_top" xlink:title="Declares gmx::Selection and supporting classes. ">
<polygon fill="white" stroke="black" points="1141.5,-235.5 1141.5,-254.5 1287.5,-254.5 1287.5,-235.5 1141.5,-235.5"/>
<text text-anchor="middle" x="1214.5" y="-242.5" font-family="Helvetica,sans-Serif" font-size="10.00">gromacs/selection/selection.h</text>
</a>
</g>
</g>
<!-- Node1&#45;&gt;Node22 -->
<g id="edge36" class="edge"><title>Node1&#45;&gt;Node22</title>
<path fill="none" stroke="midnightblue" d="M1099.88,-347.464C1101,-331.98 1104.98,-307.123 1118.5,-291 1131.47,-275.53 1150.95,-265.055 1168.98,-258.136"/>
<polygon fill="midnightblue" stroke="midnightblue" points="1170.55,-261.294 1178.8,-254.648 1168.2,-254.698 1170.55,-261.294"/>
</g>
<!-- Node25 -->
<g id="node25" class="node"><title>Node25</title>
<g id="a_node25"><a xlink:href="selectionenums_8h.xhtml" target="_top" xlink:title="Declares common types used in selections. ">
<polygon fill="white" stroke="black" points="1563.5,-179.5 1563.5,-198.5 1739.5,-198.5 1739.5,-179.5 1563.5,-179.5"/>
<text text-anchor="middle" x="1651.5" y="-186.5" font-family="Helvetica,sans-Serif" font-size="10.00">gromacs/selection/selectionenums.h</text>
</a>
</g>
</g>
<!-- Node1&#45;&gt;Node25 -->
<g id="edge54" class="edge"><title>Node1&#45;&gt;Node25</title>
<path fill="none" stroke="midnightblue" d="M1162.44,-348.163C1204.39,-338.833 1260.6,-325.486 1309.5,-311 1425.67,-276.584 1560.37,-225.566 1620.15,-202.331"/>
<polygon fill="midnightblue" stroke="midnightblue" points="1621.71,-205.479 1629.75,-198.586 1619.17,-198.958 1621.71,-205.479"/>
</g>
<!-- Node31 -->
<g id="node31" class="node"><title>Node31</title>
<g id="a_node31"><a xlink:href="selectionoption_8h.xhtml" target="_top" xlink:title="Declares gmx::SelectionOption and gmx::SelectionOptionInfo. ">
<polygon fill="white" stroke="black" points="1128,-291.5 1128,-310.5 1301,-310.5 1301,-291.5 1128,-291.5"/>
<text text-anchor="middle" x="1214.5" y="-298.5" font-family="Helvetica,sans-Serif" font-size="10.00">gromacs/selection/selectionoption.h</text>
</a>
</g>
</g>
<!-- Node1&#45;&gt;Node31 -->
<g id="edge55" class="edge"><title>Node1&#45;&gt;Node31</title>
<path fill="none" stroke="midnightblue" d="M1126.75,-347.399C1145.53,-337.684 1170.33,-324.855 1188.77,-315.314"/>
<polygon fill="midnightblue" stroke="midnightblue" points="1190.49,-318.362 1197.77,-310.658 1187.28,-312.145 1190.49,-318.362"/>
</g>
<!-- Node3&#45;&gt;Node2 -->
<g id="edge4" class="edge"><title>Node3&#45;&gt;Node2</title>
<path fill="none" stroke="midnightblue" d="M690.986,-235.482C695.298,-213.386 709.911,-153.813 746.5,-123 790.376,-86.0507 859.177,-76.0005 898.732,-73.3525"/>
<polygon fill="midnightblue" stroke="midnightblue" points="899.04,-76.8409 908.832,-72.7958 898.655,-69.8515 899.04,-76.8409"/>
</g>
<!-- Node4 -->
<g id="node4" class="node"><title>Node4</title>
<polygon fill="white" stroke="#bfbfbf" points="175.5,-62 175.5,-81 227.5,-81 227.5,-62 175.5,-62"/>
<text text-anchor="middle" x="201.5" y="-69" font-family="Helvetica,sans-Serif" font-size="10.00">memory</text>
</g>
<!-- Node3&#45;&gt;Node4 -->
<g id="edge3" class="edge"><title>Node3&#45;&gt;Node4</title>
<path fill="none" stroke="midnightblue" d="M591.231,-242.174C440.004,-237.013 161.372,-217.384 101.5,-143 95.9265,-136.076 96.8419,-130.571 101.5,-123 105.625,-116.295 144.533,-97.8709 172.576,-85.2335"/>
<polygon fill="midnightblue" stroke="midnightblue" points="174.268,-88.3112 181.967,-81.0336 171.41,-81.9211 174.268,-88.3112"/>
</g>
<!-- Node5 -->
<g id="node5" class="node"><title>Node5</title>
<polygon fill="white" stroke="#bfbfbf" points="1161.5,-123.5 1161.5,-142.5 1205.5,-142.5 1205.5,-123.5 1161.5,-123.5"/>
<text text-anchor="middle" x="1183.5" y="-130.5" font-family="Helvetica,sans-Serif" font-size="10.00">vector</text>
</g>
<!-- Node3&#45;&gt;Node5 -->
<g id="edge5" class="edge"><title>Node3&#45;&gt;Node5</title>
<path fill="none" stroke="midnightblue" d="M787.769,-243.501C901.368,-241.316 1080.09,-232.447 1137.5,-199 1155.75,-188.37 1168.6,-167.283 1175.99,-152.004"/>
<polygon fill="midnightblue" stroke="midnightblue" points="1179.33,-153.109 1180.24,-142.553 1172.95,-150.238 1179.33,-153.109"/>
</g>
<!-- Node6 -->
<g id="node6" class="node"><title>Node6</title>
<g id="a_node6"><a xlink:href="abstractoption_8h.xhtml" target="_top" xlink:title="Defines gmx::AbstractOption, gmx::OptionTemplate and gmx::OptionInfo. ">
<polygon fill="white" stroke="black" points="968,-179.5 968,-198.5 1129,-198.5 1129,-179.5 968,-179.5"/>
<text text-anchor="middle" x="1048.5" y="-186.5" font-family="Helvetica,sans-Serif" font-size="10.00">gromacs/options/abstractoption.h</text>
</a>
</g>
</g>
<!-- Node3&#45;&gt;Node6 -->
<g id="edge6" class="edge"><title>Node3&#45;&gt;Node6</title>
<path fill="none" stroke="midnightblue" d="M746.385,-235.444C810.324,-225.826 914.024,-210.228 981.747,-200.041"/>
<polygon fill="midnightblue" stroke="midnightblue" points="982.513,-203.465 991.882,-198.516 981.472,-196.543 982.513,-203.465"/>
</g>
<!-- Node10 -->
<g id="node10" class="node"><title>Node10</title>
<g id="a_node10"><a xlink:href="abstractoptionstorage_8h.xhtml" target="_top" xlink:title="Declares gmx::AbstractOptionStorage. ">
<polygon fill="white" stroke="black" points="755.5,-179.5 755.5,-198.5 949.5,-198.5 949.5,-179.5 755.5,-179.5"/>
<text text-anchor="middle" x="852.5" y="-186.5" font-family="Helvetica,sans-Serif" font-size="10.00">gromacs/options/abstractoptionstorage.h</text>
</a>
</g>
</g>
<!-- Node3&#45;&gt;Node10 -->
<g id="edge13" class="edge"><title>Node3&#45;&gt;Node10</title>
<path fill="none" stroke="midnightblue" d="M715.328,-235.444C742.749,-226.359 786.277,-211.939 816.932,-201.783"/>
<polygon fill="midnightblue" stroke="midnightblue" points="818.401,-204.984 826.793,-198.516 816.2,-198.339 818.401,-204.984"/>
</g>
<!-- Node11 -->
<g id="node11" class="node"><title>Node11</title>
<g id="a_node11"><a xlink:href="basedefinitions_8h.xhtml" target="_top" xlink:title="Basic types and macros used throughout GROMACS. ">
<polygon fill="white" stroke="black" points="0,-62 0,-81 157,-81 157,-62 0,-62"/>
<text text-anchor="middle" x="78.5" y="-69" font-family="Helvetica,sans-Serif" font-size="10.00">gromacs/utility/basedefinitions.h</text>
</a>
</g>
</g>
<!-- Node3&#45;&gt;Node11 -->
<g id="edge17" class="edge"><title>Node3&#45;&gt;Node11</title>
<path fill="none" stroke="midnightblue" d="M591.491,-243.161C459.425,-240.766 232.159,-231.831 156.5,-199 122.437,-184.219 113.261,-175.043 94.5,-143 85.2018,-127.119 81.306,-106.303 79.6744,-91.4139"/>
<polygon fill="midnightblue" stroke="midnightblue" points="83.1544,-91.0297 78.816,-81.3639 76.1798,-91.6255 83.1544,-91.0297"/>
</g>
<!-- Node14 -->
<g id="node14" class="node"><title>Node14</title>
<g id="a_node14"><a xlink:href="exceptions_8h.xhtml" target="_top" xlink:title="Declares common exception classes and macros for fatal error handling. ">
<polygon fill="white" stroke="black" points="367,-179.5 367,-198.5 506,-198.5 506,-179.5 367,-179.5"/>
<text text-anchor="middle" x="436.5" y="-186.5" font-family="Helvetica,sans-Serif" font-size="10.00">gromacs/utility/exceptions.h</text>
</a>
</g>
</g>
<!-- Node3&#45;&gt;Node14 -->
<g id="edge20" class="edge"><title>Node3&#45;&gt;Node14</title>
<path fill="none" stroke="midnightblue" d="M649.411,-235.444C605.184,-226.004 533.961,-210.802 486.215,-200.611"/>
<polygon fill="midnightblue" stroke="midnightblue" points="486.911,-197.181 476.401,-198.516 485.45,-204.027 486.911,-197.181"/>
</g>
<!-- Node21 -->
<g id="node21" class="node"><title>Node21</title>
<g id="a_node21"><a xlink:href="gmxassert_8h.xhtml" target="_top" xlink:title="Defines assert macros customized for Gromacs. ">
<polygon fill="white" stroke="black" points="562,-123.5 562,-142.5 699,-142.5 699,-123.5 562,-123.5"/>
<text text-anchor="middle" x="630.5" y="-130.5" font-family="Helvetica,sans-Serif" font-size="10.00">gromacs/utility/gmxassert.h</text>
</a>
</g>
</g>
<!-- Node3&#45;&gt;Node21 -->
<g id="edge35" class="edge"><title>Node3&#45;&gt;Node21</title>
<path fill="none" stroke="midnightblue" d="M674.41,-235.404C662.232,-227.588 645.807,-214.865 637.5,-199 630.014,-184.703 628.684,-166.236 628.982,-152.641"/>
<polygon fill="midnightblue" stroke="midnightblue" points="632.481,-152.737 629.515,-142.566 625.491,-152.368 632.481,-152.737"/>
</g>
<!-- Node6&#45;&gt;Node2 -->
<g id="edge7" class="edge"><title>Node6&#45;&gt;Node2</title>
<path fill="none" stroke="midnightblue" d="M1034.65,-179.465C1021.53,-171.044 1001.64,-157.376 986.5,-143 969.106,-126.489 952.224,-104.656 941.407,-89.6865"/>
<polygon fill="midnightblue" stroke="midnightblue" points="944.144,-87.4955 935.506,-81.3616 938.434,-91.5439 944.144,-87.4955"/>
</g>
<!-- Node6&#45;&gt;Node5 -->
<g id="edge8" class="edge"><title>Node6&#45;&gt;Node5</title>
<path fill="none" stroke="midnightblue" d="M1069.89,-179.444C1092.21,-170.517 1127.4,-156.439 1152.71,-146.317"/>
<polygon fill="midnightblue" stroke="midnightblue" points="1154.22,-149.48 1162.21,-142.516 1151.62,-142.981 1154.22,-149.48"/>
</g>
<!-- Node7 -->
<g id="node7" class="node"><title>Node7</title>
<g id="a_node7"><a xlink:href="optionflags_8h.xhtml" target="_top" xlink:title="Defines flags used in option implementation. ">
<polygon fill="white" stroke="black" points="996,-123.5 996,-142.5 1143,-142.5 1143,-123.5 996,-123.5"/>
<text text-anchor="middle" x="1069.5" y="-130.5" font-family="Helvetica,sans-Serif" font-size="10.00">gromacs/options/optionflags.h</text>
</a>
</g>
</g>
<!-- Node6&#45;&gt;Node7 -->
<g id="edge9" class="edge"><title>Node6&#45;&gt;Node7</title>
<path fill="none" stroke="midnightblue" d="M1051.97,-179.083C1054.81,-171.77 1058.93,-161.181 1062.46,-152.103"/>
<polygon fill="midnightblue" stroke="midnightblue" points="1065.73,-153.34 1066.1,-142.751 1059.21,-150.803 1065.73,-153.34"/>
</g>
<!-- Node9 -->
<g id="node9" class="node"><title>Node9</title>
<g id="a_node9"><a xlink:href="classhelpers_8h.xhtml" target="_top" xlink:title="Declares common utility classes and macros. ">
<polygon fill="white" stroke="black" points="755.5,-123.5 755.5,-142.5 901.5,-142.5 901.5,-123.5 755.5,-123.5"/>
<text text-anchor="middle" x="828.5" y="-130.5" font-family="Helvetica,sans-Serif" font-size="10.00">gromacs/utility/classhelpers.h</text>
</a>
</g>
</g>
<!-- Node6&#45;&gt;Node9 -->
<g id="edge11" class="edge"><title>Node6&#45;&gt;Node9</title>
<path fill="none" stroke="midnightblue" d="M1013.64,-179.444C975.584,-170.102 914.542,-155.119 873.04,-144.933"/>
<polygon fill="midnightblue" stroke="midnightblue" points="873.743,-141.501 863.197,-142.516 872.074,-148.299 873.743,-141.501"/>
</g>
<!-- Node8 -->
<g id="node8" class="node"><title>Node8</title>
<g id="a_node8"><a xlink:href="flags_8h.xhtml" target="_top" xlink:title="Declares gmx::FlagsTemplate. ">
<polygon fill="white" stroke="black" points="1422,-62 1422,-81 1535,-81 1535,-62 1422,-62"/>
<text text-anchor="middle" x="1478.5" y="-69" font-family="Helvetica,sans-Serif" font-size="10.00">gromacs/utility/flags.h</text>
</a>
</g>
</g>
<!-- Node7&#45;&gt;Node8 -->
<g id="edge10" class="edge"><title>Node7&#45;&gt;Node8</title>
<path fill="none" stroke="midnightblue" d="M1128.1,-123.475C1203.14,-112.558 1332.88,-93.6839 1411.69,-82.2199"/>
<polygon fill="midnightblue" stroke="midnightblue" points="1412.59,-85.6252 1421.98,-80.722 1411.58,-78.6981 1412.59,-85.6252"/>
</g>
<!-- Node9&#45;&gt;Node4 -->
<g id="edge12" class="edge"><title>Node9&#45;&gt;Node4</title>
<path fill="none" stroke="midnightblue" d="M755.348,-125.058C620.702,-112.281 338.227,-85.4749 237.85,-75.9494"/>
<polygon fill="midnightblue" stroke="midnightblue" points="237.904,-72.439 227.618,-74.9785 237.243,-79.4077 237.904,-72.439"/>
</g>
<!-- Node10&#45;&gt;Node2 -->
<g id="edge14" class="edge"><title>Node10&#45;&gt;Node2</title>
<path fill="none" stroke="midnightblue" d="M868.65,-179.43C881.818,-171.63 899.91,-158.916 910.5,-143 920.908,-127.357 925.633,-106.196 927.767,-91.1491"/>
<polygon fill="midnightblue" stroke="midnightblue" points="931.265,-91.3653 928.945,-81.0277 924.312,-90.5561 931.265,-91.3653"/>
</g>
<!-- Node10&#45;&gt;Node7 -->
<g id="edge15" class="edge"><title>Node10&#45;&gt;Node7</title>
<path fill="none" stroke="midnightblue" d="M886.884,-179.444C924.422,-170.102 984.631,-155.119 1025.57,-144.933"/>
<polygon fill="midnightblue" stroke="midnightblue" points="1026.42,-148.328 1035.28,-142.516 1024.73,-141.535 1026.42,-148.328"/>
</g>
<!-- Node10&#45;&gt;Node9 -->
<g id="edge16" class="edge"><title>Node10&#45;&gt;Node9</title>
<path fill="none" stroke="midnightblue" d="M848.537,-179.083C845.287,-171.77 840.581,-161.181 836.546,-152.103"/>
<polygon fill="midnightblue" stroke="midnightblue" points="839.649,-150.468 832.389,-142.751 833.252,-153.311 839.649,-150.468"/>
</g>
<!-- Node12 -->
<g id="node12" class="node"><title>Node12</title>
<polygon fill="white" stroke="#bfbfbf" points="18,-0.5 18,-19.5 67,-19.5 67,-0.5 18,-0.5"/>
<text text-anchor="middle" x="42.5" y="-7.5" font-family="Helvetica,sans-Serif" font-size="10.00">stdint.h</text>
</g>
<!-- Node11&#45;&gt;Node12 -->
<g id="edge18" class="edge"><title>Node11&#45;&gt;Node12</title>
<path fill="none" stroke="midnightblue" d="M73.3421,-61.9751C68.049,-53.2268 59.6645,-39.3691 52.9729,-28.3093"/>
<polygon fill="midnightblue" stroke="midnightblue" points="55.8196,-26.2531 47.6484,-19.5091 49.8305,-29.8768 55.8196,-26.2531"/>
</g>
<!-- Node13 -->
<g id="node13" class="node"><title>Node13</title>
<polygon fill="white" stroke="#bfbfbf" points="85,-0.5 85,-19.5 144,-19.5 144,-0.5 85,-0.5"/>
<text text-anchor="middle" x="114.5" y="-7.5" font-family="Helvetica,sans-Serif" font-size="10.00">inttypes.h</text>
</g>
<!-- Node11&#45;&gt;Node13 -->
<g id="edge19" class="edge"><title>Node11&#45;&gt;Node13</title>
<path fill="none" stroke="midnightblue" d="M83.6579,-61.9751C88.951,-53.2268 97.3355,-39.3691 104.027,-28.3093"/>
<polygon fill="midnightblue" stroke="midnightblue" points="107.17,-29.8768 109.352,-19.5091 101.18,-26.2531 107.17,-29.8768"/>
</g>
<!-- Node14&#45;&gt;Node2 -->
<g id="edge25" class="edge"><title>Node14&#45;&gt;Node2</title>
<path fill="none" stroke="midnightblue" d="M444.231,-179.47C457.855,-165.063 487.72,-136.192 519.5,-123 588.351,-94.4196 815.751,-78.9554 898.794,-74.1522"/>
<polygon fill="midnightblue" stroke="midnightblue" points="899.071,-77.6422 908.857,-73.5818 898.674,-70.6535 899.071,-77.6422"/>
</g>
<!-- Node14&#45;&gt;Node4 -->
<g id="edge24" class="edge"><title>Node14&#45;&gt;Node4</title>
<path fill="none" stroke="midnightblue" d="M366.663,-184.718C327.621,-179.862 279.857,-168.599 244.5,-143 226.591,-130.034 214.655,-107.105 207.994,-90.9221"/>
<polygon fill="midnightblue" stroke="midnightblue" points="211.208,-89.5266 204.369,-81.4344 204.669,-92.025 211.208,-89.5266"/>
</g>
<!-- Node14&#45;&gt;Node5 -->
<g id="edge28" class="edge"><title>Node14&#45;&gt;Node5</title>
<path fill="none" stroke="midnightblue" d="M506.281,-185.488C657.218,-179.755 1010.97,-164.636 1151.14,-142.573"/>
<polygon fill="midnightblue" stroke="midnightblue" points="1151.96,-145.986 1161.26,-140.904 1150.82,-139.079 1151.96,-145.986"/>
</g>
<!-- Node14&#45;&gt;Node9 -->
<g id="edge30" class="edge"><title>Node14&#45;&gt;Node9</title>
<path fill="none" stroke="midnightblue" d="M498.614,-179.444C568.717,-169.786 682.594,-154.099 756.52,-143.916"/>
<polygon fill="midnightblue" stroke="midnightblue" points="757.248,-147.348 766.677,-142.516 756.293,-140.414 757.248,-147.348"/>
</g>
<!-- Node14&#45;&gt;Node11 -->
<g id="edge29" class="edge"><title>Node14&#45;&gt;Node11</title>
<path fill="none" stroke="midnightblue" d="M366.737,-187.143C280.585,-184.668 140.616,-175.58 101.5,-143 86.2284,-130.28 81.0114,-107.264 79.276,-90.9956"/>
<polygon fill="midnightblue" stroke="midnightblue" points="82.7668,-90.7395 78.5501,-81.02 75.7852,-91.2477 82.7668,-90.7395"/>
</g>
<!-- Node15 -->
<g id="node15" class="node"><title>Node15</title>
<polygon fill="white" stroke="#bfbfbf" points="1140,-62 1140,-81 1183,-81 1183,-62 1140,-62"/>
<text text-anchor="middle" x="1161.5" y="-69" font-family="Helvetica,sans-Serif" font-size="10.00">cstdio</text>
</g>
<!-- Node14&#45;&gt;Node15 -->
<g id="edge21" class="edge"><title>Node14&#45;&gt;Node15</title>
<path fill="none" stroke="midnightblue" d="M452.059,-179.429C468.39,-170.415 494.795,-155.793 517.5,-143 533.109,-134.205 535.389,-128.311 552.5,-123 580.316,-114.367 1008.62,-83.379 1129.79,-74.7465"/>
<polygon fill="midnightblue" stroke="midnightblue" points="1130.17,-78.228 1139.9,-74.0272 1129.68,-71.2456 1130.17,-78.228"/>
</g>
<!-- Node16 -->
<g id="node16" class="node"><title>Node16</title>
<polygon fill="white" stroke="#bfbfbf" points="265,-123.5 265,-142.5 310,-142.5 310,-123.5 265,-123.5"/>
<text text-anchor="middle" x="287.5" y="-130.5" font-family="Helvetica,sans-Serif" font-size="10.00">cstdlib</text>
</g>
<!-- Node14&#45;&gt;Node16 -->
<g id="edge22" class="edge"><title>Node14&#45;&gt;Node16</title>
<path fill="none" stroke="midnightblue" d="M412.891,-179.444C387.75,-170.332 347.798,-155.853 319.764,-145.693"/>
<polygon fill="midnightblue" stroke="midnightblue" points="320.618,-142.28 310.024,-142.163 318.233,-148.861 320.618,-142.28"/>
</g>
<!-- Node17 -->
<g id="node17" class="node"><title>Node17</title>
<polygon fill="white" stroke="#bfbfbf" points="328,-123.5 328,-142.5 387,-142.5 387,-123.5 328,-123.5"/>
<text text-anchor="middle" x="357.5" y="-130.5" font-family="Helvetica,sans-Serif" font-size="10.00">exception</text>
</g>
<!-- Node14&#45;&gt;Node17 -->
<g id="edge23" class="edge"><title>Node14&#45;&gt;Node17</title>
<path fill="none" stroke="midnightblue" d="M423.807,-179.324C411.599,-170.979 392.922,-158.212 378.497,-148.352"/>
<polygon fill="midnightblue" stroke="midnightblue" points="380.392,-145.408 370.161,-142.655 376.442,-151.187 380.392,-145.408"/>
</g>
<!-- Node18 -->
<g id="node18" class="node"><title>Node18</title>
<polygon fill="white" stroke="#bfbfbf" points="405.5,-123.5 405.5,-142.5 467.5,-142.5 467.5,-123.5 405.5,-123.5"/>
<text text-anchor="middle" x="436.5" y="-130.5" font-family="Helvetica,sans-Serif" font-size="10.00">type_traits</text>
</g>
<!-- Node14&#45;&gt;Node18 -->
<g id="edge26" class="edge"><title>Node14&#45;&gt;Node18</title>
<path fill="none" stroke="midnightblue" d="M436.5,-179.083C436.5,-172.006 436.5,-161.861 436.5,-152.986"/>
<polygon fill="midnightblue" stroke="midnightblue" points="440,-152.751 436.5,-142.751 433,-152.751 440,-152.751"/>
</g>
<!-- Node19 -->
<g id="node19" class="node"><title>Node19</title>
<polygon fill="white" stroke="#bfbfbf" points="111,-123.5 111,-142.5 170,-142.5 170,-123.5 111,-123.5"/>
<text text-anchor="middle" x="140.5" y="-130.5" font-family="Helvetica,sans-Serif" font-size="10.00">typeindex</text>
</g>
<!-- Node14&#45;&gt;Node19 -->
<g id="edge27" class="edge"><title>Node14&#45;&gt;Node19</title>
<path fill="none" stroke="midnightblue" d="M386.705,-179.487C335.822,-170.699 254.556,-156.418 184.5,-143 183.064,-142.725 181.603,-142.442 180.127,-142.154"/>
<polygon fill="midnightblue" stroke="midnightblue" points="180.792,-138.718 170.302,-140.201 179.428,-145.583 180.792,-138.718"/>
</g>
<!-- Node20 -->
<g id="node20" class="node"><title>Node20</title>
<g id="a_node20"><a xlink:href="current__function_8h.xhtml" target="_top" xlink:title="Declares GMX_CURRENT_FUNCTION for getting the current function name. ">
<polygon fill="white" stroke="black" points="409,-56.5 409,-86.5 522,-86.5 522,-56.5 409,-56.5"/>
<text text-anchor="start" x="417" y="-74.5" font-family="Helvetica,sans-Serif" font-size="10.00">gromacs/utility/current</text>
<text text-anchor="middle" x="465.5" y="-63.5" font-family="Helvetica,sans-Serif" font-size="10.00">_function.h</text>
</a>
</g>
</g>
<!-- Node14&#45;&gt;Node20 -->
<g id="edge31" class="edge"><title>Node14&#45;&gt;Node20</title>
<path fill="none" stroke="midnightblue" d="M366.775,-185.257C302.645,-180.091 222.177,-165.287 255.5,-123 273.198,-100.542 344.338,-86.9194 398.965,-79.5757"/>
<polygon fill="midnightblue" stroke="midnightblue" points="399.491,-83.0368 408.956,-78.2768 398.588,-76.0952 399.491,-83.0368"/>
</g>
<!-- Node14&#45;&gt;Node21 -->
<g id="edge32" class="edge"><title>Node14&#45;&gt;Node21</title>
<path fill="none" stroke="midnightblue" d="M467.24,-179.444C500.444,-170.201 553.491,-155.436 590.057,-145.257"/>
<polygon fill="midnightblue" stroke="midnightblue" points="591.209,-148.57 599.904,-142.516 589.332,-141.826 591.209,-148.57"/>
</g>
<!-- Node21&#45;&gt;Node11 -->
<g id="edge33" class="edge"><title>Node21&#45;&gt;Node11</title>
<path fill="none" stroke="midnightblue" d="M561.94,-126.788C471.255,-119.565 306.537,-105.307 166.5,-87 156.928,-85.7487 146.8,-84.2469 136.953,-82.6908"/>
<polygon fill="midnightblue" stroke="midnightblue" points="137.258,-79.195 126.829,-81.0578 136.144,-86.1056 137.258,-79.195"/>
</g>
<!-- Node21&#45;&gt;Node20 -->
<g id="edge34" class="edge"><title>Node21&#45;&gt;Node20</title>
<path fill="none" stroke="midnightblue" d="M606.86,-123.475C582.737,-114.776 544.607,-101.026 514.024,-89.9981"/>
<polygon fill="midnightblue" stroke="midnightblue" points="514.982,-86.6228 504.387,-86.523 512.607,-93.2078 514.982,-86.6228"/>
</g>
<!-- Node22&#45;&gt;Node2 -->
<g id="edge37" class="edge"><title>Node22&#45;&gt;Node2</title>
<path fill="none" stroke="midnightblue" d="M1217.79,-235.436C1225.52,-213.74 1242.17,-156.001 1214.5,-123 1182.31,-84.6084 1027.36,-75.3856 960.415,-73.1841"/>
<polygon fill="midnightblue" stroke="midnightblue" points="960.188,-69.6759 950.089,-72.8779 959.98,-76.6729 960.188,-69.6759"/>
</g>
<!-- Node22&#45;&gt;Node5 -->
<g id="edge38" class="edge"><title>Node22&#45;&gt;Node5</title>
<path fill="none" stroke="midnightblue" d="M1212.07,-235.368C1207.04,-217.537 1195.42,-176.295 1188.65,-152.272"/>
<polygon fill="midnightblue" stroke="midnightblue" points="1192,-151.267 1185.92,-142.591 1185.27,-153.166 1192,-151.267"/>
</g>
<!-- Node22&#45;&gt;Node9 -->
<g id="edge52" class="edge"><title>Node22&#45;&gt;Node9</title>
<path fill="none" stroke="midnightblue" d="M1141.43,-242.262C1016.45,-238.528 772.502,-227.622 746.5,-199 727.321,-177.888 762.512,-158.223 792.595,-146.171"/>
<polygon fill="midnightblue" stroke="midnightblue" points="794.018,-149.374 802.108,-142.533 791.517,-142.836 794.018,-149.374"/>
</g>
<!-- Node22&#45;&gt;Node21 -->
<g id="edge53" class="edge"><title>Node22&#45;&gt;Node21</title>
<path fill="none" stroke="midnightblue" d="M1141.17,-241.1C1026.53,-235.89 810.438,-223.169 737.5,-199 703.712,-187.804 669.365,-164.332 649.002,-148.873"/>
<polygon fill="midnightblue" stroke="midnightblue" points="650.972,-145.971 640.928,-142.601 646.679,-151.5 650.972,-145.971"/>
</g>
<!-- Node23 -->
<g id="node23" class="node"><title>Node23</title>
<g id="a_node23"><a xlink:href="position_8h.xhtml" target="_top" xlink:title="API for handling positions. ">
<polygon fill="white" stroke="black" points="1262,-179.5 1262,-198.5 1403,-198.5 1403,-179.5 1262,-179.5"/>
<text text-anchor="middle" x="1332.5" y="-186.5" font-family="Helvetica,sans-Serif" font-size="10.00">gromacs/selection/position.h</text>
</a>
</g>
</g>
<!-- Node22&#45;&gt;Node23 -->
<g id="edge39" class="edge"><title>Node22&#45;&gt;Node23</title>
<path fill="none" stroke="midnightblue" d="M1233.2,-235.444C1252.44,-226.636 1282.65,-212.812 1304.7,-202.722"/>
<polygon fill="midnightblue" stroke="midnightblue" points="1306.25,-205.86 1313.89,-198.516 1303.34,-199.495 1306.25,-205.86"/>
</g>
<!-- Node22&#45;&gt;Node25 -->
<g id="edge43" class="edge"><title>Node22&#45;&gt;Node25</title>
<path fill="none" stroke="midnightblue" d="M1283.74,-235.444C1362.29,-225.737 1490.14,-209.939 1572.52,-199.76"/>
<polygon fill="midnightblue" stroke="midnightblue" points="1573.08,-203.216 1582.58,-198.516 1572.23,-196.269 1573.08,-203.216"/>
</g>
<!-- Node26 -->
<g id="node26" class="node"><title>Node26</title>
<g id="a_node26"><a xlink:href="arrayref_8h.xhtml" target="_top" xlink:title="Declares gmx::ArrayRef and gmx::ConstArrayRef. ">
<polygon fill="white" stroke="black" points="1421,-179.5 1421,-198.5 1546,-198.5 1546,-179.5 1421,-179.5"/>
<text text-anchor="middle" x="1483.5" y="-186.5" font-family="Helvetica,sans-Serif" font-size="10.00">gromacs/utility/arrayref.h</text>
</a>
</g>
</g>
<!-- Node22&#45;&gt;Node26 -->
<g id="edge45" class="edge"><title>Node22&#45;&gt;Node26</title>
<path fill="none" stroke="midnightblue" d="M1257.12,-235.444C1304.25,-225.984 1380.19,-210.738 1430.96,-200.547"/>
<polygon fill="midnightblue" stroke="midnightblue" points="1431.96,-203.916 1441.08,-198.516 1430.58,-197.053 1431.96,-203.916"/>
</g>
<!-- Node24 -->
<g id="node24" class="node"><title>Node24</title>
<g id="a_node24"><a xlink:href="indexutil_8h.xhtml" target="_top" xlink:title="API for handling index files and index groups. ">
<polygon fill="white" stroke="black" points="1262,-123.5 1262,-142.5 1405,-142.5 1405,-123.5 1262,-123.5"/>
<text text-anchor="middle" x="1333.5" y="-130.5" font-family="Helvetica,sans-Serif" font-size="10.00">gromacs/selection/indexutil.h</text>
</a>
</g>
</g>
<!-- Node23&#45;&gt;Node24 -->
<g id="edge40" class="edge"><title>Node23&#45;&gt;Node24</title>
<path fill="none" stroke="midnightblue" d="M1332.67,-179.083C1332.8,-172.006 1332.98,-161.861 1333.15,-152.986"/>
<polygon fill="midnightblue" stroke="midnightblue" points="1336.65,-152.814 1333.34,-142.751 1329.65,-152.685 1336.65,-152.814"/>
</g>
<!-- Node24&#45;&gt;Node2 -->
<g id="edge42" class="edge"><title>Node24&#45;&gt;Node2</title>
<path fill="none" stroke="midnightblue" d="M1275.62,-123.475C1188.63,-110.664 1027.26,-86.8975 960.08,-77.0038"/>
<polygon fill="midnightblue" stroke="midnightblue" points="960.537,-73.5333 950.134,-75.5388 959.517,-80.4586 960.537,-73.5333"/>
</g>
<!-- Node24&#45;&gt;Node15 -->
<g id="edge41" class="edge"><title>Node24&#45;&gt;Node15</title>
<path fill="none" stroke="midnightblue" d="M1308.86,-123.475C1278.3,-112.904 1226.18,-94.8733 1192.81,-83.3327"/>
<polygon fill="midnightblue" stroke="midnightblue" points="1193.7,-79.9366 1183.11,-79.975 1191.41,-86.552 1193.7,-79.9366"/>
</g>
<!-- Node25&#45;&gt;Node8 -->
<g id="edge44" class="edge"><title>Node25&#45;&gt;Node8</title>
<path fill="none" stroke="midnightblue" d="M1661.06,-179.314C1674.39,-166.156 1695.43,-140.821 1681.5,-123 1664.69,-101.496 1597.64,-87.8343 1545.13,-80.2193"/>
<polygon fill="midnightblue" stroke="midnightblue" points="1545.57,-76.7464 1535.18,-78.8218 1544.6,-83.6784 1545.57,-76.7464"/>
</g>
<!-- Node26&#45;&gt;Node5 -->
<g id="edge50" class="edge"><title>Node26&#45;&gt;Node5</title>
<path fill="none" stroke="midnightblue" d="M1435.96,-179.444C1374.32,-168.347 1268.44,-149.289 1215.54,-139.767"/>
<polygon fill="midnightblue" stroke="midnightblue" points="1216.16,-136.322 1205.69,-137.995 1214.92,-143.211 1216.16,-136.322"/>
</g>
<!-- Node26&#45;&gt;Node21 -->
<g id="edge51" class="edge"><title>Node26&#45;&gt;Node21</title>
<path fill="none" stroke="midnightblue" d="M1420.7,-179.886C1417.59,-179.567 1414.51,-179.269 1411.5,-179 1116.69,-152.627 1041.85,-162.449 746.5,-143 734.533,-142.212 721.876,-141.305 709.495,-140.377"/>
<polygon fill="midnightblue" stroke="midnightblue" points="709.416,-136.861 699.18,-139.595 708.887,-143.841 709.416,-136.861"/>
</g>
<!-- Node27 -->
<g id="node27" class="node"><title>Node27</title>
<polygon fill="white" stroke="#bfbfbf" points="1423,-123.5 1423,-142.5 1472,-142.5 1472,-123.5 1423,-123.5"/>
<text text-anchor="middle" x="1447.5" y="-130.5" font-family="Helvetica,sans-Serif" font-size="10.00">cstddef</text>
</g>
<!-- Node26&#45;&gt;Node27 -->
<g id="edge46" class="edge"><title>Node26&#45;&gt;Node27</title>
<path fill="none" stroke="midnightblue" d="M1477.56,-179.083C1472.52,-171.534 1465.16,-160.495 1458.99,-151.23"/>
<polygon fill="midnightblue" stroke="midnightblue" points="1461.79,-149.13 1453.33,-142.751 1455.97,-153.013 1461.79,-149.13"/>
</g>
<!-- Node28 -->
<g id="node28" class="node"><title>Node28</title>
<polygon fill="white" stroke="#bfbfbf" points="1490,-123.5 1490,-142.5 1537,-142.5 1537,-123.5 1490,-123.5"/>
<text text-anchor="middle" x="1513.5" y="-130.5" font-family="Helvetica,sans-Serif" font-size="10.00">iterator</text>
</g>
<!-- Node26&#45;&gt;Node28 -->
<g id="edge47" class="edge"><title>Node26&#45;&gt;Node28</title>
<path fill="none" stroke="midnightblue" d="M1488.45,-179.083C1492.6,-171.613 1498.65,-160.724 1503.77,-151.52"/>
<polygon fill="midnightblue" stroke="midnightblue" points="1506.84,-153.192 1508.64,-142.751 1500.72,-149.793 1506.84,-153.192"/>
</g>
<!-- Node29 -->
<g id="node29" class="node"><title>Node29</title>
<polygon fill="white" stroke="#bfbfbf" points="1555,-123.5 1555,-142.5 1614,-142.5 1614,-123.5 1555,-123.5"/>
<text text-anchor="middle" x="1584.5" y="-130.5" font-family="Helvetica,sans-Serif" font-size="10.00">stdexcept</text>
</g>
<!-- Node26&#45;&gt;Node29 -->
<g id="edge48" class="edge"><title>Node26&#45;&gt;Node29</title>
<path fill="none" stroke="midnightblue" d="M1499.73,-179.324C1515.85,-170.703 1540.8,-157.364 1559.46,-147.386"/>
<polygon fill="midnightblue" stroke="midnightblue" points="1561.14,-150.456 1568.31,-142.655 1557.84,-144.283 1561.14,-150.456"/>
</g>
<!-- Node30 -->
<g id="node30" class="node"><title>Node30</title>
<polygon fill="white" stroke="#bfbfbf" points="1632.5,-123.5 1632.5,-142.5 1672.5,-142.5 1672.5,-123.5 1632.5,-123.5"/>
<text text-anchor="middle" x="1652.5" y="-130.5" font-family="Helvetica,sans-Serif" font-size="10.00">utility</text>
</g>
<!-- Node26&#45;&gt;Node30 -->
<g id="edge49" class="edge"><title>Node26&#45;&gt;Node30</title>
<path fill="none" stroke="midnightblue" d="M1510.28,-179.444C1540.85,-169.676 1590.73,-153.738 1622.56,-143.567"/>
<polygon fill="midnightblue" stroke="midnightblue" points="1623.75,-146.86 1632.21,-140.483 1621.62,-140.192 1623.75,-146.86"/>
</g>
<!-- Node31&#45;&gt;Node6 -->
<g id="edge56" class="edge"><title>Node31&#45;&gt;Node6</title>
<path fill="none" stroke="midnightblue" d="M1197.08,-291.449C1180.16,-282.911 1153.96,-269.066 1132.5,-255 1108.6,-239.333 1082.85,-218.812 1066.25,-205.057"/>
<polygon fill="midnightblue" stroke="midnightblue" points="1068.38,-202.274 1058.46,-198.542 1063.89,-207.643 1068.38,-202.274"/>
</g>
<!-- Node31&#45;&gt;Node22 -->
<g id="edge57" class="edge"><title>Node31&#45;&gt;Node22</title>
<path fill="none" stroke="midnightblue" d="M1214.5,-291.083C1214.5,-284.006 1214.5,-273.861 1214.5,-264.986"/>
<polygon fill="midnightblue" stroke="midnightblue" points="1218,-264.751 1214.5,-254.751 1211,-264.751 1218,-264.751"/>
</g>
<!-- Node31&#45;&gt;Node25 -->
<g id="edge58" class="edge"><title>Node31&#45;&gt;Node25</title>
<path fill="none" stroke="midnightblue" d="M1248.43,-291.46C1326.84,-271.722 1520.58,-222.956 1607.75,-201.012"/>
<polygon fill="midnightblue" stroke="midnightblue" points="1608.75,-204.37 1617.59,-198.535 1607.04,-197.582 1608.75,-204.37"/>
</g>
</g>
</svg>
