<?xml version="1.0" encoding="UTF-8" standalone="no"?>
<!DOCTYPE svg PUBLIC "-//W3C//DTD SVG 1.1//EN"
 "http://www.w3.org/Graphics/SVG/1.1/DTD/svg11.dtd">
<!-- Generated by graphviz version 2.38.0 (20140413.2041)
 -->
<!-- Title: src/gromacs/selection/selectionoptionmanager.cpp Pages: 1 -->
<svg width="2232pt" height="442pt"
 viewBox="0.00 0.00 2232.11 442.00" xmlns="http://www.w3.org/2000/svg" xmlns:xlink="http://www.w3.org/1999/xlink">
<g id="graph0" class="graph" transform="scale(1 1) rotate(0) translate(4 438)">
<title>src/gromacs/selection/selectionoptionmanager.cpp</title>
<polygon fill="white" stroke="none" points="-4,4 -4,-438 2228.11,-438 2228.11,4 -4,4"/>
<!-- Node1 -->
<g id="node1" class="node"><title>Node1</title>
<polygon fill="#bfbfbf" stroke="black" points="582,-403.5 582,-433.5 723,-433.5 723,-403.5 582,-403.5"/>
<text text-anchor="start" x="590" y="-421.5" font-family="Helvetica,sans-Serif" font-size="10.00">src/gromacs/selection</text>
<text text-anchor="middle" x="652.5" y="-410.5" font-family="Helvetica,sans-Serif" font-size="10.00">/selectionoptionmanager.cpp</text>
</g>
<!-- Node2 -->
<g id="node2" class="node"><title>Node2</title>
<g id="a_node2"><a xlink:href="gmxpre_8h.xhtml" target="_top" xlink:title="Prerequisite header file for GROMACS build. ">
<polygon fill="white" stroke="black" points="0,-347.5 0,-366.5 57,-366.5 57,-347.5 0,-347.5"/>
<text text-anchor="middle" x="28.5" y="-354.5" font-family="Helvetica,sans-Serif" font-size="10.00">gmxpre.h</text>
</a>
</g>
</g>
<!-- Node1&#45;&gt;Node2 -->
<g id="edge1" class="edge"><title>Node1&#45;&gt;Node2</title>
<path fill="none" stroke="midnightblue" d="M581.978,-414.097C472.334,-408.193 254.549,-394.013 71.5,-367 70.0381,-366.784 68.5512,-366.55 67.0514,-366.3"/>
<polygon fill="midnightblue" stroke="midnightblue" points="67.5616,-362.836 57.0956,-364.483 66.3044,-369.722 67.5616,-362.836"/>
</g>
<!-- Node3 -->
<g id="node3" class="node"><title>Node3</title>
<g id="a_node3"><a xlink:href="selectionoptionmanager_8h.xhtml" target="_top" xlink:title="Declares gmx::SelectionOptionManager. ">
<polygon fill="white" stroke="black" points="1070.5,-347.5 1070.5,-366.5 1198.5,-366.5 1198.5,-347.5 1070.5,-347.5"/>
<text text-anchor="middle" x="1134.5" y="-354.5" font-family="Helvetica,sans-Serif" font-size="10.00">selectionoptionmanager.h</text>
</a>
</g>
</g>
<!-- Node1&#45;&gt;Node3 -->
<g id="edge2" class="edge"><title>Node1&#45;&gt;Node3</title>
<path fill="none" stroke="midnightblue" d="M723.103,-408.784C813.206,-397.662 968.369,-378.508 1060.21,-367.171"/>
<polygon fill="midnightblue" stroke="midnightblue" points="1060.77,-370.629 1070.26,-365.93 1059.91,-363.681 1060.77,-370.629"/>
</g>
<!-- Node18 -->
<g id="node18" class="node"><title>Node18</title>
<polygon fill="white" stroke="#bfbfbf" points="152,-62 152,-81 195,-81 195,-62 152,-62"/>
<text text-anchor="middle" x="173.5" y="-69" font-family="Helvetica,sans-Serif" font-size="10.00">cstdio</text>
</g>
<!-- Node1&#45;&gt;Node18 -->
<g id="edge21" class="edge"><title>Node1&#45;&gt;Node18</title>
<path fill="none" stroke="midnightblue" d="M581.835,-417.749C429.841,-416.376 85.5,-402.208 85.5,-302 85.5,-302 85.5,-302 85.5,-188 85.5,-144.288 125.873,-106.802 151.927,-87.1618"/>
<polygon fill="midnightblue" stroke="midnightblue" points="154.099,-89.91 160.135,-81.2023 149.986,-84.2456 154.099,-89.91"/>
</g>
<!-- Node19 -->
<g id="node19" class="node"><title>Node19</title>
<g id="a_node19"><a xlink:href="selection_2selection_8h.xhtml" target="_top" xlink:title="Declares gmx::Selection and supporting classes. ">
<polygon fill="white" stroke="black" points="657.5,-235.5 657.5,-254.5 803.5,-254.5 803.5,-235.5 657.5,-235.5"/>
<text text-anchor="middle" x="730.5" y="-242.5" font-family="Helvetica,sans-Serif" font-size="10.00">gromacs/selection/selection.h</text>
</a>
</g>
</g>
<!-- Node1&#45;&gt;Node19 -->
<g id="edge22" class="edge"><title>Node1&#45;&gt;Node19</title>
<path fill="none" stroke="midnightblue" d="M656.7,-403.396C664.052,-379.552 680.398,-330.056 700.5,-291 705.495,-281.295 712.14,-271.125 717.906,-262.913"/>
<polygon fill="midnightblue" stroke="midnightblue" points="720.89,-264.759 723.908,-254.603 715.216,-260.66 720.89,-264.759"/>
</g>
<!-- Node28 -->
<g id="node28" class="node"><title>Node28</title>
<g id="a_node28"><a xlink:href="selectioncollection_8h.xhtml" target="_top" xlink:title="Declares gmx::SelectionCollection. ">
<polygon fill="white" stroke="black" points="436.5,-291.5 436.5,-310.5 624.5,-310.5 624.5,-291.5 436.5,-291.5"/>
<text text-anchor="middle" x="530.5" y="-298.5" font-family="Helvetica,sans-Serif" font-size="10.00">gromacs/selection/selectioncollection.h</text>
</a>
</g>
</g>
<!-- Node1&#45;&gt;Node28 -->
<g id="edge40" class="edge"><title>Node1&#45;&gt;Node28</title>
<path fill="none" stroke="midnightblue" d="M637.54,-403.337C614.66,-381.676 571.117,-340.453 547.223,-317.832"/>
<polygon fill="midnightblue" stroke="midnightblue" points="549.325,-315.003 539.657,-310.669 544.513,-320.086 549.325,-315.003"/>
</g>
<!-- Node29 -->
<g id="node29" class="node"><title>Node29</title>
<g id="a_node29"><a xlink:href="selectionoption_8h.xhtml" target="_top" xlink:title="Declares gmx::SelectionOption and gmx::SelectionOptionInfo. ">
<polygon fill="white" stroke="black" points="719,-291.5 719,-310.5 892,-310.5 892,-291.5 719,-291.5"/>
<text text-anchor="middle" x="805.5" y="-298.5" font-family="Helvetica,sans-Serif" font-size="10.00">gromacs/selection/selectionoption.h</text>
</a>
</g>
</g>
<!-- Node1&#45;&gt;Node29 -->
<g id="edge46" class="edge"><title>Node1&#45;&gt;Node29</title>
<path fill="none" stroke="midnightblue" d="M671.261,-403.337C700.331,-381.392 755.997,-339.37 785.692,-316.953"/>
<polygon fill="midnightblue" stroke="midnightblue" points="788.143,-319.488 794.016,-310.669 783.926,-313.901 788.143,-319.488"/>
</g>
<!-- Node30 -->
<g id="node30" class="node"><title>Node30</title>
<g id="a_node30"><a xlink:href="exceptions_8h.xhtml" target="_top" xlink:title="Declares common exception classes and macros for fatal error handling. ">
<polygon fill="white" stroke="black" points="1602,-179.5 1602,-198.5 1741,-198.5 1741,-179.5 1602,-179.5"/>
<text text-anchor="middle" x="1671.5" y="-186.5" font-family="Helvetica,sans-Serif" font-size="10.00">gromacs/utility/exceptions.h</text>
</a>
</g>
</g>
<!-- Node1&#45;&gt;Node30 -->
<g id="edge50" class="edge"><title>Node1&#45;&gt;Node30</title>
<path fill="none" stroke="midnightblue" d="M723.091,-414.878C829.012,-410.089 1035.05,-397.454 1207.5,-367 1399.02,-333.18 1473.75,-370.117 1630.5,-255 1646.6,-243.18 1657.88,-222.962 1664.49,-208.207"/>
<polygon fill="midnightblue" stroke="midnightblue" points="1667.86,-209.205 1668.47,-198.627 1661.4,-206.519 1667.86,-209.205"/>
</g>
<!-- Node35 -->
<g id="node35" class="node"><title>Node35</title>
<g id="a_node35"><a xlink:href="stringutil_8h.xhtml" target="_top" xlink:title="Declares common string utility and formatting routines. ">
<polygon fill="white" stroke="black" points="350.5,-179.5 350.5,-198.5 478.5,-198.5 478.5,-179.5 350.5,-179.5"/>
<text text-anchor="middle" x="414.5" y="-186.5" font-family="Helvetica,sans-Serif" font-size="10.00">gromacs/utility/stringutil.h</text>
</a>
</g>
</g>
<!-- Node1&#45;&gt;Node35 -->
<g id="edge63" class="edge"><title>Node1&#45;&gt;Node35</title>
<path fill="none" stroke="midnightblue" d="M582.221,-403.459C530.7,-389.273 463.677,-361.903 427.5,-311 405.848,-280.534 407.913,-234.392 411.256,-208.789"/>
<polygon fill="midnightblue" stroke="midnightblue" points="414.762,-209.012 412.801,-198.6 407.841,-207.963 414.762,-209.012"/>
</g>
<!-- Node37 -->
<g id="node37" class="node"><title>Node37</title>
<g id="a_node37"><a xlink:href="selectionoptionstorage_8h.xhtml" target="_top" xlink:title="Declares gmx::SelectionOptionStorage. ">
<polygon fill="white" stroke="black" points="846.5,-347.5 846.5,-366.5 968.5,-366.5 968.5,-347.5 846.5,-347.5"/>
<text text-anchor="middle" x="907.5" y="-354.5" font-family="Helvetica,sans-Serif" font-size="10.00">selectionoptionstorage.h</text>
</a>
</g>
</g>
<!-- Node1&#45;&gt;Node37 -->
<g id="edge67" class="edge"><title>Node1&#45;&gt;Node37</title>
<path fill="none" stroke="midnightblue" d="M712.609,-403.475C758.042,-392.874 819.497,-378.534 861.162,-368.812"/>
<polygon fill="midnightblue" stroke="midnightblue" points="862.101,-372.187 871.044,-366.506 860.51,-365.37 862.101,-372.187"/>
</g>
<!-- Node4 -->
<g id="node4" class="node"><title>Node4</title>
<polygon fill="white" stroke="#bfbfbf" points="976,-62 976,-81 1017,-81 1017,-62 976,-62"/>
<text text-anchor="middle" x="996.5" y="-69" font-family="Helvetica,sans-Serif" font-size="10.00">string</text>
</g>
<!-- Node3&#45;&gt;Node4 -->
<g id="edge3" class="edge"><title>Node3&#45;&gt;Node4</title>
<path fill="none" stroke="midnightblue" d="M1129.94,-347.127C1115.03,-318.035 1066.46,-222.825 1028.5,-143 1020.05,-125.223 1010.79,-104.712 1004.42,-90.4143"/>
<polygon fill="midnightblue" stroke="midnightblue" points="1007.6,-88.9487 1000.34,-81.2289 1001.2,-91.7889 1007.6,-88.9487"/>
</g>
<!-- Node5 -->
<g id="node5" class="node"><title>Node5</title>
<g id="a_node5"><a xlink:href="options_2options_8h.xhtml" target="_top" xlink:title="Declares gmx::Options. ">
<polygon fill="white" stroke="black" points="1224,-291.5 1224,-310.5 1355,-310.5 1355,-291.5 1224,-291.5"/>
<text text-anchor="middle" x="1289.5" y="-298.5" font-family="Helvetica,sans-Serif" font-size="10.00">gromacs/options/options.h</text>
</a>
</g>
</g>
<!-- Node3&#45;&gt;Node5 -->
<g id="edge4" class="edge"><title>Node3&#45;&gt;Node5</title>
<path fill="none" stroke="midnightblue" d="M1159.06,-347.444C1185.02,-338.399 1226.17,-324.064 1255.3,-313.916"/>
<polygon fill="midnightblue" stroke="midnightblue" points="1256.76,-317.112 1265.05,-310.516 1254.46,-310.501 1256.76,-317.112"/>
</g>
<!-- Node11 -->
<g id="node11" class="node"><title>Node11</title>
<g id="a_node11"><a xlink:href="classhelpers_8h.xhtml" target="_top" xlink:title="Declares common utility classes and macros. ">
<polygon fill="white" stroke="black" points="2063.5,-123.5 2063.5,-142.5 2209.5,-142.5 2209.5,-123.5 2063.5,-123.5"/>
<text text-anchor="middle" x="2136.5" y="-130.5" font-family="Helvetica,sans-Serif" font-size="10.00">gromacs/utility/classhelpers.h</text>
</a>
</g>
</g>
<!-- Node3&#45;&gt;Node11 -->
<g id="edge20" class="edge"><title>Node3&#45;&gt;Node11</title>
<path fill="none" stroke="midnightblue" d="M1198.76,-353.28C1377.94,-344.99 1879.82,-316.744 2031.5,-255 2069.05,-239.715 2077.7,-230.272 2103.5,-199 2115.18,-184.841 2124.22,-165.863 2129.86,-152.071"/>
<polygon fill="midnightblue" stroke="midnightblue" points="2133.14,-153.289 2133.5,-142.7 2126.61,-150.755 2133.14,-153.289"/>
</g>
<!-- Node5&#45;&gt;Node4 -->
<g id="edge5" class="edge"><title>Node5&#45;&gt;Node4</title>
<path fill="none" stroke="midnightblue" d="M1269.49,-291.383C1234.32,-275.744 1159.87,-240.444 1104.5,-199 1076.32,-177.908 1071.46,-169.683 1048.5,-143 1033.53,-125.598 1018.13,-104.209 1008.02,-89.5833"/>
<polygon fill="midnightblue" stroke="midnightblue" points="1010.73,-87.3399 1002.2,-81.059 1004.95,-91.2898 1010.73,-87.3399"/>
</g>
<!-- Node6 -->
<g id="node6" class="node"><title>Node6</title>
<g id="a_node6"><a xlink:href="ioptionscontainer_8h.xhtml" target="_top" xlink:title="Declares gmx::IOptionsContainer. ">
<polygon fill="white" stroke="black" points="1448,-235.5 1448,-254.5 1621,-254.5 1621,-235.5 1448,-235.5"/>
<text text-anchor="middle" x="1534.5" y="-242.5" font-family="Helvetica,sans-Serif" font-size="10.00">gromacs/options/ioptionscontainer.h</text>
</a>
</g>
</g>
<!-- Node5&#45;&gt;Node6 -->
<g id="edge6" class="edge"><title>Node5&#45;&gt;Node6</title>
<path fill="none" stroke="midnightblue" d="M1328.32,-291.444C1371.06,-282.023 1439.83,-266.866 1486.07,-256.675"/>
<polygon fill="midnightblue" stroke="midnightblue" points="1486.85,-260.087 1495.86,-254.516 1485.34,-253.251 1486.85,-260.087"/>
</g>
<!-- Node5&#45;&gt;Node11 -->
<g id="edge19" class="edge"><title>Node5&#45;&gt;Node11</title>
<path fill="none" stroke="midnightblue" d="M1355.04,-298.285C1519.72,-293.63 1941.89,-279.446 2000.5,-255 2054.98,-232.276 2102.36,-178.297 2124,-150.769"/>
<polygon fill="midnightblue" stroke="midnightblue" points="2126.78,-152.896 2130.1,-142.834 2121.23,-148.631 2126.78,-152.896"/>
</g>
<!-- Node7 -->
<g id="node7" class="node"><title>Node7</title>
<g id="a_node7"><a xlink:href="abstractoption_8h.xhtml" target="_top" xlink:title="Defines gmx::AbstractOption, gmx::OptionTemplate and gmx::OptionInfo. ">
<polygon fill="white" stroke="black" points="1139,-179.5 1139,-198.5 1300,-198.5 1300,-179.5 1139,-179.5"/>
<text text-anchor="middle" x="1219.5" y="-186.5" font-family="Helvetica,sans-Serif" font-size="10.00">gromacs/options/abstractoption.h</text>
</a>
</g>
</g>
<!-- Node6&#45;&gt;Node7 -->
<g id="edge7" class="edge"><title>Node6&#45;&gt;Node7</title>
<path fill="none" stroke="midnightblue" d="M1484.59,-235.444C1428.83,-225.885 1338.61,-210.419 1279.17,-200.23"/>
<polygon fill="midnightblue" stroke="midnightblue" points="1279.63,-196.756 1269.18,-198.516 1278.44,-203.656 1279.63,-196.756"/>
</g>
<!-- Node13 -->
<g id="node13" class="node"><title>Node13</title>
<g id="a_node13"><a xlink:href="gmxassert_8h.xhtml" target="_top" xlink:title="Defines assert macros customized for Gromacs. ">
<polygon fill="white" stroke="black" points="1908,-123.5 1908,-142.5 2045,-142.5 2045,-123.5 1908,-123.5"/>
<text text-anchor="middle" x="1976.5" y="-130.5" font-family="Helvetica,sans-Serif" font-size="10.00">gromacs/utility/gmxassert.h</text>
</a>
</g>
</g>
<!-- Node6&#45;&gt;Node13 -->
<g id="edge14" class="edge"><title>Node6&#45;&gt;Node13</title>
<path fill="none" stroke="midnightblue" d="M1621.26,-242.519C1690.99,-238.968 1790.48,-228.52 1872.5,-199 1905.13,-187.255 1938.35,-164.139 1958.19,-148.879"/>
<polygon fill="midnightblue" stroke="midnightblue" points="1960.37,-151.613 1966.07,-142.682 1956.05,-146.109 1960.37,-151.613"/>
</g>
<!-- Node7&#45;&gt;Node4 -->
<g id="edge8" class="edge"><title>Node7&#45;&gt;Node4</title>
<path fill="none" stroke="midnightblue" d="M1202.74,-179.319C1164.06,-159.286 1068.37,-109.722 1022.21,-85.8164"/>
<polygon fill="midnightblue" stroke="midnightblue" points="1023.64,-82.6157 1013.15,-81.1245 1020.42,-88.8315 1023.64,-82.6157"/>
</g>
<!-- Node8 -->
<g id="node8" class="node"><title>Node8</title>
<polygon fill="white" stroke="#bfbfbf" points="722.5,-123.5 722.5,-142.5 766.5,-142.5 766.5,-123.5 722.5,-123.5"/>
<text text-anchor="middle" x="744.5" y="-130.5" font-family="Helvetica,sans-Serif" font-size="10.00">vector</text>
</g>
<!-- Node7&#45;&gt;Node8 -->
<g id="edge9" class="edge"><title>Node7&#45;&gt;Node8</title>
<path fill="none" stroke="midnightblue" d="M1144.5,-179.473C1039.1,-167.491 851.664,-146.183 776.747,-137.666"/>
<polygon fill="midnightblue" stroke="midnightblue" points="776.864,-134.157 766.533,-136.505 776.074,-141.112 776.864,-134.157"/>
</g>
<!-- Node9 -->
<g id="node9" class="node"><title>Node9</title>
<g id="a_node9"><a xlink:href="optionflags_8h.xhtml" target="_top" xlink:title="Defines flags used in option implementation. ">
<polygon fill="white" stroke="black" points="1215,-123.5 1215,-142.5 1362,-142.5 1362,-123.5 1215,-123.5"/>
<text text-anchor="middle" x="1288.5" y="-130.5" font-family="Helvetica,sans-Serif" font-size="10.00">gromacs/options/optionflags.h</text>
</a>
</g>
</g>
<!-- Node7&#45;&gt;Node9 -->
<g id="edge10" class="edge"><title>Node7&#45;&gt;Node9</title>
<path fill="none" stroke="midnightblue" d="M1230.59,-179.324C1240.99,-171.185 1256.76,-158.839 1269.22,-149.087"/>
<polygon fill="midnightblue" stroke="midnightblue" points="1271.49,-151.753 1277.21,-142.834 1267.18,-146.241 1271.49,-151.753"/>
</g>
<!-- Node7&#45;&gt;Node11 -->
<g id="edge12" class="edge"><title>Node7&#45;&gt;Node11</title>
<path fill="none" stroke="midnightblue" d="M1300.44,-179.708C1303.5,-179.458 1306.52,-179.221 1309.5,-179 1636.7,-154.751 1722.28,-168.8 2052.85,-143.081"/>
<polygon fill="midnightblue" stroke="midnightblue" points="2053.51,-146.54 2063.2,-142.269 2052.96,-139.562 2053.51,-146.54"/>
</g>
<!-- Node10 -->
<g id="node10" class="node"><title>Node10</title>
<g id="a_node10"><a xlink:href="flags_8h.xhtml" target="_top" xlink:title="Declares gmx::FlagsTemplate. ">
<polygon fill="white" stroke="black" points="1181,-62 1181,-81 1294,-81 1294,-62 1181,-62"/>
<text text-anchor="middle" x="1237.5" y="-69" font-family="Helvetica,sans-Serif" font-size="10.00">gromacs/utility/flags.h</text>
</a>
</g>
</g>
<!-- Node9&#45;&gt;Node10 -->
<g id="edge11" class="edge"><title>Node9&#45;&gt;Node10</title>
<path fill="none" stroke="midnightblue" d="M1281.19,-123.475C1273.47,-114.462 1261.09,-100.025 1251.48,-88.8118"/>
<polygon fill="midnightblue" stroke="midnightblue" points="1253.96,-86.3239 1244.79,-81.0091 1248.64,-90.8795 1253.96,-86.3239"/>
</g>
<!-- Node12 -->
<g id="node12" class="node"><title>Node12</title>
<polygon fill="white" stroke="#bfbfbf" points="2110.5,-62 2110.5,-81 2162.5,-81 2162.5,-62 2110.5,-62"/>
<text text-anchor="middle" x="2136.5" y="-69" font-family="Helvetica,sans-Serif" font-size="10.00">memory</text>
</g>
<!-- Node11&#45;&gt;Node12 -->
<g id="edge13" class="edge"><title>Node11&#45;&gt;Node12</title>
<path fill="none" stroke="midnightblue" d="M2136.5,-123.475C2136.5,-115.08 2136.5,-101.981 2136.5,-91.1631"/>
<polygon fill="midnightblue" stroke="midnightblue" points="2140,-91.0091 2136.5,-81.0091 2133,-91.0091 2140,-91.0091"/>
</g>
<!-- Node14 -->
<g id="node14" class="node"><title>Node14</title>
<g id="a_node14"><a xlink:href="basedefinitions_8h.xhtml" target="_top" xlink:title="Basic types and macros used throughout GROMACS. ">
<polygon fill="white" stroke="black" points="1426,-62 1426,-81 1583,-81 1583,-62 1426,-62"/>
<text text-anchor="middle" x="1504.5" y="-69" font-family="Helvetica,sans-Serif" font-size="10.00">gromacs/utility/basedefinitions.h</text>
</a>
</g>
</g>
<!-- Node13&#45;&gt;Node14 -->
<g id="edge15" class="edge"><title>Node13&#45;&gt;Node14</title>
<path fill="none" stroke="midnightblue" d="M1908.87,-123.475C1822.39,-112.573 1672.96,-93.7355 1581.98,-82.267"/>
<polygon fill="midnightblue" stroke="midnightblue" points="1582.36,-78.7873 1572,-81.0091 1581.48,-85.7324 1582.36,-78.7873"/>
</g>
<!-- Node17 -->
<g id="node17" class="node"><title>Node17</title>
<g id="a_node17"><a xlink:href="current__function_8h.xhtml" target="_top" xlink:title="Declares GMX_CURRENT_FUNCTION for getting the current function name. ">
<polygon fill="white" stroke="black" points="1852,-56.5 1852,-86.5 1965,-86.5 1965,-56.5 1852,-56.5"/>
<text text-anchor="start" x="1860" y="-74.5" font-family="Helvetica,sans-Serif" font-size="10.00">gromacs/utility/current</text>
<text text-anchor="middle" x="1908.5" y="-63.5" font-family="Helvetica,sans-Serif" font-size="10.00">_function.h</text>
</a>
</g>
</g>
<!-- Node13&#45;&gt;Node17 -->
<g id="edge18" class="edge"><title>Node13&#45;&gt;Node17</title>
<path fill="none" stroke="midnightblue" d="M1966.76,-123.475C1957.81,-115.643 1944.17,-103.714 1932.35,-93.3656"/>
<polygon fill="midnightblue" stroke="midnightblue" points="1934.36,-90.474 1924.53,-86.523 1929.75,-95.7421 1934.36,-90.474"/>
</g>
<!-- Node15 -->
<g id="node15" class="node"><title>Node15</title>
<polygon fill="white" stroke="#bfbfbf" points="1444,-0.5 1444,-19.5 1493,-19.5 1493,-0.5 1444,-0.5"/>
<text text-anchor="middle" x="1468.5" y="-7.5" font-family="Helvetica,sans-Serif" font-size="10.00">stdint.h</text>
</g>
<!-- Node14&#45;&gt;Node15 -->
<g id="edge16" class="edge"><title>Node14&#45;&gt;Node15</title>
<path fill="none" stroke="midnightblue" d="M1499.34,-61.9751C1494.05,-53.2268 1485.66,-39.3691 1478.97,-28.3093"/>
<polygon fill="midnightblue" stroke="midnightblue" points="1481.82,-26.2531 1473.65,-19.5091 1475.83,-29.8768 1481.82,-26.2531"/>
</g>
<!-- Node16 -->
<g id="node16" class="node"><title>Node16</title>
<polygon fill="white" stroke="#bfbfbf" points="1511,-0.5 1511,-19.5 1570,-19.5 1570,-0.5 1511,-0.5"/>
<text text-anchor="middle" x="1540.5" y="-7.5" font-family="Helvetica,sans-Serif" font-size="10.00">inttypes.h</text>
</g>
<!-- Node14&#45;&gt;Node16 -->
<g id="edge17" class="edge"><title>Node14&#45;&gt;Node16</title>
<path fill="none" stroke="midnightblue" d="M1509.66,-61.9751C1514.95,-53.2268 1523.34,-39.3691 1530.03,-28.3093"/>
<polygon fill="midnightblue" stroke="midnightblue" points="1533.17,-29.8768 1535.35,-19.5091 1527.18,-26.2531 1533.17,-29.8768"/>
</g>
<!-- Node19&#45;&gt;Node4 -->
<g id="edge23" class="edge"><title>Node19&#45;&gt;Node4</title>
<path fill="none" stroke="midnightblue" d="M730.142,-235.341C730.046,-221.761 731.802,-195.324 745.5,-179 803.004,-110.473 912.39,-85.0833 965.722,-76.4859"/>
<polygon fill="midnightblue" stroke="midnightblue" points="966.55,-79.9005 975.912,-74.9395 965.5,-72.9797 966.55,-79.9005"/>
</g>
<!-- Node19&#45;&gt;Node8 -->
<g id="edge24" class="edge"><title>Node19&#45;&gt;Node8</title>
<path fill="none" stroke="midnightblue" d="M724.74,-235.104C717.339,-222.524 706.16,-198.855 712.5,-179 715.841,-168.538 722.6,-158.428 729.049,-150.45"/>
<polygon fill="midnightblue" stroke="midnightblue" points="731.848,-152.564 735.749,-142.714 726.556,-147.981 731.848,-152.564"/>
</g>
<!-- Node19&#45;&gt;Node11 -->
<g id="edge38" class="edge"><title>Node19&#45;&gt;Node11</title>
<path fill="none" stroke="midnightblue" d="M803.855,-242.315C1012.13,-237.308 1604.47,-221.452 1797.5,-199 1903.72,-186.644 2026.58,-159.93 2091.27,-144.878"/>
<polygon fill="midnightblue" stroke="midnightblue" points="2092.2,-148.255 2101.14,-142.567 2090.6,-141.439 2092.2,-148.255"/>
</g>
<!-- Node19&#45;&gt;Node13 -->
<g id="edge39" class="edge"><title>Node19&#45;&gt;Node13</title>
<path fill="none" stroke="midnightblue" d="M803.634,-243.106C1005.61,-240.267 1568.18,-229.751 1750.5,-199 1781.14,-193.832 1787.66,-187.676 1817.5,-179 1857.64,-167.328 1903.61,-154.362 1935.76,-145.358"/>
<polygon fill="midnightblue" stroke="midnightblue" points="1937,-148.646 1945.68,-142.581 1935.11,-141.905 1937,-148.646"/>
</g>
<!-- Node20 -->
<g id="node20" class="node"><title>Node20</title>
<g id="a_node20"><a xlink:href="position_8h.xhtml" target="_top" xlink:title="API for handling positions. ">
<polygon fill="white" stroke="black" points="153,-179.5 153,-198.5 294,-198.5 294,-179.5 153,-179.5"/>
<text text-anchor="middle" x="223.5" y="-186.5" font-family="Helvetica,sans-Serif" font-size="10.00">gromacs/selection/position.h</text>
</a>
</g>
</g>
<!-- Node19&#45;&gt;Node20 -->
<g id="edge25" class="edge"><title>Node19&#45;&gt;Node20</title>
<path fill="none" stroke="midnightblue" d="M657.319,-236.206C563.561,-226.22 401.572,-208.966 304.286,-198.604"/>
<polygon fill="midnightblue" stroke="midnightblue" points="304.521,-195.11 294.207,-197.531 303.78,-202.07 304.521,-195.11"/>
</g>
<!-- Node22 -->
<g id="node22" class="node"><title>Node22</title>
<g id="a_node22"><a xlink:href="selectionenums_8h.xhtml" target="_top" xlink:title="Declares common types used in selections. ">
<polygon fill="white" stroke="black" points="754.5,-179.5 754.5,-198.5 930.5,-198.5 930.5,-179.5 754.5,-179.5"/>
<text text-anchor="middle" x="842.5" y="-186.5" font-family="Helvetica,sans-Serif" font-size="10.00">gromacs/selection/selectionenums.h</text>
</a>
</g>
</g>
<!-- Node19&#45;&gt;Node22 -->
<g id="edge29" class="edge"><title>Node19&#45;&gt;Node22</title>
<path fill="none" stroke="midnightblue" d="M748.495,-235.324C766.538,-226.625 794.547,-213.12 815.303,-203.113"/>
<polygon fill="midnightblue" stroke="midnightblue" points="817.062,-206.15 824.55,-198.655 814.022,-199.845 817.062,-206.15"/>
</g>
<!-- Node23 -->
<g id="node23" class="node"><title>Node23</title>
<g id="a_node23"><a xlink:href="arrayref_8h.xhtml" target="_top" xlink:title="Declares gmx::ArrayRef and gmx::ConstArrayRef. ">
<polygon fill="white" stroke="black" points="497,-179.5 497,-198.5 622,-198.5 622,-179.5 497,-179.5"/>
<text text-anchor="middle" x="559.5" y="-186.5" font-family="Helvetica,sans-Serif" font-size="10.00">gromacs/utility/arrayref.h</text>
</a>
</g>
</g>
<!-- Node19&#45;&gt;Node23 -->
<g id="edge31" class="edge"><title>Node19&#45;&gt;Node23</title>
<path fill="none" stroke="midnightblue" d="M703.405,-235.444C674.512,-226.32 628.575,-211.813 596.395,-201.651"/>
<polygon fill="midnightblue" stroke="midnightblue" points="597.059,-198.19 586.469,-198.516 594.951,-204.865 597.059,-198.19"/>
</g>
<!-- Node21 -->
<g id="node21" class="node"><title>Node21</title>
<g id="a_node21"><a xlink:href="indexutil_8h.xhtml" target="_top" xlink:title="API for handling index files and index groups. ">
<polygon fill="white" stroke="black" points="152,-123.5 152,-142.5 295,-142.5 295,-123.5 152,-123.5"/>
<text text-anchor="middle" x="223.5" y="-130.5" font-family="Helvetica,sans-Serif" font-size="10.00">gromacs/selection/indexutil.h</text>
</a>
</g>
</g>
<!-- Node20&#45;&gt;Node21 -->
<g id="edge26" class="edge"><title>Node20&#45;&gt;Node21</title>
<path fill="none" stroke="midnightblue" d="M223.5,-179.083C223.5,-172.006 223.5,-161.861 223.5,-152.986"/>
<polygon fill="midnightblue" stroke="midnightblue" points="227,-152.751 223.5,-142.751 220,-152.751 227,-152.751"/>
</g>
<!-- Node21&#45;&gt;Node4 -->
<g id="edge28" class="edge"><title>Node21&#45;&gt;Node4</title>
<path fill="none" stroke="midnightblue" d="M295.28,-124.321C300.091,-123.858 304.865,-123.413 309.5,-123 562.702,-100.45 869.056,-80.5318 965.739,-74.4211"/>
<polygon fill="midnightblue" stroke="midnightblue" points="966.208,-77.8986 975.968,-73.7767 965.767,-70.9124 966.208,-77.8986"/>
</g>
<!-- Node21&#45;&gt;Node18 -->
<g id="edge27" class="edge"><title>Node21&#45;&gt;Node18</title>
<path fill="none" stroke="midnightblue" d="M216.336,-123.475C208.762,-114.462 196.63,-100.025 187.207,-88.8118"/>
<polygon fill="midnightblue" stroke="midnightblue" points="189.763,-86.4132 180.65,-81.0091 184.404,-90.9166 189.763,-86.4132"/>
</g>
<!-- Node22&#45;&gt;Node10 -->
<g id="edge30" class="edge"><title>Node22&#45;&gt;Node10</title>
<path fill="none" stroke="midnightblue" d="M871.866,-179.413C941.936,-158.924 1118.96,-107.161 1198.15,-84.0055"/>
<polygon fill="midnightblue" stroke="midnightblue" points="1199.59,-87.2309 1208.21,-81.065 1197.63,-80.5122 1199.59,-87.2309"/>
</g>
<!-- Node23&#45;&gt;Node8 -->
<g id="edge36" class="edge"><title>Node23&#45;&gt;Node8</title>
<path fill="none" stroke="midnightblue" d="M588.814,-179.444C622.568,-169.591 677.824,-153.462 712.624,-143.304"/>
<polygon fill="midnightblue" stroke="midnightblue" points="713.672,-146.644 722.291,-140.483 711.711,-139.925 713.672,-146.644"/>
</g>
<!-- Node23&#45;&gt;Node13 -->
<g id="edge37" class="edge"><title>Node23&#45;&gt;Node13</title>
<path fill="none" stroke="midnightblue" d="M622.339,-184.726C658.379,-182.906 704.476,-180.678 745.5,-179 1224.03,-159.426 1344.07,-164.973 1822.5,-143 1846.96,-141.877 1873.6,-140.407 1897.73,-138.983"/>
<polygon fill="midnightblue" stroke="midnightblue" points="1898.13,-142.465 1907.91,-138.376 1897.72,-135.478 1898.13,-142.465"/>
</g>
<!-- Node24 -->
<g id="node24" class="node"><title>Node24</title>
<polygon fill="white" stroke="#bfbfbf" points="590,-123.5 590,-142.5 639,-142.5 639,-123.5 590,-123.5"/>
<text text-anchor="middle" x="614.5" y="-130.5" font-family="Helvetica,sans-Serif" font-size="10.00">cstddef</text>
</g>
<!-- Node23&#45;&gt;Node24 -->
<g id="edge32" class="edge"><title>Node23&#45;&gt;Node24</title>
<path fill="none" stroke="midnightblue" d="M568.582,-179.083C576.671,-171.141 588.695,-159.335 598.41,-149.797"/>
<polygon fill="midnightblue" stroke="midnightblue" points="600.903,-152.254 605.587,-142.751 595.999,-147.26 600.903,-152.254"/>
</g>
<!-- Node25 -->
<g id="node25" class="node"><title>Node25</title>
<polygon fill="white" stroke="#bfbfbf" points="657,-123.5 657,-142.5 704,-142.5 704,-123.5 657,-123.5"/>
<text text-anchor="middle" x="680.5" y="-130.5" font-family="Helvetica,sans-Serif" font-size="10.00">iterator</text>
</g>
<!-- Node23&#45;&gt;Node25 -->
<g id="edge33" class="edge"><title>Node23&#45;&gt;Node25</title>
<path fill="none" stroke="midnightblue" d="M578.673,-179.444C598.409,-170.636 629.385,-156.812 651.993,-146.722"/>
<polygon fill="midnightblue" stroke="midnightblue" points="653.711,-149.788 661.417,-142.516 650.859,-143.396 653.711,-149.788"/>
</g>
<!-- Node26 -->
<g id="node26" class="node"><title>Node26</title>
<polygon fill="white" stroke="#bfbfbf" points="454,-123.5 454,-142.5 513,-142.5 513,-123.5 454,-123.5"/>
<text text-anchor="middle" x="483.5" y="-130.5" font-family="Helvetica,sans-Serif" font-size="10.00">stdexcept</text>
</g>
<!-- Node23&#45;&gt;Node26 -->
<g id="edge34" class="edge"><title>Node23&#45;&gt;Node26</title>
<path fill="none" stroke="midnightblue" d="M547.289,-179.324C535.724,-171.107 518.125,-158.602 504.339,-148.807"/>
<polygon fill="midnightblue" stroke="midnightblue" points="506.112,-145.773 495.933,-142.834 502.057,-151.479 506.112,-145.773"/>
</g>
<!-- Node27 -->
<g id="node27" class="node"><title>Node27</title>
<polygon fill="white" stroke="#bfbfbf" points="531.5,-123.5 531.5,-142.5 571.5,-142.5 571.5,-123.5 531.5,-123.5"/>
<text text-anchor="middle" x="551.5" y="-130.5" font-family="Helvetica,sans-Serif" font-size="10.00">utility</text>
</g>
<!-- Node23&#45;&gt;Node27 -->
<g id="edge35" class="edge"><title>Node23&#45;&gt;Node27</title>
<path fill="none" stroke="midnightblue" d="M558.179,-179.083C557.119,-171.927 555.594,-161.635 554.269,-152.691"/>
<polygon fill="midnightblue" stroke="midnightblue" points="557.724,-152.13 552.796,-142.751 550.8,-153.156 557.724,-152.13"/>
</g>
<!-- Node28&#45;&gt;Node4 -->
<g id="edge42" class="edge"><title>Node28&#45;&gt;Node4</title>
<path fill="none" stroke="midnightblue" d="M490.247,-291.405C444.988,-279.353 373.635,-252.609 341.5,-199 333.333,-185.376 321.122,-145.683 342.5,-123 385.669,-77.1964 842.017,-72.8416 965.719,-72.5058"/>
<polygon fill="midnightblue" stroke="midnightblue" points="965.997,-76.0053 975.99,-72.4853 965.983,-69.0054 965.997,-76.0053"/>
</g>
<!-- Node28&#45;&gt;Node8 -->
<g id="edge43" class="edge"><title>Node28&#45;&gt;Node8</title>
<path fill="none" stroke="midnightblue" d="M541.704,-291.309C576.301,-264.472 681.726,-182.694 725.32,-148.878"/>
<polygon fill="midnightblue" stroke="midnightblue" points="727.65,-151.5 733.407,-142.605 723.36,-145.969 727.65,-151.5"/>
</g>
<!-- Node28&#45;&gt;Node11 -->
<g id="edge45" class="edge"><title>Node28&#45;&gt;Node11</title>
<path fill="none" stroke="midnightblue" d="M624.844,-295.09C652.448,-293.705 682.68,-292.24 710.5,-291 1119.3,-272.782 1224.95,-309.552 1630.5,-255 1739.48,-240.34 1764.54,-224.543 1871.5,-199 1949.25,-180.432 2039.65,-158.099 2092.23,-145.034"/>
<polygon fill="midnightblue" stroke="midnightblue" points="2093.37,-148.357 2102.23,-142.548 2091.68,-141.564 2093.37,-148.357"/>
</g>
<!-- Node28&#45;&gt;Node18 -->
<g id="edge41" class="edge"><title>Node28&#45;&gt;Node18</title>
<path fill="none" stroke="midnightblue" d="M454.762,-291.485C352.808,-278.243 179.945,-248.909 143.5,-199 123.578,-171.719 133.318,-155.509 142.5,-123 145.975,-110.696 153.382,-98.4364 160.085,-89.0781"/>
<polygon fill="midnightblue" stroke="midnightblue" points="162.89,-91.1708 166.143,-81.0878 157.312,-86.9414 162.89,-91.1708"/>
</g>
<!-- Node28&#45;&gt;Node19 -->
<g id="edge44" class="edge"><title>Node28&#45;&gt;Node19</title>
<path fill="none" stroke="midnightblue" d="M562.191,-291.444C596.568,-282.162 651.577,-267.309 689.289,-257.127"/>
<polygon fill="midnightblue" stroke="midnightblue" points="690.216,-260.502 698.958,-254.516 688.391,-253.744 690.216,-260.502"/>
</g>
<!-- Node29&#45;&gt;Node7 -->
<g id="edge47" class="edge"><title>Node29&#45;&gt;Node7</title>
<path fill="none" stroke="midnightblue" d="M837.641,-291.46C911.777,-271.762 1094.72,-223.154 1177.55,-201.146"/>
<polygon fill="midnightblue" stroke="midnightblue" points="1178.61,-204.485 1187.38,-198.535 1176.82,-197.72 1178.61,-204.485"/>
</g>
<!-- Node29&#45;&gt;Node19 -->
<g id="edge48" class="edge"><title>Node29&#45;&gt;Node19</title>
<path fill="none" stroke="midnightblue" d="M793.45,-291.324C782.037,-283.107 764.669,-270.602 751.065,-260.807"/>
<polygon fill="midnightblue" stroke="midnightblue" points="752.93,-257.837 742.769,-254.834 748.84,-263.517 752.93,-257.837"/>
</g>
<!-- Node29&#45;&gt;Node22 -->
<g id="edge49" class="edge"><title>Node29&#45;&gt;Node22</title>
<path fill="none" stroke="midnightblue" d="M808.403,-291.368C814.401,-273.537 828.273,-232.295 836.354,-208.272"/>
<polygon fill="midnightblue" stroke="midnightblue" points="839.739,-209.185 839.61,-198.591 833.105,-206.954 839.739,-209.185"/>
</g>
<!-- Node30&#45;&gt;Node4 -->
<g id="edge55" class="edge"><title>Node30&#45;&gt;Node4</title>
<path fill="none" stroke="midnightblue" d="M1641.31,-179.44C1592.09,-165.757 1491.32,-138.886 1404.5,-123 1264.55,-97.3924 1095.17,-81.0454 1027.05,-75.0634"/>
<polygon fill="midnightblue" stroke="midnightblue" points="1027.27,-71.5695 1017,-74.1925 1026.66,-78.5433 1027.27,-71.5695"/>
</g>
<!-- Node30&#45;&gt;Node8 -->
<g id="edge58" class="edge"><title>Node30&#45;&gt;Node8</title>
<path fill="none" stroke="midnightblue" d="M1601.67,-183.78C1576.41,-182.262 1547.67,-180.543 1521.5,-179 1232.64,-161.97 883.348,-141.943 776.853,-135.85"/>
<polygon fill="midnightblue" stroke="midnightblue" points="776.936,-132.349 766.753,-135.272 776.536,-139.337 776.936,-132.349"/>
</g>
<!-- Node30&#45;&gt;Node11 -->
<g id="edge60" class="edge"><title>Node30&#45;&gt;Node11</title>
<path fill="none" stroke="midnightblue" d="M1741.12,-179.916C1824.55,-170.227 1964.22,-154.007 2053.27,-143.665"/>
<polygon fill="midnightblue" stroke="midnightblue" points="2053.81,-147.127 2063.34,-142.496 2053,-140.173 2053.81,-147.127"/>
</g>
<!-- Node30&#45;&gt;Node12 -->
<g id="edge54" class="edge"><title>Node30&#45;&gt;Node12</title>
<path fill="none" stroke="midnightblue" d="M1713.11,-179.456C1749.92,-171.459 1804.87,-158.447 1851.5,-143 1873.44,-135.733 1877.44,-129.882 1899.5,-123 1969.32,-101.221 2053.61,-85.7325 2100.52,-78.035"/>
<polygon fill="midnightblue" stroke="midnightblue" points="2101.18,-81.473 2110.5,-76.4228 2100.07,-74.5626 2101.18,-81.473"/>
</g>
<!-- Node30&#45;&gt;Node13 -->
<g id="edge62" class="edge"><title>Node30&#45;&gt;Node13</title>
<path fill="none" stroke="midnightblue" d="M1719.83,-179.444C1773.7,-169.905 1860.81,-154.483 1918.36,-144.293"/>
<polygon fill="midnightblue" stroke="midnightblue" points="1919.16,-147.706 1928.4,-142.516 1917.94,-140.813 1919.16,-147.706"/>
</g>
<!-- Node30&#45;&gt;Node14 -->
<g id="edge59" class="edge"><title>Node30&#45;&gt;Node14</title>
<path fill="none" stroke="midnightblue" d="M1601.89,-181.084C1574.53,-175.025 1544.86,-163.782 1524.5,-143 1511.03,-129.251 1506.5,-107.132 1505.04,-91.337"/>
<polygon fill="midnightblue" stroke="midnightblue" points="1508.52,-90.94 1504.44,-81.1635 1501.54,-91.3522 1508.52,-90.94"/>
</g>
<!-- Node30&#45;&gt;Node17 -->
<g id="edge61" class="edge"><title>Node30&#45;&gt;Node17</title>
<path fill="none" stroke="midnightblue" d="M1716.58,-179.492C1747.59,-172.482 1789.04,-160.769 1822.5,-143 1846.97,-130.005 1871.03,-109.424 1887.45,-93.8456"/>
<polygon fill="midnightblue" stroke="midnightblue" points="1890.13,-96.1293 1894.87,-86.6553 1885.25,-91.1038 1890.13,-96.1293"/>
</g>
<!-- Node30&#45;&gt;Node18 -->
<g id="edge51" class="edge"><title>Node30&#45;&gt;Node18</title>
<path fill="none" stroke="midnightblue" d="M1601.89,-183.488C1546.89,-178.227 1468.94,-166.956 1404.5,-143 1388.42,-137.024 1387.92,-127.962 1371.5,-123 1257.14,-88.4374 384.557,-75.2533 205.537,-72.8987"/>
<polygon fill="midnightblue" stroke="midnightblue" points="205.491,-69.3979 195.446,-72.7679 205.4,-76.3973 205.491,-69.3979"/>
</g>
<!-- Node31 -->
<g id="node31" class="node"><title>Node31</title>
<polygon fill="white" stroke="#bfbfbf" points="1533,-123.5 1533,-142.5 1578,-142.5 1578,-123.5 1533,-123.5"/>
<text text-anchor="middle" x="1555.5" y="-130.5" font-family="Helvetica,sans-Serif" font-size="10.00">cstdlib</text>
</g>
<!-- Node30&#45;&gt;Node31 -->
<g id="edge52" class="edge"><title>Node30&#45;&gt;Node31</title>
<path fill="none" stroke="midnightblue" d="M1653.12,-179.444C1634.28,-170.675 1604.77,-156.935 1583.12,-146.858"/>
<polygon fill="midnightblue" stroke="midnightblue" points="1584.34,-143.564 1573.79,-142.516 1581.38,-149.91 1584.34,-143.564"/>
</g>
<!-- Node32 -->
<g id="node32" class="node"><title>Node32</title>
<polygon fill="white" stroke="#bfbfbf" points="1596,-123.5 1596,-142.5 1655,-142.5 1655,-123.5 1596,-123.5"/>
<text text-anchor="middle" x="1625.5" y="-130.5" font-family="Helvetica,sans-Serif" font-size="10.00">exception</text>
</g>
<!-- Node30&#45;&gt;Node32 -->
<g id="edge53" class="edge"><title>Node30&#45;&gt;Node32</title>
<path fill="none" stroke="midnightblue" d="M1663.9,-179.083C1657.27,-171.298 1647.48,-159.801 1639.44,-150.367"/>
<polygon fill="midnightblue" stroke="midnightblue" points="1642.1,-148.094 1632.95,-142.751 1636.77,-152.633 1642.1,-148.094"/>
</g>
<!-- Node33 -->
<g id="node33" class="node"><title>Node33</title>
<polygon fill="white" stroke="#bfbfbf" points="1673.5,-123.5 1673.5,-142.5 1735.5,-142.5 1735.5,-123.5 1673.5,-123.5"/>
<text text-anchor="middle" x="1704.5" y="-130.5" font-family="Helvetica,sans-Serif" font-size="10.00">type_traits</text>
</g>
<!-- Node30&#45;&gt;Node33 -->
<g id="edge56" class="edge"><title>Node30&#45;&gt;Node33</title>
<path fill="none" stroke="midnightblue" d="M1676.95,-179.083C1681.51,-171.613 1688.17,-160.724 1693.79,-151.52"/>
<polygon fill="midnightblue" stroke="midnightblue" points="1696.92,-153.109 1699.15,-142.751 1690.95,-149.459 1696.92,-153.109"/>
</g>
<!-- Node34 -->
<g id="node34" class="node"><title>Node34</title>
<polygon fill="white" stroke="#bfbfbf" points="1754,-123.5 1754,-142.5 1813,-142.5 1813,-123.5 1754,-123.5"/>
<text text-anchor="middle" x="1783.5" y="-130.5" font-family="Helvetica,sans-Serif" font-size="10.00">typeindex</text>
</g>
<!-- Node30&#45;&gt;Node34 -->
<g id="edge57" class="edge"><title>Node30&#45;&gt;Node34</title>
<path fill="none" stroke="midnightblue" d="M1689.49,-179.324C1707.54,-170.625 1735.55,-157.12 1756.3,-147.113"/>
<polygon fill="midnightblue" stroke="midnightblue" points="1758.06,-150.15 1765.55,-142.655 1755.02,-143.845 1758.06,-150.15"/>
</g>
<!-- Node35&#45;&gt;Node4 -->
<g id="edge65" class="edge"><title>Node35&#45;&gt;Node4</title>
<path fill="none" stroke="midnightblue" d="M415.767,-179.069C418.336,-164.605 425.616,-136.334 444.5,-123 487.246,-92.8166 855.834,-77.468 965.712,-73.5347"/>
<polygon fill="midnightblue" stroke="midnightblue" points="965.936,-77.0291 975.806,-73.1796 965.689,-70.0334 965.936,-77.0291"/>
</g>
<!-- Node35&#45;&gt;Node8 -->
<g id="edge66" class="edge"><title>Node35&#45;&gt;Node8</title>
<path fill="none" stroke="midnightblue" d="M477.977,-179.459C547.68,-169.912 656.194,-154.515 712.379,-142.958"/>
<polygon fill="midnightblue" stroke="midnightblue" points="713.194,-146.363 722.24,-140.847 711.729,-139.518 713.194,-146.363"/>
</g>
<!-- Node36 -->
<g id="node36" class="node"><title>Node36</title>
<polygon fill="white" stroke="#bfbfbf" points="351.5,-123.5 351.5,-142.5 397.5,-142.5 397.5,-123.5 351.5,-123.5"/>
<text text-anchor="middle" x="374.5" y="-130.5" font-family="Helvetica,sans-Serif" font-size="10.00">cstring</text>
</g>
<!-- Node35&#45;&gt;Node36 -->
<g id="edge64" class="edge"><title>Node35&#45;&gt;Node36</title>
<path fill="none" stroke="midnightblue" d="M407.895,-179.083C402.245,-171.455 393.955,-160.264 387.049,-150.941"/>
<polygon fill="midnightblue" stroke="midnightblue" points="389.747,-148.703 380.982,-142.751 384.122,-152.87 389.747,-148.703"/>
</g>
<!-- Node37&#45;&gt;Node4 -->
<g id="edge68" class="edge"><title>Node37&#45;&gt;Node4</title>
<path fill="none" stroke="midnightblue" d="M914.807,-347.231C928.909,-329.385 958.5,-287.047 958.5,-246 958.5,-246 958.5,-246 958.5,-188 958.5,-151.754 975.595,-112.171 986.853,-90.0327"/>
<polygon fill="midnightblue" stroke="midnightblue" points="989.961,-91.641 991.532,-81.1633 983.77,-88.3745 989.961,-91.641"/>
</g>
<!-- Node37&#45;&gt;Node19 -->
<g id="edge81" class="edge"><title>Node37&#45;&gt;Node19</title>
<path fill="none" stroke="midnightblue" d="M846.369,-350.29C794.99,-344.077 727.313,-332.087 710.5,-311 699.39,-297.066 708.333,-276.967 717.546,-262.817"/>
<polygon fill="midnightblue" stroke="midnightblue" points="720.51,-264.686 723.43,-254.502 714.796,-260.643 720.51,-264.686"/>
</g>
<!-- Node37&#45;&gt;Node22 -->
<g id="edge82" class="edge"><title>Node37&#45;&gt;Node22</title>
<path fill="none" stroke="midnightblue" d="M907.875,-347.351C908.165,-334.668 907.73,-310.424 901.5,-291 891.213,-258.928 869.49,-226.018 855.467,-206.819"/>
<polygon fill="midnightblue" stroke="midnightblue" points="858.08,-204.468 849.286,-198.559 852.475,-208.662 858.08,-204.468"/>
</g>
<!-- Node37&#45;&gt;Node29 -->
<g id="edge83" class="edge"><title>Node37&#45;&gt;Node29</title>
<path fill="none" stroke="midnightblue" d="M891.112,-347.324C874.829,-338.703 849.633,-325.364 830.784,-315.386"/>
<polygon fill="midnightblue" stroke="midnightblue" points="832.323,-312.24 821.847,-310.655 829.048,-318.427 832.323,-312.24"/>
</g>
<!-- Node38 -->
<g id="node38" class="node"><title>Node38</title>
<g id="a_node38"><a xlink:href="optionstoragetemplate_8h.xhtml" target="_top" xlink:title="Defines gmx::OptionStorageTemplate template. ">
<polygon fill="white" stroke="black" points="1233.5,-235.5 1233.5,-254.5 1429.5,-254.5 1429.5,-235.5 1233.5,-235.5"/>
<text text-anchor="middle" x="1331.5" y="-242.5" font-family="Helvetica,sans-Serif" font-size="10.00">gromacs/options/optionstoragetemplate.h</text>
</a>
</g>
</g>
<!-- Node37&#45;&gt;Node38 -->
<g id="edge69" class="edge"><title>Node37&#45;&gt;Node38</title>
<path fill="none" stroke="midnightblue" d="M940.418,-347.46C1016.42,-327.742 1204.09,-279.055 1288.8,-257.078"/>
<polygon fill="midnightblue" stroke="midnightblue" points="1289.8,-260.434 1298.6,-254.535 1288.04,-253.658 1289.8,-260.434"/>
</g>
<!-- Node38&#45;&gt;Node4 -->
<g id="edge71" class="edge"><title>Node38&#45;&gt;Node4</title>
<path fill="none" stroke="midnightblue" d="M1247.81,-235.48C1210.3,-229.145 1166.5,-218.129 1130.5,-199 1123.5,-195.282 1047.08,-121.556 1012.88,-88.4066"/>
<polygon fill="midnightblue" stroke="midnightblue" points="1015.14,-85.7236 1005.53,-81.2733 1010.27,-90.7482 1015.14,-85.7236"/>
</g>
<!-- Node38&#45;&gt;Node7 -->
<g id="edge73" class="edge"><title>Node38&#45;&gt;Node7</title>
<path fill="none" stroke="midnightblue" d="M1313.51,-235.324C1295.46,-226.625 1267.45,-213.12 1246.7,-203.113"/>
<polygon fill="midnightblue" stroke="midnightblue" points="1247.98,-199.845 1237.45,-198.655 1244.94,-206.15 1247.98,-199.845"/>
</g>
<!-- Node38&#45;&gt;Node8 -->
<g id="edge72" class="edge"><title>Node38&#45;&gt;Node8</title>
<path fill="none" stroke="midnightblue" d="M1285.93,-235.46C1171.57,-214.03 874.618,-158.383 776.494,-139.995"/>
<polygon fill="midnightblue" stroke="midnightblue" points="777.052,-136.539 766.578,-138.137 775.762,-143.419 777.052,-136.539"/>
</g>
<!-- Node38&#45;&gt;Node12 -->
<g id="edge70" class="edge"><title>Node38&#45;&gt;Node12</title>
<path fill="none" stroke="midnightblue" d="M1429.6,-235.825C1585.29,-222.851 1871.5,-199 1871.5,-199 2026.56,-180.055 2117.22,-261.937 2218.5,-143 2238.05,-120.042 2200.79,-98.1399 2170.31,-85.0065"/>
<polygon fill="midnightblue" stroke="midnightblue" points="2171.31,-81.634 2160.73,-81.0602 2168.65,-88.1061 2171.31,-81.634"/>
</g>
<!-- Node38&#45;&gt;Node13 -->
<g id="edge80" class="edge"><title>Node38&#45;&gt;Node13</title>
<path fill="none" stroke="midnightblue" d="M1429.67,-235.656C1566.23,-223.94 1798.98,-203.536 1817.5,-199 1830.63,-195.783 1904.97,-164.498 1947.19,-146.531"/>
<polygon fill="midnightblue" stroke="midnightblue" points="1948.6,-149.734 1956.43,-142.594 1945.86,-143.294 1948.6,-149.734"/>
</g>
<!-- Node38&#45;&gt;Node14 -->
<g id="edge78" class="edge"><title>Node38&#45;&gt;Node14</title>
<path fill="none" stroke="midnightblue" d="M1408.44,-235.487C1454.67,-228.608 1507.23,-217.047 1521.5,-199 1532.89,-184.593 1507.62,-143.549 1507.5,-143 1503.89,-125.781 1503.39,-105.695 1503.64,-91.3776"/>
<polygon fill="midnightblue" stroke="midnightblue" points="1507.14,-91.403 1503.96,-81.2967 1500.14,-91.1802 1507.14,-91.403"/>
</g>
<!-- Node38&#45;&gt;Node30 -->
<g id="edge79" class="edge"><title>Node38&#45;&gt;Node30</title>
<path fill="none" stroke="midnightblue" d="M1385.37,-235.444C1445.81,-225.846 1543.74,-210.292 1607.88,-200.104"/>
<polygon fill="midnightblue" stroke="midnightblue" points="1608.55,-203.542 1617.88,-198.516 1607.45,-196.628 1608.55,-203.542"/>
</g>
<!-- Node39 -->
<g id="node39" class="node"><title>Node39</title>
<g id="a_node39"><a xlink:href="abstractoptionstorage_8h.xhtml" target="_top" xlink:title="Declares gmx::AbstractOptionStorage. ">
<polygon fill="white" stroke="black" points="1318.5,-179.5 1318.5,-198.5 1512.5,-198.5 1512.5,-179.5 1318.5,-179.5"/>
<text text-anchor="middle" x="1415.5" y="-186.5" font-family="Helvetica,sans-Serif" font-size="10.00">gromacs/options/abstractoptionstorage.h</text>
</a>
</g>
</g>
<!-- Node38&#45;&gt;Node39 -->
<g id="edge74" class="edge"><title>Node38&#45;&gt;Node39</title>
<path fill="none" stroke="midnightblue" d="M1345,-235.324C1358.1,-226.9 1378.21,-213.971 1393.61,-204.074"/>
<polygon fill="midnightblue" stroke="midnightblue" points="1395.52,-207.006 1402.04,-198.655 1391.73,-201.118 1395.52,-207.006"/>
</g>
<!-- Node39&#45;&gt;Node4 -->
<g id="edge75" class="edge"><title>Node39&#45;&gt;Node4</title>
<path fill="none" stroke="midnightblue" d="M1368.65,-179.469C1326.06,-171.345 1261.62,-158.135 1206.5,-143 1141.54,-125.164 1067.17,-98.7311 1026.67,-83.8154"/>
<polygon fill="midnightblue" stroke="midnightblue" points="1027.72,-80.4732 1017.13,-80.2836 1025.29,-87.0378 1027.72,-80.4732"/>
</g>
<!-- Node39&#45;&gt;Node9 -->
<g id="edge76" class="edge"><title>Node39&#45;&gt;Node9</title>
<path fill="none" stroke="midnightblue" d="M1395.38,-179.444C1374.48,-170.557 1341.57,-156.563 1317.78,-146.451"/>
<polygon fill="midnightblue" stroke="midnightblue" points="1319.1,-143.208 1308.53,-142.516 1316.36,-149.65 1319.1,-143.208"/>
</g>
<!-- Node39&#45;&gt;Node11 -->
<g id="edge77" class="edge"><title>Node39&#45;&gt;Node11</title>
<path fill="none" stroke="midnightblue" d="M1512.75,-182.335C1636.02,-174.887 1855.31,-160.748 2053.19,-143.086"/>
<polygon fill="midnightblue" stroke="midnightblue" points="2053.55,-146.569 2063.2,-142.189 2052.92,-139.597 2053.55,-146.569"/>
</g>
</g>
</svg>
