<?xml version="1.0" encoding="UTF-8" standalone="no"?>
<!DOCTYPE svg PUBLIC "-//W3C//DTD SVG 1.1//EN"
 "http://www.w3.org/Graphics/SVG/1.1/DTD/svg11.dtd">
<!-- Generated by graphviz version 2.38.0 (20140413.2041)
 -->
<!-- Title: src/gromacs/selection/selection.h Pages: 1 -->
<svg width="875pt" height="274pt"
 viewBox="0.00 0.00 874.50 274.00" xmlns="http://www.w3.org/2000/svg" xmlns:xlink="http://www.w3.org/1999/xlink">
<g id="graph0" class="graph" transform="scale(1 1) rotate(0) translate(4 270)">
<title>src/gromacs/selection/selection.h</title>
<polygon fill="white" stroke="none" points="-4,4 -4,-270 870.5,-270 870.5,4 -4,4"/>
<!-- Node1 -->
<g id="node1" class="node"><title>Node1</title>
<polygon fill="#bfbfbf" stroke="black" points="336,-235.5 336,-265.5 449,-265.5 449,-235.5 336,-235.5"/>
<text text-anchor="start" x="344" y="-253.5" font-family="Helvetica,sans-Serif" font-size="10.00">src/gromacs/selection</text>
<text text-anchor="middle" x="392.5" y="-242.5" font-family="Helvetica,sans-Serif" font-size="10.00">/selection.h</text>
</g>
<!-- Node2 -->
<g id="node2" class="node"><title>Node2</title>
<polygon fill="white" stroke="#bfbfbf" points="0,-62 0,-81 41,-81 41,-62 0,-62"/>
<text text-anchor="middle" x="20.5" y="-69" font-family="Helvetica,sans-Serif" font-size="10.00">string</text>
</g>
<!-- Node1&#45;&gt;Node2 -->
<g id="edge1" class="edge"><title>Node1&#45;&gt;Node2</title>
<path fill="none" stroke="midnightblue" d="M335.762,-245.877C236.525,-238.957 39.9771,-222.436 19.5,-199 -6.66339,-169.056 4.68126,-118.193 13.566,-90.9781"/>
<polygon fill="midnightblue" stroke="midnightblue" points="16.9909,-91.7876 16.9938,-81.1928 10.3845,-89.4734 16.9909,-91.7876"/>
</g>
<!-- Node3 -->
<g id="node3" class="node"><title>Node3</title>
<polygon fill="white" stroke="#bfbfbf" points="322.5,-123.5 322.5,-142.5 366.5,-142.5 366.5,-123.5 322.5,-123.5"/>
<text text-anchor="middle" x="344.5" y="-130.5" font-family="Helvetica,sans-Serif" font-size="10.00">vector</text>
</g>
<!-- Node1&#45;&gt;Node3 -->
<g id="edge2" class="edge"><title>Node1&#45;&gt;Node3</title>
<path fill="none" stroke="midnightblue" d="M390.014,-235.286C387.162,-220.728 381.782,-197.653 373.5,-179 369.115,-169.125 362.733,-158.939 357.071,-150.761"/>
<polygon fill="midnightblue" stroke="midnightblue" points="359.812,-148.577 351.13,-142.504 354.13,-152.666 359.812,-148.577"/>
</g>
<!-- Node4 -->
<g id="node4" class="node"><title>Node4</title>
<g id="a_node4"><a xlink:href="position_8h.xhtml" target="_top" xlink:title="API for handling positions. ">
<polygon fill="white" stroke="black" points="29,-179.5 29,-198.5 170,-198.5 170,-179.5 29,-179.5"/>
<text text-anchor="middle" x="99.5" y="-186.5" font-family="Helvetica,sans-Serif" font-size="10.00">gromacs/selection/position.h</text>
</a>
</g>
</g>
<!-- Node1&#45;&gt;Node4 -->
<g id="edge3" class="edge"><title>Node1&#45;&gt;Node4</title>
<path fill="none" stroke="midnightblue" d="M335.659,-237.957C282.301,-227.122 203.161,-211.051 151.453,-200.55"/>
<polygon fill="midnightblue" stroke="midnightblue" points="151.99,-197.088 141.493,-198.528 150.597,-203.948 151.99,-197.088"/>
</g>
<!-- Node7 -->
<g id="node7" class="node"><title>Node7</title>
<g id="a_node7"><a xlink:href="selectionenums_8h.xhtml" target="_top" xlink:title="Declares common types used in selections. ">
<polygon fill="white" stroke="black" points="188.5,-179.5 188.5,-198.5 364.5,-198.5 364.5,-179.5 188.5,-179.5"/>
<text text-anchor="middle" x="276.5" y="-186.5" font-family="Helvetica,sans-Serif" font-size="10.00">gromacs/selection/selectionenums.h</text>
</a>
</g>
</g>
<!-- Node1&#45;&gt;Node7 -->
<g id="edge7" class="edge"><title>Node1&#45;&gt;Node7</title>
<path fill="none" stroke="midnightblue" d="M365.01,-235.399C346.068,-225.684 321.058,-212.855 302.456,-203.314"/>
<polygon fill="midnightblue" stroke="midnightblue" points="303.874,-200.108 293.379,-198.658 300.679,-206.336 303.874,-200.108"/>
</g>
<!-- Node9 -->
<g id="node9" class="node"><title>Node9</title>
<g id="a_node9"><a xlink:href="arrayref_8h.xhtml" target="_top" xlink:title="Declares gmx::ArrayRef and gmx::ConstArrayRef. ">
<polygon fill="white" stroke="black" points="421,-179.5 421,-198.5 546,-198.5 546,-179.5 421,-179.5"/>
<text text-anchor="middle" x="483.5" y="-186.5" font-family="Helvetica,sans-Serif" font-size="10.00">gromacs/utility/arrayref.h</text>
</a>
</g>
</g>
<!-- Node1&#45;&gt;Node9 -->
<g id="edge9" class="edge"><title>Node1&#45;&gt;Node9</title>
<path fill="none" stroke="midnightblue" d="M414.066,-235.399C428.38,-226.04 447.112,-213.792 461.511,-204.377"/>
<polygon fill="midnightblue" stroke="midnightblue" points="463.804,-207.06 470.259,-198.658 459.974,-201.201 463.804,-207.06"/>
</g>
<!-- Node14 -->
<g id="node14" class="node"><title>Node14</title>
<g id="a_node14"><a xlink:href="gmxassert_8h.xhtml" target="_top" xlink:title="Defines assert macros customized for Gromacs. ">
<polygon fill="white" stroke="black" points="653,-123.5 653,-142.5 790,-142.5 790,-123.5 653,-123.5"/>
<text text-anchor="middle" x="721.5" y="-130.5" font-family="Helvetica,sans-Serif" font-size="10.00">gromacs/utility/gmxassert.h</text>
</a>
</g>
</g>
<!-- Node1&#45;&gt;Node14 -->
<g id="edge22" class="edge"><title>Node1&#45;&gt;Node14</title>
<path fill="none" stroke="midnightblue" d="M440.632,-235.445C473.008,-225.76 516.545,-212.285 554.5,-199 602.801,-182.094 657.976,-160.079 691.251,-146.5"/>
<polygon fill="midnightblue" stroke="midnightblue" points="692.916,-149.6 700.843,-142.571 690.263,-143.122 692.916,-149.6"/>
</g>
<!-- Node19 -->
<g id="node19" class="node"><title>Node19</title>
<g id="a_node19"><a xlink:href="classhelpers_8h.xhtml" target="_top" xlink:title="Declares common utility classes and macros. ">
<polygon fill="white" stroke="black" points="720.5,-179.5 720.5,-198.5 866.5,-198.5 866.5,-179.5 720.5,-179.5"/>
<text text-anchor="middle" x="793.5" y="-186.5" font-family="Helvetica,sans-Serif" font-size="10.00">gromacs/utility/classhelpers.h</text>
</a>
</g>
</g>
<!-- Node1&#45;&gt;Node19 -->
<g id="edge20" class="edge"><title>Node1&#45;&gt;Node19</title>
<path fill="none" stroke="midnightblue" d="M449.103,-241.101C521.934,-230.295 648.306,-211.544 726.045,-200.009"/>
<polygon fill="midnightblue" stroke="midnightblue" points="726.834,-203.43 736.212,-198.5 725.807,-196.506 726.834,-203.43"/>
</g>
<!-- Node5 -->
<g id="node5" class="node"><title>Node5</title>
<g id="a_node5"><a xlink:href="indexutil_8h.xhtml" target="_top" xlink:title="API for handling index files and index groups. ">
<polygon fill="white" stroke="black" points="29,-123.5 29,-142.5 172,-142.5 172,-123.5 29,-123.5"/>
<text text-anchor="middle" x="100.5" y="-130.5" font-family="Helvetica,sans-Serif" font-size="10.00">gromacs/selection/indexutil.h</text>
</a>
</g>
</g>
<!-- Node4&#45;&gt;Node5 -->
<g id="edge4" class="edge"><title>Node4&#45;&gt;Node5</title>
<path fill="none" stroke="midnightblue" d="M99.6651,-179.083C99.7962,-172.006 99.9841,-161.861 100.148,-152.986"/>
<polygon fill="midnightblue" stroke="midnightblue" points="103.652,-152.814 100.338,-142.751 96.6533,-152.685 103.652,-152.814"/>
</g>
<!-- Node5&#45;&gt;Node2 -->
<g id="edge6" class="edge"><title>Node5&#45;&gt;Node2</title>
<path fill="none" stroke="midnightblue" d="M89.038,-123.475C76.325,-114.02 55.5872,-98.5961 40.2474,-87.1871"/>
<polygon fill="midnightblue" stroke="midnightblue" points="42.0536,-84.1686 31.9408,-81.0091 37.8761,-89.7854 42.0536,-84.1686"/>
</g>
<!-- Node6 -->
<g id="node6" class="node"><title>Node6</title>
<polygon fill="white" stroke="#bfbfbf" points="79,-62 79,-81 122,-81 122,-62 79,-62"/>
<text text-anchor="middle" x="100.5" y="-69" font-family="Helvetica,sans-Serif" font-size="10.00">cstdio</text>
</g>
<!-- Node5&#45;&gt;Node6 -->
<g id="edge5" class="edge"><title>Node5&#45;&gt;Node6</title>
<path fill="none" stroke="midnightblue" d="M100.5,-123.475C100.5,-115.08 100.5,-101.981 100.5,-91.1631"/>
<polygon fill="midnightblue" stroke="midnightblue" points="104,-91.0091 100.5,-81.0091 97.0001,-91.0091 104,-91.0091"/>
</g>
<!-- Node8 -->
<g id="node8" class="node"><title>Node8</title>
<g id="a_node8"><a xlink:href="flags_8h.xhtml" target="_top" xlink:title="Declares gmx::FlagsTemplate. ">
<polygon fill="white" stroke="black" points="191,-123.5 191,-142.5 304,-142.5 304,-123.5 191,-123.5"/>
<text text-anchor="middle" x="247.5" y="-130.5" font-family="Helvetica,sans-Serif" font-size="10.00">gromacs/utility/flags.h</text>
</a>
</g>
</g>
<!-- Node7&#45;&gt;Node8 -->
<g id="edge8" class="edge"><title>Node7&#45;&gt;Node8</title>
<path fill="none" stroke="midnightblue" d="M271.711,-179.083C267.742,-171.691 261.975,-160.953 257.065,-151.811"/>
<polygon fill="midnightblue" stroke="midnightblue" points="260.014,-149.905 252.2,-142.751 253.847,-153.217 260.014,-149.905"/>
</g>
<!-- Node9&#45;&gt;Node3 -->
<g id="edge14" class="edge"><title>Node9&#45;&gt;Node3</title>
<path fill="none" stroke="midnightblue" d="M461.475,-179.444C438.396,-170.478 401.938,-156.314 375.859,-146.183"/>
<polygon fill="midnightblue" stroke="midnightblue" points="377.011,-142.875 366.422,-142.516 374.476,-149.4 377.011,-142.875"/>
</g>
<!-- Node10 -->
<g id="node10" class="node"><title>Node10</title>
<polygon fill="white" stroke="#bfbfbf" points="521,-123.5 521,-142.5 570,-142.5 570,-123.5 521,-123.5"/>
<text text-anchor="middle" x="545.5" y="-130.5" font-family="Helvetica,sans-Serif" font-size="10.00">cstddef</text>
</g>
<!-- Node9&#45;&gt;Node10 -->
<g id="edge10" class="edge"><title>Node9&#45;&gt;Node10</title>
<path fill="none" stroke="midnightblue" d="M493.461,-179.324C502.627,-171.341 516.437,-159.313 527.528,-149.653"/>
<polygon fill="midnightblue" stroke="midnightblue" points="530.115,-152.041 535.357,-142.834 525.518,-146.762 530.115,-152.041"/>
</g>
<!-- Node11 -->
<g id="node11" class="node"><title>Node11</title>
<polygon fill="white" stroke="#bfbfbf" points="588,-123.5 588,-142.5 635,-142.5 635,-123.5 588,-123.5"/>
<text text-anchor="middle" x="611.5" y="-130.5" font-family="Helvetica,sans-Serif" font-size="10.00">iterator</text>
</g>
<!-- Node9&#45;&gt;Node11 -->
<g id="edge11" class="edge"><title>Node9&#45;&gt;Node11</title>
<path fill="none" stroke="midnightblue" d="M503.782,-179.444C524.847,-170.557 558.017,-156.563 581.986,-146.451"/>
<polygon fill="midnightblue" stroke="midnightblue" points="583.46,-149.628 591.313,-142.516 580.739,-143.179 583.46,-149.628"/>
</g>
<!-- Node12 -->
<g id="node12" class="node"><title>Node12</title>
<polygon fill="white" stroke="#bfbfbf" points="385,-123.5 385,-142.5 444,-142.5 444,-123.5 385,-123.5"/>
<text text-anchor="middle" x="414.5" y="-130.5" font-family="Helvetica,sans-Serif" font-size="10.00">stdexcept</text>
</g>
<!-- Node9&#45;&gt;Node12 -->
<g id="edge12" class="edge"><title>Node9&#45;&gt;Node12</title>
<path fill="none" stroke="midnightblue" d="M472.414,-179.324C462.014,-171.185 446.239,-158.839 433.778,-149.087"/>
<polygon fill="midnightblue" stroke="midnightblue" points="435.82,-146.241 425.788,-142.834 431.506,-151.753 435.82,-146.241"/>
</g>
<!-- Node13 -->
<g id="node13" class="node"><title>Node13</title>
<polygon fill="white" stroke="#bfbfbf" points="462.5,-123.5 462.5,-142.5 502.5,-142.5 502.5,-123.5 462.5,-123.5"/>
<text text-anchor="middle" x="482.5" y="-130.5" font-family="Helvetica,sans-Serif" font-size="10.00">utility</text>
</g>
<!-- Node9&#45;&gt;Node13 -->
<g id="edge13" class="edge"><title>Node9&#45;&gt;Node13</title>
<path fill="none" stroke="midnightblue" d="M483.335,-179.083C483.204,-172.006 483.016,-161.861 482.852,-152.986"/>
<polygon fill="midnightblue" stroke="midnightblue" points="486.347,-152.685 482.662,-142.751 479.348,-152.814 486.347,-152.685"/>
</g>
<!-- Node9&#45;&gt;Node14 -->
<g id="edge15" class="edge"><title>Node9&#45;&gt;Node14</title>
<path fill="none" stroke="midnightblue" d="M521.212,-179.444C562.643,-170.043 629.257,-154.929 674.167,-144.739"/>
<polygon fill="midnightblue" stroke="midnightblue" points="674.987,-148.142 683.965,-142.516 673.438,-141.316 674.987,-148.142"/>
</g>
<!-- Node15 -->
<g id="node15" class="node"><title>Node15</title>
<g id="a_node15"><a xlink:href="basedefinitions_8h.xhtml" target="_top" xlink:title="Basic types and macros used throughout GROMACS. ">
<polygon fill="white" stroke="black" points="566,-62 566,-81 723,-81 723,-62 566,-62"/>
<text text-anchor="middle" x="644.5" y="-69" font-family="Helvetica,sans-Serif" font-size="10.00">gromacs/utility/basedefinitions.h</text>
</a>
</g>
</g>
<!-- Node14&#45;&gt;Node15 -->
<g id="edge16" class="edge"><title>Node14&#45;&gt;Node15</title>
<path fill="none" stroke="midnightblue" d="M710.468,-123.475C698.232,-114.02 678.271,-98.5961 663.507,-87.1871"/>
<polygon fill="midnightblue" stroke="midnightblue" points="665.565,-84.3541 655.512,-81.0091 661.285,-89.8931 665.565,-84.3541"/>
</g>
<!-- Node18 -->
<g id="node18" class="node"><title>Node18</title>
<g id="a_node18"><a xlink:href="current__function_8h.xhtml" target="_top" xlink:title="Declares GMX_CURRENT_FUNCTION for getting the current function name. ">
<polygon fill="white" stroke="black" points="741,-56.5 741,-86.5 854,-86.5 854,-56.5 741,-56.5"/>
<text text-anchor="start" x="749" y="-74.5" font-family="Helvetica,sans-Serif" font-size="10.00">gromacs/utility/current</text>
<text text-anchor="middle" x="797.5" y="-63.5" font-family="Helvetica,sans-Serif" font-size="10.00">_function.h</text>
</a>
</g>
</g>
<!-- Node14&#45;&gt;Node18 -->
<g id="edge19" class="edge"><title>Node14&#45;&gt;Node18</title>
<path fill="none" stroke="midnightblue" d="M732.389,-123.475C742.586,-115.492 758.217,-103.254 771.609,-92.7703"/>
<polygon fill="midnightblue" stroke="midnightblue" points="773.872,-95.4434 779.588,-86.523 769.557,-89.9316 773.872,-95.4434"/>
</g>
<!-- Node16 -->
<g id="node16" class="node"><title>Node16</title>
<polygon fill="white" stroke="#bfbfbf" points="584,-0.5 584,-19.5 633,-19.5 633,-0.5 584,-0.5"/>
<text text-anchor="middle" x="608.5" y="-7.5" font-family="Helvetica,sans-Serif" font-size="10.00">stdint.h</text>
</g>
<!-- Node15&#45;&gt;Node16 -->
<g id="edge17" class="edge"><title>Node15&#45;&gt;Node16</title>
<path fill="none" stroke="midnightblue" d="M639.342,-61.9751C634.049,-53.2268 625.665,-39.3691 618.973,-28.3093"/>
<polygon fill="midnightblue" stroke="midnightblue" points="621.82,-26.2531 613.648,-19.5091 615.83,-29.8768 621.82,-26.2531"/>
</g>
<!-- Node17 -->
<g id="node17" class="node"><title>Node17</title>
<polygon fill="white" stroke="#bfbfbf" points="651,-0.5 651,-19.5 710,-19.5 710,-0.5 651,-0.5"/>
<text text-anchor="middle" x="680.5" y="-7.5" font-family="Helvetica,sans-Serif" font-size="10.00">inttypes.h</text>
</g>
<!-- Node15&#45;&gt;Node17 -->
<g id="edge18" class="edge"><title>Node15&#45;&gt;Node17</title>
<path fill="none" stroke="midnightblue" d="M649.658,-61.9751C654.951,-53.2268 663.335,-39.3691 670.027,-28.3093"/>
<polygon fill="midnightblue" stroke="midnightblue" points="673.17,-29.8768 675.352,-19.5091 667.18,-26.2531 673.17,-29.8768"/>
</g>
<!-- Node20 -->
<g id="node20" class="node"><title>Node20</title>
<polygon fill="white" stroke="#bfbfbf" points="808.5,-123.5 808.5,-142.5 860.5,-142.5 860.5,-123.5 808.5,-123.5"/>
<text text-anchor="middle" x="834.5" y="-130.5" font-family="Helvetica,sans-Serif" font-size="10.00">memory</text>
</g>
<!-- Node19&#45;&gt;Node20 -->
<g id="edge21" class="edge"><title>Node19&#45;&gt;Node20</title>
<path fill="none" stroke="midnightblue" d="M800.27,-179.083C806.062,-171.455 814.558,-160.264 821.638,-150.941"/>
<polygon fill="midnightblue" stroke="midnightblue" points="824.596,-152.832 827.856,-142.751 819.021,-148.599 824.596,-152.832"/>
</g>
</g>
</svg>
