<?xml version="1.0" encoding="UTF-8" standalone="no"?>
<!DOCTYPE svg PUBLIC "-//W3C//DTD SVG 1.1//EN"
 "http://www.w3.org/Graphics/SVG/1.1/DTD/svg11.dtd">
<!-- Generated by graphviz version 2.38.0 (20140413.2041)
 -->
<!-- Title: src/gromacs/selection/selhelp.cpp Pages: 1 -->
<svg width="1926pt" height="352pt"
 viewBox="0.00 0.00 1926.00 352.00" xmlns="http://www.w3.org/2000/svg" xmlns:xlink="http://www.w3.org/1999/xlink">
<g id="graph0" class="graph" transform="scale(1 1) rotate(0) translate(4 348)">
<title>src/gromacs/selection/selhelp.cpp</title>
<polygon fill="white" stroke="none" points="-4,4 -4,-348 1922,-348 1922,4 -4,4"/>
<!-- Node1 -->
<g id="node1" class="node"><title>Node1</title>
<polygon fill="#bfbfbf" stroke="black" points="424,-313.5 424,-343.5 537,-343.5 537,-313.5 424,-313.5"/>
<text text-anchor="start" x="432" y="-331.5" font-family="Helvetica,sans-Serif" font-size="10.00">src/gromacs/selection</text>
<text text-anchor="middle" x="480.5" y="-320.5" font-family="Helvetica,sans-Serif" font-size="10.00">/selhelp.cpp</text>
</g>
<!-- Node2 -->
<g id="node2" class="node"><title>Node2</title>
<g id="a_node2"><a xlink:href="gmxpre_8h.xhtml" target="_top" xlink:title="Prerequisite header file for GROMACS build. ">
<polygon fill="white" stroke="black" points="0,-252 0,-271 57,-271 57,-252 0,-252"/>
<text text-anchor="middle" x="28.5" y="-259" font-family="Helvetica,sans-Serif" font-size="10.00">gmxpre.h</text>
</a>
</g>
</g>
<!-- Node1&#45;&gt;Node2 -->
<g id="edge1" class="edge"><title>Node1&#45;&gt;Node2</title>
<path fill="none" stroke="midnightblue" d="M423.976,-324.149C344.481,-318.619 195.495,-305.254 71.5,-277 68.0146,-276.206 64.4138,-275.238 60.8481,-274.182"/>
<polygon fill="midnightblue" stroke="midnightblue" points="61.6073,-270.751 51.0167,-271.048 59.4811,-277.42 61.6073,-270.751"/>
</g>
<!-- Node3 -->
<g id="node3" class="node"><title>Node3</title>
<g id="a_node3"><a xlink:href="selhelp_8h.xhtml" target="_top" xlink:title="Functions for initializing online help for selections. ">
<polygon fill="white" stroke="black" points="132.5,-252 132.5,-271 188.5,-271 188.5,-252 132.5,-252"/>
<text text-anchor="middle" x="160.5" y="-259" font-family="Helvetica,sans-Serif" font-size="10.00">selhelp.h</text>
</a>
</g>
</g>
<!-- Node1&#45;&gt;Node3 -->
<g id="edge2" class="edge"><title>Node1&#45;&gt;Node3</title>
<path fill="none" stroke="midnightblue" d="M423.919,-320.742C366.257,-313.081 274.592,-298.755 197.5,-277 194.912,-276.27 192.255,-275.426 189.61,-274.52"/>
<polygon fill="midnightblue" stroke="midnightblue" points="190.818,-271.235 180.224,-271.058 188.395,-277.803 190.818,-271.235"/>
</g>
<!-- Node5 -->
<g id="node5" class="node"><title>Node5</title>
<polygon fill="white" stroke="#bfbfbf" points="447.5,-62 447.5,-81 499.5,-81 499.5,-62 447.5,-62"/>
<text text-anchor="middle" x="473.5" y="-69" font-family="Helvetica,sans-Serif" font-size="10.00">memory</text>
</g>
<!-- Node1&#45;&gt;Node5 -->
<g id="edge5" class="edge"><title>Node1&#45;&gt;Node5</title>
<path fill="none" stroke="midnightblue" d="M423.78,-326.796C334.587,-324.515 167.185,-315.122 123.5,-277 100.179,-256.649 108.763,-240.657 104.5,-210 102.602,-196.354 98.365,-191.336 104.5,-179 122.866,-142.07 140.652,-139.391 178.5,-123 266.255,-84.9969 380.303,-75.5355 437.482,-73.2191"/>
<polygon fill="midnightblue" stroke="midnightblue" points="437.609,-76.7169 447.478,-72.8645 437.36,-69.7213 437.609,-76.7169"/>
</g>
<!-- Node6 -->
<g id="node6" class="node"><title>Node6</title>
<polygon fill="white" stroke="#bfbfbf" points="206.5,-252 206.5,-271 236.5,-271 236.5,-252 206.5,-252"/>
<text text-anchor="middle" x="221.5" y="-259" font-family="Helvetica,sans-Serif" font-size="10.00">set</text>
</g>
<!-- Node1&#45;&gt;Node6 -->
<g id="edge6" class="edge"><title>Node1&#45;&gt;Node6</title>
<path fill="none" stroke="midnightblue" d="M423.89,-320.707C375.309,-313.626 304.074,-300.231 245.5,-277 244.787,-276.717 244.071,-276.415 243.356,-276.095"/>
<polygon fill="midnightblue" stroke="midnightblue" points="244.772,-272.885 234.296,-271.299 241.497,-279.071 244.772,-272.885"/>
</g>
<!-- Node7 -->
<g id="node7" class="node"><title>Node7</title>
<polygon fill="white" stroke="#bfbfbf" points="1034,-62 1034,-81 1075,-81 1075,-62 1034,-62"/>
<text text-anchor="middle" x="1054.5" y="-69" font-family="Helvetica,sans-Serif" font-size="10.00">string</text>
</g>
<!-- Node1&#45;&gt;Node7 -->
<g id="edge7" class="edge"><title>Node1&#45;&gt;Node7</title>
<path fill="none" stroke="midnightblue" d="M537.001,-323.047C695.321,-309.162 1136.18,-260.354 1204.5,-143 1231.87,-95.9871 1137.01,-79.963 1085.52,-74.7971"/>
<polygon fill="midnightblue" stroke="midnightblue" points="1085.54,-71.2833 1075.26,-73.8523 1084.89,-78.2539 1085.54,-71.2833"/>
</g>
<!-- Node8 -->
<g id="node8" class="node"><title>Node8</title>
<polygon fill="white" stroke="#bfbfbf" points="374.5,-252 374.5,-271 414.5,-271 414.5,-252 374.5,-252"/>
<text text-anchor="middle" x="394.5" y="-259" font-family="Helvetica,sans-Serif" font-size="10.00">utility</text>
</g>
<!-- Node1&#45;&gt;Node8 -->
<g id="edge8" class="edge"><title>Node1&#45;&gt;Node8</title>
<path fill="none" stroke="midnightblue" d="M461.839,-313.396C447.766,-302.759 428.507,-288.203 414.189,-277.381"/>
<polygon fill="midnightblue" stroke="midnightblue" points="416.092,-274.432 406.004,-271.195 411.871,-280.016 416.092,-274.432"/>
</g>
<!-- Node9 -->
<g id="node9" class="node"><title>Node9</title>
<polygon fill="white" stroke="#bfbfbf" points="342.5,-123.5 342.5,-142.5 386.5,-142.5 386.5,-123.5 342.5,-123.5"/>
<text text-anchor="middle" x="364.5" y="-130.5" font-family="Helvetica,sans-Serif" font-size="10.00">vector</text>
</g>
<!-- Node1&#45;&gt;Node9 -->
<g id="edge9" class="edge"><title>Node1&#45;&gt;Node9</title>
<path fill="none" stroke="midnightblue" d="M476.516,-313.259C471.631,-296.671 462.616,-268.65 451.5,-246 435.912,-214.236 430.538,-206.682 408.5,-179 400.267,-168.659 389.991,-158.043 381.44,-149.721"/>
<polygon fill="midnightblue" stroke="midnightblue" points="383.832,-147.166 374.18,-142.797 379.001,-152.232 383.832,-147.166"/>
</g>
<!-- Node10 -->
<g id="node10" class="node"><title>Node10</title>
<g id="a_node10"><a xlink:href="helptopic_8h.xhtml" target="_top" xlink:title="Declares helper classes for implementing gmx::IHelpTopic. ">
<polygon fill="white" stroke="black" points="255,-246.5 255,-276.5 356,-276.5 356,-246.5 255,-246.5"/>
<text text-anchor="start" x="263" y="-264.5" font-family="Helvetica,sans-Serif" font-size="10.00">gromacs/onlinehelp</text>
<text text-anchor="middle" x="305.5" y="-253.5" font-family="Helvetica,sans-Serif" font-size="10.00">/helptopic.h</text>
</a>
</g>
</g>
<!-- Node1&#45;&gt;Node10 -->
<g id="edge10" class="edge"><title>Node1&#45;&gt;Node10</title>
<path fill="none" stroke="midnightblue" d="M442.528,-313.396C416.27,-303.643 381.14,-290.595 353.025,-280.152"/>
<polygon fill="midnightblue" stroke="midnightblue" points="353.991,-276.777 343.398,-276.577 351.554,-283.339 353.991,-276.777"/>
</g>
<!-- Node12 -->
<g id="node12" class="node"><title>Node12</title>
<g id="a_node12"><a xlink:href="stringutil_8h.xhtml" target="_top" xlink:title="Declares common string utility and formatting routines. ">
<polygon fill="white" stroke="black" points="271.5,-185 271.5,-204 399.5,-204 399.5,-185 271.5,-185"/>
<text text-anchor="middle" x="335.5" y="-192" font-family="Helvetica,sans-Serif" font-size="10.00">gromacs/utility/stringutil.h</text>
</a>
</g>
</g>
<!-- Node1&#45;&gt;Node12 -->
<g id="edge41" class="edge"><title>Node1&#45;&gt;Node12</title>
<path fill="none" stroke="midnightblue" d="M473.196,-313.407C463.613,-295.942 445.417,-266.041 423.5,-246 406.39,-230.354 383.611,-217.447 365.515,-208.598"/>
<polygon fill="midnightblue" stroke="midnightblue" points="366.547,-205.215 356.01,-204.108 363.557,-211.544 366.547,-205.215"/>
</g>
<!-- Node14 -->
<g id="node14" class="node"><title>Node14</title>
<g id="a_node14"><a xlink:href="helpwritercontext_8h.xhtml" target="_top" xlink:title="Declares gmx::HelpWriterContext. ">
<polygon fill="white" stroke="black" points="467.5,-179.5 467.5,-209.5 569.5,-209.5 569.5,-179.5 467.5,-179.5"/>
<text text-anchor="start" x="475.5" y="-197.5" font-family="Helvetica,sans-Serif" font-size="10.00">gromacs/onlinehelp</text>
<text text-anchor="middle" x="518.5" y="-186.5" font-family="Helvetica,sans-Serif" font-size="10.00">/helpwritercontext.h</text>
</a>
</g>
</g>
<!-- Node1&#45;&gt;Node14 -->
<g id="edge19" class="edge"><title>Node1&#45;&gt;Node14</title>
<path fill="none" stroke="midnightblue" d="M484.567,-313.374C491.023,-290.945 503.696,-246.924 511.595,-219.486"/>
<polygon fill="midnightblue" stroke="midnightblue" points="515.059,-220.103 514.463,-209.525 508.333,-218.166 515.059,-220.103"/>
</g>
<!-- Node15 -->
<g id="node15" class="node"><title>Node15</title>
<g id="a_node15"><a xlink:href="exceptions_8h.xhtml" target="_top" xlink:title="Declares common exception classes and macros for fatal error handling. ">
<polygon fill="white" stroke="black" points="938,-185 938,-204 1077,-204 1077,-185 938,-185"/>
<text text-anchor="middle" x="1007.5" y="-192" font-family="Helvetica,sans-Serif" font-size="10.00">gromacs/utility/exceptions.h</text>
</a>
</g>
</g>
<!-- Node1&#45;&gt;Node15 -->
<g id="edge23" class="edge"><title>Node1&#45;&gt;Node15</title>
<path fill="none" stroke="midnightblue" d="M536.399,-313.499C641.83,-287.091 868.016,-230.437 963.514,-206.517"/>
<polygon fill="midnightblue" stroke="midnightblue" points="964.57,-209.861 973.42,-204.036 962.869,-203.071 964.57,-209.861"/>
</g>
<!-- Node25 -->
<g id="node25" class="node"><title>Node25</title>
<g id="a_node25"><a xlink:href="gmxassert_8h.xhtml" target="_top" xlink:title="Defines assert macros customized for Gromacs. ">
<polygon fill="white" stroke="black" points="1604,-123.5 1604,-142.5 1741,-142.5 1741,-123.5 1604,-123.5"/>
<text text-anchor="middle" x="1672.5" y="-130.5" font-family="Helvetica,sans-Serif" font-size="10.00">gromacs/utility/gmxassert.h</text>
</a>
</g>
</g>
<!-- Node1&#45;&gt;Node25 -->
<g id="edge40" class="edge"><title>Node1&#45;&gt;Node25</title>
<path fill="none" stroke="midnightblue" d="M537.032,-326.697C702.643,-323.945 1184.62,-312.981 1337.5,-277 1460.31,-248.094 1595.18,-177.383 1648.71,-147.589"/>
<polygon fill="midnightblue" stroke="midnightblue" points="1650.45,-150.629 1657.45,-142.683 1647.02,-144.525 1650.45,-150.629"/>
</g>
<!-- Node26 -->
<g id="node26" class="node"><title>Node26</title>
<g id="a_node26"><a xlink:href="textwriter_8h.xhtml" target="_top" xlink:title="Declares gmx::TextWriter. ">
<polygon fill="white" stroke="black" points="587.5,-185 587.5,-204 719.5,-204 719.5,-185 587.5,-185"/>
<text text-anchor="middle" x="653.5" y="-192" font-family="Helvetica,sans-Serif" font-size="10.00">gromacs/utility/textwriter.h</text>
</a>
</g>
</g>
<!-- Node1&#45;&gt;Node26 -->
<g id="edge42" class="edge"><title>Node1&#45;&gt;Node26</title>
<path fill="none" stroke="midnightblue" d="M499.014,-313.374C531.981,-288.22 600.538,-235.91 634.118,-210.288"/>
<polygon fill="midnightblue" stroke="midnightblue" points="636.405,-212.946 642.232,-204.097 632.159,-207.381 636.405,-212.946"/>
</g>
<!-- Node28 -->
<g id="node28" class="node"><title>Node28</title>
<g id="a_node28"><a xlink:href="selmethod_8h.xhtml" target="_top" xlink:title="API for handling selection methods. ">
<polygon fill="white" stroke="black" points="1648.5,-252 1648.5,-271 1718.5,-271 1718.5,-252 1648.5,-252"/>
<text text-anchor="middle" x="1683.5" y="-259" font-family="Helvetica,sans-Serif" font-size="10.00">selmethod.h</text>
</a>
</g>
</g>
<!-- Node1&#45;&gt;Node28 -->
<g id="edge48" class="edge"><title>Node1&#45;&gt;Node28</title>
<path fill="none" stroke="midnightblue" d="M537.186,-327.253C701.299,-326.038 1190.83,-318.89 1594.5,-277 1608.78,-275.518 1624.26,-273.236 1638.24,-270.918"/>
<polygon fill="midnightblue" stroke="midnightblue" points="1638.84,-274.365 1648.11,-269.234 1637.67,-267.465 1638.84,-274.365"/>
</g>
<!-- Node33 -->
<g id="node33" class="node"><title>Node33</title>
<g id="a_node33"><a xlink:href="symrec_8h.xhtml" target="_top" xlink:title="Handling of selection parser symbol table. ">
<polygon fill="white" stroke="black" points="1271,-252 1271,-271 1328,-271 1328,-252 1271,-252"/>
<text text-anchor="middle" x="1299.5" y="-259" font-family="Helvetica,sans-Serif" font-size="10.00">symrec.h</text>
</a>
</g>
</g>
<!-- Node1&#45;&gt;Node33 -->
<g id="edge56" class="edge"><title>Node1&#45;&gt;Node33</title>
<path fill="none" stroke="midnightblue" d="M537.341,-326.867C663.841,-324.77 977.932,-315.746 1237.5,-277 1245.18,-275.854 1253.31,-274.245 1261.07,-272.515"/>
<polygon fill="midnightblue" stroke="midnightblue" points="1262.04,-275.881 1270.98,-270.197 1260.45,-269.065 1262.04,-275.881"/>
</g>
<!-- Node4 -->
<g id="node4" class="node"><title>Node4</title>
<g id="a_node4"><a xlink:href="ihelptopic_8h.xhtml" target="_top" xlink:title="Declares gmx::IHelpTopic. ">
<polygon fill="white" stroke="black" points="114,-179.5 114,-209.5 215,-209.5 215,-179.5 114,-179.5"/>
<text text-anchor="start" x="122" y="-197.5" font-family="Helvetica,sans-Serif" font-size="10.00">gromacs/onlinehelp</text>
<text text-anchor="middle" x="164.5" y="-186.5" font-family="Helvetica,sans-Serif" font-size="10.00">/ihelptopic.h</text>
</a>
</g>
</g>
<!-- Node3&#45;&gt;Node4 -->
<g id="edge3" class="edge"><title>Node3&#45;&gt;Node4</title>
<path fill="none" stroke="midnightblue" d="M161.039,-251.734C161.544,-243.541 162.32,-230.923 163.01,-219.714"/>
<polygon fill="midnightblue" stroke="midnightblue" points="166.512,-219.785 163.633,-209.589 159.525,-219.355 166.512,-219.785"/>
</g>
<!-- Node4&#45;&gt;Node5 -->
<g id="edge4" class="edge"><title>Node4&#45;&gt;Node5</title>
<path fill="none" stroke="midnightblue" d="M167.284,-179.432C171.271,-163.19 180.239,-136.926 198.5,-123 235.428,-94.838 370.791,-80.5619 436.806,-75.1473"/>
<polygon fill="midnightblue" stroke="midnightblue" points="437.467,-78.606 447.158,-74.3245 436.912,-71.628 437.467,-78.606"/>
</g>
<!-- Node10&#45;&gt;Node4 -->
<g id="edge12" class="edge"><title>Node10&#45;&gt;Node4</title>
<path fill="none" stroke="midnightblue" d="M274.905,-246.396C254.211,-236.856 226.677,-224.163 204.283,-213.84"/>
<polygon fill="midnightblue" stroke="midnightblue" points="205.582,-210.585 195.035,-209.577 202.651,-216.942 205.582,-210.585"/>
</g>
<!-- Node10&#45;&gt;Node5 -->
<g id="edge11" class="edge"><title>Node10&#45;&gt;Node5</title>
<path fill="none" stroke="midnightblue" d="M287.294,-246.179C256.107,-219.943 198.84,-163.179 231.5,-123 257.027,-91.596 376.276,-79.0552 437.308,-74.6282"/>
<polygon fill="midnightblue" stroke="midnightblue" points="437.551,-78.1198 447.286,-73.9392 437.069,-71.1364 437.551,-78.1198"/>
</g>
<!-- Node11 -->
<g id="node11" class="node"><title>Node11</title>
<g id="a_node11"><a xlink:href="classhelpers_8h.xhtml" target="_top" xlink:title="Declares common utility classes and macros. ">
<polygon fill="white" stroke="black" points="674.5,-123.5 674.5,-142.5 820.5,-142.5 820.5,-123.5 674.5,-123.5"/>
<text text-anchor="middle" x="747.5" y="-130.5" font-family="Helvetica,sans-Serif" font-size="10.00">gromacs/utility/classhelpers.h</text>
</a>
</g>
</g>
<!-- Node10&#45;&gt;Node11 -->
<g id="edge13" class="edge"><title>Node10&#45;&gt;Node11</title>
<path fill="none" stroke="midnightblue" d="M356.137,-247.742C359.296,-247.108 362.436,-246.52 365.5,-246 445.421,-232.447 667.149,-262.983 728.5,-210 744.712,-195.999 748.167,-170.459 748.426,-152.878"/>
<polygon fill="midnightblue" stroke="midnightblue" points="751.922,-152.608 748.237,-142.675 744.923,-152.738 751.922,-152.608"/>
</g>
<!-- Node10&#45;&gt;Node12 -->
<g id="edge15" class="edge"><title>Node10&#45;&gt;Node12</title>
<path fill="none" stroke="midnightblue" d="M312.01,-246.396C316.456,-236.763 322.386,-223.914 327.175,-213.537"/>
<polygon fill="midnightblue" stroke="midnightblue" points="330.474,-214.741 331.487,-204.195 324.119,-211.807 330.474,-214.741"/>
</g>
<!-- Node11&#45;&gt;Node5 -->
<g id="edge14" class="edge"><title>Node11&#45;&gt;Node5</title>
<path fill="none" stroke="midnightblue" d="M708.242,-123.475C655.082,-111.931 560.953,-91.4907 509.519,-80.3217"/>
<polygon fill="midnightblue" stroke="midnightblue" points="510.039,-76.8531 499.524,-78.1513 508.554,-83.6937 510.039,-76.8531"/>
</g>
<!-- Node12&#45;&gt;Node7 -->
<g id="edge17" class="edge"><title>Node12&#45;&gt;Node7</title>
<path fill="none" stroke="midnightblue" d="M331.829,-184.784C326.239,-169.965 317.802,-139.836 333.5,-123 357.401,-97.3661 888.88,-78.0071 1023.65,-73.4985"/>
<polygon fill="midnightblue" stroke="midnightblue" points="1023.83,-76.9945 1033.71,-73.165 1023.6,-69.9984 1023.83,-76.9945"/>
</g>
<!-- Node12&#45;&gt;Node9 -->
<g id="edge18" class="edge"><title>Node12&#45;&gt;Node9</title>
<path fill="none" stroke="midnightblue" d="M339.655,-184.975C343.876,-176.315 350.537,-162.649 355.9,-151.645"/>
<polygon fill="midnightblue" stroke="midnightblue" points="359.118,-153.032 360.353,-142.509 352.825,-149.965 359.118,-153.032"/>
</g>
<!-- Node13 -->
<g id="node13" class="node"><title>Node13</title>
<polygon fill="white" stroke="#bfbfbf" points="240.5,-123.5 240.5,-142.5 286.5,-142.5 286.5,-123.5 240.5,-123.5"/>
<text text-anchor="middle" x="263.5" y="-130.5" font-family="Helvetica,sans-Serif" font-size="10.00">cstring</text>
</g>
<!-- Node12&#45;&gt;Node13 -->
<g id="edge16" class="edge"><title>Node12&#45;&gt;Node13</title>
<path fill="none" stroke="midnightblue" d="M325.184,-184.975C313.849,-175.608 295.427,-160.384 281.661,-149.008"/>
<polygon fill="midnightblue" stroke="midnightblue" points="283.735,-146.181 273.797,-142.509 279.276,-151.577 283.735,-146.181"/>
</g>
<!-- Node14&#45;&gt;Node7 -->
<g id="edge20" class="edge"><title>Node14&#45;&gt;Node7</title>
<path fill="none" stroke="midnightblue" d="M533.881,-179.349C552.899,-162.766 586.999,-135.914 621.5,-123 695.591,-95.2672 937.436,-79.1515 1023.64,-74.1738"/>
<polygon fill="midnightblue" stroke="midnightblue" points="1024.03,-77.6571 1033.82,-73.5962 1023.64,-70.6683 1024.03,-77.6571"/>
</g>
<!-- Node14&#45;&gt;Node9 -->
<g id="edge21" class="edge"><title>Node14&#45;&gt;Node9</title>
<path fill="none" stroke="midnightblue" d="M482.004,-179.399C455.935,-169.327 421.206,-155.909 396.276,-146.277"/>
<polygon fill="midnightblue" stroke="midnightblue" points="397.498,-142.997 386.908,-142.658 394.975,-149.527 397.498,-142.997"/>
</g>
<!-- Node14&#45;&gt;Node11 -->
<g id="edge22" class="edge"><title>Node14&#45;&gt;Node11</title>
<path fill="none" stroke="midnightblue" d="M569.607,-180.221C610.265,-169.657 666.495,-155.047 704.781,-145.099"/>
<polygon fill="midnightblue" stroke="midnightblue" points="705.792,-148.453 714.591,-142.551 704.032,-141.678 705.792,-148.453"/>
</g>
<!-- Node15&#45;&gt;Node5 -->
<g id="edge27" class="edge"><title>Node15&#45;&gt;Node5</title>
<path fill="none" stroke="midnightblue" d="M989.783,-184.847C958.306,-169.849 890.225,-139.09 829.5,-123 715.18,-92.7093 575.093,-79.5943 509.987,-74.8227"/>
<polygon fill="midnightblue" stroke="midnightblue" points="510.051,-71.3185 499.828,-74.1018 509.555,-78.301 510.051,-71.3185"/>
</g>
<!-- Node15&#45;&gt;Node7 -->
<g id="edge28" class="edge"><title>Node15&#45;&gt;Node7</title>
<path fill="none" stroke="midnightblue" d="M973.802,-184.987C936.828,-173.954 885.349,-152.566 906.5,-123 933.127,-85.7806 988.855,-75.6808 1023.82,-73.1235"/>
<polygon fill="midnightblue" stroke="midnightblue" points="1024.16,-76.6099 1033.94,-72.5504 1023.76,-69.621 1024.16,-76.6099"/>
</g>
<!-- Node15&#45;&gt;Node9 -->
<g id="edge31" class="edge"><title>Node15&#45;&gt;Node9</title>
<path fill="none" stroke="midnightblue" d="M937.757,-189.508C803.979,-181.57 514.838,-162.976 396.616,-142.798"/>
<polygon fill="midnightblue" stroke="midnightblue" points="397.183,-139.344 386.723,-141.03 395.951,-146.234 397.183,-139.344"/>
</g>
<!-- Node15&#45;&gt;Node11 -->
<g id="edge35" class="edge"><title>Node15&#45;&gt;Node11</title>
<path fill="none" stroke="midnightblue" d="M970.248,-184.975C924.008,-174.393 845.101,-156.336 794.678,-144.797"/>
<polygon fill="midnightblue" stroke="midnightblue" points="795.211,-141.328 784.683,-142.509 793.65,-148.152 795.211,-141.328"/>
</g>
<!-- Node16 -->
<g id="node16" class="node"><title>Node16</title>
<polygon fill="white" stroke="#bfbfbf" points="1316,-62 1316,-81 1359,-81 1359,-62 1316,-62"/>
<text text-anchor="middle" x="1337.5" y="-69" font-family="Helvetica,sans-Serif" font-size="10.00">cstdio</text>
</g>
<!-- Node15&#45;&gt;Node16 -->
<g id="edge24" class="edge"><title>Node15&#45;&gt;Node16</title>
<path fill="none" stroke="midnightblue" d="M1053.44,-184.939C1093.99,-176.631 1154.28,-162.429 1204.5,-143 1245.31,-127.21 1289.63,-101.916 1315.41,-86.3052"/>
<polygon fill="midnightblue" stroke="midnightblue" points="1317.33,-89.2345 1324.03,-81.0275 1313.68,-83.2648 1317.33,-89.2345"/>
</g>
<!-- Node17 -->
<g id="node17" class="node"><title>Node17</title>
<polygon fill="white" stroke="#bfbfbf" points="915,-123.5 915,-142.5 960,-142.5 960,-123.5 915,-123.5"/>
<text text-anchor="middle" x="937.5" y="-130.5" font-family="Helvetica,sans-Serif" font-size="10.00">cstdlib</text>
</g>
<!-- Node15&#45;&gt;Node17 -->
<g id="edge25" class="edge"><title>Node15&#45;&gt;Node17</title>
<path fill="none" stroke="midnightblue" d="M997.471,-184.975C986.451,-175.608 968.54,-160.384 955.157,-149.008"/>
<polygon fill="midnightblue" stroke="midnightblue" points="957.397,-146.319 947.511,-142.509 952.863,-151.652 957.397,-146.319"/>
</g>
<!-- Node18 -->
<g id="node18" class="node"><title>Node18</title>
<polygon fill="white" stroke="#bfbfbf" points="978,-123.5 978,-142.5 1037,-142.5 1037,-123.5 978,-123.5"/>
<text text-anchor="middle" x="1007.5" y="-130.5" font-family="Helvetica,sans-Serif" font-size="10.00">exception</text>
</g>
<!-- Node15&#45;&gt;Node18 -->
<g id="edge26" class="edge"><title>Node15&#45;&gt;Node18</title>
<path fill="none" stroke="midnightblue" d="M1007.5,-184.975C1007.5,-176.58 1007.5,-163.481 1007.5,-152.663"/>
<polygon fill="midnightblue" stroke="midnightblue" points="1011,-152.509 1007.5,-142.509 1004,-152.509 1011,-152.509"/>
</g>
<!-- Node19 -->
<g id="node19" class="node"><title>Node19</title>
<polygon fill="white" stroke="#bfbfbf" points="1055.5,-123.5 1055.5,-142.5 1117.5,-142.5 1117.5,-123.5 1055.5,-123.5"/>
<text text-anchor="middle" x="1086.5" y="-130.5" font-family="Helvetica,sans-Serif" font-size="10.00">type_traits</text>
</g>
<!-- Node15&#45;&gt;Node19 -->
<g id="edge29" class="edge"><title>Node15&#45;&gt;Node19</title>
<path fill="none" stroke="midnightblue" d="M1018.82,-184.975C1031.37,-175.52 1051.85,-160.096 1067,-148.687"/>
<polygon fill="midnightblue" stroke="midnightblue" points="1069.32,-151.321 1075.2,-142.509 1065.11,-145.73 1069.32,-151.321"/>
</g>
<!-- Node20 -->
<g id="node20" class="node"><title>Node20</title>
<polygon fill="white" stroke="#bfbfbf" points="1136,-123.5 1136,-142.5 1195,-142.5 1195,-123.5 1136,-123.5"/>
<text text-anchor="middle" x="1165.5" y="-130.5" font-family="Helvetica,sans-Serif" font-size="10.00">typeindex</text>
</g>
<!-- Node15&#45;&gt;Node20 -->
<g id="edge30" class="edge"><title>Node15&#45;&gt;Node20</title>
<path fill="none" stroke="midnightblue" d="M1030.14,-184.975C1057.24,-174.769 1102.81,-157.608 1133.5,-146.049"/>
<polygon fill="midnightblue" stroke="midnightblue" points="1134.78,-149.309 1142.9,-142.509 1132.31,-142.758 1134.78,-149.309"/>
</g>
<!-- Node21 -->
<g id="node21" class="node"><title>Node21</title>
<g id="a_node21"><a xlink:href="basedefinitions_8h.xhtml" target="_top" xlink:title="Basic types and macros used throughout GROMACS. ">
<polygon fill="white" stroke="black" points="1498,-62 1498,-81 1655,-81 1655,-62 1498,-62"/>
<text text-anchor="middle" x="1576.5" y="-69" font-family="Helvetica,sans-Serif" font-size="10.00">gromacs/utility/basedefinitions.h</text>
</a>
</g>
</g>
<!-- Node15&#45;&gt;Node21 -->
<g id="edge32" class="edge"><title>Node15&#45;&gt;Node21</title>
<path fill="none" stroke="midnightblue" d="M1077.09,-191.443C1216.61,-186.7 1520.35,-173.021 1556.5,-143 1571.61,-130.452 1575.77,-107.401 1576.69,-91.0768"/>
<polygon fill="midnightblue" stroke="midnightblue" points="1580.19,-91.1351 1576.91,-81.0621 1573.19,-90.9846 1580.19,-91.1351"/>
</g>
<!-- Node24 -->
<g id="node24" class="node"><title>Node24</title>
<g id="a_node24"><a xlink:href="current__function_8h.xhtml" target="_top" xlink:title="Declares GMX_CURRENT_FUNCTION for getting the current function name. ">
<polygon fill="white" stroke="black" points="1678,-56.5 1678,-86.5 1791,-86.5 1791,-56.5 1678,-56.5"/>
<text text-anchor="start" x="1686" y="-74.5" font-family="Helvetica,sans-Serif" font-size="10.00">gromacs/utility/current</text>
<text text-anchor="middle" x="1734.5" y="-63.5" font-family="Helvetica,sans-Serif" font-size="10.00">_function.h</text>
</a>
</g>
</g>
<!-- Node15&#45;&gt;Node24 -->
<g id="edge36" class="edge"><title>Node15&#45;&gt;Node24</title>
<path fill="none" stroke="midnightblue" d="M1077.16,-190.018C1259.76,-180.728 1739.07,-155.23 1750.5,-143 1762.35,-130.317 1756.73,-110.763 1749.05,-95.4624"/>
<polygon fill="midnightblue" stroke="midnightblue" points="1752.05,-93.6441 1744.15,-86.585 1745.92,-97.0303 1752.05,-93.6441"/>
</g>
<!-- Node15&#45;&gt;Node25 -->
<g id="edge37" class="edge"><title>Node15&#45;&gt;Node25</title>
<path fill="none" stroke="midnightblue" d="M1077.42,-187.92C1186.75,-179.087 1404.78,-161.027 1589.5,-143 1590.8,-142.873 1592.11,-142.744 1593.43,-142.614"/>
<polygon fill="midnightblue" stroke="midnightblue" points="1594.07,-146.066 1603.67,-141.579 1593.37,-139.102 1594.07,-146.066"/>
</g>
<!-- Node22 -->
<g id="node22" class="node"><title>Node22</title>
<polygon fill="white" stroke="#bfbfbf" points="1516,-0.5 1516,-19.5 1565,-19.5 1565,-0.5 1516,-0.5"/>
<text text-anchor="middle" x="1540.5" y="-7.5" font-family="Helvetica,sans-Serif" font-size="10.00">stdint.h</text>
</g>
<!-- Node21&#45;&gt;Node22 -->
<g id="edge33" class="edge"><title>Node21&#45;&gt;Node22</title>
<path fill="none" stroke="midnightblue" d="M1571.34,-61.9751C1566.05,-53.2268 1557.66,-39.3691 1550.97,-28.3093"/>
<polygon fill="midnightblue" stroke="midnightblue" points="1553.82,-26.2531 1545.65,-19.5091 1547.83,-29.8768 1553.82,-26.2531"/>
</g>
<!-- Node23 -->
<g id="node23" class="node"><title>Node23</title>
<polygon fill="white" stroke="#bfbfbf" points="1583,-0.5 1583,-19.5 1642,-19.5 1642,-0.5 1583,-0.5"/>
<text text-anchor="middle" x="1612.5" y="-7.5" font-family="Helvetica,sans-Serif" font-size="10.00">inttypes.h</text>
</g>
<!-- Node21&#45;&gt;Node23 -->
<g id="edge34" class="edge"><title>Node21&#45;&gt;Node23</title>
<path fill="none" stroke="midnightblue" d="M1581.66,-61.9751C1586.95,-53.2268 1595.34,-39.3691 1602.03,-28.3093"/>
<polygon fill="midnightblue" stroke="midnightblue" points="1605.17,-29.8768 1607.35,-19.5091 1599.18,-26.2531 1605.17,-29.8768"/>
</g>
<!-- Node25&#45;&gt;Node21 -->
<g id="edge38" class="edge"><title>Node25&#45;&gt;Node21</title>
<path fill="none" stroke="midnightblue" d="M1658.75,-123.475C1643.13,-113.799 1617.44,-97.8721 1598.92,-86.3941"/>
<polygon fill="midnightblue" stroke="midnightblue" points="1600.57,-83.3023 1590.23,-81.0091 1596.88,-89.2522 1600.57,-83.3023"/>
</g>
<!-- Node25&#45;&gt;Node24 -->
<g id="edge39" class="edge"><title>Node25&#45;&gt;Node24</title>
<path fill="none" stroke="midnightblue" d="M1681.38,-123.475C1689.47,-115.718 1701.74,-103.943 1712.45,-93.6645"/>
<polygon fill="midnightblue" stroke="midnightblue" points="1715.1,-95.9724 1719.89,-86.523 1710.25,-90.9218 1715.1,-95.9724"/>
</g>
<!-- Node26&#45;&gt;Node7 -->
<g id="edge44" class="edge"><title>Node26&#45;&gt;Node7</title>
<path fill="none" stroke="midnightblue" d="M646.112,-184.554C634.963,-169.933 616.733,-140.767 632.5,-123 658.47,-93.7364 931.089,-78.2982 1023.82,-73.8641"/>
<polygon fill="midnightblue" stroke="midnightblue" points="1024.14,-77.3531 1033.96,-73.3889 1023.81,-70.3608 1024.14,-77.3531"/>
</g>
<!-- Node26&#45;&gt;Node11 -->
<g id="edge45" class="edge"><title>Node26&#45;&gt;Node11</title>
<path fill="none" stroke="midnightblue" d="M666.968,-184.975C682.185,-175.343 707.187,-159.517 725.301,-148.052"/>
<polygon fill="midnightblue" stroke="midnightblue" points="727.479,-150.815 734.057,-142.509 723.736,-144.9 727.479,-150.815"/>
</g>
<!-- Node26&#45;&gt;Node16 -->
<g id="edge43" class="edge"><title>Node26&#45;&gt;Node16</title>
<path fill="none" stroke="midnightblue" d="M651.937,-184.546C649.86,-169.37 648.241,-138.715 665.5,-123 677.503,-112.071 1174.08,-82.1179 1305.74,-74.3565"/>
<polygon fill="midnightblue" stroke="midnightblue" points="1306.18,-77.8366 1315.96,-73.7554 1305.77,-70.8487 1306.18,-77.8366"/>
</g>
<!-- Node27 -->
<g id="node27" class="node"><title>Node27</title>
<g id="a_node27"><a xlink:href="textstream_8h.xhtml" target="_top" xlink:title="Declares interfaces for simple input/output streams. ">
<polygon fill="white" stroke="black" points="404.5,-123.5 404.5,-142.5 542.5,-142.5 542.5,-123.5 404.5,-123.5"/>
<text text-anchor="middle" x="473.5" y="-130.5" font-family="Helvetica,sans-Serif" font-size="10.00">gromacs/utility/textstream.h</text>
</a>
</g>
</g>
<!-- Node26&#45;&gt;Node27 -->
<g id="edge46" class="edge"><title>Node26&#45;&gt;Node27</title>
<path fill="none" stroke="midnightblue" d="M627.71,-184.975C596.567,-174.68 544.019,-157.31 509.047,-145.75"/>
<polygon fill="midnightblue" stroke="midnightblue" points="509.835,-142.325 499.242,-142.509 507.638,-148.971 509.835,-142.325"/>
</g>
<!-- Node27&#45;&gt;Node5 -->
<g id="edge47" class="edge"><title>Node27&#45;&gt;Node5</title>
<path fill="none" stroke="midnightblue" d="M473.5,-123.475C473.5,-115.08 473.5,-101.981 473.5,-91.1631"/>
<polygon fill="midnightblue" stroke="midnightblue" points="477,-91.0091 473.5,-81.0091 470,-91.0091 477,-91.0091"/>
</g>
<!-- Node29 -->
<g id="node29" class="node"><title>Node29</title>
<g id="a_node29"><a xlink:href="selparam_8h.xhtml" target="_top" xlink:title="API for handling parameters used in selections. ">
<polygon fill="white" stroke="black" points="1651,-185 1651,-204 1716,-204 1716,-185 1651,-185"/>
<text text-anchor="middle" x="1683.5" y="-192" font-family="Helvetica,sans-Serif" font-size="10.00">selparam.h</text>
</a>
</g>
</g>
<!-- Node28&#45;&gt;Node29 -->
<g id="edge49" class="edge"><title>Node28&#45;&gt;Node29</title>
<path fill="none" stroke="midnightblue" d="M1683.5,-251.734C1683.5,-242.183 1683.5,-226.618 1683.5,-214.283"/>
<polygon fill="midnightblue" stroke="midnightblue" points="1687,-214.127 1683.5,-204.127 1680,-214.127 1687,-214.127"/>
</g>
<!-- Node31 -->
<g id="node31" class="node"><title>Node31</title>
<g id="a_node31"><a xlink:href="selvalue_8h.xhtml" target="_top" xlink:title="Declares gmx_ana_selvalue_t. ">
<polygon fill="white" stroke="black" points="1836,-123.5 1836,-142.5 1897,-142.5 1897,-123.5 1836,-123.5"/>
<text text-anchor="middle" x="1866.5" y="-130.5" font-family="Helvetica,sans-Serif" font-size="10.00">selvalue.h</text>
</a>
</g>
</g>
<!-- Node28&#45;&gt;Node31 -->
<g id="edge55" class="edge"><title>Node28&#45;&gt;Node31</title>
<path fill="none" stroke="midnightblue" d="M1696.08,-251.805C1727.03,-230.411 1807.14,-175.032 1845.47,-148.538"/>
<polygon fill="midnightblue" stroke="midnightblue" points="1847.6,-151.321 1853.83,-142.756 1843.62,-145.563 1847.6,-151.321"/>
</g>
<!-- Node30 -->
<g id="node30" class="node"><title>Node30</title>
<g id="a_node30"><a xlink:href="indexutil_8h.xhtml" target="_top" xlink:title="API for handling index files and index groups. ">
<polygon fill="white" stroke="black" points="1404,-123.5 1404,-142.5 1547,-142.5 1547,-123.5 1404,-123.5"/>
<text text-anchor="middle" x="1475.5" y="-130.5" font-family="Helvetica,sans-Serif" font-size="10.00">gromacs/selection/indexutil.h</text>
</a>
</g>
</g>
<!-- Node29&#45;&gt;Node30 -->
<g id="edge50" class="edge"><title>Node29&#45;&gt;Node30</title>
<path fill="none" stroke="midnightblue" d="M1653.7,-184.975C1617.25,-174.548 1555.42,-156.862 1515.03,-145.307"/>
<polygon fill="midnightblue" stroke="midnightblue" points="1515.82,-141.894 1505.25,-142.509 1513.9,-148.624 1515.82,-141.894"/>
</g>
<!-- Node29&#45;&gt;Node31 -->
<g id="edge53" class="edge"><title>Node29&#45;&gt;Node31</title>
<path fill="none" stroke="midnightblue" d="M1709.72,-184.975C1741.52,-174.636 1795.27,-157.161 1830.82,-145.602"/>
<polygon fill="midnightblue" stroke="midnightblue" points="1831.9,-148.93 1840.33,-142.509 1829.74,-142.273 1831.9,-148.93"/>
</g>
<!-- Node30&#45;&gt;Node7 -->
<g id="edge52" class="edge"><title>Node30&#45;&gt;Node7</title>
<path fill="none" stroke="midnightblue" d="M1415.18,-123.475C1324.11,-110.603 1154.77,-86.6709 1085.37,-76.8634"/>
<polygon fill="midnightblue" stroke="midnightblue" points="1085.51,-73.3484 1075.12,-75.4145 1084.53,-80.2795 1085.51,-73.3484"/>
</g>
<!-- Node30&#45;&gt;Node16 -->
<g id="edge51" class="edge"><title>Node30&#45;&gt;Node16</title>
<path fill="none" stroke="midnightblue" d="M1455.73,-123.475C1432.36,-113.401 1393.29,-96.5525 1366.5,-85.0023"/>
<polygon fill="midnightblue" stroke="midnightblue" points="1367.8,-81.7544 1357.24,-81.0091 1365.03,-88.1824 1367.8,-81.7544"/>
</g>
<!-- Node32 -->
<g id="node32" class="node"><title>Node32</title>
<g id="a_node32"><a xlink:href="real_8h.xhtml" target="_top" xlink:title="Declares real and related constants. ">
<polygon fill="white" stroke="black" points="1811,-62 1811,-81 1918,-81 1918,-62 1811,-62"/>
<text text-anchor="middle" x="1864.5" y="-69" font-family="Helvetica,sans-Serif" font-size="10.00">gromacs/utility/real.h</text>
</a>
</g>
</g>
<!-- Node31&#45;&gt;Node32 -->
<g id="edge54" class="edge"><title>Node31&#45;&gt;Node32</title>
<path fill="none" stroke="midnightblue" d="M1866.21,-123.475C1865.93,-115.08 1865.49,-101.981 1865.13,-91.1631"/>
<polygon fill="midnightblue" stroke="midnightblue" points="1868.62,-90.8858 1864.79,-81.0091 1861.62,-91.1211 1868.62,-90.8858"/>
</g>
<!-- Node33&#45;&gt;Node7 -->
<g id="edge58" class="edge"><title>Node33&#45;&gt;Node7</title>
<path fill="none" stroke="midnightblue" d="M1298.2,-251.898C1294.09,-227.718 1279.07,-158.6 1237.5,-123 1193.93,-85.6872 1125.02,-75.7677 1085.36,-73.2407"/>
<polygon fill="midnightblue" stroke="midnightblue" points="1085.4,-69.7381 1075.23,-72.7166 1085.04,-76.7288 1085.4,-69.7381"/>
</g>
<!-- Node33&#45;&gt;Node11 -->
<g id="edge59" class="edge"><title>Node33&#45;&gt;Node11</title>
<path fill="none" stroke="midnightblue" d="M1270.68,-259.114C1207.74,-255.537 1053.68,-243.781 929.5,-210 871.761,-194.293 808.044,-164.616 773.414,-147.361"/>
<polygon fill="midnightblue" stroke="midnightblue" points="774.548,-144.013 764.043,-142.639 771.399,-150.264 774.548,-144.013"/>
</g>
<!-- Node34 -->
<g id="node34" class="node"><title>Node34</title>
<polygon fill="white" stroke="#bfbfbf" points="1414,-185 1414,-204 1461,-204 1461,-185 1414,-185"/>
<text text-anchor="middle" x="1437.5" y="-192" font-family="Helvetica,sans-Serif" font-size="10.00">iterator</text>
</g>
<!-- Node33&#45;&gt;Node34 -->
<g id="edge57" class="edge"><title>Node33&#45;&gt;Node34</title>
<path fill="none" stroke="midnightblue" d="M1317.83,-251.869C1341.44,-240.748 1382.69,-221.317 1410.05,-208.429"/>
<polygon fill="midnightblue" stroke="midnightblue" points="1411.54,-211.595 1419.1,-204.167 1408.56,-205.262 1411.54,-211.595"/>
</g>
<!-- Node35 -->
<g id="node35" class="node"><title>Node35</title>
<g id="a_node35"><a xlink:href="selelem_8h.xhtml" target="_top" xlink:title="Declares gmx::SelectionTreeElement and related things. ">
<polygon fill="white" stroke="black" points="1337,-185 1337,-204 1396,-204 1396,-185 1337,-185"/>
<text text-anchor="middle" x="1366.5" y="-192" font-family="Helvetica,sans-Serif" font-size="10.00">selelem.h</text>
</a>
</g>
</g>
<!-- Node33&#45;&gt;Node35 -->
<g id="edge60" class="edge"><title>Node33&#45;&gt;Node35</title>
<path fill="none" stroke="midnightblue" d="M1308.54,-251.734C1319.18,-241.403 1337.08,-224.037 1350.18,-211.332"/>
<polygon fill="midnightblue" stroke="midnightblue" points="1352.87,-213.603 1357.61,-204.127 1347.99,-208.578 1352.87,-213.603"/>
</g>
<!-- Node35&#45;&gt;Node5 -->
<g id="edge61" class="edge"><title>Node35&#45;&gt;Node5</title>
<path fill="none" stroke="midnightblue" d="M1351.48,-184.863C1323.58,-169.308 1261.41,-136.91 1204.5,-123 1070.33,-90.2066 637.83,-76.7116 509.634,-73.3705"/>
<polygon fill="midnightblue" stroke="midnightblue" points="509.643,-69.8697 499.557,-73.1126 509.464,-76.8674 509.643,-69.8697"/>
</g>
<!-- Node35&#45;&gt;Node7 -->
<g id="edge62" class="edge"><title>Node35&#45;&gt;Node7</title>
<path fill="none" stroke="midnightblue" d="M1362.67,-184.937C1355.41,-169.795 1338.16,-138.439 1313.5,-123 1241,-77.6087 1136.47,-71.5665 1085.21,-71.6206"/>
<polygon fill="midnightblue" stroke="midnightblue" points="1085.08,-68.1215 1075.11,-71.7127 1085.14,-75.1212 1085.08,-68.1215"/>
</g>
<!-- Node35&#45;&gt;Node11 -->
<g id="edge64" class="edge"><title>Node35&#45;&gt;Node11</title>
<path fill="none" stroke="midnightblue" d="M1336.64,-190.63C1245.82,-181.9 970.546,-155.44 830.802,-142.007"/>
<polygon fill="midnightblue" stroke="midnightblue" points="830.86,-138.497 820.571,-141.024 830.19,-145.465 830.86,-138.497"/>
</g>
<!-- Node35&#45;&gt;Node30 -->
<g id="edge63" class="edge"><title>Node35&#45;&gt;Node30</title>
<path fill="none" stroke="midnightblue" d="M1382.12,-184.975C1400.09,-175.166 1429.82,-158.935 1450.91,-147.425"/>
<polygon fill="midnightblue" stroke="midnightblue" points="1452.81,-150.373 1459.91,-142.509 1449.46,-144.228 1452.81,-150.373"/>
</g>
<!-- Node35&#45;&gt;Node31 -->
<g id="edge66" class="edge"><title>Node35&#45;&gt;Node31</title>
<path fill="none" stroke="midnightblue" d="M1386.43,-184.915C1392.45,-182.642 1399.16,-180.426 1405.5,-179 1586.56,-138.294 1637.78,-169.238 1821.5,-143 1822.79,-142.816 1824.09,-142.619 1825.41,-142.412"/>
<polygon fill="midnightblue" stroke="midnightblue" points="1826.34,-145.804 1835.59,-140.651 1825.14,-138.906 1826.34,-145.804"/>
</g>
<!-- Node35&#45;&gt;Node32 -->
<g id="edge65" class="edge"><title>Node35&#45;&gt;Node32</title>
<path fill="none" stroke="midnightblue" d="M1386.44,-184.95C1392.46,-182.677 1399.16,-180.453 1405.5,-179 1569.99,-141.274 1628.43,-209.584 1783.5,-143 1811.22,-131.099 1836.25,-106.08 1850.93,-89.2788"/>
<polygon fill="midnightblue" stroke="midnightblue" points="1853.84,-91.2544 1857.61,-81.3549 1848.49,-86.7395 1853.84,-91.2544"/>
</g>
</g>
</svg>
