<?xml version="1.0" encoding="UTF-8" standalone="no"?>
<!DOCTYPE svg PUBLIC "-//W3C//DTD SVG 1.1//EN"
 "http://www.w3.org/Graphics/SVG/1.1/DTD/svg11.dtd">
<!-- Generated by graphviz version 2.38.0 (20140413.2041)
 -->
<!-- Title: src/gromacs/selection/selmethod.h Pages: 1 -->
<svg width="2354pt" height="106pt"
 viewBox="0.00 0.00 2354.00 106.00" xmlns="http://www.w3.org/2000/svg" xmlns:xlink="http://www.w3.org/1999/xlink">
<g id="graph0" class="graph" transform="scale(1 1) rotate(0) translate(4 102)">
<title>src/gromacs/selection/selmethod.h</title>
<polygon fill="white" stroke="none" points="-4,4 -4,-102 2350,-102 2350,4 -4,4"/>
<!-- Node1 -->
<g id="node1" class="node"><title>Node1</title>
<polygon fill="#bfbfbf" stroke="black" points="1119,-67.5 1119,-97.5 1232,-97.5 1232,-67.5 1119,-67.5"/>
<text text-anchor="start" x="1127" y="-85.5" font-family="Helvetica,sans-Serif" font-size="10.00">src/gromacs/selection</text>
<text text-anchor="middle" x="1175.5" y="-74.5" font-family="Helvetica,sans-Serif" font-size="10.00">/selmethod.h</text>
</g>
<!-- Node2 -->
<g id="node2" class="node"><title>Node2</title>
<g id="a_node2"><a xlink:href="compiler_8cpp.xhtml" target="_top" xlink:title="Selection compilation and optimization. ">
<polygon fill="white" stroke="black" points="0,-0.5 0,-30.5 113,-30.5 113,-0.5 0,-0.5"/>
<text text-anchor="start" x="8" y="-18.5" font-family="Helvetica,sans-Serif" font-size="10.00">src/gromacs/selection</text>
<text text-anchor="middle" x="56.5" y="-7.5" font-family="Helvetica,sans-Serif" font-size="10.00">/compiler.cpp</text>
</a>
</g>
</g>
<!-- Node1&#45;&gt;Node2 -->
<g id="edge1" class="edge"><title>Node1&#45;&gt;Node2</title>
<path fill="none" stroke="midnightblue" d="M1108.8,-82.2595C941.717,-83.3058 492.07,-80.8349 121.5,-31 118.75,-30.6302 115.944,-30.2022 113.117,-29.7303"/>
<polygon fill="midnightblue" stroke="midnightblue" points="1108.94,-85.7587 1118.92,-82.1896 1108.9,-78.7589 1108.94,-85.7587"/>
</g>
<!-- Node3 -->
<g id="node3" class="node"><title>Node3</title>
<g id="a_node3"><a xlink:href="evaluate_8cpp.xhtml" target="_top" xlink:title="Implements functions in evaluate.h. ">
<polygon fill="white" stroke="black" points="131,-0.5 131,-30.5 244,-30.5 244,-0.5 131,-0.5"/>
<text text-anchor="start" x="139" y="-18.5" font-family="Helvetica,sans-Serif" font-size="10.00">src/gromacs/selection</text>
<text text-anchor="middle" x="187.5" y="-7.5" font-family="Helvetica,sans-Serif" font-size="10.00">/evaluate.cpp</text>
</a>
</g>
</g>
<!-- Node1&#45;&gt;Node3 -->
<g id="edge2" class="edge"><title>Node1&#45;&gt;Node3</title>
<path fill="none" stroke="midnightblue" d="M1108.59,-81.606C956.011,-81.0271 570.889,-74.9173 252.5,-31 249.751,-30.6208 246.946,-30.1853 244.12,-29.7074"/>
<polygon fill="midnightblue" stroke="midnightblue" points="1108.73,-85.1064 1118.74,-81.6376 1108.75,-78.1064 1108.73,-85.1064"/>
</g>
<!-- Node4 -->
<g id="node4" class="node"><title>Node4</title>
<g id="a_node4"><a xlink:href="params_8cpp.xhtml" target="_top" xlink:title="Implements functions in selparam.h. ">
<polygon fill="white" stroke="black" points="262,-0.5 262,-30.5 375,-30.5 375,-0.5 262,-0.5"/>
<text text-anchor="start" x="270" y="-18.5" font-family="Helvetica,sans-Serif" font-size="10.00">src/gromacs/selection</text>
<text text-anchor="middle" x="318.5" y="-7.5" font-family="Helvetica,sans-Serif" font-size="10.00">/params.cpp</text>
</a>
</g>
</g>
<!-- Node1&#45;&gt;Node4 -->
<g id="edge3" class="edge"><title>Node1&#45;&gt;Node4</title>
<path fill="none" stroke="midnightblue" d="M1108.19,-80.7369C971.132,-78.4075 650.039,-68.9908 383.5,-31 380.753,-30.6084 377.95,-30.1629 375.125,-29.6768"/>
<polygon fill="midnightblue" stroke="midnightblue" points="1108.47,-84.2418 1118.53,-80.9049 1108.59,-77.2427 1108.47,-84.2418"/>
</g>
<!-- Node5 -->
<g id="node5" class="node"><title>Node5</title>
<g id="a_node5"><a xlink:href="parsetree_8cpp.xhtml" target="_top" xlink:title="Implements functions in parsetree.h. ">
<polygon fill="white" stroke="black" points="393,-0.5 393,-30.5 506,-30.5 506,-0.5 393,-0.5"/>
<text text-anchor="start" x="401" y="-18.5" font-family="Helvetica,sans-Serif" font-size="10.00">src/gromacs/selection</text>
<text text-anchor="middle" x="449.5" y="-7.5" font-family="Helvetica,sans-Serif" font-size="10.00">/parsetree.cpp</text>
</a>
</g>
</g>
<!-- Node1&#45;&gt;Node5 -->
<g id="edge4" class="edge"><title>Node1&#45;&gt;Node5</title>
<path fill="none" stroke="midnightblue" d="M1108.49,-79.5506C988.704,-75.3621 730.193,-63.1284 514.5,-31 511.755,-30.5912 508.954,-30.1316 506.131,-29.6343"/>
<polygon fill="midnightblue" stroke="midnightblue" points="1108.49,-83.0526 1118.61,-79.8966 1108.73,-76.0567 1108.49,-83.0526"/>
</g>
<!-- Node6 -->
<g id="node6" class="node"><title>Node6</title>
<g id="a_node6"><a xlink:href="scanner__internal_8cpp.xhtml" target="_top" xlink:title="Helper functions for the selection tokenizer. ">
<polygon fill="white" stroke="black" points="524,-0.5 524,-30.5 637,-30.5 637,-0.5 524,-0.5"/>
<text text-anchor="start" x="532" y="-18.5" font-family="Helvetica,sans-Serif" font-size="10.00">src/gromacs/selection</text>
<text text-anchor="middle" x="580.5" y="-7.5" font-family="Helvetica,sans-Serif" font-size="10.00">/scanner_internal.cpp</text>
</a>
</g>
</g>
<!-- Node1&#45;&gt;Node6 -->
<g id="edge5" class="edge"><title>Node1&#45;&gt;Node6</title>
<path fill="none" stroke="midnightblue" d="M1108.69,-77.8102C1007.86,-71.6385 810.986,-57.2376 645.5,-31 642.759,-30.5655 639.961,-30.085 637.141,-29.5709"/>
<polygon fill="midnightblue" stroke="midnightblue" points="1108.54,-81.3075 1118.73,-78.4171 1108.96,-74.3202 1108.54,-81.3075"/>
</g>
<!-- Node7 -->
<g id="node7" class="node"><title>Node7</title>
<g id="a_node7"><a xlink:href="selectioncollection_8cpp.xhtml" target="_top" xlink:title="Implements gmx::SelectionCollection. ">
<polygon fill="white" stroke="black" points="655,-0.5 655,-30.5 774,-30.5 774,-0.5 655,-0.5"/>
<text text-anchor="start" x="663" y="-18.5" font-family="Helvetica,sans-Serif" font-size="10.00">src/gromacs/selection</text>
<text text-anchor="middle" x="714.5" y="-7.5" font-family="Helvetica,sans-Serif" font-size="10.00">/selectioncollection.cpp</text>
</a>
</g>
</g>
<!-- Node1&#45;&gt;Node7 -->
<g id="edge6" class="edge"><title>Node1&#45;&gt;Node7</title>
<path fill="none" stroke="midnightblue" d="M1108.77,-74.619C1030.39,-66.1448 896.557,-50.4546 782.5,-31 779.763,-30.5332 776.969,-30.0332 774.151,-29.5098"/>
<polygon fill="midnightblue" stroke="midnightblue" points="1108.67,-78.1282 1118.99,-75.7165 1109.42,-71.1683 1108.67,-78.1282"/>
</g>
<!-- Node8 -->
<g id="node8" class="node"><title>Node8</title>
<g id="a_node8"><a xlink:href="selelem_8cpp.xhtml" target="_top" xlink:title="Implements functions in selelem.h. ">
<polygon fill="white" stroke="black" points="792,-0.5 792,-30.5 905,-30.5 905,-0.5 792,-0.5"/>
<text text-anchor="start" x="800" y="-18.5" font-family="Helvetica,sans-Serif" font-size="10.00">src/gromacs/selection</text>
<text text-anchor="middle" x="848.5" y="-7.5" font-family="Helvetica,sans-Serif" font-size="10.00">/selelem.cpp</text>
</a>
</g>
</g>
<!-- Node1&#45;&gt;Node8 -->
<g id="edge7" class="edge"><title>Node1&#45;&gt;Node8</title>
<path fill="none" stroke="midnightblue" d="M1108.98,-69.2301C1055.95,-59.3176 979.862,-44.7944 913.5,-31 910.783,-30.4353 908.004,-29.849 905.199,-29.2501"/>
<polygon fill="midnightblue" stroke="midnightblue" points="1108.46,-72.6939 1118.93,-71.0877 1109.74,-65.8127 1108.46,-72.6939"/>
</g>
<!-- Node9 -->
<g id="node9" class="node"><title>Node9</title>
<g id="a_node9"><a xlink:href="selhelp_8cpp.xhtml" target="_top" xlink:title="Implements functions in selhelp.h. ">
<polygon fill="white" stroke="black" points="923,-0.5 923,-30.5 1036,-30.5 1036,-0.5 923,-0.5"/>
<text text-anchor="start" x="931" y="-18.5" font-family="Helvetica,sans-Serif" font-size="10.00">src/gromacs/selection</text>
<text text-anchor="middle" x="979.5" y="-7.5" font-family="Helvetica,sans-Serif" font-size="10.00">/selhelp.cpp</text>
</a>
</g>
</g>
<!-- Node1&#45;&gt;Node9 -->
<g id="edge8" class="edge"><title>Node1&#45;&gt;Node9</title>
<path fill="none" stroke="midnightblue" d="M1123.42,-64.2278C1091.71,-53.7131 1051.72,-40.4508 1021.95,-30.5765"/>
<polygon fill="midnightblue" stroke="midnightblue" points="1122.38,-67.5702 1132.97,-67.396 1124.58,-60.9261 1122.38,-67.5702"/>
</g>
<!-- Node10 -->
<g id="node10" class="node"><title>Node10</title>
<g id="a_node10"><a xlink:href="selmethod_8cpp.xhtml" target="_top" xlink:title="Implements functions in selmethod.h. ">
<polygon fill="white" stroke="black" points="1054,-0.5 1054,-30.5 1167,-30.5 1167,-0.5 1054,-0.5"/>
<text text-anchor="start" x="1062" y="-18.5" font-family="Helvetica,sans-Serif" font-size="10.00">src/gromacs/selection</text>
<text text-anchor="middle" x="1110.5" y="-7.5" font-family="Helvetica,sans-Serif" font-size="10.00">/selmethod.cpp</text>
</a>
</g>
</g>
<!-- Node1&#45;&gt;Node10 -->
<g id="edge9" class="edge"><title>Node1&#45;&gt;Node10</title>
<path fill="none" stroke="midnightblue" d="M1154.31,-60.3115C1144.56,-50.5612 1133.26,-39.259 1124.58,-30.5765"/>
<polygon fill="midnightblue" stroke="midnightblue" points="1151.85,-62.7998 1161.4,-67.396 1156.8,-57.85 1151.85,-62.7998"/>
</g>
<!-- Node11 -->
<g id="node11" class="node"><title>Node11</title>
<g id="a_node11"><a xlink:href="sm__compare_8cpp.xhtml" target="_top" xlink:title="Implements internal selection method for comparison expressions. ">
<polygon fill="white" stroke="black" points="1185,-0.5 1185,-30.5 1298,-30.5 1298,-0.5 1185,-0.5"/>
<text text-anchor="start" x="1193" y="-18.5" font-family="Helvetica,sans-Serif" font-size="10.00">src/gromacs/selection</text>
<text text-anchor="middle" x="1241.5" y="-7.5" font-family="Helvetica,sans-Serif" font-size="10.00">/sm_compare.cpp</text>
</a>
</g>
</g>
<!-- Node1&#45;&gt;Node11 -->
<g id="edge10" class="edge"><title>Node1&#45;&gt;Node11</title>
<path fill="none" stroke="midnightblue" d="M1197.01,-60.3115C1206.91,-50.5612 1218.39,-39.259 1227.21,-30.5765"/>
<polygon fill="midnightblue" stroke="midnightblue" points="1194.49,-57.8853 1189.82,-67.396 1199.4,-62.8728 1194.49,-57.8853"/>
</g>
<!-- Node12 -->
<g id="node12" class="node"><title>Node12</title>
<g id="a_node12"><a xlink:href="sm__distance_8cpp.xhtml" target="_top" xlink:title="Implements distance&#45;based selection methods. ">
<polygon fill="white" stroke="black" points="1316,-0.5 1316,-30.5 1429,-30.5 1429,-0.5 1316,-0.5"/>
<text text-anchor="start" x="1324" y="-18.5" font-family="Helvetica,sans-Serif" font-size="10.00">src/gromacs/selection</text>
<text text-anchor="middle" x="1372.5" y="-7.5" font-family="Helvetica,sans-Serif" font-size="10.00">/sm_distance.cpp</text>
</a>
</g>
</g>
<!-- Node1&#45;&gt;Node12 -->
<g id="edge11" class="edge"><title>Node1&#45;&gt;Node12</title>
<path fill="none" stroke="midnightblue" d="M1227.85,-64.2278C1259.72,-53.7131 1299.91,-40.4508 1329.84,-30.5765"/>
<polygon fill="midnightblue" stroke="midnightblue" points="1226.65,-60.9388 1218.25,-67.396 1228.84,-67.5863 1226.65,-60.9388"/>
</g>
<!-- Node13 -->
<g id="node13" class="node"><title>Node13</title>
<g id="a_node13"><a xlink:href="sm__insolidangle_8cpp.xhtml" target="_top" xlink:title="Implements the insolidangle selection method. ">
<polygon fill="white" stroke="black" points="1447,-0.5 1447,-30.5 1560,-30.5 1560,-0.5 1447,-0.5"/>
<text text-anchor="start" x="1455" y="-18.5" font-family="Helvetica,sans-Serif" font-size="10.00">src/gromacs/selection</text>
<text text-anchor="middle" x="1503.5" y="-7.5" font-family="Helvetica,sans-Serif" font-size="10.00">/sm_insolidangle.cpp</text>
</a>
</g>
</g>
<!-- Node1&#45;&gt;Node13 -->
<g id="edge12" class="edge"><title>Node1&#45;&gt;Node13</title>
<path fill="none" stroke="midnightblue" d="M1242.02,-69.2927C1295.26,-59.3875 1371.78,-44.8438 1438.5,-31 1441.22,-30.4362 1444,-29.8507 1446.8,-29.2525"/>
<polygon fill="midnightblue" stroke="midnightblue" points="1241.22,-65.8815 1232.03,-71.1486 1242.5,-72.7639 1241.22,-65.8815"/>
</g>
<!-- Node14 -->
<g id="node14" class="node"><title>Node14</title>
<g id="a_node14"><a xlink:href="sm__keywords_8cpp.xhtml" target="_top" xlink:title="Implements internal selection methods for numeric and string keyword evaluation. ">
<polygon fill="white" stroke="black" points="1578,-0.5 1578,-30.5 1691,-30.5 1691,-0.5 1578,-0.5"/>
<text text-anchor="start" x="1586" y="-18.5" font-family="Helvetica,sans-Serif" font-size="10.00">src/gromacs/selection</text>
<text text-anchor="middle" x="1634.5" y="-7.5" font-family="Helvetica,sans-Serif" font-size="10.00">/sm_keywords.cpp</text>
</a>
</g>
</g>
<!-- Node1&#45;&gt;Node14 -->
<g id="edge13" class="edge"><title>Node1&#45;&gt;Node14</title>
<path fill="none" stroke="midnightblue" d="M1242.43,-74.8192C1321.05,-66.5339 1455.25,-51.0218 1569.5,-31 1572.23,-30.521 1575.03,-30.0044 1577.84,-29.4614"/>
<polygon fill="midnightblue" stroke="midnightblue" points="1241.77,-71.3695 1232.18,-75.8912 1242.49,-78.3315 1241.77,-71.3695"/>
</g>
<!-- Node15 -->
<g id="node15" class="node"><title>Node15</title>
<g id="a_node15"><a xlink:href="sm__merge_8cpp.xhtml" target="_top" xlink:title="Implements the merge and plus selection modifiers. ">
<polygon fill="white" stroke="black" points="1709,-0.5 1709,-30.5 1822,-30.5 1822,-0.5 1709,-0.5"/>
<text text-anchor="start" x="1717" y="-18.5" font-family="Helvetica,sans-Serif" font-size="10.00">src/gromacs/selection</text>
<text text-anchor="middle" x="1765.5" y="-7.5" font-family="Helvetica,sans-Serif" font-size="10.00">/sm_merge.cpp</text>
</a>
</g>
</g>
<!-- Node1&#45;&gt;Node15 -->
<g id="edge14" class="edge"><title>Node1&#45;&gt;Node15</title>
<path fill="none" stroke="midnightblue" d="M1242.38,-77.7224C1342.47,-71.4705 1536.96,-57.0049 1700.5,-31 1703.24,-30.5642 1706.04,-30.0827 1708.86,-29.5679"/>
<polygon fill="midnightblue" stroke="midnightblue" points="1241.88,-74.2466 1232.12,-78.3555 1242.31,-81.2333 1241.88,-74.2466"/>
</g>
<!-- Node16 -->
<g id="node16" class="node"><title>Node16</title>
<g id="a_node16"><a xlink:href="sm__permute_8cpp.xhtml" target="_top" xlink:title="Implements the permute selection modifier. ">
<polygon fill="white" stroke="black" points="1840,-0.5 1840,-30.5 1953,-30.5 1953,-0.5 1840,-0.5"/>
<text text-anchor="start" x="1848" y="-18.5" font-family="Helvetica,sans-Serif" font-size="10.00">src/gromacs/selection</text>
<text text-anchor="middle" x="1896.5" y="-7.5" font-family="Helvetica,sans-Serif" font-size="10.00">/sm_permute.cpp</text>
</a>
</g>
</g>
<!-- Node1&#45;&gt;Node16 -->
<g id="edge15" class="edge"><title>Node1&#45;&gt;Node16</title>
<path fill="none" stroke="midnightblue" d="M1242.46,-79.4978C1361.54,-75.2371 1617.71,-62.9078 1831.5,-31 1834.24,-30.5904 1837.05,-30.1301 1839.87,-29.6323"/>
<polygon fill="midnightblue" stroke="midnightblue" points="1242.27,-76.0021 1232.4,-79.8501 1242.52,-82.9979 1242.27,-76.0021"/>
</g>
<!-- Node17 -->
<g id="node17" class="node"><title>Node17</title>
<g id="a_node17"><a xlink:href="sm__position_8cpp.xhtml" target="_top" xlink:title="Implements position evaluation selection methods. ">
<polygon fill="white" stroke="black" points="1971,-0.5 1971,-30.5 2084,-30.5 2084,-0.5 1971,-0.5"/>
<text text-anchor="start" x="1979" y="-18.5" font-family="Helvetica,sans-Serif" font-size="10.00">src/gromacs/selection</text>
<text text-anchor="middle" x="2027.5" y="-7.5" font-family="Helvetica,sans-Serif" font-size="10.00">/sm_position.cpp</text>
</a>
</g>
</g>
<!-- Node1&#45;&gt;Node17 -->
<g id="edge16" class="edge"><title>Node1&#45;&gt;Node17</title>
<path fill="none" stroke="midnightblue" d="M1242.38,-80.7057C1378.58,-78.3197 1697.64,-68.8054 1962.5,-31 1965.25,-30.6079 1968.05,-30.1619 1970.88,-29.6755"/>
<polygon fill="midnightblue" stroke="midnightblue" points="1242.05,-77.2106 1232.11,-80.878 1242.17,-84.2096 1242.05,-77.2106"/>
</g>
<!-- Node18 -->
<g id="node18" class="node"><title>Node18</title>
<g id="a_node18"><a xlink:href="sm__same_8cpp.xhtml" target="_top" xlink:title="Implements the same selection method. ">
<polygon fill="white" stroke="black" points="2102,-0.5 2102,-30.5 2215,-30.5 2215,-0.5 2102,-0.5"/>
<text text-anchor="start" x="2110" y="-18.5" font-family="Helvetica,sans-Serif" font-size="10.00">src/gromacs/selection</text>
<text text-anchor="middle" x="2158.5" y="-7.5" font-family="Helvetica,sans-Serif" font-size="10.00">/sm_same.cpp</text>
</a>
</g>
</g>
<!-- Node1&#45;&gt;Node18 -->
<g id="edge17" class="edge"><title>Node1&#45;&gt;Node18</title>
<path fill="none" stroke="midnightblue" d="M1242.32,-81.5778C1394.27,-80.9367 1777.03,-74.7005 2093.5,-31 2096.25,-30.6204 2099.05,-30.1846 2101.88,-29.7063"/>
<polygon fill="midnightblue" stroke="midnightblue" points="1242.21,-78.0781 1232.22,-81.6136 1242.23,-85.0781 1242.21,-78.0781"/>
</g>
<!-- Node19 -->
<g id="node19" class="node"><title>Node19</title>
<g id="a_node19"><a xlink:href="sm__simple_8cpp.xhtml" target="_top" xlink:title="Implements simple keyword selection methods. ">
<polygon fill="white" stroke="black" points="2233,-0.5 2233,-30.5 2346,-30.5 2346,-0.5 2233,-0.5"/>
<text text-anchor="start" x="2241" y="-18.5" font-family="Helvetica,sans-Serif" font-size="10.00">src/gromacs/selection</text>
<text text-anchor="middle" x="2289.5" y="-7.5" font-family="Helvetica,sans-Serif" font-size="10.00">/sm_simple.cpp</text>
</a>
</g>
</g>
<!-- Node1&#45;&gt;Node19 -->
<g id="edge18" class="edge"><title>Node1&#45;&gt;Node19</title>
<path fill="none" stroke="midnightblue" d="M1242.18,-82.2374C1408.71,-83.2241 1855.91,-80.6113 2224.5,-31 2227.25,-30.6298 2230.06,-30.2016 2232.88,-29.7296"/>
<polygon fill="midnightblue" stroke="midnightblue" points="1242.12,-78.737 1232.1,-82.1711 1242.07,-85.7368 1242.12,-78.737"/>
</g>
</g>
</svg>
