<?xml version="1.0" encoding="UTF-8" standalone="no"?>
<!DOCTYPE svg PUBLIC "-//W3C//DTD SVG 1.1//EN"
 "http://www.w3.org/Graphics/SVG/1.1/DTD/svg11.dtd">
<!-- Generated by graphviz version 2.38.0 (20140413.2041)
 -->
<!-- Title: src/gromacs/mdlib/simulationsignal.h Pages: 1 -->
<svg width="336pt" height="95pt"
 viewBox="0.00 0.00 336.00 95.00" xmlns="http://www.w3.org/2000/svg" xmlns:xlink="http://www.w3.org/1999/xlink">
<g id="graph0" class="graph" transform="scale(1 1) rotate(0) translate(4 91)">
<title>src/gromacs/mdlib/simulationsignal.h</title>
<polygon fill="white" stroke="none" points="-4,4 -4,-91 332,-91 332,4 -4,4"/>
<!-- Node1 -->
<g id="node1" class="node"><title>Node1</title>
<polygon fill="#bfbfbf" stroke="black" points="91,-67.5 91,-86.5 269,-86.5 269,-67.5 91,-67.5"/>
<text text-anchor="middle" x="180" y="-74.5" font-family="Helvetica,sans-Serif" font-size="10.00">src/gromacs/mdlib/simulationsignal.h</text>
</g>
<!-- Node2 -->
<g id="node2" class="node"><title>Node2</title>
<g id="a_node2"><a xlink:href="simulationsignal_8cpp.xhtml" target="_top" xlink:title="This file defines functions for inter&#45; and intra&#45;simulation signalling by mdrun. ">
<polygon fill="white" stroke="black" points="0,-6 0,-25 188,-25 188,-6 0,-6"/>
<text text-anchor="middle" x="94" y="-13" font-family="Helvetica,sans-Serif" font-size="10.00">src/gromacs/mdlib/simulationsignal.cpp</text>
</a>
</g>
</g>
<!-- Node1&#45;&gt;Node2 -->
<g id="edge1" class="edge"><title>Node1&#45;&gt;Node2</title>
<path fill="none" stroke="midnightblue" d="M159.205,-61.6127C142.665,-50.1691 120.083,-34.546 106.299,-25.0091"/>
<polygon fill="midnightblue" stroke="midnightblue" points="157.463,-64.6637 167.678,-67.4751 161.446,-58.9072 157.463,-64.6637"/>
</g>
<!-- Node3 -->
<g id="node3" class="node"><title>Node3</title>
<g id="a_node3"><a xlink:href="tests_2simulationsignal_8cpp.xhtml" target="_top" xlink:title="Tests for the mdrun signalling functionality. ">
<polygon fill="white" stroke="black" points="206,-0.5 206,-30.5 328,-30.5 328,-0.5 206,-0.5"/>
<text text-anchor="start" x="214" y="-18.5" font-family="Helvetica,sans-Serif" font-size="10.00">src/gromacs/mdlib/tests</text>
<text text-anchor="middle" x="267" y="-7.5" font-family="Helvetica,sans-Serif" font-size="10.00">/simulationsignal.cpp</text>
</a>
</g>
</g>
<!-- Node1&#45;&gt;Node3 -->
<g id="edge2" class="edge"><title>Node1&#45;&gt;Node3</title>
<path fill="none" stroke="midnightblue" d="M200.852,-61.739C214.679,-52.2824 232.74,-39.9304 246.496,-30.523"/>
<polygon fill="midnightblue" stroke="midnightblue" points="198.743,-58.9409 192.465,-67.4751 202.695,-64.7189 198.743,-58.9409"/>
</g>
</g>
</svg>
