<?xml version="1.0" encoding="UTF-8" standalone="no"?>
<!DOCTYPE svg PUBLIC "-//W3C//DTD SVG 1.1//EN"
 "http://www.w3.org/Graphics/SVG/1.1/DTD/svg11.dtd">
<!-- Generated by graphviz version 2.38.0 (20140413.2041)
 -->
<!-- Title: src/gromacs/selection/sm_distance.cpp Pages: 1 -->
<svg width="1337pt" height="386pt"
 viewBox="0.00 0.00 1337.00 386.00" xmlns="http://www.w3.org/2000/svg" xmlns:xlink="http://www.w3.org/1999/xlink">
<g id="graph0" class="graph" transform="scale(1 1) rotate(0) translate(4 382)">
<title>src/gromacs/selection/sm_distance.cpp</title>
<polygon fill="white" stroke="none" points="-4,4 -4,-382 1333,-382 1333,4 -4,4"/>
<!-- Node1 -->
<g id="node1" class="node"><title>Node1</title>
<polygon fill="#bfbfbf" stroke="black" points="896,-347.5 896,-377.5 1009,-377.5 1009,-347.5 896,-347.5"/>
<text text-anchor="start" x="904" y="-365.5" font-family="Helvetica,sans-Serif" font-size="10.00">src/gromacs/selection</text>
<text text-anchor="middle" x="952.5" y="-354.5" font-family="Helvetica,sans-Serif" font-size="10.00">/sm_distance.cpp</text>
</g>
<!-- Node2 -->
<g id="node2" class="node"><title>Node2</title>
<g id="a_node2"><a xlink:href="gmxpre_8h.xhtml" target="_top" xlink:title="Prerequisite header file for GROMACS build. ">
<polygon fill="white" stroke="black" points="795,-291.5 795,-310.5 852,-310.5 852,-291.5 795,-291.5"/>
<text text-anchor="middle" x="823.5" y="-298.5" font-family="Helvetica,sans-Serif" font-size="10.00">gmxpre.h</text>
</a>
</g>
</g>
<!-- Node1&#45;&gt;Node2 -->
<g id="edge1" class="edge"><title>Node1&#45;&gt;Node2</title>
<path fill="none" stroke="midnightblue" d="M921.929,-347.399C900.575,-337.55 872.285,-324.501 851.515,-314.922"/>
<polygon fill="midnightblue" stroke="midnightblue" points="852.817,-311.668 842.271,-310.658 849.885,-318.024 852.817,-311.668"/>
</g>
<!-- Node3 -->
<g id="node3" class="node"><title>Node3</title>
<g id="a_node3"><a xlink:href="nbsearch_8h.xhtml" target="_top" xlink:title="API for neighborhood searching for analysis. ">
<polygon fill="white" stroke="black" points="368,-235.5 368,-254.5 515,-254.5 515,-235.5 368,-235.5"/>
<text text-anchor="middle" x="441.5" y="-242.5" font-family="Helvetica,sans-Serif" font-size="10.00">gromacs/selection/nbsearch.h</text>
</a>
</g>
</g>
<!-- Node1&#45;&gt;Node3 -->
<g id="edge2" class="edge"><title>Node1&#45;&gt;Node3</title>
<path fill="none" stroke="midnightblue" d="M939.082,-347.277C922.411,-330.623 892.263,-303.702 860.5,-291 801.497,-267.405 629.635,-255.111 525.25,-249.645"/>
<polygon fill="midnightblue" stroke="midnightblue" points="525.219,-246.139 515.053,-249.122 524.86,-253.13 525.219,-246.139"/>
</g>
<!-- Node18 -->
<g id="node18" class="node"><title>Node18</title>
<g id="a_node18"><a xlink:href="position_8h.xhtml" target="_top" xlink:title="API for handling positions. ">
<polygon fill="white" stroke="black" points="947,-235.5 947,-254.5 1088,-254.5 1088,-235.5 947,-235.5"/>
<text text-anchor="middle" x="1017.5" y="-242.5" font-family="Helvetica,sans-Serif" font-size="10.00">gromacs/selection/position.h</text>
</a>
</g>
</g>
<!-- Node1&#45;&gt;Node18 -->
<g id="edge20" class="edge"><title>Node1&#45;&gt;Node18</title>
<path fill="none" stroke="midnightblue" d="M960.47,-347.337C972.341,-326.243 994.652,-286.6 1007.57,-263.648"/>
<polygon fill="midnightblue" stroke="midnightblue" points="1010.77,-265.101 1012.62,-254.669 1004.67,-261.668 1010.77,-265.101"/>
</g>
<!-- Node22 -->
<g id="node22" class="node"><title>Node22</title>
<g id="a_node22"><a xlink:href="arraysize_8h.xhtml" target="_top" xlink:title="Provides asize() macro for calculating the static size of an array. ">
<polygon fill="white" stroke="black" points="1147,-291.5 1147,-310.5 1278,-310.5 1278,-291.5 1147,-291.5"/>
<text text-anchor="middle" x="1212.5" y="-298.5" font-family="Helvetica,sans-Serif" font-size="10.00">gromacs/utility/arraysize.h</text>
</a>
</g>
</g>
<!-- Node1&#45;&gt;Node22 -->
<g id="edge24" class="edge"><title>Node1&#45;&gt;Node22</title>
<path fill="none" stroke="midnightblue" d="M1009.24,-348.516C1055.95,-337.825 1121.41,-322.846 1165.3,-312.802"/>
<polygon fill="midnightblue" stroke="midnightblue" points="1166.17,-316.192 1175.14,-310.549 1164.61,-309.368 1166.17,-316.192"/>
</g>
<!-- Node23 -->
<g id="node23" class="node"><title>Node23</title>
<g id="a_node23"><a xlink:href="exceptions_8h.xhtml" target="_top" xlink:title="Declares common exception classes and macros for fatal error handling. ">
<polygon fill="white" stroke="black" points="829,-179.5 829,-198.5 968,-198.5 968,-179.5 829,-179.5"/>
<text text-anchor="middle" x="898.5" y="-186.5" font-family="Helvetica,sans-Serif" font-size="10.00">gromacs/utility/exceptions.h</text>
</a>
</g>
</g>
<!-- Node1&#45;&gt;Node23 -->
<g id="edge25" class="edge"><title>Node1&#45;&gt;Node23</title>
<path fill="none" stroke="midnightblue" d="M948.081,-347.465C938.353,-316.57 915.09,-242.69 904.247,-208.251"/>
<polygon fill="midnightblue" stroke="midnightblue" points="907.537,-207.047 901.195,-198.56 900.86,-209.149 907.537,-207.047"/>
</g>
<!-- Node28 -->
<g id="node28" class="node"><title>Node28</title>
<g id="a_node28"><a xlink:href="selmethod_8h.xhtml" target="_top" xlink:title="API for handling selection methods. ">
<polygon fill="white" stroke="black" points="1058.5,-291.5 1058.5,-310.5 1128.5,-310.5 1128.5,-291.5 1058.5,-291.5"/>
<text text-anchor="middle" x="1093.5" y="-298.5" font-family="Helvetica,sans-Serif" font-size="10.00">selmethod.h</text>
</a>
</g>
</g>
<!-- Node1&#45;&gt;Node28 -->
<g id="edge38" class="edge"><title>Node1&#45;&gt;Node28</title>
<path fill="none" stroke="midnightblue" d="M985.915,-347.399C1009.47,-337.461 1040.74,-324.265 1063.49,-314.662"/>
<polygon fill="midnightblue" stroke="midnightblue" points="1065.13,-317.77 1072.98,-310.658 1062.41,-311.321 1065.13,-317.77"/>
</g>
<!-- Node4 -->
<g id="node4" class="node"><title>Node4</title>
<polygon fill="white" stroke="#bfbfbf" points="415.5,-62 415.5,-81 467.5,-81 467.5,-62 415.5,-62"/>
<text text-anchor="middle" x="441.5" y="-69" font-family="Helvetica,sans-Serif" font-size="10.00">memory</text>
</g>
<!-- Node3&#45;&gt;Node4 -->
<g id="edge3" class="edge"><title>Node3&#45;&gt;Node4</title>
<path fill="none" stroke="midnightblue" d="M414.201,-235.376C362.973,-217.74 260.765,-174.811 297.5,-123 321.801,-88.7251 371.259,-77.5359 405.377,-73.9833"/>
<polygon fill="midnightblue" stroke="midnightblue" points="405.769,-77.4625 415.428,-73.1088 405.162,-70.4888 405.769,-77.4625"/>
</g>
<!-- Node5 -->
<g id="node5" class="node"><title>Node5</title>
<polygon fill="white" stroke="#bfbfbf" points="306.5,-123.5 306.5,-142.5 350.5,-142.5 350.5,-123.5 306.5,-123.5"/>
<text text-anchor="middle" x="328.5" y="-130.5" font-family="Helvetica,sans-Serif" font-size="10.00">vector</text>
</g>
<!-- Node3&#45;&gt;Node5 -->
<g id="edge4" class="edge"><title>Node3&#45;&gt;Node5</title>
<path fill="none" stroke="midnightblue" d="M432.633,-235.368C413.655,-216.894 368.864,-173.293 344.673,-149.744"/>
<polygon fill="midnightblue" stroke="midnightblue" points="346.933,-147.059 337.326,-142.591 342.05,-152.075 346.933,-147.059"/>
</g>
<!-- Node6 -->
<g id="node6" class="node"><title>Node6</title>
<g id="a_node6"><a xlink:href="arrayref_8h.xhtml" target="_top" xlink:title="Declares gmx::ArrayRef and gmx::ConstArrayRef. ">
<polygon fill="white" stroke="black" points="125,-179.5 125,-198.5 250,-198.5 250,-179.5 125,-179.5"/>
<text text-anchor="middle" x="187.5" y="-186.5" font-family="Helvetica,sans-Serif" font-size="10.00">gromacs/utility/arrayref.h</text>
</a>
</g>
</g>
<!-- Node3&#45;&gt;Node6 -->
<g id="edge5" class="edge"><title>Node3&#45;&gt;Node6</title>
<path fill="none" stroke="midnightblue" d="M401.253,-235.444C356.85,-226.004 285.347,-210.802 237.412,-200.611"/>
<polygon fill="midnightblue" stroke="midnightblue" points="238.068,-197.173 227.559,-198.516 236.612,-204.02 238.068,-197.173"/>
</g>
<!-- Node11 -->
<g id="node11" class="node"><title>Node11</title>
<g id="a_node11"><a xlink:href="gmxassert_8h.xhtml" target="_top" xlink:title="Defines assert macros customized for Gromacs. ">
<polygon fill="white" stroke="black" points="533,-123.5 533,-142.5 670,-142.5 670,-123.5 533,-123.5"/>
<text text-anchor="middle" x="601.5" y="-130.5" font-family="Helvetica,sans-Serif" font-size="10.00">gromacs/utility/gmxassert.h</text>
</a>
</g>
</g>
<!-- Node3&#45;&gt;Node11 -->
<g id="edge18" class="edge"><title>Node3&#45;&gt;Node11</title>
<path fill="none" stroke="midnightblue" d="M454.055,-235.368C481.394,-216.573 546.564,-171.768 580.361,-148.533"/>
<polygon fill="midnightblue" stroke="midnightblue" points="582.746,-151.141 589.003,-142.591 578.78,-145.373 582.746,-151.141"/>
</g>
<!-- Node16 -->
<g id="node16" class="node"><title>Node16</title>
<g id="a_node16"><a xlink:href="classhelpers_8h.xhtml" target="_top" xlink:title="Declares common utility classes and macros. ">
<polygon fill="white" stroke="black" points="368.5,-123.5 368.5,-142.5 514.5,-142.5 514.5,-123.5 368.5,-123.5"/>
<text text-anchor="middle" x="441.5" y="-130.5" font-family="Helvetica,sans-Serif" font-size="10.00">gromacs/utility/classhelpers.h</text>
</a>
</g>
</g>
<!-- Node3&#45;&gt;Node16 -->
<g id="edge16" class="edge"><title>Node3&#45;&gt;Node16</title>
<path fill="none" stroke="midnightblue" d="M441.5,-235.368C441.5,-217.617 441.5,-176.666 441.5,-152.597"/>
<polygon fill="midnightblue" stroke="midnightblue" points="445,-152.591 441.5,-142.591 438,-152.591 445,-152.591"/>
</g>
<!-- Node17 -->
<g id="node17" class="node"><title>Node17</title>
<g id="a_node17"><a xlink:href="real_8h.xhtml" target="_top" xlink:title="Declares real and related constants. ">
<polygon fill="white" stroke="black" points="1222,-123.5 1222,-142.5 1329,-142.5 1329,-123.5 1222,-123.5"/>
<text text-anchor="middle" x="1275.5" y="-130.5" font-family="Helvetica,sans-Serif" font-size="10.00">gromacs/utility/real.h</text>
</a>
</g>
</g>
<!-- Node3&#45;&gt;Node17 -->
<g id="edge19" class="edge"><title>Node3&#45;&gt;Node17</title>
<path fill="none" stroke="midnightblue" d="M515.287,-242.685C619.095,-239.731 813.772,-230.14 976.5,-199 1006.6,-193.239 1012.75,-186.36 1042.5,-179 1099.69,-164.852 1165.7,-152.468 1212.82,-144.292"/>
<polygon fill="midnightblue" stroke="midnightblue" points="1213.62,-147.707 1222.88,-142.562 1212.43,-140.808 1213.62,-147.707"/>
</g>
<!-- Node6&#45;&gt;Node5 -->
<g id="edge10" class="edge"><title>Node6&#45;&gt;Node5</title>
<path fill="none" stroke="midnightblue" d="M209.842,-179.444C233.253,-170.478 270.236,-156.314 296.69,-146.183"/>
<polygon fill="midnightblue" stroke="midnightblue" points="298.176,-149.361 306.263,-142.516 295.672,-142.824 298.176,-149.361"/>
</g>
<!-- Node7 -->
<g id="node7" class="node"><title>Node7</title>
<polygon fill="white" stroke="#bfbfbf" points="136,-123.5 136,-142.5 185,-142.5 185,-123.5 136,-123.5"/>
<text text-anchor="middle" x="160.5" y="-130.5" font-family="Helvetica,sans-Serif" font-size="10.00">cstddef</text>
</g>
<!-- Node6&#45;&gt;Node7 -->
<g id="edge6" class="edge"><title>Node6&#45;&gt;Node7</title>
<path fill="none" stroke="midnightblue" d="M183.041,-179.083C179.346,-171.691 173.977,-160.953 169.406,-151.811"/>
<polygon fill="midnightblue" stroke="midnightblue" points="172.478,-150.13 164.876,-142.751 166.217,-153.261 172.478,-150.13"/>
</g>
<!-- Node8 -->
<g id="node8" class="node"><title>Node8</title>
<polygon fill="white" stroke="#bfbfbf" points="203,-123.5 203,-142.5 250,-142.5 250,-123.5 203,-123.5"/>
<text text-anchor="middle" x="226.5" y="-130.5" font-family="Helvetica,sans-Serif" font-size="10.00">iterator</text>
</g>
<!-- Node6&#45;&gt;Node8 -->
<g id="edge7" class="edge"><title>Node6&#45;&gt;Node8</title>
<path fill="none" stroke="midnightblue" d="M193.94,-179.083C199.449,-171.455 207.531,-160.264 214.265,-150.941"/>
<polygon fill="midnightblue" stroke="midnightblue" points="217.162,-152.907 220.18,-142.751 211.487,-148.809 217.162,-152.907"/>
</g>
<!-- Node9 -->
<g id="node9" class="node"><title>Node9</title>
<polygon fill="white" stroke="#bfbfbf" points="0,-123.5 0,-142.5 59,-142.5 59,-123.5 0,-123.5"/>
<text text-anchor="middle" x="29.5" y="-130.5" font-family="Helvetica,sans-Serif" font-size="10.00">stdexcept</text>
</g>
<!-- Node6&#45;&gt;Node9 -->
<g id="edge8" class="edge"><title>Node6&#45;&gt;Node9</title>
<path fill="none" stroke="midnightblue" d="M162.464,-179.444C135.884,-170.359 93.6912,-155.939 63.9766,-145.783"/>
<polygon fill="midnightblue" stroke="midnightblue" points="65.013,-142.439 54.4184,-142.516 62.7491,-149.062 65.013,-142.439"/>
</g>
<!-- Node10 -->
<g id="node10" class="node"><title>Node10</title>
<polygon fill="white" stroke="#bfbfbf" points="77.5,-123.5 77.5,-142.5 117.5,-142.5 117.5,-123.5 77.5,-123.5"/>
<text text-anchor="middle" x="97.5" y="-130.5" font-family="Helvetica,sans-Serif" font-size="10.00">utility</text>
</g>
<!-- Node6&#45;&gt;Node10 -->
<g id="edge9" class="edge"><title>Node6&#45;&gt;Node10</title>
<path fill="none" stroke="midnightblue" d="M173.04,-179.324C159,-170.9 137.452,-157.971 120.957,-148.074"/>
<polygon fill="midnightblue" stroke="midnightblue" points="122.3,-144.798 111.924,-142.655 118.698,-150.801 122.3,-144.798"/>
</g>
<!-- Node6&#45;&gt;Node11 -->
<g id="edge11" class="edge"><title>Node6&#45;&gt;Node11</title>
<path fill="none" stroke="midnightblue" d="M250.378,-179.799C324.306,-170.156 446.924,-154.162 525.948,-143.855"/>
<polygon fill="midnightblue" stroke="midnightblue" points="526.856,-147.266 536.32,-142.502 525.951,-140.325 526.856,-147.266"/>
</g>
<!-- Node12 -->
<g id="node12" class="node"><title>Node12</title>
<g id="a_node12"><a xlink:href="basedefinitions_8h.xhtml" target="_top" xlink:title="Basic types and macros used throughout GROMACS. ">
<polygon fill="white" stroke="black" points="603,-62 603,-81 760,-81 760,-62 603,-62"/>
<text text-anchor="middle" x="681.5" y="-69" font-family="Helvetica,sans-Serif" font-size="10.00">gromacs/utility/basedefinitions.h</text>
</a>
</g>
</g>
<!-- Node11&#45;&gt;Node12 -->
<g id="edge12" class="edge"><title>Node11&#45;&gt;Node12</title>
<path fill="none" stroke="midnightblue" d="M612.962,-123.475C625.675,-114.02 646.413,-98.5961 661.753,-87.1871"/>
<polygon fill="midnightblue" stroke="midnightblue" points="664.124,-89.7854 670.059,-81.0091 659.946,-84.1686 664.124,-89.7854"/>
</g>
<!-- Node15 -->
<g id="node15" class="node"><title>Node15</title>
<g id="a_node15"><a xlink:href="current__function_8h.xhtml" target="_top" xlink:title="Declares GMX_CURRENT_FUNCTION for getting the current function name. ">
<polygon fill="white" stroke="black" points="937,-56.5 937,-86.5 1050,-86.5 1050,-56.5 937,-56.5"/>
<text text-anchor="start" x="945" y="-74.5" font-family="Helvetica,sans-Serif" font-size="10.00">gromacs/utility/current</text>
<text text-anchor="middle" x="993.5" y="-63.5" font-family="Helvetica,sans-Serif" font-size="10.00">_function.h</text>
</a>
</g>
</g>
<!-- Node11&#45;&gt;Node15 -->
<g id="edge15" class="edge"><title>Node11&#45;&gt;Node15</title>
<path fill="none" stroke="midnightblue" d="M657.664,-123.475C728.779,-112.681 851.14,-94.1082 926.892,-82.6102"/>
<polygon fill="midnightblue" stroke="midnightblue" points="927.443,-86.0667 936.804,-81.1056 926.392,-79.146 927.443,-86.0667"/>
</g>
<!-- Node13 -->
<g id="node13" class="node"><title>Node13</title>
<polygon fill="white" stroke="#bfbfbf" points="621,-0.5 621,-19.5 670,-19.5 670,-0.5 621,-0.5"/>
<text text-anchor="middle" x="645.5" y="-7.5" font-family="Helvetica,sans-Serif" font-size="10.00">stdint.h</text>
</g>
<!-- Node12&#45;&gt;Node13 -->
<g id="edge13" class="edge"><title>Node12&#45;&gt;Node13</title>
<path fill="none" stroke="midnightblue" d="M676.342,-61.9751C671.049,-53.2268 662.665,-39.3691 655.973,-28.3093"/>
<polygon fill="midnightblue" stroke="midnightblue" points="658.82,-26.2531 650.648,-19.5091 652.83,-29.8768 658.82,-26.2531"/>
</g>
<!-- Node14 -->
<g id="node14" class="node"><title>Node14</title>
<polygon fill="white" stroke="#bfbfbf" points="688,-0.5 688,-19.5 747,-19.5 747,-0.5 688,-0.5"/>
<text text-anchor="middle" x="717.5" y="-7.5" font-family="Helvetica,sans-Serif" font-size="10.00">inttypes.h</text>
</g>
<!-- Node12&#45;&gt;Node14 -->
<g id="edge14" class="edge"><title>Node12&#45;&gt;Node14</title>
<path fill="none" stroke="midnightblue" d="M686.658,-61.9751C691.951,-53.2268 700.335,-39.3691 707.027,-28.3093"/>
<polygon fill="midnightblue" stroke="midnightblue" points="710.17,-29.8768 712.352,-19.5091 704.18,-26.2531 710.17,-29.8768"/>
</g>
<!-- Node16&#45;&gt;Node4 -->
<g id="edge17" class="edge"><title>Node16&#45;&gt;Node4</title>
<path fill="none" stroke="midnightblue" d="M441.5,-123.475C441.5,-115.08 441.5,-101.981 441.5,-91.1631"/>
<polygon fill="midnightblue" stroke="midnightblue" points="445,-91.0091 441.5,-81.0091 438,-91.0091 445,-91.0091"/>
</g>
<!-- Node19 -->
<g id="node19" class="node"><title>Node19</title>
<g id="a_node19"><a xlink:href="indexutil_8h.xhtml" target="_top" xlink:title="API for handling index files and index groups. ">
<polygon fill="white" stroke="black" points="1052,-179.5 1052,-198.5 1195,-198.5 1195,-179.5 1052,-179.5"/>
<text text-anchor="middle" x="1123.5" y="-186.5" font-family="Helvetica,sans-Serif" font-size="10.00">gromacs/selection/indexutil.h</text>
</a>
</g>
</g>
<!-- Node18&#45;&gt;Node19 -->
<g id="edge21" class="edge"><title>Node18&#45;&gt;Node19</title>
<path fill="none" stroke="midnightblue" d="M1034.53,-235.324C1051.53,-226.664 1077.88,-213.242 1097.49,-203.249"/>
<polygon fill="midnightblue" stroke="midnightblue" points="1099.19,-206.312 1106.51,-198.655 1096.01,-200.075 1099.19,-206.312"/>
</g>
<!-- Node20 -->
<g id="node20" class="node"><title>Node20</title>
<polygon fill="white" stroke="#bfbfbf" points="1102,-123.5 1102,-142.5 1145,-142.5 1145,-123.5 1102,-123.5"/>
<text text-anchor="middle" x="1123.5" y="-130.5" font-family="Helvetica,sans-Serif" font-size="10.00">cstdio</text>
</g>
<!-- Node19&#45;&gt;Node20 -->
<g id="edge22" class="edge"><title>Node19&#45;&gt;Node20</title>
<path fill="none" stroke="midnightblue" d="M1123.5,-179.083C1123.5,-172.006 1123.5,-161.861 1123.5,-152.986"/>
<polygon fill="midnightblue" stroke="midnightblue" points="1127,-152.751 1123.5,-142.751 1120,-152.751 1127,-152.751"/>
</g>
<!-- Node21 -->
<g id="node21" class="node"><title>Node21</title>
<polygon fill="white" stroke="#bfbfbf" points="1163,-123.5 1163,-142.5 1204,-142.5 1204,-123.5 1163,-123.5"/>
<text text-anchor="middle" x="1183.5" y="-130.5" font-family="Helvetica,sans-Serif" font-size="10.00">string</text>
</g>
<!-- Node19&#45;&gt;Node21 -->
<g id="edge23" class="edge"><title>Node19&#45;&gt;Node21</title>
<path fill="none" stroke="midnightblue" d="M1133.14,-179.324C1142.01,-171.341 1155.37,-159.313 1166.11,-149.653"/>
<polygon fill="midnightblue" stroke="midnightblue" points="1168.59,-152.125 1173.68,-142.834 1163.91,-146.922 1168.59,-152.125"/>
</g>
<!-- Node23&#45;&gt;Node4 -->
<g id="edge29" class="edge"><title>Node23&#45;&gt;Node4</title>
<path fill="none" stroke="midnightblue" d="M851.863,-179.486C814.772,-171.986 761.917,-159.656 717.5,-143 699.261,-136.16 696.852,-129.531 678.5,-123 609.595,-98.4786 524.976,-83.9726 477.765,-77.1879"/>
<polygon fill="midnightblue" stroke="midnightblue" points="478.107,-73.7017 467.718,-75.78 477.135,-80.6339 478.107,-73.7017"/>
</g>
<!-- Node23&#45;&gt;Node5 -->
<g id="edge33" class="edge"><title>Node23&#45;&gt;Node5</title>
<path fill="none" stroke="midnightblue" d="M828.997,-186.612C727.728,-183.615 533.732,-174.2 360.772,-142.876"/>
<polygon fill="midnightblue" stroke="midnightblue" points="361.192,-139.395 350.724,-141.027 359.925,-146.279 361.192,-139.395"/>
</g>
<!-- Node23&#45;&gt;Node11 -->
<g id="edge37" class="edge"><title>Node23&#45;&gt;Node11</title>
<path fill="none" stroke="midnightblue" d="M851.439,-179.444C799.085,-169.925 714.51,-154.547 658.46,-144.356"/>
<polygon fill="midnightblue" stroke="midnightblue" points="658.805,-140.862 648.34,-142.516 657.553,-147.749 658.805,-140.862"/>
</g>
<!-- Node23&#45;&gt;Node12 -->
<g id="edge34" class="edge"><title>Node23&#45;&gt;Node12</title>
<path fill="none" stroke="midnightblue" d="M945.352,-179.416C987.656,-169.645 1039.82,-151.274 1015.5,-123 984.43,-86.8788 858.244,-76.2664 770.202,-73.333"/>
<polygon fill="midnightblue" stroke="midnightblue" points="770.303,-69.8345 760.201,-73.027 770.089,-76.8313 770.303,-69.8345"/>
</g>
<!-- Node23&#45;&gt;Node15 -->
<g id="edge36" class="edge"><title>Node23&#45;&gt;Node15</title>
<path fill="none" stroke="midnightblue" d="M968.352,-185.037C998.318,-179.864 1030.7,-168.221 1049.5,-143 1062.44,-125.642 1044.99,-106.431 1026.24,-92.4515"/>
<polygon fill="midnightblue" stroke="midnightblue" points="1028.12,-89.4959 1017.92,-86.6123 1024.1,-95.2242 1028.12,-89.4959"/>
</g>
<!-- Node23&#45;&gt;Node16 -->
<g id="edge35" class="edge"><title>Node23&#45;&gt;Node16</title>
<path fill="none" stroke="midnightblue" d="M828.594,-179.74C746.579,-170.049 610.774,-154.002 523.761,-143.72"/>
<polygon fill="midnightblue" stroke="midnightblue" points="524.003,-140.225 513.662,-142.527 523.182,-147.176 524.003,-140.225"/>
</g>
<!-- Node23&#45;&gt;Node20 -->
<g id="edge26" class="edge"><title>Node23&#45;&gt;Node20</title>
<path fill="none" stroke="midnightblue" d="M934.762,-179.494C972.831,-170.534 1034.42,-155.955 1087.5,-143 1088.95,-142.647 1090.43,-142.284 1091.92,-141.916"/>
<polygon fill="midnightblue" stroke="midnightblue" points="1092.94,-145.269 1101.81,-139.465 1091.26,-138.474 1092.94,-145.269"/>
</g>
<!-- Node23&#45;&gt;Node21 -->
<g id="edge30" class="edge"><title>Node23&#45;&gt;Node21</title>
<path fill="none" stroke="midnightblue" d="M958.157,-179.49C1007.86,-171.941 1080.65,-159.827 1153.17,-142.834"/>
<polygon fill="midnightblue" stroke="midnightblue" points="1154.01,-146.232 1162.93,-140.516 1152.39,-139.421 1154.01,-146.232"/>
</g>
<!-- Node24 -->
<g id="node24" class="node"><title>Node24</title>
<polygon fill="white" stroke="#bfbfbf" points="727,-123.5 727,-142.5 772,-142.5 772,-123.5 727,-123.5"/>
<text text-anchor="middle" x="749.5" y="-130.5" font-family="Helvetica,sans-Serif" font-size="10.00">cstdlib</text>
</g>
<!-- Node23&#45;&gt;Node24 -->
<g id="edge27" class="edge"><title>Node23&#45;&gt;Node24</title>
<path fill="none" stroke="midnightblue" d="M874.891,-179.444C849.75,-170.332 809.798,-155.853 781.764,-145.693"/>
<polygon fill="midnightblue" stroke="midnightblue" points="782.618,-142.28 772.024,-142.163 780.233,-148.861 782.618,-142.28"/>
</g>
<!-- Node25 -->
<g id="node25" class="node"><title>Node25</title>
<polygon fill="white" stroke="#bfbfbf" points="790,-123.5 790,-142.5 849,-142.5 849,-123.5 790,-123.5"/>
<text text-anchor="middle" x="819.5" y="-130.5" font-family="Helvetica,sans-Serif" font-size="10.00">exception</text>
</g>
<!-- Node23&#45;&gt;Node25 -->
<g id="edge28" class="edge"><title>Node23&#45;&gt;Node25</title>
<path fill="none" stroke="midnightblue" d="M885.807,-179.324C873.599,-170.979 854.922,-158.212 840.497,-148.352"/>
<polygon fill="midnightblue" stroke="midnightblue" points="842.392,-145.408 832.161,-142.655 838.442,-151.187 842.392,-145.408"/>
</g>
<!-- Node26 -->
<g id="node26" class="node"><title>Node26</title>
<polygon fill="white" stroke="#bfbfbf" points="867.5,-123.5 867.5,-142.5 929.5,-142.5 929.5,-123.5 867.5,-123.5"/>
<text text-anchor="middle" x="898.5" y="-130.5" font-family="Helvetica,sans-Serif" font-size="10.00">type_traits</text>
</g>
<!-- Node23&#45;&gt;Node26 -->
<g id="edge31" class="edge"><title>Node23&#45;&gt;Node26</title>
<path fill="none" stroke="midnightblue" d="M898.5,-179.083C898.5,-172.006 898.5,-161.861 898.5,-152.986"/>
<polygon fill="midnightblue" stroke="midnightblue" points="902,-152.751 898.5,-142.751 895,-152.751 902,-152.751"/>
</g>
<!-- Node27 -->
<g id="node27" class="node"><title>Node27</title>
<polygon fill="white" stroke="#bfbfbf" points="948,-123.5 948,-142.5 1007,-142.5 1007,-123.5 948,-123.5"/>
<text text-anchor="middle" x="977.5" y="-130.5" font-family="Helvetica,sans-Serif" font-size="10.00">typeindex</text>
</g>
<!-- Node23&#45;&gt;Node27 -->
<g id="edge32" class="edge"><title>Node23&#45;&gt;Node27</title>
<path fill="none" stroke="midnightblue" d="M911.193,-179.324C923.401,-170.979 942.078,-158.212 956.503,-148.352"/>
<polygon fill="midnightblue" stroke="midnightblue" points="958.558,-151.187 964.839,-142.655 954.608,-145.408 958.558,-151.187"/>
</g>
<!-- Node29 -->
<g id="node29" class="node"><title>Node29</title>
<g id="a_node29"><a xlink:href="selparam_8h.xhtml" target="_top" xlink:title="API for handling parameters used in selections. ">
<polygon fill="white" stroke="black" points="1106,-235.5 1106,-254.5 1171,-254.5 1171,-235.5 1106,-235.5"/>
<text text-anchor="middle" x="1138.5" y="-242.5" font-family="Helvetica,sans-Serif" font-size="10.00">selparam.h</text>
</a>
</g>
</g>
<!-- Node28&#45;&gt;Node29 -->
<g id="edge39" class="edge"><title>Node28&#45;&gt;Node29</title>
<path fill="none" stroke="midnightblue" d="M1100.93,-291.083C1107.35,-283.377 1116.81,-272.033 1124.62,-262.653"/>
<polygon fill="midnightblue" stroke="midnightblue" points="1127.49,-264.674 1131.21,-254.751 1122.12,-260.193 1127.49,-264.674"/>
</g>
<!-- Node30 -->
<g id="node30" class="node"><title>Node30</title>
<g id="a_node30"><a xlink:href="selvalue_8h.xhtml" target="_top" xlink:title="Declares gmx_ana_selvalue_t. ">
<polygon fill="white" stroke="black" points="1213,-179.5 1213,-198.5 1274,-198.5 1274,-179.5 1213,-179.5"/>
<text text-anchor="middle" x="1243.5" y="-186.5" font-family="Helvetica,sans-Serif" font-size="10.00">selvalue.h</text>
</a>
</g>
</g>
<!-- Node28&#45;&gt;Node30 -->
<g id="edge43" class="edge"><title>Node28&#45;&gt;Node30</title>
<path fill="none" stroke="midnightblue" d="M1114,-291.461C1132.11,-283.424 1158.78,-270.348 1179.5,-255 1198.68,-240.791 1217.46,-220.783 1229.66,-206.729"/>
<polygon fill="midnightblue" stroke="midnightblue" points="1232.55,-208.74 1236.35,-198.853 1227.21,-204.207 1232.55,-208.74"/>
</g>
<!-- Node29&#45;&gt;Node19 -->
<g id="edge40" class="edge"><title>Node29&#45;&gt;Node19</title>
<path fill="none" stroke="midnightblue" d="M1136.02,-235.083C1134.01,-227.849 1131.11,-217.409 1128.61,-208.397"/>
<polygon fill="midnightblue" stroke="midnightblue" points="1131.98,-207.449 1125.93,-198.751 1125.24,-209.323 1131.98,-207.449"/>
</g>
<!-- Node29&#45;&gt;Node30 -->
<g id="edge41" class="edge"><title>Node29&#45;&gt;Node30</title>
<path fill="none" stroke="midnightblue" d="M1155.37,-235.324C1172.21,-226.664 1198.31,-213.242 1217.74,-203.249"/>
<polygon fill="midnightblue" stroke="midnightblue" points="1219.38,-206.341 1226.67,-198.655 1216.18,-200.116 1219.38,-206.341"/>
</g>
<!-- Node30&#45;&gt;Node17 -->
<g id="edge42" class="edge"><title>Node30&#45;&gt;Node17</title>
<path fill="none" stroke="midnightblue" d="M1248.78,-179.083C1253.21,-171.613 1259.66,-160.724 1265.12,-151.52"/>
<polygon fill="midnightblue" stroke="midnightblue" points="1268.23,-153.138 1270.31,-142.751 1262.21,-149.57 1268.23,-153.138"/>
</g>
</g>
</svg>
