<?xml version="1.0" encoding="UTF-8" standalone="no"?>
<!DOCTYPE svg PUBLIC "-//W3C//DTD SVG 1.1//EN"
 "http://www.w3.org/Graphics/SVG/1.1/DTD/svg11.dtd">
<!-- Generated by graphviz version 2.38.0 (20140413.2041)
 -->
<!-- Title: src/gromacs/selection/sm_position.cpp Pages: 1 -->
<svg width="1104pt" height="330pt"
 viewBox="0.00 0.00 1104.00 330.00" xmlns="http://www.w3.org/2000/svg" xmlns:xlink="http://www.w3.org/1999/xlink">
<g id="graph0" class="graph" transform="scale(1 1) rotate(0) translate(4 326)">
<title>src/gromacs/selection/sm_position.cpp</title>
<polygon fill="white" stroke="none" points="-4,4 -4,-326 1100,-326 1100,4 -4,4"/>
<!-- Node1 -->
<g id="node1" class="node"><title>Node1</title>
<polygon fill="#bfbfbf" stroke="black" points="438,-291.5 438,-321.5 551,-321.5 551,-291.5 438,-291.5"/>
<text text-anchor="start" x="446" y="-309.5" font-family="Helvetica,sans-Serif" font-size="10.00">src/gromacs/selection</text>
<text text-anchor="middle" x="494.5" y="-298.5" font-family="Helvetica,sans-Serif" font-size="10.00">/sm_position.cpp</text>
</g>
<!-- Node2 -->
<g id="node2" class="node"><title>Node2</title>
<g id="a_node2"><a xlink:href="gmxpre_8h.xhtml" target="_top" xlink:title="Prerequisite header file for GROMACS build. ">
<polygon fill="white" stroke="black" points="46,-235.5 46,-254.5 103,-254.5 103,-235.5 46,-235.5"/>
<text text-anchor="middle" x="74.5" y="-242.5" font-family="Helvetica,sans-Serif" font-size="10.00">gmxpre.h</text>
</a>
</g>
</g>
<!-- Node1&#45;&gt;Node2 -->
<g id="edge1" class="edge"><title>Node1&#45;&gt;Node2</title>
<path fill="none" stroke="midnightblue" d="M437.779,-299.213C363.833,-290.717 230.589,-274.382 117.5,-255 116.043,-254.75 114.561,-254.487 113.065,-254.213"/>
<polygon fill="midnightblue" stroke="midnightblue" points="113.607,-250.753 103.125,-252.296 112.281,-257.627 113.607,-250.753"/>
</g>
<!-- Node3 -->
<g id="node3" class="node"><title>Node3</title>
<g id="a_node3"><a xlink:href="indexutil_8h.xhtml" target="_top" xlink:title="API for handling index files and index groups. ">
<polygon fill="white" stroke="black" points="76,-62 76,-81 219,-81 219,-62 76,-62"/>
<text text-anchor="middle" x="147.5" y="-69" font-family="Helvetica,sans-Serif" font-size="10.00">gromacs/selection/indexutil.h</text>
</a>
</g>
</g>
<!-- Node1&#45;&gt;Node3 -->
<g id="edge2" class="edge"><title>Node1&#45;&gt;Node3</title>
<path fill="none" stroke="midnightblue" d="M438.757,-291.478C380.435,-275.169 287.762,-244.529 217.5,-199 187.16,-179.34 175.295,-175.015 158.5,-143 150.145,-127.073 147.729,-106.536 147.202,-91.7402"/>
<polygon fill="midnightblue" stroke="midnightblue" points="150.698,-91.2712 147.108,-81.3032 143.699,-91.3345 150.698,-91.2712"/>
</g>
<!-- Node6 -->
<g id="node6" class="node"><title>Node6</title>
<g id="a_node6"><a xlink:href="position_8h.xhtml" target="_top" xlink:title="API for handling positions. ">
<polygon fill="white" stroke="black" points="0,-179.5 0,-198.5 141,-198.5 141,-179.5 0,-179.5"/>
<text text-anchor="middle" x="70.5" y="-186.5" font-family="Helvetica,sans-Serif" font-size="10.00">gromacs/selection/position.h</text>
</a>
</g>
</g>
<!-- Node1&#45;&gt;Node6 -->
<g id="edge5" class="edge"><title>Node1&#45;&gt;Node6</title>
<path fill="none" stroke="midnightblue" d="M437.887,-305.603C368.631,-303.84 249.068,-294.6 155.5,-255 128.402,-243.532 102.298,-221.372 86.3301,-206.141"/>
<polygon fill="midnightblue" stroke="midnightblue" points="88.5415,-203.407 78.9527,-198.901 83.6385,-208.404 88.5415,-203.407"/>
</g>
<!-- Node7 -->
<g id="node7" class="node"><title>Node7</title>
<g id="a_node7"><a xlink:href="arraysize_8h.xhtml" target="_top" xlink:title="Provides asize() macro for calculating the static size of an array. ">
<polygon fill="white" stroke="black" points="965,-235.5 965,-254.5 1096,-254.5 1096,-235.5 965,-235.5"/>
<text text-anchor="middle" x="1030.5" y="-242.5" font-family="Helvetica,sans-Serif" font-size="10.00">gromacs/utility/arraysize.h</text>
</a>
</g>
</g>
<!-- Node1&#45;&gt;Node7 -->
<g id="edge7" class="edge"><title>Node1&#45;&gt;Node7</title>
<path fill="none" stroke="midnightblue" d="M551.298,-299.469C636.463,-290.383 802.587,-272.498 954.659,-255.086"/>
<polygon fill="midnightblue" stroke="midnightblue" points="955.118,-258.557 964.654,-253.94 954.321,-251.602 955.118,-258.557"/>
</g>
<!-- Node8 -->
<g id="node8" class="node"><title>Node8</title>
<g id="a_node8"><a xlink:href="cstringutil_8h.xhtml" target="_top" xlink:title="Generic C string handling functions. ">
<polygon fill="white" stroke="black" points="812.5,-235.5 812.5,-254.5 946.5,-254.5 946.5,-235.5 812.5,-235.5"/>
<text text-anchor="middle" x="879.5" y="-242.5" font-family="Helvetica,sans-Serif" font-size="10.00">gromacs/utility/cstringutil.h</text>
</a>
</g>
</g>
<!-- Node1&#45;&gt;Node8 -->
<g id="edge8" class="edge"><title>Node1&#45;&gt;Node8</title>
<path fill="none" stroke="midnightblue" d="M551.308,-296.721C621.428,-285.884 740.421,-267.494 814.228,-256.088"/>
<polygon fill="midnightblue" stroke="midnightblue" points="814.984,-259.512 824.332,-254.526 813.915,-252.594 814.984,-259.512"/>
</g>
<!-- Node13 -->
<g id="node13" class="node"><title>Node13</title>
<g id="a_node13"><a xlink:href="smalloc_8h.xhtml" target="_top" xlink:title="C memory allocation routines for GROMACS. ">
<polygon fill="white" stroke="black" points="656,-235.5 656,-254.5 781,-254.5 781,-235.5 656,-235.5"/>
<text text-anchor="middle" x="718.5" y="-242.5" font-family="Helvetica,sans-Serif" font-size="10.00">gromacs/utility/smalloc.h</text>
</a>
</g>
</g>
<!-- Node1&#45;&gt;Node13 -->
<g id="edge13" class="edge"><title>Node1&#45;&gt;Node13</title>
<path fill="none" stroke="midnightblue" d="M547.301,-291.475C586.79,-280.986 640.056,-266.837 676.629,-257.122"/>
<polygon fill="midnightblue" stroke="midnightblue" points="677.71,-260.456 686.476,-254.506 675.913,-253.691 677.71,-260.456"/>
</g>
<!-- Node15 -->
<g id="node15" class="node"><title>Node15</title>
<g id="a_node15"><a xlink:href="keywords_8h.xhtml" target="_top" xlink:title="Definitions of generic keyword evaluation structures. ">
<polygon fill="white" stroke="black" points="430,-235.5 430,-254.5 497,-254.5 497,-235.5 430,-235.5"/>
<text text-anchor="middle" x="463.5" y="-242.5" font-family="Helvetica,sans-Serif" font-size="10.00">keywords.h</text>
</a>
</g>
</g>
<!-- Node1&#45;&gt;Node15 -->
<g id="edge16" class="edge"><title>Node1&#45;&gt;Node15</title>
<path fill="none" stroke="midnightblue" d="M487.153,-291.399C482.835,-283.11 477.335,-272.554 472.726,-263.708"/>
<polygon fill="midnightblue" stroke="midnightblue" points="475.735,-261.909 468.011,-254.658 469.527,-265.144 475.735,-261.909"/>
</g>
<!-- Node23 -->
<g id="node23" class="node"><title>Node23</title>
<g id="a_node23"><a xlink:href="selelem_8h.xhtml" target="_top" xlink:title="Declares gmx::SelectionTreeElement and related things. ">
<polygon fill="white" stroke="black" points="490,-123.5 490,-142.5 549,-142.5 549,-123.5 490,-123.5"/>
<text text-anchor="middle" x="519.5" y="-130.5" font-family="Helvetica,sans-Serif" font-size="10.00">selelem.h</text>
</a>
</g>
</g>
<!-- Node1&#45;&gt;Node23 -->
<g id="edge40" class="edge"><title>Node1&#45;&gt;Node23</title>
<path fill="none" stroke="midnightblue" d="M497.959,-291.423C500.342,-281.333 503.439,-267.392 505.5,-255 511.494,-218.967 515.773,-176.471 517.922,-152.639"/>
<polygon fill="midnightblue" stroke="midnightblue" points="521.42,-152.816 518.805,-142.549 514.447,-152.206 521.42,-152.816"/>
</g>
<!-- Node26 -->
<g id="node26" class="node"><title>Node26</title>
<g id="a_node26"><a xlink:href="poscalc_8h.xhtml" target="_top" xlink:title="API for structured and optimized calculation of positions. ">
<polygon fill="white" stroke="black" points="606,-123.5 606,-142.5 665,-142.5 665,-123.5 606,-123.5"/>
<text text-anchor="middle" x="635.5" y="-130.5" font-family="Helvetica,sans-Serif" font-size="10.00">poscalc.h</text>
</a>
</g>
</g>
<!-- Node1&#45;&gt;Node26 -->
<g id="edge37" class="edge"><title>Node1&#45;&gt;Node26</title>
<path fill="none" stroke="midnightblue" d="M506.039,-291.465C531.88,-260.035 594.295,-184.118 621.936,-150.498"/>
<polygon fill="midnightblue" stroke="midnightblue" points="624.815,-152.507 628.463,-142.56 619.408,-148.061 624.815,-152.507"/>
</g>
<!-- Node27 -->
<g id="node27" class="node"><title>Node27</title>
<g id="a_node27"><a xlink:href="selmethod_8h.xhtml" target="_top" xlink:title="API for handling selection methods. ">
<polygon fill="white" stroke="black" points="226.5,-179.5 226.5,-198.5 296.5,-198.5 296.5,-179.5 226.5,-179.5"/>
<text text-anchor="middle" x="261.5" y="-186.5" font-family="Helvetica,sans-Serif" font-size="10.00">selmethod.h</text>
</a>
</g>
</g>
<!-- Node1&#45;&gt;Node27 -->
<g id="edge41" class="edge"><title>Node1&#45;&gt;Node27</title>
<path fill="none" stroke="midnightblue" d="M465.93,-291.337C420.401,-268.768 332.037,-224.966 287.908,-203.091"/>
<polygon fill="midnightblue" stroke="midnightblue" points="289.206,-199.828 278.692,-198.522 286.097,-206.1 289.206,-199.828"/>
</g>
<!-- Node4 -->
<g id="node4" class="node"><title>Node4</title>
<polygon fill="white" stroke="#bfbfbf" points="218,-0.5 218,-19.5 261,-19.5 261,-0.5 218,-0.5"/>
<text text-anchor="middle" x="239.5" y="-7.5" font-family="Helvetica,sans-Serif" font-size="10.00">cstdio</text>
</g>
<!-- Node3&#45;&gt;Node4 -->
<g id="edge3" class="edge"><title>Node3&#45;&gt;Node4</title>
<path fill="none" stroke="midnightblue" d="M160.681,-61.9751C175.574,-52.3431 200.044,-36.5175 217.773,-25.0517"/>
<polygon fill="midnightblue" stroke="midnightblue" points="219.847,-27.8787 226.343,-19.5091 216.045,-22.0008 219.847,-27.8787"/>
</g>
<!-- Node5 -->
<g id="node5" class="node"><title>Node5</title>
<polygon fill="white" stroke="#bfbfbf" points="127,-0.5 127,-19.5 168,-19.5 168,-0.5 127,-0.5"/>
<text text-anchor="middle" x="147.5" y="-7.5" font-family="Helvetica,sans-Serif" font-size="10.00">string</text>
</g>
<!-- Node3&#45;&gt;Node5 -->
<g id="edge4" class="edge"><title>Node3&#45;&gt;Node5</title>
<path fill="none" stroke="midnightblue" d="M147.5,-61.9751C147.5,-53.5803 147.5,-40.4806 147.5,-29.6631"/>
<polygon fill="midnightblue" stroke="midnightblue" points="151,-29.5091 147.5,-19.5091 144,-29.5091 151,-29.5091"/>
</g>
<!-- Node6&#45;&gt;Node3 -->
<g id="edge6" class="edge"><title>Node6&#45;&gt;Node3</title>
<path fill="none" stroke="midnightblue" d="M76.2875,-179.319C88.9408,-160.339 119.268,-114.848 135.975,-89.7882"/>
<polygon fill="midnightblue" stroke="midnightblue" points="139.01,-91.544 141.645,-81.282 133.186,-87.6611 139.01,-91.544"/>
</g>
<!-- Node9 -->
<g id="node9" class="node"><title>Node9</title>
<polygon fill="white" stroke="#bfbfbf" points="930.5,-179.5 930.5,-198.5 976.5,-198.5 976.5,-179.5 930.5,-179.5"/>
<text text-anchor="middle" x="953.5" y="-186.5" font-family="Helvetica,sans-Serif" font-size="10.00">stdio.h</text>
</g>
<!-- Node8&#45;&gt;Node9 -->
<g id="edge9" class="edge"><title>Node8&#45;&gt;Node9</title>
<path fill="none" stroke="midnightblue" d="M891.389,-235.324C902.65,-227.107 919.787,-214.602 933.209,-204.807"/>
<polygon fill="midnightblue" stroke="midnightblue" points="935.38,-207.556 941.394,-198.834 931.253,-201.901 935.38,-207.556"/>
</g>
<!-- Node10 -->
<g id="node10" class="node"><title>Node10</title>
<g id="a_node10"><a xlink:href="basedefinitions_8h.xhtml" target="_top" xlink:title="Basic types and macros used throughout GROMACS. ">
<polygon fill="white" stroke="black" points="858,-62 858,-81 1015,-81 1015,-62 858,-62"/>
<text text-anchor="middle" x="936.5" y="-69" font-family="Helvetica,sans-Serif" font-size="10.00">gromacs/utility/basedefinitions.h</text>
</a>
</g>
</g>
<!-- Node8&#45;&gt;Node10 -->
<g id="edge10" class="edge"><title>Node8&#45;&gt;Node10</title>
<path fill="none" stroke="midnightblue" d="M882.405,-235.26C891.287,-208.536 918.214,-127.517 930.397,-90.8618"/>
<polygon fill="midnightblue" stroke="midnightblue" points="933.836,-91.6129 933.668,-81.0194 927.193,-89.405 933.836,-91.6129"/>
</g>
<!-- Node11 -->
<g id="node11" class="node"><title>Node11</title>
<polygon fill="white" stroke="#bfbfbf" points="876,-0.5 876,-19.5 925,-19.5 925,-0.5 876,-0.5"/>
<text text-anchor="middle" x="900.5" y="-7.5" font-family="Helvetica,sans-Serif" font-size="10.00">stdint.h</text>
</g>
<!-- Node10&#45;&gt;Node11 -->
<g id="edge11" class="edge"><title>Node10&#45;&gt;Node11</title>
<path fill="none" stroke="midnightblue" d="M931.342,-61.9751C926.049,-53.2268 917.665,-39.3691 910.973,-28.3093"/>
<polygon fill="midnightblue" stroke="midnightblue" points="913.82,-26.2531 905.648,-19.5091 907.83,-29.8768 913.82,-26.2531"/>
</g>
<!-- Node12 -->
<g id="node12" class="node"><title>Node12</title>
<polygon fill="white" stroke="#bfbfbf" points="943,-0.5 943,-19.5 1002,-19.5 1002,-0.5 943,-0.5"/>
<text text-anchor="middle" x="972.5" y="-7.5" font-family="Helvetica,sans-Serif" font-size="10.00">inttypes.h</text>
</g>
<!-- Node10&#45;&gt;Node12 -->
<g id="edge12" class="edge"><title>Node10&#45;&gt;Node12</title>
<path fill="none" stroke="midnightblue" d="M941.658,-61.9751C946.951,-53.2268 955.335,-39.3691 962.027,-28.3093"/>
<polygon fill="midnightblue" stroke="midnightblue" points="965.17,-29.8768 967.352,-19.5091 959.18,-26.2531 965.17,-29.8768"/>
</g>
<!-- Node13&#45;&gt;Node10 -->
<g id="edge15" class="edge"><title>Node13&#45;&gt;Node10</title>
<path fill="none" stroke="midnightblue" d="M729.311,-235.495C764.106,-208.122 873.493,-122.067 917.694,-87.2943"/>
<polygon fill="midnightblue" stroke="midnightblue" points="919.929,-89.9899 925.624,-81.056 915.601,-84.4883 919.929,-89.9899"/>
</g>
<!-- Node14 -->
<g id="node14" class="node"><title>Node14</title>
<polygon fill="white" stroke="#bfbfbf" points="692.5,-179.5 692.5,-198.5 744.5,-198.5 744.5,-179.5 692.5,-179.5"/>
<text text-anchor="middle" x="718.5" y="-186.5" font-family="Helvetica,sans-Serif" font-size="10.00">stddef.h</text>
</g>
<!-- Node13&#45;&gt;Node14 -->
<g id="edge14" class="edge"><title>Node13&#45;&gt;Node14</title>
<path fill="none" stroke="midnightblue" d="M718.5,-235.083C718.5,-228.006 718.5,-217.861 718.5,-208.986"/>
<polygon fill="midnightblue" stroke="midnightblue" points="722,-208.751 718.5,-198.751 715,-208.751 722,-208.751"/>
</g>
<!-- Node16 -->
<g id="node16" class="node"><title>Node16</title>
<g id="a_node16"><a xlink:href="parsetree_8h.xhtml" target="_top" xlink:title="Handling of intermediate selection parser data. ">
<polygon fill="white" stroke="black" points="394,-179.5 394,-198.5 459,-198.5 459,-179.5 394,-179.5"/>
<text text-anchor="middle" x="426.5" y="-186.5" font-family="Helvetica,sans-Serif" font-size="10.00">parsetree.h</text>
</a>
</g>
</g>
<!-- Node15&#45;&gt;Node16 -->
<g id="edge17" class="edge"><title>Node15&#45;&gt;Node16</title>
<path fill="none" stroke="midnightblue" d="M457.39,-235.083C452.218,-227.534 444.654,-216.495 438.306,-207.23"/>
<polygon fill="midnightblue" stroke="midnightblue" points="441.036,-205.022 432.496,-198.751 435.261,-208.979 441.036,-205.022"/>
</g>
<!-- Node15&#45;&gt;Node23 -->
<g id="edge36" class="edge"><title>Node15&#45;&gt;Node23</title>
<path fill="none" stroke="midnightblue" d="M467.894,-235.368C477.054,-217.376 498.347,-175.55 510.526,-151.627"/>
<polygon fill="midnightblue" stroke="midnightblue" points="513.708,-153.091 515.126,-142.591 507.47,-149.915 513.708,-153.091"/>
</g>
<!-- Node16&#45;&gt;Node5 -->
<g id="edge21" class="edge"><title>Node16&#45;&gt;Node5</title>
<path fill="none" stroke="midnightblue" d="M393.711,-186.488C342.149,-183.238 239.628,-173.22 158.5,-143 113.643,-126.291 89.9518,-128.73 66.5,-87 59.7499,-74.989 59.5129,-67.8747 66.5,-56 77.3758,-37.5164 98.8902,-26.0803 117.014,-19.3642"/>
<polygon fill="midnightblue" stroke="midnightblue" points="118.295,-22.6257 126.644,-16.1038 116.05,-15.9953 118.295,-22.6257"/>
</g>
<!-- Node17 -->
<g id="node17" class="node"><title>Node17</title>
<polygon fill="white" stroke="#bfbfbf" points="366,-123.5 366,-142.5 425,-142.5 425,-123.5 366,-123.5"/>
<text text-anchor="middle" x="395.5" y="-130.5" font-family="Helvetica,sans-Serif" font-size="10.00">exception</text>
</g>
<!-- Node16&#45;&gt;Node17 -->
<g id="edge18" class="edge"><title>Node16&#45;&gt;Node17</title>
<path fill="none" stroke="midnightblue" d="M421.381,-179.083C417.092,-171.613 410.842,-160.724 405.558,-151.52"/>
<polygon fill="midnightblue" stroke="midnightblue" points="408.538,-149.681 400.524,-142.751 402.467,-153.166 408.538,-149.681"/>
</g>
<!-- Node18 -->
<g id="node18" class="node"><title>Node18</title>
<polygon fill="white" stroke="#bfbfbf" points="443,-123.5 443,-142.5 472,-142.5 472,-123.5 443,-123.5"/>
<text text-anchor="middle" x="457.5" y="-130.5" font-family="Helvetica,sans-Serif" font-size="10.00">list</text>
</g>
<!-- Node16&#45;&gt;Node18 -->
<g id="edge19" class="edge"><title>Node16&#45;&gt;Node18</title>
<path fill="none" stroke="midnightblue" d="M431.619,-179.083C435.908,-171.613 442.158,-160.724 447.442,-151.52"/>
<polygon fill="midnightblue" stroke="midnightblue" points="450.533,-153.166 452.476,-142.751 444.462,-149.681 450.533,-153.166"/>
</g>
<!-- Node19 -->
<g id="node19" class="node"><title>Node19</title>
<polygon fill="white" stroke="#bfbfbf" points="470.5,-0.5 470.5,-19.5 522.5,-19.5 522.5,-0.5 470.5,-0.5"/>
<text text-anchor="middle" x="496.5" y="-7.5" font-family="Helvetica,sans-Serif" font-size="10.00">memory</text>
</g>
<!-- Node16&#45;&gt;Node19 -->
<g id="edge20" class="edge"><title>Node16&#45;&gt;Node19</title>
<path fill="none" stroke="midnightblue" d="M459.102,-186.918C490.131,-183.942 535.285,-174.12 557.5,-143 571.524,-123.355 530.564,-59.4106 508.936,-28.3061"/>
<polygon fill="midnightblue" stroke="midnightblue" points="511.552,-25.9441 502.926,-19.7927 505.834,-29.9808 511.552,-25.9441"/>
</g>
<!-- Node20 -->
<g id="node20" class="node"><title>Node20</title>
<g id="a_node20"><a xlink:href="gmxassert_8h.xhtml" target="_top" xlink:title="Defines assert macros customized for Gromacs. ">
<polygon fill="white" stroke="black" points="699,-123.5 699,-142.5 836,-142.5 836,-123.5 699,-123.5"/>
<text text-anchor="middle" x="767.5" y="-130.5" font-family="Helvetica,sans-Serif" font-size="10.00">gromacs/utility/gmxassert.h</text>
</a>
</g>
</g>
<!-- Node16&#45;&gt;Node20 -->
<g id="edge22" class="edge"><title>Node16&#45;&gt;Node20</title>
<path fill="none" stroke="midnightblue" d="M459.197,-182.822C515.398,-173.922 631.264,-155.574 703.85,-144.08"/>
<polygon fill="midnightblue" stroke="midnightblue" points="704.464,-147.526 713.794,-142.505 703.369,-140.612 704.464,-147.526"/>
</g>
<!-- Node22 -->
<g id="node22" class="node"><title>Node22</title>
<g id="a_node22"><a xlink:href="real_8h.xhtml" target="_top" xlink:title="Declares real and related constants. ">
<polygon fill="white" stroke="black" points="311,-0.5 311,-19.5 418,-19.5 418,-0.5 311,-0.5"/>
<text text-anchor="middle" x="364.5" y="-7.5" font-family="Helvetica,sans-Serif" font-size="10.00">gromacs/utility/real.h</text>
</a>
</g>
</g>
<!-- Node16&#45;&gt;Node22 -->
<g id="edge25" class="edge"><title>Node16&#45;&gt;Node22</title>
<path fill="none" stroke="midnightblue" d="M402.031,-179.438C385.933,-172.378 366.123,-160.626 356.5,-143 336.678,-106.693 348.721,-56.106 357.593,-29.3249"/>
<polygon fill="midnightblue" stroke="midnightblue" points="360.959,-30.3054 360.989,-19.7106 354.358,-27.9744 360.959,-30.3054"/>
</g>
<!-- Node16&#45;&gt;Node23 -->
<g id="edge26" class="edge"><title>Node16&#45;&gt;Node23</title>
<path fill="none" stroke="midnightblue" d="M441.442,-179.324C456.085,-170.822 478.634,-157.729 495.738,-147.797"/>
<polygon fill="midnightblue" stroke="midnightblue" points="497.705,-150.703 504.595,-142.655 494.19,-144.649 497.705,-150.703"/>
</g>
<!-- Node25 -->
<g id="node25" class="node"><title>Node25</title>
<g id="a_node25"><a xlink:href="selvalue_8h.xhtml" target="_top" xlink:title="Declares gmx_ana_selvalue_t. ">
<polygon fill="white" stroke="black" points="237,-62 237,-81 298,-81 298,-62 237,-62"/>
<text text-anchor="middle" x="267.5" y="-69" font-family="Helvetica,sans-Serif" font-size="10.00">selvalue.h</text>
</a>
</g>
</g>
<!-- Node16&#45;&gt;Node25 -->
<g id="edge35" class="edge"><title>Node16&#45;&gt;Node25</title>
<path fill="none" stroke="midnightblue" d="M396.94,-179.382C375.165,-172.062 345.618,-160.014 323.5,-143 304.417,-128.32 288.024,-105.783 277.993,-90.1579"/>
<polygon fill="midnightblue" stroke="midnightblue" points="280.844,-88.1129 272.602,-81.4546 274.893,-91.7989 280.844,-88.1129"/>
</g>
<!-- Node20&#45;&gt;Node10 -->
<g id="edge23" class="edge"><title>Node20&#45;&gt;Node10</title>
<path fill="none" stroke="midnightblue" d="M791.714,-123.475C820.829,-113.225 869.868,-95.9593 902.702,-84.3994"/>
<polygon fill="midnightblue" stroke="midnightblue" points="904.061,-87.6314 912.331,-81.0091 901.737,-81.0287 904.061,-87.6314"/>
</g>
<!-- Node21 -->
<g id="node21" class="node"><title>Node21</title>
<g id="a_node21"><a xlink:href="current__function_8h.xhtml" target="_top" xlink:title="Declares GMX_CURRENT_FUNCTION for getting the current function name. ">
<polygon fill="white" stroke="black" points="727,-56.5 727,-86.5 840,-86.5 840,-56.5 727,-56.5"/>
<text text-anchor="start" x="735" y="-74.5" font-family="Helvetica,sans-Serif" font-size="10.00">gromacs/utility/current</text>
<text text-anchor="middle" x="783.5" y="-63.5" font-family="Helvetica,sans-Serif" font-size="10.00">_function.h</text>
</a>
</g>
</g>
<!-- Node20&#45;&gt;Node21 -->
<g id="edge24" class="edge"><title>Node20&#45;&gt;Node21</title>
<path fill="none" stroke="midnightblue" d="M769.792,-123.475C771.696,-116.396 774.5,-105.97 777.076,-96.3896"/>
<polygon fill="midnightblue" stroke="midnightblue" points="780.512,-97.0888 779.729,-86.523 773.752,-95.271 780.512,-97.0888"/>
</g>
<!-- Node23&#45;&gt;Node3 -->
<g id="edge29" class="edge"><title>Node23&#45;&gt;Node3</title>
<path fill="none" stroke="midnightblue" d="M489.744,-124.858C486.63,-124.193 483.506,-123.56 480.5,-123 368.842,-102.212 339.621,-105.131 227.5,-87 219.476,-85.7024 211.014,-84.2549 202.717,-82.7905"/>
<polygon fill="midnightblue" stroke="midnightblue" points="203.178,-79.3176 192.718,-81.005 201.947,-86.2086 203.178,-79.3176"/>
</g>
<!-- Node23&#45;&gt;Node5 -->
<g id="edge28" class="edge"><title>Node23&#45;&gt;Node5</title>
<path fill="none" stroke="midnightblue" d="M496.973,-123.4C458.29,-108.76 376.625,-78.4062 306.5,-56 262.114,-41.818 210.047,-27.5175 177.912,-18.9577"/>
<polygon fill="midnightblue" stroke="midnightblue" points="178.777,-15.5662 168.214,-16.3877 176.984,-22.3326 178.777,-15.5662"/>
</g>
<!-- Node23&#45;&gt;Node19 -->
<g id="edge27" class="edge"><title>Node23&#45;&gt;Node19</title>
<path fill="none" stroke="midnightblue" d="M509.062,-123.245C500.076,-114.969 487.754,-101.663 482.5,-87 475.661,-67.9128 481.775,-44.8758 487.933,-29.2041"/>
<polygon fill="midnightblue" stroke="midnightblue" points="491.298,-30.2388 492.044,-19.6702 484.87,-27.4669 491.298,-30.2388"/>
</g>
<!-- Node23&#45;&gt;Node22 -->
<g id="edge32" class="edge"><title>Node23&#45;&gt;Node22</title>
<path fill="none" stroke="midnightblue" d="M508.353,-123.298C482.1,-102.804 416.139,-51.312 383.458,-25.7996"/>
<polygon fill="midnightblue" stroke="midnightblue" points="385.583,-23.0178 375.546,-19.6232 381.275,-28.5356 385.583,-23.0178"/>
</g>
<!-- Node24 -->
<g id="node24" class="node"><title>Node24</title>
<g id="a_node24"><a xlink:href="classhelpers_8h.xhtml" target="_top" xlink:title="Declares common utility classes and macros. ">
<polygon fill="white" stroke="black" points="562.5,-62 562.5,-81 708.5,-81 708.5,-62 562.5,-62"/>
<text text-anchor="middle" x="635.5" y="-69" font-family="Helvetica,sans-Serif" font-size="10.00">gromacs/utility/classhelpers.h</text>
</a>
</g>
</g>
<!-- Node23&#45;&gt;Node24 -->
<g id="edge30" class="edge"><title>Node23&#45;&gt;Node24</title>
<path fill="none" stroke="midnightblue" d="M536.12,-123.475C555.415,-113.578 587.459,-97.1416 609.931,-85.6151"/>
<polygon fill="midnightblue" stroke="midnightblue" points="611.61,-88.6873 618.911,-81.0091 608.416,-82.4589 611.61,-88.6873"/>
</g>
<!-- Node23&#45;&gt;Node25 -->
<g id="edge33" class="edge"><title>Node23&#45;&gt;Node25</title>
<path fill="none" stroke="midnightblue" d="M489.7,-125.072C486.595,-124.366 483.484,-123.664 480.5,-123 405.961,-106.414 386.268,-106.735 312.5,-87 309.147,-86.1031 305.675,-85.1069 302.213,-84.0687"/>
<polygon fill="midnightblue" stroke="midnightblue" points="303.184,-80.7053 292.596,-81.0792 301.106,-87.3898 303.184,-80.7053"/>
</g>
<!-- Node24&#45;&gt;Node19 -->
<g id="edge31" class="edge"><title>Node24&#45;&gt;Node19</title>
<path fill="none" stroke="midnightblue" d="M615.585,-61.9751C592.051,-51.9013 552.69,-35.0525 525.707,-23.5023"/>
<polygon fill="midnightblue" stroke="midnightblue" points="526.949,-20.2267 516.378,-19.5091 524.194,-26.662 526.949,-20.2267"/>
</g>
<!-- Node25&#45;&gt;Node22 -->
<g id="edge34" class="edge"><title>Node25&#45;&gt;Node22</title>
<path fill="none" stroke="midnightblue" d="M281.398,-61.9751C297.172,-52.2989 323.137,-36.3721 341.849,-24.8941"/>
<polygon fill="midnightblue" stroke="midnightblue" points="343.934,-27.7213 350.628,-19.5091 340.274,-21.7544 343.934,-27.7213"/>
</g>
<!-- Node26&#45;&gt;Node4 -->
<g id="edge38" class="edge"><title>Node26&#45;&gt;Node4</title>
<path fill="none" stroke="midnightblue" d="M607.654,-123.492C536.194,-101.656 346.649,-43.74 271.166,-20.6757"/>
<polygon fill="midnightblue" stroke="midnightblue" points="271.882,-17.2349 261.296,-17.6599 269.837,-23.9294 271.882,-17.2349"/>
</g>
<!-- Node26&#45;&gt;Node24 -->
<g id="edge39" class="edge"><title>Node26&#45;&gt;Node24</title>
<path fill="none" stroke="midnightblue" d="M635.5,-123.475C635.5,-115.08 635.5,-101.981 635.5,-91.1631"/>
<polygon fill="midnightblue" stroke="midnightblue" points="639,-91.0091 635.5,-81.0091 632,-91.0091 639,-91.0091"/>
</g>
<!-- Node27&#45;&gt;Node25 -->
<g id="edge45" class="edge"><title>Node27&#45;&gt;Node25</title>
<path fill="none" stroke="midnightblue" d="M261.951,-179.319C262.915,-160.757 265.197,-116.839 266.514,-91.4734"/>
<polygon fill="midnightblue" stroke="midnightblue" points="270.02,-91.4502 267.044,-81.282 263.03,-91.0869 270.02,-91.4502"/>
</g>
<!-- Node28 -->
<g id="node28" class="node"><title>Node28</title>
<g id="a_node28"><a xlink:href="selparam_8h.xhtml" target="_top" xlink:title="API for handling parameters used in selections. ">
<polygon fill="white" stroke="black" points="168,-123.5 168,-142.5 233,-142.5 233,-123.5 168,-123.5"/>
<text text-anchor="middle" x="200.5" y="-130.5" font-family="Helvetica,sans-Serif" font-size="10.00">selparam.h</text>
</a>
</g>
</g>
<!-- Node27&#45;&gt;Node28 -->
<g id="edge42" class="edge"><title>Node27&#45;&gt;Node28</title>
<path fill="none" stroke="midnightblue" d="M251.699,-179.324C242.682,-171.341 229.094,-159.313 218.182,-149.653"/>
<polygon fill="midnightblue" stroke="midnightblue" points="220.287,-146.842 210.479,-142.834 215.647,-152.083 220.287,-146.842"/>
</g>
<!-- Node28&#45;&gt;Node3 -->
<g id="edge43" class="edge"><title>Node28&#45;&gt;Node3</title>
<path fill="none" stroke="midnightblue" d="M192.906,-123.475C184.799,-114.373 171.765,-99.741 161.737,-88.483"/>
<polygon fill="midnightblue" stroke="midnightblue" points="164.344,-86.1483 155.08,-81.0091 159.117,-90.8043 164.344,-86.1483"/>
</g>
<!-- Node28&#45;&gt;Node25 -->
<g id="edge44" class="edge"><title>Node28&#45;&gt;Node25</title>
<path fill="none" stroke="midnightblue" d="M210.099,-123.475C220.548,-114.197 237.468,-99.1706 250.236,-87.831"/>
<polygon fill="midnightblue" stroke="midnightblue" points="252.765,-90.2663 257.918,-81.0091 248.117,-85.0323 252.765,-90.2663"/>
</g>
</g>
</svg>
