<?xml version="1.0" encoding="UTF-8" standalone="no"?>
<!DOCTYPE svg PUBLIC "-//W3C//DTD SVG 1.1//EN"
 "http://www.w3.org/Graphics/SVG/1.1/DTD/svg11.dtd">
<!-- Generated by graphviz version 2.38.0 (20140413.2041)
 -->
<!-- Title: src/gromacs/utility/smalloc.h Pages: 1 -->
<svg width="236pt" height="151pt"
 viewBox="0.00 0.00 235.50 151.00" xmlns="http://www.w3.org/2000/svg" xmlns:xlink="http://www.w3.org/1999/xlink">
<g id="graph0" class="graph" transform="scale(1 1) rotate(0) translate(4 147)">
<title>src/gromacs/utility/smalloc.h</title>
<polygon fill="white" stroke="none" points="-4,4 -4,-147 231.5,-147 231.5,4 -4,4"/>
<!-- Node1 -->
<g id="node1" class="node"><title>Node1</title>
<polygon fill="#bfbfbf" stroke="black" points="38.5,-112.5 38.5,-142.5 135.5,-142.5 135.5,-112.5 38.5,-112.5"/>
<text text-anchor="start" x="46.5" y="-130.5" font-family="Helvetica,sans-Serif" font-size="10.00">src/gromacs/utility</text>
<text text-anchor="middle" x="87" y="-119.5" font-family="Helvetica,sans-Serif" font-size="10.00">/smalloc.h</text>
</g>
<!-- Node2 -->
<g id="node2" class="node"><title>Node2</title>
<polygon fill="white" stroke="#bfbfbf" points="0,-56.5 0,-75.5 52,-75.5 52,-56.5 0,-56.5"/>
<text text-anchor="middle" x="26" y="-63.5" font-family="Helvetica,sans-Serif" font-size="10.00">stddef.h</text>
</g>
<!-- Node1&#45;&gt;Node2 -->
<g id="edge1" class="edge"><title>Node1&#45;&gt;Node2</title>
<path fill="none" stroke="midnightblue" d="M72.5439,-112.399C63.4057,-103.486 51.5814,-91.9523 42.1376,-82.7408"/>
<polygon fill="midnightblue" stroke="midnightblue" points="44.4785,-80.1348 34.876,-75.6578 39.5907,-85.1458 44.4785,-80.1348"/>
</g>
<!-- Node3 -->
<g id="node3" class="node"><title>Node3</title>
<g id="a_node3"><a xlink:href="basedefinitions_8h.xhtml" target="_top" xlink:title="Basic types and macros used throughout GROMACS. ">
<polygon fill="white" stroke="black" points="70.5,-56.5 70.5,-75.5 227.5,-75.5 227.5,-56.5 70.5,-56.5"/>
<text text-anchor="middle" x="149" y="-63.5" font-family="Helvetica,sans-Serif" font-size="10.00">gromacs/utility/basedefinitions.h</text>
</a>
</g>
</g>
<!-- Node1&#45;&gt;Node3 -->
<g id="edge2" class="edge"><title>Node1&#45;&gt;Node3</title>
<path fill="none" stroke="midnightblue" d="M101.693,-112.399C110.981,-103.486 122.999,-91.9523 132.598,-82.7408"/>
<polygon fill="midnightblue" stroke="midnightblue" points="135.187,-85.1072 139.978,-75.6578 130.34,-80.0566 135.187,-85.1072"/>
</g>
<!-- Node4 -->
<g id="node4" class="node"><title>Node4</title>
<polygon fill="white" stroke="#bfbfbf" points="88.5,-0.5 88.5,-19.5 137.5,-19.5 137.5,-0.5 88.5,-0.5"/>
<text text-anchor="middle" x="113" y="-7.5" font-family="Helvetica,sans-Serif" font-size="10.00">stdint.h</text>
</g>
<!-- Node3&#45;&gt;Node4 -->
<g id="edge3" class="edge"><title>Node3&#45;&gt;Node4</title>
<path fill="none" stroke="midnightblue" d="M143.055,-56.083C138.023,-48.5341 130.663,-37.4948 124.487,-28.2298"/>
<polygon fill="midnightblue" stroke="midnightblue" points="127.293,-26.1301 118.834,-19.7511 121.469,-30.0131 127.293,-26.1301"/>
</g>
<!-- Node5 -->
<g id="node5" class="node"><title>Node5</title>
<polygon fill="white" stroke="#bfbfbf" points="155.5,-0.5 155.5,-19.5 214.5,-19.5 214.5,-0.5 155.5,-0.5"/>
<text text-anchor="middle" x="185" y="-7.5" font-family="Helvetica,sans-Serif" font-size="10.00">inttypes.h</text>
</g>
<!-- Node3&#45;&gt;Node5 -->
<g id="edge4" class="edge"><title>Node3&#45;&gt;Node5</title>
<path fill="none" stroke="midnightblue" d="M154.945,-56.083C159.977,-48.5341 167.337,-37.4948 173.513,-28.2298"/>
<polygon fill="midnightblue" stroke="midnightblue" points="176.531,-30.0131 179.166,-19.7511 170.707,-26.1301 176.531,-30.0131"/>
</g>
</g>
</svg>
