<?xml version="1.0" encoding="UTF-8" standalone="no"?>
<!DOCTYPE svg PUBLIC "-//W3C//DTD SVG 1.1//EN"
 "http://www.w3.org/Graphics/SVG/1.1/DTD/svg11.dtd">
<!-- Generated by graphviz version 2.38.0 (20140413.2041)
 -->
<!-- Title: src/gromacs/utility/snprintf.h Pages: 1 -->
<svg width="124pt" height="95pt"
 viewBox="0.00 0.00 123.50 95.00" xmlns="http://www.w3.org/2000/svg" xmlns:xlink="http://www.w3.org/1999/xlink">
<g id="graph0" class="graph" transform="scale(1 1) rotate(0) translate(4 91)">
<title>src/gromacs/utility/snprintf.h</title>
<polygon fill="white" stroke="none" points="-4,4 -4,-91 119.5,-91 119.5,4 -4,4"/>
<!-- Node1 -->
<g id="node1" class="node"><title>Node1</title>
<polygon fill="#bfbfbf" stroke="black" points="10,-56.5 10,-86.5 107,-86.5 107,-56.5 10,-56.5"/>
<text text-anchor="start" x="18" y="-74.5" font-family="Helvetica,sans-Serif" font-size="10.00">src/gromacs/utility</text>
<text text-anchor="middle" x="58.5" y="-63.5" font-family="Helvetica,sans-Serif" font-size="10.00">/snprintf.h</text>
</g>
<!-- Node2 -->
<g id="node2" class="node"><title>Node2</title>
<polygon fill="white" stroke="#bfbfbf" points="0,-0.5 0,-19.5 51,-19.5 51,-0.5 0,-0.5"/>
<text text-anchor="middle" x="25.5" y="-7.5" font-family="Helvetica,sans-Serif" font-size="10.00">config.h</text>
</g>
<!-- Node1&#45;&gt;Node2 -->
<g id="edge1" class="edge"><title>Node1&#45;&gt;Node2</title>
<path fill="none" stroke="midnightblue" d="M50.6795,-56.3993C46.0325,-48.0207 40.1015,-37.3269 35.1631,-28.4229"/>
<polygon fill="midnightblue" stroke="midnightblue" points="38.2128,-26.7052 30.3018,-19.6578 32.0913,-30.1004 38.2128,-26.7052"/>
</g>
<!-- Node3 -->
<g id="node3" class="node"><title>Node3</title>
<polygon fill="white" stroke="#bfbfbf" points="69.5,-0.5 69.5,-19.5 115.5,-19.5 115.5,-0.5 69.5,-0.5"/>
<text text-anchor="middle" x="92.5" y="-7.5" font-family="Helvetica,sans-Serif" font-size="10.00">stdio.h</text>
</g>
<!-- Node1&#45;&gt;Node3 -->
<g id="edge2" class="edge"><title>Node1&#45;&gt;Node3</title>
<path fill="none" stroke="midnightblue" d="M66.5575,-56.3993C71.3453,-48.0207 77.4561,-37.3269 82.5441,-28.4229"/>
<polygon fill="midnightblue" stroke="midnightblue" points="85.6301,-30.0767 87.5527,-19.6578 79.5524,-26.6037 85.6301,-30.0767"/>
</g>
</g>
</svg>
