<?xml version="1.0" encoding="UTF-8" standalone="no"?>
<!DOCTYPE svg PUBLIC "-//W3C//DTD SVG 1.1//EN"
 "http://www.w3.org/Graphics/SVG/1.1/DTD/svg11.dtd">
<!-- Generated by graphviz version 2.38.0 (20140413.2041)
 -->
<!-- Title: src/testutils/stringtest.h Pages: 1 -->
<svg width="1775pt" height="162pt"
 viewBox="0.00 0.00 1774.50 162.00" xmlns="http://www.w3.org/2000/svg" xmlns:xlink="http://www.w3.org/1999/xlink">
<g id="graph0" class="graph" transform="scale(1 1) rotate(0) translate(4 158)">
<title>src/testutils/stringtest.h</title>
<polygon fill="white" stroke="none" points="-4,4 -4,-158 1770.5,-158 1770.5,4 -4,4"/>
<!-- Node1 -->
<g id="node1" class="node"><title>Node1</title>
<polygon fill="#bfbfbf" stroke="black" points="902.5,-134.5 902.5,-153.5 1021.5,-153.5 1021.5,-134.5 902.5,-134.5"/>
<text text-anchor="middle" x="962" y="-141.5" font-family="Helvetica,sans-Serif" font-size="10.00">src/testutils/stringtest.h</text>
</g>
<!-- Node2 -->
<g id="node2" class="node"><title>Node2</title>
<g id="a_node2"><a xlink:href="cmdlinemodulemanagertest_8h.xhtml" target="_top" xlink:title="Test fixture and helper classes for tests using gmx::CommandLineModuleManager. ">
<polygon fill="white" stroke="black" points="161,-67.5 161,-97.5 333,-97.5 333,-67.5 161,-67.5"/>
<text text-anchor="start" x="169" y="-85.5" font-family="Helvetica,sans-Serif" font-size="10.00">src/gromacs/commandline</text>
<text text-anchor="middle" x="247" y="-74.5" font-family="Helvetica,sans-Serif" font-size="10.00">/tests/cmdlinemodulemanagertest.h</text>
</a>
</g>
</g>
<!-- Node1&#45;&gt;Node2 -->
<g id="edge1" class="edge"><title>Node1&#45;&gt;Node2</title>
<path fill="none" stroke="midnightblue" d="M892.038,-139.68C777.175,-133.834 541.536,-120.177 343,-98 339.733,-97.6351 336.408,-97.2417 333.05,-96.8262"/>
<polygon fill="midnightblue" stroke="midnightblue" points="891.94,-143.18 902.104,-140.188 892.293,-136.189 891.94,-143.18"/>
</g>
<!-- Node6 -->
<g id="node6" class="node"><title>Node6</title>
<g id="a_node6"><a xlink:href="tests_2cmdlinehelpwriter_8cpp.xhtml" target="_top" xlink:title="Tests gmx::CommandLineHelpWriter. ">
<polygon fill="white" stroke="black" points="351.5,-67.5 351.5,-97.5 490.5,-97.5 490.5,-67.5 351.5,-67.5"/>
<text text-anchor="start" x="359.5" y="-85.5" font-family="Helvetica,sans-Serif" font-size="10.00">src/gromacs/commandline</text>
<text text-anchor="middle" x="421" y="-74.5" font-family="Helvetica,sans-Serif" font-size="10.00">/tests/cmdlinehelpwriter.cpp</text>
</a>
</g>
</g>
<!-- Node1&#45;&gt;Node6 -->
<g id="edge5" class="edge"><title>Node1&#45;&gt;Node6</title>
<path fill="none" stroke="midnightblue" d="M892.219,-138.048C801.568,-131.193 638.514,-117.422 500,-98 496.962,-97.574 493.863,-97.1142 490.735,-96.6294"/>
<polygon fill="midnightblue" stroke="midnightblue" points="892.138,-141.552 902.372,-138.81 892.661,-134.571 892.138,-141.552"/>
</g>
<!-- Node7 -->
<g id="node7" class="node"><title>Node7</title>
<g id="a_node7"><a xlink:href="tests_2confio_8cpp.xhtml" target="_top" xlink:title="Tests for reading/writing different structure file formats. ">
<polygon fill="white" stroke="black" points="509,-67.5 509,-97.5 603,-97.5 603,-67.5 509,-67.5"/>
<text text-anchor="start" x="517" y="-85.5" font-family="Helvetica,sans-Serif" font-size="10.00">src/gromacs/fileio</text>
<text text-anchor="middle" x="556" y="-74.5" font-family="Helvetica,sans-Serif" font-size="10.00">/tests/confio.cpp</text>
</a>
</g>
</g>
<!-- Node1&#45;&gt;Node7 -->
<g id="edge6" class="edge"><title>Node1&#45;&gt;Node7</title>
<path fill="none" stroke="midnightblue" d="M892.245,-136.513C821.513,-129.348 709.087,-116.347 613,-98 609.79,-97.3872 606.493,-96.701 603.179,-95.9694"/>
<polygon fill="midnightblue" stroke="midnightblue" points="892.073,-140.013 902.372,-137.527 892.77,-133.048 892.073,-140.013"/>
</g>
<!-- Node8 -->
<g id="node8" class="node"><title>Node8</title>
<g id="a_node8"><a xlink:href="tests_2helpformat_8cpp.xhtml" target="_top" xlink:title="Tests for help string formatting functions and classes. ">
<polygon fill="white" stroke="black" points="621.5,-67.5 621.5,-97.5 738.5,-97.5 738.5,-67.5 621.5,-67.5"/>
<text text-anchor="start" x="629.5" y="-85.5" font-family="Helvetica,sans-Serif" font-size="10.00">src/gromacs/onlinehelp</text>
<text text-anchor="middle" x="680" y="-74.5" font-family="Helvetica,sans-Serif" font-size="10.00">/tests/helpformat.cpp</text>
</a>
</g>
</g>
<!-- Node1&#45;&gt;Node8 -->
<g id="edge7" class="edge"><title>Node1&#45;&gt;Node8</title>
<path fill="none" stroke="midnightblue" d="M911.35,-132.391C867.982,-123.298 803.876,-109.832 748,-98 744.93,-97.3498 741.782,-96.6822 738.603,-96.0072"/>
<polygon fill="midnightblue" stroke="midnightblue" points="910.86,-135.865 921.366,-134.491 912.297,-129.014 910.86,-135.865"/>
</g>
<!-- Node9 -->
<g id="node9" class="node"><title>Node9</title>
<g id="a_node9"><a xlink:href="tests_2helpmanager_8cpp.xhtml" target="_top" xlink:title="Tests for help topic management and help topic formatting. ">
<polygon fill="white" stroke="black" points="756.5,-67.5 756.5,-97.5 875.5,-97.5 875.5,-67.5 756.5,-67.5"/>
<text text-anchor="start" x="764.5" y="-85.5" font-family="Helvetica,sans-Serif" font-size="10.00">src/gromacs/onlinehelp</text>
<text text-anchor="middle" x="816" y="-74.5" font-family="Helvetica,sans-Serif" font-size="10.00">/tests/helpmanager.cpp</text>
</a>
</g>
</g>
<!-- Node1&#45;&gt;Node9 -->
<g id="edge8" class="edge"><title>Node1&#45;&gt;Node9</title>
<path fill="none" stroke="midnightblue" d="M931.548,-130.59C907.876,-120.942 875.032,-107.558 850.409,-97.523"/>
<polygon fill="midnightblue" stroke="midnightblue" points="930.5,-133.942 941.082,-134.475 933.142,-127.46 930.5,-133.942"/>
</g>
<!-- Node10 -->
<g id="node10" class="node"><title>Node10</title>
<g id="a_node10"><a xlink:href="tests_2helpwritercontext_8cpp.xhtml" target="_top" xlink:title="Tests for help text formatting. ">
<polygon fill="white" stroke="black" points="893.5,-67.5 893.5,-97.5 1030.5,-97.5 1030.5,-67.5 893.5,-67.5"/>
<text text-anchor="start" x="901.5" y="-85.5" font-family="Helvetica,sans-Serif" font-size="10.00">src/gromacs/onlinehelp</text>
<text text-anchor="middle" x="962" y="-74.5" font-family="Helvetica,sans-Serif" font-size="10.00">/tests/helpwritercontext.cpp</text>
</a>
</g>
</g>
<!-- Node1&#45;&gt;Node10 -->
<g id="edge9" class="edge"><title>Node1&#45;&gt;Node10</title>
<path fill="none" stroke="midnightblue" d="M962,-124.235C962,-115.586 962,-105.497 962,-97.523"/>
<polygon fill="midnightblue" stroke="midnightblue" points="958.5,-124.475 962,-134.475 965.5,-124.475 958.5,-124.475"/>
</g>
<!-- Node11 -->
<g id="node11" class="node"><title>Node11</title>
<g id="a_node11"><a xlink:href="tests_2stringutil_8cpp.xhtml" target="_top" xlink:title="Tests for string utility functions and classes. ">
<polygon fill="white" stroke="black" points="1049,-67.5 1049,-97.5 1149,-97.5 1149,-67.5 1049,-67.5"/>
<text text-anchor="start" x="1057" y="-85.5" font-family="Helvetica,sans-Serif" font-size="10.00">src/gromacs/utility</text>
<text text-anchor="middle" x="1099" y="-74.5" font-family="Helvetica,sans-Serif" font-size="10.00">/tests/stringutil.cpp</text>
</a>
</g>
</g>
<!-- Node1&#45;&gt;Node11 -->
<g id="edge10" class="edge"><title>Node1&#45;&gt;Node11</title>
<path fill="none" stroke="midnightblue" d="M990.872,-130.461C1013.06,-120.823 1043.71,-107.513 1066.71,-97.523"/>
<polygon fill="midnightblue" stroke="midnightblue" points="989.407,-127.281 981.629,-134.475 992.195,-133.702 989.407,-127.281"/>
</g>
<!-- Node12 -->
<g id="node12" class="node"><title>Node12</title>
<g id="a_node12"><a xlink:href="tests_2textwriter_8cpp.xhtml" target="_top" xlink:title="Tests for gmx::TextWriter. ">
<polygon fill="white" stroke="black" points="1167,-67.5 1167,-97.5 1271,-97.5 1271,-67.5 1167,-67.5"/>
<text text-anchor="start" x="1175" y="-85.5" font-family="Helvetica,sans-Serif" font-size="10.00">src/gromacs/utility</text>
<text text-anchor="middle" x="1219" y="-74.5" font-family="Helvetica,sans-Serif" font-size="10.00">/tests/textwriter.cpp</text>
</a>
</g>
</g>
<!-- Node1&#45;&gt;Node12 -->
<g id="edge11" class="edge"><title>Node1&#45;&gt;Node12</title>
<path fill="none" stroke="midnightblue" d="M1009.53,-132.195C1049.24,-123.143 1107.33,-109.838 1158,-98 1160.86,-97.3313 1163.8,-96.6424 1166.76,-95.9449"/>
<polygon fill="midnightblue" stroke="midnightblue" points="1008.57,-128.825 999.594,-134.459 1010.12,-135.65 1008.57,-128.825"/>
</g>
<!-- Node13 -->
<g id="node13" class="node"><title>Node13</title>
<g id="a_node13"><a xlink:href="interactivetest_8cpp.xhtml" target="_top" xlink:title="Implements classes from interactivetest.h. ">
<polygon fill="white" stroke="black" points="1289.5,-73 1289.5,-92 1440.5,-92 1440.5,-73 1289.5,-73"/>
<text text-anchor="middle" x="1365" y="-80" font-family="Helvetica,sans-Serif" font-size="10.00">src/testutils/interactivetest.cpp</text>
</a>
</g>
</g>
<!-- Node1&#45;&gt;Node13 -->
<g id="edge12" class="edge"><title>Node1&#45;&gt;Node13</title>
<path fill="none" stroke="midnightblue" d="M1031.61,-133.728C1096.09,-125.002 1194.63,-111.319 1280,-98 1291.83,-96.1539 1304.57,-94.0455 1316.49,-92.0192"/>
<polygon fill="midnightblue" stroke="midnightblue" points="1031,-130.278 1021.56,-135.085 1031.94,-137.215 1031,-130.278"/>
</g>
<!-- Node14 -->
<g id="node14" class="node"><title>Node14</title>
<g id="a_node14"><a xlink:href="stringtest_8cpp.xhtml" target="_top" xlink:title="Implements gmx::test::StringTestBase. ">
<polygon fill="white" stroke="black" points="1459,-73 1459,-92 1589,-92 1589,-73 1459,-73"/>
<text text-anchor="middle" x="1524" y="-80" font-family="Helvetica,sans-Serif" font-size="10.00">src/testutils/stringtest.cpp</text>
</a>
</g>
</g>
<!-- Node1&#45;&gt;Node14 -->
<g id="edge13" class="edge"><title>Node1&#45;&gt;Node14</title>
<path fill="none" stroke="midnightblue" d="M1031.62,-138.812C1126.54,-132.594 1301.71,-119.31 1450,-98 1461.14,-96.3986 1473.15,-94.2367 1484.19,-92.0717"/>
<polygon fill="midnightblue" stroke="midnightblue" points="1031.33,-135.324 1021.57,-139.464 1031.78,-142.309 1031.33,-135.324"/>
</g>
<!-- Node15 -->
<g id="node15" class="node"><title>Node15</title>
<g id="a_node15"><a xlink:href="testfileredirector_8cpp.xhtml" target="_top" xlink:title="Implements classes from testfileredirector.h. ">
<polygon fill="white" stroke="black" points="1607.5,-73 1607.5,-92 1766.5,-92 1766.5,-73 1607.5,-73"/>
<text text-anchor="middle" x="1687" y="-80" font-family="Helvetica,sans-Serif" font-size="10.00">src/testutils/testfileredirector.cpp</text>
</a>
</g>
</g>
<!-- Node1&#45;&gt;Node15 -->
<g id="edge14" class="edge"><title>Node1&#45;&gt;Node15</title>
<path fill="none" stroke="midnightblue" d="M1032.07,-140.127C1149.44,-134.847 1393.08,-121.892 1598,-98 1611.53,-96.4227 1626.14,-94.2428 1639.54,-92.0521"/>
<polygon fill="midnightblue" stroke="midnightblue" points="1031.63,-136.643 1021.79,-140.584 1031.94,-143.636 1031.63,-136.643"/>
</g>
<!-- Node3 -->
<g id="node3" class="node"><title>Node3</title>
<g id="a_node3"><a xlink:href="tests_2cmdlinehelpmodule_8cpp.xhtml" target="_top" xlink:title="Tests gmx::CommandLineHelpModule through gmx::CommandLineModuleManager. ">
<polygon fill="white" stroke="black" points="0,-0.5 0,-30.5 146,-30.5 146,-0.5 0,-0.5"/>
<text text-anchor="start" x="8" y="-18.5" font-family="Helvetica,sans-Serif" font-size="10.00">src/gromacs/commandline</text>
<text text-anchor="middle" x="73" y="-7.5" font-family="Helvetica,sans-Serif" font-size="10.00">/tests/cmdlinehelpmodule.cpp</text>
</a>
</g>
</g>
<!-- Node2&#45;&gt;Node3 -->
<g id="edge2" class="edge"><title>Node2&#45;&gt;Node3</title>
<path fill="none" stroke="midnightblue" d="M199.668,-63.8185C171.7,-53.3707 136.773,-40.3231 110.682,-30.5765"/>
<polygon fill="midnightblue" stroke="midnightblue" points="198.652,-67.1752 209.245,-67.396 201.102,-60.6178 198.652,-67.1752"/>
</g>
<!-- Node4 -->
<g id="node4" class="node"><title>Node4</title>
<g id="a_node4"><a xlink:href="tests_2cmdlinemodulemanager_8cpp.xhtml" target="_top" xlink:title="Tests gmx::CommandLineModuleManager. ">
<polygon fill="white" stroke="black" points="164,-0.5 164,-30.5 330,-30.5 330,-0.5 164,-0.5"/>
<text text-anchor="start" x="172" y="-18.5" font-family="Helvetica,sans-Serif" font-size="10.00">src/gromacs/commandline</text>
<text text-anchor="middle" x="247" y="-7.5" font-family="Helvetica,sans-Serif" font-size="10.00">/tests/cmdlinemodulemanager.cpp</text>
</a>
</g>
</g>
<!-- Node2&#45;&gt;Node4 -->
<g id="edge3" class="edge"><title>Node2&#45;&gt;Node4</title>
<path fill="none" stroke="midnightblue" d="M247,-57.1081C247,-48.1539 247,-38.3227 247,-30.5765"/>
<polygon fill="midnightblue" stroke="midnightblue" points="243.5,-57.3959 247,-67.396 250.5,-57.396 243.5,-57.3959"/>
</g>
<!-- Node5 -->
<g id="node5" class="node"><title>Node5</title>
<g id="a_node5"><a xlink:href="cmdlinemodulemanagertest_8cpp.xhtml" target="_top" xlink:title="Implements classes from cmdlinemodulemanagertest.h. ">
<polygon fill="white" stroke="black" points="348,-0.5 348,-30.5 530,-30.5 530,-0.5 348,-0.5"/>
<text text-anchor="start" x="356" y="-18.5" font-family="Helvetica,sans-Serif" font-size="10.00">src/gromacs/commandline</text>
<text text-anchor="middle" x="439" y="-7.5" font-family="Helvetica,sans-Serif" font-size="10.00">/tests/cmdlinemodulemanagertest.cpp</text>
</a>
</g>
</g>
<!-- Node2&#45;&gt;Node5 -->
<g id="edge4" class="edge"><title>Node2&#45;&gt;Node5</title>
<path fill="none" stroke="midnightblue" d="M298.422,-64.0917C329.416,-53.5988 368.379,-40.4082 397.42,-30.5765"/>
<polygon fill="midnightblue" stroke="midnightblue" points="297.011,-60.8741 288.661,-67.396 299.255,-67.5044 297.011,-60.8741"/>
</g>
</g>
</svg>
