<?xml version="1.0" encoding="UTF-8" standalone="no"?>
<!DOCTYPE svg PUBLIC "-//W3C//DTD SVG 1.1//EN"
 "http://www.w3.org/Graphics/SVG/1.1/DTD/svg11.dtd">
<!-- Generated by graphviz version 2.38.0 (20140413.2041)
 -->
<!-- Title: src/testutils/stringtest.cpp Pages: 1 -->
<svg width="1134pt" height="263pt"
 viewBox="0.00 0.00 1134.00 263.00" xmlns="http://www.w3.org/2000/svg" xmlns:xlink="http://www.w3.org/1999/xlink">
<g id="graph0" class="graph" transform="scale(1 1) rotate(0) translate(4 259)">
<title>src/testutils/stringtest.cpp</title>
<polygon fill="white" stroke="none" points="-4,4 -4,-259 1130,-259 1130,4 -4,4"/>
<!-- Node1 -->
<g id="node1" class="node"><title>Node1</title>
<polygon fill="#bfbfbf" stroke="black" points="326.5,-235.5 326.5,-254.5 456.5,-254.5 456.5,-235.5 326.5,-235.5"/>
<text text-anchor="middle" x="391.5" y="-242.5" font-family="Helvetica,sans-Serif" font-size="10.00">src/testutils/stringtest.cpp</text>
</g>
<!-- Node2 -->
<g id="node2" class="node"><title>Node2</title>
<g id="a_node2"><a xlink:href="gmxpre_8h.xhtml" target="_top" xlink:title="Prerequisite header file for GROMACS build. ">
<polygon fill="white" stroke="black" points="0,-179.5 0,-198.5 57,-198.5 57,-179.5 0,-179.5"/>
<text text-anchor="middle" x="28.5" y="-186.5" font-family="Helvetica,sans-Serif" font-size="10.00">gmxpre.h</text>
</a>
</g>
</g>
<!-- Node1&#45;&gt;Node2 -->
<g id="edge1" class="edge"><title>Node1&#45;&gt;Node2</title>
<path fill="none" stroke="midnightblue" d="M326.335,-236.128C261.532,-227.997 159.371,-214.357 71.5,-199 70.0443,-198.746 68.5627,-198.478 67.0673,-198.201"/>
<polygon fill="midnightblue" stroke="midnightblue" points="67.6141,-194.742 57.1299,-196.269 66.2784,-201.613 67.6141,-194.742"/>
</g>
<!-- Node3 -->
<g id="node3" class="node"><title>Node3</title>
<g id="a_node3"><a xlink:href="stringtest_8h.xhtml" target="_top" xlink:title="Declares gmx::test::StringTestBase. ">
<polygon fill="white" stroke="black" points="114,-123.5 114,-142.5 179,-142.5 179,-123.5 114,-123.5"/>
<text text-anchor="middle" x="146.5" y="-130.5" font-family="Helvetica,sans-Serif" font-size="10.00">stringtest.h</text>
</a>
</g>
</g>
<!-- Node1&#45;&gt;Node3 -->
<g id="edge2" class="edge"><title>Node1&#45;&gt;Node3</title>
<path fill="none" stroke="midnightblue" d="M326.283,-235.883C291.202,-229.508 248.155,-218.336 213.5,-199 191.495,-186.722 171.505,-165.381 159.199,-150.515"/>
<polygon fill="midnightblue" stroke="midnightblue" points="161.866,-148.246 152.884,-142.628 156.402,-152.621 161.866,-148.246"/>
</g>
<!-- Node4 -->
<g id="node4" class="node"><title>Node4</title>
<polygon fill="white" stroke="#bfbfbf" points="128,-62 128,-81 169,-81 169,-62 128,-62"/>
<text text-anchor="middle" x="148.5" y="-69" font-family="Helvetica,sans-Serif" font-size="10.00">string</text>
</g>
<!-- Node1&#45;&gt;Node4 -->
<g id="edge7" class="edge"><title>Node1&#45;&gt;Node4</title>
<path fill="none" stroke="midnightblue" d="M326.147,-236.747C284.084,-230.434 228.978,-219.029 183.5,-199 144.113,-181.653 124.262,-181.232 104.5,-143 94.2888,-123.245 112.324,-101.722 128.293,-87.721"/>
<polygon fill="midnightblue" stroke="midnightblue" points="130.799,-90.1917 136.296,-81.1342 126.35,-84.7871 130.799,-90.1917"/>
</g>
<!-- Node8 -->
<g id="node8" class="node"><title>Node8</title>
<g id="a_node8"><a xlink:href="basicoptions_8h.xhtml" target="_top" xlink:title="Declares option objects for basic option types. ">
<polygon fill="white" stroke="black" points="223,-179.5 223,-198.5 378,-198.5 378,-179.5 223,-179.5"/>
<text text-anchor="middle" x="300.5" y="-186.5" font-family="Helvetica,sans-Serif" font-size="10.00">gromacs/options/basicoptions.h</text>
</a>
</g>
</g>
<!-- Node1&#45;&gt;Node8 -->
<g id="edge8" class="edge"><title>Node1&#45;&gt;Node8</title>
<path fill="none" stroke="midnightblue" d="M376.879,-235.324C362.551,-226.822 340.487,-213.729 323.751,-203.797"/>
<polygon fill="midnightblue" stroke="midnightblue" points="325.47,-200.748 315.084,-198.655 321.898,-206.768 325.47,-200.748"/>
</g>
<!-- Node18 -->
<g id="node18" class="node"><title>Node18</title>
<g id="a_node18"><a xlink:href="ioptionscontainer_8h.xhtml" target="_top" xlink:title="Declares gmx::IOptionsContainer. ">
<polygon fill="white" stroke="black" points="396,-179.5 396,-198.5 569,-198.5 569,-179.5 396,-179.5"/>
<text text-anchor="middle" x="482.5" y="-186.5" font-family="Helvetica,sans-Serif" font-size="10.00">gromacs/options/ioptionscontainer.h</text>
</a>
</g>
</g>
<!-- Node1&#45;&gt;Node18 -->
<g id="edge23" class="edge"><title>Node1&#45;&gt;Node18</title>
<path fill="none" stroke="midnightblue" d="M406.121,-235.324C420.449,-226.822 442.513,-213.729 459.249,-203.797"/>
<polygon fill="midnightblue" stroke="midnightblue" points="461.102,-206.768 467.916,-198.655 457.53,-200.748 461.102,-206.768"/>
</g>
<!-- Node19 -->
<g id="node19" class="node"><title>Node19</title>
<g id="a_node19"><a xlink:href="textreader_8h.xhtml" target="_top" xlink:title="Declares gmx::TextReader. ">
<polygon fill="white" stroke="black" points="415,-123.5 415,-142.5 550,-142.5 550,-123.5 415,-123.5"/>
<text text-anchor="middle" x="482.5" y="-130.5" font-family="Helvetica,sans-Serif" font-size="10.00">gromacs/utility/textreader.h</text>
</a>
</g>
</g>
<!-- Node1&#45;&gt;Node19 -->
<g id="edge26" class="edge"><title>Node1&#45;&gt;Node19</title>
<path fill="none" stroke="midnightblue" d="M456.705,-236.772C504.113,-230.016 562.502,-218.059 577.5,-199 596.34,-175.058 559.051,-156.58 525.802,-145.549"/>
<polygon fill="midnightblue" stroke="midnightblue" points="526.722,-142.169 516.132,-142.502 524.618,-148.846 526.722,-142.169"/>
</g>
<!-- Node21 -->
<g id="node21" class="node"><title>Node21</title>
<g id="a_node21"><a xlink:href="refdata_8h.xhtml" target="_top" xlink:title="Functionality for writing tests that can produce their own reference data. ">
<polygon fill="white" stroke="black" points="606.5,-123.5 606.5,-142.5 698.5,-142.5 698.5,-123.5 606.5,-123.5"/>
<text text-anchor="middle" x="652.5" y="-130.5" font-family="Helvetica,sans-Serif" font-size="10.00">testutils/refdata.h</text>
</a>
</g>
</g>
<!-- Node1&#45;&gt;Node21 -->
<g id="edge31" class="edge"><title>Node1&#45;&gt;Node21</title>
<path fill="none" stroke="midnightblue" d="M456.505,-239.861C498.304,-234.811 552.458,-223.645 594.5,-199 614.598,-187.219 631.508,-166.083 641.79,-151.115"/>
<polygon fill="midnightblue" stroke="midnightblue" points="644.734,-153.009 647.305,-142.731 638.886,-149.162 644.734,-153.009"/>
</g>
<!-- Node23 -->
<g id="node23" class="node"><title>Node23</title>
<g id="a_node23"><a xlink:href="testoptions_8h.xhtml" target="_top" xlink:title="Functions for accessing test command&#45;line options. ">
<polygon fill="white" stroke="black" points="663.5,-179.5 663.5,-198.5 773.5,-198.5 773.5,-179.5 663.5,-179.5"/>
<text text-anchor="middle" x="718.5" y="-186.5" font-family="Helvetica,sans-Serif" font-size="10.00">testutils/testoptions.h</text>
</a>
</g>
</g>
<!-- Node1&#45;&gt;Node23 -->
<g id="edge37" class="edge"><title>Node1&#45;&gt;Node23</title>
<path fill="none" stroke="midnightblue" d="M443.314,-235.444C501.315,-225.865 595.236,-210.356 656.935,-200.167"/>
<polygon fill="midnightblue" stroke="midnightblue" points="657.632,-203.599 666.928,-198.516 656.492,-196.693 657.632,-203.599"/>
</g>
<!-- Node3&#45;&gt;Node4 -->
<g id="edge3" class="edge"><title>Node3&#45;&gt;Node4</title>
<path fill="none" stroke="midnightblue" d="M146.787,-123.475C147.069,-115.08 147.509,-101.981 147.873,-91.1631"/>
<polygon fill="midnightblue" stroke="midnightblue" points="151.376,-91.1211 148.214,-81.0091 144.38,-90.8858 151.376,-91.1211"/>
</g>
<!-- Node5 -->
<g id="node5" class="node"><title>Node5</title>
<polygon fill="white" stroke="#bfbfbf" points="39,-62 39,-81 110,-81 110,-62 39,-62"/>
<text text-anchor="middle" x="74.5" y="-69" font-family="Helvetica,sans-Serif" font-size="10.00">gtest/gtest.h</text>
</g>
<!-- Node3&#45;&gt;Node5 -->
<g id="edge4" class="edge"><title>Node3&#45;&gt;Node5</title>
<path fill="none" stroke="midnightblue" d="M136.184,-123.475C124.849,-114.108 106.427,-98.8839 92.661,-87.5081"/>
<polygon fill="midnightblue" stroke="midnightblue" points="94.7348,-84.6813 84.7967,-81.0091 90.2756,-90.0773 94.7348,-84.6813"/>
</g>
<!-- Node6 -->
<g id="node6" class="node"><title>Node6</title>
<g id="a_node6"><a xlink:href="classhelpers_8h.xhtml" target="_top" xlink:title="Declares common utility classes and macros. ">
<polygon fill="white" stroke="black" points="187.5,-62 187.5,-81 333.5,-81 333.5,-62 187.5,-62"/>
<text text-anchor="middle" x="260.5" y="-69" font-family="Helvetica,sans-Serif" font-size="10.00">gromacs/utility/classhelpers.h</text>
</a>
</g>
</g>
<!-- Node3&#45;&gt;Node6 -->
<g id="edge5" class="edge"><title>Node3&#45;&gt;Node6</title>
<path fill="none" stroke="midnightblue" d="M162.833,-123.475C181.711,-113.622 213.007,-97.2883 235.076,-85.7697"/>
<polygon fill="midnightblue" stroke="midnightblue" points="236.951,-88.7389 244.197,-81.0091 233.712,-82.5333 236.951,-88.7389"/>
</g>
<!-- Node7 -->
<g id="node7" class="node"><title>Node7</title>
<polygon fill="white" stroke="#bfbfbf" points="456.5,-0.5 456.5,-19.5 508.5,-19.5 508.5,-0.5 456.5,-0.5"/>
<text text-anchor="middle" x="482.5" y="-7.5" font-family="Helvetica,sans-Serif" font-size="10.00">memory</text>
</g>
<!-- Node6&#45;&gt;Node7 -->
<g id="edge6" class="edge"><title>Node6&#45;&gt;Node7</title>
<path fill="none" stroke="midnightblue" d="M292.307,-61.9751C333.153,-51.0277 403.851,-32.0792 446.589,-20.6248"/>
<polygon fill="midnightblue" stroke="midnightblue" points="447.546,-23.9919 456.299,-18.0224 445.734,-17.2306 447.546,-23.9919"/>
</g>
<!-- Node8&#45;&gt;Node4 -->
<g id="edge9" class="edge"><title>Node8&#45;&gt;Node4</title>
<path fill="none" stroke="midnightblue" d="M284.35,-179.346C268.97,-170.838 245.426,-157.11 226.5,-143 203.571,-125.905 179.489,-103.326 164.256,-88.3797"/>
<polygon fill="midnightblue" stroke="midnightblue" points="166.714,-85.8876 157.149,-81.3292 161.783,-90.8569 166.714,-85.8876"/>
</g>
<!-- Node9 -->
<g id="node9" class="node"><title>Node9</title>
<polygon fill="white" stroke="#bfbfbf" points="351.5,-62 351.5,-81 395.5,-81 395.5,-62 351.5,-62"/>
<text text-anchor="middle" x="373.5" y="-69" font-family="Helvetica,sans-Serif" font-size="10.00">vector</text>
</g>
<!-- Node8&#45;&gt;Node9 -->
<g id="edge10" class="edge"><title>Node8&#45;&gt;Node9</title>
<path fill="none" stroke="midnightblue" d="M378.206,-179.513C449.857,-170.887 546.851,-156.856 558.5,-143 591.054,-104.277 554.927,-139.127 404.5,-87 402.879,-86.4383 401.229,-85.8188 399.578,-85.1617"/>
<polygon fill="midnightblue" stroke="midnightblue" points="400.858,-81.9017 390.291,-81.128 398.069,-88.3222 400.858,-81.9017"/>
</g>
<!-- Node10 -->
<g id="node10" class="node"><title>Node10</title>
<g id="a_node10"><a xlink:href="abstractoption_8h.xhtml" target="_top" xlink:title="Defines gmx::AbstractOption, gmx::OptionTemplate and gmx::OptionInfo. ">
<polygon fill="white" stroke="black" points="236,-123.5 236,-142.5 397,-142.5 397,-123.5 236,-123.5"/>
<text text-anchor="middle" x="316.5" y="-130.5" font-family="Helvetica,sans-Serif" font-size="10.00">gromacs/options/abstractoption.h</text>
</a>
</g>
</g>
<!-- Node8&#45;&gt;Node10 -->
<g id="edge11" class="edge"><title>Node8&#45;&gt;Node10</title>
<path fill="none" stroke="midnightblue" d="M303.142,-179.083C305.286,-171.849 308.379,-161.409 311.049,-152.397"/>
<polygon fill="midnightblue" stroke="midnightblue" points="314.422,-153.333 313.907,-142.751 307.71,-151.345 314.422,-153.333"/>
</g>
<!-- Node13 -->
<g id="node13" class="node"><title>Node13</title>
<g id="a_node13"><a xlink:href="basedefinitions_8h.xhtml" target="_top" xlink:title="Basic types and macros used throughout GROMACS. ">
<polygon fill="white" stroke="black" points="838,-62 838,-81 995,-81 995,-62 838,-62"/>
<text text-anchor="middle" x="916.5" y="-69" font-family="Helvetica,sans-Serif" font-size="10.00">gromacs/utility/basedefinitions.h</text>
</a>
</g>
</g>
<!-- Node8&#45;&gt;Node13 -->
<g id="edge17" class="edge"><title>Node8&#45;&gt;Node13</title>
<path fill="none" stroke="midnightblue" d="M378.436,-179.819C492.113,-167.823 691.687,-146.498 707.5,-143 772.99,-128.511 846.703,-100.846 886.729,-84.817"/>
<polygon fill="midnightblue" stroke="midnightblue" points="888.194,-88.0001 896.153,-81.0078 885.57,-81.5101 888.194,-88.0001"/>
</g>
<!-- Node16 -->
<g id="node16" class="node"><title>Node16</title>
<g id="a_node16"><a xlink:href="gmxassert_8h.xhtml" target="_top" xlink:title="Defines assert macros customized for Gromacs. ">
<polygon fill="white" stroke="black" points="824,-123.5 824,-142.5 961,-142.5 961,-123.5 824,-123.5"/>
<text text-anchor="middle" x="892.5" y="-130.5" font-family="Helvetica,sans-Serif" font-size="10.00">gromacs/utility/gmxassert.h</text>
</a>
</g>
</g>
<!-- Node8&#45;&gt;Node16 -->
<g id="edge20" class="edge"><title>Node8&#45;&gt;Node16</title>
<path fill="none" stroke="midnightblue" d="M378.31,-179.802C381.074,-179.529 383.81,-179.26 386.5,-179 467.106,-171.198 692.463,-151.432 813.408,-140.882"/>
<polygon fill="midnightblue" stroke="midnightblue" points="814.052,-144.339 823.711,-139.984 813.444,-137.366 814.052,-144.339"/>
</g>
<!-- Node10&#45;&gt;Node4 -->
<g id="edge12" class="edge"><title>Node10&#45;&gt;Node4</title>
<path fill="none" stroke="midnightblue" d="M286.473,-123.485C258.235,-115.18 214.968,-101.681 178.5,-87 177.125,-86.4464 175.724,-85.8584 174.318,-85.2483"/>
<polygon fill="midnightblue" stroke="midnightblue" points="175.688,-82.0261 165.139,-81.0349 172.767,-88.3878 175.688,-82.0261"/>
</g>
<!-- Node10&#45;&gt;Node6 -->
<g id="edge16" class="edge"><title>Node10&#45;&gt;Node6</title>
<path fill="none" stroke="midnightblue" d="M308.477,-123.475C299.91,-114.373 286.139,-99.741 275.543,-88.483"/>
<polygon fill="midnightblue" stroke="midnightblue" points="277.911,-85.8923 268.509,-81.0091 272.814,-90.6899 277.911,-85.8923"/>
</g>
<!-- Node10&#45;&gt;Node9 -->
<g id="edge13" class="edge"><title>Node10&#45;&gt;Node9</title>
<path fill="none" stroke="midnightblue" d="M324.667,-123.475C333.386,-114.373 347.404,-99.741 358.189,-88.483"/>
<polygon fill="midnightblue" stroke="midnightblue" points="360.958,-90.6515 365.348,-81.0091 355.903,-85.809 360.958,-90.6515"/>
</g>
<!-- Node11 -->
<g id="node11" class="node"><title>Node11</title>
<g id="a_node11"><a xlink:href="optionflags_8h.xhtml" target="_top" xlink:title="Defines flags used in option implementation. ">
<polygon fill="white" stroke="black" points="608,-62 608,-81 755,-81 755,-62 608,-62"/>
<text text-anchor="middle" x="681.5" y="-69" font-family="Helvetica,sans-Serif" font-size="10.00">gromacs/options/optionflags.h</text>
</a>
</g>
</g>
<!-- Node10&#45;&gt;Node11 -->
<g id="edge14" class="edge"><title>Node10&#45;&gt;Node11</title>
<path fill="none" stroke="midnightblue" d="M368.796,-123.475C434.93,-112.694 548.662,-94.1544 619.216,-82.6532"/>
<polygon fill="midnightblue" stroke="midnightblue" points="619.995,-86.0725 629.301,-81.0091 618.869,-79.1637 619.995,-86.0725"/>
</g>
<!-- Node12 -->
<g id="node12" class="node"><title>Node12</title>
<g id="a_node12"><a xlink:href="flags_8h.xhtml" target="_top" xlink:title="Declares gmx::FlagsTemplate. ">
<polygon fill="white" stroke="black" points="625,-0.5 625,-19.5 738,-19.5 738,-0.5 625,-0.5"/>
<text text-anchor="middle" x="681.5" y="-7.5" font-family="Helvetica,sans-Serif" font-size="10.00">gromacs/utility/flags.h</text>
</a>
</g>
</g>
<!-- Node11&#45;&gt;Node12 -->
<g id="edge15" class="edge"><title>Node11&#45;&gt;Node12</title>
<path fill="none" stroke="midnightblue" d="M681.5,-61.9751C681.5,-53.5803 681.5,-40.4806 681.5,-29.6631"/>
<polygon fill="midnightblue" stroke="midnightblue" points="685,-29.5091 681.5,-19.5091 678,-29.5091 685,-29.5091"/>
</g>
<!-- Node14 -->
<g id="node14" class="node"><title>Node14</title>
<polygon fill="white" stroke="#bfbfbf" points="856,-0.5 856,-19.5 905,-19.5 905,-0.5 856,-0.5"/>
<text text-anchor="middle" x="880.5" y="-7.5" font-family="Helvetica,sans-Serif" font-size="10.00">stdint.h</text>
</g>
<!-- Node13&#45;&gt;Node14 -->
<g id="edge18" class="edge"><title>Node13&#45;&gt;Node14</title>
<path fill="none" stroke="midnightblue" d="M911.342,-61.9751C906.049,-53.2268 897.665,-39.3691 890.973,-28.3093"/>
<polygon fill="midnightblue" stroke="midnightblue" points="893.82,-26.2531 885.648,-19.5091 887.83,-29.8768 893.82,-26.2531"/>
</g>
<!-- Node15 -->
<g id="node15" class="node"><title>Node15</title>
<polygon fill="white" stroke="#bfbfbf" points="923,-0.5 923,-19.5 982,-19.5 982,-0.5 923,-0.5"/>
<text text-anchor="middle" x="952.5" y="-7.5" font-family="Helvetica,sans-Serif" font-size="10.00">inttypes.h</text>
</g>
<!-- Node13&#45;&gt;Node15 -->
<g id="edge19" class="edge"><title>Node13&#45;&gt;Node15</title>
<path fill="none" stroke="midnightblue" d="M921.658,-61.9751C926.951,-53.2268 935.335,-39.3691 942.027,-28.3093"/>
<polygon fill="midnightblue" stroke="midnightblue" points="945.17,-29.8768 947.352,-19.5091 939.18,-26.2531 945.17,-29.8768"/>
</g>
<!-- Node16&#45;&gt;Node13 -->
<g id="edge21" class="edge"><title>Node16&#45;&gt;Node13</title>
<path fill="none" stroke="midnightblue" d="M895.939,-123.475C899.396,-114.904 904.832,-101.427 909.246,-90.483"/>
<polygon fill="midnightblue" stroke="midnightblue" points="912.573,-91.5924 913.068,-81.0091 906.081,-88.9738 912.573,-91.5924"/>
</g>
<!-- Node17 -->
<g id="node17" class="node"><title>Node17</title>
<g id="a_node17"><a xlink:href="current__function_8h.xhtml" target="_top" xlink:title="Declares GMX_CURRENT_FUNCTION for getting the current function name. ">
<polygon fill="white" stroke="black" points="1013,-56.5 1013,-86.5 1126,-86.5 1126,-56.5 1013,-56.5"/>
<text text-anchor="start" x="1021" y="-74.5" font-family="Helvetica,sans-Serif" font-size="10.00">gromacs/utility/current</text>
<text text-anchor="middle" x="1069.5" y="-63.5" font-family="Helvetica,sans-Serif" font-size="10.00">_function.h</text>
</a>
</g>
</g>
<!-- Node16&#45;&gt;Node17 -->
<g id="edge22" class="edge"><title>Node16&#45;&gt;Node17</title>
<path fill="none" stroke="midnightblue" d="M917.86,-123.475C943.96,-114.701 985.349,-100.788 1018.3,-89.7123"/>
<polygon fill="midnightblue" stroke="midnightblue" points="1019.42,-93.027 1027.78,-86.523 1017.19,-86.3918 1019.42,-93.027"/>
</g>
<!-- Node18&#45;&gt;Node10 -->
<g id="edge24" class="edge"><title>Node18&#45;&gt;Node10</title>
<path fill="none" stroke="midnightblue" d="M456.197,-179.444C428.149,-170.32 383.556,-155.813 352.316,-145.651"/>
<polygon fill="midnightblue" stroke="midnightblue" points="353.272,-142.282 342.68,-142.516 351.107,-148.938 353.272,-142.282"/>
</g>
<!-- Node18&#45;&gt;Node16 -->
<g id="edge25" class="edge"><title>Node18&#45;&gt;Node16</title>
<path fill="none" stroke="midnightblue" d="M547.466,-179.444C620.938,-169.767 740.381,-154.035 817.688,-143.853"/>
<polygon fill="midnightblue" stroke="midnightblue" points="818.381,-147.292 827.838,-142.516 817.467,-140.352 818.381,-147.292"/>
</g>
<!-- Node19&#45;&gt;Node4 -->
<g id="edge27" class="edge"><title>Node19&#45;&gt;Node4</title>
<path fill="none" stroke="midnightblue" d="M417.862,-123.492C335.443,-112.48 200.873,-93.8862 178.5,-87 176.828,-86.4852 175.131,-85.8896 173.441,-85.2395"/>
<polygon fill="midnightblue" stroke="midnightblue" points="174.58,-81.9173 164.016,-81.103 171.766,-88.3271 174.58,-81.9173"/>
</g>
<!-- Node19&#45;&gt;Node6 -->
<g id="edge28" class="edge"><title>Node19&#45;&gt;Node6</title>
<path fill="none" stroke="midnightblue" d="M450.693,-123.475C411.623,-113.004 345.24,-95.2118 302.139,-83.6601"/>
<polygon fill="midnightblue" stroke="midnightblue" points="302.813,-80.2173 292.248,-81.0091 301.001,-86.9787 302.813,-80.2173"/>
</g>
<!-- Node20 -->
<g id="node20" class="node"><title>Node20</title>
<g id="a_node20"><a xlink:href="textstream_8h.xhtml" target="_top" xlink:title="Declares interfaces for simple input/output streams. ">
<polygon fill="white" stroke="black" points="413.5,-62 413.5,-81 551.5,-81 551.5,-62 413.5,-62"/>
<text text-anchor="middle" x="482.5" y="-69" font-family="Helvetica,sans-Serif" font-size="10.00">gromacs/utility/textstream.h</text>
</a>
</g>
</g>
<!-- Node19&#45;&gt;Node20 -->
<g id="edge29" class="edge"><title>Node19&#45;&gt;Node20</title>
<path fill="none" stroke="midnightblue" d="M482.5,-123.475C482.5,-115.08 482.5,-101.981 482.5,-91.1631"/>
<polygon fill="midnightblue" stroke="midnightblue" points="486,-91.0091 482.5,-81.0091 479,-91.0091 486,-91.0091"/>
</g>
<!-- Node20&#45;&gt;Node7 -->
<g id="edge30" class="edge"><title>Node20&#45;&gt;Node7</title>
<path fill="none" stroke="midnightblue" d="M482.5,-61.9751C482.5,-53.5803 482.5,-40.4806 482.5,-29.6631"/>
<polygon fill="midnightblue" stroke="midnightblue" points="486,-29.5091 482.5,-19.5091 479,-29.5091 486,-29.5091"/>
</g>
<!-- Node21&#45;&gt;Node4 -->
<g id="edge34" class="edge"><title>Node21&#45;&gt;Node4</title>
<path fill="none" stroke="midnightblue" d="M606.124,-127.55C590.946,-126.097 574.004,-124.477 558.5,-123 389.619,-106.916 341.893,-132.632 178.5,-87 176.62,-86.4748 174.714,-85.8361 172.821,-85.1229"/>
<polygon fill="midnightblue" stroke="midnightblue" points="174.223,-81.9158 163.658,-81.1172 171.419,-88.3297 174.223,-81.9158"/>
</g>
<!-- Node21&#45;&gt;Node6 -->
<g id="edge36" class="edge"><title>Node21&#45;&gt;Node6</title>
<path fill="none" stroke="midnightblue" d="M606.475,-125.771C545.878,-117.466 436.059,-102.059 342.5,-87 334.293,-85.679 325.636,-84.2199 317.145,-82.7514"/>
<polygon fill="midnightblue" stroke="midnightblue" points="317.743,-79.303 307.29,-81.0309 316.539,-86.1987 317.743,-79.303"/>
</g>
<!-- Node21&#45;&gt;Node7 -->
<g id="edge33" class="edge"><title>Node21&#45;&gt;Node7</title>
<path fill="none" stroke="midnightblue" d="M642.177,-123.394C619.053,-104.127 564.776,-58.9685 560.5,-56 543.697,-44.3343 523.694,-32.838 508.152,-24.3854"/>
<polygon fill="midnightblue" stroke="midnightblue" points="509.587,-21.1833 499.12,-19.5416 506.278,-27.3522 509.587,-21.1833"/>
</g>
<!-- Node21&#45;&gt;Node13 -->
<g id="edge35" class="edge"><title>Node21&#45;&gt;Node13</title>
<path fill="none" stroke="midnightblue" d="M690.325,-123.475C737.374,-112.871 817.732,-94.7602 868.916,-83.2244"/>
<polygon fill="midnightblue" stroke="midnightblue" points="869.76,-86.6222 878.745,-81.0091 868.221,-79.7934 869.76,-86.6222"/>
</g>
<!-- Node22 -->
<g id="node22" class="node"><title>Node22</title>
<polygon fill="white" stroke="#bfbfbf" points="773,-62 773,-81 820,-81 820,-62 773,-62"/>
<text text-anchor="middle" x="796.5" y="-69" font-family="Helvetica,sans-Serif" font-size="10.00">iterator</text>
</g>
<!-- Node21&#45;&gt;Node22 -->
<g id="edge32" class="edge"><title>Node21&#45;&gt;Node22</title>
<path fill="none" stroke="midnightblue" d="M674.271,-123.389C696.707,-114.465 732.659,-100.024 763.5,-87 764.905,-86.4066 766.342,-85.7947 767.792,-85.1733"/>
<polygon fill="midnightblue" stroke="midnightblue" points="769.565,-88.2191 777.346,-81.0279 766.779,-81.7976 769.565,-88.2191"/>
</g>
</g>
</svg>
