<?xml version="1.0" encoding="UTF-8" standalone="no"?>
<!DOCTYPE svg PUBLIC "-//W3C//DTD SVG 1.1//EN"
 "http://www.w3.org/Graphics/SVG/1.1/DTD/svg11.dtd">
<!-- Generated by graphviz version 2.38.0 (20140413.2041)
 -->
<!-- Title: gmx::HardwareTopology::Machine Pages: 1 -->
<svg width="131pt" height="117pt"
 viewBox="0.00 0.00 131.00 117.00" xmlns="http://www.w3.org/2000/svg" xmlns:xlink="http://www.w3.org/1999/xlink">
<g id="graph0" class="graph" transform="scale(1 1) rotate(0) translate(4 113)">
<title>gmx::HardwareTopology::Machine</title>
<polygon fill="white" stroke="none" points="-4,4 -4,-113 127,-113 127,4 -4,4"/>
<!-- Node1 -->
<g id="node1" class="node"><title>Node1</title>
<polygon fill="#bfbfbf" stroke="black" points="0,-0.5 0,-30.5 123,-30.5 123,-0.5 0,-0.5"/>
<text text-anchor="start" x="8" y="-18.5" font-family="Helvetica,sans-Serif" font-size="10.00">gmx::HardwareTopology</text>
<text text-anchor="middle" x="61.5" y="-7.5" font-family="Helvetica,sans-Serif" font-size="10.00">::Machine</text>
</g>
<!-- Node2 -->
<g id="node2" class="node"><title>Node2</title>
<g id="a_node2"><a xlink:href="structgmx_1_1HardwareTopology_1_1Numa.xhtml" target="_top" xlink:title="Information about a single numa node. ">
<polygon fill="white" stroke="black" points="0,-78.5 0,-108.5 123,-108.5 123,-78.5 0,-78.5"/>
<text text-anchor="start" x="8" y="-96.5" font-family="Helvetica,sans-Serif" font-size="10.00">gmx::HardwareTopology</text>
<text text-anchor="middle" x="61.5" y="-85.5" font-family="Helvetica,sans-Serif" font-size="10.00">::Numa</text>
</a>
</g>
</g>
<!-- Node2&#45;&gt;Node1 -->
<g id="edge1" class="edge"><title>Node2&#45;&gt;Node1</title>
<path fill="none" stroke="#9a32cd" stroke-dasharray="5,2" d="M61.5,-68.0898C61.5,-55.7565 61.5,-41.2237 61.5,-30.7309"/>
<polygon fill="#9a32cd" stroke="#9a32cd" points="58.0001,-68.2049 61.5,-78.205 65.0001,-68.205 58.0001,-68.2049"/>
<text text-anchor="middle" x="75.5" y="-52" font-family="Helvetica,sans-Serif" font-size="10.00"> numa</text>
</g>
</g>
</svg>
