<?xml version="1.0" encoding="UTF-8" standalone="no"?>
<!DOCTYPE svg PUBLIC "-//W3C//DTD SVG 1.1//EN"
 "http://www.w3.org/Graphics/SVG/1.1/DTD/svg11.dtd">
<!-- Generated by graphviz version 2.38.0 (20140413.2041)
 -->
<!-- Title: gmx_ana_selparam_t Pages: 1 -->
<svg width="219pt" height="229pt"
 viewBox="0.00 0.00 218.50 229.00" xmlns="http://www.w3.org/2000/svg" xmlns:xlink="http://www.w3.org/1999/xlink">
<g id="graph0" class="graph" transform="scale(1 1) rotate(0) translate(4 225)">
<title>gmx_ana_selparam_t</title>
<polygon fill="white" stroke="none" points="-4,4 -4,-225 214.5,-225 214.5,4 -4,4"/>
<!-- Node1 -->
<g id="node1" class="node"><title>Node1</title>
<polygon fill="#bfbfbf" stroke="black" points="26.5,-0.5 26.5,-19.5 136.5,-19.5 136.5,-0.5 26.5,-0.5"/>
<text text-anchor="middle" x="81.5" y="-7.5" font-family="Helvetica,sans-Serif" font-size="10.00">gmx_ana_selparam_t</text>
</g>
<!-- Node2 -->
<g id="node2" class="node"><title>Node2</title>
<g id="a_node2"><a xlink:href="structgmx__ana__selvalue__t.xhtml" target="_top" xlink:title="Describes a value of a selection expression or of a selection method parameter. ">
<polygon fill="white" stroke="black" points="28.5,-67.5 28.5,-86.5 134.5,-86.5 134.5,-67.5 28.5,-67.5"/>
<text text-anchor="middle" x="81.5" y="-74.5" font-family="Helvetica,sans-Serif" font-size="10.00">gmx_ana_selvalue_t</text>
</a>
</g>
</g>
<!-- Node2&#45;&gt;Node1 -->
<g id="edge1" class="edge"><title>Node2&#45;&gt;Node1</title>
<path fill="none" stroke="#9a32cd" stroke-dasharray="5,2" d="M81.5,-57.037C81.5,-44.6703 81.5,-29.1198 81.5,-19.6273"/>
<polygon fill="#9a32cd" stroke="#9a32cd" points="78.0001,-57.2338 81.5,-67.2338 85.0001,-57.2338 78.0001,-57.2338"/>
<text text-anchor="middle" x="89.5" y="-41" font-family="Helvetica,sans-Serif" font-size="10.00"> val</text>
</g>
<!-- Node3 -->
<g id="node3" class="node"><title>Node3</title>
<g id="a_node3"><a xlink:href="structgmx__ana__index__t.xhtml" target="_top" xlink:title="Stores a single index group. ">
<polygon fill="white" stroke="black" points="0,-134.5 0,-153.5 93,-153.5 93,-134.5 0,-134.5"/>
<text text-anchor="middle" x="46.5" y="-141.5" font-family="Helvetica,sans-Serif" font-size="10.00">gmx_ana_index_t</text>
</a>
</g>
</g>
<!-- Node3&#45;&gt;Node2 -->
<g id="edge2" class="edge"><title>Node3&#45;&gt;Node2</title>
<path fill="none" stroke="#9a32cd" stroke-dasharray="5,2" d="M56.1043,-125.163C62.8541,-112.628 71.5867,-96.4104 76.8545,-86.6273"/>
<polygon fill="#9a32cd" stroke="#9a32cd" points="52.8797,-123.77 51.2203,-134.234 59.043,-127.088 52.8797,-123.77"/>
<text text-anchor="middle" x="71" y="-108" font-family="Helvetica,sans-Serif" font-size="10.00"> g</text>
</g>
<!-- Node4 -->
<g id="node4" class="node"><title>Node4</title>
<g id="a_node4"><a xlink:href="structgmx__ana__pos__t.xhtml" target="_top" xlink:title="Stores a set of positions together with their origins. ">
<polygon fill="white" stroke="black" points="111.5,-134.5 111.5,-153.5 197.5,-153.5 197.5,-134.5 111.5,-134.5"/>
<text text-anchor="middle" x="154.5" y="-141.5" font-family="Helvetica,sans-Serif" font-size="10.00">gmx_ana_pos_t</text>
</a>
</g>
</g>
<!-- Node4&#45;&gt;Node2 -->
<g id="edge3" class="edge"><title>Node4&#45;&gt;Node2</title>
<path fill="none" stroke="#9a32cd" stroke-dasharray="5,2" d="M136.931,-127.356C122.58,-114.578 102.829,-96.9915 91.1891,-86.6273"/>
<polygon fill="#9a32cd" stroke="#9a32cd" points="134.859,-130.198 144.655,-134.234 139.514,-124.97 134.859,-130.198"/>
<text text-anchor="middle" x="126" y="-108" font-family="Helvetica,sans-Serif" font-size="10.00"> p</text>
</g>
<!-- Node5 -->
<g id="node5" class="node"><title>Node5</title>
<g id="a_node5"><a xlink:href="structgmx__ana__indexmap__t.xhtml" target="_top" xlink:title="Data structure for calculating index group mappings. ">
<polygon fill="white" stroke="black" points="98.5,-201.5 98.5,-220.5 210.5,-220.5 210.5,-201.5 98.5,-201.5"/>
<text text-anchor="middle" x="154.5" y="-208.5" font-family="Helvetica,sans-Serif" font-size="10.00">gmx_ana_indexmap_t</text>
</a>
</g>
</g>
<!-- Node5&#45;&gt;Node4 -->
<g id="edge4" class="edge"><title>Node5&#45;&gt;Node4</title>
<path fill="none" stroke="#9a32cd" stroke-dasharray="5,2" d="M154.5,-191.037C154.5,-178.67 154.5,-163.12 154.5,-153.627"/>
<polygon fill="#9a32cd" stroke="#9a32cd" points="151,-191.234 154.5,-201.234 158,-191.234 151,-191.234"/>
<text text-anchor="middle" x="160.5" y="-175" font-family="Helvetica,sans-Serif" font-size="10.00"> m</text>
</g>
</g>
</svg>
