<?xml version="1.0" encoding="UTF-8" standalone="no"?>
<!DOCTYPE svg PUBLIC "-//W3C//DTD SVG 1.1//EN"
 "http://www.w3.org/Graphics/SVG/1.1/DTD/svg11.dtd">
<!-- Generated by graphviz version 2.38.0 (20140413.2041)
 -->
<!-- Title: gmx_nbnxn_ocl_t Pages: 1 -->
<svg width="520pt" height="307pt"
 viewBox="0.00 0.00 520.00 307.00" xmlns="http://www.w3.org/2000/svg" xmlns:xlink="http://www.w3.org/1999/xlink">
<g id="graph0" class="graph" transform="scale(1 1) rotate(0) translate(4 303)">
<title>gmx_nbnxn_ocl_t</title>
<polygon fill="white" stroke="none" points="-4,4 -4,-303 516,-303 516,4 -4,4"/>
<!-- Node1 -->
<g id="node1" class="node"><title>Node1</title>
<polygon fill="#bfbfbf" stroke="black" points="419,-146.5 419,-165.5 512,-165.5 512,-146.5 419,-146.5"/>
<text text-anchor="middle" x="465.5" y="-153.5" font-family="Helvetica,sans-Serif" font-size="10.00">gmx_nbnxn_ocl_t</text>
</g>
<!-- Node2 -->
<g id="node2" class="node"><title>Node2</title>
<g id="a_node2"><a xlink:href="structgmx__device__info__t.xhtml" target="_top" xlink:title="OpenCL device information. ">
<polygon fill="white" stroke="black" points="222,-278.5 222,-297.5 320,-297.5 320,-278.5 222,-278.5"/>
<text text-anchor="middle" x="271" y="-285.5" font-family="Helvetica,sans-Serif" font-size="10.00">gmx_device_info_t</text>
</a>
</g>
</g>
<!-- Node2&#45;&gt;Node1 -->
<g id="edge1" class="edge"><title>Node2&#45;&gt;Node1</title>
<path fill="none" stroke="#9a32cd" stroke-dasharray="5,2" d="M330.221,-280.275C353.873,-274.962 380.416,-266.023 401,-251 432.248,-228.195 452.735,-185.012 460.725,-165.727"/>
<polygon fill="#9a32cd" stroke="#9a32cd" points="329.367,-276.878 320.287,-282.337 330.789,-283.731 329.367,-276.878"/>
<text text-anchor="middle" x="372.5" y="-279" font-family="Helvetica,sans-Serif" font-size="10.00"> dev_info</text>
</g>
<!-- Node3 -->
<g id="node3" class="node"><title>Node3</title>
<g id="a_node3"><a xlink:href="structocl__gpu__id__t.xhtml" target="_top" xlink:title="OpenCL GPU device identificator. ">
<polygon fill="white" stroke="black" points="29.5,-278.5 29.5,-297.5 100.5,-297.5 100.5,-278.5 29.5,-278.5"/>
<text text-anchor="middle" x="65" y="-285.5" font-family="Helvetica,sans-Serif" font-size="10.00">ocl_gpu_id_t</text>
</a>
</g>
</g>
<!-- Node3&#45;&gt;Node2 -->
<g id="edge2" class="edge"><title>Node3&#45;&gt;Node2</title>
<path fill="none" stroke="#9a32cd" stroke-dasharray="5,2" d="M110.832,-288C143.68,-288 188.211,-288 221.818,-288"/>
<polygon fill="#9a32cd" stroke="#9a32cd" points="110.606,-284.5 100.606,-288 110.606,-291.5 110.606,-284.5"/>
<text text-anchor="middle" x="173" y="-291" font-family="Helvetica,sans-Serif" font-size="10.00"> ocl_gpu_id</text>
</g>
<!-- Node4 -->
<g id="node4" class="node"><title>Node4</title>
<g id="a_node4"><a xlink:href="structcl__atomdata.xhtml" target="_top" xlink:title="Nonbonded atom data &#45; both inputs and outputs. ">
<polygon fill="white" stroke="black" points="236,-240.5 236,-259.5 306,-259.5 306,-240.5 236,-240.5"/>
<text text-anchor="middle" x="271" y="-247.5" font-family="Helvetica,sans-Serif" font-size="10.00">cl_atomdata</text>
</a>
</g>
</g>
<!-- Node4&#45;&gt;Node1 -->
<g id="edge3" class="edge"><title>Node4&#45;&gt;Node1</title>
<path fill="none" stroke="#9a32cd" stroke-dasharray="5,2" d="M316.176,-242.989C342.048,-237.616 374.699,-228.579 401,-214 423.983,-201.26 445.378,-178.623 456.506,-165.72"/>
<polygon fill="#9a32cd" stroke="#9a32cd" points="315.398,-239.575 306.262,-244.94 316.749,-246.443 315.398,-239.575"/>
<text text-anchor="middle" x="372.5" y="-239" font-family="Helvetica,sans-Serif" font-size="10.00"> atdat</text>
</g>
<!-- Node5 -->
<g id="node5" class="node"><title>Node5</title>
<g id="a_node5"><a xlink:href="structcl__timers.xhtml" target="_top" xlink:title="OpenCL events used for timing GPU kernels and H2D/D2H transfers. ">
<polygon fill="white" stroke="black" points="243,-202.5 243,-221.5 299,-221.5 299,-202.5 243,-202.5"/>
<text text-anchor="middle" x="271" y="-209.5" font-family="Helvetica,sans-Serif" font-size="10.00">cl_timers</text>
</a>
</g>
</g>
<!-- Node5&#45;&gt;Node1 -->
<g id="edge4" class="edge"><title>Node5&#45;&gt;Node1</title>
<path fill="none" stroke="#9a32cd" stroke-dasharray="5,2" d="M308.903,-205.546C334.961,-200.544 370.523,-192.816 401,-183 415.937,-178.189 432.215,-171.232 444.55,-165.584"/>
<polygon fill="#9a32cd" stroke="#9a32cd" points="308.245,-202.108 299.062,-207.393 309.536,-208.988 308.245,-202.108"/>
<text text-anchor="middle" x="372.5" y="-202" font-family="Helvetica,sans-Serif" font-size="10.00"> timers</text>
</g>
<!-- Node6 -->
<g id="node6" class="node"><title>Node6</title>
<g id="a_node6"><a xlink:href="structcl__plist.xhtml" target="_top" xlink:title="Pair list data. ">
<polygon fill="white" stroke="black" points="247.5,-164.5 247.5,-183.5 294.5,-183.5 294.5,-164.5 247.5,-164.5"/>
<text text-anchor="middle" x="271" y="-171.5" font-family="Helvetica,sans-Serif" font-size="10.00">cl_plist</text>
</a>
</g>
</g>
<!-- Node6&#45;&gt;Node1 -->
<g id="edge5" class="edge"><title>Node6&#45;&gt;Node1</title>
<path fill="none" stroke="#9a32cd" stroke-dasharray="5,2" d="M304.795,-170.933C336.104,-168.006 383.569,-163.568 418.623,-160.29"/>
<polygon fill="#9a32cd" stroke="#9a32cd" points="304.469,-167.449 294.838,-171.864 305.121,-174.418 304.469,-167.449"/>
<text text-anchor="middle" x="372.5" y="-171" font-family="Helvetica,sans-Serif" font-size="10.00"> plist</text>
</g>
<!-- Node7 -->
<g id="node7" class="node"><title>Node7</title>
<g id="a_node7"><a xlink:href="structgmx__wallclock__gpu__t.xhtml" target="_top" xlink:title="GPU timings for kernels and H2d/D2H transfers. ">
<polygon fill="white" stroke="black" points="216,-126.5 216,-145.5 326,-145.5 326,-126.5 216,-126.5"/>
<text text-anchor="middle" x="271" y="-133.5" font-family="Helvetica,sans-Serif" font-size="10.00">gmx_wallclock_gpu_t</text>
</a>
</g>
</g>
<!-- Node7&#45;&gt;Node1 -->
<g id="edge6" class="edge"><title>Node7&#45;&gt;Node1</title>
<path fill="none" stroke="#9a32cd" stroke-dasharray="5,2" d="M335.995,-141.538C356.747,-143.445 379.864,-145.686 401,-148 406.744,-148.629 412.774,-149.332 418.737,-150.054"/>
<polygon fill="#9a32cd" stroke="#9a32cd" points="336.293,-138.051 326.017,-140.63 335.659,-145.022 336.293,-138.051"/>
<text text-anchor="middle" x="372.5" y="-151" font-family="Helvetica,sans-Serif" font-size="10.00"> timings</text>
</g>
<!-- Node8 -->
<g id="node8" class="node"><title>Node8</title>
<g id="a_node8"><a xlink:href="structgmx__nbnxn__kernel__timing__data__t.xhtml" target="_top" xlink:title="Nonbonded kernel time and call count. ">
<polygon fill="white" stroke="black" points="0,-121 0,-151 130,-151 130,-121 0,-121"/>
<text text-anchor="start" x="8" y="-139" font-family="Helvetica,sans-Serif" font-size="10.00">gmx_nbnxn_kernel_timing</text>
<text text-anchor="middle" x="65" y="-128" font-family="Helvetica,sans-Serif" font-size="10.00">_data_t</text>
</a>
</g>
</g>
<!-- Node8&#45;&gt;Node7 -->
<g id="edge7" class="edge"><title>Node8&#45;&gt;Node7</title>
<path fill="none" stroke="#9a32cd" stroke-dasharray="5,2" d="M140.451,-136C165.46,-136 192.858,-136 215.991,-136"/>
<polygon fill="#9a32cd" stroke="#9a32cd" points="140.267,-132.5 130.267,-136 140.267,-139.5 140.267,-132.5"/>
<text text-anchor="middle" x="173" y="-139" font-family="Helvetica,sans-Serif" font-size="10.00"> ktime</text>
</g>
<!-- Node9 -->
<g id="node9" class="node"><title>Node9</title>
<g id="a_node9"><a xlink:href="structcl__nb__staging.xhtml" target="_top" xlink:title="Staging area for temporary data downloaded from the GPU. ">
<polygon fill="white" stroke="black" points="232.5,-88.5 232.5,-107.5 309.5,-107.5 309.5,-88.5 232.5,-88.5"/>
<text text-anchor="middle" x="271" y="-95.5" font-family="Helvetica,sans-Serif" font-size="10.00">cl_nb_staging</text>
</a>
</g>
</g>
<!-- Node9&#45;&gt;Node1 -->
<g id="edge8" class="edge"><title>Node9&#45;&gt;Node1</title>
<path fill="none" stroke="#9a32cd" stroke-dasharray="5,2" d="M319.591,-106.849C344.2,-111.98 374.544,-119.177 401,-128 416.316,-133.108 432.996,-140.54 445.416,-146.464"/>
<polygon fill="#9a32cd" stroke="#9a32cd" points="320.268,-103.415 309.771,-104.847 318.87,-110.274 320.268,-103.415"/>
<text text-anchor="middle" x="372.5" y="-131" font-family="Helvetica,sans-Serif" font-size="10.00"> nbst</text>
</g>
<!-- Node10 -->
<g id="node10" class="node"><title>Node10</title>
<g id="a_node10"><a xlink:href="structgmx__device__runtime__data__t.xhtml" target="_top" xlink:title="OpenCL GPU runtime data. ">
<polygon fill="white" stroke="black" points="217.5,-39 217.5,-69 324.5,-69 324.5,-39 217.5,-39"/>
<text text-anchor="start" x="225.5" y="-57" font-family="Helvetica,sans-Serif" font-size="10.00">gmx_device_runtime</text>
<text text-anchor="middle" x="271" y="-46" font-family="Helvetica,sans-Serif" font-size="10.00">_data_t</text>
</a>
</g>
</g>
<!-- Node10&#45;&gt;Node1 -->
<g id="edge9" class="edge"><title>Node10&#45;&gt;Node1</title>
<path fill="none" stroke="#9a32cd" stroke-dasharray="5,2" d="M334.241,-69.55C356.203,-76.4826 380.512,-85.8736 401,-98 423.614,-111.385 445.147,-133.78 456.397,-146.469"/>
<polygon fill="#9a32cd" stroke="#9a32cd" points="335.251,-66.199 324.665,-66.6329 333.211,-72.8952 335.251,-66.199"/>
<text text-anchor="middle" x="372.5" y="-101" font-family="Helvetica,sans-Serif" font-size="10.00"> dev_rundata</text>
</g>
<!-- Node11 -->
<g id="node11" class="node"><title>Node11</title>
<g id="a_node11"><a xlink:href="structcl__nbparam.xhtml" target="_top" xlink:title="Parameters required for the OpenCL nonbonded calculations. ">
<polygon fill="white" stroke="black" points="237.5,-0.5 237.5,-19.5 304.5,-19.5 304.5,-0.5 237.5,-0.5"/>
<text text-anchor="middle" x="271" y="-7.5" font-family="Helvetica,sans-Serif" font-size="10.00">cl_nbparam</text>
</a>
</g>
</g>
<!-- Node11&#45;&gt;Node1 -->
<g id="edge10" class="edge"><title>Node11&#45;&gt;Node1</title>
<path fill="none" stroke="#9a32cd" stroke-dasharray="5,2" d="M314.571,-18.7996C341.578,-26.0513 376.011,-38.5503 401,-59 431.375,-83.8574 452.319,-127.127 460.576,-146.336"/>
<polygon fill="#9a32cd" stroke="#9a32cd" points="315.173,-15.3415 304.619,-16.2716 313.449,-22.126 315.173,-15.3415"/>
<text text-anchor="middle" x="372.5" y="-62" font-family="Helvetica,sans-Serif" font-size="10.00"> nbparam</text>
</g>
</g>
</svg>
