<?xml version="1.0" encoding="UTF-8" standalone="no"?>
<!DOCTYPE svg PUBLIC "-//W3C//DTD SVG 1.1//EN"
 "http://www.w3.org/Graphics/SVG/1.1/DTD/svg11.dtd">
<!-- Generated by graphviz version 2.38.0 (20140413.2041)
 -->
<!-- Title: src/gromacs/random/tabulatednormaldistribution.h Pages: 1 -->
<svg width="314pt" height="106pt"
 viewBox="0.00 0.00 313.50 106.00" xmlns="http://www.w3.org/2000/svg" xmlns:xlink="http://www.w3.org/1999/xlink">
<g id="graph0" class="graph" transform="scale(1 1) rotate(0) translate(4 102)">
<title>src/gromacs/random/tabulatednormaldistribution.h</title>
<polygon fill="white" stroke="none" points="-4,4 -4,-102 309.5,-102 309.5,4 -4,4"/>
<!-- Node1 -->
<g id="node1" class="node"><title>Node1</title>
<polygon fill="#bfbfbf" stroke="black" points="63,-67.5 63,-97.5 207,-97.5 207,-67.5 63,-67.5"/>
<text text-anchor="start" x="71" y="-85.5" font-family="Helvetica,sans-Serif" font-size="10.00">src/gromacs/random</text>
<text text-anchor="middle" x="135" y="-74.5" font-family="Helvetica,sans-Serif" font-size="10.00">/tabulatednormaldistribution.h</text>
</g>
<!-- Node2 -->
<g id="node2" class="node"><title>Node2</title>
<g id="a_node2"><a xlink:href="gmx__wham_8cpp.xhtml" target="_top" xlink:title="Implementation of the Weighted Histogram Analysis Method (WHAM) ">
<polygon fill="white" stroke="black" points="0,-0.5 0,-30.5 108,-30.5 108,-0.5 0,-0.5"/>
<text text-anchor="start" x="8" y="-18.5" font-family="Helvetica,sans-Serif" font-size="10.00">src/gromacs/gmxana</text>
<text text-anchor="middle" x="54" y="-7.5" font-family="Helvetica,sans-Serif" font-size="10.00">/gmx_wham.cpp</text>
</a>
</g>
</g>
<!-- Node1&#45;&gt;Node2 -->
<g id="edge1" class="edge"><title>Node1&#45;&gt;Node2</title>
<path fill="none" stroke="midnightblue" d="M109.308,-60.8832C96.9991,-51.0054 82.5734,-39.4293 71.5415,-30.5765"/>
<polygon fill="midnightblue" stroke="midnightblue" points="107.434,-63.867 117.424,-67.396 111.815,-58.4075 107.434,-63.867"/>
</g>
<!-- Node3 -->
<g id="node3" class="node"><title>Node3</title>
<g id="a_node3"><a xlink:href="tests_2tabulatednormaldistribution_8cpp.xhtml" target="_top" xlink:title="Tests for GROMACS tabulated normal distribution. ">
<polygon fill="white" stroke="black" points="126.5,-0.5 126.5,-30.5 305.5,-30.5 305.5,-0.5 126.5,-0.5"/>
<text text-anchor="start" x="134.5" y="-18.5" font-family="Helvetica,sans-Serif" font-size="10.00">src/gromacs/random</text>
<text text-anchor="middle" x="216" y="-7.5" font-family="Helvetica,sans-Serif" font-size="10.00">/tests/tabulatednormaldistribution.cpp</text>
</a>
</g>
</g>
<!-- Node1&#45;&gt;Node3 -->
<g id="edge2" class="edge"><title>Node1&#45;&gt;Node3</title>
<path fill="none" stroke="midnightblue" d="M160.692,-60.8832C173.001,-51.0054 187.427,-39.4293 198.459,-30.5765"/>
<polygon fill="midnightblue" stroke="midnightblue" points="158.185,-58.4075 152.576,-67.396 162.566,-63.867 158.185,-58.4075"/>
</g>
</g>
</svg>
