<?xml version="1.0" encoding="UTF-8" standalone="no"?>
<!DOCTYPE svg PUBLIC "-//W3C//DTD SVG 1.1//EN"
 "http://www.w3.org/Graphics/SVG/1.1/DTD/svg11.dtd">
<!-- Generated by graphviz version 2.38.0 (20140413.2041)
 -->
<!-- Title: src/testutils/testfileredirector.cpp Pages: 1 -->
<svg width="942pt" height="252pt"
 viewBox="0.00 0.00 942.24 252.00" xmlns="http://www.w3.org/2000/svg" xmlns:xlink="http://www.w3.org/1999/xlink">
<g id="graph0" class="graph" transform="scale(1 1) rotate(0) translate(4 248)">
<title>src/testutils/testfileredirector.cpp</title>
<polygon fill="white" stroke="none" points="-4,4 -4,-248 938.24,-248 938.24,4 -4,4"/>
<!-- Node1 -->
<g id="node1" class="node"><title>Node1</title>
<polygon fill="#bfbfbf" stroke="black" points="372,-224.5 372,-243.5 531,-243.5 531,-224.5 372,-224.5"/>
<text text-anchor="middle" x="451.5" y="-231.5" font-family="Helvetica,sans-Serif" font-size="10.00">src/testutils/testfileredirector.cpp</text>
</g>
<!-- Node2 -->
<g id="node2" class="node"><title>Node2</title>
<g id="a_node2"><a xlink:href="gmxpre_8h.xhtml" target="_top" xlink:title="Prerequisite header file for GROMACS build. ">
<polygon fill="white" stroke="black" points="0,-168.5 0,-187.5 57,-187.5 57,-168.5 0,-168.5"/>
<text text-anchor="middle" x="28.5" y="-175.5" font-family="Helvetica,sans-Serif" font-size="10.00">gmxpre.h</text>
</a>
</g>
</g>
<!-- Node1&#45;&gt;Node2 -->
<g id="edge1" class="edge"><title>Node1&#45;&gt;Node2</title>
<path fill="none" stroke="midnightblue" d="M371.882,-225.64C294.797,-218.028 174.761,-204.887 71.5,-188 70.0416,-187.762 68.5577,-187.508 67.0605,-187.242"/>
<polygon fill="midnightblue" stroke="midnightblue" points="67.5919,-183.78 57.1151,-185.357 66.2885,-190.658 67.5919,-183.78"/>
</g>
<!-- Node3 -->
<g id="node3" class="node"><title>Node3</title>
<g id="a_node3"><a xlink:href="testfileredirector_8h.xhtml" target="_top" xlink:title="Declares generic mock implementations for interfaces in fileredirector.h. ">
<polygon fill="white" stroke="black" points="303,-168.5 303,-187.5 398,-187.5 398,-168.5 303,-168.5"/>
<text text-anchor="middle" x="350.5" y="-175.5" font-family="Helvetica,sans-Serif" font-size="10.00">testfileredirector.h</text>
</a>
</g>
</g>
<!-- Node1&#45;&gt;Node3 -->
<g id="edge2" class="edge"><title>Node1&#45;&gt;Node3</title>
<path fill="none" stroke="midnightblue" d="M435.273,-224.324C419.149,-215.703 394.2,-202.364 375.536,-192.386"/>
<polygon fill="midnightblue" stroke="midnightblue" points="377.156,-189.283 366.687,-187.655 373.856,-195.456 377.156,-189.283"/>
</g>
<!-- Node4 -->
<g id="node4" class="node"><title>Node4</title>
<polygon fill="white" stroke="#bfbfbf" points="113.5,-112.5 113.5,-131.5 143.5,-131.5 143.5,-112.5 113.5,-112.5"/>
<text text-anchor="middle" x="128.5" y="-119.5" font-family="Helvetica,sans-Serif" font-size="10.00">set</text>
</g>
<!-- Node1&#45;&gt;Node4 -->
<g id="edge16" class="edge"><title>Node1&#45;&gt;Node4</title>
<path fill="none" stroke="midnightblue" d="M417.918,-224.457C385.731,-216.029 335.915,-202.356 293.5,-188 242.975,-170.899 185.266,-147.174 153.237,-133.624"/>
<polygon fill="midnightblue" stroke="midnightblue" points="154.355,-130.295 143.782,-129.603 151.615,-136.737 154.355,-130.295"/>
</g>
<!-- Node5 -->
<g id="node5" class="node"><title>Node5</title>
<polygon fill="white" stroke="#bfbfbf" points="208,-0.5 208,-19.5 249,-19.5 249,-0.5 208,-0.5"/>
<text text-anchor="middle" x="228.5" y="-7.5" font-family="Helvetica,sans-Serif" font-size="10.00">string</text>
</g>
<!-- Node1&#45;&gt;Node5 -->
<g id="edge17" class="edge"><title>Node1&#45;&gt;Node5</title>
<path fill="none" stroke="midnightblue" d="M388.788,-224.449C297.624,-210.512 135.91,-179.586 104.5,-132 73.7804,-85.4591 152.59,-42.8673 198.397,-22.9141"/>
<polygon fill="midnightblue" stroke="midnightblue" points="200.047,-26.0165 207.891,-18.8949 197.318,-19.5704 200.047,-26.0165"/>
</g>
<!-- Node7 -->
<g id="node7" class="node"><title>Node7</title>
<polygon fill="white" stroke="#bfbfbf" points="728.5,-0.5 728.5,-19.5 780.5,-19.5 780.5,-0.5 728.5,-0.5"/>
<text text-anchor="middle" x="754.5" y="-7.5" font-family="Helvetica,sans-Serif" font-size="10.00">memory</text>
</g>
<!-- Node1&#45;&gt;Node7 -->
<g id="edge15" class="edge"><title>Node1&#45;&gt;Node7</title>
<path fill="none" stroke="midnightblue" d="M531.153,-229.166C655.145,-221.195 884.504,-197.712 926.5,-132 963.765,-73.6915 851.568,-35.3968 790.797,-19.4423"/>
<polygon fill="midnightblue" stroke="midnightblue" points="791.36,-15.974 780.806,-16.8981 789.633,-22.7575 791.36,-15.974"/>
</g>
<!-- Node10 -->
<g id="node10" class="node"><title>Node10</title>
<polygon fill="white" stroke="#bfbfbf" points="378.5,-0.5 378.5,-19.5 418.5,-19.5 418.5,-0.5 378.5,-0.5"/>
<text text-anchor="middle" x="398.5" y="-7.5" font-family="Helvetica,sans-Serif" font-size="10.00">utility</text>
</g>
<!-- Node1&#45;&gt;Node10 -->
<g id="edge18" class="edge"><title>Node1&#45;&gt;Node10</title>
<path fill="none" stroke="midnightblue" d="M452.17,-224.136C453.847,-197.558 456.506,-116.632 432.5,-56 428.327,-45.4591 420.974,-35.2482 414.171,-27.2249"/>
<polygon fill="midnightblue" stroke="midnightblue" points="416.725,-24.8309 407.437,-19.7336 411.519,-29.5105 416.725,-24.8309"/>
</g>
<!-- Node11 -->
<g id="node11" class="node"><title>Node11</title>
<polygon fill="white" stroke="#bfbfbf" points="467.5,-0.5 467.5,-19.5 511.5,-19.5 511.5,-0.5 467.5,-0.5"/>
<text text-anchor="middle" x="489.5" y="-7.5" font-family="Helvetica,sans-Serif" font-size="10.00">vector</text>
</g>
<!-- Node1&#45;&gt;Node11 -->
<g id="edge19" class="edge"><title>Node1&#45;&gt;Node11</title>
<path fill="none" stroke="midnightblue" d="M481.172,-224.373C534.519,-206.85 643.084,-161.327 664.5,-76 666.664,-67.3785 669.947,-63.0246 664.5,-56 647.157,-33.6331 567.318,-20.44 521.701,-14.6007"/>
<polygon fill="midnightblue" stroke="midnightblue" points="522.063,-11.1189 511.71,-13.3692 521.207,-18.0664 522.063,-11.1189"/>
</g>
<!-- Node13 -->
<g id="node13" class="node"><title>Node13</title>
<g id="a_node13"><a xlink:href="stringstream_8h.xhtml" target="_top" xlink:title="Declares implementations for textstream.h interfaces for input/output to in&#45;memory strings...">
<polygon fill="white" stroke="black" points="479.5,-112.5 479.5,-131.5 625.5,-131.5 625.5,-112.5 479.5,-112.5"/>
<text text-anchor="middle" x="552.5" y="-119.5" font-family="Helvetica,sans-Serif" font-size="10.00">gromacs/utility/stringstream.h</text>
</a>
</g>
</g>
<!-- Node1&#45;&gt;Node13 -->
<g id="edge20" class="edge"><title>Node1&#45;&gt;Node13</title>
<path fill="none" stroke="midnightblue" d="M459.425,-224.368C476.314,-205.974 516.075,-162.671 537.761,-139.052"/>
<polygon fill="midnightblue" stroke="midnightblue" points="540.426,-141.325 544.612,-131.591 535.27,-136.59 540.426,-141.325"/>
</g>
<!-- Node14 -->
<g id="node14" class="node"><title>Node14</title>
<g id="a_node14"><a xlink:href="stringtest_8h.xhtml" target="_top" xlink:title="Declares gmx::test::StringTestBase. ">
<polygon fill="white" stroke="black" points="693,-168.5 693,-187.5 796,-187.5 796,-168.5 693,-168.5"/>
<text text-anchor="middle" x="744.5" y="-175.5" font-family="Helvetica,sans-Serif" font-size="10.00">testutils/stringtest.h</text>
</a>
</g>
</g>
<!-- Node1&#45;&gt;Node14 -->
<g id="edge24" class="edge"><title>Node1&#45;&gt;Node14</title>
<path fill="none" stroke="midnightblue" d="M497.927,-224.444C549.576,-214.925 633.012,-199.547 688.307,-189.356"/>
<polygon fill="midnightblue" stroke="midnightblue" points="689.091,-192.771 698.29,-187.516 687.822,-185.887 689.091,-192.771"/>
</g>
<!-- Node3&#45;&gt;Node4 -->
<g id="edge3" class="edge"><title>Node3&#45;&gt;Node4</title>
<path fill="none" stroke="midnightblue" d="M309.997,-168.444C270.798,-159.955 209.797,-146.192 157.5,-132 156.241,-131.658 154.954,-131.299 153.657,-130.927"/>
<polygon fill="midnightblue" stroke="midnightblue" points="154.375,-127.489 143.791,-127.971 152.366,-134.194 154.375,-127.489"/>
</g>
<!-- Node3&#45;&gt;Node5 -->
<g id="edge4" class="edge"><title>Node3&#45;&gt;Node5</title>
<path fill="none" stroke="midnightblue" d="M302.854,-169.55C262.263,-162.116 208.498,-149.309 195.5,-132 175.217,-104.99 184.991,-88.1014 195.5,-56 198.99,-45.3397 206.073,-35.1174 212.786,-27.1175"/>
<polygon fill="midnightblue" stroke="midnightblue" points="215.404,-29.4395 219.48,-19.66 210.195,-24.7633 215.404,-29.4395"/>
</g>
<!-- Node6 -->
<g id="node6" class="node"><title>Node6</title>
<g id="a_node6"><a xlink:href="classhelpers_8h.xhtml" target="_top" xlink:title="Declares common utility classes and macros. ">
<polygon fill="white" stroke="black" points="681.5,-112.5 681.5,-131.5 827.5,-131.5 827.5,-112.5 681.5,-112.5"/>
<text text-anchor="middle" x="754.5" y="-119.5" font-family="Helvetica,sans-Serif" font-size="10.00">gromacs/utility/classhelpers.h</text>
</a>
</g>
</g>
<!-- Node3&#45;&gt;Node6 -->
<g id="edge5" class="edge"><title>Node3&#45;&gt;Node6</title>
<path fill="none" stroke="midnightblue" d="M398.032,-170.647C467.812,-161.32 598.595,-143.839 680.868,-132.842"/>
<polygon fill="midnightblue" stroke="midnightblue" points="681.453,-136.295 690.901,-131.501 680.526,-129.357 681.453,-136.295"/>
</g>
<!-- Node8 -->
<g id="node8" class="node"><title>Node8</title>
<g id="a_node8"><a xlink:href="fileredirector_8h.xhtml" target="_top" xlink:title="Declares gmx::IFileOutputRedirector. ">
<polygon fill="white" stroke="black" points="278,-112.5 278,-131.5 423,-131.5 423,-112.5 278,-112.5"/>
<text text-anchor="middle" x="350.5" y="-119.5" font-family="Helvetica,sans-Serif" font-size="10.00">gromacs/utility/fileredirector.h</text>
</a>
</g>
</g>
<!-- Node3&#45;&gt;Node8 -->
<g id="edge7" class="edge"><title>Node3&#45;&gt;Node8</title>
<path fill="none" stroke="midnightblue" d="M350.5,-168.083C350.5,-161.006 350.5,-150.861 350.5,-141.986"/>
<polygon fill="midnightblue" stroke="midnightblue" points="354,-141.751 350.5,-131.751 347,-141.751 354,-141.751"/>
</g>
<!-- Node6&#45;&gt;Node7 -->
<g id="edge6" class="edge"><title>Node6&#45;&gt;Node7</title>
<path fill="none" stroke="midnightblue" d="M754.5,-112.368C754.5,-94.617 754.5,-53.6664 754.5,-29.5974"/>
<polygon fill="midnightblue" stroke="midnightblue" points="758,-29.5914 754.5,-19.5914 751,-29.5915 758,-29.5914"/>
</g>
<!-- Node8&#45;&gt;Node5 -->
<g id="edge8" class="edge"><title>Node8&#45;&gt;Node5</title>
<path fill="none" stroke="midnightblue" d="M329.635,-112.408C312.619,-104.675 288.675,-92.0667 271.5,-76 257.029,-62.4628 245.042,-43.1413 237.433,-29.0841"/>
<polygon fill="midnightblue" stroke="midnightblue" points="240.402,-27.2055 232.694,-19.9367 234.187,-30.4258 240.402,-27.2055"/>
</g>
<!-- Node9 -->
<g id="node9" class="node"><title>Node9</title>
<g id="a_node9"><a xlink:href="path_8h.xhtml" target="_top" xlink:title="Declares functions for OS&#45;independent path handling. ">
<polygon fill="white" stroke="black" points="313.5,-56.5 313.5,-75.5 423.5,-75.5 423.5,-56.5 313.5,-56.5"/>
<text text-anchor="middle" x="368.5" y="-63.5" font-family="Helvetica,sans-Serif" font-size="10.00">gromacs/utility/path.h</text>
</a>
</g>
</g>
<!-- Node8&#45;&gt;Node9 -->
<g id="edge9" class="edge"><title>Node8&#45;&gt;Node9</title>
<path fill="none" stroke="midnightblue" d="M353.472,-112.083C355.884,-104.849 359.364,-94.4087 362.368,-85.3968"/>
<polygon fill="midnightblue" stroke="midnightblue" points="365.741,-86.3447 365.583,-75.7511 359.1,-84.1311 365.741,-86.3447"/>
</g>
<!-- Node12 -->
<g id="node12" class="node"><title>Node12</title>
<g id="a_node12"><a xlink:href="textstream_8h.xhtml" target="_top" xlink:title="Declares interfaces for simple input/output streams. ">
<polygon fill="white" stroke="black" points="517.5,-56.5 517.5,-75.5 655.5,-75.5 655.5,-56.5 517.5,-56.5"/>
<text text-anchor="middle" x="586.5" y="-63.5" font-family="Helvetica,sans-Serif" font-size="10.00">gromacs/utility/textstream.h</text>
</a>
</g>
</g>
<!-- Node8&#45;&gt;Node12 -->
<g id="edge13" class="edge"><title>Node8&#45;&gt;Node12</title>
<path fill="none" stroke="midnightblue" d="M387.895,-112.444C428.892,-103.063 494.754,-87.9926 539.284,-77.8036"/>
<polygon fill="midnightblue" stroke="midnightblue" points="540.313,-81.1588 549.28,-75.5164 538.751,-74.3352 540.313,-81.1588"/>
</g>
<!-- Node9&#45;&gt;Node5 -->
<g id="edge10" class="edge"><title>Node9&#45;&gt;Node5</title>
<path fill="none" stroke="midnightblue" d="M346.317,-56.4435C322.661,-47.3194 285.051,-32.8125 258.704,-22.6501"/>
<polygon fill="midnightblue" stroke="midnightblue" points="259.8,-19.3216 249.21,-18.9883 257.281,-25.8526 259.8,-19.3216"/>
</g>
<!-- Node9&#45;&gt;Node10 -->
<g id="edge11" class="edge"><title>Node9&#45;&gt;Node10</title>
<path fill="none" stroke="midnightblue" d="M373.454,-56.083C377.604,-48.6127 383.653,-37.7244 388.767,-28.5199"/>
<polygon fill="midnightblue" stroke="midnightblue" points="391.841,-30.1924 393.638,-19.7511 385.722,-26.7929 391.841,-30.1924"/>
</g>
<!-- Node9&#45;&gt;Node11 -->
<g id="edge12" class="edge"><title>Node9&#45;&gt;Node11</title>
<path fill="none" stroke="midnightblue" d="M387.673,-56.4435C407.409,-47.6356 438.385,-33.8116 460.993,-23.722"/>
<polygon fill="midnightblue" stroke="midnightblue" points="462.711,-26.788 470.417,-19.5164 459.859,-20.3957 462.711,-26.788"/>
</g>
<!-- Node12&#45;&gt;Node7 -->
<g id="edge14" class="edge"><title>Node12&#45;&gt;Node7</title>
<path fill="none" stroke="midnightblue" d="M613.12,-56.4435C641.589,-47.2928 686.902,-32.7279 718.531,-22.5614"/>
<polygon fill="midnightblue" stroke="midnightblue" points="719.832,-25.8198 728.281,-19.4275 717.69,-19.1556 719.832,-25.8198"/>
</g>
<!-- Node13&#45;&gt;Node5 -->
<g id="edge21" class="edge"><title>Node13&#45;&gt;Node5</title>
<path fill="none" stroke="midnightblue" d="M479.422,-117.799C428.324,-113.204 359.637,-102.195 304.5,-76 279.889,-64.3075 256.891,-42.523 242.777,-27.4141"/>
<polygon fill="midnightblue" stroke="midnightblue" points="245.203,-24.8782 235.897,-19.8137 240.013,-29.5761 245.203,-24.8782"/>
</g>
<!-- Node13&#45;&gt;Node11 -->
<g id="edge22" class="edge"><title>Node13&#45;&gt;Node11</title>
<path fill="none" stroke="midnightblue" d="M541.157,-112.179C531.193,-103.859 516.996,-90.5244 508.5,-76 500.06,-61.5704 495.134,-43.1178 492.422,-29.5626"/>
<polygon fill="midnightblue" stroke="midnightblue" points="495.834,-28.7564 490.637,-19.5238 488.942,-29.9822 495.834,-28.7564"/>
</g>
<!-- Node13&#45;&gt;Node12 -->
<g id="edge23" class="edge"><title>Node13&#45;&gt;Node12</title>
<path fill="none" stroke="midnightblue" d="M558.114,-112.083C562.867,-104.534 569.818,-93.4948 575.652,-84.2298"/>
<polygon fill="midnightblue" stroke="midnightblue" points="578.624,-86.0783 580.99,-75.7511 572.7,-82.3486 578.624,-86.0783"/>
</g>
<!-- Node14&#45;&gt;Node5 -->
<g id="edge25" class="edge"><title>Node14&#45;&gt;Node5</title>
<path fill="none" stroke="midnightblue" d="M692.979,-175.277C576.64,-170.944 301.16,-158.029 268.5,-132 237.313,-107.145 230.213,-57.3038 228.742,-29.9844"/>
<polygon fill="midnightblue" stroke="midnightblue" points="232.234,-29.6713 228.403,-19.7935 225.238,-29.9045 232.234,-29.6713"/>
</g>
<!-- Node14&#45;&gt;Node6 -->
<g id="edge27" class="edge"><title>Node14&#45;&gt;Node6</title>
<path fill="none" stroke="midnightblue" d="M746.151,-168.083C747.476,-160.927 749.382,-150.635 751.039,-141.691"/>
<polygon fill="midnightblue" stroke="midnightblue" points="754.5,-142.221 752.879,-131.751 747.617,-140.947 754.5,-142.221"/>
</g>
<!-- Node15 -->
<g id="node15" class="node"><title>Node15</title>
<polygon fill="white" stroke="#bfbfbf" points="846,-112.5 846,-131.5 917,-131.5 917,-112.5 846,-112.5"/>
<text text-anchor="middle" x="881.5" y="-119.5" font-family="Helvetica,sans-Serif" font-size="10.00">gtest/gtest.h</text>
</g>
<!-- Node14&#45;&gt;Node15 -->
<g id="edge26" class="edge"><title>Node14&#45;&gt;Node15</title>
<path fill="none" stroke="midnightblue" d="M766.208,-168.444C788.855,-159.517 824.572,-145.439 850.252,-135.317"/>
<polygon fill="midnightblue" stroke="midnightblue" points="851.874,-138.44 859.894,-131.516 849.307,-131.927 851.874,-138.44"/>
</g>
</g>
</svg>
