<?xml version="1.0" encoding="UTF-8" standalone="no"?>
<!DOCTYPE svg PUBLIC "-//W3C//DTD SVG 1.1//EN"
 "http://www.w3.org/Graphics/SVG/1.1/DTD/svg11.dtd">
<!-- Generated by graphviz version 2.38.0 (20140413.2041)
 -->
<!-- Title: src/testutils/textblockmatchers.cpp Pages: 1 -->
<svg width="770pt" height="196pt"
 viewBox="0.00 0.00 770.00 196.00" xmlns="http://www.w3.org/2000/svg" xmlns:xlink="http://www.w3.org/1999/xlink">
<g id="graph0" class="graph" transform="scale(1 1) rotate(0) translate(4 192)">
<title>src/testutils/textblockmatchers.cpp</title>
<polygon fill="white" stroke="none" points="-4,4 -4,-192 766,-192 766,4 -4,4"/>
<!-- Node1 -->
<g id="node1" class="node"><title>Node1</title>
<polygon fill="#bfbfbf" stroke="black" points="111.5,-168.5 111.5,-187.5 281.5,-187.5 281.5,-168.5 111.5,-168.5"/>
<text text-anchor="middle" x="196.5" y="-175.5" font-family="Helvetica,sans-Serif" font-size="10.00">src/testutils/textblockmatchers.cpp</text>
</g>
<!-- Node2 -->
<g id="node2" class="node"><title>Node2</title>
<g id="a_node2"><a xlink:href="gmxpre_8h.xhtml" target="_top" xlink:title="Prerequisite header file for GROMACS build. ">
<polygon fill="white" stroke="black" points="0,-112.5 0,-131.5 57,-131.5 57,-112.5 0,-112.5"/>
<text text-anchor="middle" x="28.5" y="-119.5" font-family="Helvetica,sans-Serif" font-size="10.00">gmxpre.h</text>
</a>
</g>
</g>
<!-- Node1&#45;&gt;Node2 -->
<g id="edge1" class="edge"><title>Node1&#45;&gt;Node2</title>
<path fill="none" stroke="midnightblue" d="M169.88,-168.444C141.494,-159.32 96.3635,-144.813 64.7473,-134.651"/>
<polygon fill="midnightblue" stroke="midnightblue" points="65.5869,-131.244 54.9956,-131.516 63.4448,-137.909 65.5869,-131.244"/>
</g>
<!-- Node3 -->
<g id="node3" class="node"><title>Node3</title>
<g id="a_node3"><a xlink:href="textblockmatchers_8h.xhtml" target="_top" xlink:title="Declares utility classes for testing multi&#45;line strings against reference data. ">
<polygon fill="white" stroke="black" points="75,-112.5 75,-131.5 180,-131.5 180,-112.5 75,-112.5"/>
<text text-anchor="middle" x="127.5" y="-119.5" font-family="Helvetica,sans-Serif" font-size="10.00">textblockmatchers.h</text>
</a>
</g>
</g>
<!-- Node1&#45;&gt;Node3 -->
<g id="edge2" class="edge"><title>Node1&#45;&gt;Node3</title>
<path fill="none" stroke="midnightblue" d="M185.414,-168.324C175.014,-160.185 159.239,-147.839 146.778,-138.087"/>
<polygon fill="midnightblue" stroke="midnightblue" points="148.82,-135.241 138.788,-131.834 144.506,-140.753 148.82,-135.241"/>
</g>
<!-- Node6 -->
<g id="node6" class="node"><title>Node6</title>
<g id="a_node6"><a xlink:href="textreader_8h.xhtml" target="_top" xlink:title="Declares gmx::TextReader. ">
<polygon fill="white" stroke="black" points="198,-112.5 198,-131.5 333,-131.5 333,-112.5 198,-112.5"/>
<text text-anchor="middle" x="265.5" y="-119.5" font-family="Helvetica,sans-Serif" font-size="10.00">gromacs/utility/textreader.h</text>
</a>
</g>
</g>
<!-- Node1&#45;&gt;Node6 -->
<g id="edge5" class="edge"><title>Node1&#45;&gt;Node6</title>
<path fill="none" stroke="midnightblue" d="M207.586,-168.324C217.986,-160.185 233.761,-147.839 246.222,-138.087"/>
<polygon fill="midnightblue" stroke="midnightblue" points="248.494,-140.753 254.212,-131.834 244.18,-135.241 248.494,-140.753"/>
</g>
<!-- Node9 -->
<g id="node9" class="node"><title>Node9</title>
<g id="a_node9"><a xlink:href="refdata_8h.xhtml" target="_top" xlink:title="Functionality for writing tests that can produce their own reference data. ">
<polygon fill="white" stroke="black" points="416.5,-112.5 416.5,-131.5 508.5,-131.5 508.5,-112.5 416.5,-112.5"/>
<text text-anchor="middle" x="462.5" y="-119.5" font-family="Helvetica,sans-Serif" font-size="10.00">testutils/refdata.h</text>
</a>
</g>
</g>
<!-- Node1&#45;&gt;Node9 -->
<g id="edge11" class="edge"><title>Node1&#45;&gt;Node9</title>
<path fill="none" stroke="midnightblue" d="M238.648,-168.444C285.246,-158.984 360.344,-143.738 410.545,-133.547"/>
<polygon fill="midnightblue" stroke="midnightblue" points="411.445,-136.936 420.549,-131.516 410.052,-130.076 411.445,-136.936"/>
</g>
<!-- Node4 -->
<g id="node4" class="node"><title>Node4</title>
<polygon fill="white" stroke="#bfbfbf" points="304.5,-0.5 304.5,-19.5 356.5,-19.5 356.5,-0.5 304.5,-0.5"/>
<text text-anchor="middle" x="330.5" y="-7.5" font-family="Helvetica,sans-Serif" font-size="10.00">memory</text>
</g>
<!-- Node3&#45;&gt;Node4 -->
<g id="edge3" class="edge"><title>Node3&#45;&gt;Node4</title>
<path fill="none" stroke="midnightblue" d="M121.414,-112.388C112.678,-98.8723 99.0408,-72.5212 112.5,-56 134.972,-28.4157 237.899,-17.2318 293.918,-13.1264"/>
<polygon fill="midnightblue" stroke="midnightblue" points="294.396,-16.6017 304.13,-12.4183 293.912,-9.61848 294.396,-16.6017"/>
</g>
<!-- Node5 -->
<g id="node5" class="node"><title>Node5</title>
<polygon fill="white" stroke="#bfbfbf" points="122,-56.5 122,-75.5 163,-75.5 163,-56.5 122,-56.5"/>
<text text-anchor="middle" x="142.5" y="-63.5" font-family="Helvetica,sans-Serif" font-size="10.00">string</text>
</g>
<!-- Node3&#45;&gt;Node5 -->
<g id="edge4" class="edge"><title>Node3&#45;&gt;Node5</title>
<path fill="none" stroke="midnightblue" d="M129.977,-112.083C131.986,-104.849 134.886,-94.4087 137.39,-85.3968"/>
<polygon fill="midnightblue" stroke="midnightblue" points="140.765,-86.323 140.069,-75.7511 134.02,-84.4495 140.765,-86.323"/>
</g>
<!-- Node6&#45;&gt;Node5 -->
<g id="edge6" class="edge"><title>Node6&#45;&gt;Node5</title>
<path fill="none" stroke="midnightblue" d="M246.01,-112.444C225.858,-103.596 194.177,-89.6875 171.169,-79.5865"/>
<polygon fill="midnightblue" stroke="midnightblue" points="172.462,-76.3316 161.899,-75.5164 169.648,-82.7411 172.462,-76.3316"/>
</g>
<!-- Node7 -->
<g id="node7" class="node"><title>Node7</title>
<g id="a_node7"><a xlink:href="classhelpers_8h.xhtml" target="_top" xlink:title="Declares common utility classes and macros. ">
<polygon fill="white" stroke="black" points="337.5,-56.5 337.5,-75.5 483.5,-75.5 483.5,-56.5 337.5,-56.5"/>
<text text-anchor="middle" x="410.5" y="-63.5" font-family="Helvetica,sans-Serif" font-size="10.00">gromacs/utility/classhelpers.h</text>
</a>
</g>
</g>
<!-- Node6&#45;&gt;Node7 -->
<g id="edge7" class="edge"><title>Node6&#45;&gt;Node7</title>
<path fill="none" stroke="midnightblue" d="M288.476,-112.444C312.657,-103.438 350.918,-89.1891 378.146,-79.049"/>
<polygon fill="midnightblue" stroke="midnightblue" points="379.482,-82.2864 387.632,-75.5164 377.039,-75.7265 379.482,-82.2864"/>
</g>
<!-- Node8 -->
<g id="node8" class="node"><title>Node8</title>
<g id="a_node8"><a xlink:href="textstream_8h.xhtml" target="_top" xlink:title="Declares interfaces for simple input/output streams. ">
<polygon fill="white" stroke="black" points="181.5,-56.5 181.5,-75.5 319.5,-75.5 319.5,-56.5 181.5,-56.5"/>
<text text-anchor="middle" x="250.5" y="-63.5" font-family="Helvetica,sans-Serif" font-size="10.00">gromacs/utility/textstream.h</text>
</a>
</g>
</g>
<!-- Node6&#45;&gt;Node8 -->
<g id="edge9" class="edge"><title>Node6&#45;&gt;Node8</title>
<path fill="none" stroke="midnightblue" d="M263.023,-112.083C261.014,-104.849 258.114,-94.4087 255.61,-85.3968"/>
<polygon fill="midnightblue" stroke="midnightblue" points="258.98,-84.4495 252.931,-75.7511 252.235,-86.323 258.98,-84.4495"/>
</g>
<!-- Node7&#45;&gt;Node4 -->
<g id="edge8" class="edge"><title>Node7&#45;&gt;Node4</title>
<path fill="none" stroke="midnightblue" d="M397.647,-56.324C385.284,-47.979 366.37,-35.2122 351.763,-25.3524"/>
<polygon fill="midnightblue" stroke="midnightblue" points="353.568,-22.3483 343.321,-19.6545 349.652,-28.1503 353.568,-22.3483"/>
</g>
<!-- Node8&#45;&gt;Node4 -->
<g id="edge10" class="edge"><title>Node8&#45;&gt;Node4</title>
<path fill="none" stroke="midnightblue" d="M263.353,-56.324C275.716,-47.979 294.63,-35.2122 309.237,-25.3524"/>
<polygon fill="midnightblue" stroke="midnightblue" points="311.348,-28.1503 317.679,-19.6545 307.432,-22.3483 311.348,-28.1503"/>
</g>
<!-- Node9&#45;&gt;Node4 -->
<g id="edge13" class="edge"><title>Node9&#45;&gt;Node4</title>
<path fill="none" stroke="midnightblue" d="M472.002,-112.361C485.25,-99.2643 506.188,-74.0086 492.5,-56 477.324,-36.034 409.534,-22.5971 366.599,-15.9197"/>
<polygon fill="midnightblue" stroke="midnightblue" points="366.938,-12.4314 356.529,-14.406 365.897,-19.3537 366.938,-12.4314"/>
</g>
<!-- Node9&#45;&gt;Node5 -->
<g id="edge14" class="edge"><title>Node9&#45;&gt;Node5</title>
<path fill="none" stroke="midnightblue" d="M416.425,-115.836C360.932,-109.179 264.782,-96.2494 173.064,-75.8348"/>
<polygon fill="midnightblue" stroke="midnightblue" points="173.583,-72.364 163.058,-73.5733 172.04,-79.1918 173.583,-72.364"/>
</g>
<!-- Node9&#45;&gt;Node7 -->
<g id="edge18" class="edge"><title>Node9&#45;&gt;Node7</title>
<path fill="none" stroke="midnightblue" d="M453.913,-112.083C446.341,-104.22 435.122,-92.5688 425.986,-83.0813"/>
<polygon fill="midnightblue" stroke="midnightblue" points="428.385,-80.5266 418.927,-75.7511 423.342,-85.3821 428.385,-80.5266"/>
</g>
<!-- Node10 -->
<g id="node10" class="node"><title>Node10</title>
<polygon fill="white" stroke="#bfbfbf" points="540,-56.5 540,-75.5 587,-75.5 587,-56.5 540,-56.5"/>
<text text-anchor="middle" x="563.5" y="-63.5" font-family="Helvetica,sans-Serif" font-size="10.00">iterator</text>
</g>
<!-- Node9&#45;&gt;Node10 -->
<g id="edge12" class="edge"><title>Node9&#45;&gt;Node10</title>
<path fill="none" stroke="midnightblue" d="M478.727,-112.324C494.851,-103.703 519.8,-90.3643 538.464,-80.3855"/>
<polygon fill="midnightblue" stroke="midnightblue" points="540.144,-83.456 547.313,-75.6545 536.844,-77.283 540.144,-83.456"/>
</g>
<!-- Node11 -->
<g id="node11" class="node"><title>Node11</title>
<g id="a_node11"><a xlink:href="basedefinitions_8h.xhtml" target="_top" xlink:title="Basic types and macros used throughout GROMACS. ">
<polygon fill="white" stroke="black" points="605,-56.5 605,-75.5 762,-75.5 762,-56.5 605,-56.5"/>
<text text-anchor="middle" x="683.5" y="-63.5" font-family="Helvetica,sans-Serif" font-size="10.00">gromacs/utility/basedefinitions.h</text>
</a>
</g>
</g>
<!-- Node9&#45;&gt;Node11 -->
<g id="edge15" class="edge"><title>Node9&#45;&gt;Node11</title>
<path fill="none" stroke="midnightblue" d="M497.518,-112.444C535.748,-103.102 597.067,-88.1194 638.757,-77.9326"/>
<polygon fill="midnightblue" stroke="midnightblue" points="639.762,-81.2901 648.646,-75.5164 638.101,-74.4901 639.762,-81.2901"/>
</g>
<!-- Node12 -->
<g id="node12" class="node"><title>Node12</title>
<polygon fill="white" stroke="#bfbfbf" points="695,-0.5 695,-19.5 744,-19.5 744,-0.5 695,-0.5"/>
<text text-anchor="middle" x="719.5" y="-7.5" font-family="Helvetica,sans-Serif" font-size="10.00">stdint.h</text>
</g>
<!-- Node11&#45;&gt;Node12 -->
<g id="edge16" class="edge"><title>Node11&#45;&gt;Node12</title>
<path fill="none" stroke="midnightblue" d="M689.445,-56.083C694.477,-48.5341 701.837,-37.4948 708.013,-28.2298"/>
<polygon fill="midnightblue" stroke="midnightblue" points="711.031,-30.0131 713.666,-19.7511 705.207,-26.1301 711.031,-30.0131"/>
</g>
<!-- Node13 -->
<g id="node13" class="node"><title>Node13</title>
<polygon fill="white" stroke="#bfbfbf" points="618,-0.5 618,-19.5 677,-19.5 677,-0.5 618,-0.5"/>
<text text-anchor="middle" x="647.5" y="-7.5" font-family="Helvetica,sans-Serif" font-size="10.00">inttypes.h</text>
</g>
<!-- Node11&#45;&gt;Node13 -->
<g id="edge17" class="edge"><title>Node11&#45;&gt;Node13</title>
<path fill="none" stroke="midnightblue" d="M677.555,-56.083C672.523,-48.5341 665.163,-37.4948 658.987,-28.2298"/>
<polygon fill="midnightblue" stroke="midnightblue" points="661.793,-26.1301 653.334,-19.7511 655.969,-30.0131 661.793,-26.1301"/>
</g>
</g>
</svg>
