<?xml version="1.0" encoding="UTF-8" standalone="no"?>
<!DOCTYPE svg PUBLIC "-//W3C//DTD SVG 1.1//EN"
 "http://www.w3.org/Graphics/SVG/1.1/DTD/svg11.dtd">
<!-- Generated by graphviz version 2.38.0 (20140413.2041)
 -->
<!-- Title: src/gromacs/utility/textreader.h Pages: 1 -->
<svg width="1170pt" height="106pt"
 viewBox="0.00 0.00 1169.50 106.00" xmlns="http://www.w3.org/2000/svg" xmlns:xlink="http://www.w3.org/1999/xlink">
<g id="graph0" class="graph" transform="scale(1 1) rotate(0) translate(4 102)">
<title>src/gromacs/utility/textreader.h</title>
<polygon fill="white" stroke="none" points="-4,4 -4,-102 1165.5,-102 1165.5,4 -4,4"/>
<!-- Node1 -->
<g id="node1" class="node"><title>Node1</title>
<polygon fill="#bfbfbf" stroke="black" points="508,-67.5 508,-97.5 605,-97.5 605,-67.5 508,-67.5"/>
<text text-anchor="start" x="516" y="-85.5" font-family="Helvetica,sans-Serif" font-size="10.00">src/gromacs/utility</text>
<text text-anchor="middle" x="556.5" y="-74.5" font-family="Helvetica,sans-Serif" font-size="10.00">/textreader.h</text>
</g>
<!-- Node2 -->
<g id="node2" class="node"><title>Node2</title>
<g id="a_node2"><a xlink:href="cmdlinehelpmodule_8cpp.xhtml" target="_top" xlink:title="Implements gmx::CommandLineHelpModule. ">
<polygon fill="white" stroke="black" points="0,-0.5 0,-30.5 131,-30.5 131,-0.5 0,-0.5"/>
<text text-anchor="start" x="8" y="-18.5" font-family="Helvetica,sans-Serif" font-size="10.00">src/gromacs/commandline</text>
<text text-anchor="middle" x="65.5" y="-7.5" font-family="Helvetica,sans-Serif" font-size="10.00">/cmdlinehelpmodule.cpp</text>
</a>
</g>
</g>
<!-- Node1&#45;&gt;Node2 -->
<g id="edge1" class="edge"><title>Node1&#45;&gt;Node2</title>
<path fill="none" stroke="midnightblue" d="M498.026,-75.7095C417.357,-67.4234 267.49,-50.9584 140.5,-31 137.487,-30.5264 134.41,-30.0209 131.304,-29.493"/>
<polygon fill="midnightblue" stroke="midnightblue" points="497.686,-79.1928 507.989,-76.7274 498.397,-72.2291 497.686,-79.1928"/>
</g>
<!-- Node3 -->
<g id="node3" class="node"><title>Node3</title>
<g id="a_node3"><a xlink:href="tests_2solvate_8cpp.xhtml" target="_top" xlink:title="Tests for solvation. ">
<polygon fill="white" stroke="black" points="149.5,-0.5 149.5,-30.5 289.5,-30.5 289.5,-0.5 149.5,-0.5"/>
<text text-anchor="start" x="157.5" y="-18.5" font-family="Helvetica,sans-Serif" font-size="10.00">src/gromacs/gmxpreprocess</text>
<text text-anchor="middle" x="219.5" y="-7.5" font-family="Helvetica,sans-Serif" font-size="10.00">/tests/solvate.cpp</text>
</a>
</g>
</g>
<!-- Node1&#45;&gt;Node3 -->
<g id="edge2" class="edge"><title>Node1&#45;&gt;Node3</title>
<path fill="none" stroke="midnightblue" d="M497.759,-70.1702C439.788,-58.9887 351.132,-41.8889 289.528,-30.007"/>
<polygon fill="midnightblue" stroke="midnightblue" points="497.375,-73.6606 507.857,-72.1179 498.701,-66.7872 497.375,-73.6606"/>
</g>
<!-- Node4 -->
<g id="node4" class="node"><title>Node4</title>
<g id="a_node4"><a xlink:href="ocl__caching_8cpp.xhtml" target="_top" xlink:title="Define infrastructure for OpenCL JIT compilation for Gromacs. ">
<polygon fill="white" stroke="black" points="308,-0.5 308,-30.5 421,-30.5 421,-0.5 308,-0.5"/>
<text text-anchor="start" x="316" y="-18.5" font-family="Helvetica,sans-Serif" font-size="10.00">src/gromacs/gpu_utils</text>
<text text-anchor="middle" x="364.5" y="-7.5" font-family="Helvetica,sans-Serif" font-size="10.00">/ocl_caching.cpp</text>
</a>
</g>
</g>
<!-- Node1&#45;&gt;Node4 -->
<g id="edge3" class="edge"><title>Node1&#45;&gt;Node4</title>
<path fill="none" stroke="midnightblue" d="M505.078,-64.0917C474.084,-53.5988 435.121,-40.4082 406.08,-30.5765"/>
<polygon fill="midnightblue" stroke="midnightblue" points="504.245,-67.5044 514.839,-67.396 506.489,-60.8741 504.245,-67.5044"/>
</g>
<!-- Node5 -->
<g id="node5" class="node"><title>Node5</title>
<g id="a_node5"><a xlink:href="ocl__compiler_8cpp.xhtml" target="_top" xlink:title="Define infrastructure for OpenCL JIT compilation for Gromacs. ">
<polygon fill="white" stroke="black" points="439,-0.5 439,-30.5 552,-30.5 552,-0.5 439,-0.5"/>
<text text-anchor="start" x="447" y="-18.5" font-family="Helvetica,sans-Serif" font-size="10.00">src/gromacs/gpu_utils</text>
<text text-anchor="middle" x="495.5" y="-7.5" font-family="Helvetica,sans-Serif" font-size="10.00">/ocl_compiler.cpp</text>
</a>
</g>
</g>
<!-- Node1&#45;&gt;Node5 -->
<g id="edge4" class="edge"><title>Node1&#45;&gt;Node5</title>
<path fill="none" stroke="midnightblue" d="M536.346,-60.0243C527.257,-50.3398 516.779,-39.1739 508.71,-30.5765"/>
<polygon fill="midnightblue" stroke="midnightblue" points="533.869,-62.4992 543.264,-67.396 538.973,-57.709 533.869,-62.4992"/>
</g>
<!-- Node6 -->
<g id="node6" class="node"><title>Node6</title>
<g id="a_node6"><a xlink:href="textreader_8cpp.xhtml" target="_top" xlink:title="Implements gmx::TextReader. ">
<polygon fill="white" stroke="black" points="570,-0.5 570,-30.5 667,-30.5 667,-0.5 570,-0.5"/>
<text text-anchor="start" x="578" y="-18.5" font-family="Helvetica,sans-Serif" font-size="10.00">src/gromacs/utility</text>
<text text-anchor="middle" x="618.5" y="-7.5" font-family="Helvetica,sans-Serif" font-size="10.00">/textreader.cpp</text>
</a>
</g>
</g>
<!-- Node1&#45;&gt;Node6 -->
<g id="edge5" class="edge"><title>Node1&#45;&gt;Node6</title>
<path fill="none" stroke="midnightblue" d="M576.985,-60.0243C586.222,-50.3398 596.873,-39.1739 605.073,-30.5765"/>
<polygon fill="midnightblue" stroke="midnightblue" points="574.323,-57.7441 569.953,-67.396 579.388,-62.5756 574.323,-57.7441"/>
</g>
<!-- Node7 -->
<g id="node7" class="node"><title>Node7</title>
<g id="a_node7"><a xlink:href="cmdlinetest_8cpp.xhtml" target="_top" xlink:title="Implements classes from cmdlinetest.h. ">
<polygon fill="white" stroke="black" points="685.5,-6 685.5,-25 825.5,-25 825.5,-6 685.5,-6"/>
<text text-anchor="middle" x="755.5" y="-13" font-family="Helvetica,sans-Serif" font-size="10.00">src/testutils/cmdlinetest.cpp</text>
</a>
</g>
</g>
<!-- Node1&#45;&gt;Node7 -->
<g id="edge6" class="edge"><title>Node1&#45;&gt;Node7</title>
<path fill="none" stroke="midnightblue" d="M609.254,-64.2688C648.03,-51.6034 699.062,-34.9344 729.455,-25.007"/>
<polygon fill="midnightblue" stroke="midnightblue" points="608.099,-60.964 599.68,-67.396 610.273,-67.618 608.099,-60.964"/>
</g>
<!-- Node8 -->
<g id="node8" class="node"><title>Node8</title>
<g id="a_node8"><a xlink:href="stringtest_8cpp.xhtml" target="_top" xlink:title="Implements gmx::test::StringTestBase. ">
<polygon fill="white" stroke="black" points="843.5,-6 843.5,-25 973.5,-25 973.5,-6 843.5,-6"/>
<text text-anchor="middle" x="908.5" y="-13" font-family="Helvetica,sans-Serif" font-size="10.00">src/testutils/stringtest.cpp</text>
</a>
</g>
</g>
<!-- Node1&#45;&gt;Node8 -->
<g id="edge7" class="edge"><title>Node1&#45;&gt;Node8</title>
<path fill="none" stroke="midnightblue" d="M615.392,-71.0451C671.693,-60.9927 758.946,-45.264 834.5,-31 844.534,-29.1056 855.323,-27.0196 865.476,-25.0344"/>
<polygon fill="midnightblue" stroke="midnightblue" points="614.48,-67.6526 605.25,-72.8544 615.709,-74.5438 614.48,-67.6526"/>
</g>
<!-- Node9 -->
<g id="node9" class="node"><title>Node9</title>
<g id="a_node9"><a xlink:href="textblockmatchers_8cpp.xhtml" target="_top" xlink:title="Implements classes from textblockmatchers.h. ">
<polygon fill="white" stroke="black" points="991.5,-6 991.5,-25 1161.5,-25 1161.5,-6 991.5,-6"/>
<text text-anchor="middle" x="1076.5" y="-13" font-family="Helvetica,sans-Serif" font-size="10.00">src/testutils/textblockmatchers.cpp</text>
</a>
</g>
</g>
<!-- Node1&#45;&gt;Node9 -->
<g id="edge8" class="edge"><title>Node1&#45;&gt;Node9</title>
<path fill="none" stroke="midnightblue" d="M615.276,-75.1917C697.525,-66.214 851.582,-48.8517 982.5,-31 995.752,-29.1929 1010.03,-27.0778 1023.36,-25.0304"/>
<polygon fill="midnightblue" stroke="midnightblue" points="614.687,-71.7351 605.125,-76.2969 615.445,-78.6939 614.687,-71.7351"/>
</g>
</g>
</svg>
