<?xml version="1.0" encoding="UTF-8" standalone="no"?>
<!DOCTYPE svg PUBLIC "-//W3C//DTD SVG 1.1//EN"
 "http://www.w3.org/Graphics/SVG/1.1/DTD/svg11.dtd">
<!-- Generated by graphviz version 2.38.0 (20140413.2041)
 -->
<!-- Title: src/gromacs/utility/alignedallocator.cpp Pages: 1 -->
<svg width="642pt" height="274pt"
 viewBox="0.00 0.00 642.00 274.00" xmlns="http://www.w3.org/2000/svg" xmlns:xlink="http://www.w3.org/1999/xlink">
<g id="graph0" class="graph" transform="scale(1 1) rotate(0) translate(4 270)">
<title>src/gromacs/utility/alignedallocator.cpp</title>
<polygon fill="white" stroke="none" points="-4,4 -4,-270 638,-270 638,4 -4,4"/>
<!-- Node1 -->
<g id="node1" class="node"><title>Node1</title>
<polygon fill="#bfbfbf" stroke="black" points="283.5,-235.5 283.5,-265.5 389.5,-265.5 389.5,-235.5 283.5,-235.5"/>
<text text-anchor="start" x="291.5" y="-253.5" font-family="Helvetica,sans-Serif" font-size="10.00">src/gromacs/utility</text>
<text text-anchor="middle" x="336.5" y="-242.5" font-family="Helvetica,sans-Serif" font-size="10.00">/alignedallocator.cpp</text>
</g>
<!-- Node2 -->
<g id="node2" class="node"><title>Node2</title>
<g id="a_node2"><a xlink:href="gmxpre_8h.xhtml" target="_top" xlink:title="Prerequisite header file for GROMACS build. ">
<polygon fill="white" stroke="black" points="103,-179.5 103,-198.5 160,-198.5 160,-179.5 103,-179.5"/>
<text text-anchor="middle" x="131.5" y="-186.5" font-family="Helvetica,sans-Serif" font-size="10.00">gmxpre.h</text>
</a>
</g>
</g>
<!-- Node1&#45;&gt;Node2 -->
<g id="edge1" class="edge"><title>Node1&#45;&gt;Node2</title>
<path fill="none" stroke="midnightblue" d="M288.177,-235.475C252.133,-225.013 203.545,-210.911 170.082,-201.198"/>
<polygon fill="midnightblue" stroke="midnightblue" points="170.793,-197.76 160.213,-198.334 168.842,-204.483 170.793,-197.76"/>
</g>
<!-- Node3 -->
<g id="node3" class="node"><title>Node3</title>
<g id="a_node3"><a xlink:href="alignedallocator_8h.xhtml" target="_top" xlink:title="Declares allocation policy classes and allocators that are used to make library containers compatible...">
<polygon fill="white" stroke="black" points="178.5,-179.5 178.5,-198.5 270.5,-198.5 270.5,-179.5 178.5,-179.5"/>
<text text-anchor="middle" x="224.5" y="-186.5" font-family="Helvetica,sans-Serif" font-size="10.00">alignedallocator.h</text>
</a>
</g>
</g>
<!-- Node1&#45;&gt;Node3 -->
<g id="edge2" class="edge"><title>Node1&#45;&gt;Node3</title>
<path fill="none" stroke="midnightblue" d="M309.958,-235.399C291.837,-225.773 267.964,-213.09 250.057,-203.577"/>
<polygon fill="midnightblue" stroke="midnightblue" points="251.27,-200.258 240.797,-198.658 247.986,-206.44 251.27,-200.258"/>
</g>
<!-- Node6 -->
<g id="node6" class="node"><title>Node6</title>
<polygon fill="white" stroke="#bfbfbf" points="205.5,-56.5 205.5,-75.5 257.5,-75.5 257.5,-56.5 205.5,-56.5"/>
<text text-anchor="middle" x="231.5" y="-63.5" font-family="Helvetica,sans-Serif" font-size="10.00">memory</text>
</g>
<!-- Node1&#45;&gt;Node6 -->
<g id="edge13" class="edge"><title>Node1&#45;&gt;Node6</title>
<path fill="none" stroke="midnightblue" d="M338.523,-235.111C341.498,-208.266 344.12,-149.844 317.5,-112 305.557,-95.0214 285.194,-83.9631 267.28,-77.0588"/>
<polygon fill="midnightblue" stroke="midnightblue" points="268.244,-73.6869 257.649,-73.6393 265.902,-80.2835 268.244,-73.6869"/>
</g>
<!-- Node11 -->
<g id="node11" class="node"><title>Node11</title>
<polygon fill="white" stroke="#bfbfbf" points="520,-179.5 520,-198.5 571,-198.5 571,-179.5 520,-179.5"/>
<text text-anchor="middle" x="545.5" y="-186.5" font-family="Helvetica,sans-Serif" font-size="10.00">config.h</text>
</g>
<!-- Node1&#45;&gt;Node11 -->
<g id="edge11" class="edge"><title>Node1&#45;&gt;Node11</title>
<path fill="none" stroke="midnightblue" d="M385.765,-235.475C423.826,-224.639 475.604,-209.899 509.76,-200.175"/>
<polygon fill="midnightblue" stroke="midnightblue" points="511.1,-203.432 519.76,-197.328 509.183,-196.7 511.1,-203.432"/>
</g>
<!-- Node12 -->
<g id="node12" class="node"><title>Node12</title>
<polygon fill="white" stroke="#bfbfbf" points="589,-179.5 589,-198.5 634,-198.5 634,-179.5 589,-179.5"/>
<text text-anchor="middle" x="611.5" y="-186.5" font-family="Helvetica,sans-Serif" font-size="10.00">cstdlib</text>
</g>
<!-- Node1&#45;&gt;Node12 -->
<g id="edge12" class="edge"><title>Node1&#45;&gt;Node12</title>
<path fill="none" stroke="midnightblue" d="M389.603,-239.755C436.985,-230.779 508.439,-216.556 578.931,-199.254"/>
<polygon fill="midnightblue" stroke="midnightblue" points="580.004,-202.594 588.869,-196.793 578.32,-195.8 580.004,-202.594"/>
</g>
<!-- Node13 -->
<g id="node13" class="node"><title>Node13</title>
<g id="a_node13"><a xlink:href="make__unique_8h.xhtml" target="_top" xlink:title="Provides template gmx::compat::make_unique. ">
<polygon fill="white" stroke="black" points="46.5,-112.5 46.5,-142.5 162.5,-142.5 162.5,-112.5 46.5,-112.5"/>
<text text-anchor="start" x="54.5" y="-130.5" font-family="Helvetica,sans-Serif" font-size="10.00">gromacs/compat/make</text>
<text text-anchor="middle" x="104.5" y="-119.5" font-family="Helvetica,sans-Serif" font-size="10.00">_unique.h</text>
</a>
</g>
</g>
<!-- Node1&#45;&gt;Node13 -->
<g id="edge14" class="edge"><title>Node1&#45;&gt;Node13</title>
<path fill="none" stroke="midnightblue" d="M328.735,-235.419C319.195,-219.414 301.532,-193.622 279.5,-179 261.633,-167.142 213.578,-153.675 172.338,-143.631"/>
<polygon fill="midnightblue" stroke="midnightblue" points="173.11,-140.217 162.569,-141.284 171.475,-147.023 173.11,-140.217"/>
</g>
<!-- Node16 -->
<g id="node16" class="node"><title>Node16</title>
<g id="a_node16"><a xlink:href="gmxassert_8h.xhtml" target="_top" xlink:title="Defines assert macros customized for Gromacs. ">
<polygon fill="white" stroke="black" points="365,-179.5 365,-198.5 502,-198.5 502,-179.5 365,-179.5"/>
<text text-anchor="middle" x="433.5" y="-186.5" font-family="Helvetica,sans-Serif" font-size="10.00">gromacs/utility/gmxassert.h</text>
</a>
</g>
</g>
<!-- Node1&#45;&gt;Node16 -->
<g id="edge19" class="edge"><title>Node1&#45;&gt;Node16</title>
<path fill="none" stroke="midnightblue" d="M359.488,-235.399C374.891,-225.951 395.093,-213.559 410.499,-204.109"/>
<polygon fill="midnightblue" stroke="midnightblue" points="412.692,-206.87 419.386,-198.658 409.031,-200.903 412.692,-206.87"/>
</g>
<!-- Node4 -->
<g id="node4" class="node"><title>Node4</title>
<polygon fill="white" stroke="#bfbfbf" points="0,-56.5 0,-75.5 49,-75.5 49,-56.5 0,-56.5"/>
<text text-anchor="middle" x="24.5" y="-63.5" font-family="Helvetica,sans-Serif" font-size="10.00">cstddef</text>
</g>
<!-- Node3&#45;&gt;Node4 -->
<g id="edge3" class="edge"><title>Node3&#45;&gt;Node4</title>
<path fill="none" stroke="midnightblue" d="M178.189,-179.598C126.011,-169.711 47.1661,-153.334 37.5,-143 23.3092,-127.829 21.5461,-103.123 22.3582,-86.0171"/>
<polygon fill="midnightblue" stroke="midnightblue" points="25.8833,-85.8516 23.2107,-75.5995 18.9067,-85.2806 25.8833,-85.8516"/>
</g>
<!-- Node5 -->
<g id="node5" class="node"><title>Node5</title>
<g id="a_node5"><a xlink:href="allocator_8h.xhtml" target="_top" xlink:title="Declares gmx::Allocator template whose allocation functionality is configured both by type of object ...">
<polygon fill="white" stroke="black" points="180.5,-118 180.5,-137 308.5,-137 308.5,-118 180.5,-118"/>
<text text-anchor="middle" x="244.5" y="-125" font-family="Helvetica,sans-Serif" font-size="10.00">gromacs/utility/allocator.h</text>
</a>
</g>
</g>
<!-- Node3&#45;&gt;Node5 -->
<g id="edge4" class="edge"><title>Node3&#45;&gt;Node5</title>
<path fill="none" stroke="midnightblue" d="M227.366,-179.475C230.217,-170.992 234.683,-157.704 238.341,-146.822"/>
<polygon fill="midnightblue" stroke="midnightblue" points="241.771,-147.603 241.64,-137.009 235.136,-145.373 241.771,-147.603"/>
</g>
<!-- Node5&#45;&gt;Node4 -->
<g id="edge5" class="edge"><title>Node5&#45;&gt;Node4</title>
<path fill="none" stroke="midnightblue" d="M212.979,-117.975C172.148,-106.932 101.214,-87.7475 58.9837,-76.3263"/>
<polygon fill="midnightblue" stroke="midnightblue" points="59.7231,-72.9006 49.1562,-73.6684 57.8956,-79.6578 59.7231,-72.9006"/>
</g>
<!-- Node5&#45;&gt;Node6 -->
<g id="edge6" class="edge"><title>Node5&#45;&gt;Node6</title>
<path fill="none" stroke="midnightblue" d="M242.637,-117.975C240.784,-109.492 237.881,-96.2043 235.503,-85.3222"/>
<polygon fill="midnightblue" stroke="midnightblue" points="238.913,-84.5315 233.359,-75.5091 232.074,-86.0257 238.913,-84.5315"/>
</g>
<!-- Node7 -->
<g id="node7" class="node"><title>Node7</title>
<polygon fill="white" stroke="#bfbfbf" points="276,-56.5 276,-75.5 311,-75.5 311,-56.5 276,-56.5"/>
<text text-anchor="middle" x="293.5" y="-63.5" font-family="Helvetica,sans-Serif" font-size="10.00">new</text>
</g>
<!-- Node5&#45;&gt;Node7 -->
<g id="edge7" class="edge"><title>Node5&#45;&gt;Node7</title>
<path fill="none" stroke="midnightblue" d="M251.521,-117.975C258.943,-108.962 270.833,-94.5246 280.067,-83.3118"/>
<polygon fill="midnightblue" stroke="midnightblue" points="282.837,-85.4534 286.493,-75.5091 277.434,-81.0034 282.837,-85.4534"/>
</g>
<!-- Node8 -->
<g id="node8" class="node"><title>Node8</title>
<g id="a_node8"><a xlink:href="basedefinitions_8h.xhtml" target="_top" xlink:title="Basic types and macros used throughout GROMACS. ">
<polygon fill="white" stroke="black" points="329,-56.5 329,-75.5 486,-75.5 486,-56.5 329,-56.5"/>
<text text-anchor="middle" x="407.5" y="-63.5" font-family="Helvetica,sans-Serif" font-size="10.00">gromacs/utility/basedefinitions.h</text>
</a>
</g>
</g>
<!-- Node5&#45;&gt;Node8 -->
<g id="edge8" class="edge"><title>Node5&#45;&gt;Node8</title>
<path fill="none" stroke="midnightblue" d="M267.854,-117.975C295.814,-107.769 342.826,-90.608 374.491,-79.0492"/>
<polygon fill="midnightblue" stroke="midnightblue" points="375.996,-82.2259 384.189,-75.5091 373.595,-75.6503 375.996,-82.2259"/>
</g>
<!-- Node9 -->
<g id="node9" class="node"><title>Node9</title>
<polygon fill="white" stroke="#bfbfbf" points="347,-0.5 347,-19.5 396,-19.5 396,-0.5 347,-0.5"/>
<text text-anchor="middle" x="371.5" y="-7.5" font-family="Helvetica,sans-Serif" font-size="10.00">stdint.h</text>
</g>
<!-- Node8&#45;&gt;Node9 -->
<g id="edge9" class="edge"><title>Node8&#45;&gt;Node9</title>
<path fill="none" stroke="midnightblue" d="M401.555,-56.083C396.523,-48.5341 389.163,-37.4948 382.987,-28.2298"/>
<polygon fill="midnightblue" stroke="midnightblue" points="385.793,-26.1301 377.334,-19.7511 379.969,-30.0131 385.793,-26.1301"/>
</g>
<!-- Node10 -->
<g id="node10" class="node"><title>Node10</title>
<polygon fill="white" stroke="#bfbfbf" points="414,-0.5 414,-19.5 473,-19.5 473,-0.5 414,-0.5"/>
<text text-anchor="middle" x="443.5" y="-7.5" font-family="Helvetica,sans-Serif" font-size="10.00">inttypes.h</text>
</g>
<!-- Node8&#45;&gt;Node10 -->
<g id="edge10" class="edge"><title>Node8&#45;&gt;Node10</title>
<path fill="none" stroke="midnightblue" d="M413.445,-56.083C418.477,-48.5341 425.837,-37.4948 432.013,-28.2298"/>
<polygon fill="midnightblue" stroke="midnightblue" points="435.031,-30.0131 437.666,-19.7511 429.207,-26.1301 435.031,-30.0131"/>
</g>
<!-- Node13&#45;&gt;Node4 -->
<g id="edge15" class="edge"><title>Node13&#45;&gt;Node4</title>
<path fill="none" stroke="midnightblue" d="M85.5411,-112.399C73.0773,-103.129 56.8031,-91.0254 44.1933,-81.6469"/>
<polygon fill="midnightblue" stroke="midnightblue" points="46.2535,-78.8173 36.1407,-75.6578 42.076,-84.4341 46.2535,-78.8173"/>
</g>
<!-- Node13&#45;&gt;Node6 -->
<g id="edge16" class="edge"><title>Node13&#45;&gt;Node6</title>
<path fill="none" stroke="midnightblue" d="M134.597,-112.399C155.62,-102.55 183.472,-89.5014 203.919,-79.9217"/>
<polygon fill="midnightblue" stroke="midnightblue" points="205.45,-83.0698 213.02,-75.6578 202.48,-76.7309 205.45,-83.0698"/>
</g>
<!-- Node14 -->
<g id="node14" class="node"><title>Node14</title>
<polygon fill="white" stroke="#bfbfbf" points="67.5,-56.5 67.5,-75.5 129.5,-75.5 129.5,-56.5 67.5,-56.5"/>
<text text-anchor="middle" x="98.5" y="-63.5" font-family="Helvetica,sans-Serif" font-size="10.00">type_traits</text>
</g>
<!-- Node13&#45;&gt;Node14 -->
<g id="edge17" class="edge"><title>Node13&#45;&gt;Node14</title>
<path fill="none" stroke="midnightblue" d="M103.078,-112.399C102.278,-104.466 101.269,-94.458 100.402,-85.8583"/>
<polygon fill="midnightblue" stroke="midnightblue" points="103.859,-85.2561 99.3731,-75.6578 96.8941,-85.9585 103.859,-85.2561"/>
</g>
<!-- Node15 -->
<g id="node15" class="node"><title>Node15</title>
<polygon fill="white" stroke="#bfbfbf" points="147.5,-56.5 147.5,-75.5 187.5,-75.5 187.5,-56.5 147.5,-56.5"/>
<text text-anchor="middle" x="167.5" y="-63.5" font-family="Helvetica,sans-Serif" font-size="10.00">utility</text>
</g>
<!-- Node13&#45;&gt;Node15 -->
<g id="edge18" class="edge"><title>Node13&#45;&gt;Node15</title>
<path fill="none" stroke="midnightblue" d="M119.43,-112.399C128.868,-103.486 141.08,-91.9523 150.833,-82.7408"/>
<polygon fill="midnightblue" stroke="midnightblue" points="153.466,-85.0686 158.333,-75.6578 148.66,-79.9795 153.466,-85.0686"/>
</g>
<!-- Node16&#45;&gt;Node8 -->
<g id="edge20" class="edge"><title>Node16&#45;&gt;Node8</title>
<path fill="none" stroke="midnightblue" d="M431.63,-179.298C427.433,-159.763 417.183,-112.065 411.485,-85.5471"/>
<polygon fill="midnightblue" stroke="midnightblue" points="414.876,-84.6647 409.353,-75.6232 408.032,-86.1353 414.876,-84.6647"/>
</g>
<!-- Node17 -->
<g id="node17" class="node"><title>Node17</title>
<g id="a_node17"><a xlink:href="current__function_8h.xhtml" target="_top" xlink:title="Declares GMX_CURRENT_FUNCTION for getting the current function name. ">
<polygon fill="white" stroke="black" points="436,-112.5 436,-142.5 549,-142.5 549,-112.5 436,-112.5"/>
<text text-anchor="start" x="444" y="-130.5" font-family="Helvetica,sans-Serif" font-size="10.00">gromacs/utility/current</text>
<text text-anchor="middle" x="492.5" y="-119.5" font-family="Helvetica,sans-Serif" font-size="10.00">_function.h</text>
</a>
</g>
</g>
<!-- Node16&#45;&gt;Node17 -->
<g id="edge21" class="edge"><title>Node16&#45;&gt;Node17</title>
<path fill="none" stroke="midnightblue" d="M441.953,-179.475C449.645,-171.718 461.321,-159.943 471.513,-149.665"/>
<polygon fill="midnightblue" stroke="midnightblue" points="474.039,-152.088 478.595,-142.523 469.068,-147.159 474.039,-152.088"/>
</g>
</g>
</svg>
