<?xml version="1.0" encoding="UTF-8" standalone="no"?>
<!DOCTYPE svg PUBLIC "-//W3C//DTD SVG 1.1//EN"
 "http://www.w3.org/Graphics/SVG/1.1/DTD/svg11.dtd">
<!-- Generated by graphviz version 2.38.0 (20140413.2041)
 -->
<!-- Title: src/gromacs/utility/alignedallocator.h Pages: 1 -->
<svg width="2594pt" height="374pt"
 viewBox="0.00 0.00 2594.00 374.00" xmlns="http://www.w3.org/2000/svg" xmlns:xlink="http://www.w3.org/1999/xlink">
<g id="graph0" class="graph" transform="scale(1 1) rotate(0) translate(4 370)">
<title>src/gromacs/utility/alignedallocator.h</title>
<polygon fill="white" stroke="none" points="-4,4 -4,-370 2590,-370 2590,4 -4,4"/>
<!-- Node1 -->
<g id="node1" class="node"><title>Node1</title>
<polygon fill="#bfbfbf" stroke="black" points="1888,-335.5 1888,-365.5 1985,-365.5 1985,-335.5 1888,-335.5"/>
<text text-anchor="start" x="1896" y="-353.5" font-family="Helvetica,sans-Serif" font-size="10.00">src/gromacs/utility</text>
<text text-anchor="middle" x="1936.5" y="-342.5" font-family="Helvetica,sans-Serif" font-size="10.00">/alignedallocator.h</text>
</g>
<!-- Node2 -->
<g id="node2" class="node"><title>Node2</title>
<g id="a_node2"><a xlink:href="paddedvector_8h.xhtml" target="_top" xlink:title="Declares gmx::PaddedRVecVector. ">
<polygon fill="white" stroke="black" points="887,-274 887,-293 1052,-293 1052,-274 887,-274"/>
<text text-anchor="middle" x="969.5" y="-281" font-family="Helvetica,sans-Serif" font-size="10.00">src/gromacs/math/paddedvector.h</text>
</a>
</g>
</g>
<!-- Node1&#45;&gt;Node2 -->
<g id="edge1" class="edge"><title>Node1&#45;&gt;Node2</title>
<path fill="none" stroke="midnightblue" d="M1877.42,-345.529C1711.86,-334.4 1243.02,-302.886 1052.02,-290.047"/>
<polygon fill="midnightblue" stroke="midnightblue" points="1877.67,-349.053 1887.88,-346.232 1878.14,-342.069 1877.67,-349.053"/>
</g>
<!-- Node14 -->
<g id="node14" class="node"><title>Node14</title>
<g id="a_node14"><a xlink:href="hostallocator_8h.xhtml" target="_top" xlink:title="Declares gmx::HostAllocationPolicy, gmx::HostAllocator, and gmx::HostVector, which are used to make/b...">
<polygon fill="white" stroke="black" points="1206,-268.5 1206,-298.5 1319,-298.5 1319,-268.5 1206,-268.5"/>
<text text-anchor="start" x="1214" y="-286.5" font-family="Helvetica,sans-Serif" font-size="10.00">src/gromacs/gpu_utils</text>
<text text-anchor="middle" x="1262.5" y="-275.5" font-family="Helvetica,sans-Serif" font-size="10.00">/hostallocator.h</text>
</a>
</g>
</g>
<!-- Node1&#45;&gt;Node14 -->
<g id="edge13" class="edge"><title>Node1&#45;&gt;Node14</title>
<path fill="none" stroke="midnightblue" d="M1877.73,-343.832C1749.47,-331.463 1445.86,-302.183 1319.36,-289.984"/>
<polygon fill="midnightblue" stroke="midnightblue" points="1877.47,-347.323 1887.76,-344.799 1878.14,-340.355 1877.47,-347.323"/>
</g>
<!-- Node28 -->
<g id="node28" class="node"><title>Node28</title>
<g id="a_node28"><a xlink:href="hostallocator_8cpp.xhtml" target="_top" xlink:title="Implements gmx::HostAllocationPolicy for allocating memory suitable for e.g. GPU transfers on CUDA...">
<polygon fill="white" stroke="black" points="1440,-201.5 1440,-231.5 1553,-231.5 1553,-201.5 1440,-201.5"/>
<text text-anchor="start" x="1448" y="-219.5" font-family="Helvetica,sans-Serif" font-size="10.00">src/gromacs/gpu_utils</text>
<text text-anchor="middle" x="1496.5" y="-208.5" font-family="Helvetica,sans-Serif" font-size="10.00">/hostallocator.cpp</text>
</a>
</g>
</g>
<!-- Node1&#45;&gt;Node28 -->
<g id="edge44" class="edge"><title>Node1&#45;&gt;Node28</title>
<path fill="none" stroke="midnightblue" d="M1877.43,-344.78C1818.02,-338.745 1724.44,-325.696 1647.5,-299 1598.25,-281.912 1545.77,-250.101 1517.49,-231.682"/>
<polygon fill="midnightblue" stroke="midnightblue" points="1877.45,-348.299 1887.75,-345.792 1878.14,-341.332 1877.45,-348.299"/>
</g>
<!-- Node31 -->
<g id="node31" class="node"><title>Node31</title>
<g id="a_node31"><a xlink:href="bias_8h.xhtml" target="_top" xlink:title="Declares the Bias class. ">
<polygon fill="white" stroke="black" points="1571,-207 1571,-226 1692,-226 1692,-207 1571,-207"/>
<text text-anchor="middle" x="1631.5" y="-214" font-family="Helvetica,sans-Serif" font-size="10.00">src/gromacs/awh/bias.h</text>
</a>
</g>
</g>
<!-- Node1&#45;&gt;Node31 -->
<g id="edge38" class="edge"><title>Node1&#45;&gt;Node31</title>
<path fill="none" stroke="midnightblue" d="M1877.65,-343.776C1811.38,-336.35 1708.85,-321.605 1677.5,-299 1651.8,-280.469 1638.56,-242.881 1633.71,-226.02"/>
<polygon fill="midnightblue" stroke="midnightblue" points="1877.63,-347.295 1887.95,-344.905 1878.39,-340.337 1877.63,-347.295"/>
</g>
<!-- Node33 -->
<g id="node33" class="node"><title>Node33</title>
<g id="a_node33"><a xlink:href="biasstate_8h.xhtml" target="_top" xlink:title="Declares the BiasState class. ">
<polygon fill="white" stroke="black" points="1687,-274 1687,-293 1830,-293 1830,-274 1687,-274"/>
<text text-anchor="middle" x="1758.5" y="-281" font-family="Helvetica,sans-Serif" font-size="10.00">src/gromacs/awh/biasstate.h</text>
</a>
</g>
</g>
<!-- Node1&#45;&gt;Node33 -->
<g id="edge41" class="edge"><title>Node1&#45;&gt;Node33</title>
<path fill="none" stroke="midnightblue" d="M1888.43,-331.946C1853.86,-319.321 1808.75,-302.85 1781.8,-293.007"/>
<polygon fill="midnightblue" stroke="midnightblue" points="1887.28,-335.253 1897.88,-335.396 1889.68,-328.678 1887.28,-335.253"/>
</g>
<!-- Node35 -->
<g id="node35" class="node"><title>Node35</title>
<g id="a_node35"><a xlink:href="cubicsplinetable_8h.xhtml" target="_top" xlink:title="Declares classes for cubic spline table. ">
<polygon fill="white" stroke="black" points="1886.5,-268.5 1886.5,-298.5 1986.5,-298.5 1986.5,-268.5 1886.5,-268.5"/>
<text text-anchor="start" x="1894.5" y="-286.5" font-family="Helvetica,sans-Serif" font-size="10.00">src/gromacs/tables</text>
<text text-anchor="middle" x="1936.5" y="-275.5" font-family="Helvetica,sans-Serif" font-size="10.00">/cubicsplinetable.h</text>
</a>
</g>
</g>
<!-- Node1&#45;&gt;Node35 -->
<g id="edge45" class="edge"><title>Node1&#45;&gt;Node35</title>
<path fill="none" stroke="midnightblue" d="M1936.5,-325.108C1936.5,-316.154 1936.5,-306.323 1936.5,-298.577"/>
<polygon fill="midnightblue" stroke="midnightblue" points="1933,-325.396 1936.5,-335.396 1940,-325.396 1933,-325.396"/>
</g>
<!-- Node36 -->
<g id="node36" class="node"><title>Node36</title>
<g id="a_node36"><a xlink:href="cubicsplinetable_8cpp.xhtml" target="_top" xlink:title="Implements classes for cubic spline table functions. ">
<polygon fill="white" stroke="black" points="1881.5,-201.5 1881.5,-231.5 1989.5,-231.5 1989.5,-201.5 1881.5,-201.5"/>
<text text-anchor="start" x="1889.5" y="-219.5" font-family="Helvetica,sans-Serif" font-size="10.00">src/gromacs/tables</text>
<text text-anchor="middle" x="1935.5" y="-208.5" font-family="Helvetica,sans-Serif" font-size="10.00">/cubicsplinetable.cpp</text>
</a>
</g>
</g>
<!-- Node1&#45;&gt;Node36 -->
<g id="edge48" class="edge"><title>Node1&#45;&gt;Node36</title>
<path fill="none" stroke="midnightblue" d="M1903.33,-329.407C1893.1,-321.348 1883.06,-311.08 1877.5,-299 1871.74,-286.485 1871.79,-280.54 1877.5,-268 1884.41,-252.811 1898.41,-240.415 1910.91,-231.705"/>
<polygon fill="midnightblue" stroke="midnightblue" points="1901.36,-332.305 1911.5,-335.389 1905.5,-326.657 1901.36,-332.305"/>
</g>
<!-- Node38 -->
<g id="node38" class="node"><title>Node38</title>
<g id="a_node38"><a xlink:href="splineutil_8h.xhtml" target="_top" xlink:title="Declares internal utility functions for spline tables. ">
<polygon fill="white" stroke="black" points="2136.5,-268.5 2136.5,-298.5 2236.5,-298.5 2236.5,-268.5 2136.5,-268.5"/>
<text text-anchor="start" x="2144.5" y="-286.5" font-family="Helvetica,sans-Serif" font-size="10.00">src/gromacs/tables</text>
<text text-anchor="middle" x="2186.5" y="-275.5" font-family="Helvetica,sans-Serif" font-size="10.00">/splineutil.h</text>
</a>
</g>
</g>
<!-- Node1&#45;&gt;Node38 -->
<g id="edge49" class="edge"><title>Node1&#45;&gt;Node38</title>
<path fill="none" stroke="midnightblue" d="M1995.02,-334.285C2037.84,-323.152 2095.33,-308.204 2136.11,-297.601"/>
<polygon fill="midnightblue" stroke="midnightblue" points="1994.09,-330.909 1985.3,-336.813 1995.85,-337.684 1994.09,-330.909"/>
</g>
<!-- Node39 -->
<g id="node39" class="node"><title>Node39</title>
<g id="a_node39"><a xlink:href="quadraticsplinetable_8cpp.xhtml" target="_top" xlink:title="Implements classes for quadratic spline table functions. ">
<polygon fill="white" stroke="black" points="2136,-201.5 2136,-231.5 2261,-231.5 2261,-201.5 2136,-201.5"/>
<text text-anchor="start" x="2144" y="-219.5" font-family="Helvetica,sans-Serif" font-size="10.00">src/gromacs/tables</text>
<text text-anchor="middle" x="2198.5" y="-208.5" font-family="Helvetica,sans-Serif" font-size="10.00">/quadraticsplinetable.cpp</text>
</a>
</g>
</g>
<!-- Node1&#45;&gt;Node39 -->
<g id="edge56" class="edge"><title>Node1&#45;&gt;Node39</title>
<path fill="none" stroke="midnightblue" d="M1995.2,-348.597C2075.71,-345.974 2214.02,-336.04 2245.5,-299 2263.48,-277.842 2236.86,-248.844 2216.94,-231.75"/>
<polygon fill="midnightblue" stroke="midnightblue" points="1995.09,-345.099 1985.2,-348.895 1995.3,-352.096 1995.09,-345.099"/>
</g>
<!-- Node40 -->
<g id="node40" class="node"><title>Node40</title>
<g id="a_node40"><a xlink:href="splineutil_8cpp.xhtml" target="_top" xlink:title="Implements internal utility functions for spline tables. ">
<polygon fill="white" stroke="black" points="2279.5,-201.5 2279.5,-231.5 2379.5,-231.5 2379.5,-201.5 2279.5,-201.5"/>
<text text-anchor="start" x="2287.5" y="-219.5" font-family="Helvetica,sans-Serif" font-size="10.00">src/gromacs/tables</text>
<text text-anchor="middle" x="2329.5" y="-208.5" font-family="Helvetica,sans-Serif" font-size="10.00">/splineutil.cpp</text>
</a>
</g>
</g>
<!-- Node1&#45;&gt;Node40 -->
<g id="edge57" class="edge"><title>Node1&#45;&gt;Node40</title>
<path fill="none" stroke="midnightblue" d="M1995.36,-345.417C2076.57,-338.939 2218.01,-324.369 2262.5,-299 2290.51,-283.032 2311.67,-250.498 2322.17,-231.724"/>
<polygon fill="midnightblue" stroke="midnightblue" points="1994.97,-341.936 1985.28,-346.204 1995.52,-348.915 1994.97,-341.936"/>
</g>
<!-- Node41 -->
<g id="node41" class="node"><title>Node41</title>
<g id="a_node41"><a xlink:href="quadraticsplinetable_8h.xhtml" target="_top" xlink:title="Declares classes for quadratic spline table. ">
<polygon fill="white" stroke="black" points="2004.5,-268.5 2004.5,-298.5 2118.5,-298.5 2118.5,-268.5 2004.5,-268.5"/>
<text text-anchor="start" x="2012.5" y="-286.5" font-family="Helvetica,sans-Serif" font-size="10.00">src/gromacs/tables</text>
<text text-anchor="middle" x="2061.5" y="-275.5" font-family="Helvetica,sans-Serif" font-size="10.00">/quadraticsplinetable.h</text>
</a>
</g>
</g>
<!-- Node1&#45;&gt;Node41 -->
<g id="edge53" class="edge"><title>Node1&#45;&gt;Node41</title>
<path fill="none" stroke="midnightblue" d="M1972.63,-330.714C1992.34,-320.463 2016.34,-307.983 2034.43,-298.577"/>
<polygon fill="midnightblue" stroke="midnightblue" points="1970.88,-327.677 1963.62,-335.396 1974.11,-333.888 1970.88,-327.677"/>
</g>
<!-- Node42 -->
<g id="node42" class="node"><title>Node42</title>
<g id="a_node42"><a xlink:href="alignedallocator_8cpp.xhtml" target="_top" xlink:title="Implements AlignedAllocator. ">
<polygon fill="white" stroke="black" points="2330.5,-268.5 2330.5,-298.5 2436.5,-298.5 2436.5,-268.5 2330.5,-268.5"/>
<text text-anchor="start" x="2338.5" y="-286.5" font-family="Helvetica,sans-Serif" font-size="10.00">src/gromacs/utility</text>
<text text-anchor="middle" x="2383.5" y="-275.5" font-family="Helvetica,sans-Serif" font-size="10.00">/alignedallocator.cpp</text>
</a>
</g>
</g>
<!-- Node1&#45;&gt;Node42 -->
<g id="edge58" class="edge"><title>Node1&#45;&gt;Node42</title>
<path fill="none" stroke="midnightblue" d="M1995.45,-343.165C2070.35,-334.773 2203.47,-318.707 2316.5,-299 2320.96,-298.223 2325.56,-297.357 2330.18,-296.446"/>
<polygon fill="midnightblue" stroke="midnightblue" points="1994.83,-339.713 1985.28,-344.298 1995.61,-346.67 1994.83,-339.713"/>
</g>
<!-- Node43 -->
<g id="node43" class="node"><title>Node43</title>
<g id="a_node43"><a xlink:href="tests_2alignedallocator_8cpp.xhtml" target="_top" xlink:title="Tests for gmx::AlignedAllocator and gmx::PageAlignedAllocator. ">
<polygon fill="white" stroke="black" points="2455,-268.5 2455,-298.5 2586,-298.5 2586,-268.5 2455,-268.5"/>
<text text-anchor="start" x="2463" y="-286.5" font-family="Helvetica,sans-Serif" font-size="10.00">src/gromacs/utility</text>
<text text-anchor="middle" x="2520.5" y="-275.5" font-family="Helvetica,sans-Serif" font-size="10.00">/tests/alignedallocator.cpp</text>
</a>
</g>
</g>
<!-- Node1&#45;&gt;Node43 -->
<g id="edge59" class="edge"><title>Node1&#45;&gt;Node43</title>
<path fill="none" stroke="midnightblue" d="M1995.08,-345.45C2090,-338.494 2283.14,-322.697 2445.5,-299 2448.52,-298.559 2451.6,-298.081 2454.71,-297.575"/>
<polygon fill="midnightblue" stroke="midnightblue" points="1994.83,-341.96 1985.11,-346.175 1995.33,-348.941 1994.83,-341.96"/>
</g>
<!-- Node3 -->
<g id="node3" class="node"><title>Node3</title>
<g id="a_node3"><a xlink:href="state_8h.xhtml" target="_top" xlink:title="This file contains the definition of the microstate of the simulated system. ">
<polygon fill="white" stroke="black" points="700,-201.5 700,-231.5 811,-231.5 811,-201.5 700,-201.5"/>
<text text-anchor="start" x="708" y="-219.5" font-family="Helvetica,sans-Serif" font-size="10.00">src/gromacs/mdtypes</text>
<text text-anchor="middle" x="755.5" y="-208.5" font-family="Helvetica,sans-Serif" font-size="10.00">/state.h</text>
</a>
</g>
</g>
<!-- Node2&#45;&gt;Node3 -->
<g id="edge2" class="edge"><title>Node2&#45;&gt;Node3</title>
<path fill="none" stroke="midnightblue" d="M931.364,-270.917C895.078,-259.895 840.421,-243.294 801.685,-231.528"/>
<polygon fill="midnightblue" stroke="midnightblue" points="930.497,-274.311 941.082,-273.869 932.531,-267.613 930.497,-274.311"/>
</g>
<!-- Node4 -->
<g id="node4" class="node"><title>Node4</title>
<g id="a_node4"><a xlink:href="awh_8cpp.xhtml" target="_top" xlink:title="Implements the Awh class. ">
<polygon fill="white" stroke="black" points="1223,-140 1223,-159 1354,-159 1354,-140 1223,-140"/>
<text text-anchor="middle" x="1288.5" y="-147" font-family="Helvetica,sans-Serif" font-size="10.00">src/gromacs/awh/awh.cpp</text>
</a>
</g>
</g>
<!-- Node3&#45;&gt;Node4 -->
<g id="edge3" class="edge"><title>Node3&#45;&gt;Node4</title>
<path fill="none" stroke="midnightblue" d="M821.263,-209.939C910.414,-202.015 1074.46,-186.07 1213.5,-165 1224.65,-163.311 1236.66,-161.145 1247.73,-159.005"/>
<polygon fill="midnightblue" stroke="midnightblue" points="820.685,-206.476 811.032,-210.842 821.301,-213.449 820.685,-206.476"/>
</g>
<!-- Node5 -->
<g id="node5" class="node"><title>Node5</title>
<g id="a_node5"><a xlink:href="domdec__topology_8cpp.xhtml" target="_top" xlink:title="This file defines functions used by the domdec module while managing the construction, use and error checking for topologies local to a DD rank. ">
<polygon fill="white" stroke="black" points="0,-134.5 0,-164.5 115,-164.5 115,-134.5 0,-134.5"/>
<text text-anchor="start" x="8" y="-152.5" font-family="Helvetica,sans-Serif" font-size="10.00">src/gromacs/domdec</text>
<text text-anchor="middle" x="57.5" y="-141.5" font-family="Helvetica,sans-Serif" font-size="10.00">/domdec_topology.cpp</text>
</a>
</g>
</g>
<!-- Node3&#45;&gt;Node5 -->
<g id="edge4" class="edge"><title>Node3&#45;&gt;Node5</title>
<path fill="none" stroke="midnightblue" d="M689.657,-212.752C575.271,-207.408 332.626,-193.545 129.5,-165 124.828,-164.343 120.003,-163.574 115.165,-162.737"/>
<polygon fill="midnightblue" stroke="midnightblue" points="689.84,-216.264 699.99,-213.228 690.162,-209.272 689.84,-216.264"/>
</g>
<!-- Node6 -->
<g id="node6" class="node"><title>Node6</title>
<g id="a_node6"><a xlink:href="pme-load-balancing_8cpp.xhtml" target="_top" xlink:title="This file contains function definitions necessary for managing automatic load balance of PME calculat...">
<polygon fill="white" stroke="black" points="550,-67.5 550,-97.5 671,-97.5 671,-67.5 550,-67.5"/>
<text text-anchor="start" x="558" y="-85.5" font-family="Helvetica,sans-Serif" font-size="10.00">src/gromacs/ewald/pme</text>
<text text-anchor="middle" x="610.5" y="-74.5" font-family="Helvetica,sans-Serif" font-size="10.00">&#45;load&#45;balancing.cpp</text>
</a>
</g>
</g>
<!-- Node3&#45;&gt;Node6 -->
<g id="edge5" class="edge"><title>Node3&#45;&gt;Node6</title>
<path fill="none" stroke="midnightblue" d="M689.583,-214.797C542.49,-212.545 197.587,-203.202 162.5,-165 153.18,-154.853 153.319,-144.274 162.5,-134 187.86,-105.621 433.29,-91.214 549.748,-85.9297"/>
<polygon fill="midnightblue" stroke="midnightblue" points="689.775,-218.3 699.825,-214.948 689.878,-211.301 689.775,-218.3"/>
</g>
<!-- Node7 -->
<g id="node7" class="node"><title>Node7</title>
<g id="a_node7"><a xlink:href="gmx__wham_8cpp.xhtml" target="_top" xlink:title="Implementation of the Weighted Histogram Analysis Method (WHAM) ">
<polygon fill="white" stroke="black" points="171.5,-134.5 171.5,-164.5 279.5,-164.5 279.5,-134.5 171.5,-134.5"/>
<text text-anchor="start" x="179.5" y="-152.5" font-family="Helvetica,sans-Serif" font-size="10.00">src/gromacs/gmxana</text>
<text text-anchor="middle" x="225.5" y="-141.5" font-family="Helvetica,sans-Serif" font-size="10.00">/gmx_wham.cpp</text>
</a>
</g>
</g>
<!-- Node3&#45;&gt;Node7 -->
<g id="edge6" class="edge"><title>Node3&#45;&gt;Node7</title>
<path fill="none" stroke="midnightblue" d="M689.718,-210.858C599.003,-203.894 430.586,-188.947 288.5,-165 285.622,-164.515 282.68,-163.979 279.714,-163.407"/>
<polygon fill="midnightblue" stroke="midnightblue" points="689.618,-214.36 699.854,-211.627 690.148,-207.38 689.618,-214.36"/>
</g>
<!-- Node8 -->
<g id="node8" class="node"><title>Node8</title>
<g id="a_node8"><a xlink:href="imd_8cpp.xhtml" target="_top" xlink:title="Implements functions of imd.h. ">
<polygon fill="white" stroke="black" points="298,-140 298,-159 425,-159 425,-140 298,-140"/>
<text text-anchor="middle" x="361.5" y="-147" font-family="Helvetica,sans-Serif" font-size="10.00">src/gromacs/imd/imd.cpp</text>
</a>
</g>
</g>
<!-- Node3&#45;&gt;Node8 -->
<g id="edge7" class="edge"><title>Node3&#45;&gt;Node8</title>
<path fill="none" stroke="midnightblue" d="M689.614,-205.923C624.634,-196.292 522.546,-180.664 434.5,-165 424.323,-163.189 413.377,-161.094 403.138,-159.07"/>
<polygon fill="midnightblue" stroke="midnightblue" points="689.312,-209.416 699.716,-207.416 690.336,-202.492 689.312,-209.416"/>
</g>
<!-- Node9 -->
<g id="node9" class="node"><title>Node9</title>
<g id="a_node9"><a xlink:href="minimize_8cpp.xhtml" target="_top" xlink:title="This file defines integrators for energy minimization. ">
<polygon fill="white" stroke="black" points="443.5,-140 443.5,-159 601.5,-159 601.5,-140 443.5,-140"/>
<text text-anchor="middle" x="522.5" y="-147" font-family="Helvetica,sans-Serif" font-size="10.00">src/gromacs/mdlib/minimize.cpp</text>
</a>
</g>
</g>
<!-- Node3&#45;&gt;Node9 -->
<g id="edge8" class="edge"><title>Node3&#45;&gt;Node9</title>
<path fill="none" stroke="midnightblue" d="M695.46,-198.751C649.89,-186.038 589.12,-169.085 553.072,-159.029"/>
<polygon fill="midnightblue" stroke="midnightblue" points="694.657,-202.16 705.229,-201.476 696.538,-195.418 694.657,-202.16"/>
</g>
<!-- Node10 -->
<g id="node10" class="node"><title>Node10</title>
<g id="a_node10"><a xlink:href="nbnxn__tuning_8cpp.xhtml" target="_top" xlink:title="Implements functions for tuning adjustable parameters for the nbnxn non&#45;bonded search and interaction...">
<polygon fill="white" stroke="black" points="619.5,-134.5 619.5,-164.5 745.5,-164.5 745.5,-134.5 619.5,-134.5"/>
<text text-anchor="start" x="627.5" y="-152.5" font-family="Helvetica,sans-Serif" font-size="10.00">src/gromacs/mdlib/nbnxn</text>
<text text-anchor="middle" x="682.5" y="-141.5" font-family="Helvetica,sans-Serif" font-size="10.00">_tuning.cpp</text>
</a>
</g>
</g>
<!-- Node3&#45;&gt;Node10 -->
<g id="edge9" class="edge"><title>Node3&#45;&gt;Node10</title>
<path fill="none" stroke="midnightblue" d="M732.025,-194.598C721.003,-184.783 708.156,-173.344 698.309,-164.577"/>
<polygon fill="midnightblue" stroke="midnightblue" points="729.864,-197.36 739.66,-201.396 734.519,-192.132 729.864,-197.36"/>
</g>
<!-- Node11 -->
<g id="node11" class="node"><title>Node11</title>
<g id="a_node11"><a xlink:href="tpi_8cpp.xhtml" target="_top" xlink:title="This file defines the integrator for test particle insertion. ">
<polygon fill="white" stroke="black" points="764,-140 764,-159 893,-159 893,-140 764,-140"/>
<text text-anchor="middle" x="828.5" y="-147" font-family="Helvetica,sans-Serif" font-size="10.00">src/gromacs/mdlib/tpi.cpp</text>
</a>
</g>
</g>
<!-- Node3&#45;&gt;Node11 -->
<g id="edge10" class="edge"><title>Node3&#45;&gt;Node11</title>
<path fill="none" stroke="midnightblue" d="M778.891,-194.672C792.37,-182.671 808.599,-168.22 818.735,-159.195"/>
<polygon fill="midnightblue" stroke="midnightblue" points="776.481,-192.132 771.34,-201.396 781.136,-197.36 776.481,-192.132"/>
</g>
<!-- Node12 -->
<g id="node12" class="node"><title>Node12</title>
<g id="a_node12"><a xlink:href="gromacs_2swap_2swapcoords_8cpp.xhtml" target="_top" xlink:title="Implements functions in swapcoords.h. ">
<polygon fill="white" stroke="black" points="911,-140 911,-159 1082,-159 1082,-140 911,-140"/>
<text text-anchor="middle" x="996.5" y="-147" font-family="Helvetica,sans-Serif" font-size="10.00">src/gromacs/swap/swapcoords.cpp</text>
</a>
</g>
</g>
<!-- Node3&#45;&gt;Node12 -->
<g id="edge11" class="edge"><title>Node3&#45;&gt;Node12</title>
<path fill="none" stroke="midnightblue" d="M817.306,-198.83C864.472,-186.109 927.514,-169.106 964.878,-159.029"/>
<polygon fill="midnightblue" stroke="midnightblue" points="816.24,-195.493 807.497,-201.476 818.063,-202.251 816.24,-195.493"/>
</g>
<!-- Node13 -->
<g id="node13" class="node"><title>Node13</title>
<g id="a_node13"><a xlink:href="runner_8cpp.xhtml" target="_top" xlink:title="Implements the MD runner routine calling all integrators. ">
<polygon fill="white" stroke="black" points="1100.5,-134.5 1100.5,-164.5 1204.5,-164.5 1204.5,-134.5 1100.5,-134.5"/>
<text text-anchor="start" x="1108.5" y="-152.5" font-family="Helvetica,sans-Serif" font-size="10.00">src/programs/mdrun</text>
<text text-anchor="middle" x="1152.5" y="-141.5" font-family="Helvetica,sans-Serif" font-size="10.00">/runner.cpp</text>
</a>
</g>
</g>
<!-- Node3&#45;&gt;Node13 -->
<g id="edge12" class="edge"><title>Node3&#45;&gt;Node13</title>
<path fill="none" stroke="midnightblue" d="M821.258,-207.172C888.998,-198.222 997.511,-182.853 1090.5,-165 1093.76,-164.375 1097.1,-163.697 1100.47,-162.987"/>
<polygon fill="midnightblue" stroke="midnightblue" points="820.614,-203.726 811.155,-208.499 821.526,-210.667 820.614,-203.726"/>
</g>
<!-- Node14&#45;&gt;Node3 -->
<g id="edge14" class="edge"><title>Node14&#45;&gt;Node3</title>
<path fill="none" stroke="midnightblue" d="M1195.73,-273.94C1094.74,-260.992 904.962,-236.662 811.048,-224.622"/>
<polygon fill="midnightblue" stroke="midnightblue" points="1195.45,-277.433 1205.82,-275.233 1196.34,-270.49 1195.45,-277.433"/>
</g>
<!-- Node15 -->
<g id="node15" class="node"><title>Node15</title>
<g id="a_node15"><a xlink:href="pme-gpu-types_8h.xhtml" target="_top" xlink:title="Defines the GPU&#45;agnostic PME GPU data structures (the host&#45;side PME GPU data, and the GPU function pa...">
<polygon fill="white" stroke="black" points="985,-201.5 985,-231.5 1106,-231.5 1106,-201.5 985,-201.5"/>
<text text-anchor="start" x="993" y="-219.5" font-family="Helvetica,sans-Serif" font-size="10.00">src/gromacs/ewald/pme</text>
<text text-anchor="middle" x="1045.5" y="-208.5" font-family="Helvetica,sans-Serif" font-size="10.00">&#45;gpu&#45;types.h</text>
</a>
</g>
</g>
<!-- Node14&#45;&gt;Node15 -->
<g id="edge15" class="edge"><title>Node14&#45;&gt;Node15</title>
<path fill="none" stroke="midnightblue" d="M1206.01,-265.58C1170.77,-255.022 1125.93,-241.592 1092.61,-231.611"/>
<polygon fill="midnightblue" stroke="midnightblue" points="1205.1,-268.959 1215.68,-268.476 1207.11,-262.254 1205.1,-268.959"/>
</g>
<!-- Node14&#45;&gt;Node28 -->
<g id="edge35" class="edge"><title>Node14&#45;&gt;Node28</title>
<path fill="none" stroke="midnightblue" d="M1322.93,-265.715C1361.01,-255.137 1409.61,-241.635 1445.7,-231.611"/>
<polygon fill="midnightblue" stroke="midnightblue" points="1321.68,-262.427 1312.99,-268.476 1323.56,-269.172 1321.68,-262.427"/>
</g>
<!-- Node29 -->
<g id="node29" class="node"><title>Node29</title>
<g id="a_node29"><a xlink:href="tests_2hostallocator_8cpp.xhtml" target="_top" xlink:title="Tests for GPU host allocator. ">
<polygon fill="white" stroke="black" points="1124,-201.5 1124,-231.5 1243,-231.5 1243,-201.5 1124,-201.5"/>
<text text-anchor="start" x="1132" y="-219.5" font-family="Helvetica,sans-Serif" font-size="10.00">src/gromacs/gpu_utils</text>
<text text-anchor="middle" x="1183.5" y="-208.5" font-family="Helvetica,sans-Serif" font-size="10.00">/tests/hostallocator.cpp</text>
</a>
</g>
</g>
<!-- Node14&#45;&gt;Node29 -->
<g id="edge36" class="edge"><title>Node14&#45;&gt;Node29</title>
<path fill="none" stroke="midnightblue" d="M1237.44,-261.883C1225.44,-252.005 1211.37,-240.429 1200.61,-231.577"/>
<polygon fill="midnightblue" stroke="midnightblue" points="1235.41,-264.745 1245.36,-268.396 1239.86,-259.34 1235.41,-264.745"/>
</g>
<!-- Node30 -->
<g id="node30" class="node"><title>Node30</title>
<g id="a_node30"><a xlink:href="pinnedmemorychecker_8cpp.xhtml" target="_top" xlink:title="Tests for GPU memory status checker isHostMemoryPinned() being correct. ">
<polygon fill="white" stroke="black" points="1261,-201.5 1261,-231.5 1422,-231.5 1422,-201.5 1261,-201.5"/>
<text text-anchor="start" x="1269" y="-219.5" font-family="Helvetica,sans-Serif" font-size="10.00">src/gromacs/gpu_utils</text>
<text text-anchor="middle" x="1341.5" y="-208.5" font-family="Helvetica,sans-Serif" font-size="10.00">/tests/pinnedmemorychecker.cpp</text>
</a>
</g>
</g>
<!-- Node14&#45;&gt;Node30 -->
<g id="edge37" class="edge"><title>Node14&#45;&gt;Node30</title>
<path fill="none" stroke="midnightblue" d="M1287.56,-261.883C1299.56,-252.005 1313.63,-240.429 1324.39,-231.577"/>
<polygon fill="midnightblue" stroke="midnightblue" points="1285.14,-259.34 1279.64,-268.396 1289.59,-264.745 1285.14,-259.34"/>
</g>
<!-- Node16 -->
<g id="node16" class="node"><title>Node16</title>
<g id="a_node16"><a xlink:href="pme-internal_8h.xhtml" target="_top" xlink:title="This file contains function declarations necessary for computing energies and forces for the PME long...">
<polygon fill="white" stroke="black" points="1372,-134.5 1372,-164.5 1493,-164.5 1493,-134.5 1372,-134.5"/>
<text text-anchor="start" x="1380" y="-152.5" font-family="Helvetica,sans-Serif" font-size="10.00">src/gromacs/ewald/pme</text>
<text text-anchor="middle" x="1432.5" y="-141.5" font-family="Helvetica,sans-Serif" font-size="10.00">&#45;internal.h</text>
</a>
</g>
</g>
<!-- Node15&#45;&gt;Node16 -->
<g id="edge16" class="edge"><title>Node15&#45;&gt;Node16</title>
<path fill="none" stroke="midnightblue" d="M1116.2,-200.766C1225.91,-181.681 1256.02,-183.739 1362.5,-165 1365.56,-164.462 1368.68,-163.891 1371.84,-163.299"/>
<polygon fill="midnightblue" stroke="midnightblue" points="1115.28,-197.373 1106.04,-202.553 1116.5,-204.267 1115.28,-197.373"/>
</g>
<!-- Node23 -->
<g id="node23" class="node"><title>Node23</title>
<g id="a_node23"><a xlink:href="pme-gpu-internal_8h.xhtml" target="_top" xlink:title="This file contains internal function definitions for performing the PME calculations on GPU...">
<polygon fill="white" stroke="black" points="1511,-134.5 1511,-164.5 1632,-164.5 1632,-134.5 1511,-134.5"/>
<text text-anchor="start" x="1519" y="-152.5" font-family="Helvetica,sans-Serif" font-size="10.00">src/gromacs/ewald/pme</text>
<text text-anchor="middle" x="1571.5" y="-141.5" font-family="Helvetica,sans-Serif" font-size="10.00">&#45;gpu&#45;internal.h</text>
</a>
</g>
</g>
<!-- Node15&#45;&gt;Node23 -->
<g id="edge24" class="edge"><title>Node15&#45;&gt;Node23</title>
<path fill="none" stroke="midnightblue" d="M1116.11,-200.868C1287.08,-175.766 1333.91,-190.072 1501.5,-165 1504.57,-164.541 1507.71,-164.033 1510.87,-163.491"/>
<polygon fill="midnightblue" stroke="midnightblue" points="1115.38,-197.438 1106.01,-202.375 1116.42,-204.361 1115.38,-197.438"/>
</g>
<!-- Node16&#45;&gt;Node6 -->
<g id="edge19" class="edge"><title>Node16&#45;&gt;Node6</title>
<path fill="none" stroke="midnightblue" d="M1361.78,-134.043C1099.31,-98.8582 797.828,-87.9848 671.22,-84.7557"/>
<polygon fill="midnightblue" stroke="midnightblue" points="1361.5,-137.538 1371.88,-135.413 1362.44,-130.602 1361.5,-137.538"/>
</g>
<!-- Node17 -->
<g id="node17" class="node"><title>Node17</title>
<g id="a_node17"><a xlink:href="pme-gpu-internal_8cpp.xhtml" target="_top" xlink:title="This file contains internal function implementations for performing the PME calculations on GPU...">
<polygon fill="white" stroke="black" points="1372,-67.5 1372,-97.5 1493,-97.5 1493,-67.5 1372,-67.5"/>
<text text-anchor="start" x="1380" y="-85.5" font-family="Helvetica,sans-Serif" font-size="10.00">src/gromacs/ewald/pme</text>
<text text-anchor="middle" x="1432.5" y="-74.5" font-family="Helvetica,sans-Serif" font-size="10.00">&#45;gpu&#45;internal.cpp</text>
</a>
</g>
</g>
<!-- Node16&#45;&gt;Node17 -->
<g id="edge17" class="edge"><title>Node16&#45;&gt;Node17</title>
<path fill="none" stroke="midnightblue" d="M1432.5,-124.108C1432.5,-115.154 1432.5,-105.323 1432.5,-97.5765"/>
<polygon fill="midnightblue" stroke="midnightblue" points="1429,-124.396 1432.5,-134.396 1436,-124.396 1429,-124.396"/>
</g>
<!-- Node18 -->
<g id="node18" class="node"><title>Node18</title>
<g id="a_node18"><a xlink:href="pme-gpu_8cpp.xhtml" target="_top" xlink:title="Implements high&#45;level PME GPU functions which do not require GPU framework&#45;specific code...">
<polygon fill="white" stroke="black" points="1511,-67.5 1511,-97.5 1632,-97.5 1632,-67.5 1511,-67.5"/>
<text text-anchor="start" x="1519" y="-85.5" font-family="Helvetica,sans-Serif" font-size="10.00">src/gromacs/ewald/pme</text>
<text text-anchor="middle" x="1571.5" y="-74.5" font-family="Helvetica,sans-Serif" font-size="10.00">&#45;gpu.cpp</text>
</a>
</g>
</g>
<!-- Node16&#45;&gt;Node18 -->
<g id="edge18" class="edge"><title>Node16&#45;&gt;Node18</title>
<path fill="none" stroke="midnightblue" d="M1471.78,-130.131C1493.87,-119.802 1521.01,-107.11 1541.4,-97.5765"/>
<polygon fill="midnightblue" stroke="midnightblue" points="1470.24,-126.989 1462.66,-134.396 1473.2,-133.33 1470.24,-126.989"/>
</g>
<!-- Node19 -->
<g id="node19" class="node"><title>Node19</title>
<g id="a_node19"><a xlink:href="pme-pp_8cpp.xhtml" target="_top" xlink:title="This file contains function definitions necessary for managing the offload of long&#45;ranged PME work to...">
<polygon fill="white" stroke="black" points="1156,-67.5 1156,-97.5 1277,-97.5 1277,-67.5 1156,-67.5"/>
<text text-anchor="start" x="1164" y="-85.5" font-family="Helvetica,sans-Serif" font-size="10.00">src/gromacs/ewald/pme</text>
<text text-anchor="middle" x="1216.5" y="-74.5" font-family="Helvetica,sans-Serif" font-size="10.00">&#45;pp.cpp</text>
</a>
</g>
</g>
<!-- Node16&#45;&gt;Node19 -->
<g id="edge20" class="edge"><title>Node16&#45;&gt;Node19</title>
<path fill="none" stroke="midnightblue" d="M1376.27,-131.58C1341.19,-121.022 1296.56,-107.592 1263.39,-97.6109"/>
<polygon fill="midnightblue" stroke="midnightblue" points="1375.31,-134.946 1385.9,-134.476 1377.33,-128.243 1375.31,-134.946"/>
</g>
<!-- Node20 -->
<g id="node20" class="node"><title>Node20</title>
<g id="a_node20"><a xlink:href="pme_8cpp.xhtml" target="_top" xlink:title="This file contains function definitions necessary for computing energies and forces for the PME long&#45;...">
<polygon fill="white" stroke="black" points="1650.5,-73 1650.5,-92 1790.5,-92 1790.5,-73 1650.5,-73"/>
<text text-anchor="middle" x="1720.5" y="-80" font-family="Helvetica,sans-Serif" font-size="10.00">src/gromacs/ewald/pme.cpp</text>
</a>
</g>
</g>
<!-- Node16&#45;&gt;Node20 -->
<g id="edge21" class="edge"><title>Node16&#45;&gt;Node20</title>
<path fill="none" stroke="midnightblue" d="M1503.2,-132.543C1559.9,-119.747 1637.26,-102.287 1682.74,-92.0212"/>
<polygon fill="midnightblue" stroke="midnightblue" points="1502.21,-129.179 1493.23,-134.795 1503.75,-136.007 1502.21,-129.179"/>
</g>
<!-- Node21 -->
<g id="node21" class="node"><title>Node21</title>
<g id="a_node21"><a xlink:href="pmebsplinetest_8cpp.xhtml" target="_top" xlink:title="Implements PME B&#45;spline moduli computation tests. ">
<polygon fill="white" stroke="black" points="1403.5,-0.5 1403.5,-30.5 1527.5,-30.5 1527.5,-0.5 1403.5,-0.5"/>
<text text-anchor="start" x="1411.5" y="-18.5" font-family="Helvetica,sans-Serif" font-size="10.00">src/gromacs/ewald/tests</text>
<text text-anchor="middle" x="1465.5" y="-7.5" font-family="Helvetica,sans-Serif" font-size="10.00">/pmebsplinetest.cpp</text>
</a>
</g>
</g>
<!-- Node16&#45;&gt;Node21 -->
<g id="edge22" class="edge"><title>Node16&#45;&gt;Node21</title>
<path fill="none" stroke="midnightblue" d="M1367.95,-130.203C1352.78,-122.73 1338.44,-112.345 1329.5,-98 1322.21,-86.3083 1321.63,-78.3116 1329.5,-67 1346.25,-42.91 1375.92,-30.2873 1403.28,-23.6838"/>
<polygon fill="midnightblue" stroke="midnightblue" points="1366.91,-133.572 1377.46,-134.489 1369.78,-127.19 1366.91,-133.572"/>
</g>
<!-- Node22 -->
<g id="node22" class="node"><title>Node22</title>
<g id="a_node22"><a xlink:href="pmetestcommon_8cpp.xhtml" target="_top" xlink:title="Implements common routines for PME tests. ">
<polygon fill="white" stroke="black" points="1633.5,-0.5 1633.5,-30.5 1757.5,-30.5 1757.5,-0.5 1633.5,-0.5"/>
<text text-anchor="start" x="1641.5" y="-18.5" font-family="Helvetica,sans-Serif" font-size="10.00">src/gromacs/ewald/tests</text>
<text text-anchor="middle" x="1695.5" y="-7.5" font-family="Helvetica,sans-Serif" font-size="10.00">/pmetestcommon.cpp</text>
</a>
</g>
</g>
<!-- Node16&#45;&gt;Node22 -->
<g id="edge23" class="edge"><title>Node16&#45;&gt;Node22</title>
<path fill="none" stroke="midnightblue" d="M1397.07,-129.077C1371.44,-112.562 1344.26,-88.2202 1362.5,-67 1379.89,-46.7705 1541.72,-29.7191 1633.21,-21.5954"/>
<polygon fill="midnightblue" stroke="midnightblue" points="1395.29,-132.089 1405.64,-134.362 1398.97,-126.132 1395.29,-132.089"/>
</g>
<!-- Node23&#45;&gt;Node17 -->
<g id="edge25" class="edge"><title>Node23&#45;&gt;Node17</title>
<path fill="none" stroke="midnightblue" d="M1532.22,-130.131C1510.13,-119.802 1482.99,-107.11 1462.6,-97.5765"/>
<polygon fill="midnightblue" stroke="midnightblue" points="1530.8,-133.33 1541.34,-134.396 1533.76,-126.989 1530.8,-133.33"/>
</g>
<!-- Node23&#45;&gt;Node18 -->
<g id="edge26" class="edge"><title>Node23&#45;&gt;Node18</title>
<path fill="none" stroke="midnightblue" d="M1571.5,-124.108C1571.5,-115.154 1571.5,-105.323 1571.5,-97.5765"/>
<polygon fill="midnightblue" stroke="midnightblue" points="1568,-124.396 1571.5,-134.396 1575,-124.396 1568,-124.396"/>
</g>
<!-- Node23&#45;&gt;Node20 -->
<g id="edge27" class="edge"><title>Node23&#45;&gt;Node20</title>
<path fill="none" stroke="midnightblue" d="M1613.23,-130.295C1641.97,-117.76 1678.82,-101.682 1701,-92.007"/>
<polygon fill="midnightblue" stroke="midnightblue" points="1611.6,-127.189 1603.83,-134.396 1614.4,-133.605 1611.6,-127.189"/>
</g>
<!-- Node23&#45;&gt;Node22 -->
<g id="edge34" class="edge"><title>Node23&#45;&gt;Node22</title>
<path fill="none" stroke="midnightblue" d="M1642.18,-133.388C1708.65,-119.093 1798.23,-99.5882 1799.5,-98 1822.26,-69.6467 1776.97,-45.1609 1739.17,-30.6224"/>
<polygon fill="midnightblue" stroke="midnightblue" points="1641.18,-130.023 1632.14,-135.545 1642.65,-136.867 1641.18,-130.023"/>
</g>
<!-- Node24 -->
<g id="node24" class="node"><title>Node24</title>
<g id="a_node24"><a xlink:href="pmetestcommon_8h.xhtml" target="_top" xlink:title="Describes common routines and types for PME tests. ">
<polygon fill="white" stroke="black" points="1846.5,-67.5 1846.5,-97.5 1970.5,-97.5 1970.5,-67.5 1846.5,-67.5"/>
<text text-anchor="start" x="1854.5" y="-85.5" font-family="Helvetica,sans-Serif" font-size="10.00">src/gromacs/ewald/tests</text>
<text text-anchor="middle" x="1908.5" y="-74.5" font-family="Helvetica,sans-Serif" font-size="10.00">/pmetestcommon.h</text>
</a>
</g>
</g>
<!-- Node23&#45;&gt;Node24 -->
<g id="edge28" class="edge"><title>Node23&#45;&gt;Node24</title>
<path fill="none" stroke="midnightblue" d="M1641.94,-133.736C1727.29,-116.842 1750.27,-113.552 1832.5,-98 1836.99,-97.1512 1841.62,-96.2721 1846.29,-95.3858"/>
<polygon fill="midnightblue" stroke="midnightblue" points="1641.19,-130.315 1632.07,-135.694 1642.56,-137.181 1641.19,-130.315"/>
</g>
<!-- Node24&#45;&gt;Node21 -->
<g id="edge29" class="edge"><title>Node24&#45;&gt;Node21</title>
<path fill="none" stroke="midnightblue" d="M1836.51,-70.9375C1750.68,-58.3436 1608.67,-37.5067 1527.5,-25.5971"/>
<polygon fill="midnightblue" stroke="midnightblue" points="1836.03,-74.4047 1846.44,-72.3936 1837.05,-67.4789 1836.03,-74.4047"/>
</g>
<!-- Node24&#45;&gt;Node22 -->
<g id="edge33" class="edge"><title>Node24&#45;&gt;Node22</title>
<path fill="none" stroke="midnightblue" d="M1852.61,-64.4442C1818.08,-53.9078 1774.31,-40.5495 1741.74,-30.6109"/>
<polygon fill="midnightblue" stroke="midnightblue" points="1851.96,-67.9048 1862.54,-67.476 1854,-61.2096 1851.96,-67.9048"/>
</g>
<!-- Node25 -->
<g id="node25" class="node"><title>Node25</title>
<g id="a_node25"><a xlink:href="pmegathertest_8cpp.xhtml" target="_top" xlink:title="Implements PME force gathering tests. ">
<polygon fill="white" stroke="black" points="1775.5,-0.5 1775.5,-30.5 1899.5,-30.5 1899.5,-0.5 1775.5,-0.5"/>
<text text-anchor="start" x="1783.5" y="-18.5" font-family="Helvetica,sans-Serif" font-size="10.00">src/gromacs/ewald/tests</text>
<text text-anchor="middle" x="1837.5" y="-7.5" font-family="Helvetica,sans-Serif" font-size="10.00">/pmegathertest.cpp</text>
</a>
</g>
</g>
<!-- Node24&#45;&gt;Node25 -->
<g id="edge30" class="edge"><title>Node24&#45;&gt;Node25</title>
<path fill="none" stroke="midnightblue" d="M1885.67,-60.5978C1874.95,-50.7831 1862.45,-39.3442 1852.88,-30.5765"/>
<polygon fill="midnightblue" stroke="midnightblue" points="1883.35,-63.225 1893.09,-67.396 1888.08,-58.0618 1883.35,-63.225"/>
</g>
<!-- Node26 -->
<g id="node26" class="node"><title>Node26</title>
<g id="a_node26"><a xlink:href="pmesolvetest_8cpp.xhtml" target="_top" xlink:title="Implements PME solving tests. ">
<polygon fill="white" stroke="black" points="1917.5,-0.5 1917.5,-30.5 2041.5,-30.5 2041.5,-0.5 1917.5,-0.5"/>
<text text-anchor="start" x="1925.5" y="-18.5" font-family="Helvetica,sans-Serif" font-size="10.00">src/gromacs/ewald/tests</text>
<text text-anchor="middle" x="1979.5" y="-7.5" font-family="Helvetica,sans-Serif" font-size="10.00">/pmesolvetest.cpp</text>
</a>
</g>
</g>
<!-- Node24&#45;&gt;Node26 -->
<g id="edge31" class="edge"><title>Node24&#45;&gt;Node26</title>
<path fill="none" stroke="midnightblue" d="M1931.33,-60.5978C1942.05,-50.7831 1954.55,-39.3442 1964.12,-30.5765"/>
<polygon fill="midnightblue" stroke="midnightblue" points="1928.92,-58.0618 1923.91,-67.396 1933.65,-63.225 1928.92,-58.0618"/>
</g>
<!-- Node27 -->
<g id="node27" class="node"><title>Node27</title>
<g id="a_node27"><a xlink:href="pmesplinespreadtest_8cpp.xhtml" target="_top" xlink:title="Implements PME spline computation and charge spreading tests. ">
<polygon fill="white" stroke="black" points="2059.5,-0.5 2059.5,-30.5 2187.5,-30.5 2187.5,-0.5 2059.5,-0.5"/>
<text text-anchor="start" x="2067.5" y="-18.5" font-family="Helvetica,sans-Serif" font-size="10.00">src/gromacs/ewald/tests</text>
<text text-anchor="middle" x="2123.5" y="-7.5" font-family="Helvetica,sans-Serif" font-size="10.00">/pmesplinespreadtest.cpp</text>
</a>
</g>
</g>
<!-- Node24&#45;&gt;Node27 -->
<g id="edge32" class="edge"><title>Node24&#45;&gt;Node27</title>
<path fill="none" stroke="midnightblue" d="M1964.47,-64.5797C1999.39,-54.0225 2043.81,-40.5921 2076.83,-30.6109"/>
<polygon fill="midnightblue" stroke="midnightblue" points="1963.45,-61.2318 1954.89,-67.476 1965.47,-67.9323 1963.45,-61.2318"/>
</g>
<!-- Node31&#45;&gt;Node4 -->
<g id="edge39" class="edge"><title>Node31&#45;&gt;Node4</title>
<path fill="none" stroke="midnightblue" d="M1581,-204.881C1574.45,-203.549 1567.82,-202.225 1561.5,-201 1473.26,-183.883 1450.83,-181.642 1362.5,-165 1352.47,-163.109 1341.68,-161.025 1331.52,-159.04"/>
<polygon fill="midnightblue" stroke="midnightblue" points="1580.69,-208.39 1591.19,-206.968 1582.09,-201.532 1580.69,-208.39"/>
</g>
<!-- Node32 -->
<g id="node32" class="node"><title>Node32</title>
<g id="a_node32"><a xlink:href="bias_8cpp.xhtml" target="_top" xlink:title="Implements the Bias class. ">
<polygon fill="white" stroke="black" points="1650,-140 1650,-159 1781,-159 1781,-140 1650,-140"/>
<text text-anchor="middle" x="1715.5" y="-147" font-family="Helvetica,sans-Serif" font-size="10.00">src/gromacs/awh/bias.cpp</text>
</a>
</g>
</g>
<!-- Node31&#45;&gt;Node32 -->
<g id="edge40" class="edge"><title>Node31&#45;&gt;Node32</title>
<path fill="none" stroke="midnightblue" d="M1650.8,-200.568C1667.38,-187.738 1690.71,-169.685 1704.35,-159.127"/>
<polygon fill="midnightblue" stroke="midnightblue" points="1648.6,-197.846 1642.83,-206.734 1652.88,-203.382 1648.6,-197.846"/>
</g>
<!-- Node33&#45;&gt;Node31 -->
<g id="edge42" class="edge"><title>Node33&#45;&gt;Node31</title>
<path fill="none" stroke="midnightblue" d="M1732.66,-269.274C1707.5,-256.4 1670.01,-237.209 1648.43,-226.167"/>
<polygon fill="midnightblue" stroke="midnightblue" points="1731.14,-272.428 1741.64,-273.869 1734.33,-266.197 1731.14,-272.428"/>
</g>
<!-- Node34 -->
<g id="node34" class="node"><title>Node34</title>
<g id="a_node34"><a xlink:href="biasstate_8cpp.xhtml" target="_top" xlink:title="Implements the BiasState class. ">
<polygon fill="white" stroke="black" points="1710,-207 1710,-226 1863,-226 1863,-207 1710,-207"/>
<text text-anchor="middle" x="1786.5" y="-214" font-family="Helvetica,sans-Serif" font-size="10.00">src/gromacs/awh/biasstate.cpp</text>
</a>
</g>
</g>
<!-- Node33&#45;&gt;Node34 -->
<g id="edge43" class="edge"><title>Node33&#45;&gt;Node34</title>
<path fill="none" stroke="midnightblue" d="M1766.34,-264.29C1771.72,-251.808 1778.61,-235.814 1782.78,-226.127"/>
<polygon fill="midnightblue" stroke="midnightblue" points="1763.02,-263.165 1762.28,-273.734 1769.45,-265.934 1763.02,-263.165"/>
</g>
<!-- Node35&#45;&gt;Node36 -->
<g id="edge46" class="edge"><title>Node35&#45;&gt;Node36</title>
<path fill="none" stroke="midnightblue" d="M1936.12,-258.108C1935.99,-249.154 1935.84,-239.323 1935.72,-231.577"/>
<polygon fill="midnightblue" stroke="midnightblue" points="1932.63,-258.451 1936.28,-268.396 1939.63,-258.343 1932.63,-258.451"/>
</g>
<!-- Node37 -->
<g id="node37" class="node"><title>Node37</title>
<g id="a_node37"><a xlink:href="splinetable_8cpp.xhtml" target="_top" xlink:title="Tests for simple math functions.eval. ">
<polygon fill="white" stroke="black" points="2007.5,-201.5 2007.5,-231.5 2117.5,-231.5 2117.5,-201.5 2007.5,-201.5"/>
<text text-anchor="start" x="2015.5" y="-219.5" font-family="Helvetica,sans-Serif" font-size="10.00">src/gromacs/tables</text>
<text text-anchor="middle" x="2062.5" y="-208.5" font-family="Helvetica,sans-Serif" font-size="10.00">/tests/splinetable.cpp</text>
</a>
</g>
</g>
<!-- Node35&#45;&gt;Node37 -->
<g id="edge47" class="edge"><title>Node35&#45;&gt;Node37</title>
<path fill="none" stroke="midnightblue" d="M1972.92,-263.714C1992.79,-253.463 2016.98,-240.983 2035.21,-231.577"/>
<polygon fill="midnightblue" stroke="midnightblue" points="1971.12,-260.701 1963.84,-268.396 1974.33,-266.922 1971.12,-260.701"/>
</g>
<!-- Node38&#45;&gt;Node36 -->
<g id="edge50" class="edge"><title>Node38&#45;&gt;Node36</title>
<path fill="none" stroke="midnightblue" d="M2126.56,-266.978C2084.89,-256.188 2029.82,-241.926 1989.51,-231.487"/>
<polygon fill="midnightblue" stroke="midnightblue" points="2125.75,-270.384 2136.31,-269.503 2127.51,-263.607 2125.75,-270.384"/>
</g>
<!-- Node38&#45;&gt;Node39 -->
<g id="edge51" class="edge"><title>Node38&#45;&gt;Node39</title>
<path fill="none" stroke="midnightblue" d="M2190.95,-258.403C2192.62,-249.37 2194.46,-239.408 2195.9,-231.577"/>
<polygon fill="midnightblue" stroke="midnightblue" points="2187.48,-257.927 2189.1,-268.396 2194.36,-259.198 2187.48,-257.927"/>
</g>
<!-- Node38&#45;&gt;Node40 -->
<g id="edge52" class="edge"><title>Node38&#45;&gt;Node40</title>
<path fill="none" stroke="midnightblue" d="M2226.91,-264.131C2249.63,-253.802 2277.56,-241.11 2298.53,-231.577"/>
<polygon fill="midnightblue" stroke="midnightblue" points="2225.18,-261.072 2217.53,-268.396 2228.08,-267.444 2225.18,-261.072"/>
</g>
<!-- Node41&#45;&gt;Node37 -->
<g id="edge55" class="edge"><title>Node41&#45;&gt;Node37</title>
<path fill="none" stroke="midnightblue" d="M2061.88,-258.108C2062.01,-249.154 2062.16,-239.323 2062.28,-231.577"/>
<polygon fill="midnightblue" stroke="midnightblue" points="2058.37,-258.343 2061.72,-268.396 2065.37,-258.451 2058.37,-258.343"/>
</g>
<!-- Node41&#45;&gt;Node39 -->
<g id="edge54" class="edge"><title>Node41&#45;&gt;Node39</title>
<path fill="none" stroke="midnightblue" d="M2100.51,-263.992C2122.22,-253.689 2148.83,-241.068 2168.83,-231.577"/>
<polygon fill="midnightblue" stroke="midnightblue" points="2098.76,-260.947 2091.23,-268.396 2101.76,-267.272 2098.76,-260.947"/>
</g>
</g>
</svg>
