<?xml version="1.0" encoding="UTF-8" standalone="no"?>
<!DOCTYPE svg PUBLIC "-//W3C//DTD SVG 1.1//EN"
 "http://www.w3.org/Graphics/SVG/1.1/DTD/svg11.dtd">
<!-- Generated by graphviz version 2.38.0 (20140413.2041)
 -->
<!-- Title: src/gromacs/analysisdata/analysisdata.cpp Pages: 1 -->
<svg width="1402pt" height="419pt"
 viewBox="0.00 0.00 1401.50 419.00" xmlns="http://www.w3.org/2000/svg" xmlns:xlink="http://www.w3.org/1999/xlink">
<g id="graph0" class="graph" transform="scale(1 1) rotate(0) translate(4 415)">
<title>src/gromacs/analysisdata/analysisdata.cpp</title>
<polygon fill="white" stroke="none" points="-4,4 -4,-415 1397.5,-415 1397.5,4 -4,4"/>
<!-- Node1 -->
<g id="node1" class="node"><title>Node1</title>
<polygon fill="#bfbfbf" stroke="black" points="603.5,-380.5 603.5,-410.5 731.5,-410.5 731.5,-380.5 603.5,-380.5"/>
<text text-anchor="start" x="611.5" y="-398.5" font-family="Helvetica,sans-Serif" font-size="10.00">src/gromacs/analysisdata</text>
<text text-anchor="middle" x="667.5" y="-387.5" font-family="Helvetica,sans-Serif" font-size="10.00">/analysisdata.cpp</text>
</g>
<!-- Node2 -->
<g id="node2" class="node"><title>Node2</title>
<g id="a_node2"><a xlink:href="gmxpre_8h.xhtml" target="_top" xlink:title="Prerequisite header file for GROMACS build. ">
<polygon fill="white" stroke="black" points="0,-319 0,-338 57,-338 57,-319 0,-319"/>
<text text-anchor="middle" x="28.5" y="-326" font-family="Helvetica,sans-Serif" font-size="10.00">gmxpre.h</text>
</a>
</g>
</g>
<!-- Node1&#45;&gt;Node2 -->
<g id="edge1" class="edge"><title>Node1&#45;&gt;Node2</title>
<path fill="none" stroke="midnightblue" d="M603.266,-394.097C493.238,-392.29 262.133,-383.613 71.5,-344 67.812,-343.234 64.0016,-342.248 60.2433,-341.151"/>
<polygon fill="midnightblue" stroke="midnightblue" points="61.1265,-337.759 50.536,-338.064 59.005,-344.43 61.1265,-337.759"/>
</g>
<!-- Node3 -->
<g id="node3" class="node"><title>Node3</title>
<g id="a_node3"><a xlink:href="analysisdata_2analysisdata_8h.xhtml" target="_top" xlink:title="Declares gmx::AnalysisData and gmx::AnalysisDataHandle. ">
<polygon fill="white" stroke="black" points="378.5,-252 378.5,-271 458.5,-271 458.5,-252 378.5,-252"/>
<text text-anchor="middle" x="418.5" y="-259" font-family="Helvetica,sans-Serif" font-size="10.00">analysisdata.h</text>
</a>
</g>
</g>
<!-- Node1&#45;&gt;Node3 -->
<g id="edge2" class="edge"><title>Node1&#45;&gt;Node3</title>
<path fill="none" stroke="midnightblue" d="M640.853,-380.374C592.495,-354.738 490.93,-300.897 443.676,-275.846"/>
<polygon fill="midnightblue" stroke="midnightblue" points="445.192,-272.689 434.718,-271.097 441.914,-278.873 445.192,-272.689"/>
</g>
<!-- Node5 -->
<g id="node5" class="node"><title>Node5</title>
<polygon fill="white" stroke="#bfbfbf" points="147.5,-62 147.5,-81 199.5,-81 199.5,-62 147.5,-62"/>
<text text-anchor="middle" x="173.5" y="-69" font-family="Helvetica,sans-Serif" font-size="10.00">memory</text>
</g>
<!-- Node1&#45;&gt;Node5 -->
<g id="edge8" class="edge"><title>Node1&#45;&gt;Node5</title>
<path fill="none" stroke="midnightblue" d="M603.272,-393.4C451.912,-389.071 85.5,-367.727 85.5,-262.5 85.5,-262.5 85.5,-262.5 85.5,-193.5 85.5,-147.993 126.714,-108.102 152.732,-87.4539"/>
<polygon fill="midnightblue" stroke="midnightblue" points="155.078,-90.066 160.892,-81.2087 150.823,-84.5074 155.078,-90.066"/>
</g>
<!-- Node8 -->
<g id="node8" class="node"><title>Node8</title>
<g id="a_node8"><a xlink:href="dataframe_8h.xhtml" target="_top" xlink:title="Declares classes for accessing data frame information. ">
<polygon fill="white" stroke="black" points="758.5,-246.5 758.5,-276.5 870.5,-276.5 870.5,-246.5 758.5,-246.5"/>
<text text-anchor="start" x="766.5" y="-264.5" font-family="Helvetica,sans-Serif" font-size="10.00">gromacs/analysisdata</text>
<text text-anchor="middle" x="814.5" y="-253.5" font-family="Helvetica,sans-Serif" font-size="10.00">/dataframe.h</text>
</a>
</g>
</g>
<!-- Node1&#45;&gt;Node8 -->
<g id="edge9" class="edge"><title>Node1&#45;&gt;Node8</title>
<path fill="none" stroke="midnightblue" d="M676.986,-380.365C689.008,-363.124 711.012,-333.721 734.5,-313 747.862,-301.212 764.265,-290.346 778.733,-281.738"/>
<polygon fill="midnightblue" stroke="midnightblue" points="780.554,-284.728 787.446,-276.681 777.041,-278.673 780.554,-284.728"/>
</g>
<!-- Node16 -->
<g id="node16" class="node"><title>Node16</title>
<g id="a_node16"><a xlink:href="gmxassert_8h.xhtml" target="_top" xlink:title="Defines assert macros customized for Gromacs. ">
<polygon fill="white" stroke="black" points="1236,-123.5 1236,-142.5 1373,-142.5 1373,-123.5 1236,-123.5"/>
<text text-anchor="middle" x="1304.5" y="-130.5" font-family="Helvetica,sans-Serif" font-size="10.00">gromacs/utility/gmxassert.h</text>
</a>
</g>
</g>
<!-- Node1&#45;&gt;Node16 -->
<g id="edge46" class="edge"><title>Node1&#45;&gt;Node16</title>
<path fill="none" stroke="midnightblue" d="M731.524,-385.251C842.018,-366.893 1072.24,-317.928 1234.5,-210 1258.44,-194.073 1279.85,-168.29 1292.51,-151.241"/>
<polygon fill="midnightblue" stroke="midnightblue" points="1295.59,-152.945 1298.6,-142.786 1289.91,-148.853 1295.59,-152.945"/>
</g>
<!-- Node22 -->
<g id="node22" class="node"><title>Node22</title>
<g id="a_node22"><a xlink:href="datastorage_8h.xhtml" target="_top" xlink:title="Declares gmx::AnalysisDataStorage. ">
<polygon fill="white" stroke="black" points="743.5,-313.5 743.5,-343.5 855.5,-343.5 855.5,-313.5 743.5,-313.5"/>
<text text-anchor="start" x="751.5" y="-331.5" font-family="Helvetica,sans-Serif" font-size="10.00">gromacs/analysisdata</text>
<text text-anchor="middle" x="799.5" y="-320.5" font-family="Helvetica,sans-Serif" font-size="10.00">/datastorage.h</text>
</a>
</g>
</g>
<!-- Node1&#45;&gt;Node22 -->
<g id="edge26" class="edge"><title>Node1&#45;&gt;Node22</title>
<path fill="none" stroke="midnightblue" d="M696.142,-380.396C715.342,-370.941 740.832,-358.39 761.694,-348.117"/>
<polygon fill="midnightblue" stroke="midnightblue" points="763.489,-351.134 770.914,-343.577 760.396,-344.854 763.489,-351.134"/>
</g>
<!-- Node23 -->
<g id="node23" class="node"><title>Node23</title>
<g id="a_node23"><a xlink:href="paralleloptions_8h.xhtml" target="_top" xlink:title="Declares gmx::AnalysisDataParallelOptions. ">
<polygon fill="white" stroke="black" points="1281.5,-313.5 1281.5,-343.5 1393.5,-343.5 1393.5,-313.5 1281.5,-313.5"/>
<text text-anchor="start" x="1289.5" y="-331.5" font-family="Helvetica,sans-Serif" font-size="10.00">gromacs/analysisdata</text>
<text text-anchor="middle" x="1337.5" y="-320.5" font-family="Helvetica,sans-Serif" font-size="10.00">/paralleloptions.h</text>
</a>
</g>
</g>
<!-- Node1&#45;&gt;Node23 -->
<g id="edge32" class="edge"><title>Node1&#45;&gt;Node23</title>
<path fill="none" stroke="midnightblue" d="M731.723,-391.634C841.83,-386.154 1073.53,-372.149 1267.5,-344 1268.78,-343.815 1270.07,-343.62 1271.37,-343.418"/>
<polygon fill="midnightblue" stroke="midnightblue" points="1272.16,-346.834 1281.44,-341.731 1271,-339.931 1272.16,-346.834"/>
</g>
<!-- Node24 -->
<g id="node24" class="node"><title>Node24</title>
<g id="a_node24"><a xlink:href="exceptions_8h.xhtml" target="_top" xlink:title="Declares common exception classes and macros for fatal error handling. ">
<polygon fill="white" stroke="black" points="515,-185 515,-204 654,-204 654,-185 515,-185"/>
<text text-anchor="middle" x="584.5" y="-192" font-family="Helvetica,sans-Serif" font-size="10.00">gromacs/utility/exceptions.h</text>
</a>
</g>
</g>
<!-- Node1&#45;&gt;Node24 -->
<g id="edge33" class="edge"><title>Node1&#45;&gt;Node24</title>
<path fill="none" stroke="midnightblue" d="M661.531,-380.188C646.754,-344.759 608.483,-253 592.111,-213.749"/>
<polygon fill="midnightblue" stroke="midnightblue" points="595.275,-212.242 588.195,-204.36 588.815,-214.937 595.275,-212.242"/>
</g>
<!-- Node4 -->
<g id="node4" class="node"><title>Node4</title>
<g id="a_node4"><a xlink:href="abstractdata_8h.xhtml" target="_top" xlink:title="Declares gmx::AbstractAnalysisData. ">
<polygon fill="white" stroke="black" points="168.5,-179.5 168.5,-209.5 280.5,-209.5 280.5,-179.5 168.5,-179.5"/>
<text text-anchor="start" x="176.5" y="-197.5" font-family="Helvetica,sans-Serif" font-size="10.00">gromacs/analysisdata</text>
<text text-anchor="middle" x="224.5" y="-186.5" font-family="Helvetica,sans-Serif" font-size="10.00">/abstractdata.h</text>
</a>
</g>
</g>
<!-- Node3&#45;&gt;Node4 -->
<g id="edge3" class="edge"><title>Node3&#45;&gt;Node4</title>
<path fill="none" stroke="midnightblue" d="M392.738,-251.869C363.124,-241.946 313.765,-225.408 276.149,-212.805"/>
<polygon fill="midnightblue" stroke="midnightblue" points="276.962,-209.386 266.368,-209.528 274.738,-216.024 276.962,-209.386"/>
</g>
<!-- Node7 -->
<g id="node7" class="node"><title>Node7</title>
<g id="a_node7"><a xlink:href="real_8h.xhtml" target="_top" xlink:title="Declares real and related constants. ">
<polygon fill="white" stroke="black" points="677,-185 677,-204 784,-204 784,-185 677,-185"/>
<text text-anchor="middle" x="730.5" y="-192" font-family="Helvetica,sans-Serif" font-size="10.00">gromacs/utility/real.h</text>
</a>
</g>
</g>
<!-- Node3&#45;&gt;Node7 -->
<g id="edge7" class="edge"><title>Node3&#45;&gt;Node7</title>
<path fill="none" stroke="midnightblue" d="M458.844,-252.311C507.423,-242.421 591.478,-225.216 663.5,-210 669.244,-208.787 675.262,-207.502 681.235,-206.22"/>
<polygon fill="midnightblue" stroke="midnightblue" points="682.15,-209.603 691.189,-204.075 680.676,-202.76 682.15,-209.603"/>
</g>
<!-- Node4&#45;&gt;Node5 -->
<g id="edge4" class="edge"><title>Node4&#45;&gt;Node5</title>
<path fill="none" stroke="midnightblue" d="M185.38,-179.483C169.072,-171.474 151.795,-159.64 142.5,-143 132.58,-125.241 145.4,-103.69 157.435,-89.1269"/>
<polygon fill="midnightblue" stroke="midnightblue" points="160.235,-91.2448 164.252,-81.4412 154.998,-86.5997 160.235,-91.2448"/>
</g>
<!-- Node6 -->
<g id="node6" class="node"><title>Node6</title>
<g id="a_node6"><a xlink:href="classhelpers_8h.xhtml" target="_top" xlink:title="Declares common utility classes and macros. ">
<polygon fill="white" stroke="black" points="151.5,-123.5 151.5,-142.5 297.5,-142.5 297.5,-123.5 151.5,-123.5"/>
<text text-anchor="middle" x="224.5" y="-130.5" font-family="Helvetica,sans-Serif" font-size="10.00">gromacs/utility/classhelpers.h</text>
</a>
</g>
</g>
<!-- Node4&#45;&gt;Node6 -->
<g id="edge5" class="edge"><title>Node4&#45;&gt;Node6</title>
<path fill="none" stroke="midnightblue" d="M224.5,-179.399C224.5,-171.466 224.5,-161.458 224.5,-152.858"/>
<polygon fill="midnightblue" stroke="midnightblue" points="228,-152.658 224.5,-142.658 221,-152.658 228,-152.658"/>
</g>
<!-- Node6&#45;&gt;Node5 -->
<g id="edge6" class="edge"><title>Node6&#45;&gt;Node5</title>
<path fill="none" stroke="midnightblue" d="M217.193,-123.475C209.467,-114.462 197.092,-100.025 187.482,-88.8118"/>
<polygon fill="midnightblue" stroke="midnightblue" points="189.959,-86.3239 180.794,-81.0091 184.644,-90.8795 189.959,-86.3239"/>
</g>
<!-- Node8&#45;&gt;Node7 -->
<g id="edge25" class="edge"><title>Node8&#45;&gt;Node7</title>
<path fill="none" stroke="midnightblue" d="M796.273,-246.396C782.527,-235.759 763.716,-221.203 749.731,-210.381"/>
<polygon fill="midnightblue" stroke="midnightblue" points="751.787,-207.546 741.736,-204.195 747.503,-213.082 751.787,-207.546"/>
</g>
<!-- Node9 -->
<g id="node9" class="node"><title>Node9</title>
<polygon fill="white" stroke="#bfbfbf" points="848.5,-123.5 848.5,-142.5 892.5,-142.5 892.5,-123.5 848.5,-123.5"/>
<text text-anchor="middle" x="870.5" y="-130.5" font-family="Helvetica,sans-Serif" font-size="10.00">vector</text>
</g>
<!-- Node8&#45;&gt;Node9 -->
<g id="edge10" class="edge"><title>Node8&#45;&gt;Node9</title>
<path fill="none" stroke="midnightblue" d="M820.707,-246.479C830.919,-223.411 851.251,-177.482 862.519,-152.029"/>
<polygon fill="midnightblue" stroke="midnightblue" points="865.762,-153.349 866.609,-142.789 859.361,-150.516 865.762,-153.349"/>
</g>
<!-- Node10 -->
<g id="node10" class="node"><title>Node10</title>
<g id="a_node10"><a xlink:href="arrayref_8h.xhtml" target="_top" xlink:title="Declares gmx::ArrayRef. ">
<polygon fill="white" stroke="black" points="930,-185 930,-204 1055,-204 1055,-185 930,-185"/>
<text text-anchor="middle" x="992.5" y="-192" font-family="Helvetica,sans-Serif" font-size="10.00">gromacs/utility/arrayref.h</text>
</a>
</g>
</g>
<!-- Node8&#45;&gt;Node10 -->
<g id="edge11" class="edge"><title>Node8&#45;&gt;Node10</title>
<path fill="none" stroke="midnightblue" d="M853.123,-246.396C884.908,-234.789 929.475,-218.515 959.586,-207.519"/>
<polygon fill="midnightblue" stroke="midnightblue" points="961.011,-210.725 969.204,-204.007 958.61,-204.15 961.011,-210.725"/>
</g>
<!-- Node8&#45;&gt;Node16 -->
<g id="edge24" class="edge"><title>Node8&#45;&gt;Node16</title>
<path fill="none" stroke="midnightblue" d="M870.721,-256.716C922.99,-251.477 1001.97,-239.092 1064.5,-210 1084.58,-200.66 1083.52,-188.55 1103.5,-179 1141.7,-160.736 1187.57,-149.741 1225.84,-143.197"/>
<polygon fill="midnightblue" stroke="midnightblue" points="1226.6,-146.618 1235.91,-141.547 1225.47,-139.71 1226.6,-146.618"/>
</g>
<!-- Node21 -->
<g id="node21" class="node"><title>Node21</title>
<g id="a_node21"><a xlink:href="flags_8h.xhtml" target="_top" xlink:title="Declares gmx::FlagsTemplate. ">
<polygon fill="white" stroke="black" points="1112,-185 1112,-204 1225,-204 1225,-185 1112,-185"/>
<text text-anchor="middle" x="1168.5" y="-192" font-family="Helvetica,sans-Serif" font-size="10.00">gromacs/utility/flags.h</text>
</a>
</g>
</g>
<!-- Node8&#45;&gt;Node21 -->
<g id="edge23" class="edge"><title>Node8&#45;&gt;Node21</title>
<path fill="none" stroke="midnightblue" d="M870.687,-250.898C927.846,-241.03 1018.95,-225.028 1097.5,-210 1104.06,-208.745 1110.95,-207.388 1117.75,-206.023"/>
<polygon fill="midnightblue" stroke="midnightblue" points="1118.5,-209.443 1127.61,-204.032 1117.12,-202.582 1118.5,-209.443"/>
</g>
<!-- Node10&#45;&gt;Node9 -->
<g id="edge17" class="edge"><title>Node10&#45;&gt;Node9</title>
<path fill="none" stroke="midnightblue" d="M975.02,-184.975C954.637,-175.034 920.725,-158.495 897.075,-146.961"/>
<polygon fill="midnightblue" stroke="midnightblue" points="898.469,-143.747 887.947,-142.509 895.401,-150.038 898.469,-143.747"/>
</g>
<!-- Node11 -->
<g id="node11" class="node"><title>Node11</title>
<polygon fill="white" stroke="#bfbfbf" points="911,-123.5 911,-142.5 960,-142.5 960,-123.5 911,-123.5"/>
<text text-anchor="middle" x="935.5" y="-130.5" font-family="Helvetica,sans-Serif" font-size="10.00">cstddef</text>
</g>
<!-- Node10&#45;&gt;Node11 -->
<g id="edge12" class="edge"><title>Node10&#45;&gt;Node11</title>
<path fill="none" stroke="midnightblue" d="M984.333,-184.975C975.614,-175.873 961.596,-161.241 950.811,-149.983"/>
<polygon fill="midnightblue" stroke="midnightblue" points="953.097,-147.309 943.652,-142.509 948.042,-152.151 953.097,-147.309"/>
</g>
<!-- Node12 -->
<g id="node12" class="node"><title>Node12</title>
<polygon fill="white" stroke="#bfbfbf" points="978.5,-123.5 978.5,-142.5 1016.5,-142.5 1016.5,-123.5 978.5,-123.5"/>
<text text-anchor="middle" x="997.5" y="-130.5" font-family="Helvetica,sans-Serif" font-size="10.00">array</text>
</g>
<!-- Node10&#45;&gt;Node12 -->
<g id="edge13" class="edge"><title>Node10&#45;&gt;Node12</title>
<path fill="none" stroke="midnightblue" d="M993.216,-184.975C993.922,-176.58 995.023,-163.481 995.932,-152.663"/>
<polygon fill="midnightblue" stroke="midnightblue" points="999.435,-152.767 996.785,-142.509 992.46,-152.181 999.435,-152.767"/>
</g>
<!-- Node13 -->
<g id="node13" class="node"><title>Node13</title>
<polygon fill="white" stroke="#bfbfbf" points="1035,-123.5 1035,-142.5 1082,-142.5 1082,-123.5 1035,-123.5"/>
<text text-anchor="middle" x="1058.5" y="-130.5" font-family="Helvetica,sans-Serif" font-size="10.00">iterator</text>
</g>
<!-- Node10&#45;&gt;Node13 -->
<g id="edge14" class="edge"><title>Node10&#45;&gt;Node13</title>
<path fill="none" stroke="midnightblue" d="M1001.96,-184.975C1012.25,-175.697 1028.92,-160.671 1041.49,-149.331"/>
<polygon fill="midnightblue" stroke="midnightblue" points="1043.98,-151.805 1049.06,-142.509 1039.29,-146.605 1043.98,-151.805"/>
</g>
<!-- Node14 -->
<g id="node14" class="node"><title>Node14</title>
<polygon fill="white" stroke="#bfbfbf" points="1100,-123.5 1100,-142.5 1159,-142.5 1159,-123.5 1100,-123.5"/>
<text text-anchor="middle" x="1129.5" y="-130.5" font-family="Helvetica,sans-Serif" font-size="10.00">stdexcept</text>
</g>
<!-- Node10&#45;&gt;Node14 -->
<g id="edge15" class="edge"><title>Node10&#45;&gt;Node14</title>
<path fill="none" stroke="midnightblue" d="M1012.13,-184.975C1035.32,-174.901 1074.12,-158.053 1100.71,-146.502"/>
<polygon fill="midnightblue" stroke="midnightblue" points="1102.13,-149.703 1109.91,-142.509 1099.34,-143.282 1102.13,-149.703"/>
</g>
<!-- Node15 -->
<g id="node15" class="node"><title>Node15</title>
<polygon fill="white" stroke="#bfbfbf" points="1177.5,-123.5 1177.5,-142.5 1217.5,-142.5 1217.5,-123.5 1177.5,-123.5"/>
<text text-anchor="middle" x="1197.5" y="-130.5" font-family="Helvetica,sans-Serif" font-size="10.00">utility</text>
</g>
<!-- Node10&#45;&gt;Node15 -->
<g id="edge16" class="edge"><title>Node10&#45;&gt;Node15</title>
<path fill="none" stroke="midnightblue" d="M1023.08,-184.94C1056.31,-175.592 1111.21,-160.013 1167.46,-143.267"/>
<polygon fill="midnightblue" stroke="midnightblue" points="1168.65,-146.564 1177.24,-140.35 1166.65,-139.856 1168.65,-146.564"/>
</g>
<!-- Node10&#45;&gt;Node16 -->
<g id="edge18" class="edge"><title>Node10&#45;&gt;Node16</title>
<path fill="none" stroke="midnightblue" d="M1037.2,-184.975C1093.27,-174.283 1189.36,-155.958 1249.77,-144.437"/>
<polygon fill="midnightblue" stroke="midnightblue" points="1250.71,-147.82 1259.88,-142.509 1249.4,-140.944 1250.71,-147.82"/>
</g>
<!-- Node17 -->
<g id="node17" class="node"><title>Node17</title>
<g id="a_node17"><a xlink:href="basedefinitions_8h.xhtml" target="_top" xlink:title="Basic types and macros used throughout GROMACS. ">
<polygon fill="white" stroke="black" points="482,-62 482,-81 639,-81 639,-62 482,-62"/>
<text text-anchor="middle" x="560.5" y="-69" font-family="Helvetica,sans-Serif" font-size="10.00">gromacs/utility/basedefinitions.h</text>
</a>
</g>
</g>
<!-- Node16&#45;&gt;Node17 -->
<g id="edge19" class="edge"><title>Node16&#45;&gt;Node17</title>
<path fill="none" stroke="midnightblue" d="M1235.61,-123.903C1232.53,-123.588 1229.49,-123.285 1226.5,-123 1019.99,-103.264 776.85,-86.4493 649.137,-78.1117"/>
<polygon fill="midnightblue" stroke="midnightblue" points="649.224,-74.61 639.018,-77.4531 648.769,-81.5953 649.224,-74.61"/>
</g>
<!-- Node20 -->
<g id="node20" class="node"><title>Node20</title>
<g id="a_node20"><a xlink:href="current__function_8h.xhtml" target="_top" xlink:title="Declares GMX_CURRENT_FUNCTION for getting the current function name. ">
<polygon fill="white" stroke="black" points="1051,-56.5 1051,-86.5 1164,-86.5 1164,-56.5 1051,-56.5"/>
<text text-anchor="start" x="1059" y="-74.5" font-family="Helvetica,sans-Serif" font-size="10.00">gromacs/utility/current</text>
<text text-anchor="middle" x="1107.5" y="-63.5" font-family="Helvetica,sans-Serif" font-size="10.00">_function.h</text>
</a>
</g>
</g>
<!-- Node16&#45;&gt;Node20 -->
<g id="edge22" class="edge"><title>Node16&#45;&gt;Node20</title>
<path fill="none" stroke="midnightblue" d="M1276.27,-123.475C1246.98,-114.626 1200.37,-100.549 1163.55,-89.4277"/>
<polygon fill="midnightblue" stroke="midnightblue" points="1164.51,-86.0638 1153.93,-86.523 1162.49,-92.7649 1164.51,-86.0638"/>
</g>
<!-- Node18 -->
<g id="node18" class="node"><title>Node18</title>
<polygon fill="white" stroke="#bfbfbf" points="500,-0.5 500,-19.5 549,-19.5 549,-0.5 500,-0.5"/>
<text text-anchor="middle" x="524.5" y="-7.5" font-family="Helvetica,sans-Serif" font-size="10.00">stdint.h</text>
</g>
<!-- Node17&#45;&gt;Node18 -->
<g id="edge20" class="edge"><title>Node17&#45;&gt;Node18</title>
<path fill="none" stroke="midnightblue" d="M555.342,-61.9751C550.049,-53.2268 541.665,-39.3691 534.973,-28.3093"/>
<polygon fill="midnightblue" stroke="midnightblue" points="537.82,-26.2531 529.648,-19.5091 531.83,-29.8768 537.82,-26.2531"/>
</g>
<!-- Node19 -->
<g id="node19" class="node"><title>Node19</title>
<polygon fill="white" stroke="#bfbfbf" points="567,-0.5 567,-19.5 626,-19.5 626,-0.5 567,-0.5"/>
<text text-anchor="middle" x="596.5" y="-7.5" font-family="Helvetica,sans-Serif" font-size="10.00">inttypes.h</text>
</g>
<!-- Node17&#45;&gt;Node19 -->
<g id="edge21" class="edge"><title>Node17&#45;&gt;Node19</title>
<path fill="none" stroke="midnightblue" d="M565.658,-61.9751C570.951,-53.2268 579.335,-39.3691 586.027,-28.3093"/>
<polygon fill="midnightblue" stroke="midnightblue" points="589.17,-29.8768 591.352,-19.5091 583.18,-26.2531 589.17,-29.8768"/>
</g>
<!-- Node22&#45;&gt;Node6 -->
<g id="edge29" class="edge"><title>Node22&#45;&gt;Node6</title>
<path fill="none" stroke="midnightblue" d="M757.684,-313.428C649.249,-276.937 360.455,-179.752 259.74,-145.859"/>
<polygon fill="midnightblue" stroke="midnightblue" points="260.638,-142.468 250.044,-142.596 258.405,-149.103 260.638,-142.468"/>
</g>
<!-- Node22&#45;&gt;Node7 -->
<g id="edge31" class="edge"><title>Node22&#45;&gt;Node7</title>
<path fill="none" stroke="midnightblue" d="M781.215,-313.467C770.423,-304.236 757.375,-291.255 749.5,-277 738.654,-257.368 733.98,-231.776 731.978,-214.552"/>
<polygon fill="midnightblue" stroke="midnightblue" points="735.418,-213.759 730.976,-204.14 728.45,-214.429 735.418,-213.759"/>
</g>
<!-- Node22&#45;&gt;Node8 -->
<g id="edge28" class="edge"><title>Node22&#45;&gt;Node8</title>
<path fill="none" stroke="midnightblue" d="M802.755,-313.396C804.563,-305.56 806.863,-295.596 808.946,-286.565"/>
<polygon fill="midnightblue" stroke="midnightblue" points="812.413,-287.107 811.252,-276.577 805.593,-285.533 812.413,-287.107"/>
</g>
<!-- Node22&#45;&gt;Node9 -->
<g id="edge27" class="edge"><title>Node22&#45;&gt;Node9</title>
<path fill="none" stroke="midnightblue" d="M837.273,-313.47C853.311,-305.412 870.381,-293.541 879.5,-277 901.545,-237.015 887.351,-180.854 877.551,-152.269"/>
<polygon fill="midnightblue" stroke="midnightblue" points="880.799,-150.959 874.095,-142.755 874.22,-153.349 880.799,-150.959"/>
</g>
<!-- Node22&#45;&gt;Node16 -->
<g id="edge30" class="edge"><title>Node22&#45;&gt;Node16</title>
<path fill="none" stroke="midnightblue" d="M855.582,-322.394C942.405,-312.378 1112.09,-284.232 1234.5,-210 1259.35,-194.931 1280.78,-168.499 1293.17,-151.12"/>
<polygon fill="midnightblue" stroke="midnightblue" points="1296.3,-152.748 1299.08,-142.526 1290.53,-148.779 1296.3,-152.748"/>
</g>
<!-- Node24&#45;&gt;Node5 -->
<g id="edge37" class="edge"><title>Node24&#45;&gt;Node5</title>
<path fill="none" stroke="midnightblue" d="M544.322,-184.948C502.204,-175.704 434.25,-159.996 376.5,-143 315.131,-124.939 244.9,-99.444 205.21,-84.5763"/>
<polygon fill="midnightblue" stroke="midnightblue" points="206.393,-81.2821 195.801,-81.0363 203.928,-87.8337 206.393,-81.2821"/>
</g>
<!-- Node24&#45;&gt;Node6 -->
<g id="edge43" class="edge"><title>Node24&#45;&gt;Node6</title>
<path fill="none" stroke="midnightblue" d="M535.653,-184.989C524.129,-183.003 511.884,-180.911 500.5,-179 427.592,-166.764 343.768,-153.163 287.808,-144.15"/>
<polygon fill="midnightblue" stroke="midnightblue" points="288.122,-140.656 277.693,-142.522 287.009,-147.567 288.122,-140.656"/>
</g>
<!-- Node24&#45;&gt;Node9 -->
<g id="edge41" class="edge"><title>Node24&#45;&gt;Node9</title>
<path fill="none" stroke="midnightblue" d="M634.141,-184.991C683.618,-176.214 761.934,-161.524 838.411,-143.106"/>
<polygon fill="midnightblue" stroke="midnightblue" points="839.322,-146.487 848.211,-140.722 837.667,-139.685 839.322,-146.487"/>
</g>
<!-- Node24&#45;&gt;Node16 -->
<g id="edge45" class="edge"><title>Node24&#45;&gt;Node16</title>
<path fill="none" stroke="midnightblue" d="M628.837,-184.938C641.6,-182.72 655.567,-180.529 668.5,-179 912.043,-150.207 977.271,-164.851 1225.57,-143.033"/>
<polygon fill="midnightblue" stroke="midnightblue" points="1225.97,-146.512 1235.62,-142.139 1225.35,-139.539 1225.97,-146.512"/>
</g>
<!-- Node24&#45;&gt;Node17 -->
<g id="edge42" class="edge"><title>Node24&#45;&gt;Node17</title>
<path fill="none" stroke="midnightblue" d="M539.234,-184.916C484.038,-173.994 396.889,-155.099 387.5,-143 359.177,-106.5 415.938,-88.792 471.865,-80.2635"/>
<polygon fill="midnightblue" stroke="midnightblue" points="472.508,-83.7072 481.911,-78.8245 471.516,-76.7779 472.508,-83.7072"/>
</g>
<!-- Node24&#45;&gt;Node20 -->
<g id="edge44" class="edge"><title>Node24&#45;&gt;Node20</title>
<path fill="none" stroke="midnightblue" d="M535.296,-184.96C492.183,-176.357 434.303,-161.693 420.5,-143 415.22,-135.849 414.449,-129.512 420.5,-123 441.431,-100.474 872.25,-81.5443 1040.76,-74.9743"/>
<polygon fill="midnightblue" stroke="midnightblue" points="1041.14,-78.4625 1051,-74.578 1040.87,-71.4677 1041.14,-78.4625"/>
</g>
<!-- Node25 -->
<g id="node25" class="node"><title>Node25</title>
<polygon fill="white" stroke="#bfbfbf" points="430,-123.5 430,-142.5 473,-142.5 473,-123.5 430,-123.5"/>
<text text-anchor="middle" x="451.5" y="-130.5" font-family="Helvetica,sans-Serif" font-size="10.00">cstdio</text>
</g>
<!-- Node24&#45;&gt;Node25 -->
<g id="edge34" class="edge"><title>Node24&#45;&gt;Node25</title>
<path fill="none" stroke="midnightblue" d="M565.444,-184.975C543.025,-174.945 505.595,-158.2 479.787,-146.655"/>
<polygon fill="midnightblue" stroke="midnightblue" points="481.078,-143.398 470.52,-142.509 478.219,-149.788 481.078,-143.398"/>
</g>
<!-- Node26 -->
<g id="node26" class="node"><title>Node26</title>
<polygon fill="white" stroke="#bfbfbf" points="491,-123.5 491,-142.5 536,-142.5 536,-123.5 491,-123.5"/>
<text text-anchor="middle" x="513.5" y="-130.5" font-family="Helvetica,sans-Serif" font-size="10.00">cstdlib</text>
</g>
<!-- Node24&#45;&gt;Node26 -->
<g id="edge35" class="edge"><title>Node24&#45;&gt;Node26</title>
<path fill="none" stroke="midnightblue" d="M574.327,-184.975C563.15,-175.608 544.983,-160.384 531.409,-149.008"/>
<polygon fill="midnightblue" stroke="midnightblue" points="533.566,-146.25 523.654,-142.509 529.07,-151.615 533.566,-146.25"/>
</g>
<!-- Node27 -->
<g id="node27" class="node"><title>Node27</title>
<polygon fill="white" stroke="#bfbfbf" points="554,-123.5 554,-142.5 613,-142.5 613,-123.5 554,-123.5"/>
<text text-anchor="middle" x="583.5" y="-130.5" font-family="Helvetica,sans-Serif" font-size="10.00">exception</text>
</g>
<!-- Node24&#45;&gt;Node27 -->
<g id="edge36" class="edge"><title>Node24&#45;&gt;Node27</title>
<path fill="none" stroke="midnightblue" d="M584.357,-184.975C584.216,-176.58 583.995,-163.481 583.814,-152.663"/>
<polygon fill="midnightblue" stroke="midnightblue" points="587.311,-152.449 583.643,-142.509 580.312,-152.567 587.311,-152.449"/>
</g>
<!-- Node28 -->
<g id="node28" class="node"><title>Node28</title>
<polygon fill="white" stroke="#bfbfbf" points="631,-123.5 631,-142.5 672,-142.5 672,-123.5 631,-123.5"/>
<text text-anchor="middle" x="651.5" y="-130.5" font-family="Helvetica,sans-Serif" font-size="10.00">string</text>
</g>
<!-- Node24&#45;&gt;Node28 -->
<g id="edge38" class="edge"><title>Node24&#45;&gt;Node28</title>
<path fill="none" stroke="midnightblue" d="M594.099,-184.975C604.548,-175.697 621.468,-160.671 634.236,-149.331"/>
<polygon fill="midnightblue" stroke="midnightblue" points="636.765,-151.766 641.918,-142.509 632.117,-146.532 636.765,-151.766"/>
</g>
<!-- Node29 -->
<g id="node29" class="node"><title>Node29</title>
<polygon fill="white" stroke="#bfbfbf" points="690.5,-123.5 690.5,-142.5 752.5,-142.5 752.5,-123.5 690.5,-123.5"/>
<text text-anchor="middle" x="721.5" y="-130.5" font-family="Helvetica,sans-Serif" font-size="10.00">type_traits</text>
</g>
<!-- Node24&#45;&gt;Node29 -->
<g id="edge39" class="edge"><title>Node24&#45;&gt;Node29</title>
<path fill="none" stroke="midnightblue" d="M604.129,-184.975C627.324,-174.901 666.119,-158.053 692.713,-146.502"/>
<polygon fill="midnightblue" stroke="midnightblue" points="694.13,-149.703 701.908,-142.509 691.341,-143.282 694.13,-149.703"/>
</g>
<!-- Node30 -->
<g id="node30" class="node"><title>Node30</title>
<polygon fill="white" stroke="#bfbfbf" points="771,-123.5 771,-142.5 830,-142.5 830,-123.5 771,-123.5"/>
<text text-anchor="middle" x="800.5" y="-130.5" font-family="Helvetica,sans-Serif" font-size="10.00">typeindex</text>
</g>
<!-- Node24&#45;&gt;Node30 -->
<g id="edge40" class="edge"><title>Node24&#45;&gt;Node30</title>
<path fill="none" stroke="midnightblue" d="M615.448,-184.975C653.812,-174.407 719.245,-156.383 761.142,-144.842"/>
<polygon fill="midnightblue" stroke="midnightblue" points="762.285,-148.157 770.997,-142.127 760.426,-141.409 762.285,-148.157"/>
</g>
</g>
</svg>
