<?xml version="1.0" encoding="UTF-8" standalone="no"?>
<!DOCTYPE svg PUBLIC "-//W3C//DTD SVG 1.1//EN"
 "http://www.w3.org/Graphics/SVG/1.1/DTD/svg11.dtd">
<!-- Generated by graphviz version 2.38.0 (20140413.2041)
 -->
<!-- Title: src/gromacs/utility/tests/arrayref.cpp Pages: 1 -->
<svg width="785pt" height="274pt"
 viewBox="0.00 0.00 785.00 274.00" xmlns="http://www.w3.org/2000/svg" xmlns:xlink="http://www.w3.org/1999/xlink">
<g id="graph0" class="graph" transform="scale(1 1) rotate(0) translate(4 270)">
<title>src/gromacs/utility/tests/arrayref.cpp</title>
<polygon fill="white" stroke="none" points="-4,4 -4,-270 781,-270 781,4 -4,4"/>
<!-- Node1 -->
<g id="node1" class="node"><title>Node1</title>
<polygon fill="#bfbfbf" stroke="black" points="482,-235.5 482,-265.5 579,-265.5 579,-235.5 482,-235.5"/>
<text text-anchor="start" x="490" y="-253.5" font-family="Helvetica,sans-Serif" font-size="10.00">src/gromacs/utility</text>
<text text-anchor="middle" x="530.5" y="-242.5" font-family="Helvetica,sans-Serif" font-size="10.00">/tests/arrayref.cpp</text>
</g>
<!-- Node2 -->
<g id="node2" class="node"><title>Node2</title>
<g id="a_node2"><a xlink:href="gmxpre_8h.xhtml" target="_top" xlink:title="Prerequisite header file for GROMACS build. ">
<polygon fill="white" stroke="black" points="149,-179.5 149,-198.5 206,-198.5 206,-179.5 149,-179.5"/>
<text text-anchor="middle" x="177.5" y="-186.5" font-family="Helvetica,sans-Serif" font-size="10.00">gmxpre.h</text>
</a>
</g>
</g>
<!-- Node1&#45;&gt;Node2 -->
<g id="edge1" class="edge"><title>Node1&#45;&gt;Node2</title>
<path fill="none" stroke="midnightblue" d="M481.832,-242.958C421.595,-234.586 315.693,-218.978 216.063,-199.195"/>
<polygon fill="midnightblue" stroke="midnightblue" points="216.625,-195.738 206.133,-197.205 215.25,-202.601 216.625,-195.738"/>
</g>
<!-- Node3 -->
<g id="node3" class="node"><title>Node3</title>
<g id="a_node3"><a xlink:href="arrayref_8h.xhtml" target="_top" xlink:title="Declares gmx::ArrayRef. ">
<polygon fill="white" stroke="black" points="224,-179.5 224,-198.5 349,-198.5 349,-179.5 224,-179.5"/>
<text text-anchor="middle" x="286.5" y="-186.5" font-family="Helvetica,sans-Serif" font-size="10.00">gromacs/utility/arrayref.h</text>
</a>
</g>
</g>
<!-- Node1&#45;&gt;Node3 -->
<g id="edge2" class="edge"><title>Node1&#45;&gt;Node3</title>
<path fill="none" stroke="midnightblue" d="M481.709,-237.602C437.805,-226.896 373.828,-211.295 331.223,-200.906"/>
<polygon fill="midnightblue" stroke="midnightblue" points="331.954,-197.482 321.41,-198.513 330.296,-204.282 331.954,-197.482"/>
</g>
<!-- Node9 -->
<g id="node9" class="node"><title>Node9</title>
<polygon fill="white" stroke="#bfbfbf" points="480.5,-123.5 480.5,-142.5 524.5,-142.5 524.5,-123.5 480.5,-123.5"/>
<text text-anchor="middle" x="502.5" y="-130.5" font-family="Helvetica,sans-Serif" font-size="10.00">vector</text>
</g>
<!-- Node1&#45;&gt;Node9 -->
<g id="edge14" class="edge"><title>Node1&#45;&gt;Node9</title>
<path fill="none" stroke="midnightblue" d="M527.067,-235.337C522.022,-214.527 512.6,-175.663 507.005,-152.583"/>
<polygon fill="midnightblue" stroke="midnightblue" points="510.359,-151.563 504.602,-142.669 503.556,-153.213 510.359,-151.563"/>
</g>
<!-- Node11 -->
<g id="node11" class="node"><title>Node11</title>
<g id="a_node11"><a xlink:href="basedefinitions_8h.xhtml" target="_top" xlink:title="Basic types and macros used throughout GROMACS. ">
<polygon fill="white" stroke="black" points="471,-62 471,-81 628,-81 628,-62 471,-62"/>
<text text-anchor="middle" x="549.5" y="-69" font-family="Helvetica,sans-Serif" font-size="10.00">gromacs/utility/basedefinitions.h</text>
</a>
</g>
</g>
<!-- Node1&#45;&gt;Node11 -->
<g id="edge16" class="edge"><title>Node1&#45;&gt;Node11</title>
<path fill="none" stroke="midnightblue" d="M532.023,-235.315C535.424,-203.633 543.638,-127.109 547.469,-91.4186"/>
<polygon fill="midnightblue" stroke="midnightblue" points="550.96,-91.6905 548.547,-81.3741 544,-90.9433 550.96,-91.6905"/>
</g>
<!-- Node15 -->
<g id="node15" class="node"><title>Node15</title>
<polygon fill="white" stroke="#bfbfbf" points="581,-179.5 581,-198.5 652,-198.5 652,-179.5 581,-179.5"/>
<text text-anchor="middle" x="616.5" y="-186.5" font-family="Helvetica,sans-Serif" font-size="10.00">gtest/gtest.h</text>
</g>
<!-- Node1&#45;&gt;Node15 -->
<g id="edge15" class="edge"><title>Node1&#45;&gt;Node15</title>
<path fill="none" stroke="midnightblue" d="M550.881,-235.399C564.408,-226.04 582.111,-213.792 595.72,-204.377"/>
<polygon fill="midnightblue" stroke="midnightblue" points="597.754,-207.226 603.986,-198.658 593.771,-201.469 597.754,-207.226"/>
</g>
<!-- Node16 -->
<g id="node16" class="node"><title>Node16</title>
<g id="a_node16"><a xlink:href="real_8h.xhtml" target="_top" xlink:title="Declares real and related constants. ">
<polygon fill="white" stroke="black" points="670,-179.5 670,-198.5 777,-198.5 777,-179.5 670,-179.5"/>
<text text-anchor="middle" x="723.5" y="-186.5" font-family="Helvetica,sans-Serif" font-size="10.00">gromacs/utility/real.h</text>
</a>
</g>
</g>
<!-- Node1&#45;&gt;Node16 -->
<g id="edge17" class="edge"><title>Node1&#45;&gt;Node16</title>
<path fill="none" stroke="midnightblue" d="M576.238,-235.399C609.733,-225.073 654.634,-211.231 686.016,-201.556"/>
<polygon fill="midnightblue" stroke="midnightblue" points="687.173,-204.862 695.699,-198.571 685.111,-198.172 687.173,-204.862"/>
</g>
<!-- Node4 -->
<g id="node4" class="node"><title>Node4</title>
<polygon fill="white" stroke="#bfbfbf" points="0,-123.5 0,-142.5 49,-142.5 49,-123.5 0,-123.5"/>
<text text-anchor="middle" x="24.5" y="-130.5" font-family="Helvetica,sans-Serif" font-size="10.00">cstddef</text>
</g>
<!-- Node3&#45;&gt;Node4 -->
<g id="edge3" class="edge"><title>Node3&#45;&gt;Node4</title>
<path fill="none" stroke="midnightblue" d="M238.713,-179.487C194.618,-171.426 127.115,-158.567 59.3362,-143.075"/>
<polygon fill="midnightblue" stroke="midnightblue" points="59.8674,-139.606 49.3368,-140.77 58.2953,-146.427 59.8674,-139.606"/>
</g>
<!-- Node5 -->
<g id="node5" class="node"><title>Node5</title>
<polygon fill="white" stroke="#bfbfbf" points="67.5,-123.5 67.5,-142.5 105.5,-142.5 105.5,-123.5 67.5,-123.5"/>
<text text-anchor="middle" x="86.5" y="-130.5" font-family="Helvetica,sans-Serif" font-size="10.00">array</text>
</g>
<!-- Node3&#45;&gt;Node5 -->
<g id="edge4" class="edge"><title>Node3&#45;&gt;Node5</title>
<path fill="none" stroke="midnightblue" d="M251.426,-179.426C218.601,-171.268 167.988,-158.351 115.546,-143.193"/>
<polygon fill="midnightblue" stroke="midnightblue" points="116.317,-139.772 105.737,-140.337 114.36,-146.493 116.317,-139.772"/>
</g>
<!-- Node6 -->
<g id="node6" class="node"><title>Node6</title>
<polygon fill="white" stroke="#bfbfbf" points="124,-123.5 124,-142.5 171,-142.5 171,-123.5 124,-123.5"/>
<text text-anchor="middle" x="147.5" y="-130.5" font-family="Helvetica,sans-Serif" font-size="10.00">iterator</text>
</g>
<!-- Node3&#45;&gt;Node6 -->
<g id="edge5" class="edge"><title>Node3&#45;&gt;Node6</title>
<path fill="none" stroke="midnightblue" d="M264.475,-179.444C241.396,-170.478 204.938,-156.314 178.859,-146.183"/>
<polygon fill="midnightblue" stroke="midnightblue" points="180.011,-142.875 169.422,-142.516 177.476,-149.4 180.011,-142.875"/>
</g>
<!-- Node7 -->
<g id="node7" class="node"><title>Node7</title>
<polygon fill="white" stroke="#bfbfbf" points="189,-123.5 189,-142.5 248,-142.5 248,-123.5 189,-123.5"/>
<text text-anchor="middle" x="218.5" y="-130.5" font-family="Helvetica,sans-Serif" font-size="10.00">stdexcept</text>
</g>
<!-- Node3&#45;&gt;Node7 -->
<g id="edge6" class="edge"><title>Node3&#45;&gt;Node7</title>
<path fill="none" stroke="midnightblue" d="M275.575,-179.324C265.325,-171.185 249.779,-158.839 237.499,-149.087"/>
<polygon fill="midnightblue" stroke="midnightblue" points="239.632,-146.312 229.624,-142.834 235.279,-151.794 239.632,-146.312"/>
</g>
<!-- Node8 -->
<g id="node8" class="node"><title>Node8</title>
<polygon fill="white" stroke="#bfbfbf" points="266.5,-123.5 266.5,-142.5 306.5,-142.5 306.5,-123.5 266.5,-123.5"/>
<text text-anchor="middle" x="286.5" y="-130.5" font-family="Helvetica,sans-Serif" font-size="10.00">utility</text>
</g>
<!-- Node3&#45;&gt;Node8 -->
<g id="edge7" class="edge"><title>Node3&#45;&gt;Node8</title>
<path fill="none" stroke="midnightblue" d="M286.5,-179.083C286.5,-172.006 286.5,-161.861 286.5,-152.986"/>
<polygon fill="midnightblue" stroke="midnightblue" points="290,-152.751 286.5,-142.751 283,-152.751 290,-152.751"/>
</g>
<!-- Node3&#45;&gt;Node9 -->
<g id="edge8" class="edge"><title>Node3&#45;&gt;Node9</title>
<path fill="none" stroke="midnightblue" d="M323.828,-179.428C359.232,-171.186 414.14,-158.112 470.406,-143.211"/>
<polygon fill="midnightblue" stroke="midnightblue" points="471.42,-146.563 480.182,-140.607 469.618,-139.799 471.42,-146.563"/>
</g>
<!-- Node10 -->
<g id="node10" class="node"><title>Node10</title>
<g id="a_node10"><a xlink:href="gmxassert_8h.xhtml" target="_top" xlink:title="Defines assert macros customized for Gromacs. ">
<polygon fill="white" stroke="black" points="325,-123.5 325,-142.5 462,-142.5 462,-123.5 325,-123.5"/>
<text text-anchor="middle" x="393.5" y="-130.5" font-family="Helvetica,sans-Serif" font-size="10.00">gromacs/utility/gmxassert.h</text>
</a>
</g>
</g>
<!-- Node3&#45;&gt;Node10 -->
<g id="edge9" class="edge"><title>Node3&#45;&gt;Node10</title>
<path fill="none" stroke="midnightblue" d="M303.691,-179.324C320.851,-170.664 347.446,-157.242 367.247,-147.249"/>
<polygon fill="midnightblue" stroke="midnightblue" points="369.001,-150.285 376.351,-142.655 365.847,-144.035 369.001,-150.285"/>
</g>
<!-- Node10&#45;&gt;Node11 -->
<g id="edge10" class="edge"><title>Node10&#45;&gt;Node11</title>
<path fill="none" stroke="midnightblue" d="M415.851,-123.475C442.495,-113.313 487.214,-96.2564 517.514,-84.6996"/>
<polygon fill="midnightblue" stroke="midnightblue" points="519.094,-87.843 527.19,-81.0091 516.6,-81.3026 519.094,-87.843"/>
</g>
<!-- Node14 -->
<g id="node14" class="node"><title>Node14</title>
<g id="a_node14"><a xlink:href="current__function_8h.xhtml" target="_top" xlink:title="Declares GMX_CURRENT_FUNCTION for getting the current function name. ">
<polygon fill="white" stroke="black" points="337,-56.5 337,-86.5 450,-86.5 450,-56.5 337,-56.5"/>
<text text-anchor="start" x="345" y="-74.5" font-family="Helvetica,sans-Serif" font-size="10.00">gromacs/utility/current</text>
<text text-anchor="middle" x="393.5" y="-63.5" font-family="Helvetica,sans-Serif" font-size="10.00">_function.h</text>
</a>
</g>
</g>
<!-- Node10&#45;&gt;Node14 -->
<g id="edge13" class="edge"><title>Node10&#45;&gt;Node14</title>
<path fill="none" stroke="midnightblue" d="M393.5,-123.475C393.5,-116.471 393.5,-106.192 393.5,-96.6956"/>
<polygon fill="midnightblue" stroke="midnightblue" points="397,-96.5229 393.5,-86.523 390,-96.523 397,-96.5229"/>
</g>
<!-- Node12 -->
<g id="node12" class="node"><title>Node12</title>
<polygon fill="white" stroke="#bfbfbf" points="489,-0.5 489,-19.5 538,-19.5 538,-0.5 489,-0.5"/>
<text text-anchor="middle" x="513.5" y="-7.5" font-family="Helvetica,sans-Serif" font-size="10.00">stdint.h</text>
</g>
<!-- Node11&#45;&gt;Node12 -->
<g id="edge11" class="edge"><title>Node11&#45;&gt;Node12</title>
<path fill="none" stroke="midnightblue" d="M544.342,-61.9751C539.049,-53.2268 530.665,-39.3691 523.973,-28.3093"/>
<polygon fill="midnightblue" stroke="midnightblue" points="526.82,-26.2531 518.648,-19.5091 520.83,-29.8768 526.82,-26.2531"/>
</g>
<!-- Node13 -->
<g id="node13" class="node"><title>Node13</title>
<polygon fill="white" stroke="#bfbfbf" points="556,-0.5 556,-19.5 615,-19.5 615,-0.5 556,-0.5"/>
<text text-anchor="middle" x="585.5" y="-7.5" font-family="Helvetica,sans-Serif" font-size="10.00">inttypes.h</text>
</g>
<!-- Node11&#45;&gt;Node13 -->
<g id="edge12" class="edge"><title>Node11&#45;&gt;Node13</title>
<path fill="none" stroke="midnightblue" d="M554.658,-61.9751C559.951,-53.2268 568.335,-39.3691 575.027,-28.3093"/>
<polygon fill="midnightblue" stroke="midnightblue" points="578.17,-29.8768 580.352,-19.5091 572.18,-26.2531 578.17,-29.8768"/>
</g>
</g>
</svg>
