<?xml version="1.0" encoding="UTF-8" standalone="no"?>
<!DOCTYPE svg PUBLIC "-//W3C//DTD SVG 1.1//EN"
 "http://www.w3.org/Graphics/SVG/1.1/DTD/svg11.dtd">
<!-- Generated by graphviz version 2.38.0 (20140413.2041)
 -->
<!-- Title: src/gromacs/analysisdata/arraydata.cpp Pages: 1 -->
<svg width="1243pt" height="408pt"
 viewBox="0.00 0.00 1243.42 408.00" xmlns="http://www.w3.org/2000/svg" xmlns:xlink="http://www.w3.org/1999/xlink">
<g id="graph0" class="graph" transform="scale(1 1) rotate(0) translate(4 404)">
<title>src/gromacs/analysisdata/arraydata.cpp</title>
<polygon fill="white" stroke="none" points="-4,4 -4,-404 1239.42,-404 1239.42,4 -4,4"/>
<!-- Node1 -->
<g id="node1" class="node"><title>Node1</title>
<polygon fill="#bfbfbf" stroke="black" points="611.5,-369.5 611.5,-399.5 739.5,-399.5 739.5,-369.5 611.5,-369.5"/>
<text text-anchor="start" x="619.5" y="-387.5" font-family="Helvetica,sans-Serif" font-size="10.00">src/gromacs/analysisdata</text>
<text text-anchor="middle" x="675.5" y="-376.5" font-family="Helvetica,sans-Serif" font-size="10.00">/arraydata.cpp</text>
</g>
<!-- Node2 -->
<g id="node2" class="node"><title>Node2</title>
<g id="a_node2"><a xlink:href="gmxpre_8h.xhtml" target="_top" xlink:title="Prerequisite header file for GROMACS build. ">
<polygon fill="white" stroke="black" points="468,-313.5 468,-332.5 525,-332.5 525,-313.5 468,-313.5"/>
<text text-anchor="middle" x="496.5" y="-320.5" font-family="Helvetica,sans-Serif" font-size="10.00">gmxpre.h</text>
</a>
</g>
</g>
<!-- Node1&#45;&gt;Node2 -->
<g id="edge1" class="edge"><title>Node1&#45;&gt;Node2</title>
<path fill="none" stroke="midnightblue" d="M633.079,-369.399C602.284,-359.163 561.091,-345.47 532.024,-335.808"/>
<polygon fill="midnightblue" stroke="midnightblue" points="532.878,-332.404 522.285,-332.571 530.67,-339.047 532.878,-332.404"/>
</g>
<!-- Node3 -->
<g id="node3" class="node"><title>Node3</title>
<g id="a_node3"><a xlink:href="arraydata_8h.xhtml" target="_top" xlink:title="Declares gmx::AbstractAnalysisArrayData and gmx::AnalysisArrayData. ">
<polygon fill="white" stroke="black" points="582,-313.5 582,-332.5 647,-332.5 647,-313.5 582,-313.5"/>
<text text-anchor="middle" x="614.5" y="-320.5" font-family="Helvetica,sans-Serif" font-size="10.00">arraydata.h</text>
</a>
</g>
</g>
<!-- Node1&#45;&gt;Node3 -->
<g id="edge2" class="edge"><title>Node1&#45;&gt;Node3</title>
<path fill="none" stroke="midnightblue" d="M661.044,-369.399C651.906,-360.486 640.081,-348.952 630.638,-339.741"/>
<polygon fill="midnightblue" stroke="midnightblue" points="632.978,-337.135 623.376,-332.658 628.091,-342.146 632.978,-337.135"/>
</g>
<!-- Node8 -->
<g id="node8" class="node"><title>Node8</title>
<g id="a_node8"><a xlink:href="dataframe_8h.xhtml" target="_top" xlink:title="Declares classes for accessing data frame information. ">
<polygon fill="white" stroke="black" points="421.5,-246.5 421.5,-276.5 533.5,-276.5 533.5,-246.5 421.5,-246.5"/>
<text text-anchor="start" x="429.5" y="-264.5" font-family="Helvetica,sans-Serif" font-size="10.00">gromacs/analysisdata</text>
<text text-anchor="middle" x="477.5" y="-253.5" font-family="Helvetica,sans-Serif" font-size="10.00">/dataframe.h</text>
</a>
</g>
</g>
<!-- Node1&#45;&gt;Node8 -->
<g id="edge27" class="edge"><title>Node1&#45;&gt;Node8</title>
<path fill="none" stroke="midnightblue" d="M643.147,-369.484C622.443,-360.069 595.291,-346.884 572.5,-333 547.707,-317.896 521.33,-297.978 502.677,-283.167"/>
<polygon fill="midnightblue" stroke="midnightblue" points="504.675,-280.283 494.684,-276.757 500.295,-285.743 504.675,-280.283"/>
</g>
<!-- Node15 -->
<g id="node15" class="node"><title>Node15</title>
<g id="a_node15"><a xlink:href="gmxassert_8h.xhtml" target="_top" xlink:title="Defines assert macros customized for Gromacs. ">
<polygon fill="white" stroke="black" points="387,-123.5 387,-142.5 524,-142.5 524,-123.5 387,-123.5"/>
<text text-anchor="middle" x="455.5" y="-130.5" font-family="Helvetica,sans-Serif" font-size="10.00">gromacs/utility/gmxassert.h</text>
</a>
</g>
</g>
<!-- Node1&#45;&gt;Node15 -->
<g id="edge44" class="edge"><title>Node1&#45;&gt;Node15</title>
<path fill="none" stroke="midnightblue" d="M673.362,-369.383C666.981,-332.277 644.576,-231.275 583.5,-179 564.24,-162.515 538.551,-151.938 515.242,-145.214"/>
<polygon fill="midnightblue" stroke="midnightblue" points="515.991,-141.791 505.424,-142.562 514.166,-148.549 515.991,-141.791"/>
</g>
<!-- Node22 -->
<g id="node22" class="node"><title>Node22</title>
<polygon fill="white" stroke="#bfbfbf" points="817.5,-313.5 817.5,-332.5 873.5,-332.5 873.5,-313.5 817.5,-313.5"/>
<text text-anchor="middle" x="845.5" y="-320.5" font-family="Helvetica,sans-Serif" font-size="10.00">algorithm</text>
</g>
<!-- Node1&#45;&gt;Node22 -->
<g id="edge26" class="edge"><title>Node1&#45;&gt;Node22</title>
<path fill="none" stroke="midnightblue" d="M715.788,-369.399C744.82,-359.238 783.581,-345.672 811.151,-336.022"/>
<polygon fill="midnightblue" stroke="midnightblue" points="812.481,-339.265 820.763,-332.658 810.169,-332.658 812.481,-339.265"/>
</g>
<!-- Node23 -->
<g id="node23" class="node"><title>Node23</title>
<g id="a_node23"><a xlink:href="datamodulemanager_8h.xhtml" target="_top" xlink:title="Declares gmx::AnalysisDataModuleManager. ">
<polygon fill="white" stroke="black" points="1006.5,-246.5 1006.5,-276.5 1122.5,-276.5 1122.5,-246.5 1006.5,-246.5"/>
<text text-anchor="start" x="1014.5" y="-264.5" font-family="Helvetica,sans-Serif" font-size="10.00">gromacs/analysisdata</text>
<text text-anchor="middle" x="1064.5" y="-253.5" font-family="Helvetica,sans-Serif" font-size="10.00">/datamodulemanager.h</text>
</a>
</g>
</g>
<!-- Node1&#45;&gt;Node23 -->
<g id="edge28" class="edge"><title>Node1&#45;&gt;Node23</title>
<path fill="none" stroke="midnightblue" d="M699.998,-369.403C732.091,-351.13 786.827,-320.693 808.5,-313 870.135,-291.122 943.673,-277.859 996.084,-270.452"/>
<polygon fill="midnightblue" stroke="midnightblue" points="996.846,-273.88 1006.27,-269.048 995.891,-266.946 996.846,-273.88"/>
</g>
<!-- Node24 -->
<g id="node24" class="node"><title>Node24</title>
<g id="a_node24"><a xlink:href="exceptions_8h.xhtml" target="_top" xlink:title="Declares common exception classes and macros for fatal error handling. ">
<polygon fill="white" stroke="black" points="704,-185 704,-204 843,-204 843,-185 704,-185"/>
<text text-anchor="middle" x="773.5" y="-192" font-family="Helvetica,sans-Serif" font-size="10.00">gromacs/utility/exceptions.h</text>
</a>
</g>
</g>
<!-- Node1&#45;&gt;Node24 -->
<g id="edge31" class="edge"><title>Node1&#45;&gt;Node24</title>
<path fill="none" stroke="midnightblue" d="M682.866,-369.369C700.443,-335.65 744.818,-250.522 764.201,-213.34"/>
<polygon fill="midnightblue" stroke="midnightblue" points="767.443,-214.692 768.962,-204.206 761.236,-211.456 767.443,-214.692"/>
</g>
<!-- Node4 -->
<g id="node4" class="node"><title>Node4</title>
<polygon fill="white" stroke="#bfbfbf" points="324.5,-123.5 324.5,-142.5 368.5,-142.5 368.5,-123.5 324.5,-123.5"/>
<text text-anchor="middle" x="346.5" y="-130.5" font-family="Helvetica,sans-Serif" font-size="10.00">vector</text>
</g>
<!-- Node3&#45;&gt;Node4 -->
<g id="edge3" class="edge"><title>Node3&#45;&gt;Node4</title>
<path fill="none" stroke="midnightblue" d="M610.583,-313.291C597.193,-283.678 553.415,-188.198 541.5,-179 484.853,-135.268 452.537,-159.239 378.532,-142.982"/>
<polygon fill="midnightblue" stroke="midnightblue" points="379.341,-139.577 368.803,-140.667 377.721,-146.387 379.341,-139.577"/>
</g>
<!-- Node5 -->
<g id="node5" class="node"><title>Node5</title>
<g id="a_node5"><a xlink:href="abstractdata_8h.xhtml" target="_top" xlink:title="Declares gmx::AbstractAnalysisData. ">
<polygon fill="white" stroke="black" points="1008.5,-179.5 1008.5,-209.5 1120.5,-209.5 1120.5,-179.5 1008.5,-179.5"/>
<text text-anchor="start" x="1016.5" y="-197.5" font-family="Helvetica,sans-Serif" font-size="10.00">gromacs/analysisdata</text>
<text text-anchor="middle" x="1064.5" y="-186.5" font-family="Helvetica,sans-Serif" font-size="10.00">/abstractdata.h</text>
</a>
</g>
</g>
<!-- Node3&#45;&gt;Node5 -->
<g id="edge4" class="edge"><title>Node3&#45;&gt;Node5</title>
<path fill="none" stroke="midnightblue" d="M645.077,-313.405C718.899,-292.652 907.929,-239.514 1005,-212.225"/>
<polygon fill="midnightblue" stroke="midnightblue" points="1005.99,-215.583 1014.67,-209.507 1004.1,-208.844 1005.99,-215.583"/>
</g>
<!-- Node3&#45;&gt;Node8 -->
<g id="edge8" class="edge"><title>Node3&#45;&gt;Node8</title>
<path fill="none" stroke="midnightblue" d="M594.871,-313.475C575.189,-304.927 544.276,-291.501 519.114,-280.573"/>
<polygon fill="midnightblue" stroke="midnightblue" points="520.355,-277.296 509.788,-276.523 517.566,-283.717 520.355,-277.296"/>
</g>
<!-- Node3&#45;&gt;Node15 -->
<g id="edge25" class="edge"><title>Node3&#45;&gt;Node15</title>
<path fill="none" stroke="midnightblue" d="M613.437,-313.37C610.011,-289.057 597.134,-219.157 558.5,-179 543.338,-163.241 521.713,-152.655 502.188,-145.734"/>
<polygon fill="midnightblue" stroke="midnightblue" points="503.106,-142.351 492.513,-142.533 500.907,-148.997 503.106,-142.351"/>
</g>
<!-- Node6 -->
<g id="node6" class="node"><title>Node6</title>
<polygon fill="white" stroke="#bfbfbf" points="1122.5,-62 1122.5,-81 1174.5,-81 1174.5,-62 1122.5,-62"/>
<text text-anchor="middle" x="1148.5" y="-69" font-family="Helvetica,sans-Serif" font-size="10.00">memory</text>
</g>
<!-- Node5&#45;&gt;Node6 -->
<g id="edge5" class="edge"><title>Node5&#45;&gt;Node6</title>
<path fill="none" stroke="midnightblue" d="M1120.8,-192.62C1158.44,-188.725 1205.48,-176.763 1230.5,-143 1248.25,-119.045 1212.42,-97.6794 1182.66,-84.9099"/>
<polygon fill="midnightblue" stroke="midnightblue" points="1183.86,-81.6216 1173.28,-81.0736 1181.21,-88.1002 1183.86,-81.6216"/>
</g>
<!-- Node7 -->
<g id="node7" class="node"><title>Node7</title>
<g id="a_node7"><a xlink:href="classhelpers_8h.xhtml" target="_top" xlink:title="Declares common utility classes and macros. ">
<polygon fill="white" stroke="black" points="1075.5,-123.5 1075.5,-142.5 1221.5,-142.5 1221.5,-123.5 1075.5,-123.5"/>
<text text-anchor="middle" x="1148.5" y="-130.5" font-family="Helvetica,sans-Serif" font-size="10.00">gromacs/utility/classhelpers.h</text>
</a>
</g>
</g>
<!-- Node5&#45;&gt;Node7 -->
<g id="edge6" class="edge"><title>Node5&#45;&gt;Node7</title>
<path fill="none" stroke="midnightblue" d="M1084.41,-179.399C1097.49,-170.129 1114.58,-158.025 1127.82,-148.647"/>
<polygon fill="midnightblue" stroke="midnightblue" points="1130.14,-151.294 1136.28,-142.658 1126.09,-145.582 1130.14,-151.294"/>
</g>
<!-- Node7&#45;&gt;Node6 -->
<g id="edge7" class="edge"><title>Node7&#45;&gt;Node6</title>
<path fill="none" stroke="midnightblue" d="M1148.5,-123.475C1148.5,-115.08 1148.5,-101.981 1148.5,-91.1631"/>
<polygon fill="midnightblue" stroke="midnightblue" points="1152,-91.0091 1148.5,-81.0091 1145,-91.0091 1152,-91.0091"/>
</g>
<!-- Node8&#45;&gt;Node4 -->
<g id="edge9" class="edge"><title>Node8&#45;&gt;Node4</title>
<path fill="none" stroke="midnightblue" d="M421.461,-253.371C370.928,-245.657 302.073,-231.496 285.5,-210 277.087,-199.089 279.29,-191.299 285.5,-179 292.307,-165.52 305.268,-155.083 317.498,-147.67"/>
<polygon fill="midnightblue" stroke="midnightblue" points="319.57,-150.521 326.594,-142.59 316.157,-144.41 319.57,-150.521"/>
</g>
<!-- Node9 -->
<g id="node9" class="node"><title>Node9</title>
<g id="a_node9"><a xlink:href="arrayref_8h.xhtml" target="_top" xlink:title="Declares gmx::ArrayRef. ">
<polygon fill="white" stroke="black" points="113,-185 113,-204 238,-204 238,-185 113,-185"/>
<text text-anchor="middle" x="175.5" y="-192" font-family="Helvetica,sans-Serif" font-size="10.00">gromacs/utility/arrayref.h</text>
</a>
</g>
</g>
<!-- Node8&#45;&gt;Node9 -->
<g id="edge10" class="edge"><title>Node8&#45;&gt;Node9</title>
<path fill="none" stroke="midnightblue" d="M421.404,-248.426C365.156,-236.32 279.362,-217.854 225.411,-206.242"/>
<polygon fill="midnightblue" stroke="midnightblue" points="225.905,-202.769 215.393,-204.086 224.432,-209.612 225.905,-202.769"/>
</g>
<!-- Node8&#45;&gt;Node15 -->
<g id="edge23" class="edge"><title>Node8&#45;&gt;Node15</title>
<path fill="none" stroke="midnightblue" d="M505.225,-246.456C518.835,-237.935 533.906,-225.665 541.5,-210 547.51,-197.602 548.635,-190.786 541.5,-179 532.09,-163.455 515.347,-153.022 499.12,-146.151"/>
<polygon fill="midnightblue" stroke="midnightblue" points="500.274,-142.845 489.684,-142.507 497.751,-149.375 500.274,-142.845"/>
</g>
<!-- Node20 -->
<g id="node20" class="node"><title>Node20</title>
<g id="a_node20"><a xlink:href="flags_8h.xhtml" target="_top" xlink:title="Declares gmx::FlagsTemplate. ">
<polygon fill="white" stroke="black" points="295,-185 295,-204 408,-204 408,-185 295,-185"/>
<text text-anchor="middle" x="351.5" y="-192" font-family="Helvetica,sans-Serif" font-size="10.00">gromacs/utility/flags.h</text>
</a>
</g>
</g>
<!-- Node8&#45;&gt;Node20 -->
<g id="edge22" class="edge"><title>Node8&#45;&gt;Node20</title>
<path fill="none" stroke="midnightblue" d="M450.16,-246.396C428.443,-235.193 398.297,-219.641 377.059,-208.685"/>
<polygon fill="midnightblue" stroke="midnightblue" points="378.482,-205.481 367.99,-204.007 375.273,-211.702 378.482,-205.481"/>
</g>
<!-- Node21 -->
<g id="node21" class="node"><title>Node21</title>
<g id="a_node21"><a xlink:href="real_8h.xhtml" target="_top" xlink:title="Declares real and related constants. ">
<polygon fill="white" stroke="black" points="426,-185 426,-204 533,-204 533,-185 426,-185"/>
<text text-anchor="middle" x="479.5" y="-192" font-family="Helvetica,sans-Serif" font-size="10.00">gromacs/utility/real.h</text>
</a>
</g>
</g>
<!-- Node8&#45;&gt;Node21 -->
<g id="edge24" class="edge"><title>Node8&#45;&gt;Node21</title>
<path fill="none" stroke="midnightblue" d="M477.934,-246.396C478.221,-237.064 478.601,-224.714 478.915,-214.517"/>
<polygon fill="midnightblue" stroke="midnightblue" points="482.423,-214.297 479.232,-204.195 475.426,-214.082 482.423,-214.297"/>
</g>
<!-- Node9&#45;&gt;Node4 -->
<g id="edge16" class="edge"><title>Node9&#45;&gt;Node4</title>
<path fill="none" stroke="midnightblue" d="M200,-184.975C230.213,-174.462 281.63,-156.572 314.817,-145.024"/>
<polygon fill="midnightblue" stroke="midnightblue" points="316.194,-148.251 324.488,-141.659 313.893,-141.64 316.194,-148.251"/>
</g>
<!-- Node10 -->
<g id="node10" class="node"><title>Node10</title>
<polygon fill="white" stroke="#bfbfbf" points="201,-123.5 201,-142.5 250,-142.5 250,-123.5 201,-123.5"/>
<text text-anchor="middle" x="225.5" y="-130.5" font-family="Helvetica,sans-Serif" font-size="10.00">cstddef</text>
</g>
<!-- Node9&#45;&gt;Node10 -->
<g id="edge11" class="edge"><title>Node9&#45;&gt;Node10</title>
<path fill="none" stroke="midnightblue" d="M182.664,-184.975C190.238,-175.962 202.37,-161.525 211.793,-150.312"/>
<polygon fill="midnightblue" stroke="midnightblue" points="214.596,-152.417 218.35,-142.509 209.237,-147.913 214.596,-152.417"/>
</g>
<!-- Node11 -->
<g id="node11" class="node"><title>Node11</title>
<polygon fill="white" stroke="#bfbfbf" points="268.5,-123.5 268.5,-142.5 306.5,-142.5 306.5,-123.5 268.5,-123.5"/>
<text text-anchor="middle" x="287.5" y="-130.5" font-family="Helvetica,sans-Serif" font-size="10.00">array</text>
</g>
<!-- Node9&#45;&gt;Node11 -->
<g id="edge12" class="edge"><title>Node9&#45;&gt;Node11</title>
<path fill="none" stroke="midnightblue" d="M191.547,-184.975C210.093,-175.122 240.84,-158.788 262.522,-147.27"/>
<polygon fill="midnightblue" stroke="midnightblue" points="264.294,-150.292 271.483,-142.509 261.01,-144.11 264.294,-150.292"/>
</g>
<!-- Node12 -->
<g id="node12" class="node"><title>Node12</title>
<polygon fill="white" stroke="#bfbfbf" points="0,-123.5 0,-142.5 47,-142.5 47,-123.5 0,-123.5"/>
<text text-anchor="middle" x="23.5" y="-130.5" font-family="Helvetica,sans-Serif" font-size="10.00">iterator</text>
</g>
<!-- Node9&#45;&gt;Node12 -->
<g id="edge13" class="edge"><title>Node9&#45;&gt;Node12</title>
<path fill="none" stroke="midnightblue" d="M153.722,-184.975C127.762,-174.813 84.1887,-157.756 54.6654,-146.2"/>
<polygon fill="midnightblue" stroke="midnightblue" points="55.8253,-142.895 45.2375,-142.509 53.2737,-149.413 55.8253,-142.895"/>
</g>
<!-- Node13 -->
<g id="node13" class="node"><title>Node13</title>
<polygon fill="white" stroke="#bfbfbf" points="65,-123.5 65,-142.5 124,-142.5 124,-123.5 65,-123.5"/>
<text text-anchor="middle" x="94.5" y="-130.5" font-family="Helvetica,sans-Serif" font-size="10.00">stdexcept</text>
</g>
<!-- Node9&#45;&gt;Node13 -->
<g id="edge14" class="edge"><title>Node9&#45;&gt;Node13</title>
<path fill="none" stroke="midnightblue" d="M163.895,-184.975C151.023,-175.52 130.026,-160.096 114.494,-148.687"/>
<polygon fill="midnightblue" stroke="midnightblue" points="116.215,-145.608 106.084,-142.509 112.071,-151.25 116.215,-145.608"/>
</g>
<!-- Node14 -->
<g id="node14" class="node"><title>Node14</title>
<polygon fill="white" stroke="#bfbfbf" points="142.5,-123.5 142.5,-142.5 182.5,-142.5 182.5,-123.5 142.5,-123.5"/>
<text text-anchor="middle" x="162.5" y="-130.5" font-family="Helvetica,sans-Serif" font-size="10.00">utility</text>
</g>
<!-- Node9&#45;&gt;Node14 -->
<g id="edge15" class="edge"><title>Node9&#45;&gt;Node14</title>
<path fill="none" stroke="midnightblue" d="M173.637,-184.975C171.784,-176.492 168.881,-163.204 166.503,-152.322"/>
<polygon fill="midnightblue" stroke="midnightblue" points="169.913,-151.532 164.359,-142.509 163.074,-153.026 169.913,-151.532"/>
</g>
<!-- Node9&#45;&gt;Node15 -->
<g id="edge17" class="edge"><title>Node9&#45;&gt;Node15</title>
<path fill="none" stroke="midnightblue" d="M215.617,-184.975C265.622,-174.349 351.101,-156.185 405.371,-144.652"/>
<polygon fill="midnightblue" stroke="midnightblue" points="406.403,-148.011 415.457,-142.509 404.948,-141.164 406.403,-148.011"/>
</g>
<!-- Node16 -->
<g id="node16" class="node"><title>Node16</title>
<g id="a_node16"><a xlink:href="basedefinitions_8h.xhtml" target="_top" xlink:title="Basic types and macros used throughout GROMACS. ">
<polygon fill="white" stroke="black" points="426,-62 426,-81 583,-81 583,-62 426,-62"/>
<text text-anchor="middle" x="504.5" y="-69" font-family="Helvetica,sans-Serif" font-size="10.00">gromacs/utility/basedefinitions.h</text>
</a>
</g>
</g>
<!-- Node15&#45;&gt;Node16 -->
<g id="edge18" class="edge"><title>Node15&#45;&gt;Node16</title>
<path fill="none" stroke="midnightblue" d="M462.521,-123.475C469.943,-114.462 481.833,-100.025 491.067,-88.8118"/>
<polygon fill="midnightblue" stroke="midnightblue" points="493.837,-90.9534 497.493,-81.0091 488.434,-86.5034 493.837,-90.9534"/>
</g>
<!-- Node19 -->
<g id="node19" class="node"><title>Node19</title>
<g id="a_node19"><a xlink:href="current__function_8h.xhtml" target="_top" xlink:title="Declares GMX_CURRENT_FUNCTION for getting the current function name. ">
<polygon fill="white" stroke="black" points="671,-56.5 671,-86.5 784,-86.5 784,-56.5 671,-56.5"/>
<text text-anchor="start" x="679" y="-74.5" font-family="Helvetica,sans-Serif" font-size="10.00">gromacs/utility/current</text>
<text text-anchor="middle" x="727.5" y="-63.5" font-family="Helvetica,sans-Serif" font-size="10.00">_function.h</text>
</a>
</g>
</g>
<!-- Node15&#45;&gt;Node19 -->
<g id="edge21" class="edge"><title>Node15&#45;&gt;Node19</title>
<path fill="none" stroke="midnightblue" d="M494.471,-123.475C537.872,-113.981 608.783,-98.4694 661,-87.0468"/>
<polygon fill="midnightblue" stroke="midnightblue" points="661.83,-90.4482 670.851,-84.892 660.334,-83.6099 661.83,-90.4482"/>
</g>
<!-- Node17 -->
<g id="node17" class="node"><title>Node17</title>
<polygon fill="white" stroke="#bfbfbf" points="444,-0.5 444,-19.5 493,-19.5 493,-0.5 444,-0.5"/>
<text text-anchor="middle" x="468.5" y="-7.5" font-family="Helvetica,sans-Serif" font-size="10.00">stdint.h</text>
</g>
<!-- Node16&#45;&gt;Node17 -->
<g id="edge19" class="edge"><title>Node16&#45;&gt;Node17</title>
<path fill="none" stroke="midnightblue" d="M499.342,-61.9751C494.049,-53.2268 485.665,-39.3691 478.973,-28.3093"/>
<polygon fill="midnightblue" stroke="midnightblue" points="481.82,-26.2531 473.648,-19.5091 475.83,-29.8768 481.82,-26.2531"/>
</g>
<!-- Node18 -->
<g id="node18" class="node"><title>Node18</title>
<polygon fill="white" stroke="#bfbfbf" points="511,-0.5 511,-19.5 570,-19.5 570,-0.5 511,-0.5"/>
<text text-anchor="middle" x="540.5" y="-7.5" font-family="Helvetica,sans-Serif" font-size="10.00">inttypes.h</text>
</g>
<!-- Node16&#45;&gt;Node18 -->
<g id="edge20" class="edge"><title>Node16&#45;&gt;Node18</title>
<path fill="none" stroke="midnightblue" d="M509.658,-61.9751C514.951,-53.2268 523.335,-39.3691 530.027,-28.3093"/>
<polygon fill="midnightblue" stroke="midnightblue" points="533.17,-29.8768 535.352,-19.5091 527.18,-26.2531 533.17,-29.8768"/>
</g>
<!-- Node23&#45;&gt;Node5 -->
<g id="edge29" class="edge"><title>Node23&#45;&gt;Node5</title>
<path fill="none" stroke="midnightblue" d="M1064.5,-246.396C1064.5,-238.645 1064.5,-228.812 1064.5,-219.86"/>
<polygon fill="midnightblue" stroke="midnightblue" points="1068,-219.576 1064.5,-209.577 1061,-219.577 1068,-219.576"/>
</g>
<!-- Node23&#45;&gt;Node7 -->
<g id="edge30" class="edge"><title>Node23&#45;&gt;Node7</title>
<path fill="none" stroke="midnightblue" d="M1090.16,-246.328C1103.77,-237.554 1119.67,-225.084 1129.5,-210 1140.73,-192.763 1145.33,-169.358 1147.2,-153.094"/>
<polygon fill="midnightblue" stroke="midnightblue" points="1150.73,-152.979 1148.15,-142.704 1143.76,-152.347 1150.73,-152.979"/>
</g>
<!-- Node24&#45;&gt;Node4 -->
<g id="edge39" class="edge"><title>Node24&#45;&gt;Node4</title>
<path fill="none" stroke="midnightblue" d="M703.926,-187.932C626.589,-181.001 497.931,-167.269 378.772,-142.982"/>
<polygon fill="midnightblue" stroke="midnightblue" points="379.248,-139.506 368.747,-140.908 377.831,-146.361 379.248,-139.506"/>
</g>
<!-- Node24&#45;&gt;Node6 -->
<g id="edge35" class="edge"><title>Node24&#45;&gt;Node6</title>
<path fill="none" stroke="midnightblue" d="M774.716,-184.922C777.354,-169.756 785.099,-138.363 805.5,-123 853.317,-86.9923 1033.88,-76.4527 1112.05,-73.5423"/>
<polygon fill="midnightblue" stroke="midnightblue" points="1112.51,-77.0286 1122.38,-73.1804 1112.26,-70.0329 1112.51,-77.0286"/>
</g>
<!-- Node24&#45;&gt;Node7 -->
<g id="edge41" class="edge"><title>Node24&#45;&gt;Node7</title>
<path fill="none" stroke="midnightblue" d="M827.228,-184.975C895.313,-174.172 1012.5,-155.578 1084.95,-144.083"/>
<polygon fill="midnightblue" stroke="midnightblue" points="1085.54,-147.533 1094.87,-142.509 1084.45,-140.619 1085.54,-147.533"/>
</g>
<!-- Node24&#45;&gt;Node15 -->
<g id="edge43" class="edge"><title>Node24&#45;&gt;Node15</title>
<path fill="none" stroke="midnightblue" d="M727.938,-184.975C670.674,-174.261 572.45,-155.882 510.902,-144.366"/>
<polygon fill="midnightblue" stroke="midnightblue" points="511.45,-140.908 500.977,-142.509 510.163,-147.789 511.45,-140.908"/>
</g>
<!-- Node24&#45;&gt;Node16 -->
<g id="edge40" class="edge"><title>Node24&#45;&gt;Node16</title>
<path fill="none" stroke="midnightblue" d="M726.686,-184.946C675.592,-175.062 597.575,-158.205 571.5,-143 548.576,-129.633 528.548,-106.109 516.5,-89.936"/>
<polygon fill="midnightblue" stroke="midnightblue" points="519.042,-87.4762 510.366,-81.3954 513.356,-91.5595 519.042,-87.4762"/>
</g>
<!-- Node24&#45;&gt;Node19 -->
<g id="edge42" class="edge"><title>Node24&#45;&gt;Node19</title>
<path fill="none" stroke="midnightblue" d="M770.192,-184.798C763.214,-166.443 746.783,-123.224 736.462,-96.0729"/>
<polygon fill="midnightblue" stroke="midnightblue" points="739.662,-94.6427 732.837,-86.5392 733.119,-97.1303 739.662,-94.6427"/>
</g>
<!-- Node25 -->
<g id="node25" class="node"><title>Node25</title>
<polygon fill="white" stroke="#bfbfbf" points="815,-123.5 815,-142.5 858,-142.5 858,-123.5 815,-123.5"/>
<text text-anchor="middle" x="836.5" y="-130.5" font-family="Helvetica,sans-Serif" font-size="10.00">cstdio</text>
</g>
<!-- Node24&#45;&gt;Node25 -->
<g id="edge32" class="edge"><title>Node24&#45;&gt;Node25</title>
<path fill="none" stroke="midnightblue" d="M782.526,-184.975C792.257,-175.785 807.958,-160.956 819.923,-149.656"/>
<polygon fill="midnightblue" stroke="midnightblue" points="822.623,-151.92 827.49,-142.509 817.817,-146.831 822.623,-151.92"/>
</g>
<!-- Node26 -->
<g id="node26" class="node"><title>Node26</title>
<polygon fill="white" stroke="#bfbfbf" points="876,-123.5 876,-142.5 921,-142.5 921,-123.5 876,-123.5"/>
<text text-anchor="middle" x="898.5" y="-130.5" font-family="Helvetica,sans-Serif" font-size="10.00">cstdlib</text>
</g>
<!-- Node24&#45;&gt;Node26 -->
<g id="edge33" class="edge"><title>Node24&#45;&gt;Node26</title>
<path fill="none" stroke="midnightblue" d="M791.409,-184.975C812.387,-174.99 847.35,-158.348 871.593,-146.807"/>
<polygon fill="midnightblue" stroke="midnightblue" points="873.099,-149.967 880.624,-142.509 870.09,-143.647 873.099,-149.967"/>
</g>
<!-- Node27 -->
<g id="node27" class="node"><title>Node27</title>
<polygon fill="white" stroke="#bfbfbf" points="939,-123.5 939,-142.5 998,-142.5 998,-123.5 939,-123.5"/>
<text text-anchor="middle" x="968.5" y="-130.5" font-family="Helvetica,sans-Serif" font-size="10.00">exception</text>
</g>
<!-- Node24&#45;&gt;Node27 -->
<g id="edge34" class="edge"><title>Node24&#45;&gt;Node27</title>
<path fill="none" stroke="midnightblue" d="M801.439,-184.975C835.467,-174.592 893.084,-157.012 930.962,-145.454"/>
<polygon fill="midnightblue" stroke="midnightblue" points="932.07,-148.775 940.613,-142.509 930.027,-142.08 932.07,-148.775"/>
</g>
<!-- Node28 -->
<g id="node28" class="node"><title>Node28</title>
<polygon fill="white" stroke="#bfbfbf" points="1016,-123.5 1016,-142.5 1057,-142.5 1057,-123.5 1016,-123.5"/>
<text text-anchor="middle" x="1036.5" y="-130.5" font-family="Helvetica,sans-Serif" font-size="10.00">string</text>
</g>
<!-- Node24&#45;&gt;Node28 -->
<g id="edge36" class="edge"><title>Node24&#45;&gt;Node28</title>
<path fill="none" stroke="midnightblue" d="M817.977,-184.934C862.93,-176.038 934.574,-161.208 1005.85,-143.001"/>
<polygon fill="midnightblue" stroke="midnightblue" points="1007.09,-146.295 1015.9,-140.41 1005.35,-139.517 1007.09,-146.295"/>
</g>
<!-- Node29 -->
<g id="node29" class="node"><title>Node29</title>
<polygon fill="white" stroke="#bfbfbf" points="580.5,-123.5 580.5,-142.5 642.5,-142.5 642.5,-123.5 580.5,-123.5"/>
<text text-anchor="middle" x="611.5" y="-130.5" font-family="Helvetica,sans-Serif" font-size="10.00">type_traits</text>
</g>
<!-- Node24&#45;&gt;Node29 -->
<g id="edge37" class="edge"><title>Node24&#45;&gt;Node29</title>
<path fill="none" stroke="midnightblue" d="M750.289,-184.975C722.501,-174.769 675.777,-157.608 644.306,-146.049"/>
<polygon fill="midnightblue" stroke="midnightblue" points="645.261,-142.671 634.668,-142.509 642.848,-149.242 645.261,-142.671"/>
</g>
<!-- Node30 -->
<g id="node30" class="node"><title>Node30</title>
<polygon fill="white" stroke="#bfbfbf" points="661,-123.5 661,-142.5 720,-142.5 720,-123.5 661,-123.5"/>
<text text-anchor="middle" x="690.5" y="-130.5" font-family="Helvetica,sans-Serif" font-size="10.00">typeindex</text>
</g>
<!-- Node24&#45;&gt;Node30 -->
<g id="edge38" class="edge"><title>Node24&#45;&gt;Node30</title>
<path fill="none" stroke="midnightblue" d="M761.608,-184.975C748.295,-175.431 726.5,-159.807 710.543,-148.368"/>
<polygon fill="midnightblue" stroke="midnightblue" points="712.536,-145.491 702.37,-142.509 708.458,-151.18 712.536,-145.491"/>
</g>
</g>
</svg>
