<?xml version="1.0" encoding="UTF-8" standalone="no"?>
<!DOCTYPE svg PUBLIC "-//W3C//DTD SVG 1.1//EN"
 "http://www.w3.org/Graphics/SVG/1.1/DTD/svg11.dtd">
<!-- Generated by graphviz version 2.38.0 (20140413.2041)
 -->
<!-- Title: src/gromacs/topology/atomsbuilder.cpp Pages: 1 -->
<svg width="718pt" height="218pt"
 viewBox="0.00 0.00 718.00 218.00" xmlns="http://www.w3.org/2000/svg" xmlns:xlink="http://www.w3.org/1999/xlink">
<g id="graph0" class="graph" transform="scale(1 1) rotate(0) translate(4 214)">
<title>src/gromacs/topology/atomsbuilder.cpp</title>
<polygon fill="white" stroke="none" points="-4,4 -4,-214 714,-214 714,4 -4,4"/>
<!-- Node1 -->
<g id="node1" class="node"><title>Node1</title>
<polygon fill="#bfbfbf" stroke="black" points="240,-179.5 240,-209.5 350,-209.5 350,-179.5 240,-179.5"/>
<text text-anchor="start" x="248" y="-197.5" font-family="Helvetica,sans-Serif" font-size="10.00">src/gromacs/topology</text>
<text text-anchor="middle" x="295" y="-186.5" font-family="Helvetica,sans-Serif" font-size="10.00">/atomsbuilder.cpp</text>
</g>
<!-- Node2 -->
<g id="node2" class="node"><title>Node2</title>
<g id="a_node2"><a xlink:href="gmxpre_8h.xhtml" target="_top" xlink:title="Prerequisite header file for GROMACS build. ">
<polygon fill="white" stroke="black" points="93.5,-123.5 93.5,-142.5 150.5,-142.5 150.5,-123.5 93.5,-123.5"/>
<text text-anchor="middle" x="122" y="-130.5" font-family="Helvetica,sans-Serif" font-size="10.00">gmxpre.h</text>
</a>
</g>
</g>
<!-- Node1&#45;&gt;Node2 -->
<g id="edge1" class="edge"><title>Node1&#45;&gt;Node2</title>
<path fill="none" stroke="midnightblue" d="M254.001,-179.399C224.368,-169.207 184.774,-155.59 156.702,-145.935"/>
<polygon fill="midnightblue" stroke="midnightblue" points="157.515,-142.514 146.92,-142.571 155.239,-149.133 157.515,-142.514"/>
</g>
<!-- Node3 -->
<g id="node3" class="node"><title>Node3</title>
<g id="a_node3"><a xlink:href="atomsbuilder_8h.xhtml" target="_top" xlink:title="Utility classes for manipulating t_atoms structures. ">
<polygon fill="white" stroke="black" points="169,-123.5 169,-142.5 249,-142.5 249,-123.5 169,-123.5"/>
<text text-anchor="middle" x="209" y="-130.5" font-family="Helvetica,sans-Serif" font-size="10.00">atomsbuilder.h</text>
</a>
</g>
</g>
<!-- Node1&#45;&gt;Node3 -->
<g id="edge2" class="edge"><title>Node1&#45;&gt;Node3</title>
<path fill="none" stroke="midnightblue" d="M274.619,-179.399C261.092,-170.04 243.389,-157.792 229.78,-148.377"/>
<polygon fill="midnightblue" stroke="midnightblue" points="231.729,-145.469 221.514,-142.658 227.746,-151.226 231.729,-145.469"/>
</g>
<!-- Node8 -->
<g id="node8" class="node"><title>Node8</title>
<polygon fill="white" stroke="#bfbfbf" points="267,-123.5 267,-142.5 323,-142.5 323,-123.5 267,-123.5"/>
<text text-anchor="middle" x="295" y="-130.5" font-family="Helvetica,sans-Serif" font-size="10.00">algorithm</text>
</g>
<!-- Node1&#45;&gt;Node8 -->
<g id="edge7" class="edge"><title>Node1&#45;&gt;Node8</title>
<path fill="none" stroke="midnightblue" d="M295,-179.399C295,-171.466 295,-161.458 295,-152.858"/>
<polygon fill="midnightblue" stroke="midnightblue" points="298.5,-152.658 295,-142.658 291.5,-152.658 298.5,-152.658"/>
</g>
<!-- Node9 -->
<g id="node9" class="node"><title>Node9</title>
<g id="a_node9"><a xlink:href="gmxassert_8h.xhtml" target="_top" xlink:title="Defines assert macros customized for Gromacs. ">
<polygon fill="white" stroke="black" points="341.5,-123.5 341.5,-142.5 478.5,-142.5 478.5,-123.5 341.5,-123.5"/>
<text text-anchor="middle" x="410" y="-130.5" font-family="Helvetica,sans-Serif" font-size="10.00">gromacs/utility/gmxassert.h</text>
</a>
</g>
</g>
<!-- Node1&#45;&gt;Node9 -->
<g id="edge8" class="edge"><title>Node1&#45;&gt;Node9</title>
<path fill="none" stroke="midnightblue" d="M322.253,-179.399C341.032,-169.684 365.826,-156.855 384.268,-147.314"/>
<polygon fill="midnightblue" stroke="midnightblue" points="385.993,-150.362 393.266,-142.658 382.776,-144.145 385.993,-150.362"/>
</g>
<!-- Node14 -->
<g id="node14" class="node"><title>Node14</title>
<g id="a_node14"><a xlink:href="smalloc_8h.xhtml" target="_top" xlink:title="C memory allocation routines for GROMACS. ">
<polygon fill="white" stroke="black" points="498.5,-123.5 498.5,-142.5 623.5,-142.5 623.5,-123.5 498.5,-123.5"/>
<text text-anchor="middle" x="561" y="-130.5" font-family="Helvetica,sans-Serif" font-size="10.00">gromacs/utility/smalloc.h</text>
</a>
</g>
</g>
<!-- Node1&#45;&gt;Node14 -->
<g id="edge13" class="edge"><title>Node1&#45;&gt;Node14</title>
<path fill="none" stroke="midnightblue" d="M350.115,-181.172C398.075,-170.444 466.897,-155.049 512.725,-144.798"/>
<polygon fill="midnightblue" stroke="midnightblue" points="513.715,-148.164 522.71,-142.565 512.187,-141.332 513.715,-148.164"/>
</g>
<!-- Node4 -->
<g id="node4" class="node"><title>Node4</title>
<polygon fill="white" stroke="#bfbfbf" points="0,-62 0,-81 44,-81 44,-62 0,-62"/>
<text text-anchor="middle" x="22" y="-69" font-family="Helvetica,sans-Serif" font-size="10.00">vector</text>
</g>
<!-- Node3&#45;&gt;Node4 -->
<g id="edge3" class="edge"><title>Node3&#45;&gt;Node4</title>
<path fill="none" stroke="midnightblue" d="M173.482,-123.449C141.524,-115.358 93.507,-102.209 53,-87 51.5746,-86.4648 50.124,-85.8915 48.6675,-85.2931"/>
<polygon fill="midnightblue" stroke="midnightblue" points="49.7371,-81.9399 39.1743,-81.1165 46.9181,-88.3472 49.7371,-81.9399"/>
</g>
<!-- Node5 -->
<g id="node5" class="node"><title>Node5</title>
<g id="a_node5"><a xlink:href="classhelpers_8h.xhtml" target="_top" xlink:title="Declares common utility classes and macros. ">
<polygon fill="white" stroke="black" points="62,-62 62,-81 208,-81 208,-62 62,-62"/>
<text text-anchor="middle" x="135" y="-69" font-family="Helvetica,sans-Serif" font-size="10.00">gromacs/utility/classhelpers.h</text>
</a>
</g>
</g>
<!-- Node3&#45;&gt;Node5 -->
<g id="edge4" class="edge"><title>Node3&#45;&gt;Node5</title>
<path fill="none" stroke="midnightblue" d="M198.398,-123.475C186.748,-114.108 167.814,-98.8839 153.665,-87.5081"/>
<polygon fill="midnightblue" stroke="midnightblue" points="155.569,-84.5477 145.583,-81.0091 151.183,-90.003 155.569,-84.5477"/>
</g>
<!-- Node7 -->
<g id="node7" class="node"><title>Node7</title>
<g id="a_node7"><a xlink:href="real_8h.xhtml" target="_top" xlink:title="Declares real and related constants. ">
<polygon fill="white" stroke="black" points="226.5,-62 226.5,-81 333.5,-81 333.5,-62 226.5,-62"/>
<text text-anchor="middle" x="280" y="-69" font-family="Helvetica,sans-Serif" font-size="10.00">gromacs/utility/real.h</text>
</a>
</g>
</g>
<!-- Node3&#45;&gt;Node7 -->
<g id="edge6" class="edge"><title>Node3&#45;&gt;Node7</title>
<path fill="none" stroke="midnightblue" d="M219.173,-123.475C230.35,-114.108 248.517,-98.8839 262.091,-87.5081"/>
<polygon fill="midnightblue" stroke="midnightblue" points="264.43,-90.1148 269.846,-81.0091 259.934,-84.7496 264.43,-90.1148"/>
</g>
<!-- Node6 -->
<g id="node6" class="node"><title>Node6</title>
<polygon fill="white" stroke="#bfbfbf" points="109,-0.5 109,-19.5 161,-19.5 161,-0.5 109,-0.5"/>
<text text-anchor="middle" x="135" y="-7.5" font-family="Helvetica,sans-Serif" font-size="10.00">memory</text>
</g>
<!-- Node5&#45;&gt;Node6 -->
<g id="edge5" class="edge"><title>Node5&#45;&gt;Node6</title>
<path fill="none" stroke="midnightblue" d="M135,-61.9751C135,-53.5803 135,-40.4806 135,-29.6631"/>
<polygon fill="midnightblue" stroke="midnightblue" points="138.5,-29.5091 135,-19.5091 131.5,-29.5091 138.5,-29.5091"/>
</g>
<!-- Node10 -->
<g id="node10" class="node"><title>Node10</title>
<g id="a_node10"><a xlink:href="basedefinitions_8h.xhtml" target="_top" xlink:title="Basic types and macros used throughout GROMACS. ">
<polygon fill="white" stroke="black" points="482.5,-62 482.5,-81 639.5,-81 639.5,-62 482.5,-62"/>
<text text-anchor="middle" x="561" y="-69" font-family="Helvetica,sans-Serif" font-size="10.00">gromacs/utility/basedefinitions.h</text>
</a>
</g>
</g>
<!-- Node9&#45;&gt;Node10 -->
<g id="edge9" class="edge"><title>Node9&#45;&gt;Node10</title>
<path fill="none" stroke="midnightblue" d="M431.635,-123.475C457.424,-113.313 500.711,-96.2564 530.04,-84.6996"/>
<polygon fill="midnightblue" stroke="midnightblue" points="531.385,-87.9315 539.406,-81.0091 528.819,-81.4189 531.385,-87.9315"/>
</g>
<!-- Node13 -->
<g id="node13" class="node"><title>Node13</title>
<g id="a_node13"><a xlink:href="current__function_8h.xhtml" target="_top" xlink:title="Declares GMX_CURRENT_FUNCTION for getting the current function name. ">
<polygon fill="white" stroke="black" points="351.5,-56.5 351.5,-86.5 464.5,-86.5 464.5,-56.5 351.5,-56.5"/>
<text text-anchor="start" x="359.5" y="-74.5" font-family="Helvetica,sans-Serif" font-size="10.00">gromacs/utility/current</text>
<text text-anchor="middle" x="408" y="-63.5" font-family="Helvetica,sans-Serif" font-size="10.00">_function.h</text>
</a>
</g>
</g>
<!-- Node9&#45;&gt;Node13 -->
<g id="edge12" class="edge"><title>Node9&#45;&gt;Node13</title>
<path fill="none" stroke="midnightblue" d="M409.713,-123.475C409.478,-116.471 409.133,-106.192 408.813,-96.6956"/>
<polygon fill="midnightblue" stroke="midnightblue" points="412.305,-96.3997 408.471,-86.523 405.309,-96.6349 412.305,-96.3997"/>
</g>
<!-- Node11 -->
<g id="node11" class="node"><title>Node11</title>
<polygon fill="white" stroke="#bfbfbf" points="500.5,-0.5 500.5,-19.5 549.5,-19.5 549.5,-0.5 500.5,-0.5"/>
<text text-anchor="middle" x="525" y="-7.5" font-family="Helvetica,sans-Serif" font-size="10.00">stdint.h</text>
</g>
<!-- Node10&#45;&gt;Node11 -->
<g id="edge10" class="edge"><title>Node10&#45;&gt;Node11</title>
<path fill="none" stroke="midnightblue" d="M555.842,-61.9751C550.549,-53.2268 542.165,-39.3691 535.473,-28.3093"/>
<polygon fill="midnightblue" stroke="midnightblue" points="538.32,-26.2531 530.148,-19.5091 532.33,-29.8768 538.32,-26.2531"/>
</g>
<!-- Node12 -->
<g id="node12" class="node"><title>Node12</title>
<polygon fill="white" stroke="#bfbfbf" points="567.5,-0.5 567.5,-19.5 626.5,-19.5 626.5,-0.5 567.5,-0.5"/>
<text text-anchor="middle" x="597" y="-7.5" font-family="Helvetica,sans-Serif" font-size="10.00">inttypes.h</text>
</g>
<!-- Node10&#45;&gt;Node12 -->
<g id="edge11" class="edge"><title>Node10&#45;&gt;Node12</title>
<path fill="none" stroke="midnightblue" d="M566.158,-61.9751C571.451,-53.2268 579.835,-39.3691 586.527,-28.3093"/>
<polygon fill="midnightblue" stroke="midnightblue" points="589.67,-29.8768 591.852,-19.5091 583.68,-26.2531 589.67,-29.8768"/>
</g>
<!-- Node14&#45;&gt;Node10 -->
<g id="edge15" class="edge"><title>Node14&#45;&gt;Node10</title>
<path fill="none" stroke="midnightblue" d="M561,-123.475C561,-115.08 561,-101.981 561,-91.1631"/>
<polygon fill="midnightblue" stroke="midnightblue" points="564.5,-91.0091 561,-81.0091 557.5,-91.0091 564.5,-91.0091"/>
</g>
<!-- Node15 -->
<g id="node15" class="node"><title>Node15</title>
<polygon fill="white" stroke="#bfbfbf" points="658,-62 658,-81 710,-81 710,-62 658,-62"/>
<text text-anchor="middle" x="684" y="-69" font-family="Helvetica,sans-Serif" font-size="10.00">stddef.h</text>
</g>
<!-- Node14&#45;&gt;Node15 -->
<g id="edge14" class="edge"><title>Node14&#45;&gt;Node15</title>
<path fill="none" stroke="midnightblue" d="M578.623,-123.475C599.174,-113.534 633.364,-96.9947 657.207,-85.461"/>
<polygon fill="midnightblue" stroke="midnightblue" points="658.932,-88.5145 666.41,-81.0091 655.884,-82.2131 658.932,-88.5145"/>
</g>
</g>
</svg>
