<?xml version="1.0" encoding="UTF-8" standalone="no"?>
<!DOCTYPE svg PUBLIC "-//W3C//DTD SVG 1.1//EN"
 "http://www.w3.org/Graphics/SVG/1.1/DTD/svg11.dtd">
<!-- Generated by graphviz version 2.38.0 (20140413.2041)
 -->
<!-- Title: src/gromacs/topology/atomsbuilder.h Pages: 1 -->
<svg width="342pt" height="151pt"
 viewBox="0.00 0.00 341.50 151.00" xmlns="http://www.w3.org/2000/svg" xmlns:xlink="http://www.w3.org/1999/xlink">
<g id="graph0" class="graph" transform="scale(1 1) rotate(0) translate(4 147)">
<title>src/gromacs/topology/atomsbuilder.h</title>
<polygon fill="white" stroke="none" points="-4,4 -4,-147 337.5,-147 337.5,4 -4,4"/>
<!-- Node1 -->
<g id="node1" class="node"><title>Node1</title>
<polygon fill="#bfbfbf" stroke="black" points="80,-112.5 80,-142.5 190,-142.5 190,-112.5 80,-112.5"/>
<text text-anchor="start" x="88" y="-130.5" font-family="Helvetica,sans-Serif" font-size="10.00">src/gromacs/topology</text>
<text text-anchor="middle" x="135" y="-119.5" font-family="Helvetica,sans-Serif" font-size="10.00">/atomsbuilder.h</text>
</g>
<!-- Node2 -->
<g id="node2" class="node"><title>Node2</title>
<polygon fill="white" stroke="#bfbfbf" points="-3.55271e-15,-56.5 -3.55271e-15,-75.5 44,-75.5 44,-56.5 -3.55271e-15,-56.5"/>
<text text-anchor="middle" x="22" y="-63.5" font-family="Helvetica,sans-Serif" font-size="10.00">vector</text>
</g>
<!-- Node1&#45;&gt;Node2 -->
<g id="edge1" class="edge"><title>Node1&#45;&gt;Node2</title>
<path fill="none" stroke="midnightblue" d="M108.221,-112.399C89.9382,-102.773 65.8519,-90.0902 47.7852,-80.5772"/>
<polygon fill="midnightblue" stroke="midnightblue" points="48.9215,-77.22 38.4425,-75.6578 45.6602,-83.4138 48.9215,-77.22"/>
</g>
<!-- Node3 -->
<g id="node3" class="node"><title>Node3</title>
<g id="a_node3"><a xlink:href="classhelpers_8h.xhtml" target="_top" xlink:title="Declares common utility classes and macros. ">
<polygon fill="white" stroke="black" points="62,-56.5 62,-75.5 208,-75.5 208,-56.5 62,-56.5"/>
<text text-anchor="middle" x="135" y="-63.5" font-family="Helvetica,sans-Serif" font-size="10.00">gromacs/utility/classhelpers.h</text>
</a>
</g>
</g>
<!-- Node1&#45;&gt;Node3 -->
<g id="edge2" class="edge"><title>Node1&#45;&gt;Node3</title>
<path fill="none" stroke="midnightblue" d="M135,-112.399C135,-104.466 135,-94.458 135,-85.8583"/>
<polygon fill="midnightblue" stroke="midnightblue" points="138.5,-85.6577 135,-75.6578 131.5,-85.6578 138.5,-85.6577"/>
</g>
<!-- Node5 -->
<g id="node5" class="node"><title>Node5</title>
<g id="a_node5"><a xlink:href="real_8h.xhtml" target="_top" xlink:title="Declares real and related constants. ">
<polygon fill="white" stroke="black" points="226.5,-56.5 226.5,-75.5 333.5,-75.5 333.5,-56.5 226.5,-56.5"/>
<text text-anchor="middle" x="280" y="-63.5" font-family="Helvetica,sans-Serif" font-size="10.00">gromacs/utility/real.h</text>
</a>
</g>
</g>
<!-- Node1&#45;&gt;Node5 -->
<g id="edge4" class="edge"><title>Node1&#45;&gt;Node5</title>
<path fill="none" stroke="midnightblue" d="M169.363,-112.399C193.691,-102.416 226.029,-89.1465 249.456,-79.5335"/>
<polygon fill="midnightblue" stroke="midnightblue" points="250.979,-82.6921 258.901,-75.6578 248.321,-76.2161 250.979,-82.6921"/>
</g>
<!-- Node4 -->
<g id="node4" class="node"><title>Node4</title>
<polygon fill="white" stroke="#bfbfbf" points="109,-0.5 109,-19.5 161,-19.5 161,-0.5 109,-0.5"/>
<text text-anchor="middle" x="135" y="-7.5" font-family="Helvetica,sans-Serif" font-size="10.00">memory</text>
</g>
<!-- Node3&#45;&gt;Node4 -->
<g id="edge3" class="edge"><title>Node3&#45;&gt;Node4</title>
<path fill="none" stroke="midnightblue" d="M135,-56.083C135,-49.0059 135,-38.8611 135,-29.9865"/>
<polygon fill="midnightblue" stroke="midnightblue" points="138.5,-29.751 135,-19.7511 131.5,-29.7511 138.5,-29.751"/>
</g>
</g>
</svg>
