<?xml version="1.0" encoding="UTF-8" standalone="no"?>
<!DOCTYPE svg PUBLIC "-//W3C//DTD SVG 1.1//EN"
 "http://www.w3.org/Graphics/SVG/1.1/DTD/svg11.dtd">
<!-- Generated by graphviz version 2.38.0 (20140413.2041)
 -->
<!-- Title: src/gromacs/correlationfunctions/autocorr.cpp Pages: 1 -->
<svg width="1679pt" height="352pt"
 viewBox="0.00 0.00 1679.00 352.00" xmlns="http://www.w3.org/2000/svg" xmlns:xlink="http://www.w3.org/1999/xlink">
<g id="graph0" class="graph" transform="scale(1 1) rotate(0) translate(4 348)">
<title>src/gromacs/correlationfunctions/autocorr.cpp</title>
<polygon fill="white" stroke="none" points="-4,4 -4,-348 1675,-348 1675,4 -4,4"/>
<!-- Node1 -->
<g id="node1" class="node"><title>Node1</title>
<polygon fill="#bfbfbf" stroke="black" points="610.5,-313.5 610.5,-343.5 768.5,-343.5 768.5,-313.5 610.5,-313.5"/>
<text text-anchor="start" x="618.5" y="-331.5" font-family="Helvetica,sans-Serif" font-size="10.00">src/gromacs/correlationfunctions</text>
<text text-anchor="middle" x="689.5" y="-320.5" font-family="Helvetica,sans-Serif" font-size="10.00">/autocorr.cpp</text>
</g>
<!-- Node2 -->
<g id="node2" class="node"><title>Node2</title>
<g id="a_node2"><a xlink:href="gmxpre_8h.xhtml" target="_top" xlink:title="Prerequisite header file for GROMACS build. ">
<polygon fill="white" stroke="black" points="0,-252 0,-271 57,-271 57,-252 0,-252"/>
<text text-anchor="middle" x="28.5" y="-259" font-family="Helvetica,sans-Serif" font-size="10.00">gmxpre.h</text>
</a>
</g>
</g>
<!-- Node1&#45;&gt;Node2 -->
<g id="edge1" class="edge"><title>Node1&#45;&gt;Node2</title>
<path fill="none" stroke="midnightblue" d="M610.096,-327.162C491.613,-325.28 262.066,-316.301 71.5,-277 67.8108,-276.239 63.9998,-275.257 60.241,-274.162"/>
<polygon fill="midnightblue" stroke="midnightblue" points="61.1237,-270.77 50.5333,-271.077 59.0036,-277.441 61.1237,-270.77"/>
</g>
<!-- Node3 -->
<g id="node3" class="node"><title>Node3</title>
<g id="a_node3"><a xlink:href="autocorr_8h.xhtml" target="_top" xlink:title="Declares routine for computing autocorrelation functions. ">
<polygon fill="white" stroke="black" points="379.5,-252 379.5,-271 439.5,-271 439.5,-252 379.5,-252"/>
<text text-anchor="middle" x="409.5" y="-259" font-family="Helvetica,sans-Serif" font-size="10.00">autocorr.h</text>
</a>
</g>
</g>
<!-- Node1&#45;&gt;Node3 -->
<g id="edge2" class="edge"><title>Node1&#45;&gt;Node3</title>
<path fill="none" stroke="midnightblue" d="M610.351,-314.001C562.968,-305.158 501.787,-292.396 448.5,-277 445.859,-276.237 443.14,-275.38 440.427,-274.474"/>
<polygon fill="midnightblue" stroke="midnightblue" points="441.359,-271.092 430.764,-271.06 439.027,-277.692 441.359,-271.092"/>
</g>
<!-- Node9 -->
<g id="node9" class="node"><title>Node9</title>
<g id="a_node9"><a xlink:href="real_8h.xhtml" target="_top" xlink:title="Declares real and related constants. ">
<polygon fill="white" stroke="black" points="530,-118 530,-137 637,-137 637,-118 530,-118"/>
<text text-anchor="middle" x="583.5" y="-125" font-family="Helvetica,sans-Serif" font-size="10.00">gromacs/utility/real.h</text>
</a>
</g>
</g>
<!-- Node1&#45;&gt;Node9 -->
<g id="edge42" class="edge"><title>Node1&#45;&gt;Node9</title>
<path fill="none" stroke="midnightblue" d="M688.518,-313.425C686.837,-296.501 682.345,-267.673 670.5,-246 659.798,-226.418 649.351,-227.497 635.5,-210 619.128,-189.319 603.26,-163.315 593.448,-146.318"/>
<polygon fill="midnightblue" stroke="midnightblue" points="596.397,-144.423 588.412,-137.459 590.311,-147.883 596.397,-144.423"/>
</g>
<!-- Node10 -->
<g id="node10" class="node"><title>Node10</title>
<polygon fill="white" stroke="#bfbfbf" points="938.5,-118 938.5,-137 984.5,-137 984.5,-118 938.5,-118"/>
<text text-anchor="middle" x="961.5" y="-125" font-family="Helvetica,sans-Serif" font-size="10.00">stdio.h</text>
</g>
<!-- Node1&#45;&gt;Node10 -->
<g id="edge11" class="edge"><title>Node1&#45;&gt;Node10</title>
<path fill="none" stroke="midnightblue" d="M768.804,-318.973C806.973,-312.059 852.031,-299.564 887.5,-277 920.006,-256.321 925.459,-244.552 942.5,-210 952.421,-189.885 957.286,-164.393 959.585,-147.323"/>
<polygon fill="midnightblue" stroke="midnightblue" points="963.104,-147.362 960.797,-137.021 956.152,-146.544 963.104,-147.362"/>
</g>
<!-- Node11 -->
<g id="node11" class="node"><title>Node11</title>
<polygon fill="white" stroke="#bfbfbf" points="312,-252 312,-271 361,-271 361,-252 312,-252"/>
<text text-anchor="middle" x="336.5" y="-259" font-family="Helvetica,sans-Serif" font-size="10.00">string.h</text>
</g>
<!-- Node1&#45;&gt;Node11 -->
<g id="edge12" class="edge"><title>Node1&#45;&gt;Node11</title>
<path fill="none" stroke="midnightblue" d="M610.322,-320.44C545.047,-313.323 450.522,-300.016 370.5,-277 368.21,-276.341 365.87,-275.569 363.541,-274.729"/>
<polygon fill="midnightblue" stroke="midnightblue" points="364.783,-271.457 354.198,-271.021 362.201,-277.963 364.783,-271.457"/>
</g>
<!-- Node12 -->
<g id="node12" class="node"><title>Node12</title>
<polygon fill="white" stroke="#bfbfbf" points="409.5,-185 409.5,-204 453.5,-204 453.5,-185 409.5,-185"/>
<text text-anchor="middle" x="431.5" y="-192" font-family="Helvetica,sans-Serif" font-size="10.00">cmath</text>
</g>
<!-- Node1&#45;&gt;Node12 -->
<g id="edge13" class="edge"><title>Node1&#45;&gt;Node12</title>
<path fill="none" stroke="midnightblue" d="M610.056,-322.665C502.73,-315.309 322.449,-299.722 302.5,-277 293.41,-266.647 294.712,-257.366 302.5,-246 327.553,-209.438 354.276,-226.28 395.5,-210 397.137,-209.353 398.815,-208.688 400.509,-208.014"/>
<polygon fill="midnightblue" stroke="midnightblue" points="402.215,-211.101 410.199,-204.135 399.614,-204.602 402.215,-211.101"/>
</g>
<!-- Node13 -->
<g id="node13" class="node"><title>Node13</title>
<polygon fill="white" stroke="#bfbfbf" points="457.5,-252 457.5,-271 513.5,-271 513.5,-252 457.5,-252"/>
<text text-anchor="middle" x="485.5" y="-259" font-family="Helvetica,sans-Serif" font-size="10.00">algorithm</text>
</g>
<!-- Node1&#45;&gt;Node13 -->
<g id="edge14" class="edge"><title>Node1&#45;&gt;Node13</title>
<path fill="none" stroke="midnightblue" d="M639.107,-313.399C605.794,-303.799 561.28,-290.438 522.5,-277 520.381,-276.266 518.204,-275.484 516.018,-274.679"/>
<polygon fill="midnightblue" stroke="midnightblue" points="517.115,-271.352 506.524,-271.074 514.63,-277.896 517.115,-271.352"/>
</g>
<!-- Node14 -->
<g id="node14" class="node"><title>Node14</title>
<g id="a_node14"><a xlink:href="expfit_8h.xhtml" target="_top" xlink:title="Declares routine for fitting a data set to a curve. ">
<polygon fill="white" stroke="black" points="77.5,-179.5 77.5,-209.5 219.5,-209.5 219.5,-179.5 77.5,-179.5"/>
<text text-anchor="start" x="85.5" y="-197.5" font-family="Helvetica,sans-Serif" font-size="10.00">gromacs/correlationfunctions</text>
<text text-anchor="middle" x="148.5" y="-186.5" font-family="Helvetica,sans-Serif" font-size="10.00">/expfit.h</text>
</a>
</g>
</g>
<!-- Node1&#45;&gt;Node14 -->
<g id="edge15" class="edge"><title>Node1&#45;&gt;Node14</title>
<path fill="none" stroke="midnightblue" d="M610.238,-326.481C458.288,-323.701 138.009,-313.526 104.5,-277 88.2356,-259.271 106.014,-234.425 123.597,-216.838"/>
<polygon fill="midnightblue" stroke="midnightblue" points="126.181,-219.212 131.021,-209.787 121.36,-214.136 126.181,-219.212"/>
</g>
<!-- Node15 -->
<g id="node15" class="node"><title>Node15</title>
<g id="a_node15"><a xlink:href="integrate_8h.xhtml" target="_top" xlink:title="Declares routines for integrating a data set. ">
<polygon fill="white" stroke="black" points="791.5,-179.5 791.5,-209.5 933.5,-209.5 933.5,-179.5 791.5,-179.5"/>
<text text-anchor="start" x="799.5" y="-197.5" font-family="Helvetica,sans-Serif" font-size="10.00">gromacs/correlationfunctions</text>
<text text-anchor="middle" x="862.5" y="-186.5" font-family="Helvetica,sans-Serif" font-size="10.00">/integrate.h</text>
</a>
</g>
</g>
<!-- Node1&#45;&gt;Node15 -->
<g id="edge18" class="edge"><title>Node1&#45;&gt;Node15</title>
<path fill="none" stroke="midnightblue" d="M768.671,-314.807C810.577,-306.299 855.931,-293.606 868.5,-277 880.811,-260.735 877.401,-237.031 872.045,-219.376"/>
<polygon fill="midnightblue" stroke="midnightblue" points="875.313,-218.115 868.771,-209.781 868.688,-220.376 875.313,-218.115"/>
</g>
<!-- Node16 -->
<g id="node16" class="node"><title>Node16</title>
<g id="a_node16"><a xlink:href="manyautocorrelation_8h.xhtml" target="_top" xlink:title="Declares routine for computing many correlation functions using OpenMP. ">
<polygon fill="white" stroke="black" points="717.5,-246.5 717.5,-276.5 859.5,-276.5 859.5,-246.5 717.5,-246.5"/>
<text text-anchor="start" x="725.5" y="-264.5" font-family="Helvetica,sans-Serif" font-size="10.00">gromacs/correlationfunctions</text>
<text text-anchor="middle" x="788.5" y="-253.5" font-family="Helvetica,sans-Serif" font-size="10.00">/manyautocorrelation.h</text>
</a>
</g>
</g>
<!-- Node1&#45;&gt;Node16 -->
<g id="edge21" class="edge"><title>Node1&#45;&gt;Node16</title>
<path fill="none" stroke="midnightblue" d="M710.982,-313.396C724.863,-304.282 743.127,-292.29 758.441,-282.236"/>
<polygon fill="midnightblue" stroke="midnightblue" points="760.622,-284.991 767.06,-276.577 756.78,-279.139 760.622,-284.991"/>
</g>
<!-- Node19 -->
<g id="node19" class="node"><title>Node19</title>
<g id="a_node19"><a xlink:href="polynomials_8h.xhtml" target="_top" xlink:title="Declares routine for computing a Legendre polynomial. ">
<polygon fill="white" stroke="black" points="113.5,-246.5 113.5,-276.5 255.5,-276.5 255.5,-246.5 113.5,-246.5"/>
<text text-anchor="start" x="121.5" y="-264.5" font-family="Helvetica,sans-Serif" font-size="10.00">gromacs/correlationfunctions</text>
<text text-anchor="middle" x="184.5" y="-253.5" font-family="Helvetica,sans-Serif" font-size="10.00">/polynomials.h</text>
</a>
</g>
</g>
<!-- Node1&#45;&gt;Node19 -->
<g id="edge27" class="edge"><title>Node1&#45;&gt;Node19</title>
<path fill="none" stroke="midnightblue" d="M610.389,-319.164C525.845,-309.982 387.966,-294.216 269.5,-277 268.389,-276.839 267.27,-276.674 266.145,-276.507"/>
<polygon fill="midnightblue" stroke="midnightblue" points="266.294,-272.989 255.88,-274.939 265.237,-279.909 266.294,-272.989"/>
</g>
<!-- Node20 -->
<g id="node20" class="node"><title>Node20</title>
<g id="a_node20"><a xlink:href="functions_8h.xhtml" target="_top" xlink:title="Declares simple math functions. ">
<polygon fill="white" stroke="black" points="531.5,-252 531.5,-271 661.5,-271 661.5,-252 531.5,-252"/>
<text text-anchor="middle" x="596.5" y="-259" font-family="Helvetica,sans-Serif" font-size="10.00">gromacs/math/functions.h</text>
</a>
</g>
</g>
<!-- Node1&#45;&gt;Node20 -->
<g id="edge29" class="edge"><title>Node1&#45;&gt;Node20</title>
<path fill="none" stroke="midnightblue" d="M669.32,-313.396C653.869,-302.597 632.636,-287.756 617.085,-276.887"/>
<polygon fill="midnightblue" stroke="midnightblue" points="618.873,-273.867 608.672,-271.007 614.863,-279.605 618.873,-273.867"/>
</g>
<!-- Node22 -->
<g id="node22" class="node"><title>Node22</title>
<g id="a_node22"><a xlink:href="arraysize_8h.xhtml" target="_top" xlink:title="Provides asize() macro for calculating the static size of an array. ">
<polygon fill="white" stroke="black" points="978,-252 978,-271 1109,-271 1109,-252 978,-252"/>
<text text-anchor="middle" x="1043.5" y="-259" font-family="Helvetica,sans-Serif" font-size="10.00">gromacs/utility/arraysize.h</text>
</a>
</g>
</g>
<!-- Node1&#45;&gt;Node22 -->
<g id="edge33" class="edge"><title>Node1&#45;&gt;Node22</title>
<path fill="none" stroke="midnightblue" d="M765.877,-313.476C832.357,-301.269 927.196,-283.855 987.031,-272.869"/>
<polygon fill="midnightblue" stroke="midnightblue" points="987.848,-276.277 997.052,-271.029 986.584,-269.392 987.848,-276.277"/>
</g>
<!-- Node23 -->
<g id="node23" class="node"><title>Node23</title>
<g id="a_node23"><a xlink:href="fatalerror_8h.xhtml" target="_top" xlink:title="Declares fatal error handling and debugging routines for C code. ">
<polygon fill="white" stroke="black" points="989.5,-185 989.5,-204 1119.5,-204 1119.5,-185 989.5,-185"/>
<text text-anchor="middle" x="1054.5" y="-192" font-family="Helvetica,sans-Serif" font-size="10.00">gromacs/utility/fatalerror.h</text>
</a>
</g>
</g>
<!-- Node1&#45;&gt;Node23 -->
<g id="edge34" class="edge"><title>Node1&#45;&gt;Node23</title>
<path fill="none" stroke="midnightblue" d="M768.511,-323.764C885.821,-317.396 1094.76,-302.584 1117.5,-277 1137.59,-254.402 1103.67,-226.106 1078.31,-209.494"/>
<polygon fill="midnightblue" stroke="midnightblue" points="1080.13,-206.503 1069.8,-204.134 1076.4,-212.426 1080.13,-206.503"/>
</g>
<!-- Node25 -->
<g id="node25" class="node"><title>Node25</title>
<g id="a_node25"><a xlink:href="futil_8h.xhtml" target="_top" xlink:title="Low&#45;level wrappers for OS&#45;specific file handling with some GROMACS customizations. ">
<polygon fill="white" stroke="black" points="1138,-185 1138,-204 1245,-204 1245,-185 1138,-185"/>
<text text-anchor="middle" x="1191.5" y="-192" font-family="Helvetica,sans-Serif" font-size="10.00">gromacs/utility/futil.h</text>
</a>
</g>
</g>
<!-- Node1&#45;&gt;Node25 -->
<g id="edge38" class="edge"><title>Node1&#45;&gt;Node25</title>
<path fill="none" stroke="midnightblue" d="M768.651,-326.324C879.849,-323.374 1075.46,-313.053 1135.5,-277 1159.72,-262.459 1175.94,-232.945 1184.44,-213.71"/>
<polygon fill="midnightblue" stroke="midnightblue" points="1187.76,-214.819 1188.37,-204.242 1181.3,-212.136 1187.76,-214.819"/>
</g>
<!-- Node27 -->
<g id="node27" class="node"><title>Node27</title>
<g id="a_node27"><a xlink:href="smalloc_8h.xhtml" target="_top" xlink:title="C memory allocation routines for GROMACS. ">
<polygon fill="white" stroke="black" points="1249,-252 1249,-271 1374,-271 1374,-252 1249,-252"/>
<text text-anchor="middle" x="1311.5" y="-259" font-family="Helvetica,sans-Serif" font-size="10.00">gromacs/utility/smalloc.h</text>
</a>
</g>
</g>
<!-- Node1&#45;&gt;Node27 -->
<g id="edge43" class="edge"><title>Node1&#45;&gt;Node27</title>
<path fill="none" stroke="midnightblue" d="M768.842,-320.586C869.896,-311.577 1049.86,-294.856 1203.5,-277 1215.66,-275.587 1228.57,-273.962 1241.08,-272.322"/>
<polygon fill="midnightblue" stroke="midnightblue" points="1241.55,-275.791 1251,-271.008 1240.63,-268.852 1241.55,-275.791"/>
</g>
<!-- Node29 -->
<g id="node29" class="node"><title>Node29</title>
<g id="a_node29"><a xlink:href="strconvert_8h.xhtml" target="_top" xlink:title="Declares common utility functions for conversions to and from strings. ">
<polygon fill="white" stroke="black" points="1418,-252 1418,-271 1553,-271 1553,-252 1418,-252"/>
<text text-anchor="middle" x="1485.5" y="-259" font-family="Helvetica,sans-Serif" font-size="10.00">gromacs/utility/strconvert.h</text>
</a>
</g>
</g>
<!-- Node1&#45;&gt;Node29 -->
<g id="edge46" class="edge"><title>Node1&#45;&gt;Node29</title>
<path fill="none" stroke="midnightblue" d="M768.641,-323.465C897.503,-316.507 1160.59,-300.678 1382.5,-277 1394.56,-275.713 1407.39,-274.102 1419.75,-272.427"/>
<polygon fill="midnightblue" stroke="midnightblue" points="1420.57,-275.848 1429.99,-271.01 1419.61,-268.914 1420.57,-275.848"/>
</g>
<!-- Node4 -->
<g id="node4" class="node"><title>Node4</title>
<g id="a_node4"><a xlink:href="pargs_8h.xhtml" target="_top" xlink:title="Declares t_pargs, parse_common_args() and related methods. ">
<polygon fill="white" stroke="black" points="238,-179.5 238,-209.5 353,-209.5 353,-179.5 238,-179.5"/>
<text text-anchor="start" x="246" y="-197.5" font-family="Helvetica,sans-Serif" font-size="10.00">gromacs/commandline</text>
<text text-anchor="middle" x="295.5" y="-186.5" font-family="Helvetica,sans-Serif" font-size="10.00">/pargs.h</text>
</a>
</g>
</g>
<!-- Node3&#45;&gt;Node4 -->
<g id="edge3" class="edge"><title>Node3&#45;&gt;Node4</title>
<path fill="none" stroke="midnightblue" d="M394.125,-251.734C377.534,-242.274 350.596,-226.914 329.062,-214.636"/>
<polygon fill="midnightblue" stroke="midnightblue" points="330.631,-211.502 320.21,-209.589 327.163,-217.583 330.631,-211.502"/>
</g>
<!-- Node3&#45;&gt;Node9 -->
<g id="edge10" class="edge"><title>Node3&#45;&gt;Node9</title>
<path fill="none" stroke="midnightblue" d="M418.075,-251.831C433.689,-236.277 468.142,-203.016 500.5,-179 519.128,-165.174 541.696,-151.629 558.594,-142.053"/>
<polygon fill="midnightblue" stroke="midnightblue" points="560.318,-145.099 567.338,-137.164 556.902,-138.989 560.318,-145.099"/>
</g>
<!-- Node5 -->
<g id="node5" class="node"><title>Node5</title>
<g id="a_node5"><a xlink:href="filenm_8h.xhtml" target="_top" xlink:title="Declares t_filenm for old&#45;style command&#45;line parsing of file name options. ">
<polygon fill="white" stroke="black" points="290,-112.5 290,-142.5 405,-142.5 405,-112.5 290,-112.5"/>
<text text-anchor="start" x="298" y="-130.5" font-family="Helvetica,sans-Serif" font-size="10.00">gromacs/commandline</text>
<text text-anchor="middle" x="347.5" y="-119.5" font-family="Helvetica,sans-Serif" font-size="10.00">/filenm.h</text>
</a>
</g>
</g>
<!-- Node4&#45;&gt;Node5 -->
<g id="edge4" class="edge"><title>Node4&#45;&gt;Node5</title>
<path fill="none" stroke="midnightblue" d="M306.783,-179.396C313.529,-170.963 322.246,-160.067 329.883,-150.522"/>
<polygon fill="midnightblue" stroke="midnightblue" points="332.725,-152.572 336.239,-142.577 327.259,-148.199 332.725,-152.572"/>
</g>
<!-- Node6 -->
<g id="node6" class="node"><title>Node6</title>
<g id="a_node6"><a xlink:href="basedefinitions_8h.xhtml" target="_top" xlink:title="Basic types and macros used throughout GROMACS. ">
<polygon fill="white" stroke="black" points="943,-56.5 943,-75.5 1100,-75.5 1100,-56.5 943,-56.5"/>
<text text-anchor="middle" x="1021.5" y="-63.5" font-family="Helvetica,sans-Serif" font-size="10.00">gromacs/utility/basedefinitions.h</text>
</a>
</g>
</g>
<!-- Node4&#45;&gt;Node6 -->
<g id="edge8" class="edge"><title>Node4&#45;&gt;Node6</title>
<path fill="none" stroke="midnightblue" d="M326.409,-179.402C369.086,-160.615 448.915,-127.899 520.5,-112 662.471,-80.4685 831.74,-70.9178 932.715,-68.0934"/>
<polygon fill="midnightblue" stroke="midnightblue" points="932.968,-71.588 942.872,-67.8256 932.784,-64.5904 932.968,-71.588"/>
</g>
<!-- Node4&#45;&gt;Node9 -->
<g id="edge9" class="edge"><title>Node4&#45;&gt;Node9</title>
<path fill="none" stroke="midnightblue" d="M353.089,-180.503C406.685,-168.406 485.625,-150.59 535.789,-139.268"/>
<polygon fill="midnightblue" stroke="midnightblue" points="536.746,-142.64 545.73,-137.024 535.205,-135.812 536.746,-142.64"/>
</g>
<!-- Node5&#45;&gt;Node6 -->
<g id="edge5" class="edge"><title>Node5&#45;&gt;Node6</title>
<path fill="none" stroke="midnightblue" d="M405.169,-118.857C424.057,-116.486 445.156,-113.979 464.5,-112 629.688,-95.099 822.972,-80.6824 932.944,-72.9828"/>
<polygon fill="midnightblue" stroke="midnightblue" points="933.265,-76.4691 942.997,-72.2815 932.777,-69.4861 933.265,-76.4691"/>
</g>
<!-- Node7 -->
<g id="node7" class="node"><title>Node7</title>
<polygon fill="white" stroke="#bfbfbf" points="961,-0.5 961,-19.5 1010,-19.5 1010,-0.5 961,-0.5"/>
<text text-anchor="middle" x="985.5" y="-7.5" font-family="Helvetica,sans-Serif" font-size="10.00">stdint.h</text>
</g>
<!-- Node6&#45;&gt;Node7 -->
<g id="edge6" class="edge"><title>Node6&#45;&gt;Node7</title>
<path fill="none" stroke="midnightblue" d="M1015.56,-56.083C1010.52,-48.5341 1003.16,-37.4948 996.987,-28.2298"/>
<polygon fill="midnightblue" stroke="midnightblue" points="999.793,-26.1301 991.334,-19.7511 993.969,-30.0131 999.793,-26.1301"/>
</g>
<!-- Node8 -->
<g id="node8" class="node"><title>Node8</title>
<polygon fill="white" stroke="#bfbfbf" points="1028,-0.5 1028,-19.5 1087,-19.5 1087,-0.5 1028,-0.5"/>
<text text-anchor="middle" x="1057.5" y="-7.5" font-family="Helvetica,sans-Serif" font-size="10.00">inttypes.h</text>
</g>
<!-- Node6&#45;&gt;Node8 -->
<g id="edge7" class="edge"><title>Node6&#45;&gt;Node8</title>
<path fill="none" stroke="midnightblue" d="M1027.44,-56.083C1032.48,-48.5341 1039.84,-37.4948 1046.01,-28.2298"/>
<polygon fill="midnightblue" stroke="midnightblue" points="1049.03,-30.0131 1051.67,-19.7511 1043.21,-26.1301 1049.03,-30.0131"/>
</g>
<!-- Node14&#45;&gt;Node6 -->
<g id="edge16" class="edge"><title>Node14&#45;&gt;Node6</title>
<path fill="none" stroke="midnightblue" d="M165.067,-179.446C188.835,-160.227 234.8,-126.483 280.5,-112 399.547,-74.2734 762.983,-67.8776 932.586,-66.997"/>
<polygon fill="midnightblue" stroke="midnightblue" points="932.75,-70.4964 942.734,-66.9498 932.717,-63.4965 932.75,-70.4964"/>
</g>
<!-- Node14&#45;&gt;Node9 -->
<g id="edge17" class="edge"><title>Node14&#45;&gt;Node9</title>
<path fill="none" stroke="midnightblue" d="M219.576,-180.473C222.589,-179.966 225.574,-179.473 228.5,-179 330.125,-162.568 448.589,-146.293 519.732,-136.828"/>
<polygon fill="midnightblue" stroke="midnightblue" points="520.425,-140.267 529.877,-135.482 519.504,-133.328 520.425,-140.267"/>
</g>
<!-- Node15&#45;&gt;Node9 -->
<g id="edge20" class="edge"><title>Node15&#45;&gt;Node9</title>
<path fill="none" stroke="midnightblue" d="M802.305,-179.476C750.667,-167.446 677.321,-150.358 630.069,-139.349"/>
<polygon fill="midnightblue" stroke="midnightblue" points="630.641,-135.889 620.108,-137.029 629.053,-142.706 630.641,-135.889"/>
</g>
<!-- Node15&#45;&gt;Node10 -->
<g id="edge19" class="edge"><title>Node15&#45;&gt;Node10</title>
<path fill="none" stroke="midnightblue" d="M883.982,-179.396C900.584,-168.496 923.456,-153.479 940.05,-142.584"/>
<polygon fill="midnightblue" stroke="midnightblue" points="942.105,-145.421 948.543,-137.007 938.263,-139.57 942.105,-145.421"/>
</g>
<!-- Node16&#45;&gt;Node9 -->
<g id="edge26" class="edge"><title>Node16&#45;&gt;Node9</title>
<path fill="none" stroke="midnightblue" d="M751.252,-246.446C729.294,-237.429 701.414,-224.678 678.5,-210 648.033,-190.484 617.011,-161.879 599.044,-144.263"/>
<polygon fill="midnightblue" stroke="midnightblue" points="601.315,-141.585 591.756,-137.015 596.378,-146.548 601.315,-141.585"/>
</g>
<!-- Node17 -->
<g id="node17" class="node"><title>Node17</title>
<polygon fill="white" stroke="#bfbfbf" points="1436.5,-118 1436.5,-137 1480.5,-137 1480.5,-118 1436.5,-118"/>
<text text-anchor="middle" x="1458.5" y="-125" font-family="Helvetica,sans-Serif" font-size="10.00">vector</text>
</g>
<!-- Node16&#45;&gt;Node17 -->
<g id="edge22" class="edge"><title>Node16&#45;&gt;Node17</title>
<path fill="none" stroke="midnightblue" d="M859.733,-253.849C980.566,-242.406 1216.28,-219.324 1253.5,-210 1289.29,-201.035 1296.23,-192.659 1330.5,-179 1363.56,-165.824 1401.49,-150.882 1427.42,-140.692"/>
<polygon fill="midnightblue" stroke="midnightblue" points="1428.71,-143.945 1436.74,-137.032 1426.15,-137.43 1428.71,-143.945"/>
</g>
<!-- Node18 -->
<g id="node18" class="node"><title>Node18</title>
<g id="a_node18"><a xlink:href="fft_8h.xhtml" target="_top" xlink:title="Fast Fourier Transforms. ">
<polygon fill="white" stroke="black" points="687.5,-185 687.5,-204 773.5,-204 773.5,-185 687.5,-185"/>
<text text-anchor="middle" x="730.5" y="-192" font-family="Helvetica,sans-Serif" font-size="10.00">gromacs/fft/fft.h</text>
</a>
</g>
</g>
<!-- Node16&#45;&gt;Node18 -->
<g id="edge23" class="edge"><title>Node16&#45;&gt;Node18</title>
<path fill="none" stroke="midnightblue" d="M775.915,-246.396C766.871,-236.261 754.652,-222.567 745.167,-211.937"/>
<polygon fill="midnightblue" stroke="midnightblue" points="747.528,-209.326 738.258,-204.195 742.305,-213.986 747.528,-209.326"/>
</g>
<!-- Node18&#45;&gt;Node9 -->
<g id="edge25" class="edge"><title>Node18&#45;&gt;Node9</title>
<path fill="none" stroke="midnightblue" d="M710.98,-184.869C685.719,-173.699 641.501,-154.147 612.358,-141.26"/>
<polygon fill="midnightblue" stroke="midnightblue" points="613.662,-138.01 603.101,-137.167 610.832,-144.412 613.662,-138.01"/>
</g>
<!-- Node18&#45;&gt;Node10 -->
<g id="edge24" class="edge"><title>Node18&#45;&gt;Node10</title>
<path fill="none" stroke="midnightblue" d="M761.175,-184.869C804.669,-172.63 883.929,-150.327 928.604,-137.756"/>
<polygon fill="midnightblue" stroke="midnightblue" points="929.703,-141.083 938.382,-135.005 927.807,-134.345 929.703,-141.083"/>
</g>
<!-- Node19&#45;&gt;Node9 -->
<g id="edge28" class="edge"><title>Node19&#45;&gt;Node9</title>
<path fill="none" stroke="midnightblue" d="M255.829,-246.913C289.099,-238.902 328.531,-226.945 361.5,-210 381.193,-199.878 380.763,-189.036 400.5,-179 438.632,-159.61 485.14,-146.9 521.728,-139.081"/>
<polygon fill="midnightblue" stroke="midnightblue" points="522.686,-142.457 531.77,-137.004 521.268,-135.602 522.686,-142.457"/>
</g>
<!-- Node20&#45;&gt;Node9 -->
<g id="edge32" class="edge"><title>Node20&#45;&gt;Node9</title>
<path fill="none" stroke="midnightblue" d="M595.647,-251.839C593.563,-230.674 588.173,-175.948 585.325,-147.033"/>
<polygon fill="midnightblue" stroke="midnightblue" points="588.803,-146.63 584.339,-137.021 581.836,-147.316 588.803,-146.63"/>
</g>
<!-- Node20&#45;&gt;Node12 -->
<g id="edge30" class="edge"><title>Node20&#45;&gt;Node12</title>
<path fill="none" stroke="midnightblue" d="M574.589,-251.869C545.91,-240.571 495.459,-220.696 462.77,-207.818"/>
<polygon fill="midnightblue" stroke="midnightblue" points="463.825,-204.473 453.239,-204.064 461.26,-210.985 463.825,-204.473"/>
</g>
<!-- Node21 -->
<g id="node21" class="node"><title>Node21</title>
<polygon fill="white" stroke="#bfbfbf" points="509.5,-185 509.5,-204 555.5,-204 555.5,-185 509.5,-185"/>
<text text-anchor="middle" x="532.5" y="-192" font-family="Helvetica,sans-Serif" font-size="10.00">cstdint</text>
</g>
<!-- Node20&#45;&gt;Node21 -->
<g id="edge31" class="edge"><title>Node20&#45;&gt;Node21</title>
<path fill="none" stroke="midnightblue" d="M587.869,-251.734C577.697,-241.403 560.598,-224.037 548.088,-211.332"/>
<polygon fill="midnightblue" stroke="midnightblue" points="550.505,-208.797 540.995,-204.127 545.517,-213.709 550.505,-208.797"/>
</g>
<!-- Node23&#45;&gt;Node6 -->
<g id="edge37" class="edge"><title>Node23&#45;&gt;Node6</title>
<path fill="none" stroke="midnightblue" d="M1052.06,-184.94C1049.21,-174.91 1044.4,-157.78 1040.5,-143 1035.37,-123.528 1029.82,-101.157 1026.05,-85.7542"/>
<polygon fill="midnightblue" stroke="midnightblue" points="1029.42,-84.7986 1023.65,-75.9111 1022.62,-86.4554 1029.42,-84.7986"/>
</g>
<!-- Node23&#45;&gt;Node10 -->
<g id="edge36" class="edge"><title>Node23&#45;&gt;Node10</title>
<path fill="none" stroke="midnightblue" d="M1041.96,-184.734C1026.62,-174.013 1000.44,-155.716 982.123,-142.914"/>
<polygon fill="midnightblue" stroke="midnightblue" points="984.045,-139.987 973.844,-137.127 980.035,-145.725 984.045,-139.987"/>
</g>
<!-- Node24 -->
<g id="node24" class="node"><title>Node24</title>
<polygon fill="white" stroke="#bfbfbf" points="1049.5,-118 1049.5,-137 1101.5,-137 1101.5,-118 1049.5,-118"/>
<text text-anchor="middle" x="1075.5" y="-125" font-family="Helvetica,sans-Serif" font-size="10.00">stdarg.h</text>
</g>
<!-- Node23&#45;&gt;Node24 -->
<g id="edge35" class="edge"><title>Node23&#45;&gt;Node24</title>
<path fill="none" stroke="midnightblue" d="M1057.33,-184.734C1060.45,-175.085 1065.55,-159.3 1069.55,-146.906"/>
<polygon fill="midnightblue" stroke="midnightblue" points="1072.97,-147.719 1072.71,-137.127 1066.31,-145.567 1072.97,-147.719"/>
</g>
<!-- Node25&#45;&gt;Node6 -->
<g id="edge41" class="edge"><title>Node25&#45;&gt;Node6</title>
<path fill="none" stroke="midnightblue" d="M1184.65,-184.987C1171.56,-169.1 1141.49,-134.513 1110.5,-112 1092.54,-98.9482 1070.23,-87.6798 1052.45,-79.6835"/>
<polygon fill="midnightblue" stroke="midnightblue" points="1053.65,-76.3903 1043.09,-75.5872 1050.85,-82.8031 1053.65,-76.3903"/>
</g>
<!-- Node25&#45;&gt;Node10 -->
<g id="edge40" class="edge"><title>Node25&#45;&gt;Node10</title>
<path fill="none" stroke="midnightblue" d="M1160.96,-184.869C1117.65,-172.63 1038.73,-150.327 994.253,-137.756"/>
<polygon fill="midnightblue" stroke="midnightblue" points="995.093,-134.357 984.518,-135.005 993.19,-141.093 995.093,-134.357"/>
</g>
<!-- Node26 -->
<g id="node26" class="node"><title>Node26</title>
<polygon fill="white" stroke="#bfbfbf" points="1167.5,-118 1167.5,-137 1215.5,-137 1215.5,-118 1167.5,-118"/>
<text text-anchor="middle" x="1191.5" y="-125" font-family="Helvetica,sans-Serif" font-size="10.00">limits.h</text>
</g>
<!-- Node25&#45;&gt;Node26 -->
<g id="edge39" class="edge"><title>Node25&#45;&gt;Node26</title>
<path fill="none" stroke="midnightblue" d="M1191.5,-184.734C1191.5,-175.183 1191.5,-159.618 1191.5,-147.283"/>
<polygon fill="midnightblue" stroke="midnightblue" points="1195,-147.127 1191.5,-137.127 1188,-147.127 1195,-147.127"/>
</g>
<!-- Node27&#45;&gt;Node6 -->
<g id="edge45" class="edge"><title>Node27&#45;&gt;Node6</title>
<path fill="none" stroke="midnightblue" d="M1309.1,-251.788C1301.52,-225.931 1275.46,-149.118 1224.5,-112 1191.69,-88.1013 1148.53,-76.5154 1110.45,-71.0365"/>
<polygon fill="midnightblue" stroke="midnightblue" points="1110.75,-67.5452 1100.38,-69.7095 1109.83,-74.4853 1110.75,-67.5452"/>
</g>
<!-- Node28 -->
<g id="node28" class="node"><title>Node28</title>
<polygon fill="white" stroke="#bfbfbf" points="1339.5,-185 1339.5,-204 1391.5,-204 1391.5,-185 1339.5,-185"/>
<text text-anchor="middle" x="1365.5" y="-192" font-family="Helvetica,sans-Serif" font-size="10.00">stddef.h</text>
</g>
<!-- Node27&#45;&gt;Node28 -->
<g id="edge44" class="edge"><title>Node27&#45;&gt;Node28</title>
<path fill="none" stroke="midnightblue" d="M1318.78,-251.734C1327.2,-241.598 1341.25,-224.69 1351.75,-212.056"/>
<polygon fill="midnightblue" stroke="midnightblue" points="1354.63,-214.056 1358.33,-204.127 1349.25,-209.583 1354.63,-214.056"/>
</g>
<!-- Node29&#45;&gt;Node6 -->
<g id="edge48" class="edge"><title>Node29&#45;&gt;Node6</title>
<path fill="none" stroke="midnightblue" d="M1478.3,-251.905C1464.54,-235.882 1432.96,-201.077 1400.5,-179 1311.41,-118.403 1189.01,-90.0053 1107.69,-77.1049"/>
<polygon fill="midnightblue" stroke="midnightblue" points="1107.9,-73.5965 1097.48,-75.5334 1106.84,-80.515 1107.9,-73.5965"/>
</g>
<!-- Node30 -->
<g id="node30" class="node"><title>Node30</title>
<polygon fill="white" stroke="#bfbfbf" points="1630,-118 1630,-137 1671,-137 1671,-118 1630,-118"/>
<text text-anchor="middle" x="1650.5" y="-125" font-family="Helvetica,sans-Serif" font-size="10.00">string</text>
</g>
<!-- Node29&#45;&gt;Node30 -->
<g id="edge47" class="edge"><title>Node29&#45;&gt;Node30</title>
<path fill="none" stroke="midnightblue" d="M1514.27,-251.916C1537.73,-243.868 1570.76,-230.051 1594.5,-210 1615.65,-192.139 1632.37,-164.443 1641.86,-146.389"/>
<polygon fill="midnightblue" stroke="midnightblue" points="1645.09,-147.751 1646.47,-137.247 1638.84,-144.596 1645.09,-147.751"/>
</g>
<!-- Node31 -->
<g id="node31" class="node"><title>Node31</title>
<g id="a_node31"><a xlink:href="stringutil_8h.xhtml" target="_top" xlink:title="Declares common string utility and formatting routines. ">
<polygon fill="white" stroke="black" points="1457.5,-185 1457.5,-204 1585.5,-204 1585.5,-185 1457.5,-185"/>
<text text-anchor="middle" x="1521.5" y="-192" font-family="Helvetica,sans-Serif" font-size="10.00">gromacs/utility/stringutil.h</text>
</a>
</g>
</g>
<!-- Node29&#45;&gt;Node31 -->
<g id="edge49" class="edge"><title>Node29&#45;&gt;Node31</title>
<path fill="none" stroke="midnightblue" d="M1490.36,-251.734C1495.81,-241.89 1504.8,-225.66 1511.72,-213.159"/>
<polygon fill="midnightblue" stroke="midnightblue" points="1514.94,-214.571 1516.72,-204.127 1508.81,-211.179 1514.94,-214.571"/>
</g>
<!-- Node31&#45;&gt;Node17 -->
<g id="edge53" class="edge"><title>Node31&#45;&gt;Node17</title>
<path fill="none" stroke="midnightblue" d="M1513,-184.734C1502.99,-174.403 1486.16,-157.037 1473.84,-144.332"/>
<polygon fill="midnightblue" stroke="midnightblue" points="1476.33,-141.872 1466.86,-137.127 1471.31,-146.744 1476.33,-141.872"/>
</g>
<!-- Node31&#45;&gt;Node30 -->
<g id="edge52" class="edge"><title>Node31&#45;&gt;Node30</title>
<path fill="none" stroke="midnightblue" d="M1538.63,-184.869C1560.51,-173.845 1598.59,-154.655 1624.17,-141.768"/>
<polygon fill="midnightblue" stroke="midnightblue" points="1625.94,-144.793 1633.3,-137.167 1622.79,-138.541 1625.94,-144.793"/>
</g>
<!-- Node32 -->
<g id="node32" class="node"><title>Node32</title>
<polygon fill="white" stroke="#bfbfbf" points="1563,-118 1563,-137 1612,-137 1612,-118 1563,-118"/>
<text text-anchor="middle" x="1587.5" y="-125" font-family="Helvetica,sans-Serif" font-size="10.00">cstdarg</text>
</g>
<!-- Node31&#45;&gt;Node32 -->
<g id="edge50" class="edge"><title>Node31&#45;&gt;Node32</title>
<path fill="none" stroke="midnightblue" d="M1530.4,-184.734C1540.89,-174.403 1558.52,-157.037 1571.42,-144.332"/>
<polygon fill="midnightblue" stroke="midnightblue" points="1574.07,-146.638 1578.74,-137.127 1569.16,-141.651 1574.07,-146.638"/>
</g>
<!-- Node33 -->
<g id="node33" class="node"><title>Node33</title>
<polygon fill="white" stroke="#bfbfbf" points="1498.5,-118 1498.5,-137 1544.5,-137 1544.5,-118 1498.5,-118"/>
<text text-anchor="middle" x="1521.5" y="-125" font-family="Helvetica,sans-Serif" font-size="10.00">cstring</text>
</g>
<!-- Node31&#45;&gt;Node33 -->
<g id="edge51" class="edge"><title>Node31&#45;&gt;Node33</title>
<path fill="none" stroke="midnightblue" d="M1521.5,-184.734C1521.5,-175.183 1521.5,-159.618 1521.5,-147.283"/>
<polygon fill="midnightblue" stroke="midnightblue" points="1525,-147.127 1521.5,-137.127 1518,-147.127 1525,-147.127"/>
</g>
</g>
</svg>
