<?xml version="1.0" encoding="UTF-8" standalone="no"?>
<!DOCTYPE svg PUBLIC "-//W3C//DTD SVG 1.1//EN"
 "http://www.w3.org/Graphics/SVG/1.1/DTD/svg11.dtd">
<!-- Generated by graphviz version 2.38.0 (20140413.2041)
 -->
<!-- Title: src/gromacs/options/basicoptionstorage.h Pages: 1 -->
<svg width="1704pt" height="386pt"
 viewBox="0.00 0.00 1703.99 386.00" xmlns="http://www.w3.org/2000/svg" xmlns:xlink="http://www.w3.org/1999/xlink">
<g id="graph0" class="graph" transform="scale(1 1) rotate(0) translate(4 382)">
<title>src/gromacs/options/basicoptionstorage.h</title>
<polygon fill="white" stroke="none" points="-4,4 -4,-382 1699.99,-382 1699.99,4 -4,4"/>
<!-- Node1 -->
<g id="node1" class="node"><title>Node1</title>
<polygon fill="#bfbfbf" stroke="black" points="496.5,-347.5 496.5,-377.5 606.5,-377.5 606.5,-347.5 496.5,-347.5"/>
<text text-anchor="start" x="504.5" y="-365.5" font-family="Helvetica,sans-Serif" font-size="10.00">src/gromacs/options</text>
<text text-anchor="middle" x="551.5" y="-354.5" font-family="Helvetica,sans-Serif" font-size="10.00">/basicoptionstorage.h</text>
</g>
<!-- Node2 -->
<g id="node2" class="node"><title>Node2</title>
<polygon fill="white" stroke="#bfbfbf" points="1446.5,-62 1446.5,-81 1498.5,-81 1498.5,-62 1446.5,-62"/>
<text text-anchor="middle" x="1472.5" y="-69" font-family="Helvetica,sans-Serif" font-size="10.00">memory</text>
</g>
<!-- Node1&#45;&gt;Node2 -->
<g id="edge1" class="edge"><title>Node1&#45;&gt;Node2</title>
<path fill="none" stroke="midnightblue" d="M606.677,-361.792C835.196,-362.286 1695.5,-356.79 1695.5,-246 1695.5,-246 1695.5,-246 1695.5,-188 1695.5,-157.775 1697.45,-143.78 1675.5,-123 1651.69,-100.458 1560.48,-84.5924 1508.79,-77.199"/>
<polygon fill="midnightblue" stroke="midnightblue" points="1509.1,-73.7074 1498.71,-75.7922 1508.13,-80.6403 1509.1,-73.7074"/>
</g>
<!-- Node3 -->
<g id="node3" class="node"><title>Node3</title>
<polygon fill="white" stroke="#bfbfbf" points="136,-123.5 136,-142.5 177,-142.5 177,-123.5 136,-123.5"/>
<text text-anchor="middle" x="156.5" y="-130.5" font-family="Helvetica,sans-Serif" font-size="10.00">string</text>
</g>
<!-- Node1&#45;&gt;Node3 -->
<g id="edge2" class="edge"><title>Node1&#45;&gt;Node3</title>
<path fill="none" stroke="midnightblue" d="M496.318,-361.507C429.48,-359.625 314.76,-350.243 225.5,-311 189.028,-294.965 172.759,-290.909 155.5,-255 139.559,-221.832 145.902,-177.401 151.496,-152.651"/>
<polygon fill="midnightblue" stroke="midnightblue" points="154.936,-153.322 153.932,-142.775 148.139,-151.646 154.936,-153.322"/>
</g>
<!-- Node4 -->
<g id="node4" class="node"><title>Node4</title>
<polygon fill="white" stroke="#bfbfbf" points="524.5,-123.5 524.5,-142.5 568.5,-142.5 568.5,-123.5 524.5,-123.5"/>
<text text-anchor="middle" x="546.5" y="-130.5" font-family="Helvetica,sans-Serif" font-size="10.00">vector</text>
</g>
<!-- Node1&#45;&gt;Node4 -->
<g id="edge3" class="edge"><title>Node1&#45;&gt;Node4</title>
<path fill="none" stroke="midnightblue" d="M496.222,-355.232C369.689,-338.847 77.2229,-288.232 175.5,-179 224.382,-124.669 424.837,-155.106 514.19,-142.655"/>
<polygon fill="midnightblue" stroke="midnightblue" points="514.981,-146.071 524.265,-140.966 513.824,-139.168 514.981,-146.071"/>
</g>
<!-- Node5 -->
<g id="node5" class="node"><title>Node5</title>
<g id="a_node5"><a xlink:href="basicoptions_8h.xhtml" target="_top" xlink:title="Declares option objects for basic option types. ">
<polygon fill="white" stroke="black" points="474,-235.5 474,-254.5 629,-254.5 629,-235.5 474,-235.5"/>
<text text-anchor="middle" x="551.5" y="-242.5" font-family="Helvetica,sans-Serif" font-size="10.00">gromacs/options/basicoptions.h</text>
</a>
</g>
</g>
<!-- Node1&#45;&gt;Node5 -->
<g id="edge4" class="edge"><title>Node1&#45;&gt;Node5</title>
<path fill="none" stroke="midnightblue" d="M551.5,-347.337C551.5,-326.622 551.5,-288.016 551.5,-264.899"/>
<polygon fill="midnightblue" stroke="midnightblue" points="555,-264.669 551.5,-254.669 548,-264.669 555,-264.669"/>
</g>
<!-- Node22 -->
<g id="node22" class="node"><title>Node22</title>
<g id="a_node22"><a xlink:href="optionstoragetemplate_8h.xhtml" target="_top" xlink:title="Defines gmx::OptionStorageTemplate template. ">
<polygon fill="white" stroke="black" points="758.5,-291.5 758.5,-310.5 954.5,-310.5 954.5,-291.5 758.5,-291.5"/>
<text text-anchor="middle" x="856.5" y="-298.5" font-family="Helvetica,sans-Serif" font-size="10.00">gromacs/options/optionstoragetemplate.h</text>
</a>
</g>
</g>
<!-- Node1&#45;&gt;Node22 -->
<g id="edge29" class="edge"><title>Node1&#45;&gt;Node22</title>
<path fill="none" stroke="midnightblue" d="M606.733,-350.725C662.326,-339.88 747.516,-323.261 802.622,-312.511"/>
<polygon fill="midnightblue" stroke="midnightblue" points="803.402,-315.924 812.547,-310.574 802.062,-309.054 803.402,-315.924"/>
</g>
<!-- Node5&#45;&gt;Node3 -->
<g id="edge5" class="edge"><title>Node5&#45;&gt;Node3</title>
<path fill="none" stroke="midnightblue" d="M473.915,-244.486C377.163,-243.472 219.145,-235.968 175.5,-199 162.203,-187.737 157.934,-167.727 156.697,-152.874"/>
<polygon fill="midnightblue" stroke="midnightblue" points="160.187,-152.585 156.242,-142.752 153.194,-152.899 160.187,-152.585"/>
</g>
<!-- Node5&#45;&gt;Node4 -->
<g id="edge6" class="edge"><title>Node5&#45;&gt;Node4</title>
<path fill="none" stroke="midnightblue" d="M556.021,-235.191C561.856,-222.713 570.779,-199.166 566.5,-179 564.503,-169.591 560.399,-159.762 556.425,-151.698"/>
<polygon fill="midnightblue" stroke="midnightblue" points="559.387,-149.81 551.63,-142.593 553.193,-153.072 559.387,-149.81"/>
</g>
<!-- Node6 -->
<g id="node6" class="node"><title>Node6</title>
<g id="a_node6"><a xlink:href="abstractoption_8h.xhtml" target="_top" xlink:title="Defines gmx::AbstractOption, gmx::OptionTemplate and gmx::OptionInfo. ">
<polygon fill="white" stroke="black" points="397,-179.5 397,-198.5 558,-198.5 558,-179.5 397,-179.5"/>
<text text-anchor="middle" x="477.5" y="-186.5" font-family="Helvetica,sans-Serif" font-size="10.00">gromacs/options/abstractoption.h</text>
</a>
</g>
</g>
<!-- Node5&#45;&gt;Node6 -->
<g id="edge7" class="edge"><title>Node5&#45;&gt;Node6</title>
<path fill="none" stroke="midnightblue" d="M539.611,-235.324C528.35,-227.107 511.213,-214.602 497.791,-204.807"/>
<polygon fill="midnightblue" stroke="midnightblue" points="499.747,-201.901 489.606,-198.834 495.62,-207.556 499.747,-201.901"/>
</g>
<!-- Node10 -->
<g id="node10" class="node"><title>Node10</title>
<g id="a_node10"><a xlink:href="ivaluestore_8h.xhtml" target="_top" xlink:title="Declares gmx::IOptionValueStore. ">
<polygon fill="white" stroke="black" points="691,-179.5 691,-198.5 838,-198.5 838,-179.5 691,-179.5"/>
<text text-anchor="middle" x="764.5" y="-186.5" font-family="Helvetica,sans-Serif" font-size="10.00">gromacs/options/ivaluestore.h</text>
</a>
</g>
</g>
<!-- Node5&#45;&gt;Node10 -->
<g id="edge14" class="edge"><title>Node5&#45;&gt;Node10</title>
<path fill="none" stroke="midnightblue" d="M585.25,-235.444C622.018,-226.122 680.946,-211.183 721.122,-200.997"/>
<polygon fill="midnightblue" stroke="midnightblue" points="722.074,-204.367 730.907,-198.516 720.354,-197.581 722.074,-204.367"/>
</g>
<!-- Node11 -->
<g id="node11" class="node"><title>Node11</title>
<g id="a_node11"><a xlink:href="arrayref_8h.xhtml" target="_top" xlink:title="Declares gmx::ArrayRef. ">
<polygon fill="white" stroke="black" points="895,-179.5 895,-198.5 1020,-198.5 1020,-179.5 895,-179.5"/>
<text text-anchor="middle" x="957.5" y="-186.5" font-family="Helvetica,sans-Serif" font-size="10.00">gromacs/utility/arrayref.h</text>
</a>
</g>
</g>
<!-- Node5&#45;&gt;Node11 -->
<g id="edge15" class="edge"><title>Node5&#45;&gt;Node11</title>
<path fill="none" stroke="midnightblue" d="M615.832,-235.444C689.016,-225.71 808.258,-209.85 884.765,-199.674"/>
<polygon fill="midnightblue" stroke="midnightblue" points="885.352,-203.127 894.803,-198.339 884.429,-196.188 885.352,-203.127"/>
</g>
<!-- Node17 -->
<g id="node17" class="node"><title>Node17</title>
<g id="a_node17"><a xlink:href="gmxassert_8h.xhtml" target="_top" xlink:title="Defines assert macros customized for Gromacs. ">
<polygon fill="white" stroke="black" points="853,-123.5 853,-142.5 990,-142.5 990,-123.5 853,-123.5"/>
<text text-anchor="middle" x="921.5" y="-130.5" font-family="Helvetica,sans-Serif" font-size="10.00">gromacs/utility/gmxassert.h</text>
</a>
</g>
</g>
<!-- Node5&#45;&gt;Node17 -->
<g id="edge28" class="edge"><title>Node5&#45;&gt;Node17</title>
<path fill="none" stroke="midnightblue" d="M565.366,-235.435C588.546,-221.497 637.015,-193.964 681.5,-179 734.017,-161.334 795.469,-149.977 843.042,-143.091"/>
<polygon fill="midnightblue" stroke="midnightblue" points="843.563,-146.553 852.975,-141.689 842.584,-139.622 843.563,-146.553"/>
</g>
<!-- Node18 -->
<g id="node18" class="node"><title>Node18</title>
<g id="a_node18"><a xlink:href="basedefinitions_8h.xhtml" target="_top" xlink:title="Basic types and macros used throughout GROMACS. ">
<polygon fill="white" stroke="black" points="0,-62 0,-81 157,-81 157,-62 0,-62"/>
<text text-anchor="middle" x="78.5" y="-69" font-family="Helvetica,sans-Serif" font-size="10.00">gromacs/utility/basedefinitions.h</text>
</a>
</g>
</g>
<!-- Node5&#45;&gt;Node18 -->
<g id="edge27" class="edge"><title>Node5&#45;&gt;Node18</title>
<path fill="none" stroke="midnightblue" d="M473.875,-242.864C374.863,-240.105 210.355,-230.726 159.5,-199 118.692,-173.542 94.641,-119.105 84.3834,-90.6606"/>
<polygon fill="midnightblue" stroke="midnightblue" points="87.6754,-89.4703 81.1213,-81.146 81.0538,-91.7406 87.6754,-89.4703"/>
</g>
<!-- Node6&#45;&gt;Node3 -->
<g id="edge8" class="edge"><title>Node6&#45;&gt;Node3</title>
<path fill="none" stroke="midnightblue" d="M401.9,-179.47C345.034,-172.336 265.098,-160.786 187.279,-143.157"/>
<polygon fill="midnightblue" stroke="midnightblue" points="187.839,-139.695 177.308,-140.862 186.268,-146.516 187.839,-139.695"/>
</g>
<!-- Node6&#45;&gt;Node4 -->
<g id="edge9" class="edge"><title>Node6&#45;&gt;Node4</title>
<path fill="none" stroke="midnightblue" d="M488.586,-179.324C498.986,-171.185 514.761,-158.839 527.222,-149.087"/>
<polygon fill="midnightblue" stroke="midnightblue" points="529.494,-151.753 535.212,-142.834 525.18,-146.241 529.494,-151.753"/>
</g>
<!-- Node7 -->
<g id="node7" class="node"><title>Node7</title>
<g id="a_node7"><a xlink:href="optionflags_8h.xhtml" target="_top" xlink:title="Defines flags used in option implementation. ">
<polygon fill="white" stroke="black" points="195,-123.5 195,-142.5 342,-142.5 342,-123.5 195,-123.5"/>
<text text-anchor="middle" x="268.5" y="-130.5" font-family="Helvetica,sans-Serif" font-size="10.00">gromacs/options/optionflags.h</text>
</a>
</g>
</g>
<!-- Node6&#45;&gt;Node7 -->
<g id="edge10" class="edge"><title>Node6&#45;&gt;Node7</title>
<path fill="none" stroke="midnightblue" d="M444.383,-179.444C408.382,-170.142 350.73,-155.246 311.314,-145.062"/>
<polygon fill="midnightblue" stroke="midnightblue" points="312.019,-141.629 301.462,-142.516 310.268,-148.407 312.019,-141.629"/>
</g>
<!-- Node9 -->
<g id="node9" class="node"><title>Node9</title>
<g id="a_node9"><a xlink:href="classhelpers_8h.xhtml" target="_top" xlink:title="Declares common utility classes and macros. ">
<polygon fill="white" stroke="black" points="360.5,-123.5 360.5,-142.5 506.5,-142.5 506.5,-123.5 360.5,-123.5"/>
<text text-anchor="middle" x="433.5" y="-130.5" font-family="Helvetica,sans-Serif" font-size="10.00">gromacs/utility/classhelpers.h</text>
</a>
</g>
</g>
<!-- Node6&#45;&gt;Node9 -->
<g id="edge12" class="edge"><title>Node6&#45;&gt;Node9</title>
<path fill="none" stroke="midnightblue" d="M470.234,-179.083C463.955,-171.377 454.712,-160.033 447.069,-150.653"/>
<polygon fill="midnightblue" stroke="midnightblue" points="449.661,-148.293 440.631,-142.751 444.234,-152.714 449.661,-148.293"/>
</g>
<!-- Node8 -->
<g id="node8" class="node"><title>Node8</title>
<g id="a_node8"><a xlink:href="flags_8h.xhtml" target="_top" xlink:title="Declares gmx::FlagsTemplate. ">
<polygon fill="white" stroke="black" points="212,-62 212,-81 325,-81 325,-62 212,-62"/>
<text text-anchor="middle" x="268.5" y="-69" font-family="Helvetica,sans-Serif" font-size="10.00">gromacs/utility/flags.h</text>
</a>
</g>
</g>
<!-- Node7&#45;&gt;Node8 -->
<g id="edge11" class="edge"><title>Node7&#45;&gt;Node8</title>
<path fill="none" stroke="midnightblue" d="M268.5,-123.475C268.5,-115.08 268.5,-101.981 268.5,-91.1631"/>
<polygon fill="midnightblue" stroke="midnightblue" points="272,-91.0091 268.5,-81.0091 265,-91.0091 272,-91.0091"/>
</g>
<!-- Node9&#45;&gt;Node2 -->
<g id="edge13" class="edge"><title>Node9&#45;&gt;Node2</title>
<path fill="none" stroke="midnightblue" d="M506.798,-123.747C509.736,-123.482 512.645,-123.232 515.5,-123 873.622,-93.9215 1308.56,-77.966 1435.87,-73.6859"/>
<polygon fill="midnightblue" stroke="midnightblue" points="1436.33,-77.1726 1446.2,-73.3413 1436.09,-70.1765 1436.33,-77.1726"/>
</g>
<!-- Node11&#45;&gt;Node4 -->
<g id="edge21" class="edge"><title>Node11&#45;&gt;Node4</title>
<path fill="none" stroke="midnightblue" d="M894.677,-180.626C799.003,-169.389 623.78,-148.774 578.855,-142.511"/>
<polygon fill="midnightblue" stroke="midnightblue" points="579.162,-139.016 568.742,-140.933 578.083,-145.933 579.162,-139.016"/>
</g>
<!-- Node12 -->
<g id="node12" class="node"><title>Node12</title>
<polygon fill="white" stroke="#bfbfbf" points="587,-123.5 587,-142.5 636,-142.5 636,-123.5 587,-123.5"/>
<text text-anchor="middle" x="611.5" y="-130.5" font-family="Helvetica,sans-Serif" font-size="10.00">cstddef</text>
</g>
<!-- Node11&#45;&gt;Node12 -->
<g id="edge16" class="edge"><title>Node11&#45;&gt;Node12</title>
<path fill="none" stroke="midnightblue" d="M894.67,-179.813C822.058,-170.206 705.922,-154.363 646.393,-142.929"/>
<polygon fill="midnightblue" stroke="midnightblue" points="646.795,-139.441 636.304,-140.92 645.428,-146.306 646.795,-139.441"/>
</g>
<!-- Node13 -->
<g id="node13" class="node"><title>Node13</title>
<polygon fill="white" stroke="#bfbfbf" points="654.5,-123.5 654.5,-142.5 692.5,-142.5 692.5,-123.5 654.5,-123.5"/>
<text text-anchor="middle" x="673.5" y="-130.5" font-family="Helvetica,sans-Serif" font-size="10.00">array</text>
</g>
<!-- Node11&#45;&gt;Node13 -->
<g id="edge17" class="edge"><title>Node11&#45;&gt;Node13</title>
<path fill="none" stroke="midnightblue" d="M895.187,-179.488C845.382,-172.129 773.674,-160.296 702.689,-143.021"/>
<polygon fill="midnightblue" stroke="midnightblue" points="703.228,-139.549 692.68,-140.547 701.548,-146.344 703.228,-139.549"/>
</g>
<!-- Node14 -->
<g id="node14" class="node"><title>Node14</title>
<polygon fill="white" stroke="#bfbfbf" points="711,-123.5 711,-142.5 758,-142.5 758,-123.5 711,-123.5"/>
<text text-anchor="middle" x="734.5" y="-130.5" font-family="Helvetica,sans-Serif" font-size="10.00">iterator</text>
</g>
<!-- Node11&#45;&gt;Node14 -->
<g id="edge18" class="edge"><title>Node11&#45;&gt;Node14</title>
<path fill="none" stroke="midnightblue" d="M918.968,-179.431C882.422,-171.19 825.737,-158.118 768.222,-143.373"/>
<polygon fill="midnightblue" stroke="midnightblue" points="768.792,-139.905 758.235,-140.797 767.044,-146.684 768.792,-139.905"/>
</g>
<!-- Node15 -->
<g id="node15" class="node"><title>Node15</title>
<polygon fill="white" stroke="#bfbfbf" points="776,-123.5 776,-142.5 835,-142.5 835,-123.5 776,-123.5"/>
<text text-anchor="middle" x="805.5" y="-130.5" font-family="Helvetica,sans-Serif" font-size="10.00">stdexcept</text>
</g>
<!-- Node11&#45;&gt;Node15 -->
<g id="edge19" class="edge"><title>Node11&#45;&gt;Node15</title>
<path fill="none" stroke="midnightblue" d="M933.415,-179.444C907.955,-170.399 867.606,-156.064 839.041,-145.916"/>
<polygon fill="midnightblue" stroke="midnightblue" points="840.067,-142.566 829.472,-142.516 837.723,-149.162 840.067,-142.566"/>
</g>
<!-- Node16 -->
<g id="node16" class="node"><title>Node16</title>
<polygon fill="white" stroke="#bfbfbf" points="1008.5,-123.5 1008.5,-142.5 1048.5,-142.5 1048.5,-123.5 1008.5,-123.5"/>
<text text-anchor="middle" x="1028.5" y="-130.5" font-family="Helvetica,sans-Serif" font-size="10.00">utility</text>
</g>
<!-- Node11&#45;&gt;Node16 -->
<g id="edge20" class="edge"><title>Node11&#45;&gt;Node16</title>
<path fill="none" stroke="midnightblue" d="M968.907,-179.324C979.609,-171.185 995.841,-158.839 1008.66,-149.087"/>
<polygon fill="midnightblue" stroke="midnightblue" points="1011.04,-151.673 1016.89,-142.834 1006.81,-146.102 1011.04,-151.673"/>
</g>
<!-- Node11&#45;&gt;Node17 -->
<g id="edge22" class="edge"><title>Node11&#45;&gt;Node17</title>
<path fill="none" stroke="midnightblue" d="M951.555,-179.083C946.523,-171.534 939.163,-160.495 932.987,-151.23"/>
<polygon fill="midnightblue" stroke="midnightblue" points="935.793,-149.13 927.334,-142.751 929.969,-153.013 935.793,-149.13"/>
</g>
<!-- Node17&#45;&gt;Node18 -->
<g id="edge23" class="edge"><title>Node17&#45;&gt;Node18</title>
<path fill="none" stroke="midnightblue" d="M852.619,-123.83C849.538,-123.535 846.488,-123.256 843.5,-123 559.204,-98.6362 486.777,-111.581 202.5,-87 187.178,-85.6751 170.823,-83.9706 155.185,-82.1989"/>
<polygon fill="midnightblue" stroke="midnightblue" points="155.365,-78.6966 145.03,-81.0282 154.564,-85.6505 155.365,-78.6966"/>
</g>
<!-- Node21 -->
<g id="node21" class="node"><title>Node21</title>
<g id="a_node21"><a xlink:href="current__function_8h.xhtml" target="_top" xlink:title="Declares GMX_CURRENT_FUNCTION for getting the current function name. ">
<polygon fill="white" stroke="black" points="961,-56.5 961,-86.5 1074,-86.5 1074,-56.5 961,-56.5"/>
<text text-anchor="start" x="969" y="-74.5" font-family="Helvetica,sans-Serif" font-size="10.00">gromacs/utility/current</text>
<text text-anchor="middle" x="1017.5" y="-63.5" font-family="Helvetica,sans-Serif" font-size="10.00">_function.h</text>
</a>
</g>
</g>
<!-- Node17&#45;&gt;Node21 -->
<g id="edge26" class="edge"><title>Node17&#45;&gt;Node21</title>
<path fill="none" stroke="midnightblue" d="M935.254,-123.475C948.499,-115.266 969.003,-102.558 986.224,-91.8845"/>
<polygon fill="midnightblue" stroke="midnightblue" points="988.219,-94.7661 994.875,-86.523 984.531,-88.8162 988.219,-94.7661"/>
</g>
<!-- Node19 -->
<g id="node19" class="node"><title>Node19</title>
<polygon fill="white" stroke="#bfbfbf" points="18,-0.5 18,-19.5 67,-19.5 67,-0.5 18,-0.5"/>
<text text-anchor="middle" x="42.5" y="-7.5" font-family="Helvetica,sans-Serif" font-size="10.00">stdint.h</text>
</g>
<!-- Node18&#45;&gt;Node19 -->
<g id="edge24" class="edge"><title>Node18&#45;&gt;Node19</title>
<path fill="none" stroke="midnightblue" d="M73.3421,-61.9751C68.049,-53.2268 59.6645,-39.3691 52.9729,-28.3093"/>
<polygon fill="midnightblue" stroke="midnightblue" points="55.8196,-26.2531 47.6484,-19.5091 49.8305,-29.8768 55.8196,-26.2531"/>
</g>
<!-- Node20 -->
<g id="node20" class="node"><title>Node20</title>
<polygon fill="white" stroke="#bfbfbf" points="85,-0.5 85,-19.5 144,-19.5 144,-0.5 85,-0.5"/>
<text text-anchor="middle" x="114.5" y="-7.5" font-family="Helvetica,sans-Serif" font-size="10.00">inttypes.h</text>
</g>
<!-- Node18&#45;&gt;Node20 -->
<g id="edge25" class="edge"><title>Node18&#45;&gt;Node20</title>
<path fill="none" stroke="midnightblue" d="M83.6579,-61.9751C88.951,-53.2268 97.3355,-39.3691 104.027,-28.3093"/>
<polygon fill="midnightblue" stroke="midnightblue" points="107.17,-29.8768 109.352,-19.5091 101.18,-26.2531 107.17,-29.8768"/>
</g>
<!-- Node22&#45;&gt;Node2 -->
<g id="edge30" class="edge"><title>Node22&#45;&gt;Node2</title>
<path fill="none" stroke="midnightblue" d="M917.323,-291.473C965.813,-283.965 1035.18,-271.632 1094.5,-255 1186.86,-229.104 1204.66,-206.671 1296.5,-179 1365.05,-158.349 1401.93,-192.654 1453.5,-143 1467.31,-129.699 1471.44,-107.499 1472.5,-91.562"/>
<polygon fill="midnightblue" stroke="midnightblue" points="1476.01,-91.3874 1472.82,-81.2814 1469.01,-91.1652 1476.01,-91.3874"/>
</g>
<!-- Node22&#45;&gt;Node3 -->
<g id="edge31" class="edge"><title>Node22&#45;&gt;Node3</title>
<path fill="none" stroke="midnightblue" d="M758.496,-294.751C663.233,-288.673 514.714,-276.608 387.5,-255 284.628,-237.527 225.761,-279.606 159.5,-199 149.085,-186.33 149.518,-167.124 151.845,-152.871"/>
<polygon fill="midnightblue" stroke="midnightblue" points="155.346,-153.224 153.946,-142.722 148.492,-151.805 155.346,-153.224"/>
</g>
<!-- Node22&#45;&gt;Node4 -->
<g id="edge32" class="edge"><title>Node22&#45;&gt;Node4</title>
<path fill="none" stroke="midnightblue" d="M840.27,-291.309C789.421,-264.08 632.948,-180.292 571.573,-147.426"/>
<polygon fill="midnightblue" stroke="midnightblue" points="573.038,-144.24 562.57,-142.605 569.733,-150.411 573.038,-144.24"/>
</g>
<!-- Node22&#45;&gt;Node6 -->
<g id="edge33" class="edge"><title>Node22&#45;&gt;Node6</title>
<path fill="none" stroke="midnightblue" d="M758.125,-295.425C648.429,-289.293 483.763,-276.601 464.5,-255 453.049,-242.159 459.406,-222.149 466.677,-207.722"/>
<polygon fill="midnightblue" stroke="midnightblue" points="469.847,-209.223 471.649,-198.782 463.729,-205.82 469.847,-209.223"/>
</g>
<!-- Node22&#45;&gt;Node11 -->
<g id="edge43" class="edge"><title>Node22&#45;&gt;Node11</title>
<path fill="none" stroke="midnightblue" d="M882.587,-291.432C900.424,-284.315 923.319,-272.497 937.5,-255 948.293,-241.683 953.277,-222.564 955.569,-208.508"/>
<polygon fill="midnightblue" stroke="midnightblue" points="959.048,-208.9 956.89,-198.528 952.108,-207.982 959.048,-208.9"/>
</g>
<!-- Node22&#45;&gt;Node17 -->
<g id="edge58" class="edge"><title>Node22&#45;&gt;Node17</title>
<path fill="none" stroke="midnightblue" d="M892.995,-291.397C935.395,-279.128 1002.82,-251.97 1028.5,-199 1041.65,-171.882 1009.16,-155.072 976.623,-145.358"/>
<polygon fill="midnightblue" stroke="midnightblue" points="977.144,-141.87 966.572,-142.568 975.271,-148.615 977.144,-141.87"/>
</g>
<!-- Node22&#45;&gt;Node18 -->
<g id="edge44" class="edge"><title>Node22&#45;&gt;Node18</title>
<path fill="none" stroke="midnightblue" d="M758.226,-300.821C600.129,-300.888 297.069,-295.485 198.5,-255 135.944,-229.307 122.854,-204.848 95.5,-143 88.1063,-126.282 83.6311,-105.851 81.1422,-91.2957"/>
<polygon fill="midnightblue" stroke="midnightblue" points="84.5467,-90.4102 79.5542,-81.0654 77.6296,-91.484 84.5467,-90.4102"/>
</g>
<!-- Node23 -->
<g id="node23" class="node"><title>Node23</title>
<g id="a_node23"><a xlink:href="abstractoptionstorage_8h.xhtml" target="_top" xlink:title="Declares gmx::AbstractOptionStorage. ">
<polygon fill="white" stroke="black" points="184.5,-179.5 184.5,-198.5 378.5,-198.5 378.5,-179.5 184.5,-179.5"/>
<text text-anchor="middle" x="281.5" y="-186.5" font-family="Helvetica,sans-Serif" font-size="10.00">gromacs/options/abstractoptionstorage.h</text>
</a>
</g>
</g>
<!-- Node22&#45;&gt;Node23 -->
<g id="edge34" class="edge"><title>Node22&#45;&gt;Node23</title>
<path fill="none" stroke="midnightblue" d="M758.262,-295.806C676.141,-290.687 556.423,-279.45 454.5,-255 401.399,-242.262 342.437,-217.73 308.879,-202.718"/>
<polygon fill="midnightblue" stroke="midnightblue" points="310.267,-199.504 299.714,-198.57 307.381,-205.882 310.267,-199.504"/>
</g>
<!-- Node24 -->
<g id="node24" class="node"><title>Node24</title>
<g id="a_node24"><a xlink:href="valuestore_8h.xhtml" target="_top" xlink:title="Declares implementations for IOptionValueStore. ">
<polygon fill="white" stroke="black" points="784,-235.5 784,-254.5 929,-254.5 929,-235.5 784,-235.5"/>
<text text-anchor="middle" x="856.5" y="-242.5" font-family="Helvetica,sans-Serif" font-size="10.00">gromacs/options/valuestore.h</text>
</a>
</g>
</g>
<!-- Node22&#45;&gt;Node24 -->
<g id="edge39" class="edge"><title>Node22&#45;&gt;Node24</title>
<path fill="none" stroke="midnightblue" d="M856.5,-291.083C856.5,-284.006 856.5,-273.861 856.5,-264.986"/>
<polygon fill="midnightblue" stroke="midnightblue" points="860,-264.751 856.5,-254.751 853,-264.751 860,-264.751"/>
</g>
<!-- Node25 -->
<g id="node25" class="node"><title>Node25</title>
<g id="a_node25"><a xlink:href="exceptions_8h.xhtml" target="_top" xlink:title="Declares common exception classes and macros for fatal error handling. ">
<polygon fill="white" stroke="black" points="1086,-179.5 1086,-198.5 1225,-198.5 1225,-179.5 1086,-179.5"/>
<text text-anchor="middle" x="1155.5" y="-186.5" font-family="Helvetica,sans-Serif" font-size="10.00">gromacs/utility/exceptions.h</text>
</a>
</g>
</g>
<!-- Node22&#45;&gt;Node25 -->
<g id="edge45" class="edge"><title>Node22&#45;&gt;Node25</title>
<path fill="none" stroke="midnightblue" d="M928.263,-291.436C968.878,-284.86 1019.91,-273.64 1062.5,-255 1091.35,-242.376 1120.43,-220.175 1138.2,-205.279"/>
<polygon fill="midnightblue" stroke="midnightblue" points="1140.65,-207.79 1145.97,-198.627 1136.1,-202.473 1140.65,-207.79"/>
</g>
<!-- Node31 -->
<g id="node31" class="node"><title>Node31</title>
<g id="a_node31"><a xlink:href="variant_8h.xhtml" target="_top" xlink:title="Declares gmx::Variant. ">
<polygon fill="white" stroke="black" points="1436,-179.5 1436,-198.5 1557,-198.5 1557,-179.5 1436,-179.5"/>
<text text-anchor="middle" x="1496.5" y="-186.5" font-family="Helvetica,sans-Serif" font-size="10.00">gromacs/utility/variant.h</text>
</a>
</g>
</g>
<!-- Node22&#45;&gt;Node31 -->
<g id="edge59" class="edge"><title>Node22&#45;&gt;Node31</title>
<path fill="none" stroke="midnightblue" d="M954.705,-300.149C1095.39,-299.036 1346.38,-291.739 1428.5,-255 1451.93,-244.519 1472.22,-222.41 1484.39,-206.9"/>
<polygon fill="midnightblue" stroke="midnightblue" points="1487.37,-208.763 1490.59,-198.668 1481.78,-204.555 1487.37,-208.763"/>
</g>
<!-- Node33 -->
<g id="node33" class="node"><title>Node33</title>
<g id="a_node33"><a xlink:href="valueconverter_8h.xhtml" target="_top" xlink:title="Provides gmx::OptionValueConverterSimple. ">
<polygon fill="white" stroke="black" points="1331,-235.5 1331,-254.5 1420,-254.5 1420,-235.5 1331,-235.5"/>
<text text-anchor="middle" x="1375.5" y="-242.5" font-family="Helvetica,sans-Serif" font-size="10.00">valueconverter.h</text>
</a>
</g>
</g>
<!-- Node22&#45;&gt;Node33 -->
<g id="edge67" class="edge"><title>Node22&#45;&gt;Node33</title>
<path fill="none" stroke="midnightblue" d="M939.902,-291.464C1027.47,-282.479 1169.18,-267.88 1291.5,-255 1300.92,-254.008 1310.93,-252.944 1320.64,-251.908"/>
<polygon fill="midnightblue" stroke="midnightblue" points="1321.03,-255.385 1330.6,-250.841 1320.29,-248.425 1321.03,-255.385"/>
</g>
<!-- Node23&#45;&gt;Node3 -->
<g id="edge35" class="edge"><title>Node23&#45;&gt;Node3</title>
<path fill="none" stroke="midnightblue" d="M261.693,-179.444C241.213,-170.596 209.017,-156.687 185.635,-146.586"/>
<polygon fill="midnightblue" stroke="midnightblue" points="186.782,-143.269 176.214,-142.516 184.006,-149.695 186.782,-143.269"/>
</g>
<!-- Node23&#45;&gt;Node4 -->
<g id="edge36" class="edge"><title>Node23&#45;&gt;Node4</title>
<path fill="none" stroke="midnightblue" d="M333.38,-179.443C378.763,-171.638 446.63,-159.196 514.244,-143.133"/>
<polygon fill="midnightblue" stroke="midnightblue" points="515.309,-146.477 524.215,-140.737 513.674,-139.671 515.309,-146.477"/>
</g>
<!-- Node23&#45;&gt;Node7 -->
<g id="edge37" class="edge"><title>Node23&#45;&gt;Node7</title>
<path fill="none" stroke="midnightblue" d="M279.353,-179.083C277.631,-171.927 275.153,-161.635 273,-152.691"/>
<polygon fill="midnightblue" stroke="midnightblue" points="276.35,-151.654 270.607,-142.751 269.545,-153.293 276.35,-151.654"/>
</g>
<!-- Node23&#45;&gt;Node9 -->
<g id="edge38" class="edge"><title>Node23&#45;&gt;Node9</title>
<path fill="none" stroke="midnightblue" d="M305.585,-179.444C331.045,-170.399 371.394,-156.064 399.959,-145.916"/>
<polygon fill="midnightblue" stroke="midnightblue" points="401.277,-149.162 409.528,-142.516 398.933,-142.566 401.277,-149.162"/>
</g>
<!-- Node24&#45;&gt;Node4 -->
<g id="edge40" class="edge"><title>Node24&#45;&gt;Node4</title>
<path fill="none" stroke="midnightblue" d="M858.067,-235.413C860.071,-221.444 861.663,-193.869 846.5,-179 805.456,-138.753 651.89,-153.826 578.91,-142.728"/>
<polygon fill="midnightblue" stroke="midnightblue" points="579.214,-139.227 568.75,-140.892 577.968,-146.115 579.214,-139.227"/>
</g>
<!-- Node24&#45;&gt;Node10 -->
<g id="edge41" class="edge"><title>Node24&#45;&gt;Node10</title>
<path fill="none" stroke="midnightblue" d="M841.719,-235.324C827.233,-226.822 804.927,-213.729 788.007,-203.797"/>
<polygon fill="midnightblue" stroke="midnightblue" points="789.641,-200.698 779.245,-198.655 786.097,-206.735 789.641,-200.698"/>
</g>
<!-- Node24&#45;&gt;Node11 -->
<g id="edge42" class="edge"><title>Node24&#45;&gt;Node11</title>
<path fill="none" stroke="midnightblue" d="M872.727,-235.324C888.851,-226.703 913.8,-213.364 932.464,-203.386"/>
<polygon fill="midnightblue" stroke="midnightblue" points="934.144,-206.456 941.313,-198.655 930.844,-200.283 934.144,-206.456"/>
</g>
<!-- Node25&#45;&gt;Node2 -->
<g id="edge49" class="edge"><title>Node25&#45;&gt;Node2</title>
<path fill="none" stroke="midnightblue" d="M1201.24,-179.499C1237.94,-171.971 1290.42,-159.597 1334.5,-143 1352.73,-136.137 1356.16,-131.87 1373.5,-123 1398.3,-110.315 1426.62,-95.8763 1446.59,-85.696"/>
<polygon fill="midnightblue" stroke="midnightblue" points="1448.36,-88.7254 1455.68,-81.0669 1445.18,-82.4883 1448.36,-88.7254"/>
</g>
<!-- Node25&#45;&gt;Node3 -->
<g id="edge50" class="edge"><title>Node25&#45;&gt;Node3</title>
<path fill="none" stroke="midnightblue" d="M1085.98,-182.72C1067.32,-181.399 1047.15,-180.059 1028.5,-179 657.385,-157.93 556.751,-206.247 187.147,-142.857"/>
<polygon fill="midnightblue" stroke="midnightblue" points="187.702,-139.401 177.251,-141.144 186.508,-146.298 187.702,-139.401"/>
</g>
<!-- Node25&#45;&gt;Node4 -->
<g id="edge53" class="edge"><title>Node25&#45;&gt;Node4</title>
<path fill="none" stroke="midnightblue" d="M1085.96,-182.968C947.287,-172.884 644.615,-150.612 578.816,-142.507"/>
<polygon fill="midnightblue" stroke="midnightblue" points="579.12,-139.015 568.721,-141.042 578.114,-145.942 579.12,-139.015"/>
</g>
<!-- Node25&#45;&gt;Node9 -->
<g id="edge55" class="edge"><title>Node25&#45;&gt;Node9</title>
<path fill="none" stroke="midnightblue" d="M1085.96,-183.063C1067.3,-181.741 1047.13,-180.314 1028.5,-179 803.845,-163.157 744.859,-163.459 517.075,-143.111"/>
<polygon fill="midnightblue" stroke="midnightblue" points="517.076,-139.597 506.803,-142.19 516.451,-146.569 517.076,-139.597"/>
</g>
<!-- Node25&#45;&gt;Node17 -->
<g id="edge57" class="edge"><title>Node25&#45;&gt;Node17</title>
<path fill="none" stroke="midnightblue" d="M1118.42,-179.444C1077.77,-170.063 1012.47,-154.993 968.316,-144.804"/>
<polygon fill="midnightblue" stroke="midnightblue" points="968.935,-141.355 958.405,-142.516 967.361,-148.175 968.935,-141.355"/>
</g>
<!-- Node25&#45;&gt;Node18 -->
<g id="edge54" class="edge"><title>Node25&#45;&gt;Node18</title>
<path fill="none" stroke="midnightblue" d="M1143.44,-179.471C1119.41,-162.55 1067.02,-126.089 1057.5,-123 876.622,-64.2885 392.072,-102.054 202.5,-87 186.575,-85.7354 169.542,-83.9971 153.359,-82.1627"/>
<polygon fill="midnightblue" stroke="midnightblue" points="153.745,-78.6842 143.409,-81.0114 152.941,-85.6378 153.745,-78.6842"/>
</g>
<!-- Node25&#45;&gt;Node21 -->
<g id="edge56" class="edge"><title>Node25&#45;&gt;Node21</title>
<path fill="none" stroke="midnightblue" d="M1147.55,-179.081C1135.73,-166.061 1112.56,-141.402 1090.5,-123 1077.3,-111.986 1061.74,-100.981 1048.38,-92.0691"/>
<polygon fill="midnightblue" stroke="midnightblue" points="1050.25,-89.108 1039.97,-86.5356 1046.4,-94.9559 1050.25,-89.108"/>
</g>
<!-- Node26 -->
<g id="node26" class="node"><title>Node26</title>
<polygon fill="white" stroke="#bfbfbf" points="1143,-123.5 1143,-142.5 1186,-142.5 1186,-123.5 1143,-123.5"/>
<text text-anchor="middle" x="1164.5" y="-130.5" font-family="Helvetica,sans-Serif" font-size="10.00">cstdio</text>
</g>
<!-- Node25&#45;&gt;Node26 -->
<g id="edge46" class="edge"><title>Node25&#45;&gt;Node26</title>
<path fill="none" stroke="midnightblue" d="M1156.99,-179.083C1158.18,-171.927 1159.89,-161.635 1161.38,-152.691"/>
<polygon fill="midnightblue" stroke="midnightblue" points="1164.85,-153.19 1163.04,-142.751 1157.95,-152.04 1164.85,-153.19"/>
</g>
<!-- Node27 -->
<g id="node27" class="node"><title>Node27</title>
<polygon fill="white" stroke="#bfbfbf" points="1204,-123.5 1204,-142.5 1249,-142.5 1249,-123.5 1204,-123.5"/>
<text text-anchor="middle" x="1226.5" y="-130.5" font-family="Helvetica,sans-Serif" font-size="10.00">cstdlib</text>
</g>
<!-- Node25&#45;&gt;Node27 -->
<g id="edge47" class="edge"><title>Node25&#45;&gt;Node27</title>
<path fill="none" stroke="midnightblue" d="M1166.91,-179.324C1177.61,-171.185 1193.84,-158.839 1206.66,-149.087"/>
<polygon fill="midnightblue" stroke="midnightblue" points="1209.04,-151.673 1214.89,-142.834 1204.81,-146.102 1209.04,-151.673"/>
</g>
<!-- Node28 -->
<g id="node28" class="node"><title>Node28</title>
<polygon fill="white" stroke="#bfbfbf" points="1267,-123.5 1267,-142.5 1326,-142.5 1326,-123.5 1267,-123.5"/>
<text text-anchor="middle" x="1296.5" y="-130.5" font-family="Helvetica,sans-Serif" font-size="10.00">exception</text>
</g>
<!-- Node25&#45;&gt;Node28 -->
<g id="edge48" class="edge"><title>Node25&#45;&gt;Node28</title>
<path fill="none" stroke="midnightblue" d="M1177.84,-179.444C1201.25,-170.478 1238.24,-156.314 1264.69,-146.183"/>
<polygon fill="midnightblue" stroke="midnightblue" points="1266.18,-149.361 1274.26,-142.516 1263.67,-142.824 1266.18,-149.361"/>
</g>
<!-- Node29 -->
<g id="node29" class="node"><title>Node29</title>
<polygon fill="white" stroke="#bfbfbf" points="1382.5,-123.5 1382.5,-142.5 1444.5,-142.5 1444.5,-123.5 1382.5,-123.5"/>
<text text-anchor="middle" x="1413.5" y="-130.5" font-family="Helvetica,sans-Serif" font-size="10.00">type_traits</text>
</g>
<!-- Node25&#45;&gt;Node29 -->
<g id="edge51" class="edge"><title>Node25&#45;&gt;Node29</title>
<path fill="none" stroke="midnightblue" d="M1196.38,-179.444C1244.53,-169.365 1324.06,-152.719 1372.34,-142.615"/>
<polygon fill="midnightblue" stroke="midnightblue" points="1373.07,-146.038 1382.14,-140.563 1371.64,-139.186 1373.07,-146.038"/>
</g>
<!-- Node30 -->
<g id="node30" class="node"><title>Node30</title>
<polygon fill="white" stroke="#bfbfbf" points="1608,-123.5 1608,-142.5 1667,-142.5 1667,-123.5 1608,-123.5"/>
<text text-anchor="middle" x="1637.5" y="-130.5" font-family="Helvetica,sans-Serif" font-size="10.00">typeindex</text>
</g>
<!-- Node25&#45;&gt;Node30 -->
<g id="edge52" class="edge"><title>Node25&#45;&gt;Node30</title>
<path fill="none" stroke="midnightblue" d="M1225.3,-183.631C1310.83,-177.667 1460.3,-165.278 1597.88,-142.896"/>
<polygon fill="midnightblue" stroke="midnightblue" points="1598.47,-146.346 1607.77,-141.267 1597.33,-139.439 1598.47,-146.346"/>
</g>
<!-- Node31&#45;&gt;Node2 -->
<g id="edge60" class="edge"><title>Node31&#45;&gt;Node2</title>
<path fill="none" stroke="midnightblue" d="M1495.47,-179.108C1493.93,-166.533 1490.77,-142.87 1486.5,-123 1484.17,-112.142 1480.88,-100.158 1478.07,-90.5893"/>
<polygon fill="midnightblue" stroke="midnightblue" points="1481.42,-89.5697 1475.19,-81.0018 1474.72,-91.5862 1481.42,-89.5697"/>
</g>
<!-- Node31&#45;&gt;Node3 -->
<g id="edge61" class="edge"><title>Node31&#45;&gt;Node3</title>
<path fill="none" stroke="midnightblue" d="M1435.83,-179.827C1432.68,-179.519 1429.55,-179.24 1426.5,-179 1154.68,-157.636 473.852,-187.588 187.272,-142.804"/>
<polygon fill="midnightblue" stroke="midnightblue" points="187.676,-139.324 177.245,-141.179 186.557,-146.234 187.676,-139.324"/>
</g>
<!-- Node31&#45;&gt;Node16 -->
<g id="edge65" class="edge"><title>Node31&#45;&gt;Node16</title>
<path fill="none" stroke="midnightblue" d="M1435.8,-180.138C1432.66,-179.749 1429.54,-179.367 1426.5,-179 1289.5,-162.449 1125.73,-144.516 1059.02,-137.29"/>
<polygon fill="midnightblue" stroke="midnightblue" points="1059.13,-133.781 1048.81,-136.185 1058.37,-140.741 1059.13,-133.781"/>
</g>
<!-- Node31&#45;&gt;Node17 -->
<g id="edge66" class="edge"><title>Node31&#45;&gt;Node17</title>
<path fill="none" stroke="midnightblue" d="M1435.81,-180.032C1432.66,-179.671 1429.55,-179.324 1426.5,-179 1240.35,-159.196 1190.69,-161.819 1000.44,-143.063"/>
<polygon fill="midnightblue" stroke="midnightblue" points="1000.69,-139.57 990.391,-142.065 999.996,-146.536 1000.69,-139.57"/>
</g>
<!-- Node31&#45;&gt;Node29 -->
<g id="edge62" class="edge"><title>Node31&#45;&gt;Node29</title>
<path fill="none" stroke="midnightblue" d="M1483.16,-179.324C1470.34,-170.979 1450.72,-158.212 1435.56,-148.352"/>
<polygon fill="midnightblue" stroke="midnightblue" points="1437.09,-145.174 1426.8,-142.655 1433.28,-151.042 1437.09,-145.174"/>
</g>
<!-- Node31&#45;&gt;Node30 -->
<g id="edge63" class="edge"><title>Node31&#45;&gt;Node30</title>
<path fill="none" stroke="midnightblue" d="M1518.84,-179.444C1542.25,-170.478 1579.24,-156.314 1605.69,-146.183"/>
<polygon fill="midnightblue" stroke="midnightblue" points="1607.18,-149.361 1615.26,-142.516 1604.67,-142.824 1607.18,-149.361"/>
</g>
<!-- Node32 -->
<g id="node32" class="node"><title>Node32</title>
<polygon fill="white" stroke="#bfbfbf" points="1539,-123.5 1539,-142.5 1590,-142.5 1590,-123.5 1539,-123.5"/>
<text text-anchor="middle" x="1564.5" y="-130.5" font-family="Helvetica,sans-Serif" font-size="10.00">typeinfo</text>
</g>
<!-- Node31&#45;&gt;Node32 -->
<g id="edge64" class="edge"><title>Node31&#45;&gt;Node32</title>
<path fill="none" stroke="midnightblue" d="M1507.43,-179.324C1517.67,-171.185 1533.22,-158.839 1545.5,-149.087"/>
<polygon fill="midnightblue" stroke="midnightblue" points="1547.72,-151.794 1553.38,-142.834 1543.37,-146.312 1547.72,-151.794"/>
</g>
<!-- Node33&#45;&gt;Node25 -->
<g id="edge71" class="edge"><title>Node33&#45;&gt;Node25</title>
<path fill="none" stroke="midnightblue" d="M1340.64,-235.444C1302.58,-226.102 1241.54,-211.119 1200.04,-200.933"/>
<polygon fill="midnightblue" stroke="midnightblue" points="1200.74,-197.501 1190.2,-198.516 1199.07,-204.299 1200.74,-197.501"/>
</g>
<!-- Node33&#45;&gt;Node30 -->
<g id="edge70" class="edge"><title>Node33&#45;&gt;Node30</title>
<path fill="none" stroke="midnightblue" d="M1420.33,-239.767C1460.3,-234.548 1519.43,-223.188 1565.5,-199 1588.68,-186.829 1610.27,-165.464 1623.64,-150.564"/>
<polygon fill="midnightblue" stroke="midnightblue" points="1626.59,-152.499 1630.51,-142.656 1621.31,-147.906 1626.59,-152.499"/>
</g>
<!-- Node33&#45;&gt;Node31 -->
<g id="edge72" class="edge"><title>Node33&#45;&gt;Node31</title>
<path fill="none" stroke="midnightblue" d="M1394.67,-235.444C1414.41,-226.636 1445.39,-212.812 1467.99,-202.722"/>
<polygon fill="midnightblue" stroke="midnightblue" points="1469.71,-205.788 1477.42,-198.516 1466.86,-199.396 1469.71,-205.788"/>
</g>
<!-- Node34 -->
<g id="node34" class="node"><title>Node34</title>
<polygon fill="white" stroke="#bfbfbf" points="1306,-179.5 1306,-198.5 1365,-198.5 1365,-179.5 1306,-179.5"/>
<text text-anchor="middle" x="1335.5" y="-186.5" font-family="Helvetica,sans-Serif" font-size="10.00">functional</text>
</g>
<!-- Node33&#45;&gt;Node34 -->
<g id="edge68" class="edge"><title>Node33&#45;&gt;Node34</title>
<path fill="none" stroke="midnightblue" d="M1368.89,-235.083C1363.24,-227.455 1354.96,-216.264 1348.05,-206.941"/>
<polygon fill="midnightblue" stroke="midnightblue" points="1350.75,-204.703 1341.98,-198.751 1345.12,-208.87 1350.75,-204.703"/>
</g>
<!-- Node35 -->
<g id="node35" class="node"><title>Node35</title>
<polygon fill="white" stroke="#bfbfbf" points="1383,-179.5 1383,-198.5 1418,-198.5 1418,-179.5 1383,-179.5"/>
<text text-anchor="middle" x="1400.5" y="-186.5" font-family="Helvetica,sans-Serif" font-size="10.00">map</text>
</g>
<!-- Node33&#45;&gt;Node35 -->
<g id="edge69" class="edge"><title>Node33&#45;&gt;Node35</title>
<path fill="none" stroke="midnightblue" d="M1379.63,-235.083C1383.01,-227.77 1387.92,-217.181 1392.12,-208.103"/>
<polygon fill="midnightblue" stroke="midnightblue" points="1395.42,-209.296 1396.45,-198.751 1389.07,-206.355 1395.42,-209.296"/>
</g>
</g>
</svg>
