<?xml version="1.0" encoding="UTF-8" standalone="no"?>
<!DOCTYPE svg PUBLIC "-//W3C//DTD SVG 1.1//EN"
 "http://www.w3.org/Graphics/SVG/1.1/DTD/svg11.dtd">
<!-- Generated by graphviz version 2.38.0 (20140413.2041)
 -->
<!-- Title: src/gromacs/awh/bias.h Pages: 1 -->
<svg width="1237pt" height="386pt"
 viewBox="0.00 0.00 1237.22 386.00" xmlns="http://www.w3.org/2000/svg" xmlns:xlink="http://www.w3.org/1999/xlink">
<g id="graph0" class="graph" transform="scale(1 1) rotate(0) translate(4 382)">
<title>src/gromacs/awh/bias.h</title>
<polygon fill="white" stroke="none" points="-4,4 -4,-382 1233.22,-382 1233.22,4 -4,4"/>
<!-- Node1 -->
<g id="node1" class="node"><title>Node1</title>
<polygon fill="#bfbfbf" stroke="black" points="438.225,-358.5 438.225,-377.5 559.225,-377.5 559.225,-358.5 438.225,-358.5"/>
<text text-anchor="middle" x="498.725" y="-365.5" font-family="Helvetica,sans-Serif" font-size="10.00">src/gromacs/awh/bias.h</text>
</g>
<!-- Node2 -->
<g id="node2" class="node"><title>Node2</title>
<polygon fill="white" stroke="#bfbfbf" points="133.725,-123.5 133.725,-142.5 185.725,-142.5 185.725,-123.5 133.725,-123.5"/>
<text text-anchor="middle" x="159.725" y="-130.5" font-family="Helvetica,sans-Serif" font-size="10.00">memory</text>
</g>
<!-- Node1&#45;&gt;Node2 -->
<g id="edge1" class="edge"><title>Node1&#45;&gt;Node2</title>
<path fill="none" stroke="midnightblue" d="M438.004,-366.367C335.281,-364.357 132.361,-356.056 70.7246,-322 11.3982,-289.22 -22.3147,-233.69 17.7246,-179 41.7102,-146.238 89.688,-136.736 123.206,-134.286"/>
<polygon fill="midnightblue" stroke="midnightblue" points="123.74,-137.762 133.532,-133.718 123.355,-130.772 123.74,-137.762"/>
</g>
<!-- Node3 -->
<g id="node3" class="node"><title>Node3</title>
<polygon fill="white" stroke="#bfbfbf" points="856.725,-123.5 856.725,-142.5 900.725,-142.5 900.725,-123.5 856.725,-123.5"/>
<text text-anchor="middle" x="878.725" y="-130.5" font-family="Helvetica,sans-Serif" font-size="10.00">vector</text>
</g>
<!-- Node1&#45;&gt;Node3 -->
<g id="edge2" class="edge"><title>Node1&#45;&gt;Node3</title>
<path fill="none" stroke="midnightblue" d="M559.23,-361.203C668.914,-349.482 894.375,-319.426 949.725,-266 978.135,-238.578 988.408,-212.635 967.725,-179 961.098,-168.224 933.039,-155.088 910.174,-145.798"/>
<polygon fill="midnightblue" stroke="midnightblue" points="911.356,-142.502 900.77,-142.07 908.776,-149.009 911.356,-142.502"/>
</g>
<!-- Node4 -->
<g id="node4" class="node"><title>Node4</title>
<g id="a_node4"><a xlink:href="make__unique_8h.xhtml" target="_top" xlink:title="Provides template gmx::compat::make_unique. ">
<polygon fill="white" stroke="black" points="133.725,-179.5 133.725,-209.5 249.725,-209.5 249.725,-179.5 133.725,-179.5"/>
<text text-anchor="start" x="141.725" y="-197.5" font-family="Helvetica,sans-Serif" font-size="10.00">gromacs/compat/make</text>
<text text-anchor="middle" x="191.725" y="-186.5" font-family="Helvetica,sans-Serif" font-size="10.00">_unique.h</text>
</a>
</g>
</g>
<!-- Node1&#45;&gt;Node4 -->
<g id="edge3" class="edge"><title>Node1&#45;&gt;Node4</title>
<path fill="none" stroke="midnightblue" d="M474.055,-358.48C431.54,-343.241 342.509,-308.863 274.725,-266 252.066,-251.672 229.044,-231.587 213.013,-216.518"/>
<polygon fill="midnightblue" stroke="midnightblue" points="215.387,-213.946 205.737,-209.571 210.553,-219.008 215.387,-213.946"/>
</g>
<!-- Node8 -->
<g id="node8" class="node"><title>Node8</title>
<g id="a_node8"><a xlink:href="alignedallocator_8h.xhtml" target="_top" xlink:title="Declares allocation policy classes and allocators that are used to make library containers compatible...">
<polygon fill="white" stroke="black" points="284.225,-246.5 284.225,-265.5 443.225,-265.5 443.225,-246.5 284.225,-246.5"/>
<text text-anchor="middle" x="363.725" y="-253.5" font-family="Helvetica,sans-Serif" font-size="10.00">gromacs/utility/alignedallocator.h</text>
</a>
</g>
</g>
<!-- Node1&#45;&gt;Node8 -->
<g id="edge8" class="edge"><title>Node1&#45;&gt;Node8</title>
<path fill="none" stroke="midnightblue" d="M488.131,-358.368C465.261,-339.733 411.014,-295.532 382.298,-272.134"/>
<polygon fill="midnightblue" stroke="midnightblue" points="384.232,-269.195 374.269,-265.591 379.81,-274.622 384.232,-269.195"/>
</g>
<!-- Node11 -->
<g id="node11" class="node"><title>Node11</title>
<g id="a_node11"><a xlink:href="basedefinitions_8h.xhtml" target="_top" xlink:title="Basic types and macros used throughout GROMACS. ">
<polygon fill="white" stroke="black" points="455.225,-62 455.225,-81 612.225,-81 612.225,-62 455.225,-62"/>
<text text-anchor="middle" x="533.725" y="-69" font-family="Helvetica,sans-Serif" font-size="10.00">gromacs/utility/basedefinitions.h</text>
</a>
</g>
</g>
<!-- Node1&#45;&gt;Node11 -->
<g id="edge17" class="edge"><title>Node1&#45;&gt;Node11</title>
<path fill="none" stroke="midnightblue" d="M438.18,-362.641C327.94,-353.029 105.725,-325.194 105.725,-257 105.725,-257 105.725,-257 105.725,-193.5 105.725,-161.049 100.225,-144.281 124.725,-123 171.099,-82.7186 339.272,-73.7544 444.987,-72.2183"/>
<polygon fill="midnightblue" stroke="midnightblue" points="445.062,-75.7177 455.017,-72.092 444.973,-68.7183 445.062,-75.7177"/>
</g>
<!-- Node14 -->
<g id="node14" class="node"><title>Node14</title>
<g id="a_node14"><a xlink:href="gmxassert_8h.xhtml" target="_top" xlink:title="Defines assert macros customized for Gromacs. ">
<polygon fill="white" stroke="black" points="1092.22,-123.5 1092.22,-142.5 1229.22,-142.5 1229.22,-123.5 1092.22,-123.5"/>
<text text-anchor="middle" x="1160.72" y="-130.5" font-family="Helvetica,sans-Serif" font-size="10.00">gromacs/utility/gmxassert.h</text>
</a>
</g>
</g>
<!-- Node1&#45;&gt;Node14 -->
<g id="edge18" class="edge"><title>Node1&#45;&gt;Node14</title>
<path fill="none" stroke="midnightblue" d="M559.403,-365.349C679.1,-361.518 941.423,-350.111 1026.72,-322 1099.8,-297.919 1133.86,-282.809 1158.72,-210 1165.11,-191.305 1164.71,-168.492 1163.28,-152.766"/>
<polygon fill="midnightblue" stroke="midnightblue" points="1166.75,-152.268 1162.14,-142.728 1159.79,-153.06 1166.75,-152.268"/>
</g>
<!-- Node16 -->
<g id="node16" class="node"><title>Node16</title>
<g id="a_node16"><a xlink:href="biasparams_8h.xhtml" target="_top" xlink:title="Declares the BiasParams class. ">
<polygon fill="white" stroke="black" points="461.225,-246.5 461.225,-265.5 536.225,-265.5 536.225,-246.5 461.225,-246.5"/>
<text text-anchor="middle" x="498.725" y="-253.5" font-family="Helvetica,sans-Serif" font-size="10.00">biasparams.h</text>
</a>
</g>
</g>
<!-- Node1&#45;&gt;Node16 -->
<g id="edge21" class="edge"><title>Node1&#45;&gt;Node16</title>
<path fill="none" stroke="midnightblue" d="M498.725,-358.368C498.725,-340.617 498.725,-299.666 498.725,-275.597"/>
<polygon fill="midnightblue" stroke="midnightblue" points="502.225,-275.591 498.725,-265.591 495.225,-275.591 502.225,-275.591"/>
</g>
<!-- Node17 -->
<g id="node17" class="node"><title>Node17</title>
<g id="a_node17"><a xlink:href="dimparams_8h.xhtml" target="_top" xlink:title="Declares the DimParams struct and AWH vector types. ">
<polygon fill="white" stroke="black" points="528.225,-185 528.225,-204 601.225,-204 601.225,-185 528.225,-185"/>
<text text-anchor="middle" x="564.725" y="-192" font-family="Helvetica,sans-Serif" font-size="10.00">dimparams.h</text>
</a>
</g>
</g>
<!-- Node1&#45;&gt;Node17 -->
<g id="edge55" class="edge"><title>Node1&#45;&gt;Node17</title>
<path fill="none" stroke="midnightblue" d="M503.245,-358.271C512.067,-340.998 531.841,-301.089 544.725,-266 551.022,-248.849 556.548,-228.755 560.186,-214.417"/>
<polygon fill="midnightblue" stroke="midnightblue" points="563.68,-214.865 562.678,-204.318 556.884,-213.188 563.68,-214.865"/>
</g>
<!-- Node18 -->
<g id="node18" class="node"><title>Node18</title>
<g id="a_node18"><a xlink:href="biasstate_8h.xhtml" target="_top" xlink:title="Declares the BiasState class. ">
<polygon fill="white" stroke="black" points="678.225,-302.5 678.225,-321.5 743.225,-321.5 743.225,-302.5 678.225,-302.5"/>
<text text-anchor="middle" x="710.725" y="-309.5" font-family="Helvetica,sans-Serif" font-size="10.00">biasstate.h</text>
</a>
</g>
</g>
<!-- Node1&#45;&gt;Node18 -->
<g id="edge27" class="edge"><title>Node1&#45;&gt;Node18</title>
<path fill="none" stroke="midnightblue" d="M532.317,-358.444C569.127,-349.067 628.253,-334.007 668.254,-323.818"/>
<polygon fill="midnightblue" stroke="midnightblue" points="669.16,-327.199 677.986,-321.339 667.432,-320.416 669.16,-327.199"/>
</g>
<!-- Node26 -->
<g id="node26" class="node"><title>Node26</title>
<g id="a_node26"><a xlink:href="biaswriter_8h.xhtml" target="_top" xlink:title="This file contains the BiasWriter class that prepares and writes data of a Bias to an energy file...">
<polygon fill="white" stroke="black" points="1016.22,-246.5 1016.22,-265.5 1083.22,-265.5 1083.22,-246.5 1016.22,-246.5"/>
<text text-anchor="middle" x="1049.72" y="-253.5" font-family="Helvetica,sans-Serif" font-size="10.00">biaswriter.h</text>
</a>
</g>
</g>
<!-- Node1&#45;&gt;Node26 -->
<g id="edge50" class="edge"><title>Node1&#45;&gt;Node26</title>
<path fill="none" stroke="midnightblue" d="M559.446,-367.69C676.304,-368.034 927.489,-363.717 1001.72,-322 1020.58,-311.402 1034.14,-289.984 1041.94,-274.628"/>
<polygon fill="midnightblue" stroke="midnightblue" points="1045.1,-276.122 1046.23,-265.587 1038.78,-273.121 1045.1,-276.122"/>
</g>
<!-- Node28 -->
<g id="node28" class="node"><title>Node28</title>
<g id="a_node28"><a xlink:href="grid_8h.xhtml" target="_top" xlink:title="This file contains datatypes and function declarations necessary for AWH to interface with the grid c...">
<polygon fill="white" stroke="black" points="36.2246,-246.5 36.2246,-265.5 77.2246,-265.5 77.2246,-246.5 36.2246,-246.5"/>
<text text-anchor="middle" x="56.7246" y="-253.5" font-family="Helvetica,sans-Serif" font-size="10.00">grid.h</text>
</a>
</g>
</g>
<!-- Node1&#45;&gt;Node28 -->
<g id="edge56" class="edge"><title>Node1&#45;&gt;Node28</title>
<path fill="none" stroke="midnightblue" d="M437.97,-367.057C338.597,-366.05 146.828,-359.173 91.7246,-322 75.822,-311.272 66.5507,-290.87 61.5925,-275.773"/>
<polygon fill="midnightblue" stroke="midnightblue" points="64.8802,-274.545 58.7113,-265.932 58.1622,-276.512 64.8802,-274.545"/>
</g>
<!-- Node4&#45;&gt;Node2 -->
<g id="edge5" class="edge"><title>Node4&#45;&gt;Node2</title>
<path fill="none" stroke="midnightblue" d="M184.141,-179.399C179.683,-171.11 174.006,-160.554 169.248,-151.708"/>
<polygon fill="midnightblue" stroke="midnightblue" points="172.2,-149.807 164.381,-142.658 166.035,-153.123 172.2,-149.807"/>
</g>
<!-- Node5 -->
<g id="node5" class="node"><title>Node5</title>
<polygon fill="white" stroke="#bfbfbf" points="437.225,-123.5 437.225,-142.5 486.225,-142.5 486.225,-123.5 437.225,-123.5"/>
<text text-anchor="middle" x="461.725" y="-130.5" font-family="Helvetica,sans-Serif" font-size="10.00">cstddef</text>
</g>
<!-- Node4&#45;&gt;Node5 -->
<g id="edge4" class="edge"><title>Node4&#45;&gt;Node5</title>
<path fill="none" stroke="midnightblue" d="M249.978,-180.663C304.055,-168.746 382.734,-151.407 427.391,-141.566"/>
<polygon fill="midnightblue" stroke="midnightblue" points="428.167,-144.979 437.179,-139.409 426.66,-138.143 428.167,-144.979"/>
</g>
<!-- Node6 -->
<g id="node6" class="node"><title>Node6</title>
<polygon fill="white" stroke="#bfbfbf" points="203.725,-123.5 203.725,-142.5 265.725,-142.5 265.725,-123.5 203.725,-123.5"/>
<text text-anchor="middle" x="234.725" y="-130.5" font-family="Helvetica,sans-Serif" font-size="10.00">type_traits</text>
</g>
<!-- Node4&#45;&gt;Node6 -->
<g id="edge6" class="edge"><title>Node4&#45;&gt;Node6</title>
<path fill="none" stroke="midnightblue" d="M201.915,-179.399C208.099,-170.842 216.028,-159.871 222.542,-150.857"/>
<polygon fill="midnightblue" stroke="midnightblue" points="225.447,-152.813 228.468,-142.658 219.774,-148.713 225.447,-152.813"/>
</g>
<!-- Node7 -->
<g id="node7" class="node"><title>Node7</title>
<polygon fill="white" stroke="#bfbfbf" points="561.725,-123.5 561.725,-142.5 601.725,-142.5 601.725,-123.5 561.725,-123.5"/>
<text text-anchor="middle" x="581.725" y="-130.5" font-family="Helvetica,sans-Serif" font-size="10.00">utility</text>
</g>
<!-- Node4&#45;&gt;Node7 -->
<g id="edge7" class="edge"><title>Node4&#45;&gt;Node7</title>
<path fill="none" stroke="midnightblue" d="M250.112,-184.592C334.451,-171.725 487.31,-148.404 551.772,-138.57"/>
<polygon fill="midnightblue" stroke="midnightblue" points="552.331,-142.025 561.689,-137.057 551.275,-135.105 552.331,-142.025"/>
</g>
<!-- Node8&#45;&gt;Node5 -->
<g id="edge9" class="edge"><title>Node8&#45;&gt;Node5</title>
<path fill="none" stroke="midnightblue" d="M389.459,-246.499C406.994,-239.413 429.369,-227.605 442.725,-210 455.281,-193.449 459.617,-169.591 461.073,-153.039"/>
<polygon fill="midnightblue" stroke="midnightblue" points="464.574,-153.12 461.686,-142.926 457.587,-152.696 464.574,-153.12"/>
</g>
<!-- Node9 -->
<g id="node9" class="node"><title>Node9</title>
<g id="a_node9"><a xlink:href="allocator_8h.xhtml" target="_top" xlink:title="Declares gmx::Allocator template whose allocation functionality is configured both by type of object ...">
<polygon fill="white" stroke="black" points="305.725,-185 305.725,-204 433.725,-204 433.725,-185 305.725,-185"/>
<text text-anchor="middle" x="369.725" y="-192" font-family="Helvetica,sans-Serif" font-size="10.00">gromacs/utility/allocator.h</text>
</a>
</g>
</g>
<!-- Node8&#45;&gt;Node9 -->
<g id="edge10" class="edge"><title>Node8&#45;&gt;Node9</title>
<path fill="none" stroke="midnightblue" d="M364.584,-246.475C365.431,-238.08 366.752,-224.981 367.843,-214.163"/>
<polygon fill="midnightblue" stroke="midnightblue" points="371.345,-214.31 368.867,-204.009 364.381,-213.607 371.345,-214.31"/>
</g>
<!-- Node9&#45;&gt;Node2 -->
<g id="edge12" class="edge"><title>Node9&#45;&gt;Node2</title>
<path fill="none" stroke="midnightblue" d="M339.637,-184.975C301.58,-174.192 236.128,-155.648 195.537,-144.147"/>
<polygon fill="midnightblue" stroke="midnightblue" points="196.36,-140.742 185.784,-141.384 194.451,-147.477 196.36,-140.742"/>
</g>
<!-- Node9&#45;&gt;Node5 -->
<g id="edge11" class="edge"><title>Node9&#45;&gt;Node5</title>
<path fill="none" stroke="midnightblue" d="M382.906,-184.975C397.799,-175.343 422.269,-159.517 439.998,-148.052"/>
<polygon fill="midnightblue" stroke="midnightblue" points="442.071,-150.879 448.568,-142.509 438.27,-145.001 442.071,-150.879"/>
</g>
<!-- Node10 -->
<g id="node10" class="node"><title>Node10</title>
<polygon fill="white" stroke="#bfbfbf" points="345.225,-123.5 345.225,-142.5 380.225,-142.5 380.225,-123.5 345.225,-123.5"/>
<text text-anchor="middle" x="362.725" y="-130.5" font-family="Helvetica,sans-Serif" font-size="10.00">new</text>
</g>
<!-- Node9&#45;&gt;Node10 -->
<g id="edge13" class="edge"><title>Node9&#45;&gt;Node10</title>
<path fill="none" stroke="midnightblue" d="M368.722,-184.975C367.734,-176.58 366.193,-163.481 364.92,-152.663"/>
<polygon fill="midnightblue" stroke="midnightblue" points="368.37,-152.032 363.726,-142.509 361.418,-152.85 368.37,-152.032"/>
</g>
<!-- Node9&#45;&gt;Node11 -->
<g id="edge14" class="edge"><title>Node9&#45;&gt;Node11</title>
<path fill="none" stroke="midnightblue" d="M375.153,-184.642C384.405,-170.145 404.499,-141.156 427.725,-123 449.033,-106.343 476.727,-93.3871 498.464,-84.7701"/>
<polygon fill="midnightblue" stroke="midnightblue" points="499.903,-87.9666 507.988,-81.1185 497.397,-81.4306 499.903,-87.9666"/>
</g>
<!-- Node12 -->
<g id="node12" class="node"><title>Node12</title>
<polygon fill="white" stroke="#bfbfbf" points="473.225,-0.5 473.225,-19.5 522.225,-19.5 522.225,-0.5 473.225,-0.5"/>
<text text-anchor="middle" x="497.725" y="-7.5" font-family="Helvetica,sans-Serif" font-size="10.00">stdint.h</text>
</g>
<!-- Node11&#45;&gt;Node12 -->
<g id="edge15" class="edge"><title>Node11&#45;&gt;Node12</title>
<path fill="none" stroke="midnightblue" d="M528.567,-61.9751C523.274,-53.2268 514.889,-39.3691 508.197,-28.3093"/>
<polygon fill="midnightblue" stroke="midnightblue" points="511.044,-26.2531 502.873,-19.5091 505.055,-29.8768 511.044,-26.2531"/>
</g>
<!-- Node13 -->
<g id="node13" class="node"><title>Node13</title>
<polygon fill="white" stroke="#bfbfbf" points="540.225,-0.5 540.225,-19.5 599.225,-19.5 599.225,-0.5 540.225,-0.5"/>
<text text-anchor="middle" x="569.725" y="-7.5" font-family="Helvetica,sans-Serif" font-size="10.00">inttypes.h</text>
</g>
<!-- Node11&#45;&gt;Node13 -->
<g id="edge16" class="edge"><title>Node11&#45;&gt;Node13</title>
<path fill="none" stroke="midnightblue" d="M538.883,-61.9751C544.176,-53.2268 552.56,-39.3691 559.252,-28.3093"/>
<polygon fill="midnightblue" stroke="midnightblue" points="562.394,-29.8768 564.576,-19.5091 556.405,-26.2531 562.394,-29.8768"/>
</g>
<!-- Node14&#45;&gt;Node11 -->
<g id="edge19" class="edge"><title>Node14&#45;&gt;Node11</title>
<path fill="none" stroke="midnightblue" d="M1091.89,-124.453C1087.1,-123.953 1082.34,-123.464 1077.72,-123 917.503,-106.877 730.538,-89.929 622.768,-80.3409"/>
<polygon fill="midnightblue" stroke="midnightblue" points="622.86,-76.8353 612.589,-79.4362 622.24,-83.8079 622.86,-76.8353"/>
</g>
<!-- Node15 -->
<g id="node15" class="node"><title>Node15</title>
<g id="a_node15"><a xlink:href="current__function_8h.xhtml" target="_top" xlink:title="Declares GMX_CURRENT_FUNCTION for getting the current function name. ">
<polygon fill="white" stroke="black" points="1104.22,-56.5 1104.22,-86.5 1217.22,-86.5 1217.22,-56.5 1104.22,-56.5"/>
<text text-anchor="start" x="1112.22" y="-74.5" font-family="Helvetica,sans-Serif" font-size="10.00">gromacs/utility/current</text>
<text text-anchor="middle" x="1160.72" y="-63.5" font-family="Helvetica,sans-Serif" font-size="10.00">_function.h</text>
</a>
</g>
</g>
<!-- Node14&#45;&gt;Node15 -->
<g id="edge20" class="edge"><title>Node14&#45;&gt;Node15</title>
<path fill="none" stroke="midnightblue" d="M1160.72,-123.475C1160.72,-116.471 1160.72,-106.192 1160.72,-96.6956"/>
<polygon fill="midnightblue" stroke="midnightblue" points="1164.22,-96.5229 1160.72,-86.523 1157.22,-96.523 1164.22,-96.5229"/>
</g>
<!-- Node16&#45;&gt;Node3 -->
<g id="edge22" class="edge"><title>Node16&#45;&gt;Node3</title>
<path fill="none" stroke="midnightblue" d="M498.129,-246.332C497.554,-230.302 498.883,-196.103 518.725,-179 572.096,-132.996 759.301,-155.067 846.354,-142.482"/>
<polygon fill="midnightblue" stroke="midnightblue" points="847.184,-145.891 856.458,-140.769 846.013,-138.99 847.184,-145.891"/>
</g>
<!-- Node16&#45;&gt;Node11 -->
<g id="edge23" class="edge"><title>Node16&#45;&gt;Node11</title>
<path fill="none" stroke="midnightblue" d="M460.861,-247.186C403.094,-235.179 299.316,-213.232 296.725,-210 288.106,-199.25 292.598,-192.145 296.725,-179 305.808,-150.062 310.797,-140.278 335.725,-123 367.706,-100.833 408.631,-88.3908 444.964,-81.4092"/>
<polygon fill="midnightblue" stroke="midnightblue" points="445.861,-84.8039 455.079,-79.5813 444.616,-77.9155 445.861,-84.8039"/>
</g>
<!-- Node16&#45;&gt;Node17 -->
<g id="edge24" class="edge"><title>Node16&#45;&gt;Node17</title>
<path fill="none" stroke="midnightblue" d="M508.181,-246.475C518.473,-237.197 535.14,-222.171 547.719,-210.831"/>
<polygon fill="midnightblue" stroke="midnightblue" points="550.202,-213.305 555.286,-204.009 545.515,-208.105 550.202,-213.305"/>
</g>
<!-- Node17&#45;&gt;Node3 -->
<g id="edge25" class="edge"><title>Node17&#45;&gt;Node3</title>
<path fill="none" stroke="midnightblue" d="M601.375,-187.141C666.694,-175.781 800.034,-152.458 846.554,-142.735"/>
<polygon fill="midnightblue" stroke="midnightblue" points="847.398,-146.134 856.416,-140.572 845.898,-139.296 847.398,-146.134"/>
</g>
<!-- Node17&#45;&gt;Node11 -->
<g id="edge26" class="edge"><title>Node17&#45;&gt;Node11</title>
<path fill="none" stroke="midnightblue" d="M562.495,-184.798C557.49,-165.263 545.27,-117.565 538.476,-91.0471"/>
<polygon fill="midnightblue" stroke="midnightblue" points="541.806,-89.9416 535.934,-81.1232 535.025,-91.679 541.806,-89.9416"/>
</g>
<!-- Node18&#45;&gt;Node3 -->
<g id="edge29" class="edge"><title>Node18&#45;&gt;Node3</title>
<path fill="none" stroke="midnightblue" d="M730.029,-302.45C746.364,-294.58 769.757,-281.755 786.725,-266 824.116,-231.281 854.987,-178.904 869.606,-151.744"/>
<polygon fill="midnightblue" stroke="midnightblue" points="872.828,-153.137 874.393,-142.658 866.635,-149.874 872.828,-153.137"/>
</g>
<!-- Node18&#45;&gt;Node8 -->
<g id="edge30" class="edge"><title>Node18&#45;&gt;Node8</title>
<path fill="none" stroke="midnightblue" d="M678.08,-305.92C621.199,-297.068 502.925,-278.662 428.773,-267.123"/>
<polygon fill="midnightblue" stroke="midnightblue" points="429.033,-263.621 418.614,-265.542 427.956,-270.538 429.033,-263.621"/>
</g>
<!-- Node18&#45;&gt;Node11 -->
<g id="edge39" class="edge"><title>Node18&#45;&gt;Node11</title>
<path fill="none" stroke="midnightblue" d="M704.827,-302.323C693.278,-285.141 667.198,-245.383 648.725,-210 629.196,-172.597 637.941,-155.243 610.725,-123 597.363,-107.171 577.802,-94.4289 561.74,-85.7034"/>
<polygon fill="midnightblue" stroke="midnightblue" points="563.247,-82.5425 552.76,-81.0372 560.02,-88.754 563.247,-82.5425"/>
</g>
<!-- Node18&#45;&gt;Node14 -->
<g id="edge40" class="edge"><title>Node18&#45;&gt;Node14</title>
<path fill="none" stroke="midnightblue" d="M743.27,-310.322C824.192,-308.142 1032.25,-299.359 1091.72,-266 1133.72,-242.443 1151.13,-183.316 1157.5,-152.829"/>
<polygon fill="midnightblue" stroke="midnightblue" points="1161,-153.159 1159.43,-142.681 1154.12,-151.851 1161,-153.159"/>
</g>
<!-- Node18&#45;&gt;Node17 -->
<g id="edge45" class="edge"><title>Node18&#45;&gt;Node17</title>
<path fill="none" stroke="midnightblue" d="M690.153,-302.492C672.345,-294.562 646.426,-281.629 626.725,-266 606.87,-250.25 588.262,-227.625 576.711,-212.287"/>
<polygon fill="midnightblue" stroke="midnightblue" points="579.512,-210.188 570.769,-204.205 573.873,-214.335 579.512,-210.188"/>
</g>
<!-- Node19 -->
<g id="node19" class="node"><title>Node19</title>
<polygon fill="white" stroke="#bfbfbf" points="916.225,-185 916.225,-204 959.225,-204 959.225,-185 916.225,-185"/>
<text text-anchor="middle" x="937.725" y="-192" font-family="Helvetica,sans-Serif" font-size="10.00">cstdio</text>
</g>
<!-- Node18&#45;&gt;Node19 -->
<g id="edge28" class="edge"><title>Node18&#45;&gt;Node19</title>
<path fill="none" stroke="midnightblue" d="M743.411,-308.954C798.466,-304.785 906.112,-293.282 930.725,-266 943.189,-252.184 943.366,-230.077 941.426,-214.304"/>
<polygon fill="midnightblue" stroke="midnightblue" points="944.835,-213.459 939.784,-204.146 937.924,-214.576 944.835,-213.459"/>
</g>
<!-- Node20 -->
<g id="node20" class="node"><title>Node20</title>
<g id="a_node20"><a xlink:href="arrayref_8h.xhtml" target="_top" xlink:title="Declares gmx::ArrayRef. ">
<polygon fill="white" stroke="black" points="658.225,-185 658.225,-204 783.225,-204 783.225,-185 658.225,-185"/>
<text text-anchor="middle" x="720.725" y="-192" font-family="Helvetica,sans-Serif" font-size="10.00">gromacs/utility/arrayref.h</text>
</a>
</g>
</g>
<!-- Node18&#45;&gt;Node20 -->
<g id="edge31" class="edge"><title>Node18&#45;&gt;Node20</title>
<path fill="none" stroke="midnightblue" d="M706.63,-302.15C701.362,-289.624 693.381,-266.019 697.725,-246 700.242,-234.401 705.663,-222.27 710.61,-212.805"/>
<polygon fill="midnightblue" stroke="midnightblue" points="713.68,-214.487 715.453,-204.041 707.553,-211.101 713.68,-214.487"/>
</g>
<!-- Node24 -->
<g id="node24" class="node"><title>Node24</title>
<g id="a_node24"><a xlink:href="coordstate_8h.xhtml" target="_top" xlink:title="Declares the CoordState class. ">
<polygon fill="white" stroke="black" points="707.225,-246.5 707.225,-265.5 778.225,-265.5 778.225,-246.5 707.225,-246.5"/>
<text text-anchor="middle" x="742.725" y="-253.5" font-family="Helvetica,sans-Serif" font-size="10.00">coordstate.h</text>
</a>
</g>
</g>
<!-- Node18&#45;&gt;Node24 -->
<g id="edge41" class="edge"><title>Node18&#45;&gt;Node24</title>
<path fill="none" stroke="midnightblue" d="M716.009,-302.083C720.436,-294.613 726.888,-283.724 732.342,-274.52"/>
<polygon fill="midnightblue" stroke="midnightblue" points="735.452,-276.138 737.539,-265.751 729.43,-272.57 735.452,-276.138"/>
</g>
<!-- Node25 -->
<g id="node25" class="node"><title>Node25</title>
<g id="a_node25"><a xlink:href="histogramsize_8h.xhtml" target="_top" xlink:title="Declares the HistogramSize class. ">
<polygon fill="white" stroke="black" points="835.725,-246.5 835.725,-265.5 921.725,-265.5 921.725,-246.5 835.725,-246.5"/>
<text text-anchor="middle" x="878.725" y="-253.5" font-family="Helvetica,sans-Serif" font-size="10.00">histogramsize.h</text>
</a>
</g>
</g>
<!-- Node18&#45;&gt;Node25 -->
<g id="edge46" class="edge"><title>Node18&#45;&gt;Node25</title>
<path fill="none" stroke="midnightblue" d="M737.345,-302.444C765.73,-293.32 810.861,-278.813 842.477,-268.651"/>
<polygon fill="midnightblue" stroke="midnightblue" points="843.78,-271.909 852.229,-265.516 841.638,-265.244 843.78,-271.909"/>
</g>
<!-- Node20&#45;&gt;Node3 -->
<g id="edge37" class="edge"><title>Node20&#45;&gt;Node3</title>
<path fill="none" stroke="midnightblue" d="M743.362,-184.975C770.619,-174.711 816.553,-157.413 847.25,-145.853"/>
<polygon fill="midnightblue" stroke="midnightblue" points="848.514,-149.117 856.638,-142.317 846.047,-142.566 848.514,-149.117"/>
</g>
<!-- Node20&#45;&gt;Node5 -->
<g id="edge32" class="edge"><title>Node20&#45;&gt;Node5</title>
<path fill="none" stroke="midnightblue" d="M683.616,-184.975C633.471,-173.455 544.761,-153.076 496.077,-141.892"/>
<polygon fill="midnightblue" stroke="midnightblue" points="496.854,-138.479 486.324,-139.651 495.287,-145.301 496.854,-138.479"/>
</g>
<!-- Node20&#45;&gt;Node7 -->
<g id="edge36" class="edge"><title>Node20&#45;&gt;Node7</title>
<path fill="none" stroke="midnightblue" d="M700.809,-184.975C677.276,-174.901 637.915,-158.053 610.932,-146.502"/>
<polygon fill="midnightblue" stroke="midnightblue" points="612.173,-143.227 601.603,-142.509 609.419,-149.662 612.173,-143.227"/>
</g>
<!-- Node20&#45;&gt;Node14 -->
<g id="edge38" class="edge"><title>Node20&#45;&gt;Node14</title>
<path fill="none" stroke="midnightblue" d="M783.299,-185.038C863.551,-174.186 1002.49,-155.397 1087.56,-143.894"/>
<polygon fill="midnightblue" stroke="midnightblue" points="1088.21,-147.337 1097.65,-142.529 1087.28,-140.401 1088.21,-147.337"/>
</g>
<!-- Node21 -->
<g id="node21" class="node"><title>Node21</title>
<polygon fill="white" stroke="#bfbfbf" points="657.725,-123.5 657.725,-142.5 695.725,-142.5 695.725,-123.5 657.725,-123.5"/>
<text text-anchor="middle" x="676.725" y="-130.5" font-family="Helvetica,sans-Serif" font-size="10.00">array</text>
</g>
<!-- Node20&#45;&gt;Node21 -->
<g id="edge33" class="edge"><title>Node20&#45;&gt;Node21</title>
<path fill="none" stroke="midnightblue" d="M714.42,-184.975C707.82,-176.05 697.288,-161.807 689.032,-150.643"/>
<polygon fill="midnightblue" stroke="midnightblue" points="691.777,-148.468 683.017,-142.509 686.149,-152.631 691.777,-148.468"/>
</g>
<!-- Node22 -->
<g id="node22" class="node"><title>Node22</title>
<polygon fill="white" stroke="#bfbfbf" points="714.225,-123.5 714.225,-142.5 761.225,-142.5 761.225,-123.5 714.225,-123.5"/>
<text text-anchor="middle" x="737.725" y="-130.5" font-family="Helvetica,sans-Serif" font-size="10.00">iterator</text>
</g>
<!-- Node20&#45;&gt;Node22 -->
<g id="edge34" class="edge"><title>Node20&#45;&gt;Node22</title>
<path fill="none" stroke="midnightblue" d="M723.16,-184.975C725.584,-176.492 729.381,-163.204 732.49,-152.322"/>
<polygon fill="midnightblue" stroke="midnightblue" points="735.911,-153.086 735.293,-142.509 729.181,-151.163 735.911,-153.086"/>
</g>
<!-- Node23 -->
<g id="node23" class="node"><title>Node23</title>
<polygon fill="white" stroke="#bfbfbf" points="779.225,-123.5 779.225,-142.5 838.225,-142.5 838.225,-123.5 779.225,-123.5"/>
<text text-anchor="middle" x="808.725" y="-130.5" font-family="Helvetica,sans-Serif" font-size="10.00">stdexcept</text>
</g>
<!-- Node20&#45;&gt;Node23 -->
<g id="edge35" class="edge"><title>Node20&#45;&gt;Node23</title>
<path fill="none" stroke="midnightblue" d="M733.333,-184.975C747.448,-175.431 770.556,-159.807 787.474,-148.368"/>
<polygon fill="midnightblue" stroke="midnightblue" points="789.816,-151.01 796.14,-142.509 785.895,-145.211 789.816,-151.01"/>
</g>
<!-- Node24&#45;&gt;Node3 -->
<g id="edge42" class="edge"><title>Node24&#45;&gt;Node3</title>
<path fill="none" stroke="midnightblue" d="M752.505,-246.298C775.344,-225.978 832.433,-175.186 861.352,-149.457"/>
<polygon fill="midnightblue" stroke="midnightblue" points="863.888,-151.885 869.032,-142.623 859.235,-146.655 863.888,-151.885"/>
</g>
<!-- Node24&#45;&gt;Node17 -->
<g id="edge44" class="edge"><title>Node24&#45;&gt;Node17</title>
<path fill="none" stroke="midnightblue" d="M717.222,-246.475C686.424,-236.18 634.46,-218.81 599.877,-207.25"/>
<polygon fill="midnightblue" stroke="midnightblue" points="600.774,-203.86 590.18,-204.009 598.555,-210.499 600.774,-203.86"/>
</g>
<!-- Node24&#45;&gt;Node20 -->
<g id="edge43" class="edge"><title>Node24&#45;&gt;Node20</title>
<path fill="none" stroke="midnightblue" d="M739.573,-246.475C736.403,-237.904 731.42,-224.427 727.374,-213.483"/>
<polygon fill="midnightblue" stroke="midnightblue" points="730.622,-212.175 723.871,-204.009 724.056,-214.602 730.622,-212.175"/>
</g>
<!-- Node25&#45;&gt;Node3 -->
<g id="edge48" class="edge"><title>Node25&#45;&gt;Node3</title>
<path fill="none" stroke="midnightblue" d="M878.725,-246.298C878.725,-226.85 878.725,-179.49 878.725,-152.904"/>
<polygon fill="midnightblue" stroke="midnightblue" points="882.225,-152.623 878.725,-142.623 875.225,-152.623 882.225,-152.623"/>
</g>
<!-- Node25&#45;&gt;Node19 -->
<g id="edge47" class="edge"><title>Node25&#45;&gt;Node19</title>
<path fill="none" stroke="midnightblue" d="M887.178,-246.475C896.291,-237.285 910.995,-222.456 922.2,-211.156"/>
<polygon fill="midnightblue" stroke="midnightblue" points="924.731,-213.574 929.287,-204.009 919.761,-208.646 924.731,-213.574"/>
</g>
<!-- Node25&#45;&gt;Node20 -->
<g id="edge49" class="edge"><title>Node25&#45;&gt;Node20</title>
<path fill="none" stroke="midnightblue" d="M856.087,-246.475C828.984,-236.269 783.415,-219.108 752.721,-207.549"/>
<polygon fill="midnightblue" stroke="midnightblue" points="753.912,-204.258 743.32,-204.009 751.445,-210.809 753.912,-204.258"/>
</g>
<!-- Node26&#45;&gt;Node3 -->
<g id="edge52" class="edge"><title>Node26&#45;&gt;Node3</title>
<path fill="none" stroke="midnightblue" d="M1046.5,-246.41C1040.22,-230.813 1024.92,-197.722 1001.72,-179 975.17,-157.566 937.478,-145.797 910.833,-139.728"/>
<polygon fill="midnightblue" stroke="midnightblue" points="911.368,-136.264 900.858,-137.603 909.909,-143.11 911.368,-136.264"/>
</g>
<!-- Node26&#45;&gt;Node11 -->
<g id="edge54" class="edge"><title>Node26&#45;&gt;Node11</title>
<path fill="none" stroke="midnightblue" d="M1049.6,-246.416C1048.93,-231.119 1045.49,-198.888 1028.72,-179 991.056,-134.303 965.792,-139.528 909.725,-123 813.893,-94.7493 699.616,-82.2472 622.398,-76.7493"/>
<polygon fill="midnightblue" stroke="midnightblue" points="622.443,-73.2442 612.227,-76.0503 621.963,-80.2277 622.443,-73.2442"/>
</g>
<!-- Node26&#45;&gt;Node20 -->
<g id="edge53" class="edge"><title>Node26&#45;&gt;Node20</title>
<path fill="none" stroke="midnightblue" d="M1016.06,-248.912C959.983,-238.77 846.815,-218.304 778.002,-205.859"/>
<polygon fill="midnightblue" stroke="midnightblue" points="778.233,-202.344 767.769,-204.008 776.987,-209.232 778.233,-202.344"/>
</g>
<!-- Node27 -->
<g id="node27" class="node"><title>Node27</title>
<polygon fill="white" stroke="#bfbfbf" points="1092.22,-185 1092.22,-204 1127.22,-204 1127.22,-185 1092.22,-185"/>
<text text-anchor="middle" x="1109.72" y="-192" font-family="Helvetica,sans-Serif" font-size="10.00">map</text>
</g>
<!-- Node26&#45;&gt;Node27 -->
<g id="edge51" class="edge"><title>Node26&#45;&gt;Node27</title>
<path fill="none" stroke="midnightblue" d="M1058.32,-246.475C1067.59,-237.285 1082.54,-222.456 1093.94,-211.156"/>
<polygon fill="midnightblue" stroke="midnightblue" points="1096.51,-213.536 1101.14,-204.009 1091.58,-208.565 1096.51,-213.536"/>
</g>
<!-- Node28&#45;&gt;Node2 -->
<g id="edge57" class="edge"><title>Node28&#45;&gt;Node2</title>
<path fill="none" stroke="midnightblue" d="M48.2087,-246.349C34.6458,-231.499 11.1802,-200.669 26.7246,-179 48.5534,-148.57 92.0825,-138.457 123.404,-135.235"/>
<polygon fill="midnightblue" stroke="midnightblue" points="123.837,-138.711 133.509,-134.387 123.252,-131.735 123.837,-138.711"/>
</g>
<!-- Node28&#45;&gt;Node17 -->
<g id="edge59" class="edge"><title>Node28&#45;&gt;Node17</title>
<path fill="none" stroke="midnightblue" d="M77.2311,-252.626C134.834,-245.953 303.019,-226.446 442.725,-210 467.616,-207.07 495.36,-203.775 518.094,-201.067"/>
<polygon fill="midnightblue" stroke="midnightblue" points="518.643,-204.526 528.159,-199.868 517.815,-197.576 518.643,-204.526"/>
</g>
<!-- Node29 -->
<g id="node29" class="node"><title>Node29</title>
<polygon fill="white" stroke="#bfbfbf" points="36.2246,-185 36.2246,-204 77.2246,-204 77.2246,-185 36.2246,-185"/>
<text text-anchor="middle" x="56.7246" y="-192" font-family="Helvetica,sans-Serif" font-size="10.00">string</text>
</g>
<!-- Node28&#45;&gt;Node29 -->
<g id="edge58" class="edge"><title>Node28&#45;&gt;Node29</title>
<path fill="none" stroke="midnightblue" d="M56.7246,-246.475C56.7246,-238.08 56.7246,-224.981 56.7246,-214.163"/>
<polygon fill="midnightblue" stroke="midnightblue" points="60.2247,-214.009 56.7246,-204.009 53.2247,-214.009 60.2247,-214.009"/>
</g>
</g>
</svg>
