<?xml version="1.0" encoding="UTF-8" standalone="no"?>
<!DOCTYPE svg PUBLIC "-//W3C//DTD SVG 1.1//EN"
 "http://www.w3.org/Graphics/SVG/1.1/DTD/svg11.dtd">
<!-- Generated by graphviz version 2.38.0 (20140413.2041)
 -->
<!-- Title: src/gromacs/awh/biasparams.h Pages: 1 -->
<svg width="233pt" height="196pt"
 viewBox="0.00 0.00 232.50 196.00" xmlns="http://www.w3.org/2000/svg" xmlns:xlink="http://www.w3.org/1999/xlink">
<g id="graph0" class="graph" transform="scale(1 1) rotate(0) translate(4 192)">
<title>src/gromacs/awh/biasparams.h</title>
<polygon fill="white" stroke="none" points="-4,4 -4,-192 228.5,-192 228.5,4 -4,4"/>
<!-- Node1 -->
<g id="node1" class="node"><title>Node1</title>
<polygon fill="#bfbfbf" stroke="black" points="7.5,-168.5 7.5,-187.5 160.5,-187.5 160.5,-168.5 7.5,-168.5"/>
<text text-anchor="middle" x="84" y="-175.5" font-family="Helvetica,sans-Serif" font-size="10.00">src/gromacs/awh/biasparams.h</text>
</g>
<!-- Node2 -->
<g id="node2" class="node"><title>Node2</title>
<polygon fill="white" stroke="#bfbfbf" points="0,-56.5 0,-75.5 44,-75.5 44,-56.5 0,-56.5"/>
<text text-anchor="middle" x="22" y="-63.5" font-family="Helvetica,sans-Serif" font-size="10.00">vector</text>
</g>
<!-- Node1&#45;&gt;Node2 -->
<g id="edge1" class="edge"><title>Node1&#45;&gt;Node2</title>
<path fill="none" stroke="midnightblue" d="M71.9748,-168.377C61.4452,-160.19 46.5319,-146.94 38,-132 29.8055,-117.651 25.7779,-99.1891 23.8164,-85.6101"/>
<polygon fill="midnightblue" stroke="midnightblue" points="27.2757,-85.061 22.6086,-75.5496 20.3256,-85.8955 27.2757,-85.061"/>
</g>
<!-- Node3 -->
<g id="node3" class="node"><title>Node3</title>
<g id="a_node3"><a xlink:href="basedefinitions_8h.xhtml" target="_top" xlink:title="Basic types and macros used throughout GROMACS. ">
<polygon fill="white" stroke="black" points="67.5,-56.5 67.5,-75.5 224.5,-75.5 224.5,-56.5 67.5,-56.5"/>
<text text-anchor="middle" x="146" y="-63.5" font-family="Helvetica,sans-Serif" font-size="10.00">gromacs/utility/basedefinitions.h</text>
</a>
</g>
</g>
<!-- Node1&#45;&gt;Node3 -->
<g id="edge2" class="edge"><title>Node1&#45;&gt;Node3</title>
<path fill="none" stroke="midnightblue" d="M95.7082,-168.291C105.971,-160.047 120.537,-146.761 129,-132 137.25,-117.612 141.579,-99.1549 143.799,-85.5873"/>
<polygon fill="midnightblue" stroke="midnightblue" points="147.286,-85.9261 145.207,-75.5372 140.353,-84.955 147.286,-85.9261"/>
</g>
<!-- Node6 -->
<g id="node6" class="node"><title>Node6</title>
<g id="a_node6"><a xlink:href="dimparams_8h.xhtml" target="_top" xlink:title="Declares the DimParams struct and AWH vector types. ">
<polygon fill="white" stroke="black" points="47.5,-112.5 47.5,-131.5 120.5,-131.5 120.5,-112.5 47.5,-112.5"/>
<text text-anchor="middle" x="84" y="-119.5" font-family="Helvetica,sans-Serif" font-size="10.00">dimparams.h</text>
</a>
</g>
</g>
<!-- Node1&#45;&gt;Node6 -->
<g id="edge5" class="edge"><title>Node1&#45;&gt;Node6</title>
<path fill="none" stroke="midnightblue" d="M84,-168.083C84,-161.006 84,-150.861 84,-141.986"/>
<polygon fill="midnightblue" stroke="midnightblue" points="87.5001,-141.751 84,-131.751 80.5001,-141.751 87.5001,-141.751"/>
</g>
<!-- Node4 -->
<g id="node4" class="node"><title>Node4</title>
<polygon fill="white" stroke="#bfbfbf" points="85.5,-0.5 85.5,-19.5 134.5,-19.5 134.5,-0.5 85.5,-0.5"/>
<text text-anchor="middle" x="110" y="-7.5" font-family="Helvetica,sans-Serif" font-size="10.00">stdint.h</text>
</g>
<!-- Node3&#45;&gt;Node4 -->
<g id="edge3" class="edge"><title>Node3&#45;&gt;Node4</title>
<path fill="none" stroke="midnightblue" d="M140.055,-56.083C135.023,-48.5341 127.663,-37.4948 121.487,-28.2298"/>
<polygon fill="midnightblue" stroke="midnightblue" points="124.293,-26.1301 115.834,-19.7511 118.469,-30.0131 124.293,-26.1301"/>
</g>
<!-- Node5 -->
<g id="node5" class="node"><title>Node5</title>
<polygon fill="white" stroke="#bfbfbf" points="152.5,-0.5 152.5,-19.5 211.5,-19.5 211.5,-0.5 152.5,-0.5"/>
<text text-anchor="middle" x="182" y="-7.5" font-family="Helvetica,sans-Serif" font-size="10.00">inttypes.h</text>
</g>
<!-- Node3&#45;&gt;Node5 -->
<g id="edge4" class="edge"><title>Node3&#45;&gt;Node5</title>
<path fill="none" stroke="midnightblue" d="M151.945,-56.083C156.977,-48.5341 164.337,-37.4948 170.513,-28.2298"/>
<polygon fill="midnightblue" stroke="midnightblue" points="173.531,-30.0131 176.166,-19.7511 167.707,-26.1301 173.531,-30.0131"/>
</g>
<!-- Node6&#45;&gt;Node2 -->
<g id="edge6" class="edge"><title>Node6&#45;&gt;Node2</title>
<path fill="none" stroke="midnightblue" d="M74.0386,-112.324C64.8734,-104.341 51.0628,-92.3128 39.9718,-82.6529"/>
<polygon fill="midnightblue" stroke="midnightblue" points="41.9822,-79.7624 32.1426,-75.8339 37.3847,-85.041 41.9822,-79.7624"/>
</g>
<!-- Node6&#45;&gt;Node3 -->
<g id="edge7" class="edge"><title>Node6&#45;&gt;Node3</title>
<path fill="none" stroke="midnightblue" d="M93.9614,-112.324C103.127,-104.341 116.937,-92.3128 128.028,-82.6529"/>
<polygon fill="midnightblue" stroke="midnightblue" points="130.615,-85.041 135.857,-75.8339 126.018,-79.7624 130.615,-85.041"/>
</g>
</g>
</svg>
