<?xml version="1.0" encoding="UTF-8" standalone="no"?>
<!DOCTYPE svg PUBLIC "-//W3C//DTD SVG 1.1//EN"
 "http://www.w3.org/Graphics/SVG/1.1/DTD/svg11.dtd">
<!-- Generated by graphviz version 2.38.0 (20140413.2041)
 -->
<!-- Title: src/gromacs/selection/centerofmass.cpp Pages: 1 -->
<svg width="446pt" height="285pt"
 viewBox="0.00 0.00 446.00 285.00" xmlns="http://www.w3.org/2000/svg" xmlns:xlink="http://www.w3.org/1999/xlink">
<g id="graph0" class="graph" transform="scale(1 1) rotate(0) translate(4 281)">
<title>src/gromacs/selection/centerofmass.cpp</title>
<polygon fill="white" stroke="none" points="-4,4 -4,-281 442,-281 442,4 -4,4"/>
<!-- Node1 -->
<g id="node1" class="node"><title>Node1</title>
<polygon fill="#bfbfbf" stroke="black" points="121,-246.5 121,-276.5 234,-276.5 234,-246.5 121,-246.5"/>
<text text-anchor="start" x="129" y="-264.5" font-family="Helvetica,sans-Serif" font-size="10.00">src/gromacs/selection</text>
<text text-anchor="middle" x="177.5" y="-253.5" font-family="Helvetica,sans-Serif" font-size="10.00">/centerofmass.cpp</text>
</g>
<!-- Node2 -->
<g id="node2" class="node"><title>Node2</title>
<g id="a_node2"><a xlink:href="gmxpre_8h.xhtml" target="_top" xlink:title="Prerequisite header file for GROMACS build. ">
<polygon fill="white" stroke="black" points="0,-185 0,-204 57,-204 57,-185 0,-185"/>
<text text-anchor="middle" x="28.5" y="-192" font-family="Helvetica,sans-Serif" font-size="10.00">gmxpre.h</text>
</a>
</g>
</g>
<!-- Node1&#45;&gt;Node2 -->
<g id="edge1" class="edge"><title>Node1&#45;&gt;Node2</title>
<path fill="none" stroke="midnightblue" d="M145.169,-246.396C119.025,-234.991 82.5512,-219.079 57.3776,-208.098"/>
<polygon fill="midnightblue" stroke="midnightblue" points="58.566,-204.798 48.0007,-204.007 55.767,-211.214 58.566,-204.798"/>
</g>
<!-- Node3 -->
<g id="node3" class="node"><title>Node3</title>
<g id="a_node3"><a xlink:href="centerofmass_8h.xhtml" target="_top" xlink:title="API for calculation of centers of mass/geometry. ">
<polygon fill="white" stroke="black" points="75.5,-185 75.5,-204 159.5,-204 159.5,-185 75.5,-185"/>
<text text-anchor="middle" x="117.5" y="-192" font-family="Helvetica,sans-Serif" font-size="10.00">centerofmass.h</text>
</a>
</g>
</g>
<!-- Node1&#45;&gt;Node3 -->
<g id="edge2" class="edge"><title>Node1&#45;&gt;Node3</title>
<path fill="none" stroke="midnightblue" d="M164.481,-246.396C155.033,-236.161 142.235,-222.296 132.382,-211.622"/>
<polygon fill="midnightblue" stroke="midnightblue" points="134.88,-209.169 125.526,-204.195 129.737,-213.917 134.88,-209.169"/>
</g>
<!-- Node4 -->
<g id="node4" class="node"><title>Node4</title>
<g id="a_node4"><a xlink:href="mtop__lookup_8h.xhtml" target="_top" xlink:title="This file contains inline functions to look up atom information using the global atom index...">
<polygon fill="white" stroke="black" points="178,-179.5 178,-209.5 297,-209.5 297,-179.5 178,-179.5"/>
<text text-anchor="start" x="186" y="-197.5" font-family="Helvetica,sans-Serif" font-size="10.00">gromacs/topology/mtop</text>
<text text-anchor="middle" x="237.5" y="-186.5" font-family="Helvetica,sans-Serif" font-size="10.00">_lookup.h</text>
</a>
</g>
</g>
<!-- Node1&#45;&gt;Node4 -->
<g id="edge3" class="edge"><title>Node1&#45;&gt;Node4</title>
<path fill="none" stroke="midnightblue" d="M190.519,-246.396C198.46,-237.793 208.768,-226.626 217.705,-216.945"/>
<polygon fill="midnightblue" stroke="midnightblue" points="220.295,-219.299 224.506,-209.577 215.152,-214.551 220.295,-219.299"/>
</g>
<!-- Node8 -->
<g id="node8" class="node"><title>Node8</title>
<g id="a_node8"><a xlink:href="gmxassert_8h.xhtml" target="_top" xlink:title="Defines assert macros customized for Gromacs. ">
<polygon fill="white" stroke="black" points="257,-123.5 257,-142.5 394,-142.5 394,-123.5 257,-123.5"/>
<text text-anchor="middle" x="325.5" y="-130.5" font-family="Helvetica,sans-Serif" font-size="10.00">gromacs/utility/gmxassert.h</text>
</a>
</g>
</g>
<!-- Node1&#45;&gt;Node8 -->
<g id="edge10" class="edge"><title>Node1&#45;&gt;Node8</title>
<path fill="none" stroke="midnightblue" d="M234.186,-250.6C259.619,-243.389 287.997,-231.041 306.5,-210 320.365,-194.234 324.417,-169.845 325.45,-152.967"/>
<polygon fill="midnightblue" stroke="midnightblue" points="328.957,-152.783 325.765,-142.68 321.96,-152.568 328.957,-152.783"/>
</g>
<!-- Node5 -->
<g id="node5" class="node"><title>Node5</title>
<g id="a_node5"><a xlink:href="basedefinitions_8h.xhtml" target="_top" xlink:title="Basic types and macros used throughout GROMACS. ">
<polygon fill="white" stroke="black" points="150,-62 150,-81 307,-81 307,-62 150,-62"/>
<text text-anchor="middle" x="228.5" y="-69" font-family="Helvetica,sans-Serif" font-size="10.00">gromacs/utility/basedefinitions.h</text>
</a>
</g>
</g>
<!-- Node4&#45;&gt;Node5 -->
<g id="edge4" class="edge"><title>Node4&#45;&gt;Node5</title>
<path fill="none" stroke="midnightblue" d="M236.432,-179.145C234.8,-157.203 231.685,-115.327 229.883,-91.0906"/>
<polygon fill="midnightblue" stroke="midnightblue" points="233.368,-90.765 229.136,-81.0522 226.388,-91.2843 233.368,-90.765"/>
</g>
<!-- Node4&#45;&gt;Node8 -->
<g id="edge7" class="edge"><title>Node4&#45;&gt;Node8</title>
<path fill="none" stroke="midnightblue" d="M258.355,-179.399C272.197,-170.04 290.311,-157.792 304.236,-148.377"/>
<polygon fill="midnightblue" stroke="midnightblue" points="306.372,-151.158 312.695,-142.658 302.451,-145.36 306.372,-151.158"/>
</g>
<!-- Node6 -->
<g id="node6" class="node"><title>Node6</title>
<polygon fill="white" stroke="#bfbfbf" points="168,-0.5 168,-19.5 217,-19.5 217,-0.5 168,-0.5"/>
<text text-anchor="middle" x="192.5" y="-7.5" font-family="Helvetica,sans-Serif" font-size="10.00">stdint.h</text>
</g>
<!-- Node5&#45;&gt;Node6 -->
<g id="edge5" class="edge"><title>Node5&#45;&gt;Node6</title>
<path fill="none" stroke="midnightblue" d="M223.342,-61.9751C218.049,-53.2268 209.665,-39.3691 202.973,-28.3093"/>
<polygon fill="midnightblue" stroke="midnightblue" points="205.82,-26.2531 197.648,-19.5091 199.83,-29.8768 205.82,-26.2531"/>
</g>
<!-- Node7 -->
<g id="node7" class="node"><title>Node7</title>
<polygon fill="white" stroke="#bfbfbf" points="235,-0.5 235,-19.5 294,-19.5 294,-0.5 235,-0.5"/>
<text text-anchor="middle" x="264.5" y="-7.5" font-family="Helvetica,sans-Serif" font-size="10.00">inttypes.h</text>
</g>
<!-- Node5&#45;&gt;Node7 -->
<g id="edge6" class="edge"><title>Node5&#45;&gt;Node7</title>
<path fill="none" stroke="midnightblue" d="M233.658,-61.9751C238.951,-53.2268 247.335,-39.3691 254.027,-28.3093"/>
<polygon fill="midnightblue" stroke="midnightblue" points="257.17,-29.8768 259.352,-19.5091 251.18,-26.2531 257.17,-29.8768"/>
</g>
<!-- Node8&#45;&gt;Node5 -->
<g id="edge8" class="edge"><title>Node8&#45;&gt;Node5</title>
<path fill="none" stroke="midnightblue" d="M311.602,-123.475C295.828,-113.799 269.863,-97.8721 251.151,-86.3941"/>
<polygon fill="midnightblue" stroke="midnightblue" points="252.726,-83.2544 242.372,-81.0091 249.066,-89.2213 252.726,-83.2544"/>
</g>
<!-- Node9 -->
<g id="node9" class="node"><title>Node9</title>
<g id="a_node9"><a xlink:href="current__function_8h.xhtml" target="_top" xlink:title="Declares GMX_CURRENT_FUNCTION for getting the current function name. ">
<polygon fill="white" stroke="black" points="325,-56.5 325,-86.5 438,-86.5 438,-56.5 325,-56.5"/>
<text text-anchor="start" x="333" y="-74.5" font-family="Helvetica,sans-Serif" font-size="10.00">gromacs/utility/current</text>
<text text-anchor="middle" x="381.5" y="-63.5" font-family="Helvetica,sans-Serif" font-size="10.00">_function.h</text>
</a>
</g>
</g>
<!-- Node8&#45;&gt;Node9 -->
<g id="edge9" class="edge"><title>Node8&#45;&gt;Node9</title>
<path fill="none" stroke="midnightblue" d="M333.523,-123.475C340.753,-115.793 351.691,-104.172 361.298,-93.9643"/>
<polygon fill="midnightblue" stroke="midnightblue" points="363.997,-96.2038 368.302,-86.523 358.9,-91.4062 363.997,-96.2038"/>
</g>
</g>
</svg>
