<?xml version="1.0" encoding="UTF-8" standalone="no"?>
<!DOCTYPE svg PUBLIC "-//W3C//DTD SVG 1.1//EN"
 "http://www.w3.org/Graphics/SVG/1.1/DTD/svg11.dtd">
<!-- Generated by graphviz version 2.38.0 (20140413.2041)
 -->
<!-- Title: anonymous_namespace{compressed_x_output.cpp}::MdrunCompressedXOutputTest Pages: 1 -->
<svg width="304pt" height="174pt"
 viewBox="0.00 0.00 304.00 174.00" xmlns="http://www.w3.org/2000/svg" xmlns:xlink="http://www.w3.org/1999/xlink">
<g id="graph0" class="graph" transform="scale(1 1) rotate(0) translate(4 170)">
<title>anonymous_namespace{compressed_x_output.cpp}::MdrunCompressedXOutputTest</title>
<polygon fill="white" stroke="none" points="-4,4 -4,-170 300,-170 300,4 -4,4"/>
<!-- Node1 -->
<g id="node1" class="node"><title>Node1</title>
<polygon fill="#bfbfbf" stroke="black" points="68,-0.5 68,-41.5 229,-41.5 229,-0.5 68,-0.5"/>
<text text-anchor="start" x="76" y="-29.5" font-family="Helvetica,sans-Serif" font-size="10.00">anonymous_namespace</text>
<text text-anchor="start" x="76" y="-18.5" font-family="Helvetica,sans-Serif" font-size="10.00">{compressed_x_output.cpp}</text>
<text text-anchor="middle" x="148.5" y="-7.5" font-family="Helvetica,sans-Serif" font-size="10.00">::MdrunCompressedXOutputTest</text>
</g>
<!-- Node2 -->
<g id="node2" class="node"><title>Node2</title>
<g id="a_node2"><a xlink:href="classgmx_1_1test_1_1MdrunTestFixture.xhtml" target="_top" xlink:title="Declares test fixture class for integration tests of mdrun functionality that use a single call of md...">
<polygon fill="white" stroke="black" points="78.5,-79.5 78.5,-98.5 218.5,-98.5 218.5,-79.5 78.5,-79.5"/>
<text text-anchor="middle" x="148.5" y="-86.5" font-family="Helvetica,sans-Serif" font-size="10.00">gmx::test::MdrunTestFixture</text>
</a>
</g>
</g>
<!-- Node2&#45;&gt;Node1 -->
<g id="edge1" class="edge"><title>Node2&#45;&gt;Node1</title>
<path fill="none" stroke="midnightblue" d="M148.5,-69.2462C148.5,-60.647 148.5,-50.4506 148.5,-41.7351"/>
<polygon fill="midnightblue" stroke="midnightblue" points="145,-69.3716 148.5,-79.3717 152,-69.3717 145,-69.3716"/>
</g>
<!-- Node3 -->
<g id="node3" class="node"><title>Node3</title>
<g id="a_node3"><a xlink:href="classgmx_1_1test_1_1SimulationRunner.xhtml" target="_top" xlink:title="Helper object for running grompp and mdrun in integration tests of mdrun functionality. ">
<polygon fill="white" stroke="black" points="0,-146.5 0,-165.5 141,-165.5 141,-146.5 0,-146.5"/>
<text text-anchor="middle" x="70.5" y="-153.5" font-family="Helvetica,sans-Serif" font-size="10.00">gmx::test::SimulationRunner</text>
</a>
</g>
</g>
<!-- Node3&#45;&gt;Node2 -->
<g id="edge2" class="edge"><title>Node3&#45;&gt;Node2</title>
<path fill="none" stroke="#9a32cd" stroke-dasharray="5,2" d="M88.8439,-139.713C104.212,-126.907 125.594,-109.088 138.147,-98.6273"/>
<polygon fill="#9a32cd" stroke="#9a32cd" points="86.461,-137.143 81.0194,-146.234 90.9423,-142.521 86.461,-137.143"/>
<text text-anchor="middle" x="132.5" y="-120" font-family="Helvetica,sans-Serif" font-size="10.00"> runner_</text>
</g>
<!-- Node4 -->
<g id="node4" class="node"><title>Node4</title>
<g id="a_node4"><a xlink:href="classgmx_1_1test_1_1TestFileManager.xhtml" target="_top" xlink:title="Helper for tests that need input and output files. ">
<polygon fill="white" stroke="black" points="159,-146.5 159,-165.5 296,-165.5 296,-146.5 159,-146.5"/>
<text text-anchor="middle" x="227.5" y="-153.5" font-family="Helvetica,sans-Serif" font-size="10.00">gmx::test::TestFileManager</text>
</a>
</g>
</g>
<!-- Node4&#45;&gt;Node2 -->
<g id="edge3" class="edge"><title>Node4&#45;&gt;Node2</title>
<path fill="none" stroke="#9a32cd" stroke-dasharray="5,2" d="M208.921,-139.713C193.356,-126.907 171.7,-109.088 158.985,-98.6273"/>
<polygon fill="#9a32cd" stroke="#9a32cd" points="206.9,-142.583 216.846,-146.234 211.347,-137.177 206.9,-142.583"/>
<text text-anchor="middle" x="222" y="-120" font-family="Helvetica,sans-Serif" font-size="10.00"> fileManager_</text>
</g>
</g>
</svg>
