<?xml version="1.0" encoding="UTF-8" standalone="no"?>
<!DOCTYPE svg PUBLIC "-//W3C//DTD SVG 1.1//EN"
 "http://www.w3.org/Graphics/SVG/1.1/DTD/svg11.dtd">
<!-- Generated by graphviz version 2.38.0 (20140413.2041)
 -->
<!-- Title: gmx::AbstractAnalysisArrayData Pages: 1 -->
<svg width="724pt" height="285pt"
 viewBox="0.00 0.00 724.00 284.50" xmlns="http://www.w3.org/2000/svg" xmlns:xlink="http://www.w3.org/1999/xlink">
<g id="graph0" class="graph" transform="scale(1 1) rotate(0) translate(4 280.5)">
<title>gmx::AbstractAnalysisArrayData</title>
<polygon fill="white" stroke="none" points="-4,4 -4,-280.5 720,-280.5 720,4 -4,4"/>
<!-- Node1 -->
<g id="node1" class="node"><title>Node1</title>
<polygon fill="#bfbfbf" stroke="black" points="173,-104 173,-123 333,-123 333,-104 173,-104"/>
<text text-anchor="middle" x="253" y="-111" font-family="Helvetica,sans-Serif" font-size="10.00">gmx::AbstractAnalysisArrayData</text>
</g>
<!-- Node3 -->
<g id="node3" class="node"><title>Node3</title>
<g id="a_node3"><a xlink:href="classgmx_1_1AbstractAverageHistogram.xhtml" target="_top" xlink:title="Base class for representing histograms averaged over frames. ">
<polygon fill="white" stroke="black" points="369,-186 369,-205 528,-205 528,-186 369,-186"/>
<text text-anchor="middle" x="448.5" y="-193" font-family="Helvetica,sans-Serif" font-size="10.00">gmx::AbstractAverageHistogram</text>
</a>
</g>
</g>
<!-- Node1&#45;&gt;Node3 -->
<g id="edge2" class="edge"><title>Node1&#45;&gt;Node3</title>
<path fill="none" stroke="midnightblue" d="M277.199,-128.602C299.82,-142.74 335.6,-163.571 369,-176.5 378.546,-180.195 389.031,-183.328 399.143,-185.918"/>
<polygon fill="midnightblue" stroke="midnightblue" points="278.96,-125.574 268.639,-123.178 275.213,-131.487 278.96,-125.574"/>
</g>
<!-- Node7 -->
<g id="node7" class="node"><title>Node7</title>
<g id="a_node7"><a xlink:href="classgmx_1_1AnalysisArrayData.xhtml" target="_top" xlink:title="Simple in&#45;memory data array. ">
<polygon fill="white" stroke="black" points="387,-148 387,-167 510,-167 510,-148 387,-148"/>
<text text-anchor="middle" x="448.5" y="-155" font-family="Helvetica,sans-Serif" font-size="10.00">gmx::AnalysisArrayData</text>
</a>
</g>
</g>
<!-- Node1&#45;&gt;Node7 -->
<g id="edge6" class="edge"><title>Node1&#45;&gt;Node7</title>
<path fill="none" stroke="midnightblue" d="M305.823,-125.284C337.06,-132.387 376.327,-141.316 405.595,-147.971"/>
<polygon fill="midnightblue" stroke="midnightblue" points="306.514,-121.852 295.987,-123.047 304.962,-128.678 306.514,-121.852"/>
</g>
<!-- Node8 -->
<g id="node8" class="node"><title>Node8</title>
<g id="a_node8"><a xlink:href="classgmx_1_1AnalysisDataAverageModule.xhtml" target="_top" xlink:title="Data module for independently averaging each column in input data. ">
<polygon fill="white" stroke="black" points="380.5,-98.5 380.5,-128.5 516.5,-128.5 516.5,-98.5 380.5,-98.5"/>
<text text-anchor="start" x="388.5" y="-116.5" font-family="Helvetica,sans-Serif" font-size="10.00">gmx::AnalysisDataAverage</text>
<text text-anchor="middle" x="448.5" y="-105.5" font-family="Helvetica,sans-Serif" font-size="10.00">Module</text>
</a>
</g>
</g>
<!-- Node1&#45;&gt;Node8 -->
<g id="edge7" class="edge"><title>Node1&#45;&gt;Node8</title>
<path fill="none" stroke="midnightblue" d="M343.609,-113.5C355.992,-113.5 368.531,-113.5 380.411,-113.5"/>
<polygon fill="midnightblue" stroke="midnightblue" points="343.262,-110 333.262,-113.5 343.262,-117 343.262,-110"/>
</g>
<!-- Node9 -->
<g id="node9" class="node"><title>Node9</title>
<g id="a_node9"><a xlink:href="classgmx_1_1AnalysisDataBinAverageModule.xhtml" target="_top" xlink:title="Data module for bin averages. ">
<polygon fill="white" stroke="black" points="373.5,-49.5 373.5,-79.5 523.5,-79.5 523.5,-49.5 373.5,-49.5"/>
<text text-anchor="start" x="381.5" y="-67.5" font-family="Helvetica,sans-Serif" font-size="10.00">gmx::AnalysisDataBinAverage</text>
<text text-anchor="middle" x="448.5" y="-56.5" font-family="Helvetica,sans-Serif" font-size="10.00">Module</text>
</a>
</g>
</g>
<!-- Node1&#45;&gt;Node9 -->
<g id="edge8" class="edge"><title>Node1&#45;&gt;Node9</title>
<path fill="none" stroke="midnightblue" d="M301.79,-101.398C327.877,-94.792 360.414,-86.5529 388.119,-79.537"/>
<polygon fill="midnightblue" stroke="midnightblue" points="300.603,-98.0882 291.768,-103.936 302.321,-104.874 300.603,-98.0882"/>
</g>
<!-- Node10 -->
<g id="node10" class="node"><title>Node10</title>
<g id="a_node10"><a xlink:href="classgmx_1_1AnalysisDataLifetimeModule.xhtml" target="_top" xlink:title="Data module for computing lifetime histograms for columns in input data. ">
<polygon fill="white" stroke="black" points="381.5,-0.5 381.5,-30.5 515.5,-30.5 515.5,-0.5 381.5,-0.5"/>
<text text-anchor="start" x="389.5" y="-18.5" font-family="Helvetica,sans-Serif" font-size="10.00">gmx::AnalysisDataLifetime</text>
<text text-anchor="middle" x="448.5" y="-7.5" font-family="Helvetica,sans-Serif" font-size="10.00">Module</text>
</a>
</g>
</g>
<!-- Node1&#45;&gt;Node10 -->
<g id="edge9" class="edge"><title>Node1&#45;&gt;Node10</title>
<path fill="none" stroke="midnightblue" d="M274.473,-97.8404C296.725,-81.4304 333.824,-55.8135 369,-39.5 376.111,-36.2023 383.789,-33.2138 391.464,-30.5539"/>
<polygon fill="midnightblue" stroke="midnightblue" points="272.352,-95.0561 266.436,-103.845 276.542,-100.664 272.352,-95.0561"/>
</g>
<!-- Node2 -->
<g id="node2" class="node"><title>Node2</title>
<g id="a_node2"><a xlink:href="classgmx_1_1AbstractAnalysisData.xhtml" target="_top" xlink:title="Abstract base class for all objects that provide data. ">
<polygon fill="white" stroke="black" points="0,-104 0,-123 137,-123 137,-104 0,-104"/>
<text text-anchor="middle" x="68.5" y="-111" font-family="Helvetica,sans-Serif" font-size="10.00">gmx::AbstractAnalysisData</text>
</a>
</g>
</g>
<!-- Node2&#45;&gt;Node1 -->
<g id="edge1" class="edge"><title>Node2&#45;&gt;Node1</title>
<path fill="none" stroke="midnightblue" d="M147.341,-113.5C155.737,-113.5 164.288,-113.5 172.7,-113.5"/>
<polygon fill="midnightblue" stroke="midnightblue" points="147.197,-110 137.197,-113.5 147.197,-117 147.197,-110"/>
</g>
<!-- Node4 -->
<g id="node4" class="node"><title>Node4</title>
<g id="a_node4"><a xlink:href="classanonymous__namespace_02histogram_8cpp_03_1_1MockAverageHistogram.xhtml" target="_top" xlink:title="Mock object for testing gmx::AbstractAverageHistogram. ">
<polygon fill="white" stroke="black" points="565,-235 565,-276 715,-276 715,-235 565,-235"/>
<text text-anchor="start" x="573" y="-264" font-family="Helvetica,sans-Serif" font-size="10.00">anonymous_namespace</text>
<text text-anchor="start" x="573" y="-253" font-family="Helvetica,sans-Serif" font-size="10.00">{histogram.cpp}::MockAverage</text>
<text text-anchor="middle" x="640" y="-242" font-family="Helvetica,sans-Serif" font-size="10.00">Histogram</text>
</a>
</g>
</g>
<!-- Node3&#45;&gt;Node4 -->
<g id="edge3" class="edge"><title>Node3&#45;&gt;Node4</title>
<path fill="none" stroke="midnightblue" d="M489.231,-208.08C513.824,-215.866 545.984,-226.049 574.196,-234.982"/>
<polygon fill="midnightblue" stroke="midnightblue" points="490.117,-204.689 479.527,-205.007 488.004,-211.363 490.117,-204.689"/>
</g>
<!-- Node5 -->
<g id="node5" class="node"><title>Node5</title>
<g id="a_node5"><a xlink:href="classgmx_1_1anonymous__namespace_02histogram_8cpp_03_1_1StaticAverageHistogram.xhtml" target="_top" xlink:title="Represents copies of average histograms. ">
<polygon fill="white" stroke="black" points="564,-175 564,-216 716,-216 716,-175 564,-175"/>
<text text-anchor="start" x="572" y="-204" font-family="Helvetica,sans-Serif" font-size="10.00">gmx::anonymous_namespace</text>
<text text-anchor="start" x="572" y="-193" font-family="Helvetica,sans-Serif" font-size="10.00">{histogram.cpp}::StaticAverage</text>
<text text-anchor="middle" x="640" y="-182" font-family="Helvetica,sans-Serif" font-size="10.00">Histogram</text>
</a>
</g>
</g>
<!-- Node3&#45;&gt;Node5 -->
<g id="edge4" class="edge"><title>Node3&#45;&gt;Node5</title>
<path fill="none" stroke="midnightblue" d="M538.236,-195.5C546.809,-195.5 555.448,-195.5 563.871,-195.5"/>
<polygon fill="midnightblue" stroke="midnightblue" points="538.219,-192 528.219,-195.5 538.219,-199 538.219,-192"/>
</g>
<!-- Node6 -->
<g id="node6" class="node"><title>Node6</title>
<g id="a_node6"><a xlink:href="classgmx_1_1internal_1_1BasicAverageHistogramModule.xhtml" target="_top" xlink:title="Implements average histogram module that averages per&#45;frame histograms. ">
<polygon fill="white" stroke="black" points="570,-126.5 570,-156.5 710,-156.5 710,-126.5 570,-126.5"/>
<text text-anchor="start" x="578" y="-144.5" font-family="Helvetica,sans-Serif" font-size="10.00">gmx::internal::BasicAverage</text>
<text text-anchor="middle" x="640" y="-133.5" font-family="Helvetica,sans-Serif" font-size="10.00">HistogramModule</text>
</a>
</g>
</g>
<!-- Node3&#45;&gt;Node6 -->
<g id="edge5" class="edge"><title>Node3&#45;&gt;Node6</title>
<path fill="none" stroke="midnightblue" d="M501.171,-183.523C510.144,-181.292 519.363,-178.904 528,-176.5 534.521,-174.685 564.628,-165.181 591.843,-156.534"/>
<polygon fill="midnightblue" stroke="midnightblue" points="500.072,-180.189 491.191,-185.967 501.736,-186.988 500.072,-180.189"/>
</g>
</g>
</svg>
