<?xml version="1.0" encoding="UTF-8" standalone="no"?>
<!DOCTYPE svg PUBLIC "-//W3C//DTD SVG 1.1//EN"
 "http://www.w3.org/Graphics/SVG/1.1/DTD/svg11.dtd">
<!-- Generated by graphviz version 2.38.0 (20140413.2041)
 -->
<!-- Title: gmx::SelectionTreeElement Pages: 1 -->
<svg width="1113pt" height="556pt"
 viewBox="0.00 0.00 1113.00 556.00" xmlns="http://www.w3.org/2000/svg" xmlns:xlink="http://www.w3.org/1999/xlink">
<g id="graph0" class="graph" transform="scale(1 1) rotate(0) translate(4 552)">
<title>gmx::SelectionTreeElement</title>
<polygon fill="white" stroke="none" points="-4,4 -4,-552 1109,-552 1109,4 -4,4"/>
<!-- Node1 -->
<g id="node1" class="node"><title>Node1</title>
<polygon fill="#bfbfbf" stroke="black" points="968,-296.5 968,-315.5 1105,-315.5 1105,-296.5 968,-296.5"/>
<text text-anchor="middle" x="1036.5" y="-303.5" font-family="Helvetica,sans-Serif" font-size="10.00">gmx::SelectionTreeElement</text>
</g>
<!-- Node2 -->
<g id="node2" class="node"><title>Node2</title>
<g id="a_node2"><a xlink:href="structgmx__ana__selparam__t.xhtml" target="_top" xlink:title="Describes a single parameter for a selection method. ">
<polygon fill="white" stroke="black" points="566,-297.5 566,-316.5 676,-316.5 676,-297.5 566,-297.5"/>
<text text-anchor="middle" x="621" y="-304.5" font-family="Helvetica,sans-Serif" font-size="10.00">gmx_ana_selparam_t</text>
</a>
</g>
</g>
<!-- Node2&#45;&gt;Node1 -->
<g id="edge1" class="edge"><title>Node2&#45;&gt;Node1</title>
<path fill="none" stroke="#9a32cd" stroke-dasharray="5,2" d="M686.503,-306.844C762.967,-306.659 889.815,-306.352 967.696,-306.164"/>
<polygon fill="#9a32cd" stroke="#9a32cd" points="686.049,-303.345 676.058,-306.869 686.066,-310.345 686.049,-303.345"/>
<text text-anchor="middle" x="838.5" y="-310" font-family="Helvetica,sans-Serif" font-size="10.00"> param</text>
</g>
<!-- Node14 -->
<g id="node14" class="node"><title>Node14</title>
<g id="a_node14"><a xlink:href="structgmx__ana__selmethod__t.xhtml" target="_top" xlink:title="Describes a selection method. ">
<polygon fill="white" stroke="black" points="781,-89.5 781,-108.5 896,-108.5 896,-89.5 781,-89.5"/>
<text text-anchor="middle" x="838.5" y="-96.5" font-family="Helvetica,sans-Serif" font-size="10.00">gmx_ana_selmethod_t</text>
</a>
</g>
</g>
<!-- Node2&#45;&gt;Node14 -->
<g id="edge24" class="edge"><title>Node2&#45;&gt;Node14</title>
<path fill="none" stroke="#9a32cd" stroke-dasharray="5,2" d="M657.23,-293.492C689.241,-279.487 735.534,-254.619 763,-219 779.482,-197.626 767.59,-184.423 781,-161 793.011,-140.021 813.202,-120.18 825.914,-108.822"/>
<polygon fill="#9a32cd" stroke="#9a32cd" points="655.635,-290.366 647.791,-297.489 658.364,-296.812 655.635,-290.366"/>
<text text-anchor="middle" x="736.5" y="-278" font-family="Helvetica,sans-Serif" font-size="10.00"> param</text>
<text text-anchor="middle" x="736.5" y="-267" font-family="Helvetica,sans-Serif" font-size="10.00">init_data</text>
</g>
<!-- Node3 -->
<g id="node3" class="node"><title>Node3</title>
<g id="a_node3"><a xlink:href="structgmx__ana__selvalue__t.xhtml" target="_top" xlink:title="Describes a value of a selection expression or of a selection method parameter. ">
<polygon fill="white" stroke="black" points="382.5,-333.5 382.5,-352.5 488.5,-352.5 488.5,-333.5 382.5,-333.5"/>
<text text-anchor="middle" x="435.5" y="-340.5" font-family="Helvetica,sans-Serif" font-size="10.00">gmx_ana_selvalue_t</text>
</a>
</g>
</g>
<!-- Node3&#45;&gt;Node1 -->
<g id="edge6" class="edge"><title>Node3&#45;&gt;Node1</title>
<path fill="none" stroke="#9a32cd" stroke-dasharray="5,2" d="M498.991,-342.953C595.867,-342.287 788.021,-338.602 950,-321 962.285,-319.665 975.473,-317.646 987.724,-315.519"/>
<polygon fill="#9a32cd" stroke="#9a32cd" points="498.765,-339.454 488.787,-343.014 498.807,-346.454 498.765,-339.454"/>
<text text-anchor="middle" x="736.5" y="-341" font-family="Helvetica,sans-Serif" font-size="10.00"> v</text>
</g>
<!-- Node3&#45;&gt;Node2 -->
<g id="edge2" class="edge"><title>Node3&#45;&gt;Node2</title>
<path fill="none" stroke="#9a32cd" stroke-dasharray="5,2" d="M471.131,-330.17C482.434,-326.397 495.131,-322.591 507,-320 526.004,-315.851 547.112,-312.97 565.893,-310.996"/>
<polygon fill="#9a32cd" stroke="#9a32cd" points="469.93,-326.882 461.613,-333.446 472.208,-333.501 469.93,-326.882"/>
<text text-anchor="middle" x="519.5" y="-323" font-family="Helvetica,sans-Serif" font-size="10.00"> val</text>
</g>
<!-- Node4 -->
<g id="node4" class="node"><title>Node4</title>
<g id="a_node4"><a xlink:href="structgmx__ana__index__t.xhtml" target="_top" xlink:title="Stores a single index group. ">
<polygon fill="white" stroke="black" points="181,-333.5 181,-352.5 274,-352.5 274,-333.5 181,-333.5"/>
<text text-anchor="middle" x="227.5" y="-340.5" font-family="Helvetica,sans-Serif" font-size="10.00">gmx_ana_index_t</text>
</a>
</g>
</g>
<!-- Node4&#45;&gt;Node1 -->
<g id="edge13" class="edge"><title>Node4&#45;&gt;Node1</title>
<path fill="none" stroke="#9a32cd" stroke-dasharray="5,2" d="M284.533,-353.9C294.006,-355.469 303.763,-356.916 313,-358 343.509,-361.58 351.295,-361.111 382,-362 610.474,-368.617 668.656,-368.632 896,-345 920.132,-342.491 926.477,-342.943 950,-337 971.891,-331.47 996.004,-322.445 1013.03,-315.555"/>
<polygon fill="#9a32cd" stroke="#9a32cd" points="284.85,-350.404 274.403,-352.162 283.666,-357.303 284.85,-350.404"/>
<text text-anchor="middle" x="621" y="-369" font-family="Helvetica,sans-Serif" font-size="10.00"> cgrp</text>
</g>
<!-- Node4&#45;&gt;Node3 -->
<g id="edge3" class="edge"><title>Node4&#45;&gt;Node3</title>
<path fill="none" stroke="#9a32cd" stroke-dasharray="5,2" d="M284.283,-343C314.823,-343 352.43,-343 382.376,-343"/>
<polygon fill="#9a32cd" stroke="#9a32cd" points="284.218,-339.5 274.218,-343 284.218,-346.5 284.218,-339.5"/>
<text text-anchor="middle" x="338.5" y="-346" font-family="Helvetica,sans-Serif" font-size="10.00"> g</text>
</g>
<!-- Node7 -->
<g id="node7" class="node"><title>Node7</title>
<g id="a_node7"><a xlink:href="structgmx__ana__poscalc__t.xhtml" target="_top" xlink:title="Data structure for position calculation. ">
<polygon fill="white" stroke="black" points="383.5,-438.5 383.5,-457.5 487.5,-457.5 487.5,-438.5 383.5,-438.5"/>
<text text-anchor="middle" x="435.5" y="-445.5" font-family="Helvetica,sans-Serif" font-size="10.00">gmx_ana_poscalc_t</text>
</a>
</g>
</g>
<!-- Node4&#45;&gt;Node7 -->
<g id="edge9" class="edge"><title>Node4&#45;&gt;Node7</title>
<path fill="none" stroke="#9a32cd" stroke-dasharray="5,2" d="M241.316,-360.83C256.237,-380.156 282.733,-410.328 313,-426 334.511,-437.138 360.705,-442.73 383.256,-445.502"/>
<polygon fill="#9a32cd" stroke="#9a32cd" points="243.924,-358.473 235.129,-352.565 238.32,-362.668 243.924,-358.473"/>
<text text-anchor="middle" x="338.5" y="-445" font-family="Helvetica,sans-Serif" font-size="10.00"> gmax</text>
</g>
<!-- Node11 -->
<g id="node11" class="node"><title>Node11</title>
<g id="a_node11"><a xlink:href="structt__compiler__data.xhtml" target="_top" xlink:title="Internal data structure used by the compiler. ">
<polygon fill="white" stroke="black" points="795.5,-250.5 795.5,-269.5 881.5,-269.5 881.5,-250.5 795.5,-250.5"/>
<text text-anchor="middle" x="838.5" y="-257.5" font-family="Helvetica,sans-Serif" font-size="10.00">t_compiler_data</text>
</a>
</g>
</g>
<!-- Node4&#45;&gt;Node11 -->
<g id="edge17" class="edge"><title>Node4&#45;&gt;Node11</title>
<path fill="none" stroke="#9a32cd" stroke-dasharray="5,2" d="M281.715,-331.271C337.574,-319.336 428.076,-301.065 507,-290 610.129,-275.541 732.387,-266.545 795.351,-262.505"/>
<polygon fill="#9a32cd" stroke="#9a32cd" points="280.74,-327.9 271.699,-333.422 282.211,-334.744 280.74,-327.9"/>
<text text-anchor="middle" x="519.5" y="-304" font-family="Helvetica,sans-Serif" font-size="10.00"> gmin</text>
<text text-anchor="middle" x="519.5" y="-293" font-family="Helvetica,sans-Serif" font-size="10.00">gmax</text>
</g>
<!-- Node12 -->
<g id="node12" class="node"><title>Node12</title>
<g id="a_node12"><a xlink:href="structgmx__sel__evaluate__t.xhtml" target="_top" xlink:title="Data structure for passing information required during evaluation. ">
<polygon fill="white" stroke="black" points="569,-194.5 569,-213.5 673,-213.5 673,-194.5 569,-194.5"/>
<text text-anchor="middle" x="621" y="-201.5" font-family="Helvetica,sans-Serif" font-size="10.00">gmx_sel_evaluate_t</text>
</a>
</g>
</g>
<!-- Node4&#45;&gt;Node12 -->
<g id="edge19" class="edge"><title>Node4&#45;&gt;Node12</title>
<path fill="none" stroke="#9a32cd" stroke-dasharray="5,2" d="M240.371,-324.922C254.894,-304.398 281.479,-271.617 313,-255 395.087,-211.726 505.212,-203.561 568.806,-202.875"/>
<polygon fill="#9a32cd" stroke="#9a32cd" points="237.336,-323.159 234.572,-333.387 243.111,-327.115 237.336,-323.159"/>
<text text-anchor="middle" x="435.5" y="-231" font-family="Helvetica,sans-Serif" font-size="10.00"> gall</text>
</g>
<!-- Node5 -->
<g id="node5" class="node"><title>Node5</title>
<g id="a_node5"><a xlink:href="structgmx__ana__pos__t.xhtml" target="_top" xlink:title="Stores a set of positions together with their origins. ">
<polygon fill="white" stroke="black" points="184.5,-472.5 184.5,-491.5 270.5,-491.5 270.5,-472.5 184.5,-472.5"/>
<text text-anchor="middle" x="227.5" y="-479.5" font-family="Helvetica,sans-Serif" font-size="10.00">gmx_ana_pos_t</text>
</a>
</g>
</g>
<!-- Node5&#45;&gt;Node1 -->
<g id="edge22" class="edge"><title>Node5&#45;&gt;Node1</title>
<path fill="none" stroke="#9a32cd" stroke-dasharray="5,2" d="M259.012,-495.507C298.64,-511.792 370.346,-537 434.5,-537 434.5,-537 434.5,-537 839.5,-537 957.576,-537 1019.29,-359.35 1032.69,-315.632"/>
<polygon fill="#9a32cd" stroke="#9a32cd" points="260.227,-492.222 249.652,-491.58 257.519,-498.677 260.227,-492.222"/>
<text text-anchor="middle" x="621" y="-540" font-family="Helvetica,sans-Serif" font-size="10.00"> pos</text>
</g>
<!-- Node5&#45;&gt;Node3 -->
<g id="edge4" class="edge"><title>Node5&#45;&gt;Node3</title>
<path fill="none" stroke="#9a32cd" stroke-dasharray="5,2" d="M246.852,-465.549C263.527,-450.963 289.101,-429.481 313,-413 347.871,-388.952 391.469,-365.256 415.822,-352.543"/>
<polygon fill="#9a32cd" stroke="#9a32cd" points="244.178,-463.241 239,-472.484 248.812,-468.488 244.178,-463.241"/>
<text text-anchor="middle" x="338.5" y="-416" font-family="Helvetica,sans-Serif" font-size="10.00"> p</text>
</g>
<!-- Node5&#45;&gt;Node7 -->
<g id="edge12" class="edge"><title>Node5&#45;&gt;Node7</title>
<path fill="none" stroke="#9a32cd" stroke-dasharray="5,2" d="M280.702,-473.62C305.882,-469.553 336.519,-464.57 364,-460 370.246,-458.961 376.802,-457.86 383.295,-456.763"/>
<polygon fill="#9a32cd" stroke="#9a32cd" points="279.943,-470.197 270.628,-475.245 281.058,-477.108 279.943,-470.197"/>
<text text-anchor="middle" x="338.5" y="-470" font-family="Helvetica,sans-Serif" font-size="10.00"> p</text>
</g>
<!-- Node6 -->
<g id="node6" class="node"><title>Node6</title>
<g id="a_node6"><a xlink:href="structgmx__ana__indexmap__t.xhtml" target="_top" xlink:title="Data structure for calculating index group mappings. ">
<polygon fill="white" stroke="black" points="0,-472.5 0,-491.5 112,-491.5 112,-472.5 0,-472.5"/>
<text text-anchor="middle" x="56" y="-479.5" font-family="Helvetica,sans-Serif" font-size="10.00">gmx_ana_indexmap_t</text>
</a>
</g>
</g>
<!-- Node6&#45;&gt;Node5 -->
<g id="edge5" class="edge"><title>Node6&#45;&gt;Node5</title>
<path fill="none" stroke="#9a32cd" stroke-dasharray="5,2" d="M122.125,-482C143.008,-482 165.573,-482 184.362,-482"/>
<polygon fill="#9a32cd" stroke="#9a32cd" points="122.032,-478.5 112.032,-482 122.032,-485.5 122.032,-478.5"/>
<text text-anchor="middle" x="136" y="-485" font-family="Helvetica,sans-Serif" font-size="10.00"> m</text>
</g>
<!-- Node7&#45;&gt;Node1 -->
<g id="edge7" class="edge"><title>Node7&#45;&gt;Node1</title>
<path fill="none" stroke="#9a32cd" stroke-dasharray="5,2" d="M496.939,-459.09C598.563,-474.422 806.594,-491.279 950,-405 988.335,-381.936 1018.3,-335.743 1030.08,-315.676"/>
<polygon fill="#9a32cd" stroke="#9a32cd" points="497.272,-455.6 486.853,-457.52 496.195,-462.517 497.272,-455.6"/>
<text text-anchor="middle" x="736.5" y="-472" font-family="Helvetica,sans-Serif" font-size="10.00"> pc</text>
</g>
<!-- Node7&#45;&gt;Node7 -->
<g id="edge8" class="edge"><title>Node7&#45;&gt;Node7</title>
<path fill="none" stroke="#9a32cd" stroke-dasharray="5,2" d="M420.031,-467.766C421.246,-472.497 426.402,-476 435.5,-476 450.43,-476 454.745,-466.565 448.447,-457.757"/>
<polygon fill="#9a32cd" stroke="#9a32cd" points="423.503,-468.309 422.553,-457.757 416.716,-466.599 423.503,-468.309"/>
<text text-anchor="middle" x="435.5" y="-501" font-family="Helvetica,sans-Serif" font-size="10.00"> prev</text>
<text text-anchor="middle" x="435.5" y="-490" font-family="Helvetica,sans-Serif" font-size="10.00">next</text>
<text text-anchor="middle" x="435.5" y="-479" font-family="Helvetica,sans-Serif" font-size="10.00">sbase</text>
</g>
<!-- Node8 -->
<g id="node8" class="node"><title>Node8</title>
<g id="a_node8"><a xlink:href="classgmx_1_1PositionCalculationCollection_1_1Impl.xhtml" target="_top" xlink:title="Private implementation class for PositionCalculationCollection. ">
<polygon fill="white" stroke="black" points="558.5,-424 558.5,-454 683.5,-454 683.5,-424 558.5,-424"/>
<text text-anchor="start" x="566.5" y="-442" font-family="Helvetica,sans-Serif" font-size="10.00">gmx::PositionCalculation</text>
<text text-anchor="middle" x="621" y="-431" font-family="Helvetica,sans-Serif" font-size="10.00">Collection::Impl</text>
</a>
</g>
</g>
<!-- Node7&#45;&gt;Node8 -->
<g id="edge11" class="edge"><title>Node7&#45;&gt;Node8</title>
<path fill="none" stroke="#9a32cd" stroke-dasharray="5,2" d="M462.171,-433.636C475.174,-427.17 491.464,-420.265 507,-417 531.938,-411.759 560.065,-417.196 582.019,-423.974"/>
<polygon fill="#9a32cd" stroke="#9a32cd" points="460.2,-430.715 452.935,-438.428 463.423,-436.929 460.2,-430.715"/>
<text text-anchor="middle" x="519.5" y="-431" font-family="Helvetica,sans-Serif" font-size="10.00"> first_</text>
<text text-anchor="middle" x="519.5" y="-420" font-family="Helvetica,sans-Serif" font-size="10.00">last_</text>
</g>
<!-- Node8&#45;&gt;Node7 -->
<g id="edge10" class="edge"><title>Node8&#45;&gt;Node7</title>
<path fill="none" stroke="#9a32cd" stroke-dasharray="5,2" d="M548.275,-442.518C528.019,-443.511 506.394,-444.572 487.615,-445.493"/>
<polygon fill="#9a32cd" stroke="#9a32cd" points="548.588,-446.007 558.405,-442.021 548.245,-439.015 548.588,-446.007"/>
<text text-anchor="middle" x="519.5" y="-447" font-family="Helvetica,sans-Serif" font-size="10.00"> coll</text>
</g>
<!-- Node9 -->
<g id="node9" class="node"><title>Node9</title>
<g id="a_node9"><a xlink:href="structgmx__sel__mempool__t.xhtml" target="_top" xlink:title="Describes a memory pool. ">
<polygon fill="white" stroke="black" points="382,-153.5 382,-172.5 489,-172.5 489,-153.5 382,-153.5"/>
<text text-anchor="middle" x="435.5" y="-160.5" font-family="Helvetica,sans-Serif" font-size="10.00">gmx_sel_mempool_t</text>
</a>
</g>
</g>
<!-- Node9&#45;&gt;Node1 -->
<g id="edge14" class="edge"><title>Node9&#45;&gt;Node1</title>
<path fill="none" stroke="#9a32cd" stroke-dasharray="5,2" d="M496.274,-152.112C499.895,-151.675 503.492,-151.296 507,-151 518.072,-150.064 520.908,-150.354 532,-151 694.627,-160.472 744.995,-132.886 896,-194 954.156,-217.537 1007.39,-273.663 1027.26,-296.294"/>
<polygon fill="#9a32cd" stroke="#9a32cd" points="495.496,-148.685 486.052,-153.487 496.429,-155.623 495.496,-148.685"/>
<text text-anchor="middle" x="736.5" y="-160" font-family="Helvetica,sans-Serif" font-size="10.00"> mempool</text>
</g>
<!-- Node9&#45;&gt;Node12 -->
<g id="edge20" class="edge"><title>Node9&#45;&gt;Node12</title>
<path fill="none" stroke="#9a32cd" stroke-dasharray="5,2" d="M479.927,-175.222C488.852,-177.588 498.207,-179.962 507,-182 527.152,-186.671 549.479,-191.161 568.93,-194.853"/>
<polygon fill="#9a32cd" stroke="#9a32cd" points="480.652,-171.793 470.086,-172.573 478.833,-178.552 480.652,-171.793"/>
<text text-anchor="middle" x="519.5" y="-191" font-family="Helvetica,sans-Serif" font-size="10.00"> mp</text>
</g>
<!-- Node10 -->
<g id="node10" class="node"><title>Node10</title>
<g id="a_node10"><a xlink:href="structgmx__sel__mempool__block__t.xhtml" target="_top" xlink:title="Describes a single block allocated from the memory pool. ">
<polygon fill="white" stroke="black" points="160,-153.5 160,-172.5 295,-172.5 295,-153.5 160,-153.5"/>
<text text-anchor="middle" x="227.5" y="-160.5" font-family="Helvetica,sans-Serif" font-size="10.00">gmx_sel_mempool_block_t</text>
</a>
</g>
</g>
<!-- Node10&#45;&gt;Node9 -->
<g id="edge15" class="edge"><title>Node10&#45;&gt;Node9</title>
<path fill="none" stroke="#9a32cd" stroke-dasharray="5,2" d="M305.13,-163C330.669,-163 358.527,-163 381.829,-163"/>
<polygon fill="#9a32cd" stroke="#9a32cd" points="305.098,-159.5 295.098,-163 305.098,-166.5 305.098,-159.5"/>
<text text-anchor="middle" x="338.5" y="-166" font-family="Helvetica,sans-Serif" font-size="10.00"> blockstack</text>
</g>
<!-- Node11&#45;&gt;Node1 -->
<g id="edge16" class="edge"><title>Node11&#45;&gt;Node1</title>
<path fill="none" stroke="#9a32cd" stroke-dasharray="5,2" d="M891.683,-268.846C910.184,-272.265 931.098,-276.452 950,-281 968.645,-285.486 989.287,-291.492 1005.62,-296.493"/>
<polygon fill="#9a32cd" stroke="#9a32cd" points="892.146,-265.373 881.681,-267.029 890.894,-272.26 892.146,-265.373"/>
<text text-anchor="middle" x="932" y="-284" font-family="Helvetica,sans-Serif" font-size="10.00"> cdata</text>
</g>
<!-- Node12&#45;&gt;Node1 -->
<g id="edge29" class="edge"><title>Node12&#45;&gt;Node1</title>
<path fill="none" stroke="#9a32cd" stroke-dasharray="5,2" d="M683.083,-194.995C707.946,-192.657 736.916,-191.625 763,-195 823.618,-202.843 839.193,-207.437 896,-230 943.675,-248.936 995.713,-280.476 1020.61,-296.308"/>
<polygon fill="#9a32cd" stroke="#9a32cd" points="682.648,-191.521 673.059,-196.028 683.365,-198.484 682.648,-191.521"/>
<text text-anchor="middle" x="838.5" y="-233" font-family="Helvetica,sans-Serif" font-size="10.00"> evaluate</text>
</g>
<!-- Node12&#45;&gt;Node11 -->
<g id="edge18" class="edge"><title>Node12&#45;&gt;Node11</title>
<path fill="none" stroke="#9a32cd" stroke-dasharray="5,2" d="M683.326,-198.158C708.573,-197.681 737.758,-199.667 763,-208 789.361,-216.703 814.689,-238.017 827.944,-250.489"/>
<polygon fill="#9a32cd" stroke="#9a32cd" points="683.018,-194.666 673.136,-198.486 683.243,-201.663 683.018,-194.666"/>
<text text-anchor="middle" x="736.5" y="-211" font-family="Helvetica,sans-Serif" font-size="10.00"> evaluate</text>
</g>
<!-- Node13 -->
<g id="node13" class="node"><title>Node13</title>
<g id="a_node13"><a xlink:href="structt__pbc.xhtml" target="_top" xlink:title="Structure containing info on periodic boundary conditions. ">
<polygon fill="white" stroke="black" points="415,-73.5 415,-92.5 456,-92.5 456,-73.5 415,-73.5"/>
<text text-anchor="middle" x="435.5" y="-80.5" font-family="Helvetica,sans-Serif" font-size="10.00">t_pbc</text>
</a>
</g>
</g>
<!-- Node13&#45;&gt;Node12 -->
<g id="edge21" class="edge"><title>Node13&#45;&gt;Node12</title>
<path fill="none" stroke="#9a32cd" stroke-dasharray="5,2" d="M459.678,-98.2839C498.069,-123.599 573.761,-173.51 605.478,-194.424"/>
<polygon fill="#9a32cd" stroke="#9a32cd" points="461.482,-95.2804 451.206,-92.6974 457.628,-101.124 461.482,-95.2804"/>
<text text-anchor="middle" x="519.5" y="-147" font-family="Helvetica,sans-Serif" font-size="10.00"> pbc</text>
</g>
<!-- Node15 -->
<g id="node15" class="node"><title>Node15</title>
<g id="a_node15"><a xlink:href="structgmx_1_1SelMethodEvalContext.xhtml" target="_top" xlink:title="Evaluation context for selection methods. ">
<polygon fill="white" stroke="black" points="550,-0.5 550,-19.5 692,-19.5 692,-0.5 550,-0.5"/>
<text text-anchor="middle" x="621" y="-7.5" font-family="Helvetica,sans-Serif" font-size="10.00">gmx::SelMethodEvalContext</text>
</a>
</g>
</g>
<!-- Node13&#45;&gt;Node15 -->
<g id="edge26" class="edge"><title>Node13&#45;&gt;Node15</title>
<path fill="none" stroke="#9a32cd" stroke-dasharray="5,2" d="M463.615,-68.8493C486.289,-57.3812 519.697,-41.3226 550,-30 560.419,-26.107 571.946,-22.5272 582.589,-19.5052"/>
<polygon fill="#9a32cd" stroke="#9a32cd" points="461.909,-65.7904 454.596,-73.4559 465.093,-72.0244 461.909,-65.7904"/>
<text text-anchor="middle" x="519.5" y="-51" font-family="Helvetica,sans-Serif" font-size="10.00"> pbc</text>
</g>
<!-- Node14&#45;&gt;Node1 -->
<g id="edge23" class="edge"><title>Node14&#45;&gt;Node1</title>
<path fill="none" stroke="#9a32cd" stroke-dasharray="5,2" d="M906.287,-95.8991C921.811,-98.0089 937.448,-102.724 950,-112 1013.64,-159.029 1030.69,-263.9 1034.52,-296.285"/>
<polygon fill="#9a32cd" stroke="#9a32cd" points="906.439,-92.3965 896.136,-94.8671 905.731,-99.3606 906.439,-92.3965"/>
<text text-anchor="middle" x="932" y="-115" font-family="Helvetica,sans-Serif" font-size="10.00"> method</text>
</g>
<!-- Node15&#45;&gt;Node14 -->
<g id="edge25" class="edge"><title>Node15&#45;&gt;Node14</title>
<path fill="none" stroke="#9a32cd" stroke-dasharray="5,2" d="M702.259,-18.1601C722.716,-22.1599 744.217,-28.1197 763,-37 790.383,-49.946 816.09,-75.3386 828.941,-89.2744"/>
<polygon fill="#9a32cd" stroke="#9a32cd" points="702.782,-14.6978 692.317,-16.3498 701.528,-21.5846 702.782,-14.6978"/>
<text text-anchor="middle" x="736.5" y="-62" font-family="Helvetica,sans-Serif" font-size="10.00"> pupdate</text>
<text text-anchor="middle" x="736.5" y="-51" font-family="Helvetica,sans-Serif" font-size="10.00">update</text>
<text text-anchor="middle" x="736.5" y="-40" font-family="Helvetica,sans-Serif" font-size="10.00">init_frame</text>
</g>
<!-- Node16 -->
<g id="node16" class="node"><title>Node16</title>
<g id="a_node16"><a xlink:href="structgmx__ana__selmethod__help__t.xhtml" target="_top" xlink:title="Help information for a selection method. ">
<polygon fill="white" stroke="black" points="552,-89.5 552,-108.5 690,-108.5 690,-89.5 552,-89.5"/>
<text text-anchor="middle" x="621" y="-96.5" font-family="Helvetica,sans-Serif" font-size="10.00">gmx_ana_selmethod_help_t</text>
</a>
</g>
</g>
<!-- Node16&#45;&gt;Node14 -->
<g id="edge27" class="edge"><title>Node16&#45;&gt;Node14</title>
<path fill="none" stroke="#9a32cd" stroke-dasharray="5,2" d="M700.276,-99C726.977,-99 756.294,-99 780.95,-99"/>
<polygon fill="#9a32cd" stroke="#9a32cd" points="700.186,-95.5001 690.186,-99 700.186,-102.5 700.186,-95.5001"/>
<text text-anchor="middle" x="736.5" y="-102" font-family="Helvetica,sans-Serif" font-size="10.00"> help</text>
</g>
<!-- Node17 -->
<g id="node17" class="node"><title>Node17</title>
<g id="a_node17"><a xlink:href="classgmx_1_1PositionCalculationCollection.xhtml" target="_top" xlink:title="Collection of gmx_ana_poscalc_t structures for the same topology. ">
<polygon fill="white" stroke="black" points="558.5,-40 558.5,-70 683.5,-70 683.5,-40 558.5,-40"/>
<text text-anchor="start" x="566.5" y="-58" font-family="Helvetica,sans-Serif" font-size="10.00">gmx::PositionCalculation</text>
<text text-anchor="middle" x="621" y="-47" font-family="Helvetica,sans-Serif" font-size="10.00">Collection</text>
</a>
</g>
</g>
<!-- Node17&#45;&gt;Node14 -->
<g id="edge28" class="edge"><title>Node17&#45;&gt;Node14</title>
<path fill="none" stroke="#9a32cd" stroke-dasharray="5,2" d="M693.937,-69.6879C725.866,-76.207 762.529,-83.6927 790.812,-89.4675"/>
<polygon fill="#9a32cd" stroke="#9a32cd" points="694.252,-66.18 683.754,-67.6086 692.851,-73.0385 694.252,-66.18"/>
<text text-anchor="middle" x="736.5" y="-87" font-family="Helvetica,sans-Serif" font-size="10.00"> set_poscoll</text>
</g>
</g>
</svg>
