<?xml version="1.0" encoding="UTF-8" standalone="no"?>
<!DOCTYPE svg PUBLIC "-//W3C//DTD SVG 1.1//EN"
 "http://www.w3.org/Graphics/SVG/1.1/DTD/svg11.dtd">
<!-- Generated by graphviz version 2.38.0 (20140413.2041)
 -->
<!-- Title: gmx::FileNameOptionStorage Pages: 1 -->
<svg width="154pt" height="218pt"
 viewBox="0.00 0.00 154.00 218.00" xmlns="http://www.w3.org/2000/svg" xmlns:xlink="http://www.w3.org/1999/xlink">
<g id="graph0" class="graph" transform="scale(1 1) rotate(0) translate(4 214)">
<title>gmx::FileNameOptionStorage</title>
<polygon fill="white" stroke="none" points="-4,4 -4,-214 150,-214 150,4 -4,4"/>
<!-- Node1 -->
<g id="node1" class="node"><title>Node1</title>
<polygon fill="#bfbfbf" stroke="black" points="0,-0.5 0,-19.5 146,-19.5 146,-0.5 0,-0.5"/>
<text text-anchor="middle" x="73" y="-7.5" font-family="Helvetica,sans-Serif" font-size="10.00">gmx::FileNameOptionStorage</text>
</g>
<!-- Node2 -->
<g id="node2" class="node"><title>Node2</title>
<g id="a_node2"><a xlink:href="classgmx_1_1OptionStorageTemplateSimple.xhtml" target="_top" xlink:title="gmx::OptionStorageTemplate\lSimple\&lt; std::string \&gt;">
<polygon fill="white" stroke="black" points="1,-56.5 1,-86.5 145,-86.5 145,-56.5 1,-56.5"/>
<text text-anchor="start" x="9" y="-74.5" font-family="Helvetica,sans-Serif" font-size="10.00">gmx::OptionStorageTemplate</text>
<text text-anchor="middle" x="73" y="-63.5" font-family="Helvetica,sans-Serif" font-size="10.00">Simple&lt; std::string &gt;</text>
</a>
</g>
</g>
<!-- Node2&#45;&gt;Node1 -->
<g id="edge1" class="edge"><title>Node2&#45;&gt;Node1</title>
<path fill="none" stroke="midnightblue" d="M73,-46.2892C73,-36.857 73,-26.6548 73,-19.6578"/>
<polygon fill="midnightblue" stroke="midnightblue" points="69.5001,-46.3993 73,-56.3993 76.5001,-46.3994 69.5001,-46.3993"/>
</g>
<!-- Node3 -->
<g id="node3" class="node"><title>Node3</title>
<g id="a_node3"><a xlink:href="classgmx_1_1OptionStorageTemplate.xhtml" target="_top" xlink:title="gmx::OptionStorageTemplate\l\&lt; std::string \&gt;">
<polygon fill="white" stroke="black" points="1,-123.5 1,-153.5 145,-153.5 145,-123.5 1,-123.5"/>
<text text-anchor="start" x="9" y="-141.5" font-family="Helvetica,sans-Serif" font-size="10.00">gmx::OptionStorageTemplate</text>
<text text-anchor="middle" x="73" y="-130.5" font-family="Helvetica,sans-Serif" font-size="10.00">&lt; std::string &gt;</text>
</a>
</g>
</g>
<!-- Node3&#45;&gt;Node2 -->
<g id="edge2" class="edge"><title>Node3&#45;&gt;Node2</title>
<path fill="none" stroke="midnightblue" d="M73,-113.108C73,-104.154 73,-94.3227 73,-86.5765"/>
<polygon fill="midnightblue" stroke="midnightblue" points="69.5001,-113.396 73,-123.396 76.5001,-113.396 69.5001,-113.396"/>
</g>
<!-- Node4 -->
<g id="node4" class="node"><title>Node4</title>
<g id="a_node4"><a xlink:href="classgmx_1_1AbstractOptionStorage.xhtml" target="_top" xlink:title="Abstract base class for converting, validating, and storing option values. ">
<polygon fill="white" stroke="black" points="3,-190.5 3,-209.5 143,-209.5 143,-190.5 3,-190.5"/>
<text text-anchor="middle" x="73" y="-197.5" font-family="Helvetica,sans-Serif" font-size="10.00">gmx::AbstractOptionStorage</text>
</a>
</g>
</g>
<!-- Node4&#45;&gt;Node3 -->
<g id="edge3" class="edge"><title>Node4&#45;&gt;Node3</title>
<path fill="none" stroke="midnightblue" d="M73,-180.235C73,-171.586 73,-161.497 73,-153.523"/>
<polygon fill="midnightblue" stroke="midnightblue" points="69.5001,-180.475 73,-190.475 76.5001,-180.475 69.5001,-180.475"/>
</g>
</g>
</svg>
