<?xml version="1.0" encoding="UTF-8" standalone="no"?>
<!DOCTYPE svg PUBLIC "-//W3C//DTD SVG 1.1//EN"
 "http://www.w3.org/Graphics/SVG/1.1/DTD/svg11.dtd">
<!-- Generated by graphviz version 2.38.0 (20140413.2041)
 -->
<!-- Title: src/testutils/cmdlinetest.cpp Pages: 1 -->
<svg width="2428pt" height="341pt"
 viewBox="0.00 0.00 2427.50 341.00" xmlns="http://www.w3.org/2000/svg" xmlns:xlink="http://www.w3.org/1999/xlink">
<g id="graph0" class="graph" transform="scale(1 1) rotate(0) translate(4 337)">
<title>src/testutils/cmdlinetest.cpp</title>
<polygon fill="white" stroke="none" points="-4,4 -4,-337 2423.5,-337 2423.5,4 -4,4"/>
<!-- Node1 -->
<g id="node1" class="node"><title>Node1</title>
<polygon fill="#bfbfbf" stroke="black" points="1545.5,-313.5 1545.5,-332.5 1685.5,-332.5 1685.5,-313.5 1545.5,-313.5"/>
<text text-anchor="middle" x="1615.5" y="-320.5" font-family="Helvetica,sans-Serif" font-size="10.00">src/testutils/cmdlinetest.cpp</text>
</g>
<!-- Node2 -->
<g id="node2" class="node"><title>Node2</title>
<g id="a_node2"><a xlink:href="gmxpre_8h.xhtml" target="_top" xlink:title="Prerequisite header file for GROMACS build. ">
<polygon fill="white" stroke="black" points="0,-252 0,-271 57,-271 57,-252 0,-252"/>
<text text-anchor="middle" x="28.5" y="-259" font-family="Helvetica,sans-Serif" font-size="10.00">gmxpre.h</text>
</a>
</g>
</g>
<!-- Node1&#45;&gt;Node2 -->
<g id="edge1" class="edge"><title>Node1&#45;&gt;Node2</title>
<path fill="none" stroke="midnightblue" d="M1545.47,-321.177C1263.23,-317.694 217.426,-303.13 71.5,-277 67.5135,-276.286 63.3941,-275.274 59.356,-274.113"/>
<polygon fill="midnightblue" stroke="midnightblue" points="60.1982,-270.708 49.6075,-271.003 58.0704,-277.377 60.1982,-270.708"/>
</g>
<!-- Node3 -->
<g id="node3" class="node"><title>Node3</title>
<g id="a_node3"><a xlink:href="cmdlinetest_8h.xhtml" target="_top" xlink:title="Declares utilities testing command&#45;line programs. ">
<polygon fill="white" stroke="black" points="747,-252 747,-271 822,-271 822,-252 747,-252"/>
<text text-anchor="middle" x="784.5" y="-259" font-family="Helvetica,sans-Serif" font-size="10.00">cmdlinetest.h</text>
</a>
</g>
</g>
<!-- Node1&#45;&gt;Node3 -->
<g id="edge2" class="edge"><title>Node1&#45;&gt;Node3</title>
<path fill="none" stroke="midnightblue" d="M1545.27,-319.222C1416.18,-313.758 1132.62,-300.097 894.5,-277 874.023,-275.014 851.485,-272.161 832.171,-269.51"/>
<polygon fill="midnightblue" stroke="midnightblue" points="832.488,-266.021 822.1,-268.107 831.522,-272.954 832.488,-266.021"/>
</g>
<!-- Node5 -->
<g id="node5" class="node"><title>Node5</title>
<polygon fill="white" stroke="#bfbfbf" points="625.5,-62 625.5,-81 677.5,-81 677.5,-62 625.5,-62"/>
<text text-anchor="middle" x="651.5" y="-69" font-family="Helvetica,sans-Serif" font-size="10.00">memory</text>
</g>
<!-- Node1&#45;&gt;Node5 -->
<g id="edge23" class="edge"><title>Node1&#45;&gt;Node5</title>
<path fill="none" stroke="midnightblue" d="M1545.23,-321.309C1283.89,-318.518 376.706,-306.763 250.5,-277 181.011,-260.613 143.044,-270.097 104.5,-210 57.8847,-137.319 185.796,-131.157 212.5,-123 356.856,-78.9077 538.622,-72.7608 615.032,-72.2774"/>
<polygon fill="midnightblue" stroke="midnightblue" points="615.111,-75.7773 625.099,-72.2435 615.087,-68.7773 615.111,-75.7773"/>
</g>
<!-- Node8 -->
<g id="node8" class="node"><title>Node8</title>
<g id="a_node8"><a xlink:href="arrayref_8h.xhtml" target="_top" xlink:title="Declares gmx::ArrayRef. ">
<polygon fill="white" stroke="black" points="1737,-185 1737,-204 1862,-204 1862,-185 1737,-185"/>
<text text-anchor="middle" x="1799.5" y="-192" font-family="Helvetica,sans-Serif" font-size="10.00">gromacs/utility/arrayref.h</text>
</a>
</g>
</g>
<!-- Node1&#45;&gt;Node8 -->
<g id="edge45" class="edge"><title>Node1&#45;&gt;Node8</title>
<path fill="none" stroke="midnightblue" d="M1644.39,-313.497C1666.91,-306.037 1698.32,-293.757 1722.5,-277 1748.66,-258.874 1772.81,-230.657 1786.85,-212.632"/>
<polygon fill="midnightblue" stroke="midnightblue" points="1789.96,-214.323 1793.23,-204.243 1784.39,-210.087 1789.96,-214.323"/>
</g>
<!-- Node14 -->
<g id="node14" class="node"><title>Node14</title>
<polygon fill="white" stroke="#bfbfbf" points="1516.5,-123.5 1516.5,-142.5 1560.5,-142.5 1560.5,-123.5 1516.5,-123.5"/>
<text text-anchor="middle" x="1538.5" y="-130.5" font-family="Helvetica,sans-Serif" font-size="10.00">vector</text>
</g>
<!-- Node1&#45;&gt;Node14 -->
<g id="edge26" class="edge"><title>Node1&#45;&gt;Node14</title>
<path fill="none" stroke="midnightblue" d="M1626.4,-313.387C1654.36,-290.256 1724.08,-225.392 1689.5,-179 1687.67,-176.539 1614.15,-155.402 1570.39,-142.991"/>
<polygon fill="midnightblue" stroke="midnightblue" points="1571.33,-139.619 1560.75,-140.263 1569.42,-146.354 1571.33,-139.619"/>
</g>
<!-- Node15 -->
<g id="node15" class="node"><title>Node15</title>
<g id="a_node15"><a xlink:href="gmxassert_8h.xhtml" target="_top" xlink:title="Defines assert macros customized for Gromacs. ">
<polygon fill="white" stroke="black" points="1942,-123.5 1942,-142.5 2079,-142.5 2079,-123.5 1942,-123.5"/>
<text text-anchor="middle" x="2010.5" y="-130.5" font-family="Helvetica,sans-Serif" font-size="10.00">gromacs/utility/gmxassert.h</text>
</a>
</g>
</g>
<!-- Node1&#45;&gt;Node15 -->
<g id="edge46" class="edge"><title>Node1&#45;&gt;Node15</title>
<path fill="none" stroke="midnightblue" d="M1685.66,-318.566C1787.03,-312.898 1969.03,-299.873 2030.5,-277 2079.61,-258.727 2103.16,-256.398 2127.5,-210 2133.9,-197.799 2135.3,-190.357 2127.5,-179 2116.33,-162.73 2098.39,-152.341 2079.87,-145.706"/>
<polygon fill="midnightblue" stroke="midnightblue" points="2080.77,-142.317 2070.18,-142.568 2078.61,-148.977 2080.77,-142.317"/>
</g>
<!-- Node21 -->
<g id="node21" class="node"><title>Node21</title>
<polygon fill="white" stroke="#bfbfbf" points="2251,-252 2251,-271 2296,-271 2296,-252 2251,-252"/>
<text text-anchor="middle" x="2273.5" y="-259" font-family="Helvetica,sans-Serif" font-size="10.00">cstdlib</text>
</g>
<!-- Node1&#45;&gt;Node21 -->
<g id="edge21" class="edge"><title>Node1&#45;&gt;Node21</title>
<path fill="none" stroke="midnightblue" d="M1685.62,-319.572C1825.24,-314.303 2133.39,-300.374 2236.5,-277 2239.5,-276.32 2242.57,-275.438 2245.61,-274.444"/>
<polygon fill="midnightblue" stroke="midnightblue" points="2246.83,-277.723 2255.02,-271 2244.43,-271.149 2246.83,-277.723"/>
</g>
<!-- Node22 -->
<g id="node22" class="node"><title>Node22</title>
<polygon fill="white" stroke="#bfbfbf" points="2241.5,-123.5 2241.5,-142.5 2287.5,-142.5 2287.5,-123.5 2241.5,-123.5"/>
<text text-anchor="middle" x="2264.5" y="-130.5" font-family="Helvetica,sans-Serif" font-size="10.00">cstring</text>
</g>
<!-- Node1&#45;&gt;Node22 -->
<g id="edge22" class="edge"><title>Node1&#45;&gt;Node22</title>
<path fill="none" stroke="midnightblue" d="M1685.65,-319.902C1797.03,-315.783 2008.83,-304.517 2078.5,-277 2151.88,-248.018 2220.7,-181.031 2249.85,-150.14"/>
<polygon fill="midnightblue" stroke="midnightblue" points="2252.45,-152.485 2256.69,-142.776 2247.32,-147.721 2252.45,-152.485"/>
</g>
<!-- Node23 -->
<g id="node23" class="node"><title>Node23</title>
<polygon fill="white" stroke="#bfbfbf" points="2314,-252 2314,-271 2349,-271 2349,-252 2314,-252"/>
<text text-anchor="middle" x="2331.5" y="-259" font-family="Helvetica,sans-Serif" font-size="10.00">new</text>
</g>
<!-- Node1&#45;&gt;Node23 -->
<g id="edge24" class="edge"><title>Node1&#45;&gt;Node23</title>
<path fill="none" stroke="midnightblue" d="M1685.56,-321.332C1837.1,-319.256 2190.87,-310.825 2305.5,-277 2306.93,-276.579 2308.36,-276.071 2309.78,-275.498"/>
<polygon fill="midnightblue" stroke="midnightblue" points="2311.35,-278.627 2318.78,-271.071 2308.26,-272.346 2311.35,-278.627"/>
</g>
<!-- Node24 -->
<g id="node24" class="node"><title>Node24</title>
<polygon fill="white" stroke="#bfbfbf" points="2367.5,-252 2367.5,-271 2419.5,-271 2419.5,-252 2367.5,-252"/>
<text text-anchor="middle" x="2393.5" y="-259" font-family="Helvetica,sans-Serif" font-size="10.00">sstream</text>
</g>
<!-- Node1&#45;&gt;Node24 -->
<g id="edge25" class="edge"><title>Node1&#45;&gt;Node24</title>
<path fill="none" stroke="midnightblue" d="M1685.53,-320.715C1845.12,-317.308 2231.79,-306.218 2358.5,-277 2361.17,-276.384 2363.9,-275.584 2366.6,-274.676"/>
<polygon fill="midnightblue" stroke="midnightblue" points="2367.98,-277.895 2376.07,-271.054 2365.48,-271.357 2367.98,-277.895"/>
</g>
<!-- Node25 -->
<g id="node25" class="node"><title>Node25</title>
<g id="a_node25"><a xlink:href="cmdlinehelpcontext_8h.xhtml" target="_top" xlink:title="Declares gmx::CommandLineHelpContext. ">
<polygon fill="white" stroke="black" points="1399,-246.5 1399,-276.5 1514,-276.5 1514,-246.5 1399,-246.5"/>
<text text-anchor="start" x="1407" y="-264.5" font-family="Helvetica,sans-Serif" font-size="10.00">gromacs/commandline</text>
<text text-anchor="middle" x="1456.5" y="-253.5" font-family="Helvetica,sans-Serif" font-size="10.00">/cmdlinehelpcontext.h</text>
</a>
</g>
</g>
<!-- Node1&#45;&gt;Node25 -->
<g id="edge27" class="edge"><title>Node1&#45;&gt;Node25</title>
<path fill="none" stroke="midnightblue" d="M1592.72,-313.475C1569.57,-304.814 1533.05,-291.145 1503.64,-280.141"/>
<polygon fill="midnightblue" stroke="midnightblue" points="1504.57,-276.75 1493.97,-276.523 1502.11,-283.306 1504.57,-276.75"/>
</g>
<!-- Node27 -->
<g id="node27" class="node"><title>Node27</title>
<g id="a_node27"><a xlink:href="cmdlineoptionsmodule_8h.xhtml" target="_top" xlink:title="Declares gmx::ICommandLineOptionsModule and supporting routines. ">
<polygon fill="white" stroke="black" points="340,-246.5 340,-276.5 465,-276.5 465,-246.5 340,-246.5"/>
<text text-anchor="start" x="348" y="-264.5" font-family="Helvetica,sans-Serif" font-size="10.00">gromacs/commandline</text>
<text text-anchor="middle" x="402.5" y="-253.5" font-family="Helvetica,sans-Serif" font-size="10.00">/cmdlineoptionsmodule.h</text>
</a>
</g>
</g>
<!-- Node1&#45;&gt;Node27 -->
<g id="edge34" class="edge"><title>Node1&#45;&gt;Node27</title>
<path fill="none" stroke="midnightblue" d="M1545.49,-319.071C1385.85,-312.321 982.616,-294.877 645.5,-277 588.271,-273.965 523.488,-270.077 475.212,-267.091"/>
<polygon fill="midnightblue" stroke="midnightblue" points="475.367,-263.594 465.169,-266.468 474.933,-270.581 475.367,-263.594"/>
</g>
<!-- Node29 -->
<g id="node29" class="node"><title>Node29</title>
<g id="a_node29"><a xlink:href="cmdlineprogramcontext_8h.xhtml" target="_top" xlink:title="Declares gmx::CommandLineProgramContext. ">
<polygon fill="white" stroke="black" points="1551,-179.5 1551,-209.5 1680,-209.5 1680,-179.5 1551,-179.5"/>
<text text-anchor="start" x="1559" y="-197.5" font-family="Helvetica,sans-Serif" font-size="10.00">gromacs/commandline</text>
<text text-anchor="middle" x="1615.5" y="-186.5" font-family="Helvetica,sans-Serif" font-size="10.00">/cmdlineprogramcontext.h</text>
</a>
</g>
</g>
<!-- Node1&#45;&gt;Node29 -->
<g id="edge39" class="edge"><title>Node1&#45;&gt;Node29</title>
<path fill="none" stroke="midnightblue" d="M1615.5,-313.305C1615.5,-294.298 1615.5,-248.47 1615.5,-219.9"/>
<polygon fill="midnightblue" stroke="midnightblue" points="1619,-219.888 1615.5,-209.888 1612,-219.888 1619,-219.888"/>
</g>
<!-- Node31 -->
<g id="node31" class="node"><title>Node31</title>
<g id="a_node31"><a xlink:href="strconvert_8h.xhtml" target="_top" xlink:title="Declares common utility functions for conversions to and from strings. ">
<polygon fill="white" stroke="black" points="1858,-252 1858,-271 1993,-271 1993,-252 1858,-252"/>
<text text-anchor="middle" x="1925.5" y="-259" font-family="Helvetica,sans-Serif" font-size="10.00">gromacs/utility/strconvert.h</text>
</a>
</g>
</g>
<!-- Node1&#45;&gt;Node31 -->
<g id="edge47" class="edge"><title>Node1&#45;&gt;Node31</title>
<path fill="none" stroke="midnightblue" d="M1659.92,-313.475C1715.62,-302.783 1811.1,-284.458 1871.12,-272.937"/>
<polygon fill="midnightblue" stroke="midnightblue" points="1872.01,-276.331 1881.17,-271.009 1870.69,-269.457 1872.01,-276.331"/>
</g>
<!-- Node32 -->
<g id="node32" class="node"><title>Node32</title>
<g id="a_node32"><a xlink:href="stringutil_8h.xhtml" target="_top" xlink:title="Declares common string utility and formatting routines. ">
<polygon fill="white" stroke="black" points="1990.5,-185 1990.5,-204 2118.5,-204 2118.5,-185 1990.5,-185"/>
<text text-anchor="middle" x="2054.5" y="-192" font-family="Helvetica,sans-Serif" font-size="10.00">gromacs/utility/stringutil.h</text>
</a>
</g>
</g>
<!-- Node1&#45;&gt;Node32 -->
<g id="edge60" class="edge"><title>Node1&#45;&gt;Node32</title>
<path fill="none" stroke="midnightblue" d="M1685.55,-320.954C1782.43,-318.324 1951.19,-309.122 2002.5,-277 2025.91,-262.347 2040.71,-232.864 2048.29,-213.667"/>
<polygon fill="midnightblue" stroke="midnightblue" points="2051.6,-214.812 2051.77,-204.219 2045.03,-212.392 2051.6,-214.812"/>
</g>
<!-- Node34 -->
<g id="node34" class="node"><title>Node34</title>
<g id="a_node34"><a xlink:href="stringstream_8h.xhtml" target="_top" xlink:title="Declares implementations for textstream.h interfaces for input/output to in&#45;memory strings...">
<polygon fill="white" stroke="black" points="1190.5,-185 1190.5,-204 1336.5,-204 1336.5,-185 1190.5,-185"/>
<text text-anchor="middle" x="1263.5" y="-192" font-family="Helvetica,sans-Serif" font-size="10.00">gromacs/utility/stringstream.h</text>
</a>
</g>
</g>
<!-- Node1&#45;&gt;Node34 -->
<g id="edge55" class="edge"><title>Node1&#45;&gt;Node34</title>
<path fill="none" stroke="midnightblue" d="M1545.3,-314.95C1499.66,-308.704 1439.55,-297.301 1389.5,-277 1347.97,-260.155 1305.36,-229.148 1281.87,-210.618"/>
<polygon fill="midnightblue" stroke="midnightblue" points="1283.84,-207.71 1273.85,-204.183 1279.46,-213.17 1283.84,-207.71"/>
</g>
<!-- Node36 -->
<g id="node36" class="node"><title>Node36</title>
<g id="a_node36"><a xlink:href="textreader_8h.xhtml" target="_top" xlink:title="Declares gmx::TextReader. ">
<polygon fill="white" stroke="black" points="813,-185 813,-204 948,-204 948,-185 813,-185"/>
<text text-anchor="middle" x="880.5" y="-192" font-family="Helvetica,sans-Serif" font-size="10.00">gromacs/utility/textreader.h</text>
</a>
</g>
</g>
<!-- Node1&#45;&gt;Node36 -->
<g id="edge61" class="edge"><title>Node1&#45;&gt;Node36</title>
<path fill="none" stroke="midnightblue" d="M1545.38,-316.734C1465.58,-310.125 1331.51,-297.151 1217.5,-277 1108.85,-257.797 983.023,-224.311 920.315,-206.84"/>
<polygon fill="midnightblue" stroke="midnightblue" points="921.016,-203.402 910.443,-204.076 919.129,-210.143 921.016,-203.402"/>
</g>
<!-- Node37 -->
<g id="node37" class="node"><title>Node37</title>
<g id="a_node37"><a xlink:href="textwriter_8h.xhtml" target="_top" xlink:title="Declares gmx::TextWriter. ">
<polygon fill="white" stroke="black" points="534.5,-185 534.5,-204 666.5,-204 666.5,-185 534.5,-185"/>
<text text-anchor="middle" x="600.5" y="-192" font-family="Helvetica,sans-Serif" font-size="10.00">gromacs/utility/textwriter.h</text>
</a>
</g>
</g>
<!-- Node1&#45;&gt;Node37 -->
<g id="edge65" class="edge"><title>Node1&#45;&gt;Node37</title>
<path fill="none" stroke="midnightblue" d="M1545.32,-322.733C1364.8,-323.93 887.967,-322.546 737.5,-277 691.059,-262.942 643.97,-229.912 618.904,-210.491"/>
<polygon fill="midnightblue" stroke="midnightblue" points="621.01,-207.695 610.994,-204.242 616.671,-213.188 621.01,-207.695"/>
</g>
<!-- Node39 -->
<g id="node39" class="node"><title>Node39</title>
<g id="a_node39"><a xlink:href="filematchers_8h.xhtml" target="_top" xlink:title="Declares utility classes for testing file contents. ">
<polygon fill="white" stroke="black" points="113.5,-185 113.5,-204 229.5,-204 229.5,-185 113.5,-185"/>
<text text-anchor="middle" x="171.5" y="-192" font-family="Helvetica,sans-Serif" font-size="10.00">testutils/filematchers.h</text>
</a>
</g>
</g>
<!-- Node1&#45;&gt;Node39 -->
<g id="edge70" class="edge"><title>Node1&#45;&gt;Node39</title>
<path fill="none" stroke="midnightblue" d="M1545.46,-321.329C1294.37,-318.681 448.043,-307.557 330.5,-277 277.133,-263.127 221.216,-229.224 192.022,-209.797"/>
<polygon fill="midnightblue" stroke="midnightblue" points="193.763,-206.748 183.519,-204.042 189.839,-212.545 193.763,-206.748"/>
</g>
<!-- Node40 -->
<g id="node40" class="node"><title>Node40</title>
<g id="a_node40"><a xlink:href="refdata_8h.xhtml" target="_top" xlink:title="Functionality for writing tests that can produce their own reference data. ">
<polygon fill="white" stroke="black" points="1880.5,-185 1880.5,-204 1972.5,-204 1972.5,-185 1880.5,-185"/>
<text text-anchor="middle" x="1926.5" y="-192" font-family="Helvetica,sans-Serif" font-size="10.00">testutils/refdata.h</text>
</a>
</g>
</g>
<!-- Node1&#45;&gt;Node40 -->
<g id="edge73" class="edge"><title>Node1&#45;&gt;Node40</title>
<path fill="none" stroke="midnightblue" d="M1645.22,-313.482C1673.43,-305.124 1716.84,-291.545 1753.5,-277 1807.15,-255.713 1867.71,-225.755 1901.06,-208.718"/>
<polygon fill="midnightblue" stroke="midnightblue" points="1902.81,-211.753 1910.1,-204.071 1899.61,-205.527 1902.81,-211.753"/>
</g>
<!-- Node41 -->
<g id="node41" class="node"><title>Node41</title>
<g id="a_node41"><a xlink:href="testfilemanager_8h.xhtml" target="_top" xlink:title="Declares gmx::test::TestFileManager. ">
<polygon fill="white" stroke="black" points="1005,-185 1005,-204 1134,-204 1134,-185 1005,-185"/>
<text text-anchor="middle" x="1069.5" y="-192" font-family="Helvetica,sans-Serif" font-size="10.00">testutils/testfilemanager.h</text>
</a>
</g>
</g>
<!-- Node1&#45;&gt;Node41 -->
<g id="edge79" class="edge"><title>Node1&#45;&gt;Node41</title>
<path fill="none" stroke="midnightblue" d="M1545.34,-313.974C1486.89,-306.578 1401.67,-294.146 1328.5,-277 1245.8,-257.62 1151.21,-225.146 1102.44,-207.612"/>
<polygon fill="midnightblue" stroke="midnightblue" points="1103.34,-204.216 1092.74,-204.107 1100.96,-210.799 1103.34,-204.216"/>
</g>
<!-- Node4 -->
<g id="node4" class="node"><title>Node4</title>
<polygon fill="white" stroke="#bfbfbf" points="419,-185 419,-204 478,-204 478,-185 419,-185"/>
<text text-anchor="middle" x="448.5" y="-192" font-family="Helvetica,sans-Serif" font-size="10.00">functional</text>
</g>
<!-- Node3&#45;&gt;Node4 -->
<g id="edge3" class="edge"><title>Node3&#45;&gt;Node4</title>
<path fill="none" stroke="midnightblue" d="M746.796,-255.786C690.804,-248.38 582.593,-232.506 492.5,-210 489.12,-209.156 485.625,-208.182 482.149,-207.147"/>
<polygon fill="midnightblue" stroke="midnightblue" points="483.11,-203.78 472.52,-204.124 481.012,-210.459 483.11,-203.78"/>
</g>
<!-- Node3&#45;&gt;Node5 -->
<g id="edge4" class="edge"><title>Node3&#45;&gt;Node5</title>
<path fill="none" stroke="midnightblue" d="M746.993,-258.844C682.097,-255.107 553.137,-243.546 525.5,-210 486.222,-162.324 575.465,-109.343 623.486,-85.4425"/>
<polygon fill="midnightblue" stroke="midnightblue" points="625.03,-88.5835 632.49,-81.0603 621.966,-82.2893 625.03,-88.5835"/>
</g>
<!-- Node6 -->
<g id="node6" class="node"><title>Node6</title>
<polygon fill="white" stroke="#bfbfbf" points="1243,-123.5 1243,-142.5 1284,-142.5 1284,-123.5 1243,-123.5"/>
<text text-anchor="middle" x="1263.5" y="-130.5" font-family="Helvetica,sans-Serif" font-size="10.00">string</text>
</g>
<!-- Node3&#45;&gt;Node6 -->
<g id="edge5" class="edge"><title>Node3&#45;&gt;Node6</title>
<path fill="none" stroke="midnightblue" d="M822.315,-253.78C858.264,-246.398 913.129,-232.502 956.5,-210 976.154,-199.803 975.273,-188.008 995.5,-179 1075.77,-143.251 1181.1,-135.701 1232.53,-134.24"/>
<polygon fill="midnightblue" stroke="midnightblue" points="1232.74,-137.736 1242.66,-134.013 1232.59,-130.738 1232.74,-137.736"/>
</g>
<!-- Node7 -->
<g id="node7" class="node"><title>Node7</title>
<polygon fill="white" stroke="#bfbfbf" points="685,-185 685,-204 756,-204 756,-185 685,-185"/>
<text text-anchor="middle" x="720.5" y="-192" font-family="Helvetica,sans-Serif" font-size="10.00">gtest/gtest.h</text>
</g>
<!-- Node3&#45;&gt;Node7 -->
<g id="edge6" class="edge"><title>Node3&#45;&gt;Node7</title>
<path fill="none" stroke="midnightblue" d="M775.869,-251.734C765.697,-241.403 748.598,-224.037 736.088,-211.332"/>
<polygon fill="midnightblue" stroke="midnightblue" points="738.505,-208.797 728.995,-204.127 733.517,-213.709 738.505,-208.797"/>
</g>
<!-- Node3&#45;&gt;Node8 -->
<g id="edge7" class="edge"><title>Node3&#45;&gt;Node8</title>
<path fill="none" stroke="midnightblue" d="M822.076,-259.418C946.126,-255.628 1353.82,-241.445 1689.5,-210 1702.87,-208.747 1717.12,-207.101 1730.78,-205.369"/>
<polygon fill="midnightblue" stroke="midnightblue" points="1731.61,-208.79 1741.08,-204.033 1730.71,-201.848 1731.61,-208.79"/>
</g>
<!-- Node20 -->
<g id="node20" class="node"><title>Node20</title>
<g id="a_node20"><a xlink:href="classhelpers_8h.xhtml" target="_top" xlink:title="Declares common utility classes and macros. ">
<polygon fill="white" stroke="black" points="889.5,-123.5 889.5,-142.5 1035.5,-142.5 1035.5,-123.5 889.5,-123.5"/>
<text text-anchor="middle" x="962.5" y="-130.5" font-family="Helvetica,sans-Serif" font-size="10.00">gromacs/utility/classhelpers.h</text>
</a>
</g>
</g>
<!-- Node3&#45;&gt;Node20 -->
<g id="edge19" class="edge"><title>Node3&#45;&gt;Node20</title>
<path fill="none" stroke="midnightblue" d="M783.869,-251.808C783.173,-235.307 784.141,-199.286 803.5,-179 817.272,-164.568 863.005,-152.536 901.909,-144.555"/>
<polygon fill="midnightblue" stroke="midnightblue" points="903.025,-147.902 912.147,-142.514 901.656,-141.037 903.025,-147.902"/>
</g>
<!-- Node9 -->
<g id="node9" class="node"><title>Node9</title>
<polygon fill="white" stroke="#bfbfbf" points="1771,-123.5 1771,-142.5 1820,-142.5 1820,-123.5 1771,-123.5"/>
<text text-anchor="middle" x="1795.5" y="-130.5" font-family="Helvetica,sans-Serif" font-size="10.00">cstddef</text>
</g>
<!-- Node8&#45;&gt;Node9 -->
<g id="edge8" class="edge"><title>Node8&#45;&gt;Node9</title>
<path fill="none" stroke="midnightblue" d="M1798.93,-184.975C1798.36,-176.58 1797.48,-163.481 1796.75,-152.663"/>
<polygon fill="midnightblue" stroke="midnightblue" points="1800.24,-152.252 1796.07,-142.509 1793.25,-152.721 1800.24,-152.252"/>
</g>
<!-- Node10 -->
<g id="node10" class="node"><title>Node10</title>
<polygon fill="white" stroke="#bfbfbf" points="1714.5,-123.5 1714.5,-142.5 1752.5,-142.5 1752.5,-123.5 1714.5,-123.5"/>
<text text-anchor="middle" x="1733.5" y="-130.5" font-family="Helvetica,sans-Serif" font-size="10.00">array</text>
</g>
<!-- Node8&#45;&gt;Node10 -->
<g id="edge9" class="edge"><title>Node8&#45;&gt;Node10</title>
<path fill="none" stroke="midnightblue" d="M1790.04,-184.975C1779.75,-175.697 1763.08,-160.671 1750.51,-149.331"/>
<polygon fill="midnightblue" stroke="midnightblue" points="1752.71,-146.605 1742.94,-142.509 1748.02,-151.805 1752.71,-146.605"/>
</g>
<!-- Node11 -->
<g id="node11" class="node"><title>Node11</title>
<polygon fill="white" stroke="#bfbfbf" points="1838,-123.5 1838,-142.5 1885,-142.5 1885,-123.5 1838,-123.5"/>
<text text-anchor="middle" x="1861.5" y="-130.5" font-family="Helvetica,sans-Serif" font-size="10.00">iterator</text>
</g>
<!-- Node8&#45;&gt;Node11 -->
<g id="edge10" class="edge"><title>Node8&#45;&gt;Node11</title>
<path fill="none" stroke="midnightblue" d="M1808.38,-184.975C1817.96,-175.785 1833.41,-160.956 1845.19,-149.656"/>
<polygon fill="midnightblue" stroke="midnightblue" points="1847.84,-151.958 1852.63,-142.509 1842.99,-146.908 1847.84,-151.958"/>
</g>
<!-- Node12 -->
<g id="node12" class="node"><title>Node12</title>
<polygon fill="white" stroke="#bfbfbf" points="1579,-123.5 1579,-142.5 1638,-142.5 1638,-123.5 1579,-123.5"/>
<text text-anchor="middle" x="1608.5" y="-130.5" font-family="Helvetica,sans-Serif" font-size="10.00">stdexcept</text>
</g>
<!-- Node8&#45;&gt;Node12 -->
<g id="edge11" class="edge"><title>Node8&#45;&gt;Node12</title>
<path fill="none" stroke="midnightblue" d="M1772.13,-184.975C1738.95,-174.636 1682.85,-157.161 1645.74,-145.602"/>
<polygon fill="midnightblue" stroke="midnightblue" points="1646.4,-142.142 1635.81,-142.509 1644.32,-148.825 1646.4,-142.142"/>
</g>
<!-- Node13 -->
<g id="node13" class="node"><title>Node13</title>
<polygon fill="white" stroke="#bfbfbf" points="1656.5,-123.5 1656.5,-142.5 1696.5,-142.5 1696.5,-123.5 1656.5,-123.5"/>
<text text-anchor="middle" x="1676.5" y="-130.5" font-family="Helvetica,sans-Serif" font-size="10.00">utility</text>
</g>
<!-- Node8&#45;&gt;Node13 -->
<g id="edge12" class="edge"><title>Node8&#45;&gt;Node13</title>
<path fill="none" stroke="midnightblue" d="M1781.88,-184.975C1761.33,-175.034 1727.14,-158.495 1703.29,-146.961"/>
<polygon fill="midnightblue" stroke="midnightblue" points="1704.62,-143.713 1694.09,-142.509 1701.57,-150.015 1704.62,-143.713"/>
</g>
<!-- Node8&#45;&gt;Node14 -->
<g id="edge13" class="edge"><title>Node8&#45;&gt;Node14</title>
<path fill="none" stroke="midnightblue" d="M1757.54,-184.998C1713.56,-175.919 1642.23,-160.727 1570.9,-142.978"/>
<polygon fill="midnightblue" stroke="midnightblue" points="1571.39,-139.493 1560.84,-140.458 1569.69,-146.283 1571.39,-139.493"/>
</g>
<!-- Node8&#45;&gt;Node15 -->
<g id="edge14" class="edge"><title>Node8&#45;&gt;Node15</title>
<path fill="none" stroke="midnightblue" d="M1829.73,-184.975C1866.79,-174.526 1929.69,-156.787 1970.66,-145.233"/>
<polygon fill="midnightblue" stroke="midnightblue" points="1971.65,-148.592 1980.32,-142.509 1969.75,-141.855 1971.65,-148.592"/>
</g>
<!-- Node16 -->
<g id="node16" class="node"><title>Node16</title>
<g id="a_node16"><a xlink:href="basedefinitions_8h.xhtml" target="_top" xlink:title="Basic types and macros used throughout GROMACS. ">
<polygon fill="white" stroke="black" points="2057,-62 2057,-81 2214,-81 2214,-62 2057,-62"/>
<text text-anchor="middle" x="2135.5" y="-69" font-family="Helvetica,sans-Serif" font-size="10.00">gromacs/utility/basedefinitions.h</text>
</a>
</g>
</g>
<!-- Node15&#45;&gt;Node16 -->
<g id="edge15" class="edge"><title>Node15&#45;&gt;Node16</title>
<path fill="none" stroke="midnightblue" d="M2028.41,-123.475C2049.39,-113.49 2084.35,-96.8476 2108.59,-85.3075"/>
<polygon fill="midnightblue" stroke="midnightblue" points="2110.1,-88.4673 2117.62,-81.0091 2107.09,-82.1468 2110.1,-88.4673"/>
</g>
<!-- Node19 -->
<g id="node19" class="node"><title>Node19</title>
<g id="a_node19"><a xlink:href="current__function_8h.xhtml" target="_top" xlink:title="Declares GMX_CURRENT_FUNCTION for getting the current function name. ">
<polygon fill="white" stroke="black" points="1926,-56.5 1926,-86.5 2039,-86.5 2039,-56.5 1926,-56.5"/>
<text text-anchor="start" x="1934" y="-74.5" font-family="Helvetica,sans-Serif" font-size="10.00">gromacs/utility/current</text>
<text text-anchor="middle" x="1982.5" y="-63.5" font-family="Helvetica,sans-Serif" font-size="10.00">_function.h</text>
</a>
</g>
</g>
<!-- Node15&#45;&gt;Node19 -->
<g id="edge18" class="edge"><title>Node15&#45;&gt;Node19</title>
<path fill="none" stroke="midnightblue" d="M2006.49,-123.475C2003.09,-116.245 1998.04,-105.525 1993.45,-95.7792"/>
<polygon fill="midnightblue" stroke="midnightblue" points="1996.52,-94.0809 1989.1,-86.523 1990.19,-97.0615 1996.52,-94.0809"/>
</g>
<!-- Node17 -->
<g id="node17" class="node"><title>Node17</title>
<polygon fill="white" stroke="#bfbfbf" points="2075,-0.5 2075,-19.5 2124,-19.5 2124,-0.5 2075,-0.5"/>
<text text-anchor="middle" x="2099.5" y="-7.5" font-family="Helvetica,sans-Serif" font-size="10.00">stdint.h</text>
</g>
<!-- Node16&#45;&gt;Node17 -->
<g id="edge16" class="edge"><title>Node16&#45;&gt;Node17</title>
<path fill="none" stroke="midnightblue" d="M2130.34,-61.9751C2125.05,-53.2268 2116.66,-39.3691 2109.97,-28.3093"/>
<polygon fill="midnightblue" stroke="midnightblue" points="2112.82,-26.2531 2104.65,-19.5091 2106.83,-29.8768 2112.82,-26.2531"/>
</g>
<!-- Node18 -->
<g id="node18" class="node"><title>Node18</title>
<polygon fill="white" stroke="#bfbfbf" points="2142,-0.5 2142,-19.5 2201,-19.5 2201,-0.5 2142,-0.5"/>
<text text-anchor="middle" x="2171.5" y="-7.5" font-family="Helvetica,sans-Serif" font-size="10.00">inttypes.h</text>
</g>
<!-- Node16&#45;&gt;Node18 -->
<g id="edge17" class="edge"><title>Node16&#45;&gt;Node18</title>
<path fill="none" stroke="midnightblue" d="M2140.66,-61.9751C2145.95,-53.2268 2154.34,-39.3691 2161.03,-28.3093"/>
<polygon fill="midnightblue" stroke="midnightblue" points="2164.17,-29.8768 2166.35,-19.5091 2158.18,-26.2531 2164.17,-29.8768"/>
</g>
<!-- Node20&#45;&gt;Node5 -->
<g id="edge20" class="edge"><title>Node20&#45;&gt;Node5</title>
<path fill="none" stroke="midnightblue" d="M917.941,-123.475C855.96,-111.617 744.91,-90.371 687.724,-79.4304"/>
<polygon fill="midnightblue" stroke="midnightblue" points="688.177,-75.9536 677.698,-77.5121 686.862,-82.8289 688.177,-75.9536"/>
</g>
<!-- Node25&#45;&gt;Node6 -->
<g id="edge28" class="edge"><title>Node25&#45;&gt;Node6</title>
<path fill="none" stroke="midnightblue" d="M1463.63,-246.379C1471.47,-228.608 1481.04,-198.106 1465.5,-179 1417.88,-120.452 1372.24,-159.339 1293.76,-142.923"/>
<polygon fill="midnightblue" stroke="midnightblue" points="1294.56,-139.515 1284.03,-140.636 1292.96,-146.33 1294.56,-139.515"/>
</g>
<!-- Node25&#45;&gt;Node20 -->
<g id="edge33" class="edge"><title>Node25&#45;&gt;Node20</title>
<path fill="none" stroke="midnightblue" d="M1398.78,-258.039C1341.39,-253.756 1251.98,-242.037 1181.5,-210 1161.34,-200.838 1162.36,-188.796 1142.5,-179 1108.32,-162.138 1067.28,-151.25 1033.03,-144.416"/>
<polygon fill="midnightblue" stroke="midnightblue" points="1033.58,-140.957 1023.1,-142.509 1032.26,-147.832 1033.58,-140.957"/>
</g>
<!-- Node26 -->
<g id="node26" class="node"><title>Node26</title>
<g id="a_node26"><a xlink:href="helpwritercontext_8h.xhtml" target="_top" xlink:title="Declares gmx::HelpWriterContext. ">
<polygon fill="white" stroke="black" points="1354.5,-179.5 1354.5,-209.5 1456.5,-209.5 1456.5,-179.5 1354.5,-179.5"/>
<text text-anchor="start" x="1362.5" y="-197.5" font-family="Helvetica,sans-Serif" font-size="10.00">gromacs/onlinehelp</text>
<text text-anchor="middle" x="1405.5" y="-186.5" font-family="Helvetica,sans-Serif" font-size="10.00">/helpwritercontext.h</text>
</a>
</g>
</g>
<!-- Node25&#45;&gt;Node26 -->
<g id="edge29" class="edge"><title>Node25&#45;&gt;Node26</title>
<path fill="none" stroke="midnightblue" d="M1445.43,-246.396C1438.82,-237.963 1430.27,-227.067 1422.78,-217.522"/>
<polygon fill="midnightblue" stroke="midnightblue" points="1425.47,-215.283 1416.54,-209.577 1419.96,-219.604 1425.47,-215.283"/>
</g>
<!-- Node26&#45;&gt;Node6 -->
<g id="edge30" class="edge"><title>Node26&#45;&gt;Node6</title>
<path fill="none" stroke="midnightblue" d="M1371.85,-179.399C1348.02,-169.416 1316.35,-156.147 1293.41,-146.534"/>
<polygon fill="midnightblue" stroke="midnightblue" points="1294.74,-143.294 1284.16,-142.658 1292.03,-149.751 1294.74,-143.294"/>
</g>
<!-- Node26&#45;&gt;Node14 -->
<g id="edge31" class="edge"><title>Node26&#45;&gt;Node14</title>
<path fill="none" stroke="midnightblue" d="M1437.02,-179.399C1459.14,-169.505 1488.47,-156.383 1509.91,-146.792"/>
<polygon fill="midnightblue" stroke="midnightblue" points="1511.45,-149.936 1519.15,-142.658 1508.59,-143.547 1511.45,-149.936"/>
</g>
<!-- Node26&#45;&gt;Node20 -->
<g id="edge32" class="edge"><title>Node26&#45;&gt;Node20</title>
<path fill="none" stroke="midnightblue" d="M1354.2,-180.673C1351.26,-180.073 1348.35,-179.51 1345.5,-179 1243.01,-160.663 1123.7,-147.998 1045.83,-140.881"/>
<polygon fill="midnightblue" stroke="midnightblue" points="1045.87,-137.371 1035.59,-139.956 1045.24,-144.342 1045.87,-137.371"/>
</g>
<!-- Node27&#45;&gt;Node4 -->
<g id="edge35" class="edge"><title>Node27&#45;&gt;Node4</title>
<path fill="none" stroke="midnightblue" d="M412.481,-246.396C419.512,-236.462 428.962,-223.108 436.418,-212.572"/>
<polygon fill="midnightblue" stroke="midnightblue" points="439.427,-214.379 442.347,-204.195 433.713,-210.335 439.427,-214.379"/>
</g>
<!-- Node27&#45;&gt;Node5 -->
<g id="edge36" class="edge"><title>Node27&#45;&gt;Node5</title>
<path fill="none" stroke="midnightblue" d="M344.329,-246.456C300.884,-233.103 252.785,-210.387 276.5,-179 317.917,-124.183 529.513,-89.3276 615.301,-77.251"/>
<polygon fill="midnightblue" stroke="midnightblue" points="615.931,-80.6971 625.357,-75.8589 614.972,-73.7632 615.931,-80.6971"/>
</g>
<!-- Node28 -->
<g id="node28" class="node"><title>Node28</title>
<g id="a_node28"><a xlink:href="cmdlinemodule_8h.xhtml" target="_top" xlink:title="Declares gmx::ICommandLineModule and supporting classes. ">
<polygon fill="white" stroke="black" points="286,-179.5 286,-209.5 401,-209.5 401,-179.5 286,-179.5"/>
<text text-anchor="start" x="294" y="-197.5" font-family="Helvetica,sans-Serif" font-size="10.00">gromacs/commandline</text>
<text text-anchor="middle" x="343.5" y="-186.5" font-family="Helvetica,sans-Serif" font-size="10.00">/cmdlinemodule.h</text>
</a>
</g>
</g>
<!-- Node27&#45;&gt;Node28 -->
<g id="edge37" class="edge"><title>Node27&#45;&gt;Node28</title>
<path fill="none" stroke="midnightblue" d="M389.698,-246.396C381.966,-237.878 371.953,-226.847 363.227,-217.233"/>
<polygon fill="midnightblue" stroke="midnightblue" points="365.59,-214.629 356.277,-209.577 360.407,-219.333 365.59,-214.629"/>
</g>
<!-- Node28&#45;&gt;Node20 -->
<g id="edge38" class="edge"><title>Node28&#45;&gt;Node20</title>
<path fill="none" stroke="midnightblue" d="M401.006,-180.372C403.871,-179.873 406.715,-179.412 409.5,-179 614.998,-148.639 668.614,-161.689 875.5,-143 876.776,-142.885 878.062,-142.767 879.357,-142.648"/>
<polygon fill="midnightblue" stroke="midnightblue" points="879.785,-146.123 889.412,-141.7 879.128,-139.154 879.785,-146.123"/>
</g>
<!-- Node29&#45;&gt;Node5 -->
<g id="edge40" class="edge"><title>Node29&#45;&gt;Node5</title>
<path fill="none" stroke="midnightblue" d="M1584.12,-179.301C1562.47,-169.387 1533.08,-155.705 1507.5,-143 1490.41,-134.511 1487.88,-128.147 1469.5,-123 1319.27,-80.9274 826.208,-73.8785 687.876,-72.7221"/>
<polygon fill="midnightblue" stroke="midnightblue" points="687.826,-69.2217 677.799,-72.6432 687.771,-76.2215 687.826,-69.2217"/>
</g>
<!-- Node29&#45;&gt;Node6 -->
<g id="edge41" class="edge"><title>Node29&#45;&gt;Node6</title>
<path fill="none" stroke="midnightblue" d="M1550.86,-181.446C1546.01,-180.598 1541.18,-179.774 1536.5,-179 1431.52,-161.627 1401.15,-166.974 1294.2,-143.119"/>
<polygon fill="midnightblue" stroke="midnightblue" points="1294.83,-139.673 1284.3,-140.878 1293.28,-146.501 1294.83,-139.673"/>
</g>
<!-- Node29&#45;&gt;Node14 -->
<g id="edge42" class="edge"><title>Node29&#45;&gt;Node14</title>
<path fill="none" stroke="midnightblue" d="M1597.25,-179.399C1585.37,-170.218 1569.89,-158.258 1557.81,-148.918"/>
<polygon fill="midnightblue" stroke="midnightblue" points="1559.76,-146.003 1549.7,-142.658 1555.48,-151.542 1559.76,-146.003"/>
</g>
<!-- Node29&#45;&gt;Node20 -->
<g id="edge43" class="edge"><title>Node29&#45;&gt;Node20</title>
<path fill="none" stroke="midnightblue" d="M1550.91,-187.154C1524.44,-184.58 1493.5,-181.606 1465.5,-179 1317.8,-165.255 1145.63,-150.022 1045.84,-141.273"/>
<polygon fill="midnightblue" stroke="midnightblue" points="1046.09,-137.781 1035.82,-140.394 1045.48,-144.754 1046.09,-137.781"/>
</g>
<!-- Node30 -->
<g id="node30" class="node"><title>Node30</title>
<g id="a_node30"><a xlink:href="programcontext_8h.xhtml" target="_top" xlink:title="Declares gmx::IProgramContext and related methods. ">
<polygon fill="white" stroke="black" points="1302,-123.5 1302,-142.5 1461,-142.5 1461,-123.5 1302,-123.5"/>
<text text-anchor="middle" x="1381.5" y="-130.5" font-family="Helvetica,sans-Serif" font-size="10.00">gromacs/utility/programcontext.h</text>
</a>
</g>
</g>
<!-- Node29&#45;&gt;Node30 -->
<g id="edge44" class="edge"><title>Node29&#45;&gt;Node30</title>
<path fill="none" stroke="midnightblue" d="M1560.34,-179.475C1518.91,-168.941 1462.97,-154.716 1424.75,-144.998"/>
<polygon fill="midnightblue" stroke="midnightblue" points="1425.51,-141.579 1414.95,-142.506 1423.78,-148.363 1425.51,-141.579"/>
</g>
<!-- Node31&#45;&gt;Node6 -->
<g id="edge48" class="edge"><title>Node31&#45;&gt;Node6</title>
<path fill="none" stroke="midnightblue" d="M1857.87,-258.739C1780.1,-255.091 1649.41,-243.945 1542.5,-210 1514.27,-201.036 1511.47,-188.74 1483.5,-179 1404.87,-151.623 1378.26,-162.934 1293.76,-143.056"/>
<polygon fill="midnightblue" stroke="midnightblue" points="1294.56,-139.646 1284.01,-140.685 1292.9,-146.448 1294.56,-139.646"/>
</g>
<!-- Node31&#45;&gt;Node16 -->
<g id="edge49" class="edge"><title>Node31&#45;&gt;Node16</title>
<path fill="none" stroke="midnightblue" d="M1993.01,-252.903C2033.97,-246.105 2086.13,-233.421 2127.5,-210 2164.15,-189.251 2178.38,-181.907 2194.5,-143 2203.92,-120.265 2180.59,-99.3426 2160.54,-86.2961"/>
<polygon fill="midnightblue" stroke="midnightblue" points="2162.33,-83.2865 2151.98,-81.0413 2158.67,-89.2534 2162.33,-83.2865"/>
</g>
<!-- Node31&#45;&gt;Node32 -->
<g id="edge50" class="edge"><title>Node31&#45;&gt;Node32</title>
<path fill="none" stroke="midnightblue" d="M1942.63,-251.869C1964.51,-240.845 2002.59,-221.655 2028.17,-208.768"/>
<polygon fill="midnightblue" stroke="midnightblue" points="2029.94,-211.793 2037.3,-204.167 2026.79,-205.541 2029.94,-211.793"/>
</g>
<!-- Node32&#45;&gt;Node6 -->
<g id="edge53" class="edge"><title>Node32&#45;&gt;Node6</title>
<path fill="none" stroke="midnightblue" d="M2016.78,-184.933C2005.49,-182.66 1993.04,-180.44 1981.5,-179 1680.49,-141.439 1596.18,-195.671 1294.17,-142.878"/>
<polygon fill="midnightblue" stroke="midnightblue" points="1294.71,-139.419 1284.26,-141.12 1293.49,-146.312 1294.71,-139.419"/>
</g>
<!-- Node32&#45;&gt;Node14 -->
<g id="edge54" class="edge"><title>Node32&#45;&gt;Node14</title>
<path fill="none" stroke="midnightblue" d="M2015.61,-184.962C2004.62,-182.771 1992.63,-180.588 1981.5,-179 1803.16,-153.555 1752.65,-175.178 1570.65,-142.632"/>
<polygon fill="midnightblue" stroke="midnightblue" points="1571.22,-139.178 1560.75,-140.833 1569.97,-146.065 1571.22,-139.178"/>
</g>
<!-- Node32&#45;&gt;Node22 -->
<g id="edge52" class="edge"><title>Node32&#45;&gt;Node22</title>
<path fill="none" stroke="midnightblue" d="M2084.59,-184.975C2123.5,-173.949 2191.06,-154.807 2231.4,-143.379"/>
<polygon fill="midnightblue" stroke="midnightblue" points="2232.61,-146.675 2241.27,-140.581 2230.7,-139.94 2232.61,-146.675"/>
</g>
<!-- Node33 -->
<g id="node33" class="node"><title>Node33</title>
<polygon fill="white" stroke="#bfbfbf" points="2136,-123.5 2136,-142.5 2185,-142.5 2185,-123.5 2136,-123.5"/>
<text text-anchor="middle" x="2160.5" y="-130.5" font-family="Helvetica,sans-Serif" font-size="10.00">cstdarg</text>
</g>
<!-- Node32&#45;&gt;Node33 -->
<g id="edge51" class="edge"><title>Node32&#45;&gt;Node33</title>
<path fill="none" stroke="midnightblue" d="M2069.69,-184.975C2087.16,-175.166 2116.08,-158.935 2136.58,-147.425"/>
<polygon fill="midnightblue" stroke="midnightblue" points="2138.33,-150.456 2145.34,-142.509 2134.91,-144.352 2138.33,-150.456"/>
</g>
<!-- Node34&#45;&gt;Node6 -->
<g id="edge56" class="edge"><title>Node34&#45;&gt;Node6</title>
<path fill="none" stroke="midnightblue" d="M1263.5,-184.975C1263.5,-176.58 1263.5,-163.481 1263.5,-152.663"/>
<polygon fill="midnightblue" stroke="midnightblue" points="1267,-152.509 1263.5,-142.509 1260,-152.509 1267,-152.509"/>
</g>
<!-- Node34&#45;&gt;Node14 -->
<g id="edge57" class="edge"><title>Node34&#45;&gt;Node14</title>
<path fill="none" stroke="midnightblue" d="M1302.9,-184.975C1357.67,-173.125 1455.76,-151.901 1506.36,-140.954"/>
<polygon fill="midnightblue" stroke="midnightblue" points="1507.37,-144.316 1516.4,-138.781 1505.89,-137.475 1507.37,-144.316"/>
</g>
<!-- Node35 -->
<g id="node35" class="node"><title>Node35</title>
<g id="a_node35"><a xlink:href="textstream_8h.xhtml" target="_top" xlink:title="Declares interfaces for simple input/output streams. ">
<polygon fill="white" stroke="black" points="728.5,-123.5 728.5,-142.5 866.5,-142.5 866.5,-123.5 728.5,-123.5"/>
<text text-anchor="middle" x="797.5" y="-130.5" font-family="Helvetica,sans-Serif" font-size="10.00">gromacs/utility/textstream.h</text>
</a>
</g>
</g>
<!-- Node34&#45;&gt;Node35 -->
<g id="edge58" class="edge"><title>Node34&#45;&gt;Node35</title>
<path fill="none" stroke="midnightblue" d="M1196.73,-184.975C1111.43,-174.084 964.114,-155.274 874.268,-143.802"/>
<polygon fill="midnightblue" stroke="midnightblue" points="874.505,-140.304 864.143,-142.509 873.619,-147.248 874.505,-140.304"/>
</g>
<!-- Node35&#45;&gt;Node5 -->
<g id="edge59" class="edge"><title>Node35&#45;&gt;Node5</title>
<path fill="none" stroke="midnightblue" d="M776.582,-123.475C751.754,-113.357 710.157,-96.4046 681.806,-84.8507"/>
<polygon fill="midnightblue" stroke="midnightblue" points="682.961,-81.5419 672.379,-81.0091 680.319,-88.0243 682.961,-81.5419"/>
</g>
<!-- Node36&#45;&gt;Node6 -->
<g id="edge62" class="edge"><title>Node36&#45;&gt;Node6</title>
<path fill="none" stroke="midnightblue" d="M927.727,-184.927C939.104,-182.924 951.228,-180.839 962.5,-179 1061.01,-162.929 1178.04,-146.073 1232.61,-138.341"/>
<polygon fill="midnightblue" stroke="midnightblue" points="1233.26,-141.785 1242.67,-136.919 1232.28,-134.854 1233.26,-141.785"/>
</g>
<!-- Node36&#45;&gt;Node20 -->
<g id="edge63" class="edge"><title>Node36&#45;&gt;Node20</title>
<path fill="none" stroke="midnightblue" d="M892.249,-184.975C905.279,-175.52 926.536,-160.096 942.259,-148.687"/>
<polygon fill="midnightblue" stroke="midnightblue" points="944.735,-151.215 950.773,-142.509 940.624,-145.549 944.735,-151.215"/>
</g>
<!-- Node36&#45;&gt;Node35 -->
<g id="edge64" class="edge"><title>Node36&#45;&gt;Node35</title>
<path fill="none" stroke="midnightblue" d="M868.608,-184.975C855.295,-175.431 833.5,-159.807 817.543,-148.368"/>
<polygon fill="midnightblue" stroke="midnightblue" points="819.536,-145.491 809.37,-142.509 815.458,-151.18 819.536,-145.491"/>
</g>
<!-- Node37&#45;&gt;Node6 -->
<g id="edge67" class="edge"><title>Node37&#45;&gt;Node6</title>
<path fill="none" stroke="midnightblue" d="M640.062,-184.972C651.457,-182.755 663.934,-180.555 675.5,-179 887.601,-150.476 1145.36,-138.531 1232.8,-135.108"/>
<polygon fill="midnightblue" stroke="midnightblue" points="1232.98,-138.604 1242.84,-134.724 1232.71,-131.609 1232.98,-138.604"/>
</g>
<!-- Node37&#45;&gt;Node20 -->
<g id="edge68" class="edge"><title>Node37&#45;&gt;Node20</title>
<path fill="none" stroke="midnightblue" d="M643.286,-184.956C653.806,-182.931 665.049,-180.829 675.5,-179 750.017,-165.959 835.739,-152.751 893.954,-144.05"/>
<polygon fill="midnightblue" stroke="midnightblue" points="894.759,-147.468 904.134,-142.532 893.727,-140.545 894.759,-147.468"/>
</g>
<!-- Node37&#45;&gt;Node35 -->
<g id="edge69" class="edge"><title>Node37&#45;&gt;Node35</title>
<path fill="none" stroke="midnightblue" d="M628.725,-184.975C663.103,-174.592 721.31,-157.012 759.577,-145.454"/>
<polygon fill="midnightblue" stroke="midnightblue" points="760.766,-148.751 769.327,-142.509 758.742,-142.05 760.766,-148.751"/>
</g>
<!-- Node38 -->
<g id="node38" class="node"><title>Node38</title>
<polygon fill="white" stroke="#bfbfbf" points="579,-123.5 579,-142.5 622,-142.5 622,-123.5 579,-123.5"/>
<text text-anchor="middle" x="600.5" y="-130.5" font-family="Helvetica,sans-Serif" font-size="10.00">cstdio</text>
</g>
<!-- Node37&#45;&gt;Node38 -->
<g id="edge66" class="edge"><title>Node37&#45;&gt;Node38</title>
<path fill="none" stroke="midnightblue" d="M600.5,-184.975C600.5,-176.58 600.5,-163.481 600.5,-152.663"/>
<polygon fill="midnightblue" stroke="midnightblue" points="604,-152.509 600.5,-142.509 597,-152.509 604,-152.509"/>
</g>
<!-- Node39&#45;&gt;Node5 -->
<g id="edge71" class="edge"><title>Node39&#45;&gt;Node5</title>
<path fill="none" stroke="midnightblue" d="M177.418,-184.735C188.399,-169.274 213.555,-137.428 243.5,-123 308.851,-91.5116 527.658,-78.1893 615.021,-74.0371"/>
<polygon fill="midnightblue" stroke="midnightblue" points="615.418,-77.5226 625.246,-73.5647 615.095,-70.53 615.418,-77.5226"/>
</g>
<!-- Node39&#45;&gt;Node6 -->
<g id="edge72" class="edge"><title>Node39&#45;&gt;Node6</title>
<path fill="none" stroke="midnightblue" d="M226.159,-184.985C242.332,-182.728 260.099,-180.503 276.5,-179 325.185,-174.538 1070.12,-142.326 1232.43,-135.336"/>
<polygon fill="midnightblue" stroke="midnightblue" points="1232.84,-138.822 1242.68,-134.895 1232.54,-131.828 1232.84,-138.822"/>
</g>
<!-- Node40&#45;&gt;Node5 -->
<g id="edge75" class="edge"><title>Node40&#45;&gt;Node5</title>
<path fill="none" stroke="midnightblue" d="M1925.44,-184.703C1923.05,-169.19 1915.68,-137.265 1894.5,-123 1843.18,-88.4437 887.728,-75.2882 687.936,-72.9094"/>
<polygon fill="midnightblue" stroke="midnightblue" points="687.726,-69.4068 677.686,-72.789 687.644,-76.4063 687.726,-69.4068"/>
</g>
<!-- Node40&#45;&gt;Node6 -->
<g id="edge76" class="edge"><title>Node40&#45;&gt;Node6</title>
<path fill="none" stroke="midnightblue" d="M1898.46,-184.977C1889.89,-182.677 1880.37,-180.431 1871.5,-179 1620.19,-138.461 1547.92,-188.247 1294.14,-142.891"/>
<polygon fill="midnightblue" stroke="midnightblue" points="1294.73,-139.44 1284.26,-141.094 1293.47,-146.327 1294.73,-139.44"/>
</g>
<!-- Node40&#45;&gt;Node11 -->
<g id="edge74" class="edge"><title>Node40&#45;&gt;Node11</title>
<path fill="none" stroke="midnightblue" d="M1917.19,-184.975C1907.05,-175.697 1890.64,-160.671 1878.25,-149.331"/>
<polygon fill="midnightblue" stroke="midnightblue" points="1880.54,-146.68 1870.8,-142.509 1875.81,-151.843 1880.54,-146.68"/>
</g>
<!-- Node40&#45;&gt;Node16 -->
<g id="edge77" class="edge"><title>Node40&#45;&gt;Node16</title>
<path fill="none" stroke="midnightblue" d="M1957.68,-184.992C2001.69,-172.804 2077.86,-150.965 2088.5,-143 2106.66,-129.407 2120,-106.606 2127.73,-90.6248"/>
<polygon fill="midnightblue" stroke="midnightblue" points="2131.03,-91.8233 2132,-81.2727 2124.66,-88.9173 2131.03,-91.8233"/>
</g>
<!-- Node40&#45;&gt;Node20 -->
<g id="edge78" class="edge"><title>Node40&#45;&gt;Node20</title>
<path fill="none" stroke="midnightblue" d="M1898.76,-184.984C1890.11,-182.654 1880.48,-180.39 1871.5,-179 1791.32,-166.586 1254.7,-145.126 1045.64,-137.126"/>
<polygon fill="midnightblue" stroke="midnightblue" points="1045.77,-133.628 1035.64,-136.744 1045.5,-140.623 1045.77,-133.628"/>
</g>
<!-- Node41&#45;&gt;Node6 -->
<g id="edge80" class="edge"><title>Node41&#45;&gt;Node6</title>
<path fill="none" stroke="midnightblue" d="M1097.3,-184.975C1133.3,-173.931 1195.86,-154.745 1233.1,-143.324"/>
<polygon fill="midnightblue" stroke="midnightblue" points="1234.35,-146.6 1242.89,-140.322 1232.3,-139.908 1234.35,-146.6"/>
</g>
<!-- Node41&#45;&gt;Node20 -->
<g id="edge81" class="edge"><title>Node41&#45;&gt;Node20</title>
<path fill="none" stroke="midnightblue" d="M1054.17,-184.975C1036.53,-175.166 1007.34,-158.935 986.642,-147.425"/>
<polygon fill="midnightblue" stroke="midnightblue" points="988.243,-144.31 977.802,-142.509 984.841,-150.428 988.243,-144.31"/>
</g>
</g>
</svg>
