<?xml version="1.0" encoding="UTF-8" standalone="no"?>
<!DOCTYPE svg PUBLIC "-//W3C//DTD SVG 1.1//EN"
 "http://www.w3.org/Graphics/SVG/1.1/DTD/svg11.dtd">
<!-- Generated by graphviz version 2.38.0 (20140413.2041)
 -->
<!-- Title: src/gromacs/commandline/cmdlineinit.cpp Pages: 1 -->
<svg width="1643pt" height="363pt"
 viewBox="0.00 0.00 1643.00 363.00" xmlns="http://www.w3.org/2000/svg" xmlns:xlink="http://www.w3.org/1999/xlink">
<g id="graph0" class="graph" transform="scale(1 1) rotate(0) translate(4 359)">
<title>src/gromacs/commandline/cmdlineinit.cpp</title>
<polygon fill="white" stroke="none" points="-4,4 -4,-359 1639,-359 1639,4 -4,4"/>
<!-- Node1 -->
<g id="node1" class="node"><title>Node1</title>
<polygon fill="#bfbfbf" stroke="black" points="501,-324.5 501,-354.5 632,-354.5 632,-324.5 501,-324.5"/>
<text text-anchor="start" x="509" y="-342.5" font-family="Helvetica,sans-Serif" font-size="10.00">src/gromacs/commandline</text>
<text text-anchor="middle" x="566.5" y="-331.5" font-family="Helvetica,sans-Serif" font-size="10.00">/cmdlineinit.cpp</text>
</g>
<!-- Node2 -->
<g id="node2" class="node"><title>Node2</title>
<g id="a_node2"><a xlink:href="gmxpre_8h.xhtml" target="_top" xlink:title="Prerequisite header file for GROMACS build. ">
<polygon fill="white" stroke="black" points="36,-263 36,-282 93,-282 93,-263 36,-263"/>
<text text-anchor="middle" x="64.5" y="-270" font-family="Helvetica,sans-Serif" font-size="10.00">gmxpre.h</text>
</a>
</g>
</g>
<!-- Node1&#45;&gt;Node2 -->
<g id="edge1" class="edge"><title>Node1&#45;&gt;Node2</title>
<path fill="none" stroke="midnightblue" d="M500.789,-335.724C411.028,-330.926 245.471,-318.478 107.5,-288 104.009,-287.229 100.405,-286.276 96.8375,-285.229"/>
<polygon fill="midnightblue" stroke="midnightblue" points="97.594,-281.797 87.0037,-282.106 95.475,-288.469 97.594,-281.797"/>
</g>
<!-- Node3 -->
<g id="node3" class="node"><title>Node3</title>
<g id="a_node3"><a xlink:href="cmdlineinit_8h.xhtml" target="_top" xlink:title="Declares functions for initializing the GROMACS library for command line use. ">
<polygon fill="white" stroke="black" points="467,-263 467,-282 538,-282 538,-263 467,-263"/>
<text text-anchor="middle" x="502.5" y="-270" font-family="Helvetica,sans-Serif" font-size="10.00">cmdlineinit.h</text>
</a>
</g>
</g>
<!-- Node1&#45;&gt;Node3 -->
<g id="edge2" class="edge"><title>Node1&#45;&gt;Node3</title>
<path fill="none" stroke="midnightblue" d="M552.613,-324.396C542.535,-314.161 528.884,-300.296 518.374,-289.622"/>
<polygon fill="midnightblue" stroke="midnightblue" points="520.571,-286.865 511.061,-282.195 515.583,-291.776 520.571,-286.865"/>
</g>
<!-- Node5 -->
<g id="node5" class="node"><title>Node5</title>
<polygon fill="white" stroke="#bfbfbf" points="316.5,-62 316.5,-81 368.5,-81 368.5,-62 316.5,-62"/>
<text text-anchor="middle" x="342.5" y="-69" font-family="Helvetica,sans-Serif" font-size="10.00">memory</text>
</g>
<!-- Node1&#45;&gt;Node5 -->
<g id="edge13" class="edge"><title>Node1&#45;&gt;Node5</title>
<path fill="none" stroke="midnightblue" d="M500.695,-336.818C418.346,-333.272 283.914,-322.251 249.5,-288 197.361,-236.108 197.233,-185.203 236.5,-123 251.734,-98.8678 282.007,-86.0271 306.315,-79.345"/>
<polygon fill="midnightblue" stroke="midnightblue" points="307.456,-82.6675 316.306,-76.8434 305.755,-75.8772 307.456,-82.6675"/>
</g>
<!-- Node6 -->
<g id="node6" class="node"><title>Node6</title>
<g id="a_node6"><a xlink:href="cmdlineprogramcontext_8h.xhtml" target="_top" xlink:title="Declares gmx::CommandLineProgramContext. ">
<polygon fill="white" stroke="black" points="513,-190.5 513,-220.5 642,-220.5 642,-190.5 513,-190.5"/>
<text text-anchor="start" x="521" y="-208.5" font-family="Helvetica,sans-Serif" font-size="10.00">gromacs/commandline</text>
<text text-anchor="middle" x="577.5" y="-197.5" font-family="Helvetica,sans-Serif" font-size="10.00">/cmdlineprogramcontext.h</text>
</a>
</g>
</g>
<!-- Node1&#45;&gt;Node6 -->
<g id="edge24" class="edge"><title>Node1&#45;&gt;Node6</title>
<path fill="none" stroke="midnightblue" d="M567.677,-324.374C569.538,-302.044 573.182,-258.313 575.471,-230.851"/>
<polygon fill="midnightblue" stroke="midnightblue" points="578.989,-230.781 576.331,-220.525 572.013,-230.2 578.989,-230.781"/>
</g>
<!-- Node10 -->
<g id="node10" class="node"><title>Node10</title>
<g id="a_node10"><a xlink:href="programcontext_8h.xhtml" target="_top" xlink:title="Declares gmx::IProgramContext and related methods. ">
<polygon fill="white" stroke="black" points="263,-129 263,-148 422,-148 422,-129 263,-129"/>
<text text-anchor="middle" x="342.5" y="-136" font-family="Helvetica,sans-Serif" font-size="10.00">gromacs/utility/programcontext.h</text>
</a>
</g>
</g>
<!-- Node1&#45;&gt;Node10 -->
<g id="edge54" class="edge"><title>Node1&#45;&gt;Node10</title>
<path fill="none" stroke="midnightblue" d="M500.882,-337.673C417.664,-335.072 281.152,-325.094 249.5,-288 238.893,-275.569 239.202,-214.284 254.5,-190 265.853,-171.978 286.115,-159.714 304.337,-151.789"/>
<polygon fill="midnightblue" stroke="midnightblue" points="305.664,-155.028 313.621,-148.034 303.039,-148.539 305.664,-155.028"/>
</g>
<!-- Node11 -->
<g id="node11" class="node"><title>Node11</title>
<polygon fill="white" stroke="#bfbfbf" points="402.5,-263 402.5,-282 448.5,-282 448.5,-263 402.5,-263"/>
<text text-anchor="middle" x="425.5" y="-270" font-family="Helvetica,sans-Serif" font-size="10.00">cstring</text>
</g>
<!-- Node1&#45;&gt;Node11 -->
<g id="edge12" class="edge"><title>Node1&#45;&gt;Node11</title>
<path fill="none" stroke="midnightblue" d="M535.905,-324.396C511.275,-313.041 476.954,-297.22 453.144,-286.244"/>
<polygon fill="midnightblue" stroke="midnightblue" points="454.5,-283.015 443.954,-282.007 451.57,-289.372 454.5,-283.015"/>
</g>
<!-- Node12 -->
<g id="node12" class="node"><title>Node12</title>
<g id="a_node12"><a xlink:href="cmdlinemodulemanager_8h.xhtml" target="_top" xlink:title="Declares gmx::CommandLineModuleManager. ">
<polygon fill="white" stroke="black" points="0,-190.5 0,-220.5 131,-220.5 131,-190.5 0,-190.5"/>
<text text-anchor="start" x="8" y="-208.5" font-family="Helvetica,sans-Serif" font-size="10.00">gromacs/commandline</text>
<text text-anchor="middle" x="65.5" y="-197.5" font-family="Helvetica,sans-Serif" font-size="10.00">/cmdlinemodulemanager.h</text>
</a>
</g>
</g>
<!-- Node1&#45;&gt;Node12 -->
<g id="edge14" class="edge"><title>Node1&#45;&gt;Node12</title>
<path fill="none" stroke="midnightblue" d="M500.999,-335.915C398.733,-331.005 206.522,-318.008 145.5,-288 118.191,-274.57 94.87,-247.946 80.5725,-228.778"/>
<polygon fill="midnightblue" stroke="midnightblue" points="83.3428,-226.635 74.6564,-220.569 77.6641,-230.728 83.3428,-226.635"/>
</g>
<!-- Node14 -->
<g id="node14" class="node"><title>Node14</title>
<g id="a_node14"><a xlink:href="cmdlineoptionsmodule_8h.xhtml" target="_top" xlink:title="Declares gmx::ICommandLineOptionsModule and supporting routines. ">
<polygon fill="white" stroke="black" points="259,-257.5 259,-287.5 384,-287.5 384,-257.5 259,-257.5"/>
<text text-anchor="start" x="267" y="-275.5" font-family="Helvetica,sans-Serif" font-size="10.00">gromacs/commandline</text>
<text text-anchor="middle" x="321.5" y="-264.5" font-family="Helvetica,sans-Serif" font-size="10.00">/cmdlineoptionsmodule.h</text>
</a>
</g>
</g>
<!-- Node1&#45;&gt;Node14 -->
<g id="edge19" class="edge"><title>Node1&#45;&gt;Node14</title>
<path fill="none" stroke="midnightblue" d="M513.64,-324.476C475.774,-314.43 424.613,-300.856 384.604,-290.242"/>
<polygon fill="midnightblue" stroke="midnightblue" points="385.25,-286.792 374.687,-287.611 383.455,-293.558 385.25,-286.792"/>
</g>
<!-- Node16 -->
<g id="node16" class="node"><title>Node16</title>
<g id="a_node16"><a xlink:href="basenetwork_8h.xhtml" target="_top" xlink:title="Utility functions for basic MPI and network functionality. ">
<polygon fill="white" stroke="black" points="595,-263 595,-282 742,-282 742,-263 595,-263"/>
<text text-anchor="middle" x="668.5" y="-270" font-family="Helvetica,sans-Serif" font-size="10.00">gromacs/utility/basenetwork.h</text>
</a>
</g>
</g>
<!-- Node1&#45;&gt;Node16 -->
<g id="edge25" class="edge"><title>Node1&#45;&gt;Node16</title>
<path fill="none" stroke="midnightblue" d="M588.632,-324.396C605.738,-313.496 629.303,-298.479 646.4,-287.584"/>
<polygon fill="midnightblue" stroke="midnightblue" points="648.598,-290.333 655.151,-282.007 644.836,-284.43 648.598,-290.333"/>
</g>
<!-- Node17 -->
<g id="node17" class="node"><title>Node17</title>
<g id="a_node17"><a xlink:href="datafilefinder_8h.xhtml" target="_top" xlink:title="Declares gmx::DataFileFinder and related classes. ">
<polygon fill="white" stroke="black" points="688,-196 688,-215 835,-215 835,-196 688,-196"/>
<text text-anchor="middle" x="761.5" y="-203" font-family="Helvetica,sans-Serif" font-size="10.00">gromacs/utility/datafilefinder.h</text>
</a>
</g>
</g>
<!-- Node1&#45;&gt;Node17 -->
<g id="edge26" class="edge"><title>Node1&#45;&gt;Node17</title>
<path fill="none" stroke="midnightblue" d="M632.324,-328.269C678.543,-319.688 734.799,-305.954 750.5,-288 765.444,-270.911 766.068,-243.611 764.396,-225.375"/>
<polygon fill="midnightblue" stroke="midnightblue" points="767.859,-224.863 763.165,-215.365 760.911,-225.718 767.859,-224.863"/>
</g>
<!-- Node19 -->
<g id="node19" class="node"><title>Node19</title>
<g id="a_node19"><a xlink:href="exceptions_8h.xhtml" target="_top" xlink:title="Declares common exception classes and macros for fatal error handling. ">
<polygon fill="white" stroke="black" points="855,-196 855,-215 994,-215 994,-196 855,-196"/>
<text text-anchor="middle" x="924.5" y="-203" font-family="Helvetica,sans-Serif" font-size="10.00">gromacs/utility/exceptions.h</text>
</a>
</g>
</g>
<!-- Node1&#45;&gt;Node19 -->
<g id="edge31" class="edge"><title>Node1&#45;&gt;Node19</title>
<path fill="none" stroke="midnightblue" d="M632.391,-326.605C673.221,-318.179 726.312,-305.293 771.5,-288 820.451,-269.267 873.607,-238.305 902.593,-220.421"/>
<polygon fill="midnightblue" stroke="midnightblue" points="904.484,-223.367 911.119,-215.106 900.781,-217.426 904.484,-223.367"/>
</g>
<!-- Node28 -->
<g id="node28" class="node"><title>Node28</title>
<g id="a_node28"><a xlink:href="gmxassert_8h.xhtml" target="_top" xlink:title="Defines assert macros customized for Gromacs. ">
<polygon fill="white" stroke="black" points="1277,-129 1277,-148 1414,-148 1414,-129 1277,-129"/>
<text text-anchor="middle" x="1345.5" y="-136" font-family="Helvetica,sans-Serif" font-size="10.00">gromacs/utility/gmxassert.h</text>
</a>
</g>
</g>
<!-- Node1&#45;&gt;Node28 -->
<g id="edge52" class="edge"><title>Node1&#45;&gt;Node28</title>
<path fill="none" stroke="midnightblue" d="M632.069,-326.791C683.106,-317.332 755.598,-303.141 818.5,-288 1003.88,-243.376 1222.32,-177.507 1308.18,-151.086"/>
<polygon fill="midnightblue" stroke="midnightblue" points="1309.46,-154.354 1317.98,-148.063 1307.4,-147.665 1309.46,-154.354"/>
</g>
<!-- Node29 -->
<g id="node29" class="node"><title>Node29</title>
<g id="a_node29"><a xlink:href="futil_8h.xhtml" target="_top" xlink:title="Low&#45;level wrappers for OS&#45;specific file handling with some GROMACS customizations. ">
<polygon fill="white" stroke="black" points="1262,-263 1262,-282 1369,-282 1369,-263 1262,-263"/>
<text text-anchor="middle" x="1315.5" y="-270" font-family="Helvetica,sans-Serif" font-size="10.00">gromacs/utility/futil.h</text>
</a>
</g>
</g>
<!-- Node1&#45;&gt;Node29 -->
<g id="edge48" class="edge"><title>Node1&#45;&gt;Node29</title>
<path fill="none" stroke="midnightblue" d="M632.312,-332.789C774.924,-320.413 1110.93,-291.253 1251.7,-279.037"/>
<polygon fill="midnightblue" stroke="midnightblue" points="1252.24,-282.503 1261.9,-278.152 1251.63,-275.53 1252.24,-282.503"/>
</g>
<!-- Node32 -->
<g id="node32" class="node"><title>Node32</title>
<g id="a_node32"><a xlink:href="init_8h.xhtml" target="_top" xlink:title="Declares functions for initializing the GROMACS library. ">
<polygon fill="white" stroke="black" points="1387.5,-263 1387.5,-282 1491.5,-282 1491.5,-263 1387.5,-263"/>
<text text-anchor="middle" x="1439.5" y="-270" font-family="Helvetica,sans-Serif" font-size="10.00">gromacs/utility/init.h</text>
</a>
</g>
</g>
<!-- Node1&#45;&gt;Node32 -->
<g id="edge53" class="edge"><title>Node1&#45;&gt;Node32</title>
<path fill="none" stroke="midnightblue" d="M632.154,-338.216C770.792,-336.785 1103.28,-328.96 1378.5,-288 1384.86,-287.054 1391.53,-285.772 1398.03,-284.36"/>
<polygon fill="midnightblue" stroke="midnightblue" points="1399.08,-287.712 1408.04,-282.065 1397.51,-280.889 1399.08,-287.712"/>
</g>
<!-- Node33 -->
<g id="node33" class="node"><title>Node33</title>
<g id="a_node33"><a xlink:href="smalloc_8h.xhtml" target="_top" xlink:title="C memory allocation routines for GROMACS. ">
<polygon fill="white" stroke="black" points="1510,-263 1510,-282 1635,-282 1635,-263 1510,-263"/>
<text text-anchor="middle" x="1572.5" y="-270" font-family="Helvetica,sans-Serif" font-size="10.00">gromacs/utility/smalloc.h</text>
</a>
</g>
</g>
<!-- Node1&#45;&gt;Node33 -->
<g id="edge55" class="edge"><title>Node1&#45;&gt;Node33</title>
<path fill="none" stroke="midnightblue" d="M632.187,-338.208C785.097,-336.818 1176.5,-329.165 1500.5,-288 1508.59,-286.972 1517.14,-285.552 1525.41,-284"/>
<polygon fill="midnightblue" stroke="midnightblue" points="1526.16,-287.418 1535.3,-282.059 1524.81,-280.549 1526.16,-287.418"/>
</g>
<!-- Node4 -->
<g id="node4" class="node"><title>Node4</title>
<polygon fill="white" stroke="#bfbfbf" points="397,-196 397,-215 456,-215 456,-196 397,-196"/>
<text text-anchor="middle" x="426.5" y="-203" font-family="Helvetica,sans-Serif" font-size="10.00">functional</text>
</g>
<!-- Node3&#45;&gt;Node4 -->
<g id="edge3" class="edge"><title>Node3&#45;&gt;Node4</title>
<path fill="none" stroke="midnightblue" d="M492.25,-262.734C480.057,-252.305 459.483,-234.709 444.592,-221.973"/>
<polygon fill="midnightblue" stroke="midnightblue" points="446.462,-218.967 436.587,-215.127 441.912,-224.287 446.462,-218.967"/>
</g>
<!-- Node3&#45;&gt;Node5 -->
<g id="edge4" class="edge"><title>Node3&#45;&gt;Node5</title>
<path fill="none" stroke="midnightblue" d="M500.281,-262.712C493.633,-237.92 471.741,-166.417 430.5,-123 414.869,-106.545 392.681,-93.8615 374.496,-85.3212"/>
<polygon fill="midnightblue" stroke="midnightblue" points="375.696,-82.0236 365.14,-81.1203 372.829,-88.4094 375.696,-82.0236"/>
</g>
<!-- Node3&#45;&gt;Node6 -->
<g id="edge5" class="edge"><title>Node3&#45;&gt;Node6</title>
<path fill="none" stroke="midnightblue" d="M512.615,-262.734C523.043,-253.696 539.684,-239.274 553.502,-227.298"/>
<polygon fill="midnightblue" stroke="midnightblue" points="555.979,-229.783 561.243,-220.589 551.394,-224.493 555.979,-229.783"/>
</g>
<!-- Node6&#45;&gt;Node5 -->
<g id="edge6" class="edge"><title>Node6&#45;&gt;Node5</title>
<path fill="none" stroke="midnightblue" d="M557.583,-190.385C543.338,-180.277 523.718,-166.329 506.5,-154 487.345,-140.283 484.062,-134.501 463.5,-123 435.738,-107.471 402.229,-93.8473 377.52,-84.6766"/>
<polygon fill="midnightblue" stroke="midnightblue" points="378.44,-81.2867 367.846,-81.1463 376.04,-87.8625 378.44,-81.2867"/>
</g>
<!-- Node7 -->
<g id="node7" class="node"><title>Node7</title>
<polygon fill="white" stroke="#bfbfbf" points="680,-129 680,-148 721,-148 721,-129 680,-129"/>
<text text-anchor="middle" x="700.5" y="-136" font-family="Helvetica,sans-Serif" font-size="10.00">string</text>
</g>
<!-- Node6&#45;&gt;Node7 -->
<g id="edge7" class="edge"><title>Node6&#45;&gt;Node7</title>
<path fill="none" stroke="midnightblue" d="M604.189,-190.396C625.389,-179.193 654.817,-163.641 675.549,-152.685"/>
<polygon fill="midnightblue" stroke="midnightblue" points="677.196,-155.774 684.402,-148.007 673.925,-149.585 677.196,-155.774"/>
</g>
<!-- Node8 -->
<g id="node8" class="node"><title>Node8</title>
<polygon fill="white" stroke="#bfbfbf" points="739.5,-129 739.5,-148 783.5,-148 783.5,-129 739.5,-129"/>
<text text-anchor="middle" x="761.5" y="-136" font-family="Helvetica,sans-Serif" font-size="10.00">vector</text>
</g>
<!-- Node6&#45;&gt;Node8 -->
<g id="edge8" class="edge"><title>Node6&#45;&gt;Node8</title>
<path fill="none" stroke="midnightblue" d="M623.843,-190.49C654.185,-180.979 694.543,-167.684 729.5,-154 730.92,-153.444 732.368,-152.859 733.824,-152.254"/>
<polygon fill="midnightblue" stroke="midnightblue" points="735.584,-155.306 743.365,-148.115 732.798,-148.885 735.584,-155.306"/>
</g>
<!-- Node9 -->
<g id="node9" class="node"><title>Node9</title>
<g id="a_node9"><a xlink:href="classhelpers_8h.xhtml" target="_top" xlink:title="Declares common utility classes and macros. ">
<polygon fill="white" stroke="black" points="515.5,-129 515.5,-148 661.5,-148 661.5,-129 515.5,-129"/>
<text text-anchor="middle" x="588.5" y="-136" font-family="Helvetica,sans-Serif" font-size="10.00">gromacs/utility/classhelpers.h</text>
</a>
</g>
</g>
<!-- Node6&#45;&gt;Node9 -->
<g id="edge9" class="edge"><title>Node6&#45;&gt;Node9</title>
<path fill="none" stroke="midnightblue" d="M579.887,-190.396C581.483,-180.963 583.601,-168.448 585.337,-158.189"/>
<polygon fill="midnightblue" stroke="midnightblue" points="588.811,-158.638 587.029,-148.195 581.909,-157.47 588.811,-158.638"/>
</g>
<!-- Node6&#45;&gt;Node10 -->
<g id="edge11" class="edge"><title>Node6&#45;&gt;Node10</title>
<path fill="none" stroke="midnightblue" d="M526.798,-190.476C483.76,-178.572 422.818,-161.716 382.983,-150.698"/>
<polygon fill="midnightblue" stroke="midnightblue" points="383.906,-147.321 373.334,-148.029 382.039,-154.068 383.906,-147.321"/>
</g>
<!-- Node9&#45;&gt;Node5 -->
<g id="edge10" class="edge"><title>Node9&#45;&gt;Node5</title>
<path fill="none" stroke="midnightblue" d="M556.087,-128.936C510.141,-116.795 426.355,-94.6567 378.518,-82.017"/>
<polygon fill="midnightblue" stroke="midnightblue" points="379.16,-78.5666 368.598,-79.3958 377.372,-85.3343 379.16,-78.5666"/>
</g>
<!-- Node12&#45;&gt;Node5 -->
<g id="edge15" class="edge"><title>Node12&#45;&gt;Node5</title>
<path fill="none" stroke="midnightblue" d="M58.7938,-190.293C51.4653,-172.431 42.7213,-141.832 58.5,-123 89.7038,-85.7581 236.766,-75.9595 306.126,-73.398"/>
<polygon fill="midnightblue" stroke="midnightblue" points="306.292,-76.8945 316.168,-73.058 306.055,-69.8985 306.292,-76.8945"/>
</g>
<!-- Node12&#45;&gt;Node9 -->
<g id="edge18" class="edge"><title>Node12&#45;&gt;Node9</title>
<path fill="none" stroke="midnightblue" d="M131.209,-196.334C227.455,-184.372 406.5,-162.12 509.691,-149.295"/>
<polygon fill="midnightblue" stroke="midnightblue" points="510.249,-152.752 519.741,-148.046 509.386,-145.806 510.249,-152.752"/>
</g>
<!-- Node13 -->
<g id="node13" class="node"><title>Node13</title>
<g id="a_node13"><a xlink:href="ihelptopic_8h.xhtml" target="_top" xlink:title="Declares gmx::IHelpTopic. ">
<polygon fill="white" stroke="black" points="68,-123.5 68,-153.5 169,-153.5 169,-123.5 68,-123.5"/>
<text text-anchor="start" x="76" y="-141.5" font-family="Helvetica,sans-Serif" font-size="10.00">gromacs/onlinehelp</text>
<text text-anchor="middle" x="118.5" y="-130.5" font-family="Helvetica,sans-Serif" font-size="10.00">/ihelptopic.h</text>
</a>
</g>
</g>
<!-- Node12&#45;&gt;Node13 -->
<g id="edge16" class="edge"><title>Node12&#45;&gt;Node13</title>
<path fill="none" stroke="midnightblue" d="M77.0002,-190.396C83.876,-181.963 92.7605,-171.067 100.544,-161.522"/>
<polygon fill="midnightblue" stroke="midnightblue" points="103.415,-163.539 107.022,-153.577 97.9902,-159.115 103.415,-163.539"/>
</g>
<!-- Node13&#45;&gt;Node5 -->
<g id="edge17" class="edge"><title>Node13&#45;&gt;Node5</title>
<path fill="none" stroke="midnightblue" d="M166.829,-123.476C208.68,-111.332 268.293,-94.0332 306.186,-83.0376"/>
<polygon fill="midnightblue" stroke="midnightblue" points="307.636,-86.2612 316.265,-80.113 305.685,-79.5385 307.636,-86.2612"/>
</g>
<!-- Node14&#45;&gt;Node4 -->
<g id="edge20" class="edge"><title>Node14&#45;&gt;Node4</title>
<path fill="none" stroke="midnightblue" d="M344.283,-257.396C362.055,-246.395 386.6,-231.2 404.237,-220.282"/>
<polygon fill="midnightblue" stroke="midnightblue" points="406.098,-223.247 412.758,-215.007 402.413,-217.295 406.098,-223.247"/>
</g>
<!-- Node14&#45;&gt;Node5 -->
<g id="edge21" class="edge"><title>Node14&#45;&gt;Node5</title>
<path fill="none" stroke="midnightblue" d="M292.26,-257.499C278.14,-249.056 262.547,-236.844 254.5,-221 234.776,-182.164 231.58,-160.64 253.5,-123 264.972,-103.3 287.305,-90.6613 306.728,-82.9543"/>
<polygon fill="midnightblue" stroke="midnightblue" points="308.074,-86.1889 316.257,-79.46 305.664,-79.6168 308.074,-86.1889"/>
</g>
<!-- Node15 -->
<g id="node15" class="node"><title>Node15</title>
<g id="a_node15"><a xlink:href="cmdlinemodule_8h.xhtml" target="_top" xlink:title="Declares gmx::ICommandLineModule and supporting classes. ">
<polygon fill="white" stroke="black" points="264,-190.5 264,-220.5 379,-220.5 379,-190.5 264,-190.5"/>
<text text-anchor="start" x="272" y="-208.5" font-family="Helvetica,sans-Serif" font-size="10.00">gromacs/commandline</text>
<text text-anchor="middle" x="321.5" y="-197.5" font-family="Helvetica,sans-Serif" font-size="10.00">/cmdlinemodule.h</text>
</a>
</g>
</g>
<!-- Node14&#45;&gt;Node15 -->
<g id="edge22" class="edge"><title>Node14&#45;&gt;Node15</title>
<path fill="none" stroke="midnightblue" d="M321.5,-257.396C321.5,-249.645 321.5,-239.812 321.5,-230.86"/>
<polygon fill="midnightblue" stroke="midnightblue" points="325,-230.576 321.5,-220.577 318,-230.577 325,-230.576"/>
</g>
<!-- Node15&#45;&gt;Node9 -->
<g id="edge23" class="edge"><title>Node15&#45;&gt;Node9</title>
<path fill="none" stroke="midnightblue" d="M379.106,-190.476C428.419,-178.471 498.42,-161.43 543.65,-150.419"/>
<polygon fill="midnightblue" stroke="midnightblue" points="544.579,-153.795 553.467,-148.029 542.923,-146.993 544.579,-153.795"/>
</g>
<!-- Node17&#45;&gt;Node7 -->
<g id="edge28" class="edge"><title>Node17&#45;&gt;Node7</title>
<path fill="none" stroke="midnightblue" d="M753.273,-195.734C743.67,-185.5 727.588,-168.364 715.696,-155.692"/>
<polygon fill="midnightblue" stroke="midnightblue" points="717.992,-153.024 708.596,-148.127 712.887,-157.814 717.992,-153.024"/>
</g>
<!-- Node17&#45;&gt;Node8 -->
<g id="edge29" class="edge"><title>Node17&#45;&gt;Node8</title>
<path fill="none" stroke="midnightblue" d="M761.5,-195.734C761.5,-186.183 761.5,-170.618 761.5,-158.283"/>
<polygon fill="midnightblue" stroke="midnightblue" points="765,-158.127 761.5,-148.127 758,-158.127 765,-158.127"/>
</g>
<!-- Node17&#45;&gt;Node9 -->
<g id="edge30" class="edge"><title>Node17&#45;&gt;Node9</title>
<path fill="none" stroke="midnightblue" d="M738.527,-195.869C708.327,-184.522 655.104,-164.525 620.844,-151.652"/>
<polygon fill="midnightblue" stroke="midnightblue" points="621.885,-148.305 611.293,-148.064 619.423,-154.857 621.885,-148.305"/>
</g>
<!-- Node18 -->
<g id="node18" class="node"><title>Node18</title>
<polygon fill="white" stroke="#bfbfbf" points="802,-129 802,-148 845,-148 845,-129 802,-129"/>
<text text-anchor="middle" x="823.5" y="-136" font-family="Helvetica,sans-Serif" font-size="10.00">cstdio</text>
</g>
<!-- Node17&#45;&gt;Node18 -->
<g id="edge27" class="edge"><title>Node17&#45;&gt;Node18</title>
<path fill="none" stroke="midnightblue" d="M769.862,-195.734C779.623,-185.5 795.968,-168.364 808.055,-155.692"/>
<polygon fill="midnightblue" stroke="midnightblue" points="810.901,-157.779 815.271,-148.127 805.836,-152.948 810.901,-157.779"/>
</g>
<!-- Node19&#45;&gt;Node5 -->
<g id="edge35" class="edge"><title>Node19&#45;&gt;Node5</title>
<path fill="none" stroke="midnightblue" d="M920.014,-195.947C910.441,-178.679 886.186,-139.864 853.5,-123 770.575,-80.2153 481.567,-73.6348 378.973,-72.6574"/>
<polygon fill="midnightblue" stroke="midnightblue" points="378.827,-69.1562 368.798,-72.5733 378.769,-76.1559 378.827,-69.1562"/>
</g>
<!-- Node19&#45;&gt;Node7 -->
<g id="edge36" class="edge"><title>Node19&#45;&gt;Node7</title>
<path fill="none" stroke="midnightblue" d="M882.146,-195.982C842.348,-187.394 781.455,-172.741 730.5,-154 729.075,-153.476 727.627,-152.907 726.175,-152.307"/>
<polygon fill="midnightblue" stroke="midnightblue" points="727.309,-148.98 716.754,-148.069 724.438,-155.364 727.309,-148.98"/>
</g>
<!-- Node19&#45;&gt;Node8 -->
<g id="edge39" class="edge"><title>Node19&#45;&gt;Node8</title>
<path fill="none" stroke="midnightblue" d="M900.447,-195.89C873.83,-186.226 829.766,-169.82 792.5,-154 791.133,-153.42 789.737,-152.814 788.331,-152.194"/>
<polygon fill="midnightblue" stroke="midnightblue" points="789.658,-148.953 779.106,-148.003 786.763,-155.326 789.658,-148.953"/>
</g>
<!-- Node19&#45;&gt;Node9 -->
<g id="edge43" class="edge"><title>Node19&#45;&gt;Node9</title>
<path fill="none" stroke="midnightblue" d="M880.228,-195.936C819.08,-184.106 708.86,-162.784 642.81,-150.006"/>
<polygon fill="midnightblue" stroke="midnightblue" points="643.085,-146.495 632.602,-148.032 641.756,-153.367 643.085,-146.495"/>
</g>
<!-- Node19&#45;&gt;Node18 -->
<g id="edge32" class="edge"><title>Node19&#45;&gt;Node18</title>
<path fill="none" stroke="midnightblue" d="M910.879,-195.734C894.069,-184.916 865.272,-166.383 845.356,-153.566"/>
<polygon fill="midnightblue" stroke="midnightblue" points="847.209,-150.596 836.906,-148.127 843.42,-156.482 847.209,-150.596"/>
</g>
<!-- Node20 -->
<g id="node20" class="node"><title>Node20</title>
<polygon fill="white" stroke="#bfbfbf" points="902,-129 902,-148 947,-148 947,-129 902,-129"/>
<text text-anchor="middle" x="924.5" y="-136" font-family="Helvetica,sans-Serif" font-size="10.00">cstdlib</text>
</g>
<!-- Node19&#45;&gt;Node20 -->
<g id="edge33" class="edge"><title>Node19&#45;&gt;Node20</title>
<path fill="none" stroke="midnightblue" d="M924.5,-195.734C924.5,-186.183 924.5,-170.618 924.5,-158.283"/>
<polygon fill="midnightblue" stroke="midnightblue" points="928,-158.127 924.5,-148.127 921,-158.127 928,-158.127"/>
</g>
<!-- Node21 -->
<g id="node21" class="node"><title>Node21</title>
<polygon fill="white" stroke="#bfbfbf" points="965,-129 965,-148 1024,-148 1024,-129 965,-129"/>
<text text-anchor="middle" x="994.5" y="-136" font-family="Helvetica,sans-Serif" font-size="10.00">exception</text>
</g>
<!-- Node19&#45;&gt;Node21 -->
<g id="edge34" class="edge"><title>Node19&#45;&gt;Node21</title>
<path fill="none" stroke="midnightblue" d="M933.941,-195.734C945.171,-185.305 964.121,-167.709 977.837,-154.973"/>
<polygon fill="midnightblue" stroke="midnightblue" points="980.263,-157.497 985.209,-148.127 975.5,-152.367 980.263,-157.497"/>
</g>
<!-- Node22 -->
<g id="node22" class="node"><title>Node22</title>
<polygon fill="white" stroke="#bfbfbf" points="1042.5,-129 1042.5,-148 1104.5,-148 1104.5,-129 1042.5,-129"/>
<text text-anchor="middle" x="1073.5" y="-136" font-family="Helvetica,sans-Serif" font-size="10.00">type_traits</text>
</g>
<!-- Node19&#45;&gt;Node22 -->
<g id="edge37" class="edge"><title>Node19&#45;&gt;Node22</title>
<path fill="none" stroke="midnightblue" d="M944.286,-195.869C969.89,-184.699 1014.71,-165.147 1044.25,-152.26"/>
<polygon fill="midnightblue" stroke="midnightblue" points="1045.87,-155.374 1053.63,-148.167 1043.07,-148.958 1045.87,-155.374"/>
</g>
<!-- Node23 -->
<g id="node23" class="node"><title>Node23</title>
<polygon fill="white" stroke="#bfbfbf" points="1123,-129 1123,-148 1182,-148 1182,-129 1123,-129"/>
<text text-anchor="middle" x="1152.5" y="-136" font-family="Helvetica,sans-Serif" font-size="10.00">typeindex</text>
</g>
<!-- Node19&#45;&gt;Node23 -->
<g id="edge38" class="edge"><title>Node19&#45;&gt;Node23</title>
<path fill="none" stroke="midnightblue" d="M960.675,-195.918C998.935,-186.59 1060.92,-170.759 1113.5,-154 1115.91,-153.232 1118.39,-152.403 1120.87,-151.545"/>
<polygon fill="midnightblue" stroke="midnightblue" points="1122.12,-154.816 1130.35,-148.149 1119.76,-148.226 1122.12,-154.816"/>
</g>
<!-- Node24 -->
<g id="node24" class="node"><title>Node24</title>
<g id="a_node24"><a xlink:href="basedefinitions_8h.xhtml" target="_top" xlink:title="Basic types and macros used throughout GROMACS. ">
<polygon fill="white" stroke="black" points="1344,-62 1344,-81 1501,-81 1501,-62 1344,-62"/>
<text text-anchor="middle" x="1422.5" y="-69" font-family="Helvetica,sans-Serif" font-size="10.00">gromacs/utility/basedefinitions.h</text>
</a>
</g>
</g>
<!-- Node19&#45;&gt;Node24 -->
<g id="edge40" class="edge"><title>Node19&#45;&gt;Node24</title>
<path fill="none" stroke="midnightblue" d="M994.262,-199.804C1054.65,-194.025 1143.52,-181.363 1216.5,-154 1241.34,-144.688 1243.4,-134.071 1267.5,-123 1303.82,-106.318 1347.23,-92.6741 1378.87,-83.7922"/>
<polygon fill="midnightblue" stroke="midnightblue" points="1379.99,-87.113 1388.7,-81.078 1378.13,-80.3654 1379.99,-87.113"/>
</g>
<!-- Node27 -->
<g id="node27" class="node"><title>Node27</title>
<g id="a_node27"><a xlink:href="current__function_8h.xhtml" target="_top" xlink:title="Declares GMX_CURRENT_FUNCTION for getting the current function name. ">
<polygon fill="white" stroke="black" points="1174,-56.5 1174,-86.5 1287,-86.5 1287,-56.5 1174,-56.5"/>
<text text-anchor="start" x="1182" y="-74.5" font-family="Helvetica,sans-Serif" font-size="10.00">gromacs/utility/current</text>
<text text-anchor="middle" x="1230.5" y="-63.5" font-family="Helvetica,sans-Serif" font-size="10.00">_function.h</text>
</a>
</g>
</g>
<!-- Node19&#45;&gt;Node27 -->
<g id="edge44" class="edge"><title>Node19&#45;&gt;Node27</title>
<path fill="none" stroke="midnightblue" d="M994.137,-198.34C1062.35,-191.081 1160.31,-177.004 1190.5,-154 1208.93,-139.961 1219.38,-115.179 1224.94,-96.6169"/>
<polygon fill="midnightblue" stroke="midnightblue" points="1228.37,-97.3617 1227.61,-86.7938 1221.61,-95.526 1228.37,-97.3617"/>
</g>
<!-- Node19&#45;&gt;Node28 -->
<g id="edge45" class="edge"><title>Node19&#45;&gt;Node28</title>
<path fill="none" stroke="midnightblue" d="M984.71,-195.961C1052.36,-186.26 1165.42,-169.729 1262.5,-154 1270.7,-152.672 1279.34,-151.219 1287.83,-149.763"/>
<polygon fill="midnightblue" stroke="midnightblue" points="1288.44,-153.211 1297.69,-148.059 1287.24,-146.313 1288.44,-153.211"/>
</g>
<!-- Node25 -->
<g id="node25" class="node"><title>Node25</title>
<polygon fill="white" stroke="#bfbfbf" points="1362,-0.5 1362,-19.5 1411,-19.5 1411,-0.5 1362,-0.5"/>
<text text-anchor="middle" x="1386.5" y="-7.5" font-family="Helvetica,sans-Serif" font-size="10.00">stdint.h</text>
</g>
<!-- Node24&#45;&gt;Node25 -->
<g id="edge41" class="edge"><title>Node24&#45;&gt;Node25</title>
<path fill="none" stroke="midnightblue" d="M1417.34,-61.9751C1412.05,-53.2268 1403.66,-39.3691 1396.97,-28.3093"/>
<polygon fill="midnightblue" stroke="midnightblue" points="1399.82,-26.2531 1391.65,-19.5091 1393.83,-29.8768 1399.82,-26.2531"/>
</g>
<!-- Node26 -->
<g id="node26" class="node"><title>Node26</title>
<polygon fill="white" stroke="#bfbfbf" points="1429,-0.5 1429,-19.5 1488,-19.5 1488,-0.5 1429,-0.5"/>
<text text-anchor="middle" x="1458.5" y="-7.5" font-family="Helvetica,sans-Serif" font-size="10.00">inttypes.h</text>
</g>
<!-- Node24&#45;&gt;Node26 -->
<g id="edge42" class="edge"><title>Node24&#45;&gt;Node26</title>
<path fill="none" stroke="midnightblue" d="M1427.66,-61.9751C1432.95,-53.2268 1441.34,-39.3691 1448.03,-28.3093"/>
<polygon fill="midnightblue" stroke="midnightblue" points="1451.17,-29.8768 1453.35,-19.5091 1445.18,-26.2531 1451.17,-29.8768"/>
</g>
<!-- Node28&#45;&gt;Node24 -->
<g id="edge46" class="edge"><title>Node28&#45;&gt;Node24</title>
<path fill="none" stroke="midnightblue" d="M1355.88,-128.734C1368.35,-118.208 1389.47,-100.379 1404.59,-87.6174"/>
<polygon fill="midnightblue" stroke="midnightblue" points="1406.9,-90.2524 1412.28,-81.1273 1402.38,-84.9034 1406.9,-90.2524"/>
</g>
<!-- Node28&#45;&gt;Node27 -->
<g id="edge47" class="edge"><title>Node28&#45;&gt;Node27</title>
<path fill="none" stroke="midnightblue" d="M1329.99,-128.734C1313.25,-119.274 1286.08,-103.914 1264.36,-91.6362"/>
<polygon fill="midnightblue" stroke="midnightblue" points="1265.85,-88.4627 1255.43,-86.589 1262.41,-94.5566 1265.85,-88.4627"/>
</g>
<!-- Node29&#45;&gt;Node24 -->
<g id="edge51" class="edge"><title>Node29&#45;&gt;Node24</title>
<path fill="none" stroke="midnightblue" d="M1324.2,-262.795C1348.93,-237.938 1418.22,-167.553 1423.5,-154 1431.35,-133.861 1429.48,-108.739 1426.69,-91.7503"/>
<polygon fill="midnightblue" stroke="midnightblue" points="1430.03,-90.615 1424.72,-81.4497 1423.16,-91.9289 1430.03,-90.615"/>
</g>
<!-- Node30 -->
<g id="node30" class="node"><title>Node30</title>
<polygon fill="white" stroke="#bfbfbf" points="1405.5,-196 1405.5,-215 1453.5,-215 1453.5,-196 1405.5,-196"/>
<text text-anchor="middle" x="1429.5" y="-203" font-family="Helvetica,sans-Serif" font-size="10.00">limits.h</text>
</g>
<!-- Node29&#45;&gt;Node30 -->
<g id="edge49" class="edge"><title>Node29&#45;&gt;Node30</title>
<path fill="none" stroke="midnightblue" d="M1330.87,-262.734C1350.02,-251.818 1382.94,-233.049 1405.44,-220.221"/>
<polygon fill="midnightblue" stroke="midnightblue" points="1407.42,-223.121 1414.37,-215.127 1403.95,-217.04 1407.42,-223.121"/>
</g>
<!-- Node31 -->
<g id="node31" class="node"><title>Node31</title>
<polygon fill="white" stroke="#bfbfbf" points="1471.5,-196 1471.5,-215 1517.5,-215 1517.5,-196 1471.5,-196"/>
<text text-anchor="middle" x="1494.5" y="-203" font-family="Helvetica,sans-Serif" font-size="10.00">stdio.h</text>
</g>
<!-- Node29&#45;&gt;Node31 -->
<g id="edge50" class="edge"><title>Node29&#45;&gt;Node31</title>
<path fill="none" stroke="midnightblue" d="M1342.87,-262.952C1372.61,-253.47 1421.37,-237.34 1462.5,-221 1463.92,-220.437 1465.36,-219.846 1466.82,-219.237"/>
<polygon fill="midnightblue" stroke="midnightblue" points="1468.58,-222.286 1476.35,-215.082 1465.79,-215.868 1468.58,-222.286"/>
</g>
<!-- Node33&#45;&gt;Node24 -->
<g id="edge57" class="edge"><title>Node33&#45;&gt;Node24</title>
<path fill="none" stroke="midnightblue" d="M1568.24,-262.569C1560.73,-247.168 1544.23,-214.875 1526.5,-190 1498.62,-150.879 1459.8,-109.9 1438.34,-88.186"/>
<polygon fill="midnightblue" stroke="midnightblue" points="1440.81,-85.7076 1431.28,-81.0969 1435.86,-90.6498 1440.81,-85.7076"/>
</g>
<!-- Node34 -->
<g id="node34" class="node"><title>Node34</title>
<polygon fill="white" stroke="#bfbfbf" points="1573.5,-196 1573.5,-215 1625.5,-215 1625.5,-196 1573.5,-196"/>
<text text-anchor="middle" x="1599.5" y="-203" font-family="Helvetica,sans-Serif" font-size="10.00">stddef.h</text>
</g>
<!-- Node33&#45;&gt;Node34 -->
<g id="edge56" class="edge"><title>Node33&#45;&gt;Node34</title>
<path fill="none" stroke="midnightblue" d="M1576.14,-262.734C1580.19,-252.988 1586.84,-236.981 1592.01,-224.532"/>
<polygon fill="midnightblue" stroke="midnightblue" points="1595.31,-225.705 1595.92,-215.127 1588.85,-223.02 1595.31,-225.705"/>
</g>
</g>
</svg>
