<?xml version="1.0" encoding="UTF-8" standalone="no"?>
<!DOCTYPE svg PUBLIC "-//W3C//DTD SVG 1.1//EN"
 "http://www.w3.org/Graphics/SVG/1.1/DTD/svg11.dtd">
<!-- Generated by graphviz version 2.38.0 (20140413.2041)
 -->
<!-- Title: src/gromacs/commandline/cmdlinehelpcontext.cpp Pages: 1 -->
<svg width="621pt" height="274pt"
 viewBox="0.00 0.00 620.50 274.00" xmlns="http://www.w3.org/2000/svg" xmlns:xlink="http://www.w3.org/1999/xlink">
<g id="graph0" class="graph" transform="scale(1 1) rotate(0) translate(4 270)">
<title>src/gromacs/commandline/cmdlinehelpcontext.cpp</title>
<polygon fill="white" stroke="none" points="-4,4 -4,-270 616.5,-270 616.5,4 -4,4"/>
<!-- Node1 -->
<g id="node1" class="node"><title>Node1</title>
<polygon fill="#bfbfbf" stroke="black" points="111.5,-235.5 111.5,-265.5 242.5,-265.5 242.5,-235.5 111.5,-235.5"/>
<text text-anchor="start" x="119.5" y="-253.5" font-family="Helvetica,sans-Serif" font-size="10.00">src/gromacs/commandline</text>
<text text-anchor="middle" x="177" y="-242.5" font-family="Helvetica,sans-Serif" font-size="10.00">/cmdlinehelpcontext.cpp</text>
</g>
<!-- Node2 -->
<g id="node2" class="node"><title>Node2</title>
<g id="a_node2"><a xlink:href="gmxpre_8h.xhtml" target="_top" xlink:title="Prerequisite header file for GROMACS build. ">
<polygon fill="white" stroke="black" points="6.5,-179.5 6.5,-198.5 63.5,-198.5 63.5,-179.5 6.5,-179.5"/>
<text text-anchor="middle" x="35" y="-186.5" font-family="Helvetica,sans-Serif" font-size="10.00">gmxpre.h</text>
</a>
</g>
</g>
<!-- Node1&#45;&gt;Node2 -->
<g id="edge1" class="edge"><title>Node1&#45;&gt;Node2</title>
<path fill="none" stroke="midnightblue" d="M143.348,-235.399C119.523,-225.416 87.8539,-212.147 64.9119,-202.534"/>
<polygon fill="midnightblue" stroke="midnightblue" points="66.238,-199.294 55.6623,-198.658 63.5327,-205.751 66.238,-199.294"/>
</g>
<!-- Node3 -->
<g id="node3" class="node"><title>Node3</title>
<g id="a_node3"><a xlink:href="cmdlinehelpcontext_8h.xhtml" target="_top" xlink:title="Declares gmx::CommandLineHelpContext. ">
<polygon fill="white" stroke="black" points="81.5,-179.5 81.5,-198.5 190.5,-198.5 190.5,-179.5 81.5,-179.5"/>
<text text-anchor="middle" x="136" y="-186.5" font-family="Helvetica,sans-Serif" font-size="10.00">cmdlinehelpcontext.h</text>
</a>
</g>
</g>
<!-- Node1&#45;&gt;Node3 -->
<g id="edge2" class="edge"><title>Node1&#45;&gt;Node3</title>
<path fill="none" stroke="midnightblue" d="M167.284,-235.399C161.449,-226.932 153.984,-216.099 147.81,-207.139"/>
<polygon fill="midnightblue" stroke="midnightblue" points="150.522,-204.906 141.966,-198.658 144.758,-208.878 150.522,-204.906"/>
</g>
<!-- Node9 -->
<g id="node9" class="node"><title>Node9</title>
<g id="a_node9"><a xlink:href="gmxassert_8h.xhtml" target="_top" xlink:title="Defines assert macros customized for Gromacs. ">
<polygon fill="white" stroke="black" points="334.5,-179.5 334.5,-198.5 471.5,-198.5 471.5,-179.5 334.5,-179.5"/>
<text text-anchor="middle" x="403" y="-186.5" font-family="Helvetica,sans-Serif" font-size="10.00">gromacs/utility/gmxassert.h</text>
</a>
</g>
</g>
<!-- Node1&#45;&gt;Node9 -->
<g id="edge10" class="edge"><title>Node1&#45;&gt;Node9</title>
<path fill="none" stroke="midnightblue" d="M230.273,-235.475C270.114,-224.986 323.855,-210.837 360.755,-201.122"/>
<polygon fill="midnightblue" stroke="midnightblue" points="361.911,-204.437 370.69,-198.506 360.129,-197.668 361.911,-204.437"/>
</g>
<!-- Node14 -->
<g id="node14" class="node"><title>Node14</title>
<g id="a_node14"><a xlink:href="shellcompletions_8h.xhtml" target="_top" xlink:title="Declares gmx::ShellCompletionWriter. ">
<polygon fill="white" stroke="black" points="170,-118 170,-137 268,-137 268,-118 170,-118"/>
<text text-anchor="middle" x="219" y="-125" font-family="Helvetica,sans-Serif" font-size="10.00">shellcompletions.h</text>
</a>
</g>
</g>
<!-- Node1&#45;&gt;Node14 -->
<g id="edge15" class="edge"><title>Node1&#45;&gt;Node14</title>
<path fill="none" stroke="midnightblue" d="M183.88,-235.123C188.508,-225.13 194.554,-211.426 199,-199 205.156,-181.797 210.699,-161.709 214.38,-147.387"/>
<polygon fill="midnightblue" stroke="midnightblue" points="217.871,-147.853 216.908,-137.302 211.081,-146.15 217.871,-147.853"/>
</g>
<!-- Node4 -->
<g id="node4" class="node"><title>Node4</title>
<polygon fill="white" stroke="#bfbfbf" points="226.5,-56.5 226.5,-75.5 267.5,-75.5 267.5,-56.5 226.5,-56.5"/>
<text text-anchor="middle" x="247" y="-63.5" font-family="Helvetica,sans-Serif" font-size="10.00">string</text>
</g>
<!-- Node3&#45;&gt;Node4 -->
<g id="edge3" class="edge"><title>Node3&#45;&gt;Node4</title>
<path fill="none" stroke="midnightblue" d="M190.527,-185.63C221.243,-181.156 257.295,-169.973 277,-143 290.396,-124.662 275.305,-99.538 262.117,-83.2867"/>
<polygon fill="midnightblue" stroke="midnightblue" points="264.738,-80.9659 255.555,-75.6801 259.437,-85.5382 264.738,-80.9659"/>
</g>
<!-- Node5 -->
<g id="node5" class="node"><title>Node5</title>
<g id="a_node5"><a xlink:href="helpwritercontext_8h.xhtml" target="_top" xlink:title="Declares gmx::HelpWriterContext. ">
<polygon fill="white" stroke="black" points="50,-112.5 50,-142.5 152,-142.5 152,-112.5 50,-112.5"/>
<text text-anchor="start" x="58" y="-130.5" font-family="Helvetica,sans-Serif" font-size="10.00">gromacs/onlinehelp</text>
<text text-anchor="middle" x="101" y="-119.5" font-family="Helvetica,sans-Serif" font-size="10.00">/helpwritercontext.h</text>
</a>
</g>
</g>
<!-- Node3&#45;&gt;Node5 -->
<g id="edge4" class="edge"><title>Node3&#45;&gt;Node5</title>
<path fill="none" stroke="midnightblue" d="M130.985,-179.475C126.644,-172.094 120.163,-161.077 114.336,-151.171"/>
<polygon fill="midnightblue" stroke="midnightblue" points="117.336,-149.368 109.249,-142.523 111.302,-152.917 117.336,-149.368"/>
</g>
<!-- Node7 -->
<g id="node7" class="node"><title>Node7</title>
<g id="a_node7"><a xlink:href="classhelpers_8h.xhtml" target="_top" xlink:title="Declares common utility classes and macros. ">
<polygon fill="white" stroke="black" points="0,-56.5 0,-75.5 146,-75.5 146,-56.5 0,-56.5"/>
<text text-anchor="middle" x="73" y="-63.5" font-family="Helvetica,sans-Serif" font-size="10.00">gromacs/utility/classhelpers.h</text>
</a>
</g>
</g>
<!-- Node3&#45;&gt;Node7 -->
<g id="edge9" class="edge"><title>Node3&#45;&gt;Node7</title>
<path fill="none" stroke="midnightblue" d="M94.9489,-179.383C75.0398,-172.916 52.9061,-161.814 41,-143 28.9854,-124.015 43.7277,-99.7448 56.9361,-83.8046"/>
<polygon fill="midnightblue" stroke="midnightblue" points="59.9315,-85.7011 63.9367,-75.8924 54.689,-81.0625 59.9315,-85.7011"/>
</g>
<!-- Node5&#45;&gt;Node4 -->
<g id="edge5" class="edge"><title>Node5&#45;&gt;Node4</title>
<path fill="none" stroke="midnightblue" d="M135.6,-112.399C160.244,-102.356 193.05,-88.9865 216.671,-79.3602"/>
<polygon fill="midnightblue" stroke="midnightblue" points="218.242,-82.4996 226.181,-75.4844 215.6,-76.0173 218.242,-82.4996"/>
</g>
<!-- Node6 -->
<g id="node6" class="node"><title>Node6</title>
<polygon fill="white" stroke="#bfbfbf" points="164,-56.5 164,-75.5 208,-75.5 208,-56.5 164,-56.5"/>
<text text-anchor="middle" x="186" y="-63.5" font-family="Helvetica,sans-Serif" font-size="10.00">vector</text>
</g>
<!-- Node5&#45;&gt;Node6 -->
<g id="edge6" class="edge"><title>Node5&#45;&gt;Node6</title>
<path fill="none" stroke="midnightblue" d="M121.144,-112.399C134.387,-103.129 151.678,-91.0254 165.076,-81.6469"/>
<polygon fill="midnightblue" stroke="midnightblue" points="167.447,-84.2598 173.632,-75.6578 163.432,-78.5251 167.447,-84.2598"/>
</g>
<!-- Node5&#45;&gt;Node7 -->
<g id="edge7" class="edge"><title>Node5&#45;&gt;Node7</title>
<path fill="none" stroke="midnightblue" d="M94.3644,-112.399C90.4634,-104.11 85.4961,-93.5542 81.333,-84.7077"/>
<polygon fill="midnightblue" stroke="midnightblue" points="84.4991,-83.2157 77.0742,-75.6578 78.1654,-86.1963 84.4991,-83.2157"/>
</g>
<!-- Node8 -->
<g id="node8" class="node"><title>Node8</title>
<polygon fill="white" stroke="#bfbfbf" points="47,-0.5 47,-19.5 99,-19.5 99,-0.5 47,-0.5"/>
<text text-anchor="middle" x="73" y="-7.5" font-family="Helvetica,sans-Serif" font-size="10.00">memory</text>
</g>
<!-- Node7&#45;&gt;Node8 -->
<g id="edge8" class="edge"><title>Node7&#45;&gt;Node8</title>
<path fill="none" stroke="midnightblue" d="M73,-56.083C73,-49.0059 73,-38.8611 73,-29.9865"/>
<polygon fill="midnightblue" stroke="midnightblue" points="76.5001,-29.751 73,-19.7511 69.5001,-29.7511 76.5001,-29.751"/>
</g>
<!-- Node10 -->
<g id="node10" class="node"><title>Node10</title>
<g id="a_node10"><a xlink:href="basedefinitions_8h.xhtml" target="_top" xlink:title="Basic types and macros used throughout GROMACS. ">
<polygon fill="white" stroke="black" points="324.5,-118 324.5,-137 481.5,-137 481.5,-118 324.5,-118"/>
<text text-anchor="middle" x="403" y="-125" font-family="Helvetica,sans-Serif" font-size="10.00">gromacs/utility/basedefinitions.h</text>
</a>
</g>
</g>
<!-- Node9&#45;&gt;Node10 -->
<g id="edge11" class="edge"><title>Node9&#45;&gt;Node10</title>
<path fill="none" stroke="midnightblue" d="M403,-179.475C403,-171.08 403,-157.981 403,-147.163"/>
<polygon fill="midnightblue" stroke="midnightblue" points="406.5,-147.009 403,-137.009 399.5,-147.009 406.5,-147.009"/>
</g>
<!-- Node13 -->
<g id="node13" class="node"><title>Node13</title>
<g id="a_node13"><a xlink:href="current__function_8h.xhtml" target="_top" xlink:title="Declares GMX_CURRENT_FUNCTION for getting the current function name. ">
<polygon fill="white" stroke="black" points="499.5,-112.5 499.5,-142.5 612.5,-142.5 612.5,-112.5 499.5,-112.5"/>
<text text-anchor="start" x="507.5" y="-130.5" font-family="Helvetica,sans-Serif" font-size="10.00">gromacs/utility/current</text>
<text text-anchor="middle" x="556" y="-119.5" font-family="Helvetica,sans-Serif" font-size="10.00">_function.h</text>
</a>
</g>
</g>
<!-- Node9&#45;&gt;Node13 -->
<g id="edge14" class="edge"><title>Node9&#45;&gt;Node13</title>
<path fill="none" stroke="midnightblue" d="M424.921,-179.475C447.095,-170.852 482.035,-157.264 510.267,-146.285"/>
<polygon fill="midnightblue" stroke="midnightblue" points="511.889,-149.41 519.941,-142.523 509.352,-142.885 511.889,-149.41"/>
</g>
<!-- Node11 -->
<g id="node11" class="node"><title>Node11</title>
<polygon fill="white" stroke="#bfbfbf" points="414.5,-56.5 414.5,-75.5 463.5,-75.5 463.5,-56.5 414.5,-56.5"/>
<text text-anchor="middle" x="439" y="-63.5" font-family="Helvetica,sans-Serif" font-size="10.00">stdint.h</text>
</g>
<!-- Node10&#45;&gt;Node11 -->
<g id="edge12" class="edge"><title>Node10&#45;&gt;Node11</title>
<path fill="none" stroke="midnightblue" d="M408.158,-117.975C413.451,-109.227 421.835,-95.3691 428.527,-84.3093"/>
<polygon fill="midnightblue" stroke="midnightblue" points="431.67,-85.8768 433.852,-75.5091 425.68,-82.2531 431.67,-85.8768"/>
</g>
<!-- Node12 -->
<g id="node12" class="node"><title>Node12</title>
<polygon fill="white" stroke="#bfbfbf" points="337.5,-56.5 337.5,-75.5 396.5,-75.5 396.5,-56.5 337.5,-56.5"/>
<text text-anchor="middle" x="367" y="-63.5" font-family="Helvetica,sans-Serif" font-size="10.00">inttypes.h</text>
</g>
<!-- Node10&#45;&gt;Node12 -->
<g id="edge13" class="edge"><title>Node10&#45;&gt;Node12</title>
<path fill="none" stroke="midnightblue" d="M397.842,-117.975C392.549,-109.227 384.165,-95.3691 377.473,-84.3093"/>
<polygon fill="midnightblue" stroke="midnightblue" points="380.32,-82.2531 372.148,-75.5091 374.33,-85.8768 380.32,-82.2531"/>
</g>
<!-- Node14&#45;&gt;Node4 -->
<g id="edge16" class="edge"><title>Node14&#45;&gt;Node4</title>
<path fill="none" stroke="midnightblue" d="M223.012,-117.975C227.087,-109.315 233.518,-95.6486 238.696,-84.6453"/>
<polygon fill="midnightblue" stroke="midnightblue" points="241.905,-86.0476 242.996,-75.5091 235.571,-83.067 241.905,-86.0476"/>
</g>
<!-- Node14&#45;&gt;Node6 -->
<g id="edge17" class="edge"><title>Node14&#45;&gt;Node6</title>
<path fill="none" stroke="midnightblue" d="M214.272,-117.975C209.42,-109.227 201.734,-95.3691 195.6,-84.3093"/>
<polygon fill="midnightblue" stroke="midnightblue" points="198.63,-82.5566 190.719,-75.5091 192.509,-85.9517 198.63,-82.5566"/>
</g>
<!-- Node14&#45;&gt;Node7 -->
<g id="edge18" class="edge"><title>Node14&#45;&gt;Node7</title>
<path fill="none" stroke="midnightblue" d="M198.082,-117.975C173.254,-107.857 131.657,-90.9046 103.306,-79.3507"/>
<polygon fill="midnightblue" stroke="midnightblue" points="104.461,-76.0419 93.8794,-75.5091 101.819,-82.5243 104.461,-76.0419"/>
</g>
</g>
</svg>
