<?xml version="1.0" encoding="UTF-8" standalone="no"?>
<!DOCTYPE svg PUBLIC "-//W3C//DTD SVG 1.1//EN"
 "http://www.w3.org/Graphics/SVG/1.1/DTD/svg11.dtd">
<!-- Generated by graphviz version 2.38.0 (20140413.2041)
 -->
<!-- Title: src/gromacs/trajectoryanalysis/cmdlinerunner.h Pages: 1 -->
<svg width="1025pt" height="397pt"
 viewBox="0.00 0.00 1025.33 397.00" xmlns="http://www.w3.org/2000/svg" xmlns:xlink="http://www.w3.org/1999/xlink">
<g id="graph0" class="graph" transform="scale(1 1) rotate(0) translate(4 393)">
<title>src/gromacs/trajectoryanalysis/cmdlinerunner.h</title>
<polygon fill="white" stroke="none" points="-4,4 -4,-393 1021.33,-393 1021.33,4 -4,4"/>
<!-- Node1 -->
<g id="node1" class="node"><title>Node1</title>
<polygon fill="#bfbfbf" stroke="black" points="12.5,-358.5 12.5,-388.5 162.5,-388.5 162.5,-358.5 12.5,-358.5"/>
<text text-anchor="start" x="20.5" y="-376.5" font-family="Helvetica,sans-Serif" font-size="10.00">src/gromacs/trajectoryanalysis</text>
<text text-anchor="middle" x="87.5" y="-365.5" font-family="Helvetica,sans-Serif" font-size="10.00">/cmdlinerunner.h</text>
</g>
<!-- Node2 -->
<g id="node2" class="node"><title>Node2</title>
<polygon fill="white" stroke="#bfbfbf" points="0,-297 0,-316 59,-316 59,-297 0,-297"/>
<text text-anchor="middle" x="29.5" y="-304" font-family="Helvetica,sans-Serif" font-size="10.00">functional</text>
</g>
<!-- Node1&#45;&gt;Node2 -->
<g id="edge1" class="edge"><title>Node1&#45;&gt;Node2</title>
<path fill="none" stroke="midnightblue" d="M74.9149,-358.396C65.8714,-348.261 53.6524,-334.567 44.1667,-323.937"/>
<polygon fill="midnightblue" stroke="midnightblue" points="46.5276,-321.326 37.2582,-316.195 41.3046,-325.986 46.5276,-321.326"/>
</g>
<!-- Node3 -->
<g id="node3" class="node"><title>Node3</title>
<polygon fill="white" stroke="#bfbfbf" points="69.5,-123.5 69.5,-142.5 121.5,-142.5 121.5,-123.5 69.5,-123.5"/>
<text text-anchor="middle" x="95.5" y="-130.5" font-family="Helvetica,sans-Serif" font-size="10.00">memory</text>
</g>
<!-- Node1&#45;&gt;Node3 -->
<g id="edge2" class="edge"><title>Node1&#45;&gt;Node3</title>
<path fill="none" stroke="midnightblue" d="M87.9765,-358.295C89.3471,-317.433 93.3012,-199.551 94.8586,-153.12"/>
<polygon fill="midnightblue" stroke="midnightblue" points="98.3626,-153.057 95.1999,-142.946 91.3666,-152.823 98.3626,-153.057"/>
</g>
<!-- Node4 -->
<g id="node4" class="node"><title>Node4</title>
<g id="a_node4"><a xlink:href="analysismodule_8h.xhtml" target="_top" xlink:title="Declares gmx::TrajectoryAnalysisModule and gmx::TrajectoryAnalysisModuleData. ">
<polygon fill="white" stroke="black" points="439.5,-291.5 439.5,-321.5 573.5,-321.5 573.5,-291.5 439.5,-291.5"/>
<text text-anchor="start" x="447.5" y="-309.5" font-family="Helvetica,sans-Serif" font-size="10.00">gromacs/trajectoryanalysis</text>
<text text-anchor="middle" x="506.5" y="-298.5" font-family="Helvetica,sans-Serif" font-size="10.00">/analysismodule.h</text>
</a>
</g>
</g>
<!-- Node1&#45;&gt;Node4 -->
<g id="edge3" class="edge"><title>Node1&#45;&gt;Node4</title>
<path fill="none" stroke="midnightblue" d="M162.893,-360.804C238.205,-349.121 353.407,-331.249 429.338,-319.47"/>
<polygon fill="midnightblue" stroke="midnightblue" points="429.975,-322.913 439.32,-317.922 428.902,-315.996 429.975,-322.913"/>
</g>
<!-- Node4&#45;&gt;Node3 -->
<g id="edge4" class="edge"><title>Node4&#45;&gt;Node3</title>
<path fill="none" stroke="midnightblue" d="M439.317,-298.556C362.234,-287.853 234.858,-261.547 144.5,-199 126.94,-186.844 113.036,-166.389 104.592,-151.668"/>
<polygon fill="midnightblue" stroke="midnightblue" points="107.493,-149.678 99.6395,-142.566 101.344,-153.023 107.493,-149.678"/>
</g>
<!-- Node5 -->
<g id="node5" class="node"><title>Node5</title>
<polygon fill="white" stroke="#bfbfbf" points="933,-62 933,-81 974,-81 974,-62 933,-62"/>
<text text-anchor="middle" x="953.5" y="-69" font-family="Helvetica,sans-Serif" font-size="10.00">string</text>
</g>
<!-- Node4&#45;&gt;Node5 -->
<g id="edge5" class="edge"><title>Node4&#45;&gt;Node5</title>
<path fill="none" stroke="midnightblue" d="M573.581,-301.159C696.357,-291.678 949.586,-264.486 1003.5,-199 1024.97,-172.921 1017.5,-154.177 1004.5,-123 998.461,-108.521 986.026,-96.0684 974.947,-87.1517"/>
<polygon fill="midnightblue" stroke="midnightblue" points="976.956,-84.2832 966.867,-81.0473 972.736,-89.8682 976.956,-84.2832"/>
</g>
<!-- Node6 -->
<g id="node6" class="node"><title>Node6</title>
<polygon fill="white" stroke="#bfbfbf" points="751.5,-123.5 751.5,-142.5 795.5,-142.5 795.5,-123.5 751.5,-123.5"/>
<text text-anchor="middle" x="773.5" y="-130.5" font-family="Helvetica,sans-Serif" font-size="10.00">vector</text>
</g>
<!-- Node4&#45;&gt;Node6 -->
<g id="edge6" class="edge"><title>Node4&#45;&gt;Node6</title>
<path fill="none" stroke="midnightblue" d="M573.501,-300.712C613.641,-294.955 663.827,-282.379 700.5,-255 736.094,-228.426 757.855,-178.917 767.546,-152.207"/>
<polygon fill="midnightblue" stroke="midnightblue" points="770.913,-153.179 770.868,-142.584 764.296,-150.894 770.913,-153.179"/>
</g>
<!-- Node7 -->
<g id="node7" class="node"><title>Node7</title>
<g id="a_node7"><a xlink:href="selection_2selection_8h.xhtml" target="_top" xlink:title="Declares gmx::Selection and supporting classes. ">
<polygon fill="white" stroke="black" points="545.5,-235.5 545.5,-254.5 691.5,-254.5 691.5,-235.5 545.5,-235.5"/>
<text text-anchor="middle" x="618.5" y="-242.5" font-family="Helvetica,sans-Serif" font-size="10.00">gromacs/selection/selection.h</text>
</a>
</g>
</g>
<!-- Node4&#45;&gt;Node7 -->
<g id="edge7" class="edge"><title>Node4&#45;&gt;Node7</title>
<path fill="none" stroke="midnightblue" d="M533.042,-291.399C551.163,-281.773 575.036,-269.09 592.943,-259.577"/>
<polygon fill="midnightblue" stroke="midnightblue" points="595.014,-262.44 602.203,-254.658 591.73,-256.258 595.014,-262.44"/>
</g>
<!-- Node24 -->
<g id="node24" class="node"><title>Node24</title>
<g id="a_node24"><a xlink:href="classhelpers_8h.xhtml" target="_top" xlink:title="Declares common utility classes and macros. ">
<polygon fill="white" stroke="black" points="153.5,-179.5 153.5,-198.5 299.5,-198.5 299.5,-179.5 153.5,-179.5"/>
<text text-anchor="middle" x="226.5" y="-186.5" font-family="Helvetica,sans-Serif" font-size="10.00">gromacs/utility/classhelpers.h</text>
</a>
</g>
</g>
<!-- Node4&#45;&gt;Node24 -->
<g id="edge31" class="edge"><title>Node4&#45;&gt;Node24</title>
<path fill="none" stroke="midnightblue" d="M472.446,-291.453C417.268,-268.692 309.212,-224.119 256.651,-202.437"/>
<polygon fill="midnightblue" stroke="midnightblue" points="257.788,-199.12 247.209,-198.542 255.118,-205.591 257.788,-199.12"/>
</g>
<!-- Node7&#45;&gt;Node5 -->
<g id="edge8" class="edge"><title>Node7&#45;&gt;Node5</title>
<path fill="none" stroke="midnightblue" d="M636.783,-235.335C655.268,-226.487 684.587,-212.211 709.5,-199 769.989,-166.923 782.366,-153.829 843.5,-123 878.676,-105.261 888.873,-103.813 924.5,-87 925.493,-86.5315 926.502,-86.0503 927.521,-85.561"/>
<polygon fill="midnightblue" stroke="midnightblue" points="929.256,-88.6083 936.695,-81.0642 926.175,-82.3227 929.256,-88.6083"/>
</g>
<!-- Node7&#45;&gt;Node6 -->
<g id="edge9" class="edge"><title>Node7&#45;&gt;Node6</title>
<path fill="none" stroke="midnightblue" d="M630.663,-235.368C657.147,-216.573 720.281,-171.768 753.021,-148.533"/>
<polygon fill="midnightblue" stroke="midnightblue" points="755.264,-151.233 761.394,-142.591 751.213,-145.525 755.264,-151.233"/>
</g>
<!-- Node8 -->
<g id="node8" class="node"><title>Node8</title>
<g id="a_node8"><a xlink:href="position_8h.xhtml" target="_top" xlink:title="API for handling positions. ">
<polygon fill="white" stroke="black" points="853,-179.5 853,-198.5 994,-198.5 994,-179.5 853,-179.5"/>
<text text-anchor="middle" x="923.5" y="-186.5" font-family="Helvetica,sans-Serif" font-size="10.00">gromacs/selection/position.h</text>
</a>
</g>
</g>
<!-- Node7&#45;&gt;Node8 -->
<g id="edge10" class="edge"><title>Node7&#45;&gt;Node8</title>
<path fill="none" stroke="midnightblue" d="M666.828,-235.444C720.704,-225.905 807.807,-210.483 865.364,-200.293"/>
<polygon fill="midnightblue" stroke="midnightblue" points="866.161,-203.706 875.398,-198.516 864.941,-196.813 866.161,-203.706"/>
</g>
<!-- Node11 -->
<g id="node11" class="node"><title>Node11</title>
<g id="a_node11"><a xlink:href="selectionenums_8h.xhtml" target="_top" xlink:title="Declares common types used in selections. ">
<polygon fill="white" stroke="black" points="317.5,-179.5 317.5,-198.5 493.5,-198.5 493.5,-179.5 317.5,-179.5"/>
<text text-anchor="middle" x="405.5" y="-186.5" font-family="Helvetica,sans-Serif" font-size="10.00">gromacs/selection/selectionenums.h</text>
</a>
</g>
</g>
<!-- Node7&#45;&gt;Node11 -->
<g id="edge14" class="edge"><title>Node7&#45;&gt;Node11</title>
<path fill="none" stroke="midnightblue" d="M584.75,-235.444C547.982,-226.122 489.054,-211.183 448.878,-200.997"/>
<polygon fill="midnightblue" stroke="midnightblue" points="449.646,-197.581 439.093,-198.516 447.926,-204.367 449.646,-197.581"/>
</g>
<!-- Node13 -->
<g id="node13" class="node"><title>Node13</title>
<g id="a_node13"><a xlink:href="arrayref_8h.xhtml" target="_top" xlink:title="Declares gmx::ArrayRef. ">
<polygon fill="white" stroke="black" points="511,-179.5 511,-198.5 636,-198.5 636,-179.5 511,-179.5"/>
<text text-anchor="middle" x="573.5" y="-186.5" font-family="Helvetica,sans-Serif" font-size="10.00">gromacs/utility/arrayref.h</text>
</a>
</g>
</g>
<!-- Node7&#45;&gt;Node13 -->
<g id="edge16" class="edge"><title>Node7&#45;&gt;Node13</title>
<path fill="none" stroke="midnightblue" d="M611.069,-235.083C604.647,-227.377 595.194,-216.033 587.378,-206.653"/>
<polygon fill="midnightblue" stroke="midnightblue" points="589.883,-204.193 580.793,-198.751 584.506,-208.674 589.883,-204.193"/>
</g>
<!-- Node19 -->
<g id="node19" class="node"><title>Node19</title>
<g id="a_node19"><a xlink:href="gmxassert_8h.xhtml" target="_top" xlink:title="Defines assert macros customized for Gromacs. ">
<polygon fill="white" stroke="black" points="596,-123.5 596,-142.5 733,-142.5 733,-123.5 596,-123.5"/>
<text text-anchor="middle" x="664.5" y="-130.5" font-family="Helvetica,sans-Serif" font-size="10.00">gromacs/utility/gmxassert.h</text>
</a>
</g>
</g>
<!-- Node7&#45;&gt;Node19 -->
<g id="edge30" class="edge"><title>Node7&#45;&gt;Node19</title>
<path fill="none" stroke="midnightblue" d="M624.578,-235.396C630.571,-226.595 639.657,-212.355 645.5,-199 652.127,-183.853 657.206,-165.733 660.439,-152.477"/>
<polygon fill="midnightblue" stroke="midnightblue" points="663.866,-153.19 662.713,-142.658 657.047,-151.611 663.866,-153.19"/>
</g>
<!-- Node7&#45;&gt;Node24 -->
<g id="edge28" class="edge"><title>Node7&#45;&gt;Node24</title>
<path fill="none" stroke="midnightblue" d="M556.386,-235.444C486.283,-225.786 372.406,-210.099 298.48,-199.916"/>
<polygon fill="midnightblue" stroke="midnightblue" points="298.707,-196.414 288.323,-198.516 297.752,-203.348 298.707,-196.414"/>
</g>
<!-- Node9 -->
<g id="node9" class="node"><title>Node9</title>
<g id="a_node9"><a xlink:href="indexutil_8h.xhtml" target="_top" xlink:title="API for handling index files and index groups. ">
<polygon fill="white" stroke="black" points="852,-123.5 852,-142.5 995,-142.5 995,-123.5 852,-123.5"/>
<text text-anchor="middle" x="923.5" y="-130.5" font-family="Helvetica,sans-Serif" font-size="10.00">gromacs/selection/indexutil.h</text>
</a>
</g>
</g>
<!-- Node8&#45;&gt;Node9 -->
<g id="edge11" class="edge"><title>Node8&#45;&gt;Node9</title>
<path fill="none" stroke="midnightblue" d="M923.5,-179.083C923.5,-172.006 923.5,-161.861 923.5,-152.986"/>
<polygon fill="midnightblue" stroke="midnightblue" points="927,-152.751 923.5,-142.751 920,-152.751 927,-152.751"/>
</g>
<!-- Node9&#45;&gt;Node5 -->
<g id="edge13" class="edge"><title>Node9&#45;&gt;Node5</title>
<path fill="none" stroke="midnightblue" d="M927.798,-123.475C932.165,-114.815 939.055,-101.149 944.603,-90.1453"/>
<polygon fill="midnightblue" stroke="midnightblue" points="947.833,-91.5141 949.21,-81.0091 941.582,-88.3625 947.833,-91.5141"/>
</g>
<!-- Node10 -->
<g id="node10" class="node"><title>Node10</title>
<polygon fill="white" stroke="#bfbfbf" points="872,-62 872,-81 915,-81 915,-62 872,-62"/>
<text text-anchor="middle" x="893.5" y="-69" font-family="Helvetica,sans-Serif" font-size="10.00">cstdio</text>
</g>
<!-- Node9&#45;&gt;Node10 -->
<g id="edge12" class="edge"><title>Node9&#45;&gt;Node10</title>
<path fill="none" stroke="midnightblue" d="M919.202,-123.475C914.835,-114.815 907.945,-101.149 902.397,-90.1453"/>
<polygon fill="midnightblue" stroke="midnightblue" points="905.418,-88.3625 897.79,-81.0091 899.167,-91.5141 905.418,-88.3625"/>
</g>
<!-- Node12 -->
<g id="node12" class="node"><title>Node12</title>
<g id="a_node12"><a xlink:href="flags_8h.xhtml" target="_top" xlink:title="Declares gmx::FlagsTemplate. ">
<polygon fill="white" stroke="black" points="140,-123.5 140,-142.5 253,-142.5 253,-123.5 140,-123.5"/>
<text text-anchor="middle" x="196.5" y="-130.5" font-family="Helvetica,sans-Serif" font-size="10.00">gromacs/utility/flags.h</text>
</a>
</g>
</g>
<!-- Node11&#45;&gt;Node12 -->
<g id="edge15" class="edge"><title>Node11&#45;&gt;Node12</title>
<path fill="none" stroke="midnightblue" d="M372.383,-179.444C336.382,-170.142 278.73,-155.246 239.314,-145.062"/>
<polygon fill="midnightblue" stroke="midnightblue" points="240.019,-141.629 229.462,-142.516 238.268,-148.407 240.019,-141.629"/>
</g>
<!-- Node13&#45;&gt;Node6 -->
<g id="edge22" class="edge"><title>Node13&#45;&gt;Node6</title>
<path fill="none" stroke="midnightblue" d="M606.59,-179.422C638.705,-171.046 689.066,-157.775 741.379,-143.27"/>
<polygon fill="midnightblue" stroke="midnightblue" points="742.469,-146.6 751.166,-140.549 740.594,-139.856 742.469,-146.6"/>
</g>
<!-- Node14 -->
<g id="node14" class="node"><title>Node14</title>
<polygon fill="white" stroke="#bfbfbf" points="407,-123.5 407,-142.5 456,-142.5 456,-123.5 407,-123.5"/>
<text text-anchor="middle" x="431.5" y="-130.5" font-family="Helvetica,sans-Serif" font-size="10.00">cstddef</text>
</g>
<!-- Node13&#45;&gt;Node14 -->
<g id="edge17" class="edge"><title>Node13&#45;&gt;Node14</title>
<path fill="none" stroke="midnightblue" d="M551,-179.444C527.423,-170.478 490.178,-156.314 463.536,-146.183"/>
<polygon fill="midnightblue" stroke="midnightblue" points="464.486,-142.8 453.895,-142.516 461.998,-149.342 464.486,-142.8"/>
</g>
<!-- Node15 -->
<g id="node15" class="node"><title>Node15</title>
<polygon fill="white" stroke="#bfbfbf" points="474.5,-123.5 474.5,-142.5 512.5,-142.5 512.5,-123.5 474.5,-123.5"/>
<text text-anchor="middle" x="493.5" y="-130.5" font-family="Helvetica,sans-Serif" font-size="10.00">array</text>
</g>
<!-- Node13&#45;&gt;Node15 -->
<g id="edge18" class="edge"><title>Node13&#45;&gt;Node15</title>
<path fill="none" stroke="midnightblue" d="M560.647,-179.324C548.284,-170.979 529.37,-158.212 514.763,-148.352"/>
<polygon fill="midnightblue" stroke="midnightblue" points="516.568,-145.348 506.321,-142.655 512.652,-151.15 516.568,-145.348"/>
</g>
<!-- Node16 -->
<g id="node16" class="node"><title>Node16</title>
<polygon fill="white" stroke="#bfbfbf" points="531,-123.5 531,-142.5 578,-142.5 578,-123.5 531,-123.5"/>
<text text-anchor="middle" x="554.5" y="-130.5" font-family="Helvetica,sans-Serif" font-size="10.00">iterator</text>
</g>
<!-- Node13&#45;&gt;Node16 -->
<g id="edge19" class="edge"><title>Node13&#45;&gt;Node16</title>
<path fill="none" stroke="midnightblue" d="M570.363,-179.083C567.817,-171.849 564.144,-161.409 560.973,-152.397"/>
<polygon fill="midnightblue" stroke="midnightblue" points="564.2,-151.023 557.579,-142.751 557.597,-153.346 564.2,-151.023"/>
</g>
<!-- Node17 -->
<g id="node17" class="node"><title>Node17</title>
<polygon fill="white" stroke="#bfbfbf" points="271,-123.5 271,-142.5 330,-142.5 330,-123.5 271,-123.5"/>
<text text-anchor="middle" x="300.5" y="-130.5" font-family="Helvetica,sans-Serif" font-size="10.00">stdexcept</text>
</g>
<!-- Node13&#45;&gt;Node17 -->
<g id="edge20" class="edge"><title>Node13&#45;&gt;Node17</title>
<path fill="none" stroke="midnightblue" d="M526.337,-179.457C481.132,-171.151 410.735,-157.908 340.232,-143.093"/>
<polygon fill="midnightblue" stroke="midnightblue" points="340.793,-139.634 330.285,-140.992 339.346,-146.483 340.793,-139.634"/>
</g>
<!-- Node18 -->
<g id="node18" class="node"><title>Node18</title>
<polygon fill="white" stroke="#bfbfbf" points="348.5,-123.5 348.5,-142.5 388.5,-142.5 388.5,-123.5 348.5,-123.5"/>
<text text-anchor="middle" x="368.5" y="-130.5" font-family="Helvetica,sans-Serif" font-size="10.00">utility</text>
</g>
<!-- Node13&#45;&gt;Node18 -->
<g id="edge21" class="edge"><title>Node13&#45;&gt;Node18</title>
<path fill="none" stroke="midnightblue" d="M538.528,-179.442C503.124,-170.676 446.853,-156.464 398.5,-143 398.402,-142.973 398.303,-142.945 398.205,-142.918"/>
<polygon fill="midnightblue" stroke="midnightblue" points="399.38,-139.614 388.801,-140.21 397.442,-146.34 399.38,-139.614"/>
</g>
<!-- Node13&#45;&gt;Node19 -->
<g id="edge23" class="edge"><title>Node13&#45;&gt;Node19</title>
<path fill="none" stroke="midnightblue" d="M588.121,-179.324C602.449,-170.822 624.513,-157.729 641.249,-147.797"/>
<polygon fill="midnightblue" stroke="midnightblue" points="643.102,-150.768 649.916,-142.655 639.53,-144.748 643.102,-150.768"/>
</g>
<!-- Node20 -->
<g id="node20" class="node"><title>Node20</title>
<g id="a_node20"><a xlink:href="basedefinitions_8h.xhtml" target="_top" xlink:title="Basic types and macros used throughout GROMACS. ">
<polygon fill="white" stroke="black" points="642,-62 642,-81 799,-81 799,-62 642,-62"/>
<text text-anchor="middle" x="720.5" y="-69" font-family="Helvetica,sans-Serif" font-size="10.00">gromacs/utility/basedefinitions.h</text>
</a>
</g>
</g>
<!-- Node19&#45;&gt;Node20 -->
<g id="edge24" class="edge"><title>Node19&#45;&gt;Node20</title>
<path fill="none" stroke="midnightblue" d="M672.523,-123.475C681.09,-114.373 694.861,-99.741 705.457,-88.483"/>
<polygon fill="midnightblue" stroke="midnightblue" points="708.186,-90.6899 712.491,-81.0091 703.089,-85.8923 708.186,-90.6899"/>
</g>
<!-- Node23 -->
<g id="node23" class="node"><title>Node23</title>
<g id="a_node23"><a xlink:href="current__function_8h.xhtml" target="_top" xlink:title="Declares GMX_CURRENT_FUNCTION for getting the current function name. ">
<polygon fill="white" stroke="black" points="511,-56.5 511,-86.5 624,-86.5 624,-56.5 511,-56.5"/>
<text text-anchor="start" x="519" y="-74.5" font-family="Helvetica,sans-Serif" font-size="10.00">gromacs/utility/current</text>
<text text-anchor="middle" x="567.5" y="-63.5" font-family="Helvetica,sans-Serif" font-size="10.00">_function.h</text>
</a>
</g>
</g>
<!-- Node19&#45;&gt;Node23 -->
<g id="edge27" class="edge"><title>Node19&#45;&gt;Node23</title>
<path fill="none" stroke="midnightblue" d="M650.602,-123.475C637.219,-115.266 616.502,-102.558 599.102,-91.8845"/>
<polygon fill="midnightblue" stroke="midnightblue" points="600.715,-88.7683 590.361,-86.523 597.055,-94.7352 600.715,-88.7683"/>
</g>
<!-- Node21 -->
<g id="node21" class="node"><title>Node21</title>
<polygon fill="white" stroke="#bfbfbf" points="660,-0.5 660,-19.5 709,-19.5 709,-0.5 660,-0.5"/>
<text text-anchor="middle" x="684.5" y="-7.5" font-family="Helvetica,sans-Serif" font-size="10.00">stdint.h</text>
</g>
<!-- Node20&#45;&gt;Node21 -->
<g id="edge25" class="edge"><title>Node20&#45;&gt;Node21</title>
<path fill="none" stroke="midnightblue" d="M715.342,-61.9751C710.049,-53.2268 701.665,-39.3691 694.973,-28.3093"/>
<polygon fill="midnightblue" stroke="midnightblue" points="697.82,-26.2531 689.648,-19.5091 691.83,-29.8768 697.82,-26.2531"/>
</g>
<!-- Node22 -->
<g id="node22" class="node"><title>Node22</title>
<polygon fill="white" stroke="#bfbfbf" points="727,-0.5 727,-19.5 786,-19.5 786,-0.5 727,-0.5"/>
<text text-anchor="middle" x="756.5" y="-7.5" font-family="Helvetica,sans-Serif" font-size="10.00">inttypes.h</text>
</g>
<!-- Node20&#45;&gt;Node22 -->
<g id="edge26" class="edge"><title>Node20&#45;&gt;Node22</title>
<path fill="none" stroke="midnightblue" d="M725.658,-61.9751C730.951,-53.2268 739.335,-39.3691 746.027,-28.3093"/>
<polygon fill="midnightblue" stroke="midnightblue" points="749.17,-29.8768 751.352,-19.5091 743.18,-26.2531 749.17,-29.8768"/>
</g>
<!-- Node24&#45;&gt;Node3 -->
<g id="edge29" class="edge"><title>Node24&#45;&gt;Node3</title>
<path fill="none" stroke="midnightblue" d="M205.743,-179.444C184.184,-170.557 150.237,-156.563 125.706,-146.451"/>
<polygon fill="midnightblue" stroke="midnightblue" points="126.739,-143.092 116.16,-142.516 124.072,-149.563 126.739,-143.092"/>
</g>
</g>
</svg>
