<?xml version="1.0" encoding="UTF-8" standalone="no"?>
<!DOCTYPE svg PUBLIC "-//W3C//DTD SVG 1.1//EN"
 "http://www.w3.org/Graphics/SVG/1.1/DTD/svg11.dtd">
<!-- Generated by graphviz version 2.38.0 (20140413.2041)
 -->
<!-- Title: src/gromacs/commandline/cmdlinehelpmodule.h Pages: 1 -->
<svg width="1089pt" height="475pt"
 viewBox="0.00 0.00 1088.50 475.00" xmlns="http://www.w3.org/2000/svg" xmlns:xlink="http://www.w3.org/1999/xlink">
<g id="graph0" class="graph" transform="scale(1 1) rotate(0) translate(4 471)">
<title>src/gromacs/commandline/cmdlinehelpmodule.h</title>
<polygon fill="white" stroke="none" points="-4,4 -4,-471 1084.5,-471 1084.5,4 -4,4"/>
<!-- Node1 -->
<g id="node1" class="node"><title>Node1</title>
<polygon fill="#bfbfbf" stroke="black" points="3.5,-436.5 3.5,-466.5 134.5,-466.5 134.5,-436.5 3.5,-436.5"/>
<text text-anchor="start" x="11.5" y="-454.5" font-family="Helvetica,sans-Serif" font-size="10.00">src/gromacs/commandline</text>
<text text-anchor="middle" x="69" y="-443.5" font-family="Helvetica,sans-Serif" font-size="10.00">/cmdlinehelpmodule.h</text>
</g>
<!-- Node2 -->
<g id="node2" class="node"><title>Node2</title>
<g id="a_node2"><a xlink:href="cmdlinemodule_8h.xhtml" target="_top" xlink:title="Declares gmx::ICommandLineModule and supporting classes. ">
<polygon fill="white" stroke="black" points="66.5,-302.5 66.5,-332.5 181.5,-332.5 181.5,-302.5 66.5,-302.5"/>
<text text-anchor="start" x="74.5" y="-320.5" font-family="Helvetica,sans-Serif" font-size="10.00">gromacs/commandline</text>
<text text-anchor="middle" x="124" y="-309.5" font-family="Helvetica,sans-Serif" font-size="10.00">/cmdlinemodule.h</text>
</a>
</g>
</g>
<!-- Node1&#45;&gt;Node2 -->
<g id="edge1" class="edge"><title>Node1&#45;&gt;Node2</title>
<path fill="none" stroke="midnightblue" d="M74.886,-436.374C84.3141,-413.746 102.899,-369.143 114.308,-341.761"/>
<polygon fill="midnightblue" stroke="midnightblue" points="117.541,-343.102 118.156,-332.525 111.079,-340.409 117.541,-343.102"/>
</g>
<!-- Node3 -->
<g id="node3" class="node"><title>Node3</title>
<g id="a_node3"><a xlink:href="classhelpers_8h.xhtml" target="_top" xlink:title="Declares common utility classes and macros. ">
<polygon fill="white" stroke="black" points="238,-62 238,-81 384,-81 384,-62 238,-62"/>
<text text-anchor="middle" x="311" y="-69" font-family="Helvetica,sans-Serif" font-size="10.00">gromacs/utility/classhelpers.h</text>
</a>
</g>
</g>
<!-- Node1&#45;&gt;Node3 -->
<g id="edge6" class="edge"><title>Node1&#45;&gt;Node3</title>
<path fill="none" stroke="midnightblue" d="M63.4578,-436.495C54.5411,-412.663 38,-362.52 38,-318.5 38,-318.5 38,-318.5 38,-199 38,-149.445 187.955,-103.86 265.59,-83.5796"/>
<polygon fill="midnightblue" stroke="midnightblue" points="266.78,-86.8875 275.59,-81.0029 265.033,-80.109 266.78,-86.8875"/>
</g>
<!-- Node5 -->
<g id="node5" class="node"><title>Node5</title>
<g id="a_node5"><a xlink:href="ihelptopic_8h.xhtml" target="_top" xlink:title="Declares gmx::IHelpTopic. ">
<polygon fill="white" stroke="black" points="80.5,-56.5 80.5,-86.5 181.5,-86.5 181.5,-56.5 80.5,-56.5"/>
<text text-anchor="start" x="88.5" y="-74.5" font-family="Helvetica,sans-Serif" font-size="10.00">gromacs/onlinehelp</text>
<text text-anchor="middle" x="131" y="-63.5" font-family="Helvetica,sans-Serif" font-size="10.00">/ihelptopic.h</text>
</a>
</g>
</g>
<!-- Node1&#45;&gt;Node5 -->
<g id="edge4" class="edge"><title>Node1&#45;&gt;Node5</title>
<path fill="none" stroke="midnightblue" d="M53.2879,-436.396C43.6136,-426.947 31.6424,-413.755 24,-400 5.66113,-366.992 0,-356.26 0,-318.5 0,-318.5 0,-318.5 0,-199 0,-163.578 0.700498,-149.681 24,-123 36.4834,-108.705 53.8929,-98.1508 71.047,-90.4989"/>
<polygon fill="midnightblue" stroke="midnightblue" points="72.6406,-93.6263 80.5178,-86.5411 69.9415,-87.1676 72.6406,-93.6263"/>
</g>
<!-- Node6 -->
<g id="node6" class="node"><title>Node6</title>
<g id="a_node6"><a xlink:href="cmdlinemodulemanager-impl_8h.xhtml" target="_top" xlink:title="Declares implementation types for gmx::CommandLineModuleManager. ">
<polygon fill="white" stroke="black" points="376.5,-369.5 376.5,-399.5 495.5,-399.5 495.5,-369.5 376.5,-369.5"/>
<text text-anchor="start" x="384.5" y="-387.5" font-family="Helvetica,sans-Serif" font-size="10.00">cmdlinemodulemanager</text>
<text text-anchor="middle" x="436" y="-376.5" font-family="Helvetica,sans-Serif" font-size="10.00">&#45;impl.h</text>
</a>
</g>
</g>
<!-- Node1&#45;&gt;Node6 -->
<g id="edge7" class="edge"><title>Node1&#45;&gt;Node6</title>
<path fill="none" stroke="midnightblue" d="M134.612,-438.879C199.917,-427.313 299.765,-409.629 366.425,-397.822"/>
<polygon fill="midnightblue" stroke="midnightblue" points="367.183,-401.243 376.42,-396.052 365.963,-394.35 367.183,-401.243"/>
</g>
<!-- Node2&#45;&gt;Node3 -->
<g id="edge2" class="edge"><title>Node2&#45;&gt;Node3</title>
<path fill="none" stroke="midnightblue" d="M129.29,-302.408C142.606,-268.358 180.322,-180.203 234,-123 248.357,-107.7 268.231,-94.8151 284.192,-85.8899"/>
<polygon fill="midnightblue" stroke="midnightblue" points="285.925,-88.9316 293.066,-81.1042 282.603,-82.7704 285.925,-88.9316"/>
</g>
<!-- Node4 -->
<g id="node4" class="node"><title>Node4</title>
<polygon fill="white" stroke="#bfbfbf" points="234,-0.5 234,-19.5 286,-19.5 286,-0.5 234,-0.5"/>
<text text-anchor="middle" x="260" y="-7.5" font-family="Helvetica,sans-Serif" font-size="10.00">memory</text>
</g>
<!-- Node3&#45;&gt;Node4 -->
<g id="edge3" class="edge"><title>Node3&#45;&gt;Node4</title>
<path fill="none" stroke="midnightblue" d="M303.693,-61.9751C295.967,-52.9617 283.592,-38.5246 273.982,-27.3118"/>
<polygon fill="midnightblue" stroke="midnightblue" points="276.459,-24.8239 267.294,-19.5091 271.144,-29.3795 276.459,-24.8239"/>
</g>
<!-- Node5&#45;&gt;Node4 -->
<g id="edge5" class="edge"><title>Node5&#45;&gt;Node4</title>
<path fill="none" stroke="midnightblue" d="M161.571,-56.3993C182.925,-46.55 211.215,-33.5014 231.985,-23.9217"/>
<polygon fill="midnightblue" stroke="midnightblue" points="233.615,-27.0244 241.229,-19.6578 230.683,-20.668 233.615,-27.0244"/>
</g>
<!-- Node6&#45;&gt;Node2 -->
<g id="edge12" class="edge"><title>Node6&#45;&gt;Node2</title>
<path fill="none" stroke="midnightblue" d="M376.212,-371.044C323.492,-360.061 246.718,-344.066 191.741,-332.613"/>
<polygon fill="midnightblue" stroke="midnightblue" points="192.243,-329.142 181.74,-330.529 190.816,-335.995 192.243,-329.142"/>
</g>
<!-- Node6&#45;&gt;Node3 -->
<g id="edge35" class="edge"><title>Node6&#45;&gt;Node3</title>
<path fill="none" stroke="midnightblue" d="M376.257,-369.952C321.208,-353.516 248,-319.845 248,-257 248,-257 248,-257 248,-199 248,-164.183 250.896,-153.869 267,-123 273.807,-109.952 284.638,-97.4622 293.85,-88.1681"/>
<polygon fill="midnightblue" stroke="midnightblue" points="296.33,-90.639 301.084,-81.1705 291.463,-85.6078 296.33,-90.639"/>
</g>
<!-- Node6&#45;&gt;Node4 -->
<g id="edge9" class="edge"><title>Node6&#45;&gt;Node4</title>
<path fill="none" stroke="midnightblue" d="M376.326,-376.09C309.368,-364.051 210,-333.327 210,-257 210,-257 210,-257 210,-137.5 210,-100.306 213.965,-90.0194 229,-56 233.45,-45.9317 240.234,-35.7458 246.323,-27.6172"/>
<polygon fill="midnightblue" stroke="midnightblue" points="249.106,-29.7394 252.513,-19.7073 243.594,-25.4252 249.106,-29.7394"/>
</g>
<!-- Node7 -->
<g id="node7" class="node"><title>Node7</title>
<polygon fill="white" stroke="#bfbfbf" points="954.5,-308 954.5,-327 989.5,-327 989.5,-308 954.5,-308"/>
<text text-anchor="middle" x="972" y="-315" font-family="Helvetica,sans-Serif" font-size="10.00">map</text>
</g>
<!-- Node6&#45;&gt;Node7 -->
<g id="edge8" class="edge"><title>Node6&#45;&gt;Node7</title>
<path fill="none" stroke="midnightblue" d="M495.706,-383.737C591.217,-382.741 783.531,-375.07 940,-333 942.154,-332.421 944.345,-331.712 946.519,-330.921"/>
<polygon fill="midnightblue" stroke="midnightblue" points="947.873,-334.148 955.771,-327.086 945.193,-327.682 947.873,-334.148"/>
</g>
<!-- Node8 -->
<g id="node8" class="node"><title>Node8</title>
<polygon fill="white" stroke="#bfbfbf" points="672.5,-62 672.5,-81 713.5,-81 713.5,-62 672.5,-62"/>
<text text-anchor="middle" x="693" y="-69" font-family="Helvetica,sans-Serif" font-size="10.00">string</text>
</g>
<!-- Node6&#45;&gt;Node8 -->
<g id="edge10" class="edge"><title>Node6&#45;&gt;Node8</title>
<path fill="none" stroke="midnightblue" d="M487.162,-369.492C578.124,-344.072 760.079,-290.699 777,-266 818.007,-206.144 745.235,-123.043 710.23,-88.5236"/>
<polygon fill="midnightblue" stroke="midnightblue" points="712.249,-85.609 702.618,-81.1952 707.395,-90.652 712.249,-85.609"/>
</g>
<!-- Node9 -->
<g id="node9" class="node"><title>Node9</title>
<polygon fill="white" stroke="#bfbfbf" points="443,-62 443,-81 487,-81 487,-62 443,-62"/>
<text text-anchor="middle" x="465" y="-69" font-family="Helvetica,sans-Serif" font-size="10.00">vector</text>
</g>
<!-- Node6&#45;&gt;Node9 -->
<g id="edge11" class="edge"><title>Node6&#45;&gt;Node9</title>
<path fill="none" stroke="midnightblue" d="M436,-369.461C436,-346.118 436,-297.849 436,-257 436,-257 436,-257 436,-199 436,-159.727 449.444,-115.289 458.025,-90.9269"/>
<polygon fill="midnightblue" stroke="midnightblue" points="461.421,-91.8307 461.559,-81.2367 454.845,-89.432 461.421,-91.8307"/>
</g>
<!-- Node10 -->
<g id="node10" class="node"><title>Node10</title>
<g id="a_node10"><a xlink:href="cmdlinemodulemanager_8h.xhtml" target="_top" xlink:title="Declares gmx::CommandLineModuleManager. ">
<polygon fill="white" stroke="black" points="276.5,-123.5 276.5,-153.5 407.5,-153.5 407.5,-123.5 276.5,-123.5"/>
<text text-anchor="start" x="284.5" y="-141.5" font-family="Helvetica,sans-Serif" font-size="10.00">gromacs/commandline</text>
<text text-anchor="middle" x="342" y="-130.5" font-family="Helvetica,sans-Serif" font-size="10.00">/cmdlinemodulemanager.h</text>
</a>
</g>
</g>
<!-- Node6&#45;&gt;Node10 -->
<g id="edge13" class="edge"><title>Node6&#45;&gt;Node10</title>
<path fill="none" stroke="midnightblue" d="M430.54,-369.327C414.997,-328.981 370.393,-213.201 351.087,-163.088"/>
<polygon fill="midnightblue" stroke="midnightblue" points="354.336,-161.785 347.475,-153.712 347.804,-164.302 354.336,-161.785"/>
</g>
<!-- Node11 -->
<g id="node11" class="node"><title>Node11</title>
<g id="a_node11"><a xlink:href="options_2options_8h.xhtml" target="_top" xlink:title="Declares gmx::Options. ">
<polygon fill="white" stroke="black" points="464.5,-308 464.5,-327 595.5,-327 595.5,-308 464.5,-308"/>
<text text-anchor="middle" x="530" y="-315" font-family="Helvetica,sans-Serif" font-size="10.00">gromacs/options/options.h</text>
</a>
</g>
</g>
<!-- Node6&#45;&gt;Node11 -->
<g id="edge17" class="edge"><title>Node6&#45;&gt;Node11</title>
<path fill="none" stroke="midnightblue" d="M456.397,-369.396C472.014,-358.597 493.475,-343.756 509.194,-332.887"/>
<polygon fill="midnightblue" stroke="midnightblue" points="511.463,-335.573 517.698,-327.007 507.482,-329.816 511.463,-335.573"/>
</g>
<!-- Node17 -->
<g id="node17" class="node"><title>Node17</title>
<g id="a_node17"><a xlink:href="gmxassert_8h.xhtml" target="_top" xlink:title="Defines assert macros customized for Gromacs. ">
<polygon fill="white" stroke="black" points="840.5,-129 840.5,-148 977.5,-148 977.5,-129 840.5,-129"/>
<text text-anchor="middle" x="909" y="-136" font-family="Helvetica,sans-Serif" font-size="10.00">gromacs/utility/gmxassert.h</text>
</a>
</g>
</g>
<!-- Node6&#45;&gt;Node17 -->
<g id="edge36" class="edge"><title>Node6&#45;&gt;Node17</title>
<path fill="none" stroke="midnightblue" d="M495.642,-381.45C616.205,-376.693 879.809,-362.95 907,-333 951.396,-284.1 928.784,-196.191 915.899,-158.024"/>
<polygon fill="midnightblue" stroke="midnightblue" points="919.079,-156.519 912.441,-148.261 912.481,-158.856 919.079,-156.519"/>
</g>
<!-- Node22 -->
<g id="node22" class="node"><title>Node22</title>
<g id="a_node22"><a xlink:href="binaryinformation_8h.xhtml" target="_top" xlink:title="Helper functionality for information about the currently running binary. ">
<polygon fill="white" stroke="black" points="732,-308 732,-327 898,-327 898,-308 732,-308"/>
<text text-anchor="middle" x="815" y="-315" font-family="Helvetica,sans-Serif" font-size="10.00">gromacs/utility/binaryinformation.h</text>
</a>
</g>
</g>
<!-- Node6&#45;&gt;Node22 -->
<g id="edge33" class="edge"><title>Node6&#45;&gt;Node22</title>
<path fill="none" stroke="midnightblue" d="M495.636,-373.272C566.568,-361.107 684.273,-340.92 755.253,-328.747"/>
<polygon fill="midnightblue" stroke="midnightblue" points="756.111,-332.151 765.376,-327.011 754.928,-325.252 756.111,-332.151"/>
</g>
<!-- Node10&#45;&gt;Node3 -->
<g id="edge16" class="edge"><title>Node10&#45;&gt;Node3</title>
<path fill="none" stroke="midnightblue" d="M335.273,-123.396C330.679,-113.763 324.552,-100.914 319.602,-90.5373"/>
<polygon fill="midnightblue" stroke="midnightblue" points="322.611,-88.7139 315.147,-81.1945 316.292,-91.7273 322.611,-88.7139"/>
</g>
<!-- Node10&#45;&gt;Node4 -->
<g id="edge14" class="edge"><title>Node10&#45;&gt;Node4</title>
<path fill="none" stroke="midnightblue" d="M361.73,-123.307C382.273,-106.764 409.345,-78.7852 393,-56 371.171,-25.5699 327.642,-15.4568 296.32,-12.2346"/>
<polygon fill="midnightblue" stroke="midnightblue" points="296.473,-8.73521 286.215,-11.3867 295.887,-15.7107 296.473,-8.73521"/>
</g>
<!-- Node10&#45;&gt;Node5 -->
<g id="edge15" class="edge"><title>Node10&#45;&gt;Node5</title>
<path fill="none" stroke="midnightblue" d="M296.476,-123.476C264.279,-113.557 220.922,-100.201 186.665,-89.6481"/>
<polygon fill="midnightblue" stroke="midnightblue" points="187.393,-86.2101 176.806,-86.6109 185.333,-92.8999 187.393,-86.2101"/>
</g>
<!-- Node11&#45;&gt;Node3 -->
<g id="edge32" class="edge"><title>Node11&#45;&gt;Node3</title>
<path fill="none" stroke="midnightblue" d="M527.061,-307.978C516.534,-278.567 478.003,-179.996 416,-123 396.887,-105.431 370.547,-92.7849 349.031,-84.5419"/>
<polygon fill="midnightblue" stroke="midnightblue" points="350.121,-81.214 339.527,-81.0625 347.715,-87.7873 350.121,-81.214"/>
</g>
<!-- Node11&#45;&gt;Node8 -->
<g id="edge18" class="edge"><title>Node11&#45;&gt;Node8</title>
<path fill="none" stroke="midnightblue" d="M528.816,-307.721C526.219,-284.377 522.802,-220.481 558,-190 598.165,-155.217 635.451,-192.566 672,-154 687.981,-137.137 692.211,-109.782 693.123,-91.4728"/>
<polygon fill="midnightblue" stroke="midnightblue" points="696.623,-91.4887 693.337,-81.4164 689.625,-91.3396 696.623,-91.4887"/>
</g>
<!-- Node12 -->
<g id="node12" class="node"><title>Node12</title>
<g id="a_node12"><a xlink:href="ioptionscontainerwithsections_8h.xhtml" target="_top" xlink:title="Declares gmx::IOptionsContainerWithSections. ">
<polygon fill="white" stroke="black" points="540,-246.5 540,-265.5 768,-265.5 768,-246.5 540,-246.5"/>
<text text-anchor="middle" x="654" y="-253.5" font-family="Helvetica,sans-Serif" font-size="10.00">gromacs/options/ioptionscontainerwithsections.h</text>
</a>
</g>
</g>
<!-- Node11&#45;&gt;Node12 -->
<g id="edge19" class="edge"><title>Node11&#45;&gt;Node12</title>
<path fill="none" stroke="midnightblue" d="M547.766,-307.975C568.484,-298.034 602.952,-281.495 626.989,-269.961"/>
<polygon fill="midnightblue" stroke="midnightblue" points="628.765,-272.991 636.267,-265.509 625.737,-266.68 628.765,-272.991"/>
</g>
<!-- Node13 -->
<g id="node13" class="node"><title>Node13</title>
<g id="a_node13"><a xlink:href="ioptionscontainer_8h.xhtml" target="_top" xlink:title="Declares gmx::IOptionsContainer. ">
<polygon fill="white" stroke="black" points="567.5,-190.5 567.5,-209.5 740.5,-209.5 740.5,-190.5 567.5,-190.5"/>
<text text-anchor="middle" x="654" y="-197.5" font-family="Helvetica,sans-Serif" font-size="10.00">gromacs/options/ioptionscontainer.h</text>
</a>
</g>
</g>
<!-- Node12&#45;&gt;Node13 -->
<g id="edge20" class="edge"><title>Node12&#45;&gt;Node13</title>
<path fill="none" stroke="midnightblue" d="M654,-246.083C654,-239.006 654,-228.861 654,-219.986"/>
<polygon fill="midnightblue" stroke="midnightblue" points="657.5,-219.751 654,-209.751 650.5,-219.751 657.5,-219.751"/>
</g>
<!-- Node14 -->
<g id="node14" class="node"><title>Node14</title>
<g id="a_node14"><a xlink:href="abstractoption_8h.xhtml" target="_top" xlink:title="Defines gmx::AbstractOption, gmx::OptionTemplate and gmx::OptionInfo. ">
<polygon fill="white" stroke="black" points="502.5,-129 502.5,-148 663.5,-148 663.5,-129 502.5,-129"/>
<text text-anchor="middle" x="583" y="-136" font-family="Helvetica,sans-Serif" font-size="10.00">gromacs/options/abstractoption.h</text>
</a>
</g>
</g>
<!-- Node13&#45;&gt;Node14 -->
<g id="edge21" class="edge"><title>Node13&#45;&gt;Node14</title>
<path fill="none" stroke="midnightblue" d="M643.827,-190.475C632.65,-181.108 614.483,-165.884 600.909,-154.508"/>
<polygon fill="midnightblue" stroke="midnightblue" points="603.066,-151.75 593.154,-148.009 598.57,-157.115 603.066,-151.75"/>
</g>
<!-- Node13&#45;&gt;Node17 -->
<g id="edge27" class="edge"><title>Node13&#45;&gt;Node17</title>
<path fill="none" stroke="midnightblue" d="M690.535,-190.475C735.886,-179.893 813.276,-161.836 862.729,-150.297"/>
<polygon fill="midnightblue" stroke="midnightblue" points="863.589,-153.69 872.532,-148.009 861.999,-146.873 863.589,-153.69"/>
</g>
<!-- Node14&#45;&gt;Node3 -->
<g id="edge26" class="edge"><title>Node14&#45;&gt;Node3</title>
<path fill="none" stroke="midnightblue" d="M547.161,-128.936C498.237,-117.244 410.509,-96.2797 356.849,-83.4566"/>
<polygon fill="midnightblue" stroke="midnightblue" points="357.458,-80.0036 346.918,-81.0834 355.831,-86.8119 357.458,-80.0036"/>
</g>
<!-- Node14&#45;&gt;Node8 -->
<g id="edge22" class="edge"><title>Node14&#45;&gt;Node8</title>
<path fill="none" stroke="midnightblue" d="M597.835,-128.734C616.308,-117.818 648.072,-99.0487 669.78,-86.2209"/>
<polygon fill="midnightblue" stroke="midnightblue" points="671.571,-89.2279 678.4,-81.1273 668.01,-83.2014 671.571,-89.2279"/>
</g>
<!-- Node14&#45;&gt;Node9 -->
<g id="edge23" class="edge"><title>Node14&#45;&gt;Node9</title>
<path fill="none" stroke="midnightblue" d="M567.086,-128.734C547.181,-117.769 512.891,-98.8809 489.597,-86.0495"/>
<polygon fill="midnightblue" stroke="midnightblue" points="491.11,-82.8866 480.662,-81.1273 487.732,-89.0179 491.11,-82.8866"/>
</g>
<!-- Node15 -->
<g id="node15" class="node"><title>Node15</title>
<g id="a_node15"><a xlink:href="optionflags_8h.xhtml" target="_top" xlink:title="Defines flags used in option implementation. ">
<polygon fill="white" stroke="black" points="507.5,-62 507.5,-81 654.5,-81 654.5,-62 507.5,-62"/>
<text text-anchor="middle" x="581" y="-69" font-family="Helvetica,sans-Serif" font-size="10.00">gromacs/options/optionflags.h</text>
</a>
</g>
</g>
<!-- Node14&#45;&gt;Node15 -->
<g id="edge24" class="edge"><title>Node14&#45;&gt;Node15</title>
<path fill="none" stroke="midnightblue" d="M582.73,-128.734C582.436,-119.183 581.957,-103.618 581.578,-91.2829"/>
<polygon fill="midnightblue" stroke="midnightblue" points="585.071,-91.0149 581.265,-81.1273 578.075,-91.2302 585.071,-91.0149"/>
</g>
<!-- Node16 -->
<g id="node16" class="node"><title>Node16</title>
<g id="a_node16"><a xlink:href="flags_8h.xhtml" target="_top" xlink:title="Declares gmx::FlagsTemplate. ">
<polygon fill="white" stroke="black" points="524.5,-0.5 524.5,-19.5 637.5,-19.5 637.5,-0.5 524.5,-0.5"/>
<text text-anchor="middle" x="581" y="-7.5" font-family="Helvetica,sans-Serif" font-size="10.00">gromacs/utility/flags.h</text>
</a>
</g>
</g>
<!-- Node15&#45;&gt;Node16 -->
<g id="edge25" class="edge"><title>Node15&#45;&gt;Node16</title>
<path fill="none" stroke="midnightblue" d="M581,-61.9751C581,-53.5803 581,-40.4806 581,-29.6631"/>
<polygon fill="midnightblue" stroke="midnightblue" points="584.5,-29.5091 581,-19.5091 577.5,-29.5091 584.5,-29.5091"/>
</g>
<!-- Node18 -->
<g id="node18" class="node"><title>Node18</title>
<g id="a_node18"><a xlink:href="basedefinitions_8h.xhtml" target="_top" xlink:title="Basic types and macros used throughout GROMACS. ">
<polygon fill="white" stroke="black" points="923.5,-62 923.5,-81 1080.5,-81 1080.5,-62 923.5,-62"/>
<text text-anchor="middle" x="1002" y="-69" font-family="Helvetica,sans-Serif" font-size="10.00">gromacs/utility/basedefinitions.h</text>
</a>
</g>
</g>
<!-- Node17&#45;&gt;Node18 -->
<g id="edge28" class="edge"><title>Node17&#45;&gt;Node18</title>
<path fill="none" stroke="midnightblue" d="M921.542,-128.734C936.881,-118.013 963.059,-99.7165 981.377,-86.9137"/>
<polygon fill="midnightblue" stroke="midnightblue" points="983.465,-89.7248 989.656,-81.1273 979.455,-83.9873 983.465,-89.7248"/>
</g>
<!-- Node21 -->
<g id="node21" class="node"><title>Node21</title>
<g id="a_node21"><a xlink:href="current__function_8h.xhtml" target="_top" xlink:title="Declares GMX_CURRENT_FUNCTION for getting the current function name. ">
<polygon fill="white" stroke="black" points="792.5,-56.5 792.5,-86.5 905.5,-86.5 905.5,-56.5 792.5,-56.5"/>
<text text-anchor="start" x="800.5" y="-74.5" font-family="Helvetica,sans-Serif" font-size="10.00">gromacs/utility/current</text>
<text text-anchor="middle" x="849" y="-63.5" font-family="Helvetica,sans-Serif" font-size="10.00">_function.h</text>
</a>
</g>
</g>
<!-- Node17&#45;&gt;Node21 -->
<g id="edge31" class="edge"><title>Node17&#45;&gt;Node21</title>
<path fill="none" stroke="midnightblue" d="M900.908,-128.734C892.721,-119.865 879.749,-105.811 868.821,-93.9722"/>
<polygon fill="midnightblue" stroke="midnightblue" points="871.36,-91.5631 862.005,-86.589 866.216,-96.3111 871.36,-91.5631"/>
</g>
<!-- Node19 -->
<g id="node19" class="node"><title>Node19</title>
<polygon fill="white" stroke="#bfbfbf" points="941.5,-0.5 941.5,-19.5 990.5,-19.5 990.5,-0.5 941.5,-0.5"/>
<text text-anchor="middle" x="966" y="-7.5" font-family="Helvetica,sans-Serif" font-size="10.00">stdint.h</text>
</g>
<!-- Node18&#45;&gt;Node19 -->
<g id="edge29" class="edge"><title>Node18&#45;&gt;Node19</title>
<path fill="none" stroke="midnightblue" d="M996.842,-61.9751C991.549,-53.2268 983.165,-39.3691 976.473,-28.3093"/>
<polygon fill="midnightblue" stroke="midnightblue" points="979.32,-26.2531 971.148,-19.5091 973.33,-29.8768 979.32,-26.2531"/>
</g>
<!-- Node20 -->
<g id="node20" class="node"><title>Node20</title>
<polygon fill="white" stroke="#bfbfbf" points="1008.5,-0.5 1008.5,-19.5 1067.5,-19.5 1067.5,-0.5 1008.5,-0.5"/>
<text text-anchor="middle" x="1038" y="-7.5" font-family="Helvetica,sans-Serif" font-size="10.00">inttypes.h</text>
</g>
<!-- Node18&#45;&gt;Node20 -->
<g id="edge30" class="edge"><title>Node18&#45;&gt;Node20</title>
<path fill="none" stroke="midnightblue" d="M1007.16,-61.9751C1012.45,-53.2268 1020.84,-39.3691 1027.53,-28.3093"/>
<polygon fill="midnightblue" stroke="midnightblue" points="1030.67,-29.8768 1032.85,-19.5091 1024.68,-26.2531 1030.67,-29.8768"/>
</g>
<!-- Node23 -->
<g id="node23" class="node"><title>Node23</title>
<polygon fill="white" stroke="#bfbfbf" points="824.5,-246.5 824.5,-265.5 867.5,-265.5 867.5,-246.5 824.5,-246.5"/>
<text text-anchor="middle" x="846" y="-253.5" font-family="Helvetica,sans-Serif" font-size="10.00">cstdio</text>
</g>
<!-- Node22&#45;&gt;Node23 -->
<g id="edge34" class="edge"><title>Node22&#45;&gt;Node23</title>
<path fill="none" stroke="midnightblue" d="M819.442,-307.975C823.953,-299.315 831.074,-285.649 836.807,-274.645"/>
<polygon fill="midnightblue" stroke="midnightblue" points="840.05,-275.995 841.567,-265.509 833.842,-272.76 840.05,-275.995"/>
</g>
</g>
</svg>
