<?xml version="1.0" encoding="UTF-8" standalone="no"?>
<!DOCTYPE svg PUBLIC "-//W3C//DTD SVG 1.1//EN"
 "http://www.w3.org/Graphics/SVG/1.1/DTD/svg11.dtd">
<!-- Generated by graphviz version 2.38.0 (20140413.2041)
 -->
<!-- Title: src/testutils/cmdlinetest.h Pages: 1 -->
<svg width="869pt" height="263pt"
 viewBox="0.00 0.00 869.00 263.00" xmlns="http://www.w3.org/2000/svg" xmlns:xlink="http://www.w3.org/1999/xlink">
<g id="graph0" class="graph" transform="scale(1 1) rotate(0) translate(4 259)">
<title>src/testutils/cmdlinetest.h</title>
<polygon fill="white" stroke="none" points="-4,4 -4,-259 865,-259 865,4 -4,4"/>
<!-- Node1 -->
<g id="node1" class="node"><title>Node1</title>
<polygon fill="#bfbfbf" stroke="black" points="109,-235.5 109,-254.5 238,-254.5 238,-235.5 109,-235.5"/>
<text text-anchor="middle" x="173.5" y="-242.5" font-family="Helvetica,sans-Serif" font-size="10.00">src/testutils/cmdlinetest.h</text>
</g>
<!-- Node2 -->
<g id="node2" class="node"><title>Node2</title>
<polygon fill="white" stroke="#bfbfbf" points="0,-179.5 0,-198.5 59,-198.5 59,-179.5 0,-179.5"/>
<text text-anchor="middle" x="29.5" y="-186.5" font-family="Helvetica,sans-Serif" font-size="10.00">functional</text>
</g>
<!-- Node1&#45;&gt;Node2 -->
<g id="edge1" class="edge"><title>Node1&#45;&gt;Node2</title>
<path fill="none" stroke="midnightblue" d="M150.683,-235.444C126.668,-226.438 88.671,-212.189 61.6308,-202.049"/>
<polygon fill="midnightblue" stroke="midnightblue" points="62.8027,-198.751 52.2105,-198.516 60.3448,-205.305 62.8027,-198.751"/>
</g>
<!-- Node3 -->
<g id="node3" class="node"><title>Node3</title>
<polygon fill="white" stroke="#bfbfbf" points="131.5,-123.5 131.5,-142.5 183.5,-142.5 183.5,-123.5 131.5,-123.5"/>
<text text-anchor="middle" x="157.5" y="-130.5" font-family="Helvetica,sans-Serif" font-size="10.00">memory</text>
</g>
<!-- Node1&#45;&gt;Node3 -->
<g id="edge2" class="edge"><title>Node1&#45;&gt;Node3</title>
<path fill="none" stroke="midnightblue" d="M150.712,-235.471C135.174,-228.316 115.793,-216.435 106.5,-199 96.296,-179.855 115.952,-160.643 133.746,-148.126"/>
<polygon fill="midnightblue" stroke="midnightblue" points="135.776,-150.98 142.193,-142.549 131.919,-145.138 135.776,-150.98"/>
</g>
<!-- Node4 -->
<g id="node4" class="node"><title>Node4</title>
<polygon fill="white" stroke="#bfbfbf" points="116,-179.5 116,-198.5 157,-198.5 157,-179.5 116,-179.5"/>
<text text-anchor="middle" x="136.5" y="-186.5" font-family="Helvetica,sans-Serif" font-size="10.00">string</text>
</g>
<!-- Node1&#45;&gt;Node4 -->
<g id="edge3" class="edge"><title>Node1&#45;&gt;Node4</title>
<path fill="none" stroke="midnightblue" d="M167.39,-235.083C162.218,-227.534 154.654,-216.495 148.306,-207.23"/>
<polygon fill="midnightblue" stroke="midnightblue" points="151.036,-205.022 142.496,-198.751 145.261,-208.979 151.036,-205.022"/>
</g>
<!-- Node5 -->
<g id="node5" class="node"><title>Node5</title>
<polygon fill="white" stroke="#bfbfbf" points="175,-179.5 175,-198.5 246,-198.5 246,-179.5 175,-179.5"/>
<text text-anchor="middle" x="210.5" y="-186.5" font-family="Helvetica,sans-Serif" font-size="10.00">gtest/gtest.h</text>
</g>
<!-- Node1&#45;&gt;Node5 -->
<g id="edge4" class="edge"><title>Node1&#45;&gt;Node5</title>
<path fill="none" stroke="midnightblue" d="M179.61,-235.083C184.782,-227.534 192.346,-216.495 198.694,-207.23"/>
<polygon fill="midnightblue" stroke="midnightblue" points="201.739,-208.979 204.504,-198.751 195.964,-205.022 201.739,-208.979"/>
</g>
<!-- Node6 -->
<g id="node6" class="node"><title>Node6</title>
<g id="a_node6"><a xlink:href="arrayref_8h.xhtml" target="_top" xlink:title="Declares gmx::ArrayRef. ">
<polygon fill="white" stroke="black" points="429,-179.5 429,-198.5 554,-198.5 554,-179.5 429,-179.5"/>
<text text-anchor="middle" x="491.5" y="-186.5" font-family="Helvetica,sans-Serif" font-size="10.00">gromacs/utility/arrayref.h</text>
</a>
</g>
</g>
<!-- Node1&#45;&gt;Node6 -->
<g id="edge5" class="edge"><title>Node1&#45;&gt;Node6</title>
<path fill="none" stroke="midnightblue" d="M223.888,-235.444C280.176,-225.885 371.252,-210.419 431.258,-200.23"/>
<polygon fill="midnightblue" stroke="midnightblue" points="432.075,-203.641 441.348,-198.516 430.903,-196.74 432.075,-203.641"/>
</g>
<!-- Node18 -->
<g id="node18" class="node"><title>Node18</title>
<g id="a_node18"><a xlink:href="classhelpers_8h.xhtml" target="_top" xlink:title="Declares common utility classes and macros. ">
<polygon fill="white" stroke="black" points="264.5,-179.5 264.5,-198.5 410.5,-198.5 410.5,-179.5 264.5,-179.5"/>
<text text-anchor="middle" x="337.5" y="-186.5" font-family="Helvetica,sans-Serif" font-size="10.00">gromacs/utility/classhelpers.h</text>
</a>
</g>
</g>
<!-- Node1&#45;&gt;Node18 -->
<g id="edge17" class="edge"><title>Node1&#45;&gt;Node18</title>
<path fill="none" stroke="midnightblue" d="M199.486,-235.444C227.196,-226.32 271.252,-211.813 302.116,-201.651"/>
<polygon fill="midnightblue" stroke="midnightblue" points="303.232,-204.968 311.635,-198.516 301.042,-198.32 303.232,-204.968"/>
</g>
<!-- Node7 -->
<g id="node7" class="node"><title>Node7</title>
<polygon fill="white" stroke="#bfbfbf" points="273,-123.5 273,-142.5 322,-142.5 322,-123.5 273,-123.5"/>
<text text-anchor="middle" x="297.5" y="-130.5" font-family="Helvetica,sans-Serif" font-size="10.00">cstddef</text>
</g>
<!-- Node6&#45;&gt;Node7 -->
<g id="edge6" class="edge"><title>Node6&#45;&gt;Node7</title>
<path fill="none" stroke="midnightblue" d="M460.76,-179.444C425.7,-169.685 368.519,-153.768 331.973,-143.596"/>
<polygon fill="midnightblue" stroke="midnightblue" points="332.82,-140.198 322.248,-140.889 330.943,-146.942 332.82,-140.198"/>
</g>
<!-- Node8 -->
<g id="node8" class="node"><title>Node8</title>
<polygon fill="white" stroke="#bfbfbf" points="340.5,-123.5 340.5,-142.5 378.5,-142.5 378.5,-123.5 340.5,-123.5"/>
<text text-anchor="middle" x="359.5" y="-130.5" font-family="Helvetica,sans-Serif" font-size="10.00">array</text>
</g>
<!-- Node6&#45;&gt;Node8 -->
<g id="edge7" class="edge"><title>Node6&#45;&gt;Node8</title>
<path fill="none" stroke="midnightblue" d="M470.584,-179.444C448.251,-170.307 412.724,-155.773 387.878,-145.609"/>
<polygon fill="midnightblue" stroke="midnightblue" points="389.184,-142.362 378.604,-141.815 386.534,-148.841 389.184,-142.362"/>
</g>
<!-- Node9 -->
<g id="node9" class="node"><title>Node9</title>
<polygon fill="white" stroke="#bfbfbf" points="397,-123.5 397,-142.5 444,-142.5 444,-123.5 397,-123.5"/>
<text text-anchor="middle" x="420.5" y="-130.5" font-family="Helvetica,sans-Serif" font-size="10.00">iterator</text>
</g>
<!-- Node6&#45;&gt;Node9 -->
<g id="edge8" class="edge"><title>Node6&#45;&gt;Node9</title>
<path fill="none" stroke="midnightblue" d="M480.093,-179.324C469.391,-171.185 453.159,-158.839 440.337,-149.087"/>
<polygon fill="midnightblue" stroke="midnightblue" points="442.193,-146.102 432.115,-142.834 437.956,-151.673 442.193,-146.102"/>
</g>
<!-- Node10 -->
<g id="node10" class="node"><title>Node10</title>
<polygon fill="white" stroke="#bfbfbf" points="462,-123.5 462,-142.5 521,-142.5 521,-123.5 462,-123.5"/>
<text text-anchor="middle" x="491.5" y="-130.5" font-family="Helvetica,sans-Serif" font-size="10.00">stdexcept</text>
</g>
<!-- Node6&#45;&gt;Node10 -->
<g id="edge9" class="edge"><title>Node6&#45;&gt;Node10</title>
<path fill="none" stroke="midnightblue" d="M491.5,-179.083C491.5,-172.006 491.5,-161.861 491.5,-152.986"/>
<polygon fill="midnightblue" stroke="midnightblue" points="495,-152.751 491.5,-142.751 488,-152.751 495,-152.751"/>
</g>
<!-- Node11 -->
<g id="node11" class="node"><title>Node11</title>
<polygon fill="white" stroke="#bfbfbf" points="539.5,-123.5 539.5,-142.5 579.5,-142.5 579.5,-123.5 539.5,-123.5"/>
<text text-anchor="middle" x="559.5" y="-130.5" font-family="Helvetica,sans-Serif" font-size="10.00">utility</text>
</g>
<!-- Node6&#45;&gt;Node11 -->
<g id="edge10" class="edge"><title>Node6&#45;&gt;Node11</title>
<path fill="none" stroke="midnightblue" d="M502.425,-179.324C512.675,-171.185 528.221,-158.839 540.501,-149.087"/>
<polygon fill="midnightblue" stroke="midnightblue" points="542.721,-151.794 548.376,-142.834 538.368,-146.312 542.721,-151.794"/>
</g>
<!-- Node12 -->
<g id="node12" class="node"><title>Node12</title>
<polygon fill="white" stroke="#bfbfbf" points="597.5,-123.5 597.5,-142.5 641.5,-142.5 641.5,-123.5 597.5,-123.5"/>
<text text-anchor="middle" x="619.5" y="-130.5" font-family="Helvetica,sans-Serif" font-size="10.00">vector</text>
</g>
<!-- Node6&#45;&gt;Node12 -->
<g id="edge11" class="edge"><title>Node6&#45;&gt;Node12</title>
<path fill="none" stroke="midnightblue" d="M511.782,-179.444C532.847,-170.557 566.017,-156.563 589.986,-146.451"/>
<polygon fill="midnightblue" stroke="midnightblue" points="591.46,-149.628 599.313,-142.516 588.739,-143.179 591.46,-149.628"/>
</g>
<!-- Node13 -->
<g id="node13" class="node"><title>Node13</title>
<g id="a_node13"><a xlink:href="gmxassert_8h.xhtml" target="_top" xlink:title="Defines assert macros customized for Gromacs. ">
<polygon fill="white" stroke="black" points="660,-123.5 660,-142.5 797,-142.5 797,-123.5 660,-123.5"/>
<text text-anchor="middle" x="728.5" y="-130.5" font-family="Helvetica,sans-Serif" font-size="10.00">gromacs/utility/gmxassert.h</text>
</a>
</g>
</g>
<!-- Node6&#45;&gt;Node13 -->
<g id="edge12" class="edge"><title>Node6&#45;&gt;Node13</title>
<path fill="none" stroke="midnightblue" d="M529.053,-179.444C570.311,-170.043 636.644,-154.929 681.366,-144.739"/>
<polygon fill="midnightblue" stroke="midnightblue" points="682.15,-148.151 691.122,-142.516 680.595,-141.326 682.15,-148.151"/>
</g>
<!-- Node14 -->
<g id="node14" class="node"><title>Node14</title>
<g id="a_node14"><a xlink:href="basedefinitions_8h.xhtml" target="_top" xlink:title="Basic types and macros used throughout GROMACS. ">
<polygon fill="white" stroke="black" points="573,-62 573,-81 730,-81 730,-62 573,-62"/>
<text text-anchor="middle" x="651.5" y="-69" font-family="Helvetica,sans-Serif" font-size="10.00">gromacs/utility/basedefinitions.h</text>
</a>
</g>
</g>
<!-- Node13&#45;&gt;Node14 -->
<g id="edge13" class="edge"><title>Node13&#45;&gt;Node14</title>
<path fill="none" stroke="midnightblue" d="M717.468,-123.475C705.232,-114.02 685.271,-98.5961 670.507,-87.1871"/>
<polygon fill="midnightblue" stroke="midnightblue" points="672.565,-84.3541 662.512,-81.0091 668.285,-89.8931 672.565,-84.3541"/>
</g>
<!-- Node17 -->
<g id="node17" class="node"><title>Node17</title>
<g id="a_node17"><a xlink:href="current__function_8h.xhtml" target="_top" xlink:title="Declares GMX_CURRENT_FUNCTION for getting the current function name. ">
<polygon fill="white" stroke="black" points="748,-56.5 748,-86.5 861,-86.5 861,-56.5 748,-56.5"/>
<text text-anchor="start" x="756" y="-74.5" font-family="Helvetica,sans-Serif" font-size="10.00">gromacs/utility/current</text>
<text text-anchor="middle" x="804.5" y="-63.5" font-family="Helvetica,sans-Serif" font-size="10.00">_function.h</text>
</a>
</g>
</g>
<!-- Node13&#45;&gt;Node17 -->
<g id="edge16" class="edge"><title>Node13&#45;&gt;Node17</title>
<path fill="none" stroke="midnightblue" d="M739.389,-123.475C749.586,-115.492 765.217,-103.254 778.609,-92.7703"/>
<polygon fill="midnightblue" stroke="midnightblue" points="780.872,-95.4434 786.588,-86.523 776.557,-89.9316 780.872,-95.4434"/>
</g>
<!-- Node15 -->
<g id="node15" class="node"><title>Node15</title>
<polygon fill="white" stroke="#bfbfbf" points="591,-0.5 591,-19.5 640,-19.5 640,-0.5 591,-0.5"/>
<text text-anchor="middle" x="615.5" y="-7.5" font-family="Helvetica,sans-Serif" font-size="10.00">stdint.h</text>
</g>
<!-- Node14&#45;&gt;Node15 -->
<g id="edge14" class="edge"><title>Node14&#45;&gt;Node15</title>
<path fill="none" stroke="midnightblue" d="M646.342,-61.9751C641.049,-53.2268 632.665,-39.3691 625.973,-28.3093"/>
<polygon fill="midnightblue" stroke="midnightblue" points="628.82,-26.2531 620.648,-19.5091 622.83,-29.8768 628.82,-26.2531"/>
</g>
<!-- Node16 -->
<g id="node16" class="node"><title>Node16</title>
<polygon fill="white" stroke="#bfbfbf" points="658,-0.5 658,-19.5 717,-19.5 717,-0.5 658,-0.5"/>
<text text-anchor="middle" x="687.5" y="-7.5" font-family="Helvetica,sans-Serif" font-size="10.00">inttypes.h</text>
</g>
<!-- Node14&#45;&gt;Node16 -->
<g id="edge15" class="edge"><title>Node14&#45;&gt;Node16</title>
<path fill="none" stroke="midnightblue" d="M656.658,-61.9751C661.951,-53.2268 670.335,-39.3691 677.027,-28.3093"/>
<polygon fill="midnightblue" stroke="midnightblue" points="680.17,-29.8768 682.352,-19.5091 674.18,-26.2531 680.17,-29.8768"/>
</g>
<!-- Node18&#45;&gt;Node3 -->
<g id="edge18" class="edge"><title>Node18&#45;&gt;Node3</title>
<path fill="none" stroke="midnightblue" d="M308.978,-179.444C277.715,-170.064 227.493,-154.998 193.53,-144.809"/>
<polygon fill="midnightblue" stroke="midnightblue" points="194.134,-141.336 183.55,-141.815 192.123,-148.041 194.134,-141.336"/>
</g>
</g>
</svg>
