<?xml version="1.0" encoding="UTF-8" standalone="no"?>
<!DOCTYPE svg PUBLIC "-//W3C//DTD SVG 1.1//EN"
 "http://www.w3.org/Graphics/SVG/1.1/DTD/svg11.dtd">
<!-- Generated by graphviz version 2.38.0 (20140413.2041)
 -->
<!-- Title: src/programs/mdrun/tests/compressed_x_output.cpp Pages: 1 -->
<svg width="1105pt" height="397pt"
 viewBox="0.00 0.00 1104.50 397.00" xmlns="http://www.w3.org/2000/svg" xmlns:xlink="http://www.w3.org/1999/xlink">
<g id="graph0" class="graph" transform="scale(1 1) rotate(0) translate(4 393)">
<title>src/programs/mdrun/tests/compressed_x_output.cpp</title>
<polygon fill="white" stroke="none" points="-4,4 -4,-393 1100.5,-393 1100.5,4 -4,4"/>
<!-- Node1 -->
<g id="node1" class="node"><title>Node1</title>
<polygon fill="#bfbfbf" stroke="black" points="496,-347.5 496,-388.5 604,-388.5 604,-347.5 496,-347.5"/>
<text text-anchor="start" x="504" y="-376.5" font-family="Helvetica,sans-Serif" font-size="10.00">src/programs/mdrun</text>
<text text-anchor="start" x="504" y="-365.5" font-family="Helvetica,sans-Serif" font-size="10.00">/tests/compressed_x</text>
<text text-anchor="middle" x="550" y="-354.5" font-family="Helvetica,sans-Serif" font-size="10.00">_output.cpp</text>
</g>
<!-- Node2 -->
<g id="node2" class="node"><title>Node2</title>
<g id="a_node2"><a xlink:href="gmxpre_8h.xhtml" target="_top" xlink:title="Prerequisite header file for GROMACS build. ">
<polygon fill="white" stroke="black" points="172.5,-291.5 172.5,-310.5 229.5,-310.5 229.5,-291.5 172.5,-291.5"/>
<text text-anchor="middle" x="201" y="-298.5" font-family="Helvetica,sans-Serif" font-size="10.00">gmxpre.h</text>
</a>
</g>
</g>
<!-- Node1&#45;&gt;Node2 -->
<g id="edge1" class="edge"><title>Node1&#45;&gt;Node2</title>
<path fill="none" stroke="midnightblue" d="M495.975,-358.332C435.682,-348.427 335.018,-331.208 239.468,-311.219"/>
<polygon fill="midnightblue" stroke="midnightblue" points="240.151,-307.786 229.644,-309.15 238.708,-314.636 240.151,-307.786"/>
</g>
<!-- Node3 -->
<g id="node3" class="node"><title>Node3</title>
<polygon fill="white" stroke="#bfbfbf" points="417.5,-179.5 417.5,-198.5 458.5,-198.5 458.5,-179.5 417.5,-179.5"/>
<text text-anchor="middle" x="438" y="-186.5" font-family="Helvetica,sans-Serif" font-size="10.00">string</text>
</g>
<!-- Node1&#45;&gt;Node3 -->
<g id="edge2" class="edge"><title>Node1&#45;&gt;Node3</title>
<path fill="none" stroke="midnightblue" d="M536.569,-347.385C521.482,-325.191 496.433,-287.85 476,-255 466.097,-239.079 455.362,-220.593 447.836,-207.415"/>
<polygon fill="midnightblue" stroke="midnightblue" points="450.755,-205.469 442.773,-198.502 444.669,-208.926 450.755,-205.469"/>
</g>
<!-- Node4 -->
<g id="node4" class="node"><title>Node4</title>
<polygon fill="white" stroke="#bfbfbf" points="900.5,-179.5 900.5,-198.5 971.5,-198.5 971.5,-179.5 900.5,-179.5"/>
<text text-anchor="middle" x="936" y="-186.5" font-family="Helvetica,sans-Serif" font-size="10.00">gtest/gtest.h</text>
</g>
<!-- Node1&#45;&gt;Node4 -->
<g id="edge3" class="edge"><title>Node1&#45;&gt;Node4</title>
<path fill="none" stroke="midnightblue" d="M604.177,-349.688C635.652,-339.25 675.902,-325.25 711,-311 765.532,-288.859 779.223,-282.982 831,-255 860.902,-238.84 894.038,-217.766 914.934,-204.063"/>
<polygon fill="midnightblue" stroke="midnightblue" points="916.939,-206.933 923.357,-198.503 913.083,-201.091 916.939,-206.933"/>
</g>
<!-- Node5 -->
<g id="node5" class="node"><title>Node5</title>
<g id="a_node5"><a xlink:href="filenameoption_8h.xhtml" target="_top" xlink:title="Declares gmx::FileNameOption and gmx::FileNameOptionInfo. ">
<polygon fill="white" stroke="black" points="247.5,-291.5 247.5,-310.5 410.5,-310.5 410.5,-291.5 247.5,-291.5"/>
<text text-anchor="middle" x="329" y="-298.5" font-family="Helvetica,sans-Serif" font-size="10.00">gromacs/options/filenameoption.h</text>
</a>
</g>
</g>
<!-- Node1&#45;&gt;Node5 -->
<g id="edge4" class="edge"><title>Node1&#45;&gt;Node5</title>
<path fill="none" stroke="midnightblue" d="M495.937,-351.099C456.393,-339.469 403.668,-323.961 368.14,-313.512"/>
<polygon fill="midnightblue" stroke="midnightblue" points="368.732,-310.038 358.151,-310.574 366.757,-316.753 368.732,-310.038"/>
</g>
<!-- Node13 -->
<g id="node13" class="node"><title>Node13</title>
<g id="a_node13"><a xlink:href="cmdlinetest_8h.xhtml" target="_top" xlink:title="Declares utilities testing command&#45;line programs. ">
<polygon fill="white" stroke="black" points="671.5,-235.5 671.5,-254.5 784.5,-254.5 784.5,-235.5 671.5,-235.5"/>
<text text-anchor="middle" x="728" y="-242.5" font-family="Helvetica,sans-Serif" font-size="10.00">testutils/cmdlinetest.h</text>
</a>
</g>
</g>
<!-- Node1&#45;&gt;Node13 -->
<g id="edge15" class="edge"><title>Node1&#45;&gt;Node13</title>
<path fill="none" stroke="midnightblue" d="M604.202,-354.079C631.892,-345.406 664.762,-331.694 689,-311 703.819,-298.348 714.542,-278.588 720.95,-264.174"/>
<polygon fill="midnightblue" stroke="midnightblue" points="724.24,-265.379 724.851,-254.802 717.777,-262.689 724.24,-265.379"/>
</g>
<!-- Node26 -->
<g id="node26" class="node"><title>Node26</title>
<g id="a_node26"><a xlink:href="programs_2mdrun_2tests_2moduletest_8h.xhtml" target="_top" xlink:title="Declares test fixtures for general mdrun functionality. ">
<polygon fill="white" stroke="black" points="606.5,-291.5 606.5,-310.5 679.5,-310.5 679.5,-291.5 606.5,-291.5"/>
<text text-anchor="middle" x="643" y="-298.5" font-family="Helvetica,sans-Serif" font-size="10.00">moduletest.h</text>
</a>
</g>
</g>
<!-- Node1&#45;&gt;Node26 -->
<g id="edge33" class="edge"><title>Node1&#45;&gt;Node26</title>
<path fill="none" stroke="midnightblue" d="M577.903,-347.498C592.162,-337.532 609.213,-325.614 622.288,-316.476"/>
<polygon fill="midnightblue" stroke="midnightblue" points="624.429,-319.25 630.62,-310.652 620.419,-313.512 624.429,-319.25"/>
</g>
<!-- Node5&#45;&gt;Node3 -->
<g id="edge5" class="edge"><title>Node5&#45;&gt;Node3</title>
<path fill="none" stroke="midnightblue" d="M347.004,-291.404C362.189,-283.504 383.814,-270.662 399,-255 412.416,-241.163 423.246,-221.884 430.058,-207.919"/>
<polygon fill="midnightblue" stroke="midnightblue" points="433.236,-209.386 434.287,-198.843 426.891,-206.429 433.236,-209.386"/>
</g>
<!-- Node6 -->
<g id="node6" class="node"><title>Node6</title>
<polygon fill="white" stroke="#bfbfbf" points="202,-123.5 202,-142.5 246,-142.5 246,-123.5 202,-123.5"/>
<text text-anchor="middle" x="224" y="-130.5" font-family="Helvetica,sans-Serif" font-size="10.00">vector</text>
</g>
<!-- Node5&#45;&gt;Node6 -->
<g id="edge6" class="edge"><title>Node5&#45;&gt;Node6</title>
<path fill="none" stroke="midnightblue" d="M276.721,-291.478C255.408,-285.151 232.807,-274.143 220,-255 199.231,-223.956 209.223,-177.707 217.278,-152.321"/>
<polygon fill="midnightblue" stroke="midnightblue" points="220.699,-153.132 220.621,-142.538 214.075,-150.869 220.699,-153.132"/>
</g>
<!-- Node7 -->
<g id="node7" class="node"><title>Node7</title>
<g id="a_node7"><a xlink:href="abstractoption_8h.xhtml" target="_top" xlink:title="Defines gmx::AbstractOption, gmx::OptionTemplate and gmx::OptionInfo. ">
<polygon fill="white" stroke="black" points="229.5,-235.5 229.5,-254.5 390.5,-254.5 390.5,-235.5 229.5,-235.5"/>
<text text-anchor="middle" x="310" y="-242.5" font-family="Helvetica,sans-Serif" font-size="10.00">gromacs/options/abstractoption.h</text>
</a>
</g>
</g>
<!-- Node5&#45;&gt;Node7 -->
<g id="edge7" class="edge"><title>Node5&#45;&gt;Node7</title>
<path fill="none" stroke="midnightblue" d="M325.863,-291.083C323.317,-283.849 319.644,-273.409 316.473,-264.397"/>
<polygon fill="midnightblue" stroke="midnightblue" points="319.7,-263.023 313.079,-254.751 313.097,-265.346 319.7,-263.023"/>
</g>
<!-- Node12 -->
<g id="node12" class="node"><title>Node12</title>
<g id="a_node12"><a xlink:href="optionfiletype_8h.xhtml" target="_top" xlink:title="Defines an enumeration type for specifying file types for options. ">
<polygon fill="white" stroke="black" points="0,-235.5 0,-254.5 158,-254.5 158,-235.5 0,-235.5"/>
<text text-anchor="middle" x="79" y="-242.5" font-family="Helvetica,sans-Serif" font-size="10.00">gromacs/options/optionfiletype.h</text>
</a>
</g>
</g>
<!-- Node5&#45;&gt;Node12 -->
<g id="edge14" class="edge"><title>Node5&#45;&gt;Node12</title>
<path fill="none" stroke="midnightblue" d="M289.387,-291.444C245.775,-282.023 175.6,-266.866 128.422,-256.675"/>
<polygon fill="midnightblue" stroke="midnightblue" points="128.941,-253.207 118.428,-254.516 127.464,-260.049 128.941,-253.207"/>
</g>
<!-- Node7&#45;&gt;Node3 -->
<g id="edge8" class="edge"><title>Node7&#45;&gt;Node3</title>
<path fill="none" stroke="midnightblue" d="M330.282,-235.444C351.347,-226.557 384.517,-212.563 408.486,-202.451"/>
<polygon fill="midnightblue" stroke="midnightblue" points="409.96,-205.628 417.813,-198.516 407.239,-199.179 409.96,-205.628"/>
</g>
<!-- Node7&#45;&gt;Node6 -->
<g id="edge9" class="edge"><title>Node7&#45;&gt;Node6</title>
<path fill="none" stroke="midnightblue" d="M290.213,-235.358C275.176,-227.823 255.083,-215.508 243,-199 233.126,-185.511 228.359,-166.954 226.072,-153.12"/>
<polygon fill="midnightblue" stroke="midnightblue" points="229.488,-152.265 224.677,-142.826 222.552,-153.205 229.488,-152.265"/>
</g>
<!-- Node8 -->
<g id="node8" class="node"><title>Node8</title>
<g id="a_node8"><a xlink:href="optionflags_8h.xhtml" target="_top" xlink:title="Defines flags used in option implementation. ">
<polygon fill="white" stroke="black" points="252.5,-179.5 252.5,-198.5 399.5,-198.5 399.5,-179.5 252.5,-179.5"/>
<text text-anchor="middle" x="326" y="-186.5" font-family="Helvetica,sans-Serif" font-size="10.00">gromacs/options/optionflags.h</text>
</a>
</g>
</g>
<!-- Node7&#45;&gt;Node8 -->
<g id="edge10" class="edge"><title>Node7&#45;&gt;Node8</title>
<path fill="none" stroke="midnightblue" d="M312.642,-235.083C314.786,-227.849 317.879,-217.409 320.549,-208.397"/>
<polygon fill="midnightblue" stroke="midnightblue" points="323.922,-209.333 323.407,-198.751 317.21,-207.345 323.922,-209.333"/>
</g>
<!-- Node10 -->
<g id="node10" class="node"><title>Node10</title>
<g id="a_node10"><a xlink:href="classhelpers_8h.xhtml" target="_top" xlink:title="Declares common utility classes and macros. ">
<polygon fill="white" stroke="black" points="477,-179.5 477,-198.5 623,-198.5 623,-179.5 477,-179.5"/>
<text text-anchor="middle" x="550" y="-186.5" font-family="Helvetica,sans-Serif" font-size="10.00">gromacs/utility/classhelpers.h</text>
</a>
</g>
</g>
<!-- Node7&#45;&gt;Node10 -->
<g id="edge12" class="edge"><title>Node7&#45;&gt;Node10</title>
<path fill="none" stroke="midnightblue" d="M348.029,-235.444C389.808,-226.043 456.982,-210.929 502.27,-200.739"/>
<polygon fill="midnightblue" stroke="midnightblue" points="503.161,-204.126 512.149,-198.516 501.625,-197.297 503.161,-204.126"/>
</g>
<!-- Node9 -->
<g id="node9" class="node"><title>Node9</title>
<g id="a_node9"><a xlink:href="flags_8h.xhtml" target="_top" xlink:title="Declares gmx::FlagsTemplate. ">
<polygon fill="white" stroke="black" points="269.5,-123.5 269.5,-142.5 382.5,-142.5 382.5,-123.5 269.5,-123.5"/>
<text text-anchor="middle" x="326" y="-130.5" font-family="Helvetica,sans-Serif" font-size="10.00">gromacs/utility/flags.h</text>
</a>
</g>
</g>
<!-- Node8&#45;&gt;Node9 -->
<g id="edge11" class="edge"><title>Node8&#45;&gt;Node9</title>
<path fill="none" stroke="midnightblue" d="M326,-179.083C326,-172.006 326,-161.861 326,-152.986"/>
<polygon fill="midnightblue" stroke="midnightblue" points="329.5,-152.751 326,-142.751 322.5,-152.751 329.5,-152.751"/>
</g>
<!-- Node11 -->
<g id="node11" class="node"><title>Node11</title>
<polygon fill="white" stroke="#bfbfbf" points="544,-123.5 544,-142.5 596,-142.5 596,-123.5 544,-123.5"/>
<text text-anchor="middle" x="570" y="-130.5" font-family="Helvetica,sans-Serif" font-size="10.00">memory</text>
</g>
<!-- Node10&#45;&gt;Node11 -->
<g id="edge13" class="edge"><title>Node10&#45;&gt;Node11</title>
<path fill="none" stroke="midnightblue" d="M553.303,-179.083C555.982,-171.849 559.849,-161.409 563.186,-152.397"/>
<polygon fill="midnightblue" stroke="midnightblue" points="566.568,-153.344 566.759,-142.751 560.004,-150.913 566.568,-153.344"/>
</g>
<!-- Node13&#45;&gt;Node3 -->
<g id="edge18" class="edge"><title>Node13&#45;&gt;Node3</title>
<path fill="none" stroke="midnightblue" d="M671.307,-236.193C620.644,-228.765 544.248,-216.454 468.733,-198.919"/>
<polygon fill="midnightblue" stroke="midnightblue" points="469.105,-195.411 458.569,-196.525 467.5,-202.224 469.105,-195.411"/>
</g>
<!-- Node13&#45;&gt;Node4 -->
<g id="edge19" class="edge"><title>Node13&#45;&gt;Node4</title>
<path fill="none" stroke="midnightblue" d="M760.958,-235.444C796.787,-226.142 854.163,-211.246 893.391,-201.062"/>
<polygon fill="midnightblue" stroke="midnightblue" points="894.396,-204.417 903.196,-198.516 892.637,-197.642 894.396,-204.417"/>
</g>
<!-- Node13&#45;&gt;Node10 -->
<g id="edge32" class="edge"><title>Node13&#45;&gt;Node10</title>
<path fill="none" stroke="midnightblue" d="M699.795,-235.444C669.59,-226.28 621.489,-211.688 587.971,-201.519"/>
<polygon fill="midnightblue" stroke="midnightblue" points="588.658,-198.07 578.073,-198.516 586.626,-204.769 588.658,-198.07"/>
</g>
<!-- Node13&#45;&gt;Node11 -->
<g id="edge17" class="edge"><title>Node13&#45;&gt;Node11</title>
<path fill="none" stroke="midnightblue" d="M728.07,-235.156C727.692,-221.322 724.921,-194.543 710,-179 695.536,-163.933 642.373,-149.744 605.886,-141.465"/>
<polygon fill="midnightblue" stroke="midnightblue" points="606.604,-138.039 596.083,-139.291 605.088,-144.873 606.604,-138.039"/>
</g>
<!-- Node14 -->
<g id="node14" class="node"><title>Node14</title>
<polygon fill="white" stroke="#bfbfbf" points="641.5,-179.5 641.5,-198.5 700.5,-198.5 700.5,-179.5 641.5,-179.5"/>
<text text-anchor="middle" x="671" y="-186.5" font-family="Helvetica,sans-Serif" font-size="10.00">functional</text>
</g>
<!-- Node13&#45;&gt;Node14 -->
<g id="edge16" class="edge"><title>Node13&#45;&gt;Node14</title>
<path fill="none" stroke="midnightblue" d="M718.842,-235.324C710.499,-227.42 697.968,-215.548 687.823,-205.938"/>
<polygon fill="midnightblue" stroke="midnightblue" points="689.991,-203.171 680.325,-198.834 685.177,-208.252 689.991,-203.171"/>
</g>
<!-- Node15 -->
<g id="node15" class="node"><title>Node15</title>
<g id="a_node15"><a xlink:href="arrayref_8h.xhtml" target="_top" xlink:title="Declares gmx::ArrayRef. ">
<polygon fill="white" stroke="black" points="757.5,-179.5 757.5,-198.5 882.5,-198.5 882.5,-179.5 757.5,-179.5"/>
<text text-anchor="middle" x="820" y="-186.5" font-family="Helvetica,sans-Serif" font-size="10.00">gromacs/utility/arrayref.h</text>
</a>
</g>
</g>
<!-- Node13&#45;&gt;Node15 -->
<g id="edge20" class="edge"><title>Node13&#45;&gt;Node15</title>
<path fill="none" stroke="midnightblue" d="M742.781,-235.324C757.267,-226.822 779.573,-213.729 796.493,-203.797"/>
<polygon fill="midnightblue" stroke="midnightblue" points="798.403,-206.735 805.255,-198.655 794.859,-200.698 798.403,-206.735"/>
</g>
<!-- Node15&#45;&gt;Node6 -->
<g id="edge26" class="edge"><title>Node15&#45;&gt;Node6</title>
<path fill="none" stroke="midnightblue" d="M757.467,-182.864C741.957,-181.595 725.374,-180.244 710,-179 510.015,-162.819 457.999,-175.442 260,-143 258.748,-142.795 257.476,-142.568 256.194,-142.324"/>
<polygon fill="midnightblue" stroke="midnightblue" points="256.863,-138.888 246.349,-140.194 255.383,-145.73 256.863,-138.888"/>
</g>
<!-- Node16 -->
<g id="node16" class="node"><title>Node16</title>
<polygon fill="white" stroke="#bfbfbf" points="1047.5,-123.5 1047.5,-142.5 1096.5,-142.5 1096.5,-123.5 1047.5,-123.5"/>
<text text-anchor="middle" x="1072" y="-130.5" font-family="Helvetica,sans-Serif" font-size="10.00">cstddef</text>
</g>
<!-- Node15&#45;&gt;Node16 -->
<g id="edge21" class="edge"><title>Node15&#45;&gt;Node16</title>
<path fill="none" stroke="midnightblue" d="M865.907,-179.448C908.178,-171.377 972.841,-158.533 1037.26,-143.314"/>
<polygon fill="midnightblue" stroke="midnightblue" points="1038.26,-146.674 1047.18,-140.952 1036.64,-139.864 1038.26,-146.674"/>
</g>
<!-- Node17 -->
<g id="node17" class="node"><title>Node17</title>
<polygon fill="white" stroke="#bfbfbf" points="635,-123.5 635,-142.5 673,-142.5 673,-123.5 635,-123.5"/>
<text text-anchor="middle" x="654" y="-130.5" font-family="Helvetica,sans-Serif" font-size="10.00">array</text>
</g>
<!-- Node15&#45;&gt;Node17 -->
<g id="edge22" class="edge"><title>Node15&#45;&gt;Node17</title>
<path fill="none" stroke="midnightblue" d="M793.697,-179.444C763.635,-169.664 714.566,-153.702 683.303,-143.532"/>
<polygon fill="midnightblue" stroke="midnightblue" points="684.03,-140.088 673.437,-140.323 681.864,-146.745 684.03,-140.088"/>
</g>
<!-- Node18 -->
<g id="node18" class="node"><title>Node18</title>
<polygon fill="white" stroke="#bfbfbf" points="691.5,-123.5 691.5,-142.5 738.5,-142.5 738.5,-123.5 691.5,-123.5"/>
<text text-anchor="middle" x="715" y="-130.5" font-family="Helvetica,sans-Serif" font-size="10.00">iterator</text>
</g>
<!-- Node15&#45;&gt;Node18 -->
<g id="edge23" class="edge"><title>Node15&#45;&gt;Node18</title>
<path fill="none" stroke="midnightblue" d="M803.13,-179.324C786.291,-170.664 760.193,-157.242 740.762,-147.249"/>
<polygon fill="midnightblue" stroke="midnightblue" points="742.322,-144.116 731.828,-142.655 739.12,-150.341 742.322,-144.116"/>
</g>
<!-- Node19 -->
<g id="node19" class="node"><title>Node19</title>
<polygon fill="white" stroke="#bfbfbf" points="756.5,-123.5 756.5,-142.5 815.5,-142.5 815.5,-123.5 756.5,-123.5"/>
<text text-anchor="middle" x="786" y="-130.5" font-family="Helvetica,sans-Serif" font-size="10.00">stdexcept</text>
</g>
<!-- Node15&#45;&gt;Node19 -->
<g id="edge24" class="edge"><title>Node15&#45;&gt;Node19</title>
<path fill="none" stroke="midnightblue" d="M814.386,-179.083C809.633,-171.534 802.682,-160.495 796.848,-151.23"/>
<polygon fill="midnightblue" stroke="midnightblue" points="799.8,-149.349 791.51,-142.751 793.876,-153.078 799.8,-149.349"/>
</g>
<!-- Node20 -->
<g id="node20" class="node"><title>Node20</title>
<polygon fill="white" stroke="#bfbfbf" points="834,-123.5 834,-142.5 874,-142.5 874,-123.5 834,-123.5"/>
<text text-anchor="middle" x="854" y="-130.5" font-family="Helvetica,sans-Serif" font-size="10.00">utility</text>
</g>
<!-- Node15&#45;&gt;Node20 -->
<g id="edge25" class="edge"><title>Node15&#45;&gt;Node20</title>
<path fill="none" stroke="midnightblue" d="M825.614,-179.083C830.367,-171.534 837.318,-160.495 843.152,-151.23"/>
<polygon fill="midnightblue" stroke="midnightblue" points="846.124,-153.078 848.49,-142.751 840.2,-149.349 846.124,-153.078"/>
</g>
<!-- Node21 -->
<g id="node21" class="node"><title>Node21</title>
<g id="a_node21"><a xlink:href="gmxassert_8h.xhtml" target="_top" xlink:title="Defines assert macros customized for Gromacs. ">
<polygon fill="white" stroke="black" points="892.5,-123.5 892.5,-142.5 1029.5,-142.5 1029.5,-123.5 892.5,-123.5"/>
<text text-anchor="middle" x="961" y="-130.5" font-family="Helvetica,sans-Serif" font-size="10.00">gromacs/utility/gmxassert.h</text>
</a>
</g>
</g>
<!-- Node15&#45;&gt;Node21 -->
<g id="edge27" class="edge"><title>Node15&#45;&gt;Node21</title>
<path fill="none" stroke="midnightblue" d="M842.342,-179.444C865.753,-170.478 902.736,-156.314 929.19,-146.183"/>
<polygon fill="midnightblue" stroke="midnightblue" points="930.676,-149.361 938.763,-142.516 928.172,-142.824 930.676,-149.361"/>
</g>
<!-- Node22 -->
<g id="node22" class="node"><title>Node22</title>
<g id="a_node22"><a xlink:href="basedefinitions_8h.xhtml" target="_top" xlink:title="Basic types and macros used throughout GROMACS. ">
<polygon fill="white" stroke="black" points="805.5,-62 805.5,-81 962.5,-81 962.5,-62 805.5,-62"/>
<text text-anchor="middle" x="884" y="-69" font-family="Helvetica,sans-Serif" font-size="10.00">gromacs/utility/basedefinitions.h</text>
</a>
</g>
</g>
<!-- Node21&#45;&gt;Node22 -->
<g id="edge28" class="edge"><title>Node21&#45;&gt;Node22</title>
<path fill="none" stroke="midnightblue" d="M949.968,-123.475C937.732,-114.02 917.771,-98.5961 903.007,-87.1871"/>
<polygon fill="midnightblue" stroke="midnightblue" points="905.065,-84.3541 895.012,-81.0091 900.785,-89.8931 905.065,-84.3541"/>
</g>
<!-- Node25 -->
<g id="node25" class="node"><title>Node25</title>
<g id="a_node25"><a xlink:href="current__function_8h.xhtml" target="_top" xlink:title="Declares GMX_CURRENT_FUNCTION for getting the current function name. ">
<polygon fill="white" stroke="black" points="980.5,-56.5 980.5,-86.5 1093.5,-86.5 1093.5,-56.5 980.5,-56.5"/>
<text text-anchor="start" x="988.5" y="-74.5" font-family="Helvetica,sans-Serif" font-size="10.00">gromacs/utility/current</text>
<text text-anchor="middle" x="1037" y="-63.5" font-family="Helvetica,sans-Serif" font-size="10.00">_function.h</text>
</a>
</g>
</g>
<!-- Node21&#45;&gt;Node25 -->
<g id="edge31" class="edge"><title>Node21&#45;&gt;Node25</title>
<path fill="none" stroke="midnightblue" d="M971.889,-123.475C982.086,-115.492 997.717,-103.254 1011.11,-92.7703"/>
<polygon fill="midnightblue" stroke="midnightblue" points="1013.37,-95.4434 1019.09,-86.523 1009.06,-89.9316 1013.37,-95.4434"/>
</g>
<!-- Node23 -->
<g id="node23" class="node"><title>Node23</title>
<polygon fill="white" stroke="#bfbfbf" points="823.5,-0.5 823.5,-19.5 872.5,-19.5 872.5,-0.5 823.5,-0.5"/>
<text text-anchor="middle" x="848" y="-7.5" font-family="Helvetica,sans-Serif" font-size="10.00">stdint.h</text>
</g>
<!-- Node22&#45;&gt;Node23 -->
<g id="edge29" class="edge"><title>Node22&#45;&gt;Node23</title>
<path fill="none" stroke="midnightblue" d="M878.842,-61.9751C873.549,-53.2268 865.165,-39.3691 858.473,-28.3093"/>
<polygon fill="midnightblue" stroke="midnightblue" points="861.32,-26.2531 853.148,-19.5091 855.33,-29.8768 861.32,-26.2531"/>
</g>
<!-- Node24 -->
<g id="node24" class="node"><title>Node24</title>
<polygon fill="white" stroke="#bfbfbf" points="890.5,-0.5 890.5,-19.5 949.5,-19.5 949.5,-0.5 890.5,-0.5"/>
<text text-anchor="middle" x="920" y="-7.5" font-family="Helvetica,sans-Serif" font-size="10.00">inttypes.h</text>
</g>
<!-- Node22&#45;&gt;Node24 -->
<g id="edge30" class="edge"><title>Node22&#45;&gt;Node24</title>
<path fill="none" stroke="midnightblue" d="M889.158,-61.9751C894.451,-53.2268 902.835,-39.3691 909.527,-28.3093"/>
<polygon fill="midnightblue" stroke="midnightblue" points="912.67,-29.8768 914.852,-19.5091 906.68,-26.2531 912.67,-29.8768"/>
</g>
<!-- Node26&#45;&gt;Node4 -->
<g id="edge34" class="edge"><title>Node26&#45;&gt;Node4</title>
<path fill="none" stroke="midnightblue" d="M676.432,-291.478C707.327,-283.265 754.31,-269.915 794,-255 835.547,-239.387 882.023,-217.164 910.136,-203.167"/>
<polygon fill="midnightblue" stroke="midnightblue" points="911.905,-206.196 919.275,-198.584 908.767,-199.938 911.905,-206.196"/>
</g>
<!-- Node26&#45;&gt;Node10 -->
<g id="edge35" class="edge"><title>Node26&#45;&gt;Node10</title>
<path fill="none" stroke="midnightblue" d="M642.42,-291.102C641.133,-277.668 637.025,-251.977 624,-235 613.264,-221.006 596.829,-210.388 582.173,-202.991"/>
<polygon fill="midnightblue" stroke="midnightblue" points="583.412,-199.705 572.876,-198.591 580.418,-206.032 583.412,-199.705"/>
</g>
<!-- Node26&#45;&gt;Node13 -->
<g id="edge36" class="edge"><title>Node26&#45;&gt;Node13</title>
<path fill="none" stroke="midnightblue" d="M656.657,-291.324C669.916,-282.9 690.268,-269.971 705.846,-260.074"/>
<polygon fill="midnightblue" stroke="midnightblue" points="707.813,-262.971 714.377,-254.655 704.06,-257.063 707.813,-262.971"/>
</g>
<!-- Node27 -->
<g id="node27" class="node"><title>Node27</title>
<g id="a_node27"><a xlink:href="testfilemanager_8h.xhtml" target="_top" xlink:title="Declares gmx::test::TestFileManager. ">
<polygon fill="white" stroke="black" points="485.5,-235.5 485.5,-254.5 614.5,-254.5 614.5,-235.5 485.5,-235.5"/>
<text text-anchor="middle" x="550" y="-242.5" font-family="Helvetica,sans-Serif" font-size="10.00">testutils/testfilemanager.h</text>
</a>
</g>
</g>
<!-- Node26&#45;&gt;Node27 -->
<g id="edge37" class="edge"><title>Node26&#45;&gt;Node27</title>
<path fill="none" stroke="midnightblue" d="M628.058,-291.324C613.415,-282.822 590.866,-269.729 573.762,-259.797"/>
<polygon fill="midnightblue" stroke="midnightblue" points="575.31,-256.649 564.905,-254.655 571.795,-262.703 575.31,-256.649"/>
</g>
<!-- Node27&#45;&gt;Node3 -->
<g id="edge38" class="edge"><title>Node27&#45;&gt;Node3</title>
<path fill="none" stroke="midnightblue" d="M532.005,-235.324C513.962,-226.625 485.953,-213.12 465.197,-203.113"/>
<polygon fill="midnightblue" stroke="midnightblue" points="466.478,-199.845 455.95,-198.655 463.438,-206.15 466.478,-199.845"/>
</g>
<!-- Node27&#45;&gt;Node10 -->
<g id="edge39" class="edge"><title>Node27&#45;&gt;Node10</title>
<path fill="none" stroke="midnightblue" d="M550,-235.083C550,-228.006 550,-217.861 550,-208.986"/>
<polygon fill="midnightblue" stroke="midnightblue" points="553.5,-208.751 550,-198.751 546.5,-208.751 553.5,-208.751"/>
</g>
</g>
</svg>
