<?xml version="1.0" encoding="UTF-8" standalone="no"?>
<!DOCTYPE svg PUBLIC "-//W3C//DTD SVG 1.1//EN"
 "http://www.w3.org/Graphics/SVG/1.1/DTD/svg11.dtd">
<!-- Generated by graphviz version 2.38.0 (20140413.2041)
 -->
<!-- Title: src/gromacs/awh/coordstate.cpp Pages: 1 -->
<svg width="2070pt" height="352pt"
 viewBox="0.00 0.00 2070.00 352.00" xmlns="http://www.w3.org/2000/svg" xmlns:xlink="http://www.w3.org/1999/xlink">
<g id="graph0" class="graph" transform="scale(1 1) rotate(0) translate(4 348)">
<title>src/gromacs/awh/coordstate.cpp</title>
<polygon fill="white" stroke="none" points="-4,4 -4,-348 2066,-348 2066,4 -4,4"/>
<!-- Node1 -->
<g id="node1" class="node"><title>Node1</title>
<polygon fill="#bfbfbf" stroke="black" points="695.5,-324.5 695.5,-343.5 854.5,-343.5 854.5,-324.5 695.5,-324.5"/>
<text text-anchor="middle" x="775" y="-331.5" font-family="Helvetica,sans-Serif" font-size="10.00">src/gromacs/awh/coordstate.cpp</text>
</g>
<!-- Node2 -->
<g id="node2" class="node"><title>Node2</title>
<g id="a_node2"><a xlink:href="gmxpre_8h.xhtml" target="_top" xlink:title="Prerequisite header file for GROMACS build. ">
<polygon fill="white" stroke="black" points="212.5,-263 212.5,-282 269.5,-282 269.5,-263 212.5,-263"/>
<text text-anchor="middle" x="241" y="-270" font-family="Helvetica,sans-Serif" font-size="10.00">gmxpre.h</text>
</a>
</g>
</g>
<!-- Node1&#45;&gt;Node2 -->
<g id="edge1" class="edge"><title>Node1&#45;&gt;Node2</title>
<path fill="none" stroke="midnightblue" d="M695.491,-331.409C597.677,-328.152 427.003,-318.228 284,-288 280.315,-287.221 276.506,-286.227 272.749,-285.126"/>
<polygon fill="midnightblue" stroke="midnightblue" points="273.633,-281.734 263.042,-282.034 271.508,-288.404 273.633,-281.734"/>
</g>
<!-- Node3 -->
<g id="node3" class="node"><title>Node3</title>
<g id="a_node3"><a xlink:href="coordstate_8h.xhtml" target="_top" xlink:title="Declares the CoordState class. ">
<polygon fill="white" stroke="black" points="326.5,-263 326.5,-282 397.5,-282 397.5,-263 326.5,-263"/>
<text text-anchor="middle" x="362" y="-270" font-family="Helvetica,sans-Serif" font-size="10.00">coordstate.h</text>
</a>
</g>
</g>
<!-- Node1&#45;&gt;Node3 -->
<g id="edge2" class="edge"><title>Node1&#45;&gt;Node3</title>
<path fill="none" stroke="midnightblue" d="M695.301,-327.648C620.262,-321.576 505.061,-309.589 407,-288 403.142,-287.151 399.145,-286.108 395.196,-284.975"/>
<polygon fill="midnightblue" stroke="midnightblue" points="396.176,-281.615 385.59,-282.031 394.125,-288.308 396.176,-281.615"/>
</g>
<!-- Node5 -->
<g id="node5" class="node"><title>Node5</title>
<g id="a_node5"><a xlink:href="arrayref_8h.xhtml" target="_top" xlink:title="Declares gmx::ArrayRef. ">
<polygon fill="white" stroke="black" points="66.5,-196 66.5,-215 191.5,-215 191.5,-196 66.5,-196"/>
<text text-anchor="middle" x="129" y="-203" font-family="Helvetica,sans-Serif" font-size="10.00">gromacs/utility/arrayref.h</text>
</a>
</g>
</g>
<!-- Node1&#45;&gt;Node5 -->
<g id="edge63" class="edge"><title>Node1&#45;&gt;Node5</title>
<path fill="none" stroke="midnightblue" d="M695.492,-330.593C583.001,-326.273 383.65,-314.99 317,-288 296.477,-279.689 297.44,-267.6 278,-257 245.467,-239.261 205.571,-226.141 175.252,-217.726"/>
<polygon fill="midnightblue" stroke="midnightblue" points="175.928,-214.284 165.361,-215.053 174.102,-221.041 175.928,-214.284"/>
</g>
<!-- Node11 -->
<g id="node11" class="node"><title>Node11</title>
<g id="a_node11"><a xlink:href="gmxassert_8h.xhtml" target="_top" xlink:title="Defines assert macros customized for Gromacs. ">
<polygon fill="white" stroke="black" points="439.5,-129 439.5,-148 576.5,-148 576.5,-129 439.5,-129"/>
<text text-anchor="middle" x="508" y="-136" font-family="Helvetica,sans-Serif" font-size="10.00">gromacs/utility/gmxassert.h</text>
</a>
</g>
</g>
<!-- Node1&#45;&gt;Node11 -->
<g id="edge65" class="edge"><title>Node1&#45;&gt;Node11</title>
<path fill="none" stroke="midnightblue" d="M753.697,-324.375C715.106,-308.084 632.242,-269.98 574,-221 551.426,-202.016 530.992,-174.422 519.03,-156.717"/>
<polygon fill="midnightblue" stroke="midnightblue" points="521.721,-154.44 513.296,-148.016 515.876,-158.292 521.721,-154.44"/>
</g>
<!-- Node17 -->
<g id="node17" class="node"><title>Node17</title>
<polygon fill="white" stroke="#bfbfbf" points="2006,-196 2006,-215 2062,-215 2062,-196 2006,-196"/>
<text text-anchor="middle" x="2034" y="-203" font-family="Helvetica,sans-Serif" font-size="10.00">algorithm</text>
</g>
<!-- Node1&#45;&gt;Node17 -->
<g id="edge19" class="edge"><title>Node1&#45;&gt;Node17</title>
<path fill="none" stroke="midnightblue" d="M854.911,-331.518C1089.26,-326.917 1764.33,-311.742 1861,-288 1918.56,-273.862 1979.98,-239.806 2011.88,-220.489"/>
<polygon fill="midnightblue" stroke="midnightblue" points="2014.11,-223.226 2020.79,-215.006 2010.44,-217.264 2014.11,-223.226"/>
</g>
<!-- Node18 -->
<g id="node18" class="node"><title>Node18</title>
<g id="a_node18"><a xlink:href="awh-history_8h.xhtml" target="_top" xlink:title="Contains datatypes and function declarations needed by AWH to have its data checkpointed. ">
<polygon fill="white" stroke="black" points="416,-257.5 416,-287.5 532,-287.5 532,-257.5 416,-257.5"/>
<text text-anchor="start" x="424" y="-275.5" font-family="Helvetica,sans-Serif" font-size="10.00">gromacs/mdtypes/awh</text>
<text text-anchor="middle" x="474" y="-264.5" font-family="Helvetica,sans-Serif" font-size="10.00">&#45;history.h</text>
</a>
</g>
</g>
<!-- Node1&#45;&gt;Node18 -->
<g id="edge20" class="edge"><title>Node1&#45;&gt;Node18</title>
<path fill="none" stroke="midnightblue" d="M731.087,-324.434C684.98,-315.426 610.376,-300.807 546,-288 544.734,-287.748 543.455,-287.493 542.167,-287.237"/>
<polygon fill="midnightblue" stroke="midnightblue" points="542.646,-283.763 532.154,-285.236 541.275,-290.628 542.646,-283.763"/>
</g>
<!-- Node20 -->
<g id="node20" class="node"><title>Node20</title>
<g id="a_node20"><a xlink:href="awh-params_8h.xhtml" target="_top" xlink:title="Declares AWH parameter data types. ">
<polygon fill="white" stroke="black" points="1356,-190.5 1356,-220.5 1472,-220.5 1472,-190.5 1356,-190.5"/>
<text text-anchor="start" x="1364" y="-208.5" font-family="Helvetica,sans-Serif" font-size="10.00">gromacs/mdtypes/awh</text>
<text text-anchor="middle" x="1414" y="-197.5" font-family="Helvetica,sans-Serif" font-size="10.00">&#45;params.h</text>
</a>
</g>
</g>
<!-- Node1&#45;&gt;Node20 -->
<g id="edge25" class="edge"><title>Node1&#45;&gt;Node20</title>
<path fill="none" stroke="midnightblue" d="M818.848,-324.459C914.218,-305.859 1147.64,-260.21 1343,-221 1343.92,-220.816 1344.84,-220.63 1345.77,-220.443"/>
<polygon fill="midnightblue" stroke="midnightblue" points="1346.78,-223.811 1355.89,-218.402 1345.39,-216.949 1346.78,-223.811"/>
</g>
<!-- Node22 -->
<g id="node22" class="node"><title>Node22</title>
<g id="a_node22"><a xlink:href="threefry_8h.xhtml" target="_top" xlink:title="Implementation of the 2x64 ThreeFry random engine. ">
<polygon fill="white" stroke="black" points="1206,-263 1206,-282 1340,-282 1340,-263 1206,-263"/>
<text text-anchor="middle" x="1273" y="-270" font-family="Helvetica,sans-Serif" font-size="10.00">gromacs/random/threefry.h</text>
</a>
</g>
</g>
<!-- Node1&#45;&gt;Node22 -->
<g id="edge29" class="edge"><title>Node1&#45;&gt;Node22</title>
<path fill="none" stroke="midnightblue" d="M846.351,-324.475C938.99,-313.407 1100.08,-294.16 1195.6,-282.748"/>
<polygon fill="midnightblue" stroke="midnightblue" points="1196.25,-286.194 1205.77,-281.533 1195.42,-279.244 1196.25,-286.194"/>
</g>
<!-- Node32 -->
<g id="node32" class="node"><title>Node32</title>
<g id="a_node32"><a xlink:href="exceptions_8h.xhtml" target="_top" xlink:title="Declares common exception classes and macros for fatal error handling. ">
<polygon fill="white" stroke="black" points="941.5,-196 941.5,-215 1080.5,-215 1080.5,-196 941.5,-196"/>
<text text-anchor="middle" x="1011" y="-203" font-family="Helvetica,sans-Serif" font-size="10.00">gromacs/utility/exceptions.h</text>
</a>
</g>
</g>
<!-- Node1&#45;&gt;Node32 -->
<g id="edge64" class="edge"><title>Node1&#45;&gt;Node32</title>
<path fill="none" stroke="midnightblue" d="M791.221,-324.305C831.738,-302.588 937.585,-245.852 986.079,-219.858"/>
<polygon fill="midnightblue" stroke="midnightblue" points="987.817,-222.898 994.977,-215.088 984.51,-216.728 987.817,-222.898"/>
</g>
<!-- Node39 -->
<g id="node39" class="node"><title>Node39</title>
<g id="a_node39"><a xlink:href="uniformrealdistribution_8h.xhtml" target="_top" xlink:title="The uniform real distribution. ">
<polygon fill="white" stroke="black" points="1656,-263 1656,-282 1852,-282 1852,-263 1656,-263"/>
<text text-anchor="middle" x="1754" y="-270" font-family="Helvetica,sans-Serif" font-size="10.00">gromacs/random/uniformrealdistribution.h</text>
</a>
</g>
</g>
<!-- Node1&#45;&gt;Node39 -->
<g id="edge54" class="edge"><title>Node1&#45;&gt;Node39</title>
<path fill="none" stroke="midnightblue" d="M854.701,-328.156C1029.59,-317.527 1447.18,-292.147 1645.66,-280.084"/>
<polygon fill="midnightblue" stroke="midnightblue" points="1646.04,-283.568 1655.81,-279.467 1645.62,-276.581 1646.04,-283.568"/>
</g>
<!-- Node40 -->
<g id="node40" class="node"><title>Node40</title>
<g id="a_node40"><a xlink:href="stringutil_8h.xhtml" target="_top" xlink:title="Declares common string utility and formatting routines. ">
<polygon fill="white" stroke="black" points="626,-196 626,-215 754,-215 754,-196 626,-196"/>
<text text-anchor="middle" x="690" y="-203" font-family="Helvetica,sans-Serif" font-size="10.00">gromacs/utility/stringutil.h</text>
</a>
</g>
</g>
<!-- Node1&#45;&gt;Node40 -->
<g id="edge66" class="edge"><title>Node1&#45;&gt;Node40</title>
<path fill="none" stroke="midnightblue" d="M769.158,-324.305C755.267,-303.633 720.057,-251.232 701.636,-223.818"/>
<polygon fill="midnightblue" stroke="midnightblue" points="704.366,-221.604 695.883,-215.256 698.555,-225.508 704.366,-221.604"/>
</g>
<!-- Node43 -->
<g id="node43" class="node"><title>Node43</title>
<g id="a_node43"><a xlink:href="grid_8h.xhtml" target="_top" xlink:title="This file contains datatypes and function declarations necessary for AWH to interface with the grid c...">
<polygon fill="white" stroke="black" points="779.5,-263 779.5,-282 820.5,-282 820.5,-263 779.5,-263"/>
<text text-anchor="middle" x="800" y="-270" font-family="Helvetica,sans-Serif" font-size="10.00">grid.h</text>
</a>
</g>
</g>
<!-- Node1&#45;&gt;Node43 -->
<g id="edge71" class="edge"><title>Node1&#45;&gt;Node43</title>
<path fill="none" stroke="midnightblue" d="M778.582,-324.475C782.183,-315.904 787.846,-302.427 792.444,-291.483"/>
<polygon fill="midnightblue" stroke="midnightblue" points="795.778,-292.584 796.425,-282.009 789.324,-289.873 795.778,-292.584"/>
</g>
<!-- Node4 -->
<g id="node4" class="node"><title>Node4</title>
<polygon fill="white" stroke="#bfbfbf" points="339,-129 339,-148 383,-148 383,-129 339,-129"/>
<text text-anchor="middle" x="361" y="-136" font-family="Helvetica,sans-Serif" font-size="10.00">vector</text>
</g>
<!-- Node3&#45;&gt;Node4 -->
<g id="edge3" class="edge"><title>Node3&#45;&gt;Node4</title>
<path fill="none" stroke="midnightblue" d="M337.159,-262.971C302.92,-250.97 244.769,-229.604 239,-221 231.328,-209.556 231.344,-201.455 239,-190 239.684,-188.977 294.422,-166.572 330.337,-151.952"/>
<polygon fill="midnightblue" stroke="midnightblue" points="331.963,-155.069 339.908,-148.059 329.326,-148.585 331.963,-155.069"/>
</g>
<!-- Node3&#45;&gt;Node5 -->
<g id="edge4" class="edge"><title>Node3&#45;&gt;Node5</title>
<path fill="none" stroke="midnightblue" d="M332.671,-262.926C325.888,-260.962 318.696,-258.895 312,-257 263.445,-243.261 207.512,-227.892 170.394,-217.758"/>
<polygon fill="midnightblue" stroke="midnightblue" points="171.014,-214.299 160.445,-215.044 169.171,-221.052 171.014,-214.299"/>
</g>
<!-- Node16 -->
<g id="node16" class="node"><title>Node16</title>
<g id="a_node16"><a xlink:href="dimparams_8h.xhtml" target="_top" xlink:title="Declares the DimParams struct and AWH vector types. ">
<polygon fill="white" stroke="black" points="458.5,-196 458.5,-215 531.5,-215 531.5,-196 458.5,-196"/>
<text text-anchor="middle" x="495" y="-203" font-family="Helvetica,sans-Serif" font-size="10.00">dimparams.h</text>
</a>
</g>
</g>
<!-- Node3&#45;&gt;Node16 -->
<g id="edge16" class="edge"><title>Node3&#45;&gt;Node16</title>
<path fill="none" stroke="midnightblue" d="M379.661,-262.869C402.317,-251.796 441.828,-232.486 468.2,-219.598"/>
<polygon fill="midnightblue" stroke="midnightblue" points="469.818,-222.703 477.266,-215.167 466.744,-216.414 469.818,-222.703"/>
</g>
<!-- Node5&#45;&gt;Node4 -->
<g id="edge10" class="edge"><title>Node5&#45;&gt;Node4</title>
<path fill="none" stroke="midnightblue" d="M168.482,-195.927C208.379,-186.892 271.588,-171.554 325,-154 327.132,-153.299 329.319,-152.535 331.511,-151.736"/>
<polygon fill="midnightblue" stroke="midnightblue" points="332.907,-154.95 340.989,-148.099 330.399,-148.414 332.907,-154.95"/>
</g>
<!-- Node6 -->
<g id="node6" class="node"><title>Node6</title>
<polygon fill="white" stroke="#bfbfbf" points="58.5,-129 58.5,-148 107.5,-148 107.5,-129 58.5,-129"/>
<text text-anchor="middle" x="83" y="-136" font-family="Helvetica,sans-Serif" font-size="10.00">cstddef</text>
</g>
<!-- Node5&#45;&gt;Node6 -->
<g id="edge5" class="edge"><title>Node5&#45;&gt;Node6</title>
<path fill="none" stroke="midnightblue" d="M122.796,-195.734C115.692,-185.695 103.887,-169.014 94.975,-156.421"/>
<polygon fill="midnightblue" stroke="midnightblue" points="97.7392,-154.268 89.1055,-148.127 92.0252,-158.312 97.7392,-154.268"/>
</g>
<!-- Node7 -->
<g id="node7" class="node"><title>Node7</title>
<polygon fill="white" stroke="#bfbfbf" points="278,-129 278,-148 316,-148 316,-129 278,-129"/>
<text text-anchor="middle" x="297" y="-136" font-family="Helvetica,sans-Serif" font-size="10.00">array</text>
</g>
<!-- Node5&#45;&gt;Node7 -->
<g id="edge6" class="edge"><title>Node5&#45;&gt;Node7</title>
<path fill="none" stroke="midnightblue" d="M151.309,-195.869C181.481,-184.195 235.317,-163.365 268.42,-150.558"/>
<polygon fill="midnightblue" stroke="midnightblue" points="269.915,-153.732 277.978,-146.86 267.389,-147.204 269.915,-153.732"/>
</g>
<!-- Node8 -->
<g id="node8" class="node"><title>Node8</title>
<polygon fill="white" stroke="#bfbfbf" points="125.5,-129 125.5,-148 172.5,-148 172.5,-129 125.5,-129"/>
<text text-anchor="middle" x="149" y="-136" font-family="Helvetica,sans-Serif" font-size="10.00">iterator</text>
</g>
<!-- Node5&#45;&gt;Node8 -->
<g id="edge7" class="edge"><title>Node5&#45;&gt;Node8</title>
<path fill="none" stroke="midnightblue" d="M131.697,-195.734C134.666,-186.085 139.523,-170.3 143.337,-157.906"/>
<polygon fill="midnightblue" stroke="midnightblue" points="146.75,-158.714 146.345,-148.127 140.059,-156.656 146.75,-158.714"/>
</g>
<!-- Node9 -->
<g id="node9" class="node"><title>Node9</title>
<polygon fill="white" stroke="#bfbfbf" points="190.5,-129 190.5,-148 249.5,-148 249.5,-129 190.5,-129"/>
<text text-anchor="middle" x="220" y="-136" font-family="Helvetica,sans-Serif" font-size="10.00">stdexcept</text>
</g>
<!-- Node5&#45;&gt;Node9 -->
<g id="edge8" class="edge"><title>Node5&#45;&gt;Node9</title>
<path fill="none" stroke="midnightblue" d="M141.273,-195.734C156.145,-185.111 181.432,-167.049 199.33,-154.264"/>
<polygon fill="midnightblue" stroke="midnightblue" points="201.819,-156.788 207.922,-148.127 197.75,-151.092 201.819,-156.788"/>
</g>
<!-- Node10 -->
<g id="node10" class="node"><title>Node10</title>
<polygon fill="white" stroke="#bfbfbf" points="0,-129 0,-148 40,-148 40,-129 0,-129"/>
<text text-anchor="middle" x="20" y="-136" font-family="Helvetica,sans-Serif" font-size="10.00">utility</text>
</g>
<!-- Node5&#45;&gt;Node10 -->
<g id="edge9" class="edge"><title>Node5&#45;&gt;Node10</title>
<path fill="none" stroke="midnightblue" d="M114.3,-195.734C96.0768,-184.867 64.8008,-166.216 43.2976,-153.393"/>
<polygon fill="midnightblue" stroke="midnightblue" points="44.8488,-150.243 34.4673,-148.127 41.2635,-156.255 44.8488,-150.243"/>
</g>
<!-- Node5&#45;&gt;Node11 -->
<g id="edge11" class="edge"><title>Node5&#45;&gt;Node11</title>
<path fill="none" stroke="midnightblue" d="M178.937,-195.936C248.337,-184.033 373.774,-162.52 448.114,-149.771"/>
<polygon fill="midnightblue" stroke="midnightblue" points="448.989,-153.172 458.253,-148.032 447.806,-146.273 448.989,-153.172"/>
</g>
<!-- Node12 -->
<g id="node12" class="node"><title>Node12</title>
<g id="a_node12"><a xlink:href="basedefinitions_8h.xhtml" target="_top" xlink:title="Basic types and macros used throughout GROMACS. ">
<polygon fill="white" stroke="black" points="1172.5,-62 1172.5,-81 1329.5,-81 1329.5,-62 1172.5,-62"/>
<text text-anchor="middle" x="1251" y="-69" font-family="Helvetica,sans-Serif" font-size="10.00">gromacs/utility/basedefinitions.h</text>
</a>
</g>
</g>
<!-- Node11&#45;&gt;Node12 -->
<g id="edge12" class="edge"><title>Node11&#45;&gt;Node12</title>
<path fill="none" stroke="midnightblue" d="M548.626,-128.981C560.324,-126.764 573.132,-124.563 585,-123 790.678,-95.9206 1034.15,-82.0263 1162.14,-76.1137"/>
<polygon fill="midnightblue" stroke="midnightblue" points="1162.45,-79.6032 1172.28,-75.6508 1162.13,-72.6105 1162.45,-79.6032"/>
</g>
<!-- Node15 -->
<g id="node15" class="node"><title>Node15</title>
<g id="a_node15"><a xlink:href="current__function_8h.xhtml" target="_top" xlink:title="Declares GMX_CURRENT_FUNCTION for getting the current function name. ">
<polygon fill="white" stroke="black" points="614.5,-56.5 614.5,-86.5 727.5,-86.5 727.5,-56.5 614.5,-56.5"/>
<text text-anchor="start" x="622.5" y="-74.5" font-family="Helvetica,sans-Serif" font-size="10.00">gromacs/utility/current</text>
<text text-anchor="middle" x="671" y="-63.5" font-family="Helvetica,sans-Serif" font-size="10.00">_function.h</text>
</a>
</g>
</g>
<!-- Node11&#45;&gt;Node15 -->
<g id="edge15" class="edge"><title>Node11&#45;&gt;Node15</title>
<path fill="none" stroke="midnightblue" d="M529.645,-128.869C554.21,-119.073 594.943,-102.83 626.389,-90.2897"/>
<polygon fill="midnightblue" stroke="midnightblue" points="627.83,-93.4833 635.822,-86.5281 625.237,-86.9812 627.83,-93.4833"/>
</g>
<!-- Node13 -->
<g id="node13" class="node"><title>Node13</title>
<polygon fill="white" stroke="#bfbfbf" points="1190.5,-0.5 1190.5,-19.5 1239.5,-19.5 1239.5,-0.5 1190.5,-0.5"/>
<text text-anchor="middle" x="1215" y="-7.5" font-family="Helvetica,sans-Serif" font-size="10.00">stdint.h</text>
</g>
<!-- Node12&#45;&gt;Node13 -->
<g id="edge13" class="edge"><title>Node12&#45;&gt;Node13</title>
<path fill="none" stroke="midnightblue" d="M1245.84,-61.9751C1240.55,-53.2268 1232.16,-39.3691 1225.47,-28.3093"/>
<polygon fill="midnightblue" stroke="midnightblue" points="1228.32,-26.2531 1220.15,-19.5091 1222.33,-29.8768 1228.32,-26.2531"/>
</g>
<!-- Node14 -->
<g id="node14" class="node"><title>Node14</title>
<polygon fill="white" stroke="#bfbfbf" points="1257.5,-0.5 1257.5,-19.5 1316.5,-19.5 1316.5,-0.5 1257.5,-0.5"/>
<text text-anchor="middle" x="1287" y="-7.5" font-family="Helvetica,sans-Serif" font-size="10.00">inttypes.h</text>
</g>
<!-- Node12&#45;&gt;Node14 -->
<g id="edge14" class="edge"><title>Node12&#45;&gt;Node14</title>
<path fill="none" stroke="midnightblue" d="M1256.16,-61.9751C1261.45,-53.2268 1269.84,-39.3691 1276.53,-28.3093"/>
<polygon fill="midnightblue" stroke="midnightblue" points="1279.67,-29.8768 1281.85,-19.5091 1273.68,-26.2531 1279.67,-29.8768"/>
</g>
<!-- Node16&#45;&gt;Node4 -->
<g id="edge17" class="edge"><title>Node16&#45;&gt;Node4</title>
<path fill="none" stroke="midnightblue" d="M477.206,-195.869C454.38,-184.796 414.572,-165.486 388.002,-152.598"/>
<polygon fill="midnightblue" stroke="midnightblue" points="389.393,-149.383 378.868,-148.167 386.338,-155.681 389.393,-149.383"/>
</g>
<!-- Node16&#45;&gt;Node12 -->
<g id="edge18" class="edge"><title>Node16&#45;&gt;Node12</title>
<path fill="none" stroke="midnightblue" d="M479.158,-195.795C453.163,-180.466 406.567,-147.919 430,-123 454.773,-96.6567 954.449,-80.3827 1161.91,-74.7379"/>
<polygon fill="midnightblue" stroke="midnightblue" points="1162.26,-78.2298 1172.16,-74.4611 1162.07,-71.2323 1162.26,-78.2298"/>
</g>
<!-- Node18&#45;&gt;Node4 -->
<g id="edge21" class="edge"><title>Node18&#45;&gt;Node4</title>
<path fill="none" stroke="midnightblue" d="M461.907,-257.374C440.832,-232.755 397.488,-182.124 375.09,-155.959"/>
<polygon fill="midnightblue" stroke="midnightblue" points="377.522,-153.418 368.36,-148.097 372.204,-157.97 377.522,-153.418"/>
</g>
<!-- Node18&#45;&gt;Node12 -->
<g id="edge24" class="edge"><title>Node18&#45;&gt;Node12</title>
<path fill="none" stroke="midnightblue" d="M532.258,-269.855C608.021,-266.346 734.122,-255.362 763,-221 791.116,-187.545 725.706,-155.428 755,-123 781.719,-93.4221 1026.78,-80.2635 1162.14,-75.209"/>
<polygon fill="midnightblue" stroke="midnightblue" points="1162.63,-78.6937 1172.49,-74.8303 1162.37,-71.6984 1162.63,-78.6937"/>
</g>
<!-- Node19 -->
<g id="node19" class="node"><title>Node19</title>
<g id="a_node19"><a xlink:href="awh-correlation-history_8h.xhtml" target="_top" xlink:title="Contains datatypes and function declarations needed by AWH to have its force correlation data checkpo...">
<polygon fill="white" stroke="black" points="248,-190.5 248,-220.5 364,-220.5 364,-190.5 248,-190.5"/>
<text text-anchor="start" x="256" y="-208.5" font-family="Helvetica,sans-Serif" font-size="10.00">gromacs/mdtypes/awh</text>
<text text-anchor="middle" x="306" y="-197.5" font-family="Helvetica,sans-Serif" font-size="10.00">&#45;correlation&#45;history.h</text>
</a>
</g>
</g>
<!-- Node18&#45;&gt;Node19 -->
<g id="edge22" class="edge"><title>Node18&#45;&gt;Node19</title>
<path fill="none" stroke="midnightblue" d="M437.547,-257.396C412.449,-247.686 378.909,-234.709 351.978,-224.289"/>
<polygon fill="midnightblue" stroke="midnightblue" points="352.972,-220.921 342.382,-220.577 350.446,-227.449 352.972,-220.921"/>
</g>
<!-- Node19&#45;&gt;Node4 -->
<g id="edge23" class="edge"><title>Node19&#45;&gt;Node4</title>
<path fill="none" stroke="midnightblue" d="M317.934,-190.396C326.51,-180.261 338.097,-166.567 347.092,-155.937"/>
<polygon fill="midnightblue" stroke="midnightblue" points="349.855,-158.089 353.643,-148.195 344.512,-153.568 349.855,-158.089"/>
</g>
<!-- Node20&#45;&gt;Node12 -->
<g id="edge28" class="edge"><title>Node20&#45;&gt;Node12</title>
<path fill="none" stroke="midnightblue" d="M1414.39,-190.245C1414.11,-172.333 1410.92,-141.681 1394,-123 1375.98,-103.102 1349.63,-91.0436 1324.44,-83.736"/>
<polygon fill="midnightblue" stroke="midnightblue" points="1325.06,-80.2784 1314.49,-81.0699 1323.25,-87.0397 1325.06,-80.2784"/>
</g>
<!-- Node21 -->
<g id="node21" class="node"><title>Node21</title>
<g id="a_node21"><a xlink:href="md__enums_8h.xhtml" target="_top" xlink:title="Declares enumerated types used throughout the code. ">
<polygon fill="white" stroke="black" points="1442.5,-123.5 1442.5,-153.5 1553.5,-153.5 1553.5,-123.5 1442.5,-123.5"/>
<text text-anchor="start" x="1450.5" y="-141.5" font-family="Helvetica,sans-Serif" font-size="10.00">gromacs/mdtypes/md</text>
<text text-anchor="middle" x="1498" y="-130.5" font-family="Helvetica,sans-Serif" font-size="10.00">_enums.h</text>
</a>
</g>
</g>
<!-- Node20&#45;&gt;Node21 -->
<g id="edge26" class="edge"><title>Node20&#45;&gt;Node21</title>
<path fill="none" stroke="midnightblue" d="M1432.23,-190.396C1443.78,-181.452 1458.92,-169.737 1471.76,-159.802"/>
<polygon fill="midnightblue" stroke="midnightblue" points="1474.04,-162.464 1479.81,-153.577 1469.76,-156.928 1474.04,-162.464"/>
</g>
<!-- Node21&#45;&gt;Node12 -->
<g id="edge27" class="edge"><title>Node21&#45;&gt;Node12</title>
<path fill="none" stroke="midnightblue" d="M1444.71,-123.476C1399.38,-111.547 1335.15,-94.6441 1293.28,-83.6276"/>
<polygon fill="midnightblue" stroke="midnightblue" points="1293.97,-80.1889 1283.41,-81.0287 1292.19,-86.9584 1293.97,-80.1889"/>
</g>
<!-- Node22&#45;&gt;Node7 -->
<g id="edge30" class="edge"><title>Node22&#45;&gt;Node7</title>
<path fill="none" stroke="midnightblue" d="M1205.84,-269.037C1022.26,-262.072 520.866,-241.408 449,-221 398.278,-206.596 345.416,-173.446 317.357,-154.154"/>
<polygon fill="midnightblue" stroke="midnightblue" points="319.032,-151.054 308.831,-148.19 315.019,-156.79 319.032,-151.054"/>
</g>
<!-- Node23 -->
<g id="node23" class="node"><title>Node23</title>
<polygon fill="white" stroke="#bfbfbf" points="1648,-196 1648,-215 1688,-215 1688,-196 1648,-196"/>
<text text-anchor="middle" x="1668" y="-203" font-family="Helvetica,sans-Serif" font-size="10.00">limits</text>
</g>
<!-- Node22&#45;&gt;Node23 -->
<g id="edge31" class="edge"><title>Node22&#45;&gt;Node23</title>
<path fill="none" stroke="midnightblue" d="M1340.28,-267.414C1413.61,-261.737 1533.85,-248.83 1634,-221 1636.3,-220.362 1638.64,-219.604 1640.97,-218.775"/>
<polygon fill="midnightblue" stroke="midnightblue" points="1642.3,-222.012 1650.32,-215.084 1639.73,-215.501 1642.3,-222.012"/>
</g>
<!-- Node24 -->
<g id="node24" class="node"><title>Node24</title>
<g id="a_node24"><a xlink:href="functions_8h.xhtml" target="_top" xlink:title="Declares simple math functions. ">
<polygon fill="white" stroke="black" points="1782,-196 1782,-215 1912,-215 1912,-196 1782,-196"/>
<text text-anchor="middle" x="1847" y="-203" font-family="Helvetica,sans-Serif" font-size="10.00">gromacs/math/functions.h</text>
</a>
</g>
</g>
<!-- Node22&#45;&gt;Node24 -->
<g id="edge32" class="edge"><title>Node22&#45;&gt;Node24</title>
<path fill="none" stroke="midnightblue" d="M1340.25,-263.885C1448.05,-251.677 1658.83,-227.808 1771.59,-215.04"/>
<polygon fill="midnightblue" stroke="midnightblue" points="1772.31,-218.48 1781.85,-213.877 1771.52,-211.525 1772.31,-218.48"/>
</g>
<!-- Node28 -->
<g id="node28" class="node"><title>Node28</title>
<g id="a_node28"><a xlink:href="seed_8h.xhtml" target="_top" xlink:title="Random seed and domain utilities. ">
<polygon fill="white" stroke="black" points="1212,-196 1212,-215 1334,-215 1334,-196 1212,-196"/>
<text text-anchor="middle" x="1273" y="-203" font-family="Helvetica,sans-Serif" font-size="10.00">gromacs/random/seed.h</text>
</a>
</g>
</g>
<!-- Node22&#45;&gt;Node28 -->
<g id="edge36" class="edge"><title>Node22&#45;&gt;Node28</title>
<path fill="none" stroke="midnightblue" d="M1273,-262.734C1273,-253.183 1273,-237.618 1273,-225.283"/>
<polygon fill="midnightblue" stroke="midnightblue" points="1276.5,-225.127 1273,-215.127 1269.5,-225.127 1276.5,-225.127"/>
</g>
<!-- Node30 -->
<g id="node30" class="node"><title>Node30</title>
<g id="a_node30"><a xlink:href="classhelpers_8h.xhtml" target="_top" xlink:title="Declares common utility classes and macros. ">
<polygon fill="white" stroke="black" points="1610,-129 1610,-148 1756,-148 1756,-129 1610,-129"/>
<text text-anchor="middle" x="1683" y="-136" font-family="Helvetica,sans-Serif" font-size="10.00">gromacs/utility/classhelpers.h</text>
</a>
</g>
</g>
<!-- Node22&#45;&gt;Node30 -->
<g id="edge39" class="edge"><title>Node22&#45;&gt;Node30</title>
<path fill="none" stroke="midnightblue" d="M1340.34,-265.67C1421.4,-257.843 1552.13,-242.404 1596,-221 1612.49,-212.953 1647.89,-176.943 1668.08,-155.575"/>
<polygon fill="midnightblue" stroke="midnightblue" points="1670.72,-157.88 1675,-148.191 1665.61,-153.092 1670.72,-157.88"/>
</g>
<!-- Node22&#45;&gt;Node32 -->
<g id="edge41" class="edge"><title>Node22&#45;&gt;Node32</title>
<path fill="none" stroke="midnightblue" d="M1238.48,-262.936C1191.45,-251.268 1107.2,-230.367 1055.49,-217.537"/>
<polygon fill="midnightblue" stroke="midnightblue" points="1056.15,-214.094 1045.6,-215.083 1054.46,-220.888 1056.15,-214.094"/>
</g>
<!-- Node25 -->
<g id="node25" class="node"><title>Node25</title>
<polygon fill="white" stroke="#bfbfbf" points="1876,-129 1876,-148 1920,-148 1920,-129 1876,-129"/>
<text text-anchor="middle" x="1898" y="-136" font-family="Helvetica,sans-Serif" font-size="10.00">cmath</text>
</g>
<!-- Node24&#45;&gt;Node25 -->
<g id="edge33" class="edge"><title>Node24&#45;&gt;Node25</title>
<path fill="none" stroke="midnightblue" d="M1853.88,-195.734C1861.83,-185.598 1875.1,-168.69 1885.01,-156.056"/>
<polygon fill="midnightblue" stroke="midnightblue" points="1887.81,-158.155 1891.23,-148.127 1882.3,-153.834 1887.81,-158.155"/>
</g>
<!-- Node26 -->
<g id="node26" class="node"><title>Node26</title>
<polygon fill="white" stroke="#bfbfbf" points="1812,-129 1812,-148 1858,-148 1858,-129 1812,-129"/>
<text text-anchor="middle" x="1835" y="-136" font-family="Helvetica,sans-Serif" font-size="10.00">cstdint</text>
</g>
<!-- Node24&#45;&gt;Node26 -->
<g id="edge34" class="edge"><title>Node24&#45;&gt;Node26</title>
<path fill="none" stroke="midnightblue" d="M1845.38,-195.734C1843.62,-186.183 1840.74,-170.618 1838.47,-158.283"/>
<polygon fill="midnightblue" stroke="midnightblue" points="1841.85,-157.326 1836.59,-148.127 1834.97,-158.597 1841.85,-157.326"/>
</g>
<!-- Node27 -->
<g id="node27" class="node"><title>Node27</title>
<g id="a_node27"><a xlink:href="real_8h.xhtml" target="_top" xlink:title="Declares real and related constants. ">
<polygon fill="white" stroke="black" points="1937.5,-129 1937.5,-148 2044.5,-148 2044.5,-129 1937.5,-129"/>
<text text-anchor="middle" x="1991" y="-136" font-family="Helvetica,sans-Serif" font-size="10.00">gromacs/utility/real.h</text>
</a>
</g>
</g>
<!-- Node24&#45;&gt;Node27 -->
<g id="edge35" class="edge"><title>Node24&#45;&gt;Node27</title>
<path fill="none" stroke="midnightblue" d="M1866.12,-195.869C1890.76,-184.748 1933.81,-165.317 1962.36,-152.429"/>
<polygon fill="midnightblue" stroke="midnightblue" points="1964.12,-155.471 1971.8,-148.167 1961.24,-149.091 1964.12,-155.471"/>
</g>
<!-- Node28&#45;&gt;Node12 -->
<g id="edge38" class="edge"><title>Node28&#45;&gt;Node12</title>
<path fill="none" stroke="midnightblue" d="M1271.56,-195.839C1268.03,-174.674 1258.91,-119.948 1254.09,-91.0329"/>
<polygon fill="midnightblue" stroke="midnightblue" points="1257.52,-90.3097 1252.42,-81.0212 1250.61,-91.4605 1257.52,-90.3097"/>
</g>
<!-- Node29 -->
<g id="node29" class="node"><title>Node29</title>
<polygon fill="white" stroke="#bfbfbf" points="1336.5,-129 1336.5,-148 1385.5,-148 1385.5,-129 1336.5,-129"/>
<text text-anchor="middle" x="1361" y="-136" font-family="Helvetica,sans-Serif" font-size="10.00">random</text>
</g>
<!-- Node28&#45;&gt;Node29 -->
<g id="edge37" class="edge"><title>Node28&#45;&gt;Node29</title>
<path fill="none" stroke="midnightblue" d="M1284.87,-195.734C1299.25,-185.111 1323.7,-167.049 1341.01,-154.264"/>
<polygon fill="midnightblue" stroke="midnightblue" points="1343.36,-156.884 1349.32,-148.127 1339.2,-151.253 1343.36,-156.884"/>
</g>
<!-- Node31 -->
<g id="node31" class="node"><title>Node31</title>
<polygon fill="white" stroke="#bfbfbf" points="1556,-62 1556,-81 1608,-81 1608,-62 1556,-62"/>
<text text-anchor="middle" x="1582" y="-69" font-family="Helvetica,sans-Serif" font-size="10.00">memory</text>
</g>
<!-- Node30&#45;&gt;Node31 -->
<g id="edge40" class="edge"><title>Node30&#45;&gt;Node31</title>
<path fill="none" stroke="midnightblue" d="M1669.38,-128.734C1652.57,-117.916 1623.77,-99.3832 1603.86,-86.5659"/>
<polygon fill="midnightblue" stroke="midnightblue" points="1605.71,-83.5959 1595.41,-81.1273 1601.92,-89.4823 1605.71,-83.5959"/>
</g>
<!-- Node32&#45;&gt;Node4 -->
<g id="edge49" class="edge"><title>Node32&#45;&gt;Node4</title>
<path fill="none" stroke="midnightblue" d="M941.373,-201.163C832.02,-195.313 613.539,-181.161 430,-154 417.948,-152.216 404.837,-149.628 393.313,-147.13"/>
<polygon fill="midnightblue" stroke="midnightblue" points="393.773,-143.647 383.251,-144.887 392.25,-150.479 393.773,-143.647"/>
</g>
<!-- Node32&#45;&gt;Node11 -->
<g id="edge53" class="edge"><title>Node32&#45;&gt;Node11</title>
<path fill="none" stroke="midnightblue" d="M941.444,-197.725C856.941,-189.155 710.149,-173.179 585,-154 577.066,-152.784 568.698,-151.358 560.519,-149.884"/>
<polygon fill="midnightblue" stroke="midnightblue" points="561.145,-146.441 550.676,-148.073 559.878,-153.325 561.145,-146.441"/>
</g>
<!-- Node32&#45;&gt;Node12 -->
<g id="edge50" class="edge"><title>Node32&#45;&gt;Node12</title>
<path fill="none" stroke="midnightblue" d="M1080.91,-201.591C1122.94,-196.547 1175.23,-184.06 1212,-154 1231.6,-137.975 1241.99,-109.757 1246.99,-91.0931"/>
<polygon fill="midnightblue" stroke="midnightblue" points="1250.45,-91.6784 1249.39,-81.1365 1243.64,-90.0374 1250.45,-91.6784"/>
</g>
<!-- Node32&#45;&gt;Node15 -->
<g id="edge52" class="edge"><title>Node32&#45;&gt;Node15</title>
<path fill="none" stroke="midnightblue" d="M970.772,-195.92C937.847,-187.911 890.723,-174.144 853,-154 833.468,-143.57 833.372,-133.723 814,-123 788.876,-109.093 759.204,-97.87 733.419,-89.5678"/>
<polygon fill="midnightblue" stroke="midnightblue" points="734.334,-86.1866 723.744,-86.5294 732.236,-92.865 734.334,-86.1866"/>
</g>
<!-- Node32&#45;&gt;Node30 -->
<g id="edge51" class="edge"><title>Node32&#45;&gt;Node30</title>
<path fill="none" stroke="midnightblue" d="M1080.65,-198.743C1185.25,-189.956 1389.09,-172.28 1562,-154 1575.71,-152.55 1590.29,-150.899 1604.4,-149.242"/>
<polygon fill="midnightblue" stroke="midnightblue" points="1605.05,-152.689 1614.57,-148.038 1604.22,-145.738 1605.05,-152.689"/>
</g>
<!-- Node32&#45;&gt;Node31 -->
<g id="edge45" class="edge"><title>Node32&#45;&gt;Node31</title>
<path fill="none" stroke="midnightblue" d="M1056.61,-195.975C1102.73,-186.977 1175.87,-171.668 1238,-154 1278.29,-142.544 1286.58,-133.984 1327,-123 1403.85,-102.117 1495.9,-86.0304 1545.69,-78.0491"/>
<polygon fill="midnightblue" stroke="midnightblue" points="1546.33,-81.4924 1555.66,-76.4702 1545.23,-74.5787 1546.33,-81.4924"/>
</g>
<!-- Node33 -->
<g id="node33" class="node"><title>Node33</title>
<polygon fill="white" stroke="#bfbfbf" points="1097.5,-129 1097.5,-148 1140.5,-148 1140.5,-129 1097.5,-129"/>
<text text-anchor="middle" x="1119" y="-136" font-family="Helvetica,sans-Serif" font-size="10.00">cstdio</text>
</g>
<!-- Node32&#45;&gt;Node33 -->
<g id="edge42" class="edge"><title>Node32&#45;&gt;Node33</title>
<path fill="none" stroke="midnightblue" d="M1025.57,-195.734C1043.62,-184.867 1074.61,-166.216 1095.92,-153.393"/>
<polygon fill="midnightblue" stroke="midnightblue" points="1097.9,-156.283 1104.67,-148.127 1094.29,-150.285 1097.9,-156.283"/>
</g>
<!-- Node34 -->
<g id="node34" class="node"><title>Node34</title>
<polygon fill="white" stroke="#bfbfbf" points="1158.5,-129 1158.5,-148 1203.5,-148 1203.5,-129 1158.5,-129"/>
<text text-anchor="middle" x="1181" y="-136" font-family="Helvetica,sans-Serif" font-size="10.00">cstdlib</text>
</g>
<!-- Node32&#45;&gt;Node34 -->
<g id="edge43" class="edge"><title>Node32&#45;&gt;Node34</title>
<path fill="none" stroke="midnightblue" d="M1036.15,-195.932C1063.97,-186.305 1110.04,-169.931 1149,-154 1150.41,-153.423 1151.85,-152.82 1153.3,-152.203"/>
<polygon fill="midnightblue" stroke="midnightblue" points="1155.08,-155.246 1162.83,-148.018 1152.26,-148.837 1155.08,-155.246"/>
</g>
<!-- Node35 -->
<g id="node35" class="node"><title>Node35</title>
<polygon fill="white" stroke="#bfbfbf" points="862.5,-129 862.5,-148 921.5,-148 921.5,-129 862.5,-129"/>
<text text-anchor="middle" x="892" y="-136" font-family="Helvetica,sans-Serif" font-size="10.00">exception</text>
</g>
<!-- Node32&#45;&gt;Node35 -->
<g id="edge44" class="edge"><title>Node32&#45;&gt;Node35</title>
<path fill="none" stroke="midnightblue" d="M994.951,-195.734C974.878,-184.769 940.297,-165.881 916.806,-153.049"/>
<polygon fill="midnightblue" stroke="midnightblue" points="918.249,-149.849 907.795,-148.127 914.893,-155.993 918.249,-149.849"/>
</g>
<!-- Node36 -->
<g id="node36" class="node"><title>Node36</title>
<polygon fill="white" stroke="#bfbfbf" points="764.5,-129 764.5,-148 805.5,-148 805.5,-129 764.5,-129"/>
<text text-anchor="middle" x="785" y="-136" font-family="Helvetica,sans-Serif" font-size="10.00">string</text>
</g>
<!-- Node32&#45;&gt;Node36 -->
<g id="edge46" class="edge"><title>Node32&#45;&gt;Node36</title>
<path fill="none" stroke="midnightblue" d="M972.502,-195.928C933.606,-186.893 871.995,-171.556 820,-154 818.084,-153.353 816.123,-152.652 814.156,-151.92"/>
<polygon fill="midnightblue" stroke="midnightblue" points="815.033,-148.504 804.446,-148.099 812.469,-155.018 815.033,-148.504"/>
</g>
<!-- Node37 -->
<g id="node37" class="node"><title>Node37</title>
<polygon fill="white" stroke="#bfbfbf" points="940,-129 940,-148 1002,-148 1002,-129 940,-129"/>
<text text-anchor="middle" x="971" y="-136" font-family="Helvetica,sans-Serif" font-size="10.00">type_traits</text>
</g>
<!-- Node32&#45;&gt;Node37 -->
<g id="edge47" class="edge"><title>Node32&#45;&gt;Node37</title>
<path fill="none" stroke="midnightblue" d="M1005.61,-195.734C999.488,-185.793 989.362,-169.338 981.64,-156.789"/>
<polygon fill="midnightblue" stroke="midnightblue" points="984.531,-154.81 976.309,-148.127 978.569,-158.478 984.531,-154.81"/>
</g>
<!-- Node38 -->
<g id="node38" class="node"><title>Node38</title>
<polygon fill="white" stroke="#bfbfbf" points="1020.5,-129 1020.5,-148 1079.5,-148 1079.5,-129 1020.5,-129"/>
<text text-anchor="middle" x="1050" y="-136" font-family="Helvetica,sans-Serif" font-size="10.00">typeindex</text>
</g>
<!-- Node32&#45;&gt;Node38 -->
<g id="edge48" class="edge"><title>Node32&#45;&gt;Node38</title>
<path fill="none" stroke="midnightblue" d="M1016.26,-195.734C1022.22,-185.793 1032.1,-169.338 1039.63,-156.789"/>
<polygon fill="midnightblue" stroke="midnightblue" points="1042.68,-158.503 1044.82,-148.127 1036.68,-154.901 1042.68,-158.503"/>
</g>
<!-- Node39&#45;&gt;Node11 -->
<g id="edge61" class="edge"><title>Node39&#45;&gt;Node11</title>
<path fill="none" stroke="midnightblue" d="M1655.56,-267.897C1383.76,-257.848 641.305,-229.685 617,-221 614.418,-220.077 558.244,-177.621 527.574,-154.364"/>
<polygon fill="midnightblue" stroke="midnightblue" points="529.396,-151.353 519.314,-148.096 525.165,-156.929 529.396,-151.353"/>
</g>
<!-- Node39&#45;&gt;Node12 -->
<g id="edge59" class="edge"><title>Node39&#45;&gt;Node12</title>
<path fill="none" stroke="midnightblue" d="M1756.19,-262.877C1763.22,-234.338 1783.67,-143.589 1765,-123 1750.92,-107.471 1483.12,-87.6808 1339.8,-78.1424"/>
<polygon fill="midnightblue" stroke="midnightblue" points="1339.91,-74.6421 1329.7,-77.4735 1339.45,-81.6268 1339.91,-74.6421"/>
</g>
<!-- Node39&#45;&gt;Node17 -->
<g id="edge56" class="edge"><title>Node39&#45;&gt;Node17</title>
<path fill="none" stroke="midnightblue" d="M1802.74,-262.98C1851.15,-254.093 1927.29,-238.963 1992,-221 1994.95,-220.181 1998,-219.266 2001.04,-218.306"/>
<polygon fill="midnightblue" stroke="midnightblue" points="2002.22,-221.604 2010.61,-215.145 2000.02,-214.957 2002.22,-221.604"/>
</g>
<!-- Node39&#45;&gt;Node23 -->
<g id="edge57" class="edge"><title>Node39&#45;&gt;Node23</title>
<path fill="none" stroke="midnightblue" d="M1742.4,-262.734C1728.35,-252.111 1704.45,-234.049 1687.53,-221.264"/>
<polygon fill="midnightblue" stroke="midnightblue" points="1689.5,-218.365 1679.41,-215.127 1685.28,-223.949 1689.5,-218.365"/>
</g>
<!-- Node39&#45;&gt;Node24 -->
<g id="edge58" class="edge"><title>Node39&#45;&gt;Node24</title>
<path fill="none" stroke="midnightblue" d="M1766.54,-262.734C1781.88,-252.013 1808.06,-233.716 1826.38,-220.914"/>
<polygon fill="midnightblue" stroke="midnightblue" points="1828.46,-223.725 1834.66,-215.127 1824.45,-217.987 1828.46,-223.725"/>
</g>
<!-- Node39&#45;&gt;Node25 -->
<g id="edge55" class="edge"><title>Node39&#45;&gt;Node25</title>
<path fill="none" stroke="midnightblue" d="M1852.22,-263.189C1878.72,-255.911 1904.57,-243.132 1921,-221 1935.12,-201.976 1922.35,-174.606 1910.95,-156.937"/>
<polygon fill="midnightblue" stroke="midnightblue" points="1913.5,-154.471 1904.93,-148.234 1907.74,-158.45 1913.5,-154.471"/>
</g>
<!-- Node39&#45;&gt;Node27 -->
<g id="edge62" class="edge"><title>Node39&#45;&gt;Node27</title>
<path fill="none" stroke="midnightblue" d="M1831.52,-262.961C1866.64,-256.057 1907.11,-243.573 1938,-221 1960.2,-204.776 1975.61,-176.191 1983.88,-157.551"/>
<polygon fill="midnightblue" stroke="midnightblue" points="1987.19,-158.702 1987.83,-148.126 1980.74,-155.996 1987.19,-158.702"/>
</g>
<!-- Node39&#45;&gt;Node30 -->
<g id="edge60" class="edge"><title>Node39&#45;&gt;Node30</title>
<path fill="none" stroke="midnightblue" d="M1749.34,-262.839C1737.81,-241.393 1707.74,-185.489 1692.36,-156.895"/>
<polygon fill="midnightblue" stroke="midnightblue" points="1695.4,-155.17 1687.58,-148.021 1689.24,-158.486 1695.4,-155.17"/>
</g>
<!-- Node40&#45;&gt;Node4 -->
<g id="edge70" class="edge"><title>Node40&#45;&gt;Node4</title>
<path fill="none" stroke="midnightblue" d="M644.867,-195.951C592.978,-186.071 505.268,-169.217 430,-154 417.966,-151.567 404.771,-148.815 393.171,-146.367"/>
<polygon fill="midnightblue" stroke="midnightblue" points="393.554,-142.87 383.045,-144.222 392.103,-149.719 393.554,-142.87"/>
</g>
<!-- Node40&#45;&gt;Node36 -->
<g id="edge69" class="edge"><title>Node40&#45;&gt;Node36</title>
<path fill="none" stroke="midnightblue" d="M702.812,-195.734C718.481,-185.013 745.222,-166.716 763.934,-153.914"/>
<polygon fill="midnightblue" stroke="midnightblue" points="766.114,-156.663 772.391,-148.127 762.161,-150.886 766.114,-156.663"/>
</g>
<!-- Node41 -->
<g id="node41" class="node"><title>Node41</title>
<polygon fill="white" stroke="#bfbfbf" points="594.5,-129 594.5,-148 643.5,-148 643.5,-129 594.5,-129"/>
<text text-anchor="middle" x="619" y="-136" font-family="Helvetica,sans-Serif" font-size="10.00">cstdarg</text>
</g>
<!-- Node40&#45;&gt;Node41 -->
<g id="edge67" class="edge"><title>Node40&#45;&gt;Node41</title>
<path fill="none" stroke="midnightblue" d="M680.425,-195.734C669.034,-185.305 649.813,-167.709 635.901,-154.973"/>
<polygon fill="midnightblue" stroke="midnightblue" points="638.163,-152.298 628.424,-148.127 633.436,-157.461 638.163,-152.298"/>
</g>
<!-- Node42 -->
<g id="node42" class="node"><title>Node42</title>
<polygon fill="white" stroke="#bfbfbf" points="662,-129 662,-148 708,-148 708,-129 662,-129"/>
<text text-anchor="middle" x="685" y="-136" font-family="Helvetica,sans-Serif" font-size="10.00">cstring</text>
</g>
<!-- Node40&#45;&gt;Node42 -->
<g id="edge68" class="edge"><title>Node40&#45;&gt;Node42</title>
<path fill="none" stroke="midnightblue" d="M689.326,-195.734C688.591,-186.183 687.394,-170.618 686.445,-158.283"/>
<polygon fill="midnightblue" stroke="midnightblue" points="689.92,-157.829 685.664,-148.127 682.941,-158.366 689.92,-157.829"/>
</g>
<!-- Node43&#45;&gt;Node16 -->
<g id="edge74" class="edge"><title>Node43&#45;&gt;Node16</title>
<path fill="none" stroke="midnightblue" d="M779.036,-267.032C730.391,-256.665 608.875,-230.768 541.617,-216.435"/>
<polygon fill="midnightblue" stroke="midnightblue" points="542.215,-212.984 531.705,-214.322 540.756,-219.83 542.215,-212.984"/>
</g>
<!-- Node43&#45;&gt;Node31 -->
<g id="edge72" class="edge"><title>Node43&#45;&gt;Node31</title>
<path fill="none" stroke="midnightblue" d="M820.761,-270.711C928.185,-266.531 1418.38,-246.198 1481,-221 1524.34,-203.56 1537.18,-193.579 1562,-154 1574.13,-134.662 1578.9,-108.467 1580.78,-91.0512"/>
<polygon fill="midnightblue" stroke="midnightblue" points="1584.27,-91.2991 1581.65,-81.0351 1577.3,-90.6969 1584.27,-91.2991"/>
</g>
<!-- Node43&#45;&gt;Node36 -->
<g id="edge73" class="edge"><title>Node43&#45;&gt;Node36</title>
<path fill="none" stroke="midnightblue" d="M800.044,-262.892C800.016,-247.979 799.499,-216.402 796,-190 794.577,-179.259 792.049,-167.415 789.775,-157.899"/>
<polygon fill="midnightblue" stroke="midnightblue" points="793.122,-156.856 787.304,-148.002 786.331,-158.552 793.122,-156.856"/>
</g>
</g>
</svg>
