<?xml version="1.0" encoding="UTF-8" standalone="no"?>
<!DOCTYPE svg PUBLIC "-//W3C//DTD SVG 1.1//EN"
 "http://www.w3.org/Graphics/SVG/1.1/DTD/svg11.dtd">
<!-- Generated by graphviz version 2.38.0 (20140413.2041)
 -->
<!-- Title: src/gromacs/awh/correlationhistory.cpp Pages: 1 -->
<svg width="1338pt" height="386pt"
 viewBox="0.00 0.00 1337.50 386.00" xmlns="http://www.w3.org/2000/svg" xmlns:xlink="http://www.w3.org/1999/xlink">
<g id="graph0" class="graph" transform="scale(1 1) rotate(0) translate(4 382)">
<title>src/gromacs/awh/correlationhistory.cpp</title>
<polygon fill="white" stroke="none" points="-4,4 -4,-382 1333.5,-382 1333.5,4 -4,4"/>
<!-- Node1 -->
<g id="node1" class="node"><title>Node1</title>
<polygon fill="#bfbfbf" stroke="black" points="501,-358.5 501,-377.5 689,-377.5 689,-358.5 501,-358.5"/>
<text text-anchor="middle" x="595" y="-365.5" font-family="Helvetica,sans-Serif" font-size="10.00">src/gromacs/awh/correlationhistory.cpp</text>
</g>
<!-- Node2 -->
<g id="node2" class="node"><title>Node2</title>
<g id="a_node2"><a xlink:href="gmxpre_8h.xhtml" target="_top" xlink:title="Prerequisite header file for GROMACS build. ">
<polygon fill="white" stroke="black" points="303.5,-302.5 303.5,-321.5 360.5,-321.5 360.5,-302.5 303.5,-302.5"/>
<text text-anchor="middle" x="332" y="-309.5" font-family="Helvetica,sans-Serif" font-size="10.00">gmxpre.h</text>
</a>
</g>
</g>
<!-- Node1&#45;&gt;Node2 -->
<g id="edge1" class="edge"><title>Node1&#45;&gt;Node2</title>
<path fill="none" stroke="midnightblue" d="M549,-358.428C505.394,-350.171 437.815,-337.035 370.571,-322.284"/>
<polygon fill="midnightblue" stroke="midnightblue" points="371.175,-318.833 360.656,-320.096 369.667,-325.669 371.175,-318.833"/>
</g>
<!-- Node3 -->
<g id="node3" class="node"><title>Node3</title>
<g id="a_node3"><a xlink:href="correlationhistory_8h.xhtml" target="_top" xlink:title="Contains datatypes and function declarations needed by AWH to have its force correlation data checkpo...">
<polygon fill="white" stroke="black" points="378.5,-302.5 378.5,-321.5 477.5,-321.5 477.5,-302.5 378.5,-302.5"/>
<text text-anchor="middle" x="428" y="-309.5" font-family="Helvetica,sans-Serif" font-size="10.00">correlationhistory.h</text>
</a>
</g>
</g>
<!-- Node1&#45;&gt;Node3 -->
<g id="edge2" class="edge"><title>Node1&#45;&gt;Node3</title>
<path fill="none" stroke="midnightblue" d="M568.538,-358.444C540.322,-349.32 495.46,-334.813 464.032,-324.651"/>
<polygon fill="midnightblue" stroke="midnightblue" points="464.93,-321.263 454.338,-321.516 462.776,-327.923 464.93,-321.263"/>
</g>
<!-- Node4 -->
<g id="node4" class="node"><title>Node4</title>
<polygon fill="white" stroke="#bfbfbf" points="496,-302.5 496,-321.5 548,-321.5 548,-302.5 496,-302.5"/>
<text text-anchor="middle" x="522" y="-309.5" font-family="Helvetica,sans-Serif" font-size="10.00">assert.h</text>
</g>
<!-- Node1&#45;&gt;Node4 -->
<g id="edge3" class="edge"><title>Node1&#45;&gt;Node4</title>
<path fill="none" stroke="midnightblue" d="M583.271,-358.324C572.163,-350.107 555.258,-337.602 542.017,-327.807"/>
<polygon fill="midnightblue" stroke="midnightblue" points="544.063,-324.967 533.942,-321.834 539.9,-330.595 544.063,-324.967"/>
</g>
<!-- Node5 -->
<g id="node5" class="node"><title>Node5</title>
<g id="a_node5"><a xlink:href="awh-correlation-history_8h.xhtml" target="_top" xlink:title="Contains datatypes and function declarations needed by AWH to have its force correlation data checkpo...">
<polygon fill="white" stroke="black" points="642,-235.5 642,-265.5 758,-265.5 758,-235.5 642,-235.5"/>
<text text-anchor="start" x="650" y="-253.5" font-family="Helvetica,sans-Serif" font-size="10.00">gromacs/mdtypes/awh</text>
<text text-anchor="middle" x="700" y="-242.5" font-family="Helvetica,sans-Serif" font-size="10.00">&#45;correlation&#45;history.h</text>
</a>
</g>
</g>
<!-- Node1&#45;&gt;Node5 -->
<g id="edge4" class="edge"><title>Node1&#45;&gt;Node5</title>
<path fill="none" stroke="midnightblue" d="M602.892,-358.319C619.23,-340.347 657.176,-298.606 680.502,-272.948"/>
<polygon fill="midnightblue" stroke="midnightblue" points="683.095,-275.299 687.232,-265.545 677.915,-270.59 683.095,-275.299"/>
</g>
<!-- Node7 -->
<g id="node7" class="node"><title>Node7</title>
<g id="a_node7"><a xlink:href="arrayref_8h.xhtml" target="_top" xlink:title="Declares gmx::ArrayRef. ">
<polygon fill="white" stroke="black" points="1099.5,-179.5 1099.5,-198.5 1224.5,-198.5 1224.5,-179.5 1099.5,-179.5"/>
<text text-anchor="middle" x="1162" y="-186.5" font-family="Helvetica,sans-Serif" font-size="10.00">gromacs/utility/arrayref.h</text>
</a>
</g>
</g>
<!-- Node1&#45;&gt;Node7 -->
<g id="edge6" class="edge"><title>Node1&#45;&gt;Node7</title>
<path fill="none" stroke="midnightblue" d="M689.114,-361.996C765.432,-356.434 875.318,-344.999 969,-322 1037.3,-305.232 1063.16,-311.252 1117,-266 1135.57,-250.394 1148.37,-225.06 1155.44,-207.976"/>
<polygon fill="midnightblue" stroke="midnightblue" points="1158.74,-209.155 1159.11,-198.566 1152.22,-206.615 1158.74,-209.155"/>
</g>
<!-- Node13 -->
<g id="node13" class="node"><title>Node13</title>
<g id="a_node13"><a xlink:href="gmxassert_8h.xhtml" target="_top" xlink:title="Defines assert macros customized for Gromacs. ">
<polygon fill="white" stroke="black" points="698.5,-123.5 698.5,-142.5 835.5,-142.5 835.5,-123.5 698.5,-123.5"/>
<text text-anchor="middle" x="767" y="-130.5" font-family="Helvetica,sans-Serif" font-size="10.00">gromacs/utility/gmxassert.h</text>
</a>
</g>
</g>
<!-- Node1&#45;&gt;Node13 -->
<g id="edge32" class="edge"><title>Node1&#45;&gt;Node13</title>
<path fill="none" stroke="midnightblue" d="M595.596,-358.492C597.518,-336.283 605.156,-275.473 633,-235 660.713,-194.718 709.684,-163.842 740.128,-147.353"/>
<polygon fill="midnightblue" stroke="midnightblue" points="742.098,-150.272 749.311,-142.512 738.833,-144.08 742.098,-150.272"/>
</g>
<!-- Node18 -->
<g id="node18" class="node"><title>Node18</title>
<g id="a_node18"><a xlink:href="exceptions_8h.xhtml" target="_top" xlink:title="Declares common exception classes and macros for fatal error handling. ">
<polygon fill="white" stroke="black" points="418.5,-179.5 418.5,-198.5 557.5,-198.5 557.5,-179.5 418.5,-179.5"/>
<text text-anchor="middle" x="488" y="-186.5" font-family="Helvetica,sans-Serif" font-size="10.00">gromacs/utility/exceptions.h</text>
</a>
</g>
</g>
<!-- Node1&#45;&gt;Node18 -->
<g id="edge18" class="edge"><title>Node1&#45;&gt;Node18</title>
<path fill="none" stroke="midnightblue" d="M589.902,-358.13C582.668,-345.582 568.974,-321.95 557,-302 536.728,-268.226 512.451,-229.123 498.768,-207.202"/>
<polygon fill="midnightblue" stroke="midnightblue" points="501.705,-205.296 493.437,-198.672 495.769,-209.007 501.705,-205.296"/>
</g>
<!-- Node27 -->
<g id="node27" class="node"><title>Node27</title>
<g id="a_node27"><a xlink:href="correlationgrid_8h.xhtml" target="_top" xlink:title="Declares the CorrelationGrid class to collect correlation statistics on a grid, using several block l...">
<polygon fill="white" stroke="black" points="874,-302.5 874,-321.5 960,-321.5 960,-302.5 874,-302.5"/>
<text text-anchor="middle" x="917" y="-309.5" font-family="Helvetica,sans-Serif" font-size="10.00">correlationgrid.h</text>
</a>
</g>
</g>
<!-- Node1&#45;&gt;Node27 -->
<g id="edge33" class="edge"><title>Node1&#45;&gt;Node27</title>
<path fill="none" stroke="midnightblue" d="M646.022,-358.444C705.533,-348.463 803.445,-332.043 863.853,-321.913"/>
<polygon fill="midnightblue" stroke="midnightblue" points="864.662,-325.326 873.946,-320.22 863.504,-318.423 864.662,-325.326"/>
</g>
<!-- Node6 -->
<g id="node6" class="node"><title>Node6</title>
<polygon fill="white" stroke="#bfbfbf" points="897,-123.5 897,-142.5 941,-142.5 941,-123.5 897,-123.5"/>
<text text-anchor="middle" x="919" y="-130.5" font-family="Helvetica,sans-Serif" font-size="10.00">vector</text>
</g>
<!-- Node5&#45;&gt;Node6 -->
<g id="edge5" class="edge"><title>Node5&#45;&gt;Node6</title>
<path fill="none" stroke="midnightblue" d="M726.854,-235.337C769.557,-212.816 852.353,-169.15 893.917,-147.229"/>
<polygon fill="midnightblue" stroke="midnightblue" points="895.628,-150.283 902.841,-142.522 892.363,-144.091 895.628,-150.283"/>
</g>
<!-- Node7&#45;&gt;Node6 -->
<g id="edge12" class="edge"><title>Node7&#45;&gt;Node6</title>
<path fill="none" stroke="midnightblue" d="M1123.5,-179.444C1075.92,-168.871 995.824,-151.072 951.303,-141.179"/>
<polygon fill="midnightblue" stroke="midnightblue" points="951.838,-137.712 941.317,-138.959 950.32,-144.545 951.838,-137.712"/>
</g>
<!-- Node8 -->
<g id="node8" class="node"><title>Node8</title>
<polygon fill="white" stroke="#bfbfbf" points="1023.5,-123.5 1023.5,-142.5 1072.5,-142.5 1072.5,-123.5 1023.5,-123.5"/>
<text text-anchor="middle" x="1048" y="-130.5" font-family="Helvetica,sans-Serif" font-size="10.00">cstddef</text>
</g>
<!-- Node7&#45;&gt;Node8 -->
<g id="edge7" class="edge"><title>Node7&#45;&gt;Node8</title>
<path fill="none" stroke="midnightblue" d="M1143.94,-179.444C1125.43,-170.675 1096.42,-156.935 1075.14,-146.858"/>
<polygon fill="midnightblue" stroke="midnightblue" points="1076.51,-143.634 1065.98,-142.516 1073.52,-149.96 1076.51,-143.634"/>
</g>
<!-- Node9 -->
<g id="node9" class="node"><title>Node9</title>
<polygon fill="white" stroke="#bfbfbf" points="1149,-123.5 1149,-142.5 1187,-142.5 1187,-123.5 1149,-123.5"/>
<text text-anchor="middle" x="1168" y="-130.5" font-family="Helvetica,sans-Serif" font-size="10.00">array</text>
</g>
<!-- Node7&#45;&gt;Node9 -->
<g id="edge8" class="edge"><title>Node7&#45;&gt;Node9</title>
<path fill="none" stroke="midnightblue" d="M1162.99,-179.083C1163.79,-171.927 1164.93,-161.635 1165.92,-152.691"/>
<polygon fill="midnightblue" stroke="midnightblue" points="1169.4,-153.076 1167.03,-142.751 1162.44,-152.303 1169.4,-153.076"/>
</g>
<!-- Node10 -->
<g id="node10" class="node"><title>Node10</title>
<polygon fill="white" stroke="#bfbfbf" points="1205.5,-123.5 1205.5,-142.5 1252.5,-142.5 1252.5,-123.5 1205.5,-123.5"/>
<text text-anchor="middle" x="1229" y="-130.5" font-family="Helvetica,sans-Serif" font-size="10.00">iterator</text>
</g>
<!-- Node7&#45;&gt;Node10 -->
<g id="edge9" class="edge"><title>Node7&#45;&gt;Node10</title>
<path fill="none" stroke="midnightblue" d="M1172.76,-179.324C1182.77,-171.263 1197.89,-159.077 1209.93,-149.369"/>
<polygon fill="midnightblue" stroke="midnightblue" points="1212.45,-151.834 1218.04,-142.834 1208.06,-146.384 1212.45,-151.834"/>
</g>
<!-- Node11 -->
<g id="node11" class="node"><title>Node11</title>
<polygon fill="white" stroke="#bfbfbf" points="1270.5,-123.5 1270.5,-142.5 1329.5,-142.5 1329.5,-123.5 1270.5,-123.5"/>
<text text-anchor="middle" x="1300" y="-130.5" font-family="Helvetica,sans-Serif" font-size="10.00">stdexcept</text>
</g>
<!-- Node7&#45;&gt;Node11 -->
<g id="edge10" class="edge"><title>Node7&#45;&gt;Node11</title>
<path fill="none" stroke="midnightblue" d="M1183.87,-179.444C1206.78,-170.478 1242.98,-156.314 1268.87,-146.183"/>
<polygon fill="midnightblue" stroke="midnightblue" points="1270.2,-149.42 1278.24,-142.516 1267.65,-142.901 1270.2,-149.42"/>
</g>
<!-- Node12 -->
<g id="node12" class="node"><title>Node12</title>
<polygon fill="white" stroke="#bfbfbf" points="1091,-123.5 1091,-142.5 1131,-142.5 1131,-123.5 1091,-123.5"/>
<text text-anchor="middle" x="1111" y="-130.5" font-family="Helvetica,sans-Serif" font-size="10.00">utility</text>
</g>
<!-- Node7&#45;&gt;Node12 -->
<g id="edge11" class="edge"><title>Node7&#45;&gt;Node12</title>
<path fill="none" stroke="midnightblue" d="M1153.58,-179.083C1146.15,-171.22 1135.15,-159.569 1126.19,-150.081"/>
<polygon fill="midnightblue" stroke="midnightblue" points="1128.68,-147.618 1119.26,-142.751 1123.59,-152.424 1128.68,-147.618"/>
</g>
<!-- Node7&#45;&gt;Node13 -->
<g id="edge13" class="edge"><title>Node7&#45;&gt;Node13</title>
<path fill="none" stroke="midnightblue" d="M1099.41,-179.444C1028.77,-169.786 914.023,-154.099 839.531,-143.916"/>
<polygon fill="midnightblue" stroke="midnightblue" points="839.678,-140.403 829.296,-142.516 838.73,-147.339 839.678,-140.403"/>
</g>
<!-- Node14 -->
<g id="node14" class="node"><title>Node14</title>
<g id="a_node14"><a xlink:href="basedefinitions_8h.xhtml" target="_top" xlink:title="Basic types and macros used throughout GROMACS. ">
<polygon fill="white" stroke="black" points="736.5,-62 736.5,-81 893.5,-81 893.5,-62 736.5,-62"/>
<text text-anchor="middle" x="815" y="-69" font-family="Helvetica,sans-Serif" font-size="10.00">gromacs/utility/basedefinitions.h</text>
</a>
</g>
</g>
<!-- Node13&#45;&gt;Node14 -->
<g id="edge14" class="edge"><title>Node13&#45;&gt;Node14</title>
<path fill="none" stroke="midnightblue" d="M773.877,-123.475C781.149,-114.462 792.795,-100.025 801.841,-88.8118"/>
<polygon fill="midnightblue" stroke="midnightblue" points="804.581,-90.9898 808.136,-81.0091 799.133,-86.5946 804.581,-90.9898"/>
</g>
<!-- Node17 -->
<g id="node17" class="node"><title>Node17</title>
<g id="a_node17"><a xlink:href="current__function_8h.xhtml" target="_top" xlink:title="Declares GMX_CURRENT_FUNCTION for getting the current function name. ">
<polygon fill="white" stroke="black" points="293.5,-56.5 293.5,-86.5 406.5,-86.5 406.5,-56.5 293.5,-56.5"/>
<text text-anchor="start" x="301.5" y="-74.5" font-family="Helvetica,sans-Serif" font-size="10.00">gromacs/utility/current</text>
<text text-anchor="middle" x="350" y="-63.5" font-family="Helvetica,sans-Serif" font-size="10.00">_function.h</text>
</a>
</g>
</g>
<!-- Node13&#45;&gt;Node17 -->
<g id="edge17" class="edge"><title>Node13&#45;&gt;Node17</title>
<path fill="none" stroke="midnightblue" d="M707.254,-123.475C630.262,-112.489 496.803,-93.4467 416.615,-82.005"/>
<polygon fill="midnightblue" stroke="midnightblue" points="417.021,-78.5275 406.627,-80.5798 416.032,-85.4574 417.021,-78.5275"/>
</g>
<!-- Node15 -->
<g id="node15" class="node"><title>Node15</title>
<polygon fill="white" stroke="#bfbfbf" points="754.5,-0.5 754.5,-19.5 803.5,-19.5 803.5,-0.5 754.5,-0.5"/>
<text text-anchor="middle" x="779" y="-7.5" font-family="Helvetica,sans-Serif" font-size="10.00">stdint.h</text>
</g>
<!-- Node14&#45;&gt;Node15 -->
<g id="edge15" class="edge"><title>Node14&#45;&gt;Node15</title>
<path fill="none" stroke="midnightblue" d="M809.842,-61.9751C804.549,-53.2268 796.165,-39.3691 789.473,-28.3093"/>
<polygon fill="midnightblue" stroke="midnightblue" points="792.32,-26.2531 784.148,-19.5091 786.33,-29.8768 792.32,-26.2531"/>
</g>
<!-- Node16 -->
<g id="node16" class="node"><title>Node16</title>
<polygon fill="white" stroke="#bfbfbf" points="821.5,-0.5 821.5,-19.5 880.5,-19.5 880.5,-0.5 821.5,-0.5"/>
<text text-anchor="middle" x="851" y="-7.5" font-family="Helvetica,sans-Serif" font-size="10.00">inttypes.h</text>
</g>
<!-- Node14&#45;&gt;Node16 -->
<g id="edge16" class="edge"><title>Node14&#45;&gt;Node16</title>
<path fill="none" stroke="midnightblue" d="M820.158,-61.9751C825.451,-53.2268 833.835,-39.3691 840.527,-28.3093"/>
<polygon fill="midnightblue" stroke="midnightblue" points="843.67,-29.8768 845.852,-19.5091 837.68,-26.2531 843.67,-29.8768"/>
</g>
<!-- Node18&#45;&gt;Node6 -->
<g id="edge26" class="edge"><title>Node18&#45;&gt;Node6</title>
<path fill="none" stroke="midnightblue" d="M556.293,-179.444C650.667,-167.619 817.189,-146.756 886.898,-138.022"/>
<polygon fill="midnightblue" stroke="midnightblue" points="887.358,-141.492 896.845,-136.776 886.488,-134.546 887.358,-141.492"/>
</g>
<!-- Node18&#45;&gt;Node13 -->
<g id="edge31" class="edge"><title>Node18&#45;&gt;Node13</title>
<path fill="none" stroke="midnightblue" d="M532.208,-179.444C581.287,-169.944 660.51,-154.611 713.164,-144.42"/>
<polygon fill="midnightblue" stroke="midnightblue" points="713.846,-147.853 722.998,-142.516 712.516,-140.98 713.846,-147.853"/>
</g>
<!-- Node18&#45;&gt;Node14 -->
<g id="edge27" class="edge"><title>Node18&#45;&gt;Node14</title>
<path fill="none" stroke="midnightblue" d="M527.346,-179.438C560.608,-171.643 609.216,-158.931 650,-143 668.144,-135.912 671.274,-131.077 689,-123 720.049,-108.853 756.279,-94.5556 781.899,-84.8025"/>
<polygon fill="midnightblue" stroke="midnightblue" points="783.389,-87.9812 791.504,-81.1698 780.913,-81.4338 783.389,-87.9812"/>
</g>
<!-- Node18&#45;&gt;Node17 -->
<g id="edge30" class="edge"><title>Node18&#45;&gt;Node17</title>
<path fill="none" stroke="midnightblue" d="M419.067,-179.475C374.661,-172.404 322.743,-160.626 309,-143 296.989,-127.596 309.829,-108.322 324.225,-93.8209"/>
<polygon fill="midnightblue" stroke="midnightblue" points="326.888,-96.1212 331.771,-86.7189 322.09,-91.0236 326.888,-96.1212"/>
</g>
<!-- Node19 -->
<g id="node19" class="node"><title>Node19</title>
<polygon fill="white" stroke="#bfbfbf" points="535.5,-123.5 535.5,-142.5 578.5,-142.5 578.5,-123.5 535.5,-123.5"/>
<text text-anchor="middle" x="557" y="-130.5" font-family="Helvetica,sans-Serif" font-size="10.00">cstdio</text>
</g>
<!-- Node18&#45;&gt;Node19 -->
<g id="edge19" class="edge"><title>Node18&#45;&gt;Node19</title>
<path fill="none" stroke="midnightblue" d="M499.086,-179.324C509.486,-171.185 525.261,-158.839 537.722,-149.087"/>
<polygon fill="midnightblue" stroke="midnightblue" points="539.994,-151.753 545.712,-142.834 535.68,-146.241 539.994,-151.753"/>
</g>
<!-- Node20 -->
<g id="node20" class="node"><title>Node20</title>
<polygon fill="white" stroke="#bfbfbf" points="596.5,-123.5 596.5,-142.5 641.5,-142.5 641.5,-123.5 596.5,-123.5"/>
<text text-anchor="middle" x="619" y="-130.5" font-family="Helvetica,sans-Serif" font-size="10.00">cstdlib</text>
</g>
<!-- Node18&#45;&gt;Node20 -->
<g id="edge20" class="edge"><title>Node18&#45;&gt;Node20</title>
<path fill="none" stroke="midnightblue" d="M508.757,-179.444C530.316,-170.557 564.263,-156.563 588.794,-146.451"/>
<polygon fill="midnightblue" stroke="midnightblue" points="590.428,-149.563 598.34,-142.516 587.761,-143.092 590.428,-149.563"/>
</g>
<!-- Node21 -->
<g id="node21" class="node"><title>Node21</title>
<polygon fill="white" stroke="#bfbfbf" points="164.5,-123.5 164.5,-142.5 223.5,-142.5 223.5,-123.5 164.5,-123.5"/>
<text text-anchor="middle" x="194" y="-130.5" font-family="Helvetica,sans-Serif" font-size="10.00">exception</text>
</g>
<!-- Node18&#45;&gt;Node21 -->
<g id="edge21" class="edge"><title>Node18&#45;&gt;Node21</title>
<path fill="none" stroke="midnightblue" d="M438.603,-179.464C388.127,-170.658 307.508,-156.363 238,-143 236.564,-142.724 235.103,-142.44 233.627,-142.151"/>
<polygon fill="midnightblue" stroke="midnightblue" points="234.294,-138.715 223.803,-140.195 232.927,-145.58 234.294,-138.715"/>
</g>
<!-- Node22 -->
<g id="node22" class="node"><title>Node22</title>
<polygon fill="white" stroke="#bfbfbf" points="165,-62 165,-81 217,-81 217,-62 165,-62"/>
<text text-anchor="middle" x="191" y="-69" font-family="Helvetica,sans-Serif" font-size="10.00">memory</text>
</g>
<!-- Node18&#45;&gt;Node22 -->
<g id="edge22" class="edge"><title>Node18&#45;&gt;Node22</title>
<path fill="none" stroke="midnightblue" d="M431.208,-179.425C393.309,-172.484 342.928,-160.878 301,-143 266.494,-128.287 230.665,-103.162 209.623,-87.2182"/>
<polygon fill="midnightblue" stroke="midnightblue" points="211.614,-84.3344 201.556,-81.004 207.342,-89.8796 211.614,-84.3344"/>
</g>
<!-- Node23 -->
<g id="node23" class="node"><title>Node23</title>
<polygon fill="white" stroke="#bfbfbf" points="318.5,-123.5 318.5,-142.5 359.5,-142.5 359.5,-123.5 318.5,-123.5"/>
<text text-anchor="middle" x="339" y="-130.5" font-family="Helvetica,sans-Serif" font-size="10.00">string</text>
</g>
<!-- Node18&#45;&gt;Node23 -->
<g id="edge23" class="edge"><title>Node18&#45;&gt;Node23</title>
<path fill="none" stroke="midnightblue" d="M464.391,-179.444C438.665,-170.12 397.432,-155.177 369.327,-144.991"/>
<polygon fill="midnightblue" stroke="midnightblue" points="370.214,-141.59 359.62,-141.473 367.829,-148.171 370.214,-141.59"/>
</g>
<!-- Node24 -->
<g id="node24" class="node"><title>Node24</title>
<polygon fill="white" stroke="#bfbfbf" points="378,-123.5 378,-142.5 440,-142.5 440,-123.5 378,-123.5"/>
<text text-anchor="middle" x="409" y="-130.5" font-family="Helvetica,sans-Serif" font-size="10.00">type_traits</text>
</g>
<!-- Node18&#45;&gt;Node24 -->
<g id="edge24" class="edge"><title>Node18&#45;&gt;Node24</title>
<path fill="none" stroke="midnightblue" d="M475.307,-179.324C463.099,-170.979 444.422,-158.212 429.997,-148.352"/>
<polygon fill="midnightblue" stroke="midnightblue" points="431.892,-145.408 421.661,-142.655 427.942,-151.187 431.892,-145.408"/>
</g>
<!-- Node25 -->
<g id="node25" class="node"><title>Node25</title>
<polygon fill="white" stroke="#bfbfbf" points="458.5,-123.5 458.5,-142.5 517.5,-142.5 517.5,-123.5 458.5,-123.5"/>
<text text-anchor="middle" x="488" y="-130.5" font-family="Helvetica,sans-Serif" font-size="10.00">typeindex</text>
</g>
<!-- Node18&#45;&gt;Node25 -->
<g id="edge25" class="edge"><title>Node18&#45;&gt;Node25</title>
<path fill="none" stroke="midnightblue" d="M488,-179.083C488,-172.006 488,-161.861 488,-152.986"/>
<polygon fill="midnightblue" stroke="midnightblue" points="491.5,-152.751 488,-142.751 484.5,-152.751 491.5,-152.751"/>
</g>
<!-- Node26 -->
<g id="node26" class="node"><title>Node26</title>
<g id="a_node26"><a xlink:href="classhelpers_8h.xhtml" target="_top" xlink:title="Declares common utility classes and macros. ">
<polygon fill="white" stroke="black" points="0,-123.5 0,-142.5 146,-142.5 146,-123.5 0,-123.5"/>
<text text-anchor="middle" x="73" y="-130.5" font-family="Helvetica,sans-Serif" font-size="10.00">gromacs/utility/classhelpers.h</text>
</a>
</g>
</g>
<!-- Node18&#45;&gt;Node26 -->
<g id="edge28" class="edge"><title>Node18&#45;&gt;Node26</title>
<path fill="none" stroke="midnightblue" d="M422.242,-179.444C347.873,-169.767 226.974,-154.035 148.724,-143.853"/>
<polygon fill="midnightblue" stroke="midnightblue" points="148.818,-140.336 138.45,-142.516 147.915,-147.278 148.818,-140.336"/>
</g>
<!-- Node26&#45;&gt;Node22 -->
<g id="edge29" class="edge"><title>Node26&#45;&gt;Node22</title>
<path fill="none" stroke="midnightblue" d="M89.9065,-123.475C109.534,-113.578 142.131,-97.1416 164.99,-85.6151"/>
<polygon fill="midnightblue" stroke="midnightblue" points="166.772,-88.6367 174.125,-81.0091 163.62,-82.3863 166.772,-88.6367"/>
</g>
<!-- Node27&#45;&gt;Node6 -->
<g id="edge35" class="edge"><title>Node27&#45;&gt;Node6</title>
<path fill="none" stroke="midnightblue" d="M917.096,-302.463C917.402,-275.428 918.353,-191.239 918.784,-153.109"/>
<polygon fill="midnightblue" stroke="midnightblue" points="922.286,-152.907 918.9,-142.868 915.287,-152.828 922.286,-152.907"/>
</g>
<!-- Node27&#45;&gt;Node7 -->
<g id="edge36" class="edge"><title>Node27&#45;&gt;Node7</title>
<path fill="none" stroke="midnightblue" d="M960.055,-305.709C995.456,-299.941 1045.96,-288.366 1085,-266 1111.65,-250.733 1135.66,-223.967 1149.54,-206.617"/>
<polygon fill="midnightblue" stroke="midnightblue" points="1152.47,-208.558 1155.84,-198.513 1146.94,-204.265 1152.47,-208.558"/>
</g>
<!-- Node27&#45;&gt;Node8 -->
<g id="edge34" class="edge"><title>Node27&#45;&gt;Node8</title>
<path fill="none" stroke="midnightblue" d="M960.29,-309.229C991.362,-305.417 1031.27,-294.76 1052,-266 1076.38,-232.175 1064.1,-179.794 1054.95,-152.29"/>
<polygon fill="midnightblue" stroke="midnightblue" points="1058.2,-151.006 1051.56,-142.754 1051.61,-153.349 1058.2,-151.006"/>
</g>
<!-- Node27&#45;&gt;Node13 -->
<g id="edge38" class="edge"><title>Node27&#45;&gt;Node13</title>
<path fill="none" stroke="midnightblue" d="M889.862,-302.446C870.806,-295.278 845.819,-283.393 829,-266 796.98,-232.886 779.158,-180.17 771.526,-152.439"/>
<polygon fill="midnightblue" stroke="midnightblue" points="774.849,-151.311 768.941,-142.516 768.075,-153.075 774.849,-151.311"/>
</g>
<!-- Node27&#45;&gt;Node14 -->
<g id="edge37" class="edge"><title>Node27&#45;&gt;Node14</title>
<path fill="none" stroke="midnightblue" d="M914.212,-302.158C905.476,-274.853 877.289,-189.69 845,-123 839.467,-111.573 832.221,-99.3163 826.236,-89.7398"/>
<polygon fill="midnightblue" stroke="midnightblue" points="829.109,-87.7364 820.781,-81.1867 823.207,-91.5001 829.109,-87.7364"/>
</g>
<!-- Node28 -->
<g id="node28" class="node"><title>Node28</title>
<g id="a_node28"><a xlink:href="correlationtensor_8h.xhtml" target="_top" xlink:title="Declares the CorrelationTensor class for correlation tensor statistics. ">
<polygon fill="white" stroke="black" points="945.5,-241 945.5,-260 1042.5,-260 1042.5,-241 945.5,-241"/>
<text text-anchor="middle" x="994" y="-248" font-family="Helvetica,sans-Serif" font-size="10.00">correlationtensor.h</text>
</a>
</g>
</g>
<!-- Node27&#45;&gt;Node28 -->
<g id="edge39" class="edge"><title>Node27&#45;&gt;Node28</title>
<path fill="none" stroke="midnightblue" d="M928.032,-302.475C940.268,-293.02 960.229,-277.596 974.993,-266.187"/>
<polygon fill="midnightblue" stroke="midnightblue" points="977.215,-268.893 982.988,-260.009 972.935,-263.354 977.215,-268.893"/>
</g>
<!-- Node28&#45;&gt;Node6 -->
<g id="edge41" class="edge"><title>Node28&#45;&gt;Node6</title>
<path fill="none" stroke="midnightblue" d="M988.363,-240.819C976.038,-221.839 946.499,-176.348 930.226,-151.288"/>
<polygon fill="midnightblue" stroke="midnightblue" points="933.084,-149.263 924.703,-142.782 927.213,-153.075 933.084,-149.263"/>
</g>
<!-- Node28&#45;&gt;Node7 -->
<g id="edge42" class="edge"><title>Node28&#45;&gt;Node7</title>
<path fill="none" stroke="midnightblue" d="M1018.07,-240.975C1047.01,-230.725 1095.76,-213.459 1128.4,-201.899"/>
<polygon fill="midnightblue" stroke="midnightblue" points="1129.72,-205.147 1137.97,-198.509 1127.38,-198.548 1129.72,-205.147"/>
</g>
<!-- Node28&#45;&gt;Node8 -->
<g id="edge40" class="edge"><title>Node28&#45;&gt;Node8</title>
<path fill="none" stroke="midnightblue" d="M998.059,-240.819C1006.85,-222.006 1027.83,-177.148 1039.61,-151.955"/>
<polygon fill="midnightblue" stroke="midnightblue" points="1042.83,-153.323 1043.89,-142.782 1036.49,-150.358 1042.83,-153.323"/>
</g>
<!-- Node28&#45;&gt;Node13 -->
<g id="edge44" class="edge"><title>Node28&#45;&gt;Node13</title>
<path fill="none" stroke="midnightblue" d="M976.938,-240.819C937.485,-220.745 839.747,-171.015 792.877,-147.167"/>
<polygon fill="midnightblue" stroke="midnightblue" points="794.45,-144.04 783.95,-142.624 791.276,-150.279 794.45,-144.04"/>
</g>
<!-- Node28&#45;&gt;Node14 -->
<g id="edge43" class="edge"><title>Node28&#45;&gt;Node14</title>
<path fill="none" stroke="midnightblue" d="M993.451,-240.829C991.567,-218.295 983.475,-157.261 950,-123 930.702,-103.249 902.956,-91.1417 877.632,-83.7589"/>
<polygon fill="midnightblue" stroke="midnightblue" points="878.268,-80.305 867.7,-81.0618 876.433,-87.0603 878.268,-80.305"/>
</g>
</g>
</svg>
