<?xml version="1.0" encoding="UTF-8" standalone="no"?>
<!DOCTYPE svg PUBLIC "-//W3C//DTD SVG 1.1//EN"
 "http://www.w3.org/Graphics/SVG/1.1/DTD/svg11.dtd">
<!-- Generated by graphviz version 2.38.0 (20140413.2041)
 -->
<!-- Title: src/gromacs/awh/correlationhistory.h Pages: 1 -->
<svg width="346pt" height="84pt"
 viewBox="0.00 0.00 345.50 84.00" xmlns="http://www.w3.org/2000/svg" xmlns:xlink="http://www.w3.org/1999/xlink">
<g id="graph0" class="graph" transform="scale(1 1) rotate(0) translate(4 80)">
<title>src/gromacs/awh/correlationhistory.h</title>
<polygon fill="white" stroke="none" points="-4,4 -4,-80 341.5,-80 341.5,4 -4,4"/>
<!-- Node1 -->
<g id="node1" class="node"><title>Node1</title>
<polygon fill="#bfbfbf" stroke="black" points="66,-56.5 66,-75.5 243,-75.5 243,-56.5 66,-56.5"/>
<text text-anchor="middle" x="154.5" y="-63.5" font-family="Helvetica,sans-Serif" font-size="10.00">src/gromacs/awh/correlationhistory.h</text>
</g>
<!-- Node2 -->
<g id="node2" class="node"><title>Node2</title>
<g id="a_node2"><a xlink:href="bias_8cpp.xhtml" target="_top" xlink:title="Implements the Bias class. ">
<polygon fill="white" stroke="black" points="0,-0.5 0,-19.5 131,-19.5 131,-0.5 0,-0.5"/>
<text text-anchor="middle" x="65.5" y="-7.5" font-family="Helvetica,sans-Serif" font-size="10.00">src/gromacs/awh/bias.cpp</text>
</a>
</g>
</g>
<!-- Node1&#45;&gt;Node2 -->
<g id="edge1" class="edge"><title>Node1&#45;&gt;Node2</title>
<path fill="none" stroke="midnightblue" d="M131.262,-50.9005C114.942,-40.9986 93.6348,-28.0705 79.7639,-19.6545"/>
<polygon fill="midnightblue" stroke="midnightblue" points="129.836,-54.1289 140.201,-56.324 133.467,-48.1444 129.836,-54.1289"/>
</g>
<!-- Node3 -->
<g id="node3" class="node"><title>Node3</title>
<g id="a_node3"><a xlink:href="correlationhistory_8cpp.xhtml" target="_top" xlink:title="Implements helper functions for checkpointing the AWH state and observables history. ">
<polygon fill="white" stroke="black" points="149.5,-0.5 149.5,-19.5 337.5,-19.5 337.5,-0.5 149.5,-0.5"/>
<text text-anchor="middle" x="243.5" y="-7.5" font-family="Helvetica,sans-Serif" font-size="10.00">src/gromacs/awh/correlationhistory.cpp</text>
</a>
</g>
</g>
<!-- Node1&#45;&gt;Node3 -->
<g id="edge2" class="edge"><title>Node1&#45;&gt;Node3</title>
<path fill="none" stroke="midnightblue" d="M177.738,-50.9005C194.058,-40.9986 215.365,-28.0705 229.236,-19.6545"/>
<polygon fill="midnightblue" stroke="midnightblue" points="175.533,-48.1444 168.799,-56.324 179.164,-54.1289 175.533,-48.1444"/>
</g>
</g>
</svg>
