<?xml version="1.0" encoding="UTF-8" standalone="no"?>
<!DOCTYPE svg PUBLIC "-//W3C//DTD SVG 1.1//EN"
 "http://www.w3.org/Graphics/SVG/1.1/DTD/svg11.dtd">
<!-- Generated by graphviz version 2.38.0 (20140413.2041)
 -->
<!-- Title: src/gromacs/utility/cstringutil.h Pages: 1 -->
<svg width="4355pt" height="173pt"
 viewBox="0.00 0.00 4354.50 173.00" xmlns="http://www.w3.org/2000/svg" xmlns:xlink="http://www.w3.org/1999/xlink">
<g id="graph0" class="graph" transform="scale(1 1) rotate(0) translate(4 169)">
<title>src/gromacs/utility/cstringutil.h</title>
<polygon fill="white" stroke="none" points="-4,4 -4,-169 4350.5,-169 4350.5,4 -4,4"/>
<!-- Node1 -->
<g id="node1" class="node"><title>Node1</title>
<polygon fill="#bfbfbf" stroke="black" points="2175,-134.5 2175,-164.5 2272,-164.5 2272,-134.5 2175,-134.5"/>
<text text-anchor="start" x="2183" y="-152.5" font-family="Helvetica,sans-Serif" font-size="10.00">src/gromacs/utility</text>
<text text-anchor="middle" x="2223.5" y="-141.5" font-family="Helvetica,sans-Serif" font-size="10.00">/cstringutil.h</text>
</g>
<!-- Node2 -->
<g id="node2" class="node"><title>Node2</title>
<g id="a_node2"><a xlink:href="stringcompare_8h.xhtml" target="_top" xlink:title="Declares utility functionst for string comparison. ">
<polygon fill="white" stroke="black" points="23,-67.5 23,-97.5 120,-97.5 120,-67.5 23,-67.5"/>
<text text-anchor="start" x="31" y="-85.5" font-family="Helvetica,sans-Serif" font-size="10.00">src/gromacs/utility</text>
<text text-anchor="middle" x="71.5" y="-74.5" font-family="Helvetica,sans-Serif" font-size="10.00">/stringcompare.h</text>
</a>
</g>
</g>
<!-- Node1&#45;&gt;Node2 -->
<g id="edge1" class="edge"><title>Node1&#45;&gt;Node2</title>
<path fill="none" stroke="midnightblue" d="M2164.46,-148.835C1867.84,-150.252 538.391,-153.349 129.5,-98 126.414,-97.5823 123.255,-97.0634 120.083,-96.4727"/>
<polygon fill="midnightblue" stroke="midnightblue" points="2164.59,-152.335 2174.57,-148.786 2164.56,-145.335 2164.59,-152.335"/>
</g>
<!-- Node4 -->
<g id="node4" class="node"><title>Node4</title>
<g id="a_node4"><a xlink:href="grid_8cpp.xhtml" target="_top" xlink:title="Implements functions in grid.h. ">
<polygon fill="white" stroke="black" points="138,-73 138,-92 267,-92 267,-73 138,-73"/>
<text text-anchor="middle" x="202.5" y="-80" font-family="Helvetica,sans-Serif" font-size="10.00">src/gromacs/awh/grid.cpp</text>
</a>
</g>
</g>
<!-- Node1&#45;&gt;Node4 -->
<g id="edge3" class="edge"><title>Node1&#45;&gt;Node4</title>
<path fill="none" stroke="midnightblue" d="M2164.58,-148.303C1881.12,-147.152 656.016,-139.806 276.5,-98 264.398,-96.6669 251.323,-94.3888 239.579,-92.0282"/>
<polygon fill="midnightblue" stroke="midnightblue" points="2164.64,-151.803 2174.65,-148.343 2164.66,-144.803 2164.64,-151.803"/>
</g>
<!-- Node5 -->
<g id="node5" class="node"><title>Node5</title>
<g id="a_node5"><a xlink:href="domdec__topology_8cpp.xhtml" target="_top" xlink:title="This file defines functions used by the domdec module while managing the construction, use and error checking for topologies local to a DD rank. ">
<polygon fill="white" stroke="black" points="285,-67.5 285,-97.5 400,-97.5 400,-67.5 285,-67.5"/>
<text text-anchor="start" x="293" y="-85.5" font-family="Helvetica,sans-Serif" font-size="10.00">src/gromacs/domdec</text>
<text text-anchor="middle" x="342.5" y="-74.5" font-family="Helvetica,sans-Serif" font-size="10.00">/domdec_topology.cpp</text>
</a>
</g>
</g>
<!-- Node1&#45;&gt;Node5 -->
<g id="edge4" class="edge"><title>Node1&#45;&gt;Node5</title>
<path fill="none" stroke="midnightblue" d="M2164.67,-148.328C1893.32,-147.311 760.951,-140.549 409.5,-98 406.428,-97.6281 403.289,-97.1822 400.128,-96.6811"/>
<polygon fill="midnightblue" stroke="midnightblue" points="2164.69,-151.828 2174.7,-148.365 2164.72,-144.828 2164.69,-151.828"/>
</g>
<!-- Node6 -->
<g id="node6" class="node"><title>Node6</title>
<g id="a_node6"><a xlink:href="pme-load-balancing_8cpp.xhtml" target="_top" xlink:title="This file contains function definitions necessary for managing automatic load balance of PME calculat...">
<polygon fill="white" stroke="black" points="418,-67.5 418,-97.5 539,-97.5 539,-67.5 418,-67.5"/>
<text text-anchor="start" x="426" y="-85.5" font-family="Helvetica,sans-Serif" font-size="10.00">src/gromacs/ewald/pme</text>
<text text-anchor="middle" x="478.5" y="-74.5" font-family="Helvetica,sans-Serif" font-size="10.00">&#45;load&#45;balancing.cpp</text>
</a>
</g>
</g>
<!-- Node1&#45;&gt;Node6 -->
<g id="edge5" class="edge"><title>Node1&#45;&gt;Node6</title>
<path fill="none" stroke="midnightblue" d="M2164.64,-148.1C1906.29,-146.135 871.245,-135.999 548.5,-98 545.419,-97.6372 542.271,-97.207 539.101,-96.726"/>
<polygon fill="midnightblue" stroke="midnightblue" points="2164.91,-151.602 2174.93,-148.178 2164.96,-144.603 2164.91,-151.602"/>
</g>
<!-- Node7 -->
<g id="node7" class="node"><title>Node7</title>
<g id="a_node7"><a xlink:href="tests_2confio_8cpp.xhtml" target="_top" xlink:title="Tests for reading/writing different structure file formats. ">
<polygon fill="white" stroke="black" points="557.5,-67.5 557.5,-97.5 651.5,-97.5 651.5,-67.5 557.5,-67.5"/>
<text text-anchor="start" x="565.5" y="-85.5" font-family="Helvetica,sans-Serif" font-size="10.00">src/gromacs/fileio</text>
<text text-anchor="middle" x="604.5" y="-74.5" font-family="Helvetica,sans-Serif" font-size="10.00">/tests/confio.cpp</text>
</a>
</g>
</g>
<!-- Node1&#45;&gt;Node7 -->
<g id="edge6" class="edge"><title>Node1&#45;&gt;Node7</title>
<path fill="none" stroke="midnightblue" d="M2164.51,-148.337C1916.71,-147.382 959.038,-140.933 660.5,-98 657.617,-97.5854 654.669,-97.0787 651.707,-96.506"/>
<polygon fill="midnightblue" stroke="midnightblue" points="2164.74,-151.837 2174.75,-148.375 2164.76,-144.837 2164.74,-151.837"/>
</g>
<!-- Node8 -->
<g id="node8" class="node"><title>Node8</title>
<g id="a_node8"><a xlink:href="gmx__wham_8cpp.xhtml" target="_top" xlink:title="Implementation of the Weighted Histogram Analysis Method (WHAM) ">
<polygon fill="white" stroke="black" points="669.5,-67.5 669.5,-97.5 777.5,-97.5 777.5,-67.5 669.5,-67.5"/>
<text text-anchor="start" x="677.5" y="-85.5" font-family="Helvetica,sans-Serif" font-size="10.00">src/gromacs/gmxana</text>
<text text-anchor="middle" x="723.5" y="-74.5" font-family="Helvetica,sans-Serif" font-size="10.00">/gmx_wham.cpp</text>
</a>
</g>
</g>
<!-- Node1&#45;&gt;Node8 -->
<g id="edge7" class="edge"><title>Node1&#45;&gt;Node8</title>
<path fill="none" stroke="midnightblue" d="M2164.71,-147.932C1929.99,-145.434 1059.64,-133.897 786.5,-98 783.607,-97.6198 780.651,-97.1672 777.676,-96.6609"/>
<polygon fill="midnightblue" stroke="midnightblue" points="2164.71,-151.432 2174.75,-148.038 2164.79,-144.433 2164.71,-151.432"/>
</g>
<!-- Node9 -->
<g id="node9" class="node"><title>Node9</title>
<g id="a_node9"><a xlink:href="tests_2readir_8cpp.xhtml" target="_top" xlink:title="Test routines that parse mdp fields from grompp input and writes mdp back out. ">
<polygon fill="white" stroke="black" points="795.5,-67.5 795.5,-97.5 935.5,-97.5 935.5,-67.5 795.5,-67.5"/>
<text text-anchor="start" x="803.5" y="-85.5" font-family="Helvetica,sans-Serif" font-size="10.00">src/gromacs/gmxpreprocess</text>
<text text-anchor="middle" x="865.5" y="-74.5" font-family="Helvetica,sans-Serif" font-size="10.00">/tests/readir.cpp</text>
</a>
</g>
</g>
<!-- Node1&#45;&gt;Node9 -->
<g id="edge8" class="edge"><title>Node1&#45;&gt;Node9</title>
<path fill="none" stroke="midnightblue" d="M2164.71,-149.092C1982.84,-150.3 1413.45,-149.398 945.5,-98 942.273,-97.6455 938.98,-97.2377 935.659,-96.789"/>
<polygon fill="midnightblue" stroke="midnightblue" points="2164.89,-152.591 2174.86,-149.02 2164.84,-145.591 2164.89,-152.591"/>
</g>
<!-- Node10 -->
<g id="node10" class="node"><title>Node10</title>
<g id="a_node10"><a xlink:href="gpu__utils__ocl_8cpp.xhtml" target="_top" xlink:title="Define functions for detection and initialization for OpenCL devices. ">
<polygon fill="white" stroke="black" points="954,-67.5 954,-97.5 1067,-97.5 1067,-67.5 954,-67.5"/>
<text text-anchor="start" x="962" y="-85.5" font-family="Helvetica,sans-Serif" font-size="10.00">src/gromacs/gpu_utils</text>
<text text-anchor="middle" x="1010.5" y="-74.5" font-family="Helvetica,sans-Serif" font-size="10.00">/gpu_utils_ocl.cpp</text>
</a>
</g>
</g>
<!-- Node1&#45;&gt;Node10 -->
<g id="edge9" class="edge"><title>Node1&#45;&gt;Node10</title>
<path fill="none" stroke="midnightblue" d="M2164.56,-147.248C1961.26,-142.718 1290.19,-125.965 1076.5,-98 1073.48,-97.6042 1070.38,-97.1392 1067.27,-96.6232"/>
<polygon fill="midnightblue" stroke="midnightblue" points="2164.65,-150.751 2174.73,-147.473 2164.81,-143.752 2164.65,-150.751"/>
</g>
<!-- Node11 -->
<g id="node11" class="node"><title>Node11</title>
<g id="a_node11"><a xlink:href="ocl__compiler_8cpp.xhtml" target="_top" xlink:title="Define infrastructure for OpenCL JIT compilation for Gromacs. ">
<polygon fill="white" stroke="black" points="1085,-67.5 1085,-97.5 1198,-97.5 1198,-67.5 1085,-67.5"/>
<text text-anchor="start" x="1093" y="-85.5" font-family="Helvetica,sans-Serif" font-size="10.00">src/gromacs/gpu_utils</text>
<text text-anchor="middle" x="1141.5" y="-74.5" font-family="Helvetica,sans-Serif" font-size="10.00">/ocl_compiler.cpp</text>
</a>
</g>
</g>
<!-- Node1&#45;&gt;Node11 -->
<g id="edge10" class="edge"><title>Node1&#45;&gt;Node11</title>
<path fill="none" stroke="midnightblue" d="M2164.51,-148.99C2007.87,-149.552 1568.77,-146.32 1207.5,-98 1204.48,-97.5956 1201.39,-97.1238 1198.27,-96.6025"/>
<polygon fill="midnightblue" stroke="midnightblue" points="2164.87,-152.488 2174.86,-148.945 2164.84,-145.488 2164.87,-152.488"/>
</g>
<!-- Node12 -->
<g id="node12" class="node"><title>Node12</title>
<g id="a_node12"><a xlink:href="minimize_8cpp.xhtml" target="_top" xlink:title="This file defines integrators for energy minimization. ">
<polygon fill="white" stroke="black" points="1216.5,-73 1216.5,-92 1374.5,-92 1374.5,-73 1216.5,-73"/>
<text text-anchor="middle" x="1295.5" y="-80" font-family="Helvetica,sans-Serif" font-size="10.00">src/gromacs/mdlib/minimize.cpp</text>
</a>
</g>
</g>
<!-- Node1&#45;&gt;Node12 -->
<g id="edge11" class="edge"><title>Node1&#45;&gt;Node12</title>
<path fill="none" stroke="midnightblue" d="M2164.28,-147.041C2026.77,-143.195 1675.34,-130.728 1383.5,-98 1369.81,-96.4642 1355,-94.2438 1341.5,-92.0003"/>
<polygon fill="midnightblue" stroke="midnightblue" points="2164.49,-150.548 2174.59,-147.324 2164.69,-143.551 2164.49,-150.548"/>
</g>
<!-- Node13 -->
<g id="node13" class="node"><title>Node13</title>
<g id="a_node13"><a xlink:href="nbnxn__ocl_8cpp.xhtml" target="_top" xlink:title="Define OpenCL implementation of nbnxn_gpu.h. ">
<polygon fill="white" stroke="black" points="1392.5,-67.5 1392.5,-97.5 1518.5,-97.5 1518.5,-67.5 1392.5,-67.5"/>
<text text-anchor="start" x="1400.5" y="-85.5" font-family="Helvetica,sans-Serif" font-size="10.00">src/gromacs/mdlib/nbnxn</text>
<text text-anchor="middle" x="1455.5" y="-74.5" font-family="Helvetica,sans-Serif" font-size="10.00">_ocl/nbnxn_ocl.cpp</text>
</a>
</g>
</g>
<!-- Node1&#45;&gt;Node13 -->
<g id="edge12" class="edge"><title>Node1&#45;&gt;Node13</title>
<path fill="none" stroke="midnightblue" d="M2164.76,-146.681C2044.75,-142.427 1762.94,-129.678 1528.5,-98 1525.3,-97.5675 1522.03,-97.0811 1518.73,-96.5556"/>
<polygon fill="midnightblue" stroke="midnightblue" points="2164.72,-150.182 2174.84,-147.032 2164.97,-143.186 2164.72,-150.182"/>
</g>
<!-- Node14 -->
<g id="node14" class="node"><title>Node14</title>
<g id="a_node14"><a xlink:href="nbnxn__ocl__data__mgmt_8cpp.xhtml" target="_top" xlink:title="Define OpenCL implementation of nbnxn_gpu_data_mgmt.h. ">
<polygon fill="white" stroke="black" points="1537,-67.5 1537,-97.5 1692,-97.5 1692,-67.5 1537,-67.5"/>
<text text-anchor="start" x="1545" y="-85.5" font-family="Helvetica,sans-Serif" font-size="10.00">src/gromacs/mdlib/nbnxn</text>
<text text-anchor="middle" x="1614.5" y="-74.5" font-family="Helvetica,sans-Serif" font-size="10.00">_ocl/nbnxn_ocl_data_mgmt.cpp</text>
</a>
</g>
</g>
<!-- Node1&#45;&gt;Node14 -->
<g id="edge13" class="edge"><title>Node1&#45;&gt;Node14</title>
<path fill="none" stroke="midnightblue" d="M2164.62,-144.13C2067.79,-136.646 1868.94,-120.027 1701.5,-98 1698.46,-97.6006 1695.37,-97.1751 1692.25,-96.73"/>
<polygon fill="midnightblue" stroke="midnightblue" points="2164.56,-147.635 2174.8,-144.912 2165.09,-140.656 2164.56,-147.635"/>
</g>
<!-- Node15 -->
<g id="node15" class="node"><title>Node15</title>
<g id="a_node15"><a xlink:href="nbnxn__ocl__jit__support_8cpp.xhtml" target="_top" xlink:title="Defines functions that support JIT compilation (e.g. for OpenCL) ">
<polygon fill="white" stroke="black" points="1710,-67.5 1710,-97.5 1861,-97.5 1861,-67.5 1710,-67.5"/>
<text text-anchor="start" x="1718" y="-85.5" font-family="Helvetica,sans-Serif" font-size="10.00">src/gromacs/mdlib/nbnxn</text>
<text text-anchor="middle" x="1785.5" y="-74.5" font-family="Helvetica,sans-Serif" font-size="10.00">_ocl/nbnxn_ocl_jit_support.cpp</text>
</a>
</g>
</g>
<!-- Node1&#45;&gt;Node15 -->
<g id="edge14" class="edge"><title>Node1&#45;&gt;Node15</title>
<path fill="none" stroke="midnightblue" d="M2164.94,-140.613C2094.85,-131.06 1973.97,-114.224 1870.5,-98 1867.39,-97.513 1864.23,-97.0084 1861.03,-96.4922"/>
<polygon fill="midnightblue" stroke="midnightblue" points="2164.52,-144.088 2174.9,-141.968 2165.47,-137.152 2164.52,-144.088"/>
</g>
<!-- Node16 -->
<g id="node16" class="node"><title>Node16</title>
<g id="a_node16"><a xlink:href="nbnxn__tuning_8cpp.xhtml" target="_top" xlink:title="Implements functions for tuning adjustable parameters for the nbnxn non&#45;bonded search and interaction...">
<polygon fill="white" stroke="black" points="1879.5,-67.5 1879.5,-97.5 2005.5,-97.5 2005.5,-67.5 1879.5,-67.5"/>
<text text-anchor="start" x="1887.5" y="-85.5" font-family="Helvetica,sans-Serif" font-size="10.00">src/gromacs/mdlib/nbnxn</text>
<text text-anchor="middle" x="1942.5" y="-74.5" font-family="Helvetica,sans-Serif" font-size="10.00">_tuning.cpp</text>
</a>
</g>
</g>
<!-- Node1&#45;&gt;Node16 -->
<g id="edge15" class="edge"><title>Node1&#45;&gt;Node16</title>
<path fill="none" stroke="midnightblue" d="M2165.07,-134.985C2117.72,-124.032 2051.22,-108.649 2003.26,-97.5542"/>
<polygon fill="midnightblue" stroke="midnightblue" points="2164.34,-138.408 2174.87,-137.252 2165.92,-131.588 2164.34,-138.408"/>
</g>
<!-- Node17 -->
<g id="node17" class="node"><title>Node17</title>
<g id="a_node17"><a xlink:href="tpi_8cpp.xhtml" target="_top" xlink:title="This file defines the integrator for test particle insertion. ">
<polygon fill="white" stroke="black" points="2024,-73 2024,-92 2153,-92 2153,-73 2024,-73"/>
<text text-anchor="middle" x="2088.5" y="-80" font-family="Helvetica,sans-Serif" font-size="10.00">src/gromacs/mdlib/tpi.cpp</text>
</a>
</g>
</g>
<!-- Node1&#45;&gt;Node17 -->
<g id="edge16" class="edge"><title>Node1&#45;&gt;Node17</title>
<path fill="none" stroke="midnightblue" d="M2185.01,-129.967C2159.08,-117.481 2126.09,-101.598 2106.17,-92.007"/>
<polygon fill="midnightblue" stroke="midnightblue" points="2183.68,-133.211 2194.21,-134.396 2186.72,-126.904 2183.68,-133.211"/>
</g>
<!-- Node18 -->
<g id="node18" class="node"><title>Node18</title>
<g id="a_node18"><a xlink:href="basicoptions_8cpp.xhtml" target="_top" xlink:title="Implements classes in basicoptions.h and basicoptionstorage.h. ">
<polygon fill="white" stroke="black" points="2171,-67.5 2171,-97.5 2276,-97.5 2276,-67.5 2171,-67.5"/>
<text text-anchor="start" x="2179" y="-85.5" font-family="Helvetica,sans-Serif" font-size="10.00">src/gromacs/options</text>
<text text-anchor="middle" x="2223.5" y="-74.5" font-family="Helvetica,sans-Serif" font-size="10.00">/basicoptions.cpp</text>
</a>
</g>
</g>
<!-- Node1&#45;&gt;Node18 -->
<g id="edge17" class="edge"><title>Node1&#45;&gt;Node18</title>
<path fill="none" stroke="midnightblue" d="M2223.5,-124.108C2223.5,-115.154 2223.5,-105.323 2223.5,-97.5765"/>
<polygon fill="midnightblue" stroke="midnightblue" points="2220,-124.396 2223.5,-134.396 2227,-124.396 2220,-124.396"/>
</g>
<!-- Node19 -->
<g id="node19" class="node"><title>Node19</title>
<g id="a_node19"><a xlink:href="params_8cpp.xhtml" target="_top" xlink:title="Implements functions in selparam.h. ">
<polygon fill="white" stroke="black" points="2294,-67.5 2294,-97.5 2407,-97.5 2407,-67.5 2294,-67.5"/>
<text text-anchor="start" x="2302" y="-85.5" font-family="Helvetica,sans-Serif" font-size="10.00">src/gromacs/selection</text>
<text text-anchor="middle" x="2350.5" y="-74.5" font-family="Helvetica,sans-Serif" font-size="10.00">/params.cpp</text>
</a>
</g>
</g>
<!-- Node1&#45;&gt;Node19 -->
<g id="edge18" class="edge"><title>Node1&#45;&gt;Node19</title>
<path fill="none" stroke="midnightblue" d="M2260.2,-129.714C2280.23,-119.463 2304.62,-106.983 2323,-97.5765"/>
<polygon fill="midnightblue" stroke="midnightblue" points="2258.36,-126.724 2251.06,-134.396 2261.55,-132.956 2258.36,-126.724"/>
</g>
<!-- Node20 -->
<g id="node20" class="node"><title>Node20</title>
<g id="a_node20"><a xlink:href="parsetree_8cpp.xhtml" target="_top" xlink:title="Implements functions in parsetree.h. ">
<polygon fill="white" stroke="black" points="2425,-67.5 2425,-97.5 2538,-97.5 2538,-67.5 2425,-67.5"/>
<text text-anchor="start" x="2433" y="-85.5" font-family="Helvetica,sans-Serif" font-size="10.00">src/gromacs/selection</text>
<text text-anchor="middle" x="2481.5" y="-74.5" font-family="Helvetica,sans-Serif" font-size="10.00">/parsetree.cpp</text>
</a>
</g>
</g>
<!-- Node1&#45;&gt;Node20 -->
<g id="edge19" class="edge"><title>Node1&#45;&gt;Node20</title>
<path fill="none" stroke="midnightblue" d="M2281.8,-133.813C2324.84,-122.968 2383.09,-108.294 2425.57,-97.5921"/>
<polygon fill="midnightblue" stroke="midnightblue" points="2280.87,-130.437 2272.03,-136.274 2282.58,-137.225 2280.87,-130.437"/>
</g>
<!-- Node21 -->
<g id="node21" class="node"><title>Node21</title>
<g id="a_node21"><a xlink:href="scanner__internal_8cpp.xhtml" target="_top" xlink:title="Helper functions for the selection tokenizer. ">
<polygon fill="white" stroke="black" points="2556,-67.5 2556,-97.5 2669,-97.5 2669,-67.5 2556,-67.5"/>
<text text-anchor="start" x="2564" y="-85.5" font-family="Helvetica,sans-Serif" font-size="10.00">src/gromacs/selection</text>
<text text-anchor="middle" x="2612.5" y="-74.5" font-family="Helvetica,sans-Serif" font-size="10.00">/scanner_internal.cpp</text>
</a>
</g>
</g>
<!-- Node1&#45;&gt;Node21 -->
<g id="edge20" class="edge"><title>Node1&#45;&gt;Node21</title>
<path fill="none" stroke="midnightblue" d="M2282.31,-140.503C2347.38,-131.383 2455.25,-115.46 2547.5,-98 2550.23,-97.484 2553.01,-96.9373 2555.82,-96.3701"/>
<polygon fill="midnightblue" stroke="midnightblue" points="2281.67,-137.059 2272.25,-141.907 2282.64,-143.992 2281.67,-137.059"/>
</g>
<!-- Node22 -->
<g id="node22" class="node"><title>Node22</title>
<g id="a_node22"><a xlink:href="selmethod_8cpp.xhtml" target="_top" xlink:title="Implements functions in selmethod.h. ">
<polygon fill="white" stroke="black" points="2687,-67.5 2687,-97.5 2800,-97.5 2800,-67.5 2687,-67.5"/>
<text text-anchor="start" x="2695" y="-85.5" font-family="Helvetica,sans-Serif" font-size="10.00">src/gromacs/selection</text>
<text text-anchor="middle" x="2743.5" y="-74.5" font-family="Helvetica,sans-Serif" font-size="10.00">/selmethod.cpp</text>
</a>
</g>
</g>
<!-- Node1&#45;&gt;Node22 -->
<g id="edge21" class="edge"><title>Node1&#45;&gt;Node22</title>
<path fill="none" stroke="midnightblue" d="M2282.43,-144.024C2369.44,-136.949 2537.24,-121.522 2678.5,-98 2681.24,-97.5442 2684.03,-97.0464 2686.85,-96.5185"/>
<polygon fill="midnightblue" stroke="midnightblue" points="2281.91,-140.555 2272.22,-144.846 2282.47,-147.532 2281.91,-140.555"/>
</g>
<!-- Node23 -->
<g id="node23" class="node"><title>Node23</title>
<g id="a_node23"><a xlink:href="sm__keywords_8cpp.xhtml" target="_top" xlink:title="Implements internal selection methods for numeric and string keyword evaluation. ">
<polygon fill="white" stroke="black" points="2818,-67.5 2818,-97.5 2931,-97.5 2931,-67.5 2818,-67.5"/>
<text text-anchor="start" x="2826" y="-85.5" font-family="Helvetica,sans-Serif" font-size="10.00">src/gromacs/selection</text>
<text text-anchor="middle" x="2874.5" y="-74.5" font-family="Helvetica,sans-Serif" font-size="10.00">/sm_keywords.cpp</text>
</a>
</g>
</g>
<!-- Node1&#45;&gt;Node23 -->
<g id="edge22" class="edge"><title>Node1&#45;&gt;Node23</title>
<path fill="none" stroke="midnightblue" d="M2282.56,-146.021C2388.6,-140.992 2618.06,-127.467 2809.5,-98 2812.24,-97.5779 2815.04,-97.1074 2817.86,-96.6015"/>
<polygon fill="midnightblue" stroke="midnightblue" points="2282.21,-142.534 2272.38,-146.496 2282.53,-149.526 2282.21,-142.534"/>
</g>
<!-- Node24 -->
<g id="node24" class="node"><title>Node24</title>
<g id="a_node24"><a xlink:href="sm__position_8cpp.xhtml" target="_top" xlink:title="Implements position evaluation selection methods. ">
<polygon fill="white" stroke="black" points="2949,-67.5 2949,-97.5 3062,-97.5 3062,-67.5 2949,-67.5"/>
<text text-anchor="start" x="2957" y="-85.5" font-family="Helvetica,sans-Serif" font-size="10.00">src/gromacs/selection</text>
<text text-anchor="middle" x="3005.5" y="-74.5" font-family="Helvetica,sans-Serif" font-size="10.00">/sm_position.cpp</text>
</a>
</g>
</g>
<!-- Node1&#45;&gt;Node24 -->
<g id="edge23" class="edge"><title>Node1&#45;&gt;Node24</title>
<path fill="none" stroke="midnightblue" d="M2282.33,-147.323C2405.21,-144.214 2697.83,-133.41 2940.5,-98 2943.25,-97.5993 2946.05,-97.1463 2948.87,-96.6544"/>
<polygon fill="midnightblue" stroke="midnightblue" points="2281.93,-143.832 2272.02,-147.576 2282.11,-150.829 2281.93,-143.832"/>
</g>
<!-- Node25 -->
<g id="node25" class="node"><title>Node25</title>
<g id="a_node25"><a xlink:href="toputils_8cpp.xhtml" target="_top" xlink:title="Implements test helper routines from toputils.h. ">
<polygon fill="white" stroke="black" points="3080,-67.5 3080,-97.5 3193,-97.5 3193,-67.5 3080,-67.5"/>
<text text-anchor="start" x="3088" y="-85.5" font-family="Helvetica,sans-Serif" font-size="10.00">src/gromacs/selection</text>
<text text-anchor="middle" x="3136.5" y="-74.5" font-family="Helvetica,sans-Serif" font-size="10.00">/tests/toputils.cpp</text>
</a>
</g>
</g>
<!-- Node1&#45;&gt;Node25 -->
<g id="edge24" class="edge"><title>Node1&#45;&gt;Node25</title>
<path fill="none" stroke="midnightblue" d="M2282.42,-148.226C2420.82,-146.879 2777.21,-139.317 3071.5,-98 3074.25,-97.6142 3077.05,-97.1733 3079.88,-96.691"/>
<polygon fill="midnightblue" stroke="midnightblue" points="2282.02,-144.729 2272.05,-148.319 2282.08,-151.729 2282.02,-144.729"/>
</g>
<!-- Node26 -->
<g id="node26" class="node"><title>Node26</title>
<g id="a_node26"><a xlink:href="gromacs_2swap_2swapcoords_8cpp.xhtml" target="_top" xlink:title="Implements functions in swapcoords.h. ">
<polygon fill="white" stroke="black" points="3211,-73 3211,-92 3382,-92 3382,-73 3211,-73"/>
<text text-anchor="middle" x="3296.5" y="-80" font-family="Helvetica,sans-Serif" font-size="10.00">src/gromacs/swap/swapcoords.cpp</text>
</a>
</g>
</g>
<!-- Node1&#45;&gt;Node26 -->
<g id="edge25" class="edge"><title>Node1&#45;&gt;Node26</title>
<path fill="none" stroke="midnightblue" d="M2282.08,-147.55C2434.27,-144.635 2854.54,-133.719 3202.5,-98 3217.12,-96.4993 3232.93,-94.2895 3247.35,-92.0451"/>
<polygon fill="midnightblue" stroke="midnightblue" points="2281.95,-144.052 2272.02,-147.739 2282.08,-151.051 2281.95,-144.052"/>
</g>
<!-- Node27 -->
<g id="node27" class="node"><title>Node27</title>
<g id="a_node27"><a xlink:href="reportgpuusage_8cpp.xhtml" target="_top" xlink:title="Defines routine for reporting GPU usage. ">
<polygon fill="white" stroke="black" points="3400,-67.5 3400,-97.5 3543,-97.5 3543,-67.5 3400,-67.5"/>
<text text-anchor="start" x="3408" y="-85.5" font-family="Helvetica,sans-Serif" font-size="10.00">src/gromacs/taskassignment</text>
<text text-anchor="middle" x="3471.5" y="-74.5" font-family="Helvetica,sans-Serif" font-size="10.00">/reportgpuusage.cpp</text>
</a>
</g>
</g>
<!-- Node1&#45;&gt;Node27 -->
<g id="edge26" class="edge"><title>Node1&#45;&gt;Node27</title>
<path fill="none" stroke="midnightblue" d="M2282.15,-148.778C2453.5,-148.987 2967.98,-145.314 3391.5,-98 3394.17,-97.7022 3396.88,-97.3688 3399.61,-97.0066"/>
<polygon fill="midnightblue" stroke="midnightblue" points="2282.09,-145.278 2272.08,-148.761 2282.07,-152.278 2282.09,-145.278"/>
</g>
<!-- Node28 -->
<g id="node28" class="node"><title>Node28</title>
<g id="a_node28"><a xlink:href="taskassignment_8cpp.xhtml" target="_top" xlink:title="Defines helper and factory functionality for task assignment. ">
<polygon fill="white" stroke="black" points="3561,-67.5 3561,-97.5 3704,-97.5 3704,-67.5 3561,-67.5"/>
<text text-anchor="start" x="3569" y="-85.5" font-family="Helvetica,sans-Serif" font-size="10.00">src/gromacs/taskassignment</text>
<text text-anchor="middle" x="3632.5" y="-74.5" font-family="Helvetica,sans-Serif" font-size="10.00">/taskassignment.cpp</text>
</a>
</g>
</g>
<!-- Node1&#45;&gt;Node28 -->
<g id="edge27" class="edge"><title>Node1&#45;&gt;Node28</title>
<path fill="none" stroke="midnightblue" d="M2282.56,-147.367C2506.19,-142.905 3300.99,-125.432 3552.5,-98 3555.17,-97.7092 3557.88,-97.3817 3560.61,-97.0246"/>
<polygon fill="midnightblue" stroke="midnightblue" points="2282.28,-143.872 2272.35,-147.57 2282.42,-150.871 2282.28,-143.872"/>
</g>
<!-- Node29 -->
<g id="node29" class="node"><title>Node29</title>
<g id="a_node29"><a xlink:href="runnercommon_8cpp.xhtml" target="_top" xlink:title="Implements gmx::TrajectoryAnalysisRunnerCommon. ">
<polygon fill="white" stroke="black" points="3722.5,-67.5 3722.5,-97.5 3872.5,-97.5 3872.5,-67.5 3722.5,-67.5"/>
<text text-anchor="start" x="3730.5" y="-85.5" font-family="Helvetica,sans-Serif" font-size="10.00">src/gromacs/trajectoryanalysis</text>
<text text-anchor="middle" x="3797.5" y="-74.5" font-family="Helvetica,sans-Serif" font-size="10.00">/runnercommon.cpp</text>
</a>
</g>
</g>
<!-- Node1&#45;&gt;Node29 -->
<g id="edge28" class="edge"><title>Node1&#45;&gt;Node29</title>
<path fill="none" stroke="midnightblue" d="M2282.39,-147.584C2522.54,-143.68 3428.56,-127.282 3713.5,-98 3716.44,-97.6974 3719.44,-97.3536 3722.46,-96.9769"/>
<polygon fill="midnightblue" stroke="midnightblue" points="2282.07,-144.088 2272.13,-147.749 2282.18,-151.087 2282.07,-144.088"/>
</g>
<!-- Node30 -->
<g id="node30" class="node"><title>Node30</title>
<g id="a_node30"><a xlink:href="gmxomp_8cpp.xhtml" target="_top" xlink:title="Implements functions from gmxomp.h. ">
<polygon fill="white" stroke="black" points="3890,-67.5 3890,-97.5 3987,-97.5 3987,-67.5 3890,-67.5"/>
<text text-anchor="start" x="3898" y="-85.5" font-family="Helvetica,sans-Serif" font-size="10.00">src/gromacs/utility</text>
<text text-anchor="middle" x="3938.5" y="-74.5" font-family="Helvetica,sans-Serif" font-size="10.00">/gmxomp.cpp</text>
</a>
</g>
</g>
<!-- Node1&#45;&gt;Node30 -->
<g id="edge29" class="edge"><title>Node1&#45;&gt;Node30</title>
<path fill="none" stroke="midnightblue" d="M2282.23,-148.431C2538.86,-147.866 3563.13,-142.792 3881.5,-98 3884.23,-97.6159 3887.02,-97.1515 3889.82,-96.6281"/>
<polygon fill="midnightblue" stroke="midnightblue" points="2282,-144.932 2272,-148.452 2282.01,-151.931 2282,-144.932"/>
</g>
<!-- Node31 -->
<g id="node31" class="node"><title>Node31</title>
<g id="a_node31"><a xlink:href="strconvert_8cpp.xhtml" target="_top" xlink:title="Implements functions in strconvert.h. ">
<polygon fill="white" stroke="black" points="4005,-67.5 4005,-97.5 4102,-97.5 4102,-67.5 4005,-67.5"/>
<text text-anchor="start" x="4013" y="-85.5" font-family="Helvetica,sans-Serif" font-size="10.00">src/gromacs/utility</text>
<text text-anchor="middle" x="4053.5" y="-74.5" font-family="Helvetica,sans-Serif" font-size="10.00">/strconvert.cpp</text>
</a>
</g>
</g>
<!-- Node1&#45;&gt;Node31 -->
<g id="edge30" class="edge"><title>Node1&#45;&gt;Node31</title>
<path fill="none" stroke="midnightblue" d="M2282.31,-148.566C2549.94,-148.602 3654.35,-145.794 3996.5,-98 3999.23,-97.6186 4002.02,-97.1563 4004.82,-96.6345"/>
<polygon fill="midnightblue" stroke="midnightblue" points="2282.04,-145.067 2272.04,-148.564 2282.04,-152.067 2282.04,-145.067"/>
</g>
<!-- Node32 -->
<g id="node32" class="node"><title>Node32</title>
<g id="a_node32"><a xlink:href="runner_8cpp.xhtml" target="_top" xlink:title="Implements the MD runner routine calling all integrators. ">
<polygon fill="white" stroke="black" points="4120.5,-67.5 4120.5,-97.5 4224.5,-97.5 4224.5,-67.5 4120.5,-67.5"/>
<text text-anchor="start" x="4128.5" y="-85.5" font-family="Helvetica,sans-Serif" font-size="10.00">src/programs/mdrun</text>
<text text-anchor="middle" x="4172.5" y="-74.5" font-family="Helvetica,sans-Serif" font-size="10.00">/runner.cpp</text>
</a>
</g>
</g>
<!-- Node1&#45;&gt;Node32 -->
<g id="edge31" class="edge"><title>Node1&#45;&gt;Node32</title>
<path fill="none" stroke="midnightblue" d="M2282.45,-148.562C2560.78,-148.605 3745.16,-145.916 4111.5,-98 4114.41,-97.6188 4117.39,-97.1568 4120.39,-96.6351"/>
<polygon fill="midnightblue" stroke="midnightblue" points="2282.17,-145.062 2272.16,-148.559 2282.16,-152.062 2282.17,-145.062"/>
</g>
<!-- Node33 -->
<g id="node33" class="node"><title>Node33</title>
<g id="a_node33"><a xlink:href="pmetest_8cpp.xhtml" target="_top" xlink:title="This implements basic PME sanity tests. It runs the input system with PME for several steps (on CPU a...">
<polygon fill="white" stroke="black" points="4242.5,-67.5 4242.5,-97.5 4346.5,-97.5 4346.5,-67.5 4242.5,-67.5"/>
<text text-anchor="start" x="4250.5" y="-85.5" font-family="Helvetica,sans-Serif" font-size="10.00">src/programs/mdrun</text>
<text text-anchor="middle" x="4294.5" y="-74.5" font-family="Helvetica,sans-Serif" font-size="10.00">/tests/pmetest.cpp</text>
</a>
</g>
</g>
<!-- Node1&#45;&gt;Node33 -->
<g id="edge32" class="edge"><title>Node1&#45;&gt;Node33</title>
<path fill="none" stroke="midnightblue" d="M2282.46,-148.674C2571.63,-149.274 3841.77,-148.913 4233.5,-98 4236.41,-97.6212 4239.39,-97.161 4242.39,-96.6408"/>
<polygon fill="midnightblue" stroke="midnightblue" points="2282.2,-145.173 2272.19,-148.651 2282.19,-152.173 2282.2,-145.173"/>
</g>
<!-- Node3 -->
<g id="node3" class="node"><title>Node3</title>
<g id="a_node3"><a xlink:href="tests_2electricfield_8cpp.xhtml" target="_top" xlink:title="Tests for functionality of the &quot;angle&quot; trajectory analysis module. ">
<polygon fill="white" stroke="black" points="0,-0.5 0,-30.5 143,-30.5 143,-0.5 0,-0.5"/>
<text text-anchor="start" x="8" y="-18.5" font-family="Helvetica,sans-Serif" font-size="10.00">src/gromacs/applied</text>
<text text-anchor="middle" x="71.5" y="-7.5" font-family="Helvetica,sans-Serif" font-size="10.00">&#45;forces/tests/electricfield.cpp</text>
</a>
</g>
</g>
<!-- Node2&#45;&gt;Node3 -->
<g id="edge2" class="edge"><title>Node2&#45;&gt;Node3</title>
<path fill="none" stroke="midnightblue" d="M71.5,-57.1081C71.5,-48.1539 71.5,-38.3227 71.5,-30.5765"/>
<polygon fill="midnightblue" stroke="midnightblue" points="68.0001,-57.3959 71.5,-67.396 75.0001,-57.396 68.0001,-57.3959"/>
</g>
</g>
</svg>
