<?xml version="1.0" encoding="UTF-8" standalone="no"?>
<!DOCTYPE svg PUBLIC "-//W3C//DTD SVG 1.1//EN"
 "http://www.w3.org/Graphics/SVG/1.1/DTD/svg11.dtd">
<!-- Generated by graphviz version 2.38.0 (20140413.2041)
 -->
<!-- Title: src/gromacs/analysisdata/dataproxy.cpp Pages: 1 -->
<svg width="866pt" height="352pt"
 viewBox="0.00 0.00 865.50 352.00" xmlns="http://www.w3.org/2000/svg" xmlns:xlink="http://www.w3.org/1999/xlink">
<g id="graph0" class="graph" transform="scale(1 1) rotate(0) translate(4 348)">
<title>src/gromacs/analysisdata/dataproxy.cpp</title>
<polygon fill="white" stroke="none" points="-4,4 -4,-348 861.5,-348 861.5,4 -4,4"/>
<!-- Node1 -->
<g id="node1" class="node"><title>Node1</title>
<polygon fill="#bfbfbf" stroke="black" points="422.5,-313.5 422.5,-343.5 550.5,-343.5 550.5,-313.5 422.5,-313.5"/>
<text text-anchor="start" x="430.5" y="-331.5" font-family="Helvetica,sans-Serif" font-size="10.00">src/gromacs/analysisdata</text>
<text text-anchor="middle" x="486.5" y="-320.5" font-family="Helvetica,sans-Serif" font-size="10.00">/dataproxy.cpp</text>
</g>
<!-- Node2 -->
<g id="node2" class="node"><title>Node2</title>
<g id="a_node2"><a xlink:href="gmxpre_8h.xhtml" target="_top" xlink:title="Prerequisite header file for GROMACS build. ">
<polygon fill="white" stroke="black" points="226,-252 226,-271 283,-271 283,-252 226,-252"/>
<text text-anchor="middle" x="254.5" y="-259" font-family="Helvetica,sans-Serif" font-size="10.00">gmxpre.h</text>
</a>
</g>
</g>
<!-- Node1&#45;&gt;Node2 -->
<g id="edge1" class="edge"><title>Node1&#45;&gt;Node2</title>
<path fill="none" stroke="midnightblue" d="M425.713,-313.495C387.228,-304.182 336.587,-291.103 292.5,-277 290.087,-276.228 287.604,-275.388 285.119,-274.514"/>
<polygon fill="midnightblue" stroke="midnightblue" points="286.252,-271.201 275.658,-271.045 283.842,-277.773 286.252,-271.201"/>
</g>
<!-- Node3 -->
<g id="node3" class="node"><title>Node3</title>
<g id="a_node3"><a xlink:href="dataproxy_8h.xhtml" target="_top" xlink:title="Declares gmx::AnalysisDataProxy. ">
<polygon fill="white" stroke="black" points="536.5,-252 536.5,-271 604.5,-271 604.5,-252 536.5,-252"/>
<text text-anchor="middle" x="570.5" y="-259" font-family="Helvetica,sans-Serif" font-size="10.00">dataproxy.h</text>
</a>
</g>
</g>
<!-- Node1&#45;&gt;Node3 -->
<g id="edge2" class="edge"><title>Node1&#45;&gt;Node3</title>
<path fill="none" stroke="midnightblue" d="M504.727,-313.396C518.473,-302.759 537.284,-288.203 551.269,-277.381"/>
<polygon fill="midnightblue" stroke="midnightblue" points="553.497,-280.082 559.264,-271.195 549.213,-274.546 553.497,-280.082"/>
</g>
<!-- Node8 -->
<g id="node8" class="node"><title>Node8</title>
<g id="a_node8"><a xlink:href="dataframe_8h.xhtml" target="_top" xlink:title="Declares classes for accessing data frame information. ">
<polygon fill="white" stroke="black" points="301.5,-246.5 301.5,-276.5 413.5,-276.5 413.5,-246.5 301.5,-246.5"/>
<text text-anchor="start" x="309.5" y="-264.5" font-family="Helvetica,sans-Serif" font-size="10.00">gromacs/analysisdata</text>
<text text-anchor="middle" x="357.5" y="-253.5" font-family="Helvetica,sans-Serif" font-size="10.00">/dataframe.h</text>
</a>
</g>
</g>
<!-- Node1&#45;&gt;Node8 -->
<g id="edge8" class="edge"><title>Node1&#45;&gt;Node8</title>
<path fill="none" stroke="midnightblue" d="M458.509,-313.396C439.745,-303.941 414.835,-291.39 394.447,-281.117"/>
<polygon fill="midnightblue" stroke="midnightblue" points="395.942,-277.951 385.436,-276.577 392.792,-284.202 395.942,-277.951"/>
</g>
<!-- Node16 -->
<g id="node16" class="node"><title>Node16</title>
<g id="a_node16"><a xlink:href="gmxassert_8h.xhtml" target="_top" xlink:title="Defines assert macros customized for Gromacs. ">
<polygon fill="white" stroke="black" points="484,-123.5 484,-142.5 621,-142.5 621,-123.5 484,-123.5"/>
<text text-anchor="middle" x="552.5" y="-130.5" font-family="Helvetica,sans-Serif" font-size="10.00">gromacs/utility/gmxassert.h</text>
</a>
</g>
</g>
<!-- Node1&#45;&gt;Node16 -->
<g id="edge28" class="edge"><title>Node1&#45;&gt;Node16</title>
<path fill="none" stroke="midnightblue" d="M485.281,-313.083C483.581,-285.448 482.907,-223.788 505.5,-179 511.481,-167.142 521.881,-156.686 531.379,-148.843"/>
<polygon fill="midnightblue" stroke="midnightblue" points="533.602,-151.549 539.361,-142.655 529.313,-146.017 533.602,-151.549"/>
</g>
<!-- Node23 -->
<g id="node23" class="node"><title>Node23</title>
<g id="a_node23"><a xlink:href="datamodulemanager_8h.xhtml" target="_top" xlink:title="Declares gmx::AnalysisDataModuleManager. ">
<polygon fill="white" stroke="black" points="642.5,-246.5 642.5,-276.5 758.5,-276.5 758.5,-246.5 642.5,-246.5"/>
<text text-anchor="start" x="650.5" y="-264.5" font-family="Helvetica,sans-Serif" font-size="10.00">gromacs/analysisdata</text>
<text text-anchor="middle" x="700.5" y="-253.5" font-family="Helvetica,sans-Serif" font-size="10.00">/datamodulemanager.h</text>
</a>
</g>
</g>
<!-- Node1&#45;&gt;Node23 -->
<g id="edge25" class="edge"><title>Node1&#45;&gt;Node23</title>
<path fill="none" stroke="midnightblue" d="M532.671,-313.476C565.326,-303.557 609.3,-290.201 644.043,-279.648"/>
<polygon fill="midnightblue" stroke="midnightblue" points="645.491,-282.866 654.043,-276.611 643.457,-276.168 645.491,-282.866"/>
</g>
<!-- Node4 -->
<g id="node4" class="node"><title>Node4</title>
<g id="a_node4"><a xlink:href="abstractdata_8h.xhtml" target="_top" xlink:title="Declares gmx::AbstractAnalysisData. ">
<polygon fill="white" stroke="black" points="644.5,-179.5 644.5,-209.5 756.5,-209.5 756.5,-179.5 644.5,-179.5"/>
<text text-anchor="start" x="652.5" y="-197.5" font-family="Helvetica,sans-Serif" font-size="10.00">gromacs/analysisdata</text>
<text text-anchor="middle" x="700.5" y="-186.5" font-family="Helvetica,sans-Serif" font-size="10.00">/abstractdata.h</text>
</a>
</g>
</g>
<!-- Node3&#45;&gt;Node4 -->
<g id="edge3" class="edge"><title>Node3&#45;&gt;Node4</title>
<path fill="none" stroke="midnightblue" d="M587.763,-251.869C606.871,-242.315 638.245,-226.627 663.051,-214.225"/>
<polygon fill="midnightblue" stroke="midnightblue" points="664.818,-217.254 672.197,-209.652 661.687,-210.993 664.818,-217.254"/>
</g>
<!-- Node7 -->
<g id="node7" class="node"><title>Node7</title>
<g id="a_node7"><a xlink:href="datamodule_8h.xhtml" target="_top" xlink:title="Declares gmx::IAnalysisDataModule and related convenience classes. ">
<polygon fill="white" stroke="black" points="514.5,-179.5 514.5,-209.5 626.5,-209.5 626.5,-179.5 514.5,-179.5"/>
<text text-anchor="start" x="522.5" y="-197.5" font-family="Helvetica,sans-Serif" font-size="10.00">gromacs/analysisdata</text>
<text text-anchor="middle" x="570.5" y="-186.5" font-family="Helvetica,sans-Serif" font-size="10.00">/datamodule.h</text>
</a>
</g>
</g>
<!-- Node3&#45;&gt;Node7 -->
<g id="edge7" class="edge"><title>Node3&#45;&gt;Node7</title>
<path fill="none" stroke="midnightblue" d="M570.5,-251.734C570.5,-243.541 570.5,-230.923 570.5,-219.714"/>
<polygon fill="midnightblue" stroke="midnightblue" points="574,-219.589 570.5,-209.589 567,-219.589 574,-219.589"/>
</g>
<!-- Node5 -->
<g id="node5" class="node"><title>Node5</title>
<polygon fill="white" stroke="#bfbfbf" points="707.5,-62 707.5,-81 759.5,-81 759.5,-62 707.5,-62"/>
<text text-anchor="middle" x="733.5" y="-69" font-family="Helvetica,sans-Serif" font-size="10.00">memory</text>
</g>
<!-- Node4&#45;&gt;Node5 -->
<g id="edge4" class="edge"><title>Node4&#45;&gt;Node5</title>
<path fill="none" stroke="midnightblue" d="M698.797,-179.385C697.533,-164.907 696.873,-141.894 702.5,-123 706.149,-110.746 713.562,-98.4884 720.223,-89.1182"/>
<polygon fill="midnightblue" stroke="midnightblue" points="723.028,-91.2121 726.232,-81.1136 717.43,-87.0094 723.028,-91.2121"/>
</g>
<!-- Node6 -->
<g id="node6" class="node"><title>Node6</title>
<g id="a_node6"><a xlink:href="classhelpers_8h.xhtml" target="_top" xlink:title="Declares common utility classes and macros. ">
<polygon fill="white" stroke="black" points="711.5,-123.5 711.5,-142.5 857.5,-142.5 857.5,-123.5 711.5,-123.5"/>
<text text-anchor="middle" x="784.5" y="-130.5" font-family="Helvetica,sans-Serif" font-size="10.00">gromacs/utility/classhelpers.h</text>
</a>
</g>
</g>
<!-- Node4&#45;&gt;Node6 -->
<g id="edge5" class="edge"><title>Node4&#45;&gt;Node6</title>
<path fill="none" stroke="midnightblue" d="M720.407,-179.399C733.494,-170.129 750.582,-158.025 763.822,-148.647"/>
<polygon fill="midnightblue" stroke="midnightblue" points="766.14,-151.294 772.277,-142.658 762.094,-145.582 766.14,-151.294"/>
</g>
<!-- Node6&#45;&gt;Node5 -->
<g id="edge6" class="edge"><title>Node6&#45;&gt;Node5</title>
<path fill="none" stroke="midnightblue" d="M777.193,-123.475C769.467,-114.462 757.092,-100.025 747.482,-88.8118"/>
<polygon fill="midnightblue" stroke="midnightblue" points="749.959,-86.3239 740.794,-81.0091 744.644,-90.8795 749.959,-86.3239"/>
</g>
<!-- Node9 -->
<g id="node9" class="node"><title>Node9</title>
<polygon fill="white" stroke="#bfbfbf" points="96.5,-123.5 96.5,-142.5 140.5,-142.5 140.5,-123.5 96.5,-123.5"/>
<text text-anchor="middle" x="118.5" y="-130.5" font-family="Helvetica,sans-Serif" font-size="10.00">vector</text>
</g>
<!-- Node8&#45;&gt;Node9 -->
<g id="edge9" class="edge"><title>Node8&#45;&gt;Node9</title>
<path fill="none" stroke="midnightblue" d="M336.783,-246.456C322.268,-236.498 302.502,-222.702 285.5,-210 267.762,-196.748 265.88,-189.709 246.5,-179 229.757,-169.748 182.734,-154.122 150.594,-143.934"/>
<polygon fill="midnightblue" stroke="midnightblue" points="151.329,-140.496 140.739,-140.832 149.227,-147.173 151.329,-140.496"/>
</g>
<!-- Node10 -->
<g id="node10" class="node"><title>Node10</title>
<g id="a_node10"><a xlink:href="arrayref_8h.xhtml" target="_top" xlink:title="Declares gmx::ArrayRef. ">
<polygon fill="white" stroke="black" points="295,-185 295,-204 420,-204 420,-185 295,-185"/>
<text text-anchor="middle" x="357.5" y="-192" font-family="Helvetica,sans-Serif" font-size="10.00">gromacs/utility/arrayref.h</text>
</a>
</g>
</g>
<!-- Node8&#45;&gt;Node10 -->
<g id="edge10" class="edge"><title>Node8&#45;&gt;Node10</title>
<path fill="none" stroke="midnightblue" d="M357.5,-246.396C357.5,-237.064 357.5,-224.714 357.5,-214.517"/>
<polygon fill="midnightblue" stroke="midnightblue" points="361,-214.195 357.5,-204.195 354,-214.195 361,-214.195"/>
</g>
<!-- Node8&#45;&gt;Node16 -->
<g id="edge23" class="edge"><title>Node8&#45;&gt;Node16</title>
<path fill="none" stroke="midnightblue" d="M377.275,-246.447C409.513,-223.541 470.077,-180.534 472.5,-179 490.228,-167.775 510.883,-156.192 526.764,-147.59"/>
<polygon fill="midnightblue" stroke="midnightblue" points="528.813,-150.462 535.967,-142.648 525.501,-144.295 528.813,-150.462"/>
</g>
<!-- Node21 -->
<g id="node21" class="node"><title>Node21</title>
<g id="a_node21"><a xlink:href="flags_8h.xhtml" target="_top" xlink:title="Declares gmx::FlagsTemplate. ">
<polygon fill="white" stroke="black" points="0,-185 0,-204 113,-204 113,-185 0,-185"/>
<text text-anchor="middle" x="56.5" y="-192" font-family="Helvetica,sans-Serif" font-size="10.00">gromacs/utility/flags.h</text>
</a>
</g>
</g>
<!-- Node8&#45;&gt;Node21 -->
<g id="edge22" class="edge"><title>Node8&#45;&gt;Node21</title>
<path fill="none" stroke="midnightblue" d="M301.337,-248.131C298.009,-247.407 294.711,-246.693 291.5,-246 216.006,-229.714 196.968,-226.408 121.5,-210 115.854,-208.773 109.936,-207.472 104.067,-206.173"/>
<polygon fill="midnightblue" stroke="midnightblue" points="104.814,-202.754 94.2928,-204.003 103.296,-209.587 104.814,-202.754"/>
</g>
<!-- Node22 -->
<g id="node22" class="node"><title>Node22</title>
<g id="a_node22"><a xlink:href="real_8h.xhtml" target="_top" xlink:title="Declares real and related constants. ">
<polygon fill="white" stroke="black" points="131,-185 131,-204 238,-204 238,-185 131,-185"/>
<text text-anchor="middle" x="184.5" y="-192" font-family="Helvetica,sans-Serif" font-size="10.00">gromacs/utility/real.h</text>
</a>
</g>
</g>
<!-- Node8&#45;&gt;Node22 -->
<g id="edge24" class="edge"><title>Node8&#45;&gt;Node22</title>
<path fill="none" stroke="midnightblue" d="M319.962,-246.396C289.204,-234.84 246.131,-218.656 216.872,-207.663"/>
<polygon fill="midnightblue" stroke="midnightblue" points="217.734,-204.248 207.142,-204.007 215.272,-210.801 217.734,-204.248"/>
</g>
<!-- Node10&#45;&gt;Node9 -->
<g id="edge16" class="edge"><title>Node10&#45;&gt;Node9</title>
<path fill="none" stroke="midnightblue" d="M320.176,-184.965C280.486,-175.772 215.65,-160.424 150.802,-143.264"/>
<polygon fill="midnightblue" stroke="midnightblue" points="151.382,-139.797 140.818,-140.608 149.582,-146.561 151.382,-139.797"/>
</g>
<!-- Node11 -->
<g id="node11" class="node"><title>Node11</title>
<polygon fill="white" stroke="#bfbfbf" points="360,-123.5 360,-142.5 409,-142.5 409,-123.5 360,-123.5"/>
<text text-anchor="middle" x="384.5" y="-130.5" font-family="Helvetica,sans-Serif" font-size="10.00">cstddef</text>
</g>
<!-- Node10&#45;&gt;Node11 -->
<g id="edge11" class="edge"><title>Node10&#45;&gt;Node11</title>
<path fill="none" stroke="midnightblue" d="M361.368,-184.975C365.298,-176.315 371.5,-162.649 376.493,-151.645"/>
<polygon fill="midnightblue" stroke="midnightblue" points="379.694,-153.062 380.639,-142.509 373.319,-150.169 379.694,-153.062"/>
</g>
<!-- Node12 -->
<g id="node12" class="node"><title>Node12</title>
<polygon fill="white" stroke="#bfbfbf" points="427.5,-123.5 427.5,-142.5 465.5,-142.5 465.5,-123.5 427.5,-123.5"/>
<text text-anchor="middle" x="446.5" y="-130.5" font-family="Helvetica,sans-Serif" font-size="10.00">array</text>
</g>
<!-- Node10&#45;&gt;Node12 -->
<g id="edge12" class="edge"><title>Node10&#45;&gt;Node12</title>
<path fill="none" stroke="midnightblue" d="M370.252,-184.975C384.527,-175.431 407.897,-159.807 425.008,-148.368"/>
<polygon fill="midnightblue" stroke="midnightblue" points="427.404,-150.977 433.772,-142.509 423.514,-145.157 427.404,-150.977"/>
</g>
<!-- Node13 -->
<g id="node13" class="node"><title>Node13</title>
<polygon fill="white" stroke="#bfbfbf" points="159,-123.5 159,-142.5 206,-142.5 206,-123.5 159,-123.5"/>
<text text-anchor="middle" x="182.5" y="-130.5" font-family="Helvetica,sans-Serif" font-size="10.00">iterator</text>
</g>
<!-- Node10&#45;&gt;Node13 -->
<g id="edge13" class="edge"><title>Node10&#45;&gt;Node13</title>
<path fill="none" stroke="midnightblue" d="M332.427,-184.975C301.718,-174.534 249.604,-156.815 215.621,-145.261"/>
<polygon fill="midnightblue" stroke="midnightblue" points="216.72,-141.938 206.125,-142.033 214.466,-148.565 216.72,-141.938"/>
</g>
<!-- Node14 -->
<g id="node14" class="node"><title>Node14</title>
<polygon fill="white" stroke="#bfbfbf" points="224,-123.5 224,-142.5 283,-142.5 283,-123.5 224,-123.5"/>
<text text-anchor="middle" x="253.5" y="-130.5" font-family="Helvetica,sans-Serif" font-size="10.00">stdexcept</text>
</g>
<!-- Node10&#45;&gt;Node14 -->
<g id="edge14" class="edge"><title>Node10&#45;&gt;Node14</title>
<path fill="none" stroke="midnightblue" d="M342.599,-184.975C325.532,-175.211 297.339,-159.081 277.238,-147.581"/>
<polygon fill="midnightblue" stroke="midnightblue" points="278.791,-144.437 268.373,-142.509 275.315,-150.513 278.791,-144.437"/>
</g>
<!-- Node15 -->
<g id="node15" class="node"><title>Node15</title>
<polygon fill="white" stroke="#bfbfbf" points="301.5,-123.5 301.5,-142.5 341.5,-142.5 341.5,-123.5 301.5,-123.5"/>
<text text-anchor="middle" x="321.5" y="-130.5" font-family="Helvetica,sans-Serif" font-size="10.00">utility</text>
</g>
<!-- Node10&#45;&gt;Node15 -->
<g id="edge15" class="edge"><title>Node10&#45;&gt;Node15</title>
<path fill="none" stroke="midnightblue" d="M352.342,-184.975C347.049,-176.227 338.665,-162.369 331.973,-151.309"/>
<polygon fill="midnightblue" stroke="midnightblue" points="334.82,-149.253 326.648,-142.509 328.83,-152.877 334.82,-149.253"/>
</g>
<!-- Node10&#45;&gt;Node16 -->
<g id="edge17" class="edge"><title>Node10&#45;&gt;Node16</title>
<path fill="none" stroke="midnightblue" d="M385.439,-184.975C419.467,-174.592 477.084,-157.012 514.962,-145.454"/>
<polygon fill="midnightblue" stroke="midnightblue" points="516.07,-148.775 524.613,-142.509 514.027,-142.08 516.07,-148.775"/>
</g>
<!-- Node17 -->
<g id="node17" class="node"><title>Node17</title>
<g id="a_node17"><a xlink:href="basedefinitions_8h.xhtml" target="_top" xlink:title="Basic types and macros used throughout GROMACS. ">
<polygon fill="white" stroke="black" points="374,-62 374,-81 531,-81 531,-62 374,-62"/>
<text text-anchor="middle" x="452.5" y="-69" font-family="Helvetica,sans-Serif" font-size="10.00">gromacs/utility/basedefinitions.h</text>
</a>
</g>
</g>
<!-- Node16&#45;&gt;Node17 -->
<g id="edge18" class="edge"><title>Node16&#45;&gt;Node17</title>
<path fill="none" stroke="midnightblue" d="M538.172,-123.475C521.836,-113.755 494.898,-97.7266 475.588,-86.2372"/>
<polygon fill="midnightblue" stroke="midnightblue" points="477.185,-83.1146 466.801,-81.0091 473.605,-89.1303 477.185,-83.1146"/>
</g>
<!-- Node20 -->
<g id="node20" class="node"><title>Node20</title>
<g id="a_node20"><a xlink:href="current__function_8h.xhtml" target="_top" xlink:title="Declares GMX_CURRENT_FUNCTION for getting the current function name. ">
<polygon fill="white" stroke="black" points="549,-56.5 549,-86.5 662,-86.5 662,-56.5 549,-56.5"/>
<text text-anchor="start" x="557" y="-74.5" font-family="Helvetica,sans-Serif" font-size="10.00">gromacs/utility/current</text>
<text text-anchor="middle" x="605.5" y="-63.5" font-family="Helvetica,sans-Serif" font-size="10.00">_function.h</text>
</a>
</g>
</g>
<!-- Node16&#45;&gt;Node20 -->
<g id="edge21" class="edge"><title>Node16&#45;&gt;Node20</title>
<path fill="none" stroke="midnightblue" d="M560.094,-123.475C566.869,-115.869 577.086,-104.399 586.113,-94.2649"/>
<polygon fill="midnightblue" stroke="midnightblue" points="588.971,-96.3182 593.009,-86.523 583.744,-91.6622 588.971,-96.3182"/>
</g>
<!-- Node18 -->
<g id="node18" class="node"><title>Node18</title>
<polygon fill="white" stroke="#bfbfbf" points="392,-0.5 392,-19.5 441,-19.5 441,-0.5 392,-0.5"/>
<text text-anchor="middle" x="416.5" y="-7.5" font-family="Helvetica,sans-Serif" font-size="10.00">stdint.h</text>
</g>
<!-- Node17&#45;&gt;Node18 -->
<g id="edge19" class="edge"><title>Node17&#45;&gt;Node18</title>
<path fill="none" stroke="midnightblue" d="M447.342,-61.9751C442.049,-53.2268 433.665,-39.3691 426.973,-28.3093"/>
<polygon fill="midnightblue" stroke="midnightblue" points="429.82,-26.2531 421.648,-19.5091 423.83,-29.8768 429.82,-26.2531"/>
</g>
<!-- Node19 -->
<g id="node19" class="node"><title>Node19</title>
<polygon fill="white" stroke="#bfbfbf" points="459,-0.5 459,-19.5 518,-19.5 518,-0.5 459,-0.5"/>
<text text-anchor="middle" x="488.5" y="-7.5" font-family="Helvetica,sans-Serif" font-size="10.00">inttypes.h</text>
</g>
<!-- Node17&#45;&gt;Node19 -->
<g id="edge20" class="edge"><title>Node17&#45;&gt;Node19</title>
<path fill="none" stroke="midnightblue" d="M457.658,-61.9751C462.951,-53.2268 471.335,-39.3691 478.027,-28.3093"/>
<polygon fill="midnightblue" stroke="midnightblue" points="481.17,-29.8768 483.352,-19.5091 475.18,-26.2531 481.17,-29.8768"/>
</g>
<!-- Node23&#45;&gt;Node4 -->
<g id="edge26" class="edge"><title>Node23&#45;&gt;Node4</title>
<path fill="none" stroke="midnightblue" d="M700.5,-246.396C700.5,-238.645 700.5,-228.812 700.5,-219.86"/>
<polygon fill="midnightblue" stroke="midnightblue" points="704,-219.576 700.5,-209.577 697,-219.577 704,-219.576"/>
</g>
<!-- Node23&#45;&gt;Node6 -->
<g id="edge27" class="edge"><title>Node23&#45;&gt;Node6</title>
<path fill="none" stroke="midnightblue" d="M726.156,-246.328C739.768,-237.554 755.668,-225.084 765.5,-210 776.735,-192.763 781.326,-169.358 783.203,-153.094"/>
<polygon fill="midnightblue" stroke="midnightblue" points="786.728,-152.979 784.146,-142.704 779.756,-152.347 786.728,-152.979"/>
</g>
</g>
</svg>
