<?xml version="1.0" encoding="UTF-8" standalone="no"?>
<!DOCTYPE svg PUBLIC "-//W3C//DTD SVG 1.1//EN"
 "http://www.w3.org/Graphics/SVG/1.1/DTD/svg11.dtd">
<!-- Generated by graphviz version 2.38.0 (20140413.2041)
 -->
<!-- Title: src/gromacs/taskassignment/decidegpuusage.cpp Pages: 1 -->
<svg width="2157pt" height="285pt"
 viewBox="0.00 0.00 2157.19 285.00" xmlns="http://www.w3.org/2000/svg" xmlns:xlink="http://www.w3.org/1999/xlink">
<g id="graph0" class="graph" transform="scale(1 1) rotate(0) translate(4 281)">
<title>src/gromacs/taskassignment/decidegpuusage.cpp</title>
<polygon fill="white" stroke="none" points="-4,4 -4,-281 2153.19,-281 2153.19,4 -4,4"/>
<!-- Node1 -->
<g id="node1" class="node"><title>Node1</title>
<polygon fill="#bfbfbf" stroke="black" points="1147.69,-246.5 1147.69,-276.5 1290.69,-276.5 1290.69,-246.5 1147.69,-246.5"/>
<text text-anchor="start" x="1155.69" y="-264.5" font-family="Helvetica,sans-Serif" font-size="10.00">src/gromacs/taskassignment</text>
<text text-anchor="middle" x="1219.19" y="-253.5" font-family="Helvetica,sans-Serif" font-size="10.00">/decidegpuusage.cpp</text>
</g>
<!-- Node2 -->
<g id="node2" class="node"><title>Node2</title>
<g id="a_node2"><a xlink:href="gmxpre_8h.xhtml" target="_top" xlink:title="Prerequisite header file for GROMACS build. ">
<polygon fill="white" stroke="black" points="89.69,-185 89.69,-204 146.69,-204 146.69,-185 89.69,-185"/>
<text text-anchor="middle" x="118.19" y="-192" font-family="Helvetica,sans-Serif" font-size="10.00">gmxpre.h</text>
</a>
</g>
</g>
<!-- Node1&#45;&gt;Node2 -->
<g id="edge1" class="edge"><title>Node1&#45;&gt;Node2</title>
<path fill="none" stroke="midnightblue" d="M1147.61,-260.129C940.827,-258.579 345.308,-250.614 155.19,-210 152.183,-209.358 149.102,-208.5 146.064,-207.52"/>
<polygon fill="midnightblue" stroke="midnightblue" points="147.241,-204.224 136.647,-204.095 144.848,-210.803 147.241,-204.224"/>
</g>
<!-- Node3 -->
<g id="node3" class="node"><title>Node3</title>
<g id="a_node3"><a xlink:href="decidegpuusage_8h.xhtml" target="_top" xlink:title="Declares functionality for deciding whether tasks will run on GPUs. ">
<polygon fill="white" stroke="black" points="509.69,-185 509.69,-204 604.69,-204 604.69,-185 509.69,-185"/>
<text text-anchor="middle" x="557.19" y="-192" font-family="Helvetica,sans-Serif" font-size="10.00">decidegpuusage.h</text>
</a>
</g>
</g>
<!-- Node1&#45;&gt;Node3 -->
<g id="edge2" class="edge"><title>Node1&#45;&gt;Node3</title>
<path fill="none" stroke="midnightblue" d="M1147.46,-258.359C1033.7,-254.102 805.194,-242.039 614.19,-210 608.588,-209.06 602.73,-207.845 596.991,-206.517"/>
<polygon fill="midnightblue" stroke="midnightblue" points="597.415,-203.018 586.87,-204.042 595.752,-209.817 597.415,-203.018"/>
</g>
<!-- Node5 -->
<g id="node5" class="node"><title>Node5</title>
<polygon fill="white" stroke="#bfbfbf" points="1727.69,-185 1727.69,-204 1778.69,-204 1778.69,-185 1727.69,-185"/>
<text text-anchor="middle" x="1753.19" y="-192" font-family="Helvetica,sans-Serif" font-size="10.00">config.h</text>
</g>
<!-- Node1&#45;&gt;Node5 -->
<g id="edge4" class="edge"><title>Node1&#45;&gt;Node5</title>
<path fill="none" stroke="midnightblue" d="M1290.97,-259.767C1388.94,-257.298 1569.37,-247.494 1718.19,-210 1720.7,-209.367 1723.27,-208.586 1725.81,-207.717"/>
<polygon fill="midnightblue" stroke="midnightblue" points="1727.28,-210.904 1735.37,-204.059 1724.78,-204.367 1727.28,-210.904"/>
</g>
<!-- Node6 -->
<g id="node6" class="node"><title>Node6</title>
<polygon fill="white" stroke="#bfbfbf" points="1797.19,-185 1797.19,-204 1845.19,-204 1845.19,-185 1797.19,-185"/>
<text text-anchor="middle" x="1821.19" y="-192" font-family="Helvetica,sans-Serif" font-size="10.00">stdlib.h</text>
</g>
<!-- Node1&#45;&gt;Node6 -->
<g id="edge5" class="edge"><title>Node1&#45;&gt;Node6</title>
<path fill="none" stroke="midnightblue" d="M1290.81,-257.048C1422.02,-250.242 1695.97,-233.671 1788.19,-210 1790.49,-209.409 1792.84,-208.675 1795.16,-207.852"/>
<polygon fill="midnightblue" stroke="midnightblue" points="1796.47,-211.098 1804.44,-204.117 1793.86,-204.605 1796.47,-211.098"/>
</g>
<!-- Node7 -->
<g id="node7" class="node"><title>Node7</title>
<polygon fill="white" stroke="#bfbfbf" points="1863.69,-185 1863.69,-204 1912.69,-204 1912.69,-185 1863.69,-185"/>
<text text-anchor="middle" x="1888.19" y="-192" font-family="Helvetica,sans-Serif" font-size="10.00">string.h</text>
</g>
<!-- Node1&#45;&gt;Node7 -->
<g id="edge6" class="edge"><title>Node1&#45;&gt;Node7</title>
<path fill="none" stroke="midnightblue" d="M1290.96,-257.711C1433.84,-251.679 1749.15,-235.843 1854.19,-210 1856.56,-209.418 1858.97,-208.69 1861.36,-207.871"/>
<polygon fill="midnightblue" stroke="midnightblue" points="1862.87,-211.038 1870.92,-204.143 1860.33,-204.517 1862.87,-211.038"/>
</g>
<!-- Node8 -->
<g id="node8" class="node"><title>Node8</title>
<polygon fill="white" stroke="#bfbfbf" points="1931.19,-185 1931.19,-204 1987.19,-204 1987.19,-185 1931.19,-185"/>
<text text-anchor="middle" x="1959.19" y="-192" font-family="Helvetica,sans-Serif" font-size="10.00">algorithm</text>
</g>
<!-- Node1&#45;&gt;Node8 -->
<g id="edge7" class="edge"><title>Node1&#45;&gt;Node8</title>
<path fill="none" stroke="midnightblue" d="M1290.85,-258.091C1444.96,-252.465 1803.52,-236.862 1922.19,-210 1925.19,-209.321 1928.26,-208.439 1931.3,-207.446"/>
<polygon fill="midnightblue" stroke="midnightblue" points="1932.52,-210.725 1940.71,-204.003 1930.12,-204.151 1932.52,-210.725"/>
</g>
<!-- Node9 -->
<g id="node9" class="node"><title>Node9</title>
<polygon fill="white" stroke="#bfbfbf" points="1155.69,-123.5 1155.69,-142.5 1196.69,-142.5 1196.69,-123.5 1155.69,-123.5"/>
<text text-anchor="middle" x="1176.19" y="-130.5" font-family="Helvetica,sans-Serif" font-size="10.00">string</text>
</g>
<!-- Node1&#45;&gt;Node9 -->
<g id="edge8" class="edge"><title>Node1&#45;&gt;Node9</title>
<path fill="none" stroke="midnightblue" d="M1229.99,-246.293C1241.34,-229.493 1256.03,-201.032 1244.19,-179 1236.05,-163.861 1220.34,-152.96 1206.07,-145.683"/>
<polygon fill="midnightblue" stroke="midnightblue" points="1207.53,-142.502 1196.99,-141.415 1204.55,-148.837 1207.53,-142.502"/>
</g>
<!-- Node10 -->
<g id="node10" class="node"><title>Node10</title>
<g id="a_node10"><a xlink:href="cpuinfo_8h.xhtml" target="_top" xlink:title="Declares gmx::CpuInfo. ">
<polygon fill="white" stroke="black" points="1291.19,-185 1291.19,-204 1431.19,-204 1431.19,-185 1291.19,-185"/>
<text text-anchor="middle" x="1361.19" y="-192" font-family="Helvetica,sans-Serif" font-size="10.00">gromacs/hardware/cpuinfo.h</text>
</a>
</g>
</g>
<!-- Node1&#45;&gt;Node10 -->
<g id="edge9" class="edge"><title>Node1&#45;&gt;Node10</title>
<path fill="none" stroke="midnightblue" d="M1250,-246.396C1274.81,-235.041 1309.37,-219.22 1333.35,-208.244"/>
<polygon fill="midnightblue" stroke="midnightblue" points="1334.97,-211.352 1342.61,-204.007 1332.06,-204.987 1334.97,-211.352"/>
</g>
<!-- Node13 -->
<g id="node13" class="node"><title>Node13</title>
<g id="a_node13"><a xlink:href="hardwaretopology_8h.xhtml" target="_top" xlink:title="Declares gmx::HardwareTopology. ">
<polygon fill="white" stroke="black" points="767.69,-185 767.69,-204 952.69,-204 952.69,-185 767.69,-185"/>
<text text-anchor="middle" x="860.19" y="-192" font-family="Helvetica,sans-Serif" font-size="10.00">gromacs/hardware/hardwaretopology.h</text>
</a>
</g>
</g>
<!-- Node1&#45;&gt;Node13 -->
<g id="edge14" class="edge"><title>Node1&#45;&gt;Node13</title>
<path fill="none" stroke="midnightblue" d="M1147.4,-247.503C1079.76,-235.255 979.723,-217.142 917.33,-205.846"/>
<polygon fill="midnightblue" stroke="midnightblue" points="917.735,-202.362 907.271,-204.024 916.488,-209.25 917.735,-202.362"/>
</g>
<!-- Node15 -->
<g id="node15" class="node"><title>Node15</title>
<g id="a_node15"><a xlink:href="nb__verlet_8h.xhtml" target="_top" xlink:title="This file contains the public interface of the non&#45;bonded Verlet module that implements the NxN clust...">
<polygon fill="white" stroke="black" points="164.69,-185 164.69,-204 295.69,-204 295.69,-185 164.69,-185"/>
<text text-anchor="middle" x="230.19" y="-192" font-family="Helvetica,sans-Serif" font-size="10.00">gromacs/mdlib/nb_verlet.h</text>
</a>
</g>
</g>
<!-- Node1&#45;&gt;Node15 -->
<g id="edge17" class="edge"><title>Node1&#45;&gt;Node15</title>
<path fill="none" stroke="midnightblue" d="M1147.41,-259.909C992.71,-257.897 616.572,-249.035 304.19,-210 295.787,-208.95 286.905,-207.505 278.324,-205.931"/>
<polygon fill="midnightblue" stroke="midnightblue" points="278.914,-202.481 268.435,-204.041 277.6,-209.356 278.914,-202.481"/>
</g>
<!-- Node17 -->
<g id="node17" class="node"><title>Node17</title>
<g id="a_node17"><a xlink:href="md__enums_8h.xhtml" target="_top" xlink:title="Declares enumerated types used throughout the code. ">
<polygon fill="white" stroke="black" points="1449.69,-179.5 1449.69,-209.5 1560.69,-209.5 1560.69,-179.5 1449.69,-179.5"/>
<text text-anchor="start" x="1457.69" y="-197.5" font-family="Helvetica,sans-Serif" font-size="10.00">gromacs/mdtypes/md</text>
<text text-anchor="middle" x="1505.19" y="-186.5" font-family="Helvetica,sans-Serif" font-size="10.00">_enums.h</text>
</a>
</g>
</g>
<!-- Node1&#45;&gt;Node17 -->
<g id="edge19" class="edge"><title>Node1&#45;&gt;Node17</title>
<path fill="none" stroke="midnightblue" d="M1280.9,-246.476C1327.65,-235.849 1391.78,-221.276 1439.49,-210.432"/>
<polygon fill="midnightblue" stroke="midnightblue" points="1440.43,-213.807 1449.41,-208.178 1438.88,-206.981 1440.43,-213.807"/>
</g>
<!-- Node21 -->
<g id="node21" class="node"><title>Node21</title>
<g id="a_node21"><a xlink:href="taskassignment_8h.xhtml" target="_top" xlink:title="Declares high&#45;level functionality for managing assigning tasks on ranks of a node to hardware on that...">
<polygon fill="white" stroke="black" points="623.19,-179.5 623.19,-209.5 749.19,-209.5 749.19,-179.5 623.19,-179.5"/>
<text text-anchor="start" x="631.19" y="-197.5" font-family="Helvetica,sans-Serif" font-size="10.00">gromacs/taskassignment</text>
<text text-anchor="middle" x="686.19" y="-186.5" font-family="Helvetica,sans-Serif" font-size="10.00">/taskassignment.h</text>
</a>
</g>
</g>
<!-- Node1&#45;&gt;Node21 -->
<g id="edge23" class="edge"><title>Node1&#45;&gt;Node21</title>
<path fill="none" stroke="midnightblue" d="M1147.62,-254.581C1058.97,-246.815 903.162,-231.748 759.333,-209.927"/>
<polygon fill="midnightblue" stroke="midnightblue" points="759.853,-206.466 749.439,-208.412 758.794,-213.385 759.853,-206.466"/>
</g>
<!-- Node22 -->
<g id="node22" class="node"><title>Node22</title>
<g id="a_node22"><a xlink:href="baseversion_8h.xhtml" target="_top" xlink:title="Declares functions to get basic version information. ">
<polygon fill="white" stroke="black" points="2005.19,-185 2005.19,-204 2149.19,-204 2149.19,-185 2005.19,-185"/>
<text text-anchor="middle" x="2077.19" y="-192" font-family="Helvetica,sans-Serif" font-size="10.00">gromacs/utility/baseversion.h</text>
</a>
</g>
</g>
<!-- Node1&#45;&gt;Node22 -->
<g id="edge25" class="edge"><title>Node1&#45;&gt;Node22</title>
<path fill="none" stroke="midnightblue" d="M1290.94,-258.527C1428.3,-254.156 1737.7,-241.435 1996.19,-210 2005.46,-208.873 2015.27,-207.376 2024.75,-205.772"/>
<polygon fill="midnightblue" stroke="midnightblue" points="2025.62,-209.174 2034.87,-204.001 2024.41,-202.278 2025.62,-209.174"/>
</g>
<!-- Node23 -->
<g id="node23" class="node"><title>Node23</title>
<g id="a_node23"><a xlink:href="exceptions_8h.xhtml" target="_top" xlink:title="Declares common exception classes and macros for fatal error handling. ">
<polygon fill="white" stroke="black" points="313.69,-185 313.69,-204 452.69,-204 452.69,-185 313.69,-185"/>
<text text-anchor="middle" x="383.19" y="-192" font-family="Helvetica,sans-Serif" font-size="10.00">gromacs/utility/exceptions.h</text>
</a>
</g>
</g>
<!-- Node1&#45;&gt;Node23 -->
<g id="edge26" class="edge"><title>Node1&#45;&gt;Node23</title>
<path fill="none" stroke="midnightblue" d="M1147.68,-258.173C1013.75,-253.266 716.157,-239.766 467.19,-210 457.593,-208.853 447.425,-207.347 437.603,-205.74"/>
<polygon fill="midnightblue" stroke="midnightblue" points="437.973,-202.253 427.53,-204.04 436.808,-209.156 437.973,-202.253"/>
</g>
<!-- Node31 -->
<g id="node31" class="node"><title>Node31</title>
<g id="a_node31"><a xlink:href="gmxassert_8h.xhtml" target="_top" xlink:title="Defines assert macros customized for Gromacs. ">
<polygon fill="white" stroke="black" points="651.69,-123.5 651.69,-142.5 788.69,-142.5 788.69,-123.5 651.69,-123.5"/>
<text text-anchor="middle" x="720.19" y="-130.5" font-family="Helvetica,sans-Serif" font-size="10.00">gromacs/utility/gmxassert.h</text>
</a>
</g>
</g>
<!-- Node1&#45;&gt;Node31 -->
<g id="edge46" class="edge"><title>Node1&#45;&gt;Node31</title>
<path fill="none" stroke="midnightblue" d="M1147.63,-260.874C974.441,-261.032 543.707,-256.68 500.19,-210 490.795,-199.922 491.478,-189.674 500.19,-179 509.749,-167.288 588.494,-153.248 649.073,-144.001"/>
<polygon fill="midnightblue" stroke="midnightblue" points="649.641,-147.455 659.007,-142.502 648.597,-140.533 649.641,-147.455"/>
</g>
<!-- Node32 -->
<g id="node32" class="node"><title>Node32</title>
<g id="a_node32"><a xlink:href="fatalerror_8h.xhtml" target="_top" xlink:title="Declares fatal error handling and debugging routines for C code. ">
<polygon fill="white" stroke="black" points="1579.19,-185 1579.19,-204 1709.19,-204 1709.19,-185 1579.19,-185"/>
<text text-anchor="middle" x="1644.19" y="-192" font-family="Helvetica,sans-Serif" font-size="10.00">gromacs/utility/fatalerror.h</text>
</a>
</g>
</g>
<!-- Node1&#45;&gt;Node32 -->
<g id="edge42" class="edge"><title>Node1&#45;&gt;Node32</title>
<path fill="none" stroke="midnightblue" d="M1290.95,-251.257C1362.01,-241.85 1473.83,-226.361 1570.19,-210 1577.38,-208.78 1584.94,-207.404 1592.37,-205.998"/>
<polygon fill="midnightblue" stroke="midnightblue" points="1593.22,-209.399 1602.38,-204.075 1591.9,-202.525 1593.22,-209.399"/>
</g>
<!-- Node35 -->
<g id="node35" class="node"><title>Node35</title>
<g id="a_node35"><a xlink:href="logger_8h.xhtml" target="_top" xlink:title="Declares functionality for logging. ">
<polygon fill="white" stroke="black" points="1117.19,-185 1117.19,-204 1235.19,-204 1235.19,-185 1117.19,-185"/>
<text text-anchor="middle" x="1176.19" y="-192" font-family="Helvetica,sans-Serif" font-size="10.00">gromacs/utility/logger.h</text>
</a>
</g>
</g>
<!-- Node1&#45;&gt;Node35 -->
<g id="edge47" class="edge"><title>Node1&#45;&gt;Node35</title>
<path fill="none" stroke="midnightblue" d="M1209.86,-246.396C1203.29,-236.462 1194.45,-223.108 1187.48,-212.572"/>
<polygon fill="midnightblue" stroke="midnightblue" points="1190.38,-210.604 1181.94,-204.195 1184.54,-214.466 1190.38,-210.604"/>
</g>
<!-- Node36 -->
<g id="node36" class="node"><title>Node36</title>
<g id="a_node36"><a xlink:href="stringutil_8h.xhtml" target="_top" xlink:title="Declares common string utility and formatting routines. ">
<polygon fill="white" stroke="black" points="971.19,-185 971.19,-204 1099.19,-204 1099.19,-185 971.19,-185"/>
<text text-anchor="middle" x="1035.19" y="-192" font-family="Helvetica,sans-Serif" font-size="10.00">gromacs/utility/stringutil.h</text>
</a>
</g>
</g>
<!-- Node1&#45;&gt;Node36 -->
<g id="edge49" class="edge"><title>Node1&#45;&gt;Node36</title>
<path fill="none" stroke="midnightblue" d="M1179.26,-246.396C1146.27,-234.739 1099.94,-218.373 1068.81,-207.376"/>
<polygon fill="midnightblue" stroke="midnightblue" points="1069.87,-204.038 1059.27,-204.007 1067.53,-210.638 1069.87,-204.038"/>
</g>
<!-- Node4 -->
<g id="node4" class="node"><title>Node4</title>
<polygon fill="white" stroke="#bfbfbf" points="807.19,-123.5 807.19,-142.5 851.19,-142.5 851.19,-123.5 807.19,-123.5"/>
<text text-anchor="middle" x="829.19" y="-130.5" font-family="Helvetica,sans-Serif" font-size="10.00">vector</text>
</g>
<!-- Node3&#45;&gt;Node4 -->
<g id="edge3" class="edge"><title>Node3&#45;&gt;Node4</title>
<path fill="none" stroke="midnightblue" d="M589.369,-184.98C597.451,-182.932 606.121,-180.814 614.19,-179 692.313,-161.435 715.421,-162.517 796.695,-143.189"/>
<polygon fill="midnightblue" stroke="midnightblue" points="798.002,-146.475 806.903,-140.729 796.361,-139.67 798.002,-146.475"/>
</g>
<!-- Node10&#45;&gt;Node4 -->
<g id="edge13" class="edge"><title>Node10&#45;&gt;Node4</title>
<path fill="none" stroke="midnightblue" d="M1295.33,-184.988C1278.66,-182.93 1260.77,-180.805 1244.19,-179 1077.03,-160.81 1030.35,-174.496 861.398,-142.892"/>
<polygon fill="midnightblue" stroke="midnightblue" points="861.896,-139.424 851.419,-140.999 860.592,-146.301 861.896,-139.424"/>
</g>
<!-- Node10&#45;&gt;Node9 -->
<g id="edge12" class="edge"><title>Node10&#45;&gt;Node9</title>
<path fill="none" stroke="midnightblue" d="M1334.68,-184.975C1300.86,-174.095 1242.46,-155.314 1206.78,-143.838"/>
<polygon fill="midnightblue" stroke="midnightblue" points="1207.51,-140.398 1196.92,-140.668 1205.37,-147.062 1207.51,-140.398"/>
</g>
<!-- Node11 -->
<g id="node11" class="node"><title>Node11</title>
<polygon fill="white" stroke="#bfbfbf" points="1317.69,-123.5 1317.69,-142.5 1352.69,-142.5 1352.69,-123.5 1317.69,-123.5"/>
<text text-anchor="middle" x="1335.19" y="-130.5" font-family="Helvetica,sans-Serif" font-size="10.00">map</text>
</g>
<!-- Node10&#45;&gt;Node11 -->
<g id="edge10" class="edge"><title>Node10&#45;&gt;Node11</title>
<path fill="none" stroke="midnightblue" d="M1357.46,-184.975C1353.72,-176.404 1347.83,-162.927 1343.05,-151.983"/>
<polygon fill="midnightblue" stroke="midnightblue" points="1346.12,-150.271 1338.91,-142.509 1339.71,-153.074 1346.12,-150.271"/>
</g>
<!-- Node12 -->
<g id="node12" class="node"><title>Node12</title>
<polygon fill="white" stroke="#bfbfbf" points="1371.19,-123.5 1371.19,-142.5 1401.19,-142.5 1401.19,-123.5 1371.19,-123.5"/>
<text text-anchor="middle" x="1386.19" y="-130.5" font-family="Helvetica,sans-Serif" font-size="10.00">set</text>
</g>
<!-- Node10&#45;&gt;Node12 -->
<g id="edge11" class="edge"><title>Node10&#45;&gt;Node12</title>
<path fill="none" stroke="midnightblue" d="M1364.77,-184.975C1368.37,-176.404 1374.04,-162.927 1378.63,-151.983"/>
<polygon fill="midnightblue" stroke="midnightblue" points="1381.97,-153.084 1382.61,-142.509 1375.51,-150.373 1381.97,-153.084"/>
</g>
<!-- Node13&#45;&gt;Node4 -->
<g id="edge16" class="edge"><title>Node13&#45;&gt;Node4</title>
<path fill="none" stroke="midnightblue" d="M855.748,-184.975C851.237,-176.315 844.116,-162.649 838.383,-151.645"/>
<polygon fill="midnightblue" stroke="midnightblue" points="841.348,-149.76 833.623,-142.509 835.14,-152.995 841.348,-149.76"/>
</g>
<!-- Node14 -->
<g id="node14" class="node"><title>Node14</title>
<polygon fill="white" stroke="#bfbfbf" points="869.19,-123.5 869.19,-142.5 915.19,-142.5 915.19,-123.5 869.19,-123.5"/>
<text text-anchor="middle" x="892.19" y="-130.5" font-family="Helvetica,sans-Serif" font-size="10.00">cstdint</text>
</g>
<!-- Node13&#45;&gt;Node14 -->
<g id="edge15" class="edge"><title>Node13&#45;&gt;Node14</title>
<path fill="none" stroke="midnightblue" d="M864.775,-184.975C869.432,-176.315 876.782,-162.649 882.7,-151.645"/>
<polygon fill="midnightblue" stroke="midnightblue" points="885.96,-152.974 887.614,-142.509 879.795,-149.658 885.96,-152.974"/>
</g>
<!-- Node16 -->
<g id="node16" class="node"><title>Node16</title>
<polygon fill="white" stroke="#bfbfbf" points="218.19,-62 218.19,-81 270.19,-81 270.19,-62 218.19,-62"/>
<text text-anchor="middle" x="244.19" y="-69" font-family="Helvetica,sans-Serif" font-size="10.00">memory</text>
</g>
<!-- Node15&#45;&gt;Node16 -->
<g id="edge18" class="edge"><title>Node15&#45;&gt;Node16</title>
<path fill="none" stroke="midnightblue" d="M188.874,-184.947C124.459,-171.519 7.10447,-146.638 4.19001,-143 -1.36796,-136.063 -1.41103,-129.902 4.19001,-123 29.4368,-91.888 147.272,-79.2274 207.917,-74.7035"/>
<polygon fill="midnightblue" stroke="midnightblue" points="208.463,-78.1737 218.19,-73.9744 207.967,-71.1912 208.463,-78.1737"/>
</g>
<!-- Node18 -->
<g id="node18" class="node"><title>Node18</title>
<g id="a_node18"><a xlink:href="basedefinitions_8h.xhtml" target="_top" xlink:title="Basic types and macros used throughout GROMACS. ">
<polygon fill="white" stroke="black" points="1010.69,-62 1010.69,-81 1167.69,-81 1167.69,-62 1010.69,-62"/>
<text text-anchor="middle" x="1089.19" y="-69" font-family="Helvetica,sans-Serif" font-size="10.00">gromacs/utility/basedefinitions.h</text>
</a>
</g>
</g>
<!-- Node17&#45;&gt;Node18 -->
<g id="edge20" class="edge"><title>Node17&#45;&gt;Node18</title>
<path fill="none" stroke="midnightblue" d="M1490.82,-179.26C1473.35,-162.851 1442.2,-136.428 1410.19,-123 1335.72,-91.757 1244.16,-79.6645 1177.91,-75.0745"/>
<polygon fill="midnightblue" stroke="midnightblue" points="1178.12,-71.5807 1167.92,-74.4253 1177.67,-78.566 1178.12,-71.5807"/>
</g>
<!-- Node19 -->
<g id="node19" class="node"><title>Node19</title>
<polygon fill="white" stroke="#bfbfbf" points="1028.69,-0.5 1028.69,-19.5 1077.69,-19.5 1077.69,-0.5 1028.69,-0.5"/>
<text text-anchor="middle" x="1053.19" y="-7.5" font-family="Helvetica,sans-Serif" font-size="10.00">stdint.h</text>
</g>
<!-- Node18&#45;&gt;Node19 -->
<g id="edge21" class="edge"><title>Node18&#45;&gt;Node19</title>
<path fill="none" stroke="midnightblue" d="M1084.03,-61.9751C1078.74,-53.2268 1070.35,-39.3691 1063.66,-28.3093"/>
<polygon fill="midnightblue" stroke="midnightblue" points="1066.51,-26.2531 1058.34,-19.5091 1060.52,-29.8768 1066.51,-26.2531"/>
</g>
<!-- Node20 -->
<g id="node20" class="node"><title>Node20</title>
<polygon fill="white" stroke="#bfbfbf" points="1095.69,-0.5 1095.69,-19.5 1154.69,-19.5 1154.69,-0.5 1095.69,-0.5"/>
<text text-anchor="middle" x="1125.19" y="-7.5" font-family="Helvetica,sans-Serif" font-size="10.00">inttypes.h</text>
</g>
<!-- Node18&#45;&gt;Node20 -->
<g id="edge22" class="edge"><title>Node18&#45;&gt;Node20</title>
<path fill="none" stroke="midnightblue" d="M1094.35,-61.9751C1099.64,-53.2268 1108.03,-39.3691 1114.72,-28.3093"/>
<polygon fill="midnightblue" stroke="midnightblue" points="1117.86,-29.8768 1120.04,-19.5091 1111.87,-26.2531 1117.86,-29.8768"/>
</g>
<!-- Node21&#45;&gt;Node4 -->
<g id="edge24" class="edge"><title>Node21&#45;&gt;Node4</title>
<path fill="none" stroke="midnightblue" d="M720.079,-179.399C744.072,-169.416 775.964,-156.147 799.067,-146.534"/>
<polygon fill="midnightblue" stroke="midnightblue" points="800.494,-149.731 808.382,-142.658 797.805,-143.268 800.494,-149.731"/>
</g>
<!-- Node23&#45;&gt;Node4 -->
<g id="edge34" class="edge"><title>Node23&#45;&gt;Node4</title>
<path fill="none" stroke="midnightblue" d="M451.549,-184.992C467.51,-183.016 484.445,-180.927 500.19,-179 629.377,-163.192 665.718,-169.363 796.916,-142.97"/>
<polygon fill="midnightblue" stroke="midnightblue" points="797.847,-146.352 806.947,-140.926 796.449,-139.493 797.847,-146.352"/>
</g>
<!-- Node23&#45;&gt;Node9 -->
<g id="edge31" class="edge"><title>Node23&#45;&gt;Node9</title>
<path fill="none" stroke="midnightblue" d="M445.956,-184.976C463.485,-182.798 482.559,-180.618 500.19,-179 767.102,-154.505 835.25,-167.191 1102.19,-143 1116.43,-141.71 1132.16,-139.857 1145.44,-138.168"/>
<polygon fill="midnightblue" stroke="midnightblue" points="1146.03,-141.621 1155.49,-136.862 1145.13,-134.679 1146.03,-141.621"/>
</g>
<!-- Node23&#45;&gt;Node16 -->
<g id="edge30" class="edge"><title>Node23&#45;&gt;Node16</title>
<path fill="none" stroke="midnightblue" d="M377.666,-184.906C368.301,-170.791 348.172,-142.336 326.19,-123 309.399,-108.231 287.77,-95.1093 270.942,-85.9455"/>
<polygon fill="midnightblue" stroke="midnightblue" points="272.136,-82.617 261.662,-81.0248 268.857,-88.8015 272.136,-82.617"/>
</g>
<!-- Node23&#45;&gt;Node18 -->
<g id="edge35" class="edge"><title>Node23&#45;&gt;Node18</title>
<path fill="none" stroke="midnightblue" d="M437.159,-184.975C482.368,-176.925 548.151,-163.075 603.19,-143 621.49,-136.325 623.542,-128.629 642.19,-123 762.717,-86.6161 908.702,-76.0298 1000.29,-73.1786"/>
<polygon fill="midnightblue" stroke="midnightblue" points="1000.46,-76.6752 1010.36,-72.8896 1000.26,-69.6781 1000.46,-76.6752"/>
</g>
<!-- Node24 -->
<g id="node24" class="node"><title>Node24</title>
<polygon fill="white" stroke="#bfbfbf" points="411.69,-123.5 411.69,-142.5 454.69,-142.5 454.69,-123.5 411.69,-123.5"/>
<text text-anchor="middle" x="433.19" y="-130.5" font-family="Helvetica,sans-Serif" font-size="10.00">cstdio</text>
</g>
<!-- Node23&#45;&gt;Node24 -->
<g id="edge27" class="edge"><title>Node23&#45;&gt;Node24</title>
<path fill="none" stroke="midnightblue" d="M390.354,-184.975C397.928,-175.962 410.06,-161.525 419.483,-150.312"/>
<polygon fill="midnightblue" stroke="midnightblue" points="422.286,-152.417 426.04,-142.509 416.927,-147.913 422.286,-152.417"/>
</g>
<!-- Node25 -->
<g id="node25" class="node"><title>Node25</title>
<polygon fill="white" stroke="#bfbfbf" points="472.69,-123.5 472.69,-142.5 517.69,-142.5 517.69,-123.5 472.69,-123.5"/>
<text text-anchor="middle" x="495.19" y="-130.5" font-family="Helvetica,sans-Serif" font-size="10.00">cstdlib</text>
</g>
<!-- Node23&#45;&gt;Node25 -->
<g id="edge28" class="edge"><title>Node23&#45;&gt;Node25</title>
<path fill="none" stroke="midnightblue" d="M399.237,-184.975C417.783,-175.122 448.53,-158.788 470.212,-147.27"/>
<polygon fill="midnightblue" stroke="midnightblue" points="471.984,-150.292 479.173,-142.509 468.7,-144.11 471.984,-150.292"/>
</g>
<!-- Node26 -->
<g id="node26" class="node"><title>Node26</title>
<polygon fill="white" stroke="#bfbfbf" points="535.69,-123.5 535.69,-142.5 594.69,-142.5 594.69,-123.5 535.69,-123.5"/>
<text text-anchor="middle" x="565.19" y="-130.5" font-family="Helvetica,sans-Serif" font-size="10.00">exception</text>
</g>
<!-- Node23&#45;&gt;Node26 -->
<g id="edge29" class="edge"><title>Node23&#45;&gt;Node26</title>
<path fill="none" stroke="midnightblue" d="M409.266,-184.975C440.756,-174.68 493.888,-157.31 529.248,-145.75"/>
<polygon fill="midnightblue" stroke="midnightblue" points="530.745,-148.943 539.162,-142.509 528.57,-142.29 530.745,-148.943"/>
</g>
<!-- Node27 -->
<g id="node27" class="node"><title>Node27</title>
<polygon fill="white" stroke="#bfbfbf" points="13.19,-123.5 13.19,-142.5 75.19,-142.5 75.19,-123.5 13.19,-123.5"/>
<text text-anchor="middle" x="44.19" y="-130.5" font-family="Helvetica,sans-Serif" font-size="10.00">type_traits</text>
</g>
<!-- Node23&#45;&gt;Node27 -->
<g id="edge32" class="edge"><title>Node23&#45;&gt;Node27</title>
<path fill="none" stroke="midnightblue" d="M337.682,-184.992C326.722,-182.986 315.044,-180.884 304.19,-179 209.717,-162.602 183.147,-161.911 85.5837,-143.183"/>
<polygon fill="midnightblue" stroke="midnightblue" points="86.0788,-139.714 75.596,-141.251 84.7492,-146.586 86.0788,-139.714"/>
</g>
<!-- Node28 -->
<g id="node28" class="node"><title>Node28</title>
<polygon fill="white" stroke="#bfbfbf" points="93.69,-123.5 93.69,-142.5 152.69,-142.5 152.69,-123.5 93.69,-123.5"/>
<text text-anchor="middle" x="123.19" y="-130.5" font-family="Helvetica,sans-Serif" font-size="10.00">typeindex</text>
</g>
<!-- Node23&#45;&gt;Node28 -->
<g id="edge33" class="edge"><title>Node23&#45;&gt;Node28</title>
<path fill="none" stroke="midnightblue" d="M345.645,-184.947C303.646,-175.373 233.312,-159.323 162.928,-143.166"/>
<polygon fill="midnightblue" stroke="midnightblue" points="163.529,-139.713 152.999,-140.886 161.962,-146.535 163.529,-139.713"/>
</g>
<!-- Node29 -->
<g id="node29" class="node"><title>Node29</title>
<g id="a_node29"><a xlink:href="classhelpers_8h.xhtml" target="_top" xlink:title="Declares common utility classes and macros. ">
<polygon fill="white" stroke="black" points="171.19,-123.5 171.19,-142.5 317.19,-142.5 317.19,-123.5 171.19,-123.5"/>
<text text-anchor="middle" x="244.19" y="-130.5" font-family="Helvetica,sans-Serif" font-size="10.00">gromacs/utility/classhelpers.h</text>
</a>
</g>
</g>
<!-- Node23&#45;&gt;Node29 -->
<g id="edge36" class="edge"><title>Node23&#45;&gt;Node29</title>
<path fill="none" stroke="midnightblue" d="M363.275,-184.975C339.741,-174.901 300.38,-158.053 273.397,-146.502"/>
<polygon fill="midnightblue" stroke="midnightblue" points="274.639,-143.227 264.068,-142.509 271.884,-149.662 274.639,-143.227"/>
</g>
<!-- Node30 -->
<g id="node30" class="node"><title>Node30</title>
<g id="a_node30"><a xlink:href="current__function_8h.xhtml" target="_top" xlink:title="Declares GMX_CURRENT_FUNCTION for getting the current function name. ">
<polygon fill="white" stroke="black" points="494.69,-56.5 494.69,-86.5 607.69,-86.5 607.69,-56.5 494.69,-56.5"/>
<text text-anchor="start" x="502.69" y="-74.5" font-family="Helvetica,sans-Serif" font-size="10.00">gromacs/utility/current</text>
<text text-anchor="middle" x="551.19" y="-63.5" font-family="Helvetica,sans-Serif" font-size="10.00">_function.h</text>
</a>
</g>
</g>
<!-- Node23&#45;&gt;Node30 -->
<g id="edge38" class="edge"><title>Node23&#45;&gt;Node30</title>
<path fill="none" stroke="midnightblue" d="M383.048,-184.898C383.28,-170.253 385.882,-140.378 402.19,-123 423.591,-100.195 455.655,-87.6873 484.562,-80.8279"/>
<polygon fill="midnightblue" stroke="midnightblue" points="485.609,-84.1818 494.633,-78.6296 484.116,-77.3428 485.609,-84.1818"/>
</g>
<!-- Node23&#45;&gt;Node31 -->
<g id="edge39" class="edge"><title>Node23&#45;&gt;Node31</title>
<path fill="none" stroke="midnightblue" d="M431.474,-184.975C492.284,-174.239 596.682,-155.806 661.881,-144.295"/>
<polygon fill="midnightblue" stroke="midnightblue" points="662.757,-147.695 671.996,-142.509 661.539,-140.801 662.757,-147.695"/>
</g>
<!-- Node29&#45;&gt;Node16 -->
<g id="edge37" class="edge"><title>Node29&#45;&gt;Node16</title>
<path fill="none" stroke="midnightblue" d="M244.19,-123.475C244.19,-115.08 244.19,-101.981 244.19,-91.1631"/>
<polygon fill="midnightblue" stroke="midnightblue" points="247.69,-91.0091 244.19,-81.0091 240.69,-91.0091 247.69,-91.0091"/>
</g>
<!-- Node31&#45;&gt;Node18 -->
<g id="edge40" class="edge"><title>Node31&#45;&gt;Node18</title>
<path fill="none" stroke="midnightblue" d="M773.059,-123.475C839.917,-112.694 954.896,-94.1544 1026.22,-82.6532"/>
<polygon fill="midnightblue" stroke="midnightblue" points="1027.1,-86.0564 1036.42,-81.0091 1025.99,-79.1457 1027.1,-86.0564"/>
</g>
<!-- Node31&#45;&gt;Node30 -->
<g id="edge41" class="edge"><title>Node31&#45;&gt;Node30</title>
<path fill="none" stroke="midnightblue" d="M695.976,-123.475C671.163,-114.739 631.876,-100.907 600.484,-89.855"/>
<polygon fill="midnightblue" stroke="midnightblue" points="601.615,-86.5426 591.02,-86.523 599.29,-93.1453 601.615,-86.5426"/>
</g>
<!-- Node32&#45;&gt;Node18 -->
<g id="edge45" class="edge"><title>Node32&#45;&gt;Node18</title>
<path fill="none" stroke="midnightblue" d="M1623.73,-184.969C1587.41,-170.16 1509.02,-139.684 1440.19,-123 1352.22,-101.677 1249.53,-88.1897 1178.04,-80.5708"/>
<polygon fill="midnightblue" stroke="midnightblue" points="1178.03,-77.0511 1167.72,-79.489 1177.3,-84.0129 1178.03,-77.0511"/>
</g>
<!-- Node33 -->
<g id="node33" class="node"><title>Node33</title>
<polygon fill="white" stroke="#bfbfbf" points="1584.19,-123.5 1584.19,-142.5 1636.19,-142.5 1636.19,-123.5 1584.19,-123.5"/>
<text text-anchor="middle" x="1610.19" y="-130.5" font-family="Helvetica,sans-Serif" font-size="10.00">stdarg.h</text>
</g>
<!-- Node32&#45;&gt;Node33 -->
<g id="edge43" class="edge"><title>Node32&#45;&gt;Node33</title>
<path fill="none" stroke="midnightblue" d="M1639.32,-184.975C1634.32,-176.227 1626.4,-162.369 1620.08,-151.309"/>
<polygon fill="midnightblue" stroke="midnightblue" points="1623.05,-149.455 1615.05,-142.509 1616.97,-152.928 1623.05,-149.455"/>
</g>
<!-- Node34 -->
<g id="node34" class="node"><title>Node34</title>
<polygon fill="white" stroke="#bfbfbf" points="1654.19,-123.5 1654.19,-142.5 1700.19,-142.5 1700.19,-123.5 1654.19,-123.5"/>
<text text-anchor="middle" x="1677.19" y="-130.5" font-family="Helvetica,sans-Serif" font-size="10.00">stdio.h</text>
</g>
<!-- Node32&#45;&gt;Node34 -->
<g id="edge44" class="edge"><title>Node32&#45;&gt;Node34</title>
<path fill="none" stroke="midnightblue" d="M1648.92,-184.975C1653.77,-176.227 1661.46,-162.369 1667.59,-151.309"/>
<polygon fill="midnightblue" stroke="midnightblue" points="1670.68,-152.952 1672.47,-142.509 1664.56,-149.557 1670.68,-152.952"/>
</g>
<!-- Node35&#45;&gt;Node9 -->
<g id="edge48" class="edge"><title>Node35&#45;&gt;Node9</title>
<path fill="none" stroke="midnightblue" d="M1176.19,-184.975C1176.19,-176.58 1176.19,-163.481 1176.19,-152.663"/>
<polygon fill="midnightblue" stroke="midnightblue" points="1179.69,-152.509 1176.19,-142.509 1172.69,-152.509 1179.69,-152.509"/>
</g>
<!-- Node36&#45;&gt;Node4 -->
<g id="edge53" class="edge"><title>Node36&#45;&gt;Node4</title>
<path fill="none" stroke="midnightblue" d="M1005.46,-184.937C972.543,-175.452 917.645,-159.623 861.041,-143.243"/>
<polygon fill="midnightblue" stroke="midnightblue" points="861.783,-139.814 851.204,-140.396 859.837,-146.538 861.783,-139.814"/>
</g>
<!-- Node36&#45;&gt;Node9 -->
<g id="edge52" class="edge"><title>Node36&#45;&gt;Node9</title>
<path fill="none" stroke="midnightblue" d="M1055.39,-184.975C1079.26,-174.901 1119.19,-158.053 1146.56,-146.502"/>
<polygon fill="midnightblue" stroke="midnightblue" points="1148.17,-149.622 1156.03,-142.509 1145.45,-143.172 1148.17,-149.622"/>
</g>
<!-- Node37 -->
<g id="node37" class="node"><title>Node37</title>
<polygon fill="white" stroke="#bfbfbf" points="1043.69,-123.5 1043.69,-142.5 1092.69,-142.5 1092.69,-123.5 1043.69,-123.5"/>
<text text-anchor="middle" x="1068.19" y="-130.5" font-family="Helvetica,sans-Serif" font-size="10.00">cstdarg</text>
</g>
<!-- Node36&#45;&gt;Node37 -->
<g id="edge50" class="edge"><title>Node36&#45;&gt;Node37</title>
<path fill="none" stroke="midnightblue" d="M1039.92,-184.975C1044.77,-176.227 1052.46,-162.369 1058.59,-151.309"/>
<polygon fill="midnightblue" stroke="midnightblue" points="1061.68,-152.952 1063.47,-142.509 1055.56,-149.557 1061.68,-152.952"/>
</g>
<!-- Node38 -->
<g id="node38" class="node"><title>Node38</title>
<polygon fill="white" stroke="#bfbfbf" points="979.19,-123.5 979.19,-142.5 1025.19,-142.5 1025.19,-123.5 979.19,-123.5"/>
<text text-anchor="middle" x="1002.19" y="-130.5" font-family="Helvetica,sans-Serif" font-size="10.00">cstring</text>
</g>
<!-- Node36&#45;&gt;Node38 -->
<g id="edge51" class="edge"><title>Node36&#45;&gt;Node38</title>
<path fill="none" stroke="midnightblue" d="M1030.46,-184.975C1025.61,-176.227 1017.92,-162.369 1011.79,-151.309"/>
<polygon fill="midnightblue" stroke="midnightblue" points="1014.82,-149.557 1006.91,-142.509 1008.7,-152.952 1014.82,-149.557"/>
</g>
</g>
</svg>
