<?xml version="1.0" encoding="UTF-8" standalone="no"?>
<!DOCTYPE svg PUBLIC "-//W3C//DTD SVG 1.1//EN"
 "http://www.w3.org/Graphics/SVG/1.1/DTD/svg11.dtd">
<!-- Generated by graphviz version 2.38.0 (20140413.2041)
 -->
<!-- Title: src/gromacs/gpu_utils/tests/devicetransfers.h Pages: 1 -->
<svg width="407pt" height="117pt"
 viewBox="0.00 0.00 406.50 117.00" xmlns="http://www.w3.org/2000/svg" xmlns:xlink="http://www.w3.org/1999/xlink">
<g id="graph0" class="graph" transform="scale(1 1) rotate(0) translate(4 113)">
<title>src/gromacs/gpu_utils/tests/devicetransfers.h</title>
<polygon fill="white" stroke="none" points="-4,4 -4,-113 402.5,-113 402.5,4 -4,4"/>
<!-- Node1 -->
<g id="node1" class="node"><title>Node1</title>
<polygon fill="#bfbfbf" stroke="black" points="145.5,-78.5 145.5,-108.5 264.5,-108.5 264.5,-78.5 145.5,-78.5"/>
<text text-anchor="start" x="153.5" y="-96.5" font-family="Helvetica,sans-Serif" font-size="10.00">src/gromacs/gpu_utils</text>
<text text-anchor="middle" x="205" y="-85.5" font-family="Helvetica,sans-Serif" font-size="10.00">/tests/devicetransfers.h</text>
</g>
<!-- Node2 -->
<g id="node2" class="node"><title>Node2</title>
<g id="a_node2"><a xlink:href="devicetransfers_8cpp.xhtml" target="_top" xlink:title="Defines helper functionality for device transfers for tests for GPU host allocator. ">
<polygon fill="white" stroke="black" points="0,-6 0,-36 130,-36 130,-6 0,-6"/>
<text text-anchor="start" x="8" y="-24" font-family="Helvetica,sans-Serif" font-size="10.00">src/gromacs/gpu_utils</text>
<text text-anchor="middle" x="65" y="-13" font-family="Helvetica,sans-Serif" font-size="10.00">/tests/devicetransfers.cpp</text>
</a>
</g>
</g>
<!-- Node1&#45;&gt;Node2 -->
<g id="edge1" class="edge"><title>Node1&#45;&gt;Node2</title>
<path fill="none" stroke="midnightblue" d="M168.01,-73.873C144.478,-62.0226 114.49,-46.9215 92.9461,-36.0729"/>
<polygon fill="midnightblue" stroke="midnightblue" points="166.5,-77.031 177.005,-78.4027 169.648,-70.779 166.5,-77.031"/>
</g>
<!-- Node3 -->
<g id="node3" class="node"><title>Node3</title>
<g id="a_node3"><a xlink:href="devicetransfers__ocl_8cpp.xhtml" target="_top" xlink:title="Defines helper functionality for device transfers for tests for GPU host allocator. ">
<polygon fill="white" stroke="black" points="148.5,-0.5 148.5,-41.5 261.5,-41.5 261.5,-0.5 148.5,-0.5"/>
<text text-anchor="start" x="156.5" y="-29.5" font-family="Helvetica,sans-Serif" font-size="10.00">src/gromacs/gpu_utils</text>
<text text-anchor="start" x="156.5" y="-18.5" font-family="Helvetica,sans-Serif" font-size="10.00">/tests/devicetransfers</text>
<text text-anchor="middle" x="205" y="-7.5" font-family="Helvetica,sans-Serif" font-size="10.00">_ocl.cpp</text>
</a>
</g>
</g>
<!-- Node1&#45;&gt;Node3 -->
<g id="edge2" class="edge"><title>Node1&#45;&gt;Node3</title>
<path fill="none" stroke="midnightblue" d="M205,-67.9815C205,-59.3468 205,-49.7625 205,-41.5884"/>
<polygon fill="midnightblue" stroke="midnightblue" points="201.5,-68.2332 205,-78.2333 208.5,-68.2333 201.5,-68.2332"/>
</g>
<!-- Node4 -->
<g id="node4" class="node"><title>Node4</title>
<g id="a_node4"><a xlink:href="tests_2hostallocator_8cpp.xhtml" target="_top" xlink:title="Tests for GPU host allocator. ">
<polygon fill="white" stroke="black" points="279.5,-6 279.5,-36 398.5,-36 398.5,-6 279.5,-6"/>
<text text-anchor="start" x="287.5" y="-24" font-family="Helvetica,sans-Serif" font-size="10.00">src/gromacs/gpu_utils</text>
<text text-anchor="middle" x="339" y="-13" font-family="Helvetica,sans-Serif" font-size="10.00">/tests/hostallocator.cpp</text>
</a>
</g>
</g>
<!-- Node1&#45;&gt;Node4 -->
<g id="edge3" class="edge"><title>Node1&#45;&gt;Node4</title>
<path fill="none" stroke="midnightblue" d="M240.704,-73.7155C263.182,-61.8891 291.723,-46.8735 312.252,-36.0729"/>
<polygon fill="midnightblue" stroke="midnightblue" points="239.015,-70.6491 231.795,-78.4027 242.274,-76.844 239.015,-70.6491"/>
</g>
</g>
</svg>
