<?xml version="1.0" encoding="UTF-8" standalone="no"?>
<!DOCTYPE svg PUBLIC "-//W3C//DTD SVG 1.1//EN"
 "http://www.w3.org/Graphics/SVG/1.1/DTD/svg11.dtd">
<!-- Generated by graphviz version 2.38.0 (20140413.2041)
 -->
<!-- Title: src/gromacs/math Pages: 1 -->
<svg width="182pt" height="231pt"
 viewBox="0.00 0.00 182.00 231.00" xmlns="http://www.w3.org/2000/svg" xmlns:xlink="http://www.w3.org/1999/xlink">
<g id="graph0" class="graph" transform="scale(1 1) rotate(0) translate(4 227)">
<title>src/gromacs/math</title>
<polygon fill="white" stroke="none" points="-4,4 -4,-227 178,-227 178,4 -4,4"/>
<g id="clust1" class="cluster"><title>clusterdir_a46192700e9e8ed44c648f0a55ee9a53</title>
<g id="a_clust1"><a xlink:href="dir_a46192700e9e8ed44c648f0a55ee9a53.xhtml" target="_top" xlink:title="gromacs">
<polygon fill="#ddddee" stroke="black" points="8,-128 8,-215 166,-215 166,-128 8,-128"/>
<text text-anchor="middle" x="87" y="-203" font-family="Helvetica,sans-Serif" font-size="10.00">gromacs</text>
</a>
</g>
</g>
<g id="clust2" class="cluster"><title>clusterdir_069a72e2096440213f56c93a40bc8b09</title>
<g id="a_clust2"><a xlink:href="dir_069a72e2096440213f56c93a40bc8b09.xhtml" target="_top">
<polygon fill="#eeeeff" stroke="black" points="16,-136 16,-188 158,-188 158,-136 16,-136"/>
</a>
</g>
</g>
<!-- dir_069a72e2096440213f56c93a40bc8b09 -->
<g id="node1" class="node"><title>dir_069a72e2096440213f56c93a40bc8b09</title>
<text text-anchor="middle" x="51" y="-159.5" font-family="Helvetica,sans-Serif" font-size="10.00">math</text>
</g>
<!-- dir_a64a619a73689309b11b91ae52c63e36 -->
<g id="node4" class="node"><title>dir_a64a619a73689309b11b91ae52c63e36</title>
<g id="a_node4"><a xlink:href="dir_a64a619a73689309b11b91ae52c63e36.xhtml" target="_top" xlink:title="utility">
<polygon fill="white" stroke="red" points="86,-108 32,-108 32,-72 86,-72 86,-108"/>
<text text-anchor="middle" x="59" y="-87.5" font-family="Helvetica,sans-Serif" font-size="10.00">utility</text>
</a>
</g>
</g>
<!-- dir_069a72e2096440213f56c93a40bc8b09&#45;&gt;dir_a64a619a73689309b11b91ae52c63e36 -->
<g id="edge2" class="edge"><title>dir_069a72e2096440213f56c93a40bc8b09&#45;&gt;dir_a64a619a73689309b11b91ae52c63e36</title>
<path fill="none" stroke="black" d="M52.9775,-143.697C53.8591,-135.983 54.9186,-126.712 55.9014,-118.112"/>
<polygon fill="black" stroke="black" points="59.387,-118.437 57.0452,-108.104 52.4323,-117.642 59.387,-118.437"/>
<g id="a_edge2&#45;headlabel"><a xlink:href="dir_000047_000087.xhtml" target="_top" xlink:title="25">
<text text-anchor="middle" x="61.7999" y="-119.831" font-family="Helvetica,sans-Serif" font-size="10.00">25</text>
</a>
</g>
</g>
<!-- dir_d6048d22f69d9a3e8e17ad78eb47b6b7 -->
<g id="node2" class="node"><title>dir_d6048d22f69d9a3e8e17ad78eb47b6b7</title>
<g id="a_node2"><a xlink:href="dir_d6048d22f69d9a3e8e17ad78eb47b6b7.xhtml" target="_top" xlink:title="tests">
<polygon fill="white" stroke="black" points="150,-180 96,-180 96,-144 150,-144 150,-180"/>
<text text-anchor="middle" x="123" y="-159.5" font-family="Helvetica,sans-Serif" font-size="10.00">tests</text>
</a>
</g>
</g>
<!-- dir_d2bee95dce64d4fd80a3640d91ab4935 -->
<g id="node3" class="node"><title>dir_d2bee95dce64d4fd80a3640d91ab4935</title>
<g id="a_node3"><a xlink:href="dir_d2bee95dce64d4fd80a3640d91ab4935.xhtml" target="_top" xlink:title="testutils">
<polygon fill="white" stroke="red" points="86,-36 32,-36 32,-0 86,-0 86,-36"/>
<text text-anchor="middle" x="59" y="-15.5" font-family="Helvetica,sans-Serif" font-size="10.00">testutils</text>
</a>
</g>
</g>
<!-- dir_d6048d22f69d9a3e8e17ad78eb47b6b7&#45;&gt;dir_d2bee95dce64d4fd80a3640d91ab4935 -->
<g id="edge1" class="edge"><title>dir_d6048d22f69d9a3e8e17ad78eb47b6b7&#45;&gt;dir_d2bee95dce64d4fd80a3640d91ab4935</title>
<path fill="none" stroke="black" d="M119.153,-143.706C114.708,-125.349 106.502,-95.7659 95,-72 90.4686,-62.6368 84.444,-53.0419 78.6217,-44.6341"/>
<polygon fill="black" stroke="black" points="81.3659,-42.4546 72.6985,-36.3613 75.6743,-46.5297 81.3659,-42.4546"/>
<g id="a_edge1&#45;headlabel"><a xlink:href="dir_000048_000090.xhtml" target="_top" xlink:title="3">
<text text-anchor="middle" x="85.767" y="-41.2245" font-family="Helvetica,sans-Serif" font-size="10.00">3</text>
</a>
</g>
</g>
<!-- dir_d2bee95dce64d4fd80a3640d91ab4935&#45;&gt;dir_a64a619a73689309b11b91ae52c63e36 -->
<g id="edge3" class="edge"><title>dir_d2bee95dce64d4fd80a3640d91ab4935&#45;&gt;dir_a64a619a73689309b11b91ae52c63e36</title>
<path fill="none" stroke="black" d="M64.895,-36.1043C65.7005,-43.7913 65.9369,-53.0537 65.604,-61.6651"/>
<polygon fill="black" stroke="black" points="62.1085,-61.4805 64.9157,-71.6966 69.0921,-61.9597 62.1085,-61.4805"/>
<g id="a_edge3&#45;headlabel"><a xlink:href="dir_000090_000087.xhtml" target="_top" xlink:title="80">
<text text-anchor="middle" x="59.5219" y="-55.2" font-family="Helvetica,sans-Serif" font-size="10.00">80</text>
</a>
</g>
</g>
<!-- dir_a64a619a73689309b11b91ae52c63e36&#45;&gt;dir_d2bee95dce64d4fd80a3640d91ab4935 -->
<g id="edge4" class="edge"><title>dir_a64a619a73689309b11b91ae52c63e36&#45;&gt;dir_d2bee95dce64d4fd80a3640d91ab4935</title>
<path fill="none" stroke="black" d="M53.0843,-71.6966C52.2886,-63.9827 52.0621,-54.7125 52.4047,-46.1124"/>
<polygon fill="black" stroke="black" points="55.8984,-46.3243 53.105,-36.1043 48.9154,-45.8356 55.8984,-46.3243"/>
<g id="a_edge4&#45;headlabel"><a xlink:href="dir_000087_000090.xhtml" target="_top" xlink:title="10">
<text text-anchor="middle" x="58.4799" y="-47.6083" font-family="Helvetica,sans-Serif" font-size="10.00">10</text>
</a>
</g>
</g>
</g>
</svg>
