<?xml version="1.0" encoding="UTF-8" standalone="no"?>
<!DOCTYPE svg PUBLIC "-//W3C//DTD SVG 1.1//EN"
 "http://www.w3.org/Graphics/SVG/1.1/DTD/svg11.dtd">
<!-- Generated by graphviz version 2.38.0 (20140413.2041)
 -->
<!-- Title: src/gromacs/trajectoryanalysis Pages: 1 -->
<svg width="554pt" height="591pt"
 viewBox="0.00 0.00 554.00 591.00" xmlns="http://www.w3.org/2000/svg" xmlns:xlink="http://www.w3.org/1999/xlink">
<g id="graph0" class="graph" transform="scale(1 1) rotate(0) translate(4 587)">
<title>src/gromacs/trajectoryanalysis</title>
<polygon fill="white" stroke="none" points="-4,4 -4,-587 550,-587 550,4 -4,4"/>
<g id="clust1" class="cluster"><title>clusterdir_a46192700e9e8ed44c648f0a55ee9a53</title>
<g id="a_clust1"><a xlink:href="dir_a46192700e9e8ed44c648f0a55ee9a53.xhtml" target="_top" xlink:title="gromacs">
<polygon fill="#ddddee" stroke="black" points="70,-416 70,-575 267,-575 267,-416 70,-416"/>
<text text-anchor="middle" x="168.5" y="-563" font-family="Helvetica,sans-Serif" font-size="10.00">gromacs</text>
</a>
</g>
</g>
<g id="clust2" class="cluster"><title>clusterdir_348b1a6307467bf9dcc6bb6666e72be4</title>
<g id="a_clust2"><a xlink:href="dir_348b1a6307467bf9dcc6bb6666e72be4.xhtml" target="_top">
<polygon fill="#eeeeff" stroke="black" points="78,-424 78,-548 259,-548 259,-424 78,-424"/>
</a>
</g>
</g>
<!-- dir_348b1a6307467bf9dcc6bb6666e72be4 -->
<g id="node1" class="node"><title>dir_348b1a6307467bf9dcc6bb6666e72be4</title>
<text text-anchor="middle" x="205" y="-519.5" font-family="Helvetica,sans-Serif" font-size="10.00">trajectoryanalysis</text>
</g>
<!-- dir_cf5eb0d6d3ae5860ebe15627a7d6d0f6 -->
<g id="node2" class="node"><title>dir_cf5eb0d6d3ae5860ebe15627a7d6d0f6</title>
<g id="a_node2"><a xlink:href="dir_cf5eb0d6d3ae5860ebe15627a7d6d0f6.xhtml" target="_top" xlink:title="modules">
<polygon fill="white" stroke="black" points="140,-468 86,-468 86,-432 140,-432 140,-468"/>
<text text-anchor="middle" x="113" y="-447.5" font-family="Helvetica,sans-Serif" font-size="10.00">modules</text>
</a>
</g>
</g>
<!-- dir_7368f1a5a3cf04a409e4d90d99595fa7 -->
<g id="node4" class="node"><title>dir_7368f1a5a3cf04a409e4d90d99595fa7</title>
<g id="a_node4"><a xlink:href="dir_7368f1a5a3cf04a409e4d90d99595fa7.xhtml" target="_top" xlink:title="options">
<polygon fill="white" stroke="red" points="344,-324 290,-324 290,-288 344,-288 344,-324"/>
<text text-anchor="middle" x="317" y="-303.5" font-family="Helvetica,sans-Serif" font-size="10.00">options</text>
</a>
</g>
</g>
<!-- dir_cf5eb0d6d3ae5860ebe15627a7d6d0f6&#45;&gt;dir_7368f1a5a3cf04a409e4d90d99595fa7 -->
<g id="edge1" class="edge"><title>dir_cf5eb0d6d3ae5860ebe15627a7d6d0f6&#45;&gt;dir_7368f1a5a3cf04a409e4d90d99595fa7</title>
<path fill="none" stroke="black" d="M140.212,-434.715C158.873,-424.585 183.963,-410.301 205,-396 235.183,-375.481 267.62,-349.192 289.777,-330.519"/>
<polygon fill="black" stroke="black" points="292.09,-333.147 297.452,-324.009 287.562,-327.809 292.09,-333.147"/>
<g id="a_edge1&#45;headlabel"><a xlink:href="dir_000086_000061.xhtml" target="_top" xlink:title="24">
<text text-anchor="middle" x="291.185" y="-335.137" font-family="Helvetica,sans-Serif" font-size="10.00">24</text>
</a>
</g>
</g>
<!-- dir_7cacf6b47314a2b927cacd0502911e15 -->
<g id="node5" class="node"><title>dir_7cacf6b47314a2b927cacd0502911e15</title>
<g id="a_node5"><a xlink:href="dir_7cacf6b47314a2b927cacd0502911e15.xhtml" target="_top" xlink:title="random">
<polygon fill="white" stroke="red" points="82,-324 28,-324 28,-288 82,-288 82,-324"/>
<text text-anchor="middle" x="55" y="-303.5" font-family="Helvetica,sans-Serif" font-size="10.00">random</text>
</a>
</g>
</g>
<!-- dir_cf5eb0d6d3ae5860ebe15627a7d6d0f6&#45;&gt;dir_7cacf6b47314a2b927cacd0502911e15 -->
<g id="edge2" class="edge"><title>dir_cf5eb0d6d3ae5860ebe15627a7d6d0f6&#45;&gt;dir_7cacf6b47314a2b927cacd0502911e15</title>
<path fill="none" stroke="black" d="M106.004,-431.871C96.0317,-407.457 77.6387,-362.426 65.8791,-333.635"/>
<polygon fill="black" stroke="black" points="69.0424,-332.123 62.021,-324.189 62.5621,-334.77 69.0424,-332.123"/>
<g id="a_edge2&#45;headlabel"><a xlink:href="dir_000086_000066.xhtml" target="_top" xlink:title="2">
<text text-anchor="middle" x="73.03" y="-331.878" font-family="Helvetica,sans-Serif" font-size="10.00">2</text>
</a>
</g>
</g>
<!-- dir_069a72e2096440213f56c93a40bc8b09 -->
<g id="node6" class="node"><title>dir_069a72e2096440213f56c93a40bc8b09</title>
<g id="a_node6"><a xlink:href="dir_069a72e2096440213f56c93a40bc8b09.xhtml" target="_top" xlink:title="math">
<polygon fill="white" stroke="red" points="158,-252 104,-252 104,-216 158,-216 158,-252"/>
<text text-anchor="middle" x="131" y="-231.5" font-family="Helvetica,sans-Serif" font-size="10.00">math</text>
</a>
</g>
</g>
<!-- dir_cf5eb0d6d3ae5860ebe15627a7d6d0f6&#45;&gt;dir_069a72e2096440213f56c93a40bc8b09 -->
<g id="edge3" class="edge"><title>dir_cf5eb0d6d3ae5860ebe15627a7d6d0f6&#45;&gt;dir_069a72e2096440213f56c93a40bc8b09</title>
<path fill="none" stroke="black" d="M114.443,-431.849C117.556,-394.832 124.929,-307.181 128.696,-262.386"/>
<polygon fill="black" stroke="black" points="132.2,-262.491 129.551,-252.232 125.225,-261.904 132.2,-262.491"/>
<g id="a_edge3&#45;headlabel"><a xlink:href="dir_000086_000047.xhtml" target="_top" xlink:title="3">
<text text-anchor="middle" x="134.728" y="-263.811" font-family="Helvetica,sans-Serif" font-size="10.00">3</text>
</a>
</g>
</g>
<!-- dir_3065e2635695cb7dc351f585e5b100ac -->
<g id="node8" class="node"><title>dir_3065e2635695cb7dc351f585e5b100ac</title>
<g id="a_node8"><a xlink:href="dir_3065e2635695cb7dc351f585e5b100ac.xhtml" target="_top" xlink:title="analysisdata">
<polygon fill="white" stroke="red" points="346.5,-468 275.5,-468 275.5,-432 346.5,-432 346.5,-468"/>
<text text-anchor="middle" x="311" y="-447.5" font-family="Helvetica,sans-Serif" font-size="10.00">analysisdata</text>
</a>
</g>
</g>
<!-- dir_cf5eb0d6d3ae5860ebe15627a7d6d0f6&#45;&gt;dir_3065e2635695cb7dc351f585e5b100ac -->
<g id="edge4" class="edge"><title>dir_cf5eb0d6d3ae5860ebe15627a7d6d0f6&#45;&gt;dir_3065e2635695cb7dc351f585e5b100ac</title>
<path fill="none" stroke="black" d="M140.07,-450C181.795,-450 223.519,-450 265.243,-450"/>
<polygon fill="black" stroke="black" points="265.278,-453.5 275.278,-450 265.278,-446.5 265.278,-453.5"/>
<g id="a_edge4&#45;headlabel"><a xlink:href="dir_000086_000006.xhtml" target="_top" xlink:title="28">
<text text-anchor="middle" x="261.684" y="-453.839" font-family="Helvetica,sans-Serif" font-size="10.00">28</text>
</a>
</g>
</g>
<!-- dir_e7e88b26b6f22ac834fce3ecdbf03d20 -->
<g id="node9" class="node"><title>dir_e7e88b26b6f22ac834fce3ecdbf03d20</title>
<g id="a_node9"><a xlink:href="dir_e7e88b26b6f22ac834fce3ecdbf03d20.xhtml" target="_top" xlink:title="selection">
<polygon fill="white" stroke="red" points="196,-396 140,-396 140,-360 196,-360 196,-396"/>
<text text-anchor="middle" x="168" y="-375.5" font-family="Helvetica,sans-Serif" font-size="10.00">selection</text>
</a>
</g>
</g>
<!-- dir_cf5eb0d6d3ae5860ebe15627a7d6d0f6&#45;&gt;dir_e7e88b26b6f22ac834fce3ecdbf03d20 -->
<g id="edge5" class="edge"><title>dir_cf5eb0d6d3ae5860ebe15627a7d6d0f6&#45;&gt;dir_e7e88b26b6f22ac834fce3ecdbf03d20</title>
<path fill="none" stroke="black" d="M126.596,-431.697C133.123,-423.389 141.068,-413.277 148.247,-404.141"/>
<polygon fill="black" stroke="black" points="151.135,-406.13 154.561,-396.104 145.631,-401.805 151.135,-406.13"/>
<g id="a_edge5&#45;headlabel"><a xlink:href="dir_000086_000068.xhtml" target="_top" xlink:title="20">
<text text-anchor="middle" x="151.147" y="-408.211" font-family="Helvetica,sans-Serif" font-size="10.00">20</text>
</a>
</g>
</g>
<!-- dir_a64a619a73689309b11b91ae52c63e36 -->
<g id="node10" class="node"><title>dir_a64a619a73689309b11b91ae52c63e36</title>
<g id="a_node10"><a xlink:href="dir_a64a619a73689309b11b91ae52c63e36.xhtml" target="_top" xlink:title="utility">
<polygon fill="white" stroke="red" points="312,-36 258,-36 258,-0 312,-0 312,-36"/>
<text text-anchor="middle" x="285" y="-15.5" font-family="Helvetica,sans-Serif" font-size="10.00">utility</text>
</a>
</g>
</g>
<!-- dir_cf5eb0d6d3ae5860ebe15627a7d6d0f6&#45;&gt;dir_a64a619a73689309b11b91ae52c63e36 -->
<g id="edge6" class="edge"><title>dir_cf5eb0d6d3ae5860ebe15627a7d6d0f6&#45;&gt;dir_a64a619a73689309b11b91ae52c63e36</title>
<path fill="none" stroke="black" d="M86.2206,-431.907C52.8049,-408.247 0,-362.135 0,-307 0,-307 0,-307 0,-161 0,-51.5776 170.385,-26.473 247.671,-20.714"/>
<polygon fill="black" stroke="black" points="248.189,-24.1871 257.931,-20.023 247.718,-17.203 248.189,-24.1871"/>
<g id="a_edge6&#45;headlabel"><a xlink:href="dir_000086_000087.xhtml" target="_top" xlink:title="35">
<text text-anchor="middle" x="244.793" y="-24.7614" font-family="Helvetica,sans-Serif" font-size="10.00">35</text>
</a>
</g>
</g>
<!-- dir_01b41464da2165fc025336bf5adb4e86 -->
<g id="node3" class="node"><title>dir_01b41464da2165fc025336bf5adb4e86</title>
<g id="a_node3"><a xlink:href="dir_01b41464da2165fc025336bf5adb4e86.xhtml" target="_top" xlink:title="tests">
<polygon fill="white" stroke="black" points="140,-540 86,-540 86,-504 140,-504 140,-540"/>
<text text-anchor="middle" x="113" y="-519.5" font-family="Helvetica,sans-Serif" font-size="10.00">tests</text>
</a>
</g>
</g>
<!-- dir_01b41464da2165fc025336bf5adb4e86&#45;&gt;dir_cf5eb0d6d3ae5860ebe15627a7d6d0f6 -->
<g id="edge14" class="edge"><title>dir_01b41464da2165fc025336bf5adb4e86&#45;&gt;dir_cf5eb0d6d3ae5860ebe15627a7d6d0f6</title>
<path fill="none" stroke="black" d="M113,-503.697C113,-495.983 113,-486.712 113,-478.112"/>
<polygon fill="black" stroke="black" points="116.5,-478.104 113,-468.104 109.5,-478.104 116.5,-478.104"/>
<g id="a_edge14&#45;headlabel"><a xlink:href="dir_000085_000086.xhtml" target="_top" xlink:title="9">
<text text-anchor="middle" x="119.339" y="-479.199" font-family="Helvetica,sans-Serif" font-size="10.00">9</text>
</a>
</g>
</g>
<!-- dir_01b41464da2165fc025336bf5adb4e86&#45;&gt;dir_7368f1a5a3cf04a409e4d90d99595fa7 -->
<g id="edge15" class="edge"><title>dir_01b41464da2165fc025336bf5adb4e86&#45;&gt;dir_7368f1a5a3cf04a409e4d90d99595fa7</title>
<path fill="none" stroke="black" d="M140.211,-507.225C143.135,-506.025 146.101,-504.919 149,-504 237.595,-475.904 295.203,-539.153 355,-468 387.566,-429.249 357.278,-367.542 335.247,-332.857"/>
<polygon fill="black" stroke="black" points="338.004,-330.679 329.589,-324.241 332.153,-334.521 338.004,-330.679"/>
<g id="a_edge15&#45;headlabel"><a xlink:href="dir_000085_000061.xhtml" target="_top" xlink:title="4">
<text text-anchor="middle" x="342.35" y="-329.625" font-family="Helvetica,sans-Serif" font-size="10.00">4</text>
</a>
</g>
</g>
<!-- dir_01b41464da2165fc025336bf5adb4e86&#45;&gt;dir_7cacf6b47314a2b927cacd0502911e15 -->
<g id="edge16" class="edge"><title>dir_01b41464da2165fc025336bf5adb4e86&#45;&gt;dir_7cacf6b47314a2b927cacd0502911e15</title>
<path fill="none" stroke="black" d="M98.0961,-503.53C90.5399,-493.715 81.9392,-480.878 77,-468 59.8456,-423.273 55.769,-367.046 54.9685,-334.254"/>
<polygon fill="black" stroke="black" points="58.4654,-334.025 54.8085,-324.082 51.4663,-334.135 58.4654,-334.025"/>
<g id="a_edge16&#45;headlabel"><a xlink:href="dir_000085_000066.xhtml" target="_top" xlink:title="2">
<text text-anchor="middle" x="61.3608" y="-335.075" font-family="Helvetica,sans-Serif" font-size="10.00">2</text>
</a>
</g>
</g>
<!-- dir_d2bee95dce64d4fd80a3640d91ab4935 -->
<g id="node7" class="node"><title>dir_d2bee95dce64d4fd80a3640d91ab4935</title>
<g id="a_node7"><a xlink:href="dir_d2bee95dce64d4fd80a3640d91ab4935.xhtml" target="_top" xlink:title="testutils">
<polygon fill="white" stroke="red" points="312,-180 258,-180 258,-144 312,-144 312,-180"/>
<text text-anchor="middle" x="285" y="-159.5" font-family="Helvetica,sans-Serif" font-size="10.00">testutils</text>
</a>
</g>
</g>
<!-- dir_01b41464da2165fc025336bf5adb4e86&#45;&gt;dir_d2bee95dce64d4fd80a3640d91ab4935 -->
<g id="edge17" class="edge"><title>dir_01b41464da2165fc025336bf5adb4e86&#45;&gt;dir_d2bee95dce64d4fd80a3640d91ab4935</title>
<path fill="none" stroke="black" d="M135.631,-503.879C147.259,-494.262 161.037,-481.499 171,-468 237.067,-378.482 268.93,-246.332 280.132,-190.014"/>
<polygon fill="black" stroke="black" points="283.586,-190.584 282.043,-180.102 276.713,-189.258 283.586,-190.584"/>
<g id="a_edge17&#45;headlabel"><a xlink:href="dir_000085_000090.xhtml" target="_top" xlink:title="30">
<text text-anchor="middle" x="285.693" y="-192.151" font-family="Helvetica,sans-Serif" font-size="10.00">30</text>
</a>
</g>
</g>
<!-- dir_01b41464da2165fc025336bf5adb4e86&#45;&gt;dir_3065e2635695cb7dc351f585e5b100ac -->
<g id="edge18" class="edge"><title>dir_01b41464da2165fc025336bf5adb4e86&#45;&gt;dir_3065e2635695cb7dc351f585e5b100ac</title>
<path fill="none" stroke="black" d="M140.35,-507.617C143.247,-506.34 146.169,-505.11 149,-504 198.469,-484.612 212.617,-484.872 263,-468 263.88,-467.705 264.769,-467.406 265.664,-467.103"/>
<polygon fill="black" stroke="black" points="267.076,-470.319 275.399,-463.763 264.804,-463.698 267.076,-470.319"/>
<g id="a_edge18&#45;headlabel"><a xlink:href="dir_000085_000006.xhtml" target="_top" xlink:title="1">
<text text-anchor="middle" x="264.598" y="-471.671" font-family="Helvetica,sans-Serif" font-size="10.00">1</text>
</a>
</g>
</g>
<!-- dir_01b41464da2165fc025336bf5adb4e86&#45;&gt;dir_e7e88b26b6f22ac834fce3ecdbf03d20 -->
<g id="edge19" class="edge"><title>dir_01b41464da2165fc025336bf5adb4e86&#45;&gt;dir_e7e88b26b6f22ac834fce3ecdbf03d20</title>
<path fill="none" stroke="black" d="M127.165,-503.851C134.69,-493.93 143.497,-480.89 149,-468 157.413,-448.293 162.245,-424.488 164.928,-406.458"/>
<polygon fill="black" stroke="black" points="168.427,-406.705 166.303,-396.326 161.49,-405.764 168.427,-406.705"/>
<g id="a_edge19&#45;headlabel"><a xlink:href="dir_000085_000068.xhtml" target="_top" xlink:title="2">
<text text-anchor="middle" x="170.757" y="-408.149" font-family="Helvetica,sans-Serif" font-size="10.00">2</text>
</a>
</g>
</g>
<!-- dir_01b41464da2165fc025336bf5adb4e86&#45;&gt;dir_a64a619a73689309b11b91ae52c63e36 -->
<g id="edge20" class="edge"><title>dir_01b41464da2165fc025336bf5adb4e86&#45;&gt;dir_a64a619a73689309b11b91ae52c63e36</title>
<path fill="none" stroke="black" d="M140.168,-507.085C143.101,-505.912 146.08,-504.851 149,-504 271.149,-468.395 315.644,-517.15 433,-468 491.966,-443.304 546,-442.929 546,-379 546,-379 546,-379 546,-161 546,-60.4541 394.697,-30.6981 322.49,-22.2224"/>
<polygon fill="black" stroke="black" points="322.76,-18.7311 312.438,-21.1204 321.997,-25.6894 322.76,-18.7311"/>
<g id="a_edge20&#45;headlabel"><a xlink:href="dir_000085_000087.xhtml" target="_top" xlink:title="7">
<text text-anchor="middle" x="326.643" y="-13.8004" font-family="Helvetica,sans-Serif" font-size="10.00">7</text>
</a>
</g>
</g>
<!-- dir_8421296c7609edc59eb72e40bf8e93a8 -->
<g id="node11" class="node"><title>dir_8421296c7609edc59eb72e40bf8e93a8</title>
<g id="a_node11"><a xlink:href="dir_8421296c7609edc59eb72e40bf8e93a8.xhtml" target="_top" xlink:title="commandline">
<polygon fill="white" stroke="red" points="396,-108 322,-108 322,-72 396,-72 396,-108"/>
<text text-anchor="middle" x="359" y="-87.5" font-family="Helvetica,sans-Serif" font-size="10.00">commandline</text>
</a>
</g>
</g>
<!-- dir_01b41464da2165fc025336bf5adb4e86&#45;&gt;dir_8421296c7609edc59eb72e40bf8e93a8 -->
<g id="edge21" class="edge"><title>dir_01b41464da2165fc025336bf5adb4e86&#45;&gt;dir_8421296c7609edc59eb72e40bf8e93a8</title>
<path fill="none" stroke="black" d="M140.196,-507.176C143.123,-505.985 146.094,-504.896 149,-504 247.04,-473.792 285.076,-513.545 377,-468 428.264,-442.601 470,-436.211 470,-379 470,-379 470,-379 470,-305 470,-229.319 414.62,-153.782 382.094,-115.945"/>
<polygon fill="black" stroke="black" points="384.368,-113.23 375.14,-108.023 379.107,-117.848 384.368,-113.23"/>
<g id="a_edge21&#45;headlabel"><a xlink:href="dir_000085_000013.xhtml" target="_top" xlink:title="3">
<text text-anchor="middle" x="388.873" y="-111.558" font-family="Helvetica,sans-Serif" font-size="10.00">3</text>
</a>
</g>
</g>
<!-- dir_7368f1a5a3cf04a409e4d90d99595fa7&#45;&gt;dir_d2bee95dce64d4fd80a3640d91ab4935 -->
<g id="edge7" class="edge"><title>dir_7368f1a5a3cf04a409e4d90d99595fa7&#45;&gt;dir_d2bee95dce64d4fd80a3640d91ab4935</title>
<path fill="none" stroke="black" d="M308.556,-287.871C300.543,-263.67 290.233,-219.211 285.714,-190.393"/>
<polygon fill="black" stroke="black" points="289.138,-189.606 284.283,-180.189 282.206,-190.579 289.138,-189.606"/>
<g id="a_edge7&#45;headlabel"><a xlink:href="dir_000061_000090.xhtml" target="_top" xlink:title="11">
<text text-anchor="middle" x="292.449" y="-190.271" font-family="Helvetica,sans-Serif" font-size="10.00">11</text>
</a>
</g>
</g>
<!-- dir_7368f1a5a3cf04a409e4d90d99595fa7&#45;&gt;dir_a64a619a73689309b11b91ae52c63e36 -->
<g id="edge8" class="edge"><title>dir_7368f1a5a3cf04a409e4d90d99595fa7&#45;&gt;dir_a64a619a73689309b11b91ae52c63e36</title>
<path fill="none" stroke="black" d="M333.734,-287.742C370.732,-247.436 452.563,-145.002 405,-72 386.785,-44.0432 350.116,-30.7268 322.081,-24.4501"/>
<polygon fill="black" stroke="black" points="322.69,-21.0023 312.194,-22.442 321.297,-27.8623 322.69,-21.0023"/>
<g id="a_edge8&#45;headlabel"><a xlink:href="dir_000061_000087.xhtml" target="_top" xlink:title="74">
<text text-anchor="middle" x="326.778" y="-16.4352" font-family="Helvetica,sans-Serif" font-size="10.00">74</text>
</a>
</g>
</g>
<!-- dir_7cacf6b47314a2b927cacd0502911e15&#45;&gt;dir_069a72e2096440213f56c93a40bc8b09 -->
<g id="edge9" class="edge"><title>dir_7cacf6b47314a2b927cacd0502911e15&#45;&gt;dir_069a72e2096440213f56c93a40bc8b09</title>
<path fill="none" stroke="black" d="M73.7865,-287.697C83.174,-279.05 94.6844,-268.449 104.913,-259.027"/>
<polygon fill="black" stroke="black" points="107.445,-261.454 112.43,-252.104 102.703,-256.305 107.445,-261.454"/>
<g id="a_edge9&#45;headlabel"><a xlink:href="dir_000066_000047.xhtml" target="_top" xlink:title="4">
<text text-anchor="middle" x="106.725" y="-263.477" font-family="Helvetica,sans-Serif" font-size="10.00">4</text>
</a>
</g>
</g>
<!-- dir_7cacf6b47314a2b927cacd0502911e15&#45;&gt;dir_d2bee95dce64d4fd80a3640d91ab4935 -->
<g id="edge10" class="edge"><title>dir_7cacf6b47314a2b927cacd0502911e15&#45;&gt;dir_d2bee95dce64d4fd80a3640d91ab4935</title>
<path fill="none" stroke="black" d="M58.1169,-287.973C62.6902,-267.863 73.1646,-234.777 95,-216 138.326,-178.744 205.891,-167.538 247.692,-164.251"/>
<polygon fill="black" stroke="black" points="247.991,-167.739 257.733,-163.575 247.521,-160.755 247.991,-167.739"/>
<g id="a_edge10&#45;headlabel"><a xlink:href="dir_000066_000090.xhtml" target="_top" xlink:title="14">
<text text-anchor="middle" x="244.595" y="-168.313" font-family="Helvetica,sans-Serif" font-size="10.00">14</text>
</a>
</g>
</g>
<!-- dir_7cacf6b47314a2b927cacd0502911e15&#45;&gt;dir_a64a619a73689309b11b91ae52c63e36 -->
<g id="edge11" class="edge"><title>dir_7cacf6b47314a2b927cacd0502911e15&#45;&gt;dir_a64a619a73689309b11b91ae52c63e36</title>
<path fill="none" stroke="black" d="M55.4299,-287.846C56.3169,-269.606 58.9922,-240.119 67,-216 90.0695,-146.516 91.7263,-120.011 147,-72 175.772,-47.009 217.596,-33.1778 247.651,-25.9683"/>
<polygon fill="black" stroke="black" points="248.767,-29.3045 257.75,-23.687 247.224,-22.4765 248.767,-29.3045"/>
<g id="a_edge11&#45;headlabel"><a xlink:href="dir_000066_000087.xhtml" target="_top" xlink:title="19">
<text text-anchor="middle" x="245.886" y="-30.366" font-family="Helvetica,sans-Serif" font-size="10.00">19</text>
</a>
</g>
</g>
<!-- dir_069a72e2096440213f56c93a40bc8b09&#45;&gt;dir_d2bee95dce64d4fd80a3640d91ab4935 -->
<g id="edge12" class="edge"><title>dir_069a72e2096440213f56c93a40bc8b09&#45;&gt;dir_d2bee95dce64d4fd80a3640d91ab4935</title>
<path fill="none" stroke="black" d="M158.178,-220.647C183.281,-209.236 220.766,-192.197 248.477,-179.601"/>
<polygon fill="black" stroke="black" points="250.18,-182.672 257.836,-175.347 247.284,-176.299 250.18,-182.672"/>
<g id="a_edge12&#45;headlabel"><a xlink:href="dir_000047_000090.xhtml" target="_top" xlink:title="3">
<text text-anchor="middle" x="248.083" y="-184.244" font-family="Helvetica,sans-Serif" font-size="10.00">3</text>
</a>
</g>
</g>
<!-- dir_069a72e2096440213f56c93a40bc8b09&#45;&gt;dir_a64a619a73689309b11b91ae52c63e36 -->
<g id="edge13" class="edge"><title>dir_069a72e2096440213f56c93a40bc8b09&#45;&gt;dir_a64a619a73689309b11b91ae52c63e36</title>
<path fill="none" stroke="black" d="M130.79,-215.847C131.295,-183.904 136.715,-114.683 172,-72 191.172,-48.8079 222.795,-35.1815 247.719,-27.5674"/>
<polygon fill="black" stroke="black" points="248.933,-30.861 257.59,-24.7533 247.013,-24.1293 248.933,-30.861"/>
<g id="a_edge13&#45;headlabel"><a xlink:href="dir_000047_000087.xhtml" target="_top" xlink:title="25">
<text text-anchor="middle" x="246.254" y="-32.077" font-family="Helvetica,sans-Serif" font-size="10.00">25</text>
</a>
</g>
</g>
<!-- dir_d2bee95dce64d4fd80a3640d91ab4935&#45;&gt;dir_7368f1a5a3cf04a409e4d90d99595fa7 -->
<g id="edge22" class="edge"><title>dir_d2bee95dce64d4fd80a3640d91ab4935&#45;&gt;dir_7368f1a5a3cf04a409e4d90d99595fa7</title>
<path fill="none" stroke="black" d="M293.465,-180.189C301.481,-204.424 311.788,-248.888 316.297,-277.679"/>
<polygon fill="black" stroke="black" points="312.871,-278.454 317.725,-287.871 319.804,-277.483 312.871,-278.454"/>
<g id="a_edge22&#45;headlabel"><a xlink:href="dir_000090_000061.xhtml" target="_top" xlink:title="12">
<text text-anchor="middle" x="309.561" y="-272.787" font-family="Helvetica,sans-Serif" font-size="10.00">12</text>
</a>
</g>
</g>
<!-- dir_d2bee95dce64d4fd80a3640d91ab4935&#45;&gt;dir_a64a619a73689309b11b91ae52c63e36 -->
<g id="edge23" class="edge"><title>dir_d2bee95dce64d4fd80a3640d91ab4935&#45;&gt;dir_a64a619a73689309b11b91ae52c63e36</title>
<path fill="none" stroke="black" d="M280.416,-143.871C277.857,-119.67 277.566,-75.2108 279.541,-46.3932"/>
<polygon fill="black" stroke="black" points="283.049,-46.45 280.409,-36.1893 276.074,-45.8566 283.049,-46.45"/>
<g id="a_edge23&#45;headlabel"><a xlink:href="dir_000090_000087.xhtml" target="_top" xlink:title="80">
<text text-anchor="middle" x="285.573" y="-47.7723" font-family="Helvetica,sans-Serif" font-size="10.00">80</text>
</a>
</g>
</g>
<!-- dir_d2bee95dce64d4fd80a3640d91ab4935&#45;&gt;dir_8421296c7609edc59eb72e40bf8e93a8 -->
<g id="edge24" class="edge"><title>dir_d2bee95dce64d4fd80a3640d91ab4935&#45;&gt;dir_8421296c7609edc59eb72e40bf8e93a8</title>
<path fill="none" stroke="black" d="M297.376,-143.697C305.706,-134.965 316.872,-124.24 327.463,-114.75"/>
<polygon fill="black" stroke="black" points="329.823,-117.335 335.023,-108.104 325.202,-112.078 329.823,-117.335"/>
<g id="a_edge24&#45;headlabel"><a xlink:href="dir_000090_000013.xhtml" target="_top" xlink:title="8">
<text text-anchor="middle" x="328.998" y="-119.341" font-family="Helvetica,sans-Serif" font-size="10.00">8</text>
</a>
</g>
</g>
<!-- dir_3065e2635695cb7dc351f585e5b100ac&#45;&gt;dir_7368f1a5a3cf04a409e4d90d99595fa7 -->
<g id="edge25" class="edge"><title>dir_3065e2635695cb7dc351f585e5b100ac&#45;&gt;dir_7368f1a5a3cf04a409e4d90d99595fa7</title>
<path fill="none" stroke="black" d="M311.724,-431.871C312.746,-407.67 314.625,-363.211 315.843,-334.393"/>
<polygon fill="black" stroke="black" points="319.348,-334.328 316.274,-324.189 312.355,-334.033 319.348,-334.328"/>
<g id="a_edge25&#45;headlabel"><a xlink:href="dir_000006_000061.xhtml" target="_top" xlink:title="4">
<text text-anchor="middle" x="322.033" y="-335.539" font-family="Helvetica,sans-Serif" font-size="10.00">4</text>
</a>
</g>
</g>
<!-- dir_3065e2635695cb7dc351f585e5b100ac&#45;&gt;dir_d2bee95dce64d4fd80a3640d91ab4935 -->
<g id="edge26" class="edge"><title>dir_3065e2635695cb7dc351f585e5b100ac&#45;&gt;dir_d2bee95dce64d4fd80a3640d91ab4935</title>
<path fill="none" stroke="black" d="M320.749,-431.774C336.13,-402.494 363.279,-341.031 353,-288 346.436,-254.132 340.8,-246.131 324,-216 318.743,-206.571 312.052,-196.881 305.703,-188.408"/>
<polygon fill="black" stroke="black" points="308.408,-186.183 299.534,-180.395 302.861,-190.454 308.408,-186.183"/>
<g id="a_edge26&#45;headlabel"><a xlink:href="dir_000006_000090.xhtml" target="_top" xlink:title="10">
<text text-anchor="middle" x="312.85" y="-184.799" font-family="Helvetica,sans-Serif" font-size="10.00">10</text>
</a>
</g>
</g>
<!-- dir_3065e2635695cb7dc351f585e5b100ac&#45;&gt;dir_e7e88b26b6f22ac834fce3ecdbf03d20 -->
<g id="edge27" class="edge"><title>dir_3065e2635695cb7dc351f585e5b100ac&#45;&gt;dir_e7e88b26b6f22ac834fce3ecdbf03d20</title>
<path fill="none" stroke="black" d="M288.243,-431.764C280.475,-426.318 271.58,-420.542 263,-416 244.785,-406.358 223.487,-397.833 205.678,-391.403"/>
<polygon fill="black" stroke="black" points="206.78,-388.08 196.185,-388.053 204.45,-394.681 206.78,-388.08"/>
<g id="a_edge27&#45;headlabel"><a xlink:href="dir_000006_000068.xhtml" target="_top" xlink:title="1">
<text text-anchor="middle" x="211.114" y="-384.099" font-family="Helvetica,sans-Serif" font-size="10.00">1</text>
</a>
</g>
</g>
<!-- dir_3065e2635695cb7dc351f585e5b100ac&#45;&gt;dir_a64a619a73689309b11b91ae52c63e36 -->
<g id="edge28" class="edge"><title>dir_3065e2635695cb7dc351f585e5b100ac&#45;&gt;dir_a64a619a73689309b11b91ae52c63e36</title>
<path fill="none" stroke="black" d="M329.152,-431.751C338.546,-422.001 349.571,-409.155 357,-396 429.4,-267.802 510.652,-192.459 426,-72 402.663,-38.7921 355.798,-26.3693 322.51,-21.7348"/>
<polygon fill="black" stroke="black" points="322.576,-18.2171 312.227,-20.4872 321.732,-25.1661 322.576,-18.2171"/>
<g id="a_edge28&#45;headlabel"><a xlink:href="dir_000006_000087.xhtml" target="_top" xlink:title="51">
<text text-anchor="middle" x="326.486" y="-13.3313" font-family="Helvetica,sans-Serif" font-size="10.00">51</text>
</a>
</g>
</g>
<!-- dir_e7e88b26b6f22ac834fce3ecdbf03d20&#45;&gt;dir_7368f1a5a3cf04a409e4d90d99595fa7 -->
<g id="edge29" class="edge"><title>dir_e7e88b26b6f22ac834fce3ecdbf03d20&#45;&gt;dir_7368f1a5a3cf04a409e4d90d99595fa7</title>
<path fill="none" stroke="black" d="M196.026,-363.834C219.976,-352.582 254.596,-336.317 280.67,-324.068"/>
<polygon fill="black" stroke="black" points="282.291,-327.173 289.854,-319.753 279.315,-320.838 282.291,-327.173"/>
<g id="a_edge29&#45;headlabel"><a xlink:href="dir_000068_000061.xhtml" target="_top" xlink:title="16">
<text text-anchor="middle" x="280.245" y="-328.771" font-family="Helvetica,sans-Serif" font-size="10.00">16</text>
</a>
</g>
</g>
<!-- dir_e7e88b26b6f22ac834fce3ecdbf03d20&#45;&gt;dir_7cacf6b47314a2b927cacd0502911e15 -->
<g id="edge30" class="edge"><title>dir_e7e88b26b6f22ac834fce3ecdbf03d20&#45;&gt;dir_7cacf6b47314a2b927cacd0502911e15</title>
<path fill="none" stroke="black" d="M140.357,-359.876C125.472,-350.655 106.934,-339.172 90.9414,-329.265"/>
<polygon fill="black" stroke="black" points="92.7018,-326.238 82.3575,-323.947 89.0154,-332.189 92.7018,-326.238"/>
<g id="a_edge30&#45;headlabel"><a xlink:href="dir_000068_000066.xhtml" target="_top" xlink:title="2">
<text text-anchor="middle" x="97.2527" y="-323.217" font-family="Helvetica,sans-Serif" font-size="10.00">2</text>
</a>
</g>
</g>
<!-- dir_e7e88b26b6f22ac834fce3ecdbf03d20&#45;&gt;dir_069a72e2096440213f56c93a40bc8b09 -->
<g id="edge31" class="edge"><title>dir_e7e88b26b6f22ac834fce3ecdbf03d20&#45;&gt;dir_069a72e2096440213f56c93a40bc8b09</title>
<path fill="none" stroke="black" d="M163.537,-359.871C157.203,-335.564 145.544,-290.819 138.039,-262.013"/>
<polygon fill="black" stroke="black" points="141.387,-260.984 135.479,-252.189 134.613,-262.749 141.387,-260.984"/>
<g id="a_edge31&#45;headlabel"><a xlink:href="dir_000068_000047.xhtml" target="_top" xlink:title="3">
<text text-anchor="middle" x="145.041" y="-261.246" font-family="Helvetica,sans-Serif" font-size="10.00">3</text>
</a>
</g>
</g>
<!-- dir_e7e88b26b6f22ac834fce3ecdbf03d20&#45;&gt;dir_d2bee95dce64d4fd80a3640d91ab4935 -->
<g id="edge32" class="edge"><title>dir_e7e88b26b6f22ac834fce3ecdbf03d20&#45;&gt;dir_d2bee95dce64d4fd80a3640d91ab4935</title>
<path fill="none" stroke="black" d="M179.229,-359.649C185.638,-349.449 193.638,-336.199 200,-324 224.289,-277.426 222.181,-261.744 248,-216 253.295,-206.618 259.822,-196.82 265.912,-188.236"/>
<polygon fill="black" stroke="black" points="268.761,-190.269 271.795,-180.118 263.093,-186.162 268.761,-190.269"/>
<g id="a_edge32&#45;headlabel"><a xlink:href="dir_000068_000090.xhtml" target="_top" xlink:title="11">
<text text-anchor="middle" x="268.951" y="-192.346" font-family="Helvetica,sans-Serif" font-size="10.00">11</text>
</a>
</g>
</g>
<!-- dir_e7e88b26b6f22ac834fce3ecdbf03d20&#45;&gt;dir_a64a619a73689309b11b91ae52c63e36 -->
<g id="edge33" class="edge"><title>dir_e7e88b26b6f22ac834fce3ecdbf03d20&#45;&gt;dir_a64a619a73689309b11b91ae52c63e36</title>
<path fill="none" stroke="black" d="M171.643,-359.601C176.902,-332.918 186,-280.227 186,-235 186,-235 186,-235 186,-161 186,-112.378 225.542,-68.4969 254.645,-42.7844"/>
<polygon fill="black" stroke="black" points="257.218,-45.189 262.535,-36.0252 252.664,-39.8729 257.218,-45.189"/>
<g id="a_edge33&#45;headlabel"><a xlink:href="dir_000068_000087.xhtml" target="_top" xlink:title="146">
<text text-anchor="middle" x="256.335" y="-47.1838" font-family="Helvetica,sans-Serif" font-size="10.00">146</text>
</a>
</g>
</g>
<!-- dir_a64a619a73689309b11b91ae52c63e36&#45;&gt;dir_d2bee95dce64d4fd80a3640d91ab4935 -->
<g id="edge34" class="edge"><title>dir_a64a619a73689309b11b91ae52c63e36&#45;&gt;dir_d2bee95dce64d4fd80a3640d91ab4935</title>
<path fill="none" stroke="black" d="M289.591,-36.1893C292.145,-60.4244 292.433,-104.888 290.454,-133.679"/>
<polygon fill="black" stroke="black" points="286.947,-133.61 289.584,-143.871 293.922,-134.205 286.947,-133.61"/>
<g id="a_edge34&#45;headlabel"><a xlink:href="dir_000087_000090.xhtml" target="_top" xlink:title="10">
<text text-anchor="middle" x="284.424" y="-127.287" font-family="Helvetica,sans-Serif" font-size="10.00">10</text>
</a>
</g>
</g>
<!-- dir_8421296c7609edc59eb72e40bf8e93a8&#45;&gt;dir_7368f1a5a3cf04a409e4d90d99595fa7 -->
<g id="edge35" class="edge"><title>dir_8421296c7609edc59eb72e40bf8e93a8&#45;&gt;dir_7368f1a5a3cf04a409e4d90d99595fa7</title>
<path fill="none" stroke="black" d="M355.618,-108.232C348.323,-145.403 331.062,-233.352 322.3,-277.996"/>
<polygon fill="black" stroke="black" points="318.858,-277.362 320.366,-287.849 325.726,-278.711 318.858,-277.362"/>
<g id="a_edge35&#45;headlabel"><a xlink:href="dir_000013_000061.xhtml" target="_top" xlink:title="32">
<text text-anchor="middle" x="316.764" y="-270.788" font-family="Helvetica,sans-Serif" font-size="10.00">32</text>
</a>
</g>
</g>
<!-- dir_8421296c7609edc59eb72e40bf8e93a8&#45;&gt;dir_d2bee95dce64d4fd80a3640d91ab4935 -->
<g id="edge36" class="edge"><title>dir_8421296c7609edc59eb72e40bf8e93a8&#45;&gt;dir_d2bee95dce64d4fd80a3640d91ab4935</title>
<path fill="none" stroke="black" d="M346.813,-108.104C338.527,-116.805 327.378,-127.524 316.779,-137.033"/>
<polygon fill="black" stroke="black" points="314.402,-134.462 309.208,-143.697 319.027,-139.717 314.402,-134.462"/>
<g id="a_edge36&#45;headlabel"><a xlink:href="dir_000013_000090.xhtml" target="_top" xlink:title="14">
<text text-anchor="middle" x="315.225" y="-127.456" font-family="Helvetica,sans-Serif" font-size="10.00">14</text>
</a>
</g>
</g>
<!-- dir_8421296c7609edc59eb72e40bf8e93a8&#45;&gt;dir_a64a619a73689309b11b91ae52c63e36 -->
<g id="edge37" class="edge"><title>dir_8421296c7609edc59eb72e40bf8e93a8&#45;&gt;dir_a64a619a73689309b11b91ae52c63e36</title>
<path fill="none" stroke="black" d="M340.708,-71.6966C331.567,-63.0503 320.36,-52.4486 310.4,-43.027"/>
<polygon fill="black" stroke="black" points="312.752,-40.4337 303.082,-36.1043 307.941,-45.519 312.752,-40.4337"/>
<g id="a_edge37&#45;headlabel"><a xlink:href="dir_000013_000087.xhtml" target="_top" xlink:title="93">
<text text-anchor="middle" x="317.314" y="-38.3413" font-family="Helvetica,sans-Serif" font-size="10.00">93</text>
</a>
</g>
</g>
</g>
</svg>
