<?xml version="1.0" encoding="UTF-8" standalone="no"?>
<!DOCTYPE svg PUBLIC "-//W3C//DTD SVG 1.1//EN"
 "http://www.w3.org/Graphics/SVG/1.1/DTD/svg11.dtd">
<!-- Generated by graphviz version 2.38.0 (20140413.2041)
 -->
<!-- Title: src/gromacs/ewald/tests Pages: 1 -->
<svg width="212pt" height="295pt"
 viewBox="0.00 0.00 212.00 295.00" xmlns="http://www.w3.org/2000/svg" xmlns:xlink="http://www.w3.org/1999/xlink">
<g id="graph0" class="graph" transform="scale(1 1) rotate(0) translate(4 291)">
<title>src/gromacs/ewald/tests</title>
<polygon fill="white" stroke="none" points="-4,4 -4,-291 208,-291 208,4 -4,4"/>
<g id="clust1" class="cluster"><title>clusterdir_69ef3b2caaf4d875cb2a3215a087d3ea</title>
<g id="a_clust1"><a xlink:href="dir_69ef3b2caaf4d875cb2a3215a087d3ea.xhtml" target="_top" xlink:title="ewald">
<polygon fill="#ddddee" stroke="black" points="57,-208 57,-279 127,-279 127,-208 57,-208"/>
<text text-anchor="middle" x="92" y="-267" font-family="Helvetica,sans-Serif" font-size="10.00">ewald</text>
</a>
</g>
</g>
<!-- dir_4f37fa3e02d7a785bf9ab42925226ad8 -->
<g id="node1" class="node"><title>dir_4f37fa3e02d7a785bf9ab42925226ad8</title>
<g id="a_node1"><a xlink:href="dir_4f37fa3e02d7a785bf9ab42925226ad8.xhtml" target="_top" xlink:title="tests">
<polygon fill="#eeeeff" stroke="black" points="119,-252 65,-252 65,-216 119,-216 119,-252"/>
<text text-anchor="middle" x="92" y="-231.5" font-family="Helvetica,sans-Serif" font-size="10.00">tests</text>
</a>
</g>
</g>
<!-- dir_069a72e2096440213f56c93a40bc8b09 -->
<g id="node2" class="node"><title>dir_069a72e2096440213f56c93a40bc8b09</title>
<g id="a_node2"><a xlink:href="dir_069a72e2096440213f56c93a40bc8b09.xhtml" target="_top" xlink:title="math">
<polygon fill="white" stroke="red" points="92,-180 38,-180 38,-144 92,-144 92,-180"/>
<text text-anchor="middle" x="65" y="-159.5" font-family="Helvetica,sans-Serif" font-size="10.00">math</text>
</a>
</g>
</g>
<!-- dir_4f37fa3e02d7a785bf9ab42925226ad8&#45;&gt;dir_069a72e2096440213f56c93a40bc8b09 -->
<g id="edge6" class="edge"><title>dir_4f37fa3e02d7a785bf9ab42925226ad8&#45;&gt;dir_069a72e2096440213f56c93a40bc8b09</title>
<path fill="none" stroke="black" d="M85.3258,-215.697C82.2851,-207.813 78.6173,-198.304 75.2393,-189.546"/>
<polygon fill="black" stroke="black" points="78.4617,-188.175 71.5974,-180.104 71.9307,-190.694 78.4617,-188.175"/>
<g id="a_edge6&#45;headlabel"><a xlink:href="dir_000024_000047.xhtml" target="_top" xlink:title="1">
<text text-anchor="middle" x="82.4043" y="-188.007" font-family="Helvetica,sans-Serif" font-size="10.00">1</text>
</a>
</g>
</g>
<!-- dir_d2bee95dce64d4fd80a3640d91ab4935 -->
<g id="node3" class="node"><title>dir_d2bee95dce64d4fd80a3640d91ab4935</title>
<g id="a_node3"><a xlink:href="dir_d2bee95dce64d4fd80a3640d91ab4935.xhtml" target="_top" xlink:title="testutils">
<polygon fill="white" stroke="red" points="54,-108 0,-108 0,-72 54,-72 54,-108"/>
<text text-anchor="middle" x="27" y="-87.5" font-family="Helvetica,sans-Serif" font-size="10.00">testutils</text>
</a>
</g>
</g>
<!-- dir_4f37fa3e02d7a785bf9ab42925226ad8&#45;&gt;dir_d2bee95dce64d4fd80a3640d91ab4935 -->
<g id="edge7" class="edge"><title>dir_4f37fa3e02d7a785bf9ab42925226ad8&#45;&gt;dir_d2bee95dce64d4fd80a3640d91ab4935</title>
<path fill="none" stroke="black" d="M64.8079,-217.785C51.4387,-208.708 36.5983,-195.854 29,-180 19.7866,-160.776 19.9208,-136.432 22.0044,-118.065"/>
<polygon fill="black" stroke="black" points="25.4897,-118.412 23.4005,-108.025 18.5564,-117.448 25.4897,-118.412"/>
<g id="a_edge7&#45;headlabel"><a xlink:href="dir_000024_000090.xhtml" target="_top" xlink:title="9">
<text text-anchor="middle" x="27.8068" y="-119.863" font-family="Helvetica,sans-Serif" font-size="10.00">9</text>
</a>
</g>
</g>
<!-- dir_a64a619a73689309b11b91ae52c63e36 -->
<g id="node4" class="node"><title>dir_a64a619a73689309b11b91ae52c63e36</title>
<g id="a_node4"><a xlink:href="dir_a64a619a73689309b11b91ae52c63e36.xhtml" target="_top" xlink:title="utility">
<polygon fill="white" stroke="red" points="109,-36 55,-36 55,-0 109,-0 109,-36"/>
<text text-anchor="middle" x="82" y="-15.5" font-family="Helvetica,sans-Serif" font-size="10.00">utility</text>
</a>
</g>
</g>
<!-- dir_4f37fa3e02d7a785bf9ab42925226ad8&#45;&gt;dir_a64a619a73689309b11b91ae52c63e36 -->
<g id="edge8" class="edge"><title>dir_4f37fa3e02d7a785bf9ab42925226ad8&#45;&gt;dir_a64a619a73689309b11b91ae52c63e36</title>
<path fill="none" stroke="black" d="M95.6538,-215.908C97.6758,-205.569 99.9808,-192.09 101,-180 104.972,-132.881 95.5473,-78.265 88.5989,-46.2869"/>
<polygon fill="black" stroke="black" points="91.9733,-45.3394 86.3604,-36.3535 85.1445,-46.8783 91.9733,-45.3394"/>
<g id="a_edge8&#45;headlabel"><a xlink:href="dir_000024_000087.xhtml" target="_top" xlink:title="13">
<text text-anchor="middle" x="95.5332" y="-45.7219" font-family="Helvetica,sans-Serif" font-size="10.00">13</text>
</a>
</g>
</g>
<!-- dir_cbbda348be622d4188e9f9890e0fe79d -->
<g id="node5" class="node"><title>dir_cbbda348be622d4188e9f9890e0fe79d</title>
<g id="a_node5"><a xlink:href="dir_cbbda348be622d4188e9f9890e0fe79d.xhtml" target="_top" xlink:title="gpu_utils">
<polygon fill="white" stroke="red" points="204,-180 148,-180 148,-144 204,-144 204,-180"/>
<text text-anchor="middle" x="176" y="-159.5" font-family="Helvetica,sans-Serif" font-size="10.00">gpu_utils</text>
</a>
</g>
</g>
<!-- dir_4f37fa3e02d7a785bf9ab42925226ad8&#45;&gt;dir_cbbda348be622d4188e9f9890e0fe79d -->
<g id="edge9" class="edge"><title>dir_4f37fa3e02d7a785bf9ab42925226ad8&#45;&gt;dir_cbbda348be622d4188e9f9890e0fe79d</title>
<path fill="none" stroke="black" d="M112.764,-215.697C123.241,-206.965 136.111,-196.24 147.5,-186.75"/>
<polygon fill="black" stroke="black" points="150.033,-189.195 155.475,-180.104 145.552,-183.817 150.033,-189.195"/>
<g id="a_edge9&#45;headlabel"><a xlink:href="dir_000024_000039.xhtml" target="_top" xlink:title="2">
<text text-anchor="middle" x="149.089" y="-191.177" font-family="Helvetica,sans-Serif" font-size="10.00">2</text>
</a>
</g>
</g>
<!-- dir_069a72e2096440213f56c93a40bc8b09&#45;&gt;dir_d2bee95dce64d4fd80a3640d91ab4935 -->
<g id="edge1" class="edge"><title>dir_069a72e2096440213f56c93a40bc8b09&#45;&gt;dir_d2bee95dce64d4fd80a3640d91ab4935</title>
<path fill="none" stroke="black" d="M55.6067,-143.697C51.2351,-135.644 45.9427,-125.894 41.1047,-116.982"/>
<polygon fill="black" stroke="black" points="44.1322,-115.223 36.2852,-108.104 37.9802,-118.563 44.1322,-115.223"/>
<g id="a_edge1&#45;headlabel"><a xlink:href="dir_000047_000090.xhtml" target="_top" xlink:title="3">
<text text-anchor="middle" x="48.3424" y="-114.528" font-family="Helvetica,sans-Serif" font-size="10.00">3</text>
</a>
</g>
</g>
<!-- dir_069a72e2096440213f56c93a40bc8b09&#45;&gt;dir_a64a619a73689309b11b91ae52c63e36 -->
<g id="edge2" class="edge"><title>dir_069a72e2096440213f56c93a40bc8b09&#45;&gt;dir_a64a619a73689309b11b91ae52c63e36</title>
<path fill="none" stroke="black" d="M67.0506,-143.871C69.9479,-119.67 75.2705,-75.2108 78.7205,-46.3932"/>
<polygon fill="black" stroke="black" points="82.2285,-46.5344 79.9421,-36.1893 75.2782,-45.7023 82.2285,-46.5344"/>
<g id="a_edge2&#45;headlabel"><a xlink:href="dir_000047_000087.xhtml" target="_top" xlink:title="25">
<text text-anchor="middle" x="84.6205" y="-47.941" font-family="Helvetica,sans-Serif" font-size="10.00">25</text>
</a>
</g>
</g>
<!-- dir_d2bee95dce64d4fd80a3640d91ab4935&#45;&gt;dir_a64a619a73689309b11b91ae52c63e36 -->
<g id="edge3" class="edge"><title>dir_d2bee95dce64d4fd80a3640d91ab4935&#45;&gt;dir_a64a619a73689309b11b91ae52c63e36</title>
<path fill="none" stroke="black" d="M34.6798,-71.6966C40.4079,-63.3046 48.257,-53.0705 55.9744,-43.8613"/>
<polygon fill="black" stroke="black" points="58.7842,-45.9625 62.6658,-36.1043 53.4838,-41.3902 58.7842,-45.9625"/>
<g id="a_edge3&#45;headlabel"><a xlink:href="dir_000090_000087.xhtml" target="_top" xlink:title="80">
<text text-anchor="middle" x="58.5861" y="-48.0389" font-family="Helvetica,sans-Serif" font-size="10.00">80</text>
</a>
</g>
</g>
<!-- dir_a64a619a73689309b11b91ae52c63e36&#45;&gt;dir_d2bee95dce64d4fd80a3640d91ab4935 -->
<g id="edge4" class="edge"><title>dir_a64a619a73689309b11b91ae52c63e36&#45;&gt;dir_d2bee95dce64d4fd80a3640d91ab4935</title>
<path fill="none" stroke="black" d="M74.4559,-36.1043C68.7615,-44.467 60.9284,-54.6945 53.209,-63.9197"/>
<polygon fill="black" stroke="black" points="50.385,-61.8353 46.5112,-71.6966 55.6891,-66.4034 50.385,-61.8353"/>
<g id="a_edge4&#45;headlabel"><a xlink:href="dir_000087_000090.xhtml" target="_top" xlink:title="10">
<text text-anchor="middle" x="50.5793" y="-54.7588" font-family="Helvetica,sans-Serif" font-size="10.00">10</text>
</a>
</g>
</g>
<!-- dir_cbbda348be622d4188e9f9890e0fe79d&#45;&gt;dir_a64a619a73689309b11b91ae52c63e36 -->
<g id="edge5" class="edge"><title>dir_cbbda348be622d4188e9f9890e0fe79d&#45;&gt;dir_a64a619a73689309b11b91ae52c63e36</title>
<path fill="none" stroke="black" d="M169.831,-143.687C162.748,-125.051 150.015,-94.9924 134,-72 126.877,-61.7737 117.718,-51.7124 109.076,-43.1499"/>
<polygon fill="black" stroke="black" points="111.316,-40.4481 101.679,-36.0448 106.466,-45.4964 111.316,-40.4481"/>
<g id="a_edge5&#45;headlabel"><a xlink:href="dir_000039_000087.xhtml" target="_top" xlink:title="43">
<text text-anchor="middle" x="115.875" y="-38.3907" font-family="Helvetica,sans-Serif" font-size="10.00">43</text>
</a>
</g>
</g>
</g>
</svg>
