<?xml version="1.0" encoding="UTF-8" standalone="no"?>
<!DOCTYPE svg PUBLIC "-//W3C//DTD SVG 1.1//EN"
 "http://www.w3.org/Graphics/SVG/1.1/DTD/svg11.dtd">
<!-- Generated by graphviz version 2.38.0 (20140413.2041)
 -->
<!-- Title: src/gromacs/gmxlib Pages: 1 -->
<svg width="480pt" height="447pt"
 viewBox="0.00 0.00 479.92 447.00" xmlns="http://www.w3.org/2000/svg" xmlns:xlink="http://www.w3.org/1999/xlink">
<g id="graph0" class="graph" transform="scale(1 1) rotate(0) translate(4 443)">
<title>src/gromacs/gmxlib</title>
<polygon fill="white" stroke="none" points="-4,4 -4,-443 475.915,-443 475.915,4 -4,4"/>
<g id="clust1" class="cluster"><title>clusterdir_a46192700e9e8ed44c648f0a55ee9a53</title>
<g id="a_clust1"><a xlink:href="dir_a46192700e9e8ed44c648f0a55ee9a53.xhtml" target="_top" xlink:title="gromacs">
<polygon fill="#ddddee" stroke="black" points="177,-344 177,-431 345,-431 345,-344 177,-344"/>
<text text-anchor="middle" x="261" y="-419" font-family="Helvetica,sans-Serif" font-size="10.00">gromacs</text>
</a>
</g>
</g>
<g id="clust2" class="cluster"><title>clusterdir_6986e230a4339ebf0ae0e4adaee636b0</title>
<g id="a_clust2"><a xlink:href="dir_6986e230a4339ebf0ae0e4adaee636b0.xhtml" target="_top">
<polygon fill="#eeeeff" stroke="black" points="185,-352 185,-404 337,-404 337,-352 185,-352"/>
</a>
</g>
</g>
<!-- dir_6986e230a4339ebf0ae0e4adaee636b0 -->
<g id="node1" class="node"><title>dir_6986e230a4339ebf0ae0e4adaee636b0</title>
<text text-anchor="middle" x="302" y="-375.5" font-family="Helvetica,sans-Serif" font-size="10.00">gmxlib</text>
</g>
<!-- dir_3a4b0bcbd24753b24f34801caeb39283 -->
<g id="node4" class="node"><title>dir_3a4b0bcbd24753b24f34801caeb39283</title>
<g id="a_node4"><a xlink:href="dir_3a4b0bcbd24753b24f34801caeb39283.xhtml" target="_top" xlink:title="mdtypes">
<polygon fill="none" stroke="black" points="272,-180 218,-180 218,-144 272,-144 272,-180"/>
<text text-anchor="middle" x="245" y="-159.5" font-family="Helvetica,sans-Serif" font-size="10.00">mdtypes</text>
</a>
</g>
</g>
<!-- dir_6986e230a4339ebf0ae0e4adaee636b0&#45;&gt;dir_3a4b0bcbd24753b24f34801caeb39283 -->
<g id="edge1" class="edge"><title>dir_6986e230a4339ebf0ae0e4adaee636b0&#45;&gt;dir_3a4b0bcbd24753b24f34801caeb39283</title>
<path fill="none" stroke="black" d="M297.432,-359.849C287.551,-322.753 264.127,-234.81 252.219,-190.103"/>
<polygon fill="black" stroke="black" points="255.546,-188.995 249.59,-180.232 248.782,-190.796 255.546,-188.995"/>
<g id="a_edge1&#45;headlabel"><a xlink:href="dir_000031_000051.xhtml" target="_top" xlink:title="4">
<text text-anchor="middle" x="259.215" y="-189.237" font-family="Helvetica,sans-Serif" font-size="10.00">4</text>
</a>
</g>
</g>
<!-- dir_069a72e2096440213f56c93a40bc8b09 -->
<g id="node5" class="node"><title>dir_069a72e2096440213f56c93a40bc8b09</title>
<g id="a_node5"><a xlink:href="dir_069a72e2096440213f56c93a40bc8b09.xhtml" target="_top" xlink:title="math">
<polygon fill="white" stroke="red" points="217,-108 163,-108 163,-72 217,-72 217,-108"/>
<text text-anchor="middle" x="190" y="-87.5" font-family="Helvetica,sans-Serif" font-size="10.00">math</text>
</a>
</g>
</g>
<!-- dir_6986e230a4339ebf0ae0e4adaee636b0&#45;&gt;dir_069a72e2096440213f56c93a40bc8b09 -->
<g id="edge2" class="edge"><title>dir_6986e230a4339ebf0ae0e4adaee636b0&#45;&gt;dir_069a72e2096440213f56c93a40bc8b09</title>
<path fill="none" stroke="black" d="M305.511,-359.756C312.893,-318.6 325.868,-212.929 281,-144 268.372,-124.6 245.976,-111.426 226.564,-103.064"/>
<polygon fill="black" stroke="black" points="227.625,-99.7184 217.041,-99.2313 225.011,-106.212 227.625,-99.7184"/>
<g id="a_edge2&#45;headlabel"><a xlink:href="dir_000031_000047.xhtml" target="_top" xlink:title="4">
<text text-anchor="middle" x="232.019" y="-95.9266" font-family="Helvetica,sans-Serif" font-size="10.00">4</text>
</a>
</g>
</g>
<!-- dir_a64a619a73689309b11b91ae52c63e36 -->
<g id="node7" class="node"><title>dir_a64a619a73689309b11b91ae52c63e36</title>
<g id="a_node7"><a xlink:href="dir_a64a619a73689309b11b91ae52c63e36.xhtml" target="_top" xlink:title="utility">
<polygon fill="white" stroke="red" points="217,-36 163,-36 163,-0 217,-0 217,-36"/>
<text text-anchor="middle" x="190" y="-15.5" font-family="Helvetica,sans-Serif" font-size="10.00">utility</text>
</a>
</g>
</g>
<!-- dir_6986e230a4339ebf0ae0e4adaee636b0&#45;&gt;dir_a64a619a73689309b11b91ae52c63e36 -->
<g id="edge3" class="edge"><title>dir_6986e230a4339ebf0ae0e4adaee636b0&#45;&gt;dir_a64a619a73689309b11b91ae52c63e36</title>
<path fill="none" stroke="black" d="M329.251,-375.13C362.982,-371.298 419.782,-359.616 451,-324 477.661,-293.583 470,-275.447 470,-235 470,-235 470,-235 470,-161 470,-53.373 303.411,-27.295 227.225,-20.9962"/>
<polygon fill="black" stroke="black" points="227.337,-17.4948 217.102,-20.2323 226.81,-24.475 227.337,-17.4948"/>
<g id="a_edge3&#45;headlabel"><a xlink:href="dir_000031_000087.xhtml" target="_top" xlink:title="33">
<text text-anchor="middle" x="231.135" y="-12.434" font-family="Helvetica,sans-Serif" font-size="10.00">33</text>
</a>
</g>
</g>
<!-- dir_8421296c7609edc59eb72e40bf8e93a8 -->
<g id="node8" class="node"><title>dir_8421296c7609edc59eb72e40bf8e93a8</title>
<g id="a_node8"><a xlink:href="dir_8421296c7609edc59eb72e40bf8e93a8.xhtml" target="_top" xlink:title="commandline">
<polygon fill="white" stroke="red" points="442,-324 368,-324 368,-288 442,-288 442,-324"/>
<text text-anchor="middle" x="405" y="-303.5" font-family="Helvetica,sans-Serif" font-size="10.00">commandline</text>
</a>
</g>
</g>
<!-- dir_6986e230a4339ebf0ae0e4adaee636b0&#45;&gt;dir_8421296c7609edc59eb72e40bf8e93a8 -->
<g id="edge4" class="edge"><title>dir_6986e230a4339ebf0ae0e4adaee636b0&#45;&gt;dir_8421296c7609edc59eb72e40bf8e93a8</title>
<path fill="none" stroke="black" d="M327.197,-359.876C340.414,-350.893 356.792,-339.763 371.107,-330.034"/>
<polygon fill="black" stroke="black" points="373.403,-332.705 379.707,-324.19 369.468,-326.916 373.403,-332.705"/>
<g id="a_edge4&#45;headlabel"><a xlink:href="dir_000031_000013.xhtml" target="_top" xlink:title="1">
<text text-anchor="middle" x="372.026" y="-334.574" font-family="Helvetica,sans-Serif" font-size="10.00">1</text>
</a>
</g>
</g>
<!-- dir_ddf1487ee8b9e192f1c355a0bbfe5942 -->
<g id="node2" class="node"><title>dir_ddf1487ee8b9e192f1c355a0bbfe5942</title>
<g id="a_node2"><a xlink:href="dir_ddf1487ee8b9e192f1c355a0bbfe5942.xhtml" target="_top" xlink:title="nonbonded">
<polygon fill="white" stroke="red" points="257,-396 193,-396 193,-360 257,-360 257,-396"/>
<text text-anchor="middle" x="225" y="-375.5" font-family="Helvetica,sans-Serif" font-size="10.00">nonbonded</text>
</a>
</g>
</g>
<!-- dir_132a114f76835b4ffd11c4d86334044f -->
<g id="node3" class="node"><title>dir_132a114f76835b4ffd11c4d86334044f</title>
<g id="a_node3"><a xlink:href="dir_132a114f76835b4ffd11c4d86334044f.xhtml" target="_top" xlink:title="listed&#45;forces">
<polygon fill="white" stroke="red" points="223,-324 153,-324 153,-288 223,-288 223,-324"/>
<text text-anchor="middle" x="188" y="-303.5" font-family="Helvetica,sans-Serif" font-size="10.00">listed&#45;forces</text>
</a>
</g>
</g>
<!-- dir_ddf1487ee8b9e192f1c355a0bbfe5942&#45;&gt;dir_132a114f76835b4ffd11c4d86334044f -->
<g id="edge15" class="edge"><title>dir_ddf1487ee8b9e192f1c355a0bbfe5942&#45;&gt;dir_132a114f76835b4ffd11c4d86334044f</title>
<path fill="none" stroke="black" d="M215.854,-359.697C211.597,-351.644 206.444,-341.894 201.734,-332.982"/>
<polygon fill="black" stroke="black" points="204.808,-331.31 197.041,-324.104 198.62,-334.581 204.808,-331.31"/>
<g id="a_edge15&#45;headlabel"><a xlink:href="dir_000032_000045.xhtml" target="_top" xlink:title="1">
<text text-anchor="middle" x="208.998" y="-330.661" font-family="Helvetica,sans-Serif" font-size="10.00">1</text>
</a>
</g>
</g>
<!-- dir_ddf1487ee8b9e192f1c355a0bbfe5942&#45;&gt;dir_3a4b0bcbd24753b24f34801caeb39283 -->
<g id="edge16" class="edge"><title>dir_ddf1487ee8b9e192f1c355a0bbfe5942&#45;&gt;dir_3a4b0bcbd24753b24f34801caeb39283</title>
<path fill="none" stroke="black" d="M227.491,-359.841C228.939,-349.478 230.724,-335.998 232,-324 236.96,-277.354 240.989,-222.926 243.185,-190.802"/>
<polygon fill="black" stroke="black" points="246.705,-190.632 243.884,-180.419 239.72,-190.161 246.705,-190.632"/>
<g id="a_edge16&#45;headlabel"><a xlink:href="dir_000032_000051.xhtml" target="_top" xlink:title="3">
<text text-anchor="middle" x="249.296" y="-191.909" font-family="Helvetica,sans-Serif" font-size="10.00">3</text>
</a>
</g>
</g>
<!-- dir_ddf1487ee8b9e192f1c355a0bbfe5942&#45;&gt;dir_069a72e2096440213f56c93a40bc8b09 -->
<g id="edge17" class="edge"><title>dir_ddf1487ee8b9e192f1c355a0bbfe5942&#45;&gt;dir_069a72e2096440213f56c93a40bc8b09</title>
<path fill="none" stroke="black" d="M192.776,-365.774C169.846,-356.774 139.128,-342.584 116,-324 84.184,-298.436 72.4114,-290.548 59,-252 38.0746,-191.855 108.464,-138.027 154.069,-110.455"/>
<polygon fill="black" stroke="black" points="155.986,-113.388 162.825,-105.296 152.432,-107.357 155.986,-113.388"/>
<g id="a_edge17&#45;headlabel"><a xlink:href="dir_000032_000047.xhtml" target="_top" xlink:title="3">
<text text-anchor="middle" x="154.33" y="-115.159" font-family="Helvetica,sans-Serif" font-size="10.00">3</text>
</a>
</g>
</g>
<!-- dir_314f1c18800df82f944bb00a65d82cdc -->
<g id="node6" class="node"><title>dir_314f1c18800df82f944bb00a65d82cdc</title>
<g id="a_node6"><a xlink:href="dir_314f1c18800df82f944bb00a65d82cdc.xhtml" target="_top" xlink:title="tables">
<polygon fill="white" stroke="red" points="122,-252 68,-252 68,-216 122,-216 122,-252"/>
<text text-anchor="middle" x="95" y="-231.5" font-family="Helvetica,sans-Serif" font-size="10.00">tables</text>
</a>
</g>
</g>
<!-- dir_ddf1487ee8b9e192f1c355a0bbfe5942&#45;&gt;dir_314f1c18800df82f944bb00a65d82cdc -->
<g id="edge18" class="edge"><title>dir_ddf1487ee8b9e192f1c355a0bbfe5942&#45;&gt;dir_314f1c18800df82f944bb00a65d82cdc</title>
<path fill="none" stroke="black" d="M192.712,-360.772C176.673,-351.572 157.821,-338.915 144,-324 127.053,-305.711 113.881,-280.483 105.483,-261.556"/>
<polygon fill="black" stroke="black" points="108.677,-260.124 101.531,-252.302 102.24,-262.874 108.677,-260.124"/>
<g id="a_edge18&#45;headlabel"><a xlink:href="dir_000032_000076.xhtml" target="_top" xlink:title="1">
<text text-anchor="middle" x="112.7" y="-259.815" font-family="Helvetica,sans-Serif" font-size="10.00">1</text>
</a>
</g>
</g>
<!-- dir_ddf1487ee8b9e192f1c355a0bbfe5942&#45;&gt;dir_a64a619a73689309b11b91ae52c63e36 -->
<g id="edge19" class="edge"><title>dir_ddf1487ee8b9e192f1c355a0bbfe5942&#45;&gt;dir_a64a619a73689309b11b91ae52c63e36</title>
<path fill="none" stroke="black" d="M192.763,-371.997C130.548,-360.316 0,-325.073 0,-235 0,-235 0,-235 0,-161 0,-85.403 97.7006,-45.2069 152.982,-28.5137"/>
<polygon fill="black" stroke="black" points="154.152,-31.8187 162.778,-25.667 152.198,-25.0968 154.152,-31.8187"/>
<g id="a_edge19&#45;headlabel"><a xlink:href="dir_000032_000087.xhtml" target="_top" xlink:title="17">
<text text-anchor="middle" x="151.492" y="-33.0482" font-family="Helvetica,sans-Serif" font-size="10.00">17</text>
</a>
</g>
</g>
<!-- dir_132a114f76835b4ffd11c4d86334044f&#45;&gt;dir_3a4b0bcbd24753b24f34801caeb39283 -->
<g id="edge5" class="edge"><title>dir_132a114f76835b4ffd11c4d86334044f&#45;&gt;dir_3a4b0bcbd24753b24f34801caeb39283</title>
<path fill="none" stroke="black" d="M194.876,-287.871C204.676,-263.457 222.752,-218.426 234.308,-189.635"/>
<polygon fill="black" stroke="black" points="237.623,-190.773 238.1,-180.189 231.127,-188.166 237.623,-190.773"/>
<g id="a_edge5&#45;headlabel"><a xlink:href="dir_000045_000051.xhtml" target="_top" xlink:title="7">
<text text-anchor="middle" x="238.919" y="-192.667" font-family="Helvetica,sans-Serif" font-size="10.00">7</text>
</a>
</g>
</g>
<!-- dir_132a114f76835b4ffd11c4d86334044f&#45;&gt;dir_069a72e2096440213f56c93a40bc8b09 -->
<g id="edge6" class="edge"><title>dir_132a114f76835b4ffd11c4d86334044f&#45;&gt;dir_069a72e2096440213f56c93a40bc8b09</title>
<path fill="none" stroke="black" d="M188.16,-287.849C188.506,-250.832 189.325,-163.181 189.744,-118.386"/>
<polygon fill="black" stroke="black" points="193.245,-118.265 189.839,-108.232 186.246,-118.199 193.245,-118.265"/>
<g id="a_edge6&#45;headlabel"><a xlink:href="dir_000045_000047.xhtml" target="_top" xlink:title="6">
<text text-anchor="middle" x="196.051" y="-119.386" font-family="Helvetica,sans-Serif" font-size="10.00">6</text>
</a>
</g>
</g>
<!-- dir_132a114f76835b4ffd11c4d86334044f&#45;&gt;dir_314f1c18800df82f944bb00a65d82cdc -->
<g id="edge7" class="edge"><title>dir_132a114f76835b4ffd11c4d86334044f&#45;&gt;dir_314f1c18800df82f944bb00a65d82cdc</title>
<path fill="none" stroke="black" d="M165.011,-287.697C153.186,-278.796 138.608,-267.823 125.821,-258.199"/>
<polygon fill="black" stroke="black" points="127.819,-255.322 117.724,-252.104 123.609,-260.915 127.819,-255.322"/>
<g id="a_edge7&#45;headlabel"><a xlink:href="dir_000045_000076.xhtml" target="_top" xlink:title="1">
<text text-anchor="middle" x="132.398" y="-252.715" font-family="Helvetica,sans-Serif" font-size="10.00">1</text>
</a>
</g>
</g>
<!-- dir_132a114f76835b4ffd11c4d86334044f&#45;&gt;dir_a64a619a73689309b11b91ae52c63e36 -->
<g id="edge8" class="edge"><title>dir_132a114f76835b4ffd11c4d86334044f&#45;&gt;dir_a64a619a73689309b11b91ae52c63e36</title>
<path fill="none" stroke="black" d="M180.502,-287.941C164.41,-248.893 129.909,-150.344 154,-72 157.009,-62.2153 162.507,-52.6161 168.316,-44.3336"/>
<polygon fill="black" stroke="black" points="171.195,-46.3279 174.39,-36.2264 165.593,-42.1306 171.195,-46.3279"/>
<g id="a_edge8&#45;headlabel"><a xlink:href="dir_000045_000087.xhtml" target="_top" xlink:title="32">
<text text-anchor="middle" x="171.312" y="-48.4071" font-family="Helvetica,sans-Serif" font-size="10.00">32</text>
</a>
</g>
</g>
<!-- dir_3a4b0bcbd24753b24f34801caeb39283&#45;&gt;dir_069a72e2096440213f56c93a40bc8b09 -->
<g id="edge9" class="edge"><title>dir_3a4b0bcbd24753b24f34801caeb39283&#45;&gt;dir_069a72e2096440213f56c93a40bc8b09</title>
<path fill="none" stroke="black" d="M231.404,-143.697C224.877,-135.389 216.932,-125.277 209.753,-116.141"/>
<polygon fill="black" stroke="black" points="212.369,-113.805 203.439,-108.104 206.865,-118.13 212.369,-113.805"/>
<g id="a_edge9&#45;headlabel"><a xlink:href="dir_000051_000047.xhtml" target="_top" xlink:title="3">
<text text-anchor="middle" x="216.823" y="-112.377" font-family="Helvetica,sans-Serif" font-size="10.00">3</text>
</a>
</g>
</g>
<!-- dir_3a4b0bcbd24753b24f34801caeb39283&#45;&gt;dir_a64a619a73689309b11b91ae52c63e36 -->
<g id="edge10" class="edge"><title>dir_3a4b0bcbd24753b24f34801caeb39283&#45;&gt;dir_a64a619a73689309b11b91ae52c63e36</title>
<path fill="none" stroke="black" d="M243.303,-143.674C241.05,-125.29 236.112,-95.6852 226,-72 221.916,-62.4333 216.012,-52.7836 210.162,-44.3881"/>
<polygon fill="black" stroke="black" points="212.88,-42.1741 204.165,-36.1492 207.22,-46.2938 212.88,-42.1741"/>
<g id="a_edge10&#45;headlabel"><a xlink:href="dir_000051_000087.xhtml" target="_top" xlink:title="45">
<text text-anchor="middle" x="217.291" y="-40.9093" font-family="Helvetica,sans-Serif" font-size="10.00">45</text>
</a>
</g>
</g>
<!-- dir_069a72e2096440213f56c93a40bc8b09&#45;&gt;dir_a64a619a73689309b11b91ae52c63e36 -->
<g id="edge11" class="edge"><title>dir_069a72e2096440213f56c93a40bc8b09&#45;&gt;dir_a64a619a73689309b11b91ae52c63e36</title>
<path fill="none" stroke="black" d="M190,-71.6966C190,-63.9827 190,-54.7125 190,-46.1124"/>
<polygon fill="black" stroke="black" points="193.5,-46.1043 190,-36.1043 186.5,-46.1044 193.5,-46.1043"/>
<g id="a_edge11&#45;headlabel"><a xlink:href="dir_000047_000087.xhtml" target="_top" xlink:title="25">
<text text-anchor="middle" x="196.339" y="-47.199" font-family="Helvetica,sans-Serif" font-size="10.00">25</text>
</a>
</g>
</g>
<!-- dir_314f1c18800df82f944bb00a65d82cdc&#45;&gt;dir_3a4b0bcbd24753b24f34801caeb39283 -->
<g id="edge12" class="edge"><title>dir_314f1c18800df82f944bb00a65d82cdc&#45;&gt;dir_3a4b0bcbd24753b24f34801caeb39283</title>
<path fill="none" stroke="black" d="M122.164,-220.324C146.3,-209.06 181.781,-192.502 208.412,-180.075"/>
<polygon fill="black" stroke="black" points="210.203,-183.101 217.785,-175.7 207.243,-176.758 210.203,-183.101"/>
<g id="a_edge12&#45;headlabel"><a xlink:href="dir_000076_000051.xhtml" target="_top" xlink:title="1">
<text text-anchor="middle" x="208.147" y="-184.694" font-family="Helvetica,sans-Serif" font-size="10.00">1</text>
</a>
</g>
</g>
<!-- dir_314f1c18800df82f944bb00a65d82cdc&#45;&gt;dir_069a72e2096440213f56c93a40bc8b09 -->
<g id="edge13" class="edge"><title>dir_314f1c18800df82f944bb00a65d82cdc&#45;&gt;dir_069a72e2096440213f56c93a40bc8b09</title>
<path fill="none" stroke="black" d="M106.459,-215.871C123.007,-191.137 153.711,-145.242 172.932,-116.512"/>
<polygon fill="black" stroke="black" points="175.849,-118.447 178.5,-108.189 170.031,-114.555 175.849,-118.447"/>
<g id="a_edge13&#45;headlabel"><a xlink:href="dir_000076_000047.xhtml" target="_top" xlink:title="1">
<text text-anchor="middle" x="176.21" y="-120.513" font-family="Helvetica,sans-Serif" font-size="10.00">1</text>
</a>
</g>
</g>
<!-- dir_314f1c18800df82f944bb00a65d82cdc&#45;&gt;dir_a64a619a73689309b11b91ae52c63e36 -->
<g id="edge14" class="edge"><title>dir_314f1c18800df82f944bb00a65d82cdc&#45;&gt;dir_a64a619a73689309b11b91ae52c63e36</title>
<path fill="none" stroke="black" d="M90.4256,-215.53C83.2821,-184.257 72.9189,-117.714 100,-72 111.701,-52.2477 133.842,-39.0695 153.234,-30.794"/>
<polygon fill="black" stroke="black" points="154.761,-33.9538 162.764,-27.0113 152.179,-27.4475 154.761,-33.9538"/>
<g id="a_edge14&#45;headlabel"><a xlink:href="dir_000076_000087.xhtml" target="_top" xlink:title="33">
<text text-anchor="middle" x="152.467" y="-35.4188" font-family="Helvetica,sans-Serif" font-size="10.00">33</text>
</a>
</g>
</g>
<!-- dir_8421296c7609edc59eb72e40bf8e93a8&#45;&gt;dir_a64a619a73689309b11b91ae52c63e36 -->
<g id="edge20" class="edge"><title>dir_8421296c7609edc59eb72e40bf8e93a8&#45;&gt;dir_a64a619a73689309b11b91ae52c63e36</title>
<path fill="none" stroke="black" d="M395.718,-287.974C373.307,-247.734 313.106,-144.683 246,-72 236.829,-62.0664 226.177,-51.7213 216.642,-42.8357"/>
<polygon fill="black" stroke="black" points="219.01,-40.2582 209.283,-36.0582 214.267,-45.4072 219.01,-40.2582"/>
<g id="a_edge20&#45;headlabel"><a xlink:href="dir_000013_000087.xhtml" target="_top" xlink:title="93">
<text text-anchor="middle" x="223.577" y="-38.1049" font-family="Helvetica,sans-Serif" font-size="10.00">93</text>
</a>
</g>
</g>
</g>
</svg>
