<?xml version="1.0" encoding="UTF-8" standalone="no"?>
<!DOCTYPE svg PUBLIC "-//W3C//DTD SVG 1.1//EN"
 "http://www.w3.org/Graphics/SVG/1.1/DTD/svg11.dtd">
<!-- Generated by graphviz version 2.38.0 (20140413.2041)
 -->
<!-- Title: src/gromacs/utility/directoryenumerator.h Pages: 1 -->
<svg width="248pt" height="106pt"
 viewBox="0.00 0.00 248.00 106.00" xmlns="http://www.w3.org/2000/svg" xmlns:xlink="http://www.w3.org/1999/xlink">
<g id="graph0" class="graph" transform="scale(1 1) rotate(0) translate(4 102)">
<title>src/gromacs/utility/directoryenumerator.h</title>
<polygon fill="white" stroke="none" points="-4,4 -4,-102 244,-102 244,4 -4,4"/>
<!-- Node1 -->
<g id="node1" class="node"><title>Node1</title>
<polygon fill="#bfbfbf" stroke="black" points="55.5,-67.5 55.5,-97.5 169.5,-97.5 169.5,-67.5 55.5,-67.5"/>
<text text-anchor="start" x="63.5" y="-85.5" font-family="Helvetica,sans-Serif" font-size="10.00">src/gromacs/utility</text>
<text text-anchor="middle" x="112.5" y="-74.5" font-family="Helvetica,sans-Serif" font-size="10.00">/directoryenumerator.h</text>
</g>
<!-- Node2 -->
<g id="node2" class="node"><title>Node2</title>
<g id="a_node2"><a xlink:href="datafilefinder_8cpp.xhtml" target="_top" xlink:title="Implements gmx::DataFileFinder. ">
<polygon fill="white" stroke="black" points="0,-0.5 0,-30.5 97,-30.5 97,-0.5 0,-0.5"/>
<text text-anchor="start" x="8" y="-18.5" font-family="Helvetica,sans-Serif" font-size="10.00">src/gromacs/utility</text>
<text text-anchor="middle" x="48.5" y="-7.5" font-family="Helvetica,sans-Serif" font-size="10.00">/datafilefinder.cpp</text>
</a>
</g>
</g>
<!-- Node1&#45;&gt;Node2 -->
<g id="edge1" class="edge"><title>Node1&#45;&gt;Node2</title>
<path fill="none" stroke="midnightblue" d="M91.3546,-60.0243C81.8192,-50.3398 70.8251,-39.1739 62.3599,-30.5765"/>
<polygon fill="midnightblue" stroke="midnightblue" points="89.1029,-62.7259 98.613,-67.396 94.0909,-57.8146 89.1029,-62.7259"/>
</g>
<!-- Node3 -->
<g id="node3" class="node"><title>Node3</title>
<g id="a_node3"><a xlink:href="directoryenumerator_8cpp.xhtml" target="_top" xlink:title="Implements gmx::DirectoryEnumerator. ">
<polygon fill="white" stroke="black" points="115,-0.5 115,-30.5 240,-30.5 240,-0.5 115,-0.5"/>
<text text-anchor="start" x="123" y="-18.5" font-family="Helvetica,sans-Serif" font-size="10.00">src/gromacs/utility</text>
<text text-anchor="middle" x="177.5" y="-7.5" font-family="Helvetica,sans-Serif" font-size="10.00">/directoryenumerator.cpp</text>
</a>
</g>
</g>
<!-- Node1&#45;&gt;Node3 -->
<g id="edge2" class="edge"><title>Node1&#45;&gt;Node3</title>
<path fill="none" stroke="midnightblue" d="M133.689,-60.3115C143.439,-50.5612 154.741,-39.259 163.423,-30.5765"/>
<polygon fill="midnightblue" stroke="midnightblue" points="131.2,-57.85 126.604,-67.396 136.15,-62.7998 131.2,-57.85"/>
</g>
</g>
</svg>
