<?xml version="1.0" encoding="UTF-8" standalone="no"?>
<!DOCTYPE svg PUBLIC "-//W3C//DTD SVG 1.1//EN"
 "http://www.w3.org/Graphics/SVG/1.1/DTD/svg11.dtd">
<!-- Generated by graphviz version 2.38.0 (20140413.2041)
 -->
<!-- Title: src/gromacs/analysisdata/modules/displacement.h Pages: 1 -->
<svg width="310pt" height="218pt"
 viewBox="0.00 0.00 310.00 218.00" xmlns="http://www.w3.org/2000/svg" xmlns:xlink="http://www.w3.org/1999/xlink">
<g id="graph0" class="graph" transform="scale(1 1) rotate(0) translate(4 214)">
<title>src/gromacs/analysisdata/modules/displacement.h</title>
<polygon fill="white" stroke="none" points="-4,4 -4,-214 306,-214 306,4 -4,4"/>
<!-- Node1 -->
<g id="node1" class="node"><title>Node1</title>
<polygon fill="#bfbfbf" stroke="black" points="81,-179.5 81,-209.5 209,-209.5 209,-179.5 81,-179.5"/>
<text text-anchor="start" x="89" y="-197.5" font-family="Helvetica,sans-Serif" font-size="10.00">src/gromacs/analysisdata</text>
<text text-anchor="middle" x="145" y="-186.5" font-family="Helvetica,sans-Serif" font-size="10.00">/modules/displacement.h</text>
</g>
<!-- Node2 -->
<g id="node2" class="node"><title>Node2</title>
<g id="a_node2"><a xlink:href="displacement_8cpp.xhtml" target="_top" xlink:title="Implements gmx::AnalysisDataDisplacementModule. ">
<polygon fill="white" stroke="black" points="0,-112.5 0,-142.5 136,-142.5 136,-112.5 0,-112.5"/>
<text text-anchor="start" x="8" y="-130.5" font-family="Helvetica,sans-Serif" font-size="10.00">src/gromacs/analysisdata</text>
<text text-anchor="middle" x="68" y="-119.5" font-family="Helvetica,sans-Serif" font-size="10.00">/modules/displacement.cpp</text>
</a>
</g>
</g>
<!-- Node1&#45;&gt;Node2 -->
<g id="edge1" class="edge"><title>Node1&#45;&gt;Node2</title>
<path fill="none" stroke="midnightblue" d="M120.577,-172.883C108.876,-163.005 95.1624,-151.429 84.6752,-142.577"/>
<polygon fill="midnightblue" stroke="midnightblue" points="118.393,-175.62 128.292,-179.396 122.908,-170.271 118.393,-175.62"/>
</g>
<!-- Node3 -->
<g id="node3" class="node"><title>Node3</title>
<g id="a_node3"><a xlink:href="analysisdata_8h.xhtml" target="_top" xlink:title="Public API convenience header for analysis data handling. ">
<polygon fill="white" stroke="black" points="154.5,-118 154.5,-137 291.5,-137 291.5,-118 154.5,-118"/>
<text text-anchor="middle" x="223" y="-125" font-family="Helvetica,sans-Serif" font-size="10.00">src/gromacs/analysisdata.h</text>
</a>
</g>
</g>
<!-- Node1&#45;&gt;Node3 -->
<g id="edge2" class="edge"><title>Node1&#45;&gt;Node3</title>
<path fill="none" stroke="midnightblue" d="M169.993,-172.672C184.395,-160.671 201.736,-146.22 212.567,-137.195"/>
<polygon fill="midnightblue" stroke="midnightblue" points="167.366,-170.305 161.925,-179.396 171.848,-175.683 167.366,-170.305"/>
</g>
<!-- Node4 -->
<g id="node4" class="node"><title>Node4</title>
<g id="a_node4"><a xlink:href="trajectoryanalysis_8h.xhtml" target="_top" xlink:title="Public API convenience header for trajectory analysis framework. ">
<polygon fill="white" stroke="black" points="144,-56.5 144,-75.5 302,-75.5 302,-56.5 144,-56.5"/>
<text text-anchor="middle" x="223" y="-63.5" font-family="Helvetica,sans-Serif" font-size="10.00">src/gromacs/trajectoryanalysis.h</text>
</a>
</g>
</g>
<!-- Node3&#45;&gt;Node4 -->
<g id="edge3" class="edge"><title>Node3&#45;&gt;Node4</title>
<path fill="none" stroke="midnightblue" d="M223,-107.817C223,-96.9962 223,-83.898 223,-75.5091"/>
<polygon fill="midnightblue" stroke="midnightblue" points="219.5,-107.975 223,-117.975 226.5,-107.975 219.5,-107.975"/>
</g>
<!-- Node5 -->
<g id="node5" class="node"><title>Node5</title>
<g id="a_node5"><a xlink:href="template_8cpp.xhtml" target="_top" xlink:title="Template code for writing analysis programs. ">
<polygon fill="white" stroke="black" points="153,-0.5 153,-19.5 293,-19.5 293,-0.5 153,-0.5"/>
<text text-anchor="middle" x="223" y="-7.5" font-family="Helvetica,sans-Serif" font-size="10.00">share/template/template.cpp</text>
</a>
</g>
</g>
<!-- Node4&#45;&gt;Node5 -->
<g id="edge4" class="edge"><title>Node4&#45;&gt;Node5</title>
<path fill="none" stroke="midnightblue" d="M223,-45.8045C223,-36.9102 223,-26.7798 223,-19.7511"/>
<polygon fill="midnightblue" stroke="midnightblue" points="219.5,-46.083 223,-56.083 226.5,-46.083 219.5,-46.083"/>
</g>
</g>
</svg>
