<?xml version="1.0" encoding="UTF-8" standalone="no"?>
<!DOCTYPE svg PUBLIC "-//W3C//DTD SVG 1.1//EN"
 "http://www.w3.org/Graphics/SVG/1.1/DTD/svg11.dtd">
<!-- Generated by graphviz version 2.38.0 (20140413.2041)
 -->
<!-- Title: src/gromacs/domdec/domdec_struct.h Pages: 1 -->
<svg width="1852pt" height="173pt"
 viewBox="0.00 0.00 1851.50 173.00" xmlns="http://www.w3.org/2000/svg" xmlns:xlink="http://www.w3.org/1999/xlink">
<g id="graph0" class="graph" transform="scale(1 1) rotate(0) translate(4 169)">
<title>src/gromacs/domdec/domdec_struct.h</title>
<polygon fill="white" stroke="none" points="-4,4 -4,-169 1847.5,-169 1847.5,4 -4,4"/>
<!-- Node1 -->
<g id="node1" class="node"><title>Node1</title>
<polygon fill="#bfbfbf" stroke="black" points="823.5,-134.5 823.5,-164.5 931.5,-164.5 931.5,-134.5 823.5,-134.5"/>
<text text-anchor="start" x="831.5" y="-152.5" font-family="Helvetica,sans-Serif" font-size="10.00">src/gromacs/domdec</text>
<text text-anchor="middle" x="877.5" y="-141.5" font-family="Helvetica,sans-Serif" font-size="10.00">/domdec_struct.h</text>
</g>
<!-- Node2 -->
<g id="node2" class="node"><title>Node2</title>
<g id="a_node2"><a xlink:href="domdec__internal_8h.xhtml" target="_top" xlink:title="Declares implementation functions and types for the domain decomposition module. ">
<polygon fill="white" stroke="black" points="3.5,-67.5 3.5,-97.5 111.5,-97.5 111.5,-67.5 3.5,-67.5"/>
<text text-anchor="start" x="11.5" y="-85.5" font-family="Helvetica,sans-Serif" font-size="10.00">src/gromacs/domdec</text>
<text text-anchor="middle" x="57.5" y="-74.5" font-family="Helvetica,sans-Serif" font-size="10.00">/domdec_internal.h</text>
</a>
</g>
</g>
<!-- Node1&#45;&gt;Node2 -->
<g id="edge1" class="edge"><title>Node1&#45;&gt;Node2</title>
<path fill="none" stroke="midnightblue" d="M813.243,-147.665C682.251,-145.204 375.193,-135.56 120.5,-98 117.613,-97.5743 114.663,-97.0854 111.692,-96.5507"/>
<polygon fill="midnightblue" stroke="midnightblue" points="813.432,-151.169 823.493,-147.849 813.558,-144.17 813.432,-151.169"/>
</g>
<!-- Node4 -->
<g id="node4" class="node"><title>Node4</title>
<g id="a_node4"><a xlink:href="domdec__box_8cpp.xhtml" target="_top" xlink:title="This file defines functions used by the domdec module for (bounding) box and pbc information generati...">
<polygon fill="white" stroke="black" points="129.5,-67.5 129.5,-97.5 237.5,-97.5 237.5,-67.5 129.5,-67.5"/>
<text text-anchor="start" x="137.5" y="-85.5" font-family="Helvetica,sans-Serif" font-size="10.00">src/gromacs/domdec</text>
<text text-anchor="middle" x="183.5" y="-74.5" font-family="Helvetica,sans-Serif" font-size="10.00">/domdec_box.cpp</text>
</a>
</g>
</g>
<!-- Node1&#45;&gt;Node4 -->
<g id="edge3" class="edge"><title>Node1&#45;&gt;Node4</title>
<path fill="none" stroke="midnightblue" d="M813.165,-146.46C698.632,-142.137 452.093,-129.712 246.5,-98 243.616,-97.5552 240.668,-97.0511 237.699,-96.5045"/>
<polygon fill="midnightblue" stroke="midnightblue" points="813.047,-149.958 823.169,-146.829 813.306,-142.962 813.047,-149.958"/>
</g>
<!-- Node5 -->
<g id="node5" class="node"><title>Node5</title>
<g id="a_node5"><a xlink:href="domdec__constraints_8cpp.xhtml" target="_top" xlink:title="This file implements functions for domdec to use while managing inter&#45;atomic constraints. ">
<polygon fill="white" stroke="black" points="255.5,-67.5 255.5,-97.5 381.5,-97.5 381.5,-67.5 255.5,-67.5"/>
<text text-anchor="start" x="263.5" y="-85.5" font-family="Helvetica,sans-Serif" font-size="10.00">src/gromacs/domdec</text>
<text text-anchor="middle" x="318.5" y="-74.5" font-family="Helvetica,sans-Serif" font-size="10.00">/domdec_constraints.cpp</text>
</a>
</g>
</g>
<!-- Node1&#45;&gt;Node5 -->
<g id="edge4" class="edge"><title>Node1&#45;&gt;Node5</title>
<path fill="none" stroke="midnightblue" d="M813.232,-143.727C719.984,-136.372 541.878,-120.698 391.5,-98 388.306,-97.5179 385.039,-96.9916 381.745,-96.4345"/>
<polygon fill="midnightblue" stroke="midnightblue" points="813.112,-147.229 823.355,-144.52 813.659,-140.25 813.112,-147.229"/>
</g>
<!-- Node6 -->
<g id="node6" class="node"><title>Node6</title>
<g id="a_node6"><a xlink:href="domdec__network_8cpp.xhtml" target="_top" xlink:title="This file defines functions for (mostly) the domdec module to use MPI functionality. ">
<polygon fill="white" stroke="black" points="400,-67.5 400,-97.5 513,-97.5 513,-67.5 400,-67.5"/>
<text text-anchor="start" x="408" y="-85.5" font-family="Helvetica,sans-Serif" font-size="10.00">src/gromacs/domdec</text>
<text text-anchor="middle" x="456.5" y="-74.5" font-family="Helvetica,sans-Serif" font-size="10.00">/domdec_network.cpp</text>
</a>
</g>
</g>
<!-- Node1&#45;&gt;Node6 -->
<g id="edge5" class="edge"><title>Node1&#45;&gt;Node6</title>
<path fill="none" stroke="midnightblue" d="M813.303,-140.838C742.02,-131.989 623.658,-116.281 522.5,-98 519.498,-97.4576 516.426,-96.8758 513.327,-96.2682"/>
<polygon fill="midnightblue" stroke="midnightblue" points="813.117,-144.342 823.471,-142.094 813.975,-137.395 813.117,-144.342"/>
</g>
<!-- Node7 -->
<g id="node7" class="node"><title>Node7</title>
<g id="a_node7"><a xlink:href="domdec__setup_8cpp.xhtml" target="_top" xlink:title="This file defines functions used by the domdec module in its initial setup phase. ...">
<polygon fill="white" stroke="black" points="531.5,-67.5 531.5,-97.5 639.5,-97.5 639.5,-67.5 531.5,-67.5"/>
<text text-anchor="start" x="539.5" y="-85.5" font-family="Helvetica,sans-Serif" font-size="10.00">src/gromacs/domdec</text>
<text text-anchor="middle" x="585.5" y="-74.5" font-family="Helvetica,sans-Serif" font-size="10.00">/domdec_setup.cpp</text>
</a>
</g>
</g>
<!-- Node1&#45;&gt;Node7 -->
<g id="edge6" class="edge"><title>Node1&#45;&gt;Node7</title>
<path fill="none" stroke="midnightblue" d="M813.512,-134.554C767.569,-124.5 704.187,-110.548 648.5,-98 645.653,-97.3585 642.735,-96.6978 639.789,-96.0283"/>
<polygon fill="midnightblue" stroke="midnightblue" points="812.817,-137.984 823.334,-136.702 814.313,-131.146 812.817,-137.984"/>
</g>
<!-- Node8 -->
<g id="node8" class="node"><title>Node8</title>
<g id="a_node8"><a xlink:href="domdec__specatomcomm_8cpp.xhtml" target="_top" xlink:title="This file implements functions for domdec to use while managing inter&#45;atomic constraints. ">
<polygon fill="white" stroke="black" points="657.5,-67.5 657.5,-97.5 805.5,-97.5 805.5,-67.5 657.5,-67.5"/>
<text text-anchor="start" x="665.5" y="-85.5" font-family="Helvetica,sans-Serif" font-size="10.00">src/gromacs/domdec</text>
<text text-anchor="middle" x="731.5" y="-74.5" font-family="Helvetica,sans-Serif" font-size="10.00">/domdec_specatomcomm.cpp</text>
</a>
</g>
</g>
<!-- Node1&#45;&gt;Node8 -->
<g id="edge7" class="edge"><title>Node1&#45;&gt;Node8</title>
<path fill="none" stroke="midnightblue" d="M836.55,-130.269C813.296,-119.916 784.628,-107.153 763.118,-97.5765"/>
<polygon fill="midnightblue" stroke="midnightblue" points="835.261,-133.526 845.82,-134.396 838.108,-127.131 835.261,-133.526"/>
</g>
<!-- Node9 -->
<g id="node9" class="node"><title>Node9</title>
<g id="a_node9"><a xlink:href="domdec__vsite_8cpp.xhtml" target="_top" xlink:title="This file implements functions for domdec to use while managing inter&#45;atomic constraints. ">
<polygon fill="white" stroke="black" points="823.5,-67.5 823.5,-97.5 931.5,-97.5 931.5,-67.5 823.5,-67.5"/>
<text text-anchor="start" x="831.5" y="-85.5" font-family="Helvetica,sans-Serif" font-size="10.00">src/gromacs/domdec</text>
<text text-anchor="middle" x="877.5" y="-74.5" font-family="Helvetica,sans-Serif" font-size="10.00">/domdec_vsite.cpp</text>
</a>
</g>
</g>
<!-- Node1&#45;&gt;Node9 -->
<g id="edge8" class="edge"><title>Node1&#45;&gt;Node9</title>
<path fill="none" stroke="midnightblue" d="M877.5,-124.108C877.5,-115.154 877.5,-105.323 877.5,-97.5765"/>
<polygon fill="midnightblue" stroke="midnightblue" points="874,-124.396 877.5,-134.396 881,-124.396 874,-124.396"/>
</g>
<!-- Node10 -->
<g id="node10" class="node"><title>Node10</title>
<g id="a_node10"><a xlink:href="pme-load-balancing_8cpp.xhtml" target="_top" xlink:title="This file contains function definitions necessary for managing automatic load balance of PME calculat...">
<polygon fill="white" stroke="black" points="950,-67.5 950,-97.5 1071,-97.5 1071,-67.5 950,-67.5"/>
<text text-anchor="start" x="958" y="-85.5" font-family="Helvetica,sans-Serif" font-size="10.00">src/gromacs/ewald/pme</text>
<text text-anchor="middle" x="1010.5" y="-74.5" font-family="Helvetica,sans-Serif" font-size="10.00">&#45;load&#45;balancing.cpp</text>
</a>
</g>
</g>
<!-- Node1&#45;&gt;Node10 -->
<g id="edge9" class="edge"><title>Node1&#45;&gt;Node10</title>
<path fill="none" stroke="midnightblue" d="M915.37,-129.992C936.451,-119.689 962.277,-107.068 981.697,-97.5765"/>
<polygon fill="midnightblue" stroke="midnightblue" points="913.807,-126.86 906.359,-134.396 916.88,-133.15 913.807,-126.86"/>
</g>
<!-- Node11 -->
<g id="node11" class="node"><title>Node11</title>
<g id="a_node11"><a xlink:href="pme-pp_8cpp.xhtml" target="_top" xlink:title="This file contains function definitions necessary for managing the offload of long&#45;ranged PME work to...">
<polygon fill="white" stroke="black" points="1089,-67.5 1089,-97.5 1210,-97.5 1210,-67.5 1089,-67.5"/>
<text text-anchor="start" x="1097" y="-85.5" font-family="Helvetica,sans-Serif" font-size="10.00">src/gromacs/ewald/pme</text>
<text text-anchor="middle" x="1149.5" y="-74.5" font-family="Helvetica,sans-Serif" font-size="10.00">&#45;pp.cpp</text>
</a>
</g>
</g>
<!-- Node1&#45;&gt;Node11 -->
<g id="edge10" class="edge"><title>Node1&#45;&gt;Node11</title>
<path fill="none" stroke="midnightblue" d="M941.552,-133.193C986.761,-122.39 1046.87,-108.026 1090.83,-97.521"/>
<polygon fill="midnightblue" stroke="midnightblue" points="940.476,-129.852 931.564,-135.58 942.103,-136.66 940.476,-129.852"/>
</g>
<!-- Node12 -->
<g id="node12" class="node"><title>Node12</title>
<g id="a_node12"><a xlink:href="imd_8cpp.xhtml" target="_top" xlink:title="Implements functions of imd.h. ">
<polygon fill="white" stroke="black" points="1228,-73 1228,-92 1355,-92 1355,-73 1228,-73"/>
<text text-anchor="middle" x="1291.5" y="-80" font-family="Helvetica,sans-Serif" font-size="10.00">src/gromacs/imd/imd.cpp</text>
</a>
</g>
</g>
<!-- Node1&#45;&gt;Node12 -->
<g id="edge11" class="edge"><title>Node1&#45;&gt;Node12</title>
<path fill="none" stroke="midnightblue" d="M941.795,-140.025C1010.65,-130.71 1123.05,-114.821 1219.5,-98 1229.8,-96.2036 1240.89,-94.0703 1251.2,-92.0003"/>
<polygon fill="midnightblue" stroke="midnightblue" points="940.985,-136.602 931.542,-141.406 941.92,-143.539 940.985,-136.602"/>
</g>
<!-- Node13 -->
<g id="node13" class="node"><title>Node13</title>
<g id="a_node13"><a xlink:href="minimize_8cpp.xhtml" target="_top" xlink:title="This file defines integrators for energy minimization. ">
<polygon fill="white" stroke="black" points="1373.5,-73 1373.5,-92 1531.5,-92 1531.5,-73 1373.5,-73"/>
<text text-anchor="middle" x="1452.5" y="-80" font-family="Helvetica,sans-Serif" font-size="10.00">src/gromacs/mdlib/minimize.cpp</text>
</a>
</g>
</g>
<!-- Node1&#45;&gt;Node13 -->
<g id="edge12" class="edge"><title>Node1&#45;&gt;Node13</title>
<path fill="none" stroke="midnightblue" d="M941.806,-143.07C1035.13,-134.908 1213.46,-118.256 1364.5,-98 1377.24,-96.2918 1390.97,-94.167 1403.7,-92.0754"/>
<polygon fill="midnightblue" stroke="midnightblue" points="941.333,-139.597 931.675,-143.951 941.941,-146.571 941.333,-139.597"/>
</g>
<!-- Node14 -->
<g id="node14" class="node"><title>Node14</title>
<g id="a_node14"><a xlink:href="gromacs_2swap_2swapcoords_8cpp.xhtml" target="_top" xlink:title="Implements functions in swapcoords.h. ">
<polygon fill="white" stroke="black" points="1550,-73 1550,-92 1721,-92 1721,-73 1550,-73"/>
<text text-anchor="middle" x="1635.5" y="-80" font-family="Helvetica,sans-Serif" font-size="10.00">src/gromacs/swap/swapcoords.cpp</text>
</a>
</g>
</g>
<!-- Node1&#45;&gt;Node14 -->
<g id="edge13" class="edge"><title>Node1&#45;&gt;Node14</title>
<path fill="none" stroke="midnightblue" d="M941.776,-145.22C1060.37,-138.808 1321.51,-123.016 1540.5,-98 1554.76,-96.3715 1570.15,-94.2008 1584.32,-92.0359"/>
<polygon fill="midnightblue" stroke="midnightblue" points="941.572,-141.725 931.774,-145.756 941.947,-148.715 941.572,-141.725"/>
</g>
<!-- Node15 -->
<g id="node15" class="node"><title>Node15</title>
<g id="a_node15"><a xlink:href="runner_8cpp.xhtml" target="_top" xlink:title="Implements the MD runner routine calling all integrators. ">
<polygon fill="white" stroke="black" points="1739.5,-67.5 1739.5,-97.5 1843.5,-97.5 1843.5,-67.5 1739.5,-67.5"/>
<text text-anchor="start" x="1747.5" y="-85.5" font-family="Helvetica,sans-Serif" font-size="10.00">src/programs/mdrun</text>
<text text-anchor="middle" x="1791.5" y="-74.5" font-family="Helvetica,sans-Serif" font-size="10.00">/runner.cpp</text>
</a>
</g>
</g>
<!-- Node1&#45;&gt;Node15 -->
<g id="edge14" class="edge"><title>Node1&#45;&gt;Node15</title>
<path fill="none" stroke="midnightblue" d="M942.053,-148.503C1084.93,-147.675 1438.41,-141.027 1730.5,-98 1733.41,-97.5717 1736.38,-97.0724 1739.37,-96.5219"/>
<polygon fill="midnightblue" stroke="midnightblue" points="941.708,-145.005 931.726,-148.555 941.744,-152.005 941.708,-145.005"/>
</g>
<!-- Node3 -->
<g id="node3" class="node"><title>Node3</title>
<g id="a_node3"><a xlink:href="domdec__topology_8cpp.xhtml" target="_top" xlink:title="This file defines functions used by the domdec module while managing the construction, use and error checking for topologies local to a DD rank. ">
<polygon fill="white" stroke="black" points="-7.10543e-15,-0.5 -7.10543e-15,-30.5 115,-30.5 115,-0.5 -7.10543e-15,-0.5"/>
<text text-anchor="start" x="8" y="-18.5" font-family="Helvetica,sans-Serif" font-size="10.00">src/gromacs/domdec</text>
<text text-anchor="middle" x="57.5" y="-7.5" font-family="Helvetica,sans-Serif" font-size="10.00">/domdec_topology.cpp</text>
</a>
</g>
</g>
<!-- Node2&#45;&gt;Node3 -->
<g id="edge2" class="edge"><title>Node2&#45;&gt;Node3</title>
<path fill="none" stroke="midnightblue" d="M57.5,-57.1081C57.5,-48.1539 57.5,-38.3227 57.5,-30.5765"/>
<polygon fill="midnightblue" stroke="midnightblue" points="54.0001,-57.3959 57.5,-67.396 61.0001,-57.396 54.0001,-57.3959"/>
</g>
</g>
</svg>
