<?xml version="1.0" encoding="UTF-8" standalone="no"?>
<!DOCTYPE svg PUBLIC "-//W3C//DTD SVG 1.1//EN"
 "http://www.w3.org/Graphics/SVG/1.1/DTD/svg11.dtd">
<!-- Generated by graphviz version 2.38.0 (20140413.2041)
 -->
<!-- Title: src/gromacs/domdec/domdec_vsite.cpp Pages: 1 -->
<svg width="1239pt" height="341pt"
 viewBox="0.00 0.00 1238.50 341.00" xmlns="http://www.w3.org/2000/svg" xmlns:xlink="http://www.w3.org/1999/xlink">
<g id="graph0" class="graph" transform="scale(1 1) rotate(0) translate(4 337)">
<title>src/gromacs/domdec/domdec_vsite.cpp</title>
<polygon fill="white" stroke="none" points="-4,4 -4,-337 1234.5,-337 1234.5,4 -4,4"/>
<!-- Node1 -->
<g id="node1" class="node"><title>Node1</title>
<polygon fill="#bfbfbf" stroke="black" points="365.5,-302.5 365.5,-332.5 473.5,-332.5 473.5,-302.5 365.5,-302.5"/>
<text text-anchor="start" x="373.5" y="-320.5" font-family="Helvetica,sans-Serif" font-size="10.00">src/gromacs/domdec</text>
<text text-anchor="middle" x="419.5" y="-309.5" font-family="Helvetica,sans-Serif" font-size="10.00">/domdec_vsite.cpp</text>
</g>
<!-- Node2 -->
<g id="node2" class="node"><title>Node2</title>
<g id="a_node2"><a xlink:href="gmxpre_8h.xhtml" target="_top" xlink:title="Prerequisite header file for GROMACS build. ">
<polygon fill="white" stroke="black" points="0,-241 0,-260 57,-260 57,-241 0,-241"/>
<text text-anchor="middle" x="28.5" y="-248" font-family="Helvetica,sans-Serif" font-size="10.00">gmxpre.h</text>
</a>
</g>
</g>
<!-- Node1&#45;&gt;Node2 -->
<g id="edge1" class="edge"><title>Node1&#45;&gt;Node2</title>
<path fill="none" stroke="midnightblue" d="M365.242,-312.507C295.301,-306.506 170.334,-292.88 66.5,-266 63.6802,-265.27 60.7825,-264.399 57.9052,-263.451"/>
<polygon fill="midnightblue" stroke="midnightblue" points="58.9388,-260.103 48.3443,-260.026 56.5781,-266.693 58.9388,-260.103"/>
</g>
<!-- Node3 -->
<g id="node3" class="node"><title>Node3</title>
<g id="a_node3"><a xlink:href="domdec__vsite_8h.xhtml" target="_top" xlink:title="This file declares functions for domdec to use while managing virtual sites. ">
<polygon fill="white" stroke="black" points="75.5,-241 75.5,-260 161.5,-260 161.5,-241 75.5,-241"/>
<text text-anchor="middle" x="118.5" y="-248" font-family="Helvetica,sans-Serif" font-size="10.00">domdec_vsite.h</text>
</a>
</g>
</g>
<!-- Node1&#45;&gt;Node3 -->
<g id="edge2" class="edge"><title>Node1&#45;&gt;Node3</title>
<path fill="none" stroke="midnightblue" d="M365.338,-306.677C314.732,-297.225 237.188,-282.039 170.5,-266 166.348,-265.001 162.027,-263.899 157.728,-262.761"/>
<polygon fill="midnightblue" stroke="midnightblue" points="158.397,-259.316 147.829,-260.075 156.564,-266.072 158.397,-259.316"/>
</g>
<!-- Node4 -->
<g id="node4" class="node"><title>Node4</title>
<polygon fill="white" stroke="#bfbfbf" points="179.5,-241 179.5,-260 231.5,-260 231.5,-241 179.5,-241"/>
<text text-anchor="middle" x="205.5" y="-248" font-family="Helvetica,sans-Serif" font-size="10.00">assert.h</text>
</g>
<!-- Node1&#45;&gt;Node4 -->
<g id="edge3" class="edge"><title>Node1&#45;&gt;Node4</title>
<path fill="none" stroke="midnightblue" d="M365.333,-302.997C329.562,-293.645 281.836,-280.338 240.5,-266 238.589,-265.337 236.632,-264.624 234.668,-263.883"/>
<polygon fill="midnightblue" stroke="midnightblue" points="235.552,-260.469 224.965,-260.04 232.974,-266.977 235.552,-260.469"/>
</g>
<!-- Node5 -->
<g id="node5" class="node"><title>Node5</title>
<polygon fill="white" stroke="#bfbfbf" points="249.5,-241 249.5,-260 305.5,-260 305.5,-241 249.5,-241"/>
<text text-anchor="middle" x="277.5" y="-248" font-family="Helvetica,sans-Serif" font-size="10.00">algorithm</text>
</g>
<!-- Node1&#45;&gt;Node5 -->
<g id="edge4" class="edge"><title>Node1&#45;&gt;Node5</title>
<path fill="none" stroke="midnightblue" d="M388.688,-302.396C363.883,-291.041 329.319,-275.22 305.34,-264.244"/>
<polygon fill="midnightblue" stroke="midnightblue" points="306.634,-260.987 296.085,-260.007 303.72,-267.352 306.634,-260.987"/>
</g>
<!-- Node6 -->
<g id="node6" class="node"><title>Node6</title>
<g id="a_node6"><a xlink:href="domdec_8h.xhtml" target="_top" xlink:title="This file declares functions for mdrun to call to manage the details of its domain decomposition...">
<polygon fill="white" stroke="black" points="400,-241 400,-260 537,-260 537,-241 400,-241"/>
<text text-anchor="middle" x="468.5" y="-248" font-family="Helvetica,sans-Serif" font-size="10.00">gromacs/domdec/domdec.h</text>
</a>
</g>
</g>
<!-- Node1&#45;&gt;Node6 -->
<g id="edge5" class="edge"><title>Node1&#45;&gt;Node6</title>
<path fill="none" stroke="midnightblue" d="M430.132,-302.396C437.697,-292.361 447.891,-278.838 455.87,-268.253"/>
<polygon fill="midnightblue" stroke="midnightblue" points="458.721,-270.287 461.946,-260.195 453.131,-266.073 458.721,-270.287"/>
</g>
<!-- Node15 -->
<g id="node15" class="node"><title>Node15</title>
<g id="a_node15"><a xlink:href="gmxassert_8h.xhtml" target="_top" xlink:title="Defines assert macros customized for Gromacs. ">
<polygon fill="white" stroke="black" points="35,-123.5 35,-142.5 172,-142.5 172,-123.5 35,-123.5"/>
<text text-anchor="middle" x="103.5" y="-130.5" font-family="Helvetica,sans-Serif" font-size="10.00">gromacs/utility/gmxassert.h</text>
</a>
</g>
</g>
<!-- Node1&#45;&gt;Node15 -->
<g id="edge37" class="edge"><title>Node1&#45;&gt;Node15</title>
<path fill="none" stroke="midnightblue" d="M397.809,-302.465C383.206,-292.735 363.726,-279.2 347.5,-266 331.89,-253.301 332.472,-244.052 314.5,-235 234.226,-194.57 179.169,-262.441 115.5,-199 103.57,-187.112 101.375,-167.491 101.673,-152.911"/>
<polygon fill="midnightblue" stroke="midnightblue" points="105.191,-152.738 102.31,-142.543 98.2037,-152.31 105.191,-152.738"/>
</g>
<!-- Node21 -->
<g id="node21" class="node"><title>Node21</title>
<g id="a_node21"><a xlink:href="domdec__struct_8h.xhtml" target="_top" xlink:title="Declares structures related to domain decomposition. ">
<polygon fill="white" stroke="black" points="606,-235.5 606,-265.5 735,-265.5 735,-235.5 606,-235.5"/>
<text text-anchor="start" x="614" y="-253.5" font-family="Helvetica,sans-Serif" font-size="10.00">gromacs/domdec/domdec</text>
<text text-anchor="middle" x="670.5" y="-242.5" font-family="Helvetica,sans-Serif" font-size="10.00">_struct.h</text>
</a>
</g>
</g>
<!-- Node1&#45;&gt;Node21 -->
<g id="edge22" class="edge"><title>Node1&#45;&gt;Node21</title>
<path fill="none" stroke="midnightblue" d="M473.654,-302.476C512.531,-292.408 565.084,-278.799 606.111,-268.174"/>
<polygon fill="midnightblue" stroke="midnightblue" points="607.207,-271.506 616.01,-265.611 605.452,-264.73 607.207,-271.506"/>
</g>
<!-- Node24 -->
<g id="node24" class="node"><title>Node24</title>
<g id="a_node24"><a xlink:href="ga2la_8h.xhtml" target="_top" xlink:title="Defines structures and functions for mapping from global to local atom indices. The functions are per...">
<polygon fill="white" stroke="black" points="827.5,-241 827.5,-260 953.5,-260 953.5,-241 827.5,-241"/>
<text text-anchor="middle" x="890.5" y="-248" font-family="Helvetica,sans-Serif" font-size="10.00">gromacs/domdec/ga2la.h</text>
</a>
</g>
</g>
<!-- Node1&#45;&gt;Node24 -->
<g id="edge28" class="edge"><title>Node1&#45;&gt;Node24</title>
<path fill="none" stroke="midnightblue" d="M473.53,-309.044C558.509,-297.316 723.478,-274.55 818.454,-261.443"/>
<polygon fill="midnightblue" stroke="midnightblue" points="819.123,-264.884 828.551,-260.049 818.166,-257.949 819.123,-264.884"/>
</g>
<!-- Node25 -->
<g id="node25" class="node"><title>Node25</title>
<g id="a_node25"><a xlink:href="smalloc_8h.xhtml" target="_top" xlink:title="C memory allocation routines for GROMACS. ">
<polygon fill="white" stroke="black" points="919,-179.5 919,-198.5 1044,-198.5 1044,-179.5 919,-179.5"/>
<text text-anchor="middle" x="981.5" y="-186.5" font-family="Helvetica,sans-Serif" font-size="10.00">gromacs/utility/smalloc.h</text>
</a>
</g>
</g>
<!-- Node1&#45;&gt;Node25 -->
<g id="edge38" class="edge"><title>Node1&#45;&gt;Node25</title>
<path fill="none" stroke="midnightblue" d="M473.553,-314.973C603.596,-310.811 925.904,-297.409 962.5,-266 978.755,-252.049 982.2,-226.497 982.445,-208.9"/>
<polygon fill="midnightblue" stroke="midnightblue" points="985.941,-208.616 982.247,-198.686 978.942,-208.752 985.941,-208.616"/>
</g>
<!-- Node27 -->
<g id="node27" class="node"><title>Node27</title>
<g id="a_node27"><a xlink:href="fatalerror_8h.xhtml" target="_top" xlink:title="Declares fatal error handling and debugging routines for C code. ">
<polygon fill="white" stroke="black" points="1100.5,-179.5 1100.5,-198.5 1230.5,-198.5 1230.5,-179.5 1100.5,-179.5"/>
<text text-anchor="middle" x="1165.5" y="-186.5" font-family="Helvetica,sans-Serif" font-size="10.00">gromacs/utility/fatalerror.h</text>
</a>
</g>
</g>
<!-- Node1&#45;&gt;Node27 -->
<g id="edge33" class="edge"><title>Node1&#45;&gt;Node27</title>
<path fill="none" stroke="midnightblue" d="M473.706,-316.974C612.145,-317.46 975.483,-313.99 1084.5,-266 1113.92,-253.047 1139.38,-224.732 1153.55,-206.558"/>
<polygon fill="midnightblue" stroke="midnightblue" points="1156.35,-208.656 1159.57,-198.562 1150.76,-204.445 1156.35,-208.656"/>
</g>
<!-- Node29 -->
<g id="node29" class="node"><title>Node29</title>
<g id="a_node29"><a xlink:href="domdec__specatomcomm_8h.xhtml" target="_top" xlink:title="This file declares functions for domdec to use while managing communication of atoms required for spe...">
<polygon fill="white" stroke="black" points="124.5,-179.5 124.5,-198.5 258.5,-198.5 258.5,-179.5 124.5,-179.5"/>
<text text-anchor="middle" x="191.5" y="-186.5" font-family="Helvetica,sans-Serif" font-size="10.00">domdec_specatomcomm.h</text>
</a>
</g>
</g>
<!-- Node1&#45;&gt;Node29 -->
<g id="edge39" class="edge"><title>Node1&#45;&gt;Node29</title>
<path fill="none" stroke="midnightblue" d="M410.823,-302.49C398.815,-284.262 375.422,-252.663 347.5,-235 320.97,-218.218 287.999,-207.521 259.212,-200.791"/>
<polygon fill="midnightblue" stroke="midnightblue" points="259.743,-197.323 249.222,-198.572 258.225,-204.157 259.743,-197.323"/>
</g>
<!-- Node30 -->
<g id="node30" class="node"><title>Node30</title>
<g id="a_node30"><a xlink:href="hash_8h.xhtml" target="_top" xlink:title="This file declares functions for a simple hash map used by domain decomposition. ">
<polygon fill="white" stroke="black" points="1029.5,-241 1029.5,-260 1075.5,-260 1075.5,-241 1029.5,-241"/>
<text text-anchor="middle" x="1052.5" y="-248" font-family="Helvetica,sans-Serif" font-size="10.00">hash.h</text>
</a>
</g>
</g>
<!-- Node1&#45;&gt;Node30 -->
<g id="edge41" class="edge"><title>Node1&#45;&gt;Node30</title>
<path fill="none" stroke="midnightblue" d="M473.872,-314.662C576.493,-310.546 805.486,-298.28 995.5,-266 1003.34,-264.668 1011.68,-262.805 1019.5,-260.857"/>
<polygon fill="midnightblue" stroke="midnightblue" points="1020.59,-264.19 1029.39,-258.284 1018.83,-257.416 1020.59,-264.19"/>
</g>
<!-- Node7 -->
<g id="node7" class="node"><title>Node7</title>
<polygon fill="white" stroke="#bfbfbf" points="1037.5,-123.5 1037.5,-142.5 1083.5,-142.5 1083.5,-123.5 1037.5,-123.5"/>
<text text-anchor="middle" x="1060.5" y="-130.5" font-family="Helvetica,sans-Serif" font-size="10.00">stdio.h</text>
</g>
<!-- Node6&#45;&gt;Node7 -->
<g id="edge6" class="edge"><title>Node6&#45;&gt;Node7</title>
<path fill="none" stroke="midnightblue" d="M472.754,-240.636C480.784,-225.016 499.801,-192.928 526.5,-179 616.033,-132.293 878.971,-152.577 979.5,-143 995.255,-141.499 1012.71,-139.592 1027.36,-137.919"/>
<polygon fill="midnightblue" stroke="midnightblue" points="1027.94,-141.376 1037.48,-136.753 1027.14,-134.422 1027.94,-141.376"/>
</g>
<!-- Node8 -->
<g id="node8" class="node"><title>Node8</title>
<polygon fill="white" stroke="#bfbfbf" points="228.5,-123.5 228.5,-142.5 272.5,-142.5 272.5,-123.5 228.5,-123.5"/>
<text text-anchor="middle" x="250.5" y="-130.5" font-family="Helvetica,sans-Serif" font-size="10.00">vector</text>
</g>
<!-- Node6&#45;&gt;Node8 -->
<g id="edge7" class="edge"><title>Node6&#45;&gt;Node8</title>
<path fill="none" stroke="midnightblue" d="M416.42,-240.947C382.98,-233.676 339.747,-220.826 306.5,-199 287.501,-186.528 271.257,-165.833 261.232,-151.148"/>
<polygon fill="midnightblue" stroke="midnightblue" points="263.983,-148.96 255.576,-142.512 258.127,-152.795 263.983,-148.96"/>
</g>
<!-- Node9 -->
<g id="node9" class="node"><title>Node9</title>
<g id="a_node9"><a xlink:href="arrayref_8h.xhtml" target="_top" xlink:title="Declares gmx::ArrayRef. ">
<polygon fill="white" stroke="black" points="315,-179.5 315,-198.5 440,-198.5 440,-179.5 315,-179.5"/>
<text text-anchor="middle" x="377.5" y="-186.5" font-family="Helvetica,sans-Serif" font-size="10.00">gromacs/utility/arrayref.h</text>
</a>
</g>
</g>
<!-- Node6&#45;&gt;Node9 -->
<g id="edge8" class="edge"><title>Node6&#45;&gt;Node9</title>
<path fill="none" stroke="midnightblue" d="M455.462,-240.975C440.731,-231.343 416.527,-215.517 398.991,-204.052"/>
<polygon fill="midnightblue" stroke="midnightblue" points="400.799,-201.052 390.514,-198.509 396.968,-206.911 400.799,-201.052"/>
</g>
<!-- Node16 -->
<g id="node16" class="node"><title>Node16</title>
<g id="a_node16"><a xlink:href="basedefinitions_8h.xhtml" target="_top" xlink:title="Basic types and macros used throughout GROMACS. ">
<polygon fill="white" stroke="black" points="630,-62 630,-81 787,-81 787,-62 630,-62"/>
<text text-anchor="middle" x="708.5" y="-69" font-family="Helvetica,sans-Serif" font-size="10.00">gromacs/utility/basedefinitions.h</text>
</a>
</g>
</g>
<!-- Node6&#45;&gt;Node16 -->
<g id="edge20" class="edge"><title>Node6&#45;&gt;Node16</title>
<path fill="none" stroke="midnightblue" d="M469.982,-240.673C472.811,-226.221 480.211,-197.295 496.5,-179 522.231,-150.1 624.392,-106.253 676.93,-84.9672"/>
<polygon fill="midnightblue" stroke="midnightblue" points="678.465,-88.1223 686.437,-81.1429 675.853,-81.6282 678.465,-88.1223"/>
</g>
<!-- Node20 -->
<g id="node20" class="node"><title>Node20</title>
<g id="a_node20"><a xlink:href="real_8h.xhtml" target="_top" xlink:title="Declares real and related constants. ">
<polygon fill="white" stroke="black" points="535,-179.5 535,-198.5 642,-198.5 642,-179.5 535,-179.5"/>
<text text-anchor="middle" x="588.5" y="-186.5" font-family="Helvetica,sans-Serif" font-size="10.00">gromacs/utility/real.h</text>
</a>
</g>
</g>
<!-- Node6&#45;&gt;Node20 -->
<g id="edge21" class="edge"><title>Node6&#45;&gt;Node20</title>
<path fill="none" stroke="midnightblue" d="M485.693,-240.975C505.743,-231.034 539.099,-214.495 562.36,-202.961"/>
<polygon fill="midnightblue" stroke="midnightblue" points="563.934,-206.087 571.339,-198.509 560.825,-199.816 563.934,-206.087"/>
</g>
<!-- Node9&#45;&gt;Node8 -->
<g id="edge14" class="edge"><title>Node9&#45;&gt;Node8</title>
<path fill="none" stroke="midnightblue" d="M357.376,-179.444C336.476,-170.557 303.565,-156.563 279.784,-146.451"/>
<polygon fill="midnightblue" stroke="midnightblue" points="281.102,-143.208 270.529,-142.516 278.362,-149.65 281.102,-143.208"/>
</g>
<!-- Node10 -->
<g id="node10" class="node"><title>Node10</title>
<polygon fill="white" stroke="#bfbfbf" points="609,-123.5 609,-142.5 658,-142.5 658,-123.5 609,-123.5"/>
<text text-anchor="middle" x="633.5" y="-130.5" font-family="Helvetica,sans-Serif" font-size="10.00">cstddef</text>
</g>
<!-- Node9&#45;&gt;Node10 -->
<g id="edge9" class="edge"><title>Node9&#45;&gt;Node10</title>
<path fill="none" stroke="midnightblue" d="M418.064,-179.444C468.003,-168.91 551.955,-151.201 598.957,-141.286"/>
<polygon fill="midnightblue" stroke="midnightblue" points="599.894,-144.666 608.956,-139.177 598.449,-137.817 599.894,-144.666"/>
</g>
<!-- Node11 -->
<g id="node11" class="node"><title>Node11</title>
<polygon fill="white" stroke="#bfbfbf" points="290.5,-123.5 290.5,-142.5 328.5,-142.5 328.5,-123.5 290.5,-123.5"/>
<text text-anchor="middle" x="309.5" y="-130.5" font-family="Helvetica,sans-Serif" font-size="10.00">array</text>
</g>
<!-- Node9&#45;&gt;Node11 -->
<g id="edge10" class="edge"><title>Node9&#45;&gt;Node11</title>
<path fill="none" stroke="midnightblue" d="M366.575,-179.324C356.325,-171.185 340.779,-158.839 328.499,-149.087"/>
<polygon fill="midnightblue" stroke="midnightblue" points="330.632,-146.312 320.624,-142.834 326.279,-151.794 330.632,-146.312"/>
</g>
<!-- Node12 -->
<g id="node12" class="node"><title>Node12</title>
<polygon fill="white" stroke="#bfbfbf" points="347,-123.5 347,-142.5 394,-142.5 394,-123.5 347,-123.5"/>
<text text-anchor="middle" x="370.5" y="-130.5" font-family="Helvetica,sans-Serif" font-size="10.00">iterator</text>
</g>
<!-- Node9&#45;&gt;Node12 -->
<g id="edge11" class="edge"><title>Node9&#45;&gt;Node12</title>
<path fill="none" stroke="midnightblue" d="M376.344,-179.083C375.416,-171.927 374.082,-161.635 372.923,-152.691"/>
<polygon fill="midnightblue" stroke="midnightblue" points="376.391,-152.218 371.634,-142.751 369.449,-153.118 376.391,-152.218"/>
</g>
<!-- Node13 -->
<g id="node13" class="node"><title>Node13</title>
<polygon fill="white" stroke="#bfbfbf" points="412,-123.5 412,-142.5 471,-142.5 471,-123.5 412,-123.5"/>
<text text-anchor="middle" x="441.5" y="-130.5" font-family="Helvetica,sans-Serif" font-size="10.00">stdexcept</text>
</g>
<!-- Node9&#45;&gt;Node13 -->
<g id="edge12" class="edge"><title>Node9&#45;&gt;Node13</title>
<path fill="none" stroke="midnightblue" d="M387.783,-179.324C397.336,-171.263 411.78,-159.077 423.284,-149.369"/>
<polygon fill="midnightblue" stroke="midnightblue" points="425.644,-151.958 431.03,-142.834 421.13,-146.608 425.644,-151.958"/>
</g>
<!-- Node14 -->
<g id="node14" class="node"><title>Node14</title>
<polygon fill="white" stroke="#bfbfbf" points="489.5,-123.5 489.5,-142.5 529.5,-142.5 529.5,-123.5 489.5,-123.5"/>
<text text-anchor="middle" x="509.5" y="-130.5" font-family="Helvetica,sans-Serif" font-size="10.00">utility</text>
</g>
<!-- Node9&#45;&gt;Node14 -->
<g id="edge13" class="edge"><title>Node9&#45;&gt;Node14</title>
<path fill="none" stroke="midnightblue" d="M398.416,-179.444C420.364,-170.465 455.055,-156.273 479.828,-146.139"/>
<polygon fill="midnightblue" stroke="midnightblue" points="481.186,-149.365 489.116,-142.339 478.535,-142.886 481.186,-149.365"/>
</g>
<!-- Node9&#45;&gt;Node15 -->
<g id="edge15" class="edge"><title>Node9&#45;&gt;Node15</title>
<path fill="none" stroke="midnightblue" d="M334.084,-179.444C285.985,-169.964 208.405,-154.675 156.694,-144.483"/>
<polygon fill="midnightblue" stroke="midnightblue" points="157.201,-141.016 146.713,-142.516 155.847,-147.884 157.201,-141.016"/>
</g>
<!-- Node15&#45;&gt;Node16 -->
<g id="edge16" class="edge"><title>Node15&#45;&gt;Node16</title>
<path fill="none" stroke="midnightblue" d="M172.336,-124.474C177.129,-123.969 181.886,-123.473 186.5,-123 338.58,-107.399 515.726,-90.5382 619.632,-80.7818"/>
<polygon fill="midnightblue" stroke="midnightblue" points="620.136,-84.25 629.765,-79.8311 619.482,-77.2806 620.136,-84.25"/>
</g>
<!-- Node19 -->
<g id="node19" class="node"><title>Node19</title>
<g id="a_node19"><a xlink:href="current__function_8h.xhtml" target="_top" xlink:title="Declares GMX_CURRENT_FUNCTION for getting the current function name. ">
<polygon fill="white" stroke="black" points="47,-56.5 47,-86.5 160,-86.5 160,-56.5 47,-56.5"/>
<text text-anchor="start" x="55" y="-74.5" font-family="Helvetica,sans-Serif" font-size="10.00">gromacs/utility/current</text>
<text text-anchor="middle" x="103.5" y="-63.5" font-family="Helvetica,sans-Serif" font-size="10.00">_function.h</text>
</a>
</g>
</g>
<!-- Node15&#45;&gt;Node19 -->
<g id="edge19" class="edge"><title>Node15&#45;&gt;Node19</title>
<path fill="none" stroke="midnightblue" d="M103.5,-123.475C103.5,-116.471 103.5,-106.192 103.5,-96.6956"/>
<polygon fill="midnightblue" stroke="midnightblue" points="107,-96.5229 103.5,-86.523 100,-96.523 107,-96.5229"/>
</g>
<!-- Node17 -->
<g id="node17" class="node"><title>Node17</title>
<polygon fill="white" stroke="#bfbfbf" points="648,-0.5 648,-19.5 697,-19.5 697,-0.5 648,-0.5"/>
<text text-anchor="middle" x="672.5" y="-7.5" font-family="Helvetica,sans-Serif" font-size="10.00">stdint.h</text>
</g>
<!-- Node16&#45;&gt;Node17 -->
<g id="edge17" class="edge"><title>Node16&#45;&gt;Node17</title>
<path fill="none" stroke="midnightblue" d="M703.342,-61.9751C698.049,-53.2268 689.665,-39.3691 682.973,-28.3093"/>
<polygon fill="midnightblue" stroke="midnightblue" points="685.82,-26.2531 677.648,-19.5091 679.83,-29.8768 685.82,-26.2531"/>
</g>
<!-- Node18 -->
<g id="node18" class="node"><title>Node18</title>
<polygon fill="white" stroke="#bfbfbf" points="715,-0.5 715,-19.5 774,-19.5 774,-0.5 715,-0.5"/>
<text text-anchor="middle" x="744.5" y="-7.5" font-family="Helvetica,sans-Serif" font-size="10.00">inttypes.h</text>
</g>
<!-- Node16&#45;&gt;Node18 -->
<g id="edge18" class="edge"><title>Node16&#45;&gt;Node18</title>
<path fill="none" stroke="midnightblue" d="M713.658,-61.9751C718.951,-53.2268 727.335,-39.3691 734.027,-28.3093"/>
<polygon fill="midnightblue" stroke="midnightblue" points="737.17,-29.8768 739.352,-19.5091 731.18,-26.2531 737.17,-29.8768"/>
</g>
<!-- Node21&#45;&gt;Node10 -->
<g id="edge23" class="edge"><title>Node21&#45;&gt;Node10</title>
<path fill="none" stroke="midnightblue" d="M667.195,-235.31C663.734,-220.969 657.916,-198.24 651.5,-179 648.468,-169.908 644.571,-159.998 641.178,-151.798"/>
<polygon fill="midnightblue" stroke="midnightblue" points="644.372,-150.364 637.254,-142.516 637.924,-153.089 644.372,-150.364"/>
</g>
<!-- Node21&#45;&gt;Node16 -->
<g id="edge24" class="edge"><title>Node21&#45;&gt;Node16</title>
<path fill="none" stroke="midnightblue" d="M673.545,-235.315C680.347,-203.633 696.776,-127.109 704.438,-91.4186"/>
<polygon fill="midnightblue" stroke="midnightblue" points="707.918,-91.886 706.595,-81.3741 701.074,-90.4166 707.918,-91.886"/>
</g>
<!-- Node21&#45;&gt;Node20 -->
<g id="edge27" class="edge"><title>Node21&#45;&gt;Node20</title>
<path fill="none" stroke="midnightblue" d="M651.067,-235.399C638.292,-226.129 621.611,-214.025 608.686,-204.647"/>
<polygon fill="midnightblue" stroke="midnightblue" points="610.581,-201.698 600.432,-198.658 606.47,-207.364 610.581,-201.698"/>
</g>
<!-- Node22 -->
<g id="node22" class="node"><title>Node22</title>
<g id="a_node22"><a xlink:href="gmxmpi_8h.xhtml" target="_top" xlink:title="Wraps mpi.h usage in Gromacs. ">
<polygon fill="white" stroke="black" points="736.5,-179.5 736.5,-198.5 862.5,-198.5 862.5,-179.5 736.5,-179.5"/>
<text text-anchor="middle" x="799.5" y="-186.5" font-family="Helvetica,sans-Serif" font-size="10.00">gromacs/utility/gmxmpi.h</text>
</a>
</g>
</g>
<!-- Node21&#45;&gt;Node22 -->
<g id="edge25" class="edge"><title>Node21&#45;&gt;Node22</title>
<path fill="none" stroke="midnightblue" d="M701.071,-235.399C722.425,-225.55 750.715,-212.501 771.485,-202.922"/>
<polygon fill="midnightblue" stroke="midnightblue" points="773.115,-206.024 780.729,-198.658 770.183,-199.668 773.115,-206.024"/>
</g>
<!-- Node23 -->
<g id="node23" class="node"><title>Node23</title>
<polygon fill="white" stroke="#bfbfbf" points="774,-123.5 774,-142.5 825,-142.5 825,-123.5 774,-123.5"/>
<text text-anchor="middle" x="799.5" y="-130.5" font-family="Helvetica,sans-Serif" font-size="10.00">config.h</text>
</g>
<!-- Node22&#45;&gt;Node23 -->
<g id="edge26" class="edge"><title>Node22&#45;&gt;Node23</title>
<path fill="none" stroke="midnightblue" d="M799.5,-179.083C799.5,-172.006 799.5,-161.861 799.5,-152.986"/>
<polygon fill="midnightblue" stroke="midnightblue" points="803,-152.751 799.5,-142.751 796,-152.751 803,-152.751"/>
</g>
<!-- Node24&#45;&gt;Node16 -->
<g id="edge29" class="edge"><title>Node24&#45;&gt;Node16</title>
<path fill="none" stroke="midnightblue" d="M889.365,-240.824C885.864,-217.736 873.031,-154.418 834.5,-123 811.604,-104.331 780.918,-91.836 755.561,-83.9455"/>
<polygon fill="midnightblue" stroke="midnightblue" points="756.358,-80.5313 745.776,-81.043 754.368,-87.2423 756.358,-80.5313"/>
</g>
<!-- Node24&#45;&gt;Node25 -->
<g id="edge30" class="edge"><title>Node24&#45;&gt;Node25</title>
<path fill="none" stroke="midnightblue" d="M903.538,-240.975C918.269,-231.343 942.473,-215.517 960.009,-204.052"/>
<polygon fill="midnightblue" stroke="midnightblue" points="962.032,-206.911 968.486,-198.509 958.201,-201.052 962.032,-206.911"/>
</g>
<!-- Node25&#45;&gt;Node16 -->
<g id="edge32" class="edge"><title>Node25&#45;&gt;Node16</title>
<path fill="none" stroke="midnightblue" d="M984.323,-179.21C988.138,-165.451 993.02,-138.772 979.5,-123 956.121,-95.7268 866.975,-83.0745 797.232,-77.2739"/>
<polygon fill="midnightblue" stroke="midnightblue" points="797.339,-73.7715 787.093,-76.4669 796.783,-80.7494 797.339,-73.7715"/>
</g>
<!-- Node26 -->
<g id="node26" class="node"><title>Node26</title>
<polygon fill="white" stroke="#bfbfbf" points="918.5,-123.5 918.5,-142.5 970.5,-142.5 970.5,-123.5 918.5,-123.5"/>
<text text-anchor="middle" x="944.5" y="-130.5" font-family="Helvetica,sans-Serif" font-size="10.00">stddef.h</text>
</g>
<!-- Node25&#45;&gt;Node26 -->
<g id="edge31" class="edge"><title>Node25&#45;&gt;Node26</title>
<path fill="none" stroke="midnightblue" d="M975.39,-179.083C970.218,-171.534 962.654,-160.495 956.306,-151.23"/>
<polygon fill="midnightblue" stroke="midnightblue" points="959.036,-149.022 950.496,-142.751 953.261,-152.979 959.036,-149.022"/>
</g>
<!-- Node27&#45;&gt;Node7 -->
<g id="edge35" class="edge"><title>Node27&#45;&gt;Node7</title>
<path fill="none" stroke="midnightblue" d="M1148.63,-179.324C1131.79,-170.664 1105.69,-157.242 1086.26,-147.249"/>
<polygon fill="midnightblue" stroke="midnightblue" points="1087.82,-144.116 1077.33,-142.655 1084.62,-150.341 1087.82,-144.116"/>
</g>
<!-- Node27&#45;&gt;Node16 -->
<g id="edge36" class="edge"><title>Node27&#45;&gt;Node16</title>
<path fill="none" stroke="midnightblue" d="M1168.29,-179.066C1172.05,-165.11 1176.72,-138.165 1162.5,-123 1138.04,-96.9008 922.538,-82.5056 797.437,-76.281"/>
<polygon fill="midnightblue" stroke="midnightblue" points="797.267,-72.7685 787.107,-75.7753 796.924,-79.7601 797.267,-72.7685"/>
</g>
<!-- Node28 -->
<g id="node28" class="node"><title>Node28</title>
<polygon fill="white" stroke="#bfbfbf" points="1101.5,-123.5 1101.5,-142.5 1153.5,-142.5 1153.5,-123.5 1101.5,-123.5"/>
<text text-anchor="middle" x="1127.5" y="-130.5" font-family="Helvetica,sans-Serif" font-size="10.00">stdarg.h</text>
</g>
<!-- Node27&#45;&gt;Node28 -->
<g id="edge34" class="edge"><title>Node27&#45;&gt;Node28</title>
<path fill="none" stroke="midnightblue" d="M1159.23,-179.083C1153.86,-171.455 1145.98,-160.264 1139.42,-150.941"/>
<polygon fill="midnightblue" stroke="midnightblue" points="1142.28,-148.915 1133.66,-142.751 1136.55,-152.943 1142.28,-148.915"/>
</g>
<!-- Node29&#45;&gt;Node16 -->
<g id="edge40" class="edge"><title>Node29&#45;&gt;Node16</title>
<path fill="none" stroke="midnightblue" d="M192.504,-179.113C194.646,-164.711 201.08,-136.529 219.5,-123 250.988,-99.8732 487.598,-83.9943 619.793,-76.8265"/>
<polygon fill="midnightblue" stroke="midnightblue" points="620.109,-80.3147 629.907,-76.284 619.734,-73.3247 620.109,-80.3147"/>
</g>
<!-- Node30&#45;&gt;Node7 -->
<g id="edge42" class="edge"><title>Node30&#45;&gt;Node7</title>
<path fill="none" stroke="midnightblue" d="M1053.1,-240.819C1054.39,-222.257 1057.43,-178.339 1059.19,-152.973"/>
<polygon fill="midnightblue" stroke="midnightblue" points="1062.69,-153 1059.89,-142.782 1055.71,-152.516 1062.69,-153"/>
</g>
<!-- Node30&#45;&gt;Node25 -->
<g id="edge44" class="edge"><title>Node30&#45;&gt;Node25</title>
<path fill="none" stroke="midnightblue" d="M1042.33,-240.975C1031.15,-231.608 1012.98,-216.384 999.409,-205.008"/>
<polygon fill="midnightblue" stroke="midnightblue" points="1001.57,-202.25 991.654,-198.509 997.07,-207.615 1001.57,-202.25"/>
</g>
<!-- Node30&#45;&gt;Node27 -->
<g id="edge43" class="edge"><title>Node30&#45;&gt;Node27</title>
<path fill="none" stroke="midnightblue" d="M1068.69,-240.975C1087.4,-231.122 1118.42,-214.788 1140.3,-203.27"/>
<polygon fill="midnightblue" stroke="midnightblue" points="1142.12,-206.265 1149.34,-198.509 1138.86,-200.071 1142.12,-206.265"/>
</g>
</g>
</svg>
