<?xml version="1.0" encoding="UTF-8" standalone="no"?>
<!DOCTYPE svg PUBLIC "-//W3C//DTD SVG 1.1//EN"
 "http://www.w3.org/Graphics/SVG/1.1/DTD/svg11.dtd">
<!-- Generated by graphviz version 2.38.0 (20140413.2041)
 -->
<!-- Title: logging_overview Pages: 1 -->
<svg width="268pt" height="393pt"
 viewBox="0.00 0.00 268.39 393.00" xmlns="http://www.w3.org/2000/svg" xmlns:xlink="http://www.w3.org/1999/xlink">
<g id="graph0" class="graph" transform="scale(1 1) rotate(0) translate(4 389)">
<title>logging_overview</title>
<polygon fill="white" stroke="none" points="-4,4 -4,-389 264.394,-389 264.394,4 -4,4"/>
<!-- builder -->
<g id="node1" class="node"><title>builder</title>
<g id="a_node1"><a xlink:href="classgmx_1_1LoggerBuilder.xhtml" target="_top" xlink:title="LoggerBuilder">
<ellipse fill="none" stroke="black" cx="62.3945" cy="-280" rx="62.2891" ry="18"/>
<text text-anchor="middle" x="62.3945" y="-276.3" font-family="Times,serif" font-size="14.00">LoggerBuilder</text>
</a>
</g>
</g>
<!-- owner -->
<g id="node2" class="node"><title>owner</title>
<g id="a_node2"><a xlink:href="classgmx_1_1LoggerOwner.xhtml" target="_top" xlink:title="LoggerOwner">
<ellipse fill="none" stroke="black" cx="74.3945" cy="-178" rx="59.5901" ry="18"/>
<text text-anchor="middle" x="74.3945" y="-174.3" font-family="Times,serif" font-size="14.00">LoggerOwner</text>
</a>
</g>
</g>
<!-- builder&#45;&gt;owner -->
<g id="edge1" class="edge"><title>builder&#45;&gt;owner</title>
<path fill="none" stroke="black" d="M64.4847,-261.581C66.3087,-246.382 68.9864,-224.067 71.0987,-206.464"/>
<polygon fill="black" stroke="black" points="74.6117,-206.565 72.3282,-196.219 67.6616,-205.731 74.6117,-206.565"/>
<text text-anchor="middle" x="87.3945" y="-225.3" font-family="Times,serif" font-size="14.00">builds</text>
</g>
<!-- logger -->
<g id="node3" class="node"><title>logger</title>
<g id="a_node3"><a xlink:href="classgmx_1_1MDLogger.xhtml" target="_top" xlink:title="MDLogger">
<ellipse fill="none" stroke="black" cx="172.394" cy="-105" rx="50.8918" ry="18"/>
<text text-anchor="middle" x="172.394" y="-101.3" font-family="Times,serif" font-size="14.00">MDLogger</text>
</a>
</g>
</g>
<!-- owner&#45;&gt;logger -->
<g id="edge2" class="edge"><title>owner&#45;&gt;logger</title>
<path fill="none" stroke="black" d="M96.6322,-160.889C110.228,-151.039 127.789,-138.316 142.58,-127.6"/>
<polygon fill="black" stroke="black" points="144.874,-130.261 150.918,-121.559 140.767,-124.592 144.874,-130.261"/>
</g>
<!-- target -->
<g id="node4" class="node"><title>target</title>
<g id="a_node4"><a xlink:href="classgmx_1_1ILogTarget.xhtml" target="_top" xlink:title="ILogTarget">
<ellipse fill="none" stroke="black" cx="106.394" cy="-18" rx="50.8918" ry="18"/>
<text text-anchor="middle" x="106.394" y="-14.3" font-family="Times,serif" font-size="14.00">ILogTarget</text>
</a>
</g>
</g>
<!-- owner&#45;&gt;target -->
<g id="edge3" class="edge"><title>owner&#45;&gt;target</title>
<path fill="none" stroke="black" d="M74.9534,-159.902C75.8161,-141.664 77.9859,-112.018 83.3945,-87 86.3982,-73.1059 91.2913,-58.0936 95.7937,-45.7178"/>
<polygon fill="black" stroke="black" points="99.1947,-46.6168 99.4339,-36.0247 92.6416,-44.1558 99.1947,-46.6168"/>
<text text-anchor="middle" x="97.8945" y="-101.3" font-family="Times,serif" font-size="14.00">owns</text>
</g>
<!-- logger&#45;&gt;target -->
<g id="edge4" class="edge"><title>logger&#45;&gt;target</title>
<path fill="none" stroke="black" d="M159.355,-87.2067C149.711,-74.7862 136.423,-57.6735 125.571,-43.6965"/>
<polygon fill="black" stroke="black" points="128.08,-41.2211 119.182,-35.4692 122.551,-45.5142 128.08,-41.2211"/>
<text text-anchor="middle" x="171.394" y="-57.8" font-family="Times,serif" font-size="14.00">references</text>
</g>
<!-- user -->
<g id="node5" class="node"><title>user</title>
<ellipse fill="none" stroke="black" cx="116.394" cy="-367" rx="48.9926" ry="18"/>
<text text-anchor="middle" x="116.394" y="-363.3" font-family="Times,serif" font-size="14.00">using code</text>
</g>
<!-- user&#45;&gt;builder -->
<g id="edge5" class="edge"><title>user&#45;&gt;builder</title>
<path fill="none" stroke="black" d="M84.3658,-353.355C74.9389,-347.955 65.73,-340.627 60.3945,-331 56.6305,-324.209 55.7385,-316.065 56.1718,-308.341"/>
<polygon fill="black" stroke="black" points="59.6676,-308.593 57.4391,-298.235 52.722,-307.722 59.6676,-308.593"/>
<text text-anchor="middle" x="110.394" y="-319.8" font-family="Times,serif" font-size="14.00">set logging targets</text>
</g>
<!-- user&#45;&gt;logger -->
<g id="edge6" class="edge"><title>user&#45;&gt;logger</title>
<path fill="none" stroke="black" d="M141.902,-351.488C149.14,-346.04 156.19,-339.155 160.394,-331 193.683,-266.439 184.993,-177.157 177.709,-132.984"/>
<polygon fill="black" stroke="black" points="181.136,-132.262 175.96,-123.017 174.241,-133.471 181.136,-132.262"/>
<text text-anchor="middle" x="222.394" y="-232.8" font-family="Times,serif" font-size="14.00">write with</text>
<text text-anchor="middle" x="222.394" y="-217.8" font-family="Times,serif" font-size="14.00">GMX_LOG()</text>
</g>
</g>
</svg>
