<?xml version="1.0" encoding="UTF-8" standalone="no"?>
<!DOCTYPE svg PUBLIC "-//W3C//DTD SVG 1.1//EN"
 "http://www.w3.org/Graphics/SVG/1.1/DTD/svg11.dtd">
<!-- Generated by graphviz version 2.38.0 (20140413.2041)
 -->
<!-- Title: src/gromacs/mdtypes/energyhistory.h Pages: 1 -->
<svg width="423pt" height="151pt"
 viewBox="0.00 0.00 422.50 151.00" xmlns="http://www.w3.org/2000/svg" xmlns:xlink="http://www.w3.org/1999/xlink">
<g id="graph0" class="graph" transform="scale(1 1) rotate(0) translate(4 147)">
<title>src/gromacs/mdtypes/energyhistory.h</title>
<polygon fill="white" stroke="none" points="-4,4 -4,-147 418.5,-147 418.5,4 -4,4"/>
<!-- Node1 -->
<g id="node1" class="node"><title>Node1</title>
<polygon fill="#bfbfbf" stroke="black" points="95.5,-112.5 95.5,-142.5 206.5,-142.5 206.5,-112.5 95.5,-112.5"/>
<text text-anchor="start" x="103.5" y="-130.5" font-family="Helvetica,sans-Serif" font-size="10.00">src/gromacs/mdtypes</text>
<text text-anchor="middle" x="151" y="-119.5" font-family="Helvetica,sans-Serif" font-size="10.00">/energyhistory.h</text>
</g>
<!-- Node2 -->
<g id="node2" class="node"><title>Node2</title>
<polygon fill="white" stroke="#bfbfbf" points="0,-56.5 0,-75.5 52,-75.5 52,-56.5 0,-56.5"/>
<text text-anchor="middle" x="26" y="-63.5" font-family="Helvetica,sans-Serif" font-size="10.00">memory</text>
</g>
<!-- Node1&#45;&gt;Node2 -->
<g id="edge1" class="edge"><title>Node1&#45;&gt;Node2</title>
<path fill="none" stroke="midnightblue" d="M121.377,-112.399C100.778,-102.595 73.5197,-89.6194 53.4201,-80.052"/>
<polygon fill="midnightblue" stroke="midnightblue" points="54.7222,-76.7955 44.1886,-75.6578 51.7136,-83.116 54.7222,-76.7955"/>
</g>
<!-- Node3 -->
<g id="node3" class="node"><title>Node3</title>
<polygon fill="white" stroke="#bfbfbf" points="70,-56.5 70,-75.5 114,-75.5 114,-56.5 70,-56.5"/>
<text text-anchor="middle" x="92" y="-63.5" font-family="Helvetica,sans-Serif" font-size="10.00">vector</text>
</g>
<!-- Node1&#45;&gt;Node3 -->
<g id="edge2" class="edge"><title>Node1&#45;&gt;Node3</title>
<path fill="none" stroke="midnightblue" d="M137.018,-112.399C128.268,-103.575 116.971,-92.1827 107.883,-83.0178"/>
<polygon fill="midnightblue" stroke="midnightblue" points="110.112,-80.2942 100.585,-75.6578 105.141,-85.2231 110.112,-80.2942"/>
</g>
<!-- Node4 -->
<g id="node4" class="node"><title>Node4</title>
<g id="a_node4"><a xlink:href="basedefinitions_8h.xhtml" target="_top" xlink:title="Basic types and macros used throughout GROMACS. ">
<polygon fill="white" stroke="black" points="132.5,-56.5 132.5,-75.5 289.5,-75.5 289.5,-56.5 132.5,-56.5"/>
<text text-anchor="middle" x="211" y="-63.5" font-family="Helvetica,sans-Serif" font-size="10.00">gromacs/utility/basedefinitions.h</text>
</a>
</g>
</g>
<!-- Node1&#45;&gt;Node4 -->
<g id="edge3" class="edge"><title>Node1&#45;&gt;Node4</title>
<path fill="none" stroke="midnightblue" d="M165.219,-112.399C174.208,-103.486 185.838,-91.9523 195.127,-82.7408"/>
<polygon fill="midnightblue" stroke="midnightblue" points="197.633,-85.1844 202.269,-75.6578 192.704,-80.214 197.633,-85.1844"/>
</g>
<!-- Node7 -->
<g id="node7" class="node"><title>Node7</title>
<g id="a_node7"><a xlink:href="real_8h.xhtml" target="_top" xlink:title="Declares real and related constants. ">
<polygon fill="white" stroke="black" points="307.5,-56.5 307.5,-75.5 414.5,-75.5 414.5,-56.5 307.5,-56.5"/>
<text text-anchor="middle" x="361" y="-63.5" font-family="Helvetica,sans-Serif" font-size="10.00">gromacs/utility/real.h</text>
</a>
</g>
</g>
<!-- Node1&#45;&gt;Node7 -->
<g id="edge6" class="edge"><title>Node1&#45;&gt;Node7</title>
<path fill="none" stroke="midnightblue" d="M200.501,-112.475C237.363,-102.03 287.032,-87.9576 321.305,-78.2469"/>
<polygon fill="midnightblue" stroke="midnightblue" points="322.31,-81.5999 330.978,-75.5064 320.402,-74.865 322.31,-81.5999"/>
</g>
<!-- Node5 -->
<g id="node5" class="node"><title>Node5</title>
<polygon fill="white" stroke="#bfbfbf" points="150.5,-0.5 150.5,-19.5 199.5,-19.5 199.5,-0.5 150.5,-0.5"/>
<text text-anchor="middle" x="175" y="-7.5" font-family="Helvetica,sans-Serif" font-size="10.00">stdint.h</text>
</g>
<!-- Node4&#45;&gt;Node5 -->
<g id="edge4" class="edge"><title>Node4&#45;&gt;Node5</title>
<path fill="none" stroke="midnightblue" d="M205.055,-56.083C200.023,-48.5341 192.663,-37.4948 186.487,-28.2298"/>
<polygon fill="midnightblue" stroke="midnightblue" points="189.293,-26.1301 180.834,-19.7511 183.469,-30.0131 189.293,-26.1301"/>
</g>
<!-- Node6 -->
<g id="node6" class="node"><title>Node6</title>
<polygon fill="white" stroke="#bfbfbf" points="217.5,-0.5 217.5,-19.5 276.5,-19.5 276.5,-0.5 217.5,-0.5"/>
<text text-anchor="middle" x="247" y="-7.5" font-family="Helvetica,sans-Serif" font-size="10.00">inttypes.h</text>
</g>
<!-- Node4&#45;&gt;Node6 -->
<g id="edge5" class="edge"><title>Node4&#45;&gt;Node6</title>
<path fill="none" stroke="midnightblue" d="M216.945,-56.083C221.977,-48.5341 229.337,-37.4948 235.513,-28.2298"/>
<polygon fill="midnightblue" stroke="midnightblue" points="238.531,-30.0131 241.166,-19.7511 232.707,-26.1301 238.531,-30.0131"/>
</g>
</g>
</svg>
