<?xml version="1.0" encoding="UTF-8" standalone="no"?>
<!DOCTYPE svg PUBLIC "-//W3C//DTD SVG 1.1//EN"
 "http://www.w3.org/Graphics/SVG/1.1/DTD/svg11.dtd">
<!-- Generated by graphviz version 2.38.0 (20140413.2041)
 -->
<!-- Title: src/programs/mdrun/tests/energyreader.h Pages: 1 -->
<svg width="402pt" height="106pt"
 viewBox="0.00 0.00 401.50 106.00" xmlns="http://www.w3.org/2000/svg" xmlns:xlink="http://www.w3.org/1999/xlink">
<g id="graph0" class="graph" transform="scale(1 1) rotate(0) translate(4 102)">
<title>src/programs/mdrun/tests/energyreader.h</title>
<polygon fill="white" stroke="none" points="-4,4 -4,-102 397.5,-102 397.5,4 -4,4"/>
<!-- Node1 -->
<g id="node1" class="node"><title>Node1</title>
<polygon fill="#bfbfbf" stroke="black" points="150,-67.5 150,-97.5 259,-97.5 259,-67.5 150,-67.5"/>
<text text-anchor="start" x="158" y="-85.5" font-family="Helvetica,sans-Serif" font-size="10.00">src/programs/mdrun</text>
<text text-anchor="middle" x="204.5" y="-74.5" font-family="Helvetica,sans-Serif" font-size="10.00">/tests/energyreader.h</text>
</g>
<!-- Node2 -->
<g id="node2" class="node"><title>Node2</title>
<g id="a_node2"><a xlink:href="energyreader_8cpp.xhtml" target="_top" xlink:title="Implementions of related classes for tests that want to inspect energies produced by mdrun...">
<polygon fill="white" stroke="black" points="0,-0.5 0,-30.5 119,-30.5 119,-0.5 0,-0.5"/>
<text text-anchor="start" x="8" y="-18.5" font-family="Helvetica,sans-Serif" font-size="10.00">src/programs/mdrun</text>
<text text-anchor="middle" x="59.5" y="-7.5" font-family="Helvetica,sans-Serif" font-size="10.00">/tests/energyreader.cpp</text>
</a>
</g>
</g>
<!-- Node1&#45;&gt;Node2 -->
<g id="edge1" class="edge"><title>Node1&#45;&gt;Node2</title>
<path fill="none" stroke="midnightblue" d="M163.83,-63.2687C140.735,-52.9159 112.264,-40.1528 90.9014,-30.5765"/>
<polygon fill="midnightblue" stroke="midnightblue" points="162.48,-66.4991 173.037,-67.396 165.344,-60.1116 162.48,-66.4991"/>
</g>
<!-- Node3 -->
<g id="node3" class="node"><title>Node3</title>
<g id="a_node3"><a xlink:href="initialconstraints_8cpp.xhtml" target="_top" xlink:title="This implements basic initial constrains test (using single&#45;rank mdrun) ">
<polygon fill="white" stroke="black" points="137.5,-0.5 137.5,-30.5 271.5,-30.5 271.5,-0.5 137.5,-0.5"/>
<text text-anchor="start" x="145.5" y="-18.5" font-family="Helvetica,sans-Serif" font-size="10.00">src/programs/mdrun</text>
<text text-anchor="middle" x="204.5" y="-7.5" font-family="Helvetica,sans-Serif" font-size="10.00">/tests/initialconstraints.cpp</text>
</a>
</g>
</g>
<!-- Node1&#45;&gt;Node3 -->
<g id="edge2" class="edge"><title>Node1&#45;&gt;Node3</title>
<path fill="none" stroke="midnightblue" d="M204.5,-57.1081C204.5,-48.1539 204.5,-38.3227 204.5,-30.5765"/>
<polygon fill="midnightblue" stroke="midnightblue" points="201,-57.3959 204.5,-67.396 208,-57.396 201,-57.3959"/>
</g>
<!-- Node4 -->
<g id="node4" class="node"><title>Node4</title>
<g id="a_node4"><a xlink:href="pmetest_8cpp.xhtml" target="_top" xlink:title="This implements basic PME sanity tests. It runs the input system with PME for several steps (on CPU a...">
<polygon fill="white" stroke="black" points="289.5,-0.5 289.5,-30.5 393.5,-30.5 393.5,-0.5 289.5,-0.5"/>
<text text-anchor="start" x="297.5" y="-18.5" font-family="Helvetica,sans-Serif" font-size="10.00">src/programs/mdrun</text>
<text text-anchor="middle" x="341.5" y="-7.5" font-family="Helvetica,sans-Serif" font-size="10.00">/tests/pmetest.cpp</text>
</a>
</g>
</g>
<!-- Node1&#45;&gt;Node4 -->
<g id="edge3" class="edge"><title>Node1&#45;&gt;Node4</title>
<path fill="none" stroke="midnightblue" d="M243.509,-62.9921C265.224,-52.6892 291.827,-40.0677 311.831,-30.5765"/>
<polygon fill="midnightblue" stroke="midnightblue" points="241.761,-59.9472 234.227,-67.396 244.762,-66.2715 241.761,-59.9472"/>
</g>
</g>
</svg>
