<?xml version="1.0" encoding="UTF-8" standalone="no"?>
<!DOCTYPE svg PUBLIC "-//W3C//DTD SVG 1.1//EN"
 "http://www.w3.org/Graphics/SVG/1.1/DTD/svg11.dtd">
<!-- Generated by graphviz version 2.38.0 (20140413.2041)
 -->
<!-- Title: src/gromacs/utility/errorcodes.cpp Pages: 1 -->
<svg width="154pt" height="95pt"
 viewBox="0.00 0.00 154.00 95.00" xmlns="http://www.w3.org/2000/svg" xmlns:xlink="http://www.w3.org/1999/xlink">
<g id="graph0" class="graph" transform="scale(1 1) rotate(0) translate(4 91)">
<title>src/gromacs/utility/errorcodes.cpp</title>
<polygon fill="white" stroke="none" points="-4,4 -4,-91 150,-91 150,4 -4,4"/>
<!-- Node1 -->
<g id="node1" class="node"><title>Node1</title>
<polygon fill="#bfbfbf" stroke="black" points="21,-56.5 21,-86.5 118,-86.5 118,-56.5 21,-56.5"/>
<text text-anchor="start" x="29" y="-74.5" font-family="Helvetica,sans-Serif" font-size="10.00">src/gromacs/utility</text>
<text text-anchor="middle" x="69.5" y="-63.5" font-family="Helvetica,sans-Serif" font-size="10.00">/errorcodes.cpp</text>
</g>
<!-- Node2 -->
<g id="node2" class="node"><title>Node2</title>
<g id="a_node2"><a xlink:href="gmxpre_8h.xhtml" target="_top" xlink:title="Prerequisite header file for GROMACS build. ">
<polygon fill="white" stroke="black" points="0,-0.5 0,-19.5 57,-19.5 57,-0.5 0,-0.5"/>
<text text-anchor="middle" x="28.5" y="-7.5" font-family="Helvetica,sans-Serif" font-size="10.00">gmxpre.h</text>
</a>
</g>
</g>
<!-- Node1&#45;&gt;Node2 -->
<g id="edge1" class="edge"><title>Node1&#45;&gt;Node2</title>
<path fill="none" stroke="midnightblue" d="M59.7836,-56.3993C53.9486,-47.9315 46.4843,-37.0991 40.3103,-28.1393"/>
<polygon fill="midnightblue" stroke="midnightblue" points="43.022,-25.9062 34.4659,-19.6578 37.258,-29.8781 43.022,-25.9062"/>
</g>
<!-- Node3 -->
<g id="node3" class="node"><title>Node3</title>
<g id="a_node3"><a xlink:href="errorcodes_8h.xhtml" target="_top" xlink:title="Declares error codes and related functions for fatal error handling. ">
<polygon fill="white" stroke="black" points="75,-0.5 75,-19.5 146,-19.5 146,-0.5 75,-0.5"/>
<text text-anchor="middle" x="110.5" y="-7.5" font-family="Helvetica,sans-Serif" font-size="10.00">errorcodes.h</text>
</a>
</g>
</g>
<!-- Node1&#45;&gt;Node3 -->
<g id="edge2" class="edge"><title>Node1&#45;&gt;Node3</title>
<path fill="none" stroke="midnightblue" d="M79.2164,-56.3993C85.0514,-47.9315 92.5157,-37.0991 98.6897,-28.1393"/>
<polygon fill="midnightblue" stroke="midnightblue" points="101.742,-29.8781 104.534,-19.6578 95.978,-25.9062 101.742,-29.8781"/>
</g>
</g>
</svg>
