<?xml version="1.0" encoding="UTF-8" standalone="no"?>
<!DOCTYPE svg PUBLIC "-//W3C//DTD SVG 1.1//EN"
 "http://www.w3.org/Graphics/SVG/1.1/DTD/svg11.dtd">
<!-- Generated by graphviz version 2.38.0 (20140413.2041)
 -->
<!-- Title: src/gromacs/selection/evaluate.cpp Pages: 1 -->
<svg width="2348pt" height="464pt"
 viewBox="0.00 0.00 2347.50 464.00" xmlns="http://www.w3.org/2000/svg" xmlns:xlink="http://www.w3.org/1999/xlink">
<g id="graph0" class="graph" transform="scale(1 1) rotate(0) translate(4 460)">
<title>src/gromacs/selection/evaluate.cpp</title>
<polygon fill="white" stroke="none" points="-4,4 -4,-460 2343.5,-460 2343.5,4 -4,4"/>
<!-- Node1 -->
<g id="node1" class="node"><title>Node1</title>
<polygon fill="#bfbfbf" stroke="black" points="771,-425.5 771,-455.5 884,-455.5 884,-425.5 771,-425.5"/>
<text text-anchor="start" x="779" y="-443.5" font-family="Helvetica,sans-Serif" font-size="10.00">src/gromacs/selection</text>
<text text-anchor="middle" x="827.5" y="-432.5" font-family="Helvetica,sans-Serif" font-size="10.00">/evaluate.cpp</text>
</g>
<!-- Node2 -->
<g id="node2" class="node"><title>Node2</title>
<g id="a_node2"><a xlink:href="gmxpre_8h.xhtml" target="_top" xlink:title="Prerequisite header file for GROMACS build. ">
<polygon fill="white" stroke="black" points="60,-364 60,-383 117,-383 117,-364 60,-364"/>
<text text-anchor="middle" x="88.5" y="-371" font-family="Helvetica,sans-Serif" font-size="10.00">gmxpre.h</text>
</a>
</g>
</g>
<!-- Node1&#45;&gt;Node2 -->
<g id="edge1" class="edge"><title>Node1&#45;&gt;Node2</title>
<path fill="none" stroke="midnightblue" d="M770.916,-440.201C651.499,-440.635 365.465,-436.143 131.5,-389 127.807,-388.256 123.994,-387.284 120.234,-386.195"/>
<polygon fill="midnightblue" stroke="midnightblue" points="121.115,-382.803 110.525,-383.117 119,-389.476 121.115,-382.803"/>
</g>
<!-- Node3 -->
<g id="node3" class="node"><title>Node3</title>
<g id="a_node3"><a xlink:href="evaluate_8h.xhtml" target="_top" xlink:title="Evaluation functions for sel_evalfunc(). ">
<polygon fill="white" stroke="black" points="211.5,-364 211.5,-383 273.5,-383 273.5,-364 211.5,-364"/>
<text text-anchor="middle" x="242.5" y="-371" font-family="Helvetica,sans-Serif" font-size="10.00">evaluate.h</text>
</a>
</g>
</g>
<!-- Node1&#45;&gt;Node3 -->
<g id="edge2" class="edge"><title>Node1&#45;&gt;Node3</title>
<path fill="none" stroke="midnightblue" d="M770.933,-438.263C671.963,-435.203 461.364,-424.693 287.5,-389 283.543,-388.188 279.444,-387.152 275.404,-386.008"/>
<polygon fill="midnightblue" stroke="midnightblue" points="276.184,-382.587 265.597,-383.01 274.137,-389.281 276.184,-382.587"/>
</g>
<!-- Node4 -->
<g id="node4" class="node"><title>Node4</title>
<g id="a_node4"><a xlink:href="selelem_8h.xhtml" target="_top" xlink:title="Declares gmx::SelectionTreeElement and related things. ">
<polygon fill="white" stroke="black" points="258,-235.5 258,-254.5 317,-254.5 317,-235.5 258,-235.5"/>
<text text-anchor="middle" x="287.5" y="-242.5" font-family="Helvetica,sans-Serif" font-size="10.00">selelem.h</text>
</a>
</g>
</g>
<!-- Node1&#45;&gt;Node4 -->
<g id="edge76" class="edge"><title>Node1&#45;&gt;Node4</title>
<path fill="none" stroke="midnightblue" d="M770.987,-437.698C692.376,-434.002 546.193,-422.795 426.5,-389 357.013,-369.38 317.637,-382.677 278.5,-322 267.394,-304.781 272.935,-280.727 279.096,-264.322"/>
<polygon fill="midnightblue" stroke="midnightblue" points="282.451,-265.372 283.066,-254.795 275.989,-262.679 282.451,-265.372"/>
</g>
<!-- Node7 -->
<g id="node7" class="node"><title>Node7</title>
<g id="a_node7"><a xlink:href="indexutil_8h.xhtml" target="_top" xlink:title="API for handling index files and index groups. ">
<polygon fill="white" stroke="black" points="197,-123.5 197,-142.5 340,-142.5 340,-123.5 197,-123.5"/>
<text text-anchor="middle" x="268.5" y="-130.5" font-family="Helvetica,sans-Serif" font-size="10.00">gromacs/selection/indexutil.h</text>
</a>
</g>
</g>
<!-- Node1&#45;&gt;Node7 -->
<g id="edge16" class="edge"><title>Node1&#45;&gt;Node7</title>
<path fill="none" stroke="midnightblue" d="M770.975,-439.202C624.368,-437.843 240.628,-430.333 202.5,-389 138.393,-319.504 220.887,-195.931 254.997,-150.962"/>
<polygon fill="midnightblue" stroke="midnightblue" points="257.938,-152.88 261.294,-142.831 252.404,-148.594 257.938,-152.88"/>
</g>
<!-- Node12 -->
<g id="node12" class="node"><title>Node12</title>
<polygon fill="white" stroke="#bfbfbf" points="2216,-364 2216,-383 2265,-383 2265,-364 2216,-364"/>
<text text-anchor="middle" x="2240.5" y="-371" font-family="Helvetica,sans-Serif" font-size="10.00">string.h</text>
</g>
<!-- Node1&#45;&gt;Node12 -->
<g id="edge14" class="edge"><title>Node1&#45;&gt;Node12</title>
<path fill="none" stroke="midnightblue" d="M884.296,-438.681C1127.83,-434.999 2077.29,-418.841 2207.5,-389 2209.87,-388.457 2212.28,-387.746 2214.66,-386.93"/>
<polygon fill="midnightblue" stroke="midnightblue" points="2216.14,-390.105 2224.13,-383.145 2213.55,-383.604 2216.14,-390.105"/>
</g>
<!-- Node13 -->
<g id="node13" class="node"><title>Node13</title>
<polygon fill="white" stroke="#bfbfbf" points="2283.5,-364 2283.5,-383 2339.5,-383 2339.5,-364 2283.5,-364"/>
<text text-anchor="middle" x="2311.5" y="-371" font-family="Helvetica,sans-Serif" font-size="10.00">algorithm</text>
</g>
<!-- Node1&#45;&gt;Node13 -->
<g id="edge15" class="edge"><title>Node1&#45;&gt;Node13</title>
<path fill="none" stroke="midnightblue" d="M884.051,-438.655C1134.42,-434.762 2136.81,-417.512 2274.5,-389 2277.51,-388.377 2280.59,-387.531 2283.63,-386.559"/>
<polygon fill="midnightblue" stroke="midnightblue" points="2284.85,-389.843 2293.05,-383.143 2282.46,-383.262 2284.85,-389.843"/>
</g>
<!-- Node14 -->
<g id="node14" class="node"><title>Node14</title>
<g id="a_node14"><a xlink:href="selection_2selection_8h.xhtml" target="_top" xlink:title="Declares gmx::Selection and supporting classes. ">
<polygon fill="white" stroke="black" points="1019.5,-235.5 1019.5,-254.5 1165.5,-254.5 1165.5,-235.5 1019.5,-235.5"/>
<text text-anchor="middle" x="1092.5" y="-242.5" font-family="Helvetica,sans-Serif" font-size="10.00">gromacs/selection/selection.h</text>
</a>
</g>
</g>
<!-- Node1&#45;&gt;Node14 -->
<g id="edge17" class="edge"><title>Node1&#45;&gt;Node14</title>
<path fill="none" stroke="midnightblue" d="M865.579,-425.381C911.504,-406.948 989.164,-371.145 1042.5,-322 1060.58,-305.338 1075.16,-280.833 1083.81,-264.188"/>
<polygon fill="midnightblue" stroke="midnightblue" points="1087.08,-265.49 1088.41,-254.979 1080.81,-262.362 1087.08,-265.49"/>
</g>
<!-- Node25 -->
<g id="node25" class="node"><title>Node25</title>
<g id="a_node25"><a xlink:href="gmxassert_8h.xhtml" target="_top" xlink:title="Defines assert macros customized for Gromacs. ">
<polygon fill="white" stroke="black" points="1919,-123.5 1919,-142.5 2056,-142.5 2056,-123.5 1919,-123.5"/>
<text text-anchor="middle" x="1987.5" y="-130.5" font-family="Helvetica,sans-Serif" font-size="10.00">gromacs/utility/gmxassert.h</text>
</a>
</g>
</g>
<!-- Node1&#45;&gt;Node25 -->
<g id="edge51" class="edge"><title>Node1&#45;&gt;Node25</title>
<path fill="none" stroke="midnightblue" d="M884.366,-439.182C1119.88,-437.13 2006.5,-421.811 2006.5,-307.5 2006.5,-307.5 2006.5,-307.5 2006.5,-244 2006.5,-211.489 1998.34,-174.35 1992.72,-152.61"/>
<polygon fill="midnightblue" stroke="midnightblue" points="1996.04,-151.498 1990.06,-142.751 1989.28,-153.317 1996.04,-151.498"/>
</g>
<!-- Node30 -->
<g id="node30" class="node"><title>Node30</title>
<g id="a_node30"><a xlink:href="exceptions_8h.xhtml" target="_top" xlink:title="Declares common exception classes and macros for fatal error handling. ">
<polygon fill="white" stroke="black" points="1615,-235.5 1615,-254.5 1754,-254.5 1754,-235.5 1615,-235.5"/>
<text text-anchor="middle" x="1684.5" y="-242.5" font-family="Helvetica,sans-Serif" font-size="10.00">gromacs/utility/exceptions.h</text>
</a>
</g>
</g>
<!-- Node1&#45;&gt;Node30 -->
<g id="edge38" class="edge"><title>Node1&#45;&gt;Node30</title>
<path fill="none" stroke="midnightblue" d="M884.062,-426.729C1042.56,-390.942 1489.07,-290.126 1636.55,-256.826"/>
<polygon fill="midnightblue" stroke="midnightblue" points="1637.66,-260.163 1646.65,-254.547 1636.12,-253.335 1637.66,-260.163"/>
</g>
<!-- Node35 -->
<g id="node35" class="node"><title>Node35</title>
<g id="a_node35"><a xlink:href="smalloc_8h.xhtml" target="_top" xlink:title="C memory allocation routines for GROMACS. ">
<polygon fill="white" stroke="black" points="2073,-364 2073,-383 2198,-383 2198,-364 2073,-364"/>
<text text-anchor="middle" x="2135.5" y="-371" font-family="Helvetica,sans-Serif" font-size="10.00">gromacs/utility/smalloc.h</text>
</a>
</g>
</g>
<!-- Node1&#45;&gt;Node35 -->
<g id="edge52" class="edge"><title>Node1&#45;&gt;Node35</title>
<path fill="none" stroke="midnightblue" d="M884.167,-440.091C1059.42,-441.297 1607.96,-440.387 2058.5,-389 2067.44,-387.981 2076.89,-386.521 2086,-384.916"/>
<polygon fill="midnightblue" stroke="midnightblue" points="2086.9,-388.31 2096.1,-383.058 2085.63,-381.426 2086.9,-388.31"/>
</g>
<!-- Node37 -->
<g id="node37" class="node"><title>Node37</title>
<g id="a_node37"><a xlink:href="mempool_8h.xhtml" target="_top" xlink:title="Declarations for memory pooling functions. ">
<polygon fill="white" stroke="black" points="2076,-235.5 2076,-254.5 2141,-254.5 2141,-235.5 2076,-235.5"/>
<text text-anchor="middle" x="2108.5" y="-242.5" font-family="Helvetica,sans-Serif" font-size="10.00">mempool.h</text>
</a>
</g>
</g>
<!-- Node1&#45;&gt;Node37 -->
<g id="edge55" class="edge"><title>Node1&#45;&gt;Node37</title>
<path fill="none" stroke="midnightblue" d="M884.354,-438.572C1115.01,-434.618 1971.03,-418.036 2020.5,-389 2067.95,-361.151 2093.27,-296.633 2103.3,-264.656"/>
<polygon fill="midnightblue" stroke="midnightblue" points="2106.73,-265.399 2106.22,-254.816 2100.02,-263.407 2106.73,-265.399"/>
</g>
<!-- Node38 -->
<g id="node38" class="node"><title>Node38</title>
<g id="a_node38"><a xlink:href="poscalc_8h.xhtml" target="_top" xlink:title="API for structured and optimized calculation of positions. ">
<polygon fill="white" stroke="black" points="288,-297 288,-316 347,-316 347,-297 288,-297"/>
<text text-anchor="middle" x="317.5" y="-304" font-family="Helvetica,sans-Serif" font-size="10.00">poscalc.h</text>
</a>
</g>
</g>
<!-- Node1&#45;&gt;Node38 -->
<g id="edge57" class="edge"><title>Node1&#45;&gt;Node38</title>
<path fill="none" stroke="midnightblue" d="M770.969,-434.562C707.054,-428.041 600.33,-414.305 511.5,-389 448.931,-371.176 379.532,-338.71 343.085,-320.6"/>
<polygon fill="midnightblue" stroke="midnightblue" points="344.639,-317.464 334.132,-316.109 341.501,-323.721 344.639,-317.464"/>
</g>
<!-- Node39 -->
<g id="node39" class="node"><title>Node39</title>
<g id="a_node39"><a xlink:href="selectioncollection-impl_8h.xhtml" target="_top" xlink:title="Declares private implementation class for gmx::SelectionCollection. ">
<polygon fill="white" stroke="black" points="521,-358.5 521,-388.5 618,-388.5 618,-358.5 521,-358.5"/>
<text text-anchor="start" x="529" y="-376.5" font-family="Helvetica,sans-Serif" font-size="10.00">selectioncollection</text>
<text text-anchor="middle" x="569.5" y="-365.5" font-family="Helvetica,sans-Serif" font-size="10.00">&#45;impl.h</text>
</a>
</g>
</g>
<!-- Node1&#45;&gt;Node39 -->
<g id="edge60" class="edge"><title>Node1&#45;&gt;Node39</title>
<path fill="none" stroke="midnightblue" d="M771.835,-425.476C729.37,-414.777 671.027,-400.079 627.899,-389.213"/>
<polygon fill="midnightblue" stroke="midnightblue" points="628.665,-385.796 618.112,-386.747 626.954,-392.584 628.665,-385.796"/>
</g>
<!-- Node42 -->
<g id="node42" class="node"><title>Node42</title>
<g id="a_node42"><a xlink:href="selmethod_8h.xhtml" target="_top" xlink:title="API for handling selection methods. ">
<polygon fill="white" stroke="black" points="85.5,-297 85.5,-316 155.5,-316 155.5,-297 85.5,-297"/>
<text text-anchor="middle" x="120.5" y="-304" font-family="Helvetica,sans-Serif" font-size="10.00">selmethod.h</text>
</a>
</g>
</g>
<!-- Node1&#45;&gt;Node42 -->
<g id="edge77" class="edge"><title>Node1&#45;&gt;Node42</title>
<path fill="none" stroke="midnightblue" d="M770.771,-438.103C620.477,-433.99 220.044,-420.2 169.5,-389 146.375,-374.725 132.729,-345.111 125.934,-325.786"/>
<polygon fill="midnightblue" stroke="midnightblue" points="129.186,-324.467 122.776,-316.031 122.526,-326.623 129.186,-324.467"/>
</g>
<!-- Node3&#45;&gt;Node4 -->
<g id="edge3" class="edge"><title>Node3&#45;&gt;Node4</title>
<path fill="none" stroke="midnightblue" d="M240.937,-363.995C238.524,-348.703 235.176,-315.842 245.5,-291 250.286,-279.483 259.437,-269.115 267.978,-261.241"/>
<polygon fill="midnightblue" stroke="midnightblue" points="270.517,-263.674 275.818,-254.501 265.954,-258.366 270.517,-263.674"/>
</g>
<!-- Node5 -->
<g id="node5" class="node"><title>Node5</title>
<polygon fill="white" stroke="#bfbfbf" points="527.5,-123.5 527.5,-142.5 579.5,-142.5 579.5,-123.5 527.5,-123.5"/>
<text text-anchor="middle" x="553.5" y="-130.5" font-family="Helvetica,sans-Serif" font-size="10.00">memory</text>
</g>
<!-- Node4&#45;&gt;Node5 -->
<g id="edge4" class="edge"><title>Node4&#45;&gt;Node5</title>
<path fill="none" stroke="midnightblue" d="M308.373,-235.368C355.184,-216.01 468.708,-169.065 523.255,-146.507"/>
<polygon fill="midnightblue" stroke="midnightblue" points="524.821,-149.647 532.724,-142.591 522.146,-143.179 524.821,-149.647"/>
</g>
<!-- Node6 -->
<g id="node6" class="node"><title>Node6</title>
<polygon fill="white" stroke="#bfbfbf" points="659,-62 659,-81 700,-81 700,-62 659,-62"/>
<text text-anchor="middle" x="679.5" y="-69" font-family="Helvetica,sans-Serif" font-size="10.00">string</text>
</g>
<!-- Node4&#45;&gt;Node6 -->
<g id="edge5" class="edge"><title>Node4&#45;&gt;Node6</title>
<path fill="none" stroke="midnightblue" d="M294.835,-235.299C314.353,-212.761 370.21,-152.211 430.5,-123 503.386,-87.6861 599.812,-77.0504 648.516,-73.8592"/>
<polygon fill="midnightblue" stroke="midnightblue" points="648.941,-77.3402 658.716,-73.2554 648.527,-70.3525 648.941,-77.3402"/>
</g>
<!-- Node4&#45;&gt;Node7 -->
<g id="edge6" class="edge"><title>Node4&#45;&gt;Node7</title>
<path fill="none" stroke="midnightblue" d="M286.009,-235.368C282.943,-217.617 275.87,-176.666 271.712,-152.597"/>
<polygon fill="midnightblue" stroke="midnightblue" points="275.135,-151.85 269.984,-142.591 268.237,-153.041 275.135,-151.85"/>
</g>
<!-- Node9 -->
<g id="node9" class="node"><title>Node9</title>
<g id="a_node9"><a xlink:href="classhelpers_8h.xhtml" target="_top" xlink:title="Declares common utility classes and macros. ">
<polygon fill="white" stroke="black" points="581.5,-179.5 581.5,-198.5 727.5,-198.5 727.5,-179.5 581.5,-179.5"/>
<text text-anchor="middle" x="654.5" y="-186.5" font-family="Helvetica,sans-Serif" font-size="10.00">gromacs/utility/classhelpers.h</text>
</a>
</g>
</g>
<!-- Node4&#45;&gt;Node9 -->
<g id="edge9" class="edge"><title>Node4&#45;&gt;Node9</title>
<path fill="none" stroke="midnightblue" d="M317.222,-239.627C375.48,-231.055 506.004,-211.849 586.519,-200.003"/>
<polygon fill="midnightblue" stroke="midnightblue" points="587.182,-203.443 596.566,-198.524 586.163,-196.517 587.182,-203.443"/>
</g>
<!-- Node10 -->
<g id="node10" class="node"><title>Node10</title>
<g id="a_node10"><a xlink:href="real_8h.xhtml" target="_top" xlink:title="Declares real and related constants. ">
<polygon fill="white" stroke="black" points="0,-123.5 0,-142.5 107,-142.5 107,-123.5 0,-123.5"/>
<text text-anchor="middle" x="53.5" y="-130.5" font-family="Helvetica,sans-Serif" font-size="10.00">gromacs/utility/real.h</text>
</a>
</g>
</g>
<!-- Node4&#45;&gt;Node10 -->
<g id="edge11" class="edge"><title>Node4&#45;&gt;Node10</title>
<path fill="none" stroke="midnightblue" d="M269.138,-235.368C228.215,-216.131 129.333,-169.648 81.0086,-146.931"/>
<polygon fill="midnightblue" stroke="midnightblue" points="82.3152,-143.678 71.7763,-142.591 79.3372,-150.013 82.3152,-143.678"/>
</g>
<!-- Node11 -->
<g id="node11" class="node"><title>Node11</title>
<g id="a_node11"><a xlink:href="selvalue_8h.xhtml" target="_top" xlink:title="Declares gmx_ana_selvalue_t. ">
<polygon fill="white" stroke="black" points="38,-179.5 38,-198.5 99,-198.5 99,-179.5 38,-179.5"/>
<text text-anchor="middle" x="68.5" y="-186.5" font-family="Helvetica,sans-Serif" font-size="10.00">selvalue.h</text>
</a>
</g>
</g>
<!-- Node4&#45;&gt;Node11 -->
<g id="edge12" class="edge"><title>Node4&#45;&gt;Node11</title>
<path fill="none" stroke="midnightblue" d="M257.965,-236.717C219.593,-227.256 152.417,-210.692 109.226,-200.042"/>
<polygon fill="midnightblue" stroke="midnightblue" points="109.875,-196.597 99.3279,-197.601 108.199,-203.394 109.875,-196.597"/>
</g>
<!-- Node7&#45;&gt;Node6 -->
<g id="edge8" class="edge"><title>Node7&#45;&gt;Node6</title>
<path fill="none" stroke="midnightblue" d="M327.386,-123.475C416.087,-110.634 580.831,-86.7843 648.876,-76.9334"/>
<polygon fill="midnightblue" stroke="midnightblue" points="649.545,-80.3731 658.94,-75.4764 648.542,-73.4453 649.545,-80.3731"/>
</g>
<!-- Node8 -->
<g id="node8" class="node"><title>Node8</title>
<polygon fill="white" stroke="#bfbfbf" points="297,-62 297,-81 340,-81 340,-62 297,-62"/>
<text text-anchor="middle" x="318.5" y="-69" font-family="Helvetica,sans-Serif" font-size="10.00">cstdio</text>
</g>
<!-- Node7&#45;&gt;Node8 -->
<g id="edge7" class="edge"><title>Node7&#45;&gt;Node8</title>
<path fill="none" stroke="midnightblue" d="M275.664,-123.475C283.238,-114.462 295.37,-100.025 304.793,-88.8118"/>
<polygon fill="midnightblue" stroke="midnightblue" points="307.596,-90.9166 311.35,-81.0091 302.237,-86.4132 307.596,-90.9166"/>
</g>
<!-- Node9&#45;&gt;Node5 -->
<g id="edge10" class="edge"><title>Node9&#45;&gt;Node5</title>
<path fill="none" stroke="midnightblue" d="M638.273,-179.324C622.149,-170.703 597.2,-157.364 578.536,-147.386"/>
<polygon fill="midnightblue" stroke="midnightblue" points="580.156,-144.283 569.687,-142.655 576.856,-150.456 580.156,-144.283"/>
</g>
<!-- Node11&#45;&gt;Node10 -->
<g id="edge13" class="edge"><title>Node11&#45;&gt;Node10</title>
<path fill="none" stroke="midnightblue" d="M66.0231,-179.083C64.0135,-171.849 61.1135,-161.409 58.6102,-152.397"/>
<polygon fill="midnightblue" stroke="midnightblue" points="61.9797,-151.449 55.9309,-142.751 55.2351,-153.323 61.9797,-151.449"/>
</g>
<!-- Node14&#45;&gt;Node6 -->
<g id="edge18" class="edge"><title>Node14&#45;&gt;Node6</title>
<path fill="none" stroke="midnightblue" d="M1165.8,-241.105C1276.97,-235.95 1477.68,-223.361 1499.5,-199 1522.03,-173.837 1522.64,-147.608 1499.5,-123 1471.95,-93.6972 856.12,-76.8217 710.27,-73.2274"/>
<polygon fill="midnightblue" stroke="midnightblue" points="710.302,-69.7273 700.22,-72.9826 710.131,-76.7252 710.302,-69.7273"/>
</g>
<!-- Node14&#45;&gt;Node9 -->
<g id="edge36" class="edge"><title>Node14&#45;&gt;Node9</title>
<path fill="none" stroke="midnightblue" d="M1023.1,-235.444C944.367,-225.737 816.226,-209.939 733.664,-199.76"/>
<polygon fill="midnightblue" stroke="midnightblue" points="733.931,-196.266 723.578,-198.516 733.074,-203.214 733.931,-196.266"/>
</g>
<!-- Node15 -->
<g id="node15" class="node"><title>Node15</title>
<polygon fill="white" stroke="#bfbfbf" points="1007.5,-123.5 1007.5,-142.5 1051.5,-142.5 1051.5,-123.5 1007.5,-123.5"/>
<text text-anchor="middle" x="1029.5" y="-130.5" font-family="Helvetica,sans-Serif" font-size="10.00">vector</text>
</g>
<!-- Node14&#45;&gt;Node15 -->
<g id="edge19" class="edge"><title>Node14&#45;&gt;Node15</title>
<path fill="none" stroke="midnightblue" d="M1087.56,-235.368C1077.21,-217.296 1053.08,-175.176 1039.41,-151.307"/>
<polygon fill="midnightblue" stroke="midnightblue" points="1042.43,-149.53 1034.42,-142.591 1036.35,-153.008 1042.43,-149.53"/>
</g>
<!-- Node16 -->
<g id="node16" class="node"><title>Node16</title>
<g id="a_node16"><a xlink:href="position_8h.xhtml" target="_top" xlink:title="API for handling positions. ">
<polygon fill="white" stroke="black" points="746,-179.5 746,-198.5 887,-198.5 887,-179.5 746,-179.5"/>
<text text-anchor="middle" x="816.5" y="-186.5" font-family="Helvetica,sans-Serif" font-size="10.00">gromacs/selection/position.h</text>
</a>
</g>
</g>
<!-- Node14&#45;&gt;Node16 -->
<g id="edge20" class="edge"><title>Node14&#45;&gt;Node16</title>
<path fill="none" stroke="midnightblue" d="M1048.77,-235.444C1000.32,-225.964 922.171,-210.675 870.082,-200.483"/>
<polygon fill="midnightblue" stroke="midnightblue" points="870.514,-197.002 860.028,-198.516 869.17,-203.871 870.514,-197.002"/>
</g>
<!-- Node17 -->
<g id="node17" class="node"><title>Node17</title>
<g id="a_node17"><a xlink:href="selectionenums_8h.xhtml" target="_top" xlink:title="Declares common types used in selections. ">
<polygon fill="white" stroke="black" points="1314.5,-179.5 1314.5,-198.5 1490.5,-198.5 1490.5,-179.5 1314.5,-179.5"/>
<text text-anchor="middle" x="1402.5" y="-186.5" font-family="Helvetica,sans-Serif" font-size="10.00">gromacs/selection/selectionenums.h</text>
</a>
</g>
</g>
<!-- Node14&#45;&gt;Node17 -->
<g id="edge22" class="edge"><title>Node14&#45;&gt;Node17</title>
<path fill="none" stroke="midnightblue" d="M1141.62,-235.444C1196.38,-225.905 1284.91,-210.483 1343.41,-200.293"/>
<polygon fill="midnightblue" stroke="midnightblue" points="1344.36,-203.681 1353.61,-198.516 1343.16,-196.785 1344.36,-203.681"/>
</g>
<!-- Node19 -->
<g id="node19" class="node"><title>Node19</title>
<g id="a_node19"><a xlink:href="arrayref_8h.xhtml" target="_top" xlink:title="Declares gmx::ArrayRef. ">
<polygon fill="white" stroke="black" points="1172,-179.5 1172,-198.5 1297,-198.5 1297,-179.5 1172,-179.5"/>
<text text-anchor="middle" x="1234.5" y="-186.5" font-family="Helvetica,sans-Serif" font-size="10.00">gromacs/utility/arrayref.h</text>
</a>
</g>
</g>
<!-- Node14&#45;&gt;Node19 -->
<g id="edge24" class="edge"><title>Node14&#45;&gt;Node19</title>
<path fill="none" stroke="midnightblue" d="M1115,-235.444C1138.58,-226.478 1175.82,-212.314 1202.46,-202.183"/>
<polygon fill="midnightblue" stroke="midnightblue" points="1204,-205.342 1212.1,-198.516 1201.51,-198.8 1204,-205.342"/>
</g>
<!-- Node14&#45;&gt;Node25 -->
<g id="edge37" class="edge"><title>Node14&#45;&gt;Node25</title>
<path fill="none" stroke="midnightblue" d="M1165.83,-243.712C1254.26,-241.728 1406.68,-233.047 1532.5,-199 1553.24,-193.389 1555.78,-184.685 1576.5,-179 1689.3,-148.044 1825.02,-138.264 1908.79,-135.245"/>
<polygon fill="midnightblue" stroke="midnightblue" points="1909.11,-138.736 1918.99,-134.901 1908.88,-131.74 1909.11,-138.736"/>
</g>
<!-- Node16&#45;&gt;Node7 -->
<g id="edge21" class="edge"><title>Node16&#45;&gt;Node7</title>
<path fill="none" stroke="midnightblue" d="M745.836,-179.988C742.682,-179.65 739.558,-179.319 736.5,-179 601.322,-164.898 444.002,-150.103 350.531,-141.483"/>
<polygon fill="midnightblue" stroke="midnightblue" points="350.572,-137.972 340.293,-140.54 349.93,-144.942 350.572,-137.972"/>
</g>
<!-- Node18 -->
<g id="node18" class="node"><title>Node18</title>
<g id="a_node18"><a xlink:href="flags_8h.xhtml" target="_top" xlink:title="Declares gmx::FlagsTemplate. ">
<polygon fill="white" stroke="black" points="1377,-123.5 1377,-142.5 1490,-142.5 1490,-123.5 1377,-123.5"/>
<text text-anchor="middle" x="1433.5" y="-130.5" font-family="Helvetica,sans-Serif" font-size="10.00">gromacs/utility/flags.h</text>
</a>
</g>
</g>
<!-- Node17&#45;&gt;Node18 -->
<g id="edge23" class="edge"><title>Node17&#45;&gt;Node18</title>
<path fill="none" stroke="midnightblue" d="M1407.62,-179.083C1411.91,-171.613 1418.16,-160.724 1423.44,-151.52"/>
<polygon fill="midnightblue" stroke="midnightblue" points="1426.53,-153.166 1428.48,-142.751 1420.46,-149.681 1426.53,-153.166"/>
</g>
<!-- Node19&#45;&gt;Node15 -->
<g id="edge30" class="edge"><title>Node19&#45;&gt;Node15</title>
<path fill="none" stroke="midnightblue" d="M1202.02,-179.444C1163.63,-169.331 1100.14,-152.607 1061.82,-142.514"/>
<polygon fill="midnightblue" stroke="midnightblue" points="1062.28,-139.016 1051.72,-139.854 1060.5,-145.785 1062.28,-139.016"/>
</g>
<!-- Node20 -->
<g id="node20" class="node"><title>Node20</title>
<polygon fill="white" stroke="#bfbfbf" points="2113,-123.5 2113,-142.5 2162,-142.5 2162,-123.5 2113,-123.5"/>
<text text-anchor="middle" x="2137.5" y="-130.5" font-family="Helvetica,sans-Serif" font-size="10.00">cstddef</text>
</g>
<!-- Node19&#45;&gt;Node20 -->
<g id="edge25" class="edge"><title>Node19&#45;&gt;Node20</title>
<path fill="none" stroke="midnightblue" d="M1297.19,-179.781C1300,-179.499 1302.78,-179.237 1305.5,-179 1642.39,-149.715 1728.59,-171.993 2065.5,-143 2077.73,-141.947 2091.08,-140.392 2102.93,-138.869"/>
<polygon fill="midnightblue" stroke="midnightblue" points="2103.44,-142.333 2112.89,-137.553 2102.52,-135.393 2103.44,-142.333"/>
</g>
<!-- Node21 -->
<g id="node21" class="node"><title>Node21</title>
<polygon fill="white" stroke="#bfbfbf" points="1178.5,-123.5 1178.5,-142.5 1216.5,-142.5 1216.5,-123.5 1178.5,-123.5"/>
<text text-anchor="middle" x="1197.5" y="-130.5" font-family="Helvetica,sans-Serif" font-size="10.00">array</text>
</g>
<!-- Node19&#45;&gt;Node21 -->
<g id="edge26" class="edge"><title>Node19&#45;&gt;Node21</title>
<path fill="none" stroke="midnightblue" d="M1228.39,-179.083C1223.22,-171.534 1215.65,-160.495 1209.31,-151.23"/>
<polygon fill="midnightblue" stroke="midnightblue" points="1212.04,-149.022 1203.5,-142.751 1206.26,-152.979 1212.04,-149.022"/>
</g>
<!-- Node22 -->
<g id="node22" class="node"><title>Node22</title>
<polygon fill="white" stroke="#bfbfbf" points="1235,-123.5 1235,-142.5 1282,-142.5 1282,-123.5 1235,-123.5"/>
<text text-anchor="middle" x="1258.5" y="-130.5" font-family="Helvetica,sans-Serif" font-size="10.00">iterator</text>
</g>
<!-- Node19&#45;&gt;Node22 -->
<g id="edge27" class="edge"><title>Node19&#45;&gt;Node22</title>
<path fill="none" stroke="midnightblue" d="M1238.46,-179.083C1241.71,-171.77 1246.42,-161.181 1250.45,-152.103"/>
<polygon fill="midnightblue" stroke="midnightblue" points="1253.75,-153.311 1254.61,-142.751 1247.35,-150.468 1253.75,-153.311"/>
</g>
<!-- Node23 -->
<g id="node23" class="node"><title>Node23</title>
<polygon fill="white" stroke="#bfbfbf" points="1300,-123.5 1300,-142.5 1359,-142.5 1359,-123.5 1300,-123.5"/>
<text text-anchor="middle" x="1329.5" y="-130.5" font-family="Helvetica,sans-Serif" font-size="10.00">stdexcept</text>
</g>
<!-- Node19&#45;&gt;Node23 -->
<g id="edge28" class="edge"><title>Node19&#45;&gt;Node23</title>
<path fill="none" stroke="midnightblue" d="M1249.76,-179.324C1264.72,-170.822 1287.75,-157.729 1305.23,-147.797"/>
<polygon fill="midnightblue" stroke="midnightblue" points="1307.31,-150.639 1314.27,-142.655 1303.85,-144.553 1307.31,-150.639"/>
</g>
<!-- Node24 -->
<g id="node24" class="node"><title>Node24</title>
<polygon fill="white" stroke="#bfbfbf" points="1120.5,-123.5 1120.5,-142.5 1160.5,-142.5 1160.5,-123.5 1120.5,-123.5"/>
<text text-anchor="middle" x="1140.5" y="-130.5" font-family="Helvetica,sans-Serif" font-size="10.00">utility</text>
</g>
<!-- Node19&#45;&gt;Node24 -->
<g id="edge29" class="edge"><title>Node19&#45;&gt;Node24</title>
<path fill="none" stroke="midnightblue" d="M1219.4,-179.324C1204.6,-170.822 1181.81,-157.729 1164.52,-147.797"/>
<polygon fill="midnightblue" stroke="midnightblue" points="1165.98,-144.601 1155.57,-142.655 1162.49,-150.671 1165.98,-144.601"/>
</g>
<!-- Node19&#45;&gt;Node25 -->
<g id="edge31" class="edge"><title>Node19&#45;&gt;Node25</title>
<path fill="none" stroke="midnightblue" d="M1297.2,-179.845C1300,-179.545 1302.78,-179.262 1305.5,-179 1523.42,-158.018 1781.48,-143.905 1908.62,-137.659"/>
<polygon fill="midnightblue" stroke="midnightblue" points="1908.84,-141.153 1918.66,-137.169 1908.5,-134.161 1908.84,-141.153"/>
</g>
<!-- Node26 -->
<g id="node26" class="node"><title>Node26</title>
<g id="a_node26"><a xlink:href="basedefinitions_8h.xhtml" target="_top" xlink:title="Basic types and macros used throughout GROMACS. ">
<polygon fill="white" stroke="black" points="2006,-62 2006,-81 2163,-81 2163,-62 2006,-62"/>
<text text-anchor="middle" x="2084.5" y="-69" font-family="Helvetica,sans-Serif" font-size="10.00">gromacs/utility/basedefinitions.h</text>
</a>
</g>
</g>
<!-- Node25&#45;&gt;Node26 -->
<g id="edge32" class="edge"><title>Node25&#45;&gt;Node26</title>
<path fill="none" stroke="midnightblue" d="M2001.4,-123.475C2017.17,-113.799 2043.14,-97.8721 2061.85,-86.3941"/>
<polygon fill="midnightblue" stroke="midnightblue" points="2063.93,-89.2213 2070.63,-81.0091 2060.27,-83.2544 2063.93,-89.2213"/>
</g>
<!-- Node29 -->
<g id="node29" class="node"><title>Node29</title>
<g id="a_node29"><a xlink:href="current__function_8h.xhtml" target="_top" xlink:title="Declares GMX_CURRENT_FUNCTION for getting the current function name. ">
<polygon fill="white" stroke="black" points="1854,-56.5 1854,-86.5 1967,-86.5 1967,-56.5 1854,-56.5"/>
<text text-anchor="start" x="1862" y="-74.5" font-family="Helvetica,sans-Serif" font-size="10.00">gromacs/utility/current</text>
<text text-anchor="middle" x="1910.5" y="-63.5" font-family="Helvetica,sans-Serif" font-size="10.00">_function.h</text>
</a>
</g>
</g>
<!-- Node25&#45;&gt;Node29 -->
<g id="edge35" class="edge"><title>Node25&#45;&gt;Node29</title>
<path fill="none" stroke="midnightblue" d="M1976.47,-123.475C1966.14,-115.492 1950.3,-103.254 1936.73,-92.7703"/>
<polygon fill="midnightblue" stroke="midnightblue" points="1938.7,-89.868 1928.65,-86.523 1934.42,-95.407 1938.7,-89.868"/>
</g>
<!-- Node27 -->
<g id="node27" class="node"><title>Node27</title>
<polygon fill="white" stroke="#bfbfbf" points="2024,-0.5 2024,-19.5 2073,-19.5 2073,-0.5 2024,-0.5"/>
<text text-anchor="middle" x="2048.5" y="-7.5" font-family="Helvetica,sans-Serif" font-size="10.00">stdint.h</text>
</g>
<!-- Node26&#45;&gt;Node27 -->
<g id="edge33" class="edge"><title>Node26&#45;&gt;Node27</title>
<path fill="none" stroke="midnightblue" d="M2079.34,-61.9751C2074.05,-53.2268 2065.66,-39.3691 2058.97,-28.3093"/>
<polygon fill="midnightblue" stroke="midnightblue" points="2061.82,-26.2531 2053.65,-19.5091 2055.83,-29.8768 2061.82,-26.2531"/>
</g>
<!-- Node28 -->
<g id="node28" class="node"><title>Node28</title>
<polygon fill="white" stroke="#bfbfbf" points="2091,-0.5 2091,-19.5 2150,-19.5 2150,-0.5 2091,-0.5"/>
<text text-anchor="middle" x="2120.5" y="-7.5" font-family="Helvetica,sans-Serif" font-size="10.00">inttypes.h</text>
</g>
<!-- Node26&#45;&gt;Node28 -->
<g id="edge34" class="edge"><title>Node26&#45;&gt;Node28</title>
<path fill="none" stroke="midnightblue" d="M2089.66,-61.9751C2094.95,-53.2268 2103.34,-39.3691 2110.03,-28.3093"/>
<polygon fill="midnightblue" stroke="midnightblue" points="2113.17,-29.8768 2115.35,-19.5091 2107.18,-26.2531 2113.17,-29.8768"/>
</g>
<!-- Node30&#45;&gt;Node5 -->
<g id="edge42" class="edge"><title>Node30&#45;&gt;Node5</title>
<path fill="none" stroke="midnightblue" d="M1614.78,-239.82C1502.97,-232.879 1276.72,-217.854 1085.5,-199 898.606,-180.572 675.726,-150.799 589.774,-139.024"/>
<polygon fill="midnightblue" stroke="midnightblue" points="590.129,-135.54 579.746,-137.647 589.177,-142.475 590.129,-135.54"/>
</g>
<!-- Node30&#45;&gt;Node6 -->
<g id="edge43" class="edge"><title>Node30&#45;&gt;Node6</title>
<path fill="none" stroke="midnightblue" d="M1754.19,-241.636C1822.23,-236.819 1910.52,-222.334 1873.5,-179 1795.59,-87.7988 889.685,-74.4896 710.268,-72.7444"/>
<polygon fill="midnightblue" stroke="midnightblue" points="710.227,-69.244 700.195,-72.6514 710.162,-76.2437 710.227,-69.244"/>
</g>
<!-- Node30&#45;&gt;Node8 -->
<g id="edge39" class="edge"><title>Node30&#45;&gt;Node8</title>
<path fill="none" stroke="midnightblue" d="M1614.89,-242.702C1492.34,-239.642 1243.38,-229.738 1162.5,-199 1109.65,-178.917 1113.53,-142.606 1060.5,-123 1026.75,-110.52 488.948,-81.4723 350.698,-74.1826"/>
<polygon fill="midnightblue" stroke="midnightblue" points="350.533,-70.6692 340.363,-73.639 350.166,-77.6595 350.533,-70.6692"/>
</g>
<!-- Node30&#45;&gt;Node9 -->
<g id="edge48" class="edge"><title>Node30&#45;&gt;Node9</title>
<path fill="none" stroke="midnightblue" d="M1614.83,-242.169C1459.47,-237.767 1072.65,-225.034 738.175,-199.083"/>
<polygon fill="midnightblue" stroke="midnightblue" points="738.039,-195.562 727.796,-198.272 737.493,-202.54 738.039,-195.562"/>
</g>
<!-- Node30&#45;&gt;Node15 -->
<g id="edge46" class="edge"><title>Node30&#45;&gt;Node15</title>
<path fill="none" stroke="midnightblue" d="M1614.75,-242.598C1486.3,-239.316 1217.45,-228.992 1129.5,-199 1097.55,-188.104 1065.74,-164.725 1046.84,-149.18"/>
<polygon fill="midnightblue" stroke="midnightblue" points="1049.02,-146.436 1039.12,-142.663 1044.51,-151.786 1049.02,-146.436"/>
</g>
<!-- Node30&#45;&gt;Node25 -->
<g id="edge50" class="edge"><title>Node30&#45;&gt;Node25</title>
<path fill="none" stroke="midnightblue" d="M1754.13,-238.189C1820.22,-231.576 1913.87,-219.018 1944.5,-199 1961.62,-187.813 1973.51,-167.182 1980.38,-152.156"/>
<polygon fill="midnightblue" stroke="midnightblue" points="1983.65,-153.406 1984.34,-142.834 1977.21,-150.671 1983.65,-153.406"/>
</g>
<!-- Node30&#45;&gt;Node26 -->
<g id="edge47" class="edge"><title>Node30&#45;&gt;Node26</title>
<path fill="none" stroke="midnightblue" d="M1754.26,-239.936C1812.61,-234.891 1897.34,-223.692 1967.5,-199 2014.82,-182.345 2034.84,-182.708 2065.5,-143 2076.98,-128.128 2081.54,-106.844 2083.34,-91.5587"/>
<polygon fill="midnightblue" stroke="midnightblue" points="2086.86,-91.5133 2084.25,-81.2446 2079.88,-90.8986 2086.86,-91.5133"/>
</g>
<!-- Node30&#45;&gt;Node29 -->
<g id="edge49" class="edge"><title>Node30&#45;&gt;Node29</title>
<path fill="none" stroke="midnightblue" d="M1754.25,-239.143C1811.83,-233.532 1887.12,-221.949 1906.5,-199 1909.73,-195.177 1910.39,-132.748 1910.5,-97.0498"/>
<polygon fill="midnightblue" stroke="midnightblue" points="1914,-96.9306 1910.52,-86.9239 1907,-96.9171 1914,-96.9306"/>
</g>
<!-- Node31 -->
<g id="node31" class="node"><title>Node31</title>
<polygon fill="white" stroke="#bfbfbf" points="1662,-179.5 1662,-198.5 1707,-198.5 1707,-179.5 1662,-179.5"/>
<text text-anchor="middle" x="1684.5" y="-186.5" font-family="Helvetica,sans-Serif" font-size="10.00">cstdlib</text>
</g>
<!-- Node30&#45;&gt;Node31 -->
<g id="edge40" class="edge"><title>Node30&#45;&gt;Node31</title>
<path fill="none" stroke="midnightblue" d="M1684.5,-235.083C1684.5,-228.006 1684.5,-217.861 1684.5,-208.986"/>
<polygon fill="midnightblue" stroke="midnightblue" points="1688,-208.751 1684.5,-198.751 1681,-208.751 1688,-208.751"/>
</g>
<!-- Node32 -->
<g id="node32" class="node"><title>Node32</title>
<polygon fill="white" stroke="#bfbfbf" points="1725,-179.5 1725,-198.5 1784,-198.5 1784,-179.5 1725,-179.5"/>
<text text-anchor="middle" x="1754.5" y="-186.5" font-family="Helvetica,sans-Serif" font-size="10.00">exception</text>
</g>
<!-- Node30&#45;&gt;Node32 -->
<g id="edge41" class="edge"><title>Node30&#45;&gt;Node32</title>
<path fill="none" stroke="midnightblue" d="M1695.75,-235.324C1706.3,-227.185 1722.3,-214.839 1734.94,-205.087"/>
<polygon fill="midnightblue" stroke="midnightblue" points="1737.27,-207.713 1743.05,-198.834 1732.99,-202.171 1737.27,-207.713"/>
</g>
<!-- Node33 -->
<g id="node33" class="node"><title>Node33</title>
<polygon fill="white" stroke="#bfbfbf" points="1802.5,-179.5 1802.5,-198.5 1864.5,-198.5 1864.5,-179.5 1802.5,-179.5"/>
<text text-anchor="middle" x="1833.5" y="-186.5" font-family="Helvetica,sans-Serif" font-size="10.00">type_traits</text>
</g>
<!-- Node30&#45;&gt;Node33 -->
<g id="edge44" class="edge"><title>Node30&#45;&gt;Node33</title>
<path fill="none" stroke="midnightblue" d="M1708.11,-235.444C1732.96,-226.438 1772.27,-212.189 1800.25,-202.049"/>
<polygon fill="midnightblue" stroke="midnightblue" points="1801.79,-205.214 1810,-198.516 1799.41,-198.633 1801.79,-205.214"/>
</g>
<!-- Node34 -->
<g id="node34" class="node"><title>Node34</title>
<polygon fill="white" stroke="#bfbfbf" points="1585,-179.5 1585,-198.5 1644,-198.5 1644,-179.5 1585,-179.5"/>
<text text-anchor="middle" x="1614.5" y="-186.5" font-family="Helvetica,sans-Serif" font-size="10.00">typeindex</text>
</g>
<!-- Node30&#45;&gt;Node34 -->
<g id="edge45" class="edge"><title>Node30&#45;&gt;Node34</title>
<path fill="none" stroke="midnightblue" d="M1673.25,-235.324C1662.7,-227.185 1646.7,-214.839 1634.06,-205.087"/>
<polygon fill="midnightblue" stroke="midnightblue" points="1636.01,-202.171 1625.95,-198.834 1631.73,-207.713 1636.01,-202.171"/>
</g>
<!-- Node35&#45;&gt;Node26 -->
<g id="edge54" class="edge"><title>Node35&#45;&gt;Node26</title>
<path fill="none" stroke="midnightblue" d="M2142.24,-363.864C2156.93,-344.164 2190.5,-293.896 2190.5,-246 2190.5,-246 2190.5,-246 2190.5,-188 2190.5,-157.902 2190.06,-146.691 2171.5,-123 2158.05,-105.833 2137.02,-93.3983 2119.01,-85.1633"/>
<polygon fill="midnightblue" stroke="midnightblue" points="2119.94,-81.7569 2109.38,-81.017 2117.18,-88.1863 2119.94,-81.7569"/>
</g>
<!-- Node36 -->
<g id="node36" class="node"><title>Node36</title>
<polygon fill="white" stroke="#bfbfbf" points="2218.5,-297 2218.5,-316 2270.5,-316 2270.5,-297 2218.5,-297"/>
<text text-anchor="middle" x="2244.5" y="-304" font-family="Helvetica,sans-Serif" font-size="10.00">stddef.h</text>
</g>
<!-- Node35&#45;&gt;Node36 -->
<g id="edge53" class="edge"><title>Node35&#45;&gt;Node36</title>
<path fill="none" stroke="midnightblue" d="M2150.2,-363.734C2168.42,-352.867 2199.7,-334.216 2221.2,-321.393"/>
<polygon fill="midnightblue" stroke="midnightblue" points="2223.24,-324.255 2230.03,-316.127 2219.65,-318.243 2223.24,-324.255"/>
</g>
<!-- Node37&#45;&gt;Node20 -->
<g id="edge56" class="edge"><title>Node37&#45;&gt;Node20</title>
<path fill="none" stroke="midnightblue" d="M2110.78,-235.368C2115.48,-217.537 2126.35,-176.295 2132.68,-152.272"/>
<polygon fill="midnightblue" stroke="midnightblue" points="2136.07,-153.153 2135.23,-142.591 2129.3,-151.369 2136.07,-153.153"/>
</g>
<!-- Node38&#45;&gt;Node8 -->
<g id="edge58" class="edge"><title>Node38&#45;&gt;Node8</title>
<path fill="none" stroke="midnightblue" d="M302.556,-296.839C259.486,-270.772 141.057,-190.678 187.5,-123 209.68,-90.6793 255.69,-79.0372 286.838,-74.8481"/>
<polygon fill="midnightblue" stroke="midnightblue" points="287.246,-78.3243 296.775,-73.694 286.438,-71.3711 287.246,-78.3243"/>
</g>
<!-- Node38&#45;&gt;Node9 -->
<g id="edge59" class="edge"><title>Node38&#45;&gt;Node9</title>
<path fill="none" stroke="midnightblue" d="M342.554,-296.913C401.897,-276.575 551.156,-225.419 619.43,-202.02"/>
<polygon fill="midnightblue" stroke="midnightblue" points="620.956,-205.197 629.281,-198.643 618.686,-198.575 620.956,-205.197"/>
</g>
<!-- Node39&#45;&gt;Node4 -->
<g id="edge75" class="edge"><title>Node39&#45;&gt;Node4</title>
<path fill="none" stroke="midnightblue" d="M520.683,-362.457C485.832,-354.234 438.428,-340.865 399.5,-322 377.973,-311.568 375.254,-304.491 355.5,-291 340.113,-280.491 322.572,-268.893 309.16,-260.103"/>
<polygon fill="midnightblue" stroke="midnightblue" points="310.897,-257.057 300.612,-254.515 307.066,-262.916 310.897,-257.057"/>
</g>
<!-- Node39&#45;&gt;Node5 -->
<g id="edge61" class="edge"><title>Node39&#45;&gt;Node5</title>
<path fill="none" stroke="midnightblue" d="M576.776,-358.35C581.44,-348.459 587.061,-334.783 589.5,-322 592.082,-308.466 591.049,-304.69 589.5,-291 583.727,-239.997 567.726,-181.421 559.131,-152.351"/>
<polygon fill="midnightblue" stroke="midnightblue" points="562.469,-151.299 556.236,-142.732 555.766,-153.316 562.469,-151.299"/>
</g>
<!-- Node39&#45;&gt;Node6 -->
<g id="edge62" class="edge"><title>Node39&#45;&gt;Node6</title>
<path fill="none" stroke="midnightblue" d="M520.963,-359.827C501.784,-352.183 481.686,-340.263 470.5,-322 436.937,-267.202 397.115,-247.538 518.5,-123 553.058,-87.5439 612.162,-76.893 648.338,-73.7485"/>
<polygon fill="midnightblue" stroke="midnightblue" points="649.054,-77.2059 658.776,-72.9944 648.55,-70.2241 649.054,-77.2059"/>
</g>
<!-- Node39&#45;&gt;Node7 -->
<g id="edge66" class="edge"><title>Node39&#45;&gt;Node7</title>
<path fill="none" stroke="midnightblue" d="M520.724,-359.908C494.587,-351.716 462.678,-339.299 437.5,-322 366.108,-272.95 304.348,-187.79 279.801,-151.351"/>
<polygon fill="midnightblue" stroke="midnightblue" points="282.578,-149.206 274.131,-142.81 276.746,-153.077 282.578,-149.206"/>
</g>
<!-- Node39&#45;&gt;Node14 -->
<g id="edge67" class="edge"><title>Node39&#45;&gt;Node14</title>
<path fill="none" stroke="midnightblue" d="M618.115,-370.494C716.795,-365.838 937.038,-352.3 1005.5,-322 1035.76,-308.607 1063.16,-280.907 1078.81,-262.906"/>
<polygon fill="midnightblue" stroke="midnightblue" points="1081.74,-264.855 1085.51,-254.953 1076.39,-260.344 1081.74,-264.855"/>
</g>
<!-- Node39&#45;&gt;Node15 -->
<g id="edge63" class="edge"><title>Node39&#45;&gt;Node15</title>
<path fill="none" stroke="midnightblue" d="M618.071,-370.032C699.745,-365.105 860.298,-351.846 907.5,-322 972.452,-280.931 1009.8,-191.331 1023.48,-152.529"/>
<polygon fill="midnightblue" stroke="midnightblue" points="1026.94,-153.213 1026.84,-142.618 1020.31,-150.964 1026.94,-153.213"/>
</g>
<!-- Node39&#45;&gt;Node38 -->
<g id="edge74" class="edge"><title>Node39&#45;&gt;Node38</title>
<path fill="none" stroke="midnightblue" d="M520.879,-361.856C478.54,-352.311 415.632,-337.464 361.5,-322 358.503,-321.144 355.406,-320.215 352.306,-319.254"/>
<polygon fill="midnightblue" stroke="midnightblue" points="353.113,-315.838 342.522,-316.131 350.984,-322.506 353.113,-315.838"/>
</g>
<!-- Node40 -->
<g id="node40" class="node"><title>Node40</title>
<g id="a_node40"><a xlink:href="ihelptopic_8h.xhtml" target="_top" xlink:title="Declares gmx::IHelpTopic. ">
<polygon fill="white" stroke="black" points="480,-291.5 480,-321.5 581,-321.5 581,-291.5 480,-291.5"/>
<text text-anchor="start" x="488" y="-309.5" font-family="Helvetica,sans-Serif" font-size="10.00">gromacs/onlinehelp</text>
<text text-anchor="middle" x="530.5" y="-298.5" font-family="Helvetica,sans-Serif" font-size="10.00">/ihelptopic.h</text>
</a>
</g>
</g>
<!-- Node39&#45;&gt;Node40 -->
<g id="edge64" class="edge"><title>Node39&#45;&gt;Node40</title>
<path fill="none" stroke="midnightblue" d="M561.038,-358.396C556.131,-350.219 549.835,-339.725 544.236,-330.393"/>
<polygon fill="midnightblue" stroke="midnightblue" points="547.092,-328.351 538.946,-321.577 541.09,-331.952 547.092,-328.351"/>
</g>
<!-- Node41 -->
<g id="node41" class="node"><title>Node41</title>
<g id="a_node41"><a xlink:href="selectioncollection_8h.xhtml" target="_top" xlink:title="Declares gmx::SelectionCollection. ">
<polygon fill="white" stroke="black" points="710.5,-297 710.5,-316 898.5,-316 898.5,-297 710.5,-297"/>
<text text-anchor="middle" x="804.5" y="-304" font-family="Helvetica,sans-Serif" font-size="10.00">gromacs/selection/selectioncollection.h</text>
</a>
</g>
</g>
<!-- Node39&#45;&gt;Node41 -->
<g id="edge68" class="edge"><title>Node39&#45;&gt;Node41</title>
<path fill="none" stroke="midnightblue" d="M618.192,-359.032C661.198,-347.137 723.192,-329.99 763.659,-318.796"/>
<polygon fill="midnightblue" stroke="midnightblue" points="764.754,-322.125 773.459,-316.086 762.887,-315.379 764.754,-322.125"/>
</g>
<!-- Node40&#45;&gt;Node5 -->
<g id="edge65" class="edge"><title>Node40&#45;&gt;Node5</title>
<path fill="none" stroke="midnightblue" d="M530.449,-291.325C530.6,-267.787 531.914,-219.243 539.5,-179 541.186,-170.055 544.051,-160.386 546.751,-152.312"/>
<polygon fill="midnightblue" stroke="midnightblue" points="550.076,-153.406 550.093,-142.811 543.473,-151.083 550.076,-153.406"/>
</g>
<!-- Node41&#45;&gt;Node6 -->
<g id="edge70" class="edge"><title>Node41&#45;&gt;Node6</title>
<path fill="none" stroke="midnightblue" d="M819.273,-296.886C851.741,-276.825 924.217,-225.177 895.5,-179 854.564,-113.175 759.634,-86.8355 710.385,-77.3134"/>
<polygon fill="midnightblue" stroke="midnightblue" points="710.787,-73.8291 700.322,-75.48 709.532,-80.7157 710.787,-73.8291"/>
</g>
<!-- Node41&#45;&gt;Node8 -->
<g id="edge69" class="edge"><title>Node41&#45;&gt;Node8</title>
<path fill="none" stroke="midnightblue" d="M785.155,-296.869C745.225,-279 650.86,-236.487 572.5,-199 488.485,-158.808 390.036,-108.99 344.29,-85.6827"/>
<polygon fill="midnightblue" stroke="midnightblue" points="345.851,-82.5499 335.352,-81.1246 342.671,-88.7858 345.851,-82.5499"/>
</g>
<!-- Node41&#45;&gt;Node9 -->
<g id="edge73" class="edge"><title>Node41&#45;&gt;Node9</title>
<path fill="none" stroke="midnightblue" d="M793.226,-296.819C767.816,-277.253 705.821,-229.517 674.019,-205.03"/>
<polygon fill="midnightblue" stroke="midnightblue" points="675.964,-202.11 665.905,-198.782 671.693,-207.656 675.964,-202.11"/>
</g>
<!-- Node41&#45;&gt;Node14 -->
<g id="edge72" class="edge"><title>Node41&#45;&gt;Node14</title>
<path fill="none" stroke="midnightblue" d="M845.763,-296.975C897.304,-286.327 985.484,-268.109 1041.29,-256.581"/>
<polygon fill="midnightblue" stroke="midnightblue" points="1042.23,-259.96 1051.31,-254.509 1040.81,-253.105 1042.23,-259.96"/>
</g>
<!-- Node41&#45;&gt;Node15 -->
<g id="edge71" class="edge"><title>Node41&#45;&gt;Node15</title>
<path fill="none" stroke="midnightblue" d="M841.892,-296.969C868.57,-289.417 904.078,-276.227 929.5,-255 960.166,-229.394 951.447,-209.287 977.5,-179 986.989,-167.969 999.228,-157.242 1009.45,-149.03"/>
<polygon fill="midnightblue" stroke="midnightblue" points="1011.73,-151.688 1017.45,-142.772 1007.42,-146.173 1011.73,-151.688"/>
</g>
<!-- Node42&#45;&gt;Node11 -->
<g id="edge81" class="edge"><title>Node42&#45;&gt;Node11</title>
<path fill="none" stroke="midnightblue" d="M111.311,-296.747C102.019,-287.338 87.991,-271.498 80.5,-255 73.8949,-240.453 70.9249,-222.505 69.5897,-209.157"/>
<polygon fill="midnightblue" stroke="midnightblue" points="73.0502,-208.511 68.7869,-198.812 66.0712,-209.053 73.0502,-208.511"/>
</g>
<!-- Node43 -->
<g id="node43" class="node"><title>Node43</title>
<g id="a_node43"><a xlink:href="selparam_8h.xhtml" target="_top" xlink:title="API for handling parameters used in selections. ">
<polygon fill="white" stroke="black" points="90,-235.5 90,-254.5 155,-254.5 155,-235.5 90,-235.5"/>
<text text-anchor="middle" x="122.5" y="-242.5" font-family="Helvetica,sans-Serif" font-size="10.00">selparam.h</text>
</a>
</g>
</g>
<!-- Node42&#45;&gt;Node43 -->
<g id="edge78" class="edge"><title>Node42&#45;&gt;Node43</title>
<path fill="none" stroke="midnightblue" d="M120.787,-296.975C121.069,-288.58 121.509,-275.481 121.873,-264.663"/>
<polygon fill="midnightblue" stroke="midnightblue" points="125.376,-264.621 122.214,-254.509 118.38,-264.386 125.376,-264.621"/>
</g>
<!-- Node43&#45;&gt;Node7 -->
<g id="edge79" class="edge"><title>Node43&#45;&gt;Node7</title>
<path fill="none" stroke="midnightblue" d="M133.956,-235.368C158.797,-216.653 217.863,-172.151 248.813,-148.832"/>
<polygon fill="midnightblue" stroke="midnightblue" points="251.216,-151.404 257.097,-142.591 247.004,-145.814 251.216,-151.404"/>
</g>
<!-- Node43&#45;&gt;Node11 -->
<g id="edge80" class="edge"><title>Node43&#45;&gt;Node11</title>
<path fill="none" stroke="midnightblue" d="M113.583,-235.083C105.72,-227.22 94.0688,-215.569 84.5813,-206.081"/>
<polygon fill="midnightblue" stroke="midnightblue" points="86.7971,-203.347 77.2511,-198.751 81.8473,-208.297 86.7971,-203.347"/>
</g>
</g>
</svg>
