<?xml version="1.0" encoding="UTF-8" standalone="no"?>
<!DOCTYPE svg PUBLIC "-//W3C//DTD SVG 1.1//EN"
 "http://www.w3.org/Graphics/SVG/1.1/DTD/svg11.dtd">
<!-- Generated by graphviz version 2.38.0 (20140413.2041)
 -->
<!-- Title: src/gromacs/utility/exceptions.h Pages: 1 -->
<svg width="941pt" height="218pt"
 viewBox="0.00 0.00 941.00 218.00" xmlns="http://www.w3.org/2000/svg" xmlns:xlink="http://www.w3.org/1999/xlink">
<g id="graph0" class="graph" transform="scale(1 1) rotate(0) translate(4 214)">
<title>src/gromacs/utility/exceptions.h</title>
<polygon fill="white" stroke="none" points="-4,4 -4,-214 937,-214 937,4 -4,4"/>
<!-- Node1 -->
<g id="node1" class="node"><title>Node1</title>
<polygon fill="#bfbfbf" stroke="black" points="321,-179.5 321,-209.5 418,-209.5 418,-179.5 321,-179.5"/>
<text text-anchor="start" x="329" y="-197.5" font-family="Helvetica,sans-Serif" font-size="10.00">src/gromacs/utility</text>
<text text-anchor="middle" x="369.5" y="-186.5" font-family="Helvetica,sans-Serif" font-size="10.00">/exceptions.h</text>
</g>
<!-- Node2 -->
<g id="node2" class="node"><title>Node2</title>
<polygon fill="white" stroke="#bfbfbf" points="0,-123.5 0,-142.5 43,-142.5 43,-123.5 0,-123.5"/>
<text text-anchor="middle" x="21.5" y="-130.5" font-family="Helvetica,sans-Serif" font-size="10.00">cstdio</text>
</g>
<!-- Node1&#45;&gt;Node2 -->
<g id="edge1" class="edge"><title>Node1&#45;&gt;Node2</title>
<path fill="none" stroke="midnightblue" d="M320.897,-187.839C260.205,-180.316 153.102,-165.549 53.0116,-143.105"/>
<polygon fill="midnightblue" stroke="midnightblue" points="53.5651,-139.642 43.038,-140.838 52.0131,-146.468 53.5651,-139.642"/>
</g>
<!-- Node3 -->
<g id="node3" class="node"><title>Node3</title>
<polygon fill="white" stroke="#bfbfbf" points="61,-123.5 61,-142.5 106,-142.5 106,-123.5 61,-123.5"/>
<text text-anchor="middle" x="83.5" y="-130.5" font-family="Helvetica,sans-Serif" font-size="10.00">cstdlib</text>
</g>
<!-- Node1&#45;&gt;Node3 -->
<g id="edge2" class="edge"><title>Node1&#45;&gt;Node3</title>
<path fill="none" stroke="midnightblue" d="M320.814,-185.16C271.407,-176.406 192.551,-161.638 115.941,-143.201"/>
<polygon fill="midnightblue" stroke="midnightblue" points="116.67,-139.776 106.126,-140.815 115.016,-146.578 116.67,-139.776"/>
</g>
<!-- Node4 -->
<g id="node4" class="node"><title>Node4</title>
<polygon fill="white" stroke="#bfbfbf" points="124,-123.5 124,-142.5 183,-142.5 183,-123.5 124,-123.5"/>
<text text-anchor="middle" x="153.5" y="-130.5" font-family="Helvetica,sans-Serif" font-size="10.00">exception</text>
</g>
<!-- Node1&#45;&gt;Node4 -->
<g id="edge3" class="edge"><title>Node1&#45;&gt;Node4</title>
<path fill="none" stroke="midnightblue" d="M320.756,-180.073C282.086,-169.421 228.737,-154.725 192.776,-144.819"/>
<polygon fill="midnightblue" stroke="midnightblue" points="193.692,-141.441 183.122,-142.16 191.833,-148.19 193.692,-141.441"/>
</g>
<!-- Node5 -->
<g id="node5" class="node"><title>Node5</title>
<polygon fill="white" stroke="#bfbfbf" points="364.5,-62 364.5,-81 416.5,-81 416.5,-62 364.5,-62"/>
<text text-anchor="middle" x="390.5" y="-69" font-family="Helvetica,sans-Serif" font-size="10.00">memory</text>
</g>
<!-- Node1&#45;&gt;Node5 -->
<g id="edge4" class="edge"><title>Node1&#45;&gt;Node5</title>
<path fill="none" stroke="midnightblue" d="M320.645,-186.998C270.675,-178.229 203.866,-159.336 230.5,-123 258.754,-84.4539 316.515,-74.5733 354.354,-72.4477"/>
<polygon fill="midnightblue" stroke="midnightblue" points="354.607,-75.9403 364.457,-72.0364 354.323,-68.9461 354.607,-75.9403"/>
</g>
<!-- Node6 -->
<g id="node6" class="node"><title>Node6</title>
<polygon fill="white" stroke="#bfbfbf" points="240,-123.5 240,-142.5 281,-142.5 281,-123.5 240,-123.5"/>
<text text-anchor="middle" x="260.5" y="-130.5" font-family="Helvetica,sans-Serif" font-size="10.00">string</text>
</g>
<!-- Node1&#45;&gt;Node6 -->
<g id="edge5" class="edge"><title>Node1&#45;&gt;Node6</title>
<path fill="none" stroke="midnightblue" d="M343.669,-179.399C326.033,-169.773 302.8,-157.09 285.372,-147.577"/>
<polygon fill="midnightblue" stroke="midnightblue" points="286.815,-144.377 276.36,-142.658 283.461,-150.521 286.815,-144.377"/>
</g>
<!-- Node7 -->
<g id="node7" class="node"><title>Node7</title>
<polygon fill="white" stroke="#bfbfbf" points="299.5,-123.5 299.5,-142.5 361.5,-142.5 361.5,-123.5 299.5,-123.5"/>
<text text-anchor="middle" x="330.5" y="-130.5" font-family="Helvetica,sans-Serif" font-size="10.00">type_traits</text>
</g>
<!-- Node1&#45;&gt;Node7 -->
<g id="edge6" class="edge"><title>Node1&#45;&gt;Node7</title>
<path fill="none" stroke="midnightblue" d="M360.258,-179.399C354.707,-170.932 347.607,-160.099 341.734,-151.139"/>
<polygon fill="midnightblue" stroke="midnightblue" points="344.584,-149.103 336.175,-142.658 338.73,-152.94 344.584,-149.103"/>
</g>
<!-- Node8 -->
<g id="node8" class="node"><title>Node8</title>
<polygon fill="white" stroke="#bfbfbf" points="380,-123.5 380,-142.5 439,-142.5 439,-123.5 380,-123.5"/>
<text text-anchor="middle" x="409.5" y="-130.5" font-family="Helvetica,sans-Serif" font-size="10.00">typeindex</text>
</g>
<!-- Node1&#45;&gt;Node8 -->
<g id="edge7" class="edge"><title>Node1&#45;&gt;Node8</title>
<path fill="none" stroke="midnightblue" d="M378.979,-179.399C384.672,-170.932 391.954,-160.099 397.978,-151.139"/>
<polygon fill="midnightblue" stroke="midnightblue" points="401.005,-152.909 403.68,-142.658 395.196,-149.004 401.005,-152.909"/>
</g>
<!-- Node9 -->
<g id="node9" class="node"><title>Node9</title>
<polygon fill="white" stroke="#bfbfbf" points="457.5,-123.5 457.5,-142.5 501.5,-142.5 501.5,-123.5 457.5,-123.5"/>
<text text-anchor="middle" x="479.5" y="-130.5" font-family="Helvetica,sans-Serif" font-size="10.00">vector</text>
</g>
<!-- Node1&#45;&gt;Node9 -->
<g id="edge8" class="edge"><title>Node1&#45;&gt;Node9</title>
<path fill="none" stroke="midnightblue" d="M395.568,-179.399C413.365,-169.773 436.812,-157.09 454.399,-147.577"/>
<polygon fill="midnightblue" stroke="midnightblue" points="456.364,-150.494 463.494,-142.658 453.033,-144.337 456.364,-150.494"/>
</g>
<!-- Node10 -->
<g id="node10" class="node"><title>Node10</title>
<g id="a_node10"><a xlink:href="basedefinitions_8h.xhtml" target="_top" xlink:title="Basic types and macros used throughout GROMACS. ">
<polygon fill="white" stroke="black" points="625,-62 625,-81 782,-81 782,-62 625,-62"/>
<text text-anchor="middle" x="703.5" y="-69" font-family="Helvetica,sans-Serif" font-size="10.00">gromacs/utility/basedefinitions.h</text>
</a>
</g>
</g>
<!-- Node1&#45;&gt;Node10 -->
<g id="edge9" class="edge"><title>Node1&#45;&gt;Node10</title>
<path fill="none" stroke="midnightblue" d="M418.212,-191.118C494.057,-186.49 635.71,-173.878 674.5,-143 690.485,-130.276 697.737,-107.261 700.975,-90.9934"/>
<polygon fill="midnightblue" stroke="midnightblue" points="704.446,-91.4576 702.634,-81.0188 697.541,-90.3091 704.446,-91.4576"/>
</g>
<!-- Node13 -->
<g id="node13" class="node"><title>Node13</title>
<g id="a_node13"><a xlink:href="classhelpers_8h.xhtml" target="_top" xlink:title="Declares common utility classes and macros. ">
<polygon fill="white" stroke="black" points="519.5,-123.5 519.5,-142.5 665.5,-142.5 665.5,-123.5 519.5,-123.5"/>
<text text-anchor="middle" x="592.5" y="-130.5" font-family="Helvetica,sans-Serif" font-size="10.00">gromacs/utility/classhelpers.h</text>
</a>
</g>
</g>
<!-- Node1&#45;&gt;Node13 -->
<g id="edge12" class="edge"><title>Node1&#45;&gt;Node13</title>
<path fill="none" stroke="midnightblue" d="M418.163,-180.516C457.639,-169.983 512.719,-155.287 550.338,-145.249"/>
<polygon fill="midnightblue" stroke="midnightblue" points="551.699,-148.509 560.458,-142.549 549.894,-141.746 551.699,-148.509"/>
</g>
<!-- Node14 -->
<g id="node14" class="node"><title>Node14</title>
<g id="a_node14"><a xlink:href="current__function_8h.xhtml" target="_top" xlink:title="Declares GMX_CURRENT_FUNCTION for getting the current function name. ">
<polygon fill="white" stroke="black" points="820,-56.5 820,-86.5 933,-86.5 933,-56.5 820,-56.5"/>
<text text-anchor="start" x="828" y="-74.5" font-family="Helvetica,sans-Serif" font-size="10.00">gromacs/utility/current</text>
<text text-anchor="middle" x="876.5" y="-63.5" font-family="Helvetica,sans-Serif" font-size="10.00">_function.h</text>
</a>
</g>
</g>
<!-- Node1&#45;&gt;Node14 -->
<g id="edge14" class="edge"><title>Node1&#45;&gt;Node14</title>
<path fill="none" stroke="midnightblue" d="M418.114,-191.99C537.333,-187.813 836.831,-174.287 868.5,-143 880.346,-131.296 881.912,-112.294 880.752,-96.9645"/>
<polygon fill="midnightblue" stroke="midnightblue" points="884.178,-96.1309 879.533,-86.6086 877.226,-96.9492 884.178,-96.1309"/>
</g>
<!-- Node15 -->
<g id="node15" class="node"><title>Node15</title>
<g id="a_node15"><a xlink:href="gmxassert_8h.xhtml" target="_top" xlink:title="Defines assert macros customized for Gromacs. ">
<polygon fill="white" stroke="black" points="722,-123.5 722,-142.5 859,-142.5 859,-123.5 722,-123.5"/>
<text text-anchor="middle" x="790.5" y="-130.5" font-family="Helvetica,sans-Serif" font-size="10.00">gromacs/utility/gmxassert.h</text>
</a>
</g>
</g>
<!-- Node1&#45;&gt;Node15 -->
<g id="edge15" class="edge"><title>Node1&#45;&gt;Node15</title>
<path fill="none" stroke="midnightblue" d="M418.205,-186.616C492.458,-176.122 634.345,-156.069 719.898,-143.978"/>
<polygon fill="midnightblue" stroke="midnightblue" points="720.632,-147.409 730.044,-142.544 719.652,-140.478 720.632,-147.409"/>
</g>
<!-- Node11 -->
<g id="node11" class="node"><title>Node11</title>
<polygon fill="white" stroke="#bfbfbf" points="643,-0.5 643,-19.5 692,-19.5 692,-0.5 643,-0.5"/>
<text text-anchor="middle" x="667.5" y="-7.5" font-family="Helvetica,sans-Serif" font-size="10.00">stdint.h</text>
</g>
<!-- Node10&#45;&gt;Node11 -->
<g id="edge10" class="edge"><title>Node10&#45;&gt;Node11</title>
<path fill="none" stroke="midnightblue" d="M698.342,-61.9751C693.049,-53.2268 684.665,-39.3691 677.973,-28.3093"/>
<polygon fill="midnightblue" stroke="midnightblue" points="680.82,-26.2531 672.648,-19.5091 674.83,-29.8768 680.82,-26.2531"/>
</g>
<!-- Node12 -->
<g id="node12" class="node"><title>Node12</title>
<polygon fill="white" stroke="#bfbfbf" points="710,-0.5 710,-19.5 769,-19.5 769,-0.5 710,-0.5"/>
<text text-anchor="middle" x="739.5" y="-7.5" font-family="Helvetica,sans-Serif" font-size="10.00">inttypes.h</text>
</g>
<!-- Node10&#45;&gt;Node12 -->
<g id="edge11" class="edge"><title>Node10&#45;&gt;Node12</title>
<path fill="none" stroke="midnightblue" d="M708.658,-61.9751C713.951,-53.2268 722.335,-39.3691 729.027,-28.3093"/>
<polygon fill="midnightblue" stroke="midnightblue" points="732.17,-29.8768 734.352,-19.5091 726.18,-26.2531 732.17,-29.8768"/>
</g>
<!-- Node13&#45;&gt;Node5 -->
<g id="edge13" class="edge"><title>Node13&#45;&gt;Node5</title>
<path fill="none" stroke="midnightblue" d="M563.558,-123.475C527.33,-112.804 465.292,-94.5303 426.167,-83.0058"/>
<polygon fill="midnightblue" stroke="midnightblue" points="427.084,-79.6274 416.502,-80.1591 425.106,-86.3421 427.084,-79.6274"/>
</g>
<!-- Node15&#45;&gt;Node10 -->
<g id="edge16" class="edge"><title>Node15&#45;&gt;Node10</title>
<path fill="none" stroke="midnightblue" d="M778.035,-123.475C764.081,-113.931 741.235,-98.3073 724.509,-86.8683"/>
<polygon fill="midnightblue" stroke="midnightblue" points="726.172,-83.7653 715.942,-81.0091 722.22,-89.5433 726.172,-83.7653"/>
</g>
<!-- Node15&#45;&gt;Node14 -->
<g id="edge17" class="edge"><title>Node15&#45;&gt;Node14</title>
<path fill="none" stroke="midnightblue" d="M802.822,-123.475C814.469,-115.417 832.383,-103.023 847.63,-92.4741"/>
<polygon fill="midnightblue" stroke="midnightblue" points="849.999,-95.0909 856.232,-86.523 846.016,-89.3343 849.999,-95.0909"/>
</g>
</g>
</svg>
