<?xml version="1.0" encoding="UTF-8" standalone="no"?>
<!DOCTYPE svg PUBLIC "-//W3C//DTD SVG 1.1//EN"
 "http://www.w3.org/Graphics/SVG/1.1/DTD/svg11.dtd">
<!-- Generated by graphviz version 2.38.0 (20140413.2041)
 -->
<!-- Title: src/testutils/filematchers.h Pages: 1 -->
<svg width="310pt" height="84pt"
 viewBox="0.00 0.00 309.50 84.00" xmlns="http://www.w3.org/2000/svg" xmlns:xlink="http://www.w3.org/1999/xlink">
<g id="graph0" class="graph" transform="scale(1 1) rotate(0) translate(4 80)">
<title>src/testutils/filematchers.h</title>
<polygon fill="white" stroke="none" points="-4,4 -4,-80 305.5,-80 305.5,4 -4,4"/>
<!-- Node1 -->
<g id="node1" class="node"><title>Node1</title>
<polygon fill="#bfbfbf" stroke="black" points="84,-56.5 84,-75.5 216,-75.5 216,-56.5 84,-56.5"/>
<text text-anchor="middle" x="150" y="-63.5" font-family="Helvetica,sans-Serif" font-size="10.00">src/testutils/filematchers.h</text>
</g>
<!-- Node2 -->
<g id="node2" class="node"><title>Node2</title>
<g id="a_node2"><a xlink:href="cmdlinetest_8cpp.xhtml" target="_top" xlink:title="Implements classes from cmdlinetest.h. ">
<polygon fill="white" stroke="black" points="0,-0.5 0,-19.5 140,-19.5 140,-0.5 0,-0.5"/>
<text text-anchor="middle" x="70" y="-7.5" font-family="Helvetica,sans-Serif" font-size="10.00">src/testutils/cmdlinetest.cpp</text>
</a>
</g>
</g>
<!-- Node1&#45;&gt;Node2 -->
<g id="edge1" class="edge"><title>Node1&#45;&gt;Node2</title>
<path fill="none" stroke="midnightblue" d="M128.699,-50.6221C114.085,-40.7574 95.1732,-27.9919 82.8215,-19.6545"/>
<polygon fill="midnightblue" stroke="midnightblue" points="126.9,-53.6302 137.147,-56.324 130.816,-47.8282 126.9,-53.6302"/>
</g>
<!-- Node3 -->
<g id="node3" class="node"><title>Node3</title>
<g id="a_node3"><a xlink:href="filematchers_8cpp.xhtml" target="_top" xlink:title="Implements classes from filematchers.h. ">
<polygon fill="white" stroke="black" points="158.5,-0.5 158.5,-19.5 301.5,-19.5 301.5,-0.5 158.5,-0.5"/>
<text text-anchor="middle" x="230" y="-7.5" font-family="Helvetica,sans-Serif" font-size="10.00">src/testutils/filematchers.cpp</text>
</a>
</g>
</g>
<!-- Node1&#45;&gt;Node3 -->
<g id="edge2" class="edge"><title>Node1&#45;&gt;Node3</title>
<path fill="none" stroke="midnightblue" d="M171.301,-50.6221C185.915,-40.7574 204.827,-27.9919 217.179,-19.6545"/>
<polygon fill="midnightblue" stroke="midnightblue" points="169.184,-47.8282 162.853,-56.324 173.1,-53.6302 169.184,-47.8282"/>
</g>
</g>
</svg>
