<?xml version="1.0" encoding="UTF-8" standalone="no"?>
<!DOCTYPE svg PUBLIC "-//W3C//DTD SVG 1.1//EN"
 "http://www.w3.org/Graphics/SVG/1.1/DTD/svg11.dtd">
<!-- Generated by graphviz version 2.38.0 (20140413.2041)
 -->
<!-- Title: src/gromacs/taskassignment/findallgputasks.h Pages: 1 -->
<svg width="312pt" height="106pt"
 viewBox="0.00 0.00 312.00 106.00" xmlns="http://www.w3.org/2000/svg" xmlns:xlink="http://www.w3.org/1999/xlink">
<g id="graph0" class="graph" transform="scale(1 1) rotate(0) translate(4 102)">
<title>src/gromacs/taskassignment/findallgputasks.h</title>
<polygon fill="white" stroke="none" points="-4,4 -4,-102 308,-102 308,4 -4,4"/>
<!-- Node1 -->
<g id="node1" class="node"><title>Node1</title>
<polygon fill="#bfbfbf" stroke="black" points="80,-67.5 80,-97.5 223,-97.5 223,-67.5 80,-67.5"/>
<text text-anchor="start" x="88" y="-85.5" font-family="Helvetica,sans-Serif" font-size="10.00">src/gromacs/taskassignment</text>
<text text-anchor="middle" x="151.5" y="-74.5" font-family="Helvetica,sans-Serif" font-size="10.00">/findallgputasks.h</text>
</g>
<!-- Node2 -->
<g id="node2" class="node"><title>Node2</title>
<g id="a_node2"><a xlink:href="findallgputasks_8cpp.xhtml" target="_top" xlink:title="Defines routine for collecting all GPU tasks found on ranks of a node. ">
<polygon fill="white" stroke="black" points="0,-0.5 0,-30.5 143,-30.5 143,-0.5 0,-0.5"/>
<text text-anchor="start" x="8" y="-18.5" font-family="Helvetica,sans-Serif" font-size="10.00">src/gromacs/taskassignment</text>
<text text-anchor="middle" x="71.5" y="-7.5" font-family="Helvetica,sans-Serif" font-size="10.00">/findallgputasks.cpp</text>
</a>
</g>
</g>
<!-- Node1&#45;&gt;Node2 -->
<g id="edge1" class="edge"><title>Node1&#45;&gt;Node2</title>
<path fill="none" stroke="midnightblue" d="M126.125,-60.8832C113.968,-51.0054 99.7207,-39.4293 88.8249,-30.5765"/>
<polygon fill="midnightblue" stroke="midnightblue" points="124.173,-63.8064 134.141,-67.396 128.587,-58.3736 124.173,-63.8064"/>
</g>
<!-- Node3 -->
<g id="node3" class="node"><title>Node3</title>
<g id="a_node3"><a xlink:href="taskassignment_8cpp.xhtml" target="_top" xlink:title="Defines helper and factory functionality for task assignment. ">
<polygon fill="white" stroke="black" points="161,-0.5 161,-30.5 304,-30.5 304,-0.5 161,-0.5"/>
<text text-anchor="start" x="169" y="-18.5" font-family="Helvetica,sans-Serif" font-size="10.00">src/gromacs/taskassignment</text>
<text text-anchor="middle" x="232.5" y="-7.5" font-family="Helvetica,sans-Serif" font-size="10.00">/taskassignment.cpp</text>
</a>
</g>
</g>
<!-- Node1&#45;&gt;Node3 -->
<g id="edge2" class="edge"><title>Node1&#45;&gt;Node3</title>
<path fill="none" stroke="midnightblue" d="M177.192,-60.8832C189.501,-51.0054 203.927,-39.4293 214.959,-30.5765"/>
<polygon fill="midnightblue" stroke="midnightblue" points="174.685,-58.4075 169.076,-67.396 179.066,-63.867 174.685,-58.4075"/>
</g>
</g>
</svg>
