<?xml version="1.0" encoding="UTF-8" standalone="no"?>
<!DOCTYPE svg PUBLIC "-//W3C//DTD SVG 1.1//EN"
 "http://www.w3.org/Graphics/SVG/1.1/DTD/svg11.dtd">
<!-- Generated by graphviz version 2.38.0 (20140413.2041)
 -->
<!-- Title: src/gromacs/analysisdata/framelocaldata.h Pages: 1 -->
<svg width="729pt" height="285pt"
 viewBox="0.00 0.00 728.50 285.00" xmlns="http://www.w3.org/2000/svg" xmlns:xlink="http://www.w3.org/1999/xlink">
<g id="graph0" class="graph" transform="scale(1 1) rotate(0) translate(4 281)">
<title>src/gromacs/analysisdata/framelocaldata.h</title>
<polygon fill="white" stroke="none" points="-4,4 -4,-281 724.5,-281 724.5,4 -4,4"/>
<!-- Node1 -->
<g id="node1" class="node"><title>Node1</title>
<polygon fill="#bfbfbf" stroke="black" points="132,-246.5 132,-276.5 260,-276.5 260,-246.5 132,-246.5"/>
<text text-anchor="start" x="140" y="-264.5" font-family="Helvetica,sans-Serif" font-size="10.00">src/gromacs/analysisdata</text>
<text text-anchor="middle" x="196" y="-253.5" font-family="Helvetica,sans-Serif" font-size="10.00">/framelocaldata.h</text>
</g>
<!-- Node2 -->
<g id="node2" class="node"><title>Node2</title>
<polygon fill="white" stroke="#bfbfbf" points="0,-185 0,-204 56,-204 56,-185 0,-185"/>
<text text-anchor="middle" x="28" y="-192" font-family="Helvetica,sans-Serif" font-size="10.00">algorithm</text>
</g>
<!-- Node1&#45;&gt;Node2 -->
<g id="edge1" class="edge"><title>Node1&#45;&gt;Node2</title>
<path fill="none" stroke="midnightblue" d="M159.275,-246.405C133.003,-236.307 96.8061,-222.363 65,-210 63.1673,-209.288 61.2841,-208.554 59.3843,-207.813"/>
<polygon fill="midnightblue" stroke="midnightblue" points="60.4927,-204.489 49.9047,-204.107 57.9441,-211.008 60.4927,-204.489"/>
</g>
<!-- Node3 -->
<g id="node3" class="node"><title>Node3</title>
<polygon fill="white" stroke="#bfbfbf" points="74.5,-185 74.5,-204 125.5,-204 125.5,-185 74.5,-185"/>
<text text-anchor="middle" x="100" y="-192" font-family="Helvetica,sans-Serif" font-size="10.00">numeric</text>
</g>
<!-- Node1&#45;&gt;Node3 -->
<g id="edge2" class="edge"><title>Node1&#45;&gt;Node3</title>
<path fill="none" stroke="midnightblue" d="M175.169,-246.396C159.22,-235.597 137.302,-220.756 121.249,-209.887"/>
<polygon fill="midnightblue" stroke="midnightblue" points="122.807,-206.715 112.564,-204.007 118.882,-212.512 122.807,-206.715"/>
</g>
<!-- Node4 -->
<g id="node4" class="node"><title>Node4</title>
<polygon fill="white" stroke="#bfbfbf" points="132,-123.5 132,-142.5 176,-142.5 176,-123.5 132,-123.5"/>
<text text-anchor="middle" x="154" y="-130.5" font-family="Helvetica,sans-Serif" font-size="10.00">vector</text>
</g>
<!-- Node1&#45;&gt;Node4 -->
<g id="edge3" class="edge"><title>Node1&#45;&gt;Node4</title>
<path fill="none" stroke="midnightblue" d="M188.64,-246.203C183.727,-236.245 177.386,-222.551 173,-210 166.285,-190.783 160.927,-168.058 157.635,-152.496"/>
<polygon fill="midnightblue" stroke="midnightblue" points="161.041,-151.682 155.613,-142.583 154.182,-153.081 161.041,-151.682"/>
</g>
<!-- Node5 -->
<g id="node5" class="node"><title>Node5</title>
<g id="a_node5"><a xlink:href="paralleloptions_8h.xhtml" target="_top" xlink:title="Declares gmx::AnalysisDataParallelOptions. ">
<polygon fill="white" stroke="black" points="182,-179.5 182,-209.5 294,-209.5 294,-179.5 182,-179.5"/>
<text text-anchor="start" x="190" y="-197.5" font-family="Helvetica,sans-Serif" font-size="10.00">gromacs/analysisdata</text>
<text text-anchor="middle" x="238" y="-186.5" font-family="Helvetica,sans-Serif" font-size="10.00">/paralleloptions.h</text>
</a>
</g>
</g>
<!-- Node1&#45;&gt;Node5 -->
<g id="edge4" class="edge"><title>Node1&#45;&gt;Node5</title>
<path fill="none" stroke="midnightblue" d="M205.113,-246.396C210.452,-238.134 217.319,-227.507 223.396,-218.102"/>
<polygon fill="midnightblue" stroke="midnightblue" points="226.417,-219.875 228.904,-209.577 220.537,-216.076 226.417,-219.875"/>
</g>
<!-- Node6 -->
<g id="node6" class="node"><title>Node6</title>
<g id="a_node6"><a xlink:href="arrayref_8h.xhtml" target="_top" xlink:title="Declares gmx::ArrayRef. ">
<polygon fill="white" stroke="black" points="312.5,-185 312.5,-204 437.5,-204 437.5,-185 312.5,-185"/>
<text text-anchor="middle" x="375" y="-192" font-family="Helvetica,sans-Serif" font-size="10.00">gromacs/utility/arrayref.h</text>
</a>
</g>
</g>
<!-- Node1&#45;&gt;Node6 -->
<g id="edge5" class="edge"><title>Node1&#45;&gt;Node6</title>
<path fill="none" stroke="midnightblue" d="M234.84,-246.396C266.804,-234.789 311.621,-218.515 341.901,-207.519"/>
<polygon fill="midnightblue" stroke="midnightblue" points="343.368,-210.71 351.573,-204.007 340.979,-204.13 343.368,-210.71"/>
</g>
<!-- Node12 -->
<g id="node12" class="node"><title>Node12</title>
<g id="a_node12"><a xlink:href="gmxassert_8h.xhtml" target="_top" xlink:title="Defines assert macros customized for Gromacs. ">
<polygon fill="white" stroke="black" points="519.5,-123.5 519.5,-142.5 656.5,-142.5 656.5,-123.5 519.5,-123.5"/>
<text text-anchor="middle" x="588" y="-130.5" font-family="Helvetica,sans-Serif" font-size="10.00">gromacs/utility/gmxassert.h</text>
</a>
</g>
</g>
<!-- Node1&#45;&gt;Node12 -->
<g id="edge17" class="edge"><title>Node1&#45;&gt;Node12</title>
<path fill="none" stroke="midnightblue" d="M260.074,-252.935C311.652,-245.591 385.437,-232.225 447,-210 491.69,-193.866 539.533,-165.415 566.414,-148.275"/>
<polygon fill="midnightblue" stroke="midnightblue" points="568.508,-151.089 575.008,-142.722 564.709,-145.209 568.508,-151.089"/>
</g>
<!-- Node6&#45;&gt;Node4 -->
<g id="edge11" class="edge"><title>Node6&#45;&gt;Node4</title>
<path fill="none" stroke="midnightblue" d="M342.525,-184.961C304.845,-175.021 240.864,-158.044 186,-143 185.899,-142.972 185.798,-142.945 185.697,-142.917"/>
<polygon fill="midnightblue" stroke="midnightblue" points="186.595,-139.534 176.023,-140.235 184.725,-146.279 186.595,-139.534"/>
</g>
<!-- Node7 -->
<g id="node7" class="node"><title>Node7</title>
<polygon fill="white" stroke="#bfbfbf" points="194.5,-123.5 194.5,-142.5 243.5,-142.5 243.5,-123.5 194.5,-123.5"/>
<text text-anchor="middle" x="219" y="-130.5" font-family="Helvetica,sans-Serif" font-size="10.00">cstddef</text>
</g>
<!-- Node6&#45;&gt;Node7 -->
<g id="edge6" class="edge"><title>Node6&#45;&gt;Node7</title>
<path fill="none" stroke="midnightblue" d="M352.649,-184.975C326.005,-174.813 281.286,-157.756 250.986,-146.2"/>
<polygon fill="midnightblue" stroke="midnightblue" points="251.9,-142.803 241.31,-142.509 249.406,-149.343 251.9,-142.803"/>
</g>
<!-- Node8 -->
<g id="node8" class="node"><title>Node8</title>
<polygon fill="white" stroke="#bfbfbf" points="262,-123.5 262,-142.5 300,-142.5 300,-123.5 262,-123.5"/>
<text text-anchor="middle" x="281" y="-130.5" font-family="Helvetica,sans-Serif" font-size="10.00">array</text>
</g>
<!-- Node6&#45;&gt;Node8 -->
<g id="edge7" class="edge"><title>Node6&#45;&gt;Node8</title>
<path fill="none" stroke="midnightblue" d="M361.532,-184.975C346.315,-175.343 321.313,-159.517 303.199,-148.052"/>
<polygon fill="midnightblue" stroke="midnightblue" points="304.764,-144.9 294.443,-142.509 301.021,-150.815 304.764,-144.9"/>
</g>
<!-- Node9 -->
<g id="node9" class="node"><title>Node9</title>
<polygon fill="white" stroke="#bfbfbf" points="318.5,-123.5 318.5,-142.5 365.5,-142.5 365.5,-123.5 318.5,-123.5"/>
<text text-anchor="middle" x="342" y="-130.5" font-family="Helvetica,sans-Serif" font-size="10.00">iterator</text>
</g>
<!-- Node6&#45;&gt;Node9 -->
<g id="edge8" class="edge"><title>Node6&#45;&gt;Node9</title>
<path fill="none" stroke="midnightblue" d="M370.272,-184.975C365.42,-176.227 357.734,-162.369 351.6,-151.309"/>
<polygon fill="midnightblue" stroke="midnightblue" points="354.63,-149.557 346.719,-142.509 348.509,-152.952 354.63,-149.557"/>
</g>
<!-- Node10 -->
<g id="node10" class="node"><title>Node10</title>
<polygon fill="white" stroke="#bfbfbf" points="383.5,-123.5 383.5,-142.5 442.5,-142.5 442.5,-123.5 383.5,-123.5"/>
<text text-anchor="middle" x="413" y="-130.5" font-family="Helvetica,sans-Serif" font-size="10.00">stdexcept</text>
</g>
<!-- Node6&#45;&gt;Node10 -->
<g id="edge9" class="edge"><title>Node6&#45;&gt;Node10</title>
<path fill="none" stroke="midnightblue" d="M380.444,-184.975C386.088,-176.138 395.061,-162.089 402.159,-150.975"/>
<polygon fill="midnightblue" stroke="midnightblue" points="405.133,-152.821 407.566,-142.509 399.233,-149.053 405.133,-152.821"/>
</g>
<!-- Node11 -->
<g id="node11" class="node"><title>Node11</title>
<polygon fill="white" stroke="#bfbfbf" points="461,-123.5 461,-142.5 501,-142.5 501,-123.5 461,-123.5"/>
<text text-anchor="middle" x="481" y="-130.5" font-family="Helvetica,sans-Serif" font-size="10.00">utility</text>
</g>
<!-- Node6&#45;&gt;Node11 -->
<g id="edge10" class="edge"><title>Node6&#45;&gt;Node11</title>
<path fill="none" stroke="midnightblue" d="M390.187,-184.975C407.662,-175.166 436.579,-158.935 457.083,-147.425"/>
<polygon fill="midnightblue" stroke="midnightblue" points="458.834,-150.456 465.841,-142.509 455.408,-144.352 458.834,-150.456"/>
</g>
<!-- Node6&#45;&gt;Node12 -->
<g id="edge12" class="edge"><title>Node6&#45;&gt;Node12</title>
<path fill="none" stroke="midnightblue" d="M405.518,-184.975C442.925,-174.526 506.427,-156.787 547.787,-145.233"/>
<polygon fill="midnightblue" stroke="midnightblue" points="548.849,-148.571 557.539,-142.509 546.966,-141.829 548.849,-148.571"/>
</g>
<!-- Node13 -->
<g id="node13" class="node"><title>Node13</title>
<g id="a_node13"><a xlink:href="basedefinitions_8h.xhtml" target="_top" xlink:title="Basic types and macros used throughout GROMACS. ">
<polygon fill="white" stroke="black" points="432.5,-62 432.5,-81 589.5,-81 589.5,-62 432.5,-62"/>
<text text-anchor="middle" x="511" y="-69" font-family="Helvetica,sans-Serif" font-size="10.00">gromacs/utility/basedefinitions.h</text>
</a>
</g>
</g>
<!-- Node12&#45;&gt;Node13 -->
<g id="edge13" class="edge"><title>Node12&#45;&gt;Node13</title>
<path fill="none" stroke="midnightblue" d="M576.968,-123.475C564.732,-114.02 544.771,-98.5961 530.007,-87.1871"/>
<polygon fill="midnightblue" stroke="midnightblue" points="532.065,-84.3541 522.012,-81.0091 527.785,-89.8931 532.065,-84.3541"/>
</g>
<!-- Node16 -->
<g id="node16" class="node"><title>Node16</title>
<g id="a_node16"><a xlink:href="current__function_8h.xhtml" target="_top" xlink:title="Declares GMX_CURRENT_FUNCTION for getting the current function name. ">
<polygon fill="white" stroke="black" points="607.5,-56.5 607.5,-86.5 720.5,-86.5 720.5,-56.5 607.5,-56.5"/>
<text text-anchor="start" x="615.5" y="-74.5" font-family="Helvetica,sans-Serif" font-size="10.00">gromacs/utility/current</text>
<text text-anchor="middle" x="664" y="-63.5" font-family="Helvetica,sans-Serif" font-size="10.00">_function.h</text>
</a>
</g>
</g>
<!-- Node12&#45;&gt;Node16 -->
<g id="edge16" class="edge"><title>Node12&#45;&gt;Node16</title>
<path fill="none" stroke="midnightblue" d="M598.889,-123.475C609.086,-115.492 624.717,-103.254 638.109,-92.7703"/>
<polygon fill="midnightblue" stroke="midnightblue" points="640.372,-95.4434 646.088,-86.523 636.057,-89.9316 640.372,-95.4434"/>
</g>
<!-- Node14 -->
<g id="node14" class="node"><title>Node14</title>
<polygon fill="white" stroke="#bfbfbf" points="450.5,-0.5 450.5,-19.5 499.5,-19.5 499.5,-0.5 450.5,-0.5"/>
<text text-anchor="middle" x="475" y="-7.5" font-family="Helvetica,sans-Serif" font-size="10.00">stdint.h</text>
</g>
<!-- Node13&#45;&gt;Node14 -->
<g id="edge14" class="edge"><title>Node13&#45;&gt;Node14</title>
<path fill="none" stroke="midnightblue" d="M505.842,-61.9751C500.549,-53.2268 492.165,-39.3691 485.473,-28.3093"/>
<polygon fill="midnightblue" stroke="midnightblue" points="488.32,-26.2531 480.148,-19.5091 482.33,-29.8768 488.32,-26.2531"/>
</g>
<!-- Node15 -->
<g id="node15" class="node"><title>Node15</title>
<polygon fill="white" stroke="#bfbfbf" points="517.5,-0.5 517.5,-19.5 576.5,-19.5 576.5,-0.5 517.5,-0.5"/>
<text text-anchor="middle" x="547" y="-7.5" font-family="Helvetica,sans-Serif" font-size="10.00">inttypes.h</text>
</g>
<!-- Node13&#45;&gt;Node15 -->
<g id="edge15" class="edge"><title>Node13&#45;&gt;Node15</title>
<path fill="none" stroke="midnightblue" d="M516.158,-61.9751C521.451,-53.2268 529.835,-39.3691 536.527,-28.3093"/>
<polygon fill="midnightblue" stroke="midnightblue" points="539.67,-29.8768 541.852,-19.5091 533.68,-26.2531 539.67,-29.8768"/>
</g>
</g>
</svg>
