<?xml version="1.0" encoding="UTF-8" standalone="no"?>
<!DOCTYPE svg PUBLIC "-//W3C//DTD SVG 1.1//EN"
 "http://www.w3.org/Graphics/SVG/1.1/DTD/svg11.dtd">
<!-- Generated by graphviz version 2.38.0 (20140413.2041)
 -->
<!-- Title: src/gromacs/math/functions.cpp Pages: 1 -->
<svg width="611pt" height="207pt"
 viewBox="0.00 0.00 610.50 207.00" xmlns="http://www.w3.org/2000/svg" xmlns:xlink="http://www.w3.org/1999/xlink">
<g id="graph0" class="graph" transform="scale(1 1) rotate(0) translate(4 203)">
<title>src/gromacs/math/functions.cpp</title>
<polygon fill="white" stroke="none" points="-4,4 -4,-203 606.5,-203 606.5,4 -4,4"/>
<!-- Node1 -->
<g id="node1" class="node"><title>Node1</title>
<polygon fill="#bfbfbf" stroke="black" points="168.5,-179.5 168.5,-198.5 325.5,-198.5 325.5,-179.5 168.5,-179.5"/>
<text text-anchor="middle" x="247" y="-186.5" font-family="Helvetica,sans-Serif" font-size="10.00">src/gromacs/math/functions.cpp</text>
</g>
<!-- Node2 -->
<g id="node2" class="node"><title>Node2</title>
<g id="a_node2"><a xlink:href="gmxpre_8h.xhtml" target="_top" xlink:title="Prerequisite header file for GROMACS build. ">
<polygon fill="white" stroke="black" points="24.5,-123.5 24.5,-142.5 81.5,-142.5 81.5,-123.5 24.5,-123.5"/>
<text text-anchor="middle" x="53" y="-130.5" font-family="Helvetica,sans-Serif" font-size="10.00">gmxpre.h</text>
</a>
</g>
</g>
<!-- Node1&#45;&gt;Node2 -->
<g id="edge1" class="edge"><title>Node1&#45;&gt;Node2</title>
<path fill="none" stroke="midnightblue" d="M216.26,-179.444C182.47,-170.038 128.131,-154.913 91.5223,-144.723"/>
<polygon fill="midnightblue" stroke="midnightblue" points="92.2711,-141.298 81.6987,-141.988 90.3939,-148.042 92.2711,-141.298"/>
</g>
<!-- Node3 -->
<g id="node3" class="node"><title>Node3</title>
<g id="a_node3"><a xlink:href="functions_8h.xhtml" target="_top" xlink:title="Declares simple math functions. ">
<polygon fill="white" stroke="black" points="99.5,-123.5 99.5,-142.5 164.5,-142.5 164.5,-123.5 99.5,-123.5"/>
<text text-anchor="middle" x="132" y="-130.5" font-family="Helvetica,sans-Serif" font-size="10.00">functions.h</text>
</a>
</g>
</g>
<!-- Node1&#45;&gt;Node3 -->
<g id="edge2" class="edge"><title>Node1&#45;&gt;Node3</title>
<path fill="none" stroke="midnightblue" d="M228.778,-179.444C210.104,-170.675 180.844,-156.935 159.383,-146.858"/>
<polygon fill="midnightblue" stroke="midnightblue" points="160.676,-143.599 150.137,-142.516 157.701,-149.935 160.676,-143.599"/>
</g>
<!-- Node5 -->
<g id="node5" class="node"><title>Node5</title>
<polygon fill="white" stroke="#bfbfbf" points="187,-62 187,-81 233,-81 233,-62 187,-62"/>
<text text-anchor="middle" x="210" y="-69" font-family="Helvetica,sans-Serif" font-size="10.00">cstdint</text>
</g>
<!-- Node1&#45;&gt;Node5 -->
<g id="edge7" class="edge"><title>Node1&#45;&gt;Node5</title>
<path fill="none" stroke="midnightblue" d="M237.539,-179.417C229.073,-171.063 217.217,-157.532 212,-143 205.993,-126.268 206.156,-105.839 207.423,-91.2877"/>
<polygon fill="midnightblue" stroke="midnightblue" points="210.934,-91.391 208.579,-81.0612 203.978,-90.6047 210.934,-91.391"/>
</g>
<!-- Node7 -->
<g id="node7" class="node"><title>Node7</title>
<polygon fill="white" stroke="#bfbfbf" points="221.5,-123.5 221.5,-142.5 272.5,-142.5 272.5,-123.5 221.5,-123.5"/>
<text text-anchor="middle" x="247" y="-130.5" font-family="Helvetica,sans-Serif" font-size="10.00">config.h</text>
</g>
<!-- Node1&#45;&gt;Node7 -->
<g id="edge6" class="edge"><title>Node1&#45;&gt;Node7</title>
<path fill="none" stroke="midnightblue" d="M247,-179.083C247,-172.006 247,-161.861 247,-152.986"/>
<polygon fill="midnightblue" stroke="midnightblue" points="250.5,-152.751 247,-142.751 243.5,-152.751 250.5,-152.751"/>
</g>
<!-- Node8 -->
<g id="node8" class="node"><title>Node8</title>
<polygon fill="white" stroke="#bfbfbf" points="291,-123.5 291,-142.5 329,-142.5 329,-123.5 291,-123.5"/>
<text text-anchor="middle" x="310" y="-130.5" font-family="Helvetica,sans-Serif" font-size="10.00">array</text>
</g>
<!-- Node1&#45;&gt;Node8 -->
<g id="edge8" class="edge"><title>Node1&#45;&gt;Node8</title>
<path fill="none" stroke="midnightblue" d="M257.122,-179.324C266.526,-171.263 280.744,-159.077 292.069,-149.369"/>
<polygon fill="midnightblue" stroke="midnightblue" points="294.379,-151.999 299.694,-142.834 289.823,-146.684 294.379,-151.999"/>
</g>
<!-- Node9 -->
<g id="node9" class="node"><title>Node9</title>
<polygon fill="white" stroke="#bfbfbf" points="347,-123.5 347,-142.5 387,-142.5 387,-123.5 347,-123.5"/>
<text text-anchor="middle" x="367" y="-130.5" font-family="Helvetica,sans-Serif" font-size="10.00">limits</text>
</g>
<!-- Node1&#45;&gt;Node9 -->
<g id="edge9" class="edge"><title>Node1&#45;&gt;Node9</title>
<path fill="none" stroke="midnightblue" d="M266.014,-179.444C285.588,-170.636 316.308,-156.812 338.729,-146.722"/>
<polygon fill="midnightblue" stroke="midnightblue" points="340.392,-149.812 348.075,-142.516 337.519,-143.428 340.392,-149.812"/>
</g>
<!-- Node10 -->
<g id="node10" class="node"><title>Node10</title>
<g id="a_node10"><a xlink:href="gmxassert_8h.xhtml" target="_top" xlink:title="Defines assert macros customized for Gromacs. ">
<polygon fill="white" stroke="black" points="405.5,-123.5 405.5,-142.5 542.5,-142.5 542.5,-123.5 405.5,-123.5"/>
<text text-anchor="middle" x="474" y="-130.5" font-family="Helvetica,sans-Serif" font-size="10.00">gromacs/utility/gmxassert.h</text>
</a>
</g>
</g>
<!-- Node1&#45;&gt;Node10 -->
<g id="edge10" class="edge"><title>Node1&#45;&gt;Node10</title>
<path fill="none" stroke="midnightblue" d="M282.969,-179.444C322.319,-170.083 385.487,-155.056 428.314,-144.868"/>
<polygon fill="midnightblue" stroke="midnightblue" points="429.281,-148.236 438.199,-142.516 427.661,-141.426 429.281,-148.236"/>
</g>
<!-- Node4 -->
<g id="node4" class="node"><title>Node4</title>
<polygon fill="white" stroke="#bfbfbf" points="0,-62 0,-81 44,-81 44,-62 0,-62"/>
<text text-anchor="middle" x="22" y="-69" font-family="Helvetica,sans-Serif" font-size="10.00">cmath</text>
</g>
<!-- Node3&#45;&gt;Node4 -->
<g id="edge3" class="edge"><title>Node3&#45;&gt;Node4</title>
<path fill="none" stroke="midnightblue" d="M116.24,-123.475C98.0243,-113.622 67.827,-97.2883 46.5323,-85.7697"/>
<polygon fill="midnightblue" stroke="midnightblue" points="48.192,-82.6883 37.7311,-81.0091 44.8616,-88.8453 48.192,-82.6883"/>
</g>
<!-- Node3&#45;&gt;Node5 -->
<g id="edge4" class="edge"><title>Node3&#45;&gt;Node5</title>
<path fill="none" stroke="midnightblue" d="M143.175,-123.475C155.571,-114.02 175.79,-98.5961 190.746,-87.1871"/>
<polygon fill="midnightblue" stroke="midnightblue" points="193.017,-89.857 198.845,-81.0091 188.772,-84.2914 193.017,-89.857"/>
</g>
<!-- Node6 -->
<g id="node6" class="node"><title>Node6</title>
<g id="a_node6"><a xlink:href="real_8h.xhtml" target="_top" xlink:title="Declares real and related constants. ">
<polygon fill="white" stroke="black" points="61.5,-62 61.5,-81 168.5,-81 168.5,-62 61.5,-62"/>
<text text-anchor="middle" x="115" y="-69" font-family="Helvetica,sans-Serif" font-size="10.00">gromacs/utility/real.h</text>
</a>
</g>
</g>
<!-- Node3&#45;&gt;Node6 -->
<g id="edge5" class="edge"><title>Node3&#45;&gt;Node6</title>
<path fill="none" stroke="midnightblue" d="M129.564,-123.475C127.141,-114.992 123.344,-101.704 120.235,-90.8222"/>
<polygon fill="midnightblue" stroke="midnightblue" points="123.544,-89.6628 117.431,-81.0091 116.813,-91.5859 123.544,-89.6628"/>
</g>
<!-- Node11 -->
<g id="node11" class="node"><title>Node11</title>
<g id="a_node11"><a xlink:href="basedefinitions_8h.xhtml" target="_top" xlink:title="Basic types and macros used throughout GROMACS. ">
<polygon fill="white" stroke="black" points="314.5,-62 314.5,-81 471.5,-81 471.5,-62 314.5,-62"/>
<text text-anchor="middle" x="393" y="-69" font-family="Helvetica,sans-Serif" font-size="10.00">gromacs/utility/basedefinitions.h</text>
</a>
</g>
</g>
<!-- Node10&#45;&gt;Node11 -->
<g id="edge11" class="edge"><title>Node10&#45;&gt;Node11</title>
<path fill="none" stroke="midnightblue" d="M462.395,-123.475C449.523,-114.02 428.526,-98.5961 412.994,-87.1871"/>
<polygon fill="midnightblue" stroke="midnightblue" points="414.715,-84.1085 404.584,-81.0091 410.571,-89.75 414.715,-84.1085"/>
</g>
<!-- Node14 -->
<g id="node14" class="node"><title>Node14</title>
<g id="a_node14"><a xlink:href="current__function_8h.xhtml" target="_top" xlink:title="Declares GMX_CURRENT_FUNCTION for getting the current function name. ">
<polygon fill="white" stroke="black" points="489.5,-56.5 489.5,-86.5 602.5,-86.5 602.5,-56.5 489.5,-56.5"/>
<text text-anchor="start" x="497.5" y="-74.5" font-family="Helvetica,sans-Serif" font-size="10.00">gromacs/utility/current</text>
<text text-anchor="middle" x="546" y="-63.5" font-family="Helvetica,sans-Serif" font-size="10.00">_function.h</text>
</a>
</g>
</g>
<!-- Node10&#45;&gt;Node14 -->
<g id="edge14" class="edge"><title>Node10&#45;&gt;Node14</title>
<path fill="none" stroke="midnightblue" d="M484.316,-123.475C493.885,-115.567 508.506,-103.485 521.112,-93.0675"/>
<polygon fill="midnightblue" stroke="midnightblue" points="523.552,-95.5912 529.031,-86.523 519.093,-90.1952 523.552,-95.5912"/>
</g>
<!-- Node12 -->
<g id="node12" class="node"><title>Node12</title>
<polygon fill="white" stroke="#bfbfbf" points="332.5,-0.5 332.5,-19.5 381.5,-19.5 381.5,-0.5 332.5,-0.5"/>
<text text-anchor="middle" x="357" y="-7.5" font-family="Helvetica,sans-Serif" font-size="10.00">stdint.h</text>
</g>
<!-- Node11&#45;&gt;Node12 -->
<g id="edge12" class="edge"><title>Node11&#45;&gt;Node12</title>
<path fill="none" stroke="midnightblue" d="M387.842,-61.9751C382.549,-53.2268 374.165,-39.3691 367.473,-28.3093"/>
<polygon fill="midnightblue" stroke="midnightblue" points="370.32,-26.2531 362.148,-19.5091 364.33,-29.8768 370.32,-26.2531"/>
</g>
<!-- Node13 -->
<g id="node13" class="node"><title>Node13</title>
<polygon fill="white" stroke="#bfbfbf" points="399.5,-0.5 399.5,-19.5 458.5,-19.5 458.5,-0.5 399.5,-0.5"/>
<text text-anchor="middle" x="429" y="-7.5" font-family="Helvetica,sans-Serif" font-size="10.00">inttypes.h</text>
</g>
<!-- Node11&#45;&gt;Node13 -->
<g id="edge13" class="edge"><title>Node11&#45;&gt;Node13</title>
<path fill="none" stroke="midnightblue" d="M398.158,-61.9751C403.451,-53.2268 411.835,-39.3691 418.527,-28.3093"/>
<polygon fill="midnightblue" stroke="midnightblue" points="421.67,-29.8768 423.852,-19.5091 415.68,-26.2531 421.67,-29.8768"/>
</g>
</g>
</svg>
