<?xml version="1.0" encoding="UTF-8" standalone="no"?>
<!DOCTYPE svg PUBLIC "-//W3C//DTD SVG 1.1//EN"
 "http://www.w3.org/Graphics/SVG/1.1/DTD/svg11.dtd">
<!-- Generated by graphviz version 2.38.0 (20140413.2041)
 -->
<!-- Title: src/gromacs/gmxana/gmx_awh.cpp Pages: 1 -->
<svg width="1830pt" height="285pt"
 viewBox="0.00 0.00 1830.00 285.00" xmlns="http://www.w3.org/2000/svg" xmlns:xlink="http://www.w3.org/1999/xlink">
<g id="graph0" class="graph" transform="scale(1 1) rotate(0) translate(4 281)">
<title>src/gromacs/gmxana/gmx_awh.cpp</title>
<polygon fill="white" stroke="none" points="-4,4 -4,-281 1826,-281 1826,4 -4,4"/>
<!-- Node1 -->
<g id="node1" class="node"><title>Node1</title>
<polygon fill="#bfbfbf" stroke="black" points="532.5,-246.5 532.5,-276.5 640.5,-276.5 640.5,-246.5 532.5,-246.5"/>
<text text-anchor="start" x="540.5" y="-264.5" font-family="Helvetica,sans-Serif" font-size="10.00">src/gromacs/gmxana</text>
<text text-anchor="middle" x="586.5" y="-253.5" font-family="Helvetica,sans-Serif" font-size="10.00">/gmx_awh.cpp</text>
</g>
<!-- Node2 -->
<g id="node2" class="node"><title>Node2</title>
<g id="a_node2"><a xlink:href="gmxpre_8h.xhtml" target="_top" xlink:title="Prerequisite header file for GROMACS build. ">
<polygon fill="white" stroke="black" points="0,-185 0,-204 57,-204 57,-185 0,-185"/>
<text text-anchor="middle" x="28.5" y="-192" font-family="Helvetica,sans-Serif" font-size="10.00">gmxpre.h</text>
</a>
</g>
</g>
<!-- Node1&#45;&gt;Node2 -->
<g id="edge1" class="edge"><title>Node1&#45;&gt;Node2</title>
<path fill="none" stroke="midnightblue" d="M532.443,-260.153C436.906,-258.464 232.531,-250.002 65.5,-210 62.6694,-209.322 59.7669,-208.474 56.8931,-207.53"/>
<polygon fill="midnightblue" stroke="midnightblue" points="57.973,-204.198 47.3791,-204.059 55.5742,-210.774 57.973,-204.198"/>
</g>
<!-- Node3 -->
<g id="node3" class="node"><title>Node3</title>
<polygon fill="white" stroke="#bfbfbf" points="75,-185 75,-204 120,-204 120,-185 75,-185"/>
<text text-anchor="middle" x="97.5" y="-192" font-family="Helvetica,sans-Serif" font-size="10.00">cstdlib</text>
</g>
<!-- Node1&#45;&gt;Node3 -->
<g id="edge2" class="edge"><title>Node1&#45;&gt;Node3</title>
<path fill="none" stroke="midnightblue" d="M532.471,-259.025C446.872,-255.674 275.349,-244.824 134.5,-210 131.674,-209.301 128.775,-208.439 125.904,-207.486"/>
<polygon fill="midnightblue" stroke="midnightblue" points="126.986,-204.156 116.393,-204.004 124.579,-210.729 126.986,-204.156"/>
</g>
<!-- Node4 -->
<g id="node4" class="node"><title>Node4</title>
<polygon fill="white" stroke="#bfbfbf" points="125.5,-118 125.5,-137 171.5,-137 171.5,-118 125.5,-118"/>
<text text-anchor="middle" x="148.5" y="-125" font-family="Helvetica,sans-Serif" font-size="10.00">cstring</text>
</g>
<!-- Node1&#45;&gt;Node4 -->
<g id="edge3" class="edge"><title>Node1&#45;&gt;Node4</title>
<path fill="none" stroke="midnightblue" d="M532.209,-259.555C437.381,-256.937 246.511,-247.08 192.5,-210 170.79,-195.096 158.85,-165.907 153.064,-146.81"/>
<polygon fill="midnightblue" stroke="midnightblue" points="156.434,-145.863 150.401,-137.154 149.686,-147.725 156.434,-145.863"/>
</g>
<!-- Node5 -->
<g id="node5" class="node"><title>Node5</title>
<polygon fill="white" stroke="#bfbfbf" points="360.5,-185 360.5,-204 416.5,-204 416.5,-185 360.5,-185"/>
<text text-anchor="middle" x="388.5" y="-192" font-family="Helvetica,sans-Serif" font-size="10.00">algorithm</text>
</g>
<!-- Node1&#45;&gt;Node5 -->
<g id="edge4" class="edge"><title>Node1&#45;&gt;Node5</title>
<path fill="none" stroke="midnightblue" d="M538.661,-246.447C506.483,-236.762 463.214,-223.287 425.5,-210 423.385,-209.255 421.211,-208.465 419.027,-207.655"/>
<polygon fill="midnightblue" stroke="midnightblue" points="420.128,-204.329 409.537,-204.036 417.634,-210.869 420.128,-204.329"/>
</g>
<!-- Node6 -->
<g id="node6" class="node"><title>Node6</title>
<polygon fill="white" stroke="#bfbfbf" points="434.5,-185 434.5,-204 472.5,-204 472.5,-185 434.5,-185"/>
<text text-anchor="middle" x="453.5" y="-192" font-family="Helvetica,sans-Serif" font-size="10.00">array</text>
</g>
<!-- Node1&#45;&gt;Node6 -->
<g id="edge5" class="edge"><title>Node1&#45;&gt;Node6</title>
<path fill="none" stroke="midnightblue" d="M557.641,-246.396C534.614,-235.142 502.61,-219.501 480.177,-208.538"/>
<polygon fill="midnightblue" stroke="midnightblue" points="481.428,-205.253 470.907,-204.007 478.354,-211.543 481.428,-205.253"/>
</g>
<!-- Node7 -->
<g id="node7" class="node"><title>Node7</title>
<polygon fill="white" stroke="#bfbfbf" points="385.5,-118 385.5,-137 437.5,-137 437.5,-118 385.5,-118"/>
<text text-anchor="middle" x="411.5" y="-125" font-family="Helvetica,sans-Serif" font-size="10.00">memory</text>
</g>
<!-- Node1&#45;&gt;Node7 -->
<g id="edge6" class="edge"><title>Node1&#45;&gt;Node7</title>
<path fill="none" stroke="midnightblue" d="M567.291,-246.327C553.815,-236.309 535.431,-222.495 519.5,-210 502.35,-196.549 498.79,-192.271 481.5,-179 465.215,-166.501 446.314,-152.918 432.26,-142.99"/>
<polygon fill="midnightblue" stroke="midnightblue" points="433.994,-139.931 423.801,-137.042 429.968,-145.657 433.994,-139.931"/>
</g>
<!-- Node8 -->
<g id="node8" class="node"><title>Node8</title>
<polygon fill="white" stroke="#bfbfbf" points="191,-118 191,-137 232,-137 232,-118 191,-118"/>
<text text-anchor="middle" x="211.5" y="-125" font-family="Helvetica,sans-Serif" font-size="10.00">string</text>
</g>
<!-- Node1&#45;&gt;Node8 -->
<g id="edge7" class="edge"><title>Node1&#45;&gt;Node8</title>
<path fill="none" stroke="midnightblue" d="M532.489,-257.23C432.493,-250.621 226.717,-234.214 205.5,-210 190.493,-192.873 196.662,-165.187 203.353,-146.913"/>
<polygon fill="midnightblue" stroke="midnightblue" points="206.698,-147.976 207.197,-137.393 200.207,-145.355 206.698,-147.976"/>
</g>
<!-- Node9 -->
<g id="node9" class="node"><title>Node9</title>
<g id="a_node9"><a xlink:href="pargs_8h.xhtml" target="_top" xlink:title="Declares t_pargs, parse_common_args() and related methods. ">
<polygon fill="white" stroke="black" points="758,-179.5 758,-209.5 873,-209.5 873,-179.5 758,-179.5"/>
<text text-anchor="start" x="766" y="-197.5" font-family="Helvetica,sans-Serif" font-size="10.00">gromacs/commandline</text>
<text text-anchor="middle" x="815.5" y="-186.5" font-family="Helvetica,sans-Serif" font-size="10.00">/pargs.h</text>
</a>
</g>
</g>
<!-- Node1&#45;&gt;Node9 -->
<g id="edge8" class="edge"><title>Node1&#45;&gt;Node9</title>
<path fill="none" stroke="midnightblue" d="M635.908,-246.476C671.151,-236.472 718.716,-222.971 756.041,-212.377"/>
<polygon fill="midnightblue" stroke="midnightblue" points="757.122,-215.709 765.786,-209.611 755.21,-208.975 757.122,-215.709"/>
</g>
<!-- Node11 -->
<g id="node11" class="node"><title>Node11</title>
<g id="a_node11"><a xlink:href="basedefinitions_8h.xhtml" target="_top" xlink:title="Basic types and macros used throughout GROMACS. ">
<polygon fill="white" stroke="black" points="1012,-56.5 1012,-75.5 1169,-75.5 1169,-56.5 1012,-56.5"/>
<text text-anchor="middle" x="1090.5" y="-63.5" font-family="Helvetica,sans-Serif" font-size="10.00">gromacs/utility/basedefinitions.h</text>
</a>
</g>
</g>
<!-- Node1&#45;&gt;Node11 -->
<g id="edge25" class="edge"><title>Node1&#45;&gt;Node11</title>
<path fill="none" stroke="midnightblue" d="M611.566,-246.404C625.505,-237.497 642.255,-224.872 653.5,-210 681.675,-172.738 654.498,-140.516 691.5,-112 738.457,-75.8118 899.147,-67.8462 1001.71,-66.5755"/>
<polygon fill="midnightblue" stroke="midnightblue" points="1001.8,-70.0749 1011.76,-66.4701 1001.72,-63.0753 1001.8,-70.0749"/>
</g>
<!-- Node15 -->
<g id="node15" class="node"><title>Node15</title>
<g id="a_node15"><a xlink:href="make__unique_8h.xhtml" target="_top" xlink:title="Provides template gmx::compat::make_unique. ">
<polygon fill="white" stroke="black" points="528.5,-179.5 528.5,-209.5 644.5,-209.5 644.5,-179.5 528.5,-179.5"/>
<text text-anchor="start" x="536.5" y="-197.5" font-family="Helvetica,sans-Serif" font-size="10.00">gromacs/compat/make</text>
<text text-anchor="middle" x="586.5" y="-186.5" font-family="Helvetica,sans-Serif" font-size="10.00">_unique.h</text>
</a>
</g>
</g>
<!-- Node1&#45;&gt;Node15 -->
<g id="edge15" class="edge"><title>Node1&#45;&gt;Node15</title>
<path fill="none" stroke="midnightblue" d="M586.5,-246.396C586.5,-238.645 586.5,-228.812 586.5,-219.86"/>
<polygon fill="midnightblue" stroke="midnightblue" points="590,-219.576 586.5,-209.577 583,-219.577 590,-219.576"/>
</g>
<!-- Node19 -->
<g id="node19" class="node"><title>Node19</title>
<g id="a_node19"><a xlink:href="awh-params_8h.xhtml" target="_top" xlink:title="Declares AWH parameter data types. ">
<polygon fill="white" stroke="black" points="948.5,-179.5 948.5,-209.5 1064.5,-209.5 1064.5,-179.5 948.5,-179.5"/>
<text text-anchor="start" x="956.5" y="-197.5" font-family="Helvetica,sans-Serif" font-size="10.00">gromacs/mdtypes/awh</text>
<text text-anchor="middle" x="1006.5" y="-186.5" font-family="Helvetica,sans-Serif" font-size="10.00">&#45;params.h</text>
</a>
</g>
</g>
<!-- Node1&#45;&gt;Node19 -->
<g id="edge20" class="edge"><title>Node1&#45;&gt;Node19</title>
<path fill="none" stroke="midnightblue" d="M640.548,-252.135C716.582,-240.368 855.103,-218.931 938.182,-206.073"/>
<polygon fill="midnightblue" stroke="midnightblue" points="938.932,-209.499 948.279,-204.51 937.862,-202.581 938.932,-209.499"/>
</g>
<!-- Node21 -->
<g id="node21" class="node"><title>Node21</title>
<g id="a_node21"><a xlink:href="arraysize_8h.xhtml" target="_top" xlink:title="Provides asize() macro for calculating the static size of an array. ">
<polygon fill="white" stroke="black" points="1691,-185 1691,-204 1822,-204 1822,-185 1691,-185"/>
<text text-anchor="middle" x="1756.5" y="-192" font-family="Helvetica,sans-Serif" font-size="10.00">gromacs/utility/arraysize.h</text>
</a>
</g>
</g>
<!-- Node1&#45;&gt;Node21 -->
<g id="edge24" class="edge"><title>Node1&#45;&gt;Node21</title>
<path fill="none" stroke="midnightblue" d="M640.618,-260.822C800.539,-261.17 1284.65,-257.879 1682.5,-210 1691,-208.977 1699.99,-207.53 1708.66,-205.943"/>
<polygon fill="midnightblue" stroke="midnightblue" points="1709.48,-209.349 1718.64,-204.032 1708.16,-202.474 1709.48,-209.349"/>
</g>
<!-- Node22 -->
<g id="node22" class="node"><title>Node22</title>
<g id="a_node22"><a xlink:href="fatalerror_8h.xhtml" target="_top" xlink:title="Declares fatal error handling and debugging routines for C code. ">
<polygon fill="white" stroke="black" points="1109.5,-185 1109.5,-204 1239.5,-204 1239.5,-185 1109.5,-185"/>
<text text-anchor="middle" x="1174.5" y="-192" font-family="Helvetica,sans-Serif" font-size="10.00">gromacs/utility/fatalerror.h</text>
</a>
</g>
</g>
<!-- Node1&#45;&gt;Node22 -->
<g id="edge26" class="edge"><title>Node1&#45;&gt;Node22</title>
<path fill="none" stroke="midnightblue" d="M640.628,-255.587C730.606,-247.263 916.59,-229.391 1073.5,-210 1084.65,-208.622 1096.47,-207.037 1107.95,-205.432"/>
<polygon fill="midnightblue" stroke="midnightblue" points="1108.52,-208.887 1117.93,-204.021 1107.54,-201.956 1108.52,-208.887"/>
</g>
<!-- Node25 -->
<g id="node25" class="node"><title>Node25</title>
<g id="a_node25"><a xlink:href="futil_8h.xhtml" target="_top" xlink:title="Low&#45;level wrappers for OS&#45;specific file handling with some GROMACS customizations. ">
<polygon fill="white" stroke="black" points="1258,-185 1258,-204 1365,-204 1365,-185 1258,-185"/>
<text text-anchor="middle" x="1311.5" y="-192" font-family="Helvetica,sans-Serif" font-size="10.00">gromacs/utility/futil.h</text>
</a>
</g>
</g>
<!-- Node1&#45;&gt;Node25 -->
<g id="edge30" class="edge"><title>Node1&#45;&gt;Node25</title>
<path fill="none" stroke="midnightblue" d="M640.873,-259.112C754.382,-255.61 1024.59,-244.111 1248.5,-210 1254.98,-209.013 1261.78,-207.721 1268.42,-206.316"/>
<polygon fill="midnightblue" stroke="midnightblue" points="1269.65,-209.628 1278.66,-204.04 1268.13,-202.795 1269.65,-209.628"/>
</g>
<!-- Node27 -->
<g id="node27" class="node"><title>Node27</title>
<g id="a_node27"><a xlink:href="gmxassert_8h.xhtml" target="_top" xlink:title="Defines assert macros customized for Gromacs. ">
<polygon fill="white" stroke="black" points="1383,-185 1383,-204 1520,-204 1520,-185 1383,-185"/>
<text text-anchor="middle" x="1451.5" y="-192" font-family="Helvetica,sans-Serif" font-size="10.00">gromacs/utility/gmxassert.h</text>
</a>
</g>
</g>
<!-- Node1&#45;&gt;Node27 -->
<g id="edge34" class="edge"><title>Node1&#45;&gt;Node27</title>
<path fill="none" stroke="midnightblue" d="M640.694,-259.306C768.786,-255.986 1100.09,-244.499 1374.5,-210 1383.23,-208.903 1392.46,-207.435 1401.38,-205.853"/>
<polygon fill="midnightblue" stroke="midnightblue" points="1402.08,-209.283 1411.28,-204.033 1400.82,-202.399 1402.08,-209.283"/>
</g>
<!-- Node29 -->
<g id="node29" class="node"><title>Node29</title>
<g id="a_node29"><a xlink:href="smalloc_8h.xhtml" target="_top" xlink:title="C memory allocation routines for GROMACS. ">
<polygon fill="white" stroke="black" points="1548,-185 1548,-204 1673,-204 1673,-185 1548,-185"/>
<text text-anchor="middle" x="1610.5" y="-192" font-family="Helvetica,sans-Serif" font-size="10.00">gromacs/utility/smalloc.h</text>
</a>
</g>
</g>
<!-- Node1&#45;&gt;Node29 -->
<g id="edge37" class="edge"><title>Node1&#45;&gt;Node29</title>
<path fill="none" stroke="midnightblue" d="M640.651,-259.939C785.369,-257.934 1192.99,-248.979 1529.5,-210 1538.98,-208.902 1549.03,-207.39 1558.7,-205.754"/>
<polygon fill="midnightblue" stroke="midnightblue" points="1559.36,-209.192 1568.61,-204.018 1558.15,-202.297 1559.36,-209.192"/>
</g>
<!-- Node31 -->
<g id="node31" class="node"><title>Node31</title>
<g id="a_node31"><a xlink:href="stringutil_8h.xhtml" target="_top" xlink:title="Declares common string utility and formatting routines. ">
<polygon fill="white" stroke="black" points="214.5,-185 214.5,-204 342.5,-204 342.5,-185 214.5,-185"/>
<text text-anchor="middle" x="278.5" y="-192" font-family="Helvetica,sans-Serif" font-size="10.00">gromacs/utility/stringutil.h</text>
</a>
</g>
</g>
<!-- Node1&#45;&gt;Node31 -->
<g id="edge40" class="edge"><title>Node1&#45;&gt;Node31</title>
<path fill="none" stroke="midnightblue" d="M532.498,-249.103C475.165,-237.004 385.254,-218.029 329.208,-206.201"/>
<polygon fill="midnightblue" stroke="midnightblue" points="329.66,-202.72 319.152,-204.079 328.214,-209.569 329.66,-202.72"/>
</g>
<!-- Node10 -->
<g id="node10" class="node"><title>Node10</title>
<g id="a_node10"><a xlink:href="filenm_8h.xhtml" target="_top" xlink:title="Declares t_filenm for old&#45;style command&#45;line parsing of file name options. ">
<polygon fill="white" stroke="black" points="700,-112.5 700,-142.5 815,-142.5 815,-112.5 700,-112.5"/>
<text text-anchor="start" x="708" y="-130.5" font-family="Helvetica,sans-Serif" font-size="10.00">gromacs/commandline</text>
<text text-anchor="middle" x="757.5" y="-119.5" font-family="Helvetica,sans-Serif" font-size="10.00">/filenm.h</text>
</a>
</g>
</g>
<!-- Node9&#45;&gt;Node10 -->
<g id="edge9" class="edge"><title>Node9&#45;&gt;Node10</title>
<path fill="none" stroke="midnightblue" d="M802.915,-179.396C795.314,-170.878 785.471,-159.847 776.892,-150.233"/>
<polygon fill="midnightblue" stroke="midnightblue" points="779.33,-147.708 770.061,-142.577 774.107,-152.368 779.33,-147.708"/>
</g>
<!-- Node9&#45;&gt;Node11 -->
<g id="edge13" class="edge"><title>Node9&#45;&gt;Node11</title>
<path fill="none" stroke="midnightblue" d="M857.136,-179.432C883.889,-169.997 919.183,-156.808 949.5,-143 972.17,-132.675 1032.17,-99.5795 1066.14,-80.6414"/>
<polygon fill="midnightblue" stroke="midnightblue" points="1067.96,-83.6367 1074.98,-75.706 1064.54,-77.5247 1067.96,-83.6367"/>
</g>
<!-- Node14 -->
<g id="node14" class="node"><title>Node14</title>
<g id="a_node14"><a xlink:href="real_8h.xhtml" target="_top" xlink:title="Declares real and related constants. ">
<polygon fill="white" stroke="black" points="833,-118 833,-137 940,-137 940,-118 833,-118"/>
<text text-anchor="middle" x="886.5" y="-125" font-family="Helvetica,sans-Serif" font-size="10.00">gromacs/utility/real.h</text>
</a>
</g>
</g>
<!-- Node9&#45;&gt;Node14 -->
<g id="edge14" class="edge"><title>Node9&#45;&gt;Node14</title>
<path fill="none" stroke="midnightblue" d="M830.906,-179.396C842.305,-168.96 857.826,-154.751 869.572,-143.998"/>
<polygon fill="midnightblue" stroke="midnightblue" points="871.99,-146.529 877.003,-137.195 867.264,-141.366 871.99,-146.529"/>
</g>
<!-- Node10&#45;&gt;Node11 -->
<g id="edge10" class="edge"><title>Node10&#45;&gt;Node11</title>
<path fill="none" stroke="midnightblue" d="M815.209,-113.836C818.349,-113.202 821.462,-112.585 824.5,-112 892.874,-98.825 971.543,-85.7759 1025.49,-77.1499"/>
<polygon fill="midnightblue" stroke="midnightblue" points="1026.28,-80.5684 1035.6,-75.5383 1025.18,-73.6557 1026.28,-80.5684"/>
</g>
<!-- Node12 -->
<g id="node12" class="node"><title>Node12</title>
<polygon fill="white" stroke="#bfbfbf" points="1030,-0.5 1030,-19.5 1079,-19.5 1079,-0.5 1030,-0.5"/>
<text text-anchor="middle" x="1054.5" y="-7.5" font-family="Helvetica,sans-Serif" font-size="10.00">stdint.h</text>
</g>
<!-- Node11&#45;&gt;Node12 -->
<g id="edge11" class="edge"><title>Node11&#45;&gt;Node12</title>
<path fill="none" stroke="midnightblue" d="M1084.56,-56.083C1079.52,-48.5341 1072.16,-37.4948 1065.99,-28.2298"/>
<polygon fill="midnightblue" stroke="midnightblue" points="1068.79,-26.1301 1060.33,-19.7511 1062.97,-30.0131 1068.79,-26.1301"/>
</g>
<!-- Node13 -->
<g id="node13" class="node"><title>Node13</title>
<polygon fill="white" stroke="#bfbfbf" points="1097,-0.5 1097,-19.5 1156,-19.5 1156,-0.5 1097,-0.5"/>
<text text-anchor="middle" x="1126.5" y="-7.5" font-family="Helvetica,sans-Serif" font-size="10.00">inttypes.h</text>
</g>
<!-- Node11&#45;&gt;Node13 -->
<g id="edge12" class="edge"><title>Node11&#45;&gt;Node13</title>
<path fill="none" stroke="midnightblue" d="M1096.44,-56.083C1101.48,-48.5341 1108.84,-37.4948 1115.01,-28.2298"/>
<polygon fill="midnightblue" stroke="midnightblue" points="1118.03,-30.0131 1120.67,-19.7511 1112.21,-26.1301 1118.03,-30.0131"/>
</g>
<!-- Node15&#45;&gt;Node7 -->
<g id="edge17" class="edge"><title>Node15&#45;&gt;Node7</title>
<path fill="none" stroke="midnightblue" d="M545.88,-179.41C517.836,-169.545 479.751,-155.877 446.5,-143 444.855,-142.363 443.172,-141.701 441.474,-141.025"/>
<polygon fill="midnightblue" stroke="midnightblue" points="442.376,-137.613 431.794,-137.095 439.743,-144.099 442.376,-137.613"/>
</g>
<!-- Node16 -->
<g id="node16" class="node"><title>Node16</title>
<polygon fill="white" stroke="#bfbfbf" points="594,-118 594,-137 643,-137 643,-118 594,-118"/>
<text text-anchor="middle" x="618.5" y="-125" font-family="Helvetica,sans-Serif" font-size="10.00">cstddef</text>
</g>
<!-- Node15&#45;&gt;Node16 -->
<g id="edge16" class="edge"><title>Node15&#45;&gt;Node16</title>
<path fill="none" stroke="midnightblue" d="M593.444,-179.396C598.235,-169.662 604.643,-156.646 609.779,-146.214"/>
<polygon fill="midnightblue" stroke="midnightblue" points="612.943,-147.712 614.22,-137.195 606.663,-144.62 612.943,-147.712"/>
</g>
<!-- Node17 -->
<g id="node17" class="node"><title>Node17</title>
<polygon fill="white" stroke="#bfbfbf" points="455.5,-118 455.5,-137 517.5,-137 517.5,-118 455.5,-118"/>
<text text-anchor="middle" x="486.5" y="-125" font-family="Helvetica,sans-Serif" font-size="10.00">type_traits</text>
</g>
<!-- Node15&#45;&gt;Node17 -->
<g id="edge18" class="edge"><title>Node15&#45;&gt;Node17</title>
<path fill="none" stroke="midnightblue" d="M564.801,-179.396C548.032,-168.496 524.929,-153.479 508.167,-142.584"/>
<polygon fill="midnightblue" stroke="midnightblue" points="509.88,-139.522 499.588,-137.007 506.065,-145.391 509.88,-139.522"/>
</g>
<!-- Node18 -->
<g id="node18" class="node"><title>Node18</title>
<polygon fill="white" stroke="#bfbfbf" points="535.5,-118 535.5,-137 575.5,-137 575.5,-118 535.5,-118"/>
<text text-anchor="middle" x="555.5" y="-125" font-family="Helvetica,sans-Serif" font-size="10.00">utility</text>
</g>
<!-- Node15&#45;&gt;Node18 -->
<g id="edge19" class="edge"><title>Node15&#45;&gt;Node18</title>
<path fill="none" stroke="midnightblue" d="M579.773,-179.396C575.179,-169.763 569.052,-156.914 564.102,-146.537"/>
<polygon fill="midnightblue" stroke="midnightblue" points="567.111,-144.714 559.647,-137.195 560.792,-147.727 567.111,-144.714"/>
</g>
<!-- Node19&#45;&gt;Node11 -->
<g id="edge23" class="edge"><title>Node19&#45;&gt;Node11</title>
<path fill="none" stroke="midnightblue" d="M1007,-179.315C1008.24,-162.025 1012.45,-132.571 1026.5,-112 1035.56,-98.7331 1049.91,-88.1189 1062.73,-80.5384"/>
<polygon fill="midnightblue" stroke="midnightblue" points="1064.65,-83.4748 1071.7,-75.5603 1061.26,-77.355 1064.65,-83.4748"/>
</g>
<!-- Node20 -->
<g id="node20" class="node"><title>Node20</title>
<g id="a_node20"><a xlink:href="md__enums_8h.xhtml" target="_top" xlink:title="Declares enumerated types used throughout the code. ">
<polygon fill="white" stroke="black" points="1035,-112.5 1035,-142.5 1146,-142.5 1146,-112.5 1035,-112.5"/>
<text text-anchor="start" x="1043" y="-130.5" font-family="Helvetica,sans-Serif" font-size="10.00">gromacs/mdtypes/md</text>
<text text-anchor="middle" x="1090.5" y="-119.5" font-family="Helvetica,sans-Serif" font-size="10.00">_enums.h</text>
</a>
</g>
</g>
<!-- Node19&#45;&gt;Node20 -->
<g id="edge21" class="edge"><title>Node19&#45;&gt;Node20</title>
<path fill="none" stroke="midnightblue" d="M1024.73,-179.396C1036.28,-170.452 1051.42,-158.737 1064.26,-148.802"/>
<polygon fill="midnightblue" stroke="midnightblue" points="1066.54,-151.464 1072.31,-142.577 1062.26,-145.928 1066.54,-151.464"/>
</g>
<!-- Node20&#45;&gt;Node11 -->
<g id="edge22" class="edge"><title>Node20&#45;&gt;Node11</title>
<path fill="none" stroke="midnightblue" d="M1090.5,-112.399C1090.5,-104.466 1090.5,-94.458 1090.5,-85.8583"/>
<polygon fill="midnightblue" stroke="midnightblue" points="1094,-85.6577 1090.5,-75.6578 1087,-85.6578 1094,-85.6577"/>
</g>
<!-- Node22&#45;&gt;Node11 -->
<g id="edge29" class="edge"><title>Node22&#45;&gt;Node11</title>
<path fill="none" stroke="midnightblue" d="M1174.47,-184.844C1174,-169.021 1171.1,-134.948 1155.5,-112 1146.43,-98.6656 1132,-88.0926 1119.03,-80.5549"/>
<polygon fill="midnightblue" stroke="midnightblue" points="1120.4,-77.3167 1109.95,-75.6067 1117.06,-83.4639 1120.4,-77.3167"/>
</g>
<!-- Node23 -->
<g id="node23" class="node"><title>Node23</title>
<polygon fill="white" stroke="#bfbfbf" points="1202.5,-118 1202.5,-137 1254.5,-137 1254.5,-118 1202.5,-118"/>
<text text-anchor="middle" x="1228.5" y="-125" font-family="Helvetica,sans-Serif" font-size="10.00">stdarg.h</text>
</g>
<!-- Node22&#45;&gt;Node23 -->
<g id="edge27" class="edge"><title>Node22&#45;&gt;Node23</title>
<path fill="none" stroke="midnightblue" d="M1181.78,-184.734C1190.2,-174.598 1204.25,-157.69 1214.75,-145.056"/>
<polygon fill="midnightblue" stroke="midnightblue" points="1217.63,-147.056 1221.33,-137.127 1212.25,-142.583 1217.63,-147.056"/>
</g>
<!-- Node24 -->
<g id="node24" class="node"><title>Node24</title>
<polygon fill="white" stroke="#bfbfbf" points="1272.5,-118 1272.5,-137 1318.5,-137 1318.5,-118 1272.5,-118"/>
<text text-anchor="middle" x="1295.5" y="-125" font-family="Helvetica,sans-Serif" font-size="10.00">stdio.h</text>
</g>
<!-- Node22&#45;&gt;Node24 -->
<g id="edge28" class="edge"><title>Node22&#45;&gt;Node24</title>
<path fill="none" stroke="midnightblue" d="M1190.82,-184.734C1211.32,-173.721 1246.7,-154.713 1270.59,-141.879"/>
<polygon fill="midnightblue" stroke="midnightblue" points="1272.29,-144.943 1279.44,-137.127 1268.97,-138.776 1272.29,-144.943"/>
</g>
<!-- Node25&#45;&gt;Node11 -->
<g id="edge33" class="edge"><title>Node25&#45;&gt;Node11</title>
<path fill="none" stroke="midnightblue" d="M1317.31,-184.764C1327.33,-168.506 1345.16,-133.324 1327.5,-112 1308.63,-89.2055 1238.36,-77.8643 1179.2,-72.2776"/>
<polygon fill="midnightblue" stroke="midnightblue" points="1179.33,-68.7752 1169.06,-71.3646 1178.7,-75.747 1179.33,-68.7752"/>
</g>
<!-- Node25&#45;&gt;Node24 -->
<g id="edge32" class="edge"><title>Node25&#45;&gt;Node24</title>
<path fill="none" stroke="midnightblue" d="M1309.34,-184.734C1306.97,-175.085 1303.08,-159.3 1300.03,-146.906"/>
<polygon fill="midnightblue" stroke="midnightblue" points="1303.41,-146.001 1297.62,-137.127 1296.62,-147.674 1303.41,-146.001"/>
</g>
<!-- Node26 -->
<g id="node26" class="node"><title>Node26</title>
<polygon fill="white" stroke="#bfbfbf" points="1374.5,-118 1374.5,-137 1422.5,-137 1422.5,-118 1374.5,-118"/>
<text text-anchor="middle" x="1398.5" y="-125" font-family="Helvetica,sans-Serif" font-size="10.00">limits.h</text>
</g>
<!-- Node25&#45;&gt;Node26 -->
<g id="edge31" class="edge"><title>Node25&#45;&gt;Node26</title>
<path fill="none" stroke="midnightblue" d="M1323.23,-184.734C1337.45,-174.111 1361.63,-156.049 1378.74,-143.264"/>
<polygon fill="midnightblue" stroke="midnightblue" points="1381.04,-145.916 1386.95,-137.127 1376.85,-140.309 1381.04,-145.916"/>
</g>
<!-- Node27&#45;&gt;Node11 -->
<g id="edge35" class="edge"><title>Node27&#45;&gt;Node11</title>
<path fill="none" stroke="midnightblue" d="M1452.25,-184.794C1453.18,-167.94 1452.55,-130.863 1431.5,-112 1395.37,-79.6226 1267.73,-70.2172 1179.3,-67.6661"/>
<polygon fill="midnightblue" stroke="midnightblue" points="1179.34,-64.1663 1169.25,-67.4008 1179.16,-71.1638 1179.34,-64.1663"/>
</g>
<!-- Node28 -->
<g id="node28" class="node"><title>Node28</title>
<g id="a_node28"><a xlink:href="current__function_8h.xhtml" target="_top" xlink:title="Declares GMX_CURRENT_FUNCTION for getting the current function name. ">
<polygon fill="white" stroke="black" points="1479,-112.5 1479,-142.5 1592,-142.5 1592,-112.5 1479,-112.5"/>
<text text-anchor="start" x="1487" y="-130.5" font-family="Helvetica,sans-Serif" font-size="10.00">gromacs/utility/current</text>
<text text-anchor="middle" x="1535.5" y="-119.5" font-family="Helvetica,sans-Serif" font-size="10.00">_function.h</text>
</a>
</g>
</g>
<!-- Node27&#45;&gt;Node28 -->
<g id="edge36" class="edge"><title>Node27&#45;&gt;Node28</title>
<path fill="none" stroke="midnightblue" d="M1462.83,-184.734C1474.62,-175.611 1493.5,-161.004 1509.06,-148.963"/>
<polygon fill="midnightblue" stroke="midnightblue" points="1511.53,-151.477 1517.29,-142.589 1507.24,-145.941 1511.53,-151.477"/>
</g>
<!-- Node29&#45;&gt;Node11 -->
<g id="edge39" class="edge"><title>Node29&#45;&gt;Node11</title>
<path fill="none" stroke="midnightblue" d="M1612.65,-184.872C1616.23,-168.157 1621.24,-131.31 1601.5,-112 1572.02,-83.1616 1317.65,-72.4963 1179.28,-68.8037"/>
<polygon fill="midnightblue" stroke="midnightblue" points="1179.21,-65.3006 1169.12,-68.5394 1179.02,-72.2982 1179.21,-65.3006"/>
</g>
<!-- Node30 -->
<g id="node30" class="node"><title>Node30</title>
<polygon fill="white" stroke="#bfbfbf" points="1648.5,-118 1648.5,-137 1700.5,-137 1700.5,-118 1648.5,-118"/>
<text text-anchor="middle" x="1674.5" y="-125" font-family="Helvetica,sans-Serif" font-size="10.00">stddef.h</text>
</g>
<!-- Node29&#45;&gt;Node30 -->
<g id="edge38" class="edge"><title>Node29&#45;&gt;Node30</title>
<path fill="none" stroke="midnightblue" d="M1619.13,-184.734C1629.3,-174.403 1646.4,-157.037 1658.91,-144.332"/>
<polygon fill="midnightblue" stroke="midnightblue" points="1661.48,-146.709 1666.01,-137.127 1656.5,-141.797 1661.48,-146.709"/>
</g>
<!-- Node31&#45;&gt;Node4 -->
<g id="edge42" class="edge"><title>Node31&#45;&gt;Node4</title>
<path fill="none" stroke="midnightblue" d="M261.237,-184.869C239.189,-173.845 200.811,-154.655 175.036,-141.768"/>
<polygon fill="midnightblue" stroke="midnightblue" points="176.344,-138.509 165.834,-137.167 173.213,-144.77 176.344,-138.509"/>
</g>
<!-- Node31&#45;&gt;Node8 -->
<g id="edge43" class="edge"><title>Node31&#45;&gt;Node8</title>
<path fill="none" stroke="midnightblue" d="M269.464,-184.734C258.815,-174.403 240.915,-157.037 227.819,-144.332"/>
<polygon fill="midnightblue" stroke="midnightblue" points="230.007,-141.578 220.393,-137.127 225.133,-146.603 230.007,-141.578"/>
</g>
<!-- Node32 -->
<g id="node32" class="node"><title>Node32</title>
<polygon fill="white" stroke="#bfbfbf" points="252,-118 252,-137 301,-137 301,-118 252,-118"/>
<text text-anchor="middle" x="276.5" y="-125" font-family="Helvetica,sans-Serif" font-size="10.00">cstdarg</text>
</g>
<!-- Node31&#45;&gt;Node32 -->
<g id="edge41" class="edge"><title>Node31&#45;&gt;Node32</title>
<path fill="none" stroke="midnightblue" d="M278.23,-184.734C277.936,-175.183 277.457,-159.618 277.078,-147.283"/>
<polygon fill="midnightblue" stroke="midnightblue" points="280.571,-147.015 276.765,-137.127 273.575,-147.23 280.571,-147.015"/>
</g>
<!-- Node33 -->
<g id="node33" class="node"><title>Node33</title>
<polygon fill="white" stroke="#bfbfbf" points="319.5,-118 319.5,-137 363.5,-137 363.5,-118 319.5,-118"/>
<text text-anchor="middle" x="341.5" y="-125" font-family="Helvetica,sans-Serif" font-size="10.00">vector</text>
</g>
<!-- Node31&#45;&gt;Node33 -->
<g id="edge44" class="edge"><title>Node31&#45;&gt;Node33</title>
<path fill="none" stroke="midnightblue" d="M286.996,-184.734C297.009,-174.403 313.841,-157.037 326.156,-144.332"/>
<polygon fill="midnightblue" stroke="midnightblue" points="328.692,-146.744 333.138,-137.127 323.665,-141.872 328.692,-146.744"/>
</g>
</g>
</svg>
