<?xml version="1.0" encoding="UTF-8" standalone="no"?>
<!DOCTYPE svg PUBLIC "-//W3C//DTD SVG 1.1//EN"
 "http://www.w3.org/Graphics/SVG/1.1/DTD/svg11.dtd">
<!-- Generated by graphviz version 2.38.0 (20140413.2041)
 -->
<!-- Title: src/gromacs/utility/gmxomp.cpp Pages: 1 -->
<svg width="1618pt" height="274pt"
 viewBox="0.00 0.00 1617.50 274.00" xmlns="http://www.w3.org/2000/svg" xmlns:xlink="http://www.w3.org/1999/xlink">
<g id="graph0" class="graph" transform="scale(1 1) rotate(0) translate(4 270)">
<title>src/gromacs/utility/gmxomp.cpp</title>
<polygon fill="white" stroke="none" points="-4,4 -4,-270 1613.5,-270 1613.5,4 -4,4"/>
<!-- Node1 -->
<g id="node1" class="node"><title>Node1</title>
<polygon fill="#bfbfbf" stroke="black" points="359,-235.5 359,-265.5 456,-265.5 456,-235.5 359,-235.5"/>
<text text-anchor="start" x="367" y="-253.5" font-family="Helvetica,sans-Serif" font-size="10.00">src/gromacs/utility</text>
<text text-anchor="middle" x="407.5" y="-242.5" font-family="Helvetica,sans-Serif" font-size="10.00">/gmxomp.cpp</text>
</g>
<!-- Node2 -->
<g id="node2" class="node"><title>Node2</title>
<g id="a_node2"><a xlink:href="gmxpre_8h.xhtml" target="_top" xlink:title="Prerequisite header file for GROMACS build. ">
<polygon fill="white" stroke="black" points="0,-179.5 0,-198.5 57,-198.5 57,-179.5 0,-179.5"/>
<text text-anchor="middle" x="28.5" y="-186.5" font-family="Helvetica,sans-Serif" font-size="10.00">gmxpre.h</text>
</a>
</g>
</g>
<!-- Node1&#45;&gt;Node2 -->
<g id="edge1" class="edge"><title>Node1&#45;&gt;Node2</title>
<path fill="none" stroke="midnightblue" d="M358.949,-243.09C293.493,-234.246 173.394,-217.305 71.5,-199 70.0455,-198.739 68.5649,-198.465 67.0705,-198.183"/>
<polygon fill="midnightblue" stroke="midnightblue" points="67.6239,-194.725 57.1367,-196.232 66.2742,-201.594 67.6239,-194.725"/>
</g>
<!-- Node3 -->
<g id="node3" class="node"><title>Node3</title>
<g id="a_node3"><a xlink:href="gmxomp_8h.xhtml" target="_top" xlink:title="Declares OpenMP wrappers to avoid conditional compilation. ">
<polygon fill="white" stroke="black" points="113.5,-179.5 113.5,-198.5 175.5,-198.5 175.5,-179.5 113.5,-179.5"/>
<text text-anchor="middle" x="144.5" y="-186.5" font-family="Helvetica,sans-Serif" font-size="10.00">gmxomp.h</text>
</a>
</g>
</g>
<!-- Node1&#45;&gt;Node3 -->
<g id="edge2" class="edge"><title>Node1&#45;&gt;Node3</title>
<path fill="none" stroke="midnightblue" d="M358.955,-238.517C309.176,-227.256 232.59,-209.929 185.678,-199.316"/>
<polygon fill="midnightblue" stroke="midnightblue" points="186.379,-195.886 175.853,-197.093 184.834,-202.714 186.379,-195.886"/>
</g>
<!-- Node4 -->
<g id="node4" class="node"><title>Node4</title>
<polygon fill="white" stroke="#bfbfbf" points="62,-123.5 62,-142.5 113,-142.5 113,-123.5 62,-123.5"/>
<text text-anchor="middle" x="87.5" y="-130.5" font-family="Helvetica,sans-Serif" font-size="10.00">config.h</text>
</g>
<!-- Node1&#45;&gt;Node4 -->
<g id="edge8" class="edge"><title>Node1&#45;&gt;Node4</title>
<path fill="none" stroke="midnightblue" d="M358.914,-247.678C282.942,-243.824 140.926,-232.265 104.5,-199 91.7337,-187.342 88.0515,-167.394 87.214,-152.664"/>
<polygon fill="midnightblue" stroke="midnightblue" points="90.713,-152.572 87.0246,-142.64 83.7142,-152.705 90.713,-152.572"/>
</g>
<!-- Node5 -->
<g id="node5" class="node"><title>Node5</title>
<polygon fill="white" stroke="#bfbfbf" points="321.5,-123.5 321.5,-142.5 367.5,-142.5 367.5,-123.5 321.5,-123.5"/>
<text text-anchor="middle" x="344.5" y="-130.5" font-family="Helvetica,sans-Serif" font-size="10.00">stdio.h</text>
</g>
<!-- Node1&#45;&gt;Node5 -->
<g id="edge9" class="edge"><title>Node1&#45;&gt;Node5</title>
<path fill="none" stroke="midnightblue" d="M397.392,-235.263C390.543,-225.332 381.5,-211.645 374.5,-199 365.95,-183.556 357.653,-165.241 351.96,-151.995"/>
<polygon fill="midnightblue" stroke="midnightblue" points="355.111,-150.461 347.997,-142.61 348.663,-153.184 355.111,-150.461"/>
</g>
<!-- Node6 -->
<g id="node6" class="node"><title>Node6</title>
<g id="a_node6"><a xlink:href="basedefinitions_8h.xhtml" target="_top" xlink:title="Basic types and macros used throughout GROMACS. ">
<polygon fill="white" stroke="black" points="455,-62 455,-81 612,-81 612,-62 455,-62"/>
<text text-anchor="middle" x="533.5" y="-69" font-family="Helvetica,sans-Serif" font-size="10.00">gromacs/utility/basedefinitions.h</text>
</a>
</g>
</g>
<!-- Node1&#45;&gt;Node6 -->
<g id="edge11" class="edge"><title>Node1&#45;&gt;Node6</title>
<path fill="none" stroke="midnightblue" d="M456.326,-242.587C504.284,-234.679 572.521,-220.047 588.5,-199 593.875,-191.92 590.599,-187.638 588.5,-179 586.225,-169.635 558.442,-118.056 543.259,-90.261"/>
<polygon fill="midnightblue" stroke="midnightblue" points="546.18,-88.3082 538.306,-81.2194 540.041,-91.6712 546.18,-88.3082"/>
</g>
<!-- Node9 -->
<g id="node9" class="node"><title>Node9</title>
<polygon fill="white" stroke="#bfbfbf" points="383.5,-179.5 383.5,-198.5 431.5,-198.5 431.5,-179.5 383.5,-179.5"/>
<text text-anchor="middle" x="407.5" y="-186.5" font-family="Helvetica,sans-Serif" font-size="10.00">stdlib.h</text>
</g>
<!-- Node1&#45;&gt;Node9 -->
<g id="edge10" class="edge"><title>Node1&#45;&gt;Node9</title>
<path fill="none" stroke="midnightblue" d="M407.5,-235.399C407.5,-227.466 407.5,-217.458 407.5,-208.858"/>
<polygon fill="midnightblue" stroke="midnightblue" points="411,-208.658 407.5,-198.658 404,-208.658 411,-208.658"/>
</g>
<!-- Node10 -->
<g id="node10" class="node"><title>Node10</title>
<g id="a_node10"><a xlink:href="cstringutil_8h.xhtml" target="_top" xlink:title="Generic C string handling functions. ">
<polygon fill="white" stroke="black" points="193.5,-179.5 193.5,-198.5 327.5,-198.5 327.5,-179.5 193.5,-179.5"/>
<text text-anchor="middle" x="260.5" y="-186.5" font-family="Helvetica,sans-Serif" font-size="10.00">gromacs/utility/cstringutil.h</text>
</a>
</g>
</g>
<!-- Node1&#45;&gt;Node10 -->
<g id="edge12" class="edge"><title>Node1&#45;&gt;Node10</title>
<path fill="none" stroke="midnightblue" d="M372.663,-235.399C347.999,-225.416 315.215,-212.147 291.465,-202.534"/>
<polygon fill="midnightblue" stroke="midnightblue" points="292.472,-199.165 281.89,-198.658 289.846,-205.654 292.472,-199.165"/>
</g>
<!-- Node11 -->
<g id="node11" class="node"><title>Node11</title>
<g id="a_node11"><a xlink:href="exceptions_8h.xhtml" target="_top" xlink:title="Declares common exception classes and macros for fatal error handling. ">
<polygon fill="white" stroke="black" points="858,-179.5 858,-198.5 997,-198.5 997,-179.5 858,-179.5"/>
<text text-anchor="middle" x="927.5" y="-186.5" font-family="Helvetica,sans-Serif" font-size="10.00">gromacs/utility/exceptions.h</text>
</a>
</g>
</g>
<!-- Node1&#45;&gt;Node11 -->
<g id="edge15" class="edge"><title>Node1&#45;&gt;Node11</title>
<path fill="none" stroke="midnightblue" d="M456.42,-243.902C546.398,-233.607 738.896,-211.581 847.918,-199.106"/>
<polygon fill="midnightblue" stroke="midnightblue" points="848.341,-202.581 857.878,-197.966 847.545,-195.626 848.341,-202.581"/>
</g>
<!-- Node23 -->
<g id="node23" class="node"><title>Node23</title>
<g id="a_node23"><a xlink:href="fatalerror_8h.xhtml" target="_top" xlink:title="Declares fatal error handling and debugging routines for C code. ">
<polygon fill="white" stroke="black" points="449.5,-179.5 449.5,-198.5 579.5,-198.5 579.5,-179.5 449.5,-179.5"/>
<text text-anchor="middle" x="514.5" y="-186.5" font-family="Helvetica,sans-Serif" font-size="10.00">gromacs/utility/fatalerror.h</text>
</a>
</g>
</g>
<!-- Node1&#45;&gt;Node23 -->
<g id="edge31" class="edge"><title>Node1&#45;&gt;Node23</title>
<path fill="none" stroke="midnightblue" d="M432.858,-235.399C450.169,-225.773 472.976,-213.09 490.084,-203.577"/>
<polygon fill="midnightblue" stroke="midnightblue" points="491.892,-206.577 498.931,-198.658 488.49,-200.459 491.892,-206.577"/>
</g>
<!-- Node25 -->
<g id="node25" class="node"><title>Node25</title>
<g id="a_node25"><a xlink:href="programcontext_8h.xhtml" target="_top" xlink:title="Declares gmx::IProgramContext and related methods. ">
<polygon fill="white" stroke="black" points="1015,-179.5 1015,-198.5 1174,-198.5 1174,-179.5 1015,-179.5"/>
<text text-anchor="middle" x="1094.5" y="-186.5" font-family="Helvetica,sans-Serif" font-size="10.00">gromacs/utility/programcontext.h</text>
</a>
</g>
</g>
<!-- Node1&#45;&gt;Node25 -->
<g id="edge35" class="edge"><title>Node1&#45;&gt;Node25</title>
<path fill="none" stroke="midnightblue" d="M456.053,-245.702C556.456,-237.783 794.465,-218.68 1004.88,-199.138"/>
<polygon fill="midnightblue" stroke="midnightblue" points="1005.25,-202.619 1014.88,-198.207 1004.6,-195.649 1005.25,-202.619"/>
</g>
<!-- Node26 -->
<g id="node26" class="node"><title>Node26</title>
<g id="a_node26"><a xlink:href="stringutil_8h.xhtml" target="_top" xlink:title="Declares common string utility and formatting routines. ">
<polygon fill="white" stroke="black" points="1391.5,-179.5 1391.5,-198.5 1519.5,-198.5 1519.5,-179.5 1391.5,-179.5"/>
<text text-anchor="middle" x="1455.5" y="-186.5" font-family="Helvetica,sans-Serif" font-size="10.00">gromacs/utility/stringutil.h</text>
</a>
</g>
</g>
<!-- Node1&#45;&gt;Node26 -->
<g id="edge36" class="edge"><title>Node1&#45;&gt;Node26</title>
<path fill="none" stroke="midnightblue" d="M456.293,-246.73C624.205,-237.197 1178.93,-205.702 1381.02,-194.229"/>
<polygon fill="midnightblue" stroke="midnightblue" points="1381.45,-197.71 1391.24,-193.648 1381.06,-190.721 1381.45,-197.71"/>
</g>
<!-- Node3&#45;&gt;Node4 -->
<g id="edge3" class="edge"><title>Node3&#45;&gt;Node4</title>
<path fill="none" stroke="midnightblue" d="M135.342,-179.324C126.999,-171.42 114.468,-159.548 104.323,-149.938"/>
<polygon fill="midnightblue" stroke="midnightblue" points="106.491,-147.171 96.8247,-142.834 101.677,-152.252 106.491,-147.171"/>
</g>
<!-- Node3&#45;&gt;Node5 -->
<g id="edge4" class="edge"><title>Node3&#45;&gt;Node5</title>
<path fill="none" stroke="midnightblue" d="M175.75,-179.562C212.605,-169.612 273.607,-153.141 311.293,-142.966"/>
<polygon fill="midnightblue" stroke="midnightblue" points="312.522,-146.259 321.264,-140.274 310.697,-139.501 312.522,-146.259"/>
</g>
<!-- Node3&#45;&gt;Node6 -->
<g id="edge5" class="edge"><title>Node3&#45;&gt;Node6</title>
<path fill="none" stroke="midnightblue" d="M160.206,-179.365C185.894,-165.578 238.817,-138.563 286.5,-123 344.404,-104.102 412.344,-90.8266 462.298,-82.6459"/>
<polygon fill="midnightblue" stroke="midnightblue" points="463.04,-86.0715 472.357,-81.0274 461.928,-79.1604 463.04,-86.0715"/>
</g>
<!-- Node7 -->
<g id="node7" class="node"><title>Node7</title>
<polygon fill="white" stroke="#bfbfbf" points="473,-0.5 473,-19.5 522,-19.5 522,-0.5 473,-0.5"/>
<text text-anchor="middle" x="497.5" y="-7.5" font-family="Helvetica,sans-Serif" font-size="10.00">stdint.h</text>
</g>
<!-- Node6&#45;&gt;Node7 -->
<g id="edge6" class="edge"><title>Node6&#45;&gt;Node7</title>
<path fill="none" stroke="midnightblue" d="M528.342,-61.9751C523.049,-53.2268 514.665,-39.3691 507.973,-28.3093"/>
<polygon fill="midnightblue" stroke="midnightblue" points="510.82,-26.2531 502.648,-19.5091 504.83,-29.8768 510.82,-26.2531"/>
</g>
<!-- Node8 -->
<g id="node8" class="node"><title>Node8</title>
<polygon fill="white" stroke="#bfbfbf" points="540,-0.5 540,-19.5 599,-19.5 599,-0.5 540,-0.5"/>
<text text-anchor="middle" x="569.5" y="-7.5" font-family="Helvetica,sans-Serif" font-size="10.00">inttypes.h</text>
</g>
<!-- Node6&#45;&gt;Node8 -->
<g id="edge7" class="edge"><title>Node6&#45;&gt;Node8</title>
<path fill="none" stroke="midnightblue" d="M538.658,-61.9751C543.951,-53.2268 552.335,-39.3691 559.027,-28.3093"/>
<polygon fill="midnightblue" stroke="midnightblue" points="562.17,-29.8768 564.352,-19.5091 556.18,-26.2531 562.17,-29.8768"/>
</g>
<!-- Node10&#45;&gt;Node5 -->
<g id="edge13" class="edge"><title>Node10&#45;&gt;Node5</title>
<path fill="none" stroke="midnightblue" d="M273.996,-179.324C287.1,-170.9 307.212,-157.971 322.607,-148.074"/>
<polygon fill="midnightblue" stroke="midnightblue" points="324.518,-151.006 331.037,-142.655 320.733,-145.118 324.518,-151.006"/>
</g>
<!-- Node10&#45;&gt;Node6 -->
<g id="edge14" class="edge"><title>Node10&#45;&gt;Node6</title>
<path fill="none" stroke="midnightblue" d="M264.93,-179.282C272.598,-165.126 289.731,-137.286 312.5,-123 351.928,-98.261 402.094,-85.6019 444.662,-79.1412"/>
<polygon fill="midnightblue" stroke="midnightblue" points="445.337,-82.5804 454.743,-77.7039 444.349,-75.6504 445.337,-82.5804"/>
</g>
<!-- Node11&#45;&gt;Node6 -->
<g id="edge24" class="edge"><title>Node11&#45;&gt;Node6</title>
<path fill="none" stroke="midnightblue" d="M882.272,-179.436C845.988,-171.872 794.098,-159.48 750.5,-143 732.279,-136.112 729.625,-130.138 711.5,-123 668.608,-106.109 617.868,-92.2861 581.559,-83.3993"/>
<polygon fill="midnightblue" stroke="midnightblue" points="582.26,-79.9682 571.718,-81.0252 580.619,-86.773 582.26,-79.9682"/>
</g>
<!-- Node12 -->
<g id="node12" class="node"><title>Node12</title>
<polygon fill="white" stroke="#bfbfbf" points="1313,-123.5 1313,-142.5 1356,-142.5 1356,-123.5 1313,-123.5"/>
<text text-anchor="middle" x="1334.5" y="-130.5" font-family="Helvetica,sans-Serif" font-size="10.00">cstdio</text>
</g>
<!-- Node11&#45;&gt;Node12 -->
<g id="edge16" class="edge"><title>Node11&#45;&gt;Node12</title>
<path fill="none" stroke="midnightblue" d="M997.334,-179.941C1092.75,-168.89 1256.53,-149.768 1302.95,-142.502"/>
<polygon fill="midnightblue" stroke="midnightblue" points="1303.69,-145.926 1312.93,-140.75 1302.48,-139.031 1303.69,-145.926"/>
</g>
<!-- Node13 -->
<g id="node13" class="node"><title>Node13</title>
<polygon fill="white" stroke="#bfbfbf" points="581,-123.5 581,-142.5 626,-142.5 626,-123.5 581,-123.5"/>
<text text-anchor="middle" x="603.5" y="-130.5" font-family="Helvetica,sans-Serif" font-size="10.00">cstdlib</text>
</g>
<!-- Node11&#45;&gt;Node13 -->
<g id="edge17" class="edge"><title>Node11&#45;&gt;Node13</title>
<path fill="none" stroke="midnightblue" d="M857.764,-179.886C800.431,-172.622 716.959,-160.69 635.963,-143.103"/>
<polygon fill="midnightblue" stroke="midnightblue" points="636.618,-139.663 626.099,-140.93 635.112,-146.499 636.618,-139.663"/>
</g>
<!-- Node14 -->
<g id="node14" class="node"><title>Node14</title>
<polygon fill="white" stroke="#bfbfbf" points="644,-123.5 644,-142.5 703,-142.5 703,-123.5 644,-123.5"/>
<text text-anchor="middle" x="673.5" y="-130.5" font-family="Helvetica,sans-Serif" font-size="10.00">exception</text>
</g>
<!-- Node11&#45;&gt;Node14 -->
<g id="edge18" class="edge"><title>Node11&#45;&gt;Node14</title>
<path fill="none" stroke="midnightblue" d="M887.253,-179.444C839.555,-169.303 760.584,-152.514 713.149,-142.429"/>
<polygon fill="midnightblue" stroke="midnightblue" points="713.751,-138.979 703.241,-140.323 712.295,-145.826 713.751,-138.979"/>
</g>
<!-- Node15 -->
<g id="node15" class="node"><title>Node15</title>
<polygon fill="white" stroke="#bfbfbf" points="1144.5,-62 1144.5,-81 1196.5,-81 1196.5,-62 1144.5,-62"/>
<text text-anchor="middle" x="1170.5" y="-69" font-family="Helvetica,sans-Serif" font-size="10.00">memory</text>
</g>
<!-- Node11&#45;&gt;Node15 -->
<g id="edge19" class="edge"><title>Node11&#45;&gt;Node15</title>
<path fill="none" stroke="midnightblue" d="M971.722,-179.477C1002.97,-172.38 1045.21,-160.569 1079.5,-143 1108.24,-128.277 1136.95,-104.058 1154.22,-88.1927"/>
<polygon fill="midnightblue" stroke="midnightblue" points="1156.82,-90.5461 1161.73,-81.1537 1152.04,-85.4388 1156.82,-90.5461"/>
</g>
<!-- Node16 -->
<g id="node16" class="node"><title>Node16</title>
<polygon fill="white" stroke="#bfbfbf" points="1374,-123.5 1374,-142.5 1415,-142.5 1415,-123.5 1374,-123.5"/>
<text text-anchor="middle" x="1394.5" y="-130.5" font-family="Helvetica,sans-Serif" font-size="10.00">string</text>
</g>
<!-- Node11&#45;&gt;Node16 -->
<g id="edge20" class="edge"><title>Node11&#45;&gt;Node16</title>
<path fill="none" stroke="midnightblue" d="M997.281,-179.999C1000.4,-179.658 1003.48,-179.323 1006.5,-179 1162.67,-162.274 1206.57,-174.405 1363.7,-143.026"/>
<polygon fill="midnightblue" stroke="midnightblue" points="1364.61,-146.412 1373.72,-140.997 1363.23,-139.551 1364.61,-146.412"/>
</g>
<!-- Node17 -->
<g id="node17" class="node"><title>Node17</title>
<polygon fill="white" stroke="#bfbfbf" points="759.5,-123.5 759.5,-142.5 821.5,-142.5 821.5,-123.5 759.5,-123.5"/>
<text text-anchor="middle" x="790.5" y="-130.5" font-family="Helvetica,sans-Serif" font-size="10.00">type_traits</text>
</g>
<!-- Node11&#45;&gt;Node17 -->
<g id="edge21" class="edge"><title>Node11&#45;&gt;Node17</title>
<path fill="none" stroke="midnightblue" d="M905.792,-179.444C883.145,-170.517 847.428,-156.439 821.748,-146.317"/>
<polygon fill="midnightblue" stroke="midnightblue" points="822.693,-142.927 812.106,-142.516 820.126,-149.44 822.693,-142.927"/>
</g>
<!-- Node18 -->
<g id="node18" class="node"><title>Node18</title>
<polygon fill="white" stroke="#bfbfbf" points="840,-123.5 840,-142.5 899,-142.5 899,-123.5 840,-123.5"/>
<text text-anchor="middle" x="869.5" y="-130.5" font-family="Helvetica,sans-Serif" font-size="10.00">typeindex</text>
</g>
<!-- Node11&#45;&gt;Node18 -->
<g id="edge22" class="edge"><title>Node11&#45;&gt;Node18</title>
<path fill="none" stroke="midnightblue" d="M918.181,-179.324C909.607,-171.341 896.688,-159.313 886.312,-149.653"/>
<polygon fill="midnightblue" stroke="midnightblue" points="888.692,-147.086 878.988,-142.834 883.922,-152.21 888.692,-147.086"/>
</g>
<!-- Node19 -->
<g id="node19" class="node"><title>Node19</title>
<polygon fill="white" stroke="#bfbfbf" points="1433.5,-123.5 1433.5,-142.5 1477.5,-142.5 1477.5,-123.5 1433.5,-123.5"/>
<text text-anchor="middle" x="1455.5" y="-130.5" font-family="Helvetica,sans-Serif" font-size="10.00">vector</text>
</g>
<!-- Node11&#45;&gt;Node19 -->
<g id="edge23" class="edge"><title>Node11&#45;&gt;Node19</title>
<path fill="none" stroke="midnightblue" d="M997.276,-179.945C1000.39,-179.619 1003.48,-179.302 1006.5,-179 1188.78,-160.771 1239.42,-176.583 1423.28,-142.877"/>
<polygon fill="midnightblue" stroke="midnightblue" points="1424.08,-146.287 1433.28,-141.02 1422.8,-139.405 1424.08,-146.287"/>
</g>
<!-- Node20 -->
<g id="node20" class="node"><title>Node20</title>
<g id="a_node20"><a xlink:href="classhelpers_8h.xhtml" target="_top" xlink:title="Declares common utility classes and macros. ">
<polygon fill="white" stroke="black" points="1148.5,-123.5 1148.5,-142.5 1294.5,-142.5 1294.5,-123.5 1148.5,-123.5"/>
<text text-anchor="middle" x="1221.5" y="-130.5" font-family="Helvetica,sans-Serif" font-size="10.00">gromacs/utility/classhelpers.h</text>
</a>
</g>
</g>
<!-- Node11&#45;&gt;Node20 -->
<g id="edge25" class="edge"><title>Node11&#45;&gt;Node20</title>
<path fill="none" stroke="midnightblue" d="M974.085,-179.444C1025.91,-169.925 1109.63,-154.547 1165.12,-144.356"/>
<polygon fill="midnightblue" stroke="midnightblue" points="1165.93,-147.765 1175.13,-142.516 1164.66,-140.881 1165.93,-147.765"/>
</g>
<!-- Node21 -->
<g id="node21" class="node"><title>Node21</title>
<g id="a_node21"><a xlink:href="current__function_8h.xhtml" target="_top" xlink:title="Declares GMX_CURRENT_FUNCTION for getting the current function name. ">
<polygon fill="white" stroke="black" points="971,-56.5 971,-86.5 1084,-86.5 1084,-56.5 971,-56.5"/>
<text text-anchor="start" x="979" y="-74.5" font-family="Helvetica,sans-Serif" font-size="10.00">gromacs/utility/current</text>
<text text-anchor="middle" x="1027.5" y="-63.5" font-family="Helvetica,sans-Serif" font-size="10.00">_function.h</text>
</a>
</g>
</g>
<!-- Node11&#45;&gt;Node21 -->
<g id="edge27" class="edge"><title>Node11&#45;&gt;Node21</title>
<path fill="none" stroke="midnightblue" d="M970.421,-179.498C1005.96,-171.484 1052.36,-158.422 1063.5,-143 1074.5,-127.773 1063.49,-108.708 1050.84,-94.2442"/>
<polygon fill="midnightblue" stroke="midnightblue" points="1053.17,-91.6178 1043.77,-86.7358 1048.08,-96.4161 1053.17,-91.6178"/>
</g>
<!-- Node22 -->
<g id="node22" class="node"><title>Node22</title>
<g id="a_node22"><a xlink:href="gmxassert_8h.xhtml" target="_top" xlink:title="Defines assert macros customized for Gromacs. ">
<polygon fill="white" stroke="black" points="917,-123.5 917,-142.5 1054,-142.5 1054,-123.5 917,-123.5"/>
<text text-anchor="middle" x="985.5" y="-130.5" font-family="Helvetica,sans-Serif" font-size="10.00">gromacs/utility/gmxassert.h</text>
</a>
</g>
</g>
<!-- Node11&#45;&gt;Node22 -->
<g id="edge28" class="edge"><title>Node11&#45;&gt;Node22</title>
<path fill="none" stroke="midnightblue" d="M936.819,-179.324C945.393,-171.341 958.312,-159.313 968.688,-149.653"/>
<polygon fill="midnightblue" stroke="midnightblue" points="971.078,-152.21 976.012,-142.834 966.308,-147.086 971.078,-152.21"/>
</g>
<!-- Node20&#45;&gt;Node15 -->
<g id="edge26" class="edge"><title>Node20&#45;&gt;Node15</title>
<path fill="none" stroke="midnightblue" d="M1214.19,-123.475C1206.47,-114.462 1194.09,-100.025 1184.48,-88.8118"/>
<polygon fill="midnightblue" stroke="midnightblue" points="1186.96,-86.3239 1177.79,-81.0091 1181.64,-90.8795 1186.96,-86.3239"/>
</g>
<!-- Node22&#45;&gt;Node6 -->
<g id="edge29" class="edge"><title>Node22&#45;&gt;Node6</title>
<path fill="none" stroke="midnightblue" d="M920.739,-123.475C838.087,-112.595 695.398,-93.8118 608.227,-82.3368"/>
<polygon fill="midnightblue" stroke="midnightblue" points="608.512,-78.8442 598.14,-81.0091 607.598,-85.7843 608.512,-78.8442"/>
</g>
<!-- Node22&#45;&gt;Node21 -->
<g id="edge30" class="edge"><title>Node22&#45;&gt;Node21</title>
<path fill="none" stroke="midnightblue" d="M991.518,-123.475C996.781,-116.019 1004.66,-104.852 1011.71,-94.8685"/>
<polygon fill="midnightblue" stroke="midnightblue" points="1014.69,-96.7111 1017.6,-86.523 1008.98,-92.6743 1014.69,-96.7111"/>
</g>
<!-- Node23&#45;&gt;Node5 -->
<g id="edge33" class="edge"><title>Node23&#45;&gt;Node5</title>
<path fill="none" stroke="midnightblue" d="M487.563,-179.444C457.741,-169.971 409.654,-154.696 377.571,-144.505"/>
<polygon fill="midnightblue" stroke="midnightblue" points="378.35,-141.08 367.76,-141.388 376.231,-147.752 378.35,-141.08"/>
</g>
<!-- Node23&#45;&gt;Node6 -->
<g id="edge34" class="edge"><title>Node23&#45;&gt;Node6</title>
<path fill="none" stroke="midnightblue" d="M515.928,-179.319C518.982,-160.757 526.206,-116.839 530.379,-91.4734"/>
<polygon fill="midnightblue" stroke="midnightblue" points="533.886,-91.7175 532.055,-81.282 526.978,-90.5812 533.886,-91.7175"/>
</g>
<!-- Node24 -->
<g id="node24" class="node"><title>Node24</title>
<polygon fill="white" stroke="#bfbfbf" points="434.5,-123.5 434.5,-142.5 486.5,-142.5 486.5,-123.5 434.5,-123.5"/>
<text text-anchor="middle" x="460.5" y="-130.5" font-family="Helvetica,sans-Serif" font-size="10.00">stdarg.h</text>
</g>
<!-- Node23&#45;&gt;Node24 -->
<g id="edge32" class="edge"><title>Node23&#45;&gt;Node24</title>
<path fill="none" stroke="midnightblue" d="M505.583,-179.083C497.72,-171.22 486.069,-159.569 476.581,-150.081"/>
<polygon fill="midnightblue" stroke="midnightblue" points="478.797,-147.347 469.251,-142.751 473.847,-152.297 478.797,-147.347"/>
</g>
<!-- Node26&#45;&gt;Node16 -->
<g id="edge39" class="edge"><title>Node26&#45;&gt;Node16</title>
<path fill="none" stroke="midnightblue" d="M1445.7,-179.324C1436.68,-171.341 1423.09,-159.313 1412.18,-149.653"/>
<polygon fill="midnightblue" stroke="midnightblue" points="1414.29,-146.842 1404.48,-142.834 1409.65,-152.083 1414.29,-146.842"/>
</g>
<!-- Node26&#45;&gt;Node19 -->
<g id="edge40" class="edge"><title>Node26&#45;&gt;Node19</title>
<path fill="none" stroke="midnightblue" d="M1455.5,-179.083C1455.5,-172.006 1455.5,-161.861 1455.5,-152.986"/>
<polygon fill="midnightblue" stroke="midnightblue" points="1459,-152.751 1455.5,-142.751 1452,-152.751 1459,-152.751"/>
</g>
<!-- Node27 -->
<g id="node27" class="node"><title>Node27</title>
<polygon fill="white" stroke="#bfbfbf" points="1496,-123.5 1496,-142.5 1545,-142.5 1545,-123.5 1496,-123.5"/>
<text text-anchor="middle" x="1520.5" y="-130.5" font-family="Helvetica,sans-Serif" font-size="10.00">cstdarg</text>
</g>
<!-- Node26&#45;&gt;Node27 -->
<g id="edge37" class="edge"><title>Node26&#45;&gt;Node27</title>
<path fill="none" stroke="midnightblue" d="M1465.94,-179.324C1475.65,-171.263 1490.32,-159.077 1502,-149.369"/>
<polygon fill="midnightblue" stroke="midnightblue" points="1504.41,-151.916 1509.87,-142.834 1499.94,-146.532 1504.41,-151.916"/>
</g>
<!-- Node28 -->
<g id="node28" class="node"><title>Node28</title>
<polygon fill="white" stroke="#bfbfbf" points="1563.5,-123.5 1563.5,-142.5 1609.5,-142.5 1609.5,-123.5 1563.5,-123.5"/>
<text text-anchor="middle" x="1586.5" y="-130.5" font-family="Helvetica,sans-Serif" font-size="10.00">cstring</text>
</g>
<!-- Node26&#45;&gt;Node28 -->
<g id="edge38" class="edge"><title>Node26&#45;&gt;Node28</title>
<path fill="none" stroke="midnightblue" d="M1476.26,-179.444C1497.82,-170.557 1531.76,-156.563 1556.29,-146.451"/>
<polygon fill="midnightblue" stroke="midnightblue" points="1557.93,-149.563 1565.84,-142.516 1555.26,-143.092 1557.93,-149.563"/>
</g>
</g>
</svg>
