<?xml version="1.0" encoding="UTF-8" standalone="no"?>
<!DOCTYPE svg PUBLIC "-//W3C//DTD SVG 1.1//EN"
 "http://www.w3.org/Graphics/SVG/1.1/DTD/svg11.dtd">
<!-- Generated by graphviz version 2.38.0 (20140413.2041)
 -->
<!-- Title: src/gromacs/gpu_utils/gpu_utils.cpp Pages: 1 -->
<svg width="348pt" height="207pt"
 viewBox="0.00 0.00 348.00 207.00" xmlns="http://www.w3.org/2000/svg" xmlns:xlink="http://www.w3.org/1999/xlink">
<g id="graph0" class="graph" transform="scale(1 1) rotate(0) translate(4 203)">
<title>src/gromacs/gpu_utils/gpu_utils.cpp</title>
<polygon fill="white" stroke="none" points="-4,4 -4,-203 344,-203 344,4 -4,4"/>
<!-- Node1 -->
<g id="node1" class="node"><title>Node1</title>
<polygon fill="#bfbfbf" stroke="black" points="16,-168.5 16,-198.5 129,-198.5 129,-168.5 16,-168.5"/>
<text text-anchor="start" x="24" y="-186.5" font-family="Helvetica,sans-Serif" font-size="10.00">src/gromacs/gpu_utils</text>
<text text-anchor="middle" x="72.5" y="-175.5" font-family="Helvetica,sans-Serif" font-size="10.00">/gpu_utils.cpp</text>
</g>
<!-- Node2 -->
<g id="node2" class="node"><title>Node2</title>
<g id="a_node2"><a xlink:href="gmxpre_8h.xhtml" target="_top" xlink:title="Prerequisite header file for GROMACS build. ">
<polygon fill="white" stroke="black" points="5,-112.5 5,-131.5 62,-131.5 62,-112.5 5,-112.5"/>
<text text-anchor="middle" x="33.5" y="-119.5" font-family="Helvetica,sans-Serif" font-size="10.00">gmxpre.h</text>
</a>
</g>
</g>
<!-- Node1&#45;&gt;Node2 -->
<g id="edge1" class="edge"><title>Node1&#45;&gt;Node2</title>
<path fill="none" stroke="midnightblue" d="M63.2575,-168.399C57.7072,-159.932 50.607,-149.099 44.7342,-140.139"/>
<polygon fill="midnightblue" stroke="midnightblue" points="47.5841,-138.103 39.1748,-131.658 41.7296,-141.94 47.5841,-138.103"/>
</g>
<!-- Node3 -->
<g id="node3" class="node"><title>Node3</title>
<g id="a_node3"><a xlink:href="gpu__utils_8h.xhtml" target="_top" xlink:title="Declare functions for detection and initialization for GPU devices. ">
<polygon fill="white" stroke="black" points="80.5,-112.5 80.5,-131.5 144.5,-131.5 144.5,-112.5 80.5,-112.5"/>
<text text-anchor="middle" x="112.5" y="-119.5" font-family="Helvetica,sans-Serif" font-size="10.00">gpu_utils.h</text>
</a>
</g>
</g>
<!-- Node1&#45;&gt;Node3 -->
<g id="edge2" class="edge"><title>Node1&#45;&gt;Node3</title>
<path fill="none" stroke="midnightblue" d="M81.9794,-168.399C87.6721,-159.932 94.9544,-149.099 100.978,-140.139"/>
<polygon fill="midnightblue" stroke="midnightblue" points="104.005,-141.909 106.68,-131.658 98.1958,-138.004 104.005,-141.909"/>
</g>
<!-- Node4 -->
<g id="node4" class="node"><title>Node4</title>
<polygon fill="white" stroke="#bfbfbf" points="0,-56.5 0,-75.5 43,-75.5 43,-56.5 0,-56.5"/>
<text text-anchor="middle" x="21.5" y="-63.5" font-family="Helvetica,sans-Serif" font-size="10.00">cstdio</text>
</g>
<!-- Node3&#45;&gt;Node4 -->
<g id="edge3" class="edge"><title>Node3&#45;&gt;Node4</title>
<path fill="none" stroke="midnightblue" d="M97.8793,-112.324C83.5511,-103.822 61.4875,-90.7288 44.7513,-80.7975"/>
<polygon fill="midnightblue" stroke="midnightblue" points="46.4704,-77.7478 36.0844,-75.6545 42.8982,-83.7677 46.4704,-77.7478"/>
</g>
<!-- Node5 -->
<g id="node5" class="node"><title>Node5</title>
<polygon fill="white" stroke="#bfbfbf" points="61,-56.5 61,-75.5 102,-75.5 102,-56.5 61,-56.5"/>
<text text-anchor="middle" x="81.5" y="-63.5" font-family="Helvetica,sans-Serif" font-size="10.00">string</text>
</g>
<!-- Node3&#45;&gt;Node5 -->
<g id="edge4" class="edge"><title>Node3&#45;&gt;Node5</title>
<path fill="none" stroke="midnightblue" d="M107.381,-112.083C103.092,-104.613 96.8418,-93.7244 91.5577,-84.5199"/>
<polygon fill="midnightblue" stroke="midnightblue" points="94.5379,-82.6811 86.5238,-75.7511 88.4671,-86.1662 94.5379,-82.6811"/>
</g>
<!-- Node6 -->
<g id="node6" class="node"><title>Node6</title>
<polygon fill="white" stroke="#bfbfbf" points="120.5,-56.5 120.5,-75.5 164.5,-75.5 164.5,-56.5 120.5,-56.5"/>
<text text-anchor="middle" x="142.5" y="-63.5" font-family="Helvetica,sans-Serif" font-size="10.00">vector</text>
</g>
<!-- Node3&#45;&gt;Node6 -->
<g id="edge5" class="edge"><title>Node3&#45;&gt;Node6</title>
<path fill="none" stroke="midnightblue" d="M117.454,-112.083C121.604,-104.613 127.653,-93.7244 132.767,-84.5199"/>
<polygon fill="midnightblue" stroke="midnightblue" points="135.841,-86.1924 137.638,-75.7511 129.722,-82.7929 135.841,-86.1924"/>
</g>
<!-- Node7 -->
<g id="node7" class="node"><title>Node7</title>
<g id="a_node7"><a xlink:href="basedefinitions_8h.xhtml" target="_top" xlink:title="Basic types and macros used throughout GROMACS. ">
<polygon fill="white" stroke="black" points="183,-56.5 183,-75.5 340,-75.5 340,-56.5 183,-56.5"/>
<text text-anchor="middle" x="261.5" y="-63.5" font-family="Helvetica,sans-Serif" font-size="10.00">gromacs/utility/basedefinitions.h</text>
</a>
</g>
</g>
<!-- Node3&#45;&gt;Node7 -->
<g id="edge6" class="edge"><title>Node3&#45;&gt;Node7</title>
<path fill="none" stroke="midnightblue" d="M136.109,-112.444C160.958,-103.438 200.274,-89.1891 228.254,-79.049"/>
<polygon fill="midnightblue" stroke="midnightblue" points="229.792,-82.2144 238.001,-75.5164 227.407,-75.6332 229.792,-82.2144"/>
</g>
<!-- Node8 -->
<g id="node8" class="node"><title>Node8</title>
<polygon fill="white" stroke="#bfbfbf" points="201,-0.5 201,-19.5 250,-19.5 250,-0.5 201,-0.5"/>
<text text-anchor="middle" x="225.5" y="-7.5" font-family="Helvetica,sans-Serif" font-size="10.00">stdint.h</text>
</g>
<!-- Node7&#45;&gt;Node8 -->
<g id="edge7" class="edge"><title>Node7&#45;&gt;Node8</title>
<path fill="none" stroke="midnightblue" d="M255.555,-56.083C250.523,-48.5341 243.163,-37.4948 236.987,-28.2298"/>
<polygon fill="midnightblue" stroke="midnightblue" points="239.793,-26.1301 231.334,-19.7511 233.969,-30.0131 239.793,-26.1301"/>
</g>
<!-- Node9 -->
<g id="node9" class="node"><title>Node9</title>
<polygon fill="white" stroke="#bfbfbf" points="268,-0.5 268,-19.5 327,-19.5 327,-0.5 268,-0.5"/>
<text text-anchor="middle" x="297.5" y="-7.5" font-family="Helvetica,sans-Serif" font-size="10.00">inttypes.h</text>
</g>
<!-- Node7&#45;&gt;Node9 -->
<g id="edge8" class="edge"><title>Node7&#45;&gt;Node9</title>
<path fill="none" stroke="midnightblue" d="M267.445,-56.083C272.477,-48.5341 279.837,-37.4948 286.013,-28.2298"/>
<polygon fill="midnightblue" stroke="midnightblue" points="289.031,-30.0131 291.666,-19.7511 283.207,-26.1301 289.031,-30.0131"/>
</g>
</g>
</svg>
