<?xml version="1.0" encoding="UTF-8" standalone="no"?>
<!DOCTYPE svg PUBLIC "-//W3C//DTD SVG 1.1//EN"
 "http://www.w3.org/Graphics/SVG/1.1/DTD/svg11.dtd">
<!-- Generated by graphviz version 2.38.0 (20140413.2041)
 -->
<!-- Title: src/gromacs/gpu_utils/tests/gputest.h Pages: 1 -->
<svg width="437pt" height="106pt"
 viewBox="0.00 0.00 437.00 106.00" xmlns="http://www.w3.org/2000/svg" xmlns:xlink="http://www.w3.org/1999/xlink">
<g id="graph0" class="graph" transform="scale(1 1) rotate(0) translate(4 102)">
<title>src/gromacs/gpu_utils/tests/gputest.h</title>
<polygon fill="white" stroke="none" points="-4,4 -4,-102 433,-102 433,4 -4,4"/>
<!-- Node1 -->
<g id="node1" class="node"><title>Node1</title>
<polygon fill="#bfbfbf" stroke="black" points="134,-67.5 134,-97.5 247,-97.5 247,-67.5 134,-67.5"/>
<text text-anchor="start" x="142" y="-85.5" font-family="Helvetica,sans-Serif" font-size="10.00">src/gromacs/gpu_utils</text>
<text text-anchor="middle" x="190.5" y="-74.5" font-family="Helvetica,sans-Serif" font-size="10.00">/tests/gputest.h</text>
</g>
<!-- Node2 -->
<g id="node2" class="node"><title>Node2</title>
<g id="a_node2"><a xlink:href="gputest_8cpp.xhtml" target="_top" xlink:title="Tests utilities for GPU device allocation and free. ">
<polygon fill="white" stroke="black" points="0,-0.5 0,-30.5 113,-30.5 113,-0.5 0,-0.5"/>
<text text-anchor="start" x="8" y="-18.5" font-family="Helvetica,sans-Serif" font-size="10.00">src/gromacs/gpu_utils</text>
<text text-anchor="middle" x="56.5" y="-7.5" font-family="Helvetica,sans-Serif" font-size="10.00">/tests/gputest.cpp</text>
</a>
</g>
</g>
<!-- Node1&#45;&gt;Node2 -->
<g id="edge1" class="edge"><title>Node1&#45;&gt;Node2</title>
<path fill="none" stroke="midnightblue" d="M152.345,-62.9921C131.105,-52.6892 105.086,-40.0677 85.5193,-30.5765"/>
<polygon fill="midnightblue" stroke="midnightblue" points="150.899,-66.1806 161.424,-67.396 153.954,-59.8825 150.899,-66.1806"/>
</g>
<!-- Node3 -->
<g id="node3" class="node"><title>Node3</title>
<g id="a_node3"><a xlink:href="tests_2hostallocator_8cpp.xhtml" target="_top" xlink:title="Tests for GPU host allocator. ">
<polygon fill="white" stroke="black" points="131,-0.5 131,-30.5 250,-30.5 250,-0.5 131,-0.5"/>
<text text-anchor="start" x="139" y="-18.5" font-family="Helvetica,sans-Serif" font-size="10.00">src/gromacs/gpu_utils</text>
<text text-anchor="middle" x="190.5" y="-7.5" font-family="Helvetica,sans-Serif" font-size="10.00">/tests/hostallocator.cpp</text>
</a>
</g>
</g>
<!-- Node1&#45;&gt;Node3 -->
<g id="edge2" class="edge"><title>Node1&#45;&gt;Node3</title>
<path fill="none" stroke="midnightblue" d="M190.5,-57.1081C190.5,-48.1539 190.5,-38.3227 190.5,-30.5765"/>
<polygon fill="midnightblue" stroke="midnightblue" points="187,-57.3959 190.5,-67.396 194,-57.396 187,-57.3959"/>
</g>
<!-- Node4 -->
<g id="node4" class="node"><title>Node4</title>
<g id="a_node4"><a xlink:href="pinnedmemorychecker_8cpp.xhtml" target="_top" xlink:title="Tests for GPU memory status checker isHostMemoryPinned() being correct. ">
<polygon fill="white" stroke="black" points="268,-0.5 268,-30.5 429,-30.5 429,-0.5 268,-0.5"/>
<text text-anchor="start" x="276" y="-18.5" font-family="Helvetica,sans-Serif" font-size="10.00">src/gromacs/gpu_utils</text>
<text text-anchor="middle" x="348.5" y="-7.5" font-family="Helvetica,sans-Serif" font-size="10.00">/tests/pinnedmemorychecker.cpp</text>
</a>
</g>
</g>
<!-- Node1&#45;&gt;Node4 -->
<g id="edge3" class="edge"><title>Node1&#45;&gt;Node4</title>
<path fill="none" stroke="midnightblue" d="M234.146,-63.5442C259.429,-53.143 290.798,-40.238 314.283,-30.5765"/>
<polygon fill="midnightblue" stroke="midnightblue" points="232.7,-60.3546 224.784,-67.396 235.363,-66.8282 232.7,-60.3546"/>
</g>
</g>
</svg>
