<?xml version="1.0" encoding="UTF-8" standalone="no"?>
<!DOCTYPE svg PUBLIC "-//W3C//DTD SVG 1.1//EN"
 "http://www.w3.org/Graphics/SVG/1.1/DTD/svg11.dtd">
<!-- Generated by graphviz version 2.38.0 (20140413.2041)
 -->
<!-- Title: Library API Pages: 1 -->
<svg width="445pt" height="2538pt"
 viewBox="0.00 0.00 445.00 2537.73" xmlns="http://www.w3.org/2000/svg" xmlns:xlink="http://www.w3.org/1999/xlink">
<g id="graph0" class="graph" transform="scale(1 1) rotate(0) translate(4 2533.73)">
<title>Library API</title>
<polygon fill="white" stroke="none" points="-4,4 -4,-2533.73 441,-2533.73 441,4 -4,4"/>
<!-- Node9 -->
<g id="node1" class="node"><title>Node9</title>
<g id="a_node1"><a xlink:href="group__module__awh.xhtml" target="_top" xlink:title="Implements the &quot;accelerated weight histogram&quot; sampling method. ">
<polygon fill="white" stroke="black" points="283.5,-2474.73 283.5,-2504.73 414.5,-2504.73 414.5,-2474.73 283.5,-2474.73"/>
<text text-anchor="start" x="291.5" y="-2492.73" font-family="Helvetica,sans-Serif" font-size="10.00">Accelerated weight</text>
<text text-anchor="middle" x="349" y="-2481.73" font-family="Helvetica,sans-Serif" font-size="10.00"> histogram (AWH) method</text>
</a>
</g>
</g>
<!-- Node5 -->
<g id="node2" class="node"><title>Node5</title>
<g id="a_node2"><a xlink:href="group__module__options.xhtml" target="_top" xlink:title="Provides functionality for handling options. ">
<polygon fill="white" stroke="black" points="296.5,-2263.73 296.5,-2293.73 401.5,-2293.73 401.5,-2263.73 296.5,-2263.73"/>
<text text-anchor="start" x="304.5" y="-2281.73" font-family="Helvetica,sans-Serif" font-size="10.00">Extensible Handling</text>
<text text-anchor="middle" x="349" y="-2270.73" font-family="Helvetica,sans-Serif" font-size="10.00"> of Options (options)</text>
</a>
</g>
</g>
<!-- Node8 -->
<g id="node3" class="node"><title>Node8</title>
<g id="a_node3"><a xlink:href="group__module__testutils.xhtml" target="_top" xlink:title="Common helper classes and functions for writing tests using Google Test. ">
<polygon fill="white" stroke="black" points="305,-1970.73 305,-2000.73 393,-2000.73 393,-1970.73 305,-1970.73"/>
<text text-anchor="start" x="313" y="-1988.73" font-family="Helvetica,sans-Serif" font-size="10.00">Testing Utilities </text>
<text text-anchor="middle" x="349" y="-1977.73" font-family="Helvetica,sans-Serif" font-size="10.00">(testutils)</text>
</a>
</g>
</g>
<!-- Node13 -->
<g id="node4" class="node"><title>Node13</title>
<g id="a_node4"><a xlink:href="group__module__ewald.xhtml" target="_top" xlink:title="Computes energies and forces for long&#45;ranged interactions using the Ewald decomposition. Includes plain Ewald, PME, P3M for Coulomb, PME for Lennard&#45;Jones, load&#45;balancing for PME, and supporting code. ">
<polygon fill="white" stroke="black" points="288,-1820.73 288,-1850.73 410,-1850.73 410,-1820.73 288,-1820.73"/>
<text text-anchor="start" x="296" y="-1838.73" font-family="Helvetica,sans-Serif" font-size="10.00">Ewald&#45;family treatments</text>
<text text-anchor="middle" x="349" y="-1827.73" font-family="Helvetica,sans-Serif" font-size="10.00"> of long&#45;ranged forces</text>
</a>
</g>
</g>
<!-- Node15 -->
<g id="node5" class="node"><title>Node15</title>
<g id="a_node5"><a xlink:href="group__module__listed-forces.xhtml" target="_top" xlink:title="Handles computing energies and forces for listed interactions. ">
<polygon fill="white" stroke="black" points="295.5,-1731.73 295.5,-1761.73 402.5,-1761.73 402.5,-1731.73 295.5,-1731.73"/>
<text text-anchor="start" x="303.5" y="-1749.73" font-family="Helvetica,sans-Serif" font-size="10.00">Interactions between</text>
<text text-anchor="middle" x="349" y="-1738.73" font-family="Helvetica,sans-Serif" font-size="10.00"> lists of particles</text>
</a>
</g>
</g>
<!-- Node19 -->
<g id="node6" class="node"><title>Node19</title>
<g id="a_node6"><a xlink:href="group__module__tables.xhtml" target="_top" xlink:title="Table interpolation from analytical or numerical input. ">
<polygon fill="white" stroke="black" points="276,-1675.23 276,-1694.23 422,-1694.23 422,-1675.23 276,-1675.23"/>
<text text-anchor="middle" x="349" y="-1682.23" font-family="Helvetica,sans-Serif" font-size="10.00">Classes for table interpolation</text>
</a>
</g>
</g>
<!-- Node10 -->
<g id="node7" class="node"><title>Node10</title>
<g id="a_node7"><a xlink:href="group__module__compat.xhtml" target="_top" xlink:title="Provide uniform interface to selected C++ standard library features. ">
<polygon fill="white" stroke="black" points="293,-1625.73 293,-1655.73 405,-1655.73 405,-1625.73 293,-1625.73"/>
<text text-anchor="start" x="301" y="-1643.73" font-family="Helvetica,sans-Serif" font-size="10.00">C++ standard library</text>
<text text-anchor="middle" x="349" y="-1632.73" font-family="Helvetica,sans-Serif" font-size="10.00"> compatibility helpers.</text>
</a>
</g>
</g>
<!-- Node6 -->
<g id="node8" class="node"><title>Node6</title>
<g id="a_node8"><a xlink:href="group__module__selection.xhtml" target="_top" xlink:title="Provides functionality for initializing and evaluating selections. ">
<polygon fill="white" stroke="black" points="290.5,-1552.23 290.5,-1593.23 407.5,-1593.23 407.5,-1552.23 290.5,-1552.23"/>
<text text-anchor="start" x="298.5" y="-1581.23" font-family="Helvetica,sans-Serif" font-size="10.00">Parsing and Evaluation</text>
<text text-anchor="start" x="298.5" y="-1570.23" font-family="Helvetica,sans-Serif" font-size="10.00"> of Analysis Selections</text>
<text text-anchor="middle" x="349" y="-1559.23" font-family="Helvetica,sans-Serif" font-size="10.00"> (selection)</text>
</a>
</g>
</g>
<!-- Node16 -->
<g id="node9" class="node"><title>Node16</title>
<g id="a_node9"><a xlink:href="group______module__nb__verlet.xhtml" target="_top" xlink:title="Computes forces and energies for short&#45;range pair&#45;interactions based on the Verlet algorithm...">
<polygon fill="white" stroke="black" points="289,-1484.73 289,-1514.73 409,-1514.73 409,-1484.73 289,-1484.73"/>
<text text-anchor="start" x="297" y="-1502.73" font-family="Helvetica,sans-Serif" font-size="10.00">Short&#45;range non&#45;bonded</text>
<text text-anchor="middle" x="349" y="-1491.73" font-family="Helvetica,sans-Serif" font-size="10.00"> interaction module</text>
</a>
</g>
</g>
<!-- Node17 -->
<g id="node10" class="node"><title>Node17</title>
<g id="a_node10"><a xlink:href="group__module__simd.xhtml" target="_top" xlink:title="Provides an architecture&#45;independent way of doing SIMD coding. ">
<polygon fill="white" stroke="black" points="286.5,-1373.73 286.5,-1403.73 411.5,-1403.73 411.5,-1373.73 286.5,-1373.73"/>
<text text-anchor="start" x="294.5" y="-1391.73" font-family="Helvetica,sans-Serif" font-size="10.00">SIMD intrinsics interface</text>
<text text-anchor="middle" x="349" y="-1380.73" font-family="Helvetica,sans-Serif" font-size="10.00"> (simd)</text>
</a>
</g>
</g>
<!-- Node12 -->
<g id="node11" class="node"><title>Node12</title>
<g id="a_node11"><a xlink:href="group__module__domdec.xhtml" target="_top" xlink:title="Manages the decomposition of the simulation volume over MPI ranks to try to distribute work evenly wi...">
<polygon fill="white" stroke="black" points="275.5,-1295.73 275.5,-1325.73 422.5,-1325.73 422.5,-1295.73 275.5,-1295.73"/>
<text text-anchor="start" x="283.5" y="-1313.73" font-family="Helvetica,sans-Serif" font-size="10.00">Spatial domain decomposition</text>
<text text-anchor="middle" x="349" y="-1302.73" font-family="Helvetica,sans-Serif" font-size="10.00"> (for parallelization over MPI)</text>
</a>
</g>
</g>
<!-- Node1 -->
<g id="node12" class="node"><title>Node1</title>
<g id="a_node12"><a xlink:href="group__module__analysisdata.xhtml" target="_top" xlink:title="Provides functionality for handling and processing output data from analysis. ">
<polygon fill="white" stroke="black" points="275,-1068.73 275,-1098.73 423,-1098.73 423,-1068.73 275,-1068.73"/>
<text text-anchor="start" x="283" y="-1086.73" font-family="Helvetica,sans-Serif" font-size="10.00">Parallelizable Handling</text>
<text text-anchor="middle" x="349" y="-1075.73" font-family="Helvetica,sans-Serif" font-size="10.00"> of Output Data (analysisdata)</text>
</a>
</g>
</g>
<!-- Node20 -->
<g id="node13" class="node"><title>Node20</title>
<g id="a_node13"><a xlink:href="group__module__taskassignment.xhtml" target="_top" xlink:title="Provides code that manages assignment of simulation tasks to hardware. ">
<polygon fill="white" stroke="black" points="261,-953.73 261,-983.73 437,-983.73 437,-953.73 261,-953.73"/>
<text text-anchor="start" x="269" y="-971.73" font-family="Helvetica,sans-Serif" font-size="10.00">Assigning simulation</text>
<text text-anchor="middle" x="349" y="-960.73" font-family="Helvetica,sans-Serif" font-size="10.00"> tasks to hardware (taskassignment)</text>
</a>
</g>
</g>
<!-- Node14 -->
<g id="node14" class="node"><title>Node14</title>
<g id="a_node14"><a xlink:href="group__module__imd.xhtml" target="_top" xlink:title="Allows mdrun to interface with VMD via the interactive molecular dynamics (IMD) protocol. ">
<polygon fill="white" stroke="black" points="295.5,-904.73 295.5,-934.73 402.5,-934.73 402.5,-904.73 295.5,-904.73"/>
<text text-anchor="start" x="303.5" y="-922.73" font-family="Helvetica,sans-Serif" font-size="10.00">Interactive molecular</text>
<text text-anchor="middle" x="349" y="-911.73" font-family="Helvetica,sans-Serif" font-size="10.00"> dynamics (IMD)</text>
</a>
</g>
</g>
<!-- Node11 -->
<g id="node15" class="node"><title>Node11</title>
<g id="a_node15"><a xlink:href="group__module__correlationfunctions.xhtml" target="_top" xlink:title="Compute correlation functions and fit analytical functions to the result. ">
<polygon fill="white" stroke="black" points="295.5,-828.23 295.5,-847.23 402.5,-847.23 402.5,-828.23 295.5,-828.23"/>
<text text-anchor="middle" x="349" y="-835.23" font-family="Helvetica,sans-Serif" font-size="10.00">Correlation functions</text>
</a>
</g>
</g>
<!-- Node18 -->
<g id="node16" class="node"><title>Node18</title>
<g id="a_node16"><a xlink:href="group__module__swap.xhtml" target="_top" xlink:title="Implements the &quot;Computational Electrophysiology&quot; protocol. ">
<polygon fill="white" stroke="black" points="265.5,-778.73 265.5,-808.73 432.5,-808.73 432.5,-778.73 265.5,-778.73"/>
<text text-anchor="start" x="273.5" y="-796.73" font-family="Helvetica,sans-Serif" font-size="10.00">&quot;Computational Electrophysiology&quot;</text>
<text text-anchor="middle" x="349" y="-785.73" font-family="Helvetica,sans-Serif" font-size="10.00"> position swapping (swap)</text>
</a>
</g>
</g>
<!-- Node0 -->
<g id="node17" class="node"><title>Node0</title>
<polygon fill="#bfbfbf" stroke="black" points="0,-1124.23 0,-1143.23 65,-1143.23 65,-1124.23 0,-1124.23"/>
<text text-anchor="middle" x="32.5" y="-1131.23" font-family="Helvetica,sans-Serif" font-size="10.00">Library API</text>
</g>
<!-- Node0&#45;&gt;Node9 -->
<g id="edge10" class="edge"><title>Node0&#45;&gt;Node9</title>
<path fill="none" stroke="darkgreen" stroke-dasharray="5,2" d="M33.5009,-1143.25C33.5542,-1259.88 35.2903,-2409.47 83,-2460.73 132.899,-2514.34 222.37,-2512.75 283.421,-2503.72"/>
<text text-anchor="middle" x="163" y="-2521.73" font-family="Helvetica,sans-Serif" font-size="10.00">awh.h</text>
<text text-anchor="middle" x="163" y="-2510.73" font-family="Helvetica,sans-Serif" font-size="10.00">read&#45;params.h</text>
</g>
<!-- Node0&#45;&gt;Node5 -->
<g id="edge5" class="edge"><title>Node0&#45;&gt;Node5</title>
<path fill="none" stroke="orange" stroke-dasharray="5,2" d="M33.5266,-1143.54C33.8736,-1254.47 38.2692,-2269.84 83,-2312.73 108.663,-2337.34 207.879,-2318.27 243,-2312.73 266.28,-2309.05 291.428,-2301.06 311.276,-2293.75"/>
<text text-anchor="middle" x="163" y="-2448.73" font-family="Helvetica,sans-Serif" font-size="10.00">gmx::OptionTemplate</text>
<text text-anchor="middle" x="163" y="-2437.73" font-family="Helvetica,sans-Serif" font-size="10.00">gmx::AbstractOptionStorage</text>
<text text-anchor="middle" x="163" y="-2426.73" font-family="Helvetica,sans-Serif" font-size="10.00">gmx::OptionsBehaviorCollection</text>
<text text-anchor="middle" x="163" y="-2415.73" font-family="Helvetica,sans-Serif" font-size="10.00">gmx::OptionManagerContainer</text>
<text text-anchor="middle" x="163" y="-2404.73" font-family="Helvetica,sans-Serif" font-size="10.00">gmx::IOptionManager</text>
<text text-anchor="middle" x="163" y="-2393.73" font-family="Helvetica,sans-Serif" font-size="10.00">gmx::OptionsAssigner</text>
<text text-anchor="middle" x="163" y="-2382.73" font-family="Helvetica,sans-Serif" font-size="10.00">gmx::OptionStorageTemplate</text>
<text text-anchor="start" x="92.5" y="-2371.73" font-family="Helvetica,sans-Serif" font-size="10.00">gmx::OptionStorageTemplate</text>
<text text-anchor="middle" x="163" y="-2360.73" font-family="Helvetica,sans-Serif" font-size="10.00">Simple</text>
<text text-anchor="middle" x="163" y="-2349.73" font-family="Helvetica,sans-Serif" font-size="10.00">gmx::OptionsVisitor</text>
<text text-anchor="middle" x="163" y="-2338.73" font-family="Helvetica,sans-Serif" font-size="10.00">gmx::OptionsTypeVisitor</text>
<text text-anchor="middle" x="163" y="-2327.73" font-family="Helvetica,sans-Serif" font-size="10.00">...</text>
</g>
<!-- Node0&#45;&gt;Node5 -->
<g id="edge21" class="edge"><title>Node0&#45;&gt;Node5</title>
<path fill="none" stroke="darkgreen" stroke-dasharray="5,2" d="M33.6055,-1143.48C34.7752,-1247.69 45.9925,-2153.22 83,-2194.73 130.945,-2248.5 174.911,-2197.19 243,-2220.73 273.507,-2231.28 305.564,-2250.31 326.111,-2263.69"/>
<text text-anchor="middle" x="163" y="-2300.73" font-family="Helvetica,sans-Serif" font-size="10.00">abstractoption.h</text>
<text text-anchor="middle" x="163" y="-2289.73" font-family="Helvetica,sans-Serif" font-size="10.00">abstractoptionstorage.h</text>
<text text-anchor="middle" x="163" y="-2278.73" font-family="Helvetica,sans-Serif" font-size="10.00">behaviorcollection.h</text>
<text text-anchor="middle" x="163" y="-2267.73" font-family="Helvetica,sans-Serif" font-size="10.00">optionmanagercontainer.h</text>
<text text-anchor="middle" x="163" y="-2256.73" font-family="Helvetica,sans-Serif" font-size="10.00">optionsassigner.h</text>
<text text-anchor="middle" x="163" y="-2245.73" font-family="Helvetica,sans-Serif" font-size="10.00">optionstoragetemplate.h</text>
<text text-anchor="middle" x="163" y="-2234.73" font-family="Helvetica,sans-Serif" font-size="10.00">optionsvisitor.h</text>
<text text-anchor="middle" x="163" y="-2223.73" font-family="Helvetica,sans-Serif" font-size="10.00">treesupport.h</text>
</g>
<!-- Node0&#45;&gt;Node8 -->
<g id="edge8" class="edge"><title>Node0&#45;&gt;Node8</title>
<path fill="none" stroke="orange" stroke-dasharray="5,2" d="M33.6555,-1143.48C35.2231,-1238.91 48.8314,-2003.38 83,-2035.73 108.821,-2060.17 208.319,-2043.57 243,-2035.73 272.541,-2029.06 303.513,-2013.04 324.096,-2000.91"/>
<text text-anchor="middle" x="163" y="-2182.73" font-family="Helvetica,sans-Serif" font-size="10.00">gmx::test::CommandLine</text>
<text text-anchor="start" x="86.5" y="-2171.73" font-family="Helvetica,sans-Serif" font-size="10.00">gmx::test::CommandLineTest</text>
<text text-anchor="middle" x="163" y="-2160.73" font-family="Helvetica,sans-Serif" font-size="10.00">Helper</text>
<text text-anchor="middle" x="163" y="-2149.73" font-family="Helvetica,sans-Serif" font-size="10.00">gmx::test::CommandLineTestBase</text>
<text text-anchor="middle" x="163" y="-2138.73" font-family="Helvetica,sans-Serif" font-size="10.00">gmx::test::ConfMatch</text>
<text text-anchor="middle" x="163" y="-2127.73" font-family="Helvetica,sans-Serif" font-size="10.00">gmx::test::IFileMatcher</text>
<text text-anchor="middle" x="163" y="-2116.73" font-family="Helvetica,sans-Serif" font-size="10.00">gmx::test::IFileMatcherSettings</text>
<text text-anchor="middle" x="163" y="-2105.73" font-family="Helvetica,sans-Serif" font-size="10.00">gmx::test::TextFileMatch</text>
<text text-anchor="middle" x="163" y="-2094.73" font-family="Helvetica,sans-Serif" font-size="10.00">gmx::test::NoContentsMatch</text>
<text text-anchor="start" x="86.5" y="-2083.73" font-family="Helvetica,sans-Serif" font-size="10.00">gmx::test::InteractiveTest</text>
<text text-anchor="middle" x="163" y="-2072.73" font-family="Helvetica,sans-Serif" font-size="10.00">Helper</text>
<text text-anchor="middle" x="163" y="-2061.73" font-family="Helvetica,sans-Serif" font-size="10.00">gmx::test::LoggerTestHelper</text>
<text text-anchor="middle" x="163" y="-2050.73" font-family="Helvetica,sans-Serif" font-size="10.00">...</text>
</g>
<!-- Node0&#45;&gt;Node8 -->
<g id="edge29" class="edge"><title>Node0&#45;&gt;Node8</title>
<path fill="none" stroke="darkgreen" stroke-dasharray="5,2" d="M33.4013,-1143.33C32.6308,-1227.3 28.9479,-1834.73 83,-1891.73 107.639,-1917.71 209.608,-1897.81 243,-1910.73 278.517,-1924.47 313.166,-1953.04 332.437,-1970.68"/>
<text text-anchor="middle" x="163" y="-2023.73" font-family="Helvetica,sans-Serif" font-size="10.00">cmdlinetest.h</text>
<text text-anchor="middle" x="163" y="-2012.73" font-family="Helvetica,sans-Serif" font-size="10.00">conftest.h</text>
<text text-anchor="middle" x="163" y="-2001.73" font-family="Helvetica,sans-Serif" font-size="10.00">filematchers.h</text>
<text text-anchor="middle" x="163" y="-1990.73" font-family="Helvetica,sans-Serif" font-size="10.00">interactivetest.h</text>
<text text-anchor="middle" x="163" y="-1979.73" font-family="Helvetica,sans-Serif" font-size="10.00">loggertest.h</text>
<text text-anchor="middle" x="163" y="-1968.73" font-family="Helvetica,sans-Serif" font-size="10.00">mpitest.h</text>
<text text-anchor="middle" x="163" y="-1957.73" font-family="Helvetica,sans-Serif" font-size="10.00">refdata.h</text>
<text text-anchor="middle" x="163" y="-1946.73" font-family="Helvetica,sans-Serif" font-size="10.00">stdiohelper.h</text>
<text text-anchor="middle" x="163" y="-1935.73" font-family="Helvetica,sans-Serif" font-size="10.00">stringtest.h</text>
<text text-anchor="middle" x="163" y="-1924.73" font-family="Helvetica,sans-Serif" font-size="10.00">testasserts.h</text>
<text text-anchor="middle" x="163" y="-1913.73" font-family="Helvetica,sans-Serif" font-size="10.00">...</text>
</g>
<!-- Node0&#45;&gt;Node13 -->
<g id="edge15" class="edge"><title>Node0&#45;&gt;Node13</title>
<path fill="none" stroke="darkgreen" stroke-dasharray="5,2" d="M33.4622,-1143.59C33.2512,-1223.52 33.6611,-1763.89 83,-1813.73 97.1074,-1827.98 214.137,-1833.02 287.881,-1834.79"/>
<text text-anchor="middle" x="163" y="-1879.73" font-family="Helvetica,sans-Serif" font-size="10.00">ewald&#45;utils.h</text>
<text text-anchor="middle" x="163" y="-1868.73" font-family="Helvetica,sans-Serif" font-size="10.00">ewald.h</text>
<text text-anchor="middle" x="163" y="-1857.73" font-family="Helvetica,sans-Serif" font-size="10.00">long&#45;range&#45;correction.h</text>
<text text-anchor="middle" x="163" y="-1846.73" font-family="Helvetica,sans-Serif" font-size="10.00">pme&#45;load&#45;balancing.h</text>
<text text-anchor="middle" x="163" y="-1835.73" font-family="Helvetica,sans-Serif" font-size="10.00">pme.h</text>
</g>
<!-- Node0&#45;&gt;Node15 -->
<g id="edge17" class="edge"><title>Node0&#45;&gt;Node15</title>
<path fill="none" stroke="darkgreen" stroke-dasharray="5,2" d="M33.5765,-1143.67C34.2428,-1217.73 40.1197,-1681.88 83,-1724.73 97.6746,-1739.39 222.39,-1744.31 295.381,-1745.94"/>
<text text-anchor="middle" x="163" y="-1801.73" font-family="Helvetica,sans-Serif" font-size="10.00">bonded.h</text>
<text text-anchor="middle" x="163" y="-1790.73" font-family="Helvetica,sans-Serif" font-size="10.00">disre.h</text>
<text text-anchor="middle" x="163" y="-1779.73" font-family="Helvetica,sans-Serif" font-size="10.00">manage&#45;threading.h</text>
<text text-anchor="middle" x="163" y="-1768.73" font-family="Helvetica,sans-Serif" font-size="10.00">orires.h</text>
<text text-anchor="middle" x="163" y="-1757.73" font-family="Helvetica,sans-Serif" font-size="10.00">pairs.h</text>
<text text-anchor="middle" x="163" y="-1746.73" font-family="Helvetica,sans-Serif" font-size="10.00">position&#45;restraints.h</text>
</g>
<!-- Node0&#45;&gt;Node19 -->
<g id="edge25" class="edge"><title>Node0&#45;&gt;Node19</title>
<path fill="none" stroke="darkgreen" stroke-dasharray="5,2" d="M33.6902,-1143.39C35.1261,-1211.66 45.2598,-1619.71 83,-1657.73 96.3985,-1671.23 201.998,-1678.53 275.774,-1682.02"/>
<text text-anchor="middle" x="163" y="-1715.73" font-family="Helvetica,sans-Serif" font-size="10.00">cubicsplinetable.h</text>
<text text-anchor="middle" x="163" y="-1704.73" font-family="Helvetica,sans-Serif" font-size="10.00">forcetable.h</text>
<text text-anchor="middle" x="163" y="-1693.73" font-family="Helvetica,sans-Serif" font-size="10.00">quadraticsplinetable.h</text>
<text text-anchor="middle" x="163" y="-1682.73" font-family="Helvetica,sans-Serif" font-size="10.00">tableinput.h</text>
</g>
<!-- Node0&#45;&gt;Node10 -->
<g id="edge12" class="edge"><title>Node0&#45;&gt;Node10</title>
<path fill="none" stroke="darkgreen" stroke-dasharray="5,2" d="M33.7565,-1143.55C35.573,-1209.49 47.4683,-1586.11 83,-1620.73 111.791,-1648.78 224.163,-1647.91 292.996,-1644.5"/>
<text text-anchor="middle" x="163" y="-1648.73" font-family="Helvetica,sans-Serif" font-size="10.00">make_unique.h</text>
</g>
<!-- Node0&#45;&gt;Node6 -->
<g id="edge6" class="edge"><title>Node0&#45;&gt;Node6</title>
<path fill="none" stroke="orange" stroke-dasharray="5,2" d="M33.8236,-1143.53C35.9894,-1206.15 49.3313,-1548.6 83,-1578.73 112.448,-1605.08 221.661,-1593.38 290.355,-1582.81"/>
<text text-anchor="middle" x="163" y="-1608.73" font-family="Helvetica,sans-Serif" font-size="10.00">gmx::SelectionFileOption</text>
<text text-anchor="middle" x="163" y="-1597.73" font-family="Helvetica,sans-Serif" font-size="10.00">gmx::SelectionFileOptionInfo</text>
</g>
<!-- Node0&#45;&gt;Node6 -->
<g id="edge22" class="edge"><title>Node0&#45;&gt;Node6</title>
<path fill="none" stroke="darkgreen" stroke-dasharray="5,2" d="M33.2079,-1143.57C31.7957,-1198.51 27.83,-1466.7 83,-1521.73 108.369,-1547.03 207.923,-1534.41 243,-1541.73 258.536,-1544.97 275.108,-1549.4 290.388,-1553.89"/>
<text text-anchor="middle" x="163" y="-1566.73" font-family="Helvetica,sans-Serif" font-size="10.00">indexutil.h</text>
<text text-anchor="middle" x="163" y="-1555.73" font-family="Helvetica,sans-Serif" font-size="10.00">selectionfileoption.h</text>
<text text-anchor="middle" x="163" y="-1544.73" font-family="Helvetica,sans-Serif" font-size="10.00">selhelp.h</text>
</g>
<!-- Node0&#45;&gt;Node16 -->
<g id="edge18" class="edge"><title>Node0&#45;&gt;Node16</title>
<path fill="none" stroke="darkgreen" stroke-dasharray="5,2" d="M33.3577,-1143.45C32.83,-1194.35 33.144,-1429.63 83,-1476.73 97.6438,-1490.57 215.452,-1496.23 288.978,-1498.43"/>
<text text-anchor="middle" x="163" y="-1509.73" font-family="Helvetica,sans-Serif" font-size="10.00">nb_verlet.h</text>
<text text-anchor="middle" x="163" y="-1498.73" font-family="Helvetica,sans-Serif" font-size="10.00">nbnxn_tuning.h</text>
</g>
<!-- Node0&#45;&gt;Node17 -->
<g id="edge23" class="edge"><title>Node0&#45;&gt;Node17</title>
<path fill="none" stroke="darkgreen" stroke-dasharray="5,2" d="M34.0745,-1143.32C36.6749,-1183.22 48.7396,-1335.46 83,-1365.73 97.9035,-1378.9 212.725,-1384.76 286.257,-1387.18"/>
<text text-anchor="middle" x="163" y="-1464.73" font-family="Helvetica,sans-Serif" font-size="10.00">scalar.h</text>
<text text-anchor="middle" x="163" y="-1453.73" font-family="Helvetica,sans-Serif" font-size="10.00">scalar_math.h</text>
<text text-anchor="middle" x="163" y="-1442.73" font-family="Helvetica,sans-Serif" font-size="10.00">scalar_util.h</text>
<text text-anchor="middle" x="163" y="-1431.73" font-family="Helvetica,sans-Serif" font-size="10.00">simd.h</text>
<text text-anchor="middle" x="163" y="-1420.73" font-family="Helvetica,sans-Serif" font-size="10.00">simd_math.h</text>
<text text-anchor="middle" x="163" y="-1409.73" font-family="Helvetica,sans-Serif" font-size="10.00">simd_memory.h</text>
<text text-anchor="middle" x="163" y="-1398.73" font-family="Helvetica,sans-Serif" font-size="10.00">support.h</text>
<text text-anchor="middle" x="163" y="-1387.73" font-family="Helvetica,sans-Serif" font-size="10.00">vector_operations.h</text>
</g>
<!-- Node0&#45;&gt;Node12 -->
<g id="edge14" class="edge"><title>Node0&#45;&gt;Node12</title>
<path fill="none" stroke="darkgreen" stroke-dasharray="5,2" d="M33.2541,-1143.3C33.1204,-1170.89 36.8911,-1250.96 83,-1287.73 97.7806,-1299.52 202.077,-1305.63 275.325,-1308.51"/>
<text text-anchor="middle" x="163" y="-1353.73" font-family="Helvetica,sans-Serif" font-size="10.00">dlbtiming.h</text>
<text text-anchor="middle" x="163" y="-1342.73" font-family="Helvetica,sans-Serif" font-size="10.00">domdec.h</text>
<text text-anchor="middle" x="163" y="-1331.73" font-family="Helvetica,sans-Serif" font-size="10.00">domdec_network.h</text>
<text text-anchor="middle" x="163" y="-1320.73" font-family="Helvetica,sans-Serif" font-size="10.00">domdec_struct.h</text>
<text text-anchor="middle" x="163" y="-1309.73" font-family="Helvetica,sans-Serif" font-size="10.00">ga2la.h</text>
</g>
<!-- Node0&#45;&gt;Node1 -->
<g id="edge1" class="edge"><title>Node0&#45;&gt;Node1</title>
<path fill="none" stroke="orange" stroke-dasharray="5,2" d="M65.3089,-1131.94C106.555,-1129.26 180.603,-1123.25 243,-1111.73 261.089,-1108.39 280.63,-1103.53 297.893,-1098.8"/>
<text text-anchor="middle" x="163" y="-1275.73" font-family="Helvetica,sans-Serif" font-size="10.00">gmx::AbstractAnalysisData</text>
<text text-anchor="middle" x="163" y="-1264.73" font-family="Helvetica,sans-Serif" font-size="10.00">gmx::AbstractAnalysisArrayData</text>
<text text-anchor="middle" x="163" y="-1253.73" font-family="Helvetica,sans-Serif" font-size="10.00">gmx::IAnalysisDataModule</text>
<text text-anchor="middle" x="163" y="-1242.73" font-family="Helvetica,sans-Serif" font-size="10.00">gmx::AnalysisDataModuleSerial</text>
<text text-anchor="middle" x="163" y="-1231.73" font-family="Helvetica,sans-Serif" font-size="10.00">gmx::AnalysisDataModuleParallel</text>
<text text-anchor="middle" x="163" y="-1220.73" font-family="Helvetica,sans-Serif" font-size="10.00">gmx::AnalysisDataModuleManager</text>
<text text-anchor="start" x="86.5" y="-1209.73" font-family="Helvetica,sans-Serif" font-size="10.00">gmx::AnalysisDataStorage</text>
<text text-anchor="middle" x="163" y="-1198.73" font-family="Helvetica,sans-Serif" font-size="10.00">Frame</text>
<text text-anchor="middle" x="163" y="-1187.73" font-family="Helvetica,sans-Serif" font-size="10.00">gmx::AnalysisDataStorage</text>
<text text-anchor="start" x="86.5" y="-1176.73" font-family="Helvetica,sans-Serif" font-size="10.00">gmx::AnalysisDataParallel</text>
<text text-anchor="middle" x="163" y="-1165.73" font-family="Helvetica,sans-Serif" font-size="10.00">Options</text>
<text text-anchor="start" x="86.5" y="-1154.73" font-family="Helvetica,sans-Serif" font-size="10.00">gmx::test::AnalysisDataTest</text>
<text text-anchor="middle" x="163" y="-1143.73" font-family="Helvetica,sans-Serif" font-size="10.00">InputPointSet</text>
<text text-anchor="middle" x="163" y="-1132.73" font-family="Helvetica,sans-Serif" font-size="10.00">...</text>
</g>
<!-- Node0&#45;&gt;Node1 -->
<g id="edge9" class="edge"><title>Node0&#45;&gt;Node1</title>
<path fill="none" stroke="darkgreen" stroke-dasharray="5,2" d="M34.7478,-1124.13C38.0924,-1102.84 49.4109,-1051.85 83,-1030.73 113.098,-1011.8 208.411,-1022.49 243,-1030.73 273.591,-1038.01 305.375,-1055.71 325.846,-1068.66"/>
<text text-anchor="middle" x="163" y="-1099.73" font-family="Helvetica,sans-Serif" font-size="10.00">abstractdata.h</text>
<text text-anchor="middle" x="163" y="-1088.73" font-family="Helvetica,sans-Serif" font-size="10.00">datamodule.h</text>
<text text-anchor="middle" x="163" y="-1077.73" font-family="Helvetica,sans-Serif" font-size="10.00">datamodulemanager.h</text>
<text text-anchor="middle" x="163" y="-1066.73" font-family="Helvetica,sans-Serif" font-size="10.00">datastorage.h</text>
<text text-anchor="middle" x="163" y="-1055.73" font-family="Helvetica,sans-Serif" font-size="10.00">paralleloptions.h</text>
<text text-anchor="middle" x="163" y="-1044.73" font-family="Helvetica,sans-Serif" font-size="10.00">datatest.h</text>
<text text-anchor="middle" x="163" y="-1033.73" font-family="Helvetica,sans-Serif" font-size="10.00">mock_datamodule.h</text>
</g>
<!-- Node0&#45;&gt;Node20 -->
<g id="edge26" class="edge"><title>Node0&#45;&gt;Node20</title>
<path fill="none" stroke="darkgreen" stroke-dasharray="5,2" d="M32.9467,-1123.92C31.9113,-1094.86 33.3316,-1008.93 83,-971.73 110.252,-951.321 194.565,-953.507 260.853,-958.984"/>
<text text-anchor="middle" x="163" y="-1007.73" font-family="Helvetica,sans-Serif" font-size="10.00">decidegpuusage.h</text>
<text text-anchor="middle" x="163" y="-996.73" font-family="Helvetica,sans-Serif" font-size="10.00">resourcedivision.h</text>
<text text-anchor="middle" x="163" y="-985.73" font-family="Helvetica,sans-Serif" font-size="10.00">taskassignment.h</text>
<text text-anchor="middle" x="163" y="-974.73" font-family="Helvetica,sans-Serif" font-size="10.00">usergpuids.h</text>
</g>
<!-- Node0&#45;&gt;Node14 -->
<g id="edge16" class="edge"><title>Node0&#45;&gt;Node14</title>
<path fill="none" stroke="darkgreen" stroke-dasharray="5,2" d="M34.3432,-1124.01C37.778,-1086.92 52.0309,-955.042 83,-929.73 114.325,-904.126 227.538,-908.964 295.438,-914.514"/>
<text text-anchor="middle" x="163" y="-943.73" font-family="Helvetica,sans-Serif" font-size="10.00">imd.h</text>
<text text-anchor="middle" x="163" y="-932.73" font-family="Helvetica,sans-Serif" font-size="10.00">imdsocket.h</text>
</g>
<!-- Node0&#45;&gt;Node11 -->
<g id="edge13" class="edge"><title>Node0&#45;&gt;Node11</title>
<path fill="none" stroke="darkgreen" stroke-dasharray="5,2" d="M33.5546,-1124.16C34.037,-1077.96 38.6915,-878.613 83,-840.73 113.73,-814.456 227.165,-822.843 295.263,-830.684"/>
<text text-anchor="middle" x="163" y="-898.73" font-family="Helvetica,sans-Serif" font-size="10.00">autocorr.h</text>
<text text-anchor="middle" x="163" y="-887.73" font-family="Helvetica,sans-Serif" font-size="10.00">crosscorr.h</text>
<text text-anchor="middle" x="163" y="-876.73" font-family="Helvetica,sans-Serif" font-size="10.00">expfit.h</text>
<text text-anchor="middle" x="163" y="-865.73" font-family="Helvetica,sans-Serif" font-size="10.00">integrate.h</text>
<text text-anchor="middle" x="163" y="-854.73" font-family="Helvetica,sans-Serif" font-size="10.00">manyautocorrelation.h</text>
<text text-anchor="middle" x="163" y="-843.73" font-family="Helvetica,sans-Serif" font-size="10.00">polynomials.h</text>
</g>
<!-- Node0&#45;&gt;Node18 -->
<g id="edge24" class="edge"><title>Node0&#45;&gt;Node18</title>
<path fill="none" stroke="darkgreen" stroke-dasharray="5,2" d="M33.4182,-1124.17C33.2147,-1075.12 34.9739,-852.414 83,-808.73 108.95,-785.126 197.764,-784.292 265.49,-787.493"/>
<text text-anchor="middle" x="163" y="-811.73" font-family="Helvetica,sans-Serif" font-size="10.00">swapcoords.h</text>
</g>
<!-- Node2 -->
<g id="node18" class="node"><title>Node2</title>
<g id="a_node18"><a xlink:href="group__module__onlinehelp.xhtml" target="_top" xlink:title="Provides functionality for formatting help text for console and reStructuredText. ...">
<polygon fill="white" stroke="black" points="287.5,-602.73 287.5,-632.73 410.5,-632.73 410.5,-602.73 287.5,-602.73"/>
<text text-anchor="start" x="295.5" y="-620.73" font-family="Helvetica,sans-Serif" font-size="10.00">Help Formatting for</text>
<text text-anchor="middle" x="349" y="-609.73" font-family="Helvetica,sans-Serif" font-size="10.00"> Online Help (onlinehelp)</text>
</a>
</g>
</g>
<!-- Node0&#45;&gt;Node2 -->
<g id="edge2" class="edge"><title>Node0&#45;&gt;Node2</title>
<path fill="none" stroke="orange" stroke-dasharray="5,2" d="M33.8301,-1123.83C36.0827,-1059.01 50.0969,-696.67 83,-661.73 86.512,-658 210.1,-638.654 287.239,-626.891"/>
<text text-anchor="start" x="95" y="-774.73" font-family="Helvetica,sans-Serif" font-size="10.00">gmx::GlobalCommandLineHelp</text>
<text text-anchor="middle" x="163" y="-763.73" font-family="Helvetica,sans-Serif" font-size="10.00">Context</text>
<text text-anchor="middle" x="163" y="-752.73" font-family="Helvetica,sans-Serif" font-size="10.00">gmx::TextTableFormatter</text>
<text text-anchor="middle" x="163" y="-741.73" font-family="Helvetica,sans-Serif" font-size="10.00">gmx::HelpManager</text>
<text text-anchor="middle" x="163" y="-730.73" font-family="Helvetica,sans-Serif" font-size="10.00">gmx::AbstractSimpleHelpTopic</text>
<text text-anchor="start" x="95" y="-719.73" font-family="Helvetica,sans-Serif" font-size="10.00">gmx::AbstractCompositeHelp</text>
<text text-anchor="middle" x="163" y="-708.73" font-family="Helvetica,sans-Serif" font-size="10.00">Topic</text>
<text text-anchor="middle" x="163" y="-697.73" font-family="Helvetica,sans-Serif" font-size="10.00">gmx::SimpleHelpTopic</text>
<text text-anchor="middle" x="163" y="-686.73" font-family="Helvetica,sans-Serif" font-size="10.00">gmx::CompositeHelpTopic</text>
<text text-anchor="middle" x="163" y="-675.73" font-family="Helvetica,sans-Serif" font-size="10.00">gmx::HelpWriterContext</text>
<text text-anchor="middle" x="163" y="-664.73" font-family="Helvetica,sans-Serif" font-size="10.00">gmx::IHelpTopic</text>
</g>
<!-- Node0&#45;&gt;Node2 -->
<g id="edge20" class="edge"><title>Node0&#45;&gt;Node2</title>
<path fill="none" stroke="darkgreen" stroke-dasharray="5,2" d="M33.5736,-1124.13C34.2185,-1052.57 39.968,-604.181 83,-564.73 109.208,-540.702 208.411,-556.495 243,-564.73 273.591,-572.013 305.375,-589.713 325.846,-602.661"/>
<text text-anchor="middle" x="163" y="-622.73" font-family="Helvetica,sans-Serif" font-size="10.00">helpformat.h</text>
<text text-anchor="middle" x="163" y="-611.73" font-family="Helvetica,sans-Serif" font-size="10.00">helpmanager.h</text>
<text text-anchor="middle" x="163" y="-600.73" font-family="Helvetica,sans-Serif" font-size="10.00">helptopic.h</text>
<text text-anchor="middle" x="163" y="-589.73" font-family="Helvetica,sans-Serif" font-size="10.00">helpwritercontext.h</text>
<text text-anchor="middle" x="163" y="-578.73" font-family="Helvetica,sans-Serif" font-size="10.00">ihelptopic.h</text>
<text text-anchor="middle" x="163" y="-567.73" font-family="Helvetica,sans-Serif" font-size="10.00">mock_helptopic.h</text>
</g>
<!-- Node21 -->
<g id="node19" class="node"><title>Node21</title>
<g id="a_node19"><a xlink:href="group__module__trajectoryanalysis.xhtml" target="_top" xlink:title="Provides functionality for implementing trajectory analysis modules. ">
<polygon fill="white" stroke="black" points="277.5,-516.73 277.5,-546.73 420.5,-546.73 420.5,-516.73 277.5,-516.73"/>
<text text-anchor="start" x="285.5" y="-534.73" font-family="Helvetica,sans-Serif" font-size="10.00">Framework for Trajectory</text>
<text text-anchor="middle" x="349" y="-523.73" font-family="Helvetica,sans-Serif" font-size="10.00"> Analysis (trajectoryanalysis)</text>
</a>
</g>
</g>
<!-- Node0&#45;&gt;Node21 -->
<g id="edge27" class="edge"><title>Node0&#45;&gt;Node21</title>
<path fill="none" stroke="darkgreen" stroke-dasharray="5,2" d="M33.5425,-1124.15C33.9633,-1050.8 38.3989,-579.722 83,-537.73 110.055,-512.257 208.44,-516.535 277.389,-523.166"/>
<text text-anchor="middle" x="163" y="-540.73" font-family="Helvetica,sans-Serif" font-size="10.00">modules.h</text>
</g>
<!-- Node3 -->
<g id="node20" class="node"><title>Node3</title>
<g id="a_node20"><a xlink:href="group__module__commandline.xhtml" target="_top" xlink:title="Provides functionality for managing command line programs. ">
<polygon fill="white" stroke="black" points="277.5,-421.73 277.5,-451.73 420.5,-451.73 420.5,-421.73 277.5,-421.73"/>
<text text-anchor="start" x="285.5" y="-439.73" font-family="Helvetica,sans-Serif" font-size="10.00">Command Line Program</text>
<text text-anchor="middle" x="349" y="-428.73" font-family="Helvetica,sans-Serif" font-size="10.00"> Management (commandline)</text>
</a>
</g>
</g>
<!-- Node0&#45;&gt;Node3 -->
<g id="edge3" class="edge"><title>Node0&#45;&gt;Node3</title>
<path fill="none" stroke="orange" stroke-dasharray="5,2" d="M33.4999,-1124.14C33.5898,-1046.33 35.942,-520.354 83,-470.73 96.2254,-456.783 203.414,-446.643 277.347,-441.227"/>
<text text-anchor="middle" x="163" y="-506.73" font-family="Helvetica,sans-Serif" font-size="10.00">gmx::CommandLineModuleManager</text>
<text text-anchor="middle" x="163" y="-495.73" font-family="Helvetica,sans-Serif" font-size="10.00">gmx::CommandLineModuleGroup</text>
<text text-anchor="middle" x="163" y="-484.73" font-family="Helvetica,sans-Serif" font-size="10.00">gmx::IExecutableEnvironment</text>
<text text-anchor="middle" x="163" y="-473.73" font-family="Helvetica,sans-Serif" font-size="10.00">gmx::CommandLineProgramContext</text>
</g>
<!-- Node0&#45;&gt;Node3 -->
<g id="edge11" class="edge"><title>Node0&#45;&gt;Node3</title>
<path fill="none" stroke="darkgreen" stroke-dasharray="5,2" d="M33.385,-1124.23C32.4916,-1042.44 28.0695,-459.042 83,-407.73 108.983,-383.458 207.767,-402.954 243,-407.73 263.333,-410.486 285.292,-416.115 303.846,-421.687"/>
<text text-anchor="middle" x="163" y="-432.73" font-family="Helvetica,sans-Serif" font-size="10.00">cmdlinehelpcontext.h</text>
<text text-anchor="middle" x="163" y="-421.73" font-family="Helvetica,sans-Serif" font-size="10.00">cmdlinemodulemanager.h</text>
<text text-anchor="middle" x="163" y="-410.73" font-family="Helvetica,sans-Serif" font-size="10.00">cmdlineprogramcontext.h</text>
</g>
<!-- Node4 -->
<g id="node21" class="node"><title>Node4</title>
<g id="a_node21"><a xlink:href="group__module__mdrunutility.xhtml" target="_top" xlink:title="This module contains code that implements general infrastructure for mdrun that does not suit any oth...">
<polygon fill="white" stroke="black" points="286.5,-331.73 286.5,-361.73 411.5,-361.73 411.5,-331.73 286.5,-331.73"/>
<text text-anchor="start" x="294.5" y="-349.73" font-family="Helvetica,sans-Serif" font-size="10.00">Implementation of mdrun</text>
<text text-anchor="middle" x="349" y="-338.73" font-family="Helvetica,sans-Serif" font-size="10.00"> utility functionality</text>
</a>
</g>
</g>
<!-- Node0&#45;&gt;Node4 -->
<g id="edge4" class="edge"><title>Node0&#45;&gt;Node4</title>
<path fill="none" stroke="orange" stroke-dasharray="5,2" d="M33.4126,-1124.21C32.7394,-1040.95 29.7312,-438.612 83,-381.73 96.6796,-367.122 212.246,-356.309 286.179,-350.809"/>
<text text-anchor="middle" x="163" y="-384.73" font-family="Helvetica,sans-Serif" font-size="10.00">gmx::MDModules</text>
</g>
<!-- Node0&#45;&gt;Node4 -->
<g id="edge19" class="edge"><title>Node0&#45;&gt;Node4</title>
<path fill="none" stroke="darkgreen" stroke-dasharray="5,2" d="M33.711,-1124.08C35.721,-1034.25 52.0915,-346.82 83,-317.73 108.892,-293.361 207.767,-312.954 243,-317.73 263.333,-320.486 285.292,-326.115 303.846,-331.687"/>
<text text-anchor="middle" x="163" y="-342.73" font-family="Helvetica,sans-Serif" font-size="10.00">handlerestart.h</text>
<text text-anchor="middle" x="163" y="-331.73" font-family="Helvetica,sans-Serif" font-size="10.00">mdmodules.h</text>
<text text-anchor="middle" x="163" y="-320.73" font-family="Helvetica,sans-Serif" font-size="10.00">threadaffinity.h</text>
</g>
<!-- Node7 -->
<g id="node22" class="node"><title>Node7</title>
<g id="a_node22"><a xlink:href="group__module__utility.xhtml" target="_top" xlink:title="Provides low&#45;level utilities for error handling and other tasks. ">
<polygon fill="white" stroke="black" points="300.5,-87.7297 300.5,-117.73 397.5,-117.73 397.5,-87.7297 300.5,-87.7297"/>
<text text-anchor="start" x="308.5" y="-105.73" font-family="Helvetica,sans-Serif" font-size="10.00">Low&#45;Level Utilities</text>
<text text-anchor="middle" x="349" y="-94.7297" font-family="Helvetica,sans-Serif" font-size="10.00"> (utility)</text>
</a>
</g>
</g>
<!-- Node0&#45;&gt;Node7 -->
<g id="edge7" class="edge"><title>Node0&#45;&gt;Node7</title>
<path fill="none" stroke="orange" stroke-dasharray="5,2" d="M33.6609,-1124.09C35.3322,-1026.46 50.1288,-219.078 83,-181.73 130.747,-127.479 174.216,-174.904 243,-152.73 270.672,-143.809 300.436,-129.104 321.182,-117.944"/>
<text text-anchor="middle" x="163" y="-294.73" font-family="Helvetica,sans-Serif" font-size="10.00">gmx::Allocator</text>
<text text-anchor="middle" x="163" y="-283.73" font-family="Helvetica,sans-Serif" font-size="10.00">gmx::BinaryInformationSettings</text>
<text text-anchor="middle" x="163" y="-272.73" font-family="Helvetica,sans-Serif" font-size="10.00">gmx::PrivateImplPointer</text>
<text text-anchor="middle" x="163" y="-261.73" font-family="Helvetica,sans-Serif" font-size="10.00">gmx::DirectoryEnumerator</text>
<text text-anchor="middle" x="163" y="-250.73" font-family="Helvetica,sans-Serif" font-size="10.00">gmx::IFileInputRedirector</text>
<text text-anchor="middle" x="163" y="-239.73" font-family="Helvetica,sans-Serif" font-size="10.00">gmx::IFileOutputRedirector</text>
<text text-anchor="middle" x="163" y="-228.73" font-family="Helvetica,sans-Serif" font-size="10.00">gmx::StandardInputStream</text>
<text text-anchor="middle" x="163" y="-217.73" font-family="Helvetica,sans-Serif" font-size="10.00">gmx::TextInputFile</text>
<text text-anchor="middle" x="163" y="-206.73" font-family="Helvetica,sans-Serif" font-size="10.00">gmx::TextOutputFile</text>
<text text-anchor="middle" x="163" y="-195.73" font-family="Helvetica,sans-Serif" font-size="10.00">gmx::FlagsTemplate</text>
<text text-anchor="middle" x="163" y="-184.73" font-family="Helvetica,sans-Serif" font-size="10.00">...</text>
</g>
<!-- Node0&#45;&gt;Node7 -->
<g id="edge28" class="edge"><title>Node0&#45;&gt;Node7</title>
<path fill="none" stroke="darkgreen" stroke-dasharray="5,2" d="M33.5528,-1124.2C34.184,-1018.5 41.0215,-67.8714 83,-27.7297 134.395,21.4165 175.281,-6.02817 243,-27.7297 279.693,-39.4885 314.479,-69.3026 333.356,-87.6021"/>
<text text-anchor="middle" x="163" y="-140.73" font-family="Helvetica,sans-Serif" font-size="10.00">basenetwork.h</text>
<text text-anchor="middle" x="163" y="-129.73" font-family="Helvetica,sans-Serif" font-size="10.00">binaryinformation.h</text>
<text text-anchor="middle" x="163" y="-118.73" font-family="Helvetica,sans-Serif" font-size="10.00">bitmask.h</text>
<text text-anchor="middle" x="163" y="-107.73" font-family="Helvetica,sans-Serif" font-size="10.00">classhelpers.h</text>
<text text-anchor="middle" x="163" y="-96.7297" font-family="Helvetica,sans-Serif" font-size="10.00">compare.h</text>
<text text-anchor="middle" x="163" y="-85.7297" font-family="Helvetica,sans-Serif" font-size="10.00">coolstuff.h</text>
<text text-anchor="middle" x="163" y="-74.7297" font-family="Helvetica,sans-Serif" font-size="10.00">dir_separator.h</text>
<text text-anchor="middle" x="163" y="-63.7297" font-family="Helvetica,sans-Serif" font-size="10.00">directoryenumerator.h</text>
<text text-anchor="middle" x="163" y="-52.7297" font-family="Helvetica,sans-Serif" font-size="10.00">fileredirector.h</text>
<text text-anchor="middle" x="163" y="-41.7297" font-family="Helvetica,sans-Serif" font-size="10.00">filestream.h</text>
<text text-anchor="middle" x="163" y="-30.7297" font-family="Helvetica,sans-Serif" font-size="10.00">...</text>
</g>
</g>
</svg>
