<?xml version="1.0" encoding="UTF-8" standalone="no"?>
<!DOCTYPE svg PUBLIC "-//W3C//DTD SVG 1.1//EN"
 "http://www.w3.org/Graphics/SVG/1.1/DTD/svg11.dtd">
<!-- Generated by graphviz version 2.38.0 (20140413.2041)
 -->
<!-- Title: src/gromacs/onlinehelp/helpwritercontext.cpp Pages: 1 -->
<svg width="1323pt" height="285pt"
 viewBox="0.00 0.00 1323.00 285.00" xmlns="http://www.w3.org/2000/svg" xmlns:xlink="http://www.w3.org/1999/xlink">
<g id="graph0" class="graph" transform="scale(1 1) rotate(0) translate(4 281)">
<title>src/gromacs/onlinehelp/helpwritercontext.cpp</title>
<polygon fill="white" stroke="none" points="-4,4 -4,-281 1319,-281 1319,4 -4,4"/>
<!-- Node1 -->
<g id="node1" class="node"><title>Node1</title>
<polygon fill="#bfbfbf" stroke="black" points="553,-246.5 553,-276.5 670,-276.5 670,-246.5 553,-246.5"/>
<text text-anchor="start" x="561" y="-264.5" font-family="Helvetica,sans-Serif" font-size="10.00">src/gromacs/onlinehelp</text>
<text text-anchor="middle" x="611.5" y="-253.5" font-family="Helvetica,sans-Serif" font-size="10.00">/helpwritercontext.cpp</text>
</g>
<!-- Node2 -->
<g id="node2" class="node"><title>Node2</title>
<g id="a_node2"><a xlink:href="gmxpre_8h.xhtml" target="_top" xlink:title="Prerequisite header file for GROMACS build. ">
<polygon fill="white" stroke="black" points="0,-185 0,-204 57,-204 57,-185 0,-185"/>
<text text-anchor="middle" x="28.5" y="-192" font-family="Helvetica,sans-Serif" font-size="10.00">gmxpre.h</text>
</a>
</g>
</g>
<!-- Node1&#45;&gt;Node2 -->
<g id="edge1" class="edge"><title>Node1&#45;&gt;Node2</title>
<path fill="none" stroke="midnightblue" d="M552.897,-259.454C453.04,-256.689 243.967,-246.623 71.5,-210 67.8154,-209.218 64.0071,-208.222 60.25,-207.119"/>
<polygon fill="midnightblue" stroke="midnightblue" points="61.1347,-203.728 50.544,-204.026 59.009,-210.397 61.1347,-203.728"/>
</g>
<!-- Node3 -->
<g id="node3" class="node"><title>Node3</title>
<g id="a_node3"><a xlink:href="helpwritercontext_8h.xhtml" target="_top" xlink:title="Declares gmx::HelpWriterContext. ">
<polygon fill="white" stroke="black" points="465,-185 465,-204 564,-204 564,-185 465,-185"/>
<text text-anchor="middle" x="514.5" y="-192" font-family="Helvetica,sans-Serif" font-size="10.00">helpwritercontext.h</text>
</a>
</g>
</g>
<!-- Node1&#45;&gt;Node3 -->
<g id="edge2" class="edge"><title>Node1&#45;&gt;Node3</title>
<path fill="none" stroke="midnightblue" d="M590.452,-246.396C574.186,-235.496 551.776,-220.479 535.517,-209.584"/>
<polygon fill="midnightblue" stroke="midnightblue" points="537.451,-206.666 527.195,-204.007 533.554,-212.481 537.451,-206.666"/>
</g>
<!-- Node4 -->
<g id="node4" class="node"><title>Node4</title>
<polygon fill="white" stroke="#bfbfbf" points="449,-123.5 449,-142.5 490,-142.5 490,-123.5 449,-123.5"/>
<text text-anchor="middle" x="469.5" y="-130.5" font-family="Helvetica,sans-Serif" font-size="10.00">string</text>
</g>
<!-- Node1&#45;&gt;Node4 -->
<g id="edge10" class="edge"><title>Node1&#45;&gt;Node4</title>
<path fill="none" stroke="midnightblue" d="M608.014,-246.3C602.965,-228.446 592.016,-197.855 572.5,-179 561.611,-168.48 526.078,-154.179 499.778,-144.547"/>
<polygon fill="midnightblue" stroke="midnightblue" points="500.816,-141.2 490.221,-141.101 498.442,-147.785 500.816,-141.2"/>
</g>
<!-- Node5 -->
<g id="node5" class="node"><title>Node5</title>
<polygon fill="white" stroke="#bfbfbf" points="569.5,-123.5 569.5,-142.5 613.5,-142.5 613.5,-123.5 569.5,-123.5"/>
<text text-anchor="middle" x="591.5" y="-130.5" font-family="Helvetica,sans-Serif" font-size="10.00">vector</text>
</g>
<!-- Node1&#45;&gt;Node5 -->
<g id="edge11" class="edge"><title>Node1&#45;&gt;Node5</title>
<path fill="none" stroke="midnightblue" d="M611.741,-246.225C611.761,-229.842 611.006,-202.241 606.5,-179 604.756,-170.006 601.695,-160.331 598.791,-152.265"/>
<polygon fill="midnightblue" stroke="midnightblue" points="602.012,-150.886 595.188,-142.781 595.468,-153.372 602.012,-150.886"/>
</g>
<!-- Node7 -->
<g id="node7" class="node"><title>Node7</title>
<polygon fill="white" stroke="#bfbfbf" points="251.5,-62 251.5,-81 303.5,-81 303.5,-62 251.5,-62"/>
<text text-anchor="middle" x="277.5" y="-69" font-family="Helvetica,sans-Serif" font-size="10.00">memory</text>
</g>
<!-- Node1&#45;&gt;Node7 -->
<g id="edge9" class="edge"><title>Node1&#45;&gt;Node7</title>
<path fill="none" stroke="midnightblue" d="M552.64,-258.985C425.473,-255.105 134.11,-242.705 104.5,-210 89.0484,-192.933 114.168,-128.592 119.5,-123 151.423,-89.5185 205.498,-78.1716 241.353,-74.3639"/>
<polygon fill="midnightblue" stroke="midnightblue" points="241.761,-77.8413 251.399,-73.4427 241.121,-70.8705 241.761,-77.8413"/>
</g>
<!-- Node8 -->
<g id="node8" class="node"><title>Node8</title>
<polygon fill="white" stroke="#bfbfbf" points="1000.5,-185 1000.5,-204 1046.5,-204 1046.5,-185 1000.5,-185"/>
<text text-anchor="middle" x="1023.5" y="-192" font-family="Helvetica,sans-Serif" font-size="10.00">cctype</text>
</g>
<!-- Node1&#45;&gt;Node8 -->
<g id="edge7" class="edge"><title>Node1&#45;&gt;Node8</title>
<path fill="none" stroke="midnightblue" d="M670.151,-256.964C744.677,-251.481 876.808,-238.439 986.5,-210 989.163,-209.31 991.894,-208.482 994.608,-207.578"/>
<polygon fill="midnightblue" stroke="midnightblue" points="996.014,-210.791 1004.2,-204.069 993.61,-204.216 996.014,-210.791"/>
</g>
<!-- Node9 -->
<g id="node9" class="node"><title>Node9</title>
<polygon fill="white" stroke="#bfbfbf" points="1064.5,-185 1064.5,-204 1120.5,-204 1120.5,-185 1064.5,-185"/>
<text text-anchor="middle" x="1092.5" y="-192" font-family="Helvetica,sans-Serif" font-size="10.00">algorithm</text>
</g>
<!-- Node1&#45;&gt;Node9 -->
<g id="edge8" class="edge"><title>Node1&#45;&gt;Node9</title>
<path fill="none" stroke="midnightblue" d="M670.184,-258.672C755.979,-254.916 920.159,-243.605 1055.5,-210 1058.17,-209.337 1060.91,-208.529 1063.62,-207.637"/>
<polygon fill="midnightblue" stroke="midnightblue" points="1065.02,-210.853 1073.22,-204.148 1062.63,-204.274 1065.02,-210.853"/>
</g>
<!-- Node10 -->
<g id="node10" class="node"><title>Node10</title>
<g id="a_node10"><a xlink:href="helpformat_8h.xhtml" target="_top" xlink:title="Declares common string formatting routines for online help. ">
<polygon fill="white" stroke="black" points="195,-179.5 195,-209.5 296,-209.5 296,-179.5 195,-179.5"/>
<text text-anchor="start" x="203" y="-197.5" font-family="Helvetica,sans-Serif" font-size="10.00">gromacs/onlinehelp</text>
<text text-anchor="middle" x="245.5" y="-186.5" font-family="Helvetica,sans-Serif" font-size="10.00">/helpformat.h</text>
</a>
</g>
</g>
<!-- Node1&#45;&gt;Node10 -->
<g id="edge12" class="edge"><title>Node1&#45;&gt;Node10</title>
<path fill="none" stroke="midnightblue" d="M552.889,-252.137C493.294,-243.339 398.098,-228.476 306.21,-210.053"/>
<polygon fill="midnightblue" stroke="midnightblue" points="306.676,-206.576 296.18,-208.025 305.288,-213.438 306.676,-206.576"/>
</g>
<!-- Node11 -->
<g id="node11" class="node"><title>Node11</title>
<g id="a_node11"><a xlink:href="exceptions_8h.xhtml" target="_top" xlink:title="Declares common exception classes and macros for fatal error handling. ">
<polygon fill="white" stroke="black" points="805,-185 805,-204 944,-204 944,-185 805,-185"/>
<text text-anchor="middle" x="874.5" y="-192" font-family="Helvetica,sans-Serif" font-size="10.00">gromacs/utility/exceptions.h</text>
</a>
</g>
</g>
<!-- Node1&#45;&gt;Node11 -->
<g id="edge15" class="edge"><title>Node1&#45;&gt;Node11</title>
<path fill="none" stroke="midnightblue" d="M668.243,-246.476C716.715,-234.496 785.48,-217.501 830.04,-206.488"/>
<polygon fill="midnightblue" stroke="midnightblue" points="831.124,-209.826 839.992,-204.029 829.444,-203.03 831.124,-209.826"/>
</g>
<!-- Node21 -->
<g id="node21" class="node"><title>Node21</title>
<g id="a_node21"><a xlink:href="gmxassert_8h.xhtml" target="_top" xlink:title="Defines assert macros customized for Gromacs. ">
<polygon fill="white" stroke="black" points="1178,-123.5 1178,-142.5 1315,-142.5 1315,-123.5 1178,-123.5"/>
<text text-anchor="middle" x="1246.5" y="-130.5" font-family="Helvetica,sans-Serif" font-size="10.00">gromacs/utility/gmxassert.h</text>
</a>
</g>
</g>
<!-- Node1&#45;&gt;Node21 -->
<g id="edge32" class="edge"><title>Node1&#45;&gt;Node21</title>
<path fill="none" stroke="midnightblue" d="M670.112,-260.927C740.12,-259.421 859.439,-250.372 952.5,-210 972.813,-201.188 971.311,-188.092 991.5,-179 1022.34,-165.114 1105,-152.007 1167.93,-143.559"/>
<polygon fill="midnightblue" stroke="midnightblue" points="1168.39,-147.028 1177.84,-142.244 1167.47,-140.089 1168.39,-147.028"/>
</g>
<!-- Node22 -->
<g id="node22" class="node"><title>Node22</title>
<g id="a_node22"><a xlink:href="programcontext_8h.xhtml" target="_top" xlink:title="Declares gmx::IProgramContext and related methods. ">
<polygon fill="white" stroke="black" points="1138,-185 1138,-204 1297,-204 1297,-185 1138,-185"/>
<text text-anchor="middle" x="1217.5" y="-192" font-family="Helvetica,sans-Serif" font-size="10.00">gromacs/utility/programcontext.h</text>
</a>
</g>
</g>
<!-- Node1&#45;&gt;Node22 -->
<g id="edge33" class="edge"><title>Node1&#45;&gt;Node22</title>
<path fill="none" stroke="midnightblue" d="M670.295,-256.042C766.516,-248.46 963.532,-231.74 1129.5,-210 1139.07,-208.746 1149.2,-207.243 1159.05,-205.687"/>
<polygon fill="midnightblue" stroke="midnightblue" points="1159.86,-209.101 1169.17,-204.053 1158.74,-202.191 1159.86,-209.101"/>
</g>
<!-- Node23 -->
<g id="node23" class="node"><title>Node23</title>
<g id="a_node23"><a xlink:href="stringutil_8h.xhtml" target="_top" xlink:title="Declares common string utility and formatting routines. ">
<polygon fill="white" stroke="black" points="658.5,-185 658.5,-204 786.5,-204 786.5,-185 658.5,-185"/>
<text text-anchor="middle" x="722.5" y="-192" font-family="Helvetica,sans-Serif" font-size="10.00">gromacs/utility/stringutil.h</text>
</a>
</g>
</g>
<!-- Node1&#45;&gt;Node23 -->
<g id="edge34" class="edge"><title>Node1&#45;&gt;Node23</title>
<path fill="none" stroke="midnightblue" d="M635.585,-246.396C654.458,-235.344 680.558,-220.061 699.221,-209.132"/>
<polygon fill="midnightblue" stroke="midnightblue" points="701.112,-212.081 707.973,-204.007 697.575,-206.04 701.112,-212.081"/>
</g>
<!-- Node26 -->
<g id="node26" class="node"><title>Node26</title>
<g id="a_node26"><a xlink:href="textwriter_8h.xhtml" target="_top" xlink:title="Declares gmx::TextWriter. ">
<polygon fill="white" stroke="black" points="314.5,-185 314.5,-204 446.5,-204 446.5,-185 314.5,-185"/>
<text text-anchor="middle" x="380.5" y="-192" font-family="Helvetica,sans-Serif" font-size="10.00">gromacs/utility/textwriter.h</text>
</a>
</g>
</g>
<!-- Node1&#45;&gt;Node26 -->
<g id="edge39" class="edge"><title>Node1&#45;&gt;Node26</title>
<path fill="none" stroke="midnightblue" d="M561.661,-246.476C519.445,-234.597 459.704,-217.787 420.543,-206.768"/>
<polygon fill="midnightblue" stroke="midnightblue" points="421.384,-203.368 410.81,-204.029 419.488,-210.107 421.384,-203.368"/>
</g>
<!-- Node28 -->
<g id="node28" class="node"><title>Node28</title>
<g id="a_node28"><a xlink:href="rstparser_8h.xhtml" target="_top" xlink:title="Declares classes for (partial) parsing of reStructuredText. ">
<polygon fill="white" stroke="black" points="114,-185 114,-204 177,-204 177,-185 114,-185"/>
<text text-anchor="middle" x="145.5" y="-192" font-family="Helvetica,sans-Serif" font-size="10.00">rstparser.h</text>
</a>
</g>
</g>
<!-- Node1&#45;&gt;Node28 -->
<g id="edge45" class="edge"><title>Node1&#45;&gt;Node28</title>
<path fill="none" stroke="midnightblue" d="M552.881,-257.813C470.056,-253.058 314.489,-240.594 185.5,-210 182.436,-209.273 179.284,-208.387 176.158,-207.413"/>
<polygon fill="midnightblue" stroke="midnightblue" points="176.993,-204.001 166.398,-204.1 174.742,-210.629 176.993,-204.001"/>
</g>
<!-- Node3&#45;&gt;Node4 -->
<g id="edge3" class="edge"><title>Node3&#45;&gt;Node4</title>
<path fill="none" stroke="midnightblue" d="M508.053,-184.975C501.303,-176.05 490.531,-161.807 482.087,-150.643"/>
<polygon fill="midnightblue" stroke="midnightblue" points="484.759,-148.374 475.935,-142.509 479.176,-152.596 484.759,-148.374"/>
</g>
<!-- Node3&#45;&gt;Node5 -->
<g id="edge4" class="edge"><title>Node3&#45;&gt;Node5</title>
<path fill="none" stroke="midnightblue" d="M525.532,-184.975C537.768,-175.52 557.729,-160.096 572.493,-148.687"/>
<polygon fill="midnightblue" stroke="midnightblue" points="574.715,-151.393 580.488,-142.509 570.435,-145.854 574.715,-151.393"/>
</g>
<!-- Node6 -->
<g id="node6" class="node"><title>Node6</title>
<g id="a_node6"><a xlink:href="classhelpers_8h.xhtml" target="_top" xlink:title="Declares common utility classes and macros. ">
<polygon fill="white" stroke="black" points="284.5,-123.5 284.5,-142.5 430.5,-142.5 430.5,-123.5 284.5,-123.5"/>
<text text-anchor="middle" x="357.5" y="-130.5" font-family="Helvetica,sans-Serif" font-size="10.00">gromacs/utility/classhelpers.h</text>
</a>
</g>
</g>
<!-- Node3&#45;&gt;Node6 -->
<g id="edge5" class="edge"><title>Node3&#45;&gt;Node6</title>
<path fill="none" stroke="midnightblue" d="M492.006,-184.975C465.191,-174.813 420.185,-157.756 389.691,-146.2"/>
<polygon fill="midnightblue" stroke="midnightblue" points="390.544,-142.78 379.953,-142.509 388.063,-149.326 390.544,-142.78"/>
</g>
<!-- Node6&#45;&gt;Node7 -->
<g id="edge6" class="edge"><title>Node6&#45;&gt;Node7</title>
<path fill="none" stroke="midnightblue" d="M346.038,-123.475C333.325,-114.02 312.587,-98.5961 297.247,-87.1871"/>
<polygon fill="midnightblue" stroke="midnightblue" points="299.054,-84.1686 288.941,-81.0091 294.876,-89.7854 299.054,-84.1686"/>
</g>
<!-- Node10&#45;&gt;Node4 -->
<g id="edge13" class="edge"><title>Node10&#45;&gt;Node4</title>
<path fill="none" stroke="midnightblue" d="M296.288,-180.824C333.284,-171.465 384.831,-158.173 439.075,-143.042"/>
<polygon fill="midnightblue" stroke="midnightblue" points="440.187,-146.365 448.872,-140.297 438.299,-139.625 440.187,-146.365"/>
</g>
<!-- Node10&#45;&gt;Node6 -->
<g id="edge14" class="edge"><title>Node10&#45;&gt;Node6</title>
<path fill="none" stroke="midnightblue" d="M272.042,-179.399C290.163,-169.773 314.036,-157.09 331.943,-147.577"/>
<polygon fill="midnightblue" stroke="midnightblue" points="334.014,-150.44 341.203,-142.658 330.73,-144.258 334.014,-150.44"/>
</g>
<!-- Node11&#45;&gt;Node4 -->
<g id="edge20" class="edge"><title>Node11&#45;&gt;Node4</title>
<path fill="none" stroke="midnightblue" d="M830.704,-184.971C819.269,-182.878 806.942,-180.742 795.5,-179 667.258,-159.477 630.315,-170.26 500.234,-143.059"/>
<polygon fill="midnightblue" stroke="midnightblue" points="500.799,-139.601 490.29,-140.944 499.343,-146.448 500.799,-139.601"/>
</g>
<!-- Node11&#45;&gt;Node5 -->
<g id="edge23" class="edge"><title>Node11&#45;&gt;Node5</title>
<path fill="none" stroke="midnightblue" d="M829.574,-184.973C772.096,-173.986 674.731,-155.099 623.659,-143.095"/>
<polygon fill="midnightblue" stroke="midnightblue" points="624.332,-139.657 613.79,-140.716 622.692,-146.462 624.332,-139.657"/>
</g>
<!-- Node11&#45;&gt;Node6 -->
<g id="edge27" class="edge"><title>Node11&#45;&gt;Node6</title>
<path fill="none" stroke="midnightblue" d="M831.552,-184.966C819.886,-182.826 807.235,-180.667 795.5,-179 641.281,-157.086 599.359,-159.561 440.921,-143.135"/>
<polygon fill="midnightblue" stroke="midnightblue" points="441.124,-139.637 430.814,-142.078 440.396,-146.599 441.124,-139.637"/>
</g>
<!-- Node11&#45;&gt;Node7 -->
<g id="edge19" class="edge"><title>Node11&#45;&gt;Node7</title>
<path fill="none" stroke="midnightblue" d="M870.343,-184.676C862.488,-169.119 843.857,-137.129 817.5,-123 730.047,-76.1209 420.578,-72.2028 313.936,-72.2819"/>
<polygon fill="midnightblue" stroke="midnightblue" points="313.676,-68.7823 303.683,-72.3026 313.69,-75.7823 313.676,-68.7823"/>
</g>
<!-- Node12 -->
<g id="node12" class="node"><title>Node12</title>
<polygon fill="white" stroke="#bfbfbf" points="508,-123.5 508,-142.5 551,-142.5 551,-123.5 508,-123.5"/>
<text text-anchor="middle" x="529.5" y="-130.5" font-family="Helvetica,sans-Serif" font-size="10.00">cstdio</text>
</g>
<!-- Node11&#45;&gt;Node12 -->
<g id="edge16" class="edge"><title>Node11&#45;&gt;Node12</title>
<path fill="none" stroke="midnightblue" d="M829.421,-184.989C818.341,-182.962 806.501,-180.852 795.5,-179 694.457,-161.991 665.421,-165.537 561.084,-142.86"/>
<polygon fill="midnightblue" stroke="midnightblue" points="561.606,-139.391 551.087,-140.658 560.1,-146.227 561.606,-139.391"/>
</g>
<!-- Node13 -->
<g id="node13" class="node"><title>Node13</title>
<polygon fill="white" stroke="#bfbfbf" points="764,-123.5 764,-142.5 809,-142.5 809,-123.5 764,-123.5"/>
<text text-anchor="middle" x="786.5" y="-130.5" font-family="Helvetica,sans-Serif" font-size="10.00">cstdlib</text>
</g>
<!-- Node11&#45;&gt;Node13 -->
<g id="edge17" class="edge"><title>Node11&#45;&gt;Node13</title>
<path fill="none" stroke="midnightblue" d="M861.892,-184.975C847.777,-175.431 824.669,-159.807 807.751,-148.368"/>
<polygon fill="midnightblue" stroke="midnightblue" points="809.329,-145.211 799.085,-142.509 805.409,-151.01 809.329,-145.211"/>
</g>
<!-- Node14 -->
<g id="node14" class="node"><title>Node14</title>
<polygon fill="white" stroke="#bfbfbf" points="866,-123.5 866,-142.5 925,-142.5 925,-123.5 866,-123.5"/>
<text text-anchor="middle" x="895.5" y="-130.5" font-family="Helvetica,sans-Serif" font-size="10.00">exception</text>
</g>
<!-- Node11&#45;&gt;Node14 -->
<g id="edge18" class="edge"><title>Node11&#45;&gt;Node14</title>
<path fill="none" stroke="midnightblue" d="M877.509,-184.975C880.534,-176.404 885.29,-162.927 889.153,-151.983"/>
<polygon fill="midnightblue" stroke="midnightblue" points="892.469,-153.104 892.497,-142.509 885.868,-150.774 892.469,-153.104"/>
</g>
<!-- Node15 -->
<g id="node15" class="node"><title>Node15</title>
<polygon fill="white" stroke="#bfbfbf" points="981.5,-123.5 981.5,-142.5 1043.5,-142.5 1043.5,-123.5 981.5,-123.5"/>
<text text-anchor="middle" x="1012.5" y="-130.5" font-family="Helvetica,sans-Serif" font-size="10.00">type_traits</text>
</g>
<!-- Node11&#45;&gt;Node15 -->
<g id="edge21" class="edge"><title>Node11&#45;&gt;Node15</title>
<path fill="none" stroke="midnightblue" d="M894.272,-184.975C917.636,-174.901 956.714,-158.053 983.503,-146.502"/>
<polygon fill="midnightblue" stroke="midnightblue" points="984.968,-149.682 992.765,-142.509 982.196,-143.254 984.968,-149.682"/>
</g>
<!-- Node16 -->
<g id="node16" class="node"><title>Node16</title>
<polygon fill="white" stroke="#bfbfbf" points="1062,-123.5 1062,-142.5 1121,-142.5 1121,-123.5 1062,-123.5"/>
<text text-anchor="middle" x="1091.5" y="-130.5" font-family="Helvetica,sans-Serif" font-size="10.00">typeindex</text>
</g>
<!-- Node11&#45;&gt;Node16 -->
<g id="edge22" class="edge"><title>Node11&#45;&gt;Node16</title>
<path fill="none" stroke="midnightblue" d="M905.591,-184.975C944.133,-174.407 1009.87,-156.383 1051.96,-144.842"/>
<polygon fill="midnightblue" stroke="midnightblue" points="1053.14,-148.147 1061.86,-142.127 1051.29,-141.396 1053.14,-148.147"/>
</g>
<!-- Node17 -->
<g id="node17" class="node"><title>Node17</title>
<g id="a_node17"><a xlink:href="basedefinitions_8h.xhtml" target="_top" xlink:title="Basic types and macros used throughout GROMACS. ">
<polygon fill="white" stroke="black" points="920,-62 920,-81 1077,-81 1077,-62 920,-62"/>
<text text-anchor="middle" x="998.5" y="-69" font-family="Helvetica,sans-Serif" font-size="10.00">gromacs/utility/basedefinitions.h</text>
</a>
</g>
</g>
<!-- Node11&#45;&gt;Node17 -->
<g id="edge24" class="edge"><title>Node11&#45;&gt;Node17</title>
<path fill="none" stroke="midnightblue" d="M885.274,-184.923C897.361,-175.154 917.385,-158.531 933.5,-143 951.938,-125.231 971.684,-103.364 984.511,-88.7378"/>
<polygon fill="midnightblue" stroke="midnightblue" points="987.278,-90.8902 991.201,-81.0488 981.997,-86.2953 987.278,-90.8902"/>
</g>
<!-- Node20 -->
<g id="node20" class="node"><title>Node20</title>
<g id="a_node20"><a xlink:href="current__function_8h.xhtml" target="_top" xlink:title="Declares GMX_CURRENT_FUNCTION for getting the current function name. ">
<polygon fill="white" stroke="black" points="1141,-56.5 1141,-86.5 1254,-86.5 1254,-56.5 1141,-56.5"/>
<text text-anchor="start" x="1149" y="-74.5" font-family="Helvetica,sans-Serif" font-size="10.00">gromacs/utility/current</text>
<text text-anchor="middle" x="1197.5" y="-63.5" font-family="Helvetica,sans-Serif" font-size="10.00">_function.h</text>
</a>
</g>
</g>
<!-- Node11&#45;&gt;Node20 -->
<g id="edge28" class="edge"><title>Node11&#45;&gt;Node20</title>
<path fill="none" stroke="midnightblue" d="M921.693,-184.955C993.115,-171.913 1121.37,-148.021 1130.5,-143 1151.6,-131.398 1169.98,-110.847 1182.12,-94.9169"/>
<polygon fill="midnightblue" stroke="midnightblue" points="1185.11,-96.7608 1188.21,-86.6282 1179.47,-92.6188 1185.11,-96.7608"/>
</g>
<!-- Node11&#45;&gt;Node21 -->
<g id="edge29" class="edge"><title>Node11&#45;&gt;Node21</title>
<path fill="none" stroke="midnightblue" d="M923.337,-184.934C934.862,-182.951 947.11,-180.873 958.5,-179 1034.34,-166.53 1121.57,-153.017 1179.97,-144.088"/>
<polygon fill="midnightblue" stroke="midnightblue" points="1180.81,-147.5 1190.17,-142.53 1179.75,-140.58 1180.81,-147.5"/>
</g>
<!-- Node18 -->
<g id="node18" class="node"><title>Node18</title>
<polygon fill="white" stroke="#bfbfbf" points="938,-0.5 938,-19.5 987,-19.5 987,-0.5 938,-0.5"/>
<text text-anchor="middle" x="962.5" y="-7.5" font-family="Helvetica,sans-Serif" font-size="10.00">stdint.h</text>
</g>
<!-- Node17&#45;&gt;Node18 -->
<g id="edge25" class="edge"><title>Node17&#45;&gt;Node18</title>
<path fill="none" stroke="midnightblue" d="M993.342,-61.9751C988.049,-53.2268 979.665,-39.3691 972.973,-28.3093"/>
<polygon fill="midnightblue" stroke="midnightblue" points="975.82,-26.2531 967.648,-19.5091 969.83,-29.8768 975.82,-26.2531"/>
</g>
<!-- Node19 -->
<g id="node19" class="node"><title>Node19</title>
<polygon fill="white" stroke="#bfbfbf" points="1005,-0.5 1005,-19.5 1064,-19.5 1064,-0.5 1005,-0.5"/>
<text text-anchor="middle" x="1034.5" y="-7.5" font-family="Helvetica,sans-Serif" font-size="10.00">inttypes.h</text>
</g>
<!-- Node17&#45;&gt;Node19 -->
<g id="edge26" class="edge"><title>Node17&#45;&gt;Node19</title>
<path fill="none" stroke="midnightblue" d="M1003.66,-61.9751C1008.95,-53.2268 1017.34,-39.3691 1024.03,-28.3093"/>
<polygon fill="midnightblue" stroke="midnightblue" points="1027.17,-29.8768 1029.35,-19.5091 1021.18,-26.2531 1027.17,-29.8768"/>
</g>
<!-- Node21&#45;&gt;Node17 -->
<g id="edge30" class="edge"><title>Node21&#45;&gt;Node17</title>
<path fill="none" stroke="midnightblue" d="M1210.97,-123.475C1166.95,-112.915 1091.91,-94.911 1043.8,-83.3689"/>
<polygon fill="midnightblue" stroke="midnightblue" points="1044.51,-79.9387 1033.97,-81.0091 1042.87,-86.7456 1044.51,-79.9387"/>
</g>
<!-- Node21&#45;&gt;Node20 -->
<g id="edge31" class="edge"><title>Node21&#45;&gt;Node20</title>
<path fill="none" stroke="midnightblue" d="M1239.48,-123.475C1233.22,-115.869 1223.77,-104.399 1215.42,-94.2649"/>
<polygon fill="midnightblue" stroke="midnightblue" points="1218.11,-92.0173 1209.05,-86.523 1212.7,-96.4673 1218.11,-92.0173"/>
</g>
<!-- Node23&#45;&gt;Node4 -->
<g id="edge37" class="edge"><title>Node23&#45;&gt;Node4</title>
<path fill="none" stroke="midnightblue" d="M680.146,-184.995C637.041,-176.108 568.116,-161.263 500.067,-143.271"/>
<polygon fill="midnightblue" stroke="midnightblue" points="500.601,-139.791 490.037,-140.594 498.796,-146.554 500.601,-139.791"/>
</g>
<!-- Node23&#45;&gt;Node5 -->
<g id="edge38" class="edge"><title>Node23&#45;&gt;Node5</title>
<path fill="none" stroke="midnightblue" d="M703.731,-184.975C681.649,-174.945 644.781,-158.2 619.361,-146.655"/>
<polygon fill="midnightblue" stroke="midnightblue" points="620.787,-143.458 610.234,-142.509 617.892,-149.831 620.787,-143.458"/>
</g>
<!-- Node24 -->
<g id="node24" class="node"><title>Node24</title>
<polygon fill="white" stroke="#bfbfbf" points="632,-123.5 632,-142.5 681,-142.5 681,-123.5 632,-123.5"/>
<text text-anchor="middle" x="656.5" y="-130.5" font-family="Helvetica,sans-Serif" font-size="10.00">cstdarg</text>
</g>
<!-- Node23&#45;&gt;Node24 -->
<g id="edge35" class="edge"><title>Node23&#45;&gt;Node24</title>
<path fill="none" stroke="midnightblue" d="M713.044,-184.975C702.752,-175.697 686.084,-160.671 673.506,-149.331"/>
<polygon fill="midnightblue" stroke="midnightblue" points="675.71,-146.605 665.939,-142.509 671.022,-151.805 675.71,-146.605"/>
</g>
<!-- Node25 -->
<g id="node25" class="node"><title>Node25</title>
<polygon fill="white" stroke="#bfbfbf" points="699.5,-123.5 699.5,-142.5 745.5,-142.5 745.5,-123.5 699.5,-123.5"/>
<text text-anchor="middle" x="722.5" y="-130.5" font-family="Helvetica,sans-Serif" font-size="10.00">cstring</text>
</g>
<!-- Node23&#45;&gt;Node25 -->
<g id="edge36" class="edge"><title>Node23&#45;&gt;Node25</title>
<path fill="none" stroke="midnightblue" d="M722.5,-184.975C722.5,-176.58 722.5,-163.481 722.5,-152.663"/>
<polygon fill="midnightblue" stroke="midnightblue" points="726,-152.509 722.5,-142.509 719,-152.509 726,-152.509"/>
</g>
<!-- Node26&#45;&gt;Node4 -->
<g id="edge41" class="edge"><title>Node26&#45;&gt;Node4</title>
<path fill="none" stroke="midnightblue" d="M393.252,-184.975C407.527,-175.431 430.897,-159.807 448.008,-148.368"/>
<polygon fill="midnightblue" stroke="midnightblue" points="450.404,-150.977 456.772,-142.509 446.514,-145.157 450.404,-150.977"/>
</g>
<!-- Node26&#45;&gt;Node6 -->
<g id="edge42" class="edge"><title>Node26&#45;&gt;Node6</title>
<path fill="none" stroke="midnightblue" d="M377.205,-184.975C373.891,-176.404 368.682,-162.927 364.451,-151.983"/>
<polygon fill="midnightblue" stroke="midnightblue" points="367.659,-150.575 360.789,-142.509 361.13,-153.098 367.659,-150.575"/>
</g>
<!-- Node26&#45;&gt;Node12 -->
<g id="edge40" class="edge"><title>Node26&#45;&gt;Node12</title>
<path fill="none" stroke="midnightblue" d="M401.848,-184.975C427.186,-174.857 469.638,-157.905 498.571,-146.351"/>
<polygon fill="midnightblue" stroke="midnightblue" points="500.203,-149.468 508.192,-142.509 497.607,-142.967 500.203,-149.468"/>
</g>
<!-- Node27 -->
<g id="node27" class="node"><title>Node27</title>
<g id="a_node27"><a xlink:href="textstream_8h.xhtml" target="_top" xlink:title="Declares interfaces for simple input/output streams. ">
<polygon fill="white" stroke="black" points="128.5,-123.5 128.5,-142.5 266.5,-142.5 266.5,-123.5 128.5,-123.5"/>
<text text-anchor="middle" x="197.5" y="-130.5" font-family="Helvetica,sans-Serif" font-size="10.00">gromacs/utility/textstream.h</text>
</a>
</g>
</g>
<!-- Node26&#45;&gt;Node27 -->
<g id="edge43" class="edge"><title>Node26&#45;&gt;Node27</title>
<path fill="none" stroke="midnightblue" d="M354.281,-184.975C322.482,-174.636 268.735,-157.161 233.183,-145.602"/>
<polygon fill="midnightblue" stroke="midnightblue" points="234.263,-142.273 223.671,-142.509 232.099,-148.93 234.263,-142.273"/>
</g>
<!-- Node27&#45;&gt;Node7 -->
<g id="edge44" class="edge"><title>Node27&#45;&gt;Node7</title>
<path fill="none" stroke="midnightblue" d="M208.962,-123.475C221.675,-114.02 242.413,-98.5961 257.753,-87.1871"/>
<polygon fill="midnightblue" stroke="midnightblue" points="260.124,-89.7854 266.059,-81.0091 255.946,-84.1686 260.124,-89.7854"/>
</g>
<!-- Node28&#45;&gt;Node4 -->
<g id="edge46" class="edge"><title>Node28&#45;&gt;Node4</title>
<path fill="none" stroke="midnightblue" d="M166.421,-184.993C172.495,-182.777 179.193,-180.572 185.5,-179 292.999,-152.205 326.26,-166.578 438.896,-142.789"/>
<polygon fill="midnightblue" stroke="midnightblue" points="439.919,-146.149 448.95,-140.61 438.436,-139.307 439.919,-146.149"/>
</g>
<!-- Node28&#45;&gt;Node6 -->
<g id="edge47" class="edge"><title>Node28&#45;&gt;Node6</title>
<path fill="none" stroke="midnightblue" d="M168.222,-184.854C173.836,-182.831 179.858,-180.757 185.5,-179 227.612,-165.889 276.301,-153.394 311.104,-144.912"/>
<polygon fill="midnightblue" stroke="midnightblue" points="312.089,-148.275 320.985,-142.521 310.443,-141.472 312.089,-148.275"/>
</g>
</g>
</svg>
