<?xml version="1.0" encoding="UTF-8" standalone="no"?>
<!DOCTYPE svg PUBLIC "-//W3C//DTD SVG 1.1//EN"
 "http://www.w3.org/Graphics/SVG/1.1/DTD/svg11.dtd">
<!-- Generated by graphviz version 2.38.0 (20140413.2041)
 -->
<!-- Title: src/gromacs/onlinehelp/helptopic.cpp Pages: 1 -->
<svg width="1484pt" height="296pt"
 viewBox="0.00 0.00 1483.50 296.00" xmlns="http://www.w3.org/2000/svg" xmlns:xlink="http://www.w3.org/1999/xlink">
<g id="graph0" class="graph" transform="scale(1 1) rotate(0) translate(4 292)">
<title>src/gromacs/onlinehelp/helptopic.cpp</title>
<polygon fill="white" stroke="none" points="-4,4 -4,-292 1479.5,-292 1479.5,4 -4,4"/>
<!-- Node1 -->
<g id="node1" class="node"><title>Node1</title>
<polygon fill="#bfbfbf" stroke="black" points="307.5,-257.5 307.5,-287.5 424.5,-287.5 424.5,-257.5 307.5,-257.5"/>
<text text-anchor="start" x="315.5" y="-275.5" font-family="Helvetica,sans-Serif" font-size="10.00">src/gromacs/onlinehelp</text>
<text text-anchor="middle" x="366" y="-264.5" font-family="Helvetica,sans-Serif" font-size="10.00">/helptopic.cpp</text>
</g>
<!-- Node2 -->
<g id="node2" class="node"><title>Node2</title>
<g id="a_node2"><a xlink:href="gmxpre_8h.xhtml" target="_top" xlink:title="Prerequisite header file for GROMACS build. ">
<polygon fill="white" stroke="black" points="23.5,-196 23.5,-215 80.5,-215 80.5,-196 23.5,-196"/>
<text text-anchor="middle" x="52" y="-203" font-family="Helvetica,sans-Serif" font-size="10.00">gmxpre.h</text>
</a>
</g>
</g>
<!-- Node1&#45;&gt;Node2 -->
<g id="edge1" class="edge"><title>Node1&#45;&gt;Node2</title>
<path fill="none" stroke="midnightblue" d="M307.325,-263.015C252.078,-254.45 167.25,-239.813 95,-221 91.7979,-220.166 88.4891,-219.216 85.1947,-218.209"/>
<polygon fill="midnightblue" stroke="midnightblue" points="86.0678,-214.814 75.4764,-215.083 83.924,-221.477 86.0678,-214.814"/>
</g>
<!-- Node3 -->
<g id="node3" class="node"><title>Node3</title>
<g id="a_node3"><a xlink:href="helptopic_8h.xhtml" target="_top" xlink:title="Declares helper classes for implementing gmx::IHelpTopic. ">
<polygon fill="white" stroke="black" points="369,-196 369,-215 433,-215 433,-196 369,-196"/>
<text text-anchor="middle" x="401" y="-203" font-family="Helvetica,sans-Serif" font-size="10.00">helptopic.h</text>
</a>
</g>
</g>
<!-- Node1&#45;&gt;Node3 -->
<g id="edge2" class="edge"><title>Node1&#45;&gt;Node3</title>
<path fill="none" stroke="midnightblue" d="M373.594,-257.396C378.836,-247.662 385.844,-234.646 391.462,-224.214"/>
<polygon fill="midnightblue" stroke="midnightblue" points="394.659,-225.659 396.318,-215.195 388.496,-222.34 394.659,-225.659"/>
</g>
<!-- Node7 -->
<g id="node7" class="node"><title>Node7</title>
<g id="a_node7"><a xlink:href="stringutil_8h.xhtml" target="_top" xlink:title="Declares common string utility and formatting routines. ">
<polygon fill="white" stroke="black" points="11,-129 11,-148 139,-148 139,-129 11,-129"/>
<text text-anchor="middle" x="75" y="-136" font-family="Helvetica,sans-Serif" font-size="10.00">gromacs/utility/stringutil.h</text>
</a>
</g>
</g>
<!-- Node1&#45;&gt;Node7 -->
<g id="edge40" class="edge"><title>Node1&#45;&gt;Node7</title>
<path fill="none" stroke="midnightblue" d="M307.294,-271.317C255.884,-268.472 181.278,-257.578 128,-221 105.213,-205.355 89.8903,-176.373 81.8077,-157.521"/>
<polygon fill="midnightblue" stroke="midnightblue" points="84.9564,-155.971 77.9719,-148.004 78.4639,-158.587 84.9564,-155.971"/>
</g>
<!-- Node12 -->
<g id="node12" class="node"><title>Node12</title>
<polygon fill="white" stroke="#bfbfbf" points="257.5,-196 257.5,-215 292.5,-215 292.5,-196 257.5,-196"/>
<text text-anchor="middle" x="275" y="-203" font-family="Helvetica,sans-Serif" font-size="10.00">map</text>
</g>
<!-- Node1&#45;&gt;Node12 -->
<g id="edge13" class="edge"><title>Node1&#45;&gt;Node12</title>
<path fill="none" stroke="midnightblue" d="M346.254,-257.396C331.135,-246.597 310.359,-231.756 295.142,-220.887"/>
<polygon fill="midnightblue" stroke="midnightblue" points="297.082,-217.971 286.91,-215.007 293.013,-223.667 297.082,-217.971"/>
</g>
<!-- Node13 -->
<g id="node13" class="node"><title>Node13</title>
<polygon fill="white" stroke="#bfbfbf" points="311,-196 311,-215 351,-215 351,-196 311,-196"/>
<text text-anchor="middle" x="331" y="-203" font-family="Helvetica,sans-Serif" font-size="10.00">utility</text>
</g>
<!-- Node1&#45;&gt;Node13 -->
<g id="edge14" class="edge"><title>Node1&#45;&gt;Node13</title>
<path fill="none" stroke="midnightblue" d="M358.406,-257.396C353.164,-247.662 346.156,-234.646 340.538,-224.214"/>
<polygon fill="midnightblue" stroke="midnightblue" points="343.504,-222.34 335.682,-215.195 337.341,-225.659 343.504,-222.34"/>
</g>
<!-- Node14 -->
<g id="node14" class="node"><title>Node14</title>
<g id="a_node14"><a xlink:href="helpformat_8h.xhtml" target="_top" xlink:title="Declares common string formatting routines for online help. ">
<polygon fill="white" stroke="black" points="451.5,-190.5 451.5,-220.5 552.5,-220.5 552.5,-190.5 451.5,-190.5"/>
<text text-anchor="start" x="459.5" y="-208.5" font-family="Helvetica,sans-Serif" font-size="10.00">gromacs/onlinehelp</text>
<text text-anchor="middle" x="502" y="-197.5" font-family="Helvetica,sans-Serif" font-size="10.00">/helpformat.h</text>
</a>
</g>
</g>
<!-- Node1&#45;&gt;Node14 -->
<g id="edge15" class="edge"><title>Node1&#45;&gt;Node14</title>
<path fill="none" stroke="midnightblue" d="M395.51,-257.396C415.381,-247.899 441.791,-235.276 463.338,-224.978"/>
<polygon fill="midnightblue" stroke="midnightblue" points="465.034,-228.047 472.548,-220.577 462.016,-221.731 465.034,-228.047"/>
</g>
<!-- Node15 -->
<g id="node15" class="node"><title>Node15</title>
<g id="a_node15"><a xlink:href="helpwritercontext_8h.xhtml" target="_top" xlink:title="Declares gmx::HelpWriterContext. ">
<polygon fill="white" stroke="black" points="137,-190.5 137,-220.5 239,-220.5 239,-190.5 137,-190.5"/>
<text text-anchor="start" x="145" y="-208.5" font-family="Helvetica,sans-Serif" font-size="10.00">gromacs/onlinehelp</text>
<text text-anchor="middle" x="188" y="-197.5" font-family="Helvetica,sans-Serif" font-size="10.00">/helpwritercontext.h</text>
</a>
</g>
</g>
<!-- Node1&#45;&gt;Node15 -->
<g id="edge18" class="edge"><title>Node1&#45;&gt;Node15</title>
<path fill="none" stroke="midnightblue" d="M327.377,-257.396C300.552,-247.601 264.625,-234.481 235.965,-224.015"/>
<polygon fill="midnightblue" stroke="midnightblue" points="237.142,-220.719 226.548,-220.577 234.741,-227.294 237.142,-220.719"/>
</g>
<!-- Node16 -->
<g id="node16" class="node"><title>Node16</title>
<g id="a_node16"><a xlink:href="exceptions_8h.xhtml" target="_top" xlink:title="Declares common exception classes and macros for fatal error handling. ">
<polygon fill="white" stroke="black" points="948.5,-196 948.5,-215 1087.5,-215 1087.5,-196 948.5,-196"/>
<text text-anchor="middle" x="1018" y="-203" font-family="Helvetica,sans-Serif" font-size="10.00">gromacs/utility/exceptions.h</text>
</a>
</g>
</g>
<!-- Node1&#45;&gt;Node16 -->
<g id="edge22" class="edge"><title>Node1&#45;&gt;Node16</title>
<path fill="none" stroke="midnightblue" d="M424.722,-265.646C542.022,-253.952 805.429,-227.692 938.233,-214.452"/>
<polygon fill="midnightblue" stroke="midnightblue" points="938.739,-217.919 948.342,-213.444 938.044,-210.954 938.739,-217.919"/>
</g>
<!-- Node26 -->
<g id="node26" class="node"><title>Node26</title>
<g id="a_node26"><a xlink:href="gmxassert_8h.xhtml" target="_top" xlink:title="Defines assert macros customized for Gromacs. ">
<polygon fill="white" stroke="black" points="1338.5,-129 1338.5,-148 1475.5,-148 1475.5,-129 1338.5,-129"/>
<text text-anchor="middle" x="1407" y="-136" font-family="Helvetica,sans-Serif" font-size="10.00">gromacs/utility/gmxassert.h</text>
</a>
</g>
</g>
<!-- Node1&#45;&gt;Node26 -->
<g id="edge39" class="edge"><title>Node1&#45;&gt;Node26</title>
<path fill="none" stroke="midnightblue" d="M424.707,-271.177C549.374,-269.674 849.401,-261.727 1097,-221 1198.27,-204.342 1314.52,-169.387 1371.6,-151.143"/>
<polygon fill="midnightblue" stroke="midnightblue" points="1372.78,-154.441 1381.23,-148.045 1370.64,-147.777 1372.78,-154.441"/>
</g>
<!-- Node27 -->
<g id="node27" class="node"><title>Node27</title>
<g id="a_node27"><a xlink:href="textwriter_8h.xhtml" target="_top" xlink:title="Declares gmx::TextWriter. ">
<polygon fill="white" stroke="black" points="571,-196 571,-215 703,-215 703,-196 571,-196"/>
<text text-anchor="middle" x="637" y="-203" font-family="Helvetica,sans-Serif" font-size="10.00">gromacs/utility/textwriter.h</text>
</a>
</g>
</g>
<!-- Node1&#45;&gt;Node27 -->
<g id="edge41" class="edge"><title>Node1&#45;&gt;Node27</title>
<path fill="none" stroke="midnightblue" d="M424.469,-257.476C474.521,-245.471 545.571,-228.43 591.478,-217.419"/>
<polygon fill="midnightblue" stroke="midnightblue" points="592.534,-220.765 601.442,-215.029 590.901,-213.958 592.534,-220.765"/>
</g>
<!-- Node4 -->
<g id="node4" class="node"><title>Node4</title>
<polygon fill="white" stroke="#bfbfbf" points="476,-62 476,-81 528,-81 528,-62 476,-62"/>
<text text-anchor="middle" x="502" y="-69" font-family="Helvetica,sans-Serif" font-size="10.00">memory</text>
</g>
<!-- Node3&#45;&gt;Node4 -->
<g id="edge3" class="edge"><title>Node3&#45;&gt;Node4</title>
<path fill="none" stroke="midnightblue" d="M400.917,-195.761C401.191,-179.804 403.788,-145.522 420,-123 432.197,-106.055 452.006,-93.6256 469.099,-85.3379"/>
<polygon fill="midnightblue" stroke="midnightblue" points="470.608,-88.4964 478.25,-81.1574 467.7,-82.1293 470.608,-88.4964"/>
</g>
<!-- Node5 -->
<g id="node5" class="node"><title>Node5</title>
<g id="a_node5"><a xlink:href="ihelptopic_8h.xhtml" target="_top" xlink:title="Declares gmx::IHelpTopic. ">
<polygon fill="white" stroke="black" points="233.5,-123.5 233.5,-153.5 334.5,-153.5 334.5,-123.5 233.5,-123.5"/>
<text text-anchor="start" x="241.5" y="-141.5" font-family="Helvetica,sans-Serif" font-size="10.00">gromacs/onlinehelp</text>
<text text-anchor="middle" x="284" y="-130.5" font-family="Helvetica,sans-Serif" font-size="10.00">/ihelptopic.h</text>
</a>
</g>
</g>
<!-- Node3&#45;&gt;Node5 -->
<g id="edge4" class="edge"><title>Node3&#45;&gt;Node5</title>
<path fill="none" stroke="midnightblue" d="M385.221,-195.734C368.116,-186.231 340.299,-170.777 318.149,-158.472"/>
<polygon fill="midnightblue" stroke="midnightblue" points="319.802,-155.386 309.36,-153.589 316.402,-161.505 319.802,-155.386"/>
</g>
<!-- Node6 -->
<g id="node6" class="node"><title>Node6</title>
<g id="a_node6"><a xlink:href="classhelpers_8h.xhtml" target="_top" xlink:title="Declares common utility classes and macros. ">
<polygon fill="white" stroke="black" points="429,-129 429,-148 575,-148 575,-129 429,-129"/>
<text text-anchor="middle" x="502" y="-136" font-family="Helvetica,sans-Serif" font-size="10.00">gromacs/utility/classhelpers.h</text>
</a>
</g>
</g>
<!-- Node3&#45;&gt;Node6 -->
<g id="edge6" class="edge"><title>Node3&#45;&gt;Node6</title>
<path fill="none" stroke="midnightblue" d="M414.621,-195.734C431.431,-184.916 460.228,-166.383 480.144,-153.566"/>
<polygon fill="midnightblue" stroke="midnightblue" points="482.08,-156.482 488.594,-148.127 478.291,-150.596 482.08,-156.482"/>
</g>
<!-- Node3&#45;&gt;Node7 -->
<g id="edge8" class="edge"><title>Node3&#45;&gt;Node7</title>
<path fill="none" stroke="midnightblue" d="M379.079,-195.999C372.966,-193.834 366.279,-191.655 360,-190 289.408,-171.398 207.154,-157.646 149.207,-149.23"/>
<polygon fill="midnightblue" stroke="midnightblue" points="149.436,-145.727 139.041,-147.771 148.442,-152.656 149.436,-145.727"/>
</g>
<!-- Node5&#45;&gt;Node4 -->
<g id="edge5" class="edge"><title>Node5&#45;&gt;Node4</title>
<path fill="none" stroke="midnightblue" d="M331.034,-123.476C371.536,-111.4 429.13,-94.2274 466.035,-83.2235"/>
<polygon fill="midnightblue" stroke="midnightblue" points="467.281,-86.5043 475.864,-80.2928 465.281,-79.7962 467.281,-86.5043"/>
</g>
<!-- Node6&#45;&gt;Node4 -->
<g id="edge7" class="edge"><title>Node6&#45;&gt;Node4</title>
<path fill="none" stroke="midnightblue" d="M502,-128.734C502,-119.183 502,-103.618 502,-91.2829"/>
<polygon fill="midnightblue" stroke="midnightblue" points="505.5,-91.1273 502,-81.1273 498.5,-91.1273 505.5,-91.1273"/>
</g>
<!-- Node8 -->
<g id="node8" class="node"><title>Node8</title>
<polygon fill="white" stroke="#bfbfbf" points="64.5,-62 64.5,-81 113.5,-81 113.5,-62 64.5,-62"/>
<text text-anchor="middle" x="89" y="-69" font-family="Helvetica,sans-Serif" font-size="10.00">cstdarg</text>
</g>
<!-- Node7&#45;&gt;Node8 -->
<g id="edge9" class="edge"><title>Node7&#45;&gt;Node8</title>
<path fill="none" stroke="midnightblue" d="M76.8881,-128.734C78.9663,-119.085 82.3661,-103.3 85.0356,-90.9063"/>
<polygon fill="midnightblue" stroke="midnightblue" points="88.4577,-91.6401 87.1418,-81.1273 81.6146,-90.1661 88.4577,-91.6401"/>
</g>
<!-- Node9 -->
<g id="node9" class="node"><title>Node9</title>
<polygon fill="white" stroke="#bfbfbf" points="0,-62 0,-81 46,-81 46,-62 0,-62"/>
<text text-anchor="middle" x="23" y="-69" font-family="Helvetica,sans-Serif" font-size="10.00">cstring</text>
</g>
<!-- Node7&#45;&gt;Node9 -->
<g id="edge10" class="edge"><title>Node7&#45;&gt;Node9</title>
<path fill="none" stroke="midnightblue" d="M67.987,-128.734C59.8783,-118.598 46.352,-101.69 36.2445,-89.0556"/>
<polygon fill="midnightblue" stroke="midnightblue" points="38.8819,-86.7496 29.9018,-81.1273 33.4158,-91.1225 38.8819,-86.7496"/>
</g>
<!-- Node10 -->
<g id="node10" class="node"><title>Node10</title>
<polygon fill="white" stroke="#bfbfbf" points="342.5,-62 342.5,-81 383.5,-81 383.5,-62 342.5,-62"/>
<text text-anchor="middle" x="363" y="-69" font-family="Helvetica,sans-Serif" font-size="10.00">string</text>
</g>
<!-- Node7&#45;&gt;Node10 -->
<g id="edge11" class="edge"><title>Node7&#45;&gt;Node10</title>
<path fill="none" stroke="midnightblue" d="M112.947,-128.936C170.655,-115.911 279.354,-91.3783 332.367,-79.4136"/>
<polygon fill="midnightblue" stroke="midnightblue" points="333.212,-82.8111 342.196,-77.1954 331.671,-75.9829 333.212,-82.8111"/>
</g>
<!-- Node11 -->
<g id="node11" class="node"><title>Node11</title>
<polygon fill="white" stroke="#bfbfbf" points="145,-62 145,-81 189,-81 189,-62 145,-62"/>
<text text-anchor="middle" x="167" y="-69" font-family="Helvetica,sans-Serif" font-size="10.00">vector</text>
</g>
<!-- Node7&#45;&gt;Node11 -->
<g id="edge12" class="edge"><title>Node7&#45;&gt;Node11</title>
<path fill="none" stroke="midnightblue" d="M87.4075,-128.734C102.581,-118.013 128.478,-99.7165 146.599,-86.9137"/>
<polygon fill="midnightblue" stroke="midnightblue" points="148.641,-89.7562 154.789,-81.1273 144.602,-84.0391 148.641,-89.7562"/>
</g>
<!-- Node14&#45;&gt;Node6 -->
<g id="edge17" class="edge"><title>Node14&#45;&gt;Node6</title>
<path fill="none" stroke="midnightblue" d="M502,-190.396C502,-181.064 502,-168.714 502,-158.517"/>
<polygon fill="midnightblue" stroke="midnightblue" points="505.5,-158.195 502,-148.195 498.5,-158.195 505.5,-158.195"/>
</g>
<!-- Node14&#45;&gt;Node10 -->
<g id="edge16" class="edge"><title>Node14&#45;&gt;Node10</title>
<path fill="none" stroke="midnightblue" d="M473.064,-190.473C456.388,-181.507 435.689,-168.8 420,-154 399.946,-135.083 382.735,-108.06 372.621,-90.401"/>
<polygon fill="midnightblue" stroke="midnightblue" points="375.435,-88.259 367.518,-81.2177 369.316,-91.6589 375.435,-88.259"/>
</g>
<!-- Node15&#45;&gt;Node6 -->
<g id="edge21" class="edge"><title>Node15&#45;&gt;Node6</title>
<path fill="none" stroke="midnightblue" d="M239.03,-192.018C242.062,-191.323 245.07,-190.645 248,-190 315.922,-175.047 394.5,-159.727 446.057,-149.942"/>
<polygon fill="midnightblue" stroke="midnightblue" points="446.822,-153.359 455.996,-148.061 445.52,-146.481 446.822,-153.359"/>
</g>
<!-- Node15&#45;&gt;Node10 -->
<g id="edge19" class="edge"><title>Node15&#45;&gt;Node10</title>
<path fill="none" stroke="midnightblue" d="M190.662,-190.428C194.773,-172.425 204.337,-141.379 224,-123 254.202,-94.7699 301.4,-82.0736 332.267,-76.5385"/>
<polygon fill="midnightblue" stroke="midnightblue" points="333.148,-79.9406 342.449,-74.8655 332.014,-73.0332 333.148,-79.9406"/>
</g>
<!-- Node15&#45;&gt;Node11 -->
<g id="edge20" class="edge"><title>Node15&#45;&gt;Node11</title>
<path fill="none" stroke="midnightblue" d="M185.753,-190.374C181.938,-166.397 174.198,-117.748 169.952,-91.0561"/>
<polygon fill="midnightblue" stroke="midnightblue" points="173.396,-90.4231 168.368,-81.0973 166.482,-91.523 173.396,-90.4231"/>
</g>
<!-- Node16&#45;&gt;Node4 -->
<g id="edge26" class="edge"><title>Node16&#45;&gt;Node4</title>
<path fill="none" stroke="midnightblue" d="M1087.5,-198.277C1159.88,-189.253 1257.26,-168.36 1215,-123 1168.57,-73.1692 677.448,-71.6658 538.46,-72.2487"/>
<polygon fill="midnightblue" stroke="midnightblue" points="538.311,-68.7493 528.329,-72.2977 538.345,-75.7492 538.311,-68.7493"/>
</g>
<!-- Node16&#45;&gt;Node6 -->
<g id="edge34" class="edge"><title>Node16&#45;&gt;Node6</title>
<path fill="none" stroke="midnightblue" d="M950.277,-195.969C854.716,-183.931 680.739,-162.016 579.928,-149.317"/>
<polygon fill="midnightblue" stroke="midnightblue" points="580.166,-145.819 569.807,-148.042 579.291,-152.764 580.166,-145.819"/>
</g>
<!-- Node16&#45;&gt;Node10 -->
<g id="edge27" class="edge"><title>Node16&#45;&gt;Node10</title>
<path fill="none" stroke="midnightblue" d="M998.557,-195.839C977.876,-186.384 944.429,-170.394 917,-154 896.466,-141.728 895.462,-131.228 873,-123 702.899,-60.6953 646.987,-107.514 467,-87 442.321,-84.1872 414.452,-80.2612 393.78,-77.2037"/>
<polygon fill="midnightblue" stroke="midnightblue" points="394.088,-73.7109 383.68,-75.6944 393.053,-80.634 394.088,-73.7109"/>
</g>
<!-- Node16&#45;&gt;Node11 -->
<g id="edge30" class="edge"><title>Node16&#45;&gt;Node11</title>
<path fill="none" stroke="midnightblue" d="M980.759,-195.98C950.354,-188.006 907.009,-174.257 873,-154 855.431,-143.535 857.794,-131.06 839,-123 735.398,-78.5671 445.376,-95.905 333,-87 286.42,-83.3089 232.537,-78.5033 199.108,-75.459"/>
<polygon fill="midnightblue" stroke="midnightblue" points="199.286,-71.9607 189.009,-74.5361 198.649,-78.9316 199.286,-71.9607"/>
</g>
<!-- Node17 -->
<g id="node17" class="node"><title>Node17</title>
<polygon fill="white" stroke="#bfbfbf" points="787.5,-129 787.5,-148 830.5,-148 830.5,-129 787.5,-129"/>
<text text-anchor="middle" x="809" y="-136" font-family="Helvetica,sans-Serif" font-size="10.00">cstdio</text>
</g>
<!-- Node16&#45;&gt;Node17 -->
<g id="edge23" class="edge"><title>Node16&#45;&gt;Node17</title>
<path fill="none" stroke="midnightblue" d="M985.174,-195.957C950.149,-186.602 893.191,-170.693 845,-154 843.09,-153.338 841.133,-152.633 839.167,-151.902"/>
<polygon fill="midnightblue" stroke="midnightblue" points="840.017,-148.479 829.428,-148.135 837.492,-155.007 840.017,-148.479"/>
</g>
<!-- Node18 -->
<g id="node18" class="node"><title>Node18</title>
<polygon fill="white" stroke="#bfbfbf" points="925.5,-129 925.5,-148 970.5,-148 970.5,-129 925.5,-129"/>
<text text-anchor="middle" x="948" y="-136" font-family="Helvetica,sans-Serif" font-size="10.00">cstdlib</text>
</g>
<!-- Node16&#45;&gt;Node18 -->
<g id="edge24" class="edge"><title>Node16&#45;&gt;Node18</title>
<path fill="none" stroke="midnightblue" d="M1008.56,-195.734C997.329,-185.305 978.379,-167.709 964.663,-154.973"/>
<polygon fill="midnightblue" stroke="midnightblue" points="967,-152.367 957.291,-148.127 962.237,-157.497 967,-152.367"/>
</g>
<!-- Node19 -->
<g id="node19" class="node"><title>Node19</title>
<polygon fill="white" stroke="#bfbfbf" points="988.5,-129 988.5,-148 1047.5,-148 1047.5,-129 988.5,-129"/>
<text text-anchor="middle" x="1018" y="-136" font-family="Helvetica,sans-Serif" font-size="10.00">exception</text>
</g>
<!-- Node16&#45;&gt;Node19 -->
<g id="edge25" class="edge"><title>Node16&#45;&gt;Node19</title>
<path fill="none" stroke="midnightblue" d="M1018,-195.734C1018,-186.183 1018,-170.618 1018,-158.283"/>
<polygon fill="midnightblue" stroke="midnightblue" points="1021.5,-158.127 1018,-148.127 1014.5,-158.127 1021.5,-158.127"/>
</g>
<!-- Node20 -->
<g id="node20" class="node"><title>Node20</title>
<polygon fill="white" stroke="#bfbfbf" points="1066,-129 1066,-148 1128,-148 1128,-129 1066,-129"/>
<text text-anchor="middle" x="1097" y="-136" font-family="Helvetica,sans-Serif" font-size="10.00">type_traits</text>
</g>
<!-- Node16&#45;&gt;Node20 -->
<g id="edge28" class="edge"><title>Node16&#45;&gt;Node20</title>
<path fill="none" stroke="midnightblue" d="M1028.65,-195.734C1041.45,-185.208 1063.12,-167.379 1078.63,-154.617"/>
<polygon fill="midnightblue" stroke="midnightblue" points="1081.02,-157.184 1086.51,-148.127 1076.57,-151.778 1081.02,-157.184"/>
</g>
<!-- Node21 -->
<g id="node21" class="node"><title>Node21</title>
<polygon fill="white" stroke="#bfbfbf" points="1146.5,-129 1146.5,-148 1205.5,-148 1205.5,-129 1146.5,-129"/>
<text text-anchor="middle" x="1176" y="-136" font-family="Helvetica,sans-Serif" font-size="10.00">typeindex</text>
</g>
<!-- Node16&#45;&gt;Node21 -->
<g id="edge29" class="edge"><title>Node16&#45;&gt;Node21</title>
<path fill="none" stroke="midnightblue" d="M1038.98,-195.869C1066.25,-184.65 1114.07,-164.977 1145.39,-152.092"/>
<polygon fill="midnightblue" stroke="midnightblue" points="1147.02,-155.209 1154.93,-148.167 1144.35,-148.735 1147.02,-155.209"/>
</g>
<!-- Node22 -->
<g id="node22" class="node"><title>Node22</title>
<g id="a_node22"><a xlink:href="basedefinitions_8h.xhtml" target="_top" xlink:title="Basic types and macros used throughout GROMACS. ">
<polygon fill="white" stroke="black" points="1184.5,-62 1184.5,-81 1341.5,-81 1341.5,-62 1184.5,-62"/>
<text text-anchor="middle" x="1263" y="-69" font-family="Helvetica,sans-Serif" font-size="10.00">gromacs/utility/basedefinitions.h</text>
</a>
</g>
</g>
<!-- Node16&#45;&gt;Node22 -->
<g id="edge31" class="edge"><title>Node16&#45;&gt;Node22</title>
<path fill="none" stroke="midnightblue" d="M1087.74,-197.653C1147.08,-190.357 1226.09,-176.672 1248,-154 1263.98,-137.465 1265.85,-109.809 1265.01,-91.3636"/>
<polygon fill="midnightblue" stroke="midnightblue" points="1268.48,-90.9527 1264.23,-81.2505 1261.5,-91.4894 1268.48,-90.9527"/>
</g>
<!-- Node25 -->
<g id="node25" class="node"><title>Node25</title>
<g id="a_node25"><a xlink:href="current__function_8h.xhtml" target="_top" xlink:title="Declares GMX_CURRENT_FUNCTION for getting the current function name. ">
<polygon fill="white" stroke="black" points="1359.5,-56.5 1359.5,-86.5 1472.5,-86.5 1472.5,-56.5 1359.5,-56.5"/>
<text text-anchor="start" x="1367.5" y="-74.5" font-family="Helvetica,sans-Serif" font-size="10.00">gromacs/utility/current</text>
<text text-anchor="middle" x="1416" y="-63.5" font-family="Helvetica,sans-Serif" font-size="10.00">_function.h</text>
</a>
</g>
</g>
<!-- Node16&#45;&gt;Node25 -->
<g id="edge35" class="edge"><title>Node16&#45;&gt;Node25</title>
<path fill="none" stroke="midnightblue" d="M1087.75,-196.336C1139.01,-188.94 1209.76,-175.785 1269,-154 1280.78,-149.667 1343.16,-114.329 1382.77,-91.6296"/>
<polygon fill="midnightblue" stroke="midnightblue" points="1384.65,-94.5878 1391.58,-86.5759 1381.17,-88.5159 1384.65,-94.5878"/>
</g>
<!-- Node16&#45;&gt;Node26 -->
<g id="edge36" class="edge"><title>Node16&#45;&gt;Node26</title>
<path fill="none" stroke="midnightblue" d="M1070.55,-195.982C1131.52,-186.062 1235.09,-169.103 1324,-154 1332,-152.642 1340.42,-151.191 1348.72,-149.753"/>
<polygon fill="midnightblue" stroke="midnightblue" points="1349.48,-153.173 1358.74,-148.011 1348.28,-146.276 1349.48,-153.173"/>
</g>
<!-- Node23 -->
<g id="node23" class="node"><title>Node23</title>
<polygon fill="white" stroke="#bfbfbf" points="1202.5,-0.5 1202.5,-19.5 1251.5,-19.5 1251.5,-0.5 1202.5,-0.5"/>
<text text-anchor="middle" x="1227" y="-7.5" font-family="Helvetica,sans-Serif" font-size="10.00">stdint.h</text>
</g>
<!-- Node22&#45;&gt;Node23 -->
<g id="edge32" class="edge"><title>Node22&#45;&gt;Node23</title>
<path fill="none" stroke="midnightblue" d="M1257.84,-61.9751C1252.55,-53.2268 1244.16,-39.3691 1237.47,-28.3093"/>
<polygon fill="midnightblue" stroke="midnightblue" points="1240.32,-26.2531 1232.15,-19.5091 1234.33,-29.8768 1240.32,-26.2531"/>
</g>
<!-- Node24 -->
<g id="node24" class="node"><title>Node24</title>
<polygon fill="white" stroke="#bfbfbf" points="1269.5,-0.5 1269.5,-19.5 1328.5,-19.5 1328.5,-0.5 1269.5,-0.5"/>
<text text-anchor="middle" x="1299" y="-7.5" font-family="Helvetica,sans-Serif" font-size="10.00">inttypes.h</text>
</g>
<!-- Node22&#45;&gt;Node24 -->
<g id="edge33" class="edge"><title>Node22&#45;&gt;Node24</title>
<path fill="none" stroke="midnightblue" d="M1268.16,-61.9751C1273.45,-53.2268 1281.84,-39.3691 1288.53,-28.3093"/>
<polygon fill="midnightblue" stroke="midnightblue" points="1291.67,-29.8768 1293.85,-19.5091 1285.68,-26.2531 1291.67,-29.8768"/>
</g>
<!-- Node26&#45;&gt;Node22 -->
<g id="edge37" class="edge"><title>Node26&#45;&gt;Node22</title>
<path fill="none" stroke="midnightblue" d="M1387.88,-128.869C1363.24,-117.748 1320.19,-98.3167 1291.64,-85.4286"/>
<polygon fill="midnightblue" stroke="midnightblue" points="1292.76,-82.0914 1282.2,-81.1672 1289.88,-88.4715 1292.76,-82.0914"/>
</g>
<!-- Node26&#45;&gt;Node25 -->
<g id="edge38" class="edge"><title>Node26&#45;&gt;Node25</title>
<path fill="none" stroke="midnightblue" d="M1408.21,-128.734C1409.35,-120.541 1411.1,-107.923 1412.65,-96.7136"/>
<polygon fill="midnightblue" stroke="midnightblue" points="1416.14,-96.9746 1414.05,-86.589 1409.21,-96.0145 1416.14,-96.9746"/>
</g>
<!-- Node27&#45;&gt;Node6 -->
<g id="edge44" class="edge"><title>Node27&#45;&gt;Node6</title>
<path fill="none" stroke="midnightblue" d="M619.073,-195.869C596.077,-184.796 555.971,-165.486 529.203,-152.598"/>
<polygon fill="midnightblue" stroke="midnightblue" points="530.53,-149.352 520.001,-148.167 527.493,-155.659 530.53,-149.352"/>
</g>
<!-- Node27&#45;&gt;Node10 -->
<g id="edge43" class="edge"><title>Node27&#45;&gt;Node10</title>
<path fill="none" stroke="midnightblue" d="M633.904,-195.772C627.442,-178.882 610.849,-141.742 584,-123 553.431,-101.661 447.076,-84.2487 393.844,-76.6378"/>
<polygon fill="midnightblue" stroke="midnightblue" points="394.03,-73.1297 383.641,-75.2063 393.057,-80.0618 394.03,-73.1297"/>
</g>
<!-- Node27&#45;&gt;Node17 -->
<g id="edge42" class="edge"><title>Node27&#45;&gt;Node17</title>
<path fill="none" stroke="midnightblue" d="M663.265,-195.914C691.794,-186.398 738.571,-170.241 778,-154 779.373,-153.434 780.774,-152.841 782.184,-152.23"/>
<polygon fill="midnightblue" stroke="midnightblue" points="783.741,-155.368 791.422,-148.07 780.867,-148.985 783.741,-155.368"/>
</g>
<!-- Node28 -->
<g id="node28" class="node"><title>Node28</title>
<g id="a_node28"><a xlink:href="textstream_8h.xhtml" target="_top" xlink:title="Declares interfaces for simple input/output streams. ">
<polygon fill="white" stroke="black" points="631,-129 631,-148 769,-148 769,-129 631,-129"/>
<text text-anchor="middle" x="700" y="-136" font-family="Helvetica,sans-Serif" font-size="10.00">gromacs/utility/textstream.h</text>
</a>
</g>
</g>
<!-- Node27&#45;&gt;Node28 -->
<g id="edge45" class="edge"><title>Node27&#45;&gt;Node28</title>
<path fill="none" stroke="midnightblue" d="M645.496,-195.734C655.509,-185.403 672.341,-168.037 684.656,-155.332"/>
<polygon fill="midnightblue" stroke="midnightblue" points="687.192,-157.744 691.638,-148.127 682.165,-152.872 687.192,-157.744"/>
</g>
<!-- Node28&#45;&gt;Node4 -->
<g id="edge46" class="edge"><title>Node28&#45;&gt;Node4</title>
<path fill="none" stroke="midnightblue" d="M673.707,-128.869C638.773,-117.4 576.919,-97.0945 537.763,-84.2403"/>
<polygon fill="midnightblue" stroke="midnightblue" points="538.679,-80.8574 528.086,-81.0637 536.496,-87.5082 538.679,-80.8574"/>
</g>
</g>
</svg>
