<?xml version="1.0" encoding="UTF-8" standalone="no"?>
<!DOCTYPE svg PUBLIC "-//W3C//DTD SVG 1.1//EN"
 "http://www.w3.org/Graphics/SVG/1.1/DTD/svg11.dtd">
<!-- Generated by graphviz version 2.38.0 (20140413.2041)
 -->
<!-- Title: src/gromacs/onlinehelp/helpformat.h Pages: 1 -->
<svg width="679pt" height="106pt"
 viewBox="0.00 0.00 679.00 106.00" xmlns="http://www.w3.org/2000/svg" xmlns:xlink="http://www.w3.org/1999/xlink">
<g id="graph0" class="graph" transform="scale(1 1) rotate(0) translate(4 102)">
<title>src/gromacs/onlinehelp/helpformat.h</title>
<polygon fill="white" stroke="none" points="-4,4 -4,-102 675,-102 675,4 -4,4"/>
<!-- Node1 -->
<g id="node1" class="node"><title>Node1</title>
<polygon fill="#bfbfbf" stroke="black" points="284,-67.5 284,-97.5 401,-97.5 401,-67.5 284,-67.5"/>
<text text-anchor="start" x="292" y="-85.5" font-family="Helvetica,sans-Serif" font-size="10.00">src/gromacs/onlinehelp</text>
<text text-anchor="middle" x="342.5" y="-74.5" font-family="Helvetica,sans-Serif" font-size="10.00">/helpformat.h</text>
</g>
<!-- Node2 -->
<g id="node2" class="node"><title>Node2</title>
<g id="a_node2"><a xlink:href="cmdlinehelpmodule_8cpp.xhtml" target="_top" xlink:title="Implements gmx::CommandLineHelpModule. ">
<polygon fill="white" stroke="black" points="0,-0.5 0,-30.5 131,-30.5 131,-0.5 0,-0.5"/>
<text text-anchor="start" x="8" y="-18.5" font-family="Helvetica,sans-Serif" font-size="10.00">src/gromacs/commandline</text>
<text text-anchor="middle" x="65.5" y="-7.5" font-family="Helvetica,sans-Serif" font-size="10.00">/cmdlinehelpmodule.cpp</text>
</a>
</g>
</g>
<!-- Node1&#45;&gt;Node2 -->
<g id="edge1" class="edge"><title>Node1&#45;&gt;Node2</title>
<path fill="none" stroke="midnightblue" d="M273.969,-65.4187C228.455,-54.7385 169.269,-40.85 125.594,-30.6015"/>
<polygon fill="midnightblue" stroke="midnightblue" points="273.22,-68.838 283.755,-67.7152 274.819,-62.0231 273.22,-68.838"/>
</g>
<!-- Node3 -->
<g id="node3" class="node"><title>Node3</title>
<g id="a_node3"><a xlink:href="helpformat_8cpp.xhtml" target="_top" xlink:title="Implements functions in helpformat.h. ">
<polygon fill="white" stroke="black" points="149,-0.5 149,-30.5 266,-30.5 266,-0.5 149,-0.5"/>
<text text-anchor="start" x="157" y="-18.5" font-family="Helvetica,sans-Serif" font-size="10.00">src/gromacs/onlinehelp</text>
<text text-anchor="middle" x="207.5" y="-7.5" font-family="Helvetica,sans-Serif" font-size="10.00">/helpformat.cpp</text>
</a>
</g>
</g>
<!-- Node1&#45;&gt;Node3 -->
<g id="edge2" class="edge"><title>Node1&#45;&gt;Node3</title>
<path fill="none" stroke="midnightblue" d="M304.06,-62.9921C282.662,-52.6892 256.448,-40.0677 236.736,-30.5765"/>
<polygon fill="midnightblue" stroke="midnightblue" points="302.679,-66.2113 313.207,-67.396 305.715,-59.9042 302.679,-66.2113"/>
</g>
<!-- Node4 -->
<g id="node4" class="node"><title>Node4</title>
<g id="a_node4"><a xlink:href="helptopic_8cpp.xhtml" target="_top" xlink:title="Implements classes and functions from helptopic.h. ">
<polygon fill="white" stroke="black" points="284,-0.5 284,-30.5 401,-30.5 401,-0.5 284,-0.5"/>
<text text-anchor="start" x="292" y="-18.5" font-family="Helvetica,sans-Serif" font-size="10.00">src/gromacs/onlinehelp</text>
<text text-anchor="middle" x="342.5" y="-7.5" font-family="Helvetica,sans-Serif" font-size="10.00">/helptopic.cpp</text>
</a>
</g>
</g>
<!-- Node1&#45;&gt;Node4 -->
<g id="edge3" class="edge"><title>Node1&#45;&gt;Node4</title>
<path fill="none" stroke="midnightblue" d="M342.5,-57.1081C342.5,-48.1539 342.5,-38.3227 342.5,-30.5765"/>
<polygon fill="midnightblue" stroke="midnightblue" points="339,-57.3959 342.5,-67.396 346,-57.396 339,-57.3959"/>
</g>
<!-- Node5 -->
<g id="node5" class="node"><title>Node5</title>
<g id="a_node5"><a xlink:href="helpwritercontext_8cpp.xhtml" target="_top" xlink:title="Implements gmx::HelpWriterContext. ">
<polygon fill="white" stroke="black" points="419,-0.5 419,-30.5 536,-30.5 536,-0.5 419,-0.5"/>
<text text-anchor="start" x="427" y="-18.5" font-family="Helvetica,sans-Serif" font-size="10.00">src/gromacs/onlinehelp</text>
<text text-anchor="middle" x="477.5" y="-7.5" font-family="Helvetica,sans-Serif" font-size="10.00">/helpwritercontext.cpp</text>
</a>
</g>
</g>
<!-- Node1&#45;&gt;Node5 -->
<g id="edge4" class="edge"><title>Node1&#45;&gt;Node5</title>
<path fill="none" stroke="midnightblue" d="M380.94,-62.9921C402.338,-52.6892 428.552,-40.0677 448.264,-30.5765"/>
<polygon fill="midnightblue" stroke="midnightblue" points="379.285,-59.9042 371.793,-67.396 382.321,-66.2113 379.285,-59.9042"/>
</g>
<!-- Node6 -->
<g id="node6" class="node"><title>Node6</title>
<g id="a_node6"><a xlink:href="tests_2helpformat_8cpp.xhtml" target="_top" xlink:title="Tests for help string formatting functions and classes. ">
<polygon fill="white" stroke="black" points="554,-0.5 554,-30.5 671,-30.5 671,-0.5 554,-0.5"/>
<text text-anchor="start" x="562" y="-18.5" font-family="Helvetica,sans-Serif" font-size="10.00">src/gromacs/onlinehelp</text>
<text text-anchor="middle" x="612.5" y="-7.5" font-family="Helvetica,sans-Serif" font-size="10.00">/tests/helpformat.cpp</text>
</a>
</g>
</g>
<!-- Node1&#45;&gt;Node6 -->
<g id="edge5" class="edge"><title>Node1&#45;&gt;Node6</title>
<path fill="none" stroke="midnightblue" d="M410.546,-65.1186C454.726,-54.4827 511.716,-40.7628 553.885,-30.6109"/>
<polygon fill="midnightblue" stroke="midnightblue" points="409.657,-61.7326 400.754,-67.476 411.295,-68.5382 409.657,-61.7326"/>
</g>
</g>
</svg>
