<?xml version="1.0" encoding="UTF-8" standalone="no"?>
<!DOCTYPE svg PUBLIC "-//W3C//DTD SVG 1.1//EN"
 "http://www.w3.org/Graphics/SVG/1.1/DTD/svg11.dtd">
<!-- Generated by graphviz version 2.38.0 (20140413.2041)
 -->
<!-- Title: src/gromacs/awh/histogramsize.h Pages: 1 -->
<svg width="489pt" height="196pt"
 viewBox="0.00 0.00 488.50 196.00" xmlns="http://www.w3.org/2000/svg" xmlns:xlink="http://www.w3.org/1999/xlink">
<g id="graph0" class="graph" transform="scale(1 1) rotate(0) translate(4 192)">
<title>src/gromacs/awh/histogramsize.h</title>
<polygon fill="white" stroke="none" points="-4,4 -4,-192 484.5,-192 484.5,4 -4,4"/>
<!-- Node1 -->
<g id="node1" class="node"><title>Node1</title>
<polygon fill="#bfbfbf" stroke="black" points="222.5,-168.5 222.5,-187.5 386.5,-187.5 386.5,-168.5 222.5,-168.5"/>
<text text-anchor="middle" x="304.5" y="-175.5" font-family="Helvetica,sans-Serif" font-size="10.00">src/gromacs/awh/histogramsize.h</text>
</g>
<!-- Node2 -->
<g id="node2" class="node"><title>Node2</title>
<g id="a_node2"><a xlink:href="biasstate_8h.xhtml" target="_top" xlink:title="Declares the BiasState class. ">
<polygon fill="white" stroke="black" points="145,-112.5 145,-131.5 288,-131.5 288,-112.5 145,-112.5"/>
<text text-anchor="middle" x="216.5" y="-119.5" font-family="Helvetica,sans-Serif" font-size="10.00">src/gromacs/awh/biasstate.h</text>
</a>
</g>
</g>
<!-- Node1&#45;&gt;Node2 -->
<g id="edge1" class="edge"><title>Node1&#45;&gt;Node2</title>
<path fill="none" stroke="midnightblue" d="M281.523,-162.901C265.387,-152.999 244.319,-140.071 230.604,-131.655"/>
<polygon fill="midnightblue" stroke="midnightblue" points="280.007,-166.077 290.361,-168.324 283.669,-160.111 280.007,-166.077"/>
</g>
<!-- Node7 -->
<g id="node7" class="node"><title>Node7</title>
<g id="a_node7"><a xlink:href="histogramsize_8cpp.xhtml" target="_top" xlink:title="Implements the HistogramSize class. ">
<polygon fill="white" stroke="black" points="306.5,-112.5 306.5,-131.5 480.5,-131.5 480.5,-112.5 306.5,-112.5"/>
<text text-anchor="middle" x="393.5" y="-119.5" font-family="Helvetica,sans-Serif" font-size="10.00">src/gromacs/awh/histogramsize.cpp</text>
</a>
</g>
</g>
<!-- Node1&#45;&gt;Node7 -->
<g id="edge6" class="edge"><title>Node1&#45;&gt;Node7</title>
<path fill="none" stroke="midnightblue" d="M327.738,-162.901C344.058,-152.999 365.365,-140.071 379.236,-131.655"/>
<polygon fill="midnightblue" stroke="midnightblue" points="325.533,-160.144 318.799,-168.324 329.164,-166.129 325.533,-160.144"/>
</g>
<!-- Node3 -->
<g id="node3" class="node"><title>Node3</title>
<g id="a_node3"><a xlink:href="bias_8h.xhtml" target="_top" xlink:title="Declares the Bias class. ">
<polygon fill="white" stroke="black" points="79,-56.5 79,-75.5 200,-75.5 200,-56.5 79,-56.5"/>
<text text-anchor="middle" x="139.5" y="-63.5" font-family="Helvetica,sans-Serif" font-size="10.00">src/gromacs/awh/bias.h</text>
</a>
</g>
</g>
<!-- Node2&#45;&gt;Node3 -->
<g id="edge2" class="edge"><title>Node2&#45;&gt;Node3</title>
<path fill="none" stroke="midnightblue" d="M195.599,-106.342C181.589,-96.5169 163.617,-83.9132 151.841,-75.6545"/>
<polygon fill="midnightblue" stroke="midnightblue" points="193.932,-109.448 204.129,-112.324 197.951,-103.717 193.932,-109.448"/>
</g>
<!-- Node6 -->
<g id="node6" class="node"><title>Node6</title>
<g id="a_node6"><a xlink:href="biasstate_8cpp.xhtml" target="_top" xlink:title="Implements the BiasState class. ">
<polygon fill="white" stroke="black" points="218,-56.5 218,-75.5 371,-75.5 371,-56.5 218,-56.5"/>
<text text-anchor="middle" x="294.5" y="-63.5" font-family="Helvetica,sans-Serif" font-size="10.00">src/gromacs/awh/biasstate.cpp</text>
</a>
</g>
</g>
<!-- Node2&#45;&gt;Node6 -->
<g id="edge5" class="edge"><title>Node2&#45;&gt;Node6</title>
<path fill="none" stroke="midnightblue" d="M237.268,-106.622C251.517,-96.7574 269.956,-83.9919 281.999,-75.6545"/>
<polygon fill="midnightblue" stroke="midnightblue" points="235.262,-103.754 229.032,-112.324 239.246,-109.51 235.262,-103.754"/>
</g>
<!-- Node4 -->
<g id="node4" class="node"><title>Node4</title>
<g id="a_node4"><a xlink:href="awh_8cpp.xhtml" target="_top" xlink:title="Implements the Awh class. ">
<polygon fill="white" stroke="black" points="0,-0.5 0,-19.5 131,-19.5 131,-0.5 0,-0.5"/>
<text text-anchor="middle" x="65.5" y="-7.5" font-family="Helvetica,sans-Serif" font-size="10.00">src/gromacs/awh/awh.cpp</text>
</a>
</g>
</g>
<!-- Node3&#45;&gt;Node4 -->
<g id="edge3" class="edge"><title>Node3&#45;&gt;Node4</title>
<path fill="none" stroke="midnightblue" d="M119.466,-50.3804C106.091,-40.6204 88.9412,-28.1057 77.6057,-19.8339"/>
<polygon fill="midnightblue" stroke="midnightblue" points="117.47,-53.2565 127.611,-56.324 121.596,-47.602 117.47,-53.2565"/>
</g>
<!-- Node5 -->
<g id="node5" class="node"><title>Node5</title>
<g id="a_node5"><a xlink:href="bias_8cpp.xhtml" target="_top" xlink:title="Implements the Bias class. ">
<polygon fill="white" stroke="black" points="149,-0.5 149,-19.5 280,-19.5 280,-0.5 149,-0.5"/>
<text text-anchor="middle" x="214.5" y="-7.5" font-family="Helvetica,sans-Serif" font-size="10.00">src/gromacs/awh/bias.cpp</text>
</a>
</g>
</g>
<!-- Node3&#45;&gt;Node5 -->
<g id="edge4" class="edge"><title>Node3&#45;&gt;Node5</title>
<path fill="none" stroke="midnightblue" d="M159.805,-50.3804C173.361,-40.6204 190.742,-28.1057 202.231,-19.8339"/>
<polygon fill="midnightblue" stroke="midnightblue" points="157.62,-47.6405 151.55,-56.324 161.71,-53.3213 157.62,-47.6405"/>
</g>
</g>
</svg>
