<?xml version="1.0" encoding="UTF-8" standalone="no"?>
<!DOCTYPE svg PUBLIC "-//W3C//DTD SVG 1.1//EN"
 "http://www.w3.org/Graphics/SVG/1.1/DTD/svg11.dtd">
<!-- Generated by graphviz version 2.38.0 (20140413.2041)
 -->
<!-- Title: src/gromacs/gpu_utils/hostallocator.h Pages: 1 -->
<svg width="2187pt" height="307pt"
 viewBox="0.00 0.00 2187.00 307.00" xmlns="http://www.w3.org/2000/svg" xmlns:xlink="http://www.w3.org/1999/xlink">
<g id="graph0" class="graph" transform="scale(1 1) rotate(0) translate(4 303)">
<title>src/gromacs/gpu_utils/hostallocator.h</title>
<polygon fill="white" stroke="none" points="-4,4 -4,-303 2183,-303 2183,4 -4,4"/>
<!-- Node1 -->
<g id="node1" class="node"><title>Node1</title>
<polygon fill="#bfbfbf" stroke="black" points="1567.5,-268.5 1567.5,-298.5 1680.5,-298.5 1680.5,-268.5 1567.5,-268.5"/>
<text text-anchor="start" x="1575.5" y="-286.5" font-family="Helvetica,sans-Serif" font-size="10.00">src/gromacs/gpu_utils</text>
<text text-anchor="middle" x="1624" y="-275.5" font-family="Helvetica,sans-Serif" font-size="10.00">/hostallocator.h</text>
</g>
<!-- Node2 -->
<g id="node2" class="node"><title>Node2</title>
<g id="a_node2"><a xlink:href="state_8h.xhtml" target="_top" xlink:title="This file contains the definition of the microstate of the simulated system. ">
<polygon fill="white" stroke="black" points="1438.5,-201.5 1438.5,-231.5 1549.5,-231.5 1549.5,-201.5 1438.5,-201.5"/>
<text text-anchor="start" x="1446.5" y="-219.5" font-family="Helvetica,sans-Serif" font-size="10.00">src/gromacs/mdtypes</text>
<text text-anchor="middle" x="1494" y="-208.5" font-family="Helvetica,sans-Serif" font-size="10.00">/state.h</text>
</a>
</g>
</g>
<!-- Node1&#45;&gt;Node2 -->
<g id="edge1" class="edge"><title>Node1&#45;&gt;Node2</title>
<path fill="none" stroke="midnightblue" d="M1586.71,-263.853C1566.15,-253.576 1541.05,-241.025 1522.15,-231.577"/>
<polygon fill="midnightblue" stroke="midnightblue" points="1585.28,-267.054 1595.79,-268.396 1588.41,-260.793 1585.28,-267.054"/>
</g>
<!-- Node13 -->
<g id="node13" class="node"><title>Node13</title>
<g id="a_node13"><a xlink:href="pme-gpu-types_8h.xhtml" target="_top" xlink:title="Defines the GPU&#45;agnostic PME GPU data structures (the host&#45;side PME GPU data, and the GPU function pa...">
<polygon fill="white" stroke="black" points="685.5,-201.5 685.5,-231.5 806.5,-231.5 806.5,-201.5 685.5,-201.5"/>
<text text-anchor="start" x="693.5" y="-219.5" font-family="Helvetica,sans-Serif" font-size="10.00">src/gromacs/ewald/pme</text>
<text text-anchor="middle" x="746" y="-208.5" font-family="Helvetica,sans-Serif" font-size="10.00">&#45;gpu&#45;types.h</text>
</a>
</g>
</g>
<!-- Node1&#45;&gt;Node13 -->
<g id="edge12" class="edge"><title>Node1&#45;&gt;Node13</title>
<path fill="none" stroke="midnightblue" d="M1557.37,-277.568C1392.12,-265.334 965.328,-233.737 806.622,-221.988"/>
<polygon fill="midnightblue" stroke="midnightblue" points="1557.17,-281.062 1567.41,-278.31 1557.69,-274.081 1557.17,-281.062"/>
</g>
<!-- Node26 -->
<g id="node26" class="node"><title>Node26</title>
<g id="a_node26"><a xlink:href="hostallocator_8cpp.xhtml" target="_top" xlink:title="Implements gmx::HostAllocationPolicy for allocating memory suitable for e.g. GPU transfers on CUDA...">
<polygon fill="white" stroke="black" points="1567.5,-201.5 1567.5,-231.5 1680.5,-231.5 1680.5,-201.5 1567.5,-201.5"/>
<text text-anchor="start" x="1575.5" y="-219.5" font-family="Helvetica,sans-Serif" font-size="10.00">src/gromacs/gpu_utils</text>
<text text-anchor="middle" x="1624" y="-208.5" font-family="Helvetica,sans-Serif" font-size="10.00">/hostallocator.cpp</text>
</a>
</g>
</g>
<!-- Node1&#45;&gt;Node26 -->
<g id="edge32" class="edge"><title>Node1&#45;&gt;Node26</title>
<path fill="none" stroke="midnightblue" d="M1624,-258.108C1624,-249.154 1624,-239.323 1624,-231.577"/>
<polygon fill="midnightblue" stroke="midnightblue" points="1620.5,-258.396 1624,-268.396 1627.5,-258.396 1620.5,-258.396"/>
</g>
<!-- Node27 -->
<g id="node27" class="node"><title>Node27</title>
<g id="a_node27"><a xlink:href="tests_2hostallocator_8cpp.xhtml" target="_top" xlink:title="Tests for GPU host allocator. ">
<polygon fill="white" stroke="black" points="1698.5,-201.5 1698.5,-231.5 1817.5,-231.5 1817.5,-201.5 1698.5,-201.5"/>
<text text-anchor="start" x="1706.5" y="-219.5" font-family="Helvetica,sans-Serif" font-size="10.00">src/gromacs/gpu_utils</text>
<text text-anchor="middle" x="1758" y="-208.5" font-family="Helvetica,sans-Serif" font-size="10.00">/tests/hostallocator.cpp</text>
</a>
</g>
</g>
<!-- Node1&#45;&gt;Node27 -->
<g id="edge33" class="edge"><title>Node1&#45;&gt;Node27</title>
<path fill="none" stroke="midnightblue" d="M1662.15,-263.992C1683.39,-253.689 1709.41,-241.068 1728.98,-231.577"/>
<polygon fill="midnightblue" stroke="midnightblue" points="1660.55,-260.882 1653.08,-268.396 1663.6,-267.181 1660.55,-260.882"/>
</g>
<!-- Node28 -->
<g id="node28" class="node"><title>Node28</title>
<g id="a_node28"><a xlink:href="pinnedmemorychecker_8cpp.xhtml" target="_top" xlink:title="Tests for GPU memory status checker isHostMemoryPinned() being correct. ">
<polygon fill="white" stroke="black" points="1835.5,-201.5 1835.5,-231.5 1996.5,-231.5 1996.5,-201.5 1835.5,-201.5"/>
<text text-anchor="start" x="1843.5" y="-219.5" font-family="Helvetica,sans-Serif" font-size="10.00">src/gromacs/gpu_utils</text>
<text text-anchor="middle" x="1916" y="-208.5" font-family="Helvetica,sans-Serif" font-size="10.00">/tests/pinnedmemorychecker.cpp</text>
</a>
</g>
</g>
<!-- Node1&#45;&gt;Node28 -->
<g id="edge34" class="edge"><title>Node1&#45;&gt;Node28</title>
<path fill="none" stroke="midnightblue" d="M1690.47,-267.704C1739.22,-256.852 1804.99,-242.211 1852.93,-231.541"/>
<polygon fill="midnightblue" stroke="midnightblue" points="1689.65,-264.301 1680.65,-269.89 1691.17,-271.134 1689.65,-264.301"/>
</g>
<!-- Node3 -->
<g id="node3" class="node"><title>Node3</title>
<g id="a_node3"><a xlink:href="awh_8cpp.xhtml" target="_top" xlink:title="Implements the Awh class. ">
<polygon fill="white" stroke="black" points="1428.5,-140 1428.5,-159 1559.5,-159 1559.5,-140 1428.5,-140"/>
<text text-anchor="middle" x="1494" y="-147" font-family="Helvetica,sans-Serif" font-size="10.00">src/gromacs/awh/awh.cpp</text>
</a>
</g>
</g>
<!-- Node2&#45;&gt;Node3 -->
<g id="edge2" class="edge"><title>Node2&#45;&gt;Node3</title>
<path fill="none" stroke="midnightblue" d="M1494,-191.25C1494,-180.017 1494,-167.377 1494,-159.195"/>
<polygon fill="midnightblue" stroke="midnightblue" points="1490.5,-191.396 1494,-201.396 1497.5,-191.396 1490.5,-191.396"/>
</g>
<!-- Node4 -->
<g id="node4" class="node"><title>Node4</title>
<g id="a_node4"><a xlink:href="domdec__topology_8cpp.xhtml" target="_top" xlink:title="This file defines functions used by the domdec module while managing the construction, use and error checking for topologies local to a DD rank. ">
<polygon fill="white" stroke="black" points="1577.5,-134.5 1577.5,-164.5 1692.5,-164.5 1692.5,-134.5 1577.5,-134.5"/>
<text text-anchor="start" x="1585.5" y="-152.5" font-family="Helvetica,sans-Serif" font-size="10.00">src/gromacs/domdec</text>
<text text-anchor="middle" x="1635" y="-141.5" font-family="Helvetica,sans-Serif" font-size="10.00">/domdec_topology.cpp</text>
</a>
</g>
</g>
<!-- Node2&#45;&gt;Node4 -->
<g id="edge3" class="edge"><title>Node2&#45;&gt;Node4</title>
<path fill="none" stroke="midnightblue" d="M1533.85,-197.131C1556.25,-186.802 1583.78,-174.11 1604.46,-164.577"/>
<polygon fill="midnightblue" stroke="midnightblue" points="1532.21,-194.031 1524.59,-201.396 1535.14,-200.388 1532.21,-194.031"/>
</g>
<!-- Node5 -->
<g id="node5" class="node"><title>Node5</title>
<g id="a_node5"><a xlink:href="pme-load-balancing_8cpp.xhtml" target="_top" xlink:title="This file contains function definitions necessary for managing automatic load balance of PME calculat...">
<polygon fill="white" stroke="black" points="1355.5,-67.5 1355.5,-97.5 1476.5,-97.5 1476.5,-67.5 1355.5,-67.5"/>
<text text-anchor="start" x="1363.5" y="-85.5" font-family="Helvetica,sans-Serif" font-size="10.00">src/gromacs/ewald/pme</text>
<text text-anchor="middle" x="1416" y="-74.5" font-family="Helvetica,sans-Serif" font-size="10.00">&#45;load&#45;balancing.cpp</text>
</a>
</g>
</g>
<!-- Node2&#45;&gt;Node5 -->
<g id="edge4" class="edge"><title>Node2&#45;&gt;Node5</title>
<path fill="none" stroke="midnightblue" d="M1559.55,-200.592C1619.65,-186.77 1699.71,-167.91 1702,-165 1710.52,-154.169 1710.85,-144.555 1702,-134 1673.81,-100.393 1551.81,-89.1409 1476.55,-85.3805"/>
<polygon fill="midnightblue" stroke="midnightblue" points="1558.67,-197.201 1549.71,-202.85 1560.24,-204.024 1558.67,-197.201"/>
</g>
<!-- Node6 -->
<g id="node6" class="node"><title>Node6</title>
<g id="a_node6"><a xlink:href="gmx__wham_8cpp.xhtml" target="_top" xlink:title="Implementation of the Weighted Histogram Analysis Method (WHAM) ">
<polygon fill="white" stroke="black" points="1749,-134.5 1749,-164.5 1857,-164.5 1857,-134.5 1749,-134.5"/>
<text text-anchor="start" x="1757" y="-152.5" font-family="Helvetica,sans-Serif" font-size="10.00">src/gromacs/gmxana</text>
<text text-anchor="middle" x="1803" y="-141.5" font-family="Helvetica,sans-Serif" font-size="10.00">/gmx_wham.cpp</text>
</a>
</g>
</g>
<!-- Node2&#45;&gt;Node6 -->
<g id="edge5" class="edge"><title>Node2&#45;&gt;Node6</title>
<path fill="none" stroke="midnightblue" d="M1559.6,-200.894C1638.71,-184.054 1659.9,-180.688 1735,-165 1739.49,-164.062 1744.15,-163.083 1748.82,-162.096"/>
<polygon fill="midnightblue" stroke="midnightblue" points="1558.7,-197.506 1549.66,-203.017 1560.17,-204.352 1558.7,-197.506"/>
</g>
<!-- Node7 -->
<g id="node7" class="node"><title>Node7</title>
<g id="a_node7"><a xlink:href="imd_8cpp.xhtml" target="_top" xlink:title="Implements functions of imd.h. ">
<polygon fill="white" stroke="black" points="1875.5,-140 1875.5,-159 2002.5,-159 2002.5,-140 1875.5,-140"/>
<text text-anchor="middle" x="1939" y="-147" font-family="Helvetica,sans-Serif" font-size="10.00">src/gromacs/imd/imd.cpp</text>
</a>
</g>
</g>
<!-- Node2&#45;&gt;Node7 -->
<g id="edge6" class="edge"><title>Node2&#45;&gt;Node7</title>
<path fill="none" stroke="midnightblue" d="M1559.6,-201.021C1696.18,-178.391 1733.48,-185.898 1866,-165 1876.72,-163.309 1888.27,-161.167 1898.94,-159.051"/>
<polygon fill="midnightblue" stroke="midnightblue" points="1558.88,-197.594 1549.6,-202.704 1560.04,-204.497 1558.88,-197.594"/>
</g>
<!-- Node8 -->
<g id="node8" class="node"><title>Node8</title>
<g id="a_node8"><a xlink:href="minimize_8cpp.xhtml" target="_top" xlink:title="This file defines integrators for energy minimization. ">
<polygon fill="white" stroke="black" points="2021,-140 2021,-159 2179,-159 2179,-140 2021,-140"/>
<text text-anchor="middle" x="2100" y="-147" font-family="Helvetica,sans-Serif" font-size="10.00">src/gromacs/mdlib/minimize.cpp</text>
</a>
</g>
</g>
<!-- Node2&#45;&gt;Node8 -->
<g id="edge7" class="edge"><title>Node2&#45;&gt;Node8</title>
<path fill="none" stroke="midnightblue" d="M1559.56,-201.075C1760.46,-171.524 1814.75,-189.046 2012,-165 2025.22,-163.389 2039.49,-161.224 2052.61,-159.059"/>
<polygon fill="midnightblue" stroke="midnightblue" points="1558.95,-197.628 1549.57,-202.565 1559.98,-204.551 1558.95,-197.628"/>
</g>
<!-- Node9 -->
<g id="node9" class="node"><title>Node9</title>
<g id="a_node9"><a xlink:href="nbnxn__tuning_8cpp.xhtml" target="_top" xlink:title="Implements functions for tuning adjustable parameters for the nbnxn non&#45;bonded search and interaction...">
<polygon fill="white" stroke="black" points="825,-134.5 825,-164.5 951,-164.5 951,-134.5 825,-134.5"/>
<text text-anchor="start" x="833" y="-152.5" font-family="Helvetica,sans-Serif" font-size="10.00">src/gromacs/mdlib/nbnxn</text>
<text text-anchor="middle" x="888" y="-141.5" font-family="Helvetica,sans-Serif" font-size="10.00">_tuning.cpp</text>
</a>
</g>
</g>
<!-- Node2&#45;&gt;Node9 -->
<g id="edge8" class="edge"><title>Node2&#45;&gt;Node9</title>
<path fill="none" stroke="midnightblue" d="M1428.37,-211.509C1327.36,-204.868 1127.89,-189.775 960,-165 957.099,-164.572 954.138,-164.104 951.151,-163.606"/>
<polygon fill="midnightblue" stroke="midnightblue" points="1428.21,-215.006 1438.42,-212.163 1428.67,-208.021 1428.21,-215.006"/>
</g>
<!-- Node10 -->
<g id="node10" class="node"><title>Node10</title>
<g id="a_node10"><a xlink:href="tpi_8cpp.xhtml" target="_top" xlink:title="This file defines the integrator for test particle insertion. ">
<polygon fill="white" stroke="black" points="969.5,-140 969.5,-159 1098.5,-159 1098.5,-140 969.5,-140"/>
<text text-anchor="middle" x="1034" y="-147" font-family="Helvetica,sans-Serif" font-size="10.00">src/gromacs/mdlib/tpi.cpp</text>
</a>
</g>
</g>
<!-- Node2&#45;&gt;Node10 -->
<g id="edge9" class="edge"><title>Node2&#45;&gt;Node10</title>
<path fill="none" stroke="midnightblue" d="M1428.34,-208.277C1351.2,-199.48 1219.46,-183.485 1107,-165 1096.42,-163.26 1085.02,-161.125 1074.46,-159.033"/>
<polygon fill="midnightblue" stroke="midnightblue" points="1428.06,-211.768 1438.4,-209.418 1428.85,-204.812 1428.06,-211.768"/>
</g>
<!-- Node11 -->
<g id="node11" class="node"><title>Node11</title>
<g id="a_node11"><a xlink:href="gromacs_2swap_2swapcoords_8cpp.xhtml" target="_top" xlink:title="Implements functions in swapcoords.h. ">
<polygon fill="white" stroke="black" points="1116.5,-140 1116.5,-159 1287.5,-159 1287.5,-140 1116.5,-140"/>
<text text-anchor="middle" x="1202" y="-147" font-family="Helvetica,sans-Serif" font-size="10.00">src/gromacs/swap/swapcoords.cpp</text>
</a>
</g>
</g>
<!-- Node2&#45;&gt;Node11 -->
<g id="edge10" class="edge"><title>Node2&#45;&gt;Node11</title>
<path fill="none" stroke="midnightblue" d="M1428.59,-200.94C1370.63,-188.038 1288,-169.644 1240.19,-159.002"/>
<polygon fill="midnightblue" stroke="midnightblue" points="1427.87,-204.364 1438.39,-203.121 1429.39,-197.532 1427.87,-204.364"/>
</g>
<!-- Node12 -->
<g id="node12" class="node"><title>Node12</title>
<g id="a_node12"><a xlink:href="runner_8cpp.xhtml" target="_top" xlink:title="Implements the MD runner routine calling all integrators. ">
<polygon fill="white" stroke="black" points="1306,-134.5 1306,-164.5 1410,-164.5 1410,-134.5 1306,-134.5"/>
<text text-anchor="start" x="1314" y="-152.5" font-family="Helvetica,sans-Serif" font-size="10.00">src/programs/mdrun</text>
<text text-anchor="middle" x="1358" y="-141.5" font-family="Helvetica,sans-Serif" font-size="10.00">/runner.cpp</text>
</a>
</g>
</g>
<!-- Node2&#45;&gt;Node12 -->
<g id="edge11" class="edge"><title>Node2&#45;&gt;Node12</title>
<path fill="none" stroke="midnightblue" d="M1455.28,-196.992C1433.72,-186.689 1407.31,-174.068 1387.45,-164.577"/>
<polygon fill="midnightblue" stroke="midnightblue" points="1453.96,-200.242 1464.49,-201.396 1456.98,-193.926 1453.96,-200.242"/>
</g>
<!-- Node14 -->
<g id="node14" class="node"><title>Node14</title>
<g id="a_node14"><a xlink:href="pme-internal_8h.xhtml" target="_top" xlink:title="This file contains function declarations necessary for computing energies and forces for the PME long...">
<polygon fill="white" stroke="black" points="685.5,-134.5 685.5,-164.5 806.5,-164.5 806.5,-134.5 685.5,-134.5"/>
<text text-anchor="start" x="693.5" y="-152.5" font-family="Helvetica,sans-Serif" font-size="10.00">src/gromacs/ewald/pme</text>
<text text-anchor="middle" x="746" y="-141.5" font-family="Helvetica,sans-Serif" font-size="10.00">&#45;internal.h</text>
</a>
</g>
</g>
<!-- Node13&#45;&gt;Node14 -->
<g id="edge13" class="edge"><title>Node13&#45;&gt;Node14</title>
<path fill="none" stroke="midnightblue" d="M746,-191.108C746,-182.154 746,-172.323 746,-164.577"/>
<polygon fill="midnightblue" stroke="midnightblue" points="742.5,-191.396 746,-201.396 749.5,-191.396 742.5,-191.396"/>
</g>
<!-- Node21 -->
<g id="node21" class="node"><title>Node21</title>
<g id="a_node21"><a xlink:href="pme-gpu-internal_8h.xhtml" target="_top" xlink:title="This file contains internal function definitions for performing the PME calculations on GPU...">
<polygon fill="white" stroke="black" points="466.5,-134.5 466.5,-164.5 587.5,-164.5 587.5,-134.5 466.5,-134.5"/>
<text text-anchor="start" x="474.5" y="-152.5" font-family="Helvetica,sans-Serif" font-size="10.00">src/gromacs/ewald/pme</text>
<text text-anchor="middle" x="527" y="-141.5" font-family="Helvetica,sans-Serif" font-size="10.00">&#45;gpu&#45;internal.h</text>
</a>
</g>
</g>
<!-- Node13&#45;&gt;Node21 -->
<g id="edge21" class="edge"><title>Node13&#45;&gt;Node21</title>
<path fill="none" stroke="midnightblue" d="M688.992,-198.58C653.422,-188.022 608.172,-174.592 574.543,-164.611"/>
<polygon fill="midnightblue" stroke="midnightblue" points="688.167,-201.986 698.75,-201.476 690.159,-195.275 688.167,-201.986"/>
</g>
<!-- Node14&#45;&gt;Node5 -->
<g id="edge16" class="edge"><title>Node14&#45;&gt;Node5</title>
<path fill="none" stroke="midnightblue" d="M816.579,-134.042C1019.57,-105.102 1248.37,-91.4623 1355.26,-86.1935"/>
<polygon fill="midnightblue" stroke="midnightblue" points="816.026,-130.586 806.627,-135.476 817.024,-137.514 816.026,-130.586"/>
</g>
<!-- Node15 -->
<g id="node15" class="node"><title>Node15</title>
<g id="a_node15"><a xlink:href="pme-gpu-internal_8cpp.xhtml" target="_top" xlink:title="This file contains internal function implementations for performing the PME calculations on GPU...">
<polygon fill="white" stroke="black" points="397.5,-67.5 397.5,-97.5 518.5,-97.5 518.5,-67.5 397.5,-67.5"/>
<text text-anchor="start" x="405.5" y="-85.5" font-family="Helvetica,sans-Serif" font-size="10.00">src/gromacs/ewald/pme</text>
<text text-anchor="middle" x="458" y="-74.5" font-family="Helvetica,sans-Serif" font-size="10.00">&#45;gpu&#45;internal.cpp</text>
</a>
</g>
</g>
<!-- Node14&#45;&gt;Node15 -->
<g id="edge14" class="edge"><title>Node14&#45;&gt;Node15</title>
<path fill="none" stroke="midnightblue" d="M675.262,-132.535C627.232,-121.695 564.381,-107.51 518.642,-97.1867"/>
<polygon fill="midnightblue" stroke="midnightblue" points="674.749,-136.007 685.275,-134.795 676.29,-129.179 674.749,-136.007"/>
</g>
<!-- Node16 -->
<g id="node16" class="node"><title>Node16</title>
<g id="a_node16"><a xlink:href="pme-gpu_8cpp.xhtml" target="_top" xlink:title="Implements high&#45;level PME GPU functions which do not require GPU framework&#45;specific code...">
<polygon fill="white" stroke="black" points="536.5,-67.5 536.5,-97.5 657.5,-97.5 657.5,-67.5 536.5,-67.5"/>
<text text-anchor="start" x="544.5" y="-85.5" font-family="Helvetica,sans-Serif" font-size="10.00">src/gromacs/ewald/pme</text>
<text text-anchor="middle" x="597" y="-74.5" font-family="Helvetica,sans-Serif" font-size="10.00">&#45;gpu.cpp</text>
</a>
</g>
</g>
<!-- Node14&#45;&gt;Node16 -->
<g id="edge15" class="edge"><title>Node14&#45;&gt;Node16</title>
<path fill="none" stroke="midnightblue" d="M704.208,-130.269C680.476,-119.916 651.22,-107.153 629.268,-97.5765"/>
<polygon fill="midnightblue" stroke="midnightblue" points="703.104,-133.605 713.669,-134.396 705.903,-127.189 703.104,-133.605"/>
</g>
<!-- Node17 -->
<g id="node17" class="node"><title>Node17</title>
<g id="a_node17"><a xlink:href="pme-pp_8cpp.xhtml" target="_top" xlink:title="This file contains function definitions necessary for managing the offload of long&#45;ranged PME work to...">
<polygon fill="white" stroke="black" points="872.5,-67.5 872.5,-97.5 993.5,-97.5 993.5,-67.5 872.5,-67.5"/>
<text text-anchor="start" x="880.5" y="-85.5" font-family="Helvetica,sans-Serif" font-size="10.00">src/gromacs/ewald/pme</text>
<text text-anchor="middle" x="933" y="-74.5" font-family="Helvetica,sans-Serif" font-size="10.00">&#45;pp.cpp</text>
</a>
</g>
</g>
<!-- Node14&#45;&gt;Node17 -->
<g id="edge17" class="edge"><title>Node14&#45;&gt;Node17</title>
<path fill="none" stroke="midnightblue" d="M796.082,-131.092C826.27,-120.599 864.218,-107.408 892.503,-97.5765"/>
<polygon fill="midnightblue" stroke="midnightblue" points="794.873,-127.807 786.576,-134.396 797.171,-134.419 794.873,-127.807"/>
</g>
<!-- Node18 -->
<g id="node18" class="node"><title>Node18</title>
<g id="a_node18"><a xlink:href="pme_8cpp.xhtml" target="_top" xlink:title="This file contains function definitions necessary for computing energies and forces for the PME long&#45;...">
<polygon fill="white" stroke="black" points="676,-73 676,-92 816,-92 816,-73 676,-73"/>
<text text-anchor="middle" x="746" y="-80" font-family="Helvetica,sans-Serif" font-size="10.00">src/gromacs/ewald/pme.cpp</text>
</a>
</g>
</g>
<!-- Node14&#45;&gt;Node18 -->
<g id="edge18" class="edge"><title>Node14&#45;&gt;Node18</title>
<path fill="none" stroke="midnightblue" d="M746,-124.25C746,-113.017 746,-100.377 746,-92.1945"/>
<polygon fill="midnightblue" stroke="midnightblue" points="742.5,-124.396 746,-134.396 749.5,-124.396 742.5,-124.396"/>
</g>
<!-- Node19 -->
<g id="node19" class="node"><title>Node19</title>
<g id="a_node19"><a xlink:href="pmebsplinetest_8cpp.xhtml" target="_top" xlink:title="Implements PME B&#45;spline moduli computation tests. ">
<polygon fill="white" stroke="black" points="766,-0.5 766,-30.5 890,-30.5 890,-0.5 766,-0.5"/>
<text text-anchor="start" x="774" y="-18.5" font-family="Helvetica,sans-Serif" font-size="10.00">src/gromacs/ewald/tests</text>
<text text-anchor="middle" x="828" y="-7.5" font-family="Helvetica,sans-Serif" font-size="10.00">/pmebsplinetest.cpp</text>
</a>
</g>
</g>
<!-- Node14&#45;&gt;Node19 -->
<g id="edge19" class="edge"><title>Node14&#45;&gt;Node19</title>
<path fill="none" stroke="midnightblue" d="M816.59,-134.186C871.226,-126.168 976.83,-128.509 1002,-98 1037.29,-55.2218 953.364,-33.6335 890.177,-23.7542"/>
<polygon fill="midnightblue" stroke="midnightblue" points="815.964,-130.742 806.696,-135.877 817.143,-137.642 815.964,-130.742"/>
</g>
<!-- Node20 -->
<g id="node20" class="node"><title>Node20</title>
<g id="a_node20"><a xlink:href="pmetestcommon_8cpp.xhtml" target="_top" xlink:title="Implements common routines for PME tests. ">
<polygon fill="white" stroke="black" points="430,-0.5 430,-30.5 554,-30.5 554,-0.5 430,-0.5"/>
<text text-anchor="start" x="438" y="-18.5" font-family="Helvetica,sans-Serif" font-size="10.00">src/gromacs/ewald/tests</text>
<text text-anchor="middle" x="492" y="-7.5" font-family="Helvetica,sans-Serif" font-size="10.00">/pmetestcommon.cpp</text>
</a>
</g>
</g>
<!-- Node14&#45;&gt;Node20 -->
<g id="edge20" class="edge"><title>Node14&#45;&gt;Node20</title>
<path fill="none" stroke="midnightblue" d="M785.706,-129.466C814.104,-113.329 844.185,-89.3143 825,-67 790.786,-27.2062 640.835,-18.389 554.271,-16.673"/>
<polygon fill="midnightblue" stroke="midnightblue" points="783.72,-126.562 776.61,-134.417 787.066,-132.711 783.72,-126.562"/>
</g>
<!-- Node21&#45;&gt;Node15 -->
<g id="edge22" class="edge"><title>Node21&#45;&gt;Node15</title>
<path fill="none" stroke="midnightblue" d="M504.508,-127.311C494.157,-117.561 482.16,-106.259 472.943,-97.5765"/>
<polygon fill="midnightblue" stroke="midnightblue" points="502.349,-130.087 512.028,-134.396 507.149,-124.991 502.349,-130.087"/>
</g>
<!-- Node21&#45;&gt;Node16 -->
<g id="edge23" class="edge"><title>Node21&#45;&gt;Node16</title>
<path fill="none" stroke="midnightblue" d="M549.818,-127.311C560.319,-117.561 572.49,-106.259 581.841,-97.5765"/>
<polygon fill="midnightblue" stroke="midnightblue" points="547.135,-125.027 542.189,-134.396 551.899,-130.156 547.135,-125.027"/>
</g>
<!-- Node21&#45;&gt;Node18 -->
<g id="edge24" class="edge"><title>Node21&#45;&gt;Node18</title>
<path fill="none" stroke="midnightblue" d="M583.972,-131.59C626.743,-118.896 683.525,-102.043 717.265,-92.0287"/>
<polygon fill="midnightblue" stroke="midnightblue" points="582.841,-128.275 574.25,-134.476 584.833,-134.986 582.841,-128.275"/>
</g>
<!-- Node21&#45;&gt;Node20 -->
<g id="edge31" class="edge"><title>Node21&#45;&gt;Node20</title>
<path fill="none" stroke="midnightblue" d="M456.461,-139.928C430.558,-132.978 403.742,-120.468 388,-98 380.094,-86.7162 380.689,-78.6779 388,-67 398.811,-49.7324 417.398,-38.2189 435.895,-30.6111"/>
<polygon fill="midnightblue" stroke="midnightblue" points="455.775,-143.364 466.319,-142.329 457.432,-136.562 455.775,-143.364"/>
</g>
<!-- Node22 -->
<g id="node22" class="node"><title>Node22</title>
<g id="a_node22"><a xlink:href="pmetestcommon_8h.xhtml" target="_top" xlink:title="Describes common routines and types for PME tests. ">
<polygon fill="white" stroke="black" points="217,-67.5 217,-97.5 341,-97.5 341,-67.5 217,-67.5"/>
<text text-anchor="start" x="225" y="-85.5" font-family="Helvetica,sans-Serif" font-size="10.00">src/gromacs/ewald/tests</text>
<text text-anchor="middle" x="279" y="-74.5" font-family="Helvetica,sans-Serif" font-size="10.00">/pmetestcommon.h</text>
</a>
</g>
</g>
<!-- Node21&#45;&gt;Node22 -->
<g id="edge25" class="edge"><title>Node21&#45;&gt;Node22</title>
<path fill="none" stroke="midnightblue" d="M463.73,-131.917C423.259,-121.31 371.328,-107.699 332.839,-97.6109"/>
<polygon fill="midnightblue" stroke="midnightblue" points="462.932,-135.326 473.493,-134.476 464.707,-128.555 462.932,-135.326"/>
</g>
<!-- Node22&#45;&gt;Node19 -->
<g id="edge26" class="edge"><title>Node22&#45;&gt;Node19</title>
<path fill="none" stroke="midnightblue" d="M351.387,-71.6851C363.603,-70.0819 376.159,-68.467 388,-67 522.491,-50.3379 680.354,-32.6817 765.658,-23.2981"/>
<polygon fill="midnightblue" stroke="midnightblue" points="350.684,-68.2474 341.228,-73.0256 351.6,-75.1873 350.684,-68.2474"/>
</g>
<!-- Node22&#45;&gt;Node20 -->
<g id="edge30" class="edge"><title>Node22&#45;&gt;Node20</title>
<path fill="none" stroke="midnightblue" d="M334.89,-64.4442C369.418,-53.9078 413.192,-40.5495 445.76,-30.6109"/>
<polygon fill="midnightblue" stroke="midnightblue" points="333.499,-61.2096 324.956,-67.476 335.542,-67.9048 333.499,-61.2096"/>
</g>
<!-- Node23 -->
<g id="node23" class="node"><title>Node23</title>
<g id="a_node23"><a xlink:href="pmegathertest_8cpp.xhtml" target="_top" xlink:title="Implements PME force gathering tests. ">
<polygon fill="white" stroke="black" points="146,-0.5 146,-30.5 270,-30.5 270,-0.5 146,-0.5"/>
<text text-anchor="start" x="154" y="-18.5" font-family="Helvetica,sans-Serif" font-size="10.00">src/gromacs/ewald/tests</text>
<text text-anchor="middle" x="208" y="-7.5" font-family="Helvetica,sans-Serif" font-size="10.00">/pmegathertest.cpp</text>
</a>
</g>
</g>
<!-- Node22&#45;&gt;Node23 -->
<g id="edge27" class="edge"><title>Node22&#45;&gt;Node23</title>
<path fill="none" stroke="midnightblue" d="M256.168,-60.5978C245.448,-50.7831 232.953,-39.3442 223.376,-30.5765"/>
<polygon fill="midnightblue" stroke="midnightblue" points="253.855,-63.225 263.594,-67.396 258.582,-58.0618 253.855,-63.225"/>
</g>
<!-- Node24 -->
<g id="node24" class="node"><title>Node24</title>
<g id="a_node24"><a xlink:href="pmesolvetest_8cpp.xhtml" target="_top" xlink:title="Implements PME solving tests. ">
<polygon fill="white" stroke="black" points="288,-0.5 288,-30.5 412,-30.5 412,-0.5 288,-0.5"/>
<text text-anchor="start" x="296" y="-18.5" font-family="Helvetica,sans-Serif" font-size="10.00">src/gromacs/ewald/tests</text>
<text text-anchor="middle" x="350" y="-7.5" font-family="Helvetica,sans-Serif" font-size="10.00">/pmesolvetest.cpp</text>
</a>
</g>
</g>
<!-- Node22&#45;&gt;Node24 -->
<g id="edge28" class="edge"><title>Node22&#45;&gt;Node24</title>
<path fill="none" stroke="midnightblue" d="M301.832,-60.5978C312.552,-50.7831 325.047,-39.3442 334.624,-30.5765"/>
<polygon fill="midnightblue" stroke="midnightblue" points="299.418,-58.0618 294.406,-67.396 304.145,-63.225 299.418,-58.0618"/>
</g>
<!-- Node25 -->
<g id="node25" class="node"><title>Node25</title>
<g id="a_node25"><a xlink:href="pmesplinespreadtest_8cpp.xhtml" target="_top" xlink:title="Implements PME spline computation and charge spreading tests. ">
<polygon fill="white" stroke="black" points="0,-0.5 0,-30.5 128,-30.5 128,-0.5 0,-0.5"/>
<text text-anchor="start" x="8" y="-18.5" font-family="Helvetica,sans-Serif" font-size="10.00">src/gromacs/ewald/tests</text>
<text text-anchor="middle" x="64" y="-7.5" font-family="Helvetica,sans-Serif" font-size="10.00">/pmesplinespreadtest.cpp</text>
</a>
</g>
</g>
<!-- Node22&#45;&gt;Node25 -->
<g id="edge29" class="edge"><title>Node22&#45;&gt;Node25</title>
<path fill="none" stroke="midnightblue" d="M223.033,-64.5797C188.113,-54.0225 143.689,-40.5921 110.675,-30.6109"/>
<polygon fill="midnightblue" stroke="midnightblue" points="222.028,-67.9323 232.613,-67.476 224.054,-61.2318 222.028,-67.9323"/>
</g>
</g>
</svg>
