<?xml version="1.0" encoding="UTF-8" standalone="no"?>
<!DOCTYPE svg PUBLIC "-//W3C//DTD SVG 1.1//EN"
 "http://www.w3.org/Graphics/SVG/1.1/DTD/svg11.dtd">
<!-- Generated by graphviz version 2.38.0 (20140413.2041)
 -->
<!-- Title: Graphical Class Hierarchy Pages: 1 -->
<svg width="323pt" height="142pt"
 viewBox="0.00 0.00 323.00 142.00" xmlns="http://www.w3.org/2000/svg" xmlns:xlink="http://www.w3.org/1999/xlink">
<g id="graph0" class="graph" transform="scale(1 1) rotate(0) translate(4 138)">
<title>Graphical Class Hierarchy</title>
<polygon fill="white" stroke="none" points="-4,4 -4,-138 319,-138 319,4 -4,4"/>
<!-- Node1 -->
<g id="node1" class="node"><title>Node1</title>
<g id="a_node1"><a xlink:href="classgmx_1_1IForceProvider.xhtml" target="_top" xlink:title="Interface for a component that provides forces during MD. ">
<polygon fill="white" stroke="black" points="11.5,-114.5 11.5,-133.5 116.5,-133.5 116.5,-114.5 11.5,-114.5"/>
<text text-anchor="middle" x="64" y="-121.5" font-family="Helvetica,sans-Serif" font-size="10.00">gmx::IForceProvider</text>
</a>
</g>
</g>
<!-- Node2 -->
<g id="node2" class="node"><title>Node2</title>
<g id="a_node2"><a xlink:href="classgmx_1_1anonymous__namespace_02electricfield_8cpp_03_1_1ElectricField.xhtml" target="_top" xlink:title="Describe time dependent electric field. ">
<polygon fill="white" stroke="black" points="164,-52 164,-82 315,-82 315,-52 164,-52"/>
<text text-anchor="start" x="172" y="-70" font-family="Helvetica,sans-Serif" font-size="10.00">gmx::anonymous_namespace</text>
<text text-anchor="middle" x="239.5" y="-59" font-family="Helvetica,sans-Serif" font-size="10.00">{electricfield.cpp}::ElectricField</text>
</a>
</g>
</g>
<!-- Node1&#45;&gt;Node2 -->
<g id="edge1" class="edge"><title>Node1&#45;&gt;Node2</title>
<path fill="none" stroke="midnightblue" d="M107.382,-111.461C114.287,-109.348 121.353,-107.145 128,-105 150.493,-97.7437 175.397,-89.2221 195.861,-82.0896"/>
<polygon fill="midnightblue" stroke="midnightblue" points="106.002,-108.222 97.4475,-114.473 108.033,-114.921 106.002,-108.222"/>
</g>
<!-- Node3 -->
<g id="node3" class="node"><title>Node3</title>
<g id="a_node3"><a xlink:href="classgmx_1_1IMDModule.xhtml" target="_top" xlink:title="Extension module for GROMACS simulations. ">
<polygon fill="white" stroke="black" points="18,-76.5 18,-95.5 110,-95.5 110,-76.5 18,-76.5"/>
<text text-anchor="middle" x="64" y="-83.5" font-family="Helvetica,sans-Serif" font-size="10.00">gmx::IMDModule</text>
</a>
</g>
</g>
<!-- Node3&#45;&gt;Node2 -->
<g id="edge2" class="edge"><title>Node3&#45;&gt;Node2</title>
<path fill="none" stroke="midnightblue" d="M120.398,-79.9334C134.169,-78.4253 149.159,-76.7838 163.692,-75.1922"/>
<polygon fill="midnightblue" stroke="midnightblue" points="119.692,-76.4897 110.132,-81.0576 120.454,-83.4481 119.692,-76.4897"/>
</g>
<!-- Node4 -->
<g id="node4" class="node"><title>Node4</title>
<g id="a_node4"><a xlink:href="classgmx_1_1IMDOutputProvider.xhtml" target="_top" xlink:title="Interface for handling additional output files during a simulation. ">
<polygon fill="white" stroke="black" points="1.5,-38.5 1.5,-57.5 126.5,-57.5 126.5,-38.5 1.5,-38.5"/>
<text text-anchor="middle" x="64" y="-45.5" font-family="Helvetica,sans-Serif" font-size="10.00">gmx::IMDOutputProvider</text>
</a>
</g>
</g>
<!-- Node4&#45;&gt;Node2 -->
<g id="edge3" class="edge"><title>Node4&#45;&gt;Node2</title>
<path fill="none" stroke="midnightblue" d="M136.703,-55.8522C145.703,-56.8378 154.926,-57.8478 163.969,-58.8381"/>
<polygon fill="midnightblue" stroke="midnightblue" points="136.98,-52.3617 126.658,-54.7522 136.218,-59.3201 136.98,-52.3617"/>
</g>
<!-- Node5 -->
<g id="node5" class="node"><title>Node5</title>
<g id="a_node5"><a xlink:href="classgmx_1_1IMdpOptionProvider.xhtml" target="_top" xlink:title="Interface for handling mdp/tpr input to a mdrun module. ">
<polygon fill="white" stroke="black" points="0,-0.5 0,-19.5 128,-19.5 128,-0.5 0,-0.5"/>
<text text-anchor="middle" x="64" y="-7.5" font-family="Helvetica,sans-Serif" font-size="10.00">gmx::IMdpOptionProvider</text>
</a>
</g>
</g>
<!-- Node5&#45;&gt;Node2 -->
<g id="edge4" class="edge"><title>Node5&#45;&gt;Node2</title>
<path fill="none" stroke="midnightblue" d="M107.382,-22.5389C114.287,-24.6516 121.353,-26.8555 128,-29 150.493,-36.2563 175.397,-44.7779 195.861,-51.9104"/>
<polygon fill="midnightblue" stroke="midnightblue" points="108.033,-19.0791 97.4475,-19.5266 106.002,-25.7779 108.033,-19.0791"/>
</g>
</g>
</svg>
