<?xml version="1.0" encoding="UTF-8" standalone="no"?>
<!DOCTYPE svg PUBLIC "-//W3C//DTD SVG 1.1//EN"
 "http://www.w3.org/Graphics/SVG/1.1/DTD/svg11.dtd">
<!-- Generated by graphviz version 2.38.0 (20140413.2041)
 -->
<!-- Title: src/programs/mdrun/tests/initialconstraints.cpp Pages: 1 -->
<svg width="1658pt" height="397pt"
 viewBox="0.00 0.00 1658.00 397.00" xmlns="http://www.w3.org/2000/svg" xmlns:xlink="http://www.w3.org/1999/xlink">
<g id="graph0" class="graph" transform="scale(1 1) rotate(0) translate(4 393)">
<title>src/programs/mdrun/tests/initialconstraints.cpp</title>
<polygon fill="white" stroke="none" points="-4,4 -4,-393 1654,-393 1654,4 -4,4"/>
<!-- Node1 -->
<g id="node1" class="node"><title>Node1</title>
<polygon fill="#bfbfbf" stroke="black" points="142,-358.5 142,-388.5 276,-388.5 276,-358.5 142,-358.5"/>
<text text-anchor="start" x="150" y="-376.5" font-family="Helvetica,sans-Serif" font-size="10.00">src/programs/mdrun</text>
<text text-anchor="middle" x="209" y="-365.5" font-family="Helvetica,sans-Serif" font-size="10.00">/tests/initialconstraints.cpp</text>
</g>
<!-- Node2 -->
<g id="node2" class="node"><title>Node2</title>
<g id="a_node2"><a xlink:href="gmxpre_8h.xhtml" target="_top" xlink:title="Prerequisite header file for GROMACS build. ">
<polygon fill="white" stroke="black" points="85.5,-302.5 85.5,-321.5 142.5,-321.5 142.5,-302.5 85.5,-302.5"/>
<text text-anchor="middle" x="114" y="-309.5" font-family="Helvetica,sans-Serif" font-size="10.00">gmxpre.h</text>
</a>
</g>
</g>
<!-- Node1&#45;&gt;Node2 -->
<g id="edge1" class="edge"><title>Node1&#45;&gt;Node2</title>
<path fill="none" stroke="midnightblue" d="M186.486,-358.399C171.401,-348.951 151.615,-336.559 136.527,-327.109"/>
<polygon fill="midnightblue" stroke="midnightblue" points="138.156,-324 127.823,-321.658 134.441,-329.932 138.156,-324"/>
</g>
<!-- Node3 -->
<g id="node3" class="node"><title>Node3</title>
<polygon fill="white" stroke="#bfbfbf" points="351.5,-123.5 351.5,-142.5 392.5,-142.5 392.5,-123.5 351.5,-123.5"/>
<text text-anchor="middle" x="372" y="-130.5" font-family="Helvetica,sans-Serif" font-size="10.00">string</text>
</g>
<!-- Node1&#45;&gt;Node3 -->
<g id="edge2" class="edge"><title>Node1&#45;&gt;Node3</title>
<path fill="none" stroke="midnightblue" d="M212.072,-358.457C220.193,-324.137 245.107,-234.744 295,-179 307.827,-164.669 326.336,-153.65 341.992,-146.104"/>
<polygon fill="midnightblue" stroke="midnightblue" points="343.653,-149.193 351.295,-141.855 340.745,-142.826 343.653,-149.193"/>
</g>
<!-- Node4 -->
<g id="node4" class="node"><title>Node4</title>
<g id="a_node4"><a xlink:href="stringutil_8h.xhtml" target="_top" xlink:title="Declares common string utility and formatting routines. ">
<polygon fill="white" stroke="black" points="53,-185 53,-204 181,-204 181,-185 53,-185"/>
<text text-anchor="middle" x="117" y="-192" font-family="Helvetica,sans-Serif" font-size="10.00">gromacs/utility/stringutil.h</text>
</a>
</g>
</g>
<!-- Node1&#45;&gt;Node4 -->
<g id="edge3" class="edge"><title>Node1&#45;&gt;Node4</title>
<path fill="none" stroke="midnightblue" d="M201.627,-358.315C185.017,-326.358 144.694,-248.781 126.356,-213.501"/>
<polygon fill="midnightblue" stroke="midnightblue" points="129.33,-211.633 121.613,-204.374 123.119,-214.861 129.33,-211.633"/>
</g>
<!-- Node8 -->
<g id="node8" class="node"><title>Node8</title>
<g id="a_node8"><a xlink:href="energyreader_8h.xhtml" target="_top" xlink:title="Interfaces of related classes for tests that want to inspect energies produced by mdrun...">
<polygon fill="white" stroke="black" points="492.5,-302.5 492.5,-321.5 573.5,-321.5 573.5,-302.5 492.5,-302.5"/>
<text text-anchor="middle" x="533" y="-309.5" font-family="Helvetica,sans-Serif" font-size="10.00">energyreader.h</text>
</a>
</g>
</g>
<!-- Node1&#45;&gt;Node8 -->
<g id="edge8" class="edge"><title>Node1&#45;&gt;Node8</title>
<path fill="none" stroke="midnightblue" d="M276.133,-360.172C337.38,-348.924 426.561,-332.547 482.109,-322.346"/>
<polygon fill="midnightblue" stroke="midnightblue" points="482.872,-325.764 492.076,-320.515 481.608,-318.879 482.872,-325.764"/>
</g>
<!-- Node30 -->
<g id="node30" class="node"><title>Node30</title>
<g id="a_node30"><a xlink:href="programs_2mdrun_2tests_2moduletest_8h.xhtml" target="_top" xlink:title="Declares test fixtures for general mdrun functionality. ">
<polygon fill="white" stroke="black" points="1019.5,-302.5 1019.5,-321.5 1092.5,-321.5 1092.5,-302.5 1019.5,-302.5"/>
<text text-anchor="middle" x="1056" y="-309.5" font-family="Helvetica,sans-Serif" font-size="10.00">moduletest.h</text>
</a>
</g>
</g>
<!-- Node1&#45;&gt;Node30 -->
<g id="edge43" class="edge"><title>Node1&#45;&gt;Node30</title>
<path fill="none" stroke="midnightblue" d="M276.171,-367.781C442.03,-356.13 867.782,-326.222 1009.4,-316.273"/>
<polygon fill="midnightblue" stroke="midnightblue" points="1009.76,-319.757 1019.49,-315.565 1009.27,-312.774 1009.76,-319.757"/>
</g>
<!-- Node4&#45;&gt;Node3 -->
<g id="edge6" class="edge"><title>Node4&#45;&gt;Node3</title>
<path fill="none" stroke="midnightblue" d="M153.535,-184.975C203.98,-173.205 294.063,-152.185 341.249,-141.175"/>
<polygon fill="midnightblue" stroke="midnightblue" points="342.24,-144.538 351.183,-138.857 340.649,-137.721 342.24,-144.538"/>
</g>
<!-- Node5 -->
<g id="node5" class="node"><title>Node5</title>
<polygon fill="white" stroke="#bfbfbf" points="64.5,-123.5 64.5,-142.5 113.5,-142.5 113.5,-123.5 64.5,-123.5"/>
<text text-anchor="middle" x="89" y="-130.5" font-family="Helvetica,sans-Serif" font-size="10.00">cstdarg</text>
</g>
<!-- Node4&#45;&gt;Node5 -->
<g id="edge4" class="edge"><title>Node4&#45;&gt;Node5</title>
<path fill="none" stroke="midnightblue" d="M112.988,-184.975C108.913,-176.315 102.482,-162.649 97.3037,-151.645"/>
<polygon fill="midnightblue" stroke="midnightblue" points="100.429,-150.067 93.0043,-142.509 94.0954,-153.048 100.429,-150.067"/>
</g>
<!-- Node6 -->
<g id="node6" class="node"><title>Node6</title>
<polygon fill="white" stroke="#bfbfbf" points="0,-123.5 0,-142.5 46,-142.5 46,-123.5 0,-123.5"/>
<text text-anchor="middle" x="23" y="-130.5" font-family="Helvetica,sans-Serif" font-size="10.00">cstring</text>
</g>
<!-- Node4&#45;&gt;Node6 -->
<g id="edge5" class="edge"><title>Node4&#45;&gt;Node6</title>
<path fill="none" stroke="midnightblue" d="M103.532,-184.975C88.3152,-175.343 63.3133,-159.517 45.1992,-148.052"/>
<polygon fill="midnightblue" stroke="midnightblue" points="46.7644,-144.9 36.4429,-142.509 43.0205,-150.815 46.7644,-144.9"/>
</g>
<!-- Node7 -->
<g id="node7" class="node"><title>Node7</title>
<polygon fill="white" stroke="#bfbfbf" points="474,-123.5 474,-142.5 518,-142.5 518,-123.5 474,-123.5"/>
<text text-anchor="middle" x="496" y="-130.5" font-family="Helvetica,sans-Serif" font-size="10.00">vector</text>
</g>
<!-- Node4&#45;&gt;Node7 -->
<g id="edge7" class="edge"><title>Node4&#45;&gt;Node7</title>
<path fill="none" stroke="midnightblue" d="M181.076,-186.697C248.929,-178.926 359.261,-164.676 463.928,-142.743"/>
<polygon fill="midnightblue" stroke="midnightblue" points="464.657,-146.167 473.712,-140.667 463.203,-139.319 464.657,-146.167"/>
</g>
<!-- Node8&#45;&gt;Node3 -->
<g id="edge12" class="edge"><title>Node8&#45;&gt;Node3</title>
<path fill="none" stroke="midnightblue" d="M492.123,-306.344C438.341,-297.779 345.764,-274.065 304,-210 296.476,-198.458 297.478,-191.136 304,-179 312.136,-163.861 327.848,-152.96 342.122,-145.683"/>
<polygon fill="midnightblue" stroke="midnightblue" points="343.638,-148.837 351.199,-141.415 340.66,-142.502 343.638,-148.837"/>
</g>
<!-- Node8&#45;&gt;Node7 -->
<g id="edge13" class="edge"><title>Node8&#45;&gt;Node7</title>
<path fill="none" stroke="midnightblue" d="M527.411,-302.438C521.986,-293.67 514.002,-279.456 510,-266 498.378,-226.923 496.133,-178.819 495.855,-152.824"/>
<polygon fill="midnightblue" stroke="midnightblue" points="499.355,-152.543 495.839,-142.549 492.355,-152.554 499.355,-152.543"/>
</g>
<!-- Node9 -->
<g id="node9" class="node"><title>Node9</title>
<polygon fill="white" stroke="#bfbfbf" points="649,-246.5 649,-265.5 695,-265.5 695,-246.5 649,-246.5"/>
<text text-anchor="middle" x="672" y="-253.5" font-family="Helvetica,sans-Serif" font-size="10.00">cstdint</text>
</g>
<!-- Node8&#45;&gt;Node9 -->
<g id="edge9" class="edge"><title>Node8&#45;&gt;Node9</title>
<path fill="none" stroke="midnightblue" d="M555.025,-302.444C578.104,-293.478 614.562,-279.314 640.641,-269.183"/>
<polygon fill="midnightblue" stroke="midnightblue" points="642.024,-272.4 650.078,-265.516 639.489,-265.875 642.024,-272.4"/>
</g>
<!-- Node10 -->
<g id="node10" class="node"><title>Node10</title>
<polygon fill="white" stroke="#bfbfbf" points="713.5,-246.5 713.5,-265.5 748.5,-265.5 748.5,-246.5 713.5,-246.5"/>
<text text-anchor="middle" x="731" y="-253.5" font-family="Helvetica,sans-Serif" font-size="10.00">map</text>
</g>
<!-- Node8&#45;&gt;Node10 -->
<g id="edge10" class="edge"><title>Node8&#45;&gt;Node10</title>
<path fill="none" stroke="midnightblue" d="M568.227,-302.435C600.896,-294.336 651.057,-281.507 703.515,-265.997"/>
<polygon fill="midnightblue" stroke="midnightblue" points="704.75,-269.281 713.333,-263.07 702.75,-262.573 704.75,-269.281"/>
</g>
<!-- Node11 -->
<g id="node11" class="node"><title>Node11</title>
<polygon fill="white" stroke="#bfbfbf" points="1087,-62 1087,-81 1139,-81 1139,-62 1087,-62"/>
<text text-anchor="middle" x="1113" y="-69" font-family="Helvetica,sans-Serif" font-size="10.00">memory</text>
</g>
<!-- Node8&#45;&gt;Node11 -->
<g id="edge11" class="edge"><title>Node8&#45;&gt;Node11</title>
<path fill="none" stroke="midnightblue" d="M573.717,-307.44C619.811,-302.377 696.485,-290.802 758,-266 824.549,-239.169 827.355,-205.591 894,-179 972.611,-147.634 1014.53,-195.389 1081,-143 1097.13,-130.291 1105.4,-107.649 1109.45,-91.4516"/>
<polygon fill="midnightblue" stroke="midnightblue" points="1112.92,-91.9852 1111.63,-81.4693 1106.08,-90.495 1112.92,-91.9852"/>
</g>
<!-- Node12 -->
<g id="node12" class="node"><title>Node12</title>
<g id="a_node12"><a xlink:href="unique__cptr_8h.xhtml" target="_top" xlink:title="Declares gmx::unique_cptr and gmx::sfree_guard. ">
<polygon fill="white" stroke="black" points="313,-179.5 313,-209.5 425,-209.5 425,-179.5 313,-179.5"/>
<text text-anchor="start" x="321" y="-197.5" font-family="Helvetica,sans-Serif" font-size="10.00">gromacs/utility/unique</text>
<text text-anchor="middle" x="369" y="-186.5" font-family="Helvetica,sans-Serif" font-size="10.00">_cptr.h</text>
</a>
</g>
</g>
<!-- Node8&#45;&gt;Node12 -->
<g id="edge14" class="edge"><title>Node8&#45;&gt;Node12</title>
<path fill="none" stroke="midnightblue" d="M520.673,-302.319C494.605,-283.96 433.317,-240.796 397.131,-215.312"/>
<polygon fill="midnightblue" stroke="midnightblue" points="399.134,-212.442 388.943,-209.545 395.104,-218.165 399.134,-212.442"/>
</g>
<!-- Node19 -->
<g id="node19" class="node"><title>Node19</title>
<g id="a_node19"><a xlink:href="testasserts_8h.xhtml" target="_top" xlink:title="Extra assertions for unit tests. ">
<polygon fill="white" stroke="black" points="519.5,-246.5 519.5,-265.5 630.5,-265.5 630.5,-246.5 519.5,-246.5"/>
<text text-anchor="middle" x="575" y="-253.5" font-family="Helvetica,sans-Serif" font-size="10.00">testutils/testasserts.h</text>
</a>
</g>
</g>
<!-- Node8&#45;&gt;Node19 -->
<g id="edge22" class="edge"><title>Node8&#45;&gt;Node19</title>
<path fill="none" stroke="midnightblue" d="M539.935,-302.083C545.929,-294.377 554.752,-283.033 562.048,-273.653"/>
<polygon fill="midnightblue" stroke="midnightblue" points="564.817,-275.793 568.194,-265.751 559.291,-271.496 564.817,-275.793"/>
</g>
<!-- Node12&#45;&gt;Node11 -->
<g id="edge16" class="edge"><title>Node12&#45;&gt;Node11</title>
<path fill="none" stroke="midnightblue" d="M355.82,-179.374C342.895,-163.808 327.127,-138.879 342,-123 354.733,-109.406 926.046,-81.3727 1076.83,-74.2006"/>
<polygon fill="midnightblue" stroke="midnightblue" points="1077.12,-77.6907 1086.95,-73.7207 1076.79,-70.6986 1077.12,-77.6907"/>
</g>
<!-- Node13 -->
<g id="node13" class="node"><title>Node13</title>
<polygon fill="white" stroke="#bfbfbf" points="410.5,-123.5 410.5,-142.5 455.5,-142.5 455.5,-123.5 410.5,-123.5"/>
<text text-anchor="middle" x="433" y="-130.5" font-family="Helvetica,sans-Serif" font-size="10.00">cstdlib</text>
</g>
<!-- Node12&#45;&gt;Node13 -->
<g id="edge15" class="edge"><title>Node12&#45;&gt;Node13</title>
<path fill="none" stroke="midnightblue" d="M384.167,-179.399C393.755,-170.486 406.161,-158.952 416.069,-149.741"/>
<polygon fill="midnightblue" stroke="midnightblue" points="418.747,-152.03 423.687,-142.658 413.98,-146.903 418.747,-152.03"/>
</g>
<!-- Node14 -->
<g id="node14" class="node"><title>Node14</title>
<g id="a_node14"><a xlink:href="smalloc_8h.xhtml" target="_top" xlink:title="C memory allocation routines for GROMACS. ">
<polygon fill="white" stroke="black" points="131.5,-123.5 131.5,-142.5 256.5,-142.5 256.5,-123.5 131.5,-123.5"/>
<text text-anchor="middle" x="194" y="-130.5" font-family="Helvetica,sans-Serif" font-size="10.00">gromacs/utility/smalloc.h</text>
</a>
</g>
</g>
<!-- Node12&#45;&gt;Node14 -->
<g id="edge17" class="edge"><title>Node12&#45;&gt;Node14</title>
<path fill="none" stroke="midnightblue" d="M327.527,-179.399C297.42,-169.163 257.148,-155.47 228.73,-145.808"/>
<polygon fill="midnightblue" stroke="midnightblue" points="229.803,-142.476 219.209,-142.571 227.55,-149.104 229.803,-142.476"/>
</g>
<!-- Node15 -->
<g id="node15" class="node"><title>Node15</title>
<polygon fill="white" stroke="#bfbfbf" points="168,-62 168,-81 220,-81 220,-62 168,-62"/>
<text text-anchor="middle" x="194" y="-69" font-family="Helvetica,sans-Serif" font-size="10.00">stddef.h</text>
</g>
<!-- Node14&#45;&gt;Node15 -->
<g id="edge18" class="edge"><title>Node14&#45;&gt;Node15</title>
<path fill="none" stroke="midnightblue" d="M194,-123.475C194,-115.08 194,-101.981 194,-91.1631"/>
<polygon fill="midnightblue" stroke="midnightblue" points="197.5,-91.0091 194,-81.0091 190.5,-91.0091 197.5,-91.0091"/>
</g>
<!-- Node16 -->
<g id="node16" class="node"><title>Node16</title>
<g id="a_node16"><a xlink:href="basedefinitions_8h.xhtml" target="_top" xlink:title="Basic types and macros used throughout GROMACS. ">
<polygon fill="white" stroke="black" points="400.5,-62 400.5,-81 557.5,-81 557.5,-62 400.5,-62"/>
<text text-anchor="middle" x="479" y="-69" font-family="Helvetica,sans-Serif" font-size="10.00">gromacs/utility/basedefinitions.h</text>
</a>
</g>
</g>
<!-- Node14&#45;&gt;Node16 -->
<g id="edge19" class="edge"><title>Node14&#45;&gt;Node16</title>
<path fill="none" stroke="midnightblue" d="M234.834,-123.475C285.837,-112.827 373.099,-94.6092 428.32,-83.0806"/>
<polygon fill="midnightblue" stroke="midnightblue" points="429.169,-86.479 438.242,-81.0091 427.738,-79.6267 429.169,-86.479"/>
</g>
<!-- Node17 -->
<g id="node17" class="node"><title>Node17</title>
<polygon fill="white" stroke="#bfbfbf" points="418.5,-0.5 418.5,-19.5 467.5,-19.5 467.5,-0.5 418.5,-0.5"/>
<text text-anchor="middle" x="443" y="-7.5" font-family="Helvetica,sans-Serif" font-size="10.00">stdint.h</text>
</g>
<!-- Node16&#45;&gt;Node17 -->
<g id="edge20" class="edge"><title>Node16&#45;&gt;Node17</title>
<path fill="none" stroke="midnightblue" d="M473.842,-61.9751C468.549,-53.2268 460.165,-39.3691 453.473,-28.3093"/>
<polygon fill="midnightblue" stroke="midnightblue" points="456.32,-26.2531 448.148,-19.5091 450.33,-29.8768 456.32,-26.2531"/>
</g>
<!-- Node18 -->
<g id="node18" class="node"><title>Node18</title>
<polygon fill="white" stroke="#bfbfbf" points="485.5,-0.5 485.5,-19.5 544.5,-19.5 544.5,-0.5 485.5,-0.5"/>
<text text-anchor="middle" x="515" y="-7.5" font-family="Helvetica,sans-Serif" font-size="10.00">inttypes.h</text>
</g>
<!-- Node16&#45;&gt;Node18 -->
<g id="edge21" class="edge"><title>Node16&#45;&gt;Node18</title>
<path fill="none" stroke="midnightblue" d="M484.158,-61.9751C489.451,-53.2268 497.835,-39.3691 504.527,-28.3093"/>
<polygon fill="midnightblue" stroke="midnightblue" points="507.67,-29.8768 509.852,-19.5091 501.68,-26.2531 507.67,-29.8768"/>
</g>
<!-- Node19&#45;&gt;Node3 -->
<g id="edge23" class="edge"><title>Node19&#45;&gt;Node3</title>
<path fill="none" stroke="midnightblue" d="M560.725,-246.492C526.158,-225.887 437.688,-173.154 395.311,-147.895"/>
<polygon fill="midnightblue" stroke="midnightblue" points="396.912,-144.775 386.531,-142.661 393.328,-150.788 396.912,-144.775"/>
</g>
<!-- Node19&#45;&gt;Node16 -->
<g id="edge25" class="edge"><title>Node19&#45;&gt;Node16</title>
<path fill="none" stroke="midnightblue" d="M519.49,-253.92C448.382,-251.226 331.061,-241.925 304,-210 282.132,-184.202 331.33,-123.587 332,-123 354.786,-103.055 385.842,-90.8918 413.539,-83.521"/>
<polygon fill="midnightblue" stroke="midnightblue" points="414.715,-86.8348 423.57,-81.0167 413.02,-80.0432 414.715,-86.8348"/>
</g>
<!-- Node20 -->
<g id="node20" class="node"><title>Node20</title>
<polygon fill="white" stroke="#bfbfbf" points="902.5,-185 902.5,-204 973.5,-204 973.5,-185 902.5,-185"/>
<text text-anchor="middle" x="938" y="-192" font-family="Helvetica,sans-Serif" font-size="10.00">gtest/gtest.h</text>
</g>
<!-- Node19&#45;&gt;Node20 -->
<g id="edge24" class="edge"><title>Node19&#45;&gt;Node20</title>
<path fill="none" stroke="midnightblue" d="M627.009,-246.475C698.147,-234.815 824.661,-214.078 892.325,-202.987"/>
<polygon fill="midnightblue" stroke="midnightblue" points="892.962,-206.429 902.264,-201.357 891.83,-199.521 892.962,-206.429"/>
</g>
<!-- Node21 -->
<g id="node21" class="node"><title>Node21</title>
<g id="a_node21"><a xlink:href="exceptions_8h.xhtml" target="_top" xlink:title="Declares common exception classes and macros for fatal error handling. ">
<polygon fill="white" stroke="black" points="683.5,-185 683.5,-204 822.5,-204 822.5,-185 683.5,-185"/>
<text text-anchor="middle" x="753" y="-192" font-family="Helvetica,sans-Serif" font-size="10.00">gromacs/utility/exceptions.h</text>
</a>
</g>
</g>
<!-- Node19&#45;&gt;Node21 -->
<g id="edge26" class="edge"><title>Node19&#45;&gt;Node21</title>
<path fill="none" stroke="midnightblue" d="M600.503,-246.475C631.301,-236.18 683.265,-218.81 717.848,-207.25"/>
<polygon fill="midnightblue" stroke="midnightblue" points="719.17,-210.499 727.544,-204.009 716.95,-203.86 719.17,-210.499"/>
</g>
<!-- Node29 -->
<g id="node29" class="node"><title>Node29</title>
<g id="a_node29"><a xlink:href="real_8h.xhtml" target="_top" xlink:title="Declares real and related constants. ">
<polygon fill="white" stroke="black" points="519.5,-185 519.5,-204 626.5,-204 626.5,-185 519.5,-185"/>
<text text-anchor="middle" x="573" y="-192" font-family="Helvetica,sans-Serif" font-size="10.00">gromacs/utility/real.h</text>
</a>
</g>
</g>
<!-- Node19&#45;&gt;Node29 -->
<g id="edge42" class="edge"><title>Node19&#45;&gt;Node29</title>
<path fill="none" stroke="midnightblue" d="M574.713,-246.475C574.431,-238.08 573.991,-224.981 573.627,-214.163"/>
<polygon fill="midnightblue" stroke="midnightblue" points="577.12,-213.886 573.286,-204.009 570.124,-214.121 577.12,-213.886"/>
</g>
<!-- Node21&#45;&gt;Node3 -->
<g id="edge31" class="edge"><title>Node21&#45;&gt;Node3</title>
<path fill="none" stroke="midnightblue" d="M705.517,-184.985C693.609,-182.937 680.849,-180.818 669,-179 553.457,-161.274 520.164,-168.477 402.89,-143.128"/>
<polygon fill="midnightblue" stroke="midnightblue" points="403.315,-139.638 392.797,-140.911 401.814,-146.475 403.315,-139.638"/>
</g>
<!-- Node21&#45;&gt;Node7 -->
<g id="edge34" class="edge"><title>Node21&#45;&gt;Node7</title>
<path fill="none" stroke="midnightblue" d="M714.617,-184.978C670.493,-175.123 595.923,-158.292 532,-143 530.731,-142.696 529.438,-142.385 528.132,-142.068"/>
<polygon fill="midnightblue" stroke="midnightblue" points="528.614,-138.582 518.067,-139.592 526.942,-145.379 528.614,-138.582"/>
</g>
<!-- Node21&#45;&gt;Node11 -->
<g id="edge30" class="edge"><title>Node21&#45;&gt;Node11</title>
<path fill="none" stroke="midnightblue" d="M810.641,-184.97C895.567,-172.248 1045.48,-149.138 1056,-143 1077.39,-130.523 1094.02,-106.751 1103.66,-90.2817"/>
<polygon fill="midnightblue" stroke="midnightblue" points="1106.94,-91.5789 1108.74,-81.1373 1100.82,-88.1801 1106.94,-91.5789"/>
</g>
<!-- Node21&#45;&gt;Node13 -->
<g id="edge28" class="edge"><title>Node21&#45;&gt;Node13</title>
<path fill="none" stroke="midnightblue" d="M703.715,-184.991C632.402,-172.661 505.348,-150.625 465.488,-142.74"/>
<polygon fill="midnightblue" stroke="midnightblue" points="466.159,-139.305 455.653,-140.675 464.721,-146.156 466.159,-139.305"/>
</g>
<!-- Node21&#45;&gt;Node16 -->
<g id="edge35" class="edge"><title>Node21&#45;&gt;Node16</title>
<path fill="none" stroke="midnightblue" d="M697.271,-184.948C658.62,-177.509 606.785,-164.465 565,-143 537.507,-128.877 510.768,-104.847 494.591,-88.8238"/>
<polygon fill="midnightblue" stroke="midnightblue" points="496.658,-85.9355 487.146,-81.2696 491.673,-90.849 496.658,-85.9355"/>
</g>
<!-- Node22 -->
<g id="node22" class="node"><title>Node22</title>
<polygon fill="white" stroke="#bfbfbf" points="690.5,-123.5 690.5,-142.5 733.5,-142.5 733.5,-123.5 690.5,-123.5"/>
<text text-anchor="middle" x="712" y="-130.5" font-family="Helvetica,sans-Serif" font-size="10.00">cstdio</text>
</g>
<!-- Node21&#45;&gt;Node22 -->
<g id="edge27" class="edge"><title>Node21&#45;&gt;Node22</title>
<path fill="none" stroke="midnightblue" d="M747.126,-184.975C741.037,-176.138 731.355,-162.089 723.697,-150.975"/>
<polygon fill="midnightblue" stroke="midnightblue" points="726.42,-148.758 717.863,-142.509 720.656,-152.729 726.42,-148.758"/>
</g>
<!-- Node23 -->
<g id="node23" class="node"><title>Node23</title>
<polygon fill="white" stroke="#bfbfbf" points="751.5,-123.5 751.5,-142.5 810.5,-142.5 810.5,-123.5 751.5,-123.5"/>
<text text-anchor="middle" x="781" y="-130.5" font-family="Helvetica,sans-Serif" font-size="10.00">exception</text>
</g>
<!-- Node21&#45;&gt;Node23 -->
<g id="edge29" class="edge"><title>Node21&#45;&gt;Node23</title>
<path fill="none" stroke="midnightblue" d="M757.012,-184.975C761.087,-176.315 767.518,-162.649 772.696,-151.645"/>
<polygon fill="midnightblue" stroke="midnightblue" points="775.905,-153.048 776.996,-142.509 769.571,-150.067 775.905,-153.048"/>
</g>
<!-- Node24 -->
<g id="node24" class="node"><title>Node24</title>
<polygon fill="white" stroke="#bfbfbf" points="829,-123.5 829,-142.5 891,-142.5 891,-123.5 829,-123.5"/>
<text text-anchor="middle" x="860" y="-130.5" font-family="Helvetica,sans-Serif" font-size="10.00">type_traits</text>
</g>
<!-- Node21&#45;&gt;Node24 -->
<g id="edge32" class="edge"><title>Node21&#45;&gt;Node24</title>
<path fill="none" stroke="midnightblue" d="M768.33,-184.975C785.97,-175.166 815.16,-158.935 835.858,-147.425"/>
<polygon fill="midnightblue" stroke="midnightblue" points="837.659,-150.428 844.698,-142.509 834.257,-144.31 837.659,-150.428"/>
</g>
<!-- Node25 -->
<g id="node25" class="node"><title>Node25</title>
<polygon fill="white" stroke="#bfbfbf" points="574.5,-123.5 574.5,-142.5 633.5,-142.5 633.5,-123.5 574.5,-123.5"/>
<text text-anchor="middle" x="604" y="-130.5" font-family="Helvetica,sans-Serif" font-size="10.00">typeindex</text>
</g>
<!-- Node21&#45;&gt;Node25 -->
<g id="edge33" class="edge"><title>Node21&#45;&gt;Node25</title>
<path fill="none" stroke="midnightblue" d="M731.652,-184.975C706.314,-174.857 663.862,-157.905 634.929,-146.351"/>
<polygon fill="midnightblue" stroke="midnightblue" points="635.893,-142.967 625.308,-142.509 633.297,-149.468 635.893,-142.967"/>
</g>
<!-- Node26 -->
<g id="node26" class="node"><title>Node26</title>
<g id="a_node26"><a xlink:href="classhelpers_8h.xhtml" target="_top" xlink:title="Declares common utility classes and macros. ">
<polygon fill="white" stroke="black" points="1141,-123.5 1141,-142.5 1287,-142.5 1287,-123.5 1141,-123.5"/>
<text text-anchor="middle" x="1214" y="-130.5" font-family="Helvetica,sans-Serif" font-size="10.00">gromacs/utility/classhelpers.h</text>
</a>
</g>
</g>
<!-- Node21&#45;&gt;Node26 -->
<g id="edge36" class="edge"><title>Node21&#45;&gt;Node26</title>
<path fill="none" stroke="midnightblue" d="M819.05,-184.975C903.434,-174.084 1049.17,-155.274 1138.06,-143.802"/>
<polygon fill="midnightblue" stroke="midnightblue" points="1138.6,-147.26 1148.07,-142.509 1137.71,-140.318 1138.6,-147.26"/>
</g>
<!-- Node27 -->
<g id="node27" class="node"><title>Node27</title>
<g id="a_node27"><a xlink:href="current__function_8h.xhtml" target="_top" xlink:title="Declares GMX_CURRENT_FUNCTION for getting the current function name. ">
<polygon fill="white" stroke="black" points="671.5,-56.5 671.5,-86.5 784.5,-86.5 784.5,-56.5 671.5,-56.5"/>
<text text-anchor="start" x="679.5" y="-74.5" font-family="Helvetica,sans-Serif" font-size="10.00">gromacs/utility/current</text>
<text text-anchor="middle" x="728" y="-63.5" font-family="Helvetica,sans-Serif" font-size="10.00">_function.h</text>
</a>
</g>
</g>
<!-- Node21&#45;&gt;Node27 -->
<g id="edge38" class="edge"><title>Node21&#45;&gt;Node27</title>
<path fill="none" stroke="midnightblue" d="M731.573,-184.906C714.69,-176.851 692.333,-163.03 682,-143 672.985,-125.525 686.152,-106.945 700.676,-93.2481"/>
<polygon fill="midnightblue" stroke="midnightblue" points="703.082,-95.7927 708.284,-86.5625 698.461,-90.5344 703.082,-95.7927"/>
</g>
<!-- Node28 -->
<g id="node28" class="node"><title>Node28</title>
<g id="a_node28"><a xlink:href="gmxassert_8h.xhtml" target="_top" xlink:title="Defines assert macros customized for Gromacs. ">
<polygon fill="white" stroke="black" points="909.5,-123.5 909.5,-142.5 1046.5,-142.5 1046.5,-123.5 909.5,-123.5"/>
<text text-anchor="middle" x="978" y="-130.5" font-family="Helvetica,sans-Serif" font-size="10.00">gromacs/utility/gmxassert.h</text>
</a>
</g>
</g>
<!-- Node21&#45;&gt;Node28 -->
<g id="edge39" class="edge"><title>Node21&#45;&gt;Node28</title>
<path fill="none" stroke="midnightblue" d="M785.237,-184.975C824.919,-174.482 892.399,-156.637 936.074,-145.087"/>
<polygon fill="midnightblue" stroke="midnightblue" points="937.05,-148.449 945.823,-142.509 935.26,-141.682 937.05,-148.449"/>
</g>
<!-- Node26&#45;&gt;Node11 -->
<g id="edge37" class="edge"><title>Node26&#45;&gt;Node11</title>
<path fill="none" stroke="midnightblue" d="M1199.53,-123.475C1183.03,-113.755 1155.82,-97.7266 1136.32,-86.2372"/>
<polygon fill="midnightblue" stroke="midnightblue" points="1137.84,-83.0693 1127.44,-81.0091 1134.28,-89.1005 1137.84,-83.0693"/>
</g>
<!-- Node28&#45;&gt;Node16 -->
<g id="edge40" class="edge"><title>Node28&#45;&gt;Node16</title>
<path fill="none" stroke="midnightblue" d="M909.401,-123.82C818.324,-112.96 657.698,-93.8077 560.531,-82.2217"/>
<polygon fill="midnightblue" stroke="midnightblue" points="560.804,-78.7295 550.46,-81.0208 559.975,-85.6802 560.804,-78.7295"/>
</g>
<!-- Node28&#45;&gt;Node27 -->
<g id="edge41" class="edge"><title>Node28&#45;&gt;Node27</title>
<path fill="none" stroke="midnightblue" d="M942.181,-123.475C903.736,-114.325 841.808,-99.5862 794.407,-88.3049"/>
<polygon fill="midnightblue" stroke="midnightblue" points="795.065,-84.8638 784.526,-85.9533 793.444,-91.6736 795.065,-84.8638"/>
</g>
<!-- Node30&#45;&gt;Node20 -->
<g id="edge44" class="edge"><title>Node30&#45;&gt;Node20</title>
<path fill="none" stroke="midnightblue" d="M1047.13,-302.319C1027.4,-283.004 979.618,-236.237 954.329,-211.483"/>
<polygon fill="midnightblue" stroke="midnightblue" points="956.567,-208.776 946.972,-204.282 951.67,-213.778 956.567,-208.776"/>
</g>
<!-- Node30&#45;&gt;Node26 -->
<g id="edge45" class="edge"><title>Node30&#45;&gt;Node26</title>
<path fill="none" stroke="midnightblue" d="M1092.64,-306.996C1139.54,-301.028 1216.82,-288.069 1234,-266 1260.13,-232.447 1238.53,-179.189 1224.2,-151.704"/>
<polygon fill="midnightblue" stroke="midnightblue" points="1227.21,-149.925 1219.35,-142.828 1221.07,-153.281 1227.21,-149.925"/>
</g>
<!-- Node31 -->
<g id="node31" class="node"><title>Node31</title>
<g id="a_node31"><a xlink:href="cmdlinetest_8h.xhtml" target="_top" xlink:title="Declares utilities testing command&#45;line programs. ">
<polygon fill="white" stroke="black" points="1111.5,-246.5 1111.5,-265.5 1224.5,-265.5 1224.5,-246.5 1111.5,-246.5"/>
<text text-anchor="middle" x="1168" y="-253.5" font-family="Helvetica,sans-Serif" font-size="10.00">testutils/cmdlinetest.h</text>
</a>
</g>
</g>
<!-- Node30&#45;&gt;Node31 -->
<g id="edge46" class="edge"><title>Node30&#45;&gt;Node31</title>
<path fill="none" stroke="midnightblue" d="M1073.99,-302.324C1092.04,-293.625 1120.05,-280.12 1140.8,-270.113"/>
<polygon fill="midnightblue" stroke="midnightblue" points="1142.56,-273.15 1150.05,-265.655 1139.52,-266.845 1142.56,-273.15"/>
</g>
<!-- Node39 -->
<g id="node39" class="node"><title>Node39</title>
<g id="a_node39"><a xlink:href="testfilemanager_8h.xhtml" target="_top" xlink:title="Declares gmx::test::TestFileManager. ">
<polygon fill="white" stroke="black" points="991.5,-185 991.5,-204 1120.5,-204 1120.5,-185 991.5,-185"/>
<text text-anchor="middle" x="1056" y="-192" font-family="Helvetica,sans-Serif" font-size="10.00">testutils/testfilemanager.h</text>
</a>
</g>
</g>
<!-- Node30&#45;&gt;Node39 -->
<g id="edge60" class="edge"><title>Node30&#45;&gt;Node39</title>
<path fill="none" stroke="midnightblue" d="M1056,-302.319C1056,-283.757 1056,-239.839 1056,-214.473"/>
<polygon fill="midnightblue" stroke="midnightblue" points="1059.5,-214.282 1056,-204.282 1052.5,-214.282 1059.5,-214.282"/>
</g>
<!-- Node31&#45;&gt;Node3 -->
<g id="edge49" class="edge"><title>Node31&#45;&gt;Node3</title>
<path fill="none" stroke="midnightblue" d="M1111.08,-253.794C998.832,-250.769 753.069,-240.745 675,-210 654.073,-201.758 655.663,-187.882 635,-179 541.256,-138.703 505.693,-164.955 402.659,-143.058"/>
<polygon fill="midnightblue" stroke="midnightblue" points="403.33,-139.622 392.808,-140.863 401.807,-146.454 403.33,-139.622"/>
</g>
<!-- Node31&#45;&gt;Node11 -->
<g id="edge48" class="edge"><title>Node31&#45;&gt;Node11</title>
<path fill="none" stroke="midnightblue" d="M1188.57,-246.408C1233.79,-226.309 1334.87,-174.049 1296,-123 1278.28,-99.7307 1197.18,-84.4537 1149.09,-77.2712"/>
<polygon fill="midnightblue" stroke="midnightblue" points="1149.47,-73.7904 1139.07,-75.8209 1148.47,-80.7181 1149.47,-73.7904"/>
</g>
<!-- Node31&#45;&gt;Node20 -->
<g id="edge50" class="edge"><title>Node31&#45;&gt;Node20</title>
<path fill="none" stroke="midnightblue" d="M1129.16,-246.423C1091.58,-237.918 1033.1,-224.145 983,-210 979.84,-209.108 976.569,-208.141 973.299,-207.143"/>
<polygon fill="midnightblue" stroke="midnightblue" points="974.191,-203.755 963.602,-204.107 972.099,-210.435 974.191,-203.755"/>
</g>
<!-- Node31&#45;&gt;Node26 -->
<g id="edge59" class="edge"><title>Node31&#45;&gt;Node26</title>
<path fill="none" stroke="midnightblue" d="M1178.67,-246.236C1187.91,-237.955 1200.76,-224.646 1207,-210 1214.78,-191.757 1215.85,-168.867 1215.41,-153"/>
<polygon fill="midnightblue" stroke="midnightblue" points="1218.89,-152.661 1214.88,-142.854 1211.9,-153.021 1218.89,-152.661"/>
</g>
<!-- Node32 -->
<g id="node32" class="node"><title>Node32</title>
<polygon fill="white" stroke="#bfbfbf" points="1138.5,-185 1138.5,-204 1197.5,-204 1197.5,-185 1138.5,-185"/>
<text text-anchor="middle" x="1168" y="-192" font-family="Helvetica,sans-Serif" font-size="10.00">functional</text>
</g>
<!-- Node31&#45;&gt;Node32 -->
<g id="edge47" class="edge"><title>Node31&#45;&gt;Node32</title>
<path fill="none" stroke="midnightblue" d="M1168,-246.475C1168,-238.08 1168,-224.981 1168,-214.163"/>
<polygon fill="midnightblue" stroke="midnightblue" points="1171.5,-214.009 1168,-204.009 1164.5,-214.009 1171.5,-214.009"/>
</g>
<!-- Node33 -->
<g id="node33" class="node"><title>Node33</title>
<g id="a_node33"><a xlink:href="arrayref_8h.xhtml" target="_top" xlink:title="Declares gmx::ArrayRef. ">
<polygon fill="white" stroke="black" points="1359.5,-185 1359.5,-204 1484.5,-204 1484.5,-185 1359.5,-185"/>
<text text-anchor="middle" x="1422" y="-192" font-family="Helvetica,sans-Serif" font-size="10.00">gromacs/utility/arrayref.h</text>
</a>
</g>
</g>
<!-- Node31&#45;&gt;Node33 -->
<g id="edge51" class="edge"><title>Node31&#45;&gt;Node33</title>
<path fill="none" stroke="midnightblue" d="M1204.39,-246.475C1249.57,-235.893 1326.65,-217.836 1375.91,-206.297"/>
<polygon fill="midnightblue" stroke="midnightblue" points="1376.74,-209.698 1385.68,-204.009 1375.14,-202.882 1376.74,-209.698"/>
</g>
<!-- Node33&#45;&gt;Node7 -->
<g id="edge57" class="edge"><title>Node33&#45;&gt;Node7</title>
<path fill="none" stroke="midnightblue" d="M1359.45,-189.094C1316.56,-186.118 1258.34,-182.171 1207,-179 921.762,-161.385 849.55,-169.499 565,-143 552.936,-141.876 539.733,-140.252 528.137,-138.691"/>
<polygon fill="midnightblue" stroke="midnightblue" points="528.402,-135.195 518.017,-137.292 527.443,-142.129 528.402,-135.195"/>
</g>
<!-- Node33&#45;&gt;Node28 -->
<g id="edge58" class="edge"><title>Node33&#45;&gt;Node28</title>
<path fill="none" stroke="midnightblue" d="M1359.33,-185.101C1278.27,-174.24 1137.33,-155.352 1051.38,-143.833"/>
<polygon fill="midnightblue" stroke="midnightblue" points="1051.81,-140.36 1041.43,-142.5 1050.88,-147.298 1051.81,-140.36"/>
</g>
<!-- Node34 -->
<g id="node34" class="node"><title>Node34</title>
<polygon fill="white" stroke="#bfbfbf" points="1544.5,-123.5 1544.5,-142.5 1593.5,-142.5 1593.5,-123.5 1544.5,-123.5"/>
<text text-anchor="middle" x="1569" y="-130.5" font-family="Helvetica,sans-Serif" font-size="10.00">cstddef</text>
</g>
<!-- Node33&#45;&gt;Node34 -->
<g id="edge52" class="edge"><title>Node33&#45;&gt;Node34</title>
<path fill="none" stroke="midnightblue" d="M1443.06,-184.975C1468.06,-174.857 1509.94,-157.905 1538.49,-146.351"/>
<polygon fill="midnightblue" stroke="midnightblue" points="1540.02,-149.505 1547.98,-142.509 1537.39,-143.017 1540.02,-149.505"/>
</g>
<!-- Node35 -->
<g id="node35" class="node"><title>Node35</title>
<polygon fill="white" stroke="#bfbfbf" points="1612,-123.5 1612,-142.5 1650,-142.5 1650,-123.5 1612,-123.5"/>
<text text-anchor="middle" x="1631" y="-130.5" font-family="Helvetica,sans-Serif" font-size="10.00">array</text>
</g>
<!-- Node33&#45;&gt;Node35 -->
<g id="edge53" class="edge"><title>Node33&#45;&gt;Node35</title>
<path fill="none" stroke="midnightblue" d="M1454.15,-184.935C1488.51,-175.693 1544.8,-160.299 1602.16,-143.172"/>
<polygon fill="midnightblue" stroke="midnightblue" points="1603.18,-146.521 1611.75,-140.296 1601.17,-139.816 1603.18,-146.521"/>
</g>
<!-- Node36 -->
<g id="node36" class="node"><title>Node36</title>
<polygon fill="white" stroke="#bfbfbf" points="1343.5,-123.5 1343.5,-142.5 1390.5,-142.5 1390.5,-123.5 1343.5,-123.5"/>
<text text-anchor="middle" x="1367" y="-130.5" font-family="Helvetica,sans-Serif" font-size="10.00">iterator</text>
</g>
<!-- Node33&#45;&gt;Node36 -->
<g id="edge54" class="edge"><title>Node33&#45;&gt;Node36</title>
<path fill="none" stroke="midnightblue" d="M1414.12,-184.975C1405.71,-175.873 1392.18,-161.241 1381.77,-149.983"/>
<polygon fill="midnightblue" stroke="midnightblue" points="1384.22,-147.477 1374.87,-142.509 1379.08,-152.228 1384.22,-147.477"/>
</g>
<!-- Node37 -->
<g id="node37" class="node"><title>Node37</title>
<polygon fill="white" stroke="#bfbfbf" points="1408.5,-123.5 1408.5,-142.5 1467.5,-142.5 1467.5,-123.5 1408.5,-123.5"/>
<text text-anchor="middle" x="1438" y="-130.5" font-family="Helvetica,sans-Serif" font-size="10.00">stdexcept</text>
</g>
<!-- Node33&#45;&gt;Node37 -->
<g id="edge55" class="edge"><title>Node33&#45;&gt;Node37</title>
<path fill="none" stroke="midnightblue" d="M1424.29,-184.975C1426.57,-176.492 1430.15,-163.204 1433.07,-152.322"/>
<polygon fill="midnightblue" stroke="midnightblue" points="1436.49,-153.075 1435.71,-142.509 1429.74,-151.257 1436.49,-153.075"/>
</g>
<!-- Node38 -->
<g id="node38" class="node"><title>Node38</title>
<polygon fill="white" stroke="#bfbfbf" points="1486,-123.5 1486,-142.5 1526,-142.5 1526,-123.5 1486,-123.5"/>
<text text-anchor="middle" x="1506" y="-130.5" font-family="Helvetica,sans-Serif" font-size="10.00">utility</text>
</g>
<!-- Node33&#45;&gt;Node38 -->
<g id="edge56" class="edge"><title>Node33&#45;&gt;Node38</title>
<path fill="none" stroke="midnightblue" d="M1434.04,-184.975C1447.51,-175.431 1469.57,-159.807 1485.72,-148.368"/>
<polygon fill="midnightblue" stroke="midnightblue" points="1487.85,-151.145 1493.99,-142.509 1483.8,-145.433 1487.85,-151.145"/>
</g>
<!-- Node39&#45;&gt;Node3 -->
<g id="edge61" class="edge"><title>Node39&#45;&gt;Node3</title>
<path fill="none" stroke="midnightblue" d="M1017.89,-184.927C1006.7,-182.682 994.404,-180.479 983,-179 729.253,-146.103 657.721,-188.635 402.69,-142.903"/>
<polygon fill="midnightblue" stroke="midnightblue" points="403.225,-139.443 392.76,-141.095 401.971,-146.33 403.225,-139.443"/>
</g>
<!-- Node39&#45;&gt;Node26 -->
<g id="edge62" class="edge"><title>Node39&#45;&gt;Node26</title>
<path fill="none" stroke="midnightblue" d="M1078.64,-184.975C1105.74,-174.769 1151.31,-157.608 1182,-146.049"/>
<polygon fill="midnightblue" stroke="midnightblue" points="1183.28,-149.309 1191.4,-142.509 1180.81,-142.758 1183.28,-149.309"/>
</g>
</g>
</svg>
