<?xml version="1.0" encoding="UTF-8" standalone="no"?>
<!DOCTYPE svg PUBLIC "-//W3C//DTD SVG 1.1//EN"
 "http://www.w3.org/Graphics/SVG/1.1/DTD/svg11.dtd">
<!-- Generated by graphviz version 2.38.0 (20140413.2041)
 -->
<!-- Title: src/testutils/interactivetest.cpp Pages: 1 -->
<svg width="1181pt" height="319pt"
 viewBox="0.00 0.00 1180.50 319.00" xmlns="http://www.w3.org/2000/svg" xmlns:xlink="http://www.w3.org/1999/xlink">
<g id="graph0" class="graph" transform="scale(1 1) rotate(0) translate(4 315)">
<title>src/testutils/interactivetest.cpp</title>
<polygon fill="white" stroke="none" points="-4,4 -4,-315 1176.5,-315 1176.5,4 -4,4"/>
<!-- Node1 -->
<g id="node1" class="node"><title>Node1</title>
<polygon fill="#bfbfbf" stroke="black" points="661,-291.5 661,-310.5 812,-310.5 812,-291.5 661,-291.5"/>
<text text-anchor="middle" x="736.5" y="-298.5" font-family="Helvetica,sans-Serif" font-size="10.00">src/testutils/interactivetest.cpp</text>
</g>
<!-- Node2 -->
<g id="node2" class="node"><title>Node2</title>
<g id="a_node2"><a xlink:href="gmxpre_8h.xhtml" target="_top" xlink:title="Prerequisite header file for GROMACS build. ">
<polygon fill="white" stroke="black" points="377,-235.5 377,-254.5 434,-254.5 434,-235.5 377,-235.5"/>
<text text-anchor="middle" x="405.5" y="-242.5" font-family="Helvetica,sans-Serif" font-size="10.00">gmxpre.h</text>
</a>
</g>
</g>
<!-- Node1&#45;&gt;Node2 -->
<g id="edge1" class="edge"><title>Node1&#45;&gt;Node2</title>
<path fill="none" stroke="midnightblue" d="M675.945,-291.461C617.561,-283.01 526.784,-269.299 448.5,-255 447.046,-254.734 445.566,-254.458 444.072,-254.173"/>
<polygon fill="midnightblue" stroke="midnightblue" points="444.63,-250.715 434.141,-252.208 443.272,-257.582 444.63,-250.715"/>
</g>
<!-- Node3 -->
<g id="node3" class="node"><title>Node3</title>
<g id="a_node3"><a xlink:href="interactivetest_8h.xhtml" target="_top" xlink:title="Provides helper classes for testing interactive prompts. ">
<polygon fill="white" stroke="black" points="528.5,-235.5 528.5,-254.5 614.5,-254.5 614.5,-235.5 528.5,-235.5"/>
<text text-anchor="middle" x="571.5" y="-242.5" font-family="Helvetica,sans-Serif" font-size="10.00">interactivetest.h</text>
</a>
</g>
</g>
<!-- Node1&#45;&gt;Node3 -->
<g id="edge2" class="edge"><title>Node1&#45;&gt;Node3</title>
<path fill="none" stroke="midnightblue" d="M710.355,-291.444C682.477,-282.32 638.152,-267.813 607.1,-257.651"/>
<polygon fill="midnightblue" stroke="midnightblue" points="608.115,-254.3 597.522,-254.516 605.938,-260.953 608.115,-254.3"/>
</g>
<!-- Node4 -->
<g id="node4" class="node"><title>Node4</title>
<g id="a_node4"><a xlink:href="arrayref_8h.xhtml" target="_top" xlink:title="Declares gmx::ArrayRef. ">
<polygon fill="white" stroke="black" points="245,-179.5 245,-198.5 370,-198.5 370,-179.5 245,-179.5"/>
<text text-anchor="middle" x="307.5" y="-186.5" font-family="Helvetica,sans-Serif" font-size="10.00">gromacs/utility/arrayref.h</text>
</a>
</g>
</g>
<!-- Node1&#45;&gt;Node4 -->
<g id="edge20" class="edge"><title>Node1&#45;&gt;Node4</title>
<path fill="none" stroke="midnightblue" d="M681.196,-291.478C633.487,-283.625 562.934,-270.81 502.5,-255 502.374,-254.967 399.145,-220.553 342.954,-201.82"/>
<polygon fill="midnightblue" stroke="midnightblue" points="343.967,-198.468 333.374,-198.626 341.753,-205.109 343.967,-198.468"/>
</g>
<!-- Node18 -->
<g id="node18" class="node"><title>Node18</title>
<polygon fill="white" stroke="#bfbfbf" points="823,-179.5 823,-198.5 864,-198.5 864,-179.5 823,-179.5"/>
<text text-anchor="middle" x="843.5" y="-186.5" font-family="Helvetica,sans-Serif" font-size="10.00">string</text>
</g>
<!-- Node1&#45;&gt;Node18 -->
<g id="edge17" class="edge"><title>Node1&#45;&gt;Node18</title>
<path fill="none" stroke="midnightblue" d="M798.104,-291.416C819.928,-285.079 842.316,-274.08 855.5,-255 865.054,-241.173 859.749,-221.894 853.46,-207.925"/>
<polygon fill="midnightblue" stroke="midnightblue" points="856.517,-206.215 848.904,-198.847 850.261,-209.354 856.517,-206.215"/>
</g>
<!-- Node19 -->
<g id="node19" class="node"><title>Node19</title>
<polygon fill="white" stroke="#bfbfbf" points="1086.5,-235.5 1086.5,-254.5 1172.5,-254.5 1172.5,-235.5 1086.5,-235.5"/>
<text text-anchor="middle" x="1129.5" y="-242.5" font-family="Helvetica,sans-Serif" font-size="10.00">gmock/gmock.h</text>
</g>
<!-- Node1&#45;&gt;Node19 -->
<g id="edge18" class="edge"><title>Node1&#45;&gt;Node19</title>
<path fill="none" stroke="midnightblue" d="M807.479,-291.477C874.244,-283.267 977.258,-270.107 1076.21,-255.146"/>
<polygon fill="midnightblue" stroke="midnightblue" points="1077.03,-258.562 1086.39,-253.598 1075.98,-251.641 1077.03,-258.562"/>
</g>
<!-- Node20 -->
<g id="node20" class="node"><title>Node20</title>
<polygon fill="white" stroke="#bfbfbf" points="882,-179.5 882,-198.5 953,-198.5 953,-179.5 882,-179.5"/>
<text text-anchor="middle" x="917.5" y="-186.5" font-family="Helvetica,sans-Serif" font-size="10.00">gtest/gtest.h</text>
</g>
<!-- Node1&#45;&gt;Node20 -->
<g id="edge19" class="edge"><title>Node1&#45;&gt;Node20</title>
<path fill="none" stroke="midnightblue" d="M785.596,-291.478C812.881,-284.917 846.303,-273.696 871.5,-255 888.098,-242.685 900.998,-222.586 908.858,-207.994"/>
<polygon fill="midnightblue" stroke="midnightblue" points="912.053,-209.434 913.479,-198.936 905.817,-206.254 912.053,-209.434"/>
</g>
<!-- Node21 -->
<g id="node21" class="node"><title>Node21</title>
<g id="a_node21"><a xlink:href="stringutil_8h.xhtml" target="_top" xlink:title="Declares common string utility and formatting routines. ">
<polygon fill="white" stroke="black" points="940.5,-235.5 940.5,-254.5 1068.5,-254.5 1068.5,-235.5 940.5,-235.5"/>
<text text-anchor="middle" x="1004.5" y="-242.5" font-family="Helvetica,sans-Serif" font-size="10.00">gromacs/utility/stringutil.h</text>
</a>
</g>
</g>
<!-- Node1&#45;&gt;Node21 -->
<g id="edge21" class="edge"><title>Node1&#45;&gt;Node21</title>
<path fill="none" stroke="midnightblue" d="M778.965,-291.444C825.913,-281.984 901.576,-266.738 952.154,-256.547"/>
<polygon fill="midnightblue" stroke="midnightblue" points="953.122,-259.923 962.233,-254.516 951.739,-253.061 953.122,-259.923"/>
</g>
<!-- Node24 -->
<g id="node24" class="node"><title>Node24</title>
<g id="a_node24"><a xlink:href="textstream_8h.xhtml" target="_top" xlink:title="Declares interfaces for simple input/output streams. ">
<polygon fill="white" stroke="black" points="426.5,-179.5 426.5,-198.5 564.5,-198.5 564.5,-179.5 426.5,-179.5"/>
<text text-anchor="middle" x="495.5" y="-186.5" font-family="Helvetica,sans-Serif" font-size="10.00">gromacs/utility/textstream.h</text>
</a>
</g>
</g>
<!-- Node1&#45;&gt;Node24 -->
<g id="edge26" class="edge"><title>Node1&#45;&gt;Node24</title>
<path fill="none" stroke="midnightblue" d="M660.853,-292.148C606.989,-285.136 540.567,-273.136 519.5,-255 505.988,-243.367 500.077,-223.416 497.495,-208.678"/>
<polygon fill="midnightblue" stroke="midnightblue" points="500.944,-208.069 496.099,-198.648 494.011,-209.035 500.944,-208.069"/>
</g>
<!-- Node25 -->
<g id="node25" class="node"><title>Node25</title>
<g id="a_node25"><a xlink:href="refdata_8h.xhtml" target="_top" xlink:title="Functionality for writing tests that can produce their own reference data. ">
<polygon fill="white" stroke="black" points="632.5,-235.5 632.5,-254.5 724.5,-254.5 724.5,-235.5 632.5,-235.5"/>
<text text-anchor="middle" x="678.5" y="-242.5" font-family="Helvetica,sans-Serif" font-size="10.00">testutils/refdata.h</text>
</a>
</g>
</g>
<!-- Node1&#45;&gt;Node25 -->
<g id="edge28" class="edge"><title>Node1&#45;&gt;Node25</title>
<path fill="none" stroke="midnightblue" d="M727.181,-291.324C718.607,-283.341 705.688,-271.313 695.312,-261.653"/>
<polygon fill="midnightblue" stroke="midnightblue" points="697.692,-259.086 687.988,-254.834 692.922,-264.21 697.692,-259.086"/>
</g>
<!-- Node26 -->
<g id="node26" class="node"><title>Node26</title>
<g id="a_node26"><a xlink:href="stringtest_8h.xhtml" target="_top" xlink:title="Declares gmx::test::StringTestBase. ">
<polygon fill="white" stroke="black" points="743,-235.5 743,-254.5 846,-254.5 846,-235.5 743,-235.5"/>
<text text-anchor="middle" x="794.5" y="-242.5" font-family="Helvetica,sans-Serif" font-size="10.00">testutils/stringtest.h</text>
</a>
</g>
</g>
<!-- Node1&#45;&gt;Node26 -->
<g id="edge34" class="edge"><title>Node1&#45;&gt;Node26</title>
<path fill="none" stroke="midnightblue" d="M745.819,-291.324C754.393,-283.341 767.312,-271.313 777.688,-261.653"/>
<polygon fill="midnightblue" stroke="midnightblue" points="780.078,-264.21 785.012,-254.834 775.308,-259.086 780.078,-264.21"/>
</g>
<!-- Node3&#45;&gt;Node4 -->
<g id="edge3" class="edge"><title>Node3&#45;&gt;Node4</title>
<path fill="none" stroke="midnightblue" d="M529.668,-235.444C483.421,-225.984 408.888,-210.738 359.064,-200.547"/>
<polygon fill="midnightblue" stroke="midnightblue" points="359.634,-197.091 349.136,-198.516 358.232,-203.949 359.634,-197.091"/>
</g>
<!-- Node16 -->
<g id="node16" class="node"><title>Node16</title>
<g id="a_node16"><a xlink:href="classhelpers_8h.xhtml" target="_top" xlink:title="Declares common utility classes and macros. ">
<polygon fill="white" stroke="black" points="620.5,-179.5 620.5,-198.5 766.5,-198.5 766.5,-179.5 620.5,-179.5"/>
<text text-anchor="middle" x="693.5" y="-186.5" font-family="Helvetica,sans-Serif" font-size="10.00">gromacs/utility/classhelpers.h</text>
</a>
</g>
</g>
<!-- Node3&#45;&gt;Node16 -->
<g id="edge15" class="edge"><title>Node3&#45;&gt;Node16</title>
<path fill="none" stroke="midnightblue" d="M590.831,-235.444C610.82,-226.596 642.243,-212.687 665.064,-202.586"/>
<polygon fill="midnightblue" stroke="midnightblue" points="666.532,-205.764 674.259,-198.516 663.698,-199.363 666.532,-205.764"/>
</g>
<!-- Node5 -->
<g id="node5" class="node"><title>Node5</title>
<polygon fill="white" stroke="#bfbfbf" points="291,-123.5 291,-142.5 340,-142.5 340,-123.5 291,-123.5"/>
<text text-anchor="middle" x="315.5" y="-130.5" font-family="Helvetica,sans-Serif" font-size="10.00">cstddef</text>
</g>
<!-- Node4&#45;&gt;Node5 -->
<g id="edge4" class="edge"><title>Node4&#45;&gt;Node5</title>
<path fill="none" stroke="midnightblue" d="M308.821,-179.083C309.881,-171.927 311.406,-161.635 312.731,-152.691"/>
<polygon fill="midnightblue" stroke="midnightblue" points="316.2,-153.156 314.204,-142.751 309.276,-152.13 316.2,-153.156"/>
</g>
<!-- Node6 -->
<g id="node6" class="node"><title>Node6</title>
<polygon fill="white" stroke="#bfbfbf" points="358.5,-123.5 358.5,-142.5 396.5,-142.5 396.5,-123.5 358.5,-123.5"/>
<text text-anchor="middle" x="377.5" y="-130.5" font-family="Helvetica,sans-Serif" font-size="10.00">array</text>
</g>
<!-- Node4&#45;&gt;Node6 -->
<g id="edge5" class="edge"><title>Node4&#45;&gt;Node6</title>
<path fill="none" stroke="midnightblue" d="M318.747,-179.324C329.297,-171.185 345.301,-158.839 357.942,-149.087"/>
<polygon fill="midnightblue" stroke="midnightblue" points="360.269,-151.713 366.049,-142.834 355.993,-146.171 360.269,-151.713"/>
</g>
<!-- Node7 -->
<g id="node7" class="node"><title>Node7</title>
<polygon fill="white" stroke="#bfbfbf" points="415,-123.5 415,-142.5 462,-142.5 462,-123.5 415,-123.5"/>
<text text-anchor="middle" x="438.5" y="-130.5" font-family="Helvetica,sans-Serif" font-size="10.00">iterator</text>
</g>
<!-- Node4&#45;&gt;Node7 -->
<g id="edge6" class="edge"><title>Node4&#45;&gt;Node7</title>
<path fill="none" stroke="midnightblue" d="M328.257,-179.444C349.816,-170.557 383.763,-156.563 408.294,-146.451"/>
<polygon fill="midnightblue" stroke="midnightblue" points="409.928,-149.563 417.84,-142.516 407.261,-143.092 409.928,-149.563"/>
</g>
<!-- Node8 -->
<g id="node8" class="node"><title>Node8</title>
<polygon fill="white" stroke="#bfbfbf" points="155,-123.5 155,-142.5 214,-142.5 214,-123.5 155,-123.5"/>
<text text-anchor="middle" x="184.5" y="-130.5" font-family="Helvetica,sans-Serif" font-size="10.00">stdexcept</text>
</g>
<!-- Node4&#45;&gt;Node8 -->
<g id="edge7" class="edge"><title>Node4&#45;&gt;Node8</title>
<path fill="none" stroke="midnightblue" d="M288.01,-179.444C267.858,-170.596 236.177,-156.687 213.169,-146.586"/>
<polygon fill="midnightblue" stroke="midnightblue" points="214.462,-143.332 203.899,-142.516 211.648,-149.741 214.462,-143.332"/>
</g>
<!-- Node9 -->
<g id="node9" class="node"><title>Node9</title>
<polygon fill="white" stroke="#bfbfbf" points="232.5,-123.5 232.5,-142.5 272.5,-142.5 272.5,-123.5 232.5,-123.5"/>
<text text-anchor="middle" x="252.5" y="-130.5" font-family="Helvetica,sans-Serif" font-size="10.00">utility</text>
</g>
<!-- Node4&#45;&gt;Node9 -->
<g id="edge8" class="edge"><title>Node4&#45;&gt;Node9</title>
<path fill="none" stroke="midnightblue" d="M298.418,-179.083C290.329,-171.141 278.305,-159.335 268.59,-149.797"/>
<polygon fill="midnightblue" stroke="midnightblue" points="271.001,-147.26 261.413,-142.751 266.097,-152.254 271.001,-147.26"/>
</g>
<!-- Node10 -->
<g id="node10" class="node"><title>Node10</title>
<polygon fill="white" stroke="#bfbfbf" points="496.5,-123.5 496.5,-142.5 540.5,-142.5 540.5,-123.5 496.5,-123.5"/>
<text text-anchor="middle" x="518.5" y="-130.5" font-family="Helvetica,sans-Serif" font-size="10.00">vector</text>
</g>
<!-- Node4&#45;&gt;Node10 -->
<g id="edge9" class="edge"><title>Node4&#45;&gt;Node10</title>
<path fill="none" stroke="midnightblue" d="M340.934,-179.444C380.829,-169.233 447.061,-152.283 486.371,-142.223"/>
<polygon fill="midnightblue" stroke="midnightblue" points="487.406,-145.57 496.226,-139.7 485.671,-138.789 487.406,-145.57"/>
</g>
<!-- Node11 -->
<g id="node11" class="node"><title>Node11</title>
<g id="a_node11"><a xlink:href="gmxassert_8h.xhtml" target="_top" xlink:title="Defines assert macros customized for Gromacs. ">
<polygon fill="white" stroke="black" points="0,-123.5 0,-142.5 137,-142.5 137,-123.5 0,-123.5"/>
<text text-anchor="middle" x="68.5" y="-130.5" font-family="Helvetica,sans-Serif" font-size="10.00">gromacs/utility/gmxassert.h</text>
</a>
</g>
</g>
<!-- Node4&#45;&gt;Node11 -->
<g id="edge10" class="edge"><title>Node4&#45;&gt;Node11</title>
<path fill="none" stroke="midnightblue" d="M269.63,-179.444C228.024,-170.043 161.131,-154.929 116.031,-144.739"/>
<polygon fill="midnightblue" stroke="midnightblue" points="116.719,-141.306 106.193,-142.516 115.176,-148.134 116.719,-141.306"/>
</g>
<!-- Node12 -->
<g id="node12" class="node"><title>Node12</title>
<g id="a_node12"><a xlink:href="basedefinitions_8h.xhtml" target="_top" xlink:title="Basic types and macros used throughout GROMACS. ">
<polygon fill="white" stroke="black" points="429,-62 429,-81 586,-81 586,-62 429,-62"/>
<text text-anchor="middle" x="507.5" y="-69" font-family="Helvetica,sans-Serif" font-size="10.00">gromacs/utility/basedefinitions.h</text>
</a>
</g>
</g>
<!-- Node11&#45;&gt;Node12 -->
<g id="edge11" class="edge"><title>Node11&#45;&gt;Node12</title>
<path fill="none" stroke="midnightblue" d="M131.398,-123.475C211.592,-112.606 349.977,-93.85 434.665,-82.3718"/>
<polygon fill="midnightblue" stroke="midnightblue" points="435.279,-85.8205 444.719,-81.0091 434.339,-78.884 435.279,-85.8205"/>
</g>
<!-- Node15 -->
<g id="node15" class="node"><title>Node15</title>
<g id="a_node15"><a xlink:href="current__function_8h.xhtml" target="_top" xlink:title="Declares GMX_CURRENT_FUNCTION for getting the current function name. ">
<polygon fill="white" stroke="black" points="12,-56.5 12,-86.5 125,-86.5 125,-56.5 12,-56.5"/>
<text text-anchor="start" x="20" y="-74.5" font-family="Helvetica,sans-Serif" font-size="10.00">gromacs/utility/current</text>
<text text-anchor="middle" x="68.5" y="-63.5" font-family="Helvetica,sans-Serif" font-size="10.00">_function.h</text>
</a>
</g>
</g>
<!-- Node11&#45;&gt;Node15 -->
<g id="edge14" class="edge"><title>Node11&#45;&gt;Node15</title>
<path fill="none" stroke="midnightblue" d="M68.5,-123.475C68.5,-116.471 68.5,-106.192 68.5,-96.6956"/>
<polygon fill="midnightblue" stroke="midnightblue" points="72.0001,-96.5229 68.5,-86.523 65.0001,-96.523 72.0001,-96.5229"/>
</g>
<!-- Node13 -->
<g id="node13" class="node"><title>Node13</title>
<polygon fill="white" stroke="#bfbfbf" points="447,-0.5 447,-19.5 496,-19.5 496,-0.5 447,-0.5"/>
<text text-anchor="middle" x="471.5" y="-7.5" font-family="Helvetica,sans-Serif" font-size="10.00">stdint.h</text>
</g>
<!-- Node12&#45;&gt;Node13 -->
<g id="edge12" class="edge"><title>Node12&#45;&gt;Node13</title>
<path fill="none" stroke="midnightblue" d="M502.342,-61.9751C497.049,-53.2268 488.665,-39.3691 481.973,-28.3093"/>
<polygon fill="midnightblue" stroke="midnightblue" points="484.82,-26.2531 476.648,-19.5091 478.83,-29.8768 484.82,-26.2531"/>
</g>
<!-- Node14 -->
<g id="node14" class="node"><title>Node14</title>
<polygon fill="white" stroke="#bfbfbf" points="514,-0.5 514,-19.5 573,-19.5 573,-0.5 514,-0.5"/>
<text text-anchor="middle" x="543.5" y="-7.5" font-family="Helvetica,sans-Serif" font-size="10.00">inttypes.h</text>
</g>
<!-- Node12&#45;&gt;Node14 -->
<g id="edge13" class="edge"><title>Node12&#45;&gt;Node14</title>
<path fill="none" stroke="midnightblue" d="M512.658,-61.9751C517.951,-53.2268 526.335,-39.3691 533.027,-28.3093"/>
<polygon fill="midnightblue" stroke="midnightblue" points="536.17,-29.8768 538.352,-19.5091 530.18,-26.2531 536.17,-29.8768"/>
</g>
<!-- Node17 -->
<g id="node17" class="node"><title>Node17</title>
<polygon fill="white" stroke="#bfbfbf" points="566.5,-123.5 566.5,-142.5 618.5,-142.5 618.5,-123.5 566.5,-123.5"/>
<text text-anchor="middle" x="592.5" y="-130.5" font-family="Helvetica,sans-Serif" font-size="10.00">memory</text>
</g>
<!-- Node16&#45;&gt;Node17 -->
<g id="edge16" class="edge"><title>Node16&#45;&gt;Node17</title>
<path fill="none" stroke="midnightblue" d="M677.273,-179.324C661.149,-170.703 636.2,-157.364 617.536,-147.386"/>
<polygon fill="midnightblue" stroke="midnightblue" points="619.156,-144.283 608.687,-142.655 615.856,-150.456 619.156,-144.283"/>
</g>
<!-- Node21&#45;&gt;Node10 -->
<g id="edge25" class="edge"><title>Node21&#45;&gt;Node10</title>
<path fill="none" stroke="midnightblue" d="M1001.76,-235.44C996.64,-220.987 984.127,-192.049 962.5,-179 885.137,-132.321 646.733,-157.192 557.5,-143 555.27,-142.645 552.977,-142.236 550.674,-141.791"/>
<polygon fill="midnightblue" stroke="midnightblue" points="551.178,-138.32 540.67,-139.674 549.729,-145.168 551.178,-138.32"/>
</g>
<!-- Node21&#45;&gt;Node18 -->
<g id="edge24" class="edge"><title>Node21&#45;&gt;Node18</title>
<path fill="none" stroke="midnightblue" d="M978.989,-235.444C950.47,-225.878 904.313,-210.397 873.933,-200.207"/>
<polygon fill="midnightblue" stroke="midnightblue" points="874.878,-196.833 864.284,-196.971 872.652,-203.469 874.878,-196.833"/>
</g>
<!-- Node22 -->
<g id="node22" class="node"><title>Node22</title>
<polygon fill="white" stroke="#bfbfbf" points="1074,-179.5 1074,-198.5 1123,-198.5 1123,-179.5 1074,-179.5"/>
<text text-anchor="middle" x="1098.5" y="-186.5" font-family="Helvetica,sans-Serif" font-size="10.00">cstdarg</text>
</g>
<!-- Node21&#45;&gt;Node22 -->
<g id="edge22" class="edge"><title>Node21&#45;&gt;Node22</title>
<path fill="none" stroke="midnightblue" d="M1019.6,-235.324C1034.4,-226.822 1057.19,-213.729 1074.48,-203.797"/>
<polygon fill="midnightblue" stroke="midnightblue" points="1076.51,-206.671 1083.43,-198.655 1073.02,-200.601 1076.51,-206.671"/>
</g>
<!-- Node23 -->
<g id="node23" class="node"><title>Node23</title>
<polygon fill="white" stroke="#bfbfbf" points="1009.5,-179.5 1009.5,-198.5 1055.5,-198.5 1055.5,-179.5 1009.5,-179.5"/>
<text text-anchor="middle" x="1032.5" y="-186.5" font-family="Helvetica,sans-Serif" font-size="10.00">cstring</text>
</g>
<!-- Node21&#45;&gt;Node23 -->
<g id="edge23" class="edge"><title>Node21&#45;&gt;Node23</title>
<path fill="none" stroke="midnightblue" d="M1009.12,-235.083C1012.96,-227.691 1018.52,-216.953 1023.26,-207.811"/>
<polygon fill="midnightblue" stroke="midnightblue" points="1026.47,-209.24 1027.96,-198.751 1020.25,-206.018 1026.47,-209.24"/>
</g>
<!-- Node24&#45;&gt;Node17 -->
<g id="edge27" class="edge"><title>Node24&#45;&gt;Node17</title>
<path fill="none" stroke="midnightblue" d="M511.085,-179.324C526.499,-170.743 550.312,-157.486 568.21,-147.522"/>
<polygon fill="midnightblue" stroke="midnightblue" points="569.919,-150.577 576.954,-142.655 566.514,-144.461 569.919,-150.577"/>
</g>
<!-- Node25&#45;&gt;Node7 -->
<g id="edge29" class="edge"><title>Node25&#45;&gt;Node7</title>
<path fill="none" stroke="midnightblue" d="M632.216,-236.403C557.699,-224.119 419.231,-201.055 417.5,-199 405.968,-185.31 415.335,-165.167 424.965,-150.94"/>
<polygon fill="midnightblue" stroke="midnightblue" points="428.013,-152.703 431.115,-142.572 422.373,-148.558 428.013,-152.703"/>
</g>
<!-- Node25&#45;&gt;Node12 -->
<g id="edge32" class="edge"><title>Node25&#45;&gt;Node12</title>
<path fill="none" stroke="midnightblue" d="M714.631,-235.415C749.384,-225.332 794.112,-206.425 775.5,-179 735.684,-120.332 657.907,-93.9825 596.352,-82.1479"/>
<polygon fill="midnightblue" stroke="midnightblue" points="596.698,-78.6533 586.232,-80.3033 595.442,-85.5399 596.698,-78.6533"/>
</g>
<!-- Node25&#45;&gt;Node16 -->
<g id="edge33" class="edge"><title>Node25&#45;&gt;Node16</title>
<path fill="none" stroke="midnightblue" d="M680.977,-235.083C682.986,-227.849 685.886,-217.409 688.39,-208.397"/>
<polygon fill="midnightblue" stroke="midnightblue" points="691.765,-209.323 691.069,-198.751 685.02,-207.449 691.765,-209.323"/>
</g>
<!-- Node25&#45;&gt;Node17 -->
<g id="edge30" class="edge"><title>Node25&#45;&gt;Node17</title>
<path fill="none" stroke="midnightblue" d="M658.713,-235.358C643.676,-227.823 623.583,-215.508 611.5,-199 601.626,-185.511 596.859,-166.954 594.572,-153.12"/>
<polygon fill="midnightblue" stroke="midnightblue" points="597.988,-152.265 593.177,-142.826 591.052,-153.205 597.988,-152.265"/>
</g>
<!-- Node25&#45;&gt;Node18 -->
<g id="edge31" class="edge"><title>Node25&#45;&gt;Node18</title>
<path fill="none" stroke="midnightblue" d="M704.645,-235.444C734.036,-225.825 781.705,-210.224 812.831,-200.037"/>
<polygon fill="midnightblue" stroke="midnightblue" points="814.287,-203.244 822.702,-196.807 812.109,-196.591 814.287,-203.244"/>
</g>
<!-- Node26&#45;&gt;Node16 -->
<g id="edge37" class="edge"><title>Node26&#45;&gt;Node16</title>
<path fill="none" stroke="midnightblue" d="M778.273,-235.324C762.149,-226.703 737.2,-213.364 718.536,-203.386"/>
<polygon fill="midnightblue" stroke="midnightblue" points="720.156,-200.283 709.687,-198.655 716.856,-206.456 720.156,-200.283"/>
</g>
<!-- Node26&#45;&gt;Node18 -->
<g id="edge35" class="edge"><title>Node26&#45;&gt;Node18</title>
<path fill="none" stroke="midnightblue" d="M802.591,-235.083C809.655,-227.298 820.088,-215.801 828.649,-206.367"/>
<polygon fill="midnightblue" stroke="midnightblue" points="831.431,-208.509 835.559,-198.751 826.247,-203.805 831.431,-208.509"/>
</g>
<!-- Node26&#45;&gt;Node20 -->
<g id="edge36" class="edge"><title>Node26&#45;&gt;Node20</title>
<path fill="none" stroke="midnightblue" d="M813.99,-235.444C834.142,-226.596 865.823,-212.687 888.831,-202.586"/>
<polygon fill="midnightblue" stroke="midnightblue" points="890.352,-205.741 898.101,-198.516 887.538,-199.332 890.352,-205.741"/>
</g>
</g>
</svg>
