<?xml version="1.0" encoding="UTF-8" standalone="no"?>
<!DOCTYPE svg PUBLIC "-//W3C//DTD SVG 1.1//EN"
 "http://www.w3.org/Graphics/SVG/1.1/DTD/svg11.dtd">
<!-- Generated by graphviz version 2.38.0 (20140413.2041)
 -->
<!-- Title: src/testutils/interactivetest.h Pages: 1 -->
<svg width="439pt" height="95pt"
 viewBox="0.00 0.00 438.50 95.00" xmlns="http://www.w3.org/2000/svg" xmlns:xlink="http://www.w3.org/1999/xlink">
<g id="graph0" class="graph" transform="scale(1 1) rotate(0) translate(4 91)">
<title>src/testutils/interactivetest.h</title>
<polygon fill="white" stroke="none" points="-4,4 -4,-91 434.5,-91 434.5,4 -4,4"/>
<!-- Node1 -->
<g id="node1" class="node"><title>Node1</title>
<polygon fill="#bfbfbf" stroke="black" points="166.5,-67.5 166.5,-86.5 306.5,-86.5 306.5,-67.5 166.5,-67.5"/>
<text text-anchor="middle" x="236.5" y="-74.5" font-family="Helvetica,sans-Serif" font-size="10.00">src/testutils/interactivetest.h</text>
</g>
<!-- Node2 -->
<g id="node2" class="node"><title>Node2</title>
<g id="a_node2"><a xlink:href="tests_2selectioncollection_8cpp.xhtml" target="_top" xlink:title="Tests selection parsing and compilation. ">
<polygon fill="white" stroke="black" points="0,-0.5 0,-30.5 143,-30.5 143,-0.5 0,-0.5"/>
<text text-anchor="start" x="8" y="-18.5" font-family="Helvetica,sans-Serif" font-size="10.00">src/gromacs/selection</text>
<text text-anchor="middle" x="71.5" y="-7.5" font-family="Helvetica,sans-Serif" font-size="10.00">/tests/selectioncollection.cpp</text>
</a>
</g>
</g>
<!-- Node1&#45;&gt;Node2 -->
<g id="edge1" class="edge"><title>Node1&#45;&gt;Node2</title>
<path fill="none" stroke="midnightblue" d="M203.155,-63.9755C176.328,-54.3016 138.587,-40.6919 110.387,-30.523"/>
<polygon fill="midnightblue" stroke="midnightblue" points="202.265,-67.3753 212.86,-67.4751 204.64,-60.7903 202.265,-67.3753"/>
</g>
<!-- Node3 -->
<g id="node3" class="node"><title>Node3</title>
<g id="a_node3"><a xlink:href="interactivetest_8cpp.xhtml" target="_top" xlink:title="Implements classes from interactivetest.h. ">
<polygon fill="white" stroke="black" points="161,-6 161,-25 312,-25 312,-6 161,-6"/>
<text text-anchor="middle" x="236.5" y="-13" font-family="Helvetica,sans-Serif" font-size="10.00">src/testutils/interactivetest.cpp</text>
</a>
</g>
</g>
<!-- Node1&#45;&gt;Node3 -->
<g id="edge2" class="edge"><title>Node1&#45;&gt;Node3</title>
<path fill="none" stroke="midnightblue" d="M236.5,-57.3165C236.5,-46.4962 236.5,-33.398 236.5,-25.0091"/>
<polygon fill="midnightblue" stroke="midnightblue" points="233,-57.4751 236.5,-67.4751 240,-57.4751 233,-57.4751"/>
</g>
<!-- Node4 -->
<g id="node4" class="node"><title>Node4</title>
<g id="a_node4"><a xlink:href="tests_2interactivetest_8cpp.xhtml" target="_top" xlink:title="Self&#45;tests for interactive test helpers. ">
<polygon fill="white" stroke="black" points="330.5,-0.5 330.5,-30.5 430.5,-30.5 430.5,-0.5 330.5,-0.5"/>
<text text-anchor="start" x="338.5" y="-18.5" font-family="Helvetica,sans-Serif" font-size="10.00">src/testutils/tests</text>
<text text-anchor="middle" x="380.5" y="-7.5" font-family="Helvetica,sans-Serif" font-size="10.00">/interactivetest.cpp</text>
</a>
</g>
</g>
<!-- Node1&#45;&gt;Node4 -->
<g id="edge3" class="edge"><title>Node1&#45;&gt;Node4</title>
<path fill="none" stroke="midnightblue" d="M266.534,-63.5899C289.883,-53.9425 322.277,-40.5575 346.562,-30.523"/>
<polygon fill="midnightblue" stroke="midnightblue" points="265.037,-60.4215 257.132,-67.4751 267.71,-66.891 265.037,-60.4215"/>
</g>
</g>
</svg>
