<?xml version="1.0" encoding="UTF-8" standalone="no"?>
<!DOCTYPE svg PUBLIC "-//W3C//DTD SVG 1.1//EN"
 "http://www.w3.org/Graphics/SVG/1.1/DTD/svg11.dtd">
<!-- Generated by graphviz version 2.38.0 (20140413.2041)
 -->
<!-- Title: src/gromacs/utility/iserializer.h Pages: 1 -->
<svg width="120pt" height="173pt"
 viewBox="0.00 0.00 120.00 173.00" xmlns="http://www.w3.org/2000/svg" xmlns:xlink="http://www.w3.org/1999/xlink">
<g id="graph0" class="graph" transform="scale(1 1) rotate(0) translate(4 169)">
<title>src/gromacs/utility/iserializer.h</title>
<polygon fill="white" stroke="none" points="-4,4 -4,-169 116,-169 116,4 -4,4"/>
<!-- Node1 -->
<g id="node1" class="node"><title>Node1</title>
<polygon fill="#bfbfbf" stroke="black" points="7.5,-134.5 7.5,-164.5 104.5,-164.5 104.5,-134.5 7.5,-134.5"/>
<text text-anchor="start" x="15.5" y="-152.5" font-family="Helvetica,sans-Serif" font-size="10.00">src/gromacs/utility</text>
<text text-anchor="middle" x="56" y="-141.5" font-family="Helvetica,sans-Serif" font-size="10.00">/iserializer.h</text>
</g>
<!-- Node2 -->
<g id="node2" class="node"><title>Node2</title>
<g id="a_node2"><a xlink:href="inmemoryserializer_8h.xhtml" target="_top" xlink:title="Declares gmx::ISerializer implementation for in&#45;memory serialization. ">
<polygon fill="white" stroke="black" points="1,-67.5 1,-97.5 111,-97.5 111,-67.5 1,-67.5"/>
<text text-anchor="start" x="9" y="-85.5" font-family="Helvetica,sans-Serif" font-size="10.00">src/gromacs/utility</text>
<text text-anchor="middle" x="56" y="-74.5" font-family="Helvetica,sans-Serif" font-size="10.00">/inmemoryserializer.h</text>
</a>
</g>
</g>
<!-- Node1&#45;&gt;Node2 -->
<g id="edge1" class="edge"><title>Node1&#45;&gt;Node2</title>
<path fill="none" stroke="midnightblue" d="M56,-124.108C56,-115.154 56,-105.323 56,-97.5765"/>
<polygon fill="midnightblue" stroke="midnightblue" points="52.5001,-124.396 56,-134.396 59.5001,-124.396 52.5001,-124.396"/>
</g>
<!-- Node3 -->
<g id="node3" class="node"><title>Node3</title>
<g id="a_node3"><a xlink:href="tests_2treesupport_8cpp.xhtml" target="_top" xlink:title="Tests option support for operations on KeyValueTree. ">
<polygon fill="white" stroke="black" points="-7.10543e-15,-0.5 -7.10543e-15,-30.5 112,-30.5 112,-0.5 -7.10543e-15,-0.5"/>
<text text-anchor="start" x="8" y="-18.5" font-family="Helvetica,sans-Serif" font-size="10.00">src/gromacs/options</text>
<text text-anchor="middle" x="56" y="-7.5" font-family="Helvetica,sans-Serif" font-size="10.00">/tests/treesupport.cpp</text>
</a>
</g>
</g>
<!-- Node2&#45;&gt;Node3 -->
<g id="edge2" class="edge"><title>Node2&#45;&gt;Node3</title>
<path fill="none" stroke="midnightblue" d="M56,-57.1081C56,-48.1539 56,-38.3227 56,-30.5765"/>
<polygon fill="midnightblue" stroke="midnightblue" points="52.5001,-57.3959 56,-67.396 59.5001,-57.396 52.5001,-57.3959"/>
</g>
</g>
</svg>
