<?xml version="1.0" encoding="UTF-8" standalone="no"?>
<!DOCTYPE svg PUBLIC "-//W3C//DTD SVG 1.1//EN"
 "http://www.w3.org/Graphics/SVG/1.1/DTD/svg11.dtd">
<!-- Generated by graphviz version 2.38.0 (20140413.2041)
 -->
<!-- Title: src/gromacs/listed&#45;forces/listed&#45;internal.h Pages: 1 -->
<svg width="672pt" height="106pt"
 viewBox="0.00 0.00 671.50 106.00" xmlns="http://www.w3.org/2000/svg" xmlns:xlink="http://www.w3.org/1999/xlink">
<g id="graph0" class="graph" transform="scale(1 1) rotate(0) translate(4 102)">
<title>src/gromacs/listed&#45;forces/listed&#45;internal.h</title>
<polygon fill="white" stroke="none" points="-4,4 -4,-102 667.5,-102 667.5,4 -4,4"/>
<!-- Node1 -->
<g id="node1" class="node"><title>Node1</title>
<polygon fill="#bfbfbf" stroke="black" points="263,-67.5 263,-97.5 379,-97.5 379,-67.5 263,-67.5"/>
<text text-anchor="start" x="271" y="-85.5" font-family="Helvetica,sans-Serif" font-size="10.00">src/gromacs/listed</text>
<text text-anchor="middle" x="321" y="-74.5" font-family="Helvetica,sans-Serif" font-size="10.00">&#45;forces/listed&#45;internal.h</text>
</g>
<!-- Node2 -->
<g id="node2" class="node"><title>Node2</title>
<g id="a_node2"><a xlink:href="bonded_8cpp.xhtml" target="_top" xlink:title="This file defines low&#45;level functions necessary for computing energies and forces for listed interact...">
<polygon fill="white" stroke="black" points="0,-0.5 0,-30.5 100,-30.5 100,-0.5 0,-0.5"/>
<text text-anchor="start" x="8" y="-18.5" font-family="Helvetica,sans-Serif" font-size="10.00">src/gromacs/listed</text>
<text text-anchor="middle" x="50" y="-7.5" font-family="Helvetica,sans-Serif" font-size="10.00">&#45;forces/bonded.cpp</text>
</a>
</g>
</g>
<!-- Node1&#45;&gt;Node2 -->
<g id="edge1" class="edge"><title>Node1&#45;&gt;Node2</title>
<path fill="none" stroke="midnightblue" d="M253.181,-65.475C211.557,-55.6074 157.173,-42.6571 109,-31 106.129,-30.3054 103.181,-29.5892 100.206,-28.8646"/>
<polygon fill="midnightblue" stroke="midnightblue" points="252.398,-68.8864 262.936,-67.7865 254.012,-62.075 252.398,-68.8864"/>
</g>
<!-- Node3 -->
<g id="node3" class="node"><title>Node3</title>
<g id="a_node3"><a xlink:href="listed-forces_8cpp.xhtml" target="_top" xlink:title="This file defines high&#45;level functions for mdrun to compute energies and forces for listed interactio...">
<polygon fill="white" stroke="black" points="118,-0.5 118,-30.5 240,-30.5 240,-0.5 118,-0.5"/>
<text text-anchor="start" x="126" y="-18.5" font-family="Helvetica,sans-Serif" font-size="10.00">src/gromacs/listed</text>
<text text-anchor="middle" x="179" y="-7.5" font-family="Helvetica,sans-Serif" font-size="10.00">&#45;forces/listed&#45;forces.cpp</text>
</a>
</g>
</g>
<!-- Node1&#45;&gt;Node3 -->
<g id="edge2" class="edge"><title>Node1&#45;&gt;Node3</title>
<path fill="none" stroke="midnightblue" d="M280.87,-63.1305C258.307,-52.8025 230.579,-40.1103 209.752,-30.5765"/>
<polygon fill="midnightblue" stroke="midnightblue" points="279.639,-66.4162 290.188,-67.396 282.552,-60.0513 279.639,-66.4162"/>
</g>
<!-- Node4 -->
<g id="node4" class="node"><title>Node4</title>
<g id="a_node4"><a xlink:href="listed-internal_8cpp.xhtml" target="_top" xlink:title="This file defines functions needed internally by the module. ">
<polygon fill="white" stroke="black" points="258,-0.5 258,-30.5 384,-30.5 384,-0.5 258,-0.5"/>
<text text-anchor="start" x="266" y="-18.5" font-family="Helvetica,sans-Serif" font-size="10.00">src/gromacs/listed</text>
<text text-anchor="middle" x="321" y="-7.5" font-family="Helvetica,sans-Serif" font-size="10.00">&#45;forces/listed&#45;internal.cpp</text>
</a>
</g>
</g>
<!-- Node1&#45;&gt;Node4 -->
<g id="edge3" class="edge"><title>Node1&#45;&gt;Node4</title>
<path fill="none" stroke="midnightblue" d="M321,-57.1081C321,-48.1539 321,-38.3227 321,-30.5765"/>
<polygon fill="midnightblue" stroke="midnightblue" points="317.5,-57.3959 321,-67.396 324.5,-57.396 317.5,-57.3959"/>
</g>
<!-- Node5 -->
<g id="node5" class="node"><title>Node5</title>
<g id="a_node5"><a xlink:href="manage-threading_8cpp.xhtml" target="_top" xlink:title="This file defines functions for managing threading of listed interactions. ">
<polygon fill="white" stroke="black" points="402,-0.5 402,-30.5 548,-30.5 548,-0.5 402,-0.5"/>
<text text-anchor="start" x="410" y="-18.5" font-family="Helvetica,sans-Serif" font-size="10.00">src/gromacs/listed</text>
<text text-anchor="middle" x="475" y="-7.5" font-family="Helvetica,sans-Serif" font-size="10.00">&#45;forces/manage&#45;threading.cpp</text>
</a>
</g>
</g>
<!-- Node1&#45;&gt;Node5 -->
<g id="edge4" class="edge"><title>Node1&#45;&gt;Node5</title>
<path fill="none" stroke="midnightblue" d="M363.867,-63.4066C388.453,-53.0294 418.86,-40.1954 441.65,-30.5765"/>
<polygon fill="midnightblue" stroke="midnightblue" points="362.268,-60.2828 354.416,-67.396 364.99,-66.7319 362.268,-60.2828"/>
</g>
<!-- Node6 -->
<g id="node6" class="node"><title>Node6</title>
<g id="a_node6"><a xlink:href="pairs_8cpp.xhtml" target="_top" xlink:title="This file defines functions for &quot;pair&quot; interactions (i.e. listed non&#45;bonded interactions, e.g. 1&#45;4 interactions) ">
<polygon fill="white" stroke="black" points="566.5,-0.5 566.5,-30.5 663.5,-30.5 663.5,-0.5 566.5,-0.5"/>
<text text-anchor="start" x="574.5" y="-18.5" font-family="Helvetica,sans-Serif" font-size="10.00">src/gromacs/listed</text>
<text text-anchor="middle" x="615" y="-7.5" font-family="Helvetica,sans-Serif" font-size="10.00">&#45;forces/pairs.cpp</text>
</a>
</g>
</g>
<!-- Node1&#45;&gt;Node6 -->
<g id="edge5" class="edge"><title>Node1&#45;&gt;Node6</title>
<path fill="none" stroke="midnightblue" d="M389.122,-67.566C436.335,-57.7514 500.603,-44.0796 557,-31 560.033,-30.2965 563.152,-29.5588 566.295,-28.8045"/>
<polygon fill="midnightblue" stroke="midnightblue" points="388.395,-64.1421 379.315,-69.6002 389.817,-70.9962 388.395,-64.1421"/>
</g>
</g>
</svg>
