<?xml version="1.0" encoding="UTF-8" standalone="no"?>
<!DOCTYPE svg PUBLIC "-//W3C//DTD SVG 1.1//EN"
 "http://www.w3.org/Graphics/SVG/1.1/DTD/svg11.dtd">
<!-- Generated by graphviz version 2.38.0 (20140413.2041)
 -->
<!-- Title: src/gromacs/utility/loggerbuilder.h Pages: 1 -->
<svg width="262pt" height="106pt"
 viewBox="0.00 0.00 262.00 106.00" xmlns="http://www.w3.org/2000/svg" xmlns:xlink="http://www.w3.org/1999/xlink">
<g id="graph0" class="graph" transform="scale(1 1) rotate(0) translate(4 102)">
<title>src/gromacs/utility/loggerbuilder.h</title>
<polygon fill="white" stroke="none" points="-4,4 -4,-102 258,-102 258,4 -4,4"/>
<!-- Node1 -->
<g id="node1" class="node"><title>Node1</title>
<polygon fill="#bfbfbf" stroke="black" points="85.5,-67.5 85.5,-97.5 182.5,-97.5 182.5,-67.5 85.5,-67.5"/>
<text text-anchor="start" x="93.5" y="-85.5" font-family="Helvetica,sans-Serif" font-size="10.00">src/gromacs/utility</text>
<text text-anchor="middle" x="134" y="-74.5" font-family="Helvetica,sans-Serif" font-size="10.00">/loggerbuilder.h</text>
</g>
<!-- Node2 -->
<g id="node2" class="node"><title>Node2</title>
<g id="a_node2"><a xlink:href="testhardwarecontexts_8cpp.xhtml" target="_top" xlink:title="Implements test environment class which performs hardware enumeration for unit tests. ">
<polygon fill="white" stroke="black" points="0,-0.5 0,-30.5 132,-30.5 132,-0.5 0,-0.5"/>
<text text-anchor="start" x="8" y="-18.5" font-family="Helvetica,sans-Serif" font-size="10.00">src/gromacs/ewald/tests</text>
<text text-anchor="middle" x="66" y="-7.5" font-family="Helvetica,sans-Serif" font-size="10.00">/testhardwarecontexts.cpp</text>
</a>
</g>
</g>
<!-- Node1&#45;&gt;Node2 -->
<g id="edge1" class="edge"><title>Node1&#45;&gt;Node2</title>
<path fill="none" stroke="midnightblue" d="M111.834,-60.3115C101.633,-50.5612 89.8095,-39.259 80.7262,-30.5765"/>
<polygon fill="midnightblue" stroke="midnightblue" points="109.598,-63.0162 119.245,-67.396 114.435,-57.9561 109.598,-63.0162"/>
</g>
<!-- Node3 -->
<g id="node3" class="node"><title>Node3</title>
<g id="a_node3"><a xlink:href="runner_8cpp.xhtml" target="_top" xlink:title="Implements the MD runner routine calling all integrators. ">
<polygon fill="white" stroke="black" points="150,-0.5 150,-30.5 254,-30.5 254,-0.5 150,-0.5"/>
<text text-anchor="start" x="158" y="-18.5" font-family="Helvetica,sans-Serif" font-size="10.00">src/programs/mdrun</text>
<text text-anchor="middle" x="202" y="-7.5" font-family="Helvetica,sans-Serif" font-size="10.00">/runner.cpp</text>
</a>
</g>
</g>
<!-- Node1&#45;&gt;Node3 -->
<g id="edge2" class="edge"><title>Node1&#45;&gt;Node3</title>
<path fill="none" stroke="midnightblue" d="M156.166,-60.3115C166.367,-50.5612 178.191,-39.259 187.274,-30.5765"/>
<polygon fill="midnightblue" stroke="midnightblue" points="153.565,-57.9561 148.755,-67.396 158.402,-63.0162 153.565,-57.9561"/>
</g>
</g>
</svg>
