<?xml version="1.0" encoding="UTF-8" standalone="no"?>
<!DOCTYPE svg PUBLIC "-//W3C//DTD SVG 1.1//EN"
 "http://www.w3.org/Graphics/SVG/1.1/DTD/svg11.dtd">
<!-- Generated by graphviz version 2.38.0 (20140413.2041)
 -->
<!-- Title: src/gromacs/utility/logger.h Pages: 1 -->
<svg width="1865pt" height="173pt"
 viewBox="0.00 0.00 1865.00 173.00" xmlns="http://www.w3.org/2000/svg" xmlns:xlink="http://www.w3.org/1999/xlink">
<g id="graph0" class="graph" transform="scale(1 1) rotate(0) translate(4 169)">
<title>src/gromacs/utility/logger.h</title>
<polygon fill="white" stroke="none" points="-4,4 -4,-169 1861,-169 1861,4 -4,4"/>
<!-- Node1 -->
<g id="node1" class="node"><title>Node1</title>
<polygon fill="#bfbfbf" stroke="black" points="843,-134.5 843,-164.5 940,-164.5 940,-134.5 843,-134.5"/>
<text text-anchor="start" x="851" y="-152.5" font-family="Helvetica,sans-Serif" font-size="10.00">src/gromacs/utility</text>
<text text-anchor="middle" x="891.5" y="-141.5" font-family="Helvetica,sans-Serif" font-size="10.00">/logger.h</text>
</g>
<!-- Node2 -->
<g id="node2" class="node"><title>Node2</title>
<g id="a_node2"><a xlink:href="pme-gpu-internal_8cpp.xhtml" target="_top" xlink:title="This file contains internal function implementations for performing the PME calculations on GPU...">
<polygon fill="white" stroke="black" points="0,-67.5 0,-97.5 121,-97.5 121,-67.5 0,-67.5"/>
<text text-anchor="start" x="8" y="-85.5" font-family="Helvetica,sans-Serif" font-size="10.00">src/gromacs/ewald/pme</text>
<text text-anchor="middle" x="60.5" y="-74.5" font-family="Helvetica,sans-Serif" font-size="10.00">&#45;gpu&#45;internal.cpp</text>
</a>
</g>
</g>
<!-- Node1&#45;&gt;Node2 -->
<g id="edge1" class="edge"><title>Node1&#45;&gt;Node2</title>
<path fill="none" stroke="midnightblue" d="M832.664,-147.422C704.371,-144.454 390.061,-133.83 129.5,-98 126.832,-97.6331 124.113,-97.2222 121.372,-96.7776"/>
<polygon fill="midnightblue" stroke="midnightblue" points="832.597,-150.921 842.673,-147.647 832.754,-143.923 832.597,-150.921"/>
</g>
<!-- Node3 -->
<g id="node3" class="node"><title>Node3</title>
<g id="a_node3"><a xlink:href="pme-load-balancing_8cpp.xhtml" target="_top" xlink:title="This file contains function definitions necessary for managing automatic load balance of PME calculat...">
<polygon fill="white" stroke="black" points="139,-67.5 139,-97.5 260,-97.5 260,-67.5 139,-67.5"/>
<text text-anchor="start" x="147" y="-85.5" font-family="Helvetica,sans-Serif" font-size="10.00">src/gromacs/ewald/pme</text>
<text text-anchor="middle" x="199.5" y="-74.5" font-family="Helvetica,sans-Serif" font-size="10.00">&#45;load&#45;balancing.cpp</text>
</a>
</g>
</g>
<!-- Node1&#45;&gt;Node3 -->
<g id="edge2" class="edge"><title>Node1&#45;&gt;Node3</title>
<path fill="none" stroke="midnightblue" d="M832.595,-146.139C721.844,-141.164 475.202,-127.541 269.5,-98 266.429,-97.559 263.29,-97.0658 260.126,-96.5348"/>
<polygon fill="midnightblue" stroke="midnightblue" points="832.738,-149.649 842.883,-146.594 833.047,-142.656 832.738,-149.649"/>
</g>
<!-- Node4 -->
<g id="node4" class="node"><title>Node4</title>
<g id="a_node4"><a xlink:href="pme_8cpp.xhtml" target="_top" xlink:title="This file contains function definitions necessary for computing energies and forces for the PME long&#45;...">
<polygon fill="white" stroke="black" points="278.5,-73 278.5,-92 418.5,-92 418.5,-73 278.5,-73"/>
<text text-anchor="middle" x="348.5" y="-80" font-family="Helvetica,sans-Serif" font-size="10.00">src/gromacs/ewald/pme.cpp</text>
</a>
</g>
</g>
<!-- Node1&#45;&gt;Node4 -->
<g id="edge3" class="edge"><title>Node1&#45;&gt;Node4</title>
<path fill="none" stroke="midnightblue" d="M832.846,-143.502C744.639,-135.674 572.693,-119.197 427.5,-98 415.91,-96.3079 403.42,-94.1651 391.869,-92.0495"/>
<polygon fill="midnightblue" stroke="midnightblue" points="832.653,-146.999 842.922,-144.391 833.269,-140.026 832.653,-146.999"/>
</g>
<!-- Node5 -->
<g id="node5" class="node"><title>Node5</title>
<g id="a_node5"><a xlink:href="pmetestcommon_8cpp.xhtml" target="_top" xlink:title="Implements common routines for PME tests. ">
<polygon fill="white" stroke="black" points="436.5,-67.5 436.5,-97.5 560.5,-97.5 560.5,-67.5 436.5,-67.5"/>
<text text-anchor="start" x="444.5" y="-85.5" font-family="Helvetica,sans-Serif" font-size="10.00">src/gromacs/ewald/tests</text>
<text text-anchor="middle" x="498.5" y="-74.5" font-family="Helvetica,sans-Serif" font-size="10.00">/pmetestcommon.cpp</text>
</a>
</g>
</g>
<!-- Node1&#45;&gt;Node5 -->
<g id="edge4" class="edge"><title>Node1&#45;&gt;Node5</title>
<path fill="none" stroke="midnightblue" d="M833.022,-140.066C768.586,-130.595 661.951,-114.394 570.5,-98 567.237,-97.415 563.894,-96.7993 560.521,-96.1651"/>
<polygon fill="midnightblue" stroke="midnightblue" points="832.59,-143.54 842.992,-141.528 833.605,-136.614 832.59,-143.54"/>
</g>
<!-- Node6 -->
<g id="node6" class="node"><title>Node6</title>
<g id="a_node6"><a xlink:href="loggerbuilder_8h.xhtml" target="_top" xlink:title="Declares functionality for initializing logging. ">
<polygon fill="white" stroke="black" points="579,-67.5 579,-97.5 676,-97.5 676,-67.5 579,-67.5"/>
<text text-anchor="start" x="587" y="-85.5" font-family="Helvetica,sans-Serif" font-size="10.00">src/gromacs/utility</text>
<text text-anchor="middle" x="627.5" y="-74.5" font-family="Helvetica,sans-Serif" font-size="10.00">/loggerbuilder.h</text>
</a>
</g>
</g>
<!-- Node1&#45;&gt;Node6 -->
<g id="edge5" class="edge"><title>Node1&#45;&gt;Node6</title>
<path fill="none" stroke="midnightblue" d="M833.026,-134.103C785.994,-122.523 720.675,-106.441 676.392,-95.5378"/>
<polygon fill="midnightblue" stroke="midnightblue" points="832.224,-137.51 842.771,-136.502 833.897,-130.713 832.224,-137.51"/>
</g>
<!-- Node8 -->
<g id="node8" class="node"><title>Node8</title>
<g id="a_node8"><a xlink:href="runner_8cpp.xhtml" target="_top" xlink:title="Implements the MD runner routine calling all integrators. ">
<polygon fill="white" stroke="black" points="652.5,-0.5 652.5,-30.5 756.5,-30.5 756.5,-0.5 652.5,-0.5"/>
<text text-anchor="start" x="660.5" y="-18.5" font-family="Helvetica,sans-Serif" font-size="10.00">src/programs/mdrun</text>
<text text-anchor="middle" x="704.5" y="-7.5" font-family="Helvetica,sans-Serif" font-size="10.00">/runner.cpp</text>
</a>
</g>
</g>
<!-- Node1&#45;&gt;Node8 -->
<g id="edge16" class="edge"><title>Node1&#45;&gt;Node8</title>
<path fill="none" stroke="midnightblue" d="M832.733,-145.337C796.401,-140.261 751.512,-127.833 723.5,-98 706.196,-79.5705 703.637,-48.5427 703.773,-30.5563"/>
<polygon fill="midnightblue" stroke="midnightblue" points="832.377,-148.819 842.733,-146.582 833.242,-141.873 832.377,-148.819"/>
</g>
<!-- Node9 -->
<g id="node9" class="node"><title>Node9</title>
<g id="a_node9"><a xlink:href="minimize_8cpp.xhtml" target="_top" xlink:title="This file defines integrators for energy minimization. ">
<polygon fill="white" stroke="black" points="732.5,-73 732.5,-92 890.5,-92 890.5,-73 732.5,-73"/>
<text text-anchor="middle" x="811.5" y="-80" font-family="Helvetica,sans-Serif" font-size="10.00">src/gromacs/mdlib/minimize.cpp</text>
</a>
</g>
</g>
<!-- Node1&#45;&gt;Node9 -->
<g id="edge8" class="edge"><title>Node1&#45;&gt;Node9</title>
<path fill="none" stroke="midnightblue" d="M866.279,-128.008C851.428,-115.941 833.413,-101.305 822.201,-92.1945"/>
<polygon fill="midnightblue" stroke="midnightblue" points="864.173,-130.806 874.141,-134.396 868.587,-125.374 864.173,-130.806"/>
</g>
<!-- Node10 -->
<g id="node10" class="node"><title>Node10</title>
<g id="a_node10"><a xlink:href="nbnxn__tuning_8cpp.xhtml" target="_top" xlink:title="Implements functions for tuning adjustable parameters for the nbnxn non&#45;bonded search and interaction...">
<polygon fill="white" stroke="black" points="908.5,-67.5 908.5,-97.5 1034.5,-97.5 1034.5,-67.5 908.5,-67.5"/>
<text text-anchor="start" x="916.5" y="-85.5" font-family="Helvetica,sans-Serif" font-size="10.00">src/gromacs/mdlib/nbnxn</text>
<text text-anchor="middle" x="971.5" y="-74.5" font-family="Helvetica,sans-Serif" font-size="10.00">_tuning.cpp</text>
</a>
</g>
</g>
<!-- Node1&#45;&gt;Node10 -->
<g id="edge9" class="edge"><title>Node1&#45;&gt;Node10</title>
<path fill="none" stroke="midnightblue" d="M916.875,-127.883C929.032,-118.005 943.279,-106.429 954.175,-97.5765"/>
<polygon fill="midnightblue" stroke="midnightblue" points="914.413,-125.374 908.859,-134.396 918.827,-130.806 914.413,-125.374"/>
</g>
<!-- Node11 -->
<g id="node11" class="node"><title>Node11</title>
<g id="a_node11"><a xlink:href="loggertest_8h.xhtml" target="_top" xlink:title="Declares gmx::test::LoggerTestHelper. ">
<polygon fill="white" stroke="black" points="1052.5,-73 1052.5,-92 1174.5,-92 1174.5,-73 1052.5,-73"/>
<text text-anchor="middle" x="1113.5" y="-80" font-family="Helvetica,sans-Serif" font-size="10.00">src/testutils/loggertest.h</text>
</a>
</g>
</g>
<!-- Node1&#45;&gt;Node11 -->
<g id="edge10" class="edge"><title>Node1&#45;&gt;Node11</title>
<path fill="none" stroke="midnightblue" d="M949.253,-131.59C992.609,-118.896 1050.17,-102.043 1084.37,-92.0287"/>
<polygon fill="midnightblue" stroke="midnightblue" points="948.011,-128.307 939.397,-134.476 949.978,-135.025 948.011,-128.307"/>
</g>
<!-- Node12 -->
<g id="node12" class="node"><title>Node12</title>
<g id="a_node12"><a xlink:href="loggertest_8cpp.xhtml" target="_top" xlink:title="Implements gmx::test::LoggerTestHelper. ">
<polygon fill="white" stroke="black" points="1091.5,-6 1091.5,-25 1223.5,-25 1223.5,-6 1091.5,-6"/>
<text text-anchor="middle" x="1157.5" y="-13" font-family="Helvetica,sans-Serif" font-size="10.00">src/testutils/loggertest.cpp</text>
</a>
</g>
</g>
<!-- Node1&#45;&gt;Node12 -->
<g id="edge17" class="edge"><title>Node1&#45;&gt;Node12</title>
<path fill="none" stroke="midnightblue" d="M950.717,-146.932C1027.3,-143.512 1154.35,-132.628 1183.5,-98 1201.87,-76.1859 1178.06,-41.2492 1165.01,-25.1442"/>
<polygon fill="midnightblue" stroke="midnightblue" points="950.107,-143.455 940.262,-147.367 950.398,-150.449 950.107,-143.455"/>
</g>
<!-- Node13 -->
<g id="node13" class="node"><title>Node13</title>
<g id="a_node13"><a xlink:href="decidegpuusage_8cpp.xhtml" target="_top" xlink:title="Defines functionality for deciding whether tasks will run on GPUs. ">
<polygon fill="white" stroke="black" points="1231,-67.5 1231,-97.5 1374,-97.5 1374,-67.5 1231,-67.5"/>
<text text-anchor="start" x="1239" y="-85.5" font-family="Helvetica,sans-Serif" font-size="10.00">src/gromacs/taskassignment</text>
<text text-anchor="middle" x="1302.5" y="-74.5" font-family="Helvetica,sans-Serif" font-size="10.00">/decidegpuusage.cpp</text>
</a>
</g>
</g>
<!-- Node1&#45;&gt;Node13 -->
<g id="edge12" class="edge"><title>Node1&#45;&gt;Node13</title>
<path fill="none" stroke="midnightblue" d="M950.335,-139.591C1015.46,-129.675 1123.54,-113.059 1216.5,-98 1221.13,-97.2494 1225.91,-96.468 1230.72,-95.6743"/>
<polygon fill="midnightblue" stroke="midnightblue" points="949.619,-136.16 940.26,-141.124 950.672,-143.08 949.619,-136.16"/>
</g>
<!-- Node14 -->
<g id="node14" class="node"><title>Node14</title>
<g id="a_node14"><a xlink:href="reportgpuusage_8cpp.xhtml" target="_top" xlink:title="Defines routine for reporting GPU usage. ">
<polygon fill="white" stroke="black" points="1392,-67.5 1392,-97.5 1535,-97.5 1535,-67.5 1392,-67.5"/>
<text text-anchor="start" x="1400" y="-85.5" font-family="Helvetica,sans-Serif" font-size="10.00">src/gromacs/taskassignment</text>
<text text-anchor="middle" x="1463.5" y="-74.5" font-family="Helvetica,sans-Serif" font-size="10.00">/reportgpuusage.cpp</text>
</a>
</g>
</g>
<!-- Node1&#45;&gt;Node14 -->
<g id="edge13" class="edge"><title>Node1&#45;&gt;Node14</title>
<path fill="none" stroke="midnightblue" d="M950.182,-143.948C1042.6,-136.448 1227.6,-120.096 1383.5,-98 1386.16,-97.6237 1388.86,-97.2233 1391.58,-96.8046"/>
<polygon fill="midnightblue" stroke="midnightblue" points="949.871,-140.462 940.185,-144.754 950.434,-147.439 949.871,-140.462"/>
</g>
<!-- Node15 -->
<g id="node15" class="node"><title>Node15</title>
<g id="a_node15"><a xlink:href="resourcedivision_8cpp.xhtml" target="_top" xlink:title="Defines utility functionality for dividing resources and checking for consistency and usefulness...">
<polygon fill="white" stroke="black" points="1553,-67.5 1553,-97.5 1696,-97.5 1696,-67.5 1553,-67.5"/>
<text text-anchor="start" x="1561" y="-85.5" font-family="Helvetica,sans-Serif" font-size="10.00">src/gromacs/taskassignment</text>
<text text-anchor="middle" x="1624.5" y="-74.5" font-family="Helvetica,sans-Serif" font-size="10.00">/resourcedivision.cpp</text>
</a>
</g>
</g>
<!-- Node1&#45;&gt;Node15 -->
<g id="edge14" class="edge"><title>Node1&#45;&gt;Node15</title>
<path fill="none" stroke="midnightblue" d="M950.311,-145.968C1064.98,-140.586 1326.33,-126.133 1544.5,-98 1547.16,-97.657 1549.87,-97.2851 1552.6,-96.8903"/>
<polygon fill="midnightblue" stroke="midnightblue" points="949.833,-142.486 940.006,-146.446 950.157,-149.479 949.833,-142.486"/>
</g>
<!-- Node16 -->
<g id="node16" class="node"><title>Node16</title>
<g id="a_node16"><a xlink:href="taskassignment_8cpp.xhtml" target="_top" xlink:title="Defines helper and factory functionality for task assignment. ">
<polygon fill="white" stroke="black" points="1714,-67.5 1714,-97.5 1857,-97.5 1857,-67.5 1714,-67.5"/>
<text text-anchor="start" x="1722" y="-85.5" font-family="Helvetica,sans-Serif" font-size="10.00">src/gromacs/taskassignment</text>
<text text-anchor="middle" x="1785.5" y="-74.5" font-family="Helvetica,sans-Serif" font-size="10.00">/taskassignment.cpp</text>
</a>
</g>
</g>
<!-- Node1&#45;&gt;Node16 -->
<g id="edge15" class="edge"><title>Node1&#45;&gt;Node16</title>
<path fill="none" stroke="midnightblue" d="M950.387,-147.214C1084.73,-143.765 1423.98,-132.126 1705.5,-98 1708.16,-97.6773 1710.87,-97.3226 1713.6,-96.9424"/>
<polygon fill="midnightblue" stroke="midnightblue" points="950.218,-143.717 940.309,-147.468 950.394,-150.715 950.218,-143.717"/>
</g>
<!-- Node7 -->
<g id="node7" class="node"><title>Node7</title>
<g id="a_node7"><a xlink:href="testhardwarecontexts_8cpp.xhtml" target="_top" xlink:title="Implements test environment class which performs hardware enumeration for unit tests. ">
<polygon fill="white" stroke="black" points="502.5,-0.5 502.5,-30.5 634.5,-30.5 634.5,-0.5 502.5,-0.5"/>
<text text-anchor="start" x="510.5" y="-18.5" font-family="Helvetica,sans-Serif" font-size="10.00">src/gromacs/ewald/tests</text>
<text text-anchor="middle" x="568.5" y="-7.5" font-family="Helvetica,sans-Serif" font-size="10.00">/testhardwarecontexts.cpp</text>
</a>
</g>
</g>
<!-- Node6&#45;&gt;Node7 -->
<g id="edge6" class="edge"><title>Node6&#45;&gt;Node7</title>
<path fill="none" stroke="midnightblue" d="M607.745,-59.7362C599.016,-50.119 589.004,-39.0888 581.277,-30.5765"/>
<polygon fill="midnightblue" stroke="midnightblue" points="605.385,-62.3438 614.698,-67.396 610.568,-57.639 605.385,-62.3438"/>
</g>
<!-- Node6&#45;&gt;Node8 -->
<g id="edge7" class="edge"><title>Node6&#45;&gt;Node8</title>
<path fill="none" stroke="midnightblue" d="M651.923,-60.8832C663.624,-51.0054 677.338,-39.4293 687.825,-30.5765"/>
<polygon fill="midnightblue" stroke="midnightblue" points="649.592,-58.2709 644.208,-67.396 654.107,-63.6199 649.592,-58.2709"/>
</g>
<!-- Node11&#45;&gt;Node12 -->
<g id="edge11" class="edge"><title>Node11&#45;&gt;Node12</title>
<path fill="none" stroke="midnightblue" d="M1125.07,-64.4037C1133.62,-51.7729 1144.91,-35.1041 1151.66,-25.1273"/>
<polygon fill="midnightblue" stroke="midnightblue" points="1122.14,-62.4907 1119.43,-72.7338 1127.94,-66.4147 1122.14,-62.4907"/>
</g>
</g>
</svg>
