<?xml version="1.0" encoding="UTF-8" standalone="no"?>
<!DOCTYPE svg PUBLIC "-//W3C//DTD SVG 1.1//EN"
 "http://www.w3.org/Graphics/SVG/1.1/DTD/svg11.dtd">
<!-- Generated by graphviz version 2.38.0 (20140413.2041)
 -->
<!-- Title: src/gromacs/compat/tests/make_unique.cpp Pages: 1 -->
<svg width="289pt" height="162pt"
 viewBox="0.00 0.00 289.00 162.00" xmlns="http://www.w3.org/2000/svg" xmlns:xlink="http://www.w3.org/1999/xlink">
<g id="graph0" class="graph" transform="scale(1 1) rotate(0) translate(4 158)">
<title>src/gromacs/compat/tests/make_unique.cpp</title>
<polygon fill="white" stroke="none" points="-4,4 -4,-158 285,-158 285,4 -4,4"/>
<!-- Node1 -->
<g id="node1" class="node"><title>Node1</title>
<polygon fill="#bfbfbf" stroke="black" points="73,-123.5 73,-153.5 194,-153.5 194,-123.5 73,-123.5"/>
<text text-anchor="start" x="81" y="-141.5" font-family="Helvetica,sans-Serif" font-size="10.00">src/gromacs/compat</text>
<text text-anchor="middle" x="133.5" y="-130.5" font-family="Helvetica,sans-Serif" font-size="10.00">/tests/make_unique.cpp</text>
</g>
<!-- Node2 -->
<g id="node2" class="node"><title>Node2</title>
<g id="a_node2"><a xlink:href="gmxpre_8h.xhtml" target="_top" xlink:title="Prerequisite header file for GROMACS build. ">
<polygon fill="white" stroke="black" points="0,-62 0,-81 57,-81 57,-62 0,-62"/>
<text text-anchor="middle" x="28.5" y="-69" font-family="Helvetica,sans-Serif" font-size="10.00">gmxpre.h</text>
</a>
</g>
</g>
<!-- Node1&#45;&gt;Node2 -->
<g id="edge1" class="edge"><title>Node1&#45;&gt;Node2</title>
<path fill="none" stroke="midnightblue" d="M110.717,-123.396C92.9453,-112.395 68.4004,-97.2002 50.7631,-86.2819"/>
<polygon fill="midnightblue" stroke="midnightblue" points="52.587,-83.2947 42.2421,-81.007 48.9025,-89.2465 52.587,-83.2947"/>
</g>
<!-- Node3 -->
<g id="node3" class="node"><title>Node3</title>
<g id="a_node3"><a xlink:href="make__unique_8h.xhtml" target="_top" xlink:title="Provides template gmx::compat::make_unique. ">
<polygon fill="white" stroke="black" points="75.5,-56.5 75.5,-86.5 191.5,-86.5 191.5,-56.5 75.5,-56.5"/>
<text text-anchor="start" x="83.5" y="-74.5" font-family="Helvetica,sans-Serif" font-size="10.00">gromacs/compat/make</text>
<text text-anchor="middle" x="133.5" y="-63.5" font-family="Helvetica,sans-Serif" font-size="10.00">_unique.h</text>
</a>
</g>
</g>
<!-- Node1&#45;&gt;Node3 -->
<g id="edge2" class="edge"><title>Node1&#45;&gt;Node3</title>
<path fill="none" stroke="midnightblue" d="M133.5,-123.396C133.5,-115.645 133.5,-105.812 133.5,-96.8601"/>
<polygon fill="midnightblue" stroke="midnightblue" points="137,-96.5765 133.5,-86.5765 130,-96.5765 137,-96.5765"/>
</g>
<!-- Node8 -->
<g id="node8" class="node"><title>Node8</title>
<polygon fill="white" stroke="#bfbfbf" points="210,-62 210,-81 281,-81 281,-62 210,-62"/>
<text text-anchor="middle" x="245.5" y="-69" font-family="Helvetica,sans-Serif" font-size="10.00">gtest/gtest.h</text>
</g>
<!-- Node1&#45;&gt;Node8 -->
<g id="edge7" class="edge"><title>Node1&#45;&gt;Node8</title>
<path fill="none" stroke="midnightblue" d="M157.802,-123.396C176.845,-112.344 203.18,-97.0607 222.011,-86.1319"/>
<polygon fill="midnightblue" stroke="midnightblue" points="223.95,-89.0537 230.842,-81.007 220.436,-82.9994 223.95,-89.0537"/>
</g>
<!-- Node4 -->
<g id="node4" class="node"><title>Node4</title>
<polygon fill="white" stroke="#bfbfbf" points="2,-0.5 2,-19.5 51,-19.5 51,-0.5 2,-0.5"/>
<text text-anchor="middle" x="26.5" y="-7.5" font-family="Helvetica,sans-Serif" font-size="10.00">cstddef</text>
</g>
<!-- Node3&#45;&gt;Node4 -->
<g id="edge3" class="edge"><title>Node3&#45;&gt;Node4</title>
<path fill="none" stroke="midnightblue" d="M108.142,-56.3993C90.8309,-46.7728 68.0235,-34.0902 50.9161,-24.5772"/>
<polygon fill="midnightblue" stroke="midnightblue" points="52.5101,-21.4588 42.0694,-19.6578 49.1081,-27.5766 52.5101,-21.4588"/>
</g>
<!-- Node5 -->
<g id="node5" class="node"><title>Node5</title>
<polygon fill="white" stroke="#bfbfbf" points="69.5,-0.5 69.5,-19.5 121.5,-19.5 121.5,-0.5 69.5,-0.5"/>
<text text-anchor="middle" x="95.5" y="-7.5" font-family="Helvetica,sans-Serif" font-size="10.00">memory</text>
</g>
<!-- Node3&#45;&gt;Node5 -->
<g id="edge4" class="edge"><title>Node3&#45;&gt;Node5</title>
<path fill="none" stroke="midnightblue" d="M124.495,-56.3993C119.087,-47.9315 112.168,-37.0991 106.446,-28.1393"/>
<polygon fill="midnightblue" stroke="midnightblue" points="109.362,-26.2018 101.029,-19.6578 103.462,-29.9695 109.362,-26.2018"/>
</g>
<!-- Node6 -->
<g id="node6" class="node"><title>Node6</title>
<polygon fill="white" stroke="#bfbfbf" points="139.5,-0.5 139.5,-19.5 201.5,-19.5 201.5,-0.5 139.5,-0.5"/>
<text text-anchor="middle" x="170.5" y="-7.5" font-family="Helvetica,sans-Serif" font-size="10.00">type_traits</text>
</g>
<!-- Node3&#45;&gt;Node6 -->
<g id="edge5" class="edge"><title>Node3&#45;&gt;Node6</title>
<path fill="none" stroke="midnightblue" d="M142.268,-56.3993C147.479,-48.0207 154.129,-37.3269 159.666,-28.4229"/>
<polygon fill="midnightblue" stroke="midnightblue" points="162.808,-29.9981 165.116,-19.6578 156.863,-26.3015 162.808,-29.9981"/>
</g>
<!-- Node7 -->
<g id="node7" class="node"><title>Node7</title>
<polygon fill="white" stroke="#bfbfbf" points="219.5,-0.5 219.5,-19.5 259.5,-19.5 259.5,-0.5 219.5,-0.5"/>
<text text-anchor="middle" x="239.5" y="-7.5" font-family="Helvetica,sans-Serif" font-size="10.00">utility</text>
</g>
<!-- Node3&#45;&gt;Node7 -->
<g id="edge6" class="edge"><title>Node3&#45;&gt;Node7</title>
<path fill="none" stroke="midnightblue" d="M158.621,-56.3993C175.77,-46.7728 198.365,-34.0902 215.312,-24.5772"/>
<polygon fill="midnightblue" stroke="midnightblue" points="217.069,-27.6047 224.076,-19.6578 213.643,-21.5006 217.069,-27.6047"/>
</g>
</g>
</svg>
