<?xml version="1.0" encoding="UTF-8" standalone="no"?>
<!DOCTYPE svg PUBLIC "-//W3C//DTD SVG 1.1//EN"
 "http://www.w3.org/Graphics/SVG/1.1/DTD/svg11.dtd">
<!-- Generated by graphviz version 2.38.0 (20140413.2041)
 -->
<!-- Title: src/programs/mdrun/tests/mdruncomparisonfixture.cpp Pages: 1 -->
<svg width="1182pt" height="330pt"
 viewBox="0.00 0.00 1182.00 330.00" xmlns="http://www.w3.org/2000/svg" xmlns:xlink="http://www.w3.org/1999/xlink">
<g id="graph0" class="graph" transform="scale(1 1) rotate(0) translate(4 326)">
<title>src/programs/mdrun/tests/mdruncomparisonfixture.cpp</title>
<polygon fill="white" stroke="none" points="-4,4 -4,-326 1178,-326 1178,4 -4,4"/>
<!-- Node1 -->
<g id="node1" class="node"><title>Node1</title>
<polygon fill="#bfbfbf" stroke="black" points="103,-291.5 103,-321.5 270,-321.5 270,-291.5 103,-291.5"/>
<text text-anchor="start" x="111" y="-309.5" font-family="Helvetica,sans-Serif" font-size="10.00">src/programs/mdrun</text>
<text text-anchor="middle" x="186.5" y="-298.5" font-family="Helvetica,sans-Serif" font-size="10.00">/tests/mdruncomparisonfixture.cpp</text>
</g>
<!-- Node2 -->
<g id="node2" class="node"><title>Node2</title>
<g id="a_node2"><a xlink:href="gmxpre_8h.xhtml" target="_top" xlink:title="Prerequisite header file for GROMACS build. ">
<polygon fill="white" stroke="black" points="0,-235.5 0,-254.5 57,-254.5 57,-235.5 0,-235.5"/>
<text text-anchor="middle" x="28.5" y="-242.5" font-family="Helvetica,sans-Serif" font-size="10.00">gmxpre.h</text>
</a>
</g>
</g>
<!-- Node1&#45;&gt;Node2 -->
<g id="edge1" class="edge"><title>Node1&#45;&gt;Node2</title>
<path fill="none" stroke="midnightblue" d="M149.056,-291.399C122.31,-281.327 86.6793,-267.909 61.1009,-258.277"/>
<polygon fill="midnightblue" stroke="midnightblue" points="62.0823,-254.907 51.4904,-254.658 59.6153,-261.458 62.0823,-254.907"/>
</g>
<!-- Node3 -->
<g id="node3" class="node"><title>Node3</title>
<polygon fill="white" stroke="#bfbfbf" points="75,-235.5 75,-254.5 110,-254.5 110,-235.5 75,-235.5"/>
<text text-anchor="middle" x="92.5" y="-242.5" font-family="Helvetica,sans-Serif" font-size="10.00">map</text>
</g>
<!-- Node1&#45;&gt;Node3 -->
<g id="edge2" class="edge"><title>Node1&#45;&gt;Node3</title>
<path fill="none" stroke="midnightblue" d="M164.223,-291.399C149.297,-281.951 129.719,-269.559 114.79,-260.109"/>
<polygon fill="midnightblue" stroke="midnightblue" points="116.499,-257.049 106.178,-254.658 112.755,-262.964 116.499,-257.049"/>
</g>
<!-- Node4 -->
<g id="node4" class="node"><title>Node4</title>
<polygon fill="white" stroke="#bfbfbf" points="271,-123.5 271,-142.5 312,-142.5 312,-123.5 271,-123.5"/>
<text text-anchor="middle" x="291.5" y="-130.5" font-family="Helvetica,sans-Serif" font-size="10.00">string</text>
</g>
<!-- Node1&#45;&gt;Node4 -->
<g id="edge3" class="edge"><title>Node1&#45;&gt;Node4</title>
<path fill="none" stroke="midnightblue" d="M211.858,-291.36C240.287,-273.883 284.845,-241.207 303.5,-199 310.089,-184.093 305.673,-165.719 300.435,-152.314"/>
<polygon fill="midnightblue" stroke="midnightblue" points="303.478,-150.538 296.253,-142.79 297.069,-153.353 303.478,-150.538"/>
</g>
<!-- Node5 -->
<g id="node5" class="node"><title>Node5</title>
<polygon fill="white" stroke="#bfbfbf" points="166.5,-235.5 166.5,-254.5 206.5,-254.5 206.5,-235.5 166.5,-235.5"/>
<text text-anchor="middle" x="186.5" y="-242.5" font-family="Helvetica,sans-Serif" font-size="10.00">utility</text>
</g>
<!-- Node1&#45;&gt;Node5 -->
<g id="edge4" class="edge"><title>Node1&#45;&gt;Node5</title>
<path fill="none" stroke="midnightblue" d="M186.5,-291.399C186.5,-283.466 186.5,-273.458 186.5,-264.858"/>
<polygon fill="midnightblue" stroke="midnightblue" points="190,-264.658 186.5,-254.658 183,-264.658 190,-264.658"/>
</g>
<!-- Node6 -->
<g id="node6" class="node"><title>Node6</title>
<polygon fill="white" stroke="#bfbfbf" points="208.5,-123.5 208.5,-142.5 252.5,-142.5 252.5,-123.5 208.5,-123.5"/>
<text text-anchor="middle" x="230.5" y="-130.5" font-family="Helvetica,sans-Serif" font-size="10.00">vector</text>
</g>
<!-- Node1&#45;&gt;Node6 -->
<g id="edge5" class="edge"><title>Node1&#45;&gt;Node6</title>
<path fill="none" stroke="midnightblue" d="M175.693,-291.372C169.006,-281.708 161.043,-268.285 157.5,-255 148.796,-222.363 141.034,-208.493 157.5,-179 166.395,-163.068 183.505,-152.076 198.926,-144.947"/>
<polygon fill="midnightblue" stroke="midnightblue" points="200.386,-148.129 208.22,-140.997 197.648,-141.687 200.386,-148.129"/>
</g>
<!-- Node7 -->
<g id="node7" class="node"><title>Node7</title>
<g id="a_node7"><a xlink:href="stringutil_8h.xhtml" target="_top" xlink:title="Declares common string utility and formatting routines. ">
<polygon fill="white" stroke="black" points="166.5,-179.5 166.5,-198.5 294.5,-198.5 294.5,-179.5 166.5,-179.5"/>
<text text-anchor="middle" x="230.5" y="-186.5" font-family="Helvetica,sans-Serif" font-size="10.00">gromacs/utility/stringutil.h</text>
</a>
</g>
</g>
<!-- Node1&#45;&gt;Node7 -->
<g id="edge6" class="edge"><title>Node1&#45;&gt;Node7</title>
<path fill="none" stroke="midnightblue" d="M196.055,-291.481C202.373,-281.647 210.402,-267.987 215.5,-255 221.391,-239.991 225.311,-222.084 227.661,-208.868"/>
<polygon fill="midnightblue" stroke="midnightblue" points="231.172,-209.088 229.333,-198.654 224.264,-207.958 231.172,-209.088"/>
</g>
<!-- Node10 -->
<g id="node10" class="node"><title>Node10</title>
<g id="a_node10"><a xlink:href="testasserts_8h.xhtml" target="_top" xlink:title="Extra assertions for unit tests. ">
<polygon fill="white" stroke="black" points="537,-235.5 537,-254.5 648,-254.5 648,-235.5 537,-235.5"/>
<text text-anchor="middle" x="592.5" y="-242.5" font-family="Helvetica,sans-Serif" font-size="10.00">testutils/testasserts.h</text>
</a>
</g>
</g>
<!-- Node1&#45;&gt;Node10 -->
<g id="edge11" class="edge"><title>Node1&#45;&gt;Node10</title>
<path fill="none" stroke="midnightblue" d="M270.131,-293.244C346.241,-282.09 457.072,-265.847 526.943,-255.608"/>
<polygon fill="midnightblue" stroke="midnightblue" points="527.558,-259.055 536.945,-254.142 526.543,-252.129 527.558,-259.055"/>
</g>
<!-- Node7&#45;&gt;Node4 -->
<g id="edge9" class="edge"><title>Node7&#45;&gt;Node4</title>
<path fill="none" stroke="midnightblue" d="M240.301,-179.324C249.318,-171.341 262.906,-159.313 273.818,-149.653"/>
<polygon fill="midnightblue" stroke="midnightblue" points="276.353,-152.083 281.521,-142.834 271.713,-146.842 276.353,-152.083"/>
</g>
<!-- Node7&#45;&gt;Node6 -->
<g id="edge10" class="edge"><title>Node7&#45;&gt;Node6</title>
<path fill="none" stroke="midnightblue" d="M230.5,-179.083C230.5,-172.006 230.5,-161.861 230.5,-152.986"/>
<polygon fill="midnightblue" stroke="midnightblue" points="234,-152.751 230.5,-142.751 227,-152.751 234,-152.751"/>
</g>
<!-- Node8 -->
<g id="node8" class="node"><title>Node8</title>
<polygon fill="white" stroke="#bfbfbf" points="141,-123.5 141,-142.5 190,-142.5 190,-123.5 141,-123.5"/>
<text text-anchor="middle" x="165.5" y="-130.5" font-family="Helvetica,sans-Serif" font-size="10.00">cstdarg</text>
</g>
<!-- Node7&#45;&gt;Node8 -->
<g id="edge7" class="edge"><title>Node7&#45;&gt;Node8</title>
<path fill="none" stroke="midnightblue" d="M220.057,-179.324C210.354,-171.263 195.685,-159.077 184,-149.369"/>
<polygon fill="midnightblue" stroke="midnightblue" points="186.062,-146.532 176.133,-142.834 181.589,-151.916 186.062,-146.532"/>
</g>
<!-- Node9 -->
<g id="node9" class="node"><title>Node9</title>
<polygon fill="white" stroke="#bfbfbf" points="76.5,-123.5 76.5,-142.5 122.5,-142.5 122.5,-123.5 76.5,-123.5"/>
<text text-anchor="middle" x="99.5" y="-130.5" font-family="Helvetica,sans-Serif" font-size="10.00">cstring</text>
</g>
<!-- Node7&#45;&gt;Node9 -->
<g id="edge8" class="edge"><title>Node7&#45;&gt;Node9</title>
<path fill="none" stroke="midnightblue" d="M209.743,-179.444C188.184,-170.557 154.237,-156.563 129.706,-146.451"/>
<polygon fill="midnightblue" stroke="midnightblue" points="130.739,-143.092 120.16,-142.516 128.072,-149.563 130.739,-143.092"/>
</g>
<!-- Node10&#45;&gt;Node4 -->
<g id="edge12" class="edge"><title>Node10&#45;&gt;Node4</title>
<path fill="none" stroke="midnightblue" d="M565.887,-235.368C538.954,-226.545 496.168,-212.29 459.5,-199 411.005,-181.424 355.262,-159.514 321.74,-146.151"/>
<polygon fill="midnightblue" stroke="midnightblue" points="322.668,-142.752 312.083,-142.292 320.071,-149.253 322.668,-142.752"/>
</g>
<!-- Node11 -->
<g id="node11" class="node"><title>Node11</title>
<polygon fill="white" stroke="#bfbfbf" points="750,-179.5 750,-198.5 821,-198.5 821,-179.5 750,-179.5"/>
<text text-anchor="middle" x="785.5" y="-186.5" font-family="Helvetica,sans-Serif" font-size="10.00">gtest/gtest.h</text>
</g>
<!-- Node10&#45;&gt;Node11 -->
<g id="edge13" class="edge"><title>Node10&#45;&gt;Node11</title>
<path fill="none" stroke="midnightblue" d="M623.081,-235.444C656.115,-226.201 708.888,-211.436 745.266,-201.257"/>
<polygon fill="midnightblue" stroke="midnightblue" points="746.375,-204.582 755.062,-198.516 744.488,-197.84 746.375,-204.582"/>
</g>
<!-- Node12 -->
<g id="node12" class="node"><title>Node12</title>
<g id="a_node12"><a xlink:href="basedefinitions_8h.xhtml" target="_top" xlink:title="Basic types and macros used throughout GROMACS. ">
<polygon fill="white" stroke="black" points="1017,-62 1017,-81 1174,-81 1174,-62 1017,-62"/>
<text text-anchor="middle" x="1095.5" y="-69" font-family="Helvetica,sans-Serif" font-size="10.00">gromacs/utility/basedefinitions.h</text>
</a>
</g>
</g>
<!-- Node10&#45;&gt;Node12 -->
<g id="edge14" class="edge"><title>Node10&#45;&gt;Node12</title>
<path fill="none" stroke="midnightblue" d="M648.011,-241.463C767.038,-234.735 1040.55,-211.951 1096.5,-143 1108.16,-128.635 1105.7,-106.662 1101.73,-91.0688"/>
<polygon fill="midnightblue" stroke="midnightblue" points="1105.09,-90.066 1098.9,-81.4651 1098.37,-92.0468 1105.09,-90.066"/>
</g>
<!-- Node15 -->
<g id="node15" class="node"><title>Node15</title>
<g id="a_node15"><a xlink:href="exceptions_8h.xhtml" target="_top" xlink:title="Declares common exception classes and macros for fatal error handling. ">
<polygon fill="white" stroke="black" points="593,-179.5 593,-198.5 732,-198.5 732,-179.5 593,-179.5"/>
<text text-anchor="middle" x="662.5" y="-186.5" font-family="Helvetica,sans-Serif" font-size="10.00">gromacs/utility/exceptions.h</text>
</a>
</g>
</g>
<!-- Node10&#45;&gt;Node15 -->
<g id="edge17" class="edge"><title>Node10&#45;&gt;Node15</title>
<path fill="none" stroke="midnightblue" d="M603.747,-235.324C614.297,-227.185 630.301,-214.839 642.942,-205.087"/>
<polygon fill="midnightblue" stroke="midnightblue" points="645.269,-207.713 651.049,-198.834 640.993,-202.171 645.269,-207.713"/>
</g>
<!-- Node25 -->
<g id="node25" class="node"><title>Node25</title>
<g id="a_node25"><a xlink:href="real_8h.xhtml" target="_top" xlink:title="Declares real and related constants. ">
<polygon fill="white" stroke="black" points="468,-179.5 468,-198.5 575,-198.5 575,-179.5 468,-179.5"/>
<text text-anchor="middle" x="521.5" y="-186.5" font-family="Helvetica,sans-Serif" font-size="10.00">gromacs/utility/real.h</text>
</a>
</g>
</g>
<!-- Node10&#45;&gt;Node25 -->
<g id="edge33" class="edge"><title>Node10&#45;&gt;Node25</title>
<path fill="none" stroke="midnightblue" d="M581.093,-235.324C570.391,-227.185 554.159,-214.839 541.337,-205.087"/>
<polygon fill="midnightblue" stroke="midnightblue" points="543.193,-202.102 533.115,-198.834 538.956,-207.673 543.193,-202.102"/>
</g>
<!-- Node13 -->
<g id="node13" class="node"><title>Node13</title>
<polygon fill="white" stroke="#bfbfbf" points="1035,-0.5 1035,-19.5 1084,-19.5 1084,-0.5 1035,-0.5"/>
<text text-anchor="middle" x="1059.5" y="-7.5" font-family="Helvetica,sans-Serif" font-size="10.00">stdint.h</text>
</g>
<!-- Node12&#45;&gt;Node13 -->
<g id="edge15" class="edge"><title>Node12&#45;&gt;Node13</title>
<path fill="none" stroke="midnightblue" d="M1090.34,-61.9751C1085.05,-53.2268 1076.66,-39.3691 1069.97,-28.3093"/>
<polygon fill="midnightblue" stroke="midnightblue" points="1072.82,-26.2531 1064.65,-19.5091 1066.83,-29.8768 1072.82,-26.2531"/>
</g>
<!-- Node14 -->
<g id="node14" class="node"><title>Node14</title>
<polygon fill="white" stroke="#bfbfbf" points="1102,-0.5 1102,-19.5 1161,-19.5 1161,-0.5 1102,-0.5"/>
<text text-anchor="middle" x="1131.5" y="-7.5" font-family="Helvetica,sans-Serif" font-size="10.00">inttypes.h</text>
</g>
<!-- Node12&#45;&gt;Node14 -->
<g id="edge16" class="edge"><title>Node12&#45;&gt;Node14</title>
<path fill="none" stroke="midnightblue" d="M1100.66,-61.9751C1105.95,-53.2268 1114.34,-39.3691 1121.03,-28.3093"/>
<polygon fill="midnightblue" stroke="midnightblue" points="1124.17,-29.8768 1126.35,-19.5091 1118.18,-26.2531 1124.17,-29.8768"/>
</g>
<!-- Node15&#45;&gt;Node4 -->
<g id="edge22" class="edge"><title>Node15&#45;&gt;Node4</title>
<path fill="none" stroke="midnightblue" d="M593.281,-179.469C508.329,-168.913 370.497,-151.48 322.109,-142.639"/>
<polygon fill="midnightblue" stroke="midnightblue" points="322.535,-139.155 312.044,-140.636 321.169,-146.021 322.535,-139.155"/>
</g>
<!-- Node15&#45;&gt;Node6 -->
<g id="edge25" class="edge"><title>Node15&#45;&gt;Node6</title>
<path fill="none" stroke="midnightblue" d="M592.76,-179.94C589.971,-179.621 587.209,-179.307 584.5,-179 444.199,-163.087 404.909,-170.87 262.706,-142.934"/>
<polygon fill="midnightblue" stroke="midnightblue" points="263.229,-139.47 252.738,-140.951 261.863,-146.335 263.229,-139.47"/>
</g>
<!-- Node15&#45;&gt;Node12 -->
<g id="edge26" class="edge"><title>Node15&#45;&gt;Node12</title>
<path fill="none" stroke="midnightblue" d="M732.284,-180.025C735.398,-179.677 738.482,-179.334 741.5,-179 815.919,-170.762 1019.59,-191.651 1076.5,-143 1091.23,-130.407 1095.14,-107.709 1095.91,-91.4688"/>
<polygon fill="midnightblue" stroke="midnightblue" points="1099.41,-91.0565 1096.01,-81.021 1092.41,-90.9845 1099.41,-91.0565"/>
</g>
<!-- Node16 -->
<g id="node16" class="node"><title>Node16</title>
<polygon fill="white" stroke="#bfbfbf" points="884,-123.5 884,-142.5 927,-142.5 927,-123.5 884,-123.5"/>
<text text-anchor="middle" x="905.5" y="-130.5" font-family="Helvetica,sans-Serif" font-size="10.00">cstdio</text>
</g>
<!-- Node15&#45;&gt;Node16 -->
<g id="edge18" class="edge"><title>Node15&#45;&gt;Node16</title>
<path fill="none" stroke="midnightblue" d="M708.46,-179.438C749.572,-171.522 811.666,-158.937 873.937,-143.249"/>
<polygon fill="midnightblue" stroke="midnightblue" points="875.103,-146.564 883.93,-140.705 873.375,-139.781 875.103,-146.564"/>
</g>
<!-- Node17 -->
<g id="node17" class="node"><title>Node17</title>
<polygon fill="white" stroke="#bfbfbf" points="945,-123.5 945,-142.5 990,-142.5 990,-123.5 945,-123.5"/>
<text text-anchor="middle" x="967.5" y="-130.5" font-family="Helvetica,sans-Serif" font-size="10.00">cstdlib</text>
</g>
<!-- Node15&#45;&gt;Node17 -->
<g id="edge19" class="edge"><title>Node15&#45;&gt;Node17</title>
<path fill="none" stroke="midnightblue" d="M727.975,-179.496C781.356,-172.05 858.85,-160.079 934.692,-143.205"/>
<polygon fill="midnightblue" stroke="midnightblue" points="935.91,-146.518 944.895,-140.902 934.369,-139.689 935.91,-146.518"/>
</g>
<!-- Node18 -->
<g id="node18" class="node"><title>Node18</title>
<polygon fill="white" stroke="#bfbfbf" points="1008,-123.5 1008,-142.5 1067,-142.5 1067,-123.5 1008,-123.5"/>
<text text-anchor="middle" x="1037.5" y="-130.5" font-family="Helvetica,sans-Serif" font-size="10.00">exception</text>
</g>
<!-- Node15&#45;&gt;Node18 -->
<g id="edge20" class="edge"><title>Node15&#45;&gt;Node18</title>
<path fill="none" stroke="midnightblue" d="M732.143,-179.533C810.845,-169.827 935.187,-154.04 997.515,-143.189"/>
<polygon fill="midnightblue" stroke="midnightblue" points="998.467,-146.574 1007.69,-141.357 997.227,-139.685 998.467,-146.574"/>
</g>
<!-- Node19 -->
<g id="node19" class="node"><title>Node19</title>
<polygon fill="white" stroke="#bfbfbf" points="523.5,-62 523.5,-81 575.5,-81 575.5,-62 523.5,-62"/>
<text text-anchor="middle" x="549.5" y="-69" font-family="Helvetica,sans-Serif" font-size="10.00">memory</text>
</g>
<!-- Node15&#45;&gt;Node19 -->
<g id="edge21" class="edge"><title>Node15&#45;&gt;Node19</title>
<path fill="none" stroke="midnightblue" d="M662.069,-179.456C660.977,-166.033 657.121,-139.806 643.5,-123 628.464,-104.448 604.736,-91.7747 584.883,-83.764"/>
<polygon fill="midnightblue" stroke="midnightblue" points="586.094,-80.4801 575.503,-80.2006 583.608,-87.0238 586.094,-80.4801"/>
</g>
<!-- Node20 -->
<g id="node20" class="node"><title>Node20</title>
<polygon fill="white" stroke="#bfbfbf" points="494.5,-123.5 494.5,-142.5 556.5,-142.5 556.5,-123.5 494.5,-123.5"/>
<text text-anchor="middle" x="525.5" y="-130.5" font-family="Helvetica,sans-Serif" font-size="10.00">type_traits</text>
</g>
<!-- Node15&#45;&gt;Node20 -->
<g id="edge23" class="edge"><title>Node15&#45;&gt;Node20</title>
<path fill="none" stroke="midnightblue" d="M640.792,-179.444C618.145,-170.517 582.428,-156.439 556.748,-146.317"/>
<polygon fill="midnightblue" stroke="midnightblue" points="557.693,-142.927 547.106,-142.516 555.126,-149.44 557.693,-142.927"/>
</g>
<!-- Node21 -->
<g id="node21" class="node"><title>Node21</title>
<polygon fill="white" stroke="#bfbfbf" points="575,-123.5 575,-142.5 634,-142.5 634,-123.5 575,-123.5"/>
<text text-anchor="middle" x="604.5" y="-130.5" font-family="Helvetica,sans-Serif" font-size="10.00">typeindex</text>
</g>
<!-- Node15&#45;&gt;Node21 -->
<g id="edge24" class="edge"><title>Node15&#45;&gt;Node21</title>
<path fill="none" stroke="midnightblue" d="M653.181,-179.324C644.607,-171.341 631.688,-159.313 621.312,-149.653"/>
<polygon fill="midnightblue" stroke="midnightblue" points="623.692,-147.086 613.988,-142.834 618.922,-152.21 623.692,-147.086"/>
</g>
<!-- Node22 -->
<g id="node22" class="node"><title>Node22</title>
<g id="a_node22"><a xlink:href="classhelpers_8h.xhtml" target="_top" xlink:title="Declares common utility classes and macros. ">
<polygon fill="white" stroke="black" points="330.5,-123.5 330.5,-142.5 476.5,-142.5 476.5,-123.5 330.5,-123.5"/>
<text text-anchor="middle" x="403.5" y="-130.5" font-family="Helvetica,sans-Serif" font-size="10.00">gromacs/utility/classhelpers.h</text>
</a>
</g>
</g>
<!-- Node15&#45;&gt;Node22 -->
<g id="edge27" class="edge"><title>Node15&#45;&gt;Node22</title>
<path fill="none" stroke="midnightblue" d="M621.461,-179.444C576.184,-170.004 503.273,-154.802 454.394,-144.611"/>
<polygon fill="midnightblue" stroke="midnightblue" points="454.851,-141.131 444.347,-142.516 453.422,-147.984 454.851,-141.131"/>
</g>
<!-- Node23 -->
<g id="node23" class="node"><title>Node23</title>
<g id="a_node23"><a xlink:href="current__function_8h.xhtml" target="_top" xlink:title="Declares GMX_CURRENT_FUNCTION for getting the current function name. ">
<polygon fill="white" stroke="black" points="692,-56.5 692,-86.5 805,-86.5 805,-56.5 692,-56.5"/>
<text text-anchor="start" x="700" y="-74.5" font-family="Helvetica,sans-Serif" font-size="10.00">gromacs/utility/current</text>
<text text-anchor="middle" x="748.5" y="-63.5" font-family="Helvetica,sans-Serif" font-size="10.00">_function.h</text>
</a>
</g>
</g>
<!-- Node15&#45;&gt;Node23 -->
<g id="edge29" class="edge"><title>Node15&#45;&gt;Node23</title>
<path fill="none" stroke="midnightblue" d="M668.964,-179.319C682.23,-161.502 712.891,-120.324 732.033,-94.615"/>
<polygon fill="midnightblue" stroke="midnightblue" points="734.877,-96.6564 738.042,-86.5453 729.263,-92.4758 734.877,-96.6564"/>
</g>
<!-- Node24 -->
<g id="node24" class="node"><title>Node24</title>
<g id="a_node24"><a xlink:href="gmxassert_8h.xhtml" target="_top" xlink:title="Defines assert macros customized for Gromacs. ">
<polygon fill="white" stroke="black" points="729,-123.5 729,-142.5 866,-142.5 866,-123.5 729,-123.5"/>
<text text-anchor="middle" x="797.5" y="-130.5" font-family="Helvetica,sans-Serif" font-size="10.00">gromacs/utility/gmxassert.h</text>
</a>
</g>
</g>
<!-- Node15&#45;&gt;Node24 -->
<g id="edge30" class="edge"><title>Node15&#45;&gt;Node24</title>
<path fill="none" stroke="midnightblue" d="M683.891,-179.444C706.207,-170.517 741.403,-156.439 766.708,-146.317"/>
<polygon fill="midnightblue" stroke="midnightblue" points="768.224,-149.48 776.209,-142.516 765.624,-142.981 768.224,-149.48"/>
</g>
<!-- Node22&#45;&gt;Node19 -->
<g id="edge28" class="edge"><title>Node22&#45;&gt;Node19</title>
<path fill="none" stroke="midnightblue" d="M424.418,-123.475C449.246,-113.357 490.843,-96.4046 519.194,-84.8507"/>
<polygon fill="midnightblue" stroke="midnightblue" points="520.681,-88.0243 528.621,-81.0091 518.039,-81.5419 520.681,-88.0243"/>
</g>
<!-- Node24&#45;&gt;Node12 -->
<g id="edge31" class="edge"><title>Node24&#45;&gt;Node12</title>
<path fill="none" stroke="midnightblue" d="M840.196,-123.475C893.637,-112.805 985.147,-94.5335 1042.87,-83.0089"/>
<polygon fill="midnightblue" stroke="midnightblue" points="1043.76,-86.3994 1052.88,-81.0091 1042.39,-79.5349 1043.76,-86.3994"/>
</g>
<!-- Node24&#45;&gt;Node23 -->
<g id="edge32" class="edge"><title>Node24&#45;&gt;Node23</title>
<path fill="none" stroke="midnightblue" d="M790.479,-123.475C784.215,-115.869 774.77,-104.399 766.424,-94.2649"/>
<polygon fill="midnightblue" stroke="midnightblue" points="769.107,-92.0173 760.048,-86.523 763.704,-96.4673 769.107,-92.0173"/>
</g>
</g>
</svg>
