<?xml version="1.0" encoding="UTF-8" standalone="no"?>
<!DOCTYPE svg PUBLIC "-//W3C//DTD SVG 1.1//EN"
 "http://www.w3.org/Graphics/SVG/1.1/DTD/svg11.dtd">
<!-- Generated by graphviz version 2.38.0 (20140413.2041)
 -->
<!-- Title: src/testutils/mpitest.cpp Pages: 1 -->
<svg width="1433pt" height="319pt"
 viewBox="0.00 0.00 1432.50 319.00" xmlns="http://www.w3.org/2000/svg" xmlns:xlink="http://www.w3.org/1999/xlink">
<g id="graph0" class="graph" transform="scale(1 1) rotate(0) translate(4 315)">
<title>src/testutils/mpitest.cpp</title>
<polygon fill="white" stroke="none" points="-4,4 -4,-315 1428.5,-315 1428.5,4 -4,4"/>
<!-- Node1 -->
<g id="node1" class="node"><title>Node1</title>
<polygon fill="#bfbfbf" stroke="black" points="551,-291.5 551,-310.5 673,-310.5 673,-291.5 551,-291.5"/>
<text text-anchor="middle" x="612" y="-298.5" font-family="Helvetica,sans-Serif" font-size="10.00">src/testutils/mpitest.cpp</text>
</g>
<!-- Node2 -->
<g id="node2" class="node"><title>Node2</title>
<g id="a_node2"><a xlink:href="gmxpre_8h.xhtml" target="_top" xlink:title="Prerequisite header file for GROMACS build. ">
<polygon fill="white" stroke="black" points="148.5,-235.5 148.5,-254.5 205.5,-254.5 205.5,-235.5 148.5,-235.5"/>
<text text-anchor="middle" x="177" y="-242.5" font-family="Helvetica,sans-Serif" font-size="10.00">gmxpre.h</text>
</a>
</g>
</g>
<!-- Node1&#45;&gt;Node2 -->
<g id="edge1" class="edge"><title>Node1&#45;&gt;Node2</title>
<path fill="none" stroke="midnightblue" d="M550.988,-294.75C473.684,-287.696 336.483,-273.835 220,-255 218.541,-254.764 217.057,-254.512 215.559,-254.249"/>
<polygon fill="midnightblue" stroke="midnightblue" points="216.088,-250.787 205.613,-252.372 214.79,-257.665 216.088,-250.787"/>
</g>
<!-- Node3 -->
<g id="node3" class="node"><title>Node3</title>
<g id="a_node3"><a xlink:href="mpitest_8h.xhtml" target="_top" xlink:title="Helper functions for MPI tests to make thread&#45;MPI look like real MPI. ">
<polygon fill="white" stroke="black" points="262.5,-235.5 262.5,-254.5 319.5,-254.5 319.5,-235.5 262.5,-235.5"/>
<text text-anchor="middle" x="291" y="-242.5" font-family="Helvetica,sans-Serif" font-size="10.00">mpitest.h</text>
</a>
</g>
</g>
<!-- Node1&#45;&gt;Node3 -->
<g id="edge2" class="edge"><title>Node1&#45;&gt;Node3</title>
<path fill="none" stroke="midnightblue" d="M561.137,-291.444C496.896,-280.637 387.77,-262.279 329.83,-252.532"/>
<polygon fill="midnightblue" stroke="midnightblue" points="330.072,-249.024 319.63,-250.816 328.911,-255.927 330.072,-249.024"/>
</g>
<!-- Node4 -->
<g id="node4" class="node"><title>Node4</title>
<polygon fill="white" stroke="#bfbfbf" points="92.5,-179.5 92.5,-198.5 143.5,-198.5 143.5,-179.5 92.5,-179.5"/>
<text text-anchor="middle" x="118" y="-186.5" font-family="Helvetica,sans-Serif" font-size="10.00">config.h</text>
</g>
<!-- Node1&#45;&gt;Node4 -->
<g id="edge7" class="edge"><title>Node1&#45;&gt;Node4</title>
<path fill="none" stroke="midnightblue" d="M550.941,-298.785C478.4,-295.884 354.437,-286.298 253,-255 234.386,-249.257 231.488,-243.58 214,-235 191.24,-223.834 165.182,-211.657 145.964,-202.79"/>
<polygon fill="midnightblue" stroke="midnightblue" points="147.405,-199.6 136.857,-198.599 144.478,-205.959 147.405,-199.6"/>
</g>
<!-- Node7 -->
<g id="node7" class="node"><title>Node7</title>
<g id="a_node7"><a xlink:href="basenetwork_8h.xhtml" target="_top" xlink:title="Utility functions for basic MPI and network functionality. ">
<polygon fill="white" stroke="black" points="277.5,-179.5 277.5,-198.5 424.5,-198.5 424.5,-179.5 277.5,-179.5"/>
<text text-anchor="middle" x="351" y="-186.5" font-family="Helvetica,sans-Serif" font-size="10.00">gromacs/utility/basenetwork.h</text>
</a>
</g>
</g>
<!-- Node1&#45;&gt;Node7 -->
<g id="edge38" class="edge"><title>Node1&#45;&gt;Node7</title>
<path fill="none" stroke="midnightblue" d="M591.52,-291.368C545.589,-272.01 434.199,-225.065 380.677,-202.507"/>
<polygon fill="midnightblue" stroke="midnightblue" points="381.959,-199.25 371.385,-198.591 379.241,-205.7 381.959,-199.25"/>
</g>
<!-- Node8 -->
<g id="node8" class="node"><title>Node8</title>
<polygon fill="white" stroke="#bfbfbf" points="948.5,-235.5 948.5,-254.5 1019.5,-254.5 1019.5,-235.5 948.5,-235.5"/>
<text text-anchor="middle" x="984" y="-242.5" font-family="Helvetica,sans-Serif" font-size="10.00">gtest/gtest.h</text>
</g>
<!-- Node1&#45;&gt;Node8 -->
<g id="edge8" class="edge"><title>Node1&#45;&gt;Node8</title>
<path fill="none" stroke="midnightblue" d="M673.239,-292.813C737.072,-285.048 840.231,-271.733 938.401,-255.186"/>
<polygon fill="midnightblue" stroke="midnightblue" points="939.224,-258.596 948.496,-253.47 938.051,-251.695 939.224,-258.596"/>
</g>
<!-- Node9 -->
<g id="node9" class="node"><title>Node9</title>
<polygon fill="white" stroke="#bfbfbf" points="1037.5,-235.5 1037.5,-254.5 1132.5,-254.5 1132.5,-235.5 1037.5,-235.5"/>
<text text-anchor="middle" x="1085" y="-242.5" font-family="Helvetica,sans-Serif" font-size="10.00">thread_mpi/tmpi.h</text>
</g>
<!-- Node1&#45;&gt;Node9 -->
<g id="edge9" class="edge"><title>Node1&#45;&gt;Node9</title>
<path fill="none" stroke="midnightblue" d="M673.241,-294.394C752.572,-286.908 895.4,-272.674 1027.1,-255.2"/>
<polygon fill="midnightblue" stroke="midnightblue" points="1027.92,-258.621 1037.37,-253.828 1026.99,-251.683 1027.92,-258.621"/>
</g>
<!-- Node10 -->
<g id="node10" class="node"><title>Node10</title>
<g id="a_node10"><a xlink:href="basicoptions_8h.xhtml" target="_top" xlink:title="Declares option objects for basic option types. ">
<polygon fill="white" stroke="black" points="775.5,-235.5 775.5,-254.5 930.5,-254.5 930.5,-235.5 775.5,-235.5"/>
<text text-anchor="middle" x="853" y="-242.5" font-family="Helvetica,sans-Serif" font-size="10.00">gromacs/options/basicoptions.h</text>
</a>
</g>
</g>
<!-- Node1&#45;&gt;Node10 -->
<g id="edge10" class="edge"><title>Node1&#45;&gt;Node10</title>
<path fill="none" stroke="midnightblue" d="M650.187,-291.444C692.141,-282.043 759.594,-266.929 805.071,-256.739"/>
<polygon fill="midnightblue" stroke="midnightblue" points="805.999,-260.118 814.991,-254.516 804.468,-253.288 805.999,-260.118"/>
</g>
<!-- Node30 -->
<g id="node30" class="node"><title>Node30</title>
<g id="a_node30"><a xlink:href="ioptionscontainer_8h.xhtml" target="_top" xlink:title="Declares gmx::IOptionsContainer. ">
<polygon fill="white" stroke="black" points="584.5,-235.5 584.5,-254.5 757.5,-254.5 757.5,-235.5 584.5,-235.5"/>
<text text-anchor="middle" x="671" y="-242.5" font-family="Helvetica,sans-Serif" font-size="10.00">gromacs/options/ioptionscontainer.h</text>
</a>
</g>
</g>
<!-- Node1&#45;&gt;Node30 -->
<g id="edge35" class="edge"><title>Node1&#45;&gt;Node30</title>
<path fill="none" stroke="midnightblue" d="M621.479,-291.324C630.201,-283.341 643.343,-271.313 653.898,-261.653"/>
<polygon fill="midnightblue" stroke="midnightblue" points="656.334,-264.167 661.348,-254.834 651.608,-259.004 656.334,-264.167"/>
</g>
<!-- Node31 -->
<g id="node31" class="node"><title>Node31</title>
<g id="a_node31"><a xlink:href="exceptions_8h.xhtml" target="_top" xlink:title="Declares common exception classes and macros for fatal error handling. ">
<polygon fill="white" stroke="black" points="442.5,-179.5 442.5,-198.5 581.5,-198.5 581.5,-179.5 442.5,-179.5"/>
<text text-anchor="middle" x="512" y="-186.5" font-family="Helvetica,sans-Serif" font-size="10.00">gromacs/utility/exceptions.h</text>
</a>
</g>
</g>
<!-- Node1&#45;&gt;Node31 -->
<g id="edge39" class="edge"><title>Node1&#45;&gt;Node31</title>
<path fill="none" stroke="midnightblue" d="M604.153,-291.368C587.431,-272.974 548.065,-229.671 526.593,-206.052"/>
<polygon fill="midnightblue" stroke="midnightblue" points="529.127,-203.636 519.81,-198.591 523.947,-208.345 529.127,-203.636"/>
</g>
<!-- Node36 -->
<g id="node36" class="node"><title>Node36</title>
<g id="a_node36"><a xlink:href="testoptions_8h.xhtml" target="_top" xlink:title="Functions for accessing test command&#45;line options. ">
<polygon fill="white" stroke="black" points="1151,-235.5 1151,-254.5 1261,-254.5 1261,-235.5 1151,-235.5"/>
<text text-anchor="middle" x="1206" y="-242.5" font-family="Helvetica,sans-Serif" font-size="10.00">testutils/testoptions.h</text>
</a>
</g>
</g>
<!-- Node1&#45;&gt;Node36 -->
<g id="edge52" class="edge"><title>Node1&#45;&gt;Node36</title>
<path fill="none" stroke="midnightblue" d="M673.316,-295.894C770.305,-289.157 965.287,-274.629 1140.93,-255.064"/>
<polygon fill="midnightblue" stroke="midnightblue" points="1141.32,-258.542 1150.87,-253.949 1140.54,-251.586 1141.32,-258.542"/>
</g>
<!-- Node3&#45;&gt;Node4 -->
<g id="edge3" class="edge"><title>Node3&#45;&gt;Node4</title>
<path fill="none" stroke="midnightblue" d="M263.588,-235.444C233.713,-226.118 185.825,-211.171 153.193,-200.985"/>
<polygon fill="midnightblue" stroke="midnightblue" points="154.181,-197.627 143.592,-197.988 152.095,-204.309 154.181,-197.627"/>
</g>
<!-- Node5 -->
<g id="node5" class="node"><title>Node5</title>
<polygon fill="white" stroke="#bfbfbf" points="200.5,-179.5 200.5,-198.5 259.5,-198.5 259.5,-179.5 200.5,-179.5"/>
<text text-anchor="middle" x="230" y="-186.5" font-family="Helvetica,sans-Serif" font-size="10.00">functional</text>
</g>
<!-- Node3&#45;&gt;Node5 -->
<g id="edge4" class="edge"><title>Node3&#45;&gt;Node5</title>
<path fill="none" stroke="midnightblue" d="M281.199,-235.324C272.182,-227.341 258.594,-215.313 247.682,-205.653"/>
<polygon fill="midnightblue" stroke="midnightblue" points="249.787,-202.842 239.979,-198.834 245.147,-208.083 249.787,-202.842"/>
</g>
<!-- Node6 -->
<g id="node6" class="node"><title>Node6</title>
<polygon fill="white" stroke="#bfbfbf" points="0,-123.5 0,-142.5 62,-142.5 62,-123.5 0,-123.5"/>
<text text-anchor="middle" x="31" y="-130.5" font-family="Helvetica,sans-Serif" font-size="10.00">type_traits</text>
</g>
<!-- Node3&#45;&gt;Node6 -->
<g id="edge5" class="edge"><title>Node3&#45;&gt;Node6</title>
<path fill="none" stroke="midnightblue" d="M271.319,-235.498C251.053,-226.66 218.622,-212.287 191,-199 173.446,-190.556 169.827,-186.853 152,-179 123.698,-166.532 90.751,-154.431 66.3897,-145.923"/>
<polygon fill="midnightblue" stroke="midnightblue" points="67.4386,-142.583 56.8438,-142.62 65.1494,-149.198 67.4386,-142.583"/>
</g>
<!-- Node3&#45;&gt;Node7 -->
<g id="edge6" class="edge"><title>Node3&#45;&gt;Node7</title>
<path fill="none" stroke="midnightblue" d="M300.64,-235.324C309.51,-227.341 322.875,-215.313 333.608,-205.653"/>
<polygon fill="midnightblue" stroke="midnightblue" points="336.093,-208.125 341.185,-198.834 331.41,-202.922 336.093,-208.125"/>
</g>
<!-- Node11 -->
<g id="node11" class="node"><title>Node11</title>
<polygon fill="white" stroke="#bfbfbf" points="637.5,-123.5 637.5,-142.5 678.5,-142.5 678.5,-123.5 637.5,-123.5"/>
<text text-anchor="middle" x="658" y="-130.5" font-family="Helvetica,sans-Serif" font-size="10.00">string</text>
</g>
<!-- Node10&#45;&gt;Node11 -->
<g id="edge11" class="edge"><title>Node10&#45;&gt;Node11</title>
<path fill="none" stroke="midnightblue" d="M844.462,-235.383C830.679,-221.861 802.209,-195.5 774,-179 759.072,-170.268 717.437,-154.855 688.344,-144.534"/>
<polygon fill="midnightblue" stroke="midnightblue" points="689.236,-141.137 678.641,-141.115 686.91,-147.739 689.236,-141.137"/>
</g>
<!-- Node12 -->
<g id="node12" class="node"><title>Node12</title>
<polygon fill="white" stroke="#bfbfbf" points="862,-123.5 862,-142.5 906,-142.5 906,-123.5 862,-123.5"/>
<text text-anchor="middle" x="884" y="-130.5" font-family="Helvetica,sans-Serif" font-size="10.00">vector</text>
</g>
<!-- Node10&#45;&gt;Node12 -->
<g id="edge12" class="edge"><title>Node10&#45;&gt;Node12</title>
<path fill="none" stroke="midnightblue" d="M855.433,-235.368C860.458,-217.537 872.08,-176.295 878.851,-152.272"/>
<polygon fill="midnightblue" stroke="midnightblue" points="882.235,-153.166 881.579,-142.591 875.497,-151.267 882.235,-153.166"/>
</g>
<!-- Node13 -->
<g id="node13" class="node"><title>Node13</title>
<g id="a_node13"><a xlink:href="abstractoption_8h.xhtml" target="_top" xlink:title="Defines gmx::AbstractOption, gmx::OptionTemplate and gmx::OptionInfo. ">
<polygon fill="white" stroke="black" points="603.5,-179.5 603.5,-198.5 764.5,-198.5 764.5,-179.5 603.5,-179.5"/>
<text text-anchor="middle" x="684" y="-186.5" font-family="Helvetica,sans-Serif" font-size="10.00">gromacs/options/abstractoption.h</text>
</a>
</g>
</g>
<!-- Node10&#45;&gt;Node13 -->
<g id="edge13" class="edge"><title>Node10&#45;&gt;Node13</title>
<path fill="none" stroke="midnightblue" d="M826.221,-235.444C797.667,-226.32 752.267,-211.813 720.463,-201.651"/>
<polygon fill="midnightblue" stroke="midnightblue" points="721.244,-198.226 710.653,-198.516 719.114,-204.894 721.244,-198.226"/>
</g>
<!-- Node18 -->
<g id="node18" class="node"><title>Node18</title>
<g id="a_node18"><a xlink:href="ivaluestore_8h.xhtml" target="_top" xlink:title="Declares gmx::IOptionValueStore. ">
<polygon fill="white" stroke="black" points="981.5,-179.5 981.5,-198.5 1128.5,-198.5 1128.5,-179.5 981.5,-179.5"/>
<text text-anchor="middle" x="1055" y="-186.5" font-family="Helvetica,sans-Serif" font-size="10.00">gromacs/options/ivaluestore.h</text>
</a>
</g>
</g>
<!-- Node10&#45;&gt;Node18 -->
<g id="edge20" class="edge"><title>Node10&#45;&gt;Node18</title>
<path fill="none" stroke="midnightblue" d="M885.008,-235.444C919.729,-226.162 975.288,-211.309 1013.38,-201.127"/>
<polygon fill="midnightblue" stroke="midnightblue" points="1014.39,-204.48 1023.14,-198.516 1012.58,-197.718 1014.39,-204.48"/>
</g>
<!-- Node19 -->
<g id="node19" class="node"><title>Node19</title>
<g id="a_node19"><a xlink:href="arrayref_8h.xhtml" target="_top" xlink:title="Declares gmx::ArrayRef. ">
<polygon fill="white" stroke="black" points="1146.5,-179.5 1146.5,-198.5 1271.5,-198.5 1271.5,-179.5 1146.5,-179.5"/>
<text text-anchor="middle" x="1209" y="-186.5" font-family="Helvetica,sans-Serif" font-size="10.00">gromacs/utility/arrayref.h</text>
</a>
</g>
</g>
<!-- Node10&#45;&gt;Node19 -->
<g id="edge21" class="edge"><title>Node10&#45;&gt;Node19</title>
<path fill="none" stroke="midnightblue" d="M909.409,-235.444C972.815,-225.826 1075.65,-210.228 1142.8,-200.041"/>
<polygon fill="midnightblue" stroke="midnightblue" points="1143.49,-203.477 1152.85,-198.516 1142.44,-196.556 1143.49,-203.477"/>
</g>
<!-- Node25 -->
<g id="node25" class="node"><title>Node25</title>
<g id="a_node25"><a xlink:href="gmxassert_8h.xhtml" target="_top" xlink:title="Defines assert macros customized for Gromacs. ">
<polygon fill="white" stroke="black" points="924.5,-123.5 924.5,-142.5 1061.5,-142.5 1061.5,-123.5 924.5,-123.5"/>
<text text-anchor="middle" x="993" y="-130.5" font-family="Helvetica,sans-Serif" font-size="10.00">gromacs/utility/gmxassert.h</text>
</a>
</g>
</g>
<!-- Node10&#45;&gt;Node25 -->
<g id="edge34" class="edge"><title>Node10&#45;&gt;Node25</title>
<path fill="none" stroke="midnightblue" d="M863.986,-235.368C887.805,-216.653 944.444,-172.151 974.122,-148.832"/>
<polygon fill="midnightblue" stroke="midnightblue" points="976.365,-151.522 982.065,-142.591 972.04,-146.018 976.365,-151.522"/>
</g>
<!-- Node26 -->
<g id="node26" class="node"><title>Node26</title>
<g id="a_node26"><a xlink:href="basedefinitions_8h.xhtml" target="_top" xlink:title="Basic types and macros used throughout GROMACS. ">
<polygon fill="white" stroke="black" points="944.5,-62 944.5,-81 1101.5,-81 1101.5,-62 944.5,-62"/>
<text text-anchor="middle" x="1023" y="-69" font-family="Helvetica,sans-Serif" font-size="10.00">gromacs/utility/basedefinitions.h</text>
</a>
</g>
</g>
<!-- Node10&#45;&gt;Node26 -->
<g id="edge33" class="edge"><title>Node10&#45;&gt;Node26</title>
<path fill="none" stroke="midnightblue" d="M869.143,-235.446C886.084,-226.447 913.472,-211.836 937,-199 953.067,-190.234 956.36,-186.623 973,-179 1015.19,-159.675 1044.44,-181.049 1071,-143 1084.45,-123.731 1062.78,-101.26 1044.36,-86.9618"/>
<polygon fill="midnightblue" stroke="midnightblue" points="1046.4,-84.1135 1036.27,-81.0082 1042.25,-89.7526 1046.4,-84.1135"/>
</g>
<!-- Node13&#45;&gt;Node11 -->
<g id="edge14" class="edge"><title>Node13&#45;&gt;Node11</title>
<path fill="none" stroke="midnightblue" d="M679.707,-179.083C676.148,-171.691 670.978,-160.953 666.576,-151.811"/>
<polygon fill="midnightblue" stroke="midnightblue" points="669.705,-150.243 662.213,-142.751 663.398,-153.279 669.705,-150.243"/>
</g>
<!-- Node13&#45;&gt;Node12 -->
<g id="edge15" class="edge"><title>Node13&#45;&gt;Node12</title>
<path fill="none" stroke="midnightblue" d="M717.09,-179.422C749.205,-171.046 799.566,-157.775 851.879,-143.27"/>
<polygon fill="midnightblue" stroke="midnightblue" points="852.969,-146.6 861.666,-140.549 851.094,-139.856 852.969,-146.6"/>
</g>
<!-- Node14 -->
<g id="node14" class="node"><title>Node14</title>
<g id="a_node14"><a xlink:href="optionflags_8h.xhtml" target="_top" xlink:title="Defines flags used in option implementation. ">
<polygon fill="white" stroke="black" points="696.5,-123.5 696.5,-142.5 843.5,-142.5 843.5,-123.5 696.5,-123.5"/>
<text text-anchor="middle" x="770" y="-130.5" font-family="Helvetica,sans-Serif" font-size="10.00">gromacs/options/optionflags.h</text>
</a>
</g>
</g>
<!-- Node13&#45;&gt;Node14 -->
<g id="edge16" class="edge"><title>Node13&#45;&gt;Node14</title>
<path fill="none" stroke="midnightblue" d="M697.817,-179.324C711.233,-170.9 731.824,-157.971 747.586,-148.074"/>
<polygon fill="midnightblue" stroke="midnightblue" points="749.609,-150.936 756.217,-142.655 745.887,-145.008 749.609,-150.936"/>
</g>
<!-- Node16 -->
<g id="node16" class="node"><title>Node16</title>
<g id="a_node16"><a xlink:href="classhelpers_8h.xhtml" target="_top" xlink:title="Declares common utility classes and macros. ">
<polygon fill="white" stroke="black" points="435,-123.5 435,-142.5 581,-142.5 581,-123.5 435,-123.5"/>
<text text-anchor="middle" x="508" y="-130.5" font-family="Helvetica,sans-Serif" font-size="10.00">gromacs/utility/classhelpers.h</text>
</a>
</g>
</g>
<!-- Node13&#45;&gt;Node16 -->
<g id="edge18" class="edge"><title>Node13&#45;&gt;Node16</title>
<path fill="none" stroke="midnightblue" d="M656.112,-179.444C626.246,-170.28 578.685,-155.688 545.544,-145.519"/>
<polygon fill="midnightblue" stroke="midnightblue" points="546.344,-142.104 535.757,-142.516 544.291,-148.796 546.344,-142.104"/>
</g>
<!-- Node15 -->
<g id="node15" class="node"><title>Node15</title>
<g id="a_node15"><a xlink:href="flags_8h.xhtml" target="_top" xlink:title="Declares gmx::FlagsTemplate. ">
<polygon fill="white" stroke="black" points="682.5,-62 682.5,-81 795.5,-81 795.5,-62 682.5,-62"/>
<text text-anchor="middle" x="739" y="-69" font-family="Helvetica,sans-Serif" font-size="10.00">gromacs/utility/flags.h</text>
</a>
</g>
</g>
<!-- Node14&#45;&gt;Node15 -->
<g id="edge17" class="edge"><title>Node14&#45;&gt;Node15</title>
<path fill="none" stroke="midnightblue" d="M765.558,-123.475C761.047,-114.815 753.926,-101.149 748.193,-90.1453"/>
<polygon fill="midnightblue" stroke="midnightblue" points="751.158,-88.2604 743.433,-81.0091 744.95,-91.4948 751.158,-88.2604"/>
</g>
<!-- Node17 -->
<g id="node17" class="node"><title>Node17</title>
<polygon fill="white" stroke="#bfbfbf" points="273,-62 273,-81 325,-81 325,-62 273,-62"/>
<text text-anchor="middle" x="299" y="-69" font-family="Helvetica,sans-Serif" font-size="10.00">memory</text>
</g>
<!-- Node16&#45;&gt;Node17 -->
<g id="edge19" class="edge"><title>Node16&#45;&gt;Node17</title>
<path fill="none" stroke="midnightblue" d="M478.055,-123.475C440.284,-112.722 375.397,-94.2494 334.975,-82.7417"/>
<polygon fill="midnightblue" stroke="midnightblue" points="335.833,-79.3469 325.257,-79.975 333.916,-86.0794 335.833,-79.3469"/>
</g>
<!-- Node19&#45;&gt;Node12 -->
<g id="edge27" class="edge"><title>Node19&#45;&gt;Node12</title>
<path fill="none" stroke="midnightblue" d="M1147.77,-179.492C1079.54,-169.862 972.482,-154.277 916.192,-142.747"/>
<polygon fill="midnightblue" stroke="midnightblue" points="916.802,-139.299 906.293,-140.644 915.347,-146.146 916.802,-139.299"/>
</g>
<!-- Node20 -->
<g id="node20" class="node"><title>Node20</title>
<polygon fill="white" stroke="#bfbfbf" points="1176.5,-123.5 1176.5,-142.5 1225.5,-142.5 1225.5,-123.5 1176.5,-123.5"/>
<text text-anchor="middle" x="1201" y="-130.5" font-family="Helvetica,sans-Serif" font-size="10.00">cstddef</text>
</g>
<!-- Node19&#45;&gt;Node20 -->
<g id="edge22" class="edge"><title>Node19&#45;&gt;Node20</title>
<path fill="none" stroke="midnightblue" d="M1207.68,-179.083C1206.62,-171.927 1205.09,-161.635 1203.77,-152.691"/>
<polygon fill="midnightblue" stroke="midnightblue" points="1207.22,-152.13 1202.3,-142.751 1200.3,-153.156 1207.22,-152.13"/>
</g>
<!-- Node21 -->
<g id="node21" class="node"><title>Node21</title>
<polygon fill="white" stroke="#bfbfbf" points="1244,-123.5 1244,-142.5 1282,-142.5 1282,-123.5 1244,-123.5"/>
<text text-anchor="middle" x="1263" y="-130.5" font-family="Helvetica,sans-Serif" font-size="10.00">array</text>
</g>
<!-- Node19&#45;&gt;Node21 -->
<g id="edge23" class="edge"><title>Node19&#45;&gt;Node21</title>
<path fill="none" stroke="midnightblue" d="M1217.92,-179.083C1225.78,-171.22 1237.43,-159.569 1246.92,-150.081"/>
<polygon fill="midnightblue" stroke="midnightblue" points="1249.65,-152.297 1254.25,-142.751 1244.7,-147.347 1249.65,-152.297"/>
</g>
<!-- Node22 -->
<g id="node22" class="node"><title>Node22</title>
<polygon fill="white" stroke="#bfbfbf" points="1300.5,-123.5 1300.5,-142.5 1347.5,-142.5 1347.5,-123.5 1300.5,-123.5"/>
<text text-anchor="middle" x="1324" y="-130.5" font-family="Helvetica,sans-Serif" font-size="10.00">iterator</text>
</g>
<!-- Node19&#45;&gt;Node22 -->
<g id="edge24" class="edge"><title>Node19&#45;&gt;Node22</title>
<path fill="none" stroke="midnightblue" d="M1227.22,-179.444C1245.9,-170.675 1275.16,-156.935 1296.62,-146.858"/>
<polygon fill="midnightblue" stroke="midnightblue" points="1298.3,-149.935 1305.86,-142.516 1295.32,-143.599 1298.3,-149.935"/>
</g>
<!-- Node23 -->
<g id="node23" class="node"><title>Node23</title>
<polygon fill="white" stroke="#bfbfbf" points="1365.5,-123.5 1365.5,-142.5 1424.5,-142.5 1424.5,-123.5 1365.5,-123.5"/>
<text text-anchor="middle" x="1395" y="-130.5" font-family="Helvetica,sans-Serif" font-size="10.00">stdexcept</text>
</g>
<!-- Node19&#45;&gt;Node23 -->
<g id="edge25" class="edge"><title>Node19&#45;&gt;Node23</title>
<path fill="none" stroke="midnightblue" d="M1238.47,-179.444C1270.17,-170.241 1320.73,-155.562 1355.77,-145.388"/>
<polygon fill="midnightblue" stroke="midnightblue" points="1357.04,-148.666 1365.67,-142.516 1355.09,-141.943 1357.04,-148.666"/>
</g>
<!-- Node24 -->
<g id="node24" class="node"><title>Node24</title>
<polygon fill="white" stroke="#bfbfbf" points="1118,-123.5 1118,-142.5 1158,-142.5 1158,-123.5 1118,-123.5"/>
<text text-anchor="middle" x="1138" y="-130.5" font-family="Helvetica,sans-Serif" font-size="10.00">utility</text>
</g>
<!-- Node19&#45;&gt;Node24 -->
<g id="edge26" class="edge"><title>Node19&#45;&gt;Node24</title>
<path fill="none" stroke="midnightblue" d="M1197.59,-179.324C1186.89,-171.185 1170.66,-158.839 1157.84,-149.087"/>
<polygon fill="midnightblue" stroke="midnightblue" points="1159.69,-146.102 1149.61,-142.834 1155.46,-151.673 1159.69,-146.102"/>
</g>
<!-- Node19&#45;&gt;Node25 -->
<g id="edge28" class="edge"><title>Node19&#45;&gt;Node25</title>
<path fill="none" stroke="midnightblue" d="M1174.77,-179.444C1137.49,-170.122 1077.73,-155.183 1036.99,-144.997"/>
<polygon fill="midnightblue" stroke="midnightblue" points="1037.62,-141.546 1027.07,-142.516 1035.92,-148.337 1037.62,-141.546"/>
</g>
<!-- Node25&#45;&gt;Node26 -->
<g id="edge29" class="edge"><title>Node25&#45;&gt;Node26</title>
<path fill="none" stroke="midnightblue" d="M997.298,-123.475C1001.66,-114.815 1008.56,-101.149 1014.1,-90.1453"/>
<polygon fill="midnightblue" stroke="midnightblue" points="1017.33,-91.5141 1018.71,-81.0091 1011.08,-88.3625 1017.33,-91.5141"/>
</g>
<!-- Node29 -->
<g id="node29" class="node"><title>Node29</title>
<g id="a_node29"><a xlink:href="current__function_8h.xhtml" target="_top" xlink:title="Declares GMX_CURRENT_FUNCTION for getting the current function name. ">
<polygon fill="white" stroke="black" points="813.5,-56.5 813.5,-86.5 926.5,-86.5 926.5,-56.5 813.5,-56.5"/>
<text text-anchor="start" x="821.5" y="-74.5" font-family="Helvetica,sans-Serif" font-size="10.00">gromacs/utility/current</text>
<text text-anchor="middle" x="870" y="-63.5" font-family="Helvetica,sans-Serif" font-size="10.00">_function.h</text>
</a>
</g>
</g>
<!-- Node25&#45;&gt;Node29 -->
<g id="edge32" class="edge"><title>Node25&#45;&gt;Node29</title>
<path fill="none" stroke="midnightblue" d="M975.377,-123.475C957.94,-115.04 930.684,-101.855 908.26,-91.008"/>
<polygon fill="midnightblue" stroke="midnightblue" points="909.515,-87.727 898.989,-86.523 906.467,-94.0284 909.515,-87.727"/>
</g>
<!-- Node27 -->
<g id="node27" class="node"><title>Node27</title>
<polygon fill="white" stroke="#bfbfbf" points="962.5,-0.5 962.5,-19.5 1011.5,-19.5 1011.5,-0.5 962.5,-0.5"/>
<text text-anchor="middle" x="987" y="-7.5" font-family="Helvetica,sans-Serif" font-size="10.00">stdint.h</text>
</g>
<!-- Node26&#45;&gt;Node27 -->
<g id="edge30" class="edge"><title>Node26&#45;&gt;Node27</title>
<path fill="none" stroke="midnightblue" d="M1017.84,-61.9751C1012.55,-53.2268 1004.16,-39.3691 997.473,-28.3093"/>
<polygon fill="midnightblue" stroke="midnightblue" points="1000.32,-26.2531 992.148,-19.5091 994.33,-29.8768 1000.32,-26.2531"/>
</g>
<!-- Node28 -->
<g id="node28" class="node"><title>Node28</title>
<polygon fill="white" stroke="#bfbfbf" points="1029.5,-0.5 1029.5,-19.5 1088.5,-19.5 1088.5,-0.5 1029.5,-0.5"/>
<text text-anchor="middle" x="1059" y="-7.5" font-family="Helvetica,sans-Serif" font-size="10.00">inttypes.h</text>
</g>
<!-- Node26&#45;&gt;Node28 -->
<g id="edge31" class="edge"><title>Node26&#45;&gt;Node28</title>
<path fill="none" stroke="midnightblue" d="M1028.16,-61.9751C1033.45,-53.2268 1041.84,-39.3691 1048.53,-28.3093"/>
<polygon fill="midnightblue" stroke="midnightblue" points="1051.67,-29.8768 1053.85,-19.5091 1045.68,-26.2531 1051.67,-29.8768"/>
</g>
<!-- Node30&#45;&gt;Node13 -->
<g id="edge36" class="edge"><title>Node30&#45;&gt;Node13</title>
<path fill="none" stroke="midnightblue" d="M673.147,-235.083C674.869,-227.927 677.347,-217.635 679.5,-208.691"/>
<polygon fill="midnightblue" stroke="midnightblue" points="682.955,-209.293 681.893,-198.751 676.15,-207.654 682.955,-209.293"/>
</g>
<!-- Node30&#45;&gt;Node25 -->
<g id="edge37" class="edge"><title>Node30&#45;&gt;Node25</title>
<path fill="none" stroke="midnightblue" d="M695.999,-235.46C752.945,-216.006 892.433,-168.355 957.941,-145.977"/>
<polygon fill="midnightblue" stroke="midnightblue" points="959.463,-149.155 967.795,-142.61 957.201,-142.531 959.463,-149.155"/>
</g>
<!-- Node31&#45;&gt;Node6 -->
<g id="edge45" class="edge"><title>Node31&#45;&gt;Node6</title>
<path fill="none" stroke="midnightblue" d="M442.219,-180.001C439.103,-179.659 436.02,-179.324 433,-179 274.44,-161.974 233.706,-166.665 76,-143 74.8969,-142.834 73.7799,-142.66 72.6538,-142.478"/>
<polygon fill="midnightblue" stroke="midnightblue" points="72.8568,-138.961 62.4031,-140.684 71.6498,-145.856 72.8568,-138.961"/>
</g>
<!-- Node31&#45;&gt;Node11 -->
<g id="edge44" class="edge"><title>Node31&#45;&gt;Node11</title>
<path fill="none" stroke="midnightblue" d="M535.134,-179.444C560.198,-170.173 600.286,-155.346 627.813,-145.165"/>
<polygon fill="midnightblue" stroke="midnightblue" points="629.17,-148.395 637.335,-141.643 626.742,-141.83 629.17,-148.395"/>
</g>
<!-- Node31&#45;&gt;Node12 -->
<g id="edge47" class="edge"><title>Node31&#45;&gt;Node12</title>
<path fill="none" stroke="midnightblue" d="M581.815,-180.052C661.64,-170.754 788.473,-155.29 851.786,-142.93"/>
<polygon fill="midnightblue" stroke="midnightblue" points="852.653,-146.326 861.751,-140.897 851.253,-139.467 852.653,-146.326"/>
</g>
<!-- Node31&#45;&gt;Node16 -->
<g id="edge49" class="edge"><title>Node31&#45;&gt;Node16</title>
<path fill="none" stroke="midnightblue" d="M511.339,-179.083C510.815,-172.006 510.064,-161.861 509.406,-152.986"/>
<polygon fill="midnightblue" stroke="midnightblue" points="512.877,-152.465 508.648,-142.751 505.897,-152.982 512.877,-152.465"/>
</g>
<!-- Node31&#45;&gt;Node17 -->
<g id="edge43" class="edge"><title>Node31&#45;&gt;Node17</title>
<path fill="none" stroke="midnightblue" d="M442.214,-180.039C439.1,-179.687 436.018,-179.34 433,-179 361.011,-170.9 157.314,-196.979 109,-143 63.5627,-92.2345 195.573,-77.9311 262.582,-73.9749"/>
<polygon fill="midnightblue" stroke="midnightblue" points="262.945,-77.4605 272.742,-73.4249 262.567,-70.4707 262.945,-77.4605"/>
</g>
<!-- Node31&#45;&gt;Node25 -->
<g id="edge51" class="edge"><title>Node31&#45;&gt;Node25</title>
<path fill="none" stroke="midnightblue" d="M581.54,-180.313C659.752,-171.651 790.867,-157.075 914.104,-143.098"/>
<polygon fill="midnightblue" stroke="midnightblue" points="914.557,-146.569 924.098,-141.964 913.767,-139.614 914.557,-146.569"/>
</g>
<!-- Node31&#45;&gt;Node26 -->
<g id="edge48" class="edge"><title>Node31&#45;&gt;Node26</title>
<path fill="none" stroke="midnightblue" d="M527.243,-179.25C557.481,-161.92 622.62,-124.744 628,-123 759.101,-80.4905 799.542,-106.335 936,-87 945.13,-85.7064 954.778,-84.2191 964.196,-82.7007"/>
<polygon fill="midnightblue" stroke="midnightblue" points="964.987,-86.118 974.29,-81.0487 963.856,-79.2099 964.987,-86.118"/>
</g>
<!-- Node31&#45;&gt;Node29 -->
<g id="edge50" class="edge"><title>Node31&#45;&gt;Node29</title>
<path fill="none" stroke="midnightblue" d="M483.872,-179.486C451.148,-168.216 404.215,-146.952 426,-123 452.961,-93.3569 731.435,-93.5086 803.349,-86.7681"/>
<polygon fill="midnightblue" stroke="midnightblue" points="803.845,-90.2337 813.36,-85.5719 803.015,-83.2832 803.845,-90.2337"/>
</g>
<!-- Node32 -->
<g id="node32" class="node"><title>Node32</title>
<polygon fill="white" stroke="#bfbfbf" points="118.5,-123.5 118.5,-142.5 161.5,-142.5 161.5,-123.5 118.5,-123.5"/>
<text text-anchor="middle" x="140" y="-130.5" font-family="Helvetica,sans-Serif" font-size="10.00">cstdio</text>
</g>
<!-- Node31&#45;&gt;Node32 -->
<g id="edge40" class="edge"><title>Node31&#45;&gt;Node32</title>
<path fill="none" stroke="midnightblue" d="M442.578,-179.472C357.377,-168.919 219.141,-151.49 171.404,-142.856"/>
<polygon fill="midnightblue" stroke="midnightblue" points="172.011,-139.408 161.522,-140.908 170.657,-146.276 172.011,-139.408"/>
</g>
<!-- Node33 -->
<g id="node33" class="node"><title>Node33</title>
<polygon fill="white" stroke="#bfbfbf" points="179.5,-123.5 179.5,-142.5 224.5,-142.5 224.5,-123.5 179.5,-123.5"/>
<text text-anchor="middle" x="202" y="-130.5" font-family="Helvetica,sans-Serif" font-size="10.00">cstdlib</text>
</g>
<!-- Node31&#45;&gt;Node33 -->
<g id="edge41" class="edge"><title>Node31&#45;&gt;Node33</title>
<path fill="none" stroke="midnightblue" d="M444.473,-179.473C390.02,-172.056 311.337,-160.124 234.456,-143.119"/>
<polygon fill="midnightblue" stroke="midnightblue" points="235.127,-139.683 224.604,-140.91 233.595,-146.513 235.127,-139.683"/>
</g>
<!-- Node34 -->
<g id="node34" class="node"><title>Node34</title>
<polygon fill="white" stroke="#bfbfbf" points="242.5,-123.5 242.5,-142.5 301.5,-142.5 301.5,-123.5 242.5,-123.5"/>
<text text-anchor="middle" x="272" y="-130.5" font-family="Helvetica,sans-Serif" font-size="10.00">exception</text>
</g>
<!-- Node31&#45;&gt;Node34 -->
<g id="edge42" class="edge"><title>Node31&#45;&gt;Node34</title>
<path fill="none" stroke="midnightblue" d="M472.863,-179.444C434.211,-170.957 373.149,-157.454 311.721,-143.376"/>
<polygon fill="midnightblue" stroke="midnightblue" points="312.392,-139.939 301.862,-141.112 310.825,-146.762 312.392,-139.939"/>
</g>
<!-- Node35 -->
<g id="node35" class="node"><title>Node35</title>
<polygon fill="white" stroke="#bfbfbf" points="319.5,-123.5 319.5,-142.5 378.5,-142.5 378.5,-123.5 319.5,-123.5"/>
<text text-anchor="middle" x="349" y="-130.5" font-family="Helvetica,sans-Serif" font-size="10.00">typeindex</text>
</g>
<!-- Node31&#45;&gt;Node35 -->
<g id="edge46" class="edge"><title>Node31&#45;&gt;Node35</title>
<path fill="none" stroke="midnightblue" d="M486.172,-179.444C458.751,-170.359 415.223,-155.939 384.568,-145.783"/>
<polygon fill="midnightblue" stroke="midnightblue" points="385.3,-142.339 374.707,-142.516 383.099,-148.984 385.3,-142.339"/>
</g>
</g>
</svg>
