<?xml version="1.0" encoding="UTF-8" standalone="no"?>
<!DOCTYPE svg PUBLIC "-//W3C//DTD SVG 1.1//EN"
 "http://www.w3.org/Graphics/SVG/1.1/DTD/svg11.dtd">
<!-- Generated by graphviz version 2.38.0 (20140413.2041)
 -->
<!-- Title: src/gromacs/mdlib/nbnxn_kernels/simd_2xnn/nbnxn_kernel_simd_2xnn_prune.h Pages: 1 -->
<svg width="290pt" height="162pt"
 viewBox="0.00 0.00 290.00 162.00" xmlns="http://www.w3.org/2000/svg" xmlns:xlink="http://www.w3.org/1999/xlink">
<g id="graph0" class="graph" transform="scale(1 1) rotate(0) translate(4 158)">
<title>src/gromacs/mdlib/nbnxn_kernels/simd_2xnn/nbnxn_kernel_simd_2xnn_prune.h</title>
<polygon fill="white" stroke="none" points="-4,4 -4,-158 286,-158 286,4 -4,4"/>
<!-- Node1 -->
<g id="node1" class="node"><title>Node1</title>
<polygon fill="#bfbfbf" stroke="black" points="84.5,-112.5 84.5,-153.5 222.5,-153.5 222.5,-112.5 84.5,-112.5"/>
<text text-anchor="start" x="92.5" y="-141.5" font-family="Helvetica,sans-Serif" font-size="10.00">src/gromacs/mdlib/nbnxn</text>
<text text-anchor="start" x="92.5" y="-130.5" font-family="Helvetica,sans-Serif" font-size="10.00">_kernels/simd_2xnn/nbnxn</text>
<text text-anchor="middle" x="153.5" y="-119.5" font-family="Helvetica,sans-Serif" font-size="10.00">_kernel_simd_2xnn_prune.h</text>
</g>
<!-- Node2 -->
<g id="node2" class="node"><title>Node2</title>
<g id="a_node2"><a xlink:href="basedefinitions_8h.xhtml" target="_top" xlink:title="Basic types and macros used throughout GROMACS. ">
<polygon fill="white" stroke="black" points="0,-56.5 0,-75.5 157,-75.5 157,-56.5 0,-56.5"/>
<text text-anchor="middle" x="78.5" y="-63.5" font-family="Helvetica,sans-Serif" font-size="10.00">gromacs/utility/basedefinitions.h</text>
</a>
</g>
</g>
<!-- Node1&#45;&gt;Node2 -->
<g id="edge1" class="edge"><title>Node1&#45;&gt;Node2</title>
<path fill="none" stroke="midnightblue" d="M130.998,-112.498C119.83,-102.82 106.539,-91.3002 96.1238,-82.274"/>
<polygon fill="midnightblue" stroke="midnightblue" points="98.3328,-79.5569 88.4836,-75.6525 93.7483,-84.8468 98.3328,-79.5569"/>
</g>
<!-- Node5 -->
<g id="node5" class="node"><title>Node5</title>
<g id="a_node5"><a xlink:href="real_8h.xhtml" target="_top" xlink:title="Declares real and related constants. ">
<polygon fill="white" stroke="black" points="175,-56.5 175,-75.5 282,-75.5 282,-56.5 175,-56.5"/>
<text text-anchor="middle" x="228.5" y="-63.5" font-family="Helvetica,sans-Serif" font-size="10.00">gromacs/utility/real.h</text>
</a>
</g>
</g>
<!-- Node1&#45;&gt;Node5 -->
<g id="edge4" class="edge"><title>Node1&#45;&gt;Node5</title>
<path fill="none" stroke="midnightblue" d="M176.002,-112.498C187.17,-102.82 200.461,-91.3002 210.876,-82.274"/>
<polygon fill="midnightblue" stroke="midnightblue" points="213.252,-84.8468 218.516,-75.6525 208.667,-79.5569 213.252,-84.8468"/>
</g>
<!-- Node3 -->
<g id="node3" class="node"><title>Node3</title>
<polygon fill="white" stroke="#bfbfbf" points="18,-0.5 18,-19.5 67,-19.5 67,-0.5 18,-0.5"/>
<text text-anchor="middle" x="42.5" y="-7.5" font-family="Helvetica,sans-Serif" font-size="10.00">stdint.h</text>
</g>
<!-- Node2&#45;&gt;Node3 -->
<g id="edge2" class="edge"><title>Node2&#45;&gt;Node3</title>
<path fill="none" stroke="midnightblue" d="M72.5553,-56.083C67.5227,-48.5341 60.1632,-37.4948 53.9865,-28.2298"/>
<polygon fill="midnightblue" stroke="midnightblue" points="56.7933,-26.1301 48.3341,-19.7511 50.9689,-30.0131 56.7933,-26.1301"/>
</g>
<!-- Node4 -->
<g id="node4" class="node"><title>Node4</title>
<polygon fill="white" stroke="#bfbfbf" points="85,-0.5 85,-19.5 144,-19.5 144,-0.5 85,-0.5"/>
<text text-anchor="middle" x="114.5" y="-7.5" font-family="Helvetica,sans-Serif" font-size="10.00">inttypes.h</text>
</g>
<!-- Node2&#45;&gt;Node4 -->
<g id="edge3" class="edge"><title>Node2&#45;&gt;Node4</title>
<path fill="none" stroke="midnightblue" d="M84.4447,-56.083C89.4773,-48.5341 96.8368,-37.4948 103.013,-28.2298"/>
<polygon fill="midnightblue" stroke="midnightblue" points="106.031,-30.0131 108.666,-19.7511 100.207,-26.1301 106.031,-30.0131"/>
</g>
</g>
</svg>
