<?xml version="1.0" encoding="UTF-8" standalone="no"?>
<!DOCTYPE svg PUBLIC "-//W3C//DTD SVG 1.1//EN"
 "http://www.w3.org/Graphics/SVG/1.1/DTD/svg11.dtd">
<!-- Generated by graphviz version 2.38.0 (20140413.2041)
 -->
<!-- Title: src/gromacs/mdlib/nbnxn_gpu_common.h Pages: 1 -->
<svg width="1109pt" height="542pt"
 viewBox="0.00 0.00 1108.50 542.00" xmlns="http://www.w3.org/2000/svg" xmlns:xlink="http://www.w3.org/1999/xlink">
<g id="graph0" class="graph" transform="scale(1 1) rotate(0) translate(4 538)">
<title>src/gromacs/mdlib/nbnxn_gpu_common.h</title>
<polygon fill="white" stroke="none" points="-4,4 -4,-538 1104.5,-538 1104.5,4 -4,4"/>
<!-- Node1 -->
<g id="node1" class="node"><title>Node1</title>
<polygon fill="#bfbfbf" stroke="black" points="514.5,-503.5 514.5,-533.5 640.5,-533.5 640.5,-503.5 514.5,-503.5"/>
<text text-anchor="start" x="522.5" y="-521.5" font-family="Helvetica,sans-Serif" font-size="10.00">src/gromacs/mdlib/nbnxn</text>
<text text-anchor="middle" x="577.5" y="-510.5" font-family="Helvetica,sans-Serif" font-size="10.00">_gpu_common.h</text>
</g>
<!-- Node2 -->
<g id="node2" class="node"><title>Node2</title>
<polygon fill="white" stroke="#bfbfbf" points="0,-252 0,-271 51,-271 51,-252 0,-252"/>
<text text-anchor="middle" x="25.5" y="-259" font-family="Helvetica,sans-Serif" font-size="10.00">config.h</text>
</g>
<!-- Node1&#45;&gt;Node2 -->
<g id="edge1" class="edge"><title>Node1&#45;&gt;Node2</title>
<path fill="none" stroke="midnightblue" d="M514.206,-518.251C414.472,-516.472 218.343,-500.695 84.5,-411 51.7821,-389.074 40.4811,-380.82 26.5,-344 18.8272,-323.793 19.9547,-298.684 22.1124,-281.717"/>
<polygon fill="midnightblue" stroke="midnightblue" points="25.6332,-281.844 23.6753,-271.432 18.7126,-280.793 25.6332,-281.844"/>
</g>
<!-- Node3 -->
<g id="node3" class="node"><title>Node3</title>
<polygon fill="white" stroke="#bfbfbf" points="756,-123.5 756,-142.5 797,-142.5 797,-123.5 756,-123.5"/>
<text text-anchor="middle" x="776.5" y="-130.5" font-family="Helvetica,sans-Serif" font-size="10.00">string</text>
</g>
<!-- Node1&#45;&gt;Node3 -->
<g id="edge2" class="edge"><title>Node1&#45;&gt;Node3</title>
<path fill="none" stroke="midnightblue" d="M614.852,-503.459C670.799,-480.13 774.29,-427.513 816.5,-344 833.59,-310.187 797.979,-196.738 782.857,-152.183"/>
<polygon fill="midnightblue" stroke="midnightblue" points="786.14,-150.966 779.576,-142.65 779.522,-153.245 786.14,-150.966"/>
</g>
<!-- Node4 -->
<g id="node4" class="node"><title>Node4</title>
<g id="a_node4"><a xlink:href="nbnxn__cuda__types_8h.xhtml" target="_top" xlink:title="Data types used internally in the nbnxn_cuda module. ">
<polygon fill="white" stroke="black" points="457,-380.5 457,-410.5 582,-410.5 582,-380.5 457,-380.5"/>
<text text-anchor="start" x="465" y="-398.5" font-family="Helvetica,sans-Serif" font-size="10.00">nbnxn_cuda/nbnxn_cuda</text>
<text text-anchor="middle" x="519.5" y="-387.5" font-family="Helvetica,sans-Serif" font-size="10.00">_types.h</text>
</a>
</g>
</g>
<!-- Node1&#45;&gt;Node4 -->
<g id="edge3" class="edge"><title>Node1&#45;&gt;Node4</title>
<path fill="none" stroke="midnightblue" d="M570.619,-503.145C560.764,-482.586 542.52,-444.525 530.704,-419.873"/>
<polygon fill="midnightblue" stroke="midnightblue" points="533.851,-418.341 526.372,-410.837 527.539,-421.367 533.851,-418.341"/>
</g>
<!-- Node20 -->
<g id="node20" class="node"><title>Node20</title>
<g id="a_node20"><a xlink:href="gpu__timing_8h.xhtml" target="_top" xlink:title="Declares data types for GPU timing. ">
<polygon fill="white" stroke="black" points="705.5,-313.5 705.5,-343.5 807.5,-343.5 807.5,-313.5 705.5,-313.5"/>
<text text-anchor="start" x="713.5" y="-331.5" font-family="Helvetica,sans-Serif" font-size="10.00">gromacs/timing/gpu</text>
<text text-anchor="middle" x="756.5" y="-320.5" font-family="Helvetica,sans-Serif" font-size="10.00">_timing.h</text>
</a>
</g>
</g>
<!-- Node1&#45;&gt;Node20 -->
<g id="edge34" class="edge"><title>Node1&#45;&gt;Node20</title>
<path fill="none" stroke="midnightblue" d="M590.954,-503.369C622,-470.763 698.814,-390.087 735.863,-351.175"/>
<polygon fill="midnightblue" stroke="midnightblue" points="738.773,-353.194 743.134,-343.538 733.704,-348.367 738.773,-353.194"/>
</g>
<!-- Node21 -->
<g id="node21" class="node"><title>Node21</title>
<g id="a_node21"><a xlink:href="nbnxn__ocl__types_8h.xhtml" target="_top" xlink:title="Data types used internally in the nbnxn_ocl module. ">
<polygon fill="white" stroke="black" points="217.5,-380.5 217.5,-410.5 325.5,-410.5 325.5,-380.5 217.5,-380.5"/>
<text text-anchor="start" x="225.5" y="-398.5" font-family="Helvetica,sans-Serif" font-size="10.00">nbnxn_ocl/nbnxn_ocl</text>
<text text-anchor="middle" x="271.5" y="-387.5" font-family="Helvetica,sans-Serif" font-size="10.00">_types.h</text>
</a>
</g>
</g>
<!-- Node1&#45;&gt;Node21 -->
<g id="edge24" class="edge"><title>Node1&#45;&gt;Node21</title>
<path fill="none" stroke="midnightblue" d="M544.741,-503.486C510.615,-488.988 455.528,-465.868 407.5,-447 378.71,-435.69 346.244,-423.609 320.255,-414.1"/>
<polygon fill="midnightblue" stroke="midnightblue" points="321.226,-410.729 310.632,-410.589 318.826,-417.305 321.226,-410.729"/>
</g>
<!-- Node23 -->
<g id="node23" class="node"><title>Node23</title>
<g id="a_node23"><a xlink:href="gpu__utils_8h.xhtml" target="_top" xlink:title="Declare functions for detection and initialization for GPU devices. ">
<polygon fill="white" stroke="black" points="816,-179.5 816,-209.5 931,-209.5 931,-179.5 816,-179.5"/>
<text text-anchor="start" x="824" y="-197.5" font-family="Helvetica,sans-Serif" font-size="10.00">gromacs/gpu_utils/gpu</text>
<text text-anchor="middle" x="873.5" y="-186.5" font-family="Helvetica,sans-Serif" font-size="10.00">_utils.h</text>
</a>
</g>
</g>
<!-- Node1&#45;&gt;Node23 -->
<g id="edge29" class="edge"><title>Node1&#45;&gt;Node23</title>
<path fill="none" stroke="midnightblue" d="M640.694,-513.084C711.061,-506.934 818.941,-493.433 849.5,-467 874.534,-445.347 873.5,-429.599 873.5,-396.5 873.5,-396.5 873.5,-396.5 873.5,-327.5 873.5,-290.003 873.5,-246.513 873.5,-220.011"/>
<polygon fill="midnightblue" stroke="midnightblue" points="877,-219.759 873.5,-209.759 870,-219.759 877,-219.759"/>
</g>
<!-- Node26 -->
<g id="node26" class="node"><title>Node26</title>
<g id="a_node26"><a xlink:href="stringutil_8h.xhtml" target="_top" xlink:title="Declares common string utility and formatting routines. ">
<polygon fill="white" stroke="black" points="949.5,-185 949.5,-204 1077.5,-204 1077.5,-185 949.5,-185"/>
<text text-anchor="middle" x="1013.5" y="-192" font-family="Helvetica,sans-Serif" font-size="10.00">gromacs/utility/stringutil.h</text>
</a>
</g>
</g>
<!-- Node1&#45;&gt;Node26 -->
<g id="edge35" class="edge"><title>Node1&#45;&gt;Node26</title>
<path fill="none" stroke="midnightblue" d="M640.511,-515.62C702.059,-511.768 797.201,-500.358 872.5,-467 918.957,-446.42 962.5,-447.311 962.5,-396.5 962.5,-396.5 962.5,-396.5 962.5,-327.5 962.5,-283.689 987.247,-236.863 1002.26,-212.481"/>
<polygon fill="midnightblue" stroke="midnightblue" points="1005.23,-214.334 1007.65,-204.018 999.328,-210.576 1005.23,-214.334"/>
</g>
<!-- Node29 -->
<g id="node29" class="node"><title>Node29</title>
<g id="a_node29"><a xlink:href="nbnxn__gpu__common__utils_8h.xhtml" target="_top" xlink:title="Implements common util routines for different NBNXN GPU implementations. ">
<polygon fill="white" stroke="black" points="260.5,-447.5 260.5,-466.5 398.5,-466.5 398.5,-447.5 260.5,-447.5"/>
<text text-anchor="middle" x="329.5" y="-454.5" font-family="Helvetica,sans-Serif" font-size="10.00">nbnxn_gpu_common_utils.h</text>
</a>
</g>
</g>
<!-- Node1&#45;&gt;Node29 -->
<g id="edge40" class="edge"><title>Node1&#45;&gt;Node29</title>
<path fill="none" stroke="midnightblue" d="M519.042,-503.475C474.949,-492.896 415.34,-478.595 374.823,-468.874"/>
<polygon fill="midnightblue" stroke="midnightblue" points="375.496,-465.436 364.955,-466.506 373.863,-472.243 375.496,-465.436"/>
</g>
<!-- Node5 -->
<g id="node5" class="node"><title>Node5</title>
<polygon fill="white" stroke="#bfbfbf" points="567.5,-313.5 567.5,-343.5 687.5,-343.5 687.5,-313.5 567.5,-313.5"/>
<text text-anchor="start" x="575.5" y="-331.5" font-family="Helvetica,sans-Serif" font-size="10.00">gromacs/gpu_utils/cuda</text>
<text text-anchor="middle" x="627.5" y="-320.5" font-family="Helvetica,sans-Serif" font-size="10.00">_arch_utils.cuh</text>
</g>
<!-- Node4&#45;&gt;Node5 -->
<g id="edge4" class="edge"><title>Node4&#45;&gt;Node5</title>
<path fill="none" stroke="midnightblue" d="M542.934,-380.396C558.219,-371.197 578.375,-359.066 595.175,-348.955"/>
<polygon fill="midnightblue" stroke="midnightblue" points="597.348,-351.732 604.111,-343.577 593.739,-345.734 597.348,-351.732"/>
</g>
<!-- Node6 -->
<g id="node6" class="node"><title>Node6</title>
<polygon fill="white" stroke="#bfbfbf" points="392,-319 392,-338 549,-338 549,-319 392,-319"/>
<text text-anchor="middle" x="470.5" y="-326" font-family="Helvetica,sans-Serif" font-size="10.00">gromacs/gpu_utils/cudautils.cuh</text>
</g>
<!-- Node4&#45;&gt;Node6 -->
<g id="edge5" class="edge"><title>Node4&#45;&gt;Node6</title>
<path fill="none" stroke="midnightblue" d="M508.868,-380.396C501.303,-370.361 491.109,-356.838 483.13,-346.253"/>
<polygon fill="midnightblue" stroke="midnightblue" points="485.869,-344.073 477.054,-338.195 480.279,-348.287 485.869,-344.073"/>
</g>
<!-- Node7 -->
<g id="node7" class="node"><title>Node7</title>
<g id="a_node7"><a xlink:href="nbnxn__gpu__types__common_8h.xhtml" target="_top" xlink:title="Implements common internal types for different NBNXN GPU implementations. ">
<polygon fill="white" stroke="black" points="255.5,-313.5 255.5,-343.5 373.5,-343.5 373.5,-313.5 255.5,-313.5"/>
<text text-anchor="start" x="263.5" y="-331.5" font-family="Helvetica,sans-Serif" font-size="10.00">gromacs/mdlib/nbnxn</text>
<text text-anchor="middle" x="314.5" y="-320.5" font-family="Helvetica,sans-Serif" font-size="10.00">_gpu_types_common.h</text>
</a>
</g>
</g>
<!-- Node4&#45;&gt;Node7 -->
<g id="edge6" class="edge"><title>Node4&#45;&gt;Node7</title>
<path fill="none" stroke="midnightblue" d="M475.27,-380.476C443.989,-370.557 401.865,-357.201 368.582,-346.648"/>
<polygon fill="midnightblue" stroke="midnightblue" points="369.594,-343.297 359.004,-343.611 367.478,-349.97 369.594,-343.297"/>
</g>
<!-- Node4&#45;&gt;Node20 -->
<g id="edge23" class="edge"><title>Node4&#45;&gt;Node20</title>
<path fill="none" stroke="midnightblue" d="M570.634,-380.476C607.234,-370.438 656.672,-356.879 695.361,-346.268"/>
<polygon fill="midnightblue" stroke="midnightblue" points="696.74,-349.519 705.458,-343.499 694.888,-342.769 696.74,-349.519"/>
</g>
<!-- Node7&#45;&gt;Node2 -->
<g id="edge7" class="edge"><title>Node7&#45;&gt;Node2</title>
<path fill="none" stroke="midnightblue" d="M255.319,-314.189C197.01,-301.075 109.824,-281.466 61.3219,-270.557"/>
<polygon fill="midnightblue" stroke="midnightblue" points="61.821,-267.082 51.2967,-268.302 60.285,-273.911 61.821,-267.082"/>
</g>
<!-- Node8 -->
<g id="node8" class="node"><title>Node8</title>
<g id="a_node8"><a xlink:href="gpuregiontimer__ocl_8h.xhtml" target="_top" xlink:title="Implements the GPU region timer for OpenCL. ">
<polygon fill="white" stroke="black" points="256,-246.5 256,-276.5 419,-276.5 419,-246.5 256,-246.5"/>
<text text-anchor="start" x="264" y="-264.5" font-family="Helvetica,sans-Serif" font-size="10.00">gromacs/gpu_utils/gpuregiontimer</text>
<text text-anchor="middle" x="337.5" y="-253.5" font-family="Helvetica,sans-Serif" font-size="10.00">_ocl.h</text>
</a>
</g>
</g>
<!-- Node7&#45;&gt;Node8 -->
<g id="edge8" class="edge"><title>Node7&#45;&gt;Node8</title>
<path fill="none" stroke="midnightblue" d="M319.491,-313.396C322.294,-305.474 325.866,-295.379 329.089,-286.271"/>
<polygon fill="midnightblue" stroke="midnightblue" points="332.483,-287.171 332.519,-276.577 325.884,-284.836 332.483,-287.171"/>
</g>
<!-- Node19 -->
<g id="node19" class="node"><title>Node19</title>
<polygon fill="white" stroke="#bfbfbf" points="437.5,-252 437.5,-271 619.5,-271 619.5,-252 437.5,-252"/>
<text text-anchor="middle" x="528.5" y="-259" font-family="Helvetica,sans-Serif" font-size="10.00">gromacs/gpu_utils/gpuregiontimer.cuh</text>
</g>
<!-- Node7&#45;&gt;Node19 -->
<g id="edge22" class="edge"><title>Node7&#45;&gt;Node19</title>
<path fill="none" stroke="midnightblue" d="M360.671,-313.476C399.531,-301.673 454.42,-285.001 490.708,-273.979"/>
<polygon fill="midnightblue" stroke="midnightblue" points="491.87,-277.284 500.421,-271.029 489.835,-270.586 491.87,-277.284"/>
</g>
<!-- Node9 -->
<g id="node9" class="node"><title>Node9</title>
<polygon fill="white" stroke="#bfbfbf" points="507.5,-185 507.5,-204 545.5,-204 545.5,-185 507.5,-185"/>
<text text-anchor="middle" x="526.5" y="-192" font-family="Helvetica,sans-Serif" font-size="10.00">array</text>
</g>
<!-- Node8&#45;&gt;Node9 -->
<g id="edge9" class="edge"><title>Node8&#45;&gt;Node9</title>
<path fill="none" stroke="midnightblue" d="M389.027,-246.485C420.749,-237.306 461.995,-224.374 497.5,-210 498.703,-209.513 499.925,-208.996 501.152,-208.458"/>
<polygon fill="midnightblue" stroke="midnightblue" points="502.888,-211.51 510.45,-204.089 499.911,-205.175 502.888,-211.51"/>
</g>
<!-- Node10 -->
<g id="node10" class="node"><title>Node10</title>
<g id="a_node10"><a xlink:href="oclutils_8h.xhtml" target="_top" xlink:title="Declare utility routines for OpenCL. ">
<polygon fill="white" stroke="black" points="243.5,-185 243.5,-204 381.5,-204 381.5,-185 243.5,-185"/>
<text text-anchor="middle" x="312.5" y="-192" font-family="Helvetica,sans-Serif" font-size="10.00">gromacs/gpu_utils/oclutils.h</text>
</a>
</g>
</g>
<!-- Node8&#45;&gt;Node10 -->
<g id="edge10" class="edge"><title>Node8&#45;&gt;Node10</title>
<path fill="none" stroke="midnightblue" d="M332.075,-246.396C328.37,-236.763 323.429,-223.914 319.437,-213.537"/>
<polygon fill="midnightblue" stroke="midnightblue" points="322.701,-212.272 315.844,-204.195 316.167,-214.784 322.701,-212.272"/>
</g>
<!-- Node18 -->
<g id="node18" class="node"><title>Node18</title>
<g id="a_node18"><a xlink:href="gpuregiontimer_8h.xhtml" target="_top" xlink:title="Defines the GPU region timer implementation/wrapper classes. The implementations live in gpuregiontim...">
<polygon fill="white" stroke="black" points="400,-185 400,-204 489,-204 489,-185 400,-185"/>
<text text-anchor="middle" x="444.5" y="-192" font-family="Helvetica,sans-Serif" font-size="10.00">gpuregiontimer.h</text>
</a>
</g>
</g>
<!-- Node8&#45;&gt;Node18 -->
<g id="edge19" class="edge"><title>Node8&#45;&gt;Node18</title>
<path fill="none" stroke="midnightblue" d="M360.717,-246.396C378.827,-235.395 403.84,-220.2 421.813,-209.282"/>
<polygon fill="midnightblue" stroke="midnightblue" points="423.767,-212.19 430.496,-204.007 420.132,-206.208 423.767,-212.19"/>
</g>
<!-- Node10&#45;&gt;Node3 -->
<g id="edge11" class="edge"><title>Node10&#45;&gt;Node3</title>
<path fill="none" stroke="midnightblue" d="M355.325,-184.999C366.729,-182.883 379.06,-180.728 390.5,-179 522.257,-159.097 680.466,-143.119 745.887,-136.857"/>
<polygon fill="midnightblue" stroke="midnightblue" points="746.306,-140.333 755.93,-135.903 745.644,-133.365 746.306,-140.333"/>
</g>
<!-- Node11 -->
<g id="node11" class="node"><title>Node11</title>
<g id="a_node11"><a xlink:href="gmxopencl_8h.xhtml" target="_top" xlink:title="Wraps the complexity of including OpenCL in Gromacs. ">
<polygon fill="white" stroke="black" points="158,-123.5 158,-142.5 313,-142.5 313,-123.5 158,-123.5"/>
<text text-anchor="middle" x="235.5" y="-130.5" font-family="Helvetica,sans-Serif" font-size="10.00">gromacs/gpu_utils/gmxopencl.h</text>
</a>
</g>
</g>
<!-- Node10&#45;&gt;Node11 -->
<g id="edge12" class="edge"><title>Node10&#45;&gt;Node11</title>
<path fill="none" stroke="midnightblue" d="M301.468,-184.975C289.232,-175.52 269.271,-160.096 254.507,-148.687"/>
<polygon fill="midnightblue" stroke="midnightblue" points="256.565,-145.854 246.512,-142.509 252.285,-151.393 256.565,-145.854"/>
</g>
<!-- Node13 -->
<g id="node13" class="node"><title>Node13</title>
<g id="a_node13"><a xlink:href="gmxassert_8h.xhtml" target="_top" xlink:title="Defines assert macros customized for Gromacs. ">
<polygon fill="white" stroke="black" points="376,-123.5 376,-142.5 513,-142.5 513,-123.5 376,-123.5"/>
<text text-anchor="middle" x="444.5" y="-130.5" font-family="Helvetica,sans-Serif" font-size="10.00">gromacs/utility/gmxassert.h</text>
</a>
</g>
</g>
<!-- Node10&#45;&gt;Node13 -->
<g id="edge14" class="edge"><title>Node10&#45;&gt;Node13</title>
<path fill="none" stroke="midnightblue" d="M331.412,-184.975C353.663,-174.945 390.812,-158.2 416.426,-146.655"/>
<polygon fill="midnightblue" stroke="midnightblue" points="417.944,-149.809 425.623,-142.509 415.068,-143.428 417.944,-149.809"/>
</g>
<!-- Node12 -->
<g id="node12" class="node"><title>Node12</title>
<polygon fill="white" stroke="#bfbfbf" points="201,-62 201,-81 270,-81 270,-62 201,-62"/>
<text text-anchor="middle" x="235.5" y="-69" font-family="Helvetica,sans-Serif" font-size="10.00">CL/opencl.h</text>
</g>
<!-- Node11&#45;&gt;Node12 -->
<g id="edge13" class="edge"><title>Node11&#45;&gt;Node12</title>
<path fill="none" stroke="midnightblue" d="M235.5,-123.475C235.5,-115.08 235.5,-101.981 235.5,-91.1631"/>
<polygon fill="midnightblue" stroke="midnightblue" points="239,-91.0091 235.5,-81.0091 232,-91.0091 239,-91.0091"/>
</g>
<!-- Node14 -->
<g id="node14" class="node"><title>Node14</title>
<g id="a_node14"><a xlink:href="basedefinitions_8h.xhtml" target="_top" xlink:title="Basic types and macros used throughout GROMACS. ">
<polygon fill="white" stroke="black" points="633,-62 633,-81 790,-81 790,-62 633,-62"/>
<text text-anchor="middle" x="711.5" y="-69" font-family="Helvetica,sans-Serif" font-size="10.00">gromacs/utility/basedefinitions.h</text>
</a>
</g>
</g>
<!-- Node13&#45;&gt;Node14 -->
<g id="edge15" class="edge"><title>Node13&#45;&gt;Node14</title>
<path fill="none" stroke="midnightblue" d="M482.755,-123.475C530.339,-112.871 611.61,-94.7602 663.375,-83.2244"/>
<polygon fill="midnightblue" stroke="midnightblue" points="664.317,-86.6005 673.316,-81.0091 662.794,-79.7681 664.317,-86.6005"/>
</g>
<!-- Node17 -->
<g id="node17" class="node"><title>Node17</title>
<g id="a_node17"><a xlink:href="current__function_8h.xhtml" target="_top" xlink:title="Declares GMX_CURRENT_FUNCTION for getting the current function name. ">
<polygon fill="white" stroke="black" points="388,-56.5 388,-86.5 501,-86.5 501,-56.5 388,-56.5"/>
<text text-anchor="start" x="396" y="-74.5" font-family="Helvetica,sans-Serif" font-size="10.00">gromacs/utility/current</text>
<text text-anchor="middle" x="444.5" y="-63.5" font-family="Helvetica,sans-Serif" font-size="10.00">_function.h</text>
</a>
</g>
</g>
<!-- Node13&#45;&gt;Node17 -->
<g id="edge18" class="edge"><title>Node13&#45;&gt;Node17</title>
<path fill="none" stroke="midnightblue" d="M444.5,-123.475C444.5,-116.471 444.5,-106.192 444.5,-96.6956"/>
<polygon fill="midnightblue" stroke="midnightblue" points="448,-96.5229 444.5,-86.523 441,-96.523 448,-96.5229"/>
</g>
<!-- Node15 -->
<g id="node15" class="node"><title>Node15</title>
<polygon fill="white" stroke="#bfbfbf" points="651,-0.5 651,-19.5 700,-19.5 700,-0.5 651,-0.5"/>
<text text-anchor="middle" x="675.5" y="-7.5" font-family="Helvetica,sans-Serif" font-size="10.00">stdint.h</text>
</g>
<!-- Node14&#45;&gt;Node15 -->
<g id="edge16" class="edge"><title>Node14&#45;&gt;Node15</title>
<path fill="none" stroke="midnightblue" d="M706.342,-61.9751C701.049,-53.2268 692.665,-39.3691 685.973,-28.3093"/>
<polygon fill="midnightblue" stroke="midnightblue" points="688.82,-26.2531 680.648,-19.5091 682.83,-29.8768 688.82,-26.2531"/>
</g>
<!-- Node16 -->
<g id="node16" class="node"><title>Node16</title>
<polygon fill="white" stroke="#bfbfbf" points="718,-0.5 718,-19.5 777,-19.5 777,-0.5 718,-0.5"/>
<text text-anchor="middle" x="747.5" y="-7.5" font-family="Helvetica,sans-Serif" font-size="10.00">inttypes.h</text>
</g>
<!-- Node14&#45;&gt;Node16 -->
<g id="edge17" class="edge"><title>Node14&#45;&gt;Node16</title>
<path fill="none" stroke="midnightblue" d="M716.658,-61.9751C721.951,-53.2268 730.335,-39.3691 737.027,-28.3093"/>
<polygon fill="midnightblue" stroke="midnightblue" points="740.17,-29.8768 742.352,-19.5091 734.18,-26.2531 740.17,-29.8768"/>
</g>
<!-- Node18&#45;&gt;Node3 -->
<g id="edge20" class="edge"><title>Node18&#45;&gt;Node3</title>
<path fill="none" stroke="midnightblue" d="M474.077,-184.976C481.973,-182.86 490.528,-180.711 498.5,-179 587.535,-159.892 694.168,-144.768 745.664,-137.946"/>
<polygon fill="midnightblue" stroke="midnightblue" points="746.33,-141.388 755.789,-136.617 745.419,-134.448 746.33,-141.388"/>
</g>
<!-- Node18&#45;&gt;Node13 -->
<g id="edge21" class="edge"><title>Node18&#45;&gt;Node13</title>
<path fill="none" stroke="midnightblue" d="M444.5,-184.975C444.5,-176.58 444.5,-163.481 444.5,-152.663"/>
<polygon fill="midnightblue" stroke="midnightblue" points="448,-152.509 444.5,-142.509 441,-152.509 448,-152.509"/>
</g>
<!-- Node21&#45;&gt;Node7 -->
<g id="edge27" class="edge"><title>Node21&#45;&gt;Node7</title>
<path fill="none" stroke="midnightblue" d="M280.83,-380.396C286.296,-372.134 293.326,-361.507 299.548,-352.102"/>
<polygon fill="midnightblue" stroke="midnightblue" points="302.59,-353.848 305.188,-343.577 296.751,-349.986 302.59,-353.848"/>
</g>
<!-- Node21&#45;&gt;Node10 -->
<g id="edge26" class="edge"><title>Node21&#45;&gt;Node10</title>
<path fill="none" stroke="midnightblue" d="M262.168,-380.154C256.397,-370.398 249.531,-356.955 246.5,-344 236.577,-301.59 227.209,-285.051 246.5,-246 254.415,-229.977 270.123,-217.637 284.228,-209.167"/>
<polygon fill="midnightblue" stroke="midnightblue" points="286.154,-212.1 293.169,-204.16 282.733,-205.993 286.154,-212.1"/>
</g>
<!-- Node21&#45;&gt;Node11 -->
<g id="edge25" class="edge"><title>Node21&#45;&gt;Node11</title>
<path fill="none" stroke="midnightblue" d="M257.969,-380.317C249.846,-370.837 240.203,-357.64 235.5,-344 212.345,-276.843 224.437,-190.263 231.536,-152.73"/>
<polygon fill="midnightblue" stroke="midnightblue" points="235.006,-153.224 233.534,-142.732 228.142,-151.852 235.006,-153.224"/>
</g>
<!-- Node22 -->
<g id="node22" class="node"><title>Node22</title>
<g id="a_node22"><a xlink:href="real_8h.xhtml" target="_top" xlink:title="Declares real and related constants. ">
<polygon fill="white" stroke="black" points="54,-319 54,-338 161,-338 161,-319 54,-319"/>
<text text-anchor="middle" x="107.5" y="-326" font-family="Helvetica,sans-Serif" font-size="10.00">gromacs/utility/real.h</text>
</a>
</g>
</g>
<!-- Node21&#45;&gt;Node22 -->
<g id="edge28" class="edge"><title>Node21&#45;&gt;Node22</title>
<path fill="none" stroke="midnightblue" d="M235.914,-380.396C206.884,-368.89 166.281,-352.797 138.552,-341.807"/>
<polygon fill="midnightblue" stroke="midnightblue" points="139.55,-338.438 128.964,-338.007 136.971,-344.945 139.55,-338.438"/>
</g>
<!-- Node23&#45;&gt;Node3 -->
<g id="edge31" class="edge"><title>Node23&#45;&gt;Node3</title>
<path fill="none" stroke="midnightblue" d="M850.512,-179.399C835.109,-169.951 814.907,-157.559 799.501,-148.109"/>
<polygon fill="midnightblue" stroke="midnightblue" points="800.969,-144.903 790.614,-142.658 797.308,-150.87 800.969,-144.903"/>
</g>
<!-- Node23&#45;&gt;Node14 -->
<g id="edge33" class="edge"><title>Node23&#45;&gt;Node14</title>
<path fill="none" stroke="midnightblue" d="M862.079,-179.253C849.386,-164.036 827.732,-139.838 805.5,-123 785.413,-107.786 760.135,-94.4828 740.852,-85.3548"/>
<polygon fill="midnightblue" stroke="midnightblue" points="742.192,-82.1181 731.646,-81.0967 739.253,-88.4714 742.192,-82.1181"/>
</g>
<!-- Node24 -->
<g id="node24" class="node"><title>Node24</title>
<polygon fill="white" stroke="#bfbfbf" points="854,-123.5 854,-142.5 897,-142.5 897,-123.5 854,-123.5"/>
<text text-anchor="middle" x="875.5" y="-130.5" font-family="Helvetica,sans-Serif" font-size="10.00">cstdio</text>
</g>
<!-- Node23&#45;&gt;Node24 -->
<g id="edge30" class="edge"><title>Node23&#45;&gt;Node24</title>
<path fill="none" stroke="midnightblue" d="M873.974,-179.399C874.241,-171.466 874.577,-161.458 874.866,-152.858"/>
<polygon fill="midnightblue" stroke="midnightblue" points="878.371,-152.77 875.209,-142.658 871.375,-152.535 878.371,-152.77"/>
</g>
<!-- Node25 -->
<g id="node25" class="node"><title>Node25</title>
<polygon fill="white" stroke="#bfbfbf" points="921.5,-123.5 921.5,-142.5 965.5,-142.5 965.5,-123.5 921.5,-123.5"/>
<text text-anchor="middle" x="943.5" y="-130.5" font-family="Helvetica,sans-Serif" font-size="10.00">vector</text>
</g>
<!-- Node23&#45;&gt;Node25 -->
<g id="edge32" class="edge"><title>Node23&#45;&gt;Node25</title>
<path fill="none" stroke="midnightblue" d="M890.089,-179.399C900.785,-170.308 914.688,-158.49 925.628,-149.191"/>
<polygon fill="midnightblue" stroke="midnightblue" points="927.962,-151.801 933.314,-142.658 923.428,-146.468 927.962,-151.801"/>
</g>
<!-- Node26&#45;&gt;Node3 -->
<g id="edge38" class="edge"><title>Node26&#45;&gt;Node3</title>
<path fill="none" stroke="midnightblue" d="M979.544,-184.975C933.331,-173.373 851.325,-152.785 806.988,-141.654"/>
<polygon fill="midnightblue" stroke="midnightblue" points="807.64,-138.209 797.089,-139.169 805.935,-144.999 807.64,-138.209"/>
</g>
<!-- Node26&#45;&gt;Node25 -->
<g id="edge39" class="edge"><title>Node26&#45;&gt;Node25</title>
<path fill="none" stroke="midnightblue" d="M1003.47,-184.975C992.451,-175.608 974.54,-160.384 961.157,-149.008"/>
<polygon fill="midnightblue" stroke="midnightblue" points="963.397,-146.319 953.511,-142.509 958.863,-151.652 963.397,-146.319"/>
</g>
<!-- Node27 -->
<g id="node27" class="node"><title>Node27</title>
<polygon fill="white" stroke="#bfbfbf" points="987,-123.5 987,-142.5 1036,-142.5 1036,-123.5 987,-123.5"/>
<text text-anchor="middle" x="1011.5" y="-130.5" font-family="Helvetica,sans-Serif" font-size="10.00">cstdarg</text>
</g>
<!-- Node26&#45;&gt;Node27 -->
<g id="edge36" class="edge"><title>Node26&#45;&gt;Node27</title>
<path fill="none" stroke="midnightblue" d="M1013.21,-184.975C1012.93,-176.58 1012.49,-163.481 1012.13,-152.663"/>
<polygon fill="midnightblue" stroke="midnightblue" points="1015.62,-152.386 1011.79,-142.509 1008.62,-152.621 1015.62,-152.386"/>
</g>
<!-- Node28 -->
<g id="node28" class="node"><title>Node28</title>
<polygon fill="white" stroke="#bfbfbf" points="1054.5,-123.5 1054.5,-142.5 1100.5,-142.5 1100.5,-123.5 1054.5,-123.5"/>
<text text-anchor="middle" x="1077.5" y="-130.5" font-family="Helvetica,sans-Serif" font-size="10.00">cstring</text>
</g>
<!-- Node26&#45;&gt;Node28 -->
<g id="edge37" class="edge"><title>Node26&#45;&gt;Node28</title>
<path fill="none" stroke="midnightblue" d="M1022.67,-184.975C1032.65,-175.697 1048.81,-160.671 1061.01,-149.331"/>
<polygon fill="midnightblue" stroke="midnightblue" points="1063.41,-151.881 1068.35,-142.509 1058.64,-146.755 1063.41,-151.881"/>
</g>
<!-- Node29&#45;&gt;Node2 -->
<g id="edge41" class="edge"><title>Node29&#45;&gt;Node2</title>
<path fill="none" stroke="midnightblue" d="M260.449,-447.484C195.09,-435.689 99.0828,-408.02 44.5,-344 29.5832,-326.504 25.848,-299.496 25.1705,-281.421"/>
<polygon fill="midnightblue" stroke="midnightblue" points="28.6688,-281.221 25.0754,-271.254 21.6692,-281.287 28.6688,-281.221"/>
</g>
<!-- Node29&#45;&gt;Node4 -->
<g id="edge42" class="edge"><title>Node29&#45;&gt;Node4</title>
<path fill="none" stroke="midnightblue" d="M356.722,-447.475C384.86,-438.664 429.55,-424.668 464.991,-413.57"/>
<polygon fill="midnightblue" stroke="midnightblue" points="466.224,-416.852 474.721,-410.523 464.132,-410.171 466.224,-416.852"/>
</g>
<!-- Node29&#45;&gt;Node21 -->
<g id="edge43" class="edge"><title>Node29&#45;&gt;Node21</title>
<path fill="none" stroke="midnightblue" d="M321.19,-447.475C313.702,-439.793 302.373,-428.172 292.423,-417.964"/>
<polygon fill="midnightblue" stroke="midnightblue" points="294.656,-415.241 285.169,-410.523 289.643,-420.127 294.656,-415.241"/>
</g>
</g>
</svg>
