<?xml version="1.0" encoding="UTF-8" standalone="no"?>
<!DOCTYPE svg PUBLIC "-//W3C//DTD SVG 1.1//EN"
 "http://www.w3.org/Graphics/SVG/1.1/DTD/svg11.dtd">
<!-- Generated by graphviz version 2.38.0 (20140413.2041)
 -->
<!-- Title: src/gromacs/mdlib/nbnxn_ocl/nbnxn_ocl.cpp Pages: 1 -->
<svg width="1931pt" height="609pt"
 viewBox="0.00 0.00 1931.00 609.00" xmlns="http://www.w3.org/2000/svg" xmlns:xlink="http://www.w3.org/1999/xlink">
<g id="graph0" class="graph" transform="scale(1 1) rotate(0) translate(4 605)">
<title>src/gromacs/mdlib/nbnxn_ocl/nbnxn_ocl.cpp</title>
<polygon fill="white" stroke="none" points="-4,4 -4,-605 1927,-605 1927,4 -4,4"/>
<!-- Node1 -->
<g id="node1" class="node"><title>Node1</title>
<polygon fill="#bfbfbf" stroke="black" points="994,-570.5 994,-600.5 1120,-600.5 1120,-570.5 994,-570.5"/>
<text text-anchor="start" x="1002" y="-588.5" font-family="Helvetica,sans-Serif" font-size="10.00">src/gromacs/mdlib/nbnxn</text>
<text text-anchor="middle" x="1057" y="-577.5" font-family="Helvetica,sans-Serif" font-size="10.00">_ocl/nbnxn_ocl.cpp</text>
</g>
<!-- Node2 -->
<g id="node2" class="node"><title>Node2</title>
<g id="a_node2"><a xlink:href="gmxpre_8h.xhtml" target="_top" xlink:title="Prerequisite header file for GROMACS build. ">
<polygon fill="white" stroke="black" points="311.5,-447.5 311.5,-466.5 368.5,-466.5 368.5,-447.5 311.5,-447.5"/>
<text text-anchor="middle" x="340" y="-454.5" font-family="Helvetica,sans-Serif" font-size="10.00">gmxpre.h</text>
</a>
</g>
</g>
<!-- Node1&#45;&gt;Node2 -->
<g id="edge1" class="edge"><title>Node1&#45;&gt;Node2</title>
<path fill="none" stroke="midnightblue" d="M993.77,-584.334C829.714,-583.299 399.893,-576.517 353,-534 337.381,-519.839 336.06,-494.335 337.356,-476.806"/>
<polygon fill="midnightblue" stroke="midnightblue" points="340.86,-476.958 338.461,-466.638 333.901,-476.201 340.86,-476.958"/>
</g>
<!-- Node3 -->
<g id="node3" class="node"><title>Node3</title>
<polygon fill="white" stroke="#bfbfbf" points="1404,-509 1404,-528 1456,-528 1456,-509 1404,-509"/>
<text text-anchor="middle" x="1430" y="-516" font-family="Helvetica,sans-Serif" font-size="10.00">assert.h</text>
</g>
<!-- Node1&#45;&gt;Node3 -->
<g id="edge2" class="edge"><title>Node1&#45;&gt;Node3</title>
<path fill="none" stroke="midnightblue" d="M1120.25,-579.697C1188.89,-573.416 1301.23,-560.004 1395,-534 1397.44,-533.323 1399.94,-532.522 1402.42,-531.649"/>
<polygon fill="midnightblue" stroke="midnightblue" points="1403.7,-534.907 1411.77,-528.039 1401.18,-528.376 1403.7,-534.907"/>
</g>
<!-- Node4 -->
<g id="node4" class="node"><title>Node4</title>
<polygon fill="white" stroke="#bfbfbf" points="1474,-509 1474,-528 1522,-528 1522,-509 1474,-509"/>
<text text-anchor="middle" x="1498" y="-516" font-family="Helvetica,sans-Serif" font-size="10.00">stdlib.h</text>
</g>
<!-- Node1&#45;&gt;Node4 -->
<g id="edge3" class="edge"><title>Node1&#45;&gt;Node4</title>
<path fill="none" stroke="midnightblue" d="M1120.31,-582.35C1201.48,-578.309 1345.95,-566.765 1465,-534 1467.16,-533.406 1469.36,-532.696 1471.54,-531.912"/>
<polygon fill="midnightblue" stroke="midnightblue" points="1472.91,-535.134 1480.88,-528.15 1470.29,-528.641 1472.91,-535.134"/>
</g>
<!-- Node5 -->
<g id="node5" class="node"><title>Node5</title>
<polygon fill="white" stroke="#bfbfbf" points="1540.5,-509 1540.5,-528 1645.5,-528 1645.5,-509 1540.5,-509"/>
<text text-anchor="middle" x="1593" y="-516" font-family="Helvetica,sans-Serif" font-size="10.00">thread_mpi/atomic.h</text>
</g>
<!-- Node1&#45;&gt;Node5 -->
<g id="edge4" class="edge"><title>Node1&#45;&gt;Node5</title>
<path fill="none" stroke="midnightblue" d="M1120.21,-580.263C1211.4,-573.585 1384.95,-558.761 1531,-534 1537.22,-532.945 1543.75,-531.639 1550.15,-530.247"/>
<polygon fill="midnightblue" stroke="midnightblue" points="1551.03,-533.635 1560.01,-528.013 1549.49,-526.808 1551.03,-533.635"/>
</g>
<!-- Node6 -->
<g id="node6" class="node"><title>Node6</title>
<g id="a_node6"><a xlink:href="oclutils_8h.xhtml" target="_top" xlink:title="Declare utility routines for OpenCL. ">
<polygon fill="white" stroke="black" points="77,-185 77,-204 215,-204 215,-185 77,-185"/>
<text text-anchor="middle" x="146" y="-192" font-family="Helvetica,sans-Serif" font-size="10.00">gromacs/gpu_utils/oclutils.h</text>
</a>
</g>
</g>
<!-- Node1&#45;&gt;Node6 -->
<g id="edge5" class="edge"><title>Node1&#45;&gt;Node6</title>
<path fill="none" stroke="midnightblue" d="M993.642,-583.329C771.017,-578.387 38,-554.766 38,-458 38,-458 38,-458 38,-394.5 38,-318.363 99.8251,-243.519 129.921,-211.597"/>
<polygon fill="midnightblue" stroke="midnightblue" points="132.734,-213.722 137.162,-204.097 127.698,-208.86 132.734,-213.722"/>
</g>
<!-- Node10 -->
<g id="node10" class="node"><title>Node10</title>
<g id="a_node10"><a xlink:href="gmxassert_8h.xhtml" target="_top" xlink:title="Defines assert macros customized for Gromacs. ">
<polygon fill="white" stroke="black" points="220.5,-123.5 220.5,-142.5 357.5,-142.5 357.5,-123.5 220.5,-123.5"/>
<text text-anchor="middle" x="289" y="-130.5" font-family="Helvetica,sans-Serif" font-size="10.00">gromacs/utility/gmxassert.h</text>
</a>
</g>
</g>
<!-- Node1&#45;&gt;Node10 -->
<g id="edge65" class="edge"><title>Node1&#45;&gt;Node10</title>
<path fill="none" stroke="midnightblue" d="M993.812,-583.239C794.502,-578.972 187.312,-563.659 104,-534 50.0669,-514.8 0,-515.249 0,-458 0,-458 0,-458 0,-327.5 0,-254.909 11.1529,-224.142 68,-179 89.9026,-161.607 156.182,-149.613 210.489,-142.408"/>
<polygon fill="midnightblue" stroke="midnightblue" points="211.007,-145.87 220.476,-141.118 210.11,-138.928 211.007,-145.87"/>
</g>
<!-- Node15 -->
<g id="node15" class="node"><title>Node15</title>
<g id="a_node15"><a xlink:href="nb__verlet_8h.xhtml" target="_top" xlink:title="This file contains the public interface of the non&#45;bonded Verlet module that implements the NxN clust...">
<polygon fill="white" stroke="black" points="1663.5,-509 1663.5,-528 1794.5,-528 1794.5,-509 1663.5,-509"/>
<text text-anchor="middle" x="1729" y="-516" font-family="Helvetica,sans-Serif" font-size="10.00">gromacs/mdlib/nb_verlet.h</text>
</a>
</g>
</g>
<!-- Node1&#45;&gt;Node15 -->
<g id="edge14" class="edge"><title>Node1&#45;&gt;Node15</title>
<path fill="none" stroke="midnightblue" d="M1120.43,-581.361C1229.75,-575.454 1460.56,-560.803 1654,-534 1662.13,-532.874 1670.7,-531.446 1679.04,-529.927"/>
<polygon fill="midnightblue" stroke="midnightblue" points="1679.86,-533.334 1689.04,-528.044 1678.57,-526.455 1679.86,-533.334"/>
</g>
<!-- Node17 -->
<g id="node17" class="node"><title>Node17</title>
<g id="a_node17"><a xlink:href="nbnxn__gpu_8h.xhtml" target="_top" xlink:title="Declare interface for GPU execution for NBNXN module. ">
<polygon fill="white" stroke="black" points="1066,-380.5 1066,-410.5 1176,-410.5 1176,-380.5 1066,-380.5"/>
<text text-anchor="start" x="1074" y="-398.5" font-family="Helvetica,sans-Serif" font-size="10.00">gromacs/mdlib/nbnxn</text>
<text text-anchor="middle" x="1121" y="-387.5" font-family="Helvetica,sans-Serif" font-size="10.00">_gpu.h</text>
</a>
</g>
</g>
<!-- Node1&#45;&gt;Node17 -->
<g id="edge16" class="edge"><title>Node1&#45;&gt;Node17</title>
<path fill="none" stroke="midnightblue" d="M1061.81,-570.369C1072.72,-538.308 1099.46,-459.774 1112.94,-420.164"/>
<polygon fill="midnightblue" stroke="midnightblue" points="1116.31,-421.133 1116.22,-410.538 1109.69,-418.877 1116.31,-421.133"/>
</g>
<!-- Node19 -->
<g id="node19" class="node"><title>Node19</title>
<g id="a_node19"><a xlink:href="nbnxn__gpu__common_8h.xhtml" target="_top" xlink:title="Common functions for the different NBNXN GPU implementations. ">
<polygon fill="white" stroke="black" points="790,-503.5 790,-533.5 900,-533.5 900,-503.5 790,-503.5"/>
<text text-anchor="start" x="798" y="-521.5" font-family="Helvetica,sans-Serif" font-size="10.00">gromacs/mdlib/nbnxn</text>
<text text-anchor="middle" x="845" y="-510.5" font-family="Helvetica,sans-Serif" font-size="10.00">_gpu_common.h</text>
</a>
</g>
</g>
<!-- Node1&#45;&gt;Node19 -->
<g id="edge19" class="edge"><title>Node1&#45;&gt;Node19</title>
<path fill="none" stroke="midnightblue" d="M1011.26,-570.476C978.91,-560.557 935.348,-547.201 900.929,-536.648"/>
<polygon fill="midnightblue" stroke="midnightblue" points="901.61,-533.196 891.023,-533.611 899.558,-539.889 901.61,-533.196"/>
</g>
<!-- Node29 -->
<g id="node29" class="node"><title>Node29</title>
<g id="a_node29"><a xlink:href="gpu__timing_8h.xhtml" target="_top" xlink:title="Declares data types for GPU timing. ">
<polygon fill="white" stroke="black" points="794,-313.5 794,-343.5 896,-343.5 896,-313.5 794,-313.5"/>
<text text-anchor="start" x="802" y="-331.5" font-family="Helvetica,sans-Serif" font-size="10.00">gromacs/timing/gpu</text>
<text text-anchor="middle" x="845" y="-320.5" font-family="Helvetica,sans-Serif" font-size="10.00">_timing.h</text>
</a>
</g>
</g>
<!-- Node1&#45;&gt;Node29 -->
<g id="edge57" class="edge"><title>Node1&#45;&gt;Node29</title>
<path fill="none" stroke="midnightblue" d="M1045.3,-570.427C1010.19,-528.195 905.545,-402.326 863.144,-351.324"/>
<polygon fill="midnightblue" stroke="midnightblue" points="865.748,-348.982 856.664,-343.53 860.365,-353.457 865.748,-348.982"/>
</g>
<!-- Node30 -->
<g id="node30" class="node"><title>Node30</title>
<g id="a_node30"><a xlink:href="nbnxn__ocl__types_8h.xhtml" target="_top" xlink:title="Data types used internally in the nbnxn_ocl module. ">
<polygon fill="white" stroke="black" points="278,-380.5 278,-410.5 386,-410.5 386,-380.5 278,-380.5"/>
<text text-anchor="start" x="286" y="-398.5" font-family="Helvetica,sans-Serif" font-size="10.00">nbnxn_ocl/nbnxn_ocl</text>
<text text-anchor="middle" x="332" y="-387.5" font-family="Helvetica,sans-Serif" font-size="10.00">_types.h</text>
</a>
</g>
</g>
<!-- Node1&#45;&gt;Node30 -->
<g id="edge69" class="edge"><title>Node1&#45;&gt;Node30</title>
<path fill="none" stroke="midnightblue" d="M993.879,-578.997C923.093,-572.002 805.212,-557.873 706,-534 616.495,-512.462 596.376,-498.848 510,-467 463.82,-449.973 411.509,-429.056 375.61,-414.446"/>
<polygon fill="midnightblue" stroke="midnightblue" points="376.519,-411.037 365.938,-410.501 373.876,-417.519 376.519,-411.037"/>
</g>
<!-- Node37 -->
<g id="node37" class="node"><title>Node37</title>
<g id="a_node37"><a xlink:href="nbnxn__gpu__common__utils_8h.xhtml" target="_top" xlink:title="Implements common util routines for different NBNXN GPU implementations. ">
<polygon fill="white" stroke="black" points="562,-447.5 562,-466.5 700,-466.5 700,-447.5 562,-447.5"/>
<text text-anchor="middle" x="631" y="-454.5" font-family="Helvetica,sans-Serif" font-size="10.00">nbnxn_gpu_common_utils.h</text>
</a>
</g>
</g>
<!-- Node1&#45;&gt;Node37 -->
<g id="edge55" class="edge"><title>Node1&#45;&gt;Node37</title>
<path fill="none" stroke="midnightblue" d="M993.772,-578.177C936.974,-571.274 851.86,-557.873 781,-534 733.277,-517.922 681.761,-489.004 653.233,-471.85"/>
<polygon fill="midnightblue" stroke="midnightblue" points="654.839,-468.731 644.478,-466.519 651.199,-474.71 654.839,-468.731"/>
</g>
<!-- Node38 -->
<g id="node38" class="node"><title>Node38</title>
<g id="a_node38"><a xlink:href="nbnxn__gpu__data__mgmt_8h.xhtml" target="_top" xlink:title="Declare interface for GPU data transfer for NBNXN module. ">
<polygon fill="white" stroke="black" points="1813,-503.5 1813,-533.5 1923,-533.5 1923,-503.5 1813,-503.5"/>
<text text-anchor="start" x="1821" y="-521.5" font-family="Helvetica,sans-Serif" font-size="10.00">gromacs/mdlib/nbnxn</text>
<text text-anchor="middle" x="1868" y="-510.5" font-family="Helvetica,sans-Serif" font-size="10.00">_gpu_data_mgmt.h</text>
</a>
</g>
</g>
<!-- Node1&#45;&gt;Node38 -->
<g id="edge56" class="edge"><title>Node1&#45;&gt;Node38</title>
<path fill="none" stroke="midnightblue" d="M1120.31,-583.53C1247.87,-580.859 1544.89,-571.011 1803.01,-533.986"/>
<polygon fill="midnightblue" stroke="midnightblue" points="1803.55,-537.444 1812.94,-532.544 1802.54,-530.516 1803.55,-537.444"/>
</g>
<!-- Node39 -->
<g id="node39" class="node"><title>Node39</title>
<g id="a_node39"><a xlink:href="cstringutil_8h.xhtml" target="_top" xlink:title="Generic C string handling functions. ">
<polygon fill="white" stroke="black" points="1252,-509 1252,-528 1386,-528 1386,-509 1252,-509"/>
<text text-anchor="middle" x="1319" y="-516" font-family="Helvetica,sans-Serif" font-size="10.00">gromacs/utility/cstringutil.h</text>
</a>
</g>
</g>
<!-- Node1&#45;&gt;Node39 -->
<g id="edge58" class="edge"><title>Node1&#45;&gt;Node39</title>
<path fill="none" stroke="midnightblue" d="M1113.53,-570.476C1161.82,-558.496 1230.32,-541.501 1274.71,-530.488"/>
<polygon fill="midnightblue" stroke="midnightblue" points="1275.76,-533.834 1284.62,-528.029 1274.07,-527.04 1275.76,-533.834"/>
</g>
<!-- Node41 -->
<g id="node41" class="node"><title>Node41</title>
<g id="a_node41"><a xlink:href="fatalerror_8h.xhtml" target="_top" xlink:title="Declares fatal error handling and debugging routines for C code. ">
<polygon fill="white" stroke="black" points="1104,-509 1104,-528 1234,-528 1234,-509 1104,-509"/>
<text text-anchor="middle" x="1169" y="-516" font-family="Helvetica,sans-Serif" font-size="10.00">gromacs/utility/fatalerror.h</text>
</a>
</g>
</g>
<!-- Node1&#45;&gt;Node41 -->
<g id="edge61" class="edge"><title>Node1&#45;&gt;Node41</title>
<path fill="none" stroke="midnightblue" d="M1081.3,-570.396C1100.35,-559.344 1126.68,-544.061 1145.51,-533.132"/>
<polygon fill="midnightblue" stroke="midnightblue" points="1147.45,-536.054 1154.34,-528.007 1143.94,-529.999 1147.45,-536.054"/>
</g>
<!-- Node43 -->
<g id="node43" class="node"><title>Node43</title>
<g id="a_node43"><a xlink:href="nbnxn__ocl__internal_8h.xhtml" target="_top" xlink:title="Internal API of the OpenCL non&#45;bonded module. ">
<polygon fill="white" stroke="black" points="362,-509 362,-528 468,-528 468,-509 362,-509"/>
<text text-anchor="middle" x="415" y="-516" font-family="Helvetica,sans-Serif" font-size="10.00">nbnxn_ocl_internal.h</text>
</a>
</g>
</g>
<!-- Node1&#45;&gt;Node43 -->
<g id="edge66" class="edge"><title>Node1&#45;&gt;Node43</title>
<path fill="none" stroke="midnightblue" d="M993.73,-581.545C887.505,-576.003 666.784,-561.997 482,-534 475.043,-532.946 467.725,-531.605 460.585,-530.167"/>
<polygon fill="midnightblue" stroke="midnightblue" points="460.819,-526.64 450.313,-528.011 459.381,-533.49 460.819,-526.64"/>
</g>
<!-- Node7 -->
<g id="node7" class="node"><title>Node7</title>
<polygon fill="white" stroke="#bfbfbf" points="803.5,-123.5 803.5,-142.5 844.5,-142.5 844.5,-123.5 803.5,-123.5"/>
<text text-anchor="middle" x="824" y="-130.5" font-family="Helvetica,sans-Serif" font-size="10.00">string</text>
</g>
<!-- Node6&#45;&gt;Node7 -->
<g id="edge6" class="edge"><title>Node6&#45;&gt;Node7</title>
<path fill="none" stroke="midnightblue" d="M187.157,-184.982C199.007,-182.765 211.98,-180.563 224,-179 441.026,-150.775 704.693,-138.608 793.298,-135.121"/>
<polygon fill="midnightblue" stroke="midnightblue" points="793.598,-138.612 803.455,-134.729 793.328,-131.617 793.598,-138.612"/>
</g>
<!-- Node8 -->
<g id="node8" class="node"><title>Node8</title>
<g id="a_node8"><a xlink:href="gmxopencl_8h.xhtml" target="_top" xlink:title="Wraps the complexity of including OpenCL in Gromacs. ">
<polygon fill="white" stroke="black" points="1.5,-123.5 1.5,-142.5 156.5,-142.5 156.5,-123.5 1.5,-123.5"/>
<text text-anchor="middle" x="79" y="-130.5" font-family="Helvetica,sans-Serif" font-size="10.00">gromacs/gpu_utils/gmxopencl.h</text>
</a>
</g>
</g>
<!-- Node6&#45;&gt;Node8 -->
<g id="edge7" class="edge"><title>Node6&#45;&gt;Node8</title>
<path fill="none" stroke="midnightblue" d="M136.401,-184.975C125.952,-175.697 109.032,-160.671 96.2635,-149.331"/>
<polygon fill="midnightblue" stroke="midnightblue" points="98.3829,-146.532 88.5817,-142.509 93.7348,-151.766 98.3829,-146.532"/>
</g>
<!-- Node6&#45;&gt;Node10 -->
<g id="edge9" class="edge"><title>Node6&#45;&gt;Node10</title>
<path fill="none" stroke="midnightblue" d="M166.488,-184.975C190.806,-174.857 231.549,-157.905 259.317,-146.351"/>
<polygon fill="midnightblue" stroke="midnightblue" points="260.661,-149.582 268.55,-142.509 257.972,-143.119 260.661,-149.582"/>
</g>
<!-- Node9 -->
<g id="node9" class="node"><title>Node9</title>
<polygon fill="white" stroke="#bfbfbf" points="44.5,-62 44.5,-81 113.5,-81 113.5,-62 44.5,-62"/>
<text text-anchor="middle" x="79" y="-69" font-family="Helvetica,sans-Serif" font-size="10.00">CL/opencl.h</text>
</g>
<!-- Node8&#45;&gt;Node9 -->
<g id="edge8" class="edge"><title>Node8&#45;&gt;Node9</title>
<path fill="none" stroke="midnightblue" d="M79,-123.475C79,-115.08 79,-101.981 79,-91.1631"/>
<polygon fill="midnightblue" stroke="midnightblue" points="82.5001,-91.0091 79,-81.0091 75.5001,-91.0091 82.5001,-91.0091"/>
</g>
<!-- Node11 -->
<g id="node11" class="node"><title>Node11</title>
<g id="a_node11"><a xlink:href="basedefinitions_8h.xhtml" target="_top" xlink:title="Basic types and macros used throughout GROMACS. ">
<polygon fill="white" stroke="black" points="1087.5,-62 1087.5,-81 1244.5,-81 1244.5,-62 1087.5,-62"/>
<text text-anchor="middle" x="1166" y="-69" font-family="Helvetica,sans-Serif" font-size="10.00">gromacs/utility/basedefinitions.h</text>
</a>
</g>
</g>
<!-- Node10&#45;&gt;Node11 -->
<g id="edge10" class="edge"><title>Node10&#45;&gt;Node11</title>
<path fill="none" stroke="midnightblue" d="M357.817,-127.331C515.29,-116.647 901.75,-90.428 1077.01,-78.5378"/>
<polygon fill="midnightblue" stroke="midnightblue" points="1077.48,-82.0134 1087.22,-77.8445 1077.01,-75.0295 1077.48,-82.0134"/>
</g>
<!-- Node14 -->
<g id="node14" class="node"><title>Node14</title>
<g id="a_node14"><a xlink:href="current__function_8h.xhtml" target="_top" xlink:title="Declares GMX_CURRENT_FUNCTION for getting the current function name. ">
<polygon fill="white" stroke="black" points="232.5,-56.5 232.5,-86.5 345.5,-86.5 345.5,-56.5 232.5,-56.5"/>
<text text-anchor="start" x="240.5" y="-74.5" font-family="Helvetica,sans-Serif" font-size="10.00">gromacs/utility/current</text>
<text text-anchor="middle" x="289" y="-63.5" font-family="Helvetica,sans-Serif" font-size="10.00">_function.h</text>
</a>
</g>
</g>
<!-- Node10&#45;&gt;Node14 -->
<g id="edge13" class="edge"><title>Node10&#45;&gt;Node14</title>
<path fill="none" stroke="midnightblue" d="M289,-123.475C289,-116.471 289,-106.192 289,-96.6956"/>
<polygon fill="midnightblue" stroke="midnightblue" points="292.5,-96.5229 289,-86.523 285.5,-96.523 292.5,-96.5229"/>
</g>
<!-- Node12 -->
<g id="node12" class="node"><title>Node12</title>
<polygon fill="white" stroke="#bfbfbf" points="1105.5,-0.5 1105.5,-19.5 1154.5,-19.5 1154.5,-0.5 1105.5,-0.5"/>
<text text-anchor="middle" x="1130" y="-7.5" font-family="Helvetica,sans-Serif" font-size="10.00">stdint.h</text>
</g>
<!-- Node11&#45;&gt;Node12 -->
<g id="edge11" class="edge"><title>Node11&#45;&gt;Node12</title>
<path fill="none" stroke="midnightblue" d="M1160.84,-61.9751C1155.55,-53.2268 1147.16,-39.3691 1140.47,-28.3093"/>
<polygon fill="midnightblue" stroke="midnightblue" points="1143.32,-26.2531 1135.15,-19.5091 1137.33,-29.8768 1143.32,-26.2531"/>
</g>
<!-- Node13 -->
<g id="node13" class="node"><title>Node13</title>
<polygon fill="white" stroke="#bfbfbf" points="1172.5,-0.5 1172.5,-19.5 1231.5,-19.5 1231.5,-0.5 1172.5,-0.5"/>
<text text-anchor="middle" x="1202" y="-7.5" font-family="Helvetica,sans-Serif" font-size="10.00">inttypes.h</text>
</g>
<!-- Node11&#45;&gt;Node13 -->
<g id="edge12" class="edge"><title>Node11&#45;&gt;Node13</title>
<path fill="none" stroke="midnightblue" d="M1171.16,-61.9751C1176.45,-53.2268 1184.84,-39.3691 1191.53,-28.3093"/>
<polygon fill="midnightblue" stroke="midnightblue" points="1194.67,-29.8768 1196.85,-19.5091 1188.68,-26.2531 1194.67,-29.8768"/>
</g>
<!-- Node16 -->
<g id="node16" class="node"><title>Node16</title>
<polygon fill="white" stroke="#bfbfbf" points="1703,-447.5 1703,-466.5 1755,-466.5 1755,-447.5 1703,-447.5"/>
<text text-anchor="middle" x="1729" y="-454.5" font-family="Helvetica,sans-Serif" font-size="10.00">memory</text>
</g>
<!-- Node15&#45;&gt;Node16 -->
<g id="edge15" class="edge"><title>Node15&#45;&gt;Node16</title>
<path fill="none" stroke="midnightblue" d="M1729,-508.975C1729,-500.58 1729,-487.481 1729,-476.663"/>
<polygon fill="midnightblue" stroke="midnightblue" points="1732.5,-476.509 1729,-466.509 1725.5,-476.509 1732.5,-476.509"/>
</g>
<!-- Node17&#45;&gt;Node11 -->
<g id="edge17" class="edge"><title>Node17&#45;&gt;Node11</title>
<path fill="none" stroke="midnightblue" d="M1129.25,-380.39C1142.24,-356.81 1166,-307.534 1166,-262.5 1166,-262.5 1166,-262.5 1166,-193.5 1166,-157.214 1166,-114.807 1166,-91.059"/>
<polygon fill="midnightblue" stroke="midnightblue" points="1169.5,-91.0085 1166,-81.0085 1162.5,-91.0086 1169.5,-91.0085"/>
</g>
<!-- Node18 -->
<g id="node18" class="node"><title>Node18</title>
<g id="a_node18"><a xlink:href="real_8h.xhtml" target="_top" xlink:title="Declares real and related constants. ">
<polygon fill="white" stroke="black" points="278.5,-319 278.5,-338 385.5,-338 385.5,-319 278.5,-319"/>
<text text-anchor="middle" x="332" y="-326" font-family="Helvetica,sans-Serif" font-size="10.00">gromacs/utility/real.h</text>
</a>
</g>
</g>
<!-- Node17&#45;&gt;Node18 -->
<g id="edge18" class="edge"><title>Node17&#45;&gt;Node18</title>
<path fill="none" stroke="midnightblue" d="M1065.59,-391.739C948.539,-385.62 667.566,-369.415 433,-344 420.961,-342.696 408.15,-341.054 395.837,-339.348"/>
<polygon fill="midnightblue" stroke="midnightblue" points="396.031,-335.841 385.64,-337.906 395.051,-342.772 396.031,-335.841"/>
</g>
<!-- Node19&#45;&gt;Node7 -->
<g id="edge21" class="edge"><title>Node19&#45;&gt;Node7</title>
<path fill="none" stroke="midnightblue" d="M854.29,-503.305C874.751,-470.305 920.683,-385.698 905,-313 891.435,-250.118 853.898,-182.741 835.07,-151.618"/>
<polygon fill="midnightblue" stroke="midnightblue" points="837.889,-149.521 829.668,-142.838 831.927,-153.19 837.889,-149.521"/>
</g>
<!-- Node20 -->
<g id="node20" class="node"><title>Node20</title>
<polygon fill="white" stroke="#bfbfbf" points="524.5,-252 524.5,-271 575.5,-271 575.5,-252 524.5,-252"/>
<text text-anchor="middle" x="550" y="-259" font-family="Helvetica,sans-Serif" font-size="10.00">config.h</text>
</g>
<!-- Node19&#45;&gt;Node20 -->
<g id="edge20" class="edge"><title>Node19&#45;&gt;Node20</title>
<path fill="none" stroke="midnightblue" d="M842.473,-503.306C835.065,-466.012 809.834,-364.588 747,-313 700.586,-274.894 628.886,-265.131 585.988,-262.87"/>
<polygon fill="midnightblue" stroke="midnightblue" points="585.872,-259.362 575.736,-262.444 585.582,-266.356 585.872,-259.362"/>
</g>
<!-- Node21 -->
<g id="node21" class="node"><title>Node21</title>
<g id="a_node21"><a xlink:href="nbnxn__cuda__types_8h.xhtml" target="_top" xlink:title="Data types used internally in the nbnxn_cuda module. ">
<polygon fill="white" stroke="black" points="590.5,-380.5 590.5,-410.5 715.5,-410.5 715.5,-380.5 590.5,-380.5"/>
<text text-anchor="start" x="598.5" y="-398.5" font-family="Helvetica,sans-Serif" font-size="10.00">nbnxn_cuda/nbnxn_cuda</text>
<text text-anchor="middle" x="653" y="-387.5" font-family="Helvetica,sans-Serif" font-size="10.00">_types.h</text>
</a>
</g>
</g>
<!-- Node19&#45;&gt;Node21 -->
<g id="edge22" class="edge"><title>Node19&#45;&gt;Node21</title>
<path fill="none" stroke="midnightblue" d="M816.825,-503.337C798.117,-493.659 773.195,-480.233 752,-467 726.743,-451.23 699.248,-431.424 679.658,-416.823"/>
<polygon fill="midnightblue" stroke="midnightblue" points="681.613,-413.914 671.513,-410.713 677.412,-419.514 681.613,-413.914"/>
</g>
<!-- Node19&#45;&gt;Node29 -->
<g id="edge45" class="edge"><title>Node19&#45;&gt;Node29</title>
<path fill="none" stroke="midnightblue" d="M845,-503.369C845,-471.445 845,-393.441 845,-353.671"/>
<polygon fill="midnightblue" stroke="midnightblue" points="848.5,-353.538 845,-343.538 841.5,-353.538 848.5,-353.538"/>
</g>
<!-- Node19&#45;&gt;Node30 -->
<g id="edge35" class="edge"><title>Node19&#45;&gt;Node30</title>
<path fill="none" stroke="midnightblue" d="M789.896,-512.355C730.416,-505.796 633.399,-492.162 553,-467 532.885,-460.705 529.756,-454.344 510,-447 472.867,-433.197 430.202,-420.973 395.952,-412.01"/>
<polygon fill="midnightblue" stroke="midnightblue" points="396.627,-408.569 386.069,-409.453 394.873,-415.346 396.627,-408.569"/>
</g>
<!-- Node31 -->
<g id="node31" class="node"><title>Node31</title>
<g id="a_node31"><a xlink:href="gpu__utils_8h.xhtml" target="_top" xlink:title="Declare functions for detection and initialization for GPU devices. ">
<polygon fill="white" stroke="black" points="876.5,-179.5 876.5,-209.5 991.5,-209.5 991.5,-179.5 876.5,-179.5"/>
<text text-anchor="start" x="884.5" y="-197.5" font-family="Helvetica,sans-Serif" font-size="10.00">gromacs/gpu_utils/gpu</text>
<text text-anchor="middle" x="934" y="-186.5" font-family="Helvetica,sans-Serif" font-size="10.00">_utils.h</text>
</a>
</g>
</g>
<!-- Node19&#45;&gt;Node31 -->
<g id="edge40" class="edge"><title>Node19&#45;&gt;Node31</title>
<path fill="none" stroke="midnightblue" d="M885.691,-503.326C903.875,-495.187 924.258,-483.291 938,-467 959.341,-441.7 962,-429.599 962,-396.5 962,-396.5 962,-396.5 962,-327.5 962,-288.997 950.459,-245.525 942.196,-219.335"/>
<polygon fill="midnightblue" stroke="midnightblue" points="945.434,-217.974 939.006,-209.551 938.778,-220.144 945.434,-217.974"/>
</g>
<!-- Node34 -->
<g id="node34" class="node"><title>Node34</title>
<g id="a_node34"><a xlink:href="stringutil_8h.xhtml" target="_top" xlink:title="Declares common string utility and formatting routines. ">
<polygon fill="white" stroke="black" points="1010,-185 1010,-204 1138,-204 1138,-185 1010,-185"/>
<text text-anchor="middle" x="1074" y="-192" font-family="Helvetica,sans-Serif" font-size="10.00">gromacs/utility/stringutil.h</text>
</a>
</g>
</g>
<!-- Node19&#45;&gt;Node34 -->
<g id="edge46" class="edge"><title>Node19&#45;&gt;Node34</title>
<path fill="none" stroke="midnightblue" d="M891.085,-503.385C936.775,-486.192 1000,-452.316 1000,-396.5 1000,-396.5 1000,-396.5 1000,-327.5 1000,-280.498 1036.14,-234.723 1057.91,-211.415"/>
<polygon fill="midnightblue" stroke="midnightblue" points="1060.5,-213.769 1064.93,-204.143 1055.46,-208.909 1060.5,-213.769"/>
</g>
<!-- Node19&#45;&gt;Node37 -->
<g id="edge51" class="edge"><title>Node19&#45;&gt;Node37</title>
<path fill="none" stroke="midnightblue" d="M794.556,-503.475C756.992,-493.03 706.377,-478.958 671.451,-469.247"/>
<polygon fill="midnightblue" stroke="midnightblue" points="672.166,-465.813 661.594,-466.506 670.291,-472.557 672.166,-465.813"/>
</g>
<!-- Node22 -->
<g id="node22" class="node"><title>Node22</title>
<polygon fill="white" stroke="#bfbfbf" points="618,-313.5 618,-343.5 738,-343.5 738,-313.5 618,-313.5"/>
<text text-anchor="start" x="626" y="-331.5" font-family="Helvetica,sans-Serif" font-size="10.00">gromacs/gpu_utils/cuda</text>
<text text-anchor="middle" x="678" y="-320.5" font-family="Helvetica,sans-Serif" font-size="10.00">_arch_utils.cuh</text>
</g>
<!-- Node21&#45;&gt;Node22 -->
<g id="edge23" class="edge"><title>Node21&#45;&gt;Node22</title>
<path fill="none" stroke="midnightblue" d="M658.425,-380.396C661.504,-372.389 665.438,-362.162 668.97,-352.978"/>
<polygon fill="midnightblue" stroke="midnightblue" points="672.263,-354.166 672.586,-343.577 665.729,-351.654 672.263,-354.166"/>
</g>
<!-- Node23 -->
<g id="node23" class="node"><title>Node23</title>
<polygon fill="white" stroke="#bfbfbf" points="442.5,-319 442.5,-338 599.5,-338 599.5,-319 442.5,-319"/>
<text text-anchor="middle" x="521" y="-326" font-family="Helvetica,sans-Serif" font-size="10.00">gromacs/gpu_utils/cudautils.cuh</text>
</g>
<!-- Node21&#45;&gt;Node23 -->
<g id="edge24" class="edge"><title>Node21&#45;&gt;Node23</title>
<path fill="none" stroke="midnightblue" d="M624.358,-380.396C601.505,-369.142 569.741,-353.501 547.476,-342.538"/>
<polygon fill="midnightblue" stroke="midnightblue" points="548.793,-339.285 538.276,-338.007 545.701,-345.565 548.793,-339.285"/>
</g>
<!-- Node24 -->
<g id="node24" class="node"><title>Node24</title>
<g id="a_node24"><a xlink:href="nbnxn__gpu__types__common_8h.xhtml" target="_top" xlink:title="Implements common internal types for different NBNXN GPU implementations. ">
<polygon fill="white" stroke="black" points="142,-313.5 142,-343.5 260,-343.5 260,-313.5 142,-313.5"/>
<text text-anchor="start" x="150" y="-331.5" font-family="Helvetica,sans-Serif" font-size="10.00">gromacs/mdlib/nbnxn</text>
<text text-anchor="middle" x="201" y="-320.5" font-family="Helvetica,sans-Serif" font-size="10.00">_gpu_types_common.h</text>
</a>
</g>
</g>
<!-- Node21&#45;&gt;Node24 -->
<g id="edge25" class="edge"><title>Node21&#45;&gt;Node24</title>
<path fill="none" stroke="midnightblue" d="M590.249,-387.795C516.109,-379.527 388.85,-364.251 270.264,-344.139"/>
<polygon fill="midnightblue" stroke="midnightblue" points="270.732,-340.668 260.285,-342.431 269.551,-347.568 270.732,-340.668"/>
</g>
<!-- Node21&#45;&gt;Node29 -->
<g id="edge34" class="edge"><title>Node21&#45;&gt;Node29</title>
<path fill="none" stroke="midnightblue" d="M694.661,-380.396C723.721,-370.558 762.686,-357.367 793.665,-346.879"/>
<polygon fill="midnightblue" stroke="midnightblue" points="795.071,-350.098 803.42,-343.577 792.826,-343.468 795.071,-350.098"/>
</g>
<!-- Node24&#45;&gt;Node20 -->
<g id="edge26" class="edge"><title>Node24&#45;&gt;Node20</title>
<path fill="none" stroke="midnightblue" d="M260.294,-314.62C263.234,-314.056 266.149,-313.512 269,-313 377.758,-293.468 408.477,-306.371 515,-277 517.441,-276.327 519.94,-275.528 522.423,-274.657"/>
<polygon fill="midnightblue" stroke="midnightblue" points="523.703,-277.915 531.773,-271.05 521.183,-271.384 523.703,-277.915"/>
</g>
<!-- Node25 -->
<g id="node25" class="node"><title>Node25</title>
<g id="a_node25"><a xlink:href="gpuregiontimer__ocl_8h.xhtml" target="_top" xlink:title="Implements the GPU region timer for OpenCL. ">
<polygon fill="white" stroke="black" points="142.5,-246.5 142.5,-276.5 305.5,-276.5 305.5,-246.5 142.5,-246.5"/>
<text text-anchor="start" x="150.5" y="-264.5" font-family="Helvetica,sans-Serif" font-size="10.00">gromacs/gpu_utils/gpuregiontimer</text>
<text text-anchor="middle" x="224" y="-253.5" font-family="Helvetica,sans-Serif" font-size="10.00">_ocl.h</text>
</a>
</g>
</g>
<!-- Node24&#45;&gt;Node25 -->
<g id="edge27" class="edge"><title>Node24&#45;&gt;Node25</title>
<path fill="none" stroke="midnightblue" d="M205.991,-313.396C208.794,-305.474 212.366,-295.379 215.589,-286.271"/>
<polygon fill="midnightblue" stroke="midnightblue" points="218.983,-287.171 219.019,-276.577 212.384,-284.836 218.983,-287.171"/>
</g>
<!-- Node28 -->
<g id="node28" class="node"><title>Node28</title>
<polygon fill="white" stroke="#bfbfbf" points="324,-252 324,-271 506,-271 506,-252 324,-252"/>
<text text-anchor="middle" x="415" y="-259" font-family="Helvetica,sans-Serif" font-size="10.00">gromacs/gpu_utils/gpuregiontimer.cuh</text>
</g>
<!-- Node24&#45;&gt;Node28 -->
<g id="edge33" class="edge"><title>Node24&#45;&gt;Node28</title>
<path fill="none" stroke="midnightblue" d="M247.171,-313.476C286.031,-301.673 340.92,-285.001 377.208,-273.979"/>
<polygon fill="midnightblue" stroke="midnightblue" points="378.37,-277.284 386.921,-271.029 376.335,-270.586 378.37,-277.284"/>
</g>
<!-- Node25&#45;&gt;Node6 -->
<g id="edge29" class="edge"><title>Node25&#45;&gt;Node6</title>
<path fill="none" stroke="midnightblue" d="M207.075,-246.396C194.432,-235.86 177.173,-221.477 164.226,-210.689"/>
<polygon fill="midnightblue" stroke="midnightblue" points="166.356,-207.908 156.433,-204.195 161.875,-213.285 166.356,-207.908"/>
</g>
<!-- Node26 -->
<g id="node26" class="node"><title>Node26</title>
<polygon fill="white" stroke="#bfbfbf" points="233,-185 233,-204 271,-204 271,-185 233,-185"/>
<text text-anchor="middle" x="252" y="-192" font-family="Helvetica,sans-Serif" font-size="10.00">array</text>
</g>
<!-- Node25&#45;&gt;Node26 -->
<g id="edge28" class="edge"><title>Node25&#45;&gt;Node26</title>
<path fill="none" stroke="midnightblue" d="M230.076,-246.396C234.225,-236.763 239.76,-223.914 244.23,-213.537"/>
<polygon fill="midnightblue" stroke="midnightblue" points="247.513,-214.763 248.255,-204.195 241.084,-211.994 247.513,-214.763"/>
</g>
<!-- Node27 -->
<g id="node27" class="node"><title>Node27</title>
<g id="a_node27"><a xlink:href="gpuregiontimer_8h.xhtml" target="_top" xlink:title="Defines the GPU region timer implementation/wrapper classes. The implementations live in gpuregiontim...">
<polygon fill="white" stroke="black" points="289.5,-185 289.5,-204 378.5,-204 378.5,-185 289.5,-185"/>
<text text-anchor="middle" x="334" y="-192" font-family="Helvetica,sans-Serif" font-size="10.00">gpuregiontimer.h</text>
</a>
</g>
</g>
<!-- Node25&#45;&gt;Node27 -->
<g id="edge30" class="edge"><title>Node25&#45;&gt;Node27</title>
<path fill="none" stroke="midnightblue" d="M247.868,-246.396C266.571,-235.344 292.436,-220.061 310.931,-209.132"/>
<polygon fill="midnightblue" stroke="midnightblue" points="312.775,-212.108 319.604,-204.007 309.214,-206.081 312.775,-212.108"/>
</g>
<!-- Node27&#45;&gt;Node7 -->
<g id="edge31" class="edge"><title>Node27&#45;&gt;Node7</title>
<path fill="none" stroke="midnightblue" d="M378.783,-188.062C477.012,-176.134 709.301,-147.928 793.143,-137.747"/>
<polygon fill="midnightblue" stroke="midnightblue" points="793.784,-141.195 803.289,-136.515 792.94,-134.246 793.784,-141.195"/>
</g>
<!-- Node27&#45;&gt;Node10 -->
<g id="edge32" class="edge"><title>Node27&#45;&gt;Node10</title>
<path fill="none" stroke="midnightblue" d="M327.553,-184.975C320.803,-176.05 310.031,-161.807 301.587,-150.643"/>
<polygon fill="midnightblue" stroke="midnightblue" points="304.259,-148.374 295.435,-142.509 298.676,-152.596 304.259,-148.374"/>
</g>
<!-- Node30&#45;&gt;Node6 -->
<g id="edge37" class="edge"><title>Node30&#45;&gt;Node6</title>
<path fill="none" stroke="midnightblue" d="M277.894,-388.223C225.246,-380.87 150.673,-366.718 133,-344 103.149,-305.628 124.107,-243.61 137.381,-213.31"/>
<polygon fill="midnightblue" stroke="midnightblue" points="140.661,-214.554 141.659,-204.006 134.301,-211.629 140.661,-214.554"/>
</g>
<!-- Node30&#45;&gt;Node8 -->
<g id="edge36" class="edge"><title>Node30&#45;&gt;Node8</title>
<path fill="none" stroke="midnightblue" d="M277.748,-387.801C221.837,-379.877 139.605,-365.05 116,-344 68.7856,-301.896 78.8264,-272.328 68,-210 64.6218,-190.552 68.8309,-168.177 72.9809,-152.767"/>
<polygon fill="midnightblue" stroke="midnightblue" points="76.4136,-153.5 75.8829,-142.918 69.6991,-151.521 76.4136,-153.5"/>
</g>
<!-- Node30&#45;&gt;Node18 -->
<g id="edge39" class="edge"><title>Node30&#45;&gt;Node18</title>
<path fill="none" stroke="midnightblue" d="M332,-380.396C332,-371.064 332,-358.714 332,-348.517"/>
<polygon fill="midnightblue" stroke="midnightblue" points="335.5,-348.195 332,-338.195 328.5,-348.195 335.5,-348.195"/>
</g>
<!-- Node30&#45;&gt;Node24 -->
<g id="edge38" class="edge"><title>Node30&#45;&gt;Node24</title>
<path fill="none" stroke="midnightblue" d="M303.575,-380.396C284.52,-370.941 259.224,-358.39 238.52,-348.117"/>
<polygon fill="midnightblue" stroke="midnightblue" points="239.883,-344.886 229.37,-343.577 236.772,-351.157 239.883,-344.886"/>
</g>
<!-- Node31&#45;&gt;Node7 -->
<g id="edge42" class="edge"><title>Node31&#45;&gt;Node7</title>
<path fill="none" stroke="midnightblue" d="M907.932,-179.399C890.135,-169.773 866.688,-157.09 849.101,-147.577"/>
<polygon fill="midnightblue" stroke="midnightblue" points="850.467,-144.337 840.006,-142.658 847.136,-150.494 850.467,-144.337"/>
</g>
<!-- Node31&#45;&gt;Node11 -->
<g id="edge44" class="edge"><title>Node31&#45;&gt;Node11</title>
<path fill="none" stroke="midnightblue" d="M933.773,-179.492C934.308,-163.556 937.714,-137.828 953,-123 972.285,-104.294 1035.24,-90.8463 1087.74,-82.5547"/>
<polygon fill="midnightblue" stroke="midnightblue" points="1088.4,-85.9952 1097.75,-81.0158 1087.33,-79.0766 1088.4,-85.9952"/>
</g>
<!-- Node32 -->
<g id="node32" class="node"><title>Node32</title>
<polygon fill="white" stroke="#bfbfbf" points="862.5,-123.5 862.5,-142.5 905.5,-142.5 905.5,-123.5 862.5,-123.5"/>
<text text-anchor="middle" x="884" y="-130.5" font-family="Helvetica,sans-Serif" font-size="10.00">cstdio</text>
</g>
<!-- Node31&#45;&gt;Node32 -->
<g id="edge41" class="edge"><title>Node31&#45;&gt;Node32</title>
<path fill="none" stroke="midnightblue" d="M922.151,-179.399C914.885,-170.753 905.548,-159.642 897.929,-150.576"/>
<polygon fill="midnightblue" stroke="midnightblue" points="900.388,-148.062 891.275,-142.658 895.029,-152.565 900.388,-148.062"/>
</g>
<!-- Node33 -->
<g id="node33" class="node"><title>Node33</title>
<polygon fill="white" stroke="#bfbfbf" points="962,-123.5 962,-142.5 1006,-142.5 1006,-123.5 962,-123.5"/>
<text text-anchor="middle" x="984" y="-130.5" font-family="Helvetica,sans-Serif" font-size="10.00">vector</text>
</g>
<!-- Node31&#45;&gt;Node33 -->
<g id="edge43" class="edge"><title>Node31&#45;&gt;Node33</title>
<path fill="none" stroke="midnightblue" d="M945.849,-179.399C953.115,-170.753 962.452,-159.642 970.071,-150.576"/>
<polygon fill="midnightblue" stroke="midnightblue" points="972.971,-152.565 976.725,-142.658 967.612,-148.062 972.971,-152.565"/>
</g>
<!-- Node34&#45;&gt;Node7 -->
<g id="edge49" class="edge"><title>Node34&#45;&gt;Node7</title>
<path fill="none" stroke="midnightblue" d="M1032.22,-184.946C989.697,-176.02 921.7,-161.143 854.452,-143.248"/>
<polygon fill="midnightblue" stroke="midnightblue" points="855.104,-139.799 844.539,-140.586 853.289,-146.56 855.104,-139.799"/>
</g>
<!-- Node34&#45;&gt;Node33 -->
<g id="edge50" class="edge"><title>Node34&#45;&gt;Node33</title>
<path fill="none" stroke="midnightblue" d="M1061.11,-184.975C1046.54,-175.343 1022.6,-159.517 1005.25,-148.052"/>
<polygon fill="midnightblue" stroke="midnightblue" points="1007.14,-145.104 996.871,-142.509 1003.28,-150.944 1007.14,-145.104"/>
</g>
<!-- Node35 -->
<g id="node35" class="node"><title>Node35</title>
<polygon fill="white" stroke="#bfbfbf" points="1024.5,-123.5 1024.5,-142.5 1073.5,-142.5 1073.5,-123.5 1024.5,-123.5"/>
<text text-anchor="middle" x="1049" y="-130.5" font-family="Helvetica,sans-Serif" font-size="10.00">cstdarg</text>
</g>
<!-- Node34&#45;&gt;Node35 -->
<g id="edge47" class="edge"><title>Node34&#45;&gt;Node35</title>
<path fill="none" stroke="midnightblue" d="M1070.42,-184.975C1066.82,-176.404 1061.15,-162.927 1056.56,-151.983"/>
<polygon fill="midnightblue" stroke="midnightblue" points="1059.68,-150.373 1052.58,-142.509 1053.22,-153.084 1059.68,-150.373"/>
</g>
<!-- Node36 -->
<g id="node36" class="node"><title>Node36</title>
<polygon fill="white" stroke="#bfbfbf" points="1092,-123.5 1092,-142.5 1138,-142.5 1138,-123.5 1092,-123.5"/>
<text text-anchor="middle" x="1115" y="-130.5" font-family="Helvetica,sans-Serif" font-size="10.00">cstring</text>
</g>
<!-- Node34&#45;&gt;Node36 -->
<g id="edge48" class="edge"><title>Node34&#45;&gt;Node36</title>
<path fill="none" stroke="midnightblue" d="M1079.87,-184.975C1085.96,-176.138 1095.64,-162.089 1103.3,-150.975"/>
<polygon fill="midnightblue" stroke="midnightblue" points="1106.34,-152.729 1109.14,-142.509 1100.58,-148.758 1106.34,-152.729"/>
</g>
<!-- Node37&#45;&gt;Node20 -->
<g id="edge52" class="edge"><title>Node37&#45;&gt;Node20</title>
<path fill="none" stroke="midnightblue" d="M594.535,-447.388C547.56,-434.117 467.82,-403.701 433,-344 426.059,-332.099 425.43,-324.512 433,-313 434.293,-311.034 485.582,-289.36 519.817,-275.053"/>
<polygon fill="midnightblue" stroke="midnightblue" points="521.511,-278.139 529.392,-271.058 518.816,-271.678 521.511,-278.139"/>
</g>
<!-- Node37&#45;&gt;Node21 -->
<g id="edge53" class="edge"><title>Node37&#45;&gt;Node21</title>
<path fill="none" stroke="midnightblue" d="M634.152,-447.475C636.797,-440.32 640.707,-429.748 644.28,-420.084"/>
<polygon fill="midnightblue" stroke="midnightblue" points="647.63,-421.116 647.815,-410.523 641.064,-418.689 647.63,-421.116"/>
</g>
<!-- Node37&#45;&gt;Node30 -->
<g id="edge54" class="edge"><title>Node37&#45;&gt;Node30</title>
<path fill="none" stroke="midnightblue" d="M585.804,-447.441C539.203,-438.557 464.454,-424.149 400,-411 398.736,-410.742 397.459,-410.481 396.172,-410.216"/>
<polygon fill="midnightblue" stroke="midnightblue" points="396.675,-406.746 386.172,-408.142 395.253,-413.6 396.675,-406.746"/>
</g>
<!-- Node39&#45;&gt;Node11 -->
<g id="edge60" class="edge"><title>Node39&#45;&gt;Node11</title>
<path fill="none" stroke="midnightblue" d="M1323.41,-508.956C1333.03,-489.53 1355,-440.334 1355,-396.5 1355,-396.5 1355,-396.5 1355,-193.5 1355,-129.732 1277.74,-98.0429 1222.02,-83.4801"/>
<polygon fill="midnightblue" stroke="midnightblue" points="1222.78,-80.0642 1212.23,-81.039 1221.09,-86.8559 1222.78,-80.0642"/>
</g>
<!-- Node40 -->
<g id="node40" class="node"><title>Node40</title>
<polygon fill="white" stroke="#bfbfbf" points="1281,-447.5 1281,-466.5 1327,-466.5 1327,-447.5 1281,-447.5"/>
<text text-anchor="middle" x="1304" y="-454.5" font-family="Helvetica,sans-Serif" font-size="10.00">stdio.h</text>
</g>
<!-- Node39&#45;&gt;Node40 -->
<g id="edge59" class="edge"><title>Node39&#45;&gt;Node40</title>
<path fill="none" stroke="midnightblue" d="M1316.85,-508.975C1314.71,-500.492 1311.36,-487.204 1308.62,-476.322"/>
<polygon fill="midnightblue" stroke="midnightblue" points="1311.98,-475.35 1306.15,-466.509 1305.2,-477.061 1311.98,-475.35"/>
</g>
<!-- Node41&#45;&gt;Node11 -->
<g id="edge64" class="edge"><title>Node41&#45;&gt;Node11</title>
<path fill="none" stroke="midnightblue" d="M1171.75,-508.986C1180,-482.623 1204,-399.883 1204,-329.5 1204,-329.5 1204,-329.5 1204,-193.5 1204,-155.312 1186.56,-113.33 1175.31,-90.2224"/>
<polygon fill="midnightblue" stroke="midnightblue" points="1178.29,-88.3646 1170.66,-81.0153 1172.04,-91.5195 1178.29,-88.3646"/>
</g>
<!-- Node41&#45;&gt;Node40 -->
<g id="edge63" class="edge"><title>Node41&#45;&gt;Node40</title>
<path fill="none" stroke="midnightblue" d="M1188.34,-508.975C1211.1,-498.945 1249.09,-482.2 1275.29,-470.655"/>
<polygon fill="midnightblue" stroke="midnightblue" points="1276.95,-473.745 1284.69,-466.509 1274.13,-467.339 1276.95,-473.745"/>
</g>
<!-- Node42 -->
<g id="node42" class="node"><title>Node42</title>
<polygon fill="white" stroke="#bfbfbf" points="1211,-447.5 1211,-466.5 1263,-466.5 1263,-447.5 1211,-447.5"/>
<text text-anchor="middle" x="1237" y="-454.5" font-family="Helvetica,sans-Serif" font-size="10.00">stdarg.h</text>
</g>
<!-- Node41&#45;&gt;Node42 -->
<g id="edge62" class="edge"><title>Node41&#45;&gt;Node42</title>
<path fill="none" stroke="midnightblue" d="M1178.74,-508.975C1189.35,-499.697 1206.52,-484.671 1219.48,-473.331"/>
<polygon fill="midnightblue" stroke="midnightblue" points="1222.05,-475.728 1227.28,-466.509 1217.44,-470.46 1222.05,-475.728"/>
</g>
<!-- Node43&#45;&gt;Node2 -->
<g id="edge67" class="edge"><title>Node43&#45;&gt;Node2</title>
<path fill="none" stroke="midnightblue" d="M404.254,-508.975C392.447,-499.608 373.257,-484.384 358.918,-473.008"/>
<polygon fill="midnightblue" stroke="midnightblue" points="360.735,-469.982 350.726,-466.509 356.385,-475.466 360.735,-469.982"/>
</g>
<!-- Node43&#45;&gt;Node30 -->
<g id="edge68" class="edge"><title>Node43&#45;&gt;Node30</title>
<path fill="none" stroke="midnightblue" d="M411.157,-508.879C404.888,-495.207 391.68,-467.953 377,-447 369.984,-436.986 361.231,-426.763 353.314,-418.159"/>
<polygon fill="midnightblue" stroke="midnightblue" points="355.756,-415.646 346.353,-410.764 350.659,-420.444 355.756,-415.646"/>
</g>
</g>
</svg>
