<?xml version="1.0" encoding="UTF-8" standalone="no"?>
<!DOCTYPE svg PUBLIC "-//W3C//DTD SVG 1.1//EN"
 "http://www.w3.org/Graphics/SVG/1.1/DTD/svg11.dtd">
<!-- Generated by graphviz version 2.38.0 (20140413.2041)
 -->
<!-- Title: src/gromacs/options/optionstoragetemplate.h Pages: 1 -->
<svg width="772pt" height="173pt"
 viewBox="0.00 0.00 772.00 173.00" xmlns="http://www.w3.org/2000/svg" xmlns:xlink="http://www.w3.org/1999/xlink">
<g id="graph0" class="graph" transform="scale(1 1) rotate(0) translate(4 169)">
<title>src/gromacs/options/optionstoragetemplate.h</title>
<polygon fill="white" stroke="none" points="-4,4 -4,-169 768,-169 768,4 -4,4"/>
<!-- Node1 -->
<g id="node1" class="node"><title>Node1</title>
<polygon fill="#bfbfbf" stroke="black" points="321.5,-134.5 321.5,-164.5 445.5,-164.5 445.5,-134.5 321.5,-134.5"/>
<text text-anchor="start" x="329.5" y="-152.5" font-family="Helvetica,sans-Serif" font-size="10.00">src/gromacs/options</text>
<text text-anchor="middle" x="383.5" y="-141.5" font-family="Helvetica,sans-Serif" font-size="10.00">/optionstoragetemplate.h</text>
</g>
<!-- Node2 -->
<g id="node2" class="node"><title>Node2</title>
<g id="a_node2"><a xlink:href="basicoptionstorage_8h.xhtml" target="_top" xlink:title="Declares storage classes for basic option types. ">
<polygon fill="white" stroke="black" points="114.5,-67.5 114.5,-97.5 224.5,-97.5 224.5,-67.5 114.5,-67.5"/>
<text text-anchor="start" x="122.5" y="-85.5" font-family="Helvetica,sans-Serif" font-size="10.00">src/gromacs/options</text>
<text text-anchor="middle" x="169.5" y="-74.5" font-family="Helvetica,sans-Serif" font-size="10.00">/basicoptionstorage.h</text>
</a>
</g>
</g>
<!-- Node1&#45;&gt;Node2 -->
<g id="edge1" class="edge"><title>Node1&#45;&gt;Node2</title>
<path fill="none" stroke="midnightblue" d="M327.347,-131.444C292.658,-120.908 248.678,-107.549 215.957,-97.6109"/>
<polygon fill="midnightblue" stroke="midnightblue" points="326.743,-134.919 337.329,-134.476 328.778,-128.221 326.743,-134.919"/>
</g>
<!-- Node5 -->
<g id="node5" class="node"><title>Node5</title>
<g id="a_node5"><a xlink:href="filenameoptionstorage_8h.xhtml" target="_top" xlink:title="Declares gmx::FileNameOptionStorage. ">
<polygon fill="white" stroke="black" points="243,-67.5 243,-97.5 366,-97.5 366,-67.5 243,-67.5"/>
<text text-anchor="start" x="251" y="-85.5" font-family="Helvetica,sans-Serif" font-size="10.00">src/gromacs/options</text>
<text text-anchor="middle" x="304.5" y="-74.5" font-family="Helvetica,sans-Serif" font-size="10.00">/filenameoptionstorage.h</text>
</a>
</g>
</g>
<!-- Node1&#45;&gt;Node5 -->
<g id="edge4" class="edge"><title>Node1&#45;&gt;Node5</title>
<path fill="none" stroke="midnightblue" d="M358.443,-127.883C346.437,-118.005 332.368,-106.429 321.608,-97.5765"/>
<polygon fill="midnightblue" stroke="midnightblue" points="356.412,-130.745 366.358,-134.396 360.86,-125.34 356.412,-130.745"/>
</g>
<!-- Node7 -->
<g id="node7" class="node"><title>Node7</title>
<g id="a_node7"><a xlink:href="abstractoptionstorage_8cpp.xhtml" target="_top" xlink:title="Tests proper handling of option storage. ">
<polygon fill="white" stroke="black" points="384,-67.5 384,-97.5 541,-97.5 541,-67.5 384,-67.5"/>
<text text-anchor="start" x="392" y="-85.5" font-family="Helvetica,sans-Serif" font-size="10.00">src/gromacs/options</text>
<text text-anchor="middle" x="462.5" y="-74.5" font-family="Helvetica,sans-Serif" font-size="10.00">/tests/abstractoptionstorage.cpp</text>
</a>
</g>
</g>
<!-- Node1&#45;&gt;Node7 -->
<g id="edge6" class="edge"><title>Node1&#45;&gt;Node7</title>
<path fill="none" stroke="midnightblue" d="M408.557,-127.883C420.563,-118.005 434.632,-106.429 445.392,-97.5765"/>
<polygon fill="midnightblue" stroke="midnightblue" points="406.14,-125.34 400.642,-134.396 410.588,-130.745 406.14,-125.34"/>
</g>
<!-- Node8 -->
<g id="node8" class="node"><title>Node8</title>
<g id="a_node8"><a xlink:href="selectionoptionstorage_8h.xhtml" target="_top" xlink:title="Declares gmx::SelectionOptionStorage. ">
<polygon fill="white" stroke="black" points="559,-67.5 559,-97.5 684,-97.5 684,-67.5 559,-67.5"/>
<text text-anchor="start" x="567" y="-85.5" font-family="Helvetica,sans-Serif" font-size="10.00">src/gromacs/selection</text>
<text text-anchor="middle" x="621.5" y="-74.5" font-family="Helvetica,sans-Serif" font-size="10.00">/selectionoptionstorage.h</text>
</a>
</g>
</g>
<!-- Node1&#45;&gt;Node8 -->
<g id="edge7" class="edge"><title>Node1&#45;&gt;Node8</title>
<path fill="none" stroke="midnightblue" d="M444.959,-131.715C483.689,-121.137 533.129,-107.635 569.832,-97.6109"/>
<polygon fill="midnightblue" stroke="midnightblue" points="443.574,-128.465 434.849,-134.476 445.418,-135.218 443.574,-128.465"/>
</g>
<!-- Node3 -->
<g id="node3" class="node"><title>Node3</title>
<g id="a_node3"><a xlink:href="abstractoption_8cpp.xhtml" target="_top" xlink:title="Implements classes in abstractoption.h and abstractoptionstorage.h. ">
<polygon fill="white" stroke="black" points="0,-0.5 0,-30.5 105,-30.5 105,-0.5 0,-0.5"/>
<text text-anchor="start" x="8" y="-18.5" font-family="Helvetica,sans-Serif" font-size="10.00">src/gromacs/options</text>
<text text-anchor="middle" x="52.5" y="-7.5" font-family="Helvetica,sans-Serif" font-size="10.00">/abstractoption.cpp</text>
</a>
</g>
</g>
<!-- Node2&#45;&gt;Node3 -->
<g id="edge2" class="edge"><title>Node2&#45;&gt;Node3</title>
<path fill="none" stroke="midnightblue" d="M135.184,-62.4354C116.827,-52.2374 94.6154,-39.8975 77.8377,-30.5765"/>
<polygon fill="midnightblue" stroke="midnightblue" points="133.671,-65.599 144.113,-67.396 137.071,-59.4799 133.671,-65.599"/>
</g>
<!-- Node4 -->
<g id="node4" class="node"><title>Node4</title>
<g id="a_node4"><a xlink:href="basicoptions_8cpp.xhtml" target="_top" xlink:title="Implements classes in basicoptions.h and basicoptionstorage.h. ">
<polygon fill="white" stroke="black" points="123,-0.5 123,-30.5 228,-30.5 228,-0.5 123,-0.5"/>
<text text-anchor="start" x="131" y="-18.5" font-family="Helvetica,sans-Serif" font-size="10.00">src/gromacs/options</text>
<text text-anchor="middle" x="175.5" y="-7.5" font-family="Helvetica,sans-Serif" font-size="10.00">/basicoptions.cpp</text>
</a>
</g>
</g>
<!-- Node2&#45;&gt;Node4 -->
<g id="edge3" class="edge"><title>Node2&#45;&gt;Node4</title>
<path fill="none" stroke="midnightblue" d="M171.724,-57.4029C172.558,-48.3703 173.478,-38.4078 174.201,-30.5765"/>
<polygon fill="midnightblue" stroke="midnightblue" points="168.236,-57.1166 170.802,-67.396 175.206,-57.76 168.236,-57.1166"/>
</g>
<!-- Node6 -->
<g id="node6" class="node"><title>Node6</title>
<g id="a_node6"><a xlink:href="filenameoption_8cpp.xhtml" target="_top" xlink:title="Implements classes in filenameoption.h and filenameoptionstorage.h. ">
<polygon fill="white" stroke="black" points="252,-0.5 252,-30.5 357,-30.5 357,-0.5 252,-0.5"/>
<text text-anchor="start" x="260" y="-18.5" font-family="Helvetica,sans-Serif" font-size="10.00">src/gromacs/options</text>
<text text-anchor="middle" x="304.5" y="-7.5" font-family="Helvetica,sans-Serif" font-size="10.00">/filenameoption.cpp</text>
</a>
</g>
</g>
<!-- Node5&#45;&gt;Node6 -->
<g id="edge5" class="edge"><title>Node5&#45;&gt;Node6</title>
<path fill="none" stroke="midnightblue" d="M304.5,-57.1081C304.5,-48.1539 304.5,-38.3227 304.5,-30.5765"/>
<polygon fill="midnightblue" stroke="midnightblue" points="301,-57.3959 304.5,-67.396 308,-57.396 301,-57.3959"/>
</g>
<!-- Node9 -->
<g id="node9" class="node"><title>Node9</title>
<g id="a_node9"><a xlink:href="selectionoption_8cpp.xhtml" target="_top" xlink:title="Implements classes in selectionoption.h and selectionoptionstorage.h. ">
<polygon fill="white" stroke="black" points="492,-0.5 492,-30.5 605,-30.5 605,-0.5 492,-0.5"/>
<text text-anchor="start" x="500" y="-18.5" font-family="Helvetica,sans-Serif" font-size="10.00">src/gromacs/selection</text>
<text text-anchor="middle" x="548.5" y="-7.5" font-family="Helvetica,sans-Serif" font-size="10.00">/selectionoption.cpp</text>
</a>
</g>
</g>
<!-- Node8&#45;&gt;Node9 -->
<g id="edge8" class="edge"><title>Node8&#45;&gt;Node9</title>
<path fill="none" stroke="midnightblue" d="M598.025,-60.5978C587.003,-50.7831 574.156,-39.3442 564.309,-30.5765"/>
<polygon fill="midnightblue" stroke="midnightblue" points="595.864,-63.3599 605.66,-67.396 600.519,-58.132 595.864,-63.3599"/>
</g>
<!-- Node10 -->
<g id="node10" class="node"><title>Node10</title>
<g id="a_node10"><a xlink:href="selectionoptionmanager_8cpp.xhtml" target="_top" xlink:title="Implements gmx::SelectionOptionManager. ">
<polygon fill="white" stroke="black" points="623,-0.5 623,-30.5 764,-30.5 764,-0.5 623,-0.5"/>
<text text-anchor="start" x="631" y="-18.5" font-family="Helvetica,sans-Serif" font-size="10.00">src/gromacs/selection</text>
<text text-anchor="middle" x="693.5" y="-7.5" font-family="Helvetica,sans-Serif" font-size="10.00">/selectionoptionmanager.cpp</text>
</a>
</g>
</g>
<!-- Node8&#45;&gt;Node10 -->
<g id="edge9" class="edge"><title>Node8&#45;&gt;Node10</title>
<path fill="none" stroke="midnightblue" d="M644.653,-60.5978C655.525,-50.7831 668.196,-39.3442 677.908,-30.5765"/>
<polygon fill="midnightblue" stroke="midnightblue" points="642.2,-58.097 637.123,-67.396 646.891,-63.2929 642.2,-58.097"/>
</g>
</g>
</svg>
