<?xml version="1.0" encoding="UTF-8" standalone="no"?>
<!DOCTYPE svg PUBLIC "-//W3C//DTD SVG 1.1//EN"
 "http://www.w3.org/Graphics/SVG/1.1/DTD/svg11.dtd">
<!-- Generated by graphviz version 2.38.0 (20140413.2041)
 -->
<!-- Title: src/gromacs/math/paddedvector.h Pages: 1 -->
<svg width="1463pt" height="162pt"
 viewBox="0.00 0.00 1462.50 162.00" xmlns="http://www.w3.org/2000/svg" xmlns:xlink="http://www.w3.org/1999/xlink">
<g id="graph0" class="graph" transform="scale(1 1) rotate(0) translate(4 158)">
<title>src/gromacs/math/paddedvector.h</title>
<polygon fill="white" stroke="none" points="-4,4 -4,-158 1458.5,-158 1458.5,4 -4,4"/>
<!-- Node1 -->
<g id="node1" class="node"><title>Node1</title>
<polygon fill="#bfbfbf" stroke="black" points="609,-134.5 609,-153.5 774,-153.5 774,-134.5 609,-134.5"/>
<text text-anchor="middle" x="691.5" y="-141.5" font-family="Helvetica,sans-Serif" font-size="10.00">src/gromacs/math/paddedvector.h</text>
</g>
<!-- Node2 -->
<g id="node2" class="node"><title>Node2</title>
<g id="a_node2"><a xlink:href="state_8h.xhtml" target="_top" xlink:title="This file contains the definition of the microstate of the simulated system. ">
<polygon fill="white" stroke="black" points="636,-67.5 636,-97.5 747,-97.5 747,-67.5 636,-67.5"/>
<text text-anchor="start" x="644" y="-85.5" font-family="Helvetica,sans-Serif" font-size="10.00">src/gromacs/mdtypes</text>
<text text-anchor="middle" x="691.5" y="-74.5" font-family="Helvetica,sans-Serif" font-size="10.00">/state.h</text>
</a>
</g>
</g>
<!-- Node1&#45;&gt;Node2 -->
<g id="edge1" class="edge"><title>Node1&#45;&gt;Node2</title>
<path fill="none" stroke="midnightblue" d="M691.5,-124.235C691.5,-115.586 691.5,-105.497 691.5,-97.523"/>
<polygon fill="midnightblue" stroke="midnightblue" points="688,-124.475 691.5,-134.475 695,-124.475 688,-124.475"/>
</g>
<!-- Node3 -->
<g id="node3" class="node"><title>Node3</title>
<g id="a_node3"><a xlink:href="awh_8cpp.xhtml" target="_top" xlink:title="Implements the Awh class. ">
<polygon fill="white" stroke="black" points="0,-6 0,-25 131,-25 131,-6 0,-6"/>
<text text-anchor="middle" x="65.5" y="-13" font-family="Helvetica,sans-Serif" font-size="10.00">src/gromacs/awh/awh.cpp</text>
</a>
</g>
</g>
<!-- Node2&#45;&gt;Node3 -->
<g id="edge2" class="edge"><title>Node2&#45;&gt;Node3</title>
<path fill="none" stroke="midnightblue" d="M625.637,-77.6603C521.883,-71.1204 314.2,-56.0402 139.5,-31 128.226,-29.384 116.068,-27.1917 104.929,-25.0015"/>
<polygon fill="midnightblue" stroke="midnightblue" points="625.452,-81.1555 635.651,-78.2852 625.888,-74.1691 625.452,-81.1555"/>
</g>
<!-- Node4 -->
<g id="node4" class="node"><title>Node4</title>
<g id="a_node4"><a xlink:href="domdec__topology_8cpp.xhtml" target="_top" xlink:title="This file defines functions used by the domdec module while managing the construction, use and error checking for topologies local to a DD rank. ">
<polygon fill="white" stroke="black" points="149,-0.5 149,-30.5 264,-30.5 264,-0.5 149,-0.5"/>
<text text-anchor="start" x="157" y="-18.5" font-family="Helvetica,sans-Serif" font-size="10.00">src/gromacs/domdec</text>
<text text-anchor="middle" x="206.5" y="-7.5" font-family="Helvetica,sans-Serif" font-size="10.00">/domdec_topology.cpp</text>
</a>
</g>
</g>
<!-- Node2&#45;&gt;Node4 -->
<g id="edge3" class="edge"><title>Node2&#45;&gt;Node4</title>
<path fill="none" stroke="midnightblue" d="M625.659,-75.5441C542.896,-67.6036 396.626,-52.0649 272.5,-31 269.724,-30.5289 266.889,-30.0187 264.029,-29.4809"/>
<polygon fill="midnightblue" stroke="midnightblue" points="625.391,-79.0343 635.677,-76.4979 626.054,-72.0658 625.391,-79.0343"/>
</g>
<!-- Node5 -->
<g id="node5" class="node"><title>Node5</title>
<g id="a_node5"><a xlink:href="pme-load-balancing_8cpp.xhtml" target="_top" xlink:title="This file contains function definitions necessary for managing automatic load balance of PME calculat...">
<polygon fill="white" stroke="black" points="282,-0.5 282,-30.5 403,-30.5 403,-0.5 282,-0.5"/>
<text text-anchor="start" x="290" y="-18.5" font-family="Helvetica,sans-Serif" font-size="10.00">src/gromacs/ewald/pme</text>
<text text-anchor="middle" x="342.5" y="-7.5" font-family="Helvetica,sans-Serif" font-size="10.00">&#45;load&#45;balancing.cpp</text>
</a>
</g>
</g>
<!-- Node2&#45;&gt;Node5 -->
<g id="edge4" class="edge"><title>Node2&#45;&gt;Node5</title>
<path fill="none" stroke="midnightblue" d="M625.951,-70.1158C569.356,-60.172 485.438,-45.153 412.5,-31 409.454,-30.409 406.336,-29.7951 403.188,-29.1685"/>
<polygon fill="midnightblue" stroke="midnightblue" points="625.386,-73.5702 635.841,-71.8508 626.596,-66.6755 625.386,-73.5702"/>
</g>
<!-- Node6 -->
<g id="node6" class="node"><title>Node6</title>
<g id="a_node6"><a xlink:href="gmx__wham_8cpp.xhtml" target="_top" xlink:title="Implementation of the Weighted Histogram Analysis Method (WHAM) ">
<polygon fill="white" stroke="black" points="421.5,-0.5 421.5,-30.5 529.5,-30.5 529.5,-0.5 421.5,-0.5"/>
<text text-anchor="start" x="429.5" y="-18.5" font-family="Helvetica,sans-Serif" font-size="10.00">src/gromacs/gmxana</text>
<text text-anchor="middle" x="475.5" y="-7.5" font-family="Helvetica,sans-Serif" font-size="10.00">/gmx_wham.cpp</text>
</a>
</g>
</g>
<!-- Node2&#45;&gt;Node6 -->
<g id="edge5" class="edge"><title>Node2&#45;&gt;Node6</title>
<path fill="none" stroke="midnightblue" d="M635.273,-64.5797C600.19,-54.0225 555.56,-40.5921 522.392,-30.6109"/>
<polygon fill="midnightblue" stroke="midnightblue" points="634.313,-67.9458 644.897,-67.476 636.33,-61.2428 634.313,-67.9458"/>
</g>
<!-- Node7 -->
<g id="node7" class="node"><title>Node7</title>
<g id="a_node7"><a xlink:href="imd_8cpp.xhtml" target="_top" xlink:title="Implements functions of imd.h. ">
<polygon fill="white" stroke="black" points="548,-6 548,-25 675,-25 675,-6 548,-6"/>
<text text-anchor="middle" x="611.5" y="-13" font-family="Helvetica,sans-Serif" font-size="10.00">src/gromacs/imd/imd.cpp</text>
</a>
</g>
</g>
<!-- Node2&#45;&gt;Node7 -->
<g id="edge6" class="edge"><title>Node2&#45;&gt;Node7</title>
<path fill="none" stroke="midnightblue" d="M666.279,-61.008C651.428,-48.9412 633.413,-34.3046 622.201,-25.1945"/>
<polygon fill="midnightblue" stroke="midnightblue" points="664.173,-63.8064 674.141,-67.396 668.587,-58.3736 664.173,-63.8064"/>
</g>
<!-- Node8 -->
<g id="node8" class="node"><title>Node8</title>
<g id="a_node8"><a xlink:href="minimize_8cpp.xhtml" target="_top" xlink:title="This file defines integrators for energy minimization. ">
<polygon fill="white" stroke="black" points="693.5,-6 693.5,-25 851.5,-25 851.5,-6 693.5,-6"/>
<text text-anchor="middle" x="772.5" y="-13" font-family="Helvetica,sans-Serif" font-size="10.00">src/gromacs/mdlib/minimize.cpp</text>
</a>
</g>
</g>
<!-- Node2&#45;&gt;Node8 -->
<g id="edge7" class="edge"><title>Node2&#45;&gt;Node8</title>
<path fill="none" stroke="midnightblue" d="M717.036,-61.008C732.073,-48.9412 750.313,-34.3046 761.665,-25.1945"/>
<polygon fill="midnightblue" stroke="midnightblue" points="714.685,-58.4075 709.076,-67.396 719.066,-63.867 714.685,-58.4075"/>
</g>
<!-- Node9 -->
<g id="node9" class="node"><title>Node9</title>
<g id="a_node9"><a xlink:href="nbnxn__tuning_8cpp.xhtml" target="_top" xlink:title="Implements functions for tuning adjustable parameters for the nbnxn non&#45;bonded search and interaction...">
<polygon fill="white" stroke="black" points="869.5,-0.5 869.5,-30.5 995.5,-30.5 995.5,-0.5 869.5,-0.5"/>
<text text-anchor="start" x="877.5" y="-18.5" font-family="Helvetica,sans-Serif" font-size="10.00">src/gromacs/mdlib/nbnxn</text>
<text text-anchor="middle" x="932.5" y="-7.5" font-family="Helvetica,sans-Serif" font-size="10.00">_tuning.cpp</text>
</a>
</g>
</g>
<!-- Node2&#45;&gt;Node9 -->
<g id="edge8" class="edge"><title>Node2&#45;&gt;Node9</title>
<path fill="none" stroke="midnightblue" d="M753.234,-64.8498C792.526,-54.2523 842.857,-40.6775 880.181,-30.6109"/>
<polygon fill="midnightblue" stroke="midnightblue" points="752.24,-61.4926 743.497,-67.476 754.063,-68.2511 752.24,-61.4926"/>
</g>
<!-- Node10 -->
<g id="node10" class="node"><title>Node10</title>
<g id="a_node10"><a xlink:href="tpi_8cpp.xhtml" target="_top" xlink:title="This file defines the integrator for test particle insertion. ">
<polygon fill="white" stroke="black" points="1014,-6 1014,-25 1143,-25 1143,-6 1014,-6"/>
<text text-anchor="middle" x="1078.5" y="-13" font-family="Helvetica,sans-Serif" font-size="10.00">src/gromacs/mdlib/tpi.cpp</text>
</a>
</g>
</g>
<!-- Node2&#45;&gt;Node10 -->
<g id="edge9" class="edge"><title>Node2&#45;&gt;Node10</title>
<path fill="none" stroke="midnightblue" d="M757.259,-71.5465C820.67,-61.7934 919.295,-46.2169 1004.5,-31 1014.81,-29.1587 1025.9,-27.0522 1036.28,-25.0261"/>
<polygon fill="midnightblue" stroke="midnightblue" points="756.358,-68.1437 747.004,-73.1202 757.419,-75.0628 756.358,-68.1437"/>
</g>
<!-- Node11 -->
<g id="node11" class="node"><title>Node11</title>
<g id="a_node11"><a xlink:href="gromacs_2swap_2swapcoords_8cpp.xhtml" target="_top" xlink:title="Implements functions in swapcoords.h. ">
<polygon fill="white" stroke="black" points="1161,-6 1161,-25 1332,-25 1332,-6 1161,-6"/>
<text text-anchor="middle" x="1246.5" y="-13" font-family="Helvetica,sans-Serif" font-size="10.00">src/gromacs/swap/swapcoords.cpp</text>
</a>
</g>
</g>
<!-- Node2&#45;&gt;Node11 -->
<g id="edge10" class="edge"><title>Node2&#45;&gt;Node11</title>
<path fill="none" stroke="midnightblue" d="M757.311,-75.2088C846.86,-66.4388 1012.04,-49.5179 1152.5,-31 1165.92,-29.2302 1180.39,-27.1065 1193.86,-25.0372"/>
<polygon fill="midnightblue" stroke="midnightblue" points="756.913,-71.7309 747.3,-76.186 757.593,-78.6978 756.913,-71.7309"/>
</g>
<!-- Node12 -->
<g id="node12" class="node"><title>Node12</title>
<g id="a_node12"><a xlink:href="runner_8cpp.xhtml" target="_top" xlink:title="Implements the MD runner routine calling all integrators. ">
<polygon fill="white" stroke="black" points="1350.5,-0.5 1350.5,-30.5 1454.5,-30.5 1454.5,-0.5 1350.5,-0.5"/>
<text text-anchor="start" x="1358.5" y="-18.5" font-family="Helvetica,sans-Serif" font-size="10.00">src/programs/mdrun</text>
<text text-anchor="middle" x="1402.5" y="-7.5" font-family="Helvetica,sans-Serif" font-size="10.00">/runner.cpp</text>
</a>
</g>
</g>
<!-- Node2&#45;&gt;Node12 -->
<g id="edge11" class="edge"><title>Node2&#45;&gt;Node12</title>
<path fill="none" stroke="midnightblue" d="M757.343,-79.772C875.164,-75.9283 1129.56,-64.2146 1341.5,-31 1344.4,-30.5449 1347.37,-30.0246 1350.36,-29.4578"/>
<polygon fill="midnightblue" stroke="midnightblue" points="756.937,-76.283 747.054,-80.0989 757.16,-83.2795 756.937,-76.283"/>
</g>
</g>
</svg>
