<?xml version="1.0" encoding="UTF-8" standalone="no"?>
<!DOCTYPE svg PUBLIC "-//W3C//DTD SVG 1.1//EN"
 "http://www.w3.org/Graphics/SVG/1.1/DTD/svg11.dtd">
<!-- Generated by graphviz version 2.38.0 (20140413.2041)
 -->
<!-- Title: src/gromacs/selection/parser_internal.h Pages: 1 -->
<svg width="1461pt" height="274pt"
 viewBox="0.00 0.00 1461.00 274.00" xmlns="http://www.w3.org/2000/svg" xmlns:xlink="http://www.w3.org/1999/xlink">
<g id="graph0" class="graph" transform="scale(1 1) rotate(0) translate(4 270)">
<title>src/gromacs/selection/parser_internal.h</title>
<polygon fill="white" stroke="none" points="-4,4 -4,-270 1457,-270 1457,4 -4,4"/>
<!-- Node1 -->
<g id="node1" class="node"><title>Node1</title>
<polygon fill="#bfbfbf" stroke="black" points="383,-235.5 383,-265.5 496,-265.5 496,-235.5 383,-235.5"/>
<text text-anchor="start" x="391" y="-253.5" font-family="Helvetica,sans-Serif" font-size="10.00">src/gromacs/selection</text>
<text text-anchor="middle" x="439.5" y="-242.5" font-family="Helvetica,sans-Serif" font-size="10.00">/parser_internal.h</text>
</g>
<!-- Node2 -->
<g id="node2" class="node"><title>Node2</title>
<polygon fill="white" stroke="#bfbfbf" points="373,-123.5 373,-142.5 432,-142.5 432,-123.5 373,-123.5"/>
<text text-anchor="middle" x="402.5" y="-130.5" font-family="Helvetica,sans-Serif" font-size="10.00">exception</text>
</g>
<!-- Node1&#45;&gt;Node2 -->
<g id="edge1" class="edge"><title>Node1&#45;&gt;Node2</title>
<path fill="none" stroke="midnightblue" d="M434.963,-235.337C428.266,-214.433 415.733,-175.31 408.353,-152.27"/>
<polygon fill="midnightblue" stroke="midnightblue" points="411.661,-151.125 405.277,-142.669 404.995,-153.261 411.661,-151.125"/>
</g>
<!-- Node3 -->
<g id="node3" class="node"><title>Node3</title>
<polygon fill="white" stroke="#bfbfbf" points="225.5,-0.5 225.5,-19.5 277.5,-19.5 277.5,-0.5 225.5,-0.5"/>
<text text-anchor="middle" x="251.5" y="-7.5" font-family="Helvetica,sans-Serif" font-size="10.00">memory</text>
</g>
<!-- Node1&#45;&gt;Node3 -->
<g id="edge2" class="edge"><title>Node1&#45;&gt;Node3</title>
<path fill="none" stroke="midnightblue" d="M382.869,-248.15C285.984,-242.337 91.3514,-214.522 13.5,-87 6.32086,-75.2404 4.70909,-66.6088 13.5,-56 38.6847,-25.6073 154.917,-15.5906 215.121,-12.4096"/>
<polygon fill="midnightblue" stroke="midnightblue" points="215.512,-15.8947 225.328,-11.9076 215.168,-8.9032 215.512,-15.8947"/>
</g>
<!-- Node4 -->
<g id="node4" class="node"><title>Node4</title>
<g id="a_node4"><a xlink:href="exceptions_8h.xhtml" target="_top" xlink:title="Declares common exception classes and macros for fatal error handling. ">
<polygon fill="white" stroke="black" points="858,-179.5 858,-198.5 997,-198.5 997,-179.5 858,-179.5"/>
<text text-anchor="middle" x="927.5" y="-186.5" font-family="Helvetica,sans-Serif" font-size="10.00">gromacs/utility/exceptions.h</text>
</a>
</g>
</g>
<!-- Node1&#45;&gt;Node4 -->
<g id="edge3" class="edge"><title>Node1&#45;&gt;Node4</title>
<path fill="none" stroke="midnightblue" d="M496.435,-242.558C583.247,-231.974 749.012,-211.762 847.762,-199.722"/>
<polygon fill="midnightblue" stroke="midnightblue" points="848.485,-203.16 857.988,-198.475 847.637,-196.212 848.485,-203.16"/>
</g>
<!-- Node16 -->
<g id="node16" class="node"><title>Node16</title>
<g id="a_node16"><a xlink:href="gmxassert_8h.xhtml" target="_top" xlink:title="Defines assert macros customized for Gromacs. ">
<polygon fill="white" stroke="black" points="1203,-123.5 1203,-142.5 1340,-142.5 1340,-123.5 1203,-123.5"/>
<text text-anchor="middle" x="1271.5" y="-130.5" font-family="Helvetica,sans-Serif" font-size="10.00">gromacs/utility/gmxassert.h</text>
</a>
</g>
</g>
<!-- Node1&#45;&gt;Node16 -->
<g id="edge21" class="edge"><title>Node1&#45;&gt;Node16</title>
<path fill="none" stroke="midnightblue" d="M496.09,-247.275C598.375,-242.628 820.582,-229.663 1005.5,-199 1087.5,-185.403 1181.57,-160.059 1232.97,-145.356"/>
<polygon fill="midnightblue" stroke="midnightblue" points="1234.03,-148.695 1242.67,-142.564 1232.09,-141.968 1234.03,-148.695"/>
</g>
<!-- Node17 -->
<g id="node17" class="node"><title>Node17</title>
<g id="a_node17"><a xlink:href="stringutil_8h.xhtml" target="_top" xlink:title="Declares common string utility and formatting routines. ">
<polygon fill="white" stroke="black" points="585.5,-179.5 585.5,-198.5 713.5,-198.5 713.5,-179.5 585.5,-179.5"/>
<text text-anchor="middle" x="649.5" y="-186.5" font-family="Helvetica,sans-Serif" font-size="10.00">gromacs/utility/stringutil.h</text>
</a>
</g>
</g>
<!-- Node1&#45;&gt;Node17 -->
<g id="edge22" class="edge"><title>Node1&#45;&gt;Node17</title>
<path fill="none" stroke="midnightblue" d="M489.001,-235.475C525.863,-225.03 575.532,-210.958 609.805,-201.247"/>
<polygon fill="midnightblue" stroke="midnightblue" points="610.81,-204.6 619.478,-198.506 608.902,-197.865 610.81,-204.6"/>
</g>
<!-- Node20 -->
<g id="node20" class="node"><title>Node20</title>
<g id="a_node20"><a xlink:href="parsetree_8h.xhtml" target="_top" xlink:title="Handling of intermediate selection parser data. ">
<polygon fill="white" stroke="black" points="269,-179.5 269,-198.5 334,-198.5 334,-179.5 269,-179.5"/>
<text text-anchor="middle" x="301.5" y="-186.5" font-family="Helvetica,sans-Serif" font-size="10.00">parsetree.h</text>
</a>
</g>
</g>
<!-- Node1&#45;&gt;Node20 -->
<g id="edge27" class="edge"><title>Node1&#45;&gt;Node20</title>
<path fill="none" stroke="midnightblue" d="M406.796,-235.399C383.745,-225.461 353.14,-212.265 330.868,-202.662"/>
<polygon fill="midnightblue" stroke="midnightblue" points="332.149,-199.403 321.58,-198.658 329.377,-205.831 332.149,-199.403"/>
</g>
<!-- Node23 -->
<g id="node23" class="node"><title>Node23</title>
<g id="a_node23"><a xlink:href="selelem_8h.xhtml" target="_top" xlink:title="Declares gmx::SelectionTreeElement and related things. ">
<polygon fill="white" stroke="black" points="171,-123.5 171,-142.5 230,-142.5 230,-123.5 171,-123.5"/>
<text text-anchor="middle" x="200.5" y="-130.5" font-family="Helvetica,sans-Serif" font-size="10.00">selelem.h</text>
</a>
</g>
</g>
<!-- Node1&#45;&gt;Node23 -->
<g id="edge49" class="edge"><title>Node1&#45;&gt;Node23</title>
<path fill="none" stroke="midnightblue" d="M382.677,-241.913C345.501,-235.01 297.047,-222.209 259.5,-199 239.532,-186.657 222.233,-165.636 211.621,-150.848"/>
<polygon fill="midnightblue" stroke="midnightblue" points="214.474,-148.82 205.913,-142.579 208.713,-152.797 214.474,-148.82"/>
</g>
<!-- Node26 -->
<g id="node26" class="node"><title>Node26</title>
<g id="a_node26"><a xlink:href="scanner_8h.xhtml" target="_top" xlink:title="Parser/scanner interaction functions. ">
<polygon fill="white" stroke="black" points="443,-179.5 443,-198.5 502,-198.5 502,-179.5 443,-179.5"/>
<text text-anchor="middle" x="472.5" y="-186.5" font-family="Helvetica,sans-Serif" font-size="10.00">scanner.h</text>
</a>
</g>
</g>
<!-- Node1&#45;&gt;Node26 -->
<g id="edge45" class="edge"><title>Node1&#45;&gt;Node26</title>
<path fill="none" stroke="midnightblue" d="M447.321,-235.399C451.968,-227.021 457.899,-216.327 462.837,-207.423"/>
<polygon fill="midnightblue" stroke="midnightblue" points="465.909,-209.1 467.698,-198.658 459.787,-205.705 465.909,-209.1"/>
</g>
<!-- Node4&#45;&gt;Node2 -->
<g id="edge6" class="edge"><title>Node4&#45;&gt;Node2</title>
<path fill="none" stroke="midnightblue" d="M857.917,-184.505C765.271,-179.196 596.202,-167.225 442.341,-142.914"/>
<polygon fill="midnightblue" stroke="midnightblue" points="442.657,-139.42 432.229,-141.294 441.55,-146.332 442.657,-139.42"/>
</g>
<!-- Node4&#45;&gt;Node3 -->
<g id="edge7" class="edge"><title>Node4&#45;&gt;Node3</title>
<path fill="none" stroke="midnightblue" d="M913.048,-179.264C884.378,-161.962 822.615,-124.835 817.5,-123 720.112,-88.058 689.127,-106.424 587.5,-87 477.549,-65.9847 348.763,-35.0727 287.46,-19.9697"/>
<polygon fill="midnightblue" stroke="midnightblue" points="288.063,-16.5134 277.515,-17.5123 286.383,-23.309 288.063,-16.5134"/>
</g>
<!-- Node5 -->
<g id="node5" class="node"><title>Node5</title>
<polygon fill="white" stroke="#bfbfbf" points="881,-0.5 881,-19.5 924,-19.5 924,-0.5 881,-0.5"/>
<text text-anchor="middle" x="902.5" y="-7.5" font-family="Helvetica,sans-Serif" font-size="10.00">cstdio</text>
</g>
<!-- Node4&#45;&gt;Node5 -->
<g id="edge4" class="edge"><title>Node4&#45;&gt;Node5</title>
<path fill="none" stroke="midnightblue" d="M976.982,-179.472C1030,-169.834 1107.77,-154.051 1116.5,-143 1122.01,-136.025 1121.1,-130.604 1116.5,-123 1076.55,-56.9935 983.474,-28.0121 934.281,-16.9312"/>
<polygon fill="midnightblue" stroke="midnightblue" points="934.71,-13.4439 924.199,-14.7735 933.245,-20.2889 934.71,-13.4439"/>
</g>
<!-- Node6 -->
<g id="node6" class="node"><title>Node6</title>
<polygon fill="white" stroke="#bfbfbf" points="905,-123.5 905,-142.5 950,-142.5 950,-123.5 905,-123.5"/>
<text text-anchor="middle" x="927.5" y="-130.5" font-family="Helvetica,sans-Serif" font-size="10.00">cstdlib</text>
</g>
<!-- Node4&#45;&gt;Node6 -->
<g id="edge5" class="edge"><title>Node4&#45;&gt;Node6</title>
<path fill="none" stroke="midnightblue" d="M927.5,-179.083C927.5,-172.006 927.5,-161.861 927.5,-152.986"/>
<polygon fill="midnightblue" stroke="midnightblue" points="931,-152.751 927.5,-142.751 924,-152.751 931,-152.751"/>
</g>
<!-- Node7 -->
<g id="node7" class="node"><title>Node7</title>
<polygon fill="white" stroke="#bfbfbf" points="579,-0.5 579,-19.5 620,-19.5 620,-0.5 579,-0.5"/>
<text text-anchor="middle" x="599.5" y="-7.5" font-family="Helvetica,sans-Serif" font-size="10.00">string</text>
</g>
<!-- Node4&#45;&gt;Node7 -->
<g id="edge8" class="edge"><title>Node4&#45;&gt;Node7</title>
<path fill="none" stroke="midnightblue" d="M917.944,-179.404C903.838,-166.788 876.515,-142.626 852.5,-123 814.711,-92.1166 809.22,-77.6877 765.5,-56 721.017,-33.9339 664.278,-21.547 629.977,-15.5755"/>
<polygon fill="midnightblue" stroke="midnightblue" points="630.53,-12.1196 620.09,-13.9247 629.377,-19.024 630.53,-12.1196"/>
</g>
<!-- Node8 -->
<g id="node8" class="node"><title>Node8</title>
<polygon fill="white" stroke="#bfbfbf" points="968.5,-123.5 968.5,-142.5 1030.5,-142.5 1030.5,-123.5 968.5,-123.5"/>
<text text-anchor="middle" x="999.5" y="-130.5" font-family="Helvetica,sans-Serif" font-size="10.00">type_traits</text>
</g>
<!-- Node4&#45;&gt;Node8 -->
<g id="edge9" class="edge"><title>Node4&#45;&gt;Node8</title>
<path fill="none" stroke="midnightblue" d="M939.068,-179.324C949.92,-171.185 966.381,-158.839 979.383,-149.087"/>
<polygon fill="midnightblue" stroke="midnightblue" points="981.821,-151.634 987.721,-142.834 977.621,-146.034 981.821,-151.634"/>
</g>
<!-- Node9 -->
<g id="node9" class="node"><title>Node9</title>
<polygon fill="white" stroke="#bfbfbf" points="1049,-123.5 1049,-142.5 1108,-142.5 1108,-123.5 1049,-123.5"/>
<text text-anchor="middle" x="1078.5" y="-130.5" font-family="Helvetica,sans-Serif" font-size="10.00">typeindex</text>
</g>
<!-- Node4&#45;&gt;Node9 -->
<g id="edge10" class="edge"><title>Node4&#45;&gt;Node9</title>
<path fill="none" stroke="midnightblue" d="M951.426,-179.444C976.719,-170.399 1016.8,-156.064 1045.18,-145.916"/>
<polygon fill="midnightblue" stroke="midnightblue" points="1046.45,-149.179 1054.69,-142.516 1044.09,-142.588 1046.45,-149.179"/>
</g>
<!-- Node10 -->
<g id="node10" class="node"><title>Node10</title>
<polygon fill="white" stroke="#bfbfbf" points="728.5,-123.5 728.5,-142.5 772.5,-142.5 772.5,-123.5 728.5,-123.5"/>
<text text-anchor="middle" x="750.5" y="-130.5" font-family="Helvetica,sans-Serif" font-size="10.00">vector</text>
</g>
<!-- Node4&#45;&gt;Node10 -->
<g id="edge11" class="edge"><title>Node4&#45;&gt;Node10</title>
<path fill="none" stroke="midnightblue" d="M899.454,-179.444C867.563,-169.714 815.611,-153.864 782.255,-143.688"/>
<polygon fill="midnightblue" stroke="midnightblue" points="783.129,-140.296 772.543,-140.725 781.087,-146.991 783.129,-140.296"/>
</g>
<!-- Node11 -->
<g id="node11" class="node"><title>Node11</title>
<g id="a_node11"><a xlink:href="basedefinitions_8h.xhtml" target="_top" xlink:title="Basic types and macros used throughout GROMACS. ">
<polygon fill="white" stroke="black" points="1296,-62 1296,-81 1453,-81 1453,-62 1296,-62"/>
<text text-anchor="middle" x="1374.5" y="-69" font-family="Helvetica,sans-Serif" font-size="10.00">gromacs/utility/basedefinitions.h</text>
</a>
</g>
</g>
<!-- Node4&#45;&gt;Node11 -->
<g id="edge12" class="edge"><title>Node4&#45;&gt;Node11</title>
<path fill="none" stroke="midnightblue" d="M997.052,-184.606C1109.75,-178.515 1322.46,-164.339 1349.5,-143 1365.24,-130.58 1371.09,-107.503 1373.25,-91.1374"/>
<polygon fill="midnightblue" stroke="midnightblue" points="1376.74,-91.3875 1374.23,-81.0936 1369.77,-90.7041 1376.74,-91.3875"/>
</g>
<!-- Node14 -->
<g id="node14" class="node"><title>Node14</title>
<g id="a_node14"><a xlink:href="classhelpers_8h.xhtml" target="_top" xlink:title="Declares common utility classes and macros. ">
<polygon fill="white" stroke="black" points="178.5,-62 178.5,-81 324.5,-81 324.5,-62 178.5,-62"/>
<text text-anchor="middle" x="251.5" y="-69" font-family="Helvetica,sans-Serif" font-size="10.00">gromacs/utility/classhelpers.h</text>
</a>
</g>
</g>
<!-- Node4&#45;&gt;Node14 -->
<g id="edge15" class="edge"><title>Node4&#45;&gt;Node14</title>
<path fill="none" stroke="midnightblue" d="M907.307,-179.344C886.495,-170.384 853.14,-155.915 824.5,-143 805.286,-134.336 801.84,-128.524 781.5,-123 699.537,-100.741 462.126,-84.416 334.687,-76.9758"/>
<polygon fill="midnightblue" stroke="midnightblue" points="334.766,-73.4746 324.58,-76.391 334.361,-80.4629 334.766,-73.4746"/>
</g>
<!-- Node15 -->
<g id="node15" class="node"><title>Node15</title>
<g id="a_node15"><a xlink:href="current__function_8h.xhtml" target="_top" xlink:title="Declares GMX_CURRENT_FUNCTION for getting the current function name. ">
<polygon fill="white" stroke="black" points="1165,-56.5 1165,-86.5 1278,-86.5 1278,-56.5 1165,-56.5"/>
<text text-anchor="start" x="1173" y="-74.5" font-family="Helvetica,sans-Serif" font-size="10.00">gromacs/utility/current</text>
<text text-anchor="middle" x="1221.5" y="-63.5" font-family="Helvetica,sans-Serif" font-size="10.00">_function.h</text>
</a>
</g>
</g>
<!-- Node4&#45;&gt;Node15 -->
<g id="edge17" class="edge"><title>Node4&#45;&gt;Node15</title>
<path fill="none" stroke="midnightblue" d="M997.075,-184.312C1042.92,-179.462 1103.03,-168.349 1150.5,-143 1172.35,-131.332 1191.89,-110.789 1204.91,-94.8783"/>
<polygon fill="midnightblue" stroke="midnightblue" points="1207.99,-96.6182 1211.45,-86.6013 1202.5,-92.2795 1207.99,-96.6182"/>
</g>
<!-- Node4&#45;&gt;Node16 -->
<g id="edge18" class="edge"><title>Node4&#45;&gt;Node16</title>
<path fill="none" stroke="midnightblue" d="M982.008,-179.444C1043.15,-169.846 1142.24,-154.292 1207.14,-144.104"/>
<polygon fill="midnightblue" stroke="midnightblue" points="1207.91,-147.525 1217.25,-142.516 1206.83,-140.61 1207.91,-147.525"/>
</g>
<!-- Node12 -->
<g id="node12" class="node"><title>Node12</title>
<polygon fill="white" stroke="#bfbfbf" points="1314,-0.5 1314,-19.5 1363,-19.5 1363,-0.5 1314,-0.5"/>
<text text-anchor="middle" x="1338.5" y="-7.5" font-family="Helvetica,sans-Serif" font-size="10.00">stdint.h</text>
</g>
<!-- Node11&#45;&gt;Node12 -->
<g id="edge13" class="edge"><title>Node11&#45;&gt;Node12</title>
<path fill="none" stroke="midnightblue" d="M1369.34,-61.9751C1364.05,-53.2268 1355.66,-39.3691 1348.97,-28.3093"/>
<polygon fill="midnightblue" stroke="midnightblue" points="1351.82,-26.2531 1343.65,-19.5091 1345.83,-29.8768 1351.82,-26.2531"/>
</g>
<!-- Node13 -->
<g id="node13" class="node"><title>Node13</title>
<polygon fill="white" stroke="#bfbfbf" points="1381,-0.5 1381,-19.5 1440,-19.5 1440,-0.5 1381,-0.5"/>
<text text-anchor="middle" x="1410.5" y="-7.5" font-family="Helvetica,sans-Serif" font-size="10.00">inttypes.h</text>
</g>
<!-- Node11&#45;&gt;Node13 -->
<g id="edge14" class="edge"><title>Node11&#45;&gt;Node13</title>
<path fill="none" stroke="midnightblue" d="M1379.66,-61.9751C1384.95,-53.2268 1393.34,-39.3691 1400.03,-28.3093"/>
<polygon fill="midnightblue" stroke="midnightblue" points="1403.17,-29.8768 1405.35,-19.5091 1397.18,-26.2531 1403.17,-29.8768"/>
</g>
<!-- Node14&#45;&gt;Node3 -->
<g id="edge16" class="edge"><title>Node14&#45;&gt;Node3</title>
<path fill="none" stroke="midnightblue" d="M251.5,-61.9751C251.5,-53.5803 251.5,-40.4806 251.5,-29.6631"/>
<polygon fill="midnightblue" stroke="midnightblue" points="255,-29.5091 251.5,-19.5091 248,-29.5091 255,-29.5091"/>
</g>
<!-- Node16&#45;&gt;Node11 -->
<g id="edge19" class="edge"><title>Node16&#45;&gt;Node11</title>
<path fill="none" stroke="midnightblue" d="M1286.26,-123.475C1303.16,-113.711 1331.08,-97.5807 1350.99,-86.0808"/>
<polygon fill="midnightblue" stroke="midnightblue" points="1352.86,-89.0419 1359.77,-81.0091 1349.36,-82.9805 1352.86,-89.0419"/>
</g>
<!-- Node16&#45;&gt;Node15 -->
<g id="edge20" class="edge"><title>Node16&#45;&gt;Node15</title>
<path fill="none" stroke="midnightblue" d="M1264.34,-123.475C1257.94,-115.869 1248.31,-104.399 1239.79,-94.2649"/>
<polygon fill="midnightblue" stroke="midnightblue" points="1242.4,-91.9271 1233.28,-86.523 1237.04,-96.4305 1242.4,-91.9271"/>
</g>
<!-- Node17&#45;&gt;Node7 -->
<g id="edge25" class="edge"><title>Node17&#45;&gt;Node7</title>
<path fill="none" stroke="midnightblue" d="M658.807,-179.286C682.528,-156.973 743.719,-98.7066 748.5,-87 753.709,-74.2448 756.714,-67.0614 748.5,-56 721.344,-19.4312 665.35,-11.5098 630.269,-10.3647"/>
<polygon fill="midnightblue" stroke="midnightblue" points="630.162,-6.86263 620.108,-10.2026 630.05,-13.8617 630.162,-6.86263"/>
</g>
<!-- Node17&#45;&gt;Node10 -->
<g id="edge26" class="edge"><title>Node17&#45;&gt;Node10</title>
<path fill="none" stroke="midnightblue" d="M665.727,-179.324C681.851,-170.703 706.8,-157.364 725.464,-147.386"/>
<polygon fill="midnightblue" stroke="midnightblue" points="727.144,-150.456 734.313,-142.655 723.844,-144.283 727.144,-150.456"/>
</g>
<!-- Node18 -->
<g id="node18" class="node"><title>Node18</title>
<polygon fill="white" stroke="#bfbfbf" points="559,-123.5 559,-142.5 608,-142.5 608,-123.5 559,-123.5"/>
<text text-anchor="middle" x="583.5" y="-130.5" font-family="Helvetica,sans-Serif" font-size="10.00">cstdarg</text>
</g>
<!-- Node17&#45;&gt;Node18 -->
<g id="edge23" class="edge"><title>Node17&#45;&gt;Node18</title>
<path fill="none" stroke="midnightblue" d="M638.896,-179.324C629.044,-171.263 614.149,-159.077 602.285,-149.369"/>
<polygon fill="midnightblue" stroke="midnightblue" points="604.253,-146.457 594.297,-142.834 599.82,-151.875 604.253,-146.457"/>
</g>
<!-- Node19 -->
<g id="node19" class="node"><title>Node19</title>
<polygon fill="white" stroke="#bfbfbf" points="626.5,-123.5 626.5,-142.5 672.5,-142.5 672.5,-123.5 626.5,-123.5"/>
<text text-anchor="middle" x="649.5" y="-130.5" font-family="Helvetica,sans-Serif" font-size="10.00">cstring</text>
</g>
<!-- Node17&#45;&gt;Node19 -->
<g id="edge24" class="edge"><title>Node17&#45;&gt;Node19</title>
<path fill="none" stroke="midnightblue" d="M649.5,-179.083C649.5,-172.006 649.5,-161.861 649.5,-152.986"/>
<polygon fill="midnightblue" stroke="midnightblue" points="653,-152.751 649.5,-142.751 646,-152.751 653,-152.751"/>
</g>
<!-- Node20&#45;&gt;Node2 -->
<g id="edge28" class="edge"><title>Node20&#45;&gt;Node2</title>
<path fill="none" stroke="midnightblue" d="M317.727,-179.324C333.851,-170.703 358.8,-157.364 377.464,-147.386"/>
<polygon fill="midnightblue" stroke="midnightblue" points="379.144,-150.456 386.313,-142.655 375.844,-144.283 379.144,-150.456"/>
</g>
<!-- Node20&#45;&gt;Node3 -->
<g id="edge30" class="edge"><title>Node20&#45;&gt;Node3</title>
<path fill="none" stroke="midnightblue" d="M293.667,-179.24C283.205,-166.419 267.124,-142.005 277.5,-123 291.678,-97.0301 319.322,-112.97 333.5,-87 340.102,-74.9071 340.518,-67.8565 333.5,-56 323.474,-39.0615 304.559,-28.0748 287.421,-21.2012"/>
<polygon fill="midnightblue" stroke="midnightblue" points="288.209,-17.763 277.615,-17.6154 285.805,-24.3371 288.209,-17.763"/>
</g>
<!-- Node20&#45;&gt;Node7 -->
<g id="edge31" class="edge"><title>Node20&#45;&gt;Node7</title>
<path fill="none" stroke="midnightblue" d="M307.936,-179.457C318.391,-166.037 340.247,-139.814 363.5,-123 430.779,-74.3511 522.52,-38.0062 569.332,-21.2459"/>
<polygon fill="midnightblue" stroke="midnightblue" points="570.618,-24.5038 578.883,-17.8758 568.288,-17.9026 570.618,-24.5038"/>
</g>
<!-- Node20&#45;&gt;Node16 -->
<g id="edge32" class="edge"><title>Node20&#45;&gt;Node16</title>
<path fill="none" stroke="midnightblue" d="M334.039,-185.641C360.75,-183.739 399.567,-181.051 433.5,-179 736.923,-160.661 812.988,-159.81 1116.5,-143 1141.23,-141.63 1168.17,-140.085 1192.55,-138.666"/>
<polygon fill="midnightblue" stroke="midnightblue" points="1193.05,-142.143 1202.83,-138.066 1192.65,-135.154 1193.05,-142.143"/>
</g>
<!-- Node21 -->
<g id="node21" class="node"><title>Node21</title>
<polygon fill="white" stroke="#bfbfbf" points="287,-123.5 287,-142.5 316,-142.5 316,-123.5 287,-123.5"/>
<text text-anchor="middle" x="301.5" y="-130.5" font-family="Helvetica,sans-Serif" font-size="10.00">list</text>
</g>
<!-- Node20&#45;&gt;Node21 -->
<g id="edge29" class="edge"><title>Node20&#45;&gt;Node21</title>
<path fill="none" stroke="midnightblue" d="M301.5,-179.083C301.5,-172.006 301.5,-161.861 301.5,-152.986"/>
<polygon fill="midnightblue" stroke="midnightblue" points="305,-152.751 301.5,-142.751 298,-152.751 305,-152.751"/>
</g>
<!-- Node22 -->
<g id="node22" class="node"><title>Node22</title>
<g id="a_node22"><a xlink:href="real_8h.xhtml" target="_top" xlink:title="Declares real and related constants. ">
<polygon fill="white" stroke="black" points="0,-0.5 0,-19.5 107,-19.5 107,-0.5 0,-0.5"/>
<text text-anchor="middle" x="53.5" y="-7.5" font-family="Helvetica,sans-Serif" font-size="10.00">gromacs/utility/real.h</text>
</a>
</g>
</g>
<!-- Node20&#45;&gt;Node22 -->
<g id="edge33" class="edge"><title>Node20&#45;&gt;Node22</title>
<path fill="none" stroke="midnightblue" d="M268.948,-188.526C205.625,-187.516 67.3622,-174.861 13.5,-87 1.04365,-66.6809 19.737,-42.1064 35.5373,-26.5121"/>
<polygon fill="midnightblue" stroke="midnightblue" points="37.9848,-29.0154 42.9122,-19.6361 33.2112,-23.8955 37.9848,-29.0154"/>
</g>
<!-- Node20&#45;&gt;Node23 -->
<g id="edge34" class="edge"><title>Node20&#45;&gt;Node23</title>
<path fill="none" stroke="midnightblue" d="M285.273,-179.324C269.149,-170.703 244.2,-157.364 225.536,-147.386"/>
<polygon fill="midnightblue" stroke="midnightblue" points="227.156,-144.283 216.687,-142.655 223.856,-150.456 227.156,-144.283"/>
</g>
<!-- Node25 -->
<g id="node25" class="node"><title>Node25</title>
<g id="a_node25"><a xlink:href="selvalue_8h.xhtml" target="_top" xlink:title="Declares gmx_ana_selvalue_t. ">
<polygon fill="white" stroke="black" points="23,-62 23,-81 84,-81 84,-62 23,-62"/>
<text text-anchor="middle" x="53.5" y="-69" font-family="Helvetica,sans-Serif" font-size="10.00">selvalue.h</text>
</a>
</g>
</g>
<!-- Node20&#45;&gt;Node25 -->
<g id="edge44" class="edge"><title>Node20&#45;&gt;Node25</title>
<path fill="none" stroke="midnightblue" d="M268.872,-180.168C239.883,-172.594 196.763,-159.802 161.5,-143 128.425,-127.24 93.5097,-102.825 72.6185,-87.2578"/>
<polygon fill="midnightblue" stroke="midnightblue" points="74.6592,-84.4129 64.5701,-81.1786 70.4402,-89.9986 74.6592,-84.4129"/>
</g>
<!-- Node23&#45;&gt;Node3 -->
<g id="edge35" class="edge"><title>Node23&#45;&gt;Node3</title>
<path fill="none" stroke="midnightblue" d="M191.786,-123.177C178.482,-108.593 155.999,-78.8087 169.5,-56 179.526,-39.0615 198.441,-28.0748 215.579,-21.2012"/>
<polygon fill="midnightblue" stroke="midnightblue" points="217.195,-24.3371 225.385,-17.6154 214.791,-17.763 217.195,-24.3371"/>
</g>
<!-- Node23&#45;&gt;Node7 -->
<g id="edge36" class="edge"><title>Node23&#45;&gt;Node7</title>
<path fill="none" stroke="midnightblue" d="M227.103,-123.34C254.028,-114.495 296.808,-100.223 333.5,-87 369.764,-73.9316 377.699,-67.4672 414.5,-56 467.924,-39.3531 531.591,-25.0444 568.592,-17.2612"/>
<polygon fill="midnightblue" stroke="midnightblue" points="569.657,-20.6147 578.734,-15.1511 568.231,-13.7615 569.657,-20.6147"/>
</g>
<!-- Node23&#45;&gt;Node14 -->
<g id="edge40" class="edge"><title>Node23&#45;&gt;Node14</title>
<path fill="none" stroke="midnightblue" d="M207.807,-123.475C215.533,-114.462 227.908,-100.025 237.518,-88.8118"/>
<polygon fill="midnightblue" stroke="midnightblue" points="240.356,-90.8795 244.206,-81.0091 235.041,-86.3239 240.356,-90.8795"/>
</g>
<!-- Node23&#45;&gt;Node22 -->
<g id="edge41" class="edge"><title>Node23&#45;&gt;Node22</title>
<path fill="none" stroke="midnightblue" d="M189.928,-123.298C165.136,-102.891 103.006,-51.7497 71.8771,-26.1267"/>
<polygon fill="midnightblue" stroke="midnightblue" points="73.9213,-23.2761 63.9761,-19.6232 69.4726,-28.6807 73.9213,-23.2761"/>
</g>
<!-- Node24 -->
<g id="node24" class="node"><title>Node24</title>
<g id="a_node24"><a xlink:href="indexutil_8h.xhtml" target="_top" xlink:title="API for handling index files and index groups. ">
<polygon fill="white" stroke="black" points="597,-62 597,-81 740,-81 740,-62 597,-62"/>
<text text-anchor="middle" x="668.5" y="-69" font-family="Helvetica,sans-Serif" font-size="10.00">gromacs/selection/indexutil.h</text>
</a>
</g>
</g>
<!-- Node23&#45;&gt;Node24 -->
<g id="edge37" class="edge"><title>Node23&#45;&gt;Node24</title>
<path fill="none" stroke="midnightblue" d="M230.131,-128.233C301.762,-119.126 486.171,-95.6808 591.577,-82.2797"/>
<polygon fill="midnightblue" stroke="midnightblue" points="592.046,-85.7484 601.525,-81.015 591.163,-78.8043 592.046,-85.7484"/>
</g>
<!-- Node23&#45;&gt;Node25 -->
<g id="edge42" class="edge"><title>Node23&#45;&gt;Node25</title>
<path fill="none" stroke="midnightblue" d="M179.438,-123.475C154.441,-113.357 112.558,-96.4046 84.0134,-84.8507"/>
<polygon fill="midnightblue" stroke="midnightblue" points="85.1051,-81.5168 74.5224,-81.0091 82.4787,-88.0054 85.1051,-81.5168"/>
</g>
<!-- Node24&#45;&gt;Node5 -->
<g id="edge38" class="edge"><title>Node24&#45;&gt;Node5</title>
<path fill="none" stroke="midnightblue" d="M702.026,-61.9751C747.186,-50.4922 826.965,-30.2065 871.04,-18.9995"/>
<polygon fill="midnightblue" stroke="midnightblue" points="872.086,-22.3449 880.915,-16.4885 870.361,-15.5608 872.086,-22.3449"/>
</g>
<!-- Node24&#45;&gt;Node7 -->
<g id="edge39" class="edge"><title>Node24&#45;&gt;Node7</title>
<path fill="none" stroke="midnightblue" d="M658.614,-61.9751C647.854,-52.6966 630.429,-37.6706 617.279,-26.331"/>
<polygon fill="midnightblue" stroke="midnightblue" points="619.227,-23.389 609.368,-19.5091 614.655,-28.6902 619.227,-23.389"/>
</g>
<!-- Node25&#45;&gt;Node22 -->
<g id="edge43" class="edge"><title>Node25&#45;&gt;Node22</title>
<path fill="none" stroke="midnightblue" d="M53.5,-61.9751C53.5,-53.5803 53.5,-40.4806 53.5,-29.6631"/>
<polygon fill="midnightblue" stroke="midnightblue" points="57.0001,-29.5091 53.5,-19.5091 50.0001,-29.5091 57.0001,-29.5091"/>
</g>
<!-- Node26&#45;&gt;Node2 -->
<g id="edge46" class="edge"><title>Node26&#45;&gt;Node2</title>
<path fill="none" stroke="midnightblue" d="M461.253,-179.324C450.703,-171.185 434.699,-158.839 422.058,-149.087"/>
<polygon fill="midnightblue" stroke="midnightblue" points="424.007,-146.171 413.951,-142.834 419.731,-151.713 424.007,-146.171"/>
</g>
<!-- Node26&#45;&gt;Node7 -->
<g id="edge47" class="edge"><title>Node26&#45;&gt;Node7</title>
<path fill="none" stroke="midnightblue" d="M480.611,-179.313C488.747,-170.446 501.476,-156.158 511.5,-143 541.693,-103.369 573.154,-53.8389 589.017,-28.1863"/>
<polygon fill="midnightblue" stroke="midnightblue" points="592.043,-29.9465 594.297,-19.5942 586.079,-26.2813 592.043,-29.9465"/>
</g>
<!-- Node27 -->
<g id="node27" class="node"><title>Node27</title>
<polygon fill="white" stroke="#bfbfbf" points="450.5,-123.5 450.5,-142.5 502.5,-142.5 502.5,-123.5 450.5,-123.5"/>
<text text-anchor="middle" x="476.5" y="-130.5" font-family="Helvetica,sans-Serif" font-size="10.00">parser.h</text>
</g>
<!-- Node26&#45;&gt;Node27 -->
<g id="edge48" class="edge"><title>Node26&#45;&gt;Node27</title>
<path fill="none" stroke="midnightblue" d="M473.161,-179.083C473.685,-172.006 474.436,-161.861 475.094,-152.986"/>
<polygon fill="midnightblue" stroke="midnightblue" points="478.603,-152.982 475.852,-142.751 471.623,-152.465 478.603,-152.982"/>
</g>
</g>
</svg>
