<?xml version="1.0" encoding="UTF-8" standalone="no"?>
<!DOCTYPE svg PUBLIC "-//W3C//DTD SVG 1.1//EN"
 "http://www.w3.org/Graphics/SVG/1.1/DTD/svg11.dtd">
<!-- Generated by graphviz version 2.38.0 (20140413.2041)
 -->
<!-- Title: src/gromacs/pbcutil/pbc&#45;simd.h Pages: 1 -->
<svg width="343pt" height="106pt"
 viewBox="0.00 0.00 343.00 106.00" xmlns="http://www.w3.org/2000/svg" xmlns:xlink="http://www.w3.org/1999/xlink">
<g id="graph0" class="graph" transform="scale(1 1) rotate(0) translate(4 102)">
<title>src/gromacs/pbcutil/pbc&#45;simd.h</title>
<polygon fill="white" stroke="none" points="-4,4 -4,-102 339,-102 339,4 -4,4"/>
<!-- Node1 -->
<g id="node1" class="node"><title>Node1</title>
<polygon fill="#bfbfbf" stroke="black" points="116,-67.5 116,-97.5 218,-97.5 218,-67.5 116,-67.5"/>
<text text-anchor="start" x="124" y="-85.5" font-family="Helvetica,sans-Serif" font-size="10.00">src/gromacs/pbcutil</text>
<text text-anchor="middle" x="167" y="-74.5" font-family="Helvetica,sans-Serif" font-size="10.00">/pbc&#45;simd.h</text>
</g>
<!-- Node2 -->
<g id="node2" class="node"><title>Node2</title>
<g id="a_node2"><a xlink:href="bonded_8cpp.xhtml" target="_top" xlink:title="This file defines low&#45;level functions necessary for computing energies and forces for listed interact...">
<polygon fill="white" stroke="black" points="0,-0.5 0,-30.5 100,-30.5 100,-0.5 0,-0.5"/>
<text text-anchor="start" x="8" y="-18.5" font-family="Helvetica,sans-Serif" font-size="10.00">src/gromacs/listed</text>
<text text-anchor="middle" x="50" y="-7.5" font-family="Helvetica,sans-Serif" font-size="10.00">&#45;forces/bonded.cpp</text>
</a>
</g>
</g>
<!-- Node1&#45;&gt;Node2 -->
<g id="edge1" class="edge"><title>Node1&#45;&gt;Node2</title>
<path fill="none" stroke="midnightblue" d="M132.684,-62.4354C114.327,-52.2374 92.1154,-39.8975 75.3377,-30.5765"/>
<polygon fill="midnightblue" stroke="midnightblue" points="131.171,-65.599 141.613,-67.396 134.571,-59.4799 131.171,-65.599"/>
</g>
<!-- Node3 -->
<g id="node3" class="node"><title>Node3</title>
<g id="a_node3"><a xlink:href="pairs_8cpp.xhtml" target="_top" xlink:title="This file defines functions for &quot;pair&quot; interactions (i.e. listed non&#45;bonded interactions, e.g. 1&#45;4 interactions) ">
<polygon fill="white" stroke="black" points="118.5,-0.5 118.5,-30.5 215.5,-30.5 215.5,-0.5 118.5,-0.5"/>
<text text-anchor="start" x="126.5" y="-18.5" font-family="Helvetica,sans-Serif" font-size="10.00">src/gromacs/listed</text>
<text text-anchor="middle" x="167" y="-7.5" font-family="Helvetica,sans-Serif" font-size="10.00">&#45;forces/pairs.cpp</text>
</a>
</g>
</g>
<!-- Node1&#45;&gt;Node3 -->
<g id="edge2" class="edge"><title>Node1&#45;&gt;Node3</title>
<path fill="none" stroke="midnightblue" d="M167,-57.1081C167,-48.1539 167,-38.3227 167,-30.5765"/>
<polygon fill="midnightblue" stroke="midnightblue" points="163.5,-57.3959 167,-67.396 170.5,-57.396 163.5,-57.3959"/>
</g>
<!-- Node4 -->
<g id="node4" class="node"><title>Node4</title>
<g id="a_node4"><a xlink:href="pbc-simd_8cpp.xhtml" target="_top" xlink:title="This file defines a low&#45;level function for SIMD PBC calculation. ">
<polygon fill="white" stroke="black" points="233,-0.5 233,-30.5 335,-30.5 335,-0.5 233,-0.5"/>
<text text-anchor="start" x="241" y="-18.5" font-family="Helvetica,sans-Serif" font-size="10.00">src/gromacs/pbcutil</text>
<text text-anchor="middle" x="284" y="-7.5" font-family="Helvetica,sans-Serif" font-size="10.00">/pbc&#45;simd.cpp</text>
</a>
</g>
</g>
<!-- Node1&#45;&gt;Node4 -->
<g id="edge3" class="edge"><title>Node1&#45;&gt;Node4</title>
<path fill="none" stroke="midnightblue" d="M201.316,-62.4354C219.673,-52.2374 241.885,-39.8975 258.662,-30.5765"/>
<polygon fill="midnightblue" stroke="midnightblue" points="199.429,-59.4799 192.387,-67.396 202.829,-65.599 199.429,-59.4799"/>
</g>
</g>
</svg>
