<?xml version="1.0" encoding="UTF-8" standalone="no"?>
<!DOCTYPE svg PUBLIC "-//W3C//DTD SVG 1.1//EN"
 "http://www.w3.org/Graphics/SVG/1.1/DTD/svg11.dtd">
<!-- Generated by graphviz version 2.38.0 (20140413.2041)
 -->
<!-- Title: src/gromacs/utility/pleasecite.h Pages: 1 -->
<svg width="1050pt" height="106pt"
 viewBox="0.00 0.00 1050.00 106.00" xmlns="http://www.w3.org/2000/svg" xmlns:xlink="http://www.w3.org/1999/xlink">
<g id="graph0" class="graph" transform="scale(1 1) rotate(0) translate(4 102)">
<title>src/gromacs/utility/pleasecite.h</title>
<polygon fill="white" stroke="none" points="-4,4 -4,-102 1046,-102 1046,4 -4,4"/>
<!-- Node1 -->
<g id="node1" class="node"><title>Node1</title>
<polygon fill="#bfbfbf" stroke="black" points="449.5,-67.5 449.5,-97.5 546.5,-97.5 546.5,-67.5 449.5,-67.5"/>
<text text-anchor="start" x="457.5" y="-85.5" font-family="Helvetica,sans-Serif" font-size="10.00">src/gromacs/utility</text>
<text text-anchor="middle" x="498" y="-74.5" font-family="Helvetica,sans-Serif" font-size="10.00">/pleasecite.h</text>
</g>
<!-- Node2 -->
<g id="node2" class="node"><title>Node2</title>
<g id="a_node2"><a xlink:href="electricfield_8cpp.xhtml" target="_top" xlink:title="Declares data structure and utilities for electric fields. ">
<polygon fill="white" stroke="black" points="0,-0.5 0,-30.5 118,-30.5 118,-0.5 0,-0.5"/>
<text text-anchor="start" x="8" y="-18.5" font-family="Helvetica,sans-Serif" font-size="10.00">src/gromacs/applied</text>
<text text-anchor="middle" x="59" y="-7.5" font-family="Helvetica,sans-Serif" font-size="10.00">&#45;forces/electricfield.cpp</text>
</a>
</g>
</g>
<!-- Node1&#45;&gt;Node2 -->
<g id="edge1" class="edge"><title>Node1&#45;&gt;Node2</title>
<path fill="none" stroke="midnightblue" d="M439.236,-74.8777C365.908,-66.2981 236.783,-50.1489 127,-31 124.146,-30.5022 121.23,-29.9703 118.287,-29.4151"/>
<polygon fill="midnightblue" stroke="midnightblue" points="438.867,-78.3584 449.205,-76.0376 439.676,-71.4053 438.867,-78.3584"/>
</g>
<!-- Node3 -->
<g id="node3" class="node"><title>Node3</title>
<g id="a_node3"><a xlink:href="awh_8cpp.xhtml" target="_top" xlink:title="Implements the Awh class. ">
<polygon fill="white" stroke="black" points="136.5,-6 136.5,-25 267.5,-25 267.5,-6 136.5,-6"/>
<text text-anchor="middle" x="202" y="-13" font-family="Helvetica,sans-Serif" font-size="10.00">src/gromacs/awh/awh.cpp</text>
</a>
</g>
</g>
<!-- Node1&#45;&gt;Node3 -->
<g id="edge2" class="edge"><title>Node1&#45;&gt;Node3</title>
<path fill="none" stroke="midnightblue" d="M439.571,-68.6693C380.808,-55.7652 291.847,-36.23 241.109,-25.0881"/>
<polygon fill="midnightblue" stroke="midnightblue" points="438.935,-72.113 449.453,-70.8394 440.437,-65.2759 438.935,-72.113"/>
</g>
<!-- Node4 -->
<g id="node4" class="node"><title>Node4</title>
<g id="a_node4"><a xlink:href="gmx__wham_8cpp.xhtml" target="_top" xlink:title="Implementation of the Weighted Histogram Analysis Method (WHAM) ">
<polygon fill="white" stroke="black" points="286,-0.5 286,-30.5 394,-30.5 394,-0.5 286,-0.5"/>
<text text-anchor="start" x="294" y="-18.5" font-family="Helvetica,sans-Serif" font-size="10.00">src/gromacs/gmxana</text>
<text text-anchor="middle" x="340" y="-7.5" font-family="Helvetica,sans-Serif" font-size="10.00">/gmx_wham.cpp</text>
</a>
</g>
</g>
<!-- Node1&#45;&gt;Node4 -->
<g id="edge3" class="edge"><title>Node1&#45;&gt;Node4</title>
<path fill="none" stroke="midnightblue" d="M454.354,-63.5442C429.071,-53.143 397.702,-40.238 374.217,-30.5765"/>
<polygon fill="midnightblue" stroke="midnightblue" points="453.137,-66.8282 463.716,-67.396 455.8,-60.3546 453.137,-66.8282"/>
</g>
<!-- Node5 -->
<g id="node5" class="node"><title>Node5</title>
<g id="a_node5"><a xlink:href="gromacs_2swap_2swapcoords_8cpp.xhtml" target="_top" xlink:title="Implements functions in swapcoords.h. ">
<polygon fill="white" stroke="black" points="412.5,-6 412.5,-25 583.5,-25 583.5,-6 412.5,-6"/>
<text text-anchor="middle" x="498" y="-13" font-family="Helvetica,sans-Serif" font-size="10.00">src/gromacs/swap/swapcoords.cpp</text>
</a>
</g>
</g>
<!-- Node1&#45;&gt;Node5 -->
<g id="edge4" class="edge"><title>Node1&#45;&gt;Node5</title>
<path fill="none" stroke="midnightblue" d="M498,-57.2495C498,-46.017 498,-33.3767 498,-25.1945"/>
<polygon fill="midnightblue" stroke="midnightblue" points="494.5,-57.3959 498,-67.396 501.5,-57.396 494.5,-57.3959"/>
</g>
<!-- Node6 -->
<g id="node6" class="node"><title>Node6</title>
<g id="a_node6"><a xlink:href="modules_2freevolume_8cpp.xhtml" target="_top" xlink:title="Implements gmx::analysismodules::Freevolume. ">
<polygon fill="white" stroke="black" points="602,-0.5 602,-30.5 752,-30.5 752,-0.5 602,-0.5"/>
<text text-anchor="start" x="610" y="-18.5" font-family="Helvetica,sans-Serif" font-size="10.00">src/gromacs/trajectoryanalysis</text>
<text text-anchor="middle" x="677" y="-7.5" font-family="Helvetica,sans-Serif" font-size="10.00">/modules/freevolume.cpp</text>
</a>
</g>
</g>
<!-- Node1&#45;&gt;Node6 -->
<g id="edge5" class="edge"><title>Node1&#45;&gt;Node6</title>
<path fill="none" stroke="midnightblue" d="M546.316,-63.9553C575.15,-53.4847 611.278,-40.3656 638.235,-30.5765"/>
<polygon fill="midnightblue" stroke="midnightblue" points="545.045,-60.6929 536.84,-67.396 547.434,-67.2725 545.045,-60.6929"/>
</g>
<!-- Node7 -->
<g id="node7" class="node"><title>Node7</title>
<g id="a_node7"><a xlink:href="modules_2sasa_8cpp.xhtml" target="_top" xlink:title="Implements gmx::analysismodules::Sasa. ">
<polygon fill="white" stroke="black" points="770,-0.5 770,-30.5 920,-30.5 920,-0.5 770,-0.5"/>
<text text-anchor="start" x="778" y="-18.5" font-family="Helvetica,sans-Serif" font-size="10.00">src/gromacs/trajectoryanalysis</text>
<text text-anchor="middle" x="845" y="-7.5" font-family="Helvetica,sans-Serif" font-size="10.00">/modules/sasa.cpp</text>
</a>
</g>
</g>
<!-- Node1&#45;&gt;Node7 -->
<g id="edge6" class="edge"><title>Node1&#45;&gt;Node7</title>
<path fill="none" stroke="midnightblue" d="M556.475,-70.5464C615.211,-59.544 705.956,-42.5457 769.967,-30.5551"/>
<polygon fill="midnightblue" stroke="midnightblue" points="555.799,-67.1122 546.614,-72.3936 557.088,-73.9925 555.799,-67.1122"/>
</g>
<!-- Node8 -->
<g id="node8" class="node"><title>Node8</title>
<g id="a_node8"><a xlink:href="runner_8cpp.xhtml" target="_top" xlink:title="Implements the MD runner routine calling all integrators. ">
<polygon fill="white" stroke="black" points="938,-0.5 938,-30.5 1042,-30.5 1042,-0.5 938,-0.5"/>
<text text-anchor="start" x="946" y="-18.5" font-family="Helvetica,sans-Serif" font-size="10.00">src/programs/mdrun</text>
<text text-anchor="middle" x="990" y="-7.5" font-family="Helvetica,sans-Serif" font-size="10.00">/runner.cpp</text>
</a>
</g>
</g>
<!-- Node1&#45;&gt;Node8 -->
<g id="edge7" class="edge"><title>Node1&#45;&gt;Node8</title>
<path fill="none" stroke="midnightblue" d="M556.773,-76.804C640.031,-69.6555 796.892,-54.3586 929,-31 931.894,-30.4883 934.856,-29.9232 937.84,-29.3217"/>
<polygon fill="midnightblue" stroke="midnightblue" points="556.415,-73.3217 546.747,-77.6559 557.007,-80.2966 556.415,-73.3217"/>
</g>
</g>
</svg>
