<?xml version="1.0" encoding="UTF-8" standalone="no"?>
<!DOCTYPE svg PUBLIC "-//W3C//DTD SVG 1.1//EN"
 "http://www.w3.org/Graphics/SVG/1.1/DTD/svg11.dtd">
<!-- Generated by graphviz version 2.38.0 (20140413.2041)
 -->
<!-- Title: src/gromacs/ewald/pme&#45;gpu&#45;internal.h Pages: 1 -->
<svg width="785pt" height="173pt"
 viewBox="0.00 0.00 784.50 173.00" xmlns="http://www.w3.org/2000/svg" xmlns:xlink="http://www.w3.org/1999/xlink">
<g id="graph0" class="graph" transform="scale(1 1) rotate(0) translate(4 169)">
<title>src/gromacs/ewald/pme&#45;gpu&#45;internal.h</title>
<polygon fill="white" stroke="none" points="-4,4 -4,-169 780.5,-169 780.5,4 -4,4"/>
<!-- Node1 -->
<g id="node1" class="node"><title>Node1</title>
<polygon fill="#bfbfbf" stroke="black" points="288,-134.5 288,-164.5 409,-164.5 409,-134.5 288,-134.5"/>
<text text-anchor="start" x="296" y="-152.5" font-family="Helvetica,sans-Serif" font-size="10.00">src/gromacs/ewald/pme</text>
<text text-anchor="middle" x="348.5" y="-141.5" font-family="Helvetica,sans-Serif" font-size="10.00">&#45;gpu&#45;internal.h</text>
</g>
<!-- Node2 -->
<g id="node2" class="node"><title>Node2</title>
<g id="a_node2"><a xlink:href="pme-gpu-internal_8cpp.xhtml" target="_top" xlink:title="This file contains internal function implementations for performing the PME calculations on GPU...">
<polygon fill="white" stroke="black" points="0,-67.5 0,-97.5 121,-97.5 121,-67.5 0,-67.5"/>
<text text-anchor="start" x="8" y="-85.5" font-family="Helvetica,sans-Serif" font-size="10.00">src/gromacs/ewald/pme</text>
<text text-anchor="middle" x="60.5" y="-74.5" font-family="Helvetica,sans-Serif" font-size="10.00">&#45;gpu&#45;internal.cpp</text>
</a>
</g>
</g>
<!-- Node1&#45;&gt;Node2 -->
<g id="edge1" class="edge"><title>Node1&#45;&gt;Node2</title>
<path fill="none" stroke="midnightblue" d="M277.762,-132.535C229.732,-121.695 166.881,-107.51 121.142,-97.1867"/>
<polygon fill="midnightblue" stroke="midnightblue" points="277.249,-136.007 287.775,-134.795 278.79,-129.179 277.249,-136.007"/>
</g>
<!-- Node3 -->
<g id="node3" class="node"><title>Node3</title>
<g id="a_node3"><a xlink:href="pme-gpu_8cpp.xhtml" target="_top" xlink:title="Implements high&#45;level PME GPU functions which do not require GPU framework&#45;specific code...">
<polygon fill="white" stroke="black" points="139,-67.5 139,-97.5 260,-97.5 260,-67.5 139,-67.5"/>
<text text-anchor="start" x="147" y="-85.5" font-family="Helvetica,sans-Serif" font-size="10.00">src/gromacs/ewald/pme</text>
<text text-anchor="middle" x="199.5" y="-74.5" font-family="Helvetica,sans-Serif" font-size="10.00">&#45;gpu.cpp</text>
</a>
</g>
</g>
<!-- Node1&#45;&gt;Node3 -->
<g id="edge2" class="edge"><title>Node1&#45;&gt;Node3</title>
<path fill="none" stroke="midnightblue" d="M306.708,-130.269C282.976,-119.916 253.72,-107.153 231.768,-97.5765"/>
<polygon fill="midnightblue" stroke="midnightblue" points="305.604,-133.605 316.169,-134.396 308.403,-127.189 305.604,-133.605"/>
</g>
<!-- Node4 -->
<g id="node4" class="node"><title>Node4</title>
<g id="a_node4"><a xlink:href="pme_8cpp.xhtml" target="_top" xlink:title="This file contains function definitions necessary for computing energies and forces for the PME long&#45;...">
<polygon fill="white" stroke="black" points="278.5,-73 278.5,-92 418.5,-92 418.5,-73 278.5,-73"/>
<text text-anchor="middle" x="348.5" y="-80" font-family="Helvetica,sans-Serif" font-size="10.00">src/gromacs/ewald/pme.cpp</text>
</a>
</g>
</g>
<!-- Node1&#45;&gt;Node4 -->
<g id="edge3" class="edge"><title>Node1&#45;&gt;Node4</title>
<path fill="none" stroke="midnightblue" d="M348.5,-124.25C348.5,-113.017 348.5,-100.377 348.5,-92.1945"/>
<polygon fill="midnightblue" stroke="midnightblue" points="345,-124.396 348.5,-134.396 352,-124.396 345,-124.396"/>
</g>
<!-- Node5 -->
<g id="node5" class="node"><title>Node5</title>
<g id="a_node5"><a xlink:href="pmetestcommon_8h.xhtml" target="_top" xlink:title="Describes common routines and types for PME tests. ">
<polygon fill="white" stroke="black" points="436.5,-67.5 436.5,-97.5 560.5,-97.5 560.5,-67.5 436.5,-67.5"/>
<text text-anchor="start" x="444.5" y="-85.5" font-family="Helvetica,sans-Serif" font-size="10.00">src/gromacs/ewald/tests</text>
<text text-anchor="middle" x="498.5" y="-74.5" font-family="Helvetica,sans-Serif" font-size="10.00">/pmetestcommon.h</text>
</a>
</g>
</g>
<!-- Node1&#45;&gt;Node5 -->
<g id="edge4" class="edge"><title>Node1&#45;&gt;Node5</title>
<path fill="none" stroke="midnightblue" d="M390.254,-130.407C414.201,-120.029 443.818,-107.195 466.016,-97.5765"/>
<polygon fill="midnightblue" stroke="midnightblue" points="388.832,-127.208 381.048,-134.396 391.615,-133.631 388.832,-127.208"/>
</g>
<!-- Node10 -->
<g id="node10" class="node"><title>Node10</title>
<g id="a_node10"><a xlink:href="pmetestcommon_8cpp.xhtml" target="_top" xlink:title="Implements common routines for PME tests. ">
<polygon fill="white" stroke="black" points="652.5,-0.5 652.5,-30.5 776.5,-30.5 776.5,-0.5 652.5,-0.5"/>
<text text-anchor="start" x="660.5" y="-18.5" font-family="Helvetica,sans-Serif" font-size="10.00">src/gromacs/ewald/tests</text>
<text text-anchor="middle" x="714.5" y="-7.5" font-family="Helvetica,sans-Serif" font-size="10.00">/pmetestcommon.cpp</text>
</a>
</g>
</g>
<!-- Node1&#45;&gt;Node10 -->
<g id="edge10" class="edge"><title>Node1&#45;&gt;Node10</title>
<path fill="none" stroke="midnightblue" d="M419.506,-137.637C463.616,-129.588 520.959,-116.735 569.5,-98 616.376,-79.907 666.517,-48.7582 693.828,-30.6598"/>
<polygon fill="midnightblue" stroke="midnightblue" points="418.68,-134.229 409.45,-139.431 419.909,-141.12 418.68,-134.229"/>
</g>
<!-- Node6 -->
<g id="node6" class="node"><title>Node6</title>
<g id="a_node6"><a xlink:href="pmebsplinetest_8cpp.xhtml" target="_top" xlink:title="Implements PME B&#45;spline moduli computation tests. ">
<polygon fill="white" stroke="black" points="80.5,-0.5 80.5,-30.5 204.5,-30.5 204.5,-0.5 80.5,-0.5"/>
<text text-anchor="start" x="88.5" y="-18.5" font-family="Helvetica,sans-Serif" font-size="10.00">src/gromacs/ewald/tests</text>
<text text-anchor="middle" x="142.5" y="-7.5" font-family="Helvetica,sans-Serif" font-size="10.00">/pmebsplinetest.cpp</text>
</a>
</g>
</g>
<!-- Node5&#45;&gt;Node6 -->
<g id="edge5" class="edge"><title>Node5&#45;&gt;Node6</title>
<path fill="none" stroke="midnightblue" d="M426.132,-66.7841C330.986,-49.2831 305.17,-48.0659 213.5,-31 210.655,-30.4704 207.749,-29.9189 204.814,-29.3538"/>
<polygon fill="midnightblue" stroke="midnightblue" points="425.716,-70.2665 436.186,-68.6462 426.991,-63.3835 425.716,-70.2665"/>
</g>
<!-- Node7 -->
<g id="node7" class="node"><title>Node7</title>
<g id="a_node7"><a xlink:href="pmegathertest_8cpp.xhtml" target="_top" xlink:title="Implements PME force gathering tests. ">
<polygon fill="white" stroke="black" points="222.5,-0.5 222.5,-30.5 346.5,-30.5 346.5,-0.5 222.5,-0.5"/>
<text text-anchor="start" x="230.5" y="-18.5" font-family="Helvetica,sans-Serif" font-size="10.00">src/gromacs/ewald/tests</text>
<text text-anchor="middle" x="284.5" y="-7.5" font-family="Helvetica,sans-Serif" font-size="10.00">/pmegathertest.cpp</text>
</a>
</g>
</g>
<!-- Node5&#45;&gt;Node7 -->
<g id="edge6" class="edge"><title>Node5&#45;&gt;Node7</title>
<path fill="none" stroke="midnightblue" d="M442.347,-64.4442C407.658,-53.9078 363.678,-40.5495 330.957,-30.6109"/>
<polygon fill="midnightblue" stroke="midnightblue" points="441.743,-67.9186 452.329,-67.476 443.778,-61.2207 441.743,-67.9186"/>
</g>
<!-- Node8 -->
<g id="node8" class="node"><title>Node8</title>
<g id="a_node8"><a xlink:href="pmesolvetest_8cpp.xhtml" target="_top" xlink:title="Implements PME solving tests. ">
<polygon fill="white" stroke="black" points="364.5,-0.5 364.5,-30.5 488.5,-30.5 488.5,-0.5 364.5,-0.5"/>
<text text-anchor="start" x="372.5" y="-18.5" font-family="Helvetica,sans-Serif" font-size="10.00">src/gromacs/ewald/tests</text>
<text text-anchor="middle" x="426.5" y="-7.5" font-family="Helvetica,sans-Serif" font-size="10.00">/pmesolvetest.cpp</text>
</a>
</g>
</g>
<!-- Node5&#45;&gt;Node8 -->
<g id="edge7" class="edge"><title>Node5&#45;&gt;Node8</title>
<path fill="none" stroke="midnightblue" d="M475.347,-60.5978C464.475,-50.7831 451.804,-39.3442 442.092,-30.5765"/>
<polygon fill="midnightblue" stroke="midnightblue" points="473.109,-63.2929 482.877,-67.396 477.8,-58.097 473.109,-63.2929"/>
</g>
<!-- Node9 -->
<g id="node9" class="node"><title>Node9</title>
<g id="a_node9"><a xlink:href="pmesplinespreadtest_8cpp.xhtml" target="_top" xlink:title="Implements PME spline computation and charge spreading tests. ">
<polygon fill="white" stroke="black" points="506.5,-0.5 506.5,-30.5 634.5,-30.5 634.5,-0.5 506.5,-0.5"/>
<text text-anchor="start" x="514.5" y="-18.5" font-family="Helvetica,sans-Serif" font-size="10.00">src/gromacs/ewald/tests</text>
<text text-anchor="middle" x="570.5" y="-7.5" font-family="Helvetica,sans-Serif" font-size="10.00">/pmesplinespreadtest.cpp</text>
</a>
</g>
</g>
<!-- Node5&#45;&gt;Node9 -->
<g id="edge8" class="edge"><title>Node5&#45;&gt;Node9</title>
<path fill="none" stroke="midnightblue" d="M521.653,-60.5978C532.525,-50.7831 545.196,-39.3442 554.908,-30.5765"/>
<polygon fill="midnightblue" stroke="midnightblue" points="519.2,-58.097 514.123,-67.396 523.891,-63.2929 519.2,-58.097"/>
</g>
<!-- Node5&#45;&gt;Node10 -->
<g id="edge9" class="edge"><title>Node5&#45;&gt;Node10</title>
<path fill="none" stroke="midnightblue" d="M554.727,-64.5797C589.81,-54.0225 634.44,-40.5921 667.608,-30.6109"/>
<polygon fill="midnightblue" stroke="midnightblue" points="553.67,-61.2428 545.103,-67.476 555.687,-67.9458 553.67,-61.2428"/>
</g>
</g>
</svg>
