<?xml version="1.0" encoding="UTF-8" standalone="no"?>
<!DOCTYPE svg PUBLIC "-//W3C//DTD SVG 1.1//EN"
 "http://www.w3.org/Graphics/SVG/1.1/DTD/svg11.dtd">
<!-- Generated by graphviz version 2.38.0 (20140413.2041)
 -->
<!-- Title: src/gromacs/awh/pointstate.h Pages: 1 -->
<svg width="826pt" height="84pt"
 viewBox="0.00 0.00 825.50 84.00" xmlns="http://www.w3.org/2000/svg" xmlns:xlink="http://www.w3.org/1999/xlink">
<g id="graph0" class="graph" transform="scale(1 1) rotate(0) translate(4 80)">
<title>src/gromacs/awh/pointstate.h</title>
<polygon fill="white" stroke="none" points="-4,4 -4,-80 821.5,-80 821.5,4 -4,4"/>
<!-- Node1 -->
<g id="node1" class="node"><title>Node1</title>
<polygon fill="#bfbfbf" stroke="black" points="301.5,-56.5 301.5,-75.5 447.5,-75.5 447.5,-56.5 301.5,-56.5"/>
<text text-anchor="middle" x="374.5" y="-63.5" font-family="Helvetica,sans-Serif" font-size="10.00">src/gromacs/awh/pointstate.h</text>
</g>
<!-- Node2 -->
<g id="node2" class="node"><title>Node2</title>
<g id="a_node2"><a xlink:href="awh_8cpp.xhtml" target="_top" xlink:title="Implements the Awh class. ">
<polygon fill="white" stroke="black" points="0,-0.5 0,-19.5 131,-19.5 131,-0.5 0,-0.5"/>
<text text-anchor="middle" x="65.5" y="-7.5" font-family="Helvetica,sans-Serif" font-size="10.00">src/gromacs/awh/awh.cpp</text>
</a>
</g>
</g>
<!-- Node1&#45;&gt;Node2 -->
<g id="edge1" class="edge"><title>Node1&#45;&gt;Node2</title>
<path fill="none" stroke="midnightblue" d="M315.356,-54.6642C256.961,-44.4592 168.721,-29.0386 114.233,-19.5164"/>
<polygon fill="midnightblue" stroke="midnightblue" points="315.085,-58.1697 325.538,-56.4435 316.29,-51.2742 315.085,-58.1697"/>
</g>
<!-- Node3 -->
<g id="node3" class="node"><title>Node3</title>
<g id="a_node3"><a xlink:href="bias_8cpp.xhtml" target="_top" xlink:title="Implements the Bias class. ">
<polygon fill="white" stroke="black" points="149,-0.5 149,-19.5 280,-19.5 280,-0.5 149,-0.5"/>
<text text-anchor="middle" x="214.5" y="-7.5" font-family="Helvetica,sans-Serif" font-size="10.00">src/gromacs/awh/bias.cpp</text>
</a>
</g>
</g>
<!-- Node1&#45;&gt;Node3 -->
<g id="edge2" class="edge"><title>Node1&#45;&gt;Node3</title>
<path fill="none" stroke="midnightblue" d="M339.454,-53.172C309.326,-43.0039 266.604,-28.5852 239.734,-19.5164"/>
<polygon fill="midnightblue" stroke="midnightblue" points="338.553,-56.5619 349.148,-56.4435 340.792,-49.9295 338.553,-56.5619"/>
</g>
<!-- Node4 -->
<g id="node4" class="node"><title>Node4</title>
<g id="a_node4"><a xlink:href="biasstate_8cpp.xhtml" target="_top" xlink:title="Implements the BiasState class. ">
<polygon fill="white" stroke="black" points="298,-0.5 298,-19.5 451,-19.5 451,-0.5 298,-0.5"/>
<text text-anchor="middle" x="374.5" y="-7.5" font-family="Helvetica,sans-Serif" font-size="10.00">src/gromacs/awh/biasstate.cpp</text>
</a>
</g>
</g>
<!-- Node1&#45;&gt;Node4 -->
<g id="edge3" class="edge"><title>Node1&#45;&gt;Node4</title>
<path fill="none" stroke="midnightblue" d="M374.5,-45.8045C374.5,-36.9102 374.5,-26.7798 374.5,-19.7511"/>
<polygon fill="midnightblue" stroke="midnightblue" points="371,-46.083 374.5,-56.083 378,-46.083 371,-46.083"/>
</g>
<!-- Node5 -->
<g id="node5" class="node"><title>Node5</title>
<g id="a_node5"><a xlink:href="histogramsize_8cpp.xhtml" target="_top" xlink:title="Implements the HistogramSize class. ">
<polygon fill="white" stroke="black" points="469.5,-0.5 469.5,-19.5 643.5,-19.5 643.5,-0.5 469.5,-0.5"/>
<text text-anchor="middle" x="556.5" y="-7.5" font-family="Helvetica,sans-Serif" font-size="10.00">src/gromacs/awh/histogramsize.cpp</text>
</a>
</g>
</g>
<!-- Node1&#45;&gt;Node5 -->
<g id="edge4" class="edge"><title>Node1&#45;&gt;Node5</title>
<path fill="none" stroke="midnightblue" d="M413.031,-53.5677C447.364,-43.381 496.833,-28.7034 527.796,-19.5164"/>
<polygon fill="midnightblue" stroke="midnightblue" points="411.93,-50.2436 403.338,-56.4435 413.921,-56.9544 411.93,-50.2436"/>
</g>
<!-- Node6 -->
<g id="node6" class="node"><title>Node6</title>
<g id="a_node6"><a xlink:href="pointstate_8cpp.xhtml" target="_top" xlink:title="Implements the one method of the PointState class called only for one point per step. ">
<polygon fill="white" stroke="black" points="661.5,-0.5 661.5,-19.5 817.5,-19.5 817.5,-0.5 661.5,-0.5"/>
<text text-anchor="middle" x="739.5" y="-7.5" font-family="Helvetica,sans-Serif" font-size="10.00">src/gromacs/awh/pointstate.cpp</text>
</a>
</g>
</g>
<!-- Node1&#45;&gt;Node6 -->
<g id="edge5" class="edge"><title>Node1&#45;&gt;Node6</title>
<path fill="none" stroke="midnightblue" d="M442.232,-54.9794C511.179,-44.7791 616.906,-29.1372 681.935,-19.5164"/>
<polygon fill="midnightblue" stroke="midnightblue" points="441.715,-51.5176 432.335,-56.4435 442.74,-58.4422 441.715,-51.5176"/>
</g>
</g>
</svg>
