<?xml version="1.0" encoding="UTF-8" standalone="no"?>
<!DOCTYPE svg PUBLIC "-//W3C//DTD SVG 1.1//EN"
 "http://www.w3.org/Graphics/SVG/1.1/DTD/svg11.dtd">
<!-- Generated by graphviz version 2.38.0 (20140413.2041)
 -->
<!-- Title: src/gromacs/awh/pointstate.h Pages: 1 -->
<svg width="706pt" height="274pt"
 viewBox="0.00 0.00 705.50 274.00" xmlns="http://www.w3.org/2000/svg" xmlns:xlink="http://www.w3.org/1999/xlink">
<g id="graph0" class="graph" transform="scale(1 1) rotate(0) translate(4 270)">
<title>src/gromacs/awh/pointstate.h</title>
<polygon fill="white" stroke="none" points="-4,4 -4,-270 701.5,-270 701.5,4 -4,4"/>
<!-- Node1 -->
<g id="node1" class="node"><title>Node1</title>
<polygon fill="#bfbfbf" stroke="black" points="212,-246.5 212,-265.5 358,-265.5 358,-246.5 212,-246.5"/>
<text text-anchor="middle" x="285" y="-253.5" font-family="Helvetica,sans-Serif" font-size="10.00">src/gromacs/awh/pointstate.h</text>
</g>
<!-- Node2 -->
<g id="node2" class="node"><title>Node2</title>
<polygon fill="white" stroke="#bfbfbf" points="52,-185 52,-204 96,-204 96,-185 52,-185"/>
<text text-anchor="middle" x="74" y="-192" font-family="Helvetica,sans-Serif" font-size="10.00">cmath</text>
</g>
<!-- Node1&#45;&gt;Node2 -->
<g id="edge1" class="edge"><title>Node1&#45;&gt;Node2</title>
<path fill="none" stroke="midnightblue" d="M241.024,-246.483C204.144,-238.756 150.38,-226.116 105,-210 103.383,-209.426 101.737,-208.797 100.088,-208.132"/>
<polygon fill="midnightblue" stroke="midnightblue" points="101.373,-204.874 90.8082,-204.079 98.5712,-211.289 101.373,-204.874"/>
</g>
<!-- Node3 -->
<g id="node3" class="node"><title>Node3</title>
<g id="a_node3"><a xlink:href="awh-history_8h.xhtml" target="_top" xlink:title="Contains datatypes and function declarations needed by AWH to have its data checkpointed. ">
<polygon fill="white" stroke="black" points="114,-179.5 114,-209.5 230,-209.5 230,-179.5 114,-179.5"/>
<text text-anchor="start" x="122" y="-197.5" font-family="Helvetica,sans-Serif" font-size="10.00">gromacs/mdtypes/awh</text>
<text text-anchor="middle" x="172" y="-186.5" font-family="Helvetica,sans-Serif" font-size="10.00">&#45;history.h</text>
</a>
</g>
</g>
<!-- Node1&#45;&gt;Node3 -->
<g id="edge2" class="edge"><title>Node1&#45;&gt;Node3</title>
<path fill="none" stroke="midnightblue" d="M268.81,-246.475C252.933,-238.115 228.197,-225.09 207.702,-214.299"/>
<polygon fill="midnightblue" stroke="midnightblue" points="209.111,-211.085 198.632,-209.523 205.85,-217.279 209.111,-211.085"/>
</g>
<!-- Node9 -->
<g id="node9" class="node"><title>Node9</title>
<g id="a_node9"><a xlink:href="awh-params_8h.xhtml" target="_top" xlink:title="Declares AWH parameter data types. ">
<polygon fill="white" stroke="black" points="340,-179.5 340,-209.5 456,-209.5 456,-179.5 340,-179.5"/>
<text text-anchor="start" x="348" y="-197.5" font-family="Helvetica,sans-Serif" font-size="10.00">gromacs/mdtypes/awh</text>
<text text-anchor="middle" x="398" y="-186.5" font-family="Helvetica,sans-Serif" font-size="10.00">&#45;params.h</text>
</a>
</g>
</g>
<!-- Node1&#45;&gt;Node9 -->
<g id="edge9" class="edge"><title>Node1&#45;&gt;Node9</title>
<path fill="none" stroke="midnightblue" d="M301.19,-246.475C317.067,-238.115 341.803,-225.09 362.298,-214.299"/>
<polygon fill="midnightblue" stroke="midnightblue" points="364.15,-217.279 371.368,-209.523 360.889,-211.085 364.15,-217.279"/>
</g>
<!-- Node11 -->
<g id="node11" class="node"><title>Node11</title>
<g id="a_node11"><a xlink:href="gmxassert_8h.xhtml" target="_top" xlink:title="Defines assert macros customized for Gromacs. ">
<polygon fill="white" stroke="black" points="487.5,-185 487.5,-204 624.5,-204 624.5,-185 487.5,-185"/>
<text text-anchor="middle" x="556" y="-192" font-family="Helvetica,sans-Serif" font-size="10.00">gromacs/utility/gmxassert.h</text>
</a>
</g>
</g>
<!-- Node1&#45;&gt;Node11 -->
<g id="edge13" class="edge"><title>Node1&#45;&gt;Node11</title>
<path fill="none" stroke="midnightblue" d="M323.828,-246.475C372.125,-235.871 454.613,-217.76 507.154,-206.224"/>
<polygon fill="midnightblue" stroke="midnightblue" points="508.228,-209.572 517.244,-204.009 506.726,-202.735 508.228,-209.572"/>
</g>
<!-- Node13 -->
<g id="node13" class="node"><title>Node13</title>
<g id="a_node13"><a xlink:href="biasparams_8h.xhtml" target="_top" xlink:title="Declares the BiasParams class. ">
<polygon fill="white" stroke="black" points="247.5,-185 247.5,-204 322.5,-204 322.5,-185 247.5,-185"/>
<text text-anchor="middle" x="285" y="-192" font-family="Helvetica,sans-Serif" font-size="10.00">biasparams.h</text>
</a>
</g>
</g>
<!-- Node1&#45;&gt;Node13 -->
<g id="edge16" class="edge"><title>Node1&#45;&gt;Node13</title>
<path fill="none" stroke="midnightblue" d="M285,-246.475C285,-238.08 285,-224.981 285,-214.163"/>
<polygon fill="midnightblue" stroke="midnightblue" points="288.5,-214.009 285,-204.009 281.5,-214.009 288.5,-214.009"/>
</g>
<!-- Node4 -->
<g id="node4" class="node"><title>Node4</title>
<polygon fill="white" stroke="#bfbfbf" points="141,-56.5 141,-75.5 185,-75.5 185,-56.5 141,-56.5"/>
<text text-anchor="middle" x="163" y="-63.5" font-family="Helvetica,sans-Serif" font-size="10.00">vector</text>
</g>
<!-- Node3&#45;&gt;Node4 -->
<g id="edge3" class="edge"><title>Node3&#45;&gt;Node4</title>
<path fill="none" stroke="midnightblue" d="M170.829,-179.355C170.003,-169.232 168.89,-155.281 168,-143 166.598,-123.663 165.162,-101.545 164.191,-86.1751"/>
<polygon fill="midnightblue" stroke="midnightblue" points="167.665,-85.6566 163.547,-75.895 160.679,-86.0943 167.665,-85.6566"/>
</g>
<!-- Node5 -->
<g id="node5" class="node"><title>Node5</title>
<g id="a_node5"><a xlink:href="awh-correlation-history_8h.xhtml" target="_top" xlink:title="Contains datatypes and function declarations needed by AWH to have its force correlation data checkpo...">
<polygon fill="white" stroke="black" points="0,-112.5 0,-142.5 116,-142.5 116,-112.5 0,-112.5"/>
<text text-anchor="start" x="8" y="-130.5" font-family="Helvetica,sans-Serif" font-size="10.00">gromacs/mdtypes/awh</text>
<text text-anchor="middle" x="58" y="-119.5" font-family="Helvetica,sans-Serif" font-size="10.00">&#45;correlation&#45;history.h</text>
</a>
</g>
</g>
<!-- Node3&#45;&gt;Node5 -->
<g id="edge4" class="edge"><title>Node3&#45;&gt;Node5</title>
<path fill="none" stroke="midnightblue" d="M147.264,-179.396C130.98,-170.112 109.459,-157.841 91.6287,-147.674"/>
<polygon fill="midnightblue" stroke="midnightblue" points="93.1088,-144.489 82.688,-142.577 89.6415,-150.57 93.1088,-144.489"/>
</g>
<!-- Node6 -->
<g id="node6" class="node"><title>Node6</title>
<g id="a_node6"><a xlink:href="basedefinitions_8h.xhtml" target="_top" xlink:title="Basic types and macros used throughout GROMACS. ">
<polygon fill="white" stroke="black" points="290.5,-56.5 290.5,-75.5 447.5,-75.5 447.5,-56.5 290.5,-56.5"/>
<text text-anchor="middle" x="369" y="-63.5" font-family="Helvetica,sans-Serif" font-size="10.00">gromacs/utility/basedefinitions.h</text>
</a>
</g>
</g>
<!-- Node3&#45;&gt;Node6 -->
<g id="edge6" class="edge"><title>Node3&#45;&gt;Node6</title>
<path fill="none" stroke="midnightblue" d="M180.167,-179.375C191.289,-161.314 212.84,-130.205 239,-112 262.104,-95.9215 291.487,-85.1097 316.472,-78.1231"/>
<polygon fill="midnightblue" stroke="midnightblue" points="317.403,-81.4973 326.164,-75.5397 315.6,-74.7334 317.403,-81.4973"/>
</g>
<!-- Node5&#45;&gt;Node4 -->
<g id="edge5" class="edge"><title>Node5&#45;&gt;Node4</title>
<path fill="none" stroke="midnightblue" d="M82.8835,-112.399C99.7142,-102.862 121.839,-90.3248 138.573,-80.8422"/>
<polygon fill="midnightblue" stroke="midnightblue" points="140.747,-83.633 147.722,-75.6578 137.296,-77.5429 140.747,-83.633"/>
</g>
<!-- Node7 -->
<g id="node7" class="node"><title>Node7</title>
<polygon fill="white" stroke="#bfbfbf" points="308.5,-0.5 308.5,-19.5 357.5,-19.5 357.5,-0.5 308.5,-0.5"/>
<text text-anchor="middle" x="333" y="-7.5" font-family="Helvetica,sans-Serif" font-size="10.00">stdint.h</text>
</g>
<!-- Node6&#45;&gt;Node7 -->
<g id="edge7" class="edge"><title>Node6&#45;&gt;Node7</title>
<path fill="none" stroke="midnightblue" d="M363.055,-56.083C358.023,-48.5341 350.663,-37.4948 344.487,-28.2298"/>
<polygon fill="midnightblue" stroke="midnightblue" points="347.293,-26.1301 338.834,-19.7511 341.469,-30.0131 347.293,-26.1301"/>
</g>
<!-- Node8 -->
<g id="node8" class="node"><title>Node8</title>
<polygon fill="white" stroke="#bfbfbf" points="375.5,-0.5 375.5,-19.5 434.5,-19.5 434.5,-0.5 375.5,-0.5"/>
<text text-anchor="middle" x="405" y="-7.5" font-family="Helvetica,sans-Serif" font-size="10.00">inttypes.h</text>
</g>
<!-- Node6&#45;&gt;Node8 -->
<g id="edge8" class="edge"><title>Node6&#45;&gt;Node8</title>
<path fill="none" stroke="midnightblue" d="M374.945,-56.083C379.977,-48.5341 387.337,-37.4948 393.513,-28.2298"/>
<polygon fill="midnightblue" stroke="midnightblue" points="396.531,-30.0131 399.166,-19.7511 390.707,-26.1301 396.531,-30.0131"/>
</g>
<!-- Node9&#45;&gt;Node6 -->
<g id="edge12" class="edge"><title>Node9&#45;&gt;Node6</title>
<path fill="none" stroke="midnightblue" d="M394.786,-179.479C389.544,-156.616 379.155,-111.296 373.29,-85.7129"/>
<polygon fill="midnightblue" stroke="midnightblue" points="376.661,-84.7536 371.015,-75.7885 369.838,-86.3178 376.661,-84.7536"/>
</g>
<!-- Node10 -->
<g id="node10" class="node"><title>Node10</title>
<g id="a_node10"><a xlink:href="md__enums_8h.xhtml" target="_top" xlink:title="Declares enumerated types used throughout the code. ">
<polygon fill="white" stroke="black" points="416.5,-112.5 416.5,-142.5 527.5,-142.5 527.5,-112.5 416.5,-112.5"/>
<text text-anchor="start" x="424.5" y="-130.5" font-family="Helvetica,sans-Serif" font-size="10.00">gromacs/mdtypes/md</text>
<text text-anchor="middle" x="472" y="-119.5" font-family="Helvetica,sans-Serif" font-size="10.00">_enums.h</text>
</a>
</g>
</g>
<!-- Node9&#45;&gt;Node10 -->
<g id="edge10" class="edge"><title>Node9&#45;&gt;Node10</title>
<path fill="none" stroke="midnightblue" d="M414.057,-179.396C424.045,-170.623 437.069,-159.183 448.239,-149.371"/>
<polygon fill="midnightblue" stroke="midnightblue" points="450.771,-151.806 455.974,-142.577 446.151,-146.546 450.771,-151.806"/>
</g>
<!-- Node10&#45;&gt;Node6 -->
<g id="edge11" class="edge"><title>Node10&#45;&gt;Node6</title>
<path fill="none" stroke="midnightblue" d="M447.59,-112.399C431.08,-102.862 409.377,-90.3248 392.962,-80.8422"/>
<polygon fill="midnightblue" stroke="midnightblue" points="394.397,-77.6292 383.987,-75.6578 390.896,-83.6906 394.397,-77.6292"/>
</g>
<!-- Node11&#45;&gt;Node6 -->
<g id="edge14" class="edge"><title>Node11&#45;&gt;Node6</title>
<path fill="none" stroke="midnightblue" d="M556.657,-184.783C557.397,-168.24 556.501,-132.149 537,-112 516.243,-90.5535 486.469,-78.9598 457.736,-72.8077"/>
<polygon fill="midnightblue" stroke="midnightblue" points="458.115,-69.3162 447.632,-70.8513 456.784,-76.1886 458.115,-69.3162"/>
</g>
<!-- Node12 -->
<g id="node12" class="node"><title>Node12</title>
<g id="a_node12"><a xlink:href="current__function_8h.xhtml" target="_top" xlink:title="Declares GMX_CURRENT_FUNCTION for getting the current function name. ">
<polygon fill="white" stroke="black" points="584.5,-112.5 584.5,-142.5 697.5,-142.5 697.5,-112.5 584.5,-112.5"/>
<text text-anchor="start" x="592.5" y="-130.5" font-family="Helvetica,sans-Serif" font-size="10.00">gromacs/utility/current</text>
<text text-anchor="middle" x="641" y="-119.5" font-family="Helvetica,sans-Serif" font-size="10.00">_function.h</text>
</a>
</g>
</g>
<!-- Node11&#45;&gt;Node12 -->
<g id="edge15" class="edge"><title>Node11&#45;&gt;Node12</title>
<path fill="none" stroke="midnightblue" d="M567.463,-184.734C579.393,-175.611 598.495,-161.004 614.241,-148.963"/>
<polygon fill="midnightblue" stroke="midnightblue" points="616.758,-151.444 622.576,-142.589 612.506,-145.883 616.758,-151.444"/>
</g>
<!-- Node13&#45;&gt;Node4 -->
<g id="edge17" class="edge"><title>Node13&#45;&gt;Node4</title>
<path fill="none" stroke="midnightblue" d="M276.614,-184.805C256.416,-163.862 204.812,-110.354 178.675,-83.2532"/>
<polygon fill="midnightblue" stroke="midnightblue" points="180.905,-80.524 171.444,-75.7557 175.867,-85.3833 180.905,-80.524"/>
</g>
<!-- Node13&#45;&gt;Node6 -->
<g id="edge18" class="edge"><title>Node13&#45;&gt;Node6</title>
<path fill="none" stroke="midnightblue" d="M294.29,-184.836C304.214,-175.253 319.998,-159.039 331,-143 343.732,-124.439 354.786,-101.006 361.639,-85.1015"/>
<polygon fill="midnightblue" stroke="midnightblue" points="364.873,-86.4398 365.512,-75.8643 358.417,-83.7334 364.873,-86.4398"/>
</g>
<!-- Node14 -->
<g id="node14" class="node"><title>Node14</title>
<g id="a_node14"><a xlink:href="dimparams_8h.xhtml" target="_top" xlink:title="Declares the DimParams struct and AWH vector types. ">
<polygon fill="white" stroke="black" points="248.5,-118 248.5,-137 321.5,-137 321.5,-118 248.5,-118"/>
<text text-anchor="middle" x="285" y="-125" font-family="Helvetica,sans-Serif" font-size="10.00">dimparams.h</text>
</a>
</g>
</g>
<!-- Node13&#45;&gt;Node14 -->
<g id="edge19" class="edge"><title>Node13&#45;&gt;Node14</title>
<path fill="none" stroke="midnightblue" d="M285,-184.734C285,-175.183 285,-159.618 285,-147.283"/>
<polygon fill="midnightblue" stroke="midnightblue" points="288.5,-147.127 285,-137.127 281.5,-147.127 288.5,-147.127"/>
</g>
<!-- Node14&#45;&gt;Node4 -->
<g id="edge20" class="edge"><title>Node14&#45;&gt;Node4</title>
<path fill="none" stroke="midnightblue" d="M267.52,-117.975C247.137,-108.034 213.225,-91.4947 189.575,-79.961"/>
<polygon fill="midnightblue" stroke="midnightblue" points="190.969,-76.7468 180.447,-75.5091 187.901,-83.0385 190.969,-76.7468"/>
</g>
<!-- Node14&#45;&gt;Node6 -->
<g id="edge21" class="edge"><title>Node14&#45;&gt;Node6</title>
<path fill="none" stroke="midnightblue" d="M297.035,-117.975C310.508,-108.431 332.566,-92.8073 348.715,-81.3683"/>
<polygon fill="midnightblue" stroke="midnightblue" points="350.85,-84.1454 356.987,-75.5091 346.804,-78.4332 350.85,-84.1454"/>
</g>
</g>
</svg>
