<?xml version="1.0" encoding="UTF-8" standalone="no"?>
<!DOCTYPE svg PUBLIC "-//W3C//DTD SVG 1.1//EN"
 "http://www.w3.org/Graphics/SVG/1.1/DTD/svg11.dtd">
<!-- Generated by graphviz version 2.38.0 (20140413.2041)
 -->
<!-- Title: src/gromacs/selection/poscalc.h Pages: 1 -->
<svg width="216pt" height="151pt"
 viewBox="0.00 0.00 215.50 151.00" xmlns="http://www.w3.org/2000/svg" xmlns:xlink="http://www.w3.org/1999/xlink">
<g id="graph0" class="graph" transform="scale(1 1) rotate(0) translate(4 147)">
<title>src/gromacs/selection/poscalc.h</title>
<polygon fill="white" stroke="none" points="-4,4 -4,-147 211.5,-147 211.5,4 -4,4"/>
<!-- Node1 -->
<g id="node1" class="node"><title>Node1</title>
<polygon fill="#bfbfbf" stroke="black" points="21,-112.5 21,-142.5 134,-142.5 134,-112.5 21,-112.5"/>
<text text-anchor="start" x="29" y="-130.5" font-family="Helvetica,sans-Serif" font-size="10.00">src/gromacs/selection</text>
<text text-anchor="middle" x="77.5" y="-119.5" font-family="Helvetica,sans-Serif" font-size="10.00">/poscalc.h</text>
</g>
<!-- Node2 -->
<g id="node2" class="node"><title>Node2</title>
<polygon fill="white" stroke="#bfbfbf" points="0,-56.5 0,-75.5 43,-75.5 43,-56.5 0,-56.5"/>
<text text-anchor="middle" x="21.5" y="-63.5" font-family="Helvetica,sans-Serif" font-size="10.00">cstdio</text>
</g>
<!-- Node1&#45;&gt;Node2 -->
<g id="edge1" class="edge"><title>Node1&#45;&gt;Node2</title>
<path fill="none" stroke="midnightblue" d="M64.2288,-112.399C55.9235,-103.575 45.2014,-92.1827 36.5756,-83.0178"/>
<polygon fill="midnightblue" stroke="midnightblue" points="39.0509,-80.541 29.6485,-75.6578 33.9535,-85.3386 39.0509,-80.541"/>
</g>
<!-- Node3 -->
<g id="node3" class="node"><title>Node3</title>
<g id="a_node3"><a xlink:href="classhelpers_8h.xhtml" target="_top" xlink:title="Declares common utility classes and macros. ">
<polygon fill="white" stroke="black" points="61.5,-56.5 61.5,-75.5 207.5,-75.5 207.5,-56.5 61.5,-56.5"/>
<text text-anchor="middle" x="134.5" y="-63.5" font-family="Helvetica,sans-Serif" font-size="10.00">gromacs/utility/classhelpers.h</text>
</a>
</g>
</g>
<!-- Node1&#45;&gt;Node3 -->
<g id="edge2" class="edge"><title>Node1&#45;&gt;Node3</title>
<path fill="none" stroke="midnightblue" d="M91.0082,-112.399C99.4618,-103.575 110.375,-92.1827 119.155,-83.0178"/>
<polygon fill="midnightblue" stroke="midnightblue" points="121.816,-85.3002 126.206,-75.6578 116.761,-80.4577 121.816,-85.3002"/>
</g>
<!-- Node4 -->
<g id="node4" class="node"><title>Node4</title>
<polygon fill="white" stroke="#bfbfbf" points="108.5,-0.5 108.5,-19.5 160.5,-19.5 160.5,-0.5 108.5,-0.5"/>
<text text-anchor="middle" x="134.5" y="-7.5" font-family="Helvetica,sans-Serif" font-size="10.00">memory</text>
</g>
<!-- Node3&#45;&gt;Node4 -->
<g id="edge3" class="edge"><title>Node3&#45;&gt;Node4</title>
<path fill="none" stroke="midnightblue" d="M134.5,-56.083C134.5,-49.0059 134.5,-38.8611 134.5,-29.9865"/>
<polygon fill="midnightblue" stroke="midnightblue" points="138,-29.751 134.5,-19.7511 131,-29.7511 138,-29.751"/>
</g>
</g>
</svg>
