<?xml version="1.0" encoding="UTF-8" standalone="no"?>
<!DOCTYPE svg PUBLIC "-//W3C//DTD SVG 1.1//EN"
 "http://www.w3.org/Graphics/SVG/1.1/DTD/svg11.dtd">
<!-- Generated by graphviz version 2.38.0 (20140413.2041)
 -->
<!-- Title: src/gromacs/selection/position.cpp Pages: 1 -->
<svg width="611pt" height="218pt"
 viewBox="0.00 0.00 610.50 218.00" xmlns="http://www.w3.org/2000/svg" xmlns:xlink="http://www.w3.org/1999/xlink">
<g id="graph0" class="graph" transform="scale(1 1) rotate(0) translate(4 214)">
<title>src/gromacs/selection/position.cpp</title>
<polygon fill="white" stroke="none" points="-4,4 -4,-214 606.5,-214 606.5,4 -4,4"/>
<!-- Node1 -->
<g id="node1" class="node"><title>Node1</title>
<polygon fill="#bfbfbf" stroke="black" points="132,-179.5 132,-209.5 245,-209.5 245,-179.5 132,-179.5"/>
<text text-anchor="start" x="140" y="-197.5" font-family="Helvetica,sans-Serif" font-size="10.00">src/gromacs/selection</text>
<text text-anchor="middle" x="188.5" y="-186.5" font-family="Helvetica,sans-Serif" font-size="10.00">/position.cpp</text>
</g>
<!-- Node2 -->
<g id="node2" class="node"><title>Node2</title>
<g id="a_node2"><a xlink:href="gmxpre_8h.xhtml" target="_top" xlink:title="Prerequisite header file for GROMACS build. ">
<polygon fill="white" stroke="black" points="0,-123.5 0,-142.5 57,-142.5 57,-123.5 0,-123.5"/>
<text text-anchor="middle" x="28.5" y="-130.5" font-family="Helvetica,sans-Serif" font-size="10.00">gmxpre.h</text>
</a>
</g>
</g>
<!-- Node1&#45;&gt;Node2 -->
<g id="edge1" class="edge"><title>Node1&#45;&gt;Node2</title>
<path fill="none" stroke="midnightblue" d="M150.582,-179.399C123.377,-169.283 87.0963,-155.791 61.1703,-146.149"/>
<polygon fill="midnightblue" stroke="midnightblue" points="62.3743,-142.863 51.7814,-142.658 59.9343,-149.424 62.3743,-142.863"/>
</g>
<!-- Node3 -->
<g id="node3" class="node"><title>Node3</title>
<g id="a_node3"><a xlink:href="position_8h.xhtml" target="_top" xlink:title="API for handling positions. ">
<polygon fill="white" stroke="black" points="75,-123.5 75,-142.5 134,-142.5 134,-123.5 75,-123.5"/>
<text text-anchor="middle" x="104.5" y="-130.5" font-family="Helvetica,sans-Serif" font-size="10.00">position.h</text>
</a>
</g>
</g>
<!-- Node1&#45;&gt;Node3 -->
<g id="edge2" class="edge"><title>Node1&#45;&gt;Node3</title>
<path fill="none" stroke="midnightblue" d="M168.593,-179.399C155.506,-170.129 138.418,-158.025 125.178,-148.647"/>
<polygon fill="midnightblue" stroke="midnightblue" points="126.906,-145.582 116.723,-142.658 122.86,-151.294 126.906,-145.582"/>
</g>
<!-- Node4 -->
<g id="node4" class="node"><title>Node4</title>
<g id="a_node4"><a xlink:href="indexutil_8h.xhtml" target="_top" xlink:title="API for handling index files and index groups. ">
<polygon fill="white" stroke="black" points="62,-62 62,-81 205,-81 205,-62 62,-62"/>
<text text-anchor="middle" x="133.5" y="-69" font-family="Helvetica,sans-Serif" font-size="10.00">gromacs/selection/indexutil.h</text>
</a>
</g>
</g>
<!-- Node1&#45;&gt;Node4 -->
<g id="edge7" class="edge"><title>Node1&#45;&gt;Node4</title>
<path fill="none" stroke="midnightblue" d="M181.975,-179.145C171.911,-157.005 152.621,-114.567 141.653,-90.4369"/>
<polygon fill="midnightblue" stroke="midnightblue" points="144.712,-88.7075 137.387,-81.0522 138.339,-91.6042 144.712,-88.7075"/>
</g>
<!-- Node7 -->
<g id="node7" class="node"><title>Node7</title>
<polygon fill="white" stroke="#bfbfbf" points="191,-123.5 191,-142.5 240,-142.5 240,-123.5 191,-123.5"/>
<text text-anchor="middle" x="215.5" y="-130.5" font-family="Helvetica,sans-Serif" font-size="10.00">string.h</text>
</g>
<!-- Node1&#45;&gt;Node7 -->
<g id="edge6" class="edge"><title>Node1&#45;&gt;Node7</title>
<path fill="none" stroke="midnightblue" d="M194.899,-179.399C198.62,-171.199 203.347,-160.781 207.335,-151.994"/>
<polygon fill="midnightblue" stroke="midnightblue" points="210.626,-153.21 211.571,-142.658 204.252,-150.318 210.626,-153.21"/>
</g>
<!-- Node8 -->
<g id="node8" class="node"><title>Node8</title>
<g id="a_node8"><a xlink:href="gmxassert_8h.xhtml" target="_top" xlink:title="Defines assert macros customized for Gromacs. ">
<polygon fill="white" stroke="black" points="258,-123.5 258,-142.5 395,-142.5 395,-123.5 258,-123.5"/>
<text text-anchor="middle" x="326.5" y="-130.5" font-family="Helvetica,sans-Serif" font-size="10.00">gromacs/utility/gmxassert.h</text>
</a>
</g>
</g>
<!-- Node1&#45;&gt;Node8 -->
<g id="edge8" class="edge"><title>Node1&#45;&gt;Node8</title>
<path fill="none" stroke="midnightblue" d="M221.204,-179.399C244.255,-169.461 274.86,-156.265 297.132,-146.662"/>
<polygon fill="midnightblue" stroke="midnightblue" points="298.623,-149.831 306.42,-142.658 295.851,-143.403 298.623,-149.831"/>
</g>
<!-- Node13 -->
<g id="node13" class="node"><title>Node13</title>
<g id="a_node13"><a xlink:href="smalloc_8h.xhtml" target="_top" xlink:title="C memory allocation routines for GROMACS. ">
<polygon fill="white" stroke="black" points="413,-123.5 413,-142.5 538,-142.5 538,-123.5 413,-123.5"/>
<text text-anchor="middle" x="475.5" y="-130.5" font-family="Helvetica,sans-Serif" font-size="10.00">gromacs/utility/smalloc.h</text>
</a>
</g>
</g>
<!-- Node1&#45;&gt;Node13 -->
<g id="edge13" class="edge"><title>Node1&#45;&gt;Node13</title>
<path fill="none" stroke="midnightblue" d="M245.202,-181.745C297.317,-170.94 373.899,-155.064 424.224,-144.63"/>
<polygon fill="midnightblue" stroke="midnightblue" points="425.153,-148.012 434.234,-142.555 423.732,-141.158 425.153,-148.012"/>
</g>
<!-- Node3&#45;&gt;Node4 -->
<g id="edge3" class="edge"><title>Node3&#45;&gt;Node4</title>
<path fill="none" stroke="midnightblue" d="M108.655,-123.475C112.876,-114.815 119.537,-101.149 124.9,-90.1453"/>
<polygon fill="midnightblue" stroke="midnightblue" points="128.118,-91.5317 129.353,-81.0091 121.825,-88.4648 128.118,-91.5317"/>
</g>
<!-- Node5 -->
<g id="node5" class="node"><title>Node5</title>
<polygon fill="white" stroke="#bfbfbf" points="82,-0.5 82,-19.5 125,-19.5 125,-0.5 82,-0.5"/>
<text text-anchor="middle" x="103.5" y="-7.5" font-family="Helvetica,sans-Serif" font-size="10.00">cstdio</text>
</g>
<!-- Node4&#45;&gt;Node5 -->
<g id="edge4" class="edge"><title>Node4&#45;&gt;Node5</title>
<path fill="none" stroke="midnightblue" d="M129.202,-61.9751C124.835,-53.3152 117.945,-39.6486 112.397,-28.6453"/>
<polygon fill="midnightblue" stroke="midnightblue" points="115.418,-26.8625 107.79,-19.5091 109.167,-30.0141 115.418,-26.8625"/>
</g>
<!-- Node6 -->
<g id="node6" class="node"><title>Node6</title>
<polygon fill="white" stroke="#bfbfbf" points="143,-0.5 143,-19.5 184,-19.5 184,-0.5 143,-0.5"/>
<text text-anchor="middle" x="163.5" y="-7.5" font-family="Helvetica,sans-Serif" font-size="10.00">string</text>
</g>
<!-- Node4&#45;&gt;Node6 -->
<g id="edge5" class="edge"><title>Node4&#45;&gt;Node6</title>
<path fill="none" stroke="midnightblue" d="M137.798,-61.9751C142.165,-53.3152 149.055,-39.6486 154.603,-28.6453"/>
<polygon fill="midnightblue" stroke="midnightblue" points="157.833,-30.0141 159.21,-19.5091 151.582,-26.8625 157.833,-30.0141"/>
</g>
<!-- Node9 -->
<g id="node9" class="node"><title>Node9</title>
<g id="a_node9"><a xlink:href="basedefinitions_8h.xhtml" target="_top" xlink:title="Basic types and macros used throughout GROMACS. ">
<polygon fill="white" stroke="black" points="375,-62 375,-81 532,-81 532,-62 375,-62"/>
<text text-anchor="middle" x="453.5" y="-69" font-family="Helvetica,sans-Serif" font-size="10.00">gromacs/utility/basedefinitions.h</text>
</a>
</g>
</g>
<!-- Node8&#45;&gt;Node9 -->
<g id="edge9" class="edge"><title>Node8&#45;&gt;Node9</title>
<path fill="none" stroke="midnightblue" d="M344.696,-123.475C366.009,-113.49 401.531,-96.8476 426.163,-85.3075"/>
<polygon fill="midnightblue" stroke="midnightblue" points="427.767,-88.4211 435.338,-81.0091 424.797,-82.0822 427.767,-88.4211"/>
</g>
<!-- Node12 -->
<g id="node12" class="node"><title>Node12</title>
<g id="a_node12"><a xlink:href="current__function_8h.xhtml" target="_top" xlink:title="Declares GMX_CURRENT_FUNCTION for getting the current function name. ">
<polygon fill="white" stroke="black" points="244,-56.5 244,-86.5 357,-86.5 357,-56.5 244,-56.5"/>
<text text-anchor="start" x="252" y="-74.5" font-family="Helvetica,sans-Serif" font-size="10.00">gromacs/utility/current</text>
<text text-anchor="middle" x="300.5" y="-63.5" font-family="Helvetica,sans-Serif" font-size="10.00">_function.h</text>
</a>
</g>
</g>
<!-- Node8&#45;&gt;Node12 -->
<g id="edge12" class="edge"><title>Node8&#45;&gt;Node12</title>
<path fill="none" stroke="midnightblue" d="M322.775,-123.475C319.616,-116.245 314.931,-105.525 310.672,-95.7792"/>
<polygon fill="midnightblue" stroke="midnightblue" points="313.839,-94.2848 306.628,-86.523 307.425,-97.0878 313.839,-94.2848"/>
</g>
<!-- Node10 -->
<g id="node10" class="node"><title>Node10</title>
<polygon fill="white" stroke="#bfbfbf" points="393,-0.5 393,-19.5 442,-19.5 442,-0.5 393,-0.5"/>
<text text-anchor="middle" x="417.5" y="-7.5" font-family="Helvetica,sans-Serif" font-size="10.00">stdint.h</text>
</g>
<!-- Node9&#45;&gt;Node10 -->
<g id="edge10" class="edge"><title>Node9&#45;&gt;Node10</title>
<path fill="none" stroke="midnightblue" d="M448.342,-61.9751C443.049,-53.2268 434.665,-39.3691 427.973,-28.3093"/>
<polygon fill="midnightblue" stroke="midnightblue" points="430.82,-26.2531 422.648,-19.5091 424.83,-29.8768 430.82,-26.2531"/>
</g>
<!-- Node11 -->
<g id="node11" class="node"><title>Node11</title>
<polygon fill="white" stroke="#bfbfbf" points="460,-0.5 460,-19.5 519,-19.5 519,-0.5 460,-0.5"/>
<text text-anchor="middle" x="489.5" y="-7.5" font-family="Helvetica,sans-Serif" font-size="10.00">inttypes.h</text>
</g>
<!-- Node9&#45;&gt;Node11 -->
<g id="edge11" class="edge"><title>Node9&#45;&gt;Node11</title>
<path fill="none" stroke="midnightblue" d="M458.658,-61.9751C463.951,-53.2268 472.335,-39.3691 479.027,-28.3093"/>
<polygon fill="midnightblue" stroke="midnightblue" points="482.17,-29.8768 484.352,-19.5091 476.18,-26.2531 482.17,-29.8768"/>
</g>
<!-- Node13&#45;&gt;Node9 -->
<g id="edge15" class="edge"><title>Node13&#45;&gt;Node9</title>
<path fill="none" stroke="midnightblue" d="M472.348,-123.475C469.179,-114.904 464.196,-101.427 460.149,-90.483"/>
<polygon fill="midnightblue" stroke="midnightblue" points="463.397,-89.1747 456.646,-81.0091 456.832,-91.6023 463.397,-89.1747"/>
</g>
<!-- Node14 -->
<g id="node14" class="node"><title>Node14</title>
<polygon fill="white" stroke="#bfbfbf" points="550.5,-62 550.5,-81 602.5,-81 602.5,-62 550.5,-62"/>
<text text-anchor="middle" x="576.5" y="-69" font-family="Helvetica,sans-Serif" font-size="10.00">stddef.h</text>
</g>
<!-- Node13&#45;&gt;Node14 -->
<g id="edge14" class="edge"><title>Node13&#45;&gt;Node14</title>
<path fill="none" stroke="midnightblue" d="M489.971,-123.475C506.471,-113.755 533.678,-97.7266 553.181,-86.2372"/>
<polygon fill="midnightblue" stroke="midnightblue" points="555.216,-89.1005 562.056,-81.0091 551.663,-83.0693 555.216,-89.1005"/>
</g>
</g>
</svg>
