<?xml version="1.0" encoding="UTF-8" standalone="no"?>
<!DOCTYPE svg PUBLIC "-//W3C//DTD SVG 1.1//EN"
 "http://www.w3.org/Graphics/SVG/1.1/DTD/svg11.dtd">
<!-- Generated by graphviz version 2.38.0 (20140413.2041)
 -->
<!-- Title: src/gromacs/listed&#45;forces/position&#45;restraints.h Pages: 1 -->
<svg width="180pt" height="95pt"
 viewBox="0.00 0.00 179.50 95.00" xmlns="http://www.w3.org/2000/svg" xmlns:xlink="http://www.w3.org/1999/xlink">
<g id="graph0" class="graph" transform="scale(1 1) rotate(0) translate(4 91)">
<title>src/gromacs/listed&#45;forces/position&#45;restraints.h</title>
<polygon fill="white" stroke="none" points="-4,4 -4,-91 175.5,-91 175.5,4 -4,4"/>
<!-- Node1 -->
<g id="node1" class="node"><title>Node1</title>
<polygon fill="#bfbfbf" stroke="black" points="2.5,-56.5 2.5,-86.5 137.5,-86.5 137.5,-56.5 2.5,-56.5"/>
<text text-anchor="start" x="10.5" y="-74.5" font-family="Helvetica,sans-Serif" font-size="10.00">src/gromacs/listed</text>
<text text-anchor="middle" x="70" y="-63.5" font-family="Helvetica,sans-Serif" font-size="10.00">&#45;forces/position&#45;restraints.h</text>
</g>
<!-- Node2 -->
<g id="node2" class="node"><title>Node2</title>
<polygon fill="white" stroke="#bfbfbf" points="0,-0.5 0,-19.5 46,-19.5 46,-0.5 0,-0.5"/>
<text text-anchor="middle" x="23" y="-7.5" font-family="Helvetica,sans-Serif" font-size="10.00">stdio.h</text>
</g>
<!-- Node1&#45;&gt;Node2 -->
<g id="edge1" class="edge"><title>Node1&#45;&gt;Node2</title>
<path fill="none" stroke="midnightblue" d="M58.8617,-56.3993C52.032,-47.7533 43.255,-36.642 36.0936,-27.576"/>
<polygon fill="midnightblue" stroke="midnightblue" points="38.784,-25.3354 29.8389,-19.6578 33.291,-29.6745 38.784,-25.3354"/>
</g>
<!-- Node3 -->
<g id="node3" class="node"><title>Node3</title>
<g id="a_node3"><a xlink:href="real_8h.xhtml" target="_top" xlink:title="Declares real and related constants. ">
<polygon fill="white" stroke="black" points="64.5,-0.5 64.5,-19.5 171.5,-19.5 171.5,-0.5 64.5,-0.5"/>
<text text-anchor="middle" x="118" y="-7.5" font-family="Helvetica,sans-Serif" font-size="10.00">gromacs/utility/real.h</text>
</a>
</g>
</g>
<!-- Node1&#45;&gt;Node3 -->
<g id="edge2" class="edge"><title>Node1&#45;&gt;Node3</title>
<path fill="none" stroke="midnightblue" d="M81.3753,-56.3993C88.3503,-47.7533 97.314,-36.642 104.628,-27.576"/>
<polygon fill="midnightblue" stroke="midnightblue" points="107.461,-29.6385 111.016,-19.6578 102.013,-25.2433 107.461,-29.6385"/>
</g>
</g>
</svg>
