<?xml version="1.0" encoding="UTF-8" standalone="no"?>
<!DOCTYPE svg PUBLIC "-//W3C//DTD SVG 1.1//EN"
 "http://www.w3.org/Graphics/SVG/1.1/DTD/svg11.dtd">
<!-- Generated by graphviz version 2.38.0 (20140413.2041)
 -->
<!-- Title: src/testutils/refdata&#45;xml.cpp Pages: 1 -->
<svg width="992pt" height="330pt"
 viewBox="0.00 0.00 991.50 330.00" xmlns="http://www.w3.org/2000/svg" xmlns:xlink="http://www.w3.org/1999/xlink">
<g id="graph0" class="graph" transform="scale(1 1) rotate(0) translate(4 326)">
<title>src/testutils/refdata&#45;xml.cpp</title>
<polygon fill="white" stroke="none" points="-4,4 -4,-326 987.5,-326 987.5,4 -4,4"/>
<!-- Node1 -->
<g id="node1" class="node"><title>Node1</title>
<polygon fill="#bfbfbf" stroke="black" points="191,-291.5 191,-321.5 292,-321.5 292,-291.5 191,-291.5"/>
<text text-anchor="start" x="199" y="-309.5" font-family="Helvetica,sans-Serif" font-size="10.00">src/testutils/refdata</text>
<text text-anchor="middle" x="241.5" y="-298.5" font-family="Helvetica,sans-Serif" font-size="10.00">&#45;xml.cpp</text>
</g>
<!-- Node2 -->
<g id="node2" class="node"><title>Node2</title>
<g id="a_node2"><a xlink:href="gmxpre_8h.xhtml" target="_top" xlink:title="Prerequisite header file for GROMACS build. ">
<polygon fill="white" stroke="black" points="19,-235.5 19,-254.5 76,-254.5 76,-235.5 19,-235.5"/>
<text text-anchor="middle" x="47.5" y="-242.5" font-family="Helvetica,sans-Serif" font-size="10.00">gmxpre.h</text>
</a>
</g>
</g>
<!-- Node1&#45;&gt;Node2 -->
<g id="edge1" class="edge"><title>Node1&#45;&gt;Node2</title>
<path fill="none" stroke="midnightblue" d="M195.525,-291.399C161.857,-281.073 116.723,-267.231 85.1782,-257.556"/>
<polygon fill="midnightblue" stroke="midnightblue" points="86.0323,-254.157 75.4455,-254.571 83.9797,-260.849 86.0323,-254.157"/>
</g>
<!-- Node3 -->
<g id="node3" class="node"><title>Node3</title>
<g id="a_node3"><a xlink:href="refdata-xml_8h.xhtml" target="_top" xlink:title="Declares functions for reference data XML persistence. ">
<polygon fill="white" stroke="black" points="94.5,-235.5 94.5,-254.5 168.5,-254.5 168.5,-235.5 94.5,-235.5"/>
<text text-anchor="middle" x="131.5" y="-242.5" font-family="Helvetica,sans-Serif" font-size="10.00">refdata&#45;xml.h</text>
</a>
</g>
</g>
<!-- Node1&#45;&gt;Node3 -->
<g id="edge2" class="edge"><title>Node1&#45;&gt;Node3</title>
<path fill="none" stroke="midnightblue" d="M215.432,-291.399C197.635,-281.773 174.188,-269.09 156.601,-259.577"/>
<polygon fill="midnightblue" stroke="midnightblue" points="157.967,-256.337 147.506,-254.658 154.636,-262.494 157.967,-256.337"/>
</g>
<!-- Node5 -->
<g id="node5" class="node"><title>Node5</title>
<g id="a_node5"><a xlink:href="refdata-impl_8h.xhtml" target="_top" xlink:title="Declares internal data structures for the reference data framework. ">
<polygon fill="white" stroke="black" points="93,-179.5 93,-198.5 206,-198.5 206,-179.5 93,-179.5"/>
<text text-anchor="middle" x="149.5" y="-186.5" font-family="Helvetica,sans-Serif" font-size="10.00">testutils/refdata&#45;impl.h</text>
</a>
</g>
</g>
<!-- Node1&#45;&gt;Node5 -->
<g id="edge28" class="edge"><title>Node1&#45;&gt;Node5</title>
<path fill="none" stroke="midnightblue" d="M230.219,-291.337C213.191,-269.96 180.987,-229.53 162.827,-206.731"/>
<polygon fill="midnightblue" stroke="midnightblue" points="165.374,-204.311 156.406,-198.669 159.898,-208.672 165.374,-204.311"/>
</g>
<!-- Node13 -->
<g id="node13" class="node"><title>Node13</title>
<polygon fill="white" stroke="#bfbfbf" points="406.5,-235.5 406.5,-254.5 468.5,-254.5 468.5,-235.5 406.5,-235.5"/>
<text text-anchor="middle" x="437.5" y="-242.5" font-family="Helvetica,sans-Serif" font-size="10.00">tinyxml2.h</text>
</g>
<!-- Node1&#45;&gt;Node13 -->
<g id="edge13" class="edge"><title>Node1&#45;&gt;Node13</title>
<path fill="none" stroke="midnightblue" d="M287.949,-291.399C321.965,-281.073 367.563,-267.231 399.433,-257.556"/>
<polygon fill="midnightblue" stroke="midnightblue" points="400.714,-260.825 409.266,-254.571 398.681,-254.127 400.714,-260.825"/>
</g>
<!-- Node14 -->
<g id="node14" class="node"><title>Node14</title>
<g id="a_node14"><a xlink:href="exceptions_8h.xhtml" target="_top" xlink:title="Declares common exception classes and macros for fatal error handling. ">
<polygon fill="white" stroke="black" points="463,-179.5 463,-198.5 602,-198.5 602,-179.5 463,-179.5"/>
<text text-anchor="middle" x="532.5" y="-186.5" font-family="Helvetica,sans-Serif" font-size="10.00">gromacs/utility/exceptions.h</text>
</a>
</g>
</g>
<!-- Node1&#45;&gt;Node14 -->
<g id="edge14" class="edge"><title>Node1&#45;&gt;Node14</title>
<path fill="none" stroke="midnightblue" d="M276.42,-291.417C300.081,-281.665 331.937,-268.125 359.5,-255 376.731,-246.794 379.945,-242.487 397.5,-235 428.633,-221.723 465.106,-209.769 492.288,-201.524"/>
<polygon fill="midnightblue" stroke="midnightblue" points="493.644,-204.772 502.22,-198.551 491.637,-198.066 493.644,-204.772"/>
</g>
<!-- Node22 -->
<g id="node22" class="node"><title>Node22</title>
<g id="a_node22"><a xlink:href="testexceptions_8h.xhtml" target="_top" xlink:title="Exception classes for errors in tests. ">
<polygon fill="white" stroke="black" points="224.5,-235.5 224.5,-254.5 350.5,-254.5 350.5,-235.5 224.5,-235.5"/>
<text text-anchor="middle" x="287.5" y="-242.5" font-family="Helvetica,sans-Serif" font-size="10.00">testutils/testexceptions.h</text>
</a>
</g>
</g>
<!-- Node1&#45;&gt;Node22 -->
<g id="edge29" class="edge"><title>Node1&#45;&gt;Node22</title>
<path fill="none" stroke="midnightblue" d="M252.401,-291.399C259.086,-282.753 267.676,-271.642 274.685,-262.576"/>
<polygon fill="midnightblue" stroke="midnightblue" points="277.459,-264.71 280.807,-254.658 271.921,-260.428 277.459,-264.71"/>
</g>
<!-- Node4 -->
<g id="node4" class="node"><title>Node4</title>
<polygon fill="white" stroke="#bfbfbf" points="86,-123.5 86,-142.5 127,-142.5 127,-123.5 86,-123.5"/>
<text text-anchor="middle" x="106.5" y="-130.5" font-family="Helvetica,sans-Serif" font-size="10.00">string</text>
</g>
<!-- Node3&#45;&gt;Node4 -->
<g id="edge3" class="edge"><title>Node3&#45;&gt;Node4</title>
<path fill="none" stroke="midnightblue" d="M117.13,-235.33C105.62,-227.469 90.3113,-214.722 83.5,-199 76.5406,-182.936 85.0394,-164.012 93.6055,-150.739"/>
<polygon fill="midnightblue" stroke="midnightblue" points="96.4695,-152.751 99.3576,-142.557 90.743,-148.725 96.4695,-152.751"/>
</g>
<!-- Node3&#45;&gt;Node5 -->
<g id="edge4" class="edge"><title>Node3&#45;&gt;Node5</title>
<path fill="none" stroke="midnightblue" d="M134.472,-235.083C136.884,-227.849 140.364,-217.409 143.368,-208.397"/>
<polygon fill="midnightblue" stroke="midnightblue" points="146.741,-209.345 146.583,-198.751 140.1,-207.131 146.741,-209.345"/>
</g>
<!-- Node5&#45;&gt;Node4 -->
<g id="edge7" class="edge"><title>Node5&#45;&gt;Node4</title>
<path fill="none" stroke="midnightblue" d="M142.399,-179.083C136.263,-171.377 127.23,-160.033 119.761,-150.653"/>
<polygon fill="midnightblue" stroke="midnightblue" points="122.436,-148.394 113.468,-142.751 116.96,-152.754 122.436,-148.394"/>
</g>
<!-- Node6 -->
<g id="node6" class="node"><title>Node6</title>
<polygon fill="white" stroke="#bfbfbf" points="0,-123.5 0,-142.5 29,-142.5 29,-123.5 0,-123.5"/>
<text text-anchor="middle" x="14.5" y="-130.5" font-family="Helvetica,sans-Serif" font-size="10.00">list</text>
</g>
<!-- Node5&#45;&gt;Node6 -->
<g id="edge5" class="edge"><title>Node5&#45;&gt;Node6</title>
<path fill="none" stroke="midnightblue" d="M128.109,-179.444C103.692,-169.677 63.8576,-153.743 38.429,-143.572"/>
<polygon fill="midnightblue" stroke="midnightblue" points="39.7186,-140.318 29.1339,-139.854 37.1188,-146.817 39.7186,-140.318"/>
</g>
<!-- Node7 -->
<g id="node7" class="node"><title>Node7</title>
<polygon fill="white" stroke="#bfbfbf" points="129.5,-62 129.5,-81 181.5,-81 181.5,-62 129.5,-62"/>
<text text-anchor="middle" x="155.5" y="-69" font-family="Helvetica,sans-Serif" font-size="10.00">memory</text>
</g>
<!-- Node5&#45;&gt;Node7 -->
<g id="edge6" class="edge"><title>Node5&#45;&gt;Node7</title>
<path fill="none" stroke="midnightblue" d="M125.629,-179.489C99.3819,-168.664 62.6438,-148.303 76.5,-123 85.977,-105.694 104.19,-93.455 120.742,-85.3643"/>
<polygon fill="midnightblue" stroke="midnightblue" points="122.552,-88.3869 130.217,-81.073 119.664,-82.0104 122.552,-88.3869"/>
</g>
<!-- Node8 -->
<g id="node8" class="node"><title>Node8</title>
<g id="a_node8"><a xlink:href="gmxassert_8h.xhtml" target="_top" xlink:title="Defines assert macros customized for Gromacs. ">
<polygon fill="white" stroke="black" points="348,-123.5 348,-142.5 485,-142.5 485,-123.5 348,-123.5"/>
<text text-anchor="middle" x="416.5" y="-130.5" font-family="Helvetica,sans-Serif" font-size="10.00">gromacs/utility/gmxassert.h</text>
</a>
</g>
</g>
<!-- Node5&#45;&gt;Node8 -->
<g id="edge8" class="edge"><title>Node5&#45;&gt;Node8</title>
<path fill="none" stroke="midnightblue" d="M191.807,-179.444C238.58,-169.984 313.96,-154.738 364.35,-144.547"/>
<polygon fill="midnightblue" stroke="midnightblue" points="365.283,-147.929 374.391,-142.516 363.896,-141.068 365.283,-147.929"/>
</g>
<!-- Node9 -->
<g id="node9" class="node"><title>Node9</title>
<g id="a_node9"><a xlink:href="basedefinitions_8h.xhtml" target="_top" xlink:title="Basic types and macros used throughout GROMACS. ">
<polygon fill="white" stroke="black" points="329,-62 329,-81 486,-81 486,-62 329,-62"/>
<text text-anchor="middle" x="407.5" y="-69" font-family="Helvetica,sans-Serif" font-size="10.00">gromacs/utility/basedefinitions.h</text>
</a>
</g>
</g>
<!-- Node8&#45;&gt;Node9 -->
<g id="edge9" class="edge"><title>Node8&#45;&gt;Node9</title>
<path fill="none" stroke="midnightblue" d="M415.211,-123.475C413.941,-115.08 411.959,-101.981 410.323,-91.1631"/>
<polygon fill="midnightblue" stroke="midnightblue" points="413.743,-90.3731 408.787,-81.0091 406.822,-91.4201 413.743,-90.3731"/>
</g>
<!-- Node12 -->
<g id="node12" class="node"><title>Node12</title>
<g id="a_node12"><a xlink:href="current__function_8h.xhtml" target="_top" xlink:title="Declares GMX_CURRENT_FUNCTION for getting the current function name. ">
<polygon fill="white" stroke="black" points="504,-56.5 504,-86.5 617,-86.5 617,-56.5 504,-56.5"/>
<text text-anchor="start" x="512" y="-74.5" font-family="Helvetica,sans-Serif" font-size="10.00">gromacs/utility/current</text>
<text text-anchor="middle" x="560.5" y="-63.5" font-family="Helvetica,sans-Serif" font-size="10.00">_function.h</text>
</a>
</g>
</g>
<!-- Node8&#45;&gt;Node12 -->
<g id="edge12" class="edge"><title>Node8&#45;&gt;Node12</title>
<path fill="none" stroke="midnightblue" d="M437.132,-123.475C457.91,-114.889 490.599,-101.383 517.108,-90.4291"/>
<polygon fill="midnightblue" stroke="midnightblue" points="518.657,-93.5766 526.562,-86.523 515.983,-87.1071 518.657,-93.5766"/>
</g>
<!-- Node10 -->
<g id="node10" class="node"><title>Node10</title>
<polygon fill="white" stroke="#bfbfbf" points="347,-0.5 347,-19.5 396,-19.5 396,-0.5 347,-0.5"/>
<text text-anchor="middle" x="371.5" y="-7.5" font-family="Helvetica,sans-Serif" font-size="10.00">stdint.h</text>
</g>
<!-- Node9&#45;&gt;Node10 -->
<g id="edge10" class="edge"><title>Node9&#45;&gt;Node10</title>
<path fill="none" stroke="midnightblue" d="M402.342,-61.9751C397.049,-53.2268 388.665,-39.3691 381.973,-28.3093"/>
<polygon fill="midnightblue" stroke="midnightblue" points="384.82,-26.2531 376.648,-19.5091 378.83,-29.8768 384.82,-26.2531"/>
</g>
<!-- Node11 -->
<g id="node11" class="node"><title>Node11</title>
<polygon fill="white" stroke="#bfbfbf" points="414,-0.5 414,-19.5 473,-19.5 473,-0.5 414,-0.5"/>
<text text-anchor="middle" x="443.5" y="-7.5" font-family="Helvetica,sans-Serif" font-size="10.00">inttypes.h</text>
</g>
<!-- Node9&#45;&gt;Node11 -->
<g id="edge11" class="edge"><title>Node9&#45;&gt;Node11</title>
<path fill="none" stroke="midnightblue" d="M412.658,-61.9751C417.951,-53.2268 426.335,-39.3691 433.027,-28.3093"/>
<polygon fill="midnightblue" stroke="midnightblue" points="436.17,-29.8768 438.352,-19.5091 430.18,-26.2531 436.17,-29.8768"/>
</g>
<!-- Node14&#45;&gt;Node4 -->
<g id="edge19" class="edge"><title>Node14&#45;&gt;Node4</title>
<path fill="none" stroke="midnightblue" d="M462.855,-182.885C384.324,-176.446 253.031,-163.657 141.5,-143 140.035,-142.729 138.54,-142.43 137.034,-142.112"/>
<polygon fill="midnightblue" stroke="midnightblue" points="137.657,-138.663 127.124,-139.803 136.069,-145.481 137.657,-138.663"/>
</g>
<!-- Node14&#45;&gt;Node7 -->
<g id="edge18" class="edge"><title>Node14&#45;&gt;Node7</title>
<path fill="none" stroke="midnightblue" d="M462.821,-188.183C371.008,-186.956 216.255,-179.349 174.5,-143 160.036,-130.409 156.032,-108.079 155.176,-91.9182"/>
<polygon fill="midnightblue" stroke="midnightblue" points="158.668,-91.4093 155.005,-81.468 151.669,-91.5241 158.668,-91.4093"/>
</g>
<!-- Node14&#45;&gt;Node8 -->
<g id="edge27" class="edge"><title>Node14&#45;&gt;Node8</title>
<path fill="none" stroke="midnightblue" d="M514.119,-179.444C495.284,-170.675 465.769,-156.935 444.121,-146.858"/>
<polygon fill="midnightblue" stroke="midnightblue" points="445.338,-143.564 434.795,-142.516 442.383,-149.91 445.338,-143.564"/>
</g>
<!-- Node14&#45;&gt;Node9 -->
<g id="edge23" class="edge"><title>Node14&#45;&gt;Node9</title>
<path fill="none" stroke="midnightblue" d="M529.215,-179.497C523.712,-166.131 511.534,-139.981 494.5,-123 478.429,-106.979 456.259,-94.2112 438.321,-85.5218"/>
<polygon fill="midnightblue" stroke="midnightblue" points="439.4,-82.1636 428.857,-81.1192 436.448,-88.5105 439.4,-82.1636"/>
</g>
<!-- Node14&#45;&gt;Node12 -->
<g id="edge26" class="edge"><title>Node14&#45;&gt;Node12</title>
<path fill="none" stroke="midnightblue" d="M534.605,-179.319C538.83,-161.889 548.475,-122.104 554.727,-96.3132"/>
<polygon fill="midnightblue" stroke="midnightblue" points="558.14,-97.0884 557.095,-86.5453 551.338,-95.4392 558.14,-97.0884"/>
</g>
<!-- Node15 -->
<g id="node15" class="node"><title>Node15</title>
<polygon fill="white" stroke="#bfbfbf" points="580,-123.5 580,-142.5 623,-142.5 623,-123.5 580,-123.5"/>
<text text-anchor="middle" x="601.5" y="-130.5" font-family="Helvetica,sans-Serif" font-size="10.00">cstdio</text>
</g>
<!-- Node14&#45;&gt;Node15 -->
<g id="edge15" class="edge"><title>Node14&#45;&gt;Node15</title>
<path fill="none" stroke="midnightblue" d="M543.586,-179.324C553.986,-171.185 569.761,-158.839 582.222,-149.087"/>
<polygon fill="midnightblue" stroke="midnightblue" points="584.494,-151.753 590.212,-142.834 580.18,-146.241 584.494,-151.753"/>
</g>
<!-- Node16 -->
<g id="node16" class="node"><title>Node16</title>
<polygon fill="white" stroke="#bfbfbf" points="641,-123.5 641,-142.5 686,-142.5 686,-123.5 641,-123.5"/>
<text text-anchor="middle" x="663.5" y="-130.5" font-family="Helvetica,sans-Serif" font-size="10.00">cstdlib</text>
</g>
<!-- Node14&#45;&gt;Node16 -->
<g id="edge16" class="edge"><title>Node14&#45;&gt;Node16</title>
<path fill="none" stroke="midnightblue" d="M553.257,-179.444C574.816,-170.557 608.763,-156.563 633.294,-146.451"/>
<polygon fill="midnightblue" stroke="midnightblue" points="634.928,-149.563 642.84,-142.516 632.261,-143.092 634.928,-149.563"/>
</g>
<!-- Node17 -->
<g id="node17" class="node"><title>Node17</title>
<polygon fill="white" stroke="#bfbfbf" points="704,-123.5 704,-142.5 763,-142.5 763,-123.5 704,-123.5"/>
<text text-anchor="middle" x="733.5" y="-130.5" font-family="Helvetica,sans-Serif" font-size="10.00">exception</text>
</g>
<!-- Node14&#45;&gt;Node17 -->
<g id="edge17" class="edge"><title>Node14&#45;&gt;Node17</title>
<path fill="none" stroke="midnightblue" d="M564.349,-179.444C599.508,-169.998 656.14,-154.783 694.073,-144.592"/>
<polygon fill="midnightblue" stroke="midnightblue" points="695.016,-147.963 703.766,-141.988 693.2,-141.203 695.016,-147.963"/>
</g>
<!-- Node18 -->
<g id="node18" class="node"><title>Node18</title>
<polygon fill="white" stroke="#bfbfbf" points="781.5,-123.5 781.5,-142.5 843.5,-142.5 843.5,-123.5 781.5,-123.5"/>
<text text-anchor="middle" x="812.5" y="-130.5" font-family="Helvetica,sans-Serif" font-size="10.00">type_traits</text>
</g>
<!-- Node14&#45;&gt;Node18 -->
<g id="edge20" class="edge"><title>Node14&#45;&gt;Node18</title>
<path fill="none" stroke="midnightblue" d="M580.868,-179.458C627.228,-171.153 699.428,-157.911 770.989,-143.258"/>
<polygon fill="midnightblue" stroke="midnightblue" points="771.991,-146.625 781.08,-141.182 770.58,-139.769 771.991,-146.625"/>
</g>
<!-- Node19 -->
<g id="node19" class="node"><title>Node19</title>
<polygon fill="white" stroke="#bfbfbf" points="862,-123.5 862,-142.5 921,-142.5 921,-123.5 862,-123.5"/>
<text text-anchor="middle" x="891.5" y="-130.5" font-family="Helvetica,sans-Serif" font-size="10.00">typeindex</text>
</g>
<!-- Node14&#45;&gt;Node19 -->
<g id="edge21" class="edge"><title>Node14&#45;&gt;Node19</title>
<path fill="none" stroke="midnightblue" d="M602.071,-179.99C664.798,-172.363 759.759,-159.818 851.708,-143.003"/>
<polygon fill="midnightblue" stroke="midnightblue" points="852.548,-146.407 861.745,-141.147 851.276,-139.523 852.548,-146.407"/>
</g>
<!-- Node20 -->
<g id="node20" class="node"><title>Node20</title>
<polygon fill="white" stroke="#bfbfbf" points="939.5,-123.5 939.5,-142.5 983.5,-142.5 983.5,-123.5 939.5,-123.5"/>
<text text-anchor="middle" x="961.5" y="-130.5" font-family="Helvetica,sans-Serif" font-size="10.00">vector</text>
</g>
<!-- Node14&#45;&gt;Node20 -->
<g id="edge22" class="edge"><title>Node14&#45;&gt;Node20</title>
<path fill="none" stroke="midnightblue" d="M602.077,-183.73C679.772,-178.156 809.307,-166.457 929.176,-142.957"/>
<polygon fill="midnightblue" stroke="midnightblue" points="930.138,-146.334 939.261,-140.947 928.77,-139.469 930.138,-146.334"/>
</g>
<!-- Node21 -->
<g id="node21" class="node"><title>Node21</title>
<g id="a_node21"><a xlink:href="classhelpers_8h.xhtml" target="_top" xlink:title="Declares common utility classes and macros. ">
<polygon fill="white" stroke="black" points="183.5,-123.5 183.5,-142.5 329.5,-142.5 329.5,-123.5 183.5,-123.5"/>
<text text-anchor="middle" x="256.5" y="-130.5" font-family="Helvetica,sans-Serif" font-size="10.00">gromacs/utility/classhelpers.h</text>
</a>
</g>
</g>
<!-- Node14&#45;&gt;Node21 -->
<g id="edge24" class="edge"><title>Node14&#45;&gt;Node21</title>
<path fill="none" stroke="midnightblue" d="M488.767,-179.444C440.317,-169.964 362.171,-154.675 310.082,-144.483"/>
<polygon fill="midnightblue" stroke="midnightblue" points="310.514,-141.002 300.028,-142.516 309.17,-147.871 310.514,-141.002"/>
</g>
<!-- Node21&#45;&gt;Node7 -->
<g id="edge25" class="edge"><title>Node21&#45;&gt;Node7</title>
<path fill="none" stroke="midnightblue" d="M242.029,-123.475C225.529,-113.755 198.322,-97.7266 178.819,-86.2372"/>
<polygon fill="midnightblue" stroke="midnightblue" points="180.337,-83.0693 169.944,-81.0091 176.784,-89.1005 180.337,-83.0693"/>
</g>
<!-- Node22&#45;&gt;Node4 -->
<g id="edge30" class="edge"><title>Node22&#45;&gt;Node4</title>
<path fill="none" stroke="midnightblue" d="M279.836,-235.392C267.435,-221.881 241.705,-195.536 215.5,-179 190.727,-163.367 159.594,-151.151 136.951,-143.417"/>
<polygon fill="midnightblue" stroke="midnightblue" points="137.791,-140.008 127.198,-140.182 135.588,-146.652 137.791,-140.008"/>
</g>
<!-- Node22&#45;&gt;Node14 -->
<g id="edge31" class="edge"><title>Node22&#45;&gt;Node14</title>
<path fill="none" stroke="midnightblue" d="M326.321,-235.444C369.061,-226.023 437.832,-210.866 484.066,-200.675"/>
<polygon fill="midnightblue" stroke="midnightblue" points="484.848,-204.087 493.861,-198.516 483.342,-197.251 484.848,-204.087"/>
</g>
</g>
</svg>
