<?xml version="1.0" encoding="UTF-8" standalone="no"?>
<!DOCTYPE svg PUBLIC "-//W3C//DTD SVG 1.1//EN"
 "http://www.w3.org/Graphics/SVG/1.1/DTD/svg11.dtd">
<!-- Generated by graphviz version 2.38.0 (20140413.2041)
 -->
<!-- Title: src/programs/mdrun/tests/replicaexchange.cpp Pages: 1 -->
<svg width="818pt" height="442pt"
 viewBox="0.00 0.00 818.15 442.00" xmlns="http://www.w3.org/2000/svg" xmlns:xlink="http://www.w3.org/1999/xlink">
<g id="graph0" class="graph" transform="scale(1 1) rotate(0) translate(4 438)">
<title>src/programs/mdrun/tests/replicaexchange.cpp</title>
<polygon fill="white" stroke="none" points="-4,4 -4,-438 814.152,-438 814.152,4 -4,4"/>
<!-- Node1 -->
<g id="node1" class="node"><title>Node1</title>
<polygon fill="#bfbfbf" stroke="black" points="194,-403.5 194,-433.5 328,-433.5 328,-403.5 194,-403.5"/>
<text text-anchor="start" x="202" y="-421.5" font-family="Helvetica,sans-Serif" font-size="10.00">src/programs/mdrun</text>
<text text-anchor="middle" x="261" y="-410.5" font-family="Helvetica,sans-Serif" font-size="10.00">/tests/replicaexchange.cpp</text>
</g>
<!-- Node2 -->
<g id="node2" class="node"><title>Node2</title>
<g id="a_node2"><a xlink:href="gmxpre_8h.xhtml" target="_top" xlink:title="Prerequisite header file for GROMACS build. ">
<polygon fill="white" stroke="black" points="68.5,-347.5 68.5,-366.5 125.5,-366.5 125.5,-347.5 68.5,-347.5"/>
<text text-anchor="middle" x="97" y="-354.5" font-family="Helvetica,sans-Serif" font-size="10.00">gmxpre.h</text>
</a>
</g>
</g>
<!-- Node1&#45;&gt;Node2 -->
<g id="edge1" class="edge"><title>Node1&#45;&gt;Node2</title>
<path fill="none" stroke="midnightblue" d="M222.134,-403.399C194.249,-393.283 157.061,-379.791 130.487,-370.149"/>
<polygon fill="midnightblue" stroke="midnightblue" points="131.458,-366.778 120.863,-366.658 129.07,-373.359 131.458,-366.778"/>
</g>
<!-- Node3 -->
<g id="node3" class="node"><title>Node3</title>
<polygon fill="white" stroke="#bfbfbf" points="143.5,-347.5 143.5,-366.5 194.5,-366.5 194.5,-347.5 143.5,-347.5"/>
<text text-anchor="middle" x="169" y="-354.5" font-family="Helvetica,sans-Serif" font-size="10.00">config.h</text>
</g>
<!-- Node1&#45;&gt;Node3 -->
<g id="edge2" class="edge"><title>Node1&#45;&gt;Node3</title>
<path fill="none" stroke="midnightblue" d="M239.197,-403.399C224.588,-393.951 205.427,-381.559 190.815,-372.109"/>
<polygon fill="midnightblue" stroke="midnightblue" points="192.684,-369.15 182.387,-366.658 188.883,-375.027 192.684,-369.15"/>
</g>
<!-- Node4 -->
<g id="node4" class="node"><title>Node4</title>
<polygon fill="white" stroke="#bfbfbf" points="726.5,-179.5 726.5,-198.5 797.5,-198.5 797.5,-179.5 726.5,-179.5"/>
<text text-anchor="middle" x="762" y="-186.5" font-family="Helvetica,sans-Serif" font-size="10.00">gtest/gtest.h</text>
</g>
<!-- Node1&#45;&gt;Node4 -->
<g id="edge3" class="edge"><title>Node1&#45;&gt;Node4</title>
<path fill="none" stroke="midnightblue" d="M328.373,-413.595C418.854,-407.428 574.047,-393.335 624,-367 692.054,-331.123 737.22,-245.304 754.323,-207.917"/>
<polygon fill="midnightblue" stroke="midnightblue" points="757.539,-209.299 758.398,-198.739 751.141,-206.458 757.539,-209.299"/>
</g>
<!-- Node5 -->
<g id="node5" class="node"><title>Node5</title>
<g id="a_node5"><a xlink:href="path_8h.xhtml" target="_top" xlink:title="Declares functions for OS&#45;independent path handling. ">
<polygon fill="white" stroke="black" points="0,-235.5 0,-254.5 110,-254.5 110,-235.5 0,-235.5"/>
<text text-anchor="middle" x="55" y="-242.5" font-family="Helvetica,sans-Serif" font-size="10.00">gromacs/utility/path.h</text>
</a>
</g>
</g>
<!-- Node1&#45;&gt;Node5 -->
<g id="edge4" class="edge"><title>Node1&#45;&gt;Node5</title>
<path fill="none" stroke="midnightblue" d="M251.147,-403.249C240.367,-388.246 222.067,-364.431 203,-347 163.467,-310.859 110.159,-277.643 79.4913,-259.767"/>
<polygon fill="midnightblue" stroke="midnightblue" points="81.1529,-256.685 70.7408,-254.726 77.6584,-262.751 81.1529,-256.685"/>
</g>
<!-- Node9 -->
<g id="node9" class="node"><title>Node9</title>
<g id="a_node9"><a xlink:href="stringutil_8h.xhtml" target="_top" xlink:title="Declares common string utility and formatting routines. ">
<polygon fill="white" stroke="black" points="137,-235.5 137,-254.5 265,-254.5 265,-235.5 137,-235.5"/>
<text text-anchor="middle" x="201" y="-242.5" font-family="Helvetica,sans-Serif" font-size="10.00">gromacs/utility/stringutil.h</text>
</a>
</g>
</g>
<!-- Node1&#45;&gt;Node9 -->
<g id="edge8" class="edge"><title>Node1&#45;&gt;Node9</title>
<path fill="none" stroke="midnightblue" d="M260.516,-403.161C259.222,-378.97 254.468,-328.976 237,-291 232.159,-280.476 224.333,-270.267 217.213,-262.24"/>
<polygon fill="midnightblue" stroke="midnightblue" points="219.589,-259.657 210.202,-254.744 214.477,-264.439 219.589,-259.657"/>
</g>
<!-- Node12 -->
<g id="node12" class="node"><title>Node12</title>
<g id="a_node12"><a xlink:href="testfilemanager_8h.xhtml" target="_top" xlink:title="Declares gmx::test::TestFileManager. ">
<polygon fill="white" stroke="black" points="365.5,-235.5 365.5,-254.5 494.5,-254.5 494.5,-235.5 365.5,-235.5"/>
<text text-anchor="middle" x="430" y="-242.5" font-family="Helvetica,sans-Serif" font-size="10.00">testutils/testfilemanager.h</text>
</a>
</g>
</g>
<!-- Node1&#45;&gt;Node12 -->
<g id="edge13" class="edge"><title>Node1&#45;&gt;Node12</title>
<path fill="none" stroke="midnightblue" d="M274.83,-403.465C305.934,-371.901 381.25,-295.472 414.163,-262.071"/>
<polygon fill="midnightblue" stroke="midnightblue" points="417.039,-264.139 421.565,-254.56 412.053,-259.226 417.039,-264.139"/>
</g>
<!-- Node15 -->
<g id="node15" class="node"><title>Node15</title>
<g id="a_node15"><a xlink:href="multisimtest_8h.xhtml" target="_top" xlink:title="Declares test fixture for the mdrun multi&#45;simulation functionality. ">
<polygon fill="white" stroke="black" points="537,-347.5 537,-366.5 615,-366.5 615,-347.5 537,-347.5"/>
<text text-anchor="middle" x="576" y="-354.5" font-family="Helvetica,sans-Serif" font-size="10.00">multisimtest.h</text>
</a>
</g>
</g>
<!-- Node1&#45;&gt;Node15 -->
<g id="edge17" class="edge"><title>Node1&#45;&gt;Node15</title>
<path fill="none" stroke="midnightblue" d="M328.189,-404.809C387.77,-393.554 473.395,-377.381 526.803,-367.293"/>
<polygon fill="midnightblue" stroke="midnightblue" points="527.536,-370.716 536.713,-365.421 526.237,-363.838 527.536,-370.716"/>
</g>
<!-- Node6 -->
<g id="node6" class="node"><title>Node6</title>
<polygon fill="white" stroke="#bfbfbf" points="243.5,-179.5 243.5,-198.5 284.5,-198.5 284.5,-179.5 243.5,-179.5"/>
<text text-anchor="middle" x="264" y="-186.5" font-family="Helvetica,sans-Serif" font-size="10.00">string</text>
</g>
<!-- Node5&#45;&gt;Node6 -->
<g id="edge5" class="edge"><title>Node5&#45;&gt;Node6</title>
<path fill="none" stroke="midnightblue" d="M91.1248,-235.426C125.315,-227.198 178.297,-214.16 233.428,-199.061"/>
<polygon fill="midnightblue" stroke="midnightblue" points="234.667,-202.35 243.379,-196.32 232.808,-195.602 234.667,-202.35"/>
</g>
<!-- Node7 -->
<g id="node7" class="node"><title>Node7</title>
<polygon fill="white" stroke="#bfbfbf" points="140,-123.5 140,-142.5 180,-142.5 180,-123.5 140,-123.5"/>
<text text-anchor="middle" x="160" y="-130.5" font-family="Helvetica,sans-Serif" font-size="10.00">utility</text>
</g>
<!-- Node5&#45;&gt;Node7 -->
<g id="edge6" class="edge"><title>Node5&#45;&gt;Node7</title>
<path fill="none" stroke="midnightblue" d="M60.2615,-235.444C68.4716,-222.457 85.2398,-197.342 103,-179 113.796,-167.851 127.388,-157.019 138.592,-148.778"/>
<polygon fill="midnightblue" stroke="midnightblue" points="140.883,-151.441 146.966,-142.767 136.801,-145.755 140.883,-151.441"/>
</g>
<!-- Node8 -->
<g id="node8" class="node"><title>Node8</title>
<polygon fill="white" stroke="#bfbfbf" points="62,-123.5 62,-142.5 106,-142.5 106,-123.5 62,-123.5"/>
<text text-anchor="middle" x="84" y="-130.5" font-family="Helvetica,sans-Serif" font-size="10.00">vector</text>
</g>
<!-- Node5&#45;&gt;Node8 -->
<g id="edge7" class="edge"><title>Node5&#45;&gt;Node8</title>
<path fill="none" stroke="midnightblue" d="M47.754,-235.397C38.0526,-222.771 23.0429,-198.597 32,-179 37.7773,-166.36 49.0523,-155.911 59.6306,-148.274"/>
<polygon fill="midnightblue" stroke="midnightblue" points="61.8488,-151.001 68.2167,-142.533 57.9582,-145.182 61.8488,-151.001"/>
</g>
<!-- Node9&#45;&gt;Node6 -->
<g id="edge11" class="edge"><title>Node9&#45;&gt;Node6</title>
<path fill="none" stroke="midnightblue" d="M211.122,-235.324C220.526,-227.263 234.744,-215.077 246.069,-205.369"/>
<polygon fill="midnightblue" stroke="midnightblue" points="248.379,-207.999 253.694,-198.834 243.823,-202.684 248.379,-207.999"/>
</g>
<!-- Node9&#45;&gt;Node8 -->
<g id="edge12" class="edge"><title>Node9&#45;&gt;Node8</title>
<path fill="none" stroke="midnightblue" d="M164.709,-235.414C143.931,-228.736 118.908,-217.42 103,-199 91.843,-186.081 87.2298,-166.909 85.3266,-152.732"/>
<polygon fill="midnightblue" stroke="midnightblue" points="88.7953,-152.245 84.308,-142.647 81.8308,-152.949 88.7953,-152.245"/>
</g>
<!-- Node10 -->
<g id="node10" class="node"><title>Node10</title>
<polygon fill="white" stroke="#bfbfbf" points="176.5,-179.5 176.5,-198.5 225.5,-198.5 225.5,-179.5 176.5,-179.5"/>
<text text-anchor="middle" x="201" y="-186.5" font-family="Helvetica,sans-Serif" font-size="10.00">cstdarg</text>
</g>
<!-- Node9&#45;&gt;Node10 -->
<g id="edge9" class="edge"><title>Node9&#45;&gt;Node10</title>
<path fill="none" stroke="midnightblue" d="M201,-235.083C201,-228.006 201,-217.861 201,-208.986"/>
<polygon fill="midnightblue" stroke="midnightblue" points="204.5,-208.751 201,-198.751 197.5,-208.751 204.5,-208.751"/>
</g>
<!-- Node11 -->
<g id="node11" class="node"><title>Node11</title>
<polygon fill="white" stroke="#bfbfbf" points="112,-179.5 112,-198.5 158,-198.5 158,-179.5 112,-179.5"/>
<text text-anchor="middle" x="135" y="-186.5" font-family="Helvetica,sans-Serif" font-size="10.00">cstring</text>
</g>
<!-- Node9&#45;&gt;Node11 -->
<g id="edge10" class="edge"><title>Node9&#45;&gt;Node11</title>
<path fill="none" stroke="midnightblue" d="M190.396,-235.324C180.544,-227.263 165.649,-215.077 153.785,-205.369"/>
<polygon fill="midnightblue" stroke="midnightblue" points="155.753,-202.457 145.797,-198.834 151.32,-207.875 155.753,-202.457"/>
</g>
<!-- Node12&#45;&gt;Node6 -->
<g id="edge14" class="edge"><title>Node12&#45;&gt;Node6</title>
<path fill="none" stroke="midnightblue" d="M403.697,-235.444C373.999,-225.783 325.752,-210.088 294.448,-199.905"/>
<polygon fill="midnightblue" stroke="midnightblue" points="295.516,-196.572 284.924,-196.807 293.351,-203.228 295.516,-196.572"/>
</g>
<!-- Node13 -->
<g id="node13" class="node"><title>Node13</title>
<g id="a_node13"><a xlink:href="classhelpers_8h.xhtml" target="_top" xlink:title="Declares common utility classes and macros. ">
<polygon fill="white" stroke="black" points="446,-179.5 446,-198.5 592,-198.5 592,-179.5 446,-179.5"/>
<text text-anchor="middle" x="519" y="-186.5" font-family="Helvetica,sans-Serif" font-size="10.00">gromacs/utility/classhelpers.h</text>
</a>
</g>
</g>
<!-- Node12&#45;&gt;Node13 -->
<g id="edge15" class="edge"><title>Node12&#45;&gt;Node13</title>
<path fill="none" stroke="midnightblue" d="M444.299,-235.324C458.183,-226.9 479.492,-213.971 495.804,-204.074"/>
<polygon fill="midnightblue" stroke="midnightblue" points="498.002,-206.834 504.736,-198.655 494.371,-200.85 498.002,-206.834"/>
</g>
<!-- Node14 -->
<g id="node14" class="node"><title>Node14</title>
<polygon fill="white" stroke="#bfbfbf" points="672,-123.5 672,-142.5 724,-142.5 724,-123.5 672,-123.5"/>
<text text-anchor="middle" x="698" y="-130.5" font-family="Helvetica,sans-Serif" font-size="10.00">memory</text>
</g>
<!-- Node13&#45;&gt;Node14 -->
<g id="edge16" class="edge"><title>Node13&#45;&gt;Node14</title>
<path fill="none" stroke="midnightblue" d="M547.363,-179.444C578.364,-170.091 628.109,-155.084 661.879,-144.897"/>
<polygon fill="midnightblue" stroke="midnightblue" points="663.245,-148.141 671.808,-141.902 661.223,-141.439 663.245,-148.141"/>
</g>
<!-- Node15&#45;&gt;Node4 -->
<g id="edge20" class="edge"><title>Node15&#45;&gt;Node4</title>
<path fill="none" stroke="midnightblue" d="M588.08,-347.414C611.287,-330.701 663.322,-292.172 703,-255 719.422,-239.615 736.528,-220.353 748.066,-206.806"/>
<polygon fill="midnightblue" stroke="midnightblue" points="751.02,-208.731 754.781,-198.826 745.664,-204.224 751.02,-208.731"/>
</g>
<!-- Node15&#45;&gt;Node6 -->
<g id="edge19" class="edge"><title>Node15&#45;&gt;Node6</title>
<path fill="none" stroke="midnightblue" d="M554.228,-347.472C514.128,-331.438 426.358,-294.809 357,-255 330.279,-239.663 301.494,-218.804 283.142,-204.895"/>
<polygon fill="midnightblue" stroke="midnightblue" points="285.093,-201.981 275.026,-198.68 280.838,-207.539 285.093,-201.981"/>
</g>
<!-- Node15&#45;&gt;Node14 -->
<g id="edge18" class="edge"><title>Node15&#45;&gt;Node14</title>
<path fill="none" stroke="midnightblue" d="M603.588,-347.417C655.399,-329.579 765.742,-283.001 807,-199 823.203,-166.01 772.006,-148.414 734.369,-140.158"/>
<polygon fill="midnightblue" stroke="midnightblue" points="734.678,-136.649 724.18,-138.072 733.274,-143.507 734.678,-136.649"/>
</g>
<!-- Node16 -->
<g id="node16" class="node"><title>Node16</title>
<g id="a_node16"><a xlink:href="cmdlinetest_8h.xhtml" target="_top" xlink:title="Declares utilities testing command&#45;line programs. ">
<polygon fill="white" stroke="black" points="551.5,-235.5 551.5,-254.5 664.5,-254.5 664.5,-235.5 551.5,-235.5"/>
<text text-anchor="middle" x="608" y="-242.5" font-family="Helvetica,sans-Serif" font-size="10.00">testutils/cmdlinetest.h</text>
</a>
</g>
</g>
<!-- Node15&#45;&gt;Node16 -->
<g id="edge21" class="edge"><title>Node15&#45;&gt;Node16</title>
<path fill="none" stroke="midnightblue" d="M578.511,-347.368C583.698,-329.537 595.696,-288.295 602.685,-264.272"/>
<polygon fill="midnightblue" stroke="midnightblue" points="606.068,-265.171 605.501,-254.591 599.347,-263.216 606.068,-265.171"/>
</g>
<!-- Node28 -->
<g id="node28" class="node"><title>Node28</title>
<g id="a_node28"><a xlink:href="programs_2mdrun_2tests_2moduletest_8h.xhtml" target="_top" xlink:title="Declares test fixtures for general mdrun functionality. ">
<polygon fill="white" stroke="black" points="506.5,-291.5 506.5,-310.5 579.5,-310.5 579.5,-291.5 506.5,-291.5"/>
<text text-anchor="middle" x="543" y="-298.5" font-family="Helvetica,sans-Serif" font-size="10.00">moduletest.h</text>
</a>
</g>
</g>
<!-- Node15&#45;&gt;Node28 -->
<g id="edge39" class="edge"><title>Node15&#45;&gt;Node28</title>
<path fill="none" stroke="midnightblue" d="M570.551,-347.083C565.986,-339.613 559.332,-328.724 553.707,-319.52"/>
<polygon fill="midnightblue" stroke="midnightblue" points="556.549,-317.459 548.348,-310.751 550.576,-321.109 556.549,-317.459"/>
</g>
<!-- Node16&#45;&gt;Node4 -->
<g id="edge25" class="edge"><title>Node16&#45;&gt;Node4</title>
<path fill="none" stroke="midnightblue" d="M632.402,-235.444C658.197,-226.399 699.077,-212.064 728.018,-201.916"/>
<polygon fill="midnightblue" stroke="midnightblue" points="729.434,-205.128 737.712,-198.516 727.118,-198.523 729.434,-205.128"/>
</g>
<!-- Node16&#45;&gt;Node6 -->
<g id="edge24" class="edge"><title>Node16&#45;&gt;Node6</title>
<path fill="none" stroke="midnightblue" d="M551.391,-238.459C490.264,-231.9 389.944,-219.475 294.378,-198.768"/>
<polygon fill="midnightblue" stroke="midnightblue" points="295.069,-195.337 284.551,-196.605 293.565,-202.173 295.069,-195.337"/>
</g>
<!-- Node16&#45;&gt;Node13 -->
<g id="edge38" class="edge"><title>Node16&#45;&gt;Node13</title>
<path fill="none" stroke="midnightblue" d="M593.701,-235.324C579.817,-226.9 558.508,-213.971 542.196,-204.074"/>
<polygon fill="midnightblue" stroke="midnightblue" points="543.629,-200.85 533.264,-198.655 539.998,-206.834 543.629,-200.85"/>
</g>
<!-- Node16&#45;&gt;Node14 -->
<g id="edge23" class="edge"><title>Node16&#45;&gt;Node14</title>
<path fill="none" stroke="midnightblue" d="M629.293,-235.492C645.188,-228.099 666.276,-215.908 679,-199 689.052,-185.643 693.799,-167.071 696.033,-153.199"/>
<polygon fill="midnightblue" stroke="midnightblue" points="699.558,-153.237 697.38,-142.868 692.617,-152.331 699.558,-153.237"/>
</g>
<!-- Node17 -->
<g id="node17" class="node"><title>Node17</title>
<polygon fill="white" stroke="#bfbfbf" points="610.5,-179.5 610.5,-198.5 669.5,-198.5 669.5,-179.5 610.5,-179.5"/>
<text text-anchor="middle" x="640" y="-186.5" font-family="Helvetica,sans-Serif" font-size="10.00">functional</text>
</g>
<!-- Node16&#45;&gt;Node17 -->
<g id="edge22" class="edge"><title>Node16&#45;&gt;Node17</title>
<path fill="none" stroke="midnightblue" d="M613.284,-235.083C617.711,-227.613 624.163,-216.724 629.618,-207.52"/>
<polygon fill="midnightblue" stroke="midnightblue" points="632.727,-209.138 634.814,-198.751 626.705,-205.57 632.727,-209.138"/>
</g>
<!-- Node18 -->
<g id="node18" class="node"><title>Node18</title>
<g id="a_node18"><a xlink:href="arrayref_8h.xhtml" target="_top" xlink:title="Declares gmx::ArrayRef. ">
<polygon fill="white" stroke="black" points="302.5,-179.5 302.5,-198.5 427.5,-198.5 427.5,-179.5 302.5,-179.5"/>
<text text-anchor="middle" x="365" y="-186.5" font-family="Helvetica,sans-Serif" font-size="10.00">gromacs/utility/arrayref.h</text>
</a>
</g>
</g>
<!-- Node16&#45;&gt;Node18 -->
<g id="edge26" class="edge"><title>Node16&#45;&gt;Node18</title>
<path fill="none" stroke="midnightblue" d="M569.496,-235.444C527.194,-226.043 459.181,-210.929 413.327,-200.739"/>
<polygon fill="midnightblue" stroke="midnightblue" points="413.845,-197.269 403.324,-198.516 412.327,-204.102 413.845,-197.269"/>
</g>
<!-- Node18&#45;&gt;Node7 -->
<g id="edge31" class="edge"><title>Node18&#45;&gt;Node7</title>
<path fill="none" stroke="midnightblue" d="M332.517,-179.444C293.405,-169.141 228.24,-151.976 190.184,-141.951"/>
<polygon fill="midnightblue" stroke="midnightblue" points="190.775,-138.487 180.214,-139.325 188.992,-145.256 190.775,-138.487"/>
</g>
<!-- Node18&#45;&gt;Node8 -->
<g id="edge32" class="edge"><title>Node18&#45;&gt;Node8</title>
<path fill="none" stroke="midnightblue" d="M320.475,-179.444C263.55,-168.504 166.364,-149.828 116.147,-140.178"/>
<polygon fill="midnightblue" stroke="midnightblue" points="116.657,-136.712 106.176,-138.262 115.336,-143.586 116.657,-136.712"/>
</g>
<!-- Node19 -->
<g id="node19" class="node"><title>Node19</title>
<polygon fill="white" stroke="#bfbfbf" points="567.5,-123.5 567.5,-142.5 616.5,-142.5 616.5,-123.5 567.5,-123.5"/>
<text text-anchor="middle" x="592" y="-130.5" font-family="Helvetica,sans-Serif" font-size="10.00">cstddef</text>
</g>
<!-- Node18&#45;&gt;Node19 -->
<g id="edge27" class="edge"><title>Node18&#45;&gt;Node19</title>
<path fill="none" stroke="midnightblue" d="M403.754,-179.47C440.92,-171.187 498.847,-158.012 557.382,-143.347"/>
<polygon fill="midnightblue" stroke="midnightblue" points="558.318,-146.72 567.161,-140.884 556.609,-139.932 558.318,-146.72"/>
</g>
<!-- Node20 -->
<g id="node20" class="node"><title>Node20</title>
<polygon fill="white" stroke="#bfbfbf" points="214,-123.5 214,-142.5 252,-142.5 252,-123.5 214,-123.5"/>
<text text-anchor="middle" x="233" y="-130.5" font-family="Helvetica,sans-Serif" font-size="10.00">array</text>
</g>
<!-- Node18&#45;&gt;Node20 -->
<g id="edge28" class="edge"><title>Node18&#45;&gt;Node20</title>
<path fill="none" stroke="midnightblue" d="M344.084,-179.444C321.751,-170.307 286.224,-155.773 261.378,-145.609"/>
<polygon fill="midnightblue" stroke="midnightblue" points="262.684,-142.362 252.104,-141.815 260.034,-148.841 262.684,-142.362"/>
</g>
<!-- Node21 -->
<g id="node21" class="node"><title>Node21</title>
<polygon fill="white" stroke="#bfbfbf" points="270.5,-123.5 270.5,-142.5 317.5,-142.5 317.5,-123.5 270.5,-123.5"/>
<text text-anchor="middle" x="294" y="-130.5" font-family="Helvetica,sans-Serif" font-size="10.00">iterator</text>
</g>
<!-- Node18&#45;&gt;Node21 -->
<g id="edge29" class="edge"><title>Node18&#45;&gt;Node21</title>
<path fill="none" stroke="midnightblue" d="M353.593,-179.324C342.891,-171.185 326.659,-158.839 313.837,-149.087"/>
<polygon fill="midnightblue" stroke="midnightblue" points="315.693,-146.102 305.615,-142.834 311.456,-151.673 315.693,-146.102"/>
</g>
<!-- Node22 -->
<g id="node22" class="node"><title>Node22</title>
<polygon fill="white" stroke="#bfbfbf" points="335.5,-123.5 335.5,-142.5 394.5,-142.5 394.5,-123.5 335.5,-123.5"/>
<text text-anchor="middle" x="365" y="-130.5" font-family="Helvetica,sans-Serif" font-size="10.00">stdexcept</text>
</g>
<!-- Node18&#45;&gt;Node22 -->
<g id="edge30" class="edge"><title>Node18&#45;&gt;Node22</title>
<path fill="none" stroke="midnightblue" d="M365,-179.083C365,-172.006 365,-161.861 365,-152.986"/>
<polygon fill="midnightblue" stroke="midnightblue" points="368.5,-152.751 365,-142.751 361.5,-152.751 368.5,-152.751"/>
</g>
<!-- Node23 -->
<g id="node23" class="node"><title>Node23</title>
<g id="a_node23"><a xlink:href="gmxassert_8h.xhtml" target="_top" xlink:title="Defines assert macros customized for Gromacs. ">
<polygon fill="white" stroke="black" points="412.5,-123.5 412.5,-142.5 549.5,-142.5 549.5,-123.5 412.5,-123.5"/>
<text text-anchor="middle" x="481" y="-130.5" font-family="Helvetica,sans-Serif" font-size="10.00">gromacs/utility/gmxassert.h</text>
</a>
</g>
</g>
<!-- Node18&#45;&gt;Node23 -->
<g id="edge33" class="edge"><title>Node18&#45;&gt;Node23</title>
<path fill="none" stroke="midnightblue" d="M383.381,-179.444C402.216,-170.675 431.731,-156.935 453.379,-146.858"/>
<polygon fill="midnightblue" stroke="midnightblue" points="455.117,-149.91 462.705,-142.516 452.162,-143.564 455.117,-149.91"/>
</g>
<!-- Node24 -->
<g id="node24" class="node"><title>Node24</title>
<g id="a_node24"><a xlink:href="basedefinitions_8h.xhtml" target="_top" xlink:title="Basic types and macros used throughout GROMACS. ">
<polygon fill="white" stroke="black" points="326.5,-62 326.5,-81 483.5,-81 483.5,-62 326.5,-62"/>
<text text-anchor="middle" x="405" y="-69" font-family="Helvetica,sans-Serif" font-size="10.00">gromacs/utility/basedefinitions.h</text>
</a>
</g>
</g>
<!-- Node23&#45;&gt;Node24 -->
<g id="edge34" class="edge"><title>Node23&#45;&gt;Node24</title>
<path fill="none" stroke="midnightblue" d="M470.111,-123.475C458.034,-114.02 438.333,-98.5961 423.76,-87.1871"/>
<polygon fill="midnightblue" stroke="midnightblue" points="425.9,-84.4177 415.869,-81.0091 421.585,-89.9295 425.9,-84.4177"/>
</g>
<!-- Node27 -->
<g id="node27" class="node"><title>Node27</title>
<g id="a_node27"><a xlink:href="current__function_8h.xhtml" target="_top" xlink:title="Declares GMX_CURRENT_FUNCTION for getting the current function name. ">
<polygon fill="white" stroke="black" points="501.5,-56.5 501.5,-86.5 614.5,-86.5 614.5,-56.5 501.5,-56.5"/>
<text text-anchor="start" x="509.5" y="-74.5" font-family="Helvetica,sans-Serif" font-size="10.00">gromacs/utility/current</text>
<text text-anchor="middle" x="558" y="-63.5" font-family="Helvetica,sans-Serif" font-size="10.00">_function.h</text>
</a>
</g>
</g>
<!-- Node23&#45;&gt;Node27 -->
<g id="edge37" class="edge"><title>Node23&#45;&gt;Node27</title>
<path fill="none" stroke="midnightblue" d="M492.032,-123.475C502.363,-115.492 518.2,-103.254 531.768,-92.7703"/>
<polygon fill="midnightblue" stroke="midnightblue" points="534.08,-95.407 539.853,-86.523 529.8,-89.868 534.08,-95.407"/>
</g>
<!-- Node25 -->
<g id="node25" class="node"><title>Node25</title>
<polygon fill="white" stroke="#bfbfbf" points="344.5,-0.5 344.5,-19.5 393.5,-19.5 393.5,-0.5 344.5,-0.5"/>
<text text-anchor="middle" x="369" y="-7.5" font-family="Helvetica,sans-Serif" font-size="10.00">stdint.h</text>
</g>
<!-- Node24&#45;&gt;Node25 -->
<g id="edge35" class="edge"><title>Node24&#45;&gt;Node25</title>
<path fill="none" stroke="midnightblue" d="M399.842,-61.9751C394.549,-53.2268 386.165,-39.3691 379.473,-28.3093"/>
<polygon fill="midnightblue" stroke="midnightblue" points="382.32,-26.2531 374.148,-19.5091 376.33,-29.8768 382.32,-26.2531"/>
</g>
<!-- Node26 -->
<g id="node26" class="node"><title>Node26</title>
<polygon fill="white" stroke="#bfbfbf" points="411.5,-0.5 411.5,-19.5 470.5,-19.5 470.5,-0.5 411.5,-0.5"/>
<text text-anchor="middle" x="441" y="-7.5" font-family="Helvetica,sans-Serif" font-size="10.00">inttypes.h</text>
</g>
<!-- Node24&#45;&gt;Node26 -->
<g id="edge36" class="edge"><title>Node24&#45;&gt;Node26</title>
<path fill="none" stroke="midnightblue" d="M410.158,-61.9751C415.451,-53.2268 423.835,-39.3691 430.527,-28.3093"/>
<polygon fill="midnightblue" stroke="midnightblue" points="433.67,-29.8768 435.852,-19.5091 427.68,-26.2531 433.67,-29.8768"/>
</g>
<!-- Node28&#45;&gt;Node4 -->
<g id="edge40" class="edge"><title>Node28&#45;&gt;Node4</title>
<path fill="none" stroke="midnightblue" d="M576.725,-291.488C603.892,-283.917 642.596,-271.49 674,-255 700.349,-241.164 727.41,-219.915 744.441,-205.51"/>
<polygon fill="midnightblue" stroke="midnightblue" points="747.082,-207.855 752.375,-198.677 742.514,-202.55 747.082,-207.855"/>
</g>
<!-- Node28&#45;&gt;Node12 -->
<g id="edge43" class="edge"><title>Node28&#45;&gt;Node12</title>
<path fill="none" stroke="midnightblue" d="M525.095,-291.444C506.746,-282.675 477.995,-268.935 456.906,-258.858"/>
<polygon fill="midnightblue" stroke="midnightblue" points="458.353,-255.67 447.821,-254.516 455.335,-261.986 458.353,-255.67"/>
</g>
<!-- Node28&#45;&gt;Node13 -->
<g id="edge41" class="edge"><title>Node28&#45;&gt;Node13</title>
<path fill="none" stroke="midnightblue" d="M541.117,-291.368C537.244,-273.617 528.309,-232.666 523.058,-208.597"/>
<polygon fill="midnightblue" stroke="midnightblue" points="526.426,-207.615 520.874,-198.591 519.587,-209.108 526.426,-207.615"/>
</g>
<!-- Node28&#45;&gt;Node16 -->
<g id="edge42" class="edge"><title>Node28&#45;&gt;Node16</title>
<path fill="none" stroke="midnightblue" d="M553.443,-291.324C563.146,-283.263 577.815,-271.077 589.5,-261.369"/>
<polygon fill="midnightblue" stroke="midnightblue" points="591.911,-263.916 597.367,-254.834 587.438,-258.532 591.911,-263.916"/>
</g>
</g>
</svg>
