<?xml version="1.0" encoding="UTF-8" standalone="no"?>
<!DOCTYPE svg PUBLIC "-//W3C//DTD SVG 1.1//EN"
 "http://www.w3.org/Graphics/SVG/1.1/DTD/svg11.dtd">
<!-- Generated by graphviz version 2.38.0 (20140413.2041)
 -->
<!-- Title: src/gromacs/selection/selelem.h Pages: 1 -->
<svg width="1891pt" height="251pt"
 viewBox="0.00 0.00 1891.20 251.00" xmlns="http://www.w3.org/2000/svg" xmlns:xlink="http://www.w3.org/1999/xlink">
<g id="graph0" class="graph" transform="scale(1 1) rotate(0) translate(4 247)">
<title>src/gromacs/selection/selelem.h</title>
<polygon fill="white" stroke="none" points="-4,4 -4,-247 1887.2,-247 1887.2,4 -4,4"/>
<!-- Node1 -->
<g id="node1" class="node"><title>Node1</title>
<polygon fill="#bfbfbf" stroke="black" points="700.202,-212.5 700.202,-242.5 813.202,-242.5 813.202,-212.5 700.202,-212.5"/>
<text text-anchor="start" x="708.202" y="-230.5" font-family="Helvetica,sans-Serif" font-size="10.00">src/gromacs/selection</text>
<text text-anchor="middle" x="756.702" y="-219.5" font-family="Helvetica,sans-Serif" font-size="10.00">/selelem.h</text>
</g>
<!-- Node2 -->
<g id="node2" class="node"><title>Node2</title>
<g id="a_node2"><a xlink:href="evaluate_8h.xhtml" target="_top" xlink:title="Evaluation functions for sel_evalfunc(). ">
<polygon fill="white" stroke="black" points="577.202,-140 577.202,-170 690.202,-170 690.202,-140 577.202,-140"/>
<text text-anchor="start" x="585.202" y="-158" font-family="Helvetica,sans-Serif" font-size="10.00">src/gromacs/selection</text>
<text text-anchor="middle" x="633.702" y="-147" font-family="Helvetica,sans-Serif" font-size="10.00">/evaluate.h</text>
</a>
</g>
</g>
<!-- Node1&#45;&gt;Node2 -->
<g id="edge1" class="edge"><title>Node1&#45;&gt;Node2</title>
<path fill="none" stroke="midnightblue" d="M723.377,-207.399C702.83,-195.622 676.93,-180.778 658.254,-170.073"/>
<polygon fill="midnightblue" stroke="midnightblue" points="721.69,-210.466 732.106,-212.403 725.171,-204.393 721.69,-210.466"/>
</g>
<!-- Node3 -->
<g id="node3" class="node"><title>Node3</title>
<g id="a_node3"><a xlink:href="compiler_8cpp.xhtml" target="_top" xlink:title="Selection compilation and optimization. ">
<polygon fill="white" stroke="black" points="491.202,-0.5 491.202,-30.5 604.202,-30.5 604.202,-0.5 491.202,-0.5"/>
<text text-anchor="start" x="499.202" y="-18.5" font-family="Helvetica,sans-Serif" font-size="10.00">src/gromacs/selection</text>
<text text-anchor="middle" x="547.702" y="-7.5" font-family="Helvetica,sans-Serif" font-size="10.00">/compiler.cpp</text>
</a>
</g>
</g>
<!-- Node1&#45;&gt;Node3 -->
<g id="edge26" class="edge"><title>Node1&#45;&gt;Node3</title>
<path fill="none" stroke="midnightblue" d="M689.878,-225.975C528.16,-223.005 124.106,-204.837 57.7015,-98 -4.37847,1.87985 -68.1299,-90.1257 442.702,-31 458.422,-29.1804 475.431,-26.947 491.087,-24.7831"/>
<polygon fill="midnightblue" stroke="midnightblue" points="690.115,-229.479 700.173,-226.149 690.234,-222.48 690.115,-229.479"/>
</g>
<!-- Node4 -->
<g id="node4" class="node"><title>Node4</title>
<g id="a_node4"><a xlink:href="evaluate_8cpp.xhtml" target="_top" xlink:title="Implements functions in evaluate.h. ">
<polygon fill="white" stroke="black" points="615.202,-67.5 615.202,-97.5 728.202,-97.5 728.202,-67.5 615.202,-67.5"/>
<text text-anchor="start" x="623.202" y="-85.5" font-family="Helvetica,sans-Serif" font-size="10.00">src/gromacs/selection</text>
<text text-anchor="middle" x="671.702" y="-74.5" font-family="Helvetica,sans-Serif" font-size="10.00">/evaluate.cpp</text>
</a>
</g>
</g>
<!-- Node1&#45;&gt;Node4 -->
<g id="edge27" class="edge"><title>Node1&#45;&gt;Node4</title>
<path fill="none" stroke="midnightblue" d="M742.952,-203.369C725.188,-173.483 694.806,-122.369 680.128,-97.6766"/>
<polygon fill="midnightblue" stroke="midnightblue" points="740.122,-205.458 748.241,-212.266 746.14,-201.881 740.122,-205.458"/>
</g>
<!-- Node5 -->
<g id="node5" class="node"><title>Node5</title>
<g id="a_node5"><a xlink:href="parsetree_8h.xhtml" target="_top" xlink:title="Handling of intermediate selection parser data. ">
<polygon fill="white" stroke="black" points="360.202,-140 360.202,-170 473.202,-170 473.202,-140 360.202,-140"/>
<text text-anchor="start" x="368.202" y="-158" font-family="Helvetica,sans-Serif" font-size="10.00">src/gromacs/selection</text>
<text text-anchor="middle" x="416.702" y="-147" font-family="Helvetica,sans-Serif" font-size="10.00">/parsetree.h</text>
</a>
</g>
</g>
<!-- Node1&#45;&gt;Node5 -->
<g id="edge4" class="edge"><title>Node1&#45;&gt;Node5</title>
<path fill="none" stroke="midnightblue" d="M690.068,-215.69C635.421,-206.417 556.191,-192.042 487.702,-176 480.096,-174.219 472.083,-172.151 464.29,-170.034"/>
<polygon fill="midnightblue" stroke="midnightblue" points="689.535,-219.149 699.978,-217.361 690.699,-212.247 689.535,-219.149"/>
</g>
<!-- Node6 -->
<g id="node6" class="node"><title>Node6</title>
<g id="a_node6"><a xlink:href="keywords_8h.xhtml" target="_top" xlink:title="Definitions of generic keyword evaluation structures. ">
<polygon fill="white" stroke="black" points="275.202,-67.5 275.202,-97.5 388.202,-97.5 388.202,-67.5 275.202,-67.5"/>
<text text-anchor="start" x="283.202" y="-85.5" font-family="Helvetica,sans-Serif" font-size="10.00">src/gromacs/selection</text>
<text text-anchor="middle" x="331.702" y="-74.5" font-family="Helvetica,sans-Serif" font-size="10.00">/keywords.h</text>
</a>
</g>
</g>
<!-- Node1&#45;&gt;Node6 -->
<g id="edge19" class="edge"><title>Node1&#45;&gt;Node6</title>
<path fill="none" stroke="midnightblue" d="M689.698,-227.287C587.3,-227.031 398.676,-220.334 350.702,-176 329.029,-155.972 328.44,-118.378 330.001,-97.8214"/>
<polygon fill="midnightblue" stroke="midnightblue" points="689.932,-230.787 699.934,-227.292 689.935,-223.787 689.932,-230.787"/>
</g>
<!-- Node7 -->
<g id="node7" class="node"><title>Node7</title>
<g id="a_node7"><a xlink:href="parsetree_8cpp.xhtml" target="_top" xlink:title="Implements functions in parsetree.h. ">
<polygon fill="white" stroke="black" points="908.202,-0.5 908.202,-30.5 1021.2,-30.5 1021.2,-0.5 908.202,-0.5"/>
<text text-anchor="start" x="916.202" y="-18.5" font-family="Helvetica,sans-Serif" font-size="10.00">src/gromacs/selection</text>
<text text-anchor="middle" x="964.702" y="-7.5" font-family="Helvetica,sans-Serif" font-size="10.00">/parsetree.cpp</text>
</a>
</g>
</g>
<!-- Node1&#45;&gt;Node7 -->
<g id="edge30" class="edge"><title>Node1&#45;&gt;Node7</title>
<path fill="none" stroke="midnightblue" d="M823.551,-227.162C999.811,-227.25 1469.46,-216.197 1553.7,-98 1561.7,-86.7804 1563.02,-77.15 1553.7,-67 1535.83,-47.5309 1165.33,-26.695 1021.29,-19.2987"/>
<polygon fill="midnightblue" stroke="midnightblue" points="823.378,-223.662 813.372,-227.144 823.366,-230.662 823.378,-223.662"/>
</g>
<!-- Node8 -->
<g id="node8" class="node"><title>Node8</title>
<g id="a_node8"><a xlink:href="selelem_8cpp.xhtml" target="_top" xlink:title="Implements functions in selelem.h. ">
<polygon fill="white" stroke="black" points="661.202,-0.5 661.202,-30.5 774.202,-30.5 774.202,-0.5 661.202,-0.5"/>
<text text-anchor="start" x="669.202" y="-18.5" font-family="Helvetica,sans-Serif" font-size="10.00">src/gromacs/selection</text>
<text text-anchor="middle" x="717.702" y="-7.5" font-family="Helvetica,sans-Serif" font-size="10.00">/selelem.cpp</text>
</a>
</g>
</g>
<!-- Node1&#45;&gt;Node8 -->
<g id="edge41" class="edge"><title>Node1&#45;&gt;Node8</title>
<path fill="none" stroke="midnightblue" d="M755.43,-202.149C753.378,-170.584 748.322,-114.016 736.702,-67 733.6,-54.4506 728.321,-40.7564 724.114,-30.7982"/>
<polygon fill="midnightblue" stroke="midnightblue" points="751.941,-202.442 756.036,-212.214 758.929,-202.021 751.941,-202.442"/>
</g>
<!-- Node10 -->
<g id="node10" class="node"><title>Node10</title>
<g id="a_node10"><a xlink:href="sm__keywords_8cpp.xhtml" target="_top" xlink:title="Implements internal selection methods for numeric and string keyword evaluation. ">
<polygon fill="white" stroke="black" points="190.202,-0.5 190.202,-30.5 303.202,-30.5 303.202,-0.5 190.202,-0.5"/>
<text text-anchor="start" x="198.202" y="-18.5" font-family="Helvetica,sans-Serif" font-size="10.00">src/gromacs/selection</text>
<text text-anchor="middle" x="246.702" y="-7.5" font-family="Helvetica,sans-Serif" font-size="10.00">/sm_keywords.cpp</text>
</a>
</g>
</g>
<!-- Node1&#45;&gt;Node10 -->
<g id="edge43" class="edge"><title>Node1&#45;&gt;Node10</title>
<path fill="none" stroke="midnightblue" d="M689.969,-224.435C532.186,-219.126 145.469,-203.453 93.7015,-176 44.4638,-149.888 -2.90996,-110.683 31.7015,-67 32.9628,-65.4082 126.807,-43.7856 190.082,-29.3553"/>
<polygon fill="midnightblue" stroke="midnightblue" points="689.914,-227.935 700.025,-224.77 690.147,-220.939 689.914,-227.935"/>
</g>
<!-- Node11 -->
<g id="node11" class="node"><title>Node11</title>
<g id="a_node11"><a xlink:href="sm__position_8cpp.xhtml" target="_top" xlink:title="Implements position evaluation selection methods. ">
<polygon fill="white" stroke="black" points="1296.2,-0.5 1296.2,-30.5 1409.2,-30.5 1409.2,-0.5 1296.2,-0.5"/>
<text text-anchor="start" x="1304.2" y="-18.5" font-family="Helvetica,sans-Serif" font-size="10.00">src/gromacs/selection</text>
<text text-anchor="middle" x="1352.7" y="-7.5" font-family="Helvetica,sans-Serif" font-size="10.00">/sm_position.cpp</text>
</a>
</g>
</g>
<!-- Node1&#45;&gt;Node11 -->
<g id="edge44" class="edge"><title>Node1&#45;&gt;Node11</title>
<path fill="none" stroke="midnightblue" d="M823.453,-226.664C977.335,-226.26 1352.74,-220.582 1469.7,-176 1522.7,-155.8 1545.7,-148.907 1570.7,-98 1602.5,-33.2644 1483.97,-19.181 1409.29,-16.5868"/>
<polygon fill="midnightblue" stroke="midnightblue" points="823.196,-223.165 813.203,-226.684 823.21,-230.165 823.196,-223.165"/>
</g>
<!-- Node12 -->
<g id="node12" class="node"><title>Node12</title>
<g id="a_node12"><a xlink:href="sm__same_8cpp.xhtml" target="_top" xlink:title="Implements the same selection method. ">
<polygon fill="white" stroke="black" points="59.2015,-0.5 59.2015,-30.5 172.202,-30.5 172.202,-0.5 59.2015,-0.5"/>
<text text-anchor="start" x="67.2015" y="-18.5" font-family="Helvetica,sans-Serif" font-size="10.00">src/gromacs/selection</text>
<text text-anchor="middle" x="115.702" y="-7.5" font-family="Helvetica,sans-Serif" font-size="10.00">/sm_same.cpp</text>
</a>
</g>
</g>
<!-- Node1&#45;&gt;Node12 -->
<g id="edge45" class="edge"><title>Node1&#45;&gt;Node12</title>
<path fill="none" stroke="midnightblue" d="M690.021,-226.363C520.232,-225.39 81.5072,-218.724 32.7015,-176 -4.13999,-143.749 -8.87232,-108.754 16.7015,-67 27.2326,-49.806 45.6624,-38.2345 63.7876,-30.5603"/>
<polygon fill="midnightblue" stroke="midnightblue" points="690.066,-229.864 700.084,-226.416 690.102,-222.864 690.066,-229.864"/>
</g>
<!-- Node13 -->
<g id="node13" class="node"><title>Node13</title>
<g id="a_node13"><a xlink:href="params_8cpp.xhtml" target="_top" xlink:title="Implements functions in selparam.h. ">
<polygon fill="white" stroke="black" points="67.2015,-67.5 67.2015,-97.5 180.202,-97.5 180.202,-67.5 67.2015,-67.5"/>
<text text-anchor="start" x="75.2015" y="-85.5" font-family="Helvetica,sans-Serif" font-size="10.00">src/gromacs/selection</text>
<text text-anchor="middle" x="123.702" y="-74.5" font-family="Helvetica,sans-Serif" font-size="10.00">/params.cpp</text>
</a>
</g>
</g>
<!-- Node1&#45;&gt;Node13 -->
<g id="edge28" class="edge"><title>Node1&#45;&gt;Node13</title>
<path fill="none" stroke="midnightblue" d="M690.026,-224.985C604.61,-221.615 452.667,-210.779 327.702,-176 259.705,-157.076 185.583,-118.49 148.2,-97.6339"/>
<polygon fill="midnightblue" stroke="midnightblue" points="689.983,-228.485 700.106,-225.36 690.243,-221.49 689.983,-228.485"/>
</g>
<!-- Node14 -->
<g id="node14" class="node"><title>Node14</title>
<g id="a_node14"><a xlink:href="parser__internal_8h.xhtml" target="_top" xlink:title="Helper functions for the selection parser. ">
<polygon fill="white" stroke="black" points="445.202,-67.5 445.202,-97.5 558.202,-97.5 558.202,-67.5 445.202,-67.5"/>
<text text-anchor="start" x="453.202" y="-85.5" font-family="Helvetica,sans-Serif" font-size="10.00">src/gromacs/selection</text>
<text text-anchor="middle" x="501.702" y="-74.5" font-family="Helvetica,sans-Serif" font-size="10.00">/parser_internal.h</text>
</a>
</g>
</g>
<!-- Node1&#45;&gt;Node14 -->
<g id="edge29" class="edge"><title>Node1&#45;&gt;Node14</title>
<path fill="none" stroke="midnightblue" d="M689.873,-219.969C651.402,-213.581 603.704,-200.953 567.702,-176 538.516,-155.772 517.743,-118.259 507.982,-97.7684"/>
<polygon fill="midnightblue" stroke="midnightblue" points="689.531,-223.458 699.95,-221.537 690.607,-216.541 689.531,-223.458"/>
</g>
<!-- Node15 -->
<g id="node15" class="node"><title>Node15</title>
<g id="a_node15"><a xlink:href="scanner__internal_8cpp.xhtml" target="_top" xlink:title="Helper functions for the selection tokenizer. ">
<polygon fill="white" stroke="black" points="785.202,-67.5 785.202,-97.5 898.202,-97.5 898.202,-67.5 785.202,-67.5"/>
<text text-anchor="start" x="793.202" y="-85.5" font-family="Helvetica,sans-Serif" font-size="10.00">src/gromacs/selection</text>
<text text-anchor="middle" x="841.702" y="-74.5" font-family="Helvetica,sans-Serif" font-size="10.00">/scanner_internal.cpp</text>
</a>
</g>
</g>
<!-- Node1&#45;&gt;Node15 -->
<g id="edge38" class="edge"><title>Node1&#45;&gt;Node15</title>
<path fill="none" stroke="midnightblue" d="M770.451,-203.369C788.215,-173.483 818.598,-122.369 833.275,-97.6766"/>
<polygon fill="midnightblue" stroke="midnightblue" points="767.263,-201.881 765.162,-212.266 773.281,-205.458 767.263,-201.881"/>
</g>
<!-- Node16 -->
<g id="node16" class="node"><title>Node16</title>
<g id="a_node16"><a xlink:href="selectioncollection-impl_8h.xhtml" target="_top" xlink:title="Declares private implementation class for gmx::SelectionCollection. ">
<polygon fill="white" stroke="black" points="870.202,-134.5 870.202,-175.5 983.202,-175.5 983.202,-134.5 870.202,-134.5"/>
<text text-anchor="start" x="878.202" y="-163.5" font-family="Helvetica,sans-Serif" font-size="10.00">src/gromacs/selection</text>
<text text-anchor="start" x="878.202" y="-152.5" font-family="Helvetica,sans-Serif" font-size="10.00">/selectioncollection</text>
<text text-anchor="middle" x="926.702" y="-141.5" font-family="Helvetica,sans-Serif" font-size="10.00">&#45;impl.h</text>
</a>
</g>
</g>
<!-- Node1&#45;&gt;Node16 -->
<g id="edge20" class="edge"><title>Node1&#45;&gt;Node16</title>
<path fill="none" stroke="midnightblue" d="M800.027,-208.533C824.33,-198.454 854.673,-185.871 879.568,-175.546"/>
<polygon fill="midnightblue" stroke="midnightblue" points="798.591,-205.339 790.695,-212.403 801.273,-211.805 798.591,-205.339"/>
</g>
<!-- Node17 -->
<g id="node17" class="node"><title>Node17</title>
<g id="a_node17"><a xlink:href="selectioncollection_8cpp.xhtml" target="_top" xlink:title="Implements gmx::SelectionCollection. ">
<polygon fill="white" stroke="black" points="993.202,-67.5 993.202,-97.5 1112.2,-97.5 1112.2,-67.5 993.202,-67.5"/>
<text text-anchor="start" x="1001.2" y="-85.5" font-family="Helvetica,sans-Serif" font-size="10.00">src/gromacs/selection</text>
<text text-anchor="middle" x="1052.7" y="-74.5" font-family="Helvetica,sans-Serif" font-size="10.00">/selectioncollection.cpp</text>
</a>
</g>
</g>
<!-- Node1&#45;&gt;Node17 -->
<g id="edge40" class="edge"><title>Node1&#45;&gt;Node17</title>
<path fill="none" stroke="midnightblue" d="M823.724,-225.441C873.872,-221.668 942.072,-209.934 991.702,-176 1020.44,-156.348 1039.04,-118.245 1047.46,-97.6057"/>
<polygon fill="midnightblue" stroke="midnightblue" points="823.374,-221.957 813.628,-226.113 823.838,-228.941 823.374,-221.957"/>
</g>
<!-- Node18 -->
<g id="node18" class="node"><title>Node18</title>
<g id="a_node18"><a xlink:href="symrec_8h.xhtml" target="_top" xlink:title="Handling of selection parser symbol table. ">
<polygon fill="white" stroke="black" points="1130.2,-140 1130.2,-170 1243.2,-170 1243.2,-140 1130.2,-140"/>
<text text-anchor="start" x="1138.2" y="-158" font-family="Helvetica,sans-Serif" font-size="10.00">src/gromacs/selection</text>
<text text-anchor="middle" x="1186.7" y="-147" font-family="Helvetica,sans-Serif" font-size="10.00">/symrec.h</text>
</a>
</g>
</g>
<!-- Node1&#45;&gt;Node18 -->
<g id="edge31" class="edge"><title>Node1&#45;&gt;Node18</title>
<path fill="none" stroke="midnightblue" d="M823.316,-215.578C907.442,-201.786 1050.74,-178.291 1129.92,-165.31"/>
<polygon fill="midnightblue" stroke="midnightblue" points="822.661,-212.139 813.359,-217.211 823.793,-219.047 822.661,-212.139"/>
</g>
<!-- Node21 -->
<g id="node21" class="node"><title>Node21</title>
<g id="a_node21"><a xlink:href="symrec_8cpp.xhtml" target="_top" xlink:title="Implements classes in symrec.h. ">
<polygon fill="white" stroke="black" points="1431.2,-67.5 1431.2,-97.5 1544.2,-97.5 1544.2,-67.5 1431.2,-67.5"/>
<text text-anchor="start" x="1439.2" y="-85.5" font-family="Helvetica,sans-Serif" font-size="10.00">src/gromacs/selection</text>
<text text-anchor="middle" x="1487.7" y="-74.5" font-family="Helvetica,sans-Serif" font-size="10.00">/symrec.cpp</text>
</a>
</g>
</g>
<!-- Node1&#45;&gt;Node21 -->
<g id="edge46" class="edge"><title>Node1&#45;&gt;Node21</title>
<path fill="none" stroke="midnightblue" d="M823.498,-225.464C919.676,-222.682 1102.16,-212.558 1252.7,-176 1330.03,-157.221 1415.84,-118.574 1459.23,-97.6707"/>
<polygon fill="midnightblue" stroke="midnightblue" points="823.235,-221.97 813.334,-225.74 823.425,-228.968 823.235,-221.97"/>
</g>
<!-- Node22 -->
<g id="node22" class="node"><title>Node22</title>
<g id="a_node22"><a xlink:href="selection_8cpp.xhtml" target="_top" xlink:title="Implements classes in selection.h. ">
<polygon fill="white" stroke="black" points="1639.2,-140 1639.2,-170 1752.2,-170 1752.2,-140 1639.2,-140"/>
<text text-anchor="start" x="1647.2" y="-158" font-family="Helvetica,sans-Serif" font-size="10.00">src/gromacs/selection</text>
<text text-anchor="middle" x="1695.7" y="-147" font-family="Helvetica,sans-Serif" font-size="10.00">/selection.cpp</text>
</a>
</g>
</g>
<!-- Node1&#45;&gt;Node22 -->
<g id="edge39" class="edge"><title>Node1&#45;&gt;Node22</title>
<path fill="none" stroke="midnightblue" d="M823.615,-224.481C999.312,-218.881 1470.81,-201.838 1624.7,-176 1633.42,-174.537 1642.59,-172.41 1651.34,-170.082"/>
<polygon fill="midnightblue" stroke="midnightblue" points="823.356,-220.988 813.472,-224.802 823.578,-227.984 823.356,-220.988"/>
</g>
<!-- Node23 -->
<g id="node23" class="node"><title>Node23</title>
<g id="a_node23"><a xlink:href="sm__insolidangle_8cpp.xhtml" target="_top" xlink:title="Implements the insolidangle selection method. ">
<polygon fill="white" stroke="black" points="1770.2,-140 1770.2,-170 1883.2,-170 1883.2,-140 1770.2,-140"/>
<text text-anchor="start" x="1778.2" y="-158" font-family="Helvetica,sans-Serif" font-size="10.00">src/gromacs/selection</text>
<text text-anchor="middle" x="1826.7" y="-147" font-family="Helvetica,sans-Serif" font-size="10.00">/sm_insolidangle.cpp</text>
</a>
</g>
</g>
<!-- Node1&#45;&gt;Node23 -->
<g id="edge42" class="edge"><title>Node1&#45;&gt;Node23</title>
<path fill="none" stroke="midnightblue" d="M823.542,-225.303C1017.92,-221.48 1580.63,-207.894 1761.7,-176 1769.84,-174.566 1778.39,-172.421 1786.51,-170.061"/>
<polygon fill="midnightblue" stroke="midnightblue" points="823.397,-221.805 813.467,-225.499 823.533,-228.804 823.397,-221.805"/>
</g>
<!-- Node2&#45;&gt;Node3 -->
<g id="edge2" class="edge"><title>Node2&#45;&gt;Node3</title>
<path fill="none" stroke="midnightblue" d="M619.495,-131.286C601.656,-102.765 571.587,-54.6884 556.662,-30.8258"/>
<polygon fill="midnightblue" stroke="midnightblue" points="616.552,-133.181 624.822,-139.803 622.487,-129.469 616.552,-133.181"/>
</g>
<!-- Node2&#45;&gt;Node4 -->
<g id="edge3" class="edge"><title>Node2&#45;&gt;Node4</title>
<path fill="none" stroke="midnightblue" d="M646.246,-130.727C652.119,-119.83 658.927,-107.201 664.023,-97.7455"/>
<polygon fill="midnightblue" stroke="midnightblue" points="643.055,-129.27 641.391,-139.733 649.217,-132.591 643.055,-129.27"/>
</g>
<!-- Node5&#45;&gt;Node6 -->
<g id="edge5" class="edge"><title>Node5&#45;&gt;Node6</title>
<path fill="none" stroke="midnightblue" d="M391.729,-133.288C377.838,-121.766 360.918,-107.733 348.587,-97.5049"/>
<polygon fill="midnightblue" stroke="midnightblue" points="389.569,-136.043 399.501,-139.733 394.038,-130.655 389.569,-136.043"/>
</g>
<!-- Node5&#45;&gt;Node7 -->
<g id="edge15" class="edge"><title>Node5&#45;&gt;Node7</title>
<path fill="none" stroke="midnightblue" d="M414.852,-129.593C414.801,-109.679 418.329,-82.4058 435.702,-67 444.481,-59.2145 773.578,-31.8958 908.19,-21.0182"/>
<polygon fill="midnightblue" stroke="midnightblue" points="411.36,-129.896 415.184,-139.777 418.357,-129.668 411.36,-129.896"/>
</g>
<!-- Node5&#45;&gt;Node10 -->
<g id="edge17" class="edge"><title>Node5&#45;&gt;Node10</title>
<path fill="none" stroke="midnightblue" d="M350.122,-143.976C320.357,-136.195 287.209,-122.406 265.702,-98 249.084,-79.1426 246.249,-48.5527 246.158,-30.6993"/>
<polygon fill="midnightblue" stroke="midnightblue" points="349.521,-147.432 360.065,-146.391 351.173,-140.63 349.521,-147.432"/>
</g>
<!-- Node5&#45;&gt;Node12 -->
<g id="edge18" class="edge"><title>Node5&#45;&gt;Node12</title>
<path fill="none" stroke="midnightblue" d="M353.903,-137.003C321.489,-127.286 281.717,-113.871 247.702,-98 205.722,-78.4132 160.565,-48.3557 135.451,-30.7394"/>
<polygon fill="midnightblue" stroke="midnightblue" points="353.13,-140.424 363.712,-139.899 355.112,-133.711 353.13,-140.424"/>
</g>
<!-- Node5&#45;&gt;Node13 -->
<g id="edge13" class="edge"><title>Node5&#45;&gt;Node13</title>
<path fill="none" stroke="midnightblue" d="M349.884,-137.923C298.698,-125.607 228.859,-108.802 180.384,-97.1386"/>
<polygon fill="midnightblue" stroke="midnightblue" points="349.319,-141.387 359.861,-140.323 350.957,-134.581 349.319,-141.387"/>
</g>
<!-- Node5&#45;&gt;Node14 -->
<g id="edge14" class="edge"><title>Node5&#45;&gt;Node14</title>
<path fill="none" stroke="midnightblue" d="M441.674,-133.288C455.565,-121.766 472.485,-107.733 484.816,-97.5049"/>
<polygon fill="midnightblue" stroke="midnightblue" points="439.365,-130.655 433.903,-139.733 443.834,-136.043 439.365,-130.655"/>
</g>
<!-- Node5&#45;&gt;Node15 -->
<g id="edge16" class="edge"><title>Node5&#45;&gt;Node15</title>
<path fill="none" stroke="midnightblue" d="M483.675,-142.89C566.822,-129.098 707.173,-105.816 785.162,-92.8789"/>
<polygon fill="midnightblue" stroke="midnightblue" points="482.87,-139.476 473.578,-144.565 484.016,-146.381 482.87,-139.476"/>
</g>
<!-- Node6&#45;&gt;Node3 -->
<g id="edge6" class="edge"><title>Node6&#45;&gt;Node3</title>
<path fill="none" stroke="midnightblue" d="M387.929,-64.5797C423.011,-54.0225 467.641,-40.5921 500.81,-30.6109"/>
<polygon fill="midnightblue" stroke="midnightblue" points="386.872,-61.2428 378.304,-67.476 388.889,-67.9458 386.872,-61.2428"/>
</g>
<!-- Node6&#45;&gt;Node7 -->
<g id="edge7" class="edge"><title>Node6&#45;&gt;Node7</title>
<path fill="none" stroke="midnightblue" d="M398.783,-67.5942C400.099,-67.3882 401.406,-67.1899 402.702,-67 451.771,-59.8078 774.858,-32.3957 907.755,-21.2525"/>
<polygon fill="midnightblue" stroke="midnightblue" points="397.854,-64.2007 388.569,-69.3032 399.01,-71.1047 397.854,-64.2007"/>
</g>
<!-- Node6&#45;&gt;Node8 -->
<g id="edge8" class="edge"><title>Node6&#45;&gt;Node8</title>
<path fill="none" stroke="midnightblue" d="M398.248,-67.8212C399.746,-67.5419 401.232,-67.2678 402.702,-67 492.744,-50.5954 597.795,-34.327 660.959,-24.8545"/>
<polygon fill="midnightblue" stroke="midnightblue" points="397.409,-64.4179 388.241,-69.7277 398.719,-71.2943 397.409,-64.4179"/>
</g>
<!-- Node9 -->
<g id="node9" class="node"><title>Node9</title>
<g id="a_node9"><a xlink:href="sm__compare_8cpp.xhtml" target="_top" xlink:title="Implements internal selection method for comparison expressions. ">
<polygon fill="white" stroke="black" points="321.202,-0.5 321.202,-30.5 434.202,-30.5 434.202,-0.5 321.202,-0.5"/>
<text text-anchor="start" x="329.202" y="-18.5" font-family="Helvetica,sans-Serif" font-size="10.00">src/gromacs/selection</text>
<text text-anchor="middle" x="377.702" y="-7.5" font-family="Helvetica,sans-Serif" font-size="10.00">/sm_compare.cpp</text>
</a>
</g>
</g>
<!-- Node6&#45;&gt;Node9 -->
<g id="edge9" class="edge"><title>Node6&#45;&gt;Node9</title>
<path fill="none" stroke="midnightblue" d="M347.513,-59.1575C354.221,-49.6788 361.836,-38.9186 367.74,-30.5765"/>
<polygon fill="midnightblue" stroke="midnightblue" points="344.603,-57.2114 341.683,-67.396 350.317,-61.2551 344.603,-57.2114"/>
</g>
<!-- Node6&#45;&gt;Node10 -->
<g id="edge10" class="edge"><title>Node6&#45;&gt;Node10</title>
<path fill="none" stroke="midnightblue" d="M305.113,-61.1677C292.115,-51.2283 276.797,-39.5144 265.109,-30.5765"/>
<polygon fill="midnightblue" stroke="midnightblue" points="303.188,-64.1017 313.258,-67.396 307.44,-58.5412 303.188,-64.1017"/>
</g>
<!-- Node6&#45;&gt;Node11 -->
<g id="edge11" class="edge"><title>Node6&#45;&gt;Node11</title>
<path fill="none" stroke="midnightblue" d="M398.511,-71.3456C410.856,-69.7082 423.652,-68.1697 435.702,-67 604.019,-50.6604 1123.01,-26.7259 1295.96,-19.0018"/>
<polygon fill="midnightblue" stroke="midnightblue" points="397.711,-67.9221 388.274,-72.7382 398.655,-74.8582 397.711,-67.9221"/>
</g>
<!-- Node6&#45;&gt;Node12 -->
<g id="edge12" class="edge"><title>Node6&#45;&gt;Node12</title>
<path fill="none" stroke="midnightblue" d="M275.474,-64.5797C240.392,-54.0225 195.762,-40.5921 162.593,-30.6109"/>
<polygon fill="midnightblue" stroke="midnightblue" points="274.514,-67.9458 285.099,-67.476 276.531,-61.2428 274.514,-67.9458"/>
</g>
<!-- Node16&#45;&gt;Node3 -->
<g id="edge21" class="edge"><title>Node16&#45;&gt;Node3</title>
<path fill="none" stroke="midnightblue" d="M927.891,-124.253C926.955,-105.151 922.312,-81.32 906.702,-67 906.355,-66.6817 705.64,-38.5811 604.52,-24.4413"/>
<polygon fill="midnightblue" stroke="midnightblue" points="924.392,-124.355 928.076,-134.289 931.391,-124.226 924.392,-124.355"/>
</g>
<!-- Node16&#45;&gt;Node4 -->
<g id="edge22" class="edge"><title>Node16&#45;&gt;Node4</title>
<path fill="none" stroke="midnightblue" d="M860.286,-135.638C817.25,-123.74 762.054,-108.48 722.515,-97.5484"/>
<polygon fill="midnightblue" stroke="midnightblue" points="859.538,-139.062 870.109,-138.354 861.403,-132.316 859.538,-139.062"/>
</g>
<!-- Node16&#45;&gt;Node7 -->
<g id="edge23" class="edge"><title>Node16&#45;&gt;Node7</title>
<path fill="none" stroke="midnightblue" d="M934.899,-124.336C942.89,-95.4237 954.697,-52.6994 960.773,-30.7151"/>
<polygon fill="midnightblue" stroke="midnightblue" points="931.436,-123.729 932.146,-134.3 938.183,-125.593 931.436,-123.729"/>
</g>
<!-- Node16&#45;&gt;Node15 -->
<g id="edge24" class="edge"><title>Node16&#45;&gt;Node15</title>
<path fill="none" stroke="midnightblue" d="M895.166,-127.844C882.845,-117.625 869.205,-106.312 858.786,-97.67"/>
<polygon fill="midnightblue" stroke="midnightblue" points="893.093,-130.672 903.024,-134.362 897.562,-125.284 893.093,-130.672"/>
</g>
<!-- Node16&#45;&gt;Node17 -->
<g id="edge25" class="edge"><title>Node16&#45;&gt;Node17</title>
<path fill="none" stroke="midnightblue" d="M970.596,-129.44C989.581,-118.817 1011.12,-106.764 1027.38,-97.67"/>
<polygon fill="midnightblue" stroke="midnightblue" points="968.817,-126.425 961.8,-134.362 972.235,-132.533 968.817,-126.425"/>
</g>
<!-- Node18&#45;&gt;Node7 -->
<g id="edge32" class="edge"><title>Node18&#45;&gt;Node7</title>
<path fill="none" stroke="midnightblue" d="M1218.91,-134.091C1243.91,-116.17 1271.43,-89.3034 1252.7,-67 1223.77,-32.5505 1096.83,-21.5961 1021.48,-18.1165"/>
<polygon fill="midnightblue" stroke="midnightblue" points="1216.85,-131.256 1210.59,-139.806 1220.82,-137.025 1216.85,-131.256"/>
</g>
<!-- Node18&#45;&gt;Node15 -->
<g id="edge33" class="edge"><title>Node18&#45;&gt;Node15</title>
<path fill="none" stroke="midnightblue" d="M1120.07,-140.383C1055.65,-127.219 959.116,-107.493 898.316,-95.069"/>
<polygon fill="midnightblue" stroke="midnightblue" points="1119.62,-143.864 1130.12,-142.437 1121.02,-137.006 1119.62,-143.864"/>
</g>
<!-- Node18&#45;&gt;Node17 -->
<g id="edge34" class="edge"><title>Node18&#45;&gt;Node17</title>
<path fill="none" stroke="midnightblue" d="M1151,-135.215C1128.52,-123.389 1099.98,-108.374 1079.45,-97.5729"/>
<polygon fill="midnightblue" stroke="midnightblue" points="1149.43,-138.344 1159.91,-139.903 1152.69,-132.149 1149.43,-138.344"/>
</g>
<!-- Node19 -->
<g id="node19" class="node"><title>Node19</title>
<g id="a_node19"><a xlink:href="selhelp_8cpp.xhtml" target="_top" xlink:title="Implements functions in selhelp.h. ">
<polygon fill="white" stroke="black" points="1300.2,-67.5 1300.2,-97.5 1413.2,-97.5 1413.2,-67.5 1300.2,-67.5"/>
<text text-anchor="start" x="1308.2" y="-85.5" font-family="Helvetica,sans-Serif" font-size="10.00">src/gromacs/selection</text>
<text text-anchor="middle" x="1356.7" y="-74.5" font-family="Helvetica,sans-Serif" font-size="10.00">/selhelp.cpp</text>
</a>
</g>
</g>
<!-- Node18&#45;&gt;Node19 -->
<g id="edge35" class="edge"><title>Node18&#45;&gt;Node19</title>
<path fill="none" stroke="midnightblue" d="M1230.11,-135.999C1258.9,-124.059 1296.14,-108.614 1322.77,-97.5729"/>
<polygon fill="midnightblue" stroke="midnightblue" points="1228.59,-132.839 1220.7,-139.903 1231.27,-139.305 1228.59,-132.839"/>
</g>
<!-- Node20 -->
<g id="node20" class="node"><title>Node20</title>
<g id="a_node20"><a xlink:href="selmethod_8cpp.xhtml" target="_top" xlink:title="Implements functions in selmethod.h. ">
<polygon fill="white" stroke="black" points="1130.2,-67.5 1130.2,-97.5 1243.2,-97.5 1243.2,-67.5 1130.2,-67.5"/>
<text text-anchor="start" x="1138.2" y="-85.5" font-family="Helvetica,sans-Serif" font-size="10.00">src/gromacs/selection</text>
<text text-anchor="middle" x="1186.7" y="-74.5" font-family="Helvetica,sans-Serif" font-size="10.00">/selmethod.cpp</text>
</a>
</g>
</g>
<!-- Node18&#45;&gt;Node20 -->
<g id="edge36" class="edge"><title>Node18&#45;&gt;Node20</title>
<path fill="none" stroke="midnightblue" d="M1186.7,-129.732C1186.7,-119.068 1186.7,-106.914 1186.7,-97.7455"/>
<polygon fill="midnightblue" stroke="midnightblue" points="1183.2,-129.733 1186.7,-139.733 1190.2,-129.733 1183.2,-129.733"/>
</g>
<!-- Node18&#45;&gt;Node21 -->
<g id="edge37" class="edge"><title>Node18&#45;&gt;Node21</title>
<path fill="none" stroke="midnightblue" d="M1253.36,-138.388C1306.67,-125.9 1380.61,-108.583 1431.08,-96.7608"/>
<polygon fill="midnightblue" stroke="midnightblue" points="1252.26,-135.051 1243.32,-140.739 1253.85,-141.867 1252.26,-135.051"/>
</g>
</g>
</svg>
