<?xml version="1.0" encoding="UTF-8" standalone="no"?>
<!DOCTYPE svg PUBLIC "-//W3C//DTD SVG 1.1//EN"
 "http://www.w3.org/Graphics/SVG/1.1/DTD/svg11.dtd">
<!-- Generated by graphviz version 2.38.0 (20140413.2041)
 -->
<!-- Title: src/gromacs/selection/selmethod.h Pages: 1 -->
<svg width="253pt" height="207pt"
 viewBox="0.00 0.00 253.00 207.00" xmlns="http://www.w3.org/2000/svg" xmlns:xlink="http://www.w3.org/1999/xlink">
<g id="graph0" class="graph" transform="scale(1 1) rotate(0) translate(4 203)">
<title>src/gromacs/selection/selmethod.h</title>
<polygon fill="white" stroke="none" points="-4,4 -4,-203 249,-203 249,4 -4,4"/>
<!-- Node1 -->
<g id="node1" class="node"><title>Node1</title>
<polygon fill="#bfbfbf" stroke="black" points="104,-168.5 104,-198.5 217,-198.5 217,-168.5 104,-168.5"/>
<text text-anchor="start" x="112" y="-186.5" font-family="Helvetica,sans-Serif" font-size="10.00">src/gromacs/selection</text>
<text text-anchor="middle" x="160.5" y="-175.5" font-family="Helvetica,sans-Serif" font-size="10.00">/selmethod.h</text>
</g>
<!-- Node2 -->
<g id="node2" class="node"><title>Node2</title>
<g id="a_node2"><a xlink:href="selparam_8h.xhtml" target="_top" xlink:title="API for handling parameters used in selections. ">
<polygon fill="white" stroke="black" points="98,-112.5 98,-131.5 163,-131.5 163,-112.5 98,-112.5"/>
<text text-anchor="middle" x="130.5" y="-119.5" font-family="Helvetica,sans-Serif" font-size="10.00">selparam.h</text>
</a>
</g>
</g>
<!-- Node1&#45;&gt;Node2 -->
<g id="edge1" class="edge"><title>Node1&#45;&gt;Node2</title>
<path fill="none" stroke="midnightblue" d="M153.39,-168.399C149.211,-160.11 143.889,-149.554 139.428,-140.708"/>
<polygon fill="midnightblue" stroke="midnightblue" points="142.493,-139.011 134.865,-131.658 136.242,-142.163 142.493,-139.011"/>
</g>
<!-- Node6 -->
<g id="node6" class="node"><title>Node6</title>
<g id="a_node6"><a xlink:href="selvalue_8h.xhtml" target="_top" xlink:title="Declares gmx_ana_selvalue_t. ">
<polygon fill="white" stroke="black" points="161,-56.5 161,-75.5 222,-75.5 222,-56.5 161,-56.5"/>
<text text-anchor="middle" x="191.5" y="-63.5" font-family="Helvetica,sans-Serif" font-size="10.00">selvalue.h</text>
</a>
</g>
</g>
<!-- Node1&#45;&gt;Node6 -->
<g id="edge7" class="edge"><title>Node1&#45;&gt;Node6</title>
<path fill="none" stroke="midnightblue" d="M164.301,-168.337C169.887,-147.527 180.318,-108.663 186.512,-85.5834"/>
<polygon fill="midnightblue" stroke="midnightblue" points="189.961,-86.2349 189.173,-75.6695 183.2,-84.4203 189.961,-86.2349"/>
</g>
<!-- Node3 -->
<g id="node3" class="node"><title>Node3</title>
<g id="a_node3"><a xlink:href="indexutil_8h.xhtml" target="_top" xlink:title="API for handling index files and index groups. ">
<polygon fill="white" stroke="black" points="0,-56.5 0,-75.5 143,-75.5 143,-56.5 0,-56.5"/>
<text text-anchor="middle" x="71.5" y="-63.5" font-family="Helvetica,sans-Serif" font-size="10.00">gromacs/selection/indexutil.h</text>
</a>
</g>
</g>
<!-- Node2&#45;&gt;Node3 -->
<g id="edge2" class="edge"><title>Node2&#45;&gt;Node3</title>
<path fill="none" stroke="midnightblue" d="M121.021,-112.324C112.299,-104.341 99.1565,-92.3128 88.6022,-82.6529"/>
<polygon fill="midnightblue" stroke="midnightblue" points="90.8917,-80.0036 81.1519,-75.8339 86.1655,-85.1674 90.8917,-80.0036"/>
</g>
<!-- Node2&#45;&gt;Node6 -->
<g id="edge5" class="edge"><title>Node2&#45;&gt;Node6</title>
<path fill="none" stroke="midnightblue" d="M140.301,-112.324C149.318,-104.341 162.906,-92.3128 173.818,-82.6529"/>
<polygon fill="midnightblue" stroke="midnightblue" points="176.353,-85.083 181.521,-75.8339 171.713,-79.8416 176.353,-85.083"/>
</g>
<!-- Node4 -->
<g id="node4" class="node"><title>Node4</title>
<polygon fill="white" stroke="#bfbfbf" points="4,-0.5 4,-19.5 47,-19.5 47,-0.5 4,-0.5"/>
<text text-anchor="middle" x="25.5" y="-7.5" font-family="Helvetica,sans-Serif" font-size="10.00">cstdio</text>
</g>
<!-- Node3&#45;&gt;Node4 -->
<g id="edge3" class="edge"><title>Node3&#45;&gt;Node4</title>
<path fill="none" stroke="midnightblue" d="M63.904,-56.083C57.2725,-48.2982 47.479,-36.8015 39.4419,-27.3665"/>
<polygon fill="midnightblue" stroke="midnightblue" points="42.1037,-25.0939 32.9546,-19.7511 36.775,-29.6332 42.1037,-25.0939"/>
</g>
<!-- Node5 -->
<g id="node5" class="node"><title>Node5</title>
<polygon fill="white" stroke="#bfbfbf" points="65,-0.5 65,-19.5 106,-19.5 106,-0.5 65,-0.5"/>
<text text-anchor="middle" x="85.5" y="-7.5" font-family="Helvetica,sans-Serif" font-size="10.00">string</text>
</g>
<!-- Node3&#45;&gt;Node5 -->
<g id="edge4" class="edge"><title>Node3&#45;&gt;Node5</title>
<path fill="none" stroke="midnightblue" d="M73.8118,-56.083C75.667,-48.9272 78.3353,-38.6353 80.6542,-29.6911"/>
<polygon fill="midnightblue" stroke="midnightblue" points="84.1095,-30.3094 83.2312,-19.7511 77.3335,-28.5527 84.1095,-30.3094"/>
</g>
<!-- Node7 -->
<g id="node7" class="node"><title>Node7</title>
<g id="a_node7"><a xlink:href="real_8h.xhtml" target="_top" xlink:title="Declares real and related constants. ">
<polygon fill="white" stroke="black" points="138,-0.5 138,-19.5 245,-19.5 245,-0.5 138,-0.5"/>
<text text-anchor="middle" x="191.5" y="-7.5" font-family="Helvetica,sans-Serif" font-size="10.00">gromacs/utility/real.h</text>
</a>
</g>
</g>
<!-- Node6&#45;&gt;Node7 -->
<g id="edge6" class="edge"><title>Node6&#45;&gt;Node7</title>
<path fill="none" stroke="midnightblue" d="M191.5,-56.083C191.5,-49.0059 191.5,-38.8611 191.5,-29.9865"/>
<polygon fill="midnightblue" stroke="midnightblue" points="195,-29.751 191.5,-19.7511 188,-29.7511 195,-29.751"/>
</g>
</g>
</svg>
