<?xml version="1.0" encoding="UTF-8" standalone="no"?>
<!DOCTYPE svg PUBLIC "-//W3C//DTD SVG 1.1//EN"
 "http://www.w3.org/Graphics/SVG/1.1/DTD/svg11.dtd">
<!-- Generated by graphviz version 2.38.0 (20140413.2041)
 -->
<!-- Title: src/gromacs/selection/selparam.h Pages: 1 -->
<svg width="2354pt" height="173pt"
 viewBox="0.00 0.00 2354.00 173.00" xmlns="http://www.w3.org/2000/svg" xmlns:xlink="http://www.w3.org/1999/xlink">
<g id="graph0" class="graph" transform="scale(1 1) rotate(0) translate(4 169)">
<title>src/gromacs/selection/selparam.h</title>
<polygon fill="white" stroke="none" points="-4,4 -4,-169 2350,-169 2350,4 -4,4"/>
<!-- Node1 -->
<g id="node1" class="node"><title>Node1</title>
<polygon fill="#bfbfbf" stroke="black" points="769,-134.5 769,-164.5 882,-164.5 882,-134.5 769,-134.5"/>
<text text-anchor="start" x="777" y="-152.5" font-family="Helvetica,sans-Serif" font-size="10.00">src/gromacs/selection</text>
<text text-anchor="middle" x="825.5" y="-141.5" font-family="Helvetica,sans-Serif" font-size="10.00">/selparam.h</text>
</g>
<!-- Node2 -->
<g id="node2" class="node"><title>Node2</title>
<g id="a_node2"><a xlink:href="selmethod_8h.xhtml" target="_top" xlink:title="API for handling selection methods. ">
<polygon fill="white" stroke="black" points="1054,-67.5 1054,-97.5 1167,-97.5 1167,-67.5 1054,-67.5"/>
<text text-anchor="start" x="1062" y="-85.5" font-family="Helvetica,sans-Serif" font-size="10.00">src/gromacs/selection</text>
<text text-anchor="middle" x="1110.5" y="-74.5" font-family="Helvetica,sans-Serif" font-size="10.00">/selmethod.h</text>
</a>
</g>
</g>
<!-- Node1&#45;&gt;Node2 -->
<g id="edge1" class="edge"><title>Node1&#45;&gt;Node2</title>
<path fill="none" stroke="midnightblue" d="M892.05,-133.322C941.194,-122.114 1007.37,-107.022 1053.96,-96.3952"/>
<polygon fill="midnightblue" stroke="midnightblue" points="891.119,-129.944 882.148,-135.58 892.676,-136.769 891.119,-129.944"/>
</g>
<!-- Node5 -->
<g id="node5" class="node"><title>Node5</title>
<g id="a_node5"><a xlink:href="params_8cpp.xhtml" target="_top" xlink:title="Implements functions in selparam.h. ">
<polygon fill="white" stroke="black" points="0,-0.5 0,-30.5 113,-30.5 113,-0.5 0,-0.5"/>
<text text-anchor="start" x="8" y="-18.5" font-family="Helvetica,sans-Serif" font-size="10.00">src/gromacs/selection</text>
<text text-anchor="middle" x="56.5" y="-7.5" font-family="Helvetica,sans-Serif" font-size="10.00">/params.cpp</text>
</a>
</g>
</g>
<!-- Node1&#45;&gt;Node5 -->
<g id="edge20" class="edge"><title>Node1&#45;&gt;Node5</title>
<path fill="none" stroke="midnightblue" d="M758.528,-138.558C633.136,-119.669 354.551,-76.4082 121.5,-31 118.776,-30.4693 115.992,-29.9107 113.182,-29.334"/>
<polygon fill="midnightblue" stroke="midnightblue" points="758.326,-142.067 768.736,-140.093 759.367,-135.145 758.326,-142.067"/>
</g>
<!-- Node3 -->
<g id="node3" class="node"><title>Node3</title>
<g id="a_node3"><a xlink:href="compiler_8cpp.xhtml" target="_top" xlink:title="Selection compilation and optimization. ">
<polygon fill="white" stroke="black" points="131,-0.5 131,-30.5 244,-30.5 244,-0.5 131,-0.5"/>
<text text-anchor="start" x="139" y="-18.5" font-family="Helvetica,sans-Serif" font-size="10.00">src/gromacs/selection</text>
<text text-anchor="middle" x="187.5" y="-7.5" font-family="Helvetica,sans-Serif" font-size="10.00">/compiler.cpp</text>
</a>
</g>
</g>
<!-- Node2&#45;&gt;Node3 -->
<g id="edge2" class="edge"><title>Node2&#45;&gt;Node3</title>
<path fill="none" stroke="midnightblue" d="M1043.74,-81.1324C899.046,-79.5556 545.994,-71.4912 253.5,-31 250.479,-30.5817 247.39,-30.0989 244.279,-29.5688"/>
<polygon fill="midnightblue" stroke="midnightblue" points="1043.76,-84.6327 1053.79,-81.2351 1043.83,-77.6331 1043.76,-84.6327"/>
</g>
<!-- Node4 -->
<g id="node4" class="node"><title>Node4</title>
<g id="a_node4"><a xlink:href="evaluate_8cpp.xhtml" target="_top" xlink:title="Implements functions in evaluate.h. ">
<polygon fill="white" stroke="black" points="262,-0.5 262,-30.5 375,-30.5 375,-0.5 262,-0.5"/>
<text text-anchor="start" x="270" y="-18.5" font-family="Helvetica,sans-Serif" font-size="10.00">src/gromacs/selection</text>
<text text-anchor="middle" x="318.5" y="-7.5" font-family="Helvetica,sans-Serif" font-size="10.00">/evaluate.cpp</text>
</a>
</g>
</g>
<!-- Node2&#45;&gt;Node4 -->
<g id="edge3" class="edge"><title>Node2&#45;&gt;Node4</title>
<path fill="none" stroke="midnightblue" d="M1043.65,-80.1261C915.273,-76.7645 625.588,-65.6767 384.5,-31 381.481,-30.5657 378.394,-30.0701 375.285,-29.5301"/>
<polygon fill="midnightblue" stroke="midnightblue" points="1043.63,-83.6268 1053.72,-80.3825 1043.81,-76.629 1043.63,-83.6268"/>
</g>
<!-- Node2&#45;&gt;Node5 -->
<g id="edge4" class="edge"><title>Node2&#45;&gt;Node5</title>
<path fill="none" stroke="midnightblue" d="M1043.53,-79.5531C851.351,-73.7316 300.382,-55.3425 121.5,-31 118.75,-30.6258 115.945,-30.1944 113.119,-29.7197"/>
<polygon fill="midnightblue" stroke="midnightblue" points="1043.67,-83.0587 1053.77,-79.8616 1043.88,-76.0619 1043.67,-83.0587"/>
</g>
<!-- Node6 -->
<g id="node6" class="node"><title>Node6</title>
<g id="a_node6"><a xlink:href="parsetree_8cpp.xhtml" target="_top" xlink:title="Implements functions in parsetree.h. ">
<polygon fill="white" stroke="black" points="393,-0.5 393,-30.5 506,-30.5 506,-0.5 393,-0.5"/>
<text text-anchor="start" x="401" y="-18.5" font-family="Helvetica,sans-Serif" font-size="10.00">src/gromacs/selection</text>
<text text-anchor="middle" x="449.5" y="-7.5" font-family="Helvetica,sans-Serif" font-size="10.00">/parsetree.cpp</text>
</a>
</g>
</g>
<!-- Node2&#45;&gt;Node6 -->
<g id="edge5" class="edge"><title>Node2&#45;&gt;Node6</title>
<path fill="none" stroke="midnightblue" d="M1043.6,-78.6956C933.129,-73.4223 705.843,-59.8582 515.5,-31 512.484,-30.5428 509.4,-30.0289 506.293,-29.4745"/>
<polygon fill="midnightblue" stroke="midnightblue" points="1043.45,-82.1922 1053.6,-79.1655 1043.78,-75.1999 1043.45,-82.1922"/>
</g>
<!-- Node7 -->
<g id="node7" class="node"><title>Node7</title>
<g id="a_node7"><a xlink:href="scanner__internal_8cpp.xhtml" target="_top" xlink:title="Helper functions for the selection tokenizer. ">
<polygon fill="white" stroke="black" points="524,-0.5 524,-30.5 637,-30.5 637,-0.5 524,-0.5"/>
<text text-anchor="start" x="532" y="-18.5" font-family="Helvetica,sans-Serif" font-size="10.00">src/gromacs/selection</text>
<text text-anchor="middle" x="580.5" y="-7.5" font-family="Helvetica,sans-Serif" font-size="10.00">/scanner_internal.cpp</text>
</a>
</g>
</g>
<!-- Node2&#45;&gt;Node7 -->
<g id="edge6" class="edge"><title>Node2&#45;&gt;Node7</title>
<path fill="none" stroke="midnightblue" d="M1043.7,-76.5065C953.259,-69.2282 787.022,-54.0142 646.5,-31 643.49,-30.507 640.41,-29.9646 637.307,-29.3879"/>
<polygon fill="midnightblue" stroke="midnightblue" points="1043.56,-80.0068 1053.81,-77.3126 1044.12,-73.0289 1043.56,-80.0068"/>
</g>
<!-- Node8 -->
<g id="node8" class="node"><title>Node8</title>
<g id="a_node8"><a xlink:href="selectioncollection_8cpp.xhtml" target="_top" xlink:title="Implements gmx::SelectionCollection. ">
<polygon fill="white" stroke="black" points="655,-0.5 655,-30.5 774,-30.5 774,-0.5 655,-0.5"/>
<text text-anchor="start" x="663" y="-18.5" font-family="Helvetica,sans-Serif" font-size="10.00">src/gromacs/selection</text>
<text text-anchor="middle" x="714.5" y="-7.5" font-family="Helvetica,sans-Serif" font-size="10.00">/selectioncollection.cpp</text>
</a>
</g>
</g>
<!-- Node2&#45;&gt;Node8 -->
<g id="edge7" class="edge"><title>Node2&#45;&gt;Node8</title>
<path fill="none" stroke="midnightblue" d="M1043.63,-72.25C977.418,-62.837 873.22,-47.3427 783.5,-31 780.489,-30.4516 777.409,-29.872 774.3,-29.2726"/>
<polygon fill="midnightblue" stroke="midnightblue" points="1043.53,-75.7709 1053.93,-73.7078 1044.52,-68.84 1043.53,-75.7709"/>
</g>
<!-- Node9 -->
<g id="node9" class="node"><title>Node9</title>
<g id="a_node9"><a xlink:href="selelem_8cpp.xhtml" target="_top" xlink:title="Implements functions in selelem.h. ">
<polygon fill="white" stroke="black" points="792,-0.5 792,-30.5 905,-30.5 905,-0.5 792,-0.5"/>
<text text-anchor="start" x="800" y="-18.5" font-family="Helvetica,sans-Serif" font-size="10.00">src/gromacs/selection</text>
<text text-anchor="middle" x="848.5" y="-7.5" font-family="Helvetica,sans-Serif" font-size="10.00">/selelem.cpp</text>
</a>
</g>
</g>
<!-- Node2&#45;&gt;Node9 -->
<g id="edge8" class="edge"><title>Node2&#45;&gt;Node9</title>
<path fill="none" stroke="midnightblue" d="M1044.2,-65.0515C1001.37,-54.425 946.212,-40.7414 905.378,-30.6109"/>
<polygon fill="midnightblue" stroke="midnightblue" points="1043.42,-68.465 1053.97,-67.476 1045.11,-61.671 1043.42,-68.465"/>
</g>
<!-- Node10 -->
<g id="node10" class="node"><title>Node10</title>
<g id="a_node10"><a xlink:href="selhelp_8cpp.xhtml" target="_top" xlink:title="Implements functions in selhelp.h. ">
<polygon fill="white" stroke="black" points="923,-0.5 923,-30.5 1036,-30.5 1036,-0.5 923,-0.5"/>
<text text-anchor="start" x="931" y="-18.5" font-family="Helvetica,sans-Serif" font-size="10.00">src/gromacs/selection</text>
<text text-anchor="middle" x="979.5" y="-7.5" font-family="Helvetica,sans-Serif" font-size="10.00">/selhelp.cpp</text>
</a>
</g>
</g>
<!-- Node2&#45;&gt;Node10 -->
<g id="edge9" class="edge"><title>Node2&#45;&gt;Node10</title>
<path fill="none" stroke="midnightblue" d="M1072.92,-62.8533C1052.21,-52.5761 1026.91,-40.0252 1007.87,-30.5765"/>
<polygon fill="midnightblue" stroke="midnightblue" points="1071.56,-66.0864 1082.07,-67.396 1074.67,-59.8159 1071.56,-66.0864"/>
</g>
<!-- Node11 -->
<g id="node11" class="node"><title>Node11</title>
<g id="a_node11"><a xlink:href="selmethod_8cpp.xhtml" target="_top" xlink:title="Implements functions in selmethod.h. ">
<polygon fill="white" stroke="black" points="1054,-0.5 1054,-30.5 1167,-30.5 1167,-0.5 1054,-0.5"/>
<text text-anchor="start" x="1062" y="-18.5" font-family="Helvetica,sans-Serif" font-size="10.00">src/gromacs/selection</text>
<text text-anchor="middle" x="1110.5" y="-7.5" font-family="Helvetica,sans-Serif" font-size="10.00">/selmethod.cpp</text>
</a>
</g>
</g>
<!-- Node2&#45;&gt;Node11 -->
<g id="edge10" class="edge"><title>Node2&#45;&gt;Node11</title>
<path fill="none" stroke="midnightblue" d="M1110.5,-57.1081C1110.5,-48.1539 1110.5,-38.3227 1110.5,-30.5765"/>
<polygon fill="midnightblue" stroke="midnightblue" points="1107,-57.3959 1110.5,-67.396 1114,-57.396 1107,-57.3959"/>
</g>
<!-- Node12 -->
<g id="node12" class="node"><title>Node12</title>
<g id="a_node12"><a xlink:href="sm__compare_8cpp.xhtml" target="_top" xlink:title="Implements internal selection method for comparison expressions. ">
<polygon fill="white" stroke="black" points="1185,-0.5 1185,-30.5 1298,-30.5 1298,-0.5 1185,-0.5"/>
<text text-anchor="start" x="1193" y="-18.5" font-family="Helvetica,sans-Serif" font-size="10.00">src/gromacs/selection</text>
<text text-anchor="middle" x="1241.5" y="-7.5" font-family="Helvetica,sans-Serif" font-size="10.00">/sm_compare.cpp</text>
</a>
</g>
</g>
<!-- Node2&#45;&gt;Node12 -->
<g id="edge11" class="edge"><title>Node2&#45;&gt;Node12</title>
<path fill="none" stroke="midnightblue" d="M1148.08,-62.8533C1168.79,-52.5761 1194.09,-40.0252 1213.13,-30.5765"/>
<polygon fill="midnightblue" stroke="midnightblue" points="1146.33,-59.8159 1138.93,-67.396 1149.44,-66.0864 1146.33,-59.8159"/>
</g>
<!-- Node13 -->
<g id="node13" class="node"><title>Node13</title>
<g id="a_node13"><a xlink:href="sm__distance_8cpp.xhtml" target="_top" xlink:title="Implements distance&#45;based selection methods. ">
<polygon fill="white" stroke="black" points="1316,-0.5 1316,-30.5 1429,-30.5 1429,-0.5 1316,-0.5"/>
<text text-anchor="start" x="1324" y="-18.5" font-family="Helvetica,sans-Serif" font-size="10.00">src/gromacs/selection</text>
<text text-anchor="middle" x="1372.5" y="-7.5" font-family="Helvetica,sans-Serif" font-size="10.00">/sm_distance.cpp</text>
</a>
</g>
</g>
<!-- Node2&#45;&gt;Node13 -->
<g id="edge12" class="edge"><title>Node2&#45;&gt;Node13</title>
<path fill="none" stroke="midnightblue" d="M1176.8,-65.0515C1219.63,-54.425 1274.79,-40.7414 1315.62,-30.6109"/>
<polygon fill="midnightblue" stroke="midnightblue" points="1175.89,-61.671 1167.03,-67.476 1177.58,-68.465 1175.89,-61.671"/>
</g>
<!-- Node14 -->
<g id="node14" class="node"><title>Node14</title>
<g id="a_node14"><a xlink:href="sm__insolidangle_8cpp.xhtml" target="_top" xlink:title="Implements the insolidangle selection method. ">
<polygon fill="white" stroke="black" points="1447,-0.5 1447,-30.5 1560,-30.5 1560,-0.5 1447,-0.5"/>
<text text-anchor="start" x="1455" y="-18.5" font-family="Helvetica,sans-Serif" font-size="10.00">src/gromacs/selection</text>
<text text-anchor="middle" x="1503.5" y="-7.5" font-family="Helvetica,sans-Serif" font-size="10.00">/sm_insolidangle.cpp</text>
</a>
</g>
</g>
<!-- Node2&#45;&gt;Node14 -->
<g id="edge13" class="edge"><title>Node2&#45;&gt;Node14</title>
<path fill="none" stroke="midnightblue" d="M1177.21,-72.5595C1243.64,-63.3435 1348.43,-47.9611 1438.5,-31 1441.23,-30.4865 1444.01,-29.9418 1446.83,-29.3764"/>
<polygon fill="midnightblue" stroke="midnightblue" points="1176.71,-69.0943 1167.29,-73.9294 1177.67,-76.0285 1176.71,-69.0943"/>
</g>
<!-- Node15 -->
<g id="node15" class="node"><title>Node15</title>
<g id="a_node15"><a xlink:href="sm__keywords_8cpp.xhtml" target="_top" xlink:title="Implements internal selection methods for numeric and string keyword evaluation. ">
<polygon fill="white" stroke="black" points="1578,-0.5 1578,-30.5 1691,-30.5 1691,-0.5 1578,-0.5"/>
<text text-anchor="start" x="1586" y="-18.5" font-family="Helvetica,sans-Serif" font-size="10.00">src/gromacs/selection</text>
<text text-anchor="middle" x="1634.5" y="-7.5" font-family="Helvetica,sans-Serif" font-size="10.00">/sm_keywords.cpp</text>
</a>
</g>
</g>
<!-- Node2&#45;&gt;Node15 -->
<g id="edge14" class="edge"><title>Node2&#45;&gt;Node15</title>
<path fill="none" stroke="midnightblue" d="M1177.33,-76.4644C1266.97,-69.1827 1430.91,-54.0113 1569.5,-31 1572.24,-30.5455 1575.03,-30.0488 1577.85,-29.5217"/>
<polygon fill="midnightblue" stroke="midnightblue" points="1176.99,-72.9803 1167.3,-77.2711 1177.55,-79.9578 1176.99,-72.9803"/>
</g>
<!-- Node16 -->
<g id="node16" class="node"><title>Node16</title>
<g id="a_node16"><a xlink:href="sm__merge_8cpp.xhtml" target="_top" xlink:title="Implements the merge and plus selection modifiers. ">
<polygon fill="white" stroke="black" points="1709,-0.5 1709,-30.5 1822,-30.5 1822,-0.5 1709,-0.5"/>
<text text-anchor="start" x="1717" y="-18.5" font-family="Helvetica,sans-Serif" font-size="10.00">src/gromacs/selection</text>
<text text-anchor="middle" x="1765.5" y="-7.5" font-family="Helvetica,sans-Serif" font-size="10.00">/sm_merge.cpp</text>
</a>
</g>
</g>
<!-- Node2&#45;&gt;Node16 -->
<g id="edge15" class="edge"><title>Node2&#45;&gt;Node16</title>
<path fill="none" stroke="midnightblue" d="M1177.61,-78.6888C1287.45,-73.4316 1512.24,-59.9219 1700.5,-31 1703.24,-30.5786 1706.04,-30.1089 1708.86,-29.6034"/>
<polygon fill="midnightblue" stroke="midnightblue" points="1177.17,-75.2056 1167.34,-79.172 1177.5,-82.1979 1177.17,-75.2056"/>
</g>
<!-- Node17 -->
<g id="node17" class="node"><title>Node17</title>
<g id="a_node17"><a xlink:href="sm__permute_8cpp.xhtml" target="_top" xlink:title="Implements the permute selection modifier. ">
<polygon fill="white" stroke="black" points="1840,-0.5 1840,-30.5 1953,-30.5 1953,-0.5 1840,-0.5"/>
<text text-anchor="start" x="1848" y="-18.5" font-family="Helvetica,sans-Serif" font-size="10.00">src/gromacs/selection</text>
<text text-anchor="middle" x="1896.5" y="-7.5" font-family="Helvetica,sans-Serif" font-size="10.00">/sm_permute.cpp</text>
</a>
</g>
</g>
<!-- Node2&#45;&gt;Node17 -->
<g id="edge16" class="edge"><title>Node2&#45;&gt;Node17</title>
<path fill="none" stroke="midnightblue" d="M1177.39,-80.1512C1305.14,-76.8383 1592.43,-65.8381 1831.5,-31 1834.25,-30.5999 1837.05,-30.1473 1839.87,-29.6557"/>
<polygon fill="midnightblue" stroke="midnightblue" points="1177.27,-76.6529 1167.36,-80.4038 1177.45,-83.6507 1177.27,-76.6529"/>
</g>
<!-- Node18 -->
<g id="node18" class="node"><title>Node18</title>
<g id="a_node18"><a xlink:href="sm__position_8cpp.xhtml" target="_top" xlink:title="Implements position evaluation selection methods. ">
<polygon fill="white" stroke="black" points="1971,-0.5 1971,-30.5 2084,-30.5 2084,-0.5 1971,-0.5"/>
<text text-anchor="start" x="1979" y="-18.5" font-family="Helvetica,sans-Serif" font-size="10.00">src/gromacs/selection</text>
<text text-anchor="middle" x="2027.5" y="-7.5" font-family="Helvetica,sans-Serif" font-size="10.00">/sm_position.cpp</text>
</a>
</g>
</g>
<!-- Node2&#45;&gt;Node18 -->
<g id="edge17" class="edge"><title>Node2&#45;&gt;Node18</title>
<path fill="none" stroke="midnightblue" d="M1177.15,-81.1731C1321.18,-79.6739 1671.96,-71.7492 1962.5,-31 1965.25,-30.6146 1968.05,-30.174 1970.88,-29.692"/>
<polygon fill="midnightblue" stroke="midnightblue" points="1177.1,-77.6732 1167.14,-81.2703 1177.17,-84.6729 1177.1,-77.6732"/>
</g>
<!-- Node19 -->
<g id="node19" class="node"><title>Node19</title>
<g id="a_node19"><a xlink:href="sm__same_8cpp.xhtml" target="_top" xlink:title="Implements the same selection method. ">
<polygon fill="white" stroke="black" points="2102,-0.5 2102,-30.5 2215,-30.5 2215,-0.5 2102,-0.5"/>
<text text-anchor="start" x="2110" y="-18.5" font-family="Helvetica,sans-Serif" font-size="10.00">src/gromacs/selection</text>
<text text-anchor="middle" x="2158.5" y="-7.5" font-family="Helvetica,sans-Serif" font-size="10.00">/sm_same.cpp</text>
</a>
</g>
</g>
<!-- Node2&#45;&gt;Node19 -->
<g id="edge18" class="edge"><title>Node2&#45;&gt;Node19</title>
<path fill="none" stroke="midnightblue" d="M1177.17,-81.9266C1336.41,-82.1089 1751.16,-77.6405 2093.5,-31 2096.25,-30.6254 2099.05,-30.1936 2101.88,-29.7186"/>
<polygon fill="midnightblue" stroke="midnightblue" points="1177.06,-78.4264 1167.05,-81.9082 1177.05,-85.4264 1177.06,-78.4264"/>
</g>
<!-- Node20 -->
<g id="node20" class="node"><title>Node20</title>
<g id="a_node20"><a xlink:href="sm__simple_8cpp.xhtml" target="_top" xlink:title="Implements simple keyword selection methods. ">
<polygon fill="white" stroke="black" points="2233,-0.5 2233,-30.5 2346,-30.5 2346,-0.5 2233,-0.5"/>
<text text-anchor="start" x="2241" y="-18.5" font-family="Helvetica,sans-Serif" font-size="10.00">src/gromacs/selection</text>
<text text-anchor="middle" x="2289.5" y="-7.5" font-family="Helvetica,sans-Serif" font-size="10.00">/sm_simple.cpp</text>
</a>
</g>
</g>
<!-- Node2&#45;&gt;Node20 -->
<g id="edge19" class="edge"><title>Node2&#45;&gt;Node20</title>
<path fill="none" stroke="midnightblue" d="M1177.21,-80.0015C1385.21,-75.0884 2020.21,-58.2056 2224.5,-31 2227.25,-30.6337 2230.06,-30.2086 2232.88,-29.739"/>
<polygon fill="midnightblue" stroke="midnightblue" points="1176.96,-76.5063 1167.04,-80.2401 1177.12,-83.5044 1176.96,-76.5063"/>
</g>
</g>
</svg>
