<?xml version="1.0" encoding="UTF-8" standalone="no"?>
<!DOCTYPE svg PUBLIC "-//W3C//DTD SVG 1.1//EN"
 "http://www.w3.org/Graphics/SVG/1.1/DTD/svg11.dtd">
<!-- Generated by graphviz version 2.38.0 (20140413.2041)
 -->
<!-- Title: src/gromacs/selection/selvalue.cpp Pages: 1 -->
<svg width="719pt" height="218pt"
 viewBox="0.00 0.00 718.50 218.00" xmlns="http://www.w3.org/2000/svg" xmlns:xlink="http://www.w3.org/1999/xlink">
<g id="graph0" class="graph" transform="scale(1 1) rotate(0) translate(4 214)">
<title>src/gromacs/selection/selvalue.cpp</title>
<polygon fill="white" stroke="none" points="-4,4 -4,-214 714.5,-214 714.5,4 -4,4"/>
<!-- Node1 -->
<g id="node1" class="node"><title>Node1</title>
<polygon fill="#bfbfbf" stroke="black" points="157,-179.5 157,-209.5 270,-209.5 270,-179.5 157,-179.5"/>
<text text-anchor="start" x="165" y="-197.5" font-family="Helvetica,sans-Serif" font-size="10.00">src/gromacs/selection</text>
<text text-anchor="middle" x="213.5" y="-186.5" font-family="Helvetica,sans-Serif" font-size="10.00">/selvalue.cpp</text>
</g>
<!-- Node2 -->
<g id="node2" class="node"><title>Node2</title>
<g id="a_node2"><a xlink:href="gmxpre_8h.xhtml" target="_top" xlink:title="Prerequisite header file for GROMACS build. ">
<polygon fill="white" stroke="black" points="0,-123.5 0,-142.5 57,-142.5 57,-123.5 0,-123.5"/>
<text text-anchor="middle" x="28.5" y="-130.5" font-family="Helvetica,sans-Serif" font-size="10.00">gmxpre.h</text>
</a>
</g>
</g>
<!-- Node1&#45;&gt;Node2 -->
<g id="edge1" class="edge"><title>Node1&#45;&gt;Node2</title>
<path fill="none" stroke="midnightblue" d="M169.658,-179.399C137.69,-169.118 94.8843,-155.351 64.8217,-145.682"/>
<polygon fill="midnightblue" stroke="midnightblue" points="65.7405,-142.301 55.1491,-142.571 63.5972,-148.965 65.7405,-142.301"/>
</g>
<!-- Node3 -->
<g id="node3" class="node"><title>Node3</title>
<g id="a_node3"><a xlink:href="selvalue_8h.xhtml" target="_top" xlink:title="Declares gmx_ana_selvalue_t. ">
<polygon fill="white" stroke="black" points="75,-123.5 75,-142.5 136,-142.5 136,-123.5 75,-123.5"/>
<text text-anchor="middle" x="105.5" y="-130.5" font-family="Helvetica,sans-Serif" font-size="10.00">selvalue.h</text>
</a>
</g>
</g>
<!-- Node1&#45;&gt;Node3 -->
<g id="edge2" class="edge"><title>Node1&#45;&gt;Node3</title>
<path fill="none" stroke="midnightblue" d="M187.906,-179.399C170.432,-169.773 147.412,-157.09 130.144,-147.577"/>
<polygon fill="midnightblue" stroke="midnightblue" points="131.663,-144.418 121.215,-142.658 128.285,-150.549 131.663,-144.418"/>
</g>
<!-- Node5 -->
<g id="node5" class="node"><title>Node5</title>
<g id="a_node5"><a xlink:href="indexutil_8h.xhtml" target="_top" xlink:title="API for handling index files and index groups. ">
<polygon fill="white" stroke="black" points="184,-62 184,-81 327,-81 327,-62 184,-62"/>
<text text-anchor="middle" x="255.5" y="-69" font-family="Helvetica,sans-Serif" font-size="10.00">gromacs/selection/indexutil.h</text>
</a>
</g>
</g>
<!-- Node1&#45;&gt;Node5 -->
<g id="edge4" class="edge"><title>Node1&#45;&gt;Node5</title>
<path fill="none" stroke="midnightblue" d="M200.09,-179.429C188.032,-164.986 173.619,-142 183.5,-123 192.192,-106.286 209.232,-93.9517 224.554,-85.6585"/>
<polygon fill="midnightblue" stroke="midnightblue" points="226.422,-88.6363 233.781,-81.014 223.275,-82.3837 226.422,-88.6363"/>
</g>
<!-- Node8 -->
<g id="node8" class="node"><title>Node8</title>
<g id="a_node8"><a xlink:href="position_8h.xhtml" target="_top" xlink:title="API for handling positions. ">
<polygon fill="white" stroke="black" points="193,-123.5 193,-142.5 334,-142.5 334,-123.5 193,-123.5"/>
<text text-anchor="middle" x="263.5" y="-130.5" font-family="Helvetica,sans-Serif" font-size="10.00">gromacs/selection/position.h</text>
</a>
</g>
</g>
<!-- Node1&#45;&gt;Node8 -->
<g id="edge7" class="edge"><title>Node1&#45;&gt;Node8</title>
<path fill="none" stroke="midnightblue" d="M225.349,-179.399C232.615,-170.753 241.952,-159.642 249.571,-150.576"/>
<polygon fill="midnightblue" stroke="midnightblue" points="252.471,-152.565 256.225,-142.658 247.112,-148.062 252.471,-152.565"/>
</g>
<!-- Node9 -->
<g id="node9" class="node"><title>Node9</title>
<g id="a_node9"><a xlink:href="gmxassert_8h.xhtml" target="_top" xlink:title="Defines assert macros customized for Gromacs. ">
<polygon fill="white" stroke="black" points="352,-123.5 352,-142.5 489,-142.5 489,-123.5 352,-123.5"/>
<text text-anchor="middle" x="420.5" y="-130.5" font-family="Helvetica,sans-Serif" font-size="10.00">gromacs/utility/gmxassert.h</text>
</a>
</g>
</g>
<!-- Node1&#45;&gt;Node9 -->
<g id="edge9" class="edge"><title>Node1&#45;&gt;Node9</title>
<path fill="none" stroke="midnightblue" d="M262.294,-179.475C298.474,-169.075 347.169,-155.078 380.936,-145.372"/>
<polygon fill="midnightblue" stroke="midnightblue" points="382.262,-148.633 390.906,-142.506 380.329,-141.905 382.262,-148.633"/>
</g>
<!-- Node14 -->
<g id="node14" class="node"><title>Node14</title>
<g id="a_node14"><a xlink:href="smalloc_8h.xhtml" target="_top" xlink:title="C memory allocation routines for GROMACS. ">
<polygon fill="white" stroke="black" points="507,-123.5 507,-142.5 632,-142.5 632,-123.5 507,-123.5"/>
<text text-anchor="middle" x="569.5" y="-130.5" font-family="Helvetica,sans-Serif" font-size="10.00">gromacs/utility/smalloc.h</text>
</a>
</g>
</g>
<!-- Node1&#45;&gt;Node14 -->
<g id="edge14" class="edge"><title>Node1&#45;&gt;Node14</title>
<path fill="none" stroke="midnightblue" d="M270.303,-184.006C335.375,-173.13 441.601,-155.376 508.416,-144.209"/>
<polygon fill="midnightblue" stroke="midnightblue" points="509.097,-147.644 518.383,-142.543 507.943,-140.74 509.097,-147.644"/>
</g>
<!-- Node4 -->
<g id="node4" class="node"><title>Node4</title>
<g id="a_node4"><a xlink:href="real_8h.xhtml" target="_top" xlink:title="Declares real and related constants. ">
<polygon fill="white" stroke="black" points="52,-62 52,-81 159,-81 159,-62 52,-62"/>
<text text-anchor="middle" x="105.5" y="-69" font-family="Helvetica,sans-Serif" font-size="10.00">gromacs/utility/real.h</text>
</a>
</g>
</g>
<!-- Node3&#45;&gt;Node4 -->
<g id="edge3" class="edge"><title>Node3&#45;&gt;Node4</title>
<path fill="none" stroke="midnightblue" d="M105.5,-123.475C105.5,-115.08 105.5,-101.981 105.5,-91.1631"/>
<polygon fill="midnightblue" stroke="midnightblue" points="109,-91.0091 105.5,-81.0091 102,-91.0091 109,-91.0091"/>
</g>
<!-- Node6 -->
<g id="node6" class="node"><title>Node6</title>
<polygon fill="white" stroke="#bfbfbf" points="204,-0.5 204,-19.5 247,-19.5 247,-0.5 204,-0.5"/>
<text text-anchor="middle" x="225.5" y="-7.5" font-family="Helvetica,sans-Serif" font-size="10.00">cstdio</text>
</g>
<!-- Node5&#45;&gt;Node6 -->
<g id="edge5" class="edge"><title>Node5&#45;&gt;Node6</title>
<path fill="none" stroke="midnightblue" d="M251.202,-61.9751C246.835,-53.3152 239.945,-39.6486 234.397,-28.6453"/>
<polygon fill="midnightblue" stroke="midnightblue" points="237.418,-26.8625 229.79,-19.5091 231.167,-30.0141 237.418,-26.8625"/>
</g>
<!-- Node7 -->
<g id="node7" class="node"><title>Node7</title>
<polygon fill="white" stroke="#bfbfbf" points="265,-0.5 265,-19.5 306,-19.5 306,-0.5 265,-0.5"/>
<text text-anchor="middle" x="285.5" y="-7.5" font-family="Helvetica,sans-Serif" font-size="10.00">string</text>
</g>
<!-- Node5&#45;&gt;Node7 -->
<g id="edge6" class="edge"><title>Node5&#45;&gt;Node7</title>
<path fill="none" stroke="midnightblue" d="M259.798,-61.9751C264.165,-53.3152 271.055,-39.6486 276.603,-28.6453"/>
<polygon fill="midnightblue" stroke="midnightblue" points="279.833,-30.0141 281.21,-19.5091 273.582,-26.8625 279.833,-30.0141"/>
</g>
<!-- Node8&#45;&gt;Node5 -->
<g id="edge8" class="edge"><title>Node8&#45;&gt;Node5</title>
<path fill="none" stroke="midnightblue" d="M262.354,-123.475C261.225,-115.08 259.464,-101.981 258.009,-91.1631"/>
<polygon fill="midnightblue" stroke="midnightblue" points="261.445,-90.4535 256.644,-81.0091 254.508,-91.3863 261.445,-90.4535"/>
</g>
<!-- Node10 -->
<g id="node10" class="node"><title>Node10</title>
<g id="a_node10"><a xlink:href="basedefinitions_8h.xhtml" target="_top" xlink:title="Basic types and macros used throughout GROMACS. ">
<polygon fill="white" stroke="black" points="483,-62 483,-81 640,-81 640,-62 483,-62"/>
<text text-anchor="middle" x="561.5" y="-69" font-family="Helvetica,sans-Serif" font-size="10.00">gromacs/utility/basedefinitions.h</text>
</a>
</g>
</g>
<!-- Node9&#45;&gt;Node10 -->
<g id="edge10" class="edge"><title>Node9&#45;&gt;Node10</title>
<path fill="none" stroke="midnightblue" d="M440.702,-123.475C464.574,-113.401 504.502,-96.5525 531.873,-85.0023"/>
<polygon fill="midnightblue" stroke="midnightblue" points="533.483,-88.1217 541.336,-81.0091 530.762,-81.6724 533.483,-88.1217"/>
</g>
<!-- Node13 -->
<g id="node13" class="node"><title>Node13</title>
<g id="a_node13"><a xlink:href="current__function_8h.xhtml" target="_top" xlink:title="Declares GMX_CURRENT_FUNCTION for getting the current function name. ">
<polygon fill="white" stroke="black" points="352,-56.5 352,-86.5 465,-86.5 465,-56.5 352,-56.5"/>
<text text-anchor="start" x="360" y="-74.5" font-family="Helvetica,sans-Serif" font-size="10.00">gromacs/utility/current</text>
<text text-anchor="middle" x="408.5" y="-63.5" font-family="Helvetica,sans-Serif" font-size="10.00">_function.h</text>
</a>
</g>
</g>
<!-- Node9&#45;&gt;Node13 -->
<g id="edge13" class="edge"><title>Node9&#45;&gt;Node13</title>
<path fill="none" stroke="midnightblue" d="M418.781,-123.475C417.353,-116.396 415.25,-105.97 413.318,-96.3896"/>
<polygon fill="midnightblue" stroke="midnightblue" points="416.736,-95.6336 411.328,-86.523 409.874,-97.0176 416.736,-95.6336"/>
</g>
<!-- Node11 -->
<g id="node11" class="node"><title>Node11</title>
<polygon fill="white" stroke="#bfbfbf" points="501,-0.5 501,-19.5 550,-19.5 550,-0.5 501,-0.5"/>
<text text-anchor="middle" x="525.5" y="-7.5" font-family="Helvetica,sans-Serif" font-size="10.00">stdint.h</text>
</g>
<!-- Node10&#45;&gt;Node11 -->
<g id="edge11" class="edge"><title>Node10&#45;&gt;Node11</title>
<path fill="none" stroke="midnightblue" d="M556.342,-61.9751C551.049,-53.2268 542.665,-39.3691 535.973,-28.3093"/>
<polygon fill="midnightblue" stroke="midnightblue" points="538.82,-26.2531 530.648,-19.5091 532.83,-29.8768 538.82,-26.2531"/>
</g>
<!-- Node12 -->
<g id="node12" class="node"><title>Node12</title>
<polygon fill="white" stroke="#bfbfbf" points="568,-0.5 568,-19.5 627,-19.5 627,-0.5 568,-0.5"/>
<text text-anchor="middle" x="597.5" y="-7.5" font-family="Helvetica,sans-Serif" font-size="10.00">inttypes.h</text>
</g>
<!-- Node10&#45;&gt;Node12 -->
<g id="edge12" class="edge"><title>Node10&#45;&gt;Node12</title>
<path fill="none" stroke="midnightblue" d="M566.658,-61.9751C571.951,-53.2268 580.335,-39.3691 587.027,-28.3093"/>
<polygon fill="midnightblue" stroke="midnightblue" points="590.17,-29.8768 592.352,-19.5091 584.18,-26.2531 590.17,-29.8768"/>
</g>
<!-- Node14&#45;&gt;Node10 -->
<g id="edge16" class="edge"><title>Node14&#45;&gt;Node10</title>
<path fill="none" stroke="midnightblue" d="M568.354,-123.475C567.225,-115.08 565.464,-101.981 564.009,-91.1631"/>
<polygon fill="midnightblue" stroke="midnightblue" points="567.445,-90.4535 562.644,-81.0091 560.508,-91.3863 567.445,-90.4535"/>
</g>
<!-- Node15 -->
<g id="node15" class="node"><title>Node15</title>
<polygon fill="white" stroke="#bfbfbf" points="658.5,-62 658.5,-81 710.5,-81 710.5,-62 658.5,-62"/>
<text text-anchor="middle" x="684.5" y="-69" font-family="Helvetica,sans-Serif" font-size="10.00">stddef.h</text>
</g>
<!-- Node14&#45;&gt;Node15 -->
<g id="edge15" class="edge"><title>Node14&#45;&gt;Node15</title>
<path fill="none" stroke="midnightblue" d="M585.977,-123.475C605.105,-113.578 636.873,-97.1416 659.152,-85.6151"/>
<polygon fill="midnightblue" stroke="midnightblue" points="660.781,-88.713 668.054,-81.0091 657.564,-82.4958 660.781,-88.713"/>
</g>
</g>
</svg>
