<?xml version="1.0" encoding="UTF-8" standalone="no"?>
<!DOCTYPE svg PUBLIC "-//W3C//DTD SVG 1.1//EN"
 "http://www.w3.org/Graphics/SVG/1.1/DTD/svg11.dtd">
<!-- Generated by graphviz version 2.38.0 (20140413.2041)
 -->
<!-- Title: src/gromacs/selection/selvalue.h Pages: 1 -->
<svg width="2541pt" height="318pt"
 viewBox="0.00 0.00 2540.63 318.00" xmlns="http://www.w3.org/2000/svg" xmlns:xlink="http://www.w3.org/1999/xlink">
<g id="graph0" class="graph" transform="scale(1 1) rotate(0) translate(4 314)">
<title>src/gromacs/selection/selvalue.h</title>
<polygon fill="white" stroke="none" points="-4,4 -4,-314 2536.63,-314 2536.63,4 -4,4"/>
<!-- Node1 -->
<g id="node1" class="node"><title>Node1</title>
<polygon fill="#bfbfbf" stroke="black" points="1353.63,-279.5 1353.63,-309.5 1466.63,-309.5 1466.63,-279.5 1353.63,-279.5"/>
<text text-anchor="start" x="1361.63" y="-297.5" font-family="Helvetica,sans-Serif" font-size="10.00">src/gromacs/selection</text>
<text text-anchor="middle" x="1410.13" y="-286.5" font-family="Helvetica,sans-Serif" font-size="10.00">/selvalue.h</text>
</g>
<!-- Node2 -->
<g id="node2" class="node"><title>Node2</title>
<g id="a_node2"><a xlink:href="selelem_8h.xhtml" target="_top" xlink:title="Declares gmx::SelectionTreeElement and related things. ">
<polygon fill="white" stroke="black" points="777.633,-212.5 777.633,-242.5 890.633,-242.5 890.633,-212.5 777.633,-212.5"/>
<text text-anchor="start" x="785.633" y="-230.5" font-family="Helvetica,sans-Serif" font-size="10.00">src/gromacs/selection</text>
<text text-anchor="middle" x="834.133" y="-219.5" font-family="Helvetica,sans-Serif" font-size="10.00">/selelem.h</text>
</a>
</g>
</g>
<!-- Node1&#45;&gt;Node2 -->
<g id="edge1" class="edge"><title>Node1&#45;&gt;Node2</title>
<path fill="none" stroke="midnightblue" d="M1343.58,-285.99C1229.4,-273.105 998.15,-247.009 891.002,-234.917"/>
<polygon fill="midnightblue" stroke="midnightblue" points="1343.26,-289.476 1353.59,-287.119 1344.05,-282.52 1343.26,-289.476"/>
</g>
<!-- Node6 -->
<g id="node6" class="node"><title>Node6</title>
<g id="a_node6"><a xlink:href="parsetree_8h.xhtml" target="_top" xlink:title="Handling of intermediate selection parser data. ">
<polygon fill="white" stroke="black" points="58.6334,-140 58.6334,-170 171.633,-170 171.633,-140 58.6334,-140"/>
<text text-anchor="start" x="66.6334" y="-158" font-family="Helvetica,sans-Serif" font-size="10.00">src/gromacs/selection</text>
<text text-anchor="middle" x="115.133" y="-147" font-family="Helvetica,sans-Serif" font-size="10.00">/parsetree.h</text>
</a>
</g>
</g>
<!-- Node1&#45;&gt;Node6 -->
<g id="edge48" class="edge"><title>Node1&#45;&gt;Node6</title>
<path fill="none" stroke="midnightblue" d="M1343.37,-292.511C1156.97,-288.601 615.856,-269.405 178.133,-176 170.726,-174.419 162.951,-172.324 155.49,-170.085"/>
<polygon fill="midnightblue" stroke="midnightblue" points="1343.49,-296.014 1353.56,-292.717 1343.64,-289.015 1343.49,-296.014"/>
</g>
<!-- Node23 -->
<g id="node23" class="node"><title>Node23</title>
<g id="a_node23"><a xlink:href="selection_8cpp.xhtml" target="_top" xlink:title="Implements classes in selection.h. ">
<polygon fill="white" stroke="black" points="1311.63,-140 1311.63,-170 1424.63,-170 1424.63,-140 1311.63,-140"/>
<text text-anchor="start" x="1319.63" y="-158" font-family="Helvetica,sans-Serif" font-size="10.00">src/gromacs/selection</text>
<text text-anchor="middle" x="1368.13" y="-147" font-family="Helvetica,sans-Serif" font-size="10.00">/selection.cpp</text>
</a>
</g>
</g>
<!-- Node1&#45;&gt;Node23 -->
<g id="edge71" class="edge"><title>Node1&#45;&gt;Node23</title>
<path fill="none" stroke="midnightblue" d="M1398.21,-270.075C1394.28,-261.689 1390.15,-252.067 1387.13,-243 1378.79,-217.915 1373.11,-187.524 1370.27,-170.108"/>
<polygon fill="midnightblue" stroke="midnightblue" points="1395.14,-271.77 1402.65,-279.244 1401.44,-268.718 1395.14,-271.77"/>
</g>
<!-- Node25 -->
<g id="node25" class="node"><title>Node25</title>
<g id="a_node25"><a xlink:href="selparam_8h.xhtml" target="_top" xlink:title="API for handling parameters used in selections. ">
<polygon fill="white" stroke="black" points="1396.63,-212.5 1396.63,-242.5 1509.63,-242.5 1509.63,-212.5 1396.63,-212.5"/>
<text text-anchor="start" x="1404.63" y="-230.5" font-family="Helvetica,sans-Serif" font-size="10.00">src/gromacs/selection</text>
<text text-anchor="middle" x="1453.13" y="-219.5" font-family="Helvetica,sans-Serif" font-size="10.00">/selparam.h</text>
</a>
</g>
</g>
<!-- Node1&#45;&gt;Node25 -->
<g id="edge49" class="edge"><title>Node1&#45;&gt;Node25</title>
<path fill="none" stroke="midnightblue" d="M1425.11,-270.867C1431.33,-261.459 1438.36,-250.833 1443.82,-242.577"/>
<polygon fill="midnightblue" stroke="midnightblue" points="1422.06,-269.125 1419.46,-279.396 1427.9,-272.987 1422.06,-269.125"/>
</g>
<!-- Node26 -->
<g id="node26" class="node"><title>Node26</title>
<g id="a_node26"><a xlink:href="selmethod_8h.xhtml" target="_top" xlink:title="API for handling selection methods. ">
<polygon fill="white" stroke="black" points="1732.63,-140 1732.63,-170 1845.63,-170 1845.63,-140 1732.63,-140"/>
<text text-anchor="start" x="1740.63" y="-158" font-family="Helvetica,sans-Serif" font-size="10.00">src/gromacs/selection</text>
<text text-anchor="middle" x="1789.13" y="-147" font-family="Helvetica,sans-Serif" font-size="10.00">/selmethod.h</text>
</a>
</g>
</g>
<!-- Node1&#45;&gt;Node26 -->
<g id="edge70" class="edge"><title>Node1&#45;&gt;Node26</title>
<path fill="none" stroke="midnightblue" d="M1455.19,-275.261C1475.05,-266.513 1498.32,-255.269 1518.13,-243 1536.96,-231.342 1537.24,-221.715 1557.13,-212 1613.36,-184.548 1683.97,-169.997 1732.44,-162.68"/>
<polygon fill="midnightblue" stroke="midnightblue" points="1453.53,-272.165 1445.75,-279.349 1456.31,-278.589 1453.53,-272.165"/>
</g>
<!-- Node31 -->
<g id="node31" class="node"><title>Node31</title>
<g id="a_node31"><a xlink:href="selvalue_8cpp.xhtml" target="_top" xlink:title="Implements functions in selvalue.h. ">
<polygon fill="white" stroke="black" points="1566.63,-212.5 1566.63,-242.5 1679.63,-242.5 1679.63,-212.5 1566.63,-212.5"/>
<text text-anchor="start" x="1574.63" y="-230.5" font-family="Helvetica,sans-Serif" font-size="10.00">src/gromacs/selection</text>
<text text-anchor="middle" x="1623.13" y="-219.5" font-family="Helvetica,sans-Serif" font-size="10.00">/selvalue.cpp</text>
</a>
</g>
</g>
<!-- Node1&#45;&gt;Node31 -->
<g id="edge72" class="edge"><title>Node1&#45;&gt;Node31</title>
<path fill="none" stroke="midnightblue" d="M1466.02,-276.444C1500.55,-265.908 1544.33,-252.549 1576.89,-242.611"/>
<polygon fill="midnightblue" stroke="midnightblue" points="1464.63,-273.21 1456.09,-279.476 1466.68,-279.905 1464.63,-273.21"/>
</g>
<!-- Node3 -->
<g id="node3" class="node"><title>Node3</title>
<g id="a_node3"><a xlink:href="evaluate_8h.xhtml" target="_top" xlink:title="Evaluation functions for sel_evalfunc(). ">
<polygon fill="white" stroke="black" points="1065.63,-140 1065.63,-170 1178.63,-170 1178.63,-140 1065.63,-140"/>
<text text-anchor="start" x="1073.63" y="-158" font-family="Helvetica,sans-Serif" font-size="10.00">src/gromacs/selection</text>
<text text-anchor="middle" x="1122.13" y="-147" font-family="Helvetica,sans-Serif" font-size="10.00">/evaluate.h</text>
</a>
</g>
</g>
<!-- Node2&#45;&gt;Node3 -->
<g id="edge2" class="edge"><title>Node2&#45;&gt;Node3</title>
<path fill="none" stroke="midnightblue" d="M900.752,-211.829C943.783,-202.147 1000.91,-188.91 1051.13,-176 1058.33,-174.151 1065.91,-172.113 1073.33,-170.067"/>
<polygon fill="midnightblue" stroke="midnightblue" points="899.954,-208.421 890.963,-214.025 901.486,-215.251 899.954,-208.421"/>
</g>
<!-- Node4 -->
<g id="node4" class="node"><title>Node4</title>
<g id="a_node4"><a xlink:href="compiler_8cpp.xhtml" target="_top" xlink:title="Selection compilation and optimization. ">
<polygon fill="white" stroke="black" points="1150.63,-0.5 1150.63,-30.5 1263.63,-30.5 1263.63,-0.5 1150.63,-0.5"/>
<text text-anchor="start" x="1158.63" y="-18.5" font-family="Helvetica,sans-Serif" font-size="10.00">src/gromacs/selection</text>
<text text-anchor="middle" x="1207.13" y="-7.5" font-family="Helvetica,sans-Serif" font-size="10.00">/compiler.cpp</text>
</a>
</g>
</g>
<!-- Node2&#45;&gt;Node4 -->
<g id="edge27" class="edge"><title>Node2&#45;&gt;Node4</title>
<path fill="none" stroke="midnightblue" d="M901.143,-226.249C992.281,-224.4 1148.43,-215.38 1187.13,-176 1226.06,-136.39 1216.55,-61.9814 1210.39,-30.8098"/>
<polygon fill="midnightblue" stroke="midnightblue" points="900.842,-222.753 890.906,-226.432 900.967,-229.752 900.842,-222.753"/>
</g>
<!-- Node5 -->
<g id="node5" class="node"><title>Node5</title>
<g id="a_node5"><a xlink:href="evaluate_8cpp.xhtml" target="_top" xlink:title="Implements functions in evaluate.h. ">
<polygon fill="white" stroke="black" points="1027.63,-67.5 1027.63,-97.5 1140.63,-97.5 1140.63,-67.5 1027.63,-67.5"/>
<text text-anchor="start" x="1035.63" y="-85.5" font-family="Helvetica,sans-Serif" font-size="10.00">src/gromacs/selection</text>
<text text-anchor="middle" x="1084.13" y="-74.5" font-family="Helvetica,sans-Serif" font-size="10.00">/evaluate.cpp</text>
</a>
</g>
</g>
<!-- Node2&#45;&gt;Node5 -->
<g id="edge28" class="edge"><title>Node2&#45;&gt;Node5</title>
<path fill="none" stroke="midnightblue" d="M900.729,-218.111C936.421,-211.166 979.782,-198.6 1013.13,-176 1043.3,-155.558 1066.15,-118.132 1077.05,-97.712"/>
<polygon fill="midnightblue" stroke="midnightblue" points="900.081,-214.671 890.88,-219.924 901.349,-221.555 900.081,-214.671"/>
</g>
<!-- Node2&#45;&gt;Node6 -->
<g id="edge5" class="edge"><title>Node2&#45;&gt;Node6</title>
<path fill="none" stroke="midnightblue" d="M766.983,-225.606C648.706,-223.071 395.882,-213.34 186.133,-176 177.56,-174.474 168.532,-172.347 159.895,-170.047"/>
<polygon fill="midnightblue" stroke="midnightblue" points="767.251,-229.112 777.32,-225.817 767.393,-222.114 767.251,-229.112"/>
</g>
<!-- Node7 -->
<g id="node7" class="node"><title>Node7</title>
<g id="a_node7"><a xlink:href="keywords_8h.xhtml" target="_top" xlink:title="Definitions of generic keyword evaluation structures. ">
<polygon fill="white" stroke="black" points="342.633,-67.5 342.633,-97.5 455.633,-97.5 455.633,-67.5 342.633,-67.5"/>
<text text-anchor="start" x="350.633" y="-85.5" font-family="Helvetica,sans-Serif" font-size="10.00">src/gromacs/selection</text>
<text text-anchor="middle" x="399.133" y="-74.5" font-family="Helvetica,sans-Serif" font-size="10.00">/keywords.h</text>
</a>
</g>
</g>
<!-- Node2&#45;&gt;Node7 -->
<g id="edge20" class="edge"><title>Node2&#45;&gt;Node7</title>
<path fill="none" stroke="midnightblue" d="M767.289,-224.203C703.638,-220.023 606.234,-208.361 528.133,-176 482.052,-156.906 436.646,-118.572 413.997,-97.7495"/>
<polygon fill="midnightblue" stroke="midnightblue" points="767.401,-227.716 777.597,-224.834 767.829,-220.73 767.401,-227.716"/>
</g>
<!-- Node8 -->
<g id="node8" class="node"><title>Node8</title>
<g id="a_node8"><a xlink:href="parsetree_8cpp.xhtml" target="_top" xlink:title="Implements functions in parsetree.h. ">
<polygon fill="white" stroke="black" points="334.633,-0.5 334.633,-30.5 447.633,-30.5 447.633,-0.5 334.633,-0.5"/>
<text text-anchor="start" x="342.633" y="-18.5" font-family="Helvetica,sans-Serif" font-size="10.00">src/gromacs/selection</text>
<text text-anchor="middle" x="391.133" y="-7.5" font-family="Helvetica,sans-Serif" font-size="10.00">/parsetree.cpp</text>
</a>
</g>
</g>
<!-- Node2&#45;&gt;Node8 -->
<g id="edge31" class="edge"><title>Node2&#45;&gt;Node8</title>
<path fill="none" stroke="midnightblue" d="M767.324,-225.766C689.912,-223.078 559.503,-212.831 454.133,-176 390.527,-153.767 357.331,-156.634 324.133,-98 317.345,-86.0106 317.987,-79.3306 324.133,-67 331.997,-51.2264 347.395,-39.0819 361.448,-30.6598"/>
<polygon fill="midnightblue" stroke="midnightblue" points="767.318,-229.267 777.424,-226.083 767.539,-222.27 767.318,-229.267"/>
</g>
<!-- Node9 -->
<g id="node9" class="node"><title>Node9</title>
<g id="a_node9"><a xlink:href="selelem_8cpp.xhtml" target="_top" xlink:title="Implements functions in selelem.h. ">
<polygon fill="white" stroke="black" points="757.633,-0.5 757.633,-30.5 870.633,-30.5 870.633,-0.5 757.633,-0.5"/>
<text text-anchor="start" x="765.633" y="-18.5" font-family="Helvetica,sans-Serif" font-size="10.00">src/gromacs/selection</text>
<text text-anchor="middle" x="814.133" y="-7.5" font-family="Helvetica,sans-Serif" font-size="10.00">/selelem.cpp</text>
</a>
</g>
</g>
<!-- Node2&#45;&gt;Node9 -->
<g id="edge42" class="edge"><title>Node2&#45;&gt;Node9</title>
<path fill="none" stroke="midnightblue" d="M864.681,-206.56C907.13,-176.32 975.113,-117.08 941.133,-67 932.074,-53.6484 896.798,-40.2305 865.716,-30.5848"/>
<polygon fill="midnightblue" stroke="midnightblue" points="862.521,-203.799 856.313,-212.385 866.52,-209.544 862.521,-203.799"/>
</g>
<!-- Node11 -->
<g id="node11" class="node"><title>Node11</title>
<g id="a_node11"><a xlink:href="sm__keywords_8cpp.xhtml" target="_top" xlink:title="Implements internal selection methods for numeric and string keyword evaluation. ">
<polygon fill="white" stroke="black" points="0.633429,-0.5 0.633429,-30.5 113.633,-30.5 113.633,-0.5 0.633429,-0.5"/>
<text text-anchor="start" x="8.63343" y="-18.5" font-family="Helvetica,sans-Serif" font-size="10.00">src/gromacs/selection</text>
<text text-anchor="middle" x="57.1334" y="-7.5" font-family="Helvetica,sans-Serif" font-size="10.00">/sm_keywords.cpp</text>
</a>
</g>
</g>
<!-- Node2&#45;&gt;Node11 -->
<g id="edge44" class="edge"><title>Node2&#45;&gt;Node11</title>
<path fill="none" stroke="midnightblue" d="M767.562,-225.911C588.958,-223.819 108.661,-214.623 49.1334,-176 5.71367,-147.828 -11.3126,-114.966 8.13343,-67 14.0542,-52.3957 26.4501,-39.6867 37.292,-30.6713"/>
<polygon fill="midnightblue" stroke="midnightblue" points="767.578,-229.412 777.617,-226.025 767.657,-222.412 767.578,-229.412"/>
</g>
<!-- Node12 -->
<g id="node12" class="node"><title>Node12</title>
<g id="a_node12"><a xlink:href="sm__position_8cpp.xhtml" target="_top" xlink:title="Implements position evaluation selection methods. ">
<polygon fill="white" stroke="black" points="888.633,-0.5 888.633,-30.5 1001.63,-30.5 1001.63,-0.5 888.633,-0.5"/>
<text text-anchor="start" x="896.633" y="-18.5" font-family="Helvetica,sans-Serif" font-size="10.00">src/gromacs/selection</text>
<text text-anchor="middle" x="945.133" y="-7.5" font-family="Helvetica,sans-Serif" font-size="10.00">/sm_position.cpp</text>
</a>
</g>
</g>
<!-- Node2&#45;&gt;Node12 -->
<g id="edge45" class="edge"><title>Node2&#45;&gt;Node12</title>
<path fill="none" stroke="midnightblue" d="M888.99,-208.161C905.362,-200.422 922.124,-189.903 934.133,-176 966.69,-138.311 967.298,-116.285 960.133,-67 958.318,-54.5099 954.101,-40.811 950.599,-30.836"/>
<polygon fill="midnightblue" stroke="midnightblue" points="887.155,-205.146 879.434,-212.401 889.994,-211.544 887.155,-205.146"/>
</g>
<!-- Node13 -->
<g id="node13" class="node"><title>Node13</title>
<g id="a_node13"><a xlink:href="sm__same_8cpp.xhtml" target="_top" xlink:title="Implements the same selection method. ">
<polygon fill="white" stroke="black" points="188.633,-0.5 188.633,-30.5 301.633,-30.5 301.633,-0.5 188.633,-0.5"/>
<text text-anchor="start" x="196.633" y="-18.5" font-family="Helvetica,sans-Serif" font-size="10.00">src/gromacs/selection</text>
<text text-anchor="middle" x="245.133" y="-7.5" font-family="Helvetica,sans-Serif" font-size="10.00">/sm_same.cpp</text>
</a>
</g>
</g>
<!-- Node2&#45;&gt;Node13 -->
<g id="edge46" class="edge"><title>Node2&#45;&gt;Node13</title>
<path fill="none" stroke="midnightblue" d="M767.024,-226.467C650.948,-225.279 418.543,-217.593 350.133,-176 293.195,-141.381 260.938,-62.7977 249.706,-30.6293"/>
<polygon fill="midnightblue" stroke="midnightblue" points="767.177,-229.968 777.208,-226.557 767.239,-222.968 767.177,-229.968"/>
</g>
<!-- Node14 -->
<g id="node14" class="node"><title>Node14</title>
<g id="a_node14"><a xlink:href="params_8cpp.xhtml" target="_top" xlink:title="Implements functions in selparam.h. ">
<polygon fill="white" stroke="black" points="1235.63,-67.5 1235.63,-97.5 1348.63,-97.5 1348.63,-67.5 1235.63,-67.5"/>
<text text-anchor="start" x="1243.63" y="-85.5" font-family="Helvetica,sans-Serif" font-size="10.00">src/gromacs/selection</text>
<text text-anchor="middle" x="1292.13" y="-74.5" font-family="Helvetica,sans-Serif" font-size="10.00">/params.cpp</text>
</a>
</g>
</g>
<!-- Node2&#45;&gt;Node14 -->
<g id="edge29" class="edge"><title>Node2&#45;&gt;Node14</title>
<path fill="none" stroke="midnightblue" d="M901.171,-223.896C997.178,-219.143 1168.11,-206.569 1221.13,-176 1253.05,-157.598 1275.47,-118.609 1285.77,-97.606"/>
<polygon fill="midnightblue" stroke="midnightblue" points="900.805,-220.41 890.984,-224.385 901.14,-227.401 900.805,-220.41"/>
</g>
<!-- Node15 -->
<g id="node15" class="node"><title>Node15</title>
<g id="a_node15"><a xlink:href="parser__internal_8h.xhtml" target="_top" xlink:title="Helper functions for the selection parser. ">
<polygon fill="white" stroke="black" points="96.6334,-67.5 96.6334,-97.5 209.633,-97.5 209.633,-67.5 96.6334,-67.5"/>
<text text-anchor="start" x="104.633" y="-85.5" font-family="Helvetica,sans-Serif" font-size="10.00">src/gromacs/selection</text>
<text text-anchor="middle" x="153.133" y="-74.5" font-family="Helvetica,sans-Serif" font-size="10.00">/parser_internal.h</text>
</a>
</g>
</g>
<!-- Node2&#45;&gt;Node15 -->
<g id="edge30" class="edge"><title>Node2&#45;&gt;Node15</title>
<path fill="none" stroke="midnightblue" d="M767.283,-224.011C618.8,-218.047 270.909,-201.515 224.133,-176 191.788,-158.356 169.548,-119.047 159.393,-97.7959"/>
<polygon fill="midnightblue" stroke="midnightblue" points="767.491,-227.522 777.623,-224.422 767.77,-220.527 767.491,-227.522"/>
</g>
<!-- Node16 -->
<g id="node16" class="node"><title>Node16</title>
<g id="a_node16"><a xlink:href="scanner__internal_8cpp.xhtml" target="_top" xlink:title="Helper functions for the selection tokenizer. ">
<polygon fill="white" stroke="black" points="473.633,-67.5 473.633,-97.5 586.633,-97.5 586.633,-67.5 473.633,-67.5"/>
<text text-anchor="start" x="481.633" y="-85.5" font-family="Helvetica,sans-Serif" font-size="10.00">src/gromacs/selection</text>
<text text-anchor="middle" x="530.133" y="-74.5" font-family="Helvetica,sans-Serif" font-size="10.00">/scanner_internal.cpp</text>
</a>
</g>
</g>
<!-- Node2&#45;&gt;Node16 -->
<g id="edge39" class="edge"><title>Node2&#45;&gt;Node16</title>
<path fill="none" stroke="midnightblue" d="M767.335,-222.837C693.944,-217.421 582.426,-204.634 552.133,-176 530.54,-155.59 528.436,-118.151 529.09,-97.7203"/>
<polygon fill="midnightblue" stroke="midnightblue" points="767.203,-226.337 777.426,-223.553 767.699,-219.354 767.203,-226.337"/>
</g>
<!-- Node17 -->
<g id="node17" class="node"><title>Node17</title>
<g id="a_node17"><a xlink:href="selectioncollection-impl_8h.xhtml" target="_top" xlink:title="Declares private implementation class for gmx::SelectionCollection. ">
<polygon fill="white" stroke="black" points="561.633,-134.5 561.633,-175.5 674.633,-175.5 674.633,-134.5 561.633,-134.5"/>
<text text-anchor="start" x="569.633" y="-163.5" font-family="Helvetica,sans-Serif" font-size="10.00">src/gromacs/selection</text>
<text text-anchor="start" x="569.633" y="-152.5" font-family="Helvetica,sans-Serif" font-size="10.00">/selectioncollection</text>
<text text-anchor="middle" x="618.133" y="-141.5" font-family="Helvetica,sans-Serif" font-size="10.00">&#45;impl.h</text>
</a>
</g>
</g>
<!-- Node2&#45;&gt;Node17 -->
<g id="edge21" class="edge"><title>Node2&#45;&gt;Node17</title>
<path fill="none" stroke="midnightblue" d="M781.495,-209.319C749.223,-198.786 707.913,-185.303 674.909,-174.531"/>
<polygon fill="midnightblue" stroke="midnightblue" points="780.608,-212.712 791.201,-212.487 782.78,-206.057 780.608,-212.712"/>
</g>
<!-- Node18 -->
<g id="node18" class="node"><title>Node18</title>
<g id="a_node18"><a xlink:href="selectioncollection_8cpp.xhtml" target="_top" xlink:title="Implements gmx::SelectionCollection. ">
<polygon fill="white" stroke="black" points="643.633,-67.5 643.633,-97.5 762.633,-97.5 762.633,-67.5 643.633,-67.5"/>
<text text-anchor="start" x="651.633" y="-85.5" font-family="Helvetica,sans-Serif" font-size="10.00">src/gromacs/selection</text>
<text text-anchor="middle" x="703.133" y="-74.5" font-family="Helvetica,sans-Serif" font-size="10.00">/selectioncollection.cpp</text>
</a>
</g>
</g>
<!-- Node2&#45;&gt;Node18 -->
<g id="edge41" class="edge"><title>Node2&#45;&gt;Node18</title>
<path fill="none" stroke="midnightblue" d="M770.741,-208.527C753.798,-200.958 736.938,-190.443 725.133,-176 706.539,-153.25 703.166,-117.417 702.837,-97.6927"/>
<polygon fill="midnightblue" stroke="midnightblue" points="769.553,-211.823 780.131,-212.435 772.243,-205.361 769.553,-211.823"/>
</g>
<!-- Node19 -->
<g id="node19" class="node"><title>Node19</title>
<g id="a_node19"><a xlink:href="symrec_8h.xhtml" target="_top" xlink:title="Handling of selection parser symbol table. ">
<polygon fill="white" stroke="black" points="734.633,-140 734.633,-170 847.633,-170 847.633,-140 734.633,-140"/>
<text text-anchor="start" x="742.633" y="-158" font-family="Helvetica,sans-Serif" font-size="10.00">src/gromacs/selection</text>
<text text-anchor="middle" x="791.133" y="-147" font-family="Helvetica,sans-Serif" font-size="10.00">/symrec.h</text>
</a>
</g>
</g>
<!-- Node2&#45;&gt;Node19 -->
<g id="edge32" class="edge"><title>Node2&#45;&gt;Node19</title>
<path fill="none" stroke="midnightblue" d="M820.14,-203.557C813.448,-192.586 805.648,-179.797 799.822,-170.246"/>
<polygon fill="midnightblue" stroke="midnightblue" points="817.236,-205.518 825.432,-212.233 823.213,-201.873 817.236,-205.518"/>
</g>
<!-- Node22 -->
<g id="node22" class="node"><title>Node22</title>
<g id="a_node22"><a xlink:href="symrec_8cpp.xhtml" target="_top" xlink:title="Implements classes in symrec.h. ">
<polygon fill="white" stroke="black" points="819.633,-67.5 819.633,-97.5 932.633,-97.5 932.633,-67.5 819.633,-67.5"/>
<text text-anchor="start" x="827.633" y="-85.5" font-family="Helvetica,sans-Serif" font-size="10.00">src/gromacs/selection</text>
<text text-anchor="middle" x="876.133" y="-74.5" font-family="Helvetica,sans-Serif" font-size="10.00">/symrec.cpp</text>
</a>
</g>
</g>
<!-- Node2&#45;&gt;Node22 -->
<g id="edge47" class="edge"><title>Node2&#45;&gt;Node22</title>
<path fill="none" stroke="midnightblue" d="M845.508,-203.031C849.265,-194.641 853.223,-185.028 856.133,-176 864.906,-148.791 870.993,-115.836 873.992,-97.5167"/>
<polygon fill="midnightblue" stroke="midnightblue" points="842.285,-201.663 841.266,-212.209 848.639,-204.6 842.285,-201.663"/>
</g>
<!-- Node2&#45;&gt;Node23 -->
<g id="edge40" class="edge"><title>Node2&#45;&gt;Node23</title>
<path fill="none" stroke="midnightblue" d="M901.009,-222.7C991.492,-216.765 1157.64,-203.06 1297.13,-176 1305.43,-174.39 1314.17,-172.281 1322.57,-170.038"/>
<polygon fill="midnightblue" stroke="midnightblue" points="900.645,-219.216 890.891,-223.352 901.095,-226.201 900.645,-219.216"/>
</g>
<!-- Node24 -->
<g id="node24" class="node"><title>Node24</title>
<g id="a_node24"><a xlink:href="sm__insolidangle_8cpp.xhtml" target="_top" xlink:title="Implements the insolidangle selection method. ">
<polygon fill="white" stroke="black" points="1628.63,-67.5 1628.63,-97.5 1741.63,-97.5 1741.63,-67.5 1628.63,-67.5"/>
<text text-anchor="start" x="1636.63" y="-85.5" font-family="Helvetica,sans-Serif" font-size="10.00">src/gromacs/selection</text>
<text text-anchor="middle" x="1685.13" y="-74.5" font-family="Helvetica,sans-Serif" font-size="10.00">/sm_insolidangle.cpp</text>
</a>
</g>
</g>
<!-- Node2&#45;&gt;Node24 -->
<g id="edge43" class="edge"><title>Node2&#45;&gt;Node24</title>
<path fill="none" stroke="midnightblue" d="M901.16,-223.56C1004.04,-218.203 1195.45,-204.656 1257.13,-176 1281.94,-164.474 1277.29,-145.454 1302.13,-134 1430.9,-74.6318 1479.26,-121.244 1619.13,-98 1622.14,-97.5 1625.22,-96.952 1628.32,-96.3709"/>
<polygon fill="midnightblue" stroke="midnightblue" points="900.692,-220.079 890.883,-224.083 901.048,-227.07 900.692,-220.079"/>
</g>
<!-- Node3&#45;&gt;Node4 -->
<g id="edge3" class="edge"><title>Node3&#45;&gt;Node4</title>
<path fill="none" stroke="midnightblue" d="M1136.18,-131.286C1153.81,-102.765 1183.53,-54.6884 1198.28,-30.8258"/>
<polygon fill="midnightblue" stroke="midnightblue" points="1133.19,-129.457 1130.91,-139.803 1139.15,-133.137 1133.19,-129.457"/>
</g>
<!-- Node3&#45;&gt;Node5 -->
<g id="edge4" class="edge"><title>Node3&#45;&gt;Node5</title>
<path fill="none" stroke="midnightblue" d="M1109.59,-130.727C1103.72,-119.83 1096.91,-107.201 1091.81,-97.7455"/>
<polygon fill="midnightblue" stroke="midnightblue" points="1106.62,-132.591 1114.44,-139.733 1112.78,-129.27 1106.62,-132.591"/>
</g>
<!-- Node6&#45;&gt;Node7 -->
<g id="edge6" class="edge"><title>Node6&#45;&gt;Node7</title>
<path fill="none" stroke="midnightblue" d="M181.417,-137.546C230.222,-125.431 295.891,-109.129 342.306,-97.6069"/>
<polygon fill="midnightblue" stroke="midnightblue" points="180.444,-134.181 171.582,-139.987 182.131,-140.975 180.444,-134.181"/>
</g>
<!-- Node6&#45;&gt;Node8 -->
<g id="edge16" class="edge"><title>Node6&#45;&gt;Node8</title>
<path fill="none" stroke="midnightblue" d="M97.221,-131.591C84.2594,-112.504 71.5222,-85.3335 87.1334,-67 119.677,-28.7814 260.648,-39.423 310.133,-31 318.02,-29.6576 326.332,-28.2086 334.507,-26.764"/>
<polygon fill="midnightblue" stroke="midnightblue" points="94.4032,-133.668 103.091,-139.732 100.081,-129.574 94.4032,-133.668"/>
</g>
<!-- Node6&#45;&gt;Node11 -->
<g id="edge18" class="edge"><title>Node6&#45;&gt;Node11</title>
<path fill="none" stroke="midnightblue" d="M59.8459,-135.517C42.778,-126.914 25.9126,-114.767 16.1334,-98 2.72735,-75.0145 24.574,-47.0984 41.1776,-30.6221"/>
<polygon fill="midnightblue" stroke="midnightblue" points="58.7639,-138.875 69.3052,-139.939 61.7282,-132.534 58.7639,-138.875"/>
</g>
<!-- Node6&#45;&gt;Node13 -->
<g id="edge19" class="edge"><title>Node6&#45;&gt;Node13</title>
<path fill="none" stroke="midnightblue" d="M84.7757,-133.696C61.8363,-115.826 36.9939,-89.2602 54.1334,-67 70.5073,-45.7342 138.242,-31.5962 188.422,-23.8187"/>
<polygon fill="midnightblue" stroke="midnightblue" points="82.9481,-136.698 93.0596,-139.862 87.1277,-131.083 82.9481,-136.698"/>
</g>
<!-- Node6&#45;&gt;Node14 -->
<g id="edge14" class="edge"><title>Node6&#45;&gt;Node14</title>
<path fill="none" stroke="midnightblue" d="M181.946,-150.793C379.683,-141.237 959.951,-112.706 1149.13,-98 1177.62,-95.7856 1209.23,-92.6514 1235.47,-89.8631"/>
<polygon fill="midnightblue" stroke="midnightblue" points="181.523,-147.309 171.704,-151.288 181.861,-154.301 181.523,-147.309"/>
</g>
<!-- Node6&#45;&gt;Node15 -->
<g id="edge15" class="edge"><title>Node6&#45;&gt;Node15</title>
<path fill="none" stroke="midnightblue" d="M127.678,-130.727C133.551,-119.83 140.358,-107.201 145.455,-97.7455"/>
<polygon fill="midnightblue" stroke="midnightblue" points="124.487,-129.27 122.823,-139.733 130.649,-132.591 124.487,-129.27"/>
</g>
<!-- Node6&#45;&gt;Node16 -->
<g id="edge17" class="edge"><title>Node6&#45;&gt;Node16</title>
<path fill="none" stroke="midnightblue" d="M181.886,-144.448C252.273,-134.105 366.305,-116.579 464.133,-98 467.13,-97.4309 470.199,-96.8278 473.294,-96.2035"/>
<polygon fill="midnightblue" stroke="midnightblue" points="181.212,-141.009 171.825,-145.921 182.227,-147.935 181.212,-141.009"/>
</g>
<!-- Node7&#45;&gt;Node4 -->
<g id="edge7" class="edge"><title>Node7&#45;&gt;Node4</title>
<path fill="none" stroke="midnightblue" d="M466.008,-66.8976C764.475,-27.0656 845.902,-71.008 1141.13,-31 1144.16,-30.5904 1147.25,-30.1144 1150.36,-29.5898"/>
<polygon fill="midnightblue" stroke="midnightblue" points="465.192,-63.476 455.753,-68.2875 466.133,-70.4126 465.192,-63.476"/>
</g>
<!-- Node7&#45;&gt;Node8 -->
<g id="edge8" class="edge"><title>Node7&#45;&gt;Node8</title>
<path fill="none" stroke="midnightblue" d="M396.168,-57.4029C395.056,-48.3703 393.83,-38.4078 392.866,-30.5765"/>
<polygon fill="midnightblue" stroke="midnightblue" points="392.702,-57.8984 397.398,-67.396 399.65,-57.0433 392.702,-57.8984"/>
</g>
<!-- Node7&#45;&gt;Node9 -->
<g id="edge9" class="edge"><title>Node7&#45;&gt;Node9</title>
<path fill="none" stroke="midnightblue" d="M465.934,-66.7443C574.374,-47.1471 690.259,-31.7236 757.542,-23.3175"/>
<polygon fill="midnightblue" stroke="midnightblue" points="465.012,-63.3547 455.802,-68.5918 466.268,-70.2412 465.012,-63.3547"/>
</g>
<!-- Node10 -->
<g id="node10" class="node"><title>Node10</title>
<g id="a_node10"><a xlink:href="sm__compare_8cpp.xhtml" target="_top" xlink:title="Implements internal selection method for comparison expressions. ">
<polygon fill="white" stroke="black" points="1019.63,-0.5 1019.63,-30.5 1132.63,-30.5 1132.63,-0.5 1019.63,-0.5"/>
<text text-anchor="start" x="1027.63" y="-18.5" font-family="Helvetica,sans-Serif" font-size="10.00">src/gromacs/selection</text>
<text text-anchor="middle" x="1076.13" y="-7.5" font-family="Helvetica,sans-Serif" font-size="10.00">/sm_compare.cpp</text>
</a>
</g>
</g>
<!-- Node7&#45;&gt;Node10 -->
<g id="edge10" class="edge"><title>Node7&#45;&gt;Node10</title>
<path fill="none" stroke="midnightblue" d="M465.873,-66.8959C706.653,-33.3067 772.647,-64.7214 1010.13,-31 1013.15,-30.5712 1016.24,-30.0799 1019.35,-29.5433"/>
<polygon fill="midnightblue" stroke="midnightblue" points="465.169,-63.4608 455.759,-68.3305 466.152,-70.3914 465.169,-63.4608"/>
</g>
<!-- Node7&#45;&gt;Node11 -->
<g id="edge11" class="edge"><title>Node7&#45;&gt;Node11</title>
<path fill="none" stroke="midnightblue" d="M332.338,-68.8049C268.69,-56.7082 173.914,-38.6951 113.843,-27.2781"/>
<polygon fill="midnightblue" stroke="midnightblue" points="331.797,-72.2648 342.275,-70.6936 333.105,-65.3879 331.797,-72.2648"/>
</g>
<!-- Node7&#45;&gt;Node12 -->
<g id="edge12" class="edge"><title>Node7&#45;&gt;Node12</title>
<path fill="none" stroke="midnightblue" d="M465.729,-66.8842C648.872,-39.4763 699.331,-58.4312 879.133,-31 882.149,-30.54 885.232,-30.0238 888.339,-29.4677"/>
<polygon fill="midnightblue" stroke="midnightblue" points="465.129,-63.4352 455.77,-68.4005 466.182,-70.3554 465.129,-63.4352"/>
</g>
<!-- Node7&#45;&gt;Node13 -->
<g id="edge13" class="edge"><title>Node7&#45;&gt;Node13</title>
<path fill="none" stroke="midnightblue" d="M356.266,-63.4066C331.68,-53.0294 301.273,-40.1954 278.484,-30.5765"/>
<polygon fill="midnightblue" stroke="midnightblue" points="355.144,-66.7319 365.718,-67.396 357.866,-60.2828 355.144,-66.7319"/>
</g>
<!-- Node17&#45;&gt;Node4 -->
<g id="edge22" class="edge"><title>Node17&#45;&gt;Node4</title>
<path fill="none" stroke="midnightblue" d="M615.126,-124.043C614.99,-104.85 618.49,-80.9973 634.133,-67 676.221,-29.3425 1085.24,-39.0805 1141.13,-31 1144.15,-30.5636 1147.24,-30.0662 1150.35,-29.5248"/>
<polygon fill="midnightblue" stroke="midnightblue" points="611.632,-124.279 615.521,-134.134 618.627,-124.005 611.632,-124.279"/>
</g>
<!-- Node17&#45;&gt;Node5 -->
<g id="edge23" class="edge"><title>Node17&#45;&gt;Node5</title>
<path fill="none" stroke="midnightblue" d="M684.762,-141.066C698.113,-138.61 712.055,-136.141 725.133,-134 831.658,-116.561 956.574,-99.8235 1027.43,-90.674"/>
<polygon fill="midnightblue" stroke="midnightblue" points="683.884,-137.669 674.691,-142.936 685.162,-144.551 683.884,-137.669"/>
</g>
<!-- Node17&#45;&gt;Node8 -->
<g id="edge24" class="edge"><title>Node17&#45;&gt;Node8</title>
<path fill="none" stroke="midnightblue" d="M551.203,-150.399C475.804,-144.779 360.211,-130.915 333.133,-98 314.598,-75.4684 345.369,-47.4104 368.714,-30.783"/>
<polygon fill="midnightblue" stroke="midnightblue" points="551.338,-153.918 561.562,-151.139 551.837,-146.935 551.338,-153.918"/>
</g>
<!-- Node17&#45;&gt;Node16 -->
<g id="edge25" class="edge"><title>Node17&#45;&gt;Node16</title>
<path fill="none" stroke="midnightblue" d="M585.484,-127.844C572.729,-117.625 558.608,-106.312 547.821,-97.67"/>
<polygon fill="midnightblue" stroke="midnightblue" points="583.628,-130.841 593.621,-134.362 588.004,-125.378 583.628,-130.841"/>
</g>
<!-- Node17&#45;&gt;Node18 -->
<g id="edge26" class="edge"><title>Node17&#45;&gt;Node18</title>
<path fill="none" stroke="midnightblue" d="M649.669,-127.844C661.99,-117.625 675.63,-106.312 686.049,-97.67"/>
<polygon fill="midnightblue" stroke="midnightblue" points="647.273,-125.284 641.811,-134.362 651.742,-130.672 647.273,-125.284"/>
</g>
<!-- Node19&#45;&gt;Node8 -->
<g id="edge33" class="edge"><title>Node19&#45;&gt;Node8</title>
<path fill="none" stroke="midnightblue" d="M792.529,-129.728C792.246,-109.897 788.346,-82.6687 771.133,-67 724.933,-24.9435 542.107,-17.4127 447.908,-16.3865"/>
<polygon fill="midnightblue" stroke="midnightblue" points="789.028,-129.812 792.376,-139.864 796.027,-129.918 789.028,-129.812"/>
</g>
<!-- Node19&#45;&gt;Node16 -->
<g id="edge34" class="edge"><title>Node19&#45;&gt;Node16</title>
<path fill="none" stroke="midnightblue" d="M729.373,-137.318C684.61,-125.227 624.747,-109.057 582.359,-97.6069"/>
<polygon fill="midnightblue" stroke="midnightblue" points="728.689,-140.758 739.256,-139.987 730.515,-134.001 728.689,-140.758"/>
</g>
<!-- Node19&#45;&gt;Node18 -->
<g id="edge35" class="edge"><title>Node19&#45;&gt;Node18</title>
<path fill="none" stroke="midnightblue" d="M765.28,-133.288C750.898,-121.766 733.381,-107.733 720.615,-97.5049"/>
<polygon fill="midnightblue" stroke="midnightblue" points="763.333,-136.212 773.325,-139.733 767.709,-130.749 763.333,-136.212"/>
</g>
<!-- Node20 -->
<g id="node20" class="node"><title>Node20</title>
<g id="a_node20"><a xlink:href="selhelp_8cpp.xhtml" target="_top" xlink:title="Implements functions in selhelp.h. ">
<polygon fill="white" stroke="black" points="1497.63,-67.5 1497.63,-97.5 1610.63,-97.5 1610.63,-67.5 1497.63,-67.5"/>
<text text-anchor="start" x="1505.63" y="-85.5" font-family="Helvetica,sans-Serif" font-size="10.00">src/gromacs/selection</text>
<text text-anchor="middle" x="1554.13" y="-74.5" font-family="Helvetica,sans-Serif" font-size="10.00">/selhelp.cpp</text>
</a>
</g>
</g>
<!-- Node19&#45;&gt;Node20 -->
<g id="edge36" class="edge"><title>Node19&#45;&gt;Node20</title>
<path fill="none" stroke="midnightblue" d="M857.774,-148.893C1026.1,-135.958 1457.27,-102.609 1488.13,-98 1491.15,-97.5496 1494.23,-97.041 1497.34,-96.4909"/>
<polygon fill="midnightblue" stroke="midnightblue" points="857.495,-145.404 847.793,-149.659 858.032,-152.383 857.495,-145.404"/>
</g>
<!-- Node21 -->
<g id="node21" class="node"><title>Node21</title>
<g id="a_node21"><a xlink:href="selmethod_8cpp.xhtml" target="_top" xlink:title="Implements functions in selmethod.h. ">
<polygon fill="white" stroke="black" points="1366.63,-67.5 1366.63,-97.5 1479.63,-97.5 1479.63,-67.5 1366.63,-67.5"/>
<text text-anchor="start" x="1374.63" y="-85.5" font-family="Helvetica,sans-Serif" font-size="10.00">src/gromacs/selection</text>
<text text-anchor="middle" x="1423.13" y="-74.5" font-family="Helvetica,sans-Serif" font-size="10.00">/selmethod.cpp</text>
</a>
</g>
</g>
<!-- Node19&#45;&gt;Node21 -->
<g id="edge37" class="edge"><title>Node19&#45;&gt;Node21</title>
<path fill="none" stroke="midnightblue" d="M858.01,-148.379C986.281,-137.433 1262.54,-113.017 1357.13,-98 1360.15,-97.5218 1363.23,-96.9911 1366.33,-96.4236"/>
<polygon fill="midnightblue" stroke="midnightblue" points="857.588,-144.902 847.921,-149.238 858.182,-151.877 857.588,-144.902"/>
</g>
<!-- Node19&#45;&gt;Node22 -->
<g id="edge38" class="edge"><title>Node19&#45;&gt;Node22</title>
<path fill="none" stroke="midnightblue" d="M816.106,-133.288C829.997,-121.766 846.917,-107.733 859.248,-97.5049"/>
<polygon fill="midnightblue" stroke="midnightblue" points="813.797,-130.655 808.334,-139.733 818.266,-136.043 813.797,-130.655"/>
</g>
<!-- Node25&#45;&gt;Node14 -->
<g id="edge69" class="edge"><title>Node25&#45;&gt;Node14</title>
<path fill="none" stroke="midnightblue" d="M1454.06,-202.293C1453.55,-181.763 1449.57,-152.744 1433.13,-134 1421.43,-120.657 1382.12,-107.186 1347.97,-97.5164"/>
<polygon fill="midnightblue" stroke="midnightblue" points="1450.56,-202.428 1454.06,-212.43 1457.56,-202.433 1450.56,-202.428"/>
</g>
<!-- Node25&#45;&gt;Node26 -->
<g id="edge50" class="edge"><title>Node25&#45;&gt;Node26</title>
<path fill="none" stroke="midnightblue" d="M1519.86,-212.5C1582.07,-199.446 1673.85,-180.188 1732.56,-167.869"/>
<polygon fill="midnightblue" stroke="midnightblue" points="1518.82,-209.141 1509.75,-214.62 1520.26,-215.992 1518.82,-209.141"/>
</g>
<!-- Node26&#45;&gt;Node4 -->
<g id="edge51" class="edge"><title>Node26&#45;&gt;Node4</title>
<path fill="none" stroke="midnightblue" d="M1855.6,-145.412C1923.8,-134.049 2014.6,-110.214 1974.13,-67 1925.88,-15.4627 1433.26,-14.623 1263.93,-15.8805"/>
<polygon fill="midnightblue" stroke="midnightblue" points="1855.04,-141.958 1845.73,-146.999 1856.15,-148.869 1855.04,-141.958"/>
</g>
<!-- Node26&#45;&gt;Node5 -->
<g id="edge52" class="edge"><title>Node26&#45;&gt;Node5</title>
<path fill="none" stroke="midnightblue" d="M1722.21,-147.401C1616.73,-136.986 1405.36,-116.065 1226.13,-98 1198.03,-95.167 1166.79,-91.9818 1140.79,-89.3198"/>
<polygon fill="midnightblue" stroke="midnightblue" points="1722.1,-150.906 1732.39,-148.406 1722.78,-143.94 1722.1,-150.906"/>
</g>
<!-- Node26&#45;&gt;Node8 -->
<g id="edge54" class="edge"><title>Node26&#45;&gt;Node8</title>
<path fill="none" stroke="midnightblue" d="M1809.11,-131.829C1824.11,-112.486 1839.35,-84.8035 1822.13,-67 1780.63,-24.0843 807.793,-33.2114 748.133,-31 641.979,-27.0651 518.095,-21.9061 447.704,-18.9215"/>
<polygon fill="midnightblue" stroke="midnightblue" points="1806.21,-129.855 1802.58,-139.809 1811.62,-134.29 1806.21,-129.855"/>
</g>
<!-- Node26&#45;&gt;Node9 -->
<g id="edge57" class="edge"><title>Node26&#45;&gt;Node9</title>
<path fill="none" stroke="midnightblue" d="M1823.25,-134.29C1850.57,-116.132 1881.13,-88.7842 1860.13,-67 1822.28,-27.736 933.223,-37.9661 879.133,-31 876.381,-30.6456 873.574,-30.2301 870.746,-29.7683"/>
<polygon fill="midnightblue" stroke="midnightblue" points="1821.11,-131.508 1814.57,-139.844 1824.88,-137.406 1821.11,-131.508"/>
</g>
<!-- Node26&#45;&gt;Node10 -->
<g id="edge60" class="edge"><title>Node26&#45;&gt;Node10</title>
<path fill="none" stroke="midnightblue" d="M1855.66,-139.273C1908.14,-124.767 1967.67,-99.9984 1936.13,-67 1905.59,-35.0382 1184.96,-36.8352 1141.13,-31 1138.38,-30.6338 1135.58,-30.2088 1132.75,-29.7392"/>
<polygon fill="midnightblue" stroke="midnightblue" points="1854.72,-135.9 1845.96,-141.862 1856.53,-142.663 1854.72,-135.9"/>
</g>
<!-- Node26&#45;&gt;Node11 -->
<g id="edge63" class="edge"><title>Node26&#45;&gt;Node11</title>
<path fill="none" stroke="midnightblue" d="M1785.54,-129.998C1781.08,-109.453 1771.27,-81.0344 1750.13,-67 1677.4,-18.7094 266.217,-37.1587 179.133,-31 157.751,-29.4878 134.354,-26.9282 113.821,-24.3766"/>
<polygon fill="midnightblue" stroke="midnightblue" points="1782.12,-130.735 1787.43,-139.907 1789,-129.43 1782.12,-130.735"/>
</g>
<!-- Node26&#45;&gt;Node12 -->
<g id="edge66" class="edge"><title>Node26&#45;&gt;Node12</title>
<path fill="none" stroke="midnightblue" d="M1840.16,-136.128C1879.72,-119.65 1923.83,-93.7579 1898.13,-67 1863.94,-31.3873 1059.09,-37.4006 1010.13,-31 1007.38,-30.6403 1004.58,-30.2206 1001.75,-29.7553"/>
<polygon fill="midnightblue" stroke="midnightblue" points="1838.75,-132.926 1830.77,-139.906 1841.36,-139.42 1838.75,-132.926"/>
</g>
<!-- Node26&#45;&gt;Node13 -->
<g id="edge67" class="edge"><title>Node26&#45;&gt;Node13</title>
<path fill="none" stroke="midnightblue" d="M1795.59,-130.07C1799.34,-110.259 1800.54,-82.8749 1784.13,-67 1755,-38.8069 365.463,-35.1274 325.133,-31 317.551,-30.224 309.608,-29.1302 301.793,-27.8872"/>
<polygon fill="midnightblue" stroke="midnightblue" points="1792.16,-129.387 1793.41,-139.908 1798.99,-130.902 1792.16,-129.387"/>
</g>
<!-- Node26&#45;&gt;Node14 -->
<g id="edge53" class="edge"><title>Node26&#45;&gt;Node14</title>
<path fill="none" stroke="midnightblue" d="M1722.58,-147.266C1637.5,-138.223 1485.79,-120.64 1357.13,-98 1354.4,-97.5191 1351.61,-97.0009 1348.79,-96.4566"/>
<polygon fill="midnightblue" stroke="midnightblue" points="1722.31,-150.756 1732.62,-148.326 1723.04,-143.795 1722.31,-150.756"/>
</g>
<!-- Node26&#45;&gt;Node16 -->
<g id="edge55" class="edge"><title>Node26&#45;&gt;Node16</title>
<path fill="none" stroke="midnightblue" d="M1722.2,-150.018C1650.66,-145.813 1533.9,-139.1 1433.13,-134 1078.12,-116.03 988.109,-130.579 634.133,-98 618.703,-96.5798 602.054,-94.5042 586.696,-92.3649"/>
<polygon fill="midnightblue" stroke="midnightblue" points="1722.23,-153.525 1732.42,-150.619 1722.64,-146.538 1722.23,-153.525"/>
</g>
<!-- Node26&#45;&gt;Node18 -->
<g id="edge56" class="edge"><title>Node26&#45;&gt;Node18</title>
<path fill="none" stroke="midnightblue" d="M1722.04,-150.232C1504.74,-138.02 832.85,-100.186 810.133,-98 794.739,-96.5189 778.154,-94.4865 762.745,-92.4119"/>
<polygon fill="midnightblue" stroke="midnightblue" points="1722.17,-153.745 1732.35,-150.811 1722.56,-146.756 1722.17,-153.745"/>
</g>
<!-- Node26&#45;&gt;Node20 -->
<g id="edge58" class="edge"><title>Node26&#45;&gt;Node20</title>
<path fill="none" stroke="midnightblue" d="M1732.76,-137.089C1692.54,-125.023 1639.08,-108.984 1601.16,-97.6069"/>
<polygon fill="midnightblue" stroke="midnightblue" points="1731.84,-140.466 1742.42,-139.987 1733.85,-133.761 1731.84,-140.466"/>
</g>
<!-- Node26&#45;&gt;Node21 -->
<g id="edge59" class="edge"><title>Node26&#45;&gt;Node21</title>
<path fill="none" stroke="midnightblue" d="M1722.53,-142.31C1661.45,-131.423 1568.54,-114.443 1488.13,-98 1485.41,-97.4441 1482.63,-96.8649 1479.83,-96.2718"/>
<polygon fill="midnightblue" stroke="midnightblue" points="1721.97,-145.765 1732.43,-144.071 1723.2,-138.873 1721.97,-145.765"/>
</g>
<!-- Node26&#45;&gt;Node24 -->
<g id="edge62" class="edge"><title>Node26&#45;&gt;Node24</title>
<path fill="none" stroke="midnightblue" d="M1759.53,-133.931C1742.36,-122.292 1721.16,-107.924 1705.79,-97.5049"/>
<polygon fill="midnightblue" stroke="midnightblue" points="1757.85,-137.019 1768.09,-139.733 1761.77,-131.225 1757.85,-137.019"/>
</g>
<!-- Node27 -->
<g id="node27" class="node"><title>Node27</title>
<g id="a_node27"><a xlink:href="sm__distance_8cpp.xhtml" target="_top" xlink:title="Implements distance&#45;based selection methods. ">
<polygon fill="white" stroke="black" points="2026.63,-67.5 2026.63,-97.5 2139.63,-97.5 2139.63,-67.5 2026.63,-67.5"/>
<text text-anchor="start" x="2034.63" y="-85.5" font-family="Helvetica,sans-Serif" font-size="10.00">src/gromacs/selection</text>
<text text-anchor="middle" x="2083.13" y="-74.5" font-family="Helvetica,sans-Serif" font-size="10.00">/sm_distance.cpp</text>
</a>
</g>
</g>
<!-- Node26&#45;&gt;Node27 -->
<g id="edge61" class="edge"><title>Node26&#45;&gt;Node27</title>
<path fill="none" stroke="midnightblue" d="M1855.86,-138C1907.38,-125.646 1977.87,-108.743 2026.62,-97.0514"/>
<polygon fill="midnightblue" stroke="midnightblue" points="1854.73,-134.671 1845.82,-140.407 1856.36,-141.478 1854.73,-134.671"/>
</g>
<!-- Node28 -->
<g id="node28" class="node"><title>Node28</title>
<g id="a_node28"><a xlink:href="sm__merge_8cpp.xhtml" target="_top" xlink:title="Implements the merge and plus selection modifiers. ">
<polygon fill="white" stroke="black" points="2157.63,-67.5 2157.63,-97.5 2270.63,-97.5 2270.63,-67.5 2157.63,-67.5"/>
<text text-anchor="start" x="2165.63" y="-85.5" font-family="Helvetica,sans-Serif" font-size="10.00">src/gromacs/selection</text>
<text text-anchor="middle" x="2214.13" y="-74.5" font-family="Helvetica,sans-Serif" font-size="10.00">/sm_merge.cpp</text>
</a>
</g>
</g>
<!-- Node26&#45;&gt;Node28 -->
<g id="edge64" class="edge"><title>Node26&#45;&gt;Node28</title>
<path fill="none" stroke="midnightblue" d="M1856.22,-144.793C1928.5,-134.581 2046.79,-117.018 2148.13,-98 2151.13,-97.4374 2154.2,-96.8395 2157.3,-96.2194"/>
<polygon fill="midnightblue" stroke="midnightblue" points="1855.31,-141.386 1845.9,-146.246 1856.29,-148.318 1855.31,-141.386"/>
</g>
<!-- Node29 -->
<g id="node29" class="node"><title>Node29</title>
<g id="a_node29"><a xlink:href="sm__permute_8cpp.xhtml" target="_top" xlink:title="Implements the permute selection modifier. ">
<polygon fill="white" stroke="black" points="2288.63,-67.5 2288.63,-97.5 2401.63,-97.5 2401.63,-67.5 2288.63,-67.5"/>
<text text-anchor="start" x="2296.63" y="-85.5" font-family="Helvetica,sans-Serif" font-size="10.00">src/gromacs/selection</text>
<text text-anchor="middle" x="2345.13" y="-74.5" font-family="Helvetica,sans-Serif" font-size="10.00">/sm_permute.cpp</text>
</a>
</g>
</g>
<!-- Node26&#45;&gt;Node29 -->
<g id="edge65" class="edge"><title>Node26&#45;&gt;Node29</title>
<path fill="none" stroke="midnightblue" d="M1855.99,-148.547C1950.6,-140.334 2128.78,-123.04 2279.13,-98 2282.14,-97.4989 2285.22,-96.95 2288.32,-96.3683"/>
<polygon fill="midnightblue" stroke="midnightblue" points="1855.65,-145.063 1845.99,-149.408 1856.25,-152.037 1855.65,-145.063"/>
</g>
<!-- Node30 -->
<g id="node30" class="node"><title>Node30</title>
<g id="a_node30"><a xlink:href="sm__simple_8cpp.xhtml" target="_top" xlink:title="Implements simple keyword selection methods. ">
<polygon fill="white" stroke="black" points="2419.63,-67.5 2419.63,-97.5 2532.63,-97.5 2532.63,-67.5 2419.63,-67.5"/>
<text text-anchor="start" x="2427.63" y="-85.5" font-family="Helvetica,sans-Serif" font-size="10.00">src/gromacs/selection</text>
<text text-anchor="middle" x="2476.13" y="-74.5" font-family="Helvetica,sans-Serif" font-size="10.00">/sm_simple.cpp</text>
</a>
</g>
</g>
<!-- Node26&#45;&gt;Node30 -->
<g id="edge68" class="edge"><title>Node26&#45;&gt;Node30</title>
<path fill="none" stroke="midnightblue" d="M1856.04,-150.828C1970.37,-144.772 2210.43,-129.286 2411.13,-98 2413.88,-97.5726 2416.67,-97.0979 2419.5,-96.5885"/>
<polygon fill="midnightblue" stroke="midnightblue" points="1855.84,-147.333 1846.04,-151.351 1856.21,-154.324 1855.84,-147.333"/>
</g>
</g>
</svg>
