<?xml version="1.0" encoding="UTF-8" standalone="no"?>
<!DOCTYPE svg PUBLIC "-//W3C//DTD SVG 1.1//EN"
 "http://www.w3.org/Graphics/SVG/1.1/DTD/svg11.dtd">
<!-- Generated by graphviz version 2.38.0 (20140413.2041)
 -->
<!-- Title: src/gromacs/tables/splineutil.cpp Pages: 1 -->
<svg width="1498pt" height="330pt"
 viewBox="0.00 0.00 1498.00 330.00" xmlns="http://www.w3.org/2000/svg" xmlns:xlink="http://www.w3.org/1999/xlink">
<g id="graph0" class="graph" transform="scale(1 1) rotate(0) translate(4 326)">
<title>src/gromacs/tables/splineutil.cpp</title>
<polygon fill="white" stroke="none" points="-4,4 -4,-326 1494,-326 1494,4 -4,4"/>
<!-- Node1 -->
<g id="node1" class="node"><title>Node1</title>
<polygon fill="#bfbfbf" stroke="black" points="492.5,-291.5 492.5,-321.5 592.5,-321.5 592.5,-291.5 492.5,-291.5"/>
<text text-anchor="start" x="500.5" y="-309.5" font-family="Helvetica,sans-Serif" font-size="10.00">src/gromacs/tables</text>
<text text-anchor="middle" x="542.5" y="-298.5" font-family="Helvetica,sans-Serif" font-size="10.00">/splineutil.cpp</text>
</g>
<!-- Node2 -->
<g id="node2" class="node"><title>Node2</title>
<g id="a_node2"><a xlink:href="gmxpre_8h.xhtml" target="_top" xlink:title="Prerequisite header file for GROMACS build. ">
<polygon fill="white" stroke="black" points="63,-235.5 63,-254.5 120,-254.5 120,-235.5 63,-235.5"/>
<text text-anchor="middle" x="91.5" y="-242.5" font-family="Helvetica,sans-Serif" font-size="10.00">gmxpre.h</text>
</a>
</g>
</g>
<!-- Node1&#45;&gt;Node2 -->
<g id="edge1" class="edge"><title>Node1&#45;&gt;Node2</title>
<path fill="none" stroke="midnightblue" d="M492.375,-300.653C415.216,-292.885 262.818,-276.332 134.5,-255 133.042,-254.758 131.559,-254.5 130.062,-254.232"/>
<polygon fill="midnightblue" stroke="midnightblue" points="130.597,-250.771 120.119,-252.336 129.286,-257.647 130.597,-250.771"/>
</g>
<!-- Node3 -->
<g id="node3" class="node"><title>Node3</title>
<g id="a_node3"><a xlink:href="splineutil_8h.xhtml" target="_top" xlink:title="Declares internal utility functions for spline tables. ">
<polygon fill="white" stroke="black" points="376,-235.5 376,-254.5 439,-254.5 439,-235.5 376,-235.5"/>
<text text-anchor="middle" x="407.5" y="-242.5" font-family="Helvetica,sans-Serif" font-size="10.00">splineutil.h</text>
</a>
</g>
</g>
<!-- Node1&#45;&gt;Node3 -->
<g id="edge2" class="edge"><title>Node1&#45;&gt;Node3</title>
<path fill="none" stroke="midnightblue" d="M510.507,-291.399C488.058,-281.505 458.285,-268.383 436.524,-258.792"/>
<polygon fill="midnightblue" stroke="midnightblue" points="437.706,-255.488 427.144,-254.658 434.883,-261.894 437.706,-255.488"/>
</g>
<!-- Node4 -->
<g id="node4" class="node"><title>Node4</title>
<polygon fill="white" stroke="#bfbfbf" points="215,-179.5 215,-198.5 274,-198.5 274,-179.5 215,-179.5"/>
<text text-anchor="middle" x="244.5" y="-186.5" font-family="Helvetica,sans-Serif" font-size="10.00">functional</text>
</g>
<!-- Node1&#45;&gt;Node4 -->
<g id="edge29" class="edge"><title>Node1&#45;&gt;Node4</title>
<path fill="none" stroke="midnightblue" d="M492.25,-294.072C456.524,-285.231 407.755,-271.692 366.5,-255 330.362,-240.378 290.966,-218.142 266.995,-203.841"/>
<polygon fill="midnightblue" stroke="midnightblue" points="268.68,-200.77 258.309,-198.602 265.064,-206.764 268.68,-200.77"/>
</g>
<!-- Node5 -->
<g id="node5" class="node"><title>Node5</title>
<polygon fill="white" stroke="#bfbfbf" points="164.5,-123.5 164.5,-142.5 204.5,-142.5 204.5,-123.5 164.5,-123.5"/>
<text text-anchor="middle" x="184.5" y="-130.5" font-family="Helvetica,sans-Serif" font-size="10.00">utility</text>
</g>
<!-- Node1&#45;&gt;Node5 -->
<g id="edge30" class="edge"><title>Node1&#45;&gt;Node5</title>
<path fill="none" stroke="midnightblue" d="M492.386,-305.039C417.861,-301.453 278.763,-283.079 205.5,-199 194.189,-186.019 188.953,-166.855 186.54,-152.697"/>
<polygon fill="midnightblue" stroke="midnightblue" points="189.984,-152.055 185.147,-142.629 183.05,-153.014 189.984,-152.055"/>
</g>
<!-- Node6 -->
<g id="node6" class="node"><title>Node6</title>
<polygon fill="white" stroke="#bfbfbf" points="615.5,-123.5 615.5,-142.5 659.5,-142.5 659.5,-123.5 615.5,-123.5"/>
<text text-anchor="middle" x="637.5" y="-130.5" font-family="Helvetica,sans-Serif" font-size="10.00">vector</text>
</g>
<!-- Node1&#45;&gt;Node6 -->
<g id="edge31" class="edge"><title>Node1&#45;&gt;Node6</title>
<path fill="none" stroke="midnightblue" d="M569.868,-291.449C599.977,-274.265 646.719,-242.065 666.5,-199 674.031,-182.604 663.537,-163.765 653.129,-150.605"/>
<polygon fill="midnightblue" stroke="midnightblue" points="655.657,-148.176 646.493,-142.859 650.341,-152.73 655.657,-148.176"/>
</g>
<!-- Node7 -->
<g id="node7" class="node"><title>Node7</title>
<g id="a_node7"><a xlink:href="alignedallocator_8h.xhtml" target="_top" xlink:title="Declares allocation policy classes and allocators that are used to make library containers compatible...">
<polygon fill="white" stroke="black" points="0,-179.5 0,-198.5 159,-198.5 159,-179.5 0,-179.5"/>
<text text-anchor="middle" x="79.5" y="-186.5" font-family="Helvetica,sans-Serif" font-size="10.00">gromacs/utility/alignedallocator.h</text>
</a>
</g>
</g>
<!-- Node1&#45;&gt;Node7 -->
<g id="edge32" class="edge"><title>Node1&#45;&gt;Node7</title>
<path fill="none" stroke="midnightblue" d="M492.464,-306.026C419.566,-305.183 281.029,-297.448 172.5,-255 143.019,-243.469 113.903,-220.801 96.3111,-205.522"/>
<polygon fill="midnightblue" stroke="midnightblue" points="98.4447,-202.735 88.6499,-198.696 93.7881,-207.962 98.4447,-202.735"/>
</g>
<!-- Node15 -->
<g id="node15" class="node"><title>Node15</title>
<g id="a_node15"><a xlink:href="arrayref_8h.xhtml" target="_top" xlink:title="Declares gmx::ArrayRef. ">
<polygon fill="white" stroke="black" points="331,-179.5 331,-198.5 456,-198.5 456,-179.5 331,-179.5"/>
<text text-anchor="middle" x="393.5" y="-186.5" font-family="Helvetica,sans-Serif" font-size="10.00">gromacs/utility/arrayref.h</text>
</a>
</g>
</g>
<!-- Node1&#45;&gt;Node15 -->
<g id="edge33" class="edge"><title>Node1&#45;&gt;Node15</title>
<path fill="none" stroke="midnightblue" d="M524.23,-291.337C495.919,-269.392 441.709,-227.37 412.79,-204.953"/>
<polygon fill="midnightblue" stroke="midnightblue" points="414.732,-202.03 404.684,-198.669 410.443,-207.562 414.732,-202.03"/>
</g>
<!-- Node21 -->
<g id="node21" class="node"><title>Node21</title>
<g id="a_node21"><a xlink:href="real_8h.xhtml" target="_top" xlink:title="Declares real and related constants. ">
<polygon fill="white" stroke="black" points="551,-179.5 551,-198.5 658,-198.5 658,-179.5 551,-179.5"/>
<text text-anchor="middle" x="604.5" y="-186.5" font-family="Helvetica,sans-Serif" font-size="10.00">gromacs/utility/real.h</text>
</a>
</g>
</g>
<!-- Node1&#45;&gt;Node21 -->
<g id="edge48" class="edge"><title>Node1&#45;&gt;Node21</title>
<path fill="none" stroke="midnightblue" d="M550.102,-291.337C561.426,-270.243 582.706,-230.6 595.027,-207.648"/>
<polygon fill="midnightblue" stroke="midnightblue" points="598.2,-209.136 599.846,-198.669 592.033,-205.825 598.2,-209.136"/>
</g>
<!-- Node22 -->
<g id="node22" class="node"><title>Node22</title>
<polygon fill="white" stroke="#bfbfbf" points="790.5,-235.5 790.5,-254.5 834.5,-254.5 834.5,-235.5 790.5,-235.5"/>
<text text-anchor="middle" x="812.5" y="-242.5" font-family="Helvetica,sans-Serif" font-size="10.00">cmath</text>
</g>
<!-- Node1&#45;&gt;Node22 -->
<g id="edge27" class="edge"><title>Node1&#45;&gt;Node22</title>
<path fill="none" stroke="midnightblue" d="M592.816,-295.133C640.275,-285.239 713.355,-269.703 776.5,-255 777.771,-254.704 779.065,-254.399 780.373,-254.087"/>
<polygon fill="midnightblue" stroke="midnightblue" points="781.555,-257.402 790.443,-251.634 779.898,-250.601 781.555,-257.402"/>
</g>
<!-- Node23 -->
<g id="node23" class="node"><title>Node23</title>
<polygon fill="white" stroke="#bfbfbf" points="852.5,-235.5 852.5,-254.5 908.5,-254.5 908.5,-235.5 852.5,-235.5"/>
<text text-anchor="middle" x="880.5" y="-242.5" font-family="Helvetica,sans-Serif" font-size="10.00">algorithm</text>
</g>
<!-- Node1&#45;&gt;Node23 -->
<g id="edge28" class="edge"><title>Node1&#45;&gt;Node23</title>
<path fill="none" stroke="midnightblue" d="M592.503,-298.244C650.348,-289.598 748.642,-274.133 842.337,-255.122"/>
<polygon fill="midnightblue" stroke="midnightblue" points="843.17,-258.524 852.266,-253.091 841.767,-251.666 843.17,-258.524"/>
</g>
<!-- Node24 -->
<g id="node24" class="node"><title>Node24</title>
<g id="a_node24"><a xlink:href="exceptions_8h.xhtml" target="_top" xlink:title="Declares common exception classes and macros for fatal error handling. ">
<polygon fill="white" stroke="black" points="835,-179.5 835,-198.5 974,-198.5 974,-179.5 835,-179.5"/>
<text text-anchor="middle" x="904.5" y="-186.5" font-family="Helvetica,sans-Serif" font-size="10.00">gromacs/utility/exceptions.h</text>
</a>
</g>
</g>
<!-- Node1&#45;&gt;Node24 -->
<g id="edge34" class="edge"><title>Node1&#45;&gt;Node24</title>
<path fill="none" stroke="midnightblue" d="M590.219,-291.411C621.754,-281.816 663.873,-268.456 700.5,-255 722.193,-247.03 726.695,-242.66 748.5,-235 785.936,-221.85 829.369,-209.555 860.886,-201.152"/>
<polygon fill="midnightblue" stroke="midnightblue" points="861.903,-204.503 870.677,-198.564 860.115,-197.735 861.903,-204.503"/>
</g>
<!-- Node32 -->
<g id="node32" class="node"><title>Node32</title>
<g id="a_node32"><a xlink:href="stringutil_8h.xhtml" target="_top" xlink:title="Declares common string utility and formatting routines. ">
<polygon fill="white" stroke="black" points="1273.5,-179.5 1273.5,-198.5 1401.5,-198.5 1401.5,-179.5 1273.5,-179.5"/>
<text text-anchor="middle" x="1337.5" y="-186.5" font-family="Helvetica,sans-Serif" font-size="10.00">gromacs/utility/stringutil.h</text>
</a>
</g>
</g>
<!-- Node1&#45;&gt;Node32 -->
<g id="edge49" class="edge"><title>Node1&#45;&gt;Node32</title>
<path fill="none" stroke="midnightblue" d="M592.8,-295.209C632.85,-286.38 690.033,-272.35 738.5,-255 758.344,-247.896 761.121,-240.379 781.5,-235 870.389,-211.539 1133.24,-198.126 1263.14,-192.761"/>
<polygon fill="midnightblue" stroke="midnightblue" points="1263.54,-196.248 1273.39,-192.343 1263.26,-189.253 1263.54,-196.248"/>
</g>
<!-- Node3&#45;&gt;Node4 -->
<g id="edge3" class="edge"><title>Node3&#45;&gt;Node4</title>
<path fill="none" stroke="midnightblue" d="M381.672,-235.444C354.251,-226.359 310.723,-211.939 280.068,-201.783"/>
<polygon fill="midnightblue" stroke="midnightblue" points="280.8,-198.339 270.207,-198.516 278.599,-204.984 280.8,-198.339"/>
</g>
<!-- Node3&#45;&gt;Node5 -->
<g id="edge4" class="edge"><title>Node3&#45;&gt;Node5</title>
<path fill="none" stroke="midnightblue" d="M390.931,-235.326C359.447,-218.853 293.156,-184.213 282.5,-179 259.338,-167.668 232.732,-155.504 213.092,-146.684"/>
<polygon fill="midnightblue" stroke="midnightblue" points="214.342,-143.408 203.785,-142.519 211.483,-149.798 214.342,-143.408"/>
</g>
<!-- Node3&#45;&gt;Node6 -->
<g id="edge5" class="edge"><title>Node3&#45;&gt;Node6</title>
<path fill="none" stroke="midnightblue" d="M425.238,-235.303C450.856,-222.763 499.724,-198.922 541.5,-179 564.525,-168.02 590.755,-155.74 609.972,-146.786"/>
<polygon fill="midnightblue" stroke="midnightblue" points="611.473,-149.948 619.062,-142.554 608.519,-143.601 611.473,-149.948"/>
</g>
<!-- Node3&#45;&gt;Node7 -->
<g id="edge6" class="edge"><title>Node3&#45;&gt;Node7</title>
<path fill="none" stroke="midnightblue" d="M375.752,-238.773C321.736,-229.88 211.044,-211.657 141.317,-200.177"/>
<polygon fill="midnightblue" stroke="midnightblue" points="141.774,-196.705 131.339,-198.534 140.637,-203.612 141.774,-196.705"/>
</g>
<!-- Node3&#45;&gt;Node15 -->
<g id="edge15" class="edge"><title>Node3&#45;&gt;Node15</title>
<path fill="none" stroke="midnightblue" d="M405.188,-235.083C403.333,-227.927 400.665,-217.635 398.346,-208.691"/>
<polygon fill="midnightblue" stroke="midnightblue" points="401.666,-207.553 395.769,-198.751 394.891,-209.309 401.666,-207.553"/>
</g>
<!-- Node19 -->
<g id="node19" class="node"><title>Node19</title>
<g id="a_node19"><a xlink:href="gmxassert_8h.xhtml" target="_top" xlink:title="Defines assert macros customized for Gromacs. ">
<polygon fill="white" stroke="black" points="460,-123.5 460,-142.5 597,-142.5 597,-123.5 460,-123.5"/>
<text text-anchor="middle" x="528.5" y="-130.5" font-family="Helvetica,sans-Serif" font-size="10.00">gromacs/utility/gmxassert.h</text>
</a>
</g>
</g>
<!-- Node3&#45;&gt;Node19 -->
<g id="edge25" class="edge"><title>Node3&#45;&gt;Node19</title>
<path fill="none" stroke="midnightblue" d="M419.197,-235.442C430.967,-226.676 449.477,-212.463 464.5,-199 482.08,-183.245 500.886,-163.799 513.53,-150.303"/>
<polygon fill="midnightblue" stroke="midnightblue" points="516.3,-152.464 520.54,-142.755 511.17,-147.7 516.3,-152.464"/>
</g>
<!-- Node3&#45;&gt;Node21 -->
<g id="edge26" class="edge"><title>Node3&#45;&gt;Node21</title>
<path fill="none" stroke="midnightblue" d="M438.715,-235.444C472.433,-226.201 526.3,-211.436 563.432,-201.257"/>
<polygon fill="midnightblue" stroke="midnightblue" points="564.712,-204.536 573.431,-198.516 562.861,-197.785 564.712,-204.536"/>
</g>
<!-- Node8 -->
<g id="node8" class="node"><title>Node8</title>
<polygon fill="white" stroke="#bfbfbf" points="28,-62 28,-81 77,-81 77,-62 28,-62"/>
<text text-anchor="middle" x="52.5" y="-69" font-family="Helvetica,sans-Serif" font-size="10.00">cstddef</text>
</g>
<!-- Node7&#45;&gt;Node8 -->
<g id="edge7" class="edge"><title>Node7&#45;&gt;Node8</title>
<path fill="none" stroke="midnightblue" d="M55.0307,-179.438C38.933,-172.378 19.1229,-160.626 9.5,-143 -1.14731,-123.498 16.8576,-101.77 32.7246,-87.6586"/>
<polygon fill="midnightblue" stroke="midnightblue" points="35.2336,-90.1232 40.6641,-81.0259 30.7457,-84.7511 35.2336,-90.1232"/>
</g>
<!-- Node9 -->
<g id="node9" class="node"><title>Node9</title>
<g id="a_node9"><a xlink:href="allocator_8h.xhtml" target="_top" xlink:title="Declares gmx::Allocator template whose allocation functionality is configured both by type of object ...">
<polygon fill="white" stroke="black" points="18.5,-123.5 18.5,-142.5 146.5,-142.5 146.5,-123.5 18.5,-123.5"/>
<text text-anchor="middle" x="82.5" y="-130.5" font-family="Helvetica,sans-Serif" font-size="10.00">gromacs/utility/allocator.h</text>
</a>
</g>
</g>
<!-- Node7&#45;&gt;Node9 -->
<g id="edge8" class="edge"><title>Node7&#45;&gt;Node9</title>
<path fill="none" stroke="midnightblue" d="M79.9954,-179.083C80.3886,-172.006 80.9522,-161.861 81.4452,-152.986"/>
<polygon fill="midnightblue" stroke="midnightblue" points="84.9536,-152.93 82.0138,-142.751 77.9644,-152.542 84.9536,-152.93"/>
</g>
<!-- Node9&#45;&gt;Node8 -->
<g id="edge9" class="edge"><title>Node9&#45;&gt;Node8</title>
<path fill="none" stroke="midnightblue" d="M78.2017,-123.475C73.8354,-114.815 66.9446,-101.149 61.3968,-90.1453"/>
<polygon fill="midnightblue" stroke="midnightblue" points="64.4177,-88.3625 56.7903,-81.0091 58.1672,-91.5141 64.4177,-88.3625"/>
</g>
<!-- Node10 -->
<g id="node10" class="node"><title>Node10</title>
<polygon fill="white" stroke="#bfbfbf" points="878.5,-62 878.5,-81 930.5,-81 930.5,-62 878.5,-62"/>
<text text-anchor="middle" x="904.5" y="-69" font-family="Helvetica,sans-Serif" font-size="10.00">memory</text>
</g>
<!-- Node9&#45;&gt;Node10 -->
<g id="edge10" class="edge"><title>Node9&#45;&gt;Node10</title>
<path fill="none" stroke="midnightblue" d="M146.568,-123.853C149.586,-123.547 152.575,-123.261 155.5,-123 444.573,-97.2295 518.783,-116.485 807.5,-87 827.701,-84.9369 850.132,-81.6493 868.33,-78.7257"/>
<polygon fill="midnightblue" stroke="midnightblue" points="868.932,-82.1739 878.235,-77.1039 867.801,-75.2659 868.932,-82.1739"/>
</g>
<!-- Node11 -->
<g id="node11" class="node"><title>Node11</title>
<polygon fill="white" stroke="#bfbfbf" points="95,-62 95,-81 130,-81 130,-62 95,-62"/>
<text text-anchor="middle" x="112.5" y="-69" font-family="Helvetica,sans-Serif" font-size="10.00">new</text>
</g>
<!-- Node9&#45;&gt;Node11 -->
<g id="edge11" class="edge"><title>Node9&#45;&gt;Node11</title>
<path fill="none" stroke="midnightblue" d="M86.7983,-123.475C91.1646,-114.815 98.0554,-101.149 103.603,-90.1453"/>
<polygon fill="midnightblue" stroke="midnightblue" points="106.833,-91.5141 108.21,-81.0091 100.582,-88.3625 106.833,-91.5141"/>
</g>
<!-- Node12 -->
<g id="node12" class="node"><title>Node12</title>
<g id="a_node12"><a xlink:href="basedefinitions_8h.xhtml" target="_top" xlink:title="Basic types and macros used throughout GROMACS. ">
<polygon fill="white" stroke="black" points="450,-62 450,-81 607,-81 607,-62 450,-62"/>
<text text-anchor="middle" x="528.5" y="-69" font-family="Helvetica,sans-Serif" font-size="10.00">gromacs/utility/basedefinitions.h</text>
</a>
</g>
</g>
<!-- Node9&#45;&gt;Node12 -->
<g id="edge12" class="edge"><title>Node9&#45;&gt;Node12</title>
<path fill="none" stroke="midnightblue" d="M146.401,-123.475C227.956,-112.595 368.751,-93.8118 454.765,-82.3368"/>
<polygon fill="midnightblue" stroke="midnightblue" points="455.268,-85.8008 464.718,-81.0091 454.343,-78.8623 455.268,-85.8008"/>
</g>
<!-- Node13 -->
<g id="node13" class="node"><title>Node13</title>
<polygon fill="white" stroke="#bfbfbf" points="468,-0.5 468,-19.5 517,-19.5 517,-0.5 468,-0.5"/>
<text text-anchor="middle" x="492.5" y="-7.5" font-family="Helvetica,sans-Serif" font-size="10.00">stdint.h</text>
</g>
<!-- Node12&#45;&gt;Node13 -->
<g id="edge13" class="edge"><title>Node12&#45;&gt;Node13</title>
<path fill="none" stroke="midnightblue" d="M523.342,-61.9751C518.049,-53.2268 509.665,-39.3691 502.973,-28.3093"/>
<polygon fill="midnightblue" stroke="midnightblue" points="505.82,-26.2531 497.648,-19.5091 499.83,-29.8768 505.82,-26.2531"/>
</g>
<!-- Node14 -->
<g id="node14" class="node"><title>Node14</title>
<polygon fill="white" stroke="#bfbfbf" points="535,-0.5 535,-19.5 594,-19.5 594,-0.5 535,-0.5"/>
<text text-anchor="middle" x="564.5" y="-7.5" font-family="Helvetica,sans-Serif" font-size="10.00">inttypes.h</text>
</g>
<!-- Node12&#45;&gt;Node14 -->
<g id="edge14" class="edge"><title>Node12&#45;&gt;Node14</title>
<path fill="none" stroke="midnightblue" d="M533.658,-61.9751C538.951,-53.2268 547.335,-39.3691 554.027,-28.3093"/>
<polygon fill="midnightblue" stroke="midnightblue" points="557.17,-29.8768 559.352,-19.5091 551.18,-26.2531 557.17,-29.8768"/>
</g>
<!-- Node15&#45;&gt;Node5 -->
<g id="edge20" class="edge"><title>Node15&#45;&gt;Node5</title>
<path fill="none" stroke="midnightblue" d="M359.933,-179.444C324.691,-170.443 267.674,-155.83 218.5,-143 217.237,-142.67 215.948,-142.333 214.646,-141.992"/>
<polygon fill="midnightblue" stroke="midnightblue" points="215.191,-138.516 204.63,-139.354 213.408,-145.285 215.191,-138.516"/>
</g>
<!-- Node15&#45;&gt;Node6 -->
<g id="edge21" class="edge"><title>Node15&#45;&gt;Node6</title>
<path fill="none" stroke="midnightblue" d="M437.95,-179.439C478.877,-171.361 541.477,-158.514 605.329,-142.906"/>
<polygon fill="midnightblue" stroke="midnightblue" points="606.298,-146.272 615.17,-140.48 604.622,-139.475 606.298,-146.272"/>
</g>
<!-- Node15&#45;&gt;Node8 -->
<g id="edge16" class="edge"><title>Node15&#45;&gt;Node8</title>
<path fill="none" stroke="midnightblue" d="M361.053,-179.493C331.886,-171.431 288.129,-158.301 251.5,-143 233.889,-135.644 231.229,-130.067 213.5,-123 158.605,-101.117 141.132,-106.935 85.5,-87 83.8395,-86.405 82.1445,-85.7652 80.4429,-85.0977"/>
<polygon fill="midnightblue" stroke="midnightblue" points="81.3939,-81.7025 70.8167,-81.0909 78.7039,-88.165 81.3939,-81.7025"/>
</g>
<!-- Node16 -->
<g id="node16" class="node"><title>Node16</title>
<polygon fill="white" stroke="#bfbfbf" points="338.5,-123.5 338.5,-142.5 376.5,-142.5 376.5,-123.5 338.5,-123.5"/>
<text text-anchor="middle" x="357.5" y="-130.5" font-family="Helvetica,sans-Serif" font-size="10.00">array</text>
</g>
<!-- Node15&#45;&gt;Node16 -->
<g id="edge17" class="edge"><title>Node15&#45;&gt;Node16</title>
<path fill="none" stroke="midnightblue" d="M387.555,-179.083C382.523,-171.534 375.163,-160.495 368.987,-151.23"/>
<polygon fill="midnightblue" stroke="midnightblue" points="371.793,-149.13 363.334,-142.751 365.969,-153.013 371.793,-149.13"/>
</g>
<!-- Node17 -->
<g id="node17" class="node"><title>Node17</title>
<polygon fill="white" stroke="#bfbfbf" points="395,-123.5 395,-142.5 442,-142.5 442,-123.5 395,-123.5"/>
<text text-anchor="middle" x="418.5" y="-130.5" font-family="Helvetica,sans-Serif" font-size="10.00">iterator</text>
</g>
<!-- Node15&#45;&gt;Node17 -->
<g id="edge18" class="edge"><title>Node15&#45;&gt;Node17</title>
<path fill="none" stroke="midnightblue" d="M397.628,-179.083C401.014,-171.77 405.916,-161.181 410.119,-152.103"/>
<polygon fill="midnightblue" stroke="midnightblue" points="413.423,-153.296 414.449,-142.751 407.071,-150.355 413.423,-153.296"/>
</g>
<!-- Node18 -->
<g id="node18" class="node"><title>Node18</title>
<polygon fill="white" stroke="#bfbfbf" points="261,-123.5 261,-142.5 320,-142.5 320,-123.5 261,-123.5"/>
<text text-anchor="middle" x="290.5" y="-130.5" font-family="Helvetica,sans-Serif" font-size="10.00">stdexcept</text>
</g>
<!-- Node15&#45;&gt;Node18 -->
<g id="edge19" class="edge"><title>Node15&#45;&gt;Node18</title>
<path fill="none" stroke="midnightblue" d="M376.951,-179.324C360.508,-170.703 335.065,-157.364 316.032,-147.386"/>
<polygon fill="midnightblue" stroke="midnightblue" points="317.489,-144.198 307.008,-142.655 314.239,-150.398 317.489,-144.198"/>
</g>
<!-- Node15&#45;&gt;Node19 -->
<g id="edge22" class="edge"><title>Node15&#45;&gt;Node19</title>
<path fill="none" stroke="midnightblue" d="M414.891,-179.444C437.207,-170.517 472.403,-156.439 497.708,-146.317"/>
<polygon fill="midnightblue" stroke="midnightblue" points="499.224,-149.48 507.209,-142.516 496.624,-142.981 499.224,-149.48"/>
</g>
<!-- Node19&#45;&gt;Node12 -->
<g id="edge23" class="edge"><title>Node19&#45;&gt;Node12</title>
<path fill="none" stroke="midnightblue" d="M528.5,-123.475C528.5,-115.08 528.5,-101.981 528.5,-91.1631"/>
<polygon fill="midnightblue" stroke="midnightblue" points="532,-91.0091 528.5,-81.0091 525,-91.0091 532,-91.0091"/>
</g>
<!-- Node20 -->
<g id="node20" class="node"><title>Node20</title>
<g id="a_node20"><a xlink:href="current__function_8h.xhtml" target="_top" xlink:title="Declares GMX_CURRENT_FUNCTION for getting the current function name. ">
<polygon fill="white" stroke="black" points="686,-56.5 686,-86.5 799,-86.5 799,-56.5 686,-56.5"/>
<text text-anchor="start" x="694" y="-74.5" font-family="Helvetica,sans-Serif" font-size="10.00">gromacs/utility/current</text>
<text text-anchor="middle" x="742.5" y="-63.5" font-family="Helvetica,sans-Serif" font-size="10.00">_function.h</text>
</a>
</g>
</g>
<!-- Node19&#45;&gt;Node20 -->
<g id="edge24" class="edge"><title>Node19&#45;&gt;Node20</title>
<path fill="none" stroke="midnightblue" d="M559.161,-123.475C591.192,-114.569 642.266,-100.369 682.382,-89.2151"/>
<polygon fill="midnightblue" stroke="midnightblue" points="683.367,-92.5739 692.064,-86.523 681.492,-85.8297 683.367,-92.5739"/>
</g>
<!-- Node24&#45;&gt;Node6 -->
<g id="edge42" class="edge"><title>Node24&#45;&gt;Node6</title>
<path fill="none" stroke="midnightblue" d="M856.567,-179.423C809.741,-170.864 736.518,-157.005 673.5,-143 672.226,-142.717 670.929,-142.422 669.62,-142.12"/>
<polygon fill="midnightblue" stroke="midnightblue" points="670.082,-138.632 659.541,-139.705 668.451,-145.439 670.082,-138.632"/>
</g>
<!-- Node24&#45;&gt;Node10 -->
<g id="edge38" class="edge"><title>Node24&#45;&gt;Node10</title>
<path fill="none" stroke="midnightblue" d="M974.217,-182.028C1027.09,-175.883 1093.48,-164.136 1110.5,-143 1156.95,-85.3086 1011.61,-74.6296 940.864,-72.7943"/>
<polygon fill="midnightblue" stroke="midnightblue" points="940.666,-69.2894 930.594,-72.5764 940.517,-76.2878 940.666,-69.2894"/>
</g>
<!-- Node24&#45;&gt;Node12 -->
<g id="edge43" class="edge"><title>Node24&#45;&gt;Node12</title>
<path fill="none" stroke="midnightblue" d="M849.611,-179.499C809.239,-172.299 753.454,-160.351 706.5,-143 688.598,-136.384 685.963,-130.701 668.5,-123 634.134,-107.845 593.657,-93.6186 565.089,-84.1523"/>
<polygon fill="midnightblue" stroke="midnightblue" points="566.103,-80.8016 555.51,-81.0088 563.92,-87.4526 566.103,-80.8016"/>
</g>
<!-- Node24&#45;&gt;Node19 -->
<g id="edge47" class="edge"><title>Node24&#45;&gt;Node19</title>
<path fill="none" stroke="midnightblue" d="M844.922,-179.444C777.817,-169.806 668.897,-154.163 597.978,-143.978"/>
<polygon fill="midnightblue" stroke="midnightblue" points="598.196,-140.474 587.8,-142.516 597.2,-147.403 598.196,-140.474"/>
</g>
<!-- Node24&#45;&gt;Node20 -->
<g id="edge46" class="edge"><title>Node24&#45;&gt;Node20</title>
<path fill="none" stroke="midnightblue" d="M886.229,-179.429C869.147,-171.082 843.233,-157.557 822.5,-143 801.341,-128.144 779.459,-108.516 763.94,-93.7432"/>
<polygon fill="midnightblue" stroke="midnightblue" points="766.07,-90.9347 756.443,-86.5117 761.211,-95.9731 766.07,-90.9347"/>
</g>
<!-- Node25 -->
<g id="node25" class="node"><title>Node25</title>
<polygon fill="white" stroke="#bfbfbf" points="996,-123.5 996,-142.5 1039,-142.5 1039,-123.5 996,-123.5"/>
<text text-anchor="middle" x="1017.5" y="-130.5" font-family="Helvetica,sans-Serif" font-size="10.00">cstdio</text>
</g>
<!-- Node24&#45;&gt;Node25 -->
<g id="edge35" class="edge"><title>Node24&#45;&gt;Node25</title>
<path fill="none" stroke="midnightblue" d="M922.405,-179.444C940.754,-170.675 969.505,-156.935 990.594,-146.858"/>
<polygon fill="midnightblue" stroke="midnightblue" points="992.165,-149.986 999.679,-142.516 989.147,-143.67 992.165,-149.986"/>
</g>
<!-- Node26 -->
<g id="node26" class="node"><title>Node26</title>
<polygon fill="white" stroke="#bfbfbf" points="1057,-123.5 1057,-142.5 1102,-142.5 1102,-123.5 1057,-123.5"/>
<text text-anchor="middle" x="1079.5" y="-130.5" font-family="Helvetica,sans-Serif" font-size="10.00">cstdlib</text>
</g>
<!-- Node24&#45;&gt;Node26 -->
<g id="edge36" class="edge"><title>Node24&#45;&gt;Node26</title>
<path fill="none" stroke="midnightblue" d="M932.229,-179.444C963.498,-169.795 1014.27,-154.127 1047.28,-143.943"/>
<polygon fill="midnightblue" stroke="midnightblue" points="1048.39,-147.264 1056.91,-140.971 1046.32,-140.575 1048.39,-147.264"/>
</g>
<!-- Node27 -->
<g id="node27" class="node"><title>Node27</title>
<polygon fill="white" stroke="#bfbfbf" points="1159,-123.5 1159,-142.5 1218,-142.5 1218,-123.5 1159,-123.5"/>
<text text-anchor="middle" x="1188.5" y="-130.5" font-family="Helvetica,sans-Serif" font-size="10.00">exception</text>
</g>
<!-- Node24&#45;&gt;Node27 -->
<g id="edge37" class="edge"><title>Node24&#45;&gt;Node27</title>
<path fill="none" stroke="midnightblue" d="M951.451,-179.432C999.864,-170.542 1077.52,-156.128 1144.5,-143 1145.93,-142.719 1147.4,-142.431 1148.87,-142.138"/>
<polygon fill="midnightblue" stroke="midnightblue" points="1149.58,-145.566 1158.69,-140.166 1148.2,-138.703 1149.58,-145.566"/>
</g>
<!-- Node28 -->
<g id="node28" class="node"><title>Node28</title>
<polygon fill="white" stroke="#bfbfbf" points="1317,-123.5 1317,-142.5 1358,-142.5 1358,-123.5 1317,-123.5"/>
<text text-anchor="middle" x="1337.5" y="-130.5" font-family="Helvetica,sans-Serif" font-size="10.00">string</text>
</g>
<!-- Node24&#45;&gt;Node28 -->
<g id="edge39" class="edge"><title>Node24&#45;&gt;Node28</title>
<path fill="none" stroke="midnightblue" d="M974.264,-184.039C1052.96,-178.713 1184.78,-167.208 1307.06,-142.711"/>
<polygon fill="midnightblue" stroke="midnightblue" points="1307.87,-146.117 1316.97,-140.692 1306.47,-139.258 1307.87,-146.117"/>
</g>
<!-- Node29 -->
<g id="node29" class="node"><title>Node29</title>
<polygon fill="white" stroke="#bfbfbf" points="1236.5,-123.5 1236.5,-142.5 1298.5,-142.5 1298.5,-123.5 1236.5,-123.5"/>
<text text-anchor="middle" x="1267.5" y="-130.5" font-family="Helvetica,sans-Serif" font-size="10.00">type_traits</text>
</g>
<!-- Node24&#45;&gt;Node29 -->
<g id="edge40" class="edge"><title>Node24&#45;&gt;Node29</title>
<path fill="none" stroke="midnightblue" d="M974.074,-179.998C1037.36,-172.334 1133.55,-159.727 1226.02,-143.149"/>
<polygon fill="midnightblue" stroke="midnightblue" points="1226.89,-146.548 1236.11,-141.322 1225.64,-139.66 1226.89,-146.548"/>
</g>
<!-- Node30 -->
<g id="node30" class="node"><title>Node30</title>
<polygon fill="white" stroke="#bfbfbf" points="716,-123.5 716,-142.5 775,-142.5 775,-123.5 716,-123.5"/>
<text text-anchor="middle" x="745.5" y="-130.5" font-family="Helvetica,sans-Serif" font-size="10.00">typeindex</text>
</g>
<!-- Node24&#45;&gt;Node30 -->
<g id="edge41" class="edge"><title>Node24&#45;&gt;Node30</title>
<path fill="none" stroke="midnightblue" d="M879.306,-179.444C852.557,-170.359 810.097,-155.939 780.195,-145.783"/>
<polygon fill="midnightblue" stroke="midnightblue" points="781.171,-142.418 770.576,-142.516 778.919,-149.046 781.171,-142.418"/>
</g>
<!-- Node31 -->
<g id="node31" class="node"><title>Node31</title>
<g id="a_node31"><a xlink:href="classhelpers_8h.xhtml" target="_top" xlink:title="Declares common utility classes and macros. ">
<polygon fill="white" stroke="black" points="831.5,-123.5 831.5,-142.5 977.5,-142.5 977.5,-123.5 831.5,-123.5"/>
<text text-anchor="middle" x="904.5" y="-130.5" font-family="Helvetica,sans-Serif" font-size="10.00">gromacs/utility/classhelpers.h</text>
</a>
</g>
</g>
<!-- Node24&#45;&gt;Node31 -->
<g id="edge44" class="edge"><title>Node24&#45;&gt;Node31</title>
<path fill="none" stroke="midnightblue" d="M904.5,-179.083C904.5,-172.006 904.5,-161.861 904.5,-152.986"/>
<polygon fill="midnightblue" stroke="midnightblue" points="908,-152.751 904.5,-142.751 901,-152.751 908,-152.751"/>
</g>
<!-- Node31&#45;&gt;Node10 -->
<g id="edge45" class="edge"><title>Node31&#45;&gt;Node10</title>
<path fill="none" stroke="midnightblue" d="M904.5,-123.475C904.5,-115.08 904.5,-101.981 904.5,-91.1631"/>
<polygon fill="midnightblue" stroke="midnightblue" points="908,-91.0091 904.5,-81.0091 901,-91.0091 908,-91.0091"/>
</g>
<!-- Node32&#45;&gt;Node6 -->
<g id="edge53" class="edge"><title>Node32&#45;&gt;Node6</title>
<path fill="none" stroke="midnightblue" d="M1273.35,-184.668C1159.19,-178.462 913.3,-163.843 706.5,-143 694.445,-141.785 681.244,-140.141 669.647,-138.59"/>
<polygon fill="midnightblue" stroke="midnightblue" points="669.907,-135.093 659.525,-137.207 668.959,-142.028 669.907,-135.093"/>
</g>
<!-- Node32&#45;&gt;Node28 -->
<g id="edge52" class="edge"><title>Node32&#45;&gt;Node28</title>
<path fill="none" stroke="midnightblue" d="M1337.5,-179.083C1337.5,-172.006 1337.5,-161.861 1337.5,-152.986"/>
<polygon fill="midnightblue" stroke="midnightblue" points="1341,-152.751 1337.5,-142.751 1334,-152.751 1341,-152.751"/>
</g>
<!-- Node33 -->
<g id="node33" class="node"><title>Node33</title>
<polygon fill="white" stroke="#bfbfbf" points="1441,-123.5 1441,-142.5 1490,-142.5 1490,-123.5 1441,-123.5"/>
<text text-anchor="middle" x="1465.5" y="-130.5" font-family="Helvetica,sans-Serif" font-size="10.00">cstdarg</text>
</g>
<!-- Node32&#45;&gt;Node33 -->
<g id="edge50" class="edge"><title>Node32&#45;&gt;Node33</title>
<path fill="none" stroke="midnightblue" d="M1357.78,-179.444C1378.85,-170.557 1412.02,-156.563 1435.99,-146.451"/>
<polygon fill="midnightblue" stroke="midnightblue" points="1437.46,-149.628 1445.31,-142.516 1434.74,-143.179 1437.46,-149.628"/>
</g>
<!-- Node34 -->
<g id="node34" class="node"><title>Node34</title>
<polygon fill="white" stroke="#bfbfbf" points="1376.5,-123.5 1376.5,-142.5 1422.5,-142.5 1422.5,-123.5 1376.5,-123.5"/>
<text text-anchor="middle" x="1399.5" y="-130.5" font-family="Helvetica,sans-Serif" font-size="10.00">cstring</text>
</g>
<!-- Node32&#45;&gt;Node34 -->
<g id="edge51" class="edge"><title>Node32&#45;&gt;Node34</title>
<path fill="none" stroke="midnightblue" d="M1347.46,-179.324C1356.63,-171.341 1370.44,-159.313 1381.53,-149.653"/>
<polygon fill="midnightblue" stroke="midnightblue" points="1384.12,-152.041 1389.36,-142.834 1379.52,-146.762 1384.12,-152.041"/>
</g>
</g>
</svg>
