<?xml version="1.0" encoding="UTF-8" standalone="no"?>
<!DOCTYPE svg PUBLIC "-//W3C//DTD SVG 1.1//EN"
 "http://www.w3.org/Graphics/SVG/1.1/DTD/svg11.dtd">
<!-- Generated by graphviz version 2.38.0 (20140413.2041)
 -->
<!-- Title: src/testutils/stdiohelper.cpp Pages: 1 -->
<svg width="1121pt" height="263pt"
 viewBox="0.00 0.00 1121.00 263.00" xmlns="http://www.w3.org/2000/svg" xmlns:xlink="http://www.w3.org/1999/xlink">
<g id="graph0" class="graph" transform="scale(1 1) rotate(0) translate(4 259)">
<title>src/testutils/stdiohelper.cpp</title>
<polygon fill="white" stroke="none" points="-4,4 -4,-259 1117,-259 1117,4 -4,4"/>
<!-- Node1 -->
<g id="node1" class="node"><title>Node1</title>
<polygon fill="#bfbfbf" stroke="black" points="311,-235.5 311,-254.5 448,-254.5 448,-235.5 311,-235.5"/>
<text text-anchor="middle" x="379.5" y="-242.5" font-family="Helvetica,sans-Serif" font-size="10.00">src/testutils/stdiohelper.cpp</text>
</g>
<!-- Node2 -->
<g id="node2" class="node"><title>Node2</title>
<g id="a_node2"><a xlink:href="gmxpre_8h.xhtml" target="_top" xlink:title="Prerequisite header file for GROMACS build. ">
<polygon fill="white" stroke="black" points="0,-179.5 0,-198.5 57,-198.5 57,-179.5 0,-179.5"/>
<text text-anchor="middle" x="28.5" y="-186.5" font-family="Helvetica,sans-Serif" font-size="10.00">gmxpre.h</text>
</a>
</g>
</g>
<!-- Node1&#45;&gt;Node2 -->
<g id="edge1" class="edge"><title>Node1&#45;&gt;Node2</title>
<path fill="none" stroke="midnightblue" d="M310.821,-235.927C249.507,-228.31 157.073,-215.82 67.1728,-198.971"/>
<polygon fill="midnightblue" stroke="midnightblue" points="67.5517,-195.481 57.0749,-197.058 66.2486,-202.358 67.5517,-195.481"/>
</g>
<!-- Node3 -->
<g id="node3" class="node"><title>Node3</title>
<g id="a_node3"><a xlink:href="stdiohelper_8h.xhtml" target="_top" xlink:title="Declares gmx::test::StdioTestHelper. ">
<polygon fill="white" stroke="black" points="75.5,-179.5 75.5,-198.5 147.5,-198.5 147.5,-179.5 75.5,-179.5"/>
<text text-anchor="middle" x="111.5" y="-186.5" font-family="Helvetica,sans-Serif" font-size="10.00">stdiohelper.h</text>
</a>
</g>
</g>
<!-- Node1&#45;&gt;Node3 -->
<g id="edge2" class="edge"><title>Node1&#45;&gt;Node3</title>
<path fill="none" stroke="midnightblue" d="M337.035,-235.444C288.153,-225.594 208.144,-209.473 157.729,-199.315"/>
<polygon fill="midnightblue" stroke="midnightblue" points="158.245,-195.848 147.75,-197.304 156.862,-202.711 158.245,-195.848"/>
</g>
<!-- Node6 -->
<g id="node6" class="node"><title>Node6</title>
<polygon fill="white" stroke="#bfbfbf" points="707.5,-179.5 707.5,-198.5 751.5,-198.5 751.5,-179.5 707.5,-179.5"/>
<text text-anchor="middle" x="729.5" y="-186.5" font-family="Helvetica,sans-Serif" font-size="10.00">cerrno</text>
</g>
<!-- Node1&#45;&gt;Node6 -->
<g id="edge5" class="edge"><title>Node1&#45;&gt;Node6</title>
<path fill="none" stroke="midnightblue" d="M448.196,-236.963C510.64,-229.957 605.43,-217.801 697.197,-198.784"/>
<polygon fill="midnightblue" stroke="midnightblue" points="698.149,-202.161 707.215,-196.678 696.708,-195.311 698.149,-202.161"/>
</g>
<!-- Node7 -->
<g id="node7" class="node"><title>Node7</title>
<polygon fill="white" stroke="#bfbfbf" points="439,-123.5 439,-142.5 482,-142.5 482,-123.5 439,-123.5"/>
<text text-anchor="middle" x="460.5" y="-130.5" font-family="Helvetica,sans-Serif" font-size="10.00">cstdio</text>
</g>
<!-- Node1&#45;&gt;Node7 -->
<g id="edge6" class="edge"><title>Node1&#45;&gt;Node7</title>
<path fill="none" stroke="midnightblue" d="M405.506,-235.439C422.425,-228.431 443.347,-216.741 454.5,-199 463.076,-185.358 463.976,-166.818 463.082,-153.03"/>
<polygon fill="midnightblue" stroke="midnightblue" points="466.533,-152.37 462.037,-142.777 459.569,-153.08 466.533,-152.37"/>
</g>
<!-- Node8 -->
<g id="node8" class="node"><title>Node8</title>
<g id="a_node8"><a xlink:href="exceptions_8h.xhtml" target="_top" xlink:title="Declares common exception classes and macros for fatal error handling. ">
<polygon fill="white" stroke="black" points="550,-179.5 550,-198.5 689,-198.5 689,-179.5 550,-179.5"/>
<text text-anchor="middle" x="619.5" y="-186.5" font-family="Helvetica,sans-Serif" font-size="10.00">gromacs/utility/exceptions.h</text>
</a>
</g>
</g>
<!-- Node1&#45;&gt;Node8 -->
<g id="edge7" class="edge"><title>Node1&#45;&gt;Node8</title>
<path fill="none" stroke="midnightblue" d="M417.529,-235.444C459.308,-226.043 526.482,-210.929 571.77,-200.739"/>
<polygon fill="midnightblue" stroke="midnightblue" points="572.661,-204.126 581.649,-198.516 571.125,-197.297 572.661,-204.126"/>
</g>
<!-- Node20 -->
<g id="node20" class="node"><title>Node20</title>
<g id="a_node20"><a xlink:href="textwriter_8h.xhtml" target="_top" xlink:title="Declares gmx::TextWriter. ">
<polygon fill="white" stroke="black" points="313.5,-179.5 313.5,-198.5 445.5,-198.5 445.5,-179.5 313.5,-179.5"/>
<text text-anchor="middle" x="379.5" y="-186.5" font-family="Helvetica,sans-Serif" font-size="10.00">gromacs/utility/textwriter.h</text>
</a>
</g>
</g>
<!-- Node1&#45;&gt;Node20 -->
<g id="edge24" class="edge"><title>Node1&#45;&gt;Node20</title>
<path fill="none" stroke="midnightblue" d="M379.5,-235.083C379.5,-228.006 379.5,-217.861 379.5,-208.986"/>
<polygon fill="midnightblue" stroke="midnightblue" points="383,-208.751 379.5,-198.751 376,-208.751 383,-208.751"/>
</g>
<!-- Node22 -->
<g id="node22" class="node"><title>Node22</title>
<g id="a_node22"><a xlink:href="testfilemanager_8h.xhtml" target="_top" xlink:title="Declares gmx::test::TestFileManager. ">
<polygon fill="white" stroke="black" points="166,-179.5 166,-198.5 295,-198.5 295,-179.5 166,-179.5"/>
<text text-anchor="middle" x="230.5" y="-186.5" font-family="Helvetica,sans-Serif" font-size="10.00">testutils/testfilemanager.h</text>
</a>
</g>
</g>
<!-- Node1&#45;&gt;Node22 -->
<g id="edge30" class="edge"><title>Node1&#45;&gt;Node22</title>
<path fill="none" stroke="midnightblue" d="M355.891,-235.444C331.042,-226.438 291.726,-212.189 263.746,-202.049"/>
<polygon fill="midnightblue" stroke="midnightblue" points="264.593,-198.633 253.999,-198.516 262.208,-205.214 264.593,-198.633"/>
</g>
<!-- Node4 -->
<g id="node4" class="node"><title>Node4</title>
<g id="a_node4"><a xlink:href="classhelpers_8h.xhtml" target="_top" xlink:title="Declares common utility classes and macros. ">
<polygon fill="white" stroke="black" points="58.5,-123.5 58.5,-142.5 204.5,-142.5 204.5,-123.5 58.5,-123.5"/>
<text text-anchor="middle" x="131.5" y="-130.5" font-family="Helvetica,sans-Serif" font-size="10.00">gromacs/utility/classhelpers.h</text>
</a>
</g>
</g>
<!-- Node3&#45;&gt;Node4 -->
<g id="edge3" class="edge"><title>Node3&#45;&gt;Node4</title>
<path fill="none" stroke="midnightblue" d="M114.803,-179.083C117.482,-171.849 121.349,-161.409 124.686,-152.397"/>
<polygon fill="midnightblue" stroke="midnightblue" points="128.068,-153.344 128.259,-142.751 121.504,-150.913 128.068,-153.344"/>
</g>
<!-- Node5 -->
<g id="node5" class="node"><title>Node5</title>
<polygon fill="white" stroke="#bfbfbf" points="325.5,-62 325.5,-81 377.5,-81 377.5,-62 325.5,-62"/>
<text text-anchor="middle" x="351.5" y="-69" font-family="Helvetica,sans-Serif" font-size="10.00">memory</text>
</g>
<!-- Node4&#45;&gt;Node5 -->
<g id="edge4" class="edge"><title>Node4&#45;&gt;Node5</title>
<path fill="none" stroke="midnightblue" d="M163.021,-123.475C203.303,-112.58 272.885,-93.7618 315.298,-82.291"/>
<polygon fill="midnightblue" stroke="midnightblue" points="316.464,-85.6014 325.204,-79.612 314.637,-78.8442 316.464,-85.6014"/>
</g>
<!-- Node8&#45;&gt;Node4 -->
<g id="edge19" class="edge"><title>Node8&#45;&gt;Node4</title>
<path fill="none" stroke="midnightblue" d="M549.841,-180.292C461.419,-170.507 309.057,-153.648 214.644,-143.2"/>
<polygon fill="midnightblue" stroke="midnightblue" points="214.885,-139.706 204.561,-142.085 214.115,-146.663 214.885,-139.706"/>
</g>
<!-- Node8&#45;&gt;Node5 -->
<g id="edge11" class="edge"><title>Node8&#45;&gt;Node5</title>
<path fill="none" stroke="midnightblue" d="M615.591,-179.286C608.773,-165.135 593.323,-137.303 571.5,-123 514.791,-85.8318 434.242,-75.8369 387.983,-73.2626"/>
<polygon fill="midnightblue" stroke="midnightblue" points="387.978,-69.7586 377.825,-72.7867 387.65,-76.7509 387.978,-69.7586"/>
</g>
<!-- Node8&#45;&gt;Node7 -->
<g id="edge8" class="edge"><title>Node8&#45;&gt;Node7</title>
<path fill="none" stroke="midnightblue" d="M594.306,-179.444C566.456,-169.985 521.574,-154.742 491.567,-144.551"/>
<polygon fill="midnightblue" stroke="midnightblue" points="492.601,-141.206 482.007,-141.304 490.35,-147.834 492.601,-141.206"/>
</g>
<!-- Node9 -->
<g id="node9" class="node"><title>Node9</title>
<polygon fill="white" stroke="#bfbfbf" points="991,-123.5 991,-142.5 1036,-142.5 1036,-123.5 991,-123.5"/>
<text text-anchor="middle" x="1013.5" y="-130.5" font-family="Helvetica,sans-Serif" font-size="10.00">cstdlib</text>
</g>
<!-- Node8&#45;&gt;Node9 -->
<g id="edge9" class="edge"><title>Node8&#45;&gt;Node9</title>
<path fill="none" stroke="midnightblue" d="M689.1,-179.657C784.964,-168.1 948.968,-148.067 976.5,-143 977.963,-142.731 979.454,-142.439 980.958,-142.132"/>
<polygon fill="midnightblue" stroke="midnightblue" points="981.884,-145.512 990.889,-139.93 980.368,-138.678 981.884,-145.512"/>
</g>
<!-- Node10 -->
<g id="node10" class="node"><title>Node10</title>
<polygon fill="white" stroke="#bfbfbf" points="1054,-123.5 1054,-142.5 1113,-142.5 1113,-123.5 1054,-123.5"/>
<text text-anchor="middle" x="1083.5" y="-130.5" font-family="Helvetica,sans-Serif" font-size="10.00">exception</text>
</g>
<!-- Node8&#45;&gt;Node10 -->
<g id="edge10" class="edge"><title>Node8&#45;&gt;Node10</title>
<path fill="none" stroke="midnightblue" d="M689.283,-180.013C692.397,-179.668 695.481,-179.329 698.5,-179 848.896,-162.609 890.235,-168.176 1043.51,-142.965"/>
<polygon fill="midnightblue" stroke="midnightblue" points="1044.47,-146.352 1053.76,-141.259 1043.33,-139.447 1044.47,-146.352"/>
</g>
<!-- Node11 -->
<g id="node11" class="node"><title>Node11</title>
<polygon fill="white" stroke="#bfbfbf" points="223,-123.5 223,-142.5 264,-142.5 264,-123.5 223,-123.5"/>
<text text-anchor="middle" x="243.5" y="-130.5" font-family="Helvetica,sans-Serif" font-size="10.00">string</text>
</g>
<!-- Node8&#45;&gt;Node11 -->
<g id="edge12" class="edge"><title>Node8&#45;&gt;Node11</title>
<path fill="none" stroke="midnightblue" d="M549.68,-182.27C481.661,-175.931 375.264,-164.01 274.127,-142.792"/>
<polygon fill="midnightblue" stroke="midnightblue" points="274.553,-139.304 264.043,-140.641 273.093,-146.15 274.553,-139.304"/>
</g>
<!-- Node12 -->
<g id="node12" class="node"><title>Node12</title>
<polygon fill="white" stroke="#bfbfbf" points="500.5,-123.5 500.5,-142.5 562.5,-142.5 562.5,-123.5 500.5,-123.5"/>
<text text-anchor="middle" x="531.5" y="-130.5" font-family="Helvetica,sans-Serif" font-size="10.00">type_traits</text>
</g>
<!-- Node8&#45;&gt;Node12 -->
<g id="edge13" class="edge"><title>Node8&#45;&gt;Node12</title>
<path fill="none" stroke="midnightblue" d="M605.361,-179.324C591.634,-170.9 570.564,-157.971 554.436,-148.074"/>
<polygon fill="midnightblue" stroke="midnightblue" points="555.957,-144.902 545.604,-142.655 552.296,-150.868 555.957,-144.902"/>
</g>
<!-- Node13 -->
<g id="node13" class="node"><title>Node13</title>
<polygon fill="white" stroke="#bfbfbf" points="619,-123.5 619,-142.5 678,-142.5 678,-123.5 619,-123.5"/>
<text text-anchor="middle" x="648.5" y="-130.5" font-family="Helvetica,sans-Serif" font-size="10.00">typeindex</text>
</g>
<!-- Node8&#45;&gt;Node13 -->
<g id="edge14" class="edge"><title>Node8&#45;&gt;Node13</title>
<path fill="none" stroke="midnightblue" d="M624.289,-179.083C628.258,-171.691 634.025,-160.953 638.935,-151.811"/>
<polygon fill="midnightblue" stroke="midnightblue" points="642.153,-153.217 643.8,-142.751 635.986,-149.905 642.153,-153.217"/>
</g>
<!-- Node14 -->
<g id="node14" class="node"><title>Node14</title>
<polygon fill="white" stroke="#bfbfbf" points="696.5,-123.5 696.5,-142.5 740.5,-142.5 740.5,-123.5 696.5,-123.5"/>
<text text-anchor="middle" x="718.5" y="-130.5" font-family="Helvetica,sans-Serif" font-size="10.00">vector</text>
</g>
<!-- Node8&#45;&gt;Node14 -->
<g id="edge15" class="edge"><title>Node8&#45;&gt;Node14</title>
<path fill="none" stroke="midnightblue" d="M635.406,-179.324C651.138,-170.743 675.442,-157.486 693.709,-147.522"/>
<polygon fill="midnightblue" stroke="midnightblue" points="695.53,-150.516 702.633,-142.655 692.178,-144.37 695.53,-150.516"/>
</g>
<!-- Node15 -->
<g id="node15" class="node"><title>Node15</title>
<g id="a_node15"><a xlink:href="basedefinitions_8h.xhtml" target="_top" xlink:title="Basic types and macros used throughout GROMACS. ">
<polygon fill="white" stroke="black" points="700,-62 700,-81 857,-81 857,-62 700,-62"/>
<text text-anchor="middle" x="778.5" y="-69" font-family="Helvetica,sans-Serif" font-size="10.00">gromacs/utility/basedefinitions.h</text>
</a>
</g>
</g>
<!-- Node8&#45;&gt;Node15 -->
<g id="edge16" class="edge"><title>Node8&#45;&gt;Node15</title>
<path fill="none" stroke="midnightblue" d="M675.217,-179.496C700.533,-173.142 729.273,-162.106 749.5,-143 764.055,-129.252 771.535,-107.133 775.219,-91.3375"/>
<polygon fill="midnightblue" stroke="midnightblue" points="778.725,-91.6593 777.277,-81.1638 771.864,-90.271 778.725,-91.6593"/>
</g>
<!-- Node18 -->
<g id="node18" class="node"><title>Node18</title>
<g id="a_node18"><a xlink:href="current__function_8h.xhtml" target="_top" xlink:title="Declares GMX_CURRENT_FUNCTION for getting the current function name. ">
<polygon fill="white" stroke="black" points="895,-56.5 895,-86.5 1008,-86.5 1008,-56.5 895,-56.5"/>
<text text-anchor="start" x="903" y="-74.5" font-family="Helvetica,sans-Serif" font-size="10.00">gromacs/utility/current</text>
<text text-anchor="middle" x="951.5" y="-63.5" font-family="Helvetica,sans-Serif" font-size="10.00">_function.h</text>
</a>
</g>
</g>
<!-- Node8&#45;&gt;Node18 -->
<g id="edge20" class="edge"><title>Node8&#45;&gt;Node18</title>
<path fill="none" stroke="midnightblue" d="M688.378,-179.458C781.904,-167.711 938.047,-147.504 942.5,-143 954.227,-131.138 956.079,-112.144 955.214,-96.8584"/>
<polygon fill="midnightblue" stroke="midnightblue" points="958.662,-96.1514 954.207,-86.5387 951.695,-96.8313 958.662,-96.1514"/>
</g>
<!-- Node19 -->
<g id="node19" class="node"><title>Node19</title>
<g id="a_node19"><a xlink:href="gmxassert_8h.xhtml" target="_top" xlink:title="Defines assert macros customized for Gromacs. ">
<polygon fill="white" stroke="black" points="797,-123.5 797,-142.5 934,-142.5 934,-123.5 797,-123.5"/>
<text text-anchor="middle" x="865.5" y="-130.5" font-family="Helvetica,sans-Serif" font-size="10.00">gromacs/utility/gmxassert.h</text>
</a>
</g>
</g>
<!-- Node8&#45;&gt;Node19 -->
<g id="edge21" class="edge"><title>Node8&#45;&gt;Node19</title>
<path fill="none" stroke="midnightblue" d="M658.479,-179.444C701.394,-170.023 770.446,-154.866 816.869,-144.675"/>
<polygon fill="midnightblue" stroke="midnightblue" points="817.686,-148.079 826.703,-142.516 816.185,-141.242 817.686,-148.079"/>
</g>
<!-- Node16 -->
<g id="node16" class="node"><title>Node16</title>
<polygon fill="white" stroke="#bfbfbf" points="718,-0.5 718,-19.5 767,-19.5 767,-0.5 718,-0.5"/>
<text text-anchor="middle" x="742.5" y="-7.5" font-family="Helvetica,sans-Serif" font-size="10.00">stdint.h</text>
</g>
<!-- Node15&#45;&gt;Node16 -->
<g id="edge17" class="edge"><title>Node15&#45;&gt;Node16</title>
<path fill="none" stroke="midnightblue" d="M773.342,-61.9751C768.049,-53.2268 759.665,-39.3691 752.973,-28.3093"/>
<polygon fill="midnightblue" stroke="midnightblue" points="755.82,-26.2531 747.648,-19.5091 749.83,-29.8768 755.82,-26.2531"/>
</g>
<!-- Node17 -->
<g id="node17" class="node"><title>Node17</title>
<polygon fill="white" stroke="#bfbfbf" points="785,-0.5 785,-19.5 844,-19.5 844,-0.5 785,-0.5"/>
<text text-anchor="middle" x="814.5" y="-7.5" font-family="Helvetica,sans-Serif" font-size="10.00">inttypes.h</text>
</g>
<!-- Node15&#45;&gt;Node17 -->
<g id="edge18" class="edge"><title>Node15&#45;&gt;Node17</title>
<path fill="none" stroke="midnightblue" d="M783.658,-61.9751C788.951,-53.2268 797.335,-39.3691 804.027,-28.3093"/>
<polygon fill="midnightblue" stroke="midnightblue" points="807.17,-29.8768 809.352,-19.5091 801.18,-26.2531 807.17,-29.8768"/>
</g>
<!-- Node19&#45;&gt;Node15 -->
<g id="edge22" class="edge"><title>Node19&#45;&gt;Node15</title>
<path fill="none" stroke="midnightblue" d="M853.035,-123.475C839.081,-113.931 816.235,-98.3073 799.509,-86.8683"/>
<polygon fill="midnightblue" stroke="midnightblue" points="801.172,-83.7653 790.942,-81.0091 797.22,-89.5433 801.172,-83.7653"/>
</g>
<!-- Node19&#45;&gt;Node18 -->
<g id="edge23" class="edge"><title>Node19&#45;&gt;Node18</title>
<path fill="none" stroke="midnightblue" d="M877.822,-123.475C889.469,-115.417 907.383,-103.023 922.63,-92.4741"/>
<polygon fill="midnightblue" stroke="midnightblue" points="924.999,-95.0909 931.232,-86.523 921.016,-89.3343 924.999,-95.0909"/>
</g>
<!-- Node20&#45;&gt;Node4 -->
<g id="edge27" class="edge"><title>Node20&#45;&gt;Node4</title>
<path fill="none" stroke="midnightblue" d="M340.204,-179.444C296.941,-170.023 227.327,-154.866 180.527,-144.675"/>
<polygon fill="midnightblue" stroke="midnightblue" points="181.128,-141.224 170.612,-142.516 179.639,-148.064 181.128,-141.224"/>
</g>
<!-- Node20&#45;&gt;Node7 -->
<g id="edge25" class="edge"><title>Node20&#45;&gt;Node7</title>
<path fill="none" stroke="midnightblue" d="M392.514,-179.324C405.032,-170.979 424.182,-158.212 438.971,-148.352"/>
<polygon fill="midnightblue" stroke="midnightblue" points="441.139,-151.114 447.518,-142.655 437.256,-145.289 441.139,-151.114"/>
</g>
<!-- Node20&#45;&gt;Node11 -->
<g id="edge26" class="edge"><title>Node20&#45;&gt;Node11</title>
<path fill="none" stroke="midnightblue" d="M357.95,-179.444C335.204,-170.412 299.176,-156.107 273.625,-145.961"/>
<polygon fill="midnightblue" stroke="midnightblue" points="274.644,-142.6 264.059,-142.163 272.061,-149.106 274.644,-142.6"/>
</g>
<!-- Node21 -->
<g id="node21" class="node"><title>Node21</title>
<g id="a_node21"><a xlink:href="textstream_8h.xhtml" target="_top" xlink:title="Declares interfaces for simple input/output streams. ">
<polygon fill="white" stroke="black" points="282.5,-123.5 282.5,-142.5 420.5,-142.5 420.5,-123.5 282.5,-123.5"/>
<text text-anchor="middle" x="351.5" y="-130.5" font-family="Helvetica,sans-Serif" font-size="10.00">gromacs/utility/textstream.h</text>
</a>
</g>
</g>
<!-- Node20&#45;&gt;Node21 -->
<g id="edge28" class="edge"><title>Node20&#45;&gt;Node21</title>
<path fill="none" stroke="midnightblue" d="M374.876,-179.083C371.044,-171.691 365.476,-160.953 360.735,-151.811"/>
<polygon fill="midnightblue" stroke="midnightblue" points="363.748,-150.018 356.038,-142.751 357.534,-153.24 363.748,-150.018"/>
</g>
<!-- Node21&#45;&gt;Node5 -->
<g id="edge29" class="edge"><title>Node21&#45;&gt;Node5</title>
<path fill="none" stroke="midnightblue" d="M351.5,-123.475C351.5,-115.08 351.5,-101.981 351.5,-91.1631"/>
<polygon fill="midnightblue" stroke="midnightblue" points="355,-91.0091 351.5,-81.0091 348,-91.0091 355,-91.0091"/>
</g>
<!-- Node22&#45;&gt;Node4 -->
<g id="edge32" class="edge"><title>Node22&#45;&gt;Node4</title>
<path fill="none" stroke="midnightblue" d="M214.594,-179.324C198.862,-170.743 174.558,-157.486 156.291,-147.522"/>
<polygon fill="midnightblue" stroke="midnightblue" points="157.822,-144.37 147.367,-142.655 154.47,-150.516 157.822,-144.37"/>
</g>
<!-- Node22&#45;&gt;Node11 -->
<g id="edge31" class="edge"><title>Node22&#45;&gt;Node11</title>
<path fill="none" stroke="midnightblue" d="M232.647,-179.083C234.369,-171.927 236.847,-161.635 239,-152.691"/>
<polygon fill="midnightblue" stroke="midnightblue" points="242.455,-153.293 241.393,-142.751 235.65,-151.654 242.455,-153.293"/>
</g>
</g>
</svg>
