<?xml version="1.0" encoding="UTF-8" standalone="no"?>
<!DOCTYPE svg PUBLIC "-//W3C//DTD SVG 1.1//EN"
 "http://www.w3.org/Graphics/SVG/1.1/DTD/svg11.dtd">
<!-- Generated by graphviz version 2.38.0 (20140413.2041)
 -->
<!-- Title: src/testutils/stringtest.cpp Pages: 1 -->
<svg width="1298pt" height="319pt"
 viewBox="0.00 0.00 1298.00 319.00" xmlns="http://www.w3.org/2000/svg" xmlns:xlink="http://www.w3.org/1999/xlink">
<g id="graph0" class="graph" transform="scale(1 1) rotate(0) translate(4 315)">
<title>src/testutils/stringtest.cpp</title>
<polygon fill="white" stroke="none" points="-4,4 -4,-315 1294,-315 1294,4 -4,4"/>
<!-- Node1 -->
<g id="node1" class="node"><title>Node1</title>
<polygon fill="#bfbfbf" stroke="black" points="304.5,-291.5 304.5,-310.5 434.5,-310.5 434.5,-291.5 304.5,-291.5"/>
<text text-anchor="middle" x="369.5" y="-298.5" font-family="Helvetica,sans-Serif" font-size="10.00">src/testutils/stringtest.cpp</text>
</g>
<!-- Node2 -->
<g id="node2" class="node"><title>Node2</title>
<g id="a_node2"><a xlink:href="gmxpre_8h.xhtml" target="_top" xlink:title="Prerequisite header file for GROMACS build. ">
<polygon fill="white" stroke="black" points="171,-235.5 171,-254.5 228,-254.5 228,-235.5 171,-235.5"/>
<text text-anchor="middle" x="199.5" y="-242.5" font-family="Helvetica,sans-Serif" font-size="10.00">gmxpre.h</text>
</a>
</g>
</g>
<!-- Node1&#45;&gt;Node2 -->
<g id="edge1" class="edge"><title>Node1&#45;&gt;Node2</title>
<path fill="none" stroke="midnightblue" d="M342.563,-291.444C313.84,-282.32 268.171,-267.813 236.179,-257.651"/>
<polygon fill="midnightblue" stroke="midnightblue" points="236.901,-254.208 226.311,-254.516 234.782,-260.88 236.901,-254.208"/>
</g>
<!-- Node3 -->
<g id="node3" class="node"><title>Node3</title>
<g id="a_node3"><a xlink:href="stringtest_8h.xhtml" target="_top" xlink:title="Declares gmx::test::StringTestBase. ">
<polygon fill="white" stroke="black" points="86,-179.5 86,-198.5 151,-198.5 151,-179.5 86,-179.5"/>
<text text-anchor="middle" x="118.5" y="-186.5" font-family="Helvetica,sans-Serif" font-size="10.00">stringtest.h</text>
</a>
</g>
</g>
<!-- Node1&#45;&gt;Node3 -->
<g id="edge2" class="edge"><title>Node1&#45;&gt;Node3</title>
<path fill="none" stroke="midnightblue" d="M352.93,-291.301C327.989,-278.344 279.172,-253.519 236.5,-235 208.518,-222.856 176.099,-210.621 152.331,-201.981"/>
<polygon fill="midnightblue" stroke="midnightblue" points="153.306,-198.612 142.712,-198.508 150.929,-205.196 153.306,-198.612"/>
</g>
<!-- Node4 -->
<g id="node4" class="node"><title>Node4</title>
<polygon fill="white" stroke="#bfbfbf" points="246,-123.5 246,-142.5 287,-142.5 287,-123.5 246,-123.5"/>
<text text-anchor="middle" x="266.5" y="-130.5" font-family="Helvetica,sans-Serif" font-size="10.00">string</text>
</g>
<!-- Node1&#45;&gt;Node4 -->
<g id="edge7" class="edge"><title>Node1&#45;&gt;Node4</title>
<path fill="none" stroke="midnightblue" d="M366.591,-291.222C359.46,-270.462 339.69,-217.222 312.5,-179 304.765,-168.127 294.235,-157.604 285.201,-149.472"/>
<polygon fill="midnightblue" stroke="midnightblue" points="287.293,-146.652 277.449,-142.734 282.701,-151.936 287.293,-146.652"/>
</g>
<!-- Node8 -->
<g id="node8" class="node"><title>Node8</title>
<g id="a_node8"><a xlink:href="basicoptions_8h.xhtml" target="_top" xlink:title="Declares option objects for basic option types. ">
<polygon fill="white" stroke="black" points="591,-235.5 591,-254.5 746,-254.5 746,-235.5 591,-235.5"/>
<text text-anchor="middle" x="668.5" y="-242.5" font-family="Helvetica,sans-Serif" font-size="10.00">gromacs/options/basicoptions.h</text>
</a>
</g>
</g>
<!-- Node1&#45;&gt;Node8 -->
<g id="edge8" class="edge"><title>Node1&#45;&gt;Node8</title>
<path fill="none" stroke="midnightblue" d="M416.877,-291.444C469.584,-281.925 554.729,-266.547 611.157,-256.356"/>
<polygon fill="midnightblue" stroke="midnightblue" points="612.125,-259.738 621.344,-254.516 610.881,-252.849 612.125,-259.738"/>
</g>
<!-- Node25 -->
<g id="node25" class="node"><title>Node25</title>
<g id="a_node25"><a xlink:href="ioptionscontainer_8h.xhtml" target="_top" xlink:title="Declares gmx::IOptionsContainer. ">
<polygon fill="white" stroke="black" points="764,-235.5 764,-254.5 937,-254.5 937,-235.5 764,-235.5"/>
<text text-anchor="middle" x="850.5" y="-242.5" font-family="Helvetica,sans-Serif" font-size="10.00">gromacs/options/ioptionscontainer.h</text>
</a>
</g>
</g>
<!-- Node1&#45;&gt;Node25 -->
<g id="edge32" class="edge"><title>Node1&#45;&gt;Node25</title>
<path fill="none" stroke="midnightblue" d="M434.62,-292.689C519.927,-283.112 669.747,-266.292 764.364,-255.67"/>
<polygon fill="midnightblue" stroke="midnightblue" points="764.934,-259.128 774.481,-254.534 764.153,-252.172 764.934,-259.128"/>
</g>
<!-- Node26 -->
<g id="node26" class="node"><title>Node26</title>
<g id="a_node26"><a xlink:href="textreader_8h.xhtml" target="_top" xlink:title="Declares gmx::TextReader. ">
<polygon fill="white" stroke="black" points="169,-179.5 169,-198.5 304,-198.5 304,-179.5 169,-179.5"/>
<text text-anchor="middle" x="236.5" y="-186.5" font-family="Helvetica,sans-Serif" font-size="10.00">gromacs/utility/textreader.h</text>
</a>
</g>
</g>
<!-- Node1&#45;&gt;Node26 -->
<g id="edge35" class="edge"><title>Node1&#45;&gt;Node26</title>
<path fill="none" stroke="midnightblue" d="M359.064,-291.368C336.532,-272.733 283.089,-228.532 254.798,-205.134"/>
<polygon fill="midnightblue" stroke="midnightblue" points="256.824,-202.268 246.888,-198.591 252.363,-207.662 256.824,-202.268"/>
</g>
<!-- Node28 -->
<g id="node28" class="node"><title>Node28</title>
<g id="a_node28"><a xlink:href="refdata_8h.xhtml" target="_top" xlink:title="Functionality for writing tests that can produce their own reference data. ">
<polygon fill="white" stroke="black" points="398.5,-179.5 398.5,-198.5 490.5,-198.5 490.5,-179.5 398.5,-179.5"/>
<text text-anchor="middle" x="444.5" y="-186.5" font-family="Helvetica,sans-Serif" font-size="10.00">testutils/refdata.h</text>
</a>
</g>
</g>
<!-- Node1&#45;&gt;Node28 -->
<g id="edge40" class="edge"><title>Node1&#45;&gt;Node28</title>
<path fill="none" stroke="midnightblue" d="M375.385,-291.368C387.762,-273.215 416.681,-230.802 432.916,-206.99"/>
<polygon fill="midnightblue" stroke="midnightblue" points="435.901,-208.825 438.642,-198.591 430.117,-204.882 435.901,-208.825"/>
</g>
<!-- Node29 -->
<g id="node29" class="node"><title>Node29</title>
<g id="a_node29"><a xlink:href="testoptions_8h.xhtml" target="_top" xlink:title="Functions for accessing test command&#45;line options. ">
<polygon fill="white" stroke="black" points="955.5,-235.5 955.5,-254.5 1065.5,-254.5 1065.5,-235.5 955.5,-235.5"/>
<text text-anchor="middle" x="1010.5" y="-242.5" font-family="Helvetica,sans-Serif" font-size="10.00">testutils/testoptions.h</text>
</a>
</g>
</g>
<!-- Node1&#45;&gt;Node29 -->
<g id="edge46" class="edge"><title>Node1&#45;&gt;Node29</title>
<path fill="none" stroke="midnightblue" d="M434.836,-296.169C539.943,-289.724 753.311,-275.485 945.219,-254.96"/>
<polygon fill="midnightblue" stroke="midnightblue" points="945.642,-258.435 955.209,-253.884 944.892,-251.475 945.642,-258.435"/>
</g>
<!-- Node3&#45;&gt;Node4 -->
<g id="edge3" class="edge"><title>Node3&#45;&gt;Node4</title>
<path fill="none" stroke="midnightblue" d="M141.951,-179.444C167.359,-170.173 207.995,-155.346 235.899,-145.165"/>
<polygon fill="midnightblue" stroke="midnightblue" points="237.357,-148.359 245.552,-141.643 234.958,-141.783 237.357,-148.359"/>
</g>
<!-- Node5 -->
<g id="node5" class="node"><title>Node5</title>
<polygon fill="white" stroke="#bfbfbf" points="0,-123.5 0,-142.5 71,-142.5 71,-123.5 0,-123.5"/>
<text text-anchor="middle" x="35.5" y="-130.5" font-family="Helvetica,sans-Serif" font-size="10.00">gtest/gtest.h</text>
</g>
<!-- Node3&#45;&gt;Node5 -->
<g id="edge4" class="edge"><title>Node3&#45;&gt;Node5</title>
<path fill="none" stroke="midnightblue" d="M105.165,-179.324C92.338,-170.979 72.715,-158.212 57.5602,-148.352"/>
<polygon fill="midnightblue" stroke="midnightblue" points="59.0932,-145.174 48.8023,-142.655 55.2757,-151.042 59.0932,-145.174"/>
</g>
<!-- Node6 -->
<g id="node6" class="node"><title>Node6</title>
<g id="a_node6"><a xlink:href="classhelpers_8h.xhtml" target="_top" xlink:title="Declares common utility classes and macros. ">
<polygon fill="white" stroke="black" points="305.5,-123.5 305.5,-142.5 451.5,-142.5 451.5,-123.5 305.5,-123.5"/>
<text text-anchor="middle" x="378.5" y="-130.5" font-family="Helvetica,sans-Serif" font-size="10.00">gromacs/utility/classhelpers.h</text>
</a>
</g>
</g>
<!-- Node3&#45;&gt;Node6 -->
<g id="edge5" class="edge"><title>Node3&#45;&gt;Node6</title>
<path fill="none" stroke="midnightblue" d="M151.165,-180.788C153.983,-180.179 156.791,-179.576 159.5,-179 216.386,-166.912 281.701,-153.56 326.093,-144.563"/>
<polygon fill="midnightblue" stroke="midnightblue" points="326.966,-147.957 336.072,-142.542 325.576,-141.097 326.966,-147.957"/>
</g>
<!-- Node7 -->
<g id="node7" class="node"><title>Node7</title>
<polygon fill="white" stroke="#bfbfbf" points="352.5,-62 352.5,-81 404.5,-81 404.5,-62 352.5,-62"/>
<text text-anchor="middle" x="378.5" y="-69" font-family="Helvetica,sans-Serif" font-size="10.00">memory</text>
</g>
<!-- Node6&#45;&gt;Node7 -->
<g id="edge6" class="edge"><title>Node6&#45;&gt;Node7</title>
<path fill="none" stroke="midnightblue" d="M378.5,-123.475C378.5,-115.08 378.5,-101.981 378.5,-91.1631"/>
<polygon fill="midnightblue" stroke="midnightblue" points="382,-91.0091 378.5,-81.0091 375,-91.0091 382,-91.0091"/>
</g>
<!-- Node8&#45;&gt;Node4 -->
<g id="edge9" class="edge"><title>Node8&#45;&gt;Node4</title>
<path fill="none" stroke="midnightblue" d="M590.798,-238.303C533.906,-232.503 455.45,-221.077 389.5,-199 369.557,-192.324 319.825,-164.65 290.064,-147.637"/>
<polygon fill="midnightblue" stroke="midnightblue" points="291.58,-144.472 281.165,-142.528 288.095,-150.542 291.58,-144.472"/>
</g>
<!-- Node9 -->
<g id="node9" class="node"><title>Node9</title>
<polygon fill="white" stroke="#bfbfbf" points="776.5,-123.5 776.5,-142.5 820.5,-142.5 820.5,-123.5 776.5,-123.5"/>
<text text-anchor="middle" x="798.5" y="-130.5" font-family="Helvetica,sans-Serif" font-size="10.00">vector</text>
</g>
<!-- Node8&#45;&gt;Node9 -->
<g id="edge10" class="edge"><title>Node8&#45;&gt;Node9</title>
<path fill="none" stroke="midnightblue" d="M734.512,-235.497C778.236,-228.354 829.948,-216.478 843.5,-199 856.51,-182.222 837.367,-161.987 820.178,-148.6"/>
<polygon fill="midnightblue" stroke="midnightblue" points="822.177,-145.725 812.046,-142.623 818.031,-151.365 822.177,-145.725"/>
</g>
<!-- Node10 -->
<g id="node10" class="node"><title>Node10</title>
<g id="a_node10"><a xlink:href="abstractoption_8h.xhtml" target="_top" xlink:title="Defines gmx::AbstractOption, gmx::OptionTemplate and gmx::OptionInfo. ">
<polygon fill="white" stroke="black" points="674,-179.5 674,-198.5 835,-198.5 835,-179.5 674,-179.5"/>
<text text-anchor="middle" x="754.5" y="-186.5" font-family="Helvetica,sans-Serif" font-size="10.00">gromacs/options/abstractoption.h</text>
</a>
</g>
</g>
<!-- Node8&#45;&gt;Node10 -->
<g id="edge11" class="edge"><title>Node8&#45;&gt;Node10</title>
<path fill="none" stroke="midnightblue" d="M682.317,-235.324C695.733,-226.9 716.324,-213.971 732.086,-204.074"/>
<polygon fill="midnightblue" stroke="midnightblue" points="734.109,-206.936 740.717,-198.655 730.387,-201.008 734.109,-206.936"/>
</g>
<!-- Node13 -->
<g id="node13" class="node"><title>Node13</title>
<g id="a_node13"><a xlink:href="ivaluestore_8h.xhtml" target="_top" xlink:title="Declares gmx::IOptionValueStore. ">
<polygon fill="white" stroke="black" points="509,-179.5 509,-198.5 656,-198.5 656,-179.5 509,-179.5"/>
<text text-anchor="middle" x="582.5" y="-186.5" font-family="Helvetica,sans-Serif" font-size="10.00">gromacs/options/ivaluestore.h</text>
</a>
</g>
</g>
<!-- Node8&#45;&gt;Node13 -->
<g id="edge17" class="edge"><title>Node8&#45;&gt;Node13</title>
<path fill="none" stroke="midnightblue" d="M654.683,-235.324C641.267,-226.9 620.676,-213.971 604.914,-204.074"/>
<polygon fill="midnightblue" stroke="midnightblue" points="606.613,-201.008 596.283,-198.655 602.891,-206.936 606.613,-201.008"/>
</g>
<!-- Node14 -->
<g id="node14" class="node"><title>Node14</title>
<g id="a_node14"><a xlink:href="arrayref_8h.xhtml" target="_top" xlink:title="Declares gmx::ArrayRef. ">
<polygon fill="white" stroke="black" points="892,-179.5 892,-198.5 1017,-198.5 1017,-179.5 892,-179.5"/>
<text text-anchor="middle" x="954.5" y="-186.5" font-family="Helvetica,sans-Serif" font-size="10.00">gromacs/utility/arrayref.h</text>
</a>
</g>
</g>
<!-- Node8&#45;&gt;Node14 -->
<g id="edge18" class="edge"><title>Node8&#45;&gt;Node14</title>
<path fill="none" stroke="midnightblue" d="M713.818,-235.444C764.128,-225.944 845.338,-210.611 899.313,-200.42"/>
<polygon fill="midnightblue" stroke="midnightblue" points="900.217,-203.811 909.394,-198.516 898.919,-196.933 900.217,-203.811"/>
</g>
<!-- Node20 -->
<g id="node20" class="node"><title>Node20</title>
<g id="a_node20"><a xlink:href="gmxassert_8h.xhtml" target="_top" xlink:title="Defines assert macros customized for Gromacs. ">
<polygon fill="white" stroke="black" points="1137,-123.5 1137,-142.5 1274,-142.5 1274,-123.5 1137,-123.5"/>
<text text-anchor="middle" x="1205.5" y="-130.5" font-family="Helvetica,sans-Serif" font-size="10.00">gromacs/utility/gmxassert.h</text>
</a>
</g>
</g>
<!-- Node8&#45;&gt;Node20 -->
<g id="edge31" class="edge"><title>Node8&#45;&gt;Node20</title>
<path fill="none" stroke="midnightblue" d="M746.313,-235.833C749.076,-235.551 751.812,-235.272 754.5,-235 918.001,-218.448 969.944,-260.1 1122.5,-199 1149.7,-188.106 1175.34,-165.417 1190.73,-149.946"/>
<polygon fill="midnightblue" stroke="midnightblue" points="1193.38,-152.242 1197.8,-142.614 1188.34,-147.383 1193.38,-152.242"/>
</g>
<!-- Node21 -->
<g id="node21" class="node"><title>Node21</title>
<g id="a_node21"><a xlink:href="basedefinitions_8h.xhtml" target="_top" xlink:title="Basic types and macros used throughout GROMACS. ">
<polygon fill="white" stroke="black" points="1002,-62 1002,-81 1159,-81 1159,-62 1002,-62"/>
<text text-anchor="middle" x="1080.5" y="-69" font-family="Helvetica,sans-Serif" font-size="10.00">gromacs/utility/basedefinitions.h</text>
</a>
</g>
</g>
<!-- Node8&#45;&gt;Node21 -->
<g id="edge30" class="edge"><title>Node8&#45;&gt;Node21</title>
<path fill="none" stroke="midnightblue" d="M745.479,-235.455C846.588,-224.061 1012.87,-204.67 1025.5,-199 1059.98,-183.515 1073.88,-177.418 1089.5,-143 1097.05,-126.363 1092.86,-105.388 1087.98,-90.6577"/>
<polygon fill="midnightblue" stroke="midnightblue" points="1091.22,-89.3441 1084.46,-81.1869 1084.66,-91.7799 1091.22,-89.3441"/>
</g>
<!-- Node10&#45;&gt;Node4 -->
<g id="edge12" class="edge"><title>Node10&#45;&gt;Node4</title>
<path fill="none" stroke="midnightblue" d="M673.548,-179.896C670.493,-179.593 667.469,-179.294 664.5,-179 504.156,-163.14 459.472,-174.305 296.883,-142.671"/>
<polygon fill="midnightblue" stroke="midnightblue" points="297.513,-139.228 287.025,-140.73 296.16,-146.096 297.513,-139.228"/>
</g>
<!-- Node10&#45;&gt;Node6 -->
<g id="edge16" class="edge"><title>Node10&#45;&gt;Node6</title>
<path fill="none" stroke="midnightblue" d="M694.922,-179.444C627.817,-169.806 518.897,-154.163 447.978,-143.978"/>
<polygon fill="midnightblue" stroke="midnightblue" points="448.196,-140.474 437.8,-142.516 447.2,-147.403 448.196,-140.474"/>
</g>
<!-- Node10&#45;&gt;Node9 -->
<g id="edge13" class="edge"><title>Node10&#45;&gt;Node9</title>
<path fill="none" stroke="midnightblue" d="M761.766,-179.083C768.045,-171.377 777.288,-160.033 784.931,-150.653"/>
<polygon fill="midnightblue" stroke="midnightblue" points="787.766,-152.714 791.369,-142.751 782.339,-148.293 787.766,-152.714"/>
</g>
<!-- Node11 -->
<g id="node11" class="node"><title>Node11</title>
<g id="a_node11"><a xlink:href="optionflags_8h.xhtml" target="_top" xlink:title="Defines flags used in option implementation. ">
<polygon fill="white" stroke="black" points="546,-123.5 546,-142.5 693,-142.5 693,-123.5 546,-123.5"/>
<text text-anchor="middle" x="619.5" y="-130.5" font-family="Helvetica,sans-Serif" font-size="10.00">gromacs/options/optionflags.h</text>
</a>
</g>
</g>
<!-- Node10&#45;&gt;Node11 -->
<g id="edge14" class="edge"><title>Node10&#45;&gt;Node11</title>
<path fill="none" stroke="midnightblue" d="M733.109,-179.444C710.793,-170.517 675.597,-156.439 650.292,-146.317"/>
<polygon fill="midnightblue" stroke="midnightblue" points="651.376,-142.981 640.791,-142.516 648.776,-149.48 651.376,-142.981"/>
</g>
<!-- Node12 -->
<g id="node12" class="node"><title>Node12</title>
<g id="a_node12"><a xlink:href="flags_8h.xhtml" target="_top" xlink:title="Declares gmx::FlagsTemplate. ">
<polygon fill="white" stroke="black" points="563,-62 563,-81 676,-81 676,-62 563,-62"/>
<text text-anchor="middle" x="619.5" y="-69" font-family="Helvetica,sans-Serif" font-size="10.00">gromacs/utility/flags.h</text>
</a>
</g>
</g>
<!-- Node11&#45;&gt;Node12 -->
<g id="edge15" class="edge"><title>Node11&#45;&gt;Node12</title>
<path fill="none" stroke="midnightblue" d="M619.5,-123.475C619.5,-115.08 619.5,-101.981 619.5,-91.1631"/>
<polygon fill="midnightblue" stroke="midnightblue" points="623,-91.0091 619.5,-81.0091 616,-91.0091 623,-91.0091"/>
</g>
<!-- Node14&#45;&gt;Node9 -->
<g id="edge24" class="edge"><title>Node14&#45;&gt;Node9</title>
<path fill="none" stroke="midnightblue" d="M929.781,-179.444C902.883,-170.133 859.791,-155.216 830.369,-145.032"/>
<polygon fill="midnightblue" stroke="midnightblue" points="831.176,-141.607 820.581,-141.643 828.886,-148.222 831.176,-141.607"/>
</g>
<!-- Node15 -->
<g id="node15" class="node"><title>Node15</title>
<polygon fill="white" stroke="#bfbfbf" points="839,-123.5 839,-142.5 888,-142.5 888,-123.5 839,-123.5"/>
<text text-anchor="middle" x="863.5" y="-130.5" font-family="Helvetica,sans-Serif" font-size="10.00">cstddef</text>
</g>
<!-- Node14&#45;&gt;Node15 -->
<g id="edge19" class="edge"><title>Node14&#45;&gt;Node15</title>
<path fill="none" stroke="midnightblue" d="M939.879,-179.324C925.551,-170.822 903.487,-157.729 886.751,-147.797"/>
<polygon fill="midnightblue" stroke="midnightblue" points="888.47,-144.748 878.084,-142.655 884.898,-150.768 888.47,-144.748"/>
</g>
<!-- Node16 -->
<g id="node16" class="node"><title>Node16</title>
<polygon fill="white" stroke="#bfbfbf" points="906.5,-123.5 906.5,-142.5 944.5,-142.5 944.5,-123.5 906.5,-123.5"/>
<text text-anchor="middle" x="925.5" y="-130.5" font-family="Helvetica,sans-Serif" font-size="10.00">array</text>
</g>
<!-- Node14&#45;&gt;Node16 -->
<g id="edge20" class="edge"><title>Node14&#45;&gt;Node16</title>
<path fill="none" stroke="midnightblue" d="M949.711,-179.083C945.742,-171.691 939.975,-160.953 935.065,-151.811"/>
<polygon fill="midnightblue" stroke="midnightblue" points="938.014,-149.905 930.2,-142.751 931.847,-153.217 938.014,-149.905"/>
</g>
<!-- Node17 -->
<g id="node17" class="node"><title>Node17</title>
<polygon fill="white" stroke="#bfbfbf" points="711,-123.5 711,-142.5 758,-142.5 758,-123.5 711,-123.5"/>
<text text-anchor="middle" x="734.5" y="-130.5" font-family="Helvetica,sans-Serif" font-size="10.00">iterator</text>
</g>
<!-- Node14&#45;&gt;Node17 -->
<g id="edge21" class="edge"><title>Node14&#45;&gt;Node17</title>
<path fill="none" stroke="midnightblue" d="M917.518,-179.447C881.802,-171.11 825.943,-157.87 768.291,-143.145"/>
<polygon fill="midnightblue" stroke="midnightblue" points="768.826,-139.669 758.27,-140.575 767.087,-146.449 768.826,-139.669"/>
</g>
<!-- Node18 -->
<g id="node18" class="node"><title>Node18</title>
<polygon fill="white" stroke="#bfbfbf" points="963,-123.5 963,-142.5 1022,-142.5 1022,-123.5 963,-123.5"/>
<text text-anchor="middle" x="992.5" y="-130.5" font-family="Helvetica,sans-Serif" font-size="10.00">stdexcept</text>
</g>
<!-- Node14&#45;&gt;Node18 -->
<g id="edge22" class="edge"><title>Node14&#45;&gt;Node18</title>
<path fill="none" stroke="midnightblue" d="M960.775,-179.083C966.142,-171.455 974.018,-160.264 980.579,-150.941"/>
<polygon fill="midnightblue" stroke="midnightblue" points="983.449,-152.943 986.342,-142.751 977.725,-148.915 983.449,-152.943"/>
</g>
<!-- Node19 -->
<g id="node19" class="node"><title>Node19</title>
<polygon fill="white" stroke="#bfbfbf" points="1040.5,-123.5 1040.5,-142.5 1080.5,-142.5 1080.5,-123.5 1040.5,-123.5"/>
<text text-anchor="middle" x="1060.5" y="-130.5" font-family="Helvetica,sans-Serif" font-size="10.00">utility</text>
</g>
<!-- Node14&#45;&gt;Node19 -->
<g id="edge23" class="edge"><title>Node14&#45;&gt;Node19</title>
<path fill="none" stroke="midnightblue" d="M971.531,-179.324C988.53,-170.664 1014.88,-157.242 1034.49,-147.249"/>
<polygon fill="midnightblue" stroke="midnightblue" points="1036.19,-150.312 1043.51,-142.655 1033.01,-144.075 1036.19,-150.312"/>
</g>
<!-- Node14&#45;&gt;Node20 -->
<g id="edge25" class="edge"><title>Node14&#45;&gt;Node20</title>
<path fill="none" stroke="midnightblue" d="M994.272,-179.444C1038.06,-170.023 1108.51,-154.866 1155.88,-144.675"/>
<polygon fill="midnightblue" stroke="midnightblue" points="1156.87,-148.041 1165.91,-142.516 1155.4,-141.198 1156.87,-148.041"/>
</g>
<!-- Node20&#45;&gt;Node21 -->
<g id="edge26" class="edge"><title>Node20&#45;&gt;Node21</title>
<path fill="none" stroke="midnightblue" d="M1187.59,-123.475C1166.61,-113.49 1131.65,-96.8476 1107.41,-85.3075"/>
<polygon fill="midnightblue" stroke="midnightblue" points="1108.91,-82.1468 1098.38,-81.0091 1105.9,-88.4673 1108.91,-82.1468"/>
</g>
<!-- Node24 -->
<g id="node24" class="node"><title>Node24</title>
<g id="a_node24"><a xlink:href="current__function_8h.xhtml" target="_top" xlink:title="Declares GMX_CURRENT_FUNCTION for getting the current function name. ">
<polygon fill="white" stroke="black" points="1177,-56.5 1177,-86.5 1290,-86.5 1290,-56.5 1177,-56.5"/>
<text text-anchor="start" x="1185" y="-74.5" font-family="Helvetica,sans-Serif" font-size="10.00">gromacs/utility/current</text>
<text text-anchor="middle" x="1233.5" y="-63.5" font-family="Helvetica,sans-Serif" font-size="10.00">_function.h</text>
</a>
</g>
</g>
<!-- Node20&#45;&gt;Node24 -->
<g id="edge29" class="edge"><title>Node20&#45;&gt;Node24</title>
<path fill="none" stroke="midnightblue" d="M1209.51,-123.475C1212.91,-116.245 1217.96,-105.525 1222.55,-95.7792"/>
<polygon fill="midnightblue" stroke="midnightblue" points="1225.81,-97.0615 1226.9,-86.523 1219.48,-94.0809 1225.81,-97.0615"/>
</g>
<!-- Node22 -->
<g id="node22" class="node"><title>Node22</title>
<polygon fill="white" stroke="#bfbfbf" points="1020,-0.5 1020,-19.5 1069,-19.5 1069,-0.5 1020,-0.5"/>
<text text-anchor="middle" x="1044.5" y="-7.5" font-family="Helvetica,sans-Serif" font-size="10.00">stdint.h</text>
</g>
<!-- Node21&#45;&gt;Node22 -->
<g id="edge27" class="edge"><title>Node21&#45;&gt;Node22</title>
<path fill="none" stroke="midnightblue" d="M1075.34,-61.9751C1070.05,-53.2268 1061.66,-39.3691 1054.97,-28.3093"/>
<polygon fill="midnightblue" stroke="midnightblue" points="1057.82,-26.2531 1049.65,-19.5091 1051.83,-29.8768 1057.82,-26.2531"/>
</g>
<!-- Node23 -->
<g id="node23" class="node"><title>Node23</title>
<polygon fill="white" stroke="#bfbfbf" points="1087,-0.5 1087,-19.5 1146,-19.5 1146,-0.5 1087,-0.5"/>
<text text-anchor="middle" x="1116.5" y="-7.5" font-family="Helvetica,sans-Serif" font-size="10.00">inttypes.h</text>
</g>
<!-- Node21&#45;&gt;Node23 -->
<g id="edge28" class="edge"><title>Node21&#45;&gt;Node23</title>
<path fill="none" stroke="midnightblue" d="M1085.66,-61.9751C1090.95,-53.2268 1099.34,-39.3691 1106.03,-28.3093"/>
<polygon fill="midnightblue" stroke="midnightblue" points="1109.17,-29.8768 1111.35,-19.5091 1103.18,-26.2531 1109.17,-29.8768"/>
</g>
<!-- Node25&#45;&gt;Node10 -->
<g id="edge33" class="edge"><title>Node25&#45;&gt;Node10</title>
<path fill="none" stroke="midnightblue" d="M835.076,-235.324C819.96,-226.822 796.685,-213.729 779.029,-203.797"/>
<polygon fill="midnightblue" stroke="midnightblue" points="780.317,-200.507 769.886,-198.655 776.886,-206.608 780.317,-200.507"/>
</g>
<!-- Node25&#45;&gt;Node20 -->
<g id="edge34" class="edge"><title>Node25&#45;&gt;Node20</title>
<path fill="none" stroke="midnightblue" d="M937.063,-235.876C1025.22,-226.961 1151.6,-212.165 1170.5,-199 1186.24,-188.038 1195.54,-167.675 1200.55,-152.652"/>
<polygon fill="midnightblue" stroke="midnightblue" points="1203.96,-153.45 1203.47,-142.866 1197.26,-151.448 1203.96,-153.45"/>
</g>
<!-- Node26&#45;&gt;Node4 -->
<g id="edge36" class="edge"><title>Node26&#45;&gt;Node4</title>
<path fill="none" stroke="midnightblue" d="M241.454,-179.083C245.604,-171.613 251.653,-160.724 256.767,-151.52"/>
<polygon fill="midnightblue" stroke="midnightblue" points="259.841,-153.192 261.638,-142.751 253.722,-149.793 259.841,-153.192"/>
</g>
<!-- Node26&#45;&gt;Node6 -->
<g id="edge37" class="edge"><title>Node26&#45;&gt;Node6</title>
<path fill="none" stroke="midnightblue" d="M259,-179.444C282.577,-170.478 319.822,-156.314 346.464,-146.183"/>
<polygon fill="midnightblue" stroke="midnightblue" points="348.002,-149.342 356.105,-142.516 345.514,-142.8 348.002,-149.342"/>
</g>
<!-- Node27 -->
<g id="node27" class="node"><title>Node27</title>
<g id="a_node27"><a xlink:href="textstream_8h.xhtml" target="_top" xlink:title="Declares interfaces for simple input/output streams. ">
<polygon fill="white" stroke="black" points="89.5,-123.5 89.5,-142.5 227.5,-142.5 227.5,-123.5 89.5,-123.5"/>
<text text-anchor="middle" x="158.5" y="-130.5" font-family="Helvetica,sans-Serif" font-size="10.00">gromacs/utility/textstream.h</text>
</a>
</g>
</g>
<!-- Node26&#45;&gt;Node27 -->
<g id="edge38" class="edge"><title>Node26&#45;&gt;Node27</title>
<path fill="none" stroke="midnightblue" d="M223.968,-179.324C211.914,-170.979 193.473,-158.212 179.231,-148.352"/>
<polygon fill="midnightblue" stroke="midnightblue" points="181.215,-145.469 171.001,-142.655 177.231,-151.224 181.215,-145.469"/>
</g>
<!-- Node27&#45;&gt;Node7 -->
<g id="edge39" class="edge"><title>Node27&#45;&gt;Node7</title>
<path fill="none" stroke="midnightblue" d="M190.021,-123.475C230.303,-112.58 299.885,-93.7618 342.298,-82.291"/>
<polygon fill="midnightblue" stroke="midnightblue" points="343.464,-85.6014 352.204,-79.612 341.637,-78.8442 343.464,-85.6014"/>
</g>
<!-- Node28&#45;&gt;Node4 -->
<g id="edge43" class="edge"><title>Node28&#45;&gt;Node4</title>
<path fill="none" stroke="midnightblue" d="M416.295,-179.444C383.691,-169.552 330.236,-153.336 296.778,-143.185"/>
<polygon fill="midnightblue" stroke="midnightblue" points="297.667,-139.798 287.081,-140.244 295.634,-146.496 297.667,-139.798"/>
</g>
<!-- Node28&#45;&gt;Node6 -->
<g id="edge45" class="edge"><title>Node28&#45;&gt;Node6</title>
<path fill="none" stroke="midnightblue" d="M433.896,-179.324C424.044,-171.263 409.149,-159.077 397.285,-149.369"/>
<polygon fill="midnightblue" stroke="midnightblue" points="399.253,-146.457 389.297,-142.834 394.82,-151.875 399.253,-146.457"/>
</g>
<!-- Node28&#45;&gt;Node7 -->
<g id="edge42" class="edge"><title>Node28&#45;&gt;Node7</title>
<path fill="none" stroke="midnightblue" d="M450.323,-179.475C458.376,-166.529 470.815,-141.466 460.5,-123 450.525,-105.142 431.356,-92.8191 414.059,-84.8193"/>
<polygon fill="midnightblue" stroke="midnightblue" points="415.282,-81.5357 404.712,-80.812 412.524,-87.9694 415.282,-81.5357"/>
</g>
<!-- Node28&#45;&gt;Node17 -->
<g id="edge41" class="edge"><title>Node28&#45;&gt;Node17</title>
<path fill="none" stroke="midnightblue" d="M490.579,-180.461C549.357,-170.759 648.726,-154.049 700.977,-142.905"/>
<polygon fill="midnightblue" stroke="midnightblue" points="701.756,-146.317 710.773,-140.754 700.255,-139.48 701.756,-146.317"/>
</g>
<!-- Node28&#45;&gt;Node21 -->
<g id="edge44" class="edge"><title>Node28&#45;&gt;Node21</title>
<path fill="none" stroke="midnightblue" d="M453.225,-179.374C468.562,-164.823 502.011,-135.739 536.5,-123 617.688,-93.0116 859.577,-80.1155 991.789,-75.1822"/>
<polygon fill="midnightblue" stroke="midnightblue" points="992.029,-78.6759 1001.89,-74.8127 991.773,-71.6806 992.029,-78.6759"/>
</g>
</g>
</svg>
