<?xml version="1.0" encoding="UTF-8" standalone="no"?>
<!DOCTYPE svg PUBLIC "-//W3C//DTD SVG 1.1//EN"
 "http://www.w3.org/Graphics/SVG/1.1/DTD/svg11.dtd">
<!-- Generated by graphviz version 2.38.0 (20140413.2041)
 -->
<!-- Title: src/gromacs/utility/stringcompare.h Pages: 1 -->
<svg width="273pt" height="207pt"
 viewBox="0.00 0.00 273.00 207.00" xmlns="http://www.w3.org/2000/svg" xmlns:xlink="http://www.w3.org/1999/xlink">
<g id="graph0" class="graph" transform="scale(1 1) rotate(0) translate(4 203)">
<title>src/gromacs/utility/stringcompare.h</title>
<polygon fill="white" stroke="none" points="-4,4 -4,-203 269,-203 269,4 -4,4"/>
<!-- Node1 -->
<g id="node1" class="node"><title>Node1</title>
<polygon fill="#bfbfbf" stroke="black" points="25,-168.5 25,-198.5 122,-198.5 122,-168.5 25,-168.5"/>
<text text-anchor="start" x="33" y="-186.5" font-family="Helvetica,sans-Serif" font-size="10.00">src/gromacs/utility</text>
<text text-anchor="middle" x="73.5" y="-175.5" font-family="Helvetica,sans-Serif" font-size="10.00">/stringcompare.h</text>
</g>
<!-- Node2 -->
<g id="node2" class="node"><title>Node2</title>
<polygon fill="white" stroke="#bfbfbf" points="0,-112.5 0,-131.5 41,-131.5 41,-112.5 0,-112.5"/>
<text text-anchor="middle" x="20.5" y="-119.5" font-family="Helvetica,sans-Serif" font-size="10.00">string</text>
</g>
<!-- Node1&#45;&gt;Node2 -->
<g id="edge1" class="edge"><title>Node1&#45;&gt;Node2</title>
<path fill="none" stroke="midnightblue" d="M60.9397,-168.399C53.1588,-159.664 43.1364,-148.413 35.016,-139.296"/>
<polygon fill="midnightblue" stroke="midnightblue" points="37.4769,-136.797 28.212,-131.658 32.2499,-141.453 37.4769,-136.797"/>
</g>
<!-- Node3 -->
<g id="node3" class="node"><title>Node3</title>
<g id="a_node3"><a xlink:href="cstringutil_8h.xhtml" target="_top" xlink:title="Generic C string handling functions. ">
<polygon fill="white" stroke="black" points="59.5,-112.5 59.5,-131.5 193.5,-131.5 193.5,-112.5 59.5,-112.5"/>
<text text-anchor="middle" x="126.5" y="-119.5" font-family="Helvetica,sans-Serif" font-size="10.00">gromacs/utility/cstringutil.h</text>
</a>
</g>
</g>
<!-- Node1&#45;&gt;Node3 -->
<g id="edge2" class="edge"><title>Node1&#45;&gt;Node3</title>
<path fill="none" stroke="midnightblue" d="M86.0603,-168.399C93.8412,-159.664 103.864,-148.413 111.984,-139.296"/>
<polygon fill="midnightblue" stroke="midnightblue" points="114.75,-141.453 118.788,-131.658 109.523,-136.797 114.75,-141.453"/>
</g>
<!-- Node4 -->
<g id="node4" class="node"><title>Node4</title>
<polygon fill="white" stroke="#bfbfbf" points="43.5,-56.5 43.5,-75.5 89.5,-75.5 89.5,-56.5 43.5,-56.5"/>
<text text-anchor="middle" x="66.5" y="-63.5" font-family="Helvetica,sans-Serif" font-size="10.00">stdio.h</text>
</g>
<!-- Node3&#45;&gt;Node4 -->
<g id="edge3" class="edge"><title>Node3&#45;&gt;Node4</title>
<path fill="none" stroke="midnightblue" d="M116.86,-112.324C107.99,-104.341 94.6253,-92.3128 83.8921,-82.6529"/>
<polygon fill="midnightblue" stroke="midnightblue" points="86.0898,-79.922 76.3154,-75.8339 81.407,-85.1251 86.0898,-79.922"/>
</g>
<!-- Node5 -->
<g id="node5" class="node"><title>Node5</title>
<g id="a_node5"><a xlink:href="basedefinitions_8h.xhtml" target="_top" xlink:title="Basic types and macros used throughout GROMACS. ">
<polygon fill="white" stroke="black" points="108,-56.5 108,-75.5 265,-75.5 265,-56.5 108,-56.5"/>
<text text-anchor="middle" x="186.5" y="-63.5" font-family="Helvetica,sans-Serif" font-size="10.00">gromacs/utility/basedefinitions.h</text>
</a>
</g>
</g>
<!-- Node3&#45;&gt;Node5 -->
<g id="edge4" class="edge"><title>Node3&#45;&gt;Node5</title>
<path fill="none" stroke="midnightblue" d="M136.14,-112.324C145.01,-104.341 158.375,-92.3128 169.108,-82.6529"/>
<polygon fill="midnightblue" stroke="midnightblue" points="171.593,-85.1251 176.685,-75.8339 166.91,-79.922 171.593,-85.1251"/>
</g>
<!-- Node6 -->
<g id="node6" class="node"><title>Node6</title>
<polygon fill="white" stroke="#bfbfbf" points="126,-0.5 126,-19.5 175,-19.5 175,-0.5 126,-0.5"/>
<text text-anchor="middle" x="150.5" y="-7.5" font-family="Helvetica,sans-Serif" font-size="10.00">stdint.h</text>
</g>
<!-- Node5&#45;&gt;Node6 -->
<g id="edge5" class="edge"><title>Node5&#45;&gt;Node6</title>
<path fill="none" stroke="midnightblue" d="M180.555,-56.083C175.523,-48.5341 168.163,-37.4948 161.987,-28.2298"/>
<polygon fill="midnightblue" stroke="midnightblue" points="164.793,-26.1301 156.334,-19.7511 158.969,-30.0131 164.793,-26.1301"/>
</g>
<!-- Node7 -->
<g id="node7" class="node"><title>Node7</title>
<polygon fill="white" stroke="#bfbfbf" points="193,-0.5 193,-19.5 252,-19.5 252,-0.5 193,-0.5"/>
<text text-anchor="middle" x="222.5" y="-7.5" font-family="Helvetica,sans-Serif" font-size="10.00">inttypes.h</text>
</g>
<!-- Node5&#45;&gt;Node7 -->
<g id="edge6" class="edge"><title>Node5&#45;&gt;Node7</title>
<path fill="none" stroke="midnightblue" d="M192.445,-56.083C197.477,-48.5341 204.837,-37.4948 211.013,-28.2298"/>
<polygon fill="midnightblue" stroke="midnightblue" points="214.031,-30.0131 216.666,-19.7511 208.207,-26.1301 214.031,-30.0131"/>
</g>
</g>
</svg>
