<?xml version="1.0" encoding="UTF-8" standalone="no"?>
<!DOCTYPE svg PUBLIC "-//W3C//DTD SVG 1.1//EN"
 "http://www.w3.org/Graphics/SVG/1.1/DTD/svg11.dtd">
<!-- Generated by graphviz version 2.38.0 (20140413.2041)
 -->
<!-- Title: src/testutils/stringtest.h Pages: 1 -->
<svg width="1901pt" height="162pt"
 viewBox="0.00 0.00 1900.50 162.00" xmlns="http://www.w3.org/2000/svg" xmlns:xlink="http://www.w3.org/1999/xlink">
<g id="graph0" class="graph" transform="scale(1 1) rotate(0) translate(4 158)">
<title>src/testutils/stringtest.h</title>
<polygon fill="white" stroke="none" points="-4,4 -4,-158 1896.5,-158 1896.5,4 -4,4"/>
<!-- Node1 -->
<g id="node1" class="node"><title>Node1</title>
<polygon fill="#bfbfbf" stroke="black" points="970.5,-134.5 970.5,-153.5 1089.5,-153.5 1089.5,-134.5 970.5,-134.5"/>
<text text-anchor="middle" x="1030" y="-141.5" font-family="Helvetica,sans-Serif" font-size="10.00">src/testutils/stringtest.h</text>
</g>
<!-- Node2 -->
<g id="node2" class="node"><title>Node2</title>
<g id="a_node2"><a xlink:href="cmdlinemodulemanagertest_8h.xhtml" target="_top" xlink:title="Test fixture and helper classes for tests using gmx::CommandLineModuleManager. ">
<polygon fill="white" stroke="black" points="161,-67.5 161,-97.5 333,-97.5 333,-67.5 161,-67.5"/>
<text text-anchor="start" x="169" y="-85.5" font-family="Helvetica,sans-Serif" font-size="10.00">src/gromacs/commandline</text>
<text text-anchor="middle" x="247" y="-74.5" font-family="Helvetica,sans-Serif" font-size="10.00">/tests/cmdlinemodulemanagertest.h</text>
</a>
</g>
</g>
<!-- Node1&#45;&gt;Node2 -->
<g id="edge1" class="edge"><title>Node1&#45;&gt;Node2</title>
<path fill="none" stroke="midnightblue" d="M959.971,-140.369C835.532,-135.258 567.813,-122.297 343,-98 339.732,-97.6468 336.405,-97.2633 333.047,-96.8562"/>
<polygon fill="midnightblue" stroke="midnightblue" points="959.988,-143.873 970.122,-140.782 960.273,-136.878 959.988,-143.873"/>
</g>
<!-- Node6 -->
<g id="node6" class="node"><title>Node6</title>
<g id="a_node6"><a xlink:href="tests_2cmdlinehelpwriter_8cpp.xhtml" target="_top" xlink:title="Tests gmx::CommandLineHelpWriter. ">
<polygon fill="white" stroke="black" points="351.5,-67.5 351.5,-97.5 490.5,-97.5 490.5,-67.5 351.5,-67.5"/>
<text text-anchor="start" x="359.5" y="-85.5" font-family="Helvetica,sans-Serif" font-size="10.00">src/gromacs/commandline</text>
<text text-anchor="middle" x="421" y="-74.5" font-family="Helvetica,sans-Serif" font-size="10.00">/tests/cmdlinehelpwriter.cpp</text>
</a>
</g>
</g>
<!-- Node1&#45;&gt;Node6 -->
<g id="edge5" class="edge"><title>Node1&#45;&gt;Node6</title>
<path fill="none" stroke="midnightblue" d="M960.044,-139.224C858.416,-133.249 664.147,-119.98 500,-98 496.959,-97.5928 493.858,-97.1486 490.729,-96.6766"/>
<polygon fill="midnightblue" stroke="midnightblue" points="959.996,-142.727 970.183,-139.814 960.403,-135.739 959.996,-142.727"/>
</g>
<!-- Node7 -->
<g id="node7" class="node"><title>Node7</title>
<g id="a_node7"><a xlink:href="tests_2confio_8cpp.xhtml" target="_top" xlink:title="Tests for reading/writing different structure file formats. ">
<polygon fill="white" stroke="black" points="509,-67.5 509,-97.5 603,-97.5 603,-67.5 509,-67.5"/>
<text text-anchor="start" x="517" y="-85.5" font-family="Helvetica,sans-Serif" font-size="10.00">src/gromacs/fileio</text>
<text text-anchor="middle" x="556" y="-74.5" font-family="Helvetica,sans-Serif" font-size="10.00">/tests/confio.cpp</text>
</a>
</g>
</g>
<!-- Node1&#45;&gt;Node7 -->
<g id="edge6" class="edge"><title>Node1&#45;&gt;Node7</title>
<path fill="none" stroke="midnightblue" d="M960.144,-138.498C876.968,-132.439 734.075,-119.819 613,-98 609.784,-97.4205 606.482,-96.7593 603.165,-96.0459"/>
<polygon fill="midnightblue" stroke="midnightblue" points="960.009,-141.997 970.234,-139.222 960.511,-135.015 960.009,-141.997"/>
</g>
<!-- Node8 -->
<g id="node8" class="node"><title>Node8</title>
<g id="a_node8"><a xlink:href="tests_2helpformat_8cpp.xhtml" target="_top" xlink:title="Tests for help string formatting functions and classes. ">
<polygon fill="white" stroke="black" points="621.5,-67.5 621.5,-97.5 738.5,-97.5 738.5,-67.5 621.5,-67.5"/>
<text text-anchor="start" x="629.5" y="-85.5" font-family="Helvetica,sans-Serif" font-size="10.00">src/gromacs/onlinehelp</text>
<text text-anchor="middle" x="680" y="-74.5" font-family="Helvetica,sans-Serif" font-size="10.00">/tests/helpformat.cpp</text>
</a>
</g>
</g>
<!-- Node1&#45;&gt;Node8 -->
<g id="edge7" class="edge"><title>Node1&#45;&gt;Node8</title>
<path fill="none" stroke="midnightblue" d="M960.963,-133.005C903.765,-124.479 820.417,-111.489 748,-98 744.915,-97.4253 741.755,-96.8177 738.567,-96.1899"/>
<polygon fill="midnightblue" stroke="midnightblue" points="960.569,-136.485 970.975,-134.491 961.597,-129.561 960.569,-136.485"/>
</g>
<!-- Node9 -->
<g id="node9" class="node"><title>Node9</title>
<g id="a_node9"><a xlink:href="tests_2helpmanager_8cpp.xhtml" target="_top" xlink:title="Tests for help topic management and help topic formatting. ">
<polygon fill="white" stroke="black" points="756.5,-67.5 756.5,-97.5 875.5,-97.5 875.5,-67.5 756.5,-67.5"/>
<text text-anchor="start" x="764.5" y="-85.5" font-family="Helvetica,sans-Serif" font-size="10.00">src/gromacs/onlinehelp</text>
<text text-anchor="middle" x="816" y="-74.5" font-family="Helvetica,sans-Serif" font-size="10.00">/tests/helpmanager.cpp</text>
</a>
</g>
</g>
<!-- Node1&#45;&gt;Node9 -->
<g id="edge8" class="edge"><title>Node1&#45;&gt;Node9</title>
<path fill="none" stroke="midnightblue" d="M989.481,-131.734C954.555,-122.023 903.976,-107.961 866.436,-97.523"/>
<polygon fill="midnightblue" stroke="midnightblue" points="988.767,-135.168 999.339,-134.475 990.642,-128.424 988.767,-135.168"/>
</g>
<!-- Node10 -->
<g id="node10" class="node"><title>Node10</title>
<g id="a_node10"><a xlink:href="tests_2helpwritercontext_8cpp.xhtml" target="_top" xlink:title="Tests for help text formatting. ">
<polygon fill="white" stroke="black" points="893.5,-67.5 893.5,-97.5 1030.5,-97.5 1030.5,-67.5 893.5,-67.5"/>
<text text-anchor="start" x="901.5" y="-85.5" font-family="Helvetica,sans-Serif" font-size="10.00">src/gromacs/onlinehelp</text>
<text text-anchor="middle" x="962" y="-74.5" font-family="Helvetica,sans-Serif" font-size="10.00">/tests/helpwritercontext.cpp</text>
</a>
</g>
</g>
<!-- Node1&#45;&gt;Node10 -->
<g id="edge9" class="edge"><title>Node1&#45;&gt;Node10</title>
<path fill="none" stroke="midnightblue" d="M1012.45,-127.646C1001.82,-118.346 988.368,-106.572 978.026,-97.523"/>
<polygon fill="midnightblue" stroke="midnightblue" points="1010.43,-130.524 1020.26,-134.475 1015.04,-125.256 1010.43,-130.524"/>
</g>
<!-- Node11 -->
<g id="node11" class="node"><title>Node11</title>
<g id="a_node11"><a xlink:href="tests_2stringutil_8cpp.xhtml" target="_top" xlink:title="Tests for string utility functions and classes. ">
<polygon fill="white" stroke="black" points="1049,-67.5 1049,-97.5 1149,-97.5 1149,-67.5 1049,-67.5"/>
<text text-anchor="start" x="1057" y="-85.5" font-family="Helvetica,sans-Serif" font-size="10.00">src/gromacs/utility</text>
<text text-anchor="middle" x="1099" y="-74.5" font-family="Helvetica,sans-Serif" font-size="10.00">/tests/stringutil.cpp</text>
</a>
</g>
</g>
<!-- Node1&#45;&gt;Node11 -->
<g id="edge10" class="edge"><title>Node1&#45;&gt;Node11</title>
<path fill="none" stroke="midnightblue" d="M1047.49,-127.921C1058.32,-118.579 1072.14,-106.662 1082.74,-97.523"/>
<polygon fill="midnightblue" stroke="midnightblue" points="1045.17,-125.294 1039.89,-134.475 1049.74,-130.595 1045.17,-125.294"/>
</g>
<!-- Node12 -->
<g id="node12" class="node"><title>Node12</title>
<g id="a_node12"><a xlink:href="tests_2textreader_8cpp.xhtml" target="_top" xlink:title="Tests for gmx::TextReader. ">
<polygon fill="white" stroke="black" points="1167.5,-67.5 1167.5,-97.5 1274.5,-97.5 1274.5,-67.5 1167.5,-67.5"/>
<text text-anchor="start" x="1175.5" y="-85.5" font-family="Helvetica,sans-Serif" font-size="10.00">src/gromacs/utility</text>
<text text-anchor="middle" x="1221" y="-74.5" font-family="Helvetica,sans-Serif" font-size="10.00">/tests/textreader.cpp</text>
</a>
</g>
</g>
<!-- Node1&#45;&gt;Node12 -->
<g id="edge11" class="edge"><title>Node1&#45;&gt;Node12</title>
<path fill="none" stroke="midnightblue" d="M1066.97,-131.483C1098.11,-121.782 1142.77,-107.871 1175.99,-97.523"/>
<polygon fill="midnightblue" stroke="midnightblue" points="1065.87,-128.159 1057.37,-134.475 1067.95,-134.842 1065.87,-128.159"/>
</g>
<!-- Node13 -->
<g id="node13" class="node"><title>Node13</title>
<g id="a_node13"><a xlink:href="tests_2textwriter_8cpp.xhtml" target="_top" xlink:title="Tests for gmx::TextWriter. ">
<polygon fill="white" stroke="black" points="1293,-67.5 1293,-97.5 1397,-97.5 1397,-67.5 1293,-67.5"/>
<text text-anchor="start" x="1301" y="-85.5" font-family="Helvetica,sans-Serif" font-size="10.00">src/gromacs/utility</text>
<text text-anchor="middle" x="1345" y="-74.5" font-family="Helvetica,sans-Serif" font-size="10.00">/tests/textwriter.cpp</text>
</a>
</g>
</g>
<!-- Node1&#45;&gt;Node13 -->
<g id="edge12" class="edge"><title>Node1&#45;&gt;Node13</title>
<path fill="none" stroke="midnightblue" d="M1093.18,-132.853C1144.69,-124.329 1219.25,-111.42 1284,-98 1286.88,-97.4035 1289.83,-96.7716 1292.8,-96.1183"/>
<polygon fill="midnightblue" stroke="midnightblue" points="1092.5,-129.419 1083.2,-134.498 1093.63,-136.326 1092.5,-129.419"/>
</g>
<!-- Node14 -->
<g id="node14" class="node"><title>Node14</title>
<g id="a_node14"><a xlink:href="interactivetest_8cpp.xhtml" target="_top" xlink:title="Implements classes from interactivetest.h. ">
<polygon fill="white" stroke="black" points="1415.5,-73 1415.5,-92 1566.5,-92 1566.5,-73 1415.5,-73"/>
<text text-anchor="middle" x="1491" y="-80" font-family="Helvetica,sans-Serif" font-size="10.00">src/testutils/interactivetest.cpp</text>
</a>
</g>
</g>
<!-- Node1&#45;&gt;Node14 -->
<g id="edge13" class="edge"><title>Node1&#45;&gt;Node14</title>
<path fill="none" stroke="midnightblue" d="M1100.05,-135.672C1175.67,-127.515 1299.59,-113.435 1406,-98 1418.15,-96.238 1431.24,-94.117 1443.41,-92.0479"/>
<polygon fill="midnightblue" stroke="midnightblue" points="1099.28,-132.235 1089.71,-136.783 1100.02,-139.195 1099.28,-132.235"/>
</g>
<!-- Node15 -->
<g id="node15" class="node"><title>Node15</title>
<g id="a_node15"><a xlink:href="stringtest_8cpp.xhtml" target="_top" xlink:title="Implements gmx::test::StringTestBase. ">
<polygon fill="white" stroke="black" points="1585,-73 1585,-92 1715,-92 1715,-73 1585,-73"/>
<text text-anchor="middle" x="1650" y="-80" font-family="Helvetica,sans-Serif" font-size="10.00">src/testutils/stringtest.cpp</text>
</a>
</g>
</g>
<!-- Node1&#45;&gt;Node15 -->
<g id="edge14" class="edge"><title>Node1&#45;&gt;Node15</title>
<path fill="none" stroke="midnightblue" d="M1099.69,-139.744C1203.74,-134.32 1405.73,-121.624 1576,-98 1587.28,-96.4348 1599.44,-94.2587 1610.58,-92.0678"/>
<polygon fill="midnightblue" stroke="midnightblue" points="1099.43,-136.252 1089.62,-140.262 1099.79,-143.243 1099.43,-136.252"/>
</g>
<!-- Node16 -->
<g id="node16" class="node"><title>Node16</title>
<g id="a_node16"><a xlink:href="testfileredirector_8cpp.xhtml" target="_top" xlink:title="Implements classes from testfileredirector.h. ">
<polygon fill="white" stroke="black" points="1733.5,-73 1733.5,-92 1892.5,-92 1892.5,-73 1733.5,-73"/>
<text text-anchor="middle" x="1813" y="-80" font-family="Helvetica,sans-Serif" font-size="10.00">src/testutils/testfileredirector.cpp</text>
</a>
</g>
</g>
<!-- Node1&#45;&gt;Node16 -->
<g id="edge15" class="edge"><title>Node1&#45;&gt;Node16</title>
<path fill="none" stroke="midnightblue" d="M1099.81,-140.709C1225.14,-136.098 1496.46,-123.851 1724,-98 1737.69,-96.4448 1752.48,-94.2455 1766,-92.0285"/>
<polygon fill="midnightblue" stroke="midnightblue" points="1099.45,-137.219 1089.59,-141.08 1099.71,-144.215 1099.45,-137.219"/>
</g>
<!-- Node3 -->
<g id="node3" class="node"><title>Node3</title>
<g id="a_node3"><a xlink:href="tests_2cmdlinehelpmodule_8cpp.xhtml" target="_top" xlink:title="Tests gmx::CommandLineHelpModule through gmx::CommandLineModuleManager. ">
<polygon fill="white" stroke="black" points="0,-0.5 0,-30.5 146,-30.5 146,-0.5 0,-0.5"/>
<text text-anchor="start" x="8" y="-18.5" font-family="Helvetica,sans-Serif" font-size="10.00">src/gromacs/commandline</text>
<text text-anchor="middle" x="73" y="-7.5" font-family="Helvetica,sans-Serif" font-size="10.00">/tests/cmdlinehelpmodule.cpp</text>
</a>
</g>
</g>
<!-- Node2&#45;&gt;Node3 -->
<g id="edge2" class="edge"><title>Node2&#45;&gt;Node3</title>
<path fill="none" stroke="midnightblue" d="M199.668,-63.8185C171.7,-53.3707 136.773,-40.3231 110.682,-30.5765"/>
<polygon fill="midnightblue" stroke="midnightblue" points="198.652,-67.1752 209.245,-67.396 201.102,-60.6178 198.652,-67.1752"/>
</g>
<!-- Node4 -->
<g id="node4" class="node"><title>Node4</title>
<g id="a_node4"><a xlink:href="tests_2cmdlinemodulemanager_8cpp.xhtml" target="_top" xlink:title="Tests gmx::CommandLineModuleManager. ">
<polygon fill="white" stroke="black" points="164,-0.5 164,-30.5 330,-30.5 330,-0.5 164,-0.5"/>
<text text-anchor="start" x="172" y="-18.5" font-family="Helvetica,sans-Serif" font-size="10.00">src/gromacs/commandline</text>
<text text-anchor="middle" x="247" y="-7.5" font-family="Helvetica,sans-Serif" font-size="10.00">/tests/cmdlinemodulemanager.cpp</text>
</a>
</g>
</g>
<!-- Node2&#45;&gt;Node4 -->
<g id="edge3" class="edge"><title>Node2&#45;&gt;Node4</title>
<path fill="none" stroke="midnightblue" d="M247,-57.1081C247,-48.1539 247,-38.3227 247,-30.5765"/>
<polygon fill="midnightblue" stroke="midnightblue" points="243.5,-57.3959 247,-67.396 250.5,-57.396 243.5,-57.3959"/>
</g>
<!-- Node5 -->
<g id="node5" class="node"><title>Node5</title>
<g id="a_node5"><a xlink:href="cmdlinemodulemanagertest_8cpp.xhtml" target="_top" xlink:title="Implements classes from cmdlinemodulemanagertest.h. ">
<polygon fill="white" stroke="black" points="348,-0.5 348,-30.5 530,-30.5 530,-0.5 348,-0.5"/>
<text text-anchor="start" x="356" y="-18.5" font-family="Helvetica,sans-Serif" font-size="10.00">src/gromacs/commandline</text>
<text text-anchor="middle" x="439" y="-7.5" font-family="Helvetica,sans-Serif" font-size="10.00">/tests/cmdlinemodulemanagertest.cpp</text>
</a>
</g>
</g>
<!-- Node2&#45;&gt;Node5 -->
<g id="edge4" class="edge"><title>Node2&#45;&gt;Node5</title>
<path fill="none" stroke="midnightblue" d="M298.422,-64.0917C329.416,-53.5988 368.379,-40.4082 397.42,-30.5765"/>
<polygon fill="midnightblue" stroke="midnightblue" points="297.011,-60.8741 288.661,-67.396 299.255,-67.5044 297.011,-60.8741"/>
</g>
</g>
</svg>
