<?xml version="1.0" encoding="UTF-8" standalone="no"?>
<!DOCTYPE svg PUBLIC "-//W3C//DTD SVG 1.1//EN"
 "http://www.w3.org/Graphics/SVG/1.1/DTD/svg11.dtd">
<!-- Generated by graphviz version 2.38.0 (20140413.2041)
 -->
<!-- Title: src/gromacs/utility/stringutil.h Pages: 1 -->
<svg width="6814pt" height="184pt"
 viewBox="0.00 0.00 6813.50 184.00" xmlns="http://www.w3.org/2000/svg" xmlns:xlink="http://www.w3.org/1999/xlink">
<g id="graph0" class="graph" transform="scale(1 1) rotate(0) translate(4 180)">
<title>src/gromacs/utility/stringutil.h</title>
<polygon fill="white" stroke="none" points="-4,4 -4,-180 6809.5,-180 6809.5,4 -4,4"/>
<!-- Node1 -->
<g id="node1" class="node"><title>Node1</title>
<polygon fill="#bfbfbf" stroke="black" points="3301.5,-145.5 3301.5,-175.5 3398.5,-175.5 3398.5,-145.5 3301.5,-145.5"/>
<text text-anchor="start" x="3309.5" y="-163.5" font-family="Helvetica,sans-Serif" font-size="10.00">src/gromacs/utility</text>
<text text-anchor="middle" x="3350" y="-152.5" font-family="Helvetica,sans-Serif" font-size="10.00">/stringutil.h</text>
</g>
<!-- Node2 -->
<g id="node2" class="node"><title>Node2</title>
<g id="a_node2"><a xlink:href="plot_8cpp.xhtml" target="_top" xlink:title="Implements classes in plot.h. ">
<polygon fill="white" stroke="black" points="0,-73 0,-103 128,-103 128,-73 0,-73"/>
<text text-anchor="start" x="8" y="-91" font-family="Helvetica,sans-Serif" font-size="10.00">src/gromacs/analysisdata</text>
<text text-anchor="middle" x="64" y="-80" font-family="Helvetica,sans-Serif" font-size="10.00">/modules/plot.cpp</text>
</a>
</g>
</g>
<!-- Node1&#45;&gt;Node2 -->
<g id="edge1" class="edge"><title>Node1&#45;&gt;Node2</title>
<path fill="none" stroke="midnightblue" d="M3291.27,-159.466C2881.81,-159.116 460.415,-155.092 137,-109 127.633,-107.665 117.761,-105.499 108.408,-103.075"/>
<polygon fill="midnightblue" stroke="midnightblue" points="3291.4,-162.966 3301.41,-159.475 3291.41,-155.966 3291.4,-162.966"/>
</g>
<!-- Node3 -->
<g id="node3" class="node"><title>Node3</title>
<g id="a_node3"><a xlink:href="datatest_8cpp.xhtml" target="_top" xlink:title="Implements classes in datatest.h. ">
<polygon fill="white" stroke="black" points="146,-73 146,-103 274,-103 274,-73 146,-73"/>
<text text-anchor="start" x="154" y="-91" font-family="Helvetica,sans-Serif" font-size="10.00">src/gromacs/analysisdata</text>
<text text-anchor="middle" x="210" y="-80" font-family="Helvetica,sans-Serif" font-size="10.00">/tests/datatest.cpp</text>
</a>
</g>
</g>
<!-- Node1&#45;&gt;Node3 -->
<g id="edge2" class="edge"><title>Node1&#45;&gt;Node3</title>
<path fill="none" stroke="midnightblue" d="M3291.14,-159.419C2892.17,-158.752 590.977,-153.009 283,-109 273.634,-107.662 263.762,-105.494 254.409,-103.07"/>
<polygon fill="midnightblue" stroke="midnightblue" points="3291.29,-162.919 3301.3,-159.435 3291.3,-155.919 3291.29,-162.919"/>
</g>
<!-- Node4 -->
<g id="node4" class="node"><title>Node4</title>
<g id="a_node4"><a xlink:href="mock__datamodule_8cpp.xhtml" target="_top" xlink:title="Implements classes in mock_datamodule.h. ">
<polygon fill="white" stroke="black" points="292.5,-73 292.5,-103 435.5,-103 435.5,-73 292.5,-73"/>
<text text-anchor="start" x="300.5" y="-91" font-family="Helvetica,sans-Serif" font-size="10.00">src/gromacs/analysisdata</text>
<text text-anchor="middle" x="364" y="-80" font-family="Helvetica,sans-Serif" font-size="10.00">/tests/mock_datamodule.cpp</text>
</a>
</g>
</g>
<!-- Node1&#45;&gt;Node4 -->
<g id="edge3" class="edge"><title>Node1&#45;&gt;Node4</title>
<path fill="none" stroke="midnightblue" d="M3291.34,-159.223C2905.79,-157.304 741.181,-144.984 450,-109 439.046,-107.646 427.452,-105.472 416.442,-103.046"/>
<polygon fill="midnightblue" stroke="midnightblue" points="3291.42,-162.723 3301.44,-159.273 3291.46,-155.723 3291.42,-162.723"/>
</g>
<!-- Node5 -->
<g id="node5" class="node"><title>Node5</title>
<g id="a_node5"><a xlink:href="strconvert_8h.xhtml" target="_top" xlink:title="Declares common utility functions for conversions to and from strings. ">
<polygon fill="white" stroke="red" points="492.5,-73 492.5,-103 589.5,-103 589.5,-73 492.5,-73"/>
<text text-anchor="start" x="500.5" y="-91" font-family="Helvetica,sans-Serif" font-size="10.00">src/gromacs/utility</text>
<text text-anchor="middle" x="541" y="-80" font-family="Helvetica,sans-Serif" font-size="10.00">/strconvert.h</text>
</a>
</g>
</g>
<!-- Node1&#45;&gt;Node5 -->
<g id="edge4" class="edge"><title>Node1&#45;&gt;Node5</title>
<path fill="none" stroke="midnightblue" d="M3291.2,-159.437C2917.21,-158.901 877.347,-153.924 604,-109 595.847,-107.66 587.297,-105.492 579.218,-103.067"/>
<polygon fill="midnightblue" stroke="midnightblue" points="3291.26,-162.937 3301.26,-159.451 3291.27,-155.937 3291.26,-162.937"/>
</g>
<!-- Node6 -->
<g id="node6" class="node"><title>Node6</title>
<g id="a_node6"><a xlink:href="electricfield_8cpp.xhtml" target="_top" xlink:title="Declares data structure and utilities for electric fields. ">
<polygon fill="white" stroke="black" points="407,-0.5 407,-30.5 525,-30.5 525,-0.5 407,-0.5"/>
<text text-anchor="start" x="415" y="-18.5" font-family="Helvetica,sans-Serif" font-size="10.00">src/gromacs/applied</text>
<text text-anchor="middle" x="466" y="-7.5" font-family="Helvetica,sans-Serif" font-size="10.00">&#45;forces/electricfield.cpp</text>
</a>
</g>
</g>
<!-- Node1&#45;&gt;Node6 -->
<g id="edge7" class="edge"><title>Node1&#45;&gt;Node6</title>
<path fill="none" stroke="midnightblue" d="M3291.26,-159.488C2887.62,-159.286 538.525,-156.085 483,-109 460.46,-89.8859 461.295,-51.5602 463.718,-30.7443"/>
<polygon fill="midnightblue" stroke="midnightblue" points="3291.26,-162.988 3301.26,-159.493 3291.26,-155.988 3291.26,-162.988"/>
</g>
<!-- Node7 -->
<g id="node7" class="node"><title>Node7</title>
<g id="a_node7"><a xlink:href="keyvaluetreemdpwriter_8cpp.xhtml" target="_top" xlink:title="Defines a function to write a flat key&#45;value tree to look like old&#45;style mdp output. ">
<polygon fill="white" stroke="black" points="546,-0.5 546,-30.5 686,-30.5 686,-0.5 546,-0.5"/>
<text text-anchor="start" x="554" y="-18.5" font-family="Helvetica,sans-Serif" font-size="10.00">src/gromacs/gmxpreprocess</text>
<text text-anchor="middle" x="616" y="-7.5" font-family="Helvetica,sans-Serif" font-size="10.00">/keyvaluetreemdpwriter.cpp</text>
</a>
</g>
</g>
<!-- Node1&#45;&gt;Node7 -->
<g id="edge37" class="edge"><title>Node1&#45;&gt;Node7</title>
<path fill="none" stroke="midnightblue" d="M3291.1,-159.402C2899.85,-158.631 690.281,-152.359 637,-109 613.881,-90.1865 612.956,-51.7364 614.398,-30.8217"/>
<polygon fill="midnightblue" stroke="midnightblue" points="3291.34,-162.902 3301.34,-159.422 3291.35,-155.902 3291.34,-162.902"/>
</g>
<!-- Node8 -->
<g id="node8" class="node"><title>Node8</title>
<g id="a_node8"><a xlink:href="tests_2electricfield_8cpp.xhtml" target="_top" xlink:title="Tests for functionality of the &quot;angle&quot; trajectory analysis module. ">
<polygon fill="white" stroke="black" points="646.5,-73 646.5,-103 789.5,-103 789.5,-73 646.5,-73"/>
<text text-anchor="start" x="654.5" y="-91" font-family="Helvetica,sans-Serif" font-size="10.00">src/gromacs/applied</text>
<text text-anchor="middle" x="718" y="-80" font-family="Helvetica,sans-Serif" font-size="10.00">&#45;forces/tests/electricfield.cpp</text>
</a>
</g>
</g>
<!-- Node1&#45;&gt;Node8 -->
<g id="edge8" class="edge"><title>Node1&#45;&gt;Node8</title>
<path fill="none" stroke="midnightblue" d="M3291.19,-159.13C2933.03,-156.772 1052.19,-142.848 798,-109 787.782,-107.639 776.984,-105.462 766.74,-103.035"/>
<polygon fill="midnightblue" stroke="midnightblue" points="3291.31,-162.631 3301.33,-159.197 3291.36,-155.631 3291.31,-162.631"/>
</g>
<!-- Node9 -->
<g id="node9" class="node"><title>Node9</title>
<g id="a_node9"><a xlink:href="bias_8cpp.xhtml" target="_top" xlink:title="Implements the Bias class. ">
<polygon fill="white" stroke="black" points="807.5,-78.5 807.5,-97.5 938.5,-97.5 938.5,-78.5 807.5,-78.5"/>
<text text-anchor="middle" x="873" y="-85.5" font-family="Helvetica,sans-Serif" font-size="10.00">src/gromacs/awh/bias.cpp</text>
</a>
</g>
</g>
<!-- Node1&#45;&gt;Node9 -->
<g id="edge9" class="edge"><title>Node1&#45;&gt;Node9</title>
<path fill="none" stroke="midnightblue" d="M3291.34,-159.12C2946.04,-156.77 1185.26,-143.18 947,-109 930.665,-106.657 912.793,-101.891 898.705,-97.5995"/>
<polygon fill="midnightblue" stroke="midnightblue" points="3291.36,-162.62 3301.38,-159.188 3291.4,-155.62 3291.36,-162.62"/>
</g>
<!-- Node10 -->
<g id="node10" class="node"><title>Node10</title>
<g id="a_node10"><a xlink:href="biassharing_8cpp.xhtml" target="_top" xlink:title="Implements bias sharing checking functionality. ">
<polygon fill="white" stroke="black" points="956.5,-78.5 956.5,-97.5 1119.5,-97.5 1119.5,-78.5 956.5,-78.5"/>
<text text-anchor="middle" x="1038" y="-85.5" font-family="Helvetica,sans-Serif" font-size="10.00">src/gromacs/awh/biassharing.cpp</text>
</a>
</g>
</g>
<!-- Node1&#45;&gt;Node10 -->
<g id="edge10" class="edge"><title>Node1&#45;&gt;Node10</title>
<path fill="none" stroke="midnightblue" d="M3291.39,-159.722C2984.94,-160.644 1564.51,-161.943 1128,-109 1108.3,-106.61 1086.57,-101.843 1069.39,-97.5625"/>
<polygon fill="midnightblue" stroke="midnightblue" points="3291.4,-163.222 3301.39,-159.69 3291.38,-156.222 3291.4,-163.222"/>
</g>
<!-- Node11 -->
<g id="node11" class="node"><title>Node11</title>
<g id="a_node11"><a xlink:href="biasstate_8cpp.xhtml" target="_top" xlink:title="Implements the BiasState class. ">
<polygon fill="white" stroke="black" points="1137.5,-78.5 1137.5,-97.5 1290.5,-97.5 1290.5,-78.5 1137.5,-78.5"/>
<text text-anchor="middle" x="1214" y="-85.5" font-family="Helvetica,sans-Serif" font-size="10.00">src/gromacs/awh/biasstate.cpp</text>
</a>
</g>
</g>
<!-- Node1&#45;&gt;Node11 -->
<g id="edge11" class="edge"><title>Node1&#45;&gt;Node11</title>
<path fill="none" stroke="midnightblue" d="M3290.83,-159.67C2997.8,-160.261 1700.09,-159.909 1300,-109 1281.14,-106.601 1260.38,-101.833 1243.98,-97.5549"/>
<polygon fill="midnightblue" stroke="midnightblue" points="3291.24,-163.169 3301.23,-159.647 3291.23,-156.169 3291.24,-163.169"/>
</g>
<!-- Node12 -->
<g id="node12" class="node"><title>Node12</title>
<g id="a_node12"><a xlink:href="coordstate_8cpp.xhtml" target="_top" xlink:title="Implements the CoordState class. ">
<polygon fill="white" stroke="black" points="1308.5,-78.5 1308.5,-97.5 1467.5,-97.5 1467.5,-78.5 1308.5,-78.5"/>
<text text-anchor="middle" x="1388" y="-85.5" font-family="Helvetica,sans-Serif" font-size="10.00">src/gromacs/awh/coordstate.cpp</text>
</a>
</g>
</g>
<!-- Node1&#45;&gt;Node12 -->
<g id="edge12" class="edge"><title>Node1&#45;&gt;Node12</title>
<path fill="none" stroke="midnightblue" d="M3291.08,-159.45C3014.18,-158.982 1840.51,-154.309 1477,-109 1457.51,-106.571 1436.02,-101.803 1419.04,-97.5313"/>
<polygon fill="midnightblue" stroke="midnightblue" points="3291.31,-162.951 3301.31,-159.466 3291.32,-155.951 3291.31,-162.951"/>
</g>
<!-- Node13 -->
<g id="node13" class="node"><title>Node13</title>
<g id="a_node13"><a xlink:href="grid_8cpp.xhtml" target="_top" xlink:title="Implements functions in grid.h. ">
<polygon fill="white" stroke="black" points="1485.5,-78.5 1485.5,-97.5 1614.5,-97.5 1614.5,-78.5 1485.5,-78.5"/>
<text text-anchor="middle" x="1550" y="-85.5" font-family="Helvetica,sans-Serif" font-size="10.00">src/gromacs/awh/grid.cpp</text>
</a>
</g>
</g>
<!-- Node1&#45;&gt;Node13 -->
<g id="edge13" class="edge"><title>Node1&#45;&gt;Node13</title>
<path fill="none" stroke="midnightblue" d="M3291,-159.63C3027.4,-159.924 1955.98,-158.022 1624,-109 1607.67,-106.589 1589.8,-101.822 1575.71,-97.5458"/>
<polygon fill="midnightblue" stroke="midnightblue" points="3291.13,-163.13 3301.13,-159.617 3291.12,-156.13 3291.13,-163.13"/>
</g>
<!-- Node14 -->
<g id="node14" class="node"><title>Node14</title>
<g id="a_node14"><a xlink:href="histogramsize_8cpp.xhtml" target="_top" xlink:title="Implements the HistogramSize class. ">
<polygon fill="white" stroke="black" points="1633,-78.5 1633,-97.5 1807,-97.5 1807,-78.5 1633,-78.5"/>
<text text-anchor="middle" x="1720" y="-85.5" font-family="Helvetica,sans-Serif" font-size="10.00">src/gromacs/awh/histogramsize.cpp</text>
</a>
</g>
</g>
<!-- Node1&#45;&gt;Node14 -->
<g id="edge14" class="edge"><title>Node1&#45;&gt;Node14</title>
<path fill="none" stroke="midnightblue" d="M3291.14,-158.835C3047.06,-155.882 2113.64,-142.582 1821,-109 1799.16,-106.493 1774.99,-101.779 1755.77,-97.556"/>
<polygon fill="midnightblue" stroke="midnightblue" points="3291.19,-162.336 3301.23,-158.956 3291.27,-155.337 3291.19,-162.336"/>
</g>
<!-- Node15 -->
<g id="node15" class="node"><title>Node15</title>
<g id="a_node15"><a xlink:href="helptopic_8h.xhtml" target="_top" xlink:title="Declares helper classes for implementing gmx::IHelpTopic. ">
<polygon fill="white" stroke="red" points="1863.5,-73 1863.5,-103 1980.5,-103 1980.5,-73 1863.5,-73"/>
<text text-anchor="start" x="1871.5" y="-91" font-family="Helvetica,sans-Serif" font-size="10.00">src/gromacs/onlinehelp</text>
<text text-anchor="middle" x="1922" y="-80" font-family="Helvetica,sans-Serif" font-size="10.00">/helptopic.h</text>
</a>
</g>
</g>
<!-- Node1&#45;&gt;Node15 -->
<g id="edge15" class="edge"><title>Node1&#45;&gt;Node15</title>
<path fill="none" stroke="midnightblue" d="M3291.18,-159.107C3064.9,-157.316 2250.51,-148.226 1995,-109 1985.78,-107.584 1976.06,-105.415 1966.82,-103.02"/>
<polygon fill="midnightblue" stroke="midnightblue" points="3291.16,-162.607 3301.19,-159.184 3291.22,-155.607 3291.16,-162.607"/>
</g>
<!-- Node16 -->
<g id="node16" class="node"><title>Node16</title>
<g id="a_node16"><a xlink:href="cmdlinehelpmodule_8cpp.xhtml" target="_top" xlink:title="Implements gmx::CommandLineHelpModule. ">
<polygon fill="white" stroke="black" points="1777.5,-0.5 1777.5,-30.5 1908.5,-30.5 1908.5,-0.5 1777.5,-0.5"/>
<text text-anchor="start" x="1785.5" y="-18.5" font-family="Helvetica,sans-Serif" font-size="10.00">src/gromacs/commandline</text>
<text text-anchor="middle" x="1843" y="-7.5" font-family="Helvetica,sans-Serif" font-size="10.00">/cmdlinehelpmodule.cpp</text>
</a>
</g>
</g>
<!-- Node1&#45;&gt;Node16 -->
<g id="edge18" class="edge"><title>Node1&#45;&gt;Node16</title>
<path fill="none" stroke="midnightblue" d="M3291.01,-159.62C3020.44,-159.905 1908.99,-158.075 1855,-109 1833.31,-89.2845 1836.29,-51.2078 1839.9,-30.5895"/>
<polygon fill="midnightblue" stroke="midnightblue" points="3291.4,-163.12 3301.4,-159.608 3291.4,-156.12 3291.4,-163.12"/>
</g>
<!-- Node17 -->
<g id="node17" class="node"><title>Node17</title>
<g id="a_node17"><a xlink:href="helptopic_8cpp.xhtml" target="_top" xlink:title="Implements classes and functions from helptopic.h. ">
<polygon fill="white" stroke="black" points="1942.5,-0.5 1942.5,-30.5 2059.5,-30.5 2059.5,-0.5 1942.5,-0.5"/>
<text text-anchor="start" x="1950.5" y="-18.5" font-family="Helvetica,sans-Serif" font-size="10.00">src/gromacs/onlinehelp</text>
<text text-anchor="middle" x="2001" y="-7.5" font-family="Helvetica,sans-Serif" font-size="10.00">/helptopic.cpp</text>
</a>
</g>
</g>
<!-- Node1&#45;&gt;Node17 -->
<g id="edge50" class="edge"><title>Node1&#45;&gt;Node17</title>
<path fill="none" stroke="midnightblue" d="M3290.83,-159.137C3040.57,-157.363 2079.54,-148.021 2029,-109 2004.83,-90.3367 2000.87,-51.4578 2000.61,-30.5404"/>
<polygon fill="midnightblue" stroke="midnightblue" points="3291.15,-162.64 3301.17,-159.209 3291.2,-155.64 3291.15,-162.64"/>
</g>
<!-- Node18 -->
<g id="node18" class="node"><title>Node18</title>
<g id="a_node18"><a xlink:href="cmdlinehelpwriter_8cpp.xhtml" target="_top" xlink:title="Implements gmx::CommandLineHelpWriter. ">
<polygon fill="white" stroke="black" points="2037.5,-73 2037.5,-103 2168.5,-103 2168.5,-73 2037.5,-73"/>
<text text-anchor="start" x="2045.5" y="-91" font-family="Helvetica,sans-Serif" font-size="10.00">src/gromacs/commandline</text>
<text text-anchor="middle" x="2103" y="-80" font-family="Helvetica,sans-Serif" font-size="10.00">/cmdlinehelpwriter.cpp</text>
</a>
</g>
</g>
<!-- Node1&#45;&gt;Node18 -->
<g id="edge19" class="edge"><title>Node1&#45;&gt;Node18</title>
<path fill="none" stroke="midnightblue" d="M3291.44,-158.661C3085.64,-155.449 2396.27,-142.397 2178,-109 2168.68,-107.573 2158.84,-105.431 2149.48,-103.072"/>
<polygon fill="midnightblue" stroke="midnightblue" points="3291.39,-162.16 3301.44,-158.815 3291.5,-155.161 3291.39,-162.16"/>
</g>
<!-- Node19 -->
<g id="node19" class="node"><title>Node19</title>
<g id="a_node19"><a xlink:href="cmdlinemodulemanager_8cpp.xhtml" target="_top" xlink:title="Implements gmx::CommandLineModuleManager. ">
<polygon fill="white" stroke="black" points="2186.5,-73 2186.5,-103 2327.5,-103 2327.5,-73 2186.5,-73"/>
<text text-anchor="start" x="2194.5" y="-91" font-family="Helvetica,sans-Serif" font-size="10.00">src/gromacs/commandline</text>
<text text-anchor="middle" x="2257" y="-80" font-family="Helvetica,sans-Serif" font-size="10.00">/cmdlinemodulemanager.cpp</text>
</a>
</g>
</g>
<!-- Node1&#45;&gt;Node19 -->
<g id="edge20" class="edge"><title>Node1&#45;&gt;Node19</title>
<path fill="none" stroke="midnightblue" d="M3291.11,-158.075C3103.78,-153.304 2523.01,-136.617 2337,-109 2327.09,-107.528 2316.61,-105.366 2306.63,-103.001"/>
<polygon fill="midnightblue" stroke="midnightblue" points="3291.23,-161.579 3301.31,-158.333 3291.4,-154.581 3291.23,-161.579"/>
</g>
<!-- Node20 -->
<g id="node20" class="node"><title>Node20</title>
<g id="a_node20"><a xlink:href="cmdlineoptionsmodule_8cpp.xhtml" target="_top" xlink:title="Implements supporting routines for gmx::ICommandLineOptionsModule. ">
<polygon fill="white" stroke="black" points="2345.5,-73 2345.5,-103 2480.5,-103 2480.5,-73 2345.5,-73"/>
<text text-anchor="start" x="2353.5" y="-91" font-family="Helvetica,sans-Serif" font-size="10.00">src/gromacs/commandline</text>
<text text-anchor="middle" x="2413" y="-80" font-family="Helvetica,sans-Serif" font-size="10.00">/cmdlineoptionsmodule.cpp</text>
</a>
</g>
</g>
<!-- Node1&#45;&gt;Node20 -->
<g id="edge21" class="edge"><title>Node1&#45;&gt;Node20</title>
<path fill="none" stroke="midnightblue" d="M3291.07,-159.988C3151.16,-160.292 2788.35,-156.043 2490,-109 2480.59,-107.516 2470.65,-105.379 2461.16,-103.048"/>
<polygon fill="midnightblue" stroke="midnightblue" points="3291.16,-163.488 3301.15,-159.958 3291.14,-156.488 3291.16,-163.488"/>
</g>
<!-- Node21 -->
<g id="node21" class="node"><title>Node21</title>
<g id="a_node21"><a xlink:href="cmdlineprogramcontext_8cpp.xhtml" target="_top" xlink:title="Implements gmx::CommandLineProgramContext. ">
<polygon fill="white" stroke="black" points="2499,-73 2499,-103 2639,-103 2639,-73 2499,-73"/>
<text text-anchor="start" x="2507" y="-91" font-family="Helvetica,sans-Serif" font-size="10.00">src/gromacs/commandline</text>
<text text-anchor="middle" x="2569" y="-80" font-family="Helvetica,sans-Serif" font-size="10.00">/cmdlineprogramcontext.cpp</text>
</a>
</g>
</g>
<!-- Node1&#45;&gt;Node21 -->
<g id="edge22" class="edge"><title>Node1&#45;&gt;Node21</title>
<path fill="none" stroke="midnightblue" d="M3291.06,-158.689C3170.01,-156.27 2884.91,-146.695 2649,-109 2639.39,-107.464 2629.24,-105.333 2619.51,-103.031"/>
<polygon fill="midnightblue" stroke="midnightblue" points="3291.16,-162.191 3301.23,-158.883 3291.29,-155.193 3291.16,-162.191"/>
</g>
<!-- Node22 -->
<g id="node22" class="node"><title>Node22</title>
<g id="a_node22"><a xlink:href="shellcompletions_8cpp.xhtml" target="_top" xlink:title="Implements gmx::ShellCompletionWriter. ">
<polygon fill="white" stroke="black" points="2657.5,-73 2657.5,-103 2788.5,-103 2788.5,-73 2657.5,-73"/>
<text text-anchor="start" x="2665.5" y="-91" font-family="Helvetica,sans-Serif" font-size="10.00">src/gromacs/commandline</text>
<text text-anchor="middle" x="2723" y="-80" font-family="Helvetica,sans-Serif" font-size="10.00">/shellcompletions.cpp</text>
</a>
</g>
</g>
<!-- Node1&#45;&gt;Node22 -->
<g id="edge23" class="edge"><title>Node1&#45;&gt;Node22</title>
<path fill="none" stroke="midnightblue" d="M3291.23,-157.392C3189.87,-153.03 2975.94,-140.629 2798,-109 2789.11,-107.42 2779.74,-105.297 2770.74,-103.023"/>
<polygon fill="midnightblue" stroke="midnightblue" points="3291.13,-160.891 3301.27,-157.813 3291.42,-153.897 3291.13,-160.891"/>
</g>
<!-- Node23 -->
<g id="node23" class="node"><title>Node23</title>
<g id="a_node23"><a xlink:href="cmdlinemodulemanagertest_8cpp.xhtml" target="_top" xlink:title="Implements classes from cmdlinemodulemanagertest.h. ">
<polygon fill="white" stroke="black" points="2807,-73 2807,-103 2989,-103 2989,-73 2807,-73"/>
<text text-anchor="start" x="2815" y="-91" font-family="Helvetica,sans-Serif" font-size="10.00">src/gromacs/commandline</text>
<text text-anchor="middle" x="2898" y="-80" font-family="Helvetica,sans-Serif" font-size="10.00">/tests/cmdlinemodulemanagertest.cpp</text>
</a>
</g>
</g>
<!-- Node1&#45;&gt;Node23 -->
<g id="edge24" class="edge"><title>Node1&#45;&gt;Node23</title>
<path fill="none" stroke="midnightblue" d="M3291.4,-152.028C3221.59,-142.905 3101.52,-126.514 2999,-109 2988.43,-107.194 2977.26,-105.136 2966.37,-103.043"/>
<polygon fill="midnightblue" stroke="midnightblue" points="3290.96,-155.5 3301.33,-153.32 3291.86,-148.558 3290.96,-155.5"/>
</g>
<!-- Node24 -->
<g id="node24" class="node"><title>Node24</title>
<g id="a_node24"><a xlink:href="tests_2pargs_8cpp.xhtml" target="_top" xlink:title="Tests parse_common_args(). ">
<polygon fill="white" stroke="black" points="3007.5,-73 3007.5,-103 3138.5,-103 3138.5,-73 3007.5,-73"/>
<text text-anchor="start" x="3015.5" y="-91" font-family="Helvetica,sans-Serif" font-size="10.00">src/gromacs/commandline</text>
<text text-anchor="middle" x="3073" y="-80" font-family="Helvetica,sans-Serif" font-size="10.00">/tests/pargs.cpp</text>
</a>
</g>
</g>
<!-- Node1&#45;&gt;Node24 -->
<g id="edge25" class="edge"><title>Node1&#45;&gt;Node24</title>
<path fill="none" stroke="midnightblue" d="M3291.44,-145.116C3251.08,-135.141 3196.24,-121.46 3148,-109 3140.69,-107.113 3132.99,-105.094 3125.42,-103.092"/>
<polygon fill="midnightblue" stroke="midnightblue" points="3290.83,-148.57 3301.38,-147.57 3292.51,-141.775 3290.83,-148.57"/>
</g>
<!-- Node25 -->
<g id="node25" class="node"><title>Node25</title>
<g id="a_node25"><a xlink:href="domdec__topology_8cpp.xhtml" target="_top" xlink:title="This file defines functions used by the domdec module while managing the construction, use and error checking for topologies local to a DD rank. ">
<polygon fill="white" stroke="black" points="3156.5,-73 3156.5,-103 3271.5,-103 3271.5,-73 3156.5,-73"/>
<text text-anchor="start" x="3164.5" y="-91" font-family="Helvetica,sans-Serif" font-size="10.00">src/gromacs/domdec</text>
<text text-anchor="middle" x="3214" y="-80" font-family="Helvetica,sans-Serif" font-size="10.00">/domdec_topology.cpp</text>
</a>
</g>
</g>
<!-- Node1&#45;&gt;Node25 -->
<g id="edge26" class="edge"><title>Node1&#45;&gt;Node25</title>
<path fill="none" stroke="midnightblue" d="M3313.76,-140.715C3290.95,-128.889 3261.98,-113.874 3241.15,-103.073"/>
<polygon fill="midnightblue" stroke="midnightblue" points="3312.32,-143.908 3322.81,-145.403 3315.54,-137.693 3312.32,-143.908"/>
</g>
<!-- Node26 -->
<g id="node26" class="node"><title>Node26</title>
<g id="a_node26"><a xlink:href="pme-gpu-internal_8cpp.xhtml" target="_top" xlink:title="This file contains internal function implementations for performing the PME calculations on GPU...">
<polygon fill="white" stroke="black" points="3289.5,-73 3289.5,-103 3410.5,-103 3410.5,-73 3289.5,-73"/>
<text text-anchor="start" x="3297.5" y="-91" font-family="Helvetica,sans-Serif" font-size="10.00">src/gromacs/ewald/pme</text>
<text text-anchor="middle" x="3350" y="-80" font-family="Helvetica,sans-Serif" font-size="10.00">&#45;gpu&#45;internal.cpp</text>
</a>
</g>
</g>
<!-- Node1&#45;&gt;Node26 -->
<g id="edge27" class="edge"><title>Node1&#45;&gt;Node26</title>
<path fill="none" stroke="midnightblue" d="M3350,-135.232C3350,-124.568 3350,-112.414 3350,-103.246"/>
<polygon fill="midnightblue" stroke="midnightblue" points="3346.5,-135.233 3350,-145.233 3353.5,-135.233 3346.5,-135.233"/>
</g>
<!-- Node27 -->
<g id="node27" class="node"><title>Node27</title>
<g id="a_node27"><a xlink:href="pme-gpu_8cpp.xhtml" target="_top" xlink:title="Implements high&#45;level PME GPU functions which do not require GPU framework&#45;specific code...">
<polygon fill="white" stroke="black" points="3428.5,-73 3428.5,-103 3549.5,-103 3549.5,-73 3428.5,-73"/>
<text text-anchor="start" x="3436.5" y="-91" font-family="Helvetica,sans-Serif" font-size="10.00">src/gromacs/ewald/pme</text>
<text text-anchor="middle" x="3489" y="-80" font-family="Helvetica,sans-Serif" font-size="10.00">&#45;gpu.cpp</text>
</a>
</g>
</g>
<!-- Node1&#45;&gt;Node27 -->
<g id="edge28" class="edge"><title>Node1&#45;&gt;Node27</title>
<path fill="none" stroke="midnightblue" d="M3386.73,-140.873C3410.09,-129.023 3439.86,-113.922 3461.25,-103.073"/>
<polygon fill="midnightblue" stroke="midnightblue" points="3385.13,-137.758 3377.79,-145.403 3388.3,-144.001 3385.13,-137.758"/>
</g>
<!-- Node28 -->
<g id="node28" class="node"><title>Node28</title>
<g id="a_node28"><a xlink:href="pme_8cpp.xhtml" target="_top" xlink:title="This file contains function definitions necessary for computing energies and forces for the PME long&#45;...">
<polygon fill="white" stroke="black" points="3568,-78.5 3568,-97.5 3708,-97.5 3708,-78.5 3568,-78.5"/>
<text text-anchor="middle" x="3638" y="-85.5" font-family="Helvetica,sans-Serif" font-size="10.00">src/gromacs/ewald/pme.cpp</text>
</a>
</g>
</g>
<!-- Node1&#45;&gt;Node28 -->
<g id="edge29" class="edge"><title>Node1&#45;&gt;Node28</title>
<path fill="none" stroke="midnightblue" d="M3408.37,-145.576C3450.31,-135.528 3508.18,-121.573 3559,-109 3573.97,-105.297 3590.51,-101.121 3604.58,-97.5469"/>
<polygon fill="midnightblue" stroke="midnightblue" points="3407.51,-142.182 3398.6,-147.915 3409.14,-148.99 3407.51,-142.182"/>
</g>
<!-- Node29 -->
<g id="node29" class="node"><title>Node29</title>
<g id="a_node29"><a xlink:href="pmebsplinetest_8cpp.xhtml" target="_top" xlink:title="Implements PME B&#45;spline moduli computation tests. ">
<polygon fill="white" stroke="black" points="3726,-73 3726,-103 3850,-103 3850,-73 3726,-73"/>
<text text-anchor="start" x="3734" y="-91" font-family="Helvetica,sans-Serif" font-size="10.00">src/gromacs/ewald/tests</text>
<text text-anchor="middle" x="3788" y="-80" font-family="Helvetica,sans-Serif" font-size="10.00">/pmebsplinetest.cpp</text>
</a>
</g>
</g>
<!-- Node1&#45;&gt;Node29 -->
<g id="edge30" class="edge"><title>Node1&#45;&gt;Node29</title>
<path fill="none" stroke="midnightblue" d="M3409.1,-153.903C3481.98,-146.42 3609.43,-131.439 3717,-109 3725.02,-107.326 3733.47,-105.239 3741.63,-103.051"/>
<polygon fill="midnightblue" stroke="midnightblue" points="3408.35,-150.461 3398.75,-154.953 3409.05,-157.426 3408.35,-150.461"/>
</g>
<!-- Node30 -->
<g id="node30" class="node"><title>Node30</title>
<g id="a_node30"><a xlink:href="pmegathertest_8cpp.xhtml" target="_top" xlink:title="Implements PME force gathering tests. ">
<polygon fill="white" stroke="black" points="3868,-73 3868,-103 3992,-103 3992,-73 3868,-73"/>
<text text-anchor="start" x="3876" y="-91" font-family="Helvetica,sans-Serif" font-size="10.00">src/gromacs/ewald/tests</text>
<text text-anchor="middle" x="3930" y="-80" font-family="Helvetica,sans-Serif" font-size="10.00">/pmegathertest.cpp</text>
</a>
</g>
</g>
<!-- Node1&#45;&gt;Node30 -->
<g id="edge31" class="edge"><title>Node1&#45;&gt;Node30</title>
<path fill="none" stroke="midnightblue" d="M3408.85,-157.021C3504.13,-152.258 3697.78,-139.461 3859,-109 3867.43,-107.407 3876.31,-105.278 3884.83,-103.003"/>
<polygon fill="midnightblue" stroke="midnightblue" points="3408.65,-153.527 3398.83,-157.51 3408.99,-160.519 3408.65,-153.527"/>
</g>
<!-- Node31 -->
<g id="node31" class="node"><title>Node31</title>
<g id="a_node31"><a xlink:href="pmesolvetest_8cpp.xhtml" target="_top" xlink:title="Implements PME solving tests. ">
<polygon fill="white" stroke="black" points="4010,-73 4010,-103 4134,-103 4134,-73 4010,-73"/>
<text text-anchor="start" x="4018" y="-91" font-family="Helvetica,sans-Serif" font-size="10.00">src/gromacs/ewald/tests</text>
<text text-anchor="middle" x="4072" y="-80" font-family="Helvetica,sans-Serif" font-size="10.00">/pmesolvetest.cpp</text>
</a>
</g>
</g>
<!-- Node1&#45;&gt;Node31 -->
<g id="edge32" class="edge"><title>Node1&#45;&gt;Node31</title>
<path fill="none" stroke="midnightblue" d="M3408.91,-158.806C3523.72,-156.601 3785.08,-147.398 4001,-109 4009.57,-107.475 4018.6,-105.349 4027.24,-103.049"/>
<polygon fill="midnightblue" stroke="midnightblue" points="3408.53,-155.312 3398.6,-158.993 3408.66,-162.311 3408.53,-155.312"/>
</g>
<!-- Node32 -->
<g id="node32" class="node"><title>Node32</title>
<g id="a_node32"><a xlink:href="pmesplinespreadtest_8cpp.xhtml" target="_top" xlink:title="Implements PME spline computation and charge spreading tests. ">
<polygon fill="white" stroke="black" points="4152,-73 4152,-103 4280,-103 4280,-73 4152,-73"/>
<text text-anchor="start" x="4160" y="-91" font-family="Helvetica,sans-Serif" font-size="10.00">src/gromacs/ewald/tests</text>
<text text-anchor="middle" x="4216" y="-80" font-family="Helvetica,sans-Serif" font-size="10.00">/pmesplinespreadtest.cpp</text>
</a>
</g>
</g>
<!-- Node1&#45;&gt;Node32 -->
<g id="edge33" class="edge"><title>Node1&#45;&gt;Node32</title>
<path fill="none" stroke="midnightblue" d="M3408.97,-159.832C3541.27,-159.688 3871.42,-154.363 4143,-109 4151.94,-107.506 4161.37,-105.365 4170.37,-103.033"/>
<polygon fill="midnightblue" stroke="midnightblue" points="3408.67,-156.332 3398.67,-159.833 3408.67,-163.332 3408.67,-156.332"/>
</g>
<!-- Node33 -->
<g id="node33" class="node"><title>Node33</title>
<g id="a_node33"><a xlink:href="pmetestcommon_8cpp.xhtml" target="_top" xlink:title="Implements common routines for PME tests. ">
<polygon fill="white" stroke="black" points="4298,-73 4298,-103 4422,-103 4422,-73 4298,-73"/>
<text text-anchor="start" x="4306" y="-91" font-family="Helvetica,sans-Serif" font-size="10.00">src/gromacs/ewald/tests</text>
<text text-anchor="middle" x="4360" y="-80" font-family="Helvetica,sans-Serif" font-size="10.00">/pmetestcommon.cpp</text>
</a>
</g>
</g>
<!-- Node1&#45;&gt;Node33 -->
<g id="edge34" class="edge"><title>Node1&#45;&gt;Node33</title>
<path fill="none" stroke="midnightblue" d="M3408.79,-158.037C3586.84,-153.339 4118.35,-137.267 4289,-109 4297.84,-107.535 4307.16,-105.376 4316.03,-103.012"/>
<polygon fill="midnightblue" stroke="midnightblue" points="3408.49,-154.544 3398.58,-158.304 3408.67,-161.542 3408.49,-154.544"/>
</g>
<!-- Node34 -->
<g id="node34" class="node"><title>Node34</title>
<g id="a_node34"><a xlink:href="tests_2fft_8cpp.xhtml" target="_top" xlink:title="Tests utilities for fft calculations. ">
<polygon fill="white" stroke="black" points="4440.5,-73 4440.5,-103 4547.5,-103 4547.5,-73 4440.5,-73"/>
<text text-anchor="start" x="4448.5" y="-91" font-family="Helvetica,sans-Serif" font-size="10.00">src/gromacs/fft/tests</text>
<text text-anchor="middle" x="4494" y="-80" font-family="Helvetica,sans-Serif" font-size="10.00">/fft.cpp</text>
</a>
</g>
</g>
<!-- Node1&#45;&gt;Node34 -->
<g id="edge35" class="edge"><title>Node1&#45;&gt;Node34</title>
<path fill="none" stroke="midnightblue" d="M3408.59,-158.772C3603.97,-156.029 4232.05,-144.595 4431,-109 4438.91,-107.585 4447.2,-105.449 4455.08,-103.091"/>
<polygon fill="midnightblue" stroke="midnightblue" points="3408.48,-155.273 3398.53,-158.911 3408.57,-162.272 3408.48,-155.273"/>
</g>
<!-- Node35 -->
<g id="node35" class="node"><title>Node35</title>
<g id="a_node35"><a xlink:href="gmx__awh_8cpp.xhtml" target="_top" xlink:title="Tool for extracting AWH (Accelerated Weight Histogram) data from energy files. ">
<polygon fill="white" stroke="black" points="4566,-73 4566,-103 4674,-103 4674,-73 4566,-73"/>
<text text-anchor="start" x="4574" y="-91" font-family="Helvetica,sans-Serif" font-size="10.00">src/gromacs/gmxana</text>
<text text-anchor="middle" x="4620" y="-80" font-family="Helvetica,sans-Serif" font-size="10.00">/gmx_awh.cpp</text>
</a>
</g>
</g>
<!-- Node1&#45;&gt;Node35 -->
<g id="edge36" class="edge"><title>Node1&#45;&gt;Node35</title>
<path fill="none" stroke="midnightblue" d="M3408.94,-159.101C3619.29,-157.357 4332.56,-148.592 4557,-109 4565.02,-107.585 4573.44,-105.416 4581.42,-103.021"/>
<polygon fill="midnightblue" stroke="midnightblue" points="3408.69,-155.603 3398.72,-159.184 3408.74,-162.603 3408.69,-155.603"/>
</g>
<!-- Node36 -->
<g id="node36" class="node"><title>Node36</title>
<g id="a_node36"><a xlink:href="tests_2readir_8cpp.xhtml" target="_top" xlink:title="Test routines that parse mdp fields from grompp input and writes mdp back out. ">
<polygon fill="white" stroke="black" points="4692,-73 4692,-103 4832,-103 4832,-73 4692,-73"/>
<text text-anchor="start" x="4700" y="-91" font-family="Helvetica,sans-Serif" font-size="10.00">src/gromacs/gmxpreprocess</text>
<text text-anchor="middle" x="4762" y="-80" font-family="Helvetica,sans-Serif" font-size="10.00">/tests/readir.cpp</text>
</a>
</g>
</g>
<!-- Node1&#45;&gt;Node36 -->
<g id="edge38" class="edge"><title>Node1&#45;&gt;Node36</title>
<path fill="none" stroke="midnightblue" d="M3408.93,-158.913C3632.96,-156.425 4431.69,-145.162 4683,-109 4692.8,-107.589 4703.15,-105.455 4713.01,-103.098"/>
<polygon fill="midnightblue" stroke="midnightblue" points="3408.66,-155.415 3398.7,-159.025 3408.74,-162.415 3408.66,-155.415"/>
</g>
<!-- Node37 -->
<g id="node37" class="node"><title>Node37</title>
<g id="a_node37"><a xlink:href="gpu__utils__ocl_8cpp.xhtml" target="_top" xlink:title="Define functions for detection and initialization for OpenCL devices. ">
<polygon fill="white" stroke="black" points="4850.5,-73 4850.5,-103 4963.5,-103 4963.5,-73 4850.5,-73"/>
<text text-anchor="start" x="4858.5" y="-91" font-family="Helvetica,sans-Serif" font-size="10.00">src/gromacs/gpu_utils</text>
<text text-anchor="middle" x="4907" y="-80" font-family="Helvetica,sans-Serif" font-size="10.00">/gpu_utils_ocl.cpp</text>
</a>
</g>
</g>
<!-- Node1&#45;&gt;Node37 -->
<g id="edge39" class="edge"><title>Node1&#45;&gt;Node37</title>
<path fill="none" stroke="midnightblue" d="M3409.06,-159.548C3649.87,-159.427 4558.22,-155.81 4841,-109 4849.39,-107.612 4858.2,-105.455 4866.55,-103.063"/>
<polygon fill="midnightblue" stroke="midnightblue" points="3408.76,-156.048 3398.77,-159.551 3408.77,-163.048 3408.76,-156.048"/>
</g>
<!-- Node38 -->
<g id="node38" class="node"><title>Node38</title>
<g id="a_node38"><a xlink:href="hostallocator_8cpp.xhtml" target="_top" xlink:title="Implements gmx::HostAllocationPolicy for allocating memory suitable for e.g. GPU transfers on CUDA...">
<polygon fill="white" stroke="black" points="4981.5,-73 4981.5,-103 5094.5,-103 5094.5,-73 4981.5,-73"/>
<text text-anchor="start" x="4989.5" y="-91" font-family="Helvetica,sans-Serif" font-size="10.00">src/gromacs/gpu_utils</text>
<text text-anchor="middle" x="5038" y="-80" font-family="Helvetica,sans-Serif" font-size="10.00">/hostallocator.cpp</text>
</a>
</g>
</g>
<!-- Node1&#45;&gt;Node38 -->
<g id="edge40" class="edge"><title>Node1&#45;&gt;Node38</title>
<path fill="none" stroke="midnightblue" d="M3408.8,-159.771C3662.33,-160.614 4663.06,-160.547 4973,-109 4981.27,-107.625 4989.95,-105.474 4998.18,-103.084"/>
<polygon fill="midnightblue" stroke="midnightblue" points="3408.71,-156.27 3398.7,-159.735 3408.68,-163.27 3408.71,-156.27"/>
</g>
<!-- Node39 -->
<g id="node39" class="node"><title>Node39</title>
<g id="a_node39"><a xlink:href="ocl__caching_8cpp.xhtml" target="_top" xlink:title="Define infrastructure for OpenCL JIT compilation for Gromacs. ">
<polygon fill="white" stroke="black" points="5112.5,-73 5112.5,-103 5225.5,-103 5225.5,-73 5112.5,-73"/>
<text text-anchor="start" x="5120.5" y="-91" font-family="Helvetica,sans-Serif" font-size="10.00">src/gromacs/gpu_utils</text>
<text text-anchor="middle" x="5169" y="-80" font-family="Helvetica,sans-Serif" font-size="10.00">/ocl_caching.cpp</text>
</a>
</g>
</g>
<!-- Node1&#45;&gt;Node39 -->
<g id="edge41" class="edge"><title>Node1&#45;&gt;Node39</title>
<path fill="none" stroke="midnightblue" d="M3408.84,-158.748C3694.96,-154.962 4934.02,-137.066 5104,-109 5112.27,-107.634 5120.95,-105.488 5129.18,-103.099"/>
<polygon fill="midnightblue" stroke="midnightblue" points="3408.63,-155.25 3398.67,-158.881 3408.72,-162.249 3408.63,-155.25"/>
</g>
<!-- Node40 -->
<g id="node40" class="node"><title>Node40</title>
<g id="a_node40"><a xlink:href="ocl__compiler_8cpp.xhtml" target="_top" xlink:title="Define infrastructure for OpenCL JIT compilation for Gromacs. ">
<polygon fill="white" stroke="black" points="5243.5,-73 5243.5,-103 5356.5,-103 5356.5,-73 5243.5,-73"/>
<text text-anchor="start" x="5251.5" y="-91" font-family="Helvetica,sans-Serif" font-size="10.00">src/gromacs/gpu_utils</text>
<text text-anchor="middle" x="5300" y="-80" font-family="Helvetica,sans-Serif" font-size="10.00">/ocl_compiler.cpp</text>
</a>
</g>
</g>
<!-- Node1&#45;&gt;Node40 -->
<g id="edge42" class="edge"><title>Node1&#45;&gt;Node40</title>
<path fill="none" stroke="midnightblue" d="M3408.82,-158.874C3707.74,-155.566 5051.42,-139.124 5235,-109 5243.39,-107.623 5252.2,-105.439 5260.53,-103.01"/>
<polygon fill="midnightblue" stroke="midnightblue" points="3408.59,-155.376 3398.63,-158.986 3408.67,-162.376 3408.59,-155.376"/>
</g>
<!-- Node41 -->
<g id="node41" class="node"><title>Node41</title>
<g id="a_node41"><a xlink:href="devicetransfers__ocl_8cpp.xhtml" target="_top" xlink:title="Defines helper functionality for device transfers for tests for GPU host allocator. ">
<polygon fill="white" stroke="black" points="5374.5,-67.5 5374.5,-108.5 5487.5,-108.5 5487.5,-67.5 5374.5,-67.5"/>
<text text-anchor="start" x="5382.5" y="-96.5" font-family="Helvetica,sans-Serif" font-size="10.00">src/gromacs/gpu_utils</text>
<text text-anchor="start" x="5382.5" y="-85.5" font-family="Helvetica,sans-Serif" font-size="10.00">/tests/devicetransfers</text>
<text text-anchor="middle" x="5431" y="-74.5" font-family="Helvetica,sans-Serif" font-size="10.00">_ocl.cpp</text>
</a>
</g>
</g>
<!-- Node1&#45;&gt;Node41 -->
<g id="edge43" class="edge"><title>Node1&#45;&gt;Node41</title>
<path fill="none" stroke="midnightblue" d="M3408.85,-158.984C3720.22,-156.125 5168.8,-141.183 5366,-109 5368.8,-108.544 5371.64,-107.997 5374.5,-107.381"/>
<polygon fill="midnightblue" stroke="midnightblue" points="3408.65,-155.486 3398.68,-159.077 3408.71,-162.485 3408.65,-155.486"/>
</g>
<!-- Node42 -->
<g id="node42" class="node"><title>Node42</title>
<g id="a_node42"><a xlink:href="manage-threading_8cpp.xhtml" target="_top" xlink:title="This file defines functions for managing threading of listed interactions. ">
<polygon fill="white" stroke="black" points="5506,-73 5506,-103 5652,-103 5652,-73 5506,-73"/>
<text text-anchor="start" x="5514" y="-91" font-family="Helvetica,sans-Serif" font-size="10.00">src/gromacs/listed</text>
<text text-anchor="middle" x="5579" y="-80" font-family="Helvetica,sans-Serif" font-size="10.00">&#45;forces/manage&#45;threading.cpp</text>
</a>
</g>
</g>
<!-- Node1&#45;&gt;Node42 -->
<g id="edge44" class="edge"><title>Node1&#45;&gt;Node42</title>
<path fill="none" stroke="midnightblue" d="M3409.05,-159.831C3710.17,-161.258 5076.9,-164.51 5497,-109 5507.46,-107.618 5518.52,-105.431 5529.02,-103.002"/>
<polygon fill="midnightblue" stroke="midnightblue" points="3408.8,-156.33 3398.79,-159.781 3408.77,-163.33 3408.8,-156.33"/>
</g>
<!-- Node43 -->
<g id="node43" class="node"><title>Node43</title>
<g id="a_node43"><a xlink:href="nbnxn__gpu__common_8h.xhtml" target="_top" xlink:title="Common functions for the different NBNXN GPU implementations. ">
<polygon fill="white" stroke="red" points="5670,-73 5670,-103 5796,-103 5796,-73 5670,-73"/>
<text text-anchor="start" x="5678" y="-91" font-family="Helvetica,sans-Serif" font-size="10.00">src/gromacs/mdlib/nbnxn</text>
<text text-anchor="middle" x="5733" y="-80" font-family="Helvetica,sans-Serif" font-size="10.00">_gpu_common.h</text>
</a>
</g>
</g>
<!-- Node1&#45;&gt;Node43 -->
<g id="edge45" class="edge"><title>Node1&#45;&gt;Node43</title>
<path fill="none" stroke="midnightblue" d="M3408.55,-159.092C3745.7,-156.63 5432.48,-142.696 5661,-109 5670.24,-107.637 5679.98,-105.459 5689.2,-103.032"/>
<polygon fill="midnightblue" stroke="midnightblue" points="3408.48,-155.593 3398.51,-159.165 3408.53,-162.593 3408.48,-155.593"/>
</g>
<!-- Node44 -->
<g id="node44" class="node"><title>Node44</title>
<g id="a_node44"><a xlink:href="nbnxn__ocl__jit__support_8cpp.xhtml" target="_top" xlink:title="Defines functions that support JIT compilation (e.g. for OpenCL) ">
<polygon fill="white" stroke="black" points="5814.5,-73 5814.5,-103 5965.5,-103 5965.5,-73 5814.5,-73"/>
<text text-anchor="start" x="5822.5" y="-91" font-family="Helvetica,sans-Serif" font-size="10.00">src/gromacs/mdlib/nbnxn</text>
<text text-anchor="middle" x="5890" y="-80" font-family="Helvetica,sans-Serif" font-size="10.00">_ocl/nbnxn_ocl_jit_support.cpp</text>
</a>
</g>
</g>
<!-- Node1&#45;&gt;Node44 -->
<g id="edge46" class="edge"><title>Node1&#45;&gt;Node44</title>
<path fill="none" stroke="midnightblue" d="M3408.78,-159.032C3758.73,-156.15 5560.78,-139.893 5805,-109 5815.83,-107.63 5827.29,-105.449 5838.17,-103.021"/>
<polygon fill="midnightblue" stroke="midnightblue" points="3408.59,-155.534 3398.61,-159.116 3408.64,-162.533 3408.59,-155.534"/>
</g>
<!-- Node45 -->
<g id="node45" class="node"><title>Node45</title>
<g id="a_node45"><a xlink:href="nbnxn__tuning_8cpp.xhtml" target="_top" xlink:title="Implements functions for tuning adjustable parameters for the nbnxn non&#45;bonded search and interaction...">
<polygon fill="white" stroke="black" points="5984,-73 5984,-103 6110,-103 6110,-73 5984,-73"/>
<text text-anchor="start" x="5992" y="-91" font-family="Helvetica,sans-Serif" font-size="10.00">src/gromacs/mdlib/nbnxn</text>
<text text-anchor="middle" x="6047" y="-80" font-family="Helvetica,sans-Serif" font-size="10.00">_tuning.cpp</text>
</a>
</g>
</g>
<!-- Node1&#45;&gt;Node45 -->
<g id="edge47" class="edge"><title>Node1&#45;&gt;Node45</title>
<path fill="none" stroke="midnightblue" d="M3408.77,-159.256C3772.85,-157.627 5713.59,-147.196 5975,-109 5984.24,-107.649 5993.98,-105.477 6003.21,-103.051"/>
<polygon fill="midnightblue" stroke="midnightblue" points="3408.7,-155.756 3398.71,-159.301 3408.73,-162.756 3408.7,-155.756"/>
</g>
<!-- Node46 -->
<g id="node46" class="node"><title>Node46</title>
<g id="a_node46"><a xlink:href="helpformat_8cpp.xhtml" target="_top" xlink:title="Implements functions in helpformat.h. ">
<polygon fill="white" stroke="black" points="6128.5,-73 6128.5,-103 6245.5,-103 6245.5,-73 6128.5,-73"/>
<text text-anchor="start" x="6136.5" y="-91" font-family="Helvetica,sans-Serif" font-size="10.00">src/gromacs/onlinehelp</text>
<text text-anchor="middle" x="6187" y="-80" font-family="Helvetica,sans-Serif" font-size="10.00">/helpformat.cpp</text>
</a>
</g>
</g>
<!-- Node1&#45;&gt;Node46 -->
<g id="edge48" class="edge"><title>Node1&#45;&gt;Node46</title>
<path fill="none" stroke="midnightblue" d="M3408.68,-159.372C3784.14,-158.431 5842.75,-151.358 6119,-109 6127.76,-107.657 6136.97,-105.488 6145.68,-103.063"/>
<polygon fill="midnightblue" stroke="midnightblue" points="3408.57,-155.873 3398.58,-159.397 3408.59,-162.873 3408.57,-155.873"/>
</g>
<!-- Node47 -->
<g id="node47" class="node"><title>Node47</title>
<g id="a_node47"><a xlink:href="helpmanager_8cpp.xhtml" target="_top" xlink:title="Implements gmx::HelpManager. ">
<polygon fill="white" stroke="black" points="6263.5,-73 6263.5,-103 6380.5,-103 6380.5,-73 6263.5,-73"/>
<text text-anchor="start" x="6271.5" y="-91" font-family="Helvetica,sans-Serif" font-size="10.00">src/gromacs/onlinehelp</text>
<text text-anchor="middle" x="6322" y="-80" font-family="Helvetica,sans-Serif" font-size="10.00">/helpmanager.cpp</text>
</a>
</g>
</g>
<!-- Node1&#45;&gt;Node47 -->
<g id="edge49" class="edge"><title>Node1&#45;&gt;Node47</title>
<path fill="none" stroke="midnightblue" d="M3408.79,-159.44C3795.2,-158.921 5964.56,-154.005 6255,-109 6263.64,-107.662 6272.72,-105.494 6281.3,-103.07"/>
<polygon fill="midnightblue" stroke="midnightblue" points="3408.66,-155.94 3398.67,-159.453 3408.67,-162.94 3408.66,-155.94"/>
</g>
<!-- Node48 -->
<g id="node48" class="node"><title>Node48</title>
<g id="a_node48"><a xlink:href="helpwritercontext_8cpp.xhtml" target="_top" xlink:title="Implements gmx::HelpWriterContext. ">
<polygon fill="white" stroke="black" points="6398.5,-73 6398.5,-103 6515.5,-103 6515.5,-73 6398.5,-73"/>
<text text-anchor="start" x="6406.5" y="-91" font-family="Helvetica,sans-Serif" font-size="10.00">src/gromacs/onlinehelp</text>
<text text-anchor="middle" x="6457" y="-80" font-family="Helvetica,sans-Serif" font-size="10.00">/helpwritercontext.cpp</text>
</a>
</g>
</g>
<!-- Node1&#45;&gt;Node48 -->
<g id="edge51" class="edge"><title>Node1&#45;&gt;Node48</title>
<path fill="none" stroke="midnightblue" d="M3408.67,-159.489C3805.1,-159.29 6085.33,-156.09 6390,-109 6398.64,-107.665 6407.72,-105.499 6416.3,-103.075"/>
<polygon fill="midnightblue" stroke="midnightblue" points="3408.57,-155.989 3398.57,-159.494 3408.58,-162.989 3408.57,-155.989"/>
</g>
<!-- Node49 -->
<g id="node49" class="node"><title>Node49</title>
<g id="a_node49"><a xlink:href="rstparser_8cpp.xhtml" target="_top" xlink:title="Implements classes from rstparser.h. ">
<polygon fill="white" stroke="black" points="6533.5,-73 6533.5,-103 6650.5,-103 6650.5,-73 6533.5,-73"/>
<text text-anchor="start" x="6541.5" y="-91" font-family="Helvetica,sans-Serif" font-size="10.00">src/gromacs/onlinehelp</text>
<text text-anchor="middle" x="6592" y="-80" font-family="Helvetica,sans-Serif" font-size="10.00">/rstparser.cpp</text>
</a>
</g>
</g>
<!-- Node1&#45;&gt;Node49 -->
<g id="edge52" class="edge"><title>Node1&#45;&gt;Node49</title>
<path fill="none" stroke="midnightblue" d="M3408.69,-159.534C3815.28,-159.642 6206.12,-158.172 6525,-109 6533.64,-107.668 6542.72,-105.503 6551.31,-103.079"/>
<polygon fill="midnightblue" stroke="midnightblue" points="3408.63,-156.034 3398.62,-159.531 3408.62,-163.034 3408.63,-156.034"/>
</g>
<!-- Node50 -->
<g id="node50" class="node"><title>Node50</title>
<g id="a_node50"><a xlink:href="tests_2helpwritercontext_8cpp.xhtml" target="_top" xlink:title="Tests for help text formatting. ">
<polygon fill="white" stroke="black" points="6668.5,-73 6668.5,-103 6805.5,-103 6805.5,-73 6668.5,-73"/>
<text text-anchor="start" x="6676.5" y="-91" font-family="Helvetica,sans-Serif" font-size="10.00">src/gromacs/onlinehelp</text>
<text text-anchor="middle" x="6737" y="-80" font-family="Helvetica,sans-Serif" font-size="10.00">/tests/helpwritercontext.cpp</text>
</a>
</g>
</g>
<!-- Node1&#45;&gt;Node50 -->
<g id="edge53" class="edge"><title>Node1&#45;&gt;Node50</title>
<path fill="none" stroke="midnightblue" d="M3408.53,-159.449C3824.44,-158.977 6325.98,-154.263 6660,-109 6669.85,-107.665 6680.26,-105.498 6690.12,-103.074"/>
<polygon fill="midnightblue" stroke="midnightblue" points="3408.52,-155.949 3398.52,-159.46 3408.53,-162.949 3408.52,-155.949"/>
</g>
<!-- Node5&#45;&gt;Node6 -->
<g id="edge5" class="edge"><title>Node5&#45;&gt;Node6</title>
<path fill="none" stroke="midnightblue" d="M518.276,-65.639C506.152,-54.2429 491.576,-40.5414 480.899,-30.5049"/>
<polygon fill="midnightblue" stroke="midnightblue" points="516.139,-68.4343 525.823,-72.7333 520.934,-63.3339 516.139,-68.4343"/>
</g>
<!-- Node5&#45;&gt;Node7 -->
<g id="edge6" class="edge"><title>Node5&#45;&gt;Node7</title>
<path fill="none" stroke="midnightblue" d="M563.724,-65.639C575.848,-54.2429 590.424,-40.5414 601.101,-30.5049"/>
<polygon fill="midnightblue" stroke="midnightblue" points="561.066,-63.3339 556.177,-72.7333 565.861,-68.4343 561.066,-63.3339"/>
</g>
<!-- Node15&#45;&gt;Node16 -->
<g id="edge16" class="edge"><title>Node15&#45;&gt;Node16</title>
<path fill="none" stroke="midnightblue" d="M1898.43,-65.964C1885.59,-54.5043 1870.05,-40.637 1858.69,-30.5049"/>
<polygon fill="midnightblue" stroke="midnightblue" points="1896.22,-68.6863 1906.01,-72.7333 1900.88,-63.4636 1896.22,-68.6863"/>
</g>
<!-- Node15&#45;&gt;Node17 -->
<g id="edge17" class="edge"><title>Node15&#45;&gt;Node17</title>
<path fill="none" stroke="midnightblue" d="M1945.57,-65.964C1958.41,-54.5043 1973.95,-40.637 1985.31,-30.5049"/>
<polygon fill="midnightblue" stroke="midnightblue" points="1943.12,-63.4636 1937.99,-72.7333 1947.78,-68.6863 1943.12,-63.4636"/>
</g>
</g>
</svg>
