<?xml version="1.0" encoding="UTF-8" standalone="no"?>
<!DOCTYPE svg PUBLIC "-//W3C//DTD SVG 1.1//EN"
 "http://www.w3.org/Graphics/SVG/1.1/DTD/svg11.dtd">
<!-- Generated by graphviz version 2.38.0 (20140413.2041)
 -->
<!-- Title: t_swap Pages: 1 -->
<svg width="153pt" height="162pt"
 viewBox="0.00 0.00 152.50 162.00" xmlns="http://www.w3.org/2000/svg" xmlns:xlink="http://www.w3.org/1999/xlink">
<g id="graph0" class="graph" transform="scale(1 1) rotate(0) translate(4 158)">
<title>t_swap</title>
<polygon fill="white" stroke="none" points="-4,4 -4,-158 148.5,-158 148.5,4 -4,4"/>
<!-- Node1 -->
<g id="node1" class="node"><title>Node1</title>
<polygon fill="#bfbfbf" stroke="black" points="74,-0.5 74,-19.5 122,-19.5 122,-0.5 74,-0.5"/>
<text text-anchor="middle" x="98" y="-7.5" font-family="Helvetica,sans-Serif" font-size="10.00">t_swap</text>
</g>
<!-- Node2 -->
<g id="node2" class="node"><title>Node2</title>
<g id="a_node2"><a xlink:href="structswap__group.xhtml" target="_top" xlink:title="This structure contains data needed for the groups involved in swapping: split group 0...">
<polygon fill="white" stroke="black" points="16.5,-67.5 16.5,-86.5 85.5,-86.5 85.5,-67.5 16.5,-67.5"/>
<text text-anchor="middle" x="51" y="-74.5" font-family="Helvetica,sans-Serif" font-size="10.00">swap_group</text>
</a>
</g>
</g>
<!-- Node2&#45;&gt;Node1 -->
<g id="edge1" class="edge"><title>Node2&#45;&gt;Node1</title>
<path fill="none" stroke="#9a32cd" stroke-dasharray="5,2" d="M62.4979,-58.7197C66.9417,-52.1684 72.1236,-44.6805 77,-38 81.4815,-31.8605 86.7315,-25.1105 90.8612,-19.8954"/>
<polygon fill="#9a32cd" stroke="#9a32cd" points="59.3077,-57.1922 56.6369,-67.4449 65.1184,-61.0955 59.3077,-57.1922"/>
<text text-anchor="middle" x="91" y="-41" font-family="Helvetica,sans-Serif" font-size="10.00"> group</text>
</g>
<!-- Node3 -->
<g id="node3" class="node"><title>Node3</title>
<g id="a_node3"><a xlink:href="structswap__compartment.xhtml" target="_top" xlink:title="Structure containing compartment&#45;specific data. ">
<polygon fill="white" stroke="black" points="0,-134.5 0,-153.5 102,-153.5 102,-134.5 0,-134.5"/>
<text text-anchor="middle" x="51" y="-141.5" font-family="Helvetica,sans-Serif" font-size="10.00">swap_compartment</text>
</a>
</g>
</g>
<!-- Node3&#45;&gt;Node2 -->
<g id="edge2" class="edge"><title>Node3&#45;&gt;Node2</title>
<path fill="none" stroke="#9a32cd" stroke-dasharray="5,2" d="M51,-124.037C51,-111.67 51,-96.1198 51,-86.6273"/>
<polygon fill="#9a32cd" stroke="#9a32cd" points="47.5001,-124.234 51,-134.234 54.5001,-124.234 47.5001,-124.234"/>
<text text-anchor="middle" x="65" y="-108" font-family="Helvetica,sans-Serif" font-size="10.00"> comp</text>
</g>
<!-- Node4 -->
<g id="node4" class="node"><title>Node4</title>
<g id="a_node4"><a xlink:href="structt__pbc.xhtml" target="_top" xlink:title="Structure containing info on periodic boundary conditions. ">
<polygon fill="white" stroke="black" points="103.5,-67.5 103.5,-86.5 144.5,-86.5 144.5,-67.5 103.5,-67.5"/>
<text text-anchor="middle" x="124" y="-74.5" font-family="Helvetica,sans-Serif" font-size="10.00">t_pbc</text>
</a>
</g>
</g>
<!-- Node4&#45;&gt;Node1 -->
<g id="edge3" class="edge"><title>Node4&#45;&gt;Node1</title>
<path fill="none" stroke="#9a32cd" stroke-dasharray="5,2" d="M116.716,-57.79C111.723,-45.3076 105.325,-29.3135 101.451,-19.6273"/>
<polygon fill="#9a32cd" stroke="#9a32cd" points="113.53,-59.2489 120.494,-67.2338 120.029,-56.6491 113.53,-59.2489"/>
<text text-anchor="middle" x="121.5" y="-41" font-family="Helvetica,sans-Serif" font-size="10.00"> pbc</text>
</g>
</g>
</svg>
