<?xml version="1.0" encoding="UTF-8" standalone="no"?>
<!DOCTYPE svg PUBLIC "-//W3C//DTD SVG 1.1//EN"
 "http://www.w3.org/Graphics/SVG/1.1/DTD/svg11.dtd">
<!-- Generated by graphviz version 2.38.0 (20140413.2041)
 -->
<!-- Title: gmx_ana_poscalc_t Pages: 1 -->
<svg width="219pt" height="264pt"
 viewBox="0.00 0.00 218.50 264.00" xmlns="http://www.w3.org/2000/svg" xmlns:xlink="http://www.w3.org/1999/xlink">
<g id="graph0" class="graph" transform="scale(1 1) rotate(0) translate(4 260)">
<title>gmx_ana_poscalc_t</title>
<polygon fill="white" stroke="none" points="-4,4 -4,-260 214.5,-260 214.5,4 -4,4"/>
<!-- Node1 -->
<g id="node1" class="node"><title>Node1</title>
<polygon fill="#bfbfbf" stroke="black" points="33.5,-96 33.5,-115 137.5,-115 137.5,-96 33.5,-96"/>
<text text-anchor="middle" x="85.5" y="-103" font-family="Helvetica,sans-Serif" font-size="10.00">gmx_ana_poscalc_t</text>
</g>
<!-- Node1&#45;&gt;Node1 -->
<g id="edge1" class="edge"><title>Node1&#45;&gt;Node1</title>
<path fill="none" stroke="#9a32cd" stroke-dasharray="5,2" d="M147.899,-111.11C152.606,-109.86 155.5,-107.99 155.5,-105.5 155.5,-101.516 148.092,-99.1188 137.702,-98.3094"/>
<polygon fill="#9a32cd" stroke="#9a32cd" points="147.048,-107.7 137.702,-112.691 148.12,-114.618 147.048,-107.7"/>
<text text-anchor="middle" x="169" y="-114" font-family="Helvetica,sans-Serif" font-size="10.00"> prev</text>
<text text-anchor="middle" x="169" y="-103" font-family="Helvetica,sans-Serif" font-size="10.00">next</text>
<text text-anchor="middle" x="169" y="-92" font-family="Helvetica,sans-Serif" font-size="10.00">sbase</text>
</g>
<!-- Node3 -->
<g id="node3" class="node"><title>Node3</title>
<g id="a_node3"><a xlink:href="classgmx_1_1PositionCalculationCollection_1_1Impl.xhtml" target="_top" xlink:title="Private implementation class for PositionCalculationCollection. ">
<polygon fill="white" stroke="black" points="23,-0.5 23,-30.5 148,-30.5 148,-0.5 23,-0.5"/>
<text text-anchor="start" x="31" y="-18.5" font-family="Helvetica,sans-Serif" font-size="10.00">gmx::PositionCalculation</text>
<text text-anchor="middle" x="85.5" y="-7.5" font-family="Helvetica,sans-Serif" font-size="10.00">Collection::Impl</text>
</a>
</g>
</g>
<!-- Node1&#45;&gt;Node3 -->
<g id="edge4" class="edge"><title>Node1&#45;&gt;Node3</title>
<path fill="none" stroke="#9a32cd" stroke-dasharray="5,2" d="M68.761,-88.2331C64.5968,-83.149 60.6972,-77.2275 58.5,-71 55.2467,-61.7793 55.1784,-58.1963 58.5,-49 60.9421,-42.2388 65.4712,-35.8914 70.1316,-30.6318"/>
<polygon fill="#9a32cd" stroke="#9a32cd" points="66.4378,-90.8795 75.7649,-95.905 71.6075,-86.1599 66.4378,-90.8795"/>
<text text-anchor="middle" x="71" y="-63" font-family="Helvetica,sans-Serif" font-size="10.00"> first_</text>
<text text-anchor="middle" x="71" y="-52" font-family="Helvetica,sans-Serif" font-size="10.00">last_</text>
</g>
<!-- Node2 -->
<g id="node2" class="node"><title>Node2</title>
<g id="a_node2"><a xlink:href="structgmx__ana__index__t.xhtml" target="_top" xlink:title="Stores a single index group. ">
<polygon fill="white" stroke="black" points="0,-169.5 0,-188.5 93,-188.5 93,-169.5 0,-169.5"/>
<text text-anchor="middle" x="46.5" y="-176.5" font-family="Helvetica,sans-Serif" font-size="10.00">gmx_ana_index_t</text>
</a>
</g>
</g>
<!-- Node2&#45;&gt;Node1 -->
<g id="edge2" class="edge"><title>Node2&#45;&gt;Node1</title>
<path fill="none" stroke="#9a32cd" stroke-dasharray="5,2" d="M56.1311,-160.343C63.9258,-146.053 74.5775,-126.525 80.6787,-115.339"/>
<polygon fill="#9a32cd" stroke="#9a32cd" points="52.9981,-158.778 51.2822,-169.233 59.1434,-162.13 52.9981,-158.778"/>
<text text-anchor="middle" x="81.5" y="-143" font-family="Helvetica,sans-Serif" font-size="10.00"> gmax</text>
</g>
<!-- Node3&#45;&gt;Node1 -->
<g id="edge3" class="edge"><title>Node3&#45;&gt;Node1</title>
<path fill="none" stroke="#9a32cd" stroke-dasharray="5,2" d="M87.1649,-40.9159C87.3025,-43.6421 87.4194,-46.3796 87.5,-49 87.8004,-58.7732 87.7915,-61.2266 87.5,-71 87.2464,-79.5027 86.6316,-89.2031 86.15,-95.9695"/>
<polygon fill="#9a32cd" stroke="#9a32cd" points="90.6469,-40.5065 86.5656,-30.7293 83.659,-40.9176 90.6469,-40.5065"/>
<text text-anchor="middle" x="98" y="-57.5" font-family="Helvetica,sans-Serif" font-size="10.00"> coll</text>
</g>
<!-- Node4 -->
<g id="node4" class="node"><title>Node4</title>
<g id="a_node4"><a xlink:href="structgmx__ana__pos__t.xhtml" target="_top" xlink:title="Stores a set of positions together with their origins. ">
<polygon fill="white" stroke="black" points="111.5,-169.5 111.5,-188.5 197.5,-188.5 197.5,-169.5 111.5,-169.5"/>
<text text-anchor="middle" x="154.5" y="-176.5" font-family="Helvetica,sans-Serif" font-size="10.00">gmx_ana_pos_t</text>
</a>
</g>
</g>
<!-- Node4&#45;&gt;Node1 -->
<g id="edge5" class="edge"><title>Node4&#45;&gt;Node1</title>
<path fill="none" stroke="#9a32cd" stroke-dasharray="5,2" d="M139.028,-161.968C125.131,-147.567 105.24,-126.955 94.03,-115.339"/>
<polygon fill="#9a32cd" stroke="#9a32cd" points="136.577,-164.467 146.039,-169.233 141.614,-159.606 136.577,-164.467"/>
<text text-anchor="middle" x="132" y="-143" font-family="Helvetica,sans-Serif" font-size="10.00"> p</text>
</g>
<!-- Node5 -->
<g id="node5" class="node"><title>Node5</title>
<g id="a_node5"><a xlink:href="structgmx__ana__indexmap__t.xhtml" target="_top" xlink:title="Data structure for calculating index group mappings. ">
<polygon fill="white" stroke="black" points="98.5,-236.5 98.5,-255.5 210.5,-255.5 210.5,-236.5 98.5,-236.5"/>
<text text-anchor="middle" x="154.5" y="-243.5" font-family="Helvetica,sans-Serif" font-size="10.00">gmx_ana_indexmap_t</text>
</a>
</g>
</g>
<!-- Node5&#45;&gt;Node4 -->
<g id="edge6" class="edge"><title>Node5&#45;&gt;Node4</title>
<path fill="none" stroke="#9a32cd" stroke-dasharray="5,2" d="M154.5,-226.037C154.5,-213.67 154.5,-198.12 154.5,-188.627"/>
<polygon fill="#9a32cd" stroke="#9a32cd" points="151,-226.234 154.5,-236.234 158,-226.234 151,-226.234"/>
<text text-anchor="middle" x="160.5" y="-210" font-family="Helvetica,sans-Serif" font-size="10.00"> m</text>
</g>
</g>
</svg>
