<?xml version="1.0" encoding="UTF-8" standalone="no"?>
<!DOCTYPE svg PUBLIC "-//W3C//DTD SVG 1.1//EN"
 "http://www.w3.org/Graphics/SVG/1.1/DTD/svg11.dtd">
<!-- Generated by graphviz version 2.38.0 (20140413.2041)
 -->
<!-- Title: nonbonded_verlet_t Pages: 1 -->
<svg width="818pt" height="307pt"
 viewBox="0.00 0.00 818.00 307.00" xmlns="http://www.w3.org/2000/svg" xmlns:xlink="http://www.w3.org/1999/xlink">
<g id="graph0" class="graph" transform="scale(1 1) rotate(0) translate(4 303)">
<title>nonbonded_verlet_t</title>
<polygon fill="white" stroke="none" points="-4,4 -4,-303 814,-303 814,4 -4,4"/>
<!-- Node1 -->
<g id="node1" class="node"><title>Node1</title>
<polygon fill="#bfbfbf" stroke="black" points="709,-127.5 709,-146.5 810,-146.5 810,-127.5 709,-127.5"/>
<text text-anchor="middle" x="759.5" y="-134.5" font-family="Helvetica,sans-Serif" font-size="10.00">nonbonded_verlet_t</text>
</g>
<!-- Node2 -->
<g id="node2" class="node"><title>Node2</title>
<g id="a_node2"><a xlink:href="structgmx__nbnxn__ocl__t.xhtml" target="_top" xlink:title="Main data structure for OpenCL nonbonded force calculations. ">
<polygon fill="white" stroke="black" points="521,-147.5 521,-166.5 614,-166.5 614,-147.5 521,-147.5"/>
<text text-anchor="middle" x="567.5" y="-154.5" font-family="Helvetica,sans-Serif" font-size="10.00">gmx_nbnxn_ocl_t</text>
</a>
</g>
</g>
<!-- Node2&#45;&gt;Node1 -->
<g id="edge1" class="edge"><title>Node2&#45;&gt;Node1</title>
<path fill="none" stroke="#9a32cd" stroke-dasharray="5,2" d="M624.006,-151.157C650.798,-148.337 682.69,-144.98 708.692,-142.243"/>
<polygon fill="#9a32cd" stroke="#9a32cd" points="623.588,-147.682 614.01,-152.21 624.321,-154.643 623.588,-147.682"/>
<text text-anchor="middle" x="671" y="-152" font-family="Helvetica,sans-Serif" font-size="10.00"> gpu_nbv</text>
</g>
<!-- Node3 -->
<g id="node3" class="node"><title>Node3</title>
<g id="a_node3"><a xlink:href="structgmx__device__info__t.xhtml" target="_top" xlink:title="OpenCL device information. ">
<polygon fill="white" stroke="black" points="289,-278.5 289,-297.5 387,-297.5 387,-278.5 289,-278.5"/>
<text text-anchor="middle" x="338" y="-285.5" font-family="Helvetica,sans-Serif" font-size="10.00">gmx_device_info_t</text>
</a>
</g>
</g>
<!-- Node3&#45;&gt;Node2 -->
<g id="edge2" class="edge"><title>Node3&#45;&gt;Node2</title>
<path fill="none" stroke="#9a32cd" stroke-dasharray="5,2" d="M397.137,-278.876C424.947,-272.648 457.803,-262.44 484,-246 518.443,-224.386 547.843,-184.777 560.228,-166.59"/>
<polygon fill="#9a32cd" stroke="#9a32cd" points="396.198,-275.497 387.142,-280.994 397.65,-282.345 396.198,-275.497"/>
<text text-anchor="middle" x="455.5" y="-274" font-family="Helvetica,sans-Serif" font-size="10.00"> dev_info</text>
</g>
<!-- Node4 -->
<g id="node4" class="node"><title>Node4</title>
<g id="a_node4"><a xlink:href="structocl__gpu__id__t.xhtml" target="_top" xlink:title="OpenCL GPU device identificator. ">
<polygon fill="white" stroke="black" points="36,-278.5 36,-297.5 107,-297.5 107,-278.5 36,-278.5"/>
<text text-anchor="middle" x="71.5" y="-285.5" font-family="Helvetica,sans-Serif" font-size="10.00">ocl_gpu_id_t</text>
</a>
</g>
</g>
<!-- Node4&#45;&gt;Node3 -->
<g id="edge3" class="edge"><title>Node4&#45;&gt;Node3</title>
<path fill="none" stroke="#9a32cd" stroke-dasharray="5,2" d="M117.102,-288C164.758,-288 240.033,-288 288.967,-288"/>
<polygon fill="#9a32cd" stroke="#9a32cd" points="117.079,-284.5 107.079,-288 117.079,-291.5 117.079,-284.5"/>
<text text-anchor="middle" x="205" y="-291" font-family="Helvetica,sans-Serif" font-size="10.00"> ocl_gpu_id</text>
</g>
<!-- Node5 -->
<g id="node5" class="node"><title>Node5</title>
<g id="a_node5"><a xlink:href="structcl__atomdata.xhtml" target="_top" xlink:title="Nonbonded atom data &#45; both inputs and outputs. ">
<polygon fill="white" stroke="black" points="303,-240.5 303,-259.5 373,-259.5 373,-240.5 303,-240.5"/>
<text text-anchor="middle" x="338" y="-247.5" font-family="Helvetica,sans-Serif" font-size="10.00">cl_atomdata</text>
</a>
</g>
</g>
<!-- Node5&#45;&gt;Node2 -->
<g id="edge4" class="edge"><title>Node5&#45;&gt;Node2</title>
<path fill="none" stroke="#9a32cd" stroke-dasharray="5,2" d="M383.115,-241.937C412.506,-235.656 451.546,-225.538 484,-211 511.027,-198.893 539.201,-178.489 554.63,-166.53"/>
<polygon fill="#9a32cd" stroke="#9a32cd" points="382.231,-238.546 373.148,-244 383.65,-245.401 382.231,-238.546"/>
<text text-anchor="middle" x="455.5" y="-234" font-family="Helvetica,sans-Serif" font-size="10.00"> atdat</text>
</g>
<!-- Node6 -->
<g id="node6" class="node"><title>Node6</title>
<g id="a_node6"><a xlink:href="structcl__plist.xhtml" target="_top" xlink:title="Pair list data. ">
<polygon fill="white" stroke="black" points="314.5,-202.5 314.5,-221.5 361.5,-221.5 361.5,-202.5 314.5,-202.5"/>
<text text-anchor="middle" x="338" y="-209.5" font-family="Helvetica,sans-Serif" font-size="10.00">cl_plist</text>
</a>
</g>
</g>
<!-- Node6&#45;&gt;Node2 -->
<g id="edge5" class="edge"><title>Node6&#45;&gt;Node2</title>
<path fill="none" stroke="#9a32cd" stroke-dasharray="5,2" d="M371.945,-206.457C401.485,-201.24 445.909,-192.781 484,-183 502.473,-178.257 522.921,-171.821 538.839,-166.539"/>
<polygon fill="#9a32cd" stroke="#9a32cd" points="371.026,-203.065 361.775,-208.229 372.228,-209.961 371.026,-203.065"/>
<text text-anchor="middle" x="455.5" y="-199" font-family="Helvetica,sans-Serif" font-size="10.00"> plist</text>
</g>
<!-- Node7 -->
<g id="node7" class="node"><title>Node7</title>
<g id="a_node7"><a xlink:href="structcl__nb__staging.xhtml" target="_top" xlink:title="Staging area for temporary data downloaded from the GPU. ">
<polygon fill="white" stroke="black" points="299.5,-164.5 299.5,-183.5 376.5,-183.5 376.5,-164.5 299.5,-164.5"/>
<text text-anchor="middle" x="338" y="-171.5" font-family="Helvetica,sans-Serif" font-size="10.00">cl_nb_staging</text>
</a>
</g>
</g>
<!-- Node7&#45;&gt;Node2 -->
<g id="edge6" class="edge"><title>Node7&#45;&gt;Node2</title>
<path fill="none" stroke="#9a32cd" stroke-dasharray="5,2" d="M386.723,-170.434C426.138,-167.489 481.732,-163.334 520.629,-160.428"/>
<polygon fill="#9a32cd" stroke="#9a32cd" points="386.278,-166.957 376.567,-171.193 386.8,-173.938 386.278,-166.957"/>
<text text-anchor="middle" x="455.5" y="-171" font-family="Helvetica,sans-Serif" font-size="10.00"> nbst</text>
</g>
<!-- Node8 -->
<g id="node8" class="node"><title>Node8</title>
<g id="a_node8"><a xlink:href="structnbnxn__gpu__timers__t.xhtml" target="_top" xlink:title="GPU region timers used for timing GPU kernels and H2D/D2H transfers. ">
<polygon fill="white" stroke="black" points="286,-126.5 286,-145.5 390,-145.5 390,-126.5 286,-126.5"/>
<text text-anchor="middle" x="338" y="-133.5" font-family="Helvetica,sans-Serif" font-size="10.00">nbnxn_gpu_timers_t</text>
</a>
</g>
</g>
<!-- Node8&#45;&gt;Node2 -->
<g id="edge7" class="edge"><title>Node8&#45;&gt;Node2</title>
<path fill="none" stroke="#9a32cd" stroke-dasharray="5,2" d="M400.058,-141.375C425.95,-143.68 456.452,-146.429 484,-149 495.892,-150.11 508.745,-151.341 520.686,-152.498"/>
<polygon fill="#9a32cd" stroke="#9a32cd" points="400.279,-137.881 390.008,-140.482 399.659,-144.854 400.279,-137.881"/>
<text text-anchor="middle" x="455.5" y="-152" font-family="Helvetica,sans-Serif" font-size="10.00"> timers</text>
</g>
<!-- Node9 -->
<g id="node9" class="node"><title>Node9</title>
<g id="a_node9"><a xlink:href="classGpuRegionTimerWrapper.xhtml" target="_top" xlink:title="GpuRegionTimerWrapper\l\&lt; GpuFramework::OpenCL \&gt;">
<polygon fill="white" stroke="black" points="0,-121 0,-151 143,-151 143,-121 0,-121"/>
<text text-anchor="start" x="8" y="-139" font-family="Helvetica,sans-Serif" font-size="10.00">GpuRegionTimerWrapper</text>
<text text-anchor="middle" x="71.5" y="-128" font-family="Helvetica,sans-Serif" font-size="10.00">&lt; GpuFramework::OpenCL &gt;</text>
</a>
</g>
</g>
<!-- Node9&#45;&gt;Node8 -->
<g id="edge8" class="edge"><title>Node9&#45;&gt;Node8</title>
<path fill="none" stroke="#9a32cd" stroke-dasharray="5,2" d="M153.243,-136C196.437,-136 248.318,-136 285.922,-136"/>
<polygon fill="#9a32cd" stroke="#9a32cd" points="153.034,-132.5 143.034,-136 153.034,-139.5 153.034,-132.5"/>
<text text-anchor="middle" x="205" y="-205" font-family="Helvetica,sans-Serif" font-size="10.00"> rollingPrune_k</text>
<text text-anchor="middle" x="205" y="-194" font-family="Helvetica,sans-Serif" font-size="10.00">nb_k</text>
<text text-anchor="middle" x="205" y="-183" font-family="Helvetica,sans-Serif" font-size="10.00">pl_h2d</text>
<text text-anchor="middle" x="205" y="-172" font-family="Helvetica,sans-Serif" font-size="10.00">prune_k</text>
<text text-anchor="middle" x="205" y="-161" font-family="Helvetica,sans-Serif" font-size="10.00">nb_d2h</text>
<text text-anchor="middle" x="205" y="-150" font-family="Helvetica,sans-Serif" font-size="10.00">nb_h2d</text>
<text text-anchor="middle" x="205" y="-139" font-family="Helvetica,sans-Serif" font-size="10.00">atdat</text>
</g>
<!-- Node10 -->
<g id="node10" class="node"><title>Node10</title>
<g id="a_node10"><a xlink:href="structgmx__device__runtime__data__t.xhtml" target="_top" xlink:title="OpenCL GPU runtime data. ">
<polygon fill="white" stroke="black" points="284.5,-77 284.5,-107 391.5,-107 391.5,-77 284.5,-77"/>
<text text-anchor="start" x="292.5" y="-95" font-family="Helvetica,sans-Serif" font-size="10.00">gmx_device_runtime</text>
<text text-anchor="middle" x="338" y="-84" font-family="Helvetica,sans-Serif" font-size="10.00">_data_t</text>
</a>
</g>
</g>
<!-- Node10&#45;&gt;Node2 -->
<g id="edge9" class="edge"><title>Node10&#45;&gt;Node2</title>
<path fill="none" stroke="#9a32cd" stroke-dasharray="5,2" d="M401.888,-104.951C427.713,-111.063 457.673,-119.188 484,-129 492.381,-132.124 493.677,-134.723 502,-138 510.907,-141.507 520.726,-144.716 529.958,-147.459"/>
<polygon fill="#9a32cd" stroke="#9a32cd" points="402.372,-101.471 391.84,-102.624 400.793,-108.29 402.372,-101.471"/>
<text text-anchor="middle" x="455.5" y="-132" font-family="Helvetica,sans-Serif" font-size="10.00"> dev_rundata</text>
</g>
<!-- Node11 -->
<g id="node11" class="node"><title>Node11</title>
<g id="a_node11"><a xlink:href="structgmx__wallclock__gpu__nbnxn__t.xhtml" target="_top" xlink:title="GPU NB timings for kernels and H2d/D2H transfers. ">
<polygon fill="white" stroke="black" points="267,-38.5 267,-57.5 409,-57.5 409,-38.5 267,-38.5"/>
<text text-anchor="middle" x="338" y="-45.5" font-family="Helvetica,sans-Serif" font-size="10.00">gmx_wallclock_gpu_nbnxn_t</text>
</a>
</g>
</g>
<!-- Node11&#45;&gt;Node2 -->
<g id="edge10" class="edge"><title>Node11&#45;&gt;Node2</title>
<path fill="none" stroke="#9a32cd" stroke-dasharray="5,2" d="M387.254,-60.3114C394.581,-62.4072 402.021,-64.6658 409,-67 443.047,-78.3878 458.196,-72.0388 484,-97 498.304,-110.837 487.062,-124.851 502,-138 507.433,-142.782 514.017,-146.362 520.877,-149.042"/>
<polygon fill="#9a32cd" stroke="#9a32cd" points="387.958,-56.8744 377.386,-57.5624 386.08,-63.6177 387.958,-56.8744"/>
<text text-anchor="middle" x="455.5" y="-100" font-family="Helvetica,sans-Serif" font-size="10.00"> timings</text>
</g>
<!-- Node12 -->
<g id="node12" class="node"><title>Node12</title>
<g id="a_node12"><a xlink:href="structgmx__kernel__timing__data__t.xhtml" target="_top" xlink:title="GPU kernel time and call count. ">
<polygon fill="white" stroke="black" points="6,-38.5 6,-57.5 137,-57.5 137,-38.5 6,-38.5"/>
<text text-anchor="middle" x="71.5" y="-45.5" font-family="Helvetica,sans-Serif" font-size="10.00">gmx_kernel_timing_data_t</text>
</a>
</g>
</g>
<!-- Node12&#45;&gt;Node11 -->
<g id="edge11" class="edge"><title>Node12&#45;&gt;Node11</title>
<path fill="none" stroke="#9a32cd" stroke-dasharray="5,2" d="M147.565,-48C185.062,-48 230.154,-48 266.936,-48"/>
<polygon fill="#9a32cd" stroke="#9a32cd" points="147.204,-44.5001 137.204,-48 147.204,-51.5001 147.204,-44.5001"/>
<text text-anchor="middle" x="205" y="-73" font-family="Helvetica,sans-Serif" font-size="10.00"> dynamicPruneTime</text>
<text text-anchor="middle" x="205" y="-62" font-family="Helvetica,sans-Serif" font-size="10.00">ktime</text>
<text text-anchor="middle" x="205" y="-51" font-family="Helvetica,sans-Serif" font-size="10.00">pruneTime</text>
</g>
<!-- Node13 -->
<g id="node13" class="node"><title>Node13</title>
<g id="a_node13"><a xlink:href="structcl__nbparam.xhtml" target="_top" xlink:title="Parameters required for the OpenCL nonbonded calculations. ">
<polygon fill="white" stroke="black" points="304.5,-0.5 304.5,-19.5 371.5,-19.5 371.5,-0.5 304.5,-0.5"/>
<text text-anchor="middle" x="338" y="-7.5" font-family="Helvetica,sans-Serif" font-size="10.00">cl_nbparam</text>
</a>
</g>
</g>
<!-- Node13&#45;&gt;Node2 -->
<g id="edge12" class="edge"><title>Node13&#45;&gt;Node2</title>
<path fill="none" stroke="#9a32cd" stroke-dasharray="5,2" d="M381.88,-12.6732C414.734,-17.0918 458.609,-28.5532 484,-58 507.799,-85.6006 477.083,-111.404 502,-138 507.108,-143.452 513.693,-147.366 520.698,-150.169"/>
<polygon fill="#9a32cd" stroke="#9a32cd" points="381.977,-9.16071 371.637,-11.4722 381.162,-16.1131 381.977,-9.16071"/>
<text text-anchor="middle" x="455.5" y="-61" font-family="Helvetica,sans-Serif" font-size="10.00"> nbparam</text>
</g>
<!-- Node14 -->
<g id="node14" class="node"><title>Node14</title>
<g id="a_node14"><a xlink:href="structnonbonded__verlet__group__t.xhtml" target="_top" xlink:title="Non&#45;bonded interaction group data structure. ">
<polygon fill="white" stroke="black" points="502,-109.5 502,-128.5 633,-128.5 633,-109.5 502,-109.5"/>
<text text-anchor="middle" x="567.5" y="-116.5" font-family="Helvetica,sans-Serif" font-size="10.00">nonbonded_verlet_group_t</text>
</a>
</g>
</g>
<!-- Node14&#45;&gt;Node1 -->
<g id="edge13" class="edge"><title>Node14&#45;&gt;Node1</title>
<path fill="none" stroke="#9a32cd" stroke-dasharray="5,2" d="M643.428,-118.529C659.183,-119.075 675.67,-120.127 691,-122 701.009,-123.223 711.718,-125.258 721.588,-127.441"/>
<polygon fill="#9a32cd" stroke="#9a32cd" points="643.295,-115.024 633.2,-118.24 643.097,-122.021 643.295,-115.024"/>
<text text-anchor="middle" x="671" y="-125" font-family="Helvetica,sans-Serif" font-size="10.00"> grp</text>
</g>
</g>
</svg>
