<?xml version="1.0" encoding="UTF-8" standalone="no"?>
<!DOCTYPE svg PUBLIC "-//W3C//DTD SVG 1.1//EN"
 "http://www.w3.org/Graphics/SVG/1.1/DTD/svg11.dtd">
<!-- Generated by graphviz version 2.38.0 (20140413.2041)
 -->
<!-- Title: src/programs/mdrun/tests/tabulated_bonded_interactions.cpp Pages: 1 -->
<svg width="925pt" height="397pt"
 viewBox="0.00 0.00 924.52 397.00" xmlns="http://www.w3.org/2000/svg" xmlns:xlink="http://www.w3.org/1999/xlink">
<g id="graph0" class="graph" transform="scale(1 1) rotate(0) translate(4 393)">
<title>src/programs/mdrun/tests/tabulated_bonded_interactions.cpp</title>
<polygon fill="white" stroke="none" points="-4,4 -4,-393 920.521,-393 920.521,4 -4,4"/>
<!-- Node1 -->
<g id="node1" class="node"><title>Node1</title>
<polygon fill="#bfbfbf" stroke="black" points="224.521,-347.5 224.521,-388.5 345.521,-388.5 345.521,-347.5 224.521,-347.5"/>
<text text-anchor="start" x="232.521" y="-376.5" font-family="Helvetica,sans-Serif" font-size="10.00">src/programs/mdrun</text>
<text text-anchor="start" x="232.521" y="-365.5" font-family="Helvetica,sans-Serif" font-size="10.00">/tests/tabulated_bonded</text>
<text text-anchor="middle" x="285.021" y="-354.5" font-family="Helvetica,sans-Serif" font-size="10.00">_interactions.cpp</text>
</g>
<!-- Node2 -->
<g id="node2" class="node"><title>Node2</title>
<g id="a_node2"><a xlink:href="gmxpre_8h.xhtml" target="_top" xlink:title="Prerequisite header file for GROMACS build. ">
<polygon fill="white" stroke="black" points="137.521,-291.5 137.521,-310.5 194.521,-310.5 194.521,-291.5 137.521,-291.5"/>
<text text-anchor="middle" x="166.021" y="-298.5" font-family="Helvetica,sans-Serif" font-size="10.00">gmxpre.h</text>
</a>
</g>
</g>
<!-- Node1&#45;&gt;Node2 -->
<g id="edge1" class="edge"><title>Node1&#45;&gt;Node2</title>
<path fill="none" stroke="midnightblue" d="M249.317,-347.498C230.545,-337.245 207.991,-324.925 191.089,-315.693"/>
<polygon fill="midnightblue" stroke="midnightblue" points="192.315,-312.375 181.861,-310.652 188.96,-318.518 192.315,-312.375"/>
</g>
<!-- Node3 -->
<g id="node3" class="node"><title>Node3</title>
<polygon fill="white" stroke="#bfbfbf" points="145.521,-179.5 145.521,-198.5 216.521,-198.5 216.521,-179.5 145.521,-179.5"/>
<text text-anchor="middle" x="181.021" y="-186.5" font-family="Helvetica,sans-Serif" font-size="10.00">gtest/gtest.h</text>
</g>
<!-- Node1&#45;&gt;Node3 -->
<g id="edge2" class="edge"><title>Node1&#45;&gt;Node3</title>
<path fill="none" stroke="midnightblue" d="M273.493,-347.382C253.076,-312.633 210.873,-240.807 191.347,-207.574"/>
<polygon fill="midnightblue" stroke="midnightblue" points="194.148,-205.433 186.064,-198.584 188.113,-208.979 194.148,-205.433"/>
</g>
<!-- Node4 -->
<g id="node4" class="node"><title>Node4</title>
<g id="a_node4"><a xlink:href="stringutil_8h.xhtml" target="_top" xlink:title="Declares common string utility and formatting routines. ">
<polygon fill="white" stroke="black" points="40.0206,-235.5 40.0206,-254.5 168.021,-254.5 168.021,-235.5 40.0206,-235.5"/>
<text text-anchor="middle" x="104.021" y="-242.5" font-family="Helvetica,sans-Serif" font-size="10.00">gromacs/utility/stringutil.h</text>
</a>
</g>
</g>
<!-- Node1&#45;&gt;Node4 -->
<g id="edge3" class="edge"><title>Node1&#45;&gt;Node4</title>
<path fill="none" stroke="midnightblue" d="M267.268,-347.325C251.568,-330.759 227.423,-307.234 203.021,-291 182.715,-277.492 157.695,-266.158 137.888,-258.244"/>
<polygon fill="midnightblue" stroke="midnightblue" points="138.932,-254.895 128.343,-254.532 136.394,-261.418 138.932,-254.895"/>
</g>
<!-- Node9 -->
<g id="node9" class="node"><title>Node9</title>
<g id="a_node9"><a xlink:href="textwriter_8h.xhtml" target="_top" xlink:title="Declares gmx::TextWriter. ">
<polygon fill="white" stroke="black" points="644.021,-235.5 644.021,-254.5 776.021,-254.5 776.021,-235.5 644.021,-235.5"/>
<text text-anchor="middle" x="710.021" y="-242.5" font-family="Helvetica,sans-Serif" font-size="10.00">gromacs/utility/textwriter.h</text>
</a>
</g>
</g>
<!-- Node1&#45;&gt;Node9 -->
<g id="edge8" class="edge"><title>Node1&#45;&gt;Node9</title>
<path fill="none" stroke="midnightblue" d="M345.913,-349.664C434.256,-324.512 595.543,-278.592 670.177,-257.344"/>
<polygon fill="midnightblue" stroke="midnightblue" points="671.458,-260.618 680.117,-254.514 669.541,-253.886 671.458,-260.618"/>
</g>
<!-- Node14 -->
<g id="node14" class="node"><title>Node14</title>
<g id="a_node14"><a xlink:href="cmdlinetest_8h.xhtml" target="_top" xlink:title="Declares utilities testing command&#45;line programs. ">
<polygon fill="white" stroke="black" points="327.521,-235.5 327.521,-254.5 440.521,-254.5 440.521,-235.5 327.521,-235.5"/>
<text text-anchor="middle" x="384.021" y="-242.5" font-family="Helvetica,sans-Serif" font-size="10.00">testutils/cmdlinetest.h</text>
</a>
</g>
</g>
<!-- Node1&#45;&gt;Node14 -->
<g id="edge15" class="edge"><title>Node1&#45;&gt;Node14</title>
<path fill="none" stroke="midnightblue" d="M297.352,-347.213C307.532,-331.426 322.739,-309.045 338.021,-291 346.755,-280.687 357.506,-270.072 366.417,-261.744"/>
<polygon fill="midnightblue" stroke="midnightblue" points="368.97,-264.152 373.974,-254.813 364.238,-258.993 368.97,-264.152"/>
</g>
<!-- Node27 -->
<g id="node27" class="node"><title>Node27</title>
<g id="a_node27"><a xlink:href="programs_2mdrun_2tests_2moduletest_8h.xhtml" target="_top" xlink:title="Declares test fixtures for general mdrun functionality. ">
<polygon fill="white" stroke="black" points="347.521,-291.5 347.521,-310.5 420.521,-310.5 420.521,-291.5 347.521,-291.5"/>
<text text-anchor="middle" x="384.021" y="-298.5" font-family="Helvetica,sans-Serif" font-size="10.00">moduletest.h</text>
</a>
</g>
</g>
<!-- Node1&#45;&gt;Node27 -->
<g id="edge33" class="edge"><title>Node1&#45;&gt;Node27</title>
<path fill="none" stroke="midnightblue" d="M314.724,-347.498C330.048,-337.436 348.404,-325.385 362.372,-316.214"/>
<polygon fill="midnightblue" stroke="midnightblue" points="364.404,-319.067 370.842,-310.652 360.562,-313.215 364.404,-319.067"/>
</g>
<!-- Node5 -->
<g id="node5" class="node"><title>Node5</title>
<polygon fill="white" stroke="#bfbfbf" points="13.5206,-179.5 13.5206,-198.5 62.5206,-198.5 62.5206,-179.5 13.5206,-179.5"/>
<text text-anchor="middle" x="38.0206" y="-186.5" font-family="Helvetica,sans-Serif" font-size="10.00">cstdarg</text>
</g>
<!-- Node4&#45;&gt;Node5 -->
<g id="edge4" class="edge"><title>Node4&#45;&gt;Node5</title>
<path fill="none" stroke="midnightblue" d="M93.4166,-235.324C83.5645,-227.263 68.6697,-215.077 56.8055,-205.369"/>
<polygon fill="midnightblue" stroke="midnightblue" points="58.7736,-202.457 48.8176,-198.834 54.3409,-207.875 58.7736,-202.457"/>
</g>
<!-- Node6 -->
<g id="node6" class="node"><title>Node6</title>
<polygon fill="white" stroke="#bfbfbf" points="81.0206,-179.5 81.0206,-198.5 127.021,-198.5 127.021,-179.5 81.0206,-179.5"/>
<text text-anchor="middle" x="104.021" y="-186.5" font-family="Helvetica,sans-Serif" font-size="10.00">cstring</text>
</g>
<!-- Node4&#45;&gt;Node6 -->
<g id="edge5" class="edge"><title>Node4&#45;&gt;Node6</title>
<path fill="none" stroke="midnightblue" d="M104.021,-235.083C104.021,-228.006 104.021,-217.861 104.021,-208.986"/>
<polygon fill="midnightblue" stroke="midnightblue" points="107.521,-208.751 104.021,-198.751 100.521,-208.751 107.521,-208.751"/>
</g>
<!-- Node7 -->
<g id="node7" class="node"><title>Node7</title>
<polygon fill="white" stroke="#bfbfbf" points="493.521,-179.5 493.521,-198.5 534.521,-198.5 534.521,-179.5 493.521,-179.5"/>
<text text-anchor="middle" x="514.021" y="-186.5" font-family="Helvetica,sans-Serif" font-size="10.00">string</text>
</g>
<!-- Node4&#45;&gt;Node7 -->
<g id="edge6" class="edge"><title>Node4&#45;&gt;Node7</title>
<path fill="none" stroke="midnightblue" d="M168.083,-235.562C257.474,-223.789 416.16,-202.889 482.988,-194.087"/>
<polygon fill="midnightblue" stroke="midnightblue" points="483.809,-197.509 493.267,-192.733 482.895,-190.569 483.809,-197.509"/>
</g>
<!-- Node8 -->
<g id="node8" class="node"><title>Node8</title>
<polygon fill="white" stroke="#bfbfbf" points="10.0206,-123.5 10.0206,-142.5 54.0206,-142.5 54.0206,-123.5 10.0206,-123.5"/>
<text text-anchor="middle" x="32.0206" y="-130.5" font-family="Helvetica,sans-Serif" font-size="10.00">vector</text>
</g>
<!-- Node4&#45;&gt;Node8 -->
<g id="edge7" class="edge"><title>Node4&#45;&gt;Node8</title>
<path fill="none" stroke="midnightblue" d="M59.3247,-235.476C38.7946,-229.086 16.3217,-218.025 4.02064,-199 -5.92421,-183.619 5.20547,-164.112 16.2391,-150.499"/>
<polygon fill="midnightblue" stroke="midnightblue" points="18.9589,-152.706 22.9074,-142.874 13.6896,-148.098 18.9589,-152.706"/>
</g>
<!-- Node9&#45;&gt;Node7 -->
<g id="edge10" class="edge"><title>Node9&#45;&gt;Node7</title>
<path fill="none" stroke="midnightblue" d="M677.505,-235.461C645.951,-227.113 596.476,-213.865 544.405,-199.053"/>
<polygon fill="midnightblue" stroke="midnightblue" points="545.233,-195.649 534.656,-196.27 543.311,-202.38 545.233,-195.649"/>
</g>
<!-- Node10 -->
<g id="node10" class="node"><title>Node10</title>
<polygon fill="white" stroke="#bfbfbf" points="873.521,-179.5 873.521,-198.5 916.521,-198.5 916.521,-179.5 873.521,-179.5"/>
<text text-anchor="middle" x="895.021" y="-186.5" font-family="Helvetica,sans-Serif" font-size="10.00">cstdio</text>
</g>
<!-- Node9&#45;&gt;Node10 -->
<g id="edge9" class="edge"><title>Node9&#45;&gt;Node10</title>
<path fill="none" stroke="midnightblue" d="M739.334,-235.444C773.274,-225.537 828.953,-209.285 863.716,-199.137"/>
<polygon fill="midnightblue" stroke="midnightblue" points="864.74,-202.485 873.359,-196.323 862.778,-195.765 864.74,-202.485"/>
</g>
<!-- Node11 -->
<g id="node11" class="node"><title>Node11</title>
<g id="a_node11"><a xlink:href="classhelpers_8h.xhtml" target="_top" xlink:title="Declares common utility classes and macros. ">
<polygon fill="white" stroke="black" points="553.021,-179.5 553.021,-198.5 699.021,-198.5 699.021,-179.5 553.021,-179.5"/>
<text text-anchor="middle" x="626.021" y="-186.5" font-family="Helvetica,sans-Serif" font-size="10.00">gromacs/utility/classhelpers.h</text>
</a>
</g>
</g>
<!-- Node9&#45;&gt;Node11 -->
<g id="edge11" class="edge"><title>Node9&#45;&gt;Node11</title>
<path fill="none" stroke="midnightblue" d="M696.525,-235.324C683.421,-226.9 663.309,-213.971 647.914,-204.074"/>
<polygon fill="midnightblue" stroke="midnightblue" points="649.788,-201.118 639.483,-198.655 646.002,-207.006 649.788,-201.118"/>
</g>
<!-- Node13 -->
<g id="node13" class="node"><title>Node13</title>
<g id="a_node13"><a xlink:href="textstream_8h.xhtml" target="_top" xlink:title="Declares interfaces for simple input/output streams. ">
<polygon fill="white" stroke="black" points="717.021,-179.5 717.021,-198.5 855.021,-198.5 855.021,-179.5 717.021,-179.5"/>
<text text-anchor="middle" x="786.021" y="-186.5" font-family="Helvetica,sans-Serif" font-size="10.00">gromacs/utility/textstream.h</text>
</a>
</g>
</g>
<!-- Node9&#45;&gt;Node13 -->
<g id="edge13" class="edge"><title>Node9&#45;&gt;Node13</title>
<path fill="none" stroke="midnightblue" d="M722.231,-235.324C733.797,-227.107 751.396,-214.602 765.181,-204.807"/>
<polygon fill="midnightblue" stroke="midnightblue" points="767.463,-207.479 773.588,-198.834 763.409,-201.773 767.463,-207.479"/>
</g>
<!-- Node12 -->
<g id="node12" class="node"><title>Node12</title>
<polygon fill="white" stroke="#bfbfbf" points="600.021,-123.5 600.021,-142.5 652.021,-142.5 652.021,-123.5 600.021,-123.5"/>
<text text-anchor="middle" x="626.021" y="-130.5" font-family="Helvetica,sans-Serif" font-size="10.00">memory</text>
</g>
<!-- Node11&#45;&gt;Node12 -->
<g id="edge12" class="edge"><title>Node11&#45;&gt;Node12</title>
<path fill="none" stroke="midnightblue" d="M626.021,-179.083C626.021,-172.006 626.021,-161.861 626.021,-152.986"/>
<polygon fill="midnightblue" stroke="midnightblue" points="629.521,-152.751 626.021,-142.751 622.521,-152.751 629.521,-152.751"/>
</g>
<!-- Node13&#45;&gt;Node12 -->
<g id="edge14" class="edge"><title>Node13&#45;&gt;Node12</title>
<path fill="none" stroke="midnightblue" d="M760.668,-179.444C733.751,-170.359 691.024,-155.939 660.934,-145.783"/>
<polygon fill="midnightblue" stroke="midnightblue" points="661.849,-142.398 651.255,-142.516 659.61,-149.031 661.849,-142.398"/>
</g>
<!-- Node14&#45;&gt;Node3 -->
<g id="edge19" class="edge"><title>Node14&#45;&gt;Node3</title>
<path fill="none" stroke="midnightblue" d="M351.855,-235.444C316.962,-226.162 261.128,-211.309 222.85,-201.127"/>
<polygon fill="midnightblue" stroke="midnightblue" points="223.6,-197.705 213.036,-198.516 221.8,-204.47 223.6,-197.705"/>
</g>
<!-- Node14&#45;&gt;Node7 -->
<g id="edge18" class="edge"><title>Node14&#45;&gt;Node7</title>
<path fill="none" stroke="midnightblue" d="M404.62,-235.444C426.014,-226.557 459.702,-212.563 484.045,-202.451"/>
<polygon fill="midnightblue" stroke="midnightblue" points="485.626,-205.585 493.518,-198.516 482.941,-199.12 485.626,-205.585"/>
</g>
<!-- Node14&#45;&gt;Node11 -->
<g id="edge32" class="edge"><title>Node14&#45;&gt;Node11</title>
<path fill="none" stroke="midnightblue" d="M422.366,-235.444C464.494,-226.043 532.227,-210.929 577.893,-200.739"/>
<polygon fill="midnightblue" stroke="midnightblue" points="578.857,-204.11 587.854,-198.516 577.332,-197.278 578.857,-204.11"/>
</g>
<!-- Node14&#45;&gt;Node12 -->
<g id="edge17" class="edge"><title>Node14&#45;&gt;Node12</title>
<path fill="none" stroke="midnightblue" d="M395.128,-235.332C412.986,-221.739 449.576,-195.284 484.021,-179 518.633,-162.636 560.702,-150.149 590.028,-142.528"/>
<polygon fill="midnightblue" stroke="midnightblue" points="591.006,-145.891 599.836,-140.037 589.282,-139.106 591.006,-145.891"/>
</g>
<!-- Node15 -->
<g id="node15" class="node"><title>Node15</title>
<polygon fill="white" stroke="#bfbfbf" points="377.521,-179.5 377.521,-198.5 436.521,-198.5 436.521,-179.5 377.521,-179.5"/>
<text text-anchor="middle" x="407.021" y="-186.5" font-family="Helvetica,sans-Serif" font-size="10.00">functional</text>
</g>
<!-- Node14&#45;&gt;Node15 -->
<g id="edge16" class="edge"><title>Node14&#45;&gt;Node15</title>
<path fill="none" stroke="midnightblue" d="M387.819,-235.083C390.933,-227.77 395.443,-217.181 399.31,-208.103"/>
<polygon fill="midnightblue" stroke="midnightblue" points="402.595,-209.323 403.293,-198.751 396.155,-206.58 402.595,-209.323"/>
</g>
<!-- Node16 -->
<g id="node16" class="node"><title>Node16</title>
<g id="a_node16"><a xlink:href="arrayref_8h.xhtml" target="_top" xlink:title="Declares gmx::ArrayRef. ">
<polygon fill="white" stroke="black" points="234.521,-179.5 234.521,-198.5 359.521,-198.5 359.521,-179.5 234.521,-179.5"/>
<text text-anchor="middle" x="297.021" y="-186.5" font-family="Helvetica,sans-Serif" font-size="10.00">gromacs/utility/arrayref.h</text>
</a>
</g>
</g>
<!-- Node14&#45;&gt;Node16 -->
<g id="edge20" class="edge"><title>Node14&#45;&gt;Node16</title>
<path fill="none" stroke="midnightblue" d="M370.043,-235.324C356.471,-226.9 335.64,-213.971 319.696,-204.074"/>
<polygon fill="midnightblue" stroke="midnightblue" points="321.306,-200.954 310.964,-198.655 317.615,-206.902 321.306,-200.954"/>
</g>
<!-- Node16&#45;&gt;Node8 -->
<g id="edge26" class="edge"><title>Node16&#45;&gt;Node8</title>
<path fill="none" stroke="midnightblue" d="M255.031,-179.444C202.004,-168.638 111.93,-150.283 64.0939,-140.536"/>
<polygon fill="midnightblue" stroke="midnightblue" points="64.775,-137.103 54.2775,-138.535 63.3773,-143.962 64.775,-137.103"/>
</g>
<!-- Node17 -->
<g id="node17" class="node"><title>Node17</title>
<polygon fill="white" stroke="#bfbfbf" points="98.5206,-123.5 98.5206,-142.5 147.521,-142.5 147.521,-123.5 98.5206,-123.5"/>
<text text-anchor="middle" x="123.021" y="-130.5" font-family="Helvetica,sans-Serif" font-size="10.00">cstddef</text>
</g>
<!-- Node16&#45;&gt;Node17 -->
<g id="edge21" class="edge"><title>Node16&#45;&gt;Node17</title>
<path fill="none" stroke="midnightblue" d="M269.45,-179.444C239.055,-170.011 190.122,-154.824 157.285,-144.634"/>
<polygon fill="midnightblue" stroke="midnightblue" points="158.237,-141.265 147.649,-141.643 156.162,-147.95 158.237,-141.265"/>
</g>
<!-- Node18 -->
<g id="node18" class="node"><title>Node18</title>
<polygon fill="white" stroke="#bfbfbf" points="166.021,-123.5 166.021,-142.5 204.021,-142.5 204.021,-123.5 166.021,-123.5"/>
<text text-anchor="middle" x="185.021" y="-130.5" font-family="Helvetica,sans-Serif" font-size="10.00">array</text>
</g>
<!-- Node16&#45;&gt;Node18 -->
<g id="edge22" class="edge"><title>Node16&#45;&gt;Node18</title>
<path fill="none" stroke="midnightblue" d="M279.026,-179.324C260.983,-170.625 232.974,-157.12 212.218,-147.113"/>
<polygon fill="midnightblue" stroke="midnightblue" points="213.498,-143.845 202.971,-142.655 210.458,-150.15 213.498,-143.845"/>
</g>
<!-- Node19 -->
<g id="node19" class="node"><title>Node19</title>
<polygon fill="white" stroke="#bfbfbf" points="222.521,-123.5 222.521,-142.5 269.521,-142.5 269.521,-123.5 222.521,-123.5"/>
<text text-anchor="middle" x="246.021" y="-130.5" font-family="Helvetica,sans-Serif" font-size="10.00">iterator</text>
</g>
<!-- Node16&#45;&gt;Node19 -->
<g id="edge23" class="edge"><title>Node16&#45;&gt;Node19</title>
<path fill="none" stroke="midnightblue" d="M288.599,-179.083C281.172,-171.22 270.169,-159.569 261.208,-150.081"/>
<polygon fill="midnightblue" stroke="midnightblue" points="263.696,-147.618 254.286,-142.751 258.607,-152.424 263.696,-147.618"/>
</g>
<!-- Node20 -->
<g id="node20" class="node"><title>Node20</title>
<polygon fill="white" stroke="#bfbfbf" points="287.521,-123.5 287.521,-142.5 346.521,-142.5 346.521,-123.5 287.521,-123.5"/>
<text text-anchor="middle" x="317.021" y="-130.5" font-family="Helvetica,sans-Serif" font-size="10.00">stdexcept</text>
</g>
<!-- Node16&#45;&gt;Node20 -->
<g id="edge24" class="edge"><title>Node16&#45;&gt;Node20</title>
<path fill="none" stroke="midnightblue" d="M300.323,-179.083C303.003,-171.849 306.869,-161.409 310.207,-152.397"/>
<polygon fill="midnightblue" stroke="midnightblue" points="313.588,-153.344 313.779,-142.751 307.024,-150.913 313.588,-153.344"/>
</g>
<!-- Node21 -->
<g id="node21" class="node"><title>Node21</title>
<polygon fill="white" stroke="#bfbfbf" points="365.021,-123.5 365.021,-142.5 405.021,-142.5 405.021,-123.5 365.021,-123.5"/>
<text text-anchor="middle" x="385.021" y="-130.5" font-family="Helvetica,sans-Serif" font-size="10.00">utility</text>
</g>
<!-- Node16&#45;&gt;Node21 -->
<g id="edge25" class="edge"><title>Node16&#45;&gt;Node21</title>
<path fill="none" stroke="midnightblue" d="M311.159,-179.324C324.887,-170.9 345.957,-157.971 362.085,-148.074"/>
<polygon fill="midnightblue" stroke="midnightblue" points="364.224,-150.868 370.917,-142.655 360.563,-144.902 364.224,-150.868"/>
</g>
<!-- Node22 -->
<g id="node22" class="node"><title>Node22</title>
<g id="a_node22"><a xlink:href="gmxassert_8h.xhtml" target="_top" xlink:title="Defines assert macros customized for Gromacs. ">
<polygon fill="white" stroke="black" points="423.521,-123.5 423.521,-142.5 560.521,-142.5 560.521,-123.5 423.521,-123.5"/>
<text text-anchor="middle" x="492.021" y="-130.5" font-family="Helvetica,sans-Serif" font-size="10.00">gromacs/utility/gmxassert.h</text>
</a>
</g>
</g>
<!-- Node16&#45;&gt;Node22 -->
<g id="edge27" class="edge"><title>Node16&#45;&gt;Node22</title>
<path fill="none" stroke="midnightblue" d="M327.919,-179.444C361.294,-170.201 414.614,-155.436 451.37,-145.257"/>
<polygon fill="midnightblue" stroke="midnightblue" points="452.564,-148.558 461.267,-142.516 450.695,-141.812 452.564,-148.558"/>
</g>
<!-- Node23 -->
<g id="node23" class="node"><title>Node23</title>
<g id="a_node23"><a xlink:href="basedefinitions_8h.xhtml" target="_top" xlink:title="Basic types and macros used throughout GROMACS. ">
<polygon fill="white" stroke="black" points="337.521,-62 337.521,-81 494.521,-81 494.521,-62 337.521,-62"/>
<text text-anchor="middle" x="416.021" y="-69" font-family="Helvetica,sans-Serif" font-size="10.00">gromacs/utility/basedefinitions.h</text>
</a>
</g>
</g>
<!-- Node22&#45;&gt;Node23 -->
<g id="edge28" class="edge"><title>Node22&#45;&gt;Node23</title>
<path fill="none" stroke="midnightblue" d="M481.132,-123.475C469.054,-114.02 449.354,-98.5961 434.781,-87.1871"/>
<polygon fill="midnightblue" stroke="midnightblue" points="436.921,-84.4177 426.889,-81.0091 432.606,-89.9295 436.921,-84.4177"/>
</g>
<!-- Node26 -->
<g id="node26" class="node"><title>Node26</title>
<g id="a_node26"><a xlink:href="current__function_8h.xhtml" target="_top" xlink:title="Declares GMX_CURRENT_FUNCTION for getting the current function name. ">
<polygon fill="white" stroke="black" points="512.521,-56.5 512.521,-86.5 625.521,-86.5 625.521,-56.5 512.521,-56.5"/>
<text text-anchor="start" x="520.521" y="-74.5" font-family="Helvetica,sans-Serif" font-size="10.00">gromacs/utility/current</text>
<text text-anchor="middle" x="569.021" y="-63.5" font-family="Helvetica,sans-Serif" font-size="10.00">_function.h</text>
</a>
</g>
</g>
<!-- Node22&#45;&gt;Node26 -->
<g id="edge31" class="edge"><title>Node22&#45;&gt;Node26</title>
<path fill="none" stroke="midnightblue" d="M503.053,-123.475C513.384,-115.492 529.221,-103.254 542.788,-92.7703"/>
<polygon fill="midnightblue" stroke="midnightblue" points="545.1,-95.407 550.873,-86.523 540.82,-89.868 545.1,-95.407"/>
</g>
<!-- Node24 -->
<g id="node24" class="node"><title>Node24</title>
<polygon fill="white" stroke="#bfbfbf" points="355.521,-0.5 355.521,-19.5 404.521,-19.5 404.521,-0.5 355.521,-0.5"/>
<text text-anchor="middle" x="380.021" y="-7.5" font-family="Helvetica,sans-Serif" font-size="10.00">stdint.h</text>
</g>
<!-- Node23&#45;&gt;Node24 -->
<g id="edge29" class="edge"><title>Node23&#45;&gt;Node24</title>
<path fill="none" stroke="midnightblue" d="M410.863,-61.9751C405.57,-53.2268 397.185,-39.3691 390.494,-28.3093"/>
<polygon fill="midnightblue" stroke="midnightblue" points="393.34,-26.2531 385.169,-19.5091 387.351,-29.8768 393.34,-26.2531"/>
</g>
<!-- Node25 -->
<g id="node25" class="node"><title>Node25</title>
<polygon fill="white" stroke="#bfbfbf" points="422.521,-0.5 422.521,-19.5 481.521,-19.5 481.521,-0.5 422.521,-0.5"/>
<text text-anchor="middle" x="452.021" y="-7.5" font-family="Helvetica,sans-Serif" font-size="10.00">inttypes.h</text>
</g>
<!-- Node23&#45;&gt;Node25 -->
<g id="edge30" class="edge"><title>Node23&#45;&gt;Node25</title>
<path fill="none" stroke="midnightblue" d="M421.179,-61.9751C426.472,-53.2268 434.856,-39.3691 441.548,-28.3093"/>
<polygon fill="midnightblue" stroke="midnightblue" points="444.69,-29.8768 446.872,-19.5091 438.701,-26.2531 444.69,-29.8768"/>
</g>
<!-- Node27&#45;&gt;Node3 -->
<g id="edge34" class="edge"><title>Node27&#45;&gt;Node3</title>
<path fill="none" stroke="midnightblue" d="M370.486,-291.384C350.103,-278.533 310.168,-253.842 275.021,-235 253.43,-223.425 228.383,-211.506 209.575,-202.845"/>
<polygon fill="midnightblue" stroke="midnightblue" points="210.91,-199.607 200.36,-198.632 207.999,-205.973 210.91,-199.607"/>
</g>
<!-- Node27&#45;&gt;Node11 -->
<g id="edge35" class="edge"><title>Node27&#45;&gt;Node11</title>
<path fill="none" stroke="midnightblue" d="M420.654,-296.198C473.926,-290.02 569.337,-276.305 596.021,-255 610.417,-243.506 618.199,-223.532 622.201,-208.751"/>
<polygon fill="midnightblue" stroke="midnightblue" points="625.685,-209.223 624.57,-198.687 618.872,-207.618 625.685,-209.223"/>
</g>
<!-- Node27&#45;&gt;Node14 -->
<g id="edge36" class="edge"><title>Node27&#45;&gt;Node14</title>
<path fill="none" stroke="midnightblue" d="M384.021,-291.083C384.021,-284.006 384.021,-273.861 384.021,-264.986"/>
<polygon fill="midnightblue" stroke="midnightblue" points="387.521,-264.751 384.021,-254.751 380.521,-264.751 387.521,-264.751"/>
</g>
<!-- Node28 -->
<g id="node28" class="node"><title>Node28</title>
<g id="a_node28"><a xlink:href="testfilemanager_8h.xhtml" target="_top" xlink:title="Declares gmx::test::TestFileManager. ">
<polygon fill="white" stroke="black" points="458.521,-235.5 458.521,-254.5 587.521,-254.5 587.521,-235.5 458.521,-235.5"/>
<text text-anchor="middle" x="523.021" y="-242.5" font-family="Helvetica,sans-Serif" font-size="10.00">testutils/testfilemanager.h</text>
</a>
</g>
</g>
<!-- Node27&#45;&gt;Node28 -->
<g id="edge37" class="edge"><title>Node27&#45;&gt;Node28</title>
<path fill="none" stroke="midnightblue" d="M406.046,-291.444C429.125,-282.478 465.583,-268.314 491.661,-258.183"/>
<polygon fill="midnightblue" stroke="midnightblue" points="493.045,-261.4 501.099,-254.516 490.51,-254.875 493.045,-261.4"/>
</g>
<!-- Node28&#45;&gt;Node7 -->
<g id="edge38" class="edge"><title>Node28&#45;&gt;Node7</title>
<path fill="none" stroke="midnightblue" d="M521.534,-235.083C520.342,-227.927 518.627,-217.635 517.136,-208.691"/>
<polygon fill="midnightblue" stroke="midnightblue" points="520.576,-208.04 515.479,-198.751 513.671,-209.19 520.576,-208.04"/>
</g>
<!-- Node28&#45;&gt;Node11 -->
<g id="edge39" class="edge"><title>Node28&#45;&gt;Node11</title>
<path fill="none" stroke="midnightblue" d="M539.569,-235.324C556.012,-226.703 581.455,-213.364 600.489,-203.386"/>
<polygon fill="midnightblue" stroke="midnightblue" points="602.282,-206.398 609.513,-198.655 599.031,-200.198 602.282,-206.398"/>
</g>
</g>
</svg>
