<?xml version="1.0" encoding="UTF-8" standalone="no"?>
<!DOCTYPE svg PUBLIC "-//W3C//DTD SVG 1.1//EN"
 "http://www.w3.org/Graphics/SVG/1.1/DTD/svg11.dtd">
<!-- Generated by graphviz version 2.38.0 (20140413.2041)
 -->
<!-- Title: src/programs/mdrun/tests/terminationhelper.h Pages: 1 -->
<svg width="766pt" height="386pt"
 viewBox="0.00 0.00 765.50 386.00" xmlns="http://www.w3.org/2000/svg" xmlns:xlink="http://www.w3.org/1999/xlink">
<g id="graph0" class="graph" transform="scale(1 1) rotate(0) translate(4 382)">
<title>src/programs/mdrun/tests/terminationhelper.h</title>
<polygon fill="white" stroke="none" points="-4,4 -4,-382 761.5,-382 761.5,4 -4,4"/>
<!-- Node1 -->
<g id="node1" class="node"><title>Node1</title>
<polygon fill="#bfbfbf" stroke="black" points="398,-347.5 398,-377.5 525,-377.5 525,-347.5 398,-347.5"/>
<text text-anchor="start" x="406" y="-365.5" font-family="Helvetica,sans-Serif" font-size="10.00">src/programs/mdrun</text>
<text text-anchor="middle" x="461.5" y="-354.5" font-family="Helvetica,sans-Serif" font-size="10.00">/tests/terminationhelper.h</text>
</g>
<!-- Node2 -->
<g id="node2" class="node"><title>Node2</title>
<g id="a_node2"><a xlink:href="cmdlinetest_8h.xhtml" target="_top" xlink:title="Declares utilities testing command&#45;line programs. ">
<polygon fill="white" stroke="black" points="358,-235.5 358,-254.5 471,-254.5 471,-235.5 358,-235.5"/>
<text text-anchor="middle" x="414.5" y="-242.5" font-family="Helvetica,sans-Serif" font-size="10.00">testutils/cmdlinetest.h</text>
</a>
</g>
</g>
<!-- Node1&#45;&gt;Node2 -->
<g id="edge1" class="edge"><title>Node1&#45;&gt;Node2</title>
<path fill="none" stroke="midnightblue" d="M455.737,-347.337C447.192,-326.338 431.166,-286.955 421.808,-263.958"/>
<polygon fill="midnightblue" stroke="midnightblue" points="425.039,-262.613 418.028,-254.669 418.555,-265.251 425.039,-262.613"/>
</g>
<!-- Node20 -->
<g id="node20" class="node"><title>Node20</title>
<g id="a_node20"><a xlink:href="programs_2mdrun_2tests_2moduletest_8h.xhtml" target="_top" xlink:title="Declares test fixtures for general mdrun functionality. ">
<polygon fill="white" stroke="black" points="463,-291.5 463,-310.5 536,-310.5 536,-291.5 463,-291.5"/>
<text text-anchor="middle" x="499.5" y="-298.5" font-family="Helvetica,sans-Serif" font-size="10.00">moduletest.h</text>
</a>
</g>
</g>
<!-- Node1&#45;&gt;Node20 -->
<g id="edge20" class="edge"><title>Node1&#45;&gt;Node20</title>
<path fill="none" stroke="midnightblue" d="M470.505,-347.399C475.913,-338.932 482.832,-328.099 488.554,-319.139"/>
<polygon fill="midnightblue" stroke="midnightblue" points="491.538,-320.97 493.971,-310.658 485.638,-317.202 491.538,-320.97"/>
</g>
<!-- Node3 -->
<g id="node3" class="node"><title>Node3</title>
<polygon fill="white" stroke="#bfbfbf" points="386,-179.5 386,-198.5 445,-198.5 445,-179.5 386,-179.5"/>
<text text-anchor="middle" x="415.5" y="-186.5" font-family="Helvetica,sans-Serif" font-size="10.00">functional</text>
</g>
<!-- Node2&#45;&gt;Node3 -->
<g id="edge2" class="edge"><title>Node2&#45;&gt;Node3</title>
<path fill="none" stroke="midnightblue" d="M414.665,-235.083C414.796,-228.006 414.984,-217.861 415.148,-208.986"/>
<polygon fill="midnightblue" stroke="midnightblue" points="418.652,-208.814 415.338,-198.751 411.653,-208.685 418.652,-208.814"/>
</g>
<!-- Node4 -->
<g id="node4" class="node"><title>Node4</title>
<polygon fill="white" stroke="#bfbfbf" points="600.5,-123.5 600.5,-142.5 652.5,-142.5 652.5,-123.5 600.5,-123.5"/>
<text text-anchor="middle" x="626.5" y="-130.5" font-family="Helvetica,sans-Serif" font-size="10.00">memory</text>
</g>
<!-- Node2&#45;&gt;Node4 -->
<g id="edge3" class="edge"><title>Node2&#45;&gt;Node4</title>
<path fill="none" stroke="midnightblue" d="M402.985,-235.421C386.884,-222.405 361.24,-197.252 376.5,-179 390.093,-162.742 524.216,-145.529 590.207,-137.961"/>
<polygon fill="midnightblue" stroke="midnightblue" points="590.642,-141.434 600.184,-136.83 589.854,-134.478 590.642,-141.434"/>
</g>
<!-- Node5 -->
<g id="node5" class="node"><title>Node5</title>
<polygon fill="white" stroke="#bfbfbf" points="552,-179.5 552,-198.5 593,-198.5 593,-179.5 552,-179.5"/>
<text text-anchor="middle" x="572.5" y="-186.5" font-family="Helvetica,sans-Serif" font-size="10.00">string</text>
</g>
<!-- Node2&#45;&gt;Node5 -->
<g id="edge4" class="edge"><title>Node2&#45;&gt;Node5</title>
<path fill="none" stroke="midnightblue" d="M439.536,-235.444C467.367,-225.932 512.314,-210.57 542.133,-200.379"/>
<polygon fill="midnightblue" stroke="midnightblue" points="543.288,-203.683 551.618,-197.137 541.024,-197.059 543.288,-203.683"/>
</g>
<!-- Node6 -->
<g id="node6" class="node"><title>Node6</title>
<polygon fill="white" stroke="#bfbfbf" points="463,-179.5 463,-198.5 534,-198.5 534,-179.5 463,-179.5"/>
<text text-anchor="middle" x="498.5" y="-186.5" font-family="Helvetica,sans-Serif" font-size="10.00">gtest/gtest.h</text>
</g>
<!-- Node2&#45;&gt;Node6 -->
<g id="edge5" class="edge"><title>Node2&#45;&gt;Node6</title>
<path fill="none" stroke="midnightblue" d="M427.996,-235.324C441.1,-226.9 461.212,-213.971 476.607,-204.074"/>
<polygon fill="midnightblue" stroke="midnightblue" points="478.518,-207.006 485.037,-198.655 474.733,-201.118 478.518,-207.006"/>
</g>
<!-- Node7 -->
<g id="node7" class="node"><title>Node7</title>
<g id="a_node7"><a xlink:href="arrayref_8h.xhtml" target="_top" xlink:title="Declares gmx::ArrayRef. ">
<polygon fill="white" stroke="black" points="204,-179.5 204,-198.5 329,-198.5 329,-179.5 204,-179.5"/>
<text text-anchor="middle" x="266.5" y="-186.5" font-family="Helvetica,sans-Serif" font-size="10.00">gromacs/utility/arrayref.h</text>
</a>
</g>
</g>
<!-- Node2&#45;&gt;Node7 -->
<g id="edge6" class="edge"><title>Node2&#45;&gt;Node7</title>
<path fill="none" stroke="midnightblue" d="M391.049,-235.444C366.367,-226.438 327.315,-212.189 299.523,-202.049"/>
<polygon fill="midnightblue" stroke="midnightblue" points="300.435,-198.656 289.841,-198.516 298.036,-205.232 300.435,-198.656"/>
</g>
<!-- Node19 -->
<g id="node19" class="node"><title>Node19</title>
<g id="a_node19"><a xlink:href="classhelpers_8h.xhtml" target="_top" xlink:title="Declares common utility classes and macros. ">
<polygon fill="white" stroke="black" points="611.5,-179.5 611.5,-198.5 757.5,-198.5 757.5,-179.5 611.5,-179.5"/>
<text text-anchor="middle" x="684.5" y="-186.5" font-family="Helvetica,sans-Serif" font-size="10.00">gromacs/utility/classhelpers.h</text>
</a>
</g>
</g>
<!-- Node2&#45;&gt;Node19 -->
<g id="edge18" class="edge"><title>Node2&#45;&gt;Node19</title>
<path fill="none" stroke="midnightblue" d="M457.282,-235.444C504.679,-225.964 581.126,-210.675 632.083,-200.483"/>
<polygon fill="midnightblue" stroke="midnightblue" points="632.798,-203.91 641.918,-198.516 631.426,-197.046 632.798,-203.91"/>
</g>
<!-- Node8 -->
<g id="node8" class="node"><title>Node8</title>
<polygon fill="white" stroke="#bfbfbf" points="353,-123.5 353,-142.5 402,-142.5 402,-123.5 353,-123.5"/>
<text text-anchor="middle" x="377.5" y="-130.5" font-family="Helvetica,sans-Serif" font-size="10.00">cstddef</text>
</g>
<!-- Node7&#45;&gt;Node8 -->
<g id="edge7" class="edge"><title>Node7&#45;&gt;Node8</title>
<path fill="none" stroke="midnightblue" d="M284.334,-179.324C302.216,-170.625 329.975,-157.12 350.546,-147.113"/>
<polygon fill="midnightblue" stroke="midnightblue" points="352.249,-150.177 359.71,-142.655 349.187,-143.882 352.249,-150.177"/>
</g>
<!-- Node9 -->
<g id="node9" class="node"><title>Node9</title>
<polygon fill="white" stroke="#bfbfbf" points="420.5,-123.5 420.5,-142.5 458.5,-142.5 458.5,-123.5 420.5,-123.5"/>
<text text-anchor="middle" x="439.5" y="-130.5" font-family="Helvetica,sans-Serif" font-size="10.00">array</text>
</g>
<!-- Node7&#45;&gt;Node9 -->
<g id="edge8" class="edge"><title>Node7&#45;&gt;Node9</title>
<path fill="none" stroke="midnightblue" d="M293.912,-179.444C325.722,-169.515 377.952,-153.211 410.446,-143.069"/>
<polygon fill="midnightblue" stroke="midnightblue" points="411.748,-146.329 420.251,-140.008 409.662,-139.647 411.748,-146.329"/>
</g>
<!-- Node10 -->
<g id="node10" class="node"><title>Node10</title>
<polygon fill="white" stroke="#bfbfbf" points="477,-123.5 477,-142.5 524,-142.5 524,-123.5 477,-123.5"/>
<text text-anchor="middle" x="500.5" y="-130.5" font-family="Helvetica,sans-Serif" font-size="10.00">iterator</text>
</g>
<!-- Node7&#45;&gt;Node10 -->
<g id="edge9" class="edge"><title>Node7&#45;&gt;Node10</title>
<path fill="none" stroke="midnightblue" d="M307.052,-179.494C345.674,-171.266 405.663,-158.155 466.904,-143.059"/>
<polygon fill="midnightblue" stroke="midnightblue" points="467.878,-146.424 476.741,-140.62 466.193,-139.63 467.878,-146.424"/>
</g>
<!-- Node11 -->
<g id="node11" class="node"><title>Node11</title>
<polygon fill="white" stroke="#bfbfbf" points="0,-123.5 0,-142.5 59,-142.5 59,-123.5 0,-123.5"/>
<text text-anchor="middle" x="29.5" y="-130.5" font-family="Helvetica,sans-Serif" font-size="10.00">stdexcept</text>
</g>
<!-- Node7&#45;&gt;Node11 -->
<g id="edge10" class="edge"><title>Node7&#45;&gt;Node11</title>
<path fill="none" stroke="midnightblue" d="M228.902,-179.494C191.091,-170.931 130.848,-157.265 69.2095,-143.157"/>
<polygon fill="midnightblue" stroke="midnightblue" points="69.8371,-139.71 59.3081,-140.89 68.2746,-146.533 69.8371,-139.71"/>
</g>
<!-- Node12 -->
<g id="node12" class="node"><title>Node12</title>
<polygon fill="white" stroke="#bfbfbf" points="77.5,-123.5 77.5,-142.5 117.5,-142.5 117.5,-123.5 77.5,-123.5"/>
<text text-anchor="middle" x="97.5" y="-130.5" font-family="Helvetica,sans-Serif" font-size="10.00">utility</text>
</g>
<!-- Node7&#45;&gt;Node12 -->
<g id="edge11" class="edge"><title>Node7&#45;&gt;Node12</title>
<path fill="none" stroke="midnightblue" d="M239.721,-179.444C209.151,-169.676 159.274,-153.738 127.442,-143.567"/>
<polygon fill="midnightblue" stroke="midnightblue" points="128.379,-140.192 117.788,-140.483 126.248,-146.86 128.379,-140.192"/>
</g>
<!-- Node13 -->
<g id="node13" class="node"><title>Node13</title>
<polygon fill="white" stroke="#bfbfbf" points="135.5,-123.5 135.5,-142.5 179.5,-142.5 179.5,-123.5 135.5,-123.5"/>
<text text-anchor="middle" x="157.5" y="-130.5" font-family="Helvetica,sans-Serif" font-size="10.00">vector</text>
</g>
<!-- Node7&#45;&gt;Node13 -->
<g id="edge12" class="edge"><title>Node7&#45;&gt;Node13</title>
<path fill="none" stroke="midnightblue" d="M248.987,-179.324C231.428,-170.625 204.169,-157.12 183.969,-147.113"/>
<polygon fill="midnightblue" stroke="midnightblue" points="185.484,-143.958 174.969,-142.655 182.376,-150.23 185.484,-143.958"/>
</g>
<!-- Node14 -->
<g id="node14" class="node"><title>Node14</title>
<g id="a_node14"><a xlink:href="gmxassert_8h.xhtml" target="_top" xlink:title="Defines assert macros customized for Gromacs. ">
<polygon fill="white" stroke="black" points="198,-123.5 198,-142.5 335,-142.5 335,-123.5 198,-123.5"/>
<text text-anchor="middle" x="266.5" y="-130.5" font-family="Helvetica,sans-Serif" font-size="10.00">gromacs/utility/gmxassert.h</text>
</a>
</g>
</g>
<!-- Node7&#45;&gt;Node14 -->
<g id="edge13" class="edge"><title>Node7&#45;&gt;Node14</title>
<path fill="none" stroke="midnightblue" d="M266.5,-179.083C266.5,-172.006 266.5,-161.861 266.5,-152.986"/>
<polygon fill="midnightblue" stroke="midnightblue" points="270,-152.751 266.5,-142.751 263,-152.751 270,-152.751"/>
</g>
<!-- Node15 -->
<g id="node15" class="node"><title>Node15</title>
<g id="a_node15"><a xlink:href="basedefinitions_8h.xhtml" target="_top" xlink:title="Basic types and macros used throughout GROMACS. ">
<polygon fill="white" stroke="black" points="111,-62 111,-81 268,-81 268,-62 111,-62"/>
<text text-anchor="middle" x="189.5" y="-69" font-family="Helvetica,sans-Serif" font-size="10.00">gromacs/utility/basedefinitions.h</text>
</a>
</g>
</g>
<!-- Node14&#45;&gt;Node15 -->
<g id="edge14" class="edge"><title>Node14&#45;&gt;Node15</title>
<path fill="none" stroke="midnightblue" d="M255.468,-123.475C243.232,-114.02 223.271,-98.5961 208.507,-87.1871"/>
<polygon fill="midnightblue" stroke="midnightblue" points="210.565,-84.3541 200.512,-81.0091 206.285,-89.8931 210.565,-84.3541"/>
</g>
<!-- Node18 -->
<g id="node18" class="node"><title>Node18</title>
<g id="a_node18"><a xlink:href="current__function_8h.xhtml" target="_top" xlink:title="Declares GMX_CURRENT_FUNCTION for getting the current function name. ">
<polygon fill="white" stroke="black" points="286,-56.5 286,-86.5 399,-86.5 399,-56.5 286,-56.5"/>
<text text-anchor="start" x="294" y="-74.5" font-family="Helvetica,sans-Serif" font-size="10.00">gromacs/utility/current</text>
<text text-anchor="middle" x="342.5" y="-63.5" font-family="Helvetica,sans-Serif" font-size="10.00">_function.h</text>
</a>
</g>
</g>
<!-- Node14&#45;&gt;Node18 -->
<g id="edge17" class="edge"><title>Node14&#45;&gt;Node18</title>
<path fill="none" stroke="midnightblue" d="M277.389,-123.475C287.586,-115.492 303.217,-103.254 316.609,-92.7703"/>
<polygon fill="midnightblue" stroke="midnightblue" points="318.872,-95.4434 324.588,-86.523 314.557,-89.9316 318.872,-95.4434"/>
</g>
<!-- Node16 -->
<g id="node16" class="node"><title>Node16</title>
<polygon fill="white" stroke="#bfbfbf" points="129,-0.5 129,-19.5 178,-19.5 178,-0.5 129,-0.5"/>
<text text-anchor="middle" x="153.5" y="-7.5" font-family="Helvetica,sans-Serif" font-size="10.00">stdint.h</text>
</g>
<!-- Node15&#45;&gt;Node16 -->
<g id="edge15" class="edge"><title>Node15&#45;&gt;Node16</title>
<path fill="none" stroke="midnightblue" d="M184.342,-61.9751C179.049,-53.2268 170.665,-39.3691 163.973,-28.3093"/>
<polygon fill="midnightblue" stroke="midnightblue" points="166.82,-26.2531 158.648,-19.5091 160.83,-29.8768 166.82,-26.2531"/>
</g>
<!-- Node17 -->
<g id="node17" class="node"><title>Node17</title>
<polygon fill="white" stroke="#bfbfbf" points="196,-0.5 196,-19.5 255,-19.5 255,-0.5 196,-0.5"/>
<text text-anchor="middle" x="225.5" y="-7.5" font-family="Helvetica,sans-Serif" font-size="10.00">inttypes.h</text>
</g>
<!-- Node15&#45;&gt;Node17 -->
<g id="edge16" class="edge"><title>Node15&#45;&gt;Node17</title>
<path fill="none" stroke="midnightblue" d="M194.658,-61.9751C199.951,-53.2268 208.335,-39.3691 215.027,-28.3093"/>
<polygon fill="midnightblue" stroke="midnightblue" points="218.17,-29.8768 220.352,-19.5091 212.18,-26.2531 218.17,-29.8768"/>
</g>
<!-- Node19&#45;&gt;Node4 -->
<g id="edge19" class="edge"><title>Node19&#45;&gt;Node4</title>
<path fill="none" stroke="midnightblue" d="M675.181,-179.324C666.607,-171.341 653.688,-159.313 643.312,-149.653"/>
<polygon fill="midnightblue" stroke="midnightblue" points="645.692,-147.086 635.988,-142.834 640.922,-152.21 645.692,-147.086"/>
</g>
<!-- Node20&#45;&gt;Node2 -->
<g id="edge23" class="edge"><title>Node20&#45;&gt;Node2</title>
<path fill="none" stroke="midnightblue" d="M485.843,-291.324C472.584,-282.9 452.232,-269.971 436.654,-260.074"/>
<polygon fill="midnightblue" stroke="midnightblue" points="438.44,-257.063 428.123,-254.655 434.687,-262.971 438.44,-257.063"/>
</g>
<!-- Node20&#45;&gt;Node6 -->
<g id="edge21" class="edge"><title>Node20&#45;&gt;Node6</title>
<path fill="none" stroke="midnightblue" d="M499.422,-291.368C499.26,-273.617 498.888,-232.666 498.669,-208.597"/>
<polygon fill="midnightblue" stroke="midnightblue" points="502.169,-208.559 498.578,-198.591 495.169,-208.623 502.169,-208.559"/>
</g>
<!-- Node20&#45;&gt;Node19 -->
<g id="edge22" class="edge"><title>Node20&#45;&gt;Node19</title>
<path fill="none" stroke="midnightblue" d="M536.203,-300.136C573.921,-298.247 631.878,-289.383 666.5,-255 678.563,-243.021 682.733,-223.722 684.082,-209.26"/>
<polygon fill="midnightblue" stroke="midnightblue" points="687.596,-209.109 684.657,-198.93 680.607,-208.72 687.596,-209.109"/>
</g>
<!-- Node21 -->
<g id="node21" class="node"><title>Node21</title>
<g id="a_node21"><a xlink:href="testfilemanager_8h.xhtml" target="_top" xlink:title="Declares gmx::test::TestFileManager. ">
<polygon fill="white" stroke="black" points="528,-235.5 528,-254.5 657,-254.5 657,-235.5 528,-235.5"/>
<text text-anchor="middle" x="592.5" y="-242.5" font-family="Helvetica,sans-Serif" font-size="10.00">testutils/testfilemanager.h</text>
</a>
</g>
</g>
<!-- Node20&#45;&gt;Node21 -->
<g id="edge24" class="edge"><title>Node20&#45;&gt;Node21</title>
<path fill="none" stroke="midnightblue" d="M514.442,-291.324C529.085,-282.822 551.634,-269.729 568.738,-259.797"/>
<polygon fill="midnightblue" stroke="midnightblue" points="570.705,-262.703 577.595,-254.655 567.19,-256.649 570.705,-262.703"/>
</g>
<!-- Node21&#45;&gt;Node5 -->
<g id="edge25" class="edge"><title>Node21&#45;&gt;Node5</title>
<path fill="none" stroke="midnightblue" d="M589.197,-235.083C586.518,-227.849 582.651,-217.409 579.314,-208.397"/>
<polygon fill="midnightblue" stroke="midnightblue" points="582.496,-206.913 575.741,-198.751 575.932,-209.344 582.496,-206.913"/>
</g>
<!-- Node21&#45;&gt;Node19 -->
<g id="edge26" class="edge"><title>Node21&#45;&gt;Node19</title>
<path fill="none" stroke="midnightblue" d="M607.281,-235.324C621.767,-226.822 644.073,-213.729 660.993,-203.797"/>
<polygon fill="midnightblue" stroke="midnightblue" points="662.903,-206.735 669.755,-198.655 659.359,-200.698 662.903,-206.735"/>
</g>
</g>
</svg>
