<?xml version="1.0" encoding="UTF-8" standalone="no"?>
<!DOCTYPE svg PUBLIC "-//W3C//DTD SVG 1.1//EN"
 "http://www.w3.org/Graphics/SVG/1.1/DTD/svg11.dtd">
<!-- Generated by graphviz version 2.38.0 (20140413.2041)
 -->
<!-- Title: src/programs/mdrun/tests/termination.cpp Pages: 1 -->
<svg width="649pt" height="442pt"
 viewBox="0.00 0.00 648.50 442.00" xmlns="http://www.w3.org/2000/svg" xmlns:xlink="http://www.w3.org/1999/xlink">
<g id="graph0" class="graph" transform="scale(1 1) rotate(0) translate(4 438)">
<title>src/programs/mdrun/tests/termination.cpp</title>
<polygon fill="white" stroke="none" points="-4,4 -4,-438 644.5,-438 644.5,4 -4,4"/>
<!-- Node1 -->
<g id="node1" class="node"><title>Node1</title>
<polygon fill="#bfbfbf" stroke="black" points="248,-403.5 248,-433.5 359,-433.5 359,-403.5 248,-403.5"/>
<text text-anchor="start" x="256" y="-421.5" font-family="Helvetica,sans-Serif" font-size="10.00">src/programs/mdrun</text>
<text text-anchor="middle" x="303.5" y="-410.5" font-family="Helvetica,sans-Serif" font-size="10.00">/tests/termination.cpp</text>
</g>
<!-- Node2 -->
<g id="node2" class="node"><title>Node2</title>
<g id="a_node2"><a xlink:href="gmxpre_8h.xhtml" target="_top" xlink:title="Prerequisite header file for GROMACS build. ">
<polygon fill="white" stroke="black" points="121,-347.5 121,-366.5 178,-366.5 178,-347.5 121,-347.5"/>
<text text-anchor="middle" x="149.5" y="-354.5" font-family="Helvetica,sans-Serif" font-size="10.00">gmxpre.h</text>
</a>
</g>
</g>
<!-- Node1&#45;&gt;Node2 -->
<g id="edge1" class="edge"><title>Node1&#45;&gt;Node2</title>
<path fill="none" stroke="midnightblue" d="M267.004,-403.399C240.935,-393.327 206.206,-379.909 181.276,-370.277"/>
<polygon fill="midnightblue" stroke="midnightblue" points="182.498,-366.997 171.908,-366.658 179.975,-373.527 182.498,-366.997"/>
</g>
<!-- Node3 -->
<g id="node3" class="node"><title>Node3</title>
<polygon fill="white" stroke="#bfbfbf" points="87,-179.5 87,-198.5 158,-198.5 158,-179.5 87,-179.5"/>
<text text-anchor="middle" x="122.5" y="-186.5" font-family="Helvetica,sans-Serif" font-size="10.00">gtest/gtest.h</text>
</g>
<!-- Node1&#45;&gt;Node3 -->
<g id="edge2" class="edge"><title>Node1&#45;&gt;Node3</title>
<path fill="none" stroke="midnightblue" d="M284.94,-403.314C273.003,-393.731 257.531,-380.421 245.5,-367 197.51,-313.468 152.274,-240.594 132.688,-207.561"/>
<polygon fill="midnightblue" stroke="midnightblue" points="135.54,-205.505 127.459,-198.654 129.504,-209.05 135.54,-205.505"/>
</g>
<!-- Node4 -->
<g id="node4" class="node"><title>Node4</title>
<g id="a_node4"><a xlink:href="testfilemanager_8h.xhtml" target="_top" xlink:title="Declares gmx::test::TestFileManager. ">
<polygon fill="white" stroke="black" points="443,-235.5 443,-254.5 572,-254.5 572,-235.5 443,-235.5"/>
<text text-anchor="middle" x="507.5" y="-242.5" font-family="Helvetica,sans-Serif" font-size="10.00">testutils/testfilemanager.h</text>
</a>
</g>
</g>
<!-- Node1&#45;&gt;Node4 -->
<g id="edge3" class="edge"><title>Node1&#45;&gt;Node4</title>
<path fill="none" stroke="midnightblue" d="M327.515,-403.311C343.106,-393.726 363.595,-380.416 380.5,-367 423.792,-332.642 469.529,-286.187 492.487,-262.054"/>
<polygon fill="midnightblue" stroke="midnightblue" points="495.041,-264.448 499.364,-254.776 489.952,-259.641 495.041,-264.448"/>
</g>
<!-- Node8 -->
<g id="node8" class="node"><title>Node8</title>
<g id="a_node8"><a xlink:href="programs_2mdrun_2tests_2moduletest_8h.xhtml" target="_top" xlink:title="Declares test fixtures for general mdrun functionality. ">
<polygon fill="white" stroke="black" points="341,-291.5 341,-310.5 414,-310.5 414,-291.5 341,-291.5"/>
<text text-anchor="middle" x="377.5" y="-298.5" font-family="Helvetica,sans-Serif" font-size="10.00">moduletest.h</text>
</a>
</g>
</g>
<!-- Node1&#45;&gt;Node8 -->
<g id="edge7" class="edge"><title>Node1&#45;&gt;Node8</title>
<path fill="none" stroke="midnightblue" d="M326.292,-403.319C338.806,-394.384 353.556,-381.759 362.5,-367 371.035,-352.917 374.716,-334.426 376.302,-320.768"/>
<polygon fill="midnightblue" stroke="midnightblue" points="379.804,-320.906 377.203,-310.635 372.831,-320.286 379.804,-320.906"/>
</g>
<!-- Node23 -->
<g id="node23" class="node"><title>Node23</title>
<g id="a_node23"><a xlink:href="terminationhelper_8h.xhtml" target="_top" xlink:title="Declares functionality used to test mdrun termination functionality under different conditions...">
<polygon fill="white" stroke="black" points="254,-347.5 254,-366.5 353,-366.5 353,-347.5 254,-347.5"/>
<text text-anchor="middle" x="303.5" y="-354.5" font-family="Helvetica,sans-Serif" font-size="10.00">terminationhelper.h</text>
</a>
</g>
</g>
<!-- Node1&#45;&gt;Node23 -->
<g id="edge29" class="edge"><title>Node1&#45;&gt;Node23</title>
<path fill="none" stroke="midnightblue" d="M303.5,-403.399C303.5,-395.466 303.5,-385.458 303.5,-376.858"/>
<polygon fill="midnightblue" stroke="midnightblue" points="307,-376.658 303.5,-366.658 300,-376.658 307,-376.658"/>
</g>
<!-- Node5 -->
<g id="node5" class="node"><title>Node5</title>
<polygon fill="white" stroke="#bfbfbf" points="435,-179.5 435,-198.5 476,-198.5 476,-179.5 435,-179.5"/>
<text text-anchor="middle" x="455.5" y="-186.5" font-family="Helvetica,sans-Serif" font-size="10.00">string</text>
</g>
<!-- Node4&#45;&gt;Node5 -->
<g id="edge4" class="edge"><title>Node4&#45;&gt;Node5</title>
<path fill="none" stroke="midnightblue" d="M498.913,-235.083C491.341,-227.22 480.122,-215.569 470.986,-206.081"/>
<polygon fill="midnightblue" stroke="midnightblue" points="473.385,-203.527 463.927,-198.751 468.342,-208.382 473.385,-203.527"/>
</g>
<!-- Node6 -->
<g id="node6" class="node"><title>Node6</title>
<g id="a_node6"><a xlink:href="classhelpers_8h.xhtml" target="_top" xlink:title="Declares common utility classes and macros. ">
<polygon fill="white" stroke="black" points="494.5,-179.5 494.5,-198.5 640.5,-198.5 640.5,-179.5 494.5,-179.5"/>
<text text-anchor="middle" x="567.5" y="-186.5" font-family="Helvetica,sans-Serif" font-size="10.00">gromacs/utility/classhelpers.h</text>
</a>
</g>
</g>
<!-- Node4&#45;&gt;Node6 -->
<g id="edge5" class="edge"><title>Node4&#45;&gt;Node6</title>
<path fill="none" stroke="midnightblue" d="M517.14,-235.324C526.01,-227.341 539.375,-215.313 550.108,-205.653"/>
<polygon fill="midnightblue" stroke="midnightblue" points="552.593,-208.125 557.685,-198.834 547.91,-202.922 552.593,-208.125"/>
</g>
<!-- Node7 -->
<g id="node7" class="node"><title>Node7</title>
<polygon fill="white" stroke="#bfbfbf" points="541.5,-123.5 541.5,-142.5 593.5,-142.5 593.5,-123.5 541.5,-123.5"/>
<text text-anchor="middle" x="567.5" y="-130.5" font-family="Helvetica,sans-Serif" font-size="10.00">memory</text>
</g>
<!-- Node6&#45;&gt;Node7 -->
<g id="edge6" class="edge"><title>Node6&#45;&gt;Node7</title>
<path fill="none" stroke="midnightblue" d="M567.5,-179.083C567.5,-172.006 567.5,-161.861 567.5,-152.986"/>
<polygon fill="midnightblue" stroke="midnightblue" points="571,-152.751 567.5,-142.751 564,-152.751 571,-152.751"/>
</g>
<!-- Node8&#45;&gt;Node3 -->
<g id="edge8" class="edge"><title>Node8&#45;&gt;Node3</title>
<path fill="none" stroke="midnightblue" d="M354.851,-291.366C331.939,-282.542 295.565,-268.285 264.5,-255 258.858,-252.587 190.157,-221.069 150.424,-202.826"/>
<polygon fill="midnightblue" stroke="midnightblue" points="151.786,-199.6 141.238,-198.608 148.865,-205.961 151.786,-199.6"/>
</g>
<!-- Node8&#45;&gt;Node4 -->
<g id="edge28" class="edge"><title>Node8&#45;&gt;Node4</title>
<path fill="none" stroke="midnightblue" d="M398.099,-291.444C419.493,-282.557 453.181,-268.563 477.524,-258.451"/>
<polygon fill="midnightblue" stroke="midnightblue" points="479.105,-261.585 486.997,-254.516 476.42,-255.12 479.105,-261.585"/>
</g>
<!-- Node8&#45;&gt;Node6 -->
<g id="edge9" class="edge"><title>Node8&#45;&gt;Node6</title>
<path fill="none" stroke="midnightblue" d="M383.039,-291.106C392.133,-277.203 411.53,-250.332 434.5,-235 458.484,-218.991 488.702,-208.168 514.272,-201.157"/>
<polygon fill="midnightblue" stroke="midnightblue" points="515.395,-204.481 524.183,-198.564 513.622,-197.71 515.395,-204.481"/>
</g>
<!-- Node9 -->
<g id="node9" class="node"><title>Node9</title>
<g id="a_node9"><a xlink:href="cmdlinetest_8h.xhtml" target="_top" xlink:title="Declares utilities testing command&#45;line programs. ">
<polygon fill="white" stroke="black" points="273,-235.5 273,-254.5 386,-254.5 386,-235.5 273,-235.5"/>
<text text-anchor="middle" x="329.5" y="-242.5" font-family="Helvetica,sans-Serif" font-size="10.00">testutils/cmdlinetest.h</text>
</a>
</g>
</g>
<!-- Node8&#45;&gt;Node9 -->
<g id="edge10" class="edge"><title>Node8&#45;&gt;Node9</title>
<path fill="none" stroke="midnightblue" d="M369.574,-291.083C362.654,-283.298 352.435,-271.801 344.048,-262.367"/>
<polygon fill="midnightblue" stroke="midnightblue" points="346.538,-259.9 337.279,-254.751 341.306,-264.55 346.538,-259.9"/>
</g>
<!-- Node9&#45;&gt;Node3 -->
<g id="edge14" class="edge"><title>Node9&#45;&gt;Node3</title>
<path fill="none" stroke="midnightblue" d="M296.7,-235.444C261.12,-226.162 204.186,-211.309 165.153,-201.127"/>
<polygon fill="midnightblue" stroke="midnightblue" points="165.706,-197.654 155.146,-198.516 163.939,-204.427 165.706,-197.654"/>
</g>
<!-- Node9&#45;&gt;Node5 -->
<g id="edge13" class="edge"><title>Node9&#45;&gt;Node5</title>
<path fill="none" stroke="midnightblue" d="M349.465,-235.444C370.109,-226.596 402.563,-212.687 426.132,-202.586"/>
<polygon fill="midnightblue" stroke="midnightblue" points="427.816,-205.673 435.628,-198.516 425.058,-199.239 427.816,-205.673"/>
</g>
<!-- Node9&#45;&gt;Node6 -->
<g id="edge27" class="edge"><title>Node9&#45;&gt;Node6</title>
<path fill="none" stroke="midnightblue" d="M367.212,-235.444C408.643,-226.043 475.257,-210.929 520.167,-200.739"/>
<polygon fill="midnightblue" stroke="midnightblue" points="520.987,-204.142 529.965,-198.516 519.438,-197.316 520.987,-204.142"/>
</g>
<!-- Node9&#45;&gt;Node7 -->
<g id="edge12" class="edge"><title>Node9&#45;&gt;Node7</title>
<path fill="none" stroke="midnightblue" d="M329.508,-235.375C330.019,-221.351 333.183,-193.698 349.5,-179 408.742,-125.633 448.539,-158.585 531.148,-143.029"/>
<polygon fill="midnightblue" stroke="midnightblue" points="532.089,-146.408 541.166,-140.944 530.663,-139.555 532.089,-146.408"/>
</g>
<!-- Node10 -->
<g id="node10" class="node"><title>Node10</title>
<polygon fill="white" stroke="#bfbfbf" points="358,-179.5 358,-198.5 417,-198.5 417,-179.5 358,-179.5"/>
<text text-anchor="middle" x="387.5" y="-186.5" font-family="Helvetica,sans-Serif" font-size="10.00">functional</text>
</g>
<!-- Node9&#45;&gt;Node10 -->
<g id="edge11" class="edge"><title>Node9&#45;&gt;Node10</title>
<path fill="none" stroke="midnightblue" d="M338.819,-235.324C347.393,-227.341 360.312,-215.313 370.688,-205.653"/>
<polygon fill="midnightblue" stroke="midnightblue" points="373.078,-208.21 378.012,-198.834 368.308,-203.086 373.078,-208.21"/>
</g>
<!-- Node11 -->
<g id="node11" class="node"><title>Node11</title>
<g id="a_node11"><a xlink:href="arrayref_8h.xhtml" target="_top" xlink:title="Declares gmx::ArrayRef. ">
<polygon fill="white" stroke="black" points="176,-179.5 176,-198.5 301,-198.5 301,-179.5 176,-179.5"/>
<text text-anchor="middle" x="238.5" y="-186.5" font-family="Helvetica,sans-Serif" font-size="10.00">gromacs/utility/arrayref.h</text>
</a>
</g>
</g>
<!-- Node9&#45;&gt;Node11 -->
<g id="edge15" class="edge"><title>Node9&#45;&gt;Node11</title>
<path fill="none" stroke="midnightblue" d="M314.879,-235.324C300.551,-226.822 278.487,-213.729 261.751,-203.797"/>
<polygon fill="midnightblue" stroke="midnightblue" points="263.47,-200.748 253.084,-198.655 259.898,-206.768 263.47,-200.748"/>
</g>
<!-- Node12 -->
<g id="node12" class="node"><title>Node12</title>
<polygon fill="white" stroke="#bfbfbf" points="418,-123.5 418,-142.5 467,-142.5 467,-123.5 418,-123.5"/>
<text text-anchor="middle" x="442.5" y="-130.5" font-family="Helvetica,sans-Serif" font-size="10.00">cstddef</text>
</g>
<!-- Node11&#45;&gt;Node12 -->
<g id="edge16" class="edge"><title>Node11&#45;&gt;Node12</title>
<path fill="none" stroke="midnightblue" d="M271.305,-179.46C303.728,-170.999 355.007,-157.563 408.073,-143.367"/>
<polygon fill="midnightblue" stroke="midnightblue" points="409.244,-146.677 417.998,-140.708 407.433,-139.915 409.244,-146.677"/>
</g>
<!-- Node13 -->
<g id="node13" class="node"><title>Node13</title>
<polygon fill="white" stroke="#bfbfbf" points="485.5,-123.5 485.5,-142.5 523.5,-142.5 523.5,-123.5 485.5,-123.5"/>
<text text-anchor="middle" x="504.5" y="-130.5" font-family="Helvetica,sans-Serif" font-size="10.00">array</text>
</g>
<!-- Node11&#45;&gt;Node13 -->
<g id="edge17" class="edge"><title>Node11&#45;&gt;Node13</title>
<path fill="none" stroke="midnightblue" d="M294.231,-179.473C340.465,-171.944 408.056,-159.892 475.382,-143.036"/>
<polygon fill="midnightblue" stroke="midnightblue" points="476.481,-146.368 485.311,-140.514 474.758,-139.584 476.481,-146.368"/>
</g>
<!-- Node14 -->
<g id="node14" class="node"><title>Node14</title>
<polygon fill="white" stroke="#bfbfbf" points="0,-123.5 0,-142.5 47,-142.5 47,-123.5 0,-123.5"/>
<text text-anchor="middle" x="23.5" y="-130.5" font-family="Helvetica,sans-Serif" font-size="10.00">iterator</text>
</g>
<!-- Node11&#45;&gt;Node14 -->
<g id="edge18" class="edge"><title>Node11&#45;&gt;Node14</title>
<path fill="none" stroke="midnightblue" d="M202.299,-179.471C167.339,-171.152 112.669,-157.927 56.9238,-143.32"/>
<polygon fill="midnightblue" stroke="midnightblue" points="57.8033,-139.932 47.2418,-140.772 56.0216,-146.702 57.8033,-139.932"/>
</g>
<!-- Node15 -->
<g id="node15" class="node"><title>Node15</title>
<polygon fill="white" stroke="#bfbfbf" points="65,-123.5 65,-142.5 124,-142.5 124,-123.5 65,-123.5"/>
<text text-anchor="middle" x="94.5" y="-130.5" font-family="Helvetica,sans-Serif" font-size="10.00">stdexcept</text>
</g>
<!-- Node11&#45;&gt;Node15 -->
<g id="edge19" class="edge"><title>Node11&#45;&gt;Node15</title>
<path fill="none" stroke="midnightblue" d="M215.683,-179.444C191.668,-170.438 153.671,-156.189 126.631,-146.049"/>
<polygon fill="midnightblue" stroke="midnightblue" points="127.803,-142.751 117.21,-142.516 125.345,-149.305 127.803,-142.751"/>
</g>
<!-- Node16 -->
<g id="node16" class="node"><title>Node16</title>
<polygon fill="white" stroke="#bfbfbf" points="142.5,-123.5 142.5,-142.5 182.5,-142.5 182.5,-123.5 142.5,-123.5"/>
<text text-anchor="middle" x="162.5" y="-130.5" font-family="Helvetica,sans-Serif" font-size="10.00">utility</text>
</g>
<!-- Node11&#45;&gt;Node16 -->
<g id="edge20" class="edge"><title>Node11&#45;&gt;Node16</title>
<path fill="none" stroke="midnightblue" d="M226.289,-179.324C214.724,-171.107 197.125,-158.602 183.339,-148.807"/>
<polygon fill="midnightblue" stroke="midnightblue" points="185.112,-145.773 174.933,-142.834 181.057,-151.479 185.112,-145.773"/>
</g>
<!-- Node17 -->
<g id="node17" class="node"><title>Node17</title>
<polygon fill="white" stroke="#bfbfbf" points="200.5,-123.5 200.5,-142.5 244.5,-142.5 244.5,-123.5 200.5,-123.5"/>
<text text-anchor="middle" x="222.5" y="-130.5" font-family="Helvetica,sans-Serif" font-size="10.00">vector</text>
</g>
<!-- Node11&#45;&gt;Node17 -->
<g id="edge21" class="edge"><title>Node11&#45;&gt;Node17</title>
<path fill="none" stroke="midnightblue" d="M235.858,-179.083C233.714,-171.849 230.621,-161.409 227.951,-152.397"/>
<polygon fill="midnightblue" stroke="midnightblue" points="231.29,-151.345 225.093,-142.751 224.578,-153.333 231.29,-151.345"/>
</g>
<!-- Node18 -->
<g id="node18" class="node"><title>Node18</title>
<g id="a_node18"><a xlink:href="gmxassert_8h.xhtml" target="_top" xlink:title="Defines assert macros customized for Gromacs. ">
<polygon fill="white" stroke="black" points="263,-123.5 263,-142.5 400,-142.5 400,-123.5 263,-123.5"/>
<text text-anchor="middle" x="331.5" y="-130.5" font-family="Helvetica,sans-Serif" font-size="10.00">gromacs/utility/gmxassert.h</text>
</a>
</g>
</g>
<!-- Node11&#45;&gt;Node18 -->
<g id="edge22" class="edge"><title>Node11&#45;&gt;Node18</title>
<path fill="none" stroke="midnightblue" d="M253.442,-179.324C268.085,-170.822 290.634,-157.729 307.738,-147.797"/>
<polygon fill="midnightblue" stroke="midnightblue" points="309.705,-150.703 316.595,-142.655 306.19,-144.649 309.705,-150.703"/>
</g>
<!-- Node19 -->
<g id="node19" class="node"><title>Node19</title>
<g id="a_node19"><a xlink:href="basedefinitions_8h.xhtml" target="_top" xlink:title="Basic types and macros used throughout GROMACS. ">
<polygon fill="white" stroke="black" points="176,-62 176,-81 333,-81 333,-62 176,-62"/>
<text text-anchor="middle" x="254.5" y="-69" font-family="Helvetica,sans-Serif" font-size="10.00">gromacs/utility/basedefinitions.h</text>
</a>
</g>
</g>
<!-- Node18&#45;&gt;Node19 -->
<g id="edge23" class="edge"><title>Node18&#45;&gt;Node19</title>
<path fill="none" stroke="midnightblue" d="M320.468,-123.475C308.232,-114.02 288.271,-98.5961 273.507,-87.1871"/>
<polygon fill="midnightblue" stroke="midnightblue" points="275.565,-84.3541 265.512,-81.0091 271.285,-89.8931 275.565,-84.3541"/>
</g>
<!-- Node22 -->
<g id="node22" class="node"><title>Node22</title>
<g id="a_node22"><a xlink:href="current__function_8h.xhtml" target="_top" xlink:title="Declares GMX_CURRENT_FUNCTION for getting the current function name. ">
<polygon fill="white" stroke="black" points="351,-56.5 351,-86.5 464,-86.5 464,-56.5 351,-56.5"/>
<text text-anchor="start" x="359" y="-74.5" font-family="Helvetica,sans-Serif" font-size="10.00">gromacs/utility/current</text>
<text text-anchor="middle" x="407.5" y="-63.5" font-family="Helvetica,sans-Serif" font-size="10.00">_function.h</text>
</a>
</g>
</g>
<!-- Node18&#45;&gt;Node22 -->
<g id="edge26" class="edge"><title>Node18&#45;&gt;Node22</title>
<path fill="none" stroke="midnightblue" d="M342.389,-123.475C352.586,-115.492 368.217,-103.254 381.609,-92.7703"/>
<polygon fill="midnightblue" stroke="midnightblue" points="383.872,-95.4434 389.588,-86.523 379.557,-89.9316 383.872,-95.4434"/>
</g>
<!-- Node20 -->
<g id="node20" class="node"><title>Node20</title>
<polygon fill="white" stroke="#bfbfbf" points="194,-0.5 194,-19.5 243,-19.5 243,-0.5 194,-0.5"/>
<text text-anchor="middle" x="218.5" y="-7.5" font-family="Helvetica,sans-Serif" font-size="10.00">stdint.h</text>
</g>
<!-- Node19&#45;&gt;Node20 -->
<g id="edge24" class="edge"><title>Node19&#45;&gt;Node20</title>
<path fill="none" stroke="midnightblue" d="M249.342,-61.9751C244.049,-53.2268 235.665,-39.3691 228.973,-28.3093"/>
<polygon fill="midnightblue" stroke="midnightblue" points="231.82,-26.2531 223.648,-19.5091 225.83,-29.8768 231.82,-26.2531"/>
</g>
<!-- Node21 -->
<g id="node21" class="node"><title>Node21</title>
<polygon fill="white" stroke="#bfbfbf" points="261,-0.5 261,-19.5 320,-19.5 320,-0.5 261,-0.5"/>
<text text-anchor="middle" x="290.5" y="-7.5" font-family="Helvetica,sans-Serif" font-size="10.00">inttypes.h</text>
</g>
<!-- Node19&#45;&gt;Node21 -->
<g id="edge25" class="edge"><title>Node19&#45;&gt;Node21</title>
<path fill="none" stroke="midnightblue" d="M259.658,-61.9751C264.951,-53.2268 273.335,-39.3691 280.027,-28.3093"/>
<polygon fill="midnightblue" stroke="midnightblue" points="283.17,-29.8768 285.352,-19.5091 277.18,-26.2531 283.17,-29.8768"/>
</g>
<!-- Node23&#45;&gt;Node8 -->
<g id="edge31" class="edge"><title>Node23&#45;&gt;Node8</title>
<path fill="none" stroke="midnightblue" d="M315.389,-347.324C326.65,-339.107 343.787,-326.602 357.209,-316.807"/>
<polygon fill="midnightblue" stroke="midnightblue" points="359.38,-319.556 365.394,-310.834 355.253,-313.901 359.38,-319.556"/>
</g>
<!-- Node23&#45;&gt;Node9 -->
<g id="edge30" class="edge"><title>Node23&#45;&gt;Node9</title>
<path fill="none" stroke="midnightblue" d="M305.54,-347.368C309.736,-329.617 319.415,-288.666 325.104,-264.597"/>
<polygon fill="midnightblue" stroke="midnightblue" points="328.575,-265.128 327.469,-254.591 321.763,-263.518 328.575,-265.128"/>
</g>
</g>
</svg>
