<?xml version="1.0" encoding="UTF-8" standalone="no"?>
<!DOCTYPE svg PUBLIC "-//W3C//DTD SVG 1.1//EN"
 "http://www.w3.org/Graphics/SVG/1.1/DTD/svg11.dtd">
<!-- Generated by graphviz version 2.38.0 (20140413.2041)
 -->
<!-- Title: src/gromacs/utility/textreader.h Pages: 1 -->
<svg width="1453pt" height="106pt"
 viewBox="0.00 0.00 1452.50 106.00" xmlns="http://www.w3.org/2000/svg" xmlns:xlink="http://www.w3.org/1999/xlink">
<g id="graph0" class="graph" transform="scale(1 1) rotate(0) translate(4 102)">
<title>src/gromacs/utility/textreader.h</title>
<polygon fill="white" stroke="none" points="-4,4 -4,-102 1448.5,-102 1448.5,4 -4,4"/>
<!-- Node1 -->
<g id="node1" class="node"><title>Node1</title>
<polygon fill="#bfbfbf" stroke="black" points="669,-67.5 669,-97.5 766,-97.5 766,-67.5 669,-67.5"/>
<text text-anchor="start" x="677" y="-85.5" font-family="Helvetica,sans-Serif" font-size="10.00">src/gromacs/utility</text>
<text text-anchor="middle" x="717.5" y="-74.5" font-family="Helvetica,sans-Serif" font-size="10.00">/textreader.h</text>
</g>
<!-- Node2 -->
<g id="node2" class="node"><title>Node2</title>
<g id="a_node2"><a xlink:href="cmdlinehelpmodule_8cpp.xhtml" target="_top" xlink:title="Implements gmx::CommandLineHelpModule. ">
<polygon fill="white" stroke="black" points="0,-0.5 0,-30.5 131,-30.5 131,-0.5 0,-0.5"/>
<text text-anchor="start" x="8" y="-18.5" font-family="Helvetica,sans-Serif" font-size="10.00">src/gromacs/commandline</text>
<text text-anchor="middle" x="65.5" y="-7.5" font-family="Helvetica,sans-Serif" font-size="10.00">/cmdlinehelpmodule.cpp</text>
</a>
</g>
</g>
<!-- Node1&#45;&gt;Node2 -->
<g id="edge1" class="edge"><title>Node1&#45;&gt;Node2</title>
<path fill="none" stroke="midnightblue" d="M658.628,-78.3688C553.993,-72.354 328.914,-57.3861 140.5,-31 137.479,-30.577 134.396,-30.1129 131.286,-29.6186"/>
<polygon fill="midnightblue" stroke="midnightblue" points="658.492,-81.8666 668.674,-78.94 658.889,-74.8779 658.492,-81.8666"/>
</g>
<!-- Node3 -->
<g id="node3" class="node"><title>Node3</title>
<g id="a_node3"><a xlink:href="tests_2readir_8cpp.xhtml" target="_top" xlink:title="Test routines that parse mdp fields from grompp input and writes mdp back out. ">
<polygon fill="white" stroke="black" points="149.5,-0.5 149.5,-30.5 289.5,-30.5 289.5,-0.5 149.5,-0.5"/>
<text text-anchor="start" x="157.5" y="-18.5" font-family="Helvetica,sans-Serif" font-size="10.00">src/gromacs/gmxpreprocess</text>
<text text-anchor="middle" x="219.5" y="-7.5" font-family="Helvetica,sans-Serif" font-size="10.00">/tests/readir.cpp</text>
</a>
</g>
</g>
<!-- Node1&#45;&gt;Node3 -->
<g id="edge2" class="edge"><title>Node1&#45;&gt;Node3</title>
<path fill="none" stroke="midnightblue" d="M658.96,-75.5948C577.818,-67.1478 426.668,-50.467 298.5,-31 295.605,-30.5603 292.653,-30.0951 289.674,-29.6116"/>
<polygon fill="midnightblue" stroke="midnightblue" points="658.672,-79.0836 668.98,-76.633 659.394,-72.1209 658.672,-79.0836"/>
</g>
<!-- Node4 -->
<g id="node4" class="node"><title>Node4</title>
<g id="a_node4"><a xlink:href="tests_2solvate_8cpp.xhtml" target="_top" xlink:title="Tests for solvation. ">
<polygon fill="white" stroke="black" points="307.5,-0.5 307.5,-30.5 447.5,-30.5 447.5,-0.5 307.5,-0.5"/>
<text text-anchor="start" x="315.5" y="-18.5" font-family="Helvetica,sans-Serif" font-size="10.00">src/gromacs/gmxpreprocess</text>
<text text-anchor="middle" x="377.5" y="-7.5" font-family="Helvetica,sans-Serif" font-size="10.00">/tests/solvate.cpp</text>
</a>
</g>
</g>
<!-- Node1&#45;&gt;Node4 -->
<g id="edge3" class="edge"><title>Node1&#45;&gt;Node4</title>
<path fill="none" stroke="midnightblue" d="M658.942,-70.305C600.323,-59.0984 510.102,-41.8504 447.682,-29.9172"/>
<polygon fill="midnightblue" stroke="midnightblue" points="658.307,-73.747 668.786,-72.1871 659.621,-66.8715 658.307,-73.747"/>
</g>
<!-- Node5 -->
<g id="node5" class="node"><title>Node5</title>
<g id="a_node5"><a xlink:href="ocl__caching_8cpp.xhtml" target="_top" xlink:title="Define infrastructure for OpenCL JIT compilation for Gromacs. ">
<polygon fill="white" stroke="black" points="466,-0.5 466,-30.5 579,-30.5 579,-0.5 466,-0.5"/>
<text text-anchor="start" x="474" y="-18.5" font-family="Helvetica,sans-Serif" font-size="10.00">src/gromacs/gpu_utils</text>
<text text-anchor="middle" x="522.5" y="-7.5" font-family="Helvetica,sans-Serif" font-size="10.00">/ocl_caching.cpp</text>
</a>
</g>
</g>
<!-- Node1&#45;&gt;Node5 -->
<g id="edge4" class="edge"><title>Node1&#45;&gt;Node5</title>
<path fill="none" stroke="midnightblue" d="M665.683,-64.2278C634.139,-53.7131 594.352,-40.4508 564.73,-30.5765"/>
<polygon fill="midnightblue" stroke="midnightblue" points="664.594,-67.554 675.188,-67.396 666.808,-60.9132 664.594,-67.554"/>
</g>
<!-- Node6 -->
<g id="node6" class="node"><title>Node6</title>
<g id="a_node6"><a xlink:href="ocl__compiler_8cpp.xhtml" target="_top" xlink:title="Define infrastructure for OpenCL JIT compilation for Gromacs. ">
<polygon fill="white" stroke="black" points="597,-0.5 597,-30.5 710,-30.5 710,-0.5 597,-0.5"/>
<text text-anchor="start" x="605" y="-18.5" font-family="Helvetica,sans-Serif" font-size="10.00">src/gromacs/gpu_utils</text>
<text text-anchor="middle" x="653.5" y="-7.5" font-family="Helvetica,sans-Serif" font-size="10.00">/ocl_compiler.cpp</text>
</a>
</g>
</g>
<!-- Node1&#45;&gt;Node6 -->
<g id="edge5" class="edge"><title>Node1&#45;&gt;Node6</title>
<path fill="none" stroke="midnightblue" d="M696.355,-60.0243C686.819,-50.3398 675.825,-39.1739 667.36,-30.5765"/>
<polygon fill="midnightblue" stroke="midnightblue" points="694.103,-62.7259 703.613,-67.396 699.091,-57.8146 694.103,-62.7259"/>
</g>
<!-- Node7 -->
<g id="node7" class="node"><title>Node7</title>
<g id="a_node7"><a xlink:href="tests_2textreader_8cpp.xhtml" target="_top" xlink:title="Tests for gmx::TextReader. ">
<polygon fill="white" stroke="black" points="728,-0.5 728,-30.5 835,-30.5 835,-0.5 728,-0.5"/>
<text text-anchor="start" x="736" y="-18.5" font-family="Helvetica,sans-Serif" font-size="10.00">src/gromacs/utility</text>
<text text-anchor="middle" x="781.5" y="-7.5" font-family="Helvetica,sans-Serif" font-size="10.00">/tests/textreader.cpp</text>
</a>
</g>
</g>
<!-- Node1&#45;&gt;Node7 -->
<g id="edge6" class="edge"><title>Node1&#45;&gt;Node7</title>
<path fill="none" stroke="midnightblue" d="M738.645,-60.0243C748.181,-50.3398 759.175,-39.1739 767.64,-30.5765"/>
<polygon fill="midnightblue" stroke="midnightblue" points="735.909,-57.8146 731.387,-67.396 740.897,-62.7259 735.909,-57.8146"/>
</g>
<!-- Node8 -->
<g id="node8" class="node"><title>Node8</title>
<g id="a_node8"><a xlink:href="textreader_8cpp.xhtml" target="_top" xlink:title="Implements gmx::TextReader. ">
<polygon fill="white" stroke="black" points="853,-0.5 853,-30.5 950,-30.5 950,-0.5 853,-0.5"/>
<text text-anchor="start" x="861" y="-18.5" font-family="Helvetica,sans-Serif" font-size="10.00">src/gromacs/utility</text>
<text text-anchor="middle" x="901.5" y="-7.5" font-family="Helvetica,sans-Serif" font-size="10.00">/textreader.cpp</text>
</a>
</g>
</g>
<!-- Node1&#45;&gt;Node8 -->
<g id="edge7" class="edge"><title>Node1&#45;&gt;Node8</title>
<path fill="none" stroke="midnightblue" d="M767.165,-63.9553C796.805,-53.4847 833.942,-40.3656 861.653,-30.5765"/>
<polygon fill="midnightblue" stroke="midnightblue" points="765.688,-60.7649 757.425,-67.396 768.02,-67.3652 765.688,-60.7649"/>
</g>
<!-- Node9 -->
<g id="node9" class="node"><title>Node9</title>
<g id="a_node9"><a xlink:href="cmdlinetest_8cpp.xhtml" target="_top" xlink:title="Implements classes from cmdlinetest.h. ">
<polygon fill="white" stroke="black" points="968.5,-6 968.5,-25 1108.5,-25 1108.5,-6 968.5,-6"/>
<text text-anchor="middle" x="1038.5" y="-13" font-family="Helvetica,sans-Serif" font-size="10.00">src/testutils/cmdlinetest.cpp</text>
</a>
</g>
</g>
<!-- Node1&#45;&gt;Node9 -->
<g id="edge8" class="edge"><title>Node1&#45;&gt;Node9</title>
<path fill="none" stroke="midnightblue" d="M776.157,-69.6225C839.894,-56.7162 940.141,-36.4169 996.468,-25.0112"/>
<polygon fill="midnightblue" stroke="midnightblue" points="775.359,-66.2128 766.253,-71.6279 776.749,-73.0736 775.359,-66.2128"/>
</g>
<!-- Node10 -->
<g id="node10" class="node"><title>Node10</title>
<g id="a_node10"><a xlink:href="stringtest_8cpp.xhtml" target="_top" xlink:title="Implements gmx::test::StringTestBase. ">
<polygon fill="white" stroke="black" points="1126.5,-6 1126.5,-25 1256.5,-25 1256.5,-6 1126.5,-6"/>
<text text-anchor="middle" x="1191.5" y="-13" font-family="Helvetica,sans-Serif" font-size="10.00">src/testutils/stringtest.cpp</text>
</a>
</g>
</g>
<!-- Node1&#45;&gt;Node10 -->
<g id="edge9" class="edge"><title>Node1&#45;&gt;Node10</title>
<path fill="none" stroke="midnightblue" d="M776.431,-75.327C854.606,-66.8487 996.799,-50.4216 1117.5,-31 1128.23,-29.2738 1139.78,-27.1427 1150.49,-25.0507"/>
<polygon fill="midnightblue" stroke="midnightblue" points="775.863,-71.8679 766.296,-76.4205 776.614,-78.8275 775.863,-71.8679"/>
</g>
<!-- Node11 -->
<g id="node11" class="node"><title>Node11</title>
<g id="a_node11"><a xlink:href="textblockmatchers_8cpp.xhtml" target="_top" xlink:title="Implements classes from textblockmatchers.h. ">
<polygon fill="white" stroke="black" points="1274.5,-6 1274.5,-25 1444.5,-25 1444.5,-6 1274.5,-6"/>
<text text-anchor="middle" x="1359.5" y="-13" font-family="Helvetica,sans-Serif" font-size="10.00">src/testutils/textblockmatchers.cpp</text>
</a>
</g>
</g>
<!-- Node1&#45;&gt;Node11 -->
<g id="edge10" class="edge"><title>Node1&#45;&gt;Node11</title>
<path fill="none" stroke="midnightblue" d="M776.619,-77.2439C877.219,-69.7349 1088.05,-52.8414 1265.5,-31 1279.27,-29.3055 1294.12,-27.1619 1307.86,-25.0463"/>
<polygon fill="midnightblue" stroke="midnightblue" points="776.072,-73.7747 766.359,-78.0056 776.591,-80.7555 776.072,-73.7747"/>
</g>
</g>
</svg>
