<?xml version="1.0" encoding="UTF-8" standalone="no"?>
<!DOCTYPE svg PUBLIC "-//W3C//DTD SVG 1.1//EN"
 "http://www.w3.org/Graphics/SVG/1.1/DTD/svg11.dtd">
<!-- Generated by graphviz version 2.38.0 (20140413.2041)
 -->
<!-- Title: src/gromacs/utility/textwriter.cpp Pages: 1 -->
<svg width="715pt" height="207pt"
 viewBox="0.00 0.00 715.00 207.00" xmlns="http://www.w3.org/2000/svg" xmlns:xlink="http://www.w3.org/1999/xlink">
<g id="graph0" class="graph" transform="scale(1 1) rotate(0) translate(4 203)">
<title>src/gromacs/utility/textwriter.cpp</title>
<polygon fill="white" stroke="none" points="-4,4 -4,-203 711,-203 711,4 -4,4"/>
<!-- Node1 -->
<g id="node1" class="node"><title>Node1</title>
<polygon fill="#bfbfbf" stroke="black" points="252.5,-168.5 252.5,-198.5 349.5,-198.5 349.5,-168.5 252.5,-168.5"/>
<text text-anchor="start" x="260.5" y="-186.5" font-family="Helvetica,sans-Serif" font-size="10.00">src/gromacs/utility</text>
<text text-anchor="middle" x="301" y="-175.5" font-family="Helvetica,sans-Serif" font-size="10.00">/textwriter.cpp</text>
</g>
<!-- Node2 -->
<g id="node2" class="node"><title>Node2</title>
<g id="a_node2"><a xlink:href="gmxpre_8h.xhtml" target="_top" xlink:title="Prerequisite header file for GROMACS build. ">
<polygon fill="white" stroke="black" points="36.5,-112.5 36.5,-131.5 93.5,-131.5 93.5,-112.5 36.5,-112.5"/>
<text text-anchor="middle" x="65" y="-119.5" font-family="Helvetica,sans-Serif" font-size="10.00">gmxpre.h</text>
</a>
</g>
</g>
<!-- Node1&#45;&gt;Node2 -->
<g id="edge1" class="edge"><title>Node1&#45;&gt;Node2</title>
<path fill="none" stroke="midnightblue" d="M252.387,-170.244C208.228,-159.11 143.961,-142.908 103.334,-132.665"/>
<polygon fill="midnightblue" stroke="midnightblue" points="104.093,-129.247 93.541,-130.196 102.382,-136.034 104.093,-129.247"/>
</g>
<!-- Node3 -->
<g id="node3" class="node"><title>Node3</title>
<g id="a_node3"><a xlink:href="textwriter_8h.xhtml" target="_top" xlink:title="Declares gmx::TextWriter. ">
<polygon fill="white" stroke="black" points="150.5,-112.5 150.5,-131.5 215.5,-131.5 215.5,-112.5 150.5,-112.5"/>
<text text-anchor="middle" x="183" y="-119.5" font-family="Helvetica,sans-Serif" font-size="10.00">textwriter.h</text>
</a>
</g>
</g>
<!-- Node1&#45;&gt;Node3 -->
<g id="edge2" class="edge"><title>Node1&#45;&gt;Node3</title>
<path fill="none" stroke="midnightblue" d="M273.036,-168.399C253.679,-158.639 228.092,-145.737 209.144,-136.183"/>
<polygon fill="midnightblue" stroke="midnightblue" points="210.675,-133.035 200.17,-131.658 207.523,-139.285 210.675,-133.035"/>
</g>
<!-- Node8 -->
<g id="node8" class="node"><title>Node8</title>
<g id="a_node8"><a xlink:href="textstream_8h.xhtml" target="_top" xlink:title="Declares interfaces for simple input/output streams. ">
<polygon fill="white" stroke="black" points="0,-56.5 0,-75.5 138,-75.5 138,-56.5 0,-56.5"/>
<text text-anchor="middle" x="69" y="-63.5" font-family="Helvetica,sans-Serif" font-size="10.00">gromacs/utility/textstream.h</text>
</a>
</g>
</g>
<!-- Node1&#45;&gt;Node8 -->
<g id="edge21" class="edge"><title>Node1&#45;&gt;Node8</title>
<path fill="none" stroke="midnightblue" d="M252.232,-172.849C219.335,-164.994 175.757,-151.902 141,-132 118.522,-119.129 97.063,-98.2596 83.5132,-83.6497"/>
<polygon fill="midnightblue" stroke="midnightblue" points="85.799,-80.9584 76.5013,-75.8788 80.6019,-85.6479 85.799,-80.9584"/>
</g>
<!-- Node9 -->
<g id="node9" class="node"><title>Node9</title>
<polygon fill="white" stroke="#bfbfbf" points="572,-56.5 572,-75.5 618,-75.5 618,-56.5 572,-56.5"/>
<text text-anchor="middle" x="595" y="-63.5" font-family="Helvetica,sans-Serif" font-size="10.00">cstring</text>
</g>
<!-- Node1&#45;&gt;Node9 -->
<g id="edge9" class="edge"><title>Node1&#45;&gt;Node9</title>
<path fill="none" stroke="midnightblue" d="M349.881,-180.003C398.728,-175.694 474.616,-163.957 532,-132 553.148,-120.223 571.655,-99.0861 583.043,-84.1168"/>
<polygon fill="midnightblue" stroke="midnightblue" points="586.096,-85.8702 589.173,-75.732 580.445,-81.7387 586.096,-85.8702"/>
</g>
<!-- Node10 -->
<g id="node10" class="node"><title>Node10</title>
<g id="a_node10"><a xlink:href="filestream_8h.xhtml" target="_top" xlink:title="Declares implementations for textstream.h interfaces for file input/output. ">
<polygon fill="white" stroke="black" points="234,-112.5 234,-131.5 368,-131.5 368,-112.5 234,-112.5"/>
<text text-anchor="middle" x="301" y="-119.5" font-family="Helvetica,sans-Serif" font-size="10.00">gromacs/utility/filestream.h</text>
</a>
</g>
</g>
<!-- Node1&#45;&gt;Node10 -->
<g id="edge10" class="edge"><title>Node1&#45;&gt;Node10</title>
<path fill="none" stroke="midnightblue" d="M301,-168.399C301,-160.466 301,-150.458 301,-141.858"/>
<polygon fill="midnightblue" stroke="midnightblue" points="304.5,-141.658 301,-131.658 297.5,-141.658 304.5,-141.658"/>
</g>
<!-- Node11 -->
<g id="node11" class="node"><title>Node11</title>
<g id="a_node11"><a xlink:href="nodelete_8h.xhtml" target="_top" xlink:title="Declares no_delete deleter for std::shared_ptr. ">
<polygon fill="white" stroke="black" points="579,-112.5 579,-131.5 707,-131.5 707,-112.5 579,-112.5"/>
<text text-anchor="middle" x="643" y="-119.5" font-family="Helvetica,sans-Serif" font-size="10.00">gromacs/utility/nodelete.h</text>
</a>
</g>
</g>
<!-- Node1&#45;&gt;Node11 -->
<g id="edge15" class="edge"><title>Node1&#45;&gt;Node11</title>
<path fill="none" stroke="midnightblue" d="M349.637,-174.038C411.381,-163.296 517.822,-144.778 584.099,-133.247"/>
<polygon fill="midnightblue" stroke="midnightblue" points="584.725,-136.691 593.977,-131.529 583.525,-129.795 584.725,-136.691"/>
</g>
<!-- Node12 -->
<g id="node12" class="node"><title>Node12</title>
<g id="a_node12"><a xlink:href="stringutil_8h.xhtml" target="_top" xlink:title="Declares common string utility and formatting routines. ">
<polygon fill="white" stroke="black" points="395,-112.5 395,-131.5 523,-131.5 523,-112.5 395,-112.5"/>
<text text-anchor="middle" x="459" y="-119.5" font-family="Helvetica,sans-Serif" font-size="10.00">gromacs/utility/stringutil.h</text>
</a>
</g>
</g>
<!-- Node1&#45;&gt;Node12 -->
<g id="edge16" class="edge"><title>Node1&#45;&gt;Node12</title>
<path fill="none" stroke="midnightblue" d="M338.444,-168.399C365.19,-158.327 400.821,-144.909 426.399,-135.277"/>
<polygon fill="midnightblue" stroke="midnightblue" points="427.885,-138.458 436.01,-131.658 425.418,-131.907 427.885,-138.458"/>
</g>
<!-- Node4 -->
<g id="node4" class="node"><title>Node4</title>
<polygon fill="white" stroke="#bfbfbf" points="156.5,-56.5 156.5,-75.5 199.5,-75.5 199.5,-56.5 156.5,-56.5"/>
<text text-anchor="middle" x="178" y="-63.5" font-family="Helvetica,sans-Serif" font-size="10.00">cstdio</text>
</g>
<!-- Node3&#45;&gt;Node4 -->
<g id="edge3" class="edge"><title>Node3&#45;&gt;Node4</title>
<path fill="none" stroke="midnightblue" d="M182.174,-112.083C181.519,-105.006 180.58,-94.8611 179.758,-85.9865"/>
<polygon fill="midnightblue" stroke="midnightblue" points="183.217,-85.3858 178.81,-75.7511 176.247,-86.0312 183.217,-85.3858"/>
</g>
<!-- Node5 -->
<g id="node5" class="node"><title>Node5</title>
<polygon fill="white" stroke="#bfbfbf" points="382.5,-56.5 382.5,-75.5 423.5,-75.5 423.5,-56.5 382.5,-56.5"/>
<text text-anchor="middle" x="403" y="-63.5" font-family="Helvetica,sans-Serif" font-size="10.00">string</text>
</g>
<!-- Node3&#45;&gt;Node5 -->
<g id="edge4" class="edge"><title>Node3&#45;&gt;Node5</title>
<path fill="none" stroke="midnightblue" d="M215.759,-113.857C251.813,-105.861 311.683,-92.1866 372.606,-75.9797"/>
<polygon fill="midnightblue" stroke="midnightblue" points="373.636,-79.3272 382.389,-73.3574 371.824,-72.5659 373.636,-79.3272"/>
</g>
<!-- Node6 -->
<g id="node6" class="node"><title>Node6</title>
<g id="a_node6"><a xlink:href="classhelpers_8h.xhtml" target="_top" xlink:title="Declares common utility classes and macros. ">
<polygon fill="white" stroke="black" points="218,-56.5 218,-75.5 364,-75.5 364,-56.5 218,-56.5"/>
<text text-anchor="middle" x="291" y="-63.5" font-family="Helvetica,sans-Serif" font-size="10.00">gromacs/utility/classhelpers.h</text>
</a>
</g>
</g>
<!-- Node3&#45;&gt;Node6 -->
<g id="edge5" class="edge"><title>Node3&#45;&gt;Node6</title>
<path fill="none" stroke="midnightblue" d="M200.352,-112.324C217.672,-103.664 244.515,-90.2424 264.502,-80.249"/>
<polygon fill="midnightblue" stroke="midnightblue" points="266.312,-83.2572 273.691,-75.6545 263.181,-76.9962 266.312,-83.2572"/>
</g>
<!-- Node3&#45;&gt;Node8 -->
<g id="edge7" class="edge"><title>Node3&#45;&gt;Node8</title>
<path fill="none" stroke="midnightblue" d="M164.936,-112.444C146.425,-103.675 117.419,-89.9355 96.1445,-79.8579"/>
<polygon fill="midnightblue" stroke="midnightblue" points="97.5148,-76.6343 86.9791,-75.5164 94.5182,-82.9604 97.5148,-76.6343"/>
</g>
<!-- Node7 -->
<g id="node7" class="node"><title>Node7</title>
<polygon fill="white" stroke="#bfbfbf" points="154,-0.5 154,-19.5 206,-19.5 206,-0.5 154,-0.5"/>
<text text-anchor="middle" x="180" y="-7.5" font-family="Helvetica,sans-Serif" font-size="10.00">memory</text>
</g>
<!-- Node6&#45;&gt;Node7 -->
<g id="edge6" class="edge"><title>Node6&#45;&gt;Node7</title>
<path fill="none" stroke="midnightblue" d="M273.166,-56.324C255.284,-47.6247 227.525,-34.1202 206.954,-24.113"/>
<polygon fill="midnightblue" stroke="midnightblue" points="208.313,-20.8819 197.79,-19.6545 205.251,-27.1765 208.313,-20.8819"/>
</g>
<!-- Node8&#45;&gt;Node7 -->
<g id="edge8" class="edge"><title>Node8&#45;&gt;Node7</title>
<path fill="none" stroke="midnightblue" d="M86.8341,-56.324C104.716,-47.6247 132.475,-34.1202 153.046,-24.113"/>
<polygon fill="midnightblue" stroke="midnightblue" points="154.749,-27.1765 162.21,-19.6545 151.687,-20.8819 154.749,-27.1765"/>
</g>
<!-- Node10&#45;&gt;Node4 -->
<g id="edge11" class="edge"><title>Node10&#45;&gt;Node4</title>
<path fill="none" stroke="midnightblue" d="M281.51,-112.444C261.358,-103.596 229.677,-89.6875 206.669,-79.5865"/>
<polygon fill="midnightblue" stroke="midnightblue" points="207.962,-76.3316 197.399,-75.5164 205.148,-82.7411 207.962,-76.3316"/>
</g>
<!-- Node10&#45;&gt;Node5 -->
<g id="edge12" class="edge"><title>Node10&#45;&gt;Node5</title>
<path fill="none" stroke="midnightblue" d="M317.388,-112.324C333.671,-103.703 358.867,-90.3643 377.716,-80.3855"/>
<polygon fill="midnightblue" stroke="midnightblue" points="379.452,-83.4267 386.653,-75.6545 376.177,-77.2402 379.452,-83.4267"/>
</g>
<!-- Node10&#45;&gt;Node6 -->
<g id="edge13" class="edge"><title>Node10&#45;&gt;Node6</title>
<path fill="none" stroke="midnightblue" d="M299.349,-112.083C298.024,-104.927 296.118,-94.6353 294.461,-85.6911"/>
<polygon fill="midnightblue" stroke="midnightblue" points="297.883,-84.9466 292.621,-75.7511 291,-86.2212 297.883,-84.9466"/>
</g>
<!-- Node10&#45;&gt;Node8 -->
<g id="edge14" class="edge"><title>Node10&#45;&gt;Node8</title>
<path fill="none" stroke="midnightblue" d="M264.239,-112.444C223.937,-103.063 159.191,-87.9926 115.415,-77.8036"/>
<polygon fill="midnightblue" stroke="midnightblue" points="116.122,-74.3746 105.589,-75.5164 114.535,-81.1924 116.122,-74.3746"/>
</g>
<!-- Node12&#45;&gt;Node5 -->
<g id="edge19" class="edge"><title>Node12&#45;&gt;Node5</title>
<path fill="none" stroke="midnightblue" d="M450.003,-112.324C441.806,-104.42 429.494,-92.5482 419.528,-82.9377"/>
<polygon fill="midnightblue" stroke="midnightblue" points="421.789,-80.2558 412.161,-75.8339 416.93,-85.2947 421.789,-80.2558"/>
</g>
<!-- Node12&#45;&gt;Node9 -->
<g id="edge18" class="edge"><title>Node12&#45;&gt;Node9</title>
<path fill="none" stroke="midnightblue" d="M480.55,-112.444C503.031,-103.517 538.488,-89.4387 563.98,-79.3168"/>
<polygon fill="midnightblue" stroke="midnightblue" points="565.549,-82.4598 573.551,-75.5164 562.965,-75.9539 565.549,-82.4598"/>
</g>
<!-- Node13 -->
<g id="node13" class="node"><title>Node13</title>
<polygon fill="white" stroke="#bfbfbf" points="504.5,-56.5 504.5,-75.5 553.5,-75.5 553.5,-56.5 504.5,-56.5"/>
<text text-anchor="middle" x="529" y="-63.5" font-family="Helvetica,sans-Serif" font-size="10.00">cstdarg</text>
</g>
<!-- Node12&#45;&gt;Node13 -->
<g id="edge17" class="edge"><title>Node12&#45;&gt;Node13</title>
<path fill="none" stroke="midnightblue" d="M470.247,-112.324C480.797,-104.185 496.801,-91.8395 509.442,-82.0874"/>
<polygon fill="midnightblue" stroke="midnightblue" points="511.769,-84.7132 517.549,-75.8339 507.493,-79.1707 511.769,-84.7132"/>
</g>
<!-- Node14 -->
<g id="node14" class="node"><title>Node14</title>
<polygon fill="white" stroke="#bfbfbf" points="442,-56.5 442,-75.5 486,-75.5 486,-56.5 442,-56.5"/>
<text text-anchor="middle" x="464" y="-63.5" font-family="Helvetica,sans-Serif" font-size="10.00">vector</text>
</g>
<!-- Node12&#45;&gt;Node14 -->
<g id="edge20" class="edge"><title>Node12&#45;&gt;Node14</title>
<path fill="none" stroke="midnightblue" d="M459.826,-112.083C460.481,-105.006 461.42,-94.8611 462.242,-85.9865"/>
<polygon fill="midnightblue" stroke="midnightblue" points="465.753,-86.0312 463.19,-75.7511 458.783,-85.3858 465.753,-86.0312"/>
</g>
</g>
</svg>
