<?xml version="1.0" encoding="UTF-8" standalone="no"?>
<!DOCTYPE svg PUBLIC "-//W3C//DTD SVG 1.1//EN"
 "http://www.w3.org/Graphics/SVG/1.1/DTD/svg11.dtd">
<!-- Generated by graphviz version 2.38.0 (20140413.2041)
 -->
<!-- Title: src/gromacs/options/treesupport.cpp Pages: 1 -->
<svg width="1879pt" height="498pt"
 viewBox="0.00 0.00 1879.00 498.00" xmlns="http://www.w3.org/2000/svg" xmlns:xlink="http://www.w3.org/1999/xlink">
<g id="graph0" class="graph" transform="scale(1 1) rotate(0) translate(4 494)">
<title>src/gromacs/options/treesupport.cpp</title>
<polygon fill="white" stroke="none" points="-4,4 -4,-494 1875,-494 1875,4 -4,4"/>
<!-- Node1 -->
<g id="node1" class="node"><title>Node1</title>
<polygon fill="#bfbfbf" stroke="black" points="447,-459.5 447,-489.5 552,-489.5 552,-459.5 447,-459.5"/>
<text text-anchor="start" x="455" y="-477.5" font-family="Helvetica,sans-Serif" font-size="10.00">src/gromacs/options</text>
<text text-anchor="middle" x="499.5" y="-466.5" font-family="Helvetica,sans-Serif" font-size="10.00">/treesupport.cpp</text>
</g>
<!-- Node2 -->
<g id="node2" class="node"><title>Node2</title>
<g id="a_node2"><a xlink:href="gmxpre_8h.xhtml" target="_top" xlink:title="Prerequisite header file for GROMACS build. ">
<polygon fill="white" stroke="black" points="0,-403.5 0,-422.5 57,-422.5 57,-403.5 0,-403.5"/>
<text text-anchor="middle" x="28.5" y="-410.5" font-family="Helvetica,sans-Serif" font-size="10.00">gmxpre.h</text>
</a>
</g>
</g>
<!-- Node1&#45;&gt;Node2 -->
<g id="edge1" class="edge"><title>Node1&#45;&gt;Node2</title>
<path fill="none" stroke="midnightblue" d="M446.892,-469.355C367.027,-462.625 210.283,-447.71 67.3275,-422.941"/>
<polygon fill="midnightblue" stroke="midnightblue" points="67.514,-419.421 57.0598,-421.141 66.305,-426.315 67.514,-419.421"/>
</g>
<!-- Node3 -->
<g id="node3" class="node"><title>Node3</title>
<g id="a_node3"><a xlink:href="treesupport_8h.xhtml" target="_top" xlink:title="Declares functions for using keyvaluetree.h with Options. ">
<polygon fill="white" stroke="black" points="75.5,-403.5 75.5,-422.5 149.5,-422.5 149.5,-403.5 75.5,-403.5"/>
<text text-anchor="middle" x="112.5" y="-410.5" font-family="Helvetica,sans-Serif" font-size="10.00">treesupport.h</text>
</a>
</g>
</g>
<!-- Node1&#45;&gt;Node3 -->
<g id="edge2" class="edge"><title>Node1&#45;&gt;Node3</title>
<path fill="none" stroke="midnightblue" d="M446.805,-466.465C381.734,-457.607 267.431,-441.491 159.699,-423.142"/>
<polygon fill="midnightblue" stroke="midnightblue" points="160.077,-419.656 149.63,-421.417 158.895,-426.556 160.077,-419.656"/>
</g>
<!-- Node4 -->
<g id="node4" class="node"><title>Node4</title>
<polygon fill="white" stroke="#bfbfbf" points="167.5,-403.5 167.5,-422.5 197.5,-422.5 197.5,-403.5 167.5,-403.5"/>
<text text-anchor="middle" x="182.5" y="-410.5" font-family="Helvetica,sans-Serif" font-size="10.00">set</text>
</g>
<!-- Node1&#45;&gt;Node4 -->
<g id="edge3" class="edge"><title>Node1&#45;&gt;Node4</title>
<path fill="none" stroke="midnightblue" d="M446.796,-466.318C388.729,-457.928 292.789,-442.656 211.5,-423 210.232,-422.693 208.938,-422.362 207.635,-422.013"/>
<polygon fill="midnightblue" stroke="midnightblue" points="208.33,-418.57 197.75,-419.132 206.371,-425.291 208.33,-418.57"/>
</g>
<!-- Node5 -->
<g id="node5" class="node"><title>Node5</title>
<polygon fill="white" stroke="#bfbfbf" points="498,-123.5 498,-142.5 539,-142.5 539,-123.5 498,-123.5"/>
<text text-anchor="middle" x="518.5" y="-130.5" font-family="Helvetica,sans-Serif" font-size="10.00">string</text>
</g>
<!-- Node1&#45;&gt;Node5 -->
<g id="edge4" class="edge"><title>Node1&#45;&gt;Node5</title>
<path fill="none" stroke="midnightblue" d="M446.621,-468.487C402.082,-461.359 347.266,-444.191 358.5,-403 381.304,-319.387 391.427,-291.085 457.5,-235 491.29,-206.318 525.447,-235.562 550.5,-199 561.198,-183.387 548.265,-163.672 535.784,-150.071"/>
<polygon fill="midnightblue" stroke="midnightblue" points="538.18,-147.516 528.67,-142.847 533.193,-152.428 538.18,-147.516"/>
</g>
<!-- Node6 -->
<g id="node6" class="node"><title>Node6</title>
<polygon fill="white" stroke="#bfbfbf" points="1557.5,-123.5 1557.5,-142.5 1601.5,-142.5 1601.5,-123.5 1557.5,-123.5"/>
<text text-anchor="middle" x="1579.5" y="-130.5" font-family="Helvetica,sans-Serif" font-size="10.00">vector</text>
</g>
<!-- Node1&#45;&gt;Node6 -->
<g id="edge5" class="edge"><title>Node1&#45;&gt;Node6</title>
<path fill="none" stroke="midnightblue" d="M552.06,-473.753C775.673,-474.147 1636.5,-468.491 1636.5,-358 1636.5,-358 1636.5,-358 1636.5,-244 1636.5,-207.3 1611.18,-170.657 1594.29,-150.297"/>
<polygon fill="midnightblue" stroke="midnightblue" points="1596.85,-147.904 1587.67,-142.616 1591.55,-152.475 1596.85,-147.904"/>
</g>
<!-- Node7 -->
<g id="node7" class="node"><title>Node7</title>
<g id="a_node7"><a xlink:href="options_2options_8h.xhtml" target="_top" xlink:title="Declares gmx::Options. ">
<polygon fill="white" stroke="black" points="406,-347.5 406,-366.5 537,-366.5 537,-347.5 406,-347.5"/>
<text text-anchor="middle" x="471.5" y="-354.5" font-family="Helvetica,sans-Serif" font-size="10.00">gromacs/options/options.h</text>
</a>
</g>
</g>
<!-- Node1&#45;&gt;Node7 -->
<g id="edge6" class="edge"><title>Node1&#45;&gt;Node7</title>
<path fill="none" stroke="midnightblue" d="M514.795,-459.395C528.332,-445.12 544.505,-422.441 534.5,-403 527.423,-389.247 513.979,-378.766 501.322,-371.394"/>
<polygon fill="midnightblue" stroke="midnightblue" points="502.813,-368.222 492.347,-366.573 499.501,-374.389 502.813,-368.222"/>
</g>
<!-- Node20 -->
<g id="node20" class="node"><title>Node20</title>
<g id="a_node20"><a xlink:href="optionsassigner_8h.xhtml" target="_top" xlink:title="Declares gmx::OptionsAssigner. ">
<polygon fill="white" stroke="black" points="176.5,-179.5 176.5,-198.5 344.5,-198.5 344.5,-179.5 176.5,-179.5"/>
<text text-anchor="middle" x="260.5" y="-186.5" font-family="Helvetica,sans-Serif" font-size="10.00">gromacs/options/optionsassigner.h</text>
</a>
</g>
</g>
<!-- Node1&#45;&gt;Node20 -->
<g id="edge23" class="edge"><title>Node1&#45;&gt;Node20</title>
<path fill="none" stroke="midnightblue" d="M446.97,-468.398C382.749,-458.93 282.5,-432.259 282.5,-358 282.5,-358 282.5,-358 282.5,-300 282.5,-267.328 273.053,-230.24 266.54,-208.553"/>
<polygon fill="midnightblue" stroke="midnightblue" points="269.791,-207.222 263.467,-198.721 263.109,-209.31 269.791,-207.222"/>
</g>
<!-- Node21 -->
<g id="node21" class="node"><title>Node21</title>
<g id="a_node21"><a xlink:href="optionsection_8h.xhtml" target="_top" xlink:title="Declares gmx::OptionSection and gmx::OptionSectionInfo. ">
<polygon fill="white" stroke="black" points="367.5,-403.5 367.5,-422.5 525.5,-422.5 525.5,-403.5 367.5,-403.5"/>
<text text-anchor="middle" x="446.5" y="-410.5" font-family="Helvetica,sans-Serif" font-size="10.00">gromacs/options/optionsection.h</text>
</a>
</g>
</g>
<!-- Node1&#45;&gt;Node21 -->
<g id="edge26" class="edge"><title>Node1&#45;&gt;Node21</title>
<path fill="none" stroke="midnightblue" d="M486.94,-459.399C479.159,-450.664 469.136,-439.413 461.016,-430.296"/>
<polygon fill="midnightblue" stroke="midnightblue" points="463.477,-427.797 454.212,-422.658 458.25,-432.453 463.477,-427.797"/>
</g>
<!-- Node24 -->
<g id="node24" class="node"><title>Node24</title>
<g id="a_node24"><a xlink:href="optionsvisitor_8h.xhtml" target="_top" xlink:title="Declares gmx::OptionsVisitor interface and supporting classes. ">
<polygon fill="white" stroke="black" points="96.5,-235.5 96.5,-254.5 254.5,-254.5 254.5,-235.5 96.5,-235.5"/>
<text text-anchor="middle" x="175.5" y="-242.5" font-family="Helvetica,sans-Serif" font-size="10.00">gromacs/options/optionsvisitor.h</text>
</a>
</g>
</g>
<!-- Node1&#45;&gt;Node24 -->
<g id="edge33" class="edge"><title>Node1&#45;&gt;Node24</title>
<path fill="none" stroke="midnightblue" d="M446.893,-467.216C387.653,-459.253 296.05,-443.993 268.5,-423 214.702,-382.007 188.923,-300.881 179.676,-264.459"/>
<polygon fill="midnightblue" stroke="midnightblue" points="183.067,-263.589 177.324,-254.685 176.261,-265.227 183.067,-263.589"/>
</g>
<!-- Node26 -->
<g id="node26" class="node"><title>Node26</title>
<g id="a_node26"><a xlink:href="exceptions_8h.xhtml" target="_top" xlink:title="Declares common exception classes and macros for fatal error handling. ">
<polygon fill="white" stroke="black" points="733,-179.5 733,-198.5 872,-198.5 872,-179.5 733,-179.5"/>
<text text-anchor="middle" x="802.5" y="-186.5" font-family="Helvetica,sans-Serif" font-size="10.00">gromacs/utility/exceptions.h</text>
</a>
</g>
</g>
<!-- Node1&#45;&gt;Node26 -->
<g id="edge38" class="edge"><title>Node1&#45;&gt;Node26</title>
<path fill="none" stroke="midnightblue" d="M552.201,-468.999C638.749,-458.443 808.822,-423.691 883.5,-311 909.028,-272.477 856.79,-227.269 824.835,-204.568"/>
<polygon fill="midnightblue" stroke="midnightblue" points="826.662,-201.577 816.441,-198.787 822.691,-207.342 826.662,-201.577"/>
</g>
<!-- Node32 -->
<g id="node32" class="node"><title>Node32</title>
<g id="a_node32"><a xlink:href="ikeyvaluetreeerror_8h.xhtml" target="_top" xlink:title="Declares an error handling interface for key&#45;value tree operations. ">
<polygon fill="white" stroke="black" points="1702,-403.5 1702,-422.5 1871,-422.5 1871,-403.5 1702,-403.5"/>
<text text-anchor="middle" x="1786.5" y="-410.5" font-family="Helvetica,sans-Serif" font-size="10.00">gromacs/utility/ikeyvaluetreeerror.h</text>
</a>
</g>
</g>
<!-- Node1&#45;&gt;Node32 -->
<g id="edge51" class="edge"><title>Node1&#45;&gt;Node32</title>
<path fill="none" stroke="midnightblue" d="M552.29,-472.183C719.124,-467.824 1249.92,-452.435 1688.5,-423 1689.59,-422.927 1690.68,-422.852 1691.78,-422.775"/>
<polygon fill="midnightblue" stroke="midnightblue" points="1692.08,-426.263 1701.8,-422.04 1691.57,-419.282 1692.08,-426.263"/>
</g>
<!-- Node33 -->
<g id="node33" class="node"><title>Node33</title>
<g id="a_node33"><a xlink:href="keyvaluetree_8h.xhtml" target="_top" xlink:title="Declares a data structure for JSON&#45;like structured key&#45;value mapping. ">
<polygon fill="white" stroke="black" points="1192,-235.5 1192,-254.5 1339,-254.5 1339,-235.5 1192,-235.5"/>
<text text-anchor="middle" x="1265.5" y="-242.5" font-family="Helvetica,sans-Serif" font-size="10.00">gromacs/utility/keyvaluetree.h</text>
</a>
</g>
</g>
<!-- Node1&#45;&gt;Node33 -->
<g id="edge52" class="edge"><title>Node1&#45;&gt;Node33</title>
<path fill="none" stroke="midnightblue" d="M552.308,-470.57C660.859,-464.131 905.571,-447.354 985.5,-423 1087.06,-392.055 1110.2,-372.842 1196.5,-311 1216.85,-296.416 1237.38,-276.209 1250.69,-262.213"/>
<polygon fill="midnightblue" stroke="midnightblue" points="1253.37,-264.476 1257.64,-254.78 1248.25,-259.697 1253.37,-264.476"/>
</g>
<!-- Node41 -->
<g id="node41" class="node"><title>Node41</title>
<g id="a_node41"><a xlink:href="keyvaluetreebuilder_8h.xhtml" target="_top" xlink:title="Declares classes for building the data structures in keyvaluetree.h. ">
<polygon fill="white" stroke="black" points="1011.5,-291.5 1011.5,-310.5 1187.5,-310.5 1187.5,-291.5 1011.5,-291.5"/>
<text text-anchor="middle" x="1099.5" y="-298.5" font-family="Helvetica,sans-Serif" font-size="10.00">gromacs/utility/keyvaluetreebuilder.h</text>
</a>
</g>
</g>
<!-- Node1&#45;&gt;Node41 -->
<g id="edge68" class="edge"><title>Node1&#45;&gt;Node41</title>
<path fill="none" stroke="midnightblue" d="M552.149,-471.459C655.949,-466.817 883.125,-453.428 954.5,-423 1010.84,-398.984 1062.16,-345.598 1085.79,-318.486"/>
<polygon fill="midnightblue" stroke="midnightblue" points="1088.62,-320.553 1092.46,-310.677 1083.3,-316.007 1088.62,-320.553"/>
</g>
<!-- Node43 -->
<g id="node43" class="node"><title>Node43</title>
<g id="a_node43"><a xlink:href="stringutil_8h.xhtml" target="_top" xlink:title="Declares common string utility and formatting routines. ">
<polygon fill="white" stroke="black" points="1664.5,-179.5 1664.5,-198.5 1792.5,-198.5 1792.5,-179.5 1664.5,-179.5"/>
<text text-anchor="middle" x="1728.5" y="-186.5" font-family="Helvetica,sans-Serif" font-size="10.00">gromacs/utility/stringutil.h</text>
</a>
</g>
</g>
<!-- Node1&#45;&gt;Node43 -->
<g id="edge76" class="edge"><title>Node1&#45;&gt;Node43</title>
<path fill="none" stroke="midnightblue" d="M552.271,-472.801C772.085,-469.684 1605.64,-455.74 1650.5,-423 1675.37,-404.845 1674.5,-388.795 1674.5,-358 1674.5,-358 1674.5,-358 1674.5,-300 1674.5,-263.863 1698.27,-227.252 1714.27,-206.706"/>
<polygon fill="midnightblue" stroke="midnightblue" points="1717.19,-208.668 1720.76,-198.694 1711.75,-204.262 1717.19,-208.668"/>
</g>
<!-- Node7&#45;&gt;Node5 -->
<g id="edge7" class="edge"><title>Node7&#45;&gt;Node5</title>
<path fill="none" stroke="midnightblue" d="M466.879,-347.339C462.441,-338.493 456.046,-324.22 453.5,-311 446.693,-275.652 453.874,-258.078 481.5,-235 525.214,-198.483 570.345,-244.584 604.5,-199 623.284,-173.93 580.738,-153.855 549.032,-142.961"/>
<polygon fill="midnightblue" stroke="midnightblue" points="549.803,-139.531 539.211,-139.752 547.629,-146.185 549.803,-139.531"/>
</g>
<!-- Node8 -->
<g id="node8" class="node"><title>Node8</title>
<g id="a_node8"><a xlink:href="ioptionscontainerwithsections_8h.xhtml" target="_top" xlink:title="Declares gmx::IOptionsContainerWithSections. ">
<polygon fill="white" stroke="black" points="462.5,-291.5 462.5,-310.5 690.5,-310.5 690.5,-291.5 462.5,-291.5"/>
<text text-anchor="middle" x="576.5" y="-298.5" font-family="Helvetica,sans-Serif" font-size="10.00">gromacs/options/ioptionscontainerwithsections.h</text>
</a>
</g>
</g>
<!-- Node7&#45;&gt;Node8 -->
<g id="edge8" class="edge"><title>Node7&#45;&gt;Node8</title>
<path fill="none" stroke="midnightblue" d="M488.37,-347.324C505.209,-338.664 531.307,-325.242 550.738,-315.249"/>
<polygon fill="midnightblue" stroke="midnightblue" points="552.38,-318.341 559.672,-310.655 549.178,-312.116 552.38,-318.341"/>
</g>
<!-- Node13 -->
<g id="node13" class="node"><title>Node13</title>
<g id="a_node13"><a xlink:href="classhelpers_8h.xhtml" target="_top" xlink:title="Declares common utility classes and macros. ">
<polygon fill="white" stroke="black" points="124.5,-123.5 124.5,-142.5 270.5,-142.5 270.5,-123.5 124.5,-123.5"/>
<text text-anchor="middle" x="197.5" y="-130.5" font-family="Helvetica,sans-Serif" font-size="10.00">gromacs/utility/classhelpers.h</text>
</a>
</g>
</g>
<!-- Node7&#45;&gt;Node13 -->
<g id="edge22" class="edge"><title>Node7&#45;&gt;Node13</title>
<path fill="none" stroke="midnightblue" d="M446.133,-347.459C406.422,-334.27 327.021,-308.631 258.5,-291 183.284,-271.647 151.166,-299.483 87.5,-255 57.016,-233.701 30.443,-208.94 52.5,-179 67.2024,-159.043 90.6705,-147.676 114.48,-141.281"/>
<polygon fill="midnightblue" stroke="midnightblue" points="115.416,-144.656 124.319,-138.911 113.777,-137.85 115.416,-144.656"/>
</g>
<!-- Node9 -->
<g id="node9" class="node"><title>Node9</title>
<g id="a_node9"><a xlink:href="ioptionscontainer_8h.xhtml" target="_top" xlink:title="Declares gmx::IOptionsContainer. ">
<polygon fill="white" stroke="black" points="490,-235.5 490,-254.5 663,-254.5 663,-235.5 490,-235.5"/>
<text text-anchor="middle" x="576.5" y="-242.5" font-family="Helvetica,sans-Serif" font-size="10.00">gromacs/options/ioptionscontainer.h</text>
</a>
</g>
</g>
<!-- Node8&#45;&gt;Node9 -->
<g id="edge9" class="edge"><title>Node8&#45;&gt;Node9</title>
<path fill="none" stroke="midnightblue" d="M576.5,-291.083C576.5,-284.006 576.5,-273.861 576.5,-264.986"/>
<polygon fill="midnightblue" stroke="midnightblue" points="580,-264.751 576.5,-254.751 573,-264.751 580,-264.751"/>
</g>
<!-- Node10 -->
<g id="node10" class="node"><title>Node10</title>
<g id="a_node10"><a xlink:href="abstractoption_8h.xhtml" target="_top" xlink:title="Defines gmx::AbstractOption, gmx::OptionTemplate and gmx::OptionInfo. ">
<polygon fill="white" stroke="black" points="363,-179.5 363,-198.5 524,-198.5 524,-179.5 363,-179.5"/>
<text text-anchor="middle" x="443.5" y="-186.5" font-family="Helvetica,sans-Serif" font-size="10.00">gromacs/options/abstractoption.h</text>
</a>
</g>
</g>
<!-- Node9&#45;&gt;Node10 -->
<g id="edge10" class="edge"><title>Node9&#45;&gt;Node10</title>
<path fill="none" stroke="midnightblue" d="M555.426,-235.444C533.44,-226.517 498.766,-212.439 473.836,-202.317"/>
<polygon fill="midnightblue" stroke="midnightblue" points="475.058,-199.035 464.476,-198.516 472.424,-205.521 475.058,-199.035"/>
</g>
<!-- Node15 -->
<g id="node15" class="node"><title>Node15</title>
<g id="a_node15"><a xlink:href="gmxassert_8h.xhtml" target="_top" xlink:title="Defines assert macros customized for Gromacs. ">
<polygon fill="white" stroke="black" points="874,-123.5 874,-142.5 1011,-142.5 1011,-123.5 874,-123.5"/>
<text text-anchor="middle" x="942.5" y="-130.5" font-family="Helvetica,sans-Serif" font-size="10.00">gromacs/utility/gmxassert.h</text>
</a>
</g>
</g>
<!-- Node9&#45;&gt;Node15 -->
<g id="edge17" class="edge"><title>Node9&#45;&gt;Node15</title>
<path fill="none" stroke="midnightblue" d="M663.192,-237.588C739.675,-230.784 844.563,-218.315 881.5,-199 902.624,-187.954 920.411,-166.669 931.23,-151.465"/>
<polygon fill="midnightblue" stroke="midnightblue" points="934.305,-153.168 937.033,-142.93 928.516,-149.232 934.305,-153.168"/>
</g>
<!-- Node10&#45;&gt;Node5 -->
<g id="edge11" class="edge"><title>Node10&#45;&gt;Node5</title>
<path fill="none" stroke="midnightblue" d="M455.55,-179.324C466.963,-171.107 484.331,-158.602 497.935,-148.807"/>
<polygon fill="midnightblue" stroke="midnightblue" points="500.16,-151.517 506.231,-142.834 496.07,-145.837 500.16,-151.517"/>
</g>
<!-- Node10&#45;&gt;Node6 -->
<g id="edge12" class="edge"><title>Node10&#45;&gt;Node6</title>
<path fill="none" stroke="midnightblue" d="M524.288,-184.16C752.489,-173.312 1395.22,-142.76 1547.06,-135.542"/>
<polygon fill="midnightblue" stroke="midnightblue" points="1547.31,-139.034 1557.13,-135.063 1546.98,-132.042 1547.31,-139.034"/>
</g>
<!-- Node11 -->
<g id="node11" class="node"><title>Node11</title>
<g id="a_node11"><a xlink:href="optionflags_8h.xhtml" target="_top" xlink:title="Defines flags used in option implementation. ">
<polygon fill="white" stroke="black" points="333,-123.5 333,-142.5 480,-142.5 480,-123.5 333,-123.5"/>
<text text-anchor="middle" x="406.5" y="-130.5" font-family="Helvetica,sans-Serif" font-size="10.00">gromacs/options/optionflags.h</text>
</a>
</g>
</g>
<!-- Node10&#45;&gt;Node11 -->
<g id="edge13" class="edge"><title>Node10&#45;&gt;Node11</title>
<path fill="none" stroke="midnightblue" d="M437.39,-179.083C432.218,-171.534 424.654,-160.495 418.306,-151.23"/>
<polygon fill="midnightblue" stroke="midnightblue" points="421.036,-149.022 412.496,-142.751 415.261,-152.979 421.036,-149.022"/>
</g>
<!-- Node10&#45;&gt;Node13 -->
<g id="edge15" class="edge"><title>Node10&#45;&gt;Node13</title>
<path fill="none" stroke="midnightblue" d="M404.521,-179.444C361.606,-170.023 292.554,-154.866 246.131,-144.675"/>
<polygon fill="midnightblue" stroke="midnightblue" points="246.815,-141.242 236.297,-142.516 245.314,-148.079 246.815,-141.242"/>
</g>
<!-- Node12 -->
<g id="node12" class="node"><title>Node12</title>
<g id="a_node12"><a xlink:href="flags_8h.xhtml" target="_top" xlink:title="Declares gmx::FlagsTemplate. ">
<polygon fill="white" stroke="black" points="350,-62 350,-81 463,-81 463,-62 350,-62"/>
<text text-anchor="middle" x="406.5" y="-69" font-family="Helvetica,sans-Serif" font-size="10.00">gromacs/utility/flags.h</text>
</a>
</g>
</g>
<!-- Node11&#45;&gt;Node12 -->
<g id="edge14" class="edge"><title>Node11&#45;&gt;Node12</title>
<path fill="none" stroke="midnightblue" d="M406.5,-123.475C406.5,-115.08 406.5,-101.981 406.5,-91.1631"/>
<polygon fill="midnightblue" stroke="midnightblue" points="410,-91.0091 406.5,-81.0091 403,-91.0091 410,-91.0091"/>
</g>
<!-- Node14 -->
<g id="node14" class="node"><title>Node14</title>
<polygon fill="white" stroke="#bfbfbf" points="541.5,-62 541.5,-81 593.5,-81 593.5,-62 541.5,-62"/>
<text text-anchor="middle" x="567.5" y="-69" font-family="Helvetica,sans-Serif" font-size="10.00">memory</text>
</g>
<!-- Node13&#45;&gt;Node14 -->
<g id="edge16" class="edge"><title>Node13&#45;&gt;Node14</title>
<path fill="none" stroke="midnightblue" d="M250.512,-123.475C326.793,-111.208 465.544,-88.8956 531.203,-78.3369"/>
<polygon fill="midnightblue" stroke="midnightblue" points="532.149,-81.7299 541.466,-76.6865 531.037,-74.8187 532.149,-81.7299"/>
</g>
<!-- Node16 -->
<g id="node16" class="node"><title>Node16</title>
<g id="a_node16"><a xlink:href="basedefinitions_8h.xhtml" target="_top" xlink:title="Basic types and macros used throughout GROMACS. ">
<polygon fill="white" stroke="black" points="720,-62 720,-81 877,-81 877,-62 720,-62"/>
<text text-anchor="middle" x="798.5" y="-69" font-family="Helvetica,sans-Serif" font-size="10.00">gromacs/utility/basedefinitions.h</text>
</a>
</g>
</g>
<!-- Node15&#45;&gt;Node16 -->
<g id="edge18" class="edge"><title>Node15&#45;&gt;Node16</title>
<path fill="none" stroke="midnightblue" d="M921.868,-123.475C897.381,-113.357 856.353,-96.4046 828.391,-84.8507"/>
<polygon fill="midnightblue" stroke="midnightblue" points="829.672,-81.5932 819.093,-81.0091 826.999,-88.0627 829.672,-81.5932"/>
</g>
<!-- Node19 -->
<g id="node19" class="node"><title>Node19</title>
<g id="a_node19"><a xlink:href="current__function_8h.xhtml" target="_top" xlink:title="Declares GMX_CURRENT_FUNCTION for getting the current function name. ">
<polygon fill="white" stroke="black" points="895,-56.5 895,-86.5 1008,-86.5 1008,-56.5 895,-56.5"/>
<text text-anchor="start" x="903" y="-74.5" font-family="Helvetica,sans-Serif" font-size="10.00">gromacs/utility/current</text>
<text text-anchor="middle" x="951.5" y="-63.5" font-family="Helvetica,sans-Serif" font-size="10.00">_function.h</text>
</a>
</g>
</g>
<!-- Node15&#45;&gt;Node19 -->
<g id="edge21" class="edge"><title>Node15&#45;&gt;Node19</title>
<path fill="none" stroke="midnightblue" d="M943.789,-123.475C944.849,-116.471 946.404,-106.192 947.84,-96.6956"/>
<polygon fill="midnightblue" stroke="midnightblue" points="951.344,-96.934 949.379,-86.523 944.423,-95.887 951.344,-96.934"/>
</g>
<!-- Node17 -->
<g id="node17" class="node"><title>Node17</title>
<polygon fill="white" stroke="#bfbfbf" points="738,-0.5 738,-19.5 787,-19.5 787,-0.5 738,-0.5"/>
<text text-anchor="middle" x="762.5" y="-7.5" font-family="Helvetica,sans-Serif" font-size="10.00">stdint.h</text>
</g>
<!-- Node16&#45;&gt;Node17 -->
<g id="edge19" class="edge"><title>Node16&#45;&gt;Node17</title>
<path fill="none" stroke="midnightblue" d="M793.342,-61.9751C788.049,-53.2268 779.665,-39.3691 772.973,-28.3093"/>
<polygon fill="midnightblue" stroke="midnightblue" points="775.82,-26.2531 767.648,-19.5091 769.83,-29.8768 775.82,-26.2531"/>
</g>
<!-- Node18 -->
<g id="node18" class="node"><title>Node18</title>
<polygon fill="white" stroke="#bfbfbf" points="805,-0.5 805,-19.5 864,-19.5 864,-0.5 805,-0.5"/>
<text text-anchor="middle" x="834.5" y="-7.5" font-family="Helvetica,sans-Serif" font-size="10.00">inttypes.h</text>
</g>
<!-- Node16&#45;&gt;Node18 -->
<g id="edge20" class="edge"><title>Node16&#45;&gt;Node18</title>
<path fill="none" stroke="midnightblue" d="M803.658,-61.9751C808.951,-53.2268 817.335,-39.3691 824.027,-28.3093"/>
<polygon fill="midnightblue" stroke="midnightblue" points="827.17,-29.8768 829.352,-19.5091 821.18,-26.2531 827.17,-29.8768"/>
</g>
<!-- Node20&#45;&gt;Node5 -->
<g id="edge24" class="edge"><title>Node20&#45;&gt;Node5</title>
<path fill="none" stroke="midnightblue" d="M312.237,-179.462C356.603,-171.773 422.39,-159.506 487.898,-143.207"/>
<polygon fill="midnightblue" stroke="midnightblue" points="489.141,-146.503 497.982,-140.665 487.43,-139.716 489.141,-146.503"/>
</g>
<!-- Node20&#45;&gt;Node13 -->
<g id="edge25" class="edge"><title>Node20&#45;&gt;Node13</title>
<path fill="none" stroke="midnightblue" d="M250.378,-179.324C240.974,-171.263 226.756,-159.077 215.431,-149.369"/>
<polygon fill="midnightblue" stroke="midnightblue" points="217.677,-146.684 207.806,-142.834 213.121,-151.999 217.677,-146.684"/>
</g>
<!-- Node21&#45;&gt;Node13 -->
<g id="edge32" class="edge"><title>Node21&#45;&gt;Node13</title>
<path fill="none" stroke="midnightblue" d="M384.707,-403.437C299.674,-388.435 147.179,-349.458 59.5,-255 35.8846,-229.559 20.6316,-206.739 41.5,-179 52.9335,-163.802 95.6581,-152.123 133.509,-144.476"/>
<polygon fill="midnightblue" stroke="midnightblue" points="134.37,-147.874 143.514,-142.523 133.028,-141.004 134.37,-147.874"/>
</g>
<!-- Node22 -->
<g id="node22" class="node"><title>Node22</title>
<g id="a_node22"><a xlink:href="abstractsection_8h.xhtml" target="_top" xlink:title="Declares base classes for declaring option sections. ">
<polygon fill="white" stroke="black" points="555,-347.5 555,-366.5 722,-366.5 722,-347.5 555,-347.5"/>
<text text-anchor="middle" x="638.5" y="-354.5" font-family="Helvetica,sans-Serif" font-size="10.00">gromacs/options/abstractsection.h</text>
</a>
</g>
</g>
<!-- Node21&#45;&gt;Node22 -->
<g id="edge27" class="edge"><title>Node21&#45;&gt;Node22</title>
<path fill="none" stroke="midnightblue" d="M476.923,-403.444C509.785,-394.201 562.285,-379.436 598.474,-369.257"/>
<polygon fill="midnightblue" stroke="midnightblue" points="599.54,-372.593 608.219,-366.516 597.645,-365.855 599.54,-372.593"/>
</g>
<!-- Node22&#45;&gt;Node8 -->
<g id="edge28" class="edge"><title>Node22&#45;&gt;Node8</title>
<path fill="none" stroke="midnightblue" d="M628.539,-347.324C619.373,-339.341 605.563,-327.313 594.472,-317.653"/>
<polygon fill="midnightblue" stroke="midnightblue" points="596.482,-314.762 586.643,-310.834 591.885,-320.041 596.482,-314.762"/>
</g>
<!-- Node22&#45;&gt;Node13 -->
<g id="edge30" class="edge"><title>Node22&#45;&gt;Node13</title>
<path fill="none" stroke="midnightblue" d="M596.148,-347.49C558.342,-339.471 501.67,-326.407 453.5,-311 366.874,-283.293 348.307,-267.858 263.5,-235 221.01,-218.537 193.455,-236.454 167.5,-199 156.947,-183.773 168.855,-164.24 180.645,-150.579"/>
<polygon fill="midnightblue" stroke="midnightblue" points="183.519,-152.628 187.769,-142.923 178.394,-147.86 183.519,-152.628"/>
</g>
<!-- Node22&#45;&gt;Node15 -->
<g id="edge31" class="edge"><title>Node22&#45;&gt;Node15</title>
<path fill="none" stroke="midnightblue" d="M722.131,-349.684C783.332,-343.431 859.669,-331.706 883.5,-311 930.936,-269.784 940.359,-189.386 942.141,-152.862"/>
<polygon fill="midnightblue" stroke="midnightblue" points="945.647,-152.765 942.49,-142.651 938.651,-152.526 945.647,-152.765"/>
</g>
<!-- Node23 -->
<g id="node23" class="node"><title>Node23</title>
<g id="a_node23"><a xlink:href="isectionstorage_8h.xhtml" target="_top" xlink:title="Declares gmx::IOptionSectionStorage. ">
<polygon fill="white" stroke="black" points="708.5,-291.5 708.5,-310.5 874.5,-310.5 874.5,-291.5 708.5,-291.5"/>
<text text-anchor="middle" x="791.5" y="-298.5" font-family="Helvetica,sans-Serif" font-size="10.00">gromacs/options/isectionstorage.h</text>
</a>
</g>
</g>
<!-- Node22&#45;&gt;Node23 -->
<g id="edge29" class="edge"><title>Node22&#45;&gt;Node23</title>
<path fill="none" stroke="midnightblue" d="M662.743,-347.444C688.371,-338.399 728.985,-324.064 757.738,-313.916"/>
<polygon fill="midnightblue" stroke="midnightblue" points="759.105,-317.145 767.37,-310.516 756.775,-310.544 759.105,-317.145"/>
</g>
<!-- Node24&#45;&gt;Node5 -->
<g id="edge35" class="edge"><title>Node24&#45;&gt;Node5</title>
<path fill="none" stroke="midnightblue" d="M254.896,-239.508C354.733,-233.034 515.37,-219.552 533.5,-199 544.954,-186.016 537.915,-166.03 530.075,-151.647"/>
<polygon fill="midnightblue" stroke="midnightblue" points="532.88,-149.519 524.737,-142.74 526.876,-153.117 532.88,-149.519"/>
</g>
<!-- Node24&#45;&gt;Node10 -->
<g id="edge36" class="edge"><title>Node24&#45;&gt;Node10</title>
<path fill="none" stroke="midnightblue" d="M217.965,-235.444C264.913,-225.984 340.576,-210.738 391.154,-200.547"/>
<polygon fill="midnightblue" stroke="midnightblue" points="392.122,-203.923 401.233,-198.516 390.739,-197.061 392.122,-203.923"/>
</g>
<!-- Node24&#45;&gt;Node13 -->
<g id="edge37" class="edge"><title>Node24&#45;&gt;Node13</title>
<path fill="none" stroke="midnightblue" d="M128.524,-235.455C88.4802,-225.986 40.4868,-208.087 61.5,-179 74.1986,-161.423 94.0235,-150.598 114.647,-143.966"/>
<polygon fill="midnightblue" stroke="midnightblue" points="115.848,-147.263 124.481,-141.121 113.902,-140.539 115.848,-147.263"/>
</g>
<!-- Node25 -->
<g id="node25" class="node"><title>Node25</title>
<polygon fill="white" stroke="#bfbfbf" points="71,-179.5 71,-198.5 120,-198.5 120,-179.5 71,-179.5"/>
<text text-anchor="middle" x="95.5" y="-186.5" font-family="Helvetica,sans-Serif" font-size="10.00">cstddef</text>
</g>
<!-- Node24&#45;&gt;Node25 -->
<g id="edge34" class="edge"><title>Node24&#45;&gt;Node25</title>
<path fill="none" stroke="midnightblue" d="M162.647,-235.324C150.284,-226.979 131.37,-214.212 116.763,-204.352"/>
<polygon fill="midnightblue" stroke="midnightblue" points="118.568,-201.348 108.321,-198.655 114.652,-207.15 118.568,-201.348"/>
</g>
<!-- Node26&#45;&gt;Node5 -->
<g id="edge43" class="edge"><title>Node26&#45;&gt;Node5</title>
<path fill="none" stroke="midnightblue" d="M748.847,-179.465C698.267,-171.145 620.449,-157.637 553.5,-143 552.044,-142.682 550.557,-142.345 549.058,-141.996"/>
<polygon fill="midnightblue" stroke="midnightblue" points="549.713,-138.553 539.168,-139.581 548.053,-145.354 549.713,-138.553"/>
</g>
<!-- Node26&#45;&gt;Node6 -->
<g id="edge46" class="edge"><title>Node26&#45;&gt;Node6</title>
<path fill="none" stroke="midnightblue" d="M872.137,-183.16C1034.14,-171.901 1431.33,-144.297 1547.25,-136.241"/>
<polygon fill="midnightblue" stroke="midnightblue" points="1547.53,-139.73 1557.27,-135.545 1547.05,-132.747 1547.53,-139.73"/>
</g>
<!-- Node26&#45;&gt;Node13 -->
<g id="edge48" class="edge"><title>Node26&#45;&gt;Node13</title>
<path fill="none" stroke="midnightblue" d="M732.804,-181.779C620.794,-171.782 401.142,-152.176 280.955,-141.449"/>
<polygon fill="midnightblue" stroke="midnightblue" points="280.976,-137.937 270.705,-140.534 280.354,-144.909 280.976,-137.937"/>
</g>
<!-- Node26&#45;&gt;Node14 -->
<g id="edge42" class="edge"><title>Node26&#45;&gt;Node14</title>
<path fill="none" stroke="midnightblue" d="M747.369,-179.489C687.619,-169.794 599.181,-153.889 587.5,-143 573.422,-129.876 568.998,-107.643 567.735,-91.6507"/>
<polygon fill="midnightblue" stroke="midnightblue" points="571.217,-91.1643 567.281,-81.3279 564.224,-91.4721 571.217,-91.1643"/>
</g>
<!-- Node26&#45;&gt;Node15 -->
<g id="edge50" class="edge"><title>Node26&#45;&gt;Node15</title>
<path fill="none" stroke="midnightblue" d="M824.683,-179.444C847.928,-170.478 884.649,-156.314 910.915,-146.183"/>
<polygon fill="midnightblue" stroke="midnightblue" points="912.35,-149.381 920.42,-142.516 909.831,-142.85 912.35,-149.381"/>
</g>
<!-- Node26&#45;&gt;Node16 -->
<g id="edge47" class="edge"><title>Node26&#45;&gt;Node16</title>
<path fill="none" stroke="midnightblue" d="M802.199,-179.319C801.557,-160.757 800.036,-116.839 799.157,-91.4734"/>
<polygon fill="midnightblue" stroke="midnightblue" points="802.648,-91.1548 798.804,-81.282 795.652,-91.3972 802.648,-91.1548"/>
</g>
<!-- Node26&#45;&gt;Node19 -->
<g id="edge49" class="edge"><title>Node26&#45;&gt;Node19</title>
<path fill="none" stroke="midnightblue" d="M809.611,-179.276C820.656,-166.069 843.01,-140.671 865.5,-123 880.523,-111.196 898.573,-100.185 914.249,-91.4775"/>
<polygon fill="midnightblue" stroke="midnightblue" points="916.052,-94.481 923.164,-86.6278 912.707,-88.3319 916.052,-94.481"/>
</g>
<!-- Node27 -->
<g id="node27" class="node"><title>Node27</title>
<polygon fill="white" stroke="#bfbfbf" points="736,-123.5 736,-142.5 779,-142.5 779,-123.5 736,-123.5"/>
<text text-anchor="middle" x="757.5" y="-130.5" font-family="Helvetica,sans-Serif" font-size="10.00">cstdio</text>
</g>
<!-- Node26&#45;&gt;Node27 -->
<g id="edge39" class="edge"><title>Node26&#45;&gt;Node27</title>
<path fill="none" stroke="midnightblue" d="M795.069,-179.083C788.647,-171.377 779.194,-160.033 771.378,-150.653"/>
<polygon fill="midnightblue" stroke="midnightblue" points="773.883,-148.193 764.793,-142.751 768.506,-152.674 773.883,-148.193"/>
</g>
<!-- Node28 -->
<g id="node28" class="node"><title>Node28</title>
<polygon fill="white" stroke="#bfbfbf" points="596,-123.5 596,-142.5 641,-142.5 641,-123.5 596,-123.5"/>
<text text-anchor="middle" x="618.5" y="-130.5" font-family="Helvetica,sans-Serif" font-size="10.00">cstdlib</text>
</g>
<!-- Node26&#45;&gt;Node28 -->
<g id="edge40" class="edge"><title>Node26&#45;&gt;Node28</title>
<path fill="none" stroke="midnightblue" d="M773.345,-179.444C739.957,-169.645 685.418,-153.639 650.776,-143.472"/>
<polygon fill="midnightblue" stroke="midnightblue" points="651.719,-140.102 641.138,-140.644 649.748,-146.818 651.719,-140.102"/>
</g>
<!-- Node29 -->
<g id="node29" class="node"><title>Node29</title>
<polygon fill="white" stroke="#bfbfbf" points="659,-123.5 659,-142.5 718,-142.5 718,-123.5 659,-123.5"/>
<text text-anchor="middle" x="688.5" y="-130.5" font-family="Helvetica,sans-Serif" font-size="10.00">exception</text>
</g>
<!-- Node26&#45;&gt;Node29 -->
<g id="edge41" class="edge"><title>Node26&#45;&gt;Node29</title>
<path fill="none" stroke="midnightblue" d="M784.436,-179.444C765.925,-170.675 736.919,-156.935 715.645,-146.858"/>
<polygon fill="midnightblue" stroke="midnightblue" points="717.015,-143.634 706.479,-142.516 714.018,-149.96 717.015,-143.634"/>
</g>
<!-- Node30 -->
<g id="node30" class="node"><title>Node30</title>
<polygon fill="white" stroke="#bfbfbf" points="1029.5,-123.5 1029.5,-142.5 1091.5,-142.5 1091.5,-123.5 1029.5,-123.5"/>
<text text-anchor="middle" x="1060.5" y="-130.5" font-family="Helvetica,sans-Serif" font-size="10.00">type_traits</text>
</g>
<!-- Node26&#45;&gt;Node30 -->
<g id="edge44" class="edge"><title>Node26&#45;&gt;Node30</title>
<path fill="none" stroke="midnightblue" d="M845.155,-179.428C886.989,-170.969 952.854,-157.513 1018.9,-143.319"/>
<polygon fill="midnightblue" stroke="midnightblue" points="1020.03,-146.655 1029.07,-141.127 1018.56,-139.812 1020.03,-146.655"/>
</g>
<!-- Node31 -->
<g id="node31" class="node"><title>Node31</title>
<polygon fill="white" stroke="#bfbfbf" points="1110,-123.5 1110,-142.5 1169,-142.5 1169,-123.5 1110,-123.5"/>
<text text-anchor="middle" x="1139.5" y="-130.5" font-family="Helvetica,sans-Serif" font-size="10.00">typeindex</text>
</g>
<!-- Node26&#45;&gt;Node31 -->
<g id="edge45" class="edge"><title>Node26&#45;&gt;Node31</title>
<path fill="none" stroke="midnightblue" d="M868.735,-179.486C927.041,-171.651 1014.44,-159.086 1099.87,-142.992"/>
<polygon fill="midnightblue" stroke="midnightblue" points="1100.57,-146.423 1109.74,-141.116 1099.26,-139.546 1100.57,-146.423"/>
</g>
<!-- Node33&#45;&gt;Node5 -->
<g id="edge56" class="edge"><title>Node33&#45;&gt;Node5</title>
<path fill="none" stroke="midnightblue" d="M1191.86,-239.283C1054.39,-230.27 768.563,-210.477 724.5,-199 703.713,-193.586 700.688,-186.341 680.5,-179 635.573,-162.662 581.827,-148.811 548.933,-140.952"/>
<polygon fill="midnightblue" stroke="midnightblue" points="549.56,-137.503 539.024,-138.615 547.954,-144.317 549.56,-137.503"/>
</g>
<!-- Node33&#45;&gt;Node6 -->
<g id="edge58" class="edge"><title>Node33&#45;&gt;Node6</title>
<path fill="none" stroke="midnightblue" d="M1339.32,-239.037C1409.67,-233.067 1509.48,-220.985 1541.5,-199 1557.63,-187.926 1567.89,-167.582 1573.63,-152.594"/>
<polygon fill="midnightblue" stroke="midnightblue" points="1577.04,-153.43 1577.03,-142.835 1570.43,-151.127 1577.04,-153.43"/>
</g>
<!-- Node34 -->
<g id="node34" class="node"><title>Node34</title>
<polygon fill="white" stroke="#bfbfbf" points="1345.5,-179.5 1345.5,-198.5 1401.5,-198.5 1401.5,-179.5 1345.5,-179.5"/>
<text text-anchor="middle" x="1373.5" y="-186.5" font-family="Helvetica,sans-Serif" font-size="10.00">algorithm</text>
</g>
<!-- Node33&#45;&gt;Node34 -->
<g id="edge53" class="edge"><title>Node33&#45;&gt;Node34</title>
<path fill="none" stroke="midnightblue" d="M1282.85,-235.324C1300.17,-226.664 1327.02,-213.242 1347,-203.249"/>
<polygon fill="midnightblue" stroke="midnightblue" points="1348.81,-206.257 1356.19,-198.655 1345.68,-199.996 1348.81,-206.257"/>
</g>
<!-- Node35 -->
<g id="node35" class="node"><title>Node35</title>
<polygon fill="white" stroke="#bfbfbf" points="1420,-179.5 1420,-198.5 1479,-198.5 1479,-179.5 1420,-179.5"/>
<text text-anchor="middle" x="1449.5" y="-186.5" font-family="Helvetica,sans-Serif" font-size="10.00">functional</text>
</g>
<!-- Node33&#45;&gt;Node35 -->
<g id="edge54" class="edge"><title>Node33&#45;&gt;Node35</title>
<path fill="none" stroke="midnightblue" d="M1294.66,-235.444C1326.01,-226.241 1376.03,-211.562 1410.7,-201.388"/>
<polygon fill="midnightblue" stroke="midnightblue" points="1411.87,-204.691 1420.48,-198.516 1409.9,-197.974 1411.87,-204.691"/>
</g>
<!-- Node36 -->
<g id="node36" class="node"><title>Node36</title>
<polygon fill="white" stroke="#bfbfbf" points="1497,-179.5 1497,-198.5 1532,-198.5 1532,-179.5 1497,-179.5"/>
<text text-anchor="middle" x="1514.5" y="-186.5" font-family="Helvetica,sans-Serif" font-size="10.00">map</text>
</g>
<!-- Node33&#45;&gt;Node36 -->
<g id="edge55" class="edge"><title>Node33&#45;&gt;Node36</title>
<path fill="none" stroke="midnightblue" d="M1317.78,-235.495C1361.05,-227.995 1424.23,-215.985 1487.27,-199.067"/>
<polygon fill="midnightblue" stroke="midnightblue" points="1488.25,-202.429 1496.98,-196.423 1486.41,-195.675 1488.25,-202.429"/>
</g>
<!-- Node37 -->
<g id="node37" class="node"><title>Node37</title>
<polygon fill="white" stroke="#bfbfbf" points="1295.5,-123.5 1295.5,-142.5 1335.5,-142.5 1335.5,-123.5 1295.5,-123.5"/>
<text text-anchor="middle" x="1315.5" y="-130.5" font-family="Helvetica,sans-Serif" font-size="10.00">utility</text>
</g>
<!-- Node33&#45;&gt;Node37 -->
<g id="edge57" class="edge"><title>Node33&#45;&gt;Node37</title>
<path fill="none" stroke="midnightblue" d="M1249.44,-235.411C1229.13,-223.383 1198.39,-200.565 1212.5,-179 1216.83,-172.391 1256.88,-156.141 1285.74,-145.09"/>
<polygon fill="midnightblue" stroke="midnightblue" points="1287.3,-148.242 1295.4,-141.421 1284.81,-141.698 1287.3,-148.242"/>
</g>
<!-- Node38 -->
<g id="node38" class="node"><title>Node38</title>
<g id="a_node38"><a xlink:href="real_8h.xhtml" target="_top" xlink:title="Declares real and related constants. ">
<polygon fill="white" stroke="black" points="1221,-179.5 1221,-198.5 1328,-198.5 1328,-179.5 1221,-179.5"/>
<text text-anchor="middle" x="1274.5" y="-186.5" font-family="Helvetica,sans-Serif" font-size="10.00">gromacs/utility/real.h</text>
</a>
</g>
</g>
<!-- Node33&#45;&gt;Node38 -->
<g id="edge59" class="edge"><title>Node33&#45;&gt;Node38</title>
<path fill="none" stroke="midnightblue" d="M1266.99,-235.083C1268.18,-227.927 1269.89,-217.635 1271.38,-208.691"/>
<polygon fill="midnightblue" stroke="midnightblue" points="1274.85,-209.19 1273.04,-198.751 1267.95,-208.04 1274.85,-209.19"/>
</g>
<!-- Node39 -->
<g id="node39" class="node"><title>Node39</title>
<g id="a_node39"><a xlink:href="variant_8h.xhtml" target="_top" xlink:title="Declares gmx::Variant. ">
<polygon fill="white" stroke="black" points="1005,-179.5 1005,-198.5 1126,-198.5 1126,-179.5 1005,-179.5"/>
<text text-anchor="middle" x="1065.5" y="-186.5" font-family="Helvetica,sans-Serif" font-size="10.00">gromacs/utility/variant.h</text>
</a>
</g>
</g>
<!-- Node33&#45;&gt;Node39 -->
<g id="edge60" class="edge"><title>Node33&#45;&gt;Node39</title>
<path fill="none" stroke="midnightblue" d="M1233.81,-235.444C1199.43,-226.162 1144.42,-211.309 1106.71,-201.127"/>
<polygon fill="midnightblue" stroke="midnightblue" points="1107.61,-197.744 1097.04,-198.516 1105.78,-204.502 1107.61,-197.744"/>
</g>
<!-- Node39&#45;&gt;Node5 -->
<g id="edge62" class="edge"><title>Node39&#45;&gt;Node5</title>
<path fill="none" stroke="midnightblue" d="M1004.69,-182.978C913.808,-175.313 737.22,-159.806 587.5,-143 574.872,-141.582 560.972,-139.81 548.978,-138.214"/>
<polygon fill="midnightblue" stroke="midnightblue" points="549.385,-134.738 539.007,-136.871 548.45,-141.675 549.385,-134.738"/>
</g>
<!-- Node39&#45;&gt;Node14 -->
<g id="edge61" class="edge"><title>Node39&#45;&gt;Node14</title>
<path fill="none" stroke="midnightblue" d="M1108.18,-179.494C1149.92,-169.367 1203.79,-150.318 1178.5,-123 1143.14,-84.8121 763.338,-91.6073 711.5,-87 674.832,-83.741 632.971,-79.4632 603.87,-76.4"/>
<polygon fill="midnightblue" stroke="midnightblue" points="604.072,-72.9019 593.759,-75.3306 603.336,-79.8631 604.072,-72.9019"/>
</g>
<!-- Node39&#45;&gt;Node15 -->
<g id="edge67" class="edge"><title>Node39&#45;&gt;Node15</title>
<path fill="none" stroke="midnightblue" d="M1046.01,-179.444C1025.86,-170.596 994.177,-156.687 971.169,-146.586"/>
<polygon fill="midnightblue" stroke="midnightblue" points="972.462,-143.332 961.899,-142.516 969.648,-149.741 972.462,-143.332"/>
</g>
<!-- Node39&#45;&gt;Node30 -->
<g id="edge63" class="edge"><title>Node39&#45;&gt;Node30</title>
<path fill="none" stroke="midnightblue" d="M1064.67,-179.083C1064.02,-172.006 1063.08,-161.861 1062.26,-152.986"/>
<polygon fill="midnightblue" stroke="midnightblue" points="1065.72,-152.386 1061.31,-142.751 1058.75,-153.031 1065.72,-152.386"/>
</g>
<!-- Node39&#45;&gt;Node31 -->
<g id="edge64" class="edge"><title>Node39&#45;&gt;Node31</title>
<path fill="none" stroke="midnightblue" d="M1077.39,-179.324C1088.65,-171.107 1105.79,-158.602 1119.21,-148.807"/>
<polygon fill="midnightblue" stroke="midnightblue" points="1121.38,-151.556 1127.39,-142.834 1117.25,-145.901 1121.38,-151.556"/>
</g>
<!-- Node39&#45;&gt;Node37 -->
<g id="edge66" class="edge"><title>Node39&#45;&gt;Node37</title>
<path fill="none" stroke="midnightblue" d="M1114.54,-179.471C1157.34,-171.699 1221.28,-159.304 1285.42,-143.083"/>
<polygon fill="midnightblue" stroke="midnightblue" points="1286.47,-146.425 1295.29,-140.554 1284.74,-139.644 1286.47,-146.425"/>
</g>
<!-- Node40 -->
<g id="node40" class="node"><title>Node40</title>
<polygon fill="white" stroke="#bfbfbf" points="1226,-123.5 1226,-142.5 1277,-142.5 1277,-123.5 1226,-123.5"/>
<text text-anchor="middle" x="1251.5" y="-130.5" font-family="Helvetica,sans-Serif" font-size="10.00">typeinfo</text>
</g>
<!-- Node39&#45;&gt;Node40 -->
<g id="edge65" class="edge"><title>Node39&#45;&gt;Node40</title>
<path fill="none" stroke="midnightblue" d="M1094.97,-179.444C1127.79,-169.916 1180.82,-154.519 1215.93,-144.328"/>
<polygon fill="midnightblue" stroke="midnightblue" points="1217.13,-147.622 1225.76,-141.473 1215.18,-140.9 1217.13,-147.622"/>
</g>
<!-- Node41&#45;&gt;Node5 -->
<g id="edge70" class="edge"><title>Node41&#45;&gt;Node5</title>
<path fill="none" stroke="midnightblue" d="M1045.99,-291.489C965.079,-277.652 807.58,-246.907 680.5,-199 662.642,-192.268 659.955,-186.718 642.5,-179 611.204,-165.163 574.2,-152.149 548.811,-143.71"/>
<polygon fill="midnightblue" stroke="midnightblue" points="549.617,-140.291 539.024,-140.493 547.431,-146.941 549.617,-140.291"/>
</g>
<!-- Node41&#45;&gt;Node6 -->
<g id="edge72" class="edge"><title>Node41&#45;&gt;Node6</title>
<path fill="none" stroke="midnightblue" d="M1187.66,-292.335C1307.58,-280.052 1513.11,-251.794 1564.5,-199 1576.23,-186.952 1579.48,-167.662 1580.09,-153.221"/>
<polygon fill="midnightblue" stroke="midnightblue" points="1583.6,-152.923 1580.14,-142.909 1576.6,-152.895 1583.6,-152.923"/>
</g>
<!-- Node41&#45;&gt;Node15 -->
<g id="edge73" class="edge"><title>Node41&#45;&gt;Node15</title>
<path fill="none" stroke="midnightblue" d="M1063.78,-291.477C1042.01,-284.712 1014.92,-273.28 996.5,-255 967.339,-226.067 952.585,-178.622 946.328,-152.57"/>
<polygon fill="midnightblue" stroke="midnightblue" points="949.684,-151.536 944.09,-142.539 942.852,-153.061 949.684,-151.536"/>
</g>
<!-- Node41&#45;&gt;Node33 -->
<g id="edge74" class="edge"><title>Node41&#45;&gt;Node33</title>
<path fill="none" stroke="midnightblue" d="M1125.8,-291.444C1153.85,-282.32 1198.44,-267.813 1229.68,-257.651"/>
<polygon fill="midnightblue" stroke="midnightblue" points="1230.89,-260.938 1239.32,-254.516 1228.73,-254.282 1230.89,-260.938"/>
</g>
<!-- Node41&#45;&gt;Node37 -->
<g id="edge71" class="edge"><title>Node41&#45;&gt;Node37</title>
<path fill="none" stroke="midnightblue" d="M1104.82,-291.455C1118.69,-269.803 1158.11,-212.158 1204.5,-179 1217.91,-169.415 1257.28,-154.444 1285.31,-144.434"/>
<polygon fill="midnightblue" stroke="midnightblue" points="1286.8,-147.622 1295.06,-140.99 1284.46,-141.022 1286.8,-147.622"/>
</g>
<!-- Node41&#45;&gt;Node39 -->
<g id="edge75" class="edge"><title>Node41&#45;&gt;Node39</title>
<path fill="none" stroke="midnightblue" d="M1098.67,-291.402C1097.27,-278.782 1093.97,-254.616 1087.5,-235 1084.4,-225.606 1079.71,-215.676 1075.46,-207.54"/>
<polygon fill="midnightblue" stroke="midnightblue" points="1078.48,-205.77 1070.62,-198.664 1072.33,-209.12 1078.48,-205.77"/>
</g>
<!-- Node42 -->
<g id="node42" class="node"><title>Node42</title>
<polygon fill="white" stroke="#bfbfbf" points="1005,-235.5 1005,-254.5 1078,-254.5 1078,-235.5 1005,-235.5"/>
<text text-anchor="middle" x="1041.5" y="-242.5" font-family="Helvetica,sans-Serif" font-size="10.00">initializer_list</text>
</g>
<!-- Node41&#45;&gt;Node42 -->
<g id="edge69" class="edge"><title>Node41&#45;&gt;Node42</title>
<path fill="none" stroke="midnightblue" d="M1090.18,-291.324C1081.61,-283.341 1068.69,-271.313 1058.31,-261.653"/>
<polygon fill="midnightblue" stroke="midnightblue" points="1060.69,-259.086 1050.99,-254.834 1055.92,-264.21 1060.69,-259.086"/>
</g>
<!-- Node43&#45;&gt;Node5 -->
<g id="edge79" class="edge"><title>Node43&#45;&gt;Node5</title>
<path fill="none" stroke="midnightblue" d="M1664.46,-184.753C1628.36,-182.964 1582.42,-180.757 1541.5,-179 1117.59,-160.801 1010.32,-178.477 587.5,-143 574.93,-141.945 561.136,-140.254 549.206,-138.62"/>
<polygon fill="midnightblue" stroke="midnightblue" points="549.672,-135.151 539.281,-137.217 548.692,-142.083 549.672,-135.151"/>
</g>
<!-- Node43&#45;&gt;Node6 -->
<g id="edge80" class="edge"><title>Node43&#45;&gt;Node6</title>
<path fill="none" stroke="midnightblue" d="M1704.89,-179.444C1679.6,-170.279 1639.33,-155.685 1611.28,-145.516"/>
<polygon fill="midnightblue" stroke="midnightblue" points="1612.14,-142.105 1601.54,-141.988 1609.75,-148.686 1612.14,-142.105"/>
</g>
<!-- Node44 -->
<g id="node44" class="node"><title>Node44</title>
<polygon fill="white" stroke="#bfbfbf" points="1671,-123.5 1671,-142.5 1720,-142.5 1720,-123.5 1671,-123.5"/>
<text text-anchor="middle" x="1695.5" y="-130.5" font-family="Helvetica,sans-Serif" font-size="10.00">cstdarg</text>
</g>
<!-- Node43&#45;&gt;Node44 -->
<g id="edge77" class="edge"><title>Node43&#45;&gt;Node44</title>
<path fill="none" stroke="midnightblue" d="M1723.05,-179.083C1718.49,-171.613 1711.83,-160.724 1706.21,-151.52"/>
<polygon fill="midnightblue" stroke="midnightblue" points="1709.05,-149.459 1700.85,-142.751 1703.08,-153.109 1709.05,-149.459"/>
</g>
<!-- Node45 -->
<g id="node45" class="node"><title>Node45</title>
<polygon fill="white" stroke="#bfbfbf" points="1738.5,-123.5 1738.5,-142.5 1784.5,-142.5 1784.5,-123.5 1738.5,-123.5"/>
<text text-anchor="middle" x="1761.5" y="-130.5" font-family="Helvetica,sans-Serif" font-size="10.00">cstring</text>
</g>
<!-- Node43&#45;&gt;Node45 -->
<g id="edge78" class="edge"><title>Node43&#45;&gt;Node45</title>
<path fill="none" stroke="midnightblue" d="M1733.95,-179.083C1738.51,-171.613 1745.17,-160.724 1750.79,-151.52"/>
<polygon fill="midnightblue" stroke="midnightblue" points="1753.92,-153.109 1756.15,-142.751 1747.95,-149.459 1753.92,-153.109"/>
</g>
</g>
</svg>
