<?xml version="1.0" encoding="UTF-8" standalone="no"?>
<!DOCTYPE svg PUBLIC "-//W3C//DTD SVG 1.1//EN"
 "http://www.w3.org/Graphics/SVG/1.1/DTD/svg11.dtd">
<!-- Generated by graphviz version 2.38.0 (20140413.2041)
 -->
<!-- Title: src/gromacs/random/tests/uniformrealdistribution.cpp Pages: 1 -->
<svg width="1481pt" height="330pt"
 viewBox="0.00 0.00 1480.50 330.00" xmlns="http://www.w3.org/2000/svg" xmlns:xlink="http://www.w3.org/1999/xlink">
<g id="graph0" class="graph" transform="scale(1 1) rotate(0) translate(4 326)">
<title>src/gromacs/random/tests/uniformrealdistribution.cpp</title>
<polygon fill="white" stroke="none" points="-4,4 -4,-326 1476.5,-326 1476.5,4 -4,4"/>
<!-- Node1 -->
<g id="node1" class="node"><title>Node1</title>
<polygon fill="#bfbfbf" stroke="black" points="633,-291.5 633,-321.5 791,-321.5 791,-291.5 633,-291.5"/>
<text text-anchor="start" x="641" y="-309.5" font-family="Helvetica,sans-Serif" font-size="10.00">src/gromacs/random</text>
<text text-anchor="middle" x="712" y="-298.5" font-family="Helvetica,sans-Serif" font-size="10.00">/tests/uniformrealdistribution.cpp</text>
</g>
<!-- Node2 -->
<g id="node2" class="node"><title>Node2</title>
<g id="a_node2"><a xlink:href="gmxpre_8h.xhtml" target="_top" xlink:title="Prerequisite header file for GROMACS build. ">
<polygon fill="white" stroke="black" points="165.5,-235.5 165.5,-254.5 222.5,-254.5 222.5,-235.5 165.5,-235.5"/>
<text text-anchor="middle" x="194" y="-242.5" font-family="Helvetica,sans-Serif" font-size="10.00">gmxpre.h</text>
</a>
</g>
</g>
<!-- Node1&#45;&gt;Node2 -->
<g id="edge1" class="edge"><title>Node1&#45;&gt;Node2</title>
<path fill="none" stroke="midnightblue" d="M632.585,-300.267C539.191,-293.41 379.392,-279.489 232.647,-254.888"/>
<polygon fill="midnightblue" stroke="midnightblue" points="232.998,-251.398 222.554,-253.176 231.827,-258.299 232.998,-251.398"/>
</g>
<!-- Node3 -->
<g id="node3" class="node"><title>Node3</title>
<g id="a_node3"><a xlink:href="uniformrealdistribution_8h.xhtml" target="_top" xlink:title="The uniform real distribution. ">
<polygon fill="white" stroke="black" points="241,-235.5 241,-254.5 437,-254.5 437,-235.5 241,-235.5"/>
<text text-anchor="middle" x="339" y="-242.5" font-family="Helvetica,sans-Serif" font-size="10.00">gromacs/random/uniformrealdistribution.h</text>
</a>
</g>
</g>
<!-- Node1&#45;&gt;Node3 -->
<g id="edge2" class="edge"><title>Node1&#45;&gt;Node3</title>
<path fill="none" stroke="midnightblue" d="M632.896,-292.882C564.184,-281.921 465.969,-266.254 402.341,-256.104"/>
<polygon fill="midnightblue" stroke="midnightblue" points="402.862,-252.643 392.436,-254.524 401.759,-259.556 402.862,-252.643"/>
</g>
<!-- Node17 -->
<g id="node17" class="node"><title>Node17</title>
<polygon fill="white" stroke="#bfbfbf" points="988.5,-179.5 988.5,-198.5 1059.5,-198.5 1059.5,-179.5 988.5,-179.5"/>
<text text-anchor="middle" x="1024" y="-186.5" font-family="Helvetica,sans-Serif" font-size="10.00">gtest/gtest.h</text>
</g>
<!-- Node1&#45;&gt;Node17 -->
<g id="edge19" class="edge"><title>Node1&#45;&gt;Node17</title>
<path fill="none" stroke="midnightblue" d="M750.1,-291.485C777.594,-281.364 815.598,-267.36 849,-255 898.659,-236.625 956.207,-215.231 991.351,-202.154"/>
<polygon fill="midnightblue" stroke="midnightblue" points="992.923,-205.304 1001.07,-198.536 990.482,-198.743 992.923,-205.304"/>
</g>
<!-- Node18 -->
<g id="node18" class="node"><title>Node18</title>
<g id="a_node18"><a xlink:href="threefry_8h.xhtml" target="_top" xlink:title="Implementation of the 2x64 ThreeFry random engine. ">
<polygon fill="white" stroke="black" points="574,-235.5 574,-254.5 708,-254.5 708,-235.5 574,-235.5"/>
<text text-anchor="middle" x="641" y="-242.5" font-family="Helvetica,sans-Serif" font-size="10.00">gromacs/random/threefry.h</text>
</a>
</g>
</g>
<!-- Node1&#45;&gt;Node18 -->
<g id="edge20" class="edge"><title>Node1&#45;&gt;Node18</title>
<path fill="none" stroke="midnightblue" d="M695.174,-291.399C684.325,-282.308 670.223,-270.49 659.127,-261.191"/>
<polygon fill="midnightblue" stroke="midnightblue" points="661.244,-258.398 651.331,-254.658 656.748,-263.763 661.244,-258.398"/>
</g>
<!-- Node30 -->
<g id="node30" class="node"><title>Node30</title>
<g id="a_node30"><a xlink:href="refdata_8h.xhtml" target="_top" xlink:title="Functionality for writing tests that can produce their own reference data. ">
<polygon fill="white" stroke="black" points="1288,-179.5 1288,-198.5 1380,-198.5 1380,-179.5 1288,-179.5"/>
<text text-anchor="middle" x="1334" y="-186.5" font-family="Helvetica,sans-Serif" font-size="10.00">testutils/refdata.h</text>
</a>
</g>
</g>
<!-- Node1&#45;&gt;Node30 -->
<g id="edge41" class="edge"><title>Node1&#45;&gt;Node30</title>
<path fill="none" stroke="midnightblue" d="M787.648,-291.453C914.172,-267.958 1165.85,-221.223 1277.92,-200.414"/>
<polygon fill="midnightblue" stroke="midnightblue" points="1278.8,-203.809 1288,-198.542 1277.53,-196.927 1278.8,-203.809"/>
</g>
<!-- Node32 -->
<g id="node32" class="node"><title>Node32</title>
<g id="a_node32"><a xlink:href="testasserts_8h.xhtml" target="_top" xlink:title="Extra assertions for unit tests. ">
<polygon fill="white" stroke="black" points="728.5,-235.5 728.5,-254.5 839.5,-254.5 839.5,-235.5 728.5,-235.5"/>
<text text-anchor="middle" x="784" y="-242.5" font-family="Helvetica,sans-Serif" font-size="10.00">testutils/testasserts.h</text>
</a>
</g>
</g>
<!-- Node1&#45;&gt;Node32 -->
<g id="edge47" class="edge"><title>Node1&#45;&gt;Node32</title>
<path fill="none" stroke="midnightblue" d="M729.063,-291.399C740.065,-282.308 754.365,-270.49 765.618,-261.191"/>
<polygon fill="midnightblue" stroke="midnightblue" points="768.044,-263.726 773.523,-254.658 763.585,-258.33 768.044,-263.726"/>
</g>
<!-- Node4 -->
<g id="node4" class="node"><title>Node4</title>
<polygon fill="white" stroke="#bfbfbf" points="0,-123.5 0,-142.5 44,-142.5 44,-123.5 0,-123.5"/>
<text text-anchor="middle" x="22" y="-130.5" font-family="Helvetica,sans-Serif" font-size="10.00">cmath</text>
</g>
<!-- Node3&#45;&gt;Node4 -->
<g id="edge3" class="edge"><title>Node3&#45;&gt;Node4</title>
<path fill="none" stroke="midnightblue" d="M250.589,-235.49C168.524,-226.818 56.7109,-212.728 41,-199 27.8777,-187.534 23.5814,-167.556 22.2897,-152.766"/>
<polygon fill="midnightblue" stroke="midnightblue" points="25.7814,-152.509 21.7912,-142.695 18.7899,-152.855 25.7814,-152.509"/>
</g>
<!-- Node5 -->
<g id="node5" class="node"><title>Node5</title>
<polygon fill="white" stroke="#bfbfbf" points="50,-179.5 50,-198.5 106,-198.5 106,-179.5 50,-179.5"/>
<text text-anchor="middle" x="78" y="-186.5" font-family="Helvetica,sans-Serif" font-size="10.00">algorithm</text>
</g>
<!-- Node3&#45;&gt;Node5 -->
<g id="edge4" class="edge"><title>Node3&#45;&gt;Node5</title>
<path fill="none" stroke="midnightblue" d="M293.838,-235.482C250.642,-227.211 183.433,-214.019 116.175,-199.196"/>
<polygon fill="midnightblue" stroke="midnightblue" points="116.775,-195.744 106.254,-196.997 115.26,-202.578 116.775,-195.744"/>
</g>
<!-- Node6 -->
<g id="node6" class="node"><title>Node6</title>
<polygon fill="white" stroke="#bfbfbf" points="386,-179.5 386,-198.5 426,-198.5 426,-179.5 386,-179.5"/>
<text text-anchor="middle" x="406" y="-186.5" font-family="Helvetica,sans-Serif" font-size="10.00">limits</text>
</g>
<!-- Node3&#45;&gt;Node6 -->
<g id="edge5" class="edge"><title>Node3&#45;&gt;Node6</title>
<path fill="none" stroke="midnightblue" d="M349.765,-235.324C359.766,-227.263 374.887,-215.077 386.93,-205.369"/>
<polygon fill="midnightblue" stroke="midnightblue" points="389.45,-207.834 395.039,-198.834 385.057,-202.384 389.45,-207.834"/>
</g>
<!-- Node7 -->
<g id="node7" class="node"><title>Node7</title>
<g id="a_node7"><a xlink:href="functions_8h.xhtml" target="_top" xlink:title="Declares simple math functions. ">
<polygon fill="white" stroke="black" points="124,-179.5 124,-198.5 254,-198.5 254,-179.5 124,-179.5"/>
<text text-anchor="middle" x="189" y="-186.5" font-family="Helvetica,sans-Serif" font-size="10.00">gromacs/math/functions.h</text>
</a>
</g>
</g>
<!-- Node3&#45;&gt;Node7 -->
<g id="edge6" class="edge"><title>Node3&#45;&gt;Node7</title>
<path fill="none" stroke="midnightblue" d="M315.232,-235.444C290.107,-226.399 250.289,-212.064 222.1,-201.916"/>
<polygon fill="midnightblue" stroke="midnightblue" points="223.251,-198.611 212.657,-198.516 220.88,-205.197 223.251,-198.611"/>
</g>
<!-- Node9 -->
<g id="node9" class="node"><title>Node9</title>
<g id="a_node9"><a xlink:href="real_8h.xhtml" target="_top" xlink:title="Declares real and related constants. ">
<polygon fill="white" stroke="black" points="126.5,-123.5 126.5,-142.5 233.5,-142.5 233.5,-123.5 126.5,-123.5"/>
<text text-anchor="middle" x="180" y="-130.5" font-family="Helvetica,sans-Serif" font-size="10.00">gromacs/utility/real.h</text>
</a>
</g>
</g>
<!-- Node3&#45;&gt;Node9 -->
<g id="edge18" class="edge"><title>Node3&#45;&gt;Node9</title>
<path fill="none" stroke="midnightblue" d="M330.148,-235.333C316.468,-222.201 289.041,-196.899 263,-179 245.385,-166.892 224.178,-155.443 207.61,-147.123"/>
<polygon fill="midnightblue" stroke="midnightblue" points="208.97,-143.891 198.454,-142.605 205.873,-150.168 208.97,-143.891"/>
</g>
<!-- Node10 -->
<g id="node10" class="node"><title>Node10</title>
<g id="a_node10"><a xlink:href="basedefinitions_8h.xhtml" target="_top" xlink:title="Basic types and macros used throughout GROMACS. ">
<polygon fill="white" stroke="black" points="482.5,-62 482.5,-81 639.5,-81 639.5,-62 482.5,-62"/>
<text text-anchor="middle" x="561" y="-69" font-family="Helvetica,sans-Serif" font-size="10.00">gromacs/utility/basedefinitions.h</text>
</a>
</g>
</g>
<!-- Node3&#45;&gt;Node10 -->
<g id="edge10" class="edge"><title>Node3&#45;&gt;Node10</title>
<path fill="none" stroke="midnightblue" d="M343.194,-235.09C349.535,-222.083 362.384,-197.439 377,-179 399.458,-150.668 405.594,-142.559 436,-123 462.588,-105.897 495.917,-92.7832 521.472,-84.2105"/>
<polygon fill="midnightblue" stroke="midnightblue" points="522.781,-87.4651 531.204,-81.0379 520.611,-80.8098 522.781,-87.4651"/>
</g>
<!-- Node13 -->
<g id="node13" class="node"><title>Node13</title>
<g id="a_node13"><a xlink:href="classhelpers_8h.xhtml" target="_top" xlink:title="Declares common utility classes and macros. ">
<polygon fill="white" stroke="black" points="1125,-123.5 1125,-142.5 1271,-142.5 1271,-123.5 1125,-123.5"/>
<text text-anchor="middle" x="1198" y="-130.5" font-family="Helvetica,sans-Serif" font-size="10.00">gromacs/utility/classhelpers.h</text>
</a>
</g>
</g>
<!-- Node3&#45;&gt;Node13 -->
<g id="edge13" class="edge"><title>Node3&#45;&gt;Node13</title>
<path fill="none" stroke="midnightblue" d="M437.15,-240.939C566.892,-235.976 788.044,-224.085 865,-199 881.306,-193.685 881.871,-184.83 898,-179 936.671,-165.021 1039.79,-151.352 1114.34,-142.817"/>
<polygon fill="midnightblue" stroke="midnightblue" points="1115.12,-146.251 1124.66,-141.647 1114.33,-139.295 1115.12,-146.251"/>
</g>
<!-- Node15 -->
<g id="node15" class="node"><title>Node15</title>
<g id="a_node15"><a xlink:href="gmxassert_8h.xhtml" target="_top" xlink:title="Defines assert macros customized for Gromacs. ">
<polygon fill="white" stroke="black" points="251.5,-123.5 251.5,-142.5 388.5,-142.5 388.5,-123.5 251.5,-123.5"/>
<text text-anchor="middle" x="320" y="-130.5" font-family="Helvetica,sans-Serif" font-size="10.00">gromacs/utility/gmxassert.h</text>
</a>
</g>
</g>
<!-- Node3&#45;&gt;Node15 -->
<g id="edge15" class="edge"><title>Node3&#45;&gt;Node15</title>
<path fill="none" stroke="midnightblue" d="M337.509,-235.368C334.443,-217.617 327.37,-176.666 323.212,-152.597"/>
<polygon fill="midnightblue" stroke="midnightblue" points="326.635,-151.85 321.484,-142.591 319.737,-153.041 326.635,-151.85"/>
</g>
<!-- Node7&#45;&gt;Node4 -->
<g id="edge7" class="edge"><title>Node7&#45;&gt;Node4</title>
<path fill="none" stroke="midnightblue" d="M162.538,-179.444C132.994,-169.89 85.2003,-154.436 53.687,-144.246"/>
<polygon fill="midnightblue" stroke="midnightblue" points="54.6631,-140.883 44.0713,-141.137 52.5094,-147.544 54.6631,-140.883"/>
</g>
<!-- Node8 -->
<g id="node8" class="node"><title>Node8</title>
<polygon fill="white" stroke="#bfbfbf" points="62,-123.5 62,-142.5 108,-142.5 108,-123.5 62,-123.5"/>
<text text-anchor="middle" x="85" y="-130.5" font-family="Helvetica,sans-Serif" font-size="10.00">cstdint</text>
</g>
<!-- Node7&#45;&gt;Node8 -->
<g id="edge8" class="edge"><title>Node7&#45;&gt;Node8</title>
<path fill="none" stroke="midnightblue" d="M172.291,-179.324C155.688,-170.703 129.998,-157.364 110.78,-147.386"/>
<polygon fill="midnightblue" stroke="midnightblue" points="112.156,-144.156 101.668,-142.655 108.93,-150.369 112.156,-144.156"/>
</g>
<!-- Node7&#45;&gt;Node9 -->
<g id="edge9" class="edge"><title>Node7&#45;&gt;Node9</title>
<path fill="none" stroke="midnightblue" d="M187.514,-179.083C186.321,-171.927 184.606,-161.635 183.115,-152.691"/>
<polygon fill="midnightblue" stroke="midnightblue" points="186.555,-152.04 181.459,-142.751 179.65,-153.19 186.555,-152.04"/>
</g>
<!-- Node11 -->
<g id="node11" class="node"><title>Node11</title>
<polygon fill="white" stroke="#bfbfbf" points="500.5,-0.5 500.5,-19.5 549.5,-19.5 549.5,-0.5 500.5,-0.5"/>
<text text-anchor="middle" x="525" y="-7.5" font-family="Helvetica,sans-Serif" font-size="10.00">stdint.h</text>
</g>
<!-- Node10&#45;&gt;Node11 -->
<g id="edge11" class="edge"><title>Node10&#45;&gt;Node11</title>
<path fill="none" stroke="midnightblue" d="M555.842,-61.9751C550.549,-53.2268 542.165,-39.3691 535.473,-28.3093"/>
<polygon fill="midnightblue" stroke="midnightblue" points="538.32,-26.2531 530.148,-19.5091 532.33,-29.8768 538.32,-26.2531"/>
</g>
<!-- Node12 -->
<g id="node12" class="node"><title>Node12</title>
<polygon fill="white" stroke="#bfbfbf" points="567.5,-0.5 567.5,-19.5 626.5,-19.5 626.5,-0.5 567.5,-0.5"/>
<text text-anchor="middle" x="597" y="-7.5" font-family="Helvetica,sans-Serif" font-size="10.00">inttypes.h</text>
</g>
<!-- Node10&#45;&gt;Node12 -->
<g id="edge12" class="edge"><title>Node10&#45;&gt;Node12</title>
<path fill="none" stroke="midnightblue" d="M566.158,-61.9751C571.451,-53.2268 579.835,-39.3691 586.527,-28.3093"/>
<polygon fill="midnightblue" stroke="midnightblue" points="589.67,-29.8768 591.852,-19.5091 583.68,-26.2531 589.67,-29.8768"/>
</g>
<!-- Node14 -->
<g id="node14" class="node"><title>Node14</title>
<polygon fill="white" stroke="#bfbfbf" points="1172,-62 1172,-81 1224,-81 1224,-62 1172,-62"/>
<text text-anchor="middle" x="1198" y="-69" font-family="Helvetica,sans-Serif" font-size="10.00">memory</text>
</g>
<!-- Node13&#45;&gt;Node14 -->
<g id="edge14" class="edge"><title>Node13&#45;&gt;Node14</title>
<path fill="none" stroke="midnightblue" d="M1198,-123.475C1198,-115.08 1198,-101.981 1198,-91.1631"/>
<polygon fill="midnightblue" stroke="midnightblue" points="1201.5,-91.0091 1198,-81.0091 1194.5,-91.0091 1201.5,-91.0091"/>
</g>
<!-- Node15&#45;&gt;Node10 -->
<g id="edge16" class="edge"><title>Node15&#45;&gt;Node10</title>
<path fill="none" stroke="midnightblue" d="M354.529,-123.475C397.212,-112.937 469.921,-94.9863 516.682,-83.4415"/>
<polygon fill="midnightblue" stroke="midnightblue" points="517.665,-86.804 526.535,-81.0091 515.987,-80.0081 517.665,-86.804"/>
</g>
<!-- Node16 -->
<g id="node16" class="node"><title>Node16</title>
<g id="a_node16"><a xlink:href="current__function_8h.xhtml" target="_top" xlink:title="Declares GMX_CURRENT_FUNCTION for getting the current function name. ">
<polygon fill="white" stroke="black" points="288.5,-56.5 288.5,-86.5 401.5,-86.5 401.5,-56.5 288.5,-56.5"/>
<text text-anchor="start" x="296.5" y="-74.5" font-family="Helvetica,sans-Serif" font-size="10.00">gromacs/utility/current</text>
<text text-anchor="middle" x="345" y="-63.5" font-family="Helvetica,sans-Serif" font-size="10.00">_function.h</text>
</a>
</g>
</g>
<!-- Node15&#45;&gt;Node16 -->
<g id="edge17" class="edge"><title>Node15&#45;&gt;Node16</title>
<path fill="none" stroke="midnightblue" d="M323.582,-123.475C326.62,-116.245 331.124,-105.525 335.219,-95.7792"/>
<polygon fill="midnightblue" stroke="midnightblue" points="338.461,-97.098 339.108,-86.523 332.008,-94.3865 338.461,-97.098"/>
</g>
<!-- Node18&#45;&gt;Node6 -->
<g id="edge22" class="edge"><title>Node18&#45;&gt;Node6</title>
<path fill="none" stroke="midnightblue" d="M600.851,-235.488C560.202,-226.758 495.582,-212.573 440,-199 438.732,-198.69 437.439,-198.37 436.133,-198.042"/>
<polygon fill="midnightblue" stroke="midnightblue" points="436.66,-194.564 426.103,-195.459 434.914,-201.342 436.66,-194.564"/>
</g>
<!-- Node18&#45;&gt;Node7 -->
<g id="edge23" class="edge"><title>Node18&#45;&gt;Node7</title>
<path fill="none" stroke="midnightblue" d="M573.819,-235.974C491.024,-226.082 350.725,-209.321 264.345,-199.001"/>
<polygon fill="midnightblue" stroke="midnightblue" points="264.69,-195.518 254.346,-197.807 263.86,-202.468 264.69,-195.518"/>
</g>
<!-- Node18&#45;&gt;Node13 -->
<g id="edge27" class="edge"><title>Node18&#45;&gt;Node13</title>
<path fill="none" stroke="midnightblue" d="M702.513,-235.475C766.678,-226.183 862.74,-211.034 898,-199 916.062,-192.835 917.928,-185.135 936,-179 970.068,-167.434 1059.82,-153.265 1124.79,-143.954"/>
<polygon fill="midnightblue" stroke="midnightblue" points="1125.58,-147.376 1134.99,-142.502 1124.6,-140.446 1125.58,-147.376"/>
</g>
<!-- Node19 -->
<g id="node19" class="node"><title>Node19</title>
<polygon fill="white" stroke="#bfbfbf" points="622,-179.5 622,-198.5 660,-198.5 660,-179.5 622,-179.5"/>
<text text-anchor="middle" x="641" y="-186.5" font-family="Helvetica,sans-Serif" font-size="10.00">array</text>
</g>
<!-- Node18&#45;&gt;Node19 -->
<g id="edge21" class="edge"><title>Node18&#45;&gt;Node19</title>
<path fill="none" stroke="midnightblue" d="M641,-235.083C641,-228.006 641,-217.861 641,-208.986"/>
<polygon fill="midnightblue" stroke="midnightblue" points="644.5,-208.751 641,-198.751 637.5,-208.751 644.5,-208.751"/>
</g>
<!-- Node20 -->
<g id="node20" class="node"><title>Node20</title>
<g id="a_node20"><a xlink:href="seed_8h.xhtml" target="_top" xlink:title="Random seed and domain utilities. ">
<polygon fill="white" stroke="black" points="482,-179.5 482,-198.5 604,-198.5 604,-179.5 482,-179.5"/>
<text text-anchor="middle" x="543" y="-186.5" font-family="Helvetica,sans-Serif" font-size="10.00">gromacs/random/seed.h</text>
</a>
</g>
</g>
<!-- Node18&#45;&gt;Node20 -->
<g id="edge24" class="edge"><title>Node18&#45;&gt;Node20</title>
<path fill="none" stroke="midnightblue" d="M625.255,-235.324C609.681,-226.743 585.623,-213.486 567.541,-203.522"/>
<polygon fill="midnightblue" stroke="midnightblue" points="569.154,-200.415 558.706,-198.655 565.776,-206.546 569.154,-200.415"/>
</g>
<!-- Node22 -->
<g id="node22" class="node"><title>Node22</title>
<g id="a_node22"><a xlink:href="exceptions_8h.xhtml" target="_top" xlink:title="Declares common exception classes and macros for fatal error handling. ">
<polygon fill="white" stroke="black" points="716.5,-179.5 716.5,-198.5 855.5,-198.5 855.5,-179.5 716.5,-179.5"/>
<text text-anchor="middle" x="786" y="-186.5" font-family="Helvetica,sans-Serif" font-size="10.00">gromacs/utility/exceptions.h</text>
</a>
</g>
</g>
<!-- Node18&#45;&gt;Node22 -->
<g id="edge28" class="edge"><title>Node18&#45;&gt;Node22</title>
<path fill="none" stroke="midnightblue" d="M663.976,-235.444C688.157,-226.438 726.418,-212.189 753.646,-202.049"/>
<polygon fill="midnightblue" stroke="midnightblue" points="754.982,-205.286 763.132,-198.516 752.539,-198.727 754.982,-205.286"/>
</g>
<!-- Node20&#45;&gt;Node10 -->
<g id="edge26" class="edge"><title>Node20&#45;&gt;Node10</title>
<path fill="none" stroke="midnightblue" d="M544.353,-179.319C547.246,-160.757 554.09,-116.839 558.043,-91.4734"/>
<polygon fill="midnightblue" stroke="midnightblue" points="561.55,-91.7017 559.631,-81.282 554.633,-90.6238 561.55,-91.7017"/>
</g>
<!-- Node21 -->
<g id="node21" class="node"><title>Node21</title>
<polygon fill="white" stroke="#bfbfbf" points="445.5,-123.5 445.5,-142.5 494.5,-142.5 494.5,-123.5 445.5,-123.5"/>
<text text-anchor="middle" x="470" y="-130.5" font-family="Helvetica,sans-Serif" font-size="10.00">random</text>
</g>
<!-- Node20&#45;&gt;Node21 -->
<g id="edge25" class="edge"><title>Node20&#45;&gt;Node21</title>
<path fill="none" stroke="midnightblue" d="M531.271,-179.324C520.163,-171.107 503.258,-158.602 490.017,-148.807"/>
<polygon fill="midnightblue" stroke="midnightblue" points="492.063,-145.967 481.942,-142.834 487.9,-151.595 492.063,-145.967"/>
</g>
<!-- Node22&#45;&gt;Node10 -->
<g id="edge37" class="edge"><title>Node22&#45;&gt;Node10</title>
<path fill="none" stroke="midnightblue" d="M752.526,-179.466C725.562,-171.882 687.152,-159.45 656,-143 626.813,-127.588 596.834,-103.744 578.559,-88.1277"/>
<polygon fill="midnightblue" stroke="midnightblue" points="580.426,-85.1134 570.582,-81.1954 575.834,-90.3969 580.426,-85.1134"/>
</g>
<!-- Node22&#45;&gt;Node13 -->
<g id="edge38" class="edge"><title>Node22&#45;&gt;Node13</title>
<path fill="none" stroke="midnightblue" d="M851.283,-179.444C925.114,-169.767 1045.14,-154.035 1122.82,-143.853"/>
<polygon fill="midnightblue" stroke="midnightblue" points="1123.56,-147.286 1133.02,-142.516 1122.65,-140.346 1123.56,-147.286"/>
</g>
<!-- Node22&#45;&gt;Node14 -->
<g id="edge32" class="edge"><title>Node22&#45;&gt;Node14</title>
<path fill="none" stroke="midnightblue" d="M855.679,-180.325C928.688,-171.74 1038.2,-157.172 1078,-143 1088.26,-139.349 1143.54,-105.902 1175.37,-86.4185"/>
<polygon fill="midnightblue" stroke="midnightblue" points="1177.35,-89.3098 1184.05,-81.0989 1173.69,-83.3423 1177.35,-89.3098"/>
</g>
<!-- Node22&#45;&gt;Node15 -->
<g id="edge40" class="edge"><title>Node22&#45;&gt;Node15</title>
<path fill="none" stroke="midnightblue" d="M716.487,-179.945C631.468,-170.093 487.908,-153.457 398.849,-143.137"/>
<polygon fill="midnightblue" stroke="midnightblue" points="399.137,-139.647 388.801,-141.973 398.332,-146.601 399.137,-139.647"/>
</g>
<!-- Node22&#45;&gt;Node16 -->
<g id="edge39" class="edge"><title>Node22&#45;&gt;Node16</title>
<path fill="none" stroke="midnightblue" d="M753.214,-179.413C680.338,-160.327 503.839,-114.101 408.546,-89.1431"/>
<polygon fill="midnightblue" stroke="midnightblue" points="409.303,-85.7233 398.743,-86.5755 407.53,-92.4949 409.303,-85.7233"/>
</g>
<!-- Node23 -->
<g id="node23" class="node"><title>Node23</title>
<polygon fill="white" stroke="#bfbfbf" points="805.5,-123.5 805.5,-142.5 848.5,-142.5 848.5,-123.5 805.5,-123.5"/>
<text text-anchor="middle" x="827" y="-130.5" font-family="Helvetica,sans-Serif" font-size="10.00">cstdio</text>
</g>
<!-- Node22&#45;&gt;Node23 -->
<g id="edge29" class="edge"><title>Node22&#45;&gt;Node23</title>
<path fill="none" stroke="midnightblue" d="M792.77,-179.083C798.562,-171.455 807.058,-160.264 814.138,-150.941"/>
<polygon fill="midnightblue" stroke="midnightblue" points="817.096,-152.832 820.356,-142.751 811.521,-148.599 817.096,-152.832"/>
</g>
<!-- Node24 -->
<g id="node24" class="node"><title>Node24</title>
<polygon fill="white" stroke="#bfbfbf" points="866.5,-123.5 866.5,-142.5 911.5,-142.5 911.5,-123.5 866.5,-123.5"/>
<text text-anchor="middle" x="889" y="-130.5" font-family="Helvetica,sans-Serif" font-size="10.00">cstdlib</text>
</g>
<!-- Node22&#45;&gt;Node24 -->
<g id="edge30" class="edge"><title>Node22&#45;&gt;Node24</title>
<path fill="none" stroke="midnightblue" d="M802.549,-179.324C818.992,-170.703 844.435,-157.364 863.468,-147.386"/>
<polygon fill="midnightblue" stroke="midnightblue" points="865.261,-150.398 872.492,-142.655 862.011,-144.198 865.261,-150.398"/>
</g>
<!-- Node25 -->
<g id="node25" class="node"><title>Node25</title>
<polygon fill="white" stroke="#bfbfbf" points="929.5,-123.5 929.5,-142.5 988.5,-142.5 988.5,-123.5 929.5,-123.5"/>
<text text-anchor="middle" x="959" y="-130.5" font-family="Helvetica,sans-Serif" font-size="10.00">exception</text>
</g>
<!-- Node22&#45;&gt;Node25 -->
<g id="edge31" class="edge"><title>Node22&#45;&gt;Node25</title>
<path fill="none" stroke="midnightblue" d="M813.412,-179.444C842.769,-170.28 889.519,-155.688 922.096,-145.519"/>
<polygon fill="midnightblue" stroke="midnightblue" points="923.213,-148.837 931.716,-142.516 921.127,-142.155 923.213,-148.837"/>
</g>
<!-- Node26 -->
<g id="node26" class="node"><title>Node26</title>
<polygon fill="white" stroke="#bfbfbf" points="1289.5,-123.5 1289.5,-142.5 1330.5,-142.5 1330.5,-123.5 1289.5,-123.5"/>
<text text-anchor="middle" x="1310" y="-130.5" font-family="Helvetica,sans-Serif" font-size="10.00">string</text>
</g>
<!-- Node22&#45;&gt;Node26 -->
<g id="edge33" class="edge"><title>Node22&#45;&gt;Node26</title>
<path fill="none" stroke="midnightblue" d="M855.689,-183.385C967.881,-175.675 1184.69,-159.546 1279.6,-142.603"/>
<polygon fill="midnightblue" stroke="midnightblue" points="1280.3,-146.034 1289.48,-140.748 1279,-139.154 1280.3,-146.034"/>
</g>
<!-- Node27 -->
<g id="node27" class="node"><title>Node27</title>
<polygon fill="white" stroke="#bfbfbf" points="1007,-123.5 1007,-142.5 1069,-142.5 1069,-123.5 1007,-123.5"/>
<text text-anchor="middle" x="1038" y="-130.5" font-family="Helvetica,sans-Serif" font-size="10.00">type_traits</text>
</g>
<!-- Node22&#45;&gt;Node27 -->
<g id="edge34" class="edge"><title>Node22&#45;&gt;Node27</title>
<path fill="none" stroke="midnightblue" d="M827.07,-179.437C867.714,-170.928 931.977,-157.382 996.985,-143.202"/>
<polygon fill="midnightblue" stroke="midnightblue" points="997.977,-146.568 1007,-141.014 996.483,-139.73 997.977,-146.568"/>
</g>
<!-- Node28 -->
<g id="node28" class="node"><title>Node28</title>
<polygon fill="white" stroke="#bfbfbf" points="665.5,-123.5 665.5,-142.5 724.5,-142.5 724.5,-123.5 665.5,-123.5"/>
<text text-anchor="middle" x="695" y="-130.5" font-family="Helvetica,sans-Serif" font-size="10.00">typeindex</text>
</g>
<!-- Node22&#45;&gt;Node28 -->
<g id="edge35" class="edge"><title>Node22&#45;&gt;Node28</title>
<path fill="none" stroke="midnightblue" d="M771.379,-179.324C757.051,-170.822 734.987,-157.729 718.251,-147.797"/>
<polygon fill="midnightblue" stroke="midnightblue" points="719.97,-144.748 709.584,-142.655 716.398,-150.768 719.97,-144.748"/>
</g>
<!-- Node29 -->
<g id="node29" class="node"><title>Node29</title>
<polygon fill="white" stroke="#bfbfbf" points="743,-123.5 743,-142.5 787,-142.5 787,-123.5 743,-123.5"/>
<text text-anchor="middle" x="765" y="-130.5" font-family="Helvetica,sans-Serif" font-size="10.00">vector</text>
</g>
<!-- Node22&#45;&gt;Node29 -->
<g id="edge36" class="edge"><title>Node22&#45;&gt;Node29</title>
<path fill="none" stroke="midnightblue" d="M782.532,-179.083C779.688,-171.77 775.571,-161.181 772.04,-152.103"/>
<polygon fill="midnightblue" stroke="midnightblue" points="775.29,-150.803 768.403,-142.751 768.766,-153.34 775.29,-150.803"/>
</g>
<!-- Node30&#45;&gt;Node10 -->
<g id="edge45" class="edge"><title>Node30&#45;&gt;Node10</title>
<path fill="none" stroke="midnightblue" d="M1338.54,-179.078C1344.92,-165.137 1354.26,-138.214 1340,-123 1316.7,-98.1398 849.169,-81.1713 649.815,-75.0393"/>
<polygon fill="midnightblue" stroke="midnightblue" points="649.766,-71.5363 639.664,-74.7293 649.552,-78.533 649.766,-71.5363"/>
</g>
<!-- Node30&#45;&gt;Node13 -->
<g id="edge46" class="edge"><title>Node30&#45;&gt;Node13</title>
<path fill="none" stroke="midnightblue" d="M1312.45,-179.444C1289.97,-170.517 1254.51,-156.439 1229.02,-146.317"/>
<polygon fill="midnightblue" stroke="midnightblue" points="1230.03,-142.954 1219.45,-142.516 1227.45,-149.46 1230.03,-142.954"/>
</g>
<!-- Node30&#45;&gt;Node14 -->
<g id="edge43" class="edge"><title>Node30&#45;&gt;Node14</title>
<path fill="none" stroke="midnightblue" d="M1345.77,-179.433C1361.89,-166.647 1387.32,-142.035 1373,-123 1356.34,-100.857 1280.48,-85.3654 1234.28,-77.7949"/>
<polygon fill="midnightblue" stroke="midnightblue" points="1234.77,-74.329 1224.35,-76.2137 1233.67,-81.242 1234.77,-74.329"/>
</g>
<!-- Node30&#45;&gt;Node26 -->
<g id="edge44" class="edge"><title>Node30&#45;&gt;Node26</title>
<path fill="none" stroke="midnightblue" d="M1330.04,-179.083C1326.79,-171.77 1322.08,-161.181 1318.05,-152.103"/>
<polygon fill="midnightblue" stroke="midnightblue" points="1321.15,-150.468 1313.89,-142.751 1314.75,-153.311 1321.15,-150.468"/>
</g>
<!-- Node31 -->
<g id="node31" class="node"><title>Node31</title>
<polygon fill="white" stroke="#bfbfbf" points="1425.5,-123.5 1425.5,-142.5 1472.5,-142.5 1472.5,-123.5 1425.5,-123.5"/>
<text text-anchor="middle" x="1449" y="-130.5" font-family="Helvetica,sans-Serif" font-size="10.00">iterator</text>
</g>
<!-- Node30&#45;&gt;Node31 -->
<g id="edge42" class="edge"><title>Node30&#45;&gt;Node31</title>
<path fill="none" stroke="midnightblue" d="M1352.22,-179.444C1370.9,-170.675 1400.16,-156.935 1421.62,-146.858"/>
<polygon fill="midnightblue" stroke="midnightblue" points="1423.3,-149.935 1430.86,-142.516 1420.32,-143.599 1423.3,-149.935"/>
</g>
<!-- Node32&#45;&gt;Node9 -->
<g id="edge52" class="edge"><title>Node32&#45;&gt;Node9</title>
<path fill="none" stroke="midnightblue" d="M728.272,-236.435C642.07,-224.662 484.999,-202.898 473,-199 454.848,-193.104 453.058,-185.177 435,-179 417.136,-172.89 312.913,-155.421 243.361,-144.133"/>
<polygon fill="midnightblue" stroke="midnightblue" points="243.797,-140.658 233.366,-142.514 242.678,-147.568 243.797,-140.658"/>
</g>
<!-- Node32&#45;&gt;Node10 -->
<g id="edge50" class="edge"><title>Node32&#45;&gt;Node10</title>
<path fill="none" stroke="midnightblue" d="M766.219,-235.329C735.007,-219.606 669.203,-184.18 622,-143 603.416,-126.787 585.344,-104.898 573.758,-89.8333"/>
<polygon fill="midnightblue" stroke="midnightblue" points="576.251,-87.3254 567.436,-81.4472 570.661,-91.5393 576.251,-87.3254"/>
</g>
<!-- Node32&#45;&gt;Node17 -->
<g id="edge49" class="edge"><title>Node32&#45;&gt;Node17</title>
<path fill="none" stroke="midnightblue" d="M822.029,-235.444C864.546,-225.877 933.36,-210.394 978.647,-200.205"/>
<polygon fill="midnightblue" stroke="midnightblue" points="979.509,-203.598 988.496,-197.988 977.972,-196.769 979.509,-203.598"/>
</g>
<!-- Node32&#45;&gt;Node22 -->
<g id="edge51" class="edge"><title>Node32&#45;&gt;Node22</title>
<path fill="none" stroke="midnightblue" d="M784.33,-235.083C784.592,-228.006 784.968,-217.861 785.297,-208.986"/>
<polygon fill="midnightblue" stroke="midnightblue" points="788.803,-208.874 785.676,-198.751 781.808,-208.615 788.803,-208.874"/>
</g>
<!-- Node32&#45;&gt;Node26 -->
<g id="edge48" class="edge"><title>Node32&#45;&gt;Node26</title>
<path fill="none" stroke="midnightblue" d="M817.648,-235.479C848.743,-227.267 896.035,-213.917 936,-199 956.125,-191.489 959.315,-184.792 980,-179 1106.16,-143.673 1146.57,-169.085 1279.32,-142.745"/>
<polygon fill="midnightblue" stroke="midnightblue" points="1280.37,-146.103 1289.46,-140.669 1278.96,-139.246 1280.37,-146.103"/>
</g>
</g>
</svg>
