<?xml version="1.0" encoding="UTF-8" standalone="no"?>
<!DOCTYPE svg PUBLIC "-//W3C//DTD SVG 1.1//EN"
 "http://www.w3.org/Graphics/SVG/1.1/DTD/svg11.dtd">
<!-- Generated by graphviz version 2.38.0 (20140413.2041)
 -->
<!-- Title: src/gromacs/trajectoryanalysis/modules/unionfind.h Pages: 1 -->
<svg width="632pt" height="274pt"
 viewBox="0.00 0.00 631.50 274.00" xmlns="http://www.w3.org/2000/svg" xmlns:xlink="http://www.w3.org/1999/xlink">
<g id="graph0" class="graph" transform="scale(1 1) rotate(0) translate(4 270)">
<title>src/gromacs/trajectoryanalysis/modules/unionfind.h</title>
<polygon fill="white" stroke="none" points="-4,4 -4,-270 627.5,-270 627.5,4 -4,4"/>
<!-- Node1 -->
<g id="node1" class="node"><title>Node1</title>
<polygon fill="#bfbfbf" stroke="black" points="79,-235.5 79,-265.5 229,-265.5 229,-235.5 79,-235.5"/>
<text text-anchor="start" x="87" y="-253.5" font-family="Helvetica,sans-Serif" font-size="10.00">src/gromacs/trajectoryanalysis</text>
<text text-anchor="middle" x="154" y="-242.5" font-family="Helvetica,sans-Serif" font-size="10.00">/modules/unionfind.h</text>
</g>
<!-- Node2 -->
<g id="node2" class="node"><title>Node2</title>
<polygon fill="white" stroke="#bfbfbf" points="0,-179.5 0,-198.5 56,-198.5 56,-179.5 0,-179.5"/>
<text text-anchor="middle" x="28" y="-186.5" font-family="Helvetica,sans-Serif" font-size="10.00">algorithm</text>
</g>
<!-- Node1&#45;&gt;Node2 -->
<g id="edge1" class="edge"><title>Node1&#45;&gt;Node2</title>
<path fill="none" stroke="midnightblue" d="M124.14,-235.399C103.377,-225.595 75.8999,-212.619 55.6394,-203.052"/>
<polygon fill="midnightblue" stroke="midnightblue" points="56.8712,-199.763 46.3341,-198.658 53.8821,-206.093 56.8712,-199.763"/>
</g>
<!-- Node3 -->
<g id="node3" class="node"><title>Node3</title>
<polygon fill="white" stroke="#bfbfbf" points="74.5,-179.5 74.5,-198.5 125.5,-198.5 125.5,-179.5 74.5,-179.5"/>
<text text-anchor="middle" x="100" y="-186.5" font-family="Helvetica,sans-Serif" font-size="10.00">numeric</text>
</g>
<!-- Node1&#45;&gt;Node3 -->
<g id="edge2" class="edge"><title>Node1&#45;&gt;Node3</title>
<path fill="none" stroke="midnightblue" d="M141.203,-235.399C133.275,-226.664 123.064,-215.413 114.79,-206.296"/>
<polygon fill="midnightblue" stroke="midnightblue" points="117.17,-203.711 107.857,-198.658 111.986,-208.415 117.17,-203.711"/>
</g>
<!-- Node4 -->
<g id="node4" class="node"><title>Node4</title>
<polygon fill="white" stroke="#bfbfbf" points="35,-123.5 35,-142.5 79,-142.5 79,-123.5 35,-123.5"/>
<text text-anchor="middle" x="57" y="-130.5" font-family="Helvetica,sans-Serif" font-size="10.00">vector</text>
</g>
<!-- Node1&#45;&gt;Node4 -->
<g id="edge3" class="edge"><title>Node1&#45;&gt;Node4</title>
<path fill="none" stroke="midnightblue" d="M153.089,-235.399C151.449,-220.085 146.857,-195.594 134,-179 122.377,-163.999 104.234,-153.047 88.4784,-145.706"/>
<polygon fill="midnightblue" stroke="midnightblue" points="89.6217,-142.386 79.0562,-141.597 86.8239,-148.803 89.6217,-142.386"/>
</g>
<!-- Node5 -->
<g id="node5" class="node"><title>Node5</title>
<g id="a_node5"><a xlink:href="arrayref_8h.xhtml" target="_top" xlink:title="Declares gmx::ArrayRef. ">
<polygon fill="white" stroke="black" points="182.5,-179.5 182.5,-198.5 307.5,-198.5 307.5,-179.5 182.5,-179.5"/>
<text text-anchor="middle" x="245" y="-186.5" font-family="Helvetica,sans-Serif" font-size="10.00">gromacs/utility/arrayref.h</text>
</a>
</g>
</g>
<!-- Node1&#45;&gt;Node5 -->
<g id="edge4" class="edge"><title>Node1&#45;&gt;Node5</title>
<path fill="none" stroke="midnightblue" d="M175.566,-235.399C189.88,-226.04 208.612,-213.792 223.011,-204.377"/>
<polygon fill="midnightblue" stroke="midnightblue" points="225.304,-207.06 231.759,-198.658 221.474,-201.201 225.304,-207.06"/>
</g>
<!-- Node11 -->
<g id="node11" class="node"><title>Node11</title>
<g id="a_node11"><a xlink:href="gmxassert_8h.xhtml" target="_top" xlink:title="Defines assert macros customized for Gromacs. ">
<polygon fill="white" stroke="black" points="422.5,-123.5 422.5,-142.5 559.5,-142.5 559.5,-123.5 422.5,-123.5"/>
<text text-anchor="middle" x="491" y="-130.5" font-family="Helvetica,sans-Serif" font-size="10.00">gromacs/utility/gmxassert.h</text>
</a>
</g>
</g>
<!-- Node1&#45;&gt;Node11 -->
<g id="edge16" class="edge"><title>Node1&#45;&gt;Node11</title>
<path fill="none" stroke="midnightblue" d="M202.019,-235.409C234.608,-225.653 278.589,-212.113 317,-199 367.414,-181.79 425.218,-159.725 459.882,-146.237"/>
<polygon fill="midnightblue" stroke="midnightblue" points="461.398,-149.402 469.442,-142.506 458.853,-142.881 461.398,-149.402"/>
</g>
<!-- Node5&#45;&gt;Node4 -->
<g id="edge10" class="edge"><title>Node5&#45;&gt;Node4</title>
<path fill="none" stroke="midnightblue" d="M215.185,-179.487C185.511,-171.007 138.414,-157.529 88.6614,-143.184"/>
<polygon fill="midnightblue" stroke="midnightblue" points="89.5911,-139.81 79.0128,-140.401 87.6509,-146.535 89.5911,-139.81"/>
</g>
<!-- Node6 -->
<g id="node6" class="node"><title>Node6</title>
<polygon fill="white" stroke="#bfbfbf" points="97.5,-123.5 97.5,-142.5 146.5,-142.5 146.5,-123.5 97.5,-123.5"/>
<text text-anchor="middle" x="122" y="-130.5" font-family="Helvetica,sans-Serif" font-size="10.00">cstddef</text>
</g>
<!-- Node5&#45;&gt;Node6 -->
<g id="edge5" class="edge"><title>Node5&#45;&gt;Node6</title>
<path fill="none" stroke="midnightblue" d="M225.51,-179.444C205.358,-170.596 173.677,-156.687 150.669,-146.586"/>
<polygon fill="midnightblue" stroke="midnightblue" points="151.962,-143.332 141.399,-142.516 149.148,-149.741 151.962,-143.332"/>
</g>
<!-- Node7 -->
<g id="node7" class="node"><title>Node7</title>
<polygon fill="white" stroke="#bfbfbf" points="165,-123.5 165,-142.5 203,-142.5 203,-123.5 165,-123.5"/>
<text text-anchor="middle" x="184" y="-130.5" font-family="Helvetica,sans-Serif" font-size="10.00">array</text>
</g>
<!-- Node5&#45;&gt;Node7 -->
<g id="edge6" class="edge"><title>Node5&#45;&gt;Node7</title>
<path fill="none" stroke="midnightblue" d="M235.199,-179.324C226.182,-171.341 212.594,-159.313 201.682,-149.653"/>
<polygon fill="midnightblue" stroke="midnightblue" points="203.787,-146.842 193.979,-142.834 199.147,-152.083 203.787,-146.842"/>
</g>
<!-- Node8 -->
<g id="node8" class="node"><title>Node8</title>
<polygon fill="white" stroke="#bfbfbf" points="221.5,-123.5 221.5,-142.5 268.5,-142.5 268.5,-123.5 221.5,-123.5"/>
<text text-anchor="middle" x="245" y="-130.5" font-family="Helvetica,sans-Serif" font-size="10.00">iterator</text>
</g>
<!-- Node5&#45;&gt;Node8 -->
<g id="edge7" class="edge"><title>Node5&#45;&gt;Node8</title>
<path fill="none" stroke="midnightblue" d="M245,-179.083C245,-172.006 245,-161.861 245,-152.986"/>
<polygon fill="midnightblue" stroke="midnightblue" points="248.5,-152.751 245,-142.751 241.5,-152.751 248.5,-152.751"/>
</g>
<!-- Node9 -->
<g id="node9" class="node"><title>Node9</title>
<polygon fill="white" stroke="#bfbfbf" points="286.5,-123.5 286.5,-142.5 345.5,-142.5 345.5,-123.5 286.5,-123.5"/>
<text text-anchor="middle" x="316" y="-130.5" font-family="Helvetica,sans-Serif" font-size="10.00">stdexcept</text>
</g>
<!-- Node5&#45;&gt;Node9 -->
<g id="edge8" class="edge"><title>Node5&#45;&gt;Node9</title>
<path fill="none" stroke="midnightblue" d="M256.407,-179.324C267.109,-171.185 283.341,-158.839 296.163,-149.087"/>
<polygon fill="midnightblue" stroke="midnightblue" points="298.544,-151.673 304.385,-142.834 294.307,-146.102 298.544,-151.673"/>
</g>
<!-- Node10 -->
<g id="node10" class="node"><title>Node10</title>
<polygon fill="white" stroke="#bfbfbf" points="364,-123.5 364,-142.5 404,-142.5 404,-123.5 364,-123.5"/>
<text text-anchor="middle" x="384" y="-130.5" font-family="Helvetica,sans-Serif" font-size="10.00">utility</text>
</g>
<!-- Node5&#45;&gt;Node10 -->
<g id="edge9" class="edge"><title>Node5&#45;&gt;Node10</title>
<path fill="none" stroke="midnightblue" d="M267.025,-179.444C290.647,-170.267 328.285,-155.645 354.464,-145.474"/>
<polygon fill="midnightblue" stroke="midnightblue" points="355.829,-148.699 363.883,-141.815 353.295,-142.174 355.829,-148.699"/>
</g>
<!-- Node5&#45;&gt;Node11 -->
<g id="edge11" class="edge"><title>Node5&#45;&gt;Node11</title>
<path fill="none" stroke="midnightblue" d="M283.979,-179.444C326.894,-170.023 395.946,-154.866 442.369,-144.675"/>
<polygon fill="midnightblue" stroke="midnightblue" points="443.186,-148.079 452.203,-142.516 441.685,-141.242 443.186,-148.079"/>
</g>
<!-- Node12 -->
<g id="node12" class="node"><title>Node12</title>
<g id="a_node12"><a xlink:href="basedefinitions_8h.xhtml" target="_top" xlink:title="Basic types and macros used throughout GROMACS. ">
<polygon fill="white" stroke="black" points="335.5,-62 335.5,-81 492.5,-81 492.5,-62 335.5,-62"/>
<text text-anchor="middle" x="414" y="-69" font-family="Helvetica,sans-Serif" font-size="10.00">gromacs/utility/basedefinitions.h</text>
</a>
</g>
</g>
<!-- Node11&#45;&gt;Node12 -->
<g id="edge12" class="edge"><title>Node11&#45;&gt;Node12</title>
<path fill="none" stroke="midnightblue" d="M479.968,-123.475C467.732,-114.02 447.771,-98.5961 433.007,-87.1871"/>
<polygon fill="midnightblue" stroke="midnightblue" points="435.065,-84.3541 425.012,-81.0091 430.785,-89.8931 435.065,-84.3541"/>
</g>
<!-- Node15 -->
<g id="node15" class="node"><title>Node15</title>
<g id="a_node15"><a xlink:href="current__function_8h.xhtml" target="_top" xlink:title="Declares GMX_CURRENT_FUNCTION for getting the current function name. ">
<polygon fill="white" stroke="black" points="510.5,-56.5 510.5,-86.5 623.5,-86.5 623.5,-56.5 510.5,-56.5"/>
<text text-anchor="start" x="518.5" y="-74.5" font-family="Helvetica,sans-Serif" font-size="10.00">gromacs/utility/current</text>
<text text-anchor="middle" x="567" y="-63.5" font-family="Helvetica,sans-Serif" font-size="10.00">_function.h</text>
</a>
</g>
</g>
<!-- Node11&#45;&gt;Node15 -->
<g id="edge15" class="edge"><title>Node11&#45;&gt;Node15</title>
<path fill="none" stroke="midnightblue" d="M501.889,-123.475C512.086,-115.492 527.717,-103.254 541.109,-92.7703"/>
<polygon fill="midnightblue" stroke="midnightblue" points="543.372,-95.4434 549.088,-86.523 539.057,-89.9316 543.372,-95.4434"/>
</g>
<!-- Node13 -->
<g id="node13" class="node"><title>Node13</title>
<polygon fill="white" stroke="#bfbfbf" points="353.5,-0.5 353.5,-19.5 402.5,-19.5 402.5,-0.5 353.5,-0.5"/>
<text text-anchor="middle" x="378" y="-7.5" font-family="Helvetica,sans-Serif" font-size="10.00">stdint.h</text>
</g>
<!-- Node12&#45;&gt;Node13 -->
<g id="edge13" class="edge"><title>Node12&#45;&gt;Node13</title>
<path fill="none" stroke="midnightblue" d="M408.842,-61.9751C403.549,-53.2268 395.165,-39.3691 388.473,-28.3093"/>
<polygon fill="midnightblue" stroke="midnightblue" points="391.32,-26.2531 383.148,-19.5091 385.33,-29.8768 391.32,-26.2531"/>
</g>
<!-- Node14 -->
<g id="node14" class="node"><title>Node14</title>
<polygon fill="white" stroke="#bfbfbf" points="420.5,-0.5 420.5,-19.5 479.5,-19.5 479.5,-0.5 420.5,-0.5"/>
<text text-anchor="middle" x="450" y="-7.5" font-family="Helvetica,sans-Serif" font-size="10.00">inttypes.h</text>
</g>
<!-- Node12&#45;&gt;Node14 -->
<g id="edge14" class="edge"><title>Node12&#45;&gt;Node14</title>
<path fill="none" stroke="midnightblue" d="M419.158,-61.9751C424.451,-53.2268 432.835,-39.3691 439.527,-28.3093"/>
<polygon fill="midnightblue" stroke="midnightblue" points="442.67,-29.8768 444.852,-19.5091 436.68,-26.2531 442.67,-29.8768"/>
</g>
</g>
</svg>
