<?xml version="1.0" encoding="UTF-8" standalone="no"?>
<!DOCTYPE svg PUBLIC "-//W3C//DTD SVG 1.1//EN"
 "http://www.w3.org/Graphics/SVG/1.1/DTD/svg11.dtd">
<!-- Generated by graphviz version 2.38.0 (20140413.2041)
 -->
<!-- Title: src/gromacs/analysisdata.h Pages: 1 -->
<svg width="1322pt" height="464pt"
 viewBox="0.00 0.00 1321.60 464.00" xmlns="http://www.w3.org/2000/svg" xmlns:xlink="http://www.w3.org/1999/xlink">
<g id="graph0" class="graph" transform="scale(1 1) rotate(0) translate(4 460)">
<title>src/gromacs/analysisdata.h</title>
<polygon fill="white" stroke="none" points="-4,4 -4,-460 1317.6,-460 1317.6,4 -4,4"/>
<!-- Node1 -->
<g id="node1" class="node"><title>Node1</title>
<polygon fill="#bfbfbf" stroke="black" points="578,-436.5 578,-455.5 715,-455.5 715,-436.5 578,-436.5"/>
<text text-anchor="middle" x="646.5" y="-443.5" font-family="Helvetica,sans-Serif" font-size="10.00">src/gromacs/analysisdata.h</text>
</g>
<!-- Node2 -->
<g id="node2" class="node"><title>Node2</title>
<g id="a_node2"><a xlink:href="analysisdata_2analysisdata_8h.xhtml" target="_top" xlink:title="Declares gmx::AnalysisData and gmx::AnalysisDataHandle. ">
<polygon fill="white" stroke="black" points="496.5,-302.5 496.5,-332.5 608.5,-332.5 608.5,-302.5 496.5,-302.5"/>
<text text-anchor="start" x="504.5" y="-320.5" font-family="Helvetica,sans-Serif" font-size="10.00">gromacs/analysisdata</text>
<text text-anchor="middle" x="552.5" y="-309.5" font-family="Helvetica,sans-Serif" font-size="10.00">/analysisdata.h</text>
</a>
</g>
</g>
<!-- Node1&#45;&gt;Node2 -->
<g id="edge1" class="edge"><title>Node1&#45;&gt;Node2</title>
<path fill="none" stroke="midnightblue" d="M640.039,-436.305C625.604,-416.88 590.351,-369.438 569.248,-341.038"/>
<polygon fill="midnightblue" stroke="midnightblue" points="571.965,-338.827 563.191,-332.888 566.347,-343.002 571.965,-338.827"/>
</g>
<!-- Node7 -->
<g id="node7" class="node"><title>Node7</title>
<g id="a_node7"><a xlink:href="arraydata_8h.xhtml" target="_top" xlink:title="Declares gmx::AbstractAnalysisArrayData and gmx::AnalysisArrayData. ">
<polygon fill="white" stroke="black" points="328.5,-302.5 328.5,-332.5 440.5,-332.5 440.5,-302.5 328.5,-302.5"/>
<text text-anchor="start" x="336.5" y="-320.5" font-family="Helvetica,sans-Serif" font-size="10.00">gromacs/analysisdata</text>
<text text-anchor="middle" x="384.5" y="-309.5" font-family="Helvetica,sans-Serif" font-size="10.00">/arraydata.h</text>
</a>
</g>
</g>
<!-- Node1&#45;&gt;Node7 -->
<g id="edge7" class="edge"><title>Node1&#45;&gt;Node7</title>
<path fill="none" stroke="midnightblue" d="M628.492,-436.305C586.328,-415.948 480.437,-364.821 422.996,-337.087"/>
<polygon fill="midnightblue" stroke="midnightblue" points="424.4,-333.878 413.873,-332.682 421.357,-340.182 424.4,-333.878"/>
</g>
<!-- Node9 -->
<g id="node9" class="node"><title>Node9</title>
<g id="a_node9"><a xlink:href="dataframe_8h.xhtml" target="_top" xlink:title="Declares classes for accessing data frame information. ">
<polygon fill="white" stroke="black" points="248.5,-235.5 248.5,-265.5 360.5,-265.5 360.5,-235.5 248.5,-235.5"/>
<text text-anchor="start" x="256.5" y="-253.5" font-family="Helvetica,sans-Serif" font-size="10.00">gromacs/analysisdata</text>
<text text-anchor="middle" x="304.5" y="-242.5" font-family="Helvetica,sans-Serif" font-size="10.00">/dataframe.h</text>
</a>
</g>
</g>
<!-- Node1&#45;&gt;Node9 -->
<g id="edge27" class="edge"><title>Node1&#45;&gt;Node9</title>
<path fill="none" stroke="midnightblue" d="M577.797,-441.813C502.168,-434.36 382.92,-410.205 319.5,-333 306.417,-317.073 303.279,-293.448 303.053,-275.729"/>
<polygon fill="midnightblue" stroke="midnightblue" points="306.555,-275.639 303.226,-265.581 299.556,-275.52 306.555,-275.639"/>
</g>
<!-- Node21 -->
<g id="node21" class="node"><title>Node21</title>
<g id="a_node21"><a xlink:href="average_8h.xhtml" target="_top" xlink:title="Declares gmx::AnalysisDataAverageModule. ">
<polygon fill="white" stroke="black" points="762.5,-369.5 762.5,-399.5 874.5,-399.5 874.5,-369.5 762.5,-369.5"/>
<text text-anchor="start" x="770.5" y="-387.5" font-family="Helvetica,sans-Serif" font-size="10.00">gromacs/analysisdata</text>
<text text-anchor="middle" x="818.5" y="-376.5" font-family="Helvetica,sans-Serif" font-size="10.00">/modules/average.h</text>
</a>
</g>
</g>
<!-- Node1&#45;&gt;Node21 -->
<g id="edge28" class="edge"><title>Node1&#45;&gt;Node21</title>
<path fill="none" stroke="midnightblue" d="M671.143,-436.475C696.398,-427.739 736.381,-413.907 768.331,-402.855"/>
<polygon fill="midnightblue" stroke="midnightblue" points="769.657,-406.1 777.963,-399.523 767.368,-399.485 769.657,-406.1"/>
</g>
<!-- Node23 -->
<g id="node23" class="node"><title>Node23</title>
<g id="a_node23"><a xlink:href="displacement_8h.xhtml" target="_top" xlink:title="Declares gmx::AnalysisDataDisplacementModule. ">
<polygon fill="white" stroke="black" points="627,-302.5 627,-332.5 752,-332.5 752,-302.5 627,-302.5"/>
<text text-anchor="start" x="635" y="-320.5" font-family="Helvetica,sans-Serif" font-size="10.00">gromacs/analysisdata</text>
<text text-anchor="middle" x="689.5" y="-309.5" font-family="Helvetica,sans-Serif" font-size="10.00">/modules/displacement.h</text>
</a>
</g>
</g>
<!-- Node1&#45;&gt;Node23 -->
<g id="edge34" class="edge"><title>Node1&#45;&gt;Node23</title>
<path fill="none" stroke="midnightblue" d="M639.734,-436.217C629.431,-421.692 612.144,-391.989 623.5,-369 629.712,-356.424 640.725,-346.117 651.995,-338.169"/>
<polygon fill="midnightblue" stroke="midnightblue" points="654.133,-340.953 660.589,-332.552 650.304,-335.093 654.133,-340.953"/>
</g>
<!-- Node24 -->
<g id="node24" class="node"><title>Node24</title>
<g id="a_node24"><a xlink:href="histogram_8h.xhtml" target="_top" xlink:title="Declares analysis data modules for calculating histograms. ">
<polygon fill="white" stroke="black" points="892.5,-369.5 892.5,-399.5 1004.5,-399.5 1004.5,-369.5 892.5,-369.5"/>
<text text-anchor="start" x="900.5" y="-387.5" font-family="Helvetica,sans-Serif" font-size="10.00">gromacs/analysisdata</text>
<text text-anchor="middle" x="948.5" y="-376.5" font-family="Helvetica,sans-Serif" font-size="10.00">/modules/histogram.h</text>
</a>
</g>
</g>
<!-- Node1&#45;&gt;Node24 -->
<g id="edge38" class="edge"><title>Node1&#45;&gt;Node24</title>
<path fill="none" stroke="midnightblue" d="M693.802,-436.477C739.551,-428.131 811.088,-414.811 882.134,-400.248"/>
<polygon fill="midnightblue" stroke="midnightblue" points="883.065,-403.63 892.153,-398.185 881.653,-396.773 883.065,-403.63"/>
</g>
<!-- Node25 -->
<g id="node25" class="node"><title>Node25</title>
<g id="a_node25"><a xlink:href="lifetime_8h.xhtml" target="_top" xlink:title="Declares gmx::AnalysisDataLifetimeModule. ">
<polygon fill="white" stroke="black" points="632.5,-369.5 632.5,-399.5 744.5,-399.5 744.5,-369.5 632.5,-369.5"/>
<text text-anchor="start" x="640.5" y="-387.5" font-family="Helvetica,sans-Serif" font-size="10.00">gromacs/analysisdata</text>
<text text-anchor="middle" x="688.5" y="-376.5" font-family="Helvetica,sans-Serif" font-size="10.00">/modules/lifetime.h</text>
</a>
</g>
</g>
<!-- Node1&#45;&gt;Node25 -->
<g id="edge43" class="edge"><title>Node1&#45;&gt;Node25</title>
<path fill="none" stroke="midnightblue" d="M652.518,-436.475C657.781,-429.019 665.663,-417.852 672.71,-407.869"/>
<polygon fill="midnightblue" stroke="midnightblue" points="675.694,-409.711 678.601,-399.523 669.975,-405.674 675.694,-409.711"/>
</g>
<!-- Node26 -->
<g id="node26" class="node"><title>Node26</title>
<g id="a_node26"><a xlink:href="plot_8h.xhtml" target="_top" xlink:title="Declares gmx::AnalysisDataPlotModule for plotting data (into a file). ">
<polygon fill="white" stroke="black" points="1046.5,-302.5 1046.5,-332.5 1158.5,-332.5 1158.5,-302.5 1046.5,-302.5"/>
<text text-anchor="start" x="1054.5" y="-320.5" font-family="Helvetica,sans-Serif" font-size="10.00">gromacs/analysisdata</text>
<text text-anchor="middle" x="1102.5" y="-309.5" font-family="Helvetica,sans-Serif" font-size="10.00">/modules/plot.h</text>
</a>
</g>
</g>
<!-- Node1&#45;&gt;Node26 -->
<g id="edge47" class="edge"><title>Node1&#45;&gt;Node26</title>
<path fill="none" stroke="midnightblue" d="M715.037,-441.58C806.213,-436.183 961.902,-423.771 1013.5,-400 1042.84,-386.483 1069.12,-359.685 1085.39,-340.506"/>
<polygon fill="midnightblue" stroke="midnightblue" points="1088.27,-342.506 1091.93,-332.561 1082.87,-338.057 1088.27,-342.506"/>
</g>
<!-- Node3 -->
<g id="node3" class="node"><title>Node3</title>
<g id="a_node3"><a xlink:href="abstractdata_8h.xhtml" target="_top" xlink:title="Declares gmx::AbstractAnalysisData. ">
<polygon fill="white" stroke="black" points="640.5,-235.5 640.5,-265.5 752.5,-265.5 752.5,-235.5 640.5,-235.5"/>
<text text-anchor="start" x="648.5" y="-253.5" font-family="Helvetica,sans-Serif" font-size="10.00">gromacs/analysisdata</text>
<text text-anchor="middle" x="696.5" y="-242.5" font-family="Helvetica,sans-Serif" font-size="10.00">/abstractdata.h</text>
</a>
</g>
</g>
<!-- Node2&#45;&gt;Node3 -->
<g id="edge2" class="edge"><title>Node2&#45;&gt;Node3</title>
<path fill="none" stroke="midnightblue" d="M583.746,-302.396C604.975,-292.814 633.251,-280.05 656.177,-269.702"/>
<polygon fill="midnightblue" stroke="midnightblue" points="657.641,-272.881 665.315,-265.577 654.761,-266.501 657.641,-272.881"/>
</g>
<!-- Node6 -->
<g id="node6" class="node"><title>Node6</title>
<g id="a_node6"><a xlink:href="real_8h.xhtml" target="_top" xlink:title="Declares real and related constants. ">
<polygon fill="white" stroke="black" points="531,-179.5 531,-198.5 638,-198.5 638,-179.5 531,-179.5"/>
<text text-anchor="middle" x="584.5" y="-186.5" font-family="Helvetica,sans-Serif" font-size="10.00">gromacs/utility/real.h</text>
</a>
</g>
</g>
<!-- Node2&#45;&gt;Node6 -->
<g id="edge6" class="edge"><title>Node2&#45;&gt;Node6</title>
<path fill="none" stroke="midnightblue" d="M556.047,-302.479C561.83,-279.616 573.295,-234.296 579.766,-208.713"/>
<polygon fill="midnightblue" stroke="midnightblue" points="583.217,-209.342 582.277,-198.789 576.431,-207.625 583.217,-209.342"/>
</g>
<!-- Node4 -->
<g id="node4" class="node"><title>Node4</title>
<polygon fill="white" stroke="#bfbfbf" points="1035.5,-123.5 1035.5,-142.5 1087.5,-142.5 1087.5,-123.5 1035.5,-123.5"/>
<text text-anchor="middle" x="1061.5" y="-130.5" font-family="Helvetica,sans-Serif" font-size="10.00">memory</text>
</g>
<!-- Node3&#45;&gt;Node4 -->
<g id="edge3" class="edge"><title>Node3&#45;&gt;Node4</title>
<path fill="none" stroke="midnightblue" d="M715.805,-235.256C738.666,-219.099 778.458,-193.164 816.5,-179 887.674,-152.501 976.492,-141.182 1025.25,-136.686"/>
<polygon fill="midnightblue" stroke="midnightblue" points="1025.66,-140.164 1035.32,-135.803 1025.05,-133.191 1025.66,-140.164"/>
</g>
<!-- Node5 -->
<g id="node5" class="node"><title>Node5</title>
<g id="a_node5"><a xlink:href="classhelpers_8h.xhtml" target="_top" xlink:title="Declares common utility classes and macros. ">
<polygon fill="white" stroke="black" points="825.5,-179.5 825.5,-198.5 971.5,-198.5 971.5,-179.5 825.5,-179.5"/>
<text text-anchor="middle" x="898.5" y="-186.5" font-family="Helvetica,sans-Serif" font-size="10.00">gromacs/utility/classhelpers.h</text>
</a>
</g>
</g>
<!-- Node3&#45;&gt;Node5 -->
<g id="edge4" class="edge"><title>Node3&#45;&gt;Node5</title>
<path fill="none" stroke="midnightblue" d="M744.115,-235.475C779.421,-225.075 826.94,-211.078 859.892,-201.372"/>
<polygon fill="midnightblue" stroke="midnightblue" points="861.018,-204.689 869.621,-198.506 859.04,-197.975 861.018,-204.689"/>
</g>
<!-- Node5&#45;&gt;Node4 -->
<g id="edge5" class="edge"><title>Node5&#45;&gt;Node4</title>
<path fill="none" stroke="midnightblue" d="M924.328,-179.444C951.749,-170.359 995.277,-155.939 1025.93,-145.783"/>
<polygon fill="midnightblue" stroke="midnightblue" points="1027.4,-148.984 1035.79,-142.516 1025.2,-142.339 1027.4,-148.984"/>
</g>
<!-- Node7&#45;&gt;Node3 -->
<g id="edge9" class="edge"><title>Node7&#45;&gt;Node3</title>
<path fill="none" stroke="midnightblue" d="M440.64,-304.804C493.933,-293.702 574.049,-277.011 630.403,-265.27"/>
<polygon fill="midnightblue" stroke="midnightblue" points="631.21,-268.677 640.286,-263.211 629.782,-261.825 631.21,-268.677"/>
</g>
<!-- Node8 -->
<g id="node8" class="node"><title>Node8</title>
<polygon fill="white" stroke="#bfbfbf" points="339.5,-123.5 339.5,-142.5 383.5,-142.5 383.5,-123.5 339.5,-123.5"/>
<text text-anchor="middle" x="361.5" y="-130.5" font-family="Helvetica,sans-Serif" font-size="10.00">vector</text>
</g>
<!-- Node7&#45;&gt;Node8 -->
<g id="edge8" class="edge"><title>Node7&#45;&gt;Node8</title>
<path fill="none" stroke="midnightblue" d="M382.733,-302.483C378.652,-270.097 368.562,-190.037 363.915,-153.159"/>
<polygon fill="midnightblue" stroke="midnightblue" points="367.334,-152.303 362.611,-142.819 360.389,-153.178 367.334,-152.303"/>
</g>
<!-- Node7&#45;&gt;Node9 -->
<g id="edge10" class="edge"><title>Node7&#45;&gt;Node9</title>
<path fill="none" stroke="midnightblue" d="M367.141,-302.396C356.239,-293.538 341.99,-281.96 329.837,-272.086"/>
<polygon fill="midnightblue" stroke="midnightblue" points="331.793,-269.166 321.825,-265.577 327.379,-274.599 331.793,-269.166"/>
</g>
<!-- Node15 -->
<g id="node15" class="node"><title>Node15</title>
<g id="a_node15"><a xlink:href="gmxassert_8h.xhtml" target="_top" xlink:title="Defines assert macros customized for Gromacs. ">
<polygon fill="white" stroke="black" points="412,-123.5 412,-142.5 549,-142.5 549,-123.5 412,-123.5"/>
<text text-anchor="middle" x="480.5" y="-130.5" font-family="Helvetica,sans-Serif" font-size="10.00">gromacs/utility/gmxassert.h</text>
</a>
</g>
</g>
<!-- Node7&#45;&gt;Node15 -->
<g id="edge26" class="edge"><title>Node7&#45;&gt;Node15</title>
<path fill="none" stroke="midnightblue" d="M391.874,-302.483C409.13,-269.676 452.121,-187.949 471.166,-151.745"/>
<polygon fill="midnightblue" stroke="midnightblue" points="474.303,-153.298 475.861,-142.819 468.108,-150.04 474.303,-153.298"/>
</g>
<!-- Node9&#45;&gt;Node6 -->
<g id="edge25" class="edge"><title>Node9&#45;&gt;Node6</title>
<path fill="none" stroke="midnightblue" d="M360.825,-237.531C411.517,-226.759 485.325,-211.075 534.103,-200.709"/>
<polygon fill="midnightblue" stroke="midnightblue" points="535.061,-204.084 544.115,-198.582 533.606,-197.237 535.061,-204.084"/>
</g>
<!-- Node9&#45;&gt;Node8 -->
<g id="edge11" class="edge"><title>Node9&#45;&gt;Node8</title>
<path fill="none" stroke="midnightblue" d="M311.9,-235.409C317.167,-225.313 324.368,-211.369 330.5,-199 338.299,-183.267 346.872,-165.232 353.022,-152.157"/>
<polygon fill="midnightblue" stroke="midnightblue" points="356.298,-153.413 357.373,-142.873 349.96,-150.442 356.298,-153.413"/>
</g>
<!-- Node10 -->
<g id="node10" class="node"><title>Node10</title>
<g id="a_node10"><a xlink:href="arrayref_8h.xhtml" target="_top" xlink:title="Declares gmx::ArrayRef and gmx::ConstArrayRef. ">
<polygon fill="white" stroke="black" points="66,-179.5 66,-198.5 191,-198.5 191,-179.5 66,-179.5"/>
<text text-anchor="middle" x="128.5" y="-186.5" font-family="Helvetica,sans-Serif" font-size="10.00">gromacs/utility/arrayref.h</text>
</a>
</g>
</g>
<!-- Node9&#45;&gt;Node10 -->
<g id="edge12" class="edge"><title>Node9&#45;&gt;Node10</title>
<path fill="none" stroke="midnightblue" d="M262.79,-235.399C232.511,-225.163 192.009,-211.47 163.428,-201.808"/>
<polygon fill="midnightblue" stroke="midnightblue" points="164.447,-198.458 153.853,-198.571 162.205,-205.089 164.447,-198.458"/>
</g>
<!-- Node9&#45;&gt;Node15 -->
<g id="edge24" class="edge"><title>Node9&#45;&gt;Node15</title>
<path fill="none" stroke="midnightblue" d="M326.081,-235.337C359.81,-213.203 424.662,-170.644 458.591,-148.378"/>
<polygon fill="midnightblue" stroke="midnightblue" points="460.849,-151.082 467.289,-142.669 457.009,-145.23 460.849,-151.082"/>
</g>
<!-- Node20 -->
<g id="node20" class="node"><title>Node20</title>
<g id="a_node20"><a xlink:href="flags_8h.xhtml" target="_top" xlink:title="Declares gmx::FlagsTemplate. ">
<polygon fill="white" stroke="black" points="209,-179.5 209,-198.5 322,-198.5 322,-179.5 209,-179.5"/>
<text text-anchor="middle" x="265.5" y="-186.5" font-family="Helvetica,sans-Serif" font-size="10.00">gromacs/utility/flags.h</text>
</a>
</g>
</g>
<!-- Node9&#45;&gt;Node20 -->
<g id="edge23" class="edge"><title>Node9&#45;&gt;Node20</title>
<path fill="none" stroke="midnightblue" d="M295.258,-235.399C289.707,-226.932 282.607,-216.099 276.734,-207.139"/>
<polygon fill="midnightblue" stroke="midnightblue" points="279.584,-205.103 271.175,-198.658 273.73,-208.94 279.584,-205.103"/>
</g>
<!-- Node10&#45;&gt;Node8 -->
<g id="edge17" class="edge"><title>Node10&#45;&gt;Node8</title>
<path fill="none" stroke="midnightblue" d="M165.42,-179.444C210.704,-168.948 286.717,-151.332 329.585,-141.397"/>
<polygon fill="midnightblue" stroke="midnightblue" points="330.525,-144.772 339.477,-139.104 328.945,-137.952 330.525,-144.772"/>
</g>
<!-- Node11 -->
<g id="node11" class="node"><title>Node11</title>
<polygon fill="white" stroke="#bfbfbf" points="201,-123.5 201,-142.5 250,-142.5 250,-123.5 201,-123.5"/>
<text text-anchor="middle" x="225.5" y="-130.5" font-family="Helvetica,sans-Serif" font-size="10.00">cstddef</text>
</g>
<!-- Node10&#45;&gt;Node11 -->
<g id="edge13" class="edge"><title>Node10&#45;&gt;Node11</title>
<path fill="none" stroke="midnightblue" d="M144.085,-179.324C159.499,-170.743 183.312,-157.486 201.21,-147.522"/>
<polygon fill="midnightblue" stroke="midnightblue" points="202.919,-150.577 209.954,-142.655 199.514,-144.461 202.919,-150.577"/>
</g>
<!-- Node12 -->
<g id="node12" class="node"><title>Node12</title>
<polygon fill="white" stroke="#bfbfbf" points="0,-123.5 0,-142.5 47,-142.5 47,-123.5 0,-123.5"/>
<text text-anchor="middle" x="23.5" y="-130.5" font-family="Helvetica,sans-Serif" font-size="10.00">iterator</text>
</g>
<!-- Node10&#45;&gt;Node12 -->
<g id="edge14" class="edge"><title>Node10&#45;&gt;Node12</title>
<path fill="none" stroke="midnightblue" d="M111.63,-179.324C94.7912,-170.664 68.6935,-157.242 49.262,-147.249"/>
<polygon fill="midnightblue" stroke="midnightblue" points="50.8218,-144.116 40.3282,-142.655 47.6204,-150.341 50.8218,-144.116"/>
</g>
<!-- Node13 -->
<g id="node13" class="node"><title>Node13</title>
<polygon fill="white" stroke="#bfbfbf" points="65,-123.5 65,-142.5 124,-142.5 124,-123.5 65,-123.5"/>
<text text-anchor="middle" x="94.5" y="-130.5" font-family="Helvetica,sans-Serif" font-size="10.00">stdexcept</text>
</g>
<!-- Node10&#45;&gt;Node13 -->
<g id="edge15" class="edge"><title>Node10&#45;&gt;Node13</title>
<path fill="none" stroke="midnightblue" d="M122.886,-179.083C118.133,-171.534 111.182,-160.495 105.348,-151.23"/>
<polygon fill="midnightblue" stroke="midnightblue" points="108.3,-149.349 100.01,-142.751 102.376,-153.078 108.3,-149.349"/>
</g>
<!-- Node14 -->
<g id="node14" class="node"><title>Node14</title>
<polygon fill="white" stroke="#bfbfbf" points="142.5,-123.5 142.5,-142.5 182.5,-142.5 182.5,-123.5 142.5,-123.5"/>
<text text-anchor="middle" x="162.5" y="-130.5" font-family="Helvetica,sans-Serif" font-size="10.00">utility</text>
</g>
<!-- Node10&#45;&gt;Node14 -->
<g id="edge16" class="edge"><title>Node10&#45;&gt;Node14</title>
<path fill="none" stroke="midnightblue" d="M134.114,-179.083C138.867,-171.534 145.818,-160.495 151.652,-151.23"/>
<polygon fill="midnightblue" stroke="midnightblue" points="154.624,-153.078 156.99,-142.751 148.7,-149.349 154.624,-153.078"/>
</g>
<!-- Node10&#45;&gt;Node15 -->
<g id="edge18" class="edge"><title>Node10&#45;&gt;Node15</title>
<path fill="none" stroke="midnightblue" d="M184.275,-179.444C246.968,-169.826 348.646,-154.228 415.048,-144.041"/>
<polygon fill="midnightblue" stroke="midnightblue" points="415.632,-147.492 424.986,-142.516 414.57,-140.573 415.632,-147.492"/>
</g>
<!-- Node16 -->
<g id="node16" class="node"><title>Node16</title>
<g id="a_node16"><a xlink:href="basedefinitions_8h.xhtml" target="_top" xlink:title="Basic types and macros used throughout GROMACS. ">
<polygon fill="white" stroke="black" points="326,-62 326,-81 483,-81 483,-62 326,-62"/>
<text text-anchor="middle" x="404.5" y="-69" font-family="Helvetica,sans-Serif" font-size="10.00">gromacs/utility/basedefinitions.h</text>
</a>
</g>
</g>
<!-- Node15&#45;&gt;Node16 -->
<g id="edge19" class="edge"><title>Node15&#45;&gt;Node16</title>
<path fill="none" stroke="midnightblue" d="M469.611,-123.475C457.534,-114.02 437.833,-98.5961 423.26,-87.1871"/>
<polygon fill="midnightblue" stroke="midnightblue" points="425.4,-84.4177 415.369,-81.0091 421.085,-89.9295 425.4,-84.4177"/>
</g>
<!-- Node19 -->
<g id="node19" class="node"><title>Node19</title>
<g id="a_node19"><a xlink:href="current__function_8h.xhtml" target="_top" xlink:title="Declares GMX_CURRENT_FUNCTION for getting the current function name. ">
<polygon fill="white" stroke="black" points="501,-56.5 501,-86.5 614,-86.5 614,-56.5 501,-56.5"/>
<text text-anchor="start" x="509" y="-74.5" font-family="Helvetica,sans-Serif" font-size="10.00">gromacs/utility/current</text>
<text text-anchor="middle" x="557.5" y="-63.5" font-family="Helvetica,sans-Serif" font-size="10.00">_function.h</text>
</a>
</g>
</g>
<!-- Node15&#45;&gt;Node19 -->
<g id="edge22" class="edge"><title>Node15&#45;&gt;Node19</title>
<path fill="none" stroke="midnightblue" d="M491.532,-123.475C501.863,-115.492 517.7,-103.254 531.268,-92.7703"/>
<polygon fill="midnightblue" stroke="midnightblue" points="533.58,-95.407 539.353,-86.523 529.3,-89.868 533.58,-95.407"/>
</g>
<!-- Node17 -->
<g id="node17" class="node"><title>Node17</title>
<polygon fill="white" stroke="#bfbfbf" points="344,-0.5 344,-19.5 393,-19.5 393,-0.5 344,-0.5"/>
<text text-anchor="middle" x="368.5" y="-7.5" font-family="Helvetica,sans-Serif" font-size="10.00">stdint.h</text>
</g>
<!-- Node16&#45;&gt;Node17 -->
<g id="edge20" class="edge"><title>Node16&#45;&gt;Node17</title>
<path fill="none" stroke="midnightblue" d="M399.342,-61.9751C394.049,-53.2268 385.665,-39.3691 378.973,-28.3093"/>
<polygon fill="midnightblue" stroke="midnightblue" points="381.82,-26.2531 373.648,-19.5091 375.83,-29.8768 381.82,-26.2531"/>
</g>
<!-- Node18 -->
<g id="node18" class="node"><title>Node18</title>
<polygon fill="white" stroke="#bfbfbf" points="411,-0.5 411,-19.5 470,-19.5 470,-0.5 411,-0.5"/>
<text text-anchor="middle" x="440.5" y="-7.5" font-family="Helvetica,sans-Serif" font-size="10.00">inttypes.h</text>
</g>
<!-- Node16&#45;&gt;Node18 -->
<g id="edge21" class="edge"><title>Node16&#45;&gt;Node18</title>
<path fill="none" stroke="midnightblue" d="M409.658,-61.9751C414.951,-53.2268 423.335,-39.3691 430.027,-28.3093"/>
<polygon fill="midnightblue" stroke="midnightblue" points="433.17,-29.8768 435.352,-19.5091 427.18,-26.2531 433.17,-29.8768"/>
</g>
<!-- Node21&#45;&gt;Node3 -->
<g id="edge30" class="edge"><title>Node21&#45;&gt;Node3</title>
<path fill="none" stroke="midnightblue" d="M810.152,-369.328C799.751,-352.309 780.853,-323.387 760.5,-302 749.979,-290.945 736.967,-280.243 725.428,-271.559"/>
<polygon fill="midnightblue" stroke="midnightblue" points="727.474,-268.718 717.343,-265.615 723.327,-274.358 727.474,-268.718"/>
</g>
<!-- Node21&#45;&gt;Node5 -->
<g id="edge33" class="edge"><title>Node21&#45;&gt;Node5</title>
<path fill="none" stroke="midnightblue" d="M871.365,-369.421C891.014,-361.687 911.829,-350.079 925.5,-333 953.036,-298.601 956.658,-275.993 940.5,-235 935.986,-223.548 927.031,-213.291 918.545,-205.472"/>
<polygon fill="midnightblue" stroke="midnightblue" points="920.585,-202.611 910.714,-198.764 916.031,-207.927 920.585,-202.611"/>
</g>
<!-- Node21&#45;&gt;Node7 -->
<g id="edge31" class="edge"><title>Node21&#45;&gt;Node7</title>
<path fill="none" stroke="midnightblue" d="M762.198,-370.58C759.261,-370.019 756.349,-369.488 753.5,-369 621.573,-346.401 586.595,-354.594 454.5,-333 453.225,-332.792 451.939,-332.576 450.643,-332.355"/>
<polygon fill="midnightblue" stroke="midnightblue" points="451.047,-328.871 440.586,-330.552 449.812,-335.762 451.047,-328.871"/>
</g>
<!-- Node21&#45;&gt;Node8 -->
<g id="edge29" class="edge"><title>Node21&#45;&gt;Node8</title>
<path fill="none" stroke="midnightblue" d="M762.189,-370.631C759.255,-370.057 756.345,-369.509 753.5,-369 636.064,-347.994 587.911,-397.422 487.5,-333 452.217,-310.363 392.63,-196.341 370.3,-151.833"/>
<polygon fill="midnightblue" stroke="midnightblue" points="373.379,-150.165 365.789,-142.774 367.113,-153.286 373.379,-150.165"/>
</g>
<!-- Node22 -->
<g id="node22" class="node"><title>Node22</title>
<g id="a_node22"><a xlink:href="datamodule_8h.xhtml" target="_top" xlink:title="Declares gmx::IAnalysisDataModule and related convenience classes. ">
<polygon fill="white" stroke="black" points="819.5,-235.5 819.5,-265.5 931.5,-265.5 931.5,-235.5 819.5,-235.5"/>
<text text-anchor="start" x="827.5" y="-253.5" font-family="Helvetica,sans-Serif" font-size="10.00">gromacs/analysisdata</text>
<text text-anchor="middle" x="875.5" y="-242.5" font-family="Helvetica,sans-Serif" font-size="10.00">/datamodule.h</text>
</a>
</g>
</g>
<!-- Node21&#45;&gt;Node22 -->
<g id="edge32" class="edge"><title>Node21&#45;&gt;Node22</title>
<path fill="none" stroke="midnightblue" d="M863.685,-369.339C880.851,-361.509 898.632,-349.853 908.5,-333 919.601,-314.042 907.792,-290.643 895.323,-273.787"/>
<polygon fill="midnightblue" stroke="midnightblue" points="897.813,-271.293 888.86,-265.627 892.325,-275.639 897.813,-271.293"/>
</g>
<!-- Node23&#45;&gt;Node3 -->
<g id="edge35" class="edge"><title>Node23&#45;&gt;Node3</title>
<path fill="none" stroke="midnightblue" d="M691.019,-302.396C691.863,-294.56 692.936,-284.596 693.908,-275.565"/>
<polygon fill="midnightblue" stroke="midnightblue" points="697.393,-275.894 694.984,-265.577 690.433,-275.144 697.393,-275.894"/>
</g>
<!-- Node23&#45;&gt;Node6 -->
<g id="edge37" class="edge"><title>Node23&#45;&gt;Node6</title>
<path fill="none" stroke="midnightblue" d="M670.429,-302.315C658.43,-292.833 643.082,-279.636 631.5,-266 616.012,-247.765 602.128,-223.919 593.536,-207.84"/>
<polygon fill="midnightblue" stroke="midnightblue" points="596.412,-205.787 588.69,-198.533 590.203,-209.019 596.412,-205.787"/>
</g>
<!-- Node23&#45;&gt;Node22 -->
<g id="edge36" class="edge"><title>Node23&#45;&gt;Node22</title>
<path fill="none" stroke="midnightblue" d="M729.859,-302.396C758.011,-292.558 795.758,-279.367 825.769,-268.879"/>
<polygon fill="midnightblue" stroke="midnightblue" points="826.934,-272.18 835.22,-265.577 824.625,-265.571 826.934,-272.18"/>
</g>
<!-- Node24&#45;&gt;Node3 -->
<g id="edge40" class="edge"><title>Node24&#45;&gt;Node3</title>
<path fill="none" stroke="midnightblue" d="M921.532,-369.374C875.871,-345.456 783.336,-296.986 732.3,-270.253"/>
<polygon fill="midnightblue" stroke="midnightblue" points="733.757,-267.064 723.275,-265.525 730.509,-273.265 733.757,-267.064"/>
</g>
<!-- Node24&#45;&gt;Node4 -->
<g id="edge39" class="edge"><title>Node24&#45;&gt;Node4</title>
<path fill="none" stroke="midnightblue" d="M1004.75,-373.813C1096.71,-356.629 1272.24,-317.694 1304.5,-266 1355.53,-184.243 1177.12,-149.541 1097.72,-138.368"/>
<polygon fill="midnightblue" stroke="midnightblue" points="1098.03,-134.879 1087.65,-137.004 1097.09,-141.815 1098.03,-134.879"/>
</g>
<!-- Node24&#45;&gt;Node7 -->
<g id="edge41" class="edge"><title>Node24&#45;&gt;Node7</title>
<path fill="none" stroke="midnightblue" d="M892.214,-370.478C889.274,-369.944 886.356,-369.446 883.5,-369 708.895,-341.705 663.053,-353.324 487.5,-333 475.588,-331.621 462.925,-329.982 450.702,-328.31"/>
<polygon fill="midnightblue" stroke="midnightblue" points="450.951,-324.811 440.565,-326.903 449.989,-331.745 450.951,-324.811"/>
</g>
<!-- Node24&#45;&gt;Node22 -->
<g id="edge42" class="edge"><title>Node24&#45;&gt;Node22</title>
<path fill="none" stroke="midnightblue" d="M946.718,-369.397C944.099,-352.448 938.086,-323.593 925.5,-302 919.157,-291.118 909.921,-280.883 901.108,-272.511"/>
<polygon fill="midnightblue" stroke="midnightblue" points="903.315,-269.788 893.556,-265.663 898.613,-274.973 903.315,-269.788"/>
</g>
<!-- Node25&#45;&gt;Node5 -->
<g id="edge46" class="edge"><title>Node25&#45;&gt;Node5</title>
<path fill="none" stroke="midnightblue" d="M714.885,-369.313C729.68,-360.376 747.68,-347.751 760.5,-333 792.575,-296.093 775.941,-269.591 810.5,-235 825.031,-220.456 845.236,-209.669 862.621,-202.308"/>
<polygon fill="midnightblue" stroke="midnightblue" points="863.959,-205.542 871.935,-198.569 861.351,-199.046 863.959,-205.542"/>
</g>
<!-- Node25&#45;&gt;Node7 -->
<g id="edge44" class="edge"><title>Node25&#45;&gt;Node7</title>
<path fill="none" stroke="midnightblue" d="M632.387,-371.502C580.947,-360.503 504.742,-344.21 450.42,-332.595"/>
<polygon fill="midnightblue" stroke="midnightblue" points="451.053,-329.151 440.542,-330.483 449.589,-335.996 451.053,-329.151"/>
</g>
<!-- Node25&#45;&gt;Node22 -->
<g id="edge45" class="edge"><title>Node25&#45;&gt;Node22</title>
<path fill="none" stroke="midnightblue" d="M726.031,-369.357C747.126,-360.514 773.378,-347.969 794.5,-333 818.558,-315.95 841.838,-291.419 857.218,-273.729"/>
<polygon fill="midnightblue" stroke="midnightblue" points="860.276,-275.537 864.103,-265.658 854.95,-270.995 860.276,-275.537"/>
</g>
<!-- Node26&#45;&gt;Node4 -->
<g id="edge48" class="edge"><title>Node26&#45;&gt;Node4</title>
<path fill="none" stroke="midnightblue" d="M1158.6,-302.389C1177.1,-294.781 1195.69,-283.268 1206.5,-266 1227.02,-233.227 1229.43,-210.131 1206.5,-179 1181.71,-145.345 1131.98,-136.118 1097.73,-133.97"/>
<polygon fill="midnightblue" stroke="midnightblue" points="1097.79,-130.469 1087.65,-133.511 1097.48,-137.462 1097.79,-130.469"/>
</g>
<!-- Node26&#45;&gt;Node5 -->
<g id="edge55" class="edge"><title>Node26&#45;&gt;Node5</title>
<path fill="none" stroke="midnightblue" d="M1076.91,-302.307C1059.6,-292.508 1036.37,-278.956 1016.5,-266 996.765,-253.132 993.174,-247.961 973.5,-235 956.857,-224.036 937.565,-212.486 922.716,-203.832"/>
<polygon fill="midnightblue" stroke="midnightblue" points="924.08,-200.578 913.671,-198.6 920.574,-206.637 924.08,-200.578"/>
</g>
<!-- Node26&#45;&gt;Node22 -->
<g id="edge50" class="edge"><title>Node26&#45;&gt;Node22</title>
<path fill="none" stroke="midnightblue" d="M1053.52,-302.476C1018.59,-292.472 971.439,-278.971 934.439,-268.377"/>
<polygon fill="midnightblue" stroke="midnightblue" points="935.357,-264.999 924.78,-265.611 933.43,-271.729 935.357,-264.999"/>
</g>
<!-- Node27 -->
<g id="node27" class="node"><title>Node27</title>
<polygon fill="white" stroke="#bfbfbf" points="1254,-241 1254,-260 1295,-260 1295,-241 1254,-241"/>
<text text-anchor="middle" x="1274.5" y="-248" font-family="Helvetica,sans-Serif" font-size="10.00">string</text>
</g>
<!-- Node26&#45;&gt;Node27 -->
<g id="edge49" class="edge"><title>Node26&#45;&gt;Node27</title>
<path fill="none" stroke="midnightblue" d="M1141.93,-302.435C1169.39,-292.524 1206.81,-278.793 1239.5,-266 1241.14,-265.357 1242.82,-264.69 1244.52,-264.011"/>
<polygon fill="midnightblue" stroke="midnightblue" points="1246.26,-267.084 1254.2,-260.071 1243.62,-260.601 1246.26,-267.084"/>
</g>
<!-- Node28 -->
<g id="node28" class="node"><title>Node28</title>
<g id="a_node28"><a xlink:href="timeunitmanager_8h.xhtml" target="_top" xlink:title="Declares gmx::TimeUnitManager. ">
<polygon fill="white" stroke="black" points="1025.5,-241 1025.5,-260 1197.5,-260 1197.5,-241 1025.5,-241"/>
<text text-anchor="middle" x="1111.5" y="-248" font-family="Helvetica,sans-Serif" font-size="10.00">gromacs/options/timeunitmanager.h</text>
</a>
</g>
</g>
<!-- Node26&#45;&gt;Node28 -->
<g id="edge51" class="edge"><title>Node26&#45;&gt;Node28</title>
<path fill="none" stroke="midnightblue" d="M1104.45,-302.396C1105.76,-292.963 1107.49,-280.448 1108.91,-270.189"/>
<polygon fill="midnightblue" stroke="midnightblue" points="1112.39,-270.58 1110.3,-260.195 1105.46,-269.62 1112.39,-270.58"/>
</g>
<!-- Node28&#45;&gt;Node5 -->
<g id="edge53" class="edge"><title>Node28&#45;&gt;Node5</title>
<path fill="none" stroke="midnightblue" d="M1080.98,-240.975C1043.58,-230.526 980.073,-212.787 938.713,-201.233"/>
<polygon fill="midnightblue" stroke="midnightblue" points="939.534,-197.829 928.961,-198.509 937.651,-204.571 939.534,-197.829"/>
</g>
<!-- Node28&#45;&gt;Node15 -->
<g id="edge54" class="edge"><title>Node28&#45;&gt;Node15</title>
<path fill="none" stroke="midnightblue" d="M1095.88,-240.989C1061.81,-222.436 983.592,-179.929 980.5,-179 903.851,-155.982 679.862,-142.831 559.374,-137.236"/>
<polygon fill="midnightblue" stroke="midnightblue" points="559.258,-133.727 549.109,-136.766 558.938,-140.72 559.258,-133.727"/>
</g>
<!-- Node29 -->
<g id="node29" class="node"><title>Node29</title>
<g id="a_node29"><a xlink:href="ioptionsbehavior_8h.xhtml" target="_top" xlink:title="Declares gmx::IOptionsBehavior. ">
<polygon fill="white" stroke="black" points="1027.5,-179.5 1027.5,-198.5 1197.5,-198.5 1197.5,-179.5 1027.5,-179.5"/>
<text text-anchor="middle" x="1112.5" y="-186.5" font-family="Helvetica,sans-Serif" font-size="10.00">gromacs/options/ioptionsbehavior.h</text>
</a>
</g>
</g>
<!-- Node28&#45;&gt;Node29 -->
<g id="edge52" class="edge"><title>Node28&#45;&gt;Node29</title>
<path fill="none" stroke="midnightblue" d="M1111.64,-240.975C1111.78,-232.58 1112,-219.481 1112.19,-208.663"/>
<polygon fill="midnightblue" stroke="midnightblue" points="1115.69,-208.567 1112.36,-198.509 1108.69,-208.449 1115.69,-208.567"/>
</g>
</g>
</svg>
