<?xml version="1.0" encoding="UTF-8" standalone="no"?>
<!DOCTYPE svg PUBLIC "-//W3C//DTD SVG 1.1//EN"
 "http://www.w3.org/Graphics/SVG/1.1/DTD/svg11.dtd">
<!-- Generated by graphviz version 2.38.0 (20140413.2041)
 -->
<!-- Title: src/gromacs/utility/arrayref.h Pages: 1 -->
<svg width="1494pt" height="419pt"
 viewBox="0.00 0.00 1494.00 419.00" xmlns="http://www.w3.org/2000/svg" xmlns:xlink="http://www.w3.org/1999/xlink">
<g id="graph0" class="graph" transform="scale(1 1) rotate(0) translate(4 415)">
<title>src/gromacs/utility/arrayref.h</title>
<polygon fill="white" stroke="none" points="-4,4 -4,-415 1490,-415 1490,4 -4,4"/>
<!-- Node1 -->
<g id="node1" class="node"><title>Node1</title>
<polygon fill="#bfbfbf" stroke="black" points="910.5,-380.5 910.5,-410.5 1007.5,-410.5 1007.5,-380.5 910.5,-380.5"/>
<text text-anchor="start" x="918.5" y="-398.5" font-family="Helvetica,sans-Serif" font-size="10.00">src/gromacs/utility</text>
<text text-anchor="middle" x="959" y="-387.5" font-family="Helvetica,sans-Serif" font-size="10.00">/arrayref.h</text>
</g>
<!-- Node2 -->
<g id="node2" class="node"><title>Node2</title>
<g id="a_node2"><a xlink:href="dataframe_8h.xhtml" target="_top" xlink:title="Declares classes for accessing data frame information. ">
<polygon fill="white" stroke="black" points="468,-313.5 468,-343.5 596,-343.5 596,-313.5 468,-313.5"/>
<text text-anchor="start" x="476" y="-331.5" font-family="Helvetica,sans-Serif" font-size="10.00">src/gromacs/analysisdata</text>
<text text-anchor="middle" x="532" y="-320.5" font-family="Helvetica,sans-Serif" font-size="10.00">/dataframe.h</text>
</a>
</g>
</g>
<!-- Node1&#45;&gt;Node2 -->
<g id="edge1" class="edge"><title>Node1&#45;&gt;Node2</title>
<path fill="none" stroke="midnightblue" d="M900.076,-385.53C820.309,-373.388 678.497,-351.801 596.131,-339.262"/>
<polygon fill="midnightblue" stroke="midnightblue" points="900.021,-389.062 910.433,-387.107 901.074,-382.142 900.021,-389.062"/>
</g>
<!-- Node7 -->
<g id="node7" class="node"><title>Node7</title>
<g id="a_node7"><a xlink:href="trajectoryanalysis_8h.xhtml" target="_top" xlink:title="Public API convenience header for trajectory analysis framework. ">
<polygon fill="white" stroke="black" points="1012,-56.5 1012,-75.5 1170,-75.5 1170,-56.5 1012,-56.5"/>
<text text-anchor="middle" x="1091" y="-63.5" font-family="Helvetica,sans-Serif" font-size="10.00">src/gromacs/trajectoryanalysis.h</text>
</a>
</g>
</g>
<!-- Node1&#45;&gt;Node7 -->
<g id="edge31" class="edge"><title>Node1&#45;&gt;Node7</title>
<path fill="none" stroke="midnightblue" d="M900.574,-382.001C878.372,-374.47 854.679,-362.586 839,-344 815.018,-315.571 820,-299.694 820,-262.5 820,-262.5 820,-262.5 820,-193.5 820,-108.088 931.898,-80.2113 1011.89,-71.195"/>
<polygon fill="midnightblue" stroke="midnightblue" points="899.713,-385.399 910.302,-385.067 901.817,-378.723 899.713,-385.399"/>
</g>
<!-- Node13 -->
<g id="node13" class="node"><title>Node13</title>
<g id="a_node13"><a xlink:href="cmdlinetest_8h.xhtml" target="_top" xlink:title="Declares utilities testing command&#45;line programs. ">
<polygon fill="white" stroke="black" points="848.5,-319 848.5,-338 977.5,-338 977.5,-319 848.5,-319"/>
<text text-anchor="middle" x="913" y="-326" font-family="Helvetica,sans-Serif" font-size="10.00">src/testutils/cmdlinetest.h</text>
</a>
</g>
</g>
<!-- Node1&#45;&gt;Node13 -->
<g id="edge16" class="edge"><title>Node1&#45;&gt;Node13</title>
<path fill="none" stroke="midnightblue" d="M943.059,-371.974C934.82,-360.332 925.242,-346.799 919.153,-338.195"/>
<polygon fill="midnightblue" stroke="midnightblue" points="940.385,-374.255 949.019,-380.396 946.099,-370.211 940.385,-374.255"/>
</g>
<!-- Node14 -->
<g id="node14" class="node"><title>Node14</title>
<g id="a_node14"><a xlink:href="nbsearch_8h.xhtml" target="_top" xlink:title="API for neighborhood searching for analysis. ">
<polygon fill="white" stroke="black" points="958.5,-112.5 958.5,-142.5 1071.5,-142.5 1071.5,-112.5 958.5,-112.5"/>
<text text-anchor="start" x="966.5" y="-130.5" font-family="Helvetica,sans-Serif" font-size="10.00">src/gromacs/selection</text>
<text text-anchor="middle" x="1015" y="-119.5" font-family="Helvetica,sans-Serif" font-size="10.00">/nbsearch.h</text>
</a>
</g>
</g>
<!-- Node1&#45;&gt;Node14 -->
<g id="edge17" class="edge"><title>Node1&#45;&gt;Node14</title>
<path fill="none" stroke="midnightblue" d="M974.205,-371.406C979.028,-363.079 983.905,-353.41 987,-344 1011.04,-270.888 1014.55,-177.454 1014.98,-142.513"/>
<polygon fill="midnightblue" stroke="midnightblue" points="971.092,-369.79 968.882,-380.151 977.071,-373.43 971.092,-369.79"/>
</g>
<!-- Node15 -->
<g id="node15" class="node"><title>Node15</title>
<g id="a_node15"><a xlink:href="selection_2selection_8h.xhtml" target="_top" xlink:title="Declares gmx::Selection and supporting classes. ">
<polygon fill="white" stroke="black" points="1119.5,-246.5 1119.5,-276.5 1232.5,-276.5 1232.5,-246.5 1119.5,-246.5"/>
<text text-anchor="start" x="1127.5" y="-264.5" font-family="Helvetica,sans-Serif" font-size="10.00">src/gromacs/selection</text>
<text text-anchor="middle" x="1176" y="-253.5" font-family="Helvetica,sans-Serif" font-size="10.00">/selection.h</text>
</a>
</g>
</g>
<!-- Node1&#45;&gt;Node15 -->
<g id="edge19" class="edge"><title>Node1&#45;&gt;Node15</title>
<path fill="none" stroke="midnightblue" d="M983.713,-373.993C1009.05,-353.175 1046.96,-322.671 1063,-313 1087.02,-298.523 1115.91,-285.683 1138.47,-276.573"/>
<polygon fill="midnightblue" stroke="midnightblue" points="981.462,-371.312 975.971,-380.373 985.914,-376.714 981.462,-371.312"/>
</g>
<!-- Node21 -->
<g id="node21" class="node"><title>Node21</title>
<g id="a_node21"><a xlink:href="interactivetest_8h.xhtml" target="_top" xlink:title="Provides helper classes for testing interactive prompts. ">
<polygon fill="white" stroke="black" points="1072,-319 1072,-338 1212,-338 1212,-319 1072,-319"/>
<text text-anchor="middle" x="1142" y="-326" font-family="Helvetica,sans-Serif" font-size="10.00">src/testutils/interactivetest.h</text>
</a>
</g>
</g>
<!-- Node1&#45;&gt;Node21 -->
<g id="edge30" class="edge"><title>Node1&#45;&gt;Node21</title>
<path fill="none" stroke="midnightblue" d="M1008.42,-376.946C1043.96,-364.321 1090.34,-347.85 1118.05,-338.007"/>
<polygon fill="midnightblue" stroke="midnightblue" points="1006.96,-373.751 998.708,-380.396 1009.3,-380.347 1006.96,-373.751"/>
</g>
<!-- Node3 -->
<g id="node3" class="node"><title>Node3</title>
<g id="a_node3"><a xlink:href="datastorage_8h.xhtml" target="_top" xlink:title="Declares gmx::AnalysisDataStorage. ">
<polygon fill="white" stroke="black" points="111,-246.5 111,-276.5 239,-276.5 239,-246.5 111,-246.5"/>
<text text-anchor="start" x="119" y="-264.5" font-family="Helvetica,sans-Serif" font-size="10.00">src/gromacs/analysisdata</text>
<text text-anchor="middle" x="175" y="-253.5" font-family="Helvetica,sans-Serif" font-size="10.00">/datastorage.h</text>
</a>
</g>
</g>
<!-- Node2&#45;&gt;Node3 -->
<g id="edge2" class="edge"><title>Node2&#45;&gt;Node3</title>
<path fill="none" stroke="midnightblue" d="M457.86,-314.737C400.511,-304.762 319.15,-290.391 248,-277 245.079,-276.45 242.094,-275.882 239.08,-275.304"/>
<polygon fill="midnightblue" stroke="midnightblue" points="457.471,-318.222 467.923,-316.485 458.67,-311.325 457.471,-318.222"/>
</g>
<!-- Node4 -->
<g id="node4" class="node"><title>Node4</title>
<g id="a_node4"><a xlink:href="arraydata_8h.xhtml" target="_top" xlink:title="Declares gmx::AbstractAnalysisArrayData and gmx::AnalysisArrayData. ">
<polygon fill="white" stroke="black" points="257,-246.5 257,-276.5 385,-276.5 385,-246.5 257,-246.5"/>
<text text-anchor="start" x="265" y="-264.5" font-family="Helvetica,sans-Serif" font-size="10.00">src/gromacs/analysisdata</text>
<text text-anchor="middle" x="321" y="-253.5" font-family="Helvetica,sans-Serif" font-size="10.00">/arraydata.h</text>
</a>
</g>
</g>
<!-- Node2&#45;&gt;Node4 -->
<g id="edge3" class="edge"><title>Node2&#45;&gt;Node4</title>
<path fill="none" stroke="midnightblue" d="M476.634,-310.444C442.431,-299.908 399.068,-286.549 366.806,-276.611"/>
<polygon fill="midnightblue" stroke="midnightblue" points="475.889,-313.877 486.476,-313.476 477.95,-307.187 475.889,-313.877"/>
</g>
<!-- Node6 -->
<g id="node6" class="node"><title>Node6</title>
<g id="a_node6"><a xlink:href="analysisdata_8h.xhtml" target="_top" xlink:title="Public API convenience header for analysis data handling. ">
<polygon fill="white" stroke="black" points="252.5,-118 252.5,-137 389.5,-137 389.5,-118 252.5,-118"/>
<text text-anchor="middle" x="321" y="-125" font-family="Helvetica,sans-Serif" font-size="10.00">src/gromacs/analysisdata.h</text>
</a>
</g>
</g>
<!-- Node2&#45;&gt;Node6 -->
<g id="edge15" class="edge"><title>Node2&#45;&gt;Node6</title>
<path fill="none" stroke="midnightblue" d="M518.799,-304.229C514.203,-295.768 509.159,-286.059 505,-277 485.507,-234.546 500.636,-211.418 467,-179 443.633,-156.479 409.738,-143.966 380.488,-137.031"/>
<polygon fill="midnightblue" stroke="midnightblue" points="515.828,-306.09 523.728,-313.15 521.955,-302.705 515.828,-306.09"/>
</g>
<!-- Node11 -->
<g id="node11" class="node"><title>Node11</title>
<g id="a_node11"><a xlink:href="datatest_8h.xhtml" target="_top" xlink:title="Helper classes for testing classes that derive from AbstractAnalysisData. ">
<polygon fill="white" stroke="black" points="514,-246.5 514,-276.5 642,-276.5 642,-246.5 514,-246.5"/>
<text text-anchor="start" x="522" y="-264.5" font-family="Helvetica,sans-Serif" font-size="10.00">src/gromacs/analysisdata</text>
<text text-anchor="middle" x="578" y="-253.5" font-family="Helvetica,sans-Serif" font-size="10.00">/tests/datatest.h</text>
</a>
</g>
</g>
<!-- Node2&#45;&gt;Node11 -->
<g id="edge13" class="edge"><title>Node2&#45;&gt;Node11</title>
<path fill="none" stroke="midnightblue" d="M547.812,-305.157C554.52,-295.679 562.135,-284.919 568.038,-276.577"/>
<polygon fill="midnightblue" stroke="midnightblue" points="544.901,-303.211 541.981,-313.396 550.615,-307.255 544.901,-303.211"/>
</g>
<!-- Node12 -->
<g id="node12" class="node"><title>Node12</title>
<g id="a_node12"><a xlink:href="mock__datamodule_8h.xhtml" target="_top" xlink:title="Declares mock implementation of gmx::IAnalysisDataModule. ">
<polygon fill="white" stroke="black" points="660,-246.5 660,-276.5 792,-276.5 792,-246.5 660,-246.5"/>
<text text-anchor="start" x="668" y="-264.5" font-family="Helvetica,sans-Serif" font-size="10.00">src/gromacs/analysisdata</text>
<text text-anchor="middle" x="726" y="-253.5" font-family="Helvetica,sans-Serif" font-size="10.00">/tests/mock_datamodule.h</text>
</a>
</g>
</g>
<!-- Node2&#45;&gt;Node12 -->
<g id="edge14" class="edge"><title>Node2&#45;&gt;Node12</title>
<path fill="none" stroke="midnightblue" d="M583.957,-310.092C615.274,-299.599 654.643,-286.408 683.987,-276.577"/>
<polygon fill="midnightblue" stroke="midnightblue" points="582.465,-306.9 574.095,-313.396 584.689,-313.538 582.465,-306.9"/>
</g>
<!-- Node5 -->
<g id="node5" class="node"><title>Node5</title>
<g id="a_node5"><a xlink:href="average_8h.xhtml" target="_top" xlink:title="Declares gmx::AnalysisDataAverageModule. ">
<polygon fill="white" stroke="black" points="0,-179.5 0,-209.5 128,-209.5 128,-179.5 0,-179.5"/>
<text text-anchor="start" x="8" y="-197.5" font-family="Helvetica,sans-Serif" font-size="10.00">src/gromacs/analysisdata</text>
<text text-anchor="middle" x="64" y="-186.5" font-family="Helvetica,sans-Serif" font-size="10.00">/modules/average.h</text>
</a>
</g>
</g>
<!-- Node4&#45;&gt;Node5 -->
<g id="edge4" class="edge"><title>Node4&#45;&gt;Node5</title>
<path fill="none" stroke="midnightblue" d="M255.7,-243.984C213.722,-233.367 159.763,-219.72 119.792,-209.611"/>
<polygon fill="midnightblue" stroke="midnightblue" points="254.998,-247.417 265.551,-246.476 256.715,-240.631 254.998,-247.417"/>
</g>
<!-- Node4&#45;&gt;Node6 -->
<g id="edge12" class="edge"><title>Node4&#45;&gt;Node6</title>
<path fill="none" stroke="midnightblue" d="M248.406,-243.798C216.55,-234.858 184.271,-223.017 175,-210 147.044,-170.75 216.732,-148.134 269.187,-137.083"/>
<polygon fill="midnightblue" stroke="midnightblue" points="247.684,-247.229 258.252,-246.477 249.522,-240.474 247.684,-247.229"/>
</g>
<!-- Node9 -->
<g id="node9" class="node"><title>Node9</title>
<g id="a_node9"><a xlink:href="histogram_8h.xhtml" target="_top" xlink:title="Declares analysis data modules for calculating histograms. ">
<polygon fill="white" stroke="black" points="184,-179.5 184,-209.5 312,-209.5 312,-179.5 184,-179.5"/>
<text text-anchor="start" x="192" y="-197.5" font-family="Helvetica,sans-Serif" font-size="10.00">src/gromacs/analysisdata</text>
<text text-anchor="middle" x="248" y="-186.5" font-family="Helvetica,sans-Serif" font-size="10.00">/modules/histogram.h</text>
</a>
</g>
</g>
<!-- Node4&#45;&gt;Node9 -->
<g id="edge8" class="edge"><title>Node4&#45;&gt;Node9</title>
<path fill="none" stroke="midnightblue" d="M297.525,-239.598C286.503,-229.783 273.656,-218.344 263.809,-209.577"/>
<polygon fill="midnightblue" stroke="midnightblue" points="295.364,-242.36 305.16,-246.396 300.019,-237.132 295.364,-242.36"/>
</g>
<!-- Node10 -->
<g id="node10" class="node"><title>Node10</title>
<g id="a_node10"><a xlink:href="lifetime_8h.xhtml" target="_top" xlink:title="Declares gmx::AnalysisDataLifetimeModule. ">
<polygon fill="white" stroke="black" points="330,-179.5 330,-209.5 458,-209.5 458,-179.5 330,-179.5"/>
<text text-anchor="start" x="338" y="-197.5" font-family="Helvetica,sans-Serif" font-size="10.00">src/gromacs/analysisdata</text>
<text text-anchor="middle" x="394" y="-186.5" font-family="Helvetica,sans-Serif" font-size="10.00">/modules/lifetime.h</text>
</a>
</g>
</g>
<!-- Node4&#45;&gt;Node10 -->
<g id="edge10" class="edge"><title>Node4&#45;&gt;Node10</title>
<path fill="none" stroke="midnightblue" d="M344.475,-239.598C355.497,-229.783 368.344,-218.344 378.191,-209.577"/>
<polygon fill="midnightblue" stroke="midnightblue" points="341.981,-237.132 336.84,-246.396 346.636,-242.36 341.981,-237.132"/>
</g>
<!-- Node5&#45;&gt;Node6 -->
<g id="edge5" class="edge"><title>Node5&#45;&gt;Node6</title>
<path fill="none" stroke="midnightblue" d="M129.278,-176.99C179.644,-164.252 247.267,-147.148 287.279,-137.029"/>
<polygon fill="midnightblue" stroke="midnightblue" points="128.285,-173.631 119.449,-179.476 130.002,-180.417 128.285,-173.631"/>
</g>
<!-- Node6&#45;&gt;Node7 -->
<g id="edge6" class="edge"><title>Node6&#45;&gt;Node7</title>
<path fill="none" stroke="midnightblue" d="M400.008,-120.395C547.69,-108.983 863.98,-84.5424 1011.8,-73.1196"/>
<polygon fill="midnightblue" stroke="midnightblue" points="399.371,-116.934 389.671,-121.194 399.911,-123.913 399.371,-116.934"/>
</g>
<!-- Node8 -->
<g id="node8" class="node"><title>Node8</title>
<g id="a_node8"><a xlink:href="template_8cpp.xhtml" target="_top" xlink:title="Template code for writing analysis programs. ">
<polygon fill="white" stroke="black" points="1021,-0.5 1021,-19.5 1161,-19.5 1161,-0.5 1021,-0.5"/>
<text text-anchor="middle" x="1091" y="-7.5" font-family="Helvetica,sans-Serif" font-size="10.00">share/template/template.cpp</text>
</a>
</g>
</g>
<!-- Node7&#45;&gt;Node8 -->
<g id="edge7" class="edge"><title>Node7&#45;&gt;Node8</title>
<path fill="none" stroke="midnightblue" d="M1091,-45.8045C1091,-36.9102 1091,-26.7798 1091,-19.7511"/>
<polygon fill="midnightblue" stroke="midnightblue" points="1087.5,-46.083 1091,-56.083 1094.5,-46.083 1087.5,-46.083"/>
</g>
<!-- Node9&#45;&gt;Node6 -->
<g id="edge9" class="edge"><title>Node9&#45;&gt;Node6</title>
<path fill="none" stroke="midnightblue" d="M271.391,-172.672C284.87,-160.671 301.099,-146.22 311.235,-137.195"/>
<polygon fill="midnightblue" stroke="midnightblue" points="268.981,-170.132 263.84,-179.396 273.636,-175.36 268.981,-170.132"/>
</g>
<!-- Node10&#45;&gt;Node6 -->
<g id="edge11" class="edge"><title>Node10&#45;&gt;Node6</title>
<path fill="none" stroke="midnightblue" d="M370.609,-172.672C357.13,-160.671 340.901,-146.22 330.765,-137.195"/>
<polygon fill="midnightblue" stroke="midnightblue" points="368.364,-175.36 378.16,-179.396 373.019,-170.132 368.364,-175.36"/>
</g>
<!-- Node14&#45;&gt;Node7 -->
<g id="edge18" class="edge"><title>Node14&#45;&gt;Node7</title>
<path fill="none" stroke="midnightblue" d="M1040.94,-106.189C1054.25,-95.7719 1069.75,-83.6329 1079.94,-75.6578"/>
<polygon fill="midnightblue" stroke="midnightblue" points="1038.73,-103.479 1033.01,-112.399 1043.04,-108.991 1038.73,-103.479"/>
</g>
<!-- Node16 -->
<g id="node16" class="node"><title>Node16</title>
<g id="a_node16"><a xlink:href="selectioncollection_8h.xhtml" target="_top" xlink:title="Declares gmx::SelectionCollection. ">
<polygon fill="white" stroke="black" points="1034.5,-179.5 1034.5,-209.5 1147.5,-209.5 1147.5,-179.5 1034.5,-179.5"/>
<text text-anchor="start" x="1042.5" y="-197.5" font-family="Helvetica,sans-Serif" font-size="10.00">src/gromacs/selection</text>
<text text-anchor="middle" x="1091" y="-186.5" font-family="Helvetica,sans-Serif" font-size="10.00">/selectioncollection.h</text>
</a>
</g>
</g>
<!-- Node15&#45;&gt;Node16 -->
<g id="edge20" class="edge"><title>Node15&#45;&gt;Node16</title>
<path fill="none" stroke="midnightblue" d="M1149.41,-240.168C1136.41,-230.228 1121.1,-218.514 1109.41,-209.577"/>
<polygon fill="midnightblue" stroke="midnightblue" points="1147.49,-243.102 1157.56,-246.396 1151.74,-237.541 1147.49,-243.102"/>
</g>
<!-- Node17 -->
<g id="node17" class="node"><title>Node17</title>
<g id="a_node17"><a xlink:href="selection_8h.xhtml" target="_top" xlink:title="Public API convenience header for selection handling. ">
<polygon fill="white" stroke="black" points="1106.5,-118 1106.5,-137 1227.5,-137 1227.5,-118 1106.5,-118"/>
<text text-anchor="middle" x="1167" y="-125" font-family="Helvetica,sans-Serif" font-size="10.00">src/gromacs/selection.h</text>
</a>
</g>
</g>
<!-- Node15&#45;&gt;Node17 -->
<g id="edge25" class="edge"><title>Node15&#45;&gt;Node17</title>
<path fill="none" stroke="midnightblue" d="M1174.35,-236.317C1172.31,-206.376 1168.94,-156.911 1167.59,-137.097"/>
<polygon fill="midnightblue" stroke="midnightblue" points="1170.86,-236.635 1175.04,-246.374 1177.85,-236.159 1170.86,-236.635"/>
</g>
<!-- Node18 -->
<g id="node18" class="node"><title>Node18</title>
<g id="a_node18"><a xlink:href="selectionoption_8h.xhtml" target="_top" xlink:title="Declares gmx::SelectionOption and gmx::SelectionOptionInfo. ">
<polygon fill="white" stroke="black" points="1204.5,-179.5 1204.5,-209.5 1317.5,-209.5 1317.5,-179.5 1204.5,-179.5"/>
<text text-anchor="start" x="1212.5" y="-197.5" font-family="Helvetica,sans-Serif" font-size="10.00">src/gromacs/selection</text>
<text text-anchor="middle" x="1261" y="-186.5" font-family="Helvetica,sans-Serif" font-size="10.00">/selectionoption.h</text>
</a>
</g>
</g>
<!-- Node15&#45;&gt;Node18 -->
<g id="edge23" class="edge"><title>Node15&#45;&gt;Node18</title>
<path fill="none" stroke="midnightblue" d="M1202.59,-240.168C1215.59,-230.228 1230.9,-218.514 1242.59,-209.577"/>
<polygon fill="midnightblue" stroke="midnightblue" points="1200.26,-237.541 1194.44,-246.396 1204.51,-243.102 1200.26,-237.541"/>
</g>
<!-- Node19 -->
<g id="node19" class="node"><title>Node19</title>
<g id="a_node19"><a xlink:href="analysismodule_8h.xhtml" target="_top" xlink:title="Declares gmx::TrajectoryAnalysisModule and gmx::TrajectoryAnalysisModuleData. ">
<polygon fill="white" stroke="black" points="1336,-179.5 1336,-209.5 1486,-209.5 1486,-179.5 1336,-179.5"/>
<text text-anchor="start" x="1344" y="-197.5" font-family="Helvetica,sans-Serif" font-size="10.00">src/gromacs/trajectoryanalysis</text>
<text text-anchor="middle" x="1411" y="-186.5" font-family="Helvetica,sans-Serif" font-size="10.00">/analysismodule.h</text>
</a>
</g>
</g>
<!-- Node15&#45;&gt;Node19 -->
<g id="edge26" class="edge"><title>Node15&#45;&gt;Node19</title>
<path fill="none" stroke="midnightblue" d="M1236.68,-243.715C1274.93,-233.137 1323.74,-219.635 1359.98,-209.611"/>
<polygon fill="midnightblue" stroke="midnightblue" points="1235.41,-240.437 1226.7,-246.476 1237.27,-247.183 1235.41,-240.437"/>
</g>
<!-- Node16&#45;&gt;Node17 -->
<g id="edge21" class="edge"><title>Node16&#45;&gt;Node17</title>
<path fill="none" stroke="midnightblue" d="M1115.35,-172.672C1129.39,-160.671 1146.28,-146.22 1156.83,-137.195"/>
<polygon fill="midnightblue" stroke="midnightblue" points="1112.82,-170.236 1107.49,-179.396 1117.37,-175.556 1112.82,-170.236"/>
</g>
<!-- Node17&#45;&gt;Node7 -->
<g id="edge22" class="edge"><title>Node17&#45;&gt;Node7</title>
<path fill="none" stroke="midnightblue" d="M1148.22,-111.794C1133.64,-100.38 1113.94,-84.9577 1101.87,-75.5091"/>
<polygon fill="midnightblue" stroke="midnightblue" points="1146.08,-114.566 1156.11,-117.975 1150.39,-109.055 1146.08,-114.566"/>
</g>
<!-- Node18&#45;&gt;Node17 -->
<g id="edge24" class="edge"><title>Node18&#45;&gt;Node17</title>
<path fill="none" stroke="midnightblue" d="M1232.28,-173.641C1214.54,-161.374 1192.69,-146.261 1179.3,-137.007"/>
<polygon fill="midnightblue" stroke="midnightblue" points="1230.39,-176.587 1240.6,-179.396 1234.37,-170.83 1230.39,-176.587"/>
</g>
<!-- Node19&#45;&gt;Node7 -->
<g id="edge29" class="edge"><title>Node19&#45;&gt;Node7</title>
<path fill="none" stroke="midnightblue" d="M1373.2,-175.04C1330.41,-154.277 1263.24,-122.131 1237,-112 1198.65,-97.1903 1153.22,-83.8176 1123.34,-75.5709"/>
<polygon fill="midnightblue" stroke="midnightblue" points="1371.67,-178.191 1382.2,-179.413 1374.73,-171.895 1371.67,-178.191"/>
</g>
<!-- Node20 -->
<g id="node20" class="node"><title>Node20</title>
<g id="a_node20"><a xlink:href="cmdlinerunner_8h.xhtml" target="_top" xlink:title="Declares gmx::TrajectoryAnalysisCommandLineRunner. ">
<polygon fill="white" stroke="black" points="1316,-112.5 1316,-142.5 1466,-142.5 1466,-112.5 1316,-112.5"/>
<text text-anchor="start" x="1324" y="-130.5" font-family="Helvetica,sans-Serif" font-size="10.00">src/gromacs/trajectoryanalysis</text>
<text text-anchor="middle" x="1391" y="-119.5" font-family="Helvetica,sans-Serif" font-size="10.00">/cmdlinerunner.h</text>
</a>
</g>
</g>
<!-- Node19&#45;&gt;Node20 -->
<g id="edge27" class="edge"><title>Node19&#45;&gt;Node20</title>
<path fill="none" stroke="midnightblue" d="M1403.68,-169.697C1400.87,-160.587 1397.77,-150.493 1395.33,-142.577"/>
<polygon fill="midnightblue" stroke="midnightblue" points="1400.37,-170.867 1406.66,-179.396 1407.06,-168.809 1400.37,-170.867"/>
</g>
<!-- Node20&#45;&gt;Node7 -->
<g id="edge28" class="edge"><title>Node20&#45;&gt;Node7</title>
<path fill="none" stroke="midnightblue" d="M1310.25,-110.485C1253.47,-99.2232 1179.73,-84.5981 1133.89,-75.5064"/>
<polygon fill="midnightblue" stroke="midnightblue" points="1309.79,-113.962 1320.28,-112.475 1311.16,-107.096 1309.79,-113.962"/>
</g>
</g>
</svg>
