<?xml version="1.0" encoding="UTF-8" standalone="no"?>
<!DOCTYPE svg PUBLIC "-//W3C//DTD SVG 1.1//EN"
 "http://www.w3.org/Graphics/SVG/1.1/DTD/svg11.dtd">
<!-- Generated by graphviz version 2.38.0 (20140413.2041)
 -->
<!-- Title: gmx::TextInputStream Pages: 1 -->
<svg width="396pt" height="84pt"
 viewBox="0.00 0.00 396.00 84.00" xmlns="http://www.w3.org/2000/svg" xmlns:xlink="http://www.w3.org/1999/xlink">
<g id="graph0" class="graph" transform="scale(1 1) rotate(0) translate(4 80)">
<title>gmx::TextInputStream</title>
<polygon fill="white" stroke="none" points="-4,4 -4,-80 392,-80 392,4 -4,4"/>
<!-- Node1 -->
<g id="node1" class="node"><title>Node1</title>
<polygon fill="#bfbfbf" stroke="black" points="155,-56.5 155,-75.5 269,-75.5 269,-56.5 155,-56.5"/>
<text text-anchor="middle" x="212" y="-63.5" font-family="Helvetica,sans-Serif" font-size="10.00">gmx::TextInputStream</text>
</g>
<!-- Node2 -->
<g id="node2" class="node"><title>Node2</title>
<g id="a_node2"><a xlink:href="classgmx_1_1StandardInputStream.xhtml" target="_top" xlink:title="Text input stream implementation for reading from stdin. ">
<polygon fill="white" stroke="black" points="0,-0.5 0,-19.5 134,-19.5 134,-0.5 0,-0.5"/>
<text text-anchor="middle" x="67" y="-7.5" font-family="Helvetica,sans-Serif" font-size="10.00">gmx::StandardInputStream</text>
</a>
</g>
</g>
<!-- Node1&#45;&gt;Node2 -->
<g id="edge1" class="edge"><title>Node1&#45;&gt;Node2</title>
<path fill="none" stroke="midnightblue" d="M179.525,-52.9058C152.264,-42.7536 114.008,-28.5063 89.8682,-19.5164"/>
<polygon fill="midnightblue" stroke="midnightblue" points="178.432,-56.2334 189.024,-56.4435 180.875,-49.6736 178.432,-56.2334"/>
</g>
<!-- Node3 -->
<g id="node3" class="node"><title>Node3</title>
<g id="a_node3"><a xlink:href="classgmx_1_1StringInputStream.xhtml" target="_top" xlink:title="Helper class to convert static string data to a stream. ">
<polygon fill="white" stroke="black" points="152,-0.5 152,-19.5 272,-19.5 272,-0.5 152,-0.5"/>
<text text-anchor="middle" x="212" y="-7.5" font-family="Helvetica,sans-Serif" font-size="10.00">gmx::StringInputStream</text>
</a>
</g>
</g>
<!-- Node1&#45;&gt;Node3 -->
<g id="edge2" class="edge"><title>Node1&#45;&gt;Node3</title>
<path fill="none" stroke="midnightblue" d="M212,-45.8045C212,-36.9102 212,-26.7798 212,-19.7511"/>
<polygon fill="midnightblue" stroke="midnightblue" points="208.5,-46.083 212,-56.083 215.5,-46.083 208.5,-46.083"/>
</g>
<!-- Node4 -->
<g id="node4" class="node"><title>Node4</title>
<g id="a_node4"><a xlink:href="classgmx_1_1TextInputFile.xhtml" target="_top" xlink:title="Text input stream implementation for reading from a file. ">
<polygon fill="white" stroke="black" points="290,-0.5 290,-19.5 388,-19.5 388,-0.5 290,-0.5"/>
<text text-anchor="middle" x="339" y="-7.5" font-family="Helvetica,sans-Serif" font-size="10.00">gmx::TextInputFile</text>
</a>
</g>
</g>
<!-- Node1&#45;&gt;Node4 -->
<g id="edge3" class="edge"><title>Node1&#45;&gt;Node4</title>
<path fill="none" stroke="midnightblue" d="M241.391,-52.503C265.2,-42.3795 298.106,-28.388 318.971,-19.5164"/>
<polygon fill="midnightblue" stroke="midnightblue" points="239.957,-49.3096 232.124,-56.4435 242.696,-55.7515 239.957,-49.3096"/>
</g>
</g>
</svg>
