<?xml version="1.0" encoding="UTF-8" standalone="no"?>
<!DOCTYPE svg PUBLIC "-//W3C//DTD SVG 1.1//EN"
 "http://www.w3.org/Graphics/SVG/1.1/DTD/svg11.dtd">
<!-- Generated by graphviz version 2.38.0 (20140413.2041)
 -->
<!-- Title: src/gromacs/mdlib/nbnxn_cuda Pages: 1 -->
<svg width="110pt" height="151pt"
 viewBox="0.00 0.00 110.00 151.00" xmlns="http://www.w3.org/2000/svg" xmlns:xlink="http://www.w3.org/1999/xlink">
<g id="graph0" class="graph" transform="scale(1 1) rotate(0) translate(4 147)">
<title>src/gromacs/mdlib/nbnxn_cuda</title>
<polygon fill="white" stroke="none" points="-4,4 -4,-147 106,-147 106,4 -4,4"/>
<g id="clust1" class="cluster"><title>clusterdir_b988dc028879cf86b2e2d3976beb6cdb</title>
<g id="a_clust1"><a xlink:href="dir_b988dc028879cf86b2e2d3976beb6cdb.xhtml" target="_top" xlink:title="mdlib">
<polygon fill="#ddddee" stroke="black" points="8,-64 8,-135 94,-135 94,-64 8,-64"/>
<text text-anchor="middle" x="51" y="-123" font-family="Helvetica,sans-Serif" font-size="10.00">mdlib</text>
</a>
</g>
</g>
<!-- dir_aa44cf75d430a0e546e6088ec3b136bd -->
<g id="node1" class="node"><title>dir_aa44cf75d430a0e546e6088ec3b136bd</title>
<g id="a_node1"><a xlink:href="dir_aa44cf75d430a0e546e6088ec3b136bd.xhtml" target="_top" xlink:title="nbnxn_cuda">
<polygon fill="#eeeeff" stroke="black" points="85.5,-108 16.5,-108 16.5,-72 85.5,-72 85.5,-108"/>
<text text-anchor="middle" x="51" y="-87.5" font-family="Helvetica,sans-Serif" font-size="10.00">nbnxn_cuda</text>
</a>
</g>
</g>
<!-- dir_0b8ac6343fc955d2b71487bd84b8c4e5 -->
<g id="node2" class="node"><title>dir_0b8ac6343fc955d2b71487bd84b8c4e5</title>
<g id="a_node2"><a xlink:href="dir_0b8ac6343fc955d2b71487bd84b8c4e5.xhtml" target="_top" xlink:title="timing">
<polygon fill="none" stroke="black" points="78,-36 24,-36 24,-0 78,-0 78,-36"/>
<text text-anchor="middle" x="51" y="-15.5" font-family="Helvetica,sans-Serif" font-size="10.00">timing</text>
</a>
</g>
</g>
<!-- dir_aa44cf75d430a0e546e6088ec3b136bd&#45;&gt;dir_0b8ac6343fc955d2b71487bd84b8c4e5 -->
<g id="edge1" class="edge"><title>dir_aa44cf75d430a0e546e6088ec3b136bd&#45;&gt;dir_0b8ac6343fc955d2b71487bd84b8c4e5</title>
<path fill="none" stroke="black" d="M51,-71.6966C51,-63.9827 51,-54.7125 51,-46.1124"/>
<polygon fill="black" stroke="black" points="54.5001,-46.1043 51,-36.1043 47.5001,-46.1044 54.5001,-46.1043"/>
<g id="a_edge1&#45;headlabel"><a xlink:href="dir_000040_000065.xhtml" target="_top" xlink:title="1">
<text text-anchor="middle" x="57.3393" y="-47.199" font-family="Helvetica,sans-Serif" font-size="10.00">1</text>
</a>
</g>
</g>
</g>
</svg>
