<?xml version="1.0" encoding="UTF-8" standalone="no"?>
<!DOCTYPE svg PUBLIC "-//W3C//DTD SVG 1.1//EN"
 "http://www.w3.org/Graphics/SVG/1.1/DTD/svg11.dtd">
<!-- Generated by graphviz version 2.38.0 (20140413.2041)
 -->
<!-- Title: src/gromacs/topology Pages: 1 -->
<svg width="118pt" height="223pt"
 viewBox="0.00 0.00 118.00 223.00" xmlns="http://www.w3.org/2000/svg" xmlns:xlink="http://www.w3.org/1999/xlink">
<g id="graph0" class="graph" transform="scale(1 1) rotate(0) translate(4 219)">
<title>src/gromacs/topology</title>
<polygon fill="white" stroke="none" points="-4,4 -4,-219 114,-219 114,4 -4,4"/>
<g id="clust1" class="cluster"><title>clusterdir_a798d384400d41a9e6864d9b1b8753fe</title>
<g id="a_clust1"><a xlink:href="dir_a798d384400d41a9e6864d9b1b8753fe.xhtml" target="_top" xlink:title="gromacs">
<polygon fill="#ddddee" stroke="black" points="8,-136 8,-207 78,-207 78,-136 8,-136"/>
<text text-anchor="middle" x="43" y="-195" font-family="Helvetica,sans-Serif" font-size="10.00">gromacs</text>
</a>
</g>
</g>
<!-- dir_f1748e2ff3e38fa351947832cc7af116 -->
<g id="node1" class="node"><title>dir_f1748e2ff3e38fa351947832cc7af116</title>
<g id="a_node1"><a xlink:href="dir_f1748e2ff3e38fa351947832cc7af116.xhtml" target="_top" xlink:title="topology">
<polygon fill="#eeeeff" stroke="black" points="70,-180 16,-180 16,-144 70,-144 70,-180"/>
<text text-anchor="middle" x="43" y="-159.5" font-family="Helvetica,sans-Serif" font-size="10.00">topology</text>
</a>
</g>
</g>
<!-- dir_de18afb36696138c96356a62009637d5 -->
<g id="node2" class="node"><title>dir_de18afb36696138c96356a62009637d5</title>
<g id="a_node2"><a xlink:href="dir_de18afb36696138c96356a62009637d5.xhtml" target="_top" xlink:title="utility">
<polygon fill="white" stroke="red" points="70,-36 16,-36 16,-0 70,-0 70,-36"/>
<text text-anchor="middle" x="43" y="-15.5" font-family="Helvetica,sans-Serif" font-size="10.00">utility</text>
</a>
</g>
</g>
<!-- dir_f1748e2ff3e38fa351947832cc7af116&#45;&gt;dir_de18afb36696138c96356a62009637d5 -->
<g id="edge1" class="edge"><title>dir_f1748e2ff3e38fa351947832cc7af116&#45;&gt;dir_de18afb36696138c96356a62009637d5</title>
<path fill="none" stroke="black" d="M38.1309,-143.979C35.4358,-133.665 32.3626,-120.189 31,-108 29.2224,-92.0991 29.2224,-87.9009 31,-72 31.9581,-63.4299 33.7618,-54.2228 35.6852,-45.9264"/>
<polygon fill="black" stroke="black" points="39.1318,-46.5684 38.1309,-36.0209 32.3358,-44.8904 39.1318,-46.5684"/>
<g id="a_edge1&#45;headlabel"><a xlink:href="dir_000067_000072.xhtml" target="_top" xlink:title="55">
<text text-anchor="middle" x="41.0267" y="-48.2387" font-family="Helvetica,sans-Serif" font-size="10.00">55</text>
</a>
</g>
</g>
<!-- dir_2bcbd19ff8d7f44b320061b86f2a45ee -->
<g id="node3" class="node"><title>dir_2bcbd19ff8d7f44b320061b86f2a45ee</title>
<g id="a_node3"><a xlink:href="dir_2bcbd19ff8d7f44b320061b86f2a45ee.xhtml" target="_top" xlink:title="listed&#45;forces">
<polygon fill="none" stroke="black" points="110,-108 40,-108 40,-72 110,-72 110,-108"/>
<text text-anchor="middle" x="75" y="-87.5" font-family="Helvetica,sans-Serif" font-size="10.00">listed&#45;forces</text>
</a>
</g>
</g>
<!-- dir_f1748e2ff3e38fa351947832cc7af116&#45;&gt;dir_2bcbd19ff8d7f44b320061b86f2a45ee -->
<g id="edge2" class="edge"><title>dir_f1748e2ff3e38fa351947832cc7af116&#45;&gt;dir_2bcbd19ff8d7f44b320061b86f2a45ee</title>
<path fill="none" stroke="black" d="M50.9101,-143.697C54.5527,-135.728 58.9545,-126.1 62.9935,-117.264"/>
<polygon fill="black" stroke="black" points="66.2064,-118.654 67.1809,-108.104 59.8401,-115.744 66.2064,-118.654"/>
<g id="a_edge2&#45;headlabel"><a xlink:href="dir_000067_000035.xhtml" target="_top" xlink:title="3">
<text text-anchor="middle" x="67.2942" y="-120.604" font-family="Helvetica,sans-Serif" font-size="10.00">3</text>
</a>
</g>
</g>
<!-- dir_2bcbd19ff8d7f44b320061b86f2a45ee&#45;&gt;dir_de18afb36696138c96356a62009637d5 -->
<g id="edge3" class="edge"><title>dir_2bcbd19ff8d7f44b320061b86f2a45ee&#45;&gt;dir_de18afb36696138c96356a62009637d5</title>
<path fill="none" stroke="black" d="M67.0899,-71.6966C63.4473,-63.7284 59.0455,-54.0995 55.0065,-45.2641"/>
<polygon fill="black" stroke="black" points="58.1599,-43.7439 50.8191,-36.1043 51.7936,-46.6543 58.1599,-43.7439"/>
<g id="a_edge3&#45;headlabel"><a xlink:href="dir_000035_000072.xhtml" target="_top" xlink:title="32">
<text text-anchor="middle" x="62.2366" y="-43.3327" font-family="Helvetica,sans-Serif" font-size="10.00">32</text>
</a>
</g>
</g>
</g>
</svg>
