<?xml version="1.0" encoding="UTF-8" standalone="no"?>
<!DOCTYPE svg PUBLIC "-//W3C//DTD SVG 1.1//EN"
 "http://www.w3.org/Graphics/SVG/1.1/DTD/svg11.dtd">
<!-- Generated by graphviz version 2.38.0 (20140413.2041)
 -->
<!-- Title: src/gromacs/simd/tests Pages: 1 -->
<svg width="133pt" height="295pt"
 viewBox="0.00 0.00 133.00 295.00" xmlns="http://www.w3.org/2000/svg" xmlns:xlink="http://www.w3.org/1999/xlink">
<g id="graph0" class="graph" transform="scale(1 1) rotate(0) translate(4 291)">
<title>src/gromacs/simd/tests</title>
<polygon fill="white" stroke="none" points="-4,4 -4,-291 129,-291 129,4 -4,4"/>
<g id="clust1" class="cluster"><title>clusterdir_69a31023f2cb90cacd6802dc380f9733</title>
<g id="a_clust1"><a xlink:href="dir_69a31023f2cb90cacd6802dc380f9733.xhtml" target="_top" xlink:title="simd">
<polygon fill="#ddddee" stroke="black" points="47,-208 47,-279 117,-279 117,-208 47,-208"/>
<text text-anchor="middle" x="82" y="-267" font-family="Helvetica,sans-Serif" font-size="10.00">simd</text>
</a>
</g>
</g>
<!-- dir_34812fbaed5909629a0c82763f705ec2 -->
<g id="node1" class="node"><title>dir_34812fbaed5909629a0c82763f705ec2</title>
<g id="a_node1"><a xlink:href="dir_34812fbaed5909629a0c82763f705ec2.xhtml" target="_top" xlink:title="tests">
<polygon fill="#eeeeff" stroke="black" points="109,-252 55,-252 55,-216 109,-216 109,-252"/>
<text text-anchor="middle" x="82" y="-231.5" font-family="Helvetica,sans-Serif" font-size="10.00">tests</text>
</a>
</g>
</g>
<!-- dir_578bb10d05c7497569e3ae4615cf11b2 -->
<g id="node2" class="node"><title>dir_578bb10d05c7497569e3ae4615cf11b2</title>
<g id="a_node2"><a xlink:href="dir_578bb10d05c7497569e3ae4615cf11b2.xhtml" target="_top" xlink:title="testutils">
<polygon fill="white" stroke="red" points="54,-180 0,-180 0,-144 54,-144 54,-180"/>
<text text-anchor="middle" x="27" y="-159.5" font-family="Helvetica,sans-Serif" font-size="10.00">testutils</text>
</a>
</g>
</g>
<!-- dir_34812fbaed5909629a0c82763f705ec2&#45;&gt;dir_578bb10d05c7497569e3ae4615cf11b2 -->
<g id="edge1" class="edge"><title>dir_34812fbaed5909629a0c82763f705ec2&#45;&gt;dir_578bb10d05c7497569e3ae4615cf11b2</title>
<path fill="none" stroke="black" d="M68.4045,-215.697C61.8773,-207.389 53.932,-197.277 46.7534,-188.141"/>
<polygon fill="black" stroke="black" points="49.3695,-185.805 40.4391,-180.104 43.8653,-190.13 49.3695,-185.805"/>
<g id="a_edge1&#45;headlabel"><a xlink:href="dir_000061_000075.xhtml" target="_top" xlink:title="4">
<text text-anchor="middle" x="53.8229" y="-184.377" font-family="Helvetica,sans-Serif" font-size="10.00">4</text>
</a>
</g>
</g>
<!-- dir_de18afb36696138c96356a62009637d5 -->
<g id="node3" class="node"><title>dir_de18afb36696138c96356a62009637d5</title>
<g id="a_node3"><a xlink:href="dir_de18afb36696138c96356a62009637d5.xhtml" target="_top" xlink:title="utility">
<polygon fill="white" stroke="red" points="69,-36 15,-36 15,-0 69,-0 69,-36"/>
<text text-anchor="middle" x="42" y="-15.5" font-family="Helvetica,sans-Serif" font-size="10.00">utility</text>
</a>
</g>
</g>
<!-- dir_34812fbaed5909629a0c82763f705ec2&#45;&gt;dir_de18afb36696138c96356a62009637d5 -->
<g id="edge2" class="edge"><title>dir_34812fbaed5909629a0c82763f705ec2&#45;&gt;dir_de18afb36696138c96356a62009637d5</title>
<path fill="none" stroke="black" d="M91.5858,-215.589C107.057,-184.974 133.534,-120.181 110,-72 103.115,-57.9036 90.4685,-46.4657 77.9332,-37.8724"/>
<polygon fill="black" stroke="black" points="79.655,-34.819 69.3447,-32.3799 75.8836,-40.7162 79.655,-34.819"/>
<g id="a_edge2&#45;headlabel"><a xlink:href="dir_000061_000072.xhtml" target="_top" xlink:title="16">
<text text-anchor="middle" x="84.2129" y="-31.8636" font-family="Helvetica,sans-Serif" font-size="10.00">16</text>
</a>
</g>
</g>
<!-- dir_0f41d4b98db5eee2782536f16c8bfcfd -->
<g id="node4" class="node"><title>dir_0f41d4b98db5eee2782536f16c8bfcfd</title>
<g id="a_node4"><a xlink:href="dir_0f41d4b98db5eee2782536f16c8bfcfd.xhtml" target="_top" xlink:title="options">
<polygon fill="white" stroke="red" points="101,-108 47,-108 47,-72 101,-72 101,-108"/>
<text text-anchor="middle" x="74" y="-87.5" font-family="Helvetica,sans-Serif" font-size="10.00">options</text>
</a>
</g>
</g>
<!-- dir_34812fbaed5909629a0c82763f705ec2&#45;&gt;dir_0f41d4b98db5eee2782536f16c8bfcfd -->
<g id="edge3" class="edge"><title>dir_34812fbaed5909629a0c82763f705ec2&#45;&gt;dir_0f41d4b98db5eee2782536f16c8bfcfd</title>
<path fill="none" stroke="black" d="M81.035,-215.871C79.6716,-191.67 77.1668,-147.211 75.5433,-118.393"/>
<polygon fill="black" stroke="black" points="79.0254,-117.977 74.9684,-108.189 72.0365,-118.37 79.0254,-117.977"/>
<g id="a_edge3&#45;headlabel"><a xlink:href="dir_000061_000049.xhtml" target="_top" xlink:title="4">
<text text-anchor="middle" x="82.0623" y="-118.906" font-family="Helvetica,sans-Serif" font-size="10.00">4</text>
</a>
</g>
</g>
<!-- dir_578bb10d05c7497569e3ae4615cf11b2&#45;&gt;dir_de18afb36696138c96356a62009637d5 -->
<g id="edge4" class="edge"><title>dir_578bb10d05c7497569e3ae4615cf11b2&#45;&gt;dir_de18afb36696138c96356a62009637d5</title>
<path fill="none" stroke="black" d="M24.2249,-143.871C24.223,-119.564 28.6668,-74.8187 33.7137,-46.0132"/>
<polygon fill="black" stroke="black" points="37.1517,-46.6689 35.5933,-36.1893 30.2764,-45.3534 37.1517,-46.6689"/>
<g id="a_edge4&#45;headlabel"><a xlink:href="dir_000075_000072.xhtml" target="_top" xlink:title="63">
<text text-anchor="middle" x="39.265" y="-48.233" font-family="Helvetica,sans-Serif" font-size="10.00">63</text>
</a>
</g>
</g>
<!-- dir_578bb10d05c7497569e3ae4615cf11b2&#45;&gt;dir_0f41d4b98db5eee2782536f16c8bfcfd -->
<g id="edge5" class="edge"><title>dir_578bb10d05c7497569e3ae4615cf11b2&#45;&gt;dir_0f41d4b98db5eee2782536f16c8bfcfd</title>
<path fill="none" stroke="black" d="M32.7023,-143.697C37.4231,-135.389 44.016,-125.277 50.6137,-116.141"/>
<polygon fill="black" stroke="black" points="53.437,-118.21 56.6206,-108.104 47.8302,-114.019 53.437,-118.21"/>
<g id="a_edge5&#45;headlabel"><a xlink:href="dir_000075_000049.xhtml" target="_top" xlink:title="10">
<text text-anchor="middle" x="53.5591" y="-120.289" font-family="Helvetica,sans-Serif" font-size="10.00">10</text>
</a>
</g>
</g>
<!-- dir_de18afb36696138c96356a62009637d5&#45;&gt;dir_578bb10d05c7497569e3ae4615cf11b2 -->
<g id="edge6" class="edge"><title>dir_de18afb36696138c96356a62009637d5&#45;&gt;dir_578bb10d05c7497569e3ae4615cf11b2</title>
<path fill="none" stroke="black" d="M44.7751,-36.1893C44.7697,-60.4244 40.3605,-104.888 35.34,-133.679"/>
<polygon fill="black" stroke="black" points="31.8316,-133.392 33.3938,-143.871 38.7074,-134.705 31.8316,-133.392"/>
<g id="a_edge6&#45;headlabel"><a xlink:href="dir_000072_000075.xhtml" target="_top" xlink:title="3">
<text text-anchor="middle" x="29.7168" y="-126.829" font-family="Helvetica,sans-Serif" font-size="10.00">3</text>
</a>
</g>
</g>
<!-- dir_0f41d4b98db5eee2782536f16c8bfcfd&#45;&gt;dir_578bb10d05c7497569e3ae4615cf11b2 -->
<g id="edge7" class="edge"><title>dir_0f41d4b98db5eee2782536f16c8bfcfd&#45;&gt;dir_578bb10d05c7497569e3ae4615cf11b2</title>
<path fill="none" stroke="black" d="M68.4107,-108.104C63.7199,-116.383 57.1422,-126.488 50.5447,-135.64"/>
<polygon fill="black" stroke="black" points="47.7083,-133.589 44.5337,-143.697 53.3189,-137.774 47.7083,-133.589"/>
<g id="a_edge7&#45;headlabel"><a xlink:href="dir_000049_000075.xhtml" target="_top" xlink:title="8">
<text text-anchor="middle" x="47.5821" y="-126.51" font-family="Helvetica,sans-Serif" font-size="10.00">8</text>
</a>
</g>
</g>
<!-- dir_0f41d4b98db5eee2782536f16c8bfcfd&#45;&gt;dir_de18afb36696138c96356a62009637d5 -->
<g id="edge8" class="edge"><title>dir_0f41d4b98db5eee2782536f16c8bfcfd&#45;&gt;dir_de18afb36696138c96356a62009637d5</title>
<path fill="none" stroke="black" d="M66.0899,-71.6966C62.4473,-63.7284 58.0455,-54.0995 54.0065,-45.2641"/>
<polygon fill="black" stroke="black" points="57.1599,-43.7439 49.8191,-36.1043 50.7936,-46.6543 57.1599,-43.7439"/>
<g id="a_edge8&#45;headlabel"><a xlink:href="dir_000049_000072.xhtml" target="_top" xlink:title="48">
<text text-anchor="middle" x="61.2366" y="-43.3327" font-family="Helvetica,sans-Serif" font-size="10.00">48</text>
</a>
</g>
</g>
</g>
</svg>
