<?xml version="1.0" encoding="UTF-8" standalone="no"?>
<!DOCTYPE svg PUBLIC "-//W3C//DTD SVG 1.1//EN"
 "http://www.w3.org/Graphics/SVG/1.1/DTD/svg11.dtd">
<!-- Generated by graphviz version 2.38.0 (20140413.2041)
 -->
<!-- Title: src/gromacs/fileio Pages: 1 -->
<svg width="251pt" height="303pt"
 viewBox="0.00 0.00 251.00 303.00" xmlns="http://www.w3.org/2000/svg" xmlns:xlink="http://www.w3.org/1999/xlink">
<g id="graph0" class="graph" transform="scale(1 1) rotate(0) translate(4 299)">
<title>src/gromacs/fileio</title>
<polygon fill="white" stroke="none" points="-4,4 -4,-299 247,-299 247,4 -4,4"/>
<g id="clust1" class="cluster"><title>clusterdir_a798d384400d41a9e6864d9b1b8753fe</title>
<g id="a_clust1"><a xlink:href="dir_a798d384400d41a9e6864d9b1b8753fe.xhtml" target="_top" xlink:title="gromacs">
<polygon fill="#ddddee" stroke="black" points="77,-200 77,-287 235,-287 235,-200 77,-200"/>
<text text-anchor="middle" x="156" y="-275" font-family="Helvetica,sans-Serif" font-size="10.00">gromacs</text>
</a>
</g>
</g>
<g id="clust2" class="cluster"><title>clusterdir_e4edd9640ed87764dc508602f41f53f3</title>
<g id="a_clust2"><a xlink:href="dir_e4edd9640ed87764dc508602f41f53f3.xhtml" target="_top">
<polygon fill="#eeeeff" stroke="black" points="85,-208 85,-260 227,-260 227,-208 85,-208"/>
</a>
</g>
</g>
<!-- dir_e4edd9640ed87764dc508602f41f53f3 -->
<g id="node1" class="node"><title>dir_e4edd9640ed87764dc508602f41f53f3</title>
<text text-anchor="middle" x="120" y="-231.5" font-family="Helvetica,sans-Serif" font-size="10.00">fileio</text>
</g>
<!-- dir_de18afb36696138c96356a62009637d5 -->
<g id="node4" class="node"><title>dir_de18afb36696138c96356a62009637d5</title>
<g id="a_node4"><a xlink:href="dir_de18afb36696138c96356a62009637d5.xhtml" target="_top" xlink:title="utility">
<polygon fill="white" stroke="red" points="150,-108 96,-108 96,-72 150,-72 150,-108"/>
<text text-anchor="middle" x="123" y="-87.5" font-family="Helvetica,sans-Serif" font-size="10.00">utility</text>
</a>
</g>
</g>
<!-- dir_e4edd9640ed87764dc508602f41f53f3&#45;&gt;dir_de18afb36696138c96356a62009637d5 -->
<g id="edge8" class="edge"><title>dir_e4edd9640ed87764dc508602f41f53f3&#45;&gt;dir_de18afb36696138c96356a62009637d5</title>
<path fill="none" stroke="black" d="M112.107,-215.745C107.893,-205.577 103.143,-192.327 101,-180 98.2598,-164.236 97.8727,-159.691 101,-144 102.791,-135.011 106.137,-125.638 109.687,-117.318"/>
<polygon fill="black" stroke="black" points="112.916,-118.672 113.869,-108.12 106.544,-115.775 112.916,-118.672"/>
<g id="a_edge8&#45;headlabel"><a xlink:href="dir_000018_000072.xhtml" target="_top" xlink:title="154">
<text text-anchor="middle" x="114.013" y="-120.62" font-family="Helvetica,sans-Serif" font-size="10.00">154</text>
</a>
</g>
</g>
<!-- dir_89a1adf13dffb155c372242433532d34 -->
<g id="node5" class="node"><title>dir_89a1adf13dffb155c372242433532d34</title>
<g id="a_node5"><a xlink:href="dir_89a1adf13dffb155c372242433532d34.xhtml" target="_top" xlink:title="math">
<polygon fill="white" stroke="red" points="54,-180 0,-180 0,-144 54,-144 54,-180"/>
<text text-anchor="middle" x="27" y="-159.5" font-family="Helvetica,sans-Serif" font-size="10.00">math</text>
</a>
</g>
</g>
<!-- dir_e4edd9640ed87764dc508602f41f53f3&#45;&gt;dir_89a1adf13dffb155c372242433532d34 -->
<g id="edge9" class="edge"><title>dir_e4edd9640ed87764dc508602f41f53f3&#45;&gt;dir_89a1adf13dffb155c372242433532d34</title>
<path fill="none" stroke="black" d="M97.0112,-215.697C85.1861,-206.796 70.608,-195.823 57.8214,-186.199"/>
<polygon fill="black" stroke="black" points="59.8188,-183.322 49.7243,-180.104 55.6092,-188.915 59.8188,-183.322"/>
<g id="a_edge9&#45;headlabel"><a xlink:href="dir_000018_000036.xhtml" target="_top" xlink:title="1">
<text text-anchor="middle" x="64.3983" y="-180.715" font-family="Helvetica,sans-Serif" font-size="10.00">1</text>
</a>
</g>
</g>
<!-- dir_e98163a2c60455dbdfc349d42edce369 -->
<g id="node6" class="node"><title>dir_e98163a2c60455dbdfc349d42edce369</title>
<g id="a_node6"><a xlink:href="dir_e98163a2c60455dbdfc349d42edce369.xhtml" target="_top" xlink:title="mdtypes">
<polygon fill="none" stroke="black" points="164,-180 110,-180 110,-144 164,-144 164,-180"/>
<text text-anchor="middle" x="137" y="-159.5" font-family="Helvetica,sans-Serif" font-size="10.00">mdtypes</text>
</a>
</g>
</g>
<!-- dir_e4edd9640ed87764dc508602f41f53f3&#45;&gt;dir_e98163a2c60455dbdfc349d42edce369 -->
<g id="edge10" class="edge"><title>dir_e4edd9640ed87764dc508602f41f53f3&#45;&gt;dir_e98163a2c60455dbdfc349d42edce369</title>
<path fill="none" stroke="black" d="M124.202,-215.697C126.096,-207.898 128.377,-198.509 130.484,-189.829"/>
<polygon fill="black" stroke="black" points="133.887,-190.648 132.846,-180.104 127.085,-188.996 133.887,-190.648"/>
<g id="a_edge10&#45;headlabel"><a xlink:href="dir_000018_000039.xhtml" target="_top" xlink:title="7">
<text text-anchor="middle" x="135.798" y="-192.311" font-family="Helvetica,sans-Serif" font-size="10.00">7</text>
</a>
</g>
</g>
<!-- dir_cdec48c43644f1f3ddfd868918af6086 -->
<g id="node2" class="node"><title>dir_cdec48c43644f1f3ddfd868918af6086</title>
<g id="a_node2"><a xlink:href="dir_cdec48c43644f1f3ddfd868918af6086.xhtml" target="_top" xlink:title="tests">
<polygon fill="white" stroke="black" points="219,-252 165,-252 165,-216 219,-216 219,-252"/>
<text text-anchor="middle" x="192" y="-231.5" font-family="Helvetica,sans-Serif" font-size="10.00">tests</text>
</a>
</g>
</g>
<!-- dir_578bb10d05c7497569e3ae4615cf11b2 -->
<g id="node3" class="node"><title>dir_578bb10d05c7497569e3ae4615cf11b2</title>
<g id="a_node3"><a xlink:href="dir_578bb10d05c7497569e3ae4615cf11b2.xhtml" target="_top" xlink:title="testutils">
<polygon fill="white" stroke="red" points="150,-36 96,-36 96,-0 150,-0 150,-36"/>
<text text-anchor="middle" x="123" y="-15.5" font-family="Helvetica,sans-Serif" font-size="10.00">testutils</text>
</a>
</g>
</g>
<!-- dir_cdec48c43644f1f3ddfd868918af6086&#45;&gt;dir_578bb10d05c7497569e3ae4615cf11b2 -->
<g id="edge5" class="edge"><title>dir_cdec48c43644f1f3ddfd868918af6086&#45;&gt;dir_578bb10d05c7497569e3ae4615cf11b2</title>
<path fill="none" stroke="black" d="M194.883,-215.683C197.324,-197.559 199.616,-168.4 194,-144 185.324,-106.309 161.135,-68.4445 143.393,-44.4284"/>
<polygon fill="black" stroke="black" points="146.015,-42.0936 137.189,-36.2329 140.434,-46.3186 146.015,-42.0936"/>
<g id="a_edge5&#45;headlabel"><a xlink:href="dir_000019_000075.xhtml" target="_top" xlink:title="3">
<text text-anchor="middle" x="150.448" y="-40.7459" font-family="Helvetica,sans-Serif" font-size="10.00">3</text>
</a>
</g>
</g>
<!-- dir_cdec48c43644f1f3ddfd868918af6086&#45;&gt;dir_de18afb36696138c96356a62009637d5 -->
<g id="edge6" class="edge"><title>dir_cdec48c43644f1f3ddfd868918af6086&#45;&gt;dir_de18afb36696138c96356a62009637d5</title>
<path fill="none" stroke="black" d="M191.067,-215.668C189.452,-197.016 185.041,-166.944 173,-144 167.509,-133.538 159.369,-123.654 151.243,-115.32"/>
<polygon fill="black" stroke="black" points="153.467,-112.6 143.862,-108.13 148.583,-117.615 153.467,-112.6"/>
<g id="a_edge6&#45;headlabel"><a xlink:href="dir_000019_000072.xhtml" target="_top" xlink:title="5">
<text text-anchor="middle" x="158.023" y="-110.575" font-family="Helvetica,sans-Serif" font-size="10.00">5</text>
</a>
</g>
</g>
<!-- dir_578bb10d05c7497569e3ae4615cf11b2&#45;&gt;dir_de18afb36696138c96356a62009637d5 -->
<g id="edge1" class="edge"><title>dir_578bb10d05c7497569e3ae4615cf11b2&#45;&gt;dir_de18afb36696138c96356a62009637d5</title>
<path fill="none" stroke="black" d="M128.895,-36.1043C129.701,-43.7913 129.937,-53.0537 129.604,-61.6651"/>
<polygon fill="black" stroke="black" points="126.109,-61.4805 128.916,-71.6966 133.092,-61.9597 126.109,-61.4805"/>
<g id="a_edge1&#45;headlabel"><a xlink:href="dir_000075_000072.xhtml" target="_top" xlink:title="63">
<text text-anchor="middle" x="123.522" y="-55.2" font-family="Helvetica,sans-Serif" font-size="10.00">63</text>
</a>
</g>
</g>
<!-- dir_de18afb36696138c96356a62009637d5&#45;&gt;dir_578bb10d05c7497569e3ae4615cf11b2 -->
<g id="edge2" class="edge"><title>dir_de18afb36696138c96356a62009637d5&#45;&gt;dir_578bb10d05c7497569e3ae4615cf11b2</title>
<path fill="none" stroke="black" d="M117.084,-71.6966C116.289,-63.9827 116.062,-54.7125 116.405,-46.1124"/>
<polygon fill="black" stroke="black" points="119.898,-46.3243 117.105,-36.1043 112.915,-45.8356 119.898,-46.3243"/>
<g id="a_edge2&#45;headlabel"><a xlink:href="dir_000072_000075.xhtml" target="_top" xlink:title="3">
<text text-anchor="middle" x="122.48" y="-47.6083" font-family="Helvetica,sans-Serif" font-size="10.00">3</text>
</a>
</g>
</g>
<!-- dir_89a1adf13dffb155c372242433532d34&#45;&gt;dir_578bb10d05c7497569e3ae4615cf11b2 -->
<g id="edge3" class="edge"><title>dir_89a1adf13dffb155c372242433532d34&#45;&gt;dir_578bb10d05c7497569e3ae4615cf11b2</title>
<path fill="none" stroke="black" d="M38.4847,-143.926C50.5483,-126.001 70.0813,-97.0018 87,-72 93.0781,-63.018 99.7483,-53.1899 105.678,-44.4631"/>
<polygon fill="black" stroke="black" points="108.584,-46.4133 111.311,-36.1755 102.795,-42.4781 108.584,-46.4133"/>
<g id="a_edge3&#45;headlabel"><a xlink:href="dir_000036_000075.xhtml" target="_top" xlink:title="3">
<text text-anchor="middle" x="108.912" y="-48.4823" font-family="Helvetica,sans-Serif" font-size="10.00">3</text>
</a>
</g>
</g>
<!-- dir_89a1adf13dffb155c372242433532d34&#45;&gt;dir_de18afb36696138c96356a62009637d5 -->
<g id="edge4" class="edge"><title>dir_89a1adf13dffb155c372242433532d34&#45;&gt;dir_de18afb36696138c96356a62009637d5</title>
<path fill="none" stroke="black" d="M50.7303,-143.697C62.937,-134.796 77.9853,-123.823 91.1844,-114.199"/>
<polygon fill="black" stroke="black" points="93.5247,-116.824 99.5426,-108.104 89.4004,-111.168 93.5247,-116.824"/>
<g id="a_edge4&#45;headlabel"><a xlink:href="dir_000036_000072.xhtml" target="_top" xlink:title="22">
<text text-anchor="middle" x="92.293" y="-118.736" font-family="Helvetica,sans-Serif" font-size="10.00">22</text>
</a>
</g>
</g>
<!-- dir_e98163a2c60455dbdfc349d42edce369&#45;&gt;dir_de18afb36696138c96356a62009637d5 -->
<g id="edge7" class="edge"><title>dir_e98163a2c60455dbdfc349d42edce369&#45;&gt;dir_de18afb36696138c96356a62009637d5</title>
<path fill="none" stroke="black" d="M133.539,-143.697C131.997,-135.983 130.142,-126.712 128.422,-118.112"/>
<polygon fill="black" stroke="black" points="131.814,-117.224 126.421,-108.104 124.95,-118.597 131.814,-117.224"/>
<g id="a_edge7&#45;headlabel"><a xlink:href="dir_000039_000072.xhtml" target="_top" xlink:title="32">
<text text-anchor="middle" x="135.303" y="-117.692" font-family="Helvetica,sans-Serif" font-size="10.00">32</text>
</a>
</g>
</g>
</g>
</svg>
