<?xml version="1.0" encoding="UTF-8" standalone="no"?>
<!DOCTYPE svg PUBLIC "-//W3C//DTD SVG 1.1//EN"
 "http://www.w3.org/Graphics/SVG/1.1/DTD/svg11.dtd">
<!-- Generated by graphviz version 2.38.0 (20140413.2041)
 -->
<!-- Title: src/gromacs/trajectoryanalysis Pages: 1 -->
<svg width="574pt" height="663pt"
 viewBox="0.00 0.00 574.00 663.00" xmlns="http://www.w3.org/2000/svg" xmlns:xlink="http://www.w3.org/1999/xlink">
<g id="graph0" class="graph" transform="scale(1 1) rotate(0) translate(4 659)">
<title>src/gromacs/trajectoryanalysis</title>
<polygon fill="white" stroke="none" points="-4,4 -4,-659 570,-659 570,4 -4,4"/>
<g id="clust1" class="cluster"><title>clusterdir_a798d384400d41a9e6864d9b1b8753fe</title>
<g id="a_clust1"><a xlink:href="dir_a798d384400d41a9e6864d9b1b8753fe.xhtml" target="_top" xlink:title="gromacs">
<polygon fill="#ddddee" stroke="black" points="244,-560 244,-647 513,-647 513,-560 244,-560"/>
<text text-anchor="middle" x="378.5" y="-635" font-family="Helvetica,sans-Serif" font-size="10.00">gromacs</text>
</a>
</g>
</g>
<g id="clust2" class="cluster"><title>clusterdir_671fa77a033d3a87d35c777a90505a4f</title>
<g id="a_clust2"><a xlink:href="dir_671fa77a033d3a87d35c777a90505a4f.xhtml" target="_top">
<polygon fill="#eeeeff" stroke="black" points="252,-568 252,-620 505,-620 505,-568 252,-568"/>
</a>
</g>
</g>
<!-- dir_671fa77a033d3a87d35c777a90505a4f -->
<g id="node1" class="node"><title>dir_671fa77a033d3a87d35c777a90505a4f</title>
<text text-anchor="middle" x="451" y="-591.5" font-family="Helvetica,sans-Serif" font-size="10.00">trajectoryanalysis</text>
</g>
<!-- dir_7ffa1e74ac5f7371b88f03d07d206f3e -->
<g id="node2" class="node"><title>dir_7ffa1e74ac5f7371b88f03d07d206f3e</title>
<g id="a_node2"><a xlink:href="dir_7ffa1e74ac5f7371b88f03d07d206f3e.xhtml" target="_top" xlink:title="modules">
<polygon fill="white" stroke="black" points="386,-612 332,-612 332,-576 386,-576 386,-612"/>
<text text-anchor="middle" x="359" y="-591.5" font-family="Helvetica,sans-Serif" font-size="10.00">modules</text>
</a>
</g>
</g>
<!-- dir_de18afb36696138c96356a62009637d5 -->
<g id="node5" class="node"><title>dir_de18afb36696138c96356a62009637d5</title>
<g id="a_node5"><a xlink:href="dir_de18afb36696138c96356a62009637d5.xhtml" target="_top" xlink:title="utility">
<polygon fill="white" stroke="red" points="386,-252 332,-252 332,-216 386,-216 386,-252"/>
<text text-anchor="middle" x="359" y="-231.5" font-family="Helvetica,sans-Serif" font-size="10.00">utility</text>
</a>
</g>
</g>
<!-- dir_7ffa1e74ac5f7371b88f03d07d206f3e&#45;&gt;dir_de18afb36696138c96356a62009637d5 -->
<g id="edge26" class="edge"><title>dir_7ffa1e74ac5f7371b88f03d07d206f3e&#45;&gt;dir_de18afb36696138c96356a62009637d5</title>
<path fill="none" stroke="black" d="M374.627,-575.885C380.552,-570.191 387.652,-564.231 395,-560 420.826,-545.13 436.412,-559.439 459,-540 485.969,-516.791 486.019,-502.674 494,-468 512.091,-389.405 522.549,-350.026 471,-288 451.907,-265.026 420.571,-251.381 395.894,-243.704"/>
<polygon fill="black" stroke="black" points="396.702,-240.294 386.122,-240.862 394.747,-247.016 396.702,-240.294"/>
<g id="a_edge26&#45;headlabel"><a xlink:href="dir_000071_000072.xhtml" target="_top" xlink:title="33">
<text text-anchor="middle" x="400.946" y="-236.072" font-family="Helvetica,sans-Serif" font-size="10.00">33</text>
</a>
</g>
</g>
<!-- dir_469b69bcc9974317923f9c731e4e9e8d -->
<g id="node7" class="node"><title>dir_469b69bcc9974317923f9c731e4e9e8d</title>
<g id="a_node7"><a xlink:href="dir_469b69bcc9974317923f9c731e4e9e8d.xhtml" target="_top" xlink:title="analysisdata">
<polygon fill="white" stroke="red" points="292.5,-540 221.5,-540 221.5,-504 292.5,-504 292.5,-540"/>
<text text-anchor="middle" x="257" y="-519.5" font-family="Helvetica,sans-Serif" font-size="10.00">analysisdata</text>
</a>
</g>
</g>
<!-- dir_7ffa1e74ac5f7371b88f03d07d206f3e&#45;&gt;dir_469b69bcc9974317923f9c731e4e9e8d -->
<g id="edge27" class="edge"><title>dir_7ffa1e74ac5f7371b88f03d07d206f3e&#45;&gt;dir_469b69bcc9974317923f9c731e4e9e8d</title>
<path fill="none" stroke="black" d="M341.753,-575.694C336.025,-570.363 329.456,-564.672 323,-560 315.732,-554.74 307.645,-549.654 299.692,-545.022"/>
<polygon fill="black" stroke="black" points="301.248,-541.881 290.822,-540.001 297.8,-547.973 301.248,-541.881"/>
<g id="a_edge27&#45;headlabel"><a xlink:href="dir_000071_000006.xhtml" target="_top" xlink:title="26">
<text text-anchor="middle" x="305.775" y="-538.681" font-family="Helvetica,sans-Serif" font-size="10.00">26</text>
</a>
</g>
</g>
<!-- dir_89a1adf13dffb155c372242433532d34 -->
<g id="node8" class="node"><title>dir_89a1adf13dffb155c372242433532d34</title>
<g id="a_node8"><a xlink:href="dir_89a1adf13dffb155c372242433532d34.xhtml" target="_top" xlink:title="math">
<polygon fill="white" stroke="red" points="462,-324 408,-324 408,-288 462,-288 462,-324"/>
<text text-anchor="middle" x="435" y="-303.5" font-family="Helvetica,sans-Serif" font-size="10.00">math</text>
</a>
</g>
</g>
<!-- dir_7ffa1e74ac5f7371b88f03d07d206f3e&#45;&gt;dir_89a1adf13dffb155c372242433532d34 -->
<g id="edge28" class="edge"><title>dir_7ffa1e74ac5f7371b88f03d07d206f3e&#45;&gt;dir_89a1adf13dffb155c372242433532d34</title>
<path fill="none" stroke="black" d="M375.839,-575.974C381.65,-570.542 388.37,-564.721 395,-560 410.227,-549.158 420.394,-554.654 432,-540 482.823,-475.833 495.06,-438.241 471,-360 467.991,-350.215 462.493,-340.616 456.684,-332.334"/>
<polygon fill="black" stroke="black" points="459.407,-330.131 450.61,-324.226 453.805,-334.328 459.407,-330.131"/>
<g id="a_edge28&#45;headlabel"><a xlink:href="dir_000071_000036.xhtml" target="_top" xlink:title="3">
<text text-anchor="middle" x="463.835" y="-328.805" font-family="Helvetica,sans-Serif" font-size="10.00">3</text>
</a>
</g>
</g>
<!-- dir_aa770a1c85b1dd65249ff2086d775c37 -->
<g id="node9" class="node"><title>dir_aa770a1c85b1dd65249ff2086d775c37</title>
<g id="a_node9"><a xlink:href="dir_aa770a1c85b1dd65249ff2086d775c37.xhtml" target="_top" xlink:title="selection">
<polygon fill="white" stroke="red" points="360,-468 304,-468 304,-432 360,-432 360,-468"/>
<text text-anchor="middle" x="332" y="-447.5" font-family="Helvetica,sans-Serif" font-size="10.00">selection</text>
</a>
</g>
</g>
<!-- dir_7ffa1e74ac5f7371b88f03d07d206f3e&#45;&gt;dir_aa770a1c85b1dd65249ff2086d775c37 -->
<g id="edge29" class="edge"><title>dir_7ffa1e74ac5f7371b88f03d07d206f3e&#45;&gt;dir_aa770a1c85b1dd65249ff2086d775c37</title>
<path fill="none" stroke="black" d="M355.743,-575.871C351.142,-551.67 342.688,-507.211 337.209,-478.393"/>
<polygon fill="black" stroke="black" points="340.575,-477.359 335.268,-468.189 333.698,-478.667 340.575,-477.359"/>
<g id="a_edge29&#45;headlabel"><a xlink:href="dir_000071_000056.xhtml" target="_top" xlink:title="18">
<text text-anchor="middle" x="344.035" y="-477.86" font-family="Helvetica,sans-Serif" font-size="10.00">18</text>
</a>
</g>
</g>
<!-- dir_0f41d4b98db5eee2782536f16c8bfcfd -->
<g id="node10" class="node"><title>dir_0f41d4b98db5eee2782536f16c8bfcfd</title>
<g id="a_node10"><a xlink:href="dir_0f41d4b98db5eee2782536f16c8bfcfd.xhtml" target="_top" xlink:title="options">
<polygon fill="white" stroke="red" points="294,-36 240,-36 240,-0 294,-0 294,-36"/>
<text text-anchor="middle" x="267" y="-15.5" font-family="Helvetica,sans-Serif" font-size="10.00">options</text>
</a>
</g>
</g>
<!-- dir_7ffa1e74ac5f7371b88f03d07d206f3e&#45;&gt;dir_0f41d4b98db5eee2782536f16c8bfcfd -->
<g id="edge30" class="edge"><title>dir_7ffa1e74ac5f7371b88f03d07d206f3e&#45;&gt;dir_0f41d4b98db5eee2782536f16c8bfcfd</title>
<path fill="none" stroke="black" d="M374.073,-575.861C380.046,-570.025 387.321,-563.978 395,-560 432.154,-540.751 450.885,-561.134 487,-540 532.649,-513.287 566,-503.891 566,-451 566,-451 566,-451 566,-161 566,-46.3311 384.342,-24.1486 304.215,-19.9416"/>
<polygon fill="black" stroke="black" points="304.211,-16.4379 294.062,-19.4769 303.891,-23.4306 304.211,-16.4379"/>
<g id="a_edge30&#45;headlabel"><a xlink:href="dir_000071_000049.xhtml" target="_top" xlink:title="21">
<text text-anchor="middle" x="307.932" y="-11.2658" font-family="Helvetica,sans-Serif" font-size="10.00">21</text>
</a>
</g>
</g>
<!-- dir_514bc78bc4c8cd6732d6db5b240d2f74 -->
<g id="node11" class="node"><title>dir_514bc78bc4c8cd6732d6db5b240d2f74</title>
<g id="a_node11"><a xlink:href="dir_514bc78bc4c8cd6732d6db5b240d2f74.xhtml" target="_top" xlink:title="random">
<polygon fill="white" stroke="red" points="462,-396 408,-396 408,-360 462,-360 462,-396"/>
<text text-anchor="middle" x="435" y="-375.5" font-family="Helvetica,sans-Serif" font-size="10.00">random</text>
</a>
</g>
</g>
<!-- dir_7ffa1e74ac5f7371b88f03d07d206f3e&#45;&gt;dir_514bc78bc4c8cd6732d6db5b240d2f74 -->
<g id="edge31" class="edge"><title>dir_7ffa1e74ac5f7371b88f03d07d206f3e&#45;&gt;dir_514bc78bc4c8cd6732d6db5b240d2f74</title>
<path fill="none" stroke="black" d="M378.05,-575.96C391.148,-563.821 406.892,-548.251 411,-540 432.5,-496.815 435.998,-439.636 435.943,-406.327"/>
<polygon fill="black" stroke="black" points="439.438,-405.955 435.809,-396.001 432.439,-406.046 439.438,-405.955"/>
<g id="a_edge31&#45;headlabel"><a xlink:href="dir_000071_000054.xhtml" target="_top" xlink:title="2">
<text text-anchor="middle" x="442.324" y="-407.012" font-family="Helvetica,sans-Serif" font-size="10.00">2</text>
</a>
</g>
</g>
<!-- dir_5a8693df28d4694e3651897628e5bddf -->
<g id="node3" class="node"><title>dir_5a8693df28d4694e3651897628e5bddf</title>
<g id="a_node3"><a xlink:href="dir_5a8693df28d4694e3651897628e5bddf.xhtml" target="_top" xlink:title="tests">
<polygon fill="white" stroke="black" points="314,-612 260,-612 260,-576 314,-576 314,-612"/>
<text text-anchor="middle" x="287" y="-591.5" font-family="Helvetica,sans-Serif" font-size="10.00">tests</text>
</a>
</g>
</g>
<!-- dir_578bb10d05c7497569e3ae4615cf11b2 -->
<g id="node4" class="node"><title>dir_578bb10d05c7497569e3ae4615cf11b2</title>
<g id="a_node4"><a xlink:href="dir_578bb10d05c7497569e3ae4615cf11b2.xhtml" target="_top" xlink:title="testutils">
<polygon fill="white" stroke="red" points="331,-180 277,-180 277,-144 331,-144 331,-180"/>
<text text-anchor="middle" x="304" y="-159.5" font-family="Helvetica,sans-Serif" font-size="10.00">testutils</text>
</a>
</g>
</g>
<!-- dir_5a8693df28d4694e3651897628e5bddf&#45;&gt;dir_578bb10d05c7497569e3ae4615cf11b2 -->
<g id="edge8" class="edge"><title>dir_5a8693df28d4694e3651897628e5bddf&#45;&gt;dir_578bb10d05c7497569e3ae4615cf11b2</title>
<path fill="none" stroke="black" d="M259.629,-583.67C240.27,-575.466 215.748,-561.441 204,-540 196.312,-525.968 202.36,-519.916 204,-504 216.47,-383.003 269.047,-246.116 292.557,-189.584"/>
<polygon fill="black" stroke="black" points="295.815,-190.867 296.462,-180.292 289.361,-188.155 295.815,-190.867"/>
<g id="a_edge8&#45;headlabel"><a xlink:href="dir_000070_000075.xhtml" target="_top" xlink:title="23">
<text text-anchor="middle" x="297.04" y="-192.78" font-family="Helvetica,sans-Serif" font-size="10.00">23</text>
</a>
</g>
</g>
<!-- dir_5a8693df28d4694e3651897628e5bddf&#45;&gt;dir_de18afb36696138c96356a62009637d5 -->
<g id="edge9" class="edge"><title>dir_5a8693df28d4694e3651897628e5bddf&#45;&gt;dir_de18afb36696138c96356a62009637d5</title>
<path fill="none" stroke="black" d="M259.96,-581.864C242.817,-573.212 222.044,-559.397 212,-540 204.643,-525.792 208.21,-519.545 212,-504 235.867,-406.123 304.815,-305.91 339.123,-260.334"/>
<polygon fill="black" stroke="black" points="342.03,-262.295 345.304,-252.218 336.461,-258.054 342.03,-262.295"/>
<g id="a_edge9&#45;headlabel"><a xlink:href="dir_000070_000072.xhtml" target="_top" xlink:title="7">
<text text-anchor="middle" x="342.111" y="-264.375" font-family="Helvetica,sans-Serif" font-size="10.00">7</text>
</a>
</g>
</g>
<!-- dir_da0072eb60d31f378848661c417de134 -->
<g id="node6" class="node"><title>dir_da0072eb60d31f378848661c417de134</title>
<g id="a_node6"><a xlink:href="dir_da0072eb60d31f378848661c417de134.xhtml" target="_top" xlink:title="commandline">
<polygon fill="white" stroke="red" points="267,-108 193,-108 193,-72 267,-72 267,-108"/>
<text text-anchor="middle" x="230" y="-87.5" font-family="Helvetica,sans-Serif" font-size="10.00">commandline</text>
</a>
</g>
</g>
<!-- dir_5a8693df28d4694e3651897628e5bddf&#45;&gt;dir_da0072eb60d31f378848661c417de134 -->
<g id="edge10" class="edge"><title>dir_5a8693df28d4694e3651897628e5bddf&#45;&gt;dir_da0072eb60d31f378848661c417de134</title>
<path fill="none" stroke="black" d="M259.847,-587.992C202.86,-575.748 76,-538.648 76,-451 76,-451 76,-451 76,-305 76,-222.481 152.372,-150.058 197.551,-114.434"/>
<polygon fill="black" stroke="black" points="199.825,-117.099 205.598,-108.216 195.545,-111.56 199.825,-117.099"/>
<g id="a_edge10&#45;headlabel"><a xlink:href="dir_000070_000009.xhtml" target="_top" xlink:title="3">
<text text-anchor="middle" x="198.716" y="-119.044" font-family="Helvetica,sans-Serif" font-size="10.00">3</text>
</a>
</g>
</g>
<!-- dir_5a8693df28d4694e3651897628e5bddf&#45;&gt;dir_469b69bcc9974317923f9c731e4e9e8d -->
<g id="edge11" class="edge"><title>dir_5a8693df28d4694e3651897628e5bddf&#45;&gt;dir_469b69bcc9974317923f9c731e4e9e8d</title>
<path fill="none" stroke="black" d="M279.584,-575.697C276.206,-567.813 272.13,-558.304 268.377,-549.546"/>
<polygon fill="black" stroke="black" points="271.487,-547.917 264.33,-540.104 265.053,-550.675 271.487,-547.917"/>
<g id="a_edge11&#45;headlabel"><a xlink:href="dir_000070_000006.xhtml" target="_top" xlink:title="1">
<text text-anchor="middle" x="275.512" y="-547.603" font-family="Helvetica,sans-Serif" font-size="10.00">1</text>
</a>
</g>
</g>
<!-- dir_5a8693df28d4694e3651897628e5bddf&#45;&gt;dir_aa770a1c85b1dd65249ff2086d775c37 -->
<g id="edge12" class="edge"><title>dir_5a8693df28d4694e3651897628e5bddf&#45;&gt;dir_aa770a1c85b1dd65249ff2086d775c37</title>
<path fill="none" stroke="black" d="M292.428,-575.871C300.131,-551.564 314.311,-506.819 323.439,-478.013"/>
<polygon fill="black" stroke="black" points="326.868,-478.779 326.553,-468.189 320.195,-476.665 326.868,-478.779"/>
<g id="a_edge12&#45;headlabel"><a xlink:href="dir_000070_000056.xhtml" target="_top" xlink:title="2">
<text text-anchor="middle" x="328.489" y="-480.564" font-family="Helvetica,sans-Serif" font-size="10.00">2</text>
</a>
</g>
</g>
<!-- dir_5a8693df28d4694e3651897628e5bddf&#45;&gt;dir_0f41d4b98db5eee2782536f16c8bfcfd -->
<g id="edge13" class="edge"><title>dir_5a8693df28d4694e3651897628e5bddf&#45;&gt;dir_0f41d4b98db5eee2782536f16c8bfcfd</title>
<path fill="none" stroke="black" d="M260,-592.062C188.555,-588 0,-566.353 0,-451 0,-451 0,-451 0,-161 0,-114.733 16.7422,-99.4317 54,-72 106.525,-33.3275 184.034,-22.6756 229.636,-19.8627"/>
<polygon fill="black" stroke="black" points="229.88,-23.3548 239.684,-19.3385 229.516,-16.3643 229.88,-23.3548"/>
<g id="a_edge13&#45;headlabel"><a xlink:href="dir_000070_000049.xhtml" target="_top" xlink:title="4">
<text text-anchor="middle" x="226.438" y="-23.8774" font-family="Helvetica,sans-Serif" font-size="10.00">4</text>
</a>
</g>
</g>
<!-- dir_5a8693df28d4694e3651897628e5bddf&#45;&gt;dir_514bc78bc4c8cd6732d6db5b240d2f74 -->
<g id="edge14" class="edge"><title>dir_5a8693df28d4694e3651897628e5bddf&#45;&gt;dir_514bc78bc4c8cd6732d6db5b240d2f74</title>
<path fill="none" stroke="black" d="M299.023,-575.832C306.273,-565.466 315.684,-551.986 324,-540 357.079,-492.319 395.47,-436.535 417.333,-404.725"/>
<polygon fill="black" stroke="black" points="420.264,-406.639 423.043,-396.415 414.495,-402.675 420.264,-406.639"/>
<g id="a_edge14&#45;headlabel"><a xlink:href="dir_000070_000054.xhtml" target="_top" xlink:title="2">
<text text-anchor="middle" x="420.568" y="-408.71" font-family="Helvetica,sans-Serif" font-size="10.00">2</text>
</a>
</g>
</g>
<!-- dir_578bb10d05c7497569e3ae4615cf11b2&#45;&gt;dir_de18afb36696138c96356a62009637d5 -->
<g id="edge1" class="edge"><title>dir_578bb10d05c7497569e3ae4615cf11b2&#45;&gt;dir_de18afb36696138c96356a62009637d5</title>
<path fill="none" stroke="black" d="M323.334,-180.104C330.631,-188.298 338.687,-198.282 345.385,-207.359"/>
<polygon fill="black" stroke="black" points="342.669,-209.58 351.32,-215.697 348.372,-205.52 342.669,-209.58"/>
<g id="a_edge1&#45;headlabel"><a xlink:href="dir_000075_000072.xhtml" target="_top" xlink:title="63">
<text text-anchor="middle" x="338.271" y="-205.799" font-family="Helvetica,sans-Serif" font-size="10.00">63</text>
</a>
</g>
</g>
<!-- dir_578bb10d05c7497569e3ae4615cf11b2&#45;&gt;dir_da0072eb60d31f378848661c417de134 -->
<g id="edge2" class="edge"><title>dir_578bb10d05c7497569e3ae4615cf11b2&#45;&gt;dir_da0072eb60d31f378848661c417de134</title>
<path fill="none" stroke="black" d="M279.792,-143.697C269.858,-135.135 258.599,-124.656 249.232,-115.304"/>
<polygon fill="black" stroke="black" points="251.682,-112.804 242.187,-108.104 246.679,-117.7 251.682,-112.804"/>
<g id="a_edge2&#45;headlabel"><a xlink:href="dir_000075_000009.xhtml" target="_top" xlink:title="8">
<text text-anchor="middle" x="256.225" y="-110.888" font-family="Helvetica,sans-Serif" font-size="10.00">8</text>
</a>
</g>
</g>
<!-- dir_578bb10d05c7497569e3ae4615cf11b2&#45;&gt;dir_0f41d4b98db5eee2782536f16c8bfcfd -->
<g id="edge3" class="edge"><title>dir_578bb10d05c7497569e3ae4615cf11b2&#45;&gt;dir_0f41d4b98db5eee2782536f16c8bfcfd</title>
<path fill="none" stroke="black" d="M294.952,-143.871C286.088,-119.67 274.212,-75.2108 268.679,-46.3932"/>
<polygon fill="black" stroke="black" points="272.064,-45.4337 266.888,-36.1893 265.169,-46.6437 272.064,-45.4337"/>
<g id="a_edge3&#45;headlabel"><a xlink:href="dir_000075_000049.xhtml" target="_top" xlink:title="10">
<text text-anchor="middle" x="275.482" y="-45.9835" font-family="Helvetica,sans-Serif" font-size="10.00">10</text>
</a>
</g>
</g>
<!-- dir_de18afb36696138c96356a62009637d5&#45;&gt;dir_578bb10d05c7497569e3ae4615cf11b2 -->
<g id="edge4" class="edge"><title>dir_de18afb36696138c96356a62009637d5&#45;&gt;dir_578bb10d05c7497569e3ae4615cf11b2</title>
<path fill="none" stroke="black" d="M339.489,-215.697C332.18,-207.474 324.129,-197.483 317.453,-188.421"/>
<polygon fill="black" stroke="black" points="320.189,-186.229 311.544,-180.104 314.483,-190.283 320.189,-186.229"/>
<g id="a_edge4&#45;headlabel"><a xlink:href="dir_000072_000075.xhtml" target="_top" xlink:title="3">
<text text-anchor="middle" x="324.586" y="-185.014" font-family="Helvetica,sans-Serif" font-size="10.00">3</text>
</a>
</g>
</g>
<!-- dir_da0072eb60d31f378848661c417de134&#45;&gt;dir_578bb10d05c7497569e3ae4615cf11b2 -->
<g id="edge5" class="edge"><title>dir_da0072eb60d31f378848661c417de134&#45;&gt;dir_578bb10d05c7497569e3ae4615cf11b2</title>
<path fill="none" stroke="black" d="M253.977,-108.104C263.89,-116.636 275.154,-127.108 284.55,-136.478"/>
<polygon fill="black" stroke="black" points="282.125,-139.004 291.624,-143.697 287.125,-134.104 282.125,-139.004"/>
<g id="a_edge5&#45;headlabel"><a xlink:href="dir_000009_000075.xhtml" target="_top" xlink:title="14">
<text text-anchor="middle" x="277.581" y="-135.923" font-family="Helvetica,sans-Serif" font-size="10.00">14</text>
</a>
</g>
</g>
<!-- dir_da0072eb60d31f378848661c417de134&#45;&gt;dir_de18afb36696138c96356a62009637d5 -->
<g id="edge6" class="edge"><title>dir_da0072eb60d31f378848661c417de134&#45;&gt;dir_de18afb36696138c96356a62009637d5</title>
<path fill="none" stroke="black" d="M233.85,-108.166C238.914,-127.504 249.426,-158.971 268,-180 282.841,-196.804 304.344,-209.67 322.721,-218.515"/>
<polygon fill="black" stroke="black" points="321.446,-221.781 331.995,-222.774 324.368,-215.42 321.446,-221.781"/>
<g id="a_edge6&#45;headlabel"><a xlink:href="dir_000009_000072.xhtml" target="_top" xlink:title="93">
<text text-anchor="middle" x="316.995" y="-220.361" font-family="Helvetica,sans-Serif" font-size="10.00">93</text>
</a>
</g>
</g>
<!-- dir_da0072eb60d31f378848661c417de134&#45;&gt;dir_0f41d4b98db5eee2782536f16c8bfcfd -->
<g id="edge7" class="edge"><title>dir_da0072eb60d31f378848661c417de134&#45;&gt;dir_0f41d4b98db5eee2782536f16c8bfcfd</title>
<path fill="none" stroke="black" d="M239.146,-71.6966C243.403,-63.6436 248.556,-53.8945 253.266,-44.9824"/>
<polygon fill="black" stroke="black" points="256.38,-46.5809 257.959,-36.1043 250.192,-43.3097 256.38,-46.5809"/>
<g id="a_edge7&#45;headlabel"><a xlink:href="dir_000009_000049.xhtml" target="_top" xlink:title="31">
<text text-anchor="middle" x="257.211" y="-48.5857" font-family="Helvetica,sans-Serif" font-size="10.00">31</text>
</a>
</g>
</g>
<!-- dir_469b69bcc9974317923f9c731e4e9e8d&#45;&gt;dir_578bb10d05c7497569e3ae4615cf11b2 -->
<g id="edge15" class="edge"><title>dir_469b69bcc9974317923f9c731e4e9e8d&#45;&gt;dir_578bb10d05c7497569e3ae4615cf11b2</title>
<path fill="none" stroke="black" d="M259.267,-503.733C266.821,-446.194 291.179,-260.658 300.409,-190.351"/>
<polygon fill="black" stroke="black" points="303.924,-190.464 301.756,-180.094 296.984,-189.553 303.924,-190.464"/>
<g id="a_edge15&#45;headlabel"><a xlink:href="dir_000006_000075.xhtml" target="_top" xlink:title="10">
<text text-anchor="middle" x="306.272" y="-191.898" font-family="Helvetica,sans-Serif" font-size="10.00">10</text>
</a>
</g>
</g>
<!-- dir_469b69bcc9974317923f9c731e4e9e8d&#45;&gt;dir_de18afb36696138c96356a62009637d5 -->
<g id="edge16" class="edge"><title>dir_469b69bcc9974317923f9c731e4e9e8d&#45;&gt;dir_de18afb36696138c96356a62009637d5</title>
<path fill="none" stroke="black" d="M263.075,-503.966C280.149,-456.093 328.664,-320.06 349.405,-261.904"/>
<polygon fill="black" stroke="black" points="352.765,-262.901 352.828,-252.306 346.172,-260.55 352.765,-262.901"/>
<g id="a_edge16&#45;headlabel"><a xlink:href="dir_000006_000072.xhtml" target="_top" xlink:title="51">
<text text-anchor="middle" x="354.232" y="-264.741" font-family="Helvetica,sans-Serif" font-size="10.00">51</text>
</a>
</g>
</g>
<!-- dir_469b69bcc9974317923f9c731e4e9e8d&#45;&gt;dir_aa770a1c85b1dd65249ff2086d775c37 -->
<g id="edge17" class="edge"><title>dir_469b69bcc9974317923f9c731e4e9e8d&#45;&gt;dir_aa770a1c85b1dd65249ff2086d775c37</title>
<path fill="none" stroke="black" d="M275.539,-503.697C284.803,-495.05 296.162,-484.449 306.257,-475.027"/>
<polygon fill="black" stroke="black" points="308.751,-477.486 313.674,-468.104 303.975,-472.369 308.751,-477.486"/>
<g id="a_edge17&#45;headlabel"><a xlink:href="dir_000006_000056.xhtml" target="_top" xlink:title="1">
<text text-anchor="middle" x="308.061" y="-479.515" font-family="Helvetica,sans-Serif" font-size="10.00">1</text>
</a>
</g>
</g>
<!-- dir_469b69bcc9974317923f9c731e4e9e8d&#45;&gt;dir_0f41d4b98db5eee2782536f16c8bfcfd -->
<g id="edge18" class="edge"><title>dir_469b69bcc9974317923f9c731e4e9e8d&#45;&gt;dir_0f41d4b98db5eee2782536f16c8bfcfd</title>
<path fill="none" stroke="black" d="M221.326,-514.822C159.27,-501.805 38,-465.323 38,-379 38,-379 38,-379 38,-161 38,-71.9306 164.675,-36.8026 229.596,-24.6482"/>
<polygon fill="black" stroke="black" points="230.599,-28.0246 239.831,-22.8265 229.373,-21.1329 230.599,-28.0246"/>
<g id="a_edge18&#45;headlabel"><a xlink:href="dir_000006_000049.xhtml" target="_top" xlink:title="4">
<text text-anchor="middle" x="227.558" y="-28.9497" font-family="Helvetica,sans-Serif" font-size="10.00">4</text>
</a>
</g>
</g>
<!-- dir_89a1adf13dffb155c372242433532d34&#45;&gt;dir_578bb10d05c7497569e3ae4615cf11b2 -->
<g id="edge19" class="edge"><title>dir_89a1adf13dffb155c372242433532d34&#45;&gt;dir_578bb10d05c7497569e3ae4615cf11b2</title>
<path fill="none" stroke="black" d="M430.721,-287.833C425.182,-268.494 413.927,-237.026 395,-216 380.105,-199.453 358.79,-186.656 340.533,-177.785"/>
<polygon fill="black" stroke="black" points="341.859,-174.542 331.315,-173.505 338.911,-180.891 341.859,-174.542"/>
<g id="a_edge19&#45;headlabel"><a xlink:href="dir_000036_000075.xhtml" target="_top" xlink:title="3">
<text text-anchor="middle" x="346.315" y="-170.98" font-family="Helvetica,sans-Serif" font-size="10.00">3</text>
</a>
</g>
</g>
<!-- dir_89a1adf13dffb155c372242433532d34&#45;&gt;dir_de18afb36696138c96356a62009637d5 -->
<g id="edge20" class="edge"><title>dir_89a1adf13dffb155c372242433532d34&#45;&gt;dir_de18afb36696138c96356a62009637d5</title>
<path fill="none" stroke="black" d="M416.213,-287.697C406.826,-279.05 395.316,-268.449 385.087,-259.027"/>
<polygon fill="black" stroke="black" points="387.297,-256.305 377.57,-252.104 382.555,-261.454 387.297,-256.305"/>
<g id="a_edge20&#45;headlabel"><a xlink:href="dir_000036_000072.xhtml" target="_top" xlink:title="22">
<text text-anchor="middle" x="391.865" y="-254.152" font-family="Helvetica,sans-Serif" font-size="10.00">22</text>
</a>
</g>
</g>
<!-- dir_aa770a1c85b1dd65249ff2086d775c37&#45;&gt;dir_578bb10d05c7497569e3ae4615cf11b2 -->
<g id="edge21" class="edge"><title>dir_aa770a1c85b1dd65249ff2086d775c37&#45;&gt;dir_578bb10d05c7497569e3ae4615cf11b2</title>
<path fill="none" stroke="black" d="M330.332,-431.966C325.655,-384.192 312.383,-248.623 306.669,-190.266"/>
<polygon fill="black" stroke="black" points="310.152,-189.918 305.694,-180.306 303.185,-190.6 310.152,-189.918"/>
<g id="a_edge21&#45;headlabel"><a xlink:href="dir_000056_000075.xhtml" target="_top" xlink:title="11">
<text text-anchor="middle" x="313.328" y="-190.719" font-family="Helvetica,sans-Serif" font-size="10.00">11</text>
</a>
</g>
</g>
<!-- dir_aa770a1c85b1dd65249ff2086d775c37&#45;&gt;dir_de18afb36696138c96356a62009637d5 -->
<g id="edge22" class="edge"><title>dir_aa770a1c85b1dd65249ff2086d775c37&#45;&gt;dir_de18afb36696138c96356a62009637d5</title>
<path fill="none" stroke="black" d="M334.164,-431.849C338.834,-394.832 349.893,-307.181 355.545,-262.386"/>
<polygon fill="black" stroke="black" points="359.046,-262.592 356.826,-252.232 352.101,-261.716 359.046,-262.592"/>
<g id="a_edge22&#45;headlabel"><a xlink:href="dir_000056_000072.xhtml" target="_top" xlink:title="144">
<text text-anchor="middle" x="361.414" y="-264.014" font-family="Helvetica,sans-Serif" font-size="10.00">144</text>
</a>
</g>
</g>
<!-- dir_aa770a1c85b1dd65249ff2086d775c37&#45;&gt;dir_89a1adf13dffb155c372242433532d34 -->
<g id="edge23" class="edge"><title>dir_aa770a1c85b1dd65249ff2086d775c37&#45;&gt;dir_89a1adf13dffb155c372242433532d34</title>
<path fill="none" stroke="black" d="M344.424,-431.871C362.365,-407.137 395.655,-361.242 416.495,-332.512"/>
<polygon fill="black" stroke="black" points="419.493,-334.339 422.532,-324.189 413.827,-330.229 419.493,-334.339"/>
<g id="a_edge23&#45;headlabel"><a xlink:href="dir_000056_000036.xhtml" target="_top" xlink:title="3">
<text text-anchor="middle" x="419.681" y="-336.416" font-family="Helvetica,sans-Serif" font-size="10.00">3</text>
</a>
</g>
</g>
<!-- dir_aa770a1c85b1dd65249ff2086d775c37&#45;&gt;dir_0f41d4b98db5eee2782536f16c8bfcfd -->
<g id="edge24" class="edge"><title>dir_aa770a1c85b1dd65249ff2086d775c37&#45;&gt;dir_0f41d4b98db5eee2782536f16c8bfcfd</title>
<path fill="none" stroke="black" d="M303.947,-437.395C245.068,-410.955 114,-340.275 114,-235 114,-235 114,-235 114,-161 114,-97.5626 185.537,-54.4865 230.779,-33.5871"/>
<polygon fill="black" stroke="black" points="232.299,-36.7417 239.999,-29.4647 229.441,-30.3514 232.299,-36.7417"/>
<g id="a_edge24&#45;headlabel"><a xlink:href="dir_000056_000049.xhtml" target="_top" xlink:title="16">
<text text-anchor="middle" x="230.176" y="-38.3009" font-family="Helvetica,sans-Serif" font-size="10.00">16</text>
</a>
</g>
</g>
<!-- dir_aa770a1c85b1dd65249ff2086d775c37&#45;&gt;dir_514bc78bc4c8cd6732d6db5b240d2f74 -->
<g id="edge25" class="edge"><title>dir_aa770a1c85b1dd65249ff2086d775c37&#45;&gt;dir_514bc78bc4c8cd6732d6db5b240d2f74</title>
<path fill="none" stroke="black" d="M357.197,-431.876C370.414,-422.893 386.792,-411.763 401.107,-402.034"/>
<polygon fill="black" stroke="black" points="403.403,-404.705 409.707,-396.19 399.468,-398.916 403.403,-404.705"/>
<g id="a_edge25&#45;headlabel"><a xlink:href="dir_000056_000054.xhtml" target="_top" xlink:title="2">
<text text-anchor="middle" x="402.026" y="-406.574" font-family="Helvetica,sans-Serif" font-size="10.00">2</text>
</a>
</g>
</g>
<!-- dir_0f41d4b98db5eee2782536f16c8bfcfd&#45;&gt;dir_578bb10d05c7497569e3ae4615cf11b2 -->
<g id="edge32" class="edge"><title>dir_0f41d4b98db5eee2782536f16c8bfcfd&#45;&gt;dir_578bb10d05c7497569e3ae4615cf11b2</title>
<path fill="none" stroke="black" d="M276.07,-36.1893C284.939,-60.4244 296.812,-104.888 302.335,-133.679"/>
<polygon fill="black" stroke="black" points="298.948,-134.626 304.121,-143.871 305.843,-133.417 298.948,-134.626"/>
<g id="a_edge32&#45;headlabel"><a xlink:href="dir_000049_000075.xhtml" target="_top" xlink:title="8">
<text text-anchor="middle" x="295.531" y="-129.075" font-family="Helvetica,sans-Serif" font-size="10.00">8</text>
</a>
</g>
</g>
<!-- dir_0f41d4b98db5eee2782536f16c8bfcfd&#45;&gt;dir_de18afb36696138c96356a62009637d5 -->
<g id="edge33" class="edge"><title>dir_0f41d4b98db5eee2782536f16c8bfcfd&#45;&gt;dir_de18afb36696138c96356a62009637d5</title>
<path fill="none" stroke="black" d="M282.625,-36.2957C291.123,-46.2619 301.416,-59.2996 309,-72 326.863,-101.912 329.423,-110.804 340,-144 346.465,-164.291 351.389,-187.888 354.603,-205.684"/>
<polygon fill="black" stroke="black" points="351.179,-206.424 356.339,-215.678 358.076,-205.226 351.179,-206.424"/>
<g id="a_edge33&#45;headlabel"><a xlink:href="dir_000049_000072.xhtml" target="_top" xlink:title="48">
<text text-anchor="middle" x="347.767" y="-200.868" font-family="Helvetica,sans-Serif" font-size="10.00">48</text>
</a>
</g>
</g>
<!-- dir_514bc78bc4c8cd6732d6db5b240d2f74&#45;&gt;dir_578bb10d05c7497569e3ae4615cf11b2 -->
<g id="edge34" class="edge"><title>dir_514bc78bc4c8cd6732d6db5b240d2f74&#45;&gt;dir_578bb10d05c7497569e3ae4615cf11b2</title>
<path fill="none" stroke="black" d="M450.61,-359.774C458.373,-350.03 466.946,-337.184 471,-324 475.703,-308.707 475.782,-303.269 471,-288 459.357,-250.821 450.933,-240.936 421,-216 397.509,-196.431 365.619,-182.62 341.066,-174.013"/>
<polygon fill="black" stroke="black" points="341.97,-170.625 331.376,-170.751 339.736,-177.259 341.97,-170.625"/>
<g id="a_edge34&#45;headlabel"><a xlink:href="dir_000054_000075.xhtml" target="_top" xlink:title="14">
<text text-anchor="middle" x="346.283" y="-166.581" font-family="Helvetica,sans-Serif" font-size="10.00">14</text>
</a>
</g>
</g>
<!-- dir_514bc78bc4c8cd6732d6db5b240d2f74&#45;&gt;dir_de18afb36696138c96356a62009637d5 -->
<g id="edge35" class="edge"><title>dir_514bc78bc4c8cd6732d6db5b240d2f74&#45;&gt;dir_de18afb36696138c96356a62009637d5</title>
<path fill="none" stroke="black" d="M422.209,-359.822C414.945,-349.679 405.945,-336.429 399,-324 387.636,-303.661 376.938,-279.489 369.469,-261.472"/>
<polygon fill="black" stroke="black" points="372.688,-260.096 365.669,-252.159 366.207,-262.74 372.688,-260.096"/>
<g id="a_edge35&#45;headlabel"><a xlink:href="dir_000054_000072.xhtml" target="_top" xlink:title="19">
<text text-anchor="middle" x="376.675" y="-259.851" font-family="Helvetica,sans-Serif" font-size="10.00">19</text>
</a>
</g>
</g>
<!-- dir_514bc78bc4c8cd6732d6db5b240d2f74&#45;&gt;dir_89a1adf13dffb155c372242433532d34 -->
<g id="edge36" class="edge"><title>dir_514bc78bc4c8cd6732d6db5b240d2f74&#45;&gt;dir_89a1adf13dffb155c372242433532d34</title>
<path fill="none" stroke="black" d="M435,-359.697C435,-351.983 435,-342.712 435,-334.112"/>
<polygon fill="black" stroke="black" points="438.5,-334.104 435,-324.104 431.5,-334.104 438.5,-334.104"/>
<g id="a_edge36&#45;headlabel"><a xlink:href="dir_000054_000036.xhtml" target="_top" xlink:title="4">
<text text-anchor="middle" x="441.339" y="-335.199" font-family="Helvetica,sans-Serif" font-size="10.00">4</text>
</a>
</g>
</g>
</g>
</svg>
