<?xml version="1.0" encoding="UTF-8" standalone="no"?>
<!DOCTYPE svg PUBLIC "-//W3C//DTD SVG 1.1//EN"
 "http://www.w3.org/Graphics/SVG/1.1/DTD/svg11.dtd">
<!-- Generated by graphviz version 2.38.0 (20140413.2041)
 -->
<!-- Title: src/gromacs/trajectoryanalysis/tests Pages: 1 -->
<svg width="474pt" height="583pt"
 viewBox="0.00 0.00 474.00 583.00" xmlns="http://www.w3.org/2000/svg" xmlns:xlink="http://www.w3.org/1999/xlink">
<g id="graph0" class="graph" transform="scale(1 1) rotate(0) translate(4 579)">
<title>src/gromacs/trajectoryanalysis/tests</title>
<polygon fill="white" stroke="none" points="-4,4 -4,-579 470,-579 470,4 -4,4"/>
<g id="clust1" class="cluster"><title>clusterdir_671fa77a033d3a87d35c777a90505a4f</title>
<g id="a_clust1"><a xlink:href="dir_671fa77a033d3a87d35c777a90505a4f.xhtml" target="_top" xlink:title="trajectoryanalysis">
<polygon fill="#ddddee" stroke="black" points="175,-496 175,-567 268,-567 268,-496 175,-496"/>
<text text-anchor="middle" x="221.5" y="-555" font-family="Helvetica,sans-Serif" font-size="10.00">trajectoryanalysis</text>
</a>
</g>
</g>
<!-- dir_5a8693df28d4694e3651897628e5bddf -->
<g id="node1" class="node"><title>dir_5a8693df28d4694e3651897628e5bddf</title>
<g id="a_node1"><a xlink:href="dir_5a8693df28d4694e3651897628e5bddf.xhtml" target="_top" xlink:title="tests">
<polygon fill="#eeeeff" stroke="black" points="248,-540 194,-540 194,-504 248,-504 248,-540"/>
<text text-anchor="middle" x="221" y="-519.5" font-family="Helvetica,sans-Serif" font-size="10.00">tests</text>
</a>
</g>
</g>
<!-- dir_578bb10d05c7497569e3ae4615cf11b2 -->
<g id="node2" class="node"><title>dir_578bb10d05c7497569e3ae4615cf11b2</title>
<g id="a_node2"><a xlink:href="dir_578bb10d05c7497569e3ae4615cf11b2.xhtml" target="_top" xlink:title="testutils">
<polygon fill="white" stroke="red" points="217,-252 163,-252 163,-216 217,-216 217,-252"/>
<text text-anchor="middle" x="190" y="-231.5" font-family="Helvetica,sans-Serif" font-size="10.00">testutils</text>
</a>
</g>
</g>
<!-- dir_5a8693df28d4694e3651897628e5bddf&#45;&gt;dir_578bb10d05c7497569e3ae4615cf11b2 -->
<g id="edge8" class="edge"><title>dir_5a8693df28d4694e3651897628e5bddf&#45;&gt;dir_578bb10d05c7497569e3ae4615cf11b2</title>
<path fill="none" stroke="black" d="M200.621,-503.531C191.193,-494.092 180.994,-481.597 176,-468 150.003,-397.214 169.197,-306.227 181.62,-261.807"/>
<polygon fill="black" stroke="black" points="185.024,-262.635 184.451,-252.055 178.301,-260.683 185.024,-262.635"/>
<g id="a_edge8&#45;headlabel"><a xlink:href="dir_000070_000075.xhtml" target="_top" xlink:title="23">
<text text-anchor="middle" x="186.749" y="-264.378" font-family="Helvetica,sans-Serif" font-size="10.00">23</text>
</a>
</g>
</g>
<!-- dir_de18afb36696138c96356a62009637d5 -->
<g id="node3" class="node"><title>dir_de18afb36696138c96356a62009637d5</title>
<g id="a_node3"><a xlink:href="dir_de18afb36696138c96356a62009637d5.xhtml" target="_top" xlink:title="utility">
<polygon fill="white" stroke="red" points="204,-36 150,-36 150,-0 204,-0 204,-36"/>
<text text-anchor="middle" x="177" y="-15.5" font-family="Helvetica,sans-Serif" font-size="10.00">utility</text>
</a>
</g>
</g>
<!-- dir_5a8693df28d4694e3651897628e5bddf&#45;&gt;dir_de18afb36696138c96356a62009637d5 -->
<g id="edge9" class="edge"><title>dir_5a8693df28d4694e3651897628e5bddf&#45;&gt;dir_de18afb36696138c96356a62009637d5</title>
<path fill="none" stroke="black" d="M193.901,-516.682C134.888,-505.575 0,-470.211 0,-379 0,-379 0,-379 0,-161 0,-89.7545 88.3293,-48.3051 140.192,-30.1084"/>
<polygon fill="black" stroke="black" points="141.382,-33.4006 149.732,-26.8781 139.137,-26.7704 141.382,-33.4006"/>
<g id="a_edge9&#45;headlabel"><a xlink:href="dir_000070_000072.xhtml" target="_top" xlink:title="7">
<text text-anchor="middle" x="138.888" y="-34.7427" font-family="Helvetica,sans-Serif" font-size="10.00">7</text>
</a>
</g>
</g>
<!-- dir_da0072eb60d31f378848661c417de134 -->
<g id="node4" class="node"><title>dir_da0072eb60d31f378848661c417de134</title>
<g id="a_node4"><a xlink:href="dir_da0072eb60d31f378848661c417de134.xhtml" target="_top" xlink:title="commandline">
<polygon fill="white" stroke="red" points="140,-180 66,-180 66,-144 140,-144 140,-180"/>
<text text-anchor="middle" x="103" y="-159.5" font-family="Helvetica,sans-Serif" font-size="10.00">commandline</text>
</a>
</g>
</g>
<!-- dir_5a8693df28d4694e3651897628e5bddf&#45;&gt;dir_da0072eb60d31f378848661c417de134 -->
<g id="edge10" class="edge"><title>dir_5a8693df28d4694e3651897628e5bddf&#45;&gt;dir_da0072eb60d31f378848661c417de134</title>
<path fill="none" stroke="black" d="M193.727,-509.333C151.724,-489.314 76,-444.184 76,-379 76,-379 76,-379 76,-305 76,-264.502 86.73,-218.632 94.6615,-190.258"/>
<polygon fill="black" stroke="black" points="98.1288,-190.865 97.5361,-180.287 91.4028,-188.926 98.1288,-190.865"/>
<g id="a_edge10&#45;headlabel"><a xlink:href="dir_000070_000009.xhtml" target="_top" xlink:title="3">
<text text-anchor="middle" x="99.8612" y="-192.606" font-family="Helvetica,sans-Serif" font-size="10.00">3</text>
</a>
</g>
</g>
<!-- dir_469b69bcc9974317923f9c731e4e9e8d -->
<g id="node5" class="node"><title>dir_469b69bcc9974317923f9c731e4e9e8d</title>
<g id="a_node5"><a xlink:href="dir_469b69bcc9974317923f9c731e4e9e8d.xhtml" target="_top" xlink:title="analysisdata">
<polygon fill="white" stroke="red" points="256.5,-468 185.5,-468 185.5,-432 256.5,-432 256.5,-468"/>
<text text-anchor="middle" x="221" y="-447.5" font-family="Helvetica,sans-Serif" font-size="10.00">analysisdata</text>
</a>
</g>
</g>
<!-- dir_5a8693df28d4694e3651897628e5bddf&#45;&gt;dir_469b69bcc9974317923f9c731e4e9e8d -->
<g id="edge11" class="edge"><title>dir_5a8693df28d4694e3651897628e5bddf&#45;&gt;dir_469b69bcc9974317923f9c731e4e9e8d</title>
<path fill="none" stroke="black" d="M221,-503.697C221,-495.983 221,-486.712 221,-478.112"/>
<polygon fill="black" stroke="black" points="224.5,-478.104 221,-468.104 217.5,-478.104 224.5,-478.104"/>
<g id="a_edge11&#45;headlabel"><a xlink:href="dir_000070_000006.xhtml" target="_top" xlink:title="1">
<text text-anchor="middle" x="227.339" y="-479.199" font-family="Helvetica,sans-Serif" font-size="10.00">1</text>
</a>
</g>
</g>
<!-- dir_aa770a1c85b1dd65249ff2086d775c37 -->
<g id="node6" class="node"><title>dir_aa770a1c85b1dd65249ff2086d775c37</title>
<g id="a_node6"><a xlink:href="dir_aa770a1c85b1dd65249ff2086d775c37.xhtml" target="_top" xlink:title="selection">
<polygon fill="white" stroke="red" points="364,-396 308,-396 308,-360 364,-360 364,-396"/>
<text text-anchor="middle" x="336" y="-375.5" font-family="Helvetica,sans-Serif" font-size="10.00">selection</text>
</a>
</g>
</g>
<!-- dir_5a8693df28d4694e3651897628e5bddf&#45;&gt;dir_aa770a1c85b1dd65249ff2086d775c37 -->
<g id="edge12" class="edge"><title>dir_5a8693df28d4694e3651897628e5bddf&#45;&gt;dir_aa770a1c85b1dd65249ff2086d775c37</title>
<path fill="none" stroke="black" d="M235.353,-503.884C243.994,-493.537 255.187,-480.058 265,-468 282.37,-446.657 301.845,-422.207 315.999,-404.34"/>
<polygon fill="black" stroke="black" points="319.026,-406.155 322.487,-396.141 313.537,-401.811 319.026,-406.155"/>
<g id="a_edge12&#45;headlabel"><a xlink:href="dir_000070_000056.xhtml" target="_top" xlink:title="2">
<text text-anchor="middle" x="319.022" y="-408.236" font-family="Helvetica,sans-Serif" font-size="10.00">2</text>
</a>
</g>
</g>
<!-- dir_0f41d4b98db5eee2782536f16c8bfcfd -->
<g id="node7" class="node"><title>dir_0f41d4b98db5eee2782536f16c8bfcfd</title>
<g id="a_node7"><a xlink:href="dir_0f41d4b98db5eee2782536f16c8bfcfd.xhtml" target="_top" xlink:title="options">
<polygon fill="white" stroke="red" points="268,-108 214,-108 214,-72 268,-72 268,-108"/>
<text text-anchor="middle" x="241" y="-87.5" font-family="Helvetica,sans-Serif" font-size="10.00">options</text>
</a>
</g>
</g>
<!-- dir_5a8693df28d4694e3651897628e5bddf&#45;&gt;dir_0f41d4b98db5eee2782536f16c8bfcfd -->
<g id="edge13" class="edge"><title>dir_5a8693df28d4694e3651897628e5bddf&#45;&gt;dir_0f41d4b98db5eee2782536f16c8bfcfd</title>
<path fill="none" stroke="black" d="M248.155,-518.094C311.944,-509.613 466,-478.8 466,-379 466,-379 466,-379 466,-305 466,-202.19 341.133,-133.796 277.44,-105.597"/>
<polygon fill="black" stroke="black" points="278.708,-102.332 268.14,-101.573 275.928,-108.756 278.708,-102.332"/>
<g id="a_edge13&#45;headlabel"><a xlink:href="dir_000070_000049.xhtml" target="_top" xlink:title="4">
<text text-anchor="middle" x="283.134" y="-98.6535" font-family="Helvetica,sans-Serif" font-size="10.00">4</text>
</a>
</g>
</g>
<!-- dir_514bc78bc4c8cd6732d6db5b240d2f74 -->
<g id="node8" class="node"><title>dir_514bc78bc4c8cd6732d6db5b240d2f74</title>
<g id="a_node8"><a xlink:href="dir_514bc78bc4c8cd6732d6db5b240d2f74.xhtml" target="_top" xlink:title="random">
<polygon fill="white" stroke="red" points="438,-324 384,-324 384,-288 438,-288 438,-324"/>
<text text-anchor="middle" x="411" y="-303.5" font-family="Helvetica,sans-Serif" font-size="10.00">random</text>
</a>
</g>
</g>
<!-- dir_5a8693df28d4694e3651897628e5bddf&#45;&gt;dir_514bc78bc4c8cd6732d6db5b240d2f74 -->
<g id="edge14" class="edge"><title>dir_5a8693df28d4694e3651897628e5bddf&#45;&gt;dir_514bc78bc4c8cd6732d6db5b240d2f74</title>
<path fill="none" stroke="black" d="M248.023,-505.081C281.623,-484.03 338.719,-443.941 373,-396 386.605,-376.974 396.651,-352.32 402.985,-333.787"/>
<polygon fill="black" stroke="black" points="406.34,-334.787 406.121,-324.195 399.687,-332.612 406.34,-334.787"/>
<g id="a_edge14&#45;headlabel"><a xlink:href="dir_000070_000054.xhtml" target="_top" xlink:title="2">
<text text-anchor="middle" x="407.922" y="-336.586" font-family="Helvetica,sans-Serif" font-size="10.00">2</text>
</a>
</g>
</g>
<!-- dir_578bb10d05c7497569e3ae4615cf11b2&#45;&gt;dir_de18afb36696138c96356a62009637d5 -->
<g id="edge1" class="edge"><title>dir_578bb10d05c7497569e3ae4615cf11b2&#45;&gt;dir_de18afb36696138c96356a62009637d5</title>
<path fill="none" stroke="black" d="M185.081,-215.849C179.296,-178.832 173.7,-91.1809 173.971,-46.3863"/>
<polygon fill="black" stroke="black" points="177.474,-46.2962 174.162,-36.2325 170.475,-46.1652 177.474,-46.2962"/>
<g id="a_edge1&#45;headlabel"><a xlink:href="dir_000075_000072.xhtml" target="_top" xlink:title="63">
<text text-anchor="middle" x="180.245" y="-47.4433" font-family="Helvetica,sans-Serif" font-size="10.00">63</text>
</a>
</g>
</g>
<!-- dir_578bb10d05c7497569e3ae4615cf11b2&#45;&gt;dir_da0072eb60d31f378848661c417de134 -->
<g id="edge2" class="edge"><title>dir_578bb10d05c7497569e3ae4615cf11b2&#45;&gt;dir_da0072eb60d31f378848661c417de134</title>
<path fill="none" stroke="black" d="M162.579,-215.697C150.826,-206.965 137.325,-196.24 126.088,-186.75"/>
<polygon fill="black" stroke="black" points="128.227,-183.973 118.363,-180.104 123.661,-189.279 128.227,-183.973"/>
<g id="a_edge2&#45;headlabel"><a xlink:href="dir_000075_000009.xhtml" target="_top" xlink:title="8">
<text text-anchor="middle" x="132.803" y="-181.665" font-family="Helvetica,sans-Serif" font-size="10.00">8</text>
</a>
</g>
</g>
<!-- dir_578bb10d05c7497569e3ae4615cf11b2&#45;&gt;dir_0f41d4b98db5eee2782536f16c8bfcfd -->
<g id="edge3" class="edge"><title>dir_578bb10d05c7497569e3ae4615cf11b2&#45;&gt;dir_0f41d4b98db5eee2782536f16c8bfcfd</title>
<path fill="none" stroke="black" d="M191.567,-215.871C197.755,-191.457 213.654,-146.426 226.028,-117.635"/>
<polygon fill="black" stroke="black" points="229.363,-118.748 230.235,-108.189 222.969,-115.9 229.363,-118.748"/>
<g id="a_edge3&#45;headlabel"><a xlink:href="dir_000075_000049.xhtml" target="_top" xlink:title="10">
<text text-anchor="middle" x="230.494" y="-120.687" font-family="Helvetica,sans-Serif" font-size="10.00">10</text>
</a>
</g>
</g>
<!-- dir_de18afb36696138c96356a62009637d5&#45;&gt;dir_578bb10d05c7497569e3ae4615cf11b2 -->
<g id="edge4" class="edge"><title>dir_de18afb36696138c96356a62009637d5&#45;&gt;dir_578bb10d05c7497569e3ae4615cf11b2</title>
<path fill="none" stroke="black" d="M181.932,-36.2325C187.716,-73.3243 193.308,-160.981 193.028,-205.712"/>
<polygon fill="black" stroke="black" points="189.526,-205.785 192.836,-215.849 196.525,-205.917 189.526,-205.785"/>
<g id="a_edge4&#45;headlabel"><a xlink:href="dir_000072_000075.xhtml" target="_top" xlink:title="3">
<text text-anchor="middle" x="186.755" y="-199.637" font-family="Helvetica,sans-Serif" font-size="10.00">3</text>
</a>
</g>
</g>
<!-- dir_da0072eb60d31f378848661c417de134&#45;&gt;dir_578bb10d05c7497569e3ae4615cf11b2 -->
<g id="edge5" class="edge"><title>dir_da0072eb60d31f378848661c417de134&#45;&gt;dir_578bb10d05c7497569e3ae4615cf11b2</title>
<path fill="none" stroke="black" d="M130.153,-180.104C141.879,-188.805 155.383,-199.524 166.655,-209.033"/>
<polygon fill="black" stroke="black" points="164.544,-211.834 174.41,-215.697 169.106,-206.525 164.544,-211.834"/>
<g id="a_edge5&#45;headlabel"><a xlink:href="dir_000009_000075.xhtml" target="_top" xlink:title="14">
<text text-anchor="middle" x="159.968" y="-209.145" font-family="Helvetica,sans-Serif" font-size="10.00">14</text>
</a>
</g>
</g>
<!-- dir_da0072eb60d31f378848661c417de134&#45;&gt;dir_de18afb36696138c96356a62009637d5 -->
<g id="edge6" class="edge"><title>dir_da0072eb60d31f378848661c417de134&#45;&gt;dir_de18afb36696138c96356a62009637d5</title>
<path fill="none" stroke="black" d="M111.926,-143.871C124.705,-119.35 148.321,-74.0321 163.316,-45.2589"/>
<polygon fill="black" stroke="black" points="166.525,-46.6749 168.042,-36.1893 160.317,-43.4398 166.525,-46.6749"/>
<g id="a_edge6&#45;headlabel"><a xlink:href="dir_000009_000072.xhtml" target="_top" xlink:title="93">
<text text-anchor="middle" x="167.381" y="-48.6747" font-family="Helvetica,sans-Serif" font-size="10.00">93</text>
</a>
</g>
</g>
<!-- dir_da0072eb60d31f378848661c417de134&#45;&gt;dir_0f41d4b98db5eee2782536f16c8bfcfd -->
<g id="edge7" class="edge"><title>dir_da0072eb60d31f378848661c417de134&#45;&gt;dir_0f41d4b98db5eee2782536f16c8bfcfd</title>
<path fill="none" stroke="black" d="M136.759,-143.876C157.333,-133.44 183.622,-120.105 204.652,-109.438"/>
<polygon fill="black" stroke="black" points="206.272,-112.54 213.607,-104.895 203.105,-106.298 206.272,-112.54"/>
<g id="a_edge7&#45;headlabel"><a xlink:href="dir_000009_000049.xhtml" target="_top" xlink:title="31">
<text text-anchor="middle" x="204.35" y="-114.199" font-family="Helvetica,sans-Serif" font-size="10.00">31</text>
</a>
</g>
</g>
<!-- dir_469b69bcc9974317923f9c731e4e9e8d&#45;&gt;dir_578bb10d05c7497569e3ae4615cf11b2 -->
<g id="edge15" class="edge"><title>dir_469b69bcc9974317923f9c731e4e9e8d&#45;&gt;dir_578bb10d05c7497569e3ae4615cf11b2</title>
<path fill="none" stroke="black" d="M218.516,-431.849C213.153,-394.832 200.456,-307.181 193.967,-262.386"/>
<polygon fill="black" stroke="black" points="197.394,-261.627 192.496,-252.232 190.466,-262.631 197.394,-261.627"/>
<g id="a_edge15&#45;headlabel"><a xlink:href="dir_000006_000075.xhtml" target="_top" xlink:title="10">
<text text-anchor="middle" x="200.719" y="-262.278" font-family="Helvetica,sans-Serif" font-size="10.00">10</text>
</a>
</g>
</g>
<!-- dir_469b69bcc9974317923f9c731e4e9e8d&#45;&gt;dir_de18afb36696138c96356a62009637d5 -->
<g id="edge16" class="edge"><title>dir_469b69bcc9974317923f9c731e4e9e8d&#45;&gt;dir_de18afb36696138c96356a62009637d5</title>
<path fill="none" stroke="black" d="M205.659,-431.743C170.872,-391.311 86.7213,-285.846 57,-180 40.8105,-122.345 100.38,-69.572 141.327,-41.0895"/>
<polygon fill="black" stroke="black" points="143.43,-43.8924 149.748,-35.3874 139.505,-38.0962 143.43,-43.8924"/>
<g id="a_edge16&#45;headlabel"><a xlink:href="dir_000006_000072.xhtml" target="_top" xlink:title="51">
<text text-anchor="middle" x="142.045" y="-45.7588" font-family="Helvetica,sans-Serif" font-size="10.00">51</text>
</a>
</g>
</g>
<!-- dir_469b69bcc9974317923f9c731e4e9e8d&#45;&gt;dir_aa770a1c85b1dd65249ff2086d775c37 -->
<g id="edge17" class="edge"><title>dir_469b69bcc9974317923f9c731e4e9e8d&#45;&gt;dir_aa770a1c85b1dd65249ff2086d775c37</title>
<path fill="none" stroke="black" d="M249.132,-431.876C264.168,-422.724 282.867,-411.342 299.06,-401.485"/>
<polygon fill="black" stroke="black" points="301.038,-404.379 307.76,-396.19 297.398,-398.4 301.038,-404.379"/>
<g id="a_edge17&#45;headlabel"><a xlink:href="dir_000006_000056.xhtml" target="_top" xlink:title="1">
<text text-anchor="middle" x="299.443" y="-406.173" font-family="Helvetica,sans-Serif" font-size="10.00">1</text>
</a>
</g>
</g>
<!-- dir_469b69bcc9974317923f9c731e4e9e8d&#45;&gt;dir_0f41d4b98db5eee2782536f16c8bfcfd -->
<g id="edge18" class="edge"><title>dir_469b69bcc9974317923f9c731e4e9e8d&#45;&gt;dir_0f41d4b98db5eee2782536f16c8bfcfd</title>
<path fill="none" stroke="black" d="M233.512,-431.591C250.831,-405.734 280,-355.053 280,-307 280,-307 280,-307 280,-233 280,-191.56 264.364,-145.668 252.893,-117.575"/>
<polygon fill="black" stroke="black" points="255.998,-115.931 248.892,-108.072 249.547,-118.647 255.998,-115.931"/>
<g id="a_edge18&#45;headlabel"><a xlink:href="dir_000006_000049.xhtml" target="_top" xlink:title="4">
<text text-anchor="middle" x="260.01" y="-115.642" font-family="Helvetica,sans-Serif" font-size="10.00">4</text>
</a>
</g>
</g>
<!-- dir_aa770a1c85b1dd65249ff2086d775c37&#45;&gt;dir_578bb10d05c7497569e3ae4615cf11b2 -->
<g id="edge19" class="edge"><title>dir_aa770a1c85b1dd65249ff2086d775c37&#45;&gt;dir_578bb10d05c7497569e3ae4615cf11b2</title>
<path fill="none" stroke="black" d="M318.389,-359.871C292.629,-334.817 244.546,-288.052 215.094,-259.406"/>
<polygon fill="black" stroke="black" points="217.282,-256.652 207.673,-252.189 212.402,-261.67 217.282,-256.652"/>
<g id="a_edge19&#45;headlabel"><a xlink:href="dir_000056_000075.xhtml" target="_top" xlink:title="11">
<text text-anchor="middle" x="221.839" y="-254.623" font-family="Helvetica,sans-Serif" font-size="10.00">11</text>
</a>
</g>
</g>
<!-- dir_aa770a1c85b1dd65249ff2086d775c37&#45;&gt;dir_de18afb36696138c96356a62009637d5 -->
<g id="edge20" class="edge"><title>dir_aa770a1c85b1dd65249ff2086d775c37&#45;&gt;dir_de18afb36696138c96356a62009637d5</title>
<path fill="none" stroke="black" d="M340.047,-359.622C345.891,-332.967 356,-280.311 356,-235 356,-235 356,-235 356,-161 356,-89.0773 266.208,-47.8028 213.816,-29.8414"/>
<polygon fill="black" stroke="black" points="214.779,-26.4737 204.186,-26.6572 212.582,-33.1198 214.779,-26.4737"/>
<g id="a_edge20&#45;headlabel"><a xlink:href="dir_000056_000072.xhtml" target="_top" xlink:title="144">
<text text-anchor="middle" x="219.084" y="-22.4064" font-family="Helvetica,sans-Serif" font-size="10.00">144</text>
</a>
</g>
</g>
<!-- dir_aa770a1c85b1dd65249ff2086d775c37&#45;&gt;dir_0f41d4b98db5eee2782536f16c8bfcfd -->
<g id="edge21" class="edge"><title>dir_aa770a1c85b1dd65249ff2086d775c37&#45;&gt;dir_0f41d4b98db5eee2782536f16c8bfcfd</title>
<path fill="none" stroke="black" d="M336.319,-359.795C336.364,-319.602 332.383,-217.392 294,-144 288.356,-133.209 279.756,-123.224 271.115,-114.899"/>
<polygon fill="black" stroke="black" points="273.331,-112.184 263.584,-108.031 268.615,-117.356 273.331,-112.184"/>
<g id="a_edge21&#45;headlabel"><a xlink:href="dir_000056_000049.xhtml" target="_top" xlink:title="16">
<text text-anchor="middle" x="277.9" y="-110.008" font-family="Helvetica,sans-Serif" font-size="10.00">16</text>
</a>
</g>
</g>
<!-- dir_aa770a1c85b1dd65249ff2086d775c37&#45;&gt;dir_514bc78bc4c8cd6732d6db5b240d2f74 -->
<g id="edge22" class="edge"><title>dir_aa770a1c85b1dd65249ff2086d775c37&#45;&gt;dir_514bc78bc4c8cd6732d6db5b240d2f74</title>
<path fill="none" stroke="black" d="M354.539,-359.697C363.803,-351.05 375.162,-340.449 385.257,-331.027"/>
<polygon fill="black" stroke="black" points="387.751,-333.486 392.674,-324.104 382.975,-328.369 387.751,-333.486"/>
<g id="a_edge22&#45;headlabel"><a xlink:href="dir_000056_000054.xhtml" target="_top" xlink:title="2">
<text text-anchor="middle" x="387.061" y="-335.515" font-family="Helvetica,sans-Serif" font-size="10.00">2</text>
</a>
</g>
</g>
<!-- dir_0f41d4b98db5eee2782536f16c8bfcfd&#45;&gt;dir_578bb10d05c7497569e3ae4615cf11b2 -->
<g id="edge23" class="edge"><title>dir_0f41d4b98db5eee2782536f16c8bfcfd&#45;&gt;dir_578bb10d05c7497569e3ae4615cf11b2</title>
<path fill="none" stroke="black" d="M239.417,-108.189C233.214,-132.638 217.309,-177.673 204.942,-206.436"/>
<polygon fill="black" stroke="black" points="201.611,-205.313 200.736,-215.871 208.004,-208.163 201.611,-205.313"/>
<g id="a_edge23&#45;headlabel"><a xlink:href="dir_000049_000075.xhtml" target="_top" xlink:title="8">
<text text-anchor="middle" x="200.481" y="-198.374" font-family="Helvetica,sans-Serif" font-size="10.00">8</text>
</a>
</g>
</g>
<!-- dir_0f41d4b98db5eee2782536f16c8bfcfd&#45;&gt;dir_de18afb36696138c96356a62009637d5 -->
<g id="edge24" class="edge"><title>dir_0f41d4b98db5eee2782536f16c8bfcfd&#45;&gt;dir_de18afb36696138c96356a62009637d5</title>
<path fill="none" stroke="black" d="M225.18,-71.6966C217.43,-63.2198 207.961,-52.8636 199.476,-43.5826"/>
<polygon fill="black" stroke="black" points="201.969,-41.1229 192.638,-36.1043 196.803,-45.8464 201.969,-41.1229"/>
<g id="a_edge24&#45;headlabel"><a xlink:href="dir_000049_000072.xhtml" target="_top" xlink:title="48">
<text text-anchor="middle" x="206.49" y="-39.36" font-family="Helvetica,sans-Serif" font-size="10.00">48</text>
</a>
</g>
</g>
<!-- dir_514bc78bc4c8cd6732d6db5b240d2f74&#45;&gt;dir_578bb10d05c7497569e3ae4615cf11b2 -->
<g id="edge25" class="edge"><title>dir_514bc78bc4c8cd6732d6db5b240d2f74&#45;&gt;dir_578bb10d05c7497569e3ae4615cf11b2</title>
<path fill="none" stroke="black" d="M383.901,-296.417C344.55,-283.953 271.463,-260.803 227.128,-246.76"/>
<polygon fill="black" stroke="black" points="227.911,-243.337 217.321,-243.654 225.797,-250.01 227.911,-243.337"/>
<g id="a_edge25&#45;headlabel"><a xlink:href="dir_000054_000075.xhtml" target="_top" xlink:title="14">
<text text-anchor="middle" x="232.195" y="-239.215" font-family="Helvetica,sans-Serif" font-size="10.00">14</text>
</a>
</g>
</g>
<!-- dir_514bc78bc4c8cd6732d6db5b240d2f74&#45;&gt;dir_de18afb36696138c96356a62009637d5 -->
<g id="edge26" class="edge"><title>dir_514bc78bc4c8cd6732d6db5b240d2f74&#45;&gt;dir_de18afb36696138c96356a62009637d5</title>
<path fill="none" stroke="black" d="M413.594,-287.734C418.95,-245.129 426.404,-133.961 370,-72 349.2,-49.1505 264.15,-32.4692 214.162,-24.4138"/>
<polygon fill="black" stroke="black" points="214.485,-20.9217 204.063,-22.8267 213.398,-27.8368 214.485,-20.9217"/>
<g id="a_edge26&#45;headlabel"><a xlink:href="dir_000054_000072.xhtml" target="_top" xlink:title="19">
<text text-anchor="middle" x="218.477" y="-16.1748" font-family="Helvetica,sans-Serif" font-size="10.00">19</text>
</a>
</g>
</g>
</g>
</svg>
