<?xml version="1.0" encoding="UTF-8" standalone="no"?>
<!DOCTYPE svg PUBLIC "-//W3C//DTD SVG 1.1//EN"
 "http://www.w3.org/Graphics/SVG/1.1/DTD/svg11.dtd">
<!-- Generated by graphviz version 2.38.0 (20140413.2041)
 -->
<!-- Title: src/gromacs/math Pages: 1 -->
<svg width="182pt" height="231pt"
 viewBox="0.00 0.00 182.00 231.00" xmlns="http://www.w3.org/2000/svg" xmlns:xlink="http://www.w3.org/1999/xlink">
<g id="graph0" class="graph" transform="scale(1 1) rotate(0) translate(4 227)">
<title>src/gromacs/math</title>
<polygon fill="white" stroke="none" points="-4,4 -4,-227 178,-227 178,4 -4,4"/>
<g id="clust1" class="cluster"><title>clusterdir_a798d384400d41a9e6864d9b1b8753fe</title>
<g id="a_clust1"><a xlink:href="dir_a798d384400d41a9e6864d9b1b8753fe.xhtml" target="_top" xlink:title="gromacs">
<polygon fill="#ddddee" stroke="black" points="8,-128 8,-215 166,-215 166,-128 8,-128"/>
<text text-anchor="middle" x="87" y="-203" font-family="Helvetica,sans-Serif" font-size="10.00">gromacs</text>
</a>
</g>
</g>
<g id="clust2" class="cluster"><title>clusterdir_89a1adf13dffb155c372242433532d34</title>
<g id="a_clust2"><a xlink:href="dir_89a1adf13dffb155c372242433532d34.xhtml" target="_top">
<polygon fill="#eeeeff" stroke="black" points="16,-136 16,-188 158,-188 158,-136 16,-136"/>
</a>
</g>
</g>
<!-- dir_89a1adf13dffb155c372242433532d34 -->
<g id="node1" class="node"><title>dir_89a1adf13dffb155c372242433532d34</title>
<text text-anchor="middle" x="51" y="-159.5" font-family="Helvetica,sans-Serif" font-size="10.00">math</text>
</g>
<!-- dir_de18afb36696138c96356a62009637d5 -->
<g id="node4" class="node"><title>dir_de18afb36696138c96356a62009637d5</title>
<g id="a_node4"><a xlink:href="dir_de18afb36696138c96356a62009637d5.xhtml" target="_top" xlink:title="utility">
<polygon fill="white" stroke="red" points="86,-108 32,-108 32,-72 86,-72 86,-108"/>
<text text-anchor="middle" x="59" y="-87.5" font-family="Helvetica,sans-Serif" font-size="10.00">utility</text>
</a>
</g>
</g>
<!-- dir_89a1adf13dffb155c372242433532d34&#45;&gt;dir_de18afb36696138c96356a62009637d5 -->
<g id="edge3" class="edge"><title>dir_89a1adf13dffb155c372242433532d34&#45;&gt;dir_de18afb36696138c96356a62009637d5</title>
<path fill="none" stroke="black" d="M52.9775,-143.697C53.8591,-135.983 54.9186,-126.712 55.9014,-118.112"/>
<polygon fill="black" stroke="black" points="59.387,-118.437 57.0452,-108.104 52.4323,-117.642 59.387,-118.437"/>
<g id="a_edge3&#45;headlabel"><a xlink:href="dir_000036_000072.xhtml" target="_top" xlink:title="22">
<text text-anchor="middle" x="61.7999" y="-119.831" font-family="Helvetica,sans-Serif" font-size="10.00">22</text>
</a>
</g>
</g>
<!-- dir_205e5e20b0af1736ce97e578abe351de -->
<g id="node2" class="node"><title>dir_205e5e20b0af1736ce97e578abe351de</title>
<g id="a_node2"><a xlink:href="dir_205e5e20b0af1736ce97e578abe351de.xhtml" target="_top" xlink:title="tests">
<polygon fill="white" stroke="black" points="150,-180 96,-180 96,-144 150,-144 150,-180"/>
<text text-anchor="middle" x="123" y="-159.5" font-family="Helvetica,sans-Serif" font-size="10.00">tests</text>
</a>
</g>
</g>
<!-- dir_578bb10d05c7497569e3ae4615cf11b2 -->
<g id="node3" class="node"><title>dir_578bb10d05c7497569e3ae4615cf11b2</title>
<g id="a_node3"><a xlink:href="dir_578bb10d05c7497569e3ae4615cf11b2.xhtml" target="_top" xlink:title="testutils">
<polygon fill="white" stroke="red" points="86,-36 32,-36 32,-0 86,-0 86,-36"/>
<text text-anchor="middle" x="59" y="-15.5" font-family="Helvetica,sans-Serif" font-size="10.00">testutils</text>
</a>
</g>
</g>
<!-- dir_205e5e20b0af1736ce97e578abe351de&#45;&gt;dir_578bb10d05c7497569e3ae4615cf11b2 -->
<g id="edge4" class="edge"><title>dir_205e5e20b0af1736ce97e578abe351de&#45;&gt;dir_578bb10d05c7497569e3ae4615cf11b2</title>
<path fill="none" stroke="black" d="M119.153,-143.706C114.708,-125.349 106.502,-95.7659 95,-72 90.4686,-62.6368 84.444,-53.0419 78.6217,-44.6341"/>
<polygon fill="black" stroke="black" points="81.3659,-42.4546 72.6985,-36.3613 75.6743,-46.5297 81.3659,-42.4546"/>
<g id="a_edge4&#45;headlabel"><a xlink:href="dir_000037_000075.xhtml" target="_top" xlink:title="3">
<text text-anchor="middle" x="85.767" y="-41.2245" font-family="Helvetica,sans-Serif" font-size="10.00">3</text>
</a>
</g>
</g>
<!-- dir_578bb10d05c7497569e3ae4615cf11b2&#45;&gt;dir_de18afb36696138c96356a62009637d5 -->
<g id="edge1" class="edge"><title>dir_578bb10d05c7497569e3ae4615cf11b2&#45;&gt;dir_de18afb36696138c96356a62009637d5</title>
<path fill="none" stroke="black" d="M64.895,-36.1043C65.7005,-43.7913 65.9369,-53.0537 65.604,-61.6651"/>
<polygon fill="black" stroke="black" points="62.1085,-61.4805 64.9157,-71.6966 69.0921,-61.9597 62.1085,-61.4805"/>
<g id="a_edge1&#45;headlabel"><a xlink:href="dir_000075_000072.xhtml" target="_top" xlink:title="63">
<text text-anchor="middle" x="59.5219" y="-55.2" font-family="Helvetica,sans-Serif" font-size="10.00">63</text>
</a>
</g>
</g>
<!-- dir_de18afb36696138c96356a62009637d5&#45;&gt;dir_578bb10d05c7497569e3ae4615cf11b2 -->
<g id="edge2" class="edge"><title>dir_de18afb36696138c96356a62009637d5&#45;&gt;dir_578bb10d05c7497569e3ae4615cf11b2</title>
<path fill="none" stroke="black" d="M53.0843,-71.6966C52.2886,-63.9827 52.0621,-54.7125 52.4047,-46.1124"/>
<polygon fill="black" stroke="black" points="55.8984,-46.3243 53.105,-36.1043 48.9154,-45.8356 55.8984,-46.3243"/>
<g id="a_edge2&#45;headlabel"><a xlink:href="dir_000072_000075.xhtml" target="_top" xlink:title="3">
<text text-anchor="middle" x="58.4799" y="-47.6083" font-family="Helvetica,sans-Serif" font-size="10.00">3</text>
</a>
</g>
</g>
</g>
</svg>
