<?xml version="1.0" encoding="UTF-8" standalone="no"?>
<!DOCTYPE svg PUBLIC "-//W3C//DTD SVG 1.1//EN"
 "http://www.w3.org/Graphics/SVG/1.1/DTD/svg11.dtd">
<!-- Generated by graphviz version 2.38.0 (20140413.2041)
 -->
<!-- Title: src/gromacs/correlationfunctions Pages: 1 -->
<svg width="255pt" height="375pt"
 viewBox="0.00 0.00 255.46 375.00" xmlns="http://www.w3.org/2000/svg" xmlns:xlink="http://www.w3.org/1999/xlink">
<g id="graph0" class="graph" transform="scale(1 1) rotate(0) translate(4 371)">
<title>src/gromacs/correlationfunctions</title>
<polygon fill="white" stroke="none" points="-4,4 -4,-371 251.455,-371 251.455,4 -4,4"/>
<g id="clust1" class="cluster"><title>clusterdir_a798d384400d41a9e6864d9b1b8753fe</title>
<g id="a_clust1"><a xlink:href="dir_a798d384400d41a9e6864d9b1b8753fe.xhtml" target="_top" xlink:title="gromacs">
<polygon fill="#ddddee" stroke="black" points="8,-272 8,-359 214,-359 214,-272 8,-272"/>
<text text-anchor="middle" x="111" y="-347" font-family="Helvetica,sans-Serif" font-size="10.00">gromacs</text>
</a>
</g>
</g>
<g id="clust2" class="cluster"><title>clusterdir_04917eabbd9e9515f5b815e633560f88</title>
<g id="a_clust2"><a xlink:href="dir_04917eabbd9e9515f5b815e633560f88.xhtml" target="_top">
<polygon fill="#eeeeff" stroke="black" points="16,-280 16,-332 206,-332 206,-280 16,-280"/>
</a>
</g>
</g>
<!-- dir_04917eabbd9e9515f5b815e633560f88 -->
<g id="node1" class="node"><title>dir_04917eabbd9e9515f5b815e633560f88</title>
<text text-anchor="middle" x="147" y="-303.5" font-family="Helvetica,sans-Serif" font-size="10.00">correlationfunctions</text>
</g>
<!-- dir_4c01700622fd5a05ee3afcaacc12f3a8 -->
<g id="node4" class="node"><title>dir_4c01700622fd5a05ee3afcaacc12f3a8</title>
<g id="a_node4"><a xlink:href="dir_4c01700622fd5a05ee3afcaacc12f3a8.xhtml" target="_top" xlink:title="fft">
<polygon fill="white" stroke="red" points="102,-252 48,-252 48,-216 102,-216 102,-252"/>
<text text-anchor="middle" x="75" y="-231.5" font-family="Helvetica,sans-Serif" font-size="10.00">fft</text>
</a>
</g>
</g>
<!-- dir_04917eabbd9e9515f5b815e633560f88&#45;&gt;dir_4c01700622fd5a05ee3afcaacc12f3a8 -->
<g id="edge13" class="edge"><title>dir_04917eabbd9e9515f5b815e633560f88&#45;&gt;dir_4c01700622fd5a05ee3afcaacc12f3a8</title>
<path fill="none" stroke="black" d="M129.202,-287.697C120.396,-279.135 109.618,-268.656 99.9989,-259.304"/>
<polygon fill="black" stroke="black" points="102.203,-256.566 92.593,-252.104 97.3232,-261.585 102.203,-256.566"/>
<g id="a_edge13&#45;headlabel"><a xlink:href="dir_000011_000016.xhtml" target="_top" xlink:title="4">
<text text-anchor="middle" x="106.759" y="-254.536" font-family="Helvetica,sans-Serif" font-size="10.00">4</text>
</a>
</g>
</g>
<!-- dir_de18afb36696138c96356a62009637d5 -->
<g id="node5" class="node"><title>dir_de18afb36696138c96356a62009637d5</title>
<g id="a_node5"><a xlink:href="dir_de18afb36696138c96356a62009637d5.xhtml" target="_top" xlink:title="utility">
<polygon fill="white" stroke="red" points="153,-36 99,-36 99,-0 153,-0 153,-36"/>
<text text-anchor="middle" x="126" y="-15.5" font-family="Helvetica,sans-Serif" font-size="10.00">utility</text>
</a>
</g>
</g>
<!-- dir_04917eabbd9e9515f5b815e633560f88&#45;&gt;dir_de18afb36696138c96356a62009637d5 -->
<g id="edge14" class="edge"><title>dir_04917eabbd9e9515f5b815e633560f88&#45;&gt;dir_de18afb36696138c96356a62009637d5</title>
<path fill="none" stroke="black" d="M167.623,-287.775C178.143,-278.129 190.48,-265.372 199,-252 242.471,-183.778 267.71,-141.313 226,-72 212.321,-49.2688 185.254,-35.7722 162.726,-28.0925"/>
<polygon fill="black" stroke="black" points="163.671,-24.7206 153.081,-25.0541 161.568,-31.3971 163.671,-24.7206"/>
<g id="a_edge14&#45;headlabel"><a xlink:href="dir_000011_000072.xhtml" target="_top" xlink:title="31">
<text text-anchor="middle" x="167.953" y="-20.5925" font-family="Helvetica,sans-Serif" font-size="10.00">31</text>
</a>
</g>
</g>
<!-- dir_da0072eb60d31f378848661c417de134 -->
<g id="node6" class="node"><title>dir_da0072eb60d31f378848661c417de134</title>
<g id="a_node6"><a xlink:href="dir_da0072eb60d31f378848661c417de134.xhtml" target="_top" xlink:title="commandline">
<polygon fill="white" stroke="red" points="163,-108 89,-108 89,-72 163,-72 163,-108"/>
<text text-anchor="middle" x="126" y="-87.5" font-family="Helvetica,sans-Serif" font-size="10.00">commandline</text>
</a>
</g>
</g>
<!-- dir_04917eabbd9e9515f5b815e633560f88&#45;&gt;dir_da0072eb60d31f378848661c417de134 -->
<g id="edge15" class="edge"><title>dir_04917eabbd9e9515f5b815e633560f88&#45;&gt;dir_da0072eb60d31f378848661c417de134</title>
<path fill="none" stroke="black" d="M162.61,-287.774C170.373,-278.03 178.946,-265.184 183,-252 187.703,-236.707 186.397,-231.635 183,-216 175.143,-179.832 155.868,-141.583 141.904,-117.065"/>
<polygon fill="black" stroke="black" points="144.901,-115.256 136.847,-108.373 138.851,-118.777 144.901,-115.256"/>
<g id="a_edge15&#45;headlabel"><a xlink:href="dir_000011_000009.xhtml" target="_top" xlink:title="1">
<text text-anchor="middle" x="149.163" y="-114.436" font-family="Helvetica,sans-Serif" font-size="10.00">1</text>
</a>
</g>
</g>
<!-- dir_89a1adf13dffb155c372242433532d34 -->
<g id="node7" class="node"><title>dir_89a1adf13dffb155c372242433532d34</title>
<g id="a_node7"><a xlink:href="dir_89a1adf13dffb155c372242433532d34.xhtml" target="_top" xlink:title="math">
<polygon fill="white" stroke="red" points="174,-252 120,-252 120,-216 174,-216 174,-252"/>
<text text-anchor="middle" x="147" y="-231.5" font-family="Helvetica,sans-Serif" font-size="10.00">math</text>
</a>
</g>
</g>
<!-- dir_04917eabbd9e9515f5b815e633560f88&#45;&gt;dir_89a1adf13dffb155c372242433532d34 -->
<g id="edge16" class="edge"><title>dir_04917eabbd9e9515f5b815e633560f88&#45;&gt;dir_89a1adf13dffb155c372242433532d34</title>
<path fill="none" stroke="black" d="M147,-287.697C147,-279.983 147,-270.712 147,-262.112"/>
<polygon fill="black" stroke="black" points="150.5,-262.104 147,-252.104 143.5,-262.104 150.5,-262.104"/>
<g id="a_edge16&#45;headlabel"><a xlink:href="dir_000011_000036.xhtml" target="_top" xlink:title="3">
<text text-anchor="middle" x="153.339" y="-263.199" font-family="Helvetica,sans-Serif" font-size="10.00">3</text>
</a>
</g>
</g>
<!-- dir_62f0b1e666fe1cc6b2f99772feddf036 -->
<g id="node2" class="node"><title>dir_62f0b1e666fe1cc6b2f99772feddf036</title>
<g id="a_node2"><a xlink:href="dir_62f0b1e666fe1cc6b2f99772feddf036.xhtml" target="_top" xlink:title="tests">
<polygon fill="white" stroke="black" points="78,-324 24,-324 24,-288 78,-288 78,-324"/>
<text text-anchor="middle" x="51" y="-303.5" font-family="Helvetica,sans-Serif" font-size="10.00">tests</text>
</a>
</g>
</g>
<!-- dir_578bb10d05c7497569e3ae4615cf11b2 -->
<g id="node3" class="node"><title>dir_578bb10d05c7497569e3ae4615cf11b2</title>
<g id="a_node3"><a xlink:href="dir_578bb10d05c7497569e3ae4615cf11b2.xhtml" target="_top" xlink:title="testutils">
<polygon fill="white" stroke="red" points="102,-180 48,-180 48,-144 102,-144 102,-180"/>
<text text-anchor="middle" x="75" y="-159.5" font-family="Helvetica,sans-Serif" font-size="10.00">testutils</text>
</a>
</g>
</g>
<!-- dir_62f0b1e666fe1cc6b2f99772feddf036&#45;&gt;dir_578bb10d05c7497569e3ae4615cf11b2 -->
<g id="edge10" class="edge"><title>dir_62f0b1e666fe1cc6b2f99772feddf036&#45;&gt;dir_578bb10d05c7497569e3ae4615cf11b2</title>
<path fill="none" stroke="black" d="M44.4422,-287.914C38.4377,-269.731 31.5303,-240.291 39,-216 42.0089,-206.215 47.507,-196.616 53.3157,-188.334"/>
<polygon fill="black" stroke="black" points="56.1948,-190.328 59.3901,-180.226 50.5928,-186.131 56.1948,-190.328"/>
<g id="a_edge10&#45;headlabel"><a xlink:href="dir_000012_000075.xhtml" target="_top" xlink:title="7">
<text text-anchor="middle" x="56.3117" y="-192.407" font-family="Helvetica,sans-Serif" font-size="10.00">7</text>
</a>
</g>
</g>
<!-- dir_62f0b1e666fe1cc6b2f99772feddf036&#45;&gt;dir_4c01700622fd5a05ee3afcaacc12f3a8 -->
<g id="edge11" class="edge"><title>dir_62f0b1e666fe1cc6b2f99772feddf036&#45;&gt;dir_4c01700622fd5a05ee3afcaacc12f3a8</title>
<path fill="none" stroke="black" d="M56.9326,-287.697C59.6064,-279.898 62.8256,-270.509 65.8014,-261.829"/>
<polygon fill="black" stroke="black" points="69.2032,-262.699 69.1357,-252.104 62.5815,-260.429 69.2032,-262.699"/>
<g id="a_edge11&#45;headlabel"><a xlink:href="dir_000012_000016.xhtml" target="_top" xlink:title="1">
<text text-anchor="middle" x="70.7232" y="-264.52" font-family="Helvetica,sans-Serif" font-size="10.00">1</text>
</a>
</g>
</g>
<!-- dir_62f0b1e666fe1cc6b2f99772feddf036&#45;&gt;dir_de18afb36696138c96356a62009637d5 -->
<g id="edge12" class="edge"><title>dir_62f0b1e666fe1cc6b2f99772feddf036&#45;&gt;dir_de18afb36696138c96356a62009637d5</title>
<path fill="none" stroke="black" d="M43.1071,-287.745C38.8928,-277.577 34.1428,-264.327 32,-252 23.7622,-204.61 27.293,-190.654 39,-144 47.4373,-110.376 49.1898,-100.449 69,-72 76.4202,-61.3441 86.3011,-51.2203 95.7498,-42.7304"/>
<polygon fill="black" stroke="black" points="98.2485,-45.1969 103.522,-36.0075 93.6689,-39.9028 98.2485,-45.1969"/>
<g id="a_edge12&#45;headlabel"><a xlink:href="dir_000012_000072.xhtml" target="_top" xlink:title="6">
<text text-anchor="middle" x="97.3874" y="-47.1958" font-family="Helvetica,sans-Serif" font-size="10.00">6</text>
</a>
</g>
</g>
<!-- dir_578bb10d05c7497569e3ae4615cf11b2&#45;&gt;dir_de18afb36696138c96356a62009637d5 -->
<g id="edge1" class="edge"><title>dir_578bb10d05c7497569e3ae4615cf11b2&#45;&gt;dir_de18afb36696138c96356a62009637d5</title>
<path fill="none" stroke="black" d="M66.142,-143.89C62.0892,-125.429 61.4573,-95.5179 71,-72 75.4643,-60.9978 83.1957,-50.6917 91.5564,-42.1461"/>
<polygon fill="black" stroke="black" points="94.1327,-44.5272 98.9994,-35.1162 89.3262,-39.4382 94.1327,-44.5272"/>
<g id="a_edge1&#45;headlabel"><a xlink:href="dir_000075_000072.xhtml" target="_top" xlink:title="63">
<text text-anchor="middle" x="93.469" y="-46.5595" font-family="Helvetica,sans-Serif" font-size="10.00">63</text>
</a>
</g>
</g>
<!-- dir_578bb10d05c7497569e3ae4615cf11b2&#45;&gt;dir_da0072eb60d31f378848661c417de134 -->
<g id="edge2" class="edge"><title>dir_578bb10d05c7497569e3ae4615cf11b2&#45;&gt;dir_da0072eb60d31f378848661c417de134</title>
<path fill="none" stroke="black" d="M81.691,-143.697C86.8866,-135.389 94.0573,-125.277 101.177,-116.141"/>
<polygon fill="black" stroke="black" points="104.101,-118.09 107.643,-108.104 98.6475,-113.701 104.101,-118.09"/>
<g id="a_edge2&#45;headlabel"><a xlink:href="dir_000075_000009.xhtml" target="_top" xlink:title="8">
<text text-anchor="middle" x="104.06" y="-120.17" font-family="Helvetica,sans-Serif" font-size="10.00">8</text>
</a>
</g>
</g>
<!-- dir_4c01700622fd5a05ee3afcaacc12f3a8&#45;&gt;dir_578bb10d05c7497569e3ae4615cf11b2 -->
<g id="edge3" class="edge"><title>dir_4c01700622fd5a05ee3afcaacc12f3a8&#45;&gt;dir_578bb10d05c7497569e3ae4615cf11b2</title>
<path fill="none" stroke="black" d="M75,-215.697C75,-207.983 75,-198.712 75,-190.112"/>
<polygon fill="black" stroke="black" points="78.5001,-190.104 75,-180.104 71.5001,-190.104 78.5001,-190.104"/>
<g id="a_edge3&#45;headlabel"><a xlink:href="dir_000016_000075.xhtml" target="_top" xlink:title="2">
<text text-anchor="middle" x="81.3393" y="-191.199" font-family="Helvetica,sans-Serif" font-size="10.00">2</text>
</a>
</g>
</g>
<!-- dir_4c01700622fd5a05ee3afcaacc12f3a8&#45;&gt;dir_de18afb36696138c96356a62009637d5 -->
<g id="edge4" class="edge"><title>dir_4c01700622fd5a05ee3afcaacc12f3a8&#45;&gt;dir_de18afb36696138c96356a62009637d5</title>
<path fill="none" stroke="black" d="M94.5326,-215.895C118.166,-193.76 156.692,-152.698 172,-108 177.184,-92.8632 177.597,-86.9889 172,-72 168.124,-61.6206 161.197,-51.9274 153.876,-43.7427"/>
<polygon fill="black" stroke="black" points="156.269,-41.1816 146.823,-36.3845 151.216,-46.0256 156.269,-41.1816"/>
<g id="a_edge4&#45;headlabel"><a xlink:href="dir_000016_000072.xhtml" target="_top" xlink:title="23">
<text text-anchor="middle" x="160.806" y="-39.3118" font-family="Helvetica,sans-Serif" font-size="10.00">23</text>
</a>
</g>
</g>
<!-- dir_de18afb36696138c96356a62009637d5&#45;&gt;dir_578bb10d05c7497569e3ae4615cf11b2 -->
<g id="edge5" class="edge"><title>dir_de18afb36696138c96356a62009637d5&#45;&gt;dir_578bb10d05c7497569e3ae4615cf11b2</title>
<path fill="none" stroke="black" d="M114.004,-36.0407C105.298,-45.544 94.5888,-58.2265 89,-72 81.0602,-91.5677 80.164,-115.561 79.6955,-133.703"/>
<polygon fill="black" stroke="black" points="76.1916,-133.796 79.4096,-143.89 83.1888,-133.993 76.1916,-133.796"/>
<g id="a_edge5&#45;headlabel"><a xlink:href="dir_000072_000075.xhtml" target="_top" xlink:title="3">
<text text-anchor="middle" x="73.4541" y="-127.623" font-family="Helvetica,sans-Serif" font-size="10.00">3</text>
</a>
</g>
</g>
<!-- dir_da0072eb60d31f378848661c417de134&#45;&gt;dir_578bb10d05c7497569e3ae4615cf11b2 -->
<g id="edge6" class="edge"><title>dir_da0072eb60d31f378848661c417de134&#45;&gt;dir_578bb10d05c7497569e3ae4615cf11b2</title>
<path fill="none" stroke="black" d="M119.433,-108.104C114.269,-116.383 107.114,-126.488 99.9938,-135.64"/>
<polygon fill="black" stroke="black" points="97.056,-133.708 93.5225,-143.697 102.513,-138.092 97.056,-133.708"/>
<g id="a_edge6&#45;headlabel"><a xlink:href="dir_000009_000075.xhtml" target="_top" xlink:title="14">
<text text-anchor="middle" x="97.0933" y="-126.628" font-family="Helvetica,sans-Serif" font-size="10.00">14</text>
</a>
</g>
</g>
<!-- dir_da0072eb60d31f378848661c417de134&#45;&gt;dir_de18afb36696138c96356a62009637d5 -->
<g id="edge7" class="edge"><title>dir_da0072eb60d31f378848661c417de134&#45;&gt;dir_de18afb36696138c96356a62009637d5</title>
<path fill="none" stroke="black" d="M126,-71.6966C126,-63.9827 126,-54.7125 126,-46.1124"/>
<polygon fill="black" stroke="black" points="129.5,-46.1043 126,-36.1043 122.5,-46.1044 129.5,-46.1043"/>
<g id="a_edge7&#45;headlabel"><a xlink:href="dir_000009_000072.xhtml" target="_top" xlink:title="93">
<text text-anchor="middle" x="132.339" y="-47.199" font-family="Helvetica,sans-Serif" font-size="10.00">93</text>
</a>
</g>
</g>
<!-- dir_89a1adf13dffb155c372242433532d34&#45;&gt;dir_578bb10d05c7497569e3ae4615cf11b2 -->
<g id="edge8" class="edge"><title>dir_89a1adf13dffb155c372242433532d34&#45;&gt;dir_578bb10d05c7497569e3ae4615cf11b2</title>
<path fill="none" stroke="black" d="M129.202,-215.697C120.396,-207.135 109.618,-196.656 99.9989,-187.304"/>
<polygon fill="black" stroke="black" points="102.203,-184.566 92.593,-180.104 97.3232,-189.585 102.203,-184.566"/>
<g id="a_edge8&#45;headlabel"><a xlink:href="dir_000036_000075.xhtml" target="_top" xlink:title="3">
<text text-anchor="middle" x="106.759" y="-182.536" font-family="Helvetica,sans-Serif" font-size="10.00">3</text>
</a>
</g>
</g>
<!-- dir_89a1adf13dffb155c372242433532d34&#45;&gt;dir_de18afb36696138c96356a62009637d5 -->
<g id="edge9" class="edge"><title>dir_89a1adf13dffb155c372242433532d34&#45;&gt;dir_de18afb36696138c96356a62009637d5</title>
<path fill="none" stroke="black" d="M174.035,-216.008C185.894,-206.929 198.562,-194.603 205,-180 224.362,-136.078 227.587,-114.353 205,-72 195.904,-54.9451 178.615,-42.4071 162.524,-33.8206"/>
<polygon fill="black" stroke="black" points="163.772,-30.5327 153.259,-29.2173 160.657,-36.8015 163.772,-30.5327"/>
<g id="a_edge9&#45;headlabel"><a xlink:href="dir_000036_000072.xhtml" target="_top" xlink:title="22">
<text text-anchor="middle" x="168.255" y="-27.0894" font-family="Helvetica,sans-Serif" font-size="10.00">22</text>
</a>
</g>
</g>
</g>
</svg>
