<?xml version="1.0" encoding="UTF-8" standalone="no"?>
<!DOCTYPE svg PUBLIC "-//W3C//DTD SVG 1.1//EN"
 "http://www.w3.org/Graphics/SVG/1.1/DTD/svg11.dtd">
<!-- Generated by graphviz version 2.38.0 (20140413.2041)
 -->
<!-- Title: src/gromacs/options/filenameoptionmanager.h Pages: 1 -->
<svg width="748pt" height="330pt"
 viewBox="0.00 0.00 747.50 330.00" xmlns="http://www.w3.org/2000/svg" xmlns:xlink="http://www.w3.org/1999/xlink">
<g id="graph0" class="graph" transform="scale(1 1) rotate(0) translate(4 326)">
<title>src/gromacs/options/filenameoptionmanager.h</title>
<polygon fill="white" stroke="none" points="-4,4 -4,-326 743.5,-326 743.5,4 -4,4"/>
<!-- Node1 -->
<g id="node1" class="node"><title>Node1</title>
<polygon fill="#bfbfbf" stroke="black" points="268.5,-291.5 268.5,-321.5 396.5,-321.5 396.5,-291.5 268.5,-291.5"/>
<text text-anchor="start" x="276.5" y="-309.5" font-family="Helvetica,sans-Serif" font-size="10.00">src/gromacs/options</text>
<text text-anchor="middle" x="332.5" y="-298.5" font-family="Helvetica,sans-Serif" font-size="10.00">/filenameoptionmanager.h</text>
</g>
<!-- Node2 -->
<g id="node2" class="node"><title>Node2</title>
<polygon fill="white" stroke="#bfbfbf" points="0,-62 0,-81 41,-81 41,-62 0,-62"/>
<text text-anchor="middle" x="20.5" y="-69" font-family="Helvetica,sans-Serif" font-size="10.00">string</text>
</g>
<!-- Node1&#45;&gt;Node2 -->
<g id="edge1" class="edge"><title>Node1&#45;&gt;Node2</title>
<path fill="none" stroke="midnightblue" d="M311.035,-291.32C295.968,-281.3 275.395,-267.485 257.5,-255 187.796,-206.37 169.227,-195.64 102.5,-143 79.4045,-124.78 53.862,-102.453 37.5199,-87.872"/>
<polygon fill="midnightblue" stroke="midnightblue" points="39.6561,-85.0864 29.8744,-81.0158 34.9827,-90.2979 39.6561,-85.0864"/>
</g>
<!-- Node3 -->
<g id="node3" class="node"><title>Node3</title>
<g id="a_node3"><a xlink:href="options_2options_8h.xhtml" target="_top" xlink:title="Declares gmx::Options. ">
<polygon fill="white" stroke="black" points="267,-235.5 267,-254.5 398,-254.5 398,-235.5 267,-235.5"/>
<text text-anchor="middle" x="332.5" y="-242.5" font-family="Helvetica,sans-Serif" font-size="10.00">gromacs/options/options.h</text>
</a>
</g>
</g>
<!-- Node1&#45;&gt;Node3 -->
<g id="edge2" class="edge"><title>Node1&#45;&gt;Node3</title>
<path fill="none" stroke="midnightblue" d="M332.5,-291.399C332.5,-283.466 332.5,-273.458 332.5,-264.858"/>
<polygon fill="midnightblue" stroke="midnightblue" points="336,-264.658 332.5,-254.658 329,-264.658 336,-264.658"/>
</g>
<!-- Node9 -->
<g id="node9" class="node"><title>Node9</title>
<g id="a_node9"><a xlink:href="classhelpers_8h.xhtml" target="_top" xlink:title="Declares common utility classes and macros. ">
<polygon fill="white" stroke="black" points="593.5,-62 593.5,-81 739.5,-81 739.5,-62 593.5,-62"/>
<text text-anchor="middle" x="666.5" y="-69" font-family="Helvetica,sans-Serif" font-size="10.00">gromacs/utility/classhelpers.h</text>
</a>
</g>
</g>
<!-- Node1&#45;&gt;Node9 -->
<g id="edge18" class="edge"><title>Node1&#45;&gt;Node9</title>
<path fill="none" stroke="midnightblue" d="M353.245,-291.369C368.086,-281.253 388.533,-267.303 406.5,-255 479.024,-205.338 497.721,-193.732 569.5,-143 596.479,-123.932 627.285,-101.413 646.805,-87.0487"/>
<polygon fill="midnightblue" stroke="midnightblue" points="648.951,-89.8146 654.925,-81.0646 644.799,-84.1794 648.951,-89.8146"/>
</g>
<!-- Node3&#45;&gt;Node2 -->
<g id="edge3" class="edge"><title>Node3&#45;&gt;Node2</title>
<path fill="none" stroke="midnightblue" d="M312.754,-235.38C293.163,-226.681 262.404,-212.62 236.5,-199 164.339,-161.059 81.9431,-110.792 43.0648,-86.64"/>
<polygon fill="midnightblue" stroke="midnightblue" points="44.489,-83.4036 34.1508,-81.0857 40.7871,-89.3447 44.489,-83.4036"/>
</g>
<!-- Node4 -->
<g id="node4" class="node"><title>Node4</title>
<g id="a_node4"><a xlink:href="ioptionscontainer_8h.xhtml" target="_top" xlink:title="Declares gmx::IOptionsContainer. ">
<polygon fill="white" stroke="black" points="246,-179.5 246,-198.5 419,-198.5 419,-179.5 246,-179.5"/>
<text text-anchor="middle" x="332.5" y="-186.5" font-family="Helvetica,sans-Serif" font-size="10.00">gromacs/options/ioptionscontainer.h</text>
</a>
</g>
</g>
<!-- Node3&#45;&gt;Node4 -->
<g id="edge4" class="edge"><title>Node3&#45;&gt;Node4</title>
<path fill="none" stroke="midnightblue" d="M332.5,-235.083C332.5,-228.006 332.5,-217.861 332.5,-208.986"/>
<polygon fill="midnightblue" stroke="midnightblue" points="336,-208.751 332.5,-198.751 329,-208.751 336,-208.751"/>
</g>
<!-- Node3&#45;&gt;Node9 -->
<g id="edge17" class="edge"><title>Node3&#45;&gt;Node9</title>
<path fill="none" stroke="midnightblue" d="M351.186,-235.447C370.43,-226.569 401.232,-212.165 427.5,-199 506.71,-159.302 599.023,-109.385 642.071,-85.8916"/>
<polygon fill="midnightblue" stroke="midnightblue" points="643.869,-88.8974 650.965,-81.0304 640.512,-82.7549 643.869,-88.8974"/>
</g>
<!-- Node5 -->
<g id="node5" class="node"><title>Node5</title>
<g id="a_node5"><a xlink:href="abstractoption_8h.xhtml" target="_top" xlink:title="Defines gmx::AbstractOption, gmx::OptionTemplate and gmx::OptionInfo. ">
<polygon fill="white" stroke="black" points="331,-123.5 331,-142.5 492,-142.5 492,-123.5 331,-123.5"/>
<text text-anchor="middle" x="411.5" y="-130.5" font-family="Helvetica,sans-Serif" font-size="10.00">gromacs/options/abstractoption.h</text>
</a>
</g>
</g>
<!-- Node4&#45;&gt;Node5 -->
<g id="edge5" class="edge"><title>Node4&#45;&gt;Node5</title>
<path fill="none" stroke="midnightblue" d="M345.193,-179.324C357.401,-170.979 376.078,-158.212 390.503,-148.352"/>
<polygon fill="midnightblue" stroke="midnightblue" points="392.558,-151.187 398.839,-142.655 388.608,-145.408 392.558,-151.187"/>
</g>
<!-- Node11 -->
<g id="node11" class="node"><title>Node11</title>
<g id="a_node11"><a xlink:href="gmxassert_8h.xhtml" target="_top" xlink:title="Defines assert macros customized for Gromacs. ">
<polygon fill="white" stroke="black" points="176,-123.5 176,-142.5 313,-142.5 313,-123.5 176,-123.5"/>
<text text-anchor="middle" x="244.5" y="-130.5" font-family="Helvetica,sans-Serif" font-size="10.00">gromacs/utility/gmxassert.h</text>
</a>
</g>
</g>
<!-- Node4&#45;&gt;Node11 -->
<g id="edge12" class="edge"><title>Node4&#45;&gt;Node11</title>
<path fill="none" stroke="midnightblue" d="M318.361,-179.324C304.634,-170.9 283.564,-157.971 267.436,-148.074"/>
<polygon fill="midnightblue" stroke="midnightblue" points="268.957,-144.902 258.604,-142.655 265.296,-150.868 268.957,-144.902"/>
</g>
<!-- Node5&#45;&gt;Node2 -->
<g id="edge6" class="edge"><title>Node5&#45;&gt;Node2</title>
<path fill="none" stroke="midnightblue" d="M331.137,-123.469C232.722,-112.794 75.7938,-94.9514 49.5,-87 47.8331,-86.4959 46.1455,-85.9019 44.4667,-85.2471"/>
<polygon fill="midnightblue" stroke="midnightblue" points="45.7043,-81.9655 35.1505,-81.0339 42.8198,-88.3436 45.7043,-81.9655"/>
</g>
<!-- Node6 -->
<g id="node6" class="node"><title>Node6</title>
<polygon fill="white" stroke="#bfbfbf" points="365.5,-62 365.5,-81 409.5,-81 409.5,-62 365.5,-62"/>
<text text-anchor="middle" x="387.5" y="-69" font-family="Helvetica,sans-Serif" font-size="10.00">vector</text>
</g>
<!-- Node5&#45;&gt;Node6 -->
<g id="edge7" class="edge"><title>Node5&#45;&gt;Node6</title>
<path fill="none" stroke="midnightblue" d="M408.061,-123.475C404.604,-114.904 399.168,-101.427 394.754,-90.483"/>
<polygon fill="midnightblue" stroke="midnightblue" points="397.919,-88.9738 390.932,-81.0091 391.427,-91.5924 397.919,-88.9738"/>
</g>
<!-- Node7 -->
<g id="node7" class="node"><title>Node7</title>
<g id="a_node7"><a xlink:href="optionflags_8h.xhtml" target="_top" xlink:title="Defines flags used in option implementation. ">
<polygon fill="white" stroke="black" points="428,-62 428,-81 575,-81 575,-62 428,-62"/>
<text text-anchor="middle" x="501.5" y="-69" font-family="Helvetica,sans-Serif" font-size="10.00">gromacs/options/optionflags.h</text>
</a>
</g>
</g>
<!-- Node5&#45;&gt;Node7 -->
<g id="edge8" class="edge"><title>Node5&#45;&gt;Node7</title>
<path fill="none" stroke="midnightblue" d="M424.395,-123.475C438.964,-113.843 462.902,-98.0175 480.245,-86.5517"/>
<polygon fill="midnightblue" stroke="midnightblue" points="482.217,-89.4437 488.629,-81.0091 478.357,-83.6044 482.217,-89.4437"/>
</g>
<!-- Node5&#45;&gt;Node9 -->
<g id="edge10" class="edge"><title>Node5&#45;&gt;Node9</title>
<path fill="none" stroke="midnightblue" d="M448.035,-123.475C493.386,-112.893 570.776,-94.8356 620.229,-83.2966"/>
<polygon fill="midnightblue" stroke="midnightblue" points="621.089,-86.6899 630.032,-81.0091 619.499,-79.873 621.089,-86.6899"/>
</g>
<!-- Node8 -->
<g id="node8" class="node"><title>Node8</title>
<g id="a_node8"><a xlink:href="flags_8h.xhtml" target="_top" xlink:title="Declares gmx::FlagsTemplate. ">
<polygon fill="white" stroke="black" points="445,-0.5 445,-19.5 558,-19.5 558,-0.5 445,-0.5"/>
<text text-anchor="middle" x="501.5" y="-7.5" font-family="Helvetica,sans-Serif" font-size="10.00">gromacs/utility/flags.h</text>
</a>
</g>
</g>
<!-- Node7&#45;&gt;Node8 -->
<g id="edge9" class="edge"><title>Node7&#45;&gt;Node8</title>
<path fill="none" stroke="midnightblue" d="M501.5,-61.9751C501.5,-53.5803 501.5,-40.4806 501.5,-29.6631"/>
<polygon fill="midnightblue" stroke="midnightblue" points="505,-29.5091 501.5,-19.5091 498,-29.5091 505,-29.5091"/>
</g>
<!-- Node10 -->
<g id="node10" class="node"><title>Node10</title>
<polygon fill="white" stroke="#bfbfbf" points="640.5,-0.5 640.5,-19.5 692.5,-19.5 692.5,-0.5 640.5,-0.5"/>
<text text-anchor="middle" x="666.5" y="-7.5" font-family="Helvetica,sans-Serif" font-size="10.00">memory</text>
</g>
<!-- Node9&#45;&gt;Node10 -->
<g id="edge11" class="edge"><title>Node9&#45;&gt;Node10</title>
<path fill="none" stroke="midnightblue" d="M666.5,-61.9751C666.5,-53.5803 666.5,-40.4806 666.5,-29.6631"/>
<polygon fill="midnightblue" stroke="midnightblue" points="670,-29.5091 666.5,-19.5091 663,-29.5091 670,-29.5091"/>
</g>
<!-- Node12 -->
<g id="node12" class="node"><title>Node12</title>
<g id="a_node12"><a xlink:href="basedefinitions_8h.xhtml" target="_top" xlink:title="Basic types and macros used throughout GROMACS. ">
<polygon fill="white" stroke="black" points="190,-62 190,-81 347,-81 347,-62 190,-62"/>
<text text-anchor="middle" x="268.5" y="-69" font-family="Helvetica,sans-Serif" font-size="10.00">gromacs/utility/basedefinitions.h</text>
</a>
</g>
</g>
<!-- Node11&#45;&gt;Node12 -->
<g id="edge13" class="edge"><title>Node11&#45;&gt;Node12</title>
<path fill="none" stroke="midnightblue" d="M247.939,-123.475C251.396,-114.904 256.832,-101.427 261.246,-90.483"/>
<polygon fill="midnightblue" stroke="midnightblue" points="264.573,-91.5924 265.068,-81.0091 258.081,-88.9738 264.573,-91.5924"/>
</g>
<!-- Node15 -->
<g id="node15" class="node"><title>Node15</title>
<g id="a_node15"><a xlink:href="current__function_8h.xhtml" target="_top" xlink:title="Declares GMX_CURRENT_FUNCTION for getting the current function name. ">
<polygon fill="white" stroke="black" points="59,-56.5 59,-86.5 172,-86.5 172,-56.5 59,-56.5"/>
<text text-anchor="start" x="67" y="-74.5" font-family="Helvetica,sans-Serif" font-size="10.00">gromacs/utility/current</text>
<text text-anchor="middle" x="115.5" y="-63.5" font-family="Helvetica,sans-Serif" font-size="10.00">_function.h</text>
</a>
</g>
</g>
<!-- Node11&#45;&gt;Node15 -->
<g id="edge16" class="edge"><title>Node11&#45;&gt;Node15</title>
<path fill="none" stroke="midnightblue" d="M226.017,-123.475C207.566,-114.965 178.633,-101.619 154.998,-90.718"/>
<polygon fill="midnightblue" stroke="midnightblue" points="156.449,-87.5332 145.903,-86.523 153.517,-93.8896 156.449,-87.5332"/>
</g>
<!-- Node13 -->
<g id="node13" class="node"><title>Node13</title>
<polygon fill="white" stroke="#bfbfbf" points="208,-0.5 208,-19.5 257,-19.5 257,-0.5 208,-0.5"/>
<text text-anchor="middle" x="232.5" y="-7.5" font-family="Helvetica,sans-Serif" font-size="10.00">stdint.h</text>
</g>
<!-- Node12&#45;&gt;Node13 -->
<g id="edge14" class="edge"><title>Node12&#45;&gt;Node13</title>
<path fill="none" stroke="midnightblue" d="M263.342,-61.9751C258.049,-53.2268 249.665,-39.3691 242.973,-28.3093"/>
<polygon fill="midnightblue" stroke="midnightblue" points="245.82,-26.2531 237.648,-19.5091 239.83,-29.8768 245.82,-26.2531"/>
</g>
<!-- Node14 -->
<g id="node14" class="node"><title>Node14</title>
<polygon fill="white" stroke="#bfbfbf" points="275,-0.5 275,-19.5 334,-19.5 334,-0.5 275,-0.5"/>
<text text-anchor="middle" x="304.5" y="-7.5" font-family="Helvetica,sans-Serif" font-size="10.00">inttypes.h</text>
</g>
<!-- Node12&#45;&gt;Node14 -->
<g id="edge15" class="edge"><title>Node12&#45;&gt;Node14</title>
<path fill="none" stroke="midnightblue" d="M273.658,-61.9751C278.951,-53.2268 287.335,-39.3691 294.027,-28.3093"/>
<polygon fill="midnightblue" stroke="midnightblue" points="297.17,-29.8768 299.352,-19.5091 291.18,-26.2531 297.17,-29.8768"/>
</g>
</g>
</svg>
