<?xml version="1.0" encoding="UTF-8" standalone="no"?>
<!DOCTYPE svg PUBLIC "-//W3C//DTD SVG 1.1//EN"
 "http://www.w3.org/Graphics/SVG/1.1/DTD/svg11.dtd">
<!-- Generated by graphviz version 2.38.0 (20140413.2041)
 -->
<!-- Title: Utility Modules Pages: 1 -->
<svg width="269pt" height="333pt"
 viewBox="0.00 0.00 269.00 333.00" xmlns="http://www.w3.org/2000/svg" xmlns:xlink="http://www.w3.org/1999/xlink">
<g id="graph0" class="graph" transform="scale(1 1) rotate(0) translate(4 329)">
<title>Utility Modules</title>
<polygon fill="white" stroke="none" points="-4,4 -4,-329 265,-329 265,4 -4,4"/>
<!-- Node3 -->
<g id="node1" class="node"><title>Node3</title>
<g id="a_node1"><a xlink:href="group__module__options.xhtml" target="_top" xlink:title="Provides functionality for handling options. ">
<polygon fill="white" stroke="black" points="137,-294.5 137,-324.5 242,-324.5 242,-294.5 137,-294.5"/>
<text text-anchor="start" x="145" y="-312.5" font-family="Helvetica,sans-Serif" font-size="10.00">Extensible Handling</text>
<text text-anchor="middle" x="189.5" y="-301.5" font-family="Helvetica,sans-Serif" font-size="10.00"> of Options (options)</text>
</a>
</g>
</g>
<!-- Node7 -->
<g id="node2" class="node"><title>Node7</title>
<g id="a_node2"><a xlink:href="group__module__testutils.xhtml" target="_top" xlink:title="Common helper classes and functions for writing tests using Google Test. ">
<polygon fill="white" stroke="black" points="145.5,-245.5 145.5,-275.5 233.5,-275.5 233.5,-245.5 145.5,-245.5"/>
<text text-anchor="start" x="153.5" y="-263.5" font-family="Helvetica,sans-Serif" font-size="10.00">Testing Utilities </text>
<text text-anchor="middle" x="189.5" y="-252.5" font-family="Helvetica,sans-Serif" font-size="10.00">(testutils)</text>
</a>
</g>
</g>
<!-- Node4 -->
<g id="node3" class="node"><title>Node4</title>
<g id="a_node3"><a xlink:href="group__module__random.xhtml" target="_top" xlink:title="Provides efficient and portable random generators and distributions. ">
<polygon fill="white" stroke="black" points="133,-196.5 133,-226.5 246,-226.5 246,-196.5 133,-196.5"/>
<text text-anchor="start" x="141" y="-214.5" font-family="Helvetica,sans-Serif" font-size="10.00">Random engines and</text>
<text text-anchor="middle" x="189.5" y="-203.5" font-family="Helvetica,sans-Serif" font-size="10.00"> distributions (random)</text>
</a>
</g>
</g>
<!-- Node5 -->
<g id="node4" class="node"><title>Node5</title>
<g id="a_node4"><a xlink:href="group__module__simd.xhtml" target="_top" xlink:title="Provides an architecture&#45;independent way of doing SIMD coding. ">
<polygon fill="white" stroke="black" points="127,-147.5 127,-177.5 252,-177.5 252,-147.5 127,-147.5"/>
<text text-anchor="start" x="135" y="-165.5" font-family="Helvetica,sans-Serif" font-size="10.00">SIMD intrinsics interface</text>
<text text-anchor="middle" x="189.5" y="-154.5" font-family="Helvetica,sans-Serif" font-size="10.00"> (simd)</text>
</a>
</g>
</g>
<!-- Node2 -->
<g id="node5" class="node"><title>Node2</title>
<g id="a_node5"><a xlink:href="group__module__onlinehelp.xhtml" target="_top" xlink:title="Provides functionality for formatting help text for console and reStructuredText. ...">
<polygon fill="white" stroke="black" points="128,-98.5 128,-128.5 251,-128.5 251,-98.5 128,-98.5"/>
<text text-anchor="start" x="136" y="-116.5" font-family="Helvetica,sans-Serif" font-size="10.00">Help Formatting for</text>
<text text-anchor="middle" x="189.5" y="-105.5" font-family="Helvetica,sans-Serif" font-size="10.00"> Online Help (onlinehelp)</text>
</a>
</g>
</g>
<!-- Node1 -->
<g id="node6" class="node"><title>Node1</title>
<g id="a_node6"><a xlink:href="group__module__commandline.xhtml" target="_top" xlink:title="Provides functionality for managing command line programs. ">
<polygon fill="white" stroke="black" points="118,-49.5 118,-79.5 261,-79.5 261,-49.5 118,-49.5"/>
<text text-anchor="start" x="126" y="-67.5" font-family="Helvetica,sans-Serif" font-size="10.00">Command Line Program</text>
<text text-anchor="middle" x="189.5" y="-56.5" font-family="Helvetica,sans-Serif" font-size="10.00"> Management (commandline)</text>
</a>
</g>
</g>
<!-- Node0 -->
<g id="node7" class="node"><title>Node0</title>
<polygon fill="#bfbfbf" stroke="black" points="0,-153 0,-172 82,-172 82,-153 0,-153"/>
<text text-anchor="middle" x="41" y="-160" font-family="Helvetica,sans-Serif" font-size="10.00">Utility Modules</text>
</g>
<!-- Node0&#45;&gt;Node3 -->
<g id="edge3" class="edge"><title>Node0&#45;&gt;Node3</title>
<path fill="none" stroke="midnightblue" d="M48.915,-181.495C59.6481,-208.406 82.8161,-257.469 118,-285.5 123.562,-289.931 129.988,-293.566 136.65,-296.542"/>
<polygon fill="midnightblue" stroke="midnightblue" points="52.1431,-180.138 45.299,-172.05 45.6058,-182.641 52.1431,-180.138"/>
</g>
<!-- Node0&#45;&gt;Node7 -->
<g id="edge7" class="edge"><title>Node0&#45;&gt;Node7</title>
<path fill="none" stroke="midnightblue" d="M55.876,-179.92C69.9447,-196.544 93.1341,-221.251 118,-236.5 126.377,-241.637 135.993,-245.839 145.375,-249.209"/>
<polygon fill="midnightblue" stroke="midnightblue" points="58.4529,-177.544 49.3898,-172.056 53.0528,-181.998 58.4529,-177.544"/>
</g>
<!-- Node0&#45;&gt;Node4 -->
<g id="edge4" class="edge"><title>Node0&#45;&gt;Node4</title>
<path fill="none" stroke="midnightblue" d="M80.2973,-175.309C99.6723,-181.79 123.309,-189.695 143.543,-196.463"/>
<polygon fill="midnightblue" stroke="midnightblue" points="81.1883,-171.917 70.5945,-172.064 78.9678,-178.555 81.1883,-171.917"/>
</g>
<!-- Node0&#45;&gt;Node5 -->
<g id="edge5" class="edge"><title>Node0&#45;&gt;Node5</title>
<path fill="none" stroke="midnightblue" d="M92.0362,-162.5C103.214,-162.5 115.195,-162.5 126.782,-162.5"/>
<polygon fill="midnightblue" stroke="midnightblue" points="92.0318,-159 82.0318,-162.5 92.0317,-166 92.0318,-159"/>
</g>
<!-- Node0&#45;&gt;Node2 -->
<g id="edge2" class="edge"><title>Node0&#45;&gt;Node2</title>
<path fill="none" stroke="midnightblue" d="M80.2973,-149.691C99.6723,-143.21 123.309,-135.305 143.543,-128.537"/>
<polygon fill="midnightblue" stroke="midnightblue" points="78.9678,-146.445 70.5945,-152.936 81.1883,-153.083 78.9678,-146.445"/>
</g>
<!-- Node0&#45;&gt;Node1 -->
<g id="edge1" class="edge"><title>Node0&#45;&gt;Node1</title>
<path fill="none" stroke="midnightblue" d="M56.4256,-144.863C70.6028,-128.53 93.6067,-104.557 118,-89.5 124.078,-85.7483 130.798,-82.4548 137.605,-79.5956"/>
<polygon fill="midnightblue" stroke="midnightblue" points="53.6477,-142.728 49.8559,-152.621 58.9895,-147.252 53.6477,-142.728"/>
</g>
<!-- Node6 -->
<g id="node8" class="node"><title>Node6</title>
<g id="a_node8"><a xlink:href="group__module__utility.xhtml" target="_top" xlink:title="Provides low&#45;level utilities for error handling and other tasks. ">
<polygon fill="white" stroke="black" points="141,-0.5 141,-30.5 238,-30.5 238,-0.5 141,-0.5"/>
<text text-anchor="start" x="149" y="-18.5" font-family="Helvetica,sans-Serif" font-size="10.00">Low&#45;Level Utilities</text>
<text text-anchor="middle" x="189.5" y="-7.5" font-family="Helvetica,sans-Serif" font-size="10.00"> (utility)</text>
</a>
</g>
</g>
<!-- Node0&#45;&gt;Node6 -->
<g id="edge6" class="edge"><title>Node0&#45;&gt;Node6</title>
<path fill="none" stroke="midnightblue" d="M49.1659,-143.324C60.0774,-116.621 83.3203,-68.3853 118,-40.5 124.68,-35.1291 132.601,-30.8659 140.68,-27.4963"/>
<polygon fill="midnightblue" stroke="midnightblue" points="45.8729,-142.134 45.4745,-152.721 52.3883,-144.693 45.8729,-142.134"/>
</g>
</g>
</svg>
