<?xml version="1.0" encoding="UTF-8" standalone="no"?>
<!DOCTYPE svg PUBLIC "-//W3C//DTD SVG 1.1//EN"
 "http://www.w3.org/Graphics/SVG/1.1/DTD/svg11.dtd">
<!-- Generated by graphviz version 2.38.0 (20140413.2041)
 -->
<!-- Title: src/gromacs/simd/impl_reference/impl_reference_definitions.h Pages: 1 -->
<svg width="585pt" height="474pt"
 viewBox="0.00 0.00 584.82 474.00" xmlns="http://www.w3.org/2000/svg" xmlns:xlink="http://www.w3.org/1999/xlink">
<g id="graph0" class="graph" transform="scale(1 1) rotate(0) translate(4 470)">
<title>src/gromacs/simd/impl_reference/impl_reference_definitions.h</title>
<polygon fill="white" stroke="none" points="-4,4 -4,-470 580.823,-470 580.823,4 -4,4"/>
<!-- Node1 -->
<g id="node1" class="node"><title>Node1</title>
<polygon fill="#bfbfbf" stroke="black" points="195.823,-424.5 195.823,-465.5 324.823,-465.5 324.823,-424.5 195.823,-424.5"/>
<text text-anchor="start" x="203.823" y="-453.5" font-family="Helvetica,sans-Serif" font-size="10.00">src/gromacs/simd/impl</text>
<text text-anchor="start" x="203.823" y="-442.5" font-family="Helvetica,sans-Serif" font-size="10.00">_reference/impl_reference</text>
<text text-anchor="middle" x="260.323" y="-431.5" font-family="Helvetica,sans-Serif" font-size="10.00">_definitions.h</text>
</g>
<!-- Node2 -->
<g id="node2" class="node"><title>Node2</title>
<g id="a_node2"><a xlink:href="impl__reference_8h.xhtml" target="_top" xlink:title="Reference SIMD implementation, including SIMD documentation. ">
<polygon fill="white" stroke="black" points="219.823,-123.5 219.823,-153.5 356.823,-153.5 356.823,-123.5 219.823,-123.5"/>
<text text-anchor="start" x="227.823" y="-141.5" font-family="Helvetica,sans-Serif" font-size="10.00">src/gromacs/simd/impl</text>
<text text-anchor="middle" x="288.323" y="-130.5" font-family="Helvetica,sans-Serif" font-size="10.00">_reference/impl_reference.h</text>
</a>
</g>
</g>
<!-- Node1&#45;&gt;Node2 -->
<g id="edge1" class="edge"><title>Node1&#45;&gt;Node2</title>
<path fill="none" stroke="midnightblue" d="M185.527,-438.423C147.3,-431.816 102.76,-417.737 73.3229,-388 9.83469,-323.865 -29.0844,-259.63 28.3229,-190 52.1625,-161.085 151.051,-148.518 219.753,-143.203"/>
<polygon fill="midnightblue" stroke="midnightblue" points="185.184,-441.913 195.609,-440.022 186.28,-434.999 185.184,-441.913"/>
</g>
<!-- Node7 -->
<g id="node7" class="node"><title>Node7</title>
<g id="a_node7"><a xlink:href="impl__reference__simd4__double_8h.xhtml" target="_top" xlink:title="Reference implementation, SIMD4 single precision. ">
<polygon fill="white" stroke="black" points="37.8229,-190.5 37.8229,-231.5 166.823,-231.5 166.823,-190.5 37.8229,-190.5"/>
<text text-anchor="start" x="45.8229" y="-219.5" font-family="Helvetica,sans-Serif" font-size="10.00">src/gromacs/simd/impl</text>
<text text-anchor="start" x="45.8229" y="-208.5" font-family="Helvetica,sans-Serif" font-size="10.00">_reference/impl_reference</text>
<text text-anchor="middle" x="102.323" y="-197.5" font-family="Helvetica,sans-Serif" font-size="10.00">_simd4_double.h</text>
</a>
</g>
</g>
<!-- Node1&#45;&gt;Node7 -->
<g id="edge6" class="edge"><title>Node1&#45;&gt;Node7</title>
<path fill="none" stroke="midnightblue" d="M185.704,-438.316C151.725,-431.555 114.453,-417.371 93.3229,-388 59.3753,-340.811 80.7762,-266.72 94.0675,-231.653"/>
<polygon fill="midnightblue" stroke="midnightblue" points="185.189,-441.78 195.652,-440.109 186.431,-434.891 185.189,-441.78"/>
</g>
<!-- Node8 -->
<g id="node8" class="node"><title>Node8</title>
<g id="a_node8"><a xlink:href="impl__reference__simd4__float_8h.xhtml" target="_top" xlink:title="Reference implementation, SIMD4 single precision. ">
<polygon fill="white" stroke="black" points="102.823,-346.5 102.823,-387.5 231.823,-387.5 231.823,-346.5 102.823,-346.5"/>
<text text-anchor="start" x="110.823" y="-375.5" font-family="Helvetica,sans-Serif" font-size="10.00">src/gromacs/simd/impl</text>
<text text-anchor="start" x="110.823" y="-364.5" font-family="Helvetica,sans-Serif" font-size="10.00">_reference/impl_reference</text>
<text text-anchor="middle" x="167.323" y="-353.5" font-family="Helvetica,sans-Serif" font-size="10.00">_simd4_float.h</text>
</a>
</g>
</g>
<!-- Node1&#45;&gt;Node8 -->
<g id="edge8" class="edge"><title>Node1&#45;&gt;Node8</title>
<path fill="none" stroke="midnightblue" d="M228.586,-418.065C216.341,-408.057 202.571,-396.804 191.192,-387.506"/>
<polygon fill="midnightblue" stroke="midnightblue" points="226.415,-420.81 236.373,-424.428 230.845,-415.39 226.415,-420.81"/>
</g>
<!-- Node9 -->
<g id="node9" class="node"><title>Node9</title>
<g id="a_node9"><a xlink:href="impl__reference__simd__double_8h.xhtml" target="_top" xlink:title="Reference implementation, SIMD double precision. ">
<polygon fill="white" stroke="black" points="261.823,-268.5 261.823,-309.5 390.823,-309.5 390.823,-268.5 261.823,-268.5"/>
<text text-anchor="start" x="269.823" y="-297.5" font-family="Helvetica,sans-Serif" font-size="10.00">src/gromacs/simd/impl</text>
<text text-anchor="start" x="269.823" y="-286.5" font-family="Helvetica,sans-Serif" font-size="10.00">_reference/impl_reference</text>
<text text-anchor="middle" x="326.323" y="-275.5" font-family="Helvetica,sans-Serif" font-size="10.00">_simd_double.h</text>
</a>
</g>
</g>
<!-- Node1&#45;&gt;Node9 -->
<g id="edge10" class="edge"><title>Node1&#45;&gt;Node9</title>
<path fill="none" stroke="midnightblue" d="M272.68,-415.167C285.852,-384.432 306.356,-336.59 317.823,-309.832"/>
<polygon fill="midnightblue" stroke="midnightblue" points="269.404,-413.926 268.682,-424.496 275.838,-416.683 269.404,-413.926"/>
</g>
<!-- Node10 -->
<g id="node10" class="node"><title>Node10</title>
<g id="a_node10"><a xlink:href="impl__reference__util__double_8h.xhtml" target="_top" xlink:title="Reference impl., higher&#45;level double prec. SIMD utility functions. ">
<polygon fill="white" stroke="black" points="223.823,-190.5 223.823,-231.5 352.823,-231.5 352.823,-190.5 223.823,-190.5"/>
<text text-anchor="start" x="231.823" y="-219.5" font-family="Helvetica,sans-Serif" font-size="10.00">src/gromacs/simd/impl</text>
<text text-anchor="start" x="231.823" y="-208.5" font-family="Helvetica,sans-Serif" font-size="10.00">_reference/impl_reference</text>
<text text-anchor="middle" x="288.323" y="-197.5" font-family="Helvetica,sans-Serif" font-size="10.00">_util_double.h</text>
</a>
</g>
</g>
<!-- Node1&#45;&gt;Node10 -->
<g id="edge19" class="edge"><title>Node1&#45;&gt;Node10</title>
<path fill="none" stroke="midnightblue" d="M253.192,-414.315C245.954,-378.75 237.716,-317.735 252.323,-268 256.199,-254.804 264.25,-241.775 271.758,-231.61"/>
<polygon fill="midnightblue" stroke="midnightblue" points="249.857,-415.454 255.38,-424.495 256.7,-413.983 249.857,-415.454"/>
</g>
<!-- Node11 -->
<g id="node11" class="node"><title>Node11</title>
<g id="a_node11"><a xlink:href="impl__reference__simd__float_8h.xhtml" target="_top" xlink:title="Reference implementation, SIMD single precision. ">
<polygon fill="white" stroke="black" points="347.823,-346.5 347.823,-387.5 476.823,-387.5 476.823,-346.5 347.823,-346.5"/>
<text text-anchor="start" x="355.823" y="-375.5" font-family="Helvetica,sans-Serif" font-size="10.00">src/gromacs/simd/impl</text>
<text text-anchor="start" x="355.823" y="-364.5" font-family="Helvetica,sans-Serif" font-size="10.00">_reference/impl_reference</text>
<text text-anchor="middle" x="412.323" y="-353.5" font-family="Helvetica,sans-Serif" font-size="10.00">_simd_float.h</text>
</a>
</g>
</g>
<!-- Node1&#45;&gt;Node11 -->
<g id="edge14" class="edge"><title>Node1&#45;&gt;Node11</title>
<path fill="none" stroke="midnightblue" d="M308.507,-419.908C329.407,-409.458 353.563,-397.38 373.312,-387.506"/>
<polygon fill="midnightblue" stroke="midnightblue" points="306.846,-416.825 299.467,-424.428 309.976,-423.086 306.846,-416.825"/>
</g>
<!-- Node12 -->
<g id="node12" class="node"><title>Node12</title>
<g id="a_node12"><a xlink:href="impl__reference__util__float_8h.xhtml" target="_top" xlink:title="Reference impl., higher&#45;level single prec. SIMD utility functions. ">
<polygon fill="white" stroke="black" points="447.823,-268.5 447.823,-309.5 576.823,-309.5 576.823,-268.5 447.823,-268.5"/>
<text text-anchor="start" x="455.823" y="-297.5" font-family="Helvetica,sans-Serif" font-size="10.00">src/gromacs/simd/impl</text>
<text text-anchor="start" x="455.823" y="-286.5" font-family="Helvetica,sans-Serif" font-size="10.00">_reference/impl_reference</text>
<text text-anchor="middle" x="512.323" y="-275.5" font-family="Helvetica,sans-Serif" font-size="10.00">_util_float.h</text>
</a>
</g>
</g>
<!-- Node1&#45;&gt;Node12 -->
<g id="edge20" class="edge"><title>Node1&#45;&gt;Node12</title>
<path fill="none" stroke="midnightblue" d="M335.161,-433.635C392.025,-424.289 463.983,-408.815 485.323,-388 506.421,-367.421 511.482,-331.987 512.452,-309.837"/>
<polygon fill="midnightblue" stroke="midnightblue" points="334.414,-430.21 325.096,-435.252 335.524,-437.121 334.414,-430.21"/>
</g>
<!-- Node3 -->
<g id="node3" class="node"><title>Node3</title>
<g id="a_node3"><a xlink:href="simd_8h.xhtml" target="_top" xlink:title="Definitions, capabilities, and wrappers for SIMD module. ">
<polygon fill="white" stroke="black" points="224.823,-67.5 224.823,-86.5 351.823,-86.5 351.823,-67.5 224.823,-67.5"/>
<text text-anchor="middle" x="288.323" y="-74.5" font-family="Helvetica,sans-Serif" font-size="10.00">src/gromacs/simd/simd.h</text>
</a>
</g>
</g>
<!-- Node2&#45;&gt;Node3 -->
<g id="edge2" class="edge"><title>Node2&#45;&gt;Node3</title>
<path fill="none" stroke="midnightblue" d="M288.323,-113.289C288.323,-103.857 288.323,-93.6548 288.323,-86.6578"/>
<polygon fill="midnightblue" stroke="midnightblue" points="284.823,-113.399 288.323,-123.399 291.823,-113.399 284.823,-113.399"/>
</g>
<!-- Node4 -->
<g id="node4" class="node"><title>Node4</title>
<g id="a_node4"><a xlink:href="simd__math_8h.xhtml" target="_top" xlink:title="Math functions for SIMD datatypes. ">
<polygon fill="white" stroke="black" points="99.8229,-0.5 99.8229,-30.5 218.823,-30.5 218.823,-0.5 99.8229,-0.5"/>
<text text-anchor="start" x="107.823" y="-18.5" font-family="Helvetica,sans-Serif" font-size="10.00">src/gromacs/simd/simd</text>
<text text-anchor="middle" x="159.323" y="-7.5" font-family="Helvetica,sans-Serif" font-size="10.00">_math.h</text>
</a>
</g>
</g>
<!-- Node3&#45;&gt;Node4 -->
<g id="edge3" class="edge"><title>Node3&#45;&gt;Node4</title>
<path fill="none" stroke="midnightblue" d="M260.572,-63.2003C239.725,-53.5845 211.19,-40.4232 189.726,-30.523"/>
<polygon fill="midnightblue" stroke="midnightblue" points="259.294,-66.4649 269.84,-67.4751 262.226,-60.1085 259.294,-66.4649"/>
</g>
<!-- Node5 -->
<g id="node5" class="node"><title>Node5</title>
<g id="a_node5"><a xlink:href="pbc-simd_8h.xhtml" target="_top" xlink:title="This file contains a definition, declaration and inline function for SIMD accelerated PBC calculation...">
<polygon fill="white" stroke="black" points="237.323,-0.5 237.323,-30.5 339.323,-30.5 339.323,-0.5 237.323,-0.5"/>
<text text-anchor="start" x="245.323" y="-18.5" font-family="Helvetica,sans-Serif" font-size="10.00">src/gromacs/pbcutil</text>
<text text-anchor="middle" x="288.323" y="-7.5" font-family="Helvetica,sans-Serif" font-size="10.00">/pbc&#45;simd.h</text>
</a>
</g>
</g>
<!-- Node3&#45;&gt;Node5 -->
<g id="edge4" class="edge"><title>Node3&#45;&gt;Node5</title>
<path fill="none" stroke="midnightblue" d="M288.323,-57.2349C288.323,-48.5864 288.323,-38.4969 288.323,-30.523"/>
<polygon fill="midnightblue" stroke="midnightblue" points="284.823,-57.4751 288.323,-67.4751 291.823,-57.4751 284.823,-57.4751"/>
</g>
<!-- Node6 -->
<g id="node6" class="node"><title>Node6</title>
<g id="a_node6"><a xlink:href="vector__operations_8h.xhtml" target="_top" xlink:title="SIMD operations corresponding to Gromacs rvec datatypes. ">
<polygon fill="white" stroke="black" points="357.823,-0.5 357.823,-30.5 482.823,-30.5 482.823,-0.5 357.823,-0.5"/>
<text text-anchor="start" x="365.823" y="-18.5" font-family="Helvetica,sans-Serif" font-size="10.00">src/gromacs/simd/vector</text>
<text text-anchor="middle" x="420.323" y="-7.5" font-family="Helvetica,sans-Serif" font-size="10.00">_operations.h</text>
</a>
</g>
</g>
<!-- Node3&#45;&gt;Node6 -->
<g id="edge5" class="edge"><title>Node3&#45;&gt;Node6</title>
<path fill="none" stroke="midnightblue" d="M316.43,-63.3306C337.787,-53.7037 367.15,-40.468 389.213,-30.523"/>
<polygon fill="midnightblue" stroke="midnightblue" points="314.914,-60.1748 307.235,-67.4751 317.79,-66.5565 314.914,-60.1748"/>
</g>
<!-- Node7&#45;&gt;Node2 -->
<g id="edge7" class="edge"><title>Node7&#45;&gt;Node2</title>
<path fill="none" stroke="midnightblue" d="M163.749,-186.717C192.681,-175.751 226.238,-163.032 251.229,-153.56"/>
<polygon fill="midnightblue" stroke="midnightblue" points="162.245,-183.545 154.134,-190.362 164.726,-190.09 162.245,-183.545"/>
</g>
<!-- Node8&#45;&gt;Node2 -->
<g id="edge9" class="edge"><title>Node8&#45;&gt;Node2</title>
<path fill="none" stroke="midnightblue" d="M168.997,-336.232C172.41,-298.931 182.787,-234.507 214.323,-190 225.384,-174.39 242.898,-162.123 258.112,-153.589"/>
<polygon fill="midnightblue" stroke="midnightblue" points="165.489,-336.192 168.175,-346.441 172.466,-336.753 165.489,-336.192"/>
</g>
<!-- Node9&#45;&gt;Node2 -->
<g id="edge11" class="edge"><title>Node9&#45;&gt;Node2</title>
<path fill="none" stroke="midnightblue" d="M348.534,-259.775C361.456,-239.706 373.086,-212.441 361.323,-190 352.881,-173.894 336.711,-161.906 321.732,-153.662"/>
<polygon fill="midnightblue" stroke="midnightblue" points="345.546,-257.944 342.784,-268.173 351.322,-261.899 345.546,-257.944"/>
</g>
<!-- Node9&#45;&gt;Node10 -->
<g id="edge12" class="edge"><title>Node9&#45;&gt;Node10</title>
<path fill="none" stroke="midnightblue" d="M312.056,-259.466C307.394,-250.143 302.327,-240.007 298.076,-231.506"/>
<polygon fill="midnightblue" stroke="midnightblue" points="308.934,-261.049 316.537,-268.428 315.195,-257.919 308.934,-261.049"/>
</g>
<!-- Node10&#45;&gt;Node2 -->
<g id="edge13" class="edge"><title>Node10&#45;&gt;Node2</title>
<path fill="none" stroke="midnightblue" d="M288.323,-180.08C288.323,-171.006 288.323,-161.45 288.323,-153.892"/>
<polygon fill="midnightblue" stroke="midnightblue" points="284.823,-180.362 288.323,-190.362 291.823,-180.362 284.823,-180.362"/>
</g>
<!-- Node11&#45;&gt;Node2 -->
<g id="edge16" class="edge"><title>Node11&#45;&gt;Node2</title>
<path fill="none" stroke="midnightblue" d="M414.346,-335.848C415.285,-297.876 411.371,-232.474 378.323,-190 365.56,-173.597 345.885,-161.69 328.182,-153.573"/>
<polygon fill="midnightblue" stroke="midnightblue" points="410.833,-336.116 413.949,-346.243 417.828,-336.383 410.833,-336.116"/>
</g>
<!-- Node11&#45;&gt;Node9 -->
<g id="edge15" class="edge"><title>Node11&#45;&gt;Node9</title>
<path fill="none" stroke="midnightblue" d="M382.651,-339.779C371.409,-329.843 358.817,-318.716 348.395,-309.506"/>
<polygon fill="midnightblue" stroke="midnightblue" points="380.365,-342.429 390.176,-346.428 385,-337.183 380.365,-342.429"/>
</g>
<!-- Node11&#45;&gt;Node12 -->
<g id="edge17" class="edge"><title>Node11&#45;&gt;Node12</title>
<path fill="none" stroke="midnightblue" d="M446.072,-340.35C459.334,-330.272 474.306,-318.893 486.658,-309.506"/>
<polygon fill="midnightblue" stroke="midnightblue" points="443.919,-337.591 438.075,-346.428 448.155,-343.164 443.919,-337.591"/>
</g>
<!-- Node12&#45;&gt;Node2 -->
<g id="edge18" class="edge"><title>Node12&#45;&gt;Node2</title>
<path fill="none" stroke="midnightblue" d="M495.772,-259.793C481.668,-237.979 459.545,-208.473 433.323,-190 409.352,-173.113 379.209,-161.414 352.625,-153.563"/>
<polygon fill="midnightblue" stroke="midnightblue" points="492.849,-261.72 501.135,-268.323 498.775,-257.994 492.849,-261.72"/>
</g>
</g>
</svg>
