<?xml version="1.0" encoding="UTF-8" standalone="no"?>
<!DOCTYPE svg PUBLIC "-//W3C//DTD SVG 1.1//EN"
 "http://www.w3.org/Graphics/SVG/1.1/DTD/svg11.dtd">
<!-- Generated by graphviz version 2.38.0 (20140413.2041)
 -->
<!-- Title: src/testutils/interactivetest.h Pages: 1 -->
<svg width="546pt" height="263pt"
 viewBox="0.00 0.00 545.50 263.00" xmlns="http://www.w3.org/2000/svg" xmlns:xlink="http://www.w3.org/1999/xlink">
<g id="graph0" class="graph" transform="scale(1 1) rotate(0) translate(4 259)">
<title>src/testutils/interactivetest.h</title>
<polygon fill="white" stroke="none" points="-4,4 -4,-259 541.5,-259 541.5,4 -4,4"/>
<!-- Node1 -->
<g id="node1" class="node"><title>Node1</title>
<polygon fill="#bfbfbf" stroke="black" points="268.5,-235.5 268.5,-254.5 408.5,-254.5 408.5,-235.5 268.5,-235.5"/>
<text text-anchor="middle" x="338.5" y="-242.5" font-family="Helvetica,sans-Serif" font-size="10.00">src/testutils/interactivetest.h</text>
</g>
<!-- Node2 -->
<g id="node2" class="node"><title>Node2</title>
<g id="a_node2"><a xlink:href="arrayref_8h.xhtml" target="_top" xlink:title="Declares gmx::ArrayRef and gmx::ConstArrayRef. ">
<polygon fill="white" stroke="black" points="167,-179.5 167,-198.5 292,-198.5 292,-179.5 167,-179.5"/>
<text text-anchor="middle" x="229.5" y="-186.5" font-family="Helvetica,sans-Serif" font-size="10.00">gromacs/utility/arrayref.h</text>
</a>
</g>
</g>
<!-- Node1&#45;&gt;Node2 -->
<g id="edge1" class="edge"><title>Node1&#45;&gt;Node2</title>
<path fill="none" stroke="midnightblue" d="M320.987,-235.324C303.428,-226.625 276.169,-213.12 255.969,-203.113"/>
<polygon fill="midnightblue" stroke="midnightblue" points="257.484,-199.958 246.969,-198.655 254.376,-206.23 257.484,-199.958"/>
</g>
<!-- Node13 -->
<g id="node13" class="node"><title>Node13</title>
<g id="a_node13"><a xlink:href="classhelpers_8h.xhtml" target="_top" xlink:title="Declares common utility classes and macros. ">
<polygon fill="white" stroke="black" points="374.5,-179.5 374.5,-198.5 520.5,-198.5 520.5,-179.5 374.5,-179.5"/>
<text text-anchor="middle" x="447.5" y="-186.5" font-family="Helvetica,sans-Serif" font-size="10.00">gromacs/utility/classhelpers.h</text>
</a>
</g>
</g>
<!-- Node1&#45;&gt;Node13 -->
<g id="edge12" class="edge"><title>Node1&#45;&gt;Node13</title>
<path fill="none" stroke="midnightblue" d="M356.013,-235.324C373.572,-226.625 400.831,-213.12 421.031,-203.113"/>
<polygon fill="midnightblue" stroke="midnightblue" points="422.624,-206.23 430.031,-198.655 419.516,-199.958 422.624,-206.23"/>
</g>
<!-- Node3 -->
<g id="node3" class="node"><title>Node3</title>
<polygon fill="white" stroke="#bfbfbf" points="0,-123.5 0,-142.5 49,-142.5 49,-123.5 0,-123.5"/>
<text text-anchor="middle" x="24.5" y="-130.5" font-family="Helvetica,sans-Serif" font-size="10.00">cstddef</text>
</g>
<!-- Node2&#45;&gt;Node3 -->
<g id="edge2" class="edge"><title>Node2&#45;&gt;Node3</title>
<path fill="none" stroke="midnightblue" d="M196.5,-179.474C163.884,-171.025 112.303,-157.597 58.9745,-143.376"/>
<polygon fill="midnightblue" stroke="midnightblue" points="59.5652,-139.911 49.0007,-140.712 57.759,-146.674 59.5652,-139.911"/>
</g>
<!-- Node4 -->
<g id="node4" class="node"><title>Node4</title>
<polygon fill="white" stroke="#bfbfbf" points="67,-123.5 67,-142.5 114,-142.5 114,-123.5 67,-123.5"/>
<text text-anchor="middle" x="90.5" y="-130.5" font-family="Helvetica,sans-Serif" font-size="10.00">iterator</text>
</g>
<!-- Node2&#45;&gt;Node4 -->
<g id="edge3" class="edge"><title>Node2&#45;&gt;Node4</title>
<path fill="none" stroke="midnightblue" d="M207.475,-179.444C184.396,-170.478 147.938,-156.314 121.859,-146.183"/>
<polygon fill="midnightblue" stroke="midnightblue" points="123.011,-142.875 112.422,-142.516 120.476,-149.4 123.011,-142.875"/>
</g>
<!-- Node5 -->
<g id="node5" class="node"><title>Node5</title>
<polygon fill="white" stroke="#bfbfbf" points="132,-123.5 132,-142.5 191,-142.5 191,-123.5 132,-123.5"/>
<text text-anchor="middle" x="161.5" y="-130.5" font-family="Helvetica,sans-Serif" font-size="10.00">stdexcept</text>
</g>
<!-- Node2&#45;&gt;Node5 -->
<g id="edge4" class="edge"><title>Node2&#45;&gt;Node5</title>
<path fill="none" stroke="midnightblue" d="M218.575,-179.324C208.325,-171.185 192.779,-158.839 180.499,-149.087"/>
<polygon fill="midnightblue" stroke="midnightblue" points="182.632,-146.312 172.624,-142.834 178.279,-151.794 182.632,-146.312"/>
</g>
<!-- Node6 -->
<g id="node6" class="node"><title>Node6</title>
<polygon fill="white" stroke="#bfbfbf" points="209.5,-123.5 209.5,-142.5 249.5,-142.5 249.5,-123.5 209.5,-123.5"/>
<text text-anchor="middle" x="229.5" y="-130.5" font-family="Helvetica,sans-Serif" font-size="10.00">utility</text>
</g>
<!-- Node2&#45;&gt;Node6 -->
<g id="edge5" class="edge"><title>Node2&#45;&gt;Node6</title>
<path fill="none" stroke="midnightblue" d="M229.5,-179.083C229.5,-172.006 229.5,-161.861 229.5,-152.986"/>
<polygon fill="midnightblue" stroke="midnightblue" points="233,-152.751 229.5,-142.751 226,-152.751 233,-152.751"/>
</g>
<!-- Node7 -->
<g id="node7" class="node"><title>Node7</title>
<polygon fill="white" stroke="#bfbfbf" points="267.5,-123.5 267.5,-142.5 311.5,-142.5 311.5,-123.5 267.5,-123.5"/>
<text text-anchor="middle" x="289.5" y="-130.5" font-family="Helvetica,sans-Serif" font-size="10.00">vector</text>
</g>
<!-- Node2&#45;&gt;Node7 -->
<g id="edge6" class="edge"><title>Node2&#45;&gt;Node7</title>
<path fill="none" stroke="midnightblue" d="M239.14,-179.324C248.01,-171.341 261.375,-159.313 272.108,-149.653"/>
<polygon fill="midnightblue" stroke="midnightblue" points="274.593,-152.125 279.685,-142.834 269.91,-146.922 274.593,-152.125"/>
</g>
<!-- Node8 -->
<g id="node8" class="node"><title>Node8</title>
<g id="a_node8"><a xlink:href="gmxassert_8h.xhtml" target="_top" xlink:title="Defines assert macros customized for Gromacs. ">
<polygon fill="white" stroke="black" points="330,-123.5 330,-142.5 467,-142.5 467,-123.5 330,-123.5"/>
<text text-anchor="middle" x="398.5" y="-130.5" font-family="Helvetica,sans-Serif" font-size="10.00">gromacs/utility/gmxassert.h</text>
</a>
</g>
</g>
<!-- Node2&#45;&gt;Node8 -->
<g id="edge7" class="edge"><title>Node2&#45;&gt;Node8</title>
<path fill="none" stroke="midnightblue" d="M256.279,-179.444C284.833,-170.32 330.233,-155.813 362.037,-145.651"/>
<polygon fill="midnightblue" stroke="midnightblue" points="363.386,-148.894 371.847,-142.516 361.256,-142.226 363.386,-148.894"/>
</g>
<!-- Node9 -->
<g id="node9" class="node"><title>Node9</title>
<g id="a_node9"><a xlink:href="basedefinitions_8h.xhtml" target="_top" xlink:title="Basic types and macros used throughout GROMACS. ">
<polygon fill="white" stroke="black" points="243,-62 243,-81 400,-81 400,-62 243,-62"/>
<text text-anchor="middle" x="321.5" y="-69" font-family="Helvetica,sans-Serif" font-size="10.00">gromacs/utility/basedefinitions.h</text>
</a>
</g>
</g>
<!-- Node8&#45;&gt;Node9 -->
<g id="edge8" class="edge"><title>Node8&#45;&gt;Node9</title>
<path fill="none" stroke="midnightblue" d="M387.468,-123.475C375.232,-114.02 355.271,-98.5961 340.507,-87.1871"/>
<polygon fill="midnightblue" stroke="midnightblue" points="342.565,-84.3541 332.512,-81.0091 338.285,-89.8931 342.565,-84.3541"/>
</g>
<!-- Node12 -->
<g id="node12" class="node"><title>Node12</title>
<g id="a_node12"><a xlink:href="current__function_8h.xhtml" target="_top" xlink:title="Declares GMX_CURRENT_FUNCTION for getting the current function name. ">
<polygon fill="white" stroke="black" points="418,-56.5 418,-86.5 531,-86.5 531,-56.5 418,-56.5"/>
<text text-anchor="start" x="426" y="-74.5" font-family="Helvetica,sans-Serif" font-size="10.00">gromacs/utility/current</text>
<text text-anchor="middle" x="474.5" y="-63.5" font-family="Helvetica,sans-Serif" font-size="10.00">_function.h</text>
</a>
</g>
</g>
<!-- Node8&#45;&gt;Node12 -->
<g id="edge11" class="edge"><title>Node8&#45;&gt;Node12</title>
<path fill="none" stroke="midnightblue" d="M409.389,-123.475C419.586,-115.492 435.217,-103.254 448.609,-92.7703"/>
<polygon fill="midnightblue" stroke="midnightblue" points="450.872,-95.4434 456.588,-86.523 446.557,-89.9316 450.872,-95.4434"/>
</g>
<!-- Node10 -->
<g id="node10" class="node"><title>Node10</title>
<polygon fill="white" stroke="#bfbfbf" points="261,-0.5 261,-19.5 310,-19.5 310,-0.5 261,-0.5"/>
<text text-anchor="middle" x="285.5" y="-7.5" font-family="Helvetica,sans-Serif" font-size="10.00">stdint.h</text>
</g>
<!-- Node9&#45;&gt;Node10 -->
<g id="edge9" class="edge"><title>Node9&#45;&gt;Node10</title>
<path fill="none" stroke="midnightblue" d="M316.342,-61.9751C311.049,-53.2268 302.665,-39.3691 295.973,-28.3093"/>
<polygon fill="midnightblue" stroke="midnightblue" points="298.82,-26.2531 290.648,-19.5091 292.83,-29.8768 298.82,-26.2531"/>
</g>
<!-- Node11 -->
<g id="node11" class="node"><title>Node11</title>
<polygon fill="white" stroke="#bfbfbf" points="328,-0.5 328,-19.5 387,-19.5 387,-0.5 328,-0.5"/>
<text text-anchor="middle" x="357.5" y="-7.5" font-family="Helvetica,sans-Serif" font-size="10.00">inttypes.h</text>
</g>
<!-- Node9&#45;&gt;Node11 -->
<g id="edge10" class="edge"><title>Node9&#45;&gt;Node11</title>
<path fill="none" stroke="midnightblue" d="M326.658,-61.9751C331.951,-53.2268 340.335,-39.3691 347.027,-28.3093"/>
<polygon fill="midnightblue" stroke="midnightblue" points="350.17,-29.8768 352.352,-19.5091 344.18,-26.2531 350.17,-29.8768"/>
</g>
<!-- Node14 -->
<g id="node14" class="node"><title>Node14</title>
<polygon fill="white" stroke="#bfbfbf" points="485.5,-123.5 485.5,-142.5 537.5,-142.5 537.5,-123.5 485.5,-123.5"/>
<text text-anchor="middle" x="511.5" y="-130.5" font-family="Helvetica,sans-Serif" font-size="10.00">memory</text>
</g>
<!-- Node13&#45;&gt;Node14 -->
<g id="edge13" class="edge"><title>Node13&#45;&gt;Node14</title>
<path fill="none" stroke="midnightblue" d="M457.783,-179.324C467.336,-171.263 481.78,-159.077 493.284,-149.369"/>
<polygon fill="midnightblue" stroke="midnightblue" points="495.644,-151.958 501.03,-142.834 491.13,-146.608 495.644,-151.958"/>
</g>
</g>
</svg>
