<?xml version="1.0" encoding="UTF-8" standalone="no"?>
<!DOCTYPE svg PUBLIC "-//W3C//DTD SVG 1.1//EN"
 "http://www.w3.org/Graphics/SVG/1.1/DTD/svg11.dtd">
<!-- Generated by graphviz version 2.38.0 (20140413.2041)
 -->
<!-- Title: src/gromacs/options/ioptionsbehavior.h Pages: 1 -->
<svg width="520pt" height="352pt"
 viewBox="0.00 0.00 520.00 352.00" xmlns="http://www.w3.org/2000/svg" xmlns:xlink="http://www.w3.org/1999/xlink">
<g id="graph0" class="graph" transform="scale(1 1) rotate(0) translate(4 348)">
<title>src/gromacs/options/ioptionsbehavior.h</title>
<polygon fill="white" stroke="none" points="-4,4 -4,-348 516,-348 516,4 -4,4"/>
<!-- Node1 -->
<g id="node1" class="node"><title>Node1</title>
<polygon fill="#bfbfbf" stroke="black" points="278,-313.5 278,-343.5 383,-343.5 383,-313.5 278,-313.5"/>
<text text-anchor="start" x="286" y="-331.5" font-family="Helvetica,sans-Serif" font-size="10.00">src/gromacs/options</text>
<text text-anchor="middle" x="330.5" y="-320.5" font-family="Helvetica,sans-Serif" font-size="10.00">/ioptionsbehavior.h</text>
</g>
<!-- Node2 -->
<g id="node2" class="node"><title>Node2</title>
<g id="a_node2"><a xlink:href="timeunitmanager_8h.xhtml" target="_top" xlink:title="Declares gmx::TimeUnitManager. ">
<polygon fill="white" stroke="black" points="142,-246.5 142,-276.5 247,-276.5 247,-246.5 142,-246.5"/>
<text text-anchor="start" x="150" y="-264.5" font-family="Helvetica,sans-Serif" font-size="10.00">src/gromacs/options</text>
<text text-anchor="middle" x="194.5" y="-253.5" font-family="Helvetica,sans-Serif" font-size="10.00">/timeunitmanager.h</text>
</a>
</g>
</g>
<!-- Node1&#45;&gt;Node2 -->
<g id="edge1" class="edge"><title>Node1&#45;&gt;Node2</title>
<path fill="none" stroke="midnightblue" d="M291.776,-308.992C270.219,-298.689 243.811,-286.068 223.952,-276.577"/>
<polygon fill="midnightblue" stroke="midnightblue" points="290.458,-312.242 300.99,-313.396 293.477,-305.926 290.458,-312.242"/>
</g>
<!-- Node8 -->
<g id="node8" class="node"><title>Node8</title>
<g id="a_node8"><a xlink:href="selectionoptionbehavior_8h.xhtml" target="_top" xlink:title="Declares gmx::SelectionOptionBehavior. ">
<polygon fill="white" stroke="black" points="265.5,-246.5 265.5,-276.5 395.5,-276.5 395.5,-246.5 265.5,-246.5"/>
<text text-anchor="start" x="273.5" y="-264.5" font-family="Helvetica,sans-Serif" font-size="10.00">src/gromacs/selection</text>
<text text-anchor="middle" x="330.5" y="-253.5" font-family="Helvetica,sans-Serif" font-size="10.00">/selectionoptionbehavior.h</text>
</a>
</g>
</g>
<!-- Node1&#45;&gt;Node8 -->
<g id="edge8" class="edge"><title>Node1&#45;&gt;Node8</title>
<path fill="none" stroke="midnightblue" d="M330.5,-303.108C330.5,-294.154 330.5,-284.323 330.5,-276.577"/>
<polygon fill="midnightblue" stroke="midnightblue" points="327,-303.396 330.5,-313.396 334,-303.396 327,-303.396"/>
</g>
<!-- Node10 -->
<g id="node10" class="node"><title>Node10</title>
<g id="a_node10"><a xlink:href="options_8h.xhtml" target="_top" xlink:title="Public API convenience header for handling of options. ">
<polygon fill="white" stroke="black" points="399,-185 399,-204 512,-204 512,-185 399,-185"/>
<text text-anchor="middle" x="455.5" y="-192" font-family="Helvetica,sans-Serif" font-size="10.00">src/gromacs/options.h</text>
</a>
</g>
</g>
<!-- Node1&#45;&gt;Node10 -->
<g id="edge11" class="edge"><title>Node1&#45;&gt;Node10</title>
<path fill="none" stroke="midnightblue" d="M365.319,-307.958C378.529,-299.513 393.116,-288.845 404.5,-277 426.591,-254.014 444.108,-219.96 451.578,-204.149"/>
<polygon fill="midnightblue" stroke="midnightblue" points="363.118,-305.203 356.45,-313.437 366.797,-311.158 363.118,-305.203"/>
</g>
<!-- Node3 -->
<g id="node3" class="node"><title>Node3</title>
<g id="a_node3"><a xlink:href="plot_8h.xhtml" target="_top" xlink:title="Declares gmx::AnalysisDataPlotModule for plotting data (into a file). ">
<polygon fill="white" stroke="black" points="17.5,-179.5 17.5,-209.5 145.5,-209.5 145.5,-179.5 17.5,-179.5"/>
<text text-anchor="start" x="25.5" y="-197.5" font-family="Helvetica,sans-Serif" font-size="10.00">src/gromacs/analysisdata</text>
<text text-anchor="middle" x="81.5" y="-186.5" font-family="Helvetica,sans-Serif" font-size="10.00">/modules/plot.h</text>
</a>
</g>
</g>
<!-- Node2&#45;&gt;Node3 -->
<g id="edge2" class="edge"><title>Node2&#45;&gt;Node3</title>
<path fill="none" stroke="midnightblue" d="M161.114,-241.296C143.432,-231.125 122.102,-218.855 105.971,-209.577"/>
<polygon fill="midnightblue" stroke="midnightblue" points="159.567,-244.444 169.981,-246.396 163.058,-238.376 159.567,-244.444"/>
</g>
<!-- Node7 -->
<g id="node7" class="node"><title>Node7</title>
<g id="a_node7"><a xlink:href="analysissettings_8h.xhtml" target="_top" xlink:title="Declares gmx::TrajectoryAnalysisSettings and gmx::TopologyInformation. ">
<polygon fill="white" stroke="black" points="155.5,-112.5 155.5,-142.5 305.5,-142.5 305.5,-112.5 155.5,-112.5"/>
<text text-anchor="start" x="163.5" y="-130.5" font-family="Helvetica,sans-Serif" font-size="10.00">src/gromacs/trajectoryanalysis</text>
<text text-anchor="middle" x="230.5" y="-119.5" font-family="Helvetica,sans-Serif" font-size="10.00">/analysissettings.h</text>
</a>
</g>
</g>
<!-- Node2&#45;&gt;Node7 -->
<g id="edge6" class="edge"><title>Node2&#45;&gt;Node7</title>
<path fill="none" stroke="midnightblue" d="M201.076,-236.39C208.572,-208.901 220.576,-164.888 226.675,-142.525"/>
<polygon fill="midnightblue" stroke="midnightblue" points="197.607,-235.805 198.353,-246.374 204.361,-237.647 197.607,-235.805"/>
</g>
<!-- Node4 -->
<g id="node4" class="node"><title>Node4</title>
<g id="a_node4"><a xlink:href="analysisdata_8h.xhtml" target="_top" xlink:title="Public API convenience header for analysis data handling. ">
<polygon fill="white" stroke="black" points="0,-118 0,-137 137,-137 137,-118 0,-118"/>
<text text-anchor="middle" x="68.5" y="-125" font-family="Helvetica,sans-Serif" font-size="10.00">src/gromacs/analysisdata.h</text>
</a>
</g>
</g>
<!-- Node3&#45;&gt;Node4 -->
<g id="edge3" class="edge"><title>Node3&#45;&gt;Node4</title>
<path fill="none" stroke="midnightblue" d="M76.6499,-169.25C74.4034,-158.017 71.8753,-145.377 70.2389,-137.195"/>
<polygon fill="midnightblue" stroke="midnightblue" points="73.2859,-170.277 78.6792,-179.396 80.15,-168.904 73.2859,-170.277"/>
</g>
<!-- Node5 -->
<g id="node5" class="node"><title>Node5</title>
<g id="a_node5"><a xlink:href="trajectoryanalysis_8h.xhtml" target="_top" xlink:title="Public API convenience header for trajectory analysis framework. ">
<polygon fill="white" stroke="black" points="202.5,-56.5 202.5,-75.5 360.5,-75.5 360.5,-56.5 202.5,-56.5"/>
<text text-anchor="middle" x="281.5" y="-63.5" font-family="Helvetica,sans-Serif" font-size="10.00">src/gromacs/trajectoryanalysis.h</text>
</a>
</g>
</g>
<!-- Node4&#45;&gt;Node5 -->
<g id="edge4" class="edge"><title>Node4&#45;&gt;Node5</title>
<path fill="none" stroke="midnightblue" d="M108.776,-115.249C150.158,-103.689 213.658,-85.9511 251.039,-75.5091"/>
<polygon fill="midnightblue" stroke="midnightblue" points="107.707,-111.914 99.0177,-117.975 109.591,-118.656 107.707,-111.914"/>
</g>
<!-- Node6 -->
<g id="node6" class="node"><title>Node6</title>
<g id="a_node6"><a xlink:href="template_8cpp.xhtml" target="_top" xlink:title="Template code for writing analysis programs. ">
<polygon fill="white" stroke="black" points="211.5,-0.5 211.5,-19.5 351.5,-19.5 351.5,-0.5 211.5,-0.5"/>
<text text-anchor="middle" x="281.5" y="-7.5" font-family="Helvetica,sans-Serif" font-size="10.00">share/template/template.cpp</text>
</a>
</g>
</g>
<!-- Node5&#45;&gt;Node6 -->
<g id="edge5" class="edge"><title>Node5&#45;&gt;Node6</title>
<path fill="none" stroke="midnightblue" d="M281.5,-45.8045C281.5,-36.9102 281.5,-26.7798 281.5,-19.7511"/>
<polygon fill="midnightblue" stroke="midnightblue" points="278,-46.083 281.5,-56.083 285,-46.083 278,-46.083"/>
</g>
<!-- Node7&#45;&gt;Node5 -->
<g id="edge7" class="edge"><title>Node7&#45;&gt;Node5</title>
<path fill="none" stroke="midnightblue" d="M249.183,-104.704C257.812,-94.636 267.566,-83.2567 274.079,-75.6578"/>
<polygon fill="midnightblue" stroke="midnightblue" points="246.437,-102.529 242.586,-112.399 251.752,-107.085 246.437,-102.529"/>
</g>
<!-- Node9 -->
<g id="node9" class="node"><title>Node9</title>
<g id="a_node9"><a xlink:href="selection_8h.xhtml" target="_top" xlink:title="Public API convenience header for selection handling. ">
<polygon fill="white" stroke="black" points="260,-185 260,-204 381,-204 381,-185 260,-185"/>
<text text-anchor="middle" x="320.5" y="-192" font-family="Helvetica,sans-Serif" font-size="10.00">src/gromacs/selection.h</text>
</a>
</g>
</g>
<!-- Node8&#45;&gt;Node9 -->
<g id="edge9" class="edge"><title>Node8&#45;&gt;Node9</title>
<path fill="none" stroke="midnightblue" d="M326.769,-236.25C325.041,-225.017 323.096,-212.377 321.838,-204.195"/>
<polygon fill="midnightblue" stroke="midnightblue" points="323.35,-237.044 328.33,-246.396 330.269,-235.98 323.35,-237.044"/>
</g>
<!-- Node9&#45;&gt;Node5 -->
<g id="edge10" class="edge"><title>Node9&#45;&gt;Node5</title>
<path fill="none" stroke="midnightblue" d="M322.017,-174.345C322.682,-157.419 321.995,-132.334 314.5,-112 309.273,-97.8191 298.163,-84.211 290.28,-75.7435"/>
<polygon fill="midnightblue" stroke="midnightblue" points="318.507,-174.411 321.407,-184.601 325.494,-174.826 318.507,-174.411"/>
</g>
<!-- Node10&#45;&gt;Node5 -->
<g id="edge12" class="edge"><title>Node10&#45;&gt;Node5</title>
<path fill="none" stroke="midnightblue" d="M435.143,-178.701C398.597,-152.131 322.935,-97.1238 293.543,-75.7557"/>
<polygon fill="midnightblue" stroke="midnightblue" points="433.394,-181.756 443.54,-184.805 437.51,-176.094 433.394,-181.756"/>
</g>
</g>
</svg>
