<?xml version="1.0" encoding="UTF-8" standalone="no"?>
<!DOCTYPE svg PUBLIC "-//W3C//DTD SVG 1.1//EN"
 "http://www.w3.org/Graphics/SVG/1.1/DTD/svg11.dtd">
<!-- Generated by graphviz version 2.38.0 (20140413.2041)
 -->
<!-- Title: src/gromacs/onlinehelp/tests/mock_helptopic.h Pages: 1 -->
<svg width="544pt" height="229pt"
 viewBox="0.00 0.00 543.50 229.00" xmlns="http://www.w3.org/2000/svg" xmlns:xlink="http://www.w3.org/1999/xlink">
<g id="graph0" class="graph" transform="scale(1 1) rotate(0) translate(4 225)">
<title>src/gromacs/onlinehelp/tests/mock_helptopic.h</title>
<polygon fill="white" stroke="none" points="-4,4 -4,-225 539.5,-225 539.5,4 -4,4"/>
<!-- Node1 -->
<g id="node1" class="node"><title>Node1</title>
<polygon fill="#bfbfbf" stroke="black" points="170,-190.5 170,-220.5 291,-220.5 291,-190.5 170,-190.5"/>
<text text-anchor="start" x="178" y="-208.5" font-family="Helvetica,sans-Serif" font-size="10.00">src/gromacs/onlinehelp</text>
<text text-anchor="middle" x="230.5" y="-197.5" font-family="Helvetica,sans-Serif" font-size="10.00">/tests/mock_helptopic.h</text>
</g>
<!-- Node2 -->
<g id="node2" class="node"><title>Node2</title>
<polygon fill="white" stroke="#bfbfbf" points="75.5,-129 75.5,-148 161.5,-148 161.5,-129 75.5,-129"/>
<text text-anchor="middle" x="118.5" y="-136" font-family="Helvetica,sans-Serif" font-size="10.00">gmock/gmock.h</text>
</g>
<!-- Node1&#45;&gt;Node2 -->
<g id="edge1" class="edge"><title>Node1&#45;&gt;Node2</title>
<path fill="none" stroke="midnightblue" d="M206.198,-190.396C187.155,-179.344 160.82,-164.061 141.989,-153.132"/>
<polygon fill="midnightblue" stroke="midnightblue" points="143.564,-149.999 133.158,-148.007 140.05,-156.054 143.564,-149.999"/>
</g>
<!-- Node3 -->
<g id="node3" class="node"><title>Node3</title>
<g id="a_node3"><a xlink:href="helptopic_8h.xhtml" target="_top" xlink:title="Declares helper classes for implementing gmx::IHelpTopic. ">
<polygon fill="white" stroke="black" points="180,-123.5 180,-153.5 281,-153.5 281,-123.5 180,-123.5"/>
<text text-anchor="start" x="188" y="-141.5" font-family="Helvetica,sans-Serif" font-size="10.00">gromacs/onlinehelp</text>
<text text-anchor="middle" x="230.5" y="-130.5" font-family="Helvetica,sans-Serif" font-size="10.00">/helptopic.h</text>
</a>
</g>
</g>
<!-- Node1&#45;&gt;Node3 -->
<g id="edge2" class="edge"><title>Node1&#45;&gt;Node3</title>
<path fill="none" stroke="midnightblue" d="M230.5,-190.396C230.5,-182.645 230.5,-172.812 230.5,-163.86"/>
<polygon fill="midnightblue" stroke="midnightblue" points="234,-163.576 230.5,-153.577 227,-163.577 234,-163.576"/>
</g>
<!-- Node11 -->
<g id="node11" class="node"><title>Node11</title>
<g id="a_node11"><a xlink:href="helpwritercontext_8h.xhtml" target="_top" xlink:title="Declares gmx::HelpWriterContext. ">
<polygon fill="white" stroke="black" points="362.5,-123.5 362.5,-153.5 464.5,-153.5 464.5,-123.5 362.5,-123.5"/>
<text text-anchor="start" x="370.5" y="-141.5" font-family="Helvetica,sans-Serif" font-size="10.00">gromacs/onlinehelp</text>
<text text-anchor="middle" x="413.5" y="-130.5" font-family="Helvetica,sans-Serif" font-size="10.00">/helpwritercontext.h</text>
</a>
</g>
</g>
<!-- Node1&#45;&gt;Node11 -->
<g id="edge12" class="edge"><title>Node1&#45;&gt;Node11</title>
<path fill="none" stroke="midnightblue" d="M270.208,-190.396C297.786,-180.601 334.723,-167.481 364.188,-157.015"/>
<polygon fill="midnightblue" stroke="midnightblue" points="365.617,-160.222 373.869,-153.577 363.274,-153.625 365.617,-160.222"/>
</g>
<!-- Node4 -->
<g id="node4" class="node"><title>Node4</title>
<polygon fill="white" stroke="#bfbfbf" points="103.5,-0.5 103.5,-19.5 155.5,-19.5 155.5,-0.5 103.5,-0.5"/>
<text text-anchor="middle" x="129.5" y="-7.5" font-family="Helvetica,sans-Serif" font-size="10.00">memory</text>
</g>
<!-- Node3&#45;&gt;Node4 -->
<g id="edge3" class="edge"><title>Node3&#45;&gt;Node4</title>
<path fill="none" stroke="midnightblue" d="M195.28,-123.385C178.797,-115.095 160.252,-103.054 148.5,-87 136.229,-70.2366 131.837,-46.4199 130.291,-29.9353"/>
<polygon fill="midnightblue" stroke="midnightblue" points="133.777,-29.6132 129.613,-19.871 126.793,-30.0837 133.777,-29.6132"/>
</g>
<!-- Node5 -->
<g id="node5" class="node"><title>Node5</title>
<g id="a_node5"><a xlink:href="ihelptopic_8h.xhtml" target="_top" xlink:title="Declares gmx::IHelpTopic. ">
<polygon fill="white" stroke="black" points="0,-56.5 0,-86.5 101,-86.5 101,-56.5 0,-56.5"/>
<text text-anchor="start" x="8" y="-74.5" font-family="Helvetica,sans-Serif" font-size="10.00">gromacs/onlinehelp</text>
<text text-anchor="middle" x="50.5" y="-63.5" font-family="Helvetica,sans-Serif" font-size="10.00">/ihelptopic.h</text>
</a>
</g>
</g>
<!-- Node3&#45;&gt;Node5 -->
<g id="edge4" class="edge"><title>Node3&#45;&gt;Node5</title>
<path fill="none" stroke="midnightblue" d="M191.443,-123.396C164.317,-113.601 127.986,-100.481 99.004,-90.0153"/>
<polygon fill="midnightblue" stroke="midnightblue" points="100.075,-86.6811 89.4811,-86.5765 97.6979,-93.265 100.075,-86.6811"/>
</g>
<!-- Node6 -->
<g id="node6" class="node"><title>Node6</title>
<g id="a_node6"><a xlink:href="classhelpers_8h.xhtml" target="_top" xlink:title="Declares common utility classes and macros. ">
<polygon fill="white" stroke="black" points="157.5,-62 157.5,-81 303.5,-81 303.5,-62 157.5,-62"/>
<text text-anchor="middle" x="230.5" y="-69" font-family="Helvetica,sans-Serif" font-size="10.00">gromacs/utility/classhelpers.h</text>
</a>
</g>
</g>
<!-- Node3&#45;&gt;Node6 -->
<g id="edge6" class="edge"><title>Node3&#45;&gt;Node6</title>
<path fill="none" stroke="midnightblue" d="M230.5,-123.396C230.5,-114.064 230.5,-101.714 230.5,-91.5173"/>
<polygon fill="midnightblue" stroke="midnightblue" points="234,-91.1945 230.5,-81.1945 227,-91.1946 234,-91.1945"/>
</g>
<!-- Node7 -->
<g id="node7" class="node"><title>Node7</title>
<g id="a_node7"><a xlink:href="stringutil_8h.xhtml" target="_top" xlink:title="Declares common string utility and formatting routines. ">
<polygon fill="white" stroke="black" points="321.5,-62 321.5,-81 449.5,-81 449.5,-62 321.5,-62"/>
<text text-anchor="middle" x="385.5" y="-69" font-family="Helvetica,sans-Serif" font-size="10.00">gromacs/utility/stringutil.h</text>
</a>
</g>
</g>
<!-- Node3&#45;&gt;Node7 -->
<g id="edge8" class="edge"><title>Node3&#45;&gt;Node7</title>
<path fill="none" stroke="midnightblue" d="M264.133,-123.396C291.45,-111.941 329.608,-95.9385 355.806,-84.9521"/>
<polygon fill="midnightblue" stroke="midnightblue" points="357.346,-88.102 365.214,-81.007 354.639,-81.6466 357.346,-88.102"/>
</g>
<!-- Node5&#45;&gt;Node4 -->
<g id="edge5" class="edge"><title>Node5&#45;&gt;Node4</title>
<path fill="none" stroke="midnightblue" d="M69.2219,-56.3993C81.4116,-47.2185 97.292,-35.2579 109.693,-25.9182"/>
<polygon fill="midnightblue" stroke="midnightblue" points="112.123,-28.4697 118.005,-19.6578 107.911,-22.8782 112.123,-28.4697"/>
</g>
<!-- Node6&#45;&gt;Node4 -->
<g id="edge7" class="edge"><title>Node6&#45;&gt;Node4</title>
<path fill="none" stroke="midnightblue" d="M216.029,-61.9751C199.529,-52.2548 172.322,-36.2266 152.819,-24.7372"/>
<polygon fill="midnightblue" stroke="midnightblue" points="154.337,-21.5693 143.944,-19.5091 150.784,-27.6005 154.337,-21.5693"/>
</g>
<!-- Node8 -->
<g id="node8" class="node"><title>Node8</title>
<polygon fill="white" stroke="#bfbfbf" points="362.5,-0.5 362.5,-19.5 408.5,-19.5 408.5,-0.5 362.5,-0.5"/>
<text text-anchor="middle" x="385.5" y="-7.5" font-family="Helvetica,sans-Serif" font-size="10.00">cstring</text>
</g>
<!-- Node7&#45;&gt;Node8 -->
<g id="edge9" class="edge"><title>Node7&#45;&gt;Node8</title>
<path fill="none" stroke="midnightblue" d="M385.5,-61.9751C385.5,-53.5803 385.5,-40.4806 385.5,-29.6631"/>
<polygon fill="midnightblue" stroke="midnightblue" points="389,-29.5091 385.5,-19.5091 382,-29.5091 389,-29.5091"/>
</g>
<!-- Node9 -->
<g id="node9" class="node"><title>Node9</title>
<polygon fill="white" stroke="#bfbfbf" points="429,-0.5 429,-19.5 470,-19.5 470,-0.5 429,-0.5"/>
<text text-anchor="middle" x="449.5" y="-7.5" font-family="Helvetica,sans-Serif" font-size="10.00">string</text>
</g>
<!-- Node7&#45;&gt;Node9 -->
<g id="edge10" class="edge"><title>Node7&#45;&gt;Node9</title>
<path fill="none" stroke="midnightblue" d="M394.67,-61.9751C404.65,-52.6966 420.812,-37.6706 433.009,-26.331"/>
<polygon fill="midnightblue" stroke="midnightblue" points="435.407,-28.8814 440.347,-19.5091 430.64,-23.7547 435.407,-28.8814"/>
</g>
<!-- Node10 -->
<g id="node10" class="node"><title>Node10</title>
<polygon fill="white" stroke="#bfbfbf" points="491.5,-0.5 491.5,-19.5 535.5,-19.5 535.5,-0.5 491.5,-0.5"/>
<text text-anchor="middle" x="513.5" y="-7.5" font-family="Helvetica,sans-Serif" font-size="10.00">vector</text>
</g>
<!-- Node7&#45;&gt;Node10 -->
<g id="edge11" class="edge"><title>Node7&#45;&gt;Node10</title>
<path fill="none" stroke="midnightblue" d="M403.839,-61.9751C425.321,-51.9897 461.122,-35.3476 485.948,-23.8075"/>
<polygon fill="midnightblue" stroke="midnightblue" points="487.602,-26.8983 495.195,-19.5091 484.651,-20.5506 487.602,-26.8983"/>
</g>
<!-- Node11&#45;&gt;Node6 -->
<g id="edge15" class="edge"><title>Node11&#45;&gt;Node6</title>
<path fill="none" stroke="midnightblue" d="M373.792,-123.396C340.972,-111.739 294.897,-95.3731 263.936,-84.3761"/>
<polygon fill="midnightblue" stroke="midnightblue" points="265.045,-81.056 254.45,-81.007 262.702,-87.6522 265.045,-81.056"/>
</g>
<!-- Node11&#45;&gt;Node9 -->
<g id="edge13" class="edge"><title>Node11&#45;&gt;Node9</title>
<path fill="none" stroke="midnightblue" d="M431.524,-123.21C441.547,-114.066 453.066,-101.266 458.5,-87 465.647,-68.2357 461.22,-45.1404 456.392,-29.3667"/>
<polygon fill="midnightblue" stroke="midnightblue" points="459.658,-28.0992 453.124,-19.7594 453.031,-30.3538 459.658,-28.0992"/>
</g>
<!-- Node11&#45;&gt;Node10 -->
<g id="edge14" class="edge"><title>Node11&#45;&gt;Node10</title>
<path fill="none" stroke="midnightblue" d="M434.572,-123.392C447.272,-114.133 463.135,-101.149 474.5,-87 488.823,-69.1688 500.042,-45.2403 506.7,-29.0319"/>
<polygon fill="midnightblue" stroke="midnightblue" points="509.992,-30.224 510.402,-19.6371 503.479,-27.6571 509.992,-30.224"/>
</g>
</g>
</svg>
