<?xml version="1.0" encoding="UTF-8" standalone="no"?>
<!DOCTYPE svg PUBLIC "-//W3C//DTD SVG 1.1//EN"
 "http://www.w3.org/Graphics/SVG/1.1/DTD/svg11.dtd">
<!-- Generated by graphviz version 2.38.0 (20140413.2041)
 -->
<!-- Title: src/gromacs/simd/scalar/scalar.h Pages: 1 -->
<svg width="391pt" height="229pt"
 viewBox="0.00 0.00 391.00 229.00" xmlns="http://www.w3.org/2000/svg" xmlns:xlink="http://www.w3.org/1999/xlink">
<g id="graph0" class="graph" transform="scale(1 1) rotate(0) translate(4 225)">
<title>src/gromacs/simd/scalar/scalar.h</title>
<polygon fill="white" stroke="none" points="-4,4 -4,-225 387,-225 387,4 -4,4"/>
<!-- Node1 -->
<g id="node1" class="node"><title>Node1</title>
<polygon fill="#bfbfbf" stroke="black" points="126.5,-190.5 126.5,-220.5 250.5,-220.5 250.5,-190.5 126.5,-190.5"/>
<text text-anchor="start" x="134.5" y="-208.5" font-family="Helvetica,sans-Serif" font-size="10.00">src/gromacs/simd/scalar</text>
<text text-anchor="middle" x="188.5" y="-197.5" font-family="Helvetica,sans-Serif" font-size="10.00">/scalar.h</text>
</g>
<!-- Node2 -->
<g id="node2" class="node"><title>Node2</title>
<g id="a_node2"><a xlink:href="simd_8h.xhtml" target="_top" xlink:title="Definitions, capabilities, and wrappers for SIMD module. ">
<polygon fill="white" stroke="black" points="125,-67.5 125,-86.5 252,-86.5 252,-67.5 125,-67.5"/>
<text text-anchor="middle" x="188.5" y="-74.5" font-family="Helvetica,sans-Serif" font-size="10.00">src/gromacs/simd/simd.h</text>
</a>
</g>
</g>
<!-- Node1&#45;&gt;Node2 -->
<g id="edge1" class="edge"><title>Node1&#45;&gt;Node2</title>
<path fill="none" stroke="midnightblue" d="M173.726,-181.474C169.192,-173.153 164.795,-163.47 162.5,-154 159.255,-140.61 158.932,-136.308 162.5,-123 166.192,-109.23 175.231,-95.3162 181.61,-86.6811"/>
<polygon fill="midnightblue" stroke="midnightblue" points="170.749,-183.318 178.799,-190.206 176.802,-179.801 170.749,-183.318"/>
</g>
<!-- Node6 -->
<g id="node6" class="node"><title>Node6</title>
<g id="a_node6"><a xlink:href="scalar__math_8h.xhtml" target="_top" xlink:title="Scalar math functions mimicking GROMACS SIMD math functions. ">
<polygon fill="white" stroke="black" points="171.5,-123.5 171.5,-153.5 295.5,-153.5 295.5,-123.5 171.5,-123.5"/>
<text text-anchor="start" x="179.5" y="-141.5" font-family="Helvetica,sans-Serif" font-size="10.00">src/gromacs/simd/scalar</text>
<text text-anchor="middle" x="233.5" y="-130.5" font-family="Helvetica,sans-Serif" font-size="10.00">/scalar_math.h</text>
</a>
</g>
</g>
<!-- Node1&#45;&gt;Node6 -->
<g id="edge5" class="edge"><title>Node1&#45;&gt;Node6</title>
<path fill="none" stroke="midnightblue" d="M203.968,-182.157C210.53,-172.679 217.979,-161.919 223.755,-153.577"/>
<polygon fill="midnightblue" stroke="midnightblue" points="201.079,-180.182 198.264,-190.396 206.834,-184.166 201.079,-180.182"/>
</g>
<!-- Node3 -->
<g id="node3" class="node"><title>Node3</title>
<g id="a_node3"><a xlink:href="simd__math_8h.xhtml" target="_top" xlink:title="Math functions for SIMD datatypes. ">
<polygon fill="white" stroke="black" points="0,-0.5 0,-30.5 119,-30.5 119,-0.5 0,-0.5"/>
<text text-anchor="start" x="8" y="-18.5" font-family="Helvetica,sans-Serif" font-size="10.00">src/gromacs/simd/simd</text>
<text text-anchor="middle" x="59.5" y="-7.5" font-family="Helvetica,sans-Serif" font-size="10.00">_math.h</text>
</a>
</g>
</g>
<!-- Node2&#45;&gt;Node3 -->
<g id="edge2" class="edge"><title>Node2&#45;&gt;Node3</title>
<path fill="none" stroke="midnightblue" d="M160.749,-63.2003C139.902,-53.5845 111.367,-40.4232 89.9027,-30.523"/>
<polygon fill="midnightblue" stroke="midnightblue" points="159.471,-66.4649 170.017,-67.4751 162.403,-60.1085 159.471,-66.4649"/>
</g>
<!-- Node4 -->
<g id="node4" class="node"><title>Node4</title>
<g id="a_node4"><a xlink:href="pbc-simd_8h.xhtml" target="_top" xlink:title="This file contains a definition, declaration and inline function for SIMD accelerated PBC calculation...">
<polygon fill="white" stroke="black" points="137.5,-0.5 137.5,-30.5 239.5,-30.5 239.5,-0.5 137.5,-0.5"/>
<text text-anchor="start" x="145.5" y="-18.5" font-family="Helvetica,sans-Serif" font-size="10.00">src/gromacs/pbcutil</text>
<text text-anchor="middle" x="188.5" y="-7.5" font-family="Helvetica,sans-Serif" font-size="10.00">/pbc&#45;simd.h</text>
</a>
</g>
</g>
<!-- Node2&#45;&gt;Node4 -->
<g id="edge3" class="edge"><title>Node2&#45;&gt;Node4</title>
<path fill="none" stroke="midnightblue" d="M188.5,-57.2349C188.5,-48.5864 188.5,-38.4969 188.5,-30.523"/>
<polygon fill="midnightblue" stroke="midnightblue" points="185,-57.4751 188.5,-67.4751 192,-57.4751 185,-57.4751"/>
</g>
<!-- Node5 -->
<g id="node5" class="node"><title>Node5</title>
<g id="a_node5"><a xlink:href="vector__operations_8h.xhtml" target="_top" xlink:title="SIMD operations corresponding to Gromacs rvec datatypes. ">
<polygon fill="white" stroke="black" points="258,-0.5 258,-30.5 383,-30.5 383,-0.5 258,-0.5"/>
<text text-anchor="start" x="266" y="-18.5" font-family="Helvetica,sans-Serif" font-size="10.00">src/gromacs/simd/vector</text>
<text text-anchor="middle" x="320.5" y="-7.5" font-family="Helvetica,sans-Serif" font-size="10.00">_operations.h</text>
</a>
</g>
</g>
<!-- Node2&#45;&gt;Node5 -->
<g id="edge4" class="edge"><title>Node2&#45;&gt;Node5</title>
<path fill="none" stroke="midnightblue" d="M216.607,-63.3306C237.964,-53.7037 267.327,-40.468 289.39,-30.523"/>
<polygon fill="midnightblue" stroke="midnightblue" points="215.091,-60.1748 207.412,-67.4751 217.967,-66.5565 215.091,-60.1748"/>
</g>
<!-- Node6&#45;&gt;Node2 -->
<g id="edge6" class="edge"><title>Node6&#45;&gt;Node2</title>
<path fill="none" stroke="midnightblue" d="M216.789,-115.404C209.231,-105.411 200.738,-94.1815 195.048,-86.6578"/>
<polygon fill="midnightblue" stroke="midnightblue" points="214.012,-117.535 222.836,-123.399 219.595,-113.312 214.012,-117.535"/>
</g>
</g>
</svg>
