<?xml version="1.0" encoding="UTF-8" standalone="no"?>
<!DOCTYPE svg PUBLIC "-//W3C//DTD SVG 1.1//EN"
 "http://www.w3.org/Graphics/SVG/1.1/DTD/svg11.dtd">
<!-- Generated by graphviz version 2.38.0 (20140413.2041)
 -->
<!-- Title: src/gromacs/simd/simd.h Pages: 1 -->
<svg width="391pt" height="95pt"
 viewBox="0.00 0.00 391.00 95.00" xmlns="http://www.w3.org/2000/svg" xmlns:xlink="http://www.w3.org/1999/xlink">
<g id="graph0" class="graph" transform="scale(1 1) rotate(0) translate(4 91)">
<title>src/gromacs/simd/simd.h</title>
<polygon fill="white" stroke="none" points="-4,4 -4,-91 387,-91 387,4 -4,4"/>
<!-- Node1 -->
<g id="node1" class="node"><title>Node1</title>
<polygon fill="#bfbfbf" stroke="black" points="125,-67.5 125,-86.5 252,-86.5 252,-67.5 125,-67.5"/>
<text text-anchor="middle" x="188.5" y="-74.5" font-family="Helvetica,sans-Serif" font-size="10.00">src/gromacs/simd/simd.h</text>
</g>
<!-- Node2 -->
<g id="node2" class="node"><title>Node2</title>
<g id="a_node2"><a xlink:href="simd__math_8h.xhtml" target="_top" xlink:title="Math functions for SIMD datatypes. ">
<polygon fill="white" stroke="black" points="0,-0.5 0,-30.5 119,-30.5 119,-0.5 0,-0.5"/>
<text text-anchor="start" x="8" y="-18.5" font-family="Helvetica,sans-Serif" font-size="10.00">src/gromacs/simd/simd</text>
<text text-anchor="middle" x="59.5" y="-7.5" font-family="Helvetica,sans-Serif" font-size="10.00">_math.h</text>
</a>
</g>
</g>
<!-- Node1&#45;&gt;Node2 -->
<g id="edge1" class="edge"><title>Node1&#45;&gt;Node2</title>
<path fill="none" stroke="midnightblue" d="M160.749,-63.2003C139.902,-53.5845 111.367,-40.4232 89.9027,-30.523"/>
<polygon fill="midnightblue" stroke="midnightblue" points="159.471,-66.4649 170.017,-67.4751 162.403,-60.1085 159.471,-66.4649"/>
</g>
<!-- Node3 -->
<g id="node3" class="node"><title>Node3</title>
<g id="a_node3"><a xlink:href="pbc-simd_8h.xhtml" target="_top" xlink:title="This file contains a definition, declaration and inline function for SIMD accelerated PBC calculation...">
<polygon fill="white" stroke="black" points="137.5,-0.5 137.5,-30.5 239.5,-30.5 239.5,-0.5 137.5,-0.5"/>
<text text-anchor="start" x="145.5" y="-18.5" font-family="Helvetica,sans-Serif" font-size="10.00">src/gromacs/pbcutil</text>
<text text-anchor="middle" x="188.5" y="-7.5" font-family="Helvetica,sans-Serif" font-size="10.00">/pbc&#45;simd.h</text>
</a>
</g>
</g>
<!-- Node1&#45;&gt;Node3 -->
<g id="edge2" class="edge"><title>Node1&#45;&gt;Node3</title>
<path fill="none" stroke="midnightblue" d="M188.5,-57.2349C188.5,-48.5864 188.5,-38.4969 188.5,-30.523"/>
<polygon fill="midnightblue" stroke="midnightblue" points="185,-57.4751 188.5,-67.4751 192,-57.4751 185,-57.4751"/>
</g>
<!-- Node4 -->
<g id="node4" class="node"><title>Node4</title>
<g id="a_node4"><a xlink:href="vector__operations_8h.xhtml" target="_top" xlink:title="SIMD operations corresponding to Gromacs rvec datatypes. ">
<polygon fill="white" stroke="black" points="258,-0.5 258,-30.5 383,-30.5 383,-0.5 258,-0.5"/>
<text text-anchor="start" x="266" y="-18.5" font-family="Helvetica,sans-Serif" font-size="10.00">src/gromacs/simd/vector</text>
<text text-anchor="middle" x="320.5" y="-7.5" font-family="Helvetica,sans-Serif" font-size="10.00">_operations.h</text>
</a>
</g>
</g>
<!-- Node1&#45;&gt;Node4 -->
<g id="edge3" class="edge"><title>Node1&#45;&gt;Node4</title>
<path fill="none" stroke="midnightblue" d="M216.607,-63.3306C237.964,-53.7037 267.327,-40.468 289.39,-30.523"/>
<polygon fill="midnightblue" stroke="midnightblue" points="215.091,-60.1748 207.412,-67.4751 217.967,-66.5565 215.091,-60.1748"/>
</g>
</g>
</svg>
