<?xml version="1.0" encoding="UTF-8" standalone="no"?>
<!DOCTYPE svg PUBLIC "-//W3C//DTD SVG 1.1//EN"
 "http://www.w3.org/Graphics/SVG/1.1/DTD/svg11.dtd">
<!-- Generated by graphviz version 2.38.0 (20140413.2041)
 -->
<!-- Title: src/gromacs/utility/arrayref.h Pages: 1 -->
<svg width="2758pt" height="419pt"
 viewBox="0.00 0.00 2758.00 419.00" xmlns="http://www.w3.org/2000/svg" xmlns:xlink="http://www.w3.org/1999/xlink">
<g id="graph0" class="graph" transform="scale(1 1) rotate(0) translate(4 415)">
<title>src/gromacs/utility/arrayref.h</title>
<polygon fill="white" stroke="none" points="-4,4 -4,-415 2754,-415 2754,4 -4,4"/>
<!-- Node1 -->
<g id="node1" class="node"><title>Node1</title>
<polygon fill="#bfbfbf" stroke="black" points="1576.5,-380.5 1576.5,-410.5 1673.5,-410.5 1673.5,-380.5 1576.5,-380.5"/>
<text text-anchor="start" x="1584.5" y="-398.5" font-family="Helvetica,sans-Serif" font-size="10.00">src/gromacs/utility</text>
<text text-anchor="middle" x="1625" y="-387.5" font-family="Helvetica,sans-Serif" font-size="10.00">/arrayref.h</text>
</g>
<!-- Node2 -->
<g id="node2" class="node"><title>Node2</title>
<g id="a_node2"><a xlink:href="dataframe_8h.xhtml" target="_top" xlink:title="Declares classes for accessing data frame information. ">
<polygon fill="white" stroke="black" points="606,-313.5 606,-343.5 734,-343.5 734,-313.5 606,-313.5"/>
<text text-anchor="start" x="614" y="-331.5" font-family="Helvetica,sans-Serif" font-size="10.00">src/gromacs/analysisdata</text>
<text text-anchor="middle" x="670" y="-320.5" font-family="Helvetica,sans-Serif" font-size="10.00">/dataframe.h</text>
</a>
</g>
</g>
<!-- Node1&#45;&gt;Node2 -->
<g id="edge1" class="edge"><title>Node1&#45;&gt;Node2</title>
<path fill="none" stroke="midnightblue" d="M1566.12,-390.492C1396.81,-378.969 909.625,-345.81 734.043,-333.859"/>
<polygon fill="midnightblue" stroke="midnightblue" points="1566.11,-394 1576.33,-391.187 1566.59,-387.016 1566.11,-394"/>
</g>
<!-- Node7 -->
<g id="node7" class="node"><title>Node7</title>
<g id="a_node7"><a xlink:href="trajectoryanalysis_8h.xhtml" target="_top" xlink:title="Public API convenience header for trajectory analysis framework. ">
<polygon fill="white" stroke="black" points="691,-56.5 691,-75.5 849,-75.5 849,-56.5 691,-56.5"/>
<text text-anchor="middle" x="770" y="-63.5" font-family="Helvetica,sans-Serif" font-size="10.00">src/gromacs/trajectoryanalysis.h</text>
</a>
</g>
</g>
<!-- Node1&#45;&gt;Node7 -->
<g id="edge59" class="edge"><title>Node1&#45;&gt;Node7</title>
<path fill="none" stroke="midnightblue" d="M1566.01,-392.86C1274.3,-384.373 0,-342.708 0,-262.5 0,-262.5 0,-262.5 0,-193.5 0,-124.028 494.365,-84.6704 690.856,-71.7711"/>
<polygon fill="midnightblue" stroke="midnightblue" points="1566.27,-396.369 1576.37,-393.16 1566.47,-389.372 1566.27,-396.369"/>
</g>
<!-- Node13 -->
<g id="node13" class="node"><title>Node13</title>
<g id="a_node13"><a xlink:href="basicoptions_8h.xhtml" target="_top" xlink:title="Declares option objects for basic option types. ">
<polygon fill="white" stroke="black" points="551.5,-179.5 551.5,-209.5 656.5,-209.5 656.5,-179.5 551.5,-179.5"/>
<text text-anchor="start" x="559.5" y="-197.5" font-family="Helvetica,sans-Serif" font-size="10.00">src/gromacs/options</text>
<text text-anchor="middle" x="604" y="-186.5" font-family="Helvetica,sans-Serif" font-size="10.00">/basicoptions.h</text>
</a>
</g>
</g>
<!-- Node1&#45;&gt;Node13 -->
<g id="edge16" class="edge"><title>Node1&#45;&gt;Node13</title>
<path fill="none" stroke="midnightblue" d="M1566.41,-392.904C1446.71,-389.002 1178.19,-376.776 1093,-344 1046.46,-326.093 1042.33,-307.658 1003,-277 985.81,-263.6 985.005,-254.652 965,-246 853.48,-197.771 814.212,-227.665 694,-210 681.943,-208.228 668.997,-206.211 656.787,-204.255"/>
<polygon fill="midnightblue" stroke="midnightblue" points="1566.39,-396.405 1576.49,-393.225 1566.61,-389.409 1566.39,-396.405"/>
</g>
<!-- Node15 -->
<g id="node15" class="node"><title>Node15</title>
<g id="a_node15"><a xlink:href="selection_2selection_8h.xhtml" target="_top" xlink:title="Declares gmx::Selection and supporting classes. ">
<polygon fill="white" stroke="black" points="1012.5,-246.5 1012.5,-276.5 1125.5,-276.5 1125.5,-246.5 1012.5,-246.5"/>
<text text-anchor="start" x="1020.5" y="-264.5" font-family="Helvetica,sans-Serif" font-size="10.00">src/gromacs/selection</text>
<text text-anchor="middle" x="1069" y="-253.5" font-family="Helvetica,sans-Serif" font-size="10.00">/selection.h</text>
</a>
</g>
</g>
<!-- Node1&#45;&gt;Node15 -->
<g id="edge19" class="edge"><title>Node1&#45;&gt;Node15</title>
<path fill="none" stroke="midnightblue" d="M1566.47,-394.457C1451.57,-393.428 1201.31,-386.241 1128,-344 1101.21,-328.564 1083.26,-295.513 1074.73,-276.584"/>
<polygon fill="midnightblue" stroke="midnightblue" points="1566.47,-397.957 1576.49,-394.534 1566.52,-390.957 1566.47,-397.957"/>
</g>
<!-- Node21 -->
<g id="node21" class="node"><title>Node21</title>
<g id="a_node21"><a xlink:href="forceoutput_8h.xhtml" target="_top" xlink:title="This file contains the definition of a container for force and virial output. ">
<polygon fill="white" stroke="black" points="1170.5,-313.5 1170.5,-343.5 1281.5,-343.5 1281.5,-313.5 1170.5,-313.5"/>
<text text-anchor="start" x="1178.5" y="-331.5" font-family="Helvetica,sans-Serif" font-size="10.00">src/gromacs/mdtypes</text>
<text text-anchor="middle" x="1226" y="-320.5" font-family="Helvetica,sans-Serif" font-size="10.00">/forceoutput.h</text>
</a>
</g>
</g>
<!-- Node1&#45;&gt;Node21 -->
<g id="edge30" class="edge"><title>Node1&#45;&gt;Node21</title>
<path fill="none" stroke="midnightblue" d="M1566.18,-386.411C1500.23,-377.124 1390.2,-360.974 1296,-344 1291.36,-343.164 1286.55,-342.256 1281.73,-341.317"/>
<polygon fill="midnightblue" stroke="midnightblue" points="1565.98,-389.918 1576.37,-387.841 1566.95,-382.986 1565.98,-389.918"/>
</g>
<!-- Node22 -->
<g id="node22" class="node"><title>Node22</title>
<g id="a_node22"><a xlink:href="paddedvector_8h.xhtml" target="_top" xlink:title="Declares gmx::PaddedRVecVector. ">
<polygon fill="white" stroke="black" points="1338.5,-319 1338.5,-338 1503.5,-338 1503.5,-319 1338.5,-319"/>
<text text-anchor="middle" x="1421" y="-326" font-family="Helvetica,sans-Serif" font-size="10.00">src/gromacs/math/paddedvector.h</text>
</a>
</g>
</g>
<!-- Node1&#45;&gt;Node22 -->
<g id="edge31" class="edge"><title>Node1&#45;&gt;Node22</title>
<path fill="none" stroke="midnightblue" d="M1571.43,-377.43C1531.64,-364.754 1479.06,-348.001 1447.77,-338.029"/>
<polygon fill="midnightblue" stroke="midnightblue" points="1570.4,-380.775 1580.99,-380.476 1572.52,-374.105 1570.4,-380.775"/>
</g>
<!-- Node23 -->
<g id="node23" class="node"><title>Node23</title>
<g id="a_node23"><a xlink:href="state_8h.xhtml" target="_top" xlink:title="This file contains the definition of the microstate of the simulated system. ">
<polygon fill="white" stroke="black" points="1310.5,-246.5 1310.5,-276.5 1421.5,-276.5 1421.5,-246.5 1310.5,-246.5"/>
<text text-anchor="start" x="1318.5" y="-264.5" font-family="Helvetica,sans-Serif" font-size="10.00">src/gromacs/mdtypes</text>
<text text-anchor="middle" x="1366" y="-253.5" font-family="Helvetica,sans-Serif" font-size="10.00">/state.h</text>
</a>
</g>
</g>
<!-- Node1&#45;&gt;Node23 -->
<g id="edge33" class="edge"><title>Node1&#45;&gt;Node23</title>
<path fill="none" stroke="midnightblue" d="M1566.09,-393.104C1488.59,-389.88 1358.72,-379.222 1329,-344 1311.86,-323.692 1334.13,-294.15 1350.8,-276.772"/>
<polygon fill="midnightblue" stroke="midnightblue" points="1566.07,-396.606 1576.19,-393.495 1566.34,-389.611 1566.07,-396.606"/>
</g>
<!-- Node24 -->
<g id="node24" class="node"><title>Node24</title>
<g id="a_node24"><a xlink:href="simd__memory_8h.xhtml" target="_top" xlink:title="Declares SimdArrayRef. ">
<polygon fill="white" stroke="black" points="1521.5,-313.5 1521.5,-343.5 1640.5,-343.5 1640.5,-313.5 1521.5,-313.5"/>
<text text-anchor="start" x="1529.5" y="-331.5" font-family="Helvetica,sans-Serif" font-size="10.00">src/gromacs/simd/simd</text>
<text text-anchor="middle" x="1581" y="-320.5" font-family="Helvetica,sans-Serif" font-size="10.00">_memory.h</text>
</a>
</g>
</g>
<!-- Node1&#45;&gt;Node24 -->
<g id="edge34" class="edge"><title>Node1&#45;&gt;Node24</title>
<path fill="none" stroke="midnightblue" d="M1609.68,-371.867C1603.31,-362.459 1596.12,-351.833 1590.53,-343.577"/>
<polygon fill="midnightblue" stroke="midnightblue" points="1606.95,-374.077 1615.45,-380.396 1612.75,-370.153 1606.95,-374.077"/>
</g>
<!-- Node31 -->
<g id="node31" class="node"><title>Node31</title>
<g id="a_node31"><a xlink:href="cmdlinetest_8h.xhtml" target="_top" xlink:title="Declares utilities testing command&#45;line programs. ">
<polygon fill="white" stroke="black" points="1697.5,-319 1697.5,-338 1826.5,-338 1826.5,-319 1697.5,-319"/>
<text text-anchor="middle" x="1762" y="-326" font-family="Helvetica,sans-Serif" font-size="10.00">src/testutils/cmdlinetest.h</text>
</a>
</g>
</g>
<!-- Node1&#45;&gt;Node31 -->
<g id="edge41" class="edge"><title>Node1&#45;&gt;Node31</title>
<path fill="none" stroke="midnightblue" d="M1664.06,-375.967C1690.38,-363.481 1723.86,-347.598 1744.07,-338.007"/>
<polygon fill="midnightblue" stroke="midnightblue" points="1662.26,-372.947 1654.73,-380.396 1665.26,-379.272 1662.26,-372.947"/>
</g>
<!-- Node32 -->
<g id="node32" class="node"><title>Node32</title>
<g id="a_node32"><a xlink:href="domdec_8h.xhtml" target="_top" xlink:title="This file declares functions for mdrun to call to manage the details of its domain decomposition...">
<polygon fill="white" stroke="black" points="1845,-313.5 1845,-343.5 1953,-343.5 1953,-313.5 1845,-313.5"/>
<text text-anchor="start" x="1853" y="-331.5" font-family="Helvetica,sans-Serif" font-size="10.00">src/gromacs/domdec</text>
<text text-anchor="middle" x="1899" y="-320.5" font-family="Helvetica,sans-Serif" font-size="10.00">/domdec.h</text>
</a>
</g>
</g>
<!-- Node1&#45;&gt;Node32 -->
<g id="edge42" class="edge"><title>Node1&#45;&gt;Node32</title>
<path fill="none" stroke="midnightblue" d="M1683.55,-380.611C1731.27,-369.291 1798.14,-353.427 1844.68,-342.387"/>
<polygon fill="midnightblue" stroke="midnightblue" points="1682.59,-377.24 1673.67,-382.954 1684.21,-384.051 1682.59,-377.24"/>
</g>
<!-- Node34 -->
<g id="node34" class="node"><title>Node34</title>
<g id="a_node34"><a xlink:href="pme_8h.xhtml" target="_top" xlink:title="This file contains function declarations necessary for computing energies and forces for the PME long...">
<polygon fill="white" stroke="black" points="1971.5,-319 1971.5,-338 2100.5,-338 2100.5,-319 1971.5,-319"/>
<text text-anchor="middle" x="2036" y="-326" font-family="Helvetica,sans-Serif" font-size="10.00">src/gromacs/ewald/pme.h</text>
</a>
</g>
</g>
<!-- Node1&#45;&gt;Node34 -->
<g id="edge44" class="edge"><title>Node1&#45;&gt;Node34</title>
<path fill="none" stroke="midnightblue" d="M1683.66,-386.522C1750.99,-377.175 1864.69,-360.817 1962,-344 1972.45,-342.194 1983.69,-340.08 1994.19,-338.032"/>
<polygon fill="midnightblue" stroke="midnightblue" points="1683.09,-383.067 1673.66,-387.905 1684.05,-390.001 1683.09,-383.067"/>
</g>
<!-- Node37 -->
<g id="node37" class="node"><title>Node37</title>
<g id="a_node37"><a xlink:href="usergpuids_8h.xhtml" target="_top" xlink:title="Declares routines for handling user&#45;specified GPU IDs. ">
<polygon fill="white" stroke="black" points="2118.5,-313.5 2118.5,-343.5 2261.5,-343.5 2261.5,-313.5 2118.5,-313.5"/>
<text text-anchor="start" x="2126.5" y="-331.5" font-family="Helvetica,sans-Serif" font-size="10.00">src/gromacs/taskassignment</text>
<text text-anchor="middle" x="2190" y="-320.5" font-family="Helvetica,sans-Serif" font-size="10.00">/usergpuids.h</text>
</a>
</g>
</g>
<!-- Node1&#45;&gt;Node37 -->
<g id="edge47" class="edge"><title>Node1&#45;&gt;Node37</title>
<path fill="none" stroke="midnightblue" d="M1683.72,-389.77C1774.95,-382.105 1956.16,-365.624 2109,-344 2112.11,-343.56 2115.29,-343.088 2118.49,-342.594"/>
<polygon fill="midnightblue" stroke="midnightblue" points="1683.25,-386.296 1673.58,-390.616 1683.83,-393.272 1683.25,-386.296"/>
</g>
<!-- Node38 -->
<g id="node38" class="node"><title>Node38</title>
<g id="a_node38"><a xlink:href="nbsearch_8h.xhtml" target="_top" xlink:title="API for neighborhood searching for analysis. ">
<polygon fill="white" stroke="black" points="1084.5,-112.5 1084.5,-142.5 1197.5,-142.5 1197.5,-112.5 1084.5,-112.5"/>
<text text-anchor="start" x="1092.5" y="-130.5" font-family="Helvetica,sans-Serif" font-size="10.00">src/gromacs/selection</text>
<text text-anchor="middle" x="1141" y="-119.5" font-family="Helvetica,sans-Serif" font-size="10.00">/nbsearch.h</text>
</a>
</g>
</g>
<!-- Node1&#45;&gt;Node38 -->
<g id="edge48" class="edge"><title>Node1&#45;&gt;Node38</title>
<path fill="none" stroke="midnightblue" d="M1566.1,-392.187C1447.53,-386.951 1188.93,-372.38 1161,-344 1133,-315.548 1137.7,-185.845 1140.11,-142.588"/>
<polygon fill="midnightblue" stroke="midnightblue" points="1566.3,-395.699 1576.45,-392.636 1566.61,-388.706 1566.3,-395.699"/>
</g>
<!-- Node39 -->
<g id="node39" class="node"><title>Node39</title>
<g id="a_node39"><a xlink:href="valuestore_8h.xhtml" target="_top" xlink:title="Declares implementations for IOptionValueStore. ">
<polygon fill="white" stroke="black" points="2318.5,-313.5 2318.5,-343.5 2423.5,-343.5 2423.5,-313.5 2318.5,-313.5"/>
<text text-anchor="start" x="2326.5" y="-331.5" font-family="Helvetica,sans-Serif" font-size="10.00">src/gromacs/options</text>
<text text-anchor="middle" x="2371" y="-320.5" font-family="Helvetica,sans-Serif" font-size="10.00">/valuestore.h</text>
</a>
</g>
</g>
<!-- Node1&#45;&gt;Node39 -->
<g id="edge50" class="edge"><title>Node1&#45;&gt;Node39</title>
<path fill="none" stroke="midnightblue" d="M1684.11,-392.864C1802.37,-388.984 2076.31,-376.943 2304,-344 2308.71,-343.318 2313.59,-342.496 2318.46,-341.593"/>
<polygon fill="midnightblue" stroke="midnightblue" points="1683.71,-389.375 1673.83,-393.194 1683.94,-396.371 1683.71,-389.375"/>
</g>
<!-- Node40 -->
<g id="node40" class="node"><title>Node40</title>
<g id="a_node40"><a xlink:href="optionstoragetemplate_8h.xhtml" target="_top" xlink:title="Defines gmx::OptionStorageTemplate template. ">
<polygon fill="white" stroke="black" points="2247,-246.5 2247,-276.5 2371,-276.5 2371,-246.5 2247,-246.5"/>
<text text-anchor="start" x="2255" y="-264.5" font-family="Helvetica,sans-Serif" font-size="10.00">src/gromacs/options</text>
<text text-anchor="middle" x="2309" y="-253.5" font-family="Helvetica,sans-Serif" font-size="10.00">/optionstoragetemplate.h</text>
</a>
</g>
</g>
<!-- Node1&#45;&gt;Node40 -->
<g id="edge53" class="edge"><title>Node1&#45;&gt;Node40</title>
<path fill="none" stroke="midnightblue" d="M1683.89,-393.215C1833.97,-389.474 2222.32,-376.714 2270,-344 2292.89,-328.293 2302.77,-295.346 2306.69,-276.506"/>
<polygon fill="midnightblue" stroke="midnightblue" points="1683.42,-389.725 1673.51,-393.468 1683.59,-396.723 1683.42,-389.725"/>
</g>
<!-- Node42 -->
<g id="node42" class="node"><title>Node42</title>
<g id="a_node42"><a xlink:href="interactivetest_8h.xhtml" target="_top" xlink:title="Provides helper classes for testing interactive prompts. ">
<polygon fill="white" stroke="black" points="2442,-319 2442,-338 2582,-338 2582,-319 2442,-319"/>
<text text-anchor="middle" x="2512" y="-326" font-family="Helvetica,sans-Serif" font-size="10.00">src/testutils/interactivetest.h</text>
</a>
</g>
</g>
<!-- Node1&#45;&gt;Node42 -->
<g id="edge54" class="edge"><title>Node1&#45;&gt;Node42</title>
<path fill="none" stroke="midnightblue" d="M1683.95,-393.219C1817.64,-389.79 2153.93,-378.208 2433,-344 2445.32,-342.49 2458.62,-340.277 2470.73,-338.033"/>
<polygon fill="midnightblue" stroke="midnightblue" points="1683.82,-389.721 1673.91,-393.471 1684,-396.719 1683.82,-389.721"/>
</g>
<!-- Node43 -->
<g id="node43" class="node"><title>Node43</title>
<g id="a_node43"><a xlink:href="tableinput_8h.xhtml" target="_top" xlink:title="Declares structures for analytical or numerical input data to construct tables. ">
<polygon fill="white" stroke="black" points="1643,-246.5 1643,-276.5 1743,-276.5 1743,-246.5 1643,-246.5"/>
<text text-anchor="start" x="1651" y="-264.5" font-family="Helvetica,sans-Serif" font-size="10.00">src/gromacs/tables</text>
<text text-anchor="middle" x="1693" y="-253.5" font-family="Helvetica,sans-Serif" font-size="10.00">/tableinput.h</text>
</a>
</g>
</g>
<!-- Node1&#45;&gt;Node43 -->
<g id="edge55" class="edge"><title>Node1&#45;&gt;Node43</title>
<path fill="none" stroke="midnightblue" d="M1636.86,-371.476C1650.98,-344.073 1674.1,-299.185 1685.78,-276.525"/>
<polygon fill="midnightblue" stroke="midnightblue" points="1633.75,-369.881 1632.28,-380.374 1639.97,-373.087 1633.75,-369.881"/>
</g>
<!-- Node44 -->
<g id="node44" class="node"><title>Node44</title>
<g id="a_node44"><a xlink:href="unionfind_8h.xhtml" target="_top" xlink:title="Implements gmx::UnionFinder and gmx::MappedUnionFinder. ">
<polygon fill="white" stroke="black" points="2600,-313.5 2600,-343.5 2750,-343.5 2750,-313.5 2600,-313.5"/>
<text text-anchor="start" x="2608" y="-331.5" font-family="Helvetica,sans-Serif" font-size="10.00">src/gromacs/trajectoryanalysis</text>
<text text-anchor="middle" x="2675" y="-320.5" font-family="Helvetica,sans-Serif" font-size="10.00">/modules/unionfind.h</text>
</a>
</g>
</g>
<!-- Node1&#45;&gt;Node44 -->
<g id="edge58" class="edge"><title>Node1&#45;&gt;Node44</title>
<path fill="none" stroke="midnightblue" d="M1684.1,-393.849C1835.41,-391.653 2248.94,-382.327 2591,-344 2593.94,-343.67 2596.94,-343.304 2599.96,-342.908"/>
<polygon fill="midnightblue" stroke="midnightblue" points="1683.62,-390.355 1673.67,-393.995 1683.71,-397.354 1683.62,-390.355"/>
</g>
<!-- Node3 -->
<g id="node3" class="node"><title>Node3</title>
<g id="a_node3"><a xlink:href="datastorage_8h.xhtml" target="_top" xlink:title="Declares gmx::AnalysisDataStorage. ">
<polygon fill="white" stroke="black" points="828,-246.5 828,-276.5 956,-276.5 956,-246.5 828,-246.5"/>
<text text-anchor="start" x="836" y="-264.5" font-family="Helvetica,sans-Serif" font-size="10.00">src/gromacs/analysisdata</text>
<text text-anchor="middle" x="892" y="-253.5" font-family="Helvetica,sans-Serif" font-size="10.00">/datastorage.h</text>
</a>
</g>
</g>
<!-- Node2&#45;&gt;Node3 -->
<g id="edge2" class="edge"><title>Node2&#45;&gt;Node3</title>
<path fill="none" stroke="midnightblue" d="M727.789,-310.58C763.846,-300.022 809.716,-286.592 843.806,-276.611"/>
<polygon fill="midnightblue" stroke="midnightblue" points="726.511,-307.307 717.897,-313.476 728.478,-314.025 726.511,-307.307"/>
</g>
<!-- Node4 -->
<g id="node4" class="node"><title>Node4</title>
<g id="a_node4"><a xlink:href="arraydata_8h.xhtml" target="_top" xlink:title="Declares gmx::AbstractAnalysisArrayData and gmx::AnalysisArrayData. ">
<polygon fill="white" stroke="black" points="266,-246.5 266,-276.5 394,-276.5 394,-246.5 266,-246.5"/>
<text text-anchor="start" x="274" y="-264.5" font-family="Helvetica,sans-Serif" font-size="10.00">src/gromacs/analysisdata</text>
<text text-anchor="middle" x="330" y="-253.5" font-family="Helvetica,sans-Serif" font-size="10.00">/arraydata.h</text>
</a>
</g>
</g>
<!-- Node2&#45;&gt;Node4 -->
<g id="edge3" class="edge"><title>Node2&#45;&gt;Node4</title>
<path fill="none" stroke="midnightblue" d="M595.816,-313.318C535.558,-301.798 451.452,-285.719 394.088,-274.752"/>
<polygon fill="midnightblue" stroke="midnightblue" points="595.17,-316.757 605.649,-315.198 596.484,-309.882 595.17,-316.757"/>
</g>
<!-- Node6 -->
<g id="node6" class="node"><title>Node6</title>
<g id="a_node6"><a xlink:href="analysisdata_8h.xhtml" target="_top" xlink:title="Public API convenience header for analysis data handling. ">
<polygon fill="white" stroke="black" points="307.5,-118 307.5,-137 444.5,-137 444.5,-118 307.5,-118"/>
<text text-anchor="middle" x="376" y="-125" font-family="Helvetica,sans-Serif" font-size="10.00">src/gromacs/analysisdata.h</text>
</a>
</g>
</g>
<!-- Node2&#45;&gt;Node6 -->
<g id="edge15" class="edge"><title>Node2&#45;&gt;Node6</title>
<path fill="none" stroke="midnightblue" d="M595.97,-316.618C569.825,-309.348 542.186,-297.223 523,-277 491.823,-244.138 525.001,-212.94 495,-179 475.454,-156.888 444.589,-144.168 419.191,-137.025"/>
<polygon fill="midnightblue" stroke="midnightblue" points="595.339,-320.069 605.896,-319.173 597.084,-313.29 595.339,-320.069"/>
</g>
<!-- Node11 -->
<g id="node11" class="node"><title>Node11</title>
<g id="a_node11"><a xlink:href="datatest_8h.xhtml" target="_top" xlink:title="Helper classes for testing classes that derive from AbstractAnalysisData. ">
<polygon fill="white" stroke="black" points="532,-246.5 532,-276.5 660,-276.5 660,-246.5 532,-246.5"/>
<text text-anchor="start" x="540" y="-264.5" font-family="Helvetica,sans-Serif" font-size="10.00">src/gromacs/analysisdata</text>
<text text-anchor="middle" x="596" y="-253.5" font-family="Helvetica,sans-Serif" font-size="10.00">/tests/datatest.h</text>
</a>
</g>
</g>
<!-- Node2&#45;&gt;Node11 -->
<g id="edge13" class="edge"><title>Node2&#45;&gt;Node11</title>
<path fill="none" stroke="midnightblue" d="M646.204,-306.598C635.03,-296.783 622.007,-285.344 612.026,-276.577"/>
<polygon fill="midnightblue" stroke="midnightblue" points="644.12,-309.426 653.943,-313.396 648.74,-304.167 644.12,-309.426"/>
</g>
<!-- Node12 -->
<g id="node12" class="node"><title>Node12</title>
<g id="a_node12"><a xlink:href="mock__datamodule_8h.xhtml" target="_top" xlink:title="Declares mock implementation of gmx::IAnalysisDataModule. ">
<polygon fill="white" stroke="black" points="678,-246.5 678,-276.5 810,-276.5 810,-246.5 678,-246.5"/>
<text text-anchor="start" x="686" y="-264.5" font-family="Helvetica,sans-Serif" font-size="10.00">src/gromacs/analysisdata</text>
<text text-anchor="middle" x="744" y="-253.5" font-family="Helvetica,sans-Serif" font-size="10.00">/tests/mock_datamodule.h</text>
</a>
</g>
</g>
<!-- Node2&#45;&gt;Node12 -->
<g id="edge14" class="edge"><title>Node2&#45;&gt;Node12</title>
<path fill="none" stroke="midnightblue" d="M693.796,-306.598C704.97,-296.783 717.993,-285.344 727.974,-276.577"/>
<polygon fill="midnightblue" stroke="midnightblue" points="691.26,-304.167 686.057,-313.396 695.88,-309.426 691.26,-304.167"/>
</g>
<!-- Node5 -->
<g id="node5" class="node"><title>Node5</title>
<g id="a_node5"><a xlink:href="average_8h.xhtml" target="_top" xlink:title="Declares gmx::AnalysisDataAverageModule. ">
<polygon fill="white" stroke="black" points="358,-179.5 358,-209.5 486,-209.5 486,-179.5 358,-179.5"/>
<text text-anchor="start" x="366" y="-197.5" font-family="Helvetica,sans-Serif" font-size="10.00">src/gromacs/analysisdata</text>
<text text-anchor="middle" x="422" y="-186.5" font-family="Helvetica,sans-Serif" font-size="10.00">/modules/average.h</text>
</a>
</g>
</g>
<!-- Node4&#45;&gt;Node5 -->
<g id="edge4" class="edge"><title>Node4&#45;&gt;Node5</title>
<path fill="none" stroke="midnightblue" d="M358.377,-240.451C372.53,-230.452 389.305,-218.6 402.076,-209.577"/>
<polygon fill="midnightblue" stroke="midnightblue" points="356.11,-237.767 349.963,-246.396 360.149,-243.484 356.11,-237.767"/>
</g>
<!-- Node4&#45;&gt;Node6 -->
<g id="edge12" class="edge"><title>Node4&#45;&gt;Node6</title>
<path fill="none" stroke="midnightblue" d="M333.9,-236.409C336.981,-219.921 341.946,-197.739 349,-179 354.814,-163.555 364.441,-146.906 370.491,-137.109"/>
<polygon fill="midnightblue" stroke="midnightblue" points="330.44,-235.871 332.144,-246.328 337.333,-237.091 330.44,-235.871"/>
</g>
<!-- Node9 -->
<g id="node9" class="node"><title>Node9</title>
<g id="a_node9"><a xlink:href="histogram_8h.xhtml" target="_top" xlink:title="Declares analysis data modules for calculating histograms. ">
<polygon fill="white" stroke="black" points="28,-179.5 28,-209.5 156,-209.5 156,-179.5 28,-179.5"/>
<text text-anchor="start" x="36" y="-197.5" font-family="Helvetica,sans-Serif" font-size="10.00">src/gromacs/analysisdata</text>
<text text-anchor="middle" x="92" y="-186.5" font-family="Helvetica,sans-Serif" font-size="10.00">/modules/histogram.h</text>
</a>
</g>
</g>
<!-- Node4&#45;&gt;Node9 -->
<g id="edge8" class="edge"><title>Node4&#45;&gt;Node9</title>
<path fill="none" stroke="midnightblue" d="M268.541,-243.715C229.811,-233.137 180.371,-219.635 143.668,-209.611"/>
<polygon fill="midnightblue" stroke="midnightblue" points="268.082,-247.218 278.651,-246.476 269.926,-240.465 268.082,-247.218"/>
</g>
<!-- Node10 -->
<g id="node10" class="node"><title>Node10</title>
<g id="a_node10"><a xlink:href="lifetime_8h.xhtml" target="_top" xlink:title="Declares gmx::AnalysisDataLifetimeModule. ">
<polygon fill="white" stroke="black" points="174,-179.5 174,-209.5 302,-209.5 302,-179.5 174,-179.5"/>
<text text-anchor="start" x="182" y="-197.5" font-family="Helvetica,sans-Serif" font-size="10.00">src/gromacs/analysisdata</text>
<text text-anchor="middle" x="238" y="-186.5" font-family="Helvetica,sans-Serif" font-size="10.00">/modules/lifetime.h</text>
</a>
</g>
</g>
<!-- Node4&#45;&gt;Node10 -->
<g id="edge10" class="edge"><title>Node4&#45;&gt;Node10</title>
<path fill="none" stroke="midnightblue" d="M301.623,-240.451C287.47,-230.452 270.695,-218.6 257.924,-209.577"/>
<polygon fill="midnightblue" stroke="midnightblue" points="299.851,-243.484 310.037,-246.396 303.89,-237.767 299.851,-243.484"/>
</g>
<!-- Node5&#45;&gt;Node6 -->
<g id="edge5" class="edge"><title>Node5&#45;&gt;Node6</title>
<path fill="none" stroke="midnightblue" d="M406.059,-170.974C397.82,-159.332 388.242,-145.799 382.153,-137.195"/>
<polygon fill="midnightblue" stroke="midnightblue" points="403.385,-173.255 412.019,-179.396 409.099,-169.211 403.385,-173.255"/>
</g>
<!-- Node6&#45;&gt;Node7 -->
<g id="edge6" class="edge"><title>Node6&#45;&gt;Node7</title>
<path fill="none" stroke="midnightblue" d="M442.41,-116.471C518.543,-104.974 642.024,-86.3264 713.654,-75.5091"/>
<polygon fill="midnightblue" stroke="midnightblue" points="441.816,-113.021 432.451,-117.975 442.861,-119.943 441.816,-113.021"/>
</g>
<!-- Node8 -->
<g id="node8" class="node"><title>Node8</title>
<g id="a_node8"><a xlink:href="template_8cpp.xhtml" target="_top" xlink:title="Template code for writing analysis programs. ">
<polygon fill="white" stroke="black" points="700,-0.5 700,-19.5 840,-19.5 840,-0.5 700,-0.5"/>
<text text-anchor="middle" x="770" y="-7.5" font-family="Helvetica,sans-Serif" font-size="10.00">share/template/template.cpp</text>
</a>
</g>
</g>
<!-- Node7&#45;&gt;Node8 -->
<g id="edge7" class="edge"><title>Node7&#45;&gt;Node8</title>
<path fill="none" stroke="midnightblue" d="M770,-45.8045C770,-36.9102 770,-26.7798 770,-19.7511"/>
<polygon fill="midnightblue" stroke="midnightblue" points="766.5,-46.083 770,-56.083 773.5,-46.083 766.5,-46.083"/>
</g>
<!-- Node9&#45;&gt;Node6 -->
<g id="edge9" class="edge"><title>Node9&#45;&gt;Node6</title>
<path fill="none" stroke="midnightblue" d="M163.095,-177.228C218.858,-164.466 294.245,-147.212 338.736,-137.029"/>
<polygon fill="midnightblue" stroke="midnightblue" points="162.241,-173.833 153.274,-179.476 163.803,-180.657 162.241,-173.833"/>
</g>
<!-- Node10&#45;&gt;Node6 -->
<g id="edge11" class="edge"><title>Node10&#45;&gt;Node6</title>
<path fill="none" stroke="midnightblue" d="M276.998,-175.131C303.56,-162.62 337.488,-146.64 357.939,-137.007"/>
<polygon fill="midnightblue" stroke="midnightblue" points="275.499,-171.968 267.944,-179.396 278.482,-178.301 275.499,-171.968"/>
</g>
<!-- Node14 -->
<g id="node14" class="node"><title>Node14</title>
<g id="a_node14"><a xlink:href="options_8h.xhtml" target="_top" xlink:title="Public API convenience header for handling of options. ">
<polygon fill="white" stroke="black" points="563.5,-118 563.5,-137 676.5,-137 676.5,-118 563.5,-118"/>
<text text-anchor="middle" x="620" y="-125" font-family="Helvetica,sans-Serif" font-size="10.00">src/gromacs/options.h</text>
</a>
</g>
</g>
<!-- Node13&#45;&gt;Node14 -->
<g id="edge17" class="edge"><title>Node13&#45;&gt;Node14</title>
<path fill="none" stroke="midnightblue" d="M609.884,-169.596C612.67,-158.278 615.825,-145.461 617.86,-137.195"/>
<polygon fill="midnightblue" stroke="midnightblue" points="606.463,-168.849 607.472,-179.396 613.261,-170.522 606.463,-168.849"/>
</g>
<!-- Node14&#45;&gt;Node7 -->
<g id="edge18" class="edge"><title>Node14&#45;&gt;Node7</title>
<path fill="none" stroke="midnightblue" d="M650.801,-114.282C679.95,-102.72 722.948,-85.6641 748.549,-75.5091"/>
<polygon fill="midnightblue" stroke="midnightblue" points="649.496,-111.034 641.491,-117.975 652.077,-117.541 649.496,-111.034"/>
</g>
<!-- Node16 -->
<g id="node16" class="node"><title>Node16</title>
<g id="a_node16"><a xlink:href="selectioncollection_8h.xhtml" target="_top" xlink:title="Declares gmx::SelectionCollection. ">
<polygon fill="white" stroke="black" points="713.5,-179.5 713.5,-209.5 826.5,-209.5 826.5,-179.5 713.5,-179.5"/>
<text text-anchor="start" x="721.5" y="-197.5" font-family="Helvetica,sans-Serif" font-size="10.00">src/gromacs/selection</text>
<text text-anchor="middle" x="770" y="-186.5" font-family="Helvetica,sans-Serif" font-size="10.00">/selectioncollection.h</text>
</a>
</g>
</g>
<!-- Node15&#45;&gt;Node16 -->
<g id="edge20" class="edge"><title>Node15&#45;&gt;Node16</title>
<path fill="none" stroke="midnightblue" d="M1002.22,-246.216C955.393,-236.169 891.351,-222.366 835,-210 832.29,-209.405 829.516,-208.795 826.715,-208.176"/>
<polygon fill="midnightblue" stroke="midnightblue" points="1001.72,-249.69 1012.23,-248.364 1003.19,-242.845 1001.72,-249.69"/>
</g>
<!-- Node17 -->
<g id="node17" class="node"><title>Node17</title>
<g id="a_node17"><a xlink:href="selection_8h.xhtml" target="_top" xlink:title="Public API convenience header for selection handling. ">
<polygon fill="white" stroke="black" points="709.5,-118 709.5,-137 830.5,-137 830.5,-118 709.5,-118"/>
<text text-anchor="middle" x="770" y="-125" font-family="Helvetica,sans-Serif" font-size="10.00">src/gromacs/selection.h</text>
</a>
</g>
</g>
<!-- Node15&#45;&gt;Node17 -->
<g id="edge25" class="edge"><title>Node15&#45;&gt;Node17</title>
<path fill="none" stroke="midnightblue" d="M1002.47,-246.747C1000.96,-246.49 999.474,-246.24 998,-246 933.037,-235.406 747.623,-259.29 704,-210 681.194,-184.231 728.036,-152.089 754.118,-137.03"/>
<polygon fill="midnightblue" stroke="midnightblue" points="1002.03,-250.225 1012.49,-248.538 1003.26,-243.334 1002.03,-250.225"/>
</g>
<!-- Node18 -->
<g id="node18" class="node"><title>Node18</title>
<g id="a_node18"><a xlink:href="selectionoption_8h.xhtml" target="_top" xlink:title="Declares gmx::SelectionOption and gmx::SelectionOptionInfo. ">
<polygon fill="white" stroke="black" points="844.5,-179.5 844.5,-209.5 957.5,-209.5 957.5,-179.5 844.5,-179.5"/>
<text text-anchor="start" x="852.5" y="-197.5" font-family="Helvetica,sans-Serif" font-size="10.00">src/gromacs/selection</text>
<text text-anchor="middle" x="901" y="-186.5" font-family="Helvetica,sans-Serif" font-size="10.00">/selectionoption.h</text>
</a>
</g>
</g>
<!-- Node15&#45;&gt;Node18 -->
<g id="edge23" class="edge"><title>Node15&#45;&gt;Node18</title>
<path fill="none" stroke="midnightblue" d="M1022.95,-242.682C996.002,-232.257 962.464,-219.281 937.382,-209.577"/>
<polygon fill="midnightblue" stroke="midnightblue" points="1021.96,-246.052 1032.55,-246.396 1024.48,-239.523 1021.96,-246.052"/>
</g>
<!-- Node19 -->
<g id="node19" class="node"><title>Node19</title>
<g id="a_node19"><a xlink:href="analysismodule_8h.xhtml" target="_top" xlink:title="Declares gmx::TrajectoryAnalysisModule and gmx::TrajectoryAnalysisModuleData. ">
<polygon fill="white" stroke="black" points="976,-179.5 976,-209.5 1126,-209.5 1126,-179.5 976,-179.5"/>
<text text-anchor="start" x="984" y="-197.5" font-family="Helvetica,sans-Serif" font-size="10.00">src/gromacs/trajectoryanalysis</text>
<text text-anchor="middle" x="1051" y="-186.5" font-family="Helvetica,sans-Serif" font-size="10.00">/analysismodule.h</text>
</a>
</g>
</g>
<!-- Node15&#45;&gt;Node19 -->
<g id="edge26" class="edge"><title>Node15&#45;&gt;Node19</title>
<path fill="none" stroke="midnightblue" d="M1062.41,-236.697C1059.89,-227.587 1057.09,-217.493 1054.9,-209.577"/>
<polygon fill="midnightblue" stroke="midnightblue" points="1059.05,-237.693 1065.09,-246.396 1065.8,-235.825 1059.05,-237.693"/>
</g>
<!-- Node16&#45;&gt;Node17 -->
<g id="edge21" class="edge"><title>Node16&#45;&gt;Node17</title>
<path fill="none" stroke="midnightblue" d="M770,-169.25C770,-158.017 770,-145.377 770,-137.195"/>
<polygon fill="midnightblue" stroke="midnightblue" points="766.5,-169.396 770,-179.396 773.5,-169.396 766.5,-169.396"/>
</g>
<!-- Node17&#45;&gt;Node7 -->
<g id="edge22" class="edge"><title>Node17&#45;&gt;Node7</title>
<path fill="none" stroke="midnightblue" d="M770,-107.817C770,-96.9962 770,-83.898 770,-75.5091"/>
<polygon fill="midnightblue" stroke="midnightblue" points="766.5,-107.975 770,-117.975 773.5,-107.975 766.5,-107.975"/>
</g>
<!-- Node18&#45;&gt;Node17 -->
<g id="edge24" class="edge"><title>Node18&#45;&gt;Node17</title>
<path fill="none" stroke="midnightblue" d="M863.318,-174.803C838.204,-162.342 806.389,-146.556 787.145,-137.007"/>
<polygon fill="midnightblue" stroke="midnightblue" points="862.061,-178.086 872.575,-179.396 865.173,-171.816 862.061,-178.086"/>
</g>
<!-- Node19&#45;&gt;Node7 -->
<g id="edge29" class="edge"><title>Node19&#45;&gt;Node7</title>
<path fill="none" stroke="midnightblue" d="M1047.87,-169.202C1044.18,-150.712 1036.18,-126.116 1019,-112 993.5,-91.051 912.16,-79.1915 849.31,-72.9682"/>
<polygon fill="midnightblue" stroke="midnightblue" points="1044.46,-169.989 1049.59,-179.257 1051.36,-168.811 1044.46,-169.989"/>
</g>
<!-- Node20 -->
<g id="node20" class="node"><title>Node20</title>
<g id="a_node20"><a xlink:href="cmdlinerunner_8h.xhtml" target="_top" xlink:title="Declares gmx::TrajectoryAnalysisCommandLineRunner. ">
<polygon fill="white" stroke="black" points="860,-112.5 860,-142.5 1010,-142.5 1010,-112.5 860,-112.5"/>
<text text-anchor="start" x="868" y="-130.5" font-family="Helvetica,sans-Serif" font-size="10.00">src/gromacs/trajectoryanalysis</text>
<text text-anchor="middle" x="935" y="-119.5" font-family="Helvetica,sans-Serif" font-size="10.00">/cmdlinerunner.h</text>
</a>
</g>
</g>
<!-- Node19&#45;&gt;Node20 -->
<g id="edge27" class="edge"><title>Node19&#45;&gt;Node20</title>
<path fill="none" stroke="midnightblue" d="M1016.73,-174.296C998.577,-164.125 976.68,-151.855 960.121,-142.577"/>
<polygon fill="midnightblue" stroke="midnightblue" points="1015.4,-177.561 1025.83,-179.396 1018.82,-171.454 1015.4,-177.561"/>
</g>
<!-- Node20&#45;&gt;Node7 -->
<g id="edge28" class="edge"><title>Node20&#45;&gt;Node7</title>
<path fill="none" stroke="midnightblue" d="M886.314,-108.944C855.914,-97.9812 818.107,-84.3476 794.009,-75.6578"/>
<polygon fill="midnightblue" stroke="midnightblue" points="885.303,-112.299 895.897,-112.399 887.678,-105.715 885.303,-112.299"/>
</g>
<!-- Node22&#45;&gt;Node23 -->
<g id="edge32" class="edge"><title>Node22&#45;&gt;Node23</title>
<path fill="none" stroke="midnightblue" d="M1407.03,-310.989C1398.04,-300.364 1386.48,-286.702 1377.92,-276.589"/>
<polygon fill="midnightblue" stroke="midnightblue" points="1404.45,-313.361 1413.58,-318.734 1409.79,-308.839 1404.45,-313.361"/>
</g>
<!-- Node25 -->
<g id="node25" class="node"><title>Node25</title>
<g id="a_node25"><a xlink:href="simd_8h.xhtml" target="_top" xlink:title="Definitions, capabilities, and wrappers for SIMD module. ">
<polygon fill="white" stroke="black" points="1494.5,-252 1494.5,-271 1621.5,-271 1621.5,-252 1494.5,-252"/>
<text text-anchor="middle" x="1558" y="-259" font-family="Helvetica,sans-Serif" font-size="10.00">src/gromacs/simd/simd.h</text>
</a>
</g>
</g>
<!-- Node24&#45;&gt;Node25 -->
<g id="edge35" class="edge"><title>Node24&#45;&gt;Node25</title>
<path fill="none" stroke="midnightblue" d="M1572.66,-303.942C1568.63,-292.54 1564.03,-279.545 1561.08,-271.195"/>
<polygon fill="midnightblue" stroke="midnightblue" points="1569.37,-305.136 1576.01,-313.396 1575.97,-302.801 1569.37,-305.136"/>
</g>
<!-- Node26 -->
<g id="node26" class="node"><title>Node26</title>
<g id="a_node26"><a xlink:href="simd__math_8h.xhtml" target="_top" xlink:title="Math functions for SIMD datatypes. ">
<polygon fill="white" stroke="black" points="1234.5,-179.5 1234.5,-209.5 1353.5,-209.5 1353.5,-179.5 1234.5,-179.5"/>
<text text-anchor="start" x="1242.5" y="-197.5" font-family="Helvetica,sans-Serif" font-size="10.00">src/gromacs/simd/simd</text>
<text text-anchor="middle" x="1294" y="-186.5" font-family="Helvetica,sans-Serif" font-size="10.00">_math.h</text>
</a>
</g>
</g>
<!-- Node25&#45;&gt;Node26 -->
<g id="edge36" class="edge"><title>Node25&#45;&gt;Node26</title>
<path fill="none" stroke="midnightblue" d="M1513.23,-249.478C1468.54,-238.475 1399.7,-221.525 1351.1,-209.559"/>
<polygon fill="midnightblue" stroke="midnightblue" points="1512.67,-252.943 1523.22,-251.936 1514.34,-246.146 1512.67,-252.943"/>
</g>
<!-- Node27 -->
<g id="node27" class="node"><title>Node27</title>
<g id="a_node27"><a xlink:href="pbc-simd_8h.xhtml" target="_top" xlink:title="This file contains a definition, declaration and inline function for SIMD accelerated PBC calculation...">
<polygon fill="white" stroke="black" points="1372,-179.5 1372,-209.5 1474,-209.5 1474,-179.5 1372,-179.5"/>
<text text-anchor="start" x="1380" y="-197.5" font-family="Helvetica,sans-Serif" font-size="10.00">src/gromacs/pbcutil</text>
<text text-anchor="middle" x="1423" y="-186.5" font-family="Helvetica,sans-Serif" font-size="10.00">/pbc&#45;simd.h</text>
</a>
</g>
</g>
<!-- Node25&#45;&gt;Node27 -->
<g id="edge37" class="edge"><title>Node25&#45;&gt;Node27</title>
<path fill="none" stroke="midnightblue" d="M1530.95,-247.474C1508.12,-236.485 1475.53,-220.791 1452.14,-209.528"/>
<polygon fill="midnightblue" stroke="midnightblue" points="1529.54,-250.684 1540.07,-251.869 1532.58,-244.377 1529.54,-250.684"/>
</g>
<!-- Node28 -->
<g id="node28" class="node"><title>Node28</title>
<g id="a_node28"><a xlink:href="vector__operations_8h.xhtml" target="_top" xlink:title="SIMD operations corresponding to Gromacs rvec datatypes. ">
<polygon fill="white" stroke="black" points="1492.5,-179.5 1492.5,-209.5 1617.5,-209.5 1617.5,-179.5 1492.5,-179.5"/>
<text text-anchor="start" x="1500.5" y="-197.5" font-family="Helvetica,sans-Serif" font-size="10.00">src/gromacs/simd/vector</text>
<text text-anchor="middle" x="1555" y="-186.5" font-family="Helvetica,sans-Serif" font-size="10.00">_operations.h</text>
</a>
</g>
</g>
<!-- Node25&#45;&gt;Node28 -->
<g id="edge38" class="edge"><title>Node25&#45;&gt;Node28</title>
<path fill="none" stroke="midnightblue" d="M1557.13,-241.739C1556.66,-231.487 1556.08,-219.001 1555.65,-209.589"/>
<polygon fill="midnightblue" stroke="midnightblue" points="1553.64,-241.906 1557.6,-251.734 1560.63,-241.583 1553.64,-241.906"/>
</g>
<!-- Node29 -->
<g id="node29" class="node"><title>Node29</title>
<g id="a_node29"><a xlink:href="cubicsplinetable_8h.xhtml" target="_top" xlink:title="Declares classes for cubic spline table. ">
<polygon fill="white" stroke="black" points="1768,-179.5 1768,-209.5 1868,-209.5 1868,-179.5 1768,-179.5"/>
<text text-anchor="start" x="1776" y="-197.5" font-family="Helvetica,sans-Serif" font-size="10.00">src/gromacs/tables</text>
<text text-anchor="middle" x="1818" y="-186.5" font-family="Helvetica,sans-Serif" font-size="10.00">/cubicsplinetable.h</text>
</a>
</g>
</g>
<!-- Node25&#45;&gt;Node29 -->
<g id="edge39" class="edge"><title>Node25&#45;&gt;Node29</title>
<path fill="none" stroke="midnightblue" d="M1602.19,-249.451C1648.03,-237.992 1719.58,-220.104 1767.59,-208.102"/>
<polygon fill="midnightblue" stroke="midnightblue" points="1601.11,-246.115 1592.26,-251.936 1602.81,-252.906 1601.11,-246.115"/>
</g>
<!-- Node30 -->
<g id="node30" class="node"><title>Node30</title>
<g id="a_node30"><a xlink:href="quadraticsplinetable_8h.xhtml" target="_top" xlink:title="Declares classes for quadratic spline table. ">
<polygon fill="white" stroke="black" points="1636,-179.5 1636,-209.5 1750,-209.5 1750,-179.5 1636,-179.5"/>
<text text-anchor="start" x="1644" y="-197.5" font-family="Helvetica,sans-Serif" font-size="10.00">src/gromacs/tables</text>
<text text-anchor="middle" x="1693" y="-186.5" font-family="Helvetica,sans-Serif" font-size="10.00">/quadraticsplinetable.h</text>
</a>
</g>
</g>
<!-- Node25&#45;&gt;Node30 -->
<g id="edge40" class="edge"><title>Node25&#45;&gt;Node30</title>
<path fill="none" stroke="midnightblue" d="M1585.05,-247.474C1607.88,-236.485 1640.47,-220.791 1663.86,-209.528"/>
<polygon fill="midnightblue" stroke="midnightblue" points="1583.42,-244.377 1575.93,-251.869 1586.46,-250.684 1583.42,-244.377"/>
</g>
<!-- Node33 -->
<g id="node33" class="node"><title>Node33</title>
<g id="a_node33"><a xlink:href="runner_8h.xhtml" target="_top" xlink:title="Declares the routine running the inetgrators. ">
<polygon fill="white" stroke="black" points="1824,-246.5 1824,-276.5 1928,-276.5 1928,-246.5 1824,-246.5"/>
<text text-anchor="start" x="1832" y="-264.5" font-family="Helvetica,sans-Serif" font-size="10.00">src/programs/mdrun</text>
<text text-anchor="middle" x="1876" y="-253.5" font-family="Helvetica,sans-Serif" font-size="10.00">/runner.h</text>
</a>
</g>
</g>
<!-- Node32&#45;&gt;Node33 -->
<g id="edge43" class="edge"><title>Node32&#45;&gt;Node33</title>
<path fill="none" stroke="midnightblue" d="M1890.58,-303.697C1887.35,-294.587 1883.78,-284.493 1880.98,-276.577"/>
<polygon fill="midnightblue" stroke="midnightblue" points="1887.37,-305.136 1894.01,-313.396 1893.97,-302.801 1887.37,-305.136"/>
</g>
<!-- Node35 -->
<g id="node35" class="node"><title>Node35</title>
<g id="a_node35"><a xlink:href="pme-gpu-types_8h.xhtml" target="_top" xlink:title="Defines the GPU&#45;agnostic PME GPU data structures (the host&#45;side PME GPU data, and the GPU function pa...">
<polygon fill="white" stroke="black" points="2107.5,-246.5 2107.5,-276.5 2228.5,-276.5 2228.5,-246.5 2107.5,-246.5"/>
<text text-anchor="start" x="2115.5" y="-264.5" font-family="Helvetica,sans-Serif" font-size="10.00">src/gromacs/ewald/pme</text>
<text text-anchor="middle" x="2168" y="-253.5" font-family="Helvetica,sans-Serif" font-size="10.00">&#45;gpu&#45;types.h</text>
</a>
</g>
</g>
<!-- Node34&#45;&gt;Node35 -->
<g id="edge45" class="edge"><title>Node34&#45;&gt;Node35</title>
<path fill="none" stroke="midnightblue" d="M2062.72,-314.342C2084.94,-303.4 2116.5,-287.86 2139.26,-276.652"/>
<polygon fill="midnightblue" stroke="midnightblue" points="2060.95,-311.311 2053.53,-318.869 2064.05,-317.591 2060.95,-311.311"/>
</g>
<!-- Node36 -->
<g id="node36" class="node"><title>Node36</title>
<g id="a_node36"><a xlink:href="resourcedivision_8h.xhtml" target="_top" xlink:title="Declares utility functionality for dividing resources and checking for consistency and usefulness...">
<polygon fill="white" stroke="black" points="1946.5,-246.5 1946.5,-276.5 2089.5,-276.5 2089.5,-246.5 1946.5,-246.5"/>
<text text-anchor="start" x="1954.5" y="-264.5" font-family="Helvetica,sans-Serif" font-size="10.00">src/gromacs/taskassignment</text>
<text text-anchor="middle" x="2018" y="-253.5" font-family="Helvetica,sans-Serif" font-size="10.00">/resourcedivision.h</text>
</a>
</g>
</g>
<!-- Node34&#45;&gt;Node36 -->
<g id="edge46" class="edge"><title>Node34&#45;&gt;Node36</title>
<path fill="none" stroke="midnightblue" d="M2030.89,-309.065C2028.04,-298.753 2024.54,-286.101 2021.9,-276.589"/>
<polygon fill="midnightblue" stroke="midnightblue" points="2027.53,-310.031 2033.57,-318.734 2034.28,-308.162 2027.53,-310.031"/>
</g>
<!-- Node38&#45;&gt;Node7 -->
<g id="edge49" class="edge"><title>Node38&#45;&gt;Node7</title>
<path fill="none" stroke="midnightblue" d="M1074.37,-114.751C1068.83,-113.808 1063.32,-112.881 1058,-112 977.741,-98.7203 884.719,-84.3747 826.608,-75.538"/>
<polygon fill="midnightblue" stroke="midnightblue" points="1073.87,-118.217 1084.32,-116.458 1075.06,-111.318 1073.87,-118.217"/>
</g>
<!-- Node39&#45;&gt;Node40 -->
<g id="edge51" class="edge"><title>Node39&#45;&gt;Node40</title>
<path fill="none" stroke="midnightblue" d="M2350.52,-306.024C2341.28,-296.34 2330.63,-285.174 2322.43,-276.577"/>
<polygon fill="midnightblue" stroke="midnightblue" points="2348.11,-308.576 2357.55,-313.396 2353.18,-303.744 2348.11,-308.576"/>
</g>
<!-- Node41 -->
<g id="node41" class="node"><title>Node41</title>
<g id="a_node41"><a xlink:href="repeatingsection_8h.xhtml" target="_top" xlink:title="Declares gmx::RepeatingOptionSection and related classes. ">
<polygon fill="white" stroke="black" points="2389.5,-246.5 2389.5,-276.5 2494.5,-276.5 2494.5,-246.5 2389.5,-246.5"/>
<text text-anchor="start" x="2397.5" y="-264.5" font-family="Helvetica,sans-Serif" font-size="10.00">src/gromacs/options</text>
<text text-anchor="middle" x="2442" y="-253.5" font-family="Helvetica,sans-Serif" font-size="10.00">/repeatingsection.h</text>
</a>
</g>
</g>
<!-- Node39&#45;&gt;Node41 -->
<g id="edge52" class="edge"><title>Node39&#45;&gt;Node41</title>
<path fill="none" stroke="midnightblue" d="M2393.83,-306.598C2404.55,-296.783 2417.05,-285.344 2426.62,-276.577"/>
<polygon fill="midnightblue" stroke="midnightblue" points="2391.42,-304.062 2386.41,-313.396 2396.15,-309.225 2391.42,-304.062"/>
</g>
<!-- Node43&#45;&gt;Node29 -->
<g id="edge56" class="edge"><title>Node43&#45;&gt;Node29</title>
<path fill="none" stroke="midnightblue" d="M1729.13,-241.714C1748.84,-231.463 1772.84,-218.983 1790.93,-209.577"/>
<polygon fill="midnightblue" stroke="midnightblue" points="1727.38,-238.677 1720.12,-246.396 1730.61,-244.888 1727.38,-238.677"/>
</g>
<!-- Node43&#45;&gt;Node30 -->
<g id="edge57" class="edge"><title>Node43&#45;&gt;Node30</title>
<path fill="none" stroke="midnightblue" d="M1693,-236.108C1693,-227.154 1693,-217.323 1693,-209.577"/>
<polygon fill="midnightblue" stroke="midnightblue" points="1689.5,-236.396 1693,-246.396 1696.5,-236.396 1689.5,-236.396"/>
</g>
</g>
</svg>
