<?xml version="1.0" encoding="UTF-8" standalone="no"?>
<!DOCTYPE svg PUBLIC "-//W3C//DTD SVG 1.1//EN"
 "http://www.w3.org/Graphics/SVG/1.1/DTD/svg11.dtd">
<!-- Generated by graphviz version 2.38.0 (20140413.2041)
 -->
<!-- Title: gmx::GromacsException Pages: 1 -->
<svg width="471pt" height="325pt"
 viewBox="0.00 0.00 471.00 325.00" xmlns="http://www.w3.org/2000/svg" xmlns:xlink="http://www.w3.org/1999/xlink">
<g id="graph0" class="graph" transform="scale(1 1) rotate(0) translate(4 321)">
<title>gmx::GromacsException</title>
<polygon fill="white" stroke="none" points="-4,4 -4,-321 467,-321 467,4 -4,4"/>
<!-- Node1 -->
<g id="node1" class="node"><title>Node1</title>
<polygon fill="#bfbfbf" stroke="black" points="0,-161.5 0,-180.5 125,-180.5 125,-161.5 0,-161.5"/>
<text text-anchor="middle" x="62.5" y="-168.5" font-family="Helvetica,sans-Serif" font-size="10.00">gmx::GromacsException</text>
</g>
<!-- Node2 -->
<g id="node2" class="node"><title>Node2</title>
<g id="a_node2"><a xlink:href="classgmx_1_1APIError.xhtml" target="_top" xlink:title="Exception class for incorrect use of an API. ">
<polygon fill="white" stroke="black" points="186,-297.5 186,-316.5 265,-316.5 265,-297.5 186,-297.5"/>
<text text-anchor="middle" x="225.5" y="-304.5" font-family="Helvetica,sans-Serif" font-size="10.00">gmx::APIError</text>
</a>
</g>
</g>
<!-- Node1&#45;&gt;Node2 -->
<g id="edge1" class="edge"><title>Node1&#45;&gt;Node2</title>
<path fill="none" stroke="midnightblue" d="M74.1377,-189.645C89.844,-215.516 121.669,-262.04 161,-288 168.491,-292.944 177.312,-296.64 185.958,-299.388"/>
<polygon fill="midnightblue" stroke="midnightblue" points="77.0269,-187.654 68.9253,-180.827 71.0009,-191.216 77.0269,-187.654"/>
</g>
<!-- Node4 -->
<g id="node4" class="node"><title>Node4</title>
<g id="a_node4"><a xlink:href="classgmx_1_1FileIOError.xhtml" target="_top" xlink:title="Exception class for file I/O errors. ">
<polygon fill="white" stroke="black" points="181,-259.5 181,-278.5 270,-278.5 270,-259.5 181,-259.5"/>
<text text-anchor="middle" x="225.5" y="-266.5" font-family="Helvetica,sans-Serif" font-size="10.00">gmx::FileIOError</text>
</a>
</g>
</g>
<!-- Node1&#45;&gt;Node4 -->
<g id="edge3" class="edge"><title>Node1&#45;&gt;Node4</title>
<path fill="none" stroke="midnightblue" d="M80.31,-188.127C98.6451,-205.914 129.592,-233.414 161,-250 168.123,-253.761 176.098,-256.886 183.927,-259.442"/>
<polygon fill="midnightblue" stroke="midnightblue" points="82.3869,-185.258 72.8169,-180.712 77.4633,-190.234 82.3869,-185.258"/>
</g>
<!-- Node5 -->
<g id="node5" class="node"><title>Node5</title>
<g id="a_node5"><a xlink:href="classgmx_1_1InternalError.xhtml" target="_top" xlink:title="Exception class for internal errors. ">
<polygon fill="white" stroke="black" points="178,-221.5 178,-240.5 273,-240.5 273,-221.5 178,-221.5"/>
<text text-anchor="middle" x="225.5" y="-228.5" font-family="Helvetica,sans-Serif" font-size="10.00">gmx::InternalError</text>
</a>
</g>
</g>
<!-- Node1&#45;&gt;Node5 -->
<g id="edge4" class="edge"><title>Node1&#45;&gt;Node5</title>
<path fill="none" stroke="midnightblue" d="M93.9101,-184.781C112.978,-193.173 138.186,-203.817 161,-212 170.315,-215.341 180.538,-218.582 190.007,-221.412"/>
<polygon fill="midnightblue" stroke="midnightblue" points="95.1035,-181.481 84.5435,-180.622 92.2632,-187.879 95.1035,-181.481"/>
</g>
<!-- Node6 -->
<g id="node6" class="node"><title>Node6</title>
<g id="a_node6"><a xlink:href="classgmx_1_1RangeError.xhtml" target="_top" xlink:title="Exception class for out&#45;of&#45;range values or indices. ">
<polygon fill="white" stroke="black" points="180,-183.5 180,-202.5 271,-202.5 271,-183.5 180,-183.5"/>
<text text-anchor="middle" x="225.5" y="-190.5" font-family="Helvetica,sans-Serif" font-size="10.00">gmx::RangeError</text>
</a>
</g>
</g>
<!-- Node1&#45;&gt;Node6 -->
<g id="edge5" class="edge"><title>Node1&#45;&gt;Node6</title>
<path fill="none" stroke="midnightblue" d="M135.577,-180.849C150.569,-182.898 165.956,-185 179.626,-186.868"/>
<polygon fill="midnightblue" stroke="midnightblue" points="135.668,-177.329 125.286,-179.443 134.72,-184.265 135.668,-177.329"/>
</g>
<!-- Node7 -->
<g id="node7" class="node"><title>Node7</title>
<g id="a_node7"><a xlink:href="classgmx_1_1SimulationInstabilityError.xhtml" target="_top" xlink:title="Exception class for simulation instabilities. ">
<polygon fill="white" stroke="black" points="161,-134 161,-164 290,-164 290,-134 161,-134"/>
<text text-anchor="start" x="169" y="-152" font-family="Helvetica,sans-Serif" font-size="10.00">gmx::SimulationInstability</text>
<text text-anchor="middle" x="225.5" y="-141" font-family="Helvetica,sans-Serif" font-size="10.00">Error</text>
</a>
</g>
</g>
<!-- Node1&#45;&gt;Node7 -->
<g id="edge6" class="edge"><title>Node1&#45;&gt;Node7</title>
<path fill="none" stroke="midnightblue" d="M135.195,-161.203C143.708,-160.04 152.354,-158.858 160.746,-157.712"/>
<polygon fill="midnightblue" stroke="midnightblue" points="134.72,-157.735 125.286,-162.557 135.668,-164.671 134.72,-157.735"/>
</g>
<!-- Node8 -->
<g id="node8" class="node"><title>Node8</title>
<g id="a_node8"><a xlink:href="classgmx_1_1test_1_1TestException.xhtml" target="_top" xlink:title="Exception class for reporting errors in tests. ">
<polygon fill="white" stroke="black" points="162,-95.5 162,-114.5 289,-114.5 289,-95.5 162,-95.5"/>
<text text-anchor="middle" x="225.5" y="-102.5" font-family="Helvetica,sans-Serif" font-size="10.00">gmx::test::TestException</text>
</a>
</g>
</g>
<!-- Node1&#45;&gt;Node8 -->
<g id="edge7" class="edge"><title>Node1&#45;&gt;Node8</title>
<path fill="none" stroke="midnightblue" d="M90.9725,-156.811C110.269,-147.151 136.845,-134.452 161,-125 170.687,-121.209 181.411,-117.612 191.246,-114.541"/>
<polygon fill="midnightblue" stroke="midnightblue" points="89.2072,-153.782 81.8621,-161.417 92.3656,-160.029 89.2072,-153.782"/>
</g>
<!-- Node9 -->
<g id="node9" class="node"><title>Node9</title>
<g id="a_node9"><a xlink:href="classgmx_1_1ToleranceError.xhtml" target="_top" xlink:title="Exception class when a specified tolerance cannot be achieved. ">
<polygon fill="white" stroke="black" points="173,-57.5 173,-76.5 278,-76.5 278,-57.5 173,-57.5"/>
<text text-anchor="middle" x="225.5" y="-64.5" font-family="Helvetica,sans-Serif" font-size="10.00">gmx::ToleranceError</text>
</a>
</g>
</g>
<!-- Node1&#45;&gt;Node9 -->
<g id="edge8" class="edge"><title>Node1&#45;&gt;Node9</title>
<path fill="none" stroke="midnightblue" d="M78.7108,-153.931C96.6264,-134.808 128.134,-104.12 161,-86 167.852,-82.222 175.545,-79.1104 183.148,-76.5779"/>
<polygon fill="midnightblue" stroke="midnightblue" points="76.0856,-151.615 71.9005,-161.349 81.2419,-156.35 76.0856,-151.615"/>
</g>
<!-- Node10 -->
<g id="node10" class="node"><title>Node10</title>
<g id="a_node10"><a xlink:href="classgmx_1_1UserInputError.xhtml" target="_top" xlink:title="Exception class for user input errors. ">
<polygon fill="white" stroke="black" points="173,-19.5 173,-38.5 278,-38.5 278,-19.5 173,-19.5"/>
<text text-anchor="middle" x="225.5" y="-26.5" font-family="Helvetica,sans-Serif" font-size="10.00">gmx::UserInputError</text>
</a>
</g>
</g>
<!-- Node1&#45;&gt;Node10 -->
<g id="edge9" class="edge"><title>Node1&#45;&gt;Node10</title>
<path fill="none" stroke="midnightblue" d="M73.2403,-152.549C88.4093,-125.588 120.218,-75.6398 161,-48 166.715,-44.1264 173.24,-41.0249 179.88,-38.5463"/>
<polygon fill="midnightblue" stroke="midnightblue" points="70.1499,-150.905 68.4187,-161.357 76.2903,-154.266 70.1499,-150.905"/>
</g>
<!-- Node3 -->
<g id="node3" class="node"><title>Node3</title>
<g id="a_node3"><a xlink:href="classgmx_1_1NotImplementedError.xhtml" target="_top" xlink:title="Exception class for use of an unimplemented feature. ">
<polygon fill="white" stroke="black" points="327.5,-297.5 327.5,-316.5 461.5,-316.5 461.5,-297.5 327.5,-297.5"/>
<text text-anchor="middle" x="394.5" y="-304.5" font-family="Helvetica,sans-Serif" font-size="10.00">gmx::NotImplementedError</text>
</a>
</g>
</g>
<!-- Node2&#45;&gt;Node3 -->
<g id="edge2" class="edge"><title>Node2&#45;&gt;Node3</title>
<path fill="none" stroke="midnightblue" d="M275.576,-307C291.827,-307 310.187,-307 327.497,-307"/>
<polygon fill="midnightblue" stroke="midnightblue" points="275.233,-303.5 265.233,-307 275.233,-310.5 275.233,-303.5"/>
</g>
<!-- Node11 -->
<g id="node11" class="node"><title>Node11</title>
<g id="a_node11"><a xlink:href="classgmx_1_1InconsistentInputError.xhtml" target="_top" xlink:title="Exception class for situations where user input is inconsistent. ">
<polygon fill="white" stroke="black" points="326,-38.5 326,-57.5 463,-57.5 463,-38.5 326,-38.5"/>
<text text-anchor="middle" x="394.5" y="-45.5" font-family="Helvetica,sans-Serif" font-size="10.00">gmx::InconsistentInputError</text>
</a>
</g>
</g>
<!-- Node10&#45;&gt;Node11 -->
<g id="edge10" class="edge"><title>Node10&#45;&gt;Node11</title>
<path fill="none" stroke="midnightblue" d="M288.494,-36.0532C300.696,-37.4415 313.556,-38.9045 325.93,-40.3124"/>
<polygon fill="midnightblue" stroke="midnightblue" points="288.756,-32.5605 278.424,-34.9076 287.965,-39.5157 288.756,-32.5605"/>
</g>
<!-- Node12 -->
<g id="node12" class="node"><title>Node12</title>
<g id="a_node12"><a xlink:href="classgmx_1_1InvalidInputError.xhtml" target="_top" xlink:title="Exception class for situations where user input cannot be parsed/understood. ">
<polygon fill="white" stroke="black" points="338,-0.5 338,-19.5 451,-19.5 451,-0.5 338,-0.5"/>
<text text-anchor="middle" x="394.5" y="-7.5" font-family="Helvetica,sans-Serif" font-size="10.00">gmx::InvalidInputError</text>
</a>
</g>
</g>
<!-- Node10&#45;&gt;Node12 -->
<g id="edge11" class="edge"><title>Node10&#45;&gt;Node12</title>
<path fill="none" stroke="midnightblue" d="M288.809,-21.9109C304.9,-20.0802 322.115,-18.1216 337.842,-16.3323"/>
<polygon fill="midnightblue" stroke="midnightblue" points="287.965,-18.4843 278.424,-23.0924 288.756,-25.4395 287.965,-18.4843"/>
</g>
</g>
</svg>
