<?xml version="1.0" encoding="UTF-8" standalone="no"?>
<!DOCTYPE svg PUBLIC "-//W3C//DTD SVG 1.1//EN"
 "http://www.w3.org/Graphics/SVG/1.1/DTD/svg11.dtd">
<!-- Generated by graphviz version 2.38.0 (20140413.2041)
 -->
<!-- Title: src/gromacs/commandline/cmdlinehelpcontext.h Pages: 1 -->
<svg width="276pt" height="218pt"
 viewBox="0.00 0.00 275.50 218.00" xmlns="http://www.w3.org/2000/svg" xmlns:xlink="http://www.w3.org/1999/xlink">
<g id="graph0" class="graph" transform="scale(1 1) rotate(0) translate(4 214)">
<title>src/gromacs/commandline/cmdlinehelpcontext.h</title>
<polygon fill="white" stroke="none" points="-4,4 -4,-214 271.5,-214 271.5,4 -4,4"/>
<!-- Node1 -->
<g id="node1" class="node"><title>Node1</title>
<polygon fill="#bfbfbf" stroke="black" points="34,-179.5 34,-209.5 165,-209.5 165,-179.5 34,-179.5"/>
<text text-anchor="start" x="42" y="-197.5" font-family="Helvetica,sans-Serif" font-size="10.00">src/gromacs/commandline</text>
<text text-anchor="middle" x="99.5" y="-186.5" font-family="Helvetica,sans-Serif" font-size="10.00">/cmdlinehelpcontext.h</text>
</g>
<!-- Node2 -->
<g id="node2" class="node"><title>Node2</title>
<polygon fill="white" stroke="#bfbfbf" points="0,-56.5 0,-75.5 41,-75.5 41,-56.5 0,-56.5"/>
<text text-anchor="middle" x="20.5" y="-63.5" font-family="Helvetica,sans-Serif" font-size="10.00">string</text>
</g>
<!-- Node1&#45;&gt;Node2 -->
<g id="edge1" class="edge"><title>Node1&#45;&gt;Node2</title>
<path fill="none" stroke="midnightblue" d="M76.4215,-179.338C63.7287,-170.408 48.7287,-157.783 39.5,-143 28.6045,-125.547 23.9512,-102.181 21.9674,-85.9856"/>
<polygon fill="midnightblue" stroke="midnightblue" points="25.4121,-85.2535 20.9435,-75.6471 18.4461,-85.9434 25.4121,-85.2535"/>
</g>
<!-- Node3 -->
<g id="node3" class="node"><title>Node3</title>
<g id="a_node3"><a xlink:href="helpwritercontext_8h.xhtml" target="_top" xlink:title="Declares gmx::HelpWriterContext. ">
<polygon fill="white" stroke="black" points="48.5,-112.5 48.5,-142.5 150.5,-142.5 150.5,-112.5 48.5,-112.5"/>
<text text-anchor="start" x="56.5" y="-130.5" font-family="Helvetica,sans-Serif" font-size="10.00">gromacs/onlinehelp</text>
<text text-anchor="middle" x="99.5" y="-119.5" font-family="Helvetica,sans-Serif" font-size="10.00">/helpwritercontext.h</text>
</a>
</g>
</g>
<!-- Node1&#45;&gt;Node3 -->
<g id="edge2" class="edge"><title>Node1&#45;&gt;Node3</title>
<path fill="none" stroke="midnightblue" d="M99.5,-179.396C99.5,-171.645 99.5,-161.812 99.5,-152.86"/>
<polygon fill="midnightblue" stroke="midnightblue" points="103,-152.576 99.5,-142.577 96.0001,-152.577 103,-152.576"/>
</g>
<!-- Node5 -->
<g id="node5" class="node"><title>Node5</title>
<g id="a_node5"><a xlink:href="classhelpers_8h.xhtml" target="_top" xlink:title="Declares common utility classes and macros. ">
<polygon fill="white" stroke="black" points="121.5,-56.5 121.5,-75.5 267.5,-75.5 267.5,-56.5 121.5,-56.5"/>
<text text-anchor="middle" x="194.5" y="-63.5" font-family="Helvetica,sans-Serif" font-size="10.00">gromacs/utility/classhelpers.h</text>
</a>
</g>
</g>
<!-- Node1&#45;&gt;Node5 -->
<g id="edge7" class="edge"><title>Node1&#45;&gt;Node5</title>
<path fill="none" stroke="midnightblue" d="M120.425,-179.493C132.992,-170.272 148.604,-157.292 159.5,-143 172.953,-125.354 182.812,-101.708 188.577,-85.5046"/>
<polygon fill="midnightblue" stroke="midnightblue" points="192.025,-86.2353 191.908,-75.6411 185.393,-83.9957 192.025,-86.2353"/>
</g>
<!-- Node3&#45;&gt;Node2 -->
<g id="edge3" class="edge"><title>Node3&#45;&gt;Node2</title>
<path fill="none" stroke="midnightblue" d="M80.7781,-112.399C68.5884,-103.218 52.708,-91.2579 40.3073,-81.9182"/>
<polygon fill="midnightblue" stroke="midnightblue" points="42.0887,-78.8782 31.9952,-75.6578 37.8774,-84.4697 42.0887,-78.8782"/>
</g>
<!-- Node4 -->
<g id="node4" class="node"><title>Node4</title>
<polygon fill="white" stroke="#bfbfbf" points="59.5,-56.5 59.5,-75.5 103.5,-75.5 103.5,-56.5 59.5,-56.5"/>
<text text-anchor="middle" x="81.5" y="-63.5" font-family="Helvetica,sans-Serif" font-size="10.00">vector</text>
</g>
<!-- Node3&#45;&gt;Node4 -->
<g id="edge4" class="edge"><title>Node3&#45;&gt;Node4</title>
<path fill="none" stroke="midnightblue" d="M95.2343,-112.399C92.7804,-104.288 89.6702,-94.0071 87.0303,-85.2807"/>
<polygon fill="midnightblue" stroke="midnightblue" points="90.3649,-84.2159 84.1192,-75.6578 83.6648,-86.2429 90.3649,-84.2159"/>
</g>
<!-- Node3&#45;&gt;Node5 -->
<g id="edge5" class="edge"><title>Node3&#45;&gt;Node5</title>
<path fill="none" stroke="midnightblue" d="M122.014,-112.399C137.099,-102.951 156.885,-90.5589 171.973,-81.1089"/>
<polygon fill="midnightblue" stroke="midnightblue" points="174.059,-83.9321 180.677,-75.6578 170.344,-77.9996 174.059,-83.9321"/>
</g>
<!-- Node6 -->
<g id="node6" class="node"><title>Node6</title>
<polygon fill="white" stroke="#bfbfbf" points="168.5,-0.5 168.5,-19.5 220.5,-19.5 220.5,-0.5 168.5,-0.5"/>
<text text-anchor="middle" x="194.5" y="-7.5" font-family="Helvetica,sans-Serif" font-size="10.00">memory</text>
</g>
<!-- Node5&#45;&gt;Node6 -->
<g id="edge6" class="edge"><title>Node5&#45;&gt;Node6</title>
<path fill="none" stroke="midnightblue" d="M194.5,-56.083C194.5,-49.0059 194.5,-38.8611 194.5,-29.9865"/>
<polygon fill="midnightblue" stroke="midnightblue" points="198,-29.751 194.5,-19.7511 191,-29.7511 198,-29.751"/>
</g>
</g>
</svg>
