<?xml version="1.0" encoding="UTF-8" standalone="no"?>
<!DOCTYPE svg PUBLIC "-//W3C//DTD SVG 1.1//EN"
 "http://www.w3.org/Graphics/SVG/1.1/DTD/svg11.dtd">
<!-- Generated by graphviz version 2.38.0 (20140413.2041)
 -->
<!-- Title: src/gromacs/analysisdata/tests/datatest.h Pages: 1 -->
<svg width="808pt" height="341pt"
 viewBox="0.00 0.00 808.20 341.00" xmlns="http://www.w3.org/2000/svg" xmlns:xlink="http://www.w3.org/1999/xlink">
<g id="graph0" class="graph" transform="scale(1 1) rotate(0) translate(4 337)">
<title>src/gromacs/analysisdata/tests/datatest.h</title>
<polygon fill="white" stroke="none" points="-4,4 -4,-337 804.202,-337 804.202,4 -4,4"/>
<!-- Node1 -->
<g id="node1" class="node"><title>Node1</title>
<polygon fill="#bfbfbf" stroke="black" points="315,-302.5 315,-332.5 443,-332.5 443,-302.5 315,-302.5"/>
<text text-anchor="start" x="323" y="-320.5" font-family="Helvetica,sans-Serif" font-size="10.00">src/gromacs/analysisdata</text>
<text text-anchor="middle" x="379" y="-309.5" font-family="Helvetica,sans-Serif" font-size="10.00">/tests/datatest.h</text>
</g>
<!-- Node2 -->
<g id="node2" class="node"><title>Node2</title>
<polygon fill="white" stroke="#bfbfbf" points="0,-123.5 0,-142.5 44,-142.5 44,-123.5 0,-123.5"/>
<text text-anchor="middle" x="22" y="-130.5" font-family="Helvetica,sans-Serif" font-size="10.00">vector</text>
</g>
<!-- Node1&#45;&gt;Node2 -->
<g id="edge1" class="edge"><title>Node1&#45;&gt;Node2</title>
<path fill="none" stroke="midnightblue" d="M314.671,-311.11C240.469,-301.408 119.873,-274.336 51,-199 38.8947,-185.759 31.1924,-166.63 26.7925,-152.55"/>
<polygon fill="midnightblue" stroke="midnightblue" points="30.0511,-151.213 23.9509,-142.55 23.3177,-153.126 30.0511,-151.213"/>
</g>
<!-- Node3 -->
<g id="node3" class="node"><title>Node3</title>
<polygon fill="white" stroke="#bfbfbf" points="180.5,-241 180.5,-260 251.5,-260 251.5,-241 180.5,-241"/>
<text text-anchor="middle" x="216" y="-248" font-family="Helvetica,sans-Serif" font-size="10.00">gtest/gtest.h</text>
</g>
<!-- Node1&#45;&gt;Node3 -->
<g id="edge2" class="edge"><title>Node1&#45;&gt;Node3</title>
<path fill="none" stroke="midnightblue" d="M343.631,-302.396C314.778,-290.89 274.423,-274.797 246.863,-263.807"/>
<polygon fill="midnightblue" stroke="midnightblue" points="247.918,-260.46 237.333,-260.007 245.325,-266.962 247.918,-260.46"/>
</g>
<!-- Node4 -->
<g id="node4" class="node"><title>Node4</title>
<g id="a_node4"><a xlink:href="dataframe_8h.xhtml" target="_top" xlink:title="Declares classes for accessing data frame information. ">
<polygon fill="white" stroke="black" points="270,-235.5 270,-265.5 382,-265.5 382,-235.5 270,-235.5"/>
<text text-anchor="start" x="278" y="-253.5" font-family="Helvetica,sans-Serif" font-size="10.00">gromacs/analysisdata</text>
<text text-anchor="middle" x="326" y="-242.5" font-family="Helvetica,sans-Serif" font-size="10.00">/dataframe.h</text>
</a>
</g>
</g>
<!-- Node1&#45;&gt;Node4 -->
<g id="edge3" class="edge"><title>Node1&#45;&gt;Node4</title>
<path fill="none" stroke="midnightblue" d="M367.5,-302.396C360.624,-293.963 351.739,-283.067 343.956,-273.522"/>
<polygon fill="midnightblue" stroke="midnightblue" points="346.51,-271.115 337.478,-265.577 341.085,-275.539 346.51,-271.115"/>
</g>
<!-- Node11 -->
<g id="node11" class="node"><title>Node11</title>
<g id="a_node11"><a xlink:href="gmxassert_8h.xhtml" target="_top" xlink:title="Defines assert macros customized for Gromacs. ">
<polygon fill="white" stroke="black" points="321.5,-123.5 321.5,-142.5 458.5,-142.5 458.5,-123.5 321.5,-123.5"/>
<text text-anchor="middle" x="390" y="-130.5" font-family="Helvetica,sans-Serif" font-size="10.00">gromacs/utility/gmxassert.h</text>
</a>
</g>
</g>
<!-- Node1&#45;&gt;Node11 -->
<g id="edge20" class="edge"><title>Node1&#45;&gt;Node11</title>
<path fill="none" stroke="midnightblue" d="M406.878,-302.342C440.01,-283.755 493.618,-247.683 516,-199 529.205,-170.279 497.451,-154.016 462.523,-144.94"/>
<polygon fill="midnightblue" stroke="midnightblue" points="463.163,-141.494 452.623,-142.566 461.531,-148.301 463.163,-141.494"/>
</g>
<!-- Node17 -->
<g id="node17" class="node"><title>Node17</title>
<g id="a_node17"><a xlink:href="real_8h.xhtml" target="_top" xlink:title="Declares real and related constants. ">
<polygon fill="white" stroke="black" points="400.5,-179.5 400.5,-198.5 507.5,-198.5 507.5,-179.5 400.5,-179.5"/>
<text text-anchor="middle" x="454" y="-186.5" font-family="Helvetica,sans-Serif" font-size="10.00">gromacs/utility/real.h</text>
</a>
</g>
</g>
<!-- Node1&#45;&gt;Node17 -->
<g id="edge21" class="edge"><title>Node1&#45;&gt;Node17</title>
<path fill="none" stroke="midnightblue" d="M387.313,-302.479C401.05,-279.309 428.463,-233.073 443.511,-207.691"/>
<polygon fill="midnightblue" stroke="midnightblue" points="446.7,-209.175 448.789,-198.789 440.679,-205.605 446.7,-209.175"/>
</g>
<!-- Node18 -->
<g id="node18" class="node"><title>Node18</title>
<g id="a_node18"><a xlink:href="refdata_8h.xhtml" target="_top" xlink:title="Functionality for writing tests that can produce their own reference data. ">
<polygon fill="white" stroke="black" points="564,-179.5 564,-198.5 656,-198.5 656,-179.5 564,-179.5"/>
<text text-anchor="middle" x="610" y="-186.5" font-family="Helvetica,sans-Serif" font-size="10.00">testutils/refdata.h</text>
</a>
</g>
</g>
<!-- Node1&#45;&gt;Node18 -->
<g id="edge22" class="edge"><title>Node1&#45;&gt;Node18</title>
<path fill="none" stroke="midnightblue" d="M443.149,-307.223C477.095,-300.03 518.209,-287.509 550,-266 572.231,-250.959 590.07,-225.117 600.349,-207.797"/>
<polygon fill="midnightblue" stroke="midnightblue" points="603.604,-209.154 605.503,-198.731 597.518,-205.695 603.604,-209.154"/>
</g>
<!-- Node4&#45;&gt;Node2 -->
<g id="edge4" class="edge"><title>Node4&#45;&gt;Node2</title>
<path fill="none" stroke="midnightblue" d="M269.848,-237.08C266.517,-236.369 263.216,-235.671 260,-235 179.283,-218.152 149.249,-240.504 78,-199 58.3621,-187.561 42.2402,-166.668 32.4191,-151.653"/>
<polygon fill="midnightblue" stroke="midnightblue" points="35.1591,-149.432 26.9015,-142.794 29.2173,-153.133 35.1591,-149.432"/>
</g>
<!-- Node5 -->
<g id="node5" class="node"><title>Node5</title>
<g id="a_node5"><a xlink:href="arrayref_8h.xhtml" target="_top" xlink:title="Declares gmx::ArrayRef. ">
<polygon fill="white" stroke="black" points="87.5,-179.5 87.5,-198.5 212.5,-198.5 212.5,-179.5 87.5,-179.5"/>
<text text-anchor="middle" x="150" y="-186.5" font-family="Helvetica,sans-Serif" font-size="10.00">gromacs/utility/arrayref.h</text>
</a>
</g>
</g>
<!-- Node4&#45;&gt;Node5 -->
<g id="edge5" class="edge"><title>Node4&#45;&gt;Node5</title>
<path fill="none" stroke="midnightblue" d="M284.29,-235.399C254.011,-225.163 213.509,-211.47 184.928,-201.808"/>
<polygon fill="midnightblue" stroke="midnightblue" points="185.947,-198.458 175.353,-198.571 183.705,-205.089 185.947,-198.458"/>
</g>
<!-- Node4&#45;&gt;Node11 -->
<g id="edge18" class="edge"><title>Node4&#45;&gt;Node11</title>
<path fill="none" stroke="midnightblue" d="M296.711,-235.385C272.656,-221.824 244.829,-200.306 260,-179 272.318,-161.701 291.763,-150.99 311.897,-144.378"/>
<polygon fill="midnightblue" stroke="midnightblue" points="312.896,-147.732 321.489,-141.535 310.907,-141.021 312.896,-147.732"/>
</g>
<!-- Node16 -->
<g id="node16" class="node"><title>Node16</title>
<g id="a_node16"><a xlink:href="flags_8h.xhtml" target="_top" xlink:title="Declares gmx::FlagsTemplate. ">
<polygon fill="white" stroke="black" points="269.5,-179.5 269.5,-198.5 382.5,-198.5 382.5,-179.5 269.5,-179.5"/>
<text text-anchor="middle" x="326" y="-186.5" font-family="Helvetica,sans-Serif" font-size="10.00">gromacs/utility/flags.h</text>
</a>
</g>
</g>
<!-- Node4&#45;&gt;Node16 -->
<g id="edge17" class="edge"><title>Node4&#45;&gt;Node16</title>
<path fill="none" stroke="midnightblue" d="M326,-235.399C326,-227.466 326,-217.458 326,-208.858"/>
<polygon fill="midnightblue" stroke="midnightblue" points="329.5,-208.658 326,-198.658 322.5,-208.658 329.5,-208.658"/>
</g>
<!-- Node4&#45;&gt;Node17 -->
<g id="edge19" class="edge"><title>Node4&#45;&gt;Node17</title>
<path fill="none" stroke="midnightblue" d="M356.334,-235.399C377.523,-225.55 405.594,-212.501 426.202,-202.922"/>
<polygon fill="midnightblue" stroke="midnightblue" points="427.782,-206.047 435.375,-198.658 424.831,-199.699 427.782,-206.047"/>
</g>
<!-- Node5&#45;&gt;Node2 -->
<g id="edge11" class="edge"><title>Node5&#45;&gt;Node2</title>
<path fill="none" stroke="midnightblue" d="M129.718,-179.444C108.653,-170.557 75.4832,-156.563 51.5145,-146.451"/>
<polygon fill="midnightblue" stroke="midnightblue" points="52.7612,-143.179 42.1871,-142.516 50.0403,-149.628 52.7612,-143.179"/>
</g>
<!-- Node6 -->
<g id="node6" class="node"><title>Node6</title>
<polygon fill="white" stroke="#bfbfbf" points="254.5,-123.5 254.5,-142.5 303.5,-142.5 303.5,-123.5 254.5,-123.5"/>
<text text-anchor="middle" x="279" y="-130.5" font-family="Helvetica,sans-Serif" font-size="10.00">cstddef</text>
</g>
<!-- Node5&#45;&gt;Node6 -->
<g id="edge6" class="edge"><title>Node5&#45;&gt;Node6</title>
<path fill="none" stroke="midnightblue" d="M170.44,-179.444C191.67,-170.557 225.099,-156.563 249.255,-146.451"/>
<polygon fill="midnightblue" stroke="midnightblue" points="250.782,-149.606 258.655,-142.516 248.079,-143.149 250.782,-149.606"/>
</g>
<!-- Node7 -->
<g id="node7" class="node"><title>Node7</title>
<polygon fill="white" stroke="#bfbfbf" points="62,-123.5 62,-142.5 100,-142.5 100,-123.5 62,-123.5"/>
<text text-anchor="middle" x="81" y="-130.5" font-family="Helvetica,sans-Serif" font-size="10.00">array</text>
</g>
<!-- Node5&#45;&gt;Node7 -->
<g id="edge7" class="edge"><title>Node5&#45;&gt;Node7</title>
<path fill="none" stroke="midnightblue" d="M138.914,-179.324C128.514,-171.185 112.739,-158.839 100.278,-149.087"/>
<polygon fill="midnightblue" stroke="midnightblue" points="102.32,-146.241 92.2878,-142.834 98.0057,-151.753 102.32,-146.241"/>
</g>
<!-- Node8 -->
<g id="node8" class="node"><title>Node8</title>
<polygon fill="white" stroke="#bfbfbf" points="476.5,-123.5 476.5,-142.5 523.5,-142.5 523.5,-123.5 476.5,-123.5"/>
<text text-anchor="middle" x="500" y="-130.5" font-family="Helvetica,sans-Serif" font-size="10.00">iterator</text>
</g>
<!-- Node5&#45;&gt;Node8 -->
<g id="edge8" class="edge"><title>Node5&#45;&gt;Node8</title>
<path fill="none" stroke="midnightblue" d="M212.654,-181.452C274.694,-174.438 372.522,-161.96 466.348,-142.896"/>
<polygon fill="midnightblue" stroke="midnightblue" points="467.205,-146.293 476.293,-140.847 465.792,-139.437 467.205,-146.293"/>
</g>
<!-- Node9 -->
<g id="node9" class="node"><title>Node9</title>
<polygon fill="white" stroke="#bfbfbf" points="118.5,-123.5 118.5,-142.5 177.5,-142.5 177.5,-123.5 118.5,-123.5"/>
<text text-anchor="middle" x="148" y="-130.5" font-family="Helvetica,sans-Serif" font-size="10.00">stdexcept</text>
</g>
<!-- Node5&#45;&gt;Node9 -->
<g id="edge9" class="edge"><title>Node5&#45;&gt;Node9</title>
<path fill="none" stroke="midnightblue" d="M149.67,-179.083C149.408,-172.006 149.032,-161.861 148.703,-152.986"/>
<polygon fill="midnightblue" stroke="midnightblue" points="152.192,-152.615 148.324,-142.751 145.197,-152.874 152.192,-152.615"/>
</g>
<!-- Node10 -->
<g id="node10" class="node"><title>Node10</title>
<polygon fill="white" stroke="#bfbfbf" points="196,-123.5 196,-142.5 236,-142.5 236,-123.5 196,-123.5"/>
<text text-anchor="middle" x="216" y="-130.5" font-family="Helvetica,sans-Serif" font-size="10.00">utility</text>
</g>
<!-- Node5&#45;&gt;Node10 -->
<g id="edge10" class="edge"><title>Node5&#45;&gt;Node10</title>
<path fill="none" stroke="midnightblue" d="M160.604,-179.324C170.456,-171.263 185.351,-159.077 197.215,-149.369"/>
<polygon fill="midnightblue" stroke="midnightblue" points="199.68,-151.875 205.203,-142.834 195.247,-146.457 199.68,-151.875"/>
</g>
<!-- Node5&#45;&gt;Node11 -->
<g id="edge12" class="edge"><title>Node5&#45;&gt;Node11</title>
<path fill="none" stroke="midnightblue" d="M188.029,-179.444C229.808,-170.043 296.982,-154.929 342.27,-144.739"/>
<polygon fill="midnightblue" stroke="midnightblue" points="343.161,-148.126 352.149,-142.516 341.625,-141.297 343.161,-148.126"/>
</g>
<!-- Node12 -->
<g id="node12" class="node"><title>Node12</title>
<g id="a_node12"><a xlink:href="basedefinitions_8h.xhtml" target="_top" xlink:title="Basic types and macros used throughout GROMACS. ">
<polygon fill="white" stroke="black" points="468.5,-62 468.5,-81 625.5,-81 625.5,-62 468.5,-62"/>
<text text-anchor="middle" x="547" y="-69" font-family="Helvetica,sans-Serif" font-size="10.00">gromacs/utility/basedefinitions.h</text>
</a>
</g>
</g>
<!-- Node11&#45;&gt;Node12 -->
<g id="edge13" class="edge"><title>Node11&#45;&gt;Node12</title>
<path fill="none" stroke="midnightblue" d="M412.494,-123.475C439.309,-113.313 484.315,-96.2564 514.809,-84.6996"/>
<polygon fill="midnightblue" stroke="midnightblue" points="516.437,-87.8258 524.547,-81.0091 513.956,-81.2801 516.437,-87.8258"/>
</g>
<!-- Node15 -->
<g id="node15" class="node"><title>Node15</title>
<g id="a_node15"><a xlink:href="current__function_8h.xhtml" target="_top" xlink:title="Declares GMX_CURRENT_FUNCTION for getting the current function name. ">
<polygon fill="white" stroke="black" points="333.5,-56.5 333.5,-86.5 446.5,-86.5 446.5,-56.5 333.5,-56.5"/>
<text text-anchor="start" x="341.5" y="-74.5" font-family="Helvetica,sans-Serif" font-size="10.00">gromacs/utility/current</text>
<text text-anchor="middle" x="390" y="-63.5" font-family="Helvetica,sans-Serif" font-size="10.00">_function.h</text>
</a>
</g>
</g>
<!-- Node11&#45;&gt;Node15 -->
<g id="edge16" class="edge"><title>Node11&#45;&gt;Node15</title>
<path fill="none" stroke="midnightblue" d="M390,-123.475C390,-116.471 390,-106.192 390,-96.6956"/>
<polygon fill="midnightblue" stroke="midnightblue" points="393.5,-96.5229 390,-86.523 386.5,-96.523 393.5,-96.5229"/>
</g>
<!-- Node13 -->
<g id="node13" class="node"><title>Node13</title>
<polygon fill="white" stroke="#bfbfbf" points="486.5,-0.5 486.5,-19.5 535.5,-19.5 535.5,-0.5 486.5,-0.5"/>
<text text-anchor="middle" x="511" y="-7.5" font-family="Helvetica,sans-Serif" font-size="10.00">stdint.h</text>
</g>
<!-- Node12&#45;&gt;Node13 -->
<g id="edge14" class="edge"><title>Node12&#45;&gt;Node13</title>
<path fill="none" stroke="midnightblue" d="M541.842,-61.9751C536.549,-53.2268 528.165,-39.3691 521.473,-28.3093"/>
<polygon fill="midnightblue" stroke="midnightblue" points="524.32,-26.2531 516.148,-19.5091 518.33,-29.8768 524.32,-26.2531"/>
</g>
<!-- Node14 -->
<g id="node14" class="node"><title>Node14</title>
<polygon fill="white" stroke="#bfbfbf" points="553.5,-0.5 553.5,-19.5 612.5,-19.5 612.5,-0.5 553.5,-0.5"/>
<text text-anchor="middle" x="583" y="-7.5" font-family="Helvetica,sans-Serif" font-size="10.00">inttypes.h</text>
</g>
<!-- Node12&#45;&gt;Node14 -->
<g id="edge15" class="edge"><title>Node12&#45;&gt;Node14</title>
<path fill="none" stroke="midnightblue" d="M552.158,-61.9751C557.451,-53.2268 565.835,-39.3691 572.527,-28.3093"/>
<polygon fill="midnightblue" stroke="midnightblue" points="575.67,-29.8768 577.852,-19.5091 569.68,-26.2531 575.67,-29.8768"/>
</g>
<!-- Node18&#45;&gt;Node8 -->
<g id="edge23" class="edge"><title>Node18&#45;&gt;Node8</title>
<path fill="none" stroke="midnightblue" d="M592.327,-179.324C574.606,-170.625 547.097,-157.12 526.712,-147.113"/>
<polygon fill="midnightblue" stroke="midnightblue" points="528.149,-143.919 517.63,-142.655 525.064,-150.203 528.149,-143.919"/>
</g>
<!-- Node18&#45;&gt;Node12 -->
<g id="edge26" class="edge"><title>Node18&#45;&gt;Node12</title>
<path fill="none" stroke="midnightblue" d="M600.805,-179.493C592.082,-170.988 579.132,-157.166 571,-143 561.562,-126.559 555.062,-105.824 551.231,-91.107"/>
<polygon fill="midnightblue" stroke="midnightblue" points="554.584,-90.0844 548.817,-81.197 547.783,-91.7412 554.584,-90.0844"/>
</g>
<!-- Node19 -->
<g id="node19" class="node"><title>Node19</title>
<polygon fill="white" stroke="#bfbfbf" points="737,-62 737,-81 789,-81 789,-62 737,-62"/>
<text text-anchor="middle" x="763" y="-69" font-family="Helvetica,sans-Serif" font-size="10.00">memory</text>
</g>
<!-- Node18&#45;&gt;Node19 -->
<g id="edge24" class="edge"><title>Node18&#45;&gt;Node19</title>
<path fill="none" stroke="midnightblue" d="M656.233,-183.223C705.293,-177.088 778.047,-164.571 795,-143 808.035,-126.415 793.062,-103.669 779.522,-88.5494"/>
<polygon fill="midnightblue" stroke="midnightblue" points="781.772,-85.8372 772.334,-81.0217 776.709,-90.6713 781.772,-85.8372"/>
</g>
<!-- Node20 -->
<g id="node20" class="node"><title>Node20</title>
<polygon fill="white" stroke="#bfbfbf" points="580.5,-123.5 580.5,-142.5 621.5,-142.5 621.5,-123.5 580.5,-123.5"/>
<text text-anchor="middle" x="601" y="-130.5" font-family="Helvetica,sans-Serif" font-size="10.00">string</text>
</g>
<!-- Node18&#45;&gt;Node20 -->
<g id="edge25" class="edge"><title>Node18&#45;&gt;Node20</title>
<path fill="none" stroke="midnightblue" d="M608.514,-179.083C607.321,-171.927 605.606,-161.635 604.115,-152.691"/>
<polygon fill="midnightblue" stroke="midnightblue" points="607.555,-152.04 602.459,-142.751 600.65,-153.19 607.555,-152.04"/>
</g>
<!-- Node21 -->
<g id="node21" class="node"><title>Node21</title>
<g id="a_node21"><a xlink:href="classhelpers_8h.xhtml" target="_top" xlink:title="Declares common utility classes and macros. ">
<polygon fill="white" stroke="black" points="640,-123.5 640,-142.5 786,-142.5 786,-123.5 640,-123.5"/>
<text text-anchor="middle" x="713" y="-130.5" font-family="Helvetica,sans-Serif" font-size="10.00">gromacs/utility/classhelpers.h</text>
</a>
</g>
</g>
<!-- Node18&#45;&gt;Node21 -->
<g id="edge27" class="edge"><title>Node18&#45;&gt;Node21</title>
<path fill="none" stroke="midnightblue" d="M626.549,-179.324C642.992,-170.703 668.435,-157.364 687.468,-147.386"/>
<polygon fill="midnightblue" stroke="midnightblue" points="689.261,-150.398 696.492,-142.655 686.011,-144.198 689.261,-150.398"/>
</g>
<!-- Node21&#45;&gt;Node19 -->
<g id="edge28" class="edge"><title>Node21&#45;&gt;Node19</title>
<path fill="none" stroke="midnightblue" d="M720.164,-123.475C727.738,-114.462 739.87,-100.025 749.293,-88.8118"/>
<polygon fill="midnightblue" stroke="midnightblue" points="752.096,-90.9166 755.85,-81.0091 746.737,-86.4132 752.096,-90.9166"/>
</g>
</g>
</svg>
