<?xml version="1.0" encoding="UTF-8" standalone="no"?>
<!DOCTYPE svg PUBLIC "-//W3C//DTD SVG 1.1//EN"
 "http://www.w3.org/Graphics/SVG/1.1/DTD/svg11.dtd">
<!-- Generated by graphviz version 2.38.0 (20140413.2041)
 -->
<!-- Title: src/gromacs/awh Pages: 1 -->
<svg width="383pt" height="394pt"
 viewBox="0.00 0.00 382.70 394.06" xmlns="http://www.w3.org/2000/svg" xmlns:xlink="http://www.w3.org/1999/xlink">
<g id="graph0" class="graph" transform="scale(1 1) rotate(0) translate(4 390.055)">
<title>src/gromacs/awh</title>
<polygon fill="white" stroke="none" points="-4,4 -4,-390.055 378.697,-390.055 378.697,4 -4,4"/>
<g id="clust1" class="cluster"><title>clusterdir_a46192700e9e8ed44c648f0a55ee9a53</title>
<g id="a_clust1"><a xlink:href="dir_a46192700e9e8ed44c648f0a55ee9a53.xhtml" target="_top" xlink:title="gromacs">
<polygon fill="#ddddee" stroke="black" points="154.697,-272 154.697,-359 312.697,-359 312.697,-272 154.697,-272"/>
<text text-anchor="middle" x="233.697" y="-347" font-family="Helvetica,sans-Serif" font-size="10.00">gromacs</text>
</a>
</g>
</g>
<g id="clust2" class="cluster"><title>clusterdir_6e52ef111a1bb8f07f14fb11ebc85917</title>
<g id="a_clust2"><a xlink:href="dir_6e52ef111a1bb8f07f14fb11ebc85917.xhtml" target="_top">
<polygon fill="#eeeeff" stroke="black" points="162.697,-280 162.697,-332 304.697,-332 304.697,-280 162.697,-280"/>
</a>
</g>
</g>
<!-- dir_6e52ef111a1bb8f07f14fb11ebc85917 -->
<g id="node1" class="node"><title>dir_6e52ef111a1bb8f07f14fb11ebc85917</title>
<text text-anchor="middle" x="197.697" y="-303.5" font-family="Helvetica,sans-Serif" font-size="10.00">awh</text>
</g>
<!-- dir_d8f6a048e45b6153e1e1c3a54ed273a0 -->
<g id="node3" class="node"><title>dir_d8f6a048e45b6153e1e1c3a54ed273a0</title>
<g id="a_node3"><a xlink:href="dir_d8f6a048e45b6153e1e1c3a54ed273a0.xhtml" target="_top" xlink:title="compat">
<polygon fill="white" stroke="red" points="79.6968,-36 25.6968,-36 25.6968,-0 79.6968,-0 79.6968,-36"/>
<text text-anchor="middle" x="52.6968" y="-15.5" font-family="Helvetica,sans-Serif" font-size="10.00">compat</text>
</a>
</g>
</g>
<!-- dir_6e52ef111a1bb8f07f14fb11ebc85917&#45;&gt;dir_d8f6a048e45b6153e1e1c3a54ed273a0 -->
<g id="edge8" class="edge"><title>dir_6e52ef111a1bb8f07f14fb11ebc85917&#45;&gt;dir_d8f6a048e45b6153e1e1c3a54ed273a0</title>
<path fill="none" stroke="black" d="M170.434,-305.957C130.273,-305.697 56.2458,-298.485 21.6968,-252 -24.4368,-189.928 14.7259,-92.0629 38.1773,-45.4202"/>
<polygon fill="black" stroke="black" points="41.4215,-46.7662 42.9067,-36.276 35.2039,-43.5504 41.4215,-46.7662"/>
<g id="a_edge8&#45;headlabel"><a xlink:href="dir_000011_000015.xhtml" target="_top" xlink:title="1">
<text text-anchor="middle" x="42.2921" y="-48.7634" font-family="Helvetica,sans-Serif" font-size="10.00">1</text>
</a>
</g>
</g>
<!-- dir_7cacf6b47314a2b927cacd0502911e15 -->
<g id="node4" class="node"><title>dir_7cacf6b47314a2b927cacd0502911e15</title>
<g id="a_node4"><a xlink:href="dir_7cacf6b47314a2b927cacd0502911e15.xhtml" target="_top" xlink:title="random">
<polygon fill="white" stroke="red" points="98.6968,-252 44.6968,-252 44.6968,-216 98.6968,-216 98.6968,-252"/>
<text text-anchor="middle" x="71.6968" y="-231.5" font-family="Helvetica,sans-Serif" font-size="10.00">random</text>
</a>
</g>
</g>
<!-- dir_6e52ef111a1bb8f07f14fb11ebc85917&#45;&gt;dir_7cacf6b47314a2b927cacd0502911e15 -->
<g id="edge9" class="edge"><title>dir_6e52ef111a1bb8f07f14fb11ebc85917&#45;&gt;dir_7cacf6b47314a2b927cacd0502911e15</title>
<path fill="none" stroke="black" d="M170.667,-289.983C152.356,-279.811 127.95,-266.252 107.955,-255.144"/>
<polygon fill="black" stroke="black" points="109.558,-252.03 99.117,-250.233 106.159,-258.149 109.558,-252.03"/>
<g id="a_edge9&#45;headlabel"><a xlink:href="dir_000011_000066.xhtml" target="_top" xlink:title="3">
<text text-anchor="middle" x="114.079" y="-248.794" font-family="Helvetica,sans-Serif" font-size="10.00">3</text>
</a>
</g>
</g>
<!-- dir_3a4b0bcbd24753b24f34801caeb39283 -->
<g id="node5" class="node"><title>dir_3a4b0bcbd24753b24f34801caeb39283</title>
<g id="a_node5"><a xlink:href="dir_3a4b0bcbd24753b24f34801caeb39283.xhtml" target="_top" xlink:title="mdtypes">
<polygon fill="none" stroke="black" points="318.697,-252 264.697,-252 264.697,-216 318.697,-216 318.697,-252"/>
<text text-anchor="middle" x="291.697" y="-231.5" font-family="Helvetica,sans-Serif" font-size="10.00">mdtypes</text>
</a>
</g>
</g>
<!-- dir_6e52ef111a1bb8f07f14fb11ebc85917&#45;&gt;dir_3a4b0bcbd24753b24f34801caeb39283 -->
<g id="edge10" class="edge"><title>dir_6e52ef111a1bb8f07f14fb11ebc85917&#45;&gt;dir_3a4b0bcbd24753b24f34801caeb39283</title>
<path fill="none" stroke="black" d="M215.106,-287.912C220.843,-282.593 227.376,-276.854 233.697,-272 240.642,-266.667 248.365,-261.354 255.852,-256.487"/>
<polygon fill="black" stroke="black" points="257.913,-259.324 264.472,-251.004 254.156,-253.418 257.913,-259.324"/>
<g id="a_edge10&#45;headlabel"><a xlink:href="dir_000011_000051.xhtml" target="_top" xlink:title="26">
<text text-anchor="middle" x="256.404" y="-261.149" font-family="Helvetica,sans-Serif" font-size="10.00">26</text>
</a>
</g>
</g>
<!-- dir_069a72e2096440213f56c93a40bc8b09 -->
<g id="node6" class="node"><title>dir_069a72e2096440213f56c93a40bc8b09</title>
<g id="a_node6"><a xlink:href="dir_069a72e2096440213f56c93a40bc8b09.xhtml" target="_top" xlink:title="math">
<polygon fill="white" stroke="red" points="263.697,-180 209.697,-180 209.697,-144 263.697,-144 263.697,-180"/>
<text text-anchor="middle" x="236.697" y="-159.5" font-family="Helvetica,sans-Serif" font-size="10.00">math</text>
</a>
</g>
</g>
<!-- dir_6e52ef111a1bb8f07f14fb11ebc85917&#45;&gt;dir_069a72e2096440213f56c93a40bc8b09 -->
<g id="edge11" class="edge"><title>dir_6e52ef111a1bb8f07f14fb11ebc85917&#45;&gt;dir_069a72e2096440213f56c93a40bc8b09</title>
<path fill="none" stroke="black" d="M202.401,-287.871C209.077,-263.564 221.366,-218.819 229.278,-190.013"/>
<polygon fill="black" stroke="black" points="232.702,-190.759 231.976,-180.189 225.952,-188.905 232.702,-190.759"/>
<g id="a_edge11&#45;headlabel"><a xlink:href="dir_000011_000047.xhtml" target="_top" xlink:title="3">
<text text-anchor="middle" x="234.488" y="-192.477" font-family="Helvetica,sans-Serif" font-size="10.00">3</text>
</a>
</g>
</g>
<!-- dir_f0525b1fd47aeb3c14bec98caed922ee -->
<g id="node8" class="node"><title>dir_f0525b1fd47aeb3c14bec98caed922ee</title>
<g id="a_node8"><a xlink:href="dir_f0525b1fd47aeb3c14bec98caed922ee.xhtml" target="_top" xlink:title="pulling">
<polygon fill="white" stroke="red" points="374.697,-324 320.697,-324 320.697,-288 374.697,-288 374.697,-324"/>
<text text-anchor="middle" x="347.697" y="-303.5" font-family="Helvetica,sans-Serif" font-size="10.00">pulling</text>
</a>
</g>
</g>
<!-- dir_6e52ef111a1bb8f07f14fb11ebc85917&#45;&gt;dir_f0525b1fd47aeb3c14bec98caed922ee -->
<g id="edge12" class="edge"><title>dir_6e52ef111a1bb8f07f14fb11ebc85917&#45;&gt;dir_f0525b1fd47aeb3c14bec98caed922ee</title>
<path fill="none" stroke="black" d="M203.426,-324.038C209.931,-341.135 222.366,-365.816 242.697,-377 264.893,-389.211 277.322,-388.881 299.697,-377 317,-367.812 329.202,-349.292 336.973,-333.471"/>
<polygon fill="black" stroke="black" points="340.291,-334.629 341.244,-324.077 333.919,-331.731 340.291,-334.629"/>
<g id="a_edge12&#45;headlabel"><a xlink:href="dir_000011_000064.xhtml" target="_top" xlink:title="2">
<text text-anchor="middle" x="341.388" y="-336.576" font-family="Helvetica,sans-Serif" font-size="10.00">2</text>
</a>
</g>
</g>
<!-- dir_32d26fbaf0abd8bf4548e7cba9bbcf59 -->
<g id="node9" class="node"><title>dir_32d26fbaf0abd8bf4548e7cba9bbcf59</title>
<g id="a_node9"><a xlink:href="dir_32d26fbaf0abd8bf4548e7cba9bbcf59.xhtml" target="_top" xlink:title="simd">
<polygon fill="white" stroke="red" points="170.697,-252 116.697,-252 116.697,-216 170.697,-216 170.697,-252"/>
<text text-anchor="middle" x="143.697" y="-231.5" font-family="Helvetica,sans-Serif" font-size="10.00">simd</text>
</a>
</g>
</g>
<!-- dir_6e52ef111a1bb8f07f14fb11ebc85917&#45;&gt;dir_32d26fbaf0abd8bf4548e7cba9bbcf59 -->
<g id="edge13" class="edge"><title>dir_6e52ef111a1bb8f07f14fb11ebc85917&#45;&gt;dir_32d26fbaf0abd8bf4548e7cba9bbcf59</title>
<path fill="none" stroke="black" d="M184.348,-287.697C177.94,-279.389 170.139,-269.277 163.091,-260.141"/>
<polygon fill="black" stroke="black" points="165.771,-257.884 156.892,-252.104 160.228,-262.16 165.771,-257.884"/>
<g id="a_edge13&#45;headlabel"><a xlink:href="dir_000011_000070.xhtml" target="_top" xlink:title="2">
<text text-anchor="middle" x="170.215" y="-256.496" font-family="Helvetica,sans-Serif" font-size="10.00">2</text>
</a>
</g>
</g>
<!-- dir_a64a619a73689309b11b91ae52c63e36 -->
<g id="node10" class="node"><title>dir_a64a619a73689309b11b91ae52c63e36</title>
<g id="a_node10"><a xlink:href="dir_a64a619a73689309b11b91ae52c63e36.xhtml" target="_top" xlink:title="utility">
<polygon fill="white" stroke="red" points="225.697,-108 171.697,-108 171.697,-72 225.697,-72 225.697,-108"/>
<text text-anchor="middle" x="198.697" y="-87.5" font-family="Helvetica,sans-Serif" font-size="10.00">utility</text>
</a>
</g>
</g>
<!-- dir_6e52ef111a1bb8f07f14fb11ebc85917&#45;&gt;dir_a64a619a73689309b11b91ae52c63e36 -->
<g id="edge14" class="edge"><title>dir_6e52ef111a1bb8f07f14fb11ebc85917&#45;&gt;dir_a64a619a73689309b11b91ae52c63e36</title>
<path fill="none" stroke="black" d="M170.67,-305.127C133.23,-303.66 66.7012,-294.765 35.6968,-252 -8.51495,-191.018 101.874,-132.158 162.333,-105.649"/>
<polygon fill="black" stroke="black" points="163.77,-108.841 171.576,-101.677 161.007,-102.41 163.77,-108.841"/>
<g id="a_edge14&#45;headlabel"><a xlink:href="dir_000011_000087.xhtml" target="_top" xlink:title="61">
<text text-anchor="middle" x="161.589" y="-110.369" font-family="Helvetica,sans-Serif" font-size="10.00">61</text>
</a>
</g>
</g>
<!-- dir_78d5377d08ae17a3337f296fff7ed965 -->
<g id="node2" class="node"><title>dir_78d5377d08ae17a3337f296fff7ed965</title>
<g id="a_node2"><a xlink:href="dir_78d5377d08ae17a3337f296fff7ed965.xhtml" target="_top" xlink:title="tests">
<polygon fill="white" stroke="black" points="296.697,-324 242.697,-324 242.697,-288 296.697,-288 296.697,-324"/>
<text text-anchor="middle" x="269.697" y="-303.5" font-family="Helvetica,sans-Serif" font-size="10.00">tests</text>
</a>
</g>
</g>
<!-- dir_78d5377d08ae17a3337f296fff7ed965&#45;&gt;dir_3a4b0bcbd24753b24f34801caeb39283 -->
<g id="edge16" class="edge"><title>dir_78d5377d08ae17a3337f296fff7ed965&#45;&gt;dir_3a4b0bcbd24753b24f34801caeb39283</title>
<path fill="none" stroke="black" d="M275.135,-287.697C277.586,-279.898 280.537,-270.509 283.265,-261.829"/>
<polygon fill="black" stroke="black" points="286.662,-262.694 286.321,-252.104 279.984,-260.595 286.662,-262.694"/>
<g id="a_edge16&#45;headlabel"><a xlink:href="dir_000012_000051.xhtml" target="_top" xlink:title="3">
<text text-anchor="middle" x="288.293" y="-264.474" font-family="Helvetica,sans-Serif" font-size="10.00">3</text>
</a>
</g>
</g>
<!-- dir_78d5377d08ae17a3337f296fff7ed965&#45;&gt;dir_069a72e2096440213f56c93a40bc8b09 -->
<g id="edge17" class="edge"><title>dir_78d5377d08ae17a3337f296fff7ed965&#45;&gt;dir_069a72e2096440213f56c93a40bc8b09</title>
<path fill="none" stroke="black" d="M264.948,-287.867C262.134,-277.513 258.569,-264.034 255.697,-252 250.776,-231.383 245.795,-207.933 242.168,-190.281"/>
<polygon fill="black" stroke="black" points="245.523,-189.217 240.097,-180.117 238.664,-190.614 245.523,-189.217"/>
<g id="a_edge17&#45;headlabel"><a xlink:href="dir_000012_000047.xhtml" target="_top" xlink:title="1">
<text text-anchor="middle" x="249.023" y="-189.672" font-family="Helvetica,sans-Serif" font-size="10.00">1</text>
</a>
</g>
</g>
<!-- dir_d2bee95dce64d4fd80a3640d91ab4935 -->
<g id="node7" class="node"><title>dir_d2bee95dce64d4fd80a3640d91ab4935</title>
<g id="a_node7"><a xlink:href="dir_d2bee95dce64d4fd80a3640d91ab4935.xhtml" target="_top" xlink:title="testutils">
<polygon fill="white" stroke="red" points="225.697,-36 171.697,-36 171.697,-0 225.697,-0 225.697,-36"/>
<text text-anchor="middle" x="198.697" y="-15.5" font-family="Helvetica,sans-Serif" font-size="10.00">testutils</text>
</a>
</g>
</g>
<!-- dir_78d5377d08ae17a3337f296fff7ed965&#45;&gt;dir_d2bee95dce64d4fd80a3640d91ab4935 -->
<g id="edge18" class="edge"><title>dir_78d5377d08ae17a3337f296fff7ed965&#45;&gt;dir_d2bee95dce64d4fd80a3640d91ab4935</title>
<path fill="none" stroke="black" d="M290.727,-287.76C297.327,-282.544 304.715,-276.903 311.697,-272 325.422,-262.361 335.566,-266.669 343.697,-252 351.453,-238.006 346.161,-231.809 343.697,-216 338.524,-182.808 337.872,-172.871 320.697,-144 298.036,-105.909 282.702,-103.672 251.697,-72 242.452,-62.556 232.2,-52.2635 223.196,-43.2823"/>
<polygon fill="black" stroke="black" points="225.532,-40.6687 215.976,-36.0938 220.593,-45.6295 225.532,-40.6687"/>
<g id="a_edge18&#45;headlabel"><a xlink:href="dir_000012_000090.xhtml" target="_top" xlink:title="5">
<text text-anchor="middle" x="230.082" y="-38.6927" font-family="Helvetica,sans-Serif" font-size="10.00">5</text>
</a>
</g>
</g>
<!-- dir_78d5377d08ae17a3337f296fff7ed965&#45;&gt;dir_a64a619a73689309b11b91ae52c63e36 -->
<g id="edge19" class="edge"><title>dir_78d5377d08ae17a3337f296fff7ed965&#45;&gt;dir_a64a619a73689309b11b91ae52c63e36</title>
<path fill="none" stroke="black" d="M291.946,-287.85C306.617,-275.984 323.818,-260.799 327.697,-252 334.151,-237.359 331.198,-231.612 327.697,-216 319.954,-181.469 317.859,-169.856 293.697,-144 277.518,-126.687 254.378,-113.613 234.987,-104.782"/>
<polygon fill="black" stroke="black" points="236.381,-101.572 225.815,-100.788 233.586,-107.99 236.381,-101.572"/>
<g id="a_edge19&#45;headlabel"><a xlink:href="dir_000012_000087.xhtml" target="_top" xlink:title="3">
<text text-anchor="middle" x="240.811" y="-97.9044" font-family="Helvetica,sans-Serif" font-size="10.00">3</text>
</a>
</g>
</g>
<!-- dir_7cacf6b47314a2b927cacd0502911e15&#45;&gt;dir_069a72e2096440213f56c93a40bc8b09 -->
<g id="edge1" class="edge"><title>dir_7cacf6b47314a2b927cacd0502911e15&#45;&gt;dir_069a72e2096440213f56c93a40bc8b09</title>
<path fill="none" stroke="black" d="M98.7551,-220.04C101.762,-218.654 104.788,-217.283 107.697,-216 138.536,-202.394 173.983,-187.913 199.906,-177.532"/>
<polygon fill="black" stroke="black" points="201.355,-180.722 209.345,-173.764 198.76,-174.22 201.355,-180.722"/>
<g id="a_edge1&#45;headlabel"><a xlink:href="dir_000066_000047.xhtml" target="_top" xlink:title="4">
<text text-anchor="middle" x="199.069" y="-182.191" font-family="Helvetica,sans-Serif" font-size="10.00">4</text>
</a>
</g>
</g>
<!-- dir_7cacf6b47314a2b927cacd0502911e15&#45;&gt;dir_d2bee95dce64d4fd80a3640d91ab4935 -->
<g id="edge2" class="edge"><title>dir_7cacf6b47314a2b927cacd0502911e15&#45;&gt;dir_d2bee95dce64d4fd80a3640d91ab4935</title>
<path fill="none" stroke="black" d="M78.1306,-215.653C89.8663,-185.137 116.616,-120.492 149.697,-72 156.579,-61.9118 165.322,-51.8238 173.512,-43.1977"/>
<polygon fill="black" stroke="black" points="176.027,-45.6319 180.506,-36.0304 171.017,-40.743 176.027,-45.6319"/>
<g id="a_edge2&#45;headlabel"><a xlink:href="dir_000066_000090.xhtml" target="_top" xlink:title="14">
<text text-anchor="middle" x="175.549" y="-47.6875" font-family="Helvetica,sans-Serif" font-size="10.00">14</text>
</a>
</g>
</g>
<!-- dir_7cacf6b47314a2b927cacd0502911e15&#45;&gt;dir_a64a619a73689309b11b91ae52c63e36 -->
<g id="edge3" class="edge"><title>dir_7cacf6b47314a2b927cacd0502911e15&#45;&gt;dir_a64a619a73689309b11b91ae52c63e36</title>
<path fill="none" stroke="black" d="M87.016,-215.871C109.328,-190.924 150.893,-144.45 176.541,-115.773"/>
<polygon fill="black" stroke="black" points="179.266,-117.976 183.323,-108.189 174.048,-113.31 179.266,-117.976"/>
<g id="a_edge3&#45;headlabel"><a xlink:href="dir_000066_000087.xhtml" target="_top" xlink:title="19">
<text text-anchor="middle" x="178.986" y="-120.048" font-family="Helvetica,sans-Serif" font-size="10.00">19</text>
</a>
</g>
</g>
<!-- dir_3a4b0bcbd24753b24f34801caeb39283&#45;&gt;dir_069a72e2096440213f56c93a40bc8b09 -->
<g id="edge4" class="edge"><title>dir_3a4b0bcbd24753b24f34801caeb39283&#45;&gt;dir_069a72e2096440213f56c93a40bc8b09</title>
<path fill="none" stroke="black" d="M278.101,-215.697C271.574,-207.389 263.629,-197.277 256.45,-188.141"/>
<polygon fill="black" stroke="black" points="259.066,-185.805 250.136,-180.104 253.562,-190.13 259.066,-185.805"/>
<g id="a_edge4&#45;headlabel"><a xlink:href="dir_000051_000047.xhtml" target="_top" xlink:title="3">
<text text-anchor="middle" x="263.52" y="-184.377" font-family="Helvetica,sans-Serif" font-size="10.00">3</text>
</a>
</g>
</g>
<!-- dir_3a4b0bcbd24753b24f34801caeb39283&#45;&gt;dir_a64a619a73689309b11b91ae52c63e36 -->
<g id="edge5" class="edge"><title>dir_3a4b0bcbd24753b24f34801caeb39283&#45;&gt;dir_a64a619a73689309b11b91ae52c63e36</title>
<path fill="none" stroke="black" d="M291.631,-215.87C290.789,-196.849 287.066,-165.941 272.697,-144 263.322,-129.685 248.639,-117.998 234.815,-109.277"/>
<polygon fill="black" stroke="black" points="236.302,-106.088 225.919,-103.976 232.718,-112.101 236.302,-106.088"/>
<g id="a_edge5&#45;headlabel"><a xlink:href="dir_000051_000087.xhtml" target="_top" xlink:title="45">
<text text-anchor="middle" x="240.843" y="-102.989" font-family="Helvetica,sans-Serif" font-size="10.00">45</text>
</a>
</g>
</g>
<!-- dir_069a72e2096440213f56c93a40bc8b09&#45;&gt;dir_d2bee95dce64d4fd80a3640d91ab4935 -->
<g id="edge6" class="edge"><title>dir_069a72e2096440213f56c93a40bc8b09&#45;&gt;dir_d2bee95dce64d4fd80a3640d91ab4935</title>
<path fill="none" stroke="black" d="M239.135,-143.797C241.084,-125.515 242.371,-95.9947 234.697,-72 231.578,-62.2497 226.049,-52.6602 220.246,-44.3759"/>
<polygon fill="black" stroke="black" points="222.976,-42.1822 214.189,-36.2634 217.367,-46.3703 222.976,-42.1822"/>
<g id="a_edge6&#45;headlabel"><a xlink:href="dir_000047_000090.xhtml" target="_top" xlink:title="3">
<text text-anchor="middle" x="227.402" y="-40.8639" font-family="Helvetica,sans-Serif" font-size="10.00">3</text>
</a>
</g>
</g>
<!-- dir_069a72e2096440213f56c93a40bc8b09&#45;&gt;dir_a64a619a73689309b11b91ae52c63e36 -->
<g id="edge7" class="edge"><title>dir_069a72e2096440213f56c93a40bc8b09&#45;&gt;dir_a64a619a73689309b11b91ae52c63e36</title>
<path fill="none" stroke="black" d="M227.304,-143.697C222.932,-135.644 217.64,-125.894 212.802,-116.982"/>
<polygon fill="black" stroke="black" points="215.829,-115.223 207.982,-108.104 209.677,-118.563 215.829,-115.223"/>
<g id="a_edge7&#45;headlabel"><a xlink:href="dir_000047_000087.xhtml" target="_top" xlink:title="25">
<text text-anchor="middle" x="220.039" y="-114.528" font-family="Helvetica,sans-Serif" font-size="10.00">25</text>
</a>
</g>
</g>
<!-- dir_d2bee95dce64d4fd80a3640d91ab4935&#45;&gt;dir_a64a619a73689309b11b91ae52c63e36 -->
<g id="edge15" class="edge"><title>dir_d2bee95dce64d4fd80a3640d91ab4935&#45;&gt;dir_a64a619a73689309b11b91ae52c63e36</title>
<path fill="none" stroke="black" d="M204.592,-36.1043C205.397,-43.7913 205.634,-53.0537 205.301,-61.6651"/>
<polygon fill="black" stroke="black" points="201.805,-61.4805 204.613,-71.6966 208.789,-61.9597 201.805,-61.4805"/>
<g id="a_edge15&#45;headlabel"><a xlink:href="dir_000090_000087.xhtml" target="_top" xlink:title="80">
<text text-anchor="middle" x="199.219" y="-55.2" font-family="Helvetica,sans-Serif" font-size="10.00">80</text>
</a>
</g>
</g>
<!-- dir_f0525b1fd47aeb3c14bec98caed922ee&#45;&gt;dir_3a4b0bcbd24753b24f34801caeb39283 -->
<g id="edge20" class="edge"><title>dir_f0525b1fd47aeb3c14bec98caed922ee&#45;&gt;dir_3a4b0bcbd24753b24f34801caeb39283</title>
<path fill="none" stroke="black" d="M333.854,-287.697C327.208,-279.389 319.118,-269.277 311.809,-260.141"/>
<polygon fill="black" stroke="black" points="314.36,-257.727 305.38,-252.104 308.894,-262.099 314.36,-257.727"/>
<g id="a_edge20&#45;headlabel"><a xlink:href="dir_000064_000051.xhtml" target="_top" xlink:title="7">
<text text-anchor="middle" x="318.823" y="-256.26" font-family="Helvetica,sans-Serif" font-size="10.00">7</text>
</a>
</g>
</g>
<!-- dir_f0525b1fd47aeb3c14bec98caed922ee&#45;&gt;dir_069a72e2096440213f56c93a40bc8b09 -->
<g id="edge21" class="edge"><title>dir_f0525b1fd47aeb3c14bec98caed922ee&#45;&gt;dir_069a72e2096440213f56c93a40bc8b09</title>
<path fill="none" stroke="black" d="M347.793,-287.945C347.075,-268.709 343.326,-237.335 327.697,-216 314.203,-197.579 292.215,-184.517 273.233,-175.969"/>
<polygon fill="black" stroke="black" points="274.498,-172.704 263.925,-172.02 271.764,-179.148 274.498,-172.704"/>
<g id="a_edge21&#45;headlabel"><a xlink:href="dir_000064_000047.xhtml" target="_top" xlink:title="3">
<text text-anchor="middle" x="278.916" y="-168.994" font-family="Helvetica,sans-Serif" font-size="10.00">3</text>
</a>
</g>
</g>
<!-- dir_f0525b1fd47aeb3c14bec98caed922ee&#45;&gt;dir_d2bee95dce64d4fd80a3640d91ab4935 -->
<g id="edge22" class="edge"><title>dir_f0525b1fd47aeb3c14bec98caed922ee&#45;&gt;dir_d2bee95dce64d4fd80a3640d91ab4935</title>
<path fill="none" stroke="black" d="M355.176,-287.704C359.17,-277.522 363.67,-264.272 365.697,-252 373.652,-203.837 368.362,-187.235 345.697,-144 326.357,-107.107 317.242,-99.2026 285.697,-72 270.214,-58.6489 250.975,-46.5489 234.529,-37.2922"/>
<polygon fill="black" stroke="black" points="236.171,-34.2008 225.721,-32.4523 232.8,-40.3356 236.171,-34.2008"/>
<g id="a_edge22&#45;headlabel"><a xlink:href="dir_000064_000090.xhtml" target="_top" xlink:title="3">
<text text-anchor="middle" x="240.689" y="-30.9435" font-family="Helvetica,sans-Serif" font-size="10.00">3</text>
</a>
</g>
</g>
<!-- dir_f0525b1fd47aeb3c14bec98caed922ee&#45;&gt;dir_a64a619a73689309b11b91ae52c63e36 -->
<g id="edge23" class="edge"><title>dir_f0525b1fd47aeb3c14bec98caed922ee&#45;&gt;dir_a64a619a73689309b11b91ae52c63e36</title>
<path fill="none" stroke="black" d="M350.261,-287.919C354.098,-255.479 357.381,-184.575 320.697,-144 298.45,-119.393 262.756,-105.714 235.711,-98.4462"/>
<polygon fill="black" stroke="black" points="236.367,-95.0023 225.816,-95.9654 234.664,-101.792 236.367,-95.0023"/>
<g id="a_edge23&#45;headlabel"><a xlink:href="dir_000064_000087.xhtml" target="_top" xlink:title="23">
<text text-anchor="middle" x="240.544" y="-90.6223" font-family="Helvetica,sans-Serif" font-size="10.00">23</text>
</a>
</g>
</g>
<!-- dir_32d26fbaf0abd8bf4548e7cba9bbcf59&#45;&gt;dir_069a72e2096440213f56c93a40bc8b09 -->
<g id="edge24" class="edge"><title>dir_32d26fbaf0abd8bf4548e7cba9bbcf59&#45;&gt;dir_069a72e2096440213f56c93a40bc8b09</title>
<path fill="none" stroke="black" d="M166.686,-215.697C178.511,-206.796 193.089,-195.823 205.875,-186.199"/>
<polygon fill="black" stroke="black" points="208.088,-188.915 213.972,-180.104 203.878,-183.322 208.088,-188.915"/>
<g id="a_edge24&#45;headlabel"><a xlink:href="dir_000070_000047.xhtml" target="_top" xlink:title="1">
<text text-anchor="middle" x="206.923" y="-190.845" font-family="Helvetica,sans-Serif" font-size="10.00">1</text>
</a>
</g>
</g>
<!-- dir_32d26fbaf0abd8bf4548e7cba9bbcf59&#45;&gt;dir_d2bee95dce64d4fd80a3640d91ab4935 -->
<g id="edge25" class="edge"><title>dir_32d26fbaf0abd8bf4548e7cba9bbcf59&#45;&gt;dir_d2bee95dce64d4fd80a3640d91ab4935</title>
<path fill="none" stroke="black" d="M143.099,-215.93C142.608,-185.842 144.104,-121.84 162.697,-72 166.275,-62.4088 171.933,-52.8639 177.713,-44.5717"/>
<polygon fill="black" stroke="black" points="180.593,-46.5637 183.699,-36.4343 174.954,-42.4159 180.593,-46.5637"/>
<g id="a_edge25&#45;headlabel"><a xlink:href="dir_000070_000090.xhtml" target="_top" xlink:title="6">
<text text-anchor="middle" x="180.75" y="-48.6417" font-family="Helvetica,sans-Serif" font-size="10.00">6</text>
</a>
</g>
</g>
<!-- dir_32d26fbaf0abd8bf4548e7cba9bbcf59&#45;&gt;dir_a64a619a73689309b11b91ae52c63e36 -->
<g id="edge26" class="edge"><title>dir_32d26fbaf0abd8bf4548e7cba9bbcf59&#45;&gt;dir_a64a619a73689309b11b91ae52c63e36</title>
<path fill="none" stroke="black" d="M150.331,-215.871C159.787,-191.457 177.229,-146.426 188.38,-117.635"/>
<polygon fill="black" stroke="black" points="191.691,-118.778 192.039,-108.189 185.163,-116.25 191.691,-118.778"/>
<g id="a_edge26&#45;headlabel"><a xlink:href="dir_000070_000087.xhtml" target="_top" xlink:title="27">
<text text-anchor="middle" x="193.04" y="-120.656" font-family="Helvetica,sans-Serif" font-size="10.00">27</text>
</a>
</g>
</g>
<!-- dir_a64a619a73689309b11b91ae52c63e36&#45;&gt;dir_d8f6a048e45b6153e1e1c3a54ed273a0 -->
<g id="edge27" class="edge"><title>dir_a64a619a73689309b11b91ae52c63e36&#45;&gt;dir_d8f6a048e45b6153e1e1c3a54ed273a0</title>
<path fill="none" stroke="black" d="M171.577,-75.9976C148.369,-64.8701 114.755,-48.7539 89.1876,-36.4956"/>
<polygon fill="black" stroke="black" points="90.6967,-33.3377 80.1663,-32.1703 87.6703,-39.6497 90.6967,-33.3377"/>
<g id="a_edge27&#45;headlabel"><a xlink:href="dir_000087_000015.xhtml" target="_top" xlink:title="1">
<text text-anchor="middle" x="95.1655" y="-29.8314" font-family="Helvetica,sans-Serif" font-size="10.00">1</text>
</a>
</g>
</g>
<!-- dir_a64a619a73689309b11b91ae52c63e36&#45;&gt;dir_d2bee95dce64d4fd80a3640d91ab4935 -->
<g id="edge28" class="edge"><title>dir_a64a619a73689309b11b91ae52c63e36&#45;&gt;dir_d2bee95dce64d4fd80a3640d91ab4935</title>
<path fill="none" stroke="black" d="M192.781,-71.6966C191.985,-63.9827 191.759,-54.7125 192.102,-46.1124"/>
<polygon fill="black" stroke="black" points="195.595,-46.3243 192.802,-36.1043 188.612,-45.8356 195.595,-46.3243"/>
<g id="a_edge28&#45;headlabel"><a xlink:href="dir_000087_000090.xhtml" target="_top" xlink:title="10">
<text text-anchor="middle" x="198.177" y="-47.6083" font-family="Helvetica,sans-Serif" font-size="10.00">10</text>
</a>
</g>
</g>
</g>
</svg>
