<?xml version="1.0" encoding="UTF-8" standalone="no"?>
<!DOCTYPE svg PUBLIC "-//W3C//DTD SVG 1.1//EN"
 "http://www.w3.org/Graphics/SVG/1.1/DTD/svg11.dtd">
<!-- Generated by graphviz version 2.38.0 (20140413.2041)
 -->
<!-- Title: src/gromacs/correlationfunctions Pages: 1 -->
<svg width="240pt" height="375pt"
 viewBox="0.00 0.00 239.59 375.00" xmlns="http://www.w3.org/2000/svg" xmlns:xlink="http://www.w3.org/1999/xlink">
<g id="graph0" class="graph" transform="scale(1 1) rotate(0) translate(4 371)">
<title>src/gromacs/correlationfunctions</title>
<polygon fill="white" stroke="none" points="-4,4 -4,-371 235.593,-371 235.593,4 -4,4"/>
<g id="clust1" class="cluster"><title>clusterdir_a46192700e9e8ed44c648f0a55ee9a53</title>
<g id="a_clust1"><a xlink:href="dir_a46192700e9e8ed44c648f0a55ee9a53.xhtml" target="_top" xlink:title="gromacs">
<polygon fill="#ddddee" stroke="black" points="17.5931,-272 17.5931,-359 223.593,-359 223.593,-272 17.5931,-272"/>
<text text-anchor="middle" x="120.593" y="-347" font-family="Helvetica,sans-Serif" font-size="10.00">gromacs</text>
</a>
</g>
</g>
<g id="clust2" class="cluster"><title>clusterdir_014a9b7944bd224a57074a436acb6ed9</title>
<g id="a_clust2"><a xlink:href="dir_014a9b7944bd224a57074a436acb6ed9.xhtml" target="_top">
<polygon fill="#eeeeff" stroke="black" points="25.5931,-280 25.5931,-332 215.593,-332 215.593,-280 25.5931,-280"/>
</a>
</g>
</g>
<!-- dir_014a9b7944bd224a57074a436acb6ed9 -->
<g id="node1" class="node"><title>dir_014a9b7944bd224a57074a436acb6ed9</title>
<text text-anchor="middle" x="156.593" y="-303.5" font-family="Helvetica,sans-Serif" font-size="10.00">correlationfunctions</text>
</g>
<!-- dir_069a72e2096440213f56c93a40bc8b09 -->
<g id="node3" class="node"><title>dir_069a72e2096440213f56c93a40bc8b09</title>
<g id="a_node3"><a xlink:href="dir_069a72e2096440213f56c93a40bc8b09.xhtml" target="_top" xlink:title="math">
<polygon fill="white" stroke="red" points="183.593,-252 129.593,-252 129.593,-216 183.593,-216 183.593,-252"/>
<text text-anchor="middle" x="156.593" y="-231.5" font-family="Helvetica,sans-Serif" font-size="10.00">math</text>
</a>
</g>
</g>
<!-- dir_014a9b7944bd224a57074a436acb6ed9&#45;&gt;dir_069a72e2096440213f56c93a40bc8b09 -->
<g id="edge3" class="edge"><title>dir_014a9b7944bd224a57074a436acb6ed9&#45;&gt;dir_069a72e2096440213f56c93a40bc8b09</title>
<path fill="none" stroke="black" d="M156.593,-287.697C156.593,-279.983 156.593,-270.712 156.593,-262.112"/>
<polygon fill="black" stroke="black" points="160.093,-262.104 156.593,-252.104 153.093,-262.104 160.093,-262.104"/>
<g id="a_edge3&#45;headlabel"><a xlink:href="dir_000017_000047.xhtml" target="_top" xlink:title="3">
<text text-anchor="middle" x="162.932" y="-263.199" font-family="Helvetica,sans-Serif" font-size="10.00">3</text>
</a>
</g>
</g>
<!-- dir_a64a619a73689309b11b91ae52c63e36 -->
<g id="node5" class="node"><title>dir_a64a619a73689309b11b91ae52c63e36</title>
<g id="a_node5"><a xlink:href="dir_a64a619a73689309b11b91ae52c63e36.xhtml" target="_top" xlink:title="utility">
<polygon fill="white" stroke="red" points="80.5931,-36 26.5931,-36 26.5931,-0 80.5931,-0 80.5931,-36"/>
<text text-anchor="middle" x="53.5931" y="-15.5" font-family="Helvetica,sans-Serif" font-size="10.00">utility</text>
</a>
</g>
</g>
<!-- dir_014a9b7944bd224a57074a436acb6ed9&#45;&gt;dir_a64a619a73689309b11b91ae52c63e36 -->
<g id="edge4" class="edge"><title>dir_014a9b7944bd224a57074a436acb6ed9&#45;&gt;dir_a64a619a73689309b11b91ae52c63e36</title>
<path fill="none" stroke="black" d="M180.345,-287.91C191.146,-278.651 202.79,-266.2 208.593,-252 226.486,-208.214 246.288,-139.428 194.593,-72 169.97,-39.8829 123.592,-27.2281 90.7585,-22.2419"/>
<polygon fill="black" stroke="black" points="90.9964,-18.7425 80.619,-20.8776 90.0629,-25.68 90.9964,-18.7425"/>
<g id="a_edge4&#45;headlabel"><a xlink:href="dir_000017_000087.xhtml" target="_top" xlink:title="31">
<text text-anchor="middle" x="94.9376" y="-13.9079" font-family="Helvetica,sans-Serif" font-size="10.00">31</text>
</a>
</g>
</g>
<!-- dir_b9edb1efd658720be5e099e99a2ed53e -->
<g id="node6" class="node"><title>dir_b9edb1efd658720be5e099e99a2ed53e</title>
<g id="a_node6"><a xlink:href="dir_b9edb1efd658720be5e099e99a2ed53e.xhtml" target="_top" xlink:title="fft">
<polygon fill="white" stroke="red" points="73.5931,-252 19.5931,-252 19.5931,-216 73.5931,-216 73.5931,-252"/>
<text text-anchor="middle" x="46.5931" y="-231.5" font-family="Helvetica,sans-Serif" font-size="10.00">fft</text>
</a>
</g>
</g>
<!-- dir_014a9b7944bd224a57074a436acb6ed9&#45;&gt;dir_b9edb1efd658720be5e099e99a2ed53e -->
<g id="edge5" class="edge"><title>dir_014a9b7944bd224a57074a436acb6ed9&#45;&gt;dir_b9edb1efd658720be5e099e99a2ed53e</title>
<path fill="none" stroke="black" d="M129.684,-287.876C115.435,-278.808 97.7467,-267.552 82.3575,-257.759"/>
<polygon fill="black" stroke="black" points="83.9213,-254.606 73.6055,-252.19 80.1631,-260.511 83.9213,-254.606"/>
<g id="a_edge5&#45;headlabel"><a xlink:href="dir_000017_000025.xhtml" target="_top" xlink:title="4">
<text text-anchor="middle" x="88.4782" y="-251.64" font-family="Helvetica,sans-Serif" font-size="10.00">4</text>
</a>
</g>
</g>
<!-- dir_8421296c7609edc59eb72e40bf8e93a8 -->
<g id="node7" class="node"><title>dir_8421296c7609edc59eb72e40bf8e93a8</title>
<g id="a_node7"><a xlink:href="dir_8421296c7609edc59eb72e40bf8e93a8.xhtml" target="_top" xlink:title="commandline">
<polygon fill="white" stroke="red" points="164.593,-108 90.5931,-108 90.5931,-72 164.593,-72 164.593,-108"/>
<text text-anchor="middle" x="127.593" y="-87.5" font-family="Helvetica,sans-Serif" font-size="10.00">commandline</text>
</a>
</g>
</g>
<!-- dir_014a9b7944bd224a57074a436acb6ed9&#45;&gt;dir_8421296c7609edc59eb72e40bf8e93a8 -->
<g id="edge6" class="edge"><title>dir_014a9b7944bd224a57074a436acb6ed9&#45;&gt;dir_8421296c7609edc59eb72e40bf8e93a8</title>
<path fill="none" stroke="black" d="M172.203,-287.774C179.966,-278.03 188.539,-265.184 192.593,-252 197.296,-236.707 196.393,-231.542 192.593,-216 183.58,-179.13 161.611,-141.03 145.704,-116.738"/>
<polygon fill="black" stroke="black" points="148.416,-114.497 139.944,-108.135 142.6,-118.392 148.416,-114.497"/>
<g id="a_edge6&#45;headlabel"><a xlink:href="dir_000017_000013.xhtml" target="_top" xlink:title="1">
<text text-anchor="middle" x="152.775" y="-113.404" font-family="Helvetica,sans-Serif" font-size="10.00">1</text>
</a>
</g>
</g>
<!-- dir_1acc66fa1664e6e9da9efb0264f5fd87 -->
<g id="node2" class="node"><title>dir_1acc66fa1664e6e9da9efb0264f5fd87</title>
<g id="a_node2"><a xlink:href="dir_1acc66fa1664e6e9da9efb0264f5fd87.xhtml" target="_top" xlink:title="tests">
<polygon fill="white" stroke="black" points="87.5931,-324 33.5931,-324 33.5931,-288 87.5931,-288 87.5931,-324"/>
<text text-anchor="middle" x="60.5931" y="-303.5" font-family="Helvetica,sans-Serif" font-size="10.00">tests</text>
</a>
</g>
</g>
<!-- dir_d2bee95dce64d4fd80a3640d91ab4935 -->
<g id="node4" class="node"><title>dir_d2bee95dce64d4fd80a3640d91ab4935</title>
<g id="a_node4"><a xlink:href="dir_d2bee95dce64d4fd80a3640d91ab4935.xhtml" target="_top" xlink:title="testutils">
<polygon fill="white" stroke="red" points="128.593,-180 74.5931,-180 74.5931,-144 128.593,-144 128.593,-180"/>
<text text-anchor="middle" x="101.593" y="-159.5" font-family="Helvetica,sans-Serif" font-size="10.00">testutils</text>
</a>
</g>
</g>
<!-- dir_1acc66fa1664e6e9da9efb0264f5fd87&#45;&gt;dir_d2bee95dce64d4fd80a3640d91ab4935 -->
<g id="edge10" class="edge"><title>dir_1acc66fa1664e6e9da9efb0264f5fd87&#45;&gt;dir_d2bee95dce64d4fd80a3640d91ab4935</title>
<path fill="none" stroke="black" d="M68.7494,-287.632C73.3016,-277.425 78.8016,-264.175 82.5931,-252 88.9249,-231.667 93.8563,-208.073 97.1067,-190.288"/>
<polygon fill="black" stroke="black" points="100.578,-190.758 98.8673,-180.302 93.6841,-189.542 100.578,-190.758"/>
<g id="a_edge10&#45;headlabel"><a xlink:href="dir_000018_000090.xhtml" target="_top" xlink:title="9">
<text text-anchor="middle" x="102.75" y="-192.291" font-family="Helvetica,sans-Serif" font-size="10.00">9</text>
</a>
</g>
</g>
<!-- dir_1acc66fa1664e6e9da9efb0264f5fd87&#45;&gt;dir_a64a619a73689309b11b91ae52c63e36 -->
<g id="edge11" class="edge"><title>dir_1acc66fa1664e6e9da9efb0264f5fd87&#45;&gt;dir_a64a619a73689309b11b91ae52c63e36</title>
<path fill="none" stroke="black" d="M37.9974,-287.963C27.5339,-278.635 16.1973,-266.107 10.5931,-252 -17.7856,-180.564 18.1773,-89.2685 39.6705,-45.1697"/>
<polygon fill="black" stroke="black" points="42.913,-46.5112 44.2647,-36.0029 36.655,-43.3748 42.913,-46.5112"/>
<g id="a_edge11&#45;headlabel"><a xlink:href="dir_000018_000087.xhtml" target="_top" xlink:title="7">
<text text-anchor="middle" x="43.8408" y="-48.497" font-family="Helvetica,sans-Serif" font-size="10.00">7</text>
</a>
</g>
</g>
<!-- dir_1acc66fa1664e6e9da9efb0264f5fd87&#45;&gt;dir_b9edb1efd658720be5e099e99a2ed53e -->
<g id="edge12" class="edge"><title>dir_1acc66fa1664e6e9da9efb0264f5fd87&#45;&gt;dir_b9edb1efd658720be5e099e99a2ed53e</title>
<path fill="none" stroke="black" d="M57.1324,-287.697C55.5896,-279.983 53.7356,-270.712 52.0156,-262.112"/>
<polygon fill="black" stroke="black" points="55.4072,-261.224 50.0139,-252.104 48.5432,-262.597 55.4072,-261.224"/>
<g id="a_edge12&#45;headlabel"><a xlink:href="dir_000018_000025.xhtml" target="_top" xlink:title="1">
<text text-anchor="middle" x="58.8962" y="-261.692" font-family="Helvetica,sans-Serif" font-size="10.00">1</text>
</a>
</g>
</g>
<!-- dir_069a72e2096440213f56c93a40bc8b09&#45;&gt;dir_d2bee95dce64d4fd80a3640d91ab4935 -->
<g id="edge1" class="edge"><title>dir_069a72e2096440213f56c93a40bc8b09&#45;&gt;dir_d2bee95dce64d4fd80a3640d91ab4935</title>
<path fill="none" stroke="black" d="M142.998,-215.697C136.47,-207.389 128.525,-197.277 121.346,-188.141"/>
<polygon fill="black" stroke="black" points="123.963,-185.805 115.032,-180.104 118.458,-190.13 123.963,-185.805"/>
<g id="a_edge1&#45;headlabel"><a xlink:href="dir_000047_000090.xhtml" target="_top" xlink:title="3">
<text text-anchor="middle" x="128.416" y="-184.377" font-family="Helvetica,sans-Serif" font-size="10.00">3</text>
</a>
</g>
</g>
<!-- dir_069a72e2096440213f56c93a40bc8b09&#45;&gt;dir_a64a619a73689309b11b91ae52c63e36 -->
<g id="edge2" class="edge"><title>dir_069a72e2096440213f56c93a40bc8b09&#45;&gt;dir_a64a619a73689309b11b91ae52c63e36</title>
<path fill="none" stroke="black" d="M164.992,-215.832C179.012,-184.463 202.898,-116.98 173.593,-72 155.379,-44.0432 118.709,-30.7268 90.6745,-24.4501"/>
<polygon fill="black" stroke="black" points="91.2832,-21.0023 80.7866,-22.442 89.8899,-27.8623 91.2832,-21.0023"/>
<g id="a_edge2&#45;headlabel"><a xlink:href="dir_000047_000087.xhtml" target="_top" xlink:title="25">
<text text-anchor="middle" x="95.3709" y="-16.4352" font-family="Helvetica,sans-Serif" font-size="10.00">25</text>
</a>
</g>
</g>
<!-- dir_d2bee95dce64d4fd80a3640d91ab4935&#45;&gt;dir_a64a619a73689309b11b91ae52c63e36 -->
<g id="edge7" class="edge"><title>dir_d2bee95dce64d4fd80a3640d91ab4935&#45;&gt;dir_a64a619a73689309b11b91ae52c63e36</title>
<path fill="none" stroke="black" d="M87.0416,-143.903C81.8623,-133.562 76.7701,-120.084 72.5931,-108 65.4935,-87.4618 58.1454,-64.0079 54.0543,-46.3345"/>
<polygon fill="black" stroke="black" points="57.4033,-45.2442 51.9592,-36.1551 50.547,-46.6554 57.4033,-45.2442"/>
<g id="a_edge7&#45;headlabel"><a xlink:href="dir_000090_000087.xhtml" target="_top" xlink:title="80">
<text text-anchor="middle" x="60.9089" y="-45.6927" font-family="Helvetica,sans-Serif" font-size="10.00">80</text>
</a>
</g>
</g>
<!-- dir_d2bee95dce64d4fd80a3640d91ab4935&#45;&gt;dir_8421296c7609edc59eb72e40bf8e93a8 -->
<g id="edge8" class="edge"><title>dir_d2bee95dce64d4fd80a3640d91ab4935&#45;&gt;dir_8421296c7609edc59eb72e40bf8e93a8</title>
<path fill="none" stroke="black" d="M102.104,-143.697C104.242,-135.728 107.604,-126.1 111.278,-117.264"/>
<polygon fill="black" stroke="black" points="114.486,-118.664 115.345,-108.104 108.088,-115.824 114.486,-118.664"/>
<g id="a_edge8&#45;headlabel"><a xlink:href="dir_000090_000013.xhtml" target="_top" xlink:title="8">
<text text-anchor="middle" x="115.623" y="-120.602" font-family="Helvetica,sans-Serif" font-size="10.00">8</text>
</a>
</g>
</g>
<!-- dir_a64a619a73689309b11b91ae52c63e36&#45;&gt;dir_d2bee95dce64d4fd80a3640d91ab4935 -->
<g id="edge9" class="edge"><title>dir_a64a619a73689309b11b91ae52c63e36&#45;&gt;dir_d2bee95dce64d4fd80a3640d91ab4935</title>
<path fill="none" stroke="black" d="M65.3978,-36.1551C73.0846,-54.1467 82.02,-83.1992 90.5931,-108 93.5627,-116.591 96.9949,-125.886 99.745,-134.258"/>
<polygon fill="black" stroke="black" points="96.421,-135.358 102.685,-143.903 103.117,-133.317 96.421,-135.358"/>
<g id="a_edge9&#45;headlabel"><a xlink:href="dir_000087_000090.xhtml" target="_top" xlink:title="10">
<text text-anchor="middle" x="92.6572" y="-130.247" font-family="Helvetica,sans-Serif" font-size="10.00">10</text>
</a>
</g>
</g>
<!-- dir_b9edb1efd658720be5e099e99a2ed53e&#45;&gt;dir_d2bee95dce64d4fd80a3640d91ab4935 -->
<g id="edge13" class="edge"><title>dir_b9edb1efd658720be5e099e99a2ed53e&#45;&gt;dir_d2bee95dce64d4fd80a3640d91ab4935</title>
<path fill="none" stroke="black" d="M60.1886,-215.697C66.7157,-207.389 74.6611,-197.277 81.8397,-188.141"/>
<polygon fill="black" stroke="black" points="84.7278,-190.13 88.154,-180.104 79.2236,-185.805 84.7278,-190.13"/>
<g id="a_edge13&#45;headlabel"><a xlink:href="dir_000025_000090.xhtml" target="_top" xlink:title="2">
<text text-anchor="middle" x="84.7396" y="-192.211" font-family="Helvetica,sans-Serif" font-size="10.00">2</text>
</a>
</g>
</g>
<!-- dir_b9edb1efd658720be5e099e99a2ed53e&#45;&gt;dir_a64a619a73689309b11b91ae52c63e36 -->
<g id="edge14" class="edge"><title>dir_b9edb1efd658720be5e099e99a2ed53e&#45;&gt;dir_a64a619a73689309b11b91ae52c63e36</title>
<path fill="none" stroke="black" d="M47.1541,-215.849C48.3649,-178.832 51.232,-91.1809 52.6973,-46.3863"/>
<polygon fill="black" stroke="black" points="56.2005,-46.3416 53.0294,-36.2325 49.2043,-46.1126 56.2005,-46.3416"/>
<g id="a_edge14&#45;headlabel"><a xlink:href="dir_000025_000087.xhtml" target="_top" xlink:title="24">
<text text-anchor="middle" x="58.9208" y="-47.527" font-family="Helvetica,sans-Serif" font-size="10.00">24</text>
</a>
</g>
</g>
<!-- dir_8421296c7609edc59eb72e40bf8e93a8&#45;&gt;dir_d2bee95dce64d4fd80a3640d91ab4935 -->
<g id="edge15" class="edge"><title>dir_8421296c7609edc59eb72e40bf8e93a8&#45;&gt;dir_d2bee95dce64d4fd80a3640d91ab4935</title>
<path fill="none" stroke="black" d="M127.135,-108.104C125.018,-116.045 121.669,-125.666 118,-134.515"/>
<polygon fill="black" stroke="black" points="114.783,-133.136 113.936,-143.697 121.184,-135.969 114.783,-133.136"/>
<g id="a_edge15&#45;headlabel"><a xlink:href="dir_000013_000090.xhtml" target="_top" xlink:title="14">
<text text-anchor="middle" x="113.641" y="-126.2" font-family="Helvetica,sans-Serif" font-size="10.00">14</text>
</a>
</g>
</g>
<!-- dir_8421296c7609edc59eb72e40bf8e93a8&#45;&gt;dir_a64a619a73689309b11b91ae52c63e36 -->
<g id="edge16" class="edge"><title>dir_8421296c7609edc59eb72e40bf8e93a8&#45;&gt;dir_a64a619a73689309b11b91ae52c63e36</title>
<path fill="none" stroke="black" d="M109.301,-71.6966C100.161,-63.0503 88.953,-52.4486 78.9931,-43.027"/>
<polygon fill="black" stroke="black" points="81.3447,-40.4337 71.6748,-36.1043 76.5343,-45.519 81.3447,-40.4337"/>
<g id="a_edge16&#45;headlabel"><a xlink:href="dir_000013_000087.xhtml" target="_top" xlink:title="93">
<text text-anchor="middle" x="85.9072" y="-38.3413" font-family="Helvetica,sans-Serif" font-size="10.00">93</text>
</a>
</g>
</g>
</g>
</svg>
