<?xml version="1.0" encoding="UTF-8" standalone="no"?>
<!DOCTYPE svg PUBLIC "-//W3C//DTD SVG 1.1//EN"
 "http://www.w3.org/Graphics/SVG/1.1/DTD/svg11.dtd">
<!-- Generated by graphviz version 2.38.0 (20140413.2041)
 -->
<!-- Title: src/gromacs/trajectoryanalysis/tests Pages: 1 -->
<svg width="462pt" height="583pt"
 viewBox="0.00 0.00 462.00 583.00" xmlns="http://www.w3.org/2000/svg" xmlns:xlink="http://www.w3.org/1999/xlink">
<g id="graph0" class="graph" transform="scale(1 1) rotate(0) translate(4 579)">
<title>src/gromacs/trajectoryanalysis/tests</title>
<polygon fill="white" stroke="none" points="-4,4 -4,-579 458,-579 458,4 -4,4"/>
<g id="clust1" class="cluster"><title>clusterdir_348b1a6307467bf9dcc6bb6666e72be4</title>
<g id="a_clust1"><a xlink:href="dir_348b1a6307467bf9dcc6bb6666e72be4.xhtml" target="_top" xlink:title="trajectoryanalysis">
<polygon fill="#ddddee" stroke="black" points="226,-496 226,-567 319,-567 319,-496 226,-496"/>
<text text-anchor="middle" x="272.5" y="-555" font-family="Helvetica,sans-Serif" font-size="10.00">trajectoryanalysis</text>
</a>
</g>
</g>
<!-- dir_01b41464da2165fc025336bf5adb4e86 -->
<g id="node1" class="node"><title>dir_01b41464da2165fc025336bf5adb4e86</title>
<g id="a_node1"><a xlink:href="dir_01b41464da2165fc025336bf5adb4e86.xhtml" target="_top" xlink:title="tests">
<polygon fill="#eeeeff" stroke="black" points="299,-540 245,-540 245,-504 299,-504 299,-540"/>
<text text-anchor="middle" x="272" y="-519.5" font-family="Helvetica,sans-Serif" font-size="10.00">tests</text>
</a>
</g>
</g>
<!-- dir_cf5eb0d6d3ae5860ebe15627a7d6d0f6 -->
<g id="node2" class="node"><title>dir_cf5eb0d6d3ae5860ebe15627a7d6d0f6</title>
<g id="a_node2"><a xlink:href="dir_cf5eb0d6d3ae5860ebe15627a7d6d0f6.xhtml" target="_top" xlink:title="modules">
<polygon fill="none" stroke="black" points="178,-468 124,-468 124,-432 178,-432 178,-468"/>
<text text-anchor="middle" x="151" y="-447.5" font-family="Helvetica,sans-Serif" font-size="10.00">modules</text>
</a>
</g>
</g>
<!-- dir_01b41464da2165fc025336bf5adb4e86&#45;&gt;dir_cf5eb0d6d3ae5860ebe15627a7d6d0f6 -->
<g id="edge10" class="edge"><title>dir_01b41464da2165fc025336bf5adb4e86&#45;&gt;dir_cf5eb0d6d3ae5860ebe15627a7d6d0f6</title>
<path fill="none" stroke="black" d="M244.845,-505.291C227.72,-495.383 205.411,-482.477 186.841,-471.734"/>
<polygon fill="black" stroke="black" points="188.473,-468.635 178.064,-466.657 184.967,-474.694 188.473,-468.635"/>
<g id="a_edge10&#45;headlabel"><a xlink:href="dir_000085_000086.xhtml" target="_top" xlink:title="1">
<text text-anchor="middle" x="193.006" y="-465.477" font-family="Helvetica,sans-Serif" font-size="10.00">1</text>
</a>
</g>
</g>
<!-- dir_7368f1a5a3cf04a409e4d90d99595fa7 -->
<g id="node3" class="node"><title>dir_7368f1a5a3cf04a409e4d90d99595fa7</title>
<g id="a_node3"><a xlink:href="dir_7368f1a5a3cf04a409e4d90d99595fa7.xhtml" target="_top" xlink:title="options">
<polygon fill="white" stroke="red" points="252,-252 198,-252 198,-216 252,-216 252,-252"/>
<text text-anchor="middle" x="225" y="-231.5" font-family="Helvetica,sans-Serif" font-size="10.00">options</text>
</a>
</g>
</g>
<!-- dir_01b41464da2165fc025336bf5adb4e86&#45;&gt;dir_7368f1a5a3cf04a409e4d90d99595fa7 -->
<g id="edge11" class="edge"><title>dir_01b41464da2165fc025336bf5adb4e86&#45;&gt;dir_7368f1a5a3cf04a409e4d90d99595fa7</title>
<path fill="none" stroke="black" d="M275.262,-503.864C280.328,-474.204 288.473,-411.532 278,-360 270.706,-324.11 252.742,-285.739 239.747,-261.12"/>
<polygon fill="black" stroke="black" points="242.7,-259.221 234.872,-252.081 236.539,-262.544 242.7,-259.221"/>
<g id="a_edge11&#45;headlabel"><a xlink:href="dir_000085_000061.xhtml" target="_top" xlink:title="4">
<text text-anchor="middle" x="246.905" y="-258.537" font-family="Helvetica,sans-Serif" font-size="10.00">4</text>
</a>
</g>
</g>
<!-- dir_7cacf6b47314a2b927cacd0502911e15 -->
<g id="node4" class="node"><title>dir_7cacf6b47314a2b927cacd0502911e15</title>
<g id="a_node4"><a xlink:href="dir_7cacf6b47314a2b927cacd0502911e15.xhtml" target="_top" xlink:title="random">
<polygon fill="white" stroke="red" points="104,-252 50,-252 50,-216 104,-216 104,-252"/>
<text text-anchor="middle" x="77" y="-231.5" font-family="Helvetica,sans-Serif" font-size="10.00">random</text>
</a>
</g>
</g>
<!-- dir_01b41464da2165fc025336bf5adb4e86&#45;&gt;dir_7cacf6b47314a2b927cacd0502911e15 -->
<g id="edge12" class="edge"><title>dir_01b41464da2165fc025336bf5adb4e86&#45;&gt;dir_7cacf6b47314a2b927cacd0502911e15</title>
<path fill="none" stroke="black" d="M244.985,-521.366C205.888,-520.29 134.258,-511.98 98,-468 48.9999,-408.565 61.0769,-309.312 70.6274,-261.86"/>
<polygon fill="black" stroke="black" points="74.0627,-262.532 72.7235,-252.022 67.2164,-261.073 74.0627,-262.532"/>
<g id="a_edge12&#45;headlabel"><a xlink:href="dir_000085_000066.xhtml" target="_top" xlink:title="2">
<text text-anchor="middle" x="76.0907" y="-264.139" font-family="Helvetica,sans-Serif" font-size="10.00">2</text>
</a>
</g>
</g>
<!-- dir_d2bee95dce64d4fd80a3640d91ab4935 -->
<g id="node5" class="node"><title>dir_d2bee95dce64d4fd80a3640d91ab4935</title>
<g id="a_node5"><a xlink:href="dir_d2bee95dce64d4fd80a3640d91ab4935.xhtml" target="_top" xlink:title="testutils">
<polygon fill="white" stroke="red" points="252,-180 198,-180 198,-144 252,-144 252,-180"/>
<text text-anchor="middle" x="225" y="-159.5" font-family="Helvetica,sans-Serif" font-size="10.00">testutils</text>
</a>
</g>
</g>
<!-- dir_01b41464da2165fc025336bf5adb4e86&#45;&gt;dir_d2bee95dce64d4fd80a3640d91ab4935 -->
<g id="edge13" class="edge"><title>dir_01b41464da2165fc025336bf5adb4e86&#45;&gt;dir_d2bee95dce64d4fd80a3640d91ab4935</title>
<path fill="none" stroke="black" d="M296.585,-503.928C327.898,-479.958 378,-433.145 378,-379 378,-379 378,-379 378,-305 378,-241.563 306.463,-198.487 261.221,-177.587"/>
<polygon fill="black" stroke="black" points="262.559,-174.351 252.001,-173.465 259.701,-180.742 262.559,-174.351"/>
<g id="a_edge13&#45;headlabel"><a xlink:href="dir_000085_000090.xhtml" target="_top" xlink:title="30">
<text text-anchor="middle" x="266.999" y="-170.727" font-family="Helvetica,sans-Serif" font-size="10.00">30</text>
</a>
</g>
</g>
<!-- dir_3065e2635695cb7dc351f585e5b100ac -->
<g id="node6" class="node"><title>dir_3065e2635695cb7dc351f585e5b100ac</title>
<g id="a_node6"><a xlink:href="dir_3065e2635695cb7dc351f585e5b100ac.xhtml" target="_top" xlink:title="analysisdata">
<polygon fill="white" stroke="red" points="269.5,-396 198.5,-396 198.5,-360 269.5,-360 269.5,-396"/>
<text text-anchor="middle" x="234" y="-375.5" font-family="Helvetica,sans-Serif" font-size="10.00">analysisdata</text>
</a>
</g>
</g>
<!-- dir_01b41464da2165fc025336bf5adb4e86&#45;&gt;dir_3065e2635695cb7dc351f585e5b100ac -->
<g id="edge14" class="edge"><title>dir_01b41464da2165fc025336bf5adb4e86&#45;&gt;dir_3065e2635695cb7dc351f585e5b100ac</title>
<path fill="none" stroke="black" d="M267.416,-503.871C260.911,-479.564 248.937,-434.819 241.229,-406.013"/>
<polygon fill="black" stroke="black" points="244.566,-404.945 238.6,-396.189 237.804,-406.754 244.566,-404.945"/>
<g id="a_edge14&#45;headlabel"><a xlink:href="dir_000085_000006.xhtml" target="_top" xlink:title="1">
<text text-anchor="middle" x="248.238" y="-405.183" font-family="Helvetica,sans-Serif" font-size="10.00">1</text>
</a>
</g>
</g>
<!-- dir_e7e88b26b6f22ac834fce3ecdbf03d20 -->
<g id="node7" class="node"><title>dir_e7e88b26b6f22ac834fce3ecdbf03d20</title>
<g id="a_node7"><a xlink:href="dir_e7e88b26b6f22ac834fce3ecdbf03d20.xhtml" target="_top" xlink:title="selection">
<polygon fill="white" stroke="red" points="160,-324 104,-324 104,-288 160,-288 160,-324"/>
<text text-anchor="middle" x="132" y="-303.5" font-family="Helvetica,sans-Serif" font-size="10.00">selection</text>
</a>
</g>
</g>
<!-- dir_01b41464da2165fc025336bf5adb4e86&#45;&gt;dir_e7e88b26b6f22ac834fce3ecdbf03d20 -->
<g id="edge15" class="edge"><title>dir_01b41464da2165fc025336bf5adb4e86&#45;&gt;dir_e7e88b26b6f22ac834fce3ecdbf03d20</title>
<path fill="none" stroke="black" d="M244.858,-520.791C208.38,-518.866 144.694,-509.365 115,-468 86.4317,-428.204 104.644,-367.967 119.18,-333.57"/>
<polygon fill="black" stroke="black" points="122.487,-334.745 123.329,-324.184 116.085,-331.916 122.487,-334.745"/>
<g id="a_edge15&#45;headlabel"><a xlink:href="dir_000085_000068.xhtml" target="_top" xlink:title="2">
<text text-anchor="middle" x="123.631" y="-336.681" font-family="Helvetica,sans-Serif" font-size="10.00">2</text>
</a>
</g>
</g>
<!-- dir_a64a619a73689309b11b91ae52c63e36 -->
<g id="node8" class="node"><title>dir_a64a619a73689309b11b91ae52c63e36</title>
<g id="a_node8"><a xlink:href="dir_a64a619a73689309b11b91ae52c63e36.xhtml" target="_top" xlink:title="utility">
<polygon fill="white" stroke="red" points="244,-36 190,-36 190,-0 244,-0 244,-36"/>
<text text-anchor="middle" x="217" y="-15.5" font-family="Helvetica,sans-Serif" font-size="10.00">utility</text>
</a>
</g>
</g>
<!-- dir_01b41464da2165fc025336bf5adb4e86&#45;&gt;dir_a64a619a73689309b11b91ae52c63e36 -->
<g id="edge16" class="edge"><title>dir_01b41464da2165fc025336bf5adb4e86&#45;&gt;dir_a64a619a73689309b11b91ae52c63e36</title>
<path fill="none" stroke="black" d="M299.247,-513.608C350.019,-497.993 454,-456.548 454,-379 454,-379 454,-379 454,-161 454,-69.0289 321.045,-35.1686 254.3,-23.9648"/>
<polygon fill="black" stroke="black" points="254.613,-20.4706 244.187,-22.3558 253.513,-27.3836 254.613,-20.4706"/>
<g id="a_edge16&#45;headlabel"><a xlink:href="dir_000085_000087.xhtml" target="_top" xlink:title="7">
<text text-anchor="middle" x="258.609" y="-15.7313" font-family="Helvetica,sans-Serif" font-size="10.00">7</text>
</a>
</g>
</g>
<!-- dir_8421296c7609edc59eb72e40bf8e93a8 -->
<g id="node9" class="node"><title>dir_8421296c7609edc59eb72e40bf8e93a8</title>
<g id="a_node9"><a xlink:href="dir_8421296c7609edc59eb72e40bf8e93a8.xhtml" target="_top" xlink:title="commandline">
<polygon fill="white" stroke="red" points="328,-108 254,-108 254,-72 328,-72 328,-108"/>
<text text-anchor="middle" x="291" y="-87.5" font-family="Helvetica,sans-Serif" font-size="10.00">commandline</text>
</a>
</g>
</g>
<!-- dir_01b41464da2165fc025336bf5adb4e86&#45;&gt;dir_8421296c7609edc59eb72e40bf8e93a8 -->
<g id="edge17" class="edge"><title>dir_01b41464da2165fc025336bf5adb4e86&#45;&gt;dir_8421296c7609edc59eb72e40bf8e93a8</title>
<path fill="none" stroke="black" d="M299.085,-509.28C340.799,-489.187 416,-443.955 416,-379 416,-379 416,-379 416,-305 416,-227.272 353.755,-152.68 317.113,-115.503"/>
<polygon fill="black" stroke="black" points="319.274,-112.717 309.714,-108.151 314.34,-117.682 319.274,-112.717"/>
<g id="a_edge17&#45;headlabel"><a xlink:href="dir_000085_000013.xhtml" target="_top" xlink:title="3">
<text text-anchor="middle" x="323.825" y="-110.737" font-family="Helvetica,sans-Serif" font-size="10.00">3</text>
</a>
</g>
</g>
<!-- dir_cf5eb0d6d3ae5860ebe15627a7d6d0f6&#45;&gt;dir_7368f1a5a3cf04a409e4d90d99595fa7 -->
<g id="edge1" class="edge"><title>dir_cf5eb0d6d3ae5860ebe15627a7d6d0f6&#45;&gt;dir_7368f1a5a3cf04a409e4d90d99595fa7</title>
<path fill="none" stroke="black" d="M156.931,-431.849C169.785,-394.675 200.297,-306.439 215.726,-261.82"/>
<polygon fill="black" stroke="black" points="219.081,-262.827 219.041,-252.232 212.465,-260.54 219.081,-262.827"/>
<g id="a_edge1&#45;headlabel"><a xlink:href="dir_000086_000061.xhtml" target="_top" xlink:title="24">
<text text-anchor="middle" x="220.589" y="-264.652" font-family="Helvetica,sans-Serif" font-size="10.00">24</text>
</a>
</g>
</g>
<!-- dir_cf5eb0d6d3ae5860ebe15627a7d6d0f6&#45;&gt;dir_7cacf6b47314a2b927cacd0502911e15 -->
<g id="edge2" class="edge"><title>dir_cf5eb0d6d3ae5860ebe15627a7d6d0f6&#45;&gt;dir_7cacf6b47314a2b927cacd0502911e15</title>
<path fill="none" stroke="black" d="M141.757,-431.684C129.458,-407.99 107.782,-363.852 95,-324 88.4704,-303.642 83.8073,-279.876 80.8657,-262.026"/>
<polygon fill="black" stroke="black" points="84.3028,-261.351 79.2935,-252.016 77.3876,-262.438 84.3028,-261.351"/>
<g id="a_edge2&#45;headlabel"><a xlink:href="dir_000086_000066.xhtml" target="_top" xlink:title="2">
<text text-anchor="middle" x="87.6654" y="-261.962" font-family="Helvetica,sans-Serif" font-size="10.00">2</text>
</a>
</g>
</g>
<!-- dir_cf5eb0d6d3ae5860ebe15627a7d6d0f6&#45;&gt;dir_3065e2635695cb7dc351f585e5b100ac -->
<g id="edge3" class="edge"><title>dir_cf5eb0d6d3ae5860ebe15627a7d6d0f6&#45;&gt;dir_3065e2635695cb7dc351f585e5b100ac</title>
<path fill="none" stroke="black" d="M171.517,-431.697C181.869,-422.965 194.586,-412.24 205.839,-402.75"/>
<polygon fill="black" stroke="black" points="208.331,-405.227 213.719,-396.104 203.818,-399.876 208.331,-405.227"/>
<g id="a_edge3&#45;headlabel"><a xlink:href="dir_000086_000006.xhtml" target="_top" xlink:title="28">
<text text-anchor="middle" x="207.414" y="-407.215" font-family="Helvetica,sans-Serif" font-size="10.00">28</text>
</a>
</g>
</g>
<!-- dir_cf5eb0d6d3ae5860ebe15627a7d6d0f6&#45;&gt;dir_e7e88b26b6f22ac834fce3ecdbf03d20 -->
<g id="edge4" class="edge"><title>dir_cf5eb0d6d3ae5860ebe15627a7d6d0f6&#45;&gt;dir_e7e88b26b6f22ac834fce3ecdbf03d20</title>
<path fill="none" stroke="black" d="M148.708,-431.871C145.47,-407.67 139.521,-363.211 135.665,-334.393"/>
<polygon fill="black" stroke="black" points="139.095,-333.637 134.3,-324.189 132.157,-334.565 139.095,-333.637"/>
<g id="a_edge4&#45;headlabel"><a xlink:href="dir_000086_000068.xhtml" target="_top" xlink:title="20">
<text text-anchor="middle" x="142.386" y="-334.323" font-family="Helvetica,sans-Serif" font-size="10.00">20</text>
</a>
</g>
</g>
<!-- dir_cf5eb0d6d3ae5860ebe15627a7d6d0f6&#45;&gt;dir_a64a619a73689309b11b91ae52c63e36 -->
<g id="edge5" class="edge"><title>dir_cf5eb0d6d3ae5860ebe15627a7d6d0f6&#45;&gt;dir_a64a619a73689309b11b91ae52c63e36</title>
<path fill="none" stroke="black" d="M127.406,-431.932C84.9375,-399.027 0,-322.303 0,-235 0,-235 0,-235 0,-161 0,-76.0914 117.765,-39.2207 179.785,-25.6905"/>
<polygon fill="black" stroke="black" points="180.88,-29.0377 189.956,-23.5718 179.452,-22.1848 180.88,-29.0377"/>
<g id="a_edge5&#45;headlabel"><a xlink:href="dir_000086_000087.xhtml" target="_top" xlink:title="35">
<text text-anchor="middle" x="177.939" y="-30.0503" font-family="Helvetica,sans-Serif" font-size="10.00">35</text>
</a>
</g>
</g>
<!-- dir_7368f1a5a3cf04a409e4d90d99595fa7&#45;&gt;dir_d2bee95dce64d4fd80a3640d91ab4935 -->
<g id="edge6" class="edge"><title>dir_7368f1a5a3cf04a409e4d90d99595fa7&#45;&gt;dir_d2bee95dce64d4fd80a3640d91ab4935</title>
<path fill="none" stroke="black" d="M219.084,-215.697C218.289,-207.983 218.062,-198.712 218.405,-190.112"/>
<polygon fill="black" stroke="black" points="221.898,-190.324 219.105,-180.104 214.915,-189.836 221.898,-190.324"/>
<g id="a_edge6&#45;headlabel"><a xlink:href="dir_000061_000090.xhtml" target="_top" xlink:title="11">
<text text-anchor="middle" x="224.48" y="-191.608" font-family="Helvetica,sans-Serif" font-size="10.00">11</text>
</a>
</g>
</g>
<!-- dir_7368f1a5a3cf04a409e4d90d99595fa7&#45;&gt;dir_a64a619a73689309b11b91ae52c63e36 -->
<g id="edge7" class="edge"><title>dir_7368f1a5a3cf04a409e4d90d99595fa7&#45;&gt;dir_a64a619a73689309b11b91ae52c63e36</title>
<path fill="none" stroke="black" d="M209.39,-215.774C201.627,-206.03 193.054,-193.184 189,-180 174.793,-133.798 191.898,-77.7823 204.93,-45.4794"/>
<polygon fill="black" stroke="black" points="208.16,-46.828 208.804,-36.2528 201.706,-44.1178 208.16,-46.828"/>
<g id="a_edge7&#45;headlabel"><a xlink:href="dir_000061_000087.xhtml" target="_top" xlink:title="74">
<text text-anchor="middle" x="209.386" y="-48.7416" font-family="Helvetica,sans-Serif" font-size="10.00">74</text>
</a>
</g>
</g>
<!-- dir_7cacf6b47314a2b927cacd0502911e15&#45;&gt;dir_d2bee95dce64d4fd80a3640d91ab4935 -->
<g id="edge8" class="edge"><title>dir_7cacf6b47314a2b927cacd0502911e15&#45;&gt;dir_d2bee95dce64d4fd80a3640d91ab4935</title>
<path fill="none" stroke="black" d="M104.145,-220.161C127.854,-208.947 162.464,-192.578 188.576,-180.227"/>
<polygon fill="black" stroke="black" points="190.233,-183.316 197.776,-175.876 187.24,-176.988 190.233,-183.316"/>
<g id="a_edge8&#45;headlabel"><a xlink:href="dir_000066_000090.xhtml" target="_top" xlink:title="14">
<text text-anchor="middle" x="188.197" y="-184.919" font-family="Helvetica,sans-Serif" font-size="10.00">14</text>
</a>
</g>
</g>
<!-- dir_7cacf6b47314a2b927cacd0502911e15&#45;&gt;dir_a64a619a73689309b11b91ae52c63e36 -->
<g id="edge9" class="edge"><title>dir_7cacf6b47314a2b927cacd0502911e15&#45;&gt;dir_a64a619a73689309b11b91ae52c63e36</title>
<path fill="none" stroke="black" d="M77.0114,-215.771C77.8977,-184.006 83.9464,-115.489 118,-72 133.739,-51.9004 159.279,-38.4961 180.475,-30.1966"/>
<polygon fill="black" stroke="black" points="181.686,-33.4804 189.858,-26.7368 179.264,-26.9127 181.686,-33.4804"/>
<g id="a_edge9&#45;headlabel"><a xlink:href="dir_000066_000087.xhtml" target="_top" xlink:title="19">
<text text-anchor="middle" x="179.296" y="-34.888" font-family="Helvetica,sans-Serif" font-size="10.00">19</text>
</a>
</g>
</g>
<!-- dir_d2bee95dce64d4fd80a3640d91ab4935&#45;&gt;dir_7368f1a5a3cf04a409e4d90d99595fa7 -->
<g id="edge18" class="edge"><title>dir_d2bee95dce64d4fd80a3640d91ab4935&#45;&gt;dir_7368f1a5a3cf04a409e4d90d99595fa7</title>
<path fill="none" stroke="black" d="M230.895,-180.104C231.701,-187.791 231.937,-197.054 231.604,-205.665"/>
<polygon fill="black" stroke="black" points="228.109,-205.48 230.916,-215.697 235.092,-205.96 228.109,-205.48"/>
<g id="a_edge18&#45;headlabel"><a xlink:href="dir_000090_000061.xhtml" target="_top" xlink:title="12">
<text text-anchor="middle" x="225.522" y="-199.2" font-family="Helvetica,sans-Serif" font-size="10.00">12</text>
</a>
</g>
</g>
<!-- dir_d2bee95dce64d4fd80a3640d91ab4935&#45;&gt;dir_a64a619a73689309b11b91ae52c63e36 -->
<g id="edge19" class="edge"><title>dir_d2bee95dce64d4fd80a3640d91ab4935&#45;&gt;dir_a64a619a73689309b11b91ae52c63e36</title>
<path fill="none" stroke="black" d="M219.451,-143.871C215.529,-119.67 212.732,-75.2108 213.084,-46.3932"/>
<polygon fill="black" stroke="black" points="216.589,-46.2857 213.378,-36.1893 209.592,-46.0846 216.589,-46.2857"/>
<g id="a_edge19&#45;headlabel"><a xlink:href="dir_000090_000087.xhtml" target="_top" xlink:title="80">
<text text-anchor="middle" x="219.324" y="-47.4604" font-family="Helvetica,sans-Serif" font-size="10.00">80</text>
</a>
</g>
</g>
<!-- dir_d2bee95dce64d4fd80a3640d91ab4935&#45;&gt;dir_8421296c7609edc59eb72e40bf8e93a8 -->
<g id="edge20" class="edge"><title>dir_d2bee95dce64d4fd80a3640d91ab4935&#45;&gt;dir_8421296c7609edc59eb72e40bf8e93a8</title>
<path fill="none" stroke="black" d="M235.399,-143.697C242.588,-135.135 252.286,-124.656 261.623,-115.304"/>
<polygon fill="black" stroke="black" points="264.28,-117.601 268.978,-108.104 259.384,-112.598 264.28,-117.601"/>
<g id="a_edge20&#45;headlabel"><a xlink:href="dir_000090_000013.xhtml" target="_top" xlink:title="8">
<text text-anchor="middle" x="263.698" y="-119.644" font-family="Helvetica,sans-Serif" font-size="10.00">8</text>
</a>
</g>
</g>
<!-- dir_3065e2635695cb7dc351f585e5b100ac&#45;&gt;dir_7368f1a5a3cf04a409e4d90d99595fa7 -->
<g id="edge21" class="edge"><title>dir_3065e2635695cb7dc351f585e5b100ac&#45;&gt;dir_7368f1a5a3cf04a409e4d90d99595fa7</title>
<path fill="none" stroke="black" d="M232.914,-359.871C231.381,-335.67 228.563,-291.211 226.736,-262.393"/>
<polygon fill="black" stroke="black" points="230.215,-261.948 226.089,-252.189 223.229,-262.391 230.215,-261.948"/>
<g id="a_edge21&#45;headlabel"><a xlink:href="dir_000006_000061.xhtml" target="_top" xlink:title="4">
<text text-anchor="middle" x="233.276" y="-262.856" font-family="Helvetica,sans-Serif" font-size="10.00">4</text>
</a>
</g>
</g>
<!-- dir_3065e2635695cb7dc351f585e5b100ac&#45;&gt;dir_d2bee95dce64d4fd80a3640d91ab4935 -->
<g id="edge22" class="edge"><title>dir_3065e2635695cb7dc351f585e5b100ac&#45;&gt;dir_d2bee95dce64d4fd80a3640d91ab4935</title>
<path fill="none" stroke="black" d="M242.018,-359.736C254.759,-329.884 276.661,-266.929 261,-216 257.991,-206.215 252.493,-196.616 246.684,-188.334"/>
<polygon fill="black" stroke="black" points="249.407,-186.131 240.61,-180.226 243.805,-190.328 249.407,-186.131"/>
<g id="a_edge22&#45;headlabel"><a xlink:href="dir_000006_000090.xhtml" target="_top" xlink:title="10">
<text text-anchor="middle" x="253.835" y="-184.805" font-family="Helvetica,sans-Serif" font-size="10.00">10</text>
</a>
</g>
</g>
<!-- dir_3065e2635695cb7dc351f585e5b100ac&#45;&gt;dir_e7e88b26b6f22ac834fce3ecdbf03d20 -->
<g id="edge23" class="edge"><title>dir_3065e2635695cb7dc351f585e5b100ac&#45;&gt;dir_e7e88b26b6f22ac834fce3ecdbf03d20</title>
<path fill="none" stroke="black" d="M209.048,-359.876C195.958,-350.893 179.74,-339.763 165.564,-330.034"/>
<polygon fill="black" stroke="black" points="167.274,-326.962 157.048,-324.19 163.313,-332.734 167.274,-326.962"/>
<g id="a_edge23&#45;headlabel"><a xlink:href="dir_000006_000068.xhtml" target="_top" xlink:title="1">
<text text-anchor="middle" x="171.844" y="-324.155" font-family="Helvetica,sans-Serif" font-size="10.00">1</text>
</a>
</g>
</g>
<!-- dir_3065e2635695cb7dc351f585e5b100ac&#45;&gt;dir_a64a619a73689309b11b91ae52c63e36 -->
<g id="edge24" class="edge"><title>dir_3065e2635695cb7dc351f585e5b100ac&#45;&gt;dir_a64a619a73689309b11b91ae52c63e36</title>
<path fill="none" stroke="black" d="M249.588,-359.83C291.762,-311.225 400.764,-169.869 337,-72 318.785,-44.0432 282.116,-30.7268 254.081,-24.4501"/>
<polygon fill="black" stroke="black" points="254.69,-21.0023 244.194,-22.442 253.297,-27.8623 254.69,-21.0023"/>
<g id="a_edge24&#45;headlabel"><a xlink:href="dir_000006_000087.xhtml" target="_top" xlink:title="51">
<text text-anchor="middle" x="258.778" y="-16.4352" font-family="Helvetica,sans-Serif" font-size="10.00">51</text>
</a>
</g>
</g>
<!-- dir_e7e88b26b6f22ac834fce3ecdbf03d20&#45;&gt;dir_7368f1a5a3cf04a409e4d90d99595fa7 -->
<g id="edge25" class="edge"><title>dir_e7e88b26b6f22ac834fce3ecdbf03d20&#45;&gt;dir_7368f1a5a3cf04a409e4d90d99595fa7</title>
<path fill="none" stroke="black" d="M154.989,-287.697C166.814,-278.796 181.392,-267.823 194.179,-258.199"/>
<polygon fill="black" stroke="black" points="196.391,-260.915 202.276,-252.104 192.181,-255.322 196.391,-260.915"/>
<g id="a_edge25&#45;headlabel"><a xlink:href="dir_000068_000061.xhtml" target="_top" xlink:title="16">
<text text-anchor="middle" x="195.226" y="-262.845" font-family="Helvetica,sans-Serif" font-size="10.00">16</text>
</a>
</g>
</g>
<!-- dir_e7e88b26b6f22ac834fce3ecdbf03d20&#45;&gt;dir_7cacf6b47314a2b927cacd0502911e15 -->
<g id="edge26" class="edge"><title>dir_e7e88b26b6f22ac834fce3ecdbf03d20&#45;&gt;dir_7cacf6b47314a2b927cacd0502911e15</title>
<path fill="none" stroke="black" d="M118.404,-287.697C111.877,-279.389 103.932,-269.277 96.7534,-260.141"/>
<polygon fill="black" stroke="black" points="99.3695,-257.805 90.4391,-252.104 93.8653,-262.13 99.3695,-257.805"/>
<g id="a_edge26&#45;headlabel"><a xlink:href="dir_000068_000066.xhtml" target="_top" xlink:title="2">
<text text-anchor="middle" x="103.823" y="-256.377" font-family="Helvetica,sans-Serif" font-size="10.00">2</text>
</a>
</g>
</g>
<!-- dir_e7e88b26b6f22ac834fce3ecdbf03d20&#45;&gt;dir_d2bee95dce64d4fd80a3640d91ab4935 -->
<g id="edge27" class="edge"><title>dir_e7e88b26b6f22ac834fce3ecdbf03d20&#45;&gt;dir_d2bee95dce64d4fd80a3640d91ab4935</title>
<path fill="none" stroke="black" d="M142.791,-287.85C154.154,-269.862 172.632,-240.812 189,-216 194.972,-206.947 201.617,-197.102 207.556,-188.382"/>
<polygon fill="black" stroke="black" points="210.458,-190.338 213.209,-180.107 204.678,-186.39 210.458,-190.338"/>
<g id="a_edge27&#45;headlabel"><a xlink:href="dir_000068_000090.xhtml" target="_top" xlink:title="11">
<text text-anchor="middle" x="210.775" y="-192.408" font-family="Helvetica,sans-Serif" font-size="10.00">11</text>
</a>
</g>
</g>
<!-- dir_e7e88b26b6f22ac834fce3ecdbf03d20&#45;&gt;dir_a64a619a73689309b11b91ae52c63e36 -->
<g id="edge28" class="edge"><title>dir_e7e88b26b6f22ac834fce3ecdbf03d20&#45;&gt;dir_a64a619a73689309b11b91ae52c63e36</title>
<path fill="none" stroke="black" d="M133.837,-287.74C138.463,-248.274 152.542,-148.916 184,-72 187.797,-62.7168 193.16,-53.2201 198.462,-44.8772"/>
<polygon fill="black" stroke="black" points="201.511,-46.612 204.113,-36.3417 195.674,-42.7476 201.511,-46.612"/>
<g id="a_edge28&#45;headlabel"><a xlink:href="dir_000068_000087.xhtml" target="_top" xlink:title="146">
<text text-anchor="middle" x="201.894" y="-48.6766" font-family="Helvetica,sans-Serif" font-size="10.00">146</text>
</a>
</g>
</g>
<!-- dir_a64a619a73689309b11b91ae52c63e36&#45;&gt;dir_d2bee95dce64d4fd80a3640d91ab4935 -->
<g id="edge29" class="edge"><title>dir_a64a619a73689309b11b91ae52c63e36&#45;&gt;dir_d2bee95dce64d4fd80a3640d91ab4935</title>
<path fill="none" stroke="black" d="M222.559,-36.1893C226.479,-60.4244 229.272,-104.888 228.915,-133.679"/>
<polygon fill="black" stroke="black" points="225.411,-133.774 228.62,-143.871 232.408,-133.977 225.411,-133.774"/>
<g id="a_edge29&#45;headlabel"><a xlink:href="dir_000087_000090.xhtml" target="_top" xlink:title="10">
<text text-anchor="middle" x="222.677" y="-127.599" font-family="Helvetica,sans-Serif" font-size="10.00">10</text>
</a>
</g>
</g>
<!-- dir_8421296c7609edc59eb72e40bf8e93a8&#45;&gt;dir_7368f1a5a3cf04a409e4d90d99595fa7 -->
<g id="edge30" class="edge"><title>dir_8421296c7609edc59eb72e40bf8e93a8&#45;&gt;dir_7368f1a5a3cf04a409e4d90d99595fa7</title>
<path fill="none" stroke="black" d="M286.679,-108.278C281.751,-126.623 272.82,-156.195 261,-180 256.374,-189.317 250.324,-198.899 244.507,-207.31"/>
<polygon fill="black" stroke="black" points="241.558,-205.417 238.6,-215.59 247.257,-209.482 241.558,-205.417"/>
<g id="a_edge30&#45;headlabel"><a xlink:href="dir_000013_000061.xhtml" target="_top" xlink:title="32">
<text text-anchor="middle" x="241.334" y="-198.342" font-family="Helvetica,sans-Serif" font-size="10.00">32</text>
</a>
</g>
</g>
<!-- dir_8421296c7609edc59eb72e40bf8e93a8&#45;&gt;dir_d2bee95dce64d4fd80a3640d91ab4935 -->
<g id="edge31" class="edge"><title>dir_8421296c7609edc59eb72e40bf8e93a8&#45;&gt;dir_d2bee95dce64d4fd80a3640d91ab4935</title>
<path fill="none" stroke="black" d="M280.768,-108.104C273.618,-116.636 263.937,-127.108 254.595,-136.478"/>
<polygon fill="black" stroke="black" points="251.922,-134.197 247.23,-143.697 256.822,-139.196 251.922,-134.197"/>
<g id="a_edge31&#45;headlabel"><a xlink:href="dir_000013_000090.xhtml" target="_top" xlink:title="14">
<text text-anchor="middle" x="252.501" y="-127.153" font-family="Helvetica,sans-Serif" font-size="10.00">14</text>
</a>
</g>
</g>
<!-- dir_8421296c7609edc59eb72e40bf8e93a8&#45;&gt;dir_a64a619a73689309b11b91ae52c63e36 -->
<g id="edge32" class="edge"><title>dir_8421296c7609edc59eb72e40bf8e93a8&#45;&gt;dir_a64a619a73689309b11b91ae52c63e36</title>
<path fill="none" stroke="black" d="M272.708,-71.6966C263.567,-63.0503 252.36,-52.4486 242.4,-43.027"/>
<polygon fill="black" stroke="black" points="244.752,-40.4337 235.082,-36.1043 239.941,-45.519 244.752,-40.4337"/>
<g id="a_edge32&#45;headlabel"><a xlink:href="dir_000013_000087.xhtml" target="_top" xlink:title="93">
<text text-anchor="middle" x="249.314" y="-38.3413" font-family="Helvetica,sans-Serif" font-size="10.00">93</text>
</a>
</g>
</g>
</g>
</svg>
