<?xml version="1.0" encoding="UTF-8" standalone="no"?>
<!DOCTYPE svg PUBLIC "-//W3C//DTD SVG 1.1//EN"
 "http://www.w3.org/Graphics/SVG/1.1/DTD/svg11.dtd">
<!-- Generated by graphviz version 2.38.0 (20140413.2041)
 -->
<!-- Title: src/gromacs/utility/fileredirector.h Pages: 1 -->
<svg width="317pt" height="151pt"
 viewBox="0.00 0.00 316.50 151.00" xmlns="http://www.w3.org/2000/svg" xmlns:xlink="http://www.w3.org/1999/xlink">
<g id="graph0" class="graph" transform="scale(1 1) rotate(0) translate(4 147)">
<title>src/gromacs/utility/fileredirector.h</title>
<polygon fill="white" stroke="none" points="-4,4 -4,-147 312.5,-147 312.5,4 -4,4"/>
<!-- Node1 -->
<g id="node1" class="node"><title>Node1</title>
<polygon fill="#bfbfbf" stroke="black" points="49,-112.5 49,-142.5 146,-142.5 146,-112.5 49,-112.5"/>
<text text-anchor="start" x="57" y="-130.5" font-family="Helvetica,sans-Serif" font-size="10.00">src/gromacs/utility</text>
<text text-anchor="middle" x="97.5" y="-119.5" font-family="Helvetica,sans-Serif" font-size="10.00">/fileredirector.h</text>
</g>
<!-- Node2 -->
<g id="node2" class="node"><title>Node2</title>
<polygon fill="white" stroke="#bfbfbf" points="0,-0.5 0,-19.5 41,-19.5 41,-0.5 0,-0.5"/>
<text text-anchor="middle" x="20.5" y="-7.5" font-family="Helvetica,sans-Serif" font-size="10.00">string</text>
</g>
<!-- Node1&#45;&gt;Node2 -->
<g id="edge1" class="edge"><title>Node1&#45;&gt;Node2</title>
<path fill="none" stroke="midnightblue" d="M71.9622,-112.419C58.4721,-103.674 42.8225,-91.2028 33.5,-76 24.9461,-62.0506 21.8838,-43.5448 20.8516,-29.8473"/>
<polygon fill="midnightblue" stroke="midnightblue" points="24.3398,-29.5074 20.3861,-19.6779 17.3472,-29.8275 24.3398,-29.5074"/>
</g>
<!-- Node3 -->
<g id="node3" class="node"><title>Node3</title>
<g id="a_node3"><a xlink:href="path_8h.xhtml" target="_top" xlink:title="Declares functions for OS&#45;independent path handling. ">
<polygon fill="white" stroke="black" points="42.5,-56.5 42.5,-75.5 152.5,-75.5 152.5,-56.5 42.5,-56.5"/>
<text text-anchor="middle" x="97.5" y="-63.5" font-family="Helvetica,sans-Serif" font-size="10.00">gromacs/utility/path.h</text>
</a>
</g>
</g>
<!-- Node1&#45;&gt;Node3 -->
<g id="edge2" class="edge"><title>Node1&#45;&gt;Node3</title>
<path fill="none" stroke="midnightblue" d="M97.5,-112.399C97.5,-104.466 97.5,-94.458 97.5,-85.8583"/>
<polygon fill="midnightblue" stroke="midnightblue" points="101,-85.6577 97.5,-75.6578 94.0001,-85.6578 101,-85.6577"/>
</g>
<!-- Node6 -->
<g id="node6" class="node"><title>Node6</title>
<g id="a_node6"><a xlink:href="textstream_8h.xhtml" target="_top" xlink:title="Declares interfaces for simple input/output streams. ">
<polygon fill="white" stroke="black" points="170.5,-56.5 170.5,-75.5 308.5,-75.5 308.5,-56.5 170.5,-56.5"/>
<text text-anchor="middle" x="239.5" y="-63.5" font-family="Helvetica,sans-Serif" font-size="10.00">gromacs/utility/textstream.h</text>
</a>
</g>
</g>
<!-- Node1&#45;&gt;Node6 -->
<g id="edge6" class="edge"><title>Node1&#45;&gt;Node6</title>
<path fill="none" stroke="midnightblue" d="M131.152,-112.399C154.977,-102.416 186.646,-89.1465 209.588,-79.5335"/>
<polygon fill="midnightblue" stroke="midnightblue" points="210.967,-82.7505 218.838,-75.6578 208.262,-76.2944 210.967,-82.7505"/>
</g>
<!-- Node3&#45;&gt;Node2 -->
<g id="edge3" class="edge"><title>Node3&#45;&gt;Node2</title>
<path fill="none" stroke="midnightblue" d="M85.1286,-56.324C73.3415,-48.0577 55.3677,-35.4527 41.3645,-25.6322"/>
<polygon fill="midnightblue" stroke="midnightblue" points="43.0376,-22.5307 32.8407,-19.6545 39.0184,-28.2619 43.0376,-22.5307"/>
</g>
<!-- Node4 -->
<g id="node4" class="node"><title>Node4</title>
<polygon fill="white" stroke="#bfbfbf" points="71.5,-0.5 71.5,-19.5 111.5,-19.5 111.5,-0.5 71.5,-0.5"/>
<text text-anchor="middle" x="91.5" y="-7.5" font-family="Helvetica,sans-Serif" font-size="10.00">utility</text>
</g>
<!-- Node3&#45;&gt;Node4 -->
<g id="edge4" class="edge"><title>Node3&#45;&gt;Node4</title>
<path fill="none" stroke="midnightblue" d="M96.5092,-56.083C95.7141,-48.9272 94.5706,-38.6353 93.5768,-29.6911"/>
<polygon fill="midnightblue" stroke="midnightblue" points="97.0553,-29.3034 92.4723,-19.7511 90.0982,-30.0765 97.0553,-29.3034"/>
</g>
<!-- Node5 -->
<g id="node5" class="node"><title>Node5</title>
<polygon fill="white" stroke="#bfbfbf" points="129.5,-0.5 129.5,-19.5 173.5,-19.5 173.5,-0.5 129.5,-0.5"/>
<text text-anchor="middle" x="151.5" y="-7.5" font-family="Helvetica,sans-Serif" font-size="10.00">vector</text>
</g>
<!-- Node3&#45;&gt;Node5 -->
<g id="edge5" class="edge"><title>Node3&#45;&gt;Node5</title>
<path fill="none" stroke="midnightblue" d="M106.417,-56.083C114.28,-48.2195 125.931,-36.5688 135.419,-27.0813"/>
<polygon fill="midnightblue" stroke="midnightblue" points="138.153,-29.2971 142.749,-19.7511 133.203,-24.3473 138.153,-29.2971"/>
</g>
<!-- Node7 -->
<g id="node7" class="node"><title>Node7</title>
<polygon fill="white" stroke="#bfbfbf" points="213.5,-0.5 213.5,-19.5 265.5,-19.5 265.5,-0.5 213.5,-0.5"/>
<text text-anchor="middle" x="239.5" y="-7.5" font-family="Helvetica,sans-Serif" font-size="10.00">memory</text>
</g>
<!-- Node6&#45;&gt;Node7 -->
<g id="edge7" class="edge"><title>Node6&#45;&gt;Node7</title>
<path fill="none" stroke="midnightblue" d="M239.5,-56.083C239.5,-49.0059 239.5,-38.8611 239.5,-29.9865"/>
<polygon fill="midnightblue" stroke="midnightblue" points="243,-29.751 239.5,-19.7511 236,-29.7511 243,-29.751"/>
</g>
</g>
</svg>
