<?xml version="1.0" encoding="UTF-8" standalone="no"?>
<!DOCTYPE svg PUBLIC "-//W3C//DTD SVG 1.1//EN"
 "http://www.w3.org/Graphics/SVG/1.1/DTD/svg11.dtd">
<!-- Generated by graphviz version 2.38.0 (20140413.2041)
 -->
<!-- Title: Analysis Modules Pages: 1 -->
<svg width="286pt" height="187pt"
 viewBox="0.00 0.00 286.00 186.50" xmlns="http://www.w3.org/2000/svg" xmlns:xlink="http://www.w3.org/1999/xlink">
<g id="graph0" class="graph" transform="scale(1 1) rotate(0) translate(4 182.5)">
<title>Analysis Modules</title>
<polygon fill="white" stroke="none" points="-4,4 -4,-182.5 282,-182.5 282,4 -4,4"/>
<!-- Node0 -->
<g id="node1" class="node"><title>Node0</title>
<polygon fill="#bfbfbf" stroke="black" points="0,-72 0,-91 94,-91 94,-72 0,-72"/>
<text text-anchor="middle" x="47" y="-79" font-family="Helvetica,sans-Serif" font-size="10.00">Analysis Modules</text>
</g>
<!-- Node3 -->
<g id="node2" class="node"><title>Node3</title>
<g id="a_node2"><a xlink:href="group__module__selection.xhtml" target="_top" xlink:title="Provides functionality for initializing and evaluating selections. ">
<polygon fill="white" stroke="black" points="145.5,-137 145.5,-178 262.5,-178 262.5,-137 145.5,-137"/>
<text text-anchor="start" x="153.5" y="-166" font-family="Helvetica,sans-Serif" font-size="10.00">Parsing and Evaluation</text>
<text text-anchor="start" x="153.5" y="-155" font-family="Helvetica,sans-Serif" font-size="10.00"> of Analysis Selections</text>
<text text-anchor="middle" x="204" y="-144" font-family="Helvetica,sans-Serif" font-size="10.00"> (selection)</text>
</a>
</g>
</g>
<!-- Node0&#45;&gt;Node3 -->
<g id="edge3" class="edge"><title>Node0&#45;&gt;Node3</title>
<path fill="none" stroke="midnightblue" d="M71.8195,-96.3552C87.9297,-106.101 109.861,-118.789 130,-128.5 136.019,-131.402 142.408,-134.256 148.806,-136.973"/>
<polygon fill="midnightblue" stroke="midnightblue" points="73.4217,-93.2325 63.0643,-91.0022 69.7703,-99.2047 73.4217,-93.2325"/>
</g>
<!-- Node1 -->
<g id="node3" class="node"><title>Node1</title>
<g id="a_node3"><a xlink:href="group__module__analysisdata.xhtml" target="_top" xlink:title="Provides functionality for handling and processing output data from analysis. ">
<polygon fill="white" stroke="black" points="130,-88.5 130,-118.5 278,-118.5 278,-88.5 130,-88.5"/>
<text text-anchor="start" x="138" y="-106.5" font-family="Helvetica,sans-Serif" font-size="10.00">Parallelizable Handling</text>
<text text-anchor="middle" x="204" y="-95.5" font-family="Helvetica,sans-Serif" font-size="10.00"> of Output Data (analysisdata)</text>
</a>
</g>
</g>
<!-- Node0&#45;&gt;Node1 -->
<g id="edge1" class="edge"><title>Node0&#45;&gt;Node1</title>
<path fill="none" stroke="midnightblue" d="M104.073,-89.4588C112.432,-90.6452 121.152,-91.8828 129.8,-93.1103"/>
<polygon fill="midnightblue" stroke="midnightblue" points="104.478,-85.9812 94.0854,-88.0412 103.494,-92.9118 104.478,-85.9812"/>
</g>
<!-- Node2 -->
<g id="node4" class="node"><title>Node2</title>
<g id="a_node4"><a xlink:href="group__module__correlationfunctions.xhtml" target="_top" xlink:title="Compute correlation functions and fit analytical functions to the result. ">
<polygon fill="white" stroke="black" points="150.5,-50 150.5,-69 257.5,-69 257.5,-50 150.5,-50"/>
<text text-anchor="middle" x="204" y="-57" font-family="Helvetica,sans-Serif" font-size="10.00">Correlation functions</text>
</a>
</g>
</g>
<!-- Node0&#45;&gt;Node2 -->
<g id="edge2" class="edge"><title>Node0&#45;&gt;Node2</title>
<path fill="none" stroke="midnightblue" d="M104.27,-73.5133C119.292,-71.3812 135.467,-69.0854 150.289,-66.9815"/>
<polygon fill="midnightblue" stroke="midnightblue" points="103.494,-70.0882 94.0854,-74.9588 104.478,-77.0188 103.494,-70.0882"/>
</g>
<!-- Node4 -->
<g id="node5" class="node"><title>Node4</title>
<g id="a_node5"><a xlink:href="group__module__trajectoryanalysis.xhtml" target="_top" xlink:title="Provides functionality for implementing trajectory analysis modules. ">
<polygon fill="white" stroke="black" points="132.5,-0.5 132.5,-30.5 275.5,-30.5 275.5,-0.5 132.5,-0.5"/>
<text text-anchor="start" x="140.5" y="-18.5" font-family="Helvetica,sans-Serif" font-size="10.00">Framework for Trajectory</text>
<text text-anchor="middle" x="204" y="-7.5" font-family="Helvetica,sans-Serif" font-size="10.00"> Analysis (trajectoryanalysis)</text>
</a>
</g>
</g>
<!-- Node0&#45;&gt;Node4 -->
<g id="edge4" class="edge"><title>Node0&#45;&gt;Node4</title>
<path fill="none" stroke="midnightblue" d="M74.7744,-66.9748C90.5947,-58.6811 111.157,-48.3956 130,-40.5 138.278,-37.0313 147.223,-33.6658 155.92,-30.5871"/>
<polygon fill="midnightblue" stroke="midnightblue" points="72.7898,-64.0655 65.5946,-71.8423 76.0691,-70.2499 72.7898,-64.0655"/>
</g>
</g>
</svg>
