<?xml version="1.0" encoding="UTF-8" standalone="no"?>
<!DOCTYPE svg PUBLIC "-//W3C//DTD SVG 1.1//EN"
 "http://www.w3.org/Graphics/SVG/1.1/DTD/svg11.dtd">
<!-- Generated by graphviz version 2.38.0 (20140413.2041)
 -->
<!-- Title: src/gromacs/analysisdata/modules/histogram.h Pages: 1 -->
<svg width="803pt" height="408pt"
 viewBox="0.00 0.00 802.50 408.00" xmlns="http://www.w3.org/2000/svg" xmlns:xlink="http://www.w3.org/1999/xlink">
<g id="graph0" class="graph" transform="scale(1 1) rotate(0) translate(4 404)">
<title>src/gromacs/analysisdata/modules/histogram.h</title>
<polygon fill="white" stroke="none" points="-4,4 -4,-404 798.5,-404 798.5,4 -4,4"/>
<!-- Node1 -->
<g id="node1" class="node"><title>Node1</title>
<polygon fill="#bfbfbf" stroke="black" points="117,-369.5 117,-399.5 245,-399.5 245,-369.5 117,-369.5"/>
<text text-anchor="start" x="125" y="-387.5" font-family="Helvetica,sans-Serif" font-size="10.00">src/gromacs/analysisdata</text>
<text text-anchor="middle" x="181" y="-376.5" font-family="Helvetica,sans-Serif" font-size="10.00">/modules/histogram.h</text>
</g>
<!-- Node2 -->
<g id="node2" class="node"><title>Node2</title>
<polygon fill="white" stroke="#bfbfbf" points="0,-123.5 0,-142.5 52,-142.5 52,-123.5 0,-123.5"/>
<text text-anchor="middle" x="26" y="-130.5" font-family="Helvetica,sans-Serif" font-size="10.00">memory</text>
</g>
<!-- Node1&#45;&gt;Node2 -->
<g id="edge1" class="edge"><title>Node1&#45;&gt;Node2</title>
<path fill="none" stroke="midnightblue" d="M162.523,-369.299C127.918,-341.305 54.6942,-275.069 31,-199 26.3141,-183.956 25.246,-166.051 25.2468,-152.846"/>
<polygon fill="midnightblue" stroke="midnightblue" points="28.7502,-152.712 25.4585,-142.642 21.7517,-152.567 28.7502,-152.712"/>
</g>
<!-- Node3 -->
<g id="node3" class="node"><title>Node3</title>
<g id="a_node3"><a xlink:href="abstractdata_8h.xhtml" target="_top" xlink:title="Declares gmx::AbstractAnalysisData. ">
<polygon fill="white" stroke="black" points="79,-235.5 79,-265.5 191,-265.5 191,-235.5 79,-235.5"/>
<text text-anchor="start" x="87" y="-253.5" font-family="Helvetica,sans-Serif" font-size="10.00">gromacs/analysisdata</text>
<text text-anchor="middle" x="135" y="-242.5" font-family="Helvetica,sans-Serif" font-size="10.00">/abstractdata.h</text>
</a>
</g>
</g>
<!-- Node1&#45;&gt;Node3 -->
<g id="edge2" class="edge"><title>Node1&#45;&gt;Node3</title>
<path fill="none" stroke="midnightblue" d="M174.748,-369.494C170.365,-359.437 164.507,-345.506 160,-333 153.127,-313.926 146.451,-291.927 141.729,-275.597"/>
<polygon fill="midnightblue" stroke="midnightblue" points="145.035,-274.427 138.926,-265.771 138.303,-276.348 145.035,-274.427"/>
</g>
<!-- Node5 -->
<g id="node5" class="node"><title>Node5</title>
<g id="a_node5"><a xlink:href="arraydata_8h.xhtml" target="_top" xlink:title="Declares gmx::AbstractAnalysisArrayData and gmx::AnalysisArrayData. ">
<polygon fill="white" stroke="black" points="169,-302.5 169,-332.5 281,-332.5 281,-302.5 169,-302.5"/>
<text text-anchor="start" x="177" y="-320.5" font-family="Helvetica,sans-Serif" font-size="10.00">gromacs/analysisdata</text>
<text text-anchor="middle" x="225" y="-309.5" font-family="Helvetica,sans-Serif" font-size="10.00">/arraydata.h</text>
</a>
</g>
</g>
<!-- Node1&#45;&gt;Node5 -->
<g id="edge6" class="edge"><title>Node1&#45;&gt;Node5</title>
<path fill="none" stroke="midnightblue" d="M190.547,-369.396C196.14,-361.134 203.334,-350.507 209.7,-341.102"/>
<polygon fill="midnightblue" stroke="midnightblue" points="212.764,-342.82 215.471,-332.577 206.967,-338.896 212.764,-342.82"/>
</g>
<!-- Node21 -->
<g id="node21" class="node"><title>Node21</title>
<g id="a_node21"><a xlink:href="datamodule_8h.xhtml" target="_top" xlink:title="Declares gmx::IAnalysisDataModule and related convenience classes. ">
<polygon fill="white" stroke="black" points="299,-302.5 299,-332.5 411,-332.5 411,-302.5 299,-302.5"/>
<text text-anchor="start" x="307" y="-320.5" font-family="Helvetica,sans-Serif" font-size="10.00">gromacs/analysisdata</text>
<text text-anchor="middle" x="355" y="-309.5" font-family="Helvetica,sans-Serif" font-size="10.00">/datamodule.h</text>
</a>
</g>
</g>
<!-- Node1&#45;&gt;Node21 -->
<g id="edge27" class="edge"><title>Node1&#45;&gt;Node21</title>
<path fill="none" stroke="midnightblue" d="M218.755,-369.396C244.863,-359.643 279.792,-346.595 307.747,-336.152"/>
<polygon fill="midnightblue" stroke="midnightblue" points="309.175,-339.355 317.318,-332.577 306.726,-332.797 309.175,-339.355"/>
</g>
<!-- Node3&#45;&gt;Node2 -->
<g id="edge3" class="edge"><title>Node3&#45;&gt;Node2</title>
<path fill="none" stroke="midnightblue" d="M95.2981,-235.303C77.6294,-227.159 57.9375,-215.266 45,-199 34.3743,-185.641 29.6898,-166.528 27.6253,-152.484"/>
<polygon fill="midnightblue" stroke="midnightblue" points="31.0978,-152.045 26.4678,-142.515 24.1446,-152.852 31.0978,-152.045"/>
</g>
<!-- Node4 -->
<g id="node4" class="node"><title>Node4</title>
<g id="a_node4"><a xlink:href="classhelpers_8h.xhtml" target="_top" xlink:title="Declares common utility classes and macros. ">
<polygon fill="white" stroke="black" points="54,-179.5 54,-198.5 200,-198.5 200,-179.5 54,-179.5"/>
<text text-anchor="middle" x="127" y="-186.5" font-family="Helvetica,sans-Serif" font-size="10.00">gromacs/utility/classhelpers.h</text>
</a>
</g>
</g>
<!-- Node3&#45;&gt;Node4 -->
<g id="edge4" class="edge"><title>Node3&#45;&gt;Node4</title>
<path fill="none" stroke="midnightblue" d="M133.104,-235.399C132.026,-227.377 130.662,-217.233 129.497,-208.569"/>
<polygon fill="midnightblue" stroke="midnightblue" points="132.965,-208.102 128.164,-198.658 126.028,-209.035 132.965,-208.102"/>
</g>
<!-- Node4&#45;&gt;Node2 -->
<g id="edge5" class="edge"><title>Node4&#45;&gt;Node2</title>
<path fill="none" stroke="midnightblue" d="M110.773,-179.324C94.649,-170.703 69.6998,-157.364 51.0359,-147.386"/>
<polygon fill="midnightblue" stroke="midnightblue" points="52.6561,-144.283 42.1871,-142.655 49.3556,-150.456 52.6561,-144.283"/>
</g>
<!-- Node5&#45;&gt;Node3 -->
<g id="edge8" class="edge"><title>Node5&#45;&gt;Node3</title>
<path fill="none" stroke="midnightblue" d="M205.471,-302.396C192.97,-293.367 176.558,-281.514 162.718,-271.518"/>
<polygon fill="midnightblue" stroke="midnightblue" points="164.647,-268.594 154.491,-265.577 160.548,-274.269 164.647,-268.594"/>
</g>
<!-- Node6 -->
<g id="node6" class="node"><title>Node6</title>
<polygon fill="white" stroke="#bfbfbf" points="206,-123.5 206,-142.5 250,-142.5 250,-123.5 206,-123.5"/>
<text text-anchor="middle" x="228" y="-130.5" font-family="Helvetica,sans-Serif" font-size="10.00">vector</text>
</g>
<!-- Node5&#45;&gt;Node6 -->
<g id="edge7" class="edge"><title>Node5&#45;&gt;Node6</title>
<path fill="none" stroke="midnightblue" d="M225.23,-302.483C225.763,-270.097 227.079,-190.037 227.685,-153.159"/>
<polygon fill="midnightblue" stroke="midnightblue" points="231.19,-152.875 227.855,-142.819 224.191,-152.76 231.19,-152.875"/>
</g>
<!-- Node7 -->
<g id="node7" class="node"><title>Node7</title>
<g id="a_node7"><a xlink:href="dataframe_8h.xhtml" target="_top" xlink:title="Declares classes for accessing data frame information. ">
<polygon fill="white" stroke="black" points="346,-235.5 346,-265.5 458,-265.5 458,-235.5 346,-235.5"/>
<text text-anchor="start" x="354" y="-253.5" font-family="Helvetica,sans-Serif" font-size="10.00">gromacs/analysisdata</text>
<text text-anchor="middle" x="402" y="-242.5" font-family="Helvetica,sans-Serif" font-size="10.00">/dataframe.h</text>
</a>
</g>
</g>
<!-- Node5&#45;&gt;Node7 -->
<g id="edge9" class="edge"><title>Node5&#45;&gt;Node7</title>
<path fill="none" stroke="midnightblue" d="M263.406,-302.396C289.964,-292.643 325.495,-279.595 353.932,-269.152"/>
<polygon fill="midnightblue" stroke="midnightblue" points="355.488,-272.309 363.669,-265.577 353.075,-265.738 355.488,-272.309"/>
</g>
<!-- Node14 -->
<g id="node14" class="node"><title>Node14</title>
<g id="a_node14"><a xlink:href="gmxassert_8h.xhtml" target="_top" xlink:title="Defines assert macros customized for Gromacs. ">
<polygon fill="white" stroke="black" points="593.5,-123.5 593.5,-142.5 730.5,-142.5 730.5,-123.5 593.5,-123.5"/>
<text text-anchor="middle" x="662" y="-130.5" font-family="Helvetica,sans-Serif" font-size="10.00">gromacs/utility/gmxassert.h</text>
</a>
</g>
</g>
<!-- Node5&#45;&gt;Node14 -->
<g id="edge26" class="edge"><title>Node5&#45;&gt;Node14</title>
<path fill="none" stroke="midnightblue" d="M281.005,-303.936C284.047,-303.276 287.06,-302.627 290,-302 483.889,-260.66 602.783,-355.87 724,-199 738.834,-179.803 712.744,-159.934 689.99,-147.299"/>
<polygon fill="midnightblue" stroke="midnightblue" points="691.37,-144.07 680.891,-142.509 688.109,-150.265 691.37,-144.07"/>
</g>
<!-- Node7&#45;&gt;Node6 -->
<g id="edge10" class="edge"><title>Node7&#45;&gt;Node6</title>
<path fill="none" stroke="midnightblue" d="M357.045,-235.428C334.192,-226.997 306.733,-214.819 285,-199 266.684,-185.668 250.151,-165.462 239.666,-151.121"/>
<polygon fill="midnightblue" stroke="midnightblue" points="242.324,-148.818 233.692,-142.676 236.61,-152.861 242.324,-148.818"/>
</g>
<!-- Node8 -->
<g id="node8" class="node"><title>Node8</title>
<g id="a_node8"><a xlink:href="arrayref_8h.xhtml" target="_top" xlink:title="Declares gmx::ArrayRef. ">
<polygon fill="white" stroke="black" points="294.5,-179.5 294.5,-198.5 419.5,-198.5 419.5,-179.5 294.5,-179.5"/>
<text text-anchor="middle" x="357" y="-186.5" font-family="Helvetica,sans-Serif" font-size="10.00">gromacs/utility/arrayref.h</text>
</a>
</g>
</g>
<!-- Node7&#45;&gt;Node8 -->
<g id="edge11" class="edge"><title>Node7&#45;&gt;Node8</title>
<path fill="none" stroke="midnightblue" d="M391.336,-235.399C384.864,-226.842 376.566,-215.871 369.749,-206.857"/>
<polygon fill="midnightblue" stroke="midnightblue" points="372.372,-204.522 363.548,-198.658 366.789,-208.745 372.372,-204.522"/>
</g>
<!-- Node7&#45;&gt;Node14 -->
<g id="edge24" class="edge"><title>Node7&#45;&gt;Node14</title>
<path fill="none" stroke="midnightblue" d="M411.189,-235.217C422.381,-219.022 442.818,-193.052 467,-179 489.296,-166.044 551.3,-152.983 599.465,-144.295"/>
<polygon fill="midnightblue" stroke="midnightblue" points="600.281,-147.705 609.514,-142.509 599.056,-140.813 600.281,-147.705"/>
</g>
<!-- Node19 -->
<g id="node19" class="node"><title>Node19</title>
<g id="a_node19"><a xlink:href="flags_8h.xhtml" target="_top" xlink:title="Declares gmx::FlagsTemplate. ">
<polygon fill="white" stroke="black" points="476.5,-179.5 476.5,-198.5 589.5,-198.5 589.5,-179.5 476.5,-179.5"/>
<text text-anchor="middle" x="533" y="-186.5" font-family="Helvetica,sans-Serif" font-size="10.00">gromacs/utility/flags.h</text>
</a>
</g>
</g>
<!-- Node7&#45;&gt;Node19 -->
<g id="edge23" class="edge"><title>Node7&#45;&gt;Node19</title>
<path fill="none" stroke="midnightblue" d="M433.045,-235.399C454.73,-225.55 483.459,-212.501 504.551,-202.922"/>
<polygon fill="midnightblue" stroke="midnightblue" points="506.281,-205.98 513.938,-198.658 503.386,-199.607 506.281,-205.98"/>
</g>
<!-- Node20 -->
<g id="node20" class="node"><title>Node20</title>
<g id="a_node20"><a xlink:href="real_8h.xhtml" target="_top" xlink:title="Declares real and related constants. ">
<polygon fill="white" stroke="black" points="607.5,-179.5 607.5,-198.5 714.5,-198.5 714.5,-179.5 607.5,-179.5"/>
<text text-anchor="middle" x="661" y="-186.5" font-family="Helvetica,sans-Serif" font-size="10.00">gromacs/utility/real.h</text>
</a>
</g>
</g>
<!-- Node7&#45;&gt;Node20 -->
<g id="edge25" class="edge"><title>Node7&#45;&gt;Node20</title>
<path fill="none" stroke="midnightblue" d="M458.199,-236.589C504.714,-225.904 570.041,-210.896 613.862,-200.829"/>
<polygon fill="midnightblue" stroke="midnightblue" points="614.729,-204.221 623.691,-198.571 613.161,-197.399 614.729,-204.221"/>
</g>
<!-- Node8&#45;&gt;Node6 -->
<g id="edge17" class="edge"><title>Node8&#45;&gt;Node6</title>
<path fill="none" stroke="midnightblue" d="M336.56,-179.444C315.33,-170.557 281.901,-156.563 257.745,-146.451"/>
<polygon fill="midnightblue" stroke="midnightblue" points="258.921,-143.149 248.345,-142.516 256.218,-149.606 258.921,-143.149"/>
</g>
<!-- Node9 -->
<g id="node9" class="node"><title>Node9</title>
<polygon fill="white" stroke="#bfbfbf" points="268.5,-123.5 268.5,-142.5 317.5,-142.5 317.5,-123.5 268.5,-123.5"/>
<text text-anchor="middle" x="293" y="-130.5" font-family="Helvetica,sans-Serif" font-size="10.00">cstddef</text>
</g>
<!-- Node8&#45;&gt;Node9 -->
<g id="edge12" class="edge"><title>Node8&#45;&gt;Node9</title>
<path fill="none" stroke="midnightblue" d="M346.717,-179.324C337.164,-171.263 322.72,-159.077 311.216,-149.369"/>
<polygon fill="midnightblue" stroke="midnightblue" points="313.37,-146.608 303.47,-142.834 308.856,-151.958 313.37,-146.608"/>
</g>
<!-- Node10 -->
<g id="node10" class="node"><title>Node10</title>
<polygon fill="white" stroke="#bfbfbf" points="336,-123.5 336,-142.5 374,-142.5 374,-123.5 336,-123.5"/>
<text text-anchor="middle" x="355" y="-130.5" font-family="Helvetica,sans-Serif" font-size="10.00">array</text>
</g>
<!-- Node8&#45;&gt;Node10 -->
<g id="edge13" class="edge"><title>Node8&#45;&gt;Node10</title>
<path fill="none" stroke="midnightblue" d="M356.67,-179.083C356.408,-172.006 356.032,-161.861 355.703,-152.986"/>
<polygon fill="midnightblue" stroke="midnightblue" points="359.192,-152.615 355.324,-142.751 352.197,-152.874 359.192,-152.615"/>
</g>
<!-- Node11 -->
<g id="node11" class="node"><title>Node11</title>
<polygon fill="white" stroke="#bfbfbf" points="392.5,-123.5 392.5,-142.5 439.5,-142.5 439.5,-123.5 392.5,-123.5"/>
<text text-anchor="middle" x="416" y="-130.5" font-family="Helvetica,sans-Serif" font-size="10.00">iterator</text>
</g>
<!-- Node8&#45;&gt;Node11 -->
<g id="edge14" class="edge"><title>Node8&#45;&gt;Node11</title>
<path fill="none" stroke="midnightblue" d="M366.479,-179.324C375.201,-171.341 388.343,-159.313 398.898,-149.653"/>
<polygon fill="midnightblue" stroke="midnightblue" points="401.334,-152.167 406.348,-142.834 396.608,-147.004 401.334,-152.167"/>
</g>
<!-- Node12 -->
<g id="node12" class="node"><title>Node12</title>
<polygon fill="white" stroke="#bfbfbf" points="457.5,-123.5 457.5,-142.5 516.5,-142.5 516.5,-123.5 457.5,-123.5"/>
<text text-anchor="middle" x="487" y="-130.5" font-family="Helvetica,sans-Serif" font-size="10.00">stdexcept</text>
</g>
<!-- Node8&#45;&gt;Node12 -->
<g id="edge15" class="edge"><title>Node8&#45;&gt;Node12</title>
<path fill="none" stroke="midnightblue" d="M377.599,-179.444C398.993,-170.557 432.681,-156.563 457.024,-146.451"/>
<polygon fill="midnightblue" stroke="midnightblue" points="458.605,-149.585 466.497,-142.516 455.92,-143.12 458.605,-149.585"/>
</g>
<!-- Node13 -->
<g id="node13" class="node"><title>Node13</title>
<polygon fill="white" stroke="#bfbfbf" points="535,-123.5 535,-142.5 575,-142.5 575,-123.5 535,-123.5"/>
<text text-anchor="middle" x="555" y="-130.5" font-family="Helvetica,sans-Serif" font-size="10.00">utility</text>
</g>
<!-- Node8&#45;&gt;Node13 -->
<g id="edge16" class="edge"><title>Node8&#45;&gt;Node13</title>
<path fill="none" stroke="midnightblue" d="M390.779,-179.437C422.97,-171.181 473.02,-158.099 525.021,-143.202"/>
<polygon fill="midnightblue" stroke="midnightblue" points="526.109,-146.531 534.75,-140.4 524.172,-139.804 526.109,-146.531"/>
</g>
<!-- Node8&#45;&gt;Node14 -->
<g id="edge18" class="edge"><title>Node8&#45;&gt;Node14</title>
<path fill="none" stroke="midnightblue" d="M405.328,-179.444C459.204,-169.905 546.307,-154.483 603.864,-144.293"/>
<polygon fill="midnightblue" stroke="midnightblue" points="604.661,-147.706 613.898,-142.516 603.441,-140.813 604.661,-147.706"/>
</g>
<!-- Node15 -->
<g id="node15" class="node"><title>Node15</title>
<g id="a_node15"><a xlink:href="basedefinitions_8h.xhtml" target="_top" xlink:title="Basic types and macros used throughout GROMACS. ">
<polygon fill="white" stroke="black" points="506.5,-62 506.5,-81 663.5,-81 663.5,-62 506.5,-62"/>
<text text-anchor="middle" x="585" y="-69" font-family="Helvetica,sans-Serif" font-size="10.00">gromacs/utility/basedefinitions.h</text>
</a>
</g>
</g>
<!-- Node14&#45;&gt;Node15 -->
<g id="edge19" class="edge"><title>Node14&#45;&gt;Node15</title>
<path fill="none" stroke="midnightblue" d="M650.968,-123.475C638.732,-114.02 618.771,-98.5961 604.007,-87.1871"/>
<polygon fill="midnightblue" stroke="midnightblue" points="606.065,-84.3541 596.012,-81.0091 601.785,-89.8931 606.065,-84.3541"/>
</g>
<!-- Node18 -->
<g id="node18" class="node"><title>Node18</title>
<g id="a_node18"><a xlink:href="current__function_8h.xhtml" target="_top" xlink:title="Declares GMX_CURRENT_FUNCTION for getting the current function name. ">
<polygon fill="white" stroke="black" points="681.5,-56.5 681.5,-86.5 794.5,-86.5 794.5,-56.5 681.5,-56.5"/>
<text text-anchor="start" x="689.5" y="-74.5" font-family="Helvetica,sans-Serif" font-size="10.00">gromacs/utility/current</text>
<text text-anchor="middle" x="738" y="-63.5" font-family="Helvetica,sans-Serif" font-size="10.00">_function.h</text>
</a>
</g>
</g>
<!-- Node14&#45;&gt;Node18 -->
<g id="edge22" class="edge"><title>Node14&#45;&gt;Node18</title>
<path fill="none" stroke="midnightblue" d="M672.889,-123.475C683.086,-115.492 698.717,-103.254 712.109,-92.7703"/>
<polygon fill="midnightblue" stroke="midnightblue" points="714.372,-95.4434 720.088,-86.523 710.057,-89.9316 714.372,-95.4434"/>
</g>
<!-- Node16 -->
<g id="node16" class="node"><title>Node16</title>
<polygon fill="white" stroke="#bfbfbf" points="524.5,-0.5 524.5,-19.5 573.5,-19.5 573.5,-0.5 524.5,-0.5"/>
<text text-anchor="middle" x="549" y="-7.5" font-family="Helvetica,sans-Serif" font-size="10.00">stdint.h</text>
</g>
<!-- Node15&#45;&gt;Node16 -->
<g id="edge20" class="edge"><title>Node15&#45;&gt;Node16</title>
<path fill="none" stroke="midnightblue" d="M579.842,-61.9751C574.549,-53.2268 566.165,-39.3691 559.473,-28.3093"/>
<polygon fill="midnightblue" stroke="midnightblue" points="562.32,-26.2531 554.148,-19.5091 556.33,-29.8768 562.32,-26.2531"/>
</g>
<!-- Node17 -->
<g id="node17" class="node"><title>Node17</title>
<polygon fill="white" stroke="#bfbfbf" points="591.5,-0.5 591.5,-19.5 650.5,-19.5 650.5,-0.5 591.5,-0.5"/>
<text text-anchor="middle" x="621" y="-7.5" font-family="Helvetica,sans-Serif" font-size="10.00">inttypes.h</text>
</g>
<!-- Node15&#45;&gt;Node17 -->
<g id="edge21" class="edge"><title>Node15&#45;&gt;Node17</title>
<path fill="none" stroke="midnightblue" d="M590.158,-61.9751C595.451,-53.2268 603.835,-39.3691 610.527,-28.3093"/>
<polygon fill="midnightblue" stroke="midnightblue" points="613.67,-29.8768 615.852,-19.5091 607.68,-26.2531 613.67,-29.8768"/>
</g>
</g>
</svg>
