<?xml version="1.0" encoding="UTF-8" standalone="no"?>
<!DOCTYPE svg PUBLIC "-//W3C//DTD SVG 1.1//EN"
 "http://www.w3.org/Graphics/SVG/1.1/DTD/svg11.dtd">
<!-- Generated by graphviz version 2.38.0 (20140413.2041)
 -->
<!-- Title: src/gromacs/simd/impl_reference/impl_reference_util_double.h Pages: 1 -->
<svg width="926pt" height="296pt"
 viewBox="0.00 0.00 926.00 296.00" xmlns="http://www.w3.org/2000/svg" xmlns:xlink="http://www.w3.org/1999/xlink">
<g id="graph0" class="graph" transform="scale(1 1) rotate(0) translate(4 292)">
<title>src/gromacs/simd/impl_reference/impl_reference_util_double.h</title>
<polygon fill="white" stroke="none" points="-4,4 -4,-292 922,-292 922,4 -4,4"/>
<!-- Node1 -->
<g id="node1" class="node"><title>Node1</title>
<polygon fill="#bfbfbf" stroke="black" points="441.5,-246.5 441.5,-287.5 570.5,-287.5 570.5,-246.5 441.5,-246.5"/>
<text text-anchor="start" x="449.5" y="-275.5" font-family="Helvetica,sans-Serif" font-size="10.00">src/gromacs/simd/impl</text>
<text text-anchor="start" x="449.5" y="-264.5" font-family="Helvetica,sans-Serif" font-size="10.00">_reference/impl_reference</text>
<text text-anchor="middle" x="506" y="-253.5" font-family="Helvetica,sans-Serif" font-size="10.00">_util_double.h</text>
</g>
<!-- Node2 -->
<g id="node2" class="node"><title>Node2</title>
<polygon fill="white" stroke="#bfbfbf" points="466.5,-56.5 466.5,-75.5 517.5,-75.5 517.5,-56.5 466.5,-56.5"/>
<text text-anchor="middle" x="492" y="-63.5" font-family="Helvetica,sans-Serif" font-size="10.00">config.h</text>
</g>
<!-- Node1&#45;&gt;Node2 -->
<g id="edge1" class="edge"><title>Node1&#45;&gt;Node2</title>
<path fill="none" stroke="midnightblue" d="M455.478,-246.352C440,-237.667 424.758,-225.765 416,-210 394.848,-171.926 394.43,-149.839 416,-112 424.867,-96.4451 441.456,-85.718 456.879,-78.6507"/>
<polygon fill="midnightblue" stroke="midnightblue" points="458.388,-81.8132 466.251,-74.7128 455.676,-75.3596 458.388,-81.8132"/>
</g>
<!-- Node3 -->
<g id="node3" class="node"><title>Node3</title>
<polygon fill="white" stroke="#bfbfbf" points="535.5,-56.5 535.5,-75.5 584.5,-75.5 584.5,-56.5 535.5,-56.5"/>
<text text-anchor="middle" x="560" y="-63.5" font-family="Helvetica,sans-Serif" font-size="10.00">cassert</text>
</g>
<!-- Node1&#45;&gt;Node3 -->
<g id="edge2" class="edge"><title>Node1&#45;&gt;Node3</title>
<path fill="none" stroke="midnightblue" d="M497.657,-246.383C485.985,-215.704 468.681,-155.394 492,-112 499.622,-97.8153 513.897,-87.3516 527.406,-80.1027"/>
<polygon fill="midnightblue" stroke="midnightblue" points="529.128,-83.1562 536.546,-75.5916 526.03,-76.8791 529.128,-83.1562"/>
</g>
<!-- Node4 -->
<g id="node4" class="node"><title>Node4</title>
<polygon fill="white" stroke="#bfbfbf" points="602.5,-56.5 602.5,-75.5 651.5,-75.5 651.5,-56.5 602.5,-56.5"/>
<text text-anchor="middle" x="627" y="-63.5" font-family="Helvetica,sans-Serif" font-size="10.00">cstddef</text>
</g>
<!-- Node1&#45;&gt;Node4 -->
<g id="edge3" class="edge"><title>Node1&#45;&gt;Node4</title>
<path fill="none" stroke="midnightblue" d="M507.365,-246.354C509.296,-228.046 513.93,-200.427 525,-179 545.857,-138.628 585.024,-101.734 608.284,-82.0128"/>
<polygon fill="midnightblue" stroke="midnightblue" points="610.611,-84.6297 616.07,-75.5496 606.14,-79.2435 610.611,-84.6297"/>
</g>
<!-- Node5 -->
<g id="node5" class="node"><title>Node5</title>
<polygon fill="white" stroke="#bfbfbf" points="798,-56.5 798,-75.5 844,-75.5 844,-56.5 798,-56.5"/>
<text text-anchor="middle" x="821" y="-63.5" font-family="Helvetica,sans-Serif" font-size="10.00">cstdint</text>
</g>
<!-- Node1&#45;&gt;Node5 -->
<g id="edge4" class="edge"><title>Node1&#45;&gt;Node5</title>
<path fill="none" stroke="midnightblue" d="M570.546,-254.384C635.367,-239.461 733.877,-207.385 793,-143 807.682,-127.011 814.839,-102.669 818.207,-85.8622"/>
<polygon fill="midnightblue" stroke="midnightblue" points="821.722,-86.0765 819.98,-75.6259 814.825,-84.882 821.722,-86.0765"/>
</g>
<!-- Node6 -->
<g id="node6" class="node"><title>Node6</title>
<polygon fill="white" stroke="#bfbfbf" points="862,-56.5 862,-75.5 918,-75.5 918,-56.5 862,-56.5"/>
<text text-anchor="middle" x="890" y="-63.5" font-family="Helvetica,sans-Serif" font-size="10.00">algorithm</text>
</g>
<!-- Node1&#45;&gt;Node6 -->
<g id="edge5" class="edge"><title>Node1&#45;&gt;Node6</title>
<path fill="none" stroke="midnightblue" d="M570.699,-258.909C619.149,-251.638 685.935,-237.355 739,-210 800.075,-178.516 853.794,-114.813 877.34,-84.1948"/>
<polygon fill="midnightblue" stroke="midnightblue" points="880.425,-85.9178 883.654,-75.827 874.837,-81.7016 880.425,-85.9178"/>
</g>
<!-- Node7 -->
<g id="node7" class="node"><title>Node7</title>
<g id="a_node7"><a xlink:href="impl__reference__definitions_8h.xhtml" target="_top" xlink:title="Reference SIMD implementation, including SIMD documentation. ">
<polygon fill="white" stroke="black" points="0,-56.5 0,-75.5 138,-75.5 138,-56.5 0,-56.5"/>
<text text-anchor="middle" x="69" y="-63.5" font-family="Helvetica,sans-Serif" font-size="10.00">impl_reference_definitions.h</text>
</a>
</g>
</g>
<!-- Node1&#45;&gt;Node7 -->
<g id="edge6" class="edge"><title>Node1&#45;&gt;Node7</title>
<path fill="none" stroke="midnightblue" d="M441.326,-252.94C366.432,-235.826 241.288,-200.971 147,-143 120.941,-126.978 96.6643,-100.85 82.3266,-83.791"/>
<polygon fill="midnightblue" stroke="midnightblue" points="84.823,-81.3153 75.778,-75.7982 79.4083,-85.7517 84.823,-81.3153"/>
</g>
<!-- Node8 -->
<g id="node8" class="node"><title>Node8</title>
<g id="a_node8"><a xlink:href="impl__reference__simd__double_8h.xhtml" target="_top" xlink:title="Reference implementation, SIMD double precision. ">
<polygon fill="white" stroke="black" points="534.5,-179.5 534.5,-209.5 641.5,-209.5 641.5,-179.5 534.5,-179.5"/>
<text text-anchor="start" x="542.5" y="-197.5" font-family="Helvetica,sans-Serif" font-size="10.00">impl_reference_simd</text>
<text text-anchor="middle" x="588" y="-186.5" font-family="Helvetica,sans-Serif" font-size="10.00">_double.h</text>
</a>
</g>
</g>
<!-- Node1&#45;&gt;Node8 -->
<g id="edge7" class="edge"><title>Node1&#45;&gt;Node8</title>
<path fill="none" stroke="midnightblue" d="M528.842,-246.362C539.748,-236.985 552.802,-225.762 563.87,-216.246"/>
<polygon fill="midnightblue" stroke="midnightblue" points="566.218,-218.843 571.519,-209.67 561.654,-213.535 566.218,-218.843"/>
</g>
<!-- Node8&#45;&gt;Node2 -->
<g id="edge8" class="edge"><title>Node8&#45;&gt;Node2</title>
<path fill="none" stroke="midnightblue" d="M577.36,-179.479C559.62,-156.104 524.065,-109.253 504.918,-84.0222"/>
<polygon fill="midnightblue" stroke="midnightblue" points="507.503,-81.6386 498.67,-75.7885 501.927,-85.8703 507.503,-81.6386"/>
</g>
<!-- Node8&#45;&gt;Node3 -->
<g id="edge9" class="edge"><title>Node8&#45;&gt;Node3</title>
<path fill="none" stroke="midnightblue" d="M581.149,-179.258C576.675,-169.325 571.106,-155.637 568,-143 563.307,-123.904 561.366,-101.443 560.564,-85.9162"/>
<polygon fill="midnightblue" stroke="midnightblue" points="564.047,-85.4149 560.146,-75.5643 557.053,-85.6974 564.047,-85.4149"/>
</g>
<!-- Node8&#45;&gt;Node4 -->
<g id="edge11" class="edge"><title>Node8&#45;&gt;Node4</title>
<path fill="none" stroke="midnightblue" d="M588.698,-179.271C589.866,-162.695 592.949,-134.685 601,-112 604.427,-102.344 609.93,-92.3992 614.993,-84.3225"/>
<polygon fill="midnightblue" stroke="midnightblue" points="618.009,-86.1057 620.583,-75.8282 612.162,-82.2575 618.009,-86.1057"/>
</g>
<!-- Node8&#45;&gt;Node5 -->
<g id="edge12" class="edge"><title>Node8&#45;&gt;Node5</title>
<path fill="none" stroke="midnightblue" d="M641.885,-187.208C678.855,-180.805 727.616,-168.072 764,-143 785.797,-127.98 802.668,-101.92 812.221,-84.5676"/>
<polygon fill="midnightblue" stroke="midnightblue" points="815.43,-85.9864 816.983,-75.506 809.233,-82.7303 815.43,-85.9864"/>
</g>
<!-- Node8&#45;&gt;Node6 -->
<g id="edge13" class="edge"><title>Node8&#45;&gt;Node6</title>
<path fill="none" stroke="midnightblue" d="M641.933,-186.587C684.562,-179.646 744.719,-166.505 793,-143 825.027,-127.408 856.425,-99.9492 874.465,-82.6552"/>
<polygon fill="midnightblue" stroke="midnightblue" points="877.072,-85.0011 881.768,-75.5038 872.175,-79.9997 877.072,-85.0011"/>
</g>
<!-- Node8&#45;&gt;Node7 -->
<g id="edge21" class="edge"><title>Node8&#45;&gt;Node7</title>
<path fill="none" stroke="midnightblue" d="M534.272,-191.298C462.406,-187.171 331.665,-175.503 225,-143 175.073,-127.786 121.275,-98.3563 91.7116,-80.9201"/>
<polygon fill="midnightblue" stroke="midnightblue" points="93.3798,-77.8397 83.0005,-75.7136 89.7886,-83.8483 93.3798,-77.8397"/>
</g>
<!-- Node9 -->
<g id="node9" class="node"><title>Node9</title>
<polygon fill="white" stroke="#bfbfbf" points="672,-56.5 672,-75.5 716,-75.5 716,-56.5 672,-56.5"/>
<text text-anchor="middle" x="694" y="-63.5" font-family="Helvetica,sans-Serif" font-size="10.00">cmath</text>
</g>
<!-- Node8&#45;&gt;Node9 -->
<g id="edge10" class="edge"><title>Node8&#45;&gt;Node9</title>
<path fill="none" stroke="midnightblue" d="M641.575,-188.598C671.711,-182.782 707.001,-170.184 726,-143 739.13,-124.214 723.323,-99.2019 709.637,-83.0979"/>
<polygon fill="midnightblue" stroke="midnightblue" points="712.137,-80.6446 702.838,-75.5686 706.942,-85.3361 712.137,-80.6446"/>
</g>
<!-- Node10 -->
<g id="node10" class="node"><title>Node10</title>
<polygon fill="white" stroke="#bfbfbf" points="739,-56.5 739,-75.5 777,-75.5 777,-56.5 739,-56.5"/>
<text text-anchor="middle" x="758" y="-63.5" font-family="Helvetica,sans-Serif" font-size="10.00">array</text>
</g>
<!-- Node8&#45;&gt;Node10 -->
<g id="edge14" class="edge"><title>Node8&#45;&gt;Node10</title>
<path fill="none" stroke="midnightblue" d="M641.786,-189.54C675.626,-184.162 717.559,-171.695 743,-143 756.773,-127.465 759.39,-103.029 759.297,-86.0766"/>
<polygon fill="midnightblue" stroke="midnightblue" points="762.781,-85.5968 758.903,-75.7372 755.786,-85.8631 762.781,-85.5968"/>
</g>
<!-- Node11 -->
<g id="node11" class="node"><title>Node11</title>
<g id="a_node11"><a xlink:href="fatalerror_8h.xhtml" target="_top" xlink:title="Declares fatal error handling and debugging routines for C code. ">
<polygon fill="white" stroke="black" points="234,-118 234,-137 364,-137 364,-118 234,-118"/>
<text text-anchor="middle" x="299" y="-125" font-family="Helvetica,sans-Serif" font-size="10.00">gromacs/utility/fatalerror.h</text>
</a>
</g>
</g>
<!-- Node8&#45;&gt;Node11 -->
<g id="edge15" class="edge"><title>Node8&#45;&gt;Node11</title>
<path fill="none" stroke="midnightblue" d="M534.319,-181.426C480.604,-169.345 398.733,-150.931 347.085,-139.315"/>
<polygon fill="midnightblue" stroke="midnightblue" points="347.7,-135.866 337.175,-137.086 346.164,-142.695 347.7,-135.866"/>
</g>
<!-- Node17 -->
<g id="node17" class="node"><title>Node17</title>
<g id="a_node17"><a xlink:href="impl__reference__simd__float_8h.xhtml" target="_top" xlink:title="Reference implementation, SIMD single precision. ">
<polygon fill="white" stroke="black" points="610.5,-112.5 610.5,-142.5 717.5,-142.5 717.5,-112.5 610.5,-112.5"/>
<text text-anchor="start" x="618.5" y="-130.5" font-family="Helvetica,sans-Serif" font-size="10.00">impl_reference_simd</text>
<text text-anchor="middle" x="664" y="-119.5" font-family="Helvetica,sans-Serif" font-size="10.00">_float.h</text>
</a>
</g>
</g>
<!-- Node8&#45;&gt;Node17 -->
<g id="edge22" class="edge"><title>Node8&#45;&gt;Node17</title>
<path fill="none" stroke="midnightblue" d="M604.491,-179.396C614.848,-170.538 628.385,-158.96 639.93,-149.086"/>
<polygon fill="midnightblue" stroke="midnightblue" points="642.217,-151.736 647.541,-142.577 637.667,-146.416 642.217,-151.736"/>
</g>
<!-- Node12 -->
<g id="node12" class="node"><title>Node12</title>
<polygon fill="white" stroke="#bfbfbf" points="396,-56.5 396,-75.5 448,-75.5 448,-56.5 396,-56.5"/>
<text text-anchor="middle" x="422" y="-63.5" font-family="Helvetica,sans-Serif" font-size="10.00">stdarg.h</text>
</g>
<!-- Node11&#45;&gt;Node12 -->
<g id="edge16" class="edge"><title>Node11&#45;&gt;Node12</title>
<path fill="none" stroke="midnightblue" d="M316.623,-117.975C337.174,-108.034 371.364,-91.4947 395.207,-79.961"/>
<polygon fill="midnightblue" stroke="midnightblue" points="396.932,-83.0145 404.41,-75.5091 393.884,-76.7131 396.932,-83.0145"/>
</g>
<!-- Node13 -->
<g id="node13" class="node"><title>Node13</title>
<polygon fill="white" stroke="#bfbfbf" points="156,-56.5 156,-75.5 202,-75.5 202,-56.5 156,-56.5"/>
<text text-anchor="middle" x="179" y="-63.5" font-family="Helvetica,sans-Serif" font-size="10.00">stdio.h</text>
</g>
<!-- Node11&#45;&gt;Node13 -->
<g id="edge17" class="edge"><title>Node11&#45;&gt;Node13</title>
<path fill="none" stroke="midnightblue" d="M281.807,-117.975C261.757,-108.034 228.401,-91.4947 205.14,-79.961"/>
<polygon fill="midnightblue" stroke="midnightblue" points="206.675,-76.8157 196.161,-75.5091 203.566,-83.0871 206.675,-76.8157"/>
</g>
<!-- Node14 -->
<g id="node14" class="node"><title>Node14</title>
<g id="a_node14"><a xlink:href="basedefinitions_8h.xhtml" target="_top" xlink:title="Basic types and macros used throughout GROMACS. ">
<polygon fill="white" stroke="black" points="220.5,-56.5 220.5,-75.5 377.5,-75.5 377.5,-56.5 220.5,-56.5"/>
<text text-anchor="middle" x="299" y="-63.5" font-family="Helvetica,sans-Serif" font-size="10.00">gromacs/utility/basedefinitions.h</text>
</a>
</g>
</g>
<!-- Node11&#45;&gt;Node14 -->
<g id="edge18" class="edge"><title>Node11&#45;&gt;Node14</title>
<path fill="none" stroke="midnightblue" d="M299,-117.975C299,-109.58 299,-96.4806 299,-85.6631"/>
<polygon fill="midnightblue" stroke="midnightblue" points="302.5,-85.5091 299,-75.5091 295.5,-85.5091 302.5,-85.5091"/>
</g>
<!-- Node15 -->
<g id="node15" class="node"><title>Node15</title>
<polygon fill="white" stroke="#bfbfbf" points="238.5,-0.5 238.5,-19.5 287.5,-19.5 287.5,-0.5 238.5,-0.5"/>
<text text-anchor="middle" x="263" y="-7.5" font-family="Helvetica,sans-Serif" font-size="10.00">stdint.h</text>
</g>
<!-- Node14&#45;&gt;Node15 -->
<g id="edge19" class="edge"><title>Node14&#45;&gt;Node15</title>
<path fill="none" stroke="midnightblue" d="M293.055,-56.083C288.023,-48.5341 280.663,-37.4948 274.487,-28.2298"/>
<polygon fill="midnightblue" stroke="midnightblue" points="277.293,-26.1301 268.834,-19.7511 271.469,-30.0131 277.293,-26.1301"/>
</g>
<!-- Node16 -->
<g id="node16" class="node"><title>Node16</title>
<polygon fill="white" stroke="#bfbfbf" points="305.5,-0.5 305.5,-19.5 364.5,-19.5 364.5,-0.5 305.5,-0.5"/>
<text text-anchor="middle" x="335" y="-7.5" font-family="Helvetica,sans-Serif" font-size="10.00">inttypes.h</text>
</g>
<!-- Node14&#45;&gt;Node16 -->
<g id="edge20" class="edge"><title>Node14&#45;&gt;Node16</title>
<path fill="none" stroke="midnightblue" d="M304.945,-56.083C309.977,-48.5341 317.337,-37.4948 323.513,-28.2298"/>
<polygon fill="midnightblue" stroke="midnightblue" points="326.531,-30.0131 329.166,-19.7511 320.707,-26.1301 326.531,-30.0131"/>
</g>
<!-- Node17&#45;&gt;Node2 -->
<g id="edge23" class="edge"><title>Node17&#45;&gt;Node2</title>
<path fill="none" stroke="midnightblue" d="M623.238,-112.399C593.776,-102.207 554.411,-88.5898 526.501,-78.935"/>
<polygon fill="midnightblue" stroke="midnightblue" points="527.371,-75.5325 516.776,-75.5709 525.083,-82.1479 527.371,-75.5325"/>
</g>
<!-- Node17&#45;&gt;Node3 -->
<g id="edge24" class="edge"><title>Node17&#45;&gt;Node3</title>
<path fill="none" stroke="midnightblue" d="M639.353,-112.399C622.683,-102.862 600.769,-90.3248 584.195,-80.8422"/>
<polygon fill="midnightblue" stroke="midnightblue" points="585.551,-77.5858 575.133,-75.6578 582.075,-83.6617 585.551,-77.5858"/>
</g>
<!-- Node17&#45;&gt;Node4 -->
<g id="edge26" class="edge"><title>Node17&#45;&gt;Node4</title>
<path fill="none" stroke="midnightblue" d="M655.232,-112.399C650.021,-104.021 643.371,-93.3269 637.834,-84.4229"/>
<polygon fill="midnightblue" stroke="midnightblue" points="640.637,-82.3015 632.384,-75.6578 634.692,-85.9981 640.637,-82.3015"/>
</g>
<!-- Node17&#45;&gt;Node5 -->
<g id="edge27" class="edge"><title>Node17&#45;&gt;Node5</title>
<path fill="none" stroke="midnightblue" d="M701.207,-112.399C727.784,-102.327 763.189,-88.9093 788.605,-79.2769"/>
<polygon fill="midnightblue" stroke="midnightblue" points="790.044,-82.4745 798.155,-75.6578 787.564,-75.9288 790.044,-82.4745"/>
</g>
<!-- Node17&#45;&gt;Node6 -->
<g id="edge28" class="edge"><title>Node17&#45;&gt;Node6</title>
<path fill="none" stroke="midnightblue" d="M717.273,-112.475C758.664,-101.577 815.06,-86.7298 851.985,-77.0084"/>
<polygon fill="midnightblue" stroke="midnightblue" points="853.075,-80.3406 861.855,-74.4099 851.293,-73.5713 853.075,-80.3406"/>
</g>
<!-- Node17&#45;&gt;Node7 -->
<g id="edge30" class="edge"><title>Node17&#45;&gt;Node7</title>
<path fill="none" stroke="midnightblue" d="M610.381,-121.574C518.238,-113.041 323.635,-94.7218 148.493,-76.1439"/>
<polygon fill="midnightblue" stroke="midnightblue" points="148.63,-72.6388 138.316,-75.0617 147.889,-79.5995 148.63,-72.6388"/>
</g>
<!-- Node17&#45;&gt;Node9 -->
<g id="edge25" class="edge"><title>Node17&#45;&gt;Node9</title>
<path fill="none" stroke="midnightblue" d="M671.11,-112.399C675.289,-104.11 680.611,-93.5542 685.072,-84.7077"/>
<polygon fill="midnightblue" stroke="midnightblue" points="688.258,-86.1628 689.635,-75.6578 682.007,-83.0112 688.258,-86.1628"/>
</g>
<!-- Node17&#45;&gt;Node10 -->
<g id="edge29" class="edge"><title>Node17&#45;&gt;Node10</title>
<path fill="none" stroke="midnightblue" d="M686.277,-112.399C701.203,-102.951 720.781,-90.5589 735.71,-81.1089"/>
<polygon fill="midnightblue" stroke="midnightblue" points="737.745,-83.9636 744.322,-75.6578 734.001,-78.0489 737.745,-83.9636"/>
</g>
</g>
</svg>
