<?xml version="1.0" encoding="UTF-8" standalone="no"?>
<!DOCTYPE svg PUBLIC "-//W3C//DTD SVG 1.1//EN"
 "http://www.w3.org/Graphics/SVG/1.1/DTD/svg11.dtd">
<!-- Generated by graphviz version 2.38.0 (20140413.2041)
 -->
<!-- Title: Graphical Class Hierarchy Pages: 1 -->
<svg width="355pt" height="66pt"
 viewBox="0.00 0.00 355.00 66.00" xmlns="http://www.w3.org/2000/svg" xmlns:xlink="http://www.w3.org/1999/xlink">
<g id="graph0" class="graph" transform="scale(1 1) rotate(0) translate(4 62)">
<title>Graphical Class Hierarchy</title>
<polygon fill="white" stroke="none" points="-4,4 -4,-62 351,-62 351,4 -4,4"/>
<!-- Node1 -->
<g id="node1" class="node"><title>Node1</title>
<g id="a_node1"><a xlink:href="classgmx_1_1AbstractOptionSection.xhtml" target="_top" xlink:title="Base class for specifying option section properties. ">
<polygon fill="white" stroke="black" points="0,-19.5 0,-38.5 140,-38.5 140,-19.5 0,-19.5"/>
<text text-anchor="middle" x="70" y="-26.5" font-family="Helvetica,sans-Serif" font-size="10.00">gmx::AbstractOptionSection</text>
</a>
</g>
</g>
<!-- Node2 -->
<g id="node2" class="node"><title>Node2</title>
<g id="a_node2"><a xlink:href="classgmx_1_1OptionSection.xhtml" target="_top" xlink:title="Declares a simple option section. ">
<polygon fill="white" stroke="black" points="210,-38.5 210,-57.5 313,-57.5 313,-38.5 210,-38.5"/>
<text text-anchor="middle" x="261.5" y="-45.5" font-family="Helvetica,sans-Serif" font-size="10.00">gmx::OptionSection</text>
</a>
</g>
</g>
<!-- Node1&#45;&gt;Node2 -->
<g id="edge1" class="edge"><title>Node1&#45;&gt;Node2</title>
<path fill="none" stroke="midnightblue" d="M150.33,-36.954C170.479,-38.9741 191.583,-41.0901 209.866,-42.9233"/>
<polygon fill="midnightblue" stroke="midnightblue" points="150.518,-33.4553 140.218,-35.9401 149.819,-40.4204 150.518,-33.4553"/>
</g>
<!-- Node3 -->
<g id="node3" class="node"><title>Node3</title>
<g id="a_node3"><a xlink:href="classgmx_1_1RepeatingOptionSection.xhtml" target="_top" xlink:title="Declares an option section that creates a structure for each instance. ">
<polygon fill="white" stroke="black" points="176,-0.5 176,-19.5 347,-19.5 347,-0.5 176,-0.5"/>
<text text-anchor="middle" x="261.5" y="-7.5" font-family="Helvetica,sans-Serif" font-size="10.00">gmx::RepeatingOptionSection&lt; T &gt;</text>
</a>
</g>
</g>
<!-- Node1&#45;&gt;Node3 -->
<g id="edge2" class="edge"><title>Node1&#45;&gt;Node3</title>
<path fill="none" stroke="midnightblue" d="M150.424,-21.0366C158.874,-20.1894 167.492,-19.3254 175.997,-18.4725"/>
<polygon fill="midnightblue" stroke="midnightblue" points="149.819,-17.5796 140.218,-22.0599 150.518,-24.5447 149.819,-17.5796"/>
</g>
</g>
</svg>
