<?xml version="1.0" encoding="UTF-8" standalone="no"?>
<!DOCTYPE svg PUBLIC "-//W3C//DTD SVG 1.1//EN"
 "http://www.w3.org/Graphics/SVG/1.1/DTD/svg11.dtd">
<!-- Generated by graphviz version 2.38.0 (20140413.2041)
 -->
<!-- Title: Graphical Class Hierarchy Pages: 1 -->
<svg width="229pt" height="88pt"
 viewBox="0.00 0.00 229.00 88.00" xmlns="http://www.w3.org/2000/svg" xmlns:xlink="http://www.w3.org/1999/xlink">
<g id="graph0" class="graph" transform="scale(1 1) rotate(0) translate(4 84)">
<title>Graphical Class Hierarchy</title>
<polygon fill="white" stroke="none" points="-4,4 -4,-84 225,-84 225,4 -4,4"/>
<!-- Node1 -->
<g id="node1" class="node"><title>Node1</title>
<g id="a_node1"><a xlink:title="STL class. ">
<polygon fill="white" stroke="#bfbfbf" points="0,-30 0,-49 82,-49 82,-30 0,-30"/>
<text text-anchor="middle" x="41" y="-37" font-family="Helvetica,sans-Serif" font-size="10.00">std::array&lt; T &gt;</text>
</a>
</g>
</g>
<!-- Node2 -->
<g id="node2" class="node"><title>Node2</title>
<g id="a_node2"><a xlink:href="structgmx_1_1AlignedArray_3_01double_00_01N_01_4.xhtml" target="_top" xlink:title="Identical to std::array with GMX_SIMD_DOUBLE_WIDTH alignment. Should not be deleted through base poin...">
<polygon fill="white" stroke="black" points="118,-49.5 118,-79.5 221,-79.5 221,-49.5 118,-49.5"/>
<text text-anchor="start" x="126" y="-67.5" font-family="Helvetica,sans-Serif" font-size="10.00">gmx::AlignedArray&lt;</text>
<text text-anchor="middle" x="169.5" y="-56.5" font-family="Helvetica,sans-Serif" font-size="10.00"> double, N &gt;</text>
</a>
</g>
</g>
<!-- Node1&#45;&gt;Node2 -->
<g id="edge1" class="edge"><title>Node1&#45;&gt;Node2</title>
<path fill="none" stroke="midnightblue" d="M92.0629,-49.3938C100.458,-51.053 109.178,-52.7763 117.594,-54.4396"/>
<polygon fill="midnightblue" stroke="midnightblue" points="92.5143,-45.9154 82.0254,-47.4102 91.157,-52.7826 92.5143,-45.9154"/>
</g>
<!-- Node3 -->
<g id="node3" class="node"><title>Node3</title>
<g id="a_node3"><a xlink:href="structgmx_1_1AlignedArray_3_01float_00_01N_01_4.xhtml" target="_top" xlink:title="Identical to std::array with GMX_SIMD_FLOAT_WIDTH alignment. Should not be deleted through base point...">
<polygon fill="white" stroke="black" points="118,-0.5 118,-30.5 221,-30.5 221,-0.5 118,-0.5"/>
<text text-anchor="start" x="126" y="-18.5" font-family="Helvetica,sans-Serif" font-size="10.00">gmx::AlignedArray&lt;</text>
<text text-anchor="middle" x="169.5" y="-7.5" font-family="Helvetica,sans-Serif" font-size="10.00"> float, N &gt;</text>
</a>
</g>
</g>
<!-- Node1&#45;&gt;Node3 -->
<g id="edge2" class="edge"><title>Node1&#45;&gt;Node3</title>
<path fill="none" stroke="midnightblue" d="M92.0629,-30.0019C100.458,-28.4091 109.178,-26.7548 117.594,-25.158"/>
<polygon fill="midnightblue" stroke="midnightblue" points="91.1977,-26.6035 82.0254,-31.9062 92.5026,-33.4808 91.1977,-26.6035"/>
</g>
</g>
</svg>
