<?xml version="1.0" encoding="UTF-8" standalone="no"?>
<!DOCTYPE svg PUBLIC "-//W3C//DTD SVG 1.1//EN"
 "http://www.w3.org/Graphics/SVG/1.1/DTD/svg11.dtd">
<!-- Generated by graphviz version 2.38.0 (20140413.2041)
 -->
<!-- Title: src/gromacs/options/ioptionscontainer.h Pages: 1 -->
<svg width="570pt" height="408pt"
 viewBox="0.00 0.00 570.00 408.00" xmlns="http://www.w3.org/2000/svg" xmlns:xlink="http://www.w3.org/1999/xlink">
<g id="graph0" class="graph" transform="scale(1 1) rotate(0) translate(4 404)">
<title>src/gromacs/options/ioptionscontainer.h</title>
<polygon fill="white" stroke="none" points="-4,4 -4,-404 566,-404 566,4 -4,4"/>
<!-- Node1 -->
<g id="node1" class="node"><title>Node1</title>
<polygon fill="#bfbfbf" stroke="black" points="48,-369.5 48,-399.5 153,-399.5 153,-369.5 48,-369.5"/>
<text text-anchor="start" x="56" y="-387.5" font-family="Helvetica,sans-Serif" font-size="10.00">src/gromacs/options</text>
<text text-anchor="middle" x="100.5" y="-376.5" font-family="Helvetica,sans-Serif" font-size="10.00">/ioptionscontainer.h</text>
</g>
<!-- Node2 -->
<g id="node2" class="node"><title>Node2</title>
<g id="a_node2"><a xlink:href="ioptionscontainerwithsections_8h.xhtml" target="_top" xlink:title="Declares gmx::IOptionsContainerWithSections. ">
<polygon fill="white" stroke="black" points="150.5,-302.5 150.5,-332.5 306.5,-332.5 306.5,-302.5 150.5,-302.5"/>
<text text-anchor="start" x="158.5" y="-320.5" font-family="Helvetica,sans-Serif" font-size="10.00">src/gromacs/options</text>
<text text-anchor="middle" x="228.5" y="-309.5" font-family="Helvetica,sans-Serif" font-size="10.00">/ioptionscontainerwithsections.h</text>
</a>
</g>
</g>
<!-- Node1&#45;&gt;Node2 -->
<g id="edge1" class="edge"><title>Node1&#45;&gt;Node2</title>
<path fill="none" stroke="midnightblue" d="M137.22,-364.853C157.458,-354.576 182.174,-342.025 200.78,-332.577"/>
<polygon fill="midnightblue" stroke="midnightblue" points="135.606,-361.747 128.274,-369.396 138.775,-367.989 135.606,-361.747"/>
</g>
<!-- Node8 -->
<g id="node8" class="node"><title>Node8</title>
<g id="a_node8"><a xlink:href="options_8h.xhtml" target="_top" xlink:title="Public API convenience header for handling of options. ">
<polygon fill="white" stroke="black" points="0,-112.5 0,-131.5 113,-131.5 113,-112.5 0,-112.5"/>
<text text-anchor="middle" x="56.5" y="-119.5" font-family="Helvetica,sans-Serif" font-size="10.00">src/gromacs/options.h</text>
</a>
</g>
</g>
<!-- Node1&#45;&gt;Node8 -->
<g id="edge15" class="edge"><title>Node1&#45;&gt;Node8</title>
<path fill="none" stroke="midnightblue" d="M86.8552,-360.221C67.7747,-326.18 34.0517,-260.202 21.5,-199 18.732,-185.503 17.0286,-181.032 21.5,-168 26.5108,-153.396 38.4115,-139.88 46.9444,-131.55"/>
<polygon fill="midnightblue" stroke="midnightblue" points="84.0538,-362.374 92.0432,-369.333 90.1369,-358.911 84.0538,-362.374"/>
</g>
<!-- Node3 -->
<g id="node3" class="node"><title>Node3</title>
<g id="a_node3"><a xlink:href="abstractsection_8h.xhtml" target="_top" xlink:title="Declares base classes for declaring option sections. ">
<polygon fill="white" stroke="black" points="334,-235.5 334,-265.5 439,-265.5 439,-235.5 334,-235.5"/>
<text text-anchor="start" x="342" y="-253.5" font-family="Helvetica,sans-Serif" font-size="10.00">src/gromacs/options</text>
<text text-anchor="middle" x="386.5" y="-242.5" font-family="Helvetica,sans-Serif" font-size="10.00">/abstractsection.h</text>
</a>
</g>
</g>
<!-- Node2&#45;&gt;Node3 -->
<g id="edge2" class="edge"><title>Node2&#45;&gt;Node3</title>
<path fill="none" stroke="midnightblue" d="M272.146,-298.544C297.429,-288.143 328.798,-275.238 352.283,-265.577"/>
<polygon fill="midnightblue" stroke="midnightblue" points="270.7,-295.355 262.784,-302.396 273.363,-301.828 270.7,-295.355"/>
</g>
<!-- Node5 -->
<g id="node5" class="node"><title>Node5</title>
<g id="a_node5"><a xlink:href="repeatingsection_8h.xhtml" target="_top" xlink:title="Declares gmx::RepeatingOptionSection and related classes. ">
<polygon fill="white" stroke="black" points="334,-168.5 334,-198.5 439,-198.5 439,-168.5 334,-168.5"/>
<text text-anchor="start" x="342" y="-186.5" font-family="Helvetica,sans-Serif" font-size="10.00">src/gromacs/options</text>
<text text-anchor="middle" x="386.5" y="-175.5" font-family="Helvetica,sans-Serif" font-size="10.00">/repeatingsection.h</text>
</a>
</g>
</g>
<!-- Node2&#45;&gt;Node5 -->
<g id="edge14" class="edge"><title>Node2&#45;&gt;Node5</title>
<path fill="none" stroke="midnightblue" d="M253.127,-295.724C272.708,-279.225 300.817,-255.586 325.5,-235 340.282,-222.672 357.139,-208.724 369.381,-198.616"/>
<polygon fill="midnightblue" stroke="midnightblue" points="250.682,-293.207 245.291,-302.328 255.193,-298.56 250.682,-293.207"/>
</g>
<!-- Node6 -->
<g id="node6" class="node"><title>Node6</title>
<g id="a_node6"><a xlink:href="options_2options_8h.xhtml" target="_top" xlink:title="Declares gmx::Options. ">
<polygon fill="white" stroke="black" points="75,-235.5 75,-265.5 180,-265.5 180,-235.5 75,-235.5"/>
<text text-anchor="start" x="83" y="-253.5" font-family="Helvetica,sans-Serif" font-size="10.00">src/gromacs/options</text>
<text text-anchor="middle" x="127.5" y="-242.5" font-family="Helvetica,sans-Serif" font-size="10.00">/options.h</text>
</a>
</g>
</g>
<!-- Node2&#45;&gt;Node6 -->
<g id="edge5" class="edge"><title>Node2&#45;&gt;Node6</title>
<path fill="none" stroke="midnightblue" d="M197.786,-296.734C182.157,-286.676 163.525,-274.685 149.373,-265.577"/>
<polygon fill="midnightblue" stroke="midnightblue" points="196.281,-299.927 206.585,-302.396 200.07,-294.041 196.281,-299.927"/>
</g>
<!-- Node4 -->
<g id="node4" class="node"><title>Node4</title>
<g id="a_node4"><a xlink:href="optionsection_8h.xhtml" target="_top" xlink:title="Declares gmx::OptionSection and gmx::OptionSectionInfo. ">
<polygon fill="white" stroke="black" points="457,-168.5 457,-198.5 562,-198.5 562,-168.5 457,-168.5"/>
<text text-anchor="start" x="465" y="-186.5" font-family="Helvetica,sans-Serif" font-size="10.00">src/gromacs/options</text>
<text text-anchor="middle" x="509.5" y="-175.5" font-family="Helvetica,sans-Serif" font-size="10.00">/optionsection.h</text>
</a>
</g>
</g>
<!-- Node3&#45;&gt;Node4 -->
<g id="edge3" class="edge"><title>Node3&#45;&gt;Node4</title>
<path fill="none" stroke="midnightblue" d="M422.048,-230.714C441.447,-220.463 465.064,-207.983 482.863,-198.577"/>
<polygon fill="midnightblue" stroke="midnightblue" points="420.395,-227.629 413.189,-235.396 423.666,-233.818 420.395,-227.629"/>
</g>
<!-- Node3&#45;&gt;Node5 -->
<g id="edge4" class="edge"><title>Node3&#45;&gt;Node5</title>
<path fill="none" stroke="midnightblue" d="M386.5,-225.108C386.5,-216.154 386.5,-206.323 386.5,-198.577"/>
<polygon fill="midnightblue" stroke="midnightblue" points="383,-225.396 386.5,-235.396 390,-225.396 383,-225.396"/>
</g>
<!-- Node7 -->
<g id="node7" class="node"><title>Node7</title>
<g id="a_node7"><a xlink:href="filenameoptionmanager_8h.xhtml" target="_top" xlink:title="Declares gmx::FileNameOptionManager. ">
<polygon fill="white" stroke="black" points="38.5,-168.5 38.5,-198.5 166.5,-198.5 166.5,-168.5 38.5,-168.5"/>
<text text-anchor="start" x="46.5" y="-186.5" font-family="Helvetica,sans-Serif" font-size="10.00">src/gromacs/options</text>
<text text-anchor="middle" x="102.5" y="-175.5" font-family="Helvetica,sans-Serif" font-size="10.00">/filenameoptionmanager.h</text>
</a>
</g>
</g>
<!-- Node6&#45;&gt;Node7 -->
<g id="edge6" class="edge"><title>Node6&#45;&gt;Node7</title>
<path fill="none" stroke="midnightblue" d="M118.458,-225.991C114.925,-216.804 110.992,-206.578 107.914,-198.577"/>
<polygon fill="midnightblue" stroke="midnightblue" points="115.219,-227.319 122.075,-235.396 121.752,-224.806 115.219,-227.319"/>
</g>
<!-- Node6&#45;&gt;Node8 -->
<g id="edge10" class="edge"><title>Node6&#45;&gt;Node8</title>
<path fill="none" stroke="midnightblue" d="M67.0709,-231.11C52.2477,-223.593 38.1633,-213.21 29.5,-199 15.9427,-176.762 36.339,-146.719 48.5068,-131.952"/>
<polygon fill="midnightblue" stroke="midnightblue" points="65.8109,-234.384 76.3542,-235.428 68.7632,-228.037 65.8109,-234.384"/>
</g>
<!-- Node11 -->
<g id="node11" class="node"><title>Node11</title>
<g id="a_node11"><a xlink:href="selectionoptionmanager_8h.xhtml" target="_top" xlink:title="Declares gmx::SelectionOptionManager. ">
<polygon fill="white" stroke="black" points="185,-168.5 185,-198.5 316,-198.5 316,-168.5 185,-168.5"/>
<text text-anchor="start" x="193" y="-186.5" font-family="Helvetica,sans-Serif" font-size="10.00">src/gromacs/selection</text>
<text text-anchor="middle" x="250.5" y="-175.5" font-family="Helvetica,sans-Serif" font-size="10.00">/selectionoptionmanager.h</text>
</a>
</g>
</g>
<!-- Node6&#45;&gt;Node11 -->
<g id="edge11" class="edge"><title>Node6&#45;&gt;Node11</title>
<path fill="none" stroke="midnightblue" d="M163.048,-230.714C182.447,-220.463 206.064,-207.983 223.863,-198.577"/>
<polygon fill="midnightblue" stroke="midnightblue" points="161.395,-227.629 154.189,-235.396 164.666,-233.818 161.395,-227.629"/>
</g>
<!-- Node7&#45;&gt;Node8 -->
<g id="edge7" class="edge"><title>Node7&#45;&gt;Node8</title>
<path fill="none" stroke="midnightblue" d="M85.4176,-160.404C77.6917,-150.411 69.01,-139.181 63.1934,-131.658"/>
<polygon fill="midnightblue" stroke="midnightblue" points="82.7132,-162.629 91.5986,-168.399 88.2512,-158.347 82.7132,-162.629"/>
</g>
<!-- Node9 -->
<g id="node9" class="node"><title>Node9</title>
<g id="a_node9"><a xlink:href="trajectoryanalysis_8h.xhtml" target="_top" xlink:title="Public API convenience header for trajectory analysis framework. ">
<polygon fill="white" stroke="black" points="59.5,-56.5 59.5,-75.5 217.5,-75.5 217.5,-56.5 59.5,-56.5"/>
<text text-anchor="middle" x="138.5" y="-63.5" font-family="Helvetica,sans-Serif" font-size="10.00">src/gromacs/trajectoryanalysis.h</text>
</a>
</g>
</g>
<!-- Node8&#45;&gt;Node9 -->
<g id="edge8" class="edge"><title>Node8&#45;&gt;Node9</title>
<path fill="none" stroke="midnightblue" d="M78.3331,-106.622C93.3129,-96.7574 112.697,-83.9919 125.358,-75.6545"/>
<polygon fill="midnightblue" stroke="midnightblue" points="76.1015,-103.901 69.6747,-112.324 79.9514,-109.747 76.1015,-103.901"/>
</g>
<!-- Node10 -->
<g id="node10" class="node"><title>Node10</title>
<g id="a_node10"><a xlink:href="template_8cpp.xhtml" target="_top" xlink:title="Template code for writing analysis programs. ">
<polygon fill="white" stroke="black" points="68.5,-0.5 68.5,-19.5 208.5,-19.5 208.5,-0.5 68.5,-0.5"/>
<text text-anchor="middle" x="138.5" y="-7.5" font-family="Helvetica,sans-Serif" font-size="10.00">share/template/template.cpp</text>
</a>
</g>
</g>
<!-- Node9&#45;&gt;Node10 -->
<g id="edge9" class="edge"><title>Node9&#45;&gt;Node10</title>
<path fill="none" stroke="midnightblue" d="M138.5,-45.8045C138.5,-36.9102 138.5,-26.7798 138.5,-19.7511"/>
<polygon fill="midnightblue" stroke="midnightblue" points="135,-46.083 138.5,-56.083 142,-46.083 135,-46.083"/>
</g>
<!-- Node12 -->
<g id="node12" class="node"><title>Node12</title>
<g id="a_node12"><a xlink:href="selection_8h.xhtml" target="_top" xlink:title="Public API convenience header for selection handling. ">
<polygon fill="white" stroke="black" points="160,-112.5 160,-131.5 281,-131.5 281,-112.5 160,-112.5"/>
<text text-anchor="middle" x="220.5" y="-119.5" font-family="Helvetica,sans-Serif" font-size="10.00">src/gromacs/selection.h</text>
</a>
</g>
</g>
<!-- Node11&#45;&gt;Node12 -->
<g id="edge12" class="edge"><title>Node11&#45;&gt;Node12</title>
<path fill="none" stroke="midnightblue" d="M238.752,-159.199C233.871,-149.519 228.507,-138.881 224.865,-131.658"/>
<polygon fill="midnightblue" stroke="midnightblue" points="235.763,-161.046 243.39,-168.399 242.013,-157.894 235.763,-161.046"/>
</g>
<!-- Node12&#45;&gt;Node9 -->
<g id="edge13" class="edge"><title>Node12&#45;&gt;Node9</title>
<path fill="none" stroke="midnightblue" d="M198.667,-106.622C183.687,-96.7574 164.303,-83.9919 151.642,-75.6545"/>
<polygon fill="midnightblue" stroke="midnightblue" points="197.049,-109.747 207.325,-112.324 200.899,-103.901 197.049,-109.747"/>
</g>
</g>
</svg>
