<?xml version="1.0" encoding="UTF-8" standalone="no"?>
<!DOCTYPE svg PUBLIC "-//W3C//DTD SVG 1.1//EN"
 "http://www.w3.org/Graphics/SVG/1.1/DTD/svg11.dtd">
<!-- Generated by graphviz version 2.38.0 (20140413.2041)
 -->
<!-- Title: src/gromacs/utility/loggerbuilder.h Pages: 1 -->
<svg width="341pt" height="151pt"
 viewBox="0.00 0.00 341.14 151.00" xmlns="http://www.w3.org/2000/svg" xmlns:xlink="http://www.w3.org/1999/xlink">
<g id="graph0" class="graph" transform="scale(1 1) rotate(0) translate(4 147)">
<title>src/gromacs/utility/loggerbuilder.h</title>
<polygon fill="white" stroke="none" points="-4,4 -4,-147 337.139,-147 337.139,4 -4,4"/>
<!-- Node1 -->
<g id="node1" class="node"><title>Node1</title>
<polygon fill="#bfbfbf" stroke="black" points="87.6386,-112.5 87.6386,-142.5 184.639,-142.5 184.639,-112.5 87.6386,-112.5"/>
<text text-anchor="start" x="95.6386" y="-130.5" font-family="Helvetica,sans-Serif" font-size="10.00">src/gromacs/utility</text>
<text text-anchor="middle" x="136.139" y="-119.5" font-family="Helvetica,sans-Serif" font-size="10.00">/loggerbuilder.h</text>
</g>
<!-- Node2 -->
<g id="node2" class="node"><title>Node2</title>
<polygon fill="white" stroke="#bfbfbf" points="9.13862,-0.5 9.13862,-19.5 61.1386,-19.5 61.1386,-0.5 9.13862,-0.5"/>
<text text-anchor="middle" x="35.1386" y="-7.5" font-family="Helvetica,sans-Serif" font-size="10.00">memory</text>
</g>
<!-- Node1&#45;&gt;Node2 -->
<g id="edge1" class="edge"><title>Node1&#45;&gt;Node2</title>
<path fill="none" stroke="midnightblue" d="M87.4746,-121.479C58.0693,-115.653 22.7767,-103.086 4.13862,-76 -6.52545,-60.5023 6.05612,-40.7671 18.2413,-27.1297"/>
<polygon fill="midnightblue" stroke="midnightblue" points="20.7956,-29.5229 25.1913,-19.883 15.7435,-24.6777 20.7956,-29.5229"/>
</g>
<!-- Node3 -->
<g id="node3" class="node"><title>Node3</title>
<polygon fill="white" stroke="#bfbfbf" points="209.639,-0.5 209.639,-19.5 250.639,-19.5 250.639,-0.5 209.639,-0.5"/>
<text text-anchor="middle" x="230.139" y="-7.5" font-family="Helvetica,sans-Serif" font-size="10.00">string</text>
</g>
<!-- Node1&#45;&gt;Node3 -->
<g id="edge2" class="edge"><title>Node1&#45;&gt;Node3</title>
<path fill="none" stroke="midnightblue" d="M147.665,-112.337C165.14,-90.865 198.259,-50.1718 216.768,-27.4293"/>
<polygon fill="midnightblue" stroke="midnightblue" points="219.485,-29.6348 223.083,-19.6695 214.056,-25.2162 219.485,-29.6348"/>
</g>
<!-- Node4 -->
<g id="node4" class="node"><title>Node4</title>
<g id="a_node4"><a xlink:href="classhelpers_8h.xhtml" target="_top" xlink:title="Declares common utility classes and macros. ">
<polygon fill="white" stroke="black" points="13.1386,-56.5 13.1386,-75.5 159.139,-75.5 159.139,-56.5 13.1386,-56.5"/>
<text text-anchor="middle" x="86.1386" y="-63.5" font-family="Helvetica,sans-Serif" font-size="10.00">gromacs/utility/classhelpers.h</text>
</a>
</g>
</g>
<!-- Node1&#45;&gt;Node4 -->
<g id="edge3" class="edge"><title>Node1&#45;&gt;Node4</title>
<path fill="none" stroke="midnightblue" d="M124.289,-112.399C117.024,-103.753 107.686,-92.642 100.068,-83.576"/>
<polygon fill="midnightblue" stroke="midnightblue" points="102.527,-81.0619 93.4141,-75.6578 97.168,-85.5653 102.527,-81.0619"/>
</g>
<!-- Node5 -->
<g id="node5" class="node"><title>Node5</title>
<g id="a_node5"><a xlink:href="logger_8h.xhtml" target="_top" xlink:title="Declares functionality for logging. ">
<polygon fill="white" stroke="black" points="215.139,-56.5 215.139,-75.5 333.139,-75.5 333.139,-56.5 215.139,-56.5"/>
<text text-anchor="middle" x="274.139" y="-63.5" font-family="Helvetica,sans-Serif" font-size="10.00">gromacs/utility/logger.h</text>
</a>
</g>
</g>
<!-- Node1&#45;&gt;Node5 -->
<g id="edge5" class="edge"><title>Node1&#45;&gt;Node5</title>
<path fill="none" stroke="midnightblue" d="M168.843,-112.399C191.893,-102.461 222.499,-89.2649 244.77,-79.6625"/>
<polygon fill="midnightblue" stroke="midnightblue" points="246.261,-82.8311 254.058,-75.6578 243.49,-76.4031 246.261,-82.8311"/>
</g>
<!-- Node4&#45;&gt;Node2 -->
<g id="edge4" class="edge"><title>Node4&#45;&gt;Node2</title>
<path fill="none" stroke="midnightblue" d="M77.717,-56.083C70.2904,-48.2195 59.287,-36.5688 50.3265,-27.0813"/>
<polygon fill="midnightblue" stroke="midnightblue" points="52.8143,-24.618 43.4035,-19.7511 47.7252,-29.4244 52.8143,-24.618"/>
</g>
<!-- Node5&#45;&gt;Node3 -->
<g id="edge6" class="edge"><title>Node5&#45;&gt;Node3</title>
<path fill="none" stroke="midnightblue" d="M266.873,-56.083C260.594,-48.3768 251.351,-37.0333 243.708,-27.6531"/>
<polygon fill="midnightblue" stroke="midnightblue" points="246.299,-25.2926 237.269,-19.7511 240.873,-29.7143 246.299,-25.2926"/>
</g>
</g>
</svg>
