<?xml version="1.0" encoding="UTF-8" standalone="no"?>
<!DOCTYPE svg PUBLIC "-//W3C//DTD SVG 1.1//EN"
 "http://www.w3.org/Graphics/SVG/1.1/DTD/svg11.dtd">
<!-- Generated by graphviz version 2.38.0 (20140413.2041)
 -->
<!-- Title: src/gromacs/mdtypes/md_enums.h Pages: 1 -->
<svg width="377pt" height="240pt"
 viewBox="0.00 0.00 377.00 240.00" xmlns="http://www.w3.org/2000/svg" xmlns:xlink="http://www.w3.org/1999/xlink">
<g id="graph0" class="graph" transform="scale(1 1) rotate(0) translate(4 236)">
<title>src/gromacs/mdtypes/md_enums.h</title>
<polygon fill="white" stroke="none" points="-4,4 -4,-236 373,-236 373,4 -4,4"/>
<!-- Node1 -->
<g id="node1" class="node"><title>Node1</title>
<polygon fill="#bfbfbf" stroke="black" points="129,-201.5 129,-231.5 240,-231.5 240,-201.5 129,-201.5"/>
<text text-anchor="start" x="137" y="-219.5" font-family="Helvetica,sans-Serif" font-size="10.00">src/gromacs/mdtypes</text>
<text text-anchor="middle" x="184.5" y="-208.5" font-family="Helvetica,sans-Serif" font-size="10.00">/md_enums.h</text>
</g>
<!-- Node2 -->
<g id="node2" class="node"><title>Node2</title>
<g id="a_node2"><a xlink:href="awh-params_8h.xhtml" target="_top" xlink:title="Declares AWH parameter data types. ">
<polygon fill="white" stroke="black" points="0,-134.5 0,-164.5 111,-164.5 111,-134.5 0,-134.5"/>
<text text-anchor="start" x="8" y="-152.5" font-family="Helvetica,sans-Serif" font-size="10.00">src/gromacs/mdtypes</text>
<text text-anchor="middle" x="55.5" y="-141.5" font-family="Helvetica,sans-Serif" font-size="10.00">/awh&#45;params.h</text>
</a>
</g>
</g>
<!-- Node1&#45;&gt;Node2 -->
<g id="edge1" class="edge"><title>Node1&#45;&gt;Node2</title>
<path fill="none" stroke="midnightblue" d="M147.493,-196.853C127.097,-186.576 102.188,-174.025 83.4365,-164.577"/>
<polygon fill="midnightblue" stroke="midnightblue" points="146.004,-200.022 156.509,-201.396 149.153,-193.77 146.004,-200.022"/>
</g>
<!-- Node3 -->
<g id="node3" class="node"><title>Node3</title>
<g id="a_node3"><a xlink:href="pull-params_8h.xhtml" target="_top" xlink:title="This file contains datatypes for the mdp options used by the pull code. ">
<polygon fill="white" stroke="black" points="129,-134.5 129,-164.5 240,-164.5 240,-134.5 129,-134.5"/>
<text text-anchor="start" x="137" y="-152.5" font-family="Helvetica,sans-Serif" font-size="10.00">src/gromacs/mdtypes</text>
<text text-anchor="middle" x="184.5" y="-141.5" font-family="Helvetica,sans-Serif" font-size="10.00">/pull&#45;params.h</text>
</a>
</g>
</g>
<!-- Node1&#45;&gt;Node3 -->
<g id="edge2" class="edge"><title>Node1&#45;&gt;Node3</title>
<path fill="none" stroke="midnightblue" d="M184.5,-191.108C184.5,-182.154 184.5,-172.323 184.5,-164.577"/>
<polygon fill="midnightblue" stroke="midnightblue" points="181,-191.396 184.5,-201.396 188,-191.396 181,-191.396"/>
</g>
<!-- Node6 -->
<g id="node6" class="node"><title>Node6</title>
<g id="a_node6"><a xlink:href="state_8h.xhtml" target="_top" xlink:title="This file contains the definition of the microstate of the simulated system. ">
<polygon fill="white" stroke="black" points="258,-134.5 258,-164.5 369,-164.5 369,-134.5 258,-134.5"/>
<text text-anchor="start" x="266" y="-152.5" font-family="Helvetica,sans-Serif" font-size="10.00">src/gromacs/mdtypes</text>
<text text-anchor="middle" x="313.5" y="-141.5" font-family="Helvetica,sans-Serif" font-size="10.00">/state.h</text>
</a>
</g>
</g>
<!-- Node1&#45;&gt;Node6 -->
<g id="edge6" class="edge"><title>Node1&#45;&gt;Node6</title>
<path fill="none" stroke="midnightblue" d="M221.507,-196.853C241.903,-186.576 266.812,-174.025 285.564,-164.577"/>
<polygon fill="midnightblue" stroke="midnightblue" points="219.847,-193.77 212.491,-201.396 222.996,-200.022 219.847,-193.77"/>
</g>
<!-- Node4 -->
<g id="node4" class="node"><title>Node4</title>
<g id="a_node4"><a xlink:href="pull_8h.xhtml" target="_top" xlink:title="This file contains datatypes and function declarations necessary for mdrun to interface with the pull...">
<polygon fill="white" stroke="black" points="133,-0.5 133,-30.5 234,-30.5 234,-0.5 133,-0.5"/>
<text text-anchor="start" x="141" y="-18.5" font-family="Helvetica,sans-Serif" font-size="10.00">src/gromacs/pulling</text>
<text text-anchor="middle" x="183.5" y="-7.5" font-family="Helvetica,sans-Serif" font-size="10.00">/pull.h</text>
</a>
</g>
</g>
<!-- Node3&#45;&gt;Node4 -->
<g id="edge3" class="edge"><title>Node3&#45;&gt;Node4</title>
<path fill="none" stroke="midnightblue" d="M173.154,-125.21C169.65,-116.837 166.253,-107.188 164.5,-98 161.918,-84.4664 162.034,-80.5554 164.5,-67 166.813,-54.2817 172.154,-40.6006 176.586,-30.6905"/>
<polygon fill="midnightblue" stroke="midnightblue" points="169.959,-126.639 177.224,-134.35 176.353,-123.791 169.959,-126.639"/>
</g>
<!-- Node5 -->
<g id="node5" class="node"><title>Node5</title>
<g id="a_node5"><a xlink:href="pull__internal_8h.xhtml" target="_top" xlink:title="This file contains datatypes and function declarations for internal use in the pull code...">
<polygon fill="white" stroke="black" points="173,-67.5 173,-97.5 274,-97.5 274,-67.5 173,-67.5"/>
<text text-anchor="start" x="181" y="-85.5" font-family="Helvetica,sans-Serif" font-size="10.00">src/gromacs/pulling</text>
<text text-anchor="middle" x="223.5" y="-74.5" font-family="Helvetica,sans-Serif" font-size="10.00">/pull_internal.h</text>
</a>
</g>
</g>
<!-- Node3&#45;&gt;Node5 -->
<g id="edge4" class="edge"><title>Node3&#45;&gt;Node5</title>
<path fill="none" stroke="midnightblue" d="M198.255,-125.576C203.856,-116.241 210.151,-105.748 215.054,-97.5765"/>
<polygon fill="midnightblue" stroke="midnightblue" points="195.106,-124.02 192.962,-134.396 201.109,-127.622 195.106,-124.02"/>
</g>
<!-- Node5&#45;&gt;Node4 -->
<g id="edge5" class="edge"><title>Node5&#45;&gt;Node4</title>
<path fill="none" stroke="midnightblue" d="M209.572,-58.8669C203.783,-49.4594 197.244,-38.8334 192.162,-30.5765"/>
<polygon fill="midnightblue" stroke="midnightblue" points="206.599,-60.7137 214.821,-67.396 212.56,-57.045 206.599,-60.7137"/>
</g>
</g>
</svg>
