<?xml version="1.0" encoding="UTF-8" standalone="no"?>
<!DOCTYPE svg PUBLIC "-//W3C//DTD SVG 1.1//EN"
 "http://www.w3.org/Graphics/SVG/1.1/DTD/svg11.dtd">
<!-- Generated by graphviz version 2.38.0 (20140413.2041)
 -->
<!-- Title: src/gromacs/analysisdata/tests/mock_datamodule.h Pages: 1 -->
<svg width="946pt" height="341pt"
 viewBox="0.00 0.00 946.00 341.00" xmlns="http://www.w3.org/2000/svg" xmlns:xlink="http://www.w3.org/1999/xlink">
<g id="graph0" class="graph" transform="scale(1 1) rotate(0) translate(4 337)">
<title>src/gromacs/analysisdata/tests/mock_datamodule.h</title>
<polygon fill="white" stroke="none" points="-4,4 -4,-337 942,-337 942,4 -4,4"/>
<!-- Node1 -->
<g id="node1" class="node"><title>Node1</title>
<polygon fill="#bfbfbf" stroke="black" points="480,-302.5 480,-332.5 612,-332.5 612,-302.5 480,-302.5"/>
<text text-anchor="start" x="488" y="-320.5" font-family="Helvetica,sans-Serif" font-size="10.00">src/gromacs/analysisdata</text>
<text text-anchor="middle" x="546" y="-309.5" font-family="Helvetica,sans-Serif" font-size="10.00">/tests/mock_datamodule.h</text>
</g>
<!-- Node2 -->
<g id="node2" class="node"><title>Node2</title>
<polygon fill="white" stroke="#bfbfbf" points="720,-179.5 720,-198.5 772,-198.5 772,-179.5 720,-179.5"/>
<text text-anchor="middle" x="746" y="-186.5" font-family="Helvetica,sans-Serif" font-size="10.00">memory</text>
</g>
<!-- Node1&#45;&gt;Node2 -->
<g id="edge1" class="edge"><title>Node1&#45;&gt;Node2</title>
<path fill="none" stroke="midnightblue" d="M535.023,-302.255C522.873,-284.633 506.985,-254.57 523,-235 546.195,-206.657 652.817,-195.763 709.817,-191.911"/>
<polygon fill="midnightblue" stroke="midnightblue" points="710.094,-195.401 719.851,-191.271 709.649,-188.415 710.094,-195.401"/>
</g>
<!-- Node3 -->
<g id="node3" class="node"><title>Node3</title>
<polygon fill="white" stroke="#bfbfbf" points="390,-241 390,-260 476,-260 476,-241 390,-241"/>
<text text-anchor="middle" x="433" y="-248" font-family="Helvetica,sans-Serif" font-size="10.00">gmock/gmock.h</text>
</g>
<!-- Node1&#45;&gt;Node3 -->
<g id="edge2" class="edge"><title>Node1&#45;&gt;Node3</title>
<path fill="none" stroke="midnightblue" d="M521.481,-302.396C502.268,-291.344 475.698,-276.061 456.699,-265.132"/>
<polygon fill="midnightblue" stroke="midnightblue" points="458.203,-261.959 447.789,-260.007 454.712,-268.027 458.203,-261.959"/>
</g>
<!-- Node4 -->
<g id="node4" class="node"><title>Node4</title>
<g id="a_node4"><a xlink:href="dataframe_8h.xhtml" target="_top" xlink:title="Declares classes for accessing data frame information. ">
<polygon fill="white" stroke="black" points="260,-235.5 260,-265.5 372,-265.5 372,-235.5 260,-235.5"/>
<text text-anchor="start" x="268" y="-253.5" font-family="Helvetica,sans-Serif" font-size="10.00">gromacs/analysisdata</text>
<text text-anchor="middle" x="316" y="-242.5" font-family="Helvetica,sans-Serif" font-size="10.00">/dataframe.h</text>
</a>
</g>
</g>
<!-- Node1&#45;&gt;Node4 -->
<g id="edge3" class="edge"><title>Node1&#45;&gt;Node4</title>
<path fill="none" stroke="midnightblue" d="M496.377,-302.476C460.979,-292.472 413.207,-278.971 375.718,-268.377"/>
<polygon fill="midnightblue" stroke="midnightblue" points="376.506,-264.962 365.931,-265.611 374.602,-271.699 376.506,-264.962"/>
</g>
<!-- Node19 -->
<g id="node19" class="node"><title>Node19</title>
<g id="a_node19"><a xlink:href="datamodule_8h.xhtml" target="_top" xlink:title="Declares gmx::IAnalysisDataModule and related convenience classes. ">
<polygon fill="white" stroke="black" points="532,-235.5 532,-265.5 644,-265.5 644,-235.5 532,-235.5"/>
<text text-anchor="start" x="540" y="-253.5" font-family="Helvetica,sans-Serif" font-size="10.00">gromacs/analysisdata</text>
<text text-anchor="middle" x="588" y="-242.5" font-family="Helvetica,sans-Serif" font-size="10.00">/datamodule.h</text>
</a>
</g>
</g>
<!-- Node1&#45;&gt;Node19 -->
<g id="edge20" class="edge"><title>Node1&#45;&gt;Node19</title>
<path fill="none" stroke="midnightblue" d="M555.113,-302.396C560.452,-294.134 567.319,-283.507 573.396,-274.102"/>
<polygon fill="midnightblue" stroke="midnightblue" points="576.417,-275.875 578.904,-265.577 570.537,-272.076 576.417,-275.875"/>
</g>
<!-- Node20 -->
<g id="node20" class="node"><title>Node20</title>
<g id="a_node20"><a xlink:href="paralleloptions_8h.xhtml" target="_top" xlink:title="Declares gmx::AnalysisDataParallelOptions. ">
<polygon fill="white" stroke="black" points="662,-235.5 662,-265.5 774,-265.5 774,-235.5 662,-235.5"/>
<text text-anchor="start" x="670" y="-253.5" font-family="Helvetica,sans-Serif" font-size="10.00">gromacs/analysisdata</text>
<text text-anchor="middle" x="718" y="-242.5" font-family="Helvetica,sans-Serif" font-size="10.00">/paralleloptions.h</text>
</a>
</g>
</g>
<!-- Node1&#45;&gt;Node20 -->
<g id="edge21" class="edge"><title>Node1&#45;&gt;Node20</title>
<path fill="none" stroke="midnightblue" d="M583.321,-302.396C609.129,-292.643 643.656,-279.595 671.29,-269.152"/>
<polygon fill="midnightblue" stroke="midnightblue" points="672.634,-272.386 680.751,-265.577 670.16,-265.838 672.634,-272.386"/>
</g>
<!-- Node21 -->
<g id="node21" class="node"><title>Node21</title>
<g id="a_node21"><a xlink:href="classhelpers_8h.xhtml" target="_top" xlink:title="Declares common utility classes and macros. ">
<polygon fill="white" stroke="black" points="792,-241 792,-260 938,-260 938,-241 792,-241"/>
<text text-anchor="middle" x="865" y="-248" font-family="Helvetica,sans-Serif" font-size="10.00">gromacs/utility/classhelpers.h</text>
</a>
</g>
</g>
<!-- Node1&#45;&gt;Node21 -->
<g id="edge22" class="edge"><title>Node1&#45;&gt;Node21</title>
<path fill="none" stroke="midnightblue" d="M612.097,-303.032C671.712,-290.885 758.206,-273.261 813.012,-262.093"/>
<polygon fill="midnightblue" stroke="midnightblue" points="813.763,-265.512 822.863,-260.086 812.366,-258.653 813.763,-265.512"/>
</g>
<!-- Node5 -->
<g id="node5" class="node"><title>Node5</title>
<polygon fill="white" stroke="#bfbfbf" points="0,-123.5 0,-142.5 44,-142.5 44,-123.5 0,-123.5"/>
<text text-anchor="middle" x="22" y="-130.5" font-family="Helvetica,sans-Serif" font-size="10.00">vector</text>
</g>
<!-- Node4&#45;&gt;Node5 -->
<g id="edge4" class="edge"><title>Node4&#45;&gt;Node5</title>
<path fill="none" stroke="midnightblue" d="M263.138,-235.447C230.872,-226.3 189.034,-213.414 153,-199 114.748,-183.699 72.3557,-161.68 46.4406,-147.606"/>
<polygon fill="midnightblue" stroke="midnightblue" points="47.8102,-144.366 37.3581,-142.633 44.4478,-150.506 47.8102,-144.366"/>
</g>
<!-- Node6 -->
<g id="node6" class="node"><title>Node6</title>
<g id="a_node6"><a xlink:href="arrayref_8h.xhtml" target="_top" xlink:title="Declares gmx::ArrayRef. ">
<polygon fill="white" stroke="black" points="162.5,-179.5 162.5,-198.5 287.5,-198.5 287.5,-179.5 162.5,-179.5"/>
<text text-anchor="middle" x="225" y="-186.5" font-family="Helvetica,sans-Serif" font-size="10.00">gromacs/utility/arrayref.h</text>
</a>
</g>
</g>
<!-- Node4&#45;&gt;Node6 -->
<g id="edge5" class="edge"><title>Node4&#45;&gt;Node6</title>
<path fill="none" stroke="midnightblue" d="M294.434,-235.399C280.12,-226.04 261.388,-213.792 246.989,-204.377"/>
<polygon fill="midnightblue" stroke="midnightblue" points="248.526,-201.201 238.241,-198.658 244.696,-207.06 248.526,-201.201"/>
</g>
<!-- Node12 -->
<g id="node12" class="node"><title>Node12</title>
<g id="a_node12"><a xlink:href="gmxassert_8h.xhtml" target="_top" xlink:title="Defines assert macros customized for Gromacs. ">
<polygon fill="white" stroke="black" points="387.5,-123.5 387.5,-142.5 524.5,-142.5 524.5,-123.5 387.5,-123.5"/>
<text text-anchor="middle" x="456" y="-130.5" font-family="Helvetica,sans-Serif" font-size="10.00">gromacs/utility/gmxassert.h</text>
</a>
</g>
</g>
<!-- Node4&#45;&gt;Node12 -->
<g id="edge18" class="edge"><title>Node4&#45;&gt;Node12</title>
<path fill="none" stroke="midnightblue" d="M316.139,-235.253C317.046,-219.579 320.827,-194.554 335,-179 349.987,-162.554 371.547,-152.095 392.329,-145.455"/>
<polygon fill="midnightblue" stroke="midnightblue" points="393.507,-148.756 402.114,-142.578 391.533,-142.04 393.507,-148.756"/>
</g>
<!-- Node17 -->
<g id="node17" class="node"><title>Node17</title>
<g id="a_node17"><a xlink:href="flags_8h.xhtml" target="_top" xlink:title="Declares gmx::FlagsTemplate. ">
<polygon fill="white" stroke="black" points="344.5,-179.5 344.5,-198.5 457.5,-198.5 457.5,-179.5 344.5,-179.5"/>
<text text-anchor="middle" x="401" y="-186.5" font-family="Helvetica,sans-Serif" font-size="10.00">gromacs/utility/flags.h</text>
</a>
</g>
</g>
<!-- Node4&#45;&gt;Node17 -->
<g id="edge17" class="edge"><title>Node4&#45;&gt;Node17</title>
<path fill="none" stroke="midnightblue" d="M336.144,-235.399C349.387,-226.129 366.678,-214.025 380.076,-204.647"/>
<polygon fill="midnightblue" stroke="midnightblue" points="382.447,-207.26 388.632,-198.658 378.432,-201.525 382.447,-207.26"/>
</g>
<!-- Node18 -->
<g id="node18" class="node"><title>Node18</title>
<g id="a_node18"><a xlink:href="real_8h.xhtml" target="_top" xlink:title="Declares real and related constants. ">
<polygon fill="white" stroke="black" points="475.5,-179.5 475.5,-198.5 582.5,-198.5 582.5,-179.5 475.5,-179.5"/>
<text text-anchor="middle" x="529" y="-186.5" font-family="Helvetica,sans-Serif" font-size="10.00">gromacs/utility/real.h</text>
</a>
</g>
</g>
<!-- Node4&#45;&gt;Node18 -->
<g id="edge19" class="edge"><title>Node4&#45;&gt;Node18</title>
<path fill="none" stroke="midnightblue" d="M366.208,-235.475C403.597,-225.03 453.975,-210.958 488.738,-201.247"/>
<polygon fill="midnightblue" stroke="midnightblue" points="489.859,-204.568 498.549,-198.506 487.976,-197.826 489.859,-204.568"/>
</g>
<!-- Node6&#45;&gt;Node5 -->
<g id="edge11" class="edge"><title>Node6&#45;&gt;Node5</title>
<path fill="none" stroke="midnightblue" d="M191.312,-179.469C158.619,-171.128 107.357,-157.885 54.2622,-143.299"/>
<polygon fill="midnightblue" stroke="midnightblue" points="54.9015,-139.844 44.3309,-140.56 53.0407,-146.593 54.9015,-139.844"/>
</g>
<!-- Node7 -->
<g id="node7" class="node"><title>Node7</title>
<polygon fill="white" stroke="#bfbfbf" points="263.5,-123.5 263.5,-142.5 312.5,-142.5 312.5,-123.5 263.5,-123.5"/>
<text text-anchor="middle" x="288" y="-130.5" font-family="Helvetica,sans-Serif" font-size="10.00">cstddef</text>
</g>
<!-- Node6&#45;&gt;Node7 -->
<g id="edge6" class="edge"><title>Node6&#45;&gt;Node7</title>
<path fill="none" stroke="midnightblue" d="M235.122,-179.324C244.526,-171.263 258.744,-159.077 270.069,-149.369"/>
<polygon fill="midnightblue" stroke="midnightblue" points="272.379,-151.999 277.694,-142.834 267.823,-146.684 272.379,-151.999"/>
</g>
<!-- Node8 -->
<g id="node8" class="node"><title>Node8</title>
<polygon fill="white" stroke="#bfbfbf" points="331,-123.5 331,-142.5 369,-142.5 369,-123.5 331,-123.5"/>
<text text-anchor="middle" x="350" y="-130.5" font-family="Helvetica,sans-Serif" font-size="10.00">array</text>
</g>
<!-- Node6&#45;&gt;Node8 -->
<g id="edge7" class="edge"><title>Node6&#45;&gt;Node8</title>
<path fill="none" stroke="midnightblue" d="M244.807,-179.444C265.407,-170.544 297.862,-156.524 321.276,-146.409"/>
<polygon fill="midnightblue" stroke="midnightblue" points="322.905,-149.518 330.697,-142.339 320.129,-143.092 322.905,-149.518"/>
</g>
<!-- Node9 -->
<g id="node9" class="node"><title>Node9</title>
<polygon fill="white" stroke="#bfbfbf" points="62.5,-123.5 62.5,-142.5 109.5,-142.5 109.5,-123.5 62.5,-123.5"/>
<text text-anchor="middle" x="86" y="-130.5" font-family="Helvetica,sans-Serif" font-size="10.00">iterator</text>
</g>
<!-- Node6&#45;&gt;Node9 -->
<g id="edge8" class="edge"><title>Node6&#45;&gt;Node9</title>
<path fill="none" stroke="midnightblue" d="M202.975,-179.444C179.896,-170.478 143.438,-156.314 117.359,-146.183"/>
<polygon fill="midnightblue" stroke="midnightblue" points="118.511,-142.875 107.922,-142.516 115.976,-149.4 118.511,-142.875"/>
</g>
<!-- Node10 -->
<g id="node10" class="node"><title>Node10</title>
<polygon fill="white" stroke="#bfbfbf" points="127.5,-123.5 127.5,-142.5 186.5,-142.5 186.5,-123.5 127.5,-123.5"/>
<text text-anchor="middle" x="157" y="-130.5" font-family="Helvetica,sans-Serif" font-size="10.00">stdexcept</text>
</g>
<!-- Node6&#45;&gt;Node10 -->
<g id="edge9" class="edge"><title>Node6&#45;&gt;Node10</title>
<path fill="none" stroke="midnightblue" d="M214.075,-179.324C203.825,-171.185 188.279,-158.839 175.999,-149.087"/>
<polygon fill="midnightblue" stroke="midnightblue" points="178.132,-146.312 168.124,-142.834 173.779,-151.794 178.132,-146.312"/>
</g>
<!-- Node11 -->
<g id="node11" class="node"><title>Node11</title>
<polygon fill="white" stroke="#bfbfbf" points="205,-123.5 205,-142.5 245,-142.5 245,-123.5 205,-123.5"/>
<text text-anchor="middle" x="225" y="-130.5" font-family="Helvetica,sans-Serif" font-size="10.00">utility</text>
</g>
<!-- Node6&#45;&gt;Node11 -->
<g id="edge10" class="edge"><title>Node6&#45;&gt;Node11</title>
<path fill="none" stroke="midnightblue" d="M225,-179.083C225,-172.006 225,-161.861 225,-152.986"/>
<polygon fill="midnightblue" stroke="midnightblue" points="228.5,-152.751 225,-142.751 221.5,-152.751 228.5,-152.751"/>
</g>
<!-- Node6&#45;&gt;Node12 -->
<g id="edge12" class="edge"><title>Node6&#45;&gt;Node12</title>
<path fill="none" stroke="midnightblue" d="M261.603,-179.444C301.731,-170.063 366.198,-154.993 409.785,-144.804"/>
<polygon fill="midnightblue" stroke="midnightblue" points="410.628,-148.201 419.569,-142.516 409.034,-141.385 410.628,-148.201"/>
</g>
<!-- Node13 -->
<g id="node13" class="node"><title>Node13</title>
<g id="a_node13"><a xlink:href="basedefinitions_8h.xhtml" target="_top" xlink:title="Basic types and macros used throughout GROMACS. ">
<polygon fill="white" stroke="black" points="300.5,-62 300.5,-81 457.5,-81 457.5,-62 300.5,-62"/>
<text text-anchor="middle" x="379" y="-69" font-family="Helvetica,sans-Serif" font-size="10.00">gromacs/utility/basedefinitions.h</text>
</a>
</g>
</g>
<!-- Node12&#45;&gt;Node13 -->
<g id="edge13" class="edge"><title>Node12&#45;&gt;Node13</title>
<path fill="none" stroke="midnightblue" d="M444.968,-123.475C432.732,-114.02 412.771,-98.5961 398.007,-87.1871"/>
<polygon fill="midnightblue" stroke="midnightblue" points="400.065,-84.3541 390.012,-81.0091 395.785,-89.8931 400.065,-84.3541"/>
</g>
<!-- Node16 -->
<g id="node16" class="node"><title>Node16</title>
<g id="a_node16"><a xlink:href="current__function_8h.xhtml" target="_top" xlink:title="Declares GMX_CURRENT_FUNCTION for getting the current function name. ">
<polygon fill="white" stroke="black" points="475.5,-56.5 475.5,-86.5 588.5,-86.5 588.5,-56.5 475.5,-56.5"/>
<text text-anchor="start" x="483.5" y="-74.5" font-family="Helvetica,sans-Serif" font-size="10.00">gromacs/utility/current</text>
<text text-anchor="middle" x="532" y="-63.5" font-family="Helvetica,sans-Serif" font-size="10.00">_function.h</text>
</a>
</g>
</g>
<!-- Node12&#45;&gt;Node16 -->
<g id="edge16" class="edge"><title>Node12&#45;&gt;Node16</title>
<path fill="none" stroke="midnightblue" d="M466.889,-123.475C477.086,-115.492 492.717,-103.254 506.109,-92.7703"/>
<polygon fill="midnightblue" stroke="midnightblue" points="508.372,-95.4434 514.088,-86.523 504.057,-89.9316 508.372,-95.4434"/>
</g>
<!-- Node14 -->
<g id="node14" class="node"><title>Node14</title>
<polygon fill="white" stroke="#bfbfbf" points="318.5,-0.5 318.5,-19.5 367.5,-19.5 367.5,-0.5 318.5,-0.5"/>
<text text-anchor="middle" x="343" y="-7.5" font-family="Helvetica,sans-Serif" font-size="10.00">stdint.h</text>
</g>
<!-- Node13&#45;&gt;Node14 -->
<g id="edge14" class="edge"><title>Node13&#45;&gt;Node14</title>
<path fill="none" stroke="midnightblue" d="M373.842,-61.9751C368.549,-53.2268 360.165,-39.3691 353.473,-28.3093"/>
<polygon fill="midnightblue" stroke="midnightblue" points="356.32,-26.2531 348.148,-19.5091 350.33,-29.8768 356.32,-26.2531"/>
</g>
<!-- Node15 -->
<g id="node15" class="node"><title>Node15</title>
<polygon fill="white" stroke="#bfbfbf" points="385.5,-0.5 385.5,-19.5 444.5,-19.5 444.5,-0.5 385.5,-0.5"/>
<text text-anchor="middle" x="415" y="-7.5" font-family="Helvetica,sans-Serif" font-size="10.00">inttypes.h</text>
</g>
<!-- Node13&#45;&gt;Node15 -->
<g id="edge15" class="edge"><title>Node13&#45;&gt;Node15</title>
<path fill="none" stroke="midnightblue" d="M384.158,-61.9751C389.451,-53.2268 397.835,-39.3691 404.527,-28.3093"/>
<polygon fill="midnightblue" stroke="midnightblue" points="407.67,-29.8768 409.852,-19.5091 401.68,-26.2531 407.67,-29.8768"/>
</g>
<!-- Node21&#45;&gt;Node2 -->
<g id="edge23" class="edge"><title>Node21&#45;&gt;Node2</title>
<path fill="none" stroke="midnightblue" d="M847.95,-240.975C828.156,-231.078 795.283,-214.642 772.23,-203.115"/>
<polygon fill="midnightblue" stroke="midnightblue" points="773.528,-199.851 763.018,-198.509 770.397,-206.112 773.528,-199.851"/>
</g>
</g>
</svg>
