<?xml version="1.0" encoding="UTF-8" standalone="no"?>
<!DOCTYPE svg PUBLIC "-//W3C//DTD SVG 1.1//EN"
 "http://www.w3.org/Graphics/SVG/1.1/DTD/svg11.dtd">
<!-- Generated by graphviz version 2.38.0 (20140413.2041)
 -->
<!-- Title: src/gromacs/math/paddedvector.h Pages: 1 -->
<svg width="711pt" height="263pt"
 viewBox="0.00 0.00 711.00 263.00" xmlns="http://www.w3.org/2000/svg" xmlns:xlink="http://www.w3.org/1999/xlink">
<g id="graph0" class="graph" transform="scale(1 1) rotate(0) translate(4 259)">
<title>src/gromacs/math/paddedvector.h</title>
<polygon fill="white" stroke="none" points="-4,4 -4,-259 707,-259 707,4 -4,4"/>
<!-- Node1 -->
<g id="node1" class="node"><title>Node1</title>
<polygon fill="#bfbfbf" stroke="black" points="123.5,-235.5 123.5,-254.5 288.5,-254.5 288.5,-235.5 123.5,-235.5"/>
<text text-anchor="middle" x="206" y="-242.5" font-family="Helvetica,sans-Serif" font-size="10.00">src/gromacs/math/paddedvector.h</text>
</g>
<!-- Node2 -->
<g id="node2" class="node"><title>Node2</title>
<polygon fill="white" stroke="#bfbfbf" points="0,-179.5 0,-198.5 56,-198.5 56,-179.5 0,-179.5"/>
<text text-anchor="middle" x="28" y="-186.5" font-family="Helvetica,sans-Serif" font-size="10.00">algorithm</text>
</g>
<!-- Node1&#45;&gt;Node2 -->
<g id="edge1" class="edge"><title>Node1&#45;&gt;Node2</title>
<path fill="none" stroke="midnightblue" d="M177.795,-235.444C147.59,-226.28 99.4886,-211.688 65.9707,-201.519"/>
<polygon fill="midnightblue" stroke="midnightblue" points="66.6581,-198.07 56.0727,-198.516 64.6259,-204.769 66.6581,-198.07"/>
</g>
<!-- Node3 -->
<g id="node3" class="node"><title>Node3</title>
<polygon fill="white" stroke="#bfbfbf" points="209,-123.5 209,-142.5 253,-142.5 253,-123.5 209,-123.5"/>
<text text-anchor="middle" x="231" y="-130.5" font-family="Helvetica,sans-Serif" font-size="10.00">vector</text>
</g>
<!-- Node1&#45;&gt;Node3 -->
<g id="edge2" class="edge"><title>Node1&#45;&gt;Node3</title>
<path fill="none" stroke="midnightblue" d="M215.556,-235.45C224.088,-227.12 235.989,-213.604 241,-199 246.263,-183.661 242.608,-165.335 238.31,-152.057"/>
<polygon fill="midnightblue" stroke="midnightblue" points="241.594,-150.845 234.884,-142.645 235.016,-153.239 241.594,-150.845"/>
</g>
<!-- Node4 -->
<g id="node4" class="node"><title>Node4</title>
<g id="a_node4"><a xlink:href="alignedallocator_8h.xhtml" target="_top" xlink:title="Declares allocation policy classes and allocators that are used to make library containers compatible...">
<polygon fill="white" stroke="black" points="73.5,-179.5 73.5,-198.5 232.5,-198.5 232.5,-179.5 73.5,-179.5"/>
<text text-anchor="middle" x="153" y="-186.5" font-family="Helvetica,sans-Serif" font-size="10.00">gromacs/utility/alignedallocator.h</text>
</a>
</g>
</g>
<!-- Node1&#45;&gt;Node4 -->
<g id="edge3" class="edge"><title>Node1&#45;&gt;Node4</title>
<path fill="none" stroke="midnightblue" d="M197.248,-235.083C189.53,-227.22 178.095,-215.569 168.783,-206.081"/>
<polygon fill="midnightblue" stroke="midnightblue" points="171.092,-203.436 161.589,-198.751 166.096,-208.34 171.092,-203.436"/>
</g>
<!-- Node12 -->
<g id="node12" class="node"><title>Node12</title>
<g id="a_node12"><a xlink:href="arrayref_8h.xhtml" target="_top" xlink:title="Declares gmx::ArrayRef. ">
<polygon fill="white" stroke="black" points="329.5,-179.5 329.5,-198.5 454.5,-198.5 454.5,-179.5 329.5,-179.5"/>
<text text-anchor="middle" x="392" y="-186.5" font-family="Helvetica,sans-Serif" font-size="10.00">gromacs/utility/arrayref.h</text>
</a>
</g>
</g>
<!-- Node1&#45;&gt;Node12 -->
<g id="edge12" class="edge"><title>Node1&#45;&gt;Node12</title>
<path fill="none" stroke="midnightblue" d="M235.472,-235.444C267.171,-226.241 317.732,-211.562 352.775,-201.388"/>
<polygon fill="midnightblue" stroke="midnightblue" points="354.038,-204.666 362.666,-198.516 352.086,-197.943 354.038,-204.666"/>
</g>
<!-- Node5 -->
<g id="node5" class="node"><title>Node5</title>
<polygon fill="white" stroke="#bfbfbf" points="156.5,-62 156.5,-81 205.5,-81 205.5,-62 156.5,-62"/>
<text text-anchor="middle" x="181" y="-69" font-family="Helvetica,sans-Serif" font-size="10.00">cstddef</text>
</g>
<!-- Node4&#45;&gt;Node5 -->
<g id="edge4" class="edge"><title>Node4&#45;&gt;Node5</title>
<path fill="none" stroke="midnightblue" d="M155.105,-179.319C159.625,-160.673 170.347,-116.443 176.483,-91.1317"/>
<polygon fill="midnightblue" stroke="midnightblue" points="179.916,-91.8251 178.871,-81.282 173.113,-90.1759 179.916,-91.8251"/>
</g>
<!-- Node6 -->
<g id="node6" class="node"><title>Node6</title>
<g id="a_node6"><a xlink:href="allocator_8h.xhtml" target="_top" xlink:title="Declares gmx::Allocator template whose allocation functionality is configured both by type of object ...">
<polygon fill="white" stroke="black" points="25,-123.5 25,-142.5 153,-142.5 153,-123.5 25,-123.5"/>
<text text-anchor="middle" x="89" y="-130.5" font-family="Helvetica,sans-Serif" font-size="10.00">gromacs/utility/allocator.h</text>
</a>
</g>
</g>
<!-- Node4&#45;&gt;Node6 -->
<g id="edge5" class="edge"><title>Node4&#45;&gt;Node6</title>
<path fill="none" stroke="midnightblue" d="M142.717,-179.324C133.164,-171.263 118.72,-159.077 107.216,-149.369"/>
<polygon fill="midnightblue" stroke="midnightblue" points="109.37,-146.608 99.4698,-142.834 104.856,-151.958 109.37,-146.608"/>
</g>
<!-- Node6&#45;&gt;Node5 -->
<g id="edge6" class="edge"><title>Node6&#45;&gt;Node5</title>
<path fill="none" stroke="midnightblue" d="M102.181,-123.475C117.074,-113.843 141.544,-98.0175 159.273,-86.5517"/>
<polygon fill="midnightblue" stroke="midnightblue" points="161.347,-89.3787 167.843,-81.0091 157.545,-83.5008 161.347,-89.3787"/>
</g>
<!-- Node7 -->
<g id="node7" class="node"><title>Node7</title>
<polygon fill="white" stroke="#bfbfbf" points="17,-62 17,-81 69,-81 69,-62 17,-62"/>
<text text-anchor="middle" x="43" y="-69" font-family="Helvetica,sans-Serif" font-size="10.00">memory</text>
</g>
<!-- Node6&#45;&gt;Node7 -->
<g id="edge7" class="edge"><title>Node6&#45;&gt;Node7</title>
<path fill="none" stroke="midnightblue" d="M82.4093,-123.475C75.5093,-114.55 64.4979,-100.307 55.8665,-89.1425"/>
<polygon fill="midnightblue" stroke="midnightblue" points="58.4639,-86.7798 49.5785,-81.0091 52.9259,-91.0612 58.4639,-86.7798"/>
</g>
<!-- Node8 -->
<g id="node8" class="node"><title>Node8</title>
<polygon fill="white" stroke="#bfbfbf" points="87.5,-62 87.5,-81 122.5,-81 122.5,-62 87.5,-62"/>
<text text-anchor="middle" x="105" y="-69" font-family="Helvetica,sans-Serif" font-size="10.00">new</text>
</g>
<!-- Node6&#45;&gt;Node8 -->
<g id="edge8" class="edge"><title>Node6&#45;&gt;Node8</title>
<path fill="none" stroke="midnightblue" d="M91.2924,-123.475C93.5736,-114.992 97.1467,-101.704 100.073,-90.8222"/>
<polygon fill="midnightblue" stroke="midnightblue" points="103.495,-91.5749 102.712,-81.0091 96.735,-89.7571 103.495,-91.5749"/>
</g>
<!-- Node9 -->
<g id="node9" class="node"><title>Node9</title>
<g id="a_node9"><a xlink:href="basedefinitions_8h.xhtml" target="_top" xlink:title="Basic types and macros used throughout GROMACS. ">
<polygon fill="white" stroke="black" points="255.5,-62 255.5,-81 412.5,-81 412.5,-62 255.5,-62"/>
<text text-anchor="middle" x="334" y="-69" font-family="Helvetica,sans-Serif" font-size="10.00">gromacs/utility/basedefinitions.h</text>
</a>
</g>
</g>
<!-- Node6&#45;&gt;Node9 -->
<g id="edge9" class="edge"><title>Node6&#45;&gt;Node9</title>
<path fill="none" stroke="midnightblue" d="M124.103,-123.475C167.493,-112.937 241.409,-94.9863 288.947,-83.4415"/>
<polygon fill="midnightblue" stroke="midnightblue" points="290.071,-86.7703 298.963,-81.0091 288.419,-79.968 290.071,-86.7703"/>
</g>
<!-- Node10 -->
<g id="node10" class="node"><title>Node10</title>
<polygon fill="white" stroke="#bfbfbf" points="273.5,-0.5 273.5,-19.5 322.5,-19.5 322.5,-0.5 273.5,-0.5"/>
<text text-anchor="middle" x="298" y="-7.5" font-family="Helvetica,sans-Serif" font-size="10.00">stdint.h</text>
</g>
<!-- Node9&#45;&gt;Node10 -->
<g id="edge10" class="edge"><title>Node9&#45;&gt;Node10</title>
<path fill="none" stroke="midnightblue" d="M328.842,-61.9751C323.549,-53.2268 315.165,-39.3691 308.473,-28.3093"/>
<polygon fill="midnightblue" stroke="midnightblue" points="311.32,-26.2531 303.148,-19.5091 305.33,-29.8768 311.32,-26.2531"/>
</g>
<!-- Node11 -->
<g id="node11" class="node"><title>Node11</title>
<polygon fill="white" stroke="#bfbfbf" points="340.5,-0.5 340.5,-19.5 399.5,-19.5 399.5,-0.5 340.5,-0.5"/>
<text text-anchor="middle" x="370" y="-7.5" font-family="Helvetica,sans-Serif" font-size="10.00">inttypes.h</text>
</g>
<!-- Node9&#45;&gt;Node11 -->
<g id="edge11" class="edge"><title>Node9&#45;&gt;Node11</title>
<path fill="none" stroke="midnightblue" d="M339.158,-61.9751C344.451,-53.2268 352.835,-39.3691 359.527,-28.3093"/>
<polygon fill="midnightblue" stroke="midnightblue" points="362.67,-29.8768 364.852,-19.5091 356.68,-26.2531 362.67,-29.8768"/>
</g>
<!-- Node12&#45;&gt;Node3 -->
<g id="edge18" class="edge"><title>Node12&#45;&gt;Node3</title>
<path fill="none" stroke="midnightblue" d="M366.489,-179.444C338.448,-170.038 293.355,-154.914 262.974,-144.724"/>
<polygon fill="midnightblue" stroke="midnightblue" points="263.875,-141.335 253.281,-141.473 261.649,-147.971 263.875,-141.335"/>
</g>
<!-- Node12&#45;&gt;Node5 -->
<g id="edge13" class="edge"><title>Node12&#45;&gt;Node5</title>
<path fill="none" stroke="midnightblue" d="M373.453,-179.462C354.714,-170.711 325.036,-156.511 300,-143 265.673,-124.475 226.997,-101.074 203.312,-86.4442"/>
<polygon fill="midnightblue" stroke="midnightblue" points="205.06,-83.41 194.717,-81.1135 201.371,-89.3587 205.06,-83.41"/>
</g>
<!-- Node13 -->
<g id="node13" class="node"><title>Node13</title>
<polygon fill="white" stroke="#bfbfbf" points="665,-123.5 665,-142.5 703,-142.5 703,-123.5 665,-123.5"/>
<text text-anchor="middle" x="684" y="-130.5" font-family="Helvetica,sans-Serif" font-size="10.00">array</text>
</g>
<!-- Node12&#45;&gt;Node13 -->
<g id="edge14" class="edge"><title>Node12&#45;&gt;Node13</title>
<path fill="none" stroke="midnightblue" d="M454.655,-179.881C506.16,-172.625 581.137,-160.732 654.898,-142.986"/>
<polygon fill="midnightblue" stroke="midnightblue" points="655.94,-146.335 664.823,-140.561 654.278,-139.535 655.94,-146.335"/>
</g>
<!-- Node14 -->
<g id="node14" class="node"><title>Node14</title>
<polygon fill="white" stroke="#bfbfbf" points="309.5,-123.5 309.5,-142.5 356.5,-142.5 356.5,-123.5 309.5,-123.5"/>
<text text-anchor="middle" x="333" y="-130.5" font-family="Helvetica,sans-Serif" font-size="10.00">iterator</text>
</g>
<!-- Node12&#45;&gt;Node14 -->
<g id="edge15" class="edge"><title>Node12&#45;&gt;Node14</title>
<path fill="none" stroke="midnightblue" d="M382.521,-179.324C373.799,-171.341 360.657,-159.313 350.102,-149.653"/>
<polygon fill="midnightblue" stroke="midnightblue" points="352.392,-147.004 342.652,-142.834 347.666,-152.167 352.392,-147.004"/>
</g>
<!-- Node15 -->
<g id="node15" class="node"><title>Node15</title>
<polygon fill="white" stroke="#bfbfbf" points="374.5,-123.5 374.5,-142.5 433.5,-142.5 433.5,-123.5 374.5,-123.5"/>
<text text-anchor="middle" x="404" y="-130.5" font-family="Helvetica,sans-Serif" font-size="10.00">stdexcept</text>
</g>
<!-- Node12&#45;&gt;Node15 -->
<g id="edge16" class="edge"><title>Node12&#45;&gt;Node15</title>
<path fill="none" stroke="midnightblue" d="M393.982,-179.083C395.572,-171.927 397.859,-161.635 399.846,-152.691"/>
<polygon fill="midnightblue" stroke="midnightblue" points="403.303,-153.272 402.055,-142.751 396.469,-151.754 403.303,-153.272"/>
</g>
<!-- Node16 -->
<g id="node16" class="node"><title>Node16</title>
<polygon fill="white" stroke="#bfbfbf" points="607,-123.5 607,-142.5 647,-142.5 647,-123.5 607,-123.5"/>
<text text-anchor="middle" x="627" y="-130.5" font-family="Helvetica,sans-Serif" font-size="10.00">utility</text>
</g>
<!-- Node12&#45;&gt;Node16 -->
<g id="edge17" class="edge"><title>Node12&#45;&gt;Node16</title>
<path fill="none" stroke="midnightblue" d="M436.466,-179.435C476.238,-171.517 536.298,-158.931 597.032,-143.088"/>
<polygon fill="midnightblue" stroke="midnightblue" points="598.005,-146.451 606.783,-140.517 596.221,-139.682 598.005,-146.451"/>
</g>
<!-- Node17 -->
<g id="node17" class="node"><title>Node17</title>
<g id="a_node17"><a xlink:href="gmxassert_8h.xhtml" target="_top" xlink:title="Defines assert macros customized for Gromacs. ">
<polygon fill="white" stroke="black" points="451.5,-123.5 451.5,-142.5 588.5,-142.5 588.5,-123.5 451.5,-123.5"/>
<text text-anchor="middle" x="520" y="-130.5" font-family="Helvetica,sans-Serif" font-size="10.00">gromacs/utility/gmxassert.h</text>
</a>
</g>
</g>
<!-- Node12&#45;&gt;Node17 -->
<g id="edge19" class="edge"><title>Node12&#45;&gt;Node17</title>
<path fill="none" stroke="midnightblue" d="M412.282,-179.444C433.347,-170.557 466.517,-156.563 490.486,-146.451"/>
<polygon fill="midnightblue" stroke="midnightblue" points="491.96,-149.628 499.813,-142.516 489.239,-143.179 491.96,-149.628"/>
</g>
<!-- Node17&#45;&gt;Node9 -->
<g id="edge20" class="edge"><title>Node17&#45;&gt;Node9</title>
<path fill="none" stroke="midnightblue" d="M493.351,-123.475C461.031,-113.136 406.403,-95.6611 370.267,-84.1017"/>
<polygon fill="midnightblue" stroke="midnightblue" points="371.191,-80.7224 360.6,-81.0091 369.058,-87.3896 371.191,-80.7224"/>
</g>
<!-- Node18 -->
<g id="node18" class="node"><title>Node18</title>
<g id="a_node18"><a xlink:href="current__function_8h.xhtml" target="_top" xlink:title="Declares GMX_CURRENT_FUNCTION for getting the current function name. ">
<polygon fill="white" stroke="black" points="463.5,-56.5 463.5,-86.5 576.5,-86.5 576.5,-56.5 463.5,-56.5"/>
<text text-anchor="start" x="471.5" y="-74.5" font-family="Helvetica,sans-Serif" font-size="10.00">gromacs/utility/current</text>
<text text-anchor="middle" x="520" y="-63.5" font-family="Helvetica,sans-Serif" font-size="10.00">_function.h</text>
</a>
</g>
</g>
<!-- Node17&#45;&gt;Node18 -->
<g id="edge21" class="edge"><title>Node17&#45;&gt;Node18</title>
<path fill="none" stroke="midnightblue" d="M520,-123.475C520,-116.471 520,-106.192 520,-96.6956"/>
<polygon fill="midnightblue" stroke="midnightblue" points="523.5,-96.5229 520,-86.523 516.5,-96.523 523.5,-96.5229"/>
</g>
</g>
</svg>
