<?xml version="1.0" encoding="UTF-8" standalone="no"?>
<!DOCTYPE svg PUBLIC "-//W3C//DTD SVG 1.1//EN"
 "http://www.w3.org/Graphics/SVG/1.1/DTD/svg11.dtd">
<!-- Generated by graphviz version 2.38.0 (20140413.2041)
 -->
<!-- Title: src/gromacs/gpu_utils/pmalloc_cuda.h Pages: 1 -->
<svg width="232pt" height="151pt"
 viewBox="0.00 0.00 231.50 151.00" xmlns="http://www.w3.org/2000/svg" xmlns:xlink="http://www.w3.org/1999/xlink">
<g id="graph0" class="graph" transform="scale(1 1) rotate(0) translate(4 147)">
<title>src/gromacs/gpu_utils/pmalloc_cuda.h</title>
<polygon fill="white" stroke="none" points="-4,4 -4,-147 227.5,-147 227.5,4 -4,4"/>
<!-- Node1 -->
<g id="node1" class="node"><title>Node1</title>
<polygon fill="#bfbfbf" stroke="black" points="27.5,-112.5 27.5,-142.5 140.5,-142.5 140.5,-112.5 27.5,-112.5"/>
<text text-anchor="start" x="35.5" y="-130.5" font-family="Helvetica,sans-Serif" font-size="10.00">src/gromacs/gpu_utils</text>
<text text-anchor="middle" x="84" y="-119.5" font-family="Helvetica,sans-Serif" font-size="10.00">/pmalloc_cuda.h</text>
</g>
<!-- Node2 -->
<g id="node2" class="node"><title>Node2</title>
<polygon fill="white" stroke="#bfbfbf" points="0,-56.5 0,-75.5 48,-75.5 48,-56.5 0,-56.5"/>
<text text-anchor="middle" x="24" y="-63.5" font-family="Helvetica,sans-Serif" font-size="10.00">stdlib.h</text>
</g>
<!-- Node1&#45;&gt;Node2 -->
<g id="edge1" class="edge"><title>Node1&#45;&gt;Node2</title>
<path fill="none" stroke="midnightblue" d="M69.7808,-112.399C60.7925,-103.486 49.162,-91.9523 39.8731,-82.7408"/>
<polygon fill="midnightblue" stroke="midnightblue" points="42.2957,-80.214 32.7305,-75.6578 37.3666,-85.1844 42.2957,-80.214"/>
</g>
<!-- Node3 -->
<g id="node3" class="node"><title>Node3</title>
<g id="a_node3"><a xlink:href="basedefinitions_8h.xhtml" target="_top" xlink:title="Basic types and macros used throughout GROMACS. ">
<polygon fill="white" stroke="black" points="66.5,-56.5 66.5,-75.5 223.5,-75.5 223.5,-56.5 66.5,-56.5"/>
<text text-anchor="middle" x="145" y="-63.5" font-family="Helvetica,sans-Serif" font-size="10.00">gromacs/utility/basedefinitions.h</text>
</a>
</g>
</g>
<!-- Node1&#45;&gt;Node3 -->
<g id="edge2" class="edge"><title>Node1&#45;&gt;Node3</title>
<path fill="none" stroke="midnightblue" d="M98.4561,-112.399C107.594,-103.486 119.419,-91.9523 128.862,-82.7408"/>
<polygon fill="midnightblue" stroke="midnightblue" points="131.409,-85.1458 136.124,-75.6578 126.522,-80.1348 131.409,-85.1458"/>
</g>
<!-- Node4 -->
<g id="node4" class="node"><title>Node4</title>
<polygon fill="white" stroke="#bfbfbf" points="84.5,-0.5 84.5,-19.5 133.5,-19.5 133.5,-0.5 84.5,-0.5"/>
<text text-anchor="middle" x="109" y="-7.5" font-family="Helvetica,sans-Serif" font-size="10.00">stdint.h</text>
</g>
<!-- Node3&#45;&gt;Node4 -->
<g id="edge3" class="edge"><title>Node3&#45;&gt;Node4</title>
<path fill="none" stroke="midnightblue" d="M139.055,-56.083C134.023,-48.5341 126.663,-37.4948 120.487,-28.2298"/>
<polygon fill="midnightblue" stroke="midnightblue" points="123.293,-26.1301 114.834,-19.7511 117.469,-30.0131 123.293,-26.1301"/>
</g>
<!-- Node5 -->
<g id="node5" class="node"><title>Node5</title>
<polygon fill="white" stroke="#bfbfbf" points="151.5,-0.5 151.5,-19.5 210.5,-19.5 210.5,-0.5 151.5,-0.5"/>
<text text-anchor="middle" x="181" y="-7.5" font-family="Helvetica,sans-Serif" font-size="10.00">inttypes.h</text>
</g>
<!-- Node3&#45;&gt;Node5 -->
<g id="edge4" class="edge"><title>Node3&#45;&gt;Node5</title>
<path fill="none" stroke="midnightblue" d="M150.945,-56.083C155.977,-48.5341 163.337,-37.4948 169.513,-28.2298"/>
<polygon fill="midnightblue" stroke="midnightblue" points="172.531,-30.0131 175.166,-19.7511 166.707,-26.1301 172.531,-30.0131"/>
</g>
</g>
</svg>
