<?xml version="1.0" encoding="UTF-8" standalone="no"?>
<!DOCTYPE svg PUBLIC "-//W3C//DTD SVG 1.1//EN"
 "http://www.w3.org/Graphics/SVG/1.1/DTD/svg11.dtd">
<!-- Generated by graphviz version 2.38.0 (20140413.2041)
 -->
<!-- Title: src/testutils/refdata.h Pages: 1 -->
<svg width="493pt" height="140pt"
 viewBox="0.00 0.00 493.00 140.00" xmlns="http://www.w3.org/2000/svg" xmlns:xlink="http://www.w3.org/1999/xlink">
<g id="graph0" class="graph" transform="scale(1 1) rotate(0) translate(4 136)">
<title>src/testutils/refdata.h</title>
<polygon fill="white" stroke="none" points="-4,4 -4,-136 489,-136 489,4 -4,4"/>
<!-- Node1 -->
<g id="node1" class="node"><title>Node1</title>
<polygon fill="#bfbfbf" stroke="black" points="70,-112.5 70,-131.5 179,-131.5 179,-112.5 70,-112.5"/>
<text text-anchor="middle" x="124.5" y="-119.5" font-family="Helvetica,sans-Serif" font-size="10.00">src/testutils/refdata.h</text>
</g>
<!-- Node2 -->
<g id="node2" class="node"><title>Node2</title>
<polygon fill="white" stroke="#bfbfbf" points="0,-56.5 0,-75.5 47,-75.5 47,-56.5 0,-56.5"/>
<text text-anchor="middle" x="23.5" y="-63.5" font-family="Helvetica,sans-Serif" font-size="10.00">iterator</text>
</g>
<!-- Node1&#45;&gt;Node2 -->
<g id="edge1" class="edge"><title>Node1&#45;&gt;Node2</title>
<path fill="none" stroke="midnightblue" d="M108.273,-112.324C92.149,-103.703 67.1998,-90.3643 48.5359,-80.3855"/>
<polygon fill="midnightblue" stroke="midnightblue" points="50.1561,-77.283 39.6871,-75.6545 46.8556,-83.456 50.1561,-77.283"/>
</g>
<!-- Node3 -->
<g id="node3" class="node"><title>Node3</title>
<polygon fill="white" stroke="#bfbfbf" points="129.5,-0.5 129.5,-19.5 181.5,-19.5 181.5,-0.5 129.5,-0.5"/>
<text text-anchor="middle" x="155.5" y="-7.5" font-family="Helvetica,sans-Serif" font-size="10.00">memory</text>
</g>
<!-- Node1&#45;&gt;Node3 -->
<g id="edge2" class="edge"><title>Node1&#45;&gt;Node3</title>
<path fill="none" stroke="midnightblue" d="M115.472,-112.495C103.344,-99.9922 84.416,-75.97 94.5,-56 101.307,-42.5199 114.268,-32.083 126.498,-24.6696"/>
<polygon fill="midnightblue" stroke="midnightblue" points="128.57,-27.5214 135.594,-19.5896 125.157,-21.4099 128.57,-27.5214"/>
</g>
<!-- Node4 -->
<g id="node4" class="node"><title>Node4</title>
<polygon fill="white" stroke="#bfbfbf" points="104,-56.5 104,-75.5 145,-75.5 145,-56.5 104,-56.5"/>
<text text-anchor="middle" x="124.5" y="-63.5" font-family="Helvetica,sans-Serif" font-size="10.00">string</text>
</g>
<!-- Node1&#45;&gt;Node4 -->
<g id="edge3" class="edge"><title>Node1&#45;&gt;Node4</title>
<path fill="none" stroke="midnightblue" d="M124.5,-112.083C124.5,-105.006 124.5,-94.8611 124.5,-85.9865"/>
<polygon fill="midnightblue" stroke="midnightblue" points="128,-85.751 124.5,-75.7511 121,-85.7511 128,-85.751"/>
</g>
<!-- Node5 -->
<g id="node5" class="node"><title>Node5</title>
<g id="a_node5"><a xlink:href="basedefinitions_8h.xhtml" target="_top" xlink:title="Basic types and macros used throughout GROMACS. ">
<polygon fill="white" stroke="black" points="328,-56.5 328,-75.5 485,-75.5 485,-56.5 328,-56.5"/>
<text text-anchor="middle" x="406.5" y="-63.5" font-family="Helvetica,sans-Serif" font-size="10.00">gromacs/utility/basedefinitions.h</text>
</a>
</g>
</g>
<!-- Node1&#45;&gt;Node5 -->
<g id="edge4" class="edge"><title>Node1&#45;&gt;Node5</title>
<path fill="none" stroke="midnightblue" d="M169.184,-112.444C218.79,-102.944 298.865,-87.611 352.085,-77.4198"/>
<polygon fill="midnightblue" stroke="midnightblue" points="352.862,-80.8348 362.025,-75.5164 351.545,-73.9597 352.862,-80.8348"/>
</g>
<!-- Node8 -->
<g id="node8" class="node"><title>Node8</title>
<g id="a_node8"><a xlink:href="classhelpers_8h.xhtml" target="_top" xlink:title="Declares common utility classes and macros. ">
<polygon fill="white" stroke="black" points="163.5,-56.5 163.5,-75.5 309.5,-75.5 309.5,-56.5 163.5,-56.5"/>
<text text-anchor="middle" x="236.5" y="-63.5" font-family="Helvetica,sans-Serif" font-size="10.00">gromacs/utility/classhelpers.h</text>
</a>
</g>
</g>
<!-- Node1&#45;&gt;Node8 -->
<g id="edge7" class="edge"><title>Node1&#45;&gt;Node8</title>
<path fill="none" stroke="midnightblue" d="M142.495,-112.324C160.538,-103.625 188.547,-90.1202 209.303,-80.113"/>
<polygon fill="midnightblue" stroke="midnightblue" points="211.062,-83.1502 218.55,-75.6545 208.022,-76.8449 211.062,-83.1502"/>
</g>
<!-- Node6 -->
<g id="node6" class="node"><title>Node6</title>
<polygon fill="white" stroke="#bfbfbf" points="346,-0.5 346,-19.5 395,-19.5 395,-0.5 346,-0.5"/>
<text text-anchor="middle" x="370.5" y="-7.5" font-family="Helvetica,sans-Serif" font-size="10.00">stdint.h</text>
</g>
<!-- Node5&#45;&gt;Node6 -->
<g id="edge5" class="edge"><title>Node5&#45;&gt;Node6</title>
<path fill="none" stroke="midnightblue" d="M400.555,-56.083C395.523,-48.5341 388.163,-37.4948 381.987,-28.2298"/>
<polygon fill="midnightblue" stroke="midnightblue" points="384.793,-26.1301 376.334,-19.7511 378.969,-30.0131 384.793,-26.1301"/>
</g>
<!-- Node7 -->
<g id="node7" class="node"><title>Node7</title>
<polygon fill="white" stroke="#bfbfbf" points="413,-0.5 413,-19.5 472,-19.5 472,-0.5 413,-0.5"/>
<text text-anchor="middle" x="442.5" y="-7.5" font-family="Helvetica,sans-Serif" font-size="10.00">inttypes.h</text>
</g>
<!-- Node5&#45;&gt;Node7 -->
<g id="edge6" class="edge"><title>Node5&#45;&gt;Node7</title>
<path fill="none" stroke="midnightblue" d="M412.445,-56.083C417.477,-48.5341 424.837,-37.4948 431.013,-28.2298"/>
<polygon fill="midnightblue" stroke="midnightblue" points="434.031,-30.0131 436.666,-19.7511 428.207,-26.1301 434.031,-30.0131"/>
</g>
<!-- Node8&#45;&gt;Node3 -->
<g id="edge8" class="edge"><title>Node8&#45;&gt;Node3</title>
<path fill="none" stroke="midnightblue" d="M223.486,-56.324C210.968,-47.979 191.818,-35.2122 177.029,-25.3524"/>
<polygon fill="midnightblue" stroke="midnightblue" points="178.744,-22.2894 168.482,-19.6545 174.861,-28.1137 178.744,-22.2894"/>
</g>
</g>
</svg>
