<?xml version="1.0" encoding="UTF-8" standalone="no"?>
<!DOCTYPE svg PUBLIC "-//W3C//DTD SVG 1.1//EN"
 "http://www.w3.org/Graphics/SVG/1.1/DTD/svg11.dtd">
<!-- Generated by graphviz version 2.38.0 (20140413.2041)
 -->
<!-- Title: src/gromacs/simd/scalar/scalar_math.h Pages: 1 -->
<svg width="378pt" height="162pt"
 viewBox="0.00 0.00 378.00 162.00" xmlns="http://www.w3.org/2000/svg" xmlns:xlink="http://www.w3.org/1999/xlink">
<g id="graph0" class="graph" transform="scale(1 1) rotate(0) translate(4 158)">
<title>src/gromacs/simd/scalar/scalar_math.h</title>
<polygon fill="white" stroke="none" points="-4,4 -4,-158 374,-158 374,4 -4,4"/>
<!-- Node1 -->
<g id="node1" class="node"><title>Node1</title>
<polygon fill="#bfbfbf" stroke="black" points="109.5,-123.5 109.5,-153.5 233.5,-153.5 233.5,-123.5 109.5,-123.5"/>
<text text-anchor="start" x="117.5" y="-141.5" font-family="Helvetica,sans-Serif" font-size="10.00">src/gromacs/simd/scalar</text>
<text text-anchor="middle" x="171.5" y="-130.5" font-family="Helvetica,sans-Serif" font-size="10.00">/scalar_math.h</text>
</g>
<!-- Node2 -->
<g id="node2" class="node"><title>Node2</title>
<polygon fill="white" stroke="#bfbfbf" points="124.5,-0.5 124.5,-19.5 168.5,-19.5 168.5,-0.5 124.5,-0.5"/>
<text text-anchor="middle" x="146.5" y="-7.5" font-family="Helvetica,sans-Serif" font-size="10.00">cmath</text>
</g>
<!-- Node1&#45;&gt;Node2 -->
<g id="edge1" class="edge"><title>Node1&#45;&gt;Node2</title>
<path fill="none" stroke="midnightblue" d="M168.729,-123.479C164.211,-100.616 155.254,-55.2963 150.198,-29.7129"/>
<polygon fill="midnightblue" stroke="midnightblue" points="153.609,-28.9202 148.237,-19.7885 146.742,-30.2774 153.609,-28.9202"/>
</g>
<!-- Node3 -->
<g id="node3" class="node"><title>Node3</title>
<g id="a_node3"><a xlink:href="functions_8h.xhtml" target="_top" xlink:title="Declares simple math functions. ">
<polygon fill="white" stroke="black" points="13.5,-62 13.5,-81 143.5,-81 143.5,-62 13.5,-62"/>
<text text-anchor="middle" x="78.5" y="-69" font-family="Helvetica,sans-Serif" font-size="10.00">gromacs/math/functions.h</text>
</a>
</g>
</g>
<!-- Node1&#45;&gt;Node3 -->
<g id="edge2" class="edge"><title>Node1&#45;&gt;Node3</title>
<path fill="none" stroke="midnightblue" d="M151.32,-123.396C135.869,-112.597 114.636,-97.7564 99.0848,-86.8872"/>
<polygon fill="midnightblue" stroke="midnightblue" points="100.873,-83.867 90.6716,-81.007 96.863,-89.6045 100.873,-83.867"/>
</g>
<!-- Node6 -->
<g id="node6" class="node"><title>Node6</title>
<g id="a_node6"><a xlink:href="scalar_8h.xhtml" target="_top" xlink:title="Scalar float functions corresponding to GROMACS SIMD functions. ">
<polygon fill="white" stroke="black" points="200,-56.5 200,-86.5 307,-86.5 307,-56.5 200,-56.5"/>
<text text-anchor="start" x="208" y="-74.5" font-family="Helvetica,sans-Serif" font-size="10.00">gromacs/simd/scalar</text>
<text text-anchor="middle" x="253.5" y="-63.5" font-family="Helvetica,sans-Serif" font-size="10.00">/scalar.h</text>
</a>
</g>
</g>
<!-- Node1&#45;&gt;Node6 -->
<g id="edge6" class="edge"><title>Node1&#45;&gt;Node6</title>
<path fill="none" stroke="midnightblue" d="M189.293,-123.396C200.575,-114.452 215.354,-102.737 227.889,-92.8018"/>
<polygon fill="midnightblue" stroke="midnightblue" points="230.08,-95.5313 235.742,-86.5765 225.731,-90.0457 230.08,-95.5313"/>
</g>
<!-- Node3&#45;&gt;Node2 -->
<g id="edge3" class="edge"><title>Node3&#45;&gt;Node2</title>
<path fill="none" stroke="midnightblue" d="M88.2427,-61.9751C98.8468,-52.6966 116.019,-37.6706 128.979,-26.331"/>
<polygon fill="midnightblue" stroke="midnightblue" points="131.554,-28.7282 136.775,-19.5091 126.945,-23.4601 131.554,-28.7282"/>
</g>
<!-- Node4 -->
<g id="node4" class="node"><title>Node4</title>
<polygon fill="white" stroke="#bfbfbf" points="186.5,-0.5 186.5,-19.5 232.5,-19.5 232.5,-0.5 186.5,-0.5"/>
<text text-anchor="middle" x="209.5" y="-7.5" font-family="Helvetica,sans-Serif" font-size="10.00">cstdint</text>
</g>
<!-- Node3&#45;&gt;Node4 -->
<g id="edge4" class="edge"><title>Node3&#45;&gt;Node4</title>
<path fill="none" stroke="midnightblue" d="M97.2691,-61.9751C119.351,-51.9455 156.219,-35.2002 181.639,-23.6546"/>
<polygon fill="midnightblue" stroke="midnightblue" points="183.108,-26.8313 190.766,-19.5091 180.213,-20.4579 183.108,-26.8313"/>
</g>
<!-- Node5 -->
<g id="node5" class="node"><title>Node5</title>
<g id="a_node5"><a xlink:href="real_8h.xhtml" target="_top" xlink:title="Declares real and related constants. ">
<polygon fill="white" stroke="black" points="0,-0.5 0,-19.5 107,-19.5 107,-0.5 0,-0.5"/>
<text text-anchor="middle" x="53.5" y="-7.5" font-family="Helvetica,sans-Serif" font-size="10.00">gromacs/utility/real.h</text>
</a>
</g>
</g>
<!-- Node3&#45;&gt;Node5 -->
<g id="edge5" class="edge"><title>Node3&#45;&gt;Node5</title>
<path fill="none" stroke="midnightblue" d="M74.9181,-61.9751C71.3166,-53.4035 65.6542,-39.9269 61.0559,-28.983"/>
<polygon fill="midnightblue" stroke="midnightblue" points="64.1757,-27.3726 57.0752,-19.5091 57.7222,-30.0842 64.1757,-27.3726"/>
</g>
<!-- Node6&#45;&gt;Node2 -->
<g id="edge7" class="edge"><title>Node6&#45;&gt;Node2</title>
<path fill="none" stroke="midnightblue" d="M228.142,-56.3993C210.831,-46.7728 188.024,-34.0902 170.916,-24.5772"/>
<polygon fill="midnightblue" stroke="midnightblue" points="172.51,-21.4588 162.069,-19.6578 169.108,-27.5766 172.51,-21.4588"/>
</g>
<!-- Node6&#45;&gt;Node4 -->
<g id="edge8" class="edge"><title>Node6&#45;&gt;Node4</title>
<path fill="none" stroke="midnightblue" d="M243.073,-56.3993C236.745,-47.8424 228.631,-36.8708 221.966,-27.857"/>
<polygon fill="midnightblue" stroke="midnightblue" points="224.662,-25.6171 215.902,-19.6578 219.034,-29.7792 224.662,-25.6171"/>
</g>
<!-- Node7 -->
<g id="node7" class="node"><title>Node7</title>
<polygon fill="white" stroke="#bfbfbf" points="325,-0.5 325,-19.5 370,-19.5 370,-0.5 325,-0.5"/>
<text text-anchor="middle" x="347.5" y="-7.5" font-family="Helvetica,sans-Serif" font-size="10.00">cstdlib</text>
</g>
<!-- Node6&#45;&gt;Node7 -->
<g id="edge9" class="edge"><title>Node6&#45;&gt;Node7</title>
<path fill="none" stroke="midnightblue" d="M275.777,-56.3993C290.703,-46.9511 310.281,-34.5589 325.21,-25.1089"/>
<polygon fill="midnightblue" stroke="midnightblue" points="327.245,-27.9636 333.822,-19.6578 323.501,-22.0489 327.245,-27.9636"/>
</g>
<!-- Node8 -->
<g id="node8" class="node"><title>Node8</title>
<polygon fill="white" stroke="#bfbfbf" points="250.5,-0.5 250.5,-19.5 306.5,-19.5 306.5,-0.5 250.5,-0.5"/>
<text text-anchor="middle" x="278.5" y="-7.5" font-family="Helvetica,sans-Serif" font-size="10.00">algorithm</text>
</g>
<!-- Node6&#45;&gt;Node8 -->
<g id="edge10" class="edge"><title>Node6&#45;&gt;Node8</title>
<path fill="none" stroke="midnightblue" d="M259.425,-56.3993C262.87,-48.1989 267.248,-37.7809 270.94,-28.9936"/>
<polygon fill="midnightblue" stroke="midnightblue" points="274.215,-30.2328 274.862,-19.6578 267.762,-27.5213 274.215,-30.2328"/>
</g>
</g>
</svg>
