<?xml version="1.0" encoding="UTF-8" standalone="no"?>
<!DOCTYPE svg PUBLIC "-//W3C//DTD SVG 1.1//EN"
 "http://www.w3.org/Graphics/SVG/1.1/DTD/svg11.dtd">
<!-- Generated by graphviz version 2.38.0 (20140413.2041)
 -->
<!-- Title: src/gromacs/selection/selhelp.h Pages: 1 -->
<svg width="121pt" height="162pt"
 viewBox="0.00 0.00 121.00 162.00" xmlns="http://www.w3.org/2000/svg" xmlns:xlink="http://www.w3.org/1999/xlink">
<g id="graph0" class="graph" transform="scale(1 1) rotate(0) translate(4 158)">
<title>src/gromacs/selection/selhelp.h</title>
<polygon fill="white" stroke="none" points="-4,4 -4,-158 117,-158 117,4 -4,4"/>
<!-- Node1 -->
<g id="node1" class="node"><title>Node1</title>
<polygon fill="#bfbfbf" stroke="black" points="0,-123.5 0,-153.5 113,-153.5 113,-123.5 0,-123.5"/>
<text text-anchor="start" x="8" y="-141.5" font-family="Helvetica,sans-Serif" font-size="10.00">src/gromacs/selection</text>
<text text-anchor="middle" x="56.5" y="-130.5" font-family="Helvetica,sans-Serif" font-size="10.00">/selhelp.h</text>
</g>
<!-- Node2 -->
<g id="node2" class="node"><title>Node2</title>
<g id="a_node2"><a xlink:href="ihelptopic_8h.xhtml" target="_top" xlink:title="Declares gmx::IHelpTopic. ">
<polygon fill="white" stroke="black" points="6,-56.5 6,-86.5 107,-86.5 107,-56.5 6,-56.5"/>
<text text-anchor="start" x="14" y="-74.5" font-family="Helvetica,sans-Serif" font-size="10.00">gromacs/onlinehelp</text>
<text text-anchor="middle" x="56.5" y="-63.5" font-family="Helvetica,sans-Serif" font-size="10.00">/ihelptopic.h</text>
</a>
</g>
</g>
<!-- Node1&#45;&gt;Node2 -->
<g id="edge1" class="edge"><title>Node1&#45;&gt;Node2</title>
<path fill="none" stroke="midnightblue" d="M56.5,-123.396C56.5,-115.645 56.5,-105.812 56.5,-96.8601"/>
<polygon fill="midnightblue" stroke="midnightblue" points="60.0001,-96.5765 56.5,-86.5765 53.0001,-96.5765 60.0001,-96.5765"/>
</g>
<!-- Node3 -->
<g id="node3" class="node"><title>Node3</title>
<polygon fill="white" stroke="#bfbfbf" points="30.5,-0.5 30.5,-19.5 82.5,-19.5 82.5,-0.5 30.5,-0.5"/>
<text text-anchor="middle" x="56.5" y="-7.5" font-family="Helvetica,sans-Serif" font-size="10.00">memory</text>
</g>
<!-- Node2&#45;&gt;Node3 -->
<g id="edge2" class="edge"><title>Node2&#45;&gt;Node3</title>
<path fill="none" stroke="midnightblue" d="M56.5,-56.3993C56.5,-48.4664 56.5,-38.458 56.5,-29.8583"/>
<polygon fill="midnightblue" stroke="midnightblue" points="60.0001,-29.6577 56.5,-19.6578 53.0001,-29.6578 60.0001,-29.6577"/>
</g>
</g>
</svg>
