<?xml version="1.0" encoding="UTF-8" standalone="no"?>
<!DOCTYPE svg PUBLIC "-//W3C//DTD SVG 1.1//EN"
 "http://www.w3.org/Graphics/SVG/1.1/DTD/svg11.dtd">
<!-- Generated by graphviz version 2.38.0 (20140413.2041)
 -->
<!-- Title: src/gromacs/utility/smalloc.h Pages: 1 -->
<svg width="431pt" height="106pt"
 viewBox="0.00 0.00 431.00 106.00" xmlns="http://www.w3.org/2000/svg" xmlns:xlink="http://www.w3.org/1999/xlink">
<g id="graph0" class="graph" transform="scale(1 1) rotate(0) translate(4 102)">
<title>src/gromacs/utility/smalloc.h</title>
<polygon fill="white" stroke="none" points="-4,4 -4,-102 427,-102 427,4 -4,4"/>
<!-- Node1 -->
<g id="node1" class="node"><title>Node1</title>
<polygon fill="#bfbfbf" stroke="black" points="121,-67.5 121,-97.5 218,-97.5 218,-67.5 121,-67.5"/>
<text text-anchor="start" x="129" y="-85.5" font-family="Helvetica,sans-Serif" font-size="10.00">src/gromacs/utility</text>
<text text-anchor="middle" x="169.5" y="-74.5" font-family="Helvetica,sans-Serif" font-size="10.00">/smalloc.h</text>
</g>
<!-- Node2 -->
<g id="node2" class="node"><title>Node2</title>
<g id="a_node2"><a xlink:href="unique__cptr_8h.xhtml" target="_top" xlink:title="Declares gmx::unique_cptr and gmx::sfree_guard. ">
<polygon fill="white" stroke="black" points="0,-0.5 0,-30.5 97,-30.5 97,-0.5 0,-0.5"/>
<text text-anchor="start" x="8" y="-18.5" font-family="Helvetica,sans-Serif" font-size="10.00">src/gromacs/utility</text>
<text text-anchor="middle" x="48.5" y="-7.5" font-family="Helvetica,sans-Serif" font-size="10.00">/unique_cptr.h</text>
</a>
</g>
</g>
<!-- Node1&#45;&gt;Node2 -->
<g id="edge1" class="edge"><title>Node1&#45;&gt;Node2</title>
<path fill="none" stroke="midnightblue" d="M134.27,-62.575C115.237,-52.3502 92.1345,-39.94 74.704,-30.5765"/>
<polygon fill="midnightblue" stroke="midnightblue" points="132.779,-65.7469 143.245,-67.396 136.092,-59.5803 132.779,-65.7469"/>
</g>
<!-- Node3 -->
<g id="node3" class="node"><title>Node3</title>
<g id="a_node3"><a xlink:href="ga2la_8h.xhtml" target="_top" xlink:title="Defines structures and functions for mapping from global to local atom indices. The functions are per...">
<polygon fill="white" stroke="black" points="115.5,-0.5 115.5,-30.5 223.5,-30.5 223.5,-0.5 115.5,-0.5"/>
<text text-anchor="start" x="123.5" y="-18.5" font-family="Helvetica,sans-Serif" font-size="10.00">src/gromacs/domdec</text>
<text text-anchor="middle" x="169.5" y="-7.5" font-family="Helvetica,sans-Serif" font-size="10.00">/ga2la.h</text>
</a>
</g>
</g>
<!-- Node1&#45;&gt;Node3 -->
<g id="edge2" class="edge"><title>Node1&#45;&gt;Node3</title>
<path fill="none" stroke="midnightblue" d="M169.5,-57.1081C169.5,-48.1539 169.5,-38.3227 169.5,-30.5765"/>
<polygon fill="midnightblue" stroke="midnightblue" points="166,-57.3959 169.5,-67.396 173,-57.396 166,-57.3959"/>
</g>
<!-- Node4 -->
<g id="node4" class="node"><title>Node4</title>
<g id="a_node4"><a xlink:href="broadcaststructs_8h.xhtml" target="_top" xlink:title="Convenience wrappers for broadcasting structs. ">
<polygon fill="white" stroke="black" points="242,-6 242,-25 423,-25 423,-6 242,-6"/>
<text text-anchor="middle" x="332.5" y="-13" font-family="Helvetica,sans-Serif" font-size="10.00">src/gromacs/mdlib/broadcaststructs.h</text>
</a>
</g>
</g>
<!-- Node1&#45;&gt;Node4 -->
<g id="edge3" class="edge"><title>Node1&#45;&gt;Node4</title>
<path fill="none" stroke="midnightblue" d="M214.334,-63.6214C245.884,-51.0403 286.694,-34.7661 311.167,-25.007"/>
<polygon fill="midnightblue" stroke="midnightblue" points="212.861,-60.4408 204.869,-67.396 215.454,-66.9429 212.861,-60.4408"/>
</g>
</g>
</svg>
