<?xml version="1.0" encoding="UTF-8" standalone="no"?>
<!DOCTYPE svg PUBLIC "-//W3C//DTD SVG 1.1//EN"
 "http://www.w3.org/Graphics/SVG/1.1/DTD/svg11.dtd">
<!-- Generated by graphviz version 2.38.0 (20140413.2041)
 -->
<!-- Title: src/gromacs/tables/tableinput.h Pages: 1 -->
<svg width="614pt" height="274pt"
 viewBox="0.00 0.00 614.00 274.00" xmlns="http://www.w3.org/2000/svg" xmlns:xlink="http://www.w3.org/1999/xlink">
<g id="graph0" class="graph" transform="scale(1 1) rotate(0) translate(4 270)">
<title>src/gromacs/tables/tableinput.h</title>
<polygon fill="white" stroke="none" points="-4,4 -4,-270 610,-270 610,4 -4,4"/>
<!-- Node1 -->
<g id="node1" class="node"><title>Node1</title>
<polygon fill="#bfbfbf" stroke="black" points="37.5,-235.5 37.5,-265.5 137.5,-265.5 137.5,-235.5 37.5,-235.5"/>
<text text-anchor="start" x="45.5" y="-253.5" font-family="Helvetica,sans-Serif" font-size="10.00">src/gromacs/tables</text>
<text text-anchor="middle" x="87.5" y="-242.5" font-family="Helvetica,sans-Serif" font-size="10.00">/tableinput.h</text>
</g>
<!-- Node2 -->
<g id="node2" class="node"><title>Node2</title>
<polygon fill="white" stroke="#bfbfbf" points="0,-179.5 0,-198.5 59,-198.5 59,-179.5 0,-179.5"/>
<text text-anchor="middle" x="29.5" y="-186.5" font-family="Helvetica,sans-Serif" font-size="10.00">functional</text>
</g>
<!-- Node1&#45;&gt;Node2 -->
<g id="edge1" class="edge"><title>Node1&#45;&gt;Node2</title>
<path fill="none" stroke="midnightblue" d="M73.7548,-235.399C65.1529,-226.575 54.0479,-215.183 45.114,-206.018"/>
<polygon fill="midnightblue" stroke="midnightblue" points="47.426,-203.375 37.9395,-198.658 42.4135,-208.262 47.426,-203.375"/>
</g>
<!-- Node3 -->
<g id="node3" class="node"><title>Node3</title>
<polygon fill="white" stroke="#bfbfbf" points="17.5,-123.5 17.5,-142.5 61.5,-142.5 61.5,-123.5 17.5,-123.5"/>
<text text-anchor="middle" x="39.5" y="-130.5" font-family="Helvetica,sans-Serif" font-size="10.00">vector</text>
</g>
<!-- Node1&#45;&gt;Node3 -->
<g id="edge2" class="edge"><title>Node1&#45;&gt;Node3</title>
<path fill="none" stroke="midnightblue" d="M84.7051,-235.319C81.561,-220.787 75.787,-197.732 67.5,-179 63.1724,-169.218 57.0013,-159.041 51.5534,-150.844"/>
<polygon fill="midnightblue" stroke="midnightblue" points="54.4014,-148.809 45.8466,-142.558 48.6365,-152.779 54.4014,-148.809"/>
</g>
<!-- Node4 -->
<g id="node4" class="node"><title>Node4</title>
<g id="a_node4"><a xlink:href="arrayref_8h.xhtml" target="_top" xlink:title="Declares gmx::ArrayRef. ">
<polygon fill="white" stroke="black" points="134,-179.5 134,-198.5 259,-198.5 259,-179.5 134,-179.5"/>
<text text-anchor="middle" x="196.5" y="-186.5" font-family="Helvetica,sans-Serif" font-size="10.00">gromacs/utility/arrayref.h</text>
</a>
</g>
</g>
<!-- Node1&#45;&gt;Node4 -->
<g id="edge3" class="edge"><title>Node1&#45;&gt;Node4</title>
<path fill="none" stroke="midnightblue" d="M113.331,-235.399C130.967,-225.773 154.2,-213.09 171.628,-203.577"/>
<polygon fill="midnightblue" stroke="midnightblue" points="173.539,-206.521 180.64,-198.658 170.185,-200.377 173.539,-206.521"/>
</g>
<!-- Node4&#45;&gt;Node3 -->
<g id="edge9" class="edge"><title>Node4&#45;&gt;Node3</title>
<path fill="none" stroke="midnightblue" d="M171.623,-179.444C144.434,-170.092 100.805,-155.086 71.186,-144.898"/>
<polygon fill="midnightblue" stroke="midnightblue" points="72.317,-141.586 61.7223,-141.643 70.0402,-148.206 72.317,-141.586"/>
</g>
<!-- Node5 -->
<g id="node5" class="node"><title>Node5</title>
<polygon fill="white" stroke="#bfbfbf" points="80,-123.5 80,-142.5 129,-142.5 129,-123.5 80,-123.5"/>
<text text-anchor="middle" x="104.5" y="-130.5" font-family="Helvetica,sans-Serif" font-size="10.00">cstddef</text>
</g>
<!-- Node4&#45;&gt;Node5 -->
<g id="edge4" class="edge"><title>Node4&#45;&gt;Node5</title>
<path fill="none" stroke="midnightblue" d="M181.719,-179.324C167.233,-170.822 144.927,-157.729 128.007,-147.797"/>
<polygon fill="midnightblue" stroke="midnightblue" points="129.641,-144.698 119.245,-142.655 126.097,-150.735 129.641,-144.698"/>
</g>
<!-- Node6 -->
<g id="node6" class="node"><title>Node6</title>
<polygon fill="white" stroke="#bfbfbf" points="147.5,-123.5 147.5,-142.5 185.5,-142.5 185.5,-123.5 147.5,-123.5"/>
<text text-anchor="middle" x="166.5" y="-130.5" font-family="Helvetica,sans-Serif" font-size="10.00">array</text>
</g>
<!-- Node4&#45;&gt;Node6 -->
<g id="edge5" class="edge"><title>Node4&#45;&gt;Node6</title>
<path fill="none" stroke="midnightblue" d="M191.546,-179.083C187.396,-171.613 181.347,-160.724 176.233,-151.52"/>
<polygon fill="midnightblue" stroke="midnightblue" points="179.278,-149.793 171.362,-142.751 173.159,-153.192 179.278,-149.793"/>
</g>
<!-- Node7 -->
<g id="node7" class="node"><title>Node7</title>
<polygon fill="white" stroke="#bfbfbf" points="204,-123.5 204,-142.5 251,-142.5 251,-123.5 204,-123.5"/>
<text text-anchor="middle" x="227.5" y="-130.5" font-family="Helvetica,sans-Serif" font-size="10.00">iterator</text>
</g>
<!-- Node4&#45;&gt;Node7 -->
<g id="edge6" class="edge"><title>Node4&#45;&gt;Node7</title>
<path fill="none" stroke="midnightblue" d="M201.619,-179.083C205.908,-171.613 212.158,-160.724 217.442,-151.52"/>
<polygon fill="midnightblue" stroke="midnightblue" points="220.533,-153.166 222.476,-142.751 214.462,-149.681 220.533,-153.166"/>
</g>
<!-- Node8 -->
<g id="node8" class="node"><title>Node8</title>
<polygon fill="white" stroke="#bfbfbf" points="269,-123.5 269,-142.5 328,-142.5 328,-123.5 269,-123.5"/>
<text text-anchor="middle" x="298.5" y="-130.5" font-family="Helvetica,sans-Serif" font-size="10.00">stdexcept</text>
</g>
<!-- Node4&#45;&gt;Node8 -->
<g id="edge7" class="edge"><title>Node4&#45;&gt;Node8</title>
<path fill="none" stroke="midnightblue" d="M212.888,-179.324C229.171,-170.703 254.367,-157.364 273.216,-147.386"/>
<polygon fill="midnightblue" stroke="midnightblue" points="274.952,-150.427 282.153,-142.655 271.677,-144.24 274.952,-150.427"/>
</g>
<!-- Node9 -->
<g id="node9" class="node"><title>Node9</title>
<polygon fill="white" stroke="#bfbfbf" points="346.5,-123.5 346.5,-142.5 386.5,-142.5 386.5,-123.5 346.5,-123.5"/>
<text text-anchor="middle" x="366.5" y="-130.5" font-family="Helvetica,sans-Serif" font-size="10.00">utility</text>
</g>
<!-- Node4&#45;&gt;Node9 -->
<g id="edge8" class="edge"><title>Node4&#45;&gt;Node9</title>
<path fill="none" stroke="midnightblue" d="M223.437,-179.444C254.273,-169.649 304.636,-153.651 336.644,-143.484"/>
<polygon fill="midnightblue" stroke="midnightblue" points="337.873,-146.766 346.344,-140.403 335.753,-140.094 337.873,-146.766"/>
</g>
<!-- Node10 -->
<g id="node10" class="node"><title>Node10</title>
<g id="a_node10"><a xlink:href="gmxassert_8h.xhtml" target="_top" xlink:title="Defines assert macros customized for Gromacs. ">
<polygon fill="white" stroke="black" points="405,-123.5 405,-142.5 542,-142.5 542,-123.5 405,-123.5"/>
<text text-anchor="middle" x="473.5" y="-130.5" font-family="Helvetica,sans-Serif" font-size="10.00">gromacs/utility/gmxassert.h</text>
</a>
</g>
</g>
<!-- Node4&#45;&gt;Node10 -->
<g id="edge10" class="edge"><title>Node4&#45;&gt;Node10</title>
<path fill="none" stroke="midnightblue" d="M240.391,-179.444C289.017,-169.964 367.446,-154.675 419.724,-144.483"/>
<polygon fill="midnightblue" stroke="midnightblue" points="420.668,-147.865 429.814,-142.516 419.329,-140.995 420.668,-147.865"/>
</g>
<!-- Node11 -->
<g id="node11" class="node"><title>Node11</title>
<g id="a_node11"><a xlink:href="basedefinitions_8h.xhtml" target="_top" xlink:title="Basic types and macros used throughout GROMACS. ">
<polygon fill="white" stroke="black" points="318,-62 318,-81 475,-81 475,-62 318,-62"/>
<text text-anchor="middle" x="396.5" y="-69" font-family="Helvetica,sans-Serif" font-size="10.00">gromacs/utility/basedefinitions.h</text>
</a>
</g>
</g>
<!-- Node10&#45;&gt;Node11 -->
<g id="edge11" class="edge"><title>Node10&#45;&gt;Node11</title>
<path fill="none" stroke="midnightblue" d="M462.468,-123.475C450.232,-114.02 430.271,-98.5961 415.507,-87.1871"/>
<polygon fill="midnightblue" stroke="midnightblue" points="417.565,-84.3541 407.512,-81.0091 413.285,-89.8931 417.565,-84.3541"/>
</g>
<!-- Node14 -->
<g id="node14" class="node"><title>Node14</title>
<g id="a_node14"><a xlink:href="current__function_8h.xhtml" target="_top" xlink:title="Declares GMX_CURRENT_FUNCTION for getting the current function name. ">
<polygon fill="white" stroke="black" points="493,-56.5 493,-86.5 606,-86.5 606,-56.5 493,-56.5"/>
<text text-anchor="start" x="501" y="-74.5" font-family="Helvetica,sans-Serif" font-size="10.00">gromacs/utility/current</text>
<text text-anchor="middle" x="549.5" y="-63.5" font-family="Helvetica,sans-Serif" font-size="10.00">_function.h</text>
</a>
</g>
</g>
<!-- Node10&#45;&gt;Node14 -->
<g id="edge14" class="edge"><title>Node10&#45;&gt;Node14</title>
<path fill="none" stroke="midnightblue" d="M484.389,-123.475C494.586,-115.492 510.217,-103.254 523.609,-92.7703"/>
<polygon fill="midnightblue" stroke="midnightblue" points="525.872,-95.4434 531.588,-86.523 521.557,-89.9316 525.872,-95.4434"/>
</g>
<!-- Node12 -->
<g id="node12" class="node"><title>Node12</title>
<polygon fill="white" stroke="#bfbfbf" points="336,-0.5 336,-19.5 385,-19.5 385,-0.5 336,-0.5"/>
<text text-anchor="middle" x="360.5" y="-7.5" font-family="Helvetica,sans-Serif" font-size="10.00">stdint.h</text>
</g>
<!-- Node11&#45;&gt;Node12 -->
<g id="edge12" class="edge"><title>Node11&#45;&gt;Node12</title>
<path fill="none" stroke="midnightblue" d="M391.342,-61.9751C386.049,-53.2268 377.665,-39.3691 370.973,-28.3093"/>
<polygon fill="midnightblue" stroke="midnightblue" points="373.82,-26.2531 365.648,-19.5091 367.83,-29.8768 373.82,-26.2531"/>
</g>
<!-- Node13 -->
<g id="node13" class="node"><title>Node13</title>
<polygon fill="white" stroke="#bfbfbf" points="403,-0.5 403,-19.5 462,-19.5 462,-0.5 403,-0.5"/>
<text text-anchor="middle" x="432.5" y="-7.5" font-family="Helvetica,sans-Serif" font-size="10.00">inttypes.h</text>
</g>
<!-- Node11&#45;&gt;Node13 -->
<g id="edge13" class="edge"><title>Node11&#45;&gt;Node13</title>
<path fill="none" stroke="midnightblue" d="M401.658,-61.9751C406.951,-53.2268 415.335,-39.3691 422.027,-28.3093"/>
<polygon fill="midnightblue" stroke="midnightblue" points="425.17,-29.8768 427.352,-19.5091 419.18,-26.2531 425.17,-29.8768"/>
</g>
</g>
</svg>
