<?xml version="1.0" encoding="UTF-8" standalone="no"?>
<!DOCTYPE svg PUBLIC "-//W3C//DTD SVG 1.1//EN"
 "http://www.w3.org/Graphics/SVG/1.1/DTD/svg11.dtd">
<!-- Generated by graphviz version 2.38.0 (20140413.2041)
 -->
<!-- Title: src/gromacs/random/tabulatednormaldistribution.h Pages: 1 -->
<svg width="685pt" height="218pt"
 viewBox="0.00 0.00 685.00 218.00" xmlns="http://www.w3.org/2000/svg" xmlns:xlink="http://www.w3.org/1999/xlink">
<g id="graph0" class="graph" transform="scale(1 1) rotate(0) translate(4 214)">
<title>src/gromacs/random/tabulatednormaldistribution.h</title>
<polygon fill="white" stroke="none" points="-4,4 -4,-214 681,-214 681,4 -4,4"/>
<!-- Node1 -->
<g id="node1" class="node"><title>Node1</title>
<polygon fill="#bfbfbf" stroke="black" points="182,-179.5 182,-209.5 326,-209.5 326,-179.5 182,-179.5"/>
<text text-anchor="start" x="190" y="-197.5" font-family="Helvetica,sans-Serif" font-size="10.00">src/gromacs/random</text>
<text text-anchor="middle" x="254" y="-186.5" font-family="Helvetica,sans-Serif" font-size="10.00">/tabulatednormaldistribution.h</text>
</g>
<!-- Node2 -->
<g id="node2" class="node"><title>Node2</title>
<polygon fill="white" stroke="#bfbfbf" points="0,-62 0,-81 44,-81 44,-62 0,-62"/>
<text text-anchor="middle" x="22" y="-69" font-family="Helvetica,sans-Serif" font-size="10.00">cmath</text>
</g>
<!-- Node1&#45;&gt;Node2 -->
<g id="edge1" class="edge"><title>Node1&#45;&gt;Node2</title>
<path fill="none" stroke="midnightblue" d="M181.722,-188.147C118.929,-181.816 34.8601,-168.706 14,-143 2.2699,-128.545 7.17704,-106.588 13.1663,-91.0234"/>
<polygon fill="midnightblue" stroke="midnightblue" points="16.5526,-92.009 17.2944,-81.4402 10.1237,-89.2396 16.5526,-92.009"/>
</g>
<!-- Node3 -->
<g id="node3" class="node"><title>Node3</title>
<polygon fill="white" stroke="#bfbfbf" points="23,-123.5 23,-142.5 63,-142.5 63,-123.5 23,-123.5"/>
<text text-anchor="middle" x="43" y="-130.5" font-family="Helvetica,sans-Serif" font-size="10.00">limits</text>
</g>
<!-- Node1&#45;&gt;Node3 -->
<g id="edge2" class="edge"><title>Node1&#45;&gt;Node3</title>
<path fill="none" stroke="midnightblue" d="M201.711,-179.442C167.548,-170.154 121.734,-157.505 73.0337,-143.245"/>
<polygon fill="midnightblue" stroke="midnightblue" points="73.839,-139.834 63.2578,-140.373 71.8653,-146.55 73.839,-139.834"/>
</g>
<!-- Node4 -->
<g id="node4" class="node"><title>Node4</title>
<polygon fill="white" stroke="#bfbfbf" points="81,-123.5 81,-142.5 125,-142.5 125,-123.5 81,-123.5"/>
<text text-anchor="middle" x="103" y="-130.5" font-family="Helvetica,sans-Serif" font-size="10.00">vector</text>
</g>
<!-- Node1&#45;&gt;Node4 -->
<g id="edge3" class="edge"><title>Node1&#45;&gt;Node4</title>
<path fill="none" stroke="midnightblue" d="M218.215,-179.399C192.767,-169.372 158.903,-156.028 134.482,-146.405"/>
<polygon fill="midnightblue" stroke="midnightblue" points="135.559,-143.068 124.972,-142.658 132.992,-149.58 135.559,-143.068"/>
</g>
<!-- Node5 -->
<g id="node5" class="node"><title>Node5</title>
<g id="a_node5"><a xlink:href="functions_8h.xhtml" target="_top" xlink:title="Declares simple math functions. ">
<polygon fill="white" stroke="black" points="143,-123.5 143,-142.5 273,-142.5 273,-123.5 143,-123.5"/>
<text text-anchor="middle" x="208" y="-130.5" font-family="Helvetica,sans-Serif" font-size="10.00">gromacs/math/functions.h</text>
</a>
</g>
</g>
<!-- Node1&#45;&gt;Node5 -->
<g id="edge4" class="edge"><title>Node1&#45;&gt;Node5</title>
<path fill="none" stroke="midnightblue" d="M243.099,-179.399C236.414,-170.753 227.824,-159.642 220.815,-150.576"/>
<polygon fill="midnightblue" stroke="midnightblue" points="223.579,-148.428 214.693,-142.658 218.041,-152.71 223.579,-148.428"/>
</g>
<!-- Node7 -->
<g id="node7" class="node"><title>Node7</title>
<g id="a_node7"><a xlink:href="real_8h.xhtml" target="_top" xlink:title="Declares real and related constants. ">
<polygon fill="white" stroke="black" points="154.5,-62 154.5,-81 261.5,-81 261.5,-62 154.5,-62"/>
<text text-anchor="middle" x="208" y="-69" font-family="Helvetica,sans-Serif" font-size="10.00">gromacs/utility/real.h</text>
</a>
</g>
</g>
<!-- Node1&#45;&gt;Node7 -->
<g id="edge16" class="edge"><title>Node1&#45;&gt;Node7</title>
<path fill="none" stroke="midnightblue" d="M266.797,-179.325C278.276,-164.799 291.903,-141.748 282,-123 273.012,-105.985 255.428,-93.6214 239.656,-85.3873"/>
<polygon fill="midnightblue" stroke="midnightblue" points="241.182,-82.2372 230.658,-81.0123 238.121,-88.5326 241.182,-82.2372"/>
</g>
<!-- Node8 -->
<g id="node8" class="node"><title>Node8</title>
<g id="a_node8"><a xlink:href="basedefinitions_8h.xhtml" target="_top" xlink:title="Basic types and macros used throughout GROMACS. ">
<polygon fill="white" stroke="black" points="279.5,-62 279.5,-81 436.5,-81 436.5,-62 279.5,-62"/>
<text text-anchor="middle" x="358" y="-69" font-family="Helvetica,sans-Serif" font-size="10.00">gromacs/utility/basedefinitions.h</text>
</a>
</g>
</g>
<!-- Node1&#45;&gt;Node8 -->
<g id="edge8" class="edge"><title>Node1&#45;&gt;Node8</title>
<path fill="none" stroke="midnightblue" d="M266.372,-179.389C275.214,-169.283 287.377,-155.336 298,-143 313.807,-124.644 331.798,-103.465 343.923,-89.1501"/>
<polygon fill="midnightblue" stroke="midnightblue" points="346.854,-91.1048 350.643,-81.2104 341.511,-86.5827 346.854,-91.1048"/>
</g>
<!-- Node11 -->
<g id="node11" class="node"><title>Node11</title>
<g id="a_node11"><a xlink:href="classhelpers_8h.xhtml" target="_top" xlink:title="Declares common utility classes and macros. ">
<polygon fill="white" stroke="black" points="531,-123.5 531,-142.5 677,-142.5 677,-123.5 531,-123.5"/>
<text text-anchor="middle" x="604" y="-130.5" font-family="Helvetica,sans-Serif" font-size="10.00">gromacs/utility/classhelpers.h</text>
</a>
</g>
</g>
<!-- Node1&#45;&gt;Node11 -->
<g id="edge11" class="edge"><title>Node1&#45;&gt;Node11</title>
<path fill="none" stroke="midnightblue" d="M326.096,-181.244C390.319,-170.326 483.22,-154.533 543.613,-144.266"/>
<polygon fill="midnightblue" stroke="midnightblue" points="544.484,-147.668 553.756,-142.542 543.311,-140.767 544.484,-147.668"/>
</g>
<!-- Node13 -->
<g id="node13" class="node"><title>Node13</title>
<g id="a_node13"><a xlink:href="gmxassert_8h.xhtml" target="_top" xlink:title="Defines assert macros customized for Gromacs. ">
<polygon fill="white" stroke="black" points="367.5,-123.5 367.5,-142.5 504.5,-142.5 504.5,-123.5 367.5,-123.5"/>
<text text-anchor="middle" x="436" y="-130.5" font-family="Helvetica,sans-Serif" font-size="10.00">gromacs/utility/gmxassert.h</text>
</a>
</g>
</g>
<!-- Node1&#45;&gt;Node13 -->
<g id="edge13" class="edge"><title>Node1&#45;&gt;Node13</title>
<path fill="none" stroke="midnightblue" d="M297.131,-179.399C328.58,-169.118 370.692,-155.351 400.267,-145.682"/>
<polygon fill="midnightblue" stroke="midnightblue" points="401.366,-149.005 409.783,-142.571 399.19,-142.352 401.366,-149.005"/>
</g>
<!-- Node5&#45;&gt;Node2 -->
<g id="edge5" class="edge"><title>Node5&#45;&gt;Node2</title>
<path fill="none" stroke="midnightblue" d="M181.351,-123.475C147.798,-112.742 90.2012,-94.317 54.214,-82.805"/>
<polygon fill="midnightblue" stroke="midnightblue" points="54.8234,-79.3253 44.2325,-79.612 52.6906,-85.9925 54.8234,-79.3253"/>
</g>
<!-- Node6 -->
<g id="node6" class="node"><title>Node6</title>
<polygon fill="white" stroke="#bfbfbf" points="90,-62 90,-81 136,-81 136,-62 90,-62"/>
<text text-anchor="middle" x="113" y="-69" font-family="Helvetica,sans-Serif" font-size="10.00">cstdint</text>
</g>
<!-- Node5&#45;&gt;Node6 -->
<g id="edge6" class="edge"><title>Node5&#45;&gt;Node6</title>
<path fill="none" stroke="midnightblue" d="M194.389,-123.475C178.939,-113.799 153.51,-97.8721 135.184,-86.3941"/>
<polygon fill="midnightblue" stroke="midnightblue" points="136.919,-83.3509 126.586,-81.0091 133.203,-89.2834 136.919,-83.3509"/>
</g>
<!-- Node5&#45;&gt;Node7 -->
<g id="edge7" class="edge"><title>Node5&#45;&gt;Node7</title>
<path fill="none" stroke="midnightblue" d="M208,-123.475C208,-115.08 208,-101.981 208,-91.1631"/>
<polygon fill="midnightblue" stroke="midnightblue" points="211.5,-91.0091 208,-81.0091 204.5,-91.0091 211.5,-91.0091"/>
</g>
<!-- Node9 -->
<g id="node9" class="node"><title>Node9</title>
<polygon fill="white" stroke="#bfbfbf" points="297.5,-0.5 297.5,-19.5 346.5,-19.5 346.5,-0.5 297.5,-0.5"/>
<text text-anchor="middle" x="322" y="-7.5" font-family="Helvetica,sans-Serif" font-size="10.00">stdint.h</text>
</g>
<!-- Node8&#45;&gt;Node9 -->
<g id="edge9" class="edge"><title>Node8&#45;&gt;Node9</title>
<path fill="none" stroke="midnightblue" d="M352.842,-61.9751C347.549,-53.2268 339.165,-39.3691 332.473,-28.3093"/>
<polygon fill="midnightblue" stroke="midnightblue" points="335.32,-26.2531 327.148,-19.5091 329.33,-29.8768 335.32,-26.2531"/>
</g>
<!-- Node10 -->
<g id="node10" class="node"><title>Node10</title>
<polygon fill="white" stroke="#bfbfbf" points="364.5,-0.5 364.5,-19.5 423.5,-19.5 423.5,-0.5 364.5,-0.5"/>
<text text-anchor="middle" x="394" y="-7.5" font-family="Helvetica,sans-Serif" font-size="10.00">inttypes.h</text>
</g>
<!-- Node8&#45;&gt;Node10 -->
<g id="edge10" class="edge"><title>Node8&#45;&gt;Node10</title>
<path fill="none" stroke="midnightblue" d="M363.158,-61.9751C368.451,-53.2268 376.835,-39.3691 383.527,-28.3093"/>
<polygon fill="midnightblue" stroke="midnightblue" points="386.67,-29.8768 388.852,-19.5091 380.68,-26.2531 386.67,-29.8768"/>
</g>
<!-- Node12 -->
<g id="node12" class="node"><title>Node12</title>
<polygon fill="white" stroke="#bfbfbf" points="586,-62 586,-81 638,-81 638,-62 586,-62"/>
<text text-anchor="middle" x="612" y="-69" font-family="Helvetica,sans-Serif" font-size="10.00">memory</text>
</g>
<!-- Node11&#45;&gt;Node12 -->
<g id="edge12" class="edge"><title>Node11&#45;&gt;Node12</title>
<path fill="none" stroke="midnightblue" d="M605.146,-123.475C606.275,-115.08 608.036,-101.981 609.491,-91.1631"/>
<polygon fill="midnightblue" stroke="midnightblue" points="612.992,-91.3863 610.856,-81.0091 606.055,-90.4535 612.992,-91.3863"/>
</g>
<!-- Node13&#45;&gt;Node8 -->
<g id="edge14" class="edge"><title>Node13&#45;&gt;Node8</title>
<path fill="none" stroke="midnightblue" d="M424.825,-123.475C412.429,-114.02 392.21,-98.5961 377.254,-87.1871"/>
<polygon fill="midnightblue" stroke="midnightblue" points="379.228,-84.2914 369.155,-81.0091 374.983,-89.857 379.228,-84.2914"/>
</g>
<!-- Node14 -->
<g id="node14" class="node"><title>Node14</title>
<g id="a_node14"><a xlink:href="current__function_8h.xhtml" target="_top" xlink:title="Declares GMX_CURRENT_FUNCTION for getting the current function name. ">
<polygon fill="white" stroke="black" points="454.5,-56.5 454.5,-86.5 567.5,-86.5 567.5,-56.5 454.5,-56.5"/>
<text text-anchor="start" x="462.5" y="-74.5" font-family="Helvetica,sans-Serif" font-size="10.00">gromacs/utility/current</text>
<text text-anchor="middle" x="511" y="-63.5" font-family="Helvetica,sans-Serif" font-size="10.00">_function.h</text>
</a>
</g>
</g>
<!-- Node13&#45;&gt;Node14 -->
<g id="edge15" class="edge"><title>Node13&#45;&gt;Node14</title>
<path fill="none" stroke="midnightblue" d="M446.746,-123.475C456.808,-115.492 472.234,-103.254 485.449,-92.7703"/>
<polygon fill="midnightblue" stroke="midnightblue" points="487.665,-95.48 493.324,-86.523 483.315,-89.9961 487.665,-95.48"/>
</g>
</g>
</svg>
