<?xml version="1.0" encoding="UTF-8" standalone="no"?>
<!DOCTYPE svg PUBLIC "-//W3C//DTD SVG 1.1//EN"
 "http://www.w3.org/Graphics/SVG/1.1/DTD/svg11.dtd">
<!-- Generated by graphviz version 2.38.0 (20140413.2041)
 -->
<!-- Title: src/gromacs/random/uniformrealdistribution.h Pages: 1 -->
<svg width="691pt" height="218pt"
 viewBox="0.00 0.00 691.00 218.00" xmlns="http://www.w3.org/2000/svg" xmlns:xlink="http://www.w3.org/1999/xlink">
<g id="graph0" class="graph" transform="scale(1 1) rotate(0) translate(4 214)">
<title>src/gromacs/random/uniformrealdistribution.h</title>
<polygon fill="white" stroke="none" points="-4,4 -4,-214 687,-214 687,4 -4,4"/>
<!-- Node1 -->
<g id="node1" class="node"><title>Node1</title>
<polygon fill="#bfbfbf" stroke="black" points="198.5,-179.5 198.5,-209.5 321.5,-209.5 321.5,-179.5 198.5,-179.5"/>
<text text-anchor="start" x="206.5" y="-197.5" font-family="Helvetica,sans-Serif" font-size="10.00">src/gromacs/random</text>
<text text-anchor="middle" x="260" y="-186.5" font-family="Helvetica,sans-Serif" font-size="10.00">/uniformrealdistribution.h</text>
</g>
<!-- Node2 -->
<g id="node2" class="node"><title>Node2</title>
<polygon fill="white" stroke="#bfbfbf" points="0,-62 0,-81 44,-81 44,-62 0,-62"/>
<text text-anchor="middle" x="22" y="-69" font-family="Helvetica,sans-Serif" font-size="10.00">cmath</text>
</g>
<!-- Node1&#45;&gt;Node2 -->
<g id="edge1" class="edge"><title>Node1&#45;&gt;Node2</title>
<path fill="none" stroke="midnightblue" d="M198.367,-189.882C131.659,-184.527 31.6154,-171.817 8,-143 -4.06808,-128.274 3.22236,-106.058 11.0825,-90.5114"/>
<polygon fill="midnightblue" stroke="midnightblue" points="14.3441,-91.8469 16.1323,-81.404 8.22213,-88.4524 14.3441,-91.8469"/>
</g>
<!-- Node3 -->
<g id="node3" class="node"><title>Node3</title>
<polygon fill="white" stroke="#bfbfbf" points="17,-123.5 17,-142.5 73,-142.5 73,-123.5 17,-123.5"/>
<text text-anchor="middle" x="45" y="-130.5" font-family="Helvetica,sans-Serif" font-size="10.00">algorithm</text>
</g>
<!-- Node1&#45;&gt;Node3 -->
<g id="edge2" class="edge"><title>Node1&#45;&gt;Node3</title>
<path fill="none" stroke="midnightblue" d="M209.32,-179.475C170.677,-168.78 118.286,-154.281 83.1461,-144.557"/>
<polygon fill="midnightblue" stroke="midnightblue" points="83.8454,-141.119 73.2741,-141.825 81.9783,-147.865 83.8454,-141.119"/>
</g>
<!-- Node4 -->
<g id="node4" class="node"><title>Node4</title>
<polygon fill="white" stroke="#bfbfbf" points="91,-123.5 91,-142.5 131,-142.5 131,-123.5 91,-123.5"/>
<text text-anchor="middle" x="111" y="-130.5" font-family="Helvetica,sans-Serif" font-size="10.00">limits</text>
</g>
<!-- Node1&#45;&gt;Node4 -->
<g id="edge3" class="edge"><title>Node1&#45;&gt;Node4</title>
<path fill="none" stroke="midnightblue" d="M224.689,-179.399C199.124,-169.19 164.952,-155.545 140.767,-145.887"/>
<polygon fill="midnightblue" stroke="midnightblue" points="141.973,-142.6 131.388,-142.142 139.377,-149.101 141.973,-142.6"/>
</g>
<!-- Node5 -->
<g id="node5" class="node"><title>Node5</title>
<g id="a_node5"><a xlink:href="functions_8h.xhtml" target="_top" xlink:title="Declares simple math functions. ">
<polygon fill="white" stroke="black" points="149,-123.5 149,-142.5 279,-142.5 279,-123.5 149,-123.5"/>
<text text-anchor="middle" x="214" y="-130.5" font-family="Helvetica,sans-Serif" font-size="10.00">gromacs/math/functions.h</text>
</a>
</g>
</g>
<!-- Node1&#45;&gt;Node5 -->
<g id="edge4" class="edge"><title>Node1&#45;&gt;Node5</title>
<path fill="none" stroke="midnightblue" d="M249.099,-179.399C242.414,-170.753 233.824,-159.642 226.815,-150.576"/>
<polygon fill="midnightblue" stroke="midnightblue" points="229.579,-148.428 220.693,-142.658 224.041,-152.71 229.579,-148.428"/>
</g>
<!-- Node7 -->
<g id="node7" class="node"><title>Node7</title>
<g id="a_node7"><a xlink:href="real_8h.xhtml" target="_top" xlink:title="Declares real and related constants. ">
<polygon fill="white" stroke="black" points="160.5,-62 160.5,-81 267.5,-81 267.5,-62 160.5,-62"/>
<text text-anchor="middle" x="214" y="-69" font-family="Helvetica,sans-Serif" font-size="10.00">gromacs/utility/real.h</text>
</a>
</g>
</g>
<!-- Node1&#45;&gt;Node7 -->
<g id="edge16" class="edge"><title>Node1&#45;&gt;Node7</title>
<path fill="none" stroke="midnightblue" d="M272.797,-179.325C284.276,-164.799 297.903,-141.748 288,-123 279.012,-105.985 261.428,-93.6214 245.656,-85.3873"/>
<polygon fill="midnightblue" stroke="midnightblue" points="247.182,-82.2372 236.658,-81.0123 244.121,-88.5326 247.182,-82.2372"/>
</g>
<!-- Node8 -->
<g id="node8" class="node"><title>Node8</title>
<g id="a_node8"><a xlink:href="basedefinitions_8h.xhtml" target="_top" xlink:title="Basic types and macros used throughout GROMACS. ">
<polygon fill="white" stroke="black" points="285.5,-62 285.5,-81 442.5,-81 442.5,-62 285.5,-62"/>
<text text-anchor="middle" x="364" y="-69" font-family="Helvetica,sans-Serif" font-size="10.00">gromacs/utility/basedefinitions.h</text>
</a>
</g>
</g>
<!-- Node1&#45;&gt;Node8 -->
<g id="edge8" class="edge"><title>Node1&#45;&gt;Node8</title>
<path fill="none" stroke="midnightblue" d="M272.372,-179.389C281.214,-169.283 293.377,-155.336 304,-143 319.807,-124.644 337.798,-103.465 349.923,-89.1501"/>
<polygon fill="midnightblue" stroke="midnightblue" points="352.854,-91.1048 356.643,-81.2104 347.511,-86.5827 352.854,-91.1048"/>
</g>
<!-- Node11 -->
<g id="node11" class="node"><title>Node11</title>
<g id="a_node11"><a xlink:href="classhelpers_8h.xhtml" target="_top" xlink:title="Declares common utility classes and macros. ">
<polygon fill="white" stroke="black" points="537,-123.5 537,-142.5 683,-142.5 683,-123.5 537,-123.5"/>
<text text-anchor="middle" x="610" y="-130.5" font-family="Helvetica,sans-Serif" font-size="10.00">gromacs/utility/classhelpers.h</text>
</a>
</g>
</g>
<!-- Node1&#45;&gt;Node11 -->
<g id="edge11" class="edge"><title>Node1&#45;&gt;Node11</title>
<path fill="none" stroke="midnightblue" d="M321.767,-183C386.127,-172.058 486.296,-155.03 549.993,-144.201"/>
<polygon fill="midnightblue" stroke="midnightblue" points="550.62,-147.645 559.892,-142.518 549.447,-140.744 550.62,-147.645"/>
</g>
<!-- Node13 -->
<g id="node13" class="node"><title>Node13</title>
<g id="a_node13"><a xlink:href="gmxassert_8h.xhtml" target="_top" xlink:title="Defines assert macros customized for Gromacs. ">
<polygon fill="white" stroke="black" points="373.5,-123.5 373.5,-142.5 510.5,-142.5 510.5,-123.5 373.5,-123.5"/>
<text text-anchor="middle" x="442" y="-130.5" font-family="Helvetica,sans-Serif" font-size="10.00">gromacs/utility/gmxassert.h</text>
</a>
</g>
</g>
<!-- Node1&#45;&gt;Node13 -->
<g id="edge13" class="edge"><title>Node1&#45;&gt;Node13</title>
<path fill="none" stroke="midnightblue" d="M303.131,-179.399C334.58,-169.118 376.692,-155.351 406.267,-145.682"/>
<polygon fill="midnightblue" stroke="midnightblue" points="407.366,-149.005 415.783,-142.571 405.19,-142.352 407.366,-149.005"/>
</g>
<!-- Node5&#45;&gt;Node2 -->
<g id="edge5" class="edge"><title>Node5&#45;&gt;Node2</title>
<path fill="none" stroke="midnightblue" d="M186.491,-123.475C151.423,-112.607 90.9108,-93.8552 53.8705,-82.3765"/>
<polygon fill="midnightblue" stroke="midnightblue" points="54.6742,-78.9615 44.0863,-79.3445 52.6021,-85.6478 54.6742,-78.9615"/>
</g>
<!-- Node6 -->
<g id="node6" class="node"><title>Node6</title>
<polygon fill="white" stroke="#bfbfbf" points="96,-62 96,-81 142,-81 142,-62 96,-62"/>
<text text-anchor="middle" x="119" y="-69" font-family="Helvetica,sans-Serif" font-size="10.00">cstdint</text>
</g>
<!-- Node5&#45;&gt;Node6 -->
<g id="edge6" class="edge"><title>Node5&#45;&gt;Node6</title>
<path fill="none" stroke="midnightblue" d="M200.389,-123.475C184.939,-113.799 159.51,-97.8721 141.184,-86.3941"/>
<polygon fill="midnightblue" stroke="midnightblue" points="142.919,-83.3509 132.586,-81.0091 139.203,-89.2834 142.919,-83.3509"/>
</g>
<!-- Node5&#45;&gt;Node7 -->
<g id="edge7" class="edge"><title>Node5&#45;&gt;Node7</title>
<path fill="none" stroke="midnightblue" d="M214,-123.475C214,-115.08 214,-101.981 214,-91.1631"/>
<polygon fill="midnightblue" stroke="midnightblue" points="217.5,-91.0091 214,-81.0091 210.5,-91.0091 217.5,-91.0091"/>
</g>
<!-- Node9 -->
<g id="node9" class="node"><title>Node9</title>
<polygon fill="white" stroke="#bfbfbf" points="303.5,-0.5 303.5,-19.5 352.5,-19.5 352.5,-0.5 303.5,-0.5"/>
<text text-anchor="middle" x="328" y="-7.5" font-family="Helvetica,sans-Serif" font-size="10.00">stdint.h</text>
</g>
<!-- Node8&#45;&gt;Node9 -->
<g id="edge9" class="edge"><title>Node8&#45;&gt;Node9</title>
<path fill="none" stroke="midnightblue" d="M358.842,-61.9751C353.549,-53.2268 345.165,-39.3691 338.473,-28.3093"/>
<polygon fill="midnightblue" stroke="midnightblue" points="341.32,-26.2531 333.148,-19.5091 335.33,-29.8768 341.32,-26.2531"/>
</g>
<!-- Node10 -->
<g id="node10" class="node"><title>Node10</title>
<polygon fill="white" stroke="#bfbfbf" points="370.5,-0.5 370.5,-19.5 429.5,-19.5 429.5,-0.5 370.5,-0.5"/>
<text text-anchor="middle" x="400" y="-7.5" font-family="Helvetica,sans-Serif" font-size="10.00">inttypes.h</text>
</g>
<!-- Node8&#45;&gt;Node10 -->
<g id="edge10" class="edge"><title>Node8&#45;&gt;Node10</title>
<path fill="none" stroke="midnightblue" d="M369.158,-61.9751C374.451,-53.2268 382.835,-39.3691 389.527,-28.3093"/>
<polygon fill="midnightblue" stroke="midnightblue" points="392.67,-29.8768 394.852,-19.5091 386.68,-26.2531 392.67,-29.8768"/>
</g>
<!-- Node12 -->
<g id="node12" class="node"><title>Node12</title>
<polygon fill="white" stroke="#bfbfbf" points="592,-62 592,-81 644,-81 644,-62 592,-62"/>
<text text-anchor="middle" x="618" y="-69" font-family="Helvetica,sans-Serif" font-size="10.00">memory</text>
</g>
<!-- Node11&#45;&gt;Node12 -->
<g id="edge12" class="edge"><title>Node11&#45;&gt;Node12</title>
<path fill="none" stroke="midnightblue" d="M611.146,-123.475C612.275,-115.08 614.036,-101.981 615.491,-91.1631"/>
<polygon fill="midnightblue" stroke="midnightblue" points="618.992,-91.3863 616.856,-81.0091 612.055,-90.4535 618.992,-91.3863"/>
</g>
<!-- Node13&#45;&gt;Node8 -->
<g id="edge14" class="edge"><title>Node13&#45;&gt;Node8</title>
<path fill="none" stroke="midnightblue" d="M430.825,-123.475C418.429,-114.02 398.21,-98.5961 383.254,-87.1871"/>
<polygon fill="midnightblue" stroke="midnightblue" points="385.228,-84.2914 375.155,-81.0091 380.983,-89.857 385.228,-84.2914"/>
</g>
<!-- Node14 -->
<g id="node14" class="node"><title>Node14</title>
<g id="a_node14"><a xlink:href="current__function_8h.xhtml" target="_top" xlink:title="Declares GMX_CURRENT_FUNCTION for getting the current function name. ">
<polygon fill="white" stroke="black" points="460.5,-56.5 460.5,-86.5 573.5,-86.5 573.5,-56.5 460.5,-56.5"/>
<text text-anchor="start" x="468.5" y="-74.5" font-family="Helvetica,sans-Serif" font-size="10.00">gromacs/utility/current</text>
<text text-anchor="middle" x="517" y="-63.5" font-family="Helvetica,sans-Serif" font-size="10.00">_function.h</text>
</a>
</g>
</g>
<!-- Node13&#45;&gt;Node14 -->
<g id="edge15" class="edge"><title>Node13&#45;&gt;Node14</title>
<path fill="none" stroke="midnightblue" d="M452.746,-123.475C462.808,-115.492 478.234,-103.254 491.449,-92.7703"/>
<polygon fill="midnightblue" stroke="midnightblue" points="493.665,-95.48 499.324,-86.523 489.315,-89.9961 493.665,-95.48"/>
</g>
</g>
</svg>
